<svg xmlns="http://www.w3.org/2000/svg" width="24" height="28" fill="none" viewBox="0 0 24 28"><g clip-path="url(#clip0_9070_16229)"><path fill="#1A1A1A" d="M10.9609 0.66879C11.5325 0.336966 12.4675 0.336967 13.0391 0.66879L22.9609 6.42855C23.2465 6.59441 23.506 6.88098 23.6943 7.20883C23.8827 7.53682 24 7.90724 24 8.2391V19.7586C24 20.0904 23.8826 20.4599 23.6943 20.7879C23.506 21.116 23.2467 21.4032 22.9609 21.5692L13.0391 27.3289C12.4676 27.6606 11.5324 27.6606 10.9609 27.3289L1.03906 21.5692C0.753343 21.4033 0.493976 21.1159 0.305664 20.7879C0.11732 20.4599 4.34576e-06 20.0904 0 19.7586V8.2391C1.26867e-05 7.57547 0.467499 6.76037 1.03906 6.42855L10.9609 0.66879ZM12.002 5.85922C7.59074 5.85922 4.00195 9.448 4.00195 13.8592C4.00203 18.2703 7.59078 21.8592 12.002 21.8592C14.8484 21.8591 17.5029 20.327 18.9297 17.8611L15.4678 15.8582C14.7536 17.0925 13.4255 17.8591 12.002 17.8592C9.79635 17.8592 8.00203 16.0647 8.00195 13.8592C8.00195 11.6535 9.79631 9.85922 12.002 9.85922C13.4254 9.85933 14.7537 10.6261 15.4678 11.8602L18.9297 9.85629C17.5029 7.39074 14.8482 5.85933 12.002 5.85922Z"/></g><defs><clipPath id="clip0_9070_16229"><rect width="24" height="28" fill="#fff"/></clipPath></defs></svg>