<svg xmlns="http://www.w3.org/2000/svg" width="40" height="41" fill="none" viewBox="0 0 40 41"><rect width="40" height="40" y=".5" fill="#0D0D0D" fill-opacity=".08" rx="7.467"/><rect width="39.253" height="39.253" x=".373" y=".873" stroke="#0D0D0D" stroke-opacity=".15" stroke-width=".747" rx="7.094"/><path fill="#1A1A1A" d="M18.9609 7.16977C19.5325 6.83794 20.4675 6.83794 21.0391 7.16977L30.9609 12.9295C31.2465 13.0954 31.506 13.382 31.6943 13.7098C31.8827 14.0378 32 14.4082 32 14.7401V26.2596C32 26.5914 31.8826 26.9609 31.6943 27.2889C31.506 27.617 31.2467 27.9042 30.9609 28.0702L21.0391 33.8299C20.4676 34.1616 19.5324 34.1616 18.9609 33.8299L9.03906 28.0702C8.75334 27.9043 8.49398 27.6169 8.30566 27.2889C8.11732 26.9609 8 26.5914 8 26.2596V14.7401C8.00001 14.0764 8.4675 13.2614 9.03906 12.9295L18.9609 7.16977ZM20.002 12.3602C15.5907 12.3602 12.002 15.949 12.002 20.3602C12.002 24.7713 15.5908 28.3602 20.002 28.3602C22.8484 28.3601 25.5029 26.828 26.9297 24.3621L23.4678 22.3592C22.7536 23.5935 21.4255 24.3601 20.002 24.3602C17.7964 24.3602 16.002 22.5657 16.002 20.3602C16.002 18.1545 17.7963 16.3602 20.002 16.3602C21.4254 16.3603 22.7537 17.1271 23.4678 18.3612L26.9297 16.3573C25.5029 13.8917 22.8482 12.3603 20.002 12.3602Z"/></svg>