<svg xmlns="http://www.w3.org/2000/svg" width="24" height="28" fill="none" viewBox="0 0 24 28"><path fill="#1A1A1A" d="M10.9609 0.669766C11.5325 0.337942 12.4675 0.337943 13.0391 0.669766L22.9609 6.42953C23.2465 6.59539 23.506 6.88196 23.6943 7.20981C23.8827 7.5378 24 7.90822 24 8.24008V19.7596C24 20.0914 23.8826 20.4609 23.6943 20.7889C23.506 21.117 23.2467 21.4042 22.9609 21.5702L13.0391 27.3299C12.4676 27.6616 11.5324 27.6616 10.9609 27.3299L1.03906 21.5702C0.753343 21.4043 0.493976 21.1169 0.305664 20.7889C0.11732 20.4609 4.34576e-06 20.0914 0 19.7596V8.24008C1.26867e-05 7.57645 0.467499 6.76135 1.03906 6.42953L10.9609 0.669766ZM12.002 5.8602C7.59074 5.8602 4.00195 9.44898 4.00195 13.8602C4.00203 18.2713 7.59078 21.8602 12.002 21.8602C14.8484 21.8601 17.5029 20.328 18.9297 17.8621L15.4678 15.8592C14.7536 17.0935 13.4255 17.8601 12.002 17.8602C9.79635 17.8602 8.00203 16.0657 8.00195 13.8602C8.00195 11.6545 9.79631 9.8602 12.002 9.8602C13.4254 9.86031 14.7537 10.6271 15.4678 11.8612L18.9297 9.85727C17.5029 7.39172 14.8482 5.86031 12.002 5.8602ZM18.2227 13.4159H17.334V14.3045H18.2227V15.1932H19.1113V14.3045H20.001V13.4159H19.1113V12.5272H18.2227V13.4159ZM21.5557 13.4159H20.667V14.3045H21.5557V15.1932H22.4443V14.3045H23.334V13.4159H22.4443V12.5272H21.5557V13.4159Z"/></svg>