<svg xmlns="http://www.w3.org/2000/svg" width="23" height="22" fill="none" viewBox="0 0 23 22"><path fill="#1A1A1A" d="M11.8369 0C17.9133 0.000127453 22.8369 4.92347 22.8369 11C22.8369 17.0765 17.9133 21.9999 11.8369 22C5.76038 22 0.836914 17.0766 0.836914 11C0.79256 4.92339 5.71603 0 11.8369 0ZM14.1006 6.47559C11.5725 6.47559 9.53233 8.51581 9.53223 11.0439C9.53223 13.5722 11.5724 15.6123 14.1006 15.6123C16.6287 15.6122 18.6689 13.5277 18.6689 11.0439C18.6688 8.51589 16.6286 6.47572 14.1006 6.47559ZM5.93848 9.40332C5.05144 9.40338 4.29785 10.1579 4.29785 11.0449C4.2981 11.9318 5.00725 12.6855 5.93848 12.6855H8.1123V9.40332H5.93848Z"/></svg>