<svg xmlns="http://www.w3.org/2000/svg" width="22" height="22" fill="none" viewBox="0 0 22 22"><path fill="#1A1A1A" d="M11 22C4.92347 22 4.30416e-07 17.0766 9.61651e-07 11C1.49288e-06 4.92339 4.92347 -1.49288e-06 11 -9.61651e-07C17.0764 0.000193323 21.999 4.92351 21.999 11C22.0434 17.0765 17.1207 21.9998 11 22ZM8.73633 15.5244C11.2643 15.5242 13.3046 13.4841 13.3047 10.9561C13.3047 8.42794 11.2644 6.38788 8.73633 6.38769C6.20814 6.38769 4.16797 8.47218 4.16797 10.9561C4.16807 13.4842 6.2082 15.5244 8.73633 15.5244ZM16.8975 12.5967C17.7845 12.5967 18.5391 11.8422 18.5391 10.9551C18.5388 10.0682 17.8287 9.31445 16.8975 9.31445L14.7246 9.31445L14.7246 12.5967L16.8975 12.5967Z"/></svg>