<svg xmlns="http://www.w3.org/2000/svg" width="22" height="22" fill="none" viewBox="0 0 22 22"><path fill="#1A1A1A" d="M11 0C17.0649 0 22 4.93514 22 11C22 17.0649 17.0649 22 11 22C4.93514 22 0 17.0649 0 11C3.23356e-08 4.93514 4.93514 3.23347e-08 11 0ZM9.93652 5.5C6.93196 5.50011 4.50013 7.93196 4.5 10.9365V10.9424C4.50015 13.8531 6.78202 16.2256 9.65625 16.3711L9.93652 16.3789L10.1621 16.374C12.2641 16.2881 14.0563 15.0075 14.8848 13.1943H15.6162C16.9996 13.1941 18.1337 12.0592 18.1338 10.6758H18.1289C18.1257 9.2834 16.9746 8.18671 15.6104 8.18652V8.18066H14.6221C13.6765 6.57907 11.9364 5.50601 9.93652 5.50586V5.5ZM9.93652 7.15625C11.4589 7.15641 12.7738 8.05306 13.3701 9.35547L13.5898 9.83691H15.6104C16.0907 9.8371 16.4726 10.2244 16.4727 10.6816H16.4785C16.4752 11.1478 16.0772 11.5378 15.6162 11.5381H13.7168L13.5312 12.1113C13.0392 13.628 11.6153 14.7225 9.93652 14.7227C7.84671 14.7225 6.1564 13.0264 6.15625 10.9424V10.9365C6.15638 8.8467 7.85248 7.15636 9.93652 7.15625Z"/></svg>