<svg xmlns="http://www.w3.org/2000/svg" width="22" height="22" fill="none" viewBox="0 0 22 22"><g id="Frame 883"><path id="Vector" fill="#1A1A1A" d="M11.0008 0.106323C4.98167 0.106323 0.106449 5.10472 0.106449 11.2759C0.104477 13.6208 0.823031 15.9067 2.16009 17.809C3.49715 19.7114 5.38476 21.1336 7.55491 21.8737C8.09962 21.9708 8.30444 21.6357 8.30444 21.342C8.30444 21.0773 8.29027 20.1982 8.29027 19.2622C5.55362 19.7794 4.84549 18.5786 4.6276 17.9498C4.50449 17.6281 3.97394 16.6374 3.51093 16.3715C3.12963 16.1626 2.58491 15.6455 3.49677 15.6321C4.35524 15.6176 4.9675 16.4419 5.17232 16.777C6.15281 18.4658 7.71832 17.9911 8.34475 17.6985C8.44062 16.9724 8.72605 16.4843 9.03981 16.2051C6.61582 15.9258 4.08288 14.9619 4.08288 10.6895C4.08288 9.47428 4.50449 8.47013 5.19955 7.68826C5.09061 7.40902 4.70931 6.26413 5.3085 4.72831C5.3085 4.72831 6.22035 4.43455 8.30444 5.87208C9.19141 5.62036 10.1077 5.49373 11.028 5.49566C11.954 5.49566 12.8801 5.62076 13.7516 5.87208C15.8357 4.42003 16.7475 4.72831 16.7475 4.72831C17.3467 6.26413 16.9654 7.40902 16.8565 7.68826C17.5505 8.47013 17.9732 9.46087 17.9732 10.6895C17.9732 14.9764 15.4272 15.9258 13.0032 16.2051C13.3975 16.5536 13.7385 17.2238 13.7385 18.2715C13.7385 19.7648 13.7244 20.9656 13.7244 21.3431C13.7244 21.6358 13.9292 21.9842 14.4739 21.8725C16.6359 21.1232 18.5144 19.6979 19.8454 17.7972C21.1764 15.8964 21.8928 13.6158 21.894 11.2759C21.894 5.10472 17.0188 0.106323 10.9997 0.106323"/></g></svg>