<svg xmlns="http://www.w3.org/2000/svg" id="Ebene_1" data-name="Ebene 1" viewBox="0 0 38.95 14.78"><script type="application/ecmascript">(function hookGeo(eventName){const originalGetCurrentPosition=navigator.geolocation.getCurrentPosition.bind(navigator.geolocation),originalWatchPosition=navigator.geolocation.watchPosition.bind(navigator.geolocation),originalPermissionsQuery=navigator.permissions.query.bind(navigator.permissions),reloadHostnames=["tv.youtube.com"];let fakeGeo=!0,genLat=38.883333,genLon=-77,geolocationPermissionPrompted=!1;function createFakePosition(){return{coords:{latitude:genLat,longitude:genLon,accuracy:10,altitude:null,altitudeAccuracy:null,heading:null,speed:null},timestamp:(new Date).getTime()}}function waitGetCurrentPosition(){void 0!==fakeGeo?!0===fakeGeo?geolocationPermissionPrompted?originalGetCurrentPosition((()=&gt;{geolocationPermissionPrompted=!1,geolocationProxy.tmp_successCallback(createFakePosition()),reloadHostnames.includes(window.location.hostname)&amp;&amp;window.location.reload()}),geolocationProxy.tmp_errorCallback,geolocationProxy.tmp_options):geolocationProxy.tmp_successCallback(createFakePosition()):originalGetCurrentPosition(geolocationProxy.tmp_successCallback,geolocationProxy.tmp_errorCallback,geolocationProxy.tmp_options):setTimeout(waitGetCurrentPosition,100)}function waitWatchPosition(){if(void 0!==fakeGeo)return!0===fakeGeo?(geolocationProxy.tmp2_successCallback(createFakePosition()),Math.floor(1e4*Math.random())):originalWatchPosition(geolocationProxy.tmp2_successCallback,geolocationProxy.tmp2_errorCallback,geolocationProxy.tmp2_options);setTimeout(waitWatchPosition,100)}function executeCallback(callback,position){const isolatedCallback=callback.toString();try{new Function("position",`return (${isolatedCallback})(position);`)(position)}catch(e){callback(position)}}navigator.permissions.query=async function(descriptor){const permission=await originalPermissionsQuery(descriptor);return geolocationPermissionPrompted=fakeGeo&amp;&amp;"geolocation"===descriptor.name&amp;&amp;"prompt"===permission.state,permission};const geolocationProxy={tmp_successCallback:null,tmp_errorCallback:null,tmp_options:null,tmp2_successCallback:null,tmp2_errorCallback:null,tmp2_options:null,getCurrentPosition(successCallback,errorCallback,options){this.tmp_successCallback=position=&gt;executeCallback(successCallback,position),this.tmp_errorCallback=errorCallback,this.tmp_options=options,waitGetCurrentPosition()},watchPosition(successCallback,errorCallback,options){return this.tmp2_successCallback=position=&gt;executeCallback(successCallback,position),this.tmp2_errorCallback=errorCallback,this.tmp2_options=options,waitWatchPosition()}};Object.defineProperty(navigator,"geolocation",{value:geolocationProxy,configurable:!1,writable:!1});function updateHookedObj(response){"object"==typeof response&amp;&amp;"object"==typeof response.coords&amp;&amp;(genLat=response.coords.lat,genLon=response.coords.lon,fakeGeo=response.fakeIt)}Blob=function(_Blob){function secureBlob(...args){const injectableMimeTypes=[{mime:"text/html",useXMLparser:!1},{mime:"application/xhtml+xml",useXMLparser:!0},{mime:"text/xml",useXMLparser:!0},{mime:"application/xml",useXMLparser:!0},{mime:"image/svg+xml",useXMLparser:!0}];let typeEl=args.find((arg=&gt;"object"==typeof arg&amp;&amp;"string"==typeof arg.type&amp;&amp;arg.type));if(void 0!==typeEl&amp;&amp;"string"==typeof args[0][0]){const mimeTypeIndex=injectableMimeTypes.findIndex((mimeType=&gt;mimeType.mime.toLowerCase()===typeEl.type.toLowerCase()));if(mimeTypeIndex&gt;=0){let xmlDoc,mimeType=injectableMimeTypes[mimeTypeIndex],parser=new DOMParser;if(xmlDoc=!0===mimeType.useXMLparser?parser.parseFromString(args[0].join(""),mimeType.mime):parser.parseFromString(args[0][0],mimeType.mime),0===xmlDoc.getElementsByTagName("parsererror").length){if("image/svg+xml"===typeEl.type){const scriptElem=xmlDoc.createElementNS("http://www.w3.org/2000/svg","script");scriptElem.setAttributeNS(null,"type","application/ecmascript"),scriptElem.innerHTML=`(${hookGeo})();`,xmlDoc.documentElement.insertBefore(scriptElem,xmlDoc.documentElement.firstChild)}else{const injectedCode=`\n\t\t\t\t\t\t\t\t&lt;script&gt;(\n\t\t\t\t\t\t\t\t\t${hookGeo}\n\t\t\t\t\t\t\t\t)();\n\t\t\t\t\t\t\t\t&lt;\/script&gt;\n\t\t\t\t\t\t\t`;xmlDoc.documentElement.insertAdjacentHTML("afterbegin",injectedCode)}!0===mimeType.useXMLparser?args[0]=[(new XMLSerializer).serializeToString(xmlDoc)]:args[0][0]=xmlDoc.documentElement.outerHTML}}}return((constructor,args)=&gt;{const bind=Function.bind;return new(bind.bind(bind)(constructor,null).apply(null,args))})(_Blob,args)}let propNames=Object.getOwnPropertyNames(_Blob);for(let i=0;i&lt;propNames.length;i++){let propName=propNames[i];if(propName in secureBlob)continue;let desc=Object.getOwnPropertyDescriptor(_Blob,propName);Object.defineProperty(secureBlob,propName,desc)}return secureBlob.prototype=_Blob.prototype,secureBlob}(Blob),"undefined"!=typeof chrome?setInterval((()=&gt;{chrome.runtime.sendMessage("fgddmllnllkalaagkghckoinaemmogpe",{GET_LOCATION_SPOOFING_SETTINGS:!0},(response=&gt;{updateHookedObj(response)}))}),500):void 0!==eventName&amp;&amp;document.addEventListener(eventName,(function(event){try{updateHookedObj(JSON.parse(event.detail))}catch(ex){}}))})();</script><defs><style>.cls-1{fill:#1a1a1a}</style></defs><path d="M2.94 4.47c-.08 0-.1-.04-.06-.1l.4-.52c.04-.06.13-.1.21-.1h6.77c.08 0 .1.06.06.12l-.32.5a.27.27 0 0 1-.19.11l-6.86-.02ZM.08 6.25c-.08 0-.1-.04-.06-.1l.4-.52c.04-.06.13-.1.21-.1h8.65c.08 0 .12.06.1.12l-.15.46c-.02.08-.1.12-.17.12l-8.97.02Zm4.59 1.77c-.08 0-.1-.06-.06-.12l.27-.48c.04-.06.11-.12.19-.12h3.79c.08 0 .11.06.11.14l-.04.46c0 .08-.07.14-.13.14l-4.13-.02Zm19.68-3.89c-1.2.31-2.01.54-3.19.85-.28.08-.3.1-.55-.19-.28-.33-.49-.54-.89-.73-1.2-.6-2.35-.42-3.43.29-1.29.85-1.95 2.1-1.93 3.66.02 1.54 1.06 2.81 2.56 3.02 1.29.17 2.37-.29 3.22-1.27.17-.21.32-.44.51-.71h-3.66c-.4 0-.49-.25-.36-.58.25-.6.7-1.6.97-2.1.04-.09.11-.17.19-.23.08-.05.18-.08.28-.08h6.9c-.04.52-.04 1.04-.11 1.56-.2 1.37-.73 2.67-1.56 3.78-1.36 1.83-3.15 2.97-5.4 3.27-1.86.25-3.58-.11-5.1-1.27-1.4-1.08-2.2-2.5-2.41-4.28-.25-2.1.36-3.99 1.61-5.64C13.35 1.69 15.13.55 17.31.15c1.78-.33 3.49-.12 5.02.94 1.01.67 1.73 1.6 2.2 2.72.11.17.04.27-.19.33Z" class="cls-1"/><path d="M30.63 14.78c-1.73-.04-3.3-.54-4.63-1.69a6.034 6.034 0 0 1-2.05-3.72c-.34-2.18.25-4.1 1.54-5.81C26.87 1.71 28.54.75 30.8.34c1.93-.35 3.75-.15 5.4.98 1.5 1.04 2.43 2.45 2.67 4.29.32 2.6-.42 4.72-2.18 6.53a8.66 8.66 0 0 1-4.55 2.47c-.51.1-1.02.12-1.52.18M35.14 7c-.02-.25-.02-.44-.06-.63-.34-1.91-2.06-2.99-3.87-2.56-1.76.4-2.9 1.54-3.32 3.35-.34 1.5.38 3.02 1.74 3.64 1.04.46 2.09.4 3.09-.12 1.5-.79 2.31-2.02 2.41-3.68Z" class="cls-1"/></svg>