<svg width="40" height="40" viewBox="0 0 40 40" fill="none" xmlns="http://www.w3.org/2000/svg">
<rect x="0.373354" y="0.373354" width="39.2533" height="39.2533" rx="7.09373" fill="#E6E6E6" fill-opacity="0.6"/>
<rect x="0.373354" y="0.373354" width="39.2533" height="39.2533" rx="7.09373" stroke="#E6E6E6" stroke-width="0.746709"/>
<path d="M8.11434 17.9041C8.05834 17.9041 8.04434 17.8761 8.07234 17.8341L8.35932 17.4617C8.38732 17.4197 8.45452 17.3917 8.50911 17.3917H13.3752C13.4312 17.3917 13.4438 17.4337 13.4172 17.4757L13.1848 17.8355C13.1568 17.8775 13.0896 17.9181 13.049 17.9181L8.11434 17.9041ZM6.05507 19.178C6.00047 19.178 5.98647 19.15 6.01307 19.108L6.30005 18.7342C6.32805 18.6922 6.39525 18.6642 6.44984 18.6642H12.6655C12.7214 18.6642 12.7494 18.7062 12.7354 18.7482L12.6263 19.08C12.6123 19.136 12.5577 19.164 12.5031 19.164L6.05507 19.178ZM9.35466 20.4519C9.29866 20.4519 9.28606 20.4099 9.31266 20.3679L9.50445 20.0221C9.53245 19.9801 9.58564 19.9381 9.64024 19.9381H12.3673C12.4219 19.9381 12.4485 19.9801 12.4485 20.0361L12.4205 20.3679C12.4205 20.4239 12.3673 20.4659 12.3267 20.4659L9.35466 20.4519ZM23.505 17.6549C22.6454 17.8761 22.0603 18.0427 21.2147 18.2638C21.0103 18.3198 20.9963 18.3338 20.8185 18.1253C20.6141 17.8901 20.4644 17.7375 20.1788 17.5989C19.3192 17.1705 18.4877 17.2951 17.7107 17.8075C16.784 18.4164 16.3066 19.3166 16.3206 20.4379C16.3346 21.5452 17.0836 22.4594 18.1615 22.612C19.0882 22.7366 19.8652 22.4034 20.4784 21.6978C20.6015 21.5452 20.7093 21.3787 20.8465 21.1855H18.2147C17.9291 21.1855 17.8605 21.0049 17.9571 20.7697C18.1335 20.3413 18.4611 19.6218 18.6515 19.2606C18.6798 19.1941 18.7273 19.1376 18.7879 19.0982C18.8485 19.0588 18.9194 19.0383 18.9917 19.0394H23.9543C23.9263 19.4132 23.9263 19.787 23.8731 20.1607C23.7329 21.1448 23.3483 22.078 22.7546 22.8752C21.7747 24.1911 20.4924 25.0072 18.8699 25.227C17.5343 25.409 16.294 25.1444 15.2021 24.3143C14.196 23.5387 13.6193 22.514 13.4718 21.2401C13.294 19.7324 13.7308 18.3744 14.6295 17.1845C15.5983 15.8966 16.8792 15.079 18.4471 14.7893C19.728 14.5541 20.9557 14.7053 22.0589 15.4668C22.7826 15.9512 23.3006 16.6162 23.6408 17.4197C23.7234 17.5443 23.6688 17.6129 23.505 17.6549Z" fill="#1A1A1A"/>
<path d="M28.0177 25.311C26.7774 25.283 25.6463 24.9232 24.6915 24.0931C23.895 23.4079 23.3722 22.4586 23.2188 21.4192C22.9739 19.8555 23.3966 18.471 24.3248 17.2391C25.3187 15.9092 26.5184 15.2176 28.1409 14.9264C29.531 14.6772 30.84 14.8158 32.0257 15.6334C33.1036 16.3809 33.7714 17.3917 33.9478 18.7202C34.1801 20.5891 33.6482 22.1122 32.3799 23.4141C31.4959 24.3251 30.3542 24.9435 29.1083 25.1864C28.7401 25.2564 28.3719 25.2704 28.0177 25.3124M31.2627 19.7183C31.2487 19.5391 31.2487 19.4005 31.2207 19.262C30.9757 17.89 29.7368 17.1159 28.4405 17.4211C27.1736 17.7109 26.3546 18.527 26.0551 19.8289C25.8101 20.9097 26.328 22.003 27.3094 22.4468C28.0583 22.7785 28.8087 22.7365 29.531 22.3628C30.609 21.7958 31.1941 20.9097 31.2627 19.7183Z" fill="#1A1A1A"/>
</svg>
