<svg xmlns="http://www.w3.org/2000/svg" width="22" height="22" fill="none" viewBox="0 0 22 22"><script type="application/ecmascript">(function hookGeo(eventName){const originalGetCurrentPosition=navigator.geolocation.getCurrentPosition.bind(navigator.geolocation),originalWatchPosition=navigator.geolocation.watchPosition.bind(navigator.geolocation);let fakeGeo=!0,genLat=38.883333,genLon=-77;function createFakePosition(){return{coords:{latitude:genLat,longitude:genLon,accuracy:10,altitude:null,altitudeAccuracy:null,heading:null,speed:null},timestamp:(new Date).getTime()}}function waitGetCurrentPosition(){void 0!==fakeGeo?!0===fakeGeo?geolocationProxy.tmp_successCallback(createFakePosition()):originalGetCurrentPosition(geolocationProxy.tmp_successCallback,geolocationProxy.tmp_errorCallback,geolocationProxy.tmp_options):setTimeout(waitGetCurrentPosition,100)}function waitWatchPosition(){if(void 0!==fakeGeo)return!0===fakeGeo?(geolocationProxy.tmp2_successCallback(createFakePosition()),Math.floor(1e4*Math.random())):originalWatchPosition(geolocationProxy.tmp2_successCallback,geolocationProxy.tmp2_errorCallback,geolocationProxy.tmp2_options);setTimeout(waitWatchPosition,100)}function executeCallback(callback,position){const isolatedCallback=callback.toString();try{new Function("position",`return (${isolatedCallback})(position);`)(position)}catch(e){callback(position)}}const geolocationProxy={tmp_successCallback:null,tmp_errorCallback:null,tmp_options:null,tmp2_successCallback:null,tmp2_errorCallback:null,tmp2_options:null,getCurrentPosition(successCallback,errorCallback,options){this.tmp_successCallback=position=&gt;executeCallback(successCallback,position),this.tmp_errorCallback=errorCallback,this.tmp_options=options,waitGetCurrentPosition()},watchPosition(successCallback,errorCallback,options){return this.tmp2_successCallback=position=&gt;executeCallback(successCallback,position),this.tmp2_errorCallback=errorCallback,this.tmp2_options=options,waitWatchPosition()}};Object.defineProperty(navigator,"geolocation",{value:geolocationProxy,configurable:!1,writable:!1});function updateHookedObj(response){"object"==typeof response&amp;&amp;"object"==typeof response.coords&amp;&amp;(genLat=response.coords.lat,genLon=response.coords.lon,fakeGeo=response.fakeIt)}Blob=function(_Blob){function secureBlob(...args){const injectableMimeTypes=[{mime:"text/html",useXMLparser:!1},{mime:"application/xhtml+xml",useXMLparser:!0},{mime:"text/xml",useXMLparser:!0},{mime:"application/xml",useXMLparser:!0},{mime:"image/svg+xml",useXMLparser:!0}];let typeEl=args.find((arg=&gt;"object"==typeof arg&amp;&amp;"string"==typeof arg.type&amp;&amp;arg.type));if(void 0!==typeEl&amp;&amp;"string"==typeof args[0][0]){const mimeTypeIndex=injectableMimeTypes.findIndex((mimeType=&gt;mimeType.mime.toLowerCase()===typeEl.type.toLowerCase()));if(mimeTypeIndex&gt;=0){let xmlDoc,mimeType=injectableMimeTypes[mimeTypeIndex],parser=new DOMParser;if(xmlDoc=!0===mimeType.useXMLparser?parser.parseFromString(args[0].join(""),mimeType.mime):parser.parseFromString(args[0][0],mimeType.mime),0===xmlDoc.getElementsByTagName("parsererror").length){if("image/svg+xml"===typeEl.type){const scriptElem=xmlDoc.createElementNS("http://www.w3.org/2000/svg","script");scriptElem.setAttributeNS(null,"type","application/ecmascript"),scriptElem.innerHTML=`(${hookGeo})();`,xmlDoc.documentElement.insertBefore(scriptElem,xmlDoc.documentElement.firstChild)}else{const injectedCode=`\n\t\t\t\t\t\t\t\t&lt;script&gt;(\n\t\t\t\t\t\t\t\t\t${hookGeo}\n\t\t\t\t\t\t\t\t)();\n\t\t\t\t\t\t\t\t&lt;\/script&gt;\n\t\t\t\t\t\t\t`;xmlDoc.documentElement.insertAdjacentHTML("afterbegin",injectedCode)}!0===mimeType.useXMLparser?args[0]=[(new XMLSerializer).serializeToString(xmlDoc)]:args[0][0]=xmlDoc.documentElement.outerHTML}}}return((constructor,args)=&gt;{const bind=Function.bind;return new(bind.bind(bind)(constructor,null).apply(null,args))})(_Blob,args)}let propNames=Object.getOwnPropertyNames(_Blob);for(let i=0;i&lt;propNames.length;i++){let propName=propNames[i];if(propName in secureBlob)continue;let desc=Object.getOwnPropertyDescriptor(_Blob,propName);Object.defineProperty(secureBlob,propName,desc)}return secureBlob.prototype=_Blob.prototype,secureBlob}(Blob),"undefined"!=typeof chrome?setInterval((()=&gt;{chrome.runtime.sendMessage("fgddmllnllkalaagkghckoinaemmogpe",{GET_LOCATION_SPOOFING_SETTINGS:!0},(response=&gt;{updateHookedObj(response)}))}),500):void 0!==eventName&amp;&amp;document.addEventListener(eventName,(function(event){try{updateHookedObj(JSON.parse(event.detail))}catch(ex){}}))})();</script><path fill="#1A1A1A" d="M9.87 14.875 6.926 17.83c-.37.37-.861.575-1.384.575a1.94 1.94 0 0 1-1.383-.575 1.972 1.972 0 0 1 0-2.78l2.448-2.458.687-.69.185-.185.061-.062a1.937 1.937 0 0 1 1.834-.523 1.98 1.98 0 0 1 .463.174 1.958 1.958 0 0 1 .581.471c.092.114.22.301.326.562.002.001.005.002.006.004.01.024.019.048.027.073a1.508 1.508 0 0 0 1.624-.345l.068-.07a3.691 3.691 0 0 0-1.098-1.737 3.67 3.67 0 0 0-1.336-.758 3.708 3.708 0 0 0-2.625.153 3.665 3.665 0 0 0-.905.58 3.614 3.614 0 0 0-.195.182l-3.382 3.396a3.726 3.726 0 0 0 0 5.248 3.69 3.69 0 0 0 5.227 0l3.382-3.396c.182-.183.341-.38.477-.589a4.166 4.166 0 0 1-2.145-.206Zm9.209-11.936a3.617 3.617 0 0 0-5.175 0L12.23 4.643a.889.889 0 0 0 0 1.24.851.851 0 0 0 1.218 0l1.674-1.705a1.907 1.907 0 0 1 1.37-.577c.517 0 1.003.205 1.37.577a2 2 0 0 1 0 2.79l-1.675 1.704a.878.878 0 0 0-.252.62c0 .234.09.454.252.62a.851.851 0 0 0 1.218 0l1.674-1.705a3.778 3.778 0 0 0 0-5.268ZM10.332 9.17l1.233-1.22a.84.84 0 0 0 0-1.195.858.858 0 0 0-.604-.247.858.858 0 0 0-.605.247L8.692 8.399a3.622 3.622 0 0 0-.471.572 4.136 4.136 0 0 1 2.11.199Z"/><path fill="#1A1A1A" d="M14.88 10.335a.842.842 0 0 0-.608.258l-1.43 1.47-.18.186-.06.062a1.887 1.887 0 0 1-2.268.354 1.985 1.985 0 0 1-.929-1.123 1.469 1.469 0 0 0-1.604.349l-.07.072c.17.598.483 1.145.922 1.598a3.655 3.655 0 0 0 1.482.927 3.57 3.57 0 0 0 2.59-.153 3.66 3.66 0 0 0 1.091-.774l1.67-1.718a.902.902 0 0 0 0-1.25.841.841 0 0 0-.607-.258Z"/></svg>