<svg xmlns="http://www.w3.org/2000/svg" width="18" height="22" fill="none" viewBox="0 0 18 22"><path fill="#1A1A1A" fill-rule="evenodd" d="M17.5641 17.9768C17.2555 17.7228 16.9403 17.4748 16.6517 17.1991C16.3303 16.8923 16.1284 16.5212 16.1724 16.0513C16.1977 15.781 16.1353 15.5484 15.8092 15.458C15.8859 15.2597 15.9577 15.1266 15.9868 14.9848C16.0191 14.8267 16.0174 14.6605 16.0218 14.4977C16.0672 12.7859 15.4488 11.2852 14.5329 9.88548C14.1111 9.24129 13.6706 8.60862 13.221 7.98351C12.5176 7.00588 12.2655 5.9076 12.2528 4.72115C12.2455 4.17346 12.1833 3.62789 12.067 3.09264C11.8413 2.05451 11.2851 1.24274 10.2764 0.807385C9.50347 0.473604 8.70339 0.407432 7.88715 0.621073C6.70105 0.931307 5.98381 1.81285 5.99722 3.04245C6.00994 4.22581 6.06889 5.41071 6.15569 6.59132C6.20519 7.26043 6.10206 7.83776 5.65811 8.36851C5.23117 8.87881 4.84926 9.42932 4.47939 9.98362C4.26815 10.3006 4.08115 10.6459 3.95053 11.003C3.59475 11.9763 3.26767 12.9577 2.69997 13.8389C2.48959 14.1655 2.4657 14.5309 2.61506 14.9044C2.65373 15.0012 2.67745 15.15 2.63036 15.2279C2.22576 15.8994 1.76909 16.4903 0.900264 16.6192C0.216889 16.7208 0.183201 16.845 0.203998 17.5496C0.221186 18.1231 0.214482 18.702 0.155873 19.2719C0.0934824 19.8829 0.157248 20.049 0.747467 20.1954C2.1094 20.5336 3.48251 20.8222 4.78515 21.3734C5.33979 21.608 5.89633 21.5266 6.34303 21.0704C6.80933 20.5942 7.39851 20.4078 8.03497 20.4072C9.1152 20.4063 10.1958 20.4584 11.2765 20.4706C11.5691 20.474 11.737 20.5828 11.8547 20.8485C11.9991 21.1739 12.2432 21.413 12.6187 21.4546C13.3394 21.534 13.9959 21.4271 14.542 20.8772C15.2154 20.1987 15.9919 19.6628 16.8821 19.2913C17.1368 19.1849 17.3767 19.0177 17.5873 18.8362C17.9707 18.5059 17.9504 18.2955 17.5641 17.9768ZM8.7302 4.1452C8.86048 3.69815 9.16625 3.40803 9.63134 3.32003C10.0225 3.24612 10.3537 3.43828 10.6005 3.87793C10.8663 4.35196 10.9536 4.84731 10.7267 5.36603C10.5406 5.79124 10.4532 5.83129 10.0181 5.68709C9.93659 5.6601 9.85701 5.62814 9.71264 5.57503C9.83433 5.47293 9.91098 5.39714 9.99864 5.33749C10.1935 5.20481 10.2482 5.01815 10.23 4.79643C10.2061 4.50528 9.97715 4.24746 9.74237 4.25073C9.53183 4.25365 9.35359 4.45131 9.32987 4.75174C9.31509 4.93892 9.3462 5.1297 9.35961 5.3686C8.76733 5.19278 8.5499 4.76274 8.7302 4.1452ZM6.53879 3.75831C6.75776 3.42693 7.08828 3.36059 7.41553 3.58231C7.76426 3.81881 8.02517 4.48568 7.89042 4.88443C7.84144 5.02949 7.69672 5.14224 7.59548 5.2696L7.49167 5.20532C7.45214 4.98996 7.44423 4.76103 7.36156 4.56371C7.30931 4.43859 7.14551 4.36021 7.03173 4.26087C6.92483 4.38789 6.74075 4.50889 6.72975 4.64381C6.71462 4.83012 6.81173 5.03568 6.8963 5.21632C6.94975 5.32993 7.06834 5.41312 7.19072 5.54564L6.86037 5.80517C6.34165 5.3411 6.18748 4.28923 6.53879 3.75831ZM13.0123 14.7937C12.9774 15.2413 12.9264 15.26 12.4764 15.3262C12.1569 15.3729 12.0709 15.4561 12.0548 15.8356C12.0372 16.2796 12.0365 16.7241 12.0527 17.1682C12.0632 17.4724 11.9604 17.7109 11.7511 17.9232C10.5885 19.1016 9.19959 19.66 7.53808 19.4574C6.82136 19.3699 6.35283 18.9337 5.97453 18.3163C6.14297 18.2539 6.26758 18.212 6.38909 18.1626C6.92569 17.9444 7.02606 17.4829 6.59758 17.0838C6.27376 16.7818 5.91248 16.5195 5.56512 16.243C5.22928 15.9757 4.88897 15.7139 4.55261 15.4474C4.26592 15.22 4.15644 14.9269 4.14956 14.5557C4.1334 13.665 4.31662 12.8318 4.6889 12.021C5.02097 11.2976 5.27826 10.54 5.58936 9.80642C5.75006 9.42795 5.91695 9.04071 6.15276 8.70848C6.37947 8.38982 6.51955 8.07787 6.49445 7.68754C6.48001 7.46823 6.4917 7.2472 6.4917 7.02703L6.61322 6.96653C6.80933 7.13582 7.00887 7.30151 7.20155 7.4751C7.89678 8.10176 8.55798 8.13046 9.31887 7.59026C9.64337 7.35978 9.99434 7.16573 10.3376 6.96257C10.423 6.91204 10.5253 6.88987 10.67 6.83573C11.0397 7.70645 11.4025 8.56015 11.7657 9.41385C11.9499 9.84767 12.0977 10.3019 12.3267 10.711C12.7858 11.5317 13.03 12.3976 13.0262 13.3359C13.0242 13.8223 13.0498 14.3104 13.0123 14.7937Z" clip-rule="evenodd"/></svg>