<svg xmlns="http://www.w3.org/2000/svg" width="18" height="22" fill="none" viewBox="0 0 18 22"><path fill="#1A1A1A" d="M14.9969 20.8235C13.834 21.9507 12.5644 21.7727 11.3422 21.2388C10.0488 20.693 8.86225 20.6692 7.49768 21.2388C5.78901 21.9745 4.8872 21.7609 3.86674 20.8235C-1.92378 14.855 -1.06944 5.76575 5.50423 5.43351C7.10611 5.51657 8.2215 6.31158 9.1589 6.38277C10.5591 6.09799 11.8999 5.27925 13.395 5.38604C15.1867 5.52843 16.5394 6.24038 17.4294 7.52189C13.7272 9.7408 14.6053 14.6177 17.9989 15.9822C17.3226 17.7621 16.4445 19.5301 14.985 20.8353L14.9969 20.8235ZM9.04024 5.36231C8.86226 2.71623 11.01 0.532921 13.4781 0.319336C13.8222 3.38072 10.7015 5.65896 9.04024 5.36231Z"/></svg>