<svg width="40" height="40" viewBox="0 0 40 40" fill="none" xmlns="http://www.w3.org/2000/svg">
<rect x="0.373354" y="0.373354" width="39.2533" height="39.2533" rx="7.09373" fill="#E6E6E6" fill-opacity="0.6"/>
<rect x="0.373354" y="0.373354" width="39.2533" height="39.2533" rx="7.09373" stroke="#E6E6E6" stroke-width="0.746709"/>
<path d="M19.9962 30.9999C19.7037 30.9999 19.4069 30.9213 19.1493 30.7729L16.4558 29.1795C16.0542 28.9525 16.2506 28.8739 16.3816 28.8303C16.9185 28.6425 17.0277 28.6032 17.5995 28.2758C17.6607 28.2409 17.7392 28.254 17.8003 28.2933L19.8696 29.52C19.9438 29.5637 20.0486 29.5637 20.1184 29.52L28.1815 24.8664C28.2557 24.8227 28.3037 24.7354 28.3037 24.6481V15.3409C28.3037 15.2492 28.2557 15.1663 28.1771 15.1182L20.1184 10.469C20.0442 10.4253 19.9438 10.4253 19.8696 10.469L11.8153 15.1226C11.7367 15.1663 11.6887 15.2536 11.6887 15.3452V24.6481C11.6887 24.7354 11.7367 24.8227 11.8153 24.862L14.0242 26.1367C15.2247 26.7348 15.9581 26.032 15.9581 25.3204V16.1354C15.9581 16.0044 16.0629 15.904 16.1938 15.904H17.2154C17.342 15.904 17.4511 16.0044 17.4511 16.1354V25.3248C17.4511 26.9225 16.578 27.8393 15.0632 27.8393C14.5961 27.8393 14.2294 27.8393 13.2079 27.3329L11.095 26.1149C10.5711 25.8137 10.248 25.2505 10.248 24.6437V15.3409C10.248 14.7384 10.5711 14.1709 11.095 13.8697L19.1493 9.21609C19.6601 8.92797 20.3367 8.92797 20.8431 9.21609L28.9062 13.8741C29.43 14.1753 29.7531 14.7384 29.7531 15.3452V24.6481C29.7531 25.2505 29.43 25.8137 28.9062 26.1193L20.8431 30.7729C20.5855 30.9213 20.293 30.9999 19.9962 30.9999ZM26.5051 21.828C26.5051 20.0862 25.3265 19.6234 22.8512 19.296C20.3454 18.9642 20.0922 18.794 20.0922 18.209C20.0922 17.7244 20.3061 17.0783 22.1615 17.0783C23.816 17.0783 24.4272 17.4363 24.6804 18.5539C24.7022 18.6587 24.7982 18.7372 24.9074 18.7372H25.9551C26.0206 18.7372 26.0817 18.711 26.1253 18.663C26.169 18.615 26.1908 18.5495 26.1865 18.484C26.0249 16.5589 24.7458 15.6639 22.1615 15.6639C19.8609 15.6639 18.4901 16.6331 18.4901 18.2614C18.4901 20.0251 19.8565 20.514 22.0611 20.7323C24.7022 20.9898 24.9074 21.3784 24.9074 21.8978C24.9074 22.7971 24.1827 23.1813 22.4845 23.1813C20.3498 23.1813 19.8827 22.6443 19.7255 21.5835C19.7081 21.47 19.612 21.3871 19.4942 21.3871H18.4508C18.3198 21.3871 18.2194 21.4919 18.2194 21.6185C18.2194 22.9761 18.9572 24.5957 22.4889 24.5957C25.0383 24.5914 26.5051 23.5829 26.5051 21.828Z" fill="#1A1A1A"/>
</svg>
