<svg xmlns="http://www.w3.org/2000/svg" width="18" height="23" fill="none" viewBox="0 0 18 23"><path fill="#1A1A1A" d="M8.99871 4.61329C5.93163 4.61329 3.44531 3.86735 3.44531 2.94629V5.49987C3.44531 6.42039 5.93163 7.16687 8.99871 7.16687C12.0658 7.16687 14.5521 6.42039 14.5521 5.49987V2.94629C14.5521 3.86681 12.0658 4.61329 8.99871 4.61329Z"/><path fill="#1A1A1A" d="M8.99871 7.61134C5.93163 7.61134 3.44531 6.86485 3.44531 5.94434V8.49792C3.44531 9.41844 5.93163 10.1649 8.99871 10.1649C12.0658 10.1649 14.5521 9.41844 14.5521 8.49792V5.94434C14.5521 6.86485 12.0658 7.61134 8.99871 7.61134Z"/><path fill="#1A1A1A" d="M8.99871 10.7217C5.93163 10.7217 3.44531 9.9752 3.44531 9.05469V11.6083C3.44531 12.5288 5.93163 13.2753 8.99871 13.2753C12.0658 13.2753 14.5521 12.5288 14.5521 11.6083V9.05469C14.5521 9.9752 12.0658 10.7217 8.99871 10.7217Z"/><path fill="#1A1A1A" d="M8.99871 4.05665C12.0658 4.05665 14.5521 3.31075 14.5521 2.39063C14.5521 1.47051 12.0658 0.724609 8.99871 0.724609C5.93166 0.724609 3.44531 1.47051 3.44531 2.39063C3.44531 3.31075 5.93166 4.05665 8.99871 4.05665Z"/><path fill="#1A1A1A" d="M2.30082 22.3499C1.75449 22.3499 1.3199 22.1959 0.997071 21.888C0.674237 21.5801 0.512821 21.1629 0.512821 20.6364V18.4759C0.512821 17.9445 0.674237 17.5273 0.997071 17.2243C1.3199 16.9164 1.75449 16.7624 2.30082 16.7624C2.84715 16.7624 3.28174 16.9164 3.60457 17.2243C3.9274 17.5273 4.08882 17.9445 4.08882 18.4759V20.6364C4.08882 21.1629 3.9274 21.5801 3.60457 21.888C3.28174 22.1959 2.84715 22.3499 2.30082 22.3499ZM2.30082 21.3814C2.52432 21.3814 2.6907 21.3243 2.79997 21.21C2.9142 21.0908 2.97132 20.9245 2.97132 20.7109V18.4014C2.97132 18.1829 2.91669 18.0165 2.80742 17.9022C2.69815 17.788 2.52929 17.7309 2.30082 17.7309C2.07235 17.7309 1.90349 17.788 1.79422 17.9022C1.68495 18.0165 1.63032 18.1829 1.63032 18.4014V20.7109C1.63032 20.9245 1.68495 21.0908 1.79422 21.21C1.90845 21.3243 2.07732 21.3814 2.30082 21.3814ZM5.00226 22.2754V16.8369H6.76791C7.14538 16.8369 7.47318 16.9089 7.75131 17.0529C8.03441 17.197 8.25294 17.4006 8.40691 17.6638C8.56584 17.9221 8.64531 18.2276 8.64531 18.5802V20.5246C8.64531 20.8723 8.56584 21.1778 8.40691 21.441C8.25294 21.7042 8.03441 21.9103 7.75131 22.0593C7.47318 22.2034 7.14538 22.2754 6.76791 22.2754H5.00226ZM6.11976 21.2696H6.76791C6.99141 21.2696 7.17269 21.2001 7.31176 21.061C7.45579 20.922 7.52781 20.7432 7.52781 20.5246V18.5802C7.52781 18.3617 7.45579 18.1853 7.31176 18.0512C7.17269 17.9122 6.99141 17.8426 6.76791 17.8426H6.11976V21.2696ZM9.4917 22.2754V16.8369H11.2425C11.605 16.8369 11.9204 16.8965 12.1886 17.0157C12.4618 17.1299 12.6728 17.2913 12.8218 17.4999C12.9758 17.7085 13.0528 17.9544 13.0528 18.2375C13.0528 18.4411 13.0131 18.6249 12.9336 18.7888C12.8591 18.9527 12.7523 19.0868 12.6133 19.1911C12.4792 19.2904 12.3227 19.3525 12.1439 19.3773V19.3922C12.3475 19.4121 12.5263 19.4841 12.6803 19.6083C12.8392 19.7275 12.9609 19.8815 13.0454 20.0702C13.1348 20.2589 13.1795 20.47 13.1795 20.7034C13.1795 21.0163 13.1 21.292 12.9411 21.5304C12.7871 21.7638 12.5686 21.9476 12.2855 22.0817C12.0073 22.2108 11.682 22.2754 11.3095 22.2754H9.4917ZM10.572 21.3739H11.2722C11.5156 21.3739 11.7068 21.3094 11.8459 21.1802C11.985 21.0511 12.0545 20.8723 12.0545 20.6438C12.0545 20.4154 11.985 20.2366 11.8459 20.1074C11.7068 19.9733 11.5156 19.9063 11.2722 19.9063H10.572V21.3739ZM10.572 19.0272H11.2276C11.4461 19.0272 11.6174 18.9701 11.7416 18.8558C11.8658 18.7366 11.9278 18.5777 11.9278 18.379C11.9278 18.1754 11.8658 18.019 11.7416 17.9097C11.6174 17.7955 11.4461 17.7383 11.2276 17.7383H10.572V19.0272ZM15.7617 22.3499C15.3991 22.3499 15.0813 22.2828 14.8081 22.1487C14.5349 22.0097 14.3214 21.8185 14.1674 21.5751C14.0184 21.3268 13.9439 21.0387 13.9439 20.7109V18.4014C13.9439 18.0686 14.0184 17.7806 14.1674 17.5372C14.3214 17.2938 14.5349 17.1051 14.8081 16.971C15.0813 16.8319 15.3991 16.7624 15.7617 16.7624C16.1292 16.7624 16.4471 16.8319 16.7153 16.971C16.9885 17.1051 17.1995 17.2938 17.3485 17.5372C17.5025 17.7806 17.5795 18.0686 17.5795 18.4014H16.462C16.462 18.1829 16.3999 18.0165 16.2757 17.9022C16.1565 17.788 15.9852 17.7309 15.7617 17.7309C15.5382 17.7309 15.3644 17.788 15.2402 17.9022C15.121 18.0165 15.0614 18.1829 15.0614 18.4014V20.7109C15.0614 20.9245 15.121 21.0908 15.2402 21.21C15.3644 21.3243 15.5382 21.3814 15.7617 21.3814C15.9852 21.3814 16.1565 21.3243 16.2757 21.21C16.3999 21.0908 16.462 20.9245 16.462 20.7109H17.5795C17.5795 21.0387 17.5025 21.3268 17.3485 21.5751C17.1995 21.8185 16.9885 22.0097 16.7153 22.1487C16.4471 22.2828 16.1292 22.3499 15.7617 22.3499Z"/></svg>