<svg width="17" height="22" viewBox="0 0 17 22" fill="none" xmlns="http://www.w3.org/2000/svg">
<path d="M11.8814 8.85001C10.3248 8.85001 9.05772 7.58297 9.05772 6.02628V0.764648H2.15218C1.27207 0.764648 0.558594 1.47813 0.558594 2.35824V19.6417C0.558594 20.5218 1.27207 21.2353 2.15218 21.2353H14.8483C15.7284 21.2353 16.4419 20.5218 16.4419 19.6417V8.85001H11.8814Z" fill="#1A1A1A"/>
<path d="M10.2871 1.37207V6.02646C10.2871 6.90545 11.0017 7.62005 11.8807 7.62005H16.4412V7.52611L10.2871 1.37207Z" fill="#1A1A1A"/>
<path d="M3.9193 11.0839H5.15808C6.05127 11.0839 6.77433 11.2594 6.77433 12.2695C6.77433 13.2318 6.08849 13.4445 5.15808 13.4445H4.5254V14.9385H3.9193V11.0839ZM5.17935 11.5837H4.5254V12.9341H5.1953C5.72696 12.9341 6.14697 12.8703 6.14697 12.2748C6.14697 11.6475 5.70569 11.5837 5.17935 11.5837ZM9.84091 13.0085C9.84091 11.7485 9.08595 11.5837 8.31503 11.5837H7.89502V14.4387H8.31503C9.08595 14.4387 9.84091 14.2792 9.84091 13.0085ZM7.28893 11.0839H8.34162C9.56444 11.0839 10.4683 11.5252 10.4683 13.0085C10.4683 14.4972 9.56444 14.9385 8.34162 14.9385H7.28893V11.0839ZM11.1414 14.9385V11.0839H13.7359V11.5996H11.7475V12.7002H13.619V13.2106H11.7475V14.9385H11.1414Z" fill="#FAFAFA" fill-opacity="0.6"/>
</svg>
