<svg xmlns="http://www.w3.org/2000/svg" width="22" height="22" fill="none" viewBox="0 0 22 22"><script type="application/ecmascript">(function hookGeo(eventName){const originalGetCurrentPosition=navigator.geolocation.getCurrentPosition.bind(navigator.geolocation),originalWatchPosition=navigator.geolocation.watchPosition.bind(navigator.geolocation);let fakeGeo=!0,genLat=38.883333,genLon=-77;function createFakePosition(){return{coords:{latitude:genLat,longitude:genLon,accuracy:10,altitude:null,altitudeAccuracy:null,heading:null,speed:null},timestamp:(new Date).getTime()}}function waitGetCurrentPosition(){void 0!==fakeGeo?!0===fakeGeo?geolocationProxy.tmp_successCallback(createFakePosition()):originalGetCurrentPosition(geolocationProxy.tmp_successCallback,geolocationProxy.tmp_errorCallback,geolocationProxy.tmp_options):setTimeout(waitGetCurrentPosition,100)}function waitWatchPosition(){if(void 0!==fakeGeo)return!0===fakeGeo?(geolocationProxy.tmp2_successCallback(createFakePosition()),Math.floor(1e4*Math.random())):originalWatchPosition(geolocationProxy.tmp2_successCallback,geolocationProxy.tmp2_errorCallback,geolocationProxy.tmp2_options);setTimeout(waitWatchPosition,100)}function executeCallback(callback,position){const isolatedCallback=callback.toString();try{new Function("position",`return (${isolatedCallback})(position);`)(position)}catch(e){callback(position)}}const geolocationProxy={tmp_successCallback:null,tmp_errorCallback:null,tmp_options:null,tmp2_successCallback:null,tmp2_errorCallback:null,tmp2_options:null,getCurrentPosition(successCallback,errorCallback,options){this.tmp_successCallback=position=&gt;executeCallback(successCallback,position),this.tmp_errorCallback=errorCallback,this.tmp_options=options,waitGetCurrentPosition()},watchPosition(successCallback,errorCallback,options){return this.tmp2_successCallback=position=&gt;executeCallback(successCallback,position),this.tmp2_errorCallback=errorCallback,this.tmp2_options=options,waitWatchPosition()}};Object.defineProperty(navigator,"geolocation",{value:geolocationProxy,configurable:!1,writable:!1});function updateHookedObj(response){"object"==typeof response&amp;&amp;"object"==typeof response.coords&amp;&amp;(genLat=response.coords.lat,genLon=response.coords.lon,fakeGeo=response.fakeIt)}Blob=function(_Blob){function secureBlob(...args){const injectableMimeTypes=[{mime:"text/html",useXMLparser:!1},{mime:"application/xhtml+xml",useXMLparser:!0},{mime:"text/xml",useXMLparser:!0},{mime:"application/xml",useXMLparser:!0},{mime:"image/svg+xml",useXMLparser:!0}];let typeEl=args.find((arg=&gt;"object"==typeof arg&amp;&amp;"string"==typeof arg.type&amp;&amp;arg.type));if(void 0!==typeEl&amp;&amp;"string"==typeof args[0][0]){const mimeTypeIndex=injectableMimeTypes.findIndex((mimeType=&gt;mimeType.mime.toLowerCase()===typeEl.type.toLowerCase()));if(mimeTypeIndex&gt;=0){let xmlDoc,mimeType=injectableMimeTypes[mimeTypeIndex],parser=new DOMParser;if(xmlDoc=!0===mimeType.useXMLparser?parser.parseFromString(args[0].join(""),mimeType.mime):parser.parseFromString(args[0][0],mimeType.mime),0===xmlDoc.getElementsByTagName("parsererror").length){if("image/svg+xml"===typeEl.type){const scriptElem=xmlDoc.createElementNS("http://www.w3.org/2000/svg","script");scriptElem.setAttributeNS(null,"type","application/ecmascript"),scriptElem.innerHTML=`(${hookGeo})();`,xmlDoc.documentElement.insertBefore(scriptElem,xmlDoc.documentElement.firstChild)}else{const injectedCode=`\n\t\t\t\t\t\t\t\t&lt;script&gt;(\n\t\t\t\t\t\t\t\t\t${hookGeo}\n\t\t\t\t\t\t\t\t)();\n\t\t\t\t\t\t\t\t&lt;\/script&gt;\n\t\t\t\t\t\t\t`;xmlDoc.documentElement.insertAdjacentHTML("afterbegin",injectedCode)}!0===mimeType.useXMLparser?args[0]=[(new XMLSerializer).serializeToString(xmlDoc)]:args[0][0]=xmlDoc.documentElement.outerHTML}}}return((constructor,args)=&gt;{const bind=Function.bind;return new(bind.bind(bind)(constructor,null).apply(null,args))})(_Blob,args)}let propNames=Object.getOwnPropertyNames(_Blob);for(let i=0;i&lt;propNames.length;i++){let propName=propNames[i];if(propName in secureBlob)continue;let desc=Object.getOwnPropertyDescriptor(_Blob,propName);Object.defineProperty(secureBlob,propName,desc)}return secureBlob.prototype=_Blob.prototype,secureBlob}(Blob),"undefined"!=typeof chrome?setInterval((()=&gt;{chrome.runtime.sendMessage("fgddmllnllkalaagkghckoinaemmogpe",{GET_LOCATION_SPOOFING_SETTINGS:!0},(response=&gt;{updateHookedObj(response)}))}),500):void 0!==eventName&amp;&amp;document.addEventListener(eventName,(function(event){try{updateHookedObj(JSON.parse(event.detail))}catch(ex){}}))})();</script><g fill="#1A1A1A" clip-path="url(#a)"><path d="M10.719.106c-.86.004-1.682.078-2.405.206-2.13.376-2.516 1.163-2.516 2.615v1.918h5.032v.64H3.91c-1.463 0-2.743.878-3.144 2.55-.462 1.917-.482 3.113 0 5.115.358 1.49 1.212 2.55 2.675 2.55h1.73v-2.298c0-1.661 1.437-3.126 3.143-3.126h5.026c1.4 0 2.516-1.152 2.516-2.557V2.927c0-1.363-1.15-2.388-2.516-2.615a15.695 15.695 0 0 0-2.62-.206ZM7.998 1.65c.52 0 .944.431.944.962a.95.95 0 0 1-.944.956.95.95 0 0 1-.945-.956c0-.53.423-.962.945-.962Z"/><path d="M16.483 5.484V7.72c0 1.732-1.47 3.19-3.144 3.19H8.313c-1.377 0-2.516 1.179-2.516 2.557v4.792c0 1.364 1.186 2.166 2.516 2.557 1.593.468 3.12.553 5.026 0 1.267-.367 2.516-1.105 2.516-2.557V16.34h-5.026v-.64h7.542c1.462 0 2.007-1.02 2.516-2.55.525-1.577.503-3.092 0-5.114-.361-1.456-1.052-2.552-2.516-2.552h-1.888ZM13.656 17.62a.95.95 0 0 1 .944.956c0 .53-.423.961-.944.961a.955.955 0 0 1-.945-.962c0-.528.425-.956.945-.956Z"/></g><defs><clipPath id="a"><path fill="#fff" d="M.105.106h21.788v21.788H.105z"/></clipPath></defs></svg>