<svg width="26" height="27" viewBox="0 0 26 27" fill="none" xmlns="http://www.w3.org/2000/svg">
<path d="M25.822 13.1815L24.7308 12.5055C24.7216 12.3995 24.7113 12.2936 24.6999 12.1878L25.6375 11.3127C25.6848 11.2694 25.7201 11.2145 25.7401 11.1536C25.76 11.0926 25.764 11.0275 25.7515 10.9646C25.739 10.9016 25.7105 10.843 25.6688 10.7942C25.6271 10.7455 25.5735 10.7083 25.5132 10.6863L24.314 10.2378C24.2841 10.1343 24.2529 10.0311 24.2205 9.92825L24.968 8.88907C25.0056 8.8372 25.0293 8.77658 25.0368 8.71298C25.0443 8.64937 25.0354 8.5849 25.011 8.5257C24.9866 8.4665 24.9474 8.41453 24.8972 8.37474C24.847 8.33496 24.7875 8.30867 24.7243 8.29839L23.4592 8.09283C23.4105 7.99695 23.3593 7.9027 23.3073 7.80845L23.8387 6.64253C23.8658 6.58432 23.8775 6.52009 23.8726 6.45605C23.8677 6.39201 23.8464 6.33031 23.8107 6.2769C23.775 6.2235 23.7262 6.18019 23.6689 6.15116C23.6116 6.12213 23.5478 6.10835 23.4836 6.11116L22.2007 6.15585C22.1343 6.073 22.0666 5.9912 21.9976 5.91047L22.2925 4.66005C22.3075 4.59772 22.3062 4.53258 22.2888 4.47088C22.2714 4.40917 22.2385 4.35296 22.1932 4.30763C22.1478 4.2623 22.0916 4.22936 22.0299 4.21197C21.9682 4.19458 21.9031 4.19331 21.8408 4.2083L20.5911 4.50243C20.5099 4.43418 20.4286 4.36674 20.3449 4.2993L20.3896 3.01719C20.3924 2.95302 20.3787 2.88921 20.3496 2.83192C20.3206 2.77462 20.2773 2.72578 20.2239 2.69009C20.1705 2.65441 20.1088 2.63309 20.0447 2.62819C19.9807 2.62329 19.9165 2.63498 19.8583 2.66213L18.6923 3.1935C18.5982 3.14146 18.5034 3.09054 18.408 3.04075L18.2024 1.77651C18.1922 1.71336 18.166 1.65388 18.1263 1.6037C18.0866 1.55353 18.0347 1.51433 17.9756 1.48983C17.9165 1.46533 17.8522 1.45634 17.7886 1.46371C17.7251 1.47108 17.6644 1.49457 17.6125 1.53196L16.5725 2.27945C16.4701 2.24688 16.3671 2.21573 16.2638 2.18601L15.8153 0.986774C15.7932 0.926614 15.756 0.873139 15.7073 0.831466C15.6586 0.789793 15.6 0.761316 15.5371 0.748761C15.4743 0.736206 15.4092 0.739992 15.3483 0.759758C15.2873 0.779523 15.2324 0.814606 15.1889 0.861649L14.3138 1.80089C14.2082 1.78952 14.1026 1.77814 13.9961 1.77002L13.3201 0.678026C13.2865 0.623598 13.2395 0.578671 13.1836 0.547513C13.1277 0.516355 13.0648 0.5 13.0008 0.5C12.9368 0.5 12.8739 0.516355 12.818 0.547513C12.7621 0.578671 12.7151 0.623598 12.6815 0.678026L12.0055 1.77002C11.8999 1.77814 11.7934 1.78952 11.6878 1.80089L10.8128 0.862461C10.769 0.81604 10.7141 0.781499 10.6533 0.762073C10.5925 0.742647 10.5278 0.738972 10.4652 0.751395C10.4026 0.763818 10.3441 0.791932 10.2954 0.833101C10.2466 0.874269 10.2091 0.927145 10.1863 0.986774L9.73784 2.18601C9.63384 2.21607 9.53065 2.24776 9.42909 2.28026L8.3891 1.53196C8.33735 1.49392 8.27668 1.46986 8.21294 1.46209C8.14919 1.45432 8.08452 1.46311 8.02516 1.4876C7.9658 1.5121 7.91375 1.55148 7.87403 1.60194C7.83432 1.6524 7.80827 1.71225 7.79841 1.7757L7.59204 3.04075C7.49698 3.09032 7.40273 3.1415 7.30766 3.1935L6.14255 2.66213C6.0844 2.63502 6.02025 2.62333 5.95628 2.62819C5.89231 2.63305 5.83067 2.6543 5.77728 2.68989C5.7239 2.72548 5.68058 2.7742 5.65149 2.83139C5.6224 2.88857 5.60851 2.95228 5.61118 3.01638L5.65586 4.30011C5.57299 4.36674 5.49093 4.43418 5.40968 4.50324L4.16006 4.2083C4.09777 4.19386 4.03282 4.1955 3.97133 4.21307C3.90984 4.23064 3.85383 4.26356 3.80857 4.30874C3.76331 4.35392 3.73029 4.40987 3.71261 4.47132C3.69493 4.53278 3.69317 4.59773 3.7075 4.66005L4.00244 5.91047C3.93338 5.99172 3.86594 6.07297 3.79931 6.15585L2.51639 6.11116C2.45237 6.10881 2.38882 6.12289 2.33178 6.15204C2.27474 6.1812 2.22611 6.22447 2.19052 6.27773C2.15493 6.33099 2.13357 6.39248 2.12846 6.45633C2.12335 6.52018 2.13466 6.58428 2.16133 6.64253L2.6927 7.80927C2.64151 7.9027 2.59032 7.99695 2.54076 8.09364L1.27652 8.29839C1.21323 8.30855 1.15361 8.33475 1.10332 8.3745C1.05303 8.41424 1.01376 8.46619 0.989237 8.52541C0.964717 8.58463 0.955771 8.64914 0.963249 8.7128C0.970728 8.77646 0.994383 8.83714 1.03196 8.88907L1.77945 9.92825C1.74695 10.0306 1.71608 10.1338 1.68602 10.237L0.486776 10.6863C0.426835 10.7087 0.373614 10.746 0.332169 10.7948C0.290724 10.8436 0.262431 10.9021 0.249975 10.9649C0.23752 11.0276 0.241317 11.0925 0.261005 11.1534C0.280692 11.2143 0.315616 11.2691 0.362462 11.3127L1.30089 12.1878C1.28871 12.2934 1.27814 12.399 1.26921 12.5055L0.178027 13.1815C0.123598 13.2151 0.0786715 13.2621 0.0475133 13.318C0.0163552 13.3739 0 13.4368 0 13.5008C0 13.5648 0.0163552 13.6277 0.0475133 13.6836C0.0786715 13.7394 0.123598 13.7864 0.178027 13.8201L1.26921 14.4953C1.27814 14.6017 1.28871 14.7081 1.30089 14.8138L0.362462 15.6888C0.315616 15.7324 0.280692 15.7872 0.261005 15.8481C0.241317 15.909 0.23752 15.9739 0.249975 16.0367C0.262431 16.0994 0.290724 16.158 0.332169 16.2067C0.373614 16.2555 0.426835 16.2928 0.486776 16.3152L1.68602 16.7637C1.71608 16.8677 1.74777 16.9709 1.78027 17.0725L1.03196 18.1125C0.994578 18.1644 0.971086 18.225 0.963713 18.2885C0.95634 18.3521 0.96533 18.4165 0.989832 18.4756C1.01433 18.5347 1.05353 18.5865 1.10371 18.6262C1.15388 18.6659 1.21337 18.6921 1.27652 18.7023L2.54076 18.9079C2.59032 19.0038 2.6407 19.0988 2.69351 19.1923L2.16133 20.3582C2.13466 20.4164 2.12335 20.4805 2.12846 20.5444C2.13357 20.6083 2.15493 20.6697 2.19052 20.723C2.22611 20.7763 2.27474 20.8195 2.33178 20.8487C2.38882 20.8778 2.45237 20.8919 2.51639 20.8896L3.79931 20.8449C3.86594 20.9286 3.93338 21.0098 4.00244 21.0911L3.7075 22.3415C3.69238 22.4039 3.69359 22.4691 3.71101 22.5309C3.72842 22.5927 3.76146 22.649 3.80693 22.6943C3.85241 22.7396 3.90879 22.7724 3.97064 22.7896C4.03249 22.8068 4.09773 22.8078 4.16006 22.7924L5.40968 22.4983C5.49093 22.5674 5.57299 22.634 5.65586 22.7006L5.61118 23.9844C5.60875 24.0484 5.62278 24.112 5.65193 24.169C5.68109 24.2261 5.72439 24.2747 5.7777 24.3102C5.83101 24.3458 5.89254 24.367 5.95642 24.372C6.0203 24.377 6.08438 24.3655 6.14255 24.3386L7.30848 23.8072C7.40192 23.8592 7.49698 23.9104 7.59285 23.96L7.79841 25.2234C7.80825 25.2869 7.83425 25.3468 7.8739 25.3973C7.91356 25.4478 7.96554 25.4873 8.02486 25.5119C8.08418 25.5366 8.14884 25.5455 8.21262 25.538C8.27641 25.5304 8.33718 25.5066 8.3891 25.4688L9.42828 24.7197C9.53065 24.7522 9.63384 24.7847 9.73702 24.8139L10.1855 26.0131C10.2076 26.0734 10.2447 26.127 10.2935 26.1687C10.3422 26.2104 10.4009 26.2389 10.4638 26.2514C10.5267 26.2639 10.5918 26.26 10.6528 26.24C10.7138 26.2201 10.7686 26.1847 10.812 26.1375L11.6878 25.199C11.7934 25.2112 11.8991 25.2218 12.0055 25.2315L12.6815 26.3227C12.7153 26.3769 12.7623 26.4217 12.8182 26.4527C12.8741 26.4837 12.9369 26.5 13.0008 26.5C13.0647 26.5 13.1276 26.4837 13.1834 26.4527C13.2393 26.4217 13.2863 26.3769 13.3201 26.3227L13.9953 25.2307C14.1017 25.2218 14.2082 25.2112 14.3138 25.199L15.1889 26.1375C15.2323 26.1845 15.287 26.2197 15.3479 26.2395C15.4088 26.2594 15.4737 26.2632 15.5365 26.2507C15.5993 26.2383 15.6579 26.2099 15.7066 26.1683C15.7552 26.1267 15.7924 26.0732 15.8145 26.0131L16.2638 24.8139C16.367 24.7847 16.4702 24.7522 16.5725 24.7197L17.6125 25.4688C17.6646 25.5059 17.7252 25.5292 17.7887 25.5364C17.8523 25.5436 17.9166 25.5345 17.9756 25.51C18.0347 25.4854 18.0865 25.4462 18.1262 25.3961C18.1658 25.3459 18.1921 25.2865 18.2024 25.2234L18.4088 23.9592C18.5038 23.9104 18.5981 23.8584 18.6923 23.8072L19.8583 24.3386C19.9165 24.3655 19.9807 24.377 20.0446 24.372C20.1086 24.367 20.1701 24.3457 20.2235 24.31C20.2768 24.2744 20.3201 24.2256 20.3492 24.1685C20.3783 24.1113 20.3922 24.0476 20.3896 23.9835L20.3449 22.6998C20.4278 22.6348 20.5099 22.5674 20.5911 22.4983L21.8408 22.7924C21.903 22.8076 21.9682 22.8065 22.0299 22.7892C22.0916 22.772 22.1479 22.7391 22.1933 22.6938C22.2386 22.6485 22.2716 22.5923 22.289 22.5306C22.3063 22.4689 22.3076 22.4038 22.2925 22.3415L21.9984 21.0911C22.0666 21.0098 22.1341 20.9286 22.2007 20.8449L23.4844 20.8896C23.5485 20.8922 23.6122 20.8784 23.6694 20.8493C23.7266 20.8202 23.7753 20.7768 23.8109 20.7235C23.8465 20.6701 23.8678 20.6084 23.8726 20.5445C23.8775 20.4805 23.8658 20.4163 23.8387 20.3582L23.3073 19.1923C23.3593 19.0988 23.4097 19.0038 23.4592 18.9079L24.7235 18.7023C24.7869 18.6925 24.8467 18.6666 24.8971 18.6269C24.9476 18.5873 24.987 18.5354 25.0115 18.4761C25.0361 18.4169 25.045 18.3523 25.0374 18.2886C25.0298 18.2249 25.0059 18.1643 24.968 18.1125L24.2205 17.0725C24.2529 16.9699 24.284 16.867 24.314 16.7637L25.5132 16.3152C25.5735 16.2932 25.6271 16.256 25.6688 16.2073C25.7105 16.1586 25.739 16.0999 25.7515 16.037C25.764 15.974 25.76 15.909 25.7401 15.848C25.7201 15.787 25.6848 15.7322 25.6375 15.6888L24.6991 14.8138C24.7105 14.7081 24.721 14.6017 24.7308 14.4953L25.822 13.8201C25.8764 13.7864 25.9213 13.7394 25.9525 13.6836C25.9836 13.6277 26 13.5648 26 13.5008C26 13.4368 25.9836 13.3739 25.9525 13.318C25.9213 13.2621 25.8764 13.2151 25.822 13.1815ZM18.5168 22.2359C18.321 22.1883 18.1516 22.0662 18.0444 21.8955C17.9373 21.7248 17.901 21.5191 17.9432 21.3221C17.9855 21.1251 18.1029 20.9523 18.2706 20.8406C18.4383 20.7289 18.6429 20.687 18.841 20.7238C19.0376 20.7708 19.2079 20.8928 19.3157 21.0638C19.4234 21.2348 19.4599 21.4411 19.4175 21.6387C19.375 21.8362 19.2569 22.0093 19.0884 22.121C18.92 22.2326 18.7153 22.2738 18.5168 22.2359ZM18.1455 19.7277C18.0552 19.7084 17.9619 19.707 17.871 19.7238C17.7801 19.7405 17.6934 19.775 17.6158 19.8252C17.5382 19.8755 17.4713 19.9405 17.4189 20.0166C17.3665 20.0928 17.3296 20.1784 17.3103 20.2688L16.9227 22.0774C15.6906 22.6362 14.3529 22.9244 13 22.9224C11.57 22.9224 10.2131 22.6056 8.99522 22.0392L8.60766 20.2315C8.58845 20.141 8.5516 20.0552 8.49921 19.979C8.44683 19.9028 8.37994 19.8377 8.30237 19.7874C8.22479 19.737 8.13806 19.7025 8.04713 19.6857C7.95619 19.6689 7.86284 19.6702 7.77241 19.6895L6.17586 20.0324C5.87919 19.7271 5.60341 19.4022 5.35037 19.0598H13.1186C13.2064 19.0598 13.2649 19.0436 13.2649 18.964V16.2161C13.2649 16.1357 13.2064 16.1202 13.1186 16.1202H10.8469V14.3775H13.3039C13.5281 14.3775 14.5031 14.4416 14.8151 15.688C14.9126 16.0707 15.1271 17.3179 15.2734 17.7168C15.4196 18.1645 16.0144 19.059 16.6481 19.059H20.5188C20.566 19.0586 20.613 19.054 20.6594 19.0452C20.3913 19.41 20.0963 19.7553 19.7795 20.0771L18.1463 19.7269L18.1455 19.7277ZM7.40192 22.1977C7.20382 22.2345 6.99917 22.1926 6.83149 22.0809C6.66382 21.9692 6.54637 21.7964 6.50413 21.5994C6.46189 21.4024 6.4982 21.1967 6.60532 21.026C6.71245 20.8553 6.88194 20.7332 7.07773 20.6856C7.17707 20.6644 7.27961 20.6629 7.37951 20.6813C7.47941 20.6997 7.57471 20.7376 7.65997 20.7929C7.74522 20.8481 7.81876 20.9196 7.87639 21.0032C7.93402 21.0869 7.97461 21.181 7.99585 21.2804C8.01708 21.3797 8.01854 21.4823 8.00014 21.5822C7.98175 21.6821 7.94385 21.7774 7.88862 21.8626C7.8334 21.9479 7.76192 22.0214 7.67827 22.079C7.59462 22.1367 7.50044 22.1773 7.4011 22.1985L7.40192 22.1977ZM4.455 10.2484C4.49613 10.341 4.51861 10.4409 4.52114 10.5422C4.52368 10.6436 4.50623 10.7445 4.46979 10.8391C4.43335 10.9337 4.37863 11.0202 4.30876 11.0937C4.23889 11.1671 4.15523 11.2261 4.06256 11.2672C3.9699 11.3084 3.87003 11.3308 3.76868 11.3334C3.66732 11.3359 3.56646 11.3185 3.47185 11.282C3.37724 11.2456 3.29074 11.1909 3.21727 11.121C3.14381 11.0511 3.08483 10.9675 3.04369 10.8748C2.96062 10.6876 2.9553 10.4752 3.0289 10.2841C3.10249 10.093 3.24898 9.939 3.43613 9.85593C3.62328 9.77286 3.83576 9.76754 4.02684 9.84114C4.21791 9.91473 4.37193 10.0612 4.455 10.2484ZM3.54907 12.3958L5.21224 11.6564C5.38292 11.5803 5.51643 11.4397 5.58346 11.2652C5.65049 11.0908 5.64556 10.8969 5.56974 10.7261L5.22768 9.95181H6.57479V16.0244H3.857C3.52149 14.846 3.41746 13.6139 3.54907 12.3958ZM10.8477 11.8059V10.016H14.0554C14.2212 10.016 15.2254 10.2077 15.2254 10.9585C15.2254 11.5817 14.4552 11.8059 13.8214 11.8059H10.8477ZM22.5062 13.4171C22.5062 13.6543 22.4972 13.8891 22.4794 14.1223H21.5044C21.4069 14.1223 21.3679 14.1873 21.3679 14.2824V14.7301C21.3679 15.7847 20.7731 16.0138 20.2523 16.0723C19.7567 16.1276 19.2058 15.8643 19.1384 15.5604C18.8459 13.9151 18.3584 13.5633 17.5882 12.9556C18.5436 12.3495 19.5381 11.4541 19.5381 10.2557C19.5381 8.96138 18.6509 8.14645 18.0464 7.74671C17.1982 7.18771 16.2589 7.07559 16.0054 7.07559H5.91911C7.31279 5.51679 9.18213 4.46174 11.2369 4.07424L12.4256 5.32142C12.6945 5.60254 13.1406 5.61391 13.4209 5.34417L14.7517 4.0718C16.1075 4.32637 17.3917 4.8727 18.5154 5.67295C19.639 6.4732 20.5752 7.50821 21.259 8.70626L20.3482 10.7635C20.2726 10.9343 20.2678 11.1281 20.3348 11.3025C20.4018 11.4768 20.5352 11.6176 20.7057 11.6938L22.4599 12.4722C22.4899 12.7833 22.5062 13.0978 22.5062 13.4171ZM12.4264 3.01313C12.4997 2.94302 12.5861 2.88806 12.6807 2.85138C12.7753 2.8147 12.8762 2.79702 12.9776 2.79936C13.079 2.8017 13.179 2.82401 13.2718 2.86501C13.3646 2.90601 13.4484 2.9649 13.5184 3.03832C13.5885 3.11183 13.6434 3.19843 13.68 3.29318C13.7167 3.38792 13.7343 3.48895 13.7319 3.59051C13.7295 3.69206 13.7071 3.79214 13.666 3.88504C13.6249 3.97794 13.5659 4.06183 13.4924 4.13193C13.4191 4.20196 13.3327 4.25684 13.2381 4.29344C13.1436 4.33005 13.0427 4.34764 12.9414 4.34523C12.84 4.34281 12.7402 4.32043 12.6475 4.27937C12.5548 4.23831 12.4711 4.17937 12.4012 4.10593C12.26 3.9575 12.1833 3.75915 12.188 3.55433C12.1927 3.3495 12.2785 3.15489 12.4264 3.01313ZM21.4638 10.2857C21.5469 10.0986 21.701 9.95215 21.8922 9.87863C22.0834 9.80511 22.2959 9.81054 22.483 9.89371C22.6702 9.97689 22.8166 10.131 22.8901 10.3222C22.9637 10.5133 22.9582 10.7258 22.8751 10.913C22.8339 11.0057 22.7748 11.0893 22.7013 11.1592C22.6278 11.229 22.5413 11.2837 22.4466 11.3201C22.352 11.3565 22.2511 11.3739 22.1497 11.3713C22.0483 11.3687 21.9485 11.3462 21.8558 11.305C21.7631 11.2638 21.6795 11.2048 21.6096 11.1313C21.5398 11.0578 21.4851 10.9712 21.4487 10.8766C21.4123 10.7819 21.3949 10.681 21.3975 10.5797C21.4 10.4783 21.4226 10.3784 21.4638 10.2857Z" fill="black"/>
</svg>
