<svg width="19" height="18" viewBox="0 0 19 18" fill="none" xmlns="http://www.w3.org/2000/svg">
<path d="M9.04652 0.976482C9.22571 0.590615 9.77429 0.590616 9.95348 0.976482L12.216 5.84824C12.2888 6.00512 12.4376 6.1132 12.6093 6.13401L17.9417 6.78029C18.3641 6.83148 18.5336 7.3532 18.222 7.64287L14.2878 11.3001C14.1611 11.4178 14.1043 11.5927 14.1376 11.7624L15.1708 17.0336C15.2526 17.4511 14.8088 17.7736 14.437 17.5667L9.74309 14.9552C9.59194 14.8712 9.40806 14.8712 9.25691 14.9552L4.56299 17.5667C4.1912 17.7736 3.7474 17.4511 3.82923 17.0336L4.8624 11.7624C4.89567 11.5927 4.83885 11.4178 4.71217 11.3001L0.77799 7.64287C0.466385 7.3532 0.635903 6.83148 1.05826 6.78029L6.39072 6.13401C6.56243 6.1132 6.71119 6.00512 6.78404 5.84824L9.04652 0.976482Z" fill="#1A1A1A"/>
</svg>
