<svg width="48" height="48" viewBox="0 0 48 48" fill="none" xmlns="http://www.w3.org/2000/svg">
<path d="M0 9C0 4.02944 4.02944 0 9 0H39C43.9706 0 48 4.02944 48 9V39C48 43.9706 43.9706 48 39 48H9C4.02944 48 0 43.9706 0 39V9Z" fill="#333333" fill-opacity="0.6"/>
<path d="M9 0.5H39C43.6944 0.5 47.5 4.30558 47.5 9V39C47.5 43.6944 43.6944 47.5 39 47.5H9C4.30558 47.5 0.5 43.6944 0.5 39V9C0.5 4.30558 4.30558 0.5 9 0.5Z" stroke="#333333" stroke-opacity="0.6"/>
<path d="M23.293 24.7083L33.2096 24L31.0846 33.2083" stroke="#FFF100" stroke-width="2.125" stroke-linecap="round" stroke-linejoin="round"/>
<path d="M23.293 24.709L29.668 17.6257L24.7096 14.084L21.168 17.6257" stroke="#FFF100" stroke-width="2.125" stroke-linecap="round" stroke-linejoin="round"/>
<path d="M33.2083 16.2077C31.6435 16.2077 30.375 14.9392 30.375 13.3743C30.375 11.8095 31.6435 10.541 33.2083 10.541C34.7732 10.541 36.0417 11.8095 36.0417 13.3743C36.0417 14.9392 34.7732 16.2077 33.2083 16.2077Z" stroke="#FFF100" stroke-width="2.125" stroke-linecap="round" stroke-linejoin="round"/>
<path d="M14.7897 24.7077C15.9736 23.8182 17.4455 23.291 19.0404 23.291C22.9523 23.291 26.1237 26.4624 26.1237 30.3743C26.1237 31.3817 25.9135 32.34 25.5344 33.2077M12.2813 28.2493C12.0706 28.9201 11.957 29.634 11.957 30.3743C11.957 34.2863 15.1284 37.4577 19.0404 37.4577C20.3306 37.4577 21.5402 37.1127 22.582 36.5101" stroke="#FFF100" stroke-width="2.125" stroke-linecap="round" stroke-linejoin="round"/>
</svg>
