<svg width="26" height="26" viewBox="0 0 26 26" fill="none" xmlns="http://www.w3.org/2000/svg">
<path d="M2.5545 8.23863C2.00502 7.68914 1.10511 7.85083 0.939361 8.61066C0.328608 11.4105 1.10906 14.4499 3.28212 16.623C5.72332 19.0642 9.25785 19.7479 12.3179 18.6761L17.7667 24.1249C19.245 25.6032 21.6418 25.6032 23.1201 24.1249C24.5983 22.6467 24.5983 20.2499 23.1201 18.7716L17.6712 13.3228C18.743 10.2627 18.0593 6.7282 15.6181 4.28701C13.4451 2.11395 10.4057 1.33349 7.60577 1.94424C6.84595 2.10999 6.65763 3.03652 7.20712 3.58601C8.35657 4.73545 9.49698 5.89179 10.6394 7.04632C11.8001 8.21935 11.7996 10.1118 10.6327 11.2787L10.2265 11.6849C9.05959 12.8518 7.16769 12.8518 6.0008 11.6849L2.5545 8.23863Z" fill="black"/>
</svg>
