<svg xmlns="http://www.w3.org/2000/svg" width="21" height="23" fill="none" viewBox="0 0 21 23"><path fill="#1A1A1A" d="M4.93412 7.23844L0.951172 0.986084H3.82386L6.35655 5.01206L8.90975 0.986084H11.6598L7.49007 7.23844V11.2024H4.93412V7.23844Z"/><path fill="#1A1A1A" d="M16.3682 8.93038H11.7422L10.8013 11.2022H8.75293L13.0849 0.986084H15.18L19.3361 11.2022H17.1467L16.3682 8.93038ZM15.5998 6.89075L14.1817 3.14179L12.5995 6.89075H15.5998Z"/><path fill="#1A1A1A" d="M0.951172 12.2053V22.2182H3.09937V15.3113L5.34772 19.9537H7.03875L9.364 15.1483V22.2158H11.4249V12.2053H8.61095L6.11396 16.7332L3.73598 12.2053H0.951172ZM20.2211 20.0423H14.9365V12.2024H12.7473V22.1726H20.2211V20.0423Z"/></svg>