<svg width="750" height="457" viewBox="0 0 750 457" fill="none" xmlns="http://www.w3.org/2000/svg">
<path d="M10 0.5H740C745.247 0.5 749.5 4.7533 749.5 10V446.37C749.5 451.617 745.247 455.87 740 455.87H10C4.75338 455.87 0.500132 451.617 0.5 446.37V10C0.5 4.7533 4.75329 0.5 10 0.5Z" fill="#262626"/>
<path d="M10 0.5H740C745.247 0.5 749.5 4.7533 749.5 10V446.37C749.5 451.617 745.247 455.87 740 455.87H10C4.75338 455.87 0.500132 451.617 0.5 446.37V10C0.5 4.7533 4.75329 0.5 10 0.5Z" fill="#1A1A1A"/>
<path d="M10 0.5H740C745.247 0.5 749.5 4.7533 749.5 10V446.37C749.5 451.617 745.247 455.87 740 455.87H10C4.75338 455.87 0.500132 451.617 0.5 446.37V10C0.5 4.7533 4.75329 0.5 10 0.5Z" stroke="#4C4C4C"/>
<path d="M329.84 123.562C329.55 123.272 329.55 122.802 329.84 122.512L334.567 117.784C334.857 117.494 335.328 117.494 335.618 117.784C335.908 118.075 335.908 118.545 335.618 118.835L331.416 123.037L335.618 127.239C335.908 127.529 335.908 128 335.618 128.29C335.328 128.58 334.857 128.58 334.567 128.29L329.84 123.562ZM418.731 122.512C419.021 122.802 419.021 123.272 418.731 123.562L414.004 128.29C413.714 128.58 413.243 128.58 412.953 128.29C412.663 128 412.663 127.529 412.953 127.239L417.155 123.037L412.953 118.835C412.663 118.545 412.663 118.075 412.953 117.784C413.243 117.494 413.714 117.494 414.004 117.784L418.731 122.512ZM330.365 123.037L330.365 122.294H418.206L418.206 123.037L418.206 123.78H330.365L330.365 123.037Z" fill="#666666"/>
<path d="M175.399 209.521C175.795 209.415 176.202 209.65 176.308 210.046L178.038 216.504C178.145 216.9 177.909 217.308 177.513 217.414C177.117 217.52 176.71 217.285 176.603 216.889L175.065 211.148L169.325 212.686C168.929 212.792 168.522 212.557 168.415 212.161C168.309 211.765 168.544 211.357 168.941 211.251L175.399 209.521ZM153.201 250.067C152.804 250.173 152.397 249.938 152.291 249.541L150.561 243.084C150.454 242.687 150.69 242.28 151.086 242.174C151.482 242.068 151.89 242.303 151.996 242.699L153.534 248.439L159.274 246.901C159.67 246.795 160.078 247.03 160.184 247.427C160.29 247.823 160.055 248.23 159.658 248.337L153.201 250.067ZM175.591 210.239L176.234 210.61L153.652 249.721L153.008 249.349L152.365 248.978L174.947 209.867L175.591 210.239Z" fill="#666666"/>
<path d="M224.512 209.521C224.116 209.415 223.708 209.65 223.602 210.046L221.872 216.504C221.766 216.9 222.001 217.308 222.398 217.414C222.794 217.52 223.201 217.285 223.307 216.889L224.845 211.148L230.585 212.686C230.982 212.792 231.389 212.557 231.495 212.161C231.601 211.765 231.366 211.357 230.97 211.251L224.512 209.521ZM246.71 250.067C247.106 250.173 247.514 249.938 247.62 249.541L249.35 243.084C249.456 242.687 249.221 242.28 248.825 242.174C248.428 242.068 248.021 242.303 247.915 242.699L246.377 248.439L240.637 246.901C240.24 246.795 239.833 247.03 239.727 247.427C239.621 247.823 239.856 248.23 240.252 248.337L246.71 250.067ZM224.32 210.239L223.677 210.61L246.259 249.721L246.902 249.349L247.546 248.978L224.963 209.867L224.32 210.239Z" fill="#666666"/>
<path d="M581.566 209.521C581.17 209.415 580.762 209.65 580.656 210.046L578.926 216.504C578.82 216.9 579.055 217.308 579.451 217.414C579.848 217.52 580.255 217.285 580.361 216.889L581.899 211.148L587.639 212.686C588.035 212.792 588.443 212.557 588.549 212.161C588.655 211.765 588.42 211.357 588.024 211.251L581.566 209.521ZM603.764 250.067C604.16 250.173 604.567 249.938 604.674 249.541L606.404 243.084C606.51 242.687 606.275 242.28 605.878 242.174C605.482 242.068 605.075 242.303 604.969 242.699L603.431 248.439L597.69 246.901C597.294 246.795 596.887 247.03 596.781 247.427C596.675 247.823 596.91 248.23 597.306 248.337L603.764 250.067ZM581.374 210.239L580.73 210.61L603.313 249.721L603.956 249.349L604.599 248.978L582.017 209.867L581.374 210.239Z" fill="#666666"/>
<path d="M489.366 209.521C489.762 209.415 490.169 209.65 490.276 210.046L492.006 216.504C492.112 216.9 491.877 217.308 491.48 217.414C491.084 217.52 490.677 217.285 490.571 216.889L489.033 211.148L483.292 212.686C482.896 212.792 482.489 212.557 482.383 212.161C482.277 211.765 482.512 211.357 482.908 211.251L489.366 209.521ZM467.168 250.067C466.772 250.173 466.364 249.938 466.258 249.541L464.528 243.084C464.422 242.687 464.657 242.28 465.053 242.174C465.45 242.068 465.857 242.303 465.963 242.699L467.501 248.439L473.241 246.901C473.637 246.795 474.045 247.03 474.151 247.427C474.257 247.823 474.022 248.23 473.626 248.337L467.168 250.067ZM489.558 210.239L490.201 210.61L467.619 249.721L466.976 249.349L466.332 248.978L488.915 209.867L489.558 210.239Z" fill="#666666"/>
<path d="M191.545 276.921H86.2116C83.1661 276.921 80.6973 279.39 80.6973 282.436V390.855C80.6973 393.901 83.1661 396.37 86.2116 396.37H191.545C194.59 396.37 197.059 393.901 197.059 390.855V282.436C197.059 279.39 194.59 276.921 191.545 276.921Z" fill="#262626" stroke="#808080" stroke-width="1.48568" stroke-miterlimit="10"/>
<path d="M89.8774 314.052L101.763 320.911L89.8774 327.774" stroke="#808080" stroke-width="1.48568" stroke-miterlimit="10"/>
<path d="M105.477 330.394H118.848" stroke="#808080" stroke-width="1.48568" stroke-miterlimit="10"/>
<path d="M86.2116 276.921H191.545C194.592 276.921 197.059 279.389 197.059 282.436V305.545H80.6973V282.436C80.6973 279.389 83.1645 276.921 86.2116 276.921Z" fill="#262626" stroke="#808080" stroke-width="1.48568" stroke-miterlimit="10"/>
<path d="M90.4485 296.035C92.7937 296.035 94.6949 294.134 94.6949 291.788C94.6949 289.443 92.7937 287.542 90.4485 287.542C88.1033 287.542 86.2021 289.443 86.2021 291.788C86.2021 294.134 88.1033 296.035 90.4485 296.035Z" fill="#262626" stroke="#808080" stroke-width="1.48568" stroke-miterlimit="10"/>
<path d="M103.226 296.035C105.572 296.035 107.473 294.134 107.473 291.788C107.473 289.443 105.572 287.542 103.226 287.542C100.881 287.542 98.98 289.443 98.98 291.788C98.98 294.134 100.881 296.035 103.226 296.035Z" fill="#262626" stroke="#808080" stroke-width="1.48568" stroke-miterlimit="10"/>
<path d="M115.985 296.035C118.33 296.035 120.231 294.134 120.231 291.788C120.231 289.443 118.33 287.542 115.985 287.542C113.64 287.542 111.739 289.443 111.739 291.788C111.739 294.134 113.64 296.035 115.985 296.035Z" fill="#262626" stroke="#808080" stroke-width="1.48568" stroke-miterlimit="10"/>
<path d="M509.881 77.0724L480.381 127.336C480.36 127.373 480.358 127.419 480.377 127.457L509.905 188.004C509.921 188.038 509.951 188.062 509.987 188.072L530.121 193.379C530.154 193.388 530.182 193.409 530.199 193.438L538.968 208.38C539.018 208.464 539.14 208.464 539.19 208.38L553.998 183.149C554.027 183.099 554.085 183.075 554.141 183.09L567.443 186.596C567.501 186.611 567.561 186.585 567.589 186.533L599.163 127.468C599.186 127.424 599.182 127.37 599.151 127.33L564.962 82.5411C564.952 82.5274 564.939 82.5159 564.924 82.5074L546.001 71.7601C545.981 71.749 545.965 71.7329 545.954 71.7135L539.19 60.1884C539.14 60.104 539.018 60.104 538.968 60.1884L526.588 81.2824C526.559 81.332 526.501 81.3562 526.445 81.3415L510.025 77.0133C509.969 76.9986 509.91 77.0228 509.881 77.0724Z" fill="#102F41" stroke="#808080" stroke-width="1.48568" stroke-miterlimit="10"/>
<path d="M565.03 178.855L570.973 166.969" stroke="#808080" stroke-width="1.48568" stroke-miterlimit="10" stroke-linecap="round"/>
<path d="M501.146 101.599L508.575 88.228" stroke="#808080" stroke-width="1.48568" stroke-miterlimit="10" stroke-linecap="round"/>
<path d="M568.002 146.17L573.945 135.77" stroke="#808080" stroke-width="1.48568" stroke-miterlimit="10" stroke-linecap="round"/>
<path d="M563.545 91.1992L579.887 114.97" stroke="#808080" stroke-width="1.48568" stroke-miterlimit="10" stroke-linecap="round"/>
<path d="M507.089 162.512L514.517 181.826" stroke="#808080" stroke-width="1.48568" stroke-miterlimit="10" stroke-linecap="round"/>
<path d="M545.717 71.8855L529.374 100.113" stroke="#808080" stroke-width="1.48568" stroke-miterlimit="10" stroke-linecap="round"/>
<path d="M585.83 128.341L570.633 154.458C570.335 154.971 569.844 155.344 569.269 155.494L543.536 162.196C542.781 162.392 541.979 162.18 541.421 161.637L533.619 154.054" stroke="#808080" stroke-width="1.48568" stroke-miterlimit="10" stroke-linecap="round"/>
<path d="M562.06 128.341L546.731 106.833C546.442 106.428 546.026 106.131 545.548 105.99L521.842 98.9747C521.112 98.7586 520.321 98.9305 519.747 99.4305L505.028 112.239C504.46 112.733 504.18 113.48 504.284 114.226L506.243 128.341" stroke="#808080" stroke-width="1.48568" stroke-miterlimit="10" stroke-linecap="round"/>
<path d="M530.86 193.711L550.174 161.026" stroke="#808080" stroke-width="1.48568" stroke-miterlimit="10" stroke-linecap="round"/>
<path d="M468.461 128.341L614.058 128.341" stroke="#808080" stroke-width="1.48568" stroke-miterlimit="10" stroke-linecap="round"/>
<path d="M502.87 135.163V145.313H501.274V135.163H502.87ZM508.098 137.641C509.82 137.641 511.136 138.859 511.36 140.329H509.904C509.75 139.475 508.98 138.887 508.028 138.887C506.978 138.887 506.012 139.713 506.012 141.547C506.012 143.409 506.978 144.249 508.028 144.249C508.966 144.249 509.75 143.703 509.96 142.807H511.43C511.122 144.389 509.666 145.495 508 145.495C505.816 145.495 504.458 143.843 504.458 141.561C504.458 139.335 505.872 137.641 508.098 137.641ZM516.043 144.249C517.107 144.249 517.695 143.815 518.017 143.101H519.487C519.151 144.347 518.003 145.495 516.099 145.495C513.677 145.495 512.347 143.717 512.347 141.533C512.347 139.195 513.915 137.641 516.057 137.641C518.381 137.641 519.739 139.545 519.585 141.995H513.845C513.999 143.395 514.853 144.249 516.043 144.249ZM516.043 138.831C514.909 138.831 514.083 139.405 513.873 140.847H518.073C518.031 139.741 517.233 138.831 516.043 138.831ZM522.413 141.561C522.413 143.423 523.365 144.277 524.485 144.277C525.703 144.277 526.515 143.255 526.515 141.561C526.515 139.867 525.703 138.859 524.485 138.859C523.365 138.859 522.413 139.699 522.413 141.561ZM521.013 135.163H522.469V138.887C522.931 138.103 523.701 137.641 524.821 137.641C526.571 137.641 528.069 139.097 528.069 141.561C528.069 144.025 526.571 145.495 524.821 145.495C523.701 145.495 522.931 145.033 522.469 144.249V145.313H521.013V135.163ZM532.804 144.249C533.868 144.249 534.456 143.815 534.778 143.101H536.248C535.912 144.347 534.764 145.495 532.86 145.495C530.438 145.495 529.108 143.717 529.108 141.533C529.108 139.195 530.676 137.641 532.818 137.641C535.142 137.641 536.5 139.545 536.346 141.995H530.606C530.76 143.395 531.614 144.249 532.804 144.249ZM532.804 138.831C531.67 138.831 530.844 139.405 530.634 140.847H534.834C534.792 139.741 533.994 138.831 532.804 138.831ZM541.695 137.767V139.279C541.429 139.251 541.177 139.237 540.939 139.237C539.819 139.237 539.231 139.783 539.231 141.365V145.313H537.775V137.781H539.203V139.111C539.595 138.257 540.337 137.767 541.289 137.753C541.415 137.753 541.569 137.753 541.695 137.767ZM547.722 138.887V137.781H549.178V144.431C549.178 145.817 548.884 146.559 548.366 147.077C547.792 147.679 546.896 147.987 545.734 147.987C544.04 147.987 542.822 147.259 542.584 145.677H544.082C544.236 146.363 544.656 146.769 545.762 146.769C546.448 146.769 546.952 146.587 547.274 146.223C547.568 145.901 547.722 145.523 547.722 144.739V143.941C547.26 144.725 546.518 145.187 545.398 145.187C543.648 145.187 542.192 143.815 542.192 141.407C542.192 139.013 543.648 137.641 545.398 137.641C546.518 137.641 547.26 138.103 547.722 138.887ZM547.778 141.407C547.778 139.615 546.854 138.845 545.734 138.845C544.516 138.845 543.746 139.783 543.746 141.407C543.746 143.045 544.516 143.997 545.734 143.997C546.854 143.997 547.778 143.199 547.778 141.407Z" fill="#808080"/>
<path d="M333.91 276.91H227.666C224.594 276.91 222.104 279.367 222.104 282.397V390.278C222.104 393.308 224.594 395.765 227.666 395.765H333.91C336.982 395.765 339.473 393.308 339.473 390.278V282.397C339.473 279.367 336.982 276.91 333.91 276.91Z" fill="#262626" stroke="#808080" stroke-width="1.48568" stroke-miterlimit="10"/>
<path d="M228.338 275.424H333.981C337.016 275.424 339.473 277.985 339.473 281.149V300.681H222.104V281.149C222.104 277.985 225.303 275.424 228.338 275.424Z" fill="#262626" stroke="#808080" stroke-width="1.48568" stroke-miterlimit="10"/>
<path d="M233.779 292.831C236.124 292.831 238.025 290.93 238.025 288.585C238.025 286.24 236.124 284.338 233.779 284.338C231.433 284.338 229.532 286.24 229.532 288.585C229.532 290.93 231.433 292.831 233.779 292.831Z" fill="#262626" stroke="#808080" stroke-width="1.48568" stroke-miterlimit="10"/>
<path d="M246.557 292.831C248.902 292.831 250.803 290.93 250.803 288.585C250.803 286.24 248.902 284.338 246.557 284.338C244.212 284.338 242.311 286.24 242.311 288.585C242.311 290.93 244.212 292.831 246.557 292.831Z" fill="#262626" stroke="#808080" stroke-width="1.48568" stroke-miterlimit="10"/>
<path d="M259.316 292.831C261.661 292.831 263.562 290.93 263.562 288.585C263.562 286.24 261.661 284.338 259.316 284.338C256.97 284.338 255.069 286.24 255.069 288.585C255.069 290.93 256.97 292.831 259.316 292.831Z" fill="#262626" stroke="#808080" stroke-width="1.48568" stroke-miterlimit="10"/>
<path d="M222.104 300.681H256.4V314.052H339.473" stroke="#808080" stroke-width="1.48568" stroke-miterlimit="10"/>
<path d="M275.151 67.4284C278.629 67.4284 281.449 70.2722 281.449 73.7812V162.987C281.449 164.156 280.99 165.277 280.172 166.111L265.402 181.149C264.475 182.093 263.211 182.579 261.892 182.47C248.136 181.334 169.095 174.78 149.759 172.526C146.935 172.196 144.679 169.998 144.255 167.162C142.261 153.824 135.604 99.0515 134.202 87.4796C134.035 86.0984 134.527 84.7571 135.525 83.7874L151.062 68.6889C151.894 67.8805 153.008 67.4282 154.168 67.4282L275.151 67.4284Z" fill="#666666" stroke="#808080" stroke-width="1.48568" stroke-miterlimit="10"/>
<rect x="132.696" y="82.8132" width="133.364" height="101.305" rx="6.41173" fill="#262626" stroke="#808080" stroke-width="1.48568" stroke-miterlimit="10"/>
<rect x="145.904" y="99.2197" width="7.54668" height="7.54668" rx="3.77334" fill="#262626" stroke="#808080" stroke-width="1.48568" stroke-miterlimit="10"/>
<rect x="158.166" y="99.2197" width="7.54668" height="7.54668" rx="3.77334" fill="#262626" stroke="#808080" stroke-width="1.48568" stroke-miterlimit="10"/>
<rect x="170.431" y="99.2197" width="7.54668" height="7.54668" rx="3.77334" fill="#262626" stroke="#808080" stroke-width="1.48568" stroke-miterlimit="10"/>
<rect x="219.482" y="99.2197" width="33.0167" height="7.54668" rx="3.77334" fill="#262626" stroke="#808080" stroke-width="1.48568" stroke-miterlimit="10"/>
<rect x="145.904" y="130.355" width="7.54668" height="7.54668" rx="3.77334" fill="#262626" stroke="#808080" stroke-width="1.48568" stroke-miterlimit="10"/>
<rect x="158.166" y="130.355" width="7.54668" height="7.54668" rx="3.77334" fill="#262626" stroke="#808080" stroke-width="1.48568" stroke-miterlimit="10"/>
<rect x="170.431" y="130.355" width="7.54668" height="7.54668" rx="3.77334" fill="#262626" stroke="#808080" stroke-width="1.48568" stroke-miterlimit="10"/>
<rect x="145.904" y="161.479" width="7.54668" height="7.54668" rx="3.77334" fill="#262626" stroke="#808080" stroke-width="1.48568" stroke-miterlimit="10"/>
<rect x="158.166" y="161.479" width="7.54668" height="7.54668" rx="3.77334" fill="#262626" stroke="#808080" stroke-width="1.48568" stroke-miterlimit="10"/>
<rect x="170.431" y="161.479" width="7.54668" height="7.54668" rx="3.77334" fill="#262626" stroke="#808080" stroke-width="1.48568" stroke-miterlimit="10"/>
<path d="M133.198 151.439L266.167 151.439" stroke="#808080" stroke-width="1.48568" stroke-miterlimit="10"/>
<line x1="132.696" y1="119.259" x2="266.06" y2="119.259" stroke="#808080" stroke-width="1.48568" stroke-miterlimit="10"/>
<path d="M264.834 85.3261L280.166 69.9934" stroke="#808080" stroke-width="1.48568" stroke-miterlimit="10"/>
<path d="M521.367 276.316H416.034C412.988 276.316 410.52 278.785 410.52 281.831V390.251C410.52 393.296 412.988 395.765 416.034 395.765H521.367C524.413 395.765 526.882 393.296 526.882 390.251V281.831C526.882 278.785 524.413 276.316 521.367 276.316Z" fill="#262626" stroke="#808080" stroke-width="1.48568" stroke-miterlimit="10"/>
<path d="M416.086 276.316H521.419C524.466 276.316 526.933 278.784 526.933 281.831V304.94H410.571V281.831C410.571 278.784 413.039 276.316 416.086 276.316Z" fill="#262626" stroke="#808080" stroke-width="1.48568" stroke-miterlimit="10"/>
<path d="M420.323 295.429C422.668 295.429 424.569 293.528 424.569 291.183C424.569 288.838 422.668 286.937 420.323 286.937C417.977 286.937 416.076 288.838 416.076 291.183C416.076 293.528 417.977 295.429 420.323 295.429Z" fill="#262626" stroke="#808080" stroke-width="1.48568" stroke-miterlimit="10"/>
<path d="M433.1 295.429C435.445 295.429 437.346 293.528 437.346 291.183C437.346 288.838 435.445 286.937 433.1 286.937C430.755 286.937 428.854 288.838 428.854 291.183C428.854 293.528 430.755 295.429 433.1 295.429Z" fill="#262626" stroke="#808080" stroke-width="1.48568" stroke-miterlimit="10"/>
<path d="M445.86 295.429C448.205 295.429 450.106 293.528 450.106 291.183C450.106 288.838 448.205 286.937 445.86 286.937C443.514 286.937 441.613 288.838 441.613 291.183C441.613 293.528 443.514 295.429 445.86 295.429Z" fill="#262626" stroke="#808080" stroke-width="1.48568" stroke-miterlimit="10"/>
<path d="M419.699 313.447L431.585 320.306L419.699 327.169" stroke="#808080" stroke-width="1.48568" stroke-miterlimit="10"/>
<path d="M435.299 329.789H448.67" stroke="#808080" stroke-width="1.48568" stroke-miterlimit="10"/>
<path d="M663.741 276.91H557.496C554.424 276.91 551.934 279.367 551.934 282.397V390.278C551.934 393.308 554.424 395.765 557.496 395.765H663.741C666.812 395.765 669.303 393.308 669.303 390.278V282.397C669.303 279.367 666.812 276.91 663.741 276.91Z" fill="#262626" stroke="#808080" stroke-width="1.48568" stroke-miterlimit="10"/>
<path d="M558.168 275.424H663.811C666.846 275.424 669.303 277.985 669.303 281.149V300.681H551.934V281.149C551.934 277.985 555.133 275.424 558.168 275.424Z" fill="#262626" stroke="#808080" stroke-width="1.48568" stroke-miterlimit="10"/>
<path d="M563.609 292.831C565.954 292.831 567.855 290.93 567.855 288.585C567.855 286.24 565.954 284.338 563.609 284.338C561.263 284.338 559.362 286.24 559.362 288.585C559.362 290.93 561.263 292.831 563.609 292.831Z" fill="#262626" stroke="#808080" stroke-width="1.48568" stroke-miterlimit="10"/>
<path d="M576.388 292.831C578.733 292.831 580.634 290.93 580.634 288.585C580.634 286.24 578.733 284.338 576.388 284.338C574.043 284.338 572.142 286.24 572.142 288.585C572.142 290.93 574.043 292.831 576.388 292.831Z" fill="#262626" stroke="#808080" stroke-width="1.48568" stroke-miterlimit="10"/>
<path d="M589.145 292.831C591.49 292.831 593.391 290.93 593.391 288.585C593.391 286.24 591.49 284.338 589.145 284.338C586.8 284.338 584.898 286.24 584.898 288.585C584.898 290.93 586.8 292.831 589.145 292.831Z" fill="#262626" stroke="#808080" stroke-width="1.48568" stroke-miterlimit="10"/>
<path d="M551.934 300.681H586.23V314.052H669.303" stroke="#808080" stroke-width="1.48568" stroke-miterlimit="10"/>
<path d="M609.043 364.404C598.525 364.404 590.03 355.91 590.03 345.391C590.03 334.872 598.525 326.378 609.043 326.378C619.562 326.378 628.057 334.872 628.057 345.391C628.057 355.91 619.562 364.404 609.043 364.404Z" fill="#262626" stroke="#808080" stroke-width="1.48568" stroke-miterlimit="10" stroke-linecap="round"/>
<path d="M619.209 342.573H615.479V348.202H619.209C620.756 348.202 622.041 346.917 622.041 345.37C622.041 343.812 620.756 342.573 619.209 342.573Z" fill="#CCBD00" fill-opacity="0.6" stroke="#808080" stroke-width="1.48568" stroke-miterlimit="10" stroke-linecap="round"/>
<path d="M597.206 345.449C597.206 349.82 600.743 353.379 605.087 353.379C609.43 353.379 612.967 349.82 612.967 345.449C612.967 341.077 609.43 337.519 605.087 337.519C600.743 337.519 597.206 341.077 597.206 345.449Z" fill="#CCBD00" fill-opacity="0.6" stroke="#808080" stroke-width="1.48568" stroke-miterlimit="10" stroke-linecap="round"/>
</svg>
