<svg width="546" height="343" viewBox="0 0 546 343" fill="none" xmlns="http://www.w3.org/2000/svg">
<path d="M10 0.5H535.357C540.604 0.500066 544.857 4.75334 544.857 10V332.407C544.857 337.654 540.604 341.907 535.357 341.907H10C4.7533 341.907 0.5 337.654 0.5 332.407V10C0.5 4.7533 4.7533 0.5 10 0.5Z" fill="#F2F2F2"/>
<path d="M10 0.5H535.357C540.604 0.500066 544.857 4.75334 544.857 10V332.407C544.857 337.654 540.604 341.907 535.357 341.907H10C4.7533 341.907 0.5 337.654 0.5 332.407V10C0.5 4.7533 4.7533 0.5 10 0.5Z" fill="#E6E6E6"/>
<path d="M10 0.5H535.357C540.604 0.500066 544.857 4.75334 544.857 10V332.407C544.857 337.654 540.604 341.907 535.357 341.907H10C4.7533 341.907 0.5 337.654 0.5 332.407V10C0.5 4.7533 4.7533 0.5 10 0.5Z" stroke="#D9D9D9"/>
<path d="M142.311 29.192C142.311 25.72 140.247 25.192 138.135 25.192H137.079V33.208H138.135C140.247 33.208 142.311 32.696 142.311 29.192ZM134.791 23.4H138.231C141.911 23.4 144.679 24.584 144.679 29.192C144.679 33.8 141.911 35 138.231 35H134.791V23.4ZM151.368 35V33.864C150.872 34.744 149.928 35.208 148.856 35.208C146.792 35.208 145.96 33.944 145.96 31.832V26.392H148.168V31.352C148.168 32.504 148.344 33.432 149.576 33.432C151.048 33.432 151.368 32.232 151.368 30.872V26.392H153.576V35H151.368ZM159.332 26.2C161.14 26.2 162.932 27.208 163.236 29.336H161.124C160.948 28.504 160.18 27.912 159.332 27.912C158.18 27.912 157.268 28.888 157.268 30.68C157.268 32.488 158.132 33.496 159.348 33.496C160.116 33.496 160.9 33.096 161.204 32.072H163.316C162.804 34.424 161.028 35.208 159.236 35.208C156.66 35.208 155.012 33.32 155.012 30.712C155.012 28.088 156.756 26.2 159.332 26.2ZM164.651 23.4H166.859V29.848L169.995 26.392H172.475L169.387 29.688L172.651 35H170.171L167.915 31.272L166.859 32.408V35H164.651V23.4ZM181.11 29.192C181.11 25.72 179.046 25.192 176.934 25.192H175.878V33.208H176.934C179.046 33.208 181.11 32.696 181.11 29.192ZM173.59 23.4H177.03C180.71 23.4 183.478 24.584 183.478 29.192C183.478 33.8 180.71 35 177.03 35H173.59V23.4ZM185.106 35V23.4H189.618C191.65 23.4 193.842 24.04 193.842 26.424C193.842 27.512 193.122 28.488 192.53 28.872C193.426 29.304 194.258 29.976 194.258 31.576C194.258 34.072 192.194 35 189.81 35H185.106ZM187.394 29.912V33.208H189.922C191.266 33.208 191.922 32.648 191.922 31.576C191.922 30.488 191.25 29.912 189.826 29.912H187.394ZM187.394 25.192V28.184H189.762C190.85 28.184 191.49 27.672 191.49 26.648C191.49 25.736 190.834 25.192 189.762 25.192H187.394ZM200.691 31.688H195.395V29.768H200.691V31.688ZM204.738 23.4V35H202.45V23.4H204.738ZM210.553 26.2C212.361 26.2 214.153 27.208 214.457 29.336H212.345C212.169 28.504 211.401 27.912 210.553 27.912C209.401 27.912 208.489 28.888 208.489 30.68C208.489 32.488 209.353 33.496 210.569 33.496C211.337 33.496 212.121 33.096 212.425 32.072H214.537C214.025 34.424 212.249 35.208 210.457 35.208C207.881 35.208 206.233 33.32 206.233 30.712C206.233 28.088 207.977 26.2 210.553 26.2ZM223.934 31.304H217.582C217.71 32.776 218.702 33.496 219.758 33.496C220.446 33.496 221.118 33.256 221.566 32.504H223.838C223.374 33.784 222.126 35.208 219.774 35.208C217.006 35.208 215.39 33.144 215.39 30.664C215.39 28.104 217.166 26.2 219.71 26.2C222.366 26.2 224.014 28.264 223.934 31.304ZM219.694 27.816C218.862 27.816 217.79 28.328 217.614 29.784H221.694C221.646 28.328 220.622 27.816 219.694 27.816ZM229.516 33.512C230.668 33.512 231.484 32.392 231.484 30.712C231.484 29.032 230.668 27.896 229.516 27.896C228.3 27.896 227.5 28.968 227.5 30.696C227.5 32.472 228.3 33.512 229.516 33.512ZM227.58 35H225.372V23.4H227.58V27.496C228.044 26.68 228.972 26.2 230.06 26.2C232.14 26.2 233.804 27.992 233.804 30.696C233.804 33.448 232.108 35.208 230.06 35.208C229.164 35.208 228.14 34.872 227.58 33.912V35ZM243.356 31.304H237.004C237.132 32.776 238.124 33.496 239.18 33.496C239.868 33.496 240.54 33.256 240.988 32.504H243.26C242.796 33.784 241.548 35.208 239.196 35.208C236.428 35.208 234.812 33.144 234.812 30.664C234.812 28.104 236.588 26.2 239.132 26.2C241.788 26.2 243.436 28.264 243.356 31.304ZM239.116 27.816C238.284 27.816 237.212 28.328 237.036 29.784H241.116C241.068 28.328 240.044 27.816 239.116 27.816ZM249.723 26.44V28.52C249.403 28.472 249.131 28.472 248.811 28.472C247.723 28.472 247.003 28.872 247.003 30.488V35H244.795V26.392H246.971V27.896C247.467 26.824 248.235 26.408 249.243 26.408C249.387 26.408 249.579 26.424 249.723 26.44ZM254.617 33.016C255.849 33.016 256.601 31.976 256.601 30.44C256.601 28.92 255.849 27.88 254.617 27.88C253.481 27.88 252.633 29.016 252.633 30.456C252.633 31.88 253.481 33.016 254.617 33.016ZM256.521 26.392H258.713V34.136C258.713 36.952 257.129 38.008 254.489 38.008C252.649 38.008 251.033 37.336 250.729 35.336H252.825C253.017 36.04 253.609 36.392 254.601 36.392C255.753 36.392 256.521 35.848 256.521 34.552V33.4C255.961 34.344 254.953 34.696 254.057 34.696C251.945 34.696 250.313 32.952 250.313 30.44C250.313 27.992 251.897 26.2 254.057 26.2C255.145 26.2 256.137 26.76 256.521 27.512V26.392ZM266.71 32.344L268.054 26.392H270.406L271.766 32.328L272.918 26.392H275.11L273.078 35H270.806L269.238 28.472L267.654 35H265.382L263.366 26.392H265.558L266.71 32.344ZM276.124 26.392H278.332V35H276.124V26.392ZM276.124 23.4H278.332V25.448H276.124V23.4ZM280.632 26.392V24.056H282.84V26.392H284.632V27.912H282.84V32.36C282.84 33.24 283.144 33.416 283.928 33.416H284.6V35H282.984C281 35 280.632 34.392 280.632 32.68V27.912H279.416V26.392H280.632ZM288.27 23.4V27.528C288.766 26.648 289.694 26.2 290.766 26.2C292.83 26.2 293.742 27.448 293.742 29.576V35H291.534V30.056C291.534 28.952 291.294 27.976 290.046 27.976C288.59 27.976 288.27 29.16 288.27 30.52V35H286.062V23.4H288.27ZM306.803 29.192C306.803 25.72 304.739 25.192 302.627 25.192H301.571V33.208H302.627C304.739 33.208 306.803 32.696 306.803 29.192ZM299.283 23.4H302.723C306.403 23.4 309.171 24.584 309.171 29.192C309.171 33.8 306.403 35 302.723 35H299.283V23.4ZM315.86 35V33.864C315.364 34.744 314.42 35.208 313.348 35.208C311.284 35.208 310.452 33.944 310.452 31.832V26.392H312.66V31.352C312.66 32.504 312.836 33.432 314.068 33.432C315.54 33.432 315.86 32.232 315.86 30.872V26.392H318.068V35H315.86ZM323.824 26.2C325.632 26.2 327.424 27.208 327.728 29.336H325.616C325.44 28.504 324.672 27.912 323.824 27.912C322.672 27.912 321.76 28.888 321.76 30.68C321.76 32.488 322.624 33.496 323.84 33.496C324.608 33.496 325.392 33.096 325.696 32.072H327.808C327.296 34.424 325.52 35.208 323.728 35.208C321.152 35.208 319.504 33.32 319.504 30.712C319.504 28.088 321.248 26.2 323.824 26.2ZM329.142 23.4H331.35V29.848L334.486 26.392H336.966L333.878 29.688L337.142 35H334.662L332.406 31.272L331.35 32.408V35H329.142V23.4ZM345.601 29.192C345.601 25.72 343.537 25.192 341.425 25.192H340.369V33.208H341.425C343.537 33.208 345.601 32.696 345.601 29.192ZM338.081 23.4H341.521C345.201 23.4 347.969 24.584 347.969 29.192C347.969 33.8 345.201 35 341.521 35H338.081V23.4ZM349.597 35V23.4H354.109C356.141 23.4 358.333 24.04 358.333 26.424C358.333 27.512 357.613 28.488 357.021 28.872C357.917 29.304 358.749 29.976 358.749 31.576C358.749 34.072 356.685 35 354.301 35H349.597ZM351.885 29.912V33.208H354.413C355.757 33.208 356.413 32.648 356.413 31.576C356.413 30.488 355.741 29.912 354.317 29.912H351.885ZM351.885 25.192V28.184H354.253C355.341 28.184 355.981 27.672 355.981 26.648C355.981 25.736 355.325 25.192 354.253 25.192H351.885ZM365.182 31.688H359.886V29.768H365.182V31.688ZM373.975 23.4L375.751 31.896L377.335 23.4H379.671L377.095 35H374.391L372.631 26.36L370.871 35H368.167L365.591 23.4H367.959L369.687 31.848L371.303 23.4H373.975ZM385.458 31.704V31.064C382.978 31.32 382.002 31.608 382.002 32.568C382.002 33.192 382.482 33.704 383.49 33.704C384.882 33.704 385.458 32.968 385.458 31.704ZM385.65 33.928C385.026 34.824 384.13 35.208 382.834 35.208C381.186 35.208 379.73 34.248 379.73 32.68C379.73 30.648 382.002 30.04 385.394 29.656V29.512C385.394 28.184 384.674 27.72 383.778 27.72C382.93 27.72 382.226 28.152 382.178 29.112H380.114C380.29 27.416 381.666 26.168 383.89 26.168C385.922 26.168 387.602 27.064 387.602 29.96C387.602 30.216 387.57 31.384 387.57 32.152C387.57 33.512 387.65 34.28 387.826 35H385.794C385.73 34.728 385.698 34.36 385.65 33.928ZM396.369 28.984H394.305C394.129 28.264 393.489 27.752 392.465 27.752C391.649 27.752 391.073 28.056 391.073 28.584C391.073 29.048 391.409 29.4 392.225 29.576L393.377 29.832C395.089 30.216 396.545 30.648 396.545 32.424C396.545 34.152 394.769 35.208 392.817 35.208C390.705 35.208 389.105 34.12 388.897 32.152H391.025C391.153 32.984 391.729 33.608 392.881 33.608C393.841 33.608 394.433 33.256 394.433 32.632C394.433 31.992 393.777 31.752 393.025 31.576L391.745 31.304C390.129 30.968 389.057 30.296 389.057 28.728C389.057 27.192 390.721 26.168 392.577 26.168C394.369 26.168 396.065 27 396.369 28.984ZM408.534 35V29.992C408.534 29.048 408.454 27.976 407.158 27.976C405.686 27.976 405.446 29.208 405.446 30.52V35H403.238V29.992C403.238 29.048 403.158 27.976 401.862 27.976C400.39 27.976 400.15 29.208 400.15 30.52V35H397.942V26.392H400.15V27.528C400.646 26.68 401.51 26.2 402.55 26.2C404.006 26.2 404.662 26.984 404.998 27.608C405.686 26.648 406.534 26.2 407.83 26.2C409.99 26.2 410.742 27.544 410.742 29.576V35H408.534Z" fill="#0D0D0D"/>
<path d="M466.61 222.008H395.712C393.662 222.008 392 223.67 392 225.719V298.696C392 300.746 393.662 302.407 395.712 302.407H466.61C468.66 302.407 470.322 300.746 470.322 298.696V225.719C470.322 223.67 468.66 222.008 466.61 222.008Z" fill="#F2F2F2" stroke="#B2B2B2" stroke-miterlimit="10"/>
<path d="M395.747 222.008H466.646C468.697 222.008 470.357 223.668 470.357 225.719V241.274H392.035V225.719C392.035 223.668 393.696 222.008 395.747 222.008Z" fill="#F2F2F2" stroke="#B2B2B2" stroke-miterlimit="10"/>
<path d="M398.598 234.873C400.177 234.873 401.457 233.593 401.457 232.014C401.457 230.436 400.177 229.156 398.598 229.156C397.02 229.156 395.74 230.436 395.74 232.014C395.74 233.593 397.02 234.873 398.598 234.873Z" fill="#F2F2F2" stroke="#B2B2B2" stroke-miterlimit="10"/>
<path d="M407.199 234.873C408.778 234.873 410.057 233.593 410.057 232.014C410.057 230.436 408.778 229.156 407.199 229.156C405.62 229.156 404.341 230.436 404.341 232.014C404.341 233.593 405.62 234.873 407.199 234.873Z" fill="#F2F2F2" stroke="#B2B2B2" stroke-miterlimit="10"/>
<path d="M415.787 234.873C417.365 234.873 418.645 233.593 418.645 232.014C418.645 230.436 417.365 229.156 415.787 229.156C414.208 229.156 412.929 230.436 412.929 232.014C412.929 233.593 414.208 234.873 415.787 234.873Z" fill="#F2F2F2" stroke="#B2B2B2" stroke-miterlimit="10"/>
<path d="M430.798 281.595C423.718 281.595 418 275.878 418 268.798C418 261.718 423.718 256 430.798 256C437.878 256 443.595 261.718 443.595 268.798C443.595 275.878 437.878 281.595 430.798 281.595Z" fill="#F2F2F2" stroke="#B2B2B2" stroke-miterlimit="10" stroke-linecap="round"/>
<path d="M437.64 266.9H435.13V270.689H437.64C438.681 270.689 439.546 269.824 439.546 268.783C439.546 267.735 438.681 266.9 437.64 266.9Z" fill="#FFF100" stroke="#B2B2B2" stroke-miterlimit="10" stroke-linecap="round"/>
<path d="M422.83 268.836C422.83 271.778 425.21 274.174 428.134 274.174C431.058 274.174 433.439 271.778 433.439 268.836C433.439 265.894 431.058 263.499 428.134 263.499C425.21 263.499 422.83 265.894 422.83 268.836Z" fill="#FFF100" stroke="#B2B2B2" stroke-miterlimit="10" stroke-linecap="round"/>
<path d="M242.695 118.783C242.5 118.588 242.5 118.271 242.695 118.076L245.877 114.894C246.073 114.699 246.389 114.699 246.584 114.894C246.78 115.089 246.78 115.406 246.584 115.601L243.756 118.43L246.584 121.258C246.78 121.453 246.78 121.77 246.584 121.965C246.389 122.16 246.073 122.16 245.877 121.965L242.695 118.783ZM302.527 118.076C302.722 118.271 302.722 118.588 302.527 118.783L299.345 121.965C299.15 122.16 298.833 122.16 298.638 121.965C298.443 121.77 298.443 121.453 298.638 121.258L301.466 118.43L298.638 115.601C298.443 115.406 298.443 115.089 298.638 114.894C298.833 114.699 299.15 114.699 299.345 114.894L302.527 118.076ZM243.049 118.43L243.049 117.93H302.174L302.174 118.43L302.174 118.93H243.049L243.049 118.43Z" fill="#CCCCCC"/>
<path d="M138.743 176.641C139.009 176.57 139.283 176.728 139.355 176.995L140.519 181.342C140.591 181.608 140.433 181.883 140.166 181.954C139.899 182.025 139.625 181.867 139.553 181.6L138.518 177.737L134.655 178.772C134.388 178.843 134.114 178.685 134.042 178.418C133.971 178.151 134.129 177.877 134.396 177.806L138.743 176.641ZM123.801 203.932C123.535 204.004 123.26 203.845 123.189 203.579L122.024 199.232C121.953 198.965 122.111 198.691 122.378 198.62C122.645 198.548 122.919 198.706 122.99 198.973L124.025 202.837L127.889 201.802C128.156 201.73 128.43 201.889 128.502 202.155C128.573 202.422 128.415 202.696 128.148 202.768L123.801 203.932ZM138.872 177.124L139.305 177.374L124.105 203.699L123.672 203.449L123.239 203.199L138.439 176.874L138.872 177.124Z" fill="#CCCCCC"/>
<path d="M171.8 176.641C171.534 176.57 171.26 176.728 171.188 176.995L170.024 181.342C169.952 181.608 170.11 181.883 170.377 181.954C170.644 182.025 170.918 181.867 170.989 181.6L172.025 177.737L175.888 178.772C176.155 178.843 176.429 178.685 176.501 178.418C176.572 178.151 176.414 177.877 176.147 177.806L171.8 176.641ZM186.742 203.932C187.008 204.004 187.283 203.845 187.354 203.579L188.519 199.232C188.59 198.965 188.432 198.691 188.165 198.62C187.898 198.548 187.624 198.706 187.553 198.973L186.518 202.837L182.654 201.802C182.387 201.73 182.113 201.889 182.041 202.155C181.97 202.422 182.128 202.696 182.395 202.768L186.742 203.932ZM171.671 177.124L171.238 177.374L186.438 203.699L186.871 203.449L187.304 203.199L172.104 176.874L171.671 177.124Z" fill="#CCCCCC"/>
<path d="M412.13 176.641C411.863 176.57 411.589 176.728 411.517 176.995L410.353 181.342C410.281 181.608 410.439 181.883 410.706 181.954C410.973 182.025 411.247 181.867 411.319 181.6L412.354 177.737L416.217 178.772C416.484 178.843 416.758 178.685 416.83 178.418C416.901 178.151 416.743 177.877 416.476 177.806L412.13 176.641ZM427.071 203.932C427.338 204.004 427.612 203.845 427.683 203.579L428.848 199.232C428.919 198.965 428.761 198.691 428.494 198.62C428.227 198.548 427.953 198.706 427.882 198.973L426.847 202.837L422.983 201.802C422.716 201.73 422.442 201.889 422.371 202.155C422.299 202.422 422.457 202.696 422.724 202.768L427.071 203.932ZM412 177.124L411.567 177.374L426.767 203.699L427.2 203.449L427.633 203.199L412.433 176.874L412 177.124Z" fill="#CCCCCC"/>
<path d="M350.071 176.641C350.337 176.57 350.612 176.728 350.683 176.995L351.848 181.342C351.919 181.608 351.761 181.883 351.494 181.954C351.227 182.025 350.953 181.867 350.882 181.6L349.846 177.737L345.983 178.772C345.716 178.843 345.442 178.685 345.37 178.418C345.299 178.151 345.457 177.877 345.724 177.806L350.071 176.641ZM335.129 203.932C334.863 204.004 334.588 203.845 334.517 203.579L333.353 199.232C333.281 198.965 333.439 198.691 333.706 198.62C333.973 198.548 334.247 198.706 334.318 198.973L335.354 202.837L339.217 201.802C339.484 201.73 339.758 201.889 339.83 202.155C339.901 202.422 339.743 202.696 339.476 202.768L335.129 203.932ZM350.2 177.124L350.633 177.374L335.433 203.699L335 203.449L334.567 203.199L349.767 176.874L350.2 177.124Z" fill="#CCCCCC"/>
<path d="M149.61 222.008H78.7117C76.6618 222.008 75 223.67 75 225.719V298.696C75 300.746 76.6618 302.407 78.7117 302.407H149.61C151.66 302.407 153.322 300.746 153.322 298.696V225.719C153.322 223.67 151.66 222.008 149.61 222.008Z" fill="#F2F2F2" stroke="#B2B2B2" stroke-miterlimit="10"/>
<path d="M81.1787 247L89.1787 251.617L81.1787 256.236" stroke="#B2B2B2" stroke-miterlimit="10"/>
<path d="M91.6787 258H100.679" stroke="#B2B2B2" stroke-miterlimit="10"/>
<path d="M371.61 222.008H300.712C298.662 222.008 297 223.67 297 225.719V298.696C297 300.746 298.662 302.407 300.712 302.407H371.61C373.66 302.407 375.322 300.746 375.322 298.696V225.719C375.322 223.67 373.66 222.008 371.61 222.008Z" fill="#F2F2F2" stroke="#B2B2B2" stroke-miterlimit="10"/>
<path d="M300.747 222.008H371.646C373.697 222.008 375.357 223.668 375.357 225.719V241.274H297.035V225.719C297.035 223.668 298.696 222.008 300.747 222.008Z" fill="#F2F2F2" stroke="#B2B2B2" stroke-miterlimit="10"/>
<path d="M303.598 234.873C305.177 234.873 306.457 233.593 306.457 232.014C306.457 230.436 305.177 229.156 303.598 229.156C302.02 229.156 300.74 230.436 300.74 232.014C300.74 233.593 302.02 234.873 303.598 234.873Z" fill="#F2F2F2" stroke="#B2B2B2" stroke-miterlimit="10"/>
<path d="M312.199 234.873C313.778 234.873 315.057 233.593 315.057 232.014C315.057 230.436 313.778 229.156 312.199 229.156C310.62 229.156 309.341 230.436 309.341 232.014C309.341 233.593 310.62 234.873 312.199 234.873Z" fill="#F2F2F2" stroke="#B2B2B2" stroke-miterlimit="10"/>
<path d="M320.787 234.873C322.365 234.873 323.645 233.593 323.645 232.014C323.645 230.436 322.365 229.156 320.787 229.156C319.208 229.156 317.929 230.436 317.929 232.014C317.929 233.593 319.208 234.873 320.787 234.873Z" fill="#F2F2F2" stroke="#B2B2B2" stroke-miterlimit="10"/>
<path d="M303.179 247L311.179 251.617L303.179 256.236" stroke="#B2B2B2" stroke-miterlimit="10"/>
<path d="M313.679 258H322.679" stroke="#B2B2B2" stroke-miterlimit="10"/>
<path d="M78.7117 222.008H149.61C151.662 222.008 153.322 223.668 153.322 225.719V241.274H75V225.719C75 223.668 76.6607 222.008 78.7117 222.008Z" fill="#F2F2F2" stroke="#B2B2B2" stroke-miterlimit="10"/>
<path d="M81.5633 234.873C83.1418 234.873 84.4214 233.593 84.4214 232.014C84.4214 230.436 83.1418 229.156 81.5633 229.156C79.9847 229.156 78.7051 230.436 78.7051 232.014C78.7051 233.593 79.9847 234.873 81.5633 234.873Z" fill="#F2F2F2" stroke="#B2B2B2" stroke-miterlimit="10"/>
<path d="M90.1638 234.873C91.7424 234.873 93.022 233.593 93.022 232.014C93.022 230.436 91.7424 229.156 90.1638 229.156C88.5853 229.156 87.3057 230.436 87.3057 232.014C87.3057 233.593 88.5853 234.873 90.1638 234.873Z" fill="#F2F2F2" stroke="#B2B2B2" stroke-miterlimit="10"/>
<path d="M98.7517 234.873C100.33 234.873 101.61 233.593 101.61 232.014C101.61 230.436 100.33 229.156 98.7517 229.156C97.1732 229.156 95.8936 230.436 95.8936 232.014C95.8936 233.593 97.1732 234.873 98.7517 234.873Z" fill="#F2F2F2" stroke="#B2B2B2" stroke-miterlimit="10"/>
<path d="M363.88 87.4912L344.023 121.323C344.009 121.348 344.008 121.379 344.02 121.405L363.895 162.158C363.906 162.181 363.927 162.198 363.951 162.204L377.503 165.776C377.525 165.782 377.544 165.796 377.555 165.816L383.458 175.873C383.491 175.93 383.573 175.93 383.607 175.873L393.574 158.89C393.593 158.857 393.633 158.841 393.67 158.851L402.624 161.211C402.663 161.221 402.703 161.203 402.722 161.168L423.974 121.412C423.99 121.382 423.987 121.346 423.966 121.319L400.954 91.1722C400.947 91.163 400.938 91.1552 400.928 91.1495L388.191 83.9156C388.178 83.9081 388.167 83.8973 388.159 83.8843L383.607 76.1268C383.573 76.07 383.491 76.07 383.458 76.1268L375.125 90.325C375.105 90.3584 375.066 90.3747 375.028 90.3648L363.976 87.4515C363.939 87.4416 363.899 87.4579 363.88 87.4912Z" fill="#CCEBFF" stroke="#B2B2B2" stroke-miterlimit="10"/>
<path d="M401 156L405 148" stroke="#B2B2B2" stroke-miterlimit="10" stroke-linecap="round"/>
<path d="M358 104L363 95" stroke="#B2B2B2" stroke-miterlimit="10" stroke-linecap="round"/>
<path d="M403 134L407 127" stroke="#B2B2B2" stroke-miterlimit="10" stroke-linecap="round"/>
<path d="M400 97L411 113" stroke="#B2B2B2" stroke-miterlimit="10" stroke-linecap="round"/>
<path d="M362 145L367 158" stroke="#B2B2B2" stroke-miterlimit="10" stroke-linecap="round"/>
<path d="M388 84L377 103" stroke="#B2B2B2" stroke-miterlimit="10" stroke-linecap="round"/>
<path d="M415 122L404.771 139.579C404.57 139.924 404.24 140.175 403.853 140.276L386.532 144.787C386.024 144.919 385.485 144.777 385.108 144.411L379.857 139.307" stroke="#B2B2B2" stroke-miterlimit="10" stroke-linecap="round"/>
<path d="M399 122L388.682 107.523C388.488 107.25 388.208 107.05 387.886 106.955L371.93 102.234C371.438 102.088 370.906 102.204 370.52 102.54L360.613 111.161C360.23 111.494 360.042 111.997 360.112 112.499L361.43 122" stroke="#B2B2B2" stroke-miterlimit="10" stroke-linecap="round"/>
<path d="M378 166L391 144" stroke="#B2B2B2" stroke-miterlimit="10" stroke-linecap="round"/>
<path d="M336 122L434 122" stroke="#B2B2B2" stroke-miterlimit="10" stroke-linecap="round"/>
<path d="M360.18 126.475V133H359.154V126.475H360.18ZM363.54 128.068C364.647 128.068 365.493 128.851 365.637 129.796H364.701C364.602 129.247 364.107 128.869 363.495 128.869C362.82 128.869 362.199 129.4 362.199 130.579C362.199 131.776 362.82 132.316 363.495 132.316C364.098 132.316 364.602 131.965 364.737 131.389H365.682C365.484 132.406 364.548 133.117 363.477 133.117C362.073 133.117 361.2 132.055 361.2 130.588C361.2 129.157 362.109 128.068 363.54 128.068ZM368.648 132.316C369.332 132.316 369.71 132.037 369.917 131.578H370.862C370.646 132.379 369.908 133.117 368.684 133.117C367.127 133.117 366.272 131.974 366.272 130.57C366.272 129.067 367.28 128.068 368.657 128.068C370.151 128.068 371.024 129.292 370.925 130.867H367.235C367.334 131.767 367.883 132.316 368.648 132.316ZM368.648 128.833C367.919 128.833 367.388 129.202 367.253 130.129H369.953C369.926 129.418 369.413 128.833 368.648 128.833ZM372.743 130.588C372.743 131.785 373.355 132.334 374.075 132.334C374.858 132.334 375.38 131.677 375.38 130.588C375.38 129.499 374.858 128.851 374.075 128.851C373.355 128.851 372.743 129.391 372.743 130.588ZM371.843 126.475H372.779V128.869C373.076 128.365 373.571 128.068 374.291 128.068C375.416 128.068 376.379 129.004 376.379 130.588C376.379 132.172 375.416 133.117 374.291 133.117C373.571 133.117 373.076 132.82 372.779 132.316V133H371.843V126.475ZM379.423 132.316C380.107 132.316 380.485 132.037 380.692 131.578H381.637C381.421 132.379 380.683 133.117 379.459 133.117C377.902 133.117 377.047 131.974 377.047 130.57C377.047 129.067 378.055 128.068 379.432 128.068C380.926 128.068 381.799 129.292 381.7 130.867H378.01C378.109 131.767 378.658 132.316 379.423 132.316ZM379.423 128.833C378.694 128.833 378.163 129.202 378.028 130.129H380.728C380.701 129.418 380.188 128.833 379.423 128.833ZM385.138 128.149V129.121C384.967 129.103 384.805 129.094 384.652 129.094C383.932 129.094 383.554 129.445 383.554 130.462V133H382.618V128.158H383.536V129.013C383.788 128.464 384.265 128.149 384.877 128.14C384.958 128.14 385.057 128.14 385.138 128.149ZM389.013 128.869V128.158H389.949V132.433C389.949 133.324 389.76 133.801 389.427 134.134C389.058 134.521 388.482 134.719 387.735 134.719C386.646 134.719 385.863 134.251 385.71 133.234H386.673C386.772 133.675 387.042 133.936 387.753 133.936C388.194 133.936 388.518 133.819 388.725 133.585C388.914 133.378 389.013 133.135 389.013 132.631V132.118C388.716 132.622 388.239 132.919 387.519 132.919C386.394 132.919 385.458 132.037 385.458 130.489C385.458 128.95 386.394 128.068 387.519 128.068C388.239 128.068 388.716 128.365 389.013 128.869ZM389.049 130.489C389.049 129.337 388.455 128.842 387.735 128.842C386.952 128.842 386.457 129.445 386.457 130.489C386.457 131.542 386.952 132.154 387.735 132.154C388.455 132.154 389.049 131.641 389.049 130.489Z" fill="#B2B2B2"/>
<path d="M245.435 222H173.923C171.855 222 170.179 223.654 170.179 225.693V298.307C170.179 300.346 171.855 302 173.923 302H245.435C247.503 302 249.179 300.346 249.179 298.307V225.693C249.179 223.654 247.503 222 245.435 222Z" fill="#F2F2F2" stroke="#B2B2B2" stroke-miterlimit="10"/>
<path d="M174.375 221H245.482C247.525 221 249.179 222.724 249.179 224.853V238H170.179V224.853C170.179 222.724 172.333 221 174.375 221Z" fill="#F2F2F2" stroke="#B2B2B2" stroke-miterlimit="10"/>
<path d="M178.037 232.716C179.615 232.716 180.895 231.437 180.895 229.858C180.895 228.28 179.615 227 178.037 227C176.458 227 175.179 228.28 175.179 229.858C175.179 231.437 176.458 232.716 178.037 232.716Z" fill="#F2F2F2" stroke="#B2B2B2" stroke-miterlimit="10"/>
<path d="M186.637 232.716C188.216 232.716 189.496 231.437 189.496 229.858C189.496 228.28 188.216 227 186.637 227C185.059 227 183.779 228.28 183.779 229.858C183.779 231.437 185.059 232.716 186.637 232.716Z" fill="#F2F2F2" stroke="#B2B2B2" stroke-miterlimit="10"/>
<path d="M195.225 232.716C196.804 232.716 198.084 231.437 198.084 229.858C198.084 228.28 196.804 227 195.225 227C193.647 227 192.367 228.28 192.367 229.858C192.367 231.437 193.647 232.716 195.225 232.716Z" fill="#F2F2F2" stroke="#B2B2B2" stroke-miterlimit="10"/>
<path d="M170.179 238H193.263V247H249.179" stroke="#B2B2B2" stroke-miterlimit="10"/>
<path d="M205.885 81.0001C208.226 81.0001 210.124 82.9143 210.124 85.2761V145.32C210.124 146.106 209.815 146.861 209.264 147.422L199.323 157.544C198.699 158.18 197.848 158.507 196.961 158.433C187.701 157.669 134.499 153.257 121.485 151.74C119.584 151.518 118.066 150.039 117.78 148.13C116.438 139.152 111.957 102.285 111.013 94.4964C110.901 93.5667 111.232 92.6639 111.904 92.0112L122.362 81.8485C122.922 81.3044 123.672 81 124.452 81L205.885 81.0001Z" fill="#CCCCCC" stroke="#B2B2B2" stroke-miterlimit="10"/>
<rect x="110" y="91.3555" width="89.766" height="68.1876" rx="4.31567" fill="#F2F2F2" stroke="#B2B2B2" stroke-miterlimit="10"/>
<rect x="118.89" y="102.398" width="5.0796" height="5.0796" rx="2.5398" fill="#F2F2F2" stroke="#B2B2B2" stroke-miterlimit="10"/>
<rect x="127.144" y="102.398" width="5.0796" height="5.0796" rx="2.5398" fill="#F2F2F2" stroke="#B2B2B2" stroke-miterlimit="10"/>
<rect x="135.398" y="102.398" width="5.0796" height="5.0796" rx="2.5398" fill="#F2F2F2" stroke="#B2B2B2" stroke-miterlimit="10"/>
<rect x="168.415" y="102.398" width="22.2232" height="5.0796" rx="2.5398" fill="#F2F2F2" stroke="#B2B2B2" stroke-miterlimit="10"/>
<rect x="118.89" y="123.355" width="5.0796" height="5.0796" rx="2.5398" fill="#F2F2F2" stroke="#B2B2B2" stroke-miterlimit="10"/>
<rect x="127.144" y="123.355" width="5.0796" height="5.0796" rx="2.5398" fill="#F2F2F2" stroke="#B2B2B2" stroke-miterlimit="10"/>
<rect x="135.398" y="123.355" width="5.0796" height="5.0796" rx="2.5398" fill="#F2F2F2" stroke="#B2B2B2" stroke-miterlimit="10"/>
<rect x="118.89" y="144.305" width="5.0796" height="5.0796" rx="2.5398" fill="#F2F2F2" stroke="#B2B2B2" stroke-miterlimit="10"/>
<rect x="127.144" y="144.305" width="5.0796" height="5.0796" rx="2.5398" fill="#F2F2F2" stroke="#B2B2B2" stroke-miterlimit="10"/>
<rect x="135.398" y="144.305" width="5.0796" height="5.0796" rx="2.5398" fill="#F2F2F2" stroke="#B2B2B2" stroke-miterlimit="10"/>
<path d="M110.338 137.547L199.838 137.547" stroke="#B2B2B2" stroke-miterlimit="10"/>
<line x1="110" y1="115.887" x2="199.766" y2="115.887" stroke="#B2B2B2" stroke-miterlimit="10"/>
<path d="M198.94 93.0469L209.26 82.7266" stroke="#B2B2B2" stroke-miterlimit="10"/>
</svg>
