<svg width="481" height="353" viewBox="0 0 481 353" fill="none" xmlns="http://www.w3.org/2000/svg">
<path d="M10 0.5H470.357C475.604 0.500049 479.857 4.75333 479.857 10V342.407C479.857 347.654 475.604 351.907 470.357 351.907H10C4.7533 351.907 0.5 347.654 0.5 342.407V10L0.512695 9.51074C0.767344 4.49142 4.9174 0.5 10 0.5Z" fill="#262626"/>
<path d="M10 0.5H470.357C475.604 0.500049 479.857 4.75333 479.857 10V342.407C479.857 347.654 475.604 351.907 470.357 351.907H10C4.7533 351.907 0.5 347.654 0.5 342.407V10L0.512695 9.51074C0.767344 4.49142 4.9174 0.5 10 0.5Z" fill="#1A1A1A"/>
<path d="M10 0.5H470.357C475.604 0.500049 479.857 4.75333 479.857 10V342.407C479.857 347.654 475.604 351.907 470.357 351.907H10C4.7533 351.907 0.5 347.654 0.5 342.407V10L0.512695 9.51074C0.767344 4.49142 4.9174 0.5 10 0.5Z" stroke="#4C4C4C"/>
<path d="M164.62 23.4V35H162.332V23.4H164.62ZM170.435 26.2C172.243 26.2 174.035 27.208 174.339 29.336H172.227C172.051 28.504 171.283 27.912 170.435 27.912C169.283 27.912 168.371 28.888 168.371 30.68C168.371 32.488 169.235 33.496 170.451 33.496C171.219 33.496 172.003 33.096 172.307 32.072H174.419C173.907 34.424 172.131 35.208 170.339 35.208C167.763 35.208 166.115 33.32 166.115 30.712C166.115 28.088 167.859 26.2 170.435 26.2ZM183.816 31.304H177.464C177.592 32.776 178.584 33.496 179.64 33.496C180.328 33.496 181 33.256 181.448 32.504H183.72C183.256 33.784 182.008 35.208 179.656 35.208C176.888 35.208 175.272 33.144 175.272 30.664C175.272 28.104 177.048 26.2 179.592 26.2C182.248 26.2 183.896 28.264 183.816 31.304ZM179.576 27.816C178.744 27.816 177.672 28.328 177.496 29.784H181.576C181.528 28.328 180.504 27.816 179.576 27.816ZM189.398 33.512C190.55 33.512 191.366 32.392 191.366 30.712C191.366 29.032 190.55 27.896 189.398 27.896C188.182 27.896 187.382 28.968 187.382 30.696C187.382 32.472 188.182 33.512 189.398 33.512ZM187.462 35H185.254V23.4H187.462V27.496C187.926 26.68 188.854 26.2 189.942 26.2C192.022 26.2 193.686 27.992 193.686 30.696C193.686 33.448 191.99 35.208 189.942 35.208C189.046 35.208 188.022 34.872 187.462 33.912V35ZM203.239 31.304H196.887C197.015 32.776 198.007 33.496 199.063 33.496C199.751 33.496 200.423 33.256 200.871 32.504H203.143C202.679 33.784 201.431 35.208 199.079 35.208C196.311 35.208 194.695 33.144 194.695 30.664C194.695 28.104 196.471 26.2 199.015 26.2C201.671 26.2 203.319 28.264 203.239 31.304ZM198.999 27.816C198.167 27.816 197.095 28.328 196.919 29.784H200.999C200.951 28.328 199.927 27.816 198.999 27.816ZM209.605 26.44V28.52C209.285 28.472 209.013 28.472 208.693 28.472C207.605 28.472 206.885 28.872 206.885 30.488V35H204.677V26.392H206.853V27.896C207.349 26.824 208.117 26.408 209.125 26.408C209.269 26.408 209.461 26.424 209.605 26.44ZM214.499 33.016C215.731 33.016 216.483 31.976 216.483 30.44C216.483 28.92 215.731 27.88 214.499 27.88C213.363 27.88 212.515 29.016 212.515 30.456C212.515 31.88 213.363 33.016 214.499 33.016ZM216.403 26.392H218.595V34.136C218.595 36.952 217.011 38.008 214.371 38.008C212.531 38.008 210.915 37.336 210.611 35.336H212.707C212.899 36.04 213.491 36.392 214.483 36.392C215.635 36.392 216.403 35.848 216.403 34.552V33.4C215.843 34.344 214.835 34.696 213.939 34.696C211.827 34.696 210.195 32.952 210.195 30.44C210.195 27.992 211.779 26.2 213.939 26.2C215.027 26.2 216.019 26.76 216.403 27.512V26.392ZM226.593 32.344L227.937 26.392H230.289L231.649 32.328L232.801 26.392H234.993L232.961 35H230.689L229.121 28.472L227.537 35H225.265L223.249 26.392H225.441L226.593 32.344ZM236.007 26.392H238.215V35H236.007V26.392ZM236.007 23.4H238.215V25.448H236.007V23.4ZM240.514 26.392V24.056H242.722V26.392H244.514V27.912H242.722V32.36C242.722 33.24 243.026 33.416 243.81 33.416H244.482V35H242.866C240.882 35 240.514 34.392 240.514 32.68V27.912H239.298V26.392H240.514ZM248.153 23.4V27.528C248.649 26.648 249.577 26.2 250.649 26.2C252.713 26.2 253.625 27.448 253.625 29.576V35H251.417V30.056C251.417 28.952 251.177 27.976 249.929 27.976C248.473 27.976 248.153 29.16 248.153 30.52V35H245.945V23.4H248.153ZM266.685 29.192C266.685 25.72 264.621 25.192 262.509 25.192H261.453V33.208H262.509C264.621 33.208 266.685 32.696 266.685 29.192ZM259.165 23.4H262.605C266.285 23.4 269.053 24.584 269.053 29.192C269.053 33.8 266.285 35 262.605 35H259.165V23.4ZM275.742 35V33.864C275.246 34.744 274.302 35.208 273.23 35.208C271.166 35.208 270.334 33.944 270.334 31.832V26.392H272.542V31.352C272.542 32.504 272.718 33.432 273.95 33.432C275.422 33.432 275.742 32.232 275.742 30.872V26.392H277.95V35H275.742ZM283.706 26.2C285.514 26.2 287.306 27.208 287.61 29.336H285.498C285.322 28.504 284.554 27.912 283.706 27.912C282.554 27.912 281.642 28.888 281.642 30.68C281.642 32.488 282.506 33.496 283.722 33.496C284.49 33.496 285.274 33.096 285.578 32.072H287.69C287.178 34.424 285.402 35.208 283.61 35.208C281.034 35.208 279.386 33.32 279.386 30.712C279.386 28.088 281.13 26.2 283.706 26.2ZM289.025 23.4H291.233V29.848L294.369 26.392H296.849L293.761 29.688L297.025 35H294.545L292.289 31.272L291.233 32.408V35H289.025V23.4ZM305.484 29.192C305.484 25.72 303.42 25.192 301.308 25.192H300.252V33.208H301.308C303.42 33.208 305.484 32.696 305.484 29.192ZM297.964 23.4H301.404C305.084 23.4 307.852 24.584 307.852 29.192C307.852 33.8 305.084 35 301.404 35H297.964V23.4ZM309.48 35V23.4H313.992C316.024 23.4 318.216 24.04 318.216 26.424C318.216 27.512 317.496 28.488 316.904 28.872C317.8 29.304 318.632 29.976 318.632 31.576C318.632 34.072 316.568 35 314.184 35H309.48ZM311.768 29.912V33.208H314.296C315.64 33.208 316.296 32.648 316.296 31.576C316.296 30.488 315.624 29.912 314.2 29.912H311.768ZM311.768 25.192V28.184H314.136C315.224 28.184 315.864 27.672 315.864 26.648C315.864 25.736 315.208 25.192 314.136 25.192H311.768Z" fill="#F2F2F2"/>
<path d="M401.61 232.008H330.712C328.662 232.008 327 233.67 327 235.719V308.696C327 310.746 328.662 312.407 330.712 312.407H401.61C403.66 312.407 405.322 310.746 405.322 308.696V235.719C405.322 233.67 403.66 232.008 401.61 232.008Z" fill="#262626" stroke="#808080" stroke-miterlimit="10"/>
<path d="M365.976 291.595C358.896 291.595 353.179 285.878 353.179 278.798C353.179 271.718 358.896 266 365.976 266C373.056 266 378.774 271.718 378.774 278.798C378.774 285.878 373.056 291.595 365.976 291.595Z" fill="#262626" stroke="#808080" stroke-miterlimit="10" stroke-linecap="round"/>
<path d="M372.819 276.9H370.309V280.689H372.819C373.86 280.689 374.725 279.824 374.725 278.783C374.725 277.735 373.86 276.9 372.819 276.9Z" fill="#CCBD00" fill-opacity="0.6" stroke="#808080" stroke-miterlimit="10" stroke-linecap="round"/>
<path d="M358.009 278.836C358.009 281.778 360.389 284.174 363.313 284.174C366.237 284.174 368.617 281.778 368.617 278.836C368.617 275.894 366.237 273.499 363.313 273.499C360.389 273.499 358.009 275.894 358.009 278.836Z" fill="#CCBD00" fill-opacity="0.6" stroke="#808080" stroke-miterlimit="10" stroke-linecap="round"/>
<path d="M330.747 232.008H401.646C403.697 232.008 405.357 233.668 405.357 235.719V251.274H327.035V235.719C327.035 233.668 328.696 232.008 330.747 232.008Z" fill="#262626" stroke="#808080" stroke-miterlimit="10"/>
<path d="M333.598 244.873C335.177 244.873 336.457 243.593 336.457 242.014C336.457 240.436 335.177 239.156 333.598 239.156C332.02 239.156 330.74 240.436 330.74 242.014C330.74 243.593 332.02 244.873 333.598 244.873Z" fill="#262626" stroke="#808080" stroke-miterlimit="10"/>
<path d="M342.199 244.873C343.778 244.873 345.057 243.593 345.057 242.014C345.057 240.436 343.778 239.156 342.199 239.156C340.62 239.156 339.341 240.436 339.341 242.014C339.341 243.593 340.62 244.873 342.199 244.873Z" fill="#262626" stroke="#808080" stroke-miterlimit="10"/>
<path d="M350.787 244.873C352.365 244.873 353.645 243.593 353.645 242.014C353.645 240.436 352.365 239.156 350.787 239.156C349.208 239.156 347.929 240.436 347.929 242.014C347.929 243.593 349.208 244.873 350.787 244.873Z" fill="#262626" stroke="#808080" stroke-miterlimit="10"/>
<path d="M225.695 128.783C225.5 128.588 225.5 128.271 225.695 128.076L228.877 124.894C229.073 124.699 229.389 124.699 229.584 124.894C229.78 125.089 229.78 125.406 229.584 125.601L226.756 128.43L229.584 131.258C229.78 131.453 229.78 131.77 229.584 131.965C229.389 132.16 229.073 132.16 228.877 131.965L225.695 128.783ZM285.527 128.076C285.722 128.271 285.722 128.588 285.527 128.783L282.345 131.965C282.15 132.16 281.833 132.16 281.638 131.965C281.443 131.77 281.443 131.453 281.638 131.258L284.466 128.43L281.638 125.601C281.443 125.406 281.443 125.089 281.638 124.894C281.833 124.699 282.15 124.699 282.345 124.894L285.527 128.076ZM226.049 128.43L226.049 127.93H285.174L285.174 128.43L285.174 128.93H226.049L226.049 128.43Z" fill="#666666"/>
<path d="M138.743 186.641C139.009 186.57 139.283 186.728 139.355 186.995L140.519 191.342C140.591 191.608 140.433 191.883 140.166 191.954C139.899 192.025 139.625 191.867 139.553 191.6L138.518 187.737L134.655 188.772C134.388 188.843 134.114 188.685 134.042 188.418C133.971 188.151 134.129 187.877 134.396 187.806L138.743 186.641ZM123.801 213.932C123.535 214.004 123.26 213.845 123.189 213.579L122.024 209.232C121.953 208.965 122.111 208.691 122.378 208.62C122.645 208.548 122.919 208.706 122.99 208.973L124.025 212.837L127.889 211.802C128.156 211.73 128.43 211.889 128.502 212.155C128.573 212.422 128.415 212.696 128.148 212.768L123.801 213.932ZM138.872 187.124L139.305 187.374L124.105 213.699L123.672 213.449L123.239 213.199L138.439 186.874L138.872 187.124Z" fill="#666666"/>
<path d="M171.8 186.641C171.534 186.57 171.26 186.728 171.188 186.995L170.024 191.342C169.952 191.608 170.11 191.883 170.377 191.954C170.644 192.025 170.918 191.867 170.989 191.6L172.025 187.737L175.888 188.772C176.155 188.843 176.429 188.685 176.501 188.418C176.572 188.151 176.414 187.877 176.147 187.806L171.8 186.641ZM186.742 213.932C187.008 214.004 187.283 213.845 187.354 213.579L188.519 209.232C188.59 208.965 188.432 208.691 188.165 208.62C187.898 208.548 187.624 208.706 187.553 208.973L186.518 212.837L182.654 211.802C182.387 211.73 182.113 211.889 182.041 212.155C181.97 212.422 182.128 212.696 182.395 212.768L186.742 213.932ZM171.671 187.124L171.238 187.374L186.438 213.699L186.871 213.449L187.304 213.199L172.104 186.874L171.671 187.124Z" fill="#666666"/>
<path d="M349.606 186.641C349.339 186.57 349.065 186.728 348.994 186.995L347.829 191.342C347.758 191.608 347.916 191.883 348.183 191.954C348.45 192.025 348.724 191.867 348.795 191.6L349.83 187.737L353.694 188.772C353.961 188.843 354.235 188.685 354.306 188.418C354.378 188.151 354.22 187.877 353.953 187.806L349.606 186.641ZM364.547 213.932C364.814 214.004 365.088 213.845 365.16 213.579L366.324 209.232C366.396 208.965 366.237 208.691 365.971 208.62C365.704 208.548 365.43 208.706 365.358 208.973L364.323 212.837L360.459 211.802C360.193 211.73 359.919 211.889 359.847 212.155C359.776 212.422 359.934 212.696 360.201 212.768L364.547 213.932ZM349.477 187.124L349.044 187.374L364.244 213.699L364.677 213.449L365.11 213.199L349.91 186.874L349.477 187.124Z" fill="#666666"/>
<path d="M149.61 232.008H78.7117C76.6618 232.008 75 233.67 75 235.719V308.696C75 310.746 76.6618 312.407 78.7117 312.407H149.61C151.66 312.407 153.322 310.746 153.322 308.696V235.719C153.322 233.67 151.66 232.008 149.61 232.008Z" fill="#262626" stroke="#808080" stroke-miterlimit="10"/>
<path d="M81.1787 257L89.1787 261.617L81.1787 266.236" stroke="#808080" stroke-miterlimit="10"/>
<path d="M91.6787 268H100.679" stroke="#808080" stroke-miterlimit="10"/>
<path d="M78.7117 232.008H149.61C151.662 232.008 153.322 233.668 153.322 235.719V251.274H75V235.719C75 233.668 76.6607 232.008 78.7117 232.008Z" fill="#262626" stroke="#808080" stroke-miterlimit="10"/>
<path d="M81.5633 244.873C83.1418 244.873 84.4214 243.593 84.4214 242.014C84.4214 240.436 83.1418 239.156 81.5633 239.156C79.9847 239.156 78.7051 240.436 78.7051 242.014C78.7051 243.593 79.9847 244.873 81.5633 244.873Z" fill="#262626" stroke="#808080" stroke-miterlimit="10"/>
<path d="M90.1638 244.873C91.7424 244.873 93.022 243.593 93.022 242.014C93.022 240.436 91.7424 239.156 90.1638 239.156C88.5853 239.156 87.3057 240.436 87.3057 242.014C87.3057 243.593 88.5853 244.873 90.1638 244.873Z" fill="#262626" stroke="#808080" stroke-miterlimit="10"/>
<path d="M98.7517 244.873C100.33 244.873 101.61 243.593 101.61 242.014C101.61 240.436 100.33 239.156 98.7517 239.156C97.1732 239.156 95.8936 240.436 95.8936 242.014C95.8936 243.593 97.1732 244.873 98.7517 244.873Z" fill="#262626" stroke="#808080" stroke-miterlimit="10"/>
<path d="M245.435 232H173.923C171.855 232 170.179 233.654 170.179 235.693V308.307C170.179 310.346 171.855 312 173.923 312H245.435C247.503 312 249.179 310.346 249.179 308.307V235.693C249.179 233.654 247.503 232 245.435 232Z" fill="#262626" stroke="#808080" stroke-miterlimit="10"/>
<path d="M174.375 231H245.482C247.525 231 249.179 232.724 249.179 234.853V248H170.179V234.853C170.179 232.724 172.333 231 174.375 231Z" fill="#262626" stroke="#808080" stroke-miterlimit="10"/>
<path d="M178.037 242.716C179.615 242.716 180.895 241.437 180.895 239.858C180.895 238.28 179.615 237 178.037 237C176.458 237 175.179 238.28 175.179 239.858C175.179 241.437 176.458 242.716 178.037 242.716Z" fill="#262626" stroke="#808080" stroke-miterlimit="10"/>
<path d="M186.637 242.716C188.216 242.716 189.496 241.437 189.496 239.858C189.496 238.28 188.216 237 186.637 237C185.059 237 183.779 238.28 183.779 239.858C183.779 241.437 185.059 242.716 186.637 242.716Z" fill="#262626" stroke="#808080" stroke-miterlimit="10"/>
<path d="M195.225 242.716C196.804 242.716 198.084 241.437 198.084 239.858C198.084 238.28 196.804 237 195.225 237C193.647 237 192.367 238.28 192.367 239.858C192.367 241.437 193.647 242.716 195.225 242.716Z" fill="#262626" stroke="#808080" stroke-miterlimit="10"/>
<path d="M323.88 87.4912L304.023 121.323C304.009 121.348 304.008 121.379 304.02 121.405L323.895 162.158C323.906 162.181 323.927 162.198 323.951 162.204L337.503 165.776C337.525 165.782 337.544 165.796 337.555 165.816L343.458 175.873C343.491 175.93 343.573 175.93 343.607 175.873L353.574 158.89C353.593 158.857 353.633 158.841 353.67 158.851L362.624 161.211C362.663 161.221 362.703 161.203 362.722 161.168L383.974 121.412C383.99 121.382 383.987 121.346 383.966 121.319L360.954 91.1722C360.947 91.163 360.938 91.1552 360.928 91.1495L348.191 83.9156C348.178 83.9081 348.167 83.8973 348.159 83.8843L343.607 76.1268C343.573 76.07 343.491 76.07 343.458 76.1268L335.125 90.325C335.105 90.3584 335.066 90.3747 335.028 90.3648L323.976 87.4515C323.939 87.4416 323.899 87.4579 323.88 87.4912Z" fill="#102F41" stroke="#808080" stroke-miterlimit="10"/>
<path d="M361 156L365 148" stroke="#808080" stroke-miterlimit="10" stroke-linecap="round"/>
<path d="M318 104L323 95" stroke="#808080" stroke-miterlimit="10" stroke-linecap="round"/>
<path d="M363 134L367 127" stroke="#808080" stroke-miterlimit="10" stroke-linecap="round"/>
<path d="M360 97L371 113" stroke="#808080" stroke-miterlimit="10" stroke-linecap="round"/>
<path d="M322 145L327 158" stroke="#808080" stroke-miterlimit="10" stroke-linecap="round"/>
<path d="M348 84L337 103" stroke="#808080" stroke-miterlimit="10" stroke-linecap="round"/>
<path d="M375 122L364.771 139.579C364.57 139.924 364.24 140.175 363.853 140.276L346.532 144.787C346.024 144.919 345.485 144.777 345.108 144.411L339.857 139.307" stroke="#808080" stroke-miterlimit="10" stroke-linecap="round"/>
<path d="M359 122L348.682 107.523C348.488 107.25 348.208 107.05 347.886 106.955L331.93 102.234C331.438 102.088 330.906 102.204 330.52 102.54L320.613 111.161C320.23 111.494 320.042 111.997 320.112 112.499L321.43 122" stroke="#808080" stroke-miterlimit="10" stroke-linecap="round"/>
<path d="M338 166L351 144" stroke="#808080" stroke-miterlimit="10" stroke-linecap="round"/>
<path d="M296 122L394 122" stroke="#808080" stroke-miterlimit="10" stroke-linecap="round"/>
<path d="M323.18 126.475V133H322.154V126.475H323.18ZM326.54 128.068C327.647 128.068 328.493 128.851 328.637 129.796H327.701C327.602 129.247 327.107 128.869 326.495 128.869C325.82 128.869 325.199 129.4 325.199 130.579C325.199 131.776 325.82 132.316 326.495 132.316C327.098 132.316 327.602 131.965 327.737 131.389H328.682C328.484 132.406 327.548 133.117 326.477 133.117C325.073 133.117 324.2 132.055 324.2 130.588C324.2 129.157 325.109 128.068 326.54 128.068ZM331.648 132.316C332.332 132.316 332.71 132.037 332.917 131.578H333.862C333.646 132.379 332.908 133.117 331.684 133.117C330.127 133.117 329.272 131.974 329.272 130.57C329.272 129.067 330.28 128.068 331.657 128.068C333.151 128.068 334.024 129.292 333.925 130.867H330.235C330.334 131.767 330.883 132.316 331.648 132.316ZM331.648 128.833C330.919 128.833 330.388 129.202 330.253 130.129H332.953C332.926 129.418 332.413 128.833 331.648 128.833ZM335.743 130.588C335.743 131.785 336.355 132.334 337.075 132.334C337.858 132.334 338.38 131.677 338.38 130.588C338.38 129.499 337.858 128.851 337.075 128.851C336.355 128.851 335.743 129.391 335.743 130.588ZM334.843 126.475H335.779V128.869C336.076 128.365 336.571 128.068 337.291 128.068C338.416 128.068 339.379 129.004 339.379 130.588C339.379 132.172 338.416 133.117 337.291 133.117C336.571 133.117 336.076 132.82 335.779 132.316V133H334.843V126.475ZM342.423 132.316C343.107 132.316 343.485 132.037 343.692 131.578H344.637C344.421 132.379 343.683 133.117 342.459 133.117C340.902 133.117 340.047 131.974 340.047 130.57C340.047 129.067 341.055 128.068 342.432 128.068C343.926 128.068 344.799 129.292 344.7 130.867H341.01C341.109 131.767 341.658 132.316 342.423 132.316ZM342.423 128.833C341.694 128.833 341.163 129.202 341.028 130.129H343.728C343.701 129.418 343.188 128.833 342.423 128.833ZM348.138 128.149V129.121C347.967 129.103 347.805 129.094 347.652 129.094C346.932 129.094 346.554 129.445 346.554 130.462V133H345.618V128.158H346.536V129.013C346.788 128.464 347.265 128.149 347.877 128.14C347.958 128.14 348.057 128.14 348.138 128.149ZM352.013 128.869V128.158H352.949V132.433C352.949 133.324 352.76 133.801 352.427 134.134C352.058 134.521 351.482 134.719 350.735 134.719C349.646 134.719 348.863 134.251 348.71 133.234H349.673C349.772 133.675 350.042 133.936 350.753 133.936C351.194 133.936 351.518 133.819 351.725 133.585C351.914 133.378 352.013 133.135 352.013 132.631V132.118C351.716 132.622 351.239 132.919 350.519 132.919C349.394 132.919 348.458 132.037 348.458 130.489C348.458 128.95 349.394 128.068 350.519 128.068C351.239 128.068 351.716 128.365 352.013 128.869ZM352.049 130.489C352.049 129.337 351.455 128.842 350.735 128.842C349.952 128.842 349.457 129.445 349.457 130.489C349.457 131.542 349.952 132.154 350.735 132.154C351.455 132.154 352.049 131.641 352.049 130.489Z" fill="#808080"/>
<path d="M170.179 248H193.263V257H249.179" stroke="#808080" stroke-miterlimit="10"/>
<path d="M204.547 90.4532C206.888 90.4532 208.786 92.3674 208.786 94.7293V154.773C208.786 155.559 208.477 156.314 207.926 156.875L197.985 166.997C197.361 167.633 196.51 167.96 195.623 167.887C186.363 167.122 133.162 162.71 120.147 161.193C118.246 160.972 116.728 159.492 116.442 157.583C115.1 148.606 110.619 111.738 109.675 103.95C109.563 103.02 109.894 102.117 110.566 101.464L121.024 91.3016C121.584 90.7575 122.334 90.4531 123.115 90.4531L204.547 90.4532Z" fill="#998B00" fill-opacity="0.6" stroke="#808080" stroke-miterlimit="10"/>
<rect x="108.662" y="100.809" width="89.766" height="68.1876" rx="4.31567" fill="#262626" stroke="#808080" stroke-miterlimit="10"/>
<rect x="117.552" y="111.852" width="5.0796" height="5.0796" rx="2.5398" fill="#262626" stroke="#808080" stroke-miterlimit="10"/>
<rect x="125.806" y="111.852" width="5.0796" height="5.0796" rx="2.5398" fill="#262626" stroke="#808080" stroke-miterlimit="10"/>
<rect x="134.061" y="111.852" width="5.0796" height="5.0796" rx="2.5398" fill="#262626" stroke="#808080" stroke-miterlimit="10"/>
<rect x="167.077" y="111.852" width="22.2232" height="5.0796" rx="2.5398" fill="#262626" stroke="#808080" stroke-miterlimit="10"/>
<rect x="117.552" y="132.809" width="5.0796" height="5.0796" rx="2.5398" fill="#262626" stroke="#808080" stroke-miterlimit="10"/>
<rect x="125.806" y="132.809" width="5.0796" height="5.0796" rx="2.5398" fill="#262626" stroke="#808080" stroke-miterlimit="10"/>
<rect x="134.061" y="132.809" width="5.0796" height="5.0796" rx="2.5398" fill="#262626" stroke="#808080" stroke-miterlimit="10"/>
<rect x="117.552" y="153.758" width="5.0796" height="5.0796" rx="2.5398" fill="#262626" stroke="#808080" stroke-miterlimit="10"/>
<rect x="125.806" y="153.758" width="5.0796" height="5.0796" rx="2.5398" fill="#262626" stroke="#808080" stroke-miterlimit="10"/>
<rect x="134.061" y="153.758" width="5.0796" height="5.0796" rx="2.5398" fill="#262626" stroke="#808080" stroke-miterlimit="10"/>
<path d="M109 147L198.5 147" stroke="#808080" stroke-miterlimit="10"/>
<line x1="108.662" y1="125.34" x2="198.428" y2="125.34" stroke="#808080" stroke-miterlimit="10"/>
<path d="M197.603 102.5L207.922 92.1797" stroke="#808080" stroke-miterlimit="10"/>
<path d="M178.426 159.595C171.346 159.595 165.629 153.878 165.629 146.798C165.629 139.718 171.346 134 178.426 134C185.506 134 191.224 139.718 191.224 146.798C191.224 153.878 185.506 159.595 178.426 159.595Z" fill="#262626" stroke="#808080" stroke-miterlimit="10" stroke-linecap="round"/>
<path d="M185.269 144.9H182.759V148.689H185.269C186.31 148.689 187.175 147.824 187.175 146.783C187.175 145.735 186.31 144.9 185.269 144.9Z" fill="#CCBD00" fill-opacity="0.6" stroke="#808080" stroke-miterlimit="10" stroke-linecap="round"/>
<path d="M170.459 146.836C170.459 149.778 172.839 152.174 175.763 152.174C178.687 152.174 181.068 149.778 181.068 146.836C181.068 143.894 178.687 141.499 175.763 141.499C172.839 141.499 170.459 143.894 170.459 146.836Z" fill="#CCBD00" fill-opacity="0.6" stroke="#808080" stroke-miterlimit="10" stroke-linecap="round"/>
</svg>
