<svg width="480" height="312" viewBox="0 0 480 312" fill="none" xmlns="http://www.w3.org/2000/svg">
<path d="M10 0.5H470C475.247 0.5 479.5 4.75329 479.5 10V302C479.5 307.247 475.247 311.5 470 311.5H10C4.7533 311.5 0.5 307.247 0.5 302V10C0.5 4.7533 4.75329 0.5 10 0.5Z" fill="#262626"/>
<path d="M10 0.5H470C475.247 0.5 479.5 4.75329 479.5 10V302C479.5 307.247 475.247 311.5 470 311.5H10C4.7533 311.5 0.5 307.247 0.5 302V10C0.5 4.7533 4.75329 0.5 10 0.5Z" fill="#1A1A1A"/>
<path d="M10 0.5H470C475.247 0.5 479.5 4.75329 479.5 10V302C479.5 307.247 475.247 311.5 470 311.5H10C4.7533 311.5 0.5 307.247 0.5 302V10C0.5 4.7533 4.75329 0.5 10 0.5Z" stroke="#4C4C4C"/>
<path d="M401.312 176.008H330.466C328.417 176.008 326.757 177.67 326.757 179.719V252.696C326.757 254.746 328.417 256.407 330.466 256.407H401.312C403.36 256.407 405.021 254.746 405.021 252.696V179.719C405.021 177.67 403.36 176.008 401.312 176.008Z" fill="#262626" stroke="#808080" stroke-miterlimit="10"/>
<path d="M330.501 176.008H401.347C403.396 176.008 405.056 177.668 405.056 179.719V195.274H326.792V179.719C326.792 177.668 328.451 176.008 330.501 176.008Z" fill="#262626" stroke="#808080" stroke-miterlimit="10"/>
<path d="M333.35 188.873C334.928 188.873 336.206 187.593 336.206 186.014C336.206 184.436 334.928 183.156 333.35 183.156C331.773 183.156 330.494 184.436 330.494 186.014C330.494 187.593 331.773 188.873 333.35 188.873Z" fill="#262626" stroke="#808080" stroke-miterlimit="10"/>
<path d="M341.945 188.873C343.522 188.873 344.801 187.593 344.801 186.014C344.801 184.436 343.522 183.156 341.945 183.156C340.368 183.156 339.089 184.436 339.089 186.014C339.089 187.593 340.368 188.873 341.945 188.873Z" fill="#262626" stroke="#808080" stroke-miterlimit="10"/>
<path d="M350.526 188.873C352.103 188.873 353.382 187.593 353.382 186.014C353.382 184.436 352.103 183.156 350.526 183.156C348.949 183.156 347.67 184.436 347.67 186.014C347.67 187.593 348.949 188.873 350.526 188.873Z" fill="#262626" stroke="#808080" stroke-miterlimit="10"/>
<path d="M225.695 72.7832C225.5 72.588 225.5 72.2714 225.695 72.0761L228.877 68.8942C229.073 68.6989 229.389 68.6989 229.584 68.8942C229.78 69.0894 229.78 69.406 229.584 69.6013L226.756 72.4297L229.584 75.2581C229.78 75.4534 229.78 75.77 229.584 75.9652C229.389 76.1605 229.073 76.1605 228.877 75.9652L225.695 72.7832ZM285.527 72.0761C285.722 72.2714 285.722 72.588 285.527 72.7832L282.345 75.9652C282.15 76.1605 281.833 76.1605 281.638 75.9652C281.443 75.77 281.443 75.4534 281.638 75.2581L284.466 72.4297L281.638 69.6013C281.443 69.406 281.443 69.0894 281.638 68.8942C281.833 68.6989 282.15 68.6989 282.345 68.8942L285.527 72.0761ZM226.049 72.4297L226.049 71.9297H285.174L285.174 72.4297L285.174 72.9297H226.049L226.049 72.4297Z" fill="#666666"/>
<path d="M138.743 130.641C139.009 130.57 139.283 130.728 139.355 130.995L140.519 135.342C140.591 135.608 140.433 135.883 140.166 135.954C139.899 136.025 139.625 135.867 139.553 135.6L138.518 131.737L134.655 132.772C134.388 132.843 134.114 132.685 134.042 132.418C133.971 132.151 134.129 131.877 134.396 131.806L138.743 130.641ZM123.801 157.932C123.535 158.004 123.26 157.845 123.189 157.579L122.024 153.232C121.953 152.965 122.111 152.691 122.378 152.62C122.645 152.548 122.919 152.706 122.99 152.973L124.025 156.837L127.889 155.802C128.156 155.73 128.43 155.889 128.502 156.155C128.573 156.422 128.415 156.696 128.148 156.768L123.801 157.932ZM138.872 131.124L139.305 131.374L124.105 157.699L123.672 157.449L123.239 157.199L138.439 130.874L138.872 131.124Z" fill="#666666"/>
<path d="M171.8 130.641C171.534 130.57 171.26 130.728 171.188 130.995L170.024 135.342C169.952 135.608 170.11 135.883 170.377 135.954C170.644 136.025 170.918 135.867 170.989 135.6L172.025 131.737L175.888 132.772C176.155 132.843 176.429 132.685 176.501 132.418C176.572 132.151 176.414 131.877 176.147 131.806L171.8 130.641ZM186.742 157.932C187.008 158.004 187.283 157.845 187.354 157.579L188.519 153.232C188.59 152.965 188.432 152.691 188.165 152.62C187.898 152.548 187.624 152.706 187.553 152.973L186.518 156.837L182.654 155.802C182.387 155.73 182.113 155.889 182.041 156.155C181.97 156.422 182.128 156.696 182.395 156.768L186.742 157.932ZM171.671 131.124L171.238 131.374L186.438 157.699L186.871 157.449L187.304 157.199L172.104 130.874L171.671 131.124Z" fill="#666666"/>
<path d="M349.606 130.641C349.339 130.57 349.065 130.728 348.994 130.995L347.829 135.342C347.758 135.608 347.916 135.883 348.183 135.954C348.45 136.025 348.724 135.867 348.795 135.6L349.83 131.737L353.694 132.772C353.961 132.843 354.235 132.685 354.306 132.418C354.378 132.151 354.22 131.877 353.953 131.806L349.606 130.641ZM364.547 157.932C364.814 158.004 365.088 157.845 365.16 157.579L366.324 153.232C366.396 152.965 366.237 152.691 365.971 152.62C365.704 152.548 365.43 152.706 365.358 152.973L364.323 156.837L360.459 155.802C360.193 155.73 359.919 155.889 359.847 156.155C359.776 156.422 359.934 156.696 360.201 156.768L364.547 157.932ZM349.477 131.124L349.044 131.374L364.244 157.699L364.677 157.449L365.11 157.199L349.91 130.874L349.477 131.124Z" fill="#666666"/>
<path d="M149.499 176.008H78.6532C76.6049 176.008 74.9443 177.67 74.9443 179.719V252.696C74.9443 254.746 76.6049 256.407 78.6532 256.407H149.499C151.548 256.407 153.208 254.746 153.208 252.696V179.719C153.208 177.67 151.548 176.008 149.499 176.008Z" fill="#262626" stroke="#808080" stroke-miterlimit="10"/>
<path d="M81.1787 201L89.1787 205.617L81.1787 210.236" stroke="#808080" stroke-miterlimit="10"/>
<path d="M91.6787 212H100.679" stroke="#808080" stroke-miterlimit="10"/>
<path d="M333.179 201L341.179 205.617L333.179 210.236" stroke="#808080" stroke-miterlimit="10"/>
<path d="M343.679 212H352.679" stroke="#808080" stroke-miterlimit="10"/>
<path d="M78.6532 176.008H149.499C151.549 176.008 153.208 177.668 153.208 179.719V195.274H74.9443V179.719C74.9443 177.668 76.6038 176.008 78.6532 176.008Z" fill="#262626" stroke="#808080" stroke-miterlimit="10"/>
<path d="M81.5025 188.873C83.0799 188.873 84.3586 187.593 84.3586 186.014C84.3586 184.436 83.0799 183.156 81.5025 183.156C79.9252 183.156 78.6465 184.436 78.6465 186.014C78.6465 187.593 79.9252 188.873 81.5025 188.873Z" fill="#262626" stroke="#808080" stroke-miterlimit="10"/>
<path d="M90.0973 188.873C91.6746 188.873 92.9533 187.593 92.9533 186.014C92.9533 184.436 91.6746 183.156 90.0973 183.156C88.5199 183.156 87.2412 184.436 87.2412 186.014C87.2412 187.593 88.5199 188.873 90.0973 188.873Z" fill="#262626" stroke="#808080" stroke-miterlimit="10"/>
<path d="M98.6783 188.873C100.256 188.873 101.534 187.593 101.534 186.014C101.534 184.436 100.256 183.156 98.6783 183.156C97.101 183.156 95.8223 184.436 95.8223 186.014C95.8223 187.593 97.101 188.873 98.6783 188.873Z" fill="#262626" stroke="#808080" stroke-miterlimit="10"/>
<path d="M245.252 176H173.793C171.727 176 170.052 177.654 170.052 179.693V252.307C170.052 254.346 171.727 256 173.793 256H245.252C247.318 256 248.993 254.346 248.993 252.307V179.693C248.993 177.654 247.318 176 245.252 176Z" fill="#262626" stroke="#808080" stroke-miterlimit="10"/>
<path d="M174.245 175H245.299C247.34 175 248.993 176.724 248.993 178.853V192H170.052V178.853C170.052 176.724 172.204 175 174.245 175Z" fill="#262626" stroke="#808080" stroke-miterlimit="10"/>
<path d="M177.905 186.716C179.482 186.716 180.761 185.437 180.761 183.858C180.761 182.28 179.482 181 177.905 181C176.328 181 175.049 182.28 175.049 183.858C175.049 185.437 176.328 186.716 177.905 186.716Z" fill="#262626" stroke="#808080" stroke-miterlimit="10"/>
<path d="M186.5 186.716C188.077 186.716 189.356 185.437 189.356 183.858C189.356 182.28 188.077 181 186.5 181C184.922 181 183.644 182.28 183.644 183.858C183.644 185.437 184.922 186.716 186.5 186.716Z" fill="#262626" stroke="#808080" stroke-miterlimit="10"/>
<path d="M195.081 186.716C196.658 186.716 197.937 185.437 197.937 183.858C197.937 182.28 196.658 181 195.081 181C193.503 181 192.225 182.28 192.225 183.858C192.225 185.437 193.503 186.716 195.081 186.716Z" fill="#262626" stroke="#808080" stroke-miterlimit="10"/>
<path d="M323.88 31.4912L304.023 65.3234C304.009 65.3483 304.008 65.3789 304.02 65.4049L323.895 106.158C323.906 106.181 323.927 106.198 323.951 106.204L337.503 109.776C337.525 109.782 337.544 109.796 337.555 109.816L343.458 119.873C343.491 119.93 343.573 119.93 343.607 119.873L353.574 102.89C353.593 102.857 353.633 102.841 353.67 102.851L362.624 105.211C362.663 105.221 362.703 105.203 362.722 105.168L383.974 65.4122C383.99 65.3824 383.987 65.346 383.966 65.3192L360.954 35.1722C360.947 35.163 360.938 35.1552 360.928 35.1495L348.191 27.9156C348.178 27.9081 348.167 27.8973 348.159 27.8843L343.607 20.1268C343.573 20.07 343.491 20.07 343.458 20.1268L335.125 34.325C335.105 34.3584 335.066 34.3747 335.028 34.3648L323.976 31.4515C323.939 31.4416 323.899 31.4579 323.88 31.4912Z" fill="#102F41" stroke="#808080" stroke-miterlimit="10"/>
<path d="M361 100L365 92" stroke="#808080" stroke-miterlimit="10" stroke-linecap="round"/>
<path d="M318 48L323 39" stroke="#808080" stroke-miterlimit="10" stroke-linecap="round"/>
<path d="M363 78L367 71" stroke="#808080" stroke-miterlimit="10" stroke-linecap="round"/>
<path d="M360 41L371 57" stroke="#808080" stroke-miterlimit="10" stroke-linecap="round"/>
<path d="M322 89L327 102" stroke="#808080" stroke-miterlimit="10" stroke-linecap="round"/>
<path d="M348 28L337 47" stroke="#808080" stroke-miterlimit="10" stroke-linecap="round"/>
<path d="M375 66L364.771 83.5789C364.57 83.9244 364.24 84.1753 363.853 84.2761L346.532 88.7871C346.024 88.9193 345.485 88.7767 345.108 88.4111L339.857 83.3071" stroke="#808080" stroke-miterlimit="10" stroke-linecap="round"/>
<path d="M359 66L348.682 51.5231C348.488 51.2503 348.208 51.0504 347.886 50.9553L331.93 46.2336C331.438 46.0881 330.906 46.2038 330.52 46.5404L320.613 55.1614C320.23 55.4941 320.042 55.9972 320.112 56.4992L321.43 66" stroke="#808080" stroke-miterlimit="10" stroke-linecap="round"/>
<path d="M338 110L351 88" stroke="#808080" stroke-miterlimit="10" stroke-linecap="round"/>
<path d="M296 66L394 66" stroke="#808080" stroke-miterlimit="10" stroke-linecap="round"/>
<path d="M323.18 70.475V77H322.154V70.475H323.18ZM326.54 72.068C327.647 72.068 328.493 72.851 328.637 73.796H327.701C327.602 73.247 327.107 72.869 326.495 72.869C325.82 72.869 325.199 73.4 325.199 74.579C325.199 75.776 325.82 76.316 326.495 76.316C327.098 76.316 327.602 75.965 327.737 75.389H328.682C328.484 76.406 327.548 77.117 326.477 77.117C325.073 77.117 324.2 76.055 324.2 74.588C324.2 73.157 325.109 72.068 326.54 72.068ZM331.648 76.316C332.332 76.316 332.71 76.037 332.917 75.578H333.862C333.646 76.379 332.908 77.117 331.684 77.117C330.127 77.117 329.272 75.974 329.272 74.57C329.272 73.067 330.28 72.068 331.657 72.068C333.151 72.068 334.024 73.292 333.925 74.867H330.235C330.334 75.767 330.883 76.316 331.648 76.316ZM331.648 72.833C330.919 72.833 330.388 73.202 330.253 74.129H332.953C332.926 73.418 332.413 72.833 331.648 72.833ZM335.743 74.588C335.743 75.785 336.355 76.334 337.075 76.334C337.858 76.334 338.38 75.677 338.38 74.588C338.38 73.499 337.858 72.851 337.075 72.851C336.355 72.851 335.743 73.391 335.743 74.588ZM334.843 70.475H335.779V72.869C336.076 72.365 336.571 72.068 337.291 72.068C338.416 72.068 339.379 73.004 339.379 74.588C339.379 76.172 338.416 77.117 337.291 77.117C336.571 77.117 336.076 76.82 335.779 76.316V77H334.843V70.475ZM342.423 76.316C343.107 76.316 343.485 76.037 343.692 75.578H344.637C344.421 76.379 343.683 77.117 342.459 77.117C340.902 77.117 340.047 75.974 340.047 74.57C340.047 73.067 341.055 72.068 342.432 72.068C343.926 72.068 344.799 73.292 344.7 74.867H341.01C341.109 75.767 341.658 76.316 342.423 76.316ZM342.423 72.833C341.694 72.833 341.163 73.202 341.028 74.129H343.728C343.701 73.418 343.188 72.833 342.423 72.833ZM348.138 72.149V73.121C347.967 73.103 347.805 73.094 347.652 73.094C346.932 73.094 346.554 73.445 346.554 74.462V77H345.618V72.158H346.536V73.013C346.788 72.464 347.265 72.149 347.877 72.14C347.958 72.14 348.057 72.14 348.138 72.149ZM352.013 72.869V72.158H352.949V76.433C352.949 77.324 352.76 77.801 352.427 78.134C352.058 78.521 351.482 78.719 350.735 78.719C349.646 78.719 348.863 78.251 348.71 77.234H349.673C349.772 77.675 350.042 77.936 350.753 77.936C351.194 77.936 351.518 77.819 351.725 77.585C351.914 77.378 352.013 77.135 352.013 76.631V76.118C351.716 76.622 351.239 76.919 350.519 76.919C349.394 76.919 348.458 76.037 348.458 74.489C348.458 72.95 349.394 72.068 350.519 72.068C351.239 72.068 351.716 72.365 352.013 72.869ZM352.049 74.489C352.049 73.337 351.455 72.842 350.735 72.842C349.952 72.842 349.457 73.445 349.457 74.489C349.457 75.542 349.952 76.154 350.735 76.154C351.455 76.154 352.049 75.641 352.049 74.489Z" fill="#808080"/>
<path d="M170.179 192H193.263V201H249.179" stroke="#808080" stroke-miterlimit="10"/>
<path d="M204.547 34.4532C206.888 34.4532 208.786 36.3674 208.786 38.7293V98.7732C208.786 99.5594 208.477 100.314 207.926 100.875L197.985 110.997C197.361 111.633 196.51 111.96 195.623 111.887C186.363 111.122 133.162 106.71 120.147 105.193C118.246 104.972 116.728 103.492 116.442 101.583C115.1 92.6055 110.619 55.7385 109.675 47.9495C109.563 47.0198 109.894 46.117 110.566 45.4643L121.024 35.3016C121.584 34.7575 122.334 34.4531 123.115 34.4531L204.547 34.4532Z" fill="#666666" stroke="#808080" stroke-miterlimit="10"/>
<rect x="108.662" y="44.8086" width="89.766" height="68.1876" rx="4.31567" fill="#262626" stroke="#808080" stroke-miterlimit="10"/>
<rect x="117.552" y="55.8516" width="5.0796" height="5.0796" rx="2.5398" fill="#262626" stroke="#808080" stroke-miterlimit="10"/>
<rect x="125.806" y="55.8516" width="5.0796" height="5.0796" rx="2.5398" fill="#262626" stroke="#808080" stroke-miterlimit="10"/>
<rect x="134.061" y="55.8516" width="5.0796" height="5.0796" rx="2.5398" fill="#262626" stroke="#808080" stroke-miterlimit="10"/>
<rect x="167.077" y="55.8516" width="22.2232" height="5.0796" rx="2.5398" fill="#262626" stroke="#808080" stroke-miterlimit="10"/>
<rect x="117.552" y="76.8086" width="5.0796" height="5.0796" rx="2.5398" fill="#262626" stroke="#808080" stroke-miterlimit="10"/>
<rect x="125.806" y="76.8086" width="5.0796" height="5.0796" rx="2.5398" fill="#262626" stroke="#808080" stroke-miterlimit="10"/>
<rect x="134.061" y="76.8086" width="5.0796" height="5.0796" rx="2.5398" fill="#262626" stroke="#808080" stroke-miterlimit="10"/>
<rect x="117.552" y="97.7578" width="5.0796" height="5.0796" rx="2.5398" fill="#262626" stroke="#808080" stroke-miterlimit="10"/>
<rect x="125.806" y="97.7578" width="5.0796" height="5.0796" rx="2.5398" fill="#262626" stroke="#808080" stroke-miterlimit="10"/>
<rect x="134.061" y="97.7578" width="5.0796" height="5.0796" rx="2.5398" fill="#262626" stroke="#808080" stroke-miterlimit="10"/>
<path d="M109 91L198.5 91" stroke="#808080" stroke-miterlimit="10"/>
<line x1="108.662" y1="69.3398" x2="198.428" y2="69.3398" stroke="#808080" stroke-miterlimit="10"/>
<path d="M197.603 46.5L207.922 36.1797" stroke="#808080" stroke-miterlimit="10"/>
<path d="M136.993 278.796H136.057C135.958 278.247 135.463 277.869 134.851 277.869C134.176 277.869 133.555 278.4 133.555 279.579C133.555 280.776 134.185 281.316 134.851 281.316C135.445 281.316 135.967 280.965 136.093 280.389H137.038C136.849 281.406 135.904 282.117 134.833 282.117C133.438 282.117 132.556 281.046 132.556 279.588C132.556 278.148 133.465 277.068 134.896 277.068C136.003 277.068 136.849 277.851 136.993 278.796ZM138.853 282H137.917V275.475H138.853V282ZM141.05 275.475V276.51H140.114V275.475H141.05ZM141.05 277.158V282H140.114V277.158H141.05ZM145.623 280.578H146.568C146.343 281.379 145.623 282.117 144.39 282.117C142.824 282.117 141.978 280.974 141.978 279.57C141.978 278.067 142.986 277.068 144.363 277.068C145.857 277.068 146.73 278.292 146.631 279.867H142.941C143.031 280.758 143.598 281.316 144.354 281.316C145.029 281.316 145.425 281.037 145.623 280.578ZM142.959 279.129H145.659C145.632 278.409 145.128 277.833 144.354 277.833C143.625 277.833 143.085 278.211 142.959 279.129ZM148.485 277.86C148.764 277.383 149.25 277.068 150.006 277.068C151.176 277.068 151.626 277.824 151.626 278.949V282H150.69V279.201C150.69 278.499 150.573 277.851 149.691 277.851C148.881 277.851 148.485 278.436 148.485 279.399V282H147.549V277.158H148.485V277.86ZM152.986 275.916H153.922V277.158H154.876V277.869H153.922V280.632C153.922 281.127 154.003 281.253 154.471 281.253H154.867V282H154.183C153.202 282 152.986 281.757 152.986 280.758V277.869H152.248V277.158H152.986V275.916ZM155.294 279.984V279.12H159.254V279.984H155.294ZM163.039 278.508C162.904 278.013 162.49 277.815 161.941 277.815C161.482 277.815 160.987 278.004 160.987 278.4C160.987 278.76 161.221 278.913 161.662 279.003L162.355 279.138C163.273 279.318 164.074 279.633 164.074 280.578C164.074 281.559 163.156 282.117 162.04 282.117C160.816 282.117 160.069 281.406 159.952 280.497H160.906C161.032 281.046 161.392 281.37 162.067 281.37C162.67 281.37 163.138 281.118 163.138 280.686C163.138 280.236 162.715 280.056 162.211 279.957L161.482 279.813C160.753 279.669 160.069 279.345 160.069 278.436C160.069 277.581 160.969 277.059 162.031 277.059C163.003 277.059 163.786 277.572 163.966 278.508H163.039ZM168.325 280.578H169.27C169.045 281.379 168.325 282.117 167.092 282.117C165.526 282.117 164.68 280.974 164.68 279.57C164.68 278.067 165.688 277.068 167.065 277.068C168.559 277.068 169.432 278.292 169.333 279.867H165.643C165.733 280.758 166.3 281.316 167.056 281.316C167.731 281.316 168.127 281.037 168.325 280.578ZM165.661 279.129H168.361C168.334 278.409 167.83 277.833 167.056 277.833C166.327 277.833 165.787 278.211 165.661 279.129ZM172.772 278.121C172.601 278.103 172.439 278.094 172.286 278.094C171.566 278.094 171.188 278.445 171.188 279.462V282H170.252V277.158H171.17V278.013C171.422 277.464 171.908 277.149 172.511 277.14C172.592 277.14 172.691 277.14 172.772 277.149V278.121ZM175.141 280.749L176.356 277.158H177.328L175.537 282H174.682L172.882 277.158H173.917L175.141 280.749ZM181.184 280.578H182.129C181.904 281.379 181.184 282.117 179.951 282.117C178.385 282.117 177.539 280.974 177.539 279.57C177.539 278.067 178.547 277.068 179.924 277.068C181.418 277.068 182.291 278.292 182.192 279.867H178.502C178.592 280.758 179.159 281.316 179.915 281.316C180.59 281.316 180.986 281.037 181.184 280.578ZM178.52 279.129H181.22C181.193 278.409 180.689 277.833 179.915 277.833C179.186 277.833 178.646 278.211 178.52 279.129ZM185.63 278.121C185.459 278.103 185.297 278.094 185.144 278.094C184.424 278.094 184.046 278.445 184.046 279.462V282H183.11V277.158H184.028V278.013C184.28 277.464 184.766 277.149 185.369 277.14C185.45 277.14 185.549 277.14 185.63 277.149V278.121Z" fill="#B2B2B2"/>
<path d="M331.879 278.796H330.943C330.844 278.247 330.349 277.869 329.737 277.869C329.062 277.869 328.441 278.4 328.441 279.579C328.441 280.776 329.071 281.316 329.737 281.316C330.331 281.316 330.853 280.965 330.979 280.389H331.924C331.735 281.406 330.79 282.117 329.719 282.117C328.324 282.117 327.442 281.046 327.442 279.588C327.442 278.148 328.351 277.068 329.782 277.068C330.889 277.068 331.735 277.851 331.879 278.796ZM333.738 282H332.802V275.475H333.738V282ZM335.936 275.475V276.51H335V275.475H335.936ZM335.936 277.158V282H335V277.158H335.936ZM340.509 280.578H341.454C341.229 281.379 340.509 282.117 339.276 282.117C337.71 282.117 336.864 280.974 336.864 279.57C336.864 278.067 337.872 277.068 339.249 277.068C340.743 277.068 341.616 278.292 341.517 279.867H337.827C337.917 280.758 338.484 281.316 339.24 281.316C339.915 281.316 340.311 281.037 340.509 280.578ZM337.845 279.129H340.545C340.518 278.409 340.014 277.833 339.24 277.833C338.511 277.833 337.971 278.211 337.845 279.129ZM343.371 277.86C343.65 277.383 344.136 277.068 344.892 277.068C346.062 277.068 346.512 277.824 346.512 278.949V282H345.576V279.201C345.576 278.499 345.459 277.851 344.577 277.851C343.767 277.851 343.371 278.436 343.371 279.399V282H342.435V277.158H343.371V277.86ZM347.871 275.916H348.807V277.158H349.761V277.869H348.807V280.632C348.807 281.127 348.888 281.253 349.356 281.253H349.752V282H349.068C348.087 282 347.871 281.757 347.871 280.758V277.869H347.133V277.158H347.871V275.916ZM350.27 279.984V279.12H353.168V279.984H350.27ZM355.149 275.475V276.51H354.213V275.475H355.149ZM355.149 277.158V282H354.213V277.158H355.149ZM359.164 278.508C359.029 278.013 358.615 277.815 358.066 277.815C357.607 277.815 357.112 278.004 357.112 278.4C357.112 278.76 357.346 278.913 357.787 279.003L358.48 279.138C359.398 279.318 360.199 279.633 360.199 280.578C360.199 281.559 359.281 282.117 358.165 282.117C356.941 282.117 356.194 281.406 356.077 280.497H357.031C357.157 281.046 357.517 281.37 358.192 281.37C358.795 281.37 359.263 281.118 359.263 280.686C359.263 280.236 358.84 280.056 358.336 279.957L357.607 279.813C356.878 279.669 356.194 279.345 356.194 278.436C356.194 277.581 357.094 277.059 358.156 277.059C359.128 277.059 359.911 277.572 360.091 278.508H359.164ZM361.001 279.984V279.12H363.899V279.984H361.001ZM365.045 275.916H365.981V277.158H366.935V277.869H365.981V280.632C365.981 281.127 366.062 281.253 366.53 281.253H366.926V282H366.242C365.261 282 365.045 281.757 365.045 280.758V277.869H364.307V277.158H365.045V275.916ZM368.868 277.86C369.147 277.383 369.633 277.068 370.389 277.068C371.559 277.068 372.009 277.824 372.009 278.949V282H371.073V279.201C371.073 278.499 370.956 277.851 370.074 277.851C369.264 277.851 368.868 278.436 368.868 279.399V282H367.932V275.475H368.868V277.86ZM376.491 280.578H377.436C377.211 281.379 376.491 282.117 375.258 282.117C373.692 282.117 372.846 280.974 372.846 279.57C372.846 278.067 373.854 277.068 375.231 277.068C376.725 277.068 377.598 278.292 377.499 279.867H373.809C373.899 280.758 374.466 281.316 375.222 281.316C375.897 281.316 376.293 281.037 376.491 280.578ZM373.827 279.129H376.527C376.5 278.409 375.996 277.833 375.222 277.833C374.493 277.833 373.953 278.211 373.827 279.129ZM378.368 279.984V279.12H381.266V279.984H378.368ZM385.153 278.508C385.018 278.013 384.604 277.815 384.055 277.815C383.596 277.815 383.101 278.004 383.101 278.4C383.101 278.76 383.335 278.913 383.776 279.003L384.469 279.138C385.387 279.318 386.188 279.633 386.188 280.578C386.188 281.559 385.27 282.117 384.154 282.117C382.93 282.117 382.183 281.406 382.066 280.497H383.02C383.146 281.046 383.506 281.37 384.181 281.37C384.784 281.37 385.252 281.118 385.252 280.686C385.252 280.236 384.829 280.056 384.325 279.957L383.596 279.813C382.867 279.669 382.183 279.345 382.183 278.436C382.183 277.581 383.083 277.059 384.145 277.059C385.117 277.059 385.9 277.572 386.08 278.508H385.153ZM390.44 280.578H391.385C391.16 281.379 390.44 282.117 389.207 282.117C387.641 282.117 386.795 280.974 386.795 279.57C386.795 278.067 387.803 277.068 389.18 277.068C390.674 277.068 391.547 278.292 391.448 279.867H387.758C387.848 280.758 388.415 281.316 389.171 281.316C389.846 281.316 390.242 281.037 390.44 280.578ZM387.776 279.129H390.476C390.449 278.409 389.945 277.833 389.171 277.833C388.442 277.833 387.902 278.211 387.776 279.129ZM394.886 278.121C394.715 278.103 394.553 278.094 394.4 278.094C393.68 278.094 393.302 278.445 393.302 279.462V282H392.366V277.158H393.284V278.013C393.536 277.464 394.022 277.149 394.625 277.14C394.706 277.14 394.805 277.14 394.886 277.149V278.121ZM397.256 280.749L398.471 277.158H399.443L397.652 282H396.797L394.997 277.158H396.032L397.256 280.749ZM403.298 280.578H404.243C404.018 281.379 403.298 282.117 402.065 282.117C400.499 282.117 399.653 280.974 399.653 279.57C399.653 278.067 400.661 277.068 402.038 277.068C403.532 277.068 404.405 278.292 404.306 279.867H400.616C400.706 280.758 401.273 281.316 402.029 281.316C402.704 281.316 403.1 281.037 403.298 280.578ZM400.634 279.129H403.334C403.307 278.409 402.803 277.833 402.029 277.833C401.3 277.833 400.76 278.211 400.634 279.129ZM407.744 278.121C407.573 278.103 407.411 278.094 407.258 278.094C406.538 278.094 406.16 278.445 406.16 279.462V282H405.224V277.158H406.142V278.013C406.394 277.464 406.88 277.149 407.483 277.14C407.564 277.14 407.663 277.14 407.744 277.149V278.121Z" fill="#B2B2B2"/>
</svg>
