<svg width="481" height="353" viewBox="0 0 481 353" fill="none" xmlns="http://www.w3.org/2000/svg">
<path d="M10 0.5H470.357C475.604 0.500049 479.857 4.75333 479.857 10V342.407C479.857 347.654 475.604 351.907 470.357 351.907H10C4.7533 351.907 0.5 347.654 0.5 342.407V10L0.512695 9.51074C0.767344 4.49142 4.9174 0.5 10 0.5Z" fill="#262626"/>
<path d="M10 0.5H470.357C475.604 0.500049 479.857 4.75333 479.857 10V342.407C479.857 347.654 475.604 351.907 470.357 351.907H10C4.7533 351.907 0.5 347.654 0.5 342.407V10L0.512695 9.51074C0.767344 4.49142 4.9174 0.5 10 0.5Z" fill="#1A1A1A"/>
<path d="M10 0.5H470.357C475.604 0.500049 479.857 4.75333 479.857 10V342.407C479.857 347.654 475.604 351.907 470.357 351.907H10C4.7533 351.907 0.5 347.654 0.5 342.407V10L0.512695 9.51074C0.767344 4.49142 4.9174 0.5 10 0.5Z" stroke="#4C4C4C"/>
<path d="M152.94 23.4V35H150.652V23.4H152.94ZM158.755 26.2C160.563 26.2 162.355 27.208 162.659 29.336H160.547C160.371 28.504 159.603 27.912 158.755 27.912C157.603 27.912 156.691 28.888 156.691 30.68C156.691 32.488 157.555 33.496 158.771 33.496C159.539 33.496 160.323 33.096 160.627 32.072H162.739C162.227 34.424 160.451 35.208 158.659 35.208C156.083 35.208 154.435 33.32 154.435 30.712C154.435 28.088 156.179 26.2 158.755 26.2ZM172.136 31.304H165.784C165.912 32.776 166.904 33.496 167.96 33.496C168.648 33.496 169.32 33.256 169.768 32.504H172.04C171.576 33.784 170.328 35.208 167.976 35.208C165.208 35.208 163.592 33.144 163.592 30.664C163.592 28.104 165.368 26.2 167.912 26.2C170.568 26.2 172.216 28.264 172.136 31.304ZM167.896 27.816C167.064 27.816 165.992 28.328 165.816 29.784H169.896C169.848 28.328 168.824 27.816 167.896 27.816ZM177.718 33.512C178.87 33.512 179.686 32.392 179.686 30.712C179.686 29.032 178.87 27.896 177.718 27.896C176.502 27.896 175.702 28.968 175.702 30.696C175.702 32.472 176.502 33.512 177.718 33.512ZM175.782 35H173.574V23.4H175.782V27.496C176.246 26.68 177.174 26.2 178.262 26.2C180.342 26.2 182.006 27.992 182.006 30.696C182.006 33.448 180.31 35.208 178.262 35.208C177.366 35.208 176.342 34.872 175.782 33.912V35ZM191.558 31.304H185.206C185.334 32.776 186.326 33.496 187.382 33.496C188.07 33.496 188.742 33.256 189.19 32.504H191.462C190.998 33.784 189.75 35.208 187.398 35.208C184.63 35.208 183.014 33.144 183.014 30.664C183.014 28.104 184.79 26.2 187.334 26.2C189.99 26.2 191.638 28.264 191.558 31.304ZM187.318 27.816C186.486 27.816 185.414 28.328 185.238 29.784H189.318C189.27 28.328 188.246 27.816 187.318 27.816ZM197.925 26.44V28.52C197.605 28.472 197.333 28.472 197.013 28.472C195.925 28.472 195.205 28.872 195.205 30.488V35H192.997V26.392H195.173V27.896C195.669 26.824 196.437 26.408 197.445 26.408C197.589 26.408 197.781 26.424 197.925 26.44ZM202.819 33.016C204.051 33.016 204.803 31.976 204.803 30.44C204.803 28.92 204.051 27.88 202.819 27.88C201.683 27.88 200.835 29.016 200.835 30.456C200.835 31.88 201.683 33.016 202.819 33.016ZM204.723 26.392H206.915V34.136C206.915 36.952 205.331 38.008 202.691 38.008C200.851 38.008 199.235 37.336 198.931 35.336H201.027C201.219 36.04 201.811 36.392 202.803 36.392C203.955 36.392 204.723 35.848 204.723 34.552V33.4C204.163 34.344 203.155 34.696 202.259 34.696C200.147 34.696 198.515 32.952 198.515 30.44C198.515 27.992 200.099 26.2 202.259 26.2C203.347 26.2 204.339 26.76 204.723 27.512V26.392ZM211.568 35L215.888 23.4H218.192L222.528 35H220.048L219.232 32.648H214.72L213.904 35H211.568ZM216.976 26.2L215.376 30.776H218.576L216.976 26.2ZM225.737 26.392V27.528C226.233 26.648 227.161 26.2 228.233 26.2C230.297 26.2 231.209 27.448 231.209 29.576V35H229.001V30.056C229.001 28.952 228.761 27.976 227.513 27.976C226.057 27.976 225.737 29.16 225.737 30.52V35H223.529V26.392H225.737ZM238.453 31.704V31.064C235.973 31.32 234.997 31.608 234.997 32.568C234.997 33.192 235.477 33.704 236.485 33.704C237.877 33.704 238.453 32.968 238.453 31.704ZM238.645 33.928C238.021 34.824 237.125 35.208 235.829 35.208C234.181 35.208 232.725 34.248 232.725 32.68C232.725 30.648 234.997 30.04 238.389 29.656V29.512C238.389 28.184 237.669 27.72 236.773 27.72C235.925 27.72 235.221 28.152 235.173 29.112H233.109C233.285 27.416 234.661 26.168 236.885 26.168C238.917 26.168 240.597 27.064 240.597 29.96C240.597 30.216 240.565 31.384 240.565 32.152C240.565 33.512 240.645 34.28 240.821 35H238.789C238.725 34.728 238.693 34.36 238.645 33.928ZM244.66 23.4V35H242.452V23.4H244.66ZM247.519 37.8H246.591V36.104H247.423C248.159 36.104 248.479 36.12 248.863 35.208L248.959 34.968L245.663 26.392H248.079L250.031 32.6L252.031 26.392H254.271L251.119 34.744C250.095 37.416 249.663 37.8 247.519 37.8ZM255.585 26.392V24.056H257.793V26.392H259.585V27.912H257.793V32.36C257.793 33.24 258.097 33.416 258.881 33.416H259.553V35H257.937C255.953 35 255.585 34.392 255.585 32.68V27.912H254.369V26.392H255.585ZM261.016 26.392H263.224V35H261.016V26.392ZM261.016 23.4H263.224V25.448H261.016V23.4ZM268.979 26.2C270.787 26.2 272.579 27.208 272.883 29.336H270.771C270.595 28.504 269.827 27.912 268.979 27.912C267.827 27.912 266.915 28.888 266.915 30.68C266.915 32.488 267.779 33.496 268.995 33.496C269.763 33.496 270.547 33.096 270.851 32.072H272.963C272.451 34.424 270.675 35.208 268.883 35.208C266.307 35.208 264.659 33.32 264.659 30.712C264.659 28.088 266.403 26.2 268.979 26.2ZM281.303 28.984H279.239C279.063 28.264 278.423 27.752 277.399 27.752C276.583 27.752 276.007 28.056 276.007 28.584C276.007 29.048 276.343 29.4 277.159 29.576L278.311 29.832C280.023 30.216 281.479 30.648 281.479 32.424C281.479 34.152 279.703 35.208 277.751 35.208C275.639 35.208 274.039 34.12 273.831 32.152H275.959C276.087 32.984 276.663 33.608 277.815 33.608C278.775 33.608 279.367 33.256 279.367 32.632C279.367 31.992 278.711 31.752 277.959 31.576L276.679 31.304C275.063 30.968 273.991 30.296 273.991 28.728C273.991 27.192 275.655 26.168 277.511 26.168C279.303 26.168 280.999 27 281.303 28.984ZM289.157 35V25.256H285.589V23.4H295.029V25.256H291.445V35H289.157ZM298.168 27.928C296.952 27.928 296.088 28.904 296.088 30.712C296.088 32.52 296.952 33.48 298.168 33.48C299.384 33.48 300.248 32.52 300.248 30.712C300.248 28.904 299.384 27.928 298.168 27.928ZM298.168 35.208C295.992 35.208 293.848 33.72 293.848 30.712C293.848 27.688 295.992 26.2 298.168 26.2C300.344 26.2 302.488 27.688 302.488 30.712C302.488 33.72 300.344 35.208 298.168 35.208ZM311.905 35H309.697V33.912C309.137 34.872 308.113 35.208 307.217 35.208C305.169 35.208 303.473 33.448 303.473 30.696C303.473 27.992 305.137 26.2 307.217 26.2C308.305 26.2 309.233 26.68 309.697 27.496V23.4H311.905V35ZM307.761 33.512C308.977 33.512 309.777 32.472 309.777 30.696C309.777 28.968 308.977 27.896 307.761 27.896C306.609 27.896 305.793 29.032 305.793 30.712C305.793 32.392 306.609 33.512 307.761 33.512ZM319.285 31.704V31.064C316.805 31.32 315.829 31.608 315.829 32.568C315.829 33.192 316.309 33.704 317.317 33.704C318.709 33.704 319.285 32.968 319.285 31.704ZM319.477 33.928C318.853 34.824 317.957 35.208 316.661 35.208C315.013 35.208 313.557 34.248 313.557 32.68C313.557 30.648 315.829 30.04 319.221 29.656V29.512C319.221 28.184 318.501 27.72 317.605 27.72C316.757 27.72 316.053 28.152 316.005 29.112H313.941C314.117 27.416 315.493 26.168 317.717 26.168C319.749 26.168 321.429 27.064 321.429 29.96C321.429 30.216 321.397 31.384 321.397 32.152C321.397 33.512 321.477 34.28 321.653 35H319.621C319.557 34.728 319.525 34.36 319.477 33.928ZM323.992 37.8H323.064V36.104H323.896C324.632 36.104 324.952 36.12 325.336 35.208L325.432 34.968L322.136 26.392H324.552L326.504 32.6L328.504 26.392H330.744L327.592 34.744C326.568 37.416 326.136 37.8 323.992 37.8Z" fill="#F2F2F2"/>
<path d="M401.61 232.008H330.712C328.662 232.008 327 233.67 327 235.719V308.696C327 310.746 328.662 312.407 330.712 312.407H401.61C403.66 312.407 405.322 310.746 405.322 308.696V235.719C405.322 233.67 403.66 232.008 401.61 232.008Z" fill="#262626" stroke="#808080" stroke-miterlimit="10"/>
<path d="M330.747 232.008H401.646C403.697 232.008 405.357 233.668 405.357 235.719V251.274H327.035V235.719C327.035 233.668 328.696 232.008 330.747 232.008Z" fill="#262626" stroke="#808080" stroke-miterlimit="10"/>
<path d="M333.598 244.873C335.177 244.873 336.457 243.593 336.457 242.014C336.457 240.436 335.177 239.156 333.598 239.156C332.02 239.156 330.74 240.436 330.74 242.014C330.74 243.593 332.02 244.873 333.598 244.873Z" fill="#262626" stroke="#808080" stroke-miterlimit="10"/>
<path d="M342.199 244.873C343.778 244.873 345.057 243.593 345.057 242.014C345.057 240.436 343.778 239.156 342.199 239.156C340.62 239.156 339.341 240.436 339.341 242.014C339.341 243.593 340.62 244.873 342.199 244.873Z" fill="#262626" stroke="#808080" stroke-miterlimit="10"/>
<path d="M350.787 244.873C352.365 244.873 353.645 243.593 353.645 242.014C353.645 240.436 352.365 239.156 350.787 239.156C349.208 239.156 347.929 240.436 347.929 242.014C347.929 243.593 349.208 244.873 350.787 244.873Z" fill="#262626" stroke="#808080" stroke-miterlimit="10"/>
<path d="M225.695 128.783C225.5 128.588 225.5 128.271 225.695 128.076L228.877 124.894C229.073 124.699 229.389 124.699 229.584 124.894C229.78 125.089 229.78 125.406 229.584 125.601L226.756 128.43L229.584 131.258C229.78 131.453 229.78 131.77 229.584 131.965C229.389 132.16 229.073 132.16 228.877 131.965L225.695 128.783ZM285.527 128.076C285.722 128.271 285.722 128.588 285.527 128.783L282.345 131.965C282.15 132.16 281.833 132.16 281.638 131.965C281.443 131.77 281.443 131.453 281.638 131.258L284.466 128.43L281.638 125.601C281.443 125.406 281.443 125.089 281.638 124.894C281.833 124.699 282.15 124.699 282.345 124.894L285.527 128.076ZM226.049 128.43L226.049 127.93H285.174L285.174 128.43L285.174 128.93H226.049L226.049 128.43Z" fill="#666666"/>
<path d="M138.743 186.641C139.009 186.57 139.283 186.728 139.355 186.995L140.519 191.342C140.591 191.608 140.433 191.883 140.166 191.954C139.899 192.025 139.625 191.867 139.553 191.6L138.518 187.737L134.655 188.772C134.388 188.843 134.114 188.685 134.042 188.418C133.971 188.151 134.129 187.877 134.396 187.806L138.743 186.641ZM123.801 213.932C123.535 214.004 123.26 213.845 123.189 213.579L122.024 209.232C121.953 208.965 122.111 208.691 122.378 208.62C122.645 208.548 122.919 208.706 122.99 208.973L124.025 212.837L127.889 211.802C128.156 211.73 128.43 211.889 128.502 212.155C128.573 212.422 128.415 212.696 128.148 212.768L123.801 213.932ZM138.872 187.124L139.305 187.374L124.105 213.699L123.672 213.449L123.239 213.199L138.439 186.874L138.872 187.124Z" fill="#666666"/>
<path d="M171.8 186.641C171.534 186.57 171.26 186.728 171.188 186.995L170.024 191.342C169.952 191.608 170.11 191.883 170.377 191.954C170.644 192.025 170.918 191.867 170.989 191.6L172.025 187.737L175.888 188.772C176.155 188.843 176.429 188.685 176.501 188.418C176.572 188.151 176.414 187.877 176.147 187.806L171.8 186.641ZM186.742 213.932C187.008 214.004 187.283 213.845 187.354 213.579L188.519 209.232C188.59 208.965 188.432 208.691 188.165 208.62C187.898 208.548 187.624 208.706 187.553 208.973L186.518 212.837L182.654 211.802C182.387 211.73 182.113 211.889 182.041 212.155C181.97 212.422 182.128 212.696 182.395 212.768L186.742 213.932ZM171.671 187.124L171.238 187.374L186.438 213.699L186.871 213.449L187.304 213.199L172.104 186.874L171.671 187.124Z" fill="#666666"/>
<path d="M349.606 186.641C349.339 186.57 349.065 186.728 348.994 186.995L347.829 191.342C347.758 191.608 347.916 191.883 348.183 191.954C348.45 192.025 348.724 191.867 348.795 191.6L349.83 187.737L353.694 188.772C353.961 188.843 354.235 188.685 354.306 188.418C354.378 188.151 354.22 187.877 353.953 187.806L349.606 186.641ZM364.547 213.932C364.814 214.004 365.088 213.845 365.16 213.579L366.324 209.232C366.396 208.965 366.237 208.691 365.971 208.62C365.704 208.548 365.43 208.706 365.358 208.973L364.323 212.837L360.459 211.802C360.193 211.73 359.919 211.889 359.847 212.155C359.776 212.422 359.934 212.696 360.201 212.768L364.547 213.932ZM349.477 187.124L349.044 187.374L364.244 213.699L364.677 213.449L365.11 213.199L349.91 186.874L349.477 187.124Z" fill="#666666"/>
<path d="M149.61 232.008H78.7117C76.6618 232.008 75 233.67 75 235.719V308.696C75 310.746 76.6618 312.407 78.7117 312.407H149.61C151.66 312.407 153.322 310.746 153.322 308.696V235.719C153.322 233.67 151.66 232.008 149.61 232.008Z" fill="#262626" stroke="#808080" stroke-miterlimit="10"/>
<path d="M81.1787 257L89.1787 261.617L81.1787 266.236" stroke="#808080" stroke-miterlimit="10"/>
<path d="M91.6787 268H100.679" stroke="#808080" stroke-miterlimit="10"/>
<path d="M333.179 257L341.179 261.617L333.179 266.236" stroke="#808080" stroke-miterlimit="10"/>
<path d="M343.679 268H352.679" stroke="#808080" stroke-miterlimit="10"/>
<path d="M78.7117 232.008H149.61C151.662 232.008 153.322 233.668 153.322 235.719V251.274H75V235.719C75 233.668 76.6607 232.008 78.7117 232.008Z" fill="#262626" stroke="#808080" stroke-miterlimit="10"/>
<path d="M81.5633 244.873C83.1418 244.873 84.4214 243.593 84.4214 242.014C84.4214 240.436 83.1418 239.156 81.5633 239.156C79.9847 239.156 78.7051 240.436 78.7051 242.014C78.7051 243.593 79.9847 244.873 81.5633 244.873Z" fill="#262626" stroke="#808080" stroke-miterlimit="10"/>
<path d="M90.1638 244.873C91.7424 244.873 93.022 243.593 93.022 242.014C93.022 240.436 91.7424 239.156 90.1638 239.156C88.5853 239.156 87.3057 240.436 87.3057 242.014C87.3057 243.593 88.5853 244.873 90.1638 244.873Z" fill="#262626" stroke="#808080" stroke-miterlimit="10"/>
<path d="M98.7517 244.873C100.33 244.873 101.61 243.593 101.61 242.014C101.61 240.436 100.33 239.156 98.7517 239.156C97.1732 239.156 95.8936 240.436 95.8936 242.014C95.8936 243.593 97.1732 244.873 98.7517 244.873Z" fill="#262626" stroke="#808080" stroke-miterlimit="10"/>
<path d="M245.435 232H173.923C171.855 232 170.179 233.654 170.179 235.693V308.307C170.179 310.346 171.855 312 173.923 312H245.435C247.503 312 249.179 310.346 249.179 308.307V235.693C249.179 233.654 247.503 232 245.435 232Z" fill="#262626" stroke="#808080" stroke-miterlimit="10"/>
<path d="M174.375 231H245.482C247.525 231 249.179 232.724 249.179 234.853V248H170.179V234.853C170.179 232.724 172.333 231 174.375 231Z" fill="#262626" stroke="#808080" stroke-miterlimit="10"/>
<path d="M178.037 242.716C179.615 242.716 180.895 241.437 180.895 239.858C180.895 238.28 179.615 237 178.037 237C176.458 237 175.179 238.28 175.179 239.858C175.179 241.437 176.458 242.716 178.037 242.716Z" fill="#262626" stroke="#808080" stroke-miterlimit="10"/>
<path d="M186.637 242.716C188.216 242.716 189.496 241.437 189.496 239.858C189.496 238.28 188.216 237 186.637 237C185.059 237 183.779 238.28 183.779 239.858C183.779 241.437 185.059 242.716 186.637 242.716Z" fill="#262626" stroke="#808080" stroke-miterlimit="10"/>
<path d="M195.225 242.716C196.804 242.716 198.084 241.437 198.084 239.858C198.084 238.28 196.804 237 195.225 237C193.647 237 192.367 238.28 192.367 239.858C192.367 241.437 193.647 242.716 195.225 242.716Z" fill="#262626" stroke="#808080" stroke-miterlimit="10"/>
<path d="M323.88 87.4912L304.023 121.323C304.009 121.348 304.008 121.379 304.02 121.405L323.895 162.158C323.906 162.181 323.927 162.198 323.951 162.204L337.503 165.776C337.525 165.782 337.544 165.796 337.555 165.816L343.458 175.873C343.491 175.93 343.573 175.93 343.607 175.873L353.574 158.89C353.593 158.857 353.633 158.841 353.67 158.851L362.624 161.211C362.663 161.221 362.703 161.203 362.722 161.168L383.974 121.412C383.99 121.382 383.987 121.346 383.966 121.319L360.954 91.1722C360.947 91.163 360.938 91.1552 360.928 91.1495L348.191 83.9156C348.178 83.9081 348.167 83.8973 348.159 83.8843L343.607 76.1268C343.573 76.07 343.491 76.07 343.458 76.1268L335.125 90.325C335.105 90.3584 335.066 90.3747 335.028 90.3648L323.976 87.4515C323.939 87.4416 323.899 87.4579 323.88 87.4912Z" fill="#102F41" stroke="#808080" stroke-miterlimit="10"/>
<path d="M361 156L365 148" stroke="#808080" stroke-miterlimit="10" stroke-linecap="round"/>
<path d="M318 104L323 95" stroke="#808080" stroke-miterlimit="10" stroke-linecap="round"/>
<path d="M363 134L367 127" stroke="#808080" stroke-miterlimit="10" stroke-linecap="round"/>
<path d="M360 97L371 113" stroke="#808080" stroke-miterlimit="10" stroke-linecap="round"/>
<path d="M322 145L327 158" stroke="#808080" stroke-miterlimit="10" stroke-linecap="round"/>
<path d="M348 84L337 103" stroke="#808080" stroke-miterlimit="10" stroke-linecap="round"/>
<path d="M375 122L364.771 139.579C364.57 139.924 364.24 140.175 363.853 140.276L346.532 144.787C346.024 144.919 345.485 144.777 345.108 144.411L339.857 139.307" stroke="#808080" stroke-miterlimit="10" stroke-linecap="round"/>
<path d="M359 122L348.682 107.523C348.488 107.25 348.208 107.05 347.886 106.955L331.93 102.234C331.438 102.088 330.906 102.204 330.52 102.54L320.613 111.161C320.23 111.494 320.042 111.997 320.112 112.499L321.43 122" stroke="#808080" stroke-miterlimit="10" stroke-linecap="round"/>
<path d="M338 166L351 144" stroke="#808080" stroke-miterlimit="10" stroke-linecap="round"/>
<path d="M296 122L394 122" stroke="#808080" stroke-miterlimit="10" stroke-linecap="round"/>
<path d="M323.18 126.475V133H322.154V126.475H323.18ZM326.54 128.068C327.647 128.068 328.493 128.851 328.637 129.796H327.701C327.602 129.247 327.107 128.869 326.495 128.869C325.82 128.869 325.199 129.4 325.199 130.579C325.199 131.776 325.82 132.316 326.495 132.316C327.098 132.316 327.602 131.965 327.737 131.389H328.682C328.484 132.406 327.548 133.117 326.477 133.117C325.073 133.117 324.2 132.055 324.2 130.588C324.2 129.157 325.109 128.068 326.54 128.068ZM331.648 132.316C332.332 132.316 332.71 132.037 332.917 131.578H333.862C333.646 132.379 332.908 133.117 331.684 133.117C330.127 133.117 329.272 131.974 329.272 130.57C329.272 129.067 330.28 128.068 331.657 128.068C333.151 128.068 334.024 129.292 333.925 130.867H330.235C330.334 131.767 330.883 132.316 331.648 132.316ZM331.648 128.833C330.919 128.833 330.388 129.202 330.253 130.129H332.953C332.926 129.418 332.413 128.833 331.648 128.833ZM335.743 130.588C335.743 131.785 336.355 132.334 337.075 132.334C337.858 132.334 338.38 131.677 338.38 130.588C338.38 129.499 337.858 128.851 337.075 128.851C336.355 128.851 335.743 129.391 335.743 130.588ZM334.843 126.475H335.779V128.869C336.076 128.365 336.571 128.068 337.291 128.068C338.416 128.068 339.379 129.004 339.379 130.588C339.379 132.172 338.416 133.117 337.291 133.117C336.571 133.117 336.076 132.82 335.779 132.316V133H334.843V126.475ZM342.423 132.316C343.107 132.316 343.485 132.037 343.692 131.578H344.637C344.421 132.379 343.683 133.117 342.459 133.117C340.902 133.117 340.047 131.974 340.047 130.57C340.047 129.067 341.055 128.068 342.432 128.068C343.926 128.068 344.799 129.292 344.7 130.867H341.01C341.109 131.767 341.658 132.316 342.423 132.316ZM342.423 128.833C341.694 128.833 341.163 129.202 341.028 130.129H343.728C343.701 129.418 343.188 128.833 342.423 128.833ZM348.138 128.149V129.121C347.967 129.103 347.805 129.094 347.652 129.094C346.932 129.094 346.554 129.445 346.554 130.462V133H345.618V128.158H346.536V129.013C346.788 128.464 347.265 128.149 347.877 128.14C347.958 128.14 348.057 128.14 348.138 128.149ZM352.013 128.869V128.158H352.949V132.433C352.949 133.324 352.76 133.801 352.427 134.134C352.058 134.521 351.482 134.719 350.735 134.719C349.646 134.719 348.863 134.251 348.71 133.234H349.673C349.772 133.675 350.042 133.936 350.753 133.936C351.194 133.936 351.518 133.819 351.725 133.585C351.914 133.378 352.013 133.135 352.013 132.631V132.118C351.716 132.622 351.239 132.919 350.519 132.919C349.394 132.919 348.458 132.037 348.458 130.489C348.458 128.95 349.394 128.068 350.519 128.068C351.239 128.068 351.716 128.365 352.013 128.869ZM352.049 130.489C352.049 129.337 351.455 128.842 350.735 128.842C349.952 128.842 349.457 129.445 349.457 130.489C349.457 131.542 349.952 132.154 350.735 132.154C351.455 132.154 352.049 131.641 352.049 130.489Z" fill="#808080"/>
<path d="M170.179 248H193.263V257H249.179" stroke="#808080" stroke-miterlimit="10"/>
<path d="M204.547 90.4532C206.888 90.4532 208.786 92.3674 208.786 94.7293V154.773C208.786 155.559 208.477 156.314 207.926 156.875L197.985 166.997C197.361 167.633 196.51 167.96 195.623 167.887C186.363 167.122 133.162 162.71 120.147 161.193C118.246 160.972 116.728 159.492 116.442 157.583C115.1 148.606 110.619 111.738 109.675 103.95C109.563 103.02 109.894 102.117 110.566 101.464L121.024 91.3016C121.584 90.7575 122.334 90.4531 123.115 90.4531L204.547 90.4532Z" fill="#666666" stroke="#808080" stroke-miterlimit="10"/>
<rect x="108.662" y="100.809" width="89.766" height="68.1876" rx="4.31567" fill="#262626" stroke="#808080" stroke-miterlimit="10"/>
<rect x="117.552" y="111.852" width="5.0796" height="5.0796" rx="2.5398" fill="#262626" stroke="#808080" stroke-miterlimit="10"/>
<rect x="125.806" y="111.852" width="5.0796" height="5.0796" rx="2.5398" fill="#262626" stroke="#808080" stroke-miterlimit="10"/>
<rect x="134.061" y="111.852" width="5.0796" height="5.0796" rx="2.5398" fill="#262626" stroke="#808080" stroke-miterlimit="10"/>
<rect x="167.077" y="111.852" width="22.2232" height="5.0796" rx="2.5398" fill="#262626" stroke="#808080" stroke-miterlimit="10"/>
<rect x="117.552" y="132.809" width="5.0796" height="5.0796" rx="2.5398" fill="#262626" stroke="#808080" stroke-miterlimit="10"/>
<rect x="125.806" y="132.809" width="5.0796" height="5.0796" rx="2.5398" fill="#262626" stroke="#808080" stroke-miterlimit="10"/>
<rect x="134.061" y="132.809" width="5.0796" height="5.0796" rx="2.5398" fill="#262626" stroke="#808080" stroke-miterlimit="10"/>
<rect x="117.552" y="153.758" width="5.0796" height="5.0796" rx="2.5398" fill="#262626" stroke="#808080" stroke-miterlimit="10"/>
<rect x="125.806" y="153.758" width="5.0796" height="5.0796" rx="2.5398" fill="#262626" stroke="#808080" stroke-miterlimit="10"/>
<rect x="134.061" y="153.758" width="5.0796" height="5.0796" rx="2.5398" fill="#262626" stroke="#808080" stroke-miterlimit="10"/>
<path d="M109 147L198.5 147" stroke="#808080" stroke-miterlimit="10"/>
<line x1="108.662" y1="125.34" x2="198.428" y2="125.34" stroke="#808080" stroke-miterlimit="10"/>
<path d="M197.603 102.5L207.922 92.1797" stroke="#808080" stroke-miterlimit="10"/>
</svg>
