<svg width="481" height="297" viewBox="0 0 481 297" fill="none" xmlns="http://www.w3.org/2000/svg">
<path d="M10 0.5H470.357C475.604 0.500049 479.857 4.75333 479.857 10V286.407C479.857 291.654 475.604 295.907 470.357 295.907H10C4.7533 295.907 0.5 291.654 0.5 286.407V10C0.500003 4.7533 4.7533 0.5 10 0.5Z" fill="#F2F2F2"/>
<path d="M10 0.5H470.357C475.604 0.500049 479.857 4.75333 479.857 10V286.407C479.857 291.654 475.604 295.907 470.357 295.907H10C4.7533 295.907 0.5 291.654 0.5 286.407V10C0.500003 4.7533 4.7533 0.5 10 0.5Z" fill="#E6E6E6"/>
<path d="M10 0.5H470.357C475.604 0.500049 479.857 4.75333 479.857 10V286.407C479.857 291.654 475.604 295.907 470.357 295.907H10C4.7533 295.907 0.5 291.654 0.5 286.407V10C0.500003 4.7533 4.7533 0.5 10 0.5Z" stroke="#D9D9D9"/>
<path d="M401.61 176.008H330.712C328.662 176.008 327 177.67 327 179.719V252.696C327 254.746 328.662 256.407 330.712 256.407H401.61C403.66 256.407 405.322 254.746 405.322 252.696V179.719C405.322 177.67 403.66 176.008 401.61 176.008Z" fill="#F2F2F2" stroke="#B2B2B2" stroke-miterlimit="10"/>
<path d="M365.976 235.595C358.896 235.595 353.179 229.878 353.179 222.798C353.179 215.718 358.896 210 365.976 210C373.056 210 378.774 215.718 378.774 222.798C378.774 229.878 373.056 235.595 365.976 235.595Z" fill="#F2F2F2" stroke="#B2B2B2" stroke-miterlimit="10" stroke-linecap="round"/>
<path d="M372.819 220.9H370.309V224.689H372.819C373.86 224.689 374.725 223.824 374.725 222.783C374.725 221.735 373.86 220.9 372.819 220.9Z" fill="#FFF100" stroke="#B2B2B2" stroke-miterlimit="10" stroke-linecap="round"/>
<path d="M358.009 222.836C358.009 225.778 360.389 228.174 363.313 228.174C366.237 228.174 368.617 225.778 368.617 222.836C368.617 219.894 366.237 217.499 363.313 217.499C360.389 217.499 358.009 219.894 358.009 222.836Z" fill="#FFF100" stroke="#B2B2B2" stroke-miterlimit="10" stroke-linecap="round"/>
<path d="M330.747 176.008H401.646C403.697 176.008 405.357 177.668 405.357 179.719V195.274H327.035V179.719C327.035 177.668 328.696 176.008 330.747 176.008Z" fill="#F2F2F2" stroke="#B2B2B2" stroke-miterlimit="10"/>
<path d="M333.598 188.873C335.177 188.873 336.457 187.593 336.457 186.014C336.457 184.436 335.177 183.156 333.598 183.156C332.02 183.156 330.74 184.436 330.74 186.014C330.74 187.593 332.02 188.873 333.598 188.873Z" fill="#F2F2F2" stroke="#B2B2B2" stroke-miterlimit="10"/>
<path d="M342.199 188.873C343.778 188.873 345.057 187.593 345.057 186.014C345.057 184.436 343.778 183.156 342.199 183.156C340.62 183.156 339.341 184.436 339.341 186.014C339.341 187.593 340.62 188.873 342.199 188.873Z" fill="#F2F2F2" stroke="#B2B2B2" stroke-miterlimit="10"/>
<path d="M350.787 188.873C352.365 188.873 353.645 187.593 353.645 186.014C353.645 184.436 352.365 183.156 350.787 183.156C349.208 183.156 347.929 184.436 347.929 186.014C347.929 187.593 349.208 188.873 350.787 188.873Z" fill="#F2F2F2" stroke="#B2B2B2" stroke-miterlimit="10"/>
<path d="M225.695 72.7832C225.5 72.588 225.5 72.2714 225.695 72.0761L228.877 68.8942C229.073 68.6989 229.389 68.6989 229.584 68.8942C229.78 69.0894 229.78 69.406 229.584 69.6013L226.756 72.4297L229.584 75.2581C229.78 75.4534 229.78 75.77 229.584 75.9652C229.389 76.1605 229.073 76.1605 228.877 75.9652L225.695 72.7832ZM285.527 72.0761C285.722 72.2714 285.722 72.588 285.527 72.7832L282.345 75.9652C282.15 76.1605 281.833 76.1605 281.638 75.9652C281.443 75.77 281.443 75.4534 281.638 75.2581L284.466 72.4297L281.638 69.6013C281.443 69.406 281.443 69.0894 281.638 68.8942C281.833 68.6989 282.15 68.6989 282.345 68.8942L285.527 72.0761ZM226.049 72.4297L226.049 71.9297H285.174L285.174 72.4297L285.174 72.9297H226.049L226.049 72.4297Z" fill="#CCCCCC"/>
<path d="M138.743 130.641C139.009 130.57 139.283 130.728 139.355 130.995L140.519 135.342C140.591 135.608 140.433 135.883 140.166 135.954C139.899 136.025 139.625 135.867 139.553 135.6L138.518 131.737L134.655 132.772C134.388 132.843 134.114 132.685 134.042 132.418C133.971 132.151 134.129 131.877 134.396 131.806L138.743 130.641ZM123.801 157.932C123.535 158.004 123.26 157.845 123.189 157.579L122.024 153.232C121.953 152.965 122.111 152.691 122.378 152.62C122.645 152.548 122.919 152.706 122.99 152.973L124.025 156.837L127.889 155.802C128.156 155.73 128.43 155.889 128.502 156.155C128.573 156.422 128.415 156.696 128.148 156.768L123.801 157.932ZM138.872 131.124L139.305 131.374L124.105 157.699L123.672 157.449L123.239 157.199L138.439 130.874L138.872 131.124Z" fill="#CCCCCC"/>
<path d="M171.8 130.641C171.534 130.57 171.26 130.728 171.188 130.995L170.024 135.342C169.952 135.608 170.11 135.883 170.377 135.954C170.644 136.025 170.918 135.867 170.989 135.6L172.025 131.737L175.888 132.772C176.155 132.843 176.429 132.685 176.501 132.418C176.572 132.151 176.414 131.877 176.147 131.806L171.8 130.641ZM186.742 157.932C187.008 158.004 187.283 157.845 187.354 157.579L188.519 153.232C188.59 152.965 188.432 152.691 188.165 152.62C187.898 152.548 187.624 152.706 187.553 152.973L186.518 156.837L182.654 155.802C182.387 155.73 182.113 155.889 182.041 156.155C181.97 156.422 182.128 156.696 182.395 156.768L186.742 157.932ZM171.671 131.124L171.238 131.374L186.438 157.699L186.871 157.449L187.304 157.199L172.104 130.874L171.671 131.124Z" fill="#CCCCCC"/>
<path d="M349.606 130.641C349.339 130.57 349.065 130.728 348.994 130.995L347.829 135.342C347.758 135.608 347.916 135.883 348.183 135.954C348.45 136.025 348.724 135.867 348.795 135.6L349.83 131.737L353.694 132.772C353.961 132.843 354.235 132.685 354.306 132.418C354.378 132.151 354.22 131.877 353.953 131.806L349.606 130.641ZM364.547 157.932C364.814 158.004 365.088 157.845 365.16 157.579L366.324 153.232C366.396 152.965 366.237 152.691 365.971 152.62C365.704 152.548 365.43 152.706 365.358 152.973L364.323 156.837L360.459 155.802C360.193 155.73 359.919 155.889 359.847 156.155C359.776 156.422 359.934 156.696 360.201 156.768L364.547 157.932ZM349.477 131.124L349.044 131.374L364.244 157.699L364.677 157.449L365.11 157.199L349.91 130.874L349.477 131.124Z" fill="#CCCCCC"/>
<path d="M149.61 176.008H78.7117C76.6618 176.008 75 177.67 75 179.719V252.696C75 254.746 76.6618 256.407 78.7117 256.407H149.61C151.66 256.407 153.322 254.746 153.322 252.696V179.719C153.322 177.67 151.66 176.008 149.61 176.008Z" fill="#F2F2F2" stroke="#B2B2B2" stroke-miterlimit="10"/>
<path d="M81.1787 201L89.1787 205.617L81.1787 210.236" stroke="#B2B2B2" stroke-miterlimit="10"/>
<path d="M91.6787 212H100.679" stroke="#B2B2B2" stroke-miterlimit="10"/>
<path d="M78.7117 176.008H149.61C151.662 176.008 153.322 177.668 153.322 179.719V195.274H75V179.719C75 177.668 76.6607 176.008 78.7117 176.008Z" fill="#F2F2F2" stroke="#B2B2B2" stroke-miterlimit="10"/>
<path d="M81.5633 188.873C83.1418 188.873 84.4214 187.593 84.4214 186.014C84.4214 184.436 83.1418 183.156 81.5633 183.156C79.9847 183.156 78.7051 184.436 78.7051 186.014C78.7051 187.593 79.9847 188.873 81.5633 188.873Z" fill="#F2F2F2" stroke="#B2B2B2" stroke-miterlimit="10"/>
<path d="M90.1638 188.873C91.7424 188.873 93.022 187.593 93.022 186.014C93.022 184.436 91.7424 183.156 90.1638 183.156C88.5853 183.156 87.3057 184.436 87.3057 186.014C87.3057 187.593 88.5853 188.873 90.1638 188.873Z" fill="#F2F2F2" stroke="#B2B2B2" stroke-miterlimit="10"/>
<path d="M98.7517 188.873C100.33 188.873 101.61 187.593 101.61 186.014C101.61 184.436 100.33 183.156 98.7517 183.156C97.1732 183.156 95.8936 184.436 95.8936 186.014C95.8936 187.593 97.1732 188.873 98.7517 188.873Z" fill="#F2F2F2" stroke="#B2B2B2" stroke-miterlimit="10"/>
<path d="M245.435 176H173.923C171.855 176 170.179 177.654 170.179 179.693V252.307C170.179 254.346 171.855 256 173.923 256H245.435C247.503 256 249.179 254.346 249.179 252.307V179.693C249.179 177.654 247.503 176 245.435 176Z" fill="#F2F2F2" stroke="#B2B2B2" stroke-miterlimit="10"/>
<path d="M174.375 175H245.482C247.525 175 249.179 176.724 249.179 178.853V192H170.179V178.853C170.179 176.724 172.333 175 174.375 175Z" fill="#F2F2F2" stroke="#B2B2B2" stroke-miterlimit="10"/>
<path d="M178.037 186.716C179.615 186.716 180.895 185.437 180.895 183.858C180.895 182.28 179.615 181 178.037 181C176.458 181 175.179 182.28 175.179 183.858C175.179 185.437 176.458 186.716 178.037 186.716Z" fill="#F2F2F2" stroke="#B2B2B2" stroke-miterlimit="10"/>
<path d="M186.637 186.716C188.216 186.716 189.496 185.437 189.496 183.858C189.496 182.28 188.216 181 186.637 181C185.059 181 183.779 182.28 183.779 183.858C183.779 185.437 185.059 186.716 186.637 186.716Z" fill="#F2F2F2" stroke="#B2B2B2" stroke-miterlimit="10"/>
<path d="M195.225 186.716C196.804 186.716 198.084 185.437 198.084 183.858C198.084 182.28 196.804 181 195.225 181C193.647 181 192.367 182.28 192.367 183.858C192.367 185.437 193.647 186.716 195.225 186.716Z" fill="#F2F2F2" stroke="#B2B2B2" stroke-miterlimit="10"/>
<path d="M323.88 31.4912L304.023 65.3234C304.009 65.3483 304.008 65.3789 304.02 65.4049L323.895 106.158C323.906 106.181 323.927 106.198 323.951 106.204L337.503 109.776C337.525 109.782 337.544 109.796 337.555 109.816L343.458 119.873C343.491 119.93 343.573 119.93 343.607 119.873L353.574 102.89C353.593 102.857 353.633 102.841 353.67 102.851L362.624 105.211C362.663 105.221 362.703 105.203 362.722 105.168L383.974 65.4122C383.99 65.3824 383.987 65.346 383.966 65.3192L360.954 35.1722C360.947 35.163 360.938 35.1552 360.928 35.1495L348.191 27.9156C348.178 27.9081 348.167 27.8973 348.159 27.8843L343.607 20.1268C343.573 20.07 343.491 20.07 343.458 20.1268L335.125 34.325C335.105 34.3584 335.066 34.3747 335.028 34.3648L323.976 31.4515C323.939 31.4416 323.899 31.4579 323.88 31.4912Z" fill="#CCEBFF" stroke="#B2B2B2" stroke-miterlimit="10"/>
<path d="M361 100L365 92" stroke="#B2B2B2" stroke-miterlimit="10" stroke-linecap="round"/>
<path d="M318 48L323 39" stroke="#B2B2B2" stroke-miterlimit="10" stroke-linecap="round"/>
<path d="M363 78L367 71" stroke="#B2B2B2" stroke-miterlimit="10" stroke-linecap="round"/>
<path d="M360 41L371 57" stroke="#B2B2B2" stroke-miterlimit="10" stroke-linecap="round"/>
<path d="M322 89L327 102" stroke="#B2B2B2" stroke-miterlimit="10" stroke-linecap="round"/>
<path d="M348 28L337 47" stroke="#B2B2B2" stroke-miterlimit="10" stroke-linecap="round"/>
<path d="M375 66L364.771 83.5789C364.57 83.9244 364.24 84.1753 363.853 84.2761L346.532 88.7871C346.024 88.9193 345.485 88.7767 345.108 88.4111L339.857 83.3071" stroke="#B2B2B2" stroke-miterlimit="10" stroke-linecap="round"/>
<path d="M359 66L348.682 51.5231C348.488 51.2503 348.208 51.0504 347.886 50.9553L331.93 46.2336C331.438 46.0881 330.906 46.2038 330.52 46.5404L320.613 55.1614C320.23 55.4941 320.042 55.9972 320.112 56.4992L321.43 66" stroke="#B2B2B2" stroke-miterlimit="10" stroke-linecap="round"/>
<path d="M338 110L351 88" stroke="#B2B2B2" stroke-miterlimit="10" stroke-linecap="round"/>
<path d="M296 66L394 66" stroke="#B2B2B2" stroke-miterlimit="10" stroke-linecap="round"/>
<path d="M323.18 70.475V77H322.154V70.475H323.18ZM326.54 72.068C327.647 72.068 328.493 72.851 328.637 73.796H327.701C327.602 73.247 327.107 72.869 326.495 72.869C325.82 72.869 325.199 73.4 325.199 74.579C325.199 75.776 325.82 76.316 326.495 76.316C327.098 76.316 327.602 75.965 327.737 75.389H328.682C328.484 76.406 327.548 77.117 326.477 77.117C325.073 77.117 324.2 76.055 324.2 74.588C324.2 73.157 325.109 72.068 326.54 72.068ZM331.648 76.316C332.332 76.316 332.71 76.037 332.917 75.578H333.862C333.646 76.379 332.908 77.117 331.684 77.117C330.127 77.117 329.272 75.974 329.272 74.57C329.272 73.067 330.28 72.068 331.657 72.068C333.151 72.068 334.024 73.292 333.925 74.867H330.235C330.334 75.767 330.883 76.316 331.648 76.316ZM331.648 72.833C330.919 72.833 330.388 73.202 330.253 74.129H332.953C332.926 73.418 332.413 72.833 331.648 72.833ZM335.743 74.588C335.743 75.785 336.355 76.334 337.075 76.334C337.858 76.334 338.38 75.677 338.38 74.588C338.38 73.499 337.858 72.851 337.075 72.851C336.355 72.851 335.743 73.391 335.743 74.588ZM334.843 70.475H335.779V72.869C336.076 72.365 336.571 72.068 337.291 72.068C338.416 72.068 339.379 73.004 339.379 74.588C339.379 76.172 338.416 77.117 337.291 77.117C336.571 77.117 336.076 76.82 335.779 76.316V77H334.843V70.475ZM342.423 76.316C343.107 76.316 343.485 76.037 343.692 75.578H344.637C344.421 76.379 343.683 77.117 342.459 77.117C340.902 77.117 340.047 75.974 340.047 74.57C340.047 73.067 341.055 72.068 342.432 72.068C343.926 72.068 344.799 73.292 344.7 74.867H341.01C341.109 75.767 341.658 76.316 342.423 76.316ZM342.423 72.833C341.694 72.833 341.163 73.202 341.028 74.129H343.728C343.701 73.418 343.188 72.833 342.423 72.833ZM348.138 72.149V73.121C347.967 73.103 347.805 73.094 347.652 73.094C346.932 73.094 346.554 73.445 346.554 74.462V77H345.618V72.158H346.536V73.013C346.788 72.464 347.265 72.149 347.877 72.14C347.958 72.14 348.057 72.14 348.138 72.149ZM352.013 72.869V72.158H352.949V76.433C352.949 77.324 352.76 77.801 352.427 78.134C352.058 78.521 351.482 78.719 350.735 78.719C349.646 78.719 348.863 78.251 348.71 77.234H349.673C349.772 77.675 350.042 77.936 350.753 77.936C351.194 77.936 351.518 77.819 351.725 77.585C351.914 77.378 352.013 77.135 352.013 76.631V76.118C351.716 76.622 351.239 76.919 350.519 76.919C349.394 76.919 348.458 76.037 348.458 74.489C348.458 72.95 349.394 72.068 350.519 72.068C351.239 72.068 351.716 72.365 352.013 72.869ZM352.049 74.489C352.049 73.337 351.455 72.842 350.735 72.842C349.952 72.842 349.457 73.445 349.457 74.489C349.457 75.542 349.952 76.154 350.735 76.154C351.455 76.154 352.049 75.641 352.049 74.489Z" fill="#B2B2B2"/>
<path d="M170.179 192H193.263V201H249.179" stroke="#B2B2B2" stroke-miterlimit="10"/>
<path d="M204.547 34.4532C206.888 34.4532 208.786 36.3674 208.786 38.7293V98.7732C208.786 99.5594 208.477 100.314 207.926 100.875L197.985 110.997C197.361 111.633 196.51 111.96 195.623 111.887C186.363 111.122 133.162 106.71 120.147 105.193C118.246 104.972 116.728 103.492 116.442 101.583C115.1 92.6055 110.619 55.7385 109.675 47.9495C109.563 47.0198 109.894 46.117 110.566 45.4643L121.024 35.3016C121.584 34.7575 122.334 34.4531 123.115 34.4531L204.547 34.4532Z" fill="#CCCCCC" stroke="#B2B2B2" stroke-miterlimit="10"/>
<rect x="108.662" y="44.8086" width="89.766" height="68.1876" rx="4.31567" fill="#F2F2F2" stroke="#B2B2B2" stroke-miterlimit="10"/>
<rect x="117.552" y="55.8516" width="5.0796" height="5.0796" rx="2.5398" fill="#F2F2F2" stroke="#B2B2B2" stroke-miterlimit="10"/>
<rect x="125.806" y="55.8516" width="5.0796" height="5.0796" rx="2.5398" fill="#F2F2F2" stroke="#B2B2B2" stroke-miterlimit="10"/>
<rect x="134.061" y="55.8516" width="5.0796" height="5.0796" rx="2.5398" fill="#F2F2F2" stroke="#B2B2B2" stroke-miterlimit="10"/>
<rect x="167.077" y="55.8516" width="22.2232" height="5.0796" rx="2.5398" fill="#F2F2F2" stroke="#B2B2B2" stroke-miterlimit="10"/>
<rect x="117.552" y="76.8086" width="5.0796" height="5.0796" rx="2.5398" fill="#F2F2F2" stroke="#B2B2B2" stroke-miterlimit="10"/>
<rect x="125.806" y="76.8086" width="5.0796" height="5.0796" rx="2.5398" fill="#F2F2F2" stroke="#B2B2B2" stroke-miterlimit="10"/>
<rect x="134.061" y="76.8086" width="5.0796" height="5.0796" rx="2.5398" fill="#F2F2F2" stroke="#B2B2B2" stroke-miterlimit="10"/>
<rect x="117.552" y="97.7578" width="5.0796" height="5.0796" rx="2.5398" fill="#F2F2F2" stroke="#B2B2B2" stroke-miterlimit="10"/>
<rect x="125.806" y="97.7578" width="5.0796" height="5.0796" rx="2.5398" fill="#F2F2F2" stroke="#B2B2B2" stroke-miterlimit="10"/>
<rect x="134.061" y="97.7578" width="5.0796" height="5.0796" rx="2.5398" fill="#F2F2F2" stroke="#B2B2B2" stroke-miterlimit="10"/>
<path d="M109 91L198.5 91" stroke="#B2B2B2" stroke-miterlimit="10"/>
<line x1="108.662" y1="69.3398" x2="198.428" y2="69.3398" stroke="#B2B2B2" stroke-miterlimit="10"/>
<path d="M197.603 46.5L207.922 36.1797" stroke="#B2B2B2" stroke-miterlimit="10"/>
<path d="M178.426 103.595C171.346 103.595 165.629 97.8776 165.629 90.7976C165.629 83.7176 171.346 78 178.426 78C185.506 78 191.224 83.7176 191.224 90.7976C191.224 97.8776 185.506 103.595 178.426 103.595Z" fill="#F2F2F2" stroke="#B2B2B2" stroke-miterlimit="10" stroke-linecap="round"/>
<path d="M185.269 88.9004H182.759V92.6891H185.269C186.31 92.6891 187.175 91.8242 187.175 90.7833C187.175 89.7347 186.31 88.9004 185.269 88.9004Z" fill="#FFF100" stroke="#B2B2B2" stroke-miterlimit="10" stroke-linecap="round"/>
<path d="M170.459 90.8361C170.459 93.7784 172.839 96.1737 175.763 96.1737C178.687 96.1737 181.068 93.7784 181.068 90.8361C181.068 87.8939 178.687 85.4985 175.763 85.4985C172.839 85.4985 170.459 87.8939 170.459 90.8361Z" fill="#FFF100" stroke="#B2B2B2" stroke-miterlimit="10" stroke-linecap="round"/>
</svg>
