<svg width="750" height="289" viewBox="0 0 750 289" fill="none" xmlns="http://www.w3.org/2000/svg">
<path d="M10 0.5H454C459.247 0.500001 463.5 4.7533 463.5 10V279C463.5 284.247 459.247 288.5 454 288.5H10C4.7533 288.5 0.5 284.247 0.5 279V10C0.5 4.7533 4.75329 0.5 10 0.5Z" fill="#0D0D0D"/>
<path d="M10 0.5H454C459.247 0.500001 463.5 4.7533 463.5 10V279C463.5 284.247 459.247 288.5 454 288.5H10C4.7533 288.5 0.5 284.247 0.5 279V10C0.5 4.7533 4.75329 0.5 10 0.5Z" fill="#1A1A1A"/>
<path d="M10 0.5H454C459.247 0.500001 463.5 4.7533 463.5 10V279C463.5 284.247 459.247 288.5 454 288.5H10C4.7533 288.5 0.5 284.247 0.5 279V10C0.5 4.7533 4.75329 0.5 10 0.5Z" stroke="#4C4C4C"/>
<g clip-path="url(#clip0_10218_44969)">
<path d="M172.256 25.88L170.192 28.424H172.256V25.88ZM175.436 28.424V30.164H174.236V32H172.256V30.164H168.02V28.616L172.4 23.3H174.236V28.424H175.436ZM179.814 32.156C177.366 32.156 176.082 30.416 176.082 27.632C176.082 24.86 177.366 23.156 179.814 23.156C182.25 23.156 183.534 24.86 183.534 27.632C183.534 30.416 182.25 32.156 179.814 32.156ZM179.814 30.692C180.822 30.692 181.506 29.744 181.506 27.632C181.506 25.532 180.822 24.62 179.814 24.62C178.794 24.62 178.11 25.532 178.11 27.632C178.11 29.744 178.794 30.692 179.814 30.692ZM188.859 29.648H184.623V27.98H188.859V29.648ZM193.401 26.936C192.621 26.936 191.973 27.44 191.973 28.772C191.973 30.104 192.621 30.62 193.401 30.62C194.193 30.62 194.841 29.972 194.841 28.772C194.841 27.572 194.193 26.936 193.401 26.936ZM192.069 23.3V26.42C192.489 25.712 193.353 25.4 194.049 25.4C195.717 25.4 196.893 26.66 196.893 28.772C196.893 30.884 195.717 32.156 194.049 32.156C193.353 32.156 192.489 31.844 192.069 31.136V32H190.089V23.3H192.069ZM198.391 34.1H197.755V32.672H198.151C198.967 32.672 199.135 32.612 199.327 32.132L199.387 31.964L196.975 25.544H199.147L200.335 29.588L201.607 25.544H203.731L201.199 32C200.551 33.644 200.071 34.1 198.391 34.1ZM204.756 25.544V23.78H206.736V25.544H208.152V26.948H206.736V29.84C206.736 30.452 206.928 30.572 207.588 30.572H208.152V32H206.892C205.296 32 204.756 31.688 204.756 30.188V26.948H203.736V25.544H204.756ZM213.75 29.972H215.574C214.998 31.496 213.642 32.156 212.358 32.156C210.258 32.156 208.818 30.884 208.818 28.736C208.818 26.672 210.39 25.352 212.274 25.352C214.422 25.352 215.73 26.972 215.598 29.276H210.81C210.87 30.188 211.578 30.62 212.298 30.62C213.054 30.62 213.522 30.356 213.75 29.972ZM212.274 26.864C211.566 26.864 210.942 27.224 210.834 28.076H213.63C213.594 27.26 213.03 26.864 212.274 26.864ZM222.534 26.936C221.754 26.936 221.106 27.44 221.106 28.772C221.106 30.104 221.754 30.62 222.534 30.62C223.326 30.62 223.974 29.972 223.974 28.772C223.974 27.572 223.326 26.936 222.534 26.936ZM221.202 23.3V26.42C221.622 25.712 222.486 25.4 223.182 25.4C224.85 25.4 226.026 26.66 226.026 28.772C226.026 30.884 224.85 32.156 223.182 32.156C222.486 32.156 221.622 31.844 221.202 31.136V32H219.222V23.3H221.202ZM229.006 23.3V32H227.026V23.3H229.006ZM233.461 26.888C232.681 26.888 232.057 27.368 232.057 28.748C232.057 30.104 232.657 30.62 233.461 30.62C234.265 30.62 234.865 30.104 234.865 28.748C234.865 27.368 234.241 26.888 233.461 26.888ZM233.461 25.352C235.249 25.352 236.881 26.408 236.881 28.748C236.881 31.088 235.249 32.156 233.461 32.156C231.673 32.156 230.041 31.088 230.041 28.748C230.041 26.408 231.673 25.352 233.461 25.352ZM240.923 25.352C242.267 25.352 243.743 25.964 244.127 27.908H242.279C242.099 27.152 241.631 26.888 241.043 26.888C240.335 26.888 239.639 27.368 239.639 28.748C239.639 30.152 240.335 30.62 241.043 30.62C241.775 30.62 242.219 30.236 242.363 29.624H244.211C243.767 31.544 242.219 32.156 240.923 32.156C238.799 32.156 237.623 30.788 237.623 28.736C237.623 26.684 238.967 25.352 240.923 25.352ZM245.155 23.3H247.135V28.004L249.307 25.544H251.647L249.343 28.016L251.839 32H249.523L247.999 29.456L247.135 30.38V32H245.155V23.3ZM257.061 23.3V26.396C257.349 25.916 258.045 25.4 259.065 25.4C260.721 25.4 261.237 26.372 261.237 28.124V32H259.257V28.616C259.257 27.692 259.233 26.936 258.273 26.936C257.421 26.936 257.061 27.488 257.061 28.688V32H255.081V23.3H257.061ZM267.082 29.972H268.906C268.33 31.496 266.974 32.156 265.69 32.156C263.59 32.156 262.15 30.884 262.15 28.736C262.15 26.672 263.722 25.352 265.606 25.352C267.754 25.352 269.062 26.972 268.93 29.276H264.142C264.202 30.188 264.91 30.62 265.63 30.62C266.386 30.62 266.854 30.356 267.082 29.972ZM265.606 26.864C264.898 26.864 264.274 27.224 264.166 28.076H266.962C266.926 27.26 266.362 26.864 265.606 26.864ZM273.924 27.968V27.716C273.924 26.948 273.552 26.684 272.832 26.684C272.196 26.684 271.764 27.008 271.68 27.632H269.832C269.928 26.42 271.08 25.34 273 25.34C274.86 25.34 275.916 26.096 275.88 28.052L275.856 29.456V30.128C275.856 30.836 275.904 31.592 276 32H274.056L274.032 31.22C273.552 31.904 272.784 32.156 271.86 32.156C270.636 32.156 269.628 31.436 269.628 30.26C269.628 28.676 271.416 28.16 273.924 27.968ZM273.972 29.288V29.132C272.592 29.264 271.668 29.42 271.668 30.116C271.668 30.536 272.064 30.812 272.58 30.812C273.372 30.812 273.972 30.476 273.972 29.288ZM281.54 23.3H283.52V32H281.54V31.136C281.12 31.844 280.256 32.156 279.56 32.156C277.892 32.156 276.716 30.884 276.716 28.772C276.716 26.66 277.892 25.4 279.56 25.4C280.256 25.4 281.12 25.712 281.54 26.42V23.3ZM280.208 26.936C279.416 26.936 278.768 27.572 278.768 28.772C278.768 29.972 279.416 30.62 280.208 30.62C280.988 30.62 281.636 30.104 281.636 28.772C281.636 27.44 280.988 26.936 280.208 26.936ZM289.488 29.972H291.312C290.736 31.496 289.38 32.156 288.096 32.156C285.996 32.156 284.556 30.884 284.556 28.736C284.556 26.672 286.128 25.352 288.012 25.352C290.16 25.352 291.468 26.972 291.336 29.276H286.548C286.608 30.188 287.316 30.62 288.036 30.62C288.792 30.62 289.26 30.356 289.488 29.972ZM288.012 26.864C287.304 26.864 286.68 27.224 286.572 28.076H289.368C289.332 27.26 288.768 26.864 288.012 26.864ZM296.354 25.508V27.44C296.126 27.404 295.994 27.404 295.814 27.404C294.854 27.404 294.362 27.752 294.362 28.76V32H292.382V25.544H294.29V26.768C294.59 26 295.13 25.532 296.054 25.496H296.198C296.258 25.496 296.306 25.496 296.354 25.508Z" fill="#F2F2F2"/>
</g>
<path d="M444 65V60C444 57.2386 441.761 55 439 55L237 55C234.239 55 232 52.7614 232 50V45" stroke="#F2F2F2" stroke-miterlimit="10"/>
<path d="M20 65V60C20 57.2386 22.2386 55 25 55L227 55C229.761 55 232 52.7614 232 50V45" stroke="#F2F2F2" stroke-miterlimit="10"/>
<g clip-path="url(#clip1_10218_44969)">
<rect width="127.2" height="32" transform="translate(20 75)" fill="#333333"/>
<path d="M65.4719 95.5H63.5639L59.7239 88.3V95.5H58.3799V86.8H60.2879L64.1279 93.988V86.8H65.4719V95.5ZM68.1596 92.296C68.1596 93.88 69.0356 94.6 69.9716 94.6C70.9316 94.6 71.7956 93.868 71.7956 92.296C71.7956 90.7 70.9316 89.98 69.9716 89.98C69.0356 89.98 68.1596 90.664 68.1596 92.296ZM69.9716 88.924C71.5076 88.924 73.1156 89.956 73.1156 92.296C73.1156 94.624 71.5076 95.656 69.9716 95.656C68.4476 95.656 66.8396 94.624 66.8396 92.296C66.8396 89.956 68.4476 88.924 69.9716 88.924ZM75.6095 89.044V89.98C75.9815 89.344 76.6295 88.924 77.6375 88.924C79.1975 88.924 79.7975 89.932 79.7975 91.432V95.5H78.5495V91.768C78.5495 90.844 78.4055 89.968 77.2175 89.968C76.1255 89.968 75.6095 90.736 75.6095 92.032V95.5H74.3615V89.044H75.6095ZM84.0336 88.924C85.5096 88.924 86.6376 89.968 86.8296 91.228H85.5816C85.4496 90.496 84.7896 89.992 83.9736 89.992C83.0736 89.992 82.2456 90.7 82.2456 92.272C82.2456 93.868 83.0736 94.588 83.9736 94.588C84.7776 94.588 85.4496 94.12 85.6296 93.352H86.8896C86.6256 94.708 85.3776 95.656 83.9496 95.656C82.0776 95.656 80.9136 94.24 80.9136 92.284C80.9136 90.376 82.1256 88.924 84.0336 88.924ZM90.8433 94.588C91.7553 94.588 92.2593 94.216 92.5353 93.604H93.7953C93.5073 94.672 92.5233 95.656 90.8913 95.656C88.8153 95.656 87.6753 94.132 87.6753 92.26C87.6753 90.256 89.0193 88.924 90.8553 88.924C92.8473 88.924 94.0113 90.556 93.8793 92.656H88.9593C89.0913 93.856 89.8233 94.588 90.8433 94.588ZM90.8433 89.944C89.8713 89.944 89.1633 90.436 88.9833 91.672H92.5833C92.5473 90.724 91.8633 89.944 90.8433 89.944ZM95.4637 95.5H94.2397L97.6357 86.8H98.8717L95.4637 95.5ZM101.162 86.8V95.5H99.794V86.8H101.162ZM102.199 86.8H103.699L106.015 93.976L108.271 86.8H109.711L106.747 95.5H105.199L102.199 86.8Z" fill="#B2B2B2"/>
<mask id="path-9-inside-1_10218_44969" fill="white">
<path d="M147.2 75H316.8V107H147.2V75Z"/>
</mask>
<path d="M147.2 75H316.8V107H147.2V75Z" fill="#333333"/>
<path d="M147.2 107H148.2V75H147.2H146.2V107H147.2Z" fill="#4C4C4C" mask="url(#path-9-inside-1_10218_44969)"/>
<path d="M224.841 95.5V87.964H222.045V86.8H228.993V87.964H226.209V95.5H224.841ZM232.87 92.896V92.428C230.866 92.62 229.81 92.908 229.81 93.736C229.81 94.324 230.266 94.696 231.034 94.696C232.054 94.696 232.87 94.18 232.87 92.896ZM230.758 95.656C229.45 95.656 228.454 94.936 228.454 93.76C228.454 92.188 230.314 91.756 232.81 91.504V91.372C232.81 90.232 232.21 89.848 231.418 89.848C230.554 89.848 230.062 90.28 230.014 91.084H228.754C228.85 89.704 229.99 88.888 231.466 88.888C233.134 88.888 234.082 89.692 234.07 91.624C234.07 91.78 234.046 92.896 234.046 93.172C234.046 94.144 234.106 94.924 234.226 95.5H233.026C232.978 95.248 232.954 95.068 232.918 94.648C232.534 95.308 231.814 95.656 230.758 95.656ZM239.907 89.992V89.044H241.155V94.744C241.155 95.932 240.903 96.568 240.459 97.012C239.967 97.528 239.199 97.792 238.203 97.792C236.751 97.792 235.707 97.168 235.503 95.812H236.787C236.919 96.4 237.279 96.748 238.227 96.748C238.815 96.748 239.247 96.592 239.523 96.28C239.775 96.004 239.907 95.68 239.907 95.008V94.324C239.511 94.996 238.875 95.392 237.915 95.392C236.415 95.392 235.167 94.216 235.167 92.152C235.167 90.1 236.415 88.924 237.915 88.924C238.875 88.924 239.511 89.32 239.907 89.992ZM239.955 92.152C239.955 90.616 239.163 89.956 238.203 89.956C237.159 89.956 236.499 90.76 236.499 92.152C236.499 93.556 237.159 94.372 238.203 94.372C239.163 94.372 239.955 93.688 239.955 92.152Z" fill="#B2B2B2"/>
<mask id="path-12-inside-2_10218_44969" fill="white">
<path d="M316.8 75H359.2V107H316.8V75Z"/>
</mask>
<path d="M316.8 75H359.2V107H316.8V75Z" fill="#333333"/>
<path d="M316.8 107H317.8V75H316.8H315.8V107H316.8Z" fill="#4C4C4C" mask="url(#path-12-inside-2_10218_44969)"/>
<mask id="path-14-inside-3_10218_44969" fill="white">
<path d="M359.2 75H443.98V107H359.2V75Z"/>
</mask>
<path d="M359.2 75H443.98V107H359.2V75Z" fill="#333333"/>
<path d="M359.2 107H360.2V75H359.2H358.2V107H359.2Z" fill="#4C4C4C" mask="url(#path-14-inside-3_10218_44969)"/>
<path d="M378.75 92.668H380.07C379.686 94.588 378.258 95.656 376.314 95.656C373.794 95.656 372.33 93.808 372.33 91.132C372.33 88.408 373.902 86.644 376.398 86.644C378.258 86.644 379.686 87.724 380.034 89.632H378.714C378.438 88.492 377.622 87.784 376.338 87.784C374.862 87.784 373.734 88.96 373.734 91.132C373.734 93.28 374.85 94.516 376.35 94.516C377.646 94.516 378.474 93.82 378.75 92.668ZM382.549 86.8V89.98C382.921 89.344 383.569 88.924 384.577 88.924C386.137 88.924 386.737 89.932 386.737 91.432V95.5H385.489V91.768C385.489 90.844 385.345 89.968 384.157 89.968C383.065 89.968 382.549 90.736 382.549 92.032V95.5H381.301V86.8H382.549ZM391.021 94.588C391.933 94.588 392.437 94.216 392.713 93.604H393.973C393.685 94.672 392.701 95.656 391.069 95.656C388.993 95.656 387.853 94.132 387.853 92.26C387.853 90.256 389.197 88.924 391.033 88.924C393.025 88.924 394.189 90.556 394.057 92.656H389.137C389.269 93.856 390.001 94.588 391.021 94.588ZM391.021 89.944C390.049 89.944 389.341 90.436 389.161 91.672H392.761C392.725 90.724 392.041 89.944 391.021 89.944ZM398.016 88.924C399.492 88.924 400.62 89.968 400.812 91.228H399.564C399.432 90.496 398.772 89.992 397.956 89.992C397.056 89.992 396.228 90.7 396.228 92.272C396.228 93.868 397.056 94.588 397.956 94.588C398.76 94.588 399.432 94.12 399.612 93.352H400.872C400.608 94.708 399.36 95.656 397.932 95.656C396.06 95.656 394.896 94.24 394.896 92.284C394.896 90.376 396.108 88.924 398.016 88.924ZM402.043 86.8H403.291V91.804L405.859 89.044H407.383L404.875 91.708L407.563 95.5H406.075L404.023 92.608L403.291 93.388V95.5H402.043V86.8ZM413.115 90.844H411.879C411.699 90.172 411.147 89.92 410.415 89.92C409.803 89.92 409.143 90.172 409.143 90.7C409.143 91.18 409.455 91.372 410.043 91.504L410.967 91.684C412.179 91.936 413.259 92.332 413.259 93.604C413.259 94.912 412.035 95.656 410.547 95.656C408.903 95.656 407.919 94.708 407.763 93.496H409.035C409.215 94.228 409.671 94.66 410.583 94.66C411.399 94.66 412.011 94.324 412.011 93.748C412.011 93.16 411.447 92.908 410.775 92.776L409.803 92.584C408.831 92.392 407.919 91.972 407.919 90.748C407.919 89.608 409.131 88.912 410.535 88.912C411.843 88.912 412.863 89.596 413.115 90.844ZM418.496 95.5V94.588C418.124 95.248 417.5 95.656 416.528 95.656C415.004 95.656 414.416 94.72 414.416 93.148V89.044H415.664V92.812C415.664 93.736 415.82 94.6 416.948 94.6C418.004 94.6 418.508 93.832 418.508 92.548V89.044H419.756V95.5H418.496ZM422.674 92.032V95.5H421.426V89.044H422.674V89.98C423.046 89.344 423.658 88.924 424.582 88.924C425.59 88.924 426.166 89.344 426.454 90.064C426.994 89.248 427.738 88.924 428.59 88.924C430.102 88.924 430.69 89.932 430.69 91.432V95.5H429.442V91.768C429.442 90.844 429.286 89.968 428.17 89.968C427.174 89.968 426.682 90.736 426.682 92.032V95.5H425.434V91.768C425.434 90.844 425.278 89.968 424.162 89.968C423.154 89.968 422.674 90.736 422.674 92.032Z" fill="#B2B2B2"/>
</g>
<rect x="20.5" y="75.5" width="422.98" height="31" rx="9.5" stroke="#333333"/>
<path d="M20 117V122C20 124.761 22.2386 127 25 127H78.6C81.3614 127 83.6 129.239 83.6 132V137" stroke="#F2F2F2" stroke-miterlimit="10"/>
<path d="M147.2 117V122C147.2 124.761 144.962 127 142.2 127H88.6002C85.8388 127 83.6002 129.239 83.6002 132V137" stroke="#F2F2F2" stroke-miterlimit="10"/>
<path d="M147.2 117V122C147.2 124.761 149.439 127 152.2 127H227C229.762 127 232 129.239 232 132V137" stroke="#F2F2F2" stroke-miterlimit="10"/>
<path d="M316.8 117V122C316.8 124.761 314.561 127 311.8 127H237C234.238 127 232 129.239 232 132V137" stroke="#F2F2F2" stroke-miterlimit="10"/>
<path d="M359.2 117V122C359.2 124.761 361.439 127 364.2 127H396.59C399.352 127 401.59 129.239 401.59 132V137" stroke="#F2F2F2" stroke-miterlimit="10"/>
<path d="M443.98 117V122C443.98 124.761 441.742 127 438.98 127H406.59C403.829 127 401.59 129.239 401.59 132V137" stroke="#F2F2F2" stroke-miterlimit="10"/>
<g clip-path="url(#clip2_10218_44969)">
<path d="M67.355 157H65.975V151.58H64.415V150.64C65.455 150.61 65.965 150.54 66.305 149.75H67.355V157ZM69.9664 154.65C69.9664 155.52 70.5364 156.09 71.2964 156.09C72.0464 156.09 72.5964 155.53 72.5964 154.65C72.5964 153.8 72.0464 153.24 71.2964 153.24C70.5364 153.24 69.9664 153.8 69.9664 154.65ZM71.3564 150.67C70.4364 150.67 69.8864 151.52 69.8864 152.88C70.1964 152.49 70.7764 152.19 71.5364 152.19C72.8764 152.19 73.9964 153.1 73.9964 154.67C73.9964 156.16 72.8664 157.13 71.2964 157.13C69.3564 157.13 68.5064 155.57 68.5064 153.54C68.5064 151.46 69.2764 149.62 71.4464 149.62C73.0264 149.62 73.7664 150.69 73.8464 151.62H72.4964C72.4264 151.02 71.9564 150.67 71.3564 150.67ZM79.8516 156.07C80.5716 156.07 81.0816 155.37 81.0816 154.32C81.0816 153.27 80.5716 152.56 79.8516 152.56C79.0916 152.56 78.5916 153.23 78.5916 154.31C78.5916 155.42 79.0916 156.07 79.8516 156.07ZM78.6416 157H77.2616V149.75H78.6416V152.31C78.9316 151.8 79.5116 151.5 80.1916 151.5C81.4916 151.5 82.5316 152.62 82.5316 154.31C82.5316 156.03 81.4716 157.13 80.1916 157.13C79.6316 157.13 78.9916 156.92 78.6416 156.32V157ZM83.7684 158.75H83.1884V157.69H83.7084C84.1684 157.69 84.3684 157.7 84.6084 157.13L84.6684 156.98L82.6084 151.62H84.1184L85.3384 155.5L86.5884 151.62H87.9884L86.0184 156.84C85.3784 158.51 85.1084 158.75 83.7684 158.75ZM88.7993 151.62V150.16H90.1793V151.62H91.2993V152.57H90.1793V155.35C90.1793 155.9 90.3693 156.01 90.8593 156.01H91.2793V157H90.2693C89.0293 157 88.7993 156.62 88.7993 155.55V152.57H88.0393V151.62H88.7993ZM97.1735 154.69H93.2035C93.2835 155.61 93.9035 156.06 94.5635 156.06C94.9935 156.06 95.4135 155.91 95.6935 155.44H97.1135C96.8235 156.24 96.0435 157.13 94.5735 157.13C92.8435 157.13 91.8335 155.84 91.8335 154.29C91.8335 152.69 92.9435 151.5 94.5335 151.5C96.1935 151.5 97.2235 152.79 97.1735 154.69ZM94.5235 152.51C94.0035 152.51 93.3335 152.83 93.2235 153.74H95.7735C95.7435 152.83 95.1035 152.51 94.5235 152.51ZM102.431 153.24H101.141C101.031 152.79 100.631 152.47 99.9912 152.47C99.4812 152.47 99.1212 152.66 99.1212 152.99C99.1212 153.28 99.3312 153.5 99.8412 153.61L100.561 153.77C101.631 154.01 102.541 154.28 102.541 155.39C102.541 156.47 101.431 157.13 100.211 157.13C98.8912 157.13 97.8912 156.45 97.7612 155.22H99.0912C99.1712 155.74 99.5312 156.13 100.251 156.13C100.851 156.13 101.221 155.91 101.221 155.52C101.221 155.12 100.811 154.97 100.341 154.86L99.5412 154.69C98.5312 154.48 97.8612 154.06 97.8612 153.08C97.8612 152.12 98.9012 151.48 100.061 151.48C101.181 151.48 102.241 152 102.431 153.24Z" fill="#F2F2F2"/>
<path d="M215.755 157H214.375V151.58H212.815V150.64C213.855 150.61 214.365 150.54 214.705 149.75H215.755V157ZM218.367 154.65C218.367 155.52 218.937 156.09 219.697 156.09C220.447 156.09 220.997 155.53 220.997 154.65C220.997 153.8 220.447 153.24 219.697 153.24C218.937 153.24 218.367 153.8 218.367 154.65ZM219.757 150.67C218.837 150.67 218.287 151.52 218.287 152.88C218.597 152.49 219.177 152.19 219.937 152.19C221.277 152.19 222.397 153.1 222.397 154.67C222.397 156.16 221.267 157.13 219.697 157.13C217.757 157.13 216.907 155.57 216.907 153.54C216.907 151.46 217.677 149.62 219.847 149.62C221.427 149.62 222.167 150.69 222.247 151.62H220.897C220.827 151.02 220.357 150.67 219.757 150.67ZM228.252 156.07C228.972 156.07 229.482 155.37 229.482 154.32C229.482 153.27 228.972 152.56 228.252 152.56C227.492 152.56 226.992 153.23 226.992 154.31C226.992 155.42 227.492 156.07 228.252 156.07ZM227.042 157H225.662V149.75H227.042V152.31C227.332 151.8 227.912 151.5 228.592 151.5C229.892 151.5 230.932 152.62 230.932 154.31C230.932 156.03 229.872 157.13 228.592 157.13C228.032 157.13 227.392 156.92 227.042 156.32V157ZM232.169 158.75H231.589V157.69H232.109C232.569 157.69 232.769 157.7 233.009 157.13L233.069 156.98L231.009 151.62H232.519L233.739 155.5L234.989 151.62H236.389L234.419 156.84C233.779 158.51 233.509 158.75 232.169 158.75ZM237.2 151.62V150.16H238.58V151.62H239.7V152.57H238.58V155.35C238.58 155.9 238.77 156.01 239.26 156.01H239.68V157H238.67C237.43 157 237.2 156.62 237.2 155.55V152.57H236.44V151.62H237.2ZM245.574 154.69H241.604C241.684 155.61 242.304 156.06 242.964 156.06C243.394 156.06 243.814 155.91 244.094 155.44H245.514C245.224 156.24 244.444 157.13 242.974 157.13C241.244 157.13 240.234 155.84 240.234 154.29C240.234 152.69 241.344 151.5 242.934 151.5C244.594 151.5 245.624 152.79 245.574 154.69ZM242.924 152.51C242.404 152.51 241.734 152.83 241.624 153.74H244.174C244.144 152.83 243.504 152.51 242.924 152.51ZM250.832 153.24H249.542C249.432 152.79 249.032 152.47 248.392 152.47C247.882 152.47 247.522 152.66 247.522 152.99C247.522 153.28 247.732 153.5 248.242 153.61L248.962 153.77C250.032 154.01 250.942 154.28 250.942 155.39C250.942 156.47 249.832 157.13 248.612 157.13C247.292 157.13 246.292 156.45 246.162 155.22H247.492C247.572 155.74 247.932 156.13 248.652 156.13C249.252 156.13 249.622 155.91 249.622 155.52C249.622 155.12 249.212 154.97 248.742 154.86L247.942 154.69C246.932 154.48 246.262 154.06 246.262 153.08C246.262 152.12 247.302 151.48 248.462 151.48C249.582 151.48 250.642 152 250.832 153.24Z" fill="#F2F2F2"/>
<path d="M387.388 149.62C388.928 149.62 389.918 150.41 389.918 151.48C389.918 152.13 389.668 152.73 389.038 153.12C389.848 153.59 390.138 154.22 390.138 154.93C390.138 156.34 388.928 157.13 387.388 157.13C385.868 157.13 384.648 156.34 384.648 154.93C384.648 154.22 384.948 153.57 385.758 153.12C385.158 152.77 384.868 152.13 384.868 151.49C384.868 150.41 385.868 149.62 387.388 149.62ZM387.388 153.68C386.578 153.68 386.058 154.15 386.058 154.87C386.058 155.59 386.578 156.09 387.388 156.09C388.218 156.09 388.728 155.59 388.728 154.87C388.728 154.15 388.218 153.68 387.388 153.68ZM388.578 151.65C388.578 151.05 388.108 150.66 387.388 150.66C386.668 150.66 386.208 151.05 386.208 151.65C386.208 152.25 386.668 152.69 387.388 152.69C388.108 152.69 388.578 152.25 388.578 151.65ZM396.06 156.07C396.78 156.07 397.29 155.37 397.29 154.32C397.29 153.27 396.78 152.56 396.06 152.56C395.3 152.56 394.8 153.23 394.8 154.31C394.8 155.42 395.3 156.07 396.06 156.07ZM394.85 157H393.47V149.75H394.85V152.31C395.14 151.8 395.72 151.5 396.4 151.5C397.7 151.5 398.74 152.62 398.74 154.31C398.74 156.03 397.68 157.13 396.4 157.13C395.84 157.13 395.2 156.92 394.85 156.32V157ZM399.976 158.75H399.396V157.69H399.916C400.376 157.69 400.576 157.7 400.816 157.13L400.876 156.98L398.816 151.62H400.326L401.546 155.5L402.796 151.62H404.196L402.226 156.84C401.586 158.51 401.316 158.75 399.976 158.75ZM405.007 151.62V150.16H406.387V151.62H407.507V152.57H406.387V155.35C406.387 155.9 406.577 156.01 407.067 156.01H407.487V157H406.477C405.237 157 405.007 156.62 405.007 155.55V152.57H404.247V151.62H405.007ZM413.381 154.69H409.411C409.491 155.61 410.111 156.06 410.771 156.06C411.201 156.06 411.621 155.91 411.901 155.44H413.321C413.031 156.24 412.251 157.13 410.781 157.13C409.051 157.13 408.041 155.84 408.041 154.29C408.041 152.69 409.151 151.5 410.741 151.5C412.401 151.5 413.431 152.79 413.381 154.69ZM410.731 152.51C410.211 152.51 409.541 152.83 409.431 153.74H411.981C411.951 152.83 411.311 152.51 410.731 152.51ZM418.639 153.24H417.349C417.239 152.79 416.839 152.47 416.199 152.47C415.689 152.47 415.329 152.66 415.329 152.99C415.329 153.28 415.539 153.5 416.049 153.61L416.769 153.77C417.839 154.01 418.749 154.28 418.749 155.39C418.749 156.47 417.639 157.13 416.419 157.13C415.099 157.13 414.099 156.45 413.969 155.22H415.299C415.379 155.74 415.739 156.13 416.459 156.13C417.059 156.13 417.429 155.91 417.429 155.52C417.429 155.12 417.019 154.97 416.549 154.86L415.749 154.69C414.739 154.48 414.069 154.06 414.069 153.08C414.069 152.12 415.109 151.48 416.269 151.48C417.389 151.48 418.449 152 418.639 153.24Z" fill="#F2F2F2"/>
</g>
<path d="M198.286 264.156C200.11 264.156 201.43 265.056 201.43 266.604C201.43 268.428 199.87 269.904 197.302 271.38H201.466V273H194.782V271.38C197.122 269.676 199.438 268.152 199.438 266.724C199.438 265.968 198.886 265.62 198.226 265.62C197.53 265.62 196.774 266.04 196.834 267.432H194.878C194.818 265.368 196.27 264.156 198.286 264.156ZM205.826 271.692C206.702 271.692 207.362 271.14 207.362 270.132C207.362 269.064 206.63 268.548 205.862 268.548C205.178 268.548 204.674 268.848 204.374 269.412L202.562 269.232L203.174 264.3H208.994V265.908H204.818L204.614 267.54C205.034 267.252 205.73 267.084 206.342 267.084C207.914 267.084 209.402 268.104 209.402 270.12C209.402 272.112 207.758 273.156 205.85 273.156C204.05 273.156 202.622 272.172 202.334 270.324H204.242C204.422 271.332 205.058 271.692 205.826 271.692ZM212.425 270.144C212.425 271.092 212.977 271.692 213.841 271.692C214.705 271.692 215.221 271.092 215.221 270.144C215.221 269.232 214.705 268.596 213.841 268.596C212.977 268.596 212.425 269.184 212.425 270.144ZM213.961 265.584C213.049 265.584 212.365 266.268 212.401 267.744C212.833 267.36 213.409 267.108 214.273 267.108C215.845 267.108 217.249 268.368 217.249 270.144C217.249 271.98 215.821 273.156 213.841 273.156C211.369 273.156 210.337 271.272 210.337 268.86C210.337 266.316 211.417 264.156 214.069 264.156C216.085 264.156 217.057 265.284 217.153 266.664H215.209C215.113 265.848 214.585 265.584 213.961 265.584ZM218.429 264.3H220.409V269.004L222.581 266.544H224.921L222.617 269.016L225.113 273H222.797L221.273 270.456L220.409 271.38V273H218.429V264.3ZM225.86 273V264.3H229.652C231.56 264.3 232.976 264.732 232.976 266.556C232.976 267.36 232.616 267.948 231.944 268.368C232.76 268.656 233.324 269.268 233.324 270.324C233.324 272.28 231.92 273 229.808 273H225.86ZM227.912 269.304V271.272H229.832C230.708 271.272 231.152 270.9 231.152 270.288C231.152 269.676 230.708 269.304 229.832 269.304H227.912ZM227.912 266.028V267.78H229.724C230.444 267.78 230.84 267.432 230.84 266.892C230.84 266.352 230.444 266.028 229.724 266.028H227.912ZM240.233 267.936C239.453 267.936 238.805 268.44 238.805 269.772C238.805 271.104 239.453 271.62 240.233 271.62C241.025 271.62 241.673 270.972 241.673 269.772C241.673 268.572 241.025 267.936 240.233 267.936ZM238.901 264.3V267.42C239.321 266.712 240.185 266.4 240.881 266.4C242.549 266.4 243.725 267.66 243.725 269.772C243.725 271.884 242.549 273.156 240.881 273.156C240.185 273.156 239.321 272.844 238.901 272.136V273H236.921V264.3H238.901ZM246.706 264.3V273H244.726V264.3H246.706ZM251.16 267.888C250.38 267.888 249.756 268.368 249.756 269.748C249.756 271.104 250.356 271.62 251.16 271.62C251.964 271.62 252.564 271.104 252.564 269.748C252.564 268.368 251.94 267.888 251.16 267.888ZM251.16 266.352C252.948 266.352 254.58 267.408 254.58 269.748C254.58 272.088 252.948 273.156 251.16 273.156C249.372 273.156 247.74 272.088 247.74 269.748C247.74 267.408 249.372 266.352 251.16 266.352ZM258.622 266.352C259.966 266.352 261.442 266.964 261.826 268.908H259.978C259.798 268.152 259.33 267.888 258.742 267.888C258.034 267.888 257.338 268.368 257.338 269.748C257.338 271.152 258.034 271.62 258.742 271.62C259.474 271.62 259.918 271.236 260.062 270.624H261.91C261.466 272.544 259.918 273.156 258.622 273.156C256.498 273.156 255.322 271.788 255.322 269.736C255.322 267.684 256.666 266.352 258.622 266.352ZM262.854 264.3H264.834V269.004L267.006 266.544H269.346L267.042 269.016L269.538 273H267.222L265.698 270.456L264.834 271.38V273H262.854V264.3Z" fill="#F2F2F2"/>
<defs>
<clipPath id="clip0_10218_44969">
<rect x="20" y="20" width="424" height="15" rx="7.5" fill="white"/>
</clipPath>
<clipPath id="clip1_10218_44969">
<rect x="20" y="75" width="423.98" height="32" rx="10" fill="white"/>
</clipPath>
<clipPath id="clip2_10218_44969">
<rect x="20" y="147" width="424" height="12" rx="6" fill="white"/>
</clipPath>
</defs>
</svg>
