<svg width="750" height="179" viewBox="0 0 750 179" fill="none" xmlns="http://www.w3.org/2000/svg">
<path d="M10 0.5H740C745.247 0.5 749.5 4.75329 749.5 10V169C749.5 174.247 745.247 178.5 740 178.5H10C4.7533 178.5 0.5 174.247 0.5 169V10C0.500002 4.7533 4.7533 0.5 10 0.5Z" fill="#FAFAFA"/>
<path d="M10 0.5H740C745.247 0.5 749.5 4.75329 749.5 10V169C749.5 174.247 745.247 178.5 740 178.5H10C4.7533 178.5 0.5 174.247 0.5 169V10C0.500002 4.7533 4.7533 0.5 10 0.5Z" fill="#E6E6E6"/>
<path d="M10 0.5H740C745.247 0.5 749.5 4.75329 749.5 10V169C749.5 174.247 745.247 178.5 740 178.5H10C4.7533 178.5 0.5 174.247 0.5 169V10C0.500002 4.7533 4.7533 0.5 10 0.5Z" stroke="#D9D9D9"/>
<path d="M398.741 32V23.3H405.413V25.1H400.793V26.624H405.161V28.436H400.793V30.188H405.413V32H398.741ZM408.594 25.544V26.396C408.882 25.916 409.578 25.4 410.598 25.4C412.254 25.4 412.77 26.372 412.77 28.124V32H410.79V28.616C410.79 27.692 410.754 26.936 409.794 26.936C408.942 26.936 408.594 27.488 408.594 28.688V32H406.614V25.544H408.594ZM416.983 25.352C418.327 25.352 419.803 25.964 420.187 27.908H418.339C418.159 27.152 417.691 26.888 417.103 26.888C416.395 26.888 415.699 27.368 415.699 28.748C415.699 30.152 416.395 30.62 417.103 30.62C417.835 30.62 418.279 30.236 418.423 29.624H420.271C419.827 31.544 418.279 32.156 416.983 32.156C414.859 32.156 413.683 30.788 413.683 28.736C413.683 26.684 415.027 25.352 416.983 25.352ZM425.188 25.508V27.44C424.96 27.404 424.828 27.404 424.648 27.404C423.688 27.404 423.196 27.752 423.196 28.76V32H421.216V25.544H423.124V26.768C423.424 26 423.964 25.532 424.888 25.496H425.032C425.092 25.496 425.14 25.496 425.188 25.508ZM426.74 34.1H426.104V32.672H426.5C427.316 32.672 427.484 32.612 427.676 32.132L427.736 31.964L425.324 25.544H427.496L428.684 29.588L429.956 25.544H432.08L429.548 32C428.9 33.644 428.42 34.1 426.74 34.1ZM434.774 25.544V26.42C435.194 25.712 436.058 25.4 436.754 25.4C438.422 25.4 439.598 26.66 439.598 28.772C439.598 30.884 438.422 32.156 436.754 32.156C436.058 32.156 435.194 31.844 434.774 31.136V34.1H432.794V25.544H434.774ZM436.106 26.936C435.326 26.936 434.678 27.44 434.678 28.772C434.678 30.104 435.326 30.62 436.106 30.62C436.898 30.62 437.546 29.972 437.546 28.772C437.546 27.572 436.898 26.936 436.106 26.936ZM440.911 25.544V23.78H442.891V25.544H444.307V26.948H442.891V29.84C442.891 30.452 443.083 30.572 443.743 30.572H444.307V32H443.047C441.451 32 440.911 31.688 440.911 30.188V26.948H439.891V25.544H440.911ZM449.904 29.972H451.728C451.152 31.496 449.796 32.156 448.512 32.156C446.412 32.156 444.972 30.884 444.972 28.736C444.972 26.672 446.544 25.352 448.428 25.352C450.576 25.352 451.884 26.972 451.752 29.276H446.964C447.024 30.188 447.732 30.62 448.452 30.62C449.208 30.62 449.676 30.356 449.904 29.972ZM448.428 26.864C447.72 26.864 447.096 27.224 446.988 28.076H449.784C449.748 27.26 449.184 26.864 448.428 26.864ZM457.307 23.3H459.287V32H457.307V31.136C456.887 31.844 456.023 32.156 455.327 32.156C453.659 32.156 452.483 30.884 452.483 28.772C452.483 26.66 453.659 25.4 455.327 25.4C456.023 25.4 456.887 25.712 457.307 26.42V23.3ZM455.975 26.936C455.183 26.936 454.535 27.572 454.535 28.772C454.535 29.972 455.183 30.62 455.975 30.62C456.755 30.62 457.403 30.104 457.403 28.772C457.403 27.44 456.755 26.936 455.975 26.936Z" fill="#0D0D0D"/>
<path d="M569 65V60C569 57.2386 566.761 55 564 55L422.75 55C419.989 55 417.75 52.7614 417.75 50V45" stroke="#0D0D0D" stroke-miterlimit="10"/>
<path d="M266.5 65V60C266.5 57.2386 268.739 55 271.5 55L412.75 55C415.511 55 417.75 52.7614 417.75 50V45" stroke="#0D0D0D" stroke-miterlimit="10"/>
<g clip-path="url(#clip0_10207_6327)">
<rect width="84.78" height="32" transform="translate(20 75)" fill="white"/>
<path d="M48.7694 86.8V94.336H53.2574V95.5H47.4014V86.8H48.7694ZM56.8257 94.588C57.7377 94.588 58.2417 94.216 58.5177 93.604H59.7777C59.4897 94.672 58.5057 95.656 56.8737 95.656C54.7977 95.656 53.6577 94.132 53.6577 92.26C53.6577 90.256 55.0017 88.924 56.8377 88.924C58.8297 88.924 59.9937 90.556 59.8617 92.656H54.9417C55.0737 93.856 55.8057 94.588 56.8257 94.588ZM56.8257 89.944C55.8537 89.944 55.1457 90.436 54.9657 91.672H58.5657C58.5297 90.724 57.8457 89.944 56.8257 89.944ZM62.3341 89.044V89.98C62.7061 89.344 63.3541 88.924 64.3621 88.924C65.9221 88.924 66.5221 89.932 66.5221 91.432V95.5H65.2741V91.768C65.2741 90.844 65.1301 89.968 63.9421 89.968C62.8501 89.968 62.3341 90.736 62.3341 92.032V95.5H61.0861V89.044H62.3341ZM68.3342 89.044V87.388H69.5822V89.044H70.8542V89.992H69.5822V93.676C69.5822 94.336 69.6902 94.504 70.3142 94.504H70.8422V95.5H69.9302C68.6222 95.5 68.3342 95.176 68.3342 93.844V89.992H67.3502V89.044H68.3342ZM73.4318 86.8V89.98C73.8038 89.344 74.4518 88.924 75.4598 88.924C77.0198 88.924 77.6198 89.932 77.6198 91.432V95.5H76.3718V91.768C76.3718 90.844 76.2278 89.968 75.0398 89.968C73.9478 89.968 73.4318 90.736 73.4318 92.032V95.5H72.1838V86.8H73.4318Z" fill="#666666"/>
<mask id="path-9-inside-1_10207_6327" fill="white">
<path d="M104.781 75H265.851V107H104.781V75Z"/>
</mask>
<path d="M104.781 75H265.851V107H104.781V75Z" fill="white"/>
<path d="M104.781 107H105.781V75H104.781H103.781V107H104.781Z" fill="#D9D9D9" mask="url(#path-9-inside-1_10207_6327)"/>
<path d="M167.189 95.5H165.281L161.441 88.3V95.5H160.097V86.8H162.005L165.845 93.988V86.8H167.189V95.5ZM169.876 92.296C169.876 93.88 170.752 94.6 171.688 94.6C172.648 94.6 173.512 93.868 173.512 92.296C173.512 90.7 172.648 89.98 171.688 89.98C170.752 89.98 169.876 90.664 169.876 92.296ZM171.688 88.924C173.224 88.924 174.832 89.956 174.832 92.296C174.832 94.624 173.224 95.656 171.688 95.656C170.164 95.656 168.556 94.624 168.556 92.296C168.556 89.956 170.164 88.924 171.688 88.924ZM177.326 89.044V89.98C177.698 89.344 178.346 88.924 179.354 88.924C180.914 88.924 181.514 89.932 181.514 91.432V95.5H180.266V91.768C180.266 90.844 180.122 89.968 178.934 89.968C177.842 89.968 177.326 90.736 177.326 92.032V95.5H176.078V89.044H177.326ZM185.75 88.924C187.226 88.924 188.354 89.968 188.546 91.228H187.298C187.166 90.496 186.506 89.992 185.69 89.992C184.79 89.992 183.962 90.7 183.962 92.272C183.962 93.868 184.79 94.588 185.69 94.588C186.494 94.588 187.166 94.12 187.346 93.352H188.606C188.342 94.708 187.094 95.656 185.666 95.656C183.794 95.656 182.63 94.24 182.63 92.284C182.63 90.376 183.842 88.924 185.75 88.924ZM192.56 94.588C193.472 94.588 193.976 94.216 194.252 93.604H195.512C195.224 94.672 194.24 95.656 192.608 95.656C190.532 95.656 189.392 94.132 189.392 92.26C189.392 90.256 190.736 88.924 192.572 88.924C194.564 88.924 195.728 90.556 195.596 92.656H190.676C190.808 93.856 191.54 94.588 192.56 94.588ZM192.56 89.944C191.588 89.944 190.88 90.436 190.7 91.672H194.3C194.264 90.724 193.58 89.944 192.56 89.944ZM197.18 95.5H195.956L199.352 86.8H200.588L197.18 95.5ZM202.879 86.8V95.5H201.511V86.8H202.879ZM203.916 86.8H205.416L207.732 93.976L209.988 86.8H211.428L208.464 95.5H206.916L203.916 86.8Z" fill="#666666"/>
<mask id="path-12-inside-2_10207_6327" fill="white">
<path d="M265.852 75H350.632V107H265.852V75Z"/>
</mask>
<path d="M265.852 75H350.632V107H265.852V75Z" fill="white"/>
<path d="M265.852 107H266.852V75H265.852H264.852V107H265.852Z" fill="#D9D9D9" mask="url(#path-12-inside-2_10207_6327)"/>
<path d="M285.402 92.668H286.722C286.338 94.588 284.91 95.656 282.966 95.656C280.446 95.656 278.982 93.808 278.982 91.132C278.982 88.408 280.554 86.644 283.05 86.644C284.91 86.644 286.338 87.724 286.686 89.632H285.366C285.09 88.492 284.274 87.784 282.99 87.784C281.514 87.784 280.386 88.96 280.386 91.132C280.386 93.28 281.502 94.516 283.002 94.516C284.298 94.516 285.126 93.82 285.402 92.668ZM289.201 86.8V89.98C289.573 89.344 290.221 88.924 291.229 88.924C292.789 88.924 293.389 89.932 293.389 91.432V95.5H292.141V91.768C292.141 90.844 291.997 89.968 290.809 89.968C289.717 89.968 289.201 90.736 289.201 92.032V95.5H287.953V86.8H289.201ZM297.673 94.588C298.585 94.588 299.089 94.216 299.365 93.604H300.625C300.337 94.672 299.353 95.656 297.721 95.656C295.645 95.656 294.505 94.132 294.505 92.26C294.505 90.256 295.849 88.924 297.685 88.924C299.677 88.924 300.841 90.556 300.709 92.656H295.789C295.921 93.856 296.653 94.588 297.673 94.588ZM297.673 89.944C296.701 89.944 295.993 90.436 295.813 91.672H299.413C299.377 90.724 298.693 89.944 297.673 89.944ZM304.668 88.924C306.144 88.924 307.272 89.968 307.464 91.228H306.216C306.084 90.496 305.424 89.992 304.608 89.992C303.708 89.992 302.88 90.7 302.88 92.272C302.88 93.868 303.708 94.588 304.608 94.588C305.412 94.588 306.084 94.12 306.264 93.352H307.524C307.26 94.708 306.012 95.656 304.584 95.656C302.712 95.656 301.548 94.24 301.548 92.284C301.548 90.376 302.76 88.924 304.668 88.924ZM308.695 86.8H309.943V91.804L312.511 89.044H314.035L311.527 91.708L314.215 95.5H312.727L310.675 92.608L309.943 93.388V95.5H308.695V86.8ZM319.768 90.844H318.532C318.352 90.172 317.8 89.92 317.068 89.92C316.456 89.92 315.796 90.172 315.796 90.7C315.796 91.18 316.108 91.372 316.696 91.504L317.62 91.684C318.832 91.936 319.912 92.332 319.912 93.604C319.912 94.912 318.688 95.656 317.2 95.656C315.556 95.656 314.572 94.708 314.416 93.496H315.688C315.868 94.228 316.324 94.66 317.236 94.66C318.052 94.66 318.664 94.324 318.664 93.748C318.664 93.16 318.1 92.908 317.428 92.776L316.456 92.584C315.484 92.392 314.572 91.972 314.572 90.748C314.572 89.608 315.784 88.912 317.188 88.912C318.496 88.912 319.516 89.596 319.768 90.844ZM325.148 95.5V94.588C324.776 95.248 324.152 95.656 323.18 95.656C321.656 95.656 321.068 94.72 321.068 93.148V89.044H322.316V92.812C322.316 93.736 322.472 94.6 323.6 94.6C324.656 94.6 325.16 93.832 325.16 92.548V89.044H326.408V95.5H325.148ZM329.326 92.032V95.5H328.078V89.044H329.326V89.98C329.698 89.344 330.31 88.924 331.234 88.924C332.242 88.924 332.818 89.344 333.106 90.064C333.646 89.248 334.39 88.924 335.242 88.924C336.754 88.924 337.342 89.932 337.342 91.432V95.5H336.094V91.768C336.094 90.844 335.938 89.968 334.822 89.968C333.826 89.968 333.334 90.736 333.334 92.032V95.5H332.086V91.768C332.086 90.844 331.93 89.968 330.814 89.968C329.806 89.968 329.326 90.736 329.326 92.032Z" fill="#666666"/>
<mask id="path-15-inside-3_10207_6327" fill="white">
<path d="M350.629 75H568.929V107H350.629V75Z"/>
</mask>
<path d="M350.629 75H568.929V107H350.629V75Z" fill="white"/>
<path d="M350.629 107H351.629V75H350.629H349.629V107H350.629Z" fill="#D9D9D9" mask="url(#path-15-inside-3_10207_6327)"/>
<path d="M446.505 95.5V86.8H452.529V87.964H447.873V90.448H452.265V91.6H447.873V94.336H452.529V95.5H446.505ZM455.004 89.044V89.98C455.376 89.344 456.024 88.924 457.032 88.924C458.592 88.924 459.192 89.932 459.192 91.432V95.5H457.944V91.768C457.944 90.844 457.8 89.968 456.612 89.968C455.52 89.968 455.004 90.736 455.004 92.032V95.5H453.756V89.044H455.004ZM461.004 89.044V87.388H462.252V89.044H463.524V89.992H462.252V93.676C462.252 94.336 462.36 94.504 462.984 94.504H463.512V95.5H462.6C461.292 95.5 461.004 95.176 461.004 93.844V89.992H460.02V89.044H461.004ZM468.096 89.032V90.328C467.868 90.304 467.652 90.292 467.448 90.292C466.488 90.292 465.984 90.76 465.984 92.116V95.5H464.736V89.044H465.96V90.184C466.296 89.452 466.932 89.032 467.748 89.02C467.856 89.02 467.988 89.02 468.096 89.032ZM469.36 97.6H468.76V96.604H469.252C469.924 96.604 470.212 96.544 470.524 95.632L470.572 95.488L468.244 89.044H469.624L471.184 93.856L472.708 89.044H474.004L471.724 95.644C471.184 97.168 470.824 97.6 469.36 97.6Z" fill="#666666"/>
<mask id="path-18-inside-4_10207_6327" fill="white">
<path d="M568.93 75H730V107H568.93V75Z"/>
</mask>
<path d="M568.93 75H730V107H568.93V75Z" fill="white"/>
<path d="M568.93 107H569.93V75H568.93H567.93V107H568.93Z" fill="#D9D9D9" mask="url(#path-18-inside-4_10207_6327)"/>
<path d="M642.306 95.5V87.964H639.51V86.8H646.458V87.964H643.674V95.5H642.306ZM650.335 92.896V92.428C648.331 92.62 647.275 92.908 647.275 93.736C647.275 94.324 647.731 94.696 648.499 94.696C649.519 94.696 650.335 94.18 650.335 92.896ZM648.223 95.656C646.915 95.656 645.919 94.936 645.919 93.76C645.919 92.188 647.779 91.756 650.275 91.504V91.372C650.275 90.232 649.675 89.848 648.883 89.848C648.019 89.848 647.527 90.28 647.479 91.084H646.219C646.315 89.704 647.455 88.888 648.931 88.888C650.599 88.888 651.547 89.692 651.535 91.624C651.535 91.78 651.511 92.896 651.511 93.172C651.511 94.144 651.571 94.924 651.691 95.5H650.491C650.443 95.248 650.419 95.068 650.383 94.648C649.999 95.308 649.279 95.656 648.223 95.656ZM657.372 89.992V89.044H658.62V94.744C658.62 95.932 658.368 96.568 657.924 97.012C657.432 97.528 656.664 97.792 655.668 97.792C654.216 97.792 653.172 97.168 652.968 95.812H654.252C654.384 96.4 654.744 96.748 655.692 96.748C656.28 96.748 656.712 96.592 656.988 96.28C657.24 96.004 657.372 95.68 657.372 95.008V94.324C656.976 94.996 656.34 95.392 655.38 95.392C653.88 95.392 652.632 94.216 652.632 92.152C652.632 90.1 653.88 88.924 655.38 88.924C656.34 88.924 656.976 89.32 657.372 89.992ZM657.42 92.152C657.42 90.616 656.628 89.956 655.668 89.956C654.624 89.956 653.964 90.76 653.964 92.152C653.964 93.556 654.624 94.372 655.668 94.372C656.628 94.372 657.42 93.688 657.42 92.152Z" fill="#666666"/>
</g>
<rect x="20.5" y="75.5" width="709" height="31" rx="9.5" stroke="#E6E6E6"/>
<path d="M20 117V122C20 124.761 22.2386 127 25 127H57.5C60.2614 127 62.5 129.239 62.5 132V137" stroke="#0D0D0D" stroke-miterlimit="10"/>
<path d="M105 117V122C105 124.761 102.761 127 100 127H67.5C64.7386 127 62.5 129.239 62.5 132V137" stroke="#0D0D0D" stroke-miterlimit="10"/>
<path d="M105 117V122C105 124.761 107.239 127 110 127H180.5C183.261 127 185.5 129.239 185.5 132V137" stroke="#0D0D0D" stroke-miterlimit="10"/>
<path d="M266 117V122C266 124.761 263.761 127 261 127H190.5C187.739 127 185.5 129.239 185.5 132V137" stroke="#0D0D0D" stroke-miterlimit="10"/>
<path d="M266 117V122C266 124.761 268.239 127 271 127H303.5C306.261 127 308.5 129.239 308.5 132V137" stroke="#0D0D0D" stroke-miterlimit="10"/>
<path d="M351 117V122C351 124.761 348.761 127 346 127H313.5C310.739 127 308.5 129.239 308.5 132V137" stroke="#0D0D0D" stroke-miterlimit="10"/>
<path d="M351 117V122C351 124.761 353.239 127 356 127H455C457.761 127 460 129.239 460 132V137" stroke="#0D0D0D" stroke-miterlimit="10"/>
<path d="M569 117V122C569 124.761 566.761 127 564 127H465C462.239 127 460 129.239 460 132V137" stroke="#0D0D0D" stroke-miterlimit="10"/>
<path d="M569 117V122C569 124.761 571.239 127 574 127H644.5C647.261 127 649.5 129.239 649.5 132V137" stroke="#0D0D0D" stroke-miterlimit="10"/>
<path d="M730 117V122C730 124.761 727.761 127 725 127H654.5C651.739 127 649.5 129.239 649.5 132V137" stroke="#0D0D0D" stroke-miterlimit="10"/>
<g clip-path="url(#clip1_10207_6327)">
<path d="M47.8514 149.62C49.3914 149.62 50.3814 150.41 50.3814 151.48C50.3814 152.13 50.1314 152.73 49.5014 153.12C50.3114 153.59 50.6014 154.22 50.6014 154.93C50.6014 156.34 49.3914 157.13 47.8514 157.13C46.3314 157.13 45.1114 156.34 45.1114 154.93C45.1114 154.22 45.4114 153.57 46.2214 153.12C45.6214 152.77 45.3314 152.13 45.3314 151.49C45.3314 150.41 46.3314 149.62 47.8514 149.62ZM47.8514 153.68C47.0414 153.68 46.5214 154.15 46.5214 154.87C46.5214 155.59 47.0414 156.09 47.8514 156.09C48.6814 156.09 49.1914 155.59 49.1914 154.87C49.1914 154.15 48.6814 153.68 47.8514 153.68ZM49.0414 151.65C49.0414 151.05 48.5714 150.66 47.8514 150.66C47.1314 150.66 46.6714 151.05 46.6714 151.65C46.6714 152.25 47.1314 152.69 47.8514 152.69C48.5714 152.69 49.0414 152.25 49.0414 151.65ZM53.9635 157V149.75H56.7835C58.0535 149.75 59.4235 150.15 59.4235 151.64C59.4235 152.32 58.9735 152.93 58.6035 153.17C59.1635 153.44 59.6835 153.86 59.6835 154.86C59.6835 156.42 58.3935 157 56.9035 157H53.9635ZM55.3935 153.82V155.88H56.9735C57.8135 155.88 58.2235 155.53 58.2235 154.86C58.2235 154.18 57.8035 153.82 56.9135 153.82H55.3935ZM55.3935 150.87V152.74H56.8735C57.5535 152.74 57.9535 152.42 57.9535 151.78C57.9535 151.21 57.5435 150.87 56.8735 150.87H55.3935ZM61.1141 158.75H60.5341V157.69H61.0541C61.5141 157.69 61.7141 157.7 61.9541 157.13L62.0141 156.98L59.9541 151.62H61.4641L62.6841 155.5L63.9341 151.62H65.3341L63.3641 156.84C62.7241 158.51 62.4541 158.75 61.1141 158.75ZM66.145 151.62V150.16H67.525V151.62H68.645V152.57H67.525V155.35C67.525 155.9 67.715 156.01 68.205 156.01H68.625V157H67.615C66.375 157 66.145 156.62 66.145 155.55V152.57H65.385V151.62H66.145ZM74.5192 154.69H70.5492C70.6292 155.61 71.2492 156.06 71.9092 156.06C72.3392 156.06 72.7592 155.91 73.0392 155.44H74.4592C74.1692 156.24 73.3892 157.13 71.9192 157.13C70.1892 157.13 69.1792 155.84 69.1792 154.29C69.1792 152.69 70.2892 151.5 71.8792 151.5C73.5392 151.5 74.5692 152.79 74.5192 154.69ZM71.8692 152.51C71.3492 152.51 70.6792 152.83 70.5692 153.74H73.1192C73.0892 152.83 72.4492 152.51 71.8692 152.51ZM79.7769 153.24H78.4869C78.3769 152.79 77.9769 152.47 77.3369 152.47C76.8269 152.47 76.4669 152.66 76.4669 152.99C76.4669 153.28 76.6769 153.5 77.1869 153.61L77.9069 153.77C78.9769 154.01 79.8869 154.28 79.8869 155.39C79.8869 156.47 78.7769 157.13 77.5569 157.13C76.2369 157.13 75.2369 156.45 75.1069 155.22H76.4369C76.5169 155.74 76.8769 156.13 77.5969 156.13C78.1969 156.13 78.5669 155.91 78.5669 155.52C78.5669 155.12 78.1569 154.97 77.6869 154.86L76.8869 154.69C75.8769 154.48 75.2069 154.06 75.2069 153.08C75.2069 152.12 76.2469 151.48 77.4069 151.48C78.5269 151.48 79.5869 152 79.7769 153.24Z" fill="#0D0D0D"/>
<path d="M168.735 157H167.355V151.58H165.795V150.64C166.835 150.61 167.345 150.54 167.685 149.75H168.735V157ZM171.346 154.65C171.346 155.52 171.916 156.09 172.676 156.09C173.426 156.09 173.976 155.53 173.976 154.65C173.976 153.8 173.426 153.24 172.676 153.24C171.916 153.24 171.346 153.8 171.346 154.65ZM172.736 150.67C171.816 150.67 171.266 151.52 171.266 152.88C171.576 152.49 172.156 152.19 172.916 152.19C174.256 152.19 175.376 153.1 175.376 154.67C175.376 156.16 174.246 157.13 172.676 157.13C170.736 157.13 169.886 155.57 169.886 153.54C169.886 151.46 170.656 149.62 172.826 149.62C174.406 149.62 175.146 150.69 175.226 151.62H173.876C173.806 151.02 173.336 150.67 172.736 150.67ZM178.671 157V149.75H181.491C182.761 149.75 184.131 150.15 184.131 151.64C184.131 152.32 183.681 152.93 183.311 153.17C183.871 153.44 184.391 153.86 184.391 154.86C184.391 156.42 183.101 157 181.611 157H178.671ZM180.101 153.82V155.88H181.681C182.521 155.88 182.931 155.53 182.931 154.86C182.931 154.18 182.511 153.82 181.621 153.82H180.101ZM180.101 150.87V152.74H181.581C182.261 152.74 182.661 152.42 182.661 151.78C182.661 151.21 182.251 150.87 181.581 150.87H180.101ZM185.822 158.75H185.242V157.69H185.762C186.222 157.69 186.422 157.7 186.662 157.13L186.722 156.98L184.662 151.62H186.172L187.392 155.5L188.642 151.62H190.042L188.072 156.84C187.432 158.51 187.162 158.75 185.822 158.75ZM190.853 151.62V150.16H192.233V151.62H193.353V152.57H192.233V155.35C192.233 155.9 192.423 156.01 192.913 156.01H193.333V157H192.323C191.083 157 190.853 156.62 190.853 155.55V152.57H190.093V151.62H190.853ZM199.227 154.69H195.257C195.337 155.61 195.957 156.06 196.617 156.06C197.047 156.06 197.467 155.91 197.747 155.44H199.167C198.877 156.24 198.097 157.13 196.627 157.13C194.897 157.13 193.887 155.84 193.887 154.29C193.887 152.69 194.997 151.5 196.587 151.5C198.247 151.5 199.277 152.79 199.227 154.69ZM196.577 152.51C196.057 152.51 195.387 152.83 195.277 153.74H197.827C197.797 152.83 197.157 152.51 196.577 152.51ZM204.485 153.24H203.195C203.085 152.79 202.685 152.47 202.045 152.47C201.535 152.47 201.175 152.66 201.175 152.99C201.175 153.28 201.385 153.5 201.895 153.61L202.615 153.77C203.685 154.01 204.595 154.28 204.595 155.39C204.595 156.47 203.485 157.13 202.265 157.13C200.945 157.13 199.945 156.45 199.815 155.22H201.145C201.225 155.74 201.585 156.13 202.305 156.13C202.905 156.13 203.275 155.91 203.275 155.52C203.275 155.12 202.865 154.97 202.395 154.86L201.595 154.69C200.585 154.48 199.915 154.06 199.915 153.08C199.915 152.12 200.955 151.48 202.115 151.48C203.235 151.48 204.295 152 204.485 153.24Z" fill="#0D0D0D"/>
<path d="M293.703 149.62C295.243 149.62 296.233 150.41 296.233 151.48C296.233 152.13 295.983 152.73 295.353 153.12C296.163 153.59 296.453 154.22 296.453 154.93C296.453 156.34 295.243 157.13 293.703 157.13C292.183 157.13 290.963 156.34 290.963 154.93C290.963 154.22 291.263 153.57 292.073 153.12C291.473 152.77 291.183 152.13 291.183 151.49C291.183 150.41 292.183 149.62 293.703 149.62ZM293.703 153.68C292.893 153.68 292.373 154.15 292.373 154.87C292.373 155.59 292.893 156.09 293.703 156.09C294.533 156.09 295.043 155.59 295.043 154.87C295.043 154.15 294.533 153.68 293.703 153.68ZM294.893 151.65C294.893 151.05 294.423 150.66 293.703 150.66C292.983 150.66 292.523 151.05 292.523 151.65C292.523 152.25 292.983 152.69 293.703 152.69C294.423 152.69 294.893 152.25 294.893 151.65ZM299.815 157V149.75H302.635C303.905 149.75 305.275 150.15 305.275 151.64C305.275 152.32 304.825 152.93 304.455 153.17C305.015 153.44 305.535 153.86 305.535 154.86C305.535 156.42 304.245 157 302.755 157H299.815ZM301.245 153.82V155.88H302.825C303.665 155.88 304.075 155.53 304.075 154.86C304.075 154.18 303.655 153.82 302.765 153.82H301.245ZM301.245 150.87V152.74H302.725C303.405 152.74 303.805 152.42 303.805 151.78C303.805 151.21 303.395 150.87 302.725 150.87H301.245ZM306.966 158.75H306.386V157.69H306.906C307.366 157.69 307.566 157.7 307.806 157.13L307.866 156.98L305.806 151.62H307.316L308.536 155.5L309.786 151.62H311.186L309.216 156.84C308.576 158.51 308.306 158.75 306.966 158.75ZM311.997 151.62V150.16H313.377V151.62H314.497V152.57H313.377V155.35C313.377 155.9 313.567 156.01 314.057 156.01H314.477V157H313.467C312.227 157 311.997 156.62 311.997 155.55V152.57H311.237V151.62H311.997ZM320.371 154.69H316.401C316.481 155.61 317.101 156.06 317.761 156.06C318.191 156.06 318.611 155.91 318.891 155.44H320.311C320.021 156.24 319.241 157.13 317.771 157.13C316.041 157.13 315.031 155.84 315.031 154.29C315.031 152.69 316.141 151.5 317.731 151.5C319.391 151.5 320.421 152.79 320.371 154.69ZM317.721 152.51C317.201 152.51 316.531 152.83 316.421 153.74H318.971C318.941 152.83 318.301 152.51 317.721 152.51ZM325.628 153.24H324.338C324.228 152.79 323.828 152.47 323.188 152.47C322.678 152.47 322.318 152.66 322.318 152.99C322.318 153.28 322.528 153.5 323.038 153.61L323.758 153.77C324.828 154.01 325.738 154.28 325.738 155.39C325.738 156.47 324.628 157.13 323.408 157.13C322.088 157.13 321.088 156.45 320.958 155.22H322.288C322.368 155.74 322.728 156.13 323.448 156.13C324.048 156.13 324.418 155.91 324.418 155.52C324.418 155.12 324.008 154.97 323.538 154.86L322.738 154.69C321.728 154.48 321.058 154.06 321.058 153.08C321.058 152.12 322.098 151.48 323.258 151.48C324.378 151.48 325.438 152 325.628 153.24Z" fill="#0D0D0D"/>
<path d="M430.832 149.75V155.84H434.362V157H429.402V149.75H430.832ZM439.967 154.69H435.997C436.077 155.61 436.697 156.06 437.357 156.06C437.787 156.06 438.207 155.91 438.487 155.44H439.907C439.617 156.24 438.837 157.13 437.367 157.13C435.637 157.13 434.627 155.84 434.627 154.29C434.627 152.69 435.737 151.5 437.327 151.5C438.987 151.5 440.017 152.79 439.967 154.69ZM437.317 152.51C436.797 152.51 436.127 152.83 436.017 153.74H438.567C438.537 152.83 437.897 152.51 437.317 152.51ZM442.236 151.62V152.33C442.546 151.78 443.126 151.5 443.796 151.5C445.086 151.5 445.656 152.28 445.656 153.61V157H444.276V153.91C444.276 153.22 444.126 152.61 443.346 152.61C442.436 152.61 442.236 153.35 442.236 154.2V157H440.856V151.62H442.236ZM449.153 155.76C449.923 155.76 450.393 155.11 450.393 154.15C450.393 153.2 449.923 152.55 449.153 152.55C448.443 152.55 447.913 153.26 447.913 154.16C447.913 155.05 448.443 155.76 449.153 155.76ZM450.343 151.62H451.713V156.46C451.713 158.22 450.723 158.88 449.073 158.88C447.923 158.88 446.913 158.46 446.723 157.21H448.033C448.153 157.65 448.523 157.87 449.143 157.87C449.863 157.87 450.343 157.53 450.343 156.72V156C449.993 156.59 449.363 156.81 448.803 156.81C447.483 156.81 446.463 155.72 446.463 154.15C446.463 152.62 447.453 151.5 448.803 151.5C449.483 151.5 450.103 151.85 450.343 152.32V151.62ZM453.156 151.62V150.16H454.536V151.62H455.656V152.57H454.536V155.35C454.536 155.9 454.726 156.01 455.216 156.01H455.636V157H454.626C453.386 157 453.156 156.62 453.156 155.55V152.57H452.396V151.62H453.156ZM457.92 149.75V152.33C458.23 151.78 458.81 151.5 459.48 151.5C460.77 151.5 461.34 152.28 461.34 153.61V157H459.96V153.91C459.96 153.22 459.81 152.61 459.03 152.61C458.12 152.61 457.92 153.35 457.92 154.2V157H456.54V149.75H457.92ZM464.783 157V149.75H467.603C468.873 149.75 470.243 150.15 470.243 151.64C470.243 152.32 469.793 152.93 469.423 153.17C469.983 153.44 470.503 153.86 470.503 154.86C470.503 156.42 469.213 157 467.723 157H464.783ZM466.213 153.82V155.88H467.793C468.633 155.88 469.043 155.53 469.043 154.86C469.043 154.18 468.623 153.82 467.733 153.82H466.213ZM466.213 150.87V152.74H467.693C468.373 152.74 468.773 152.42 468.773 151.78C468.773 151.21 468.363 150.87 467.693 150.87H466.213ZM471.933 158.75H471.353V157.69H471.873C472.333 157.69 472.533 157.7 472.773 157.13L472.833 156.98L470.773 151.62H472.283L473.503 155.5L474.753 151.62H476.153L474.183 156.84C473.543 158.51 473.273 158.75 471.933 158.75ZM481.667 154.69H477.697C477.777 155.61 478.397 156.06 479.057 156.06C479.487 156.06 479.907 155.91 480.187 155.44H481.607C481.317 156.24 480.537 157.13 479.067 157.13C477.337 157.13 476.327 155.84 476.327 154.29C476.327 152.69 477.437 151.5 479.027 151.5C480.687 151.5 481.717 152.79 481.667 154.69ZM479.017 152.51C478.497 152.51 477.827 152.83 477.717 153.74H480.267C480.237 152.83 479.597 152.51 479.017 152.51ZM482.746 151.62V150.16H484.126V151.62H485.246V152.57H484.126V155.35C484.126 155.9 484.316 156.01 484.806 156.01H485.226V157H484.216C482.976 157 482.746 156.62 482.746 155.55V152.57H481.986V151.62H482.746ZM490.45 153.24H489.16C489.05 152.79 488.65 152.47 488.01 152.47C487.5 152.47 487.14 152.66 487.14 152.99C487.14 153.28 487.35 153.5 487.86 153.61L488.58 153.77C489.65 154.01 490.56 154.28 490.56 155.39C490.56 156.47 489.45 157.13 488.23 157.13C486.91 157.13 485.91 156.45 485.78 155.22H487.11C487.19 155.74 487.55 156.13 488.27 156.13C488.87 156.13 489.24 155.91 489.24 155.52C489.24 155.12 488.83 154.97 488.36 154.86L487.56 154.69C486.55 154.48 485.88 154.06 485.88 153.08C485.88 152.12 486.92 151.48 488.08 151.48C489.2 151.48 490.26 152 490.45 153.24Z" fill="#0D0D0D"/>
<path d="M632.883 157H631.503V151.58H629.943V150.64C630.983 150.61 631.493 150.54 631.833 149.75H632.883V157ZM635.495 154.65C635.495 155.52 636.065 156.09 636.825 156.09C637.575 156.09 638.125 155.53 638.125 154.65C638.125 153.8 637.575 153.24 636.825 153.24C636.065 153.24 635.495 153.8 635.495 154.65ZM636.885 150.67C635.965 150.67 635.415 151.52 635.415 152.88C635.725 152.49 636.305 152.19 637.065 152.19C638.405 152.19 639.525 153.1 639.525 154.67C639.525 156.16 638.395 157.13 636.825 157.13C634.885 157.13 634.035 155.57 634.035 153.54C634.035 151.46 634.805 149.62 636.975 149.62C638.555 149.62 639.295 150.69 639.375 151.62H638.025C637.955 151.02 637.485 150.67 636.885 150.67ZM642.82 157V149.75H645.64C646.91 149.75 648.28 150.15 648.28 151.64C648.28 152.32 647.83 152.93 647.46 153.17C648.02 153.44 648.54 153.86 648.54 154.86C648.54 156.42 647.25 157 645.76 157H642.82ZM644.25 153.82V155.88H645.83C646.67 155.88 647.08 155.53 647.08 154.86C647.08 154.18 646.66 153.82 645.77 153.82H644.25ZM644.25 150.87V152.74H645.73C646.41 152.74 646.81 152.42 646.81 151.78C646.81 151.21 646.4 150.87 645.73 150.87H644.25ZM649.971 158.75H649.391V157.69H649.911C650.371 157.69 650.571 157.7 650.811 157.13L650.871 156.98L648.811 151.62H650.321L651.541 155.5L652.791 151.62H654.191L652.221 156.84C651.581 158.51 651.311 158.75 649.971 158.75ZM655.001 151.62V150.16H656.381V151.62H657.501V152.57H656.381V155.35C656.381 155.9 656.571 156.01 657.061 156.01H657.481V157H656.471C655.231 157 655.001 156.62 655.001 155.55V152.57H654.241V151.62H655.001ZM663.376 154.69H659.406C659.486 155.61 660.106 156.06 660.766 156.06C661.196 156.06 661.616 155.91 661.896 155.44H663.316C663.026 156.24 662.246 157.13 660.776 157.13C659.046 157.13 658.036 155.84 658.036 154.29C658.036 152.69 659.146 151.5 660.736 151.5C662.396 151.5 663.426 152.79 663.376 154.69ZM660.726 152.51C660.206 152.51 659.536 152.83 659.426 153.74H661.976C661.946 152.83 661.306 152.51 660.726 152.51ZM668.633 153.24H667.343C667.233 152.79 666.833 152.47 666.193 152.47C665.683 152.47 665.323 152.66 665.323 152.99C665.323 153.28 665.533 153.5 666.043 153.61L666.763 153.77C667.833 154.01 668.743 154.28 668.743 155.39C668.743 156.47 667.633 157.13 666.413 157.13C665.093 157.13 664.093 156.45 663.963 155.22H665.293C665.373 155.74 665.733 156.13 666.453 156.13C667.053 156.13 667.423 155.91 667.423 155.52C667.423 155.12 667.013 154.97 666.543 154.86L665.743 154.69C664.733 154.48 664.063 154.06 664.063 153.08C664.063 152.12 665.103 151.48 666.263 151.48C667.383 151.48 668.443 152 668.633 153.24Z" fill="#0D0D0D"/>
</g>
<defs>
<clipPath id="clip0_10207_6327">
<rect x="20" y="75" width="710" height="32" rx="10" fill="white"/>
</clipPath>
<clipPath id="clip1_10207_6327">
<rect x="20" y="147" width="710" height="12" rx="6" fill="white"/>
</clipPath>
</defs>
</svg>
