<svg width="750" height="224" viewBox="0 0 750 224" fill="none" xmlns="http://www.w3.org/2000/svg">
<path d="M10 0.5H454C459.247 0.500001 463.5 4.7533 463.5 10V214C463.5 219.247 459.247 223.5 454 223.5H10C4.7533 223.5 0.5 219.247 0.5 214V10L0.512695 9.51074C0.767339 4.49142 4.91739 0.5 10 0.5Z" fill="#0D0D0D"/>
<path d="M10 0.5H454C459.247 0.500001 463.5 4.7533 463.5 10V214C463.5 219.247 459.247 223.5 454 223.5H10C4.7533 223.5 0.5 219.247 0.5 214V10L0.512695 9.51074C0.767339 4.49142 4.91739 0.5 10 0.5Z" fill="#1A1A1A"/>
<path d="M10 0.5H454C459.247 0.500001 463.5 4.7533 463.5 10V214C463.5 219.247 459.247 223.5 454 223.5H10C4.7533 223.5 0.5 219.247 0.5 214V10L0.512695 9.51074C0.767339 4.49142 4.91739 0.5 10 0.5Z" stroke="#4C4C4C"/>
<g clip-path="url(#clip0_10207_20714)">
<path d="M173.449 25.88L171.385 28.424H173.449V25.88ZM176.629 28.424V30.164H175.429V32H173.449V30.164H169.213V28.616L173.593 23.3H175.429V28.424H176.629ZM181.007 32.156C178.559 32.156 177.275 30.416 177.275 27.632C177.275 24.86 178.559 23.156 181.007 23.156C183.443 23.156 184.727 24.86 184.727 27.632C184.727 30.416 183.443 32.156 181.007 32.156ZM181.007 30.692C182.015 30.692 182.699 29.744 182.699 27.632C182.699 25.532 182.015 24.62 181.007 24.62C179.987 24.62 179.303 25.532 179.303 27.632C179.303 29.744 179.987 30.692 181.007 30.692ZM191.899 26.936C191.119 26.936 190.471 27.44 190.471 28.772C190.471 30.104 191.119 30.62 191.899 30.62C192.691 30.62 193.339 29.972 193.339 28.772C193.339 27.572 192.691 26.936 191.899 26.936ZM190.567 23.3V26.42C190.987 25.712 191.851 25.4 192.547 25.4C194.215 25.4 195.391 26.66 195.391 28.772C195.391 30.884 194.215 32.156 192.547 32.156C191.851 32.156 190.987 31.844 190.567 31.136V32H188.587V23.3H190.567ZM196.889 34.1H196.253V32.672H196.649C197.465 32.672 197.633 32.612 197.825 32.132L197.885 31.964L195.473 25.544H197.645L198.833 29.588L200.105 25.544H202.229L199.697 32C199.049 33.644 198.569 34.1 196.889 34.1ZM203.254 25.544V23.78H205.234V25.544H206.65V26.948H205.234V29.84C205.234 30.452 205.426 30.572 206.086 30.572H206.65V32H205.39C203.794 32 203.254 31.688 203.254 30.188V26.948H202.234V25.544H203.254ZM212.248 29.972H214.072C213.496 31.496 212.14 32.156 210.856 32.156C208.756 32.156 207.316 30.884 207.316 28.736C207.316 26.672 208.888 25.352 210.772 25.352C212.92 25.352 214.228 26.972 214.096 29.276H209.308C209.368 30.188 210.076 30.62 210.796 30.62C211.552 30.62 212.02 30.356 212.248 29.972ZM210.772 26.864C210.064 26.864 209.44 27.224 209.332 28.076H212.128C212.092 27.26 211.528 26.864 210.772 26.864ZM221.032 26.936C220.252 26.936 219.604 27.44 219.604 28.772C219.604 30.104 220.252 30.62 221.032 30.62C221.824 30.62 222.472 29.972 222.472 28.772C222.472 27.572 221.824 26.936 221.032 26.936ZM219.7 23.3V26.42C220.12 25.712 220.984 25.4 221.68 25.4C223.348 25.4 224.524 26.66 224.524 28.772C224.524 30.884 223.348 32.156 221.68 32.156C220.984 32.156 220.12 31.844 219.7 31.136V32H217.72V23.3H219.7ZM227.504 23.3V32H225.524V23.3H227.504ZM231.959 26.888C231.179 26.888 230.555 27.368 230.555 28.748C230.555 30.104 231.155 30.62 231.959 30.62C232.763 30.62 233.363 30.104 233.363 28.748C233.363 27.368 232.739 26.888 231.959 26.888ZM231.959 25.352C233.747 25.352 235.379 26.408 235.379 28.748C235.379 31.088 233.747 32.156 231.959 32.156C230.171 32.156 228.539 31.088 228.539 28.748C228.539 26.408 230.171 25.352 231.959 25.352ZM239.421 25.352C240.765 25.352 242.241 25.964 242.625 27.908H240.777C240.597 27.152 240.129 26.888 239.541 26.888C238.833 26.888 238.137 27.368 238.137 28.748C238.137 30.152 238.833 30.62 239.541 30.62C240.273 30.62 240.717 30.236 240.861 29.624H242.709C242.265 31.544 240.717 32.156 239.421 32.156C237.297 32.156 236.121 30.788 236.121 28.736C236.121 26.684 237.465 25.352 239.421 25.352ZM243.653 23.3H245.633V28.004L247.805 25.544H250.145L247.841 28.016L250.337 32H248.021L246.497 29.456L245.633 30.38V32H243.653V23.3ZM255.559 23.3V26.396C255.847 25.916 256.543 25.4 257.563 25.4C259.219 25.4 259.735 26.372 259.735 28.124V32H257.755V28.616C257.755 27.692 257.731 26.936 256.771 26.936C255.919 26.936 255.559 27.488 255.559 28.688V32H253.579V23.3H255.559ZM265.58 29.972H267.404C266.828 31.496 265.472 32.156 264.188 32.156C262.088 32.156 260.648 30.884 260.648 28.736C260.648 26.672 262.22 25.352 264.104 25.352C266.252 25.352 267.56 26.972 267.428 29.276H262.64C262.7 30.188 263.408 30.62 264.128 30.62C264.884 30.62 265.352 30.356 265.58 29.972ZM264.104 26.864C263.396 26.864 262.772 27.224 262.664 28.076H265.46C265.424 27.26 264.86 26.864 264.104 26.864ZM272.422 27.968V27.716C272.422 26.948 272.05 26.684 271.33 26.684C270.694 26.684 270.262 27.008 270.178 27.632H268.33C268.426 26.42 269.578 25.34 271.498 25.34C273.358 25.34 274.414 26.096 274.378 28.052L274.354 29.456V30.128C274.354 30.836 274.402 31.592 274.498 32H272.554L272.53 31.22C272.05 31.904 271.282 32.156 270.358 32.156C269.134 32.156 268.126 31.436 268.126 30.26C268.126 28.676 269.914 28.16 272.422 27.968ZM272.47 29.288V29.132C271.09 29.264 270.166 29.42 270.166 30.116C270.166 30.536 270.562 30.812 271.078 30.812C271.87 30.812 272.47 30.476 272.47 29.288ZM280.038 23.3H282.018V32H280.038V31.136C279.618 31.844 278.754 32.156 278.058 32.156C276.39 32.156 275.214 30.884 275.214 28.772C275.214 26.66 276.39 25.4 278.058 25.4C278.754 25.4 279.618 25.712 280.038 26.42V23.3ZM278.706 26.936C277.914 26.936 277.266 27.572 277.266 28.772C277.266 29.972 277.914 30.62 278.706 30.62C279.486 30.62 280.134 30.104 280.134 28.772C280.134 27.44 279.486 26.936 278.706 26.936ZM287.986 29.972H289.81C289.234 31.496 287.878 32.156 286.594 32.156C284.494 32.156 283.054 30.884 283.054 28.736C283.054 26.672 284.626 25.352 286.51 25.352C288.658 25.352 289.966 26.972 289.834 29.276H285.046C285.106 30.188 285.814 30.62 286.534 30.62C287.29 30.62 287.758 30.356 287.986 29.972ZM286.51 26.864C285.802 26.864 285.178 27.224 285.07 28.076H287.866C287.83 27.26 287.266 26.864 286.51 26.864ZM294.852 25.508V27.44C294.624 27.404 294.492 27.404 294.312 27.404C293.352 27.404 292.86 27.752 292.86 28.76V32H290.88V25.544H292.788V26.768C293.088 26 293.628 25.532 294.552 25.496H294.696C294.756 25.496 294.804 25.496 294.852 25.508Z" fill="#F2F2F2"/>
</g>
<path d="M444 65V60C444 57.2386 441.761 55 439 55L237 55C234.239 55 232 52.7614 232 50V45" stroke="#F2F2F2" stroke-miterlimit="10"/>
<path d="M20 65V60C20 57.2386 22.2386 55 25 55L227 55C229.761 55 232 52.7614 232 50V45" stroke="#F2F2F2" stroke-miterlimit="10"/>
<g clip-path="url(#clip1_10207_20714)">
<rect width="127.2" height="32" transform="translate(20 75)" fill="#333333"/>
<path d="M65.4739 95.5H63.5659L59.7259 88.3V95.5H58.3819V86.8H60.2899L64.1299 93.988V86.8H65.4739V95.5ZM68.1616 92.296C68.1616 93.88 69.0376 94.6 69.9736 94.6C70.9336 94.6 71.7976 93.868 71.7976 92.296C71.7976 90.7 70.9336 89.98 69.9736 89.98C69.0376 89.98 68.1616 90.664 68.1616 92.296ZM69.9736 88.924C71.5096 88.924 73.1176 89.956 73.1176 92.296C73.1176 94.624 71.5096 95.656 69.9736 95.656C68.4496 95.656 66.8416 94.624 66.8416 92.296C66.8416 89.956 68.4496 88.924 69.9736 88.924ZM75.6114 89.044V89.98C75.9834 89.344 76.6314 88.924 77.6394 88.924C79.1994 88.924 79.7994 89.932 79.7994 91.432V95.5H78.5514V91.768C78.5514 90.844 78.4074 89.968 77.2194 89.968C76.1274 89.968 75.6114 90.736 75.6114 92.032V95.5H74.3634V89.044H75.6114ZM84.0355 88.924C85.5115 88.924 86.6395 89.968 86.8315 91.228H85.5835C85.4515 90.496 84.7915 89.992 83.9755 89.992C83.0755 89.992 82.2475 90.7 82.2475 92.272C82.2475 93.868 83.0755 94.588 83.9755 94.588C84.7795 94.588 85.4515 94.12 85.6315 93.352H86.8915C86.6275 94.708 85.3795 95.656 83.9515 95.656C82.0795 95.656 80.9155 94.24 80.9155 92.284C80.9155 90.376 82.1275 88.924 84.0355 88.924ZM90.8453 94.588C91.7573 94.588 92.2613 94.216 92.5373 93.604H93.7973C93.5093 94.672 92.5253 95.656 90.8933 95.656C88.8173 95.656 87.6772 94.132 87.6772 92.26C87.6772 90.256 89.0213 88.924 90.8573 88.924C92.8493 88.924 94.0133 90.556 93.8813 92.656H88.9613C89.0933 93.856 89.8253 94.588 90.8453 94.588ZM90.8453 89.944C89.8733 89.944 89.1653 90.436 88.9853 91.672H92.5853C92.5493 90.724 91.8653 89.944 90.8453 89.944ZM95.4656 95.5H94.2416L97.6376 86.8H98.8736L95.4656 95.5ZM101.164 86.8V95.5H99.7959V86.8H101.164ZM102.201 86.8H103.701L106.017 93.976L108.273 86.8H109.713L106.749 95.5H105.201L102.201 86.8Z" fill="#B2B2B2"/>
<mask id="path-9-inside-1_10207_20714" fill="white">
<path d="M147.199 75H316.799V107H147.199V75Z"/>
</mask>
<path d="M147.199 75H316.799V107H147.199V75Z" fill="#333333"/>
<path d="M147.199 107H148.199V75H147.199H146.199V107H147.199Z" fill="#4C4C4C" mask="url(#path-9-inside-1_10207_20714)"/>
<path d="M224.841 95.5V87.964H222.045V86.8H228.993V87.964H226.209V95.5H224.841ZM232.87 92.896V92.428C230.866 92.62 229.81 92.908 229.81 93.736C229.81 94.324 230.266 94.696 231.034 94.696C232.054 94.696 232.87 94.18 232.87 92.896ZM230.758 95.656C229.45 95.656 228.454 94.936 228.454 93.76C228.454 92.188 230.314 91.756 232.81 91.504V91.372C232.81 90.232 232.21 89.848 231.418 89.848C230.554 89.848 230.062 90.28 230.014 91.084H228.754C228.85 89.704 229.99 88.888 231.466 88.888C233.134 88.888 234.082 89.692 234.07 91.624C234.07 91.78 234.046 92.896 234.046 93.172C234.046 94.144 234.106 94.924 234.226 95.5H233.026C232.978 95.248 232.954 95.068 232.918 94.648C232.534 95.308 231.814 95.656 230.758 95.656ZM239.907 89.992V89.044H241.155V94.744C241.155 95.932 240.903 96.568 240.459 97.012C239.967 97.528 239.199 97.792 238.203 97.792C236.751 97.792 235.707 97.168 235.503 95.812H236.787C236.919 96.4 237.279 96.748 238.227 96.748C238.815 96.748 239.247 96.592 239.523 96.28C239.775 96.004 239.907 95.68 239.907 95.008V94.324C239.511 94.996 238.875 95.392 237.915 95.392C236.415 95.392 235.167 94.216 235.167 92.152C235.167 90.1 236.415 88.924 237.915 88.924C238.875 88.924 239.511 89.32 239.907 89.992ZM239.955 92.152C239.955 90.616 239.163 89.956 238.203 89.956C237.159 89.956 236.499 90.76 236.499 92.152C236.499 93.556 237.159 94.372 238.203 94.372C239.163 94.372 239.955 93.688 239.955 92.152Z" fill="#B2B2B2"/>
<mask id="path-12-inside-2_10207_20714" fill="white">
<path d="M316.801 75H359.201V107H316.801V75Z"/>
</mask>
<path d="M316.801 75H359.201V107H316.801V75Z" fill="#333333"/>
<path d="M316.801 107H317.801V75H316.801H315.801V107H316.801Z" fill="#4C4C4C" mask="url(#path-12-inside-2_10207_20714)"/>
<mask id="path-14-inside-3_10207_20714" fill="white">
<path d="M359.199 75H443.979V107H359.199V75Z"/>
</mask>
<path d="M359.199 75H443.979V107H359.199V75Z" fill="#333333"/>
<path d="M359.199 107H360.199V75H359.199H358.199V107H359.199Z" fill="#4C4C4C" mask="url(#path-14-inside-3_10207_20714)"/>
<path d="M378.75 92.668H380.07C379.686 94.588 378.258 95.656 376.314 95.656C373.794 95.656 372.33 93.808 372.33 91.132C372.33 88.408 373.902 86.644 376.398 86.644C378.258 86.644 379.686 87.724 380.034 89.632H378.714C378.438 88.492 377.622 87.784 376.338 87.784C374.862 87.784 373.734 88.96 373.734 91.132C373.734 93.28 374.85 94.516 376.35 94.516C377.646 94.516 378.474 93.82 378.75 92.668ZM382.549 86.8V89.98C382.921 89.344 383.569 88.924 384.577 88.924C386.137 88.924 386.737 89.932 386.737 91.432V95.5H385.489V91.768C385.489 90.844 385.345 89.968 384.157 89.968C383.065 89.968 382.549 90.736 382.549 92.032V95.5H381.301V86.8H382.549ZM391.021 94.588C391.933 94.588 392.437 94.216 392.713 93.604H393.973C393.685 94.672 392.701 95.656 391.069 95.656C388.993 95.656 387.853 94.132 387.853 92.26C387.853 90.256 389.197 88.924 391.033 88.924C393.025 88.924 394.189 90.556 394.057 92.656H389.137C389.269 93.856 390.001 94.588 391.021 94.588ZM391.021 89.944C390.049 89.944 389.341 90.436 389.161 91.672H392.761C392.725 90.724 392.041 89.944 391.021 89.944ZM398.016 88.924C399.492 88.924 400.62 89.968 400.812 91.228H399.564C399.432 90.496 398.772 89.992 397.956 89.992C397.056 89.992 396.228 90.7 396.228 92.272C396.228 93.868 397.056 94.588 397.956 94.588C398.76 94.588 399.432 94.12 399.612 93.352H400.872C400.608 94.708 399.36 95.656 397.932 95.656C396.06 95.656 394.896 94.24 394.896 92.284C394.896 90.376 396.108 88.924 398.016 88.924ZM402.043 86.8H403.291V91.804L405.859 89.044H407.383L404.875 91.708L407.563 95.5H406.075L404.023 92.608L403.291 93.388V95.5H402.043V86.8ZM413.115 90.844H411.879C411.699 90.172 411.147 89.92 410.415 89.92C409.803 89.92 409.143 90.172 409.143 90.7C409.143 91.18 409.455 91.372 410.043 91.504L410.967 91.684C412.179 91.936 413.259 92.332 413.259 93.604C413.259 94.912 412.035 95.656 410.547 95.656C408.903 95.656 407.919 94.708 407.763 93.496H409.035C409.215 94.228 409.671 94.66 410.583 94.66C411.399 94.66 412.011 94.324 412.011 93.748C412.011 93.16 411.447 92.908 410.775 92.776L409.803 92.584C408.831 92.392 407.919 91.972 407.919 90.748C407.919 89.608 409.131 88.912 410.535 88.912C411.843 88.912 412.863 89.596 413.115 90.844ZM418.496 95.5V94.588C418.124 95.248 417.5 95.656 416.528 95.656C415.004 95.656 414.416 94.72 414.416 93.148V89.044H415.664V92.812C415.664 93.736 415.82 94.6 416.948 94.6C418.004 94.6 418.508 93.832 418.508 92.548V89.044H419.756V95.5H418.496ZM422.674 92.032V95.5H421.426V89.044H422.674V89.98C423.046 89.344 423.658 88.924 424.582 88.924C425.59 88.924 426.166 89.344 426.454 90.064C426.994 89.248 427.738 88.924 428.59 88.924C430.102 88.924 430.69 89.932 430.69 91.432V95.5H429.442V91.768C429.442 90.844 429.286 89.968 428.17 89.968C427.174 89.968 426.682 90.736 426.682 92.032V95.5H425.434V91.768C425.434 90.844 425.278 89.968 424.162 89.968C423.154 89.968 422.674 90.736 422.674 92.032Z" fill="#B2B2B2"/>
</g>
<rect x="20.5" y="75.5" width="422.98" height="31" rx="9.5" stroke="#333333"/>
<path d="M20 117V122C20 124.761 22.2386 127 25 127H78.6C81.3614 127 83.6 129.239 83.6 132V137" stroke="#F2F2F2" stroke-miterlimit="10"/>
<path d="M147.199 117V122C147.199 124.761 144.961 127 142.199 127H88.5992C85.8378 127 83.5992 129.239 83.5992 132V137" stroke="#F2F2F2" stroke-miterlimit="10"/>
<path d="M147.199 117V122C147.199 124.761 149.438 127 152.199 127H226.999C229.761 127 231.999 129.239 231.999 132V137" stroke="#F2F2F2" stroke-miterlimit="10"/>
<path d="M316.801 117V122C316.801 124.761 314.562 127 311.801 127H237.001C234.239 127 232.001 129.239 232.001 132V137" stroke="#F2F2F2" stroke-miterlimit="10"/>
<path d="M359.199 117V122C359.199 124.761 361.438 127 364.199 127H396.589C399.351 127 401.589 129.239 401.589 132V137" stroke="#F2F2F2" stroke-miterlimit="10"/>
<path d="M443.98 117V122C443.98 124.761 441.742 127 438.98 127H406.59C403.829 127 401.59 129.239 401.59 132V137" stroke="#F2F2F2" stroke-miterlimit="10"/>
<g clip-path="url(#clip2_10207_20714)">
<path d="M67.2642 157H65.8842V151.58H64.3242V150.64C65.3642 150.61 65.8742 150.54 66.2142 149.75H67.2642V157ZM71.0256 149.62C72.4756 149.62 73.4056 150.3 73.4056 151.57C73.4056 152.92 72.0856 154.35 69.8556 155.84H73.5756V157H68.2456V155.88C70.5756 154.01 72.0156 152.79 72.0156 151.64C72.0156 151 71.6256 150.64 70.9456 150.64C70.3356 150.64 69.7156 151.01 69.7156 152.09H68.3756C68.3456 150.6 69.4256 149.62 71.0256 149.62ZM76.7125 157V149.75H79.5325C80.8025 149.75 82.1725 150.15 82.1725 151.64C82.1725 152.32 81.7225 152.93 81.3525 153.17C81.9125 153.44 82.4325 153.86 82.4325 154.86C82.4325 156.42 81.1425 157 79.6525 157H76.7125ZM78.1425 153.82V155.88H79.7225C80.5625 155.88 80.9725 155.53 80.9725 154.86C80.9725 154.18 80.5525 153.82 79.6625 153.82H78.1425ZM78.1425 150.87V152.74H79.6225C80.3025 152.74 80.7025 152.42 80.7025 151.78C80.7025 151.21 80.2925 150.87 79.6225 150.87H78.1425ZM83.8631 158.75H83.2831V157.69H83.8031C84.2631 157.69 84.4631 157.7 84.7031 157.13L84.7631 156.98L82.7031 151.62H84.2131L85.4331 155.5L86.6831 151.62H88.0831L86.1131 156.84C85.4731 158.51 85.2031 158.75 83.8631 158.75ZM88.894 151.62V150.16H90.274V151.62H91.394V152.57H90.274V155.35C90.274 155.9 90.464 156.01 90.954 156.01H91.374V157H90.364C89.124 157 88.894 156.62 88.894 155.55V152.57H88.134V151.62H88.894ZM97.2682 154.69H93.2982C93.3782 155.61 93.9982 156.06 94.6582 156.06C95.0882 156.06 95.5082 155.91 95.7882 155.44H97.2082C96.9182 156.24 96.1382 157.13 94.6682 157.13C92.9382 157.13 91.9282 155.84 91.9282 154.29C91.9282 152.69 93.0382 151.5 94.6282 151.5C96.2882 151.5 97.3182 152.79 97.2682 154.69ZM94.6182 152.51C94.0982 152.51 93.4282 152.83 93.3182 153.74H95.8682C95.8382 152.83 95.1982 152.51 94.6182 152.51ZM102.526 153.24H101.236C101.126 152.79 100.726 152.47 100.086 152.47C99.5759 152.47 99.2159 152.66 99.2159 152.99C99.2159 153.28 99.4259 153.5 99.9359 153.61L100.656 153.77C101.726 154.01 102.636 154.28 102.636 155.39C102.636 156.47 101.526 157.13 100.306 157.13C98.9859 157.13 97.9859 156.45 97.8559 155.22H99.1859C99.2659 155.74 99.6259 156.13 100.346 156.13C100.946 156.13 101.316 155.91 101.316 155.52C101.316 155.12 100.906 154.97 100.436 154.86L99.6359 154.69C98.6259 154.48 97.9559 154.06 97.9559 153.08C97.9559 152.12 98.9959 151.48 100.156 151.48C101.276 151.48 102.336 152 102.526 153.24Z" fill="#F2F2F2"/>
<path d="M215.419 157H214.039V151.58H212.479V150.64C213.519 150.61 214.029 150.54 214.369 149.75H215.419V157ZM218.03 154.65C218.03 155.52 218.6 156.09 219.36 156.09C220.11 156.09 220.66 155.53 220.66 154.65C220.66 153.8 220.11 153.24 219.36 153.24C218.6 153.24 218.03 153.8 218.03 154.65ZM219.42 150.67C218.5 150.67 217.95 151.52 217.95 152.88C218.26 152.49 218.84 152.19 219.6 152.19C220.94 152.19 222.06 153.1 222.06 154.67C222.06 156.16 220.93 157.13 219.36 157.13C217.42 157.13 216.57 155.57 216.57 153.54C216.57 151.46 217.34 149.62 219.51 149.62C221.09 149.62 221.83 150.69 221.91 151.62H220.56C220.49 151.02 220.02 150.67 219.42 150.67ZM225.355 157V149.75H228.175C229.445 149.75 230.815 150.15 230.815 151.64C230.815 152.32 230.365 152.93 229.995 153.17C230.555 153.44 231.075 153.86 231.075 154.86C231.075 156.42 229.785 157 228.295 157H225.355ZM226.785 153.82V155.88H228.365C229.205 155.88 229.615 155.53 229.615 154.86C229.615 154.18 229.195 153.82 228.305 153.82H226.785ZM226.785 150.87V152.74H228.265C228.945 152.74 229.345 152.42 229.345 151.78C229.345 151.21 228.935 150.87 228.265 150.87H226.785ZM232.506 158.75H231.926V157.69H232.446C232.906 157.69 233.106 157.7 233.346 157.13L233.406 156.98L231.346 151.62H232.856L234.076 155.5L235.326 151.62H236.726L234.756 156.84C234.116 158.51 233.846 158.75 232.506 158.75ZM237.537 151.62V150.16H238.917V151.62H240.037V152.57H238.917V155.35C238.917 155.9 239.107 156.01 239.597 156.01H240.017V157H239.007C237.767 157 237.537 156.62 237.537 155.55V152.57H236.777V151.62H237.537ZM245.911 154.69H241.941C242.021 155.61 242.641 156.06 243.301 156.06C243.731 156.06 244.151 155.91 244.431 155.44H245.851C245.561 156.24 244.781 157.13 243.311 157.13C241.581 157.13 240.571 155.84 240.571 154.29C240.571 152.69 241.681 151.5 243.271 151.5C244.931 151.5 245.961 152.79 245.911 154.69ZM243.261 152.51C242.741 152.51 242.071 152.83 241.961 153.74H244.511C244.481 152.83 243.841 152.51 243.261 152.51ZM251.169 153.24H249.879C249.769 152.79 249.369 152.47 248.729 152.47C248.219 152.47 247.859 152.66 247.859 152.99C247.859 153.28 248.069 153.5 248.579 153.61L249.299 153.77C250.369 154.01 251.279 154.28 251.279 155.39C251.279 156.47 250.169 157.13 248.949 157.13C247.629 157.13 246.629 156.45 246.499 155.22H247.829C247.909 155.74 248.269 156.13 248.989 156.13C249.589 156.13 249.959 155.91 249.959 155.52C249.959 155.12 249.549 154.97 249.079 154.86L248.279 154.69C247.269 154.48 246.599 154.06 246.599 153.08C246.599 152.12 247.639 151.48 248.799 151.48C249.919 151.48 250.979 152 251.169 153.24Z" fill="#F2F2F2"/>
<path d="M387.051 149.62C388.591 149.62 389.581 150.41 389.581 151.48C389.581 152.13 389.331 152.73 388.701 153.12C389.511 153.59 389.801 154.22 389.801 154.93C389.801 156.34 388.591 157.13 387.051 157.13C385.531 157.13 384.311 156.34 384.311 154.93C384.311 154.22 384.611 153.57 385.421 153.12C384.821 152.77 384.531 152.13 384.531 151.49C384.531 150.41 385.531 149.62 387.051 149.62ZM387.051 153.68C386.241 153.68 385.721 154.15 385.721 154.87C385.721 155.59 386.241 156.09 387.051 156.09C387.881 156.09 388.391 155.59 388.391 154.87C388.391 154.15 387.881 153.68 387.051 153.68ZM388.241 151.65C388.241 151.05 387.771 150.66 387.051 150.66C386.331 150.66 385.871 151.05 385.871 151.65C385.871 152.25 386.331 152.69 387.051 152.69C387.771 152.69 388.241 152.25 388.241 151.65ZM393.163 157V149.75H395.983C397.253 149.75 398.623 150.15 398.623 151.64C398.623 152.32 398.173 152.93 397.803 153.17C398.363 153.44 398.883 153.86 398.883 154.86C398.883 156.42 397.593 157 396.103 157H393.163ZM394.593 153.82V155.88H396.173C397.013 155.88 397.423 155.53 397.423 154.86C397.423 154.18 397.003 153.82 396.113 153.82H394.593ZM394.593 150.87V152.74H396.073C396.753 152.74 397.153 152.42 397.153 151.78C397.153 151.21 396.743 150.87 396.073 150.87H394.593ZM400.313 158.75H399.733V157.69H400.253C400.713 157.69 400.913 157.7 401.153 157.13L401.213 156.98L399.153 151.62H400.663L401.883 155.5L403.133 151.62H404.533L402.563 156.84C401.923 158.51 401.653 158.75 400.313 158.75ZM405.344 151.62V150.16H406.724V151.62H407.844V152.57H406.724V155.35C406.724 155.9 406.914 156.01 407.404 156.01H407.824V157H406.814C405.574 157 405.344 156.62 405.344 155.55V152.57H404.584V151.62H405.344ZM413.718 154.69H409.748C409.828 155.61 410.448 156.06 411.108 156.06C411.538 156.06 411.958 155.91 412.238 155.44H413.658C413.368 156.24 412.588 157.13 411.118 157.13C409.388 157.13 408.378 155.84 408.378 154.29C408.378 152.69 409.488 151.5 411.078 151.5C412.738 151.5 413.768 152.79 413.718 154.69ZM411.068 152.51C410.548 152.51 409.878 152.83 409.768 153.74H412.318C412.288 152.83 411.648 152.51 411.068 152.51ZM418.976 153.24H417.686C417.576 152.79 417.176 152.47 416.536 152.47C416.026 152.47 415.666 152.66 415.666 152.99C415.666 153.28 415.876 153.5 416.386 153.61L417.106 153.77C418.176 154.01 419.086 154.28 419.086 155.39C419.086 156.47 417.976 157.13 416.756 157.13C415.436 157.13 414.436 156.45 414.306 155.22H415.636C415.716 155.74 416.076 156.13 416.796 156.13C417.396 156.13 417.766 155.91 417.766 155.52C417.766 155.12 417.356 154.97 416.886 154.86L416.086 154.69C415.076 154.48 414.406 154.06 414.406 153.08C414.406 152.12 415.446 151.48 416.606 151.48C417.726 151.48 418.786 152 418.976 153.24Z" fill="#F2F2F2"/>
</g>
<path d="M197.301 192.156C199.125 192.156 200.445 193.056 200.445 194.604C200.445 196.428 198.885 197.904 196.317 199.38H200.481V201H193.797V199.38C196.137 197.676 198.453 196.152 198.453 194.724C198.453 193.968 197.901 193.62 197.241 193.62C196.545 193.62 195.789 194.04 195.849 195.432H193.893C193.833 193.368 195.285 192.156 197.301 192.156ZM204.842 199.692C205.718 199.692 206.378 199.14 206.378 198.132C206.378 197.064 205.646 196.548 204.878 196.548C204.194 196.548 203.69 196.848 203.39 197.412L201.578 197.232L202.19 192.3H208.01V193.908H203.834L203.63 195.54C204.05 195.252 204.746 195.084 205.358 195.084C206.93 195.084 208.418 196.104 208.418 198.12C208.418 200.112 206.774 201.156 204.866 201.156C203.066 201.156 201.638 200.172 201.35 198.324H203.258C203.438 199.332 204.074 199.692 204.842 199.692ZM211.441 198.144C211.441 199.092 211.993 199.692 212.857 199.692C213.721 199.692 214.237 199.092 214.237 198.144C214.237 197.232 213.721 196.596 212.857 196.596C211.993 196.596 211.441 197.184 211.441 198.144ZM212.977 193.584C212.065 193.584 211.381 194.268 211.417 195.744C211.849 195.36 212.425 195.108 213.289 195.108C214.861 195.108 216.265 196.368 216.265 198.144C216.265 199.98 214.837 201.156 212.857 201.156C210.385 201.156 209.353 199.272 209.353 196.86C209.353 194.316 210.433 192.156 213.085 192.156C215.101 192.156 216.073 193.284 216.169 194.664H214.225C214.129 193.848 213.601 193.584 212.977 193.584ZM219.58 192.3V195.744L222.736 192.3H225.244L222.028 195.768L225.412 201H222.94L220.588 197.328L219.58 198.432V201H217.528V192.3H219.58ZM226.083 201V192.3H229.875C231.783 192.3 233.199 192.732 233.199 194.556C233.199 195.36 232.839 195.948 232.167 196.368C232.983 196.656 233.547 197.268 233.547 198.324C233.547 200.28 232.143 201 230.031 201H226.083ZM228.135 197.304V199.272H230.055C230.931 199.272 231.375 198.9 231.375 198.288C231.375 197.676 230.931 197.304 230.055 197.304H228.135ZM228.135 194.028V195.78H229.947C230.667 195.78 231.063 195.432 231.063 194.892C231.063 194.352 230.667 194.028 229.947 194.028H228.135ZM237.228 201V192.3H241.02C242.928 192.3 244.344 192.732 244.344 194.556C244.344 195.36 243.984 195.948 243.312 196.368C244.128 196.656 244.692 197.268 244.692 198.324C244.692 200.28 243.288 201 241.176 201H237.228ZM239.28 197.304V199.272H241.2C242.076 199.272 242.52 198.9 242.52 198.288C242.52 197.676 242.076 197.304 241.2 197.304H239.28ZM239.28 194.028V195.78H241.092C241.812 195.78 242.208 195.432 242.208 194.892C242.208 194.352 241.812 194.028 241.092 194.028H239.28ZM247.69 192.3V201H245.71V192.3H247.69ZM252.144 195.888C251.364 195.888 250.74 196.368 250.74 197.748C250.74 199.104 251.34 199.62 252.144 199.62C252.948 199.62 253.548 199.104 253.548 197.748C253.548 196.368 252.924 195.888 252.144 195.888ZM252.144 194.352C253.932 194.352 255.564 195.408 255.564 197.748C255.564 200.088 253.932 201.156 252.144 201.156C250.356 201.156 248.724 200.088 248.724 197.748C248.724 195.408 250.356 194.352 252.144 194.352ZM259.606 194.352C260.95 194.352 262.426 194.964 262.81 196.908H260.962C260.782 196.152 260.314 195.888 259.726 195.888C259.018 195.888 258.322 196.368 258.322 197.748C258.322 199.152 259.018 199.62 259.726 199.62C260.458 199.62 260.902 199.236 261.046 198.624H262.894C262.45 200.544 260.902 201.156 259.606 201.156C257.482 201.156 256.306 199.788 256.306 197.736C256.306 195.684 257.65 194.352 259.606 194.352ZM263.839 192.3H265.819V197.004L267.991 194.544H270.331L268.027 197.016L270.523 201H268.207L266.683 198.456L265.819 199.38V201H263.839V192.3Z" fill="#F2F2F2"/>
<defs>
<clipPath id="clip0_10207_20714">
<rect x="20" y="20" width="424" height="15" rx="7.5" fill="white"/>
</clipPath>
<clipPath id="clip1_10207_20714">
<rect x="20" y="75" width="423.98" height="32" rx="10" fill="white"/>
</clipPath>
<clipPath id="clip2_10207_20714">
<rect x="20" y="147" width="424" height="12" rx="6" fill="white"/>
</clipPath>
</defs>
</svg>
