<svg width="750" height="127" viewBox="0 0 750 127" fill="none" xmlns="http://www.w3.org/2000/svg">
<path d="M10 0.5H506C511.247 0.500003 515.5 4.7533 515.5 10V117C515.5 122.247 511.247 126.5 506 126.5H10C4.7533 126.5 0.5 122.247 0.5 117V10C0.500002 4.7533 4.7533 0.5 10 0.5Z" fill="#FAFAFA"/>
<path d="M10 0.5H506C511.247 0.500003 515.5 4.7533 515.5 10V117C515.5 122.247 511.247 126.5 506 126.5H10C4.7533 126.5 0.5 122.247 0.5 117V10C0.500002 4.7533 4.7533 0.5 10 0.5Z" fill="#E6E6E6"/>
<path d="M10 0.5H506C511.247 0.500003 515.5 4.7533 515.5 10V117C515.5 122.247 511.247 126.5 506 126.5H10C4.7533 126.5 0.5 122.247 0.5 117V10C0.500002 4.7533 4.7533 0.5 10 0.5Z" stroke="#D9D9D9"/>
<g clip-path="url(#clip0_10207_6245)">
<rect width="103" height="32" transform="translate(20 20)" fill="white"/>
<path d="M57.8788 31.8V39.336H62.3668V40.5H56.5108V31.8H57.8788ZM65.9351 39.588C66.8471 39.588 67.3511 39.216 67.6271 38.604H68.8871C68.5991 39.672 67.6151 40.656 65.9831 40.656C63.9071 40.656 62.7671 39.132 62.7671 37.26C62.7671 35.256 64.1111 33.924 65.9471 33.924C67.9391 33.924 69.1031 35.556 68.9711 37.656H64.0511C64.1831 38.856 64.9151 39.588 65.9351 39.588ZM65.9351 34.944C64.9631 34.944 64.2551 35.436 64.0751 36.672H67.6751C67.6391 35.724 66.9551 34.944 65.9351 34.944ZM71.4435 34.044V34.98C71.8155 34.344 72.4635 33.924 73.4715 33.924C75.0315 33.924 75.6315 34.932 75.6315 36.432V40.5H74.3835V36.768C74.3835 35.844 74.2395 34.968 73.0515 34.968C71.9595 34.968 71.4435 35.736 71.4435 37.032V40.5H70.1955V34.044H71.4435ZM77.4436 34.044V32.388H78.6916V34.044H79.9636V34.992H78.6916V38.676C78.6916 39.336 78.7996 39.504 79.4236 39.504H79.9516V40.5H79.0396C77.7316 40.5 77.4436 40.176 77.4436 38.844V34.992H76.4596V34.044H77.4436ZM82.5411 31.8V34.98C82.9131 34.344 83.5611 33.924 84.5691 33.924C86.1291 33.924 86.7291 34.932 86.7291 36.432V40.5H85.4811V36.768C85.4811 35.844 85.3371 34.968 84.1491 34.968C83.0571 34.968 82.5411 35.736 82.5411 37.032V40.5H81.2931V31.8H82.5411Z" fill="#666666"/>
<mask id="path-5-inside-1_10207_6245" fill="white">
<path d="M123 20H226V52H123V20Z"/>
</mask>
<path d="M123 20H226V52H123V20Z" fill="white"/>
<path d="M123 52H124V20H123H122V52H123Z" fill="#D9D9D9" mask="url(#path-5-inside-1_10207_6245)"/>
<path d="M151.66 37.668H152.98C152.596 39.588 151.168 40.656 149.224 40.656C146.704 40.656 145.24 38.808 145.24 36.132C145.24 33.408 146.812 31.644 149.308 31.644C151.168 31.644 152.596 32.724 152.944 34.632H151.624C151.348 33.492 150.532 32.784 149.248 32.784C147.772 32.784 146.644 33.96 146.644 36.132C146.644 38.28 147.76 39.516 149.26 39.516C150.556 39.516 151.384 38.82 151.66 37.668ZM155.459 31.8V34.98C155.831 34.344 156.479 33.924 157.487 33.924C159.047 33.924 159.647 34.932 159.647 36.432V40.5H158.399V36.768C158.399 35.844 158.255 34.968 157.067 34.968C155.975 34.968 155.459 35.736 155.459 37.032V40.5H154.211V31.8H155.459ZM163.931 39.588C164.843 39.588 165.347 39.216 165.623 38.604H166.883C166.595 39.672 165.611 40.656 163.979 40.656C161.903 40.656 160.763 39.132 160.763 37.26C160.763 35.256 162.107 33.924 163.943 33.924C165.935 33.924 167.099 35.556 166.967 37.656H162.047C162.179 38.856 162.911 39.588 163.931 39.588ZM163.931 34.944C162.959 34.944 162.251 35.436 162.071 36.672H165.671C165.635 35.724 164.951 34.944 163.931 34.944ZM170.926 33.924C172.402 33.924 173.53 34.968 173.722 36.228H172.474C172.342 35.496 171.682 34.992 170.866 34.992C169.966 34.992 169.138 35.7 169.138 37.272C169.138 38.868 169.966 39.588 170.866 39.588C171.67 39.588 172.342 39.12 172.522 38.352H173.782C173.518 39.708 172.27 40.656 170.842 40.656C168.97 40.656 167.806 39.24 167.806 37.284C167.806 35.376 169.018 33.924 170.926 33.924ZM174.953 31.8H176.201V36.804L178.769 34.044H180.293L177.785 36.708L180.473 40.5H178.985L176.933 37.608L176.201 38.388V40.5H174.953V31.8ZM186.025 35.844H184.789C184.609 35.172 184.057 34.92 183.325 34.92C182.713 34.92 182.053 35.172 182.053 35.7C182.053 36.18 182.365 36.372 182.953 36.504L183.877 36.684C185.089 36.936 186.169 37.332 186.169 38.604C186.169 39.912 184.945 40.656 183.457 40.656C181.813 40.656 180.829 39.708 180.673 38.496H181.945C182.125 39.228 182.581 39.66 183.493 39.66C184.309 39.66 184.921 39.324 184.921 38.748C184.921 38.16 184.357 37.908 183.685 37.776L182.713 37.584C181.741 37.392 180.829 36.972 180.829 35.748C180.829 34.608 182.041 33.912 183.445 33.912C184.753 33.912 185.773 34.596 186.025 35.844ZM191.406 40.5V39.588C191.034 40.248 190.41 40.656 189.438 40.656C187.914 40.656 187.326 39.72 187.326 38.148V34.044H188.574V37.812C188.574 38.736 188.73 39.6 189.858 39.6C190.914 39.6 191.418 38.832 191.418 37.548V34.044H192.666V40.5H191.406ZM195.584 37.032V40.5H194.336V34.044H195.584V34.98C195.956 34.344 196.568 33.924 197.492 33.924C198.5 33.924 199.076 34.344 199.364 35.064C199.904 34.248 200.648 33.924 201.5 33.924C203.012 33.924 203.6 34.932 203.6 36.432V40.5H202.352V36.768C202.352 35.844 202.196 34.968 201.08 34.968C200.084 34.968 199.592 35.736 199.592 37.032V40.5H198.344V36.768C198.344 35.844 198.188 34.968 197.072 34.968C196.064 34.968 195.584 35.736 195.584 37.032Z" fill="#666666"/>
<mask id="path-8-inside-2_10207_6245" fill="white">
<path d="M226 20H496V52H226V20Z"/>
</mask>
<path d="M226 20H496V52H226V20Z" fill="white"/>
<path d="M226 52H227V20H226H225V52H226Z" fill="#D9D9D9" mask="url(#path-8-inside-2_10207_6245)"/>
<path d="M347.728 40.5V31.8H353.752V32.964H349.096V35.448H353.488V36.6H349.096V39.336H353.752V40.5H347.728ZM356.227 34.044V34.98C356.599 34.344 357.247 33.924 358.255 33.924C359.815 33.924 360.415 34.932 360.415 36.432V40.5H359.167V36.768C359.167 35.844 359.023 34.968 357.835 34.968C356.743 34.968 356.227 35.736 356.227 37.032V40.5H354.979V34.044H356.227ZM362.227 34.044V32.388H363.475V34.044H364.747V34.992H363.475V38.676C363.475 39.336 363.583 39.504 364.207 39.504H364.735V40.5H363.823C362.515 40.5 362.227 40.176 362.227 38.844V34.992H361.243V34.044H362.227ZM369.319 34.032V35.328C369.091 35.304 368.875 35.292 368.671 35.292C367.711 35.292 367.207 35.76 367.207 37.116V40.5H365.959V34.044H367.183V35.184C367.519 34.452 368.155 34.032 368.971 34.02C369.079 34.02 369.211 34.02 369.319 34.032ZM370.583 42.6H369.983V41.604H370.475C371.147 41.604 371.435 41.544 371.747 40.632L371.795 40.488L369.467 34.044H370.847L372.407 38.856L373.931 34.044H375.227L372.947 40.644C372.407 42.168 372.047 42.6 370.583 42.6Z" fill="#666666"/>
</g>
<rect x="20.5" y="20.5" width="475" height="31" rx="9.5" stroke="#E6E6E6"/>
<path d="M20 62V67C20 69.7614 22.2386 72 25 72H66.5C69.2614 72 71.5 74.2386 71.5 77V82" stroke="#0D0D0D" stroke-miterlimit="10"/>
<path d="M123 62V67C123 69.7614 120.761 72 118 72H76.5C73.7386 72 71.5 74.2386 71.5 77V82" stroke="#0D0D0D" stroke-miterlimit="10"/>
<path d="M123 62V67C123 69.7614 125.239 72 128 72H169.5C172.261 72 174.5 74.2386 174.5 77V82" stroke="#0D0D0D" stroke-miterlimit="10"/>
<path d="M226 62V67C226 69.7614 223.761 72 221 72H179.5C176.739 72 174.5 74.2386 174.5 77V82" stroke="#0D0D0D" stroke-miterlimit="10"/>
<path d="M226 62V67C226 69.7614 228.239 72 231 72H354C356.761 72 359 74.2386 359 77V82" stroke="#0D0D0D" stroke-miterlimit="10"/>
<path d="M492 62V67C492 69.7614 489.761 72 487 72H364C361.239 72 359 74.2386 359 77V82" stroke="#0D0D0D" stroke-miterlimit="10"/>
<g clip-path="url(#clip1_10207_6245)">
<path d="M56.9607 94.62C58.5007 94.62 59.4907 95.41 59.4907 96.48C59.4907 97.13 59.2407 97.73 58.6107 98.12C59.4207 98.59 59.7107 99.22 59.7107 99.93C59.7107 101.34 58.5007 102.13 56.9607 102.13C55.4407 102.13 54.2207 101.34 54.2207 99.93C54.2207 99.22 54.5207 98.57 55.3307 98.12C54.7307 97.77 54.4407 97.13 54.4407 96.49C54.4407 95.41 55.4407 94.62 56.9607 94.62ZM56.9607 98.68C56.1507 98.68 55.6307 99.15 55.6307 99.87C55.6307 100.59 56.1507 101.09 56.9607 101.09C57.7907 101.09 58.3007 100.59 58.3007 99.87C58.3007 99.15 57.7907 98.68 56.9607 98.68ZM58.1507 96.65C58.1507 96.05 57.6807 95.66 56.9607 95.66C56.2407 95.66 55.7807 96.05 55.7807 96.65C55.7807 97.25 56.2407 97.69 56.9607 97.69C57.6807 97.69 58.1507 97.25 58.1507 96.65ZM63.0729 102V94.75H65.8929C67.1629 94.75 68.5329 95.15 68.5329 96.64C68.5329 97.32 68.0829 97.93 67.7129 98.17C68.2729 98.44 68.7929 98.86 68.7929 99.86C68.7929 101.42 67.5029 102 66.0129 102H63.0729ZM64.5029 98.82V100.88H66.0829C66.9229 100.88 67.3329 100.53 67.3329 99.86C67.3329 99.18 66.9129 98.82 66.0229 98.82H64.5029ZM64.5029 95.87V97.74H65.9829C66.6629 97.74 67.0629 97.42 67.0629 96.78C67.0629 96.21 66.6529 95.87 65.9829 95.87H64.5029ZM70.2235 103.75H69.6435V102.69H70.1635C70.6235 102.69 70.8235 102.7 71.0635 102.13L71.1235 101.98L69.0635 96.62H70.5735L71.7935 100.5L73.0435 96.62H74.4435L72.4735 101.84C71.8335 103.51 71.5635 103.75 70.2235 103.75ZM75.2543 96.62V95.16H76.6343V96.62H77.7543V97.57H76.6343V100.35C76.6343 100.9 76.8243 101.01 77.3143 101.01H77.7343V102H76.7243C75.4843 102 75.2543 101.62 75.2543 100.55V97.57H74.4943V96.62H75.2543ZM83.6286 99.69H79.6586C79.7386 100.61 80.3586 101.06 81.0186 101.06C81.4486 101.06 81.8686 100.91 82.1486 100.44H83.5686C83.2786 101.24 82.4986 102.13 81.0286 102.13C79.2986 102.13 78.2886 100.84 78.2886 99.29C78.2886 97.69 79.3986 96.5 80.9886 96.5C82.6486 96.5 83.6786 97.79 83.6286 99.69ZM80.9786 97.51C80.4586 97.51 79.7886 97.83 79.6786 98.74H82.2286C82.1986 97.83 81.5586 97.51 80.9786 97.51ZM88.8863 98.24H87.5963C87.4863 97.79 87.0863 97.47 86.4463 97.47C85.9363 97.47 85.5763 97.66 85.5763 97.99C85.5763 98.28 85.7863 98.5 86.2963 98.61L87.0163 98.77C88.0863 99.01 88.9963 99.28 88.9963 100.39C88.9963 101.47 87.8863 102.13 86.6663 102.13C85.3463 102.13 84.3463 101.45 84.2163 100.22H85.5463C85.6263 100.74 85.9863 101.13 86.7063 101.13C87.3063 101.13 87.6763 100.91 87.6763 100.52C87.6763 100.12 87.2663 99.97 86.7963 99.86L85.9963 99.69C84.9863 99.48 84.3163 99.06 84.3163 98.08C84.3163 97.12 85.3563 96.48 86.5163 96.48C87.6363 96.48 88.6963 97 88.8863 98.24Z" fill="#0D0D0D"/>
<path d="M159.961 94.62C161.501 94.62 162.491 95.41 162.491 96.48C162.491 97.13 162.241 97.73 161.611 98.12C162.421 98.59 162.711 99.22 162.711 99.93C162.711 101.34 161.501 102.13 159.961 102.13C158.441 102.13 157.221 101.34 157.221 99.93C157.221 99.22 157.521 98.57 158.331 98.12C157.731 97.77 157.441 97.13 157.441 96.49C157.441 95.41 158.441 94.62 159.961 94.62ZM159.961 98.68C159.151 98.68 158.631 99.15 158.631 99.87C158.631 100.59 159.151 101.09 159.961 101.09C160.791 101.09 161.301 100.59 161.301 99.87C161.301 99.15 160.791 98.68 159.961 98.68ZM161.151 96.65C161.151 96.05 160.681 95.66 159.961 95.66C159.241 95.66 158.781 96.05 158.781 96.65C158.781 97.25 159.241 97.69 159.961 97.69C160.681 97.69 161.151 97.25 161.151 96.65ZM166.073 102V94.75H168.893C170.163 94.75 171.533 95.15 171.533 96.64C171.533 97.32 171.083 97.93 170.713 98.17C171.273 98.44 171.793 98.86 171.793 99.86C171.793 101.42 170.503 102 169.013 102H166.073ZM167.503 98.82V100.88H169.083C169.923 100.88 170.333 100.53 170.333 99.86C170.333 99.18 169.913 98.82 169.023 98.82H167.503ZM167.503 95.87V97.74H168.983C169.663 97.74 170.063 97.42 170.063 96.78C170.063 96.21 169.653 95.87 168.983 95.87H167.503ZM173.223 103.75H172.643V102.69H173.163C173.623 102.69 173.823 102.7 174.063 102.13L174.123 101.98L172.063 96.62H173.573L174.793 100.5L176.043 96.62H177.443L175.473 101.84C174.833 103.51 174.563 103.75 173.223 103.75ZM178.254 96.62V95.16H179.634V96.62H180.754V97.57H179.634V100.35C179.634 100.9 179.824 101.01 180.314 101.01H180.734V102H179.724C178.484 102 178.254 101.62 178.254 100.55V97.57H177.494V96.62H178.254ZM186.629 99.69H182.659C182.739 100.61 183.359 101.06 184.019 101.06C184.449 101.06 184.869 100.91 185.149 100.44H186.569C186.279 101.24 185.499 102.13 184.029 102.13C182.299 102.13 181.289 100.84 181.289 99.29C181.289 97.69 182.399 96.5 183.989 96.5C185.649 96.5 186.679 97.79 186.629 99.69ZM183.979 97.51C183.459 97.51 182.789 97.83 182.679 98.74H185.229C185.199 97.83 184.559 97.51 183.979 97.51ZM191.886 98.24H190.596C190.486 97.79 190.086 97.47 189.446 97.47C188.936 97.47 188.576 97.66 188.576 97.99C188.576 98.28 188.786 98.5 189.296 98.61L190.016 98.77C191.086 99.01 191.996 99.28 191.996 100.39C191.996 101.47 190.886 102.13 189.666 102.13C188.346 102.13 187.346 101.45 187.216 100.22H188.546C188.626 100.74 188.986 101.13 189.706 101.13C190.306 101.13 190.676 100.91 190.676 100.52C190.676 100.12 190.266 99.97 189.796 99.86L188.996 99.69C187.986 99.48 187.316 99.06 187.316 98.08C187.316 97.12 188.356 96.48 189.516 96.48C190.636 96.48 191.696 97 191.886 98.24Z" fill="#0D0D0D"/>
<path d="M326.848 95.3V102.836H331.336V104H325.48V95.3H326.848ZM334.904 103.088C335.816 103.088 336.32 102.716 336.596 102.104H337.856C337.568 103.172 336.584 104.156 334.952 104.156C332.876 104.156 331.736 102.632 331.736 100.76C331.736 98.756 333.08 97.424 334.916 97.424C336.908 97.424 338.072 99.056 337.94 101.156H333.02C333.152 102.356 333.884 103.088 334.904 103.088ZM334.904 98.444C333.932 98.444 333.224 98.936 333.044 100.172H336.644C336.608 99.224 335.924 98.444 334.904 98.444ZM340.412 97.544V98.48C340.784 97.844 341.432 97.424 342.44 97.424C344 97.424 344.6 98.432 344.6 99.932V104H343.352V100.268C343.352 99.344 343.208 98.468 342.02 98.468C340.928 98.468 340.412 99.236 340.412 100.532V104H339.164V97.544H340.412ZM350.456 98.492V97.544H351.704V103.244C351.704 104.432 351.452 105.068 351.008 105.512C350.516 106.028 349.748 106.292 348.752 106.292C347.3 106.292 346.256 105.668 346.052 104.312H347.336C347.468 104.9 347.828 105.248 348.776 105.248C349.364 105.248 349.796 105.092 350.072 104.78C350.324 104.504 350.456 104.18 350.456 103.508V102.824C350.06 103.496 349.424 103.892 348.464 103.892C346.964 103.892 345.716 102.716 345.716 100.652C345.716 98.6 346.964 97.424 348.464 97.424C349.424 97.424 350.06 97.82 350.456 98.492ZM350.504 100.652C350.504 99.116 349.712 98.456 348.752 98.456C347.708 98.456 347.048 99.26 347.048 100.652C347.048 102.056 347.708 102.872 348.752 102.872C349.712 102.872 350.504 102.188 350.504 100.652ZM353.619 97.544V95.888H354.867V97.544H356.139V98.492H354.867V102.176C354.867 102.836 354.975 103.004 355.599 103.004H356.127V104H355.215C353.907 104 353.619 103.676 353.619 102.344V98.492H352.635V97.544H353.619ZM358.717 95.3V98.48C359.089 97.844 359.737 97.424 360.745 97.424C362.305 97.424 362.905 98.432 362.905 99.932V104H361.657V100.268C361.657 99.344 361.513 98.468 360.325 98.468C359.233 98.468 358.717 99.236 358.717 100.532V104H357.469V95.3H358.717ZM367.398 104V95.3H370.602C372.198 95.3 373.686 95.72 373.686 97.484C373.686 98.3 373.29 99.044 372.726 99.368C373.506 99.716 374.034 100.316 374.034 101.432C374.034 103.28 372.63 104 370.854 104H367.398ZM368.766 100.04V102.872H370.89C372.054 102.872 372.63 102.356 372.63 101.432C372.63 100.472 372.066 100.04 370.818 100.04H368.766ZM368.766 96.428V98.984H370.77C371.718 98.984 372.306 98.6 372.306 97.652C372.306 96.824 371.682 96.428 370.77 96.428H368.766ZM375.593 106.1H374.993V105.104H375.485C376.157 105.104 376.445 105.044 376.757 104.132L376.805 103.988L374.477 97.544H375.857L377.417 102.356L378.941 97.544H380.237L377.957 104.144C377.417 105.668 377.057 106.1 375.593 106.1ZM381.334 97.544V95.888H382.582V97.544H383.854V98.492H382.582V102.176C382.582 102.836 382.69 103.004 383.314 103.004H383.842V104H382.93C381.622 104 381.334 103.676 381.334 102.344V98.492H380.35V97.544H381.334ZM387.732 103.088C388.644 103.088 389.148 102.716 389.424 102.104H390.684C390.396 103.172 389.412 104.156 387.78 104.156C385.704 104.156 384.564 102.632 384.564 100.76C384.564 98.756 385.908 97.424 387.744 97.424C389.736 97.424 390.9 99.056 390.768 101.156H385.848C385.98 102.356 386.712 103.088 387.732 103.088ZM387.732 98.444C386.76 98.444 386.052 98.936 385.872 100.172H389.472C389.436 99.224 388.752 98.444 387.732 98.444ZM396.924 99.344H395.688C395.508 98.672 394.956 98.42 394.224 98.42C393.612 98.42 392.952 98.672 392.952 99.2C392.952 99.68 393.264 99.872 393.852 100.004L394.776 100.184C395.988 100.436 397.068 100.832 397.068 102.104C397.068 103.412 395.844 104.156 394.356 104.156C392.712 104.156 391.728 103.208 391.572 101.996H392.844C393.024 102.728 393.48 103.16 394.392 103.16C395.208 103.16 395.82 102.824 395.82 102.248C395.82 101.66 395.256 101.408 394.584 101.276L393.612 101.084C392.64 100.892 391.728 100.472 391.728 99.248C391.728 98.108 392.94 97.412 394.344 97.412C395.652 97.412 396.672 98.096 396.924 99.344Z" fill="#666666"/>
</g>
<defs>
<clipPath id="clip0_10207_6245">
<rect x="20" y="20" width="476" height="32" rx="10" fill="white"/>
</clipPath>
<clipPath id="clip1_10207_6245">
<rect x="20" y="92" width="476" height="15" rx="7.5" fill="white"/>
</clipPath>
</defs>
</svg>
