<svg width="750" height="172" viewBox="0 0 750 172" fill="none" xmlns="http://www.w3.org/2000/svg">
<path d="M10 0.5H454C459.247 0.500001 463.5 4.7533 463.5 10V162C463.5 167.247 459.247 171.5 454 171.5H10C4.7533 171.5 0.5 167.247 0.5 162V10C0.500003 4.7533 4.7533 0.5 10 0.5Z" fill="#0D0D0D"/>
<path d="M10 0.5H454C459.247 0.500001 463.5 4.7533 463.5 10V162C463.5 167.247 459.247 171.5 454 171.5H10C4.7533 171.5 0.5 167.247 0.5 162V10C0.500003 4.7533 4.7533 0.5 10 0.5Z" fill="#1A1A1A"/>
<path d="M10 0.5H454C459.247 0.500001 463.5 4.7533 463.5 10V162C463.5 167.247 459.247 171.5 454 171.5H10C4.7533 171.5 0.5 167.247 0.5 162V10C0.500003 4.7533 4.7533 0.5 10 0.5Z" stroke="#4C4C4C"/>
<g clip-path="url(#clip0_10207_20754)">
<path d="M24.104 32.156C22.088 32.156 20.552 31.16 20.552 29.42C20.552 28.604 20.828 27.884 21.728 27.32C21.116 26.9 20.792 26.408 20.792 25.496C20.792 24.188 22.088 23.156 24.104 23.156C26.12 23.156 27.404 24.188 27.404 25.496C27.404 26.408 27.068 26.9 26.48 27.32C27.38 27.884 27.656 28.604 27.656 29.42C27.656 31.16 26.12 32.156 24.104 32.156ZM24.104 30.692C25.088 30.692 25.628 30.068 25.628 29.348C25.628 28.628 25.1 28.052 24.104 28.052C23.108 28.052 22.58 28.628 22.58 29.348C22.58 30.068 23.12 30.692 24.104 30.692ZM24.104 26.756C25.004 26.756 25.448 26.3 25.448 25.688C25.448 25.064 25.004 24.62 24.104 24.62C23.204 24.62 22.76 25.064 22.76 25.688C22.76 26.3 23.204 26.756 24.104 26.756ZM34.8013 26.936C34.0213 26.936 33.3733 27.44 33.3733 28.772C33.3733 30.104 34.0213 30.62 34.8013 30.62C35.5933 30.62 36.2413 29.972 36.2413 28.772C36.2413 27.572 35.5933 26.936 34.8013 26.936ZM33.4693 23.3V26.42C33.8893 25.712 34.7533 25.4 35.4493 25.4C37.1172 25.4 38.2933 26.66 38.2933 28.772C38.2933 30.884 37.1172 32.156 35.4493 32.156C34.7533 32.156 33.8893 31.844 33.4693 31.136V32H31.4893V23.3H33.4693ZM39.791 34.1H39.155V32.672H39.551C40.367 32.672 40.535 32.612 40.727 32.132L40.787 31.964L38.375 25.544H40.547L41.735 29.588L43.007 25.544H45.131L42.599 32C41.951 33.644 41.471 34.1 39.791 34.1ZM46.1567 25.544V23.78H48.1367V25.544H49.5527V26.948H48.1367V29.84C48.1367 30.452 48.3287 30.572 48.9887 30.572H49.5527V32H48.2927C46.6967 32 46.1567 31.688 46.1567 30.188V26.948H45.1367V25.544H46.1567ZM55.1505 29.972H56.9745C56.3985 31.496 55.0425 32.156 53.7585 32.156C51.6585 32.156 50.2185 30.884 50.2185 28.736C50.2185 26.672 51.7905 25.352 53.6745 25.352C55.8225 25.352 57.1305 26.972 56.9985 29.276H52.2105C52.2705 30.188 52.9785 30.62 53.6985 30.62C54.4545 30.62 54.9225 30.356 55.1505 29.972ZM53.6745 26.864C52.9665 26.864 52.3425 27.224 52.2345 28.076H55.0305C54.9945 27.26 54.4305 26.864 53.6745 26.864ZM63.9341 26.936C63.1541 26.936 62.5061 27.44 62.5061 28.772C62.5061 30.104 63.1541 30.62 63.9341 30.62C64.7261 30.62 65.3741 29.972 65.3741 28.772C65.3741 27.572 64.7261 26.936 63.9341 26.936ZM62.6021 23.3V26.42C63.0221 25.712 63.8861 25.4 64.5821 25.4C66.2501 25.4 67.4261 26.66 67.4261 28.772C67.4261 30.884 66.2501 32.156 64.5821 32.156C63.8861 32.156 63.0221 31.844 62.6021 31.136V32H60.6221V23.3H62.6021ZM70.4068 23.3V32H68.4268V23.3H70.4068ZM74.8612 26.888C74.0812 26.888 73.4572 27.368 73.4572 28.748C73.4572 30.104 74.0572 30.62 74.8612 30.62C75.6652 30.62 76.2652 30.104 76.2652 28.748C76.2652 27.368 75.6412 26.888 74.8612 26.888ZM74.8612 25.352C76.6492 25.352 78.2812 26.408 78.2812 28.748C78.2812 31.088 76.6492 32.156 74.8612 32.156C73.0732 32.156 71.4412 31.088 71.4412 28.748C71.4412 26.408 73.0732 25.352 74.8612 25.352ZM82.3232 25.352C83.6672 25.352 85.1432 25.964 85.5272 27.908H83.6792C83.4992 27.152 83.0312 26.888 82.4432 26.888C81.7352 26.888 81.0392 27.368 81.0392 28.748C81.0392 30.152 81.7352 30.62 82.4432 30.62C83.1752 30.62 83.6192 30.236 83.7632 29.624H85.6112C85.1672 31.544 83.6192 32.156 82.3232 32.156C80.1992 32.156 79.0232 30.788 79.0232 28.736C79.0232 26.684 80.3672 25.352 82.3232 25.352ZM86.5557 23.3H88.5357V28.004L90.7077 25.544H93.0477L90.7437 28.016L93.2397 32H90.9237L89.3997 29.456L88.5357 30.38V32H86.5557V23.3ZM98.4614 23.3V26.396C98.7494 25.916 99.4454 25.4 100.465 25.4C102.121 25.4 102.637 26.372 102.637 28.124V32H100.657V28.616C100.657 27.692 100.633 26.936 99.6734 26.936C98.8214 26.936 98.4614 27.488 98.4614 28.688V32H96.4814V23.3H98.4614ZM108.483 29.972H110.307C109.731 31.496 108.375 32.156 107.091 32.156C104.991 32.156 103.551 30.884 103.551 28.736C103.551 26.672 105.123 25.352 107.007 25.352C109.155 25.352 110.463 26.972 110.331 29.276H105.543C105.603 30.188 106.311 30.62 107.031 30.62C107.787 30.62 108.255 30.356 108.483 29.972ZM107.007 26.864C106.299 26.864 105.675 27.224 105.567 28.076H108.363C108.327 27.26 107.763 26.864 107.007 26.864ZM115.324 27.968V27.716C115.324 26.948 114.952 26.684 114.232 26.684C113.596 26.684 113.164 27.008 113.08 27.632H111.232C111.328 26.42 112.48 25.34 114.4 25.34C116.26 25.34 117.316 26.096 117.28 28.052L117.256 29.456V30.128C117.256 30.836 117.304 31.592 117.4 32H115.456L115.432 31.22C114.952 31.904 114.184 32.156 113.26 32.156C112.036 32.156 111.028 31.436 111.028 30.26C111.028 28.676 112.816 28.16 115.324 27.968ZM115.372 29.288V29.132C113.992 29.264 113.068 29.42 113.068 30.116C113.068 30.536 113.464 30.812 113.98 30.812C114.772 30.812 115.372 30.476 115.372 29.288ZM122.94 23.3H124.92V32H122.94V31.136C122.52 31.844 121.656 32.156 120.96 32.156C119.292 32.156 118.116 30.884 118.116 28.772C118.116 26.66 119.292 25.4 120.96 25.4C121.656 25.4 122.52 25.712 122.94 26.42V23.3ZM121.608 26.936C120.816 26.936 120.168 27.572 120.168 28.772C120.168 29.972 120.816 30.62 121.608 30.62C122.388 30.62 123.036 30.104 123.036 28.772C123.036 27.44 122.388 26.936 121.608 26.936ZM130.889 29.972H132.713C132.137 31.496 130.781 32.156 129.497 32.156C127.397 32.156 125.957 30.884 125.957 28.736C125.957 26.672 127.529 25.352 129.413 25.352C131.561 25.352 132.869 26.972 132.737 29.276H127.949C128.009 30.188 128.717 30.62 129.437 30.62C130.193 30.62 130.661 30.356 130.889 29.972ZM129.413 26.864C128.705 26.864 128.081 27.224 127.973 28.076H130.769C130.733 27.26 130.169 26.864 129.413 26.864ZM137.754 25.508V27.44C137.526 27.404 137.394 27.404 137.214 27.404C136.254 27.404 135.762 27.752 135.762 28.76V32H133.782V25.544H135.69V26.768C135.99 26 136.53 25.532 137.454 25.496H137.598C137.658 25.496 137.706 25.496 137.754 25.508Z" fill="#F2F2F2"/>
</g>
<path d="M105 65V60C105 57.2386 102.761 55 100 55L67.5 55C64.7386 55 62.5 52.7614 62.5 50V45" stroke="#F2F2F2" stroke-miterlimit="10"/>
<path d="M20 65V60C20 57.2386 22.2386 55 25 55L57.5 55C60.2614 55 62.5 52.7614 62.5 50V45" stroke="#F2F2F2" stroke-miterlimit="10"/>
<g clip-path="url(#clip1_10207_20754)">
<rect width="84.78" height="32" transform="translate(20 75)" fill="#333333"/>
<path d="M50.4848 88.924C51.9608 88.924 53.0888 89.968 53.2808 91.228H52.0328C51.9008 90.496 51.2408 89.992 50.4248 89.992C49.5248 89.992 48.6968 90.7 48.6968 92.272C48.6968 93.868 49.5248 94.588 50.4248 94.588C51.2288 94.588 51.9008 94.12 52.0808 93.352H53.3408C53.0768 94.708 51.8288 95.656 50.4008 95.656C48.5288 95.656 47.3647 94.24 47.3647 92.284C47.3647 90.376 48.5768 88.924 50.4848 88.924ZM55.7599 86.8V89.98C56.1319 89.344 56.7799 88.924 57.7879 88.924C59.3479 88.924 59.9479 89.932 59.9479 91.432V95.5H58.6999V91.768C58.6999 90.844 58.5559 89.968 57.3679 89.968C56.2759 89.968 55.7599 90.736 55.7599 92.032V95.5H54.5119V86.8H55.7599ZM66.416 90.844H65.18C65 90.172 64.448 89.92 63.716 89.92C63.104 89.92 62.444 90.172 62.444 90.7C62.444 91.18 62.756 91.372 63.344 91.504L64.268 91.684C65.48 91.936 66.56 92.332 66.56 93.604C66.56 94.912 65.336 95.656 63.848 95.656C62.204 95.656 61.22 94.708 61.064 93.496H62.336C62.516 94.228 62.972 94.66 63.884 94.66C64.7 94.66 65.312 94.324 65.312 93.748C65.312 93.16 64.748 92.908 64.076 92.776L63.104 92.584C62.132 92.392 61.22 91.972 61.22 90.748C61.22 89.608 62.432 88.912 63.836 88.912C65.144 88.912 66.164 89.596 66.416 90.844ZM69.0607 92.032V95.5H67.8127V89.044H69.0607V89.98C69.4327 89.344 70.0447 88.924 70.9687 88.924C71.9767 88.924 72.5527 89.344 72.8407 90.064C73.3807 89.248 74.1247 88.924 74.9767 88.924C76.4887 88.924 77.0767 89.932 77.0767 91.432V95.5H75.8287V91.768C75.8287 90.844 75.6727 89.968 74.5567 89.968C73.5607 89.968 73.0687 90.736 73.0687 92.032V95.5H71.8207V91.768C71.8207 90.844 71.6647 89.968 70.5487 89.968C69.5407 89.968 69.0607 90.736 69.0607 92.032Z" fill="#B2B2B2"/>
</g>
<rect x="20.5" y="75.5" width="83.78" height="31" rx="9.5" stroke="#333333"/>
<path d="M197.301 140.156C199.125 140.156 200.445 141.056 200.445 142.604C200.445 144.428 198.885 145.904 196.317 147.38H200.481V149H193.797V147.38C196.137 145.676 198.453 144.152 198.453 142.724C198.453 141.968 197.901 141.62 197.241 141.62C196.545 141.62 195.789 142.04 195.849 143.432H193.893C193.833 141.368 195.285 140.156 197.301 140.156ZM204.842 147.692C205.718 147.692 206.378 147.14 206.378 146.132C206.378 145.064 205.646 144.548 204.878 144.548C204.194 144.548 203.69 144.848 203.39 145.412L201.578 145.232L202.19 140.3H208.01V141.908H203.834L203.63 143.54C204.05 143.252 204.746 143.084 205.358 143.084C206.93 143.084 208.418 144.104 208.418 146.12C208.418 148.112 206.774 149.156 204.866 149.156C203.066 149.156 201.638 148.172 201.35 146.324H203.258C203.438 147.332 204.074 147.692 204.842 147.692ZM211.441 146.144C211.441 147.092 211.993 147.692 212.857 147.692C213.721 147.692 214.237 147.092 214.237 146.144C214.237 145.232 213.721 144.596 212.857 144.596C211.993 144.596 211.441 145.184 211.441 146.144ZM212.977 141.584C212.065 141.584 211.381 142.268 211.417 143.744C211.849 143.36 212.425 143.108 213.289 143.108C214.861 143.108 216.265 144.368 216.265 146.144C216.265 147.98 214.837 149.156 212.857 149.156C210.385 149.156 209.353 147.272 209.353 144.86C209.353 142.316 210.433 140.156 213.085 140.156C215.101 140.156 216.073 141.284 216.169 142.664H214.225C214.129 141.848 213.601 141.584 212.977 141.584ZM219.58 140.3V143.744L222.736 140.3H225.244L222.028 143.768L225.412 149H222.94L220.588 145.328L219.58 146.432V149H217.528V140.3H219.58ZM226.083 149V140.3H229.875C231.783 140.3 233.199 140.732 233.199 142.556C233.199 143.36 232.839 143.948 232.167 144.368C232.983 144.656 233.547 145.268 233.547 146.324C233.547 148.28 232.143 149 230.031 149H226.083ZM228.135 145.304V147.272H230.055C230.931 147.272 231.375 146.9 231.375 146.288C231.375 145.676 230.931 145.304 230.055 145.304H228.135ZM228.135 142.028V143.78H229.947C230.667 143.78 231.063 143.432 231.063 142.892C231.063 142.352 230.667 142.028 229.947 142.028H228.135ZM237.228 149V140.3H241.02C242.928 140.3 244.344 140.732 244.344 142.556C244.344 143.36 243.984 143.948 243.312 144.368C244.128 144.656 244.692 145.268 244.692 146.324C244.692 148.28 243.288 149 241.176 149H237.228ZM239.28 145.304V147.272H241.2C242.076 147.272 242.52 146.9 242.52 146.288C242.52 145.676 242.076 145.304 241.2 145.304H239.28ZM239.28 142.028V143.78H241.092C241.812 143.78 242.208 143.432 242.208 142.892C242.208 142.352 241.812 142.028 241.092 142.028H239.28ZM247.69 140.3V149H245.71V140.3H247.69ZM252.144 143.888C251.364 143.888 250.74 144.368 250.74 145.748C250.74 147.104 251.34 147.62 252.144 147.62C252.948 147.62 253.548 147.104 253.548 145.748C253.548 144.368 252.924 143.888 252.144 143.888ZM252.144 142.352C253.932 142.352 255.564 143.408 255.564 145.748C255.564 148.088 253.932 149.156 252.144 149.156C250.356 149.156 248.724 148.088 248.724 145.748C248.724 143.408 250.356 142.352 252.144 142.352ZM259.606 142.352C260.95 142.352 262.426 142.964 262.81 144.908H260.962C260.782 144.152 260.314 143.888 259.726 143.888C259.018 143.888 258.322 144.368 258.322 145.748C258.322 147.152 259.018 147.62 259.726 147.62C260.458 147.62 260.902 147.236 261.046 146.624H262.894C262.45 148.544 260.902 149.156 259.606 149.156C257.482 149.156 256.306 147.788 256.306 145.736C256.306 143.684 257.65 142.352 259.606 142.352ZM263.839 140.3H265.819V145.004L267.991 142.544H270.331L268.027 145.016L270.523 149H268.207L266.683 146.456L265.819 147.38V149H263.839V140.3Z" fill="#F2F2F2"/>
<defs>
<clipPath id="clip0_10207_20754">
<rect x="20" y="20" width="118" height="15" rx="7.5" fill="white"/>
</clipPath>
<clipPath id="clip1_10207_20754">
<rect x="20" y="75" width="84.78" height="32" rx="10" fill="white"/>
</clipPath>
</defs>
</svg>
