<?xml version="1.0" encoding="UTF-8" standalone="no"?>
<!-- Created with Inkscape (http://www.inkscape.org/) -->

<svg
   version="1.1"
   id="svg1"
   width="313.34604"
   height="100.849"
   viewBox="0 0 313.34604 100.849"
   sodipodi:docname="plot.svg"
   inkscape:version="1.4 (e7c3feb1, 2024-10-09)"
   xmlns:inkscape="http://www.inkscape.org/namespaces/inkscape"
   xmlns:sodipodi="http://sodipodi.sourceforge.net/DTD/sodipodi-0.dtd"
   xmlns="http://www.w3.org/2000/svg"
   xmlns:svg="http://www.w3.org/2000/svg">
  <defs
     id="defs1">
    <clipPath
       clipPathUnits="userSpaceOnUse"
       id="clipPath30">
      <path
         d="m -15.9544,-25.8918 h 206.39712 c 0.82535,0 1.49441,0.66907 1.49441,1.49442 v 51.3925 c 0,0.82535 -0.66906,1.49441 -1.49441,1.49441 H -15.9544 c -0.82535,0 -1.49442,-0.66906 -1.49442,-1.49441 v -51.3925 c 0,-0.82535 0.66907,-1.49442 1.49442,-1.49442 z"
         id="path30" />
    </clipPath>
    <clipPath
       clipPathUnits="userSpaceOnUse"
       id="clipPath32">
      <path
         d="m -15.9544,-25.8918 h 206.39712 c 0.82535,0 1.49441,0.66907 1.49441,1.49442 v 51.3925 c 0,0.82535 -0.66906,1.49441 -1.49441,1.49441 H -15.9544 c -0.82535,0 -1.49442,-0.66906 -1.49442,-1.49441 v -51.3925 c 0,-0.82535 0.66907,-1.49442 1.49442,-1.49442 z"
         id="path32" />
    </clipPath>
  </defs>
  <sodipodi:namedview
     id="namedview1"
     pagecolor="#ffffff"
     bordercolor="#111111"
     borderopacity="1"
     inkscape:showpageshadow="0"
     inkscape:pageopacity="0"
     inkscape:pagecheckerboard="1"
     inkscape:deskcolor="#d1d1d1"
     inkscape:zoom="0.95549242"
     inkscape:cx="137.10208"
     inkscape:cy="413.39941"
     inkscape:window-width="2560"
     inkscape:window-height="1387"
     inkscape:window-x="2560"
     inkscape:window-y="25"
     inkscape:window-maximized="1"
     inkscape:current-layer="g1">
    <inkscape:page
       x="0"
       y="0"
       inkscape:label="1"
       id="page1"
       width="313.34604"
       height="100.849"
       margin="0"
       bleed="0" />
  </sodipodi:namedview>
  <g
     id="g1"
     inkscape:groupmode="layer"
     inkscape:label="1"
     transform="translate(-270.98828,-114.17444)">
    <path
       id="path1"
       d="M 0,-25.8918 V 28.48953 M 29.08138,-25.8918 V 28.48953 M 58.16277,-25.8918 V 28.48953 M 87.24414,-25.8918 V 28.48953 M 116.32553,-25.8918 V 28.48953 M 145.40692,-25.8918 V 28.48953 M 174.4883,-25.8918 v 54.38133"
       style="fill:none;stroke:#d9d9d9;stroke-width:0.3985;stroke-linecap:butt;stroke-linejoin:miter;stroke-miterlimit:10;stroke-dasharray:0.3985, 0.99628;stroke-dashoffset:0;stroke-opacity:1"
       transform="matrix(1.3333333,0,0,-1.3333333,327.92,166.384)" />
    <path
       id="path2"
       d="m -17.44882,-25.8918 h 209.38595 m -209.38595,8.6306 H 191.93713 M -17.44882,-8.6306 H 191.93713 M -17.44882,0 H 191.93713 M -17.44882,8.6306 h 209.38595 m -209.38595,8.6306 h 209.38595 m -209.38595,8.6306 h 209.38595"
       style="fill:none;stroke:#d9d9d9;stroke-width:0.3985;stroke-linecap:butt;stroke-linejoin:miter;stroke-miterlimit:10;stroke-dasharray:0.3985, 0.99628;stroke-dashoffset:0;stroke-opacity:1"
       transform="matrix(1.3333333,0,0,-1.3333333,327.92,166.384)" />
    <path
       id="path3"
       d="m 0,-28.72626 v 2.83446 m 29.08138,-2.83446 v 2.83446 m 29.08139,-2.83446 v 2.83446 m 29.08137,-2.83446 v 2.83446 m 29.08139,-2.83446 v 2.83446 m 29.08139,-2.83446 v 2.83446 m 29.08138,-2.83446 v 2.83446 M 0,31.32399 v -2.83446 m 29.08138,2.83446 v -2.83446 m 29.08139,2.83446 v -2.83446 m 29.08137,2.83446 v -2.83446 m 29.08139,2.83446 v -2.83446 m 29.08139,2.83446 v -2.83446 m 29.08138,2.83446 v -2.83446"
       style="fill:none;stroke:#d9d9d9;stroke-width:0.19925;stroke-linecap:butt;stroke-linejoin:miter;stroke-miterlimit:10;stroke-dasharray:none;stroke-opacity:1"
       transform="matrix(1.3333333,0,0,-1.3333333,327.92,166.384)" />
    <path
       id="path4"
       d="m -17.44882,-25.8918 h 1.87077 m -1.87077,2.59805 h 1.87077 m -1.87077,1.51981 h 1.87077 m -1.87077,1.07828 h 1.87077 m -1.87077,0.83639 h 1.87077 m -1.87077,0.68341 h 1.87077 m -1.87077,0.57776 h 1.87077 m -1.87077,0.5005 h 1.87077 m -1.87077,0.44149 h 1.87077 m -1.87077,0.39491 h 1.87077 m -1.87077,2.59808 h 1.87077 m -1.87077,1.51979 h 1.87077 m -1.87077,1.07827 h 1.87077 m -1.87077,0.83641 h 1.87077 m -1.87077,0.68339 h 1.87077 m -1.87077,0.57778 h 1.87077 m -1.87077,0.50048 h 1.87077 m -1.87077,0.44149 h 1.87077 m -1.87077,0.39491 h 1.87077 m -1.87077,2.59808 h 1.87077 m -1.87077,1.51981 h 1.87077 m -1.87077,1.07826 h 1.87077 m -1.87077,0.8364 h 1.87077 m -1.87077,0.68339 h 1.87077 m -1.87077,0.57778 h 1.87077 m -1.87077,0.5005 h 1.87077 m -1.87077,0.44147 h 1.87077 M -17.44882,0 h 1.87077 m -1.87077,2.59805 h 1.87077 m -1.87077,1.51981 h 1.87077 m -1.87077,1.07826 h 1.87077 m -1.87077,0.8364 h 1.87077 m -1.87077,0.68341 h 1.87077 m -1.87077,0.57776 h 1.87077 m -1.87077,0.50051 h 1.87077 m -1.87077,0.44146 h 1.87077 m -1.87077,0.39494 h 1.87077 m -1.87077,2.59805 h 1.87077 m -1.87077,1.51981 h 1.87077 m -1.87077,1.07826 h 1.87077 m -1.87077,0.8364 h 1.87077 m -1.87077,0.68341 h 1.87077 m -1.87077,0.57777 h 1.87077 m -1.87077,0.5005 h 1.87077 m -1.87077,0.44149 h 1.87077 m -1.87077,0.39491 h 1.87077 m -1.87077,2.59807 h 1.87077 m -1.87077,1.5198 h 1.87077 m -1.87077,1.07827 h 1.87077 m -1.87077,0.83641 h 1.87077 m -1.87077,0.68339 h 1.87077 m -1.87077,0.57778 h 1.87077 m -1.87077,0.50048 h 1.87077 m -1.87077,0.44149 h 1.87077 M 191.93713,-25.8918 h -1.87077 m 1.87077,2.59805 h -1.87077 m 1.87077,1.51981 h -1.87077 m 1.87077,1.07828 h -1.87077 m 1.87077,0.83639 h -1.87077 m 1.87077,0.68341 h -1.87077 m 1.87077,0.57776 h -1.87077 m 1.87077,0.5005 h -1.87077 m 1.87077,0.44149 h -1.87077 m 1.87077,0.39491 h -1.87077 m 1.87077,2.59808 h -1.87077 m 1.87077,1.51979 h -1.87077 m 1.87077,1.07827 h -1.87077 m 1.87077,0.83641 h -1.87077 m 1.87077,0.68339 h -1.87077 m 1.87077,0.57778 h -1.87077 m 1.87077,0.50048 h -1.87077 m 1.87077,0.44149 h -1.87077 m 1.87077,0.39491 h -1.87077 m 1.87077,2.59808 h -1.87077 m 1.87077,1.51981 h -1.87077 m 1.87077,1.07826 h -1.87077 m 1.87077,0.8364 h -1.87077 m 1.87077,0.68339 h -1.87077 m 1.87077,0.57778 h -1.87077 m 1.87077,0.5005 h -1.87077 m 1.87077,0.44147 h -1.87077 M 191.93713,0 h -1.87077 m 1.87077,2.59805 h -1.87077 m 1.87077,1.51981 h -1.87077 m 1.87077,1.07826 h -1.87077 m 1.87077,0.8364 h -1.87077 m 1.87077,0.68341 h -1.87077 m 1.87077,0.57776 h -1.87077 m 1.87077,0.50051 h -1.87077 m 1.87077,0.44146 h -1.87077 m 1.87077,0.39494 h -1.87077 m 1.87077,2.59805 h -1.87077 m 1.87077,1.51981 h -1.87077 m 1.87077,1.07826 h -1.87077 m 1.87077,0.8364 h -1.87077 m 1.87077,0.68341 h -1.87077 m 1.87077,0.57777 h -1.87077 m 1.87077,0.5005 h -1.87077 m 1.87077,0.44149 h -1.87077 m 1.87077,0.39491 h -1.87077 m 1.87077,2.59807 h -1.87077 m 1.87077,1.5198 h -1.87077 m 1.87077,1.07827 h -1.87077 m 1.87077,0.83641 h -1.87077 m 1.87077,0.68339 h -1.87077 m 1.87077,0.57778 h -1.87077 m 1.87077,0.50048 h -1.87077 m 1.87077,0.44149 h -1.87077"
       style="fill:none;stroke:#d9d9d9;stroke-width:0.19925;stroke-linecap:butt;stroke-linejoin:miter;stroke-miterlimit:10;stroke-dasharray:none;stroke-opacity:1"
       transform="matrix(1.3333333,0,0,-1.3333333,327.92,166.384)" />
    <path
       id="path5"
       d="m -17.44882,-25.8918 h 2.83493 m -2.83493,8.6306 h 2.83493 m -2.83493,8.6306 h 2.83493 M -17.44882,0 h 2.83493 m -2.83493,8.6306 h 2.83493 m -2.83493,8.6306 h 2.83493 m -2.83493,8.6306 h 2.83493 m 206.55102,-51.7836 h -2.83493 m 2.83493,8.6306 h -2.83493 m 2.83493,8.6306 H 189.1022 M 191.93713,0 h -2.83493 m 2.83493,8.6306 h -2.83493 m 2.83493,8.6306 h -2.83493 m 2.83493,8.6306 h -2.83493"
       style="fill:none;stroke:#d9d9d9;stroke-width:0.19925;stroke-linecap:butt;stroke-linejoin:miter;stroke-miterlimit:10;stroke-dasharray:none;stroke-opacity:1"
       transform="matrix(1.3333333,0,0,-1.3333333,327.92,166.384)" />
    <path
       id="path6"
       d="m -17.44882,-24.39738 v 51.3925 c 0,0.82535 0.66907,1.49441 1.49442,1.49441 h 206.39712 c 0.82535,0 1.49441,-0.66906 1.49441,-1.49441 v -51.3925 c 0,-0.82535 -0.66906,-1.49442 -1.49441,-1.49442 H -15.9544 c -0.82535,0 -1.49442,0.66907 -1.49442,1.49442 v 0 c 0,-0.82535 0,-0.82535 0,0 z"
       style="fill:none;stroke:#bfbfbf;stroke-width:0.74721;stroke-linecap:butt;stroke-linejoin:miter;stroke-miterlimit:10;stroke-dasharray:none;stroke-opacity:1"
       transform="matrix(1.3333333,0,0,-1.3333333,327.92,166.384)" />
    <path
       id="path7"
       d="m 0.85671094,-0.93735938 c -0.1875,0.38671875 -0.29296875,0.609375 -0.76171875,0.65625 -0.05859375,0.0585938 -0.05859375,0.24609375 0,0.3046875 0.15234375,-0.01171875 0.3515625,-0.023437495 0.5859375,-0.023437495 0.24609375,0 0.58593751,0.011718745 0.86718751,0.023437495 0.046875,-0.05859375 0.046875,-0.24609375 0,-0.3046875 C 1.0559297,-0.31626563 0.99733594,-0.43345313 1.2082734,-0.87876563 L 1.3723359,-1.2654844 c 0.035156,-0.058594 0.058594,-0.09375 0.1992188,-0.09375 h 1.6757812 l 0.1875,0.48046877 c 0.1992188,0.48046875 0.2109375,0.55078125 -0.28125,0.59765625 -0.046875,0.0585938 -0.046875,0.24609375 0,0.3046875 C 3.4699922,0.01185937 3.8215547,1.40625e-4 4.1028047,1.40625e-4 c 0.2695312,0 0.5390625,0.011718745 0.796875,0.023437495 0.046875,-0.05859375 0.046875,-0.24609375 0,-0.3046875 -0.4804688,-0.0585938 -0.5039063,-0.12890625 -0.7265625,-0.65625 L 2.8020234,-4.3123594 c -0.140625,0.070312 -0.3046875,0.140625 -0.4921875,0.1757813 z M 3.1418672,-1.6639219 h -1.359375 c -0.1757813,0 -0.1640625,-0.1289062 -0.082031,-0.3046875 l 0.65625,-1.5117187 0.070312,-0.011719 z m 0,0"
       style="fill:#000000;fill-opacity:1;fill-rule:nonzero;stroke:none"
       aria-label="a"
       transform="matrix(1.3333333,0,0,1.3333333,324.596,214.992)" />
    <path
       id="path8"
       d="m 1.6875469,-3.4812969 c 0,-0.28125 0.058594,-0.3632812 0.6796875,-0.3632812 0.3984375,0 0.8554687,0.09375 0.8554687,0.6914062 0,0.5390625 -0.2578125,0.7734375 -0.84375,0.7734375 H 1.6875469 Z m 0,1.40625 h 0.6914062 c 0.8203125,0 1.03125,0.4101563 1.03125,0.890625 0,0.39843753 -0.1523437,0.90234378 -1.0664062,0.90234378 -0.5742188,0 -0.65625,-0.1171875 -0.65625,-0.45703125 z m 0.890625,2.09765628 c 1.1835937,0 1.6054687,-0.50390625 1.6054687,-1.14843748 0,-0.5742188 -0.2929687,-0.9726563 -0.9257812,-1.1132813 0.3632812,-0.1640625 0.65625,-0.5625 0.65625,-0.9140625 0,-0.5039062 -0.234375,-0.984375 -1.5351563,-0.984375 -0.4804687,0 -0.796875,0.011719 -1.0546875,0.011719 -0.2578125,0 -0.65624997,-0.011719 -0.99609372,-0.011719 -0.046875,0.046875 -0.046875,0.234375 0,0.2929688 0.55078125,0.035156 0.64453125,0.070312 0.64453125,0.8085937 v 1.9453125 c 0,0.73828128 -0.09375,0.76171878 -0.64453125,0.80859378 -0.046875,0.0585938 -0.046875,0.24609375 0,0.3046875 0.375,-0.01171875 0.76171872,-0.023437505 1.00781252,-0.023437505 0.2695312,0 0.7382812,0.023437505 1.2421875,0.023437505 z m 0,0"
       style="fill:#000000;fill-opacity:1;fill-rule:nonzero;stroke:none"
       aria-label="b"
       transform="matrix(1.3333333,0,0,1.3333333,363.664,214.60267)" />
    <path
       id="path9"
       d="m 2.4721641,0.09292188 c 0.703125,0 1.1367187,-0.26953125 1.546875,-0.83203125 -0.011719,-0.0585938 -0.1054688,-0.15234375 -0.1757813,-0.17578125 -0.4101562,0.48046875 -0.7265625,0.66796875 -1.3242187,0.66796875 -0.890625,0 -1.40625,-0.96093753 -1.40625,-1.85156253 0,-1.5117187 0.703125,-1.8164062 1.3710937,-1.8164062 0.7148438,0 1.1367188,0.3867187 1.2421875,1.0195312 0.09375,0.023437 0.1875,0.023437 0.2695313,-0.023437 0,-0.375 -0.011719,-0.75 -0.1054688,-1.1484375 -0.3398437,0 -0.7382812,-0.1523437 -1.4648437,-0.1523437 -1.1835938,0 -2.09765629,0.9023437 -2.09765629,2.2148437 0,0.5742188 0.1875,1.18359378 0.62109375,1.58203128 0.36328124,0.328125 0.86718754,0.515625 1.52343754,0.5156245 z m 0,0"
       style="fill:#000000;fill-opacity:1;fill-rule:nonzero;stroke:none"
       aria-label="c"
       transform="matrix(1.3333333,0,0,1.3333333,402.528,214.60267)" />
    <path
       id="path10"
       d="M 1.6878906,-0.68051562 V -3.5633281 c 0,-0.234375 0.2226563,-0.28125 0.5742188,-0.28125 1.5,0 1.7109375,1.0429687 1.7109375,1.9804687 0,1.25390628 -0.5625,1.58203128 -1.546875,1.58203128 -0.6796875,0 -0.7382813,-0.15234375 -0.7382813,-0.3984375 z M 0.32851563,-4.1375469 c -0.046875,0.046875 -0.046875,0.234375 0,0.2929688 0.55078125,0.035156 0.64453125,0.070312 0.64453125,0.8085937 v 1.9453125 c 0,0.73828128 -0.09375,0.76171878 -0.64453125,0.80859378 -0.046875,0.0585938 -0.046875,0.24609375 0,0.3046875 C 0.66835938,0.01089063 1.0785156,-8.28125e-4 1.3363281,-8.28125e-4 c 0.234375,0 0.5859375,0.023437505 1.3125,0.023437505 0.9960938,0 2.0976563,-0.46875 2.0976563,-2.03906248 0,-1.1953125 -0.7265625,-2.1210938 -2.2265625,-2.1210938 -0.609375,0 -0.9375,0.011719 -1.1953125,0.011719 -0.234375,0 -0.64453127,-0.011719 -0.99609377,-0.011719 z m 0,0"
       style="fill:#000000;fill-opacity:1;fill-rule:nonzero;stroke:none"
       aria-label="d"
       transform="matrix(1.3333333,0,0,1.3333333,440.86667,214.60267)" />
    <path
       id="path11"
       d="m 2.2265391,-2.0164531 c 0.5859375,0 0.5976562,0.1640625 0.6210937,0.5039062 0.035156,0.046875 0.1992188,0.046875 0.2460938,0 -0.011719,-0.2109375 -0.023437,-0.515625 -0.023437,-0.65625 0,-0.1289062 0.011719,-0.4101562 0.023437,-0.6328125 -0.046875,-0.046875 -0.2109375,-0.046875 -0.2460938,0 -0.023437,0.3984375 -0.046875,0.4921875 -0.6210937,0.4921875 h -0.515625 v -1.265625 c 0,-0.1523437 0.1171875,-0.2578125 0.2929687,-0.2578125 h 0.5039063 c 0.7382812,0 0.8554687,0.3046875 1.0195312,0.8085938 0.082031,0.011719 0.1640625,-0.011719 0.234375,-0.046875 -0.035156,-0.3046875 -0.140625,-0.9960938 -0.1523437,-1.0664063 0,-0.011719 -0.011719,-0.023437 -0.035156,-0.023437 -0.1171875,0.023437 -0.2109375,0.035156 -0.3632812,0.035156 H 1.3593516 c -0.2695313,0 -0.67968754,-0.011719 -0.99609379,-0.011719 -0.0585938,0.046875 -0.0585938,0.234375 0,0.2929688 0.5390625,0.035156 0.64453129,0.070312 0.64453129,0.8085937 v 1.9453125 c 0,0.73828128 -0.10546879,0.76171878 -0.64453129,0.80859378 -0.0585938,0.0585938 -0.0585938,0.24609375 0,0.3046875 C 0.67966406,0.01089063 1.0781016,-8.28125e-4 1.3593516,-8.28125e-4 h 1.3828125 c 0.3632812,0 0.9492187,0.023437505 0.9492187,0.023437505 0.1054688,-0.375 0.2109375,-0.8671875 0.2695313,-1.24218748 -0.082031,-0.046875 -0.1523438,-0.058594 -0.2460938,-0.035156 -0.1523437,0.52734378 -0.4101562,0.97265628 -1.1484375,0.97265628 H 2.1796641 c -0.375,0 -0.46875,-0.09375 -0.46875,-0.38671875 V -2.0164531 Z m 0,0"
       style="fill:#000000;fill-opacity:1;fill-rule:nonzero;stroke:none"
       aria-label="e"
       transform="matrix(1.3333333,0,0,1.3333333,480.168,214.60267)" />
    <path
       id="path12"
       d="m 0.98339062,-1.0906719 c 0,0.73828128 -0.09375,0.76171878 -0.64453125,0.80859378 -0.0585938,0.0585938 -0.0585938,0.24609375 0,0.3046875 C 0.67870312,0.01089063 1.0537031,-8.28125e-4 1.3466719,-8.28125e-4 c 0.3164062,0 0.65625,0.011718755 0.9960937,0.023437505 0.046875,-0.05859375 0.046875,-0.24609375 0,-0.3046875 -0.5507812,-0.0351563 -0.6445312,-0.0820313 -0.6445312,-0.80859378 v -0.796875 h 0.5039062 c 0.5859375,0 0.5976563,0.1992188 0.6210938,0.5039063 0.046875,0.046875 0.2109375,0.046875 0.2460937,0 0,-0.1875 -0.011719,-0.3984375 -0.011719,-0.65625 0,-0.2460938 0.011719,-0.4570313 0.011719,-0.6328125 -0.035156,-0.046875 -0.1992187,-0.046875 -0.2460937,0 -0.023437,0.3984375 -0.023437,0.5039062 -0.6210938,0.5039062 H 1.6982344 v -1.40625 c 0,-0.1523437 0.1171875,-0.2578125 0.28125,-0.2578125 h 0.6914062 c 0.5507813,0 0.6679688,0.3046875 0.8320313,0.8085938 0.09375,0.011719 0.1757812,-0.011719 0.2460937,-0.046875 -0.035156,-0.3046875 -0.140625,-0.9960938 -0.1640625,-1.0664063 0,-0.011719 -0.011719,-0.023437 -0.023437,-0.023437 -0.1289062,0.023437 -0.1875,0.035156 -0.375,0.035156 h -1.851563 c -0.2695312,0 -0.63281248,-0.011719 -0.99609373,-0.011719 -0.0585938,0.046875 -0.0585938,0.234375 0,0.2929688 0.55078125,0.035156 0.64453125,0.070312 0.64453125,0.8085937 z m 0,0"
       style="fill:#000000;fill-opacity:1;fill-rule:nonzero;stroke:none"
       aria-label="f"
       transform="matrix(1.3333333,0,0,1.3333333,519.056,214.60267)" />
    <path
       id="path13"
       d="m 4.2314219,-0.82114062 c 0,-0.73828128 0.058594,-0.76171878 0.328125,-0.80859378 0.058594,-0.058594 0.058594,-0.2460937 0,-0.2929687 -0.1523438,0 -0.4101563,0.011719 -0.6914063,0.011719 -0.2578125,0 -0.6796875,-0.011719 -0.9375,-0.011719 -0.046875,0.046875 -0.046875,0.234375 0,0.2929687 0.5507813,0.035156 0.5976563,0.070312 0.5976563,0.80859378 v 0.4921875 c -0.2929688,0.0820313 -0.5859375,0.1171875 -0.9023438,0.1171875 -1.1132812,0 -1.4882812,-1.14843748 -1.4882812,-1.87499998 0,-1.0898438 0.5273437,-1.828125 1.3828125,-1.828125 0.890625,0 1.265625,0.4453125 1.3945312,1.0195312 0.09375,0.023437 0.1875,0.023437 0.2695313,-0.023437 -0.011719,-0.375 -0.035156,-0.75 -0.1171875,-1.1484375 -0.2695313,0 -0.9257813,-0.1523437 -1.4296875,-0.1523437 -1.2773438,0 -2.30859377,0.8320312 -2.30859377,2.25 0,1.13671873 0.85546877,2.06249998 2.13281247,2.06249998 0.609375,0 1.2773438,-0.093750005 1.8632813,-0.421875 -0.058594,-0.0585938 -0.09375,-0.140625 -0.09375,-0.19921875 z m 0,0"
       style="fill:#000000;fill-opacity:1;fill-rule:nonzero;stroke:none"
       aria-label="g"
       transform="matrix(1.3333333,0,0,1.3333333,557.33467,214.60267)" />
    <g
       id="g13"
       aria-label="0.001"
       transform="matrix(1.3333333,0,0,1.3333333,279.45067,203.032)">
      <path
         id="path14"
         d="m 1.6864141,-4.1841563 c 0.1289062,0 0.2460937,0.046875 0.328125,0.1171875 0.2226562,0.1992188 0.421875,0.75 0.421875,1.7226563 0,0.6679687 -0.023437,1.125 -0.1289063,1.5 -0.1523437,0.59765625 -0.515625,0.65625 -0.6445312,0.65625 -0.67968754,0 -0.75000004,-1.2421875 -0.75000004,-1.875 0,-1.7929688 0.44531254,-2.1210938 0.77343754,-2.1210938 z M 1.6629766,0.06975 c 0.5507812,0 1.40625,-0.5625 1.40625,-2.2734375 0,-0.7265625 -0.1757813,-1.3359375 -0.4921875,-1.7578125 -0.1875,-0.2578125 -0.4921875,-0.4804688 -0.890625,-0.4804688 -0.71484379,0 -1.40625004,0.8554688 -1.40625004,2.296875 0,0.7851563 0.24609375,1.5117188 0.64453125,1.9101563 C 1.1239141,-0.024 1.3700078,0.06975 1.6629766,0.06975 Z m 0,0"
         style="fill:#000000;fill-opacity:1;fill-rule:nonzero;stroke:none" />
      <path
         id="path15"
         d="m 3.9422734,-0.30525 c 0,0.2109375 0.1992188,0.38671875 0.4453125,0.38671875 0.234375,0 0.4453125,-0.17578125 0.4453125,-0.38671875 0,-0.2109375 -0.2109375,-0.38671875 -0.4453125,-0.38671875 -0.2460937,0 -0.4453125,0.17578125 -0.4453125,0.38671875 z m 0,0"
         style="fill:#000000;fill-opacity:1;fill-rule:nonzero;stroke:none" />
      <path
         id="path16"
         d="m 7.0828984,-4.1841563 c 0.1289063,0 0.2460938,0.046875 0.328125,0.1171875 0.2226563,0.1992188 0.421875,0.75 0.421875,1.7226563 0,0.6679687 -0.023437,1.125 -0.1289062,1.5 -0.1523438,0.59765625 -0.515625,0.65625 -0.6445313,0.65625 -0.6796875,0 -0.75,-1.2421875 -0.75,-1.875 0,-1.7929688 0.4453125,-2.1210938 0.7734375,-2.1210938 z M 7.0594609,0.06975 c 0.5507813,0 1.40625,-0.5625 1.40625,-2.2734375 0,-0.7265625 -0.1757812,-1.3359375 -0.4921875,-1.7578125 -0.1875,-0.2578125 -0.4921875,-0.4804688 -0.890625,-0.4804688 -0.7148437,0 -1.40625,0.8554688 -1.40625,2.296875 0,0.7851563 0.2460938,1.5117188 0.6445313,1.9101563 C 6.5203984,-0.024 6.7664922,0.06975 7.0594609,0.06975 Z m 3.4072261,-4.2539063 c 0.128907,0 0.246094,0.046875 0.328125,0.1171875 0.222657,0.1992188 0.421875,0.75 0.421875,1.7226563 0,0.6679687 -0.02344,1.125 -0.128906,1.5 -0.152344,0.59765625 -0.515625,0.65625 -0.644531,0.65625 -0.6796875,0 -0.75,-1.2421875 -0.75,-1.875 0,-1.7929688 0.445312,-2.1210938 0.773437,-2.1210938 z M 10.44325,0.06975 c 0.550781,0 1.40625,-0.5625 1.40625,-2.2734375 0,-0.7265625 -0.175781,-1.3359375 -0.492188,-1.7578125 -0.1875,-0.2578125 -0.492187,-0.4804688 -0.890625,-0.4804688 -0.7148433,0 -1.4062495,0.8554688 -1.4062495,2.296875 0,0.7851563 0.2460937,1.5117188 0.6445312,1.9101563 C 9.9041875,-0.024 10.150281,0.06975 10.44325,0.06975 Z m 3.814453,-0.9609375 v -2.5195313 c 0,-0.4453125 0,-0.8789062 0.02344,-0.9726562 0,-0.046875 -0.02344,-0.046875 -0.04687,-0.046875 -0.398438,0.2578125 -0.785157,0.4335937 -1.429688,0.7382812 0.02344,0.070312 0.04687,0.1523438 0.117188,0.1875 0.328125,-0.140625 0.492187,-0.1757812 0.632812,-0.1757812 0.117188,0 0.140625,0.1757812 0.140625,0.421875 v 2.3671875 c 0,0.609375 -0.199219,0.64453125 -0.703125,0.66796875 -0.04687,0.0351563 -0.04687,0.19921875 0,0.234375 0.351563,0 0.621094,-0.01171875 1.007813,-0.01171875 0.351562,0 0.527343,0.01171875 0.890625,0.01171875 0.04687,-0.03515625 0.04687,-0.19921875 0,-0.234375 -0.515625,-0.0234375 -0.632813,-0.0585938 -0.632813,-0.66796875 z m 0,0"
         style="fill:#000000;fill-opacity:1;fill-rule:nonzero;stroke:none" />
    </g>
    <g
       id="g16"
       aria-label="0.01"
       transform="matrix(1.3333333,0,0,1.3333333,283.95867,191.524)">
      <path
         id="path17"
         d="m 1.6862734,-4.1840156 c 0.1289063,0 0.2460938,0.046875 0.328125,0.1171875 0.2226563,0.1992187 0.421875,0.75 0.421875,1.7226562 0,0.6679688 -0.023437,1.125 -0.1289062,1.50000002 -0.1523438,0.59765625 -0.515625,0.65625 -0.6445313,0.65625 -0.67968746,0 -0.74999996,-1.24218752 -0.74999996,-1.87500002 0,-1.7929687 0.44531246,-2.1210937 0.77343746,-2.1210937 z m -0.023437,4.25390622 c 0.5507813,0 1.40625,-0.5625 1.40625,-2.27343752 0,-0.7265625 -0.1757812,-1.3359375 -0.4921875,-1.7578125 -0.1875,-0.2578125 -0.4921875,-0.4804687 -0.890625,-0.4804687 -0.71484371,0 -1.40624996,0.8554687 -1.40624996,2.296875 0,0.7851562 0.24609375,1.51171872 0.64453125,1.91015622 0.19921871,0.2109375 0.44531251,0.3046875 0.73828121,0.3046875 z m 0,0"
         style="fill:#000000;fill-opacity:1;fill-rule:nonzero;stroke:none" />
      <path
         id="path18"
         d="m 3.9450625,-0.30510938 c 0,0.2109375 0.1992188,0.38671875 0.4453125,0.38671875 0.234375,0 0.4453125,-0.17578125 0.4453125,-0.38671875 0,-0.2109375 -0.2109375,-0.38671875 -0.4453125,-0.38671875 -0.2460937,0 -0.4453125,0.17578125 -0.4453125,0.38671875 z m 0,0"
         style="fill:#000000;fill-opacity:1;fill-rule:nonzero;stroke:none" />
      <path
         id="path19"
         d="m 7.0856875,-4.1840156 c 0.1289063,0 0.2460938,0.046875 0.328125,0.1171875 0.2226563,0.1992187 0.421875,0.75 0.421875,1.7226562 0,0.6679688 -0.023437,1.125 -0.1289062,1.50000002 -0.1523438,0.59765625 -0.515625,0.65625 -0.6445313,0.65625 -0.6796875,0 -0.75,-1.24218752 -0.75,-1.87500002 0,-1.7929687 0.4453125,-2.1210937 0.7734375,-2.1210937 z M 7.06225,0.06989062 c 0.5507813,0 1.40625,-0.5625 1.40625,-2.27343752 0,-0.7265625 -0.1757812,-1.3359375 -0.4921875,-1.7578125 -0.1875,-0.2578125 -0.4921875,-0.4804687 -0.890625,-0.4804687 -0.7148437,0 -1.40625,0.8554687 -1.40625,2.296875 0,0.7851562 0.2460938,1.51171872 0.6445313,1.91015622 0.1992187,0.2109375 0.4453125,0.3046875 0.7382812,0.3046875 z m 3.814453,-0.9609375 V -3.4105781 c 0,-0.4453125 0,-0.8789063 0.02344,-0.9726563 0,-0.046875 -0.02344,-0.046875 -0.04687,-0.046875 -0.398438,0.2578125 -0.785157,0.4335938 -1.4296879,0.7382813 0.023437,0.070312 0.046875,0.1523437 0.1171875,0.1875 0.328125,-0.140625 0.4921874,-0.1757813 0.6328124,-0.1757813 0.117188,0 0.140625,0.1757813 0.140625,0.421875 v 2.36718752 c 0,0.609375 -0.199219,0.64453125 -0.7031249,0.66796875 -0.046875,0.0351563 -0.046875,0.19921875 0,0.234375 0.3515625,0 0.6210939,-0.011718745 1.0078129,-0.011718745 0.351562,0 0.527343,0.011718745 0.890625,0.011718745 0.04687,-0.03515625 0.04687,-0.19921875 0,-0.234375 -0.515625,-0.0234375 -0.632813,-0.0585937 -0.632813,-0.66796875 z m 0,0"
         style="fill:#000000;fill-opacity:1;fill-rule:nonzero;stroke:none" />
    </g>
    <g
       id="g19"
       aria-label="0.1"
       transform="matrix(1.3333333,0,0,1.3333333,288.468,180.01733)">
      <path
         id="path20"
         d="m 1.6880625,-4.184875 c 0.1289063,0 0.2460938,0.046875 0.328125,0.1171875 0.2226563,0.1992187 0.421875,0.75 0.421875,1.7226562 0,0.6679688 -0.023437,1.125 -0.1289062,1.50000005 -0.1523438,0.59765625 -0.515625,0.65625 -0.6445313,0.65625 -0.6796875,0 -0.75,-1.24218755 -0.75,-1.87500005 0,-1.7929687 0.4453125,-2.1210937 0.7734375,-2.1210937 z M 1.664625,0.06903125 c 0.5507813,0 1.40625,-0.5625 1.40625,-2.27343755 0,-0.7265625 -0.1757812,-1.3359375 -0.4921875,-1.7578125 -0.1875,-0.2578125 -0.4921875,-0.4804687 -0.890625,-0.4804687 -0.71484375,0 -1.40625,0.8554687 -1.40625,2.296875 0,0.7851562 0.24609375,1.51171875 0.64453125,1.91015625 0.19921875,0.2109375 0.44531255,0.3046875 0.73828125,0.3046875 z m 0,0"
         style="fill:#000000;fill-opacity:1;fill-rule:nonzero;stroke:none" />
      <path
         id="path21"
         d="m 3.9439219,-0.30596875 c 0,0.2109375 0.1992187,0.38671875 0.4453125,0.38671875 0.234375,0 0.4453125,-0.17578125 0.4453125,-0.38671875 0,-0.2109375 -0.2109375,-0.38671875 -0.4453125,-0.38671875 -0.2460938,0 -0.4453125,0.17578125 -0.4453125,0.38671875 z m 0,0"
         style="fill:#000000;fill-opacity:1;fill-rule:nonzero;stroke:none" />
      <path
         id="path22"
         d="M 7.4947031,-0.89190625 V -3.4114375 c 0,-0.4453125 0,-0.8789063 0.023437,-0.9726563 0,-0.046875 -0.023437,-0.046875 -0.046875,-0.046875 -0.3984375,0.2578125 -0.7851562,0.4335938 -1.4296875,0.7382813 0.023437,0.070312 0.046875,0.1523437 0.1171875,0.1875 0.328125,-0.140625 0.4921875,-0.1757813 0.6328125,-0.1757813 0.1171875,0 0.140625,0.1757813 0.140625,0.421875 v 2.36718755 c 0,0.609375 -0.1992187,0.64453125 -0.703125,0.66796875 -0.046875,0.0351563 -0.046875,0.19921875 0,0.234375 0.3515625,0 0.6210938,-0.01171875 1.0078125,-0.01171875 0.3515625,0 0.5273438,0.01171875 0.890625,0.01171875 0.046875,-0.03515625 0.046875,-0.19921875 0,-0.234375 -0.515625,-0.0234375 -0.6328125,-0.0585938 -0.632812,-0.66796875 z m 0,0"
         style="fill:#000000;fill-opacity:1;fill-rule:nonzero;stroke:none" />
    </g>
    <path
       id="path23"
       d="M 2.0977031,-0.89176562 V -3.4112969 c 0,-0.4453125 0,-0.8789062 0.023437,-0.9726562 0,-0.046875 -0.023437,-0.046875 -0.046875,-0.046875 -0.3984375,0.2578125 -0.7851562,0.4335937 -1.42968747,0.7382812 0.0234375,0.070312 0.046875,0.1523438 0.1171875,0.1875 0.32812497,-0.140625 0.49218747,-0.1757812 0.63281247,-0.1757812 0.1171875,0 0.140625,0.1757812 0.140625,0.421875 v 2.36718748 c 0,0.609375 -0.1992187,0.64453125 -0.70312497,0.66796875 -0.046875,0.0351563 -0.046875,0.19921875 0,0.234375 0.35156247,0 0.62109377,-0.01171875 1.00781247,-0.01171875 0.3515625,0 0.5273438,0.01171875 0.890625,0.01171875 0.046875,-0.03515625 0.046875,-0.19921875 0,-0.234375 -0.515625,-0.0234375 -0.6328125,-0.0585937 -0.632812,-0.66796875 z m 0,0"
       style="fill:#000000;fill-opacity:1;fill-rule:nonzero;stroke:none"
       aria-label="1"
       transform="matrix(1.3333333,0,0,1.3333333,295.664,168.50933)" />
    <path
       id="path24"
       d="M 2.0988437,-0.88969531 V -3.4092266 c 0,-0.4453125 0,-0.8789062 0.023437,-0.9726562 0,-0.046875 -0.023437,-0.046875 -0.046875,-0.046875 -0.3984375,0.2578125 -0.7851562,0.4335937 -1.42968745,0.7382812 0.0234375,0.070312 0.046875,0.1523438 0.1171875,0.1875 0.32812495,-0.140625 0.49218745,-0.1757812 0.63281245,-0.1757812 0.1171875,0 0.140625,0.1757812 0.140625,0.421875 v 2.36718749 c 0,0.609375 -0.1992187,0.64453125 -0.70312495,0.66796875 -0.046875,0.0351563 -0.046875,0.19921875 0,0.234375 0.35156245,0 0.62109375,-0.0117187525 1.00781245,-0.0117187525 0.3515625,0 0.5273438,0.0117187525 0.890625,0.0117187525 0.046875,-0.03515625 0.046875,-0.19921875 0,-0.234375 -0.515625,-0.0234375 -0.6328125,-0.0585938 -0.632812,-0.66796875 z M 5.0695469,-4.1826641 c 0.1289062,0 0.2460937,0.046875 0.328125,0.1171875 0.2226562,0.1992188 0.421875,0.75 0.421875,1.7226563 0,0.6679687 -0.023437,1.125 -0.1289063,1.49999999 -0.1523437,0.59765625 -0.515625,0.65625 -0.6445312,0.65625 -0.6796875,0 -0.75,-1.24218749 -0.75,-1.87499999 0,-1.7929688 0.4453125,-2.1210938 0.7734375,-2.1210938 z m -0.023437,4.25390629 c 0.5507812,0 1.40625,-0.5625 1.40625,-2.27343749 0,-0.7265625 -0.1757813,-1.3359375 -0.4921875,-1.7578125 -0.1875,-0.2578125 -0.4921875,-0.4804688 -0.890625,-0.4804688 -0.7148438,0 -1.40625,0.8554688 -1.40625,2.296875 0,0.7851563 0.2460937,1.51171879 0.6445312,1.91015629 0.1992188,0.2109375 0.4453125,0.3046875 0.7382813,0.3046875 z m 0,0"
       style="fill:#000000;fill-opacity:1;fill-rule:nonzero;stroke:none"
       aria-label="10"
       transform="matrix(1.3333333,0,0,1.3333333,291.15467,157.00267)" />
    <path
       id="path25"
       d="M 2.0970547,-0.88955469 V -3.4090859 c 0,-0.4453125 0,-0.8789063 0.023437,-0.9726563 0,-0.046875 -0.023437,-0.046875 -0.046875,-0.046875 -0.3984375,0.2578125 -0.7851563,0.4335938 -1.42968751,0.7382813 0.0234375,0.070312 0.046875,0.1523437 0.1171875,0.1875 0.32812501,-0.140625 0.49218751,-0.1757813 0.63281251,-0.1757813 0.1171875,0 0.140625,0.1757813 0.140625,0.421875 v 2.36718751 c 0,0.609375 -0.1992188,0.64453125 -0.70312501,0.66796875 -0.046875,0.0351563 -0.046875,0.19921875 0,0.234375 0.35156251,0 0.62109371,-0.01171875 1.00781251,-0.01171875 0.3515625,0 0.5273437,0.01171875 0.890625,0.01171875 0.046875,-0.03515625 0.046875,-0.19921875 0,-0.234375 -0.515625,-0.0234375 -0.6328125,-0.0585937 -0.632812,-0.66796875 z M 5.0706875,-4.1825234 c 0.1289062,0 0.2460937,0.046875 0.328125,0.1171875 0.2226562,0.1992187 0.421875,0.75 0.421875,1.7226562 0,0.6679688 -0.023437,1.125 -0.1289063,1.50000001 -0.1523437,0.59765625 -0.515625,0.65625 -0.6445312,0.65625 -0.6796875,0 -0.75,-1.24218751 -0.75,-1.87500001 0,-1.7929687 0.4453125,-2.1210937 0.7734375,-2.1210937 z M 5.04725,0.07138281 c 0.5507812,0 1.40625,-0.5625 1.40625,-2.27343751 0,-0.7265625 -0.1757813,-1.3359375 -0.4921875,-1.7578125 -0.1875,-0.2578125 -0.4921875,-0.4804687 -0.890625,-0.4804687 -0.7148438,0 -1.40625,0.8554687 -1.40625,2.296875 0,0.7851562 0.2460937,1.51171871 0.6445312,1.91015621 0.1992188,0.2109375 0.4453125,0.3046875 0.7382813,0.3046875 z M 8.4515469,-4.1825234 c 0.1289062,0 0.2460937,0.046875 0.328125,0.1171875 0.2226562,0.1992187 0.421875,0.75 0.421875,1.7226562 0,0.6679688 -0.023437,1.125 -0.1289063,1.50000001 -0.1523437,0.59765625 -0.515625,0.65625 -0.6445312,0.65625 -0.6796875,0 -0.75,-1.24218751 -0.75,-1.87500001 0,-1.7929687 0.4453125,-2.1210937 0.7734375,-2.1210937 z m -0.023437,4.25390621 c 0.5507812,0 1.40625,-0.5625 1.40625,-2.27343751 0,-0.7265625 -0.1757813,-1.3359375 -0.4921875,-1.7578125 -0.1875,-0.2578125 -0.4921875,-0.4804687 -0.890625,-0.4804687 -0.7148438,0 -1.40625,0.8554687 -1.40625,2.296875 0,0.7851562 0.2460937,1.51171871 0.6445312,1.91015621 0.1992188,0.2109375 0.4453125,0.3046875 0.7382813,0.3046875 z m 0,0"
       style="fill:#000000;fill-opacity:1;fill-rule:nonzero;stroke:none"
       aria-label="100"
       transform="matrix(1.3333333,0,0,1.3333333,286.64533,145.49467)" />
    <g
       id="g25"
       aria-label="1,000"
       transform="matrix(1.3333333,0,0,1.3333333,280.01733,133.988)">
      <path
         id="path26"
         d="M 2.096375,-0.89041406 V -3.4099453 c 0,-0.4453125 0,-0.8789063 0.023437,-0.9726563 0,-0.046875 -0.023437,-0.046875 -0.046875,-0.046875 -0.398437,0.2578125 -0.7851558,0.4335938 -1.429687,0.7382813 0.0234375,0.070312 0.046875,0.1523437 0.1171875,0.1875 0.328125,-0.140625 0.4921875,-0.1757813 0.6328125,-0.1757813 0.1171875,0 0.140625,0.1757813 0.140625,0.421875 v 2.36718754 c 0,0.609375 -0.1992188,0.64453125 -0.703125,0.66796875 -0.046875,0.0351563 -0.046875,0.19921875 0,0.234375 0.3515625,0 0.6210937,-0.0117187525 1.0078125,-0.0117187525 0.3515625,0 0.5273437,0.0117187525 0.890625,0.0117187525 0.046875,-0.03515625 0.046875,-0.19921875 0,-0.234375 -0.515625,-0.0234375 -0.6328125,-0.0585938 -0.6328125,-0.66796875 z m 0,0"
         style="fill:#000000;fill-opacity:1;fill-rule:nonzero;stroke:none" />
      <path
         id="path27"
         d="m 3.9830937,-0.69119531 c -0.2578125,0 -0.421875,0.1640625 -0.421875,0.375 0,0.234375 0.2109375,0.29296875 0.3398438,0.3164062475 0.1523437,0.0117187525 0.28125,0.0585937525 0.28125,0.2226562525 0,0.15234375 -0.28125,0.48046875 -0.6796875,0.57421875 0,0.0703125 0.011719,0.12890625 0.070312,0.1875 0.4804687,-0.0820313 0.9375,-0.4453125 0.9375,-0.9609375 0,-0.43359375 -0.2109375,-0.71484375 -0.5273433,-0.71484375 z m 0,0"
         style="fill:#000000;fill-opacity:1;fill-rule:nonzero;stroke:none" />
      <path
         id="path28"
         d="m 6.6578984,-4.1833828 c 0.1289063,0 0.2460938,0.046875 0.328125,0.1171875 0.2226563,0.1992187 0.421875,0.75 0.421875,1.7226562 0,0.6679688 -0.023437,1.125 -0.1289062,1.50000004 -0.1523438,0.59765625 -0.515625,0.65625 -0.6445313,0.65625 -0.6796875,0 -0.75,-1.24218754 -0.75,-1.87500004 0,-1.7929687 0.4453125,-2.1210937 0.7734375,-2.1210937 z m -0.023437,4.25390624 c 0.5507813,0 1.40625,-0.5625 1.40625,-2.27343754 0,-0.7265625 -0.1757812,-1.3359375 -0.4921875,-1.7578125 -0.1875,-0.2578125 -0.4921875,-0.4804687 -0.890625,-0.4804687 -0.7148437,0 -1.40625,0.8554687 -1.40625,2.296875 0,0.7851562 0.2460938,1.51171874 0.6445313,1.91015624 0.1992187,0.2109375 0.4453125,0.3046875 0.7382812,0.3046875 z M 10.041687,-4.1833828 c 0.128907,0 0.246094,0.046875 0.328125,0.1171875 0.222657,0.1992187 0.421875,0.75 0.421875,1.7226562 0,0.6679688 -0.02344,1.125 -0.128906,1.50000004 -0.152344,0.59765625 -0.515625,0.65625 -0.644531,0.65625 -0.6796875,0 -0.75,-1.24218754 -0.75,-1.87500004 0,-1.7929687 0.4453125,-2.1210937 0.773437,-2.1210937 z m -0.02344,4.25390624 c 0.550781,0 1.40625,-0.5625 1.40625,-2.27343754 0,-0.7265625 -0.175781,-1.3359375 -0.492188,-1.7578125 -0.1875,-0.2578125 -0.492187,-0.4804687 -0.890625,-0.4804687 -0.7148433,0 -1.4062495,0.8554687 -1.4062495,2.296875 0,0.7851562 0.2460937,1.51171874 0.6445312,1.91015624 0.1992188,0.2109375 0.4453125,0.3046875 0.7382813,0.3046875 z m 3.404297,-4.25390624 c 0.128906,0 0.246094,0.046875 0.328125,0.1171875 0.222656,0.1992187 0.421875,0.75 0.421875,1.7226562 0,0.6679688 -0.02344,1.125 -0.128906,1.50000004 -0.152344,0.59765625 -0.515625,0.65625 -0.644532,0.65625 -0.679687,0 -0.75,-1.24218754 -0.75,-1.87500004 0,-1.7929687 0.445313,-2.1210937 0.773438,-2.1210937 z m -0.02344,4.25390624 c 0.550782,0 1.40625,-0.5625 1.40625,-2.27343754 0,-0.7265625 -0.175781,-1.3359375 -0.492187,-1.7578125 -0.1875,-0.2578125 -0.492188,-0.4804687 -0.890625,-0.4804687 -0.714844,0 -1.40625,0.8554687 -1.40625,2.296875 0,0.7851562 0.246094,1.51171874 0.644531,1.91015624 0.199219,0.2109375 0.445313,0.3046875 0.738281,0.3046875 z m 0,0"
         style="fill:#000000;fill-opacity:1;fill-rule:nonzero;stroke:none" />
    </g>
    <path
       id="path29"
       d="m -1.49442,-17.2612 h -1.83856 c -0.27512,0 -0.49814,-0.22302 -0.49814,-0.49814 v -7.63432 c 0,-0.27512 0.22302,-0.49814 0.49814,-0.49814 h 1.83856 c 0.27512,0 0.49814,0.22302 0.49814,0.49814 v 7.63432 c 0,0.27512 -0.22302,0.49814 -0.49814,0.49814 z m 29.08138,4.69524 h -1.83858 c -0.2751,0 -0.49814,-0.22303 -0.49814,-0.49814 v -12.32956 c 0,-0.27512 0.22304,-0.49814 0.49814,-0.49814 h 1.83858 c 0.27512,0 0.49814,0.22302 0.49814,0.49814 v 12.32956 c 0,0.27511 -0.22302,0.49814 -0.49814,0.49814 z m 29.08139,0.30835 h -1.83858 c -0.27511,0 -0.49814,-0.22304 -0.49814,-0.49814 v -12.63791 c 0,-0.27512 0.22303,-0.49814 0.49814,-0.49814 h 1.83858 c 0.2751,0 0.49814,0.22302 0.49814,0.49814 v 12.63791 c 0,0.2751 -0.22304,0.49814 -0.49814,0.49814 z m 29.08138,1.5852 h -1.83857 c -0.27511,0 -0.49814,-0.22302 -0.49814,-0.49814 v -14.22311 c 0,-0.27512 0.22303,-0.49814 0.49814,-0.49814 h 1.83857 c 0.27511,0 0.49813,0.22302 0.49813,0.49814 v 14.22311 c 0,0.27512 -0.22302,0.49814 -0.49813,0.49814 z m 29.08139,10.61568 h -1.83858 c -0.2751,0 -0.49814,-0.22302 -0.49814,-0.49814 v -24.83879 c 0,-0.27512 0.22304,-0.49814 0.49814,-0.49814 h 1.83858 c 0.27511,0 0.49813,0.22302 0.49813,0.49814 v 24.83879 c 0,0.27512 -0.22302,0.49814 -0.49813,0.49814 z m 29.08138,4.35829 h -1.83857 c -0.27512,0 -0.49814,-0.22302 -0.49814,-0.49814 v -29.19708 c 0,-0.27512 0.22302,-0.49814 0.49814,-0.49814 h 1.83857 c 0.2751,0 0.49814,0.22302 0.49814,0.49814 V 3.80342 c 0,0.27512 -0.22304,0.49814 -0.49814,0.49814 z m 29.08138,1.84747 h -1.83856 c -0.27512,0 -0.49814,-0.22303 -0.49814,-0.49813 v -31.04456 c 0,-0.27512 0.22302,-0.49814 0.49814,-0.49814 h 1.83856 c 0.27512,0 0.49814,0.22302 0.49814,0.49814 V 5.6509 c 0,0.2751 -0.22302,0.49813 -0.49814,0.49813 z"
       style="fill:#d62728;fill-opacity:1;fill-rule:nonzero;stroke:#d62728;stroke-width:0.74721;stroke-linecap:round;stroke-linejoin:miter;stroke-miterlimit:10;stroke-dasharray:none;stroke-opacity:1"
       transform="matrix(1.3333333,0,0,-1.3333333,327.92,166.384)"
       clip-path="url(#clipPath30)" />
    <path
       id="path31"
       d="M 3.33298,-9.61107 H 1.49442 c -0.27512,0 -0.49814,-0.22302 -0.49814,-0.49813 v -15.28446 c 0,-0.27512 0.22302,-0.49814 0.49814,-0.49814 h 1.83856 c 0.27512,0 0.49814,0.22302 0.49814,0.49814 v 15.28446 c 0,0.27511 -0.22302,0.49813 -0.49814,0.49813 z M 32.41437,7.11359 h -1.83858 c -0.2751,0 -0.49814,-0.22303 -0.49814,-0.49814 v -32.00911 c 0,-0.27512 0.22304,-0.49814 0.49814,-0.49814 h 1.83858 c 0.2751,0 0.49813,0.22302 0.49813,0.49814 V 6.61545 c 0,0.27511 -0.22303,0.49814 -0.49813,0.49814 z m 29.08137,15.72186 h -1.83856 c -0.27512,0 -0.49814,-0.22304 -0.49814,-0.49814 v -47.73097 c 0,-0.27512 0.22302,-0.49814 0.49814,-0.49814 h 1.83856 c 0.27512,0 0.49814,0.22302 0.49814,0.49814 v 47.73097 c 0,0.2751 -0.22302,0.49814 -0.49814,0.49814 z"
       style="fill:#1f77b4;fill-opacity:1;fill-rule:nonzero;stroke:#1f77b4;stroke-width:0.74721;stroke-linecap:round;stroke-linejoin:miter;stroke-miterlimit:10;stroke-dasharray:none;stroke-opacity:1"
       transform="matrix(1.3333333,0,0,-1.3333333,327.92,166.384)"
       clip-path="url(#clipPath32)" />
    <g
       id="g32"
       aria-label="442s"
       transform="matrix(1.3333333,0,0,1.3333333,413.17067,138.148)">
      <path
         id="path33"
         d="m 1.4891875,-2.7770156 v 1.5820312 H 0.4345 C 0.71575,-1.6520156 1.1141875,-2.2613906 1.4891875,-2.7770156 Z M 2.356375,-1.1949844 H 1.8993438 v -1.6054687 c 0,-0.28125 0,-0.4921875 0.011719,-0.5390625 h -0.1875 c -0.035156,0 -0.058594,0.023437 -0.082031,0.058594 -0.3515625,0.421875 -0.98437505,1.3242188 -1.4882813,2.109375 0.0234375,0.082031 0.046875,0.23437502 0.2109375,0.23437502 h 1.125 v 0.50390625 c 0,0.24609375 -0.2109375,0.24609375 -0.4453125,0.2578125 -0.035156,0.0351563 -0.035156,0.15234375 0,0.1875 C 1.2196563,3.28125e-4 1.4423125,3.28125e-4 1.6884063,3.28125e-4 c 0.2109375,0 0.421875,0 0.5976562,0.011718745 0.035156,-0.03515625 0.035156,-0.15234375 0,-0.1875 -0.2695312,-0.0117188 -0.3867187,0 -0.3867187,-0.2578125 v -0.50390625 h 0.3867187 c 0.070312,0 0.1523438,-0.10546872 0.1523438,-0.17578122 0,-0.058594 -0.023437,-0.082031 -0.082031,-0.082031 z m 1.6787109,-1.5820312 v 1.5820312 H 2.9803984 c 0.28125,-0.4570312 0.6796875,-1.0664062 1.0546875,-1.5820312 z m 0.8671875,1.5820312 H 4.4452422 v -1.6054687 c 0,-0.28125 0,-0.4921875 0.011719,-0.5390625 h -0.1875 c -0.035156,0 -0.058594,0.023437 -0.082031,0.058594 -0.3515625,0.421875 -0.984375,1.3242188 -1.4882813,2.109375 0.023437,0.082031 0.046875,0.23437502 0.2109375,0.23437502 h 1.125 v 0.50390625 c 0,0.24609375 -0.2109375,0.24609375 -0.4453125,0.2578125 -0.035156,0.0351563 -0.035156,0.15234375 0,0.1875 C 3.7655547,3.28125e-4 3.9882109,3.28125e-4 4.2343047,3.28125e-4 c 0.2109375,0 0.421875,0 0.5976562,0.011718745 0.035156,-0.03515625 0.035156,-0.15234375 0,-0.1875 -0.2695312,-0.0117188 -0.3867187,0 -0.3867187,-0.2578125 v -0.50390625 h 0.3867187 c 0.070312,0 0.1523438,-0.10546872 0.1523438,-0.17578122 0,-0.058594 -0.023437,-0.082031 -0.082031,-0.082031 z m 0.5332032,-1.3710937 c 0,0.1171875 0.09375,0.2109375 0.2109375,0.2109375 0.09375,0 0.2578125,-0.09375 0.2578125,-0.2109375 0,-0.046875 -0.011719,-0.082031 -0.023437,-0.1171875 -0.011719,-0.046875 -0.035156,-0.09375 -0.035156,-0.140625 0,-0.1289063 0.140625,-0.328125 0.5390625,-0.328125 0.1992188,0 0.4804688,0.140625 0.4804688,0.6679687 0,0.3398438 -0.1289063,0.6328125 -0.4570313,0.9609375 l -0.3984375,0.3984375 c -0.5390625,0.55078127 -0.6328125,0.80859377 -0.6328125,1.13671877 0,0 0.28125,-0.011718745 0.4570313,-0.011718745 h 0.9609375 c 0.1757812,0 0.4335937,0.011718745 0.4335937,0.011718745 0.070312,-0.29296875 0.1171875,-0.703125 0.1289063,-0.8671875 -0.035156,-0.0234375 -0.1054688,-0.0351563 -0.1640625,-0.0234375 -0.09375,0.38671875 -0.1875,0.52734375 -0.3867188,0.52734375 h -0.972657 c 0,-0.26953125 0.375,-0.64453125 0.4101562,-0.66796872 l 0.5507813,-0.5273438 c 0.3164062,-0.3046875 0.5507812,-0.5507812 0.5507812,-0.9609375 0,-0.5976562 -0.4804687,-0.8320312 -0.9257812,-0.8320312 -0.609375,0 -0.984375,0.4453125 -0.984375,0.7734375 z m 0,0"
         style="fill:#000000;fill-opacity:1;fill-rule:nonzero;stroke:none" />
      <path
         id="path34"
         d="m 8.7079375,-0.69107813 c 0.023437,0.24609375 0.035156,0.48046875 0.035156,0.691406255 C 8.8016875,-0.01139063 8.8485625,-0.01139063 8.872,-0.01139063 c 0.035156,0 0.070312,0 0.1054688,0.011718755 0.1289062,0.035156245 0.2578125,0.046874995 0.4453125,0.046874995 0.28125,0 0.7968747,-0.12890625 0.7968747,-0.62109375 0,-0.33984375 -0.2460935,-0.53906247 -0.5859372,-0.66796877 -0.2929688,-0.1171875 -0.4921875,-0.1875 -0.4921875,-0.4570312 0,-0.2109375 0.1757812,-0.328125 0.3398437,-0.328125 0.1171875,0 0.3984375,0.046875 0.46875,0.46875 0.023437,0.035156 0.128906,0.023437 0.152344,0 0.02344,-0.1875 0.03516,-0.3632813 0.03516,-0.5390625 -0.1523437,-0.023437 -0.3984375,-0.09375 -0.65625,-0.09375 -0.3632812,0 -0.703125,0.2460937 -0.703125,0.5625 0,0.3632812 0.1640625,0.515625 0.5507813,0.67968747 0.4101562,0.1640625 0.5039062,0.26953125 0.5039062,0.48046875 0,0.24609375 -0.234375,0.3515625 -0.421875,0.3515625 -0.1875,0 -0.3046875,-0.0585938 -0.3515625,-0.1171875 -0.1054687,-0.1171875 -0.1640625,-0.328125 -0.1875,-0.45703125 -0.035156,-0.0351563 -0.1289062,-0.0234375 -0.1640625,0 z m 0,0"
         style="fill:#000000;fill-opacity:1;fill-rule:nonzero;stroke:none" />
    </g>
    <path
       id="path35"
       d="m 0.30611719,-2.9895313 c -0.10546875,0 -0.12890625,0.082031 -0.12890625,0.140625 v 0.082031 c 0,0.035156 0,0.046875 0.0351563,0.046875 h 0.41015625 v 2.09765625 c 0,0.4921875 0.2109375,0.69140625 0.53906251,0.69140625 0.3164062,0 0.6679688,-0.15234375 0.9375,-0.45703125 -0.011719,-0.0703125 -0.058594,-0.1171875 -0.1289062,-0.1171875 -0.1757814,0.12890625 -0.3867189,0.1875 -0.5625001,0.1875 -0.1875,0 -0.234375,-0.2109375 -0.234375,-0.64453125 V -2.72 h 0.7265626 c 0.070312,0 0.1640624,-0.023437 0.1640624,-0.09375 v -0.140625 c 0,-0.023437 -0.023437,-0.035156 -0.058594,-0.035156 h -0.832031 v -0.2695312 c 0,-0.4570313 0.023437,-0.7382813 0.023437,-0.7382813 0,-0.046875 -0.011719,-0.058594 -0.046875,-0.058594 -0.035156,0 -0.09375,0.023437 -0.16406251,0.058594 -0.0703125,0.046875 -0.140625,0.082031 -0.234375,0.09375 -0.0820313,0.035156 -0.15234375,0.058594 -0.15234375,0.1054688 0,0.082031 0.0234375,0.035156 0.0234375,0.8085937 z M 2.8373672,-4.173125 c 0,0.1757812 0.1640625,0.3632812 0.328125,0.3632812 0.1992187,0 0.3632812,-0.1992187 0.3632812,-0.3398437 0,-0.1640625 -0.140625,-0.3632813 -0.3398437,-0.3632813 -0.1640625,0 -0.3515625,0.1640625 -0.3515625,0.3398438 z m 0.6328125,3.31640625 V -2.2395313 c 0,-0.3515625 0.023437,-0.796875 0.023437,-0.796875 0,-0.023437 -0.035156,-0.046875 -0.09375,-0.046875 -0.1875,0.082031 -0.46875,0.140625 -0.9492188,0.1992188 -0.011719,0.046875 0,0.1523437 0.011719,0.1992187 0.3867187,0.035156 0.4570312,0.070312 0.4570312,0.46875 v 1.35937505 c 0,0.5859375 -0.082031,0.609375 -0.5039062,0.64453125 -0.046875,0.0351563 -0.046875,0.1875 0,0.22265625 0.2226562,0 0.5039062,-0.01171875 0.7734375,-0.01171875 0.28125,0 0.5507812,0.01171875 0.7851562,0.01171875 0.035156,-0.03515625 0.035156,-0.1875 0,-0.22265625 C 3.5404919,-0.2473438 3.4701794,-0.2707812 3.4701797,-0.85671875 Z M 5.2777969,-2.4973438 c 0,-0.2109375 -0.023437,-0.4570312 -0.058594,-0.5273437 -0.011719,-0.035156 -0.023437,-0.058594 -0.082031,-0.058594 -0.1875,0.082031 -0.375,0.140625 -0.8554688,0.1992188 -0.011719,0.046875 0,0.1523437 0.011719,0.1992187 0.375,0.035156 0.4570312,0.070312 0.4570312,0.46875 v 1.35937505 c 0,0.57421875 -0.09375,0.609375 -0.4804687,0.64453125 -0.035156,0.0351563 -0.035156,0.1875 0,0.22265625 0.2109375,0 0.4804687,-0.01171875 0.7617187,-0.01171875 0.28125,0 0.4921875,0.01171875 0.703125,0.01171875 0.035156,-0.03515625 0.035156,-0.1875 0,-0.22265625 C 5.3715469,-0.24734375 5.3012344,-0.2825 5.3012344,-0.85671875 V -1.9934375 c 0,-0.1523438 0.058594,-0.234375 0.1171875,-0.2929688 0.28125,-0.2695312 0.5390625,-0.4101562 0.75,-0.4101562 0.2695312,0 0.46875,0.1640625 0.46875,0.6328125 v 1.20703125 c 0,0.57421875 -0.058594,0.609375 -0.4335938,0.64453125 -0.035156,0.0351563 -0.035156,0.1875 0,0.22265625 0.1757813,0 0.4335938,-0.01171875 0.703125,-0.01171875 0.28125,0 0.515625,0.01171875 0.6914063,0.01171875 0.035156,-0.03515625 0.035156,-0.1875 0,-0.22265625 C 7.2465469,-0.24734375 7.1879531,-0.2825 7.1879531,-0.85671875 V -1.9582813 c 0,-0.1054687 0,-0.1992187 -0.011719,-0.28125 0.3398437,-0.375 0.6445312,-0.4570312 0.9257812,-0.4570312 0.2578125,0 0.4101563,0.1523437 0.4101563,0.6210937 v 1.21875005 c 0,0.57421875 -0.070312,0.609375 -0.4335938,0.64453125 -0.035156,0.0351563 -0.035156,0.1875 0,0.22265625 0.1757813,0 0.4335938,-0.01171875 0.7148438,-0.01171875 0.28125,0 0.5273437,0.01171875 0.7148437,0.01171875 0.035156,-0.03515625 0.035156,-0.1875 0,-0.22265625 C 9.1332653,-0.2473438 9.0629528,-0.2825 9.0629528,-0.85671875 V -1.9582813 c 0,-0.6210937 -0.1054687,-1.1015625 -0.7148437,-1.1015625 -0.3515625,0 -0.7851563,0.1289063 -1.1484375,0.515625 -0.023437,0.023437 -0.070312,0.058594 -0.082031,-0.011719 -0.058594,-0.28125 -0.328125,-0.5039063 -0.6914062,-0.5039063 -0.4101563,0 -0.7734375,0.234375 -1.0664063,0.5625 -0.035156,0.035156 -0.070312,0.082031 -0.082031,3e-7 z M 10.469203,-1.97 c 0.128906,-0.7851563 0.621094,-0.84375 0.785156,-0.84375 0.269532,0 0.574219,0.140625 0.574219,0.7265625 0,0.058594 -0.02344,0.09375 -0.105469,0.09375 z m 1.828125,1.32421875 c -0.257812,0.2578125 -0.46875,0.375 -0.867187,0.375 -0.257813,0 -0.550782,-0.15234375 -0.761719,-0.50390625 -0.140625,-0.234375 -0.222656,-0.5507813 -0.222656,-0.9609375 l 1.851562,0.023437 c 0.08203,0 0.140625,-0.046875 0.140625,-0.1171875 0,-0.5859375 -0.210937,-1.21875 -1.183594,-1.21875 -0.609375,0 -1.3945309,0.5742187 -1.3945309,1.640625 0,0.3867187 0.09375,0.76171875 0.3281249,1.03125 0.234375,0.28125 0.5625,0.4453125 1.066406,0.4453125 0.527344,0 0.902344,-0.24609375 1.183594,-0.609375 -0.02344,-0.0703125 -0.05859,-0.10546875 -0.140625,-0.10546825 z m 2.915039,1.99218745 h 1.476563 c 0.04687,-0.046875 0.04687,-0.1640625 0,-0.2109375 -0.960938,-0.082031 -1.007813,-0.1757812 -1.007813,-0.7851562 v -4.265625 c 0,-0.609375 0.05859,-0.703125 1.007813,-0.7734375 0.04687,-0.046875 0.04687,-0.1757813 0,-0.2109375 h -1.476563 z m 1.989258,-2.3085937 c 0.02344,0.33984375 0.04687,0.66796875 0.04687,0.9609375 0.07031,-0.01171875 0.140625,-0.0234375 0.175781,-0.0234375 0.04687,0 0.08203,0 0.140625,0.01171875 0.1875,0.05859375 0.375,0.08203125 0.632813,0.08203125 0.386718,0 1.101562,-0.1875 1.101562,-0.87890625 0,-0.46875005 -0.339844,-0.75000005 -0.808594,-0.92578125 -0.421875,-0.1640625 -0.703125,-0.2695313 -0.703125,-0.6445313 0,-0.2929687 0.257813,-0.4570312 0.492188,-0.4570312 0.152344,0 0.550781,0.058594 0.644531,0.65625 0.04687,0.035156 0.1875,0.035156 0.222656,-0.011719 0.02344,-0.2460937 0.03516,-0.5039062 0.04687,-0.7382812 -0.222656,-0.035156 -0.550781,-0.1289063 -0.914062,-0.1289063 -0.515625,0 -0.984375,0.328125 -0.984375,0.7734375 0,0.515625 0.234375,0.7265625 0.761719,0.9492188 0.585937,0.2460937 0.714843,0.38671875 0.714843,0.69140625 0,0.33984375 -0.339843,0.48046875 -0.597656,0.48046875 -0.269531,0 -0.421875,-0.0820313 -0.492187,-0.1640625 -0.152344,-0.1640625 -0.222657,-0.46875 -0.269532,-0.64453125 -0.04687,-0.0351563 -0.175781,-0.0351563 -0.210937,0.0117188 z m 4.116211,-3.9492188 h -1.488281 c -0.03516,0.046875 -0.03516,0.1640625 0,0.2109375 0.972656,0.082031 1.019531,0.1757813 1.019531,0.7851563 v 4.265625 c 0,0.609375 -0.05859,0.703125 -1.019531,0.7734375 -0.03516,0.046875 -0.03516,0.1757812 0,0.2109375 h 1.488281 z m 0,0"
       style="fill:#000000;fill-opacity:1;fill-rule:nonzero;stroke:none"
       aria-label="time[s]"
       transform="matrix(1.3333333,0,0,1.3333333,270.752,122.12667)" />
    <path
       id="path36"
       d="M 122.38916,39.15717 H 52.09914 c -0.82535,0 -1.49442,-0.66907 -1.49442,-1.49442 v -7.46951 c 0,-0.82535 0.66907,-1.49442 1.49442,-1.49442 h 70.29002 c 0.82535,0 1.49442,0.66907 1.49442,1.49442 v 7.46951 c 0,0.82535 -0.66907,1.49442 -1.49442,1.49442 z"
       style="fill:#ffffff;fill-opacity:1;fill-rule:nonzero;stroke:none"
       transform="matrix(1.3333333,0,0,-1.3333333,327.92,166.384)" />
    <path
       id="path37"
       d="m 0,-1.42958 v 4.3329 c 0,0.27512 0.22302,0.49814 0.49814,0.49814 h 1.27159 c 0.27512,0 0.49814,-0.22302 0.49814,-0.49814 v -4.3329 c 0,-0.27512 -0.22302,-0.49814 -0.49814,-0.49814 H 0.49814 C 0.22302,-1.92772 0,-1.7047 0,-1.42958 Z"
       style="fill:#d62728;fill-opacity:1;fill-rule:nonzero;stroke:#d62728;stroke-width:0.74721;stroke-linecap:round;stroke-linejoin:miter;stroke-miterlimit:10;stroke-dasharray:none;stroke-opacity:1"
       transform="matrix(1.3333333,0,0,-1.3333333,397.21867,121.148)" />
    <path
       id="path38"
       d="m 0.24692187,-3.1065859 v 2.0390625 c 0,0.21093746 0.0234375,0.38671871 0.0703125,0.51562496 0.046875,0.12890625 0.1171875,0.24609375 0.2109375,0.328125 0.0820313,0.09375 0.1875,0.1640625 0.31640625,0.2109375 0.1171875,0.046875 0.25781248,0.0703125 0.41015628,0.0703125 0.1523437,0 0.28125,-0.0234375 0.4101562,-0.0703125 0.1289063,-0.046875 0.234375,-0.1171875 0.328125,-0.2109375 0.09375,-0.09375 0.1640625,-0.2109375 0.1992188,-0.3515625 0.046875,-0.140625 0.070312,-0.3046875 0.070312,-0.51562496 v -2.015625 H 1.9227031 v 2.0273437 c 0,0.17578126 -0.011719,0.31640626 -0.046875,0.41015626 -0.035156,0.09375 -0.082031,0.17578125 -0.140625,0.234375 -0.070312,0.0703125 -0.140625,0.1171875 -0.2226562,0.140625 -0.082031,0.0234375 -0.1640625,0.046875 -0.2578125,0.0585938 -0.09375,-0.0117188 -0.1757813,-0.0351563 -0.25781253,-0.0585938 -0.0820313,-0.0351563 -0.15234375,-0.0703125 -0.2109375,-0.140625 -0.0585938,-0.0585938 -0.10546875,-0.12890625 -0.140625,-0.234375 -0.0351563,-0.09375 -0.046875,-0.22265625 -0.046875,-0.39843746 v -1.875 c 0,-0.035156 0.0117188,-0.070312 0.0351563,-0.09375 0,-0.023437 0.0117188,-0.046875 0.0117188,-0.058594 0,0 0,-0.011719 0,-0.011719 z m 4.41210933,0.375 c -0.1054687,-0.1289063 -0.234375,-0.2226563 -0.3867187,-0.2929688 -0.1523438,-0.070312 -0.3046875,-0.09375 -0.4804688,-0.09375 -0.1289062,0 -0.2578125,0.011719 -0.375,0.058594 -0.1054687,0.035156 -0.2109375,0.1054687 -0.2929687,0.1640625 -0.082031,0.082031 -0.1523438,0.1757812 -0.1992188,0.2695312 -0.046875,0.1054688 -0.070312,0.1992188 -0.070312,0.3164063 0,0.09375 0.011719,0.1757812 0.035156,0.2460937 0.035156,0.082031 0.082031,0.1523438 0.140625,0.2226563 0.070312,0.058594 0.1640625,0.1289062 0.2695312,0.1992187 0.1054688,0.058594 0.234375,0.1171875 0.3984375,0.1875 0.1523438,0.058594 0.2695313,0.1054688 0.3632813,0.1523438 0.09375,0.046875 0.1640625,0.09375 0.2109375,0.140625 0.046875,0.046875 0.082031,0.09375 0.1171875,0.140625 0.011719,0.0585937 0.023437,0.10546871 0.023437,0.17578121 0,0.0820313 -0.011719,0.15234375 -0.046875,0.22265625 -0.035156,0.0703125 -0.082031,0.12890625 -0.140625,0.1875 -0.046875,0.046875 -0.1171875,0.09375 -0.1992188,0.12890625 -0.070313,0.0234375 -0.1640625,0.0351563 -0.2578125,0.0351563 -0.1757812,0 -0.3398437,-0.0351563 -0.46875,-0.09375 -0.1289062,-0.0703125 -0.234375,-0.140625 -0.3046875,-0.234375 -0.011719,-0.0234375 -0.011719,-0.0351563 -0.011719,-0.0585938 0,-0.0234375 -0.011719,-0.046875 -0.023437,-0.046875 l -0.2109375,0.3515625 c 0.2460937,0.26953125 0.5742187,0.3984375 0.9726562,0.3984375 0.1875,0 0.3398438,-0.0234375 0.46875,-0.08203125 0.1289063,-0.046875 0.234375,-0.1171875 0.328125,-0.19921875 0.070312,-0.0820313 0.140625,-0.1875 0.1757813,-0.29296875 0.046875,-0.10546875 0.058594,-0.2109375 0.058594,-0.31640625 0,-0.09375 -0.011719,-0.18750001 -0.035156,-0.25781251 -0.023437,-0.082031 -0.070312,-0.1640625 -0.1289063,-0.2226562 -0.058594,-0.070312 -0.140625,-0.140625 -0.234375,-0.1992188 -0.1054687,-0.070312 -0.2226562,-0.1289062 -0.375,-0.1875 C 3.8152812,-1.7823672 3.686375,-1.8292422 3.592625,-1.8878359 3.4871562,-1.9347109 3.4168437,-1.9933047 3.35825,-2.0401797 3.311375,-2.0870547 3.2645,-2.1339297 3.2527812,-2.1925234 c -0.035156,-0.058594 -0.046875,-0.1171875 -0.046875,-0.1875 0,-0.1289063 0.046875,-0.234375 0.1523438,-0.3164063 0.1054687,-0.09375 0.234375,-0.140625 0.3867187,-0.140625 0.1523438,0 0.2929688,0.035156 0.3984375,0.082031 0.1054688,0.058594 0.1875,0.1289062 0.2578125,0.234375 0,0 0.011719,0.023437 0.011719,0.035156 0,0.023437 0.011719,0.046875 0.023437,0.046875 z m 0.7558594,-0.375 v 0.2929687 h 0.5859375 v 2.51953126 H 5.3797344 v 0.29296875 h 1.6054687 v -0.28125 H 6.3406719 V -2.8136172 H 6.9617656 V -3.1065859 Z M 7.717625,-0.00111719 H 8.0574687 V -2.4386172 l 1.3710938,2.43750001 H 9.6980937 V -2.9776797 c 0,-0.023437 0,-0.046875 0.011719,-0.070312 0.023437,-0.023437 0.023437,-0.046875 0.023437,-0.058594 h -0.363281 v 2.30859371 l -1.3125,-2.30859371 H 7.717625 Z m 4.529297,-2.61328121 c -0.09375,-0.1523438 -0.210938,-0.28125 -0.375,-0.375 -0.164063,-0.1054688 -0.339844,-0.140625 -0.527344,-0.140625 -0.117187,0 -0.234375,0.011719 -0.363281,0.058594 -0.140625,0.046875 -0.269531,0.1171875 -0.398438,0.2460938 -0.128906,0.1054687 -0.234375,0.2695312 -0.316406,0.4921875 -0.08203,0.2226562 -0.128906,0.4921875 -0.128906,0.8203125 0,0.234375 0.03516,0.4453125 0.08203,0.64453121 0.05859,0.1875 0.140625,0.3515625 0.246094,0.4921875 0.105469,0.12890625 0.222656,0.234375 0.375,0.31640625 0.152344,0.0703125 0.316406,0.10546875 0.503906,0.10546875 0.316406,0 0.609375,-0.10546875 0.914063,-0.31640625 V -1.4893984 h -0.890625 v 0.3046875 h 0.5625 v 0.73828121 c -0.175782,0.1171875 -0.375,0.1875 -0.585938,0.1875 -0.128906,0 -0.234375,-0.0351563 -0.351562,-0.09375 -0.09375,-0.046875 -0.1875,-0.140625 -0.269532,-0.24609375 -0.07031,-0.1171875 -0.128906,-0.2578125 -0.175781,-0.42187496 -0.04687,-0.1640625 -0.05859,-0.3515625 -0.05859,-0.5742188 0,-0.234375 0.02344,-0.4335937 0.07031,-0.5859375 0.05859,-0.1640625 0.117187,-0.2929687 0.199219,-0.3867187 0.09375,-0.09375 0.175781,-0.1640625 0.28125,-0.1992188 0.105468,-0.046875 0.199218,-0.058594 0.292968,-0.058594 0.140625,0 0.257813,0.035156 0.375,0.09375 0.09375,0.070312 0.175782,0.1640625 0.222657,0.2695312 0.02344,0.046875 0.04687,0.082031 0.07031,0.09375 z m 2.90918,-0.4921875 v 3.10546871 h 0.375 V -1.2901797 l 0.246093,-0.2695312 1.066407,1.58203121 0.445312,-0.0234375 -1.253906,-1.75781251 1.171875,-1.3476562 h -0.128906 c -0.09375,0 -0.175782,-0.011719 -0.257813,-0.023437 l -1.289062,1.453125 v -1.3007813 c 0,-0.023437 0,-0.046875 0.02344,-0.070312 0.01172,-0.023437 0.02344,-0.046875 0.02344,-0.058594 z m 2.572265,0 v 3.10546871 h 1.886719 v -0.3046875 H 18.056492 V -1.4659609 h 1.300781 v -0.3164063 h -1.300781 v -1.0195312 h 1.570313 v -0.3046875 z m 2.337891,0 0.960937,1.875 v 1.23046871 h 0.375 V -1.2315859 l 0.878907,-1.875 H 21.91782 l -0.691406,1.5117187 -0.761719,-1.5117187 z m 0,0"
       style="fill:#000000;fill-opacity:1;fill-rule:nonzero;stroke:none"
       aria-label="USINGKEY"
       transform="matrix(1.3333333,0,0,1.3333333,403.39733,122.34133)" />
    <path
       id="path39"
       d="m 0,-1.42958 v 4.3329 c 0,0.27512 0.22302,0.49814 0.49814,0.49814 h 1.27159 c 0.27512,0 0.49814,-0.22302 0.49814,-0.49814 v -4.3329 c 0,-0.27512 -0.22302,-0.49814 -0.49814,-0.49814 H 0.49814 C 0.22302,-1.92772 0,-1.7047 0,-1.42958 Z"
       style="fill:#1f77b4;fill-opacity:1;fill-rule:nonzero;stroke:#1f77b4;stroke-width:0.74721;stroke-linecap:round;stroke-linejoin:miter;stroke-miterlimit:10;stroke-dasharray:none;stroke-opacity:1"
       transform="matrix(1.3333333,0,0,-1.3333333,436.44,121.148)" />
    <path
       id="path40"
       d="m 0.08092188,-3.1065859 0.50390625,3.12890621 h 0.140625 L 1.2645156,-2.0284609 1.8035781,0.02232031 H 1.9324844 L 2.4246719,-3.1065859 H 2.1317031 L 1.8504531,-0.99721094 1.3465469,-2.8722109 H 1.2410781 l -0.50390622,1.8632812 -0.328125,-2.0976562 z m 2.84472652,0 v 0.2929687 h 0.5859375 v 2.51953126 H 2.8904922 v 0.29296875 h 1.6054687 v -0.28125 H 3.8514297 V -2.8136172 h 0.6210937 v -0.2929687 z m 2.2089844,0 v 0.3164062 h 0.8789063 v 2.78906251 H 6.3768203 V -2.7901797 h 0.9140625 v -0.3164062 z m 2.6074219,0 v 3.10546871 H 8.1053359 V -1.4776797 h 1.2070313 v 1.47656251 H 9.6639297 V -2.9893984 c 0.011719,-0.023437 0.011719,-0.035156 0.023437,-0.058594 0.011719,-0.011719 0.011719,-0.023437 0.011719,-0.046875 0,0 0,0 0,-0.011719 h -0.375 v 1.3359375 h -1.21875 v -1.21875 c 0,-0.023437 0.011719,-0.046875 0.011719,-0.058594 0.011719,-0.011719 0.023437,-0.035156 0.023437,-0.046875 0,0 0,0 -0.011719,-0.011719 z m 4.9921873,0 v 3.10546871 h 0.351563 V -1.3722109 h 0.597656 l 0.691406,1.37109371 h 0.386719 L 14.046742,-1.3839297 c 0.09375,-0.023437 0.1875,-0.070312 0.257813,-0.1171875 0.08203,-0.058594 0.152343,-0.1289062 0.199218,-0.1992187 0.05859,-0.082031 0.105469,-0.1640625 0.128907,-0.2578125 0.03516,-0.082031 0.04687,-0.1640625 0.04687,-0.2578125 0,-0.2695313 -0.08203,-0.4804688 -0.246094,-0.6445313 -0.152344,-0.1640625 -0.421875,-0.2460937 -0.785156,-0.2460937 z m 0.351563,0.328125 h 0.597656 c 0.117187,0 0.210937,0.023437 0.292969,0.046875 0.08203,0.035156 0.140625,0.070312 0.1875,0.1171875 0.04687,0.058594 0.09375,0.1171875 0.117187,0.1757812 0.02344,0.070312 0.03516,0.140625 0.03516,0.2226563 0,0.1640625 -0.04687,0.2929687 -0.140625,0.3867187 -0.105468,0.1054688 -0.257812,0.1523438 -0.492187,0.1523438 h -0.597656 z m 2.15039,-0.328125 v 3.10546871 h 1.886719 v -0.3046875 H 15.56432 V -1.4659609 h 1.300782 V -1.7823672 H 15.56432 v -1.0195312 h 1.570313 v -0.3046875 z m 4.177735,0.703125 c 0,0.023437 0.01172,0.046875 0.02344,0.046875 l 0.328125,-0.1640625 c -0.03516,-0.09375 -0.09375,-0.1757813 -0.152344,-0.2460938 -0.07031,-0.070312 -0.152343,-0.140625 -0.222656,-0.1875 -0.09375,-0.058594 -0.1875,-0.1054687 -0.28125,-0.1289062 -0.09375,-0.035156 -0.199219,-0.046875 -0.304687,-0.046875 -0.117188,0 -0.257813,0.023437 -0.386719,0.082031 -0.140625,0.046875 -0.257813,0.1289063 -0.386719,0.2578125 -0.117187,0.1289063 -0.210937,0.2929688 -0.28125,0.4921875 -0.08203,0.1992188 -0.117187,0.4570313 -0.117187,0.7617188 0,0.2695312 0.03516,0.515625 0.105468,0.71484371 0.05859,0.19921875 0.140625,0.36328125 0.257813,0.4921875 0.117187,0.12890625 0.246094,0.22265625 0.386719,0.29296875 0.128906,0.05859375 0.292968,0.08203125 0.46875,0.08203125 0.08203,0 0.164062,-0.01171875 0.234375,-0.0234375 0.08203,-0.0234375 0.164062,-0.05859375 0.246093,-0.10546875 0.07031,-0.046875 0.140625,-0.09375 0.210938,-0.15234375 0.07031,-0.0703125 0.128906,-0.140625 0.1875,-0.22265625 l -0.269531,-0.17578125 c -0.07031,0.1171875 -0.152344,0.2109375 -0.269532,0.28125 -0.117187,0.0703125 -0.234375,0.10546875 -0.363281,0.10546875 -0.117187,0 -0.234375,-0.0351563 -0.328125,-0.09375 -0.105469,-0.0703125 -0.199219,-0.1640625 -0.28125,-0.26953125 -0.07031,-0.1171875 -0.128906,-0.2578125 -0.175781,-0.42187501 -0.04687,-0.1523437 -0.07031,-0.328125 -0.07031,-0.5273437 0,-0.1992188 0.02344,-0.3867188 0.07031,-0.5390625 0.04687,-0.1640625 0.105469,-0.2929688 0.175781,-0.4101563 0.08203,-0.1171875 0.164063,-0.1992187 0.269531,-0.2460937 0.09375,-0.070312 0.199219,-0.09375 0.316407,-0.09375 0.117187,0 0.234375,0.023437 0.339843,0.09375 0.105469,0.058594 0.1875,0.1523437 0.257813,0.2578125 0.01172,0.023437 0.01172,0.058594 0.01172,0.09375 z m 0.758789,-0.703125 v 2.0390625 c 0,0.21093746 0.02344,0.38671871 0.07031,0.51562496 0.04687,0.12890625 0.117188,0.24609375 0.210938,0.328125 0.08203,0.09375 0.1875,0.1640625 0.316406,0.2109375 0.117188,0.046875 0.257813,0.0703125 0.410156,0.0703125 0.152344,0 0.28125,-0.0234375 0.410157,-0.0703125 0.128906,-0.046875 0.234375,-0.1171875 0.328125,-0.2109375 0.09375,-0.09375 0.164062,-0.2109375 0.199218,-0.3515625 0.04687,-0.140625 0.07031,-0.3046875 0.07031,-0.51562496 v -2.015625 H 21.8485 v 2.0273437 c 0,0.17578126 -0.01172,0.31640626 -0.04687,0.41015626 -0.03516,0.09375 -0.08203,0.17578125 -0.140625,0.234375 -0.07031,0.0703125 -0.140625,0.1171875 -0.222656,0.140625 -0.08203,0.0234375 -0.164063,0.046875 -0.257813,0.0585938 -0.09375,-0.0117188 -0.175781,-0.0351563 -0.257812,-0.0585938 -0.08203,-0.0351563 -0.152344,-0.0703125 -0.210938,-0.140625 -0.05859,-0.0585938 -0.105468,-0.12890625 -0.140625,-0.234375 -0.03516,-0.09375 -0.04687,-0.22265625 -0.04687,-0.39843746 v -1.875 c 0,-0.035156 0.01172,-0.070312 0.03516,-0.09375 0,-0.023437 0.01172,-0.046875 0.01172,-0.058594 0,0 0,-0.011719 0,-0.011719 z m 2.52539,0 v 3.10546871 h 0.351563 V -1.3722109 h 0.597656 l 0.691406,1.37109371 h 0.386719 L 24.010609,-1.3839297 c 0.09375,-0.023437 0.1875,-0.070312 0.257813,-0.1171875 0.08203,-0.058594 0.152344,-0.1289062 0.199219,-0.1992187 0.05859,-0.082031 0.105468,-0.1640625 0.128906,-0.2578125 0.03516,-0.082031 0.04687,-0.1640625 0.04687,-0.2578125 0,-0.2695313 -0.08203,-0.4804688 -0.246094,-0.6445313 -0.152344,-0.1640625 -0.421875,-0.2460937 -0.785156,-0.2460937 z m 0.351563,0.328125 h 0.597656 c 0.117188,0 0.210938,0.023437 0.292969,0.046875 0.08203,0.035156 0.140625,0.070312 0.1875,0.1171875 0.04687,0.058594 0.09375,0.1171875 0.117187,0.1757812 0.02344,0.070312 0.03516,0.140625 0.03516,0.2226563 0,0.1640625 -0.04687,0.2929687 -0.140625,0.3867187 -0.105469,0.1054688 -0.257813,0.1523438 -0.492188,0.1523438 h -0.597656 z m 4.025391,0.046875 c -0.105469,-0.1289063 -0.234375,-0.2226563 -0.386719,-0.2929688 -0.152344,-0.070312 -0.304688,-0.09375 -0.480469,-0.09375 -0.128906,0 -0.257812,0.011719 -0.375,0.058594 -0.105469,0.035156 -0.210937,0.1054687 -0.292969,0.1640625 -0.08203,0.082031 -0.152343,0.1757812 -0.199218,0.2695312 -0.04687,0.1054688 -0.07031,0.1992188 -0.07031,0.3164063 0,0.09375 0.01172,0.1757812 0.03516,0.2460937 0.03516,0.082031 0.08203,0.1523438 0.140625,0.2226563 0.07031,0.058594 0.164063,0.1289062 0.269532,0.1992187 0.105468,0.058594 0.234375,0.1171875 0.398437,0.1875 0.152344,0.058594 0.269531,0.1054688 0.363281,0.1523438 0.09375,0.046875 0.164063,0.09375 0.210938,0.140625 0.04687,0.046875 0.08203,0.09375 0.117187,0.140625 0.01172,0.0585937 0.02344,0.10546871 0.02344,0.17578121 0,0.0820313 -0.01172,0.15234375 -0.04687,0.22265625 -0.03516,0.0703125 -0.08203,0.12890625 -0.140625,0.1875 -0.04687,0.046875 -0.117188,0.09375 -0.199219,0.12890625 -0.07031,0.0234375 -0.164062,0.0351563 -0.257812,0.0351563 -0.175782,0 -0.339844,-0.0351563 -0.46875,-0.09375 -0.128907,-0.0703125 -0.234375,-0.140625 -0.304688,-0.234375 -0.01172,-0.0234375 -0.01172,-0.0351563 -0.01172,-0.0585938 0,-0.0234375 -0.01172,-0.046875 -0.02344,-0.046875 l -0.210938,0.3515625 c 0.246094,0.26953125 0.574219,0.3984375 0.972657,0.3984375 0.1875,0 0.339843,-0.0234375 0.46875,-0.08203125 0.128906,-0.046875 0.234375,-0.1171875 0.328125,-0.19921875 0.07031,-0.0820313 0.140625,-0.1875 0.175781,-0.29296875 0.04687,-0.10546875 0.05859,-0.2109375 0.05859,-0.31640625 0,-0.09375 -0.01172,-0.18750001 -0.03516,-0.25781251 -0.02344,-0.082031 -0.07031,-0.1640625 -0.128906,-0.2226562 -0.05859,-0.070312 -0.140625,-0.140625 -0.234375,-0.1992188 -0.105469,-0.070312 -0.222656,-0.1289062 -0.375,-0.1875 -0.164062,-0.070312 -0.292969,-0.1171875 -0.386719,-0.1757812 -0.105468,-0.046875 -0.175781,-0.1054688 -0.234375,-0.1523438 -0.04687,-0.046875 -0.09375,-0.09375 -0.105468,-0.1523437 -0.03516,-0.058594 -0.04687,-0.1171875 -0.04687,-0.1875 0,-0.1289063 0.04687,-0.234375 0.152343,-0.3164063 0.105469,-0.09375 0.234375,-0.140625 0.386719,-0.140625 0.152344,0 0.292969,0.035156 0.398438,0.082031 0.105468,0.058594 0.1875,0.1289062 0.257812,0.234375 0,0 0.01172,0.023437 0.01172,0.035156 0,0.023437 0.01172,0.046875 0.02344,0.046875 z m 0.755859,-0.375 v 0.2929687 h 0.585937 v 2.51953126 h -0.621093 v 0.29296875 h 1.605468 v -0.28125 H 28.756703 V -2.8136172 h 0.621094 v -0.2929687 z m 2.185547,0 1.054687,3.12890621 H 31.2235 l 1.042969,-3.12890621 h -0.339844 l -0.75,2.37890621 -0.796875,-2.37890621 z m 2.654297,0 v 3.10546871 h 1.886718 v -0.3046875 H 32.998891 V -1.4659609 h 1.300781 v -0.3164063 h -1.300781 v -1.0195312 h 1.570312 v -0.3046875 z m 0,0"
       style="fill:#000000;fill-opacity:1;fill-rule:nonzero;stroke:none"
       aria-label="WITHRECURSIVE"
       transform="matrix(1.3333333,0,0,1.3333333,442.61867,122.34133)" />
    <path
       id="path41"
       d="M 1.7239844,-0.72682812 V -2.8010469 c 0,-0.3632812 0,-0.7265625 0.011719,-0.8085937 0,-0.023437 -0.011719,-0.023437 -0.035156,-0.023437 -0.328125,0.1992187 -0.6445313,0.3515625 -1.17187503,0.5976562 0.0117188,0.070312 0.0351563,0.1289063 0.09375,0.1640625 0.26953125,-0.1171875 0.41015623,-0.1523437 0.51562503,-0.1523437 0.1054687,0 0.1289062,0.140625 0.1289062,0.3515625 v 1.94531248 c 0,0.4921875 -0.1640625,0.52734375 -0.58593748,0.5390625 -0.0351563,0.0351563 -0.0351563,0.1640625 0,0.19921875 0.29296875,0 0.50390628,-0.011718755 0.83203128,-0.011718755 0.2929687,0 0.4335937,0.011718755 0.7265625,0.011718755 0.035156,-0.03515625 0.035156,-0.1640625 0,-0.19921875 -0.4101563,-0.0117188 -0.515625,-0.046875 -0.5156255,-0.539063 z m 0,0"
       style="fill:#000000;fill-opacity:1;fill-rule:nonzero;stroke:none"
       aria-label="1"
       transform="matrix(1.3333333,0,0,1.3333333,406.14667,959.07067)" />
  </g>
</svg>
