<svg xmlns="http://www.w3.org/2000/svg" width="1920" height="1080" fill="none" viewBox="0 0 1920 1080"><g clip-path="url(#clip0_3979_3)"><rect width="1920" height="1080" fill="#FFF100"/><g clip-path="url(#clip1_3979_3)"><rect width="960" height="1080" fill="#000"/><path fill="url(#paint0_linear_3979_3)" d="M960.5 288.5L811 288.5C790.289 288.5 773.5 271.711 773.5 251L773.5 -71.5C773.5 -92.2107 790.289 -109 811 -109L923 -109C943.711 -109 960.5 -92.2107 960.5 -71.5L960.5 288.5Z"/></g><path fill="url(#paint1_linear_3979_3)" d="M651.792 909H960V1139H-14C-36.0914 1139 -54 1121.09 -54 1099V513C-54 490.909 -36.0914 473 -14 473H263.107C284.96 473 302.768 490.538 303.102 512.389L306.398 728.111C306.732 749.962 324.54 767.5 346.393 767.5H573.708C596.297 767.5 614.406 786.193 613.688 808.771L611.812 867.729C611.094 890.307 629.203 909 651.792 909Z"/><path fill="#000" fill-opacity=".1" d="M1699.5 213.443L1699.5 -128.001L960 -127.999L960 909L1154.9 908.999C1175.61 908.999 1192.4 892.209 1192.4 871.499L1192.4 479.622C1192.4 458.724 1209.48 441.858 1230.38 442.125L1326.49 443.355C1347.39 443.623 1364.47 426.757 1364.47 405.859L1364.47 290.154C1364.47 269.54 1381.11 252.79 1401.72 252.655L1662.25 250.943C1682.86 250.807 1699.5 234.058 1699.5 213.443Z"/><path fill="#000" fill-opacity=".1" d="M1762.67 508.75L1920.25 508.75L1920.25 1115L1474 1115L1474 935.323C1474 914.613 1490.79 897.823 1511.5 897.823L1687.67 897.823C1708.38 897.823 1725.17 881.034 1725.17 860.323L1725.17 546.25C1725.17 525.539 1741.96 508.75 1762.67 508.75Z"/><path fill="#FFF100" d="M1248.5 251C1248.5 271.711 1231.71 288.5 1211 288.5L960 288.5L960 -71.5C960 -92.2107 976.789 -109 997.5 -109L1211 -109C1231.71 -109 1248.5 -92.2107 1248.5 -71.5L1248.5 251Z"/><path fill="#FFF100" d="M100.569 85.9033C100.569 61.3359 85.9649 57.5998 71.0206 57.5998H63.5485V114.32H71.0206C85.9649 114.32 100.569 110.697 100.569 85.9033ZM47.3589 44.9199H71.6999C97.7391 44.9199 117.325 53.2977 117.325 85.9033C117.325 118.509 97.7391 127 71.6999 127H47.3589V44.9199ZM164.539 127V118.962C161.029 125.189 154.35 128.472 146.764 128.472C132.16 128.472 126.273 119.528 126.273 104.584V66.0909H141.896V101.187C141.896 109.339 143.141 115.905 151.859 115.905C162.275 115.905 164.539 107.414 164.539 97.7908V66.0909H180.162V127H164.539ZM220.781 64.7323C233.574 64.7323 246.254 71.8648 248.405 86.9222H233.461C232.215 81.0351 226.781 76.8462 220.781 76.8462C212.629 76.8462 206.176 83.7523 206.176 96.4322C206.176 109.225 212.29 116.358 220.894 116.358C226.328 116.358 231.876 113.528 234.027 106.282H248.971C245.348 122.924 232.781 128.472 220.101 128.472C201.874 128.472 190.213 115.113 190.213 96.6587C190.213 78.0916 202.553 64.7323 220.781 64.7323ZM258.3 44.9199H273.924V90.5451L296.114 66.0909H313.662L291.812 89.413L314.907 127H297.359L281.396 100.621L273.924 108.659V127H258.3V44.9199ZM377.14 100.055H392.537C390.386 116.698 376.574 128.472 356.988 128.472C332.533 128.472 318.608 111.829 318.608 85.5637C318.608 59.6377 333.552 43.4481 357.441 43.4481C376.687 43.4481 389.82 54.4298 392.537 71.5251H377.14C374.083 60.0905 366.384 56.3545 357.327 56.3545C344.987 56.3545 335.364 66.5437 335.364 85.5637C335.364 105.15 344.987 115.565 356.761 115.565C366.498 115.565 374.423 111.263 377.14 100.055ZM430.622 76.9594C422.018 76.9594 415.904 83.8655 415.904 96.6587C415.904 109.452 422.018 116.245 430.622 116.245C439.226 116.245 445.34 109.452 445.34 96.6587C445.34 83.8655 439.226 76.9594 430.622 76.9594ZM430.622 128.472C415.225 128.472 400.054 117.943 400.054 96.6587C400.054 75.2612 415.225 64.7323 430.622 64.7323C446.019 64.7323 461.19 75.2612 461.19 96.6587C461.19 117.943 446.019 128.472 430.622 128.472ZM486.753 66.0909V74.1291C490.263 67.9023 496.829 64.7323 504.414 64.7323C519.019 64.7323 525.472 73.563 525.472 88.6205V127H509.849V92.0169C509.849 84.2051 508.15 77.2991 499.32 77.2991C489.017 77.2991 486.753 85.6769 486.753 95.3001V127H471.129V66.0909H486.753ZM563.545 63.9398H579.395L581.999 44.9199H596.037L593.433 63.9398H608.491L611.095 44.9199H625.133L622.529 63.9398H638.153L636.681 76.0537H620.831L618.454 93.149H633.964L632.719 105.15H616.755L613.812 127H599.773L602.717 105.15H587.659L584.716 127H570.677L573.621 105.15H558.111L559.582 93.149H575.319L577.697 76.0537H562.299L563.545 63.9398ZM591.735 76.0537L589.358 93.149H604.415L606.793 76.0537H591.735ZM660.185 100.395C660.185 110.244 666.639 116.698 675.243 116.698C683.734 116.698 689.961 110.358 689.961 100.395C689.961 90.7715 683.734 84.4315 675.243 84.4315C666.639 84.4315 660.185 90.7715 660.185 100.395ZM675.922 55.3355C665.506 55.3355 659.28 64.9587 659.28 80.3558C662.789 75.9405 669.356 72.5441 677.96 72.5441C693.131 72.5441 705.811 82.8465 705.811 100.621C705.811 117.49 693.017 128.472 675.243 128.472C653.279 128.472 643.656 110.81 643.656 87.828C643.656 64.2794 652.374 43.4481 676.941 43.4481C694.829 43.4481 703.207 55.562 704.112 66.0909H688.829C688.036 59.298 682.715 55.3355 675.922 55.3355ZM40 235L70.5678 152.92H86.8706L117.552 235H100.003L94.2295 218.358H62.3032L56.5292 235H40ZM78.2663 172.732L66.9449 205.112H89.5877L78.2663 172.732ZM199.47 235V199.564C199.47 192.884 198.904 185.299 189.733 185.299C179.318 185.299 177.62 194.017 177.62 203.3V235H161.996V199.564C161.996 192.884 161.43 185.299 152.26 185.299C141.844 185.299 140.146 194.017 140.146 203.3V235H124.522V174.091H140.146V182.129C143.655 176.129 149.769 172.732 157.128 172.732C167.43 172.732 172.072 178.28 174.45 182.695C179.318 175.902 185.318 172.732 194.488 172.732C209.772 172.732 215.093 182.242 215.093 196.62V235H199.47ZM277.136 192.432H262.532C261.286 187.337 256.758 183.714 249.512 183.714C243.738 183.714 239.663 185.865 239.663 189.601C239.663 192.884 242.04 195.375 247.814 196.62L255.965 198.432C268.079 201.149 278.382 204.206 278.382 216.773C278.382 229 265.815 236.472 252.003 236.472C237.059 236.472 225.737 228.773 224.265 214.848H239.323C240.229 220.735 244.304 225.15 252.456 225.15C259.249 225.15 263.438 222.66 263.438 218.244C263.438 213.716 258.796 212.018 253.475 210.772L244.418 208.848C232.983 206.47 225.398 201.715 225.398 190.62C225.398 179.752 237.172 172.506 250.305 172.506C262.985 172.506 274.985 178.393 277.136 192.432ZM291.077 174.091V157.562H306.7V174.091H319.38V184.846H306.7V216.32C306.7 222.546 308.851 223.792 314.399 223.792H319.154V235H307.719C293.681 235 291.077 230.698 291.077 218.584V184.846H282.473V174.091H291.077ZM385.885 208.848H340.939C341.844 219.263 348.864 224.358 356.336 224.358C361.204 224.358 365.959 222.66 369.129 217.339H385.205C381.922 226.396 373.091 236.472 356.449 236.472C336.863 236.472 325.428 221.867 325.428 204.319C325.428 186.205 337.995 172.732 355.996 172.732C374.79 172.732 386.451 187.337 385.885 208.848ZM355.883 184.167C349.996 184.167 342.41 187.79 341.165 198.092H370.035C369.695 187.79 362.449 184.167 355.883 184.167ZM430.818 174.431V189.148C428.554 188.809 426.629 188.809 424.365 188.809C416.666 188.809 411.572 191.639 411.572 203.074V235H395.948V174.091H411.345V184.733C414.855 177.148 420.289 174.204 427.422 174.204C428.441 174.204 429.799 174.317 430.818 174.431ZM494.547 235H478.924V227.301C474.961 234.094 467.715 236.472 461.375 236.472C446.884 236.472 434.883 224.018 434.883 204.545C434.883 185.412 446.658 172.732 461.375 172.732C469.074 172.732 475.64 176.129 478.924 181.903V152.92H494.547V235ZM465.225 224.471C473.829 224.471 479.49 217.112 479.49 204.545C479.49 192.318 473.829 184.733 465.225 184.733C457.073 184.733 451.299 192.771 451.299 204.659C451.299 216.546 457.073 224.471 465.225 224.471ZM546.649 211.678V207.149C529.101 208.961 522.195 210.999 522.195 217.791C522.195 222.207 525.592 225.83 532.724 225.83C542.574 225.83 546.649 220.622 546.649 211.678ZM548.008 227.415C543.593 233.755 537.253 236.472 528.082 236.472C516.421 236.472 506.119 229.679 506.119 218.584C506.119 204.206 522.195 199.904 546.197 197.187V196.168C546.197 186.771 541.102 183.488 534.762 183.488C528.762 183.488 523.78 186.544 523.441 193.337H508.836C510.081 181.337 519.818 172.506 535.554 172.506C549.933 172.506 561.82 178.846 561.82 199.338C561.82 201.149 561.594 209.414 561.594 214.848C561.594 224.471 562.16 229.905 563.405 235H549.027C548.574 233.075 548.348 230.471 548.008 227.415ZM649.783 235V199.564C649.783 192.884 649.217 185.299 640.047 185.299C629.631 185.299 627.933 194.017 627.933 203.3V235H612.309V199.564C612.309 192.884 611.743 185.299 602.573 185.299C592.157 185.299 590.459 194.017 590.459 203.3V235H574.835V174.091H590.459V182.129C593.968 176.129 600.082 172.732 607.441 172.732C617.743 172.732 622.385 178.28 624.763 182.695C629.631 175.902 635.631 172.732 644.801 172.732C660.085 172.732 665.406 182.242 665.406 196.62V235H649.783ZM71.4974 271.844C85.9428 271.844 95.2834 279.447 95.2834 292.155C95.2834 308.121 81.5983 323.652 52.599 345.483H97.6729V352H43.2584V345.266C72.2577 323.218 88.115 307.578 88.115 292.915C88.115 282.814 80.4036 277.818 71.4974 277.818C61.6137 277.818 52.599 282.488 52.2731 297.585H45.1048C45.865 280.751 55.8573 271.844 71.4974 271.844ZM138.004 353.412C117.151 353.412 107.702 337.663 107.702 312.574C107.702 287.702 117.151 271.844 138.004 271.844C158.641 271.844 168.198 287.702 168.198 312.574C168.198 337.663 158.641 353.412 138.004 353.412ZM138.004 347.438C152.124 347.438 161.139 336.36 161.139 312.574C161.139 289.005 152.124 277.818 138.004 277.818C123.776 277.818 114.87 289.005 114.87 312.574C114.87 336.36 123.776 347.438 138.004 347.438ZM205.565 271.844C220.01 271.844 229.351 279.447 229.351 292.155C229.351 308.121 215.666 323.652 186.667 345.483H231.741V352H177.326V345.266C206.325 323.218 222.183 307.578 222.183 292.915C222.183 282.814 214.471 277.818 205.565 277.818C195.681 277.818 186.667 282.488 186.341 297.585H179.172C179.933 280.751 189.925 271.844 205.565 271.844ZM268.162 347.438C279.132 347.438 288.472 339.944 288.472 326.259C288.472 311.488 277.937 305.406 267.945 305.406C259.039 305.406 251.653 310.184 249.372 315.506L242.747 314.855L247.852 273.256H292.382V279.773H253.717L250.241 306.709C254.042 302.364 261.863 299.323 269.574 299.323C284.128 299.323 295.641 308.773 295.641 326.15C295.641 344.071 282.499 353.412 268.162 353.412C252.522 353.412 241.987 343.202 240.575 329.843H247.743C250.024 342.008 258.821 347.438 268.162 347.438ZM336.429 326.042H306.017V318.439H336.429V326.042ZM377.29 353.412C356.436 353.412 346.987 337.663 346.987 312.574C346.987 287.702 356.436 271.844 377.29 271.844C397.926 271.844 407.484 287.702 407.484 312.574C407.484 337.663 397.926 353.412 377.29 353.412ZM377.29 347.438C391.409 347.438 400.424 336.36 400.424 312.574C400.424 289.005 391.409 277.818 377.29 277.818C363.062 277.818 354.155 289.005 354.155 312.574C354.155 336.36 363.062 347.438 377.29 347.438ZM438.117 352H431.383V288.245H413.353V283.683C427.147 283.683 430.622 282.271 433.555 272.605H438.117V352ZM483.755 326.042H453.343V318.439H483.755V326.042ZM517.882 347.438C529.829 347.438 538.518 341.247 538.518 330.278C538.518 318.222 529.395 313.334 514.623 313.334H513.972V307.361H514.623C529.395 307.361 536.454 301.93 536.454 292.372C536.454 284.226 530.046 277.818 518.425 277.818C510.17 277.818 500.721 282.271 498.983 294.436H491.815C493.553 280.968 503.219 271.844 518.968 271.844C534.065 271.844 543.623 279.447 543.623 291.72C543.623 299.541 539.495 307.035 530.698 310.076C539.061 312.357 545.686 318.005 545.686 330.169C545.686 345.809 532.653 353.412 517.99 353.412C502.242 353.412 491.706 343.202 490.294 329.843H497.463C499.744 342.008 508.541 347.438 517.882 347.438ZM575.154 352H568.42V288.245H550.391V283.683C564.184 283.683 567.66 282.271 570.592 272.605H575.154V352Z"/></g><defs><linearGradient id="paint0_linear_3979_3" x1="867" x2="867" y1="288.5" y2="-109" gradientUnits="userSpaceOnUse"><stop stop-color="#222"/><stop offset="1" stop-color="#161616"/></linearGradient><linearGradient id="paint1_linear_3979_3" x1="453" x2="453" y1="437.5" y2="1139" gradientUnits="userSpaceOnUse"><stop stop-color="#222"/><stop offset="1" stop-color="#161616"/></linearGradient><clipPath id="clip0_3979_3"><rect width="1920" height="1080" fill="#fff"/></clipPath><clipPath id="clip1_3979_3"><rect width="960" height="1080" fill="#fff"/></clipPath></defs></svg>