<svg width="560" height="293" viewBox="0 0 560 293" fill="none" xmlns="http://www.w3.org/2000/svg">
<g clip-path="url(#clip0_10607_33686)">
<rect width="560" height="292.6" fill="#FFF100"/>
<rect width="560" height="292.6" fill="url(#paint0_linear_10607_33686)"/>
<path d="M119.782 120.808C119.782 115.572 116.669 114.776 113.485 114.776H111.892V126.864H113.485C116.669 126.864 119.782 126.092 119.782 120.808ZM108.442 112.073H113.629C119.179 112.073 123.353 113.859 123.353 120.808C123.353 127.757 119.179 129.566 113.629 129.566H108.442V112.073ZM133.415 129.566V127.853C132.667 129.18 131.244 129.88 129.627 129.88C126.515 129.88 125.26 127.974 125.26 124.789V116.585H128.59V124.065C128.59 125.802 128.855 127.202 130.713 127.202C132.933 127.202 133.415 125.392 133.415 123.341V116.585H136.745V129.566H133.415ZM145.401 116.296C148.128 116.296 150.83 117.816 151.289 121.025H148.104C147.838 119.77 146.68 118.878 145.401 118.878C143.664 118.878 142.289 120.349 142.289 123.052C142.289 125.778 143.592 127.298 145.426 127.298C146.584 127.298 147.766 126.695 148.224 125.151H151.409C150.637 128.698 147.959 129.88 145.257 129.88C141.372 129.88 138.887 127.033 138.887 123.1C138.887 119.143 141.517 116.296 145.401 116.296ZM153.398 112.073H156.727V121.797L161.456 116.585H165.196L160.54 121.556L165.462 129.566H161.722L158.32 123.945L156.727 125.658V129.566H153.398V112.073ZM178.194 120.808C178.194 115.572 175.081 114.776 171.896 114.776H170.304V126.864H171.896C175.081 126.864 178.194 126.092 178.194 120.808ZM166.854 112.073H172.041C177.591 112.073 181.765 113.859 181.765 120.808C181.765 127.757 177.591 129.566 172.041 129.566H166.854V112.073ZM184.196 129.566V112.073H191C194.064 112.073 197.37 113.039 197.37 116.634C197.37 118.274 196.284 119.746 195.391 120.325C196.742 120.977 197.997 121.99 197.997 124.403C197.997 128.167 194.884 129.566 191.289 129.566H184.196ZM187.646 121.894V126.864H191.458C193.485 126.864 194.474 126.02 194.474 124.403C194.474 122.762 193.461 121.894 191.313 121.894H187.646ZM187.646 114.776V119.288H191.217C192.858 119.288 193.823 118.516 193.823 116.972C193.823 115.596 192.834 114.776 191.217 114.776H187.646ZM217.001 120.808C217.001 115.572 213.889 114.776 210.704 114.776H209.112V126.864H210.704C213.889 126.864 217.001 126.092 217.001 120.808ZM205.661 112.073H210.849C216.398 112.073 220.572 113.859 220.572 120.808C220.572 127.757 216.398 129.566 210.849 129.566H205.661V112.073ZM235.207 123.993H225.628C225.821 126.213 227.317 127.298 228.909 127.298C229.947 127.298 230.96 126.936 231.636 125.802H235.062C234.362 127.733 232.48 129.88 228.933 129.88C224.759 129.88 222.322 126.768 222.322 123.028C222.322 119.167 225 116.296 228.837 116.296C232.842 116.296 235.327 119.408 235.207 123.993ZM228.813 118.733C227.558 118.733 225.941 119.505 225.676 121.701H231.829C231.756 119.505 230.212 118.733 228.813 118.733ZM239.071 116.585L242.111 126.188L245.152 116.585H248.457L243.8 129.566H240.302L235.573 116.585H239.071ZM261.762 123.993H252.183C252.376 126.213 253.872 127.298 255.464 127.298C256.502 127.298 257.515 126.936 258.191 125.802H261.617C260.917 127.733 259.035 129.88 255.488 129.88C251.314 129.88 248.877 126.768 248.877 123.028C248.877 119.167 251.555 116.296 255.392 116.296C259.397 116.296 261.882 119.408 261.762 123.993ZM255.368 118.733C254.113 118.733 252.496 119.505 252.231 121.701H258.384C258.311 119.505 256.767 118.733 255.368 118.733ZM267.236 112.073V129.566H263.906V112.073H267.236ZM275.867 118.902C274.033 118.902 272.731 120.374 272.731 123.1C272.731 125.827 274.033 127.274 275.867 127.274C277.701 127.274 279.004 125.827 279.004 123.1C279.004 120.374 277.701 118.902 275.867 118.902ZM275.867 129.88C272.586 129.88 269.353 127.636 269.353 123.1C269.353 118.54 272.586 116.296 275.867 116.296C279.149 116.296 282.382 118.54 282.382 123.1C282.382 127.636 279.149 129.88 275.867 129.88ZM290.749 127.322C292.487 127.322 293.717 125.634 293.717 123.1C293.717 120.567 292.487 118.854 290.749 118.854C288.916 118.854 287.709 120.47 287.709 123.076C287.709 125.754 288.916 127.322 290.749 127.322ZM287.83 133.789H284.5V116.585H287.83V118.25C288.53 117.02 289.929 116.296 291.57 116.296C294.706 116.296 297.216 118.998 297.216 123.076C297.216 127.226 294.634 129.88 291.546 129.88C290.194 129.88 288.674 129.373 287.83 127.926V133.789ZM311.597 123.993H302.018C302.211 126.213 303.707 127.298 305.299 127.298C306.337 127.298 307.35 126.936 308.026 125.802H311.452C310.752 127.733 308.87 129.88 305.323 129.88C301.149 129.88 298.712 126.768 298.712 123.028C298.712 119.167 301.39 116.296 305.227 116.296C309.232 116.296 311.717 119.408 311.597 123.993ZM305.203 118.733C303.948 118.733 302.331 119.505 302.066 121.701H308.219C308.146 119.505 306.602 118.733 305.203 118.733ZM321.173 116.658V119.795C320.69 119.722 320.28 119.722 319.798 119.722C318.157 119.722 317.071 120.325 317.071 122.762V129.566H313.741V116.585H317.023V118.854C317.771 117.237 318.929 116.61 320.449 116.61C320.666 116.61 320.956 116.634 321.173 116.658ZM339.353 129.566H335.927L331.608 116.417V129.566H328.399V112.073H333.418L337.664 125.706L341.79 112.073H346.857V129.566H343.648V116.417L339.353 129.566ZM361.95 123.993H352.371C352.564 126.213 354.06 127.298 355.653 127.298C356.69 127.298 357.703 126.936 358.379 125.802H361.805C361.106 127.733 359.224 129.88 355.677 129.88C351.503 129.88 349.066 126.768 349.066 123.028C349.066 119.167 351.744 116.296 355.58 116.296C359.585 116.296 362.071 119.408 361.95 123.993ZM355.556 118.733C354.301 118.733 352.685 119.505 352.419 121.701H358.572C358.5 119.505 356.956 118.733 355.556 118.733ZM376.488 123.993H366.909C367.102 126.213 368.598 127.298 370.191 127.298C371.228 127.298 372.242 126.936 372.917 125.802H376.343C375.644 127.733 373.762 129.88 370.215 129.88C366.041 129.88 363.604 126.768 363.604 123.028C363.604 119.167 366.282 116.296 370.118 116.296C374.124 116.296 376.609 119.408 376.488 123.993ZM370.094 118.733C368.84 118.733 367.223 119.505 366.958 121.701H373.11C373.038 119.505 371.494 118.733 370.094 118.733ZM379.091 116.585V113.063H382.421V116.585H385.123V118.878H382.421V125.585C382.421 126.912 382.88 127.178 384.062 127.178H385.075V129.566H382.638C379.646 129.566 379.091 128.65 379.091 126.068V118.878H377.258V116.585H379.091ZM387.257 116.585H390.587V129.566H387.257V116.585ZM387.257 112.073H390.587V115.162H387.257V112.073ZM396.901 116.585V118.299C397.649 116.972 399.049 116.296 400.665 116.296C403.778 116.296 405.153 118.178 405.153 121.387V129.566H401.824V122.111C401.824 120.446 401.462 118.974 399.58 118.974C397.384 118.974 396.901 120.76 396.901 122.811V129.566H393.572V116.585H396.901ZM413.591 126.575C415.449 126.575 416.583 125.006 416.583 122.69C416.583 120.398 415.449 118.829 413.591 118.829C411.878 118.829 410.599 120.542 410.599 122.714C410.599 124.861 411.878 126.575 413.591 126.575ZM416.462 116.585H419.768V128.263C419.768 132.51 417.379 134.102 413.398 134.102C410.623 134.102 408.186 133.089 407.728 130.073H410.888C411.178 131.135 412.071 131.666 413.567 131.666C415.304 131.666 416.462 130.845 416.462 128.891V127.154C415.618 128.577 414.098 129.108 412.746 129.108C409.561 129.108 407.1 126.478 407.1 122.69C407.1 118.998 409.489 116.296 412.746 116.296C414.387 116.296 415.883 117.14 416.462 118.274V116.585ZM428.112 116.127H431.49L432.045 112.073H435.036L434.482 116.127H437.691L438.246 112.073H441.237L440.682 116.127H444.012L443.698 118.709H440.321L439.814 122.352H443.119L442.854 124.91H439.452L438.825 129.566H435.833L436.46 124.91H433.251L432.624 129.566H429.632L430.259 124.91H426.954L427.267 122.352H430.621L431.128 118.709H427.846L428.112 116.127ZM434.12 118.709L433.613 122.352H436.822L437.329 118.709H434.12ZM451.314 129.566H447.984V116.489H444.22V114.221C446.729 114.149 447.96 113.98 448.78 112.073H451.314V129.566ZM212.705 153.566L219.22 136.073H222.694L229.233 153.566H225.493L224.262 150.02H217.458L216.228 153.566H212.705ZM220.86 140.296L218.448 147.197H223.273L220.86 140.296ZM246.691 153.566V146.014C246.691 144.591 246.571 142.974 244.616 142.974C242.396 142.974 242.035 144.832 242.035 146.811V153.566H238.705V146.014C238.705 144.591 238.584 142.974 236.63 142.974C234.41 142.974 234.048 144.832 234.048 146.811V153.566H230.718V140.585H234.048V142.299C234.796 141.02 236.099 140.296 237.667 140.296C239.863 140.296 240.852 141.478 241.359 142.419C242.396 140.972 243.675 140.296 245.63 140.296C248.887 140.296 250.021 142.323 250.021 145.387V153.566H246.691ZM263.244 144.494H260.131C259.866 143.408 258.901 142.636 257.356 142.636C256.126 142.636 255.257 143.095 255.257 143.891C255.257 144.591 255.764 145.122 256.994 145.387L258.732 145.773C261.313 146.352 263.509 147.004 263.509 149.682C263.509 152.288 260.831 153.88 257.887 153.88C254.702 153.88 252.289 152.239 251.976 149.272H255.185C255.378 150.526 256.246 151.467 257.984 151.467C259.431 151.467 260.324 150.936 260.324 149.995C260.324 149.03 259.335 148.668 258.201 148.403L256.271 147.993C253.834 147.486 252.217 146.473 252.217 144.108C252.217 141.792 254.726 140.248 257.525 140.248C260.228 140.248 262.785 141.502 263.244 144.494ZM266.215 140.585V137.063H269.544V140.585H272.247V142.878H269.544V149.585C269.544 150.912 270.003 151.178 271.185 151.178H272.198V153.566H269.761C266.769 153.566 266.215 152.65 266.215 150.068V142.878H264.381V140.585H266.215ZM286.42 147.993H276.841C277.034 150.213 278.53 151.298 280.123 151.298C281.16 151.298 282.173 150.936 282.849 149.802H286.275C285.575 151.733 283.693 153.88 280.147 153.88C275.972 153.88 273.536 150.768 273.536 147.028C273.536 143.167 276.214 140.296 280.05 140.296C284.055 140.296 286.541 143.408 286.42 147.993ZM280.026 142.733C278.771 142.733 277.155 143.505 276.889 145.701H283.042C282.97 143.505 281.425 142.733 280.026 142.733ZM295.996 140.658V143.795C295.514 143.722 295.103 143.722 294.621 143.722C292.98 143.722 291.894 144.325 291.894 146.762V153.566H288.565V140.585H291.846V142.854C292.594 141.237 293.752 140.61 295.272 140.61C295.49 140.61 295.779 140.634 295.996 140.658ZM309.578 153.566H306.248V151.926C305.404 153.373 303.86 153.88 302.509 153.88C299.42 153.88 296.863 151.226 296.863 147.076C296.863 142.998 299.372 140.296 302.509 140.296C304.149 140.296 305.549 141.02 306.248 142.25V136.073H309.578V153.566ZM303.329 151.322C305.163 151.322 306.369 149.754 306.369 147.076C306.369 144.47 305.163 142.854 303.329 142.854C301.592 142.854 300.361 144.567 300.361 147.1C300.361 149.634 301.592 151.322 303.329 151.322ZM320.682 148.596V147.631C316.942 148.017 315.47 148.451 315.47 149.899C315.47 150.84 316.194 151.612 317.714 151.612C319.814 151.612 320.682 150.502 320.682 148.596ZM320.972 151.95C320.031 153.301 318.679 153.88 316.725 153.88C314.24 153.88 312.044 152.432 312.044 150.068C312.044 147.004 315.47 146.087 320.586 145.508V145.29C320.586 143.288 319.5 142.588 318.149 142.588C316.87 142.588 315.808 143.24 315.736 144.687H312.623C312.889 142.13 314.964 140.248 318.318 140.248C321.382 140.248 323.915 141.599 323.915 145.966C323.915 146.352 323.867 148.113 323.867 149.272C323.867 151.322 323.988 152.481 324.253 153.566H321.189C321.092 153.156 321.044 152.601 320.972 151.95ZM342.662 153.566V146.014C342.662 144.591 342.541 142.974 340.587 142.974C338.367 142.974 338.005 144.832 338.005 146.811V153.566H334.676V146.014C334.676 144.591 334.555 142.974 332.6 142.974C330.381 142.974 330.019 144.832 330.019 146.811V153.566H326.689V140.585H330.019V142.299C330.767 141.02 332.07 140.296 333.638 140.296C335.834 140.296 336.823 141.478 337.33 142.419C338.367 140.972 339.646 140.296 341.6 140.296C344.858 140.296 345.992 142.323 345.992 145.387V153.566H342.662Z" fill="black"/>
<path d="M229.59 164.537C232.383 164.537 234.189 166.007 234.189 168.464C234.189 171.551 231.543 174.554 225.936 178.775H234.651V180.035H224.13V178.733C229.737 174.47 232.803 171.446 232.803 168.611C232.803 166.658 231.312 165.692 229.59 165.692C227.679 165.692 225.936 166.595 225.873 169.514H224.487C224.634 166.259 226.566 164.537 229.59 164.537ZM242.449 180.308C238.417 180.308 236.59 177.263 236.59 172.412C236.59 167.603 238.417 164.537 242.449 164.537C246.439 164.537 248.287 167.603 248.287 172.412C248.287 177.263 246.439 180.308 242.449 180.308ZM242.449 179.153C245.179 179.153 246.922 177.011 246.922 172.412C246.922 167.855 245.179 165.692 242.449 165.692C239.698 165.692 237.976 167.855 237.976 172.412C237.976 177.011 239.698 179.153 242.449 179.153ZM255.512 164.537C258.305 164.537 260.111 166.007 260.111 168.464C260.111 171.551 257.465 174.554 251.858 178.775H260.573V180.035H250.052V178.733C255.659 174.47 258.725 171.446 258.725 168.611C258.725 166.658 257.234 165.692 255.512 165.692C253.601 165.692 251.858 166.595 251.795 169.514H250.409C250.556 166.259 252.488 164.537 255.512 164.537ZM263.856 175.205C263.856 177.536 265.473 179.153 267.741 179.153C270.03 179.153 271.626 177.536 271.626 175.205C271.626 172.706 270.093 171.089 267.741 171.089C265.389 171.089 263.856 172.706 263.856 175.205ZM267.993 165.692C265.326 165.692 263.604 167.981 263.604 172.37C264.297 170.942 265.872 169.934 267.888 169.934C270.912 169.934 273.012 172.118 273.012 175.142C273.012 177.998 270.954 180.308 267.741 180.308C263.982 180.308 262.281 177.62 262.281 173.021C262.281 168.233 263.814 164.537 268.203 164.537C270.933 164.537 272.487 166.133 272.76 168.317H271.374C271.101 166.532 269.778 165.692 267.993 165.692ZM280.896 175.016H275.016V173.546H280.896V175.016ZM288.797 180.308C284.765 180.308 282.938 177.263 282.938 172.412C282.938 167.603 284.765 164.537 288.797 164.537C292.787 164.537 294.635 167.603 294.635 172.412C294.635 177.263 292.787 180.308 288.797 180.308ZM288.797 179.153C291.527 179.153 293.27 177.011 293.27 172.412C293.27 167.855 291.527 165.692 288.797 165.692C286.046 165.692 284.324 167.855 284.324 172.412C284.324 177.011 286.046 179.153 288.797 179.153ZM300.558 180.035H299.256V167.708H295.77V166.826C298.437 166.826 299.109 166.553 299.676 164.684H300.558V180.035ZM309.382 175.016H303.502V173.546H309.382V175.016ZM315.98 179.153C318.29 179.153 319.97 177.956 319.97 175.835C319.97 173.504 318.206 172.559 315.35 172.559H315.224V171.404H315.35C318.206 171.404 319.571 170.354 319.571 168.506C319.571 166.931 318.332 165.692 316.085 165.692C314.489 165.692 312.662 166.553 312.326 168.905H310.94C311.276 166.301 313.145 164.537 316.19 164.537C319.109 164.537 320.957 166.007 320.957 168.38C320.957 169.892 320.159 171.341 318.458 171.929C320.075 172.37 321.356 173.462 321.356 175.814C321.356 178.838 318.836 180.308 316.001 180.308C312.956 180.308 310.919 178.334 310.646 175.751H312.032C312.473 178.103 314.174 179.153 315.98 179.153ZM329.259 180.308C325.227 180.308 323.4 177.263 323.4 172.412C323.4 167.603 325.227 164.537 329.259 164.537C333.249 164.537 335.097 167.603 335.097 172.412C335.097 177.263 333.249 180.308 329.259 180.308ZM329.259 179.153C331.989 179.153 333.732 177.011 333.732 172.412C333.732 167.855 331.989 165.692 329.259 165.692C326.508 165.692 324.786 167.855 324.786 172.412C324.786 177.011 326.508 179.153 329.259 179.153Z" fill="black"/>
<g clip-path="url(#clip1_10607_33686)">
<path d="M232.071 283.142C225.404 283.142 220 277.737 220 271.071C220 264.404 225.377 259 232.071 259C238.765 259 244.142 264.404 244.142 271.071C244.142 277.737 238.737 283.142 232.071 283.142Z" fill="#FF6900"/>
<path d="M239.958 271.073C239.958 268.302 237.709 266.08 234.965 266.08C232.222 266.08 229.972 268.33 229.972 271.073C229.972 273.816 232.222 276.066 234.965 276.066C237.709 276.066 239.958 273.816 239.958 271.073Z" fill="#1D1D1B"/>
<path d="M225.981 272.867H228.354V269.273H225.981C224.988 269.273 224.184 270.078 224.184 271.07C224.184 272.063 224.988 272.867 225.981 272.867Z" fill="#1D1D1B"/>
<path d="M264.679 273.031C264.679 274.101 264.378 274.996 263.253 274.996C262.128 274.996 261.826 274.101 261.826 273.031V268.477H259.796V273.47C259.796 275.417 261.36 276.553 263.253 276.553C265.146 276.553 266.71 275.417 266.71 273.47V268.477H264.679V273.031Z" fill="black"/>
<path d="M252.69 265.748H249.543V276.359H252.69C256.056 276.359 258.588 275.261 258.588 271.046C258.588 266.831 256.056 265.748 252.69 265.748ZM252.602 274.72H251.636V267.387H252.602C254.534 267.387 256.422 267.87 256.422 271.046C256.422 274.251 254.534 274.72 252.602 274.72Z" fill="black"/>
<path d="M272.029 274.986C270.917 274.986 270.127 274.064 270.127 272.41C270.127 270.771 270.961 269.879 272.015 269.879C272.791 269.879 273.493 270.42 273.654 271.181H275.586C275.308 269.235 273.669 268.312 272.015 268.312C269.658 268.312 268.063 270.04 268.063 272.44C268.063 274.825 269.571 276.552 271.927 276.552C273.566 276.552 275.191 275.835 275.659 273.684H273.727C273.449 274.621 272.732 274.986 272.029 274.986Z" fill="black"/>
<path d="M284.001 268.485H281.733L278.864 271.646V265.748H276.845V276.359H278.864V273.988L279.83 272.949L281.894 276.359H284.162L281.177 271.5L284.001 268.485Z" fill="black"/>
<path d="M288.143 265.748H284.997V276.359H288.143C291.51 276.359 294.042 275.261 294.042 271.046C294.042 266.831 291.51 265.748 288.143 265.748ZM288.056 274.72H287.09V267.387H288.056C289.987 267.387 291.875 267.87 291.875 271.046C291.875 274.251 289.987 274.72 288.056 274.72Z" fill="black"/>
<path d="M302.296 270.753C302.837 270.402 303.496 269.509 303.496 268.514C303.496 266.333 301.491 265.748 299.632 265.748H295.505V276.359H299.808C301.989 276.359 303.877 275.51 303.877 273.227C303.877 271.763 303.115 271.149 302.296 270.753ZM297.598 267.387H299.764C300.745 267.387 301.345 267.885 301.345 268.719C301.345 269.656 300.759 270.124 299.764 270.124H297.598V267.387ZM299.91 274.72H297.598V271.705H299.822C301.125 271.705 301.74 272.232 301.74 273.227C301.74 274.208 301.14 274.72 299.91 274.72Z" fill="black"/>
<path d="M310.224 265.748H309.243V276.359H315.844V275.452H310.224V265.748Z" fill="black"/>
<path d="M322.093 269.846C321.552 268.895 320.601 268.354 319.43 268.354C317.615 268.354 316.151 269.832 316.151 272.452C316.151 275.071 317.615 276.55 319.43 276.55C320.601 276.55 321.552 276.008 322.093 275.071V276.359H323.016V268.485H322.093V269.846ZM319.62 275.73C318.156 275.73 317.132 274.544 317.132 272.452C317.132 270.359 318.156 269.173 319.62 269.173C320.835 269.173 322.167 270.11 322.167 272.452C322.167 274.793 320.835 275.73 319.62 275.73Z" fill="black"/>
<path d="M328.767 268.353C327.596 268.353 326.674 268.895 326.103 269.846V265.748H325.196V276.359H326.103V275.071C326.674 276.008 327.596 276.549 328.767 276.549C330.582 276.549 332.06 275.071 332.06 272.451C332.06 269.831 330.582 268.353 328.767 268.353ZM328.577 275.73C327.391 275.73 326.045 274.793 326.045 272.451C326.045 270.109 327.391 269.173 328.577 269.173C330.04 269.173 331.08 270.358 331.08 272.451C331.08 274.544 330.04 275.73 328.577 275.73Z" fill="black"/>
<path d="M336.744 271.984L335.631 271.779C334.753 271.618 334.153 271.208 334.153 270.433C334.153 269.481 335.295 269.145 336.158 269.145C337.27 269.145 338.134 269.701 338.324 270.638H339.276C339.085 269.394 337.944 268.34 336.246 268.34C334.475 268.34 333.231 269.262 333.231 270.506C333.231 271.75 334.241 272.379 335.368 272.613L336.597 272.848C337.666 273.053 338.544 273.375 338.544 274.297C338.544 275.35 337.358 275.746 336.407 275.746C335.207 275.746 334.182 275.175 334.021 273.945H333.07C333.304 275.746 334.709 276.551 336.334 276.551C338.046 276.551 339.466 275.716 339.466 274.15C339.466 272.657 338.032 272.218 336.744 271.984Z" fill="black"/>
</g>
<path d="M519 -27.9957L519 304.671C519 321.423 505.419 335.004 488.667 335.004L394.333 335.004C377.581 335.004 364 321.423 364 304.671L364 241.837C364 225.084 350.419 211.504 333.667 211.504L72.8334 211.504C56.0808 211.504 42.5001 197.923 42.5001 181.17L42.5001 -20.9961" stroke="#F0DF09" stroke-width="1.39655"/>
<path d="M395.198 -79.416C395.198 -79.8017 394.886 -80.1143 394.5 -80.1143C394.114 -80.1143 393.802 -79.8017 393.802 -79.416L394.5 -79.416L395.198 -79.416ZM394.006 72.5111C394.279 72.7838 394.721 72.7838 394.994 72.5111L399.438 68.0673C399.71 67.7946 399.71 67.3525 399.438 67.0798C399.165 66.8071 398.723 66.8071 398.45 67.0798L394.5 71.0298L390.55 67.0798C390.277 66.8071 389.835 66.8071 389.562 67.0798C389.29 67.3525 389.29 67.7946 389.562 68.0673L394.006 72.5111ZM394.5 -79.416L393.802 -79.416L393.802 72.0173L394.5 72.0173L395.198 72.0173L395.198 -79.416L394.5 -79.416Z" fill="#F0DF09"/>
<path d="M-38 259H80.1667C96.9193 259 110.5 272.581 110.5 289.333L110.5 362.5" stroke="#F0DF09" stroke-width="1.39655" stroke-linecap="round" stroke-linejoin="round"/>
<rect x="165.449" y="218.551" width="13.1022" height="25.1022" rx="6.55111" transform="rotate(-90 165.449 218.551)" fill="#D4C50B" stroke="#F0DF09" stroke-width="0.897781"/>
<path d="M-9 -54.8018C-9.38565 -54.8018 -9.69827 -55.1144 -9.69827 -55.5001C-9.69827 -55.8857 -9.38565 -56.1984 -9 -56.1984L-9 -55.5001L-9 -54.8018ZM253.494 71.5067C253.766 71.7793 253.766 72.2215 253.494 72.4942L249.05 76.938C248.777 77.2106 248.335 77.2106 248.062 76.938C247.79 76.6652 247.79 76.2231 248.062 75.9504L252.012 72.0004L248.062 68.0504C247.79 67.7777 247.79 67.3356 248.062 67.0629C248.335 66.7902 248.777 66.7902 249.05 67.0629L253.494 71.5067ZM-9 -55.5001L-9 -56.1984L102.667 -56.1983L102.667 -55.5L102.667 -54.8017L-9 -54.8018L-9 -55.5001ZM133 -25.1667L133.698 -25.1667L133.698 41.6671L133 41.6671L132.302 41.6671L132.302 -25.1667L133 -25.1667ZM163.333 72.0004L163.333 71.3021L253 71.3021L253 72.0004L253 72.6987L163.333 72.6987L163.333 72.0004ZM133 41.6671L133.698 41.6671C133.698 58.0341 146.966 71.3021 163.333 71.3021L163.333 72.0004L163.333 72.6987C146.195 72.6987 132.302 58.8054 132.302 41.6671L133 41.6671ZM102.667 -55.5L102.667 -56.1983C119.805 -56.1983 133.698 -42.305 133.698 -25.1667L133 -25.1667L132.302 -25.1667C132.302 -41.5337 119.034 -54.8017 102.667 -54.8017L102.667 -55.5Z" fill="#F0DF09"/>
<rect x="508.449" y="29.4489" width="21.0356" height="42.0355" rx="10.5178" fill="#D4C50B" stroke="#F0DF09" stroke-width="0.897781"/>
</g>
<defs>
<linearGradient id="paint0_linear_10607_33686" x1="274.867" y1="-15.0561" x2="273.483" y2="356.232" gradientUnits="userSpaceOnUse">
<stop stop-color="#FDEF00"/>
<stop offset="0.938633" stop-color="#FFFAA3"/>
</linearGradient>
<clipPath id="clip0_10607_33686">
<rect width="560" height="292.6" fill="white"/>
</clipPath>
<clipPath id="clip1_10607_33686">
<rect width="119.553" height="24.1418" fill="white" transform="translate(220 259)"/>
</clipPath>
</defs>
</svg>
