<svg xmlns="http://www.w3.org/2000/svg" id="Ebene_1" version="1.1" viewBox="0 0 150 70"><defs><style>.st0{fill-rule:evenodd}.st1{fill:#333}</style></defs><g id="g853"><g id="g847"><path id="path841" d="M20.1,41.3c-.9,0-1.7-.5-2.1-1.2-.4-.7-.4-1.7,0-2.4l4.3-6.7c.4-.7,1.3-1.2,2.1-1.2.9,0,1.7.5,2,1.3s.3,1.7-.1,2.4l-4.3,6.7c-.4.7-1.2,1.1-2,1.1Z"/><path id="path843" d="M27.5,41.3c-.9,0-1.7-.5-2.1-1.2s-.4-1.7,0-2.4l4.3-6.7c.4-.7,1.3-1.2,2.1-1.2.9,0,1.7.5,2.1,1.3s.3,1.7-.1,2.4l-4.3,6.7c-.4.7-1.2,1.1-2,1.1h0Z"/><ellipse id="ellipse845" cx="34.7" cy="39.2" rx="2.2" ry="2.2"/></g><path id="path849" d="M130.8,37.1c.7,0,1.1.5,1.1,1.3v2.7h.9v-2.7c0-1.3-.6-2.1-1.8-2.1s-1.2.1-1.6,1c-.2-.5-.7-.9-1.2-.9-.2,0-.3,0-.5,0-.4,0-1,.3-1.3.8v-.7h-.9v4.7h.9v-2.5c0-1,.6-1.4,1.3-1.4s1,.5,1,1.2v2.7h.9v-2.5c0-.8.5-1.4,1.3-1.4h0ZM122.1,40.3c.4,0,.8-.1,1.1-.5.3-.3.4-.7.4-1.1,0-1-.7-1.6-1.5-1.6s-1.5.6-1.5,1.6.1.8.4,1.1c.3.3.7.5,1.1.5h0ZM122.1,41.2c-1.3,0-2.4-1-2.4-2.5s1.1-2.4,2.4-2.4,2.4,1,2.4,2.4-1.1,2.5-2.4,2.5h0ZM115,38.7h0c0-1.5,1.1-2.4,2.5-2.4s1.3.3,1.8.8l-.7.6c-.3-.3-.7-.4-1.1-.4-.8,0-1.6.6-1.6,1.6s.4,1.2,1,1.5,1.3,0,1.7-.3l.7.6c-.5.5-1.1.8-1.8.8-1.3,0-2.5-1-2.5-2.5h0ZM112.1,40.2c0-.3.3-.6.6-.6h0c.3,0,.6.3.6.6h0c0,.3-.3.6-.6.6s-.6-.3-.6-.6Z" class="st1"/><path id="path851" d="M114.6,30.4h-3.2l-2.3,5.8-2.3-5.8h-3.2l3.9,9.2-2.4,6.1h3.2l6.3-15.3h0ZM94.9,35.5c0,1.5,1.3,2.4,2.6,2.4s2.5-.9,2.5-2.4-1.2-2.4-2.5-2.4-2.6,1-2.6,2.4h0ZM99.9,40.6v-1.2c-.7,1-2.2,1.4-3,1.4-2.6,0-5.2-2-5.2-5.3s2.6-5.3,5.2-5.3,2.2.2,3,1.4v-1.1h3v10.3h-3ZM90.9,40.6h-3v-1.3c-.5.9-1.7,1.5-3,1.5-2.6,0-4.9-2.1-4.9-5.3s2.3-5.4,4.9-5.4,2.5.5,3,1.5v-6.8h3v15.9ZM87.8,35.5c0-1.6-1.1-2.4-2.4-2.4s-2.4,1-2.4,2.4,1.1,2.5,2.4,2.5,2.4-1,2.4-2.5h0ZM72.5,35.2c0-1.6.8-2.1,1.9-2.1s1.8.7,1.8,2v5.5h3v-6.2c0-2.9-1.5-4.4-3.7-4.4s-2.4.7-3,1.7v-1.5h-3v10.3h3v-5.4h0ZM63.3,40.8c-2.9,0-5.3-2.1-5.3-5.3s2.4-5.3,5.3-5.3,5.3,2.1,5.3,5.3-2.4,5.3-5.3,5.3h0ZM63.3,37.8c1.3,0,2.3-.9,2.3-2.4s-1.1-2.3-2.3-2.3-1.2.2-1.7.7c-.4.4-.7,1-.6,1.7,0,1.4,1.1,2.4,2.3,2.4h0ZM52.6,33.1c.9,0,1.7.7,1.7,2v5.5h3v-5.8c0-3.1-1.5-4.7-3.9-4.7s-2.1.2-3.1,1.8c-.6-1.2-1.7-1.8-3.3-1.8s-2.2.7-2.7,1.7v-1.5h-3v10.3h3v-5.4c0-1.6.9-2.1,1.8-2.1s1.7.7,1.7,2v5.5h3v-5.4c0-1.5.8-2.1,1.7-2.1h0Z" class="st0"/></g></svg>