<svg width="150" height="70" viewBox="0 0 150 70" fill="none" xmlns="http://www.w3.org/2000/svg">
<path d="M11.023 41.8638C10.5302 41.8648 10.046 41.7383 9.61976 41.4973C9.19355 41.2562 8.84063 40.9091 8.59706 40.4916C8.35721 40.077 8.23759 39.6066 8.25102 39.1307C8.26444 38.6549 8.4104 38.1916 8.67326 37.7905L13.669 30.1433C13.9247 29.7324 14.2877 29.3949 14.721 29.1654C15.1543 28.9359 15.6423 28.8227 16.1351 28.8372C16.6276 28.8487 17.1081 28.9875 17.5275 29.2395C17.9469 29.4915 18.29 29.8476 18.5219 30.2713C18.9876 31.1297 18.9294 32.1624 18.3716 32.9682L13.379 40.6154C13.1258 41 12.7771 41.316 12.3653 41.5342C11.9534 41.7525 11.4917 41.8658 11.023 41.8638Z" fill="black"/>
<path d="M19.5924 41.8634C18.5848 41.8634 17.6576 41.3383 17.1707 40.4943C16.9314 40.0808 16.8121 39.6117 16.8255 39.1371C16.8389 38.6625 16.9846 38.2005 17.2469 37.8005L22.2331 30.1709C22.4851 29.7541 22.8468 29.4106 23.2808 29.176C23.7148 28.9415 24.2053 28.8244 24.7014 28.8368C25.7175 28.8585 26.6383 29.4125 27.104 30.2792C27.5665 31.1458 27.4988 32.1848 26.9241 32.9885L21.9389 40.6181C21.6865 41.0011 21.3392 41.3159 20.9291 41.5335C20.519 41.7512 20.0593 41.8646 19.5924 41.8634Z" fill="black"/>
<path d="M27.9697 41.927C29.3901 41.927 30.5416 40.8281 30.5416 39.4725C30.5416 38.117 29.3901 37.0181 27.9697 37.0181C26.5492 37.0181 25.3977 38.117 25.3977 39.4725C25.3977 40.8281 26.5492 41.927 27.9697 41.927Z" fill="black"/>
<path d="M139.703 37.1627C140.48 37.1627 140.945 37.7013 140.945 38.5834V41.6064H142V38.5143C142 37.0141 141.275 36.1444 139.912 36.1444C139.378 36.1444 138.531 36.2868 138.027 37.2432C137.909 36.9611 137.716 36.7152 137.467 36.5318C137.217 36.3483 136.922 36.234 136.612 36.2011C136.416 36.1663 136.217 36.1548 136.019 36.1671C135.585 36.2011 134.812 36.4642 134.523 37.0606V36.2589H133.467V41.6064H134.523V38.7206C134.523 37.5981 135.277 37.1627 136.031 37.1627C136.739 37.1627 137.203 37.6899 137.203 38.572V41.6064H138.253V38.7206C138.253 37.8271 138.804 37.1524 139.703 37.1627ZM129.59 40.7129C130.073 40.7232 130.538 40.5354 130.876 40.195C131.215 39.8545 131.395 39.3912 131.377 38.9156C131.377 37.8385 130.564 37.1627 129.59 37.1627C128.615 37.1627 127.803 37.8385 127.803 38.9156C127.784 39.3902 127.964 39.8524 128.301 40.1919C128.637 40.5323 129.101 40.7211 129.581 40.7129H129.59ZM129.59 41.7157C128.047 41.7157 126.759 40.6046 126.759 38.9094C126.759 37.2143 128.047 36.1382 129.59 36.1382C131.133 36.1382 132.432 37.2143 132.432 38.9094C132.432 40.6046 131.126 41.7209 129.583 41.7209L129.59 41.7157ZM121.324 38.9094L121.313 38.9156C121.313 37.2205 122.635 36.1444 124.189 36.1382C124.579 36.1308 124.967 36.2034 125.326 36.3513C125.686 36.4992 126.01 36.719 126.277 36.9966L125.477 37.661C125.307 37.4984 125.106 37.3701 124.885 37.2837C124.663 37.1973 124.427 37.1544 124.189 37.1576C123.215 37.1576 122.368 37.8333 122.368 38.9094C122.368 39.6368 122.812 40.2919 123.492 40.5705C124.173 40.8491 124.956 40.6943 125.477 40.1805L126.289 40.8449C126.021 41.1254 125.695 41.3478 125.334 41.4978C124.972 41.6478 124.582 41.7221 124.189 41.7157C122.647 41.7157 121.324 40.6046 121.324 38.9094ZM117.944 40.5798C117.943 40.4863 117.961 40.3935 117.996 40.3067C118.032 40.2199 118.085 40.1408 118.152 40.074C118.219 40.0071 118.299 39.9538 118.387 39.917C118.475 39.8802 118.57 39.8607 118.666 39.8596C118.762 39.8607 118.857 39.8802 118.945 39.917C119.033 39.9538 119.113 40.0071 119.18 40.074C119.247 40.1408 119.3 40.2199 119.335 40.3067C119.371 40.3935 119.389 40.4863 119.388 40.5798C119.378 40.7609 119.298 40.9316 119.164 41.0572C119.03 41.1827 118.852 41.2537 118.666 41.2556C118.48 41.2537 118.302 41.1827 118.168 41.0572C118.033 40.9316 117.954 40.7609 117.944 40.5798Z" fill="black"/>
<path fill-rule="evenodd" clip-rule="evenodd" d="M120.831 29.4602H117.073L114.438 36.0808L111.817 29.4602H108.059L112.628 39.9219L109.786 46.8386H113.517L120.831 29.4602ZM97.9733 35.2791C97.9733 36.9505 99.472 38.0504 100.944 38.0504C102.391 38.0504 103.813 37.0269 103.813 35.2781C103.813 33.5293 102.391 32.5048 100.944 32.5048C99.472 32.5048 97.9733 33.6067 97.9733 35.2791ZM103.813 41.1208V39.7971C103.051 40.9217 101.272 41.3467 100.36 41.3467C97.3393 41.3467 94.3175 39.0253 94.3175 35.2781C94.3175 31.5319 97.3383 29.2105 100.36 29.2105C101.121 29.2105 102.899 29.4581 103.813 30.7581V29.4643H107.316V41.1229L103.813 41.1208ZM93.3205 41.1208H89.8171V39.6722C89.2318 40.7452 87.8125 41.3705 86.3392 41.3705C83.292 41.3705 80.6004 38.9985 80.6004 35.3256C80.6004 31.5835 83.292 29.2085 86.3392 29.2085C87.8104 29.2085 89.2339 29.8069 89.8171 30.8809V23.1089H93.3205V41.1208ZM89.7409 35.2523C89.7409 33.5046 88.4465 32.4801 86.9996 32.4801C85.5009 32.4801 84.2562 33.5789 84.2562 35.2523C84.2562 36.9794 85.5009 38.0731 86.9985 38.0731C88.4729 38.0751 89.7409 36.9258 89.7409 35.2523ZM71.9383 34.9511C71.9383 33.1785 72.8781 32.5791 74.1218 32.5791C75.3146 32.5791 76.1783 33.3529 76.1783 34.9005V41.1187H79.7071V34.1525C79.7071 30.8324 78.0305 29.2085 75.3644 29.2085C73.9683 29.2085 72.5723 29.9823 71.9372 31.1564V29.4602H68.4106V41.1187H71.9383V34.9511ZM61.245 41.3189C57.8941 41.3189 55.0988 38.9222 55.0988 35.2513C55.0988 31.5783 57.8909 29.2054 61.245 29.2054C64.5992 29.2054 67.4156 31.5783 67.4156 35.2513C67.4156 38.9242 64.596 41.3189 61.245 41.3189ZM61.245 37.9245C62.7162 37.9245 63.9366 36.8742 63.9366 35.2523C63.9366 33.6789 62.7173 32.6049 61.245 32.6049C60.8905 32.5995 60.5386 32.6645 60.2107 32.7959C59.8828 32.9274 59.5858 33.1225 59.3378 33.3694C59.0883 33.6177 58.8925 33.9123 58.7622 34.2357C58.6318 34.5592 58.5695 34.9049 58.5789 35.2523C58.5799 36.8763 59.7982 37.9245 61.245 37.9245ZM48.7726 32.5801C49.813 32.5801 50.7275 33.3797 50.7275 34.9015V41.1208H54.2309V34.4992C54.2309 30.9789 52.475 29.2064 49.6606 29.2064C48.8245 29.2064 47.2495 29.454 46.1064 31.2781C45.446 29.9296 44.1769 29.2301 42.3014 29.2301C41.6503 29.2269 41.0119 29.4065 40.4627 29.7476C39.9135 30.0886 39.4767 30.5766 39.2045 31.1533V29.4612H35.6736V41.1198H39.2013V34.9511C39.2013 33.1785 40.192 32.5791 41.2578 32.5791C42.2739 32.5791 43.1863 33.3529 43.2127 34.8262V41.1198H46.7415V34.9511C46.7415 33.2559 47.656 32.5801 48.7726 32.5801Z" fill="black"/>
</svg>
