<svg xmlns="http://www.w3.org/2000/svg" xmlns:xlink="http://www.w3.org/1999/xlink" width="100%" height="100%" version="1.1" viewBox="0 0 528 256" xml:space="preserve" style="fill-rule:evenodd;clip-rule:evenodd;stroke-linecap:square;stroke-linejoin:bevel;stroke-miterlimit:10"><g id="Trim"><g transform="matrix(0.674994,0,0,-0.674994,-6.48847,302.629)"><rect width="800" height="470" x="0" y="0" style="fill:#fff"/></g><g transform="matrix(0.674994,0,0,-0.674994,1.61146,279.004)"><rect width="774" height="337" x="0" y="43" style="fill:#fff"/></g><text x="5.661" y="46.131" style="font-family:'LucidaGrande','Lucida Grande',sans-serif;font-weight:500;font-size:8.1px;fill:#333">Aggreg<tspan x="34.111" y="46.131">a</tspan>te <tspan x="54.261" y="46.131">I</tspan>mplem<tspan x="83.553" y="46.131">e</tspan>ntati<tspan x="105.848" y="46.131">o</tspan>n</text><g><clipPath id="_clip1"><rect width="404.997" height="28.35" x="119.735" y="21.831"/></clipPath><g clip-path="url(#_clip1)"><text x="306.414" y="32.631" style="font-family:'LucidaGrande','Lucida Grande',sans-serif;font-weight:500;font-size:8.1px;fill:#333">Fra<tspan x="318.429" y="32.631">m</tspan>in<tspan x="333.245" y="32.631">g</tspan></text><text x="211.809" y="46.131" style="font-family:'LucidaGrande','Lucida Grande',sans-serif;font-weight:500;font-size:8.1px;fill:#666">ﬁ<tspan x="216.865 221.668 226.015" y="46.131 46.131 46.131">xed</tspan></text><text x="407.61" y="46.131" style="font-family:'LucidaGrande','Lucida Grande',sans-serif;font-weight:500;font-size:8.1px;fill:#666">var<tspan x="419.733" y="46.131">i</tspan>ab<tspan x="431.788" y="46.131">l</tspan>e</text><g><path d="M-38.5,58.5L38.5,58.5" style="fill:none;fill-rule:nonzero;stroke:#cbcbcb;stroke-width:1px" transform="matrix(0,-0.674994,0.674994,0,80.9233,61.9934)"/></g><g><path d="M260.5,58.5L337.5,58.5" style="fill:none;fill-rule:nonzero;stroke:#cbcbcb;stroke-width:1px" transform="matrix(0,-0.674994,0.674994,0,282.747,263.817)"/></g><g><path d="M559.5,58.5L636.5,58.5" style="fill:none;fill-rule:nonzero;stroke:#cbcbcb;stroke-width:1px" transform="matrix(0,-0.674994,0.674994,0,484.57,465.64)"/></g></g></g><g><clipPath id="_clip2"><rect width="404.997" height="39.825" x="119.735" y="210.83"/></clipPath><g clip-path="url(#_clip2)"><g><path d="M-2.5,2.5L2.5,2.5" style="fill:none;fill-rule:nonzero;stroke:#f5f5f5;stroke-width:1px;stroke-linecap:butt" transform="matrix(0,0.674994,-0.674994,0,122.098,213.192)"/></g><g><path d="M47.5,2.5L52.5,2.5" style="fill:none;fill-rule:nonzero;stroke:#f5f5f5;stroke-width:1px;stroke-linecap:butt" transform="matrix(0,0.674994,-0.674994,0,155.848,179.442)"/></g><g><path d="M97.5,2.5L102.5,2.5" style="fill:none;fill-rule:nonzero;stroke:#f5f5f5;stroke-width:1px;stroke-linecap:butt" transform="matrix(0,0.674994,-0.674994,0,189.597,145.693)"/></g><g><path d="M147.5,2.5L152.5,2.5" style="fill:none;fill-rule:nonzero;stroke:#f5f5f5;stroke-width:1px;stroke-linecap:butt" transform="matrix(0,0.674994,-0.674994,0,223.347,111.943)"/></g><g><path d="M196.5,2.5L201.5,2.5" style="fill:none;fill-rule:nonzero;stroke:#f5f5f5;stroke-width:1px;stroke-linecap:butt" transform="matrix(0,0.674994,-0.674994,0,256.422,78.8682)"/></g><g><path d="M246.5,2.5L251.5,2.5" style="fill:none;fill-rule:nonzero;stroke:#f5f5f5;stroke-width:1px;stroke-linecap:butt" transform="matrix(0,0.674994,-0.674994,0,290.172,45.1185)"/></g><g><path d="M296.5,2.5L301.5,2.5" style="fill:none;fill-rule:nonzero;stroke:#f5f5f5;stroke-width:1px;stroke-linecap:butt" transform="matrix(0,0.674994,-0.674994,0,323.921,11.3688)"/></g><text x="121.36" y="225.679" style="font-family:'LucidaGrande','Lucida Grande',sans-serif;font-weight:500;font-size:8.1px;fill:#666">0</text><text x="151.734" y="225.679" style="font-family:'LucidaGrande','Lucida Grande',sans-serif;font-weight:500;font-size:8.1px;fill:#666">5</text><text x="183.058" y="225.679" style="font-family:'LucidaGrande','Lucida Grande',sans-serif;font-weight:500;font-size:8.1px;fill:#666">1<tspan x="187.91" y="225.679">0</tspan></text><text x="216.808" y="225.679" style="font-family:'LucidaGrande','Lucida Grande',sans-serif;font-weight:500;font-size:8.1px;fill:#666">1<tspan x="221.66" y="225.679">5</tspan></text><text x="249.883" y="225.679" style="font-family:'LucidaGrande','Lucida Grande',sans-serif;font-weight:500;font-size:8.1px;fill:#666">2<tspan x="254.734" y="225.679">0</tspan></text><text x="283.633" y="225.679" style="font-family:'LucidaGrande','Lucida Grande',sans-serif;font-weight:500;font-size:8.1px;fill:#666">2<tspan x="288.484" y="225.679">5</tspan></text><text x="311.307" y="225.679" style="font-family:'LucidaGrande','Lucida Grande',sans-serif;font-weight:500;font-size:8.1px;fill:#666">3<tspan x="316.159" y="225.679">0</tspan></text><text x="194.006" y="242.554" style="font-family:'LucidaGrande','Lucida Grande',sans-serif;font-weight:500;font-size:8.1px;fill:#333">C<tspan x="199.366 204.097 211.414 216.268 221.05 223.835 228.103 230.421 235.299 237.395 244.713" y="242.554 242.554 242.554 242.554 242.554 242.554 242.554 242.554 242.554 242.554 242.554">ompute Time</tspan></text><text x="323.183" y="225.679" style="font-family:'LucidaGrande','Lucida Grande',sans-serif;font-weight:500;font-size:8.1px;fill:#666">0</text><text x="353.558" y="225.679" style="font-family:'LucidaGrande','Lucida Grande',sans-serif;font-weight:500;font-size:8.1px;fill:#666">5</text><text x="384.882" y="225.679" style="font-family:'LucidaGrande','Lucida Grande',sans-serif;font-weight:500;font-size:8.1px;fill:#666">1<tspan x="389.733" y="225.679">0</tspan></text><text x="418.631" y="225.679" style="font-family:'LucidaGrande','Lucida Grande',sans-serif;font-weight:500;font-size:8.1px;fill:#666">1<tspan x="423.483" y="225.679">5</tspan></text><text x="451.706" y="225.679" style="font-family:'LucidaGrande','Lucida Grande',sans-serif;font-weight:500;font-size:8.1px;fill:#666">2<tspan x="456.558" y="225.679">0</tspan></text><text x="485.456" y="225.679" style="font-family:'LucidaGrande','Lucida Grande',sans-serif;font-weight:500;font-size:8.1px;fill:#666">2<tspan x="490.307" y="225.679">5</tspan></text><text x="513.131" y="225.679" style="font-family:'LucidaGrande','Lucida Grande',sans-serif;font-weight:500;font-size:8.1px;fill:#666">3<tspan x="517.982" y="225.679">0</tspan></text><text x="395.829" y="242.554" style="font-family:'LucidaGrande','Lucida Grande',sans-serif;font-weight:500;font-size:8.1px;fill:#333">C<tspan x="401.189 405.92 413.237 418.091 422.873 425.658 429.926 432.245 437.122 439.219 446.536" y="242.554 242.554 242.554 242.554 242.554 242.554 242.554 242.554 242.554 242.554 242.554">ompute Time</tspan></text><g><path d="M-2.5,2.5L2.5,2.5" style="fill:none;fill-rule:nonzero;stroke:#f5f5f5;stroke-width:1px;stroke-linecap:butt" transform="matrix(0,0.674994,-0.674994,0,323.921,213.192)"/></g><g><path d="M47.5,2.5L52.5,2.5" style="fill:none;fill-rule:nonzero;stroke:#f5f5f5;stroke-width:1px;stroke-linecap:butt" transform="matrix(0,0.674994,-0.674994,0,357.671,179.442)"/></g><g><path d="M97.5,2.5L102.5,2.5" style="fill:none;fill-rule:nonzero;stroke:#f5f5f5;stroke-width:1px;stroke-linecap:butt" transform="matrix(0,0.674994,-0.674994,0,391.421,145.693)"/></g><g><path d="M147.5,2.5L152.5,2.5" style="fill:none;fill-rule:nonzero;stroke:#f5f5f5;stroke-width:1px;stroke-linecap:butt" transform="matrix(0,0.674994,-0.674994,0,425.17,111.943)"/></g><g><path d="M196.5,2.5L201.5,2.5" style="fill:none;fill-rule:nonzero;stroke:#f5f5f5;stroke-width:1px;stroke-linecap:butt" transform="matrix(0,0.674994,-0.674994,0,458.245,78.8682)"/></g><g><path d="M246.5,2.5L251.5,2.5" style="fill:none;fill-rule:nonzero;stroke:#f5f5f5;stroke-width:1px;stroke-linecap:butt" transform="matrix(0,0.674994,-0.674994,0,491.995,45.1185)"/></g><g><path d="M296.5,2.5L301.5,2.5" style="fill:none;fill-rule:nonzero;stroke:#f5f5f5;stroke-width:1px;stroke-linecap:butt" transform="matrix(0,0.674994,-0.674994,0,525.745,11.3688)"/></g><g><path d="M-38.5,58.5L38.5,58.5" style="fill:none;fill-rule:nonzero;stroke:#cbcbcb;stroke-width:1px" transform="matrix(0,-0.674994,0.674994,0,80.9233,223.992)"/></g><g><path d="M260.5,58.5L337.5,58.5" style="fill:none;fill-rule:nonzero;stroke:#cbcbcb;stroke-width:1px" transform="matrix(0,-0.674994,0.674994,0,282.747,425.815)"/></g><g><path d="M559.5,58.5L636.5,58.5" style="fill:none;fill-rule:nonzero;stroke:#cbcbcb;stroke-width:1px" transform="matrix(0,-0.674994,0.674994,0,484.57,627.639)"/></g></g></g><text x="5.661" y="59.631" style="font-family:'LucidaGrande','Lucida Grande',sans-serif;font-weight:500;font-size:8.1px;fill:#666">Me<tspan x="17.257 22.408 24.802" y="59.631 59.631 59.631">dia</tspan>n</text><g><text x="54.261" y="59.631" style="font-family:'LucidaGrande','Lucida Grande',sans-serif;font-weight:500;font-size:8.1px;fill:#666">Seg<tspan x="68.08" y="59.631">m</tspan>en<tspan x="85.074" y="59.631">t</tspan></text><text x="90.036" y="59.631" style="font-family:'LucidaGrande','Lucida Grande',sans-serif;font-weight:500;font-size:8.1px;fill:#666">Tre<tspan x="102.877" y="59.631">e</tspan></text><text x="54.261" y="73.131" style="font-family:'LucidaGrande','Lucida Grande',sans-serif;font-weight:500;font-size:8.1px;fill:#666">Na<tspan x="64.887 67.313 71.589" y="73.131 73.131 73.131">ïve</tspan></text><text x="54.261" y="86.631" style="font-family:'LucidaGrande','Lucida Grande',sans-serif;font-weight:500;font-size:8.1px;fill:#666">W<tspan x="61.322 63.796 68.955 74.185 79.292" y="86.631 86.631 86.631 86.631 86.631">indow</tspan></text><text x="87.378" y="86.631" style="font-family:'LucidaGrande','Lucida Grande',sans-serif;font-weight:500;font-size:8.1px;fill:#666">A<tspan x="93.098 97.708" y="86.631 86.631">PI</tspan></text></g><text x="5.661" y="100.131" style="font-family:'LucidaGrande','Lucida Grande',sans-serif;font-weight:500;font-size:8.1px;fill:#666">IQ<tspan x="14.173" y="100.131">R</tspan></text><g><text x="54.261" y="100.131" style="font-family:'LucidaGrande','Lucida Grande',sans-serif;font-weight:500;font-size:8.1px;fill:#666">Seg<tspan x="68.08" y="100.131">m</tspan>en<tspan x="85.074" y="100.131">t</tspan></text><text x="90.036" y="100.131" style="font-family:'LucidaGrande','Lucida Grande',sans-serif;font-weight:500;font-size:8.1px;fill:#666">Tre<tspan x="102.877" y="100.131">e</tspan></text><text x="54.261" y="113.63" style="font-family:'LucidaGrande','Lucida Grande',sans-serif;font-weight:500;font-size:8.1px;fill:#666">Na<tspan x="64.887 67.313 71.589" y="113.63 113.63 113.63">ïve</tspan></text><text x="54.261" y="127.13" style="font-family:'LucidaGrande','Lucida Grande',sans-serif;font-weight:500;font-size:8.1px;fill:#666">W<tspan x="61.322 63.796 68.955 74.185 79.292" y="127.13 127.13 127.13 127.13 127.13">indow</tspan></text><text x="87.378" y="127.13" style="font-family:'LucidaGrande','Lucida Grande',sans-serif;font-weight:500;font-size:8.1px;fill:#666">A<tspan x="93.098 97.708" y="127.13 127.13">PI</tspan></text></g><text x="5.661" y="140.63" style="font-family:'LucidaGrande','Lucida Grande',sans-serif;font-weight:500;font-size:8.1px;fill:#666">MA<tspan x="18.412" y="140.63">D</tspan></text><g><text x="54.261" y="140.63" style="font-family:'LucidaGrande','Lucida Grande',sans-serif;font-weight:500;font-size:8.1px;fill:#666">Seg<tspan x="68.08" y="140.63">m</tspan>en<tspan x="85.074" y="140.63">t</tspan></text><text x="90.036" y="140.63" style="font-family:'LucidaGrande','Lucida Grande',sans-serif;font-weight:500;font-size:8.1px;fill:#666">Tre<tspan x="102.877" y="140.63">e</tspan></text><text x="54.261" y="154.13" style="font-family:'LucidaGrande','Lucida Grande',sans-serif;font-weight:500;font-size:8.1px;fill:#666">Na<tspan x="64.887 67.313 71.589" y="154.13 154.13 154.13">ïve</tspan></text><text x="54.261" y="167.63" style="font-family:'LucidaGrande','Lucida Grande',sans-serif;font-weight:500;font-size:8.1px;fill:#666">W<tspan x="61.322 63.796 68.955 74.185 79.292" y="167.63 167.63 167.63 167.63 167.63">indow</tspan></text><text x="87.378" y="167.63" style="font-family:'LucidaGrande','Lucida Grande',sans-serif;font-weight:500;font-size:8.1px;fill:#666">A<tspan x="93.098 97.708" y="167.63 167.63">PI</tspan></text></g><text x="5.661" y="181.13" style="font-family:'LucidaGrande','Lucida Grande',sans-serif;font-weight:500;font-size:8.1px;fill:#666">Mo<tspan x="17.511" y="181.13">d</tspan>e</text><g><text x="54.261" y="181.13" style="font-family:'LucidaGrande','Lucida Grande',sans-serif;font-weight:500;font-size:8.1px;fill:#666">Seg<tspan x="68.08" y="181.13">m</tspan>en<tspan x="85.074" y="181.13">t</tspan></text><text x="90.036" y="181.13" style="font-family:'LucidaGrande','Lucida Grande',sans-serif;font-weight:500;font-size:8.1px;fill:#666">Tre<tspan x="102.877" y="181.13">e</tspan></text><text x="54.261" y="194.63" style="font-family:'LucidaGrande','Lucida Grande',sans-serif;font-weight:500;font-size:8.1px;fill:#666">Na<tspan x="64.887 67.313 71.589" y="194.63 194.63 194.63">ïve</tspan></text><text x="54.261" y="208.13" style="font-family:'LucidaGrande','Lucida Grande',sans-serif;font-weight:500;font-size:8.1px;fill:#666">W<tspan x="61.322 63.796 68.955 74.185 79.292" y="208.13 208.13 208.13 208.13 208.13">indow</tspan></text><text x="87.378" y="208.13" style="font-family:'LucidaGrande','Lucida Grande',sans-serif;font-weight:500;font-size:8.1px;fill:#666">A<tspan x="93.098 97.708" y="208.13 208.13">PI</tspan></text></g><g><path d="M0,0L176,0" style="fill:none;fill-rule:nonzero;stroke:#cbcbcb;stroke-width:1px" transform="matrix(-0.674994,0,0,-0.674994,120.41,49.506)"/></g><g><path d="M0,60L176,60" style="fill:none;fill-rule:nonzero;stroke:#cbcbcb;stroke-width:1px" transform="matrix(-0.674994,0,0,-0.674994,120.41,130.505)"/></g><g><path d="M0,120L176,120" style="fill:none;fill-rule:nonzero;stroke:#cbcbcb;stroke-width:1px" transform="matrix(-0.674994,0,0,-0.674994,120.41,211.505)"/></g><g><path d="M0,180L176,180" style="fill:none;fill-rule:nonzero;stroke:#cbcbcb;stroke-width:1px" transform="matrix(-0.674994,0,0,-0.674994,120.41,292.504)"/></g><g><path d="M0,240L176,240" style="fill:none;fill-rule:nonzero;stroke:#cbcbcb;stroke-width:1px" transform="matrix(-0.674994,0,0,-0.674994,120.41,373.503)"/></g><g transform="matrix(0.674994,0,0,-0.674994,120.41,211.505)"><rect width="598" height="240" x="0" y="0" style="fill:#fff"/></g><g transform="matrix(0.674994,0,0,-0.674994,120.41,240.529)"><rect width="598" height="197" x="0" y="43" style="fill:#fff"/></g><g transform="matrix(0.674994,0,0,-0.674994,120.41,211.505)"><rect width="598" height="240" x="0" y="0" style="fill:#fff"/></g><g><clipPath id="_clip3"><rect width="201.823" height="161.999" x="120.41" y="49.506"/></clipPath><g clip-path="url(#_clip3)"><g transform="matrix(0.674994,0,0,-0.674994,120.41,211.505)"><rect width="299" height="240" x="0" y="0" style="fill:#fff"/></g><g><path d="M-69.5,119.5L169.5,119.5" style="fill:none;fill-rule:nonzero;stroke:#f2f2f2;stroke-width:1px" transform="matrix(0,-0.674994,0.674994,0,73.4984,163.918)"/></g><g><path d="M-19.5,119.5L219.5,119.5" style="fill:none;fill-rule:nonzero;stroke:#f2f2f2;stroke-width:1px" transform="matrix(0,-0.674994,0.674994,0,107.248,197.667)"/></g><g><path d="M30.5,119.5L269.5,119.5" style="fill:none;fill-rule:nonzero;stroke:#f2f2f2;stroke-width:1px" transform="matrix(0,-0.674994,0.674994,0,140.998,231.417)"/></g><g><path d="M79.5,119.5L318.5,119.5" style="fill:none;fill-rule:nonzero;stroke:#f2f2f2;stroke-width:1px" transform="matrix(0,-0.674994,0.674994,0,174.073,264.492)"/></g><g><path d="M129.5,119.5L368.5,119.5" style="fill:none;fill-rule:nonzero;stroke:#f2f2f2;stroke-width:1px" transform="matrix(0,-0.674994,0.674994,0,207.822,298.241)"/></g><g><path d="M179.5,119.5L418.5,119.5" style="fill:none;fill-rule:nonzero;stroke:#f2f2f2;stroke-width:1px" transform="matrix(0,-0.674994,0.674994,0,241.572,331.991)"/></g></g></g><g><clipPath id="_clip4"><rect width="201.823" height="161.999" x="322.234" y="49.506"/></clipPath><g clip-path="url(#_clip4)"><g transform="matrix(0.674994,0,0,-0.674994,120.41,211.505)"><rect width="299" height="240" x="299" y="0" style="fill:#fff"/></g><g><path d="M229.5,119.5L468.5,119.5" style="fill:none;fill-rule:nonzero;stroke:#f2f2f2;stroke-width:1px" transform="matrix(0,-0.674994,0.674994,0,275.322,365.741)"/></g><g><path d="M279.5,119.5L518.5,119.5" style="fill:none;fill-rule:nonzero;stroke:#f2f2f2;stroke-width:1px" transform="matrix(0,-0.674994,0.674994,0,309.071,399.491)"/></g><g><path d="M329.5,119.5L568.5,119.5" style="fill:none;fill-rule:nonzero;stroke:#f2f2f2;stroke-width:1px" transform="matrix(0,-0.674994,0.674994,0,342.821,433.24)"/></g><g><path d="M378.5,119.5L617.5,119.5" style="fill:none;fill-rule:nonzero;stroke:#f2f2f2;stroke-width:1px" transform="matrix(0,-0.674994,0.674994,0,375.896,466.315)"/></g><g><path d="M428.5,119.5L667.5,119.5" style="fill:none;fill-rule:nonzero;stroke:#f2f2f2;stroke-width:1px" transform="matrix(0,-0.674994,0.674994,0,409.646,500.065)"/></g><g><path d="M478.5,119.5L717.5,119.5" style="fill:none;fill-rule:nonzero;stroke:#f2f2f2;stroke-width:1px" transform="matrix(0,-0.674994,0.674994,0,443.395,533.814)"/></g></g></g><g transform="matrix(0,-0.674994,0.674994,0,39.7486,130.168)"><clipPath id="_clip5"><rect width="240" height="299" x="-120.5" y="119.5"/></clipPath><g clip-path="url(#_clip5)"><path d="M-119.5,119.5L119.5,119.5" style="fill:none;fill-rule:nonzero;stroke:#cbcbcb;stroke-width:1px;stroke-dasharray:1,2"/></g></g><g transform="matrix(0,-0.674994,0.674994,0,241.572,331.991)"><clipPath id="_clip6"><rect width="240" height="299" x="178.5" y="119.5"/></clipPath><g clip-path="url(#_clip6)"><path d="M179.5,119.5L418.5,119.5" style="fill:none;fill-rule:nonzero;stroke:#cbcbcb;stroke-width:1px;stroke-dasharray:1,2"/></g></g><g transform="matrix(0.674994,0,0,-0.674994,120.41,117.68)"><rect width="15" height="15" x="0" y="43" style="fill:#59a14f"/></g><g transform="matrix(0.674994,0,0,-0.674994,120.41,90.6806)"><rect width="142" height="15" x="0" y="23" style="fill:#4e79a7"/></g><g transform="matrix(0.674994,0,0,-0.674994,120.41,63.6808)"><rect width="163" height="15" x="0" y="3" style="fill:#f28e2b"/></g><g transform="matrix(0.674994,0,0,-0.674994,120.41,198.68)"><rect width="43" height="15" x="0" y="103" style="fill:#59a14f"/></g><g transform="matrix(0.674994,0,0,-0.674994,120.41,171.68)"><rect width="212" height="15" x="0" y="83" style="fill:#4e79a7"/></g><g transform="matrix(0.674994,0,0,-0.674994,120.41,144.68)"><rect width="231" height="15" x="0" y="63" style="fill:#f28e2b"/></g><g transform="matrix(0.674994,0,0,-0.674994,120.41,279.679)"><rect width="51" height="15" x="0" y="163" style="fill:#59a14f"/></g><g transform="matrix(0.674994,0,0,-0.674994,120.41,252.679)"><rect width="241" height="15" x="0" y="143" style="fill:#4e79a7"/></g><g transform="matrix(0.674994,0,0,-0.674994,120.41,225.679)"><rect width="255" height="15" x="0" y="123" style="fill:#f28e2b"/></g><g><clipPath id="_clip7"><rect width="201.823" height="40.5" x="120.41" y="171.005"/></clipPath><g clip-path="url(#_clip7)"><g transform="matrix(0.674994,0,0,-0.674994,120.41,360.678)"><rect width="20" height="15" x="0" y="223" style="fill:#59a14f"/></g><g transform="matrix(0.674994,0,0,-0.674994,120.41,333.679)"><rect width="1124" height="15" x="0" y="203" style="fill:#4e79a7"/></g><g transform="matrix(0.674994,0,0,-0.674994,120.41,306.679)"><rect width="1188" height="15" x="0" y="183" style="fill:#f28e2b"/></g></g></g><g transform="matrix(0.674994,0,0,-0.674994,120.41,117.68)"><rect width="64" height="15" x="299" y="43" style="fill:#59a14f"/></g><g transform="matrix(0.674994,0,0,-0.674994,120.41,90.6806)"><rect width="147" height="15" x="299" y="23" style="fill:#4e79a7"/></g><g transform="matrix(0.674994,0,0,-0.674994,120.41,63.6808)"><rect width="168" height="15" x="299" y="3" style="fill:#f28e2b"/></g><g transform="matrix(0.674994,0,0,-0.674994,120.41,198.68)"><rect width="139" height="15" x="299" y="103" style="fill:#59a14f"/></g><g transform="matrix(0.674994,0,0,-0.674994,120.41,171.68)"><rect width="217" height="15" x="299" y="83" style="fill:#4e79a7"/></g><g transform="matrix(0.674994,0,0,-0.674994,120.41,144.68)"><rect width="237" height="15" x="299" y="63" style="fill:#f28e2b"/></g><g transform="matrix(0.674994,0,0,-0.674994,120.41,279.679)"><rect width="173" height="15" x="299" y="163" style="fill:#59a14f"/></g><g transform="matrix(0.674994,0,0,-0.674994,120.41,252.679)"><rect width="241" height="15" x="299" y="143" style="fill:#4e79a7"/></g><g transform="matrix(0.674994,0,0,-0.674994,120.41,225.679)"><rect width="264" height="15" x="299" y="123" style="fill:#f28e2b"/></g><g><clipPath id="_clip8"><rect width="201.823" height="40.5" x="322.234" y="171.005"/></clipPath><g clip-path="url(#_clip8)"><g transform="matrix(0.674994,0,0,-0.674994,120.41,360.678)"><rect width="68" height="15" x="299" y="223" style="fill:#59a14f"/></g><g transform="matrix(0.674994,0,0,-0.674994,120.41,333.679)"><rect width="1125" height="15" x="299" y="203" style="fill:#4e79a7"/></g><g transform="matrix(0.674994,0,0,-0.674994,120.41,306.679)"><rect width="1201" height="15" x="299" y="183" style="fill:#f28e2b"/></g></g></g><g><text x="233.135" y="59.631" style="font-family:'LucidaGrande','Lucida Grande',sans-serif;font-weight:500;font-size:8.1px">1<tspan x="238.03 242.926 245.263" y="59.631 59.631 59.631">6.4</tspan></text><text x="218.96" y="73.131" style="font-family:'LucidaGrande','Lucida Grande',sans-serif;font-weight:500;font-size:8.1px">1<tspan x="223.856 228.751 231.088" y="73.131 73.131 73.131">4.3</tspan></text></g><text x="133.235" y="86.631" style="font-family:'LucidaGrande','Lucida Grande',sans-serif;font-weight:500;font-size:8.1px">1<tspan x="138.153 140.513" y="86.631 86.631">.5</tspan></text><g><text x="279.034" y="100.131" style="font-family:'LucidaGrande','Lucida Grande',sans-serif;font-weight:500;font-size:8.1px">2<tspan x="283.93 288.826 291.163" y="100.131 100.131 100.131">3.2</tspan></text><text x="266.209" y="113.63" style="font-family:'LucidaGrande','Lucida Grande',sans-serif;font-weight:500;font-size:8.1px">2<tspan x="271.105 276.001 278.338" y="113.63 113.63 113.63">1.3</tspan></text></g><text x="152.135" y="127.13" style="font-family:'LucidaGrande','Lucida Grande',sans-serif;font-weight:500;font-size:8.1px">4<tspan x="157.053 159.412" y="127.13 127.13">.4</tspan></text><g><text x="295.234" y="140.63" style="font-family:'LucidaGrande','Lucida Grande',sans-serif;font-weight:500;font-size:8.1px">2<tspan x="300.13 305.026 307.363" y="140.63 140.63 140.63">5.6</tspan></text><text x="285.784" y="154.13" style="font-family:'LucidaGrande','Lucida Grande',sans-serif;font-weight:500;font-size:8.1px">2<tspan x="290.68 295.576 297.913" y="154.13 154.13 154.13">4.2</tspan></text></g><text x="157.535" y="167.63" style="font-family:'LucidaGrande','Lucida Grande',sans-serif;font-weight:500;font-size:8.1px">5<tspan x="162.453 164.812" y="167.63 167.63">.2</tspan></text><g><text x="299.959" y="181.13" style="font-family:'LucidaGrande','Lucida Grande',sans-serif;font-weight:500;font-size:8.1px">1<tspan x="304.844 309.729 314.613 316.939" y="181.13 181.13 181.13 181.13">19.2</tspan></text><text x="299.959" y="194.63" style="font-family:'LucidaGrande','Lucida Grande',sans-serif;font-weight:500;font-size:8.1px">1<tspan x="304.844 309.729 314.613 316.939" y="194.63 194.63 194.63 194.63">12.8</tspan></text></g><text x="136.61" y="208.13" style="font-family:'LucidaGrande','Lucida Grande',sans-serif;font-weight:500;font-size:8.1px">2<tspan x="141.528 143.888" y="208.13 208.13">.0</tspan></text><g><text x="438.333" y="59.631" style="font-family:'LucidaGrande','Lucida Grande',sans-serif;font-weight:500;font-size:8.1px">1<tspan x="443.229 448.125 450.462" y="59.631 59.631 59.631">6.8</tspan></text><text x="424.158" y="73.131" style="font-family:'LucidaGrande','Lucida Grande',sans-serif;font-weight:500;font-size:8.1px">1<tspan x="429.054 433.95 436.287" y="73.131 73.131 73.131">4.7</tspan></text></g><text x="368.133" y="86.631" style="font-family:'LucidaGrande','Lucida Grande',sans-serif;font-weight:500;font-size:8.1px">6<tspan x="373.052 375.411" y="86.631 86.631">.4</tspan></text><g><text x="484.907" y="100.131" style="font-family:'LucidaGrande','Lucida Grande',sans-serif;font-weight:500;font-size:8.1px">2<tspan x="489.803 494.699 497.036" y="100.131 100.131 100.131">3.8</tspan></text><text x="471.408" y="113.63" style="font-family:'LucidaGrande','Lucida Grande',sans-serif;font-weight:500;font-size:8.1px">2<tspan x="476.303 481.199 483.536" y="113.63 113.63 113.63">1.8</tspan></text></g><text x="418.758" y="127.13" style="font-family:'LucidaGrande','Lucida Grande',sans-serif;font-weight:500;font-size:8.1px">1<tspan x="423.654 428.55 430.887" y="127.13 127.13 127.13">3.9</tspan></text><g><text x="503.132" y="140.63" style="font-family:'LucidaGrande','Lucida Grande',sans-serif;font-weight:500;font-size:8.1px">2<tspan x="508.028 512.924 515.261" y="140.63 140.63 140.63">6.5</tspan></text><text x="487.607" y="154.13" style="font-family:'LucidaGrande','Lucida Grande',sans-serif;font-weight:500;font-size:8.1px">2<tspan x="492.503 497.399 499.736" y="154.13 154.13 154.13">4.1</tspan></text></g><text x="441.708" y="167.63" style="font-family:'LucidaGrande','Lucida Grande',sans-serif;font-weight:500;font-size:8.1px">1<tspan x="446.604 451.5 453.837" y="167.63 167.63 167.63">7.3</tspan></text><g><text x="501.782" y="181.13" style="font-family:'LucidaGrande','Lucida Grande',sans-serif;font-weight:500;font-size:8.1px">1<tspan x="506.667 511.552 516.437 518.763" y="181.13 181.13 181.13 181.13">20.5</tspan></text><text x="501.782" y="194.63" style="font-family:'LucidaGrande','Lucida Grande',sans-serif;font-weight:500;font-size:8.1px">1<tspan x="506.667 511.552 516.437 518.763" y="194.63 194.63 194.63 194.63">12.8</tspan></text></g><text x="370.833" y="208.13" style="font-family:'LucidaGrande','Lucida Grande',sans-serif;font-weight:500;font-size:8.1px">6<tspan x="375.751 378.111" y="208.13 208.13">.9</tspan></text><g><text x="4.311" y="12.381" style="font-family:'LucidaGrande','Lucida Grande',sans-serif;font-weight:500;font-size:13.5px;fill:#333">C<tspan x="13.537 21.715 34.203 42.585 50.848 55.783" y="12.381 12.381 12.381 12.381 12.381 12.381">ompute</tspan></text><text x="64.323" y="12.381" style="font-family:'LucidaGrande','Lucida Grande',sans-serif;font-weight:500;font-size:13.5px;fill:#333">T<tspan x="72.744 76.532 89.02" y="12.381 12.381 12.381">ime</tspan></text><text x="98.315" y="12.381" style="font-family:'LucidaGrande','Lucida Grande',sans-serif;font-weight:500;font-size:13.5px;fill:#333">b<tspan x="106.697" y="12.381">y</tspan></text><text x="116.561" y="12.381" style="font-family:'LucidaGrande','Lucida Grande',sans-serif;font-weight:500;font-size:13.5px;fill:#333">W<tspan x="127.995 131.782 140.045 148.427 156.605 166.892 170.679 178.942 187.245 191.402 195.176 207.664 216.046 219.834 227.24 239.729 247.135 255.398 260.332 267.673 272.607 276.395 284.572" y="12.381 12.381 12.381 12.381 12.381 12.381 12.381 12.381 12.381 12.381 12.381 12.381 12.381 12.381 12.381 12.381 12.381 12.381 12.381 12.381 12.381 12.381 12.381">indowing Implementation</tspan></text></g><g><clipPath id="_clip9"><rect width="201.823" height="161.999" x="120.41" y="49.506"/></clipPath><g clip-path="url(#_clip9)"><g><path d="M-120,120L120,120" style="fill:none;fill-rule:nonzero;stroke:#cbcbcb;stroke-width:1px" transform="matrix(0,0.674994,-0.674994,0,201.41,130.505)"/></g><g><path d="M179,120L419,120" style="fill:none;fill-rule:nonzero;stroke:#cbcbcb;stroke-width:1px" transform="matrix(0,0.674994,-0.674994,0,403.233,-71.318)"/></g><g><path d="M0,0L299,0" style="fill:none;fill-rule:nonzero;stroke:#cbcbcb;stroke-width:1px" transform="matrix(0.674994,0,0,-0.674994,120.41,49.506)"/></g><g><path d="M0,60L299,60" style="fill:none;fill-rule:nonzero;stroke:#cbcbcb;stroke-width:1px" transform="matrix(0.674994,0,0,-0.674994,120.41,130.505)"/></g><g><path d="M0,120L299,120" style="fill:none;fill-rule:nonzero;stroke:#cbcbcb;stroke-width:1px" transform="matrix(0.674994,0,0,-0.674994,120.41,211.505)"/></g><g><path d="M0,180L299,180" style="fill:none;fill-rule:nonzero;stroke:#cbcbcb;stroke-width:1px" transform="matrix(0.674994,0,0,-0.674994,120.41,292.504)"/></g><g><path d="M0,240L299,240" style="fill:none;fill-rule:nonzero;stroke:#cbcbcb;stroke-width:1px" transform="matrix(0.674994,0,0,-0.674994,120.41,373.503)"/></g></g></g><g><clipPath id="_clip10"><rect width="201.823" height="161.999" x="322.234" y="49.506"/></clipPath><g clip-path="url(#_clip10)"><g><path d="M179,120L419,120" style="fill:none;fill-rule:nonzero;stroke:#cbcbcb;stroke-width:1px" transform="matrix(0,0.674994,-0.674994,0,403.233,-71.318)"/></g><g><path d="M478,120L718,120" style="fill:none;fill-rule:nonzero;stroke:#cbcbcb;stroke-width:1px" transform="matrix(0,0.674994,-0.674994,0,605.056,-273.141)"/></g><g><path d="M0,0L598,0" style="fill:none;fill-rule:nonzero;stroke:#cbcbcb;stroke-width:1px" transform="matrix(0.674994,0,0,-0.674994,120.41,49.506)"/></g><g><path d="M0,60L598,60" style="fill:none;fill-rule:nonzero;stroke:#cbcbcb;stroke-width:1px" transform="matrix(0.674994,0,0,-0.674994,120.41,130.505)"/></g><g><path d="M0,120L598,120" style="fill:none;fill-rule:nonzero;stroke:#cbcbcb;stroke-width:1px" transform="matrix(0.674994,0,0,-0.674994,120.41,211.505)"/></g><g><path d="M0,180L598,180" style="fill:none;fill-rule:nonzero;stroke:#cbcbcb;stroke-width:1px" transform="matrix(0.674994,0,0,-0.674994,120.41,292.504)"/></g><g><path d="M0,240L598,240" style="fill:none;fill-rule:nonzero;stroke:#cbcbcb;stroke-width:1px" transform="matrix(0.674994,0,0,-0.674994,120.41,373.503)"/></g></g></g></g></svg>