<?xml version="1.0" encoding="UTF-8" standalone="no"?>
<!DOCTYPE svg PUBLIC "-//W3C//DTD SVG 1.1//EN" "http://www.w3.org/Graphics/SVG/1.1/DTD/svg11.dtd">
<svg width="100%" height="100%" viewBox="0 0 1082 500" version="1.1" xmlns="http://www.w3.org/2000/svg" xmlns:xlink="http://www.w3.org/1999/xlink" xml:space="preserve" xmlns:serif="http://www.serif.com/" style="fill-rule:evenodd;clip-rule:evenodd;stroke-linecap:round;stroke-linejoin:round;stroke-miterlimit:1.5;">
    <g id="Data-0" serif:id="Data 0" transform="matrix(1.5,0,0,1.5,-56.488,-58.75)">
        <g transform="matrix(0.702899,0,0,0.5,-4.87681,45.5)">
            <g transform="matrix(0.633028,0,0,1,22.3853,0)">
                <rect x="61" y="83" width="218" height="95" style="fill:rgb(217,217,217);stroke:black;stroke-width:1.41px;"/>
            </g>
            <g transform="matrix(1.42268,0,0,2,-25.7835,-83)">
                <g transform="matrix(26,0,0,26,102.27,116.056)">
                    <path d="M0.274,-0.719C0.344,-0.719 0.398,-0.694 0.437,-0.645C0.484,-0.586 0.507,-0.489 0.507,-0.353C0.507,-0.218 0.483,-0.12 0.437,-0.061C0.398,-0.012 0.344,0.012 0.274,0.012C0.205,0.012 0.149,-0.015 0.106,-0.068C0.063,-0.122 0.042,-0.217 0.042,-0.354C0.042,-0.489 0.065,-0.586 0.112,-0.646C0.151,-0.694 0.205,-0.719 0.274,-0.719ZM0.274,-0.605C0.258,-0.605 0.243,-0.6 0.23,-0.589C0.217,-0.579 0.207,-0.56 0.2,-0.532C0.19,-0.497 0.186,-0.437 0.186,-0.353C0.186,-0.269 0.19,-0.211 0.198,-0.18C0.207,-0.149 0.217,-0.128 0.23,-0.117C0.243,-0.107 0.258,-0.102 0.274,-0.102C0.291,-0.102 0.306,-0.107 0.319,-0.117C0.332,-0.128 0.342,-0.147 0.349,-0.174C0.359,-0.209 0.363,-0.269 0.363,-0.353C0.363,-0.437 0.359,-0.495 0.351,-0.526C0.342,-0.558 0.331,-0.579 0.319,-0.589C0.306,-0.6 0.291,-0.605 0.274,-0.605Z" style="fill-rule:nonzero;"/>
                </g>
            </g>
        </g>
        <g transform="matrix(0.5,0,0,0.5,104.5,45.5)">
            <g transform="matrix(0.633028,0,0,1,22.3853,0)">
                <rect x="61" y="83" width="218" height="95" style="fill:rgb(0,255,5);stroke:black;stroke-width:1.59px;"/>
            </g>
            <g transform="matrix(2,0,0,2,-61,-83)">
                <g transform="matrix(26,0,0,26,88.27,116.056)">
                    <path d="M0.274,-0.719C0.344,-0.719 0.398,-0.694 0.437,-0.645C0.484,-0.586 0.507,-0.489 0.507,-0.353C0.507,-0.218 0.483,-0.12 0.437,-0.061C0.398,-0.012 0.344,0.012 0.274,0.012C0.205,0.012 0.149,-0.015 0.106,-0.068C0.063,-0.122 0.042,-0.217 0.042,-0.354C0.042,-0.489 0.065,-0.586 0.112,-0.646C0.151,-0.694 0.205,-0.719 0.274,-0.719ZM0.274,-0.605C0.258,-0.605 0.243,-0.6 0.23,-0.589C0.217,-0.579 0.207,-0.56 0.2,-0.532C0.19,-0.497 0.186,-0.437 0.186,-0.353C0.186,-0.269 0.19,-0.211 0.198,-0.18C0.207,-0.149 0.217,-0.128 0.23,-0.117C0.243,-0.107 0.258,-0.102 0.274,-0.102C0.291,-0.102 0.306,-0.107 0.319,-0.117C0.332,-0.128 0.342,-0.147 0.349,-0.174C0.359,-0.209 0.363,-0.269 0.363,-0.353C0.363,-0.437 0.359,-0.495 0.351,-0.526C0.342,-0.558 0.331,-0.579 0.319,-0.589C0.306,-0.6 0.291,-0.605 0.274,-0.605Z" style="fill-rule:nonzero;"/>
                </g>
            </g>
        </g>
        <g transform="matrix(0.5,0,0,0.5,173.5,45.5)">
            <g transform="matrix(0.633028,0,0,1,22.3853,0)">
                <rect x="61" y="83" width="218" height="95" style="fill:rgb(0,255,5);stroke:black;stroke-width:1.59px;"/>
            </g>
            <g transform="matrix(2,0,0,2,-61,-83)">
                <g transform="matrix(26,0,0,26,88.27,116.056)">
                    <path d="M0.394,-0L0.256,-0L0.256,-0.517C0.206,-0.47 0.147,-0.436 0.079,-0.413L0.079,-0.538C0.115,-0.549 0.154,-0.572 0.196,-0.604C0.238,-0.637 0.267,-0.675 0.282,-0.719L0.394,-0.719L0.394,-0Z" style="fill-rule:nonzero;"/>
                </g>
            </g>
        </g>
        <g transform="matrix(0.5,0,0,0.5,242.5,45.5)">
            <g transform="matrix(0.633028,0,0,1,22.3853,0)">
                <rect x="61" y="83" width="218" height="95" style="fill:white;stroke:black;stroke-width:1.59px;"/>
            </g>
            <g transform="matrix(2,0,0,2,-61,-83)">
                <g transform="matrix(26,0,0,26,88.27,116.056)">
                    <path d="M0.506,-0.127L0.506,-0L0.025,-0C0.03,-0.048 0.046,-0.094 0.072,-0.137C0.098,-0.18 0.149,-0.237 0.226,-0.309C0.288,-0.366 0.326,-0.405 0.34,-0.426C0.359,-0.454 0.368,-0.482 0.368,-0.51C0.368,-0.54 0.36,-0.564 0.344,-0.58C0.327,-0.597 0.304,-0.605 0.275,-0.605C0.247,-0.605 0.224,-0.596 0.207,-0.579C0.19,-0.562 0.18,-0.533 0.178,-0.493L0.041,-0.507C0.049,-0.582 0.075,-0.637 0.118,-0.669C0.161,-0.702 0.214,-0.719 0.279,-0.719C0.349,-0.719 0.405,-0.7 0.445,-0.662C0.486,-0.624 0.506,-0.576 0.506,-0.52C0.506,-0.487 0.5,-0.457 0.489,-0.427C0.477,-0.398 0.459,-0.368 0.434,-0.336C0.417,-0.315 0.387,-0.284 0.344,-0.245C0.3,-0.205 0.273,-0.179 0.261,-0.166C0.25,-0.153 0.241,-0.14 0.233,-0.127L0.506,-0.127Z" style="fill-rule:nonzero;"/>
                </g>
            </g>
        </g>
        <g transform="matrix(0.5,0,0,0.5,311.5,45.5)">
            <g transform="matrix(0.633028,0,0,1,22.3853,0)">
                <rect x="61" y="83" width="218" height="95" style="fill:white;stroke:black;stroke-width:1.59px;"/>
            </g>
            <g transform="matrix(2,0,0,2,-61,-83)">
                <g transform="matrix(26,0,0,26,88.27,116.056)">
                    <path d="M0.274,-0.719C0.344,-0.719 0.398,-0.694 0.437,-0.645C0.484,-0.586 0.507,-0.489 0.507,-0.353C0.507,-0.218 0.483,-0.12 0.437,-0.061C0.398,-0.012 0.344,0.012 0.274,0.012C0.205,0.012 0.149,-0.015 0.106,-0.068C0.063,-0.122 0.042,-0.217 0.042,-0.354C0.042,-0.489 0.065,-0.586 0.112,-0.646C0.151,-0.694 0.205,-0.719 0.274,-0.719ZM0.274,-0.605C0.258,-0.605 0.243,-0.6 0.23,-0.589C0.217,-0.579 0.207,-0.56 0.2,-0.532C0.19,-0.497 0.186,-0.437 0.186,-0.353C0.186,-0.269 0.19,-0.211 0.198,-0.18C0.207,-0.149 0.217,-0.128 0.23,-0.117C0.243,-0.107 0.258,-0.102 0.274,-0.102C0.291,-0.102 0.306,-0.107 0.319,-0.117C0.332,-0.128 0.342,-0.147 0.349,-0.174C0.359,-0.209 0.363,-0.269 0.363,-0.353C0.363,-0.437 0.359,-0.495 0.351,-0.526C0.342,-0.558 0.331,-0.579 0.319,-0.589C0.306,-0.6 0.291,-0.605 0.274,-0.605Z" style="fill-rule:nonzero;"/>
                </g>
            </g>
        </g>
        <g transform="matrix(1,0,0,1,350,4)">
            <g transform="matrix(0.316514,0,0,0.5,41.6927,41.5)">
                <rect x="61" y="83" width="218" height="95" style="fill:white;stroke:black;stroke-width:1.59px;"/>
            </g>
            <g transform="matrix(26,0,0,26,88.27,116.056)">
                <path d="M0.394,-0L0.256,-0L0.256,-0.517C0.206,-0.47 0.147,-0.436 0.079,-0.413L0.079,-0.538C0.115,-0.549 0.154,-0.572 0.196,-0.604C0.238,-0.637 0.267,-0.675 0.282,-0.719L0.394,-0.719L0.394,-0Z" style="fill-rule:nonzero;"/>
            </g>
        </g>
        <g transform="matrix(1,0,0,1,419,4)">
            <g transform="matrix(0.316514,0,0,0.5,41.6927,41.5)">
                <rect x="61" y="83" width="218" height="95" style="fill:white;stroke:black;stroke-width:1.59px;"/>
            </g>
            <g transform="matrix(26,0,0,26,88.27,116.056)">
                <path d="M0.506,-0.127L0.506,-0L0.025,-0C0.03,-0.048 0.046,-0.094 0.072,-0.137C0.098,-0.18 0.149,-0.237 0.226,-0.309C0.288,-0.366 0.326,-0.405 0.34,-0.426C0.359,-0.454 0.368,-0.482 0.368,-0.51C0.368,-0.54 0.36,-0.564 0.344,-0.58C0.327,-0.597 0.304,-0.605 0.275,-0.605C0.247,-0.605 0.224,-0.596 0.207,-0.579C0.19,-0.562 0.18,-0.533 0.178,-0.493L0.041,-0.507C0.049,-0.582 0.075,-0.637 0.118,-0.669C0.161,-0.702 0.214,-0.719 0.279,-0.719C0.349,-0.719 0.405,-0.7 0.445,-0.662C0.486,-0.624 0.506,-0.576 0.506,-0.52C0.506,-0.487 0.5,-0.457 0.489,-0.427C0.477,-0.398 0.459,-0.368 0.434,-0.336C0.417,-0.315 0.387,-0.284 0.344,-0.245C0.3,-0.205 0.273,-0.179 0.261,-0.166C0.25,-0.153 0.241,-0.14 0.233,-0.127L0.506,-0.127Z" style="fill-rule:nonzero;"/>
            </g>
        </g>
    </g>
    <g id="Data-1" serif:id="Data 1" transform="matrix(1.5,0,0,1.5,-56.488,12.5)">
        <g transform="matrix(0.702899,0,0,0.5,-4.87681,45.5)">
            <g transform="matrix(0.633028,0,0,1,22.3853,0)">
                <rect x="61" y="83" width="218" height="95" style="fill:rgb(217,217,217);stroke:black;stroke-width:1.41px;"/>
            </g>
            <g transform="matrix(1.42268,0,0,2,-25.7835,-83)">
                <g transform="matrix(26,0,0,26,102.27,116.056)">
                    <path d="M0.394,-0L0.256,-0L0.256,-0.517C0.206,-0.47 0.147,-0.436 0.079,-0.413L0.079,-0.538C0.115,-0.549 0.154,-0.572 0.196,-0.604C0.238,-0.637 0.267,-0.675 0.282,-0.719L0.394,-0.719L0.394,-0Z" style="fill-rule:nonzero;"/>
                </g>
            </g>
        </g>
        <g transform="matrix(0.5,0,0,0.5,104.5,45.5)">
            <g transform="matrix(0.633028,0,0,1,22.3853,0)">
                <rect x="61" y="83" width="218" height="95" style="fill:rgb(0,255,5);stroke:black;stroke-width:1.59px;"/>
            </g>
            <g transform="matrix(2,0,0,2,-61,-83)">
                <g transform="matrix(26,0,0,26,88.27,116.056)">
                    <path d="M0.274,-0.719C0.344,-0.719 0.398,-0.694 0.437,-0.645C0.484,-0.586 0.507,-0.489 0.507,-0.353C0.507,-0.218 0.483,-0.12 0.437,-0.061C0.398,-0.012 0.344,0.012 0.274,0.012C0.205,0.012 0.149,-0.015 0.106,-0.068C0.063,-0.122 0.042,-0.217 0.042,-0.354C0.042,-0.489 0.065,-0.586 0.112,-0.646C0.151,-0.694 0.205,-0.719 0.274,-0.719ZM0.274,-0.605C0.258,-0.605 0.243,-0.6 0.23,-0.589C0.217,-0.579 0.207,-0.56 0.2,-0.532C0.19,-0.497 0.186,-0.437 0.186,-0.353C0.186,-0.269 0.19,-0.211 0.198,-0.18C0.207,-0.149 0.217,-0.128 0.23,-0.117C0.243,-0.107 0.258,-0.102 0.274,-0.102C0.291,-0.102 0.306,-0.107 0.319,-0.117C0.332,-0.128 0.342,-0.147 0.349,-0.174C0.359,-0.209 0.363,-0.269 0.363,-0.353C0.363,-0.437 0.359,-0.495 0.351,-0.526C0.342,-0.558 0.331,-0.579 0.319,-0.589C0.306,-0.6 0.291,-0.605 0.274,-0.605Z" style="fill-rule:nonzero;"/>
                </g>
            </g>
        </g>
        <g transform="matrix(0.5,0,0,0.5,173.5,45.5)">
            <g transform="matrix(0.633028,0,0,1,22.3853,0)">
                <rect x="61" y="83" width="218" height="95" style="fill:rgb(0,255,5);stroke:black;stroke-width:1.59px;"/>
            </g>
            <g transform="matrix(2,0,0,2,-61,-83)">
                <g transform="matrix(26,0,0,26,88.27,116.056)">
                    <path d="M0.394,-0L0.256,-0L0.256,-0.517C0.206,-0.47 0.147,-0.436 0.079,-0.413L0.079,-0.538C0.115,-0.549 0.154,-0.572 0.196,-0.604C0.238,-0.637 0.267,-0.675 0.282,-0.719L0.394,-0.719L0.394,-0Z" style="fill-rule:nonzero;"/>
                </g>
            </g>
        </g>
        <g transform="matrix(0.5,0,0,0.5,242.5,45.5)">
            <g transform="matrix(0.633028,0,0,1,22.3853,0)">
                <rect x="61" y="83" width="218" height="95" style="fill:rgb(0,255,4);stroke:black;stroke-width:1.59px;"/>
            </g>
            <g transform="matrix(2,0,0,2,-61,-83)">
                <g transform="matrix(26,0,0,26,88.27,116.056)">
                    <path d="M0.506,-0.127L0.506,-0L0.025,-0C0.03,-0.048 0.046,-0.094 0.072,-0.137C0.098,-0.18 0.149,-0.237 0.226,-0.309C0.288,-0.366 0.326,-0.405 0.34,-0.426C0.359,-0.454 0.368,-0.482 0.368,-0.51C0.368,-0.54 0.36,-0.564 0.344,-0.58C0.327,-0.597 0.304,-0.605 0.275,-0.605C0.247,-0.605 0.224,-0.596 0.207,-0.579C0.19,-0.562 0.18,-0.533 0.178,-0.493L0.041,-0.507C0.049,-0.582 0.075,-0.637 0.118,-0.669C0.161,-0.702 0.214,-0.719 0.279,-0.719C0.349,-0.719 0.405,-0.7 0.445,-0.662C0.486,-0.624 0.506,-0.576 0.506,-0.52C0.506,-0.487 0.5,-0.457 0.489,-0.427C0.477,-0.398 0.459,-0.368 0.434,-0.336C0.417,-0.315 0.387,-0.284 0.344,-0.245C0.3,-0.205 0.273,-0.179 0.261,-0.166C0.25,-0.153 0.241,-0.14 0.233,-0.127L0.506,-0.127Z" style="fill-rule:nonzero;"/>
                </g>
            </g>
        </g>
        <g transform="matrix(0.5,0,0,0.5,311.5,45.5)">
            <g transform="matrix(0.633028,0,0,1,22.3853,0)">
                <rect x="61" y="83" width="218" height="95" style="fill:white;stroke:black;stroke-width:1.59px;"/>
            </g>
            <g transform="matrix(2,0,0,2,-61,-83)">
                <g transform="matrix(26,0,0,26,88.27,116.056)">
                    <path d="M0.274,-0.719C0.344,-0.719 0.398,-0.694 0.437,-0.645C0.484,-0.586 0.507,-0.489 0.507,-0.353C0.507,-0.218 0.483,-0.12 0.437,-0.061C0.398,-0.012 0.344,0.012 0.274,0.012C0.205,0.012 0.149,-0.015 0.106,-0.068C0.063,-0.122 0.042,-0.217 0.042,-0.354C0.042,-0.489 0.065,-0.586 0.112,-0.646C0.151,-0.694 0.205,-0.719 0.274,-0.719ZM0.274,-0.605C0.258,-0.605 0.243,-0.6 0.23,-0.589C0.217,-0.579 0.207,-0.56 0.2,-0.532C0.19,-0.497 0.186,-0.437 0.186,-0.353C0.186,-0.269 0.19,-0.211 0.198,-0.18C0.207,-0.149 0.217,-0.128 0.23,-0.117C0.243,-0.107 0.258,-0.102 0.274,-0.102C0.291,-0.102 0.306,-0.107 0.319,-0.117C0.332,-0.128 0.342,-0.147 0.349,-0.174C0.359,-0.209 0.363,-0.269 0.363,-0.353C0.363,-0.437 0.359,-0.495 0.351,-0.526C0.342,-0.558 0.331,-0.579 0.319,-0.589C0.306,-0.6 0.291,-0.605 0.274,-0.605Z" style="fill-rule:nonzero;"/>
                </g>
            </g>
        </g>
        <g transform="matrix(1,0,0,1,350,4)">
            <g transform="matrix(0.316514,0,0,0.5,41.6927,41.5)">
                <rect x="61" y="83" width="218" height="95" style="fill:white;stroke:black;stroke-width:1.59px;"/>
            </g>
            <g transform="matrix(26,0,0,26,88.27,116.056)">
                <path d="M0.394,-0L0.256,-0L0.256,-0.517C0.206,-0.47 0.147,-0.436 0.079,-0.413L0.079,-0.538C0.115,-0.549 0.154,-0.572 0.196,-0.604C0.238,-0.637 0.267,-0.675 0.282,-0.719L0.394,-0.719L0.394,-0Z" style="fill-rule:nonzero;"/>
            </g>
        </g>
        <g transform="matrix(1,0,0,1,419,4)">
            <g transform="matrix(0.316514,0,0,0.5,41.6927,41.5)">
                <rect x="61" y="83" width="218" height="95" style="fill:white;stroke:black;stroke-width:1.59px;"/>
            </g>
            <g transform="matrix(26,0,0,26,88.27,116.056)">
                <path d="M0.506,-0.127L0.506,-0L0.025,-0C0.03,-0.048 0.046,-0.094 0.072,-0.137C0.098,-0.18 0.149,-0.237 0.226,-0.309C0.288,-0.366 0.326,-0.405 0.34,-0.426C0.359,-0.454 0.368,-0.482 0.368,-0.51C0.368,-0.54 0.36,-0.564 0.344,-0.58C0.327,-0.597 0.304,-0.605 0.275,-0.605C0.247,-0.605 0.224,-0.596 0.207,-0.579C0.19,-0.562 0.18,-0.533 0.178,-0.493L0.041,-0.507C0.049,-0.582 0.075,-0.637 0.118,-0.669C0.161,-0.702 0.214,-0.719 0.279,-0.719C0.349,-0.719 0.405,-0.7 0.445,-0.662C0.486,-0.624 0.506,-0.576 0.506,-0.52C0.506,-0.487 0.5,-0.457 0.489,-0.427C0.477,-0.398 0.459,-0.368 0.434,-0.336C0.417,-0.315 0.387,-0.284 0.344,-0.245C0.3,-0.205 0.273,-0.179 0.261,-0.166C0.25,-0.153 0.241,-0.14 0.233,-0.127L0.506,-0.127Z" style="fill-rule:nonzero;"/>
            </g>
        </g>
    </g>
    <g id="Data-2" serif:id="Data 2" transform="matrix(1.5,0,0,1.5,-56.488,83.75)">
        <g transform="matrix(0.702899,0,0,0.5,-4.87681,45.5)">
            <g transform="matrix(0.633028,0,0,1,22.3853,0)">
                <rect x="61" y="83" width="218" height="95" style="fill:rgb(217,217,217);stroke:black;stroke-width:1.41px;"/>
            </g>
            <g transform="matrix(1.42268,0,0,2,-25.7835,-83)">
                <g transform="matrix(26,0,0,26,102.27,116.056)">
                    <path d="M0.506,-0.127L0.506,-0L0.025,-0C0.03,-0.048 0.046,-0.094 0.072,-0.137C0.098,-0.18 0.149,-0.237 0.226,-0.309C0.288,-0.366 0.326,-0.405 0.34,-0.426C0.359,-0.454 0.368,-0.482 0.368,-0.51C0.368,-0.54 0.36,-0.564 0.344,-0.58C0.327,-0.597 0.304,-0.605 0.275,-0.605C0.247,-0.605 0.224,-0.596 0.207,-0.579C0.19,-0.562 0.18,-0.533 0.178,-0.493L0.041,-0.507C0.049,-0.582 0.075,-0.637 0.118,-0.669C0.161,-0.702 0.214,-0.719 0.279,-0.719C0.349,-0.719 0.405,-0.7 0.445,-0.662C0.486,-0.624 0.506,-0.576 0.506,-0.52C0.506,-0.487 0.5,-0.457 0.489,-0.427C0.477,-0.398 0.459,-0.368 0.434,-0.336C0.417,-0.315 0.387,-0.284 0.344,-0.245C0.3,-0.205 0.273,-0.179 0.261,-0.166C0.25,-0.153 0.241,-0.14 0.233,-0.127L0.506,-0.127Z" style="fill-rule:nonzero;"/>
                </g>
            </g>
        </g>
        <g transform="matrix(0.5,0,0,0.5,104.5,45.5)">
            <g transform="matrix(0.633028,0,0,1,22.3853,0)">
                <rect x="61" y="83" width="218" height="95" style="fill:white;stroke:black;stroke-width:1.59px;"/>
            </g>
            <g transform="matrix(2,0,0,2,-61,-83)">
                <g transform="matrix(26,0,0,26,88.27,116.056)">
                    <path d="M0.274,-0.719C0.344,-0.719 0.398,-0.694 0.437,-0.645C0.484,-0.586 0.507,-0.489 0.507,-0.353C0.507,-0.218 0.483,-0.12 0.437,-0.061C0.398,-0.012 0.344,0.012 0.274,0.012C0.205,0.012 0.149,-0.015 0.106,-0.068C0.063,-0.122 0.042,-0.217 0.042,-0.354C0.042,-0.489 0.065,-0.586 0.112,-0.646C0.151,-0.694 0.205,-0.719 0.274,-0.719ZM0.274,-0.605C0.258,-0.605 0.243,-0.6 0.23,-0.589C0.217,-0.579 0.207,-0.56 0.2,-0.532C0.19,-0.497 0.186,-0.437 0.186,-0.353C0.186,-0.269 0.19,-0.211 0.198,-0.18C0.207,-0.149 0.217,-0.128 0.23,-0.117C0.243,-0.107 0.258,-0.102 0.274,-0.102C0.291,-0.102 0.306,-0.107 0.319,-0.117C0.332,-0.128 0.342,-0.147 0.349,-0.174C0.359,-0.209 0.363,-0.269 0.363,-0.353C0.363,-0.437 0.359,-0.495 0.351,-0.526C0.342,-0.558 0.331,-0.579 0.319,-0.589C0.306,-0.6 0.291,-0.605 0.274,-0.605Z" style="fill-rule:nonzero;"/>
                </g>
            </g>
        </g>
        <g transform="matrix(0.5,0,0,0.5,173.5,45.5)">
            <g transform="matrix(0.633028,0,0,1,22.3853,0)">
                <rect x="61" y="83" width="218" height="95" style="fill:rgb(0,255,5);stroke:black;stroke-width:1.59px;"/>
            </g>
            <g transform="matrix(2,0,0,2,-61,-83)">
                <g transform="matrix(26,0,0,26,88.27,116.056)">
                    <path d="M0.394,-0L0.256,-0L0.256,-0.517C0.206,-0.47 0.147,-0.436 0.079,-0.413L0.079,-0.538C0.115,-0.549 0.154,-0.572 0.196,-0.604C0.238,-0.637 0.267,-0.675 0.282,-0.719L0.394,-0.719L0.394,-0Z" style="fill-rule:nonzero;"/>
                </g>
            </g>
        </g>
        <g transform="matrix(0.5,0,0,0.5,242.5,45.5)">
            <g transform="matrix(0.633028,0,0,1,22.3853,0)">
                <rect x="61" y="83" width="218" height="95" style="fill:rgb(0,255,4);stroke:black;stroke-width:1.59px;"/>
            </g>
            <g transform="matrix(2,0,0,2,-61,-83)">
                <g transform="matrix(26,0,0,26,88.27,116.056)">
                    <path d="M0.506,-0.127L0.506,-0L0.025,-0C0.03,-0.048 0.046,-0.094 0.072,-0.137C0.098,-0.18 0.149,-0.237 0.226,-0.309C0.288,-0.366 0.326,-0.405 0.34,-0.426C0.359,-0.454 0.368,-0.482 0.368,-0.51C0.368,-0.54 0.36,-0.564 0.344,-0.58C0.327,-0.597 0.304,-0.605 0.275,-0.605C0.247,-0.605 0.224,-0.596 0.207,-0.579C0.19,-0.562 0.18,-0.533 0.178,-0.493L0.041,-0.507C0.049,-0.582 0.075,-0.637 0.118,-0.669C0.161,-0.702 0.214,-0.719 0.279,-0.719C0.349,-0.719 0.405,-0.7 0.445,-0.662C0.486,-0.624 0.506,-0.576 0.506,-0.52C0.506,-0.487 0.5,-0.457 0.489,-0.427C0.477,-0.398 0.459,-0.368 0.434,-0.336C0.417,-0.315 0.387,-0.284 0.344,-0.245C0.3,-0.205 0.273,-0.179 0.261,-0.166C0.25,-0.153 0.241,-0.14 0.233,-0.127L0.506,-0.127Z" style="fill-rule:nonzero;"/>
                </g>
            </g>
        </g>
        <g transform="matrix(0.5,0,0,0.5,311.5,45.5)">
            <g transform="matrix(0.633028,0,0,1,22.3853,0)">
                <rect x="61" y="83" width="218" height="95" style="fill:rgb(0,255,4);stroke:black;stroke-width:1.59px;"/>
            </g>
            <g transform="matrix(2,0,0,2,-61,-83)">
                <g transform="matrix(26,0,0,26,88.27,116.056)">
                    <path d="M0.274,-0.719C0.344,-0.719 0.398,-0.694 0.437,-0.645C0.484,-0.586 0.507,-0.489 0.507,-0.353C0.507,-0.218 0.483,-0.12 0.437,-0.061C0.398,-0.012 0.344,0.012 0.274,0.012C0.205,0.012 0.149,-0.015 0.106,-0.068C0.063,-0.122 0.042,-0.217 0.042,-0.354C0.042,-0.489 0.065,-0.586 0.112,-0.646C0.151,-0.694 0.205,-0.719 0.274,-0.719ZM0.274,-0.605C0.258,-0.605 0.243,-0.6 0.23,-0.589C0.217,-0.579 0.207,-0.56 0.2,-0.532C0.19,-0.497 0.186,-0.437 0.186,-0.353C0.186,-0.269 0.19,-0.211 0.198,-0.18C0.207,-0.149 0.217,-0.128 0.23,-0.117C0.243,-0.107 0.258,-0.102 0.274,-0.102C0.291,-0.102 0.306,-0.107 0.319,-0.117C0.332,-0.128 0.342,-0.147 0.349,-0.174C0.359,-0.209 0.363,-0.269 0.363,-0.353C0.363,-0.437 0.359,-0.495 0.351,-0.526C0.342,-0.558 0.331,-0.579 0.319,-0.589C0.306,-0.6 0.291,-0.605 0.274,-0.605Z" style="fill-rule:nonzero;"/>
                </g>
            </g>
        </g>
        <g transform="matrix(1,0,0,1,350,4)">
            <g transform="matrix(0.316514,0,0,0.5,41.6927,41.5)">
                <rect x="61" y="83" width="218" height="95" style="fill:white;stroke:black;stroke-width:1.59px;"/>
            </g>
            <g transform="matrix(26,0,0,26,88.27,116.056)">
                <path d="M0.394,-0L0.256,-0L0.256,-0.517C0.206,-0.47 0.147,-0.436 0.079,-0.413L0.079,-0.538C0.115,-0.549 0.154,-0.572 0.196,-0.604C0.238,-0.637 0.267,-0.675 0.282,-0.719L0.394,-0.719L0.394,-0Z" style="fill-rule:nonzero;"/>
            </g>
        </g>
        <g transform="matrix(1,0,0,1,419,4)">
            <g transform="matrix(0.316514,0,0,0.5,41.6927,41.5)">
                <rect x="61" y="83" width="218" height="95" style="fill:white;stroke:black;stroke-width:1.59px;"/>
            </g>
            <g transform="matrix(26,0,0,26,88.27,116.056)">
                <path d="M0.506,-0.127L0.506,-0L0.025,-0C0.03,-0.048 0.046,-0.094 0.072,-0.137C0.098,-0.18 0.149,-0.237 0.226,-0.309C0.288,-0.366 0.326,-0.405 0.34,-0.426C0.359,-0.454 0.368,-0.482 0.368,-0.51C0.368,-0.54 0.36,-0.564 0.344,-0.58C0.327,-0.597 0.304,-0.605 0.275,-0.605C0.247,-0.605 0.224,-0.596 0.207,-0.579C0.19,-0.562 0.18,-0.533 0.178,-0.493L0.041,-0.507C0.049,-0.582 0.075,-0.637 0.118,-0.669C0.161,-0.702 0.214,-0.719 0.279,-0.719C0.349,-0.719 0.405,-0.7 0.445,-0.662C0.486,-0.624 0.506,-0.576 0.506,-0.52C0.506,-0.487 0.5,-0.457 0.489,-0.427C0.477,-0.398 0.459,-0.368 0.434,-0.336C0.417,-0.315 0.387,-0.284 0.344,-0.245C0.3,-0.205 0.273,-0.179 0.261,-0.166C0.25,-0.153 0.241,-0.14 0.233,-0.127L0.506,-0.127Z" style="fill-rule:nonzero;"/>
            </g>
        </g>
    </g>
    <g id="Median-0" serif:id="Median 0" transform="matrix(1.54933,0,0,0.75,772.6,9.5)">
        <g transform="matrix(0.633028,0,0,1,22.3853,0)">
            <rect x="61" y="83" width="218" height="95" style="fill:rgb(255,157,0);stroke:black;stroke-width:1.15px;"/>
        </g>
        <g transform="matrix(0.968163,0,0,2,1.94207,-83)">
            <g transform="matrix(26,0,0,26,114.197,116.056)">
                <path d="M0.274,-0.719C0.344,-0.719 0.398,-0.694 0.437,-0.645C0.484,-0.586 0.507,-0.489 0.507,-0.353C0.507,-0.218 0.483,-0.12 0.437,-0.061C0.398,-0.012 0.344,0.012 0.274,0.012C0.205,0.012 0.149,-0.015 0.106,-0.068C0.063,-0.122 0.042,-0.217 0.042,-0.354C0.042,-0.489 0.065,-0.586 0.112,-0.646C0.151,-0.694 0.205,-0.719 0.274,-0.719ZM0.274,-0.605C0.258,-0.605 0.243,-0.6 0.23,-0.589C0.217,-0.579 0.207,-0.56 0.2,-0.532C0.19,-0.497 0.186,-0.437 0.186,-0.353C0.186,-0.269 0.19,-0.211 0.198,-0.18C0.207,-0.149 0.217,-0.128 0.23,-0.117C0.243,-0.107 0.258,-0.102 0.274,-0.102C0.291,-0.102 0.306,-0.107 0.319,-0.117C0.332,-0.128 0.342,-0.147 0.349,-0.174C0.359,-0.209 0.363,-0.269 0.363,-0.353C0.363,-0.437 0.359,-0.495 0.351,-0.526C0.342,-0.558 0.331,-0.579 0.319,-0.589C0.306,-0.6 0.291,-0.605 0.274,-0.605Z" style="fill-rule:nonzero;"/>
            </g>
            <g transform="matrix(26,0,0,26,128.657,116.056)">
                <rect x="0.072" y="-0.137" width="0.137" height="0.137" style="fill-rule:nonzero;"/>
            </g>
            <g transform="matrix(26,0,0,26,135.881,116.056)">
                <path d="M0.044,-0.184L0.181,-0.198C0.185,-0.167 0.197,-0.143 0.216,-0.125C0.235,-0.107 0.257,-0.098 0.282,-0.098C0.311,-0.098 0.335,-0.109 0.355,-0.133C0.375,-0.156 0.385,-0.191 0.385,-0.238C0.385,-0.282 0.375,-0.315 0.355,-0.337C0.336,-0.359 0.31,-0.37 0.278,-0.37C0.239,-0.37 0.204,-0.352 0.172,-0.317L0.061,-0.333L0.131,-0.706L0.494,-0.706L0.494,-0.578L0.235,-0.578L0.214,-0.456C0.244,-0.471 0.276,-0.479 0.308,-0.479C0.368,-0.479 0.42,-0.457 0.462,-0.413C0.505,-0.368 0.526,-0.311 0.526,-0.24C0.526,-0.181 0.509,-0.129 0.475,-0.083C0.428,-0.019 0.363,0.012 0.281,0.012C0.215,0.012 0.161,-0.006 0.119,-0.041C0.077,-0.076 0.053,-0.124 0.044,-0.184Z" style="fill-rule:nonzero;"/>
            </g>
        </g>
    </g>
    <g id="Median-1" serif:id="Median 1" transform="matrix(1.54933,0,0,0.75,772.6,80.75)">
        <g transform="matrix(0.633028,0,0,1,22.3853,0)">
            <rect x="61" y="83" width="218" height="95" style="fill:white;stroke:black;stroke-width:1.15px;"/>
        </g>
        <g transform="matrix(0.968163,0,0,2,1.94207,-83)">
            <g transform="matrix(26,0,0,26,114.197,116.056)">
                <path d="M0.394,-0L0.256,-0L0.256,-0.517C0.206,-0.47 0.147,-0.436 0.079,-0.413L0.079,-0.538C0.115,-0.549 0.154,-0.572 0.196,-0.604C0.238,-0.637 0.267,-0.675 0.282,-0.719L0.394,-0.719L0.394,-0Z" style="fill-rule:nonzero;"/>
            </g>
            <g transform="matrix(26,0,0,26,128.657,116.056)">
                <rect x="0.072" y="-0.137" width="0.137" height="0.137" style="fill-rule:nonzero;"/>
            </g>
            <g transform="matrix(26,0,0,26,135.881,116.056)">
                <path d="M0.274,-0.719C0.344,-0.719 0.398,-0.694 0.437,-0.645C0.484,-0.586 0.507,-0.489 0.507,-0.353C0.507,-0.218 0.483,-0.12 0.437,-0.061C0.398,-0.012 0.344,0.012 0.274,0.012C0.205,0.012 0.149,-0.015 0.106,-0.068C0.063,-0.122 0.042,-0.217 0.042,-0.354C0.042,-0.489 0.065,-0.586 0.112,-0.646C0.151,-0.694 0.205,-0.719 0.274,-0.719ZM0.274,-0.605C0.258,-0.605 0.243,-0.6 0.23,-0.589C0.217,-0.579 0.207,-0.56 0.2,-0.532C0.19,-0.497 0.186,-0.437 0.186,-0.353C0.186,-0.269 0.19,-0.211 0.198,-0.18C0.207,-0.149 0.217,-0.128 0.23,-0.117C0.243,-0.107 0.258,-0.102 0.274,-0.102C0.291,-0.102 0.306,-0.107 0.319,-0.117C0.332,-0.128 0.342,-0.147 0.349,-0.174C0.359,-0.209 0.363,-0.269 0.363,-0.353C0.363,-0.437 0.359,-0.495 0.351,-0.526C0.342,-0.558 0.331,-0.579 0.319,-0.589C0.306,-0.6 0.291,-0.605 0.274,-0.605Z" style="fill-rule:nonzero;"/>
            </g>
        </g>
    </g>
    <g id="Median-2" serif:id="Median 2" transform="matrix(1.54933,0,0,0.75,772.6,152)">
        <g transform="matrix(0.633028,0,0,1,22.3853,0)">
            <rect x="61" y="83" width="218" height="95" style="fill:rgb(0,191,255);stroke:black;stroke-width:1.15px;"/>
        </g>
        <g transform="matrix(0.968163,0,0,2,1.94207,-83)">
            <g transform="matrix(26,0,0,26,114.197,116.056)">
                <path d="M0.394,-0L0.256,-0L0.256,-0.517C0.206,-0.47 0.147,-0.436 0.079,-0.413L0.079,-0.538C0.115,-0.549 0.154,-0.572 0.196,-0.604C0.238,-0.637 0.267,-0.675 0.282,-0.719L0.394,-0.719L0.394,-0Z" style="fill-rule:nonzero;"/>
            </g>
            <g transform="matrix(26,0,0,26,128.657,116.056)">
                <rect x="0.072" y="-0.137" width="0.137" height="0.137" style="fill-rule:nonzero;"/>
            </g>
            <g transform="matrix(26,0,0,26,135.881,116.056)">
                <path d="M0.274,-0.719C0.344,-0.719 0.398,-0.694 0.437,-0.645C0.484,-0.586 0.507,-0.489 0.507,-0.353C0.507,-0.218 0.483,-0.12 0.437,-0.061C0.398,-0.012 0.344,0.012 0.274,0.012C0.205,0.012 0.149,-0.015 0.106,-0.068C0.063,-0.122 0.042,-0.217 0.042,-0.354C0.042,-0.489 0.065,-0.586 0.112,-0.646C0.151,-0.694 0.205,-0.719 0.274,-0.719ZM0.274,-0.605C0.258,-0.605 0.243,-0.6 0.23,-0.589C0.217,-0.579 0.207,-0.56 0.2,-0.532C0.19,-0.497 0.186,-0.437 0.186,-0.353C0.186,-0.269 0.19,-0.211 0.198,-0.18C0.207,-0.149 0.217,-0.128 0.23,-0.117C0.243,-0.107 0.258,-0.102 0.274,-0.102C0.291,-0.102 0.306,-0.107 0.319,-0.117C0.332,-0.128 0.342,-0.147 0.349,-0.174C0.359,-0.209 0.363,-0.269 0.363,-0.353C0.363,-0.437 0.359,-0.495 0.351,-0.526C0.342,-0.558 0.331,-0.579 0.319,-0.589C0.306,-0.6 0.291,-0.605 0.274,-0.605Z" style="fill-rule:nonzero;"/>
            </g>
        </g>
    </g>
    <g id="Data-3" serif:id="Data 3" transform="matrix(1.5,0,0,1.5,-56.488,155)">
        <g transform="matrix(0.702899,0,0,0.5,-4.87681,45.5)">
            <g transform="matrix(0.633028,0,0,1,22.3853,0)">
                <rect x="61" y="83" width="218" height="95" style="fill:rgb(217,217,217);stroke:black;stroke-width:1.41px;"/>
            </g>
            <g transform="matrix(1.42268,0,0,2,-25.7835,-83)">
                <g transform="matrix(26,0,0,26,102.27,116.056)">
                    <path d="M0.038,-0.19L0.17,-0.206C0.175,-0.172 0.186,-0.146 0.205,-0.128C0.223,-0.111 0.246,-0.102 0.272,-0.102C0.3,-0.102 0.324,-0.112 0.344,-0.134C0.363,-0.155 0.373,-0.184 0.373,-0.221C0.373,-0.255 0.363,-0.283 0.345,-0.303C0.326,-0.323 0.304,-0.333 0.277,-0.333C0.259,-0.333 0.238,-0.33 0.214,-0.323L0.229,-0.435C0.266,-0.434 0.294,-0.442 0.314,-0.459C0.333,-0.476 0.343,-0.499 0.343,-0.527C0.343,-0.551 0.336,-0.57 0.322,-0.584C0.307,-0.599 0.288,-0.606 0.265,-0.606C0.241,-0.606 0.221,-0.598 0.205,-0.582C0.188,-0.565 0.178,-0.542 0.174,-0.51L0.048,-0.532C0.057,-0.575 0.07,-0.61 0.088,-0.635C0.105,-0.661 0.13,-0.682 0.162,-0.697C0.194,-0.711 0.229,-0.719 0.269,-0.719C0.336,-0.719 0.39,-0.697 0.431,-0.654C0.464,-0.619 0.481,-0.579 0.481,-0.535C0.481,-0.472 0.447,-0.422 0.378,-0.385C0.419,-0.376 0.452,-0.356 0.476,-0.326C0.501,-0.295 0.513,-0.258 0.513,-0.215C0.513,-0.152 0.49,-0.098 0.444,-0.054C0.398,-0.01 0.341,0.012 0.273,0.012C0.208,0.012 0.154,-0.006 0.112,-0.044C0.069,-0.081 0.044,-0.13 0.038,-0.19Z" style="fill-rule:nonzero;"/>
                </g>
            </g>
        </g>
        <g transform="matrix(0.5,0,0,0.5,104.5,45.5)">
            <g transform="matrix(0.633028,0,0,1,22.3853,0)">
                <rect x="61" y="83" width="218" height="95" style="fill:white;stroke:black;stroke-width:1.59px;"/>
            </g>
            <g transform="matrix(2,0,0,2,-61,-83)">
                <g transform="matrix(26,0,0,26,88.27,116.056)">
                    <path d="M0.274,-0.719C0.344,-0.719 0.398,-0.694 0.437,-0.645C0.484,-0.586 0.507,-0.489 0.507,-0.353C0.507,-0.218 0.483,-0.12 0.437,-0.061C0.398,-0.012 0.344,0.012 0.274,0.012C0.205,0.012 0.149,-0.015 0.106,-0.068C0.063,-0.122 0.042,-0.217 0.042,-0.354C0.042,-0.489 0.065,-0.586 0.112,-0.646C0.151,-0.694 0.205,-0.719 0.274,-0.719ZM0.274,-0.605C0.258,-0.605 0.243,-0.6 0.23,-0.589C0.217,-0.579 0.207,-0.56 0.2,-0.532C0.19,-0.497 0.186,-0.437 0.186,-0.353C0.186,-0.269 0.19,-0.211 0.198,-0.18C0.207,-0.149 0.217,-0.128 0.23,-0.117C0.243,-0.107 0.258,-0.102 0.274,-0.102C0.291,-0.102 0.306,-0.107 0.319,-0.117C0.332,-0.128 0.342,-0.147 0.349,-0.174C0.359,-0.209 0.363,-0.269 0.363,-0.353C0.363,-0.437 0.359,-0.495 0.351,-0.526C0.342,-0.558 0.331,-0.579 0.319,-0.589C0.306,-0.6 0.291,-0.605 0.274,-0.605Z" style="fill-rule:nonzero;"/>
                </g>
            </g>
        </g>
        <g transform="matrix(0.5,0,0,0.5,173.5,45.5)">
            <g transform="matrix(0.633028,0,0,1,22.3853,0)">
                <rect x="61" y="83" width="218" height="95" style="fill:white;stroke:black;stroke-width:1.59px;"/>
            </g>
            <g transform="matrix(2,0,0,2,-61,-83)">
                <g transform="matrix(26,0,0,26,88.27,116.056)">
                    <path d="M0.394,-0L0.256,-0L0.256,-0.517C0.206,-0.47 0.147,-0.436 0.079,-0.413L0.079,-0.538C0.115,-0.549 0.154,-0.572 0.196,-0.604C0.238,-0.637 0.267,-0.675 0.282,-0.719L0.394,-0.719L0.394,-0Z" style="fill-rule:nonzero;"/>
                </g>
            </g>
        </g>
        <g transform="matrix(0.5,0,0,0.5,242.5,45.5)">
            <g transform="matrix(0.633028,0,0,1,22.3853,0)">
                <rect x="61" y="83" width="218" height="95" style="fill:rgb(0,255,4);stroke:black;stroke-width:1.59px;"/>
            </g>
            <g transform="matrix(2,0,0,2,-61,-83)">
                <g transform="matrix(26,0,0,26,88.27,116.056)">
                    <path d="M0.506,-0.127L0.506,-0L0.025,-0C0.03,-0.048 0.046,-0.094 0.072,-0.137C0.098,-0.18 0.149,-0.237 0.226,-0.309C0.288,-0.366 0.326,-0.405 0.34,-0.426C0.359,-0.454 0.368,-0.482 0.368,-0.51C0.368,-0.54 0.36,-0.564 0.344,-0.58C0.327,-0.597 0.304,-0.605 0.275,-0.605C0.247,-0.605 0.224,-0.596 0.207,-0.579C0.19,-0.562 0.18,-0.533 0.178,-0.493L0.041,-0.507C0.049,-0.582 0.075,-0.637 0.118,-0.669C0.161,-0.702 0.214,-0.719 0.279,-0.719C0.349,-0.719 0.405,-0.7 0.445,-0.662C0.486,-0.624 0.506,-0.576 0.506,-0.52C0.506,-0.487 0.5,-0.457 0.489,-0.427C0.477,-0.398 0.459,-0.368 0.434,-0.336C0.417,-0.315 0.387,-0.284 0.344,-0.245C0.3,-0.205 0.273,-0.179 0.261,-0.166C0.25,-0.153 0.241,-0.14 0.233,-0.127L0.506,-0.127Z" style="fill-rule:nonzero;"/>
                </g>
            </g>
        </g>
        <g transform="matrix(0.5,0,0,0.5,311.5,45.5)">
            <g transform="matrix(0.633028,0,0,1,22.3853,0)">
                <rect x="61" y="83" width="218" height="95" style="fill:rgb(0,255,4);stroke:black;stroke-width:1.59px;"/>
            </g>
            <g transform="matrix(2,0,0,2,-61,-83)">
                <g transform="matrix(26,0,0,26,88.27,116.056)">
                    <path d="M0.274,-0.719C0.344,-0.719 0.398,-0.694 0.437,-0.645C0.484,-0.586 0.507,-0.489 0.507,-0.353C0.507,-0.218 0.483,-0.12 0.437,-0.061C0.398,-0.012 0.344,0.012 0.274,0.012C0.205,0.012 0.149,-0.015 0.106,-0.068C0.063,-0.122 0.042,-0.217 0.042,-0.354C0.042,-0.489 0.065,-0.586 0.112,-0.646C0.151,-0.694 0.205,-0.719 0.274,-0.719ZM0.274,-0.605C0.258,-0.605 0.243,-0.6 0.23,-0.589C0.217,-0.579 0.207,-0.56 0.2,-0.532C0.19,-0.497 0.186,-0.437 0.186,-0.353C0.186,-0.269 0.19,-0.211 0.198,-0.18C0.207,-0.149 0.217,-0.128 0.23,-0.117C0.243,-0.107 0.258,-0.102 0.274,-0.102C0.291,-0.102 0.306,-0.107 0.319,-0.117C0.332,-0.128 0.342,-0.147 0.349,-0.174C0.359,-0.209 0.363,-0.269 0.363,-0.353C0.363,-0.437 0.359,-0.495 0.351,-0.526C0.342,-0.558 0.331,-0.579 0.319,-0.589C0.306,-0.6 0.291,-0.605 0.274,-0.605Z" style="fill-rule:nonzero;"/>
                </g>
            </g>
        </g>
        <g transform="matrix(1,0,0,1,350,4)">
            <g transform="matrix(0.316514,0,0,0.5,41.6927,41.5)">
                <rect x="61" y="83" width="218" height="95" style="fill:rgb(0,255,4);stroke:black;stroke-width:1.59px;"/>
            </g>
            <g transform="matrix(26,0,0,26,88.27,116.056)">
                <path d="M0.394,-0L0.256,-0L0.256,-0.517C0.206,-0.47 0.147,-0.436 0.079,-0.413L0.079,-0.538C0.115,-0.549 0.154,-0.572 0.196,-0.604C0.238,-0.637 0.267,-0.675 0.282,-0.719L0.394,-0.719L0.394,-0Z" style="fill-rule:nonzero;"/>
            </g>
        </g>
        <g transform="matrix(1,0,0,1,419,4)">
            <g transform="matrix(0.316514,0,0,0.5,41.6927,41.5)">
                <rect x="61" y="83" width="218" height="95" style="fill:white;stroke:black;stroke-width:1.59px;"/>
            </g>
            <g transform="matrix(26,0,0,26,88.27,116.056)">
                <path d="M0.506,-0.127L0.506,-0L0.025,-0C0.03,-0.048 0.046,-0.094 0.072,-0.137C0.098,-0.18 0.149,-0.237 0.226,-0.309C0.288,-0.366 0.326,-0.405 0.34,-0.426C0.359,-0.454 0.368,-0.482 0.368,-0.51C0.368,-0.54 0.36,-0.564 0.344,-0.58C0.327,-0.597 0.304,-0.605 0.275,-0.605C0.247,-0.605 0.224,-0.596 0.207,-0.579C0.19,-0.562 0.18,-0.533 0.178,-0.493L0.041,-0.507C0.049,-0.582 0.075,-0.637 0.118,-0.669C0.161,-0.702 0.214,-0.719 0.279,-0.719C0.349,-0.719 0.405,-0.7 0.445,-0.662C0.486,-0.624 0.506,-0.576 0.506,-0.52C0.506,-0.487 0.5,-0.457 0.489,-0.427C0.477,-0.398 0.459,-0.368 0.434,-0.336C0.417,-0.315 0.387,-0.284 0.344,-0.245C0.3,-0.205 0.273,-0.179 0.261,-0.166C0.25,-0.153 0.241,-0.14 0.233,-0.127L0.506,-0.127Z" style="fill-rule:nonzero;"/>
            </g>
        </g>
    </g>
    <g id="Median-3" serif:id="Median 3" transform="matrix(1.54933,0,0,0.75,772.6,223.25)">
        <g transform="matrix(0.633028,0,0,1,22.3853,0)">
            <rect x="61" y="83" width="218" height="95" style="fill:rgb(0,191,255);stroke:black;stroke-width:1.15px;"/>
        </g>
        <g transform="matrix(0.968163,0,0,2,1.94207,-83)">
            <g transform="matrix(26,0,0,26,114.197,116.056)">
                <path d="M0.394,-0L0.256,-0L0.256,-0.517C0.206,-0.47 0.147,-0.436 0.079,-0.413L0.079,-0.538C0.115,-0.549 0.154,-0.572 0.196,-0.604C0.238,-0.637 0.267,-0.675 0.282,-0.719L0.394,-0.719L0.394,-0Z" style="fill-rule:nonzero;"/>
            </g>
            <g transform="matrix(26,0,0,26,128.657,116.056)">
                <rect x="0.072" y="-0.137" width="0.137" height="0.137" style="fill-rule:nonzero;"/>
            </g>
            <g transform="matrix(26,0,0,26,135.881,116.056)">
                <path d="M0.274,-0.719C0.344,-0.719 0.398,-0.694 0.437,-0.645C0.484,-0.586 0.507,-0.489 0.507,-0.353C0.507,-0.218 0.483,-0.12 0.437,-0.061C0.398,-0.012 0.344,0.012 0.274,0.012C0.205,0.012 0.149,-0.015 0.106,-0.068C0.063,-0.122 0.042,-0.217 0.042,-0.354C0.042,-0.489 0.065,-0.586 0.112,-0.646C0.151,-0.694 0.205,-0.719 0.274,-0.719ZM0.274,-0.605C0.258,-0.605 0.243,-0.6 0.23,-0.589C0.217,-0.579 0.207,-0.56 0.2,-0.532C0.19,-0.497 0.186,-0.437 0.186,-0.353C0.186,-0.269 0.19,-0.211 0.198,-0.18C0.207,-0.149 0.217,-0.128 0.23,-0.117C0.243,-0.107 0.258,-0.102 0.274,-0.102C0.291,-0.102 0.306,-0.107 0.319,-0.117C0.332,-0.128 0.342,-0.147 0.349,-0.174C0.359,-0.209 0.363,-0.269 0.363,-0.353C0.363,-0.437 0.359,-0.495 0.351,-0.526C0.342,-0.558 0.331,-0.579 0.319,-0.589C0.306,-0.6 0.291,-0.605 0.274,-0.605Z" style="fill-rule:nonzero;"/>
            </g>
        </g>
    </g>
    <g id="Data-4" serif:id="Data 4" transform="matrix(1.5,0,0,1.5,-56.488,226.25)">
        <g transform="matrix(0.702899,0,0,0.5,-4.87681,45.5)">
            <g transform="matrix(0.633028,0,0,1,22.3853,0)">
                <rect x="61" y="83" width="218" height="95" style="fill:rgb(217,217,217);stroke:black;stroke-width:1.41px;"/>
            </g>
            <g transform="matrix(1.42268,0,0,2,-25.7835,-83)">
                <g transform="matrix(26,0,0,26,102.27,116.056)">
                    <path d="M0.312,-0L0.312,-0.144L0.019,-0.144L0.019,-0.264L0.329,-0.719L0.444,-0.719L0.444,-0.265L0.533,-0.265L0.533,-0.144L0.444,-0.144L0.444,-0L0.312,-0ZM0.312,-0.265L0.312,-0.509L0.147,-0.265L0.312,-0.265Z" style="fill-rule:nonzero;"/>
                </g>
            </g>
        </g>
        <g transform="matrix(0.5,0,0,0.5,104.5,45.5)">
            <g transform="matrix(0.633028,0,0,1,22.3853,0)">
                <rect x="61" y="83" width="218" height="95" style="fill:white;stroke:black;stroke-width:1.59px;"/>
            </g>
            <g transform="matrix(2,0,0,2,-61,-83)">
                <g transform="matrix(26,0,0,26,88.27,116.056)">
                    <path d="M0.274,-0.719C0.344,-0.719 0.398,-0.694 0.437,-0.645C0.484,-0.586 0.507,-0.489 0.507,-0.353C0.507,-0.218 0.483,-0.12 0.437,-0.061C0.398,-0.012 0.344,0.012 0.274,0.012C0.205,0.012 0.149,-0.015 0.106,-0.068C0.063,-0.122 0.042,-0.217 0.042,-0.354C0.042,-0.489 0.065,-0.586 0.112,-0.646C0.151,-0.694 0.205,-0.719 0.274,-0.719ZM0.274,-0.605C0.258,-0.605 0.243,-0.6 0.23,-0.589C0.217,-0.579 0.207,-0.56 0.2,-0.532C0.19,-0.497 0.186,-0.437 0.186,-0.353C0.186,-0.269 0.19,-0.211 0.198,-0.18C0.207,-0.149 0.217,-0.128 0.23,-0.117C0.243,-0.107 0.258,-0.102 0.274,-0.102C0.291,-0.102 0.306,-0.107 0.319,-0.117C0.332,-0.128 0.342,-0.147 0.349,-0.174C0.359,-0.209 0.363,-0.269 0.363,-0.353C0.363,-0.437 0.359,-0.495 0.351,-0.526C0.342,-0.558 0.331,-0.579 0.319,-0.589C0.306,-0.6 0.291,-0.605 0.274,-0.605Z" style="fill-rule:nonzero;"/>
                </g>
            </g>
        </g>
        <g transform="matrix(0.5,0,0,0.5,173.5,45.5)">
            <g transform="matrix(0.633028,0,0,1,22.3853,0)">
                <rect x="61" y="83" width="218" height="95" style="fill:white;stroke:black;stroke-width:1.59px;"/>
            </g>
            <g transform="matrix(2,0,0,2,-61,-83)">
                <g transform="matrix(26,0,0,26,88.27,116.056)">
                    <path d="M0.394,-0L0.256,-0L0.256,-0.517C0.206,-0.47 0.147,-0.436 0.079,-0.413L0.079,-0.538C0.115,-0.549 0.154,-0.572 0.196,-0.604C0.238,-0.637 0.267,-0.675 0.282,-0.719L0.394,-0.719L0.394,-0Z" style="fill-rule:nonzero;"/>
                </g>
            </g>
        </g>
        <g transform="matrix(0.5,0,0,0.5,242.5,45.5)">
            <g transform="matrix(0.633028,0,0,1,22.3853,0)">
                <rect x="61" y="83" width="218" height="95" style="fill:white;stroke:black;stroke-width:1.59px;"/>
            </g>
            <g transform="matrix(2,0,0,2,-61,-83)">
                <g transform="matrix(26,0,0,26,88.27,116.056)">
                    <path d="M0.506,-0.127L0.506,-0L0.025,-0C0.03,-0.048 0.046,-0.094 0.072,-0.137C0.098,-0.18 0.149,-0.237 0.226,-0.309C0.288,-0.366 0.326,-0.405 0.34,-0.426C0.359,-0.454 0.368,-0.482 0.368,-0.51C0.368,-0.54 0.36,-0.564 0.344,-0.58C0.327,-0.597 0.304,-0.605 0.275,-0.605C0.247,-0.605 0.224,-0.596 0.207,-0.579C0.19,-0.562 0.18,-0.533 0.178,-0.493L0.041,-0.507C0.049,-0.582 0.075,-0.637 0.118,-0.669C0.161,-0.702 0.214,-0.719 0.279,-0.719C0.349,-0.719 0.405,-0.7 0.445,-0.662C0.486,-0.624 0.506,-0.576 0.506,-0.52C0.506,-0.487 0.5,-0.457 0.489,-0.427C0.477,-0.398 0.459,-0.368 0.434,-0.336C0.417,-0.315 0.387,-0.284 0.344,-0.245C0.3,-0.205 0.273,-0.179 0.261,-0.166C0.25,-0.153 0.241,-0.14 0.233,-0.127L0.506,-0.127Z" style="fill-rule:nonzero;"/>
                </g>
            </g>
        </g>
        <g transform="matrix(0.5,0,0,0.5,311.5,45.5)">
            <g transform="matrix(0.633028,0,0,1,22.3853,0)">
                <rect x="61" y="83" width="218" height="95" style="fill:rgb(0,255,4);stroke:black;stroke-width:1.59px;"/>
            </g>
            <g transform="matrix(2,0,0,2,-61,-83)">
                <g transform="matrix(26,0,0,26,88.27,116.056)">
                    <path d="M0.274,-0.719C0.344,-0.719 0.398,-0.694 0.437,-0.645C0.484,-0.586 0.507,-0.489 0.507,-0.353C0.507,-0.218 0.483,-0.12 0.437,-0.061C0.398,-0.012 0.344,0.012 0.274,0.012C0.205,0.012 0.149,-0.015 0.106,-0.068C0.063,-0.122 0.042,-0.217 0.042,-0.354C0.042,-0.489 0.065,-0.586 0.112,-0.646C0.151,-0.694 0.205,-0.719 0.274,-0.719ZM0.274,-0.605C0.258,-0.605 0.243,-0.6 0.23,-0.589C0.217,-0.579 0.207,-0.56 0.2,-0.532C0.19,-0.497 0.186,-0.437 0.186,-0.353C0.186,-0.269 0.19,-0.211 0.198,-0.18C0.207,-0.149 0.217,-0.128 0.23,-0.117C0.243,-0.107 0.258,-0.102 0.274,-0.102C0.291,-0.102 0.306,-0.107 0.319,-0.117C0.332,-0.128 0.342,-0.147 0.349,-0.174C0.359,-0.209 0.363,-0.269 0.363,-0.353C0.363,-0.437 0.359,-0.495 0.351,-0.526C0.342,-0.558 0.331,-0.579 0.319,-0.589C0.306,-0.6 0.291,-0.605 0.274,-0.605Z" style="fill-rule:nonzero;"/>
                </g>
            </g>
        </g>
        <g transform="matrix(1,0,0,1,350,4)">
            <g transform="matrix(0.316514,0,0,0.5,41.6927,41.5)">
                <rect x="61" y="83" width="218" height="95" style="fill:rgb(0,255,4);stroke:black;stroke-width:1.59px;"/>
            </g>
            <g transform="matrix(26,0,0,26,88.27,116.056)">
                <path d="M0.394,-0L0.256,-0L0.256,-0.517C0.206,-0.47 0.147,-0.436 0.079,-0.413L0.079,-0.538C0.115,-0.549 0.154,-0.572 0.196,-0.604C0.238,-0.637 0.267,-0.675 0.282,-0.719L0.394,-0.719L0.394,-0Z" style="fill-rule:nonzero;"/>
            </g>
        </g>
        <g transform="matrix(1,0,0,1,419,4)">
            <g transform="matrix(0.316514,0,0,0.5,41.6927,41.5)">
                <rect x="61" y="83" width="218" height="95" style="fill:rgb(0,255,4);stroke:black;stroke-width:1.59px;"/>
            </g>
            <g transform="matrix(26,0,0,26,88.27,116.056)">
                <path d="M0.506,-0.127L0.506,-0L0.025,-0C0.03,-0.048 0.046,-0.094 0.072,-0.137C0.098,-0.18 0.149,-0.237 0.226,-0.309C0.288,-0.366 0.326,-0.405 0.34,-0.426C0.359,-0.454 0.368,-0.482 0.368,-0.51C0.368,-0.54 0.36,-0.564 0.344,-0.58C0.327,-0.597 0.304,-0.605 0.275,-0.605C0.247,-0.605 0.224,-0.596 0.207,-0.579C0.19,-0.562 0.18,-0.533 0.178,-0.493L0.041,-0.507C0.049,-0.582 0.075,-0.637 0.118,-0.669C0.161,-0.702 0.214,-0.719 0.279,-0.719C0.349,-0.719 0.405,-0.7 0.445,-0.662C0.486,-0.624 0.506,-0.576 0.506,-0.52C0.506,-0.487 0.5,-0.457 0.489,-0.427C0.477,-0.398 0.459,-0.368 0.434,-0.336C0.417,-0.315 0.387,-0.284 0.344,-0.245C0.3,-0.205 0.273,-0.179 0.261,-0.166C0.25,-0.153 0.241,-0.14 0.233,-0.127L0.506,-0.127Z" style="fill-rule:nonzero;"/>
            </g>
        </g>
    </g>
    <g id="Median-4" serif:id="Median 4" transform="matrix(1.54933,0,0,0.75,772.6,294.5)">
        <g transform="matrix(0.633028,0,0,1,22.3853,0)">
            <rect x="61" y="83" width="218" height="95" style="fill:rgb(0,191,255);stroke:black;stroke-width:1.15px;"/>
        </g>
        <g transform="matrix(0.968163,0,0,2,1.94207,-83)">
            <g transform="matrix(26,0,0,26,114.197,116.056)">
                <path d="M0.394,-0L0.256,-0L0.256,-0.517C0.206,-0.47 0.147,-0.436 0.079,-0.413L0.079,-0.538C0.115,-0.549 0.154,-0.572 0.196,-0.604C0.238,-0.637 0.267,-0.675 0.282,-0.719L0.394,-0.719L0.394,-0Z" style="fill-rule:nonzero;"/>
            </g>
            <g transform="matrix(26,0,0,26,128.657,116.056)">
                <rect x="0.072" y="-0.137" width="0.137" height="0.137" style="fill-rule:nonzero;"/>
            </g>
            <g transform="matrix(26,0,0,26,135.881,116.056)">
                <path d="M0.274,-0.719C0.344,-0.719 0.398,-0.694 0.437,-0.645C0.484,-0.586 0.507,-0.489 0.507,-0.353C0.507,-0.218 0.483,-0.12 0.437,-0.061C0.398,-0.012 0.344,0.012 0.274,0.012C0.205,0.012 0.149,-0.015 0.106,-0.068C0.063,-0.122 0.042,-0.217 0.042,-0.354C0.042,-0.489 0.065,-0.586 0.112,-0.646C0.151,-0.694 0.205,-0.719 0.274,-0.719ZM0.274,-0.605C0.258,-0.605 0.243,-0.6 0.23,-0.589C0.217,-0.579 0.207,-0.56 0.2,-0.532C0.19,-0.497 0.186,-0.437 0.186,-0.353C0.186,-0.269 0.19,-0.211 0.198,-0.18C0.207,-0.149 0.217,-0.128 0.23,-0.117C0.243,-0.107 0.258,-0.102 0.274,-0.102C0.291,-0.102 0.306,-0.107 0.319,-0.117C0.332,-0.128 0.342,-0.147 0.349,-0.174C0.359,-0.209 0.363,-0.269 0.363,-0.353C0.363,-0.437 0.359,-0.495 0.351,-0.526C0.342,-0.558 0.331,-0.579 0.319,-0.589C0.306,-0.6 0.291,-0.605 0.274,-0.605Z" style="fill-rule:nonzero;"/>
            </g>
        </g>
    </g>
    <g id="Data-5" serif:id="Data 5" transform="matrix(1.5,0,0,1.5,-56.488,297.5)">
        <g transform="matrix(0.702899,0,0,0.5,-4.87681,45.5)">
            <g transform="matrix(0.633028,0,0,1,22.3853,0)">
                <rect x="61" y="83" width="218" height="95" style="fill:rgb(217,217,217);stroke:black;stroke-width:1.41px;"/>
            </g>
            <g transform="matrix(1.42268,0,0,2,-25.7835,-83)">
                <g transform="matrix(26,0,0,26,102.27,116.056)">
                    <path d="M0.044,-0.184L0.181,-0.198C0.185,-0.167 0.197,-0.143 0.216,-0.125C0.235,-0.107 0.257,-0.098 0.282,-0.098C0.311,-0.098 0.335,-0.109 0.355,-0.133C0.375,-0.156 0.385,-0.191 0.385,-0.238C0.385,-0.282 0.375,-0.315 0.355,-0.337C0.336,-0.359 0.31,-0.37 0.278,-0.37C0.239,-0.37 0.204,-0.352 0.172,-0.317L0.061,-0.333L0.131,-0.706L0.494,-0.706L0.494,-0.578L0.235,-0.578L0.214,-0.456C0.244,-0.471 0.276,-0.479 0.308,-0.479C0.368,-0.479 0.42,-0.457 0.462,-0.413C0.505,-0.368 0.526,-0.311 0.526,-0.24C0.526,-0.181 0.509,-0.129 0.475,-0.083C0.428,-0.019 0.363,0.012 0.281,0.012C0.215,0.012 0.161,-0.006 0.119,-0.041C0.077,-0.076 0.053,-0.124 0.044,-0.184Z" style="fill-rule:nonzero;"/>
                </g>
            </g>
        </g>
        <g transform="matrix(0.5,0,0,0.5,104.5,45.5)">
            <g transform="matrix(0.633028,0,0,1,22.3853,0)">
                <rect x="61" y="83" width="218" height="95" style="fill:white;stroke:black;stroke-width:1.59px;"/>
            </g>
            <g transform="matrix(2,0,0,2,-61,-83)">
                <g transform="matrix(26,0,0,26,88.27,116.056)">
                    <path d="M0.274,-0.719C0.344,-0.719 0.398,-0.694 0.437,-0.645C0.484,-0.586 0.507,-0.489 0.507,-0.353C0.507,-0.218 0.483,-0.12 0.437,-0.061C0.398,-0.012 0.344,0.012 0.274,0.012C0.205,0.012 0.149,-0.015 0.106,-0.068C0.063,-0.122 0.042,-0.217 0.042,-0.354C0.042,-0.489 0.065,-0.586 0.112,-0.646C0.151,-0.694 0.205,-0.719 0.274,-0.719ZM0.274,-0.605C0.258,-0.605 0.243,-0.6 0.23,-0.589C0.217,-0.579 0.207,-0.56 0.2,-0.532C0.19,-0.497 0.186,-0.437 0.186,-0.353C0.186,-0.269 0.19,-0.211 0.198,-0.18C0.207,-0.149 0.217,-0.128 0.23,-0.117C0.243,-0.107 0.258,-0.102 0.274,-0.102C0.291,-0.102 0.306,-0.107 0.319,-0.117C0.332,-0.128 0.342,-0.147 0.349,-0.174C0.359,-0.209 0.363,-0.269 0.363,-0.353C0.363,-0.437 0.359,-0.495 0.351,-0.526C0.342,-0.558 0.331,-0.579 0.319,-0.589C0.306,-0.6 0.291,-0.605 0.274,-0.605Z" style="fill-rule:nonzero;"/>
                </g>
            </g>
        </g>
        <g transform="matrix(0.5,0,0,0.5,173.5,45.5)">
            <g transform="matrix(0.633028,0,0,1,22.3853,0)">
                <rect x="61" y="83" width="218" height="95" style="fill:white;stroke:black;stroke-width:1.59px;"/>
            </g>
            <g transform="matrix(2,0,0,2,-61,-83)">
                <g transform="matrix(26,0,0,26,88.27,116.056)">
                    <path d="M0.394,-0L0.256,-0L0.256,-0.517C0.206,-0.47 0.147,-0.436 0.079,-0.413L0.079,-0.538C0.115,-0.549 0.154,-0.572 0.196,-0.604C0.238,-0.637 0.267,-0.675 0.282,-0.719L0.394,-0.719L0.394,-0Z" style="fill-rule:nonzero;"/>
                </g>
            </g>
        </g>
        <g transform="matrix(0.5,0,0,0.5,242.5,45.5)">
            <g transform="matrix(0.633028,0,0,1,22.3853,0)">
                <rect x="61" y="83" width="218" height="95" style="fill:white;stroke:black;stroke-width:1.59px;"/>
            </g>
            <g transform="matrix(2,0,0,2,-61,-83)">
                <g transform="matrix(26,0,0,26,88.27,116.056)">
                    <path d="M0.506,-0.127L0.506,-0L0.025,-0C0.03,-0.048 0.046,-0.094 0.072,-0.137C0.098,-0.18 0.149,-0.237 0.226,-0.309C0.288,-0.366 0.326,-0.405 0.34,-0.426C0.359,-0.454 0.368,-0.482 0.368,-0.51C0.368,-0.54 0.36,-0.564 0.344,-0.58C0.327,-0.597 0.304,-0.605 0.275,-0.605C0.247,-0.605 0.224,-0.596 0.207,-0.579C0.19,-0.562 0.18,-0.533 0.178,-0.493L0.041,-0.507C0.049,-0.582 0.075,-0.637 0.118,-0.669C0.161,-0.702 0.214,-0.719 0.279,-0.719C0.349,-0.719 0.405,-0.7 0.445,-0.662C0.486,-0.624 0.506,-0.576 0.506,-0.52C0.506,-0.487 0.5,-0.457 0.489,-0.427C0.477,-0.398 0.459,-0.368 0.434,-0.336C0.417,-0.315 0.387,-0.284 0.344,-0.245C0.3,-0.205 0.273,-0.179 0.261,-0.166C0.25,-0.153 0.241,-0.14 0.233,-0.127L0.506,-0.127Z" style="fill-rule:nonzero;"/>
                </g>
            </g>
        </g>
        <g transform="matrix(0.5,0,0,0.5,311.5,45.5)">
            <g transform="matrix(0.633028,0,0,1,22.3853,0)">
                <rect x="61" y="83" width="218" height="95" style="fill:white;stroke:black;stroke-width:1.59px;"/>
            </g>
            <g transform="matrix(2,0,0,2,-61,-83)">
                <g transform="matrix(26,0,0,26,88.27,116.056)">
                    <path d="M0.274,-0.719C0.344,-0.719 0.398,-0.694 0.437,-0.645C0.484,-0.586 0.507,-0.489 0.507,-0.353C0.507,-0.218 0.483,-0.12 0.437,-0.061C0.398,-0.012 0.344,0.012 0.274,0.012C0.205,0.012 0.149,-0.015 0.106,-0.068C0.063,-0.122 0.042,-0.217 0.042,-0.354C0.042,-0.489 0.065,-0.586 0.112,-0.646C0.151,-0.694 0.205,-0.719 0.274,-0.719ZM0.274,-0.605C0.258,-0.605 0.243,-0.6 0.23,-0.589C0.217,-0.579 0.207,-0.56 0.2,-0.532C0.19,-0.497 0.186,-0.437 0.186,-0.353C0.186,-0.269 0.19,-0.211 0.198,-0.18C0.207,-0.149 0.217,-0.128 0.23,-0.117C0.243,-0.107 0.258,-0.102 0.274,-0.102C0.291,-0.102 0.306,-0.107 0.319,-0.117C0.332,-0.128 0.342,-0.147 0.349,-0.174C0.359,-0.209 0.363,-0.269 0.363,-0.353C0.363,-0.437 0.359,-0.495 0.351,-0.526C0.342,-0.558 0.331,-0.579 0.319,-0.589C0.306,-0.6 0.291,-0.605 0.274,-0.605Z" style="fill-rule:nonzero;"/>
                </g>
            </g>
        </g>
        <g transform="matrix(1,0,0,1,350,4)">
            <g transform="matrix(0.316514,0,0,0.5,41.6927,41.5)">
                <rect x="61" y="83" width="218" height="95" style="fill:rgb(0,255,4);stroke:black;stroke-width:1.59px;"/>
            </g>
            <g transform="matrix(26,0,0,26,88.27,116.056)">
                <path d="M0.394,-0L0.256,-0L0.256,-0.517C0.206,-0.47 0.147,-0.436 0.079,-0.413L0.079,-0.538C0.115,-0.549 0.154,-0.572 0.196,-0.604C0.238,-0.637 0.267,-0.675 0.282,-0.719L0.394,-0.719L0.394,-0Z" style="fill-rule:nonzero;"/>
            </g>
        </g>
        <g transform="matrix(1,0,0,1,419,4)">
            <g transform="matrix(0.316514,0,0,0.5,41.6927,41.5)">
                <rect x="61" y="83" width="218" height="95" style="fill:rgb(0,255,4);stroke:black;stroke-width:1.59px;"/>
            </g>
            <g transform="matrix(26,0,0,26,88.27,116.056)">
                <path d="M0.506,-0.127L0.506,-0L0.025,-0C0.03,-0.048 0.046,-0.094 0.072,-0.137C0.098,-0.18 0.149,-0.237 0.226,-0.309C0.288,-0.366 0.326,-0.405 0.34,-0.426C0.359,-0.454 0.368,-0.482 0.368,-0.51C0.368,-0.54 0.36,-0.564 0.344,-0.58C0.327,-0.597 0.304,-0.605 0.275,-0.605C0.247,-0.605 0.224,-0.596 0.207,-0.579C0.19,-0.562 0.18,-0.533 0.178,-0.493L0.041,-0.507C0.049,-0.582 0.075,-0.637 0.118,-0.669C0.161,-0.702 0.214,-0.719 0.279,-0.719C0.349,-0.719 0.405,-0.7 0.445,-0.662C0.486,-0.624 0.506,-0.576 0.506,-0.52C0.506,-0.487 0.5,-0.457 0.489,-0.427C0.477,-0.398 0.459,-0.368 0.434,-0.336C0.417,-0.315 0.387,-0.284 0.344,-0.245C0.3,-0.205 0.273,-0.179 0.261,-0.166C0.25,-0.153 0.241,-0.14 0.233,-0.127L0.506,-0.127Z" style="fill-rule:nonzero;"/>
            </g>
        </g>
    </g>
    <g id="Median-5" serif:id="Median 5" transform="matrix(1.54933,0,0,0.75,772.6,365.75)">
        <g transform="matrix(0.633028,0,0,1,22.3853,0)">
            <rect x="61" y="83" width="218" height="95" style="fill:white;stroke:black;stroke-width:1.15px;"/>
        </g>
        <g transform="matrix(0.968163,0,0,2,1.94207,-83)">
            <g transform="matrix(26,0,0,26,114.197,116.056)">
                <path d="M0.394,-0L0.256,-0L0.256,-0.517C0.206,-0.47 0.147,-0.436 0.079,-0.413L0.079,-0.538C0.115,-0.549 0.154,-0.572 0.196,-0.604C0.238,-0.637 0.267,-0.675 0.282,-0.719L0.394,-0.719L0.394,-0Z" style="fill-rule:nonzero;"/>
            </g>
            <g transform="matrix(26,0,0,26,128.657,116.056)">
                <rect x="0.072" y="-0.137" width="0.137" height="0.137" style="fill-rule:nonzero;"/>
            </g>
            <g transform="matrix(26,0,0,26,135.881,116.056)">
                <path d="M0.044,-0.184L0.181,-0.198C0.185,-0.167 0.197,-0.143 0.216,-0.125C0.235,-0.107 0.257,-0.098 0.282,-0.098C0.311,-0.098 0.335,-0.109 0.355,-0.133C0.375,-0.156 0.385,-0.191 0.385,-0.238C0.385,-0.282 0.375,-0.315 0.355,-0.337C0.336,-0.359 0.31,-0.37 0.278,-0.37C0.239,-0.37 0.204,-0.352 0.172,-0.317L0.061,-0.333L0.131,-0.706L0.494,-0.706L0.494,-0.578L0.235,-0.578L0.214,-0.456C0.244,-0.471 0.276,-0.479 0.308,-0.479C0.368,-0.479 0.42,-0.457 0.462,-0.413C0.505,-0.368 0.526,-0.311 0.526,-0.24C0.526,-0.181 0.509,-0.129 0.475,-0.083C0.428,-0.019 0.363,0.012 0.281,0.012C0.215,0.012 0.161,-0.006 0.119,-0.041C0.077,-0.076 0.053,-0.124 0.044,-0.184Z" style="fill-rule:nonzero;"/>
            </g>
        </g>
    </g>
    <g id="Data-Header" serif:id="Data Header" transform="matrix(1.49784,0,0,1.5,-56.418,-58.75)">
        <g transform="matrix(0.702899,0,0,0.5,-4.87681,-2)">
            <g transform="matrix(0.633028,0,0,1,22.3853,0)">
                <rect x="61" y="83" width="218" height="95" style="fill:rgb(179,179,179);stroke:black;stroke-width:1.41px;"/>
            </g>
            <g transform="matrix(1.42473,0,0,2,-25.9086,-83)">
                <g transform="matrix(26,0,0,26,70.4111,116.056)">
                    <path d="M0.074,-0L0.074,-0.716L0.564,-0.716L0.564,-0.595L0.218,-0.595L0.218,-0.425L0.517,-0.425L0.517,-0.304L0.218,-0.304L0.218,-0L0.074,-0Z" style="fill-rule:nonzero;"/>
                </g>
                <g transform="matrix(26,0,0,26,86.293,116.056)">
                    <path d="M0.203,-0L0.066,-0L0.066,-0.519L0.193,-0.519L0.193,-0.445C0.215,-0.48 0.235,-0.503 0.252,-0.514C0.27,-0.525 0.289,-0.53 0.312,-0.53C0.343,-0.53 0.373,-0.522 0.402,-0.504L0.359,-0.385C0.336,-0.4 0.315,-0.407 0.295,-0.407C0.276,-0.407 0.259,-0.402 0.246,-0.391C0.233,-0.381 0.222,-0.362 0.215,-0.334C0.207,-0.306 0.203,-0.248 0.203,-0.16L0.203,-0Z" style="fill-rule:nonzero;"/>
                </g>
                <g transform="matrix(26,0,0,26,96.4111,116.056)">
                    <path d="M0.174,-0.36L0.05,-0.383C0.064,-0.433 0.088,-0.47 0.122,-0.494C0.156,-0.518 0.207,-0.53 0.274,-0.53C0.336,-0.53 0.381,-0.523 0.411,-0.509C0.441,-0.494 0.462,-0.476 0.474,-0.453C0.487,-0.431 0.493,-0.39 0.493,-0.331L0.491,-0.17C0.491,-0.125 0.493,-0.091 0.498,-0.07C0.502,-0.048 0.51,-0.025 0.522,-0L0.387,-0C0.383,-0.009 0.379,-0.023 0.374,-0.041C0.371,-0.049 0.37,-0.054 0.369,-0.057C0.345,-0.034 0.32,-0.017 0.293,-0.005C0.267,0.006 0.238,0.012 0.208,0.012C0.155,0.012 0.113,-0.003 0.082,-0.032C0.051,-0.061 0.036,-0.097 0.036,-0.142C0.036,-0.171 0.043,-0.197 0.057,-0.22C0.071,-0.243 0.09,-0.26 0.115,-0.273C0.141,-0.285 0.177,-0.296 0.225,-0.305C0.289,-0.317 0.333,-0.328 0.358,-0.338L0.358,-0.352C0.358,-0.378 0.351,-0.397 0.338,-0.408C0.325,-0.42 0.301,-0.425 0.265,-0.425C0.24,-0.425 0.221,-0.42 0.208,-0.411C0.194,-0.401 0.183,-0.384 0.174,-0.36ZM0.358,-0.249C0.34,-0.243 0.313,-0.236 0.274,-0.228C0.236,-0.22 0.211,-0.212 0.2,-0.204C0.182,-0.191 0.173,-0.175 0.173,-0.156C0.173,-0.137 0.18,-0.12 0.194,-0.106C0.209,-0.092 0.227,-0.085 0.249,-0.085C0.274,-0.085 0.297,-0.093 0.32,-0.109C0.336,-0.122 0.347,-0.137 0.353,-0.155C0.356,-0.167 0.358,-0.189 0.358,-0.222L0.358,-0.249Z" style="fill-rule:nonzero;"/>
                </g>
                <g transform="matrix(26,0,0,26,110.871,116.056)">
                    <path d="M0.062,-0.519L0.188,-0.519L0.188,-0.448C0.233,-0.503 0.287,-0.53 0.35,-0.53C0.383,-0.53 0.412,-0.523 0.436,-0.51C0.46,-0.496 0.48,-0.475 0.496,-0.448C0.519,-0.475 0.543,-0.496 0.57,-0.51C0.596,-0.523 0.624,-0.53 0.654,-0.53C0.692,-0.53 0.725,-0.523 0.751,-0.507C0.777,-0.492 0.797,-0.469 0.81,-0.439C0.819,-0.417 0.824,-0.381 0.824,-0.332L0.824,-0L0.687,-0L0.687,-0.296C0.687,-0.348 0.682,-0.381 0.673,-0.396C0.66,-0.416 0.641,-0.425 0.614,-0.425C0.595,-0.425 0.577,-0.419 0.56,-0.408C0.543,-0.396 0.531,-0.379 0.523,-0.356C0.516,-0.334 0.512,-0.298 0.512,-0.249L0.512,-0L0.375,-0L0.375,-0.284C0.375,-0.335 0.373,-0.367 0.368,-0.382C0.363,-0.396 0.355,-0.407 0.345,-0.415C0.335,-0.422 0.321,-0.425 0.303,-0.425C0.282,-0.425 0.263,-0.42 0.246,-0.408C0.229,-0.397 0.217,-0.38 0.21,-0.359C0.202,-0.337 0.199,-0.302 0.199,-0.252L0.199,-0L0.062,-0L0.062,-0.519Z" style="fill-rule:nonzero;"/>
                </g>
                <g transform="matrix(26,0,0,26,133.989,116.056)">
                    <path d="M0.372,-0.165L0.509,-0.142C0.491,-0.092 0.463,-0.054 0.426,-0.028C0.388,-0.001 0.34,0.012 0.283,0.012C0.193,0.012 0.126,-0.018 0.083,-0.077C0.049,-0.124 0.032,-0.183 0.032,-0.255C0.032,-0.341 0.054,-0.409 0.099,-0.457C0.144,-0.506 0.201,-0.53 0.27,-0.53C0.347,-0.53 0.408,-0.505 0.452,-0.454C0.497,-0.403 0.518,-0.325 0.516,-0.22L0.172,-0.22C0.173,-0.179 0.184,-0.147 0.206,-0.125C0.227,-0.102 0.253,-0.091 0.285,-0.091C0.306,-0.091 0.324,-0.097 0.339,-0.108C0.354,-0.12 0.365,-0.139 0.372,-0.165ZM0.38,-0.304C0.379,-0.343 0.369,-0.374 0.349,-0.394C0.33,-0.415 0.306,-0.425 0.278,-0.425C0.248,-0.425 0.223,-0.414 0.204,-0.393C0.184,-0.371 0.174,-0.341 0.175,-0.304L0.38,-0.304Z" style="fill-rule:nonzero;"/>
                </g>
            </g>
        </g>
        <g transform="matrix(3.0054,0,0,0.5,-48.3291,-2)">
            <g transform="matrix(0.633028,0,0,1,22.3853,0)">
                <rect x="61" y="83" width="218" height="95" style="fill:rgb(179,179,179);stroke:black;stroke-width:0.48px;"/>
            </g>
            <g transform="matrix(0.333215,0,0,2,40.6739,-83)">
                <g transform="matrix(26,0,0,26,239.897,116.056)">
                    <path d="M0.072,-0.716L0.336,-0.716C0.396,-0.716 0.441,-0.711 0.473,-0.702C0.515,-0.69 0.551,-0.668 0.581,-0.636C0.611,-0.605 0.633,-0.566 0.649,-0.52C0.665,-0.475 0.672,-0.418 0.672,-0.351C0.672,-0.292 0.665,-0.241 0.65,-0.199C0.632,-0.147 0.607,-0.104 0.574,-0.072C0.549,-0.048 0.515,-0.029 0.472,-0.015C0.44,-0.005 0.398,-0 0.344,-0L0.072,-0L0.072,-0.716ZM0.217,-0.595L0.217,-0.121L0.325,-0.121C0.365,-0.121 0.394,-0.123 0.412,-0.127C0.436,-0.133 0.455,-0.143 0.47,-0.157C0.486,-0.171 0.499,-0.194 0.508,-0.226C0.518,-0.258 0.523,-0.302 0.523,-0.357C0.523,-0.413 0.518,-0.455 0.508,-0.485C0.499,-0.514 0.485,-0.538 0.467,-0.554C0.45,-0.571 0.427,-0.582 0.4,-0.588C0.38,-0.592 0.341,-0.595 0.282,-0.595L0.217,-0.595Z" style="fill-rule:nonzero;"/>
                </g>
                <g transform="matrix(26,0,0,26,258.673,116.056)">
                    <path d="M0.174,-0.36L0.05,-0.383C0.064,-0.433 0.088,-0.47 0.122,-0.494C0.156,-0.518 0.207,-0.53 0.274,-0.53C0.336,-0.53 0.381,-0.523 0.411,-0.509C0.441,-0.494 0.462,-0.476 0.474,-0.453C0.487,-0.431 0.493,-0.39 0.493,-0.331L0.491,-0.17C0.491,-0.125 0.493,-0.091 0.498,-0.07C0.502,-0.048 0.51,-0.025 0.522,-0L0.387,-0C0.383,-0.009 0.379,-0.023 0.374,-0.041C0.371,-0.049 0.37,-0.054 0.369,-0.057C0.345,-0.034 0.32,-0.017 0.293,-0.005C0.267,0.006 0.238,0.012 0.208,0.012C0.155,0.012 0.113,-0.003 0.082,-0.032C0.051,-0.061 0.036,-0.097 0.036,-0.142C0.036,-0.171 0.043,-0.197 0.057,-0.22C0.071,-0.243 0.09,-0.26 0.115,-0.273C0.141,-0.285 0.177,-0.296 0.225,-0.305C0.289,-0.317 0.333,-0.328 0.358,-0.338L0.358,-0.352C0.358,-0.378 0.351,-0.397 0.338,-0.408C0.325,-0.42 0.301,-0.425 0.265,-0.425C0.24,-0.425 0.221,-0.42 0.208,-0.411C0.194,-0.401 0.183,-0.384 0.174,-0.36ZM0.358,-0.249C0.34,-0.243 0.313,-0.236 0.274,-0.228C0.236,-0.22 0.211,-0.212 0.2,-0.204C0.182,-0.191 0.173,-0.175 0.173,-0.156C0.173,-0.137 0.18,-0.12 0.194,-0.106C0.209,-0.092 0.227,-0.085 0.249,-0.085C0.274,-0.085 0.297,-0.093 0.32,-0.109C0.336,-0.122 0.347,-0.137 0.353,-0.155C0.356,-0.167 0.358,-0.189 0.358,-0.222L0.358,-0.249Z" style="fill-rule:nonzero;"/>
                </g>
                <g transform="matrix(26,0,0,26,273.133,116.056)">
                    <path d="M0.31,-0.519L0.31,-0.409L0.216,-0.409L0.216,-0.2C0.216,-0.158 0.217,-0.133 0.219,-0.126C0.22,-0.119 0.224,-0.113 0.231,-0.109C0.237,-0.104 0.245,-0.102 0.254,-0.102C0.267,-0.102 0.285,-0.106 0.309,-0.115L0.321,-0.009C0.289,0.005 0.253,0.012 0.212,0.012C0.188,0.012 0.165,0.008 0.146,-0.001C0.126,-0.009 0.111,-0.02 0.102,-0.033C0.093,-0.046 0.086,-0.064 0.083,-0.086C0.08,-0.102 0.078,-0.135 0.078,-0.183L0.078,-0.409L0.015,-0.409L0.015,-0.519L0.078,-0.519L0.078,-0.622L0.216,-0.702L0.216,-0.519L0.31,-0.519Z" style="fill-rule:nonzero;"/>
                </g>
                <g transform="matrix(26,0,0,26,281.791,116.056)">
                    <path d="M0.174,-0.36L0.05,-0.383C0.064,-0.433 0.088,-0.47 0.122,-0.494C0.156,-0.518 0.207,-0.53 0.274,-0.53C0.336,-0.53 0.381,-0.523 0.411,-0.509C0.441,-0.494 0.462,-0.476 0.474,-0.453C0.487,-0.431 0.493,-0.39 0.493,-0.331L0.491,-0.17C0.491,-0.125 0.493,-0.091 0.498,-0.07C0.502,-0.048 0.51,-0.025 0.522,-0L0.387,-0C0.383,-0.009 0.379,-0.023 0.374,-0.041C0.371,-0.049 0.37,-0.054 0.369,-0.057C0.345,-0.034 0.32,-0.017 0.293,-0.005C0.267,0.006 0.238,0.012 0.208,0.012C0.155,0.012 0.113,-0.003 0.082,-0.032C0.051,-0.061 0.036,-0.097 0.036,-0.142C0.036,-0.171 0.043,-0.197 0.057,-0.22C0.071,-0.243 0.09,-0.26 0.115,-0.273C0.141,-0.285 0.177,-0.296 0.225,-0.305C0.289,-0.317 0.333,-0.328 0.358,-0.338L0.358,-0.352C0.358,-0.378 0.351,-0.397 0.338,-0.408C0.325,-0.42 0.301,-0.425 0.265,-0.425C0.24,-0.425 0.221,-0.42 0.208,-0.411C0.194,-0.401 0.183,-0.384 0.174,-0.36ZM0.358,-0.249C0.34,-0.243 0.313,-0.236 0.274,-0.228C0.236,-0.22 0.211,-0.212 0.2,-0.204C0.182,-0.191 0.173,-0.175 0.173,-0.156C0.173,-0.137 0.18,-0.12 0.194,-0.106C0.209,-0.092 0.227,-0.085 0.249,-0.085C0.274,-0.085 0.297,-0.093 0.32,-0.109C0.336,-0.122 0.347,-0.137 0.353,-0.155C0.356,-0.167 0.358,-0.189 0.358,-0.222L0.358,-0.249Z" style="fill-rule:nonzero;"/>
                </g>
            </g>
        </g>
    </g>
    <g id="State-Header" serif:id="State Header" transform="matrix(1.54933,0,0,0.75,772.6,-61.75)">
        <g transform="matrix(0.633028,0,0,1,22.3853,0)">
            <rect x="61" y="83" width="218" height="95" style="fill:rgb(179,179,179);stroke:black;stroke-width:1.15px;"/>
        </g>
        <g transform="matrix(0.968163,0,0,2,1.94207,-83)">
            <g transform="matrix(26,0,0,26,87.4863,116.056)">
                <path d="M0.071,-0L0.071,-0.716L0.287,-0.716L0.417,-0.228L0.545,-0.716L0.762,-0.716L0.762,-0L0.628,-0L0.628,-0.563L0.486,-0L0.347,-0L0.205,-0.563L0.205,-0L0.071,-0Z" style="fill-rule:nonzero;"/>
            </g>
            <g transform="matrix(26,0,0,26,109.144,116.056)">
                <path d="M0.372,-0.165L0.509,-0.142C0.491,-0.092 0.463,-0.054 0.426,-0.028C0.388,-0.001 0.34,0.012 0.283,0.012C0.193,0.012 0.126,-0.018 0.083,-0.077C0.049,-0.124 0.032,-0.183 0.032,-0.255C0.032,-0.341 0.054,-0.409 0.099,-0.457C0.144,-0.506 0.201,-0.53 0.27,-0.53C0.347,-0.53 0.408,-0.505 0.452,-0.454C0.497,-0.403 0.518,-0.325 0.516,-0.22L0.172,-0.22C0.173,-0.179 0.184,-0.147 0.206,-0.125C0.227,-0.102 0.253,-0.091 0.285,-0.091C0.306,-0.091 0.324,-0.097 0.339,-0.108C0.354,-0.12 0.365,-0.139 0.372,-0.165ZM0.38,-0.304C0.379,-0.343 0.369,-0.374 0.349,-0.394C0.33,-0.415 0.306,-0.425 0.278,-0.425C0.248,-0.425 0.223,-0.414 0.204,-0.393C0.184,-0.371 0.174,-0.341 0.175,-0.304L0.38,-0.304Z" style="fill-rule:nonzero;"/>
            </g>
            <g transform="matrix(26,0,0,26,123.604,116.056)">
                <path d="M0.547,-0L0.42,-0L0.42,-0.076C0.399,-0.047 0.374,-0.024 0.345,-0.01C0.316,0.004 0.287,0.012 0.258,0.012C0.198,0.012 0.147,-0.012 0.105,-0.06C0.062,-0.108 0.041,-0.175 0.041,-0.261C0.041,-0.349 0.062,-0.416 0.103,-0.462C0.144,-0.507 0.197,-0.53 0.26,-0.53C0.318,-0.53 0.368,-0.506 0.41,-0.458L0.41,-0.716L0.547,-0.716L0.547,-0ZM0.181,-0.271C0.181,-0.215 0.189,-0.175 0.204,-0.15C0.226,-0.115 0.257,-0.097 0.297,-0.097C0.328,-0.097 0.355,-0.11 0.377,-0.137C0.4,-0.164 0.411,-0.204 0.411,-0.257C0.411,-0.317 0.4,-0.36 0.378,-0.386C0.357,-0.412 0.329,-0.425 0.296,-0.425C0.263,-0.425 0.236,-0.412 0.214,-0.386C0.192,-0.361 0.181,-0.322 0.181,-0.271Z" style="fill-rule:nonzero;"/>
            </g>
            <g transform="matrix(26,0,0,26,139.486,116.056)">
                <path d="M0.072,-0.589L0.072,-0.716L0.209,-0.716L0.209,-0.589L0.072,-0.589ZM0.072,-0L0.072,-0.519L0.209,-0.519L0.209,-0L0.072,-0Z" style="fill-rule:nonzero;"/>
            </g>
            <g transform="matrix(26,0,0,26,146.71,116.056)">
                <path d="M0.174,-0.36L0.05,-0.383C0.064,-0.433 0.088,-0.47 0.122,-0.494C0.156,-0.518 0.207,-0.53 0.274,-0.53C0.336,-0.53 0.381,-0.523 0.411,-0.509C0.441,-0.494 0.462,-0.476 0.474,-0.453C0.487,-0.431 0.493,-0.39 0.493,-0.331L0.491,-0.17C0.491,-0.125 0.493,-0.091 0.498,-0.07C0.502,-0.048 0.51,-0.025 0.522,-0L0.387,-0C0.383,-0.009 0.379,-0.023 0.374,-0.041C0.371,-0.049 0.37,-0.054 0.369,-0.057C0.345,-0.034 0.32,-0.017 0.293,-0.005C0.267,0.006 0.238,0.012 0.208,0.012C0.155,0.012 0.113,-0.003 0.082,-0.032C0.051,-0.061 0.036,-0.097 0.036,-0.142C0.036,-0.171 0.043,-0.197 0.057,-0.22C0.071,-0.243 0.09,-0.26 0.115,-0.273C0.141,-0.285 0.177,-0.296 0.225,-0.305C0.289,-0.317 0.333,-0.328 0.358,-0.338L0.358,-0.352C0.358,-0.378 0.351,-0.397 0.338,-0.408C0.325,-0.42 0.301,-0.425 0.265,-0.425C0.24,-0.425 0.221,-0.42 0.208,-0.411C0.194,-0.401 0.183,-0.384 0.174,-0.36ZM0.358,-0.249C0.34,-0.243 0.313,-0.236 0.274,-0.228C0.236,-0.22 0.211,-0.212 0.2,-0.204C0.182,-0.191 0.173,-0.175 0.173,-0.156C0.173,-0.137 0.18,-0.12 0.194,-0.106C0.209,-0.092 0.227,-0.085 0.249,-0.085C0.274,-0.085 0.297,-0.093 0.32,-0.109C0.336,-0.122 0.347,-0.137 0.353,-0.155C0.356,-0.167 0.358,-0.189 0.358,-0.222L0.358,-0.249Z" style="fill-rule:nonzero;"/>
            </g>
            <g transform="matrix(26,0,0,26,161.17,116.056)">
                <path d="M0.543,-0L0.406,-0L0.406,-0.265C0.406,-0.321 0.403,-0.357 0.397,-0.373C0.392,-0.39 0.382,-0.403 0.369,-0.412C0.356,-0.421 0.34,-0.425 0.321,-0.425C0.298,-0.425 0.276,-0.419 0.257,-0.406C0.238,-0.393 0.226,-0.375 0.219,-0.354C0.212,-0.333 0.208,-0.293 0.208,-0.235L0.208,-0L0.071,-0L0.071,-0.519L0.198,-0.519L0.198,-0.442C0.243,-0.501 0.3,-0.53 0.369,-0.53C0.399,-0.53 0.427,-0.525 0.452,-0.514C0.477,-0.503 0.496,-0.489 0.509,-0.472C0.522,-0.455 0.531,-0.436 0.536,-0.415C0.541,-0.393 0.543,-0.362 0.543,-0.322L0.543,-0Z" style="fill-rule:nonzero;"/>
            </g>
        </g>
    </g>
</svg>
