<?xml version="1.0" encoding="UTF-8" standalone="no"?>
<!DOCTYPE svg PUBLIC "-//W3C//DTD SVG 1.1//EN" "http://www.w3.org/Graphics/SVG/1.1/DTD/svg11.dtd">
<svg width="100%" height="100%" viewBox="0 0 918 285" version="1.1" xmlns="http://www.w3.org/2000/svg" xmlns:xlink="http://www.w3.org/1999/xlink" xml:space="preserve" xmlns:serif="http://www.serif.com/" style="fill-rule:evenodd;clip-rule:evenodd;stroke-linecap:round;stroke-linejoin:round;stroke-miterlimit:1.5;">
    <g id="Frame-0" serif:id="Frame 0" transform="matrix(1,0,0,1,-37.5,-39)">
        <g id="Data-0" serif:id="Data 0">
            <g transform="matrix(0.702899,0,0,0.5,-4.87681,45.5)">
                <g transform="matrix(0.633028,0,0,1,22.3853,0)">
                    <rect x="61" y="83" width="218" height="95" style="fill:rgb(217,217,217);stroke:black;stroke-width:2.11px;"/>
                </g>
                <g transform="matrix(1.42268,0,0,2,-25.7835,-83)">
                    <g transform="matrix(26,0,0,26,102.27,116.056)">
                        <path d="M0.274,-0.719C0.344,-0.719 0.398,-0.694 0.437,-0.645C0.484,-0.586 0.507,-0.489 0.507,-0.353C0.507,-0.218 0.483,-0.12 0.437,-0.061C0.398,-0.012 0.344,0.012 0.274,0.012C0.205,0.012 0.149,-0.015 0.106,-0.068C0.063,-0.122 0.042,-0.217 0.042,-0.354C0.042,-0.489 0.065,-0.586 0.112,-0.646C0.151,-0.694 0.205,-0.719 0.274,-0.719ZM0.274,-0.605C0.258,-0.605 0.243,-0.6 0.23,-0.589C0.217,-0.579 0.207,-0.56 0.2,-0.532C0.19,-0.497 0.186,-0.437 0.186,-0.353C0.186,-0.269 0.19,-0.211 0.198,-0.18C0.207,-0.149 0.217,-0.128 0.23,-0.117C0.243,-0.107 0.258,-0.102 0.274,-0.102C0.291,-0.102 0.306,-0.107 0.319,-0.117C0.332,-0.128 0.342,-0.147 0.349,-0.174C0.359,-0.209 0.363,-0.269 0.363,-0.353C0.363,-0.437 0.359,-0.495 0.351,-0.526C0.342,-0.558 0.331,-0.579 0.319,-0.589C0.306,-0.6 0.291,-0.605 0.274,-0.605Z" style="fill-rule:nonzero;"/>
                    </g>
                </g>
            </g>
            <g transform="matrix(0.5,0,0,0.5,104.5,45.5)">
                <g transform="matrix(0.633028,0,0,1,22.3853,0)">
                    <rect x="61" y="83" width="218" height="95" style="fill:rgb(0,255,5);stroke:black;stroke-width:2.39px;"/>
                </g>
                <g transform="matrix(2,0,0,2,-61,-83)">
                    <g transform="matrix(36,0,0,36,85.4893,119.635)">
                        <path d="M0.524,-0.365L0.389,-0.341C0.384,-0.368 0.374,-0.388 0.358,-0.402C0.342,-0.416 0.321,-0.422 0.295,-0.422C0.261,-0.422 0.233,-0.411 0.213,-0.387C0.193,-0.363 0.183,-0.324 0.183,-0.269C0.183,-0.207 0.193,-0.164 0.214,-0.138C0.234,-0.113 0.262,-0.1 0.297,-0.1C0.323,-0.1 0.344,-0.108 0.361,-0.122C0.377,-0.137 0.389,-0.163 0.396,-0.199L0.531,-0.176C0.517,-0.114 0.49,-0.067 0.45,-0.036C0.41,-0.004 0.357,0.012 0.291,0.012C0.215,0.012 0.154,-0.012 0.109,-0.06C0.064,-0.108 0.042,-0.174 0.042,-0.259C0.042,-0.344 0.064,-0.411 0.109,-0.459C0.155,-0.506 0.216,-0.53 0.293,-0.53C0.356,-0.53 0.406,-0.517 0.444,-0.49C0.481,-0.462 0.508,-0.421 0.524,-0.365Z" style="fill-rule:nonzero;"/>
                    </g>
                </g>
            </g>
            <g transform="matrix(0.5,0,0,0.5,173.5,45.5)">
                <g transform="matrix(0.633028,0,0,1,22.3853,0)">
                    <rect x="61" y="83" width="218" height="95" style="fill:rgb(0,255,5);stroke:black;stroke-width:2.39px;"/>
                </g>
                <g transform="matrix(2,0,0,2,-61,-83)">
                    <g transform="matrix(36,0,0,36,84.5049,119.635)">
                        <path d="M0.547,-0L0.42,-0L0.42,-0.076C0.399,-0.047 0.374,-0.024 0.345,-0.01C0.316,0.004 0.287,0.012 0.258,0.012C0.198,0.012 0.147,-0.012 0.105,-0.06C0.062,-0.108 0.041,-0.175 0.041,-0.261C0.041,-0.349 0.062,-0.416 0.103,-0.462C0.144,-0.507 0.197,-0.53 0.26,-0.53C0.318,-0.53 0.368,-0.506 0.41,-0.458L0.41,-0.716L0.547,-0.716L0.547,-0ZM0.181,-0.271C0.181,-0.215 0.189,-0.175 0.204,-0.15C0.226,-0.115 0.257,-0.097 0.297,-0.097C0.328,-0.097 0.355,-0.11 0.377,-0.137C0.4,-0.164 0.411,-0.204 0.411,-0.257C0.411,-0.317 0.4,-0.36 0.378,-0.386C0.357,-0.412 0.329,-0.425 0.296,-0.425C0.263,-0.425 0.236,-0.412 0.214,-0.386C0.192,-0.361 0.181,-0.322 0.181,-0.271Z" style="fill-rule:nonzero;"/>
                    </g>
                </g>
            </g>
            <g transform="matrix(0.5,0,0,0.5,242.5,45.5)">
                <g transform="matrix(0.633028,0,0,1,22.3853,0)">
                    <rect x="61" y="83" width="218" height="95" style="fill:rgb(0,255,5);stroke:black;stroke-width:2.39px;"/>
                </g>
                <g transform="matrix(2,0,0,2,-61,-83)">
                    <g transform="matrix(36,0,0,36,85.4893,119.635)">
                        <path d="M0.524,-0.365L0.389,-0.341C0.384,-0.368 0.374,-0.388 0.358,-0.402C0.342,-0.416 0.321,-0.422 0.295,-0.422C0.261,-0.422 0.233,-0.411 0.213,-0.387C0.193,-0.363 0.183,-0.324 0.183,-0.269C0.183,-0.207 0.193,-0.164 0.214,-0.138C0.234,-0.113 0.262,-0.1 0.297,-0.1C0.323,-0.1 0.344,-0.108 0.361,-0.122C0.377,-0.137 0.389,-0.163 0.396,-0.199L0.531,-0.176C0.517,-0.114 0.49,-0.067 0.45,-0.036C0.41,-0.004 0.357,0.012 0.291,0.012C0.215,0.012 0.154,-0.012 0.109,-0.06C0.064,-0.108 0.042,-0.174 0.042,-0.259C0.042,-0.344 0.064,-0.411 0.109,-0.459C0.155,-0.506 0.216,-0.53 0.293,-0.53C0.356,-0.53 0.406,-0.517 0.444,-0.49C0.481,-0.462 0.508,-0.421 0.524,-0.365Z" style="fill-rule:nonzero;"/>
                    </g>
                </g>
            </g>
            <g transform="matrix(0.5,0,0,0.5,311.5,45.5)">
                <g transform="matrix(0.633028,0,0,1,22.3853,0)">
                    <rect x="61" y="83" width="218" height="95" style="fill:rgb(0,255,5);stroke:black;stroke-width:2.39px;"/>
                </g>
                <g transform="matrix(2,0,0,2,-61,-83)">
                    <g transform="matrix(36,0,0,36,84.5049,119.635)">
                        <path d="M0.066,-0L0.066,-0.716L0.203,-0.716L0.203,-0.458C0.245,-0.506 0.296,-0.53 0.354,-0.53C0.417,-0.53 0.469,-0.507 0.51,-0.462C0.552,-0.416 0.572,-0.35 0.572,-0.265C0.572,-0.176 0.551,-0.108 0.509,-0.06C0.467,-0.012 0.416,0.012 0.355,0.012C0.326,0.012 0.297,0.004 0.268,-0.01C0.239,-0.025 0.214,-0.047 0.193,-0.076L0.193,-0L0.066,-0ZM0.202,-0.271C0.202,-0.217 0.211,-0.177 0.228,-0.151C0.251,-0.115 0.283,-0.097 0.322,-0.097C0.353,-0.097 0.378,-0.11 0.4,-0.135C0.421,-0.161 0.432,-0.202 0.432,-0.258C0.432,-0.317 0.421,-0.36 0.399,-0.386C0.378,-0.412 0.35,-0.425 0.317,-0.425C0.284,-0.425 0.257,-0.413 0.235,-0.387C0.213,-0.361 0.202,-0.323 0.202,-0.271Z" style="fill-rule:nonzero;"/>
                    </g>
                </g>
            </g>
            <g transform="matrix(1,0,0,1,350,4)">
                <g transform="matrix(0.316514,0,0,0.5,41.6927,41.5)">
                    <rect x="61" y="83" width="218" height="95" style="fill:white;stroke:black;stroke-width:2.39px;"/>
                </g>
                <g transform="matrix(36,0,0,36,84.5049,119.635)">
                    <path d="M0.059,0.034L0.216,0.053C0.218,0.071 0.224,0.084 0.234,0.091C0.247,0.101 0.267,0.105 0.295,0.105C0.331,0.105 0.358,0.1 0.376,0.089C0.388,0.082 0.397,0.071 0.403,0.055C0.408,0.043 0.41,0.022 0.41,-0.008L0.41,-0.084C0.369,-0.028 0.317,-0 0.254,-0C0.185,-0 0.13,-0.029 0.089,-0.088C0.057,-0.135 0.041,-0.193 0.041,-0.262C0.041,-0.349 0.062,-0.416 0.104,-0.461C0.146,-0.507 0.198,-0.53 0.26,-0.53C0.324,-0.53 0.377,-0.502 0.418,-0.446L0.418,-0.519L0.547,-0.519L0.547,-0.053C0.547,0.008 0.542,0.054 0.532,0.084C0.522,0.114 0.507,0.138 0.489,0.155C0.471,0.173 0.447,0.186 0.416,0.196C0.386,0.206 0.347,0.21 0.301,0.21C0.213,0.21 0.151,0.195 0.114,0.165C0.077,0.135 0.059,0.097 0.059,0.051C0.059,0.046 0.059,0.041 0.059,0.034ZM0.182,-0.27C0.182,-0.215 0.192,-0.175 0.214,-0.149C0.235,-0.124 0.261,-0.111 0.292,-0.111C0.326,-0.111 0.354,-0.124 0.377,-0.15C0.401,-0.176 0.412,-0.215 0.412,-0.267C0.412,-0.32 0.401,-0.36 0.379,-0.386C0.357,-0.412 0.329,-0.425 0.295,-0.425C0.262,-0.425 0.235,-0.413 0.214,-0.387C0.192,-0.361 0.182,-0.322 0.182,-0.27Z" style="fill-rule:nonzero;"/>
                </g>
            </g>
            <g transform="matrix(1,0,0,1,419,4)">
                <g transform="matrix(0.316514,0,0,0.5,41.6927,41.5)">
                    <rect x="61" y="83" width="218" height="95" style="fill:white;stroke:black;stroke-width:2.39px;"/>
                </g>
                <g transform="matrix(36,0,0,36,84.5049,119.635)">
                    <path d="M0.066,-0L0.066,-0.716L0.203,-0.716L0.203,-0.458C0.245,-0.506 0.296,-0.53 0.354,-0.53C0.417,-0.53 0.469,-0.507 0.51,-0.462C0.552,-0.416 0.572,-0.35 0.572,-0.265C0.572,-0.176 0.551,-0.108 0.509,-0.06C0.467,-0.012 0.416,0.012 0.355,0.012C0.326,0.012 0.297,0.004 0.268,-0.01C0.239,-0.025 0.214,-0.047 0.193,-0.076L0.193,-0L0.066,-0ZM0.202,-0.271C0.202,-0.217 0.211,-0.177 0.228,-0.151C0.251,-0.115 0.283,-0.097 0.322,-0.097C0.353,-0.097 0.378,-0.11 0.4,-0.135C0.421,-0.161 0.432,-0.202 0.432,-0.258C0.432,-0.317 0.421,-0.36 0.399,-0.386C0.378,-0.412 0.35,-0.425 0.317,-0.425C0.284,-0.425 0.257,-0.413 0.235,-0.387C0.213,-0.361 0.202,-0.323 0.202,-0.271Z" style="fill-rule:nonzero;"/>
                </g>
            </g>
            <g transform="matrix(1,0,0,1,488,4)">
                <g transform="matrix(0.316514,0,0,0.5,41.6927,41.5)">
                    <rect x="61" y="83" width="218" height="95" style="fill:white;stroke:black;stroke-width:2.39px;"/>
                </g>
                <g transform="matrix(36,0,0,36,85.4893,119.635)">
                    <path d="M0.372,-0.165L0.509,-0.142C0.491,-0.092 0.463,-0.054 0.426,-0.028C0.388,-0.001 0.34,0.012 0.283,0.012C0.193,0.012 0.126,-0.018 0.083,-0.077C0.049,-0.124 0.032,-0.183 0.032,-0.255C0.032,-0.341 0.054,-0.409 0.099,-0.457C0.144,-0.506 0.201,-0.53 0.27,-0.53C0.347,-0.53 0.408,-0.505 0.452,-0.454C0.497,-0.403 0.518,-0.325 0.516,-0.22L0.172,-0.22C0.173,-0.179 0.184,-0.147 0.206,-0.125C0.227,-0.102 0.253,-0.091 0.285,-0.091C0.306,-0.091 0.324,-0.097 0.339,-0.108C0.354,-0.12 0.365,-0.139 0.372,-0.165ZM0.38,-0.304C0.379,-0.343 0.369,-0.374 0.349,-0.394C0.33,-0.415 0.306,-0.425 0.278,-0.425C0.248,-0.425 0.223,-0.414 0.204,-0.393C0.184,-0.371 0.174,-0.341 0.175,-0.304L0.38,-0.304Z" style="fill-rule:nonzero;"/>
                </g>
            </g>
            <g transform="matrix(1,0,0,1,557,4)">
                <g transform="matrix(0.316514,0,0,0.5,41.6927,41.5)">
                    <rect x="61" y="83" width="218" height="95" style="fill:white;stroke:black;stroke-width:2.39px;"/>
                </g>
                <g transform="matrix(36,0,0,36,84.5049,119.635)">
                    <path d="M0.547,-0L0.42,-0L0.42,-0.076C0.399,-0.047 0.374,-0.024 0.345,-0.01C0.316,0.004 0.287,0.012 0.258,0.012C0.198,0.012 0.147,-0.012 0.105,-0.06C0.062,-0.108 0.041,-0.175 0.041,-0.261C0.041,-0.349 0.062,-0.416 0.103,-0.462C0.144,-0.507 0.197,-0.53 0.26,-0.53C0.318,-0.53 0.368,-0.506 0.41,-0.458L0.41,-0.716L0.547,-0.716L0.547,-0ZM0.181,-0.271C0.181,-0.215 0.189,-0.175 0.204,-0.15C0.226,-0.115 0.257,-0.097 0.297,-0.097C0.328,-0.097 0.355,-0.11 0.377,-0.137C0.4,-0.164 0.411,-0.204 0.411,-0.257C0.411,-0.317 0.4,-0.36 0.378,-0.386C0.357,-0.412 0.329,-0.425 0.296,-0.425C0.263,-0.425 0.236,-0.412 0.214,-0.386C0.192,-0.361 0.181,-0.322 0.181,-0.271Z" style="fill-rule:nonzero;"/>
                </g>
            </g>
        </g>
        <g id="Mode-0" serif:id="Mode 0">
            <g transform="matrix(0.656448,0,0,0.5,728.957,45.5)">
                <g transform="matrix(0.649869,0,0,1,21.358,0)">
                    <rect x="61" y="83" width="218" height="95" style="fill:rgb(0,191,255);stroke:black;stroke-width:2.15px;"/>
                </g>
                <g transform="matrix(1.52335,0,0,2,-31.9243,-83)">
                    <g transform="matrix(36,0,0,36,97.4893,119.635)">
                        <path d="M0.524,-0.365L0.389,-0.341C0.384,-0.368 0.374,-0.388 0.358,-0.402C0.342,-0.416 0.321,-0.422 0.295,-0.422C0.261,-0.422 0.233,-0.411 0.213,-0.387C0.193,-0.363 0.183,-0.324 0.183,-0.269C0.183,-0.207 0.193,-0.164 0.214,-0.138C0.234,-0.113 0.262,-0.1 0.297,-0.1C0.323,-0.1 0.344,-0.108 0.361,-0.122C0.377,-0.137 0.389,-0.163 0.396,-0.199L0.531,-0.176C0.517,-0.114 0.49,-0.067 0.45,-0.036C0.41,-0.004 0.357,0.012 0.291,0.012C0.215,0.012 0.154,-0.012 0.109,-0.06C0.064,-0.108 0.042,-0.174 0.042,-0.259C0.042,-0.344 0.064,-0.411 0.109,-0.459C0.155,-0.506 0.216,-0.53 0.293,-0.53C0.356,-0.53 0.406,-0.517 0.444,-0.49C0.481,-0.462 0.508,-0.421 0.524,-0.365Z" style="fill-rule:nonzero;"/>
                    </g>
                </g>
            </g>
            <g transform="matrix(0.673913,0,0,0.5,820.891,45.5)">
                <g transform="matrix(0.633028,0,0,1,22.3853,0)">
                    <rect x="61" y="83" width="218" height="95" style="fill:white;stroke:black;stroke-width:2.15px;"/>
                </g>
                <g transform="matrix(1.48387,0,0,2,-29.5161,-83)">
                    <g transform="matrix(36,0,0,36,97.4893,119.635)">
                        <path d="M0.506,-0.127L0.506,-0L0.025,-0C0.03,-0.048 0.046,-0.094 0.072,-0.137C0.098,-0.18 0.149,-0.237 0.226,-0.309C0.288,-0.366 0.326,-0.405 0.34,-0.426C0.359,-0.454 0.368,-0.482 0.368,-0.51C0.368,-0.54 0.36,-0.564 0.344,-0.58C0.327,-0.597 0.304,-0.605 0.275,-0.605C0.247,-0.605 0.224,-0.596 0.207,-0.579C0.19,-0.562 0.18,-0.533 0.178,-0.493L0.041,-0.507C0.049,-0.582 0.075,-0.637 0.118,-0.669C0.161,-0.702 0.214,-0.719 0.279,-0.719C0.349,-0.719 0.405,-0.7 0.445,-0.662C0.486,-0.624 0.506,-0.576 0.506,-0.52C0.506,-0.487 0.5,-0.457 0.489,-0.427C0.477,-0.398 0.459,-0.368 0.434,-0.336C0.417,-0.315 0.387,-0.284 0.344,-0.245C0.3,-0.205 0.273,-0.179 0.261,-0.166C0.25,-0.153 0.241,-0.14 0.233,-0.127L0.506,-0.127Z" style="fill-rule:nonzero;"/>
                    </g>
                </g>
            </g>
        </g>
    </g>
    <g id="Frame-1" serif:id="Frame 1" transform="matrix(1,0,0,1,-37.5,-39)">
        <g id="Data-1" serif:id="Data 1" transform="matrix(1,0,0,1,0,47.5)">
            <g transform="matrix(0.702899,0,0,0.5,-4.87681,45.5)">
                <g transform="matrix(0.633028,0,0,1,22.3853,0)">
                    <rect x="61" y="83" width="218" height="95" style="fill:rgb(217,217,217);stroke:black;stroke-width:2.11px;"/>
                </g>
                <g transform="matrix(1.42268,0,0,2,-25.7835,-83)">
                    <g transform="matrix(26,0,0,26,102.27,116.056)">
                        <path d="M0.394,-0L0.256,-0L0.256,-0.517C0.206,-0.47 0.147,-0.436 0.079,-0.413L0.079,-0.538C0.115,-0.549 0.154,-0.572 0.196,-0.604C0.238,-0.637 0.267,-0.675 0.282,-0.719L0.394,-0.719L0.394,-0Z" style="fill-rule:nonzero;"/>
                    </g>
                </g>
            </g>
            <g transform="matrix(0.5,0,0,0.5,104.5,45.5)">
                <g transform="matrix(0.633028,0,0,1,22.3853,0)">
                    <rect x="61" y="83" width="218" height="95" style="fill:white;stroke:black;stroke-width:2.39px;"/>
                </g>
                <g transform="matrix(2,0,0,2,-61,-83)">
                    <g transform="matrix(36,0,0,36,85.4893,119.635)">
                        <path d="M0.524,-0.365L0.389,-0.341C0.384,-0.368 0.374,-0.388 0.358,-0.402C0.342,-0.416 0.321,-0.422 0.295,-0.422C0.261,-0.422 0.233,-0.411 0.213,-0.387C0.193,-0.363 0.183,-0.324 0.183,-0.269C0.183,-0.207 0.193,-0.164 0.214,-0.138C0.234,-0.113 0.262,-0.1 0.297,-0.1C0.323,-0.1 0.344,-0.108 0.361,-0.122C0.377,-0.137 0.389,-0.163 0.396,-0.199L0.531,-0.176C0.517,-0.114 0.49,-0.067 0.45,-0.036C0.41,-0.004 0.357,0.012 0.291,0.012C0.215,0.012 0.154,-0.012 0.109,-0.06C0.064,-0.108 0.042,-0.174 0.042,-0.259C0.042,-0.344 0.064,-0.411 0.109,-0.459C0.155,-0.506 0.216,-0.53 0.293,-0.53C0.356,-0.53 0.406,-0.517 0.444,-0.49C0.481,-0.462 0.508,-0.421 0.524,-0.365Z" style="fill-rule:nonzero;"/>
                    </g>
                </g>
            </g>
            <g transform="matrix(0.5,0,0,0.5,173.5,45.5)">
                <g transform="matrix(0.633028,0,0,1,22.3853,0)">
                    <rect x="61" y="83" width="218" height="95" style="fill:rgb(0,255,5);stroke:black;stroke-width:2.39px;"/>
                </g>
                <g transform="matrix(2,0,0,2,-61,-83)">
                    <g transform="matrix(36,0,0,36,84.5049,119.635)">
                        <path d="M0.547,-0L0.42,-0L0.42,-0.076C0.399,-0.047 0.374,-0.024 0.345,-0.01C0.316,0.004 0.287,0.012 0.258,0.012C0.198,0.012 0.147,-0.012 0.105,-0.06C0.062,-0.108 0.041,-0.175 0.041,-0.261C0.041,-0.349 0.062,-0.416 0.103,-0.462C0.144,-0.507 0.197,-0.53 0.26,-0.53C0.318,-0.53 0.368,-0.506 0.41,-0.458L0.41,-0.716L0.547,-0.716L0.547,-0ZM0.181,-0.271C0.181,-0.215 0.189,-0.175 0.204,-0.15C0.226,-0.115 0.257,-0.097 0.297,-0.097C0.328,-0.097 0.355,-0.11 0.377,-0.137C0.4,-0.164 0.411,-0.204 0.411,-0.257C0.411,-0.317 0.4,-0.36 0.378,-0.386C0.357,-0.412 0.329,-0.425 0.296,-0.425C0.263,-0.425 0.236,-0.412 0.214,-0.386C0.192,-0.361 0.181,-0.322 0.181,-0.271Z" style="fill-rule:nonzero;"/>
                    </g>
                </g>
            </g>
            <g transform="matrix(0.5,0,0,0.5,242.5,45.5)">
                <g transform="matrix(0.633028,0,0,1,22.3853,0)">
                    <rect x="61" y="83" width="218" height="95" style="fill:rgb(0,255,5);stroke:black;stroke-width:2.39px;"/>
                </g>
                <g transform="matrix(2,0,0,2,-61,-83)">
                    <g transform="matrix(36,0,0,36,85.4893,119.635)">
                        <path d="M0.524,-0.365L0.389,-0.341C0.384,-0.368 0.374,-0.388 0.358,-0.402C0.342,-0.416 0.321,-0.422 0.295,-0.422C0.261,-0.422 0.233,-0.411 0.213,-0.387C0.193,-0.363 0.183,-0.324 0.183,-0.269C0.183,-0.207 0.193,-0.164 0.214,-0.138C0.234,-0.113 0.262,-0.1 0.297,-0.1C0.323,-0.1 0.344,-0.108 0.361,-0.122C0.377,-0.137 0.389,-0.163 0.396,-0.199L0.531,-0.176C0.517,-0.114 0.49,-0.067 0.45,-0.036C0.41,-0.004 0.357,0.012 0.291,0.012C0.215,0.012 0.154,-0.012 0.109,-0.06C0.064,-0.108 0.042,-0.174 0.042,-0.259C0.042,-0.344 0.064,-0.411 0.109,-0.459C0.155,-0.506 0.216,-0.53 0.293,-0.53C0.356,-0.53 0.406,-0.517 0.444,-0.49C0.481,-0.462 0.508,-0.421 0.524,-0.365Z" style="fill-rule:nonzero;"/>
                    </g>
                </g>
            </g>
            <g transform="matrix(0.5,0,0,0.5,311.5,45.5)">
                <g transform="matrix(0.633028,0,0,1,22.3853,0)">
                    <rect x="61" y="83" width="218" height="95" style="fill:rgb(0,255,5);stroke:black;stroke-width:2.39px;"/>
                </g>
                <g transform="matrix(2,0,0,2,-61,-83)">
                    <g transform="matrix(36,0,0,36,84.5049,119.635)">
                        <path d="M0.066,-0L0.066,-0.716L0.203,-0.716L0.203,-0.458C0.245,-0.506 0.296,-0.53 0.354,-0.53C0.417,-0.53 0.469,-0.507 0.51,-0.462C0.552,-0.416 0.572,-0.35 0.572,-0.265C0.572,-0.176 0.551,-0.108 0.509,-0.06C0.467,-0.012 0.416,0.012 0.355,0.012C0.326,0.012 0.297,0.004 0.268,-0.01C0.239,-0.025 0.214,-0.047 0.193,-0.076L0.193,-0L0.066,-0ZM0.202,-0.271C0.202,-0.217 0.211,-0.177 0.228,-0.151C0.251,-0.115 0.283,-0.097 0.322,-0.097C0.353,-0.097 0.378,-0.11 0.4,-0.135C0.421,-0.161 0.432,-0.202 0.432,-0.258C0.432,-0.317 0.421,-0.36 0.399,-0.386C0.378,-0.412 0.35,-0.425 0.317,-0.425C0.284,-0.425 0.257,-0.413 0.235,-0.387C0.213,-0.361 0.202,-0.323 0.202,-0.271Z" style="fill-rule:nonzero;"/>
                    </g>
                </g>
            </g>
            <g transform="matrix(1,0,0,1,350,4)">
                <g transform="matrix(0.316514,0,0,0.5,41.6927,41.5)">
                    <rect x="61" y="83" width="218" height="95" style="fill:rgb(0,255,5);stroke:black;stroke-width:2.39px;"/>
                </g>
                <g transform="matrix(36,0,0,36,84.5049,119.635)">
                    <path d="M0.059,0.034L0.216,0.053C0.218,0.071 0.224,0.084 0.234,0.091C0.247,0.101 0.267,0.105 0.295,0.105C0.331,0.105 0.358,0.1 0.376,0.089C0.388,0.082 0.397,0.071 0.403,0.055C0.408,0.043 0.41,0.022 0.41,-0.008L0.41,-0.084C0.369,-0.028 0.317,-0 0.254,-0C0.185,-0 0.13,-0.029 0.089,-0.088C0.057,-0.135 0.041,-0.193 0.041,-0.262C0.041,-0.349 0.062,-0.416 0.104,-0.461C0.146,-0.507 0.198,-0.53 0.26,-0.53C0.324,-0.53 0.377,-0.502 0.418,-0.446L0.418,-0.519L0.547,-0.519L0.547,-0.053C0.547,0.008 0.542,0.054 0.532,0.084C0.522,0.114 0.507,0.138 0.489,0.155C0.471,0.173 0.447,0.186 0.416,0.196C0.386,0.206 0.347,0.21 0.301,0.21C0.213,0.21 0.151,0.195 0.114,0.165C0.077,0.135 0.059,0.097 0.059,0.051C0.059,0.046 0.059,0.041 0.059,0.034ZM0.182,-0.27C0.182,-0.215 0.192,-0.175 0.214,-0.149C0.235,-0.124 0.261,-0.111 0.292,-0.111C0.326,-0.111 0.354,-0.124 0.377,-0.15C0.401,-0.176 0.412,-0.215 0.412,-0.267C0.412,-0.32 0.401,-0.36 0.379,-0.386C0.357,-0.412 0.329,-0.425 0.295,-0.425C0.262,-0.425 0.235,-0.413 0.214,-0.387C0.192,-0.361 0.182,-0.322 0.182,-0.27Z" style="fill-rule:nonzero;"/>
                </g>
            </g>
            <g transform="matrix(1,0,0,1,419,4)">
                <g transform="matrix(0.316514,0,0,0.5,41.6927,41.5)">
                    <rect x="61" y="83" width="218" height="95" style="fill:white;stroke:black;stroke-width:2.39px;"/>
                </g>
                <g transform="matrix(36,0,0,36,84.5049,119.635)">
                    <path d="M0.066,-0L0.066,-0.716L0.203,-0.716L0.203,-0.458C0.245,-0.506 0.296,-0.53 0.354,-0.53C0.417,-0.53 0.469,-0.507 0.51,-0.462C0.552,-0.416 0.572,-0.35 0.572,-0.265C0.572,-0.176 0.551,-0.108 0.509,-0.06C0.467,-0.012 0.416,0.012 0.355,0.012C0.326,0.012 0.297,0.004 0.268,-0.01C0.239,-0.025 0.214,-0.047 0.193,-0.076L0.193,-0L0.066,-0ZM0.202,-0.271C0.202,-0.217 0.211,-0.177 0.228,-0.151C0.251,-0.115 0.283,-0.097 0.322,-0.097C0.353,-0.097 0.378,-0.11 0.4,-0.135C0.421,-0.161 0.432,-0.202 0.432,-0.258C0.432,-0.317 0.421,-0.36 0.399,-0.386C0.378,-0.412 0.35,-0.425 0.317,-0.425C0.284,-0.425 0.257,-0.413 0.235,-0.387C0.213,-0.361 0.202,-0.323 0.202,-0.271Z" style="fill-rule:nonzero;"/>
                </g>
            </g>
            <g transform="matrix(1,0,0,1,488,4)">
                <g transform="matrix(0.316514,0,0,0.5,41.6927,41.5)">
                    <rect x="61" y="83" width="218" height="95" style="fill:white;stroke:black;stroke-width:2.39px;"/>
                </g>
                <g transform="matrix(36,0,0,36,85.4893,119.635)">
                    <path d="M0.372,-0.165L0.509,-0.142C0.491,-0.092 0.463,-0.054 0.426,-0.028C0.388,-0.001 0.34,0.012 0.283,0.012C0.193,0.012 0.126,-0.018 0.083,-0.077C0.049,-0.124 0.032,-0.183 0.032,-0.255C0.032,-0.341 0.054,-0.409 0.099,-0.457C0.144,-0.506 0.201,-0.53 0.27,-0.53C0.347,-0.53 0.408,-0.505 0.452,-0.454C0.497,-0.403 0.518,-0.325 0.516,-0.22L0.172,-0.22C0.173,-0.179 0.184,-0.147 0.206,-0.125C0.227,-0.102 0.253,-0.091 0.285,-0.091C0.306,-0.091 0.324,-0.097 0.339,-0.108C0.354,-0.12 0.365,-0.139 0.372,-0.165ZM0.38,-0.304C0.379,-0.343 0.369,-0.374 0.349,-0.394C0.33,-0.415 0.306,-0.425 0.278,-0.425C0.248,-0.425 0.223,-0.414 0.204,-0.393C0.184,-0.371 0.174,-0.341 0.175,-0.304L0.38,-0.304Z" style="fill-rule:nonzero;"/>
                </g>
            </g>
            <g transform="matrix(1,0,0,1,557,4)">
                <g transform="matrix(0.316514,0,0,0.5,41.6927,41.5)">
                    <rect x="61" y="83" width="218" height="95" style="fill:white;stroke:black;stroke-width:2.39px;"/>
                </g>
                <g transform="matrix(36,0,0,36,84.5049,119.635)">
                    <path d="M0.547,-0L0.42,-0L0.42,-0.076C0.399,-0.047 0.374,-0.024 0.345,-0.01C0.316,0.004 0.287,0.012 0.258,0.012C0.198,0.012 0.147,-0.012 0.105,-0.06C0.062,-0.108 0.041,-0.175 0.041,-0.261C0.041,-0.349 0.062,-0.416 0.103,-0.462C0.144,-0.507 0.197,-0.53 0.26,-0.53C0.318,-0.53 0.368,-0.506 0.41,-0.458L0.41,-0.716L0.547,-0.716L0.547,-0ZM0.181,-0.271C0.181,-0.215 0.189,-0.175 0.204,-0.15C0.226,-0.115 0.257,-0.097 0.297,-0.097C0.328,-0.097 0.355,-0.11 0.377,-0.137C0.4,-0.164 0.411,-0.204 0.411,-0.257C0.411,-0.317 0.4,-0.36 0.378,-0.386C0.357,-0.412 0.329,-0.425 0.296,-0.425C0.263,-0.425 0.236,-0.412 0.214,-0.386C0.192,-0.361 0.181,-0.322 0.181,-0.271Z" style="fill-rule:nonzero;"/>
                </g>
            </g>
        </g>
        <g id="Mode-1" serif:id="Mode 1">
            <g id="Mode-11" serif:id="Mode 1" transform="matrix(0.673913,0,0,0.5,727.891,93)">
                <g transform="matrix(0.633028,0,0,1,22.3853,0)">
                    <rect x="61" y="83" width="218" height="95" style="fill:rgb(255,157,0);stroke:black;stroke-width:2.15px;"/>
                </g>
                <g transform="matrix(1.48387,0,0,2,-29.5161,-83)">
                    <g transform="matrix(36,0,0,36,84.5166,119.635)">
                        <path d="M0.299,0.21L0.205,0.21C0.155,0.135 0.117,0.057 0.091,-0.024C0.065,-0.105 0.052,-0.183 0.052,-0.259C0.052,-0.353 0.068,-0.442 0.101,-0.526C0.129,-0.599 0.164,-0.667 0.207,-0.728L0.301,-0.728C0.256,-0.629 0.226,-0.545 0.209,-0.476C0.192,-0.407 0.184,-0.334 0.184,-0.256C0.184,-0.203 0.189,-0.148 0.198,-0.092C0.208,-0.036 0.222,0.017 0.239,0.067C0.251,0.101 0.271,0.148 0.299,0.21Z" style="fill-rule:nonzero;"/>
                    </g>
                    <g transform="matrix(36,0,0,36,96.5049,119.635)">
                        <path d="M0.059,0.034L0.216,0.053C0.218,0.071 0.224,0.084 0.234,0.091C0.247,0.101 0.267,0.105 0.295,0.105C0.331,0.105 0.358,0.1 0.376,0.089C0.388,0.082 0.397,0.071 0.403,0.055C0.408,0.043 0.41,0.022 0.41,-0.008L0.41,-0.084C0.369,-0.028 0.317,-0 0.254,-0C0.185,-0 0.13,-0.029 0.089,-0.088C0.057,-0.135 0.041,-0.193 0.041,-0.262C0.041,-0.349 0.062,-0.416 0.104,-0.461C0.146,-0.507 0.198,-0.53 0.26,-0.53C0.324,-0.53 0.377,-0.502 0.418,-0.446L0.418,-0.519L0.547,-0.519L0.547,-0.053C0.547,0.008 0.542,0.054 0.532,0.084C0.522,0.114 0.507,0.138 0.489,0.155C0.471,0.173 0.447,0.186 0.416,0.196C0.386,0.206 0.347,0.21 0.301,0.21C0.213,0.21 0.151,0.195 0.114,0.165C0.077,0.135 0.059,0.097 0.059,0.051C0.059,0.046 0.059,0.041 0.059,0.034ZM0.182,-0.27C0.182,-0.215 0.192,-0.175 0.214,-0.149C0.235,-0.124 0.261,-0.111 0.292,-0.111C0.326,-0.111 0.354,-0.124 0.377,-0.15C0.401,-0.176 0.412,-0.215 0.412,-0.267C0.412,-0.32 0.401,-0.36 0.379,-0.386C0.357,-0.412 0.329,-0.425 0.295,-0.425C0.262,-0.425 0.235,-0.413 0.214,-0.387C0.192,-0.361 0.182,-0.322 0.182,-0.27Z" style="fill-rule:nonzero;"/>
                    </g>
                    <g transform="matrix(36,0,0,36,118.495,119.635)">
                        <path d="M0.034,0.21C0.061,0.153 0.08,0.108 0.091,0.077C0.102,0.046 0.112,0.011 0.122,-0.03C0.131,-0.07 0.138,-0.108 0.143,-0.145C0.147,-0.181 0.149,-0.218 0.149,-0.256C0.149,-0.334 0.141,-0.407 0.125,-0.476C0.108,-0.545 0.077,-0.629 0.033,-0.728L0.126,-0.728C0.175,-0.658 0.213,-0.584 0.24,-0.505C0.268,-0.427 0.281,-0.347 0.281,-0.267C0.281,-0.199 0.271,-0.126 0.249,-0.048C0.225,0.039 0.184,0.125 0.128,0.21L0.034,0.21Z" style="fill-rule:nonzero;"/>
                    </g>
                </g>
            </g>
            <g transform="matrix(0.673913,0,0,0.5,820.891,93)">
                <g transform="matrix(0.633028,0,0,1,22.3853,0)">
                    <rect x="61" y="83" width="218" height="95" style="fill:white;stroke:black;stroke-width:2.15px;"/>
                </g>
                <g transform="matrix(1.48387,0,0,2,-29.5161,-83)">
                    <g transform="matrix(36,0,0,36,97.4893,119.635)">
                        <path d="M0.394,-0L0.256,-0L0.256,-0.517C0.206,-0.47 0.147,-0.436 0.079,-0.413L0.079,-0.538C0.115,-0.549 0.154,-0.572 0.196,-0.604C0.238,-0.637 0.267,-0.675 0.282,-0.719L0.394,-0.719L0.394,-0Z" style="fill-rule:nonzero;"/>
                    </g>
                </g>
            </g>
        </g>
    </g>
    <g id="Frame-2" serif:id="Frame 2" transform="matrix(1,0,0,1,-37.5,8.5)">
        <g id="Data-2" serif:id="Data 2" transform="matrix(1,0,0,1,0,47.5)">
            <g transform="matrix(0.702899,0,0,0.5,-4.87681,45.5)">
                <g transform="matrix(0.633028,0,0,1,22.3853,0)">
                    <rect x="61" y="83" width="218" height="95" style="fill:rgb(217,217,217);stroke:black;stroke-width:2.11px;"/>
                </g>
                <g transform="matrix(1.42268,0,0,2,-25.7835,-83)">
                    <g transform="matrix(26,0,0,26,102.27,116.056)">
                        <path d="M0.506,-0.127L0.506,-0L0.025,-0C0.03,-0.048 0.046,-0.094 0.072,-0.137C0.098,-0.18 0.149,-0.237 0.226,-0.309C0.288,-0.366 0.326,-0.405 0.34,-0.426C0.359,-0.454 0.368,-0.482 0.368,-0.51C0.368,-0.54 0.36,-0.564 0.344,-0.58C0.327,-0.597 0.304,-0.605 0.275,-0.605C0.247,-0.605 0.224,-0.596 0.207,-0.579C0.19,-0.562 0.18,-0.533 0.178,-0.493L0.041,-0.507C0.049,-0.582 0.075,-0.637 0.118,-0.669C0.161,-0.702 0.214,-0.719 0.279,-0.719C0.349,-0.719 0.405,-0.7 0.445,-0.662C0.486,-0.624 0.506,-0.576 0.506,-0.52C0.506,-0.487 0.5,-0.457 0.489,-0.427C0.477,-0.398 0.459,-0.368 0.434,-0.336C0.417,-0.315 0.387,-0.284 0.344,-0.245C0.3,-0.205 0.273,-0.179 0.261,-0.166C0.25,-0.153 0.241,-0.14 0.233,-0.127L0.506,-0.127Z" style="fill-rule:nonzero;"/>
                    </g>
                </g>
            </g>
            <g transform="matrix(0.5,0,0,0.5,104.5,45.5)">
                <g transform="matrix(0.633028,0,0,1,22.3853,0)">
                    <rect x="61" y="83" width="218" height="95" style="fill:white;stroke:black;stroke-width:2.39px;"/>
                </g>
                <g transform="matrix(2,0,0,2,-61,-83)">
                    <g transform="matrix(36,0,0,36,85.4893,119.635)">
                        <path d="M0.524,-0.365L0.389,-0.341C0.384,-0.368 0.374,-0.388 0.358,-0.402C0.342,-0.416 0.321,-0.422 0.295,-0.422C0.261,-0.422 0.233,-0.411 0.213,-0.387C0.193,-0.363 0.183,-0.324 0.183,-0.269C0.183,-0.207 0.193,-0.164 0.214,-0.138C0.234,-0.113 0.262,-0.1 0.297,-0.1C0.323,-0.1 0.344,-0.108 0.361,-0.122C0.377,-0.137 0.389,-0.163 0.396,-0.199L0.531,-0.176C0.517,-0.114 0.49,-0.067 0.45,-0.036C0.41,-0.004 0.357,0.012 0.291,0.012C0.215,0.012 0.154,-0.012 0.109,-0.06C0.064,-0.108 0.042,-0.174 0.042,-0.259C0.042,-0.344 0.064,-0.411 0.109,-0.459C0.155,-0.506 0.216,-0.53 0.293,-0.53C0.356,-0.53 0.406,-0.517 0.444,-0.49C0.481,-0.462 0.508,-0.421 0.524,-0.365Z" style="fill-rule:nonzero;"/>
                    </g>
                </g>
            </g>
            <g transform="matrix(0.5,0,0,0.5,173.5,45.5)">
                <g transform="matrix(0.633028,0,0,1,22.3853,0)">
                    <rect x="61" y="83" width="218" height="95" style="fill:white;stroke:black;stroke-width:2.39px;"/>
                </g>
                <g transform="matrix(2,0,0,2,-61,-83)">
                    <g transform="matrix(36,0,0,36,84.5049,119.635)">
                        <path d="M0.547,-0L0.42,-0L0.42,-0.076C0.399,-0.047 0.374,-0.024 0.345,-0.01C0.316,0.004 0.287,0.012 0.258,0.012C0.198,0.012 0.147,-0.012 0.105,-0.06C0.062,-0.108 0.041,-0.175 0.041,-0.261C0.041,-0.349 0.062,-0.416 0.103,-0.462C0.144,-0.507 0.197,-0.53 0.26,-0.53C0.318,-0.53 0.368,-0.506 0.41,-0.458L0.41,-0.716L0.547,-0.716L0.547,-0ZM0.181,-0.271C0.181,-0.215 0.189,-0.175 0.204,-0.15C0.226,-0.115 0.257,-0.097 0.297,-0.097C0.328,-0.097 0.355,-0.11 0.377,-0.137C0.4,-0.164 0.411,-0.204 0.411,-0.257C0.411,-0.317 0.4,-0.36 0.378,-0.386C0.357,-0.412 0.329,-0.425 0.296,-0.425C0.263,-0.425 0.236,-0.412 0.214,-0.386C0.192,-0.361 0.181,-0.322 0.181,-0.271Z" style="fill-rule:nonzero;"/>
                    </g>
                </g>
            </g>
            <g transform="matrix(0.5,0,0,0.5,242.5,45.5)">
                <g transform="matrix(0.633028,0,0,1,22.3853,0)">
                    <rect x="61" y="83" width="218" height="95" style="fill:rgb(0,255,5);stroke:black;stroke-width:2.39px;"/>
                </g>
                <g transform="matrix(2,0,0,2,-61,-83)">
                    <g transform="matrix(36,0,0,36,85.4893,119.635)">
                        <path d="M0.524,-0.365L0.389,-0.341C0.384,-0.368 0.374,-0.388 0.358,-0.402C0.342,-0.416 0.321,-0.422 0.295,-0.422C0.261,-0.422 0.233,-0.411 0.213,-0.387C0.193,-0.363 0.183,-0.324 0.183,-0.269C0.183,-0.207 0.193,-0.164 0.214,-0.138C0.234,-0.113 0.262,-0.1 0.297,-0.1C0.323,-0.1 0.344,-0.108 0.361,-0.122C0.377,-0.137 0.389,-0.163 0.396,-0.199L0.531,-0.176C0.517,-0.114 0.49,-0.067 0.45,-0.036C0.41,-0.004 0.357,0.012 0.291,0.012C0.215,0.012 0.154,-0.012 0.109,-0.06C0.064,-0.108 0.042,-0.174 0.042,-0.259C0.042,-0.344 0.064,-0.411 0.109,-0.459C0.155,-0.506 0.216,-0.53 0.293,-0.53C0.356,-0.53 0.406,-0.517 0.444,-0.49C0.481,-0.462 0.508,-0.421 0.524,-0.365Z" style="fill-rule:nonzero;"/>
                    </g>
                </g>
            </g>
            <g transform="matrix(0.5,0,0,0.5,311.5,45.5)">
                <g transform="matrix(0.633028,0,0,1,22.3853,0)">
                    <rect x="61" y="83" width="218" height="95" style="fill:rgb(0,255,5);stroke:black;stroke-width:2.39px;"/>
                </g>
                <g transform="matrix(2,0,0,2,-61,-83)">
                    <g transform="matrix(36,0,0,36,84.5049,119.635)">
                        <path d="M0.066,-0L0.066,-0.716L0.203,-0.716L0.203,-0.458C0.245,-0.506 0.296,-0.53 0.354,-0.53C0.417,-0.53 0.469,-0.507 0.51,-0.462C0.552,-0.416 0.572,-0.35 0.572,-0.265C0.572,-0.176 0.551,-0.108 0.509,-0.06C0.467,-0.012 0.416,0.012 0.355,0.012C0.326,0.012 0.297,0.004 0.268,-0.01C0.239,-0.025 0.214,-0.047 0.193,-0.076L0.193,-0L0.066,-0ZM0.202,-0.271C0.202,-0.217 0.211,-0.177 0.228,-0.151C0.251,-0.115 0.283,-0.097 0.322,-0.097C0.353,-0.097 0.378,-0.11 0.4,-0.135C0.421,-0.161 0.432,-0.202 0.432,-0.258C0.432,-0.317 0.421,-0.36 0.399,-0.386C0.378,-0.412 0.35,-0.425 0.317,-0.425C0.284,-0.425 0.257,-0.413 0.235,-0.387C0.213,-0.361 0.202,-0.323 0.202,-0.271Z" style="fill-rule:nonzero;"/>
                    </g>
                </g>
            </g>
            <g transform="matrix(1,0,0,1,350,4)">
                <g transform="matrix(0.316514,0,0,0.5,41.6927,41.5)">
                    <rect x="61" y="83" width="218" height="95" style="fill:rgb(0,255,5);stroke:black;stroke-width:2.39px;"/>
                </g>
                <g transform="matrix(36,0,0,36,84.5049,119.635)">
                    <path d="M0.059,0.034L0.216,0.053C0.218,0.071 0.224,0.084 0.234,0.091C0.247,0.101 0.267,0.105 0.295,0.105C0.331,0.105 0.358,0.1 0.376,0.089C0.388,0.082 0.397,0.071 0.403,0.055C0.408,0.043 0.41,0.022 0.41,-0.008L0.41,-0.084C0.369,-0.028 0.317,-0 0.254,-0C0.185,-0 0.13,-0.029 0.089,-0.088C0.057,-0.135 0.041,-0.193 0.041,-0.262C0.041,-0.349 0.062,-0.416 0.104,-0.461C0.146,-0.507 0.198,-0.53 0.26,-0.53C0.324,-0.53 0.377,-0.502 0.418,-0.446L0.418,-0.519L0.547,-0.519L0.547,-0.053C0.547,0.008 0.542,0.054 0.532,0.084C0.522,0.114 0.507,0.138 0.489,0.155C0.471,0.173 0.447,0.186 0.416,0.196C0.386,0.206 0.347,0.21 0.301,0.21C0.213,0.21 0.151,0.195 0.114,0.165C0.077,0.135 0.059,0.097 0.059,0.051C0.059,0.046 0.059,0.041 0.059,0.034ZM0.182,-0.27C0.182,-0.215 0.192,-0.175 0.214,-0.149C0.235,-0.124 0.261,-0.111 0.292,-0.111C0.326,-0.111 0.354,-0.124 0.377,-0.15C0.401,-0.176 0.412,-0.215 0.412,-0.267C0.412,-0.32 0.401,-0.36 0.379,-0.386C0.357,-0.412 0.329,-0.425 0.295,-0.425C0.262,-0.425 0.235,-0.413 0.214,-0.387C0.192,-0.361 0.182,-0.322 0.182,-0.27Z" style="fill-rule:nonzero;"/>
                </g>
            </g>
            <g transform="matrix(1,0,0,1,419,4)">
                <g transform="matrix(0.316514,0,0,0.5,41.6927,41.5)">
                    <rect x="61" y="83" width="218" height="95" style="fill:rgb(0,255,5);stroke:black;stroke-width:2.39px;"/>
                </g>
                <g transform="matrix(36,0,0,36,84.5049,119.635)">
                    <path d="M0.066,-0L0.066,-0.716L0.203,-0.716L0.203,-0.458C0.245,-0.506 0.296,-0.53 0.354,-0.53C0.417,-0.53 0.469,-0.507 0.51,-0.462C0.552,-0.416 0.572,-0.35 0.572,-0.265C0.572,-0.176 0.551,-0.108 0.509,-0.06C0.467,-0.012 0.416,0.012 0.355,0.012C0.326,0.012 0.297,0.004 0.268,-0.01C0.239,-0.025 0.214,-0.047 0.193,-0.076L0.193,-0L0.066,-0ZM0.202,-0.271C0.202,-0.217 0.211,-0.177 0.228,-0.151C0.251,-0.115 0.283,-0.097 0.322,-0.097C0.353,-0.097 0.378,-0.11 0.4,-0.135C0.421,-0.161 0.432,-0.202 0.432,-0.258C0.432,-0.317 0.421,-0.36 0.399,-0.386C0.378,-0.412 0.35,-0.425 0.317,-0.425C0.284,-0.425 0.257,-0.413 0.235,-0.387C0.213,-0.361 0.202,-0.323 0.202,-0.271Z" style="fill-rule:nonzero;"/>
                </g>
            </g>
            <g transform="matrix(1,0,0,1,488,4)">
                <g transform="matrix(0.316514,0,0,0.5,41.6927,41.5)">
                    <rect x="61" y="83" width="218" height="95" style="fill:white;stroke:black;stroke-width:2.39px;"/>
                </g>
                <g transform="matrix(36,0,0,36,85.4893,119.635)">
                    <path d="M0.372,-0.165L0.509,-0.142C0.491,-0.092 0.463,-0.054 0.426,-0.028C0.388,-0.001 0.34,0.012 0.283,0.012C0.193,0.012 0.126,-0.018 0.083,-0.077C0.049,-0.124 0.032,-0.183 0.032,-0.255C0.032,-0.341 0.054,-0.409 0.099,-0.457C0.144,-0.506 0.201,-0.53 0.27,-0.53C0.347,-0.53 0.408,-0.505 0.452,-0.454C0.497,-0.403 0.518,-0.325 0.516,-0.22L0.172,-0.22C0.173,-0.179 0.184,-0.147 0.206,-0.125C0.227,-0.102 0.253,-0.091 0.285,-0.091C0.306,-0.091 0.324,-0.097 0.339,-0.108C0.354,-0.12 0.365,-0.139 0.372,-0.165ZM0.38,-0.304C0.379,-0.343 0.369,-0.374 0.349,-0.394C0.33,-0.415 0.306,-0.425 0.278,-0.425C0.248,-0.425 0.223,-0.414 0.204,-0.393C0.184,-0.371 0.174,-0.341 0.175,-0.304L0.38,-0.304Z" style="fill-rule:nonzero;"/>
                </g>
            </g>
            <g transform="matrix(1,0,0,1,557,4)">
                <g transform="matrix(0.316514,0,0,0.5,41.6927,41.5)">
                    <rect x="61" y="83" width="218" height="95" style="fill:white;stroke:black;stroke-width:2.39px;"/>
                </g>
                <g transform="matrix(36,0,0,36,84.5049,119.635)">
                    <path d="M0.547,-0L0.42,-0L0.42,-0.076C0.399,-0.047 0.374,-0.024 0.345,-0.01C0.316,0.004 0.287,0.012 0.258,0.012C0.198,0.012 0.147,-0.012 0.105,-0.06C0.062,-0.108 0.041,-0.175 0.041,-0.261C0.041,-0.349 0.062,-0.416 0.103,-0.462C0.144,-0.507 0.197,-0.53 0.26,-0.53C0.318,-0.53 0.368,-0.506 0.41,-0.458L0.41,-0.716L0.547,-0.716L0.547,-0ZM0.181,-0.271C0.181,-0.215 0.189,-0.175 0.204,-0.15C0.226,-0.115 0.257,-0.097 0.297,-0.097C0.328,-0.097 0.355,-0.11 0.377,-0.137C0.4,-0.164 0.411,-0.204 0.411,-0.257C0.411,-0.317 0.4,-0.36 0.378,-0.386C0.357,-0.412 0.329,-0.425 0.296,-0.425C0.263,-0.425 0.236,-0.412 0.214,-0.386C0.192,-0.361 0.181,-0.322 0.181,-0.271Z" style="fill-rule:nonzero;"/>
                </g>
            </g>
        </g>
        <g id="Mode-2" serif:id="Mode 2">
            <g id="Mode-12" serif:id="Mode 1" transform="matrix(0.673913,0,0,0.5,727.891,93)">
                <g transform="matrix(0.633028,0,0,1,22.3853,0)">
                    <rect x="61" y="83" width="218" height="95" style="fill:rgb(0,191,255);stroke:black;stroke-width:2.15px;"/>
                </g>
                <g transform="matrix(1.48387,0,0,2,-29.5161,-83)">
                    <g transform="matrix(36,0,0,36,96.5049,119.635)">
                        <path d="M0.066,-0L0.066,-0.716L0.203,-0.716L0.203,-0.458C0.245,-0.506 0.296,-0.53 0.354,-0.53C0.417,-0.53 0.469,-0.507 0.51,-0.462C0.552,-0.416 0.572,-0.35 0.572,-0.265C0.572,-0.176 0.551,-0.108 0.509,-0.06C0.467,-0.012 0.416,0.012 0.355,0.012C0.326,0.012 0.297,0.004 0.268,-0.01C0.239,-0.025 0.214,-0.047 0.193,-0.076L0.193,-0L0.066,-0ZM0.202,-0.271C0.202,-0.217 0.211,-0.177 0.228,-0.151C0.251,-0.115 0.283,-0.097 0.322,-0.097C0.353,-0.097 0.378,-0.11 0.4,-0.135C0.421,-0.161 0.432,-0.202 0.432,-0.258C0.432,-0.317 0.421,-0.36 0.399,-0.386C0.378,-0.412 0.35,-0.425 0.317,-0.425C0.284,-0.425 0.257,-0.413 0.235,-0.387C0.213,-0.361 0.202,-0.323 0.202,-0.271Z" style="fill-rule:nonzero;"/>
                    </g>
                </g>
            </g>
            <g transform="matrix(0.673913,0,0,0.5,820.891,93)">
                <g transform="matrix(0.633028,0,0,1,22.3853,0)">
                    <rect x="61" y="83" width="218" height="95" style="fill:white;stroke:black;stroke-width:2.15px;"/>
                </g>
                <g transform="matrix(1.48387,0,0,2,-29.5161,-83)">
                    <g transform="matrix(36,0,0,36,97.4893,119.635)">
                        <path d="M0.506,-0.127L0.506,-0L0.025,-0C0.03,-0.048 0.046,-0.094 0.072,-0.137C0.098,-0.18 0.149,-0.237 0.226,-0.309C0.288,-0.366 0.326,-0.405 0.34,-0.426C0.359,-0.454 0.368,-0.482 0.368,-0.51C0.368,-0.54 0.36,-0.564 0.344,-0.58C0.327,-0.597 0.304,-0.605 0.275,-0.605C0.247,-0.605 0.224,-0.596 0.207,-0.579C0.19,-0.562 0.18,-0.533 0.178,-0.493L0.041,-0.507C0.049,-0.582 0.075,-0.637 0.118,-0.669C0.161,-0.702 0.214,-0.719 0.279,-0.719C0.349,-0.719 0.405,-0.7 0.445,-0.662C0.486,-0.624 0.506,-0.576 0.506,-0.52C0.506,-0.487 0.5,-0.457 0.489,-0.427C0.477,-0.398 0.459,-0.368 0.434,-0.336C0.417,-0.315 0.387,-0.284 0.344,-0.245C0.3,-0.205 0.273,-0.179 0.261,-0.166C0.25,-0.153 0.241,-0.14 0.233,-0.127L0.506,-0.127Z" style="fill-rule:nonzero;"/>
                    </g>
                </g>
            </g>
        </g>
    </g>
    <g id="Frame-3" serif:id="Frame 3" transform="matrix(1,0,0,1,-37.5,55)">
        <g id="Data-3" serif:id="Data 3" transform="matrix(1,0,0,1,0,47.5)">
            <g transform="matrix(0.702899,0,0,0.5,-4.87681,45.5)">
                <g transform="matrix(0.633028,0,0,1,22.3853,0)">
                    <rect x="61" y="83" width="218" height="95" style="fill:rgb(217,217,217);stroke:black;stroke-width:2.11px;"/>
                </g>
                <g transform="matrix(1.42268,0,0,2,-25.7835,-83)">
                    <g transform="matrix(26,0,0,26,102.27,116.056)">
                        <path d="M0.038,-0.19L0.17,-0.206C0.175,-0.172 0.186,-0.146 0.205,-0.128C0.223,-0.111 0.246,-0.102 0.272,-0.102C0.3,-0.102 0.324,-0.112 0.344,-0.134C0.363,-0.155 0.373,-0.184 0.373,-0.221C0.373,-0.255 0.363,-0.283 0.345,-0.303C0.326,-0.323 0.304,-0.333 0.277,-0.333C0.259,-0.333 0.238,-0.33 0.214,-0.323L0.229,-0.435C0.266,-0.434 0.294,-0.442 0.314,-0.459C0.333,-0.476 0.343,-0.499 0.343,-0.527C0.343,-0.551 0.336,-0.57 0.322,-0.584C0.307,-0.599 0.288,-0.606 0.265,-0.606C0.241,-0.606 0.221,-0.598 0.205,-0.582C0.188,-0.565 0.178,-0.542 0.174,-0.51L0.048,-0.532C0.057,-0.575 0.07,-0.61 0.088,-0.635C0.105,-0.661 0.13,-0.682 0.162,-0.697C0.194,-0.711 0.229,-0.719 0.269,-0.719C0.336,-0.719 0.39,-0.697 0.431,-0.654C0.464,-0.619 0.481,-0.579 0.481,-0.535C0.481,-0.472 0.447,-0.422 0.378,-0.385C0.419,-0.376 0.452,-0.356 0.476,-0.326C0.501,-0.295 0.513,-0.258 0.513,-0.215C0.513,-0.152 0.49,-0.098 0.444,-0.054C0.398,-0.01 0.341,0.012 0.273,0.012C0.208,0.012 0.154,-0.006 0.112,-0.044C0.069,-0.081 0.044,-0.13 0.038,-0.19Z" style="fill-rule:nonzero;"/>
                    </g>
                </g>
            </g>
            <g transform="matrix(0.5,0,0,0.5,104.5,45.5)">
                <g transform="matrix(0.633028,0,0,1,22.3853,0)">
                    <rect x="61" y="83" width="218" height="95" style="fill:white;stroke:black;stroke-width:2.39px;"/>
                </g>
                <g transform="matrix(2,0,0,2,-61,-83)">
                    <g transform="matrix(36,0,0,36,85.4893,119.635)">
                        <path d="M0.524,-0.365L0.389,-0.341C0.384,-0.368 0.374,-0.388 0.358,-0.402C0.342,-0.416 0.321,-0.422 0.295,-0.422C0.261,-0.422 0.233,-0.411 0.213,-0.387C0.193,-0.363 0.183,-0.324 0.183,-0.269C0.183,-0.207 0.193,-0.164 0.214,-0.138C0.234,-0.113 0.262,-0.1 0.297,-0.1C0.323,-0.1 0.344,-0.108 0.361,-0.122C0.377,-0.137 0.389,-0.163 0.396,-0.199L0.531,-0.176C0.517,-0.114 0.49,-0.067 0.45,-0.036C0.41,-0.004 0.357,0.012 0.291,0.012C0.215,0.012 0.154,-0.012 0.109,-0.06C0.064,-0.108 0.042,-0.174 0.042,-0.259C0.042,-0.344 0.064,-0.411 0.109,-0.459C0.155,-0.506 0.216,-0.53 0.293,-0.53C0.356,-0.53 0.406,-0.517 0.444,-0.49C0.481,-0.462 0.508,-0.421 0.524,-0.365Z" style="fill-rule:nonzero;"/>
                    </g>
                </g>
            </g>
            <g transform="matrix(0.5,0,0,0.5,173.5,45.5)">
                <g transform="matrix(0.633028,0,0,1,22.3853,0)">
                    <rect x="61" y="83" width="218" height="95" style="fill:white;stroke:black;stroke-width:2.39px;"/>
                </g>
                <g transform="matrix(2,0,0,2,-61,-83)">
                    <g transform="matrix(36,0,0,36,84.5049,119.635)">
                        <path d="M0.547,-0L0.42,-0L0.42,-0.076C0.399,-0.047 0.374,-0.024 0.345,-0.01C0.316,0.004 0.287,0.012 0.258,0.012C0.198,0.012 0.147,-0.012 0.105,-0.06C0.062,-0.108 0.041,-0.175 0.041,-0.261C0.041,-0.349 0.062,-0.416 0.103,-0.462C0.144,-0.507 0.197,-0.53 0.26,-0.53C0.318,-0.53 0.368,-0.506 0.41,-0.458L0.41,-0.716L0.547,-0.716L0.547,-0ZM0.181,-0.271C0.181,-0.215 0.189,-0.175 0.204,-0.15C0.226,-0.115 0.257,-0.097 0.297,-0.097C0.328,-0.097 0.355,-0.11 0.377,-0.137C0.4,-0.164 0.411,-0.204 0.411,-0.257C0.411,-0.317 0.4,-0.36 0.378,-0.386C0.357,-0.412 0.329,-0.425 0.296,-0.425C0.263,-0.425 0.236,-0.412 0.214,-0.386C0.192,-0.361 0.181,-0.322 0.181,-0.271Z" style="fill-rule:nonzero;"/>
                    </g>
                </g>
            </g>
            <g transform="matrix(0.5,0,0,0.5,242.5,45.5)">
                <g transform="matrix(0.633028,0,0,1,22.3853,0)">
                    <rect x="61" y="83" width="218" height="95" style="fill:white;stroke:black;stroke-width:2.39px;"/>
                </g>
                <g transform="matrix(2,0,0,2,-61,-83)">
                    <g transform="matrix(36,0,0,36,85.4893,119.635)">
                        <path d="M0.524,-0.365L0.389,-0.341C0.384,-0.368 0.374,-0.388 0.358,-0.402C0.342,-0.416 0.321,-0.422 0.295,-0.422C0.261,-0.422 0.233,-0.411 0.213,-0.387C0.193,-0.363 0.183,-0.324 0.183,-0.269C0.183,-0.207 0.193,-0.164 0.214,-0.138C0.234,-0.113 0.262,-0.1 0.297,-0.1C0.323,-0.1 0.344,-0.108 0.361,-0.122C0.377,-0.137 0.389,-0.163 0.396,-0.199L0.531,-0.176C0.517,-0.114 0.49,-0.067 0.45,-0.036C0.41,-0.004 0.357,0.012 0.291,0.012C0.215,0.012 0.154,-0.012 0.109,-0.06C0.064,-0.108 0.042,-0.174 0.042,-0.259C0.042,-0.344 0.064,-0.411 0.109,-0.459C0.155,-0.506 0.216,-0.53 0.293,-0.53C0.356,-0.53 0.406,-0.517 0.444,-0.49C0.481,-0.462 0.508,-0.421 0.524,-0.365Z" style="fill-rule:nonzero;"/>
                    </g>
                </g>
            </g>
            <g transform="matrix(0.5,0,0,0.5,311.5,45.5)">
                <g transform="matrix(0.633028,0,0,1,22.3853,0)">
                    <rect x="61" y="83" width="218" height="95" style="fill:rgb(0,255,5);stroke:black;stroke-width:2.39px;"/>
                </g>
                <g transform="matrix(2,0,0,2,-61,-83)">
                    <g transform="matrix(36,0,0,36,84.5049,119.635)">
                        <path d="M0.066,-0L0.066,-0.716L0.203,-0.716L0.203,-0.458C0.245,-0.506 0.296,-0.53 0.354,-0.53C0.417,-0.53 0.469,-0.507 0.51,-0.462C0.552,-0.416 0.572,-0.35 0.572,-0.265C0.572,-0.176 0.551,-0.108 0.509,-0.06C0.467,-0.012 0.416,0.012 0.355,0.012C0.326,0.012 0.297,0.004 0.268,-0.01C0.239,-0.025 0.214,-0.047 0.193,-0.076L0.193,-0L0.066,-0ZM0.202,-0.271C0.202,-0.217 0.211,-0.177 0.228,-0.151C0.251,-0.115 0.283,-0.097 0.322,-0.097C0.353,-0.097 0.378,-0.11 0.4,-0.135C0.421,-0.161 0.432,-0.202 0.432,-0.258C0.432,-0.317 0.421,-0.36 0.399,-0.386C0.378,-0.412 0.35,-0.425 0.317,-0.425C0.284,-0.425 0.257,-0.413 0.235,-0.387C0.213,-0.361 0.202,-0.323 0.202,-0.271Z" style="fill-rule:nonzero;"/>
                    </g>
                </g>
            </g>
            <g transform="matrix(1,0,0,1,350,4)">
                <g transform="matrix(0.316514,0,0,0.5,41.6927,41.5)">
                    <rect x="61" y="83" width="218" height="95" style="fill:rgb(0,255,5);stroke:black;stroke-width:2.39px;"/>
                </g>
                <g transform="matrix(36,0,0,36,84.5049,119.635)">
                    <path d="M0.059,0.034L0.216,0.053C0.218,0.071 0.224,0.084 0.234,0.091C0.247,0.101 0.267,0.105 0.295,0.105C0.331,0.105 0.358,0.1 0.376,0.089C0.388,0.082 0.397,0.071 0.403,0.055C0.408,0.043 0.41,0.022 0.41,-0.008L0.41,-0.084C0.369,-0.028 0.317,-0 0.254,-0C0.185,-0 0.13,-0.029 0.089,-0.088C0.057,-0.135 0.041,-0.193 0.041,-0.262C0.041,-0.349 0.062,-0.416 0.104,-0.461C0.146,-0.507 0.198,-0.53 0.26,-0.53C0.324,-0.53 0.377,-0.502 0.418,-0.446L0.418,-0.519L0.547,-0.519L0.547,-0.053C0.547,0.008 0.542,0.054 0.532,0.084C0.522,0.114 0.507,0.138 0.489,0.155C0.471,0.173 0.447,0.186 0.416,0.196C0.386,0.206 0.347,0.21 0.301,0.21C0.213,0.21 0.151,0.195 0.114,0.165C0.077,0.135 0.059,0.097 0.059,0.051C0.059,0.046 0.059,0.041 0.059,0.034ZM0.182,-0.27C0.182,-0.215 0.192,-0.175 0.214,-0.149C0.235,-0.124 0.261,-0.111 0.292,-0.111C0.326,-0.111 0.354,-0.124 0.377,-0.15C0.401,-0.176 0.412,-0.215 0.412,-0.267C0.412,-0.32 0.401,-0.36 0.379,-0.386C0.357,-0.412 0.329,-0.425 0.295,-0.425C0.262,-0.425 0.235,-0.413 0.214,-0.387C0.192,-0.361 0.182,-0.322 0.182,-0.27Z" style="fill-rule:nonzero;"/>
                </g>
            </g>
            <g transform="matrix(1,0,0,1,419,4)">
                <g transform="matrix(0.316514,0,0,0.5,41.6927,41.5)">
                    <rect x="61" y="83" width="218" height="95" style="fill:rgb(0,255,5);stroke:black;stroke-width:2.39px;"/>
                </g>
                <g transform="matrix(36,0,0,36,84.5049,119.635)">
                    <path d="M0.066,-0L0.066,-0.716L0.203,-0.716L0.203,-0.458C0.245,-0.506 0.296,-0.53 0.354,-0.53C0.417,-0.53 0.469,-0.507 0.51,-0.462C0.552,-0.416 0.572,-0.35 0.572,-0.265C0.572,-0.176 0.551,-0.108 0.509,-0.06C0.467,-0.012 0.416,0.012 0.355,0.012C0.326,0.012 0.297,0.004 0.268,-0.01C0.239,-0.025 0.214,-0.047 0.193,-0.076L0.193,-0L0.066,-0ZM0.202,-0.271C0.202,-0.217 0.211,-0.177 0.228,-0.151C0.251,-0.115 0.283,-0.097 0.322,-0.097C0.353,-0.097 0.378,-0.11 0.4,-0.135C0.421,-0.161 0.432,-0.202 0.432,-0.258C0.432,-0.317 0.421,-0.36 0.399,-0.386C0.378,-0.412 0.35,-0.425 0.317,-0.425C0.284,-0.425 0.257,-0.413 0.235,-0.387C0.213,-0.361 0.202,-0.323 0.202,-0.271Z" style="fill-rule:nonzero;"/>
                </g>
            </g>
            <g transform="matrix(1,0,0,1,488,4)">
                <g transform="matrix(0.316514,0,0,0.5,41.6927,41.5)">
                    <rect x="61" y="83" width="218" height="95" style="fill:rgb(0,255,5);stroke:black;stroke-width:2.39px;"/>
                </g>
                <g transform="matrix(36,0,0,36,85.4893,119.635)">
                    <path d="M0.372,-0.165L0.509,-0.142C0.491,-0.092 0.463,-0.054 0.426,-0.028C0.388,-0.001 0.34,0.012 0.283,0.012C0.193,0.012 0.126,-0.018 0.083,-0.077C0.049,-0.124 0.032,-0.183 0.032,-0.255C0.032,-0.341 0.054,-0.409 0.099,-0.457C0.144,-0.506 0.201,-0.53 0.27,-0.53C0.347,-0.53 0.408,-0.505 0.452,-0.454C0.497,-0.403 0.518,-0.325 0.516,-0.22L0.172,-0.22C0.173,-0.179 0.184,-0.147 0.206,-0.125C0.227,-0.102 0.253,-0.091 0.285,-0.091C0.306,-0.091 0.324,-0.097 0.339,-0.108C0.354,-0.12 0.365,-0.139 0.372,-0.165ZM0.38,-0.304C0.379,-0.343 0.369,-0.374 0.349,-0.394C0.33,-0.415 0.306,-0.425 0.278,-0.425C0.248,-0.425 0.223,-0.414 0.204,-0.393C0.184,-0.371 0.174,-0.341 0.175,-0.304L0.38,-0.304Z" style="fill-rule:nonzero;"/>
                </g>
            </g>
            <g transform="matrix(1,0,0,1,557,4)">
                <g transform="matrix(0.316514,0,0,0.5,41.6927,41.5)">
                    <rect x="61" y="83" width="218" height="95" style="fill:white;stroke:black;stroke-width:2.39px;"/>
                </g>
                <g transform="matrix(36,0,0,36,84.5049,119.635)">
                    <path d="M0.547,-0L0.42,-0L0.42,-0.076C0.399,-0.047 0.374,-0.024 0.345,-0.01C0.316,0.004 0.287,0.012 0.258,0.012C0.198,0.012 0.147,-0.012 0.105,-0.06C0.062,-0.108 0.041,-0.175 0.041,-0.261C0.041,-0.349 0.062,-0.416 0.103,-0.462C0.144,-0.507 0.197,-0.53 0.26,-0.53C0.318,-0.53 0.368,-0.506 0.41,-0.458L0.41,-0.716L0.547,-0.716L0.547,-0ZM0.181,-0.271C0.181,-0.215 0.189,-0.175 0.204,-0.15C0.226,-0.115 0.257,-0.097 0.297,-0.097C0.328,-0.097 0.355,-0.11 0.377,-0.137C0.4,-0.164 0.411,-0.204 0.411,-0.257C0.411,-0.317 0.4,-0.36 0.378,-0.386C0.357,-0.412 0.329,-0.425 0.296,-0.425C0.263,-0.425 0.236,-0.412 0.214,-0.386C0.192,-0.361 0.181,-0.322 0.181,-0.271Z" style="fill-rule:nonzero;"/>
                </g>
            </g>
        </g>
        <g id="Mode-3" serif:id="Mode 3">
            <g id="Mode-13" serif:id="Mode 1" transform="matrix(0.673913,0,0,0.5,727.891,93)">
                <g transform="matrix(0.633028,0,0,1,22.3853,0)">
                    <rect x="61" y="83" width="218" height="95" style="fill:rgb(0,191,255);stroke:black;stroke-width:2.15px;"/>
                </g>
                <g transform="matrix(1.48387,0,0,2,-29.5161,-83)">
                    <g transform="matrix(36,0,0,36,96.5049,119.635)">
                        <path d="M0.066,-0L0.066,-0.716L0.203,-0.716L0.203,-0.458C0.245,-0.506 0.296,-0.53 0.354,-0.53C0.417,-0.53 0.469,-0.507 0.51,-0.462C0.552,-0.416 0.572,-0.35 0.572,-0.265C0.572,-0.176 0.551,-0.108 0.509,-0.06C0.467,-0.012 0.416,0.012 0.355,0.012C0.326,0.012 0.297,0.004 0.268,-0.01C0.239,-0.025 0.214,-0.047 0.193,-0.076L0.193,-0L0.066,-0ZM0.202,-0.271C0.202,-0.217 0.211,-0.177 0.228,-0.151C0.251,-0.115 0.283,-0.097 0.322,-0.097C0.353,-0.097 0.378,-0.11 0.4,-0.135C0.421,-0.161 0.432,-0.202 0.432,-0.258C0.432,-0.317 0.421,-0.36 0.399,-0.386C0.378,-0.412 0.35,-0.425 0.317,-0.425C0.284,-0.425 0.257,-0.413 0.235,-0.387C0.213,-0.361 0.202,-0.323 0.202,-0.271Z" style="fill-rule:nonzero;"/>
                    </g>
                </g>
            </g>
            <g transform="matrix(0.673913,0,0,0.5,820.891,93)">
                <g transform="matrix(0.633028,0,0,1,22.3853,0)">
                    <rect x="61" y="83" width="218" height="95" style="fill:white;stroke:black;stroke-width:2.15px;"/>
                </g>
                <g transform="matrix(1.48387,0,0,2,-29.5161,-83)">
                    <g transform="matrix(36,0,0,36,97.4893,119.635)">
                        <path d="M0.506,-0.127L0.506,-0L0.025,-0C0.03,-0.048 0.046,-0.094 0.072,-0.137C0.098,-0.18 0.149,-0.237 0.226,-0.309C0.288,-0.366 0.326,-0.405 0.34,-0.426C0.359,-0.454 0.368,-0.482 0.368,-0.51C0.368,-0.54 0.36,-0.564 0.344,-0.58C0.327,-0.597 0.304,-0.605 0.275,-0.605C0.247,-0.605 0.224,-0.596 0.207,-0.579C0.19,-0.562 0.18,-0.533 0.178,-0.493L0.041,-0.507C0.049,-0.582 0.075,-0.637 0.118,-0.669C0.161,-0.702 0.214,-0.719 0.279,-0.719C0.349,-0.719 0.405,-0.7 0.445,-0.662C0.486,-0.624 0.506,-0.576 0.506,-0.52C0.506,-0.487 0.5,-0.457 0.489,-0.427C0.477,-0.398 0.459,-0.368 0.434,-0.336C0.417,-0.315 0.387,-0.284 0.344,-0.245C0.3,-0.205 0.273,-0.179 0.261,-0.166C0.25,-0.153 0.241,-0.14 0.233,-0.127L0.506,-0.127Z" style="fill-rule:nonzero;"/>
                    </g>
                </g>
            </g>
        </g>
    </g>
    <g id="Frame-4" serif:id="Frame 4" transform="matrix(1,0,0,1,-37.5,102.5)">
        <g id="Data-4" serif:id="Data 4" transform="matrix(1,0,0,1,0,47.5)">
            <g transform="matrix(0.702899,0,0,0.5,-4.87681,45.5)">
                <g transform="matrix(0.633028,0,0,1,22.3853,0)">
                    <rect x="61" y="83" width="218" height="95" style="fill:rgb(217,217,217);stroke:black;stroke-width:2.11px;"/>
                </g>
                <g transform="matrix(1.42268,0,0,2,-25.7835,-83)">
                    <g transform="matrix(26,0,0,26,102.27,116.056)">
                        <path d="M0.312,-0L0.312,-0.144L0.019,-0.144L0.019,-0.264L0.329,-0.719L0.444,-0.719L0.444,-0.265L0.533,-0.265L0.533,-0.144L0.444,-0.144L0.444,-0L0.312,-0ZM0.312,-0.265L0.312,-0.509L0.147,-0.265L0.312,-0.265Z" style="fill-rule:nonzero;"/>
                    </g>
                </g>
            </g>
            <g transform="matrix(0.5,0,0,0.5,104.5,45.5)">
                <g transform="matrix(0.633028,0,0,1,22.3853,0)">
                    <rect x="61" y="83" width="218" height="95" style="fill:white;stroke:black;stroke-width:2.39px;"/>
                </g>
                <g transform="matrix(2,0,0,2,-61,-83)">
                    <g transform="matrix(36,0,0,36,85.4893,119.635)">
                        <path d="M0.524,-0.365L0.389,-0.341C0.384,-0.368 0.374,-0.388 0.358,-0.402C0.342,-0.416 0.321,-0.422 0.295,-0.422C0.261,-0.422 0.233,-0.411 0.213,-0.387C0.193,-0.363 0.183,-0.324 0.183,-0.269C0.183,-0.207 0.193,-0.164 0.214,-0.138C0.234,-0.113 0.262,-0.1 0.297,-0.1C0.323,-0.1 0.344,-0.108 0.361,-0.122C0.377,-0.137 0.389,-0.163 0.396,-0.199L0.531,-0.176C0.517,-0.114 0.49,-0.067 0.45,-0.036C0.41,-0.004 0.357,0.012 0.291,0.012C0.215,0.012 0.154,-0.012 0.109,-0.06C0.064,-0.108 0.042,-0.174 0.042,-0.259C0.042,-0.344 0.064,-0.411 0.109,-0.459C0.155,-0.506 0.216,-0.53 0.293,-0.53C0.356,-0.53 0.406,-0.517 0.444,-0.49C0.481,-0.462 0.508,-0.421 0.524,-0.365Z" style="fill-rule:nonzero;"/>
                    </g>
                </g>
            </g>
            <g transform="matrix(0.5,0,0,0.5,173.5,45.5)">
                <g transform="matrix(0.633028,0,0,1,22.3853,0)">
                    <rect x="61" y="83" width="218" height="95" style="fill:white;stroke:black;stroke-width:2.39px;"/>
                </g>
                <g transform="matrix(2,0,0,2,-61,-83)">
                    <g transform="matrix(36,0,0,36,84.5049,119.635)">
                        <path d="M0.547,-0L0.42,-0L0.42,-0.076C0.399,-0.047 0.374,-0.024 0.345,-0.01C0.316,0.004 0.287,0.012 0.258,0.012C0.198,0.012 0.147,-0.012 0.105,-0.06C0.062,-0.108 0.041,-0.175 0.041,-0.261C0.041,-0.349 0.062,-0.416 0.103,-0.462C0.144,-0.507 0.197,-0.53 0.26,-0.53C0.318,-0.53 0.368,-0.506 0.41,-0.458L0.41,-0.716L0.547,-0.716L0.547,-0ZM0.181,-0.271C0.181,-0.215 0.189,-0.175 0.204,-0.15C0.226,-0.115 0.257,-0.097 0.297,-0.097C0.328,-0.097 0.355,-0.11 0.377,-0.137C0.4,-0.164 0.411,-0.204 0.411,-0.257C0.411,-0.317 0.4,-0.36 0.378,-0.386C0.357,-0.412 0.329,-0.425 0.296,-0.425C0.263,-0.425 0.236,-0.412 0.214,-0.386C0.192,-0.361 0.181,-0.322 0.181,-0.271Z" style="fill-rule:nonzero;"/>
                    </g>
                </g>
            </g>
            <g transform="matrix(0.5,0,0,0.5,242.5,45.5)">
                <g transform="matrix(0.633028,0,0,1,22.3853,0)">
                    <rect x="61" y="83" width="218" height="95" style="fill:white;stroke:black;stroke-width:2.39px;"/>
                </g>
                <g transform="matrix(2,0,0,2,-61,-83)">
                    <g transform="matrix(36,0,0,36,85.4893,119.635)">
                        <path d="M0.524,-0.365L0.389,-0.341C0.384,-0.368 0.374,-0.388 0.358,-0.402C0.342,-0.416 0.321,-0.422 0.295,-0.422C0.261,-0.422 0.233,-0.411 0.213,-0.387C0.193,-0.363 0.183,-0.324 0.183,-0.269C0.183,-0.207 0.193,-0.164 0.214,-0.138C0.234,-0.113 0.262,-0.1 0.297,-0.1C0.323,-0.1 0.344,-0.108 0.361,-0.122C0.377,-0.137 0.389,-0.163 0.396,-0.199L0.531,-0.176C0.517,-0.114 0.49,-0.067 0.45,-0.036C0.41,-0.004 0.357,0.012 0.291,0.012C0.215,0.012 0.154,-0.012 0.109,-0.06C0.064,-0.108 0.042,-0.174 0.042,-0.259C0.042,-0.344 0.064,-0.411 0.109,-0.459C0.155,-0.506 0.216,-0.53 0.293,-0.53C0.356,-0.53 0.406,-0.517 0.444,-0.49C0.481,-0.462 0.508,-0.421 0.524,-0.365Z" style="fill-rule:nonzero;"/>
                    </g>
                </g>
            </g>
            <g transform="matrix(0.5,0,0,0.5,311.5,45.5)">
                <g transform="matrix(0.633028,0,0,1,22.3853,0)">
                    <rect x="61" y="83" width="218" height="95" style="fill:white;stroke:black;stroke-width:2.39px;"/>
                </g>
                <g transform="matrix(2,0,0,2,-61,-83)">
                    <g transform="matrix(36,0,0,36,84.5049,119.635)">
                        <path d="M0.066,-0L0.066,-0.716L0.203,-0.716L0.203,-0.458C0.245,-0.506 0.296,-0.53 0.354,-0.53C0.417,-0.53 0.469,-0.507 0.51,-0.462C0.552,-0.416 0.572,-0.35 0.572,-0.265C0.572,-0.176 0.551,-0.108 0.509,-0.06C0.467,-0.012 0.416,0.012 0.355,0.012C0.326,0.012 0.297,0.004 0.268,-0.01C0.239,-0.025 0.214,-0.047 0.193,-0.076L0.193,-0L0.066,-0ZM0.202,-0.271C0.202,-0.217 0.211,-0.177 0.228,-0.151C0.251,-0.115 0.283,-0.097 0.322,-0.097C0.353,-0.097 0.378,-0.11 0.4,-0.135C0.421,-0.161 0.432,-0.202 0.432,-0.258C0.432,-0.317 0.421,-0.36 0.399,-0.386C0.378,-0.412 0.35,-0.425 0.317,-0.425C0.284,-0.425 0.257,-0.413 0.235,-0.387C0.213,-0.361 0.202,-0.323 0.202,-0.271Z" style="fill-rule:nonzero;"/>
                    </g>
                </g>
            </g>
            <g transform="matrix(1,0,0,1,350,4)">
                <g transform="matrix(0.316514,0,0,0.5,41.6927,41.5)">
                    <rect x="61" y="83" width="218" height="95" style="fill:rgb(0,255,5);stroke:black;stroke-width:2.39px;"/>
                </g>
                <g transform="matrix(36,0,0,36,84.5049,119.635)">
                    <path d="M0.059,0.034L0.216,0.053C0.218,0.071 0.224,0.084 0.234,0.091C0.247,0.101 0.267,0.105 0.295,0.105C0.331,0.105 0.358,0.1 0.376,0.089C0.388,0.082 0.397,0.071 0.403,0.055C0.408,0.043 0.41,0.022 0.41,-0.008L0.41,-0.084C0.369,-0.028 0.317,-0 0.254,-0C0.185,-0 0.13,-0.029 0.089,-0.088C0.057,-0.135 0.041,-0.193 0.041,-0.262C0.041,-0.349 0.062,-0.416 0.104,-0.461C0.146,-0.507 0.198,-0.53 0.26,-0.53C0.324,-0.53 0.377,-0.502 0.418,-0.446L0.418,-0.519L0.547,-0.519L0.547,-0.053C0.547,0.008 0.542,0.054 0.532,0.084C0.522,0.114 0.507,0.138 0.489,0.155C0.471,0.173 0.447,0.186 0.416,0.196C0.386,0.206 0.347,0.21 0.301,0.21C0.213,0.21 0.151,0.195 0.114,0.165C0.077,0.135 0.059,0.097 0.059,0.051C0.059,0.046 0.059,0.041 0.059,0.034ZM0.182,-0.27C0.182,-0.215 0.192,-0.175 0.214,-0.149C0.235,-0.124 0.261,-0.111 0.292,-0.111C0.326,-0.111 0.354,-0.124 0.377,-0.15C0.401,-0.176 0.412,-0.215 0.412,-0.267C0.412,-0.32 0.401,-0.36 0.379,-0.386C0.357,-0.412 0.329,-0.425 0.295,-0.425C0.262,-0.425 0.235,-0.413 0.214,-0.387C0.192,-0.361 0.182,-0.322 0.182,-0.27Z" style="fill-rule:nonzero;"/>
                </g>
            </g>
            <g transform="matrix(1,0,0,1,419,4)">
                <g transform="matrix(0.316514,0,0,0.5,41.6927,41.5)">
                    <rect x="61" y="83" width="218" height="95" style="fill:rgb(0,255,5);stroke:black;stroke-width:2.39px;"/>
                </g>
                <g transform="matrix(36,0,0,36,84.5049,119.635)">
                    <path d="M0.066,-0L0.066,-0.716L0.203,-0.716L0.203,-0.458C0.245,-0.506 0.296,-0.53 0.354,-0.53C0.417,-0.53 0.469,-0.507 0.51,-0.462C0.552,-0.416 0.572,-0.35 0.572,-0.265C0.572,-0.176 0.551,-0.108 0.509,-0.06C0.467,-0.012 0.416,0.012 0.355,0.012C0.326,0.012 0.297,0.004 0.268,-0.01C0.239,-0.025 0.214,-0.047 0.193,-0.076L0.193,-0L0.066,-0ZM0.202,-0.271C0.202,-0.217 0.211,-0.177 0.228,-0.151C0.251,-0.115 0.283,-0.097 0.322,-0.097C0.353,-0.097 0.378,-0.11 0.4,-0.135C0.421,-0.161 0.432,-0.202 0.432,-0.258C0.432,-0.317 0.421,-0.36 0.399,-0.386C0.378,-0.412 0.35,-0.425 0.317,-0.425C0.284,-0.425 0.257,-0.413 0.235,-0.387C0.213,-0.361 0.202,-0.323 0.202,-0.271Z" style="fill-rule:nonzero;"/>
                </g>
            </g>
            <g transform="matrix(1,0,0,1,488,4)">
                <g transform="matrix(0.316514,0,0,0.5,41.6927,41.5)">
                    <rect x="61" y="83" width="218" height="95" style="fill:rgb(0,255,5);stroke:black;stroke-width:2.39px;"/>
                </g>
                <g transform="matrix(36,0,0,36,85.4893,119.635)">
                    <path d="M0.372,-0.165L0.509,-0.142C0.491,-0.092 0.463,-0.054 0.426,-0.028C0.388,-0.001 0.34,0.012 0.283,0.012C0.193,0.012 0.126,-0.018 0.083,-0.077C0.049,-0.124 0.032,-0.183 0.032,-0.255C0.032,-0.341 0.054,-0.409 0.099,-0.457C0.144,-0.506 0.201,-0.53 0.27,-0.53C0.347,-0.53 0.408,-0.505 0.452,-0.454C0.497,-0.403 0.518,-0.325 0.516,-0.22L0.172,-0.22C0.173,-0.179 0.184,-0.147 0.206,-0.125C0.227,-0.102 0.253,-0.091 0.285,-0.091C0.306,-0.091 0.324,-0.097 0.339,-0.108C0.354,-0.12 0.365,-0.139 0.372,-0.165ZM0.38,-0.304C0.379,-0.343 0.369,-0.374 0.349,-0.394C0.33,-0.415 0.306,-0.425 0.278,-0.425C0.248,-0.425 0.223,-0.414 0.204,-0.393C0.184,-0.371 0.174,-0.341 0.175,-0.304L0.38,-0.304Z" style="fill-rule:nonzero;"/>
                </g>
            </g>
            <g transform="matrix(1,0,0,1,557,4)">
                <g transform="matrix(0.316514,0,0,0.5,41.6927,41.5)">
                    <rect x="61" y="83" width="218" height="95" style="fill:rgb(0,255,5);stroke:black;stroke-width:2.39px;"/>
                </g>
                <g transform="matrix(36,0,0,36,84.5049,119.635)">
                    <path d="M0.547,-0L0.42,-0L0.42,-0.076C0.399,-0.047 0.374,-0.024 0.345,-0.01C0.316,0.004 0.287,0.012 0.258,0.012C0.198,0.012 0.147,-0.012 0.105,-0.06C0.062,-0.108 0.041,-0.175 0.041,-0.261C0.041,-0.349 0.062,-0.416 0.103,-0.462C0.144,-0.507 0.197,-0.53 0.26,-0.53C0.318,-0.53 0.368,-0.506 0.41,-0.458L0.41,-0.716L0.547,-0.716L0.547,-0ZM0.181,-0.271C0.181,-0.215 0.189,-0.175 0.204,-0.15C0.226,-0.115 0.257,-0.097 0.297,-0.097C0.328,-0.097 0.355,-0.11 0.377,-0.137C0.4,-0.164 0.411,-0.204 0.411,-0.257C0.411,-0.317 0.4,-0.36 0.378,-0.386C0.357,-0.412 0.329,-0.425 0.296,-0.425C0.263,-0.425 0.236,-0.412 0.214,-0.386C0.192,-0.361 0.181,-0.322 0.181,-0.271Z" style="fill-rule:nonzero;"/>
                </g>
            </g>
        </g>
        <g id="Mode-4" serif:id="Mode 4">
            <g transform="matrix(0.673913,0,0,0.5,727.891,93)">
                <g transform="matrix(0.633028,0,0,1,22.3853,0)">
                    <rect x="61" y="83" width="218" height="95" style="fill:rgb(255,158,0);stroke:black;stroke-width:2.15px;"/>
                </g>
                <g transform="matrix(1.48387,0,0,2,-29.5161,-83)">
                    <g transform="matrix(36,0,0,36,84.5166,119.635)">
                        <path d="M0.299,0.21L0.205,0.21C0.155,0.135 0.117,0.057 0.091,-0.024C0.065,-0.105 0.052,-0.183 0.052,-0.259C0.052,-0.353 0.068,-0.442 0.101,-0.526C0.129,-0.599 0.164,-0.667 0.207,-0.728L0.301,-0.728C0.256,-0.629 0.226,-0.545 0.209,-0.476C0.192,-0.407 0.184,-0.334 0.184,-0.256C0.184,-0.203 0.189,-0.148 0.198,-0.092C0.208,-0.036 0.222,0.017 0.239,0.067C0.251,0.101 0.271,0.148 0.299,0.21Z" style="fill-rule:nonzero;"/>
                    </g>
                    <g transform="matrix(36,0,0,36,96.5049,119.635)">
                        <path d="M0.547,-0L0.42,-0L0.42,-0.076C0.399,-0.047 0.374,-0.024 0.345,-0.01C0.316,0.004 0.287,0.012 0.258,0.012C0.198,0.012 0.147,-0.012 0.105,-0.06C0.062,-0.108 0.041,-0.175 0.041,-0.261C0.041,-0.349 0.062,-0.416 0.103,-0.462C0.144,-0.507 0.197,-0.53 0.26,-0.53C0.318,-0.53 0.368,-0.506 0.41,-0.458L0.41,-0.716L0.547,-0.716L0.547,-0ZM0.181,-0.271C0.181,-0.215 0.189,-0.175 0.204,-0.15C0.226,-0.115 0.257,-0.097 0.297,-0.097C0.328,-0.097 0.355,-0.11 0.377,-0.137C0.4,-0.164 0.411,-0.204 0.411,-0.257C0.411,-0.317 0.4,-0.36 0.378,-0.386C0.357,-0.412 0.329,-0.425 0.296,-0.425C0.263,-0.425 0.236,-0.412 0.214,-0.386C0.192,-0.361 0.181,-0.322 0.181,-0.271Z" style="fill-rule:nonzero;"/>
                    </g>
                    <g transform="matrix(36,0,0,36,118.495,119.635)">
                        <path d="M0.034,0.21C0.061,0.153 0.08,0.108 0.091,0.077C0.102,0.046 0.112,0.011 0.122,-0.03C0.131,-0.07 0.138,-0.108 0.143,-0.145C0.147,-0.181 0.149,-0.218 0.149,-0.256C0.149,-0.334 0.141,-0.407 0.125,-0.476C0.108,-0.545 0.077,-0.629 0.033,-0.728L0.126,-0.728C0.175,-0.658 0.213,-0.584 0.24,-0.505C0.268,-0.427 0.281,-0.347 0.281,-0.267C0.281,-0.199 0.271,-0.126 0.249,-0.048C0.225,0.039 0.184,0.125 0.128,0.21L0.034,0.21Z" style="fill-rule:nonzero;"/>
                    </g>
                </g>
            </g>
            <g transform="matrix(0.673913,0,0,0.5,820.891,93)">
                <g transform="matrix(0.633028,0,0,1,22.3853,0)">
                    <rect x="61" y="83" width="218" height="95" style="fill:white;stroke:black;stroke-width:2.15px;"/>
                </g>
                <g transform="matrix(1.48387,0,0,2,-29.5161,-83)">
                    <g transform="matrix(36,0,0,36,97.4893,119.635)">
                        <path d="M0.506,-0.127L0.506,-0L0.025,-0C0.03,-0.048 0.046,-0.094 0.072,-0.137C0.098,-0.18 0.149,-0.237 0.226,-0.309C0.288,-0.366 0.326,-0.405 0.34,-0.426C0.359,-0.454 0.368,-0.482 0.368,-0.51C0.368,-0.54 0.36,-0.564 0.344,-0.58C0.327,-0.597 0.304,-0.605 0.275,-0.605C0.247,-0.605 0.224,-0.596 0.207,-0.579C0.19,-0.562 0.18,-0.533 0.178,-0.493L0.041,-0.507C0.049,-0.582 0.075,-0.637 0.118,-0.669C0.161,-0.702 0.214,-0.719 0.279,-0.719C0.349,-0.719 0.405,-0.7 0.445,-0.662C0.486,-0.624 0.506,-0.576 0.506,-0.52C0.506,-0.487 0.5,-0.457 0.489,-0.427C0.477,-0.398 0.459,-0.368 0.434,-0.336C0.417,-0.315 0.387,-0.284 0.344,-0.245C0.3,-0.205 0.273,-0.179 0.261,-0.166C0.25,-0.153 0.241,-0.14 0.233,-0.127L0.506,-0.127Z" style="fill-rule:nonzero;"/>
                    </g>
                </g>
            </g>
        </g>
    </g>
    <g id="Data-Header" serif:id="Data Header" transform="matrix(0.998561,0,0,1,-37.4453,-39)">
        <g transform="matrix(0.702899,0,0,0.5,-4.87681,-2)">
            <g transform="matrix(0.633028,0,0,1,22.3853,0)">
                <rect x="61" y="83" width="218" height="95" style="fill:rgb(179,179,179);stroke:black;stroke-width:2.11px;"/>
            </g>
            <g transform="matrix(1.42473,0,0,2,-25.9086,-83)">
                <g transform="matrix(26,0,0,26,70.4111,116.056)">
                    <path d="M0.074,-0L0.074,-0.716L0.564,-0.716L0.564,-0.595L0.218,-0.595L0.218,-0.425L0.517,-0.425L0.517,-0.304L0.218,-0.304L0.218,-0L0.074,-0Z" style="fill-rule:nonzero;"/>
                </g>
                <g transform="matrix(26,0,0,26,86.293,116.056)">
                    <path d="M0.203,-0L0.066,-0L0.066,-0.519L0.193,-0.519L0.193,-0.445C0.215,-0.48 0.235,-0.503 0.252,-0.514C0.27,-0.525 0.289,-0.53 0.312,-0.53C0.343,-0.53 0.373,-0.522 0.402,-0.504L0.359,-0.385C0.336,-0.4 0.315,-0.407 0.295,-0.407C0.276,-0.407 0.259,-0.402 0.246,-0.391C0.233,-0.381 0.222,-0.362 0.215,-0.334C0.207,-0.306 0.203,-0.248 0.203,-0.16L0.203,-0Z" style="fill-rule:nonzero;"/>
                </g>
                <g transform="matrix(26,0,0,26,96.4111,116.056)">
                    <path d="M0.174,-0.36L0.05,-0.383C0.064,-0.433 0.088,-0.47 0.122,-0.494C0.156,-0.518 0.207,-0.53 0.274,-0.53C0.336,-0.53 0.381,-0.523 0.411,-0.509C0.441,-0.494 0.462,-0.476 0.474,-0.453C0.487,-0.431 0.493,-0.39 0.493,-0.331L0.491,-0.17C0.491,-0.125 0.493,-0.091 0.498,-0.07C0.502,-0.048 0.51,-0.025 0.522,-0L0.387,-0C0.383,-0.009 0.379,-0.023 0.374,-0.041C0.371,-0.049 0.37,-0.054 0.369,-0.057C0.345,-0.034 0.32,-0.017 0.293,-0.005C0.267,0.006 0.238,0.012 0.208,0.012C0.155,0.012 0.113,-0.003 0.082,-0.032C0.051,-0.061 0.036,-0.097 0.036,-0.142C0.036,-0.171 0.043,-0.197 0.057,-0.22C0.071,-0.243 0.09,-0.26 0.115,-0.273C0.141,-0.285 0.177,-0.296 0.225,-0.305C0.289,-0.317 0.333,-0.328 0.358,-0.338L0.358,-0.352C0.358,-0.378 0.351,-0.397 0.338,-0.408C0.325,-0.42 0.301,-0.425 0.265,-0.425C0.24,-0.425 0.221,-0.42 0.208,-0.411C0.194,-0.401 0.183,-0.384 0.174,-0.36ZM0.358,-0.249C0.34,-0.243 0.313,-0.236 0.274,-0.228C0.236,-0.22 0.211,-0.212 0.2,-0.204C0.182,-0.191 0.173,-0.175 0.173,-0.156C0.173,-0.137 0.18,-0.12 0.194,-0.106C0.209,-0.092 0.227,-0.085 0.249,-0.085C0.274,-0.085 0.297,-0.093 0.32,-0.109C0.336,-0.122 0.347,-0.137 0.353,-0.155C0.356,-0.167 0.358,-0.189 0.358,-0.222L0.358,-0.249Z" style="fill-rule:nonzero;"/>
                </g>
                <g transform="matrix(26,0,0,26,110.871,116.056)">
                    <path d="M0.062,-0.519L0.188,-0.519L0.188,-0.448C0.233,-0.503 0.287,-0.53 0.35,-0.53C0.383,-0.53 0.412,-0.523 0.436,-0.51C0.46,-0.496 0.48,-0.475 0.496,-0.448C0.519,-0.475 0.543,-0.496 0.57,-0.51C0.596,-0.523 0.624,-0.53 0.654,-0.53C0.692,-0.53 0.725,-0.523 0.751,-0.507C0.777,-0.492 0.797,-0.469 0.81,-0.439C0.819,-0.417 0.824,-0.381 0.824,-0.332L0.824,-0L0.687,-0L0.687,-0.296C0.687,-0.348 0.682,-0.381 0.673,-0.396C0.66,-0.416 0.641,-0.425 0.614,-0.425C0.595,-0.425 0.577,-0.419 0.56,-0.408C0.543,-0.396 0.531,-0.379 0.523,-0.356C0.516,-0.334 0.512,-0.298 0.512,-0.249L0.512,-0L0.375,-0L0.375,-0.284C0.375,-0.335 0.373,-0.367 0.368,-0.382C0.363,-0.396 0.355,-0.407 0.345,-0.415C0.335,-0.422 0.321,-0.425 0.303,-0.425C0.282,-0.425 0.263,-0.42 0.246,-0.408C0.229,-0.397 0.217,-0.38 0.21,-0.359C0.202,-0.337 0.199,-0.302 0.199,-0.252L0.199,-0L0.062,-0L0.062,-0.519Z" style="fill-rule:nonzero;"/>
                </g>
                <g transform="matrix(26,0,0,26,133.989,116.056)">
                    <path d="M0.372,-0.165L0.509,-0.142C0.491,-0.092 0.463,-0.054 0.426,-0.028C0.388,-0.001 0.34,0.012 0.283,0.012C0.193,0.012 0.126,-0.018 0.083,-0.077C0.049,-0.124 0.032,-0.183 0.032,-0.255C0.032,-0.341 0.054,-0.409 0.099,-0.457C0.144,-0.506 0.201,-0.53 0.27,-0.53C0.347,-0.53 0.408,-0.505 0.452,-0.454C0.497,-0.403 0.518,-0.325 0.516,-0.22L0.172,-0.22C0.173,-0.179 0.184,-0.147 0.206,-0.125C0.227,-0.102 0.253,-0.091 0.285,-0.091C0.306,-0.091 0.324,-0.097 0.339,-0.108C0.354,-0.12 0.365,-0.139 0.372,-0.165ZM0.38,-0.304C0.379,-0.343 0.369,-0.374 0.349,-0.394C0.33,-0.415 0.306,-0.425 0.278,-0.425C0.248,-0.425 0.223,-0.414 0.204,-0.393C0.184,-0.371 0.174,-0.341 0.175,-0.304L0.38,-0.304Z" style="fill-rule:nonzero;"/>
                </g>
            </g>
        </g>
        <g transform="matrix(4.00684,0,0,0.5,-109.417,-2)">
            <g transform="matrix(0.633028,0,0,1,22.3853,0)">
                <rect x="61" y="83" width="218" height="95" style="fill:rgb(179,179,179);stroke:black;stroke-width:0.55px;"/>
            </g>
            <g transform="matrix(0.249933,0,0,2,45.7541,-83)">
                <g transform="matrix(26,0,0,26,308.897,116.056)">
                    <path d="M0.072,-0.716L0.336,-0.716C0.396,-0.716 0.441,-0.711 0.473,-0.702C0.515,-0.69 0.551,-0.668 0.581,-0.636C0.611,-0.605 0.633,-0.566 0.649,-0.52C0.665,-0.475 0.672,-0.418 0.672,-0.351C0.672,-0.292 0.665,-0.241 0.65,-0.199C0.632,-0.147 0.607,-0.104 0.574,-0.072C0.549,-0.048 0.515,-0.029 0.472,-0.015C0.44,-0.005 0.398,-0 0.344,-0L0.072,-0L0.072,-0.716ZM0.217,-0.595L0.217,-0.121L0.325,-0.121C0.365,-0.121 0.394,-0.123 0.412,-0.127C0.436,-0.133 0.455,-0.143 0.47,-0.157C0.486,-0.171 0.499,-0.194 0.508,-0.226C0.518,-0.258 0.523,-0.302 0.523,-0.357C0.523,-0.413 0.518,-0.455 0.508,-0.485C0.499,-0.514 0.485,-0.538 0.467,-0.554C0.45,-0.571 0.427,-0.582 0.4,-0.588C0.38,-0.592 0.341,-0.595 0.282,-0.595L0.217,-0.595Z" style="fill-rule:nonzero;"/>
                </g>
                <g transform="matrix(26,0,0,26,327.673,116.056)">
                    <path d="M0.174,-0.36L0.05,-0.383C0.064,-0.433 0.088,-0.47 0.122,-0.494C0.156,-0.518 0.207,-0.53 0.274,-0.53C0.336,-0.53 0.381,-0.523 0.411,-0.509C0.441,-0.494 0.462,-0.476 0.474,-0.453C0.487,-0.431 0.493,-0.39 0.493,-0.331L0.491,-0.17C0.491,-0.125 0.493,-0.091 0.498,-0.07C0.502,-0.048 0.51,-0.025 0.522,-0L0.387,-0C0.383,-0.009 0.379,-0.023 0.374,-0.041C0.371,-0.049 0.37,-0.054 0.369,-0.057C0.345,-0.034 0.32,-0.017 0.293,-0.005C0.267,0.006 0.238,0.012 0.208,0.012C0.155,0.012 0.113,-0.003 0.082,-0.032C0.051,-0.061 0.036,-0.097 0.036,-0.142C0.036,-0.171 0.043,-0.197 0.057,-0.22C0.071,-0.243 0.09,-0.26 0.115,-0.273C0.141,-0.285 0.177,-0.296 0.225,-0.305C0.289,-0.317 0.333,-0.328 0.358,-0.338L0.358,-0.352C0.358,-0.378 0.351,-0.397 0.338,-0.408C0.325,-0.42 0.301,-0.425 0.265,-0.425C0.24,-0.425 0.221,-0.42 0.208,-0.411C0.194,-0.401 0.183,-0.384 0.174,-0.36ZM0.358,-0.249C0.34,-0.243 0.313,-0.236 0.274,-0.228C0.236,-0.22 0.211,-0.212 0.2,-0.204C0.182,-0.191 0.173,-0.175 0.173,-0.156C0.173,-0.137 0.18,-0.12 0.194,-0.106C0.209,-0.092 0.227,-0.085 0.249,-0.085C0.274,-0.085 0.297,-0.093 0.32,-0.109C0.336,-0.122 0.347,-0.137 0.353,-0.155C0.356,-0.167 0.358,-0.189 0.358,-0.222L0.358,-0.249Z" style="fill-rule:nonzero;"/>
                </g>
                <g transform="matrix(26,0,0,26,342.133,116.056)">
                    <path d="M0.31,-0.519L0.31,-0.409L0.216,-0.409L0.216,-0.2C0.216,-0.158 0.217,-0.133 0.219,-0.126C0.22,-0.119 0.224,-0.113 0.231,-0.109C0.237,-0.104 0.245,-0.102 0.254,-0.102C0.267,-0.102 0.285,-0.106 0.309,-0.115L0.321,-0.009C0.289,0.005 0.253,0.012 0.212,0.012C0.188,0.012 0.165,0.008 0.146,-0.001C0.126,-0.009 0.111,-0.02 0.102,-0.033C0.093,-0.046 0.086,-0.064 0.083,-0.086C0.08,-0.102 0.078,-0.135 0.078,-0.183L0.078,-0.409L0.015,-0.409L0.015,-0.519L0.078,-0.519L0.078,-0.622L0.216,-0.702L0.216,-0.519L0.31,-0.519Z" style="fill-rule:nonzero;"/>
                </g>
                <g transform="matrix(26,0,0,26,350.791,116.056)">
                    <path d="M0.174,-0.36L0.05,-0.383C0.064,-0.433 0.088,-0.47 0.122,-0.494C0.156,-0.518 0.207,-0.53 0.274,-0.53C0.336,-0.53 0.381,-0.523 0.411,-0.509C0.441,-0.494 0.462,-0.476 0.474,-0.453C0.487,-0.431 0.493,-0.39 0.493,-0.331L0.491,-0.17C0.491,-0.125 0.493,-0.091 0.498,-0.07C0.502,-0.048 0.51,-0.025 0.522,-0L0.387,-0C0.383,-0.009 0.379,-0.023 0.374,-0.041C0.371,-0.049 0.37,-0.054 0.369,-0.057C0.345,-0.034 0.32,-0.017 0.293,-0.005C0.267,0.006 0.238,0.012 0.208,0.012C0.155,0.012 0.113,-0.003 0.082,-0.032C0.051,-0.061 0.036,-0.097 0.036,-0.142C0.036,-0.171 0.043,-0.197 0.057,-0.22C0.071,-0.243 0.09,-0.26 0.115,-0.273C0.141,-0.285 0.177,-0.296 0.225,-0.305C0.289,-0.317 0.333,-0.328 0.358,-0.338L0.358,-0.352C0.358,-0.378 0.351,-0.397 0.338,-0.408C0.325,-0.42 0.301,-0.425 0.265,-0.425C0.24,-0.425 0.221,-0.42 0.208,-0.411C0.194,-0.401 0.183,-0.384 0.174,-0.36ZM0.358,-0.249C0.34,-0.243 0.313,-0.236 0.274,-0.228C0.236,-0.22 0.211,-0.212 0.2,-0.204C0.182,-0.191 0.173,-0.175 0.173,-0.156C0.173,-0.137 0.18,-0.12 0.194,-0.106C0.209,-0.092 0.227,-0.085 0.249,-0.085C0.274,-0.085 0.297,-0.093 0.32,-0.109C0.336,-0.122 0.347,-0.137 0.353,-0.155C0.356,-0.167 0.358,-0.189 0.358,-0.222L0.358,-0.249Z" style="fill-rule:nonzero;"/>
                </g>
            </g>
        </g>
    </g>
    <g id="State-Header" serif:id="State Header" transform="matrix(0.5,0,0,0.5,791,-41)">
        <g transform="matrix(1.34813,0,0,1,-201.236,0)">
            <g transform="matrix(0.633028,0,0,1,22.3853,0)">
                <rect x="61" y="83" width="218" height="95" style="fill:rgb(179,179,179);stroke:black;stroke-width:2.15px;"/>
            </g>
            <g transform="matrix(1.48354,0,0,2,-29.496,-83)">
                <g transform="matrix(26,0,0,26,73.5694,116.056)">
                    <path d="M0.071,-0L0.071,-0.716L0.287,-0.716L0.417,-0.228L0.545,-0.716L0.762,-0.716L0.762,-0L0.628,-0L0.628,-0.563L0.486,-0L0.347,-0L0.205,-0.563L0.205,-0L0.071,-0Z" style="fill-rule:nonzero;"/>
                </g>
                <g transform="matrix(26,0,0,26,95.2276,116.056)">
                    <path d="M0.04,-0.267C0.04,-0.312 0.051,-0.356 0.074,-0.399C0.096,-0.442 0.128,-0.474 0.169,-0.497C0.21,-0.519 0.256,-0.53 0.307,-0.53C0.386,-0.53 0.45,-0.505 0.5,-0.454C0.55,-0.403 0.575,-0.339 0.575,-0.261C0.575,-0.182 0.55,-0.117 0.499,-0.066C0.449,-0.014 0.385,0.012 0.308,0.012C0.261,0.012 0.215,0.001 0.172,-0.021C0.129,-0.042 0.096,-0.073 0.074,-0.115C0.051,-0.156 0.04,-0.207 0.04,-0.267ZM0.181,-0.259C0.181,-0.208 0.193,-0.168 0.217,-0.141C0.242,-0.114 0.272,-0.1 0.308,-0.1C0.343,-0.1 0.373,-0.114 0.398,-0.141C0.422,-0.168 0.434,-0.208 0.434,-0.26C0.434,-0.311 0.422,-0.35 0.398,-0.377C0.373,-0.405 0.343,-0.418 0.308,-0.418C0.272,-0.418 0.242,-0.405 0.217,-0.377C0.193,-0.35 0.181,-0.311 0.181,-0.259Z" style="fill-rule:nonzero;"/>
                </g>
                <g transform="matrix(26,0,0,26,111.109,116.056)">
                    <path d="M0.547,-0L0.42,-0L0.42,-0.076C0.399,-0.047 0.374,-0.024 0.345,-0.01C0.316,0.004 0.287,0.012 0.258,0.012C0.198,0.012 0.147,-0.012 0.105,-0.06C0.062,-0.108 0.041,-0.175 0.041,-0.261C0.041,-0.349 0.062,-0.416 0.103,-0.462C0.144,-0.507 0.197,-0.53 0.26,-0.53C0.318,-0.53 0.368,-0.506 0.41,-0.458L0.41,-0.716L0.547,-0.716L0.547,-0ZM0.181,-0.271C0.181,-0.215 0.189,-0.175 0.204,-0.15C0.226,-0.115 0.257,-0.097 0.297,-0.097C0.328,-0.097 0.355,-0.11 0.377,-0.137C0.4,-0.164 0.411,-0.204 0.411,-0.257C0.411,-0.317 0.4,-0.36 0.378,-0.386C0.357,-0.412 0.329,-0.425 0.296,-0.425C0.263,-0.425 0.236,-0.412 0.214,-0.386C0.192,-0.361 0.181,-0.322 0.181,-0.271Z" style="fill-rule:nonzero;"/>
                </g>
                <g transform="matrix(26,0,0,26,126.991,116.056)">
                    <path d="M0.372,-0.165L0.509,-0.142C0.491,-0.092 0.463,-0.054 0.426,-0.028C0.388,-0.001 0.34,0.012 0.283,0.012C0.193,0.012 0.126,-0.018 0.083,-0.077C0.049,-0.124 0.032,-0.183 0.032,-0.255C0.032,-0.341 0.054,-0.409 0.099,-0.457C0.144,-0.506 0.201,-0.53 0.27,-0.53C0.347,-0.53 0.408,-0.505 0.452,-0.454C0.497,-0.403 0.518,-0.325 0.516,-0.22L0.172,-0.22C0.173,-0.179 0.184,-0.147 0.206,-0.125C0.227,-0.102 0.253,-0.091 0.285,-0.091C0.306,-0.091 0.324,-0.097 0.339,-0.108C0.354,-0.12 0.365,-0.139 0.372,-0.165ZM0.38,-0.304C0.379,-0.343 0.369,-0.374 0.349,-0.394C0.33,-0.415 0.306,-0.425 0.278,-0.425C0.248,-0.425 0.223,-0.414 0.204,-0.393C0.184,-0.371 0.174,-0.341 0.175,-0.304L0.38,-0.304Z" style="fill-rule:nonzero;"/>
                </g>
            </g>
        </g>
        <g transform="matrix(1.34753,0,0,1,-15.1578,0)">
            <g transform="matrix(0.633028,0,0,1,22.3853,0)">
                <rect x="61" y="83" width="218" height="95" style="fill:rgb(179,179,179);stroke:black;stroke-width:2.15px;"/>
            </g>
            <g transform="matrix(1.4842,0,0,2,-29.5362,-83)">
                <g transform="matrix(26,0,0,26,69.9496,116.056)">
                    <path d="M0.531,-0.263L0.671,-0.219C0.649,-0.141 0.614,-0.083 0.564,-0.045C0.514,-0.007 0.45,0.012 0.374,0.012C0.278,0.012 0.2,-0.02 0.139,-0.085C0.078,-0.15 0.047,-0.239 0.047,-0.352C0.047,-0.471 0.078,-0.563 0.14,-0.629C0.201,-0.695 0.282,-0.728 0.382,-0.728C0.47,-0.728 0.541,-0.702 0.596,-0.65C0.628,-0.62 0.653,-0.576 0.669,-0.519L0.526,-0.484C0.517,-0.521 0.5,-0.551 0.473,-0.572C0.446,-0.594 0.413,-0.604 0.375,-0.604C0.322,-0.604 0.279,-0.585 0.246,-0.547C0.213,-0.509 0.196,-0.448 0.196,-0.362C0.196,-0.272 0.213,-0.207 0.245,-0.169C0.278,-0.131 0.32,-0.111 0.372,-0.111C0.41,-0.111 0.444,-0.124 0.471,-0.148C0.499,-0.172 0.519,-0.211 0.531,-0.263Z" style="fill-rule:nonzero;"/>
                </g>
                <g transform="matrix(26,0,0,26,88.726,116.056)">
                    <path d="M0.04,-0.267C0.04,-0.312 0.051,-0.356 0.074,-0.399C0.096,-0.442 0.128,-0.474 0.169,-0.497C0.21,-0.519 0.256,-0.53 0.307,-0.53C0.386,-0.53 0.45,-0.505 0.5,-0.454C0.55,-0.403 0.575,-0.339 0.575,-0.261C0.575,-0.182 0.55,-0.117 0.499,-0.066C0.449,-0.014 0.385,0.012 0.308,0.012C0.261,0.012 0.215,0.001 0.172,-0.021C0.129,-0.042 0.096,-0.073 0.074,-0.115C0.051,-0.156 0.04,-0.207 0.04,-0.267ZM0.181,-0.259C0.181,-0.208 0.193,-0.168 0.217,-0.141C0.242,-0.114 0.272,-0.1 0.308,-0.1C0.343,-0.1 0.373,-0.114 0.398,-0.141C0.422,-0.168 0.434,-0.208 0.434,-0.26C0.434,-0.311 0.422,-0.35 0.398,-0.377C0.373,-0.405 0.343,-0.418 0.308,-0.418C0.272,-0.418 0.242,-0.405 0.217,-0.377C0.193,-0.35 0.181,-0.311 0.181,-0.259Z" style="fill-rule:nonzero;"/>
                </g>
                <g transform="matrix(26,0,0,26,104.608,116.056)">
                    <path d="M0.413,-0L0.413,-0.078C0.394,-0.05 0.369,-0.028 0.339,-0.012C0.308,0.004 0.275,0.012 0.241,0.012C0.206,0.012 0.175,0.004 0.147,-0.011C0.12,-0.027 0.1,-0.048 0.087,-0.076C0.075,-0.103 0.069,-0.142 0.069,-0.19L0.069,-0.519L0.206,-0.519L0.206,-0.28C0.206,-0.207 0.209,-0.163 0.214,-0.146C0.219,-0.13 0.228,-0.117 0.241,-0.107C0.255,-0.098 0.271,-0.093 0.292,-0.093C0.315,-0.093 0.336,-0.099 0.355,-0.112C0.374,-0.125 0.386,-0.141 0.393,-0.16C0.4,-0.179 0.403,-0.226 0.403,-0.3L0.403,-0.519L0.541,-0.519L0.541,-0L0.413,-0Z" style="fill-rule:nonzero;"/>
                </g>
                <g transform="matrix(26,0,0,26,120.49,116.056)">
                    <path d="M0.543,-0L0.406,-0L0.406,-0.265C0.406,-0.321 0.403,-0.357 0.397,-0.373C0.392,-0.39 0.382,-0.403 0.369,-0.412C0.356,-0.421 0.34,-0.425 0.321,-0.425C0.298,-0.425 0.276,-0.419 0.257,-0.406C0.238,-0.393 0.226,-0.375 0.219,-0.354C0.212,-0.333 0.208,-0.293 0.208,-0.235L0.208,-0L0.071,-0L0.071,-0.519L0.198,-0.519L0.198,-0.442C0.243,-0.501 0.3,-0.53 0.369,-0.53C0.399,-0.53 0.427,-0.525 0.452,-0.514C0.477,-0.503 0.496,-0.489 0.509,-0.472C0.522,-0.455 0.531,-0.436 0.536,-0.415C0.541,-0.393 0.543,-0.362 0.543,-0.322L0.543,-0Z" style="fill-rule:nonzero;"/>
                </g>
                <g transform="matrix(26,0,0,26,136.372,116.056)">
                    <path d="M0.31,-0.519L0.31,-0.409L0.216,-0.409L0.216,-0.2C0.216,-0.158 0.217,-0.133 0.219,-0.126C0.22,-0.119 0.224,-0.113 0.231,-0.109C0.237,-0.104 0.245,-0.102 0.254,-0.102C0.267,-0.102 0.285,-0.106 0.309,-0.115L0.321,-0.009C0.289,0.005 0.253,0.012 0.212,0.012C0.188,0.012 0.165,0.008 0.146,-0.001C0.126,-0.009 0.111,-0.02 0.102,-0.033C0.093,-0.046 0.086,-0.064 0.083,-0.086C0.08,-0.102 0.078,-0.135 0.078,-0.183L0.078,-0.409L0.015,-0.409L0.015,-0.519L0.078,-0.519L0.078,-0.622L0.216,-0.702L0.216,-0.519L0.31,-0.519Z" style="fill-rule:nonzero;"/>
                </g>
            </g>
        </g>
    </g>
</svg>
