<svg xmlns="http://www.w3.org/2000/svg" xmlns:xlink="http://www.w3.org/1999/xlink" width="100%" height="100%" version="1.1" viewBox="0 0 918 285" xml:space="preserve" style="fill-rule:evenodd;clip-rule:evenodd;stroke-linecap:round;stroke-linejoin:round;stroke-miterlimit:1.5"><g id="Frame-0" transform="matrix(1,0,0,1,-37.5,-39)"><g id="Data-0"><g><g transform="matrix(0.702899,0,0,0.5,-4.87681,45.5) matrix(0.633028,0,0,1,22.3853,0)"><rect width="218" height="95" x="61" y="83" style="fill:#d9d9d9;stroke:#000;stroke-width:2.11px"/></g><g><text x="102.27" y="116.056" style="font-family:'Arial-BoldMT','Arial',sans-serif;font-weight:700;font-size:26px" transform="matrix(0.702899,0,0,0.5,-4.87681,45.5) matrix(1.42268,0,0,2,-25.7835,-83)">0</text></g></g><g><g transform="matrix(0.5,0,0,0.5,104.5,45.5) matrix(0.633028,0,0,1,22.3853,0)"><rect width="218" height="95" x="61" y="83" style="fill:#00ff05;stroke:#000;stroke-width:2.39px"/></g><g><text x="85.489" y="119.635" style="font-family:'Arial-BoldMT','Arial',sans-serif;font-weight:700;font-size:36px" transform="matrix(0.5,0,0,0.5,104.5,45.5) matrix(2,0,0,2,-61,-83)">c</text></g></g><g><g transform="matrix(0.5,0,0,0.5,173.5,45.5) matrix(0.633028,0,0,1,22.3853,0)"><rect width="218" height="95" x="61" y="83" style="fill:#00ff05;stroke:#000;stroke-width:2.39px"/></g><g><text x="84.505" y="119.635" style="font-family:'Arial-BoldMT','Arial',sans-serif;font-weight:700;font-size:36px" transform="matrix(0.5,0,0,0.5,173.5,45.5) matrix(2,0,0,2,-61,-83)">d</text></g></g><g><g transform="matrix(0.5,0,0,0.5,242.5,45.5) matrix(0.633028,0,0,1,22.3853,0)"><rect width="218" height="95" x="61" y="83" style="fill:#00ff05;stroke:#000;stroke-width:2.39px"/></g><g><text x="85.489" y="119.635" style="font-family:'Arial-BoldMT','Arial',sans-serif;font-weight:700;font-size:36px" transform="matrix(0.5,0,0,0.5,242.5,45.5) matrix(2,0,0,2,-61,-83)">c</text></g></g><g><g transform="matrix(0.5,0,0,0.5,311.5,45.5) matrix(0.633028,0,0,1,22.3853,0)"><rect width="218" height="95" x="61" y="83" style="fill:#00ff05;stroke:#000;stroke-width:2.39px"/></g><g><text x="84.505" y="119.635" style="font-family:'Arial-BoldMT','Arial',sans-serif;font-weight:700;font-size:36px" transform="matrix(0.5,0,0,0.5,311.5,45.5) matrix(2,0,0,2,-61,-83)">b</text></g></g><g><g transform="matrix(1,0,0,1,350,4) matrix(0.316514,0,0,0.5,41.6927,41.5)"><rect width="218" height="95" x="61" y="83" style="fill:#fff;stroke:#000;stroke-width:2.39px"/></g><text x="84.505" y="119.635" style="font-family:'Arial-BoldMT','Arial',sans-serif;font-weight:700;font-size:36px" transform="matrix(1,0,0,1,350,4)">g</text></g><g><g transform="matrix(1,0,0,1,419,4) matrix(0.316514,0,0,0.5,41.6927,41.5)"><rect width="218" height="95" x="61" y="83" style="fill:#fff;stroke:#000;stroke-width:2.39px"/></g><text x="84.505" y="119.635" style="font-family:'Arial-BoldMT','Arial',sans-serif;font-weight:700;font-size:36px" transform="matrix(1,0,0,1,419,4)">b</text></g><g><g transform="matrix(1,0,0,1,488,4) matrix(0.316514,0,0,0.5,41.6927,41.5)"><rect width="218" height="95" x="61" y="83" style="fill:#fff;stroke:#000;stroke-width:2.39px"/></g><text x="85.489" y="119.635" style="font-family:'Arial-BoldMT','Arial',sans-serif;font-weight:700;font-size:36px" transform="matrix(1,0,0,1,488,4)">e</text></g><g><g transform="matrix(1,0,0,1,557,4) matrix(0.316514,0,0,0.5,41.6927,41.5)"><rect width="218" height="95" x="61" y="83" style="fill:#fff;stroke:#000;stroke-width:2.39px"/></g><text x="84.505" y="119.635" style="font-family:'Arial-BoldMT','Arial',sans-serif;font-weight:700;font-size:36px" transform="matrix(1,0,0,1,557,4)">d</text></g></g><g id="Mode-0"><g><g transform="matrix(0.656448,0,0,0.5,728.957,45.5) matrix(0.649869,0,0,1,21.358,0)"><rect width="218" height="95" x="61" y="83" style="fill:#00bfff;stroke:#000;stroke-width:2.15px"/></g><g><text x="97.489" y="119.635" style="font-family:'Arial-BoldMT','Arial',sans-serif;font-weight:700;font-size:36px" transform="matrix(0.656448,0,0,0.5,728.957,45.5) matrix(1.52335,0,0,2,-31.9243,-83)">c</text></g></g><g><g transform="matrix(0.673913,0,0,0.5,820.891,45.5) matrix(0.633028,0,0,1,22.3853,0)"><rect width="218" height="95" x="61" y="83" style="fill:#fff;stroke:#000;stroke-width:2.15px"/></g><g><text x="97.489" y="119.635" style="font-family:'Arial-BoldMT','Arial',sans-serif;font-weight:700;font-size:36px" transform="matrix(0.673913,0,0,0.5,820.891,45.5) matrix(1.48387,0,0,2,-29.5161,-83)">2</text></g></g></g></g><g id="Frame-1" transform="matrix(1,0,0,1,-37.5,-39)"><g id="Data-1"><g><g transform="matrix(1,0,0,1,0,47.5) matrix(0.702899,0,0,0.5,-4.87681,45.5) matrix(0.633028,0,0,1,22.3853,0)"><rect width="218" height="95" x="61" y="83" style="fill:#d9d9d9;stroke:#000;stroke-width:2.11px"/></g><g><text x="102.27" y="116.056" style="font-family:'Arial-BoldMT','Arial',sans-serif;font-weight:700;font-size:26px" transform="matrix(1,0,0,1,0,47.5) matrix(0.702899,0,0,0.5,-4.87681,45.5) matrix(1.42268,0,0,2,-25.7835,-83)">1</text></g></g><g><g transform="matrix(1,0,0,1,0,47.5) matrix(0.5,0,0,0.5,104.5,45.5) matrix(0.633028,0,0,1,22.3853,0)"><rect width="218" height="95" x="61" y="83" style="fill:#fff;stroke:#000;stroke-width:2.39px"/></g><g><text x="85.489" y="119.635" style="font-family:'Arial-BoldMT','Arial',sans-serif;font-weight:700;font-size:36px" transform="matrix(1,0,0,1,0,47.5) matrix(0.5,0,0,0.5,104.5,45.5) matrix(2,0,0,2,-61,-83)">c</text></g></g><g><g transform="matrix(1,0,0,1,0,47.5) matrix(0.5,0,0,0.5,173.5,45.5) matrix(0.633028,0,0,1,22.3853,0)"><rect width="218" height="95" x="61" y="83" style="fill:#00ff05;stroke:#000;stroke-width:2.39px"/></g><g><text x="84.505" y="119.635" style="font-family:'Arial-BoldMT','Arial',sans-serif;font-weight:700;font-size:36px" transform="matrix(1,0,0,1,0,47.5) matrix(0.5,0,0,0.5,173.5,45.5) matrix(2,0,0,2,-61,-83)">d</text></g></g><g><g transform="matrix(1,0,0,1,0,47.5) matrix(0.5,0,0,0.5,242.5,45.5) matrix(0.633028,0,0,1,22.3853,0)"><rect width="218" height="95" x="61" y="83" style="fill:#00ff05;stroke:#000;stroke-width:2.39px"/></g><g><text x="85.489" y="119.635" style="font-family:'Arial-BoldMT','Arial',sans-serif;font-weight:700;font-size:36px" transform="matrix(1,0,0,1,0,47.5) matrix(0.5,0,0,0.5,242.5,45.5) matrix(2,0,0,2,-61,-83)">c</text></g></g><g><g transform="matrix(1,0,0,1,0,47.5) matrix(0.5,0,0,0.5,311.5,45.5) matrix(0.633028,0,0,1,22.3853,0)"><rect width="218" height="95" x="61" y="83" style="fill:#00ff05;stroke:#000;stroke-width:2.39px"/></g><g><text x="84.505" y="119.635" style="font-family:'Arial-BoldMT','Arial',sans-serif;font-weight:700;font-size:36px" transform="matrix(1,0,0,1,0,47.5) matrix(0.5,0,0,0.5,311.5,45.5) matrix(2,0,0,2,-61,-83)">b</text></g></g><g><g transform="matrix(1,0,0,1,0,47.5) matrix(1,0,0,1,350,4) matrix(0.316514,0,0,0.5,41.6927,41.5)"><rect width="218" height="95" x="61" y="83" style="fill:#00ff05;stroke:#000;stroke-width:2.39px"/></g><text x="84.505" y="119.635" style="font-family:'Arial-BoldMT','Arial',sans-serif;font-weight:700;font-size:36px" transform="matrix(1,0,0,1,0,47.5) matrix(1,0,0,1,350,4)">g</text></g><g><g transform="matrix(1,0,0,1,0,47.5) matrix(1,0,0,1,419,4) matrix(0.316514,0,0,0.5,41.6927,41.5)"><rect width="218" height="95" x="61" y="83" style="fill:#fff;stroke:#000;stroke-width:2.39px"/></g><text x="84.505" y="119.635" style="font-family:'Arial-BoldMT','Arial',sans-serif;font-weight:700;font-size:36px" transform="matrix(1,0,0,1,0,47.5) matrix(1,0,0,1,419,4)">b</text></g><g><g transform="matrix(1,0,0,1,0,47.5) matrix(1,0,0,1,488,4) matrix(0.316514,0,0,0.5,41.6927,41.5)"><rect width="218" height="95" x="61" y="83" style="fill:#fff;stroke:#000;stroke-width:2.39px"/></g><text x="85.489" y="119.635" style="font-family:'Arial-BoldMT','Arial',sans-serif;font-weight:700;font-size:36px" transform="matrix(1,0,0,1,0,47.5) matrix(1,0,0,1,488,4)">e</text></g><g><g transform="matrix(1,0,0,1,0,47.5) matrix(1,0,0,1,557,4) matrix(0.316514,0,0,0.5,41.6927,41.5)"><rect width="218" height="95" x="61" y="83" style="fill:#fff;stroke:#000;stroke-width:2.39px"/></g><text x="84.505" y="119.635" style="font-family:'Arial-BoldMT','Arial',sans-serif;font-weight:700;font-size:36px" transform="matrix(1,0,0,1,0,47.5) matrix(1,0,0,1,557,4)">d</text></g></g><g id="Mode-1"><g id="Mode-11"><g transform="matrix(0.673913,0,0,0.5,727.891,93) matrix(0.633028,0,0,1,22.3853,0)"><rect width="218" height="95" x="61" y="83" style="fill:#ff9d00;stroke:#000;stroke-width:2.15px"/></g><g><text x="84.517" y="119.635" style="font-family:'Arial-BoldMT','Arial',sans-serif;font-weight:700;font-size:36px" transform="matrix(0.673913,0,0,0.5,727.891,93) matrix(1.48387,0,0,2,-29.5161,-83)">(g)</text></g></g><g><g transform="matrix(0.673913,0,0,0.5,820.891,93) matrix(0.633028,0,0,1,22.3853,0)"><rect width="218" height="95" x="61" y="83" style="fill:#fff;stroke:#000;stroke-width:2.15px"/></g><g><text x="97.489" y="119.635" style="font-family:'Arial-BoldMT','Arial',sans-serif;font-weight:700;font-size:36px" transform="matrix(0.673913,0,0,0.5,820.891,93) matrix(1.48387,0,0,2,-29.5161,-83)">1</text></g></g></g></g><g id="Frame-2" transform="matrix(1,0,0,1,-37.5,8.5)"><g id="Data-2"><g><g transform="matrix(1,0,0,1,0,47.5) matrix(0.702899,0,0,0.5,-4.87681,45.5) matrix(0.633028,0,0,1,22.3853,0)"><rect width="218" height="95" x="61" y="83" style="fill:#d9d9d9;stroke:#000;stroke-width:2.11px"/></g><g><text x="102.27" y="116.056" style="font-family:'Arial-BoldMT','Arial',sans-serif;font-weight:700;font-size:26px" transform="matrix(1,0,0,1,0,47.5) matrix(0.702899,0,0,0.5,-4.87681,45.5) matrix(1.42268,0,0,2,-25.7835,-83)">2</text></g></g><g><g transform="matrix(1,0,0,1,0,47.5) matrix(0.5,0,0,0.5,104.5,45.5) matrix(0.633028,0,0,1,22.3853,0)"><rect width="218" height="95" x="61" y="83" style="fill:#fff;stroke:#000;stroke-width:2.39px"/></g><g><text x="85.489" y="119.635" style="font-family:'Arial-BoldMT','Arial',sans-serif;font-weight:700;font-size:36px" transform="matrix(1,0,0,1,0,47.5) matrix(0.5,0,0,0.5,104.5,45.5) matrix(2,0,0,2,-61,-83)">c</text></g></g><g><g transform="matrix(1,0,0,1,0,47.5) matrix(0.5,0,0,0.5,173.5,45.5) matrix(0.633028,0,0,1,22.3853,0)"><rect width="218" height="95" x="61" y="83" style="fill:#fff;stroke:#000;stroke-width:2.39px"/></g><g><text x="84.505" y="119.635" style="font-family:'Arial-BoldMT','Arial',sans-serif;font-weight:700;font-size:36px" transform="matrix(1,0,0,1,0,47.5) matrix(0.5,0,0,0.5,173.5,45.5) matrix(2,0,0,2,-61,-83)">d</text></g></g><g><g transform="matrix(1,0,0,1,0,47.5) matrix(0.5,0,0,0.5,242.5,45.5) matrix(0.633028,0,0,1,22.3853,0)"><rect width="218" height="95" x="61" y="83" style="fill:#00ff05;stroke:#000;stroke-width:2.39px"/></g><g><text x="85.489" y="119.635" style="font-family:'Arial-BoldMT','Arial',sans-serif;font-weight:700;font-size:36px" transform="matrix(1,0,0,1,0,47.5) matrix(0.5,0,0,0.5,242.5,45.5) matrix(2,0,0,2,-61,-83)">c</text></g></g><g><g transform="matrix(1,0,0,1,0,47.5) matrix(0.5,0,0,0.5,311.5,45.5) matrix(0.633028,0,0,1,22.3853,0)"><rect width="218" height="95" x="61" y="83" style="fill:#00ff05;stroke:#000;stroke-width:2.39px"/></g><g><text x="84.505" y="119.635" style="font-family:'Arial-BoldMT','Arial',sans-serif;font-weight:700;font-size:36px" transform="matrix(1,0,0,1,0,47.5) matrix(0.5,0,0,0.5,311.5,45.5) matrix(2,0,0,2,-61,-83)">b</text></g></g><g><g transform="matrix(1,0,0,1,0,47.5) matrix(1,0,0,1,350,4) matrix(0.316514,0,0,0.5,41.6927,41.5)"><rect width="218" height="95" x="61" y="83" style="fill:#00ff05;stroke:#000;stroke-width:2.39px"/></g><text x="84.505" y="119.635" style="font-family:'Arial-BoldMT','Arial',sans-serif;font-weight:700;font-size:36px" transform="matrix(1,0,0,1,0,47.5) matrix(1,0,0,1,350,4)">g</text></g><g><g transform="matrix(1,0,0,1,0,47.5) matrix(1,0,0,1,419,4) matrix(0.316514,0,0,0.5,41.6927,41.5)"><rect width="218" height="95" x="61" y="83" style="fill:#00ff05;stroke:#000;stroke-width:2.39px"/></g><text x="84.505" y="119.635" style="font-family:'Arial-BoldMT','Arial',sans-serif;font-weight:700;font-size:36px" transform="matrix(1,0,0,1,0,47.5) matrix(1,0,0,1,419,4)">b</text></g><g><g transform="matrix(1,0,0,1,0,47.5) matrix(1,0,0,1,488,4) matrix(0.316514,0,0,0.5,41.6927,41.5)"><rect width="218" height="95" x="61" y="83" style="fill:#fff;stroke:#000;stroke-width:2.39px"/></g><text x="85.489" y="119.635" style="font-family:'Arial-BoldMT','Arial',sans-serif;font-weight:700;font-size:36px" transform="matrix(1,0,0,1,0,47.5) matrix(1,0,0,1,488,4)">e</text></g><g><g transform="matrix(1,0,0,1,0,47.5) matrix(1,0,0,1,557,4) matrix(0.316514,0,0,0.5,41.6927,41.5)"><rect width="218" height="95" x="61" y="83" style="fill:#fff;stroke:#000;stroke-width:2.39px"/></g><text x="84.505" y="119.635" style="font-family:'Arial-BoldMT','Arial',sans-serif;font-weight:700;font-size:36px" transform="matrix(1,0,0,1,0,47.5) matrix(1,0,0,1,557,4)">d</text></g></g><g id="Mode-2"><g id="Mode-12"><g transform="matrix(0.673913,0,0,0.5,727.891,93) matrix(0.633028,0,0,1,22.3853,0)"><rect width="218" height="95" x="61" y="83" style="fill:#00bfff;stroke:#000;stroke-width:2.15px"/></g><g><text x="96.505" y="119.635" style="font-family:'Arial-BoldMT','Arial',sans-serif;font-weight:700;font-size:36px" transform="matrix(0.673913,0,0,0.5,727.891,93) matrix(1.48387,0,0,2,-29.5161,-83)">b</text></g></g><g><g transform="matrix(0.673913,0,0,0.5,820.891,93) matrix(0.633028,0,0,1,22.3853,0)"><rect width="218" height="95" x="61" y="83" style="fill:#fff;stroke:#000;stroke-width:2.15px"/></g><g><text x="97.489" y="119.635" style="font-family:'Arial-BoldMT','Arial',sans-serif;font-weight:700;font-size:36px" transform="matrix(0.673913,0,0,0.5,820.891,93) matrix(1.48387,0,0,2,-29.5161,-83)">2</text></g></g></g></g><g id="Frame-3" transform="matrix(1,0,0,1,-37.5,55)"><g id="Data-3"><g><g transform="matrix(1,0,0,1,0,47.5) matrix(0.702899,0,0,0.5,-4.87681,45.5) matrix(0.633028,0,0,1,22.3853,0)"><rect width="218" height="95" x="61" y="83" style="fill:#d9d9d9;stroke:#000;stroke-width:2.11px"/></g><g><text x="102.27" y="116.056" style="font-family:'Arial-BoldMT','Arial',sans-serif;font-weight:700;font-size:26px" transform="matrix(1,0,0,1,0,47.5) matrix(0.702899,0,0,0.5,-4.87681,45.5) matrix(1.42268,0,0,2,-25.7835,-83)">3</text></g></g><g><g transform="matrix(1,0,0,1,0,47.5) matrix(0.5,0,0,0.5,104.5,45.5) matrix(0.633028,0,0,1,22.3853,0)"><rect width="218" height="95" x="61" y="83" style="fill:#fff;stroke:#000;stroke-width:2.39px"/></g><g><text x="85.489" y="119.635" style="font-family:'Arial-BoldMT','Arial',sans-serif;font-weight:700;font-size:36px" transform="matrix(1,0,0,1,0,47.5) matrix(0.5,0,0,0.5,104.5,45.5) matrix(2,0,0,2,-61,-83)">c</text></g></g><g><g transform="matrix(1,0,0,1,0,47.5) matrix(0.5,0,0,0.5,173.5,45.5) matrix(0.633028,0,0,1,22.3853,0)"><rect width="218" height="95" x="61" y="83" style="fill:#fff;stroke:#000;stroke-width:2.39px"/></g><g><text x="84.505" y="119.635" style="font-family:'Arial-BoldMT','Arial',sans-serif;font-weight:700;font-size:36px" transform="matrix(1,0,0,1,0,47.5) matrix(0.5,0,0,0.5,173.5,45.5) matrix(2,0,0,2,-61,-83)">d</text></g></g><g><g transform="matrix(1,0,0,1,0,47.5) matrix(0.5,0,0,0.5,242.5,45.5) matrix(0.633028,0,0,1,22.3853,0)"><rect width="218" height="95" x="61" y="83" style="fill:#fff;stroke:#000;stroke-width:2.39px"/></g><g><text x="85.489" y="119.635" style="font-family:'Arial-BoldMT','Arial',sans-serif;font-weight:700;font-size:36px" transform="matrix(1,0,0,1,0,47.5) matrix(0.5,0,0,0.5,242.5,45.5) matrix(2,0,0,2,-61,-83)">c</text></g></g><g><g transform="matrix(1,0,0,1,0,47.5) matrix(0.5,0,0,0.5,311.5,45.5) matrix(0.633028,0,0,1,22.3853,0)"><rect width="218" height="95" x="61" y="83" style="fill:#00ff05;stroke:#000;stroke-width:2.39px"/></g><g><text x="84.505" y="119.635" style="font-family:'Arial-BoldMT','Arial',sans-serif;font-weight:700;font-size:36px" transform="matrix(1,0,0,1,0,47.5) matrix(0.5,0,0,0.5,311.5,45.5) matrix(2,0,0,2,-61,-83)">b</text></g></g><g><g transform="matrix(1,0,0,1,0,47.5) matrix(1,0,0,1,350,4) matrix(0.316514,0,0,0.5,41.6927,41.5)"><rect width="218" height="95" x="61" y="83" style="fill:#00ff05;stroke:#000;stroke-width:2.39px"/></g><text x="84.505" y="119.635" style="font-family:'Arial-BoldMT','Arial',sans-serif;font-weight:700;font-size:36px" transform="matrix(1,0,0,1,0,47.5) matrix(1,0,0,1,350,4)">g</text></g><g><g transform="matrix(1,0,0,1,0,47.5) matrix(1,0,0,1,419,4) matrix(0.316514,0,0,0.5,41.6927,41.5)"><rect width="218" height="95" x="61" y="83" style="fill:#00ff05;stroke:#000;stroke-width:2.39px"/></g><text x="84.505" y="119.635" style="font-family:'Arial-BoldMT','Arial',sans-serif;font-weight:700;font-size:36px" transform="matrix(1,0,0,1,0,47.5) matrix(1,0,0,1,419,4)">b</text></g><g><g transform="matrix(1,0,0,1,0,47.5) matrix(1,0,0,1,488,4) matrix(0.316514,0,0,0.5,41.6927,41.5)"><rect width="218" height="95" x="61" y="83" style="fill:#00ff05;stroke:#000;stroke-width:2.39px"/></g><text x="85.489" y="119.635" style="font-family:'Arial-BoldMT','Arial',sans-serif;font-weight:700;font-size:36px" transform="matrix(1,0,0,1,0,47.5) matrix(1,0,0,1,488,4)">e</text></g><g><g transform="matrix(1,0,0,1,0,47.5) matrix(1,0,0,1,557,4) matrix(0.316514,0,0,0.5,41.6927,41.5)"><rect width="218" height="95" x="61" y="83" style="fill:#fff;stroke:#000;stroke-width:2.39px"/></g><text x="84.505" y="119.635" style="font-family:'Arial-BoldMT','Arial',sans-serif;font-weight:700;font-size:36px" transform="matrix(1,0,0,1,0,47.5) matrix(1,0,0,1,557,4)">d</text></g></g><g id="Mode-3"><g id="Mode-13"><g transform="matrix(0.673913,0,0,0.5,727.891,93) matrix(0.633028,0,0,1,22.3853,0)"><rect width="218" height="95" x="61" y="83" style="fill:#00bfff;stroke:#000;stroke-width:2.15px"/></g><g><text x="96.505" y="119.635" style="font-family:'Arial-BoldMT','Arial',sans-serif;font-weight:700;font-size:36px" transform="matrix(0.673913,0,0,0.5,727.891,93) matrix(1.48387,0,0,2,-29.5161,-83)">b</text></g></g><g><g transform="matrix(0.673913,0,0,0.5,820.891,93) matrix(0.633028,0,0,1,22.3853,0)"><rect width="218" height="95" x="61" y="83" style="fill:#fff;stroke:#000;stroke-width:2.15px"/></g><g><text x="97.489" y="119.635" style="font-family:'Arial-BoldMT','Arial',sans-serif;font-weight:700;font-size:36px" transform="matrix(0.673913,0,0,0.5,820.891,93) matrix(1.48387,0,0,2,-29.5161,-83)">2</text></g></g></g></g><g id="Frame-4" transform="matrix(1,0,0,1,-37.5,102.5)"><g id="Data-4"><g><g transform="matrix(1,0,0,1,0,47.5) matrix(0.702899,0,0,0.5,-4.87681,45.5) matrix(0.633028,0,0,1,22.3853,0)"><rect width="218" height="95" x="61" y="83" style="fill:#d9d9d9;stroke:#000;stroke-width:2.11px"/></g><g><text x="102.27" y="116.056" style="font-family:'Arial-BoldMT','Arial',sans-serif;font-weight:700;font-size:26px" transform="matrix(1,0,0,1,0,47.5) matrix(0.702899,0,0,0.5,-4.87681,45.5) matrix(1.42268,0,0,2,-25.7835,-83)">4</text></g></g><g><g transform="matrix(1,0,0,1,0,47.5) matrix(0.5,0,0,0.5,104.5,45.5) matrix(0.633028,0,0,1,22.3853,0)"><rect width="218" height="95" x="61" y="83" style="fill:#fff;stroke:#000;stroke-width:2.39px"/></g><g><text x="85.489" y="119.635" style="font-family:'Arial-BoldMT','Arial',sans-serif;font-weight:700;font-size:36px" transform="matrix(1,0,0,1,0,47.5) matrix(0.5,0,0,0.5,104.5,45.5) matrix(2,0,0,2,-61,-83)">c</text></g></g><g><g transform="matrix(1,0,0,1,0,47.5) matrix(0.5,0,0,0.5,173.5,45.5) matrix(0.633028,0,0,1,22.3853,0)"><rect width="218" height="95" x="61" y="83" style="fill:#fff;stroke:#000;stroke-width:2.39px"/></g><g><text x="84.505" y="119.635" style="font-family:'Arial-BoldMT','Arial',sans-serif;font-weight:700;font-size:36px" transform="matrix(1,0,0,1,0,47.5) matrix(0.5,0,0,0.5,173.5,45.5) matrix(2,0,0,2,-61,-83)">d</text></g></g><g><g transform="matrix(1,0,0,1,0,47.5) matrix(0.5,0,0,0.5,242.5,45.5) matrix(0.633028,0,0,1,22.3853,0)"><rect width="218" height="95" x="61" y="83" style="fill:#fff;stroke:#000;stroke-width:2.39px"/></g><g><text x="85.489" y="119.635" style="font-family:'Arial-BoldMT','Arial',sans-serif;font-weight:700;font-size:36px" transform="matrix(1,0,0,1,0,47.5) matrix(0.5,0,0,0.5,242.5,45.5) matrix(2,0,0,2,-61,-83)">c</text></g></g><g><g transform="matrix(1,0,0,1,0,47.5) matrix(0.5,0,0,0.5,311.5,45.5) matrix(0.633028,0,0,1,22.3853,0)"><rect width="218" height="95" x="61" y="83" style="fill:#fff;stroke:#000;stroke-width:2.39px"/></g><g><text x="84.505" y="119.635" style="font-family:'Arial-BoldMT','Arial',sans-serif;font-weight:700;font-size:36px" transform="matrix(1,0,0,1,0,47.5) matrix(0.5,0,0,0.5,311.5,45.5) matrix(2,0,0,2,-61,-83)">b</text></g></g><g><g transform="matrix(1,0,0,1,0,47.5) matrix(1,0,0,1,350,4) matrix(0.316514,0,0,0.5,41.6927,41.5)"><rect width="218" height="95" x="61" y="83" style="fill:#00ff05;stroke:#000;stroke-width:2.39px"/></g><text x="84.505" y="119.635" style="font-family:'Arial-BoldMT','Arial',sans-serif;font-weight:700;font-size:36px" transform="matrix(1,0,0,1,0,47.5) matrix(1,0,0,1,350,4)">g</text></g><g><g transform="matrix(1,0,0,1,0,47.5) matrix(1,0,0,1,419,4) matrix(0.316514,0,0,0.5,41.6927,41.5)"><rect width="218" height="95" x="61" y="83" style="fill:#00ff05;stroke:#000;stroke-width:2.39px"/></g><text x="84.505" y="119.635" style="font-family:'Arial-BoldMT','Arial',sans-serif;font-weight:700;font-size:36px" transform="matrix(1,0,0,1,0,47.5) matrix(1,0,0,1,419,4)">b</text></g><g><g transform="matrix(1,0,0,1,0,47.5) matrix(1,0,0,1,488,4) matrix(0.316514,0,0,0.5,41.6927,41.5)"><rect width="218" height="95" x="61" y="83" style="fill:#00ff05;stroke:#000;stroke-width:2.39px"/></g><text x="85.489" y="119.635" style="font-family:'Arial-BoldMT','Arial',sans-serif;font-weight:700;font-size:36px" transform="matrix(1,0,0,1,0,47.5) matrix(1,0,0,1,488,4)">e</text></g><g><g transform="matrix(1,0,0,1,0,47.5) matrix(1,0,0,1,557,4) matrix(0.316514,0,0,0.5,41.6927,41.5)"><rect width="218" height="95" x="61" y="83" style="fill:#00ff05;stroke:#000;stroke-width:2.39px"/></g><text x="84.505" y="119.635" style="font-family:'Arial-BoldMT','Arial',sans-serif;font-weight:700;font-size:36px" transform="matrix(1,0,0,1,0,47.5) matrix(1,0,0,1,557,4)">d</text></g></g><g id="Mode-4"><g><g transform="matrix(0.673913,0,0,0.5,727.891,93) matrix(0.633028,0,0,1,22.3853,0)"><rect width="218" height="95" x="61" y="83" style="fill:#ff9e00;stroke:#000;stroke-width:2.15px"/></g><g><text x="84.517" y="119.635" style="font-family:'Arial-BoldMT','Arial',sans-serif;font-weight:700;font-size:36px" transform="matrix(0.673913,0,0,0.5,727.891,93) matrix(1.48387,0,0,2,-29.5161,-83)">(d)</text></g></g><g><g transform="matrix(0.673913,0,0,0.5,820.891,93) matrix(0.633028,0,0,1,22.3853,0)"><rect width="218" height="95" x="61" y="83" style="fill:#fff;stroke:#000;stroke-width:2.15px"/></g><g><text x="97.489" y="119.635" style="font-family:'Arial-BoldMT','Arial',sans-serif;font-weight:700;font-size:36px" transform="matrix(0.673913,0,0,0.5,820.891,93) matrix(1.48387,0,0,2,-29.5161,-83)">2</text></g></g></g></g><g id="Data-Header"><g><g transform="matrix(0.998561,0,0,1,-37.4453,-39) matrix(0.702899,0,0,0.5,-4.87681,-2) matrix(0.633028,0,0,1,22.3853,0)"><rect width="218" height="95" x="61" y="83" style="fill:#b3b3b3;stroke:#000;stroke-width:2.11px"/></g><g><text x="81.989" y="116.056" style="font-family:'Arial-BoldMT','Arial',sans-serif;font-weight:700;font-size:26px" transform="matrix(0.998561,0,0,1,-37.4453,-39) matrix(0.702899,0,0,0.5,-4.87681,-2) matrix(1.42473,0,0,2,-25.9086,-83)">Row</text></g></g><g><g transform="matrix(0.998561,0,0,1,-37.4453,-39) matrix(4.00684,0,0,0.5,-109.417,-2) matrix(0.633028,0,0,1,22.3853,0)"><rect width="218" height="95" x="61" y="83" style="fill:#b3b3b3;stroke:#000;stroke-width:.55px"/></g><g><text x="308.897" y="116.056" style="font-family:'Arial-BoldMT','Arial',sans-serif;font-weight:700;font-size:26px" transform="matrix(0.998561,0,0,1,-37.4453,-39) matrix(4.00684,0,0,0.5,-109.417,-2) matrix(0.249933,0,0,2,45.7541,-83)">Data</text></g></g></g><g id="State-Header"><g><g transform="matrix(0.5,0,0,0.5,791,-41) matrix(1.34813,0,0,1,-201.236,0) matrix(0.633028,0,0,1,22.3853,0)"><rect width="218" height="95" x="61" y="83" style="fill:#b3b3b3;stroke:#000;stroke-width:2.15px"/></g><g><text x="73.569" y="116.056" style="font-family:'Arial-BoldMT','Arial',sans-serif;font-weight:700;font-size:26px" transform="matrix(0.5,0,0,0.5,791,-41) matrix(1.34813,0,0,1,-201.236,0) matrix(1.48354,0,0,2,-29.496,-83)">Mode</text></g></g><g><g transform="matrix(0.5,0,0,0.5,791,-41) matrix(1.34753,0,0,1,-15.1578,0) matrix(0.633028,0,0,1,22.3853,0)"><rect width="218" height="95" x="61" y="83" style="fill:#b3b3b3;stroke:#000;stroke-width:2.15px"/></g><g><text x="69.95" y="116.056" style="font-family:'Arial-BoldMT','Arial',sans-serif;font-weight:700;font-size:26px" transform="matrix(0.5,0,0,0.5,791,-41) matrix(1.34753,0,0,1,-15.1578,0) matrix(1.4842,0,0,2,-29.5362,-83)">Count</text></g></g></g></svg>