<svg xmlns="http://www.w3.org/2000/svg" xmlns:xlink="http://www.w3.org/1999/xlink" width="100%" height="100%" version="1.1" viewBox="0 0 1082 500" xml:space="preserve" style="fill-rule:evenodd;clip-rule:evenodd;stroke-linecap:round;stroke-linejoin:round;stroke-miterlimit:1.5"><g id="Data-0"><g><g transform="matrix(1.5,0,0,1.5,-56.488,-58.75) matrix(0.702899,0,0,0.5,-4.87681,45.5) matrix(0.633028,0,0,1,22.3853,0)"><rect width="218" height="95" x="61" y="83" style="fill:#d9d9d9;stroke:#000;stroke-width:1.41px"/></g><g><text x="102.27" y="116.056" style="font-family:'Arial-BoldMT','Arial',sans-serif;font-weight:700;font-size:26px" transform="matrix(1.5,0,0,1.5,-56.488,-58.75) matrix(0.702899,0,0,0.5,-4.87681,45.5) matrix(1.42268,0,0,2,-25.7835,-83)">0</text></g></g><g><g transform="matrix(1.5,0,0,1.5,-56.488,-58.75) matrix(0.5,0,0,0.5,104.5,45.5) matrix(0.633028,0,0,1,22.3853,0)"><rect width="218" height="95" x="61" y="83" style="fill:#00ff05;stroke:#000;stroke-width:1.59px"/></g><g><text x="88.27" y="116.056" style="font-family:'Arial-BoldMT','Arial',sans-serif;font-weight:700;font-size:26px" transform="matrix(1.5,0,0,1.5,-56.488,-58.75) matrix(0.5,0,0,0.5,104.5,45.5) matrix(2,0,0,2,-61,-83)">a</text></g></g><g><g transform="matrix(1.5,0,0,1.5,-56.488,-58.75) matrix(0.5,0,0,0.5,173.5,45.5) matrix(0.633028,0,0,1,22.3853,0)"><rect width="218" height="95" x="61" y="83" style="fill:#00ff05;stroke:#000;stroke-width:1.59px"/></g><g><text x="87.559" y="116.056" style="font-family:'Arial-BoldMT','Arial',sans-serif;font-weight:700;font-size:26px" transform="matrix(1.5,0,0,1.5,-56.488,-58.75) matrix(0.5,0,0,0.5,173.5,45.5) matrix(2,0,0,2,-61,-83)">b</text></g></g><g><g transform="matrix(1.5,0,0,1.5,-56.488,-58.75) matrix(0.5,0,0,0.5,242.5,45.5) matrix(0.633028,0,0,1,22.3853,0)"><rect width="218" height="95" x="61" y="83" style="fill:#fff;stroke:#000;stroke-width:1.59px"/></g><g><text x="88.27" y="116.056" style="font-family:'Arial-BoldMT','Arial',sans-serif;font-weight:700;font-size:26px" transform="matrix(1.5,0,0,1.5,-56.488,-58.75) matrix(0.5,0,0,0.5,242.5,45.5) matrix(2,0,0,2,-61,-83)">c</text></g></g><g><g transform="matrix(1.5,0,0,1.5,-56.488,-58.75) matrix(0.5,0,0,0.5,311.5,45.5) matrix(0.633028,0,0,1,22.3853,0)"><rect width="218" height="95" x="61" y="83" style="fill:#fff;stroke:#000;stroke-width:1.59px"/></g><g><text x="87.559" y="116.056" style="font-family:'Arial-BoldMT','Arial',sans-serif;font-weight:700;font-size:26px" transform="matrix(1.5,0,0,1.5,-56.488,-58.75) matrix(0.5,0,0,0.5,311.5,45.5) matrix(2,0,0,2,-61,-83)">d</text></g></g><g><g transform="matrix(1.5,0,0,1.5,-56.488,-58.75) matrix(1,0,0,1,350,4) matrix(0.316514,0,0,0.5,41.6927,41.5)"><rect width="218" height="95" x="61" y="83" style="fill:#fff;stroke:#000;stroke-width:1.59px"/></g><text x="88.27" y="116.056" style="font-family:'Arial-BoldMT','Arial',sans-serif;font-weight:700;font-size:26px" transform="matrix(1.5,0,0,1.5,-56.488,-58.75) matrix(1,0,0,1,350,4)">c</text></g><g><g transform="matrix(1.5,0,0,1.5,-56.488,-58.75) matrix(1,0,0,1,419,4) matrix(0.316514,0,0,0.5,41.6927,41.5)"><rect width="218" height="95" x="61" y="83" style="fill:#fff;stroke:#000;stroke-width:1.59px"/></g><text x="87.559" y="116.056" style="font-family:'Arial-BoldMT','Arial',sans-serif;font-weight:700;font-size:26px" transform="matrix(1.5,0,0,1.5,-56.488,-58.75) matrix(1,0,0,1,419,4)">b</text></g></g><g id="Data-1"><g><g transform="matrix(1.5,0,0,1.5,-56.488,12.5) matrix(0.702899,0,0,0.5,-4.87681,45.5) matrix(0.633028,0,0,1,22.3853,0)"><rect width="218" height="95" x="61" y="83" style="fill:#d9d9d9;stroke:#000;stroke-width:1.41px"/></g><g><text x="102.27" y="116.056" style="font-family:'Arial-BoldMT','Arial',sans-serif;font-weight:700;font-size:26px" transform="matrix(1.5,0,0,1.5,-56.488,12.5) matrix(0.702899,0,0,0.5,-4.87681,45.5) matrix(1.42268,0,0,2,-25.7835,-83)">1</text></g></g><g><g transform="matrix(1.5,0,0,1.5,-56.488,12.5) matrix(0.5,0,0,0.5,104.5,45.5) matrix(0.633028,0,0,1,22.3853,0)"><rect width="218" height="95" x="61" y="83" style="fill:#00ff05;stroke:#000;stroke-width:1.59px"/></g><g><text x="88.27" y="116.056" style="font-family:'Arial-BoldMT','Arial',sans-serif;font-weight:700;font-size:26px" transform="matrix(1.5,0,0,1.5,-56.488,12.5) matrix(0.5,0,0,0.5,104.5,45.5) matrix(2,0,0,2,-61,-83)">a</text></g></g><g><g transform="matrix(1.5,0,0,1.5,-56.488,12.5) matrix(0.5,0,0,0.5,173.5,45.5) matrix(0.633028,0,0,1,22.3853,0)"><rect width="218" height="95" x="61" y="83" style="fill:#00ff05;stroke:#000;stroke-width:1.59px"/></g><g><text x="87.559" y="116.056" style="font-family:'Arial-BoldMT','Arial',sans-serif;font-weight:700;font-size:26px" transform="matrix(1.5,0,0,1.5,-56.488,12.5) matrix(0.5,0,0,0.5,173.5,45.5) matrix(2,0,0,2,-61,-83)">b</text></g></g><g><g transform="matrix(1.5,0,0,1.5,-56.488,12.5) matrix(0.5,0,0,0.5,242.5,45.5) matrix(0.633028,0,0,1,22.3853,0)"><rect width="218" height="95" x="61" y="83" style="fill:#00ff04;stroke:#000;stroke-width:1.59px"/></g><g><text x="88.27" y="116.056" style="font-family:'Arial-BoldMT','Arial',sans-serif;font-weight:700;font-size:26px" transform="matrix(1.5,0,0,1.5,-56.488,12.5) matrix(0.5,0,0,0.5,242.5,45.5) matrix(2,0,0,2,-61,-83)">c</text></g></g><g><g transform="matrix(1.5,0,0,1.5,-56.488,12.5) matrix(0.5,0,0,0.5,311.5,45.5) matrix(0.633028,0,0,1,22.3853,0)"><rect width="218" height="95" x="61" y="83" style="fill:#fff;stroke:#000;stroke-width:1.59px"/></g><g><text x="87.559" y="116.056" style="font-family:'Arial-BoldMT','Arial',sans-serif;font-weight:700;font-size:26px" transform="matrix(1.5,0,0,1.5,-56.488,12.5) matrix(0.5,0,0,0.5,311.5,45.5) matrix(2,0,0,2,-61,-83)">d</text></g></g><g><g transform="matrix(1.5,0,0,1.5,-56.488,12.5) matrix(1,0,0,1,350,4) matrix(0.316514,0,0,0.5,41.6927,41.5)"><rect width="218" height="95" x="61" y="83" style="fill:#fff;stroke:#000;stroke-width:1.59px"/></g><text x="88.27" y="116.056" style="font-family:'Arial-BoldMT','Arial',sans-serif;font-weight:700;font-size:26px" transform="matrix(1.5,0,0,1.5,-56.488,12.5) matrix(1,0,0,1,350,4)">c</text></g><g><g transform="matrix(1.5,0,0,1.5,-56.488,12.5) matrix(1,0,0,1,419,4) matrix(0.316514,0,0,0.5,41.6927,41.5)"><rect width="218" height="95" x="61" y="83" style="fill:#fff;stroke:#000;stroke-width:1.59px"/></g><text x="87.559" y="116.056" style="font-family:'Arial-BoldMT','Arial',sans-serif;font-weight:700;font-size:26px" transform="matrix(1.5,0,0,1.5,-56.488,12.5) matrix(1,0,0,1,419,4)">b</text></g></g><g id="Data-2"><g><g transform="matrix(1.5,0,0,1.5,-56.488,83.75) matrix(0.702899,0,0,0.5,-4.87681,45.5) matrix(0.633028,0,0,1,22.3853,0)"><rect width="218" height="95" x="61" y="83" style="fill:#d9d9d9;stroke:#000;stroke-width:1.41px"/></g><g><text x="102.27" y="116.056" style="font-family:'Arial-BoldMT','Arial',sans-serif;font-weight:700;font-size:26px" transform="matrix(1.5,0,0,1.5,-56.488,83.75) matrix(0.702899,0,0,0.5,-4.87681,45.5) matrix(1.42268,0,0,2,-25.7835,-83)">2</text></g></g><g><g transform="matrix(1.5,0,0,1.5,-56.488,83.75) matrix(0.5,0,0,0.5,104.5,45.5) matrix(0.633028,0,0,1,22.3853,0)"><rect width="218" height="95" x="61" y="83" style="fill:#fff;stroke:#000;stroke-width:1.59px"/></g><g><text x="88.27" y="116.056" style="font-family:'Arial-BoldMT','Arial',sans-serif;font-weight:700;font-size:26px" transform="matrix(1.5,0,0,1.5,-56.488,83.75) matrix(0.5,0,0,0.5,104.5,45.5) matrix(2,0,0,2,-61,-83)">a</text></g></g><g><g transform="matrix(1.5,0,0,1.5,-56.488,83.75) matrix(0.5,0,0,0.5,173.5,45.5) matrix(0.633028,0,0,1,22.3853,0)"><rect width="218" height="95" x="61" y="83" style="fill:#00ff05;stroke:#000;stroke-width:1.59px"/></g><g><text x="87.559" y="116.056" style="font-family:'Arial-BoldMT','Arial',sans-serif;font-weight:700;font-size:26px" transform="matrix(1.5,0,0,1.5,-56.488,83.75) matrix(0.5,0,0,0.5,173.5,45.5) matrix(2,0,0,2,-61,-83)">b</text></g></g><g><g transform="matrix(1.5,0,0,1.5,-56.488,83.75) matrix(0.5,0,0,0.5,242.5,45.5) matrix(0.633028,0,0,1,22.3853,0)"><rect width="218" height="95" x="61" y="83" style="fill:#00ff04;stroke:#000;stroke-width:1.59px"/></g><g><text x="88.27" y="116.056" style="font-family:'Arial-BoldMT','Arial',sans-serif;font-weight:700;font-size:26px" transform="matrix(1.5,0,0,1.5,-56.488,83.75) matrix(0.5,0,0,0.5,242.5,45.5) matrix(2,0,0,2,-61,-83)">c</text></g></g><g><g transform="matrix(1.5,0,0,1.5,-56.488,83.75) matrix(0.5,0,0,0.5,311.5,45.5) matrix(0.633028,0,0,1,22.3853,0)"><rect width="218" height="95" x="61" y="83" style="fill:#00ff04;stroke:#000;stroke-width:1.59px"/></g><g><text x="87.559" y="116.056" style="font-family:'Arial-BoldMT','Arial',sans-serif;font-weight:700;font-size:26px" transform="matrix(1.5,0,0,1.5,-56.488,83.75) matrix(0.5,0,0,0.5,311.5,45.5) matrix(2,0,0,2,-61,-83)">d</text></g></g><g><g transform="matrix(1.5,0,0,1.5,-56.488,83.75) matrix(1,0,0,1,350,4) matrix(0.316514,0,0,0.5,41.6927,41.5)"><rect width="218" height="95" x="61" y="83" style="fill:#fff;stroke:#000;stroke-width:1.59px"/></g><text x="88.27" y="116.056" style="font-family:'Arial-BoldMT','Arial',sans-serif;font-weight:700;font-size:26px" transform="matrix(1.5,0,0,1.5,-56.488,83.75) matrix(1,0,0,1,350,4)">c</text></g><g><g transform="matrix(1.5,0,0,1.5,-56.488,83.75) matrix(1,0,0,1,419,4) matrix(0.316514,0,0,0.5,41.6927,41.5)"><rect width="218" height="95" x="61" y="83" style="fill:#fff;stroke:#000;stroke-width:1.59px"/></g><text x="87.559" y="116.056" style="font-family:'Arial-BoldMT','Arial',sans-serif;font-weight:700;font-size:26px" transform="matrix(1.5,0,0,1.5,-56.488,83.75) matrix(1,0,0,1,419,4)">b</text></g></g><g id="Median-0"><g transform="matrix(1.54933,0,0,0.75,772.6,9.5) matrix(0.633028,0,0,1,22.3853,0)"><rect width="218" height="95" x="61" y="83" style="fill:#fff;stroke:#000;stroke-width:1.15px"/></g><g><text x="125.039" y="116.056" style="font-family:'Arial-BoldMT','Arial',sans-serif;font-weight:700;font-size:26px" transform="matrix(1.54933,0,0,0.75,772.6,9.5) matrix(0.968163,0,0,2,1.94207,-83)">a</text></g></g><g id="Median-1"><g transform="matrix(1.54933,0,0,0.75,772.6,80.75) matrix(0.633028,0,0,1,22.3853,0)"><rect width="218" height="95" x="61" y="83" style="fill:#fff;stroke:#000;stroke-width:1.15px"/></g><g><text x="124.328" y="116.056" style="font-family:'Arial-BoldMT','Arial',sans-serif;font-weight:700;font-size:26px" transform="matrix(1.54933,0,0,0.75,772.6,80.75) matrix(0.968163,0,0,2,1.94207,-83)">b</text></g></g><g id="Median-2"><g transform="matrix(1.54933,0,0,0.75,772.6,152) matrix(0.633028,0,0,1,22.3853,0)"><rect width="218" height="95" x="61" y="83" style="fill:#fff;stroke:#000;stroke-width:1.15px"/></g><g><text x="125.039" y="116.056" style="font-family:'Arial-BoldMT','Arial',sans-serif;font-weight:700;font-size:26px" transform="matrix(1.54933,0,0,0.75,772.6,152) matrix(0.968163,0,0,2,1.94207,-83)">c</text></g></g><g id="Data-3"><g><g transform="matrix(1.5,0,0,1.5,-56.488,155) matrix(0.702899,0,0,0.5,-4.87681,45.5) matrix(0.633028,0,0,1,22.3853,0)"><rect width="218" height="95" x="61" y="83" style="fill:#d9d9d9;stroke:#000;stroke-width:1.41px"/></g><g><text x="102.27" y="116.056" style="font-family:'Arial-BoldMT','Arial',sans-serif;font-weight:700;font-size:26px" transform="matrix(1.5,0,0,1.5,-56.488,155) matrix(0.702899,0,0,0.5,-4.87681,45.5) matrix(1.42268,0,0,2,-25.7835,-83)">3</text></g></g><g><g transform="matrix(1.5,0,0,1.5,-56.488,155) matrix(0.5,0,0,0.5,104.5,45.5) matrix(0.633028,0,0,1,22.3853,0)"><rect width="218" height="95" x="61" y="83" style="fill:#fff;stroke:#000;stroke-width:1.59px"/></g><g><text x="88.27" y="116.056" style="font-family:'Arial-BoldMT','Arial',sans-serif;font-weight:700;font-size:26px" transform="matrix(1.5,0,0,1.5,-56.488,155) matrix(0.5,0,0,0.5,104.5,45.5) matrix(2,0,0,2,-61,-83)">a</text></g></g><g><g transform="matrix(1.5,0,0,1.5,-56.488,155) matrix(0.5,0,0,0.5,173.5,45.5) matrix(0.633028,0,0,1,22.3853,0)"><rect width="218" height="95" x="61" y="83" style="fill:#fff;stroke:#000;stroke-width:1.59px"/></g><g><text x="87.559" y="116.056" style="font-family:'Arial-BoldMT','Arial',sans-serif;font-weight:700;font-size:26px" transform="matrix(1.5,0,0,1.5,-56.488,155) matrix(0.5,0,0,0.5,173.5,45.5) matrix(2,0,0,2,-61,-83)">b</text></g></g><g><g transform="matrix(1.5,0,0,1.5,-56.488,155) matrix(0.5,0,0,0.5,242.5,45.5) matrix(0.633028,0,0,1,22.3853,0)"><rect width="218" height="95" x="61" y="83" style="fill:#00ff04;stroke:#000;stroke-width:1.59px"/></g><g><text x="88.27" y="116.056" style="font-family:'Arial-BoldMT','Arial',sans-serif;font-weight:700;font-size:26px" transform="matrix(1.5,0,0,1.5,-56.488,155) matrix(0.5,0,0,0.5,242.5,45.5) matrix(2,0,0,2,-61,-83)">c</text></g></g><g><g transform="matrix(1.5,0,0,1.5,-56.488,155) matrix(0.5,0,0,0.5,311.5,45.5) matrix(0.633028,0,0,1,22.3853,0)"><rect width="218" height="95" x="61" y="83" style="fill:#00ff04;stroke:#000;stroke-width:1.59px"/></g><g><text x="87.559" y="116.056" style="font-family:'Arial-BoldMT','Arial',sans-serif;font-weight:700;font-size:26px" transform="matrix(1.5,0,0,1.5,-56.488,155) matrix(0.5,0,0,0.5,311.5,45.5) matrix(2,0,0,2,-61,-83)">d</text></g></g><g><g transform="matrix(1.5,0,0,1.5,-56.488,155) matrix(1,0,0,1,350,4) matrix(0.316514,0,0,0.5,41.6927,41.5)"><rect width="218" height="95" x="61" y="83" style="fill:#00ff04;stroke:#000;stroke-width:1.59px"/></g><text x="88.27" y="116.056" style="font-family:'Arial-BoldMT','Arial',sans-serif;font-weight:700;font-size:26px" transform="matrix(1.5,0,0,1.5,-56.488,155) matrix(1,0,0,1,350,4)">c</text></g><g><g transform="matrix(1.5,0,0,1.5,-56.488,155) matrix(1,0,0,1,419,4) matrix(0.316514,0,0,0.5,41.6927,41.5)"><rect width="218" height="95" x="61" y="83" style="fill:#fff;stroke:#000;stroke-width:1.59px"/></g><text x="87.559" y="116.056" style="font-family:'Arial-BoldMT','Arial',sans-serif;font-weight:700;font-size:26px" transform="matrix(1.5,0,0,1.5,-56.488,155) matrix(1,0,0,1,419,4)">b</text></g></g><g id="Median-3"><g transform="matrix(1.54933,0,0,0.75,772.6,223.25) matrix(0.633028,0,0,1,22.3853,0)"><rect width="218" height="95" x="61" y="83" style="fill:#fff;stroke:#000;stroke-width:1.15px"/></g><g><text x="125.039" y="116.056" style="font-family:'Arial-BoldMT','Arial',sans-serif;font-weight:700;font-size:26px" transform="matrix(1.54933,0,0,0.75,772.6,223.25) matrix(0.968163,0,0,2,1.94207,-83)">c</text></g></g><g id="Data-4"><g><g transform="matrix(1.5,0,0,1.5,-56.488,226.25) matrix(0.702899,0,0,0.5,-4.87681,45.5) matrix(0.633028,0,0,1,22.3853,0)"><rect width="218" height="95" x="61" y="83" style="fill:#d9d9d9;stroke:#000;stroke-width:1.41px"/></g><g><text x="102.27" y="116.056" style="font-family:'Arial-BoldMT','Arial',sans-serif;font-weight:700;font-size:26px" transform="matrix(1.5,0,0,1.5,-56.488,226.25) matrix(0.702899,0,0,0.5,-4.87681,45.5) matrix(1.42268,0,0,2,-25.7835,-83)">4</text></g></g><g><g transform="matrix(1.5,0,0,1.5,-56.488,226.25) matrix(0.5,0,0,0.5,104.5,45.5) matrix(0.633028,0,0,1,22.3853,0)"><rect width="218" height="95" x="61" y="83" style="fill:#fff;stroke:#000;stroke-width:1.59px"/></g><g><text x="88.27" y="116.056" style="font-family:'Arial-BoldMT','Arial',sans-serif;font-weight:700;font-size:26px" transform="matrix(1.5,0,0,1.5,-56.488,226.25) matrix(0.5,0,0,0.5,104.5,45.5) matrix(2,0,0,2,-61,-83)">a</text></g></g><g><g transform="matrix(1.5,0,0,1.5,-56.488,226.25) matrix(0.5,0,0,0.5,173.5,45.5) matrix(0.633028,0,0,1,22.3853,0)"><rect width="218" height="95" x="61" y="83" style="fill:#fff;stroke:#000;stroke-width:1.59px"/></g><g><text x="87.559" y="116.056" style="font-family:'Arial-BoldMT','Arial',sans-serif;font-weight:700;font-size:26px" transform="matrix(1.5,0,0,1.5,-56.488,226.25) matrix(0.5,0,0,0.5,173.5,45.5) matrix(2,0,0,2,-61,-83)">b</text></g></g><g><g transform="matrix(1.5,0,0,1.5,-56.488,226.25) matrix(0.5,0,0,0.5,242.5,45.5) matrix(0.633028,0,0,1,22.3853,0)"><rect width="218" height="95" x="61" y="83" style="fill:#fff;stroke:#000;stroke-width:1.59px"/></g><g><text x="88.27" y="116.056" style="font-family:'Arial-BoldMT','Arial',sans-serif;font-weight:700;font-size:26px" transform="matrix(1.5,0,0,1.5,-56.488,226.25) matrix(0.5,0,0,0.5,242.5,45.5) matrix(2,0,0,2,-61,-83)">c</text></g></g><g><g transform="matrix(1.5,0,0,1.5,-56.488,226.25) matrix(0.5,0,0,0.5,311.5,45.5) matrix(0.633028,0,0,1,22.3853,0)"><rect width="218" height="95" x="61" y="83" style="fill:#00ff04;stroke:#000;stroke-width:1.59px"/></g><g><text x="87.559" y="116.056" style="font-family:'Arial-BoldMT','Arial',sans-serif;font-weight:700;font-size:26px" transform="matrix(1.5,0,0,1.5,-56.488,226.25) matrix(0.5,0,0,0.5,311.5,45.5) matrix(2,0,0,2,-61,-83)">d</text></g></g><g><g transform="matrix(1.5,0,0,1.5,-56.488,226.25) matrix(1,0,0,1,350,4) matrix(0.316514,0,0,0.5,41.6927,41.5)"><rect width="218" height="95" x="61" y="83" style="fill:#00ff04;stroke:#000;stroke-width:1.59px"/></g><text x="88.27" y="116.056" style="font-family:'Arial-BoldMT','Arial',sans-serif;font-weight:700;font-size:26px" transform="matrix(1.5,0,0,1.5,-56.488,226.25) matrix(1,0,0,1,350,4)">c</text></g><g><g transform="matrix(1.5,0,0,1.5,-56.488,226.25) matrix(1,0,0,1,419,4) matrix(0.316514,0,0,0.5,41.6927,41.5)"><rect width="218" height="95" x="61" y="83" style="fill:#00ff04;stroke:#000;stroke-width:1.59px"/></g><text x="87.559" y="116.056" style="font-family:'Arial-BoldMT','Arial',sans-serif;font-weight:700;font-size:26px" transform="matrix(1.5,0,0,1.5,-56.488,226.25) matrix(1,0,0,1,419,4)">b</text></g></g><g id="Median-4"><g transform="matrix(1.54933,0,0,0.75,772.6,294.5) matrix(0.633028,0,0,1,22.3853,0)"><rect width="218" height="95" x="61" y="83" style="fill:#fff;stroke:#000;stroke-width:1.15px"/></g><g><text x="125.039" y="116.056" style="font-family:'Arial-BoldMT','Arial',sans-serif;font-weight:700;font-size:26px" transform="matrix(1.54933,0,0,0.75,772.6,294.5) matrix(0.968163,0,0,2,1.94207,-83)">c</text></g></g><g id="Data-5"><g><g transform="matrix(1.5,0,0,1.5,-56.488,297.5) matrix(0.702899,0,0,0.5,-4.87681,45.5) matrix(0.633028,0,0,1,22.3853,0)"><rect width="218" height="95" x="61" y="83" style="fill:#d9d9d9;stroke:#000;stroke-width:1.41px"/></g><g><text x="102.27" y="116.056" style="font-family:'Arial-BoldMT','Arial',sans-serif;font-weight:700;font-size:26px" transform="matrix(1.5,0,0,1.5,-56.488,297.5) matrix(0.702899,0,0,0.5,-4.87681,45.5) matrix(1.42268,0,0,2,-25.7835,-83)">5</text></g></g><g><g transform="matrix(1.5,0,0,1.5,-56.488,297.5) matrix(0.5,0,0,0.5,104.5,45.5) matrix(0.633028,0,0,1,22.3853,0)"><rect width="218" height="95" x="61" y="83" style="fill:#fff;stroke:#000;stroke-width:1.59px"/></g><g><text x="88.27" y="116.056" style="font-family:'Arial-BoldMT','Arial',sans-serif;font-weight:700;font-size:26px" transform="matrix(1.5,0,0,1.5,-56.488,297.5) matrix(0.5,0,0,0.5,104.5,45.5) matrix(2,0,0,2,-61,-83)">a</text></g></g><g><g transform="matrix(1.5,0,0,1.5,-56.488,297.5) matrix(0.5,0,0,0.5,173.5,45.5) matrix(0.633028,0,0,1,22.3853,0)"><rect width="218" height="95" x="61" y="83" style="fill:#fff;stroke:#000;stroke-width:1.59px"/></g><g><text x="87.559" y="116.056" style="font-family:'Arial-BoldMT','Arial',sans-serif;font-weight:700;font-size:26px" transform="matrix(1.5,0,0,1.5,-56.488,297.5) matrix(0.5,0,0,0.5,173.5,45.5) matrix(2,0,0,2,-61,-83)">b</text></g></g><g><g transform="matrix(1.5,0,0,1.5,-56.488,297.5) matrix(0.5,0,0,0.5,242.5,45.5) matrix(0.633028,0,0,1,22.3853,0)"><rect width="218" height="95" x="61" y="83" style="fill:#fff;stroke:#000;stroke-width:1.59px"/></g><g><text x="88.27" y="116.056" style="font-family:'Arial-BoldMT','Arial',sans-serif;font-weight:700;font-size:26px" transform="matrix(1.5,0,0,1.5,-56.488,297.5) matrix(0.5,0,0,0.5,242.5,45.5) matrix(2,0,0,2,-61,-83)">c</text></g></g><g><g transform="matrix(1.5,0,0,1.5,-56.488,297.5) matrix(0.5,0,0,0.5,311.5,45.5) matrix(0.633028,0,0,1,22.3853,0)"><rect width="218" height="95" x="61" y="83" style="fill:#fff;stroke:#000;stroke-width:1.59px"/></g><g><text x="87.559" y="116.056" style="font-family:'Arial-BoldMT','Arial',sans-serif;font-weight:700;font-size:26px" transform="matrix(1.5,0,0,1.5,-56.488,297.5) matrix(0.5,0,0,0.5,311.5,45.5) matrix(2,0,0,2,-61,-83)">d</text></g></g><g><g transform="matrix(1.5,0,0,1.5,-56.488,297.5) matrix(1,0,0,1,350,4) matrix(0.316514,0,0,0.5,41.6927,41.5)"><rect width="218" height="95" x="61" y="83" style="fill:#00ff04;stroke:#000;stroke-width:1.59px"/></g><text x="88.27" y="116.056" style="font-family:'Arial-BoldMT','Arial',sans-serif;font-weight:700;font-size:26px" transform="matrix(1.5,0,0,1.5,-56.488,297.5) matrix(1,0,0,1,350,4)">c</text></g><g><g transform="matrix(1.5,0,0,1.5,-56.488,297.5) matrix(1,0,0,1,419,4) matrix(0.316514,0,0,0.5,41.6927,41.5)"><rect width="218" height="95" x="61" y="83" style="fill:#00ff04;stroke:#000;stroke-width:1.59px"/></g><text x="87.559" y="116.056" style="font-family:'Arial-BoldMT','Arial',sans-serif;font-weight:700;font-size:26px" transform="matrix(1.5,0,0,1.5,-56.488,297.5) matrix(1,0,0,1,419,4)">b</text></g></g><g id="Median-5"><g transform="matrix(1.54933,0,0,0.75,772.6,365.75) matrix(0.633028,0,0,1,22.3853,0)"><rect width="218" height="95" x="61" y="83" style="fill:#fff;stroke:#000;stroke-width:1.15px"/></g><g><text x="124.328" y="116.056" style="font-family:'Arial-BoldMT','Arial',sans-serif;font-weight:700;font-size:26px" transform="matrix(1.54933,0,0,0.75,772.6,365.75) matrix(0.968163,0,0,2,1.94207,-83)">b</text></g></g><g id="Data-Header"><g><g transform="matrix(1.49784,0,0,1.5,-56.418,-58.75) matrix(0.702899,0,0,0.5,-4.87681,-2) matrix(0.633028,0,0,1,22.3853,0)"><rect width="218" height="95" x="61" y="83" style="fill:#b3b3b3;stroke:#000;stroke-width:1.41px"/></g><g><text x="81.989" y="116.056" style="font-family:'Arial-BoldMT','Arial',sans-serif;font-weight:700;font-size:26px" transform="matrix(1.49784,0,0,1.5,-56.418,-58.75) matrix(0.702899,0,0,0.5,-4.87681,-2) matrix(1.42473,0,0,2,-25.9086,-83)">Row</text></g></g><g><g transform="matrix(1.49784,0,0,1.5,-56.418,-58.75) matrix(3.0054,0,0,0.5,-48.3291,-2) matrix(0.633028,0,0,1,22.3853,0)"><rect width="218" height="95" x="61" y="83" style="fill:#b3b3b3;stroke:#000;stroke-width:.48px"/></g><g><text x="239.897" y="116.056" style="font-family:'Arial-BoldMT','Arial',sans-serif;font-weight:700;font-size:26px" transform="matrix(1.49784,0,0,1.5,-56.418,-58.75) matrix(3.0054,0,0,0.5,-48.3291,-2) matrix(0.333215,0,0,2,40.6739,-83)">Data</text></g></g></g><g id="State-Header"><g transform="matrix(1.54933,0,0,0.75,772.6,-61.75) matrix(0.633028,0,0,1,22.3853,0)"><rect width="218" height="95" x="61" y="83" style="fill:#b3b3b3;stroke:#000;stroke-width:1.15px"/></g><g><text x="87.486" y="116.056" style="font-family:'Arial-BoldMT','Arial',sans-serif;font-weight:700;font-size:26px" transform="matrix(1.54933,0,0,0.75,772.6,-61.75) matrix(0.968163,0,0,2,1.94207,-83)">Median</text></g></g></svg>