<svg width="1200" height="630" viewBox="0 0 1200 630" fill="none" xmlns="http://www.w3.org/2000/svg">
<g clip-path="url(#clip0_18266_11622)">
<rect width="1200" height="630" fill="url(#paint0_linear_18266_11622)"/>
<g clip-path="url(#clip1_18266_11622)">
<rect width="1200" height="630" fill="url(#paint1_linear_18266_11622)"/>
<path d="M881 -27.461L881 123.501C881 151.115 903.386 173.501 931 173.501L1208 173.501" stroke="#CCCCCC" stroke-width="3.2"/>
<path d="M188.07 149.86C185.4 149.263 183.328 148.012 181.854 146.108C180.398 144.204 179.67 141.815 179.67 138.94V133.9C179.67 131.025 180.398 128.636 181.854 126.732C183.328 124.828 185.4 123.577 188.07 122.98V125.416C186.875 125.696 185.83 126.228 184.934 127.012C184.056 127.796 183.375 128.776 182.89 129.952C182.423 131.109 182.19 132.425 182.19 133.9V138.94C182.19 140.396 182.423 141.712 182.89 142.888C183.375 144.064 184.056 145.044 184.934 145.828C185.83 146.612 186.875 147.144 188.07 147.424V149.86ZM194.499 149.86V147.424C195.712 147.144 196.757 146.612 197.635 145.828C198.512 145.044 199.184 144.064 199.651 142.888C200.136 141.712 200.379 140.396 200.379 138.94V133.9C200.379 132.425 200.136 131.109 199.651 129.952C199.184 128.776 198.512 127.796 197.635 127.012C196.757 126.228 195.712 125.696 194.499 125.416V122.98C197.168 123.577 199.231 124.828 200.687 126.732C202.161 128.636 202.899 131.025 202.899 133.9V138.94C202.899 141.815 202.161 144.204 200.687 146.108C199.231 148.012 197.168 149.263 194.499 149.86ZM216.188 135.02C215.572 135.02 215.068 134.824 214.676 134.432C214.284 134.04 214.088 133.536 214.088 132.92C214.088 132.323 214.284 131.828 214.676 131.436C215.087 131.025 215.591 130.82 216.188 130.82H216.748C217.345 130.82 217.84 131.025 218.232 131.436C218.643 131.828 218.848 132.323 218.848 132.92C218.848 133.536 218.652 134.04 218.26 134.432C217.868 134.824 217.364 135.02 216.748 135.02H216.188ZM213.808 150.98L215.348 142.412H218.372L216.412 150.98H213.808Z" fill="#CCCCCC"/>
<path d="M1115.4 127.28C1114.71 127.28 1114.15 127.075 1113.72 126.664C1113.31 126.253 1113.1 125.721 1113.1 125.068C1113.1 124.377 1113.31 123.817 1113.72 123.388C1114.15 122.959 1114.71 122.744 1115.4 122.744C1116.09 122.744 1116.64 122.959 1117.05 123.388C1117.48 123.817 1117.7 124.377 1117.7 125.068C1117.7 125.721 1117.48 126.253 1117.05 126.664C1116.64 127.075 1116.09 127.28 1115.4 127.28ZM1128.75 124.116L1126.81 122.744L1128.63 120.14C1128.88 119.804 1129.2 119.393 1129.61 118.908C1130.04 118.423 1130.44 117.993 1130.82 117.62C1130.29 117.545 1129.74 117.433 1129.17 117.284C1128.59 117.135 1128.13 116.995 1127.79 116.864L1124.8 115.744L1125.58 113.532L1128.61 114.652C1128.92 114.764 1129.34 114.941 1129.87 115.184C1130.39 115.427 1130.86 115.679 1131.29 115.94C1131.2 115.455 1131.13 114.96 1131.07 114.456C1131.03 113.933 1131.01 113.495 1131.01 113.14V109.64H1133.37V113.14C1133.37 113.495 1133.34 113.933 1133.28 114.456C1133.23 114.96 1133.15 115.455 1133.06 115.94C1133.51 115.679 1133.98 115.427 1134.49 115.184C1135.01 114.941 1135.44 114.764 1135.77 114.652L1138.8 113.532L1139.58 115.744L1136.59 116.864C1136.25 116.995 1135.79 117.135 1135.21 117.284C1134.63 117.433 1134.08 117.545 1133.56 117.62C1133.93 117.993 1134.34 118.432 1134.77 118.936C1135.19 119.421 1135.52 119.823 1135.75 120.14L1137.57 122.744L1135.63 124.116L1133.81 121.484C1133.59 121.167 1133.32 120.728 1133 120.168C1132.68 119.608 1132.41 119.085 1132.19 118.6C1131.97 119.085 1131.69 119.608 1131.38 120.168C1131.06 120.709 1130.79 121.148 1130.57 121.484L1128.75 124.116Z" fill="#CCCCCC"/>
<path d="M658.399 665.5C658.399 666.384 659.116 667.1 659.999 667.1C660.883 667.1 661.599 666.384 661.599 665.5L659.999 665.5L658.399 665.5ZM660 488.778L650.762 504.778L669.237 504.778L660 488.778ZM659.999 665.5L661.599 665.5L661.6 503.178L660 503.178L658.4 503.178L658.399 665.5L659.999 665.5Z" fill="#CCCCCC"/>
<path d="M147.676 637.531L147.676 364.754C147.676 337.14 125.29 314.754 97.676 314.754L-69.5709 314.754" stroke="#CCCCCC" stroke-width="3.2" stroke-linecap="round" stroke-linejoin="round"/>
<rect x="136.839" y="464.531" width="21.6746" height="43.3492" rx="10.8373" fill="#CCCCCC" stroke="#CCCCCC" stroke-width="3.2"/>
</g>
<path d="M440.764 278.675C442.656 280.487 443.888 282.889 444.174 285.504C444.174 286.594 443.879 287.317 443.228 288.7C442.576 290.084 434.514 304.029 432.113 307.877C430.729 310.127 430.006 312.814 430.006 315.43C430.006 318.045 430.729 320.732 432.113 322.982C434.514 326.83 442.576 340.855 443.228 342.23C443.879 343.614 444.174 344.265 444.174 345.355C443.879 347.97 442.719 350.363 440.835 352.113C439.023 354.005 436.621 355.237 434.077 355.452C432.988 355.452 432.265 355.157 430.952 354.505C429.649 353.854 415.409 346.006 411.553 343.605C411.258 343.462 410.972 343.239 410.606 343.096L391.573 331.838C392.01 335.472 393.608 338.954 396.224 341.498C396.733 342.007 397.242 342.444 397.822 342.882C397.385 343.096 396.876 343.319 396.438 343.605C392.591 346.006 378.566 354.068 377.191 354.72C375.807 355.371 375.155 355.666 373.995 355.666C371.379 355.371 368.986 354.211 367.236 352.327C365.344 350.515 364.112 348.113 363.826 345.497C363.898 344.408 364.192 343.319 364.772 342.373C365.424 340.989 373.486 326.973 375.887 323.125C377.271 320.875 377.994 318.26 377.994 315.572C377.994 312.885 377.271 310.269 375.887 308.02C373.486 304.029 365.353 290.013 364.772 288.629C364.192 287.683 363.898 286.594 363.826 285.504C364.121 282.889 365.281 280.496 367.165 278.675C368.986 276.791 371.379 275.631 373.995 275.336C375.084 275.407 376.173 275.702 377.191 276.282C378.351 276.791 388.6 282.746 394.046 285.942L395.278 286.665C395.715 286.96 396.081 287.174 396.367 287.317L396.947 287.683L416.347 299.164C415.909 294.807 413.66 290.807 410.169 288.12C410.606 287.906 411.115 287.683 411.553 287.397C415.401 284.996 429.426 276.863 430.801 276.282C431.747 275.702 432.836 275.407 433.997 275.336C436.541 275.631 438.934 276.791 440.755 278.675H440.764ZM405.018 320.67L409.16 316.528C409.74 315.947 409.74 315.072 409.16 314.492L405.018 310.35C404.438 309.769 403.563 309.769 402.982 310.35L398.84 314.492C398.26 315.072 398.26 315.947 398.84 316.528L402.982 320.67C403.491 321.179 404.438 321.179 405.018 320.67Z" fill="black"/>
<path d="M509.757 338.1C506.477 338.1 503.857 336.98 501.897 334.74C499.937 332.5 498.957 329.48 498.957 325.68V316.38C498.957 312.54 499.937 309.5 501.897 307.26C503.857 305.02 506.477 303.9 509.757 303.9C512.117 303.9 514.097 304.5 515.697 305.7C517.337 306.9 518.397 308.58 518.877 310.74L518.697 303.12V293.7H525.177V337.5H518.757V331.26C518.317 333.42 517.297 335.1 515.697 336.3C514.137 337.5 512.157 338.1 509.757 338.1ZM512.037 332.46C514.117 332.46 515.737 331.84 516.897 330.6C518.097 329.32 518.697 327.52 518.697 325.2V316.74C518.697 314.46 518.097 312.7 516.897 311.46C515.737 310.18 514.117 309.54 512.037 309.54C509.957 309.54 508.337 310.1 507.177 311.22C506.017 312.3 505.437 314.04 505.437 316.44V325.5C505.437 327.94 506.017 329.72 507.177 330.84C508.337 331.92 509.957 332.46 512.037 332.46ZM548.854 338.1C546.454 338.1 544.454 337.5 542.854 336.3C541.294 335.1 540.294 333.42 539.854 331.26V337.5H533.434V293.7H539.914V303.12L539.734 310.74C540.214 308.62 541.254 306.96 542.854 305.76C544.494 304.52 546.494 303.9 548.854 303.9C552.134 303.9 554.754 305.02 556.714 307.26C558.674 309.5 559.654 312.54 559.654 316.38V325.68C559.654 329.48 558.674 332.5 556.714 334.74C554.754 336.98 552.134 338.1 548.854 338.1ZM546.574 332.46C548.654 332.46 550.274 331.92 551.434 330.84C552.594 329.72 553.174 327.94 553.174 325.5V316.44C553.174 314.04 552.594 312.3 551.434 311.22C550.274 310.1 548.654 309.54 546.574 309.54C544.494 309.54 542.854 310.18 541.654 311.46C540.494 312.7 539.914 314.46 539.914 316.74V325.2C539.914 327.52 540.494 329.32 541.654 330.6C542.854 331.84 544.494 332.46 546.574 332.46ZM583.87 337.5C580.95 337.5 578.63 336.66 576.91 334.98C575.19 333.3 574.33 331.02 574.33 328.14V310.38H565.03V304.5H574.33V295.2H580.81V304.5H594.13V310.38H580.81V328.08C580.81 329.12 581.11 329.98 581.71 330.66C582.31 331.3 583.13 331.62 584.17 331.62H593.83V337.5H583.87ZM649.103 338.1C644.783 338.1 641.323 336.96 638.723 334.68C636.123 332.4 634.823 329.28 634.823 325.32H641.183C641.183 327.52 641.903 329.26 643.343 330.54C644.783 331.78 646.703 332.4 649.103 332.4C651.463 332.4 653.323 331.76 654.683 330.48C656.043 329.2 656.723 327.5 656.723 325.38C656.723 323.78 656.283 322.38 655.403 321.18C654.523 319.98 653.263 319.16 651.623 318.72L645.323 317.04C642.363 316.24 640.023 314.78 638.303 312.66C636.623 310.54 635.783 308 635.783 305.04C635.783 302.64 636.303 300.56 637.343 298.8C638.423 297 639.943 295.6 641.903 294.6C643.863 293.6 646.143 293.1 648.743 293.1C651.343 293.1 653.623 293.6 655.583 294.6C657.583 295.6 659.123 297 660.203 298.8C661.323 300.56 661.883 302.62 661.883 304.98H655.523C655.523 303.1 654.883 301.6 653.603 300.48C652.363 299.32 650.743 298.74 648.743 298.74C646.743 298.74 645.123 299.32 643.883 300.48C642.683 301.6 642.083 303.08 642.083 304.92C642.083 306.4 642.483 307.64 643.283 308.64C644.123 309.64 645.283 310.34 646.763 310.74L653.243 312.48C656.283 313.28 658.683 314.84 660.443 317.16C662.203 319.48 663.083 322.22 663.083 325.38C663.083 327.98 662.503 330.24 661.343 332.16C660.183 334.04 658.563 335.5 656.483 336.54C654.403 337.58 651.943 338.1 649.103 338.1ZM683.04 338.1C679.04 338.1 675.86 336.96 673.5 334.68C671.18 332.36 670.02 329.22 670.02 325.26V304.5H676.5V325.2C676.5 327.44 677.08 329.22 678.24 330.54C679.4 331.82 681 332.46 683.04 332.46C685.12 332.46 686.74 331.82 687.9 330.54C689.1 329.22 689.7 327.44 689.7 325.2V304.5H696.18V325.26C696.18 329.22 694.98 332.36 692.58 334.68C690.22 336.96 687.04 338.1 683.04 338.1ZM702.457 337.5V304.5H707.977V309.12H708.097C708.257 307.56 708.837 306.3 709.837 305.34C710.837 304.38 712.097 303.9 713.617 303.9C715.057 303.9 716.277 304.36 717.277 305.28C718.317 306.16 719.037 307.36 719.437 308.88C719.677 307.36 720.297 306.16 721.297 305.28C722.297 304.36 723.577 303.9 725.137 303.9C727.177 303.9 728.837 304.7 730.117 306.3C731.437 307.86 732.097 309.88 732.097 312.36V337.5H726.217V312.66C726.217 311.46 725.937 310.52 725.377 309.84C724.817 309.12 724.037 308.76 723.037 308.76C722.037 308.76 721.257 309.1 720.697 309.78C720.177 310.46 719.917 311.4 719.917 312.6V337.5H714.637V312.66C714.637 311.46 714.357 310.52 713.797 309.84C713.277 309.12 712.517 308.76 711.517 308.76C710.517 308.76 709.737 309.1 709.177 309.78C708.617 310.46 708.337 311.4 708.337 312.6V337.5H702.457ZM736.633 337.5V304.5H742.153V309.12H742.273C742.433 307.56 743.013 306.3 744.013 305.34C745.013 304.38 746.273 303.9 747.793 303.9C749.233 303.9 750.453 304.36 751.453 305.28C752.493 306.16 753.213 307.36 753.613 308.88C753.853 307.36 754.473 306.16 755.473 305.28C756.473 304.36 757.753 303.9 759.313 303.9C761.353 303.9 763.013 304.7 764.293 306.3C765.613 307.86 766.273 309.88 766.273 312.36V337.5H760.393V312.66C760.393 311.46 760.113 310.52 759.553 309.84C758.993 309.12 758.213 308.76 757.213 308.76C756.213 308.76 755.433 309.1 754.873 309.78C754.353 310.46 754.093 311.4 754.093 312.6V337.5H748.813V312.66C748.813 311.46 748.533 310.52 747.973 309.84C747.453 309.12 746.693 308.76 745.693 308.76C744.693 308.76 743.913 309.1 743.353 309.78C742.793 310.46 742.513 311.4 742.513 312.6V337.5H736.633ZM772.49 337.5V331.62H783.95V310.38H773.69V304.5H790.43V331.62H801.05V337.5H772.49ZM786.65 298.8C785.25 298.8 784.13 298.44 783.29 297.72C782.45 296.96 782.03 295.96 782.03 294.72C782.03 293.44 782.45 292.44 783.29 291.72C784.13 290.96 785.25 290.58 786.65 290.58C788.05 290.58 789.17 290.96 790.01 291.72C790.85 292.44 791.27 293.44 791.27 294.72C791.27 295.96 790.85 296.96 790.01 297.72C789.17 298.44 788.05 298.8 786.65 298.8ZM823.106 337.5C820.186 337.5 817.866 336.66 816.146 334.98C814.426 333.3 813.566 331.02 813.566 328.14V310.38H804.266V304.5H813.566V295.2H820.046V304.5H833.366V310.38H820.046V328.08C820.046 329.12 820.346 329.98 820.946 330.66C821.546 331.3 822.366 331.62 823.406 331.62H833.066V337.5H823.106Z" fill="black"/>
</g>
<defs>
<linearGradient id="paint0_linear_18266_11622" x1="588.214" y1="-110.024" x2="588.019" y2="774.187" gradientUnits="userSpaceOnUse">
<stop stop-color="#9683FF"/>
<stop offset="0.938633" stop-color="#D4CDFF"/>
</linearGradient>
<linearGradient id="paint1_linear_18266_11622" x1="589" y1="-32.4175" x2="586.007" y2="767.006" gradientUnits="userSpaceOnUse">
<stop stop-color="#CCCCCC"/>
<stop offset="0.938633" stop-color="#F2F2F2"/>
</linearGradient>
<clipPath id="clip0_18266_11622">
<rect width="1200" height="630" fill="white"/>
</clipPath>
<clipPath id="clip1_18266_11622">
<rect width="1200" height="630" fill="white"/>
</clipPath>
</defs>
</svg>
