<svg xmlns="http://www.w3.org/2000/svg" width="560" height="240" fill="none" viewBox="0 0 560 240"><g clip-path="url(#clip0_7219_29430)"><rect width="560" height="240" fill="#FFF100"/><path stroke="url(#paint0_linear_7219_29430)" stroke-linecap="round" stroke-linejoin="round" stroke-width="3" d="M-7.99988 214.5L111.5 95.0002"/><path stroke="url(#paint1_linear_7219_29430)" stroke-linecap="round" stroke-linejoin="round" stroke-width="3" d="M120.5 149.554L120.5 116C120.5 99.4312 107.069 85.9998 90.5 85.9997L56.9456 85.9997"/><path fill="#EDDD0C" d="M386 185L631.156 185.001L660 185C671.046 185 680 193.954 680 205L680 275C680 286.046 671.046 295 660 295L386 295C374.954 295 366 286.046 366 275L366 205C366 193.954 374.954 185 386 185Z"/><path fill="#EDDD0C" d="M423.5 42.5004L58.0001 42.5C46.9544 42.5 38.0001 51.4543 38.0001 62.5L38 168C38 179.046 46.9543 188 58 188L127.5 188C138.546 188 147.5 196.954 147.5 208L147.5 252.5C147.5 263.546 138.546 272.5 127.5 272.5L-8.99996 272.5C-20.0457 272.5 -29 263.546 -29 252.5L-28.9998 -24C-28.9998 -35.0457 -20.0455 -44 -8.99979 -44L423.5 -44C434.546 -44 443.5 -35.0457 443.5 -24L443.5 22.5004C443.5 33.5461 434.546 42.5004 423.5 42.5004Z"/><path stroke="url(#paint2_linear_7219_29430)" stroke-linecap="round" stroke-linejoin="round" stroke-width="3" d="M603.5 -14.0001L484 105.5"/><path stroke="url(#paint3_linear_7219_29430)" stroke-linecap="round" stroke-linejoin="round" stroke-width="3" d="M475 50.9456L475 84.5C475 101.069 488.431 114.5 505 114.5L538.554 114.5"/><path stroke="url(#paint4_linear_7219_29430)" stroke-linecap="round" stroke-linejoin="round" stroke-width="3" d="M409 276V238C409 221.431 422.431 208 439 208L592 208"/><path fill="#000" d="M138.043 107.241C138.043 102.006 134.931 101.209 131.746 101.209H130.153V113.298H131.746C134.931 113.298 138.043 112.526 138.043 107.241ZM126.703 98.5071H131.89C137.44 98.5071 141.614 100.293 141.614 107.241C141.614 114.19 137.44 116 131.89 116H126.703V98.5071ZM151.676 116V114.287C150.928 115.614 149.505 116.314 147.888 116.314C144.776 116.314 143.521 114.408 143.521 111.223V103.019H146.851V110.499C146.851 112.236 147.116 113.635 148.974 113.635C151.194 113.635 151.676 111.826 151.676 109.775V103.019H155.006V116H151.676ZM163.662 102.73C166.389 102.73 169.091 104.25 169.55 107.459H166.365C166.099 106.204 164.941 105.311 163.662 105.311C161.925 105.311 160.55 106.783 160.55 109.485C160.55 112.212 161.853 113.732 163.687 113.732C164.845 113.732 166.027 113.129 166.485 111.585H169.67C168.898 115.131 166.22 116.314 163.518 116.314C159.633 116.314 157.148 113.467 157.148 109.534C157.148 105.577 159.778 102.73 163.662 102.73ZM171.659 98.5071H174.988V108.231L179.717 103.019H183.457L178.801 107.989L183.723 116H179.983L176.581 110.378L174.988 112.091V116H171.659V98.5071ZM196.455 107.241C196.455 102.006 193.342 101.209 190.157 101.209H188.565V113.298H190.157C193.342 113.298 196.455 112.526 196.455 107.241ZM185.115 98.5071H190.302C195.852 98.5071 200.026 100.293 200.026 107.241C200.026 114.19 195.852 116 190.302 116H185.115V98.5071ZM202.457 116V98.5071H209.261C212.325 98.5071 215.631 99.4722 215.631 103.067C215.631 104.708 214.545 106.18 213.652 106.759C215.003 107.41 216.258 108.424 216.258 110.837C216.258 114.601 213.146 116 209.55 116H202.457ZM205.907 108.327V113.298H209.719C211.746 113.298 212.735 112.453 212.735 110.837C212.735 109.196 211.722 108.327 209.575 108.327H205.907ZM205.907 101.209V105.721H209.478C211.119 105.721 212.084 104.949 212.084 103.405C212.084 102.03 211.095 101.209 209.478 101.209H205.907ZM223.85 103.019H227.18V116H223.85V103.019ZM223.85 98.5071H227.18V101.595H223.85V98.5071ZM233.494 103.019V104.732C234.242 103.405 235.642 102.73 237.258 102.73C240.371 102.73 241.746 104.612 241.746 107.821V116H238.417V108.544C238.417 106.88 238.055 105.408 236.173 105.408C233.977 105.408 233.494 107.193 233.494 109.244V116H230.165V103.019H233.494ZM256.93 108.737L254.71 108.327C251.887 107.748 249.474 106.3 249.474 103.26C249.474 99.7376 253.238 98.1934 256.447 98.1934C260.066 98.1934 263.131 100.317 263.324 103.671H259.994C259.729 101.62 257.943 100.944 256.302 100.944C254.686 100.944 252.925 101.547 252.925 103.116C252.925 104.346 253.938 105.022 255.361 105.287L257.654 105.697C260.501 106.228 263.637 107.314 263.637 110.957C263.637 114.552 260.066 116.314 256.544 116.314C252.249 116.314 249.402 113.997 249.088 110.233H252.418C252.804 112.815 254.589 113.563 256.664 113.563C258.209 113.563 260.163 112.984 260.163 111.126C260.163 109.654 258.788 109.051 256.93 108.737ZM271.98 102.73C274.706 102.73 277.409 104.25 277.867 107.459H274.682C274.417 106.204 273.259 105.311 271.98 105.311C270.243 105.311 268.867 106.783 268.867 109.485C268.867 112.212 270.17 113.732 272.004 113.732C273.162 113.732 274.344 113.129 274.803 111.585H277.988C277.216 115.131 274.538 116.314 271.835 116.314C267.951 116.314 265.465 113.467 265.465 109.534C265.465 105.577 268.095 102.73 271.98 102.73ZM279.976 103.019H283.306V116H279.976V103.019ZM279.976 98.5071H283.306V101.595H279.976V98.5071ZM298.331 110.426H288.752C288.945 112.646 290.441 113.732 292.033 113.732C293.071 113.732 294.084 113.37 294.76 112.236H298.186C297.486 114.166 295.604 116.314 292.058 116.314C287.883 116.314 285.446 113.201 285.446 109.461C285.446 105.601 288.125 102.73 291.961 102.73C295.966 102.73 298.452 105.842 298.331 110.426ZM291.937 105.166C290.682 105.166 289.066 105.939 288.8 108.134H294.953C294.881 105.939 293.336 105.166 291.937 105.166ZM303.805 103.019V104.732C304.553 103.405 305.953 102.73 307.569 102.73C310.682 102.73 312.057 104.612 312.057 107.821V116H308.727V108.544C308.727 106.88 308.366 105.408 306.484 105.408C304.288 105.408 303.805 107.193 303.805 109.244V116H300.476V103.019H303.805ZM320.519 102.73C323.245 102.73 325.948 104.25 326.406 107.459H323.221C322.956 106.204 321.798 105.311 320.519 105.311C318.782 105.311 317.406 106.783 317.406 109.485C317.406 112.212 318.709 113.732 320.543 113.732C321.701 113.732 322.884 113.129 323.342 111.585H326.527C325.755 115.131 323.077 116.314 320.374 116.314C316.49 116.314 314.004 113.467 314.004 109.534C314.004 105.577 316.634 102.73 320.519 102.73ZM340.673 110.426H331.094C331.287 112.646 332.783 113.732 334.376 113.732C335.413 113.732 336.426 113.37 337.102 112.236H340.528C339.828 114.166 337.946 116.314 334.4 116.314C330.225 116.314 327.789 113.201 327.789 109.461C327.789 105.601 330.467 102.73 334.303 102.73C338.308 102.73 340.794 105.842 340.673 110.426ZM334.279 105.166C333.024 105.166 331.408 105.939 331.142 108.134H337.295C337.223 105.939 335.678 105.166 334.279 105.166ZM359.287 116H355.861L351.542 102.85V116H348.333V98.5071H353.352L357.598 112.139L361.724 98.5071H366.791V116H363.582V102.85L359.287 116ZM381.884 110.426H372.305C372.498 112.646 373.994 113.732 375.587 113.732C376.624 113.732 377.637 113.37 378.313 112.236H381.739C381.04 114.166 379.158 116.314 375.611 116.314C371.437 116.314 369 113.201 369 109.461C369 105.601 371.678 102.73 375.514 102.73C379.519 102.73 382.005 105.842 381.884 110.426ZM375.49 105.166C374.235 105.166 372.619 105.939 372.353 108.134H378.506C378.434 105.939 376.89 105.166 375.49 105.166ZM396.422 110.426H386.843C387.036 112.646 388.532 113.732 390.125 113.732C391.162 113.732 392.176 113.37 392.851 112.236H396.277C395.578 114.166 393.696 116.314 390.149 116.314C385.975 116.314 383.538 113.201 383.538 109.461C383.538 105.601 386.216 102.73 390.052 102.73C394.058 102.73 396.543 105.842 396.422 110.426ZM390.028 105.166C388.774 105.166 387.157 105.939 386.892 108.134H393.044C392.972 105.939 391.428 105.166 390.028 105.166ZM399.025 103.019V99.4963H402.355V103.019H405.057V105.311H402.355V112.019C402.355 113.346 402.813 113.611 403.996 113.611H405.009V116H402.572C399.58 116 399.025 115.083 399.025 112.501V105.311H397.192V103.019H399.025ZM415.177 116V114.287C414.429 115.614 413.006 116.314 411.389 116.314C408.277 116.314 407.022 114.408 407.022 111.223V103.019H410.352V110.499C410.352 112.236 410.617 113.635 412.475 113.635C414.695 113.635 415.177 111.826 415.177 109.775V103.019H418.507V116H415.177ZM427.743 113.756C429.48 113.756 430.71 112.067 430.71 109.534C430.71 107 429.48 105.287 427.743 105.287C425.909 105.287 424.702 106.904 424.702 109.51C424.702 112.188 425.909 113.756 427.743 113.756ZM424.823 120.222H421.493V103.019H424.823V104.684C425.523 103.453 426.922 102.73 428.563 102.73C431.7 102.73 434.209 105.432 434.209 109.51C434.209 113.66 431.627 116.314 428.539 116.314C427.188 116.314 425.668 115.807 424.823 114.359V120.222Z"/><path fill="#000" d="M169.554 123.507V139.504H178.819V141H167.938V123.507H169.554ZM180.975 134.558C180.975 138.298 182.736 139.938 185.246 139.938C187.731 139.938 189.541 138.298 189.541 134.558C189.541 130.818 187.731 129.177 185.246 129.177C182.736 129.177 180.975 130.818 180.975 134.558ZM179.383 134.558C179.383 129.829 182.157 127.802 185.246 127.802C188.358 127.802 191.133 129.829 191.133 134.558C191.133 139.287 188.358 141.314 185.246 141.314C182.157 141.314 179.383 139.287 179.383 134.558ZM195.228 128.019V130.215C195.88 128.984 197.11 127.802 199.547 127.802C202.612 127.802 203.915 129.636 203.915 132.821V141H202.419V133.231C202.419 130.794 201.767 129.153 199.161 129.153C196.917 129.153 195.228 131.035 195.228 133.786V141H193.732V128.019H195.228ZM216.019 134.558C216.019 130.697 213.799 129.153 211.845 129.153C209.432 129.153 207.719 131.107 207.719 134.558C207.719 138.008 209.432 139.962 211.845 139.962C213.799 139.962 216.019 138.418 216.019 134.558ZM206.102 134.558C206.102 130.239 208.539 127.802 211.531 127.802C213.461 127.802 214.981 128.695 215.922 130.263V123.507H217.418V141H215.922V138.877C214.981 140.421 213.461 141.314 211.531 141.314C208.539 141.314 206.102 138.877 206.102 134.558ZM221.621 134.558C221.621 138.298 223.382 139.938 225.891 139.938C228.377 139.938 230.186 138.298 230.186 134.558C230.186 130.818 228.377 129.177 225.891 129.177C223.382 129.177 221.621 130.818 221.621 134.558ZM220.028 134.558C220.028 129.829 222.803 127.802 225.891 127.802C229.004 127.802 231.779 129.829 231.779 134.558C231.779 139.287 229.004 141.314 225.891 141.314C222.803 141.314 220.028 139.287 220.028 134.558ZM235.874 128.019V130.215C236.525 128.984 237.756 127.802 240.193 127.802C243.257 127.802 244.56 129.636 244.56 132.821V141H243.064V133.231C243.064 130.794 242.413 129.153 239.807 129.153C237.563 129.153 235.874 131.035 235.874 133.786V141H234.378V128.019H235.874ZM247.779 141V138.732H249.879V141.193L248.672 144.33H247.562L248.6 141H247.779ZM264.165 123.193C267.374 123.193 269.449 124.882 269.449 127.705C269.449 131.252 266.409 134.703 259.967 139.552H269.98V141H257.892V139.504C264.334 134.606 267.857 131.132 267.857 127.874C267.857 125.63 266.143 124.52 264.165 124.52C261.969 124.52 259.967 125.558 259.894 128.912H258.302C258.471 125.172 260.691 123.193 264.165 123.193ZM278.939 141.314C274.307 141.314 272.208 137.815 272.208 132.241C272.208 126.716 274.307 123.193 278.939 123.193C283.524 123.193 285.647 126.716 285.647 132.241C285.647 137.815 283.524 141.314 278.939 141.314ZM278.939 139.987C282.076 139.987 284.079 137.526 284.079 132.241C284.079 127.006 282.076 124.52 278.939 124.52C275.779 124.52 273.8 127.006 273.8 132.241C273.8 137.526 275.779 139.987 278.939 139.987ZM293.948 123.193C297.157 123.193 299.232 124.882 299.232 127.705C299.232 131.252 296.192 134.703 289.75 139.552H299.763V141H287.675V139.504C294.117 134.606 297.64 131.132 297.64 127.874C297.64 125.63 295.927 124.52 293.948 124.52C291.752 124.52 289.75 125.558 289.677 128.912H288.085C288.254 125.172 290.474 123.193 293.948 123.193ZM307.854 139.987C310.291 139.987 312.366 138.322 312.366 135.282C312.366 132 310.026 130.649 307.806 130.649C305.827 130.649 304.187 131.711 303.68 132.893L302.208 132.748L303.342 123.507H313.235V124.955H304.645L303.873 130.939C304.717 129.973 306.455 129.298 308.168 129.298C311.401 129.298 313.958 131.397 313.958 135.258C313.958 139.239 311.039 141.314 307.854 141.314C304.38 141.314 302.039 139.046 301.725 136.078H303.318C303.825 138.78 305.779 139.987 307.854 139.987ZM323.02 135.233H316.264V133.544H323.02V135.233ZM332.097 141.314C327.464 141.314 325.365 137.815 325.365 132.241C325.365 126.716 327.464 123.193 332.097 123.193C336.681 123.193 338.804 126.716 338.804 132.241C338.804 137.815 336.681 141.314 332.097 141.314ZM332.097 139.987C335.233 139.987 337.236 137.526 337.236 132.241C337.236 127.006 335.233 124.52 332.097 124.52C328.936 124.52 326.958 127.006 326.958 132.241C326.958 137.526 328.936 139.987 332.097 139.987ZM351.352 129.057C351.352 126.378 349.494 124.52 346.888 124.52C344.258 124.52 342.425 126.378 342.425 129.057C342.425 131.904 344.186 133.786 346.888 133.786C349.591 133.786 351.352 131.904 351.352 129.057ZM346.599 139.987C349.687 139.987 351.642 137.357 351.642 132.314C350.845 133.955 349.036 135.113 346.719 135.113C343.245 135.113 340.832 132.603 340.832 129.129C340.832 125.848 343.197 123.193 346.888 123.193C351.207 123.193 353.162 126.282 353.162 131.542C353.162 137.019 351.4 141.314 346.357 141.314C343.221 141.314 341.435 139.408 341.122 136.971H342.738C343.028 139.021 344.548 139.987 346.599 139.987ZM362.228 135.233H355.472V133.544H362.228V135.233ZM371.305 141.314C366.672 141.314 364.573 137.815 364.573 132.241C364.573 126.716 366.672 123.193 371.305 123.193C375.889 123.193 378.013 126.716 378.013 132.241C378.013 137.815 375.889 141.314 371.305 141.314ZM371.305 139.987C374.442 139.987 376.444 137.526 376.444 132.241C376.444 127.006 374.442 124.52 371.305 124.52C368.144 124.52 366.166 127.006 366.166 132.241C366.166 137.526 368.144 139.987 371.305 139.987ZM388.992 125.582L381.367 134.944H388.992V125.582ZM393.89 134.944V136.416H390.488V141H388.992V136.416H379.582V135.064L389.016 123.507H390.488V134.944H393.89Z"/></g><defs><linearGradient id="paint0_linear_7219_29430" x1="136.06" x2="21.837" y1="70.807" y2="186.494" gradientUnits="userSpaceOnUse"><stop stop-color="#EDDD0C"/><stop offset="1" stop-color="#CCBD00"/></linearGradient><linearGradient id="paint1_linear_7219_29430" x1="121" x2="106.027" y1="90" y2="140.081" gradientUnits="userSpaceOnUse"><stop stop-color="#EDDD0C"/><stop offset="1" stop-color="#CCBD00"/></linearGradient><linearGradient id="paint2_linear_7219_29430" x1="475.5" x2="573.663" y1="111.5" y2="14.006" gradientUnits="userSpaceOnUse"><stop stop-color="#EDDD0C"/><stop offset="1" stop-color="#CCBD00"/></linearGradient><linearGradient id="paint3_linear_7219_29430" x1="483" x2="494.482" y1="104.5" y2="81.304" gradientUnits="userSpaceOnUse"><stop stop-color="#EDDD0C"/><stop offset="1" stop-color="#CCBD00"/></linearGradient><linearGradient id="paint4_linear_7219_29430" x1="16275100" x2="16275100" y1="54452.5" y2="54388.4" gradientUnits="userSpaceOnUse"><stop stop-color="#EDDD0C"/><stop offset="1" stop-color="#CCBD00"/></linearGradient><clipPath id="clip0_7219_29430"><rect width="560" height="240" fill="#fff"/></clipPath></defs></svg>