<svg xmlns="http://www.w3.org/2000/svg" width="560" height="240" fill="none" viewBox="0 0 560 240"><g clip-path="url(#clip0_6928_10119)"><rect width="560" height="240" fill="#FFF100"/><g clip-path="url(#clip1_6928_10119)"><rect width="560" height="240" fill="#FFF100"/><path fill="#EDDD0C" d="M294.978 54.1962L416.868 54.1962C427.914 54.1962 436.868 63.1505 436.868 74.1962L436.868 192.5C436.868 203.546 445.822 212.5 456.868 212.5L583.619 212.5C594.665 212.5 603.619 203.546 603.619 192.5L603.619 -13.9535C603.619 -24.9992 594.665 -33.9535 583.619 -33.9535L294.978 -33.9539C283.932 -33.9539 274.978 -24.9996 274.978 -13.9539L274.978 34.1962C274.978 45.2419 283.932 54.1962 294.978 54.1962Z"/><path fill="#EDDD0C" d="M-22.5 45.3254L37.5002 45.3254C48.5459 45.3254 57.5002 54.2798 57.5002 65.3255L57.5 139C57.5 150.045 66.4543 159 77.5 159L114.5 159C125.546 159 134.5 167.954 134.5 179L134.5 268.827C134.5 279.873 125.546 288.827 114.5 288.827L-22.5 288.827C-33.5457 288.827 -42.5 279.873 -42.5 268.827L-42.5 65.3254C-42.5 54.2797 -33.5457 45.3254 -22.5 45.3254Z"/><path stroke="url(#paint0_linear_6928_10119)" stroke-linecap="round" stroke-linejoin="round" stroke-width="3" d="M-86.0003 183L42.4775 183C59.0461 183 72.4775 196.431 72.4775 213L72.4776 370"/><path stroke="url(#paint1_linear_6928_10119)" stroke-linecap="round" stroke-linejoin="round" stroke-width="3" d="M490 -95L490 126C490 142.569 503.431 156 520 156L668 156"/></g><path fill="#000" d="M181.375 94.5071C181.375 89.2713 178.262 88.4751 175.077 88.4751H173.485V100.563H175.077C178.262 100.563 181.375 99.7912 181.375 94.5071ZM170.035 85.7727H175.222C180.772 85.7727 184.946 87.5582 184.946 94.5071C184.946 101.456 180.772 103.266 175.222 103.266H170.035V85.7727ZM195.008 103.266V101.553C194.26 102.88 192.836 103.579 191.22 103.579C188.107 103.579 186.853 101.673 186.853 98.4883V90.2847H190.182V97.7644C190.182 99.5016 190.448 100.901 192.306 100.901C194.525 100.901 195.008 99.0915 195.008 97.0406V90.2847H198.338V103.266H195.008ZM206.994 89.9951C209.721 89.9951 212.423 91.5152 212.881 94.7243H209.697C209.431 93.4696 208.273 92.5769 206.994 92.5769C205.257 92.5769 203.882 94.0487 203.882 96.751C203.882 99.4775 205.185 100.998 207.018 100.998C208.176 100.998 209.359 100.394 209.817 98.8502H213.002C212.23 102.397 209.552 103.579 206.849 103.579C202.965 103.579 200.48 100.732 200.48 96.7993C200.48 92.8423 203.11 89.9951 206.994 89.9951ZM214.99 85.7727H218.32V95.4964L223.049 90.2847H226.789L222.132 95.2551L227.054 103.266H223.315L219.913 97.6438L218.32 99.3569V103.266H214.99V85.7727ZM239.787 94.5071C239.787 89.2713 236.674 88.4751 233.489 88.4751H231.897V100.563H233.489C236.674 100.563 239.787 99.7912 239.787 94.5071ZM228.446 85.7727H233.634C239.183 85.7727 243.358 87.5582 243.358 94.5071C243.358 101.456 239.183 103.266 233.634 103.266H228.446V85.7727ZM245.788 103.266V85.7727H252.593C255.657 85.7727 258.962 86.7378 258.962 90.3329C258.962 91.9737 257.877 93.4455 256.984 94.0245C258.335 94.676 259.59 95.6894 259.59 98.1022C259.59 101.866 256.477 103.266 252.882 103.266H245.788ZM249.239 95.5929V100.563H253.051C255.078 100.563 256.067 99.7188 256.067 98.1022C256.067 96.4615 255.054 95.5929 252.906 95.5929H249.239ZM249.239 88.4751V92.987H252.81C254.45 92.987 255.416 92.2149 255.416 90.6707C255.416 89.2954 254.426 88.4751 252.81 88.4751H249.239ZM278.208 103.266H274.782L270.463 90.1158V103.266H267.254V85.7727H272.273L276.519 99.4051L280.645 85.7727H285.712V103.266H282.503V90.1158L278.208 103.266ZM300.805 97.692H291.226C291.419 99.9118 292.915 100.998 294.508 100.998C295.545 100.998 296.558 100.636 297.234 99.5016H300.66C299.96 101.432 298.078 103.579 294.532 103.579C290.357 103.579 287.921 100.467 287.921 96.7269C287.921 92.8664 290.599 89.9951 294.435 89.9951C298.44 89.9951 300.926 93.1077 300.805 97.692ZM294.411 92.4321C293.156 92.4321 291.54 93.2042 291.274 95.3998H297.427C297.355 93.2042 295.81 92.4321 294.411 92.4321ZM315.343 97.692H305.764C305.957 99.9118 307.453 100.998 309.046 100.998C310.083 100.998 311.097 100.636 311.772 99.5016H315.198C314.499 101.432 312.617 103.579 309.07 103.579C304.896 103.579 302.459 100.467 302.459 96.7269C302.459 92.8664 305.137 89.9951 308.973 89.9951C312.979 89.9951 315.464 93.1077 315.343 97.692ZM308.949 92.4321C307.694 92.4321 306.078 93.2042 305.812 95.3998H311.965C311.893 93.2042 310.349 92.4321 308.949 92.4321ZM317.946 90.2847V86.762H321.276V90.2847H323.978V92.5769H321.276V99.2845C321.276 100.612 321.734 100.877 322.917 100.877H323.93V103.266H321.493C318.501 103.266 317.946 102.349 317.946 99.767V92.5769H316.113V90.2847H317.946ZM334.098 103.266V101.553C333.35 102.88 331.927 103.579 330.31 103.579C327.198 103.579 325.943 101.673 325.943 98.4883V90.2847H329.273V97.7644C329.273 99.5016 329.538 100.901 331.396 100.901C333.616 100.901 334.098 99.0915 334.098 97.0406V90.2847H337.428V103.266H334.098ZM346.664 101.022C348.401 101.022 349.631 99.3327 349.631 96.7993C349.631 94.2658 348.401 92.5527 346.664 92.5527C344.83 92.5527 343.623 94.1693 343.623 96.7752C343.623 99.4534 344.83 101.022 346.664 101.022ZM343.744 107.488H340.414V90.2847H343.744V91.9495C344.444 90.719 345.843 89.9951 347.484 89.9951C350.621 89.9951 353.13 92.6975 353.13 96.7752C353.13 100.925 350.548 103.579 347.46 103.579C346.109 103.579 344.589 103.073 343.744 101.625V107.488ZM360.605 89.8262H363.983L364.538 85.7727H367.529L366.975 89.8262H370.184L370.739 85.7727H373.73L373.175 89.8262H376.505L376.191 92.408H372.814L372.307 96.0513H375.612L375.347 98.6089H371.945L371.318 103.266H368.326L368.953 98.6089H365.744L365.117 103.266H362.125L362.752 98.6089H359.447L359.76 96.0513H363.114L363.621 92.408H360.339L360.605 89.8262ZM366.613 92.408L366.106 96.0513H369.315L369.822 92.408H366.613ZM383.927 101.07C385.761 101.07 387.209 99.9842 387.209 98.3435C387.209 96.2926 385.302 95.4722 382.817 95.4722H382.118V92.8664H382.697C385.206 92.8664 386.774 91.9495 386.774 90.3088C386.774 88.7887 385.447 87.9684 384 87.9684C381.973 87.9684 380.718 89.223 380.549 91.0568H377.388C377.775 87.5582 380.163 85.4591 384.193 85.4591C387.112 85.4591 390.128 86.8585 390.128 90.164C390.128 91.8771 389.115 93.2524 387.764 94.0004C389.573 94.7725 390.587 96.4856 390.587 98.247C390.587 101.794 387.522 103.579 383.831 103.579C379.825 103.579 377.437 100.973 377.244 97.7644H380.38C380.646 99.5258 381.732 101.07 383.927 101.07ZM212.705 127.266L219.22 109.773H222.694L229.233 127.266H225.493L224.262 123.719H217.458L216.228 127.266H212.705ZM220.86 113.995L218.448 120.896H223.273L220.86 113.995ZM246.691 127.266V119.714C246.691 118.29 246.571 116.673 244.616 116.673C242.396 116.673 242.035 118.531 242.035 120.51V127.266H238.705V119.714C238.705 118.29 238.584 116.673 236.63 116.673C234.41 116.673 234.048 118.531 234.048 120.51V127.266H230.718V114.285H234.048V115.998C234.796 114.719 236.099 113.995 237.667 113.995C239.863 113.995 240.852 115.177 241.359 116.118C242.396 114.671 243.675 113.995 245.63 113.995C248.887 113.995 250.021 116.022 250.021 119.086V127.266H246.691ZM263.244 118.193H260.131C259.866 117.108 258.901 116.336 257.356 116.336C256.126 116.336 255.257 116.794 255.257 117.59C255.257 118.29 255.764 118.821 256.994 119.086L258.732 119.472C261.313 120.051 263.509 120.703 263.509 123.381C263.509 125.987 260.831 127.579 257.887 127.579C254.702 127.579 252.289 125.939 251.976 122.971H255.185C255.378 124.225 256.246 125.166 257.984 125.166C259.431 125.166 260.324 124.636 260.324 123.695C260.324 122.73 259.335 122.368 258.201 122.102L256.271 121.692C253.834 121.185 252.217 120.172 252.217 117.807C252.217 115.491 254.726 113.947 257.525 113.947C260.228 113.947 262.785 115.202 263.244 118.193ZM266.215 114.285V110.762H269.544V114.285H272.247V116.577H269.544V123.284C269.544 124.612 270.003 124.877 271.185 124.877H272.198V127.266H269.761C266.769 127.266 266.215 126.349 266.215 123.767V116.577H264.381V114.285H266.215ZM286.42 121.692H276.841C277.034 123.912 278.53 124.998 280.123 124.998C281.16 124.998 282.173 124.636 282.849 123.502H286.275C285.575 125.432 283.693 127.579 280.147 127.579C275.972 127.579 273.536 124.467 273.536 120.727C273.536 116.866 276.214 113.995 280.05 113.995C284.055 113.995 286.541 117.108 286.42 121.692ZM280.026 116.432C278.771 116.432 277.155 117.204 276.889 119.4H283.042C282.97 117.204 281.425 116.432 280.026 116.432ZM295.996 114.357V117.494C295.514 117.421 295.103 117.421 294.621 117.421C292.98 117.421 291.894 118.025 291.894 120.461V127.266H288.565V114.285H291.846V116.553C292.594 114.936 293.752 114.309 295.272 114.309C295.49 114.309 295.779 114.333 295.996 114.357ZM309.578 127.266H306.248V125.625C305.404 127.073 303.86 127.579 302.509 127.579C299.42 127.579 296.863 124.925 296.863 120.775C296.863 116.697 299.372 113.995 302.509 113.995C304.149 113.995 305.549 114.719 306.248 115.95V109.773H309.578V127.266ZM303.329 125.022C305.163 125.022 306.369 123.453 306.369 120.775C306.369 118.169 305.163 116.553 303.329 116.553C301.592 116.553 300.361 118.266 300.361 120.799C300.361 123.333 301.592 125.022 303.329 125.022ZM320.682 122.295V121.33C316.942 121.716 315.47 122.15 315.47 123.598C315.47 124.539 316.194 125.311 317.714 125.311C319.814 125.311 320.682 124.201 320.682 122.295ZM320.972 125.649C320.031 127 318.679 127.579 316.725 127.579C314.24 127.579 312.044 126.132 312.044 123.767C312.044 120.703 315.47 119.786 320.586 119.207V118.99C320.586 116.987 319.5 116.287 318.149 116.287C316.87 116.287 315.808 116.939 315.736 118.386H312.623C312.889 115.829 314.964 113.947 318.318 113.947C321.382 113.947 323.915 115.298 323.915 119.665C323.915 120.051 323.867 121.813 323.867 122.971C323.867 125.022 323.988 126.18 324.253 127.266H321.189C321.092 126.855 321.044 126.3 320.972 125.649ZM342.662 127.266V119.714C342.662 118.29 342.541 116.673 340.587 116.673C338.367 116.673 338.005 118.531 338.005 120.51V127.266H334.676V119.714C334.676 118.29 334.555 116.673 332.6 116.673C330.381 116.673 330.019 118.531 330.019 120.51V127.266H326.689V114.285H330.019V115.998C330.767 114.719 332.07 113.995 333.638 113.995C335.834 113.995 336.823 115.177 337.33 116.118C338.367 114.671 339.646 113.995 341.6 113.995C344.858 113.995 345.992 116.022 345.992 119.086V127.266H342.662Z"/><path fill="#000" d="M231.09 138.236C233.883 138.236 235.689 139.706 235.689 142.163C235.689 145.25 233.043 148.253 227.436 152.474H236.151V153.734H225.63V152.432C231.237 148.169 234.303 145.145 234.303 142.31C234.303 140.357 232.812 139.391 231.09 139.391C229.179 139.391 227.436 140.294 227.373 143.213H225.987C226.134 139.958 228.066 138.236 231.09 138.236ZM243.949 154.007C239.917 154.007 238.09 150.962 238.09 146.111C238.09 141.302 239.917 138.236 243.949 138.236C247.939 138.236 249.787 141.302 249.787 146.111C249.787 150.962 247.939 154.007 243.949 154.007ZM243.949 152.852C246.679 152.852 248.422 150.71 248.422 146.111C248.422 141.554 246.679 139.391 243.949 139.391C241.198 139.391 239.476 141.554 239.476 146.111C239.476 150.71 241.198 152.852 243.949 152.852ZM257.012 138.236C259.805 138.236 261.611 139.706 261.611 142.163C261.611 145.25 258.965 148.253 253.358 152.474H262.073V153.734H251.552V152.432C257.159 148.169 260.225 145.145 260.225 142.31C260.225 140.357 258.734 139.391 257.012 139.391C255.101 139.391 253.358 140.294 253.295 143.213H251.909C252.056 139.958 253.988 138.236 257.012 138.236ZM269.115 152.852C271.236 152.852 273.042 151.403 273.042 148.757C273.042 145.901 271.005 144.725 269.073 144.725C267.351 144.725 265.923 145.649 265.482 146.678L264.201 146.552L265.188 138.509H273.798V139.769H266.322L265.65 144.977C266.385 144.137 267.897 143.549 269.388 143.549C272.202 143.549 274.428 145.376 274.428 148.736C274.428 152.201 271.887 154.007 269.115 154.007C266.091 154.007 264.054 152.033 263.781 149.45H265.167C265.608 151.802 267.309 152.852 269.115 152.852ZM282.314 148.715H276.434V147.245H282.314V148.715ZM290.215 154.007C286.183 154.007 284.356 150.962 284.356 146.111C284.356 141.302 286.183 138.236 290.215 138.236C294.205 138.236 296.053 141.302 296.053 146.111C296.053 150.962 294.205 154.007 290.215 154.007ZM290.215 152.852C292.945 152.852 294.688 150.71 294.688 146.111C294.688 141.554 292.945 139.391 290.215 139.391C287.464 139.391 285.742 141.554 285.742 146.111C285.742 150.71 287.464 152.852 290.215 152.852ZM306.974 143.339C306.974 141.008 305.357 139.391 303.089 139.391C300.8 139.391 299.204 141.008 299.204 143.339C299.204 145.817 300.737 147.455 303.089 147.455C305.441 147.455 306.974 145.817 306.974 143.339ZM302.837 152.852C305.525 152.852 307.226 150.563 307.226 146.174C306.533 147.602 304.958 148.61 302.942 148.61C299.918 148.61 297.818 146.426 297.818 143.402C297.818 140.546 299.876 138.236 303.089 138.236C306.848 138.236 308.549 140.924 308.549 145.502C308.549 150.269 307.016 154.007 302.627 154.007C299.897 154.007 298.343 152.348 298.07 150.227H299.477C299.729 152.012 301.052 152.852 302.837 152.852ZM316.439 148.715H310.559V147.245H316.439V148.715ZM321.499 153.734H320.197V141.407H316.711V140.525C319.378 140.525 320.05 140.252 320.617 138.383H321.499V153.734ZM323.645 139.769V138.509H334.04V139.769C330.008 142.73 327.404 147.287 327.173 153.734H325.724C326.123 146.867 328.832 142.436 332.444 139.769H323.645Z"/><g clip-path="url(#clip2_6928_10119)"><path fill="#000" d="M205.667 211.142H200.018V213.056H203.73C203.972 213.056 204.134 213.269 204.134 213.482V216.844H203.327C203.084 216.844 202.923 216.631 202.923 216.418V213.993H201.349C200.542 213.993 199.896 214.674 199.896 215.525V217.227C199.896 218.078 200.542 218.759 201.349 218.759H207.12V212.674C207.12 211.822 206.474 211.142 205.667 211.142Z"/><path fill="#000" d="M212.567 216.844H211.76C211.518 216.844 211.357 216.631 211.357 216.418V211.142H209.783C208.976 211.142 208.33 211.823 208.33 212.674V217.227C208.33 218.078 208.976 218.759 209.783 218.759H215.554V207.95H212.527L212.567 216.844Z"/><path fill="#000" d="M221.002 216.844H220.195C219.953 216.844 219.791 216.631 219.791 216.418V211.142H216.765V217.227C216.765 218.078 217.41 218.759 218.217 218.759H221.002V219.695H216.886V221.908H222.576C223.383 221.908 224.028 221.227 224.028 220.376V211.142H221.002V216.844Z"/><path fill="#000" d="M231.009 211.142H225.198V217.227C225.198 218.078 225.844 218.759 226.651 218.759H232.341V216.844H228.628C228.386 216.844 228.225 216.631 228.225 216.418V213.056H229.032C229.274 213.056 229.435 213.269 229.435 213.482V215.908H231.009C231.816 215.908 232.462 215.227 232.462 214.376V212.674C232.462 211.822 231.816 211.142 231.009 211.142Z"/><path fill="#000" d="M239.444 211.142H233.673V218.759H236.699V213.056H237.507C237.749 213.056 237.91 213.269 237.91 213.482V218.759H240.937V212.674C240.896 211.822 240.251 211.142 239.444 211.142Z"/></g><g clip-path="url(#clip3_6928_10119)"><path fill="#000" d="M272.063 205.441C277.317 205.441 281.573 209.697 281.573 214.95C281.573 220.203 277.317 224.459 272.063 224.459C266.81 224.459 262.554 220.203 262.554 214.95C262.516 209.697 266.772 205.441 272.063 205.441Z"/><path fill="#FFF100" d="M266.964 216.407H268.843V213.57H266.964C266.197 213.57 265.545 214.221 265.545 214.988C265.545 215.755 266.158 216.407 266.964 216.407Z"/><path fill="#FFF100" d="M277.968 214.988C277.968 212.803 276.204 211.039 274.019 211.039C271.833 211.039 270.069 212.803 270.069 214.988C270.069 217.174 271.833 218.938 274.019 218.938C276.204 218.938 277.968 217.097 277.968 214.988Z"/><path fill="#000" d="M300.208 212.497V216.485C300.208 217.328 299.672 217.942 298.943 217.942H298.598C297.869 217.942 297.333 217.328 297.333 216.485V212.497H295.952V216.715C295.952 218.248 297.064 219.322 298.56 219.322H298.981C300.515 219.322 301.589 218.21 301.589 216.715V212.497H300.208ZM341.505 216.485V215.219C341.505 214.299 342.042 213.647 342.847 213.647H343.192C344.189 213.647 344.88 214.414 344.88 215.488V216.178C344.88 217.29 344.151 218.057 343.192 218.057H342.847C342.042 218.018 341.505 217.405 341.505 216.485ZM340.24 216.485C340.24 218.133 341.314 219.322 342.809 219.322H343.154C343.768 219.322 344.304 219.015 344.726 218.517V219.207H346.068V212.497H344.726V213.225C344.304 212.727 343.768 212.42 343.154 212.42H342.809C341.275 212.42 340.24 213.57 340.24 215.258V216.485ZM334.296 219.207H339.588V217.827H335.677V210.541H334.296V219.207ZM348.637 216.178V215.488C348.637 214.414 349.327 213.647 350.324 213.647H350.67C351.475 213.647 352.012 214.299 352.012 215.219V216.446C352.012 217.367 351.475 218.018 350.67 218.018H350.324C349.327 218.018 348.637 217.29 348.637 216.178ZM347.41 219.207H348.752V218.479C349.174 218.977 349.711 219.284 350.324 219.284H350.67C352.203 219.284 353.277 218.095 353.277 216.446V215.219C353.277 213.532 352.203 212.382 350.67 212.382H350.324C349.711 212.382 349.174 212.689 348.752 213.187V210.58H347.41V219.207ZM358.147 214.376H359.45C359.22 213.149 358.185 212.382 356.728 212.382C355.079 212.382 354.082 213.11 354.082 214.299C354.082 215.219 354.811 215.948 355.999 216.14L357.073 216.37C357.802 216.523 358.262 216.83 358.262 217.29C358.262 217.827 357.725 218.172 356.881 218.172C356.038 218.172 355.501 217.75 355.348 217.098H353.967C354.159 218.479 355.233 219.322 356.805 219.322C358.53 219.322 359.565 218.44 359.565 217.098C359.565 216.101 358.684 215.373 357.265 215.104L356.268 214.913C355.731 214.759 355.386 214.491 355.386 214.146C355.386 213.724 355.884 213.455 356.651 213.455C357.495 213.494 358.032 213.839 358.147 214.376ZM312.939 214.913L315.508 212.19H313.552L311.29 214.644V210.541H309.909V219.169H311.29V216.638L311.942 215.948L314.204 219.207H315.93L312.939 214.913ZM291.197 217.827H289.51V211.96H291.197C292.501 211.96 293.536 213.264 293.536 214.874C293.536 216.485 292.501 217.827 291.197 217.827ZM291.197 210.541H288.13V219.207H291.197C293.23 219.207 294.917 217.29 294.917 214.874C294.917 212.458 293.268 210.541 291.197 210.541ZM319.956 217.827H318.307V211.96H319.956C321.259 211.96 322.295 213.264 322.295 214.874C322.295 216.485 321.259 217.827 319.956 217.827ZM319.956 210.541H316.927V219.207H319.956C322.026 219.207 323.675 217.29 323.675 214.874C323.675 212.458 322.026 210.541 319.956 210.541ZM328.276 217.827H326.129V215.411H328.276C328.928 215.411 329.465 215.948 329.465 216.6C329.465 217.29 328.928 217.827 328.276 217.827ZM326.129 214.031V211.96H327.855C328.43 211.96 328.89 212.42 328.89 212.995C328.89 213.57 328.43 214.031 327.855 214.031H326.129ZM329.772 214.491C330.079 214.069 330.309 213.532 330.309 212.995C330.309 211.653 329.197 210.541 327.855 210.541H324.749V219.207H328.276C329.695 219.207 330.846 218.057 330.846 216.6C330.846 215.756 330.424 214.951 329.772 214.491ZM305.538 213.762H305.883C306.727 213.762 307.379 214.376 307.379 215.104H308.797C308.797 213.609 307.494 212.382 305.883 212.382H305.538C303.966 212.382 302.701 213.647 302.701 215.219V216.446C302.701 218.018 303.966 219.284 305.538 219.284H305.883C307.532 219.284 308.874 218.057 308.874 216.561H307.455C307.455 217.29 306.727 217.865 305.883 217.865H305.538C304.733 217.865 304.081 217.213 304.081 216.446V215.219C304.081 214.414 304.733 213.762 305.538 213.762Z"/></g></g><defs><linearGradient id="paint0_linear_6928_10119" x1="48" x2="53.885" y1="228.5" y2="187.028" gradientUnits="userSpaceOnUse"><stop stop-color="#EDDD0C"/><stop offset="1" stop-color="#CCBD00"/></linearGradient><linearGradient id="paint1_linear_6928_10119" x1="594" x2="516.484" y1="148" y2="34.074" gradientUnits="userSpaceOnUse"><stop stop-color="#EDDD0C"/><stop offset="1" stop-color="#CCBD00"/></linearGradient><clipPath id="clip0_6928_10119"><rect width="560" height="240" fill="#fff"/></clipPath><clipPath id="clip1_6928_10119"><rect width="560" height="240" fill="#fff"/></clipPath><clipPath id="clip2_6928_10119"><rect width="41" height="14" fill="#fff" transform="translate(199.896 207.95)"/></clipPath><clipPath id="clip3_6928_10119"><rect width="97.011" height="19.019" fill="#fff" transform="translate(262.555 205.441)"/></clipPath></defs></svg>