<svg width="1200" height="515" viewBox="0 0 1200 515" fill="none" xmlns="http://www.w3.org/2000/svg">
<g clip-path="url(#clip0_13087_18908)">
<g clip-path="url(#clip1_13087_18908)">
<rect width="1200" height="515" fill="url(#paint0_linear_13087_18908)"/>
<rect x="1319.8" y="422.196" width="335.608" height="909.608" rx="46.6373" transform="rotate(90 1319.8 422.196)" fill="url(#paint1_linear_13087_18908)" stroke="url(#paint2_linear_13087_18908)" stroke-width="2.39166"/>
<circle cx="426.5" cy="-174.5" r="314.429" fill="url(#paint3_linear_13087_18908)" stroke="url(#paint4_linear_13087_18908)" stroke-width="2.14286"/>
<path d="M1115.3 -255.929H1173.51C1196.58 -255.929 1215.29 -237.22 1215.29 -214.143V-102.395C1215.29 -77.5038 1213.12 -50.435 1208.76 -21.1865C1204.41 6.99 1198.96 34.6239 1192.43 61.7148C1186.38 85.7781 1180.34 107.518 1174.29 126.936C1173.28 130.19 1174.36 133.739 1177.03 135.865C1179.96 138.196 1184.08 138.255 1187.09 136.042C1203.38 124.046 1221.51 111.591 1241.48 98.6797L1241.49 98.6729C1264.36 83.5008 1287.77 69.4125 1311.73 56.4082L1311.74 56.4043L1311.75 56.4004C1336.77 42.3235 1360.7 31.504 1383.52 23.9346L1383.54 23.9268L1488.94 -13.7832C1510.6 -21.5305 1534.44 -10.3227 1542.29 11.2939L1562.09 65.8057C1570 87.5707 1558.7 111.614 1536.89 119.415L1431.88 156.986C1410.12 164.565 1385.63 171.605 1358.41 178.106C1332.28 183.523 1306.15 187.856 1280.02 191.106C1256.29 193.075 1234.8 195.042 1215.54 197.011C1211.54 197.42 1208.03 199.848 1206.23 203.438C1203.72 208.428 1205.07 214.471 1209.37 217.998C1223.86 229.864 1239.58 243.756 1256.52 259.676L1256.54 259.697L1256.56 259.717C1277.24 277.043 1296.83 295.995 1315.33 316.572L1315.35 316.594L1315.37 316.615C1334.96 336.103 1351.26 355.578 1364.3 375.039L1364.31 375.051L1364.32 375.062L1429.2 466.619C1442.65 485.606 1438 511.925 1418.86 525.154L1371.62 557.795C1352.8 570.805 1327.01 566.249 1313.77 547.577L1248.33 455.218H1248.33C1235.27 435.735 1222.21 413.539 1209.15 388.626C1197.17 363.691 1185.73 338.756 1174.83 313.821C1165.92 291.165 1158.36 270.751 1152.16 252.579C1150.9 248.913 1147.47 246.432 1143.58 246.432C1139.7 246.432 1136.27 248.914 1135 252.57C1128.71 270.734 1120.61 291.142 1110.71 313.799L1110.7 313.817L1110.7 313.836C1100.9 338.752 1089.47 363.671 1076.4 388.593L1076.39 388.609L1076.38 388.626C1064.41 413.53 1051.36 435.715 1037.23 455.186L1037.22 455.194L1037.22 455.203L973.299 547.073C960.149 565.974 934.186 570.676 915.243 557.586L868.005 524.943C848.977 511.794 844.25 485.689 857.459 466.702L921.221 375.055L921.224 375.05C935.356 354.496 952.213 334.475 971.797 314.987L971.817 314.967C991.424 294.373 1011.03 275.407 1030.63 258.07L1030.63 258.068C1049.01 241.701 1065.25 227.471 1079.34 215.379C1082.81 212.397 1083.95 207.506 1082.14 203.299C1080.64 199.83 1077.39 197.435 1073.63 197.05C1054.29 195.069 1032.67 193.087 1008.78 191.106C982.655 187.856 955.98 183.523 928.76 178.106C902.622 171.604 878.122 164.561 855.259 156.978L751.714 119.51C729.994 111.651 718.772 87.6609 726.657 65.9512L746.458 11.4385C754.33 -10.2334 778.269 -21.4332 799.95 -13.5879L903.622 23.9258L903.636 23.9307L903.649 23.9346C926.464 31.5022 949.837 42.3189 973.769 56.3906L973.793 56.4043L973.818 56.418C998.863 69.4203 1022.82 83.5052 1045.68 98.6729L1045.7 98.6826L1045.71 98.6924C1066.51 111.506 1084.6 123.865 1099.98 135.769C1103.02 138.122 1107.29 138.133 1110.31 135.728C1112.88 133.68 1114 130.309 1113.16 127.131C1108.04 107.658 1102.44 85.852 1096.38 61.7148C1089.84 34.6239 1084.4 6.98995 1080.04 -21.1865C1075.69 -50.435 1073.51 -77.5038 1073.51 -102.395V-214.143C1073.51 -237.22 1092.22 -255.929 1115.3 -255.929Z" fill="url(#paint5_linear_13087_18908)" stroke="url(#paint6_linear_13087_18908)" stroke-width="2.14286"/>
<path d="M-91.9287 54.7314C-91.9284 27.5627 -66.4107 7.65703 -40.7988 16.2979C24.4704 38.3183 82.0403 69.7803 131.921 110.679C194.771 162.212 243.081 225.453 276.854 300.415L276.856 300.423L276.86 300.43C311.566 374.443 328.929 457.377 328.929 549.25V802.75C328.929 942.445 291.855 1060.51 217.76 1157C153.691 1240.43 67.5275 1300.07 -40.7744 1335.89C-66.4311 1344.38 -91.9286 1324.47 -91.9287 1297.31V1260.76C-91.9287 1241.32 -78.4101 1224.63 -59.793 1218.66C-13.0888 1203.7 28.1541 1180.84 63.9248 1150.07L65.624 1148.6L65.6338 1148.59C109.944 1109.04 143.873 1059.61 167.43 1000.33L167.431 1000.33C191.931 941.031 204.172 875.167 204.172 802.75V549.25C204.172 474.959 191.932 408.156 167.431 348.857C143.317 290.497 109.606 241.688 66.293 202.453L64.2236 200.593C28.141 167.622 -13.2577 143.391 -59.9629 127.901C-78.4739 121.762 -91.9286 105.114 -91.9287 85.7256V54.7314Z" fill="url(#paint7_linear_13087_18908)" stroke="url(#paint8_linear_13087_18908)" stroke-width="2.14286"/>
</g>
<path d="M456.125 204.979C456.125 193.408 449.194 191.841 441.661 191.841H437.382V218.177H441.661C449.194 218.177 456.125 216.55 456.125 204.979ZM427.077 183.162H441.48C455.764 183.162 467.033 188.405 467.033 204.979C467.033 221.612 455.764 226.855 441.48 226.855H427.077V183.162ZM490.115 226.855V222.335C488.127 225.53 485.595 227.639 480.593 227.639C471.975 227.639 469.384 222.757 469.384 213.958V194.432H479.328V211.488C479.328 216.128 479.448 219.925 484.27 219.925C488.548 219.925 490.115 217.574 490.115 211.548V194.432H500.059V226.855H490.115ZM520.079 193.468C526.829 193.468 534.242 196.541 536.17 206.305H526.889C525.985 202.508 523.635 201.182 520.682 201.182C517.126 201.182 513.631 203.593 513.631 210.523C513.631 217.574 517.126 219.925 520.682 219.925C524.358 219.925 526.588 217.996 527.311 214.923H536.592C534.362 224.565 526.588 227.639 520.079 227.639C509.412 227.639 503.506 220.769 503.506 210.463C503.506 200.157 510.256 193.468 520.079 193.468ZM539.527 183.162H549.471V206.787L560.379 194.432H572.131L560.56 206.847L573.096 226.855H561.464L553.81 214.079L549.471 218.719V226.855H539.527V183.162ZM604.935 210.584H615.06C613.432 220.708 605.296 227.639 594.268 227.639C580.647 227.639 572.391 218.961 572.391 204.979C572.391 191.178 580.888 182.439 594.569 182.439C605.477 182.439 613.312 189.551 614.758 199.494H604.633C603.488 193.528 599.089 190.937 594.207 190.937C588.12 190.937 583.299 196.059 583.299 204.979C583.299 214.2 588.06 219.141 594.328 219.141C598.848 219.141 603.609 217.213 604.935 210.584ZM633.554 201.182C629.637 201.182 626.503 203.593 626.503 210.523C626.503 217.333 629.516 219.925 633.554 219.925C637.592 219.925 640.605 217.333 640.605 210.523C640.605 203.593 637.472 201.182 633.554 201.182ZM633.554 193.468C642.534 193.468 650.73 198.771 650.73 210.523C650.73 222.275 642.534 227.639 633.554 227.639C624.575 227.639 616.378 222.275 616.378 210.523C616.378 198.771 624.575 193.468 633.554 193.468ZM664.05 194.432V198.711C665.497 196.3 668.992 193.709 674.115 193.709C682.432 193.709 685.023 198.59 685.023 207.389V226.855H675.079V209.86C675.079 205.22 674.898 201.423 670.077 201.423C665.798 201.423 664.05 204.195 664.05 210.222V226.855H654.107V194.432H664.05ZM700.93 192.383H709.91L711.235 183.162H720.697L719.371 192.383H728.592L729.918 183.162H739.38L738.054 192.383H746.973L745.889 200.64H736.849L735.523 209.74H744.502L743.478 218.057H734.317L733.052 226.855H723.59L724.856 218.057H715.635L714.369 226.855H704.907L706.173 218.057H697.434L698.519 209.74H707.378L708.704 200.64H699.905L700.93 192.383ZM718.166 200.64L716.84 209.74H726.061L727.387 200.64H718.166ZM745.115 191.238V183.162H777.84V191.238C765.666 201.483 760.242 210.403 759.941 226.855H749.334C749.334 210.825 756.867 199.253 767.414 191.238H745.115ZM429.192 277.855L445.644 234.162H456.974L473.487 277.855H462.278L459.626 270.081H442.752L440.16 277.855H429.192ZM451.249 245.071L445.584 261.704H456.854L451.249 245.071ZM484.854 260.981V277.855H474.91V245.432H484.854V249.711C486.301 247.3 489.796 244.709 494.678 244.709C499.921 244.709 502.814 246.577 504.32 250.193C506.791 246.577 510.829 244.709 515.409 244.709C523.726 244.709 526.318 249.59 526.318 258.389V277.855H516.374V260.86C516.374 256.22 516.133 252.423 511.372 252.423C507.273 252.423 505.586 255.195 505.586 260.981V277.855H495.642V260.86C495.642 256.22 495.401 252.423 490.64 252.423C486.542 252.423 484.854 255.195 484.854 260.981ZM560.244 254.954H550.963C550.3 252.544 547.769 251.82 544.635 251.82C541.2 251.82 539.452 252.604 539.452 254.231C539.452 255.738 540.597 256.581 543.43 257.124L549.456 258.209C557.231 259.655 560.967 261.945 560.967 267.67C560.967 274.963 554.277 278.639 545.298 278.639C536.74 278.639 530.533 274.902 529.387 267.309H538.608C539.512 270.443 541.983 271.407 545.418 271.407C548.974 271.407 551.445 270.443 551.445 268.514C551.445 267.068 550.179 266.164 546.383 265.501L540.597 264.537C534.329 263.512 530.05 260.378 530.05 254.593C530.05 248.144 536.86 244.588 544.876 244.588C552.289 244.588 558.978 247.541 560.244 254.954ZM566.145 245.432V236.573H576.089V245.432H583.2V252.483H576.089V267.008C576.089 270.081 577.053 270.684 580.368 270.684H583.2V277.855H576.872C568.857 277.855 566.145 276.289 566.145 268.755V252.483H561.022V245.432H566.145ZM609.506 267.67H618.666C615.773 275.324 608.963 278.639 602.515 278.639C591.968 278.639 584.736 272.251 584.736 261.463C584.736 251.097 592.631 244.468 602.093 244.468C612.881 244.468 619.45 252.604 618.787 264.175H594.74C595.042 268.755 598.597 270.925 602.213 270.925C606.01 270.925 608.361 269.599 609.506 267.67ZM602.093 252.061C598.537 252.061 595.403 253.869 594.861 258.148H608.903C608.722 254.05 605.89 252.061 602.093 252.061ZM642.177 245.251V254.954C641.032 254.773 640.369 254.773 639.465 254.773C634.644 254.773 632.173 256.521 632.173 261.584V277.855H622.229V245.432H631.811V251.579C633.318 247.722 636.03 245.372 640.67 245.191H641.394C641.695 245.191 641.936 245.191 642.177 245.251ZM666.728 234.162H676.672V277.855H666.728V273.516C664.618 277.072 660.279 278.639 656.784 278.639C648.407 278.639 642.501 272.251 642.501 261.644C642.501 251.037 648.407 244.709 656.784 244.709C660.279 244.709 664.618 246.276 666.728 249.832V234.162ZM660.038 252.423C656.06 252.423 652.806 255.617 652.806 261.644C652.806 267.67 656.06 270.925 660.038 270.925C663.955 270.925 667.21 268.333 667.21 261.644C667.21 254.954 663.955 252.423 660.038 252.423ZM701.826 257.606V256.34C701.826 252.483 699.958 251.157 696.342 251.157C693.148 251.157 690.978 252.785 690.556 255.918H681.275C681.758 249.832 687.543 244.408 697.186 244.408C706.527 244.408 711.83 248.204 711.65 258.028L711.529 265.079V268.454C711.529 272.01 711.77 275.806 712.252 277.855H702.489L702.369 273.938C699.958 277.373 696.101 278.639 691.46 278.639C685.313 278.639 680.251 275.023 680.251 269.117C680.251 261.162 689.231 258.57 701.826 257.606ZM702.067 264.235V263.452C695.137 264.115 690.496 264.898 690.496 268.394C690.496 270.503 692.485 271.889 695.076 271.889C699.054 271.889 702.067 270.202 702.067 264.235ZM726.094 260.981V277.855H716.15V245.432H726.094V249.711C727.541 247.3 731.036 244.709 735.918 244.709C741.161 244.709 744.054 246.577 745.56 250.193C748.031 246.577 752.069 244.709 756.649 244.709C764.966 244.709 767.558 249.59 767.558 258.389V277.855H757.614V260.86C757.614 256.22 757.373 252.423 752.612 252.423C748.513 252.423 746.826 255.195 746.826 260.981V277.855H736.882V260.86C736.882 256.22 736.641 252.423 731.88 252.423C727.782 252.423 726.094 255.195 726.094 260.981Z" fill="black"/>
<path d="M483.44 331.43V328.11L493.16 317.71C494.573 316.216 495.573 314.883 496.16 313.71C496.747 312.536 497.04 311.39 497.04 310.27C497.04 308.67 496.573 307.403 495.64 306.47C494.733 305.51 493.493 305.03 491.92 305.03C490.293 305.03 489 305.523 488.04 306.51C487.107 307.47 486.64 308.776 486.64 310.43H483.04C483.12 307.79 483.96 305.696 485.56 304.15C487.16 302.603 489.28 301.83 491.92 301.83C494.613 301.83 496.747 302.59 498.32 304.11C499.92 305.63 500.72 307.696 500.72 310.31C500.72 311.696 500.333 313.163 499.56 314.71C498.813 316.256 497.52 317.99 495.68 319.91L487.8 328.15H501.08V331.43H483.44ZM515.984 331.83C513.291 331.83 511.144 331.056 509.544 329.51C507.971 327.936 507.184 325.843 507.184 323.23V310.43C507.184 307.816 507.971 305.736 509.544 304.19C511.144 302.616 513.291 301.83 515.984 301.83C518.678 301.83 520.811 302.616 522.384 304.19C523.984 305.736 524.784 307.816 524.784 310.43V323.23C524.784 324.963 524.424 326.483 523.704 327.79C522.984 329.07 521.958 330.07 520.624 330.79C519.318 331.483 517.771 331.83 515.984 331.83ZM515.984 328.75C517.584 328.75 518.864 328.243 519.824 327.23C520.811 326.19 521.304 324.856 521.304 323.23V310.43C521.304 308.803 520.811 307.483 519.824 306.47C518.864 305.43 517.584 304.91 515.984 304.91C514.384 304.91 513.091 305.43 512.104 306.47C511.144 307.483 510.664 308.803 510.664 310.43V323.23C510.664 324.856 511.144 326.19 512.104 327.23C513.091 328.243 514.384 328.75 515.984 328.75ZM515.984 319.03C515.264 319.03 514.678 318.83 514.224 318.43C513.798 318.03 513.584 317.456 513.584 316.71C513.584 315.99 513.798 315.443 514.224 315.07C514.678 314.67 515.264 314.47 515.984 314.47C516.704 314.47 517.278 314.67 517.704 315.07C518.158 315.443 518.384 315.99 518.384 316.71C518.384 317.456 518.158 318.03 517.704 318.43C517.278 318.83 516.704 319.03 515.984 319.03ZM531.409 331.43V328.11L541.129 317.71C542.542 316.216 543.542 314.883 544.129 313.71C544.715 312.536 545.009 311.39 545.009 310.27C545.009 308.67 544.542 307.403 543.609 306.47C542.702 305.51 541.462 305.03 539.889 305.03C538.262 305.03 536.969 305.523 536.009 306.51C535.075 307.47 534.609 308.776 534.609 310.43H531.009C531.089 307.79 531.929 305.696 533.529 304.15C535.129 302.603 537.249 301.83 539.889 301.83C542.582 301.83 544.715 302.59 546.289 304.11C547.889 305.63 548.689 307.696 548.689 310.31C548.689 311.696 548.302 313.163 547.529 314.71C546.782 316.256 545.489 317.99 543.649 319.91L535.769 328.15H549.049V331.43H531.409ZM563.993 331.83C562.126 331.83 560.473 331.443 559.033 330.67C557.62 329.87 556.513 328.776 555.713 327.39C554.913 325.976 554.513 324.35 554.513 322.51C554.513 321.23 554.753 319.923 555.233 318.59C555.713 317.23 556.366 315.816 557.193 314.35L563.953 302.23H567.953L560.753 314.75L560.873 314.83C561.22 314.376 561.74 314.03 562.433 313.79C563.126 313.55 563.886 313.43 564.713 313.43C566.446 313.43 567.953 313.816 569.233 314.59C570.54 315.336 571.553 316.376 572.273 317.71C573.02 319.043 573.393 320.59 573.393 322.35C573.393 324.216 572.993 325.87 572.193 327.31C571.393 328.723 570.286 329.83 568.873 330.63C567.486 331.43 565.86 331.83 563.993 331.83ZM563.953 328.63C565.686 328.63 567.086 328.056 568.153 326.91C569.246 325.763 569.793 324.27 569.793 322.43C569.793 320.59 569.246 319.096 568.153 317.95C567.086 316.803 565.686 316.23 563.953 316.23C562.22 316.23 560.806 316.803 559.713 317.95C558.646 319.096 558.113 320.59 558.113 322.43C558.113 324.27 558.646 325.763 559.713 326.91C560.806 328.056 562.22 328.63 563.953 328.63ZM581.538 319.83V316.63H594.338V319.83H581.538ZM611.922 331.83C609.229 331.83 607.082 331.056 605.482 329.51C603.909 327.936 603.122 325.843 603.122 323.23V310.43C603.122 307.816 603.909 305.736 605.482 304.19C607.082 302.616 609.229 301.83 611.922 301.83C614.615 301.83 616.749 302.616 618.322 304.19C619.922 305.736 620.722 307.816 620.722 310.43V323.23C620.722 324.963 620.362 326.483 619.642 327.79C618.922 329.07 617.895 330.07 616.562 330.79C615.255 331.483 613.709 331.83 611.922 331.83ZM611.922 328.75C613.522 328.75 614.802 328.243 615.762 327.23C616.749 326.19 617.242 324.856 617.242 323.23V310.43C617.242 308.803 616.749 307.483 615.762 306.47C614.802 305.43 613.522 304.91 611.922 304.91C610.322 304.91 609.029 305.43 608.042 306.47C607.082 307.483 606.602 308.803 606.602 310.43V323.23C606.602 324.856 607.082 326.19 608.042 327.23C609.029 328.243 610.322 328.75 611.922 328.75ZM611.922 319.03C611.202 319.03 610.615 318.83 610.162 318.43C609.735 318.03 609.522 317.456 609.522 316.71C609.522 315.99 609.735 315.443 610.162 315.07C610.615 314.67 611.202 314.47 611.922 314.47C612.642 314.47 613.215 314.67 613.642 315.07C614.095 315.443 614.322 315.99 614.322 316.71C614.322 317.456 614.095 318.03 613.642 318.43C613.215 318.83 612.642 319.03 611.922 319.03ZM635.946 331.83C634.08 331.83 632.426 331.443 630.986 330.67C629.573 329.87 628.466 328.776 627.666 327.39C626.866 325.976 626.466 324.35 626.466 322.51C626.466 321.23 626.706 319.923 627.186 318.59C627.666 317.23 628.32 315.816 629.146 314.35L635.906 302.23H639.906L632.706 314.75L632.826 314.83C633.173 314.376 633.693 314.03 634.386 313.79C635.08 313.55 635.84 313.43 636.666 313.43C638.4 313.43 639.906 313.816 641.186 314.59C642.493 315.336 643.506 316.376 644.226 317.71C644.973 319.043 645.346 320.59 645.346 322.35C645.346 324.216 644.946 325.87 644.146 327.31C643.346 328.723 642.24 329.83 640.826 330.63C639.44 331.43 637.813 331.83 635.946 331.83ZM635.906 328.63C637.64 328.63 639.04 328.056 640.106 326.91C641.2 325.763 641.746 324.27 641.746 322.43C641.746 320.59 641.2 319.096 640.106 317.95C639.04 316.803 637.64 316.23 635.906 316.23C634.173 316.23 632.76 316.803 631.666 317.95C630.6 319.096 630.066 320.59 630.066 322.43C630.066 324.27 630.6 325.763 631.666 326.91C632.76 328.056 634.173 328.63 635.906 328.63ZM653.491 319.83V316.63H666.291V319.83H653.491ZM675.315 331.43V328.11L685.035 317.71C686.448 316.216 687.448 314.883 688.035 313.71C688.622 312.536 688.915 311.39 688.915 310.27C688.915 308.67 688.448 307.403 687.515 306.47C686.608 305.51 685.368 305.03 683.795 305.03C682.168 305.03 680.875 305.523 679.915 306.51C678.982 307.47 678.515 308.776 678.515 310.43H674.915C674.995 307.79 675.835 305.696 677.435 304.15C679.035 302.603 681.155 301.83 683.795 301.83C686.488 301.83 688.622 302.59 690.195 304.11C691.795 305.63 692.595 307.696 692.595 310.31C692.595 311.696 692.208 313.163 691.435 314.71C690.688 316.256 689.395 317.99 687.555 319.91L679.675 328.15H692.955V331.43H675.315ZM711.859 331.43V325.03H698.659V319.39L709.299 302.23H713.379L702.259 320.19V321.75H711.859V314.63H715.459V331.43H711.859Z" fill="black"/>
</g>
<defs>
<linearGradient id="paint0_linear_13087_18908" x1="589" y1="-26.5" x2="589" y2="566" gradientUnits="userSpaceOnUse">
<stop stop-color="#FDEF00"/>
<stop offset="0.938633" stop-color="#FFFAA3"/>
</linearGradient>
<linearGradient id="paint1_linear_13087_18908" x1="1659" y1="578.944" x2="1043.19" y2="950.042" gradientUnits="userSpaceOnUse">
<stop stop-color="#FDEF00"/>
<stop offset="0.938633" stop-color="#FFFAA3"/>
</linearGradient>
<linearGradient id="paint2_linear_13087_18908" x1="1490" y1="1333" x2="1490" y2="421" gradientUnits="userSpaceOnUse">
<stop stop-color="#BFB531"/>
<stop offset="1" stop-color="#FFEF1B"/>
</linearGradient>
<linearGradient id="paint3_linear_13087_18908" x1="689" y1="-36" x2="296.061" y2="332.301" gradientUnits="userSpaceOnUse">
<stop stop-color="#FDEF00"/>
<stop offset="0.938633" stop-color="#FFFAA3"/>
</linearGradient>
<linearGradient id="paint4_linear_13087_18908" x1="763.426" y1="-58.2269" x2="-5.27304" y2="-153.074" gradientUnits="userSpaceOnUse">
<stop stop-color="#BFB531"/>
<stop offset="1" stop-color="#FFEF1B"/>
</linearGradient>
<linearGradient id="paint5_linear_13087_18908" x1="1216.79" y1="295.664" x2="805.586" y2="602.822" gradientUnits="userSpaceOnUse">
<stop stop-color="#FDEF00"/>
<stop offset="0.938633" stop-color="#FFFAA3"/>
</linearGradient>
<linearGradient id="paint6_linear_13087_18908" x1="862.844" y1="105.705" x2="1144.4" y2="582.754" gradientUnits="userSpaceOnUse">
<stop stop-color="#BFB531"/>
<stop offset="1" stop-color="#FFEF1B"/>
</linearGradient>
<linearGradient id="paint7_linear_13087_18908" x1="270" y1="558.5" x2="232.345" y2="101.471" gradientUnits="userSpaceOnUse">
<stop offset="0.0613673" stop-color="#FFFAA3"/>
<stop offset="1" stop-color="#FDEF00"/>
</linearGradient>
<linearGradient id="paint8_linear_13087_18908" x1="118.5" y1="0" x2="399.953" y2="1051.27" gradientUnits="userSpaceOnUse">
<stop stop-color="#BFB531"/>
<stop offset="1" stop-color="#FFEF1B"/>
</linearGradient>
<clipPath id="clip0_13087_18908">
<rect width="1200" height="514.286" fill="white"/>
</clipPath>
<clipPath id="clip1_13087_18908">
<rect width="1200" height="515" fill="white"/>
</clipPath>
</defs>
</svg>
