<svg width="830" height="508" viewBox="0 0 830 508" fill="none" xmlns="http://www.w3.org/2000/svg">
<g clip-path="url(#clip0_10559_19494)">
<rect width="830" height="507.222" fill="url(#paint0_linear_10559_19494)"/>
<path d="M581.286 -106.631C581.286 -107.107 580.9 -107.493 580.424 -107.493C579.947 -107.493 579.561 -107.107 579.561 -106.631L580.424 -106.631L581.286 -106.631ZM579.814 82.0979C580.151 82.4347 580.697 82.4347 581.033 82.0979L586.522 76.6093C586.859 76.2725 586.859 75.7264 586.522 75.3896C586.185 75.0528 585.639 75.0528 585.302 75.3896L580.424 80.2684L575.545 75.3896C575.208 75.0528 574.662 75.0528 574.325 75.3896C573.988 75.7264 573.988 76.2725 574.325 76.6093L579.814 82.0979ZM580.424 -106.631L579.561 -106.631L579.561 81.4881L580.424 81.4881L581.286 81.4881L581.286 -106.631L580.424 -106.631Z" fill="#F0DF09"/>
<path d="M352.462 563.42L352.462 467.451C352.462 441.985 331.817 421.34 306.351 421.34L165.424 421.34C139.957 421.34 119.313 400.695 119.313 375.229L119.313 338.628C119.313 313.162 98.6682 292.517 73.2017 292.517L-46.6875 292.517" stroke="#F0DF09" stroke-width="1.7249"/>
<path d="M507.222 -139.486L507.222 143.808C507.222 169.275 527.867 189.919 553.333 189.919H718.897C744.364 189.919 765.009 210.564 765.009 236.03V359.089C765.009 384.556 785.653 405.201 811.12 405.201H906.083" stroke="#F0DF09" stroke-width="1.7249"/>
<path d="M664.577 569.695L664.579 1.15191C664.579 -24.3145 685.223 -44.959 710.69 -44.959L720.487 -44.959C745.953 -44.959 766.598 -24.3144 766.598 1.15208L766.598 144.313C766.598 169.779 787.243 190.424 812.709 190.424L1144.81 190.424C1170.28 190.424 1190.92 211.068 1190.92 236.535L1190.92 304.549" stroke="#F0DF09" stroke-width="1.7249"/>
<rect x="651.299" y="106.609" width="25.9814" height="51.9189" rx="12.9907" fill="#D4C50B" stroke="#F0DF09" stroke-width="1.10887"/>
<path d="M401.167 -123.923C401.167 -121.376 399.103 -119.312 396.557 -119.312L360.318 -119.312C337.849 -119.312 319.598 -101.165 319.47 -78.6955L318.495 93.061C318.35 118.425 297.748 138.91 272.384 138.91L149.002 138.91C126.278 138.91 107.97 120.275 108.373 97.5542C108.776 74.8336 90.4689 56.1984 67.7449 56.1983L-7.49243 56.1983" stroke="#F0DF09" stroke-width="1.7249"/>
<path d="M292.806 -188.479L292.806 -78.7672C292.806 -53.3008 272.161 -32.6562 246.695 -32.6561L209.651 -32.6561C184.185 -32.656 163.54 -12.0114 163.54 13.4551L163.54 187.326C163.54 212.793 142.896 233.437 117.429 233.437L-79.6111 233.437C-105.078 233.437 -125.722 212.793 -125.722 187.326L-125.722 26.8554C-125.722 1.38894 -146.367 -19.2557 -171.833 -19.2557L-355.632 -19.2557" stroke="#F0DF09" stroke-width="1.7249"/>
<rect x="199.409" y="142.967" width="8.68974" height="19.0647" rx="4.34487" transform="rotate(-90 199.409 142.967)" fill="#D4C50B" stroke="#F0DF09" stroke-width="1.10887"/>
<rect x="217.853" y="429.432" width="16.7592" height="35.2036" rx="8.37959" transform="rotate(-90 217.853 429.432)" fill="#D4C50B" stroke="#F0DF09" stroke-width="1.10887"/>
<path d="M463.96 406.321C463.623 406.658 463.623 407.204 463.96 407.541L469.448 413.029C469.785 413.366 470.331 413.366 470.668 413.029C471.005 412.692 471.005 412.146 470.668 411.81L465.789 406.931L470.668 402.052C471.005 401.715 471.005 401.169 470.668 400.832C470.331 400.496 469.785 400.496 469.448 400.832L463.96 406.321ZM990.236 253.611L990.236 252.749L668.899 252.749L668.899 253.611L668.899 254.474L990.236 254.474L990.236 253.611ZM622.788 299.722L621.926 299.722L621.926 360.82L622.788 360.82L623.651 360.82L623.651 299.722L622.788 299.722ZM576.677 406.931L576.677 406.068L464.569 406.068L464.569 406.931L464.569 407.793L576.677 407.793L576.677 406.931ZM622.788 360.82L621.926 360.82C621.926 385.81 601.667 406.068 576.677 406.068L576.677 406.931L576.677 407.793C602.62 407.793 623.651 386.762 623.651 360.82L622.788 360.82ZM668.899 253.611L668.899 252.749C642.956 252.749 621.926 273.78 621.926 299.722L622.788 299.722L623.651 299.722C623.651 274.732 643.909 254.474 668.899 254.474L668.899 253.611Z" fill="#F0DF09"/>
<path d="M174.957 327.992H173.961C173.837 327.37 173.349 327.162 172.716 327.162C172.156 327.162 171.596 327.38 171.596 327.878C171.596 328.314 171.886 328.511 172.436 328.625L173.058 328.75C174.023 328.936 175.061 329.299 175.061 330.42C175.061 331.603 174.044 332.184 172.83 332.184C171.378 332.184 170.651 331.271 170.548 330.378H171.554C171.679 331.022 172.073 331.395 172.851 331.395C173.442 331.395 174.096 331.188 174.096 330.534C174.096 330.015 173.629 329.756 172.924 329.631L172.228 329.497C171.347 329.32 170.651 328.884 170.651 327.92C170.651 326.841 171.824 326.374 172.758 326.374C173.94 326.374 174.75 326.996 174.957 327.992ZM179.953 326.374C181.301 326.374 181.696 327.266 181.696 328.501V332.049H180.741V328.833C180.741 327.93 180.679 327.173 179.641 327.173C178.78 327.173 178.303 327.826 178.303 329.019V332.049H177.348V324.527H178.303V327.256C178.593 326.768 179.091 326.374 179.953 326.374ZM185.664 332.184C184.657 332.184 183.848 331.603 183.848 330.596C183.848 329.268 185.259 328.864 187.542 328.615V328.376C187.542 327.411 187.013 327.121 186.286 327.121C185.425 327.121 185.021 327.546 184.958 328.231H183.983C184.076 327.027 185.135 326.353 186.297 326.353C187.843 326.353 188.507 327.038 188.486 328.584L188.475 329.943C188.465 330.876 188.517 331.675 188.548 332.049H187.635L187.625 331.229C187.282 331.81 186.701 332.184 185.664 332.184ZM187.614 329.528V329.372C185.913 329.538 184.875 329.777 184.875 330.576C184.875 331.105 185.259 331.416 185.934 331.416C186.784 331.416 187.614 331.011 187.614 329.528ZM190.472 326.467H192.994V327.463C193.263 326.841 193.803 326.467 194.488 326.467H195.442V327.339H194.498C193.429 327.339 193.014 328.044 193.014 329.268V331.229H194.923V332.049H190.483V331.229H192.06V327.287H190.472V326.467ZM199.67 332.184C197.979 332.184 197.138 330.928 197.138 329.279C197.138 327.484 198.196 326.363 199.67 326.363C201.299 326.363 202.232 327.556 202.16 329.548H198.145C198.145 330.669 198.767 331.406 199.649 331.406C200.479 331.406 200.894 331.011 201.091 330.378H202.077C201.848 331.437 200.977 332.184 199.67 332.184ZM199.67 327.152C198.767 327.152 198.196 327.681 198.155 328.76H201.143C201.153 327.847 200.645 327.152 199.67 327.152ZM208.379 332.941H204.302V332.049H208.379V332.941ZM213.084 332.184C211.393 332.184 210.553 330.928 210.553 329.279C210.553 327.484 211.611 326.363 213.084 326.363C214.713 326.363 215.647 327.556 215.574 329.548H211.559C211.559 330.669 212.182 331.406 213.064 331.406C213.894 331.406 214.309 331.011 214.506 330.378H215.491C215.263 331.437 214.392 332.184 213.084 332.184ZM213.084 327.152C212.182 327.152 211.611 327.681 211.57 328.76H214.558C214.568 327.847 214.06 327.152 213.084 327.152ZM222.126 326.467L220.29 329.175L222.24 332.049H221.161L219.76 329.974L218.36 332.049H217.281L219.221 329.185L217.395 326.467H218.464L219.76 328.386L221.068 326.467H222.126ZM225.212 326.467V327.307C225.524 326.768 226.032 326.374 226.862 326.374C228.148 326.374 229.113 327.442 229.113 329.279C229.113 331.125 228.148 332.184 226.862 332.184C226.032 332.184 225.524 331.789 225.212 331.26V333.864H224.258V326.467H225.212ZM225.171 329.279C225.171 330.752 225.866 331.395 226.665 331.395C227.619 331.395 228.107 330.607 228.107 329.279C228.107 327.951 227.619 327.173 226.665 327.173C225.866 327.173 225.171 327.805 225.171 329.279ZM233.206 332.184C231.515 332.184 230.675 330.928 230.675 329.279C230.675 327.484 231.733 326.363 233.206 326.363C234.835 326.363 235.769 327.556 235.696 329.548H231.681C231.681 330.669 232.303 331.406 233.185 331.406C234.015 331.406 234.43 331.011 234.627 330.378H235.613C235.385 331.437 234.513 332.184 233.206 332.184ZM233.206 327.152C232.303 327.152 231.733 327.681 231.691 328.76H234.679C234.69 327.847 234.181 327.152 233.206 327.152ZM237.423 326.467H239.945V327.463C240.214 326.841 240.754 326.467 241.439 326.467H242.393V327.339H241.449C240.38 327.339 239.965 328.044 239.965 329.268V331.229H241.874V332.049H237.434V331.229H239.011V327.287H237.423V326.467ZM246.206 324.527H247.16V325.658H246.206V324.527ZM244.629 326.467H247.16V331.229H248.748V332.049H244.629V331.229H246.206V327.287H244.629V326.467ZM253.328 332.184C251.637 332.184 250.796 330.928 250.796 329.279C250.796 327.484 251.855 326.363 253.328 326.363C254.957 326.363 255.891 327.556 255.818 329.548H251.803C251.803 330.669 252.425 331.406 253.307 331.406C254.137 331.406 254.552 331.011 254.749 330.378H255.735C255.507 331.437 254.635 332.184 253.328 332.184ZM253.328 327.152C252.425 327.152 251.855 327.681 251.813 328.76H254.801C254.812 327.847 254.303 327.152 253.328 327.152ZM258.79 326.467V327.256C259.07 326.778 259.548 326.374 260.429 326.374C261.778 326.374 262.183 327.266 262.183 328.501V332.049H261.228V328.833C261.228 327.93 261.156 327.183 260.118 327.183C259.257 327.183 258.79 327.826 258.79 329.019V332.049H257.836V326.467H258.79ZM266.815 326.374C268.112 326.374 268.973 327.318 269.056 328.324H268.091C267.967 327.639 267.458 327.162 266.774 327.162C265.944 327.162 265.259 327.878 265.259 329.279C265.259 330.7 265.944 331.406 266.774 331.406C267.531 331.406 268.008 330.856 268.133 330.254H269.118C268.963 331.364 267.967 332.184 266.722 332.184C265.176 332.184 264.252 330.98 264.252 329.279C264.252 327.619 265.217 326.374 266.815 326.374ZM273.45 332.184C271.759 332.184 270.918 330.928 270.918 329.279C270.918 327.484 271.977 326.363 273.45 326.363C275.079 326.363 276.012 327.556 275.94 329.548H271.925C271.925 330.669 272.547 331.406 273.429 331.406C274.259 331.406 274.674 331.011 274.871 330.378H275.857C275.629 331.437 274.757 332.184 273.45 332.184ZM273.45 327.152C272.547 327.152 271.977 327.681 271.935 328.76H274.923C274.933 327.847 274.425 327.152 273.45 327.152ZM282.274 327.992H281.278C281.153 327.37 280.665 327.162 280.033 327.162C279.472 327.162 278.912 327.38 278.912 327.878C278.912 328.314 279.203 328.511 279.752 328.625L280.375 328.75C281.34 328.936 282.377 329.299 282.377 330.42C282.377 331.603 281.361 332.184 280.147 332.184C278.694 332.184 277.968 331.271 277.864 330.378H278.871C278.995 331.022 279.389 331.395 280.167 331.395C280.759 331.395 281.412 331.188 281.412 330.534C281.412 330.015 280.946 329.756 280.24 329.631L279.545 329.497C278.663 329.32 277.968 328.884 277.968 327.92C277.968 326.841 279.14 326.374 280.074 326.374C281.257 326.374 282.066 326.996 282.274 327.992Z" fill="#F3E223"/>
<path d="M62.0402 183.312V186.093C62.3618 185.553 62.8598 185.159 63.7002 185.159C64.9763 185.159 65.9412 186.227 65.9412 188.064C65.9412 189.911 64.9763 190.969 63.7002 190.969C62.8598 190.969 62.3618 190.575 62.0402 190.045L62.0298 190.834H61.0857V183.312H62.0402ZM61.9987 188.064C61.9987 189.537 62.7042 190.18 63.4927 190.18C64.4576 190.18 64.9348 189.392 64.9348 188.064C64.9348 186.736 64.4576 185.958 63.4927 185.958C62.7042 185.958 61.9987 186.591 61.9987 188.064ZM68.4259 188.064C68.4259 189.547 69.1521 190.17 70.0029 190.17C70.8536 190.17 71.5799 189.547 71.5799 188.064C71.5799 186.58 70.8536 185.958 70.0029 185.958C69.1521 185.958 68.4259 186.58 68.4259 188.064ZM67.4195 188.064C67.4195 186.041 68.7267 185.159 70.0029 185.159C71.279 185.159 72.5862 186.041 72.5862 188.064C72.5862 190.087 71.279 190.969 70.0029 190.969C68.7267 190.969 67.4195 190.087 67.4195 188.064ZM74.2513 185.252H76.7724V186.248C77.0421 185.626 77.5816 185.252 78.2664 185.252H79.2209V186.124H78.2768C77.2081 186.124 76.7931 186.829 76.7931 188.053V190.014H78.7021V190.834H74.2616V190.014H75.8386V186.072H74.2513V185.252ZM80.9585 185.252H83.4797V186.248C83.7494 185.626 84.2889 185.252 84.9737 185.252H85.9282V186.124H84.984C83.9154 186.124 83.5004 186.829 83.5004 188.053V190.014H85.4094V190.834H80.9689V190.014H82.5459V186.072H80.9585V185.252ZM90.1558 190.969C88.4647 190.969 87.6243 189.713 87.6243 188.064C87.6243 186.269 88.6826 185.148 90.1558 185.148C91.7847 185.148 92.7184 186.342 92.6458 188.334H88.6307C88.6307 189.454 89.2532 190.191 90.1351 190.191C90.9651 190.191 91.3801 189.796 91.5772 189.164H92.5628C92.3346 190.222 91.4631 190.969 90.1558 190.969ZM90.1558 185.937C89.2532 185.937 88.6826 186.466 88.6411 187.545H91.6291C91.6394 186.632 91.1311 185.937 90.1558 185.937ZM94.8088 183.312H97.3403V190.014H98.9277V190.834H94.8088V190.014H96.3858V184.121H94.8088V183.312Z" fill="#F3E223"/>
<path d="M545.626 90.5133H549.506V95.6489C549.506 97.2882 548.79 98.17 547.317 98.17C545.968 98.17 545.076 97.2467 545.076 95.7112H546.062C546.062 96.759 546.456 97.2674 547.317 97.2674C548.043 97.2674 548.52 96.9977 548.52 95.6385V91.447H545.626V90.5133ZM554.169 90.3784C556.047 90.3784 556.981 91.9969 556.981 94.269C556.981 96.5308 556.047 98.17 554.169 98.17C552.292 98.17 551.358 96.5308 551.358 94.269C551.358 91.9969 552.292 90.3784 554.169 90.3784ZM554.169 91.2914C552.935 91.2914 552.375 92.3704 552.375 94.269C552.375 96.1677 552.935 97.257 554.169 97.257C555.414 97.257 555.964 96.1677 555.964 94.269C555.964 92.3704 555.414 91.2914 554.169 91.2914ZM558.48 91.447V90.5133H563.263V91.447H561.364V97.1014H563.263V98.0352H558.48V97.1014H560.379V91.447H558.48ZM570.012 98.0352H568.539L566.132 91.613V98.0352H565.146V90.5133H566.619L569.026 96.9147V90.5133H570.012V98.0352ZM582.659 95.7008H583.644C583.385 97.3089 582.389 98.17 581.03 98.17C579.193 98.17 578.332 96.5412 578.332 94.2587C578.332 91.9243 579.307 90.368 581.102 90.368C582.399 90.368 583.374 91.3744 583.623 92.8995H582.617C582.493 92.0384 582.026 91.2914 581.071 91.2914C579.982 91.2914 579.349 92.3393 579.349 94.2587C579.349 96.1158 579.94 97.257 581.092 97.257C582.046 97.257 582.524 96.6034 582.659 95.7008ZM587.706 90.3784C589.584 90.3784 590.517 91.9969 590.517 94.269C590.517 96.5308 589.584 98.17 587.706 98.17C585.828 98.17 584.894 96.5308 584.894 94.269C584.894 91.9969 585.828 90.3784 587.706 90.3784ZM587.706 91.2914C586.471 91.2914 585.911 92.3704 585.911 94.269C585.911 96.1677 586.471 97.257 587.706 97.257C588.951 97.257 589.501 96.1677 589.501 94.269C589.501 92.3704 588.951 91.2914 587.706 91.2914ZM594.911 95.4414H593.915L592.815 91.4782V98.0352H591.83V90.5133H593.376L594.413 94.3624L595.451 90.5133H596.997V98.0352H596.011V91.4782L594.911 95.4414ZM601.618 95.4414H600.622L599.523 91.4782V98.0352H598.537V90.5133H600.083L601.12 94.3624L602.158 90.5133H603.704V98.0352H602.718V91.4782L601.618 95.4414ZM605.296 90.5133H606.282V95.0887C606.282 96.5619 606.541 97.257 607.817 97.257C609.114 97.257 609.374 96.4582 609.374 94.9745V90.5133H610.359V94.8915C610.359 97.091 609.778 98.17 607.817 98.17C605.939 98.17 605.296 97.3193 605.296 94.9745V90.5133ZM616.963 98.0352H615.489L613.082 91.613V98.0352H612.097V90.5133H613.57L615.977 96.9147V90.5133H616.963V98.0352ZM618.846 91.447V90.5133H623.628V91.447H621.73V97.1014H623.628V98.0352H618.846V97.1014H620.744V91.447H618.846ZM627.452 98.0352V91.447H625.19V90.5133H630.699V91.447H628.437V98.0352H627.452ZM634.657 94.1964L636.587 90.5133H637.738L635.144 95.2132V98.0352H634.159V95.2132L631.565 90.5133H632.717L634.657 94.1964Z" fill="#F3E223"/>
<path d="M412.054 102.098C412.054 100.002 412.852 98.3319 413.475 97.4293H414.263C413.579 98.5394 413.018 100.148 413.018 102.098C413.018 104.049 413.579 105.657 414.263 106.767H413.475C412.852 105.864 412.054 104.194 412.054 102.098ZM420.981 102.098C420.981 104.194 420.172 105.864 419.549 106.767H418.771C419.446 105.657 420.006 104.049 420.006 102.098C420.006 100.148 419.446 98.5394 418.771 97.4293H419.549C420.172 98.3319 420.981 100.002 420.981 102.098ZM427.17 100.563H425.976V99.3694H427.17V100.563ZM425.976 104.951V103.758H427.17V105.034L426.537 106.393H425.935L426.485 104.951H425.976Z" fill="#F3E223"/>
<path d="M535.064 444.992H537.596V451.694H539.183V452.514H535.064V451.694H536.641V445.801H535.064V444.992ZM543.411 444.992H544.365V446.123H543.411V444.992ZM541.834 446.932H544.365V451.694H545.952V452.514H541.834V451.694H543.411V447.752H541.834V446.932ZM549.101 446.932L550.543 451.206L551.975 446.932H552.971L550.958 452.514H550.045L548.033 446.932H549.101ZM557.24 452.649C555.549 452.649 554.709 451.393 554.709 449.744C554.709 447.949 555.767 446.828 557.24 446.828C558.869 446.828 559.803 448.021 559.73 450.013H555.715C555.715 451.134 556.338 451.87 557.219 451.87C558.049 451.87 558.464 451.476 558.662 450.843H559.647C559.419 451.902 558.547 452.649 557.24 452.649ZM557.24 447.617C556.338 447.617 555.767 448.146 555.725 449.225H558.713C558.724 448.312 558.215 447.617 557.24 447.617ZM565.95 453.406H561.872V452.514H565.95V453.406ZM572.771 448.457H571.775C571.651 447.835 571.163 447.627 570.53 447.627C569.97 447.627 569.41 447.845 569.41 448.343C569.41 448.779 569.7 448.976 570.25 449.09L570.873 449.214C571.837 449.401 572.875 449.764 572.875 450.885C572.875 452.068 571.858 452.649 570.644 452.649C569.192 452.649 568.466 451.736 568.362 450.843H569.368C569.493 451.487 569.887 451.86 570.665 451.86C571.256 451.86 571.91 451.653 571.91 450.999C571.91 450.48 571.443 450.221 570.738 450.096L570.043 449.961C569.161 449.785 568.466 449.349 568.466 448.384C568.466 447.305 569.638 446.839 570.572 446.839C571.754 446.839 572.564 447.461 572.771 448.457ZM576.024 446.932V445.531H576.978V446.932H579.261V447.752H576.978V450.978C576.978 451.549 577.009 451.694 577.538 451.694H579.261V452.514H577.331C576.314 452.514 576.024 452.275 576.024 451.113V447.752H574.436V446.932H576.024ZM581.579 446.932H584.1V447.928C584.37 447.305 584.91 446.932 585.594 446.932H586.549V447.803H585.605C584.536 447.803 584.121 448.509 584.121 449.733V451.694H586.03V452.514H581.59V451.694H583.167V447.752H581.579V446.932ZM590.777 452.649C589.085 452.649 588.245 451.393 588.245 449.744C588.245 447.949 589.303 446.828 590.777 446.828C592.405 446.828 593.339 448.021 593.267 450.013H589.251C589.251 451.134 589.874 451.87 590.756 451.87C591.586 451.87 592.001 451.476 592.198 450.843H593.184C592.955 451.902 592.084 452.649 590.777 452.649ZM590.777 447.617C589.874 447.617 589.303 448.146 589.262 449.225H592.25C592.26 448.312 591.752 447.617 590.777 447.617ZM596.892 452.649C595.886 452.649 595.077 452.068 595.077 451.061C595.077 449.733 596.488 449.329 598.77 449.08V448.841C598.77 447.876 598.241 447.586 597.515 447.586C596.654 447.586 596.249 448.011 596.187 448.696H595.212C595.305 447.492 596.363 446.818 597.525 446.818C599.071 446.818 599.735 447.503 599.714 449.048L599.704 450.408C599.694 451.341 599.746 452.14 599.777 452.514H598.864L598.853 451.694C598.511 452.275 597.93 452.649 596.892 452.649ZM598.843 449.993V449.837C597.141 450.003 596.104 450.242 596.104 451.04C596.104 451.57 596.488 451.881 597.162 451.881C598.013 451.881 598.843 451.476 598.843 449.993ZM604.44 447.544C604.679 447.108 605.042 446.839 605.55 446.839C606.131 446.839 606.702 447.108 606.702 448.582V452.514H605.747V449.069C605.747 448.26 605.747 447.637 605.27 447.637C604.793 447.637 604.648 448.198 604.648 449.349V452.514H603.693V449.069C603.693 448.26 603.693 447.637 603.226 447.637C602.739 447.637 602.593 448.208 602.593 449.37V452.514H601.639V446.932H602.552V447.523C602.739 447.16 603.039 446.839 603.569 446.839C604.077 446.839 604.316 447.171 604.44 447.544Z" fill="#F3E223"/>
<g filter="url(#filter0_f_10559_19494)">
<path d="M270.698 288.201L283.906 252.733H290.462L303.769 288.201H296.969L294.18 280.325H279.797L277.057 288.201H270.698ZM286.94 259.924L281.607 275.139H292.321L286.94 259.924ZM312.858 274.209V288.201H307.036V261.881H312.858V265.55C314.374 262.811 316.967 261.294 320.489 261.294C324.599 261.294 326.947 263.006 328.17 265.942C330.469 262.615 333.454 261.294 336.731 261.294C342.993 261.294 345.342 265.404 345.342 271.666V288.201H339.52V273.084C339.52 269.513 339.178 266.04 334.872 266.04C330.567 266.04 329.1 269.464 329.1 274.209V288.201H323.278V273.084C323.278 269.513 322.935 266.04 318.63 266.04C314.325 266.04 312.858 269.464 312.858 274.209ZM371.917 269.073H366.438C365.802 266.676 363.601 265.746 360.665 265.746C358.121 265.746 355.773 266.871 355.773 268.632C355.773 270.394 356.996 271.323 359.296 271.763L363.014 272.497C368.346 273.525 372.407 275.188 372.407 280.325C372.407 285.804 367.221 288.837 361.252 288.837C354.795 288.837 350.49 285.119 349.854 280.178H355.529C356.067 282.918 357.975 284.434 361.448 284.434C364.53 284.434 366.732 283.162 366.732 281.01C366.732 278.857 364.775 277.928 362.182 277.389L358.219 276.607C353.767 275.677 350.294 273.769 350.294 268.926C350.294 264.278 355.333 261.294 361.008 261.294C366.145 261.294 370.841 263.789 371.917 269.073ZM378.336 261.881V254.934H384.158V261.881H389.441V266.088H384.158V280.423C384.158 283.113 384.794 283.749 387.289 283.749H389.393V288.201H385.087C379.461 288.201 378.336 286.685 378.336 281.303V266.088H374.422V261.881H378.336ZM417.906 276.705H398.289C398.68 281.597 402.105 283.994 405.431 283.994C408.513 283.994 410.862 282.82 411.889 280.325H417.613C416.439 284.532 412.427 288.837 405.676 288.837C397.212 288.837 392.369 282.428 392.369 274.845C392.369 266.92 397.799 261.294 405.285 261.294C413.357 261.294 418.445 267.899 417.906 276.705ZM405.285 265.844C402.545 265.844 398.827 267.507 398.289 272.448H411.987C411.84 268.339 408.709 265.844 405.285 265.844ZM437.083 261.93V267.801C436.105 267.703 435.175 267.654 434.294 267.654C430.625 267.654 428.522 269.122 428.522 274.405V288.201H422.7V261.881H428.424V266.578C429.843 263.642 432.387 261.881 435.566 261.832C436.007 261.832 436.643 261.881 437.083 261.93ZM457.651 265.404V252.733H463.473V288.201H457.651V284.728C456.085 287.321 453.346 288.837 449.823 288.837C443.561 288.837 438.376 283.505 438.376 275.041C438.376 266.627 443.561 261.294 449.823 261.294C453.346 261.294 456.085 262.811 457.651 265.404ZM457.895 275.041C457.895 268.975 454.862 266.04 451.095 266.04C447.182 266.04 444.442 269.562 444.442 275.041C444.442 280.667 447.182 284.092 451.095 284.092C454.862 284.092 457.895 281.107 457.895 275.041ZM486.336 277.83V275.824C478.02 276.607 474.644 277.83 474.644 280.814C474.644 283.113 476.552 284.483 479.487 284.483C483.792 284.483 486.336 282.331 486.336 277.83ZM478.215 288.837C472.491 288.837 468.48 285.755 468.48 280.961C468.48 274.356 476.601 272.791 486.19 271.763V271.274C486.19 266.773 483.646 265.404 480.71 265.404C477.775 265.404 475.574 266.969 475.427 270.149H469.703C470.094 264.816 474.546 261.098 480.906 261.098C487.217 261.098 492.158 263.985 492.011 272.399C492.011 273.671 491.913 276.802 491.913 279.2C491.913 282.526 492.158 286 492.696 288.201H487.364C487.168 287.076 487.021 286.44 486.874 284.63C485.162 287.516 482.129 288.837 478.215 288.837ZM503.72 274.209V288.201H497.898V261.881H503.72V265.55C505.237 262.811 507.83 261.294 511.352 261.294C515.461 261.294 517.81 263.006 519.033 265.942C521.332 262.615 524.316 261.294 527.594 261.294C533.856 261.294 536.204 265.404 536.204 271.666V288.201H530.383V273.084C530.383 269.513 530.04 266.04 525.735 266.04C521.43 266.04 519.962 269.464 519.962 274.209V288.201H514.14V273.084C514.14 269.513 513.798 266.04 509.493 266.04C505.188 266.04 503.72 269.464 503.72 274.209Z" fill="#665D00"/>
</g>
<path d="M270.698 288.201L283.906 252.733H290.462L303.769 288.201H296.969L294.18 280.325H279.797L277.057 288.201H270.698ZM286.94 259.924L281.607 275.139H292.321L286.94 259.924ZM312.858 274.209V288.201H307.036V261.881H312.858V265.55C314.374 262.811 316.967 261.294 320.489 261.294C324.599 261.294 326.947 263.006 328.17 265.942C330.469 262.615 333.454 261.294 336.731 261.294C342.993 261.294 345.342 265.404 345.342 271.666V288.201H339.52V273.084C339.52 269.513 339.178 266.04 334.872 266.04C330.567 266.04 329.1 269.464 329.1 274.209V288.201H323.278V273.084C323.278 269.513 322.935 266.04 318.63 266.04C314.325 266.04 312.858 269.464 312.858 274.209ZM371.917 269.073H366.438C365.802 266.676 363.601 265.746 360.665 265.746C358.121 265.746 355.773 266.871 355.773 268.632C355.773 270.394 356.996 271.323 359.296 271.763L363.014 272.497C368.346 273.525 372.407 275.188 372.407 280.325C372.407 285.804 367.221 288.837 361.252 288.837C354.795 288.837 350.49 285.119 349.854 280.178H355.529C356.067 282.918 357.975 284.434 361.448 284.434C364.53 284.434 366.732 283.162 366.732 281.01C366.732 278.857 364.775 277.928 362.182 277.389L358.219 276.607C353.767 275.677 350.294 273.769 350.294 268.926C350.294 264.278 355.333 261.294 361.008 261.294C366.145 261.294 370.841 263.789 371.917 269.073ZM378.336 261.881V254.934H384.158V261.881H389.441V266.088H384.158V280.423C384.158 283.113 384.794 283.749 387.289 283.749H389.393V288.201H385.087C379.461 288.201 378.336 286.685 378.336 281.303V266.088H374.422V261.881H378.336ZM417.906 276.705H398.289C398.68 281.597 402.105 283.994 405.431 283.994C408.513 283.994 410.862 282.82 411.889 280.325H417.613C416.439 284.532 412.427 288.837 405.676 288.837C397.212 288.837 392.369 282.428 392.369 274.845C392.369 266.92 397.799 261.294 405.285 261.294C413.357 261.294 418.445 267.899 417.906 276.705ZM405.285 265.844C402.545 265.844 398.827 267.507 398.289 272.448H411.987C411.84 268.339 408.709 265.844 405.285 265.844ZM437.083 261.93V267.801C436.105 267.703 435.175 267.654 434.294 267.654C430.625 267.654 428.522 269.122 428.522 274.405V288.201H422.7V261.881H428.424V266.578C429.843 263.642 432.387 261.881 435.566 261.832C436.007 261.832 436.643 261.881 437.083 261.93ZM457.651 265.404V252.733H463.473V288.201H457.651V284.728C456.085 287.321 453.346 288.837 449.823 288.837C443.561 288.837 438.376 283.505 438.376 275.041C438.376 266.627 443.561 261.294 449.823 261.294C453.346 261.294 456.085 262.811 457.651 265.404ZM457.895 275.041C457.895 268.975 454.862 266.04 451.095 266.04C447.182 266.04 444.442 269.562 444.442 275.041C444.442 280.667 447.182 284.092 451.095 284.092C454.862 284.092 457.895 281.107 457.895 275.041ZM486.336 277.83V275.824C478.02 276.607 474.644 277.83 474.644 280.814C474.644 283.113 476.552 284.483 479.487 284.483C483.792 284.483 486.336 282.331 486.336 277.83ZM478.215 288.837C472.491 288.837 468.48 285.755 468.48 280.961C468.48 274.356 476.601 272.791 486.19 271.763V271.274C486.19 266.773 483.646 265.404 480.71 265.404C477.775 265.404 475.574 266.969 475.427 270.149H469.703C470.094 264.816 474.546 261.098 480.906 261.098C487.217 261.098 492.158 263.985 492.011 272.399C492.011 273.671 491.913 276.802 491.913 279.2C491.913 282.526 492.158 286 492.696 288.201H487.364C487.168 287.076 487.021 286.44 486.874 284.63C485.162 287.516 482.129 288.837 478.215 288.837ZM503.72 274.209V288.201H497.898V261.881H503.72V265.55C505.237 262.811 507.83 261.294 511.352 261.294C515.461 261.294 517.81 263.006 519.033 265.942C521.332 262.615 524.316 261.294 527.594 261.294C533.856 261.294 536.204 265.404 536.204 271.666V288.201H530.383V273.084C530.383 269.513 530.04 266.04 525.735 266.04C521.43 266.04 519.962 269.464 519.962 274.209V288.201H514.14V273.084C514.14 269.513 513.798 266.04 509.493 266.04C505.188 266.04 503.72 269.464 503.72 274.209Z" fill="#665D00"/>
<g filter="url(#filter1_f_10559_19494)">
<path d="M269.85 231.081C269.85 219.878 263.001 218.361 256.2 218.361H253.02V243.85H256.2C263.001 243.85 269.85 242.284 269.85 231.081ZM246.807 213.371H256.494C267.697 213.371 276.307 217.236 276.307 231.081C276.307 244.926 267.697 248.84 256.494 248.84H246.807V213.371ZM297.823 248.84V245.22C296.306 247.959 293.616 249.476 290.044 249.476C283.782 249.476 281.239 245.366 281.239 239.104V222.52H287.06V237.686C287.06 241.257 287.549 244.73 291.903 244.73C296.258 244.73 297.823 241.306 297.823 236.56V222.52H303.645V248.84H297.823ZM321.304 221.933C327.076 221.933 332.067 225.7 333.094 231.521H327.419C326.881 228.733 324.484 226.776 321.304 226.776C317.635 226.776 314.406 229.467 314.406 235.68C314.406 241.942 317.732 244.633 321.157 244.633C324.043 244.633 326.832 243.361 327.615 239.838H333.29C332.115 246.002 326.685 249.476 321.059 249.476C313.427 249.476 308.388 243.556 308.388 235.729C308.388 227.901 313.427 221.933 321.304 221.933ZM337.813 213.371H343.634V233.087L353.37 222.52H360.366L350.288 233.332L361.491 248.84H354.691L346.423 237.441L343.634 240.425V248.84H337.813V213.371ZM388.601 237.05H394.57C393.053 245.024 387.476 249.476 379.257 249.476C368.886 249.476 362.868 242.138 362.868 230.983C362.868 219.829 369.228 212.735 379.551 212.735C387.427 212.735 393.053 217.187 394.472 225.162H388.503C387.378 220.318 384.003 217.823 379.355 217.823C373.729 217.823 369.277 222.422 369.277 230.983C369.277 239.594 373.631 244.388 379.306 244.388C384.149 244.388 387.476 241.942 388.601 237.05ZM404.463 235.729C404.463 241.795 407.692 244.73 411.41 244.73C415.128 244.73 418.357 241.795 418.357 235.729C418.357 229.662 415.128 226.678 411.41 226.678C407.692 226.678 404.463 229.662 404.463 235.729ZM411.41 221.933C417.819 221.933 424.375 226.238 424.375 235.729C424.375 245.269 417.819 249.476 411.41 249.476C405.002 249.476 398.446 245.269 398.446 235.729C398.446 226.238 405.002 221.933 411.41 221.933ZM434.981 222.52V226.189C436.497 223.449 439.237 221.933 442.955 221.933C449.315 221.933 451.908 226.042 451.908 232.304V248.84H446.086V233.723C446.086 230.152 445.597 226.678 441.096 226.678C436.595 226.678 434.981 230.103 434.981 234.848V248.84H429.159V222.52H434.981ZM468.9 221.933H475.798L476.972 213.371H482.06L480.886 221.933H487.833L489.007 213.371H494.144L492.97 221.933H499.623L499.036 226.531H492.334L491.209 234.604H497.862L497.324 239.153H490.573L489.252 248.84H484.115L485.436 239.153H478.489L477.168 248.84H472.08L473.401 239.153H466.65L467.237 234.604H474.037L475.162 226.531H468.411L468.9 221.933ZM480.25 226.531L479.125 234.604H486.072L487.197 226.531H480.25ZM500.169 218.508V213.371H525.657V218.508C516.606 227.167 511.763 235.778 510.98 248.84H504.376C505.012 236.316 511.225 226.091 519.493 218.508H500.169Z" fill="#665D00"/>
</g>
<path d="M269.85 231.081C269.85 219.878 263.001 218.361 256.2 218.361H253.02V243.85H256.2C263.001 243.85 269.85 242.284 269.85 231.081ZM246.807 213.371H256.494C267.697 213.371 276.307 217.236 276.307 231.081C276.307 244.926 267.697 248.84 256.494 248.84H246.807V213.371ZM297.823 248.84V245.22C296.306 247.959 293.616 249.476 290.044 249.476C283.782 249.476 281.239 245.366 281.239 239.104V222.52H287.06V237.686C287.06 241.257 287.549 244.73 291.903 244.73C296.258 244.73 297.823 241.306 297.823 236.56V222.52H303.645V248.84H297.823ZM321.304 221.933C327.076 221.933 332.067 225.7 333.094 231.521H327.419C326.881 228.733 324.484 226.776 321.304 226.776C317.635 226.776 314.406 229.467 314.406 235.68C314.406 241.942 317.732 244.633 321.157 244.633C324.043 244.633 326.832 243.361 327.615 239.838H333.29C332.115 246.002 326.685 249.476 321.059 249.476C313.427 249.476 308.388 243.556 308.388 235.729C308.388 227.901 313.427 221.933 321.304 221.933ZM337.813 213.371H343.634V233.087L353.37 222.52H360.366L350.288 233.332L361.491 248.84H354.691L346.423 237.441L343.634 240.425V248.84H337.813V213.371ZM388.601 237.05H394.57C393.053 245.024 387.476 249.476 379.257 249.476C368.886 249.476 362.868 242.138 362.868 230.983C362.868 219.829 369.228 212.735 379.551 212.735C387.427 212.735 393.053 217.187 394.472 225.162H388.503C387.378 220.318 384.003 217.823 379.355 217.823C373.729 217.823 369.277 222.422 369.277 230.983C369.277 239.594 373.631 244.388 379.306 244.388C384.149 244.388 387.476 241.942 388.601 237.05ZM404.463 235.729C404.463 241.795 407.692 244.73 411.41 244.73C415.128 244.73 418.357 241.795 418.357 235.729C418.357 229.662 415.128 226.678 411.41 226.678C407.692 226.678 404.463 229.662 404.463 235.729ZM411.41 221.933C417.819 221.933 424.375 226.238 424.375 235.729C424.375 245.269 417.819 249.476 411.41 249.476C405.002 249.476 398.446 245.269 398.446 235.729C398.446 226.238 405.002 221.933 411.41 221.933ZM434.981 222.52V226.189C436.497 223.449 439.237 221.933 442.955 221.933C449.315 221.933 451.908 226.042 451.908 232.304V248.84H446.086V233.723C446.086 230.152 445.597 226.678 441.096 226.678C436.595 226.678 434.981 230.103 434.981 234.848V248.84H429.159V222.52H434.981ZM468.9 221.933H475.798L476.972 213.371H482.06L480.886 221.933H487.833L489.007 213.371H494.144L492.97 221.933H499.623L499.036 226.531H492.334L491.209 234.604H497.862L497.324 239.153H490.573L489.252 248.84H484.115L485.436 239.153H478.489L477.168 248.84H472.08L473.401 239.153H466.65L467.237 234.604H474.037L475.162 226.531H468.411L468.9 221.933ZM480.25 226.531L479.125 234.604H486.072L487.197 226.531H480.25ZM500.169 218.508V213.371H525.657V218.508C516.606 227.167 511.763 235.778 510.98 248.84H504.376C505.012 236.316 511.225 226.091 519.493 218.508H500.169Z" fill="#665D00"/>
<path d="M376.277 307.84V299.526H378.43C378.969 299.526 379.432 299.628 379.819 299.833C380.214 300.038 380.518 300.327 380.73 300.699C380.95 301.071 381.061 301.511 381.061 302.02V305.334C381.061 305.843 380.95 306.287 380.73 306.667C380.518 307.039 380.214 307.327 379.819 307.532C379.432 307.737 378.969 307.84 378.43 307.84H376.277ZM377.302 306.929H378.43C378.931 306.929 379.322 306.788 379.603 306.507C379.891 306.226 380.035 305.835 380.035 305.334V302.02C380.035 301.526 379.891 301.139 379.603 300.858C379.322 300.577 378.931 300.437 378.43 300.437H377.302V306.929ZM385.435 307.954C384.714 307.954 384.137 307.741 383.704 307.316C383.271 306.883 383.055 306.298 383.055 305.562V301.576H384.08V305.562C384.08 306.033 384.201 306.401 384.444 306.667C384.687 306.925 385.018 307.054 385.435 307.054C385.861 307.054 386.195 306.925 386.438 306.667C386.688 306.401 386.813 306.033 386.813 305.562V301.576H387.838V305.562C387.838 306.298 387.618 306.883 387.178 307.316C386.738 307.741 386.157 307.954 385.435 307.954ZM392.293 307.954C391.792 307.954 391.351 307.859 390.972 307.669C390.6 307.479 390.311 307.206 390.106 306.849C389.901 306.484 389.799 306.055 389.799 305.562V303.854C389.799 303.352 389.901 302.923 390.106 302.567C390.311 302.21 390.6 301.936 390.972 301.746C391.351 301.557 391.792 301.462 392.293 301.462C393.014 301.462 393.595 301.655 394.036 302.043C394.476 302.43 394.708 302.958 394.73 303.626H393.705C393.683 303.223 393.546 302.916 393.295 302.703C393.052 302.483 392.718 302.373 392.293 302.373C391.845 302.373 391.488 302.502 391.222 302.76C390.957 303.011 390.824 303.371 390.824 303.842V305.562C390.824 306.033 390.957 306.397 391.222 306.655C391.488 306.914 391.845 307.043 392.293 307.043C392.718 307.043 393.052 306.932 393.295 306.712C393.546 306.492 393.683 306.185 393.705 305.79H394.73C394.708 306.458 394.476 306.986 394.036 307.373C393.595 307.76 393.014 307.954 392.293 307.954ZM396.713 307.84V299.526H397.738V304.161H398.946L400.768 301.576H401.941L399.834 304.56L401.975 307.84H400.779L398.957 305.049H397.738V307.84H396.713ZM403.48 307.84V299.526H405.633C406.172 299.526 406.635 299.628 407.022 299.833C407.417 300.038 407.721 300.327 407.933 300.699C408.153 301.071 408.263 301.511 408.263 302.02V305.334C408.263 305.843 408.153 306.287 407.933 306.667C407.721 307.039 407.417 307.327 407.022 307.532C406.635 307.737 406.172 307.84 405.633 307.84H403.48ZM404.505 306.929H405.633C406.134 306.929 406.525 306.788 406.806 306.507C407.094 306.226 407.238 305.835 407.238 305.334V302.02C407.238 301.526 407.094 301.139 406.806 300.858C406.525 300.577 406.134 300.437 405.633 300.437H404.505V306.929ZM410.292 307.84V299.526H412.65C413.409 299.526 414.001 299.715 414.426 300.095C414.859 300.475 415.076 301.002 415.076 301.678C415.076 302.058 414.996 302.388 414.836 302.669C414.677 302.95 414.449 303.166 414.153 303.318C413.865 303.47 413.515 303.542 413.105 303.535V303.364C413.546 303.356 413.925 303.44 414.244 303.614C414.571 303.789 414.821 304.04 414.996 304.366C415.178 304.693 415.269 305.08 415.269 305.528C415.269 305.999 415.171 306.409 414.973 306.758C414.776 307.107 414.495 307.377 414.13 307.566C413.766 307.749 413.329 307.84 412.821 307.84H410.292ZM411.294 306.917H412.707C413.185 306.917 413.561 306.792 413.834 306.541C414.115 306.283 414.256 305.934 414.256 305.494C414.256 305.038 414.115 304.67 413.834 304.389C413.561 304.1 413.185 303.956 412.707 303.956H411.294V306.917ZM411.294 303.068H412.638C413.079 303.068 413.424 302.95 413.675 302.715C413.933 302.479 414.062 302.16 414.062 301.758C414.062 301.355 413.937 301.037 413.686 300.801C413.436 300.566 413.09 300.448 412.65 300.448H411.294V303.068ZM426.297 307.954C425.796 307.954 425.359 307.859 424.987 307.669C424.622 307.479 424.338 307.206 424.133 306.849C423.935 306.484 423.837 306.055 423.837 305.562V301.803C423.837 301.302 423.935 300.873 424.133 300.516C424.338 300.16 424.622 299.886 424.987 299.696C425.359 299.507 425.796 299.412 426.297 299.412C426.798 299.412 427.231 299.51 427.595 299.708C427.96 299.898 428.241 300.171 428.438 300.528C428.635 300.885 428.734 301.31 428.734 301.803H427.709C427.709 301.333 427.584 300.972 427.333 300.721C427.09 300.463 426.745 300.334 426.297 300.334C425.849 300.334 425.496 300.459 425.238 300.71C424.987 300.961 424.862 301.321 424.862 301.792V305.562C424.862 306.033 424.987 306.397 425.238 306.655C425.496 306.906 425.849 307.031 426.297 307.031C426.745 307.031 427.09 306.906 427.333 306.655C427.584 306.397 427.709 306.033 427.709 305.562H428.734C428.734 306.048 428.635 306.473 428.438 306.838C428.241 307.194 427.96 307.472 427.595 307.669C427.231 307.859 426.798 307.954 426.297 307.954ZM433.052 307.931C432.551 307.931 432.118 307.836 431.754 307.646C431.389 307.456 431.104 307.183 430.899 306.826C430.702 306.462 430.603 306.033 430.603 305.539V303.876C430.603 303.375 430.702 302.946 430.899 302.589C431.104 302.232 431.389 301.959 431.754 301.769C432.118 301.579 432.551 301.485 433.052 301.485C433.553 301.485 433.986 301.579 434.35 301.769C434.715 301.959 434.996 302.232 435.193 302.589C435.398 302.946 435.501 303.371 435.501 303.865V305.539C435.501 306.033 435.398 306.462 435.193 306.826C434.996 307.183 434.715 307.456 434.35 307.646C433.986 307.836 433.553 307.931 433.052 307.931ZM433.052 307.02C433.5 307.02 433.849 306.895 434.1 306.644C434.35 306.393 434.476 306.025 434.476 305.539V303.876C434.476 303.39 434.35 303.022 434.1 302.772C433.849 302.521 433.5 302.396 433.052 302.396C432.612 302.396 432.262 302.521 432.004 302.772C431.754 303.022 431.628 303.39 431.628 303.876V305.539C431.628 306.025 431.754 306.393 432.004 306.644C432.262 306.895 432.612 307.02 433.052 307.02ZM437.188 307.84V301.576H438.087V302.327H438.292L438.133 302.601C438.133 302.251 438.224 301.974 438.406 301.769C438.596 301.564 438.85 301.462 439.169 301.462C439.519 301.462 439.788 301.591 439.978 301.849C440.168 302.107 440.263 302.472 440.263 302.942L439.955 302.327H440.434L440.217 302.601C440.217 302.251 440.312 301.974 440.502 301.769C440.699 301.564 440.957 301.462 441.276 301.462C441.671 301.462 441.975 301.61 442.187 301.906C442.408 302.202 442.518 302.593 442.518 303.079V307.84H441.572V303.068C441.572 302.81 441.516 302.608 441.402 302.464C441.295 302.32 441.136 302.248 440.923 302.248C440.718 302.248 440.555 302.32 440.434 302.464C440.32 302.601 440.263 302.798 440.263 303.056V307.84H439.443V303.068C439.443 302.802 439.382 302.601 439.26 302.464C439.147 302.32 438.983 302.248 438.771 302.248C438.558 302.248 438.399 302.32 438.292 302.464C438.186 302.601 438.133 302.798 438.133 303.056V307.84H437.188ZM443.988 307.84V301.576H444.888V302.327H445.093L444.934 302.601C444.934 302.251 445.025 301.974 445.207 301.769C445.397 301.564 445.651 301.462 445.97 301.462C446.319 301.462 446.589 301.591 446.779 301.849C446.969 302.107 447.063 302.472 447.063 302.942L446.756 302.327H447.234L447.018 302.601C447.018 302.251 447.113 301.974 447.303 301.769C447.5 301.564 447.758 301.462 448.077 301.462C448.472 301.462 448.776 301.61 448.988 301.906C449.208 302.202 449.319 302.593 449.319 303.079V307.84H448.373V303.068C448.373 302.81 448.316 302.608 448.202 302.464C448.096 302.32 447.937 302.248 447.724 302.248C447.519 302.248 447.356 302.32 447.234 302.464C447.12 302.601 447.063 302.798 447.063 303.056V307.84H446.243V303.068C446.243 302.802 446.183 302.601 446.061 302.464C445.947 302.32 445.784 302.248 445.571 302.248C445.359 302.248 445.199 302.32 445.093 302.464C444.987 302.601 444.934 302.798 444.934 303.056V307.84H443.988ZM453.443 307.954C452.721 307.954 452.144 307.741 451.712 307.316C451.279 306.883 451.062 306.298 451.062 305.562V301.576H452.087V305.562C452.087 306.033 452.209 306.401 452.452 306.667C452.695 306.925 453.025 307.054 453.443 307.054C453.868 307.054 454.202 306.925 454.445 306.667C454.696 306.401 454.821 306.033 454.821 305.562V301.576H455.846V305.562C455.846 306.298 455.626 306.883 455.185 307.316C454.745 307.741 454.164 307.954 453.443 307.954ZM457.886 307.84V301.576H458.911V302.772H459.127L458.911 303.011C458.911 302.517 459.059 302.138 459.355 301.872C459.651 301.598 460.061 301.462 460.585 301.462C461.215 301.462 461.717 301.655 462.089 302.043C462.461 302.43 462.647 302.958 462.647 303.626V307.84H461.622V303.74C461.622 303.292 461.5 302.95 461.257 302.715C461.022 302.472 460.699 302.35 460.289 302.35C459.864 302.35 459.526 302.479 459.275 302.737C459.032 302.996 458.911 303.368 458.911 303.854V307.84H457.886ZM464.607 307.84V306.906H466.828V302.51H464.892V301.576H467.853V306.906H469.96V307.84H464.607ZM467.226 300.448C466.976 300.448 466.778 300.384 466.634 300.254C466.49 300.125 466.418 299.951 466.418 299.731C466.418 299.503 466.49 299.324 466.634 299.195C466.778 299.059 466.976 298.99 467.226 298.99C467.477 298.99 467.674 299.059 467.819 299.195C467.963 299.324 468.035 299.503 468.035 299.731C468.035 299.951 467.963 300.125 467.819 300.254C467.674 300.384 467.477 300.448 467.226 300.448ZM474.54 307.84C474.001 307.84 473.579 307.696 473.276 307.407C472.979 307.119 472.831 306.712 472.831 306.188V302.51H471.066V301.576H472.831V299.81H473.856V301.576H476.362V302.51H473.856V306.188C473.856 306.667 474.084 306.906 474.54 306.906H476.248V307.84H474.54ZM479.268 309.89L480.19 307.453L477.867 301.576H479.006L480.463 305.448C480.517 305.577 480.566 305.733 480.612 305.915C480.657 306.09 480.695 306.238 480.725 306.359C480.756 306.238 480.794 306.09 480.839 305.915C480.885 305.733 480.93 305.577 480.976 305.448L482.343 301.576H483.448L480.361 309.89H479.268ZM494.304 307.954C493.803 307.954 493.366 307.859 492.994 307.669C492.63 307.479 492.345 307.206 492.14 306.849C491.943 306.484 491.844 306.055 491.844 305.562V301.803C491.844 301.302 491.943 300.873 492.14 300.516C492.345 300.16 492.63 299.886 492.994 299.696C493.366 299.507 493.803 299.412 494.304 299.412C494.805 299.412 495.238 299.51 495.603 299.708C495.967 299.898 496.248 300.171 496.445 300.528C496.643 300.885 496.742 301.31 496.742 301.803H495.716C495.716 301.333 495.591 300.972 495.341 300.721C495.098 300.463 494.752 300.334 494.304 300.334C493.856 300.334 493.503 300.459 493.245 300.71C492.994 300.961 492.869 301.321 492.869 301.792V305.562C492.869 306.033 492.994 306.397 493.245 306.655C493.503 306.906 493.856 307.031 494.304 307.031C494.752 307.031 495.098 306.906 495.341 306.655C495.591 306.397 495.716 306.033 495.716 305.562H496.742C496.742 306.048 496.643 306.473 496.445 306.838C496.248 307.194 495.967 307.472 495.603 307.669C495.238 307.859 494.805 307.954 494.304 307.954ZM501.059 307.931C500.558 307.931 500.125 307.836 499.761 307.646C499.396 307.456 499.112 307.183 498.907 306.826C498.709 306.462 498.611 306.033 498.611 305.539V303.876C498.611 303.375 498.709 302.946 498.907 302.589C499.112 302.232 499.396 301.959 499.761 301.769C500.125 301.579 500.558 301.485 501.059 301.485C501.56 301.485 501.993 301.579 502.358 301.769C502.722 301.959 503.003 302.232 503.201 302.589C503.406 302.946 503.508 303.371 503.508 303.865V305.539C503.508 306.033 503.406 306.462 503.201 306.826C503.003 307.183 502.722 307.456 502.358 307.646C501.993 307.836 501.56 307.931 501.059 307.931ZM501.059 307.02C501.507 307.02 501.857 306.895 502.107 306.644C502.358 306.393 502.483 306.025 502.483 305.539V303.876C502.483 303.39 502.358 303.022 502.107 302.772C501.857 302.521 501.507 302.396 501.059 302.396C500.619 302.396 500.27 302.521 500.012 302.772C499.761 303.022 499.636 303.39 499.636 303.876V305.539C499.636 306.025 499.761 306.393 500.012 306.644C500.27 306.895 500.619 307.02 501.059 307.02ZM505.491 307.84V301.576H506.516V302.772H506.733L506.516 303.011C506.516 302.517 506.664 302.138 506.96 301.872C507.256 301.598 507.666 301.462 508.19 301.462C508.821 301.462 509.322 301.655 509.694 302.043C510.066 302.43 510.252 302.958 510.252 303.626V307.84H509.227V303.74C509.227 303.292 509.105 302.95 508.862 302.715C508.627 302.472 508.304 302.35 507.894 302.35C507.469 302.35 507.131 302.479 506.881 302.737C506.638 302.996 506.516 303.368 506.516 303.854V307.84H505.491ZM513.75 307.84V303.136H511.927V302.202H513.75V301.12C513.75 300.627 513.905 300.239 514.217 299.958C514.528 299.67 514.957 299.526 515.504 299.526H517.337V300.459H515.504C515.268 300.459 515.086 300.516 514.957 300.63C514.835 300.737 514.775 300.9 514.775 301.12V302.202H517.337V303.136H514.775V307.84H513.75ZM521.462 307.954C520.968 307.954 520.535 307.855 520.163 307.658C519.799 307.46 519.514 307.183 519.309 306.826C519.112 306.462 519.013 306.04 519.013 305.562V303.854C519.013 303.368 519.112 302.946 519.309 302.589C519.514 302.232 519.799 301.955 520.163 301.758C520.535 301.56 520.968 301.462 521.462 301.462C521.955 301.462 522.384 301.56 522.749 301.758C523.121 301.955 523.405 302.232 523.603 302.589C523.808 302.946 523.91 303.368 523.91 303.854V304.958H520.015V305.562C520.015 306.055 520.14 306.435 520.391 306.701C520.642 306.959 520.998 307.088 521.462 307.088C521.856 307.088 522.175 307.02 522.418 306.883C522.661 306.739 522.809 306.526 522.862 306.245H523.888C523.819 306.769 523.561 307.187 523.113 307.498C522.673 307.802 522.122 307.954 521.462 307.954ZM522.908 304.275V303.854C522.908 303.36 522.783 302.98 522.532 302.715C522.289 302.449 521.932 302.316 521.462 302.316C520.998 302.316 520.642 302.449 520.391 302.715C520.14 302.98 520.015 303.36 520.015 303.854V304.184H522.988L522.908 304.275ZM526.11 307.84V301.576H527.112V302.772H527.351L527.021 303.512C527.021 302.836 527.165 302.327 527.454 301.986C527.75 301.636 528.186 301.462 528.763 301.462C529.424 301.462 529.948 301.671 530.335 302.088C530.73 302.498 530.927 303.056 530.927 303.762V304.138H529.902V303.854C529.902 303.36 529.781 302.984 529.538 302.726C529.303 302.46 528.965 302.327 528.524 302.327C528.091 302.327 527.75 302.46 527.499 302.726C527.256 302.992 527.135 303.368 527.135 303.854V307.84H526.11ZM535.063 307.954C534.57 307.954 534.137 307.855 533.765 307.658C533.4 307.46 533.115 307.183 532.91 306.826C532.713 306.462 532.614 306.04 532.614 305.562V303.854C532.614 303.368 532.713 302.946 532.91 302.589C533.115 302.232 533.4 301.955 533.765 301.758C534.137 301.56 534.57 301.462 535.063 301.462C535.557 301.462 535.986 301.56 536.35 301.758C536.722 301.955 537.007 302.232 537.204 302.589C537.409 302.946 537.512 303.368 537.512 303.854V304.958H533.617V305.562C533.617 306.055 533.742 306.435 533.992 306.701C534.243 306.959 534.6 307.088 535.063 307.088C535.458 307.088 535.777 307.02 536.02 306.883C536.263 306.739 536.411 306.526 536.464 306.245H537.489C537.421 306.769 537.163 307.187 536.715 307.498C536.274 307.802 535.724 307.954 535.063 307.954ZM536.51 304.275V303.854C536.51 303.36 536.384 302.98 536.134 302.715C535.891 302.449 535.534 302.316 535.063 302.316C534.6 302.316 534.243 302.449 533.992 302.715C533.742 302.98 533.617 303.36 533.617 303.854V304.184H536.589L536.51 304.275ZM539.495 307.84V301.576H540.52V302.772H540.736L540.52 303.011C540.52 302.517 540.668 302.138 540.964 301.872C541.26 301.598 541.67 301.462 542.194 301.462C542.824 301.462 543.325 301.655 543.698 302.043C544.07 302.43 544.256 302.958 544.256 303.626V307.84H543.231V303.74C543.231 303.292 543.109 302.95 542.866 302.715C542.631 302.472 542.308 302.35 541.898 302.35C541.473 302.35 541.135 302.479 540.884 302.737C540.641 302.996 540.52 303.368 540.52 303.854V307.84H539.495ZM548.71 307.954C548.209 307.954 547.769 307.859 547.389 307.669C547.017 307.479 546.728 307.206 546.523 306.849C546.318 306.484 546.216 306.055 546.216 305.562V303.854C546.216 303.352 546.318 302.923 546.523 302.567C546.728 302.21 547.017 301.936 547.389 301.746C547.769 301.557 548.209 301.462 548.71 301.462C549.431 301.462 550.012 301.655 550.453 302.043C550.893 302.43 551.125 302.958 551.147 303.626H550.122C550.1 303.223 549.963 302.916 549.712 302.703C549.469 302.483 549.135 302.373 548.71 302.373C548.262 302.373 547.905 302.502 547.64 302.76C547.374 303.011 547.241 303.371 547.241 303.842V305.562C547.241 306.033 547.374 306.397 547.64 306.655C547.905 306.914 548.262 307.043 548.71 307.043C549.135 307.043 549.469 306.932 549.712 306.712C549.963 306.492 550.1 306.185 550.122 305.79H551.147C551.125 306.458 550.893 306.986 550.453 307.373C550.012 307.76 549.431 307.954 548.71 307.954ZM555.465 307.954C554.972 307.954 554.539 307.855 554.167 307.658C553.802 307.46 553.518 307.183 553.313 306.826C553.115 306.462 553.017 306.04 553.017 305.562V303.854C553.017 303.368 553.115 302.946 553.313 302.589C553.518 302.232 553.802 301.955 554.167 301.758C554.539 301.56 554.972 301.462 555.465 301.462C555.959 301.462 556.388 301.56 556.752 301.758C557.124 301.955 557.409 302.232 557.607 302.589C557.812 302.946 557.914 303.368 557.914 303.854V304.958H554.019V305.562C554.019 306.055 554.144 306.435 554.395 306.701C554.645 306.959 555.002 307.088 555.465 307.088C555.86 307.088 556.179 307.02 556.422 306.883C556.665 306.739 556.813 306.526 556.866 306.245H557.891C557.823 306.769 557.565 307.187 557.117 307.498C556.676 307.802 556.126 307.954 555.465 307.954ZM556.912 304.275V303.854C556.912 303.36 556.786 302.98 556.536 302.715C556.293 302.449 555.936 302.316 555.465 302.316C555.002 302.316 554.645 302.449 554.395 302.715C554.144 302.98 554.019 303.36 554.019 303.854V304.184H556.991L556.912 304.275Z" fill="#C5B709"/>
</g>
<defs>
<filter id="filter0_f_10559_19494" x="267.494" y="249.529" width="271.914" height="42.5132" filterUnits="userSpaceOnUse" color-interpolation-filters="sRGB">
<feFlood flood-opacity="0" result="BackgroundImageFix"/>
<feBlend mode="normal" in="SourceGraphic" in2="BackgroundImageFix" result="shape"/>
<feGaussianBlur stdDeviation="1.60192" result="effect1_foregroundBlur_10559_19494"/>
</filter>
<filter id="filter1_f_10559_19494" x="243.604" y="209.532" width="285.257" height="43.1479" filterUnits="userSpaceOnUse" color-interpolation-filters="sRGB">
<feFlood flood-opacity="0" result="BackgroundImageFix"/>
<feBlend mode="normal" in="SourceGraphic" in2="BackgroundImageFix" result="shape"/>
<feGaussianBlur stdDeviation="1.60192" result="effect1_foregroundBlur_10559_19494"/>
</filter>
<linearGradient id="paint0_linear_10559_19494" x1="407.392" y1="-26.0998" x2="404.587" y2="617.525" gradientUnits="userSpaceOnUse">
<stop stop-color="#FDEF00"/>
<stop offset="0.938633" stop-color="#FFFAA3"/>
</linearGradient>
<clipPath id="clip0_10559_19494">
<rect width="830" height="507.222" fill="white"/>
</clipPath>
</defs>
</svg>
