<svg width="560" height="560" viewBox="0 0 560 560" fill="none" xmlns="http://www.w3.org/2000/svg">
<g clip-path="url(#clip0_7239_28013)">
<rect width="560" height="560" fill="black"/>
<path d="M616.364 43L327.364 332" stroke="url(#paint0_linear_7239_28013)" stroke-width="5.25" stroke-linecap="round" stroke-linejoin="round"/>
<path d="M314 258.564L314 303.364C314 326.56 332.804 345.364 356 345.364L400.8 345.364" stroke="url(#paint1_linear_7239_28013)" stroke-width="5.25" stroke-linecap="round" stroke-linejoin="round"/>
<path d="M676.55 -91L224.399 -90.9996C201.203 -90.9996 182.399 -72.1956 182.399 -48.9996L182.399 211.05C182.399 234.246 163.595 253.05 140.399 253.05L95.5498 253.05" stroke="url(#paint2_linear_7239_28013)" stroke-width="5.25" stroke-linecap="round" stroke-linejoin="round"/>
<path d="M131.625 344.55H3C-8.59798 344.55 -18 335.148 -18 323.55V-59C-18 -70.598 -8.59797 -80 3.00001 -80H442.425C454.023 -80 463.425 -70.598 463.425 -59V161.5C463.425 173.098 454.023 182.5 442.425 182.5H173.625C162.027 182.5 152.625 191.902 152.625 203.5V323.55C152.625 335.148 143.223 344.55 131.625 344.55Z" fill="#1A1A1A"/>
<path d="M397.6 585.55L397.6 450.45C397.6 427.254 416.404 408.45 439.6 408.45L722.4 408.45" stroke="url(#paint3_linear_7239_28013)" stroke-width="5.25" stroke-linecap="round" stroke-linejoin="round"/>
<path d="M95.7244 448.251L478.936 448.251C490.534 448.251 499.936 438.849 499.936 427.251L499.936 114.5C499.936 102.902 509.338 93.5 520.936 93.5L901.6 93.5001C913.198 93.5001 922.6 102.902 922.6 114.5L922.6 638.75C922.6 650.347 913.198 659.75 901.6 659.75L95.7247 659.749C84.1268 659.749 74.7248 650.347 74.7247 638.749L74.7244 469.251C74.7244 457.653 84.1264 448.251 95.7244 448.251Z" fill="#1A1A1A"/>
<path d="M501.725 408.45H655.2" stroke="url(#paint4_linear_7239_28013)" stroke-width="5.25" stroke-linecap="round" stroke-linejoin="round"/>
<path d="M463.4 488.25L645.308 488.25L718.55 488.25C730.148 488.25 739.55 497.652 739.55 509.25L739.55 685.65C739.55 697.248 730.148 706.65 718.55 706.65L463.4 706.65C451.802 706.65 442.4 697.248 442.4 685.65L442.4 509.25C442.4 497.652 451.802 488.25 463.4 488.25Z" fill="black"/>
<g clip-path="url(#clip1_7239_28013)">
<path d="M234.016 542.934C223.817 542.934 215.549 534.666 215.549 524.467C215.549 514.268 223.775 506 234.016 506C244.256 506 252.482 514.268 252.482 524.467C252.482 534.666 244.214 542.934 234.016 542.934Z" fill="#FFF100"/>
<path d="M222.515 524.467C222.515 528.706 225.956 532.105 230.153 532.105C234.35 532.105 237.792 528.664 237.792 524.467C237.792 520.27 234.35 516.828 230.153 516.828C225.956 516.828 222.515 520.27 222.515 524.467Z" fill="black"/>
<path d="M243.899 521.718H240.269V527.216H243.899C245.417 527.216 246.648 525.985 246.648 524.467C246.648 522.949 245.417 521.718 243.899 521.718Z" fill="black"/>
<path d="M283.901 527.464C283.901 529.101 283.44 530.471 281.719 530.471C279.998 530.471 279.536 529.101 279.536 527.464V520.497H276.431V528.136C276.431 531.116 278.823 532.853 281.719 532.853C284.615 532.853 287.007 531.116 287.007 528.136V520.497H283.901V527.464Z" fill="white"/>
<path d="M265.558 516.324H260.744V532.558H265.558C270.708 532.558 274.582 530.878 274.582 524.43C274.582 517.981 270.708 516.324 265.558 516.324ZM265.424 530.05H263.946V518.832H265.424C268.379 518.832 271.268 519.571 271.268 524.43C271.268 529.333 268.379 530.05 265.424 530.05Z" fill="white"/>
<path d="M295.146 530.453C293.444 530.453 292.235 529.042 292.235 526.512C292.235 524.005 293.511 522.639 295.124 522.639C296.31 522.639 297.385 523.467 297.631 524.632H300.587C300.162 521.654 297.654 520.243 295.124 520.243C291.519 520.243 289.078 522.885 289.078 526.557C289.078 530.207 291.384 532.849 294.989 532.849C297.497 532.849 299.982 531.752 300.699 528.46H297.743C297.318 529.893 296.221 530.453 295.146 530.453Z" fill="white"/>
<path d="M313.461 520.512H309.99L305.602 525.348V516.324H302.512V532.558H305.602V528.93L307.079 527.341L310.236 532.558H313.707L309.139 525.124L313.461 520.512Z" fill="white"/>
<path d="M319.797 516.324H314.983V532.558H319.797C324.947 532.558 328.821 530.878 328.821 524.43C328.821 517.981 324.947 516.324 319.797 516.324ZM319.663 530.05H318.185V518.832H319.663C322.619 518.832 325.507 519.571 325.507 524.43C325.507 529.333 322.619 530.05 319.663 530.05Z" fill="white"/>
<path d="M341.449 523.982C342.277 523.445 343.285 522.079 343.285 520.556C343.285 517.22 340.217 516.324 337.374 516.324H331.06V532.558H337.642C340.979 532.558 343.867 531.259 343.867 527.766C343.867 525.527 342.703 524.587 341.449 523.982ZM334.262 518.832H337.575C339.075 518.832 339.994 519.593 339.994 520.87C339.994 522.303 339.098 523.019 337.575 523.019H334.262V518.832ZM337.799 530.05H334.262V525.437H337.665C339.658 525.437 340.598 526.244 340.598 527.766C340.598 529.266 339.68 530.05 337.799 530.05Z" fill="white"/>
</g>
<path d="M153 251L-315 245" stroke="url(#paint5_linear_7239_28013)" stroke-width="5.25" stroke-linecap="round" stroke-linejoin="round"/>
<path d="M50.075 42.665C50.075 32.9 44.27 31.415 38.33 31.415H35.36V53.96H38.33C44.27 53.96 50.075 52.52 50.075 42.665ZM28.925 26.375H38.6C48.95 26.375 56.735 29.705 56.735 42.665C56.735 55.625 48.95 59 38.6 59H28.925V26.375ZM75.5014 59V55.805C74.1064 58.28 71.4514 59.585 68.4364 59.585C62.6314 59.585 60.2914 56.03 60.2914 50.09V34.79H66.5014V48.74C66.5014 51.98 66.9964 54.59 70.4614 54.59C74.6014 54.59 75.5014 51.215 75.5014 47.39V34.79H81.7114V59H75.5014ZM97.8562 34.25C102.941 34.25 107.981 37.085 108.836 43.07H102.896C102.401 40.73 100.241 39.065 97.8562 39.065C94.6162 39.065 92.0512 41.81 92.0512 46.85C92.0512 51.935 94.4812 54.77 97.9012 54.77C100.061 54.77 102.266 53.645 103.121 50.765H109.061C107.621 57.38 102.626 59.585 97.5862 59.585C90.3412 59.585 85.7062 54.275 85.7062 46.94C85.7062 39.56 90.6112 34.25 97.8562 34.25ZM112.769 26.375H118.979V44.51L127.799 34.79H134.774L126.089 44.06L135.269 59H128.294L121.949 48.515L118.979 51.71V59H112.769V26.375ZM159.015 42.665C159.015 32.9 153.21 31.415 147.27 31.415H144.3V53.96H147.27C153.21 53.96 159.015 52.52 159.015 42.665ZM137.865 26.375H147.54C157.89 26.375 165.675 29.705 165.675 42.665C165.675 55.625 157.89 59 147.54 59H137.865V26.375ZM170.209 59V26.375H182.899C188.614 26.375 194.779 28.175 194.779 34.88C194.779 37.94 192.754 40.685 191.089 41.765C193.609 42.98 195.949 44.87 195.949 49.37C195.949 56.39 190.144 59 183.439 59H170.209ZM176.644 44.69V53.96H183.754C187.534 53.96 189.379 52.385 189.379 49.37C189.379 46.31 187.489 44.69 183.484 44.69H176.644ZM176.644 31.415V39.83H183.304C186.364 39.83 188.164 38.39 188.164 35.51C188.164 32.945 186.319 31.415 183.304 31.415H176.644ZM210.108 34.79H216.318V59H210.108V34.79ZM210.108 26.375H216.318V32.135H210.108V26.375ZM228.096 34.79V37.985C229.491 35.51 232.101 34.25 235.116 34.25C240.921 34.25 243.486 37.76 243.486 43.745V59H237.276V45.095C237.276 41.99 236.601 39.245 233.091 39.245C228.996 39.245 228.096 42.575 228.096 46.4V59H221.886V34.79H228.096ZM271.804 45.455L267.664 44.69C262.399 43.61 257.899 40.91 257.899 35.24C257.899 28.67 264.919 25.79 270.904 25.79C277.654 25.79 283.369 29.75 283.729 36.005H277.519C277.024 32.18 273.694 30.92 270.634 30.92C267.619 30.92 264.334 32.045 264.334 34.97C264.334 37.265 266.224 38.525 268.879 39.02L273.154 39.785C278.464 40.775 284.314 42.8 284.314 49.595C284.314 56.3 277.654 59.585 271.084 59.585C263.074 59.585 257.764 55.265 257.179 48.245H263.389C264.109 53.06 267.439 54.455 271.309 54.455C274.189 54.455 277.834 53.375 277.834 49.91C277.834 47.165 275.269 46.04 271.804 45.455ZM299.873 34.25C304.958 34.25 309.998 37.085 310.853 43.07H304.913C304.418 40.73 302.258 39.065 299.873 39.065C296.633 39.065 294.068 41.81 294.068 46.85C294.068 51.935 296.498 54.77 299.918 54.77C302.078 54.77 304.283 53.645 305.138 50.765H311.078C309.638 57.38 304.643 59.585 299.603 59.585C292.358 59.585 287.723 54.275 287.723 46.94C287.723 39.56 292.628 34.25 299.873 34.25ZM314.786 34.79H320.996V59H314.786V34.79ZM314.786 26.375H320.996V32.135H314.786V26.375ZM349.018 48.605H331.153C331.513 52.745 334.303 54.77 337.273 54.77C339.208 54.77 341.098 54.095 342.358 51.98H348.748C347.443 55.58 343.933 59.585 337.318 59.585C329.533 59.585 324.988 53.78 324.988 46.805C324.988 39.605 329.983 34.25 337.138 34.25C344.608 34.25 349.243 40.055 349.018 48.605ZM337.093 38.795C334.753 38.795 331.738 40.235 331.243 44.33H342.718C342.583 40.235 339.703 38.795 337.093 38.795ZM359.229 34.79V37.985C360.624 35.51 363.234 34.25 366.249 34.25C372.054 34.25 374.619 37.76 374.619 43.745V59H368.409V45.095C368.409 41.99 367.734 39.245 364.224 39.245C360.129 39.245 359.229 42.575 359.229 46.4V59H353.019V34.79H359.229ZM390.4 34.25C395.485 34.25 400.525 37.085 401.38 43.07H395.44C394.945 40.73 392.785 39.065 390.4 39.065C387.16 39.065 384.595 41.81 384.595 46.85C384.595 51.935 387.025 54.77 390.445 54.77C392.605 54.77 394.81 53.645 395.665 50.765H401.605C400.165 57.38 395.17 59.585 390.13 59.585C382.885 59.585 378.25 54.275 378.25 46.94C378.25 39.56 383.155 34.25 390.4 34.25ZM427.988 48.605H410.123C410.483 52.745 413.273 54.77 416.243 54.77C418.178 54.77 420.068 54.095 421.328 51.98H427.718C426.413 55.58 422.903 59.585 416.288 59.585C408.503 59.585 403.958 53.78 403.958 46.805C403.958 39.605 408.953 34.25 416.108 34.25C423.578 34.25 428.213 40.055 427.988 48.605ZM416.063 38.795C413.723 38.795 410.708 40.235 410.213 44.33H421.688C421.553 40.235 418.673 38.795 416.063 38.795ZM49.355 104H42.965L34.91 79.475V104H28.925V71.375H38.285L46.205 96.8L53.9 71.375H63.35V104H57.365V79.475L49.355 104ZM91.4989 93.605H73.6339C73.9939 97.745 76.7839 99.77 79.7539 99.77C81.6889 99.77 83.5789 99.095 84.8389 96.98H91.2289C89.9239 100.58 86.4139 104.585 79.7989 104.585C72.0139 104.585 67.4689 98.78 67.4689 91.805C67.4689 84.605 72.4639 79.25 79.6189 79.25C87.0889 79.25 91.7239 85.055 91.4989 93.605ZM79.5739 83.795C77.2339 83.795 74.2189 85.235 73.7239 89.33H85.1989C85.0639 85.235 82.1839 83.795 79.5739 83.795ZM118.613 93.605H100.748C101.108 97.745 103.898 99.77 106.868 99.77C108.803 99.77 110.693 99.095 111.953 96.98H118.343C117.038 100.58 113.528 104.585 106.913 104.585C99.1282 104.585 94.5832 98.78 94.5832 91.805C94.5832 84.605 99.5782 79.25 106.733 79.25C114.203 79.25 118.838 85.055 118.613 93.605ZM106.688 83.795C104.348 83.795 101.333 85.235 100.838 89.33H112.313C112.178 85.235 109.298 83.795 106.688 83.795ZM123.468 79.79V73.22H129.678V79.79H134.718V84.065H129.678V96.575C129.678 99.05 130.533 99.545 132.738 99.545H134.628V104H130.083C124.503 104 123.468 102.29 123.468 97.475V84.065H120.048V79.79H123.468ZM153.592 104V100.805C152.197 103.28 149.542 104.585 146.527 104.585C140.722 104.585 138.382 101.03 138.382 95.09V79.79H144.592V93.74C144.592 96.98 145.087 99.59 148.552 99.59C152.692 99.59 153.592 96.215 153.592 92.39V79.79H159.802V104H153.592ZM177.027 99.815C180.267 99.815 182.562 96.665 182.562 91.94C182.562 87.215 180.267 84.02 177.027 84.02C173.607 84.02 171.357 87.035 171.357 91.895C171.357 96.89 173.607 99.815 177.027 99.815ZM171.582 111.875H165.372V79.79H171.582V82.895C172.887 80.6 175.497 79.25 178.557 79.25C184.407 79.25 189.087 84.29 189.087 91.895C189.087 99.635 184.272 104.585 178.512 104.585C175.992 104.585 173.157 103.64 171.582 100.94V111.875Z" fill="#EEEEEE"/>
<path d="M32.784 121.853V151.251H49.8106V154H29.8132V121.853H32.784ZM53.7721 142.161C53.7721 149.034 57.0089 152.049 61.6203 152.049C66.1873 152.049 69.5128 149.034 69.5128 142.161C69.5128 135.289 66.1873 132.273 61.6203 132.273C57.0089 132.273 53.7721 135.289 53.7721 142.161ZM50.8456 142.161C50.8456 133.471 55.9447 129.746 61.6203 129.746C67.3401 129.746 72.4392 133.471 72.4392 142.161C72.4392 150.852 67.3401 154.576 61.6203 154.576C55.9447 154.576 50.8456 150.852 50.8456 142.161ZM79.9652 130.145V134.18C81.1624 131.919 83.4238 129.746 87.9021 129.746C93.5333 129.746 95.9276 133.116 95.9276 138.969V154H93.1786V139.723C93.1786 135.244 91.9814 132.229 87.1927 132.229C83.069 132.229 79.9652 135.688 79.9652 140.742V154H77.2162V130.145H79.9652ZM118.171 142.161C118.171 135.067 114.092 132.229 110.501 132.229C106.067 132.229 102.918 135.821 102.918 142.161C102.918 148.502 106.067 152.093 110.501 152.093C114.092 152.093 118.171 149.256 118.171 142.161ZM99.9477 142.161C99.9477 134.224 104.426 129.746 109.924 129.746C113.471 129.746 116.265 131.387 117.994 134.269V121.853H120.743V154H117.994V150.098C116.265 152.936 113.471 154.576 109.924 154.576C104.426 154.576 99.9477 150.098 99.9477 142.161ZM128.466 142.161C128.466 149.034 131.703 152.049 136.314 152.049C140.881 152.049 144.207 149.034 144.207 142.161C144.207 135.289 140.881 132.273 136.314 132.273C131.703 132.273 128.466 135.289 128.466 142.161ZM125.539 142.161C125.539 133.471 130.639 129.746 136.314 129.746C142.034 129.746 147.133 133.471 147.133 142.161C147.133 150.852 142.034 154.576 136.314 154.576C130.639 154.576 125.539 150.852 125.539 142.161ZM154.659 130.145V134.18C155.856 131.919 158.118 129.746 162.596 129.746C168.227 129.746 170.621 133.116 170.621 138.969V154H167.872V139.723C167.872 135.244 166.675 132.229 161.887 132.229C157.763 132.229 154.659 135.688 154.659 140.742V154H151.91V130.145H154.659ZM176.538 154V149.832H180.395V154.355L178.178 160.119H176.139L178.045 154H176.538ZM206.649 121.277C212.546 121.277 216.36 124.381 216.36 129.569C216.36 136.087 210.773 142.427 198.934 151.34H217.335V154H195.121V151.251C206.96 142.25 213.433 135.865 213.433 129.879C213.433 125.755 210.285 123.716 206.649 123.716C202.614 123.716 198.934 125.622 198.801 131.786H195.875C196.185 124.913 200.264 121.277 206.649 121.277ZM233.8 154.576C225.287 154.576 221.429 148.147 221.429 137.905C221.429 127.751 225.287 121.277 233.8 121.277C242.225 121.277 246.127 127.751 246.127 137.905C246.127 148.147 242.225 154.576 233.8 154.576ZM233.8 152.138C239.564 152.138 243.245 147.615 243.245 137.905C243.245 128.283 239.564 123.716 233.8 123.716C227.992 123.716 224.356 128.283 224.356 137.905C224.356 147.615 227.992 152.138 233.8 152.138ZM261.381 121.277C267.279 121.277 271.092 124.381 271.092 129.569C271.092 136.087 265.505 142.427 253.666 151.34H272.067V154H249.853V151.251C261.692 142.25 268.165 135.865 268.165 129.879C268.165 125.755 265.017 123.716 261.381 123.716C257.346 123.716 253.666 125.622 253.533 131.786H250.607C250.917 124.913 254.996 121.277 261.381 121.277ZM286.936 152.138C291.414 152.138 295.228 149.078 295.228 143.491C295.228 137.461 290.927 134.978 286.847 134.978C283.211 134.978 280.196 136.929 279.265 139.102L276.56 138.836L278.644 121.853H296.824V124.514H281.039L279.62 135.51C281.172 133.737 284.364 132.495 287.512 132.495C293.454 132.495 298.154 136.353 298.154 143.447C298.154 150.763 292.789 154.576 286.936 154.576C280.551 154.576 276.25 150.408 275.674 144.955H278.6C279.531 149.921 283.123 152.138 286.936 152.138ZM314.805 143.403H302.39V140.299H314.805V143.403ZM331.487 154.576C322.973 154.576 319.116 148.147 319.116 137.905C319.116 127.751 322.973 121.277 331.487 121.277C339.911 121.277 343.813 127.751 343.813 137.905C343.813 148.147 339.911 154.576 331.487 154.576ZM331.487 152.138C337.251 152.138 340.931 147.615 340.931 137.905C340.931 128.283 337.251 123.716 331.487 123.716C325.678 123.716 322.042 128.283 322.042 137.905C322.042 147.615 325.678 152.138 331.487 152.138ZM366.872 132.052C366.872 127.13 363.458 123.716 358.669 123.716C353.836 123.716 350.466 127.13 350.466 132.052C350.466 137.284 353.703 140.742 358.669 140.742C363.635 140.742 366.872 137.284 366.872 132.052ZM358.137 152.138C363.812 152.138 367.404 147.305 367.404 138.038C365.941 141.053 362.615 143.181 358.358 143.181C351.973 143.181 347.539 138.57 347.539 132.185C347.539 126.154 351.885 121.277 358.669 121.277C366.606 121.277 370.197 126.953 370.197 136.619C370.197 146.684 366.96 154.576 357.693 154.576C351.929 154.576 348.648 151.074 348.072 146.595H351.042C351.574 150.364 354.368 152.138 358.137 152.138ZM386.858 143.403H374.443V140.299H386.858V143.403ZM403.539 154.576C395.026 154.576 391.168 148.147 391.168 137.905C391.168 127.751 395.026 121.277 403.539 121.277C411.964 121.277 415.866 127.751 415.866 137.905C415.866 148.147 411.964 154.576 403.539 154.576ZM403.539 152.138C409.303 152.138 412.984 147.615 412.984 137.905C412.984 128.283 409.303 123.716 403.539 123.716C397.731 123.716 394.095 128.283 394.095 137.905C394.095 147.615 397.731 152.138 403.539 152.138ZM436.042 125.667L422.031 142.871H436.042V125.667ZM445.043 142.871V145.575H438.791V154H436.042V145.575H418.75V143.092L436.086 121.853H438.791V142.871H445.043Z" fill="#646464"/>
<path d="M-32 551.092L114.728 404.364" stroke="url(#paint6_linear_7239_28013)" stroke-width="5.25" stroke-linecap="round" stroke-linejoin="round"/>
<path d="M128.092 477.8L128.092 433C128.092 409.804 109.288 391 86.0918 391L41.2918 391" stroke="url(#paint7_linear_7239_28013)" stroke-width="5.25" stroke-linecap="round" stroke-linejoin="round"/>
</g>
<defs>
<linearGradient id="paint0_linear_7239_28013" x1="630.236" y1="25.6289" x2="350.467" y2="305.398" gradientUnits="userSpaceOnUse">
<stop offset="0.387106" stop-color="#5C4CB8"/>
<stop offset="0.920849" stop-color="#292058"/>
</linearGradient>
<linearGradient id="paint1_linear_7239_28013" x1="307.036" y1="251.78" x2="410.977" y2="319.27" gradientUnits="userSpaceOnUse">
<stop stop-color="#5C4CB8"/>
<stop offset="0.533654" stop-color="#292058"/>
<stop offset="1" stop-color="#5C4CB8"/>
</linearGradient>
<linearGradient id="paint2_linear_7239_28013" x1="3006.99" y1="-2.04409e+10" x2="-9946.27" y2="-2.04409e+10" gradientUnits="userSpaceOnUse">
<stop offset="0.0928008" stop-color="#292058"/>
<stop offset="0.387106" stop-color="#5C4CB8"/>
<stop offset="0.765429" stop-color="#292058"/>
</linearGradient>
<linearGradient id="paint3_linear_7239_28013" x1="344.941" y1="106.12" x2="1001.15" y2="694.82" gradientUnits="userSpaceOnUse">
<stop offset="0.0928008" stop-color="#292058"/>
<stop offset="0.387106" stop-color="#5C4CB8"/>
<stop offset="0.765429" stop-color="#292058"/>
</linearGradient>
<linearGradient id="paint4_linear_7239_28013" x1="277.741" y1="106.12" x2="933.949" y2="694.82" gradientUnits="userSpaceOnUse">
<stop offset="0.0928008" stop-color="#292058"/>
<stop offset="0.387106" stop-color="#5C4CB8"/>
<stop offset="0.765429" stop-color="#292058"/>
</linearGradient>
<linearGradient id="paint5_linear_7239_28013" x1="-3.1051e+08" y1="-2.60391e+16" x2="-3.10524e+08" y2="-2.60391e+16" gradientUnits="userSpaceOnUse">
<stop offset="0.0928008" stop-color="#292058"/>
<stop offset="0.387106" stop-color="#5C4CB8"/>
<stop offset="0.765429" stop-color="#292058"/>
</linearGradient>
<linearGradient id="paint6_linear_7239_28013" x1="4.80902e+11" y1="4.80902e+11" x2="4.80902e+11" y2="4.80902e+11" gradientUnits="userSpaceOnUse">
<stop offset="0.387106" stop-color="#5C4CB8"/>
<stop offset="0.920849" stop-color="#292058"/>
</linearGradient>
<linearGradient id="paint7_linear_7239_28013" x1="135.055" y1="484.584" x2="31.1149" y2="417.094" gradientUnits="userSpaceOnUse">
<stop stop-color="#5C4CB8"/>
<stop offset="0.533654" stop-color="#292058"/>
<stop offset="1" stop-color="#5C4CB8"/>
</linearGradient>
<clipPath id="clip0_7239_28013">
<rect width="560" height="560" fill="white"/>
</clipPath>
<clipPath id="clip1_7239_28013">
<rect width="128.452" height="36.9336" fill="white" transform="translate(215.549 506)"/>
</clipPath>
</defs>
</svg>
