<svg width="1200" height="515" viewBox="0 0 1200 515" fill="none" xmlns="http://www.w3.org/2000/svg">
<g clip-path="url(#clip0_13087_18908)">
<g clip-path="url(#clip1_13087_18908)">
<rect width="1200" height="515" fill="url(#paint0_linear_13087_18908)"/>
<rect x="1319.8" y="422.196" width="335.608" height="909.608" rx="46.6373" transform="rotate(90 1319.8 422.196)" fill="url(#paint1_linear_13087_18908)" stroke="url(#paint2_linear_13087_18908)" stroke-width="2.39166"/>
<circle cx="426.5" cy="-174.5" r="314.429" fill="url(#paint3_linear_13087_18908)" stroke="url(#paint4_linear_13087_18908)" stroke-width="2.14286"/>
<path d="M1115.3 -211.636H1173.51C1196.58 -211.636 1215.29 -192.927 1215.29 -169.85V-58.1016C1215.29 -33.2108 1213.12 -6.14206 1208.76 23.1064C1204.41 51.283 1198.96 78.9168 1192.43 106.008C1186.38 130.071 1180.34 151.811 1174.29 171.229C1173.28 174.483 1174.36 178.032 1177.03 180.158C1179.96 182.489 1184.08 182.548 1187.09 180.335C1203.38 168.339 1221.51 155.884 1241.48 142.973L1241.49 142.966C1264.36 127.794 1287.77 113.705 1311.73 100.701L1311.74 100.697L1311.75 100.693C1336.77 86.6165 1360.7 75.7969 1383.52 68.2275L1383.54 68.2197L1488.94 30.5098C1510.6 22.7625 1534.44 33.9703 1542.29 55.5869L1562.09 110.099C1570 131.864 1558.7 155.907 1536.89 163.708L1431.88 201.279C1410.12 208.858 1385.63 215.898 1358.41 222.399C1332.28 227.816 1306.15 232.149 1280.02 235.399C1256.29 237.368 1234.8 239.335 1215.54 241.304C1211.54 241.713 1208.03 244.141 1206.23 247.731C1203.72 252.721 1205.07 258.764 1209.37 262.291C1223.86 274.157 1239.58 288.049 1256.52 303.969L1256.54 303.99L1256.56 304.01C1277.24 321.336 1296.83 340.288 1315.33 360.865L1315.35 360.887L1315.37 360.908C1334.96 380.396 1351.26 399.871 1364.3 419.332L1364.31 419.344L1364.32 419.355L1429.2 510.912C1442.65 529.899 1438 556.218 1418.86 569.447L1371.62 602.088C1352.8 615.098 1327.01 610.542 1313.77 591.87L1248.33 499.511H1248.33C1235.27 480.028 1222.21 457.832 1209.15 432.919C1197.91 409.535 1187.15 386.152 1176.87 362.769L1174.82 358.092C1165.92 335.445 1158.36 315.038 1152.16 296.872C1150.9 293.206 1147.47 290.725 1143.58 290.725C1139.7 290.725 1136.27 293.207 1135 296.863C1128.71 315.027 1120.61 335.435 1110.71 358.092L1110.7 358.11L1110.7 358.129C1100.9 383.045 1089.47 407.964 1076.4 432.886L1076.39 432.902L1076.38 432.919C1064.41 457.823 1051.36 480.008 1037.23 499.479L1037.22 499.487L1037.22 499.496L973.299 591.366C960.149 610.267 934.186 614.969 915.243 601.879L868.005 569.235C848.977 556.086 844.25 529.982 857.459 510.995L921.221 419.348L921.224 419.343C935.356 398.789 952.213 378.768 971.797 359.28L971.817 359.26C991.424 338.666 1011.03 319.7 1030.63 302.363L1030.63 302.361C1049.01 285.994 1065.25 271.764 1079.34 259.672C1082.81 256.69 1083.95 251.799 1082.14 247.592C1080.64 244.123 1077.39 241.728 1073.63 241.343C1054.29 239.362 1032.67 237.38 1008.78 235.399C982.655 232.149 955.98 227.816 928.76 222.399C904.256 216.303 881.192 209.733 859.566 202.687L855.26 201.271L751.714 163.803C729.994 155.944 718.772 131.954 726.657 110.244L746.458 55.7314C754.33 34.0596 778.269 22.8598 799.95 30.7051L903.622 68.2188L903.636 68.2236L903.649 68.2275C926.464 75.7951 949.837 86.6118 973.769 100.684L973.793 100.697L973.818 100.711C998.863 113.713 1022.82 127.798 1045.68 142.966L1045.7 142.976L1045.71 142.985C1066.51 155.799 1084.6 168.158 1099.98 180.062C1103.02 182.415 1107.29 182.426 1110.31 180.021C1112.88 177.973 1114 174.602 1113.16 171.424C1108.04 151.951 1102.44 130.145 1096.38 106.008C1089.84 78.9169 1084.4 51.2829 1080.04 23.1064C1075.69 -6.14203 1073.51 -33.2108 1073.51 -58.1016V-169.85C1073.51 -192.927 1092.22 -211.636 1115.3 -211.636Z" fill="url(#paint5_linear_13087_18908)" stroke="url(#paint6_linear_13087_18908)" stroke-width="2.14286"/>
<path d="M-91.9287 54.7314C-91.9284 27.5627 -66.4107 7.65703 -40.7988 16.2979C24.4704 38.3183 82.0403 69.7803 131.921 110.679C194.771 162.212 243.081 225.453 276.854 300.415L276.856 300.423L276.86 300.43C311.566 374.443 328.929 457.377 328.929 549.25V802.75C328.929 942.445 291.855 1060.51 217.76 1157C153.691 1240.43 67.5275 1300.07 -40.7744 1335.89C-66.4311 1344.38 -91.9286 1324.47 -91.9287 1297.31V1260.76C-91.9287 1241.32 -78.4101 1224.63 -59.793 1218.66C-12.3476 1203.46 29.462 1180.11 65.624 1148.6L65.6338 1148.59C109.944 1109.04 143.873 1059.61 167.43 1000.33L167.431 1000.33C191.931 941.031 204.172 875.167 204.172 802.75V549.25C204.172 474.959 191.932 408.156 167.431 348.857C143.317 290.497 109.606 241.688 66.293 202.453L64.2236 200.593C28.141 167.622 -13.2577 143.391 -59.9629 127.901C-78.4739 121.762 -91.9286 105.114 -91.9287 85.7256V54.7314Z" fill="url(#paint7_linear_13087_18908)" stroke="url(#paint8_linear_13087_18908)" stroke-width="2.14286"/>
</g>
<path d="M456.125 204.979C456.125 193.408 449.194 191.841 441.661 191.841H437.382V218.177H441.661C449.194 218.177 456.125 216.55 456.125 204.979ZM427.077 183.162H441.48C455.764 183.162 467.033 188.405 467.033 204.979C467.033 221.612 455.764 226.855 441.48 226.855H427.077V183.162ZM490.115 226.855V222.335C488.127 225.53 485.595 227.639 480.593 227.639C471.975 227.639 469.384 222.757 469.384 213.958V194.432H479.328V211.488C479.328 216.128 479.448 219.925 484.27 219.925C488.548 219.925 490.115 217.574 490.115 211.548V194.432H500.059V226.855H490.115ZM520.079 193.468C526.829 193.468 534.242 196.541 536.17 206.305H526.889C525.985 202.508 523.635 201.182 520.682 201.182C517.126 201.182 513.631 203.593 513.631 210.523C513.631 217.574 517.126 219.925 520.682 219.925C524.358 219.925 526.588 217.996 527.311 214.923H536.592C534.362 224.565 526.588 227.639 520.079 227.639C509.412 227.639 503.506 220.769 503.506 210.463C503.506 200.157 510.256 193.468 520.079 193.468ZM539.527 183.162H549.471V206.787L560.379 194.432H572.131L560.56 206.847L573.096 226.855H561.464L553.81 214.079L549.471 218.719V226.855H539.527V183.162ZM604.935 210.584H615.06C613.432 220.708 605.296 227.639 594.268 227.639C580.647 227.639 572.391 218.961 572.391 204.979C572.391 191.178 580.888 182.439 594.569 182.439C605.477 182.439 613.312 189.551 614.758 199.494H604.633C603.488 193.528 599.089 190.937 594.207 190.937C588.12 190.937 583.299 196.059 583.299 204.979C583.299 214.2 588.06 219.141 594.328 219.141C598.848 219.141 603.609 217.213 604.935 210.584ZM633.554 201.182C629.637 201.182 626.503 203.593 626.503 210.523C626.503 217.333 629.516 219.925 633.554 219.925C637.592 219.925 640.605 217.333 640.605 210.523C640.605 203.593 637.472 201.182 633.554 201.182ZM633.554 193.468C642.534 193.468 650.73 198.771 650.73 210.523C650.73 222.275 642.534 227.639 633.554 227.639C624.575 227.639 616.378 222.275 616.378 210.523C616.378 198.771 624.575 193.468 633.554 193.468ZM664.05 194.432V198.711C665.497 196.3 668.992 193.709 674.115 193.709C682.432 193.709 685.023 198.59 685.023 207.389V226.855H675.079V209.86C675.079 205.22 674.898 201.423 670.077 201.423C665.798 201.423 664.05 204.195 664.05 210.222V226.855H654.107V194.432H664.05ZM700.93 192.383H709.91L711.235 183.162H720.697L719.371 192.383H728.592L729.918 183.162H739.38L738.054 192.383H746.973L745.889 200.64H736.849L735.523 209.74H744.502L743.478 218.057H734.317L733.052 226.855H723.59L724.856 218.057H715.635L714.369 226.855H704.907L706.173 218.057H697.434L698.519 209.74H707.378L708.704 200.64H699.905L700.93 192.383ZM718.166 200.64L716.84 209.74H726.061L727.387 200.64H718.166ZM745.115 191.238V183.162H777.84V191.238C765.666 201.483 760.242 210.403 759.941 226.855H749.334C749.334 210.825 756.867 199.253 767.414 191.238H745.115ZM490.064 246.818H479.879C478.854 243.504 475.66 241.696 471.26 241.696C467.223 241.696 464.33 243.202 464.33 245.914C464.33 248.084 466.319 249.651 469.392 250.314L475.359 251.519C482.41 252.965 491.329 255.135 491.329 264.296C491.329 273.456 482.108 278.639 473.008 278.639C461.738 278.639 454.506 273.094 452.879 263.633H463.124C464.27 268.213 467.886 270.322 473.249 270.322C476.805 270.322 480.722 269.177 480.722 265.561C480.722 262.729 477.408 261.342 472.586 260.318L467.283 259.233C460.171 257.787 453.723 254.352 453.723 246.517C453.723 237.597 463.305 233.439 471.863 233.439C480.361 233.439 488.617 237.176 490.064 246.818ZM494.273 245.432H504.278V277.855H494.273V245.432ZM494.273 234.162H504.217V242.117H494.273V234.162ZM519.536 245.432V249.711C520.982 247.3 524.478 244.709 529.6 244.709C537.917 244.709 540.509 249.59 540.509 258.389V277.855H530.565V260.86C530.565 256.22 530.384 252.423 525.562 252.423C521.284 252.423 519.536 255.195 519.536 261.222V277.855H509.592V245.432H519.536ZM567.393 249.832V245.432H577.277V273.516C577.277 285.57 569.623 289.186 560.643 289.186C551.061 289.186 545.396 284.003 544.431 278.036H553.773C554.556 280.869 556.907 282.195 560.523 282.195C565.585 282.195 567.393 279.724 567.393 275.445V271.588C565.284 275.143 560.944 276.71 557.389 276.71C549.012 276.71 543.106 270.985 543.106 260.68C543.106 250.374 549.012 244.709 557.389 244.709C560.944 244.709 565.284 246.276 567.393 249.832ZM560.643 252.423C556.666 252.423 553.411 254.954 553.411 260.68C553.411 266.465 556.666 268.996 560.643 268.996C564.56 268.996 567.815 266.947 567.815 260.68C567.815 254.291 564.56 252.423 560.643 252.423ZM605.445 267.67H614.605C611.712 275.324 604.902 278.639 598.454 278.639C587.907 278.639 580.675 272.251 580.675 261.463C580.675 251.097 588.57 244.468 598.032 244.468C608.82 244.468 615.389 252.604 614.726 264.175H590.679C590.981 268.755 594.536 270.925 598.152 270.925C601.949 270.925 604.3 269.599 605.445 267.67ZM598.032 252.061C594.476 252.061 591.342 253.869 590.8 258.148H604.842C604.661 254.05 601.829 252.061 598.032 252.061ZM628.112 245.432V249.832C630.221 246.276 634.56 244.709 638.056 244.709C646.433 244.709 652.339 251.037 652.339 261.644C652.339 272.251 646.433 278.639 638.056 278.639C634.56 278.639 630.221 277.072 628.112 273.516V288.402H618.168V245.432H628.112ZM634.801 252.423C630.884 252.423 627.63 254.954 627.63 261.644C627.63 268.333 630.884 270.925 634.801 270.925C638.779 270.925 642.033 267.67 642.033 261.644C642.033 255.617 638.779 252.423 634.801 252.423ZM671.275 252.182C667.358 252.182 664.224 254.593 664.224 261.523C664.224 268.333 667.237 270.925 671.275 270.925C675.313 270.925 678.326 268.333 678.326 261.523C678.326 254.593 675.192 252.182 671.275 252.182ZM671.275 244.468C680.255 244.468 688.451 249.771 688.451 261.523C688.451 273.275 680.255 278.639 671.275 278.639C662.295 278.639 654.099 273.275 654.099 261.523C654.099 249.771 662.295 244.468 671.275 244.468ZM711.775 245.251V254.954C710.63 254.773 709.967 254.773 709.063 254.773C704.242 254.773 701.771 256.521 701.771 261.584V277.855H691.827V245.432H701.41V251.579C702.916 247.722 705.628 245.372 710.269 245.191H710.992C711.293 245.191 711.534 245.191 711.775 245.251ZM737.049 267.67H746.21C743.317 275.324 736.507 278.639 730.058 278.639C719.512 278.639 712.28 272.251 712.28 261.463C712.28 251.097 720.175 244.468 729.636 244.468C740.424 244.468 746.993 252.604 746.33 264.175H722.284C722.585 268.755 726.141 270.925 729.757 270.925C733.554 270.925 735.904 269.599 737.049 267.67ZM729.636 252.061C726.081 252.061 722.947 253.869 722.404 258.148H736.447C736.266 254.05 733.433 252.061 729.636 252.061Z" fill="black"/>
<path d="M483.44 331.43V328.11L493.16 317.71C494.573 316.216 495.573 314.883 496.16 313.71C496.747 312.536 497.04 311.39 497.04 310.27C497.04 308.67 496.573 307.403 495.64 306.47C494.733 305.51 493.493 305.03 491.92 305.03C490.293 305.03 489 305.523 488.04 306.51C487.107 307.47 486.64 308.776 486.64 310.43H483.04C483.12 307.79 483.96 305.696 485.56 304.15C487.16 302.603 489.28 301.83 491.92 301.83C494.613 301.83 496.747 302.59 498.32 304.11C499.92 305.63 500.72 307.696 500.72 310.31C500.72 311.696 500.333 313.163 499.56 314.71C498.813 316.256 497.52 317.99 495.68 319.91L487.8 328.15H501.08V331.43H483.44ZM515.984 331.83C513.291 331.83 511.144 331.056 509.544 329.51C507.971 327.936 507.184 325.843 507.184 323.23V310.43C507.184 307.816 507.971 305.736 509.544 304.19C511.144 302.616 513.291 301.83 515.984 301.83C518.678 301.83 520.811 302.616 522.384 304.19C523.984 305.736 524.784 307.816 524.784 310.43V323.23C524.784 324.963 524.424 326.483 523.704 327.79C522.984 329.07 521.958 330.07 520.624 330.79C519.318 331.483 517.771 331.83 515.984 331.83ZM515.984 328.75C517.584 328.75 518.864 328.243 519.824 327.23C520.811 326.19 521.304 324.856 521.304 323.23V310.43C521.304 308.803 520.811 307.483 519.824 306.47C518.864 305.43 517.584 304.91 515.984 304.91C514.384 304.91 513.091 305.43 512.104 306.47C511.144 307.483 510.664 308.803 510.664 310.43V323.23C510.664 324.856 511.144 326.19 512.104 327.23C513.091 328.243 514.384 328.75 515.984 328.75ZM515.984 319.03C515.264 319.03 514.678 318.83 514.224 318.43C513.798 318.03 513.584 317.456 513.584 316.71C513.584 315.99 513.798 315.443 514.224 315.07C514.678 314.67 515.264 314.47 515.984 314.47C516.704 314.47 517.278 314.67 517.704 315.07C518.158 315.443 518.384 315.99 518.384 316.71C518.384 317.456 518.158 318.03 517.704 318.43C517.278 318.83 516.704 319.03 515.984 319.03ZM531.409 331.43V328.11L541.129 317.71C542.542 316.216 543.542 314.883 544.129 313.71C544.715 312.536 545.009 311.39 545.009 310.27C545.009 308.67 544.542 307.403 543.609 306.47C542.702 305.51 541.462 305.03 539.889 305.03C538.262 305.03 536.969 305.523 536.009 306.51C535.075 307.47 534.609 308.776 534.609 310.43H531.009C531.089 307.79 531.929 305.696 533.529 304.15C535.129 302.603 537.249 301.83 539.889 301.83C542.582 301.83 544.715 302.59 546.289 304.11C547.889 305.63 548.689 307.696 548.689 310.31C548.689 311.696 548.302 313.163 547.529 314.71C546.782 316.256 545.489 317.99 543.649 319.91L535.769 328.15H549.049V331.43H531.409ZM563.993 331.83C562.126 331.83 560.473 331.443 559.033 330.67C557.62 329.87 556.513 328.776 555.713 327.39C554.913 325.976 554.513 324.35 554.513 322.51C554.513 321.23 554.753 319.923 555.233 318.59C555.713 317.23 556.366 315.816 557.193 314.35L563.953 302.23H567.953L560.753 314.75L560.873 314.83C561.22 314.376 561.74 314.03 562.433 313.79C563.126 313.55 563.886 313.43 564.713 313.43C566.446 313.43 567.953 313.816 569.233 314.59C570.54 315.336 571.553 316.376 572.273 317.71C573.02 319.043 573.393 320.59 573.393 322.35C573.393 324.216 572.993 325.87 572.193 327.31C571.393 328.723 570.286 329.83 568.873 330.63C567.486 331.43 565.86 331.83 563.993 331.83ZM563.953 328.63C565.686 328.63 567.086 328.056 568.153 326.91C569.246 325.763 569.793 324.27 569.793 322.43C569.793 320.59 569.246 319.096 568.153 317.95C567.086 316.803 565.686 316.23 563.953 316.23C562.22 316.23 560.806 316.803 559.713 317.95C558.646 319.096 558.113 320.59 558.113 322.43C558.113 324.27 558.646 325.763 559.713 326.91C560.806 328.056 562.22 328.63 563.953 328.63ZM581.538 319.83V316.63H594.338V319.83H581.538ZM611.922 331.83C609.229 331.83 607.082 331.056 605.482 329.51C603.909 327.936 603.122 325.843 603.122 323.23V310.43C603.122 307.816 603.909 305.736 605.482 304.19C607.082 302.616 609.229 301.83 611.922 301.83C614.615 301.83 616.749 302.616 618.322 304.19C619.922 305.736 620.722 307.816 620.722 310.43V323.23C620.722 324.963 620.362 326.483 619.642 327.79C618.922 329.07 617.895 330.07 616.562 330.79C615.255 331.483 613.709 331.83 611.922 331.83ZM611.922 328.75C613.522 328.75 614.802 328.243 615.762 327.23C616.749 326.19 617.242 324.856 617.242 323.23V310.43C617.242 308.803 616.749 307.483 615.762 306.47C614.802 305.43 613.522 304.91 611.922 304.91C610.322 304.91 609.029 305.43 608.042 306.47C607.082 307.483 606.602 308.803 606.602 310.43V323.23C606.602 324.856 607.082 326.19 608.042 327.23C609.029 328.243 610.322 328.75 611.922 328.75ZM611.922 319.03C611.202 319.03 610.615 318.83 610.162 318.43C609.735 318.03 609.522 317.456 609.522 316.71C609.522 315.99 609.735 315.443 610.162 315.07C610.615 314.67 611.202 314.47 611.922 314.47C612.642 314.47 613.215 314.67 613.642 315.07C614.095 315.443 614.322 315.99 614.322 316.71C614.322 317.456 614.095 318.03 613.642 318.43C613.215 318.83 612.642 319.03 611.922 319.03ZM635.666 331.83C632.973 331.83 630.84 331.083 629.266 329.59C627.693 328.07 626.906 326.016 626.906 323.43H630.506C630.506 325.03 630.973 326.296 631.906 327.23C632.84 328.163 634.106 328.63 635.706 328.63C637.306 328.63 638.573 328.163 639.506 327.23C640.44 326.296 640.906 325.03 640.906 323.43V321.63C640.906 320.03 640.453 318.763 639.546 317.83C638.64 316.896 637.413 316.43 635.866 316.43H627.906V302.23H643.466V305.51H631.266L631.346 313.15H636.066C638.76 313.15 640.84 313.896 642.306 315.39C643.773 316.856 644.506 318.936 644.506 321.63V323.43C644.506 326.016 643.706 328.07 642.106 329.59C640.533 331.083 638.386 331.83 635.666 331.83ZM653.491 319.83V316.63H666.291V319.83H653.491ZM683.875 331.83C681.182 331.83 679.035 331.056 677.435 329.51C675.862 327.936 675.075 325.843 675.075 323.23V310.43C675.075 307.816 675.862 305.736 677.435 304.19C679.035 302.616 681.182 301.83 683.875 301.83C686.568 301.83 688.702 302.616 690.275 304.19C691.875 305.736 692.675 307.816 692.675 310.43V323.23C692.675 324.963 692.315 326.483 691.595 327.79C690.875 329.07 689.848 330.07 688.515 330.79C687.208 331.483 685.662 331.83 683.875 331.83ZM683.875 328.75C685.475 328.75 686.755 328.243 687.715 327.23C688.702 326.19 689.195 324.856 689.195 323.23V310.43C689.195 308.803 688.702 307.483 687.715 306.47C686.755 305.43 685.475 304.91 683.875 304.91C682.275 304.91 680.982 305.43 679.995 306.47C679.035 307.483 678.555 308.803 678.555 310.43V323.23C678.555 324.856 679.035 326.19 679.995 327.23C680.982 328.243 682.275 328.75 683.875 328.75ZM683.875 319.03C683.155 319.03 682.568 318.83 682.115 318.43C681.688 318.03 681.475 317.456 681.475 316.71C681.475 315.99 681.688 315.443 682.115 315.07C682.568 314.67 683.155 314.47 683.875 314.47C684.595 314.47 685.168 314.67 685.595 315.07C686.048 315.443 686.275 315.99 686.275 316.71C686.275 317.456 686.048 318.03 685.595 318.43C685.168 318.83 684.595 319.03 683.875 319.03ZM707.619 331.83C704.926 331.83 702.793 331.083 701.219 329.59C699.646 328.07 698.859 326.016 698.859 323.43H702.459C702.459 325.03 702.926 326.296 703.859 327.23C704.793 328.163 706.059 328.63 707.659 328.63C709.259 328.63 710.526 328.163 711.459 327.23C712.393 326.296 712.859 325.03 712.859 323.43V321.63C712.859 320.03 712.406 318.763 711.499 317.83C710.593 316.896 709.366 316.43 707.819 316.43H699.859V302.23H715.419V305.51H703.219L703.299 313.15H708.019C710.713 313.15 712.793 313.896 714.259 315.39C715.726 316.856 716.459 318.936 716.459 321.63V323.43C716.459 326.016 715.659 328.07 714.059 329.59C712.486 331.083 710.339 331.83 707.619 331.83Z" fill="black"/>
</g>
<defs>
<linearGradient id="paint0_linear_13087_18908" x1="589" y1="-26.5" x2="589" y2="566" gradientUnits="userSpaceOnUse">
<stop stop-color="#FDEF00"/>
<stop offset="0.938633" stop-color="#FFFAA3"/>
</linearGradient>
<linearGradient id="paint1_linear_13087_18908" x1="1659" y1="578.944" x2="1043.19" y2="950.042" gradientUnits="userSpaceOnUse">
<stop stop-color="#FDEF00"/>
<stop offset="0.938633" stop-color="#FFFAA3"/>
</linearGradient>
<linearGradient id="paint2_linear_13087_18908" x1="1490" y1="1333" x2="1490" y2="421" gradientUnits="userSpaceOnUse">
<stop stop-color="#BFB531"/>
<stop offset="1" stop-color="#FFEF1B"/>
</linearGradient>
<linearGradient id="paint3_linear_13087_18908" x1="689" y1="-36" x2="296.061" y2="332.301" gradientUnits="userSpaceOnUse">
<stop stop-color="#FDEF00"/>
<stop offset="0.938633" stop-color="#FFFAA3"/>
</linearGradient>
<linearGradient id="paint4_linear_13087_18908" x1="763.426" y1="-58.2269" x2="-5.27304" y2="-153.074" gradientUnits="userSpaceOnUse">
<stop stop-color="#BFB531"/>
<stop offset="1" stop-color="#FFEF1B"/>
</linearGradient>
<linearGradient id="paint5_linear_13087_18908" x1="1216.79" y1="339.957" x2="805.586" y2="647.115" gradientUnits="userSpaceOnUse">
<stop stop-color="#FDEF00"/>
<stop offset="0.938633" stop-color="#FFFAA3"/>
</linearGradient>
<linearGradient id="paint6_linear_13087_18908" x1="862.844" y1="149.998" x2="1144.4" y2="627.047" gradientUnits="userSpaceOnUse">
<stop stop-color="#BFB531"/>
<stop offset="1" stop-color="#FFEF1B"/>
</linearGradient>
<linearGradient id="paint7_linear_13087_18908" x1="270" y1="558.5" x2="232.345" y2="101.471" gradientUnits="userSpaceOnUse">
<stop offset="0.0613673" stop-color="#FFFAA3"/>
<stop offset="1" stop-color="#FDEF00"/>
</linearGradient>
<linearGradient id="paint8_linear_13087_18908" x1="118.5" y1="0" x2="399.953" y2="1051.27" gradientUnits="userSpaceOnUse">
<stop stop-color="#BFB531"/>
<stop offset="1" stop-color="#FFEF1B"/>
</linearGradient>
<clipPath id="clip0_13087_18908">
<rect width="1200" height="514.286" fill="white"/>
</clipPath>
<clipPath id="clip1_13087_18908">
<rect width="1200" height="515" fill="white"/>
</clipPath>
</defs>
</svg>
