<svg width="560" height="240" viewBox="0 0 560 240" fill="none" xmlns="http://www.w3.org/2000/svg">
<g clip-path="url(#clip0_12467_25662)">
<rect width="560" height="240" fill="#FFF100"/>
<g clip-path="url(#clip1_12467_25662)">
<rect width="560" height="240" fill="#FFF100"/>
<path d="M294.978 54.1969L443 54.1969C454.046 54.1969 463 63.1513 463 74.197L463 167.001C463 178.046 471.954 187.001 483 187.001L583.619 187.001C594.665 187.001 603.619 178.046 603.619 167.001L603.619 -13.9528C603.619 -24.9985 594.665 -33.9528 583.619 -33.9528L294.978 -33.9531C283.932 -33.9531 274.978 -24.9988 274.978 -13.9531L274.978 34.1969C274.978 45.2426 283.932 54.1969 294.978 54.1969Z" fill="#EDDD0C"/>
<path d="M-22.5001 45.3262L37.5001 45.3262C48.5458 45.3262 57.5001 54.2805 57.5001 65.3262L57.4999 139C57.4999 150.046 66.4542 159.001 77.4999 159L114.5 159C125.546 159 134.5 167.955 134.5 179L134.5 268.828C134.5 279.874 125.546 288.828 114.5 288.828L-22.5001 288.828C-33.5458 288.828 -42.5001 279.873 -42.5001 268.828L-42.5001 65.3262C-42.5001 54.2805 -33.5458 45.3262 -22.5001 45.3262Z" fill="#EDDD0C"/>
<path d="M-86 183L42.4778 183C59.0464 183 72.4778 196.431 72.4778 213L72.4779 370" stroke="url(#paint0_linear_12467_25662)" stroke-width="3" stroke-linecap="round" stroke-linejoin="round"/>
<path d="M515 -95L515 126C515 142.569 528.431 156 545 156L693 156" stroke="url(#paint1_linear_12467_25662)" stroke-width="3" stroke-linecap="round" stroke-linejoin="round"/>
</g>
<path d="M222.916 94.5071C222.916 89.2713 219.803 88.4751 216.618 88.4751H215.026V100.563H216.618C219.803 100.563 222.916 99.7912 222.916 94.5071ZM211.575 85.7727H216.763C222.313 85.7727 226.487 87.5582 226.487 94.5071C226.487 101.456 222.313 103.266 216.763 103.266H211.575V85.7727ZM236.549 103.266V101.553C235.801 102.88 234.377 103.579 232.761 103.579C229.648 103.579 228.394 101.673 228.394 98.4883V90.2847H231.723V97.7644C231.723 99.5016 231.989 100.901 233.847 100.901C236.066 100.901 236.549 99.0915 236.549 97.0406V90.2847H239.879V103.266H236.549ZM248.535 89.9951C251.262 89.9951 253.964 91.5152 254.422 94.7243H251.237C250.972 93.4696 249.814 92.5769 248.535 92.5769C246.798 92.5769 245.423 94.0487 245.423 96.751C245.423 99.4775 246.725 100.998 248.559 100.998C249.717 100.998 250.9 100.394 251.358 98.8502H254.543C253.771 102.397 251.093 103.579 248.39 103.579C244.506 103.579 242.021 100.732 242.021 96.7993C242.021 92.8423 244.65 89.9951 248.535 89.9951ZM256.531 85.7727H259.861V95.4964L264.59 90.2847H268.33L263.673 95.2551L268.595 103.266H264.856L261.453 97.6438L259.861 99.3569V103.266H256.531V85.7727ZM281.858 97.5231H285.14C284.681 101.07 281.738 103.579 277.564 103.579C272.352 103.579 269.384 100.032 269.384 94.4347C269.384 88.9094 272.569 85.4591 277.66 85.4591C281.762 85.4591 284.561 87.7995 285.14 91.4428H281.858C281.207 89.0059 279.566 88.2097 277.636 88.2097C275.006 88.2097 272.955 90.3812 272.955 94.4347C272.955 98.6089 275.006 100.829 277.515 100.829C279.59 100.829 281.279 99.9118 281.858 97.5231ZM293.256 92.601C291.423 92.601 290.12 94.0728 290.12 96.7993C290.12 99.5258 291.423 100.973 293.256 100.973C295.09 100.973 296.393 99.5258 296.393 96.7993C296.393 94.0728 295.09 92.601 293.256 92.601ZM293.256 103.579C289.975 103.579 286.742 101.335 286.742 96.7993C286.742 92.2391 289.975 89.9951 293.256 89.9951C296.538 89.9951 299.771 92.2391 299.771 96.7993C299.771 101.335 296.538 103.579 293.256 103.579ZM305.219 90.2847V91.9978C305.967 90.6707 307.366 89.9951 308.983 89.9951C312.096 89.9951 313.471 91.8771 313.471 95.0862V103.266H310.141V95.81C310.141 94.1452 309.779 92.6734 307.897 92.6734C305.702 92.6734 305.219 94.4589 305.219 96.5097V103.266H301.889V90.2847H305.219ZM321.585 89.8262H324.963L325.518 85.7727H328.51L327.955 89.8262H331.164L331.719 85.7727H334.711L334.156 89.8262H337.485L337.172 92.408H333.794L333.287 96.0513H336.593L336.327 98.6089H332.925L332.298 103.266H329.306L329.933 98.6089H326.724L326.097 103.266H323.105L323.732 98.6089H320.427L320.74 96.0513H324.094L324.601 92.408H321.32L321.585 89.8262ZM327.593 92.408L327.086 96.0513H330.295L330.802 92.408H327.593ZM337.621 88.5716V85.7727H350.481V88.5716C345.921 93.1801 343.677 96.9923 343.363 103.266H339.696C339.961 97.2336 343.218 92.2149 347.127 88.5716H337.621ZM229.432 120.003L227.212 119.593C224.389 119.014 221.977 117.566 221.977 114.526C221.977 111.003 225.741 109.459 228.95 109.459C232.569 109.459 235.633 111.582 235.826 114.936H232.496C232.231 112.885 230.446 112.21 228.805 112.21C227.188 112.21 225.427 112.813 225.427 114.381C225.427 115.612 226.44 116.287 227.864 116.553L230.156 116.963C233.003 117.494 236.14 118.579 236.14 122.223C236.14 125.818 232.569 127.579 229.046 127.579C224.751 127.579 221.904 125.263 221.591 121.499H224.92C225.306 124.081 227.092 124.829 229.167 124.829C230.711 124.829 232.665 124.25 232.665 122.392C232.665 120.92 231.29 120.317 229.432 120.003ZM238.2 114.285H241.529V127.266H238.2V114.285ZM238.2 109.773H241.529V112.861H238.2V109.773ZM247.844 114.285V115.998C248.592 114.671 249.991 113.995 251.608 113.995C254.721 113.995 256.096 115.877 256.096 119.086V127.266H252.766V119.81C252.766 118.145 252.404 116.673 250.522 116.673C248.327 116.673 247.844 118.459 247.844 120.51V127.266H244.514V114.285H247.844ZM264.534 124.274C266.391 124.274 267.525 122.705 267.525 120.389C267.525 118.097 266.391 116.529 264.534 116.529C262.82 116.529 261.542 118.242 261.542 120.413C261.542 122.561 262.82 124.274 264.534 124.274ZM267.405 114.285H270.71V125.963C270.71 130.209 268.322 131.802 264.341 131.802C261.566 131.802 259.129 130.788 258.67 127.772H261.831C262.121 128.834 263.013 129.365 264.509 129.365C266.247 129.365 267.405 128.544 267.405 126.59V124.853C266.56 126.276 265.04 126.807 263.689 126.807C260.504 126.807 258.043 124.177 258.043 120.389C258.043 116.697 260.432 113.995 263.689 113.995C265.33 113.995 266.826 114.84 267.405 115.974V114.285ZM281.839 122.295V121.33C278.099 121.716 276.627 122.15 276.627 123.598C276.627 124.539 277.351 125.311 278.871 125.311C280.971 125.311 281.839 124.201 281.839 122.295ZM282.129 125.649C281.188 127 279.836 127.579 277.882 127.579C275.397 127.579 273.201 126.132 273.201 123.767C273.201 120.703 276.627 119.786 281.743 119.207V118.99C281.743 116.987 280.657 116.287 279.306 116.287C278.027 116.287 276.965 116.939 276.893 118.386H273.78C274.046 115.829 276.121 113.947 279.475 113.947C282.539 113.947 285.072 115.298 285.072 119.665C285.072 120.051 285.024 121.813 285.024 122.971C285.024 125.022 285.145 126.18 285.41 127.266H282.346C282.249 126.855 282.201 126.3 282.129 125.649ZM294.095 125.022C295.832 125.022 297.063 123.333 297.063 120.799C297.063 118.266 295.832 116.553 294.095 116.553C292.262 116.553 291.055 118.169 291.055 120.775C291.055 123.453 292.262 125.022 294.095 125.022ZM291.176 131.488H287.846V114.285H291.176V115.95C291.875 114.719 293.275 113.995 294.916 113.995C298.052 113.995 300.562 116.697 300.562 120.775C300.562 124.925 297.98 127.579 294.891 127.579C293.54 127.579 292.02 127.073 291.176 125.625V131.488ZM308.549 116.601C306.715 116.601 305.412 118.073 305.412 120.799C305.412 123.526 306.715 124.973 308.549 124.973C310.382 124.973 311.685 123.526 311.685 120.799C311.685 118.073 310.382 116.601 308.549 116.601ZM308.549 127.579C305.267 127.579 302.034 125.335 302.034 120.799C302.034 116.239 305.267 113.995 308.549 113.995C311.83 113.995 315.063 116.239 315.063 120.799C315.063 125.335 311.83 127.579 308.549 127.579ZM324.613 114.357V117.494C324.13 117.421 323.72 117.421 323.238 117.421C321.597 117.421 320.511 118.025 320.511 120.461V127.266H317.182V114.285H320.463V116.553C321.211 114.936 322.369 114.309 323.889 114.309C324.106 114.309 324.396 114.333 324.613 114.357ZM338.364 121.692H328.785C328.978 123.912 330.474 124.998 332.066 124.998C333.104 124.998 334.117 124.636 334.793 123.502H338.219C337.519 125.432 335.637 127.579 332.091 127.579C327.916 127.579 325.479 124.467 325.479 120.727C325.479 116.866 328.158 113.995 331.994 113.995C335.999 113.995 338.484 117.108 338.364 121.692ZM331.97 116.432C330.715 116.432 329.099 117.204 328.833 119.4H334.986C334.913 117.204 333.369 116.432 331.97 116.432Z" fill="black"/>
<path d="M226.09 138.236C228.883 138.236 230.689 139.706 230.689 142.163C230.689 145.25 228.043 148.253 222.436 152.474H231.151V153.734H220.63V152.432C226.237 148.169 229.303 145.145 229.303 142.31C229.303 140.357 227.812 139.391 226.09 139.391C224.179 139.391 222.436 140.294 222.373 143.213H220.987C221.134 139.958 223.066 138.236 226.09 138.236ZM238.949 154.007C234.917 154.007 233.09 150.962 233.09 146.111C233.09 141.302 234.917 138.236 238.949 138.236C242.939 138.236 244.787 141.302 244.787 146.111C244.787 150.962 242.939 154.007 238.949 154.007ZM238.949 152.852C241.679 152.852 243.422 150.71 243.422 146.111C243.422 141.554 241.679 139.391 238.949 139.391C236.198 139.391 234.476 141.554 234.476 146.111C234.476 150.71 236.198 152.852 238.949 152.852ZM252.012 138.236C254.805 138.236 256.611 139.706 256.611 142.163C256.611 145.25 253.965 148.253 248.358 152.474H257.073V153.734H246.552V152.432C252.159 148.169 255.225 145.145 255.225 142.31C255.225 140.357 253.734 139.391 252.012 139.391C250.101 139.391 248.358 140.294 248.295 143.213H246.909C247.056 139.958 248.988 138.236 252.012 138.236ZM260.356 148.904C260.356 151.235 261.973 152.852 264.241 152.852C266.53 152.852 268.126 151.235 268.126 148.904C268.126 146.405 266.593 144.788 264.241 144.788C261.889 144.788 260.356 146.405 260.356 148.904ZM264.493 139.391C261.826 139.391 260.104 141.68 260.104 146.069C260.797 144.641 262.372 143.633 264.388 143.633C267.412 143.633 269.512 145.817 269.512 148.841C269.512 151.697 267.454 154.007 264.241 154.007C260.482 154.007 258.781 151.319 258.781 146.72C258.781 141.932 260.314 138.236 264.703 138.236C267.433 138.236 268.987 139.832 269.26 142.016H267.874C267.601 140.231 266.278 139.391 264.493 139.391ZM277.396 148.715H271.516V147.245H277.396V148.715ZM285.297 154.007C281.265 154.007 279.438 150.962 279.438 146.111C279.438 141.302 281.265 138.236 285.297 138.236C289.287 138.236 291.135 141.302 291.135 146.111C291.135 150.962 289.287 154.007 285.297 154.007ZM285.297 152.852C288.027 152.852 289.77 150.71 289.77 146.111C289.77 141.554 288.027 139.391 285.297 139.391C282.546 139.391 280.824 141.554 280.824 146.111C280.824 150.71 282.546 152.852 285.297 152.852ZM298.507 152.852C300.628 152.852 302.434 151.403 302.434 148.757C302.434 145.901 300.397 144.725 298.465 144.725C296.743 144.725 295.315 145.649 294.874 146.678L293.593 146.552L294.58 138.509H303.19V139.769H295.714L295.042 144.977C295.777 144.137 297.289 143.549 298.78 143.549C301.594 143.549 303.82 145.376 303.82 148.736C303.82 152.201 301.279 154.007 298.507 154.007C295.483 154.007 293.446 152.033 293.173 149.45H294.559C295 151.802 296.701 152.852 298.507 152.852ZM311.706 148.715H305.826V147.245H311.706V148.715ZM319.606 154.007C315.574 154.007 313.747 150.962 313.747 146.111C313.747 141.302 315.574 138.236 319.606 138.236C323.596 138.236 325.444 141.302 325.444 146.111C325.444 150.962 323.596 154.007 319.606 154.007ZM319.606 152.852C322.336 152.852 324.079 150.71 324.079 146.111C324.079 141.554 322.336 139.391 319.606 139.391C316.855 139.391 315.133 141.554 315.133 146.111C315.133 150.71 316.855 152.852 319.606 152.852ZM332.816 152.852C334.937 152.852 336.743 151.403 336.743 148.757C336.743 145.901 334.706 144.725 332.774 144.725C331.052 144.725 329.624 145.649 329.183 146.678L327.902 146.552L328.889 138.509H337.499V139.769H330.023L329.351 144.977C330.086 144.137 331.598 143.549 333.089 143.549C335.903 143.549 338.129 145.376 338.129 148.736C338.129 152.201 335.588 154.007 332.816 154.007C329.792 154.007 327.755 152.033 327.482 149.45H328.868C329.309 151.802 331.01 152.852 332.816 152.852Z" fill="black"/>
</g>
<defs>
<linearGradient id="paint0_linear_12467_25662" x1="48.0001" y1="228.5" x2="53.8855" y2="187.028" gradientUnits="userSpaceOnUse">
<stop stop-color="#EDDD0C"/>
<stop offset="1" stop-color="#CCBD00"/>
</linearGradient>
<linearGradient id="paint1_linear_12467_25662" x1="619" y1="148" x2="541.484" y2="34.0736" gradientUnits="userSpaceOnUse">
<stop stop-color="#EDDD0C"/>
<stop offset="1" stop-color="#CCBD00"/>
</linearGradient>
<clipPath id="clip0_12467_25662">
<rect width="560" height="240" fill="white"/>
</clipPath>
<clipPath id="clip1_12467_25662">
<rect width="560" height="240" fill="white"/>
</clipPath>
</defs>
</svg>
