<svg width="560" height="240" viewBox="0 0 560 240" fill="none" xmlns="http://www.w3.org/2000/svg">
<g clip-path="url(#clip0_9284_43167)">
<rect width="560" height="240" fill="#FFF100"/>
<g clip-path="url(#clip1_9284_43167)">
<rect width="560" height="240" fill="#FFF100"/>
<path d="M294.978 54.1962L443 54.1962C454.046 54.1962 463 63.1505 463 74.1962L463 167C463 178.046 471.954 187 483 187L583.619 187C594.665 187 603.619 178.046 603.619 167L603.619 -13.9535C603.619 -24.9992 594.665 -33.9535 583.619 -33.9535L294.978 -33.9539C283.932 -33.9539 274.978 -24.9996 274.978 -13.9539L274.978 34.1962C274.978 45.2419 283.932 54.1962 294.978 54.1962Z" fill="#EDDD0C"/>
<path d="M-22.5 45.3254L37.5002 45.3254C48.5459 45.3254 57.5002 54.2798 57.5002 65.3255L57.5 139C57.5 150.045 66.4543 159 77.5 159L114.5 159C125.546 159 134.5 167.954 134.5 179L134.5 268.827C134.5 279.873 125.546 288.827 114.5 288.827L-22.5 288.827C-33.5457 288.827 -42.5 279.873 -42.5 268.827L-42.5 65.3254C-42.5 54.2797 -33.5457 45.3254 -22.5 45.3254Z" fill="#EDDD0C"/>
<path d="M-86.0003 183L42.4775 183C59.0461 183 72.4775 196.431 72.4775 213L72.4776 370" stroke="url(#paint0_linear_9284_43167)" stroke-width="3" stroke-linecap="round" stroke-linejoin="round"/>
<path d="M515 -95L515 126C515 142.569 528.431 156 545 156L693 156" stroke="url(#paint1_linear_9284_43167)" stroke-width="3" stroke-linecap="round" stroke-linejoin="round"/>
</g>
<path d="M119.782 94.5071C119.782 89.2713 116.669 88.4751 113.485 88.4751H111.892V100.563H113.485C116.669 100.563 119.782 99.7912 119.782 94.5071ZM108.442 85.7727H113.629C119.179 85.7727 123.353 87.5582 123.353 94.5071C123.353 101.456 119.179 103.266 113.629 103.266H108.442V85.7727ZM133.415 103.266V101.553C132.667 102.88 131.244 103.579 129.627 103.579C126.515 103.579 125.26 101.673 125.26 98.4883V90.2847H128.59V97.7644C128.59 99.5016 128.855 100.901 130.713 100.901C132.933 100.901 133.415 99.0915 133.415 97.0406V90.2847H136.745V103.266H133.415ZM145.401 89.9951C148.128 89.9951 150.83 91.5152 151.289 94.7243H148.104C147.838 93.4696 146.68 92.5769 145.401 92.5769C143.664 92.5769 142.289 94.0487 142.289 96.751C142.289 99.4775 143.592 100.998 145.426 100.998C146.584 100.998 147.766 100.394 148.224 98.8502H151.409C150.637 102.397 147.959 103.579 145.257 103.579C141.372 103.579 138.887 100.732 138.887 96.7993C138.887 92.8423 141.517 89.9951 145.401 89.9951ZM153.398 85.7727H156.727V95.4964L161.456 90.2847H165.196L160.54 95.2551L165.462 103.266H161.722L158.32 97.6438L156.727 99.3569V103.266H153.398V85.7727ZM178.194 94.5071C178.194 89.2713 175.081 88.4751 171.896 88.4751H170.304V100.563H171.896C175.081 100.563 178.194 99.7912 178.194 94.5071ZM166.854 85.7727H172.041C177.591 85.7727 181.765 87.5582 181.765 94.5071C181.765 101.456 177.591 103.266 172.041 103.266H166.854V85.7727ZM184.196 103.266V85.7727H191C194.064 85.7727 197.37 86.7378 197.37 90.3329C197.37 91.9737 196.284 93.4455 195.391 94.0245C196.742 94.676 197.997 95.6894 197.997 98.1022C197.997 101.866 194.884 103.266 191.289 103.266H184.196ZM187.646 95.5929V100.563H191.458C193.485 100.563 194.474 99.7188 194.474 98.1022C194.474 96.4615 193.461 95.5929 191.313 95.5929H187.646ZM187.646 88.4751V92.987H191.217C192.858 92.987 193.823 92.2149 193.823 90.6707C193.823 89.2954 192.834 88.4751 191.217 88.4751H187.646ZM217.001 94.5071C217.001 89.2713 213.889 88.4751 210.704 88.4751H209.112V100.563H210.704C213.889 100.563 217.001 99.7912 217.001 94.5071ZM205.661 85.7727H210.849C216.398 85.7727 220.572 87.5582 220.572 94.5071C220.572 101.456 216.398 103.266 210.849 103.266H205.661V85.7727ZM235.207 97.692H225.628C225.821 99.9118 227.317 100.998 228.909 100.998C229.947 100.998 230.96 100.636 231.636 99.5016H235.062C234.362 101.432 232.48 103.579 228.933 103.579C224.759 103.579 222.322 100.467 222.322 96.7269C222.322 92.8664 225 89.9951 228.837 89.9951C232.842 89.9951 235.327 93.1077 235.207 97.692ZM228.813 92.4321C227.558 92.4321 225.941 93.2042 225.676 95.3998H231.829C231.756 93.2042 230.212 92.4321 228.813 92.4321ZM239.071 90.2847L242.111 99.8877L245.152 90.2847H248.457L243.8 103.266H240.302L235.573 90.2847H239.071ZM261.762 97.692H252.183C252.376 99.9118 253.872 100.998 255.464 100.998C256.502 100.998 257.515 100.636 258.191 99.5016H261.617C260.917 101.432 259.035 103.579 255.488 103.579C251.314 103.579 248.877 100.467 248.877 96.7269C248.877 92.8664 251.555 89.9951 255.392 89.9951C259.397 89.9951 261.882 93.1077 261.762 97.692ZM255.368 92.4321C254.113 92.4321 252.496 93.2042 252.231 95.3998H258.384C258.311 93.2042 256.767 92.4321 255.368 92.4321ZM267.236 85.7727V103.266H263.906V85.7727H267.236ZM275.867 92.601C274.033 92.601 272.731 94.0728 272.731 96.7993C272.731 99.5258 274.033 100.973 275.867 100.973C277.701 100.973 279.004 99.5258 279.004 96.7993C279.004 94.0728 277.701 92.601 275.867 92.601ZM275.867 103.579C272.586 103.579 269.353 101.335 269.353 96.7993C269.353 92.2391 272.586 89.9951 275.867 89.9951C279.149 89.9951 282.382 92.2391 282.382 96.7993C282.382 101.335 279.149 103.579 275.867 103.579ZM290.749 101.022C292.487 101.022 293.717 99.3327 293.717 96.7993C293.717 94.2658 292.487 92.5527 290.749 92.5527C288.916 92.5527 287.709 94.1693 287.709 96.7752C287.709 99.4534 288.916 101.022 290.749 101.022ZM287.83 107.488H284.5V90.2847H287.83V91.9495C288.53 90.719 289.929 89.9951 291.57 89.9951C294.706 89.9951 297.216 92.6975 297.216 96.7752C297.216 100.925 294.634 103.579 291.546 103.579C290.194 103.579 288.674 103.073 287.83 101.625V107.488ZM311.597 97.692H302.018C302.211 99.9118 303.707 100.998 305.299 100.998C306.337 100.998 307.35 100.636 308.026 99.5016H311.452C310.752 101.432 308.87 103.579 305.323 103.579C301.149 103.579 298.712 100.467 298.712 96.7269C298.712 92.8664 301.39 89.9951 305.227 89.9951C309.232 89.9951 311.717 93.1077 311.597 97.692ZM305.203 92.4321C303.948 92.4321 302.331 93.2042 302.066 95.3998H308.219C308.146 93.2042 306.602 92.4321 305.203 92.4321ZM321.173 90.3571V93.4937C320.69 93.4213 320.28 93.4213 319.798 93.4213C318.157 93.4213 317.071 94.0245 317.071 96.4615V103.266H313.741V90.2847H317.023V92.5527C317.771 90.9361 318.929 90.3088 320.449 90.3088C320.666 90.3088 320.956 90.3329 321.173 90.3571ZM339.353 103.266H335.927L331.608 90.1158V103.266H328.399V85.7727H333.418L337.664 99.4051L341.79 85.7727H346.857V103.266H343.648V90.1158L339.353 103.266ZM361.95 97.692H352.371C352.564 99.9118 354.06 100.998 355.653 100.998C356.69 100.998 357.703 100.636 358.379 99.5016H361.805C361.106 101.432 359.224 103.579 355.677 103.579C351.503 103.579 349.066 100.467 349.066 96.7269C349.066 92.8664 351.744 89.9951 355.58 89.9951C359.585 89.9951 362.071 93.1077 361.95 97.692ZM355.556 92.4321C354.301 92.4321 352.685 93.2042 352.419 95.3998H358.572C358.5 93.2042 356.956 92.4321 355.556 92.4321ZM376.488 97.692H366.909C367.102 99.9118 368.598 100.998 370.191 100.998C371.228 100.998 372.242 100.636 372.917 99.5016H376.343C375.644 101.432 373.762 103.579 370.215 103.579C366.041 103.579 363.604 100.467 363.604 96.7269C363.604 92.8664 366.282 89.9951 370.118 89.9951C374.124 89.9951 376.609 93.1077 376.488 97.692ZM370.094 92.4321C368.84 92.4321 367.223 93.2042 366.958 95.3998H373.11C373.038 93.2042 371.494 92.4321 370.094 92.4321ZM379.091 90.2847V86.762H382.421V90.2847H385.123V92.5769H382.421V99.2845C382.421 100.612 382.88 100.877 384.062 100.877H385.075V103.266H382.638C379.646 103.266 379.091 102.349 379.091 99.767V92.5769H377.258V90.2847H379.091ZM387.257 90.2847H390.587V103.266H387.257V90.2847ZM387.257 85.7727H390.587V88.8611H387.257V85.7727ZM396.901 90.2847V91.9978C397.649 90.6707 399.049 89.9951 400.665 89.9951C403.778 89.9951 405.153 91.8771 405.153 95.0862V103.266H401.824V95.81C401.824 94.1452 401.462 92.6734 399.58 92.6734C397.384 92.6734 396.901 94.4589 396.901 96.5097V103.266H393.572V90.2847H396.901ZM413.591 100.274C415.449 100.274 416.583 98.7054 416.583 96.3891C416.583 94.0969 415.449 92.5286 413.591 92.5286C411.878 92.5286 410.599 94.2417 410.599 96.4132C410.599 98.5606 411.878 100.274 413.591 100.274ZM416.462 90.2847H419.768V101.963C419.768 106.209 417.379 107.802 413.398 107.802C410.623 107.802 408.186 106.788 407.728 103.772H410.888C411.178 104.834 412.071 105.365 413.567 105.365C415.304 105.365 416.462 104.544 416.462 102.59V100.853C415.618 102.276 414.098 102.807 412.746 102.807C409.561 102.807 407.1 100.177 407.1 96.3891C407.1 92.6975 409.489 89.9951 412.746 89.9951C414.387 89.9951 415.883 90.8396 416.462 91.9737V90.2847ZM428.112 89.8262H431.49L432.045 85.7727H435.036L434.482 89.8262H437.691L438.246 85.7727H441.237L440.682 89.8262H444.012L443.698 92.408H440.321L439.814 96.0513H443.119L442.854 98.6089H439.452L438.825 103.266H435.833L436.46 98.6089H433.251L432.624 103.266H429.632L430.259 98.6089H426.954L427.267 96.0513H430.621L431.128 92.408H427.846L428.112 89.8262ZM434.12 92.408L433.613 96.0513H436.822L437.329 92.408H434.12ZM451.314 103.266H447.984V90.1882H444.22V87.9201C446.729 87.8477 447.96 87.6788 448.78 85.7727H451.314V103.266ZM212.705 127.266L219.22 109.773H222.694L229.233 127.266H225.493L224.262 123.719H217.458L216.228 127.266H212.705ZM220.86 113.995L218.448 120.896H223.273L220.86 113.995ZM246.691 127.266V119.714C246.691 118.29 246.571 116.673 244.616 116.673C242.396 116.673 242.035 118.531 242.035 120.51V127.266H238.705V119.714C238.705 118.29 238.584 116.673 236.63 116.673C234.41 116.673 234.048 118.531 234.048 120.51V127.266H230.718V114.285H234.048V115.998C234.796 114.719 236.099 113.995 237.667 113.995C239.863 113.995 240.852 115.177 241.359 116.118C242.396 114.671 243.675 113.995 245.63 113.995C248.887 113.995 250.021 116.022 250.021 119.086V127.266H246.691ZM263.244 118.193H260.131C259.866 117.108 258.901 116.336 257.356 116.336C256.126 116.336 255.257 116.794 255.257 117.59C255.257 118.29 255.764 118.821 256.994 119.086L258.732 119.472C261.313 120.051 263.509 120.703 263.509 123.381C263.509 125.987 260.831 127.579 257.887 127.579C254.702 127.579 252.289 125.939 251.976 122.971H255.185C255.378 124.225 256.246 125.166 257.984 125.166C259.431 125.166 260.324 124.636 260.324 123.695C260.324 122.73 259.335 122.368 258.201 122.102L256.271 121.692C253.834 121.185 252.217 120.172 252.217 117.807C252.217 115.491 254.726 113.947 257.525 113.947C260.228 113.947 262.785 115.202 263.244 118.193ZM266.215 114.285V110.762H269.544V114.285H272.247V116.577H269.544V123.284C269.544 124.612 270.003 124.877 271.185 124.877H272.198V127.266H269.761C266.769 127.266 266.215 126.349 266.215 123.767V116.577H264.381V114.285H266.215ZM286.42 121.692H276.841C277.034 123.912 278.53 124.998 280.123 124.998C281.16 124.998 282.173 124.636 282.849 123.502H286.275C285.575 125.432 283.693 127.579 280.147 127.579C275.972 127.579 273.536 124.467 273.536 120.727C273.536 116.866 276.214 113.995 280.05 113.995C284.055 113.995 286.541 117.108 286.42 121.692ZM280.026 116.432C278.771 116.432 277.155 117.204 276.889 119.4H283.042C282.97 117.204 281.425 116.432 280.026 116.432ZM295.996 114.357V117.494C295.514 117.421 295.103 117.421 294.621 117.421C292.98 117.421 291.894 118.025 291.894 120.461V127.266H288.565V114.285H291.846V116.553C292.594 114.936 293.752 114.309 295.272 114.309C295.49 114.309 295.779 114.333 295.996 114.357ZM309.578 127.266H306.248V125.625C305.404 127.073 303.86 127.579 302.509 127.579C299.42 127.579 296.863 124.925 296.863 120.775C296.863 116.697 299.372 113.995 302.509 113.995C304.149 113.995 305.549 114.719 306.248 115.95V109.773H309.578V127.266ZM303.329 125.022C305.163 125.022 306.369 123.453 306.369 120.775C306.369 118.169 305.163 116.553 303.329 116.553C301.592 116.553 300.361 118.266 300.361 120.799C300.361 123.333 301.592 125.022 303.329 125.022ZM320.682 122.295V121.33C316.942 121.716 315.47 122.15 315.47 123.598C315.47 124.539 316.194 125.311 317.714 125.311C319.814 125.311 320.682 124.201 320.682 122.295ZM320.972 125.649C320.031 127 318.679 127.579 316.725 127.579C314.24 127.579 312.044 126.132 312.044 123.767C312.044 120.703 315.47 119.786 320.586 119.207V118.99C320.586 116.987 319.5 116.287 318.149 116.287C316.87 116.287 315.808 116.939 315.736 118.386H312.623C312.889 115.829 314.964 113.947 318.318 113.947C321.382 113.947 323.915 115.298 323.915 119.665C323.915 120.051 323.867 121.813 323.867 122.971C323.867 125.022 323.988 126.18 324.253 127.266H321.189C321.092 126.855 321.044 126.3 320.972 125.649ZM342.662 127.266V119.714C342.662 118.29 342.541 116.673 340.587 116.673C338.367 116.673 338.005 118.531 338.005 120.51V127.266H334.676V119.714C334.676 118.29 334.555 116.673 332.6 116.673C330.381 116.673 330.019 118.531 330.019 120.51V127.266H326.689V114.285H330.019V115.998C330.767 114.719 332.07 113.995 333.638 113.995C335.834 113.995 336.823 115.177 337.33 116.118C338.367 114.671 339.646 113.995 341.6 113.995C344.858 113.995 345.992 116.022 345.992 119.086V127.266H342.662Z" fill="black"/>
<path d="M229.59 138.236C232.383 138.236 234.189 139.706 234.189 142.163C234.189 145.25 231.543 148.253 225.936 152.474H234.651V153.734H224.13V152.432C229.737 148.169 232.803 145.145 232.803 142.31C232.803 140.357 231.312 139.391 229.59 139.391C227.679 139.391 225.936 140.294 225.873 143.213H224.487C224.634 139.958 226.566 138.236 229.59 138.236ZM242.449 154.007C238.417 154.007 236.59 150.962 236.59 146.111C236.59 141.302 238.417 138.236 242.449 138.236C246.439 138.236 248.287 141.302 248.287 146.111C248.287 150.962 246.439 154.007 242.449 154.007ZM242.449 152.852C245.179 152.852 246.922 150.71 246.922 146.111C246.922 141.554 245.179 139.391 242.449 139.391C239.698 139.391 237.976 141.554 237.976 146.111C237.976 150.71 239.698 152.852 242.449 152.852ZM255.512 138.236C258.305 138.236 260.111 139.706 260.111 142.163C260.111 145.25 257.465 148.253 251.858 152.474H260.573V153.734H250.052V152.432C255.659 148.169 258.725 145.145 258.725 142.31C258.725 140.357 257.234 139.391 255.512 139.391C253.601 139.391 251.858 140.294 251.795 143.213H250.409C250.556 139.958 252.488 138.236 255.512 138.236ZM263.856 148.904C263.856 151.235 265.473 152.852 267.741 152.852C270.03 152.852 271.626 151.235 271.626 148.904C271.626 146.405 270.093 144.788 267.741 144.788C265.389 144.788 263.856 146.405 263.856 148.904ZM267.993 139.391C265.326 139.391 263.604 141.68 263.604 146.069C264.297 144.641 265.872 143.633 267.888 143.633C270.912 143.633 273.012 145.817 273.012 148.841C273.012 151.697 270.954 154.007 267.741 154.007C263.982 154.007 262.281 151.319 262.281 146.72C262.281 141.932 263.814 138.236 268.203 138.236C270.933 138.236 272.487 139.832 272.76 142.016H271.374C271.101 140.231 269.778 139.391 267.993 139.391ZM280.896 148.715H275.016V147.245H280.896V148.715ZM288.797 154.007C284.765 154.007 282.938 150.962 282.938 146.111C282.938 141.302 284.765 138.236 288.797 138.236C292.787 138.236 294.635 141.302 294.635 146.111C294.635 150.962 292.787 154.007 288.797 154.007ZM288.797 152.852C291.527 152.852 293.27 150.71 293.27 146.111C293.27 141.554 291.527 139.391 288.797 139.391C286.046 139.391 284.324 141.554 284.324 146.111C284.324 150.71 286.046 152.852 288.797 152.852ZM300.558 153.734H299.256V141.407H295.77V140.525C298.437 140.525 299.109 140.252 299.676 138.383H300.558V153.734ZM309.382 148.715H303.502V147.245H309.382V148.715ZM315.98 152.852C318.29 152.852 319.97 151.655 319.97 149.534C319.97 147.203 318.206 146.258 315.35 146.258H315.224V145.103H315.35C318.206 145.103 319.571 144.053 319.571 142.205C319.571 140.63 318.332 139.391 316.085 139.391C314.489 139.391 312.662 140.252 312.326 142.604H310.94C311.276 140 313.145 138.236 316.19 138.236C319.109 138.236 320.957 139.706 320.957 142.079C320.957 143.591 320.159 145.04 318.458 145.628C320.075 146.069 321.356 147.161 321.356 149.513C321.356 152.537 318.836 154.007 316.001 154.007C312.956 154.007 310.919 152.033 310.646 149.45H312.032C312.473 151.802 314.174 152.852 315.98 152.852ZM329.259 154.007C325.227 154.007 323.4 150.962 323.4 146.111C323.4 141.302 325.227 138.236 329.259 138.236C333.249 138.236 335.097 141.302 335.097 146.111C335.097 150.962 333.249 154.007 329.259 154.007ZM329.259 152.852C331.989 152.852 333.732 150.71 333.732 146.111C333.732 141.554 331.989 139.391 329.259 139.391C326.508 139.391 324.786 141.554 324.786 146.111C324.786 150.71 326.508 152.852 329.259 152.852Z" fill="black"/>
<g clip-path="url(#clip2_9284_43167)">
<path d="M240.734 205.441C245.987 205.441 250.244 209.697 250.244 214.95C250.244 220.203 245.987 224.459 240.734 224.459C235.481 224.459 231.225 220.203 231.225 214.95C231.187 209.697 235.443 205.441 240.734 205.441Z" fill="black"/>
<path d="M235.635 216.407H237.513V213.57H235.635C234.868 213.57 234.216 214.221 234.216 214.988C234.216 215.755 234.829 216.407 235.635 216.407Z" fill="#FFF100"/>
<path d="M246.639 214.988C246.639 212.803 244.875 211.039 242.69 211.039C240.504 211.039 238.74 212.803 238.74 214.988C238.74 217.174 240.504 218.938 242.69 218.938C244.875 218.938 246.639 217.097 246.639 214.988Z" fill="#FFF100"/>
<path d="M268.879 212.497V216.485C268.879 217.328 268.342 217.942 267.614 217.942H267.269C266.54 217.942 266.003 217.328 266.003 216.485V212.497H264.623V216.715C264.623 218.248 265.735 219.322 267.23 219.322H267.652C269.186 219.322 270.26 218.21 270.26 216.715V212.497H268.879ZM310.176 216.485V215.219C310.176 214.299 310.713 213.647 311.518 213.647H311.863C312.86 213.647 313.55 214.414 313.55 215.488V216.178C313.55 217.29 312.822 218.057 311.863 218.057H311.518C310.713 218.018 310.176 217.405 310.176 216.485ZM308.911 216.485C308.911 218.133 309.984 219.322 311.48 219.322H311.825C312.438 219.322 312.975 219.015 313.397 218.517V219.207H314.739V212.497H313.397V213.225C312.975 212.727 312.438 212.42 311.825 212.42H311.48C309.946 212.42 308.911 213.57 308.911 215.258V216.485ZM302.967 219.207H308.259V217.827H304.348V210.541H302.967V219.207ZM317.308 216.178V215.488C317.308 214.414 317.998 213.647 318.995 213.647H319.34C320.146 213.647 320.682 214.299 320.682 215.219V216.446C320.682 217.367 320.146 218.018 319.34 218.018H318.995C317.998 218.018 317.308 217.29 317.308 216.178ZM316.081 219.207H317.423V218.479C317.845 218.977 318.382 219.284 318.995 219.284H319.34C320.874 219.284 321.948 218.095 321.948 216.446V215.219C321.948 213.532 320.874 212.382 319.34 212.382H318.995C318.382 212.382 317.845 212.689 317.423 213.187V210.58H316.081V219.207ZM326.818 214.376H328.121C327.891 213.149 326.856 212.382 325.399 212.382C323.75 212.382 322.753 213.11 322.753 214.299C322.753 215.219 323.482 215.948 324.67 216.14L325.744 216.37C326.472 216.523 326.933 216.83 326.933 217.29C326.933 217.827 326.396 218.172 325.552 218.172C324.709 218.172 324.172 217.75 324.018 217.098H322.638C322.83 218.479 323.903 219.322 325.476 219.322C327.201 219.322 328.236 218.44 328.236 217.098C328.236 216.101 327.354 215.373 325.936 215.104L324.939 214.913C324.402 214.759 324.057 214.491 324.057 214.146C324.057 213.724 324.555 213.455 325.322 213.455C326.166 213.494 326.703 213.839 326.818 214.376ZM281.61 214.913L284.179 212.19H282.223L279.961 214.644V210.541H278.58V219.169H279.961V216.638L280.613 215.948L282.875 219.207H284.6L281.61 214.913ZM259.868 217.827H258.181V211.96H259.868C261.172 211.96 262.207 213.264 262.207 214.874C262.207 216.485 261.172 217.827 259.868 217.827ZM259.868 210.541H256.801V219.207H259.868C261.901 219.207 263.588 217.29 263.588 214.874C263.588 212.458 261.939 210.541 259.868 210.541ZM288.627 217.827H286.978V211.96H288.627C289.93 211.96 290.966 213.264 290.966 214.874C290.966 216.485 289.93 217.827 288.627 217.827ZM288.627 210.541H285.597V219.207H288.627C290.697 219.207 292.346 217.29 292.346 214.874C292.346 212.458 290.697 210.541 288.627 210.541ZM296.947 217.827H294.8V215.411H296.947C297.599 215.411 298.136 215.948 298.136 216.6C298.136 217.29 297.599 217.827 296.947 217.827ZM294.8 214.031V211.96H296.526C297.101 211.96 297.561 212.42 297.561 212.995C297.561 213.57 297.101 214.031 296.526 214.031H294.8ZM298.443 214.491C298.75 214.069 298.98 213.532 298.98 212.995C298.98 211.653 297.868 210.541 296.526 210.541H293.42V219.207H296.947C298.366 219.207 299.516 218.057 299.516 216.6C299.516 215.756 299.095 214.951 298.443 214.491ZM274.209 213.762H274.554C275.398 213.762 276.05 214.376 276.05 215.104H277.468C277.468 213.609 276.165 212.382 274.554 212.382H274.209C272.637 212.382 271.372 213.647 271.372 215.219V216.446C271.372 218.018 272.637 219.284 274.209 219.284H274.554C276.203 219.284 277.545 218.057 277.545 216.561H276.126C276.126 217.29 275.398 217.865 274.554 217.865H274.209C273.404 217.865 272.752 217.213 272.752 216.446V215.219C272.752 214.414 273.404 213.762 274.209 213.762Z" fill="black"/>
</g>
</g>
<defs>
<linearGradient id="paint0_linear_9284_43167" x1="47.9998" y1="228.5" x2="53.8852" y2="187.028" gradientUnits="userSpaceOnUse">
<stop stop-color="#EDDD0C"/>
<stop offset="1" stop-color="#CCBD00"/>
</linearGradient>
<linearGradient id="paint1_linear_9284_43167" x1="619" y1="148" x2="541.484" y2="34.0736" gradientUnits="userSpaceOnUse">
<stop stop-color="#EDDD0C"/>
<stop offset="1" stop-color="#CCBD00"/>
</linearGradient>
<clipPath id="clip0_9284_43167">
<rect width="560" height="240" fill="white"/>
</clipPath>
<clipPath id="clip1_9284_43167">
<rect width="560" height="240" fill="white"/>
</clipPath>
<clipPath id="clip2_9284_43167">
<rect width="97.0112" height="19.0188" fill="white" transform="translate(231.226 205.441)"/>
</clipPath>
</defs>
</svg>
