<svg xmlns="http://www.w3.org/2000/svg" xmlns:xlink="http://www.w3.org/1999/xlink" width="100%" height="100%" version="1.1" viewBox="0 0 2008 473" xml:space="preserve" style="fill-rule:evenodd;clip-rule:evenodd;stroke-linecap:round;stroke-linejoin:round;stroke-miterlimit:1.5"><g><g><path d="M884,443.5C884,414.524 876.393,391 867.024,391L419.976,391C410.607,391 403,414.524 403,443.5L403,688.5C403,717.476 410.607,741 419.976,741L867.024,741C876.393,741 884,717.476 884,688.5L884,443.5Z" transform="matrix(1,0,0,1,-219.097,-329.78) matrix(4.17437,0,0,1.34983,-1463.18,-198.004)" style="fill:#f2f2f2"/></g><g><g><path d="M884,443.5C884,414.524 859.753,391 829.887,391L457.113,391C427.247,391 403,414.524 403,443.5L403,688.5C403,717.476 427.247,741 457.113,741L829.887,741C859.753,741 884,717.476 884,688.5L884,443.5Z" transform="matrix(1,0,0,1,-219.097,-329.78) matrix(0.982206,0,0,1.01237,-117.419,-7.00337)" style="fill:#ccc;stroke:#000;stroke-width:4.18px"/><g><text x="451.08" y="584.055" transform="matrix(1,0,0,1,-219.097,-329.78) matrix(0.982206,0,0,1.01237,-117.419,-7.00337) matrix(1.01812,0,0,0.987778,-7.30102,4.77889)" style="font-family:'Menlo-Regular','Menlo',monospace;font-size:41.667px">Tuples 0 - 10 K</text></g></g><g><path d="M884,443.5C884,414.524 859.753,391 829.887,391L457.113,391C427.247,391 403,414.524 403,443.5L403,688.5C403,717.476 427.247,741 457.113,741L829.887,741C859.753,741 884,717.476 884,688.5L884,443.5Z" transform="matrix(1,0,0,1,-219.097,-329.78) matrix(0.982206,0,0,1.01237,591.106,-7.00337)" style="fill:#ccc;stroke:#000;stroke-width:4.18px"/><g><text x="413.451" y="584.055" transform="matrix(1,0,0,1,-219.097,-329.78) matrix(0.982206,0,0,1.01237,591.106,-7.00337) matrix(1.01812,0,0,0.987778,-7.30102,4.77889)" style="font-family:'Menlo-Regular','Menlo',monospace;font-size:41.667px">Tuples 10 K - 20 K</text></g></g><g><path d="M884,443.5C884,414.524 859.753,391 829.887,391L457.113,391C427.247,391 403,414.524 403,443.5L403,688.5C403,717.476 427.247,741 457.113,741L829.887,741C859.753,741 884,717.476 884,688.5L884,443.5Z" transform="matrix(1,0,0,1,-219.097,-329.78) matrix(0.982206,0,0,1.01237,1299.39,-7.00337)" style="fill:#ccc;stroke:#000;stroke-width:4.18px"/><g><text x="412.618" y="584.055" transform="matrix(1,0,0,1,-219.097,-329.78) matrix(0.982206,0,0,1.01237,1299.39,-7.00337) matrix(1.01812,0,0,0.987778,-7.30102,4.77889)" style="font-family:'Menlo-Regular','Menlo',monospace;font-size:41.667px">Tuples</text><text x="588.216" y="584.055" transform="matrix(1,0,0,1,-219.097,-329.78) matrix(0.982206,0,0,1.01237,1299.39,-7.00337) matrix(1.01812,0,0,0.987778,-7.30102,4.77889)" style="font-family:'Menlo-Regular','Menlo',monospace;font-size:41.667px">2</text><text x="614.968" y="584.055" transform="matrix(1,0,0,1,-219.097,-329.78) matrix(0.982206,0,0,1.01237,1299.39,-7.00337) matrix(1.01812,0,0,0.987778,-7.30102,4.77889)" style="font-family:'Menlo-Regular','Menlo',monospace;font-size:41.667px">0 K - 30 K</text></g></g><g><g><path d="M743.507,74.977L767.838,61.22L764.244,88.939L743.507,74.977Z" transform="matrix(1,0,0,1,-219.097,-329.78) matrix(1,0,0,1,-12.7226,0) matrix(1,-0,-0,1,231.819,329.78)"/><path d="M532.181,411.22C532.181,411.22 709.893,147.281 756.668,77.81" transform="matrix(1,0,0,1,-219.097,-329.78) matrix(1,0,0,1,-12.7226,0) matrix(1,-0,-0,1,231.819,329.78)" style="fill:none;stroke:#000;stroke-width:4.17px"/></g></g><g><g><path d="M1451.61,74.977L1475.94,61.22L1472.34,88.939L1451.61,74.977Z" transform="matrix(1,0,0,1,-219.097,-329.78) matrix(1,0,0,1,695.376,0) matrix(1,-0,-0,1,-476.279,329.78)"/><path d="M1240.28,411.22C1240.28,411.22 1417.99,147.281 1464.77,77.81" transform="matrix(1,0,0,1,-219.097,-329.78) matrix(1,0,0,1,695.376,0) matrix(1,-0,-0,1,-476.279,329.78)" style="fill:none;stroke:#000;stroke-width:4.17px"/></g></g></g></g></svg>