<svg width="375" height="212" viewBox="0 0 375 212" fill="none" xmlns="http://www.w3.org/2000/svg">
<g clip-path="url(#clip0_8817_19963)">
<rect width="375" height="210.938" transform="translate(0 0.761719)" fill="#FFF100"/>
<path d="M112.148 164.473L280.898 164.473C288.665 164.473 294.961 158.177 294.961 150.41L294.961 53.0272C294.961 45.2607 301.257 38.9647 309.023 38.9647L394.453 38.9647C402.22 38.9647 408.516 45.2607 408.516 53.0272L408.516 207.715C408.516 215.481 402.22 221.777 394.453 221.777L112.148 221.777C104.382 221.777 98.086 215.481 98.086 207.715L98.086 178.535C98.0859 170.769 104.382 164.473 112.148 164.473Z" fill="#EDDD0C"/>
<path d="M47.6949 132.129L47.6947 56.4691C47.6947 48.7026 53.9907 42.4066 61.7572 42.4066L243.75 42.4066C251.517 42.4066 257.813 36.1106 257.813 28.3441L257.813 -5.56653C257.813 -13.333 251.517 -19.629 243.75 -19.629L7.50001 -19.6291C-0.266496 -19.6291 -6.56249 -13.333 -6.56249 -5.56654L-6.5625 132.129C-6.5625 139.895 -0.26651 146.191 7.5 146.191L33.6324 146.191C41.399 146.191 47.6949 139.895 47.6949 132.129Z" fill="#EDDD0C"/>
<path d="M305.391 -81.0352L144.699 -81.035C129.166 -81.035 116.574 -68.443 116.574 -52.91L116.574 35.2148C116.574 50.7478 103.982 63.3398 88.4486 63.3398L-109.453 63.3398" stroke="url(#paint0_linear_8817_19963)" stroke-width="3.51562" stroke-linecap="round" stroke-linejoin="round"/>
<path d="M317.578 300.996V156.152C317.578 140.619 330.17 128.027 345.703 128.027L689.062 128.027" stroke="url(#paint1_linear_8817_19963)" stroke-width="3.51562" stroke-linecap="round" stroke-linejoin="round"/>
</g>
<defs>
<linearGradient id="paint0_linear_8817_19963" x1="147.773" y1="25.3711" x2="-47.8194" y2="12.7575" gradientUnits="userSpaceOnUse">
<stop stop-color="#EDDD0C"/>
<stop offset="1" stop-color="#CCBD00"/>
</linearGradient>
<linearGradient id="paint1_linear_8817_19963" x1="430.078" y1="139.512" x2="390.389" y2="203.198" gradientUnits="userSpaceOnUse">
<stop stop-color="#EDDD0C"/>
<stop offset="1" stop-color="#CCBD00"/>
</linearGradient>
<clipPath id="clip0_8817_19963">
<rect width="375" height="210.938" fill="white" transform="translate(0 0.761719)"/>
</clipPath>
</defs>
</svg>
