<svg width="521" height="48" viewBox="0 0 521 48" fill="none" xmlns="http://www.w3.org/2000/svg">
<g clip-path="url(#clip0_8838_13763)">
<path d="M23.7917 47.762C10.6522 47.762 0 37.2406 0 24.2623C0 11.2841 10.5981 0.762695 23.7917 0.762695C36.9854 0.762695 47.5835 11.2841 47.5835 24.2623C47.5835 37.2406 36.9313 47.762 23.7917 47.762Z" fill="#1A1A1A"/>
<path d="M18.0872 14.541C12.68 14.541 8.24609 18.9205 8.24609 24.2613C8.24609 29.6556 12.68 33.9817 18.0872 33.9817C23.4944 33.9817 27.9283 29.6022 27.9283 24.2613C27.9283 18.9205 23.4944 14.541 18.0872 14.541Z" fill="#2EAFFF"/>
<path d="M35.7963 20.7627H31.1191V27.7593H35.7963C37.7523 27.7593 39.3381 26.193 39.3381 24.261C39.3381 22.3289 37.7524 20.7627 35.7963 20.7627Z" fill="#2EAFFF"/>
<path d="M88.0302 28.0562C88.0302 30.1392 87.4354 31.8821 85.2185 31.8821C83.0015 31.8821 82.4067 30.1392 82.4067 28.0562V19.1904H78.4053V28.9107C78.4053 32.7027 81.4875 34.9133 85.2185 34.9133C88.9494 34.9133 92.0316 32.7027 92.0316 28.9107V19.1904L88.0302 19.1904V28.0562Z" fill="#7D66FF"/>
<path d="M64.3995 13.877L58.1973 13.877V34.537H64.3995C71.0359 34.537 76.0276 32.3991 76.0276 24.1931C76.0276 15.9858 71.0359 13.877 64.3995 13.877ZM64.2271 31.3459H62.3232V17.0687H64.2271C68.0351 17.0687 71.7574 18.009 71.7574 24.1931C71.7574 30.4328 68.0351 31.3459 64.2271 31.3459Z" fill="#7D66FF"/>
<path d="M102.227 31.8582C100.035 31.8582 98.4766 30.0633 98.4766 26.8432C98.4766 23.6515 100.121 21.9134 102.198 21.9134C103.728 21.9134 105.112 22.9679 105.43 24.4499L109.238 24.4499C108.69 20.6597 105.458 18.8643 102.198 18.8643C97.5534 18.8643 94.4082 22.2269 94.4082 26.9C94.4082 31.5453 97.3797 34.9079 102.025 34.9079C105.256 34.9079 108.459 33.5117 109.382 29.3217H105.574C105.026 31.1455 103.611 31.8582 102.227 31.8582Z" fill="#7D66FF"/>
<path d="M125.825 19.2059L121.353 19.2059L115.698 25.3617V13.877H111.717V34.537H115.698V29.9206L117.602 27.8975L121.671 34.537H126.143L120.257 25.0766L125.825 19.2059Z" fill="#7D66FF"/>
<path d="M133.986 13.877L127.784 13.877V34.537H133.986C140.623 34.537 145.615 32.3991 145.615 24.1931C145.615 15.9858 140.623 13.877 133.986 13.877ZM133.814 31.3459H131.91V17.0687H133.814C137.622 17.0687 141.344 18.009 141.344 24.1931C141.344 30.4328 137.622 31.3459 133.814 31.3459Z" fill="#7D66FF"/>
<path d="M161.884 23.623C162.951 22.9393 164.25 21.2007 164.25 19.2633C164.25 15.0171 160.296 13.877 156.633 13.877L148.497 13.877V34.537H156.979C161.278 34.537 164.999 32.8847 164.999 28.4386C164.999 25.5893 163.499 24.3924 161.884 23.623ZM152.623 17.0687H156.892C158.825 17.0687 160.009 18.0373 160.009 19.6619C160.009 21.4857 158.855 22.3976 156.892 22.3976H152.623V17.0687ZM157.181 31.3459H152.623V25.4746H157.008C159.576 25.4746 160.788 26.5013 160.788 28.4386C160.788 30.3482 159.604 31.3459 157.181 31.3459Z" fill="#7D66FF"/>
<path d="M0.373047 0.761719L170.599 48.5078" stroke="#FF0000"/>
<path d="M0.373047 48.5078L170.599 0.76178" stroke="#FF0000"/>
</g>
<g clip-path="url(#clip1_8838_13763)">
<path d="M228.121 47.762C220.875 47.762 215 37.2406 215 24.2623C215 11.2841 220.845 0.762695 228.121 0.762695C235.398 0.762695 241.243 11.2841 241.243 24.2623C241.243 37.2406 235.368 47.762 228.121 47.762Z" fill="#1A1A1A"/>
<path d="M224.975 14.541C221.993 14.541 219.548 18.9205 219.548 24.2613C219.548 29.6556 221.993 33.9817 224.975 33.9817C227.958 33.9817 230.403 29.6022 230.403 24.2613C230.403 18.9205 227.958 14.541 224.975 14.541Z" fill="#FFF100"/>
<path d="M234.743 20.7627H232.163V27.7593H234.743C235.821 27.7593 236.696 26.193 236.696 24.261C236.696 22.3289 235.821 20.7627 234.743 20.7627Z" fill="#FFF100"/>
<path d="M263.55 28.0562C263.55 30.1392 263.222 31.8821 262 31.8821C260.777 31.8821 260.449 30.1392 260.449 28.0562V19.1904H258.242V28.9107C258.242 32.7027 259.942 34.9133 262 34.9133C264.057 34.9133 265.757 32.7027 265.757 28.9107V19.1904H263.55V28.0562Z" fill="#1D1D1B"/>
<path d="M250.517 13.877H247.097V34.537H250.517C254.177 34.537 256.93 32.3991 256.93 24.1931C256.93 15.9858 254.177 13.877 250.517 13.877ZM250.422 31.3459H249.372V17.0687H250.422C252.522 17.0687 254.575 18.009 254.575 24.1931C254.575 30.4328 252.522 31.3459 250.422 31.3459Z" fill="#1D1D1B"/>
<path d="M271.38 31.8582C270.17 31.8582 269.311 30.0633 269.311 26.8432C269.311 23.6515 270.218 21.9134 271.363 21.9134C272.207 21.9134 272.971 22.9679 273.146 24.4499H275.246C274.944 20.6597 273.161 18.8643 271.363 18.8643C268.802 18.8643 267.067 22.2269 267.067 26.9C267.067 31.5453 268.706 34.9079 271.268 34.9079C273.05 34.9079 274.816 33.5117 275.326 29.3217H273.226C272.923 31.1455 272.143 31.8582 271.38 31.8582Z" fill="#1D1D1B"/>
<path d="M284.394 19.2059H281.928L278.809 25.3617V13.877H276.613V34.537H278.809V29.9206L279.859 27.8975L282.103 34.537H284.569L281.323 25.0766L284.394 19.2059Z" fill="#1D1D1B"/>
<path d="M288.896 13.877H285.476V34.537H288.896C292.556 34.537 295.309 32.3991 295.309 24.1931C295.309 15.9858 292.556 13.877 288.896 13.877ZM288.801 31.3459H287.751V17.0687H288.801C290.901 17.0687 292.954 18.009 292.954 24.1931C292.954 30.4328 290.901 31.3459 288.801 31.3459Z" fill="#1D1D1B"/>
<path d="M304.281 23.623C304.87 22.9393 305.586 21.2007 305.586 19.2633C305.586 15.0171 303.406 13.877 301.385 13.877H296.898V34.537H301.576C303.947 34.537 306 32.8847 306 28.4386C306 25.5893 305.172 24.3924 304.281 23.623ZM299.174 17.0687H301.528C302.595 17.0687 303.247 18.0373 303.247 19.6619C303.247 21.4857 302.611 22.3976 301.528 22.3976H299.174V17.0687ZM301.687 31.3459H299.174V25.4746H301.592C303.009 25.4746 303.677 26.5013 303.677 28.4386C303.677 30.3482 303.024 31.3459 301.687 31.3459Z" fill="#1D1D1B"/>
<path d="M215.37 0.761719L306.37 48.5078" stroke="#FF0000"/>
<path d="M215.37 48.5078L306.37 0.76178" stroke="#FF0000"/>
</g>
<g clip-path="url(#clip2_8838_13763)">
<path d="M403.31 24.2618C403.31 37.3911 392.78 48.0352 379.792 48.0352C366.804 48.0352 356.274 37.4452 356.274 24.2618C356.274 11.0783 366.804 0.488315 379.792 0.488315C392.78 0.488314 403.31 11.1323 403.31 24.2618Z" fill="#1A1A1A"/>
<path d="M370.063 29.9624C370.063 35.3654 374.446 39.7959 379.791 39.7959C385.19 39.7959 389.519 35.3654 389.519 29.9624C389.519 24.5593 385.136 20.1288 379.791 20.1288C374.446 20.1288 370.063 24.5593 370.063 29.9624Z" fill="#FFF100"/>
<path d="M376.29 12.2669L376.29 16.9404L383.292 16.9404L383.292 12.2669C383.292 10.3123 381.725 8.72783 379.791 8.72783C377.857 8.72783 376.29 10.3123 376.29 12.2669Z" fill="#FFF100"/>
<path d="M444.03 28.0562C444.03 30.1392 443.435 31.8821 441.219 31.8821C439.002 31.8821 438.407 30.1392 438.407 28.0562V19.1904H434.405V28.9107C434.405 32.7027 437.487 34.9133 441.219 34.9133C444.949 34.9133 448.032 32.7027 448.032 28.9107V19.1904L444.03 19.1904V28.0562Z" fill="#1D1D1B"/>
<path d="M420.4 13.877L414.197 13.877V34.537H420.4C427.036 34.537 432.028 32.3991 432.028 24.1931C432.028 15.9858 427.036 13.877 420.4 13.877ZM420.227 31.3459H418.323V17.0687H420.227C424.035 17.0687 427.757 18.009 427.757 24.1931C427.757 30.4328 424.035 31.3459 420.227 31.3459Z" fill="#1D1D1B"/>
<path d="M458.227 31.8582C456.035 31.8582 454.477 30.0633 454.477 26.8432C454.477 23.6515 456.121 21.9134 458.198 21.9134C459.728 21.9134 461.112 22.9679 461.43 24.4499L465.238 24.4499C464.69 20.6597 461.458 18.8643 458.198 18.8643C453.553 18.8643 450.408 22.2269 450.408 26.9C450.408 31.5453 453.38 34.9079 458.025 34.9079C461.256 34.9079 464.459 33.5117 465.382 29.3217H461.574C461.026 31.1455 459.611 31.8582 458.227 31.8582Z" fill="#1D1D1B"/>
<path d="M481.825 19.2059L477.353 19.2059L471.698 25.3617V13.877H467.717V34.537H471.698V29.9206L473.602 27.8975L477.671 34.537H482.143L476.257 25.0766L481.825 19.2059Z" fill="#1D1D1B"/>
<path d="M489.986 13.877L483.784 13.877V34.537H489.986C496.623 34.537 501.615 32.3991 501.615 24.1931C501.615 15.9858 496.623 13.877 489.986 13.877ZM489.814 31.3459H487.91V17.0687H489.814C493.622 17.0687 497.344 18.009 497.344 24.1931C497.344 30.4328 493.622 31.3459 489.814 31.3459Z" fill="#1D1D1B"/>
<path d="M517.884 23.623C518.951 22.9393 520.25 21.2007 520.25 19.2633C520.25 15.0171 516.296 13.877 512.633 13.877L504.497 13.877V34.537H512.979C517.278 34.537 520.999 32.8847 520.999 28.4386C520.999 25.5893 519.499 24.3924 517.884 23.623ZM508.623 17.0687H512.892C514.825 17.0687 516.009 18.0373 516.009 19.6619C516.009 21.4857 514.855 22.3976 512.892 22.3976H508.623V17.0687ZM513.181 31.3459H508.623V25.4746H513.008C515.576 25.4746 516.788 26.5013 516.788 28.4386C516.788 30.3482 515.604 31.3459 513.181 31.3459Z" fill="#1D1D1B"/>
<path d="M356.373 0.761719L526.599 48.5078" stroke="#FF0000"/>
<path d="M356.373 48.5078L526.599 0.76178" stroke="#FF0000"/>
</g>
<defs>
<clipPath id="clip0_8838_13763">
<rect width="165" height="47" fill="white" transform="translate(0 0.761719)"/>
</clipPath>
<clipPath id="clip1_8838_13763">
<rect width="91" height="47" fill="white" transform="translate(215 0.761719)"/>
</clipPath>
<clipPath id="clip2_8838_13763">
<rect width="165" height="47" fill="white" transform="translate(356 0.761719)"/>
</clipPath>
</defs>
</svg>
