<svg xmlns="http://www.w3.org/2000/svg" width="277" height="119" fill="none" viewBox="0 0 277 119"><rect width="276.386" height="118.386" fill="#fff" transform="translate(0 0.375977)"/><path fill="#E6E6E6" d="M59.3073 0.375977H51V28.0692H59.3073C68.196 28.0692 74.8819 25.2035 74.8819 14.204C74.8819 3.20277 68.196 0.375977 59.3073 0.375977ZM59.0764 23.7918H56.5262V4.65422H59.0764C64.1767 4.65422 69.1624 5.91462 69.1624 14.204C69.1624 22.5678 64.1767 23.7918 59.0764 23.7918Z"/><path fill="#E6E6E6" d="M27.6934 55.9352L27.6934 47.6279L0.000131607 47.6279L0.000131244 55.9352C0.000130855 64.824 2.86579 71.5098 13.8654 71.5098C24.8666 71.5098 27.6934 64.824 27.6934 55.9352ZM4.27756 55.7043L4.27756 53.1541L23.4151 53.1541L23.4151 55.7043C23.4151 60.8046 22.1547 65.7903 13.8654 65.7903C5.50154 65.7903 4.27756 60.8046 4.27756 55.7043Z"/><g clip-path="url(#clip0_8817_19655)"><path fill="#1A1A1A" d="M59.5598 91.0694C41.9609 91.0694 27.6934 76.9662 27.6934 59.5698C27.6934 42.1735 41.8884 28.0703 59.5598 28.0703C77.2313 28.0703 91.4264 42.1735 91.4264 59.5698C91.4264 76.9662 77.1589 91.0694 59.5598 91.0694Z"/><path fill="#FFF100" d="M51.9184 46.54C44.676 46.54 38.7373 52.4104 38.7373 59.5694C38.7373 66.8 44.676 72.5988 51.9184 72.5988C59.1608 72.5988 65.0996 66.7284 65.0996 59.5694C65.0996 52.4104 59.1608 46.54 51.9184 46.54Z"/><path fill="#FFF100" d="M75.6376 54.8799H69.373V64.2583H75.6376C78.2575 64.2583 80.3814 62.1589 80.3814 59.5691C80.3814 56.9793 78.2575 54.8799 75.6376 54.8799Z"/><path fill="#1D1D1B" d="M145.601 64.6564C145.601 67.4484 144.805 69.7847 141.836 69.7847C138.866 69.7847 138.07 67.4484 138.07 64.6564V52.7725H132.71V65.8018C132.71 70.8847 136.838 73.8478 141.836 73.8478C146.833 73.8478 150.961 70.8847 150.961 65.8018V52.7725H145.601V64.6564Z"/><path fill="#1D1D1B" d="M113.95 45.6504H105.643V73.3436H113.95C122.839 73.3436 129.524 70.478 129.524 59.4784C129.524 48.4772 122.839 45.6504 113.95 45.6504ZM113.719 69.0662H111.169V49.9286H113.719C118.819 49.9286 123.805 51.189 123.805 59.4784C123.805 67.8422 118.819 69.0662 113.719 69.0662Z"/><path fill="#1D1D1B" d="M164.616 69.7523C161.679 69.7523 159.593 67.3465 159.593 63.0302C159.593 58.7519 161.796 56.4222 164.577 56.4222C166.626 56.4222 168.48 57.8356 168.906 59.8221H174.006C173.272 54.7416 168.943 52.335 164.577 52.335C158.356 52.335 154.144 56.8423 154.144 63.1063C154.144 69.333 158.124 73.8403 164.346 73.8403C168.673 73.8403 172.963 71.9687 174.199 66.3524H169.099C168.365 68.7971 166.47 69.7523 164.616 69.7523Z"/><path fill="#1D1D1B" d="M196.222 52.7935H190.233L182.659 61.0448V45.6504H177.326V73.3436H182.659V67.1557L185.209 64.4439L190.658 73.3436H196.648L188.765 60.6627L196.222 52.7935Z"/><path fill="#1D1D1B" d="M207.155 45.6504H198.848V73.3436H207.155C216.044 73.3436 222.73 70.478 222.73 59.4784C222.73 48.4772 216.044 45.6504 207.155 45.6504ZM206.924 69.0662H204.374V49.9286H206.924C212.024 49.9286 217.01 51.189 217.01 59.4784C217.01 67.8422 212.024 69.0662 206.924 69.0662Z"/><path fill="#1D1D1B" d="M244.52 58.7142C245.95 57.7978 247.689 55.4673 247.689 52.8704C247.689 47.1787 242.394 45.6504 237.487 45.6504H226.59V73.3436H237.95C243.709 73.3436 248.693 71.1288 248.693 65.1692C248.693 61.35 246.683 59.7455 244.52 58.7142ZM232.116 49.9286H237.834C240.423 49.9286 242.009 51.2271 242.009 53.4047C242.009 55.8494 240.463 57.0717 237.834 57.0717H232.116V49.9286ZM238.22 69.0662H232.116V61.1962H237.989C241.429 61.1962 243.052 62.5723 243.052 65.1692C243.052 67.7289 241.467 69.0662 238.22 69.0662Z"/></g><path fill="#E6E6E6" d="M276.387 55.9352L276.387 47.6279L248.693 47.6279L248.693 55.9352C248.693 64.824 251.559 71.5098 262.559 71.5098C273.56 71.5098 276.387 64.824 276.387 55.9352ZM252.971 55.7043L252.971 53.1541L272.108 53.1541L272.108 55.7043C272.108 60.8046 270.848 65.7903 262.559 65.7903C254.195 65.7903 252.971 60.8046 252.971 55.7043Z"/><path fill="#E6E6E6" d="M59.3073 91.0693H51V118.763H59.3073C68.196 118.763 74.8819 115.897 74.8819 104.897C74.8819 93.8961 68.196 91.0693 59.3073 91.0693ZM59.0764 114.485H56.5262V95.3476H59.0764C64.1767 95.3476 69.1624 96.608 69.1624 104.897C69.1624 113.261 64.1767 114.485 59.0764 114.485Z"/><defs><clipPath id="clip0_8817_19655"><rect width="221" height="63" fill="#fff" transform="translate(27.6934 28.0693)"/></clipPath></defs></svg>