<svg xmlns="http://www.w3.org/2000/svg" width="375" height="211" fill="none" viewBox="0 0 375 211"><g clip-path="url(#clip0_8843_19367)"><rect width="375" height="210.938" fill="#FFF100"/><path fill="#EDDD0C" d="M112.148 163.711L280.898 163.711C288.665 163.711 294.961 157.415 294.961 149.648L294.961 52.2655C294.961 44.499 301.257 38.203 309.023 38.203L394.453 38.203C402.22 38.203 408.516 44.499 408.516 52.2655L408.516 206.953C408.516 214.719 402.22 221.015 394.453 221.015L112.148 221.016C104.382 221.016 98.086 214.72 98.086 206.953L98.086 177.774C98.0859 170.007 104.382 163.711 112.148 163.711Z"/><path fill="#EDDD0C" d="M47.6949 131.367L47.6947 55.7074C47.6947 47.9409 53.9907 41.6448 61.7572 41.6448L243.75 41.6449C251.517 41.6449 257.813 35.3489 257.813 27.5824L257.813 -6.32825C257.813 -14.0948 251.517 -20.3907 243.75 -20.3907L7.50001 -20.3908C-0.266496 -20.3908 -6.56249 -14.0948 -6.56249 -6.32825L-6.5625 131.367C-6.5625 139.134 -0.26651 145.43 7.5 145.43L33.6324 145.43C41.399 145.43 47.6949 139.134 47.6949 131.367Z"/><path stroke="url(#paint0_linear_8843_19367)" stroke-linecap="round" stroke-linejoin="round" stroke-width="3.516" d="M305.391 -81.7969L144.699 -81.7968C129.166 -81.7967 116.574 -69.2048 116.574 -53.6718L116.574 34.4531C116.574 49.9861 103.982 62.5781 88.4486 62.5781L-109.453 62.5781"/><path stroke="url(#paint1_linear_8843_19367)" stroke-linecap="round" stroke-linejoin="round" stroke-width="3.516" d="M317.578 300.234V155.391C317.578 139.858 330.17 127.266 345.703 127.266L689.062 127.266"/></g><defs><linearGradient id="paint0_linear_8843_19367" x1="147.773" x2="-47.819" y1="24.609" y2="11.996" gradientUnits="userSpaceOnUse"><stop stop-color="#EDDD0C"/><stop offset="1" stop-color="#CCBD00"/></linearGradient><linearGradient id="paint1_linear_8843_19367" x1="430.078" x2="390.389" y1="138.75" y2="202.437" gradientUnits="userSpaceOnUse"><stop stop-color="#EDDD0C"/><stop offset="1" stop-color="#CCBD00"/></linearGradient><clipPath id="clip0_8843_19367"><rect width="375" height="210.938" fill="#fff"/></clipPath></defs></svg>