<?xml version="1.0" encoding="UTF-8"?>
<svg id="Ebene_1" xmlns="http://www.w3.org/2000/svg" version="1.1" viewBox="0 0 500 371.3696289">
  <!-- Generator: Adobe Illustrator 29.0.0, SVG Export Plug-In . SVG Version: 2.1.0 Build 186)  -->
  <defs>
    <style>
      .st0 {
        fill: #1d1d1b;
      }

      .st1 {
        fill: #fff100;
      }

      .st2 {
        fill: #1a1a1a;
      }
    </style>
  </defs>
  <path class="st2" d="M249.2584381,222.2570814c-61.5061951,0-111.3695221-49.8631287-111.3695221-111.3696747-.0000153-61.5064125,49.6101532-111.3696518,111.3695068-111.3696518,61.7598572,0,111.369812,49.8632393,111.369812,111.3696671,0,61.5065002-49.8631897,111.3696594-111.369812,111.3696594,0,0,.0000153,0,0,0h.0000153Z"/>
  <g>
    <path class="st1" d="M222.5541229,64.8208174c-25.3114166,0-46.0664825,20.7552261-46.0664825,46.0666046,0,25.564621,20.7550659,46.0666199,46.0664825,46.0666199,25.3113708,0,46.0665741-20.7552338,46.0665741-46.0666122s-20.7552032-46.0666122-46.0665741-46.0666122Z"/>
    <path class="st1" d="M305.4503784,94.3082899h-21.8938599v33.1582489h21.8938599c9.1563721,0,16.5791321-7.4227219,16.5791321-16.5791321v-.0000381c0-9.1563721-7.42276-16.5790939-16.5791321-16.5790787Z"/>
  </g>
  <g>
    <path class="st0" d="M139.6544495,339.3547682c0,9.87146-2.7842407,18.1313782-13.1615524,18.1313782-10.3778763,0-13.162117-8.2599182-13.162117-18.1313782v-42.0168152h-18.7306061v46.0666199c0,17.9709473,14.4276199,28.4473572,31.8927231,28.4473572,17.4645309,0,31.8922043-10.4763794,31.8922043-28.4473572v-46.0666199h-18.7306519v42.0168457-.0000305Z"/>
    <path class="st0" d="M29.0321236,272.1740431H0v97.8992004h29.0321236c31.0577698,0,54.4186897-10.1279297,54.4186897-49.0172729,0-38.8899536-23.3609238-48.8819275-54.4186897-48.8819275ZM28.2218647,354.9496473h-8.9119301v-67.6519775h8.9119301c17.824461,0,35.2437954,4.4561157,35.2437954,33.7583313,0,29.5722961-17.4193344,33.8936462-35.2437954,33.8936462Z"/>
    <path class="st0" d="M206.1677094,357.3797926c-10.2620544,0-17.5543823-8.5067749-17.5543823-23.7657471,0-15.1235962,7.6971436-23.3609314,17.419632-23.3609314,7.1569824,0,13.638443,4.9962769,15.1235962,12.0179138h17.8244629c-2.5655212-17.959198-17.6891174-26.4665833-32.9480591-26.4665833-21.7404022,0-36.4591827,15.9344482-36.4591827,38.0797119,0,22.010498,13.9085236,37.9443359,35.6489105,37.9443359,15.1235962,0,30.1124573-6.6168213,34.4332428-26.4666138h-17.8238678c-2.5661163,8.6421509-9.182312,12.0179138-15.6643829,12.0179138h.0000305Z"/>
    <polygon class="st0" points="316.625 297.4249586 295.6948547 297.4249586 269.228241 326.5924391 269.228241 272.1740431 250.5935211 272.1740431 250.5935211 370.0732435 269.228241 370.0732435 269.228241 348.1974806 278.1404724 338.6103224 297.1800232 370.0732435 318.1101379 370.0732435 290.5632019 325.2420057 316.625 297.4249586"/>
    <path class="st0" d="M354.8394165,272.1740431h-29.0327454v97.8992004h29.0327454c31.0574646,0,54.4183655-10.1279297,54.4183655-49.0172729,0-38.8899536-23.3609314-48.8819275-54.4183655-48.8819275ZM354.0291748,354.9496473h-8.9122314v-67.6519775h8.9122314c17.8244629,0,35.2434998,4.4561157,35.2434998,33.7583313,0,29.5722961-17.4190369,33.8936462-35.2434998,33.8936462Z"/>
    <path class="st0" d="M485.4159851,318.3551039c4.9963074-3.240448,11.0729065-11.4777527,11.0729065-20.6600647,0-20.1199036-18.4993896-25.5209961-35.6489258-25.5209961h-38.0797119v97.8992004h39.7001953c20.1199036,0,37.5395203-7.8318787,37.5395203-28.8973999,0-13.5030823-7.0222473-19.1748657-14.5840149-22.8207397h.0000305ZM442.0705566,287.2976393h19.9845581c9.0475769,0,14.5840454,4.5908508,14.5840454,12.2879944,0,8.6421509-5.4017334,12.9629211-14.5840454,12.9629211h-19.9845581v-25.2509155ZM463.4054871,354.9496473h-21.3349609v-27.8170471h20.5247192c12.0179138,0,17.6897278,4.8609619,17.6897278,14.0432434,0,9.0475769-5.5364685,13.7738037-16.8794861,13.7738037Z"/>
  </g>
</svg>