<svg width="24" height="24" viewBox="0 0 24 24" fill="none" xmlns="http://www.w3.org/2000/svg">
<path d="M11.9989 15.6098C13.9928 15.6098 15.6091 13.9935 15.6091 11.9998C15.6091 10.0061 13.9928 8.38981 11.9989 8.38981C10.005 8.38981 8.38867 10.0061 8.38867 11.9998C8.38867 13.9935 10.005 15.6098 11.9989 15.6098Z" fill="#0D0D0D"/>
<path d="M12 6.20297V4M7.89972 7.89937L6.33984 6.33961M6.20312 12.0001H4M7.89972 16.1005L6.33984 17.6603M12 17.797V20M16.0996 16.1005L17.6595 17.6603M17.7969 12.0001H20M16.0996 7.89937L17.6595 6.33961M15.6091 11.9998C15.6091 13.9935 13.9928 15.6098 11.9989 15.6098C10.005 15.6098 8.38867 13.9935 8.38867 11.9998C8.38867 10.0061 10.005 8.38981 11.9989 8.38981C13.9928 8.38981 15.6091 10.0061 15.6091 11.9998Z" stroke="#0D0D0D" stroke-miterlimit="10" stroke-linecap="round"/>
</svg>
