<svg width="750" height="455" viewBox="0 0 750 455" fill="none" xmlns="http://www.w3.org/2000/svg">
<path d="M15 0.5H735C743.008 0.5 749.5 6.99187 749.5 15V439.872C749.5 447.88 743.008 454.372 735 454.372H15C6.99187 454.372 0.5 447.88 0.5 439.872V15C0.500006 6.99188 6.99188 0.5 15 0.5Z" fill="#F2F2F2"/>
<path d="M15 0.5H735C743.008 0.5 749.5 6.99187 749.5 15V439.872C749.5 447.88 743.008 454.372 735 454.372H15C6.99187 454.372 0.5 447.88 0.5 439.872V15C0.500006 6.99188 6.99188 0.5 15 0.5Z" stroke="#E6E6E6"/>
<path d="M75.6338 387.916C74.9425 387.916 74.3538 387.727 73.8674 387.351C73.3811 386.972 73.0095 386.423 72.7526 385.704C72.4956 384.982 72.3672 384.111 72.3672 383.089C72.3672 382.074 72.4956 381.206 72.7526 380.488C73.0125 379.766 73.3857 379.215 73.872 378.836C74.3614 378.454 74.9487 378.263 75.6338 378.263C76.3189 378.263 76.9047 378.454 77.391 378.836C77.8804 379.215 78.2535 379.766 78.5104 380.488C78.7704 381.206 78.9004 382.074 78.9004 383.089C78.9004 384.111 78.7719 384.982 78.515 385.704C78.2581 386.423 77.8865 386.972 77.4001 387.351C76.9138 387.727 76.325 387.916 75.6338 387.916ZM75.6338 386.906C76.3189 386.906 76.8511 386.576 77.2304 385.915C77.6097 385.255 77.7993 384.313 77.7993 383.089C77.7993 382.275 77.7121 381.583 77.5378 381.011C77.3665 380.439 77.1188 380.003 76.7945 379.703C76.4734 379.403 76.0865 379.254 75.6338 379.254C74.9548 379.254 74.4241 379.588 74.0418 380.258C73.6594 380.925 73.4683 381.869 73.4683 383.089C73.4683 383.903 73.5539 384.594 73.7252 385.163C73.8965 385.732 74.1427 386.165 74.4639 386.461C74.7881 386.758 75.1781 386.906 75.6338 386.906Z" fill="#666666"/>
<path d="M213.554 387.787V386.961L216.655 383.566C217.019 383.169 217.319 382.823 217.554 382.529C217.79 382.233 217.964 381.954 218.077 381.694C218.194 381.431 218.252 381.156 218.252 380.868C218.252 380.538 218.172 380.252 218.013 380.011C217.857 379.769 217.643 379.582 217.371 379.451C217.099 379.319 216.793 379.254 216.453 379.254C216.092 379.254 215.777 379.328 215.508 379.478C215.242 379.625 215.036 379.832 214.889 380.098C214.745 380.364 214.673 380.676 214.673 381.034H213.59C213.59 380.483 213.717 380 213.971 379.584C214.225 379.168 214.571 378.844 215.008 378.611C215.448 378.379 215.942 378.263 216.49 378.263C217.04 378.263 217.528 378.379 217.953 378.611C218.379 378.844 218.712 379.157 218.954 379.552C219.195 379.946 219.316 380.385 219.316 380.868C219.316 381.214 219.253 381.552 219.128 381.882C219.006 382.21 218.792 382.575 218.486 382.979C218.183 383.38 217.762 383.869 217.224 384.447L215.114 386.704V386.778H219.481V387.787H213.554Z" fill="#666666"/>
<path d="M354.958 385.86V384.924L359.087 378.391H359.766V379.841H359.307L356.187 384.777V384.851H361.748V385.86H354.958ZM359.381 387.787V385.576V385.14V378.391H360.463V387.787H359.381Z" fill="#666666"/>
<path d="M499.768 387.916C499.383 387.909 498.997 387.836 498.612 387.695C498.226 387.555 497.875 387.318 497.557 386.984C497.238 386.648 496.983 386.194 496.79 385.622C496.598 385.047 496.501 384.325 496.501 383.456C496.501 382.624 496.579 381.887 496.735 381.245C496.891 380.599 497.118 380.056 497.414 379.616C497.711 379.172 498.069 378.836 498.488 378.607C498.91 378.377 499.386 378.263 499.915 378.263C500.441 378.263 500.909 378.368 501.319 378.579C501.732 378.787 502.068 379.078 502.328 379.451C502.588 379.824 502.756 380.254 502.833 380.74H501.713C501.609 380.318 501.407 379.968 501.108 379.689C500.808 379.411 500.41 379.272 499.915 379.272C499.187 379.272 498.613 379.588 498.194 380.222C497.778 380.855 497.569 381.743 497.566 382.887H497.639C497.81 382.627 498.014 382.405 498.249 382.222C498.488 382.035 498.751 381.892 499.038 381.791C499.326 381.69 499.63 381.639 499.951 381.639C500.49 381.639 500.982 381.774 501.429 382.043C501.875 382.309 502.233 382.678 502.502 383.149C502.771 383.617 502.906 384.153 502.906 384.759C502.906 385.34 502.776 385.872 502.516 386.356C502.256 386.836 501.891 387.218 501.42 387.503C500.952 387.784 500.401 387.922 499.768 387.916ZM499.768 386.906C500.153 386.906 500.499 386.81 500.805 386.617C501.114 386.424 501.357 386.166 501.534 385.842C501.715 385.518 501.805 385.157 501.805 384.759C501.805 384.371 501.718 384.017 501.543 383.699C501.372 383.378 501.135 383.123 500.832 382.933C500.533 382.743 500.19 382.649 499.805 382.649C499.514 382.649 499.243 382.707 498.993 382.823C498.742 382.936 498.522 383.092 498.332 383.291C498.145 383.49 497.998 383.718 497.891 383.975C497.784 384.228 497.731 384.496 497.731 384.777C497.731 385.151 497.818 385.499 497.992 385.823C498.17 386.148 498.411 386.409 498.717 386.608C499.026 386.807 499.376 386.906 499.768 386.906Z" fill="#666666"/>
<path d="M640.566 387.916C639.936 387.916 639.379 387.804 638.896 387.581C638.416 387.354 638.041 387.044 637.772 386.649C637.503 386.252 637.37 385.799 637.373 385.291C637.37 384.894 637.448 384.527 637.607 384.19C637.766 383.851 637.983 383.568 638.258 383.341C638.537 383.112 638.847 382.967 639.19 382.906V382.85C638.74 382.734 638.382 382.482 638.116 382.093C637.85 381.702 637.719 381.257 637.722 380.758C637.719 380.281 637.839 379.855 638.084 379.478C638.329 379.102 638.665 378.805 639.093 378.588C639.525 378.371 640.016 378.263 640.566 378.263C641.111 378.263 641.597 378.371 642.025 378.588C642.453 378.805 642.79 379.102 643.034 379.478C643.282 379.855 643.408 380.281 643.411 380.758C643.408 381.257 643.272 381.702 643.002 382.093C642.736 382.482 642.383 382.734 641.943 382.85V382.906C642.282 382.967 642.588 383.112 642.86 383.341C643.132 383.568 643.35 383.851 643.512 384.19C643.674 384.527 643.756 384.894 643.759 385.291C643.756 385.799 643.619 386.252 643.346 386.649C643.077 387.044 642.703 387.354 642.222 387.581C641.745 387.804 641.193 387.916 640.566 387.916ZM640.566 386.906C640.991 386.906 641.358 386.837 641.667 386.7C641.976 386.562 642.215 386.368 642.383 386.117C642.551 385.866 642.637 385.573 642.64 385.236C642.637 384.881 642.545 384.568 642.365 384.296C642.184 384.023 641.938 383.809 641.626 383.653C641.317 383.497 640.964 383.419 640.566 383.419C640.165 383.419 639.808 383.497 639.493 383.653C639.181 383.809 638.934 384.023 638.754 384.296C638.577 384.568 638.489 384.881 638.492 385.236C638.489 385.573 638.57 385.866 638.736 386.117C638.904 386.368 639.144 386.562 639.456 386.7C639.768 386.837 640.138 386.906 640.566 386.906ZM640.566 382.447C640.903 382.447 641.201 382.379 641.461 382.245C641.724 382.11 641.93 381.922 642.08 381.681C642.23 381.439 642.307 381.156 642.31 380.832C642.307 380.514 642.232 380.237 642.085 380.001C641.938 379.763 641.735 379.579 641.475 379.451C641.215 379.319 640.912 379.254 640.566 379.254C640.214 379.254 639.907 379.319 639.644 379.451C639.381 379.579 639.178 379.763 639.034 380.001C638.89 380.237 638.82 380.514 638.823 380.832C638.82 381.156 638.892 381.439 639.038 381.681C639.188 381.922 639.395 382.11 639.658 382.245C639.921 382.379 640.224 382.447 640.566 382.447Z" fill="#666666"/>
<path d="M319.772 421.872V414.228H316.94V413.172H323.828V414.228H320.996V421.872H319.772ZM324.461 415.416H325.553V421.872H324.461V415.416ZM324.461 413.172H325.553V414.492H324.461V413.172ZM328.377 418.368V421.872H327.285V415.416H328.377V416.388C328.749 415.776 329.349 415.308 330.321 415.308C331.317 415.308 331.893 415.728 332.181 416.448C332.697 415.644 333.441 415.308 334.353 415.308C335.853 415.308 336.441 416.316 336.441 417.792V421.872H335.349V418.116C335.349 417.12 335.157 416.256 333.969 416.256C333.021 416.256 332.409 416.976 332.409 418.368V421.872H331.317V418.116C331.317 417.12 331.125 416.256 329.937 416.256C328.989 416.256 328.377 416.976 328.377 418.368ZM343.778 419.004H338.81C338.846 420.396 339.854 421.068 340.802 421.068C341.762 421.068 342.29 420.636 342.566 420H343.694C343.406 421.104 342.374 422.028 340.802 422.028C338.762 422.028 337.634 420.564 337.634 418.656C337.634 416.604 339.002 415.308 340.766 415.308C342.746 415.308 343.91 416.952 343.778 419.004ZM340.766 416.244C339.806 416.244 338.918 416.772 338.822 418.068H342.626C342.59 417.156 341.93 416.244 340.766 416.244ZM352.734 417.3H351.594C351.414 416.532 350.838 416.232 350.07 416.232C349.434 416.232 348.714 416.46 348.714 417.048C348.714 417.564 349.074 417.792 349.698 417.924L350.61 418.104C351.786 418.32 352.818 418.788 352.818 420.024C352.818 421.308 351.666 422.028 350.19 422.028C348.498 422.028 347.55 420.912 347.418 419.784H348.57C348.75 420.612 349.254 421.104 350.214 421.104C351.042 421.104 351.714 420.756 351.714 420.144C351.714 419.484 351.102 419.232 350.406 419.076L349.446 418.884C348.57 418.692 347.61 418.308 347.61 417.096C347.61 415.956 348.762 415.296 350.19 415.296C351.594 415.296 352.53 416.064 352.734 417.3ZM354.203 415.416H355.295V421.872H354.203V415.416ZM354.203 413.172H355.295V414.492H354.203V413.172ZM358.119 415.416V416.388C358.491 415.776 359.115 415.308 360.207 415.308C361.767 415.308 362.331 416.316 362.331 417.792V421.872H361.239V418.116C361.239 417.12 361.071 416.256 359.823 416.256C358.767 416.256 358.119 416.976 358.119 418.368V421.872H357.027V415.416H358.119ZM366.641 415.308C368.225 415.308 369.185 416.472 369.341 417.576H368.237C368.081 416.808 367.421 416.268 366.569 416.268C365.609 416.268 364.709 417.024 364.709 418.644C364.709 420.276 365.609 421.068 366.569 421.068C367.493 421.068 368.129 420.444 368.285 419.772H369.413C369.185 420.984 368.045 422.028 366.533 422.028C364.673 422.028 363.521 420.624 363.521 418.656C363.521 416.736 364.733 415.308 366.641 415.308ZM376.403 419.004H371.435C371.471 420.396 372.479 421.068 373.427 421.068C374.387 421.068 374.915 420.636 375.191 420H376.319C376.031 421.104 374.999 422.028 373.427 422.028C371.387 422.028 370.259 420.564 370.259 418.656C370.259 416.604 371.627 415.308 373.391 415.308C375.371 415.308 376.535 416.952 376.403 419.004ZM373.391 416.244C372.431 416.244 371.543 416.772 371.447 418.068H375.251C375.215 417.156 374.555 416.244 373.391 416.244ZM384.951 416.436V415.416H386.043V423.972H384.951V420.9C384.555 421.584 383.883 422.028 382.839 422.028C381.351 422.028 380.079 420.816 380.079 418.668C380.079 416.556 381.351 415.308 382.839 415.308C383.883 415.308 384.555 415.752 384.951 416.436ZM384.999 418.668C384.999 416.964 384.087 416.244 383.115 416.244C381.999 416.244 381.267 417.12 381.267 418.668C381.267 420.216 381.999 421.092 383.115 421.092C384.087 421.092 384.999 420.372 384.999 418.668ZM391.761 421.872V420.948C391.389 421.56 390.801 422.028 389.733 422.028C388.245 422.028 387.669 421.02 387.669 419.544V415.416H388.761V419.22C388.761 420.216 388.917 421.08 390.117 421.08C391.161 421.08 391.761 420.36 391.761 418.968V415.416H392.853V421.872H391.761ZM400.286 419.004H395.318C395.354 420.396 396.362 421.068 397.31 421.068C398.27 421.068 398.798 420.636 399.074 420H400.202C399.914 421.104 398.882 422.028 397.31 422.028C395.27 422.028 394.142 420.564 394.142 418.656C394.142 416.604 395.51 415.308 397.274 415.308C399.254 415.308 400.418 416.952 400.286 419.004ZM397.274 416.244C396.314 416.244 395.426 416.772 395.33 418.068H399.134C399.098 417.156 398.438 416.244 397.274 416.244ZM404.774 415.392V416.556C404.546 416.52 404.342 416.508 404.162 416.508C403.154 416.508 402.65 417.06 402.65 418.488V421.872H401.558V415.416H402.626V416.544C402.95 415.812 403.598 415.416 404.45 415.38C404.558 415.38 404.642 415.38 404.774 415.392ZM409.412 415.416H410.552L408.248 422.148C407.768 423.54 407.456 423.972 406.004 423.972H405.44V423.06H405.884C406.604 423.06 406.952 423.012 407.24 422.004L407.288 421.872L404.96 415.416H406.172L407.816 420.396L409.412 415.416ZM419.097 417.3H417.957C417.777 416.532 417.201 416.232 416.433 416.232C415.797 416.232 415.077 416.46 415.077 417.048C415.077 417.564 415.437 417.792 416.061 417.924L416.973 418.104C418.149 418.32 419.181 418.788 419.181 420.024C419.181 421.308 418.029 422.028 416.553 422.028C414.861 422.028 413.913 420.912 413.781 419.784H414.933C415.113 420.612 415.617 421.104 416.577 421.104C417.405 421.104 418.077 420.756 418.077 420.144C418.077 419.484 417.465 419.232 416.769 419.076L415.809 418.884C414.933 418.692 413.973 418.308 413.973 417.096C413.973 415.956 415.125 415.296 416.553 415.296C417.957 415.296 418.893 416.064 419.097 417.3ZM420.878 415.416V413.796H421.97V415.416H423.194V416.292H421.97V420.12C421.97 420.792 422.018 420.96 422.642 420.96H423.194V421.872H422.402C421.166 421.872 420.878 421.596 420.878 420.252V416.292H419.858V415.416H420.878ZM428.536 419.172V418.764C426.556 418.956 425.296 419.256 425.296 420.144C425.296 420.756 425.764 421.164 426.544 421.164C427.564 421.164 428.536 420.696 428.536 419.172ZM426.304 422.028C425.092 422.028 424.084 421.356 424.084 420.168C424.084 418.644 425.812 418.188 428.452 417.9V417.744C428.452 416.556 427.804 416.172 426.988 416.172C426.076 416.172 425.56 416.652 425.512 417.456H424.384C424.48 416.064 425.728 415.284 426.976 415.284C428.764 415.284 429.556 416.124 429.544 417.948L429.532 419.436C429.52 420.528 429.568 421.26 429.7 421.872H428.596C428.56 421.632 428.524 421.368 428.512 420.984C428.116 421.656 427.456 422.028 426.304 422.028ZM434.388 415.392V416.556C434.16 416.52 433.956 416.508 433.776 416.508C432.768 416.508 432.264 417.06 432.264 418.488V421.872H431.172V415.416H432.24V416.544C432.564 415.812 433.212 415.416 434.064 415.38C434.172 415.38 434.256 415.38 434.388 415.392ZM435.749 415.416V413.796H436.841V415.416H438.065V416.292H436.841V420.12C436.841 420.792 436.889 420.96 437.513 420.96H438.065V421.872H437.273C436.037 421.872 435.749 421.596 435.749 420.252V416.292H434.729V415.416H435.749ZM441.707 418.572C441.707 416.136 442.631 414.216 443.363 413.172H444.263C443.459 414.456 442.835 416.304 442.835 418.572C442.835 420.84 443.459 422.676 444.263 423.972H443.363C442.631 422.916 441.707 421.008 441.707 418.572ZM449.965 417.3H448.825C448.645 416.532 448.069 416.232 447.301 416.232C446.665 416.232 445.945 416.46 445.945 417.048C445.945 417.564 446.305 417.792 446.929 417.924L447.841 418.104C449.017 418.32 450.049 418.788 450.049 420.024C450.049 421.308 448.897 422.028 447.421 422.028C445.729 422.028 444.781 420.912 444.649 419.784H445.801C445.981 420.612 446.485 421.104 447.445 421.104C448.273 421.104 448.945 420.756 448.945 420.144C448.945 419.484 448.333 419.232 447.637 419.076L446.677 418.884C445.801 418.692 444.841 418.308 444.841 417.096C444.841 415.956 445.993 415.296 447.421 415.296C448.825 415.296 449.761 416.064 449.965 417.3ZM453.125 418.572C453.125 421.008 452.201 422.916 451.469 423.972H450.569C451.373 422.676 451.997 420.84 451.997 418.572C451.997 416.316 451.361 414.444 450.569 413.172H451.469C452.201 414.216 453.125 416.136 453.125 418.572Z" fill="#666666"/>
<mask id="mask0_16577_28428" style="mask-type:luminance" maskUnits="userSpaceOnUse" x="75" y="35" width="644" height="337">
<path d="M718.758 35.9209H75.4395V371.251H718.758V35.9209Z" fill="white"/>
</mask>
<g mask="url(#mask0_16577_28428)">
<path d="M75.4399 371.251H718.758" stroke="#CCCCCC" stroke-linecap="square"/>
</g>
<path d="M68.0232 375.303C67.3319 375.303 66.7431 375.115 66.2568 374.739C65.7705 374.36 65.3988 373.811 65.1419 373.092C64.885 372.37 64.7565 371.498 64.7565 370.477C64.7565 369.461 64.885 368.594 65.1419 367.875C65.4019 367.154 65.7751 366.603 66.2614 366.224C66.7508 365.841 67.338 365.65 68.0232 365.65C68.7083 365.65 69.294 365.841 69.7803 366.224C70.2697 366.603 70.6429 367.154 70.8998 367.875C71.1598 368.594 71.2898 369.461 71.2898 370.477C71.2898 371.498 71.1613 372.37 70.9044 373.092C70.6475 373.811 70.2758 374.36 69.7895 374.739C69.3032 375.115 68.7144 375.303 68.0232 375.303ZM68.0232 374.294C68.7083 374.294 69.2405 373.964 69.6198 373.303C69.999 372.642 70.1887 371.7 70.1887 370.477C70.1887 369.663 70.1015 368.97 69.9272 368.398C69.7559 367.826 69.5081 367.391 69.1839 367.091C68.8627 366.791 68.4758 366.641 68.0232 366.641C67.3441 366.641 66.8135 366.976 66.4311 367.646C66.0488 368.313 65.8576 369.256 65.8576 370.477C65.8576 371.29 65.9433 371.982 66.1146 372.55C66.2858 373.119 66.5321 373.552 66.8532 373.849C67.1774 374.146 67.5674 374.294 68.0232 374.294Z" fill="#666666"/>
<mask id="mask1_16577_28428" style="mask-type:luminance" maskUnits="userSpaceOnUse" x="75" y="35" width="644" height="337">
<path d="M718.758 35.9209H75.4395V371.251H718.758V35.9209Z" fill="white"/>
</mask>
<g mask="url(#mask1_16577_28428)">
<path d="M75.4399 309.152H718.758" stroke="#CCCCCC" stroke-linecap="square"/>
</g>
<path d="M67.1087 313.205C66.5704 313.205 66.0856 313.098 65.6543 312.883C65.223 312.669 64.8774 312.376 64.6174 312.003C64.3574 311.629 64.2152 311.204 64.1908 310.727H65.2919C65.3347 311.152 65.5274 311.504 65.8699 311.782C66.2156 312.058 66.6285 312.195 67.1087 312.195C67.4941 312.195 67.8366 312.105 68.1364 311.925C68.4392 311.744 68.6762 311.496 68.8475 311.181C69.0219 310.863 69.109 310.504 69.109 310.103C69.109 309.693 69.0188 309.328 68.8383 309.007C68.6609 308.682 68.4163 308.427 68.1043 308.24C67.7923 308.054 67.436 307.959 67.0353 307.956C66.7478 307.953 66.4526 307.997 66.1498 308.089C65.847 308.178 65.5977 308.292 65.402 308.433L64.3376 308.305L64.9065 303.68H69.788V304.689H65.8608L65.5304 307.461H65.5855C65.7782 307.308 66.0198 307.181 66.3104 307.08C66.601 306.979 66.9038 306.928 67.2188 306.928C67.7938 306.928 68.3061 307.066 68.7558 307.341C69.2084 307.613 69.5632 307.987 69.8202 308.461C70.0801 308.935 70.2101 309.476 70.2101 310.085C70.2101 310.684 70.0756 311.22 69.8064 311.691C69.5403 312.159 69.1733 312.529 68.7053 312.801C68.2373 313.07 67.7051 313.205 67.1087 313.205Z" fill="#666666"/>
<mask id="mask2_16577_28428" style="mask-type:luminance" maskUnits="userSpaceOnUse" x="75" y="35" width="644" height="337">
<path d="M718.758 35.9209H75.4399V371.251H718.758V35.9209Z" fill="white"/>
</mask>
<g mask="url(#mask2_16577_28428)">
<path d="M75.4404 247.055H718.759" stroke="#CCCCCC" stroke-linecap="square"/>
</g>
<path d="M61.7961 241.582V250.979H60.6583V242.775H60.6033L58.3093 244.298V243.142L60.6583 241.582H61.7961ZM67.5632 251.107C66.8719 251.107 66.2832 250.919 65.7968 250.543C65.3105 250.163 64.9389 249.614 64.682 248.896C64.425 248.174 64.2966 247.302 64.2966 246.28C64.2966 245.265 64.425 244.398 64.682 243.679C64.9419 242.957 65.3151 242.407 65.8014 242.027C66.2908 241.645 66.8781 241.454 67.5632 241.454C68.2483 241.454 68.8341 241.645 69.3204 242.027C69.8098 242.407 70.1829 242.957 70.4398 243.679C70.6998 244.398 70.8298 245.265 70.8298 246.28C70.8298 247.302 70.7013 248.174 70.4444 248.896C70.1875 249.614 69.8159 250.163 69.3296 250.543C68.8432 250.919 68.2544 251.107 67.5632 251.107ZM67.5632 250.098C68.2483 250.098 68.7805 249.767 69.1598 249.107C69.5391 248.446 69.7287 247.504 69.7287 246.28C69.7287 245.467 69.6415 244.774 69.4672 244.202C69.2959 243.63 69.0482 243.194 68.7239 242.895C68.4028 242.595 68.0159 242.445 67.5632 242.445C66.8842 242.445 66.3535 242.78 65.9712 243.45C65.5888 244.116 65.3977 245.06 65.3977 246.28C65.3977 247.094 65.4833 247.785 65.6546 248.354C65.8259 248.923 66.0721 249.356 66.3933 249.653C66.7175 249.949 67.1075 250.098 67.5632 250.098Z" fill="#666666"/>
<mask id="mask3_16577_28428" style="mask-type:luminance" maskUnits="userSpaceOnUse" x="75" y="35" width="644" height="337">
<path d="M718.761 35.9209H75.4424V371.251H718.761V35.9209Z" fill="white"/>
</mask>
<g mask="url(#mask3_16577_28428)">
<path d="M75.4419 184.956H718.76" stroke="#CCCCCC" stroke-linecap="square"/>
</g>
<path d="M61.2787 179.484V188.88H60.1409V180.677H60.0858L57.7919 182.2V181.044L60.1409 179.484H61.2787ZM66.9173 189.008C66.379 189.008 65.8942 188.901 65.4629 188.687C65.0316 188.473 64.686 188.179 64.426 187.806C64.166 187.433 64.0238 187.008 63.9993 186.531H65.1005C65.1433 186.956 65.336 187.308 65.6785 187.586C66.0242 187.861 66.4371 187.999 66.9173 187.999C67.3027 187.999 67.6452 187.909 67.945 187.728C68.2478 187.548 68.4848 187.3 68.6561 186.985C68.8305 186.667 68.9176 186.308 68.9176 185.907C68.9176 185.497 68.8274 185.132 68.6469 184.81C68.4695 184.486 68.2248 184.231 67.9129 184.044C67.6009 183.858 67.2446 183.763 66.8439 183.76C66.5564 183.757 66.2612 183.801 65.9584 183.893C65.6556 183.981 65.4063 184.096 65.2106 184.237L64.1462 184.108L64.7151 179.484H69.5966V180.493H65.6694L65.339 183.264H65.3941C65.5868 183.111 65.8284 182.984 66.119 182.883C66.4095 182.783 66.7124 182.732 67.0274 182.732C67.6024 182.732 68.1147 182.87 68.5644 183.145C69.017 183.417 69.3718 183.79 69.6288 184.264C69.8887 184.738 70.0187 185.28 70.0187 185.889C70.0187 186.488 69.8842 187.023 69.615 187.494C69.3489 187.962 68.9819 188.332 68.5139 188.605C68.0459 188.874 67.5137 189.008 66.9173 189.008Z" fill="#666666"/>
<mask id="mask4_16577_28428" style="mask-type:luminance" maskUnits="userSpaceOnUse" x="75" y="35" width="644" height="337">
<path d="M718.762 35.9209H75.4434V371.251H718.762V35.9209Z" fill="white"/>
</mask>
<g mask="url(#mask4_16577_28428)">
<path d="M75.4429 122.857H718.761" stroke="#CCCCCC" stroke-linecap="square"/>
</g>
<path d="M56.5998 126.782V125.956L59.7013 122.561C60.0653 122.164 60.365 121.818 60.6005 121.524C60.836 121.228 61.0104 120.949 61.1235 120.689C61.2398 120.426 61.2979 120.151 61.2979 119.864C61.2979 119.533 61.2184 119.247 61.0593 119.006C60.9033 118.764 60.6892 118.577 60.417 118.446C60.1448 118.314 59.8389 118.249 59.4994 118.249C59.1385 118.249 58.8234 118.324 58.5543 118.473C58.2882 118.62 58.0817 118.827 57.9349 119.093C57.7912 119.359 57.7193 119.671 57.7193 120.029H56.6365C56.6365 119.478 56.7635 118.995 57.0173 118.579C57.2712 118.163 57.6168 117.839 58.0542 117.606C58.4946 117.374 58.9886 117.258 59.5361 117.258C60.0867 117.258 60.5745 117.374 60.9997 117.606C61.4248 117.839 61.7582 118.152 61.9998 118.547C62.2415 118.941 62.3623 119.38 62.3623 119.864C62.3623 120.209 62.2996 120.547 62.1742 120.878C62.0518 121.205 61.8377 121.57 61.5319 121.974C61.2291 122.375 60.8085 122.864 60.2702 123.442L58.1597 125.699V125.773H62.5274V126.782H56.5998ZM67.487 126.911C66.7958 126.911 66.207 126.723 65.7207 126.346C65.2343 125.967 64.8627 125.418 64.6058 124.699C64.3489 123.977 64.2204 123.106 64.2204 122.084C64.2204 121.069 64.3489 120.202 64.6058 119.483C64.8658 118.761 65.2389 118.21 65.7252 117.831C66.2146 117.449 66.8019 117.258 67.487 117.258C68.1722 117.258 68.7579 117.449 69.2442 117.831C69.7336 118.21 70.1067 118.761 70.3637 119.483C70.6236 120.202 70.7536 121.069 70.7536 122.084C70.7536 123.106 70.6252 123.977 70.3683 124.699C70.1113 125.418 69.7397 125.967 69.2534 126.346C68.7671 126.723 68.1783 126.911 67.487 126.911ZM67.487 125.901C68.1722 125.901 68.7044 125.571 69.0836 124.91C69.4629 124.25 69.6525 123.308 69.6525 122.084C69.6525 121.271 69.5654 120.578 69.391 120.006C69.2197 119.434 68.972 118.998 68.6478 118.698C68.3266 118.399 67.9397 118.249 67.487 118.249C66.808 118.249 66.2773 118.584 65.895 119.253C65.5127 119.92 65.3215 120.864 65.3215 122.084C65.3215 122.898 65.4072 123.589 65.5784 124.158C65.7497 124.727 65.9959 125.16 66.3171 125.456C66.6413 125.753 67.0313 125.901 67.487 125.901Z" fill="#666666"/>
<path d="M56.8143 64.6836V63.8578L59.9158 60.4627C60.2797 60.0651 60.5795 59.7194 60.815 59.4258C61.0505 59.1291 61.2249 58.8508 61.338 58.5908C61.4543 58.3278 61.5124 58.0525 61.5124 57.765C61.5124 57.4346 61.4328 57.1487 61.2738 56.907C61.1178 56.6654 60.9037 56.4788 60.6315 56.3473C60.3593 56.2158 60.0534 56.15 59.7139 56.15C59.353 56.15 59.0379 56.2249 58.7688 56.3748C58.5027 56.5216 58.2962 56.7281 58.1494 56.9942C58.0056 57.2603 57.9338 57.5723 57.9338 57.9301H56.851C56.851 57.3796 56.9779 56.8963 57.2318 56.4803C57.4857 56.0644 57.8313 55.7402 58.2687 55.5077C58.7091 55.2752 59.2031 55.159 59.7506 55.159C60.3011 55.159 60.789 55.2752 61.2141 55.5077C61.6393 55.7402 61.9727 56.0537 62.2143 56.4482C62.456 56.8428 62.5768 57.2817 62.5768 57.765C62.5768 58.1106 62.5141 58.4486 62.3887 58.7789C62.2663 59.1062 62.0522 59.4717 61.7464 59.8754C61.4435 60.2761 61.023 60.7655 60.4847 61.3436L58.3742 63.6008V63.6742H62.7419V64.6836H56.8143ZM67.573 64.8121C67.0347 64.8121 66.5499 64.705 66.1187 64.4909C65.6874 64.2768 65.3418 63.9832 65.0818 63.61C64.8218 63.2369 64.6796 62.8117 64.6551 62.3346H65.7562C65.799 62.7597 65.9917 63.1115 66.3343 63.3898C66.6799 63.6651 67.0928 63.8027 67.573 63.8027C67.9584 63.8027 68.301 63.7125 68.6007 63.532C68.9035 63.3516 69.1406 63.1038 69.3119 62.7888C69.4862 62.4707 69.5734 62.1113 69.5734 61.7106C69.5734 61.3007 69.4832 60.9352 69.3027 60.6141C69.1253 60.2899 68.8806 60.0345 68.5686 59.8479C68.2566 59.6613 67.9003 59.5665 67.4996 59.5634C67.2121 59.5604 66.917 59.6047 66.6142 59.6965C66.3114 59.7852 66.0621 59.8999 65.8663 60.0406L64.8019 59.9121L65.3708 55.2875H70.2524V56.2968H66.3251L65.9948 59.0679H66.0498C66.2425 58.915 66.4842 58.7881 66.7747 58.6871C67.0653 58.5862 67.3681 58.5357 67.6832 58.5357C68.2582 58.5357 68.7705 58.6734 69.2201 58.9487C69.6728 59.2209 70.0276 59.594 70.2845 60.0681C70.5445 60.5422 70.6745 61.0836 70.6745 61.6923C70.6745 62.2917 70.5399 62.827 70.2708 63.298C70.0047 63.766 69.6376 64.1361 69.1696 64.4083C68.7017 64.6775 68.1695 64.8121 67.573 64.8121Z" fill="#666666"/>
<path d="M41 295.178V296.966L33.572 300.95H41V302.174H32.3V300.374L39.704 296.402H32.3V295.178H41ZM38.132 287.583V292.551C39.524 292.515 40.196 291.507 40.196 290.559C40.196 289.599 39.764 289.071 39.128 288.795V287.667C40.232 287.955 41.156 288.987 41.156 290.559C41.156 292.599 39.692 293.727 37.784 293.727C35.732 293.727 34.436 292.359 34.436 290.595C34.436 288.615 36.08 287.451 38.132 287.583ZM35.372 290.595C35.372 291.555 35.9 292.443 37.196 292.539V288.735C36.284 288.771 35.372 289.431 35.372 290.595ZM34.544 285.999H32.924V284.907H34.544V283.683H35.42V284.907H39.248C39.92 284.907 40.088 284.859 40.088 284.235V283.683H41V284.475C41 285.711 40.724 285.999 39.38 285.999H35.42V287.019H34.544V285.999ZM39.32 280.8L34.544 279.516V278.388L39.32 277.104L34.544 275.868V274.692L41 276.552V277.548L35.804 278.976L41 280.356V281.352L34.544 283.212V282.036L39.32 280.8ZM37.796 273.086C39.524 273.086 40.196 272.15 40.196 271.154C40.196 270.158 39.452 269.222 37.796 269.222C36.068 269.222 35.396 270.158 35.396 271.154C35.396 272.15 36.032 273.086 37.796 273.086ZM34.436 271.154C34.436 269.654 35.456 268.058 37.796 268.058C40.136 268.058 41.156 269.654 41.156 271.154C41.156 272.654 40.136 274.25 37.796 274.25C35.456 274.25 34.436 272.654 34.436 271.154ZM34.52 263.536H35.684C35.648 263.764 35.636 263.968 35.636 264.148C35.636 265.156 36.188 265.66 37.616 265.66H41V266.752H34.544V265.684H35.672C34.94 265.36 34.544 264.712 34.508 263.86C34.508 263.752 34.508 263.668 34.52 263.536ZM32.3 262.487V261.395H37.448L34.544 258.791V257.447L37.22 259.907L41 257.111V258.443L38.024 260.639L38.84 261.395H41V262.487H32.3ZM34.544 253.268H32.924V252.176H34.544V250.952H35.42V252.176H39.248C39.92 252.176 40.088 252.128 40.088 251.504V250.952H41V251.744C41 252.98 40.724 253.268 39.38 253.268H35.42V254.288H34.544V253.268ZM32.3 248.469H35.516C34.904 248.097 34.436 247.473 34.436 246.381C34.436 244.821 35.444 244.257 36.92 244.257H41V245.349H37.244C36.248 245.349 35.384 245.517 35.384 246.765C35.384 247.821 36.104 248.469 37.496 248.469H41V249.561H32.3V248.469ZM34.52 239.407H35.684C35.648 239.635 35.636 239.839 35.636 240.019C35.636 241.027 36.188 241.531 37.616 241.531H41V242.623H34.544V241.555H35.672C34.94 241.231 34.544 240.583 34.508 239.731C34.508 239.623 34.508 239.539 34.52 239.407ZM37.796 237.731C39.524 237.731 40.196 236.795 40.196 235.799C40.196 234.803 39.452 233.867 37.796 233.867C36.068 233.867 35.396 234.803 35.396 235.799C35.396 236.795 36.032 237.731 37.796 237.731ZM34.436 235.799C34.436 234.299 35.456 232.703 37.796 232.703C40.136 232.703 41.156 234.299 41.156 235.799C41.156 237.299 40.136 238.895 37.796 238.895C35.456 238.895 34.436 237.299 34.436 235.799ZM41 227.401H40.076C40.688 227.773 41.156 228.361 41.156 229.429C41.156 230.917 40.148 231.493 38.672 231.493H34.544V230.401H38.348C39.344 230.401 40.208 230.245 40.208 229.045C40.208 228.001 39.488 227.401 38.096 227.401H34.544V226.309H41V227.401ZM35.564 220.232H34.544V219.14H40.136C41.444 219.14 41.996 219.38 42.404 219.752C42.944 220.22 43.256 221.024 43.256 221.984C43.256 223.46 42.584 224.432 41.276 224.636V223.472C41.852 223.34 42.296 222.968 42.296 221.972C42.296 221.384 42.14 220.952 41.816 220.652C41.552 220.424 41.276 220.232 40.388 220.232H39.776C40.46 220.628 40.892 221.24 40.892 222.284C40.892 223.712 39.74 225.02 37.664 225.02C35.6 225.02 34.436 223.712 34.436 222.284C34.436 221.24 34.88 220.628 35.564 220.232ZM37.664 220.184C36.032 220.184 35.372 221.048 35.372 222.008C35.372 223.076 36.188 223.832 37.664 223.832C39.152 223.832 39.968 223.076 39.968 222.008C39.968 221.048 39.308 220.184 37.664 220.184ZM32.3 216.324H35.516C34.904 215.952 34.436 215.328 34.436 214.236C34.436 212.676 35.444 212.112 36.92 212.112H41V213.204H37.244C36.248 213.204 35.384 213.372 35.384 214.62C35.384 215.676 36.104 216.324 37.496 216.324H41V217.416H32.3V216.324ZM34.544 210.479V209.387H35.564C34.88 208.991 34.436 208.319 34.436 207.275C34.436 205.787 35.684 204.515 37.796 204.515C39.944 204.515 41.156 205.787 41.156 207.275C41.156 208.319 40.712 208.991 40.028 209.387H43.1V210.479H34.544ZM37.796 209.435C39.5 209.435 40.22 208.523 40.22 207.551C40.22 206.435 39.344 205.703 37.796 205.703C36.248 205.703 35.372 206.435 35.372 207.551C35.372 208.523 36.092 209.435 37.796 209.435ZM41 199.241H40.076C40.688 199.613 41.156 200.201 41.156 201.269C41.156 202.757 40.148 203.333 38.672 203.333H34.544V202.241H38.348C39.344 202.241 40.208 202.085 40.208 200.885C40.208 199.841 39.488 199.241 38.096 199.241H34.544V198.149H41V199.241ZM34.544 196.104H32.924V195.012H34.544V193.788H35.42V195.012H39.248C39.92 195.012 40.088 194.964 40.088 194.34V193.788H41V194.58C41 195.816 40.724 196.104 39.38 196.104H35.42V197.124H34.544V196.104ZM37.7 190.146C35.264 190.146 33.344 189.222 32.3 188.49V187.59C33.584 188.394 35.432 189.018 37.7 189.018C39.968 189.018 41.804 188.394 43.1 187.59V188.49C42.044 189.222 40.136 190.146 37.7 190.146ZM32.144 182.933C32.144 181.133 33.152 179.693 34.832 179.333V180.521C33.86 180.809 33.176 181.601 33.176 182.993C33.176 184.529 34.376 185.729 36.632 185.729C38.84 185.729 40.124 184.589 40.124 182.993C40.124 181.841 39.644 180.425 37.844 180.425H37.616V182.729H36.56V179.273H41V180.233L39.908 180.293C40.808 180.857 41.156 181.877 41.156 183.041C41.156 185.537 39.272 186.977 36.632 186.977C33.944 186.977 32.144 185.381 32.144 182.933ZM37.796 176.446C39.5 176.446 40.22 175.534 40.22 174.562C40.22 173.446 39.344 172.714 37.796 172.714C36.248 172.714 35.372 173.446 35.372 174.562C35.372 175.534 36.092 176.446 37.796 176.446ZM32.3 177.49V176.398H35.564C34.88 176.002 34.436 175.33 34.436 174.286C34.436 172.798 35.684 171.526 37.796 171.526C39.944 171.526 41.156 172.798 41.156 174.286C41.156 175.33 40.712 176.002 40.028 176.398H41V177.49H32.3ZM34.544 170.283V169.191H41V170.283H34.544ZM32.3 170.283V169.191H33.62V170.283H32.3ZM34.544 167.147H32.924V166.055H34.544V164.831H35.42V166.055H39.248C39.92 166.055 40.088 166.007 40.088 165.383V164.831H41V165.623C41 166.859 40.724 167.147 39.38 167.147H35.42V168.167H34.544V167.147ZM41 163.329V164.421L32.3 161.001V159.897L41 163.329ZM36.428 154.795V155.935C35.66 156.115 35.36 156.691 35.36 157.459C35.36 158.095 35.588 158.815 36.176 158.815C36.692 158.815 36.92 158.455 37.052 157.831L37.232 156.919C37.448 155.743 37.916 154.711 39.152 154.711C40.436 154.711 41.156 155.863 41.156 157.339C41.156 159.031 40.04 159.979 38.912 160.111V158.959C39.74 158.779 40.232 158.275 40.232 157.315C40.232 156.487 39.884 155.815 39.272 155.815C38.612 155.815 38.36 156.427 38.204 157.123L38.012 158.083C37.82 158.959 37.436 159.919 36.224 159.919C35.084 159.919 34.424 158.767 34.424 157.339C34.424 155.935 35.192 154.999 36.428 154.795ZM37.7 151.634C40.136 151.634 42.044 152.558 43.1 153.29V154.19C41.804 153.386 39.968 152.762 37.7 152.762C35.444 152.762 33.572 153.398 32.3 154.19V153.29C33.344 152.558 35.264 151.634 37.7 151.634Z" fill="#666666"/>
<path d="M75.4419 60.7598H718.76" stroke="#8F8F8A" stroke-dasharray="9.04 6.03"/>
<path d="M75.4414 371.25H718.76" stroke="#CCCCCC" stroke-linecap="square"/>
<path d="M501.301 41H499.513L495.529 33.572V41H494.305V32.3H496.105L500.077 39.704V32.3H501.301V41ZM508.896 38.132H503.928C503.964 39.524 504.972 40.196 505.92 40.196C506.88 40.196 507.408 39.764 507.684 39.128H508.812C508.524 40.232 507.492 41.156 505.92 41.156C503.88 41.156 502.752 39.692 502.752 37.784C502.752 35.732 504.12 34.436 505.884 34.436C507.864 34.436 509.028 36.08 508.896 38.132ZM505.884 35.372C504.924 35.372 504.036 35.9 503.94 37.196H507.744C507.708 36.284 507.048 35.372 505.884 35.372ZM510.481 34.544V32.924H511.573V34.544H512.797V35.42H511.573V39.248C511.573 39.92 511.621 40.088 512.245 40.088H512.797V41H512.005C510.769 41 510.481 40.724 510.481 39.38V35.42H509.461V34.544H510.481ZM515.679 39.32L516.963 34.544H518.091L519.375 39.32L520.611 34.544H521.787L519.927 41H518.931L517.503 35.804L516.123 41H515.127L513.267 34.544H514.443L515.679 39.32ZM523.393 37.796C523.393 39.524 524.329 40.196 525.325 40.196C526.321 40.196 527.257 39.452 527.257 37.796C527.257 36.068 526.321 35.396 525.325 35.396C524.329 35.396 523.393 36.032 523.393 37.796ZM525.325 34.436C526.825 34.436 528.421 35.456 528.421 37.796C528.421 40.136 526.825 41.156 525.325 41.156C523.825 41.156 522.229 40.136 522.229 37.796C522.229 35.456 523.825 34.436 525.325 34.436ZM532.943 34.52V35.684C532.715 35.648 532.511 35.636 532.331 35.636C531.323 35.636 530.819 36.188 530.819 37.616V41H529.727V34.544H530.795V35.672C531.119 34.94 531.767 34.544 532.619 34.508C532.727 34.508 532.811 34.508 532.943 34.52ZM533.993 32.3H535.085V37.448L537.689 34.544H539.033L536.573 37.22L539.369 41H538.037L535.841 38.024L535.085 38.84V41H533.993V32.3ZM543.991 32.3V41H542.899V32.3H543.991ZM545.723 34.544H546.815V41H545.723V34.544ZM545.723 32.3H546.815V33.62H545.723V32.3ZM549.64 37.496V41H548.548V34.544H549.64V35.516C550.012 34.904 550.612 34.436 551.584 34.436C552.58 34.436 553.156 34.856 553.444 35.576C553.96 34.772 554.704 34.436 555.616 34.436C557.116 34.436 557.704 35.444 557.704 36.92V41H556.612V37.244C556.612 36.248 556.42 35.384 555.232 35.384C554.284 35.384 553.672 36.104 553.672 37.496V41H552.58V37.244C552.58 36.248 552.388 35.384 551.2 35.384C550.252 35.384 549.64 36.104 549.64 37.496ZM559.341 34.544H560.433V41H559.341V34.544ZM559.341 32.3H560.433V33.62H559.341V32.3ZM562.477 34.544V32.924H563.569V34.544H564.793V35.42H563.569V39.248C563.569 39.92 563.617 40.088 564.241 40.088H564.793V41H564.001C562.765 41 562.477 40.724 562.477 39.38V35.42H561.457V34.544H562.477ZM570.211 38.456H568.831V37.076H570.211V38.456ZM577.464 32.144C579.072 32.144 580.224 32.948 580.224 34.424C580.224 36.44 578.124 38.216 575.688 39.98H580.464V41H574.2V40.016C577.272 37.748 579.072 36.116 579.072 34.568C579.072 33.656 578.484 33.056 577.44 33.056C576.504 33.056 575.604 33.572 575.568 35.012H574.44C574.404 33.284 575.604 32.144 577.464 32.144ZM584.542 40.244C585.586 40.244 586.486 39.488 586.486 38.144C586.486 36.704 585.478 36.08 584.53 36.08C583.63 36.08 583.042 36.608 582.85 37.04L581.758 36.98L582.322 32.3H587.314V33.32H583.21L582.91 35.792C583.378 35.348 584.062 35.132 584.782 35.132C586.306 35.132 587.638 36.212 587.638 38.132C587.638 40.124 586.162 41.156 584.542 41.156C582.538 41.156 581.602 39.884 581.446 38.48H582.574C582.754 39.584 583.33 40.244 584.542 40.244ZM595.711 32.144C597.511 32.144 598.951 33.152 599.311 34.832H598.123C597.835 33.86 597.043 33.176 595.651 33.176C594.115 33.176 592.915 34.376 592.915 36.632C592.915 38.84 594.055 40.124 595.651 40.124C596.803 40.124 598.219 39.644 598.219 37.844V37.616H595.915V36.56H599.371V41H598.411L598.351 39.908C597.787 40.808 596.767 41.156 595.603 41.156C593.107 41.156 591.667 39.272 591.667 36.632C591.667 33.944 593.263 32.144 595.711 32.144ZM602.197 37.796C602.197 39.5 603.109 40.22 604.081 40.22C605.197 40.22 605.929 39.344 605.929 37.796C605.929 36.248 605.197 35.372 604.081 35.372C603.109 35.372 602.197 36.092 602.197 37.796ZM601.153 32.3H602.245V35.564C602.641 34.88 603.313 34.436 604.357 34.436C605.845 34.436 607.117 35.684 607.117 37.796C607.117 39.944 605.845 41.156 604.357 41.156C603.313 41.156 602.641 40.712 602.245 40.028V41H601.153V32.3ZM608.36 34.544H609.452V41H608.36V34.544ZM608.36 32.3H609.452V33.62H608.36V32.3ZM611.496 34.544V32.924H612.588V34.544H613.812V35.42H612.588V39.248C612.588 39.92 612.636 40.088 613.26 40.088H613.812V41H613.02C611.784 41 611.496 40.724 611.496 39.38V35.42H610.476V34.544H611.496ZM615.315 41H614.223L617.643 32.3H618.747L615.315 41ZM623.848 36.428H622.708C622.528 35.66 621.952 35.36 621.184 35.36C620.548 35.36 619.828 35.588 619.828 36.176C619.828 36.692 620.188 36.92 620.812 37.052L621.724 37.232C622.9 37.448 623.932 37.916 623.932 39.152C623.932 40.436 622.78 41.156 621.304 41.156C619.612 41.156 618.664 40.04 618.532 38.912H619.684C619.864 39.74 620.368 40.232 621.328 40.232C622.156 40.232 622.828 39.884 622.828 39.272C622.828 38.612 622.216 38.36 621.52 38.204L620.56 38.012C619.684 37.82 618.724 37.436 618.724 36.224C618.724 35.084 619.876 34.424 621.304 34.424C622.708 34.424 623.644 35.192 623.848 36.428ZM627.685 37.7C627.685 35.264 628.609 33.344 629.341 32.3H630.241C629.437 33.584 628.813 35.432 628.813 37.7C628.813 39.968 629.437 41.804 630.241 43.1H629.341C628.609 42.044 627.685 40.136 627.685 37.7ZM634.322 34.52V35.684C634.094 35.648 633.89 35.636 633.71 35.636C632.702 35.636 632.198 36.188 632.198 37.616V41H631.106V34.544H632.174V35.672C632.498 34.94 633.146 34.544 633.998 34.508C634.106 34.508 634.19 34.508 634.322 34.52ZM634.64 33.32V32.3H640.664V33.32C638.504 35.06 637.184 37.736 636.98 41H635.66C635.852 37.868 637.22 35.204 639.392 33.32H634.64ZM641.524 34.544H642.616V41H641.524V34.544ZM641.524 32.3H642.616V33.62H641.524V32.3ZM645.644 41H644.264V39.62H645.644V41ZM649.08 41H647.988V34.196H645.972V33.452C647.208 33.416 647.868 33.236 648.336 32.3H649.08V41ZM652.082 38.216C652.082 39.416 652.826 40.244 653.978 40.244C655.082 40.244 655.886 39.404 655.886 38.216C655.886 37.028 655.106 36.152 653.99 36.152C652.85 36.152 652.082 37.028 652.082 38.216ZM654.086 33.056C652.73 33.056 652.01 34.4 651.95 36.416C652.346 35.732 653.09 35.204 654.242 35.204C655.862 35.204 657.05 36.416 657.05 38.156C657.05 39.776 655.85 41.156 653.99 41.156C651.818 41.156 650.822 39.644 650.822 36.956C650.822 34.508 651.686 32.144 654.218 32.144C655.922 32.144 656.714 33.212 656.906 34.316H655.718C655.574 33.536 654.986 33.056 654.086 33.056ZM663.557 34.544L661.361 37.628L663.773 41H662.465L660.713 38.54L658.973 41H657.725L660.101 37.676L657.869 34.544H659.177L660.749 36.764L662.333 34.544H663.557ZM665.819 32.3V41H664.727V32.3H665.819ZM671.62 38.3V37.892C669.64 38.084 668.38 38.384 668.38 39.272C668.38 39.884 668.848 40.292 669.628 40.292C670.648 40.292 671.62 39.824 671.62 38.3ZM669.388 41.156C668.176 41.156 667.168 40.484 667.168 39.296C667.168 37.772 668.896 37.316 671.536 37.028V36.872C671.536 35.684 670.888 35.3 670.072 35.3C669.16 35.3 668.644 35.78 668.596 36.584H667.468C667.564 35.192 668.812 34.412 670.06 34.412C671.848 34.412 672.64 35.252 672.628 37.076L672.616 38.564C672.604 39.656 672.652 40.388 672.784 41H671.68C671.644 40.76 671.608 40.496 671.596 40.112C671.2 40.784 670.54 41.156 669.388 41.156ZM677.471 34.52V35.684C677.243 35.648 677.039 35.636 676.859 35.636C675.851 35.636 675.347 36.188 675.347 37.616V41H674.255V34.544H675.323V35.672C675.647 34.94 676.295 34.544 677.147 34.508C677.255 34.508 677.339 34.508 677.471 34.52ZM682.747 35.564V34.544H683.839V40.136C683.839 41.444 683.599 41.996 683.227 42.404C682.759 42.944 681.955 43.256 680.995 43.256C679.519 43.256 678.547 42.584 678.343 41.276H679.507C679.639 41.852 680.011 42.296 681.007 42.296C681.595 42.296 682.027 42.14 682.327 41.816C682.555 41.552 682.747 41.276 682.747 40.388V39.776C682.351 40.46 681.739 40.892 680.695 40.892C679.267 40.892 677.959 39.74 677.959 37.664C677.959 35.6 679.267 34.436 680.695 34.436C681.739 34.436 682.351 34.88 682.747 35.564ZM682.795 37.664C682.795 36.032 681.931 35.372 680.971 35.372C679.903 35.372 679.147 36.188 679.147 37.664C679.147 39.152 679.903 39.968 680.971 39.968C681.931 39.968 682.795 39.308 682.795 37.664ZM691.263 38.132H686.295C686.331 39.524 687.339 40.196 688.287 40.196C689.247 40.196 689.775 39.764 690.051 39.128H691.179C690.891 40.232 689.859 41.156 688.287 41.156C686.247 41.156 685.119 39.692 685.119 37.784C685.119 35.732 686.487 34.436 688.251 34.436C690.231 34.436 691.395 36.08 691.263 38.132ZM688.251 35.372C687.291 35.372 686.403 35.9 686.307 37.196H690.111C690.075 36.284 689.415 35.372 688.251 35.372ZM702.548 41H700.76L696.776 33.572V41H695.552V32.3H697.352L701.324 39.704V32.3H702.548V41ZM705.834 32.3V41H704.61V32.3H705.834ZM714.011 38.228H715.199C714.815 40.148 713.315 41.156 711.431 41.156C708.935 41.156 707.483 39.272 707.483 36.632C707.483 33.944 709.079 32.144 711.527 32.144C713.327 32.144 714.767 33.212 715.151 35.072H713.963C713.711 33.98 712.847 33.176 711.467 33.176C709.931 33.176 708.731 34.376 708.731 36.632C708.731 38.84 709.883 40.124 711.503 40.124C712.895 40.124 713.735 39.344 714.011 38.228ZM718.134 37.7C718.134 40.136 717.21 42.044 716.478 43.1H715.578C716.382 41.804 717.006 39.968 717.006 37.7C717.006 35.444 716.37 33.572 715.578 32.3H716.478C717.21 33.344 718.134 35.264 718.134 37.7Z" fill="#666666"/>
<path d="M79.0464 371.25L103.855 371.237L107.389 370.728L110.923 356.47L114.456 370.07L117.99 371.25H121.595L125.129 370.864L128.663 361.984L132.197 339.033L135.731 285.616L139.335 336.86L142.869 290.274L146.403 329.731L150.008 295.664L153.542 324.341L157.076 303.848L160.68 316.007L164.214 306.196L167.748 315.063L171.282 306.605L174.887 316.032L178.421 307.996L181.955 311.635L185.489 316.044L189.093 307.661L192.627 310.903L196.161 312.592L199.695 312.033L203.3 312.02L206.834 306.903L210.368 312.703L213.902 309.363L217.506 311.176L221.04 320.068L224.574 304.283L228.179 316.578L231.713 310.381L235.247 313.101L238.78 310.083L242.385 313.163L245.919 311.499L249.453 312.666L253.058 306.133L256.592 313.945L260.125 310.369L263.659 309.909L267.193 311.524L270.798 308.046L274.332 313.151L277.866 308.679L281.47 312.79L285.004 309.201L288.609 309.251L292.143 315.56L295.677 306.829L299.211 318.752L302.815 304.072L306.349 313.734L309.883 311.76L313.488 314.715L317.022 316.578L320.556 308.791L324.16 314.604L327.694 312.244L331.228 315.697L334.833 311.995L338.367 308.555L341.901 314.43L345.435 313.97L349.039 315.473L352.573 309.064L356.107 317.274L359.712 311.188L363.246 313.511L366.78 311.995L370.384 306.618L373.918 313.001L377.452 312.107L380.986 310.381L384.591 317.1L388.125 310.331L391.659 308.642L395.263 308.866L398.797 312.033L402.331 309.574L405.865 312.679L409.47 309.487L413.004 312.654L416.538 309.412L420.142 314.517L423.676 306.717L427.21 322.068L430.744 303.115L434.349 319.249L437.883 305.773L441.417 316.057L445.021 309.201L448.555 315.883L452.089 312.989L455.694 310.567L459.228 318.913L462.762 307.86L466.295 318.007L469.9 304.395L473.434 315.212L476.968 314.268L480.573 311.573L484.107 310.195L487.64 313.809L491.245 313.598L494.779 308.034L498.313 317.733L501.847 307.959L505.452 316.951L508.985 313.188L512.519 315.808L516.053 309.375L519.658 313.598L523.192 307.338L526.726 319.46L530.33 314.256L533.864 323.086L537.398 309.772L541.003 313.25L544.537 308.493L548.071 322.391L551.675 311.424L555.209 311.399L558.743 317.535L562.277 310.865L565.882 318.342L569.416 310.157L572.95 321.372L576.554 307.276L580.088 319.472L583.693 309.276L587.227 312.033L590.761 313.026L594.365 315.87L597.899 316.777L601.433 310.282L604.967 317.063L608.572 307.276L612.106 316.541L615.64 310.468L619.244 318.454L622.778 307.996L626.312 317.212L629.917 312.939L633.451 311.809L636.985 318.429L640.589 313.163L644.123 309.449L647.657 319.013L651.191 312.405L654.796 312.48L658.33 308.431L661.864 315.672L665.468 317.485L669.002 309.921L672.536 320.789L676.07 309.338L679.675 315.759L683.209 311.834L686.743 313.722L690.347 312.132L693.881 318.603L697.415 323.347L701.02 310.468L704.554 317.609L708.088 310.145L711.692 328.861L715.226 342.138L718.76 368.331" stroke="#FF6900" stroke-width="2" stroke-linecap="round"/>
<path d="M292.223 99.544L293.975 104.488L295.727 99.544H296.855L294.419 106H293.447L291.011 99.544H292.223ZM300.482 97.144C302.09 97.144 303.242 97.948 303.242 99.424C303.242 101.44 301.142 103.216 298.706 104.98H303.482V106H297.218V105.016C300.29 102.748 302.09 101.116 302.09 99.568C302.09 98.656 301.502 98.056 300.458 98.056C299.522 98.056 298.622 98.572 298.586 100.012H297.458C297.422 98.284 298.622 97.144 300.482 97.144ZM306.097 106H304.717V104.62H306.097V106ZM312.46 101.644C312.46 99.232 311.596 98.056 310.24 98.056C308.86 98.056 308.02 99.232 308.02 101.644C308.02 104.08 308.86 105.244 310.24 105.244C311.62 105.244 312.46 104.08 312.46 101.644ZM313.624 101.644C313.624 104.392 312.556 106.156 310.24 106.156C307.924 106.156 306.856 104.392 306.856 101.644C306.856 98.896 307.924 97.144 310.24 97.144C312.556 97.144 313.624 98.896 313.624 101.644ZM318.546 103.228H314.73V102.196H318.546V103.228ZM324.604 100.564V97.3H325.696V106H324.604V105.028C324.208 105.712 323.536 106.156 322.492 106.156C321.004 106.156 319.732 104.944 319.732 102.796C319.732 100.684 321.004 99.436 322.492 99.436C323.536 99.436 324.208 99.88 324.604 100.564ZM324.652 102.796C324.652 101.092 323.74 100.372 322.768 100.372C321.652 100.372 320.92 101.248 320.92 102.796C320.92 104.344 321.652 105.22 322.768 105.22C323.74 105.22 324.652 104.5 324.652 102.796ZM333.118 103.132H328.15C328.186 104.524 329.194 105.196 330.142 105.196C331.102 105.196 331.63 104.764 331.906 104.128H333.034C332.746 105.232 331.714 106.156 330.142 106.156C328.102 106.156 326.974 104.692 326.974 102.784C326.974 100.732 328.342 99.436 330.106 99.436C332.086 99.436 333.25 101.08 333.118 103.132ZM330.106 100.372C329.146 100.372 328.258 100.9 328.162 102.196H331.966C331.93 101.284 331.27 100.372 330.106 100.372ZM334.68 99.544L336.432 104.488L338.184 99.544H339.312L336.876 106H335.904L333.468 99.544H334.68ZM342.547 102.7C342.547 100.264 343.471 98.344 344.203 97.3H345.103C344.299 98.584 343.675 100.432 343.675 102.7C343.675 104.968 344.299 106.804 345.103 108.1H344.203C343.471 107.044 342.547 105.136 342.547 102.7ZM350.036 103.3V102.892C348.056 103.084 346.796 103.384 346.796 104.272C346.796 104.884 347.264 105.292 348.044 105.292C349.064 105.292 350.036 104.824 350.036 103.3ZM347.804 106.156C346.592 106.156 345.584 105.484 345.584 104.296C345.584 102.772 347.312 102.316 349.952 102.028V101.872C349.952 100.684 349.304 100.3 348.488 100.3C347.576 100.3 347.06 100.78 347.012 101.584H345.884C345.98 100.192 347.228 99.412 348.476 99.412C350.264 99.412 351.056 100.252 351.044 102.076L351.032 103.564C351.02 104.656 351.068 105.388 351.2 106H350.096C350.06 105.76 350.024 105.496 350.012 105.112C349.616 105.784 348.956 106.156 347.804 106.156ZM357.508 101.428H356.368C356.188 100.66 355.612 100.36 354.844 100.36C354.208 100.36 353.488 100.588 353.488 101.176C353.488 101.692 353.848 101.92 354.472 102.052L355.384 102.232C356.56 102.448 357.592 102.916 357.592 104.152C357.592 105.436 356.44 106.156 354.964 106.156C353.272 106.156 352.324 105.04 352.192 103.912H353.344C353.524 104.74 354.028 105.232 354.988 105.232C355.816 105.232 356.488 104.884 356.488 104.272C356.488 103.612 355.876 103.36 355.18 103.204L354.22 103.012C353.344 102.82 352.384 102.436 352.384 101.224C352.384 100.084 353.536 99.424 354.964 99.424C356.368 99.424 357.304 100.192 357.508 101.428ZM362.564 99.544H363.704L361.4 106.276C360.92 107.668 360.608 108.1 359.156 108.1H358.592V107.188H359.036C359.756 107.188 360.104 107.14 360.392 106.132L360.44 106L358.112 99.544H359.324L360.968 104.524L362.564 99.544ZM365.658 99.544V100.516C366.03 99.904 366.654 99.436 367.746 99.436C369.306 99.436 369.87 100.444 369.87 101.92V106H368.778V102.244C368.778 101.248 368.61 100.384 367.362 100.384C366.306 100.384 365.658 101.104 365.658 102.496V106H364.566V99.544H365.658ZM374.18 99.436C375.764 99.436 376.724 100.6 376.88 101.704H375.776C375.62 100.936 374.96 100.396 374.108 100.396C373.148 100.396 372.248 101.152 372.248 102.772C372.248 104.404 373.148 105.196 374.108 105.196C375.032 105.196 375.668 104.572 375.824 103.9H376.952C376.724 105.112 375.584 106.156 374.072 106.156C372.212 106.156 371.06 104.752 371.06 102.784C371.06 100.864 372.272 99.436 374.18 99.436ZM382.423 97.3V106H381.199V97.3H382.423ZM384.493 106H383.401L386.821 97.3H387.925L384.493 106ZM389.55 101.644C389.55 103.888 390.798 105.124 392.382 105.124C393.966 105.124 395.214 103.888 395.214 101.644C395.214 99.4 393.966 98.176 392.382 98.176C390.798 98.176 389.55 99.4 389.55 101.644ZM396.462 101.644C396.462 104.272 394.89 106.156 392.382 106.156C389.874 106.156 388.302 104.272 388.302 101.644C388.302 99.016 389.874 97.144 392.382 97.144C394.89 97.144 396.462 99.016 396.462 101.644ZM399.633 102.7C399.633 105.136 398.709 107.044 397.977 108.1H397.077C397.881 106.804 398.505 104.968 398.505 102.7C398.505 100.444 397.869 98.572 397.077 97.3H397.977C398.709 98.344 399.633 100.264 399.633 102.7Z" fill="#58A8DA"/>
<path d="M479.522 287.544L481.274 292.488L483.026 287.544H484.154L481.718 294H480.746L478.31 287.544H479.522ZM487.409 294H486.317V287.196H484.301V286.452C485.537 286.416 486.197 286.236 486.665 285.3H487.409V294ZM490.735 294H489.355V292.62H490.735V294ZM494.906 293.244C495.95 293.244 496.85 292.488 496.85 291.144C496.85 289.704 495.842 289.08 494.894 289.08C493.994 289.08 493.406 289.608 493.214 290.04L492.122 289.98L492.686 285.3H497.678V286.32H493.574L493.274 288.792C493.742 288.348 494.426 288.132 495.146 288.132C496.67 288.132 498.002 289.212 498.002 291.132C498.002 293.124 496.526 294.156 494.906 294.156C492.902 294.156 491.966 292.884 491.81 291.48H492.938C493.118 292.584 493.694 293.244 494.906 293.244ZM500.497 294H499.117V292.62H500.497V294ZM504.668 293.244C505.712 293.244 506.612 292.488 506.612 291.144C506.612 289.704 505.604 289.08 504.656 289.08C503.756 289.08 503.168 289.608 502.976 290.04L501.884 289.98L502.448 285.3H507.44V286.32H503.336L503.036 288.792C503.504 288.348 504.188 288.132 504.908 288.132C506.432 288.132 507.764 289.212 507.764 291.132C507.764 293.124 506.288 294.156 504.668 294.156C502.664 294.156 501.728 292.884 501.572 291.48H502.7C502.88 292.584 503.456 293.244 504.668 293.244ZM511.565 290.7C511.565 288.264 512.489 286.344 513.221 285.3H514.121C513.317 286.584 512.693 288.432 512.693 290.7C512.693 292.968 513.317 294.804 514.121 296.1H513.221C512.489 295.044 511.565 293.136 511.565 290.7ZM519.822 289.428H518.682C518.502 288.66 517.926 288.36 517.158 288.36C516.522 288.36 515.802 288.588 515.802 289.176C515.802 289.692 516.162 289.92 516.786 290.052L517.698 290.232C518.874 290.448 519.906 290.916 519.906 292.152C519.906 293.436 518.754 294.156 517.278 294.156C515.586 294.156 514.638 293.04 514.506 291.912H515.658C515.838 292.74 516.342 293.232 517.302 293.232C518.13 293.232 518.802 292.884 518.802 292.272C518.802 291.612 518.19 291.36 517.494 291.204L516.534 291.012C515.658 290.82 514.698 290.436 514.698 289.224C514.698 288.084 515.85 287.424 517.278 287.424C518.682 287.424 519.618 288.192 519.822 289.428ZM524.879 287.544H526.019L523.715 294.276C523.235 295.668 522.923 296.1 521.471 296.1H520.907V295.188H521.351C522.071 295.188 522.419 295.14 522.707 294.132L522.755 294L520.427 287.544H521.639L523.283 292.524L524.879 287.544ZM527.973 287.544V288.516C528.345 287.904 528.969 287.436 530.061 287.436C531.621 287.436 532.185 288.444 532.185 289.92V294H531.093V290.244C531.093 289.248 530.925 288.384 529.677 288.384C528.621 288.384 527.973 289.104 527.973 290.496V294H526.881V287.544H527.973ZM536.494 287.436C538.078 287.436 539.038 288.6 539.194 289.704H538.09C537.934 288.936 537.274 288.396 536.422 288.396C535.462 288.396 534.562 289.152 534.562 290.772C534.562 292.404 535.462 293.196 536.422 293.196C537.346 293.196 537.982 292.572 538.138 291.9H539.266C539.038 293.112 537.898 294.156 536.386 294.156C534.526 294.156 533.374 292.752 533.374 290.784C533.374 288.864 534.586 287.436 536.494 287.436ZM541.59 285.3V288.516C541.962 287.904 542.586 287.436 543.678 287.436C545.238 287.436 545.802 288.444 545.802 289.92V294H544.71V290.244C544.71 289.248 544.542 288.384 543.294 288.384C542.238 288.384 541.59 289.104 541.59 290.496V294H540.498V285.3H541.59ZM550.651 287.52V288.684C550.423 288.648 550.219 288.636 550.039 288.636C549.031 288.636 548.527 289.188 548.527 290.616V294H547.435V287.544H548.503V288.672C548.827 287.94 549.475 287.544 550.327 287.508C550.435 287.508 550.519 287.508 550.651 287.52ZM552.328 290.796C552.328 292.524 553.264 293.196 554.26 293.196C555.256 293.196 556.192 292.452 556.192 290.796C556.192 289.068 555.256 288.396 554.26 288.396C553.264 288.396 552.328 289.032 552.328 290.796ZM554.26 287.436C555.76 287.436 557.356 288.456 557.356 290.796C557.356 293.136 555.76 294.156 554.26 294.156C552.76 294.156 551.164 293.136 551.164 290.796C551.164 288.456 552.76 287.436 554.26 287.436ZM559.754 287.544V288.516C560.126 287.904 560.75 287.436 561.842 287.436C563.402 287.436 563.966 288.444 563.966 289.92V294H562.874V290.244C562.874 289.248 562.706 288.384 561.458 288.384C560.402 288.384 559.754 289.104 559.754 290.496V294H558.662V287.544H559.754ZM566.343 290.796C566.343 292.524 567.279 293.196 568.275 293.196C569.271 293.196 570.207 292.452 570.207 290.796C570.207 289.068 569.271 288.396 568.275 288.396C567.279 288.396 566.343 289.032 566.343 290.796ZM568.275 287.436C569.775 287.436 571.371 288.456 571.371 290.796C571.371 293.136 569.775 294.156 568.275 294.156C566.775 294.156 565.179 293.136 565.179 290.796C565.179 288.456 566.775 287.436 568.275 287.436ZM576.673 294V293.076C576.301 293.688 575.713 294.156 574.645 294.156C573.157 294.156 572.581 293.148 572.581 291.672V287.544H573.673V291.348C573.673 292.344 573.829 293.208 575.029 293.208C576.073 293.208 576.673 292.488 576.673 291.096V287.544H577.765V294H576.673ZM584.334 289.428H583.194C583.014 288.66 582.438 288.36 581.67 288.36C581.034 288.36 580.314 288.588 580.314 289.176C580.314 289.692 580.674 289.92 581.298 290.052L582.21 290.232C583.386 290.448 584.418 290.916 584.418 292.152C584.418 293.436 583.266 294.156 581.79 294.156C580.098 294.156 579.15 293.04 579.018 291.912H580.17C580.35 292.74 580.854 293.232 581.814 293.232C582.642 293.232 583.314 292.884 583.314 292.272C583.314 291.612 582.702 291.36 582.006 291.204L581.046 291.012C580.17 290.82 579.21 290.436 579.21 289.224C579.21 288.084 580.362 287.424 581.79 287.424C583.194 287.424 584.13 288.192 584.334 289.428ZM587.494 290.7C587.494 293.136 586.57 295.044 585.838 296.1H584.938C585.742 294.804 586.366 292.968 586.366 290.7C586.366 288.444 585.73 286.572 584.938 285.3H585.838C586.57 286.344 587.494 288.264 587.494 290.7Z" fill="#FF6900"/>
<path d="M78.9761 371.238L82.5807 371.25L86.1146 370.729L89.6486 356.483L93.1825 369.549L96.7165 371.25H100.25L103.855 371.188L107.389 368.791L110.923 369.71L114.457 370.89L118.061 370.22L121.595 369.524L125.129 349.143L128.663 207.026L132.197 270.03L135.802 218.663L139.336 278.327L142.87 145.039L146.686 99.6581L150.22 256.381L153.754 134.296L157.359 122.56L160.893 175.145L164.497 101.397L168.031 105.843L171.565 174.983L175.17 89.1387L178.704 100.354L182.238 97.9194L185.842 122.212L189.376 57.332L192.91 146.94L196.444 142.17L200.049 86.158L203.583 114.251L207.117 164.402L210.721 90.9271L214.255 120.66L217.789 111.01L221.394 58.4374L224.928 156.739L228.462 140.916L231.996 63.2438L235.6 160.912L239.134 88.6667L242.668 95.6466L246.273 157.273L249.807 120.064L253.341 86.0338L256.945 131.999L260.479 143.276L264.084 89.9211L267.618 96.9258L271.152 98.9874L274.756 105.942L278.29 127.143L281.824 112.686L285.429 313.661L288.963 368.978" stroke="#58A8DA" stroke-width="2" stroke-linecap="round"/>
</svg>
