<svg width="1440" height="880" viewBox="0 0 1440 880" fill="none" xmlns="http://www.w3.org/2000/svg">
<g clip-path="url(#clip0_12980_22251)">
<rect width="1440" height="880" fill="url(#paint0_linear_12980_22251)"/>
<path d="M611.5 977.5L611.5 811C611.5 766.817 575.683 731 531.5 731L287 731C242.817 731 207 695.183 207 651L207 587.5C207 543.317 171.183 507.5 127 507.5L-81.0006 507.5" stroke="#F0DF09" stroke-width="2.9926"/>
<path d="M880 -242L880 249.499C880 293.682 915.817 329.499 960 329.499H1543" stroke="#F0DF09" stroke-width="2.9926"/>
<path d="M1136 988.388L1136 1.99962C1136 -42.1831 1171.82 -78.0001 1216 -78.0001L1495 -78.0001C1539.18 -78.0001 1575 -42.1829 1575 1.99992L1575 250.375C1575 294.558 1610.82 330.375 1655 330.375L1969.18 330.375C2013.36 330.375 2049.18 366.192 2049.18 410.375V528.375" stroke="#F0DF09" stroke-width="2.9926"/>
<rect x="1125.96" y="209.962" width="19.0762" height="40.0762" rx="9.53809" fill="#D4C50B" stroke="#F0DF09" stroke-width="1.92382"/>
<path d="M696 -214.999C696 -210.582 692.418 -207 688.001 -207L625.13 -207C586.146 -207 554.482 -175.515 554.261 -136.533L552.568 161.454C552.318 205.459 516.574 241 472.569 241L258.508 241C219.083 241 187.32 208.668 188.02 169.25C188.72 129.831 156.957 97.5 117.532 97.5L-13 97.5" stroke="#F0DF09" stroke-width="2.9926"/>
<path d="M508 -327L508 -136.656C508 -92.4737 472.183 -56.6565 428 -56.6564L363.733 -56.6563C319.55 -56.6562 283.733 -20.8391 283.733 23.3437L283.733 325C283.733 369.183 247.916 405 203.733 405L-138.12 405C-182.303 405 -218.12 369.182 -218.12 325L-218.12 46.5925C-218.12 2.40972 -253.938 -33.4075 -298.12 -33.4075L-617 -33.4075" stroke="#F0DF09" stroke-width="2.9926"/>
<rect x="347.962" y="247.038" width="13.0762" height="29.0762" rx="6.53809" transform="rotate(-90 347.962 247.038)" fill="#D4C50B" stroke="#F0DF09" stroke-width="1.92382"/>
<rect x="386.962" y="741.038" width="21.0762" height="43.0762" rx="10.5381" transform="rotate(-90 386.962 741.038)" fill="#D4C50B" stroke="#F0DF09" stroke-width="1.92382"/>
<path d="M802.442 654.957C801.858 654.372 801.858 653.425 802.442 652.841L811.964 643.318C812.549 642.734 813.496 642.734 814.08 643.318C814.665 643.903 814.665 644.85 814.08 645.434L805.616 653.899L814.08 662.363C814.665 662.947 814.665 663.895 814.08 664.479C813.496 665.064 812.549 665.064 811.964 664.479L802.442 654.957ZM1315 884.297L1313.5 884.297L1315 884.297ZM1718 970L1717.97 971.496L1393.56 965.78L1393.59 964.284L1393.62 962.788L1718.03 968.504L1718 970ZM1315 884.297L1313.5 884.297L1313.5 733.898L1315 733.898L1316.5 733.898L1316.5 884.297L1315 884.297ZM1235 653.899L1235 655.395L803.5 655.395L803.5 653.899L803.5 652.402L1235 652.402L1235 653.899ZM1315 733.898L1313.5 733.898C1313.5 690.542 1278.36 655.395 1235 655.395L1235 653.899L1235 652.402C1280.01 652.402 1316.5 688.889 1316.5 733.898L1315 733.898ZM1393.59 964.284L1393.56 965.78C1349.12 964.997 1313.5 928.746 1313.5 884.297L1315 884.297L1316.5 884.297C1316.5 927.114 1350.81 962.034 1393.62 962.788L1393.59 964.284Z" fill="#F0DF09"/>
</g>
<defs>
<linearGradient id="paint0_linear_12980_22251" x1="706.8" y1="-45.2816" x2="701.934" y2="1071.37" gradientUnits="userSpaceOnUse">
<stop stop-color="#FDEF00"/>
<stop offset="0.938633" stop-color="#FFFAA3"/>
</linearGradient>
<clipPath id="clip0_12980_22251">
<rect width="1440" height="880" fill="white"/>
</clipPath>
</defs>
</svg>
