<svg width="40" height="40" viewBox="0 0 40 40" fill="none" xmlns="http://www.w3.org/2000/svg">
<path d="M20 40C8.93877 40 0 31.0612 0 20C0 8.93877 8.93877 0 20 0C31.0612 0 40 8.93877 40 20C40 31.0612 31.0612 40 20 40Z" fill="#FFF100"/>
<path d="M30.6957 17.0195H26.7773V22.9379H30.6957C32.3284 22.9379 33.6753 21.591 33.6753 19.9583C33.6753 18.3257 32.3284 17.0195 30.6957 17.0195Z" fill="#1A1A1A"/>
<path d="M7.55078 20.0006C7.55078 24.572 11.2651 28.2863 15.8365 28.2863C20.4079 28.2863 24.1222 24.572 24.1222 20.0006C24.1222 15.4291 20.4079 11.7148 15.8365 11.7148C11.2651 11.7148 7.55078 15.4291 7.55078 20.0006Z" fill="#1A1A1A"/>
</svg>
