<svg width="679" height="533" viewBox="0 0 679 533" fill="none" xmlns="http://www.w3.org/2000/svg">
<rect x="0.5" y="0.5" width="677.623" height="531.619" rx="9.5" fill="#1A1A1A"/>
<rect x="0.5" y="0.5" width="677.623" height="531.619" rx="9.5" stroke="#333333"/>
<path d="M39.4406 400.819H37.9226V394.857H36.2066V393.823C37.3506 393.79 37.9116 393.713 38.2856 392.844H39.4406V400.819ZM43.9741 400.962C41.8401 400.962 40.7621 399.235 40.7621 396.815C40.7621 394.395 41.8401 392.701 43.9741 392.701C46.0861 392.701 47.1751 394.395 47.1751 396.815C47.1751 399.235 46.0861 400.962 43.9741 400.962ZM43.9741 399.818C45.0631 399.818 45.6241 398.74 45.6241 396.815C45.6241 394.89 45.0631 393.845 43.9741 393.845C42.8851 393.845 42.3131 394.89 42.3131 396.815C42.3131 398.74 42.8851 399.818 43.9741 399.818ZM51.3231 400.962C49.1891 400.962 48.1111 399.235 48.1111 396.815C48.1111 394.395 49.1891 392.701 51.3231 392.701C53.4351 392.701 54.5241 394.395 54.5241 396.815C54.5241 399.235 53.4351 400.962 51.3231 400.962ZM51.3231 399.818C52.4121 399.818 52.9731 398.74 52.9731 396.815C52.9731 394.89 52.4121 393.845 51.3231 393.845C50.2341 393.845 49.6621 394.89 49.6621 396.815C49.6621 398.74 50.2341 399.818 51.3231 399.818ZM58.672 400.962C56.538 400.962 55.46 399.235 55.46 396.815C55.46 394.395 56.538 392.701 58.672 392.701C60.784 392.701 61.873 394.395 61.873 396.815C61.873 399.235 60.784 400.962 58.672 400.962ZM58.672 399.818C59.761 399.818 60.322 398.74 60.322 396.815C60.322 394.89 59.761 393.845 58.672 393.845C57.583 393.845 57.011 394.89 57.011 396.815C57.011 398.74 57.583 399.818 58.672 399.818Z" fill="#B2B2B2"/>
<path d="M37.0584 310.488C38.6534 310.488 39.6764 311.236 39.6764 312.633C39.6764 314.118 38.2244 315.691 35.7714 317.33H39.8634V318.606H34.0004V317.374C36.5634 315.317 38.1474 313.975 38.1474 312.71C38.1474 312.006 37.7184 311.61 36.9704 311.61C36.2994 311.61 35.6174 312.017 35.6174 313.205H34.1434C34.1104 311.566 35.2984 310.488 37.0584 310.488ZM43.8245 318.749C41.6905 318.749 40.6125 317.022 40.6125 314.602C40.6125 312.182 41.6905 310.488 43.8245 310.488C45.9365 310.488 47.0255 312.182 47.0255 314.602C47.0255 317.022 45.9365 318.749 43.8245 318.749ZM43.8245 317.605C44.9135 317.605 45.4745 316.527 45.4745 314.602C45.4745 312.677 44.9135 311.632 43.8245 311.632C42.7355 311.632 42.1635 312.677 42.1635 314.602C42.1635 316.527 42.7355 317.605 43.8245 317.605ZM51.1734 318.749C49.0394 318.749 47.9614 317.022 47.9614 314.602C47.9614 312.182 49.0394 310.488 51.1734 310.488C53.2854 310.488 54.3744 312.182 54.3744 314.602C54.3744 317.022 53.2854 318.749 51.1734 318.749ZM51.1734 317.605C52.2624 317.605 52.8234 316.527 52.8234 314.602C52.8234 312.677 52.2624 311.632 51.1734 311.632C50.0844 311.632 49.5124 312.677 49.5124 314.602C49.5124 316.527 50.0844 317.605 51.1734 317.605ZM58.5224 318.749C56.3884 318.749 55.3104 317.022 55.3104 314.602C55.3104 312.182 56.3884 310.488 58.5224 310.488C60.6344 310.488 61.7234 312.182 61.7234 314.602C61.7234 317.022 60.6344 318.749 58.5224 318.749ZM58.5224 317.605C59.6114 317.605 60.1724 316.527 60.1724 314.602C60.1724 312.677 59.6114 311.632 58.5224 311.632C57.4334 311.632 56.8614 312.677 56.8614 314.602C56.8614 316.527 57.4334 317.605 58.5224 317.605Z" fill="#B2B2B2"/>
<path d="M36.4853 235.393C37.3213 235.393 37.9813 234.898 37.9813 234.15C37.9813 233.215 37.1123 232.841 35.9793 232.841H35.6603V231.653H35.9243C37.0683 231.653 37.7833 231.235 37.7833 230.487C37.7833 229.794 37.1783 229.42 36.5183 229.42C35.5943 229.42 35.0223 229.992 34.9453 230.828H33.5043C33.6803 229.233 34.7693 228.276 36.6063 228.276C37.9373 228.276 39.3123 228.914 39.3123 230.421C39.3123 231.202 38.8503 231.829 38.2343 232.17C39.0593 232.522 39.5213 233.303 39.5213 234.106C39.5213 235.723 38.1243 236.537 36.4413 236.537C34.6153 236.537 33.5263 235.349 33.4383 233.886H34.8683C34.9893 234.689 35.4843 235.393 36.4853 235.393ZM43.6602 236.537C41.5262 236.537 40.4482 234.81 40.4482 232.39C40.4482 229.97 41.5262 228.276 43.6602 228.276C45.7722 228.276 46.8612 229.97 46.8612 232.39C46.8612 234.81 45.7722 236.537 43.6602 236.537ZM43.6602 235.393C44.7492 235.393 45.3102 234.315 45.3102 232.39C45.3102 230.465 44.7492 229.42 43.6602 229.42C42.5712 229.42 41.9992 230.465 41.9992 232.39C41.9992 234.315 42.5712 235.393 43.6602 235.393ZM51.0091 236.537C48.8751 236.537 47.7971 234.81 47.7971 232.39C47.7971 229.97 48.8751 228.276 51.0091 228.276C53.1211 228.276 54.2101 229.97 54.2101 232.39C54.2101 234.81 53.1211 236.537 51.0091 236.537ZM51.0091 235.393C52.0981 235.393 52.6591 234.315 52.6591 232.39C52.6591 230.465 52.0981 229.42 51.0091 229.42C49.9201 229.42 49.3481 230.465 49.3481 232.39C49.3481 234.315 49.9201 235.393 51.0091 235.393ZM58.3581 236.537C56.2241 236.537 55.1461 234.81 55.1461 232.39C55.1461 229.97 56.2241 228.276 58.3581 228.276C60.4701 228.276 61.5591 229.97 61.5591 232.39C61.5591 234.81 60.4701 236.537 58.3581 236.537ZM58.3581 235.393C59.4471 235.393 60.0081 234.315 60.0081 232.39C60.0081 230.465 59.4471 229.42 58.3581 229.42C57.2691 229.42 56.6971 230.465 56.6971 232.39C56.6971 234.315 57.2691 235.393 58.3581 235.393Z" fill="#B2B2B2"/>
<path d="M37.0075 148.131L34.7305 150.98H37.0075V148.131ZM39.8785 150.98V152.267H38.5145V154.181H37.0075V152.267H33.0695V151.079L37.0295 146.206H38.5145V150.98H39.8785ZM43.6602 154.324C41.5262 154.324 40.4482 152.597 40.4482 150.177C40.4482 147.757 41.5262 146.063 43.6602 146.063C45.7722 146.063 46.8612 147.757 46.8612 150.177C46.8612 152.597 45.7722 154.324 43.6602 154.324ZM43.6602 153.18C44.7492 153.18 45.3102 152.102 45.3102 150.177C45.3102 148.252 44.7492 147.207 43.6602 147.207C42.5712 147.207 41.9992 148.252 41.9992 150.177C41.9992 152.102 42.5712 153.18 43.6602 153.18ZM51.0091 154.324C48.8751 154.324 47.7971 152.597 47.7971 150.177C47.7971 147.757 48.8751 146.063 51.0091 146.063C53.1211 146.063 54.2101 147.757 54.2101 150.177C54.2101 152.597 53.1211 154.324 51.0091 154.324ZM51.0091 153.18C52.0981 153.18 52.6591 152.102 52.6591 150.177C52.6591 148.252 52.0981 147.207 51.0091 147.207C49.9201 147.207 49.3481 148.252 49.3481 150.177C49.3481 152.102 49.9201 153.18 51.0091 153.18ZM58.3581 154.324C56.2241 154.324 55.1461 152.597 55.1461 150.177C55.1461 147.757 56.2241 146.063 58.3581 146.063C60.4701 146.063 61.5591 147.757 61.5591 150.177C61.5591 152.597 60.4701 154.324 58.3581 154.324ZM58.3581 153.18C59.4471 153.18 60.0081 152.102 60.0081 150.177C60.0081 148.252 59.4471 147.207 58.3581 147.207C57.2691 147.207 56.6971 148.252 56.6971 150.177C56.6971 152.102 57.2691 153.18 58.3581 153.18Z" fill="#B2B2B2"/>
<path d="M36.696 70.9668C37.532 70.9668 38.137 70.3618 38.137 69.3498C38.137 68.2498 37.4 67.7218 36.663 67.7218C35.959 67.7218 35.464 68.0628 35.299 68.4478L33.913 68.3818L34.441 63.9928H39.358V65.2688H35.684L35.464 66.9738C35.805 66.7208 36.3 66.5338 37.048 66.5338C38.412 66.5338 39.677 67.5018 39.677 69.3388C39.677 71.0988 38.313 72.1108 36.674 72.1108C34.804 72.1108 33.814 70.8348 33.726 69.4598H35.156C35.244 70.2848 35.717 70.9668 36.696 70.9668ZM43.8245 72.1108C41.6905 72.1108 40.6125 70.3838 40.6125 67.9638C40.6125 65.5438 41.6905 63.8498 43.8245 63.8498C45.9365 63.8498 47.0255 65.5438 47.0255 67.9638C47.0255 70.3838 45.9365 72.1108 43.8245 72.1108ZM43.8245 70.9668C44.9135 70.9668 45.4745 69.8888 45.4745 67.9638C45.4745 66.0388 44.9135 64.9938 43.8245 64.9938C42.7355 64.9938 42.1635 66.0388 42.1635 67.9638C42.1635 69.8888 42.7355 70.9668 43.8245 70.9668ZM51.1734 72.1108C49.0394 72.1108 47.9614 70.3838 47.9614 67.9638C47.9614 65.5438 49.0394 63.8498 51.1734 63.8498C53.2854 63.8498 54.3744 65.5438 54.3744 67.9638C54.3744 70.3838 53.2854 72.1108 51.1734 72.1108ZM51.1734 70.9668C52.2624 70.9668 52.8234 69.8888 52.8234 67.9638C52.8234 66.0388 52.2624 64.9938 51.1734 64.9938C50.0844 64.9938 49.5124 66.0388 49.5124 67.9638C49.5124 69.8888 50.0844 70.9668 51.1734 70.9668ZM58.5224 72.1108C56.3884 72.1108 55.3104 70.3838 55.3104 67.9638C55.3104 65.5438 56.3884 63.8498 58.5224 63.8498C60.6344 63.8498 61.7234 65.5438 61.7234 67.9638C61.7234 70.3838 60.6344 72.1108 58.5224 72.1108ZM58.5224 70.9668C59.6114 70.9668 60.1724 69.8888 60.1724 67.9638C60.1724 66.0388 59.6114 64.9938 58.5224 64.9938C57.4334 64.9938 56.8614 66.0388 56.8614 67.9638C56.8614 69.8888 57.4334 70.9668 58.5224 70.9668Z" fill="#B2B2B2"/>
<path d="M73.3087 459.834H71.7907V453.872H70.0747V452.838C71.2187 452.805 71.7797 452.728 72.1537 451.859H73.3087V459.834Z" fill="#B2B2B2"/>
<path d="M146.883 451.716C148.478 451.716 149.501 452.464 149.501 453.861C149.501 455.346 148.049 456.919 145.596 458.558H149.688V459.834H143.825V458.602C146.388 456.545 147.972 455.203 147.972 453.938C147.972 453.234 147.543 452.838 146.795 452.838C146.124 452.838 145.442 453.245 145.442 454.433H143.968C143.935 452.794 145.123 451.716 146.883 451.716Z" fill="#B2B2B2"/>
<path d="M295.26 453.784L292.983 456.633H295.26V453.784ZM298.131 456.633V457.92H296.767V459.834H295.26V457.92H291.322V456.732L295.282 451.859H296.767V456.633H298.131Z" fill="#B2B2B2"/>
<path d="M590.134 451.716C591.828 451.716 592.917 452.585 592.917 453.762C592.917 454.477 592.642 455.137 591.949 455.566C592.84 456.083 593.159 456.776 593.159 457.557C593.159 459.108 591.828 459.977 590.134 459.977C588.462 459.977 587.12 459.108 587.12 457.557C587.12 456.776 587.45 456.061 588.341 455.566C587.681 455.181 587.362 454.477 587.362 453.773C587.362 452.585 588.462 451.716 590.134 451.716ZM590.134 456.182C589.243 456.182 588.671 456.699 588.671 457.491C588.671 458.283 589.243 458.833 590.134 458.833C591.047 458.833 591.608 458.283 591.608 457.491C591.608 456.699 591.047 456.182 590.134 456.182ZM591.443 453.949C591.443 453.289 590.926 452.86 590.134 452.86C589.342 452.86 588.836 453.289 588.836 453.949C588.836 454.609 589.342 455.093 590.134 455.093C590.926 455.093 591.443 454.609 591.443 453.949Z" fill="#B2B2B2"/>
<path d="M607.208 452.926H604.645V451.859H611.014V452.926H608.462V459.834H607.208V452.926ZM612.95 454.774C613.291 454.191 613.885 453.806 614.809 453.806C616.239 453.806 616.789 454.73 616.789 456.105V459.834H615.645V456.413C615.645 455.555 615.502 454.763 614.424 454.763C613.434 454.763 612.95 455.478 612.95 456.655V459.834H611.806V451.859H612.95V454.774ZM621.299 455.093C621.09 455.071 620.892 455.06 620.705 455.06C619.825 455.06 619.363 455.489 619.363 456.732V459.834H618.219V453.916H619.341V454.961C619.649 454.29 620.243 453.905 620.98 453.894C621.079 453.894 621.2 453.894 621.299 453.905V455.093ZM626.145 458.096H627.3C627.025 459.075 626.145 459.977 624.638 459.977C622.724 459.977 621.69 458.58 621.69 456.864C621.69 455.027 622.922 453.806 624.605 453.806C626.431 453.806 627.498 455.302 627.377 457.227H622.867C622.977 458.316 623.67 458.998 624.594 458.998C625.419 458.998 625.903 458.657 626.145 458.096ZM622.889 456.325H626.189C626.156 455.445 625.54 454.741 624.594 454.741C623.703 454.741 623.043 455.203 622.889 456.325ZM628.094 458.239C628.094 456.798 629.788 456.413 632.087 456.171V456.05C632.087 455.005 631.537 454.653 630.811 454.653C630.019 454.653 629.568 455.06 629.524 455.786H628.369C628.468 454.532 629.502 453.773 630.855 453.773C632.384 453.773 633.264 454.51 633.242 456.281C633.242 456.424 633.22 457.447 633.22 457.7C633.22 458.58 633.275 459.306 633.385 459.834H632.285C632.241 459.603 632.208 459.427 632.186 459.053C631.834 459.647 631.163 459.977 630.206 459.977C629.007 459.977 628.094 459.317 628.094 458.239ZM632.142 457.018C630.305 457.194 629.337 457.447 629.337 458.217C629.337 458.756 629.766 459.097 630.459 459.097C631.405 459.097 632.142 458.624 632.142 457.447V457.018ZM638.648 451.859H639.792V459.834H638.648V458.998C638.285 459.603 637.669 459.977 636.8 459.977C635.425 459.977 634.248 458.822 634.248 456.886C634.248 454.961 635.425 453.806 636.8 453.806C637.669 453.806 638.285 454.18 638.648 454.785V451.859ZM637.064 454.763C636.118 454.763 635.469 455.555 635.469 456.886C635.469 458.217 636.118 459.02 637.064 459.02C637.944 459.02 638.692 458.349 638.692 456.886C638.692 455.423 637.944 454.763 637.064 454.763ZM644.702 455.566C644.537 454.961 644.031 454.719 643.36 454.719C642.799 454.719 642.194 454.95 642.194 455.434C642.194 455.874 642.48 456.061 643.019 456.171L643.866 456.336C644.988 456.556 645.967 456.941 645.967 458.096C645.967 459.295 644.845 459.977 643.481 459.977C641.985 459.977 641.072 459.108 640.929 457.997H642.095C642.249 458.668 642.689 459.064 643.514 459.064C644.251 459.064 644.823 458.756 644.823 458.228C644.823 457.678 644.306 457.458 643.69 457.337L642.799 457.161C641.908 456.985 641.072 456.589 641.072 455.478C641.072 454.433 642.172 453.795 643.47 453.795C644.658 453.795 645.615 454.422 645.835 455.566H644.702Z" fill="#B2B2B2"/>
<path d="M34.899 36.1213H32.336V35.0543H38.705V36.1213H36.153V43.0293H34.899V36.1213ZM41.6962 38.2883C41.4872 38.2663 41.2892 38.2553 41.1022 38.2553C40.2222 38.2553 39.7602 38.6843 39.7602 39.9273V43.0293H38.6162V37.1113H39.7382V38.1563C40.0462 37.4853 40.6402 37.1003 41.3772 37.0893C41.4762 37.0893 41.5972 37.0893 41.6962 37.1003V38.2883ZM42.0347 41.4343C42.0347 39.9933 43.7287 39.6083 46.0277 39.3663V39.2453C46.0277 38.2003 45.4777 37.8483 44.7517 37.8483C43.9597 37.8483 43.5087 38.2553 43.4647 38.9813H42.3097C42.4087 37.7273 43.4427 36.9683 44.7957 36.9683C46.3247 36.9683 47.2047 37.7053 47.1827 39.4763C47.1827 39.6193 47.1607 40.6423 47.1607 40.8953C47.1607 41.7753 47.2157 42.5013 47.3257 43.0293H46.2257C46.1817 42.7983 46.1487 42.6223 46.1267 42.2483C45.7747 42.8423 45.1037 43.1723 44.1467 43.1723C42.9477 43.1723 42.0347 42.5123 42.0347 41.4343ZM46.0827 40.2133C44.2457 40.3893 43.2777 40.6423 43.2777 41.4123C43.2777 41.9513 43.7067 42.2923 44.3997 42.2923C45.3457 42.2923 46.0827 41.8193 46.0827 40.6423V40.2133ZM49.7397 37.9693C50.0807 37.3863 50.6747 37.0013 51.5987 37.0013C53.0287 37.0013 53.5787 37.9253 53.5787 39.3003V43.0293H52.4347V39.6083C52.4347 38.7503 52.2917 37.9583 51.2137 37.9583C50.2237 37.9583 49.7397 38.6733 49.7397 39.8503V43.0293H48.5957V37.1113H49.7397V37.9693ZM58.3748 38.7613C58.2098 38.1563 57.7038 37.9143 57.0328 37.9143C56.4718 37.9143 55.8668 38.1453 55.8668 38.6293C55.8668 39.0693 56.1528 39.2563 56.6918 39.3663L57.5388 39.5313C58.6608 39.7513 59.6398 40.1363 59.6398 41.2913C59.6398 42.4903 58.5178 43.1723 57.1538 43.1723C55.6578 43.1723 54.7448 42.3033 54.6018 41.1923H55.7678C55.9218 41.8633 56.3618 42.2593 57.1868 42.2593C57.9238 42.2593 58.4958 41.9513 58.4958 41.4233C58.4958 40.8733 57.9788 40.6533 57.3628 40.5323L56.4718 40.3563C55.5808 40.1803 54.7448 39.7843 54.7448 38.6733C54.7448 37.6283 55.8448 36.9903 57.1428 36.9903C58.3308 36.9903 59.2878 37.6173 59.5078 38.7613H58.3748ZM60.4361 41.4343C60.4361 39.9933 62.1301 39.6083 64.4291 39.3663V39.2453C64.4291 38.2003 63.8791 37.8483 63.1531 37.8483C62.3611 37.8483 61.9101 38.2553 61.8661 38.9813H60.7111C60.8101 37.7273 61.8441 36.9683 63.1971 36.9683C64.7261 36.9683 65.6061 37.7053 65.5841 39.4763C65.5841 39.6193 65.5621 40.6423 65.5621 40.8953C65.5621 41.7753 65.6171 42.5013 65.7271 43.0293H64.6271C64.5831 42.7983 64.5501 42.6223 64.5281 42.2483C64.1761 42.8423 63.5051 43.1723 62.5481 43.1723C61.3491 43.1723 60.4361 42.5123 60.4361 41.4343ZM64.4841 40.2133C62.6471 40.3893 61.6791 40.6423 61.6791 41.4123C61.6791 41.9513 62.1081 42.2923 62.8011 42.2923C63.7471 42.2923 64.4841 41.8193 64.4841 40.6423V40.2133ZM72.0131 39.1133H70.8691C70.7481 38.4423 70.1431 37.9803 69.3951 37.9803C68.5701 37.9803 67.8111 38.6293 67.8111 40.0703C67.8111 41.5333 68.5811 42.1933 69.3951 42.1933C70.1211 42.1933 70.7591 41.7643 70.9131 41.0603H72.0681C71.8371 42.3033 70.6821 43.1723 69.3731 43.1723C67.6681 43.1723 66.5901 41.8633 66.5901 40.0813C66.5901 38.3213 67.7011 37.0013 69.4501 37.0013C70.8031 37.0013 71.8371 37.9583 72.0131 39.1133ZM73.3726 35.5933H74.5166V37.1113H75.6826V37.9803H74.5166V41.3573C74.5166 41.9623 74.6156 42.1163 75.1876 42.1163H75.6716V43.0293H74.8356C73.6366 43.0293 73.3726 42.7323 73.3726 41.5113V37.9803H72.4706V37.1113H73.3726V35.5933ZM78.0453 35.0543V36.3193H76.9013V35.0543H78.0453ZM78.0453 37.1113V43.0293H76.9013V37.1113H78.0453ZM84.9439 40.0923C84.9439 42.2263 83.4699 43.1723 82.0619 43.1723C80.6649 43.1723 79.1909 42.2263 79.1909 40.0923C79.1909 37.9473 80.6649 37.0013 82.0619 37.0013C83.4699 37.0013 84.9439 37.9473 84.9439 40.0923ZM82.0619 42.2043C82.9309 42.2043 83.7339 41.5333 83.7339 40.0923C83.7339 38.6183 82.9309 37.9693 82.0619 37.9693C81.2039 37.9693 80.4009 38.5963 80.4009 40.0923C80.4009 41.5553 81.2039 42.2043 82.0619 42.2043ZM87.2299 37.9693C87.5709 37.3863 88.1649 37.0013 89.0889 37.0013C90.5189 37.0013 91.0689 37.9253 91.0689 39.3003V43.0293H89.9249V39.6083C89.9249 38.7503 89.7819 37.9583 88.7039 37.9583C87.7139 37.9583 87.2299 38.6733 87.2299 39.8503V43.0293H86.0859V37.1113H87.2299V37.9693ZM95.865 38.7613C95.7 38.1563 95.194 37.9143 94.523 37.9143C93.962 37.9143 93.357 38.1453 93.357 38.6293C93.357 39.0693 93.643 39.2563 94.182 39.3663L95.029 39.5313C96.151 39.7513 97.13 40.1363 97.13 41.2913C97.13 42.4903 96.008 43.1723 94.644 43.1723C93.148 43.1723 92.235 42.3033 92.092 41.1923H93.258C93.412 41.8633 93.852 42.2593 94.677 42.2593C95.414 42.2593 95.986 41.9513 95.986 41.4233C95.986 40.8733 95.469 40.6533 94.853 40.5323L93.962 40.3563C93.071 40.1803 92.235 39.7843 92.235 38.6733C92.235 37.6283 93.335 36.9903 94.633 36.9903C95.821 36.9903 96.778 37.6173 96.998 38.7613H95.865ZM102 37.1113V37.9803C102.363 37.3753 102.979 37.0013 103.848 37.0013C105.223 37.0013 106.4 38.1563 106.4 40.0813C106.4 42.0173 105.223 43.1723 103.848 43.1723C102.979 43.1723 102.363 42.7983 102 42.1933V44.9543H100.856V37.1113H102ZM103.584 42.2153C104.53 42.2153 105.179 41.4123 105.179 40.0813C105.179 38.7503 104.53 37.9583 103.584 37.9583C102.704 37.9583 101.956 38.6183 101.956 40.0813C101.956 41.5443 102.704 42.2153 103.584 42.2153ZM111.672 41.2913H112.827C112.552 42.2703 111.672 43.1723 110.165 43.1723C108.251 43.1723 107.217 41.7753 107.217 40.0593C107.217 38.2223 108.449 37.0013 110.132 37.0013C111.958 37.0013 113.025 38.4973 112.904 40.4223H108.394C108.504 41.5113 109.197 42.1933 110.121 42.1933C110.946 42.1933 111.43 41.8523 111.672 41.2913ZM108.416 39.5203H111.716C111.683 38.6403 111.067 37.9363 110.121 37.9363C109.23 37.9363 108.57 38.3983 108.416 39.5203ZM117.106 38.2883C116.897 38.2663 116.699 38.2553 116.512 38.2553C115.632 38.2553 115.17 38.6843 115.17 39.9273V43.0293H114.026V37.1113H115.148V38.1563C115.456 37.4853 116.05 37.1003 116.787 37.0893C116.886 37.0893 117.007 37.0893 117.106 37.1003V38.2883ZM123.956 38.7613C123.791 38.1563 123.285 37.9143 122.614 37.9143C122.053 37.9143 121.448 38.1453 121.448 38.6293C121.448 39.0693 121.734 39.2563 122.273 39.3663L123.12 39.5313C124.242 39.7513 125.221 40.1363 125.221 41.2913C125.221 42.4903 124.099 43.1723 122.735 43.1723C121.239 43.1723 120.326 42.3033 120.183 41.1923H121.349C121.503 41.8633 121.943 42.2593 122.768 42.2593C123.505 42.2593 124.077 41.9513 124.077 41.4233C124.077 40.8733 123.56 40.6533 122.944 40.5323L122.053 40.3563C121.162 40.1803 120.326 39.7843 120.326 38.6733C120.326 37.6283 121.426 36.9903 122.724 36.9903C123.912 36.9903 124.869 37.6173 125.089 38.7613H123.956ZM130.417 41.2913H131.572C131.297 42.2703 130.417 43.1723 128.91 43.1723C126.996 43.1723 125.962 41.7753 125.962 40.0593C125.962 38.2223 127.194 37.0013 128.877 37.0013C130.703 37.0013 131.77 38.4973 131.649 40.4223H127.139C127.249 41.5113 127.942 42.1933 128.866 42.1933C129.691 42.1933 130.175 41.8523 130.417 41.2913ZM127.161 39.5203H130.461C130.428 38.6403 129.812 37.9363 128.866 37.9363C127.975 37.9363 127.315 38.3983 127.161 39.5203ZM137.841 39.1133H136.697C136.576 38.4423 135.971 37.9803 135.223 37.9803C134.398 37.9803 133.639 38.6293 133.639 40.0703C133.639 41.5333 134.409 42.1933 135.223 42.1933C135.949 42.1933 136.587 41.7643 136.741 41.0603H137.896C137.665 42.3033 136.51 43.1723 135.201 43.1723C133.496 43.1723 132.418 41.8633 132.418 40.0813C132.418 38.3213 133.529 37.0013 135.278 37.0013C136.631 37.0013 137.665 37.9583 137.841 39.1133ZM144.38 40.0923C144.38 42.2263 142.906 43.1723 141.498 43.1723C140.101 43.1723 138.627 42.2263 138.627 40.0923C138.627 37.9473 140.101 37.0013 141.498 37.0013C142.906 37.0013 144.38 37.9473 144.38 40.0923ZM141.498 42.2043C142.367 42.2043 143.17 41.5333 143.17 40.0923C143.17 38.6183 142.367 37.9693 141.498 37.9693C140.64 37.9693 139.837 38.5963 139.837 40.0923C139.837 41.5553 140.64 42.2043 141.498 42.2043ZM146.666 37.9693C147.007 37.3863 147.601 37.0013 148.525 37.0013C149.955 37.0013 150.505 37.9253 150.505 39.3003V43.0293H149.361V39.6083C149.361 38.7503 149.218 37.9583 148.14 37.9583C147.15 37.9583 146.666 38.6733 146.666 39.8503V43.0293H145.522V37.1113H146.666V37.9693ZM155.929 35.0543H157.073V43.0293H155.929V42.1933C155.566 42.7983 154.95 43.1723 154.081 43.1723C152.706 43.1723 151.529 42.0173 151.529 40.0813C151.529 38.1563 152.706 37.0013 154.081 37.0013C154.95 37.0013 155.566 37.3753 155.929 37.9803V35.0543ZM154.345 37.9583C153.399 37.9583 152.75 38.7503 152.75 40.0813C152.75 41.4123 153.399 42.2153 154.345 42.2153C155.225 42.2153 155.973 41.5443 155.973 40.0813C155.973 38.6183 155.225 37.9583 154.345 37.9583Z" fill="#B2B2B2"/>
<path d="M178.839 493.119H191.23" stroke="#FF00FF" stroke-width="2"/>
<path d="M200.654 489.644H202.04L205.043 497.619H203.679L203.052 495.87H199.587L198.971 497.619H197.695L200.654 489.644ZM199.961 494.814H202.667L201.303 491.008L199.961 494.814ZM208.893 492.878C208.684 492.856 208.486 492.845 208.299 492.845C207.419 492.845 206.957 493.274 206.957 494.517V497.619H205.813V491.701H206.935V492.746C207.243 492.075 207.837 491.69 208.574 491.679C208.673 491.679 208.794 491.679 208.893 491.69V492.878ZM212.878 492.878C212.669 492.856 212.471 492.845 212.284 492.845C211.404 492.845 210.942 493.274 210.942 494.517V497.619H209.798V491.701H210.92V492.746C211.228 492.075 211.822 491.69 212.559 491.679C212.658 491.679 212.779 491.679 212.878 491.69V492.878ZM219.033 494.682C219.033 496.816 217.559 497.762 216.151 497.762C214.754 497.762 213.28 496.816 213.28 494.682C213.28 492.537 214.754 491.591 216.151 491.591C217.559 491.591 219.033 492.537 219.033 494.682ZM216.151 496.794C217.02 496.794 217.823 496.123 217.823 494.682C217.823 493.208 217.02 492.559 216.151 492.559C215.293 492.559 214.49 493.186 214.49 494.682C214.49 496.145 215.293 496.794 216.151 496.794ZM222.75 491.701H223.938L225.038 495.991L226.05 491.701H227.293L225.643 497.619H224.576L223.333 493.043L222.123 497.619H221.045L219.406 491.701H220.649L221.65 495.991L222.75 491.701ZM230.802 489.644H236.17V490.711H232.056V492.988H235.928V494.044H232.056V497.619H230.802V489.644ZM238.109 497.619H236.965V489.644H238.109V497.619ZM240.795 489.644V490.909H239.651V489.644H240.795ZM240.795 491.701V497.619H239.651V491.701H240.795ZM246.274 491.701H247.418V496.926C247.418 498.015 247.187 498.598 246.78 499.005C246.329 499.478 245.614 499.72 244.712 499.72C243.392 499.72 242.424 499.148 242.237 497.905H243.414C243.535 498.444 243.876 498.763 244.734 498.763C245.295 498.763 245.68 498.609 245.922 498.334C246.153 498.081 246.274 497.773 246.274 497.168V496.541C245.911 497.146 245.317 497.52 244.448 497.52C243.073 497.52 241.929 496.431 241.929 494.55C241.929 492.68 243.073 491.591 244.448 491.591C245.317 491.591 245.911 491.965 246.274 492.57V491.701ZM244.712 492.537C243.766 492.537 243.15 493.285 243.15 494.55C243.15 495.837 243.766 496.585 244.712 496.585C245.592 496.585 246.318 495.969 246.318 494.55C246.318 493.142 245.592 492.537 244.712 492.537ZM250.087 492.559C250.428 491.976 251.022 491.591 251.946 491.591C253.376 491.591 253.926 492.515 253.926 493.89V497.619H252.782V494.198C252.782 493.34 252.639 492.548 251.561 492.548C250.571 492.548 250.087 493.263 250.087 494.44V497.619H248.943V489.644H250.087V492.559ZM255.587 490.183H256.731V491.701H257.897V492.57H256.731V495.947C256.731 496.552 256.83 496.706 257.402 496.706H257.886V497.619H257.05C255.851 497.619 255.587 497.322 255.587 496.101V492.57H254.685V491.701H255.587V490.183Z" fill="#B2B2B2"/>
<path d="M281.841 493.119H294.232" stroke="#5FAFFF" stroke-width="2"/>
<path d="M304.14 489.644C305.988 489.644 307.484 490.007 307.484 492.097C307.484 494.099 306.065 494.528 304.14 494.528H302.831V497.619H301.577V489.644H304.14ZM302.831 490.678V493.472H304.217C305.328 493.472 306.186 493.34 306.186 492.108C306.186 490.81 305.262 490.678 304.184 490.678H302.831ZM313.688 494.682C313.688 496.816 312.214 497.762 310.806 497.762C309.409 497.762 307.935 496.816 307.935 494.682C307.935 492.537 309.409 491.591 310.806 491.591C312.214 491.591 313.688 492.537 313.688 494.682ZM310.806 496.794C311.675 496.794 312.478 496.123 312.478 494.682C312.478 493.208 311.675 492.559 310.806 492.559C309.948 492.559 309.145 493.186 309.145 494.682C309.145 496.145 309.948 496.794 310.806 496.794ZM318.196 493.351C318.031 492.746 317.525 492.504 316.854 492.504C316.293 492.504 315.688 492.735 315.688 493.219C315.688 493.659 315.974 493.846 316.513 493.956L317.36 494.121C318.482 494.341 319.461 494.726 319.461 495.881C319.461 497.08 318.339 497.762 316.975 497.762C315.479 497.762 314.566 496.893 314.423 495.782H315.589C315.743 496.453 316.183 496.849 317.008 496.849C317.745 496.849 318.317 496.541 318.317 496.013C318.317 495.463 317.8 495.243 317.184 495.122L316.293 494.946C315.402 494.77 314.566 494.374 314.566 493.263C314.566 492.218 315.666 491.58 316.964 491.58C318.152 491.58 319.109 492.207 319.329 493.351H318.196ZM320.84 490.183H321.984V491.701H323.15V492.57H321.984V495.947C321.984 496.552 322.083 496.706 322.655 496.706H323.139V497.619H322.303C321.104 497.619 320.84 497.322 320.84 496.101V492.57H319.938V491.701H320.84V490.183ZM328.146 491.701H329.29V496.926C329.29 498.015 329.059 498.598 328.652 499.005C328.201 499.478 327.486 499.72 326.584 499.72C325.264 499.72 324.296 499.148 324.109 497.905H325.286C325.407 498.444 325.748 498.763 326.606 498.763C327.167 498.763 327.552 498.609 327.794 498.334C328.025 498.081 328.146 497.773 328.146 497.168V496.541C327.783 497.146 327.189 497.52 326.32 497.52C324.945 497.52 323.801 496.431 323.801 494.55C323.801 492.68 324.945 491.591 326.32 491.591C327.189 491.591 327.783 491.965 328.146 492.57V491.701ZM326.584 492.537C325.638 492.537 325.022 493.285 325.022 494.55C325.022 495.837 325.638 496.585 326.584 496.585C327.464 496.585 328.19 495.969 328.19 494.55C328.19 493.142 327.464 492.537 326.584 492.537ZM333.894 492.878C333.685 492.856 333.487 492.845 333.3 492.845C332.42 492.845 331.958 493.274 331.958 494.517V497.619H330.814V491.701H331.936V492.746C332.244 492.075 332.838 491.69 333.575 491.679C333.674 491.679 333.795 491.679 333.894 491.69V492.878ZM338.74 495.881H339.895C339.62 496.86 338.74 497.762 337.233 497.762C335.319 497.762 334.285 496.365 334.285 494.649C334.285 492.812 335.517 491.591 337.2 491.591C339.026 491.591 340.093 493.087 339.972 495.012H335.462C335.572 496.101 336.265 496.783 337.189 496.783C338.014 496.783 338.498 496.442 338.74 495.881ZM335.484 494.11H338.784C338.751 493.23 338.135 492.526 337.189 492.526C336.298 492.526 335.638 492.988 335.484 494.11ZM343.13 493.923C341.997 493.692 340.919 493.054 340.919 491.712C340.919 490.205 342.492 489.501 343.834 489.501C345.297 489.501 346.562 490.172 346.87 491.778H345.66C345.407 490.832 344.538 490.546 343.779 490.546C343.196 490.546 342.195 490.821 342.195 491.657C342.195 492.317 342.723 492.658 343.405 492.801L344.351 492.999C345.627 493.263 347.024 493.747 347.024 495.353C347.024 496.937 345.506 497.762 343.955 497.762C342.107 497.762 340.864 496.739 340.677 495.067H341.909C342.14 496.156 342.877 496.717 343.999 496.717C345.033 496.717 345.759 496.222 345.759 495.452C345.759 494.627 344.967 494.297 344.109 494.121L343.13 493.923ZM354.443 496.651L355.378 497.674L354.619 498.378L353.629 497.3C353.09 497.597 352.452 497.762 351.737 497.762C349.416 497.762 347.964 496.057 347.964 493.626C347.964 491.195 349.416 489.501 351.737 489.501C354.047 489.501 355.499 491.195 355.499 493.626C355.499 494.869 355.114 495.925 354.443 496.651ZM351.737 496.717C352.133 496.717 352.518 496.629 352.848 496.442L352.155 495.683L352.914 494.979L353.618 495.76C353.992 495.243 354.212 494.528 354.212 493.626C354.212 491.624 353.123 490.546 351.737 490.546C350.34 490.546 349.251 491.624 349.251 493.626C349.251 495.628 350.34 496.717 351.737 496.717ZM358.164 496.552H362.278V497.619H356.91V489.644H358.164V496.552Z" fill="#B2B2B2"/>
<path d="M384.843 493.119H397.234" stroke="#FFF21A" stroke-width="2"/>
<path d="M406.756 489.644C409.286 489.644 411.156 490.557 411.156 493.626C411.156 496.706 409.286 497.619 406.756 497.619H404.578V489.644H406.756ZM406.701 490.678H405.832V496.585H406.701C408.296 496.585 409.858 496.255 409.858 493.626C409.858 491.008 408.296 490.678 406.701 490.678ZM415.984 496.783C415.643 497.377 415.071 497.762 414.18 497.762C412.783 497.762 412.244 496.893 412.244 495.463V491.701H413.388V495.155C413.388 496.013 413.531 496.794 414.565 496.794C415.522 496.794 415.995 496.079 415.995 494.913V491.701H417.139V497.619H415.984V496.783ZM423.686 493.703H422.542C422.421 493.032 421.816 492.57 421.068 492.57C420.243 492.57 419.484 493.219 419.484 494.66C419.484 496.123 420.254 496.783 421.068 496.783C421.794 496.783 422.432 496.354 422.586 495.65H423.741C423.51 496.893 422.355 497.762 421.046 497.762C419.341 497.762 418.263 496.453 418.263 494.671C418.263 492.911 419.374 491.591 421.123 491.591C422.476 491.591 423.51 492.548 423.686 493.703ZM425.958 489.644V494.231L428.312 491.701H429.709L427.41 494.143L429.874 497.619H428.51L426.629 494.968L425.958 495.683V497.619H424.814V489.644H425.958ZM432.806 489.644C435.336 489.644 437.206 490.557 437.206 493.626C437.206 496.706 435.336 497.619 432.806 497.619H430.628V489.644H432.806ZM432.751 490.678H431.882V496.585H432.751C434.346 496.585 435.908 496.255 435.908 493.626C435.908 491.008 434.346 490.678 432.751 490.678ZM438.599 489.644H441.536C442.999 489.644 444.363 490.029 444.363 491.646C444.363 492.394 444 493.076 443.483 493.373C444.198 493.692 444.682 494.242 444.682 495.265C444.682 496.959 443.384 497.619 441.767 497.619H438.599V489.644ZM439.853 493.021H441.69C442.548 493.021 443.098 492.658 443.098 491.8C443.098 491.041 442.526 490.678 441.69 490.678H439.853V493.021ZM439.853 496.585H441.8C442.867 496.585 443.395 496.112 443.395 495.265C443.395 494.385 442.867 493.989 441.734 493.989H439.853V496.585ZM445.583 495.155V494.099H449.125V495.155H445.583ZM456.639 496.651L457.574 497.674L456.815 498.378L455.825 497.3C455.286 497.597 454.648 497.762 453.933 497.762C451.612 497.762 450.16 496.057 450.16 493.626C450.16 491.195 451.612 489.501 453.933 489.501C456.243 489.501 457.695 491.195 457.695 493.626C457.695 494.869 457.31 495.925 456.639 496.651ZM453.933 496.717C454.329 496.717 454.714 496.629 455.044 496.442L454.351 495.683L455.11 494.979L455.814 495.76C456.188 495.243 456.408 494.528 456.408 493.626C456.408 491.624 455.319 490.546 453.933 490.546C452.536 490.546 451.447 491.624 451.447 493.626C451.447 495.628 452.536 496.717 453.933 496.717ZM462.54 496.783C462.199 497.377 461.627 497.762 460.736 497.762C459.339 497.762 458.8 496.893 458.8 495.463V491.701H459.944V495.155C459.944 496.013 460.087 496.794 461.121 496.794C462.078 496.794 462.551 496.079 462.551 494.913V491.701H463.695V497.619H462.54V496.783ZM464.874 496.024C464.874 494.583 466.568 494.198 468.867 493.956V493.835C468.867 492.79 468.317 492.438 467.591 492.438C466.799 492.438 466.348 492.845 466.304 493.571H465.149C465.248 492.317 466.282 491.558 467.635 491.558C469.164 491.558 470.044 492.295 470.022 494.066C470.022 494.209 470 495.232 470 495.485C470 496.365 470.055 497.091 470.165 497.619H469.065C469.021 497.388 468.988 497.212 468.966 496.838C468.614 497.432 467.943 497.762 466.986 497.762C465.787 497.762 464.874 497.102 464.874 496.024ZM468.922 494.803C467.085 494.979 466.117 495.232 466.117 496.002C466.117 496.541 466.546 496.882 467.239 496.882C468.185 496.882 468.922 496.409 468.922 495.232V494.803ZM476.451 493.703H475.307C475.186 493.032 474.581 492.57 473.833 492.57C473.008 492.57 472.249 493.219 472.249 494.66C472.249 496.123 473.019 496.783 473.833 496.783C474.559 496.783 475.197 496.354 475.351 495.65H476.506C476.275 496.893 475.12 497.762 473.811 497.762C472.106 497.762 471.028 496.453 471.028 494.671C471.028 492.911 472.139 491.591 473.888 491.591C475.241 491.591 476.275 492.548 476.451 493.703ZM478.724 489.644V494.231L481.078 491.701H482.475L480.176 494.143L482.64 497.619H481.276L479.395 494.968L478.724 495.683V497.619H477.58V489.644H478.724Z" fill="#B2B2B2"/>
<path d="M146.228 53.3682L146.229 441.962" stroke="#666666"/>
<path d="M617.618 396.318L70.9657 396.318" stroke="#666666"/>
<path d="M617.618 314.106L70.9657 314.106" stroke="#666666"/>
<path d="M617.618 231.894L70.9657 231.895" stroke="#666666"/>
<path d="M617.618 149.683L70.9657 149.683" stroke="#666666"/>
<path d="M617.618 67.4706L70.9657 67.4708" stroke="#666666"/>
<path d="M294.187 53.3682L294.187 441.962" stroke="#666666"/>
<path d="M590.137 53.3682L590.137 441.962" stroke="#666666"/>
<path d="M72.2476 440.181L146.229 413.054L294.191 378.11L590.108 367.1" stroke="#FF00FF" stroke-width="2" stroke-linecap="round"/>
<path d="M72.2476 409.763L146.229 388.799L294.191 299.517L590.108 123.588" stroke="#5FAFFF" stroke-width="2" stroke-linecap="round"/>
<path d="M72.2476 393.404L146.229 317.932L294.191 190.671L590.108 32" stroke="#FFF21A" stroke-width="2" stroke-linecap="round"/>
<path d="M70.9658 53.3679L70.9658 441.962L618.623 441.962" stroke="#B2B2B2"/>
</svg>
