<svg width="687" height="436" viewBox="0 0 687 436" fill="none" xmlns="http://www.w3.org/2000/svg">
<rect x="0.5" y="0.5" width="685.993" height="434.29" rx="9.5" fill="#F2F2F2"/>
<rect x="0.5" y="0.5" width="685.993" height="434.29" rx="9.5" stroke="#E6E6E6"/>
<path d="M58.3581 348.933C56.2241 348.933 55.1461 347.206 55.1461 344.786C55.1461 342.366 56.2241 340.672 58.3581 340.672C60.4701 340.672 61.5591 342.366 61.5591 344.786C61.5591 347.206 60.4701 348.933 58.3581 348.933ZM58.3581 347.789C59.4471 347.789 60.0081 346.711 60.0081 344.786C60.0081 342.861 59.4471 341.816 58.3581 341.816C57.2691 341.816 56.6971 342.861 56.6971 344.786C56.6971 346.711 57.2691 347.789 58.3581 347.789Z" fill="#666666"/>
<path d="M51.0799 265.576C51.9159 265.576 52.5209 264.971 52.5209 263.959C52.5209 262.859 51.7839 262.331 51.0469 262.331C50.3429 262.331 49.8479 262.672 49.6829 263.057L48.2969 262.991L48.8249 258.602H53.7419V259.878H50.0679L49.8479 261.583C50.1889 261.33 50.6839 261.143 51.4319 261.143C52.7959 261.143 54.0609 262.111 54.0609 263.948C54.0609 265.708 52.6969 266.72 51.0579 266.72C49.1879 266.72 48.1979 265.444 48.1099 264.069H49.5399C49.6279 264.894 50.1009 265.576 51.0799 265.576ZM58.2084 266.72C56.0744 266.72 54.9964 264.993 54.9964 262.573C54.9964 260.153 56.0744 258.459 58.2084 258.459C60.3204 258.459 61.4094 260.153 61.4094 262.573C61.4094 264.993 60.3204 266.72 58.2084 266.72ZM58.2084 265.576C59.2974 265.576 59.8584 264.498 59.8584 262.573C59.8584 260.648 59.2974 259.603 58.2084 259.603C57.1194 259.603 56.5474 260.648 56.5474 262.573C56.5474 264.498 57.1194 265.576 58.2084 265.576Z" fill="#666666"/>
<path d="M46.1616 184.364H44.6436V178.402H42.9276V177.368C44.0716 177.335 44.6326 177.258 45.0066 176.389H46.1616V184.364ZM50.6951 184.507C48.5611 184.507 47.4831 182.78 47.4831 180.36C47.4831 177.94 48.5611 176.246 50.6951 176.246C52.8071 176.246 53.8961 177.94 53.8961 180.36C53.8961 182.78 52.8071 184.507 50.6951 184.507ZM50.6951 183.363C51.7841 183.363 52.3451 182.285 52.3451 180.36C52.3451 178.435 51.7841 177.39 50.6951 177.39C49.6061 177.39 49.0341 178.435 49.0341 180.36C49.0341 182.285 49.6061 183.363 50.6951 183.363ZM58.0441 184.507C55.9101 184.507 54.8321 182.78 54.8321 180.36C54.8321 177.94 55.9101 176.246 58.0441 176.246C60.1561 176.246 61.2451 177.94 61.2451 180.36C61.2451 182.78 60.1561 184.507 58.0441 184.507ZM58.0441 183.363C59.1331 183.363 59.6941 182.285 59.6941 180.36C59.6941 178.435 59.1331 177.39 58.0441 177.39C56.9551 177.39 56.3831 178.435 56.3831 180.36C56.3831 182.285 56.9551 183.363 58.0441 183.363Z" fill="#666666"/>
<path d="M46.602 102.151H45.084V96.1894H43.368V95.1554C44.512 95.1224 45.073 95.0454 45.447 94.1764H46.602V102.151ZM50.9156 101.15C51.7516 101.15 52.3566 100.545 52.3566 99.5334C52.3566 98.4334 51.6196 97.9054 50.8826 97.9054C50.1786 97.9054 49.6836 98.2464 49.5186 98.6314L48.1326 98.5654L48.6606 94.1764H53.5776V95.4524H49.9036L49.6836 97.1574C50.0246 96.9044 50.5196 96.7174 51.2676 96.7174C52.6316 96.7174 53.8966 97.6854 53.8966 99.5224C53.8966 101.282 52.5326 102.294 50.8936 102.294C49.0236 102.294 48.0336 101.018 47.9456 99.6434H49.3756C49.4636 100.468 49.9366 101.15 50.9156 101.15ZM58.0441 102.294C55.9101 102.294 54.8321 100.567 54.8321 98.1474C54.8321 95.7274 55.9101 94.0334 58.0441 94.0334C60.1561 94.0334 61.2451 95.7274 61.2451 98.1474C61.2451 100.567 60.1561 102.294 58.0441 102.294ZM58.0441 101.15C59.1331 101.15 59.6941 100.072 59.6941 98.1474C59.6941 96.2224 59.1331 95.1774 58.0441 95.1774C56.9551 95.1774 56.3831 96.2224 56.3831 98.1474C56.3831 100.072 56.9551 101.15 58.0441 101.15Z" fill="#666666"/>
<path d="M152.268 362.22H150.75V356.258H149.034V355.224C150.178 355.191 150.739 355.114 151.113 354.245H152.268V362.22ZM156.802 362.363C154.668 362.363 153.59 360.636 153.59 358.216C153.59 355.796 154.668 354.102 156.802 354.102C158.914 354.102 160.003 355.796 160.003 358.216C160.003 360.636 158.914 362.363 156.802 362.363ZM156.802 361.219C157.891 361.219 158.452 360.141 158.452 358.216C158.452 356.291 157.891 355.246 156.802 355.246C155.713 355.246 155.141 356.291 155.141 358.216C155.141 360.141 155.713 361.219 156.802 361.219ZM166.208 362.22H164.646L162.677 356.225V362.22H161.214V354.245H163.502L165.438 360.46L167.319 354.245H169.629V362.22H168.166V356.225L166.208 362.22Z" fill="#666666"/>
<path d="M80.5854 362.22H79.0674V356.258H77.3514V355.224C78.4954 355.191 79.0564 355.114 79.4304 354.245H80.5854V362.22ZM87.176 362.22H85.614L83.645 356.225V362.22H82.182V354.245H84.47L86.406 360.46L88.287 354.245H90.597V362.22H89.134V356.225L87.176 362.22Z" fill="#666666"/>
<path d="M240.19 354.102C241.785 354.102 242.808 354.85 242.808 356.247C242.808 357.732 241.356 359.305 238.903 360.944H242.995V362.22H237.132V360.988C239.695 358.931 241.279 357.589 241.279 356.324C241.279 355.62 240.85 355.224 240.102 355.224C239.431 355.224 238.749 355.631 238.749 356.819H237.275C237.242 355.18 238.43 354.102 240.19 354.102ZM246.956 362.363C244.822 362.363 243.744 360.636 243.744 358.216C243.744 355.796 244.822 354.102 246.956 354.102C249.068 354.102 250.157 355.796 250.157 358.216C250.157 360.636 249.068 362.363 246.956 362.363ZM246.956 361.219C248.045 361.219 248.606 360.141 248.606 358.216C248.606 356.291 248.045 355.246 246.956 355.246C245.867 355.246 245.295 356.291 245.295 358.216C245.295 360.141 245.867 361.219 246.956 361.219ZM256.362 362.22H254.8L252.831 356.225V362.22H251.368V354.245H253.656L255.592 360.46L257.473 354.245H259.783V362.22H258.32V356.225L256.362 362.22Z" fill="#666666"/>
<path d="M329.475 361.219C330.311 361.219 330.971 360.724 330.971 359.976C330.971 359.041 330.102 358.667 328.969 358.667H328.65V357.479H328.914C330.058 357.479 330.773 357.061 330.773 356.313C330.773 355.62 330.168 355.246 329.508 355.246C328.584 355.246 328.012 355.818 327.935 356.654H326.494C326.67 355.059 327.759 354.102 329.596 354.102C330.927 354.102 332.302 354.74 332.302 356.247C332.302 357.028 331.84 357.655 331.224 357.996C332.049 358.348 332.511 359.129 332.511 359.932C332.511 361.549 331.114 362.363 329.431 362.363C327.605 362.363 326.516 361.175 326.428 359.712H327.858C327.979 360.515 328.474 361.219 329.475 361.219ZM336.65 362.363C334.516 362.363 333.438 360.636 333.438 358.216C333.438 355.796 334.516 354.102 336.65 354.102C338.762 354.102 339.851 355.796 339.851 358.216C339.851 360.636 338.762 362.363 336.65 362.363ZM336.65 361.219C337.739 361.219 338.3 360.141 338.3 358.216C338.3 356.291 337.739 355.246 336.65 355.246C335.561 355.246 334.989 356.291 334.989 358.216C334.989 360.141 335.561 361.219 336.65 361.219ZM346.056 362.22H344.494L342.525 356.225V362.22H341.062V354.245H343.35L345.286 360.46L347.167 354.245H349.477V362.22H348.014V356.225L346.056 362.22Z" fill="#666666"/>
<path d="M419.105 356.17L416.828 359.019H419.105V356.17ZM421.976 359.019V360.306H420.612V362.22H419.105V360.306H415.167V359.118L419.127 354.245H420.612V359.019H421.976ZM425.757 362.363C423.623 362.363 422.545 360.636 422.545 358.216C422.545 355.796 423.623 354.102 425.757 354.102C427.869 354.102 428.958 355.796 428.958 358.216C428.958 360.636 427.869 362.363 425.757 362.363ZM425.757 361.219C426.846 361.219 427.407 360.141 427.407 358.216C427.407 356.291 426.846 355.246 425.757 355.246C424.668 355.246 424.096 356.291 424.096 358.216C424.096 360.141 424.668 361.219 425.757 361.219ZM435.163 362.22H433.601L431.632 356.225V362.22H430.169V354.245H432.457L434.393 360.46L436.274 354.245H438.584V362.22H437.121V356.225L435.163 362.22Z" fill="#666666"/>
<path d="M507.57 361.219C508.406 361.219 509.011 360.614 509.011 359.602C509.011 358.502 508.274 357.974 507.537 357.974C506.833 357.974 506.338 358.315 506.173 358.7L504.787 358.634L505.315 354.245H510.232V355.521H506.558L506.338 357.226C506.679 356.973 507.174 356.786 507.922 356.786C509.286 356.786 510.551 357.754 510.551 359.591C510.551 361.351 509.187 362.363 507.548 362.363C505.678 362.363 504.688 361.087 504.6 359.712H506.03C506.118 360.537 506.591 361.219 507.57 361.219ZM514.698 362.363C512.564 362.363 511.486 360.636 511.486 358.216C511.486 355.796 512.564 354.102 514.698 354.102C516.81 354.102 517.899 355.796 517.899 358.216C517.899 360.636 516.81 362.363 514.698 362.363ZM514.698 361.219C515.787 361.219 516.348 360.141 516.348 358.216C516.348 356.291 515.787 355.246 514.698 355.246C513.609 355.246 513.037 356.291 513.037 358.216C513.037 360.141 513.609 361.219 514.698 361.219ZM524.104 362.22H522.542L520.573 356.225V362.22H519.11V354.245H521.398L523.334 360.46L525.215 354.245H527.525V362.22H526.062V356.225L524.104 362.22Z" fill="#666666"/>
<path d="M594.249 360.635C594.249 361.592 594.876 362.219 595.712 362.219C596.537 362.219 597.142 361.603 597.142 360.635C597.142 359.7 596.537 359.084 595.712 359.084C594.876 359.084 594.249 359.7 594.249 360.635ZM595.778 356.257C594.766 356.257 594.161 357.192 594.161 358.688C594.502 358.259 595.14 357.929 595.976 357.929C597.45 357.929 598.682 358.93 598.682 360.657C598.682 362.296 597.439 363.363 595.712 363.363C593.578 363.363 592.643 361.647 592.643 359.414C592.643 357.126 593.49 355.102 595.877 355.102C597.615 355.102 598.429 356.279 598.517 357.302H597.032C596.955 356.642 596.438 356.257 595.778 356.257ZM602.817 363.363C600.683 363.363 599.605 361.636 599.605 359.216C599.605 356.796 600.683 355.102 602.817 355.102C604.929 355.102 606.018 356.796 606.018 359.216C606.018 361.636 604.929 363.363 602.817 363.363ZM602.817 362.219C603.906 362.219 604.467 361.141 604.467 359.216C604.467 357.291 603.906 356.246 602.817 356.246C601.728 356.246 601.156 357.291 601.156 359.216C601.156 361.141 601.728 362.219 602.817 362.219ZM612.223 363.22H610.661L608.692 357.225V363.22H607.229V355.245H609.517L611.453 361.46L613.334 355.245H615.644V363.22H614.181V357.225L612.223 363.22Z" fill="#666666"/>
<path d="M631.019 359.854C630.854 359.865 630.678 359.865 630.502 359.865H629.127V363.22H627.873V355.245H630.403C632.548 355.245 633.835 355.696 633.835 357.544C633.835 358.688 633.285 359.337 632.295 359.645L634.132 363.22H632.724L631.019 359.854ZM629.127 356.279V358.842H630.568C631.745 358.842 632.548 358.666 632.548 357.566C632.548 356.422 631.679 356.279 630.546 356.279H629.127ZM640.49 360.283C640.49 362.417 639.016 363.363 637.608 363.363C636.211 363.363 634.737 362.417 634.737 360.283C634.737 358.138 636.211 357.192 637.608 357.192C639.016 357.192 640.49 358.138 640.49 360.283ZM637.608 362.395C638.477 362.395 639.28 361.724 639.28 360.283C639.28 358.809 638.477 358.16 637.608 358.16C636.75 358.16 635.947 358.787 635.947 360.283C635.947 361.746 636.75 362.395 637.608 362.395ZM644.207 357.302H645.395L646.495 361.592L647.507 357.302H648.75L647.1 363.22H646.033L644.79 358.644L643.58 363.22H642.502L640.863 357.302H642.106L643.107 361.592L644.207 357.302ZM652.936 358.952C652.771 358.347 652.265 358.105 651.594 358.105C651.033 358.105 650.428 358.336 650.428 358.82C650.428 359.26 650.714 359.447 651.253 359.557L652.1 359.722C653.222 359.942 654.201 360.327 654.201 361.482C654.201 362.681 653.079 363.363 651.715 363.363C650.219 363.363 649.306 362.494 649.163 361.383H650.329C650.483 362.054 650.923 362.45 651.748 362.45C652.485 362.45 653.057 362.142 653.057 361.614C653.057 361.064 652.54 360.844 651.924 360.723L651.033 360.547C650.142 360.371 649.306 359.975 649.306 358.864C649.306 357.819 650.406 357.181 651.704 357.181C652.892 357.181 653.849 357.808 654.069 358.952H652.936Z" fill="#666666"/>
<path d="M34.585 36.092H32.022V35.025H38.391V36.092H35.839V43H34.585V36.092ZM40.3271 35.025V36.29H39.1831V35.025H40.3271ZM40.3271 37.082V43H39.1831V37.082H40.3271ZM43.0126 43H41.8686V37.082H43.0126V37.94C43.3536 37.357 43.9146 36.972 44.7616 36.972C45.6746 36.972 46.2136 37.357 46.4776 38.017C46.9726 37.28 47.6656 36.972 48.4356 36.972C49.8216 36.972 50.3606 37.896 50.3606 39.271V43H49.2166V39.579C49.2166 38.721 49.0846 37.929 48.0506 37.929C47.1486 37.929 46.6866 38.644 46.6866 39.821V43H45.5426V39.579C45.5426 38.721 45.4106 37.929 44.3766 37.929C43.4636 37.929 43.0126 38.644 43.0126 39.821V43ZM55.8532 41.262H57.0082C56.7332 42.241 55.8532 43.143 54.3462 43.143C52.4322 43.143 51.3982 41.746 51.3982 40.03C51.3982 38.193 52.6302 36.972 54.3132 36.972C56.1392 36.972 57.2062 38.468 57.0852 40.393H52.5752C52.6852 41.482 53.3782 42.164 54.3022 42.164C55.1272 42.164 55.6112 41.823 55.8532 41.262ZM52.5972 39.491H55.8972C55.8642 38.611 55.2482 37.907 54.3022 37.907C53.4112 37.907 52.7512 38.369 52.5972 39.491ZM61.8416 35.025H62.8316C62.1056 36.202 61.5116 37.918 61.5116 39.975C61.5116 42.032 62.1056 43.737 62.8316 44.925H61.8416C61.1816 43.968 60.3236 42.186 60.3236 39.975C60.3236 37.764 61.1816 35.982 61.8416 35.025ZM66.9124 38.732C66.7474 38.127 66.2414 37.885 65.5704 37.885C65.0094 37.885 64.4044 38.116 64.4044 38.6C64.4044 39.04 64.6904 39.227 65.2294 39.337L66.0764 39.502C67.1984 39.722 68.1774 40.107 68.1774 41.262C68.1774 42.461 67.0554 43.143 65.6914 43.143C64.1954 43.143 63.2824 42.274 63.1394 41.163H64.3054C64.4594 41.834 64.8994 42.23 65.7244 42.23C66.4614 42.23 67.0334 41.922 67.0334 41.394C67.0334 40.844 66.5164 40.624 65.9004 40.503L65.0094 40.327C64.1184 40.151 63.2824 39.755 63.2824 38.644C63.2824 37.599 64.3824 36.961 65.6804 36.961C66.8684 36.961 67.8254 37.588 68.0454 38.732H66.9124ZM69.4907 44.925H68.5007C69.2267 43.737 69.8207 42.032 69.8207 39.975C69.8207 37.918 69.2267 36.202 68.5007 35.025H69.4907C70.1617 35.982 71.0087 37.764 71.0087 39.975C71.0087 42.186 70.1617 43.968 69.4907 44.925Z" fill="#666666"/>
<path d="M178.525 395.79H190.917" stroke="#D700AF" stroke-width="2"/>
<path d="M200.34 392.315H201.726L204.729 400.29H203.365L202.738 398.541H199.273L198.657 400.29H197.381L200.34 392.315ZM199.647 397.485H202.353L200.989 393.679L199.647 397.485ZM208.579 395.549C208.37 395.527 208.172 395.516 207.985 395.516C207.105 395.516 206.643 395.945 206.643 397.188V400.29H205.499V394.372H206.621V395.417C206.929 394.746 207.523 394.361 208.26 394.35C208.359 394.35 208.48 394.35 208.579 394.361V395.549ZM212.564 395.549C212.355 395.527 212.157 395.516 211.97 395.516C211.09 395.516 210.628 395.945 210.628 397.188V400.29H209.484V394.372H210.606V395.417C210.914 394.746 211.508 394.361 212.245 394.35C212.344 394.35 212.465 394.35 212.564 394.361V395.549ZM218.719 397.353C218.719 399.487 217.245 400.433 215.837 400.433C214.44 400.433 212.966 399.487 212.966 397.353C212.966 395.208 214.44 394.262 215.837 394.262C217.245 394.262 218.719 395.208 218.719 397.353ZM215.837 399.465C216.706 399.465 217.509 398.794 217.509 397.353C217.509 395.879 216.706 395.23 215.837 395.23C214.979 395.23 214.176 395.857 214.176 397.353C214.176 398.816 214.979 399.465 215.837 399.465ZM222.436 394.372H223.624L224.724 398.662L225.736 394.372H226.979L225.329 400.29H224.262L223.019 395.714L221.809 400.29H220.731L219.092 394.372H220.335L221.336 398.662L222.436 394.372ZM230.488 392.315H235.856V393.382H231.742V395.659H235.614V396.715H231.742V400.29H230.488V392.315ZM237.795 400.29H236.651V392.315H237.795V400.29ZM240.481 392.315V393.58H239.337V392.315H240.481ZM240.481 394.372V400.29H239.337V394.372H240.481ZM245.96 394.372H247.104V399.597C247.104 400.686 246.873 401.269 246.466 401.676C246.015 402.149 245.3 402.391 244.398 402.391C243.078 402.391 242.11 401.819 241.923 400.576H243.1C243.221 401.115 243.562 401.434 244.42 401.434C244.981 401.434 245.366 401.28 245.608 401.005C245.839 400.752 245.96 400.444 245.96 399.839V399.212C245.597 399.817 245.003 400.191 244.134 400.191C242.759 400.191 241.615 399.102 241.615 397.221C241.615 395.351 242.759 394.262 244.134 394.262C245.003 394.262 245.597 394.636 245.96 395.241V394.372ZM244.398 395.208C243.452 395.208 242.836 395.956 242.836 397.221C242.836 398.508 243.452 399.256 244.398 399.256C245.278 399.256 246.004 398.64 246.004 397.221C246.004 395.813 245.278 395.208 244.398 395.208ZM249.773 395.23C250.114 394.647 250.708 394.262 251.632 394.262C253.062 394.262 253.612 395.186 253.612 396.561V400.29H252.468V396.869C252.468 396.011 252.325 395.219 251.247 395.219C250.257 395.219 249.773 395.934 249.773 397.111V400.29H248.629V392.315H249.773V395.23ZM255.273 392.854H256.417V394.372H257.583V395.241H256.417V398.618C256.417 399.223 256.516 399.377 257.088 399.377H257.572V400.29H256.736C255.537 400.29 255.273 399.993 255.273 398.772V395.241H254.371V394.372H255.273V392.854Z" fill="#666666"/>
<path d="M281.527 395.79H293.918" stroke="#005FFF" stroke-width="2"/>
<path d="M303.826 392.315C305.674 392.315 307.17 392.678 307.17 394.768C307.17 396.77 305.751 397.199 303.826 397.199H302.517V400.29H301.263V392.315H303.826ZM302.517 393.349V396.143H303.903C305.014 396.143 305.872 396.011 305.872 394.779C305.872 393.481 304.948 393.349 303.87 393.349H302.517ZM313.374 397.353C313.374 399.487 311.9 400.433 310.492 400.433C309.095 400.433 307.621 399.487 307.621 397.353C307.621 395.208 309.095 394.262 310.492 394.262C311.9 394.262 313.374 395.208 313.374 397.353ZM310.492 399.465C311.361 399.465 312.164 398.794 312.164 397.353C312.164 395.879 311.361 395.23 310.492 395.23C309.634 395.23 308.831 395.857 308.831 397.353C308.831 398.816 309.634 399.465 310.492 399.465ZM317.882 396.022C317.717 395.417 317.211 395.175 316.54 395.175C315.979 395.175 315.374 395.406 315.374 395.89C315.374 396.33 315.66 396.517 316.199 396.627L317.046 396.792C318.168 397.012 319.147 397.397 319.147 398.552C319.147 399.751 318.025 400.433 316.661 400.433C315.165 400.433 314.252 399.564 314.109 398.453H315.275C315.429 399.124 315.869 399.52 316.694 399.52C317.431 399.52 318.003 399.212 318.003 398.684C318.003 398.134 317.486 397.914 316.87 397.793L315.979 397.617C315.088 397.441 314.252 397.045 314.252 395.934C314.252 394.889 315.352 394.251 316.65 394.251C317.838 394.251 318.795 394.878 319.015 396.022H317.882ZM320.526 392.854H321.67V394.372H322.836V395.241H321.67V398.618C321.67 399.223 321.769 399.377 322.341 399.377H322.825V400.29H321.989C320.79 400.29 320.526 399.993 320.526 398.772V395.241H319.624V394.372H320.526V392.854ZM327.832 394.372H328.976V399.597C328.976 400.686 328.745 401.269 328.338 401.676C327.887 402.149 327.172 402.391 326.27 402.391C324.95 402.391 323.982 401.819 323.795 400.576H324.972C325.093 401.115 325.434 401.434 326.292 401.434C326.853 401.434 327.238 401.28 327.48 401.005C327.711 400.752 327.832 400.444 327.832 399.839V399.212C327.469 399.817 326.875 400.191 326.006 400.191C324.631 400.191 323.487 399.102 323.487 397.221C323.487 395.351 324.631 394.262 326.006 394.262C326.875 394.262 327.469 394.636 327.832 395.241V394.372ZM326.27 395.208C325.324 395.208 324.708 395.956 324.708 397.221C324.708 398.508 325.324 399.256 326.27 399.256C327.15 399.256 327.876 398.64 327.876 397.221C327.876 395.813 327.15 395.208 326.27 395.208ZM333.58 395.549C333.371 395.527 333.173 395.516 332.986 395.516C332.106 395.516 331.644 395.945 331.644 397.188V400.29H330.5V394.372H331.622V395.417C331.93 394.746 332.524 394.361 333.261 394.35C333.36 394.35 333.481 394.35 333.58 394.361V395.549ZM338.426 398.552H339.581C339.306 399.531 338.426 400.433 336.919 400.433C335.005 400.433 333.971 399.036 333.971 397.32C333.971 395.483 335.203 394.262 336.886 394.262C338.712 394.262 339.779 395.758 339.658 397.683H335.148C335.258 398.772 335.951 399.454 336.875 399.454C337.7 399.454 338.184 399.113 338.426 398.552ZM335.17 396.781H338.47C338.437 395.901 337.821 395.197 336.875 395.197C335.984 395.197 335.324 395.659 335.17 396.781ZM342.816 396.594C341.683 396.363 340.605 395.725 340.605 394.383C340.605 392.876 342.178 392.172 343.52 392.172C344.983 392.172 346.248 392.843 346.556 394.449H345.346C345.093 393.503 344.224 393.217 343.465 393.217C342.882 393.217 341.881 393.492 341.881 394.328C341.881 394.988 342.409 395.329 343.091 395.472L344.037 395.67C345.313 395.934 346.71 396.418 346.71 398.024C346.71 399.608 345.192 400.433 343.641 400.433C341.793 400.433 340.55 399.41 340.363 397.738H341.595C341.826 398.827 342.563 399.388 343.685 399.388C344.719 399.388 345.445 398.893 345.445 398.123C345.445 397.298 344.653 396.968 343.795 396.792L342.816 396.594ZM354.129 399.322L355.064 400.345L354.305 401.049L353.315 399.971C352.776 400.268 352.138 400.433 351.423 400.433C349.102 400.433 347.65 398.728 347.65 396.297C347.65 393.866 349.102 392.172 351.423 392.172C353.733 392.172 355.185 393.866 355.185 396.297C355.185 397.54 354.8 398.596 354.129 399.322ZM351.423 399.388C351.819 399.388 352.204 399.3 352.534 399.113L351.841 398.354L352.6 397.65L353.304 398.431C353.678 397.914 353.898 397.199 353.898 396.297C353.898 394.295 352.809 393.217 351.423 393.217C350.026 393.217 348.937 394.295 348.937 396.297C348.937 398.299 350.026 399.388 351.423 399.388ZM357.85 399.223H361.964V400.29H356.596V392.315H357.85V399.223Z" fill="#666666"/>
<path d="M384.529 395.79H396.92" stroke="#CCBD00" stroke-width="2" stroke-linecap="round"/>
<path d="M406.443 392.315C408.973 392.315 410.843 393.228 410.843 396.297C410.843 399.377 408.973 400.29 406.443 400.29H404.265V392.315H406.443ZM406.388 393.349H405.519V399.256H406.388C407.983 399.256 409.545 398.926 409.545 396.297C409.545 393.679 407.983 393.349 406.388 393.349ZM415.67 399.454C415.329 400.048 414.757 400.433 413.866 400.433C412.469 400.433 411.93 399.564 411.93 398.134V394.372H413.074V397.826C413.074 398.684 413.217 399.465 414.251 399.465C415.208 399.465 415.681 398.75 415.681 397.584V394.372H416.825V400.29H415.67V399.454ZM423.372 396.374H422.228C422.107 395.703 421.502 395.241 420.754 395.241C419.929 395.241 419.17 395.89 419.17 397.331C419.17 398.794 419.94 399.454 420.754 399.454C421.48 399.454 422.118 399.025 422.272 398.321H423.427C423.196 399.564 422.041 400.433 420.732 400.433C419.027 400.433 417.949 399.124 417.949 397.342C417.949 395.582 419.06 394.262 420.809 394.262C422.162 394.262 423.196 395.219 423.372 396.374ZM425.644 392.315V396.902L427.998 394.372H429.395L427.096 396.814L429.56 400.29H428.196L426.315 397.639L425.644 398.354V400.29H424.5V392.315H425.644ZM432.492 392.315C435.022 392.315 436.892 393.228 436.892 396.297C436.892 399.377 435.022 400.29 432.492 400.29H430.314V392.315H432.492ZM432.437 393.349H431.568V399.256H432.437C434.032 399.256 435.594 398.926 435.594 396.297C435.594 393.679 434.032 393.349 432.437 393.349ZM438.285 392.315H441.222C442.685 392.315 444.049 392.7 444.049 394.317C444.049 395.065 443.686 395.747 443.169 396.044C443.884 396.363 444.368 396.913 444.368 397.936C444.368 399.63 443.07 400.29 441.453 400.29H438.285V392.315ZM439.539 395.692H441.376C442.234 395.692 442.784 395.329 442.784 394.471C442.784 393.712 442.212 393.349 441.376 393.349H439.539V395.692ZM439.539 399.256H441.486C442.553 399.256 443.081 398.783 443.081 397.936C443.081 397.056 442.553 396.66 441.42 396.66H439.539V399.256ZM445.269 397.826V396.77H448.811V397.826H445.269ZM456.325 399.322L457.26 400.345L456.501 401.049L455.511 399.971C454.972 400.268 454.334 400.433 453.619 400.433C451.298 400.433 449.846 398.728 449.846 396.297C449.846 393.866 451.298 392.172 453.619 392.172C455.929 392.172 457.381 393.866 457.381 396.297C457.381 397.54 456.996 398.596 456.325 399.322ZM453.619 399.388C454.015 399.388 454.4 399.3 454.73 399.113L454.037 398.354L454.796 397.65L455.5 398.431C455.874 397.914 456.094 397.199 456.094 396.297C456.094 394.295 455.005 393.217 453.619 393.217C452.222 393.217 451.133 394.295 451.133 396.297C451.133 398.299 452.222 399.388 453.619 399.388ZM462.226 399.454C461.885 400.048 461.313 400.433 460.422 400.433C459.025 400.433 458.486 399.564 458.486 398.134V394.372H459.63V397.826C459.63 398.684 459.773 399.465 460.807 399.465C461.764 399.465 462.237 398.75 462.237 397.584V394.372H463.381V400.29H462.226V399.454ZM464.56 398.695C464.56 397.254 466.254 396.869 468.553 396.627V396.506C468.553 395.461 468.003 395.109 467.277 395.109C466.485 395.109 466.034 395.516 465.99 396.242H464.835C464.934 394.988 465.968 394.229 467.321 394.229C468.85 394.229 469.73 394.966 469.708 396.737C469.708 396.88 469.686 397.903 469.686 398.156C469.686 399.036 469.741 399.762 469.851 400.29H468.751C468.707 400.059 468.674 399.883 468.652 399.509C468.3 400.103 467.629 400.433 466.672 400.433C465.473 400.433 464.56 399.773 464.56 398.695ZM468.608 397.474C466.771 397.65 465.803 397.903 465.803 398.673C465.803 399.212 466.232 399.553 466.925 399.553C467.871 399.553 468.608 399.08 468.608 397.903V397.474ZM476.137 396.374H474.993C474.872 395.703 474.267 395.241 473.519 395.241C472.694 395.241 471.935 395.89 471.935 397.331C471.935 398.794 472.705 399.454 473.519 399.454C474.245 399.454 474.883 399.025 475.037 398.321H476.192C475.961 399.564 474.806 400.433 473.497 400.433C471.792 400.433 470.714 399.124 470.714 397.342C470.714 395.582 471.825 394.262 473.574 394.262C474.927 394.262 475.961 395.219 476.137 396.374ZM478.41 392.315V396.902L480.764 394.372H482.161L479.862 396.814L482.326 400.29H480.962L479.081 397.639L478.41 398.354V400.29H477.266V392.315H478.41Z" fill="#666666"/>
<path d="M159.686 54.4944L159.686 344.289" stroke="#CCCCCC"/>
<path d="M248.686 54.4944L248.686 344.289" stroke="#CCCCCC"/>
<path d="M337.686 54.4944L337.687 344.289" stroke="#CCCCCC"/>
<path d="M426.686 54.4944L426.687 344.289" stroke="#CCCCCC"/>
<path d="M515.686 54.4944L515.687 344.289" stroke="#CCCCCC"/>
<path d="M604.686 54.4944L604.687 344.289" stroke="#CCCCCC"/>
<path d="M617.304 98.6532L70.6517 98.6534" stroke="#CCCCCC"/>
<path d="M617.304 180.653L70.6517 180.653" stroke="#CCCCCC"/>
<path d="M617.304 262.653L70.6517 262.653" stroke="#CCCCCC"/>
<path d="M71.6517 343.932L79.661 343.391L159.747 339.01L604.687 313.79" stroke="#D700AF" stroke-width="2" stroke-linecap="round"/>
<path d="M71.6517 343.706L79.661 340.226L159.747 299.46L604.687 68.6152" stroke="#005FFF" stroke-width="2" stroke-linecap="round"/>
<path d="M71.6517 343.932L79.661 343.635L159.747 342.505L604.687 335.459" stroke="#CCBD00" stroke-width="2" stroke-linecap="round"/>
<path d="M70.6519 54.4942L70.6519 344.289L618.309 344.289" stroke="#666666"/>
</svg>
