<svg width="150" height="70" viewBox="0 0 150 70" fill="none" xmlns="http://www.w3.org/2000/svg">
<g clip-path="url(#clip0_12243_49113)">
<path fill-rule="evenodd" clip-rule="evenodd" d="M30.8024 38.0761L29.0075 38.018L28.591 37.9564L21.6571 30.3889L24.1268 26.1494L25.2654 26.3739L31.2937 36.7204L30.8024 38.0761ZM22.6553 34.4265L21.6912 32.5999L20.2203 32.854L14.2051 43.1791L14.5733 44.2583H19.5329L22.6738 34.5508L22.6553 34.4265ZM32.7174 39.1653L22.5931 41.3443L21.4419 43.146L22.3953 44.2583H34.4555L35.1949 43.4166L32.7174 39.1653Z" fill="black"/>
<path fill-rule="evenodd" clip-rule="evenodd" d="M59.38 27.374H61.1292V41.2606H63.1878V42.6821H62.0038C61.6741 42.6821 61.3848 42.6622 61.1292 42.6202C59.7673 42.4026 59.38 41.596 59.38 40.1245V27.374ZM49.976 28.1386L44.4434 42.682H46.2803L47.7019 38.9643H54.8977L56.3192 42.682H58.1783L52.6674 28.1386H49.978H49.976ZM48.2489 37.4988L51.3098 29.4504L54.3486 37.4988H48.2489ZM66.0029 29.3208H65.0666L64.4098 31.595L62.1573 32.1421V33.1264H64.2558V40.1246C64.2558 41.8736 64.8028 42.6823 66.8796 42.6823H69.4592V41.2606H66.0029V33.1264H69.6107V31.7487H66.0029V29.3208ZM122.252 27.374H120.503V40.1245C120.503 41.596 120.89 42.4026 122.252 42.6202C122.507 42.6622 122.797 42.6821 123.126 42.6821H124.31V41.2606H122.252V27.374ZM75.5627 31.3989C78.8433 31.3989 80.702 33.6511 80.702 36.8437V36.8457C80.702 37.1292 80.702 37.3488 80.6583 37.6104H71.8669C71.999 40.6053 73.4864 41.6995 75.6286 41.6995C77.7712 41.6995 78.7553 40.6932 79.0829 39.3155H80.6801C80.4604 40.9787 79.3244 43.0333 75.5627 43.0333C71.801 43.0333 70.14 40.4975 70.14 37.1951C70.14 33.9366 71.9327 31.3989 75.5627 31.3989ZM75.5846 32.7327C73.5082 32.7327 72.1525 33.717 71.9109 36.2966H78.9968C78.9092 33.7829 77.6613 32.7327 75.5846 32.7327ZM92.1385 29.3208H91.1981L90.5054 31.7208H88.0056C85.907 31.7208 84.6373 32.8209 83.9825 34.6578V31.7487H82.2552V42.6823H84.0044V38.6591C84.0044 35.5763 84.683 33.0146 87.9196 33.1244H88.2912L88.4011 33.1264H90.3914V40.1246C90.3914 41.8736 90.9388 42.6823 93.0151 42.6823H95.5948V41.2606H92.1385V33.1264H95.7463V31.7487H92.1385V29.3208ZM101.367 31.3755C104.364 31.3755 105.698 32.7532 105.698 34.7219L105.696 34.7199V39.969C105.696 40.7557 105.74 41.6083 105.828 42.6804H104.252C104.143 41.74 104.099 40.9314 104.099 40.1227C103.683 41.4345 102.525 42.9659 99.9875 42.9659C97.8889 42.9659 96.3797 41.8738 96.3797 39.7953C96.3797 38.0243 97.3201 36.9082 99.7039 36.5148L102.481 36.0556C103.617 35.86 104.099 35.5525 104.099 34.7219C104.099 33.6057 103.529 32.7532 101.409 32.7532C99.2886 32.7532 98.4799 33.7595 98.3704 35.1811H96.6213C96.6871 32.863 98.3704 31.3755 101.367 31.3755ZM98.1548 39.7294C98.1548 40.9753 99.0512 41.5882 100.319 41.5882C102.923 41.5882 104.103 39.5777 104.103 37.4992V36.5588C103.555 36.9521 102.964 37.1258 102.134 37.3015L100.319 37.6729C98.8334 37.9803 98.1548 38.5474 98.1548 39.7294ZM113.768 31.3972C111.755 31.3972 110.378 32.2717 109.635 33.7812V27.374H107.886V42.6821H109.635V40.6256C110.378 42.157 111.755 43.0316 113.768 43.0316C117.202 43.0316 118.775 40.5597 118.775 37.2154C118.775 33.8471 117.2 31.3992 113.768 31.3992V31.3972ZM113.417 41.6099C111.098 41.6099 109.633 40.2982 109.633 37.2154C109.633 34.1326 111.098 32.8208 113.417 32.8208C115.889 32.8208 116.981 34.2644 116.981 37.2154C116.981 40.1464 115.887 41.6099 113.417 41.6099ZM126.063 37.6084C126.195 40.6033 127.639 41.6975 129.825 41.6975V41.6995C131.967 41.6995 132.952 40.6932 133.279 39.3155H134.877C134.657 40.9787 133.521 43.0333 129.759 43.0333C125.998 43.0333 124.336 40.4536 124.336 37.1951C124.336 33.9366 126.129 31.3989 129.759 31.3989C133.039 31.3989 134.898 33.6511 134.898 36.8437C134.898 37.1272 134.898 37.3469 134.854 37.6084H126.063ZM133.193 36.2946C133.105 33.7809 131.815 32.7307 129.781 32.7307C127.705 32.7307 126.349 33.715 126.107 36.2946H133.193Z" fill="black"/>
</g>
<defs>
<clipPath id="clip0_12243_49113">
<rect width="121" height="18.1088" fill="white" transform="translate(14 26.1494)"/>
</clipPath>
</defs>
</svg>
