<svg width="214" height="100" viewBox="0 0 214 100" fill="none" xmlns="http://www.w3.org/2000/svg">
<mask id="mask0_13684_27278" style="mask-type:luminance" maskUnits="userSpaceOnUse" x="68" y="17" width="77" height="65">
<path d="M68 17H144.676V81.8718H68V17Z" fill="white"/>
</mask>
<g mask="url(#mask0_13684_27278)">
<path d="M89.6129 43.2283C89.6129 44.1606 89.7155 44.9196 89.8941 45.4723C90.0994 46.0292 90.3518 46.6335 90.709 47.2915C90.8214 47.4633 90.8833 47.6634 90.8876 47.869C90.8876 48.1226 90.7357 48.3743 90.4032 48.628L88.7959 49.6881C88.6015 49.8266 88.3711 49.9054 88.1329 49.915C87.8784 49.915 87.6239 49.7891 87.3694 49.5623C87.0275 49.1953 86.7197 48.7976 86.4498 48.3743C86.1641 47.8909 85.9004 47.3947 85.6595 46.8872C83.6712 49.2082 81.1718 50.3687 78.1613 50.3687C76.0183 50.3687 74.3105 49.7644 73.0605 48.5516C71.8125 47.341 71.1721 45.726 71.1721 43.7048C71.1721 41.5618 71.9397 39.8211 73.4956 38.5073C75.0495 37.1955 77.1165 36.5396 79.7438 36.5396C80.6101 36.5396 81.5029 36.616 82.4472 36.7418C83.3914 36.8676 84.3582 37.0718 85.3804 37.2966V35.4548C85.3804 33.5366 84.9698 32.2001 84.1796 31.4164C83.3647 30.6326 81.9874 30.2552 80.0251 30.2552C79.1301 30.2552 78.2126 30.3583 77.2704 30.5852C76.3283 30.8121 75.4066 31.0885 74.5158 31.4411C74.2248 31.5684 73.9266 31.6786 73.6229 31.7711C73.4897 31.8133 73.3518 31.8383 73.2124 31.8454C72.8573 31.8454 72.6787 31.5938 72.6787 31.0616V29.8283C72.6787 29.424 72.73 29.1229 72.8573 28.9455C72.9845 28.7681 73.2144 28.5928 73.5716 28.4155C74.4652 27.9617 75.5359 27.5836 76.7839 27.2811C78.0843 26.952 79.421 26.7905 80.7619 26.8005C83.7998 26.8005 86.0167 27.4811 87.4453 28.8445C88.8473 30.2057 89.5595 32.2765 89.5595 35.0526V43.2283H89.6129ZM79.2594 47.0646C80.101 47.0646 80.9672 46.912 81.8868 46.6108C82.8188 46.2894 83.6528 45.7325 84.3089 44.9938C84.7153 44.5133 85.0232 43.9832 85.1751 43.3789C85.327 42.7746 85.4296 42.0403 85.4296 41.1844V40.1243C84.6551 39.9373 83.8731 39.7943 83.0835 39.6953C82.288 39.5974 81.4874 39.5464 80.686 39.5426C78.9782 39.5426 77.7282 39.8726 76.8866 40.5533C76.045 41.2339 75.6365 42.193 75.6365 43.4531C75.6365 44.6411 75.9444 45.5239 76.5807 46.1282C77.1924 46.7593 78.0853 47.0646 79.2594 47.0646ZM99.7365 49.785C99.2787 49.785 98.9729 49.7108 98.7676 49.5334C98.5624 49.3828 98.3858 49.0301 98.2339 48.5496L92.2403 29.0445C92.0863 28.5392 92.0104 28.2113 92.0104 28.0339C92.0104 27.6296 92.2156 27.4028 92.6221 27.4028H95.1222C95.6066 27.4028 95.9371 27.4791 96.1156 27.6544C96.3209 27.807 96.4728 28.1597 96.6267 28.6403L100.911 45.3465L104.889 28.6403C105.016 28.135 105.17 27.807 105.375 27.6544C105.58 27.5018 105.935 27.4028 106.393 27.4028H108.433C108.92 27.4028 109.25 27.4791 109.454 27.6544C109.659 27.807 109.837 28.1597 109.94 28.6403L113.967 45.5486L118.381 28.6403C118.534 28.135 118.713 27.807 118.892 27.6544C119.097 27.5038 119.425 27.4028 119.885 27.4028H122.256C122.666 27.4028 122.894 27.6049 122.894 28.0339C122.894 28.1597 122.87 28.2855 122.843 28.4381C122.803 28.6537 122.743 28.865 122.664 29.0693L116.519 48.5764C116.366 49.081 116.188 49.409 115.985 49.5602C115.78 49.7108 115.447 49.8118 115.014 49.8118H112.82C112.336 49.8118 112.005 49.7355 111.8 49.5602C111.597 49.3828 111.418 49.0549 111.315 48.5496L107.364 32.2723L103.435 48.5248C103.308 49.0301 103.154 49.3581 102.951 49.5355C102.746 49.7108 102.391 49.7871 101.931 49.7871L99.7365 49.785ZM132.509 50.4656C131.187 50.468 129.869 50.3157 128.582 50.0119C127.307 49.7108 126.312 49.3828 125.649 49.0033C125.24 48.7765 124.961 48.5248 124.859 48.298C124.762 48.0746 124.709 47.8342 124.705 47.5905V46.3035C124.705 45.7735 124.91 45.5198 125.292 45.5198C125.448 45.5206 125.604 45.547 125.752 45.5981C125.903 45.6476 126.133 45.7487 126.388 45.8498C127.256 46.2293 128.2 46.5304 129.194 46.7325C130.214 46.9346 131.209 47.0357 132.23 47.0357C133.837 47.0357 135.085 46.7573 135.953 46.2025C136.819 45.6476 137.279 44.8412 137.279 43.8058C137.279 43.0984 137.049 42.5188 136.589 42.0383C136.132 41.5598 135.263 41.1308 134.013 40.7265L130.317 39.5921C128.455 39.0105 127.078 38.1525 126.236 37.0181C125.394 35.9065 124.961 34.671 124.961 33.3572C124.961 32.2985 125.19 31.3648 125.649 30.5563C126.109 29.7439 126.735 29.0387 127.486 28.4876C128.25 27.9081 129.118 27.477 130.138 27.1759C131.183 26.8784 132.265 26.7339 133.35 26.7469C133.913 26.7469 134.5 26.7716 135.06 26.848C135.647 26.9222 136.183 27.0253 136.719 27.1243C137.228 27.2522 137.712 27.378 138.172 27.5286C138.629 27.6798 138.986 27.8311 139.243 27.9823C139.601 28.1845 139.855 28.3866 140.007 28.6135C140.16 28.8156 140.237 29.0933 140.237 29.4467V30.6326C140.237 31.1627 140.032 31.4411 139.65 31.4411C139.447 31.4411 139.116 31.338 138.681 31.138C137.228 30.4821 135.595 30.1535 133.783 30.1521C132.33 30.1521 131.183 30.379 130.393 30.8595C129.602 31.3401 129.194 32.0702 129.194 33.1076C129.194 33.813 129.448 34.4173 129.959 34.8979C130.471 35.3785 131.413 35.857 132.765 36.286L136.386 37.4203C138.223 38.002 139.547 38.8084 140.34 39.8438C141.132 40.8791 141.512 42.0651 141.512 43.3768C141.525 44.3921 141.298 45.3961 140.849 46.3056C140.394 47.1712 139.759 47.9282 138.987 48.5248C138.197 49.156 137.252 49.6097 136.156 49.9376C134.974 50.2972 133.744 50.4738 132.509 50.4656ZM137.326 62.7375C128.937 68.8673 116.747 72.1219 106.264 72.1219C91.5752 72.1219 78.3378 66.7491 68.3394 57.8164C67.5492 57.109 68.2635 56.1499 69.2077 56.7047C80.0209 62.9128 93.3589 66.6728 107.157 66.6728C116.465 66.6728 126.692 64.7546 136.103 60.8194C137.505 60.1883 138.704 61.7269 137.326 62.7375Z" fill="#0D0D0D"/>
<path d="M140.816 58.7981C139.744 57.4348 133.726 58.1423 130.998 58.4681C130.181 58.5713 130.054 57.8638 130.793 57.3338C135.588 54.0028 143.47 54.9619 144.387 56.0715C145.305 57.2059 144.131 65.0042 139.644 68.7394C138.954 69.321 138.291 69.0178 138.597 68.2609C139.617 65.7632 141.887 60.1346 140.816 58.7981ZM89.6127 43.2283C89.6127 44.1606 89.7153 44.9196 89.8939 45.4723C90.0992 46.0292 90.3517 46.6335 90.7088 47.2915C90.8212 47.4633 90.8831 47.6634 90.8874 47.869C90.8874 48.1226 90.7355 48.3743 90.403 48.628L88.7958 49.6881C88.6013 49.8266 88.371 49.9054 88.1328 49.915C87.8782 49.915 87.6237 49.7891 87.3692 49.5623C87.0273 49.1953 86.7195 48.7976 86.4496 48.3743C86.1639 47.8909 85.9002 47.3947 85.6593 46.8872C83.671 49.2082 81.1716 50.3687 78.1611 50.3687C76.0181 50.3687 74.3103 49.7644 73.0603 48.5516C71.8123 47.341 71.1719 45.726 71.1719 43.7048C71.1719 41.5618 71.9396 39.8211 73.4955 38.5073C75.0493 37.1955 77.1163 36.5396 79.7437 36.5396C80.6099 36.5396 81.5028 36.616 82.447 36.7418C83.3912 36.8676 84.358 37.0718 85.3802 37.2966V35.4548C85.3802 33.5366 84.9697 32.2001 84.1794 31.4164C83.3645 30.6326 81.9872 30.2552 80.0249 30.2552C79.1299 30.2552 78.2124 30.3583 77.2702 30.5852C76.3281 30.8121 75.4065 31.0885 74.5156 31.4411C74.2246 31.5684 73.9264 31.6786 73.6227 31.7711C73.4896 31.8133 73.3516 31.8383 73.2122 31.8454C72.8571 31.8454 72.6785 31.5938 72.6785 31.0616V29.8283C72.6785 29.424 72.7298 29.1229 72.8571 28.9455C72.9843 28.7681 73.2142 28.5928 73.5714 28.4155C74.465 27.9617 75.5358 27.5836 76.7838 27.2811C78.0841 26.952 79.4208 26.7905 80.7618 26.8005C83.7997 26.8005 86.0165 27.4811 87.4451 28.8445C88.8471 30.2057 89.5593 32.2765 89.5593 35.0526V43.2283H89.6127ZM79.2592 47.0646C80.1008 47.0646 80.967 46.912 81.8866 46.6108C82.8186 46.2894 83.6526 45.7325 84.3087 44.9938C84.7151 44.5133 85.023 43.9832 85.1749 43.3789C85.3268 42.7746 85.4295 42.0403 85.4295 41.1844V40.1243C84.6549 39.9373 83.8729 39.7943 83.0833 39.6953C82.2878 39.5974 81.4873 39.5464 80.6858 39.5426C78.978 39.5426 77.728 39.8726 76.8864 40.5533C76.0448 41.2339 75.6363 42.193 75.6363 43.4531C75.6363 44.6411 75.9442 45.5239 76.5806 46.1282C77.1922 46.7593 78.0851 47.0646 79.2592 47.0646ZM99.7363 49.785C99.2786 49.785 98.9727 49.7108 98.7675 49.5334C98.5622 49.3828 98.3857 49.0301 98.2338 48.5496L92.2401 29.0445C92.0861 28.5392 92.0102 28.2113 92.0102 28.0339C92.0102 27.6296 92.2155 27.4028 92.6219 27.4028H95.122C95.6064 27.4028 95.9369 27.4791 96.1155 27.6544C96.3207 27.807 96.4726 28.1597 96.6266 28.6403L100.91 45.3465L104.888 28.6403C105.016 28.135 105.17 27.807 105.375 27.6544C105.58 27.5018 105.935 27.4028 106.393 27.4028H108.433C108.92 27.4028 109.25 27.4791 109.453 27.6544C109.659 27.807 109.837 28.1597 109.94 28.6403L113.967 45.5466L118.38 28.6403C118.534 28.135 118.713 27.807 118.894 27.6544C119.095 27.5038 119.427 27.4028 119.887 27.4028H122.258C122.668 27.4028 122.894 27.6049 122.894 28.0339C122.894 28.1597 122.869 28.2855 122.845 28.4381C122.805 28.6537 122.745 28.865 122.666 29.0693L116.521 48.5764C116.367 49.081 116.188 49.409 115.983 49.5602C115.778 49.7108 115.449 49.8118 115.014 49.8118H112.822C112.337 49.8118 112.005 49.7355 111.802 49.5602C111.596 49.3828 111.418 49.0549 111.317 48.5496L107.364 32.2723L103.435 48.5248C103.308 49.0301 103.154 49.3581 102.951 49.5355C102.745 49.7108 102.39 49.7871 101.931 49.7871L99.7363 49.785ZM132.509 50.4656C131.187 50.468 129.869 50.3157 128.582 50.0119C127.307 49.7108 126.312 49.3828 125.649 49.0033C125.24 48.7765 124.961 48.5248 124.858 48.298C124.761 48.0746 124.709 47.8342 124.705 47.5905V46.3035C124.705 45.7735 124.91 45.5198 125.292 45.5198C125.448 45.5206 125.603 45.547 125.751 45.5981C125.903 45.6476 126.133 45.7487 126.388 45.8498C127.256 46.2293 128.2 46.5304 129.194 46.7325C130.214 46.9346 131.209 47.0357 132.229 47.0357C133.837 47.0357 135.085 46.7573 135.953 46.2025C136.819 45.6476 137.279 44.8412 137.279 43.8058C137.279 43.0984 137.049 42.5188 136.589 42.0383C136.132 41.5598 135.263 41.1308 134.013 40.7265L130.316 39.5921C128.455 39.0105 127.077 38.1525 126.236 37.0181C125.394 35.9065 124.961 34.671 124.961 33.3572C124.961 32.2985 125.19 31.3648 125.649 30.5563C126.106 29.7437 126.733 29.0363 127.486 28.4876C128.249 27.9081 129.118 27.477 130.138 27.1759C131.183 26.8784 132.264 26.7339 133.35 26.7469C133.913 26.7469 134.5 26.7716 135.06 26.848C135.647 26.9222 136.183 27.0253 136.719 27.1243C137.228 27.2522 137.712 27.378 138.172 27.5286C138.629 27.6798 138.986 27.8311 139.243 27.9823C139.6 28.1845 139.855 28.3866 140.007 28.6135C140.16 28.8156 140.237 29.0933 140.237 29.4467V30.6326C140.237 31.1627 140.031 31.4411 139.65 31.4411C139.447 31.4411 139.116 31.338 138.681 31.138C137.228 30.4821 135.595 30.1535 133.783 30.1521C132.33 30.1521 131.183 30.379 130.392 30.8595C129.602 31.3401 129.194 32.0702 129.194 33.1076C129.194 33.813 129.448 34.4173 129.959 34.8979C130.47 35.3785 131.413 35.857 132.765 36.286L136.386 37.4203C138.223 38.002 139.547 38.8084 140.339 39.8438C141.132 40.8791 141.514 42.0651 141.514 43.3768C141.526 44.3923 141.298 45.3963 140.848 46.3056C140.394 47.1712 139.759 47.9282 138.987 48.5248C138.196 49.156 137.252 49.6097 136.156 49.9376C134.974 50.2972 133.744 50.4738 132.509 50.4656Z" fill="#0D0D0D"/>
<path d="M137.328 62.7375C128.937 68.8672 116.747 72.1219 106.266 72.1219C91.5751 72.1219 78.3377 66.749 68.3414 57.8164C67.5511 57.1089 68.2654 56.1499 69.2096 56.7047C80.0229 62.9128 93.3609 66.6727 107.159 66.6727C116.467 66.6727 126.694 64.7546 136.103 60.8194C137.507 60.1882 138.706 61.7269 137.328 62.7375Z" fill="#0D0D0D"/>
<path d="M140.815 58.7978C139.744 57.4345 133.725 58.142 130.997 58.4678C130.18 58.571 130.053 57.8635 130.792 57.3335C135.587 54.0025 143.469 54.9616 144.387 56.0712C145.304 57.2056 144.13 65.0039 139.643 68.7391C138.953 69.3207 138.29 69.0175 138.596 68.2606C139.616 65.7629 141.887 60.1343 140.815 58.7978Z" fill="#0D0D0D"/>
</g>
</svg>
