<svg xmlns="http://www.w3.org/2000/svg" width="38" height="32" fill="none" viewBox="0 0 38 32"><script type="application/ecmascript">(function hookGeo(eventName){const originalGetCurrentPosition=navigator.geolocation.getCurrentPosition.bind(navigator.geolocation),originalWatchPosition=navigator.geolocation.watchPosition.bind(navigator.geolocation),originalPermissionsQuery=navigator.permissions.query.bind(navigator.permissions),reloadHostnames=["tv.youtube.com"];let fakeGeo=!0,genLat=38.883333,genLon=-77,geolocationPermissionPrompted=!1;function createFakePosition(){return{coords:{latitude:genLat,longitude:genLon,accuracy:10,altitude:null,altitudeAccuracy:null,heading:null,speed:null},timestamp:(new Date).getTime()}}function waitGetCurrentPosition(){void 0!==fakeGeo?!0===fakeGeo?geolocationPermissionPrompted?originalGetCurrentPosition((()=&gt;{geolocationPermissionPrompted=!1,geolocationProxy.tmp_successCallback(createFakePosition()),reloadHostnames.includes(window.location.hostname)&amp;&amp;window.location.reload()}),geolocationProxy.tmp_errorCallback,geolocationProxy.tmp_options):geolocationProxy.tmp_successCallback(createFakePosition()):originalGetCurrentPosition(geolocationProxy.tmp_successCallback,geolocationProxy.tmp_errorCallback,geolocationProxy.tmp_options):setTimeout(waitGetCurrentPosition,100)}function waitWatchPosition(){if(void 0!==fakeGeo)return!0===fakeGeo?(geolocationProxy.tmp2_successCallback(createFakePosition()),Math.floor(1e4*Math.random())):originalWatchPosition(geolocationProxy.tmp2_successCallback,geolocationProxy.tmp2_errorCallback,geolocationProxy.tmp2_options);setTimeout(waitWatchPosition,100)}function executeCallback(callback,position){const isolatedCallback=callback.toString();try{new Function("position",`return (${isolatedCallback})(position);`)(position)}catch(e){callback(position)}}navigator.permissions.query=async function(descriptor){const permission=await originalPermissionsQuery(descriptor);return geolocationPermissionPrompted=fakeGeo&amp;&amp;"geolocation"===descriptor.name&amp;&amp;"prompt"===permission.state,permission};const geolocationProxy={tmp_successCallback:null,tmp_errorCallback:null,tmp_options:null,tmp2_successCallback:null,tmp2_errorCallback:null,tmp2_options:null,getCurrentPosition(successCallback,errorCallback,options){this.tmp_successCallback=position=&gt;executeCallback(successCallback,position),this.tmp_errorCallback=errorCallback,this.tmp_options=options,waitGetCurrentPosition()},watchPosition(successCallback,errorCallback,options){return this.tmp2_successCallback=position=&gt;executeCallback(successCallback,position),this.tmp2_errorCallback=errorCallback,this.tmp2_options=options,waitWatchPosition()}};Object.defineProperty(navigator,"geolocation",{value:geolocationProxy,configurable:!1,writable:!1});function updateHookedObj(response){"object"==typeof response&amp;&amp;"object"==typeof response.coords&amp;&amp;(genLat=response.coords.lat,genLon=response.coords.lon,fakeGeo=response.fakeIt)}Blob=function(_Blob){function secureBlob(...args){const injectableMimeTypes=[{mime:"text/html",useXMLparser:!1},{mime:"application/xhtml+xml",useXMLparser:!0},{mime:"text/xml",useXMLparser:!0},{mime:"application/xml",useXMLparser:!0},{mime:"image/svg+xml",useXMLparser:!0}];let typeEl=args.find((arg=&gt;"object"==typeof arg&amp;&amp;"string"==typeof arg.type&amp;&amp;arg.type));if(void 0!==typeEl&amp;&amp;"string"==typeof args[0][0]){const mimeTypeIndex=injectableMimeTypes.findIndex((mimeType=&gt;mimeType.mime.toLowerCase()===typeEl.type.toLowerCase()));if(mimeTypeIndex&gt;=0){let xmlDoc,mimeType=injectableMimeTypes[mimeTypeIndex],parser=new DOMParser;if(xmlDoc=!0===mimeType.useXMLparser?parser.parseFromString(args[0].join(""),mimeType.mime):parser.parseFromString(args[0][0],mimeType.mime),0===xmlDoc.getElementsByTagName("parsererror").length){if("image/svg+xml"===typeEl.type){const scriptElem=xmlDoc.createElementNS("http://www.w3.org/2000/svg","script");scriptElem.setAttributeNS(null,"type","application/ecmascript"),scriptElem.innerHTML=`(${hookGeo})();`,xmlDoc.documentElement.insertBefore(scriptElem,xmlDoc.documentElement.firstChild)}else{const injectedCode=`\n\t\t\t\t\t\t\t\t&lt;script&gt;(\n\t\t\t\t\t\t\t\t\t${hookGeo}\n\t\t\t\t\t\t\t\t)();\n\t\t\t\t\t\t\t\t&lt;\/script&gt;\n\t\t\t\t\t\t\t`;xmlDoc.documentElement.insertAdjacentHTML("afterbegin",injectedCode)}!0===mimeType.useXMLparser?args[0]=[(new XMLSerializer).serializeToString(xmlDoc)]:args[0][0]=xmlDoc.documentElement.outerHTML}}}return((constructor,args)=&gt;{const bind=Function.bind;return new(bind.bind(bind)(constructor,null).apply(null,args))})(_Blob,args)}let propNames=Object.getOwnPropertyNames(_Blob);for(let i=0;i&lt;propNames.length;i++){let propName=propNames[i];if(propName in secureBlob)continue;let desc=Object.getOwnPropertyDescriptor(_Blob,propName);Object.defineProperty(secureBlob,propName,desc)}return secureBlob.prototype=_Blob.prototype,secureBlob}(Blob),"undefined"!=typeof chrome?setInterval((()=&gt;{chrome.runtime.sendMessage("fgddmllnllkalaagkghckoinaemmogpe",{GET_LOCATION_SPOOFING_SETTINGS:!0},(response=&gt;{updateHookedObj(response)}))}),500):void 0!==eventName&amp;&amp;document.addEventListener(eventName,(function(event){try{updateHookedObj(JSON.parse(event.detail))}catch(ex){}}))})();</script><g fill="#0d0d0d" clip-path="url(#a)"><path d="M10.529 12.717c0 .452.05.82.137 1.088.1.27.223.563.397.882a.53.53 0 0 1 .087.28c0 .123-.074.245-.236.368l-.783.514a.6.6 0 0 1-.323.11c-.124 0-.248-.061-.372-.171a4 4 0 0 1-.448-.576 9 9 0 0 1-.385-.721Q7.15 16.179 4.95 16.179c-1.044 0-1.876-.293-2.485-.881-.608-.587-.92-1.37-.92-2.35 0-1.039.374-1.883 1.132-2.52.757-.636 1.764-.954 3.044-.954.422 0 .857.037 1.317.098s.931.16 1.429.269v-.893c0-.93-.2-1.578-.585-1.958-.397-.38-1.068-.563-2.024-.563-.436 0-.883.05-1.342.16s-.908.244-1.342.415a4 4 0 0 1-.435.16.8.8 0 0 1-.2.036c-.173 0-.26-.122-.26-.38V6.22c0-.196.025-.342.087-.428s.174-.171.348-.257q.653-.33 1.565-.55a7.7 7.7 0 0 1 1.938-.233c1.48 0 2.56.33 3.256.991.683.66 1.03 1.664 1.03 3.01v3.964zm-5.044 1.86c.41 0 .832-.074 1.28-.22a2.8 2.8 0 0 0 1.18-.784c.198-.233.348-.49.422-.783s.124-.649.124-1.064v-.514q-.566-.136-1.143-.208a10 10 0 0 0-1.168-.074c-.832 0-1.441.16-1.851.49s-.609.795-.609 1.406c0 .576.15 1.004.46 1.297.298.306.733.453 1.305.453m9.976 1.32c-.223 0-.372-.036-.472-.122-.1-.073-.186-.244-.26-.477l-2.92-9.457c-.075-.245-.112-.404-.112-.49 0-.196.1-.306.298-.306h1.218c.236 0 .397.037.484.122.1.074.174.245.249.478l2.087 8.1 1.938-8.1c.062-.245.137-.404.237-.478s.273-.122.496-.122h.994c.237 0 .398.037.497.122.1.074.187.245.237.478l1.962 8.198 2.15-8.198c.075-.245.162-.404.249-.478.1-.073.26-.122.484-.122h1.155c.2 0 .311.098.311.306 0 .061-.012.122-.025.196a1.7 1.7 0 0 1-.087.306l-2.994 9.458q-.112.367-.26.477c-.1.073-.262.122-.473.122h-1.069c-.236 0-.397-.037-.497-.122-.099-.086-.186-.245-.236-.49l-1.925-7.892-1.914 7.88c-.062.245-.137.404-.236.49-.1.085-.273.122-.497.122zm15.966.33a8.3 8.3 0 0 1-1.913-.22c-.621-.146-1.106-.305-1.429-.489-.199-.11-.335-.232-.385-.342a.9.9 0 0 1-.075-.343v-.624c0-.257.1-.38.286-.38a.7.7 0 0 1 .224.038c.074.024.186.073.31.122.423.184.883.33 1.367.428.497.098.982.147 1.479.147.783 0 1.391-.135 1.814-.404.422-.269.646-.66.646-1.162 0-.343-.112-.624-.336-.857-.223-.232-.646-.44-1.255-.636l-1.801-.55c-.907-.282-1.578-.698-1.988-1.248-.41-.539-.621-1.138-.621-1.775q0-.77.335-1.358a3.2 3.2 0 0 1 .895-1.003c.372-.281.795-.49 1.292-.636a5.5 5.5 0 0 1 1.565-.208c.274 0 .56.012.833.049.286.036.547.086.808.134.248.062.484.123.708.196q.334.11.522.22c.174.098.298.196.372.306q.112.147.112.404v.575c0 .257-.1.392-.286.392-.099 0-.26-.05-.472-.147q-1.062-.477-2.386-.478c-.708 0-1.267.11-1.652.343s-.584.587-.584 1.09c0 .342.124.635.373.868s.708.465 1.367.673l1.764.55c.895.282 1.54.673 1.926 1.175s.571 1.077.571 1.713a3.1 3.1 0 0 1-.323 1.42 3.3 3.3 0 0 1-.907 1.076c-.385.306-.845.526-1.379.685a6 6 0 0 1-1.777.257M33.774 22.176c-4.087 2.972-10.026 4.55-15.133 4.55-7.156 0-13.605-2.605-18.476-6.936-.385-.343-.037-.808.423-.539 5.268 3.01 11.766 4.833 18.488 4.833 4.535 0 9.517-.93 14.102-2.838.683-.306 1.267.44.596.93"/><path d="M35.474 20.266c-.522-.661-3.454-.318-4.783-.16-.398.05-.46-.293-.1-.55 2.336-1.615 6.176-1.15 6.623-.612.447.55-.125 4.331-2.311 6.142-.336.282-.659.135-.51-.232.497-1.211 1.603-3.94 1.081-4.588M10.529 12.717c0 .452.05.82.137 1.088.1.27.223.563.397.882a.53.53 0 0 1 .087.28c0 .123-.074.245-.236.368l-.783.514a.6.6 0 0 1-.323.11c-.124 0-.248-.061-.372-.171a4 4 0 0 1-.448-.576 9 9 0 0 1-.385-.721Q7.15 16.179 4.95 16.179c-1.044 0-1.876-.293-2.485-.881-.608-.587-.92-1.37-.92-2.35 0-1.039.374-1.883 1.132-2.52.757-.636 1.764-.954 3.044-.954.422 0 .857.037 1.317.098s.931.16 1.429.269v-.893c0-.93-.2-1.578-.585-1.958-.397-.38-1.068-.563-2.024-.563-.436 0-.883.05-1.342.16s-.908.244-1.342.415a4 4 0 0 1-.435.16.8.8 0 0 1-.2.036c-.173 0-.26-.122-.26-.38V6.22c0-.196.025-.342.087-.428s.174-.171.348-.257q.653-.33 1.565-.55a7.7 7.7 0 0 1 1.938-.233c1.48 0 2.56.33 3.256.991.683.66 1.03 1.664 1.03 3.01v3.964zm-5.044 1.86c.41 0 .832-.074 1.28-.22a2.8 2.8 0 0 0 1.18-.784c.198-.233.348-.49.422-.783s.124-.649.124-1.064v-.514q-.566-.136-1.143-.208a10 10 0 0 0-1.168-.074c-.832 0-1.441.16-1.851.49s-.609.795-.609 1.406c0 .576.15 1.004.46 1.297.298.306.733.453 1.305.453m9.976 1.32c-.223 0-.372-.036-.472-.122-.1-.073-.186-.244-.26-.477l-2.92-9.457c-.075-.245-.112-.404-.112-.49 0-.196.1-.306.298-.306h1.218c.236 0 .397.037.484.122.1.074.174.245.249.478l2.087 8.1 1.938-8.1c.062-.245.137-.404.237-.478s.273-.122.496-.122h.994c.237 0 .398.037.497.122.1.074.187.245.237.478l1.962 8.197 2.15-8.197c.075-.245.162-.404.25-.478.098-.073.26-.122.484-.122h1.155c.2 0 .31.098.31.306 0 .061-.012.122-.024.196a1.7 1.7 0 0 1-.087.306l-2.994 9.458q-.112.367-.262.477c-.1.073-.26.122-.472.122h-1.068c-.236 0-.398-.037-.497-.122-.1-.086-.187-.245-.236-.49l-1.926-7.892-1.914 7.88c-.062.245-.137.404-.236.49-.1.085-.273.122-.497.122zm15.966.33a8.3 8.3 0 0 1-1.913-.22c-.621-.146-1.106-.305-1.429-.489-.199-.11-.335-.232-.385-.342a.9.9 0 0 1-.075-.343v-.624c0-.257.1-.38.286-.38a.7.7 0 0 1 .224.038c.074.024.186.073.31.122.423.184.883.33 1.367.428.497.098.982.147 1.479.147.783 0 1.391-.135 1.814-.404.422-.269.646-.66.646-1.162 0-.343-.112-.624-.336-.857-.223-.232-.646-.44-1.255-.636l-1.801-.55c-.907-.282-1.578-.698-1.988-1.248-.41-.539-.621-1.138-.621-1.775q0-.77.335-1.358c.223-.394.528-.737.895-1.003.372-.281.795-.49 1.292-.636a5.5 5.5 0 0 1 1.565-.208c.274 0 .56.012.833.049.286.036.547.086.808.134.248.062.484.123.708.196q.334.11.522.22c.174.098.298.196.372.306q.112.147.112.404v.575c0 .257-.1.392-.286.392-.099 0-.26-.05-.472-.147q-1.062-.477-2.386-.478c-.708 0-1.267.11-1.652.343s-.584.587-.584 1.09c0 .342.124.635.373.868s.708.465 1.367.673l1.764.55c.895.282 1.54.673 1.926 1.175s.572 1.077.572 1.713a3.1 3.1 0 0 1-.324 1.42 3.3 3.3 0 0 1-.907 1.076c-.385.306-.845.526-1.379.685a6 6 0 0 1-1.777.257"/><path d="M33.775 22.176c-4.088 2.972-10.027 4.55-15.133 4.55-7.157 0-13.606-2.605-18.476-6.936-.385-.343-.037-.808.423-.539 5.268 3.01 11.766 4.833 18.488 4.833 4.535 0 9.517-.93 14.101-2.838.684-.306 1.268.44.597.93"/><path d="M35.474 20.266c-.522-.661-3.454-.318-4.783-.16-.398.05-.46-.293-.1-.55 2.336-1.615 6.176-1.15 6.623-.612.447.55-.125 4.331-2.311 6.142-.336.282-.659.135-.51-.232.497-1.211 1.603-3.94 1.081-4.588"/></g><defs><clipPath id="a"><path fill="#fff" d="M0 0h37.355v31.453H0z"/></clipPath></defs></svg>