<svg width="150" height="70" viewBox="0 0 150 70" fill="none" xmlns="http://www.w3.org/2000/svg">
<path d="M28.5796 27.553H30.7095C32.656 27.553 33.5139 28.1681 33.5139 29.4175C33.5139 30.5034 32.656 31.2406 30.9342 31.2406H28.5796V27.553ZM26 39.8387H31.22C33.9633 39.8387 36.7066 38.8587 36.7066 35.7041C36.7066 33.8396 35.3994 32.4081 33.5776 32.201V32.1579C35.0681 31.7114 36.0961 30.6259 36.0961 28.9873C36.0961 26.3453 33.8412 25.3428 31.6503 25.3428H26V39.8387ZM28.5796 33.4508H31.0564C33.1444 33.4508 34.1306 33.9839 34.1306 35.5003C34.1306 37.4018 32.2837 37.6285 30.9535 37.6285H28.5796V33.4508Z" fill="#010101"/>
<path d="M39.623 39.8379V25" stroke="#010101" stroke-width="2.44996" stroke-miterlimit="10"/>
<path d="M44.9497 34.9252C44.9497 33.3896 46.0355 31.9781 47.8377 31.9781C49.6399 31.9781 50.7224 33.3899 50.7224 34.9252C50.7224 36.4606 49.6399 37.8727 47.8377 37.8727C46.0352 37.8727 44.9497 36.4609 44.9497 34.9252ZM42.4922 34.9252C42.4922 38.0171 44.866 40.0829 47.8377 40.0829C50.8057 40.0829 53.1832 38.0174 53.1832 34.9252C53.1832 31.8331 50.806 29.7646 47.8377 29.7646C44.866 29.7643 42.4922 31.8334 42.4922 34.9252Z" fill="#010101"/>
<path d="M56.7485 34.9252C56.7485 33.3896 57.8343 31.9781 59.6365 31.9781C61.4387 31.9781 62.5212 33.3899 62.5212 34.9252C62.5212 36.4606 61.4387 37.8727 59.6365 37.8727C57.8343 37.8727 56.7485 36.4609 56.7485 34.9252ZM54.291 34.9252C54.291 38.0171 56.6652 40.0829 59.6365 40.0829C62.6045 40.0829 64.982 38.0174 64.982 34.9252C64.982 31.8331 62.6049 29.7646 59.6365 29.7646C56.6649 29.7643 54.291 31.8334 54.291 34.9252Z" fill="#010101"/>
<path d="M66.4785 30.01H68.8138V31.5472H68.8524C69.2829 30.6254 70.224 29.7627 71.8622 29.7627C73.3786 29.7627 74.4259 30.3553 74.9364 31.5858C75.6528 30.3393 76.6968 29.7627 78.1681 29.7627C80.7892 29.7627 81.7117 31.6289 81.7117 33.9838V39.8386H79.2542V34.2696C79.2542 33.0424 78.888 31.9775 77.4328 31.9775C75.8975 31.9775 75.3222 33.2462 75.3222 34.5137V39.8382H72.868V33.9835C72.868 32.7722 72.3764 31.9775 71.188 31.9775C69.572 31.9775 68.936 33.1613 68.936 34.4735V39.8382H66.4785V30.01Z" fill="#010101"/>
<path d="M91.8533 34.9246C91.8533 36.4619 90.7708 37.8721 88.9653 37.8721C87.1628 37.8721 86.0773 36.4619 86.0773 34.9246C86.0773 33.389 87.1628 31.9739 88.9653 31.9739C90.7708 31.9739 91.8533 33.389 91.8533 34.9246ZM83.7034 39.8379H86.0388V38.3647H86.0773C86.7966 39.5485 88.085 40.0819 89.4595 40.0819C92.4857 40.0819 94.3105 37.8299 94.3105 34.9243C94.3105 32.017 92.3639 29.7637 89.5595 29.7637C87.7184 29.7637 86.7326 30.6215 86.2217 31.2608H86.1606V25H83.7031L83.7034 39.8379Z" fill="#010101"/>
<path d="M97.8813 33.9423C98.0646 32.5272 98.9671 31.607 100.419 31.607C101.955 31.607 102.896 32.5083 102.918 33.9423H97.8813ZM105.376 35.7847V35.1101C105.376 31.689 103.513 29.7646 100.769 29.7646C97.7947 29.7646 95.4238 31.8334 95.4238 34.9252C95.4238 38.0171 97.7947 40.0829 100.769 40.0829C102.321 40.0829 103.779 39.5305 104.923 38.12L103.162 36.7918C102.549 37.5454 101.749 38.12 100.522 38.12C99.1504 38.12 98.0417 37.2383 97.8813 35.7847H105.376Z" fill="#010101"/>
<path d="M106.973 30.01H109.43V31.5665H109.472C110.005 30.4405 111.088 29.7627 112.379 29.7627C112.688 29.7627 112.973 29.8254 113.259 29.9087V32.2829C112.851 32.1816 112.46 32.0996 112.071 32.0996C109.758 32.0996 109.43 34.0462 109.43 34.5796V39.8386H106.973L106.973 30.01Z" fill="#010101"/>
<path d="M118.757 31.9775C120.537 31.9775 121.664 33.1613 121.664 34.8651C121.664 36.5004 120.559 37.7499 118.738 37.7499C117.08 37.7499 115.85 36.4602 115.85 34.9037C115.85 33.1613 117.035 31.9775 118.757 31.9775ZM121.664 30.01V31.4845H121.626C120.906 30.2958 119.615 29.7627 118.243 29.7627C115.214 29.7627 113.393 32.016 113.393 34.9249C113.393 37.7068 115.339 39.9604 118.285 39.9604C119.516 39.9604 120.784 39.4913 121.504 38.5293H121.539V39.2473C121.539 41.1906 120.807 42.5433 118.43 42.5433C117.058 42.5433 116.033 42.0291 115.05 41.1233L113.579 43.1339C114.966 44.3674 116.627 44.7532 118.452 44.7532C122.281 44.7532 124 42.4982 124 38.9579V30.01H121.664Z" fill="#010101"/>
</svg>
