<svg xmlns="http://www.w3.org/2000/svg" xmlns:xlink="http://www.w3.org/1999/xlink" id="Ebene_1" x="0" y="0" version="1.1" viewBox="0 0 1023.7 227" style="enable-background:new 0 0 1023.7 227" xml:space="preserve"><style type="text/css">.st0{fill:none;stroke:#000;stroke-width:4.2515;stroke-linejoin:round;stroke-miterlimit:10}</style><g><path d="M345,94.7c6.9-4.4,11.4-12.6,11.4-21.7c0-17.4-12-27.8-32.1-27.8h-32.6v105.6h35.5c21.1,0,34.2-11.5,34.2-29.9 C361.4,108.8,354.9,98.7,345,94.7z M327.4,138.3h-22.7v-36.4h25.3c11.5,0,18.7,6.9,18.7,18C348.6,132.1,341.5,138.3,327.4,138.3z M327.4,90.2h-22.7V57.3h19.8c9,0,19.8,2.8,19.8,16.3C344.1,81.3,339.7,90.2,327.4,90.2z"/><path d="M411.6,74.1c-20.9,0-36.6,16.7-36.6,38.8c0,22.3,15.7,39.1,36.6,39.1c20.9,0,36.7-16.8,36.7-39.1 C448.4,90.8,432.6,74.1,411.6,74.1z M411.6,140.6c-13.9,0-23.6-11.4-23.6-27.6c0-16.4,9.5-27.3,23.6-27.3c14,0,23.8,11.2,23.8,27.3 C435.4,129.2,425.6,140.6,411.6,140.6z"/><rect width="13.1" height="17.9" x="464.9" y="45.2"/><rect width="12.5" height="75.6" x="465.2" y="75.3"/><path d="M524.9,139.5c-2.4,0.5-4.3,0.7-5.7,0.7c-5.5,0-6.4-2.7-6.4-8.8V45.2h-12.7V134c0,7.7,1.5,18,14.9,18 c2.9,0,6.7-0.5,10.6-1.4l1.2-0.3l-0.2-11.2L524.9,139.5z"/><rect width="12.5" height="75.6" x="541" y="75.3"/><rect width="13.1" height="17.9" x="540.7" y="45.2"/><path d="M610.3,74.1c-8.7,0-16.2,3.6-21.2,9.9v-8.7h-12.5v75.6H589v-44.5c0-12.9,6.8-20.4,18.7-20.4c10.7,0,16.6,7,16.6,19.6v45.2 h12.5l0-47.5C636.6,85,626.6,74.1,610.3,74.1z"/><path d="M712.7,70.8l-10.2,9c-5-3.7-11.4-5.7-18.2-5.7c-16.5,0-29,11.4-29,26.5c0,6.1,2,11.7,5.7,16.3c-4.9,3.8-7.2,8.4-7.2,14.2 c0,6.5,2.7,11.1,8.4,14.2l-9.8,9l-0.1,0.5c-0.2,1.1-0.2,2.1-0.2,3.5c0,15.1,12.4,23.8,34.1,23.8c20.5,0,31.8-7.6,31.8-21.4 c0-16.8-16.4-19.3-30.9-21.5l-2.3-0.3c-12.6-1.9-19.7-3.2-19.7-9.2c0-2.6,1.2-4.4,4.1-5.9c4.5,2.3,9.8,3.5,15.3,3.5 c16.6,0,28.7-10.9,28.7-26c0-4.8-1.2-9.2-3.4-13.4l9.8-8.5L712.7,70.8z M686.7,171.6c-13.2,0-21.9-4.8-22.7-12.4 c0-0.4,0-0.8-0.1-1.2c0-0.2,0-0.3,0-0.4l7.5-9c3.2,0.7,6.6,1.2,9.9,1.6l1.8,0.3c14.6,2,22.8,3.5,22.8,10.9 C705.9,170.9,691.2,171.6,686.7,171.6z M684.6,116.3c-9.9,0-16.3-6.1-16.3-15.6c0-9.6,6.6-16,16.3-16c9.8,0,16.2,6.3,16.2,16 C700.8,110.2,694.4,116.3,684.6,116.3z"/><path d="M766.1,45.2h-29.2v105.6h29c34.3,0,54-19,54-52.1C819.9,64.3,800.8,45.2,766.1,45.2z M749.9,57.5h16c28,0,41,13,41,40.9 c0,26.7-14.1,40.3-41.9,40.3h-15.2V57.5z"/><path d="M865.1,74.1c-12.6,0-21.7,4.8-29.6,15.6l-0.9,1.2l9.9,7.1l0.9-1.3c5.1-7.7,11.3-11.2,19.7-11.2c13,0,18.4,5.9,18.6,20.5 h-19.3c-21.2,0-32,7.5-32,22.2c0,14.5,10.5,23.8,26.6,23.8c10.2,0,19.1-4.5,25-12.4l0.5,11.2h11V105 C895.4,85.7,884.1,74.1,865.1,74.1z M860.8,140.7c-9.8,0-15.6-4.6-15.6-12.2c0-10.2,10.7-12.3,19.6-12.3h18.9v5.7 C880.2,133.9,871.8,140.7,860.8,140.7z"/><path d="M949.3,138.7c-1.9,0.8-4.9,1.7-7.9,1.7c-7.2,0-10.2-3.9-10.2-12.9v-41h20.2V75.3h-20.2V45.7l-12.5,9.4v20.2h-12.2v11.2h12 V129c0,14.7,7.8,23.1,21.3,23.1c3.9,0,8.2-0.7,10.8-1.7l1-0.4l-0.2-12L949.3,138.7z"/><path d="M993.4,74.1c-12.6,0-21.7,4.8-29.6,15.6l-0.9,1.2l9.9,7.1l0.9-1.3c5.1-7.7,11.3-11.2,19.7-11.2c13,0,18.4,5.9,18.6,20.5 h-19.3c-21.2,0-32,7.5-32,22.2c0,14.5,10.5,23.8,26.6,23.8c10.2,0,19.1-4.5,25-12.4l0.5,11.2h11V105 C1023.7,85.7,1012.4,74.1,993.4,74.1z M989.1,140.7c-9.8,0-15.6-4.6-15.6-12.2c0-10.2,10.7-12.3,19.6-12.3h18.9v5.7 C1008.5,133.9,1000.1,140.7,989.1,140.7z"/></g><path d="M93.1,72.1h20.4c0.5,0,1,0.3,1.3,0.8l26.4,55.3c0.2,0.5,0.7,0.8,1.3,0.8h5.4c0.8,0,1.4,0.6,1.4,1.4v14.1	c0,0.8-0.6,1.4-1.4,1.4h-16.6c-0.5,0-1-0.3-1.3-0.8l-26.4-55.8c-0.2-0.5-0.7-0.8-1.3-0.8h-9.2c-0.8,0-1.4-0.6-1.4-1.4V73.5	C91.7,72.7,92.3,72.1,93.1,72.1z" class="st0"/><path d="M96.5,145.9H80.7c-1,0-1.7-1.1-1.3-2L98,105.7c0.5-1.1,2-1.1,2.5,0l8.2,16.2c0.2,0.4,0.2,0.9,0,1.3l-10.9,22	C97.6,145.6,97.1,145.9,96.5,145.9z" class="st0"/><path d="M220.2,89.7c-4.8-0.4-9.7-0.4-14.5-0.4c-1.5,0-2-0.5-2.6-1.9c-3-7.1-6.1-14.1-9.4-21c-0.8-1.8-0.7-2.7,0.6-4	c3.5-3.5,7-7,10.2-10.7c2.3-2.8,2.3-6.2-0.2-8.7c-7.4-7.5-14.9-15-22.7-22.2c-3.3-3.1-6.4-2.8-9.8,0.4c-3.6,3.4-7.1,6.8-10.5,10.4	c-1.3,1.3-2.2,1.4-4,0.7c-6.7-2.8-13.4-5.4-20.3-7.8c-1.9-0.7-2.4-1.4-2.4-3.2c0-4.8-0.1-9.7-0.3-14.5c-0.1-3.5-3.1-6.6-6.4-6.6	C117.4,0,106.8,0,96.2,0.1c-3.9,0-6.3,2.7-6.5,6.6c-0.2,5.2-0.4,10.5-0.5,15.7c0,1.6-0.5,2.2-2,2.8c-7,2.9-14,5.9-20.9,9	c-1.3,0.6-2.1,0.7-3.2-0.4c-3.9-3.8-7.8-7.5-11.8-11.1c-3.1-2.8-7-2.7-9.9,0.2C34.3,30.2,27.1,37.5,20,45c-2.6,2.8-2.6,6.9,0,9.7	c3.7,3.9,7.6,7.7,11.5,11.5c1.1,1.1,1.2,1.9,0.6,3.4c-2.8,6.5-5.6,13.1-8.1,19.7c-0.6,1.5-1.2,2-2.7,2c-5.1,0-10.2,0.1-15.2,0.4	c-3.1,0.2-5.9,3.1-5.9,6.2c-0.1,10.3-0.2,20.5,0,30.8c0.1,5.1,2.7,7.5,7.8,7.8c4.3,0.2,8.5,0.2,12.8,0.2c1.7,0,2.3,0.6,2.9,2.2	c2.8,7.2,5.7,14.4,8.7,21.5c0.6,1.4,0.6,2.1-0.5,3.1c-3.3,3.3-6.5,6.8-9.9,9.9c-3.6,3.3-4.2,8.1,0,12.2c6.9,6.7,13.5,13.6,20.4,20.4	c3.3,3.3,7.5,3.2,10.9,0c3.4-3.3,6.8-6.6,10.2-10c1.1-1.1,1.8-1.2,3.3-0.5c7.5,3.3,15,6.4,22.6,9.4c1.3,0.5,1.8,1.1,1.8,2.4	c0,4.1,0,8.2,0.1,12.3c0.1,4.5,3.1,7.5,7.6,7.5c10,0.1,20,0.1,30,0c4.4,0,7.3-3.1,7.4-7.5c0.1-4.1,0.1-8.2,0.1-12.3	c0-1.3,0.3-2,1.8-2.4c8.5-2.3,16.5-5.8,24-10.3c1.4-0.8,2.2-0.7,3.3,0.4c3.3,3.3,6.6,6.7,10.1,9.8c4.3,3.8,7.5,3.8,11.6-0.2	c6.7-6.4,13.1-13.1,19.7-19.7c4.2-4.2,4.3-8.4,0.1-12.6c-3.4-3.5-7-6.7-10.3-10.2c-0.6-0.6-1-1.9-0.8-2.6c3.2-8,6.5-16,9.9-24.3	c4.4-0.2,9.3-0.4,14.2-0.6c4.4-0.2,6.9-2.7,6.9-7.2c0-3.9,0.1-7.9,0.1-11.8c0.1-5.8,0.3-11.7,0.3-17.5	C227.5,93.1,224.9,90.1,220.2,89.7z M113.7,174.1c-32.7,0-59.4-26.6-59.4-59.4c0-32.7,26.6-59.4,59.4-59.4s59.4,26.6,59.4,59.4	C173.1,147.5,146.5,174.1,113.7,174.1z"/></svg>