<svg xmlns="http://www.w3.org/2000/svg" width="150" height="70" fill="none" viewBox="0 0 150 70"><path fill="#000" d="M56.7348 33.2688C57.4896 32.7915 57.982 31.9021 57.982 30.915C57.982 29.0275 56.6691 27.8994 54.4701 27.8994H50.9036V39.3541H54.7874C57.0958 39.3541 58.529 38.1067 58.529 36.1108C58.529 34.7983 57.8179 33.7027 56.7348 33.2688ZM54.8093 37.9982H52.3258V34.0498H55.0937C56.3518 34.0498 57.1396 34.7983 57.1396 36.0023C57.1286 37.3257 56.3518 37.9982 54.8093 37.9982ZM54.8093 32.7807H52.3258V29.2119H54.492C55.4766 29.2119 56.6582 29.5157 56.6582 30.98C56.6363 31.8153 56.1549 32.7807 54.8093 32.7807Z"/><path fill="#000" d="M64.021 31.0344C61.7345 31.0344 60.0168 32.8459 60.0168 35.2432C60.0168 37.6621 61.7345 39.4844 64.021 39.4844C66.3075 39.4844 68.0361 37.6621 68.0361 35.2432C68.047 32.8459 66.3185 31.0344 64.021 31.0344ZM64.021 38.2478C62.5003 38.2478 61.4391 37.0113 61.4391 35.254C61.4391 33.4751 62.4784 32.2927 64.021 32.2927C65.5527 32.2927 66.6248 33.5076 66.6248 35.254C66.6248 37.0113 65.5527 38.2478 64.021 38.2478Z"/><path fill="#000" d="M71.2852 27.8994H69.8521V29.8411H71.2852V27.8994Z"/><path fill="#000" d="M71.2528 31.1643H69.8853V39.3648H71.2528V31.1643Z"/><path fill="#000" d="M76.4166 38.1284C76.154 38.1826 75.9461 38.2043 75.793 38.2043C75.1913 38.2043 75.0928 37.9114 75.0928 37.2497V27.8994H73.7034V37.5318C73.7034 38.367 73.8675 39.4843 75.3335 39.4843C75.6507 39.4843 76.0665 39.43 76.4931 39.3324L76.6244 39.2999L76.6026 38.085L76.4166 38.1284Z"/><path fill="#000" d="M79.5455 31.1643H78.178V39.3648H79.5455V31.1643Z"/><path fill="#000" d="M79.5782 27.8994H78.145V29.8411H79.5782V27.8994Z"/><path fill="#000" d="M85.7594 31.0344C84.8076 31.0344 83.9871 31.4249 83.4401 32.1083V31.1646H82.0725V39.3651H83.4291V34.5381C83.4291 33.1388 84.1731 32.3252 85.475 32.3252C86.6456 32.3252 87.291 33.0846 87.291 34.4513V39.3543H88.6586V34.2018C88.6367 32.2168 87.5427 31.0344 85.7594 31.0344Z"/><path fill="#000" d="M96.9624 30.6765L95.8464 31.6528C95.2994 31.2514 94.5992 31.0345 93.8553 31.0345C92.0502 31.0345 90.6826 32.2711 90.6826 33.909C90.6826 34.5707 90.9014 35.1781 91.3062 35.6771C90.7701 36.0893 90.5185 36.5883 90.5185 37.2174C90.5185 37.9225 90.8139 38.4215 91.4375 38.7577L90.3653 39.734L90.3544 39.7882C90.3325 39.9075 90.3325 40.016 90.3325 40.1679C90.3325 41.8058 91.6891 42.7495 94.0632 42.7495C96.3059 42.7495 97.5422 41.9251 97.5422 40.4282C97.5422 38.6059 95.748 38.3347 94.1616 38.096L93.91 38.0635C92.5315 37.8574 91.7548 37.7164 91.7548 37.0655C91.7548 36.7835 91.8861 36.5883 92.2033 36.4256C92.6956 36.675 93.2755 36.8052 93.8772 36.8052C95.6933 36.8052 97.0171 35.6229 97.0171 33.9849C97.0171 33.4643 96.8858 32.987 96.6451 32.5314L97.7172 31.6094L96.9624 30.6765ZM94.1179 41.6105C92.6738 41.6105 91.7219 41.0899 91.6344 40.2655C91.6344 40.2221 91.6344 40.1787 91.6235 40.1353C91.6235 40.1136 91.6235 40.1028 91.6235 40.0919L92.444 39.1157C92.7941 39.1916 93.1661 39.2458 93.5271 39.2892L93.724 39.3218C95.3213 39.5387 96.2184 39.7014 96.2184 40.5041C96.2184 41.5346 94.6102 41.6105 94.1179 41.6105ZM93.8881 35.612C92.805 35.612 92.1049 34.9503 92.1049 33.9198C92.1049 32.8785 92.8269 32.1843 93.8881 32.1843C94.9603 32.1843 95.6605 32.8677 95.6605 33.9198C95.6605 34.9503 94.9603 35.612 93.8881 35.612Z"/><path fill="#000" d="M102.804 27.8994H99.6099V39.3541H102.783C106.535 39.3541 108.69 37.2931 108.69 33.7027C108.69 29.9712 106.601 27.8994 102.804 27.8994ZM101.032 29.2336H102.783C105.846 29.2336 107.268 30.6438 107.268 33.6702C107.268 36.5664 105.726 38.0416 102.684 38.0416H101.021V29.2336H101.032Z"/><path fill="#000" d="M113.635 31.0344C112.257 31.0344 111.261 31.5551 110.397 32.7266L110.299 32.8568L111.382 33.6269L111.48 33.4859C112.038 32.6507 112.716 32.271 113.635 32.271C115.058 32.271 115.648 32.911 115.67 34.4947H113.559C111.239 34.4947 110.058 35.3082 110.058 36.9028C110.058 38.4756 111.207 39.4844 112.968 39.4844C114.084 39.4844 115.058 38.9963 115.703 38.1394L115.758 39.3543H116.961V34.3862C116.95 32.2927 115.714 31.0344 113.635 31.0344ZM113.165 38.2587C112.093 38.2587 111.458 37.7597 111.458 36.9353C111.458 35.8289 112.629 35.6011 113.603 35.6011H115.67V36.2194C115.287 37.5211 114.368 38.2587 113.165 38.2587Z"/><path fill="#000" d="M122.847 38.0418C122.639 38.1286 122.311 38.2262 121.983 38.2262C121.195 38.2262 120.867 37.8032 120.867 36.8269V32.3795H123.077V31.1646H120.867V27.9539L119.5 28.9735V31.1646H118.165V32.3795H119.478V36.9896C119.478 38.5842 120.331 39.4953 121.808 39.4953C122.235 39.4953 122.705 39.4194 122.989 39.3109L123.099 39.2675L123.077 37.9659L122.847 38.0418Z"/><path fill="#000" d="M127.672 31.0344C126.293 31.0344 125.298 31.5551 124.434 32.7266L124.335 32.8568L125.418 33.6269L125.517 33.4859C126.075 32.6507 126.753 32.271 127.672 32.271C129.094 32.271 129.685 32.911 129.707 34.4947H127.595C125.276 34.4947 124.094 35.3082 124.094 36.9028C124.094 38.4756 125.243 39.4844 127.005 39.4844C128.121 39.4844 129.094 38.9963 129.74 38.1394L129.794 39.3543H130.998V34.3862C130.987 32.2927 129.751 31.0344 127.672 31.0344ZM127.202 38.2587C126.129 38.2587 125.495 37.7597 125.495 36.9353C125.495 35.8289 126.665 35.6011 127.639 35.6011H129.707V36.2194C129.324 37.5211 128.405 38.2587 127.202 38.2587Z"/><path fill="#000" d="M29.1761 30.8171H31.4079C31.4626 30.8171 31.5173 30.8497 31.5502 30.9039L34.4384 36.9024C34.4603 36.9567 34.515 36.9892 34.5806 36.9892H35.1714C35.2589 36.9892 35.3246 37.0543 35.3246 37.1411V38.6705C35.3246 38.7573 35.2589 38.8224 35.1714 38.8224H33.3553C33.3006 38.8224 33.2459 38.7899 33.2131 38.7356L30.3248 32.6829C30.303 32.6286 30.2483 32.5961 30.1826 32.5961H29.1761C29.0886 32.5961 29.0229 32.531 29.0229 32.4442V30.969C29.0229 30.8822 29.0886 30.8171 29.1761 30.8171Z"/><path fill="#000" d="M29.5481 38.8224H27.8195C27.7101 38.8224 27.6336 38.7031 27.6773 38.6055L29.7122 34.4618C29.7669 34.3425 29.931 34.3425 29.9857 34.4618L30.8828 36.2191C30.9047 36.2624 30.9047 36.3167 30.8828 36.3601L29.6903 38.7465C29.6685 38.7899 29.6138 38.8224 29.5481 38.8224Z"/><path fill="#000" d="M43.0814 32.7263C42.5562 32.6829 42.0201 32.6829 41.495 32.6829C41.3309 32.6829 41.2762 32.6286 41.2106 32.4768C40.8824 31.7066 40.5432 30.9473 40.1822 30.1989C40.0946 30.0036 40.1056 29.906 40.2478 29.765C40.6307 29.3853 41.0136 29.0057 41.3637 28.6043C41.6154 28.3006 41.6154 27.9318 41.3418 27.6606C40.5323 26.8471 39.7117 26.0335 38.8584 25.2525C38.4974 24.9162 38.1582 24.9488 37.7862 25.2959C37.3924 25.6647 37.0095 26.0335 36.6375 26.424C36.4953 26.565 36.3968 26.5759 36.1999 26.4999C35.4669 26.1962 34.7339 25.9142 33.979 25.6539C33.7711 25.5779 33.7164 25.502 33.7164 25.3067C33.7164 24.7861 33.7055 24.2546 33.6836 23.7339C33.6727 23.3542 33.3445 23.018 32.9834 23.018C31.8347 22.9963 30.675 22.9963 29.5153 23.0071C29.0887 23.0071 28.8261 23.3 28.8042 23.723C28.7823 24.2871 28.7605 24.862 28.7495 25.4261C28.7495 25.5996 28.6948 25.6647 28.5307 25.7298C27.7649 26.0444 26.9991 26.3698 26.2442 26.706C26.102 26.7711 26.0144 26.782 25.8941 26.6626C25.4674 26.2505 25.0408 25.8491 24.6031 25.4586C24.264 25.1549 23.8373 25.1657 23.52 25.4803C22.7433 26.2721 21.9556 27.064 21.1788 27.8775C20.8944 28.1813 20.8944 28.626 21.1788 28.9297C21.5836 29.3528 22.0103 29.765 22.437 30.1772C22.5573 30.2965 22.5682 30.3833 22.5026 30.546C22.1963 31.251 21.8899 31.967 21.6164 32.6829C21.5508 32.8456 21.4851 32.8998 21.321 32.8998C20.7631 32.8998 20.2051 32.9107 19.6581 32.9432C19.319 32.9649 19.0126 33.2795 19.0126 33.6157C19.0017 34.733 18.9908 35.8394 19.0126 36.9567C19.0236 37.5099 19.308 37.7702 19.866 37.8028C20.3364 37.8245 20.7959 37.8245 21.2663 37.8245C21.4523 37.8245 21.518 37.8896 21.5836 38.0631C21.8899 38.8441 22.2072 39.6251 22.5354 40.3953C22.6011 40.5471 22.6011 40.6231 22.4807 40.7315C22.1197 41.0895 21.7696 41.4691 21.3976 41.8054C21.0038 42.1634 20.9381 42.684 21.3976 43.1288C22.1525 43.8555 22.8746 44.604 23.6295 45.3416C23.9905 45.6996 24.45 45.6887 24.8219 45.3416C25.1939 44.9837 25.5659 44.6257 25.9379 44.2569C26.0582 44.1376 26.1348 44.1267 26.2989 44.2027C27.1194 44.5606 27.9399 44.8969 28.7714 45.2223C28.9136 45.2765 28.9683 45.3416 28.9683 45.4826C28.9683 45.9274 28.9683 46.3721 28.9793 46.8168C28.9902 47.305 29.3184 47.6304 29.8107 47.6304C30.9048 47.6412 31.9988 47.6412 33.0928 47.6304C33.5742 47.6304 33.8915 47.2941 33.9024 46.8168C33.9134 46.3721 33.9134 45.9274 33.9134 45.4826C33.9134 45.3416 33.9462 45.2657 34.1103 45.2223C35.0402 44.9728 35.9154 44.5932 36.736 44.105C36.8891 44.0183 36.9767 44.0291 37.097 44.1484C37.458 44.5064 37.8191 44.8752 38.202 45.2115C38.6724 45.6236 39.0225 45.6236 39.471 45.1898C40.204 44.4955 40.9042 43.7688 41.6263 43.0528C42.0858 42.5973 42.0967 42.1417 41.6372 41.6861C41.2653 41.3064 40.8714 40.9593 40.5104 40.5797C40.4447 40.5146 40.401 40.3736 40.4229 40.2976C40.7729 39.4299 41.134 38.5621 41.5059 37.6618C41.9873 37.6401 42.5234 37.6184 43.0595 37.5967C43.5408 37.575 43.8144 37.3038 43.8144 36.8157C43.8144 36.3926 43.8253 35.9587 43.8253 35.5357C43.8362 34.9066 43.8581 34.2666 43.8581 33.6374C43.88 33.0951 43.5956 32.7697 43.0814 32.7263ZM31.4299 41.8813C27.8524 41.8813 24.9314 38.996 24.9314 35.4381C24.9314 31.891 27.8415 28.9948 31.4299 28.9948C35.0183 28.9948 37.9285 31.8802 37.9285 35.4381C37.9285 38.996 35.0183 41.8813 31.4299 41.8813Z"/></svg>