<svg width="150" height="61" viewBox="0 0 150 61" fill="none" xmlns="http://www.w3.org/2000/svg">
<path d="M122.771 24.2424L116.729 22.8398L115.65 22.4083L87.9226 22.624V36.0024L122.771 36.1103V24.2424Z" fill="white"/>
<path d="M111.443 34.8155C111.616 34.356 111.678 33.8617 111.621 33.3737C111.565 32.8857 111.393 32.4183 111.119 32.0104C110.838 31.6734 110.493 31.3951 110.105 31.1914C109.716 30.9878 109.291 30.8628 108.854 30.8236L90.0807 30.6078C89.9728 30.6078 89.8649 30.5 89.757 30.5C89.7319 30.4811 89.7115 30.4567 89.6975 30.4286C89.6834 30.4005 89.6761 30.3695 89.6761 30.3381C89.6761 30.3067 89.6834 30.2757 89.6975 30.2477C89.7115 30.2196 89.7319 30.1951 89.757 30.1763C89.8649 29.9605 89.9728 29.8526 90.1886 29.8526L109.069 29.6368C110.268 29.5038 111.41 29.0539 112.377 28.3333C113.344 27.6127 114.101 26.6476 114.572 25.537L115.651 22.7319C115.651 22.624 115.758 22.5161 115.651 22.4082C115.064 19.7956 113.641 17.4458 111.597 15.716C109.553 13.9862 107 12.971 104.326 12.8245C101.653 12.678 99.0043 13.4082 96.7836 14.9044C94.5628 16.4005 92.8912 18.5806 92.0227 21.1136C90.8952 20.3083 89.52 19.9263 88.1387 20.0347C86.8711 20.176 85.6892 20.7443 84.7873 21.6462C83.8854 22.5481 83.3171 23.73 83.1758 24.9976C83.1039 25.6464 83.1404 26.3027 83.2837 26.9396C81.2326 26.9963 79.2846 27.851 77.854 29.3219C76.4235 30.7927 75.6232 32.7637 75.6235 34.8155C75.6058 35.2142 75.6421 35.6134 75.7314 36.0023C75.7363 36.0866 75.772 36.166 75.8317 36.2257C75.8914 36.2854 75.9708 36.321 76.0551 36.326H110.688C110.903 36.326 111.119 36.2181 111.119 36.0023L111.443 34.8155Z" fill="black"/>
<path d="M117.377 22.7319H116.837C116.729 22.7319 116.622 22.8398 116.514 22.9477L115.758 25.537C115.585 25.9965 115.524 26.4909 115.58 26.9788C115.636 27.4668 115.808 27.9342 116.082 28.3421C116.363 28.6792 116.708 28.9575 117.097 29.1611C117.486 29.3648 117.911 29.4897 118.348 29.5289L122.34 29.7447C122.448 29.7447 122.556 29.8526 122.663 29.8526C122.689 29.8714 122.709 29.8959 122.723 29.924C122.737 29.952 122.744 29.983 122.744 30.0144C122.744 30.0458 122.737 30.0768 122.723 30.1049C122.709 30.133 122.689 30.1574 122.663 30.1763C122.556 30.392 122.448 30.4999 122.232 30.4999L118.132 30.7157C116.933 30.8487 115.792 31.2987 114.825 32.0192C113.858 32.7398 113.1 33.705 112.63 34.8155L112.414 35.7865C112.306 35.8944 112.414 36.1102 112.63 36.1102H126.871C126.915 36.1165 126.96 36.1124 127.002 36.0984C127.044 36.0843 127.082 36.0607 127.114 36.0293C127.145 35.9979 127.169 35.9596 127.183 35.9174C127.197 35.8753 127.201 35.8305 127.195 35.7865C127.452 34.8724 127.597 33.9305 127.626 32.9814C127.609 30.2683 126.524 27.6712 124.605 25.7528C122.687 23.8343 120.09 22.749 117.377 22.7319Z" fill="black"/>
<path d="M129.029 42.152C128.837 42.152 128.649 42.095 128.49 41.9884C128.33 41.8817 128.205 41.73 128.132 41.5526C128.058 41.3751 128.039 41.1799 128.077 40.9916C128.114 40.8032 128.207 40.6302 128.342 40.4944C128.478 40.3586 128.651 40.2661 128.84 40.2286C129.028 40.1912 129.223 40.2104 129.401 40.2839C129.578 40.3574 129.73 40.4818 129.836 40.6415C129.943 40.8012 130 40.9889 130 41.181C130.001 41.3087 129.976 41.4352 129.927 41.5532C129.879 41.6713 129.807 41.7785 129.717 41.8688C129.627 41.9591 129.519 42.0306 129.401 42.0792C129.283 42.1278 129.157 42.1525 129.029 42.152ZM129.029 40.4258C128.88 40.4258 128.734 40.4701 128.609 40.553C128.485 40.636 128.388 40.754 128.331 40.892C128.274 41.03 128.259 41.1818 128.288 41.3283C128.317 41.4748 128.389 41.6094 128.495 41.715C128.601 41.8206 128.735 41.8926 128.882 41.9217C129.028 41.9508 129.18 41.9359 129.318 41.8787C129.456 41.8216 129.574 41.7248 129.657 41.6006C129.74 41.4764 129.784 41.3304 129.784 41.181C129.787 41.0811 129.769 40.9818 129.732 40.8891C129.695 40.7964 129.639 40.7122 129.569 40.6415C129.498 40.5709 129.414 40.5154 129.321 40.4783C129.228 40.4412 129.129 40.4233 129.029 40.4258ZM129.461 41.7204H129.245L129.029 41.3968H128.813V41.7204H128.597V40.7494H129.137C129.181 40.7431 129.226 40.7472 129.268 40.7612C129.31 40.7753 129.348 40.7989 129.38 40.8303C129.411 40.8618 129.435 40.9 129.449 40.9422C129.463 40.9843 129.467 41.0291 129.461 41.0731C129.461 41.181 129.353 41.2889 129.245 41.3968L129.461 41.7204ZM129.137 41.181C129.245 41.181 129.245 41.181 129.245 41.0731C129.245 41.0588 129.243 41.0447 129.237 41.0315C129.232 41.0182 129.224 41.0062 129.214 40.9961C129.204 40.9861 129.192 40.9781 129.179 40.9728C129.165 40.9675 129.151 40.9649 129.137 40.9652H128.813V41.2889H129.137V41.181ZM32.3599 40.21H34.7335V46.6834H38.8333V48.7333H32.3599V40.21ZM41.3147 44.4177C41.3148 43.8184 41.4365 43.2253 41.6724 42.6744C41.9083 42.1235 42.2536 41.6263 42.6873 41.2127C43.1211 40.7991 43.6342 40.4779 44.1957 40.2685C44.7572 40.059 45.3554 39.9657 45.954 39.9942C46.547 39.9675 47.1392 40.0628 47.6939 40.2742C48.2486 40.4857 48.754 40.8087 49.1788 41.2234C49.6036 41.6381 49.9387 42.1355 50.1635 42.685C50.3882 43.2344 50.4978 43.8242 50.4854 44.4177C50.4853 45.017 50.3637 45.61 50.1277 46.1609C49.8918 46.7118 49.5465 47.2091 49.1128 47.6227C48.6791 48.0362 48.1659 48.3574 47.6044 48.5669C47.0429 48.7763 46.4447 48.8696 45.8461 48.8412C45.2554 48.8587 44.6672 48.7571 44.1166 48.5424C43.5659 48.3277 43.0642 48.0043 42.6413 47.5914C42.2184 47.1786 41.883 46.6848 41.6551 46.1395C41.4272 45.5943 41.3114 45.0087 41.3147 44.4177ZM48.1118 44.4177C48.1329 44.1186 48.0932 43.8183 47.995 43.535C47.8968 43.2517 47.7422 42.9913 47.5405 42.7694C47.3389 42.5475 47.0943 42.3689 46.8216 42.2442C46.5489 42.1195 46.2537 42.0515 45.954 42.0441C45.3722 42.0725 44.8237 42.3236 44.422 42.7454C44.0203 43.1672 43.7962 43.7273 43.7962 44.3098C43.7962 44.8923 44.0203 45.4524 44.422 45.8742C44.8237 46.296 45.3722 46.5471 45.954 46.5755C47.2487 46.7913 48.1118 45.7124 48.1118 44.4177ZM53.3984 44.9571V40.21H55.772V44.9571C55.772 46.1439 56.4193 46.7913 57.3903 46.7913C57.6171 46.8101 57.8452 46.7774 58.0576 46.6957C58.2699 46.614 58.4611 46.4853 58.6167 46.3193C58.7724 46.1533 58.8885 45.9542 58.9563 45.737C59.0242 45.5198 59.0421 45.2901 59.0087 45.065V40.21H61.3822V44.9571C61.3822 47.7623 59.7639 48.949 57.3903 48.949C54.9088 48.8412 53.3984 47.6544 53.3984 44.9571ZM64.9426 40.21H68.2872C71.3081 40.21 73.1422 41.9362 73.1422 44.4177C73.1422 46.8991 71.3081 48.7333 68.2872 48.7333H65.0505V40.21H64.9426ZM68.2872 46.5755C68.5878 46.6042 68.8912 46.5697 69.1777 46.4743C69.4643 46.3789 69.7277 46.2247 69.9512 46.0216C70.1747 45.8184 70.3532 45.5708 70.4754 45.2946C70.5976 45.0184 70.6607 44.7197 70.6607 44.4177C70.6607 44.1157 70.5976 43.817 70.4754 43.5408C70.3532 43.2646 70.1747 43.0169 69.9512 42.8138C69.7277 42.6106 69.4643 42.4564 69.1777 42.361C68.8912 42.2656 68.5878 42.2312 68.2872 42.2599H67.3162V46.5755H68.2872ZM76.4868 40.21H83.2838V42.2599H78.8604V43.6625H82.8523V45.6045H78.8604V48.7333H76.4868V40.21ZM86.6284 40.21H89.002V46.6834H93.1018V48.7333H86.6284V40.21ZM99.2515 40.1021H101.625L105.293 48.7333H102.704L102.057 47.2228H98.7121L98.0647 48.7333H95.5833L99.2515 40.1021ZM101.409 45.3887L100.438 43.0151L99.4673 45.3887H101.409ZM108.314 40.21H112.306C112.815 40.1687 113.328 40.2336 113.811 40.4008C114.294 40.5679 114.737 40.8336 115.111 41.181C115.42 41.5143 115.645 41.9171 115.765 42.3554C115.886 42.7937 115.899 43.2546 115.804 43.6991C115.708 44.1436 115.508 44.5586 115.218 44.909C114.929 45.2594 114.559 45.535 114.14 45.7124L116.19 48.7333H113.493L111.767 46.1439H110.688V48.7333H108.314V40.21ZM112.198 44.3098C112.953 44.3098 113.493 43.8782 113.493 43.3388C113.493 42.6914 112.953 42.3678 112.198 42.3678H110.688V44.4177H112.198V44.3098ZM119.211 40.21H126.116V42.152H121.585V43.4467H125.684V45.3887H121.585V46.6834H126.224V48.7333H119.211V40.21ZM27.1812 45.4966C27.0185 45.8779 26.7481 46.2034 26.4032 46.4334C26.0582 46.6633 25.6537 46.7877 25.2392 46.7913C24.6574 46.7629 24.1088 46.5118 23.7071 46.09C23.3054 45.6682 23.0814 45.108 23.0814 44.5256C23.0814 43.9431 23.3054 43.383 23.7071 42.9612C24.1088 42.5394 24.6574 42.2883 25.2392 42.2599C25.6804 42.2684 26.1095 42.4056 26.4737 42.6548C26.8379 42.904 27.1213 43.2543 27.2891 43.6625H29.7705C29.5583 42.629 28.9866 41.7042 28.1569 41.0523C27.3273 40.4005 26.2935 40.0638 25.2392 40.1021C24.6428 40.0827 24.0485 40.1823 23.491 40.395C22.9335 40.6078 22.424 40.9294 21.9921 41.3412C21.5603 41.7529 21.2147 42.2466 20.9757 42.7933C20.7367 43.3401 20.6089 43.9289 20.5999 44.5256C20.5966 45.1166 20.7124 45.7022 20.9403 46.2474C21.1682 46.7927 21.5036 47.2865 21.9265 47.6993C22.3494 48.1122 22.8511 48.4356 23.4017 48.6503C23.9523 48.865 24.5406 48.9666 25.1313 48.949C26.1621 48.956 27.1662 48.6209 27.9862 47.9961C28.8061 47.3714 29.3958 46.4923 29.6627 45.4966H27.1812Z" fill="#404041"/>
</svg>
