<svg width="150" height="71" viewBox="0 0 150 71" fill="none" xmlns="http://www.w3.org/2000/svg">
<path d="M10.6854 43.1692C10.6854 42.9354 10.6854 42.7015 10.6854 42.3506C10.6854 41.9998 10.6854 41.8829 10.6854 41.532C10.6854 41.1812 10.8024 40.8304 11.0363 40.5965C11.1532 40.3626 11.3871 40.0118 11.621 39.7779H11.7379C11.7379 39.661 11.7379 39.544 11.7379 39.544C11.2702 39.544 10.8024 39.1932 10.5685 38.7254C10.5685 38.4915 10.3346 38.3746 10.1007 38.3746C10.1007 38.3746 9.98379 38.3746 9.86685 38.3746H9.51602C9.28214 38.3746 9.16519 38.2576 9.04825 38.0238C9.04825 38.0238 9.04825 37.9068 9.04825 37.7899C9.04825 37.7899 9.04825 37.556 8.93131 37.556C8.81437 37.556 8.58048 37.556 8.46354 37.3221C8.3466 37.3221 8.22965 37.0882 8.11271 36.9713C8.11271 36.7374 8.11271 36.6205 8.11271 36.3866C8.11271 36.3866 8.11271 36.2696 8.11271 36.1527L8.46354 34.8663L8.69742 33.6969C8.69742 33.3461 9.04825 32.9952 9.39908 32.7613C9.51602 32.7613 9.63296 32.5275 9.74991 32.2936C9.74991 31.9428 9.98379 31.7089 10.3346 31.7089C10.3346 31.7089 10.5685 31.7089 10.6854 31.7089H10.9193C10.9193 31.7089 11.1532 31.7089 11.2702 31.7089C11.621 31.7089 11.8549 31.7089 12.2057 31.358L13.3751 30.5394C13.3751 30.5394 13.3751 30.4225 13.3751 30.3056V29.487C13.3751 29.37 13.3751 29.1361 13.3751 29.0192C13.4921 28.5514 13.8429 28.3175 14.3107 28.2006C14.6615 28.2006 14.8954 27.9667 15.2462 27.7328C15.2462 27.6159 15.1293 27.382 15.1293 27.2651C15.1293 27.2651 15.1293 27.0312 15.1293 26.9142C15.1293 26.7973 15.2462 26.5634 15.3631 26.4465C15.3631 26.3295 15.597 26.4465 15.597 26.4465C15.8309 26.6803 16.0648 26.9142 16.0648 27.2651L17.2342 27.0312C17.5851 27.0312 17.8189 27.0312 18.1698 26.9142C19.1053 26.9142 19.9239 26.9142 20.8594 27.2651C21.0933 27.2651 21.3272 27.4989 21.5611 27.6159C21.795 27.6159 21.9119 27.8498 22.0289 27.9667C22.0289 27.9667 22.2628 28.2006 22.3797 28.3175L22.9644 29.0192L24.1338 30.4225C24.3677 30.6564 24.4847 30.8903 24.7186 31.1242L25.6541 32.6444C26.0049 33.1122 26.2388 33.6969 26.4727 34.2816L27.2913 36.1527C27.2913 36.1527 27.2913 36.3866 27.5252 36.3866C28.3438 37.0882 29.1624 37.7899 29.864 38.6085C30.5657 35.3341 29.864 31.9428 28.1099 29.2531C26.5896 27.0312 24.2508 25.277 21.678 24.4584C17.0003 23.0551 11.8549 24.4584 8.69742 28.3175C8.46354 28.6684 8.22965 28.9022 7.99577 29.2531C6.12469 31.9428 5.53998 35.3341 6.24163 38.4915C6.94329 41.649 8.81437 44.4556 11.621 46.2097C11.3871 45.742 11.1532 45.2742 11.0363 44.8064C10.8024 44.3387 10.6854 43.754 10.5685 43.1692H10.6854Z" fill="black"/>
<path d="M11.2705 33.6969C11.2705 33.6969 11.5044 35.1002 13.7263 34.2816C13.6094 34.1646 13.4924 33.9307 13.4924 33.8138C13.1416 34.1646 12.5569 34.2816 12.0891 34.2816C11.7383 34.2816 11.5044 34.0477 11.2705 33.8138V33.6969ZM12.4399 33.6969C12.5569 33.463 12.6738 33.2291 12.4399 32.9952C12.4399 32.7613 12.0891 32.7613 11.9722 32.8783C11.8552 32.8783 11.7383 32.9952 11.7383 33.2291H12.0891C12.0891 33.346 12.0891 33.5799 12.206 33.6969H11.9722C11.9722 33.8138 12.206 33.9307 12.323 33.6969H12.4399ZM14.1941 31.8258C13.8432 32.0597 13.4924 32.0597 13.0246 31.9427C12.7908 31.9427 12.5569 31.9427 12.323 31.9427C12.7908 31.9427 13.1416 32.1766 13.3755 32.5274L14.428 31.7088H14.311L14.1941 31.8258Z" fill="black"/>
<path d="M27.6422 36.2696C27.6422 36.2696 27.5253 36.1527 27.4083 36.0357L26.5897 34.1646C26.3558 33.5799 26.1219 33.1122 25.7711 32.5275L24.8356 31.0072C24.7186 30.7733 24.4848 30.5394 24.2509 30.3055L23.0814 28.9022L22.4967 28.2006C22.4967 28.0836 22.2628 27.9667 22.1459 27.8497C22.029 27.7328 21.7951 27.6159 21.6781 27.4989C21.4442 27.382 21.2104 27.265 20.9765 27.1481C20.1579 26.9142 19.2223 26.7973 18.2868 26.7973C17.936 26.7973 17.7021 26.7973 17.3513 26.9142L16.1818 27.1481C16.1818 26.7973 15.9479 26.5634 15.7141 26.3295L15.4802 26.0956C15.4802 26.4464 15.2463 26.5634 15.2463 26.6803C15.2463 26.6803 15.2463 26.9142 15.2463 27.0312C15.2463 27.1481 15.2463 27.382 15.3632 27.4989C15.1293 27.7328 14.7785 27.9667 14.4277 27.9667C13.9599 27.9667 13.6091 28.3175 13.4922 28.7853C13.4922 28.9022 13.4922 29.1361 13.4922 29.2531V30.0717C13.4922 30.0717 13.4922 30.1886 13.4922 30.3055L12.3227 31.1241C12.0888 31.358 11.738 31.358 11.3872 31.475C11.3872 31.475 11.1533 31.475 11.0364 31.475H10.8025C10.8025 31.475 10.5686 31.475 10.4516 31.475C10.1008 31.475 9.86693 31.8258 9.86693 32.0597C9.86693 32.2936 9.74999 32.4105 9.5161 32.5275C9.16528 32.7613 8.93139 33.1122 8.81445 33.463L8.58057 34.6324L8.22974 35.9188C8.22974 35.9188 8.22974 36.0357 8.22974 36.1527C8.22974 36.3866 8.22974 36.5035 8.22974 36.7374C8.22974 36.7374 8.22974 36.8543 8.34668 36.9713C8.34668 36.9713 8.34668 36.9713 8.46362 37.0882C8.58056 37.0882 8.81445 37.2052 8.93139 37.3221C9.04833 37.3221 9.04834 37.3221 9.04834 37.556C9.04834 37.556 9.04834 37.6729 9.04834 37.7899C9.04834 38.0238 9.28222 38.1407 9.5161 38.1407C9.5161 38.1407 9.74999 38.1407 9.86693 38.1407C9.86693 38.1407 9.98388 38.1407 10.1008 38.1407C10.3347 38.1407 10.4516 38.2576 10.5686 38.4915C10.8025 38.9593 11.2702 39.3101 11.738 39.3101H11.6211C11.3872 39.7779 11.2702 40.0118 11.0364 40.2457C10.9194 40.4795 10.8025 40.8304 10.6855 41.1812C10.6855 41.4151 10.6855 41.649 10.6855 41.9998C10.6855 42.2337 10.6855 42.4676 10.6855 42.8184C10.6855 43.4031 10.9194 43.8709 11.1533 44.4556C11.2702 44.9234 11.5041 45.3911 11.738 45.8589C12.2058 46.0928 12.5566 46.3267 13.0244 46.5606C13.1413 45.9758 13.3752 45.3911 13.4922 44.8064C13.6091 44.4556 13.726 44.2217 13.9599 43.8709C14.3107 43.2862 14.8955 42.9353 15.5971 43.0523C17.1174 43.0523 18.6376 43.5201 20.0409 44.2217C21.0934 44.8064 21.912 45.742 22.2628 46.9114C22.8476 46.6775 23.3153 46.4436 23.7831 46.2097C23.5492 45.2742 23.7831 43.7539 24.9525 43.1692C25.6542 42.8184 26.3558 42.4676 26.9405 42.1167C27.1744 42.1167 27.2914 41.9998 27.5253 41.8829L27.0575 41.649C26.3558 41.2981 25.6542 40.7134 25.0695 40.2457C24.2509 39.544 24.017 38.4915 24.2509 37.556C24.2509 37.3221 24.3678 37.2052 24.4848 36.9713H24.3678C24.6017 36.3866 24.7186 35.6849 24.7186 34.9832C24.7186 34.6324 24.7186 34.3985 24.7186 34.0477C24.7186 33.8138 24.7186 33.5799 24.7186 33.346V32.8783C24.4848 32.8783 24.2509 32.8783 24.1339 32.5275C24.1339 32.9952 24.2509 33.463 24.2509 33.9308C24.2509 34.5155 24.017 35.1002 23.6662 35.6849C23.0814 36.7374 22.1459 37.556 21.0934 38.1407C20.7426 38.3746 20.2748 38.3746 19.807 38.1407L19.3393 37.9068C19.2223 37.9068 19.1054 37.6729 19.2223 37.556C19.2223 37.439 19.3393 37.3221 19.4562 37.3221C19.924 37.3221 20.0409 37.0882 20.2748 36.8543C20.2748 36.5035 20.2748 36.2696 20.1579 35.9188C20.0409 35.9188 19.924 35.9188 19.807 35.9188C19.807 35.9188 19.807 35.9188 19.6901 36.0357C19.4562 36.5035 19.2223 36.9713 18.9885 37.439C18.4037 38.4915 17.1174 38.9593 15.9479 38.6085C15.1293 38.6085 14.3107 38.4915 13.4922 38.6085C12.9074 38.6085 12.4397 38.6085 11.855 38.7254C11.3872 38.7254 11.0364 38.3746 10.9194 37.9068C11.3872 37.6729 13.9599 38.0238 13.9599 38.0238C15.1293 38.2576 16.2988 38.0238 17.2343 37.3221C14.8955 38.3746 12.2058 36.8543 9.74999 37.556C9.74999 37.556 9.5161 37.556 9.5161 37.439C9.5161 37.439 9.51611 37.2052 9.63305 37.2052C11.6211 36.7374 13.843 37.6729 15.831 37.439C16.5327 37.3221 17.2343 36.9713 17.819 36.6204C18.0529 36.5035 18.2868 36.1527 18.1699 35.9188C18.1699 35.6849 18.1699 35.3341 18.1699 35.1002C17.936 34.1646 17.1174 33.5799 16.1818 33.5799C16.1818 33.5799 17.5851 34.3985 17.5851 35.1002C17.936 36.5035 15.4802 36.8543 15.4802 36.8543C14.4277 37.0882 13.2583 36.8543 12.2058 36.6204C11.1533 36.5035 10.2178 36.6204 9.16528 36.8543C9.16528 36.8543 8.58056 37.0882 8.46362 36.5035C8.46362 36.1527 8.46362 35.2171 8.93139 33.9308C8.93139 33.9308 8.93139 33.9308 8.93139 33.8138C9.04833 33.8138 9.28222 33.8138 9.39916 33.8138C9.86693 33.6969 10.2178 33.3461 10.3347 32.8783L9.74999 33.2291C9.51611 33.463 9.16528 33.463 8.93139 33.2291C8.81445 33.1122 8.81445 32.9952 8.93139 32.7613C8.93139 32.7613 8.93139 32.7613 9.04834 32.7613C9.28222 32.7613 9.51611 32.7613 9.63305 32.6444V32.1766C9.63305 31.8258 9.86693 31.7089 10.2178 31.7089C10.4516 31.7089 10.6855 31.7089 11.0364 31.7089C11.3872 31.7089 11.855 31.5919 12.0888 31.358L14.7785 29.37C14.5446 29.37 14.4277 29.37 14.1938 29.37C13.9599 29.37 13.726 29.2531 13.6091 29.0192C13.4922 28.7853 13.6091 28.5514 13.843 28.4345C14.0769 28.4345 14.3107 28.2006 14.5446 28.0836C15.7141 27.0312 17.2343 26.9142 18.7546 27.0312C19.2223 27.0312 19.5732 27.0312 20.0409 27.265C19.6901 27.265 19.3393 27.4989 19.1054 27.7328C19.1054 27.7328 18.9885 27.9667 18.8715 28.0836C18.8715 28.0836 18.8715 28.3175 18.9885 28.4345C18.9885 28.4345 19.1054 28.3175 19.2223 28.2006C19.2223 27.8498 19.5732 27.7328 19.924 27.4989C19.924 27.6159 19.924 27.7328 19.924 27.8497C19.924 27.9667 19.924 28.0836 19.807 28.2006C19.807 28.2006 19.6901 28.2006 19.5732 28.2006C19.5732 28.2006 19.5732 28.0836 19.5732 27.9667C19.5732 27.9667 19.5732 27.8497 19.5732 27.7328C19.3393 27.9667 19.1054 28.3175 18.9885 28.6683H19.1054V29.1361H19.3393C19.3393 29.0192 19.807 28.7853 19.807 28.7853C20.0409 28.7853 20.1579 28.5514 20.1579 28.3175C20.1579 27.9667 20.1579 27.6159 19.924 27.265C19.924 27.265 19.924 27.265 20.0409 27.265C20.5087 27.382 20.9765 27.6159 21.3273 28.0836C21.6781 28.3175 21.912 28.6683 22.1459 29.0192C22.6137 29.8378 23.3153 30.4225 23.9 31.1241C24.8356 32.5275 25.6542 34.0477 26.2389 35.568C26.2389 35.568 26.2389 35.6849 26.2389 35.8018L25.6542 36.0357C26.8236 36.5035 27.6422 37.439 28.4608 38.3746C28.6947 38.6085 28.9286 38.8423 29.0455 39.0762C29.0455 38.8423 29.0455 38.7254 29.1625 38.4915C28.4608 37.6729 27.6422 36.9713 26.8236 36.2696H27.6422ZM16.8835 41.2981C18.2868 41.4151 19.5732 41.2981 20.7426 40.4795C21.2104 40.1287 21.6781 39.7779 22.1459 39.3101C22.1459 39.3101 22.2628 39.3101 22.3798 39.1932C22.9645 39.0762 23.4323 38.7254 23.7831 38.2576C23.7831 38.3746 23.7831 38.6085 23.6662 38.7254C23.6662 38.8424 23.5492 39.0762 23.5492 39.3101C23.5492 40.4795 23.3153 41.532 22.7306 42.4676C22.3798 43.4031 21.6781 43.637 20.7426 43.637C20.0409 43.637 19.3393 43.5201 18.7546 43.2862L15.1293 42.3506C14.6616 42.1167 14.6616 42.1167 14.8955 41.649L15.4802 40.3626C15.7141 41.0643 16.2988 41.1812 16.8835 41.2981ZM11.855 40.2457C12.4397 39.544 12.4397 39.544 13.2583 39.544C13.843 39.544 14.5446 39.544 15.2463 39.544C15.2463 39.6609 15.2463 39.7779 15.1293 39.7779L14.1938 41.8829C14.1938 41.8829 14.1938 41.8829 14.1938 41.9998C14.1938 41.9998 14.1938 41.9998 14.0769 41.9998C13.6091 41.9998 13.1413 41.9998 12.7905 42.2337C12.7905 42.2337 12.9074 42.2337 13.0244 42.2337C13.2583 42.2337 13.3752 42.3506 13.4922 42.4676C13.726 42.7015 13.843 43.0523 13.6091 43.2862C13.2583 44.2217 12.9074 45.2742 12.5566 46.3267V46.4436C12.3227 45.9758 12.0888 45.5081 11.855 45.0403C11.5041 44.2217 11.2702 43.4031 11.1533 42.4676C11.1533 41.649 11.3872 40.8304 11.855 40.2457ZM16.5327 30.6564C16.6496 30.5394 16.8835 30.4225 17.0004 30.3055C17.0004 30.5394 17.1174 30.6564 17.3513 30.7733C17.936 30.7733 17.819 30.1886 17.819 30.1886C17.819 30.1886 18.0529 30.1886 18.1699 30.1886C17.1174 29.6039 16.5327 30.7733 16.5327 30.7733V30.6564Z" fill="black"/>
<path d="M46.236 35.451H43.7802C43.5463 34.7494 42.8447 34.2816 42.0261 34.2816C40.7397 34.2816 39.9211 35.3341 39.9211 36.8543C39.9211 38.3746 40.7397 39.4271 42.143 39.4271C42.9616 39.4271 43.6633 38.9593 43.8972 38.2576H46.353C45.8852 40.0118 44.4819 41.532 42.0261 41.532C39.5703 41.532 37.4653 39.661 37.3484 37.0882C37.3484 37.0882 37.3484 36.8543 37.3484 36.7374C37.3484 34.1647 39.1025 32.0597 42.0261 32.0597C44.0141 32.0597 45.7683 33.3461 46.1191 35.2171L46.236 35.451Z" fill="black"/>
<path d="M53.8374 34.6324C53.4865 34.6324 53.0188 34.6324 52.6679 34.6324C51.1477 34.6324 50.446 35.568 50.446 37.0882V41.4151H47.9902V32.6444H50.446V34.0477C50.9138 33.1122 51.9663 32.4105 53.0188 32.4105C53.2526 32.4105 53.6035 32.4105 53.8374 32.4105V34.7494V34.6324Z" fill="black"/>
<path d="M63.4267 41.2982H60.9709V40.2457C60.3862 41.1812 59.4507 41.649 58.3982 41.649C56.9949 41.649 55.2407 40.7134 55.2407 37.7899V32.5275H57.6965V37.439C57.6965 38.7254 58.2812 39.4271 59.2168 39.4271C60.1523 39.4271 60.9709 38.7254 60.9709 37.2052V32.5275H63.4267V41.2982Z" fill="black"/>
<path d="M65.6484 32.5275H68.1042V33.5799C68.6889 32.6444 69.6245 32.1766 70.677 32.1766C72.665 32.1766 74.0683 33.463 74.0683 36.1527V41.1812H71.6125V36.2696C71.6125 34.9833 71.0278 34.2816 69.9753 34.2816C68.9228 34.2816 68.1042 35.1002 68.1042 36.5035V41.1812H65.6484V32.4105V32.5275Z" fill="black"/>
<path d="M84.5932 35.451H82.1374C81.9035 34.7494 81.2019 34.2816 80.3833 34.2816C79.0969 34.2816 78.2783 35.3341 78.2783 36.8543C78.2783 38.3746 79.0969 39.4271 80.5002 39.4271C81.3188 39.4271 82.0205 38.9593 82.2543 38.2576H84.7101C84.2424 40.0118 82.8391 41.532 80.3833 41.532C77.9275 41.532 75.8225 39.661 75.7056 37.0882C75.7056 37.0882 75.7056 36.8543 75.7056 36.7374C75.7056 34.1647 77.4597 32.0597 80.3833 32.0597C82.3713 32.0597 84.1254 33.3461 84.4763 35.2171L84.5932 35.451Z" fill="black"/>
<path d="M86.3472 28.0836H88.803V33.5799C89.3877 32.6444 90.3232 32.1766 91.3757 32.1766C93.3637 32.1766 94.767 33.463 94.767 36.1527V41.1812H92.3112V36.2696C92.3112 34.9833 91.7265 34.2816 90.674 34.2816C89.6216 34.2816 88.803 34.9833 88.803 36.5035V41.1812H86.3472V27.9667V28.0836Z" fill="black"/>
<path d="M99.5617 45.625H97.2229L98.8601 41.2982L95.7026 32.5275H98.2754L99.5617 36.3866C99.7956 37.0882 100.03 37.7899 100.146 38.4915C100.263 37.7899 100.497 37.0882 100.731 36.2696L102.018 32.4105H104.473L99.6787 45.5081L99.5617 45.625Z" fill="black"/>
<path d="M116.051 41.2982H114.647V40.1287C113.829 41.0643 112.659 41.649 111.373 41.649C109.034 41.649 106.929 39.7779 106.929 36.9713C106.929 34.1647 108.8 32.2936 111.373 32.2936C112.659 32.2936 113.829 32.7614 114.647 33.8138V28.2006H116.051V41.4151V41.2982ZM111.49 40.3626C112.309 40.3626 113.244 40.0118 113.829 39.3101C114.414 38.7254 114.764 37.7899 114.764 36.9713C114.764 34.8663 113.361 33.463 111.607 33.463C109.853 33.463 108.333 35.2171 108.333 36.8543C108.333 38.4915 109.385 40.2457 111.49 40.2457V40.3626ZM127.16 41.2982H125.757V40.1287C124.938 41.0643 123.769 41.649 122.599 41.649C120.261 41.649 118.039 39.7779 118.039 36.9713C118.039 34.5155 119.91 32.4105 122.366 32.2936C122.366 32.2936 122.483 32.2936 122.599 32.2936C123.886 32.2936 124.938 32.8783 125.757 33.8138V32.5275H127.16V41.2982ZM122.716 40.3626C124.471 40.3626 125.991 38.8424 125.874 36.9713C125.874 34.8663 124.471 33.463 122.716 33.463C120.962 33.463 119.442 35.2171 119.442 36.8543C119.442 38.4915 120.495 40.2457 122.599 40.2457L122.716 40.3626ZM128.797 32.5275H129.967V29.7208H131.37V32.5275H133.709V33.6969H131.37V38.3746C131.37 39.7779 131.838 40.2457 132.774 40.2457C133.124 40.2457 133.475 40.2457 133.826 40.1287V41.2982C133.358 41.4151 132.89 41.532 132.423 41.532C130.318 41.532 129.85 40.1287 129.85 38.4915V33.9308H128.681V32.7613L128.797 32.5275ZM144 41.2982H142.597V40.1287C141.778 41.0643 140.609 41.649 139.439 41.649C137.1 41.649 134.878 39.7779 134.878 36.9713C134.878 35.6849 135.346 34.5155 136.165 33.5799C136.983 32.6444 138.27 32.1766 139.439 32.1766C140.726 32.1766 141.778 32.7614 142.597 33.6969V32.4105H144V41.1812V41.2982ZM139.556 40.3626C141.31 40.3626 142.831 38.8424 142.714 36.9713C142.714 34.8663 141.31 33.463 139.556 33.463C137.802 33.463 136.282 35.2171 136.282 36.8543C136.282 38.4915 137.334 40.2457 139.439 40.2457L139.556 40.3626Z" fill="black"/>
</svg>
