<?xml version="1.0" encoding="UTF-8" standalone="no"?>
<svg
   width="150"
   height="70"
   fill="none"
   viewBox="0 0 150 70"
   version="1.1"
   id="svg14"
   sodipodi:docname="huggingface.svg"
   inkscape:version="1.3.2 (091e20e, 2023-11-25)"
   xmlns:inkscape="http://www.inkscape.org/namespaces/inkscape"
   xmlns:sodipodi="http://sodipodi.sourceforge.net/DTD/sodipodi-0.dtd"
   xmlns="http://www.w3.org/2000/svg"
   xmlns:svg="http://www.w3.org/2000/svg">
  <defs
     id="defs14" />
  <sodipodi:namedview
     id="namedview14"
     pagecolor="#ffffff"
     bordercolor="#000000"
     borderopacity="0.25"
     inkscape:showpageshadow="2"
     inkscape:pageopacity="0.0"
     inkscape:pagecheckerboard="0"
     inkscape:deskcolor="#d1d1d1"
     inkscape:zoom="5.0733333"
     inkscape:cx="75"
     inkscape:cy="34.691196"
     inkscape:window-width="1312"
     inkscape:window-height="429"
     inkscape:window-x="276"
     inkscape:window-y="444"
     inkscape:window-maximized="0"
     inkscape:current-layer="svg14" />
  <g
     id="g11"
     style="fill:#000000;fill-opacity:1"
     transform="matrix(0.07728216,0,0,0.07728216,3.4249355,23.138229)">
		<path
   class="st2"
   d="m 558.3,179.6 h -32.7 c -2.9,-9 -11,-14.9 -22.7,-14.9 -17.8,0 -28.5,13.9 -28.5,34.3 0,19.2 10.7,34.6 29.5,34.6 10.4,0.4 19.9,-6.2 23.1,-16.1 h 33.4 c -6.6,23.9 -24.4,44.1 -57,44.1 -34.6,0 -62.4,-24.6 -62.4,-62.9 0,-34.1 23.6,-61.9 62.1,-61.9 33.6,0.2 51.5,23.3 55.2,42.8 z"
   id="path1"
   style="fill:#000000;fill-opacity:1" />

		<path
   class="st2"
   d="m 660.4,169.2 c -5.1,-1 -10.4,-1.5 -15.6,-1.5 -19.5,0 -29.2,12.2 -29.2,33.1 v 56.8 H 582.7 V 140.9 h 32.2 v 18 h 0.7 c 6.3,-11.4 18.5,-21.4 34.1,-21.4 3.6,-0.1 7.2,0.2 10.7,1 z"
   id="path2"
   style="fill:#000000;fill-opacity:1" />

		<path
   class="st2"
   d="M 786.8,257.6 H 754.1 V 243 h -0.7 c -9.5,13.9 -21.5,18.5 -34.1,18.5 -19,0 -42.4,-11.7 -42.4,-51.4 v -69.2 h 32.9 v 65 c 0,17.1 8,26.3 20.7,26.3 14.4,0 23.4,-10 23.4,-29.5 v -61.8 h 32.9 z"
   id="path3"
   style="fill:#000000;fill-opacity:1" />

		<path
   class="st2"
   d="m 816.9,140.9 h 32.4 v 14.6 h 1 c 8,-12.9 21.2,-18.3 34.6,-18.3 26.3,0 44.6,17.5 44.6,53.4 v 67 h -32.8 v -64.8 c 0,-17.6 -8.3,-26.5 -21.9,-26.5 -14.4,0 -24.9,10.2 -24.9,29.7 v 61.7 H 817 V 140.9 Z"
   id="path4"
   style="fill:#000000;fill-opacity:1" />

		<path
   class="st2"
   d="m 1067.9,179.6 h -32.7 c -2.9,-9 -11,-14.9 -22.7,-14.9 -17.8,0 -28.5,13.9 -28.5,34.3 0,19.2 10.7,34.6 29.5,34.6 10.4,0.4 19.9,-6.2 23.1,-16.1 h 33.4 c -6.6,23.9 -24.4,44.1 -57,44.1 -34.6,0 -62.4,-24.6 -62.4,-62.9 0,-34.1 23.6,-61.9 62.1,-61.9 33.5,0.2 51.6,23.3 55.2,42.8 z"
   id="path5"
   style="fill:#000000;fill-opacity:1" />

		<path
   class="st2"
   d="m 1092.3,82.2 h 32.9 v 73.3 h 1 c 8,-12.9 21.2,-18.3 34.3,-18.3 26.1,0 44.4,17.3 44.4,53.4 v 67 H 1172 v -65.1 c 0,-17.3 -8.3,-26.3 -21.9,-26.3 -14.4,0 -24.8,10 -24.8,29.7 v 61.7 h -32.8 V 82.2 Z"
   id="path6"
   style="fill:#000000;fill-opacity:1" />

		<path
   class="st2"
   d="m 1267.4,314.8 h -31.2 l 21.5,-58.2 -42.4,-115.7 h 34.1 l 16.8,50.7 c 3.2,9.4 5.8,19 7.8,28.7 h 1 c 1.9,-9.7 4.5,-19.3 7.6,-28.7 l 16.3,-50.7 h 32.4 z"
   id="path7"
   style="fill:#000000;fill-opacity:1" />

		<path
   d="M 1486.3,257.6 H 1467 V 242 h -0.5 c -10.8,12.9 -26.8,20.2 -43.6,19.8 -31.7,0 -59,-24.6 -59,-62.6 0,-35.3 25.1,-62.1 59,-62.1 22,0 33.6,8.8 43.6,20.5 h 0.5 V 82.2 h 19.2 v 175.4 z m -59.9,-12.9 c 22.6,0 42.4,-18.3 42.4,-44.8 0,-27.8 -18.5,-46.1 -41.9,-46.1 -28.5,0 -42.9,22.7 -42.9,45.3 0,22.6 14.3,45.6 42.4,45.6 z"
   id="path8"
   style="fill:#000000;fill-opacity:1" />

		<path
   d="m 1634.1,257.6 h -19.2 V 242 h -0.5 c -10.5,12.7 -26.2,20 -42.6,19.8 -31.7,0 -59.9,-24.6 -59.9,-62.6 0,-36.1 26.3,-62.1 61.2,-62.1 21.2,0 33.6,11.2 41.7,20.7 h 0.2 V 141 h 19.2 v 116.6 z m -59.7,-12.9 c 21.9,0 42.2,-18.5 42.2,-44.8 0,-27.8 -18.8,-46.1 -41.7,-46.1 -29.2,0 -43.1,22.9 -43.1,45.3 0,22.4 13.9,45.6 42.6,45.6 z"
   id="path9"
   style="fill:#000000;fill-opacity:1" />

		<path
   d="m 1655.1,140.9 h 15.4 v -37.3 h 19.2 v 37.3 h 31.1 V 157 h -31.2 v 61.7 c 0,19 5.8,24.1 18.3,24.1 4.8,0 9.5,-0.7 14.1,-1.9 v 15.7 c -5.8,1.8 -11.9,2.6 -18,2.4 -28.3,0 -33.6,-19 -33.6,-41.2 V 157 H 1655 Z"
   id="path10"
   style="fill:#000000;fill-opacity:1" />

		<path
   d="m 1857.5,257.6 h -19.2 V 242 h -0.6 c -10.5,12.7 -26.2,20 -42.6,19.8 -31.7,0 -59.9,-24.6 -59.9,-62.6 0,-36.1 26.3,-62.1 61.2,-62.1 21.2,0 33.6,11.2 41.7,20.7 h 0.2 V 141 h 19.4 v 116.6 z m -59.7,-12.9 c 22,0 42.2,-18.5 42.2,-44.8 0,-27.8 -18.8,-46.1 -41.7,-46.1 -29.2,0 -43.1,22.9 -43.1,45.3 0,22.4 13.9,45.6 42.6,45.6 z"
   id="path11"
   style="fill:#000000;fill-opacity:1" />

	</g>
  <g
     id="g18"
     transform="matrix(0.07728216,0,0,0.07728216,3.4249355,23.138229)">
		<path
   class="st1"
   d="M 184,348.7 C 101.9,348.1 29.8,295.1 7.3,218.8 -20.4,124.7 33.9,29.8 129.6,6.4 c 72.2,-17.8 134.3,2 183.4,56.8 56.8,63.4 59.5,152.3 11.1,216.3 -29.4,38.9 -68.8,61.2 -117.1,67.5 -5.9,0.8 -11.9,1.1 -17.9,1.6 -1.6,0.2 -3.4,0.1 -5.1,0.1 z M 170.8,8.8 c -5,0 -9.9,-0.2 -14.9,0 -1.7,0.1 -4.8,0.5 -3.5,3.1 2.2,4.2 4.6,8.6 8.1,11.6 2.6,2.2 6.8,0 10.2,-1.1 L 195,19.8 h 34.4 C 218.1,13.9 206.1,11.9 193.9,11 186.1,11.5 178.6,7.7 170.8,8.8 Z M 89.6,31.6 C 70,41.5 54.5,56.6 41.6,73.7 19.7,102.7 9.3,136 10,172.4 c 0.7,35.1 11.5,67.2 32.7,95.4 5.7,7.6 11.6,15.1 19.3,21.3 1.3,-2 0.9,-3.8 0.8,-5.4 -0.8,-9.8 2.5,-18.1 8.3,-25.7 2.2,-2.7 4.3,-5.4 6.5,-8.1 2.8,-3.2 3,-4.7 -1.9,-6.2 -19.6,-6.3 -35.2,-17.7 -45,-36.3 -0.3,-0.9 -1,-1.5 -1.8,-1.9 -8.9,-3.9 -11.1,-11.3 -10.2,-20.3 1.7,-17.3 7,-33.7 11.4,-50.4 1,-3.4 3,-6.3 5.9,-8.4 4.9,-3.6 7.8,-8.3 9.7,-13.9 2.7,-7.7 8,-11.3 16.2,-11.3 4.1,0 8.1,-0.1 12.2,0 6.4,0.2 12.2,-1.1 16.7,-6 4,-0.5 5.7,-4.3 8.8,-6 8.6,-4.8 12,-12.3 12.3,-22.2 0.2,-9.2 3.8,-17 13.1,-21.4 5,-2.5 9.6,-5.7 13.7,-9.4 3.1,-2.7 4.8,-5.8 4.3,-10.1 -0.8,-5 0.2,-10.2 2.9,-14.5 -21,3 -39.5,9.1 -56.3,20 z M 163.5,139 c 9.6,0.1 16.6,4.4 23,9.9 11.8,10.1 14.8,38 -2.6,47.4 -15.4,8.3 -31.4,13.7 -49.2,12.1 -8.3,-0.7 -16.5,-1.5 -24.8,-2.3 -20.3,-1.9 -40.6,-5.8 -61.1,-2.6 -4.7,0.7 -6,1.8 -2.8,5.7 12.7,15.6 28.8,24.4 49.2,23.3 20.2,-1.1 40.4,-4.1 60.6,-0.4 22.8,4.2 40.6,-2.8 53,-22.8 1.6,-2.5 3.6,-5.1 7,-3 3.4,2.1 2.2,4.7 0.4,7.4 -10.6,16.7 -23.6,29.6 -45.3,29.2 -3.4,-0.1 -6.9,0.7 -10.4,1 -3.3,0.3 -6.1,1.4 -7.9,4.2 -4.1,6.1 -8.6,12 -11.3,18.8 -7.1,18.1 -14.1,36.3 -21.1,54.4 -1.5,3.9 -0.9,6.2 3.5,7.7 18.8,6.6 38.5,10.1 58.5,10.3 38,0.2 72.2,-11.1 102.5,-33.9 1.8,-1.4 2.8,-2.7 2,-4.8 -5,-13.2 -1.5,-25.8 2,-38.5 2.9,-10.4 4.8,-21 3,-32 -1.8,-11 -1.8,-11 -10.6,-5.1 -7.6,5.1 -16.2,8.1 -24.6,11.3 -3.1,1.2 -7.8,1.8 -9,-1.2 -1.7,-4.1 3.5,-4.1 6,-5.3 6.9,-3.4 14.8,-5 20.8,-9.9 15.8,-12.8 23.3,-30.2 26.1,-49.9 1.3,-9 1.6,-18.1 2.4,-27.1 0.2,-1.7 0.3,-3.6 2.8,-3.6 2.5,0 2.4,2 2.6,3.7 0.1,1.3 -0.1,2.7 0,4.1 0.6,21.2 -3.9,41.8 -7.2,62.6 -3.4,21.8 -1.1,43.1 3.6,64.3 0.6,2.7 1.8,5.8 3.9,6.5 3,1 4.1,-2.7 5.7,-4.8 15.1,-19.6 24.7,-41.6 29.7,-65.8 3.9,-18.7 3.4,-36.5 -6.3,-53.8 -6.9,-12.3 -13,-24.9 -19.7,-37.3 C 304,93.1 284.4,71.7 266.1,49.4 260.5,42.6 254.4,36 246.3,31.9 245.2,31.3 244,30 242.6,30.7 c -1.9,1 -0.8,2.9 -0.4,4.1 2.5,10.1 -6.5,21.6 -16.4,25 -2.2,0.8 -4.9,1.9 -6.2,-0.7 -1.3,-2.5 1.7,-3.3 3.2,-4.7 6.6,-5.7 10.3,-15.1 8.6,-22.4 -4.9,2.3 -8.9,5.1 -11.3,10.2 -1.1,2.2 -2.6,6.1 -5.2,4.7 -3.3,-1.8 -1.4,-5.5 0.3,-8.2 1.5,-2.5 3.6,-4.6 6,-6.2 2.5,-1.7 5.8,-1.9 8.3,-4.5 -2.8,-1.5 -5.9,-2.2 -9,-2.1 -18.1,0.2 -36.3,-0.1 -54.3,3.5 -5.7,1.1 -11.5,2.3 -15.9,6.4 -6.4,5.9 -13.6,10.9 -21.3,14.9 -3.1,1.7 -6.4,3.5 -5.2,7.9 1.1,4.1 4.4,6 8.4,6.6 1.6,0.2 3.8,-0.3 4.4,1.9 0.4,2.1 -1.6,2.9 -2.9,3.9 -11.5,9 -22.9,18.3 -34,27.9 -7.2,6.3 -16.6,9.6 -26.2,9.2 -3.9,-0.1 -7.7,0 -11.6,0 -9.1,0.1 -11.1,2.8 -8.6,11.5 0.9,3.3 1.2,6.6 -1.7,9.1 -2.9,2.5 -5.9,2.3 -8.9,-0.1 -1.5,-1.2 -2.7,-0.7 -3.9,0.8 -2.7,3.3 -2.2,5.6 2,6.7 7.5,2 13,-1.9 18.1,-6.6 1.1,-1 2.3,-2.7 3.9,-1.5 1.6,1.2 0.6,2.9 -0.1,4.2 -3.3,6.3 -15.8,12.9 -22.8,12 -1.9,-0.2 -2.9,0 -3.3,1.9 -3,12.1 -7,24.1 -7.9,36.7 -0.9,12.8 1.9,15.3 14.7,12.4 20.8,-4.8 41.4,-6.2 62.3,0.3 11.3,3.5 23.3,3.8 35.1,2.6 13.9,-1.5 27.5,-3.9 39.1,-12.7 4.5,-3.2 7.3,-8.1 7.7,-13.6 0.8,-8.2 -3,-14.1 -8.5,-19.3 C 174,148.1 169,143.8 163.5,139 Z m -42.2,99.9 v 0.2 c -1.9,-0.1 -3.8,-0.4 -5.8,-0.4 -8.9,-0.1 -18,-0.8 -24.8,6.6 -8.3,9 -14.9,19.2 -17.2,31.5 -3.7,19.3 -1,24.7 16,34.7 l 5.4,3.3 c 13.7,8 13.7,8 18.7,-6.9 2.3,-6.9 0.7,-11.8 -5.5,-15.9 -1.4,-0.9 -3.1,-1.5 -4.6,-2.3 -1.5,-0.8 -2.8,-1.9 -2.4,-3.6 0.2,-1.6 1.5,-2.9 3,-3.2 5.3,-0.7 10.7,-2.4 16,-0.6 2.7,1 3.8,0.2 4.9,-2.1 5.6,-12.2 11.3,-24.5 17,-36.7 1.2,-2.5 0.5,-3.4 -2.2,-3.6 -6.1,-0.1 -12.3,-0.6 -18.5,-1 z M 267,38.6 c 29.1,29.7 53.6,63.6 72.6,100.6 2,-27 -46,-93.4 -72.6,-100.6 z"
   id="path12"
   style="fill:#060606" />

		<path
   class="st0"
   d="m 163.5,139 c 5.5,4.9 10.5,9.1 15.2,13.6 5.5,5.2 9.3,11.2 8.5,19.3 -0.4,5.5 -3.2,10.4 -7.7,13.6 -11.6,8.8 -25.2,11.2 -39.1,12.7 -11.8,1.2 -23.8,1 -35.1,-2.6 -20.9,-6.5 -41.5,-5.2 -62.3,-0.3 -12.7,2.9 -15.6,0.5 -14.7,-12.4 0.9,-12.6 4.9,-24.5 7.9,-36.7 0.5,-2 1.5,-2.2 3.3,-1.9 7.1,0.9 19.6,-5.8 22.8,-12 0.7,-1.3 1.6,-3.1 0.1,-4.2 -1.6,-1.1 -2.8,0.5 -3.9,1.5 -5.1,4.7 -10.6,8.6 -18.1,6.6 -4.2,-1.1 -4.7,-3.5 -2,-6.7 1.2,-1.5 2.3,-2 3.9,-0.8 3,2.4 6,2.6 8.9,0.1 2.9,-2.5 2.6,-5.9 1.7,-9.1 -2.4,-8.7 -0.4,-11.5 8.6,-11.5 3.9,0 7.7,-0.1 11.6,0 9.6,0.4 18.9,-2.9 26.2,-9.2 11.2,-9.5 22.5,-18.8 34,-27.9 1.3,-1 3.4,-1.8 2.9,-3.9 -0.5,-2.3 -2.7,-1.7 -4.4,-1.9 -4.1,-0.6 -7.3,-2.5 -8.4,-6.6 -1.2,-4.4 2.1,-6.2 5.2,-7.9 7.7,-4 14.9,-9 21.3,-14.9 4.5,-4.1 10.2,-5.3 15.9,-6.4 17.9,-3.6 36.1,-3.3 54.3,-3.5 3.1,-0.2 6.3,0.5 9,2.1 -2.5,2.6 -5.8,2.8 -8.3,4.5 -2.4,1.6 -4.4,3.7 -6,6.2 -1.7,2.7 -3.5,6.4 -0.3,8.2 2.6,1.5 4.2,-2.5 5.2,-4.7 2.4,-5 6.5,-7.9 11.3,-10.2 1.7,7.3 -2,16.7 -8.6,22.4 -1.5,1.3 -4.5,2.2 -3.2,4.7 1.3,2.5 4,1.4 6.2,0.7 9.8,-3.4 18.9,-14.9 16.4,-25 -0.3,-1.3 -1.4,-3.1 0.4,-4.1 1.3,-0.7 2.5,0.6 3.7,1.2 8.1,4.2 14.2,10.7 19.8,17.5 18.4,22.3 38,43.7 51.8,69.4 6.7,12.4 12.8,25 19.7,37.3 9.7,17.3 10.2,35.1 6.3,53.8 -5,24.2 -14.6,46.3 -29.7,65.8 -1.6,2 -2.7,5.7 -5.7,4.8 -2.2,-0.7 -3.3,-3.8 -3.9,-6.5 -4.8,-21.2 -7.1,-42.6 -3.6,-64.3 3.3,-20.7 7.8,-41.3 7.2,-62.6 0,-1.4 0.2,-2.7 0,-4.1 -0.2,-1.6 0.1,-3.7 -2.6,-3.7 -2.7,0 -2.7,1.8 -2.8,3.6 -0.8,9 -1.2,18.1 -2.4,27.1 -2.8,19.7 -10.3,37.1 -26.1,49.9 -6,4.8 -13.9,6.5 -20.8,9.9 -2.5,1.2 -7.6,1.2 -6,5.3 1.2,3 5.8,2.4 9,1.2 8.5,-3.2 17,-6.2 24.6,-11.3 8.8,-5.9 8.8,-5.8 10.6,5.1 1.8,10.9 0,21.6 -3,32 -3.5,12.7 -7.1,25.4 -2,38.5 0.8,2.1 -0.2,3.4 -2,4.8 -30.3,22.8 -64.5,34 -102.5,33.9 -19.9,-0.1 -39.7,-3.6 -58.5,-10.3 -4.4,-1.5 -5.1,-3.8 -3.5,-7.7 7.1,-18.1 14,-36.3 21.1,-54.4 2.7,-6.9 7.2,-12.7 11.3,-18.8 1.8,-2.8 4.7,-3.8 7.9,-4.2 3.5,-0.3 6.9,-1.1 10.4,-1 21.8,0.4 34.7,-12.5 45.3,-29.2 1.7,-2.7 2.9,-5.4 -0.4,-7.4 -3.3,-2 -5.4,0.5 -7,3 -12.4,19.9 -30.2,26.9 -53,22.8 -20.2,-3.7 -40.4,-0.7 -60.6,0.4 -20.4,1.1 -36.5,-7.7 -49.2,-23.3 -3.2,-3.9 -1.9,-5 2.8,-5.7 20.6,-3.1 40.8,0.7 61.1,2.6 8.3,0.8 16.5,1.6 24.8,2.3 17.8,1.6 33.8,-3.7 49.2,-12.1 17.4,-9.4 14.3,-37.3 2.6,-47.4 -5.9,-5.7 -13,-9.9 -22.6,-10 z m 24.6,-71.1 c -8,-0.1 -18.5,5 -23.3,11.2 -1.2,1.6 -1.6,3.1 -0.7,4.7 1.1,1.9 2.8,0.8 4,-0.1 2.1,-1.6 2.6,0.4 3.6,1.3 6.7,6 15.4,4.4 19.1,-3.6 1.3,-2.8 0.5,-6.8 5,-8 1.2,-0.3 0.7,-2.6 -1.1,-3.6 -2.1,-1 -4.3,-1.7 -6.6,-1.9 z m -88.3,86.7 c 5.1,-0.9 9.6,-2.4 12.4,-6.8 1.3,-2 1.4,-3.9 -0.2,-5.8 -1.6,-1.9 -3.1,-1.6 -5.1,-0.6 -2.8,1.3 -5.7,2.8 -8.6,3.1 -7.4,0.9 -15,2.1 -20.6,-5 -1.2,-1.5 -2.2,-4.4 -4.7,-2.9 -2.5,1.5 0.1,3.8 0.5,5.7 0.2,1.2 1.5,2.2 2.3,3.2 6.4,7.7 15.9,6.8 24,9.1 z m -9.1,-33.2 c -3.6,0.5 -7.6,0.7 -8.1,5.5 -0.4,3.7 5.9,12.2 8.9,12.4 3.2,0.3 6.8,-4.4 6.8,-8.7 -0.2,-5.2 -3.4,-9.1 -7.6,-9.2 z"
   id="path13"
   style="fill:#ffffff" />

		<path
   class="st0"
   d="m 121.3,238.8 c 6.2,0.4 12.3,0.9 18.5,1.3 2.7,0.2 3.3,1.1 2.2,3.6 -5.7,12.2 -11.4,24.4 -17,36.7 -1,2.2 -2.2,3 -4.9,2.1 -5.3,-1.9 -10.7,-0.2 -16,0.6 -1.6,0.3 -2.8,1.6 -3,3.2 -0.3,1.7 1.1,2.8 2.4,3.6 1.3,0.8 3.2,1.4 4.6,2.3 6.2,4 7.8,9 5.5,15.9 -5,14.9 -5,14.9 -18.7,6.8 l -5.4,-3.3 c -17,-10 -19.7,-15.4 -16,-34.7 2.3,-12.3 8.9,-22.5 17.2,-31.5 6.8,-7.4 15.9,-6.7 24.8,-6.6 1.9,0 3.8,0.2 5.8,0.4 z"
   id="path14"
   style="fill:#ffffff" />

		
		<path
   class="st1"
   d="m 188.1,67.9 c 2.3,0.2 4.5,0.9 6.5,1.9 1.8,1 2.2,3.3 1.1,3.6 -4.4,1.2 -3.7,5.2 -5,8 -3.7,8 -12.4,9.6 -19.1,3.6 -1,-0.9 -1.5,-2.9 -3.6,-1.3 -1.2,0.9 -2.8,1.9 -4,0.1 -0.9,-1.6 -0.5,-3.1 0.7,-4.7 4.9,-6.2 15.4,-11.3 23.4,-11.2 z"
   id="path16"
   style="fill:#060606" />

		<path
   class="st1"
   d="m 99.8,154.6 c -8.1,-2.3 -17.6,-1.4 -23.9,-9.1 -0.8,-1 -2.1,-2 -2.3,-3.2 -0.4,-1.9 -2.9,-4.2 -0.5,-5.7 2.4,-1.5 3.5,1.4 4.7,2.9 5.6,7.1 13.2,5.9 20.6,5 3,-0.4 5.9,-1.8 8.6,-3.1 2,-1 3.5,-1.1 5.1,0.6 1.6,1.7 1.5,3.8 0.2,5.8 -2.9,4.4 -7.4,5.9 -12.5,6.8 z"
   id="path17"
   style="fill:#060606" />

		<path
   class="st1"
   d="m 90.7,121.4 c 4.3,0.1 7.5,4 7.5,9.3 0,4.3 -3.6,8.9 -6.8,8.7 -3,-0.2 -9.3,-8.8 -8.9,-12.4 0.6,-4.9 4.5,-5 8.2,-5.6 z"
   id="path18"
   style="fill:#060606" />

	</g>
</svg>
