<svg xmlns="http://www.w3.org/2000/svg" width="150" height="70" fill="none" viewBox="0 0 150 70"><path fill="#000" d="M76.2663 33.3121H73.3914V25.8789H69.6952V44.6293H73.3914V36.5264H76.2663V44.6293H79.9626V25.8789H76.2663V33.3121ZM87.4235 36.5264H91.5305V33.3121H87.4235V29.0933H92.7626V25.8789H83.6588V44.6293H93.1048V41.4149H87.3551L87.4235 36.5264ZM103.304 34.8523L106.658 25.8789H102.961L101.319 31.1692L99.539 25.8789H95.8428L99.3337 34.7853L95.569 44.6293H99.2652L101.319 38.4684L103.304 44.6293H107L103.304 34.8523ZM58.538 41.6158C58.4011 41.1471 57.9904 40.8792 57.5112 40.8792H43V44.6293H57.9904C58.538 44.6293 59.0171 44.1605 59.0856 43.6248C59.0856 43.5578 59.0856 43.4239 59.0856 43.3569L58.538 41.6158ZM61.3444 42.1516L61.8235 43.8257C61.9604 44.2945 62.3711 44.6293 62.8503 44.5623H65.9305V40.8122H62.3711C61.7551 40.8122 61.3444 41.281 61.3444 41.8167C61.2759 42.0176 61.3444 42.0846 61.3444 42.1516ZM52.446 28.3566L51.9668 26.6825C51.8299 26.2137 51.4193 25.8789 50.9401 25.8789H43V29.629H51.4193C52.0353 29.629 52.446 29.1602 52.446 28.6245C52.446 28.4906 52.446 28.4236 52.446 28.3566ZM54.7048 27.1513L55.184 28.8254C55.3209 29.2942 55.7316 29.629 56.2107 29.562H65.9305V25.8789H55.7316C55.1155 25.8789 54.7048 26.3477 54.7048 26.9504C54.7048 27.0173 54.7048 27.0843 54.7048 27.1513ZM49.1604 35.8568L48.6813 34.1826C48.5444 33.7139 48.1337 33.446 47.6545 33.446H43V37.1961H48.1337C48.7497 37.1961 49.1604 36.7273 49.1604 36.1916C49.2289 35.9907 49.2289 35.9238 49.1604 35.8568ZM51.4877 34.6514L51.9668 36.3255C52.1037 36.7943 52.5144 37.0622 52.9936 37.0622H65.9305V33.3121H52.5144C51.8984 33.3121 51.4877 33.7808 51.4877 34.3166C51.4193 34.5175 51.4877 34.5844 51.4877 34.6514Z"/></svg>