<?xml version="1.0" encoding="utf-8"?>
<!-- Generator: Adobe Illustrator 26.0.2, SVG Export Plug-In . SVG Version: 6.00 Build 0)  -->
<svg version="1.1" id="layer" xmlns="http://www.w3.org/2000/svg" xmlns:xlink="http://www.w3.org/1999/xlink" x="0px" y="0px"
	 viewBox="0 0 93.5 44.6" style="enable-background:new 0 0 93.5 44.6;" xml:space="preserve">
<style type="text/css">
	.st0{fill:#1D1D1B;}
</style>
<g>
	<path class="st0" d="M48.6,19.4h-4.2V8.3H39v28h5.4V24.2h4.2v12.1H54v-28h-5.4V19.4z M64.9,24.2h6v-4.8h-6v-6.3h7.8V8.3H59.4v28
		h13.8v-4.8h-8.4L64.9,24.2L64.9,24.2z M88.1,21.7L93,8.3h-5.4l-2.4,7.9l-2.6-7.9h-5.4l5.1,13.3l-5.5,14.7h5.4l3-9.2l2.9,9.2h5.4
		L88.1,21.7z M22.7,31.8c-0.2-0.7-0.8-1.1-1.5-1.1H0v5.6h21.9c0.8,0,1.5-0.7,1.6-1.5c0-0.1,0-0.3,0-0.4L22.7,31.8z M26.8,32.6
		l0.7,2.5c0.2,0.7,0.8,1.2,1.5,1.1h4.5v-5.6h-5.2c-0.9,0-1.5,0.7-1.5,1.5C26.7,32.4,26.8,32.5,26.8,32.6z M13.8,12l-0.7-2.5
		c-0.2-0.7-0.8-1.2-1.5-1.2H0v5.6h12.3c0.9,0,1.5-0.7,1.5-1.5C13.8,12.2,13.8,12.1,13.8,12z M17.1,10.2l0.7,2.5
		c0.2,0.7,0.8,1.2,1.5,1.1h14.2V8.3H18.6c-0.9,0-1.5,0.7-1.5,1.6C17.1,10,17.1,10.1,17.1,10.2z M9,23.2l-0.7-2.5
		c-0.2-0.7-0.8-1.1-1.5-1.1H0v5.6h7.5c0.9,0,1.5-0.7,1.5-1.5C9.1,23.4,9.1,23.3,9,23.2z M12.4,21.4l0.7,2.5c0.2,0.7,0.8,1.1,1.5,1.1
		h18.9v-5.6H13.9c-0.9,0-1.5,0.7-1.5,1.5C12.3,21.2,12.4,21.3,12.4,21.4z"/>
</g>
</svg>
