<?xml version="1.0" encoding="utf-8"?>
<!-- Generator: Adobe Illustrator 26.0.2, SVG Export Plug-In . SVG Version: 6.00 Build 0)  -->
<svg version="1.1" id="layer" xmlns="http://www.w3.org/2000/svg" xmlns:xlink="http://www.w3.org/1999/xlink" x="0px" y="0px"
	 viewBox="0 0 93.5 28" style="enable-background:new 0 0 93.5 28;" xml:space="preserve">
<style type="text/css">
	.st0{fill:#1D1D1B;}
</style>
<g>
	<path class="st0" d="M48.6,11.1h-4.2V0h-5.4v28h5.4V15.9h4.2V28H54V0h-5.4V11.1z M64.9,15.9h6v-4.8h-6V4.8h7.8V0H59.4v28h13.8v-4.8
		h-8.4V15.9L64.9,15.9z M88.1,13.4L93,0h-5.4l-2.4,7.9L82.6,0h-5.4l5.1,13.3L76.8,28h5.4l3-9.2l2.9,9.2h5.4L88.1,13.4z M22.7,23.5
		c-0.2-0.7-0.8-1.1-1.5-1.1H0V28h21.9c0.8,0,1.5-0.7,1.6-1.5c0-0.1,0-0.3,0-0.4L22.7,23.5z M26.8,24.3l0.7,2.5
		c0.2,0.7,0.8,1.2,1.5,1.1h4.5v-5.6h-5.2c-0.9,0-1.5,0.7-1.5,1.5C26.7,24.1,26.8,24.2,26.8,24.3z M13.8,3.7l-0.7-2.5
		C12.9,0.5,12.3,0,11.6,0H0v5.6h12.3c0.9,0,1.5-0.7,1.5-1.5C13.8,3.9,13.8,3.8,13.8,3.7z M17.1,1.9l0.7,2.5c0.2,0.7,0.8,1.2,1.5,1.1
		h14.2V0H18.6c-0.9,0-1.5,0.7-1.5,1.6C17.1,1.7,17.1,1.8,17.1,1.9z M9,14.9l-0.7-2.5c-0.2-0.7-0.8-1.1-1.5-1.1H0v5.6h7.5
		c0.9,0,1.5-0.7,1.5-1.5C9.1,15.1,9.1,15,9,14.9z M12.4,13.1l0.7,2.5c0.2,0.7,0.8,1.1,1.5,1.1h18.9v-5.6H13.9
		c-0.9,0-1.5,0.7-1.5,1.5C12.3,12.9,12.4,13,12.4,13.1z"/>
</g>
</svg>
