<?xml version="1.0" encoding="utf-8"?>
<!-- Generator: Adobe Illustrator 26.0.2, SVG Export Plug-In . SVG Version: 6.00 Build 0)  -->
<svg version="1.1" id="layer" xmlns="http://www.w3.org/2000/svg" xmlns:xlink="http://www.w3.org/1999/xlink" x="0px" y="0px"
	 viewBox="0 0 620 196" style="enable-background:new 0 0 620 196;" xml:space="preserve">
<style type="text/css">
	.st0{fill:#1D1D1B;}
</style>
<path class="st0" d="M322.3,78.1h-27.1V7h-34.8v179.5h34.8v-77.4h27.1v77.4h34.8V7h-34.8V78.1z M426.9,109h38.7V78.1h-38.7V37.9
	h50.3V7h-85.1v179.5h88.5v-30.9h-53.7L426.9,109L426.9,109z M576.1,92.6L607.2,7h-34.7l-15.2,50.6L540.5,7h-34.7l32.9,85.6
	l-35.3,93.8H538l19.3-58.9l18.8,58.9h34.7L576.1,92.6z M156.7,157.9c-1.2-4.3-5.1-7.3-9.6-7.3H10.8v35.9h140.7
	c5.4,0.1,9.9-4.3,10-9.7c0-0.9-0.1-1.8-0.3-2.7L156.7,157.9z M182.6,163l4.4,16.2c1.2,4.3,5.1,7.4,9.6,7.3h28.9v-35.9h-33.4
	c-5.5,0-9.9,4.4-9.9,9.9C182.3,161.3,182.4,162.2,182.6,163z M99.1,30.4l-4.3-16.1C93.6,10,89.7,6.9,85.2,7H10.8v35.9h78.7
	c5.5,0,9.9-4.4,9.9-9.9C99.4,32.1,99.3,31.2,99.1,30.4z M120.7,19.4l4.3,16.1c1.2,4.3,5.1,7.4,9.6,7.3h90.9V6.9h-95.3
	c-5.5,0-9.9,4.5-9.9,10C120.3,17.8,120.4,18.6,120.7,19.4z M68.8,102.2l-4.3-16.1c-1.2-4.3-5.1-7.3-9.6-7.3h-44v35.9h48.4
	c5.5,0,9.9-4.4,9.9-9.9C69.1,103.9,69,103,68.8,102.2z M90.4,91.2l4.3,16.1c1.2,4.3,5.1,7.3,9.6,7.3h121.3V78.7H99.9
	c-5.5,0-9.9,4.5-9.9,9.9C90,89.6,90.1,90.4,90.4,91.2z"/>
</svg>
