<svg width="150" height="70" viewBox="0 0 150 70" fill="none" xmlns="http://www.w3.org/2000/svg">
<path d="M45.8562 40.9069V30.3846H48.6758V34.2942H51.8671V30.3846H54.6867V40.9069H51.8671V36.7377H48.6758V40.9069H45.8562Z" fill="black"/>
<path d="M59.3189 41.1053C58.4203 41.1053 57.7697 40.8151 57.3669 40.2195C56.9641 39.6087 56.7627 38.8145 56.7627 37.8066V32.8127H59.5822V37.4401C59.5822 37.9593 59.6442 38.2953 59.7836 38.4786C59.9231 38.6465 60.14 38.7382 60.4033 38.7382C60.6667 38.7382 60.8836 38.6771 61.054 38.5702C61.2244 38.4633 61.4103 38.28 61.5807 38.0204V32.8127H64.4003V40.9068H62.1074L61.9061 39.8377H61.8441C61.5188 40.2195 61.1469 40.5402 60.7441 40.754C60.3414 40.9831 59.8766 41.1053 59.3189 41.1053Z" fill="black"/>
<path d="M69.2955 44.2359C68.6759 44.2359 68.1027 44.1596 67.5759 44.0221C67.0492 43.8999 66.6309 43.6861 66.3056 43.396C65.9957 43.1058 65.8408 42.724 65.8408 42.2353C65.8408 41.5939 66.2281 41.0747 66.9872 40.6776V40.6165C66.7858 40.4638 66.5999 40.2805 66.445 40.0667C66.3056 39.8377 66.2281 39.5628 66.2281 39.2268C66.2281 38.9519 66.3056 38.677 66.476 38.4021C66.6464 38.1272 66.8788 37.8982 67.1422 37.6996V37.6385C66.8478 37.44 66.5844 37.1651 66.3521 36.8139C66.1352 36.4473 66.0267 36.035 66.0267 35.5616C66.0267 34.8896 66.1971 34.3398 66.5225 33.9122C66.8633 33.4694 67.2971 33.1486 67.8393 32.9348C68.3815 32.721 68.9392 32.6141 69.5434 32.6141C70.0237 32.6141 70.4574 32.6752 70.8602 32.8127H73.9122V34.8133H72.7348C72.7658 34.9049 72.7967 35.0271 72.8122 35.1798C72.8432 35.3325 72.8587 35.4852 72.8587 35.6532C72.8587 36.2946 72.7038 36.8139 72.4094 37.2109C72.1151 37.5927 71.7123 37.8829 71.2166 38.0661C70.7208 38.2494 70.1476 38.341 69.5434 38.341C69.2646 38.341 68.9702 38.3105 68.6294 38.2341C68.5055 38.3563 68.428 38.509 68.428 38.7076C68.428 38.8755 68.5209 38.9977 68.6914 39.0741C68.8773 39.1504 69.1716 39.181 69.5744 39.181H70.7983C71.8207 39.181 72.6263 39.349 73.184 39.685C73.7572 40.0057 74.0361 40.5402 74.0361 41.2885C74.0361 41.8688 73.8347 42.388 73.4474 42.8309C73.0601 43.2738 72.5179 43.6251 71.8053 43.8694C71.1081 44.1138 70.2715 44.2359 69.2955 44.2359ZM69.5589 36.707C69.8223 36.707 70.0392 36.6153 70.1941 36.4321C70.3645 36.2488 70.442 35.9586 70.442 35.5769C70.442 35.1951 70.3645 34.9202 70.1941 34.7522C70.0237 34.5689 69.8223 34.4773 69.5589 34.4773C69.2955 34.4773 69.0787 34.5689 68.9237 34.7522C68.7533 34.9202 68.6759 35.1951 68.6759 35.5769C68.6759 35.9586 68.7533 36.2488 68.9237 36.4321C69.0787 36.6153 69.2955 36.707 69.5589 36.707ZM69.7603 42.5255C70.2251 42.5255 70.5969 42.4491 70.9067 42.3117C71.2166 42.1895 71.3715 42.0063 71.3715 41.7772C71.3715 41.5634 71.2785 41.4259 71.0771 41.3801C70.8912 41.319 70.6279 41.3038 70.2715 41.3038H69.6364C69.311 41.3038 69.0632 41.2885 68.8773 41.2732C68.7068 41.2579 68.5674 41.2427 68.4435 41.2121C68.2421 41.4107 68.1491 41.5939 68.1491 41.7924C68.1491 42.0521 68.3041 42.2353 68.5984 42.3575C68.8928 42.4644 69.2801 42.5255 69.7603 42.5255Z" fill="black"/>
<path d="M78.2501 44.2359C77.6305 44.2359 77.0572 44.1596 76.5305 44.0221C76.0038 43.8999 75.5855 43.6861 75.2602 43.396C74.9503 43.1058 74.7954 42.724 74.7954 42.2353C74.7954 41.5939 75.1827 41.0747 75.9418 40.6776V40.6165C75.7404 40.4638 75.5545 40.2805 75.3996 40.0667C75.2602 39.8377 75.1827 39.5628 75.1827 39.2268C75.1827 38.9519 75.2602 38.677 75.4306 38.4021C75.601 38.1272 75.8334 37.8982 76.0967 37.6996V37.6385C75.8024 37.44 75.539 37.1651 75.3066 36.8139C75.0898 36.4473 74.9813 36.035 74.9813 35.5616C74.9813 34.8896 75.1517 34.3398 75.4771 33.9122C75.8179 33.4694 76.2517 33.1486 76.7939 32.9348C77.3361 32.721 77.8938 32.6141 78.498 32.6141C78.9783 32.6141 79.412 32.6752 79.8148 32.8127H82.8668V34.8133H81.6894C81.7204 34.9049 81.7513 35.0271 81.7668 35.1798C81.7978 35.3325 81.8133 35.4852 81.8133 35.6532C81.8133 36.2946 81.6584 36.8139 81.364 37.2109C81.0697 37.5927 80.6669 37.8829 80.1711 38.0661C79.6754 38.2494 79.1022 38.341 78.498 38.341C78.2191 38.341 77.9248 38.3105 77.584 38.2341C77.46 38.3563 77.3826 38.509 77.3826 38.7076C77.3826 38.8755 77.4755 38.9977 77.6459 39.0741C77.8318 39.1504 78.1262 39.181 78.529 39.181H79.7529C80.7753 39.181 81.5809 39.349 82.1386 39.685C82.7118 40.0057 82.9907 40.5402 82.9907 41.2885C82.9907 41.8688 82.7893 42.388 82.402 42.8309C82.0147 43.2738 81.4725 43.6251 80.7598 43.8694C80.0627 44.1138 79.2261 44.2359 78.2501 44.2359ZM78.5135 36.707C78.7769 36.707 78.9937 36.6153 79.1487 36.4321C79.3191 36.2488 79.3965 35.9586 79.3965 35.5769C79.3965 35.1951 79.3191 34.9202 79.1487 34.7522C78.9783 34.5689 78.7769 34.4773 78.5135 34.4773C78.2501 34.4773 78.0332 34.5689 77.8783 34.7522C77.7079 34.9202 77.6305 35.1951 77.6305 35.5769C77.6305 35.9586 77.7079 36.2488 77.8783 36.4321C78.0332 36.6153 78.2501 36.707 78.5135 36.707ZM78.7149 42.5255C79.1797 42.5255 79.5515 42.4491 79.8613 42.3117C80.1711 42.1895 80.3261 42.0063 80.3261 41.7772C80.3261 41.5634 80.2331 41.4259 80.0317 41.3801C79.8458 41.319 79.5824 41.3038 79.2261 41.3038H78.591C78.2656 41.3038 78.0177 41.2885 77.8318 41.2732C77.6614 41.2579 77.522 41.2427 77.3981 41.2121C77.1967 41.4107 77.1037 41.5939 77.1037 41.7924C77.1037 42.0521 77.2586 42.2353 77.553 42.3575C77.8473 42.4644 78.2346 42.5255 78.7149 42.5255Z" fill="black"/>
<path d="M84.2302 40.9067V32.8126H87.0498V40.9067H84.2302ZM85.64 31.82C85.1753 31.82 84.8035 31.6978 84.5246 31.4535C84.2457 31.1938 84.0908 30.8579 84.0908 30.4303C84.0908 30.0026 84.2302 29.6819 84.5246 29.4223C84.8035 29.1627 85.1753 29.0405 85.64 29.0405C86.1048 29.0405 86.4766 29.1627 86.7555 29.4223C87.0343 29.6667 87.1892 30.0026 87.1892 30.4303C87.1892 30.8579 87.0498 31.1938 86.7555 31.4535C86.4611 31.6978 86.0893 31.82 85.64 31.82Z" fill="black"/>
<path d="M88.9551 40.9066V32.8125H91.2479L91.4493 33.7899H91.5113C91.8366 33.4845 92.2084 33.2096 92.6267 32.9805C93.0605 32.7362 93.5407 32.6293 94.0984 32.6293C95.0125 32.6293 95.6631 32.9347 96.0504 33.5303C96.4532 34.1259 96.6546 34.92 96.6546 35.928V40.9066H93.8351V36.2792C93.8351 35.76 93.7731 35.424 93.6337 35.2407C93.5097 35.0728 93.2928 34.9811 93.014 34.9811C92.7506 34.9811 92.5337 35.0422 92.3633 35.1491C92.1929 35.256 91.9915 35.4087 91.7746 35.6073V40.9066H88.9551Z" fill="black"/>
<path d="M101.488 44.2359C100.868 44.2359 100.295 44.1596 99.7686 44.0221C99.2418 43.8999 98.8235 43.6861 98.4982 43.396C98.1884 43.1058 98.0334 42.724 98.0334 42.2353C98.0334 41.5939 98.4207 41.0747 99.1799 40.6776V40.6165C98.9785 40.4638 98.7926 40.2805 98.6376 40.0667C98.4982 39.8377 98.4207 39.5628 98.4207 39.2268C98.4207 38.9519 98.4982 38.677 98.6686 38.4021C98.839 38.1272 99.0714 37.8982 99.3348 37.6996V37.6385C99.0404 37.44 98.7771 37.1651 98.5447 36.8139C98.3278 36.4473 98.2194 36.035 98.2194 35.5616C98.2194 34.8896 98.3898 34.3398 98.7151 33.9122C99.0559 33.4694 99.4897 33.1486 100.032 32.9348C100.574 32.721 101.132 32.6141 101.736 32.6141C102.216 32.6141 102.65 32.6752 103.053 32.8127H106.105V34.8133H104.927C104.958 34.9049 104.989 35.0271 105.005 35.1798C105.036 35.3325 105.051 35.4852 105.051 35.6532C105.051 36.2946 104.896 36.8139 104.602 37.2109C104.308 37.5927 103.905 37.8829 103.409 38.0661C102.913 38.2494 102.356 38.341 101.736 38.341C101.457 38.341 101.163 38.3105 100.822 38.2341C100.698 38.3563 100.621 38.509 100.621 38.7076C100.621 38.8755 100.714 38.9977 100.884 39.0741C101.07 39.1504 101.364 39.181 101.767 39.181H102.991C104.013 39.181 104.819 39.349 105.377 39.685C105.95 40.0057 106.229 40.5402 106.229 41.2885C106.229 41.8688 106.027 42.388 105.64 42.8309C105.253 43.2738 104.711 43.6251 103.998 43.8694C103.301 44.1138 102.464 44.2359 101.488 44.2359ZM101.752 36.707C102.015 36.707 102.232 36.6153 102.387 36.4321C102.557 36.2488 102.635 35.9586 102.635 35.5769C102.635 35.1951 102.557 34.9202 102.387 34.7522C102.216 34.5689 102.015 34.4773 101.752 34.4773C101.488 34.4773 101.271 34.5689 101.116 34.7522C100.946 34.9202 100.868 35.1951 100.868 35.5769C100.868 35.9586 100.946 36.2488 101.116 36.4321C101.271 36.6153 101.488 36.707 101.752 36.707ZM101.953 42.5255C102.418 42.5255 102.79 42.4491 103.099 42.3117C103.409 42.1895 103.564 42.0063 103.564 41.7772C103.564 41.5634 103.471 41.4259 103.27 41.3801C103.084 41.319 102.82 41.3038 102.464 41.3038H101.829C101.504 41.3038 101.256 41.2885 101.07 41.2732C100.899 41.2579 100.76 41.2427 100.636 41.2121C100.435 41.4107 100.342 41.5939 100.342 41.7924C100.342 42.0521 100.497 42.2353 100.791 42.3575C101.085 42.4644 101.473 42.5255 101.953 42.5255Z" fill="black"/>
<path d="M110.969 40.9069V30.3846H117.925V32.7212H113.789V34.7218H117.352V37.0584H113.805V40.9069H110.969Z" fill="black"/>
<path d="M121.024 41.1051C120.512 41.1051 120.063 40.9982 119.691 40.7691C119.335 40.5248 119.056 40.2193 118.855 39.8528C118.653 39.471 118.56 39.0587 118.56 38.6158C118.56 37.7758 118.917 37.1192 119.614 36.6457C120.311 36.157 121.457 35.8363 123.022 35.6683C122.96 35.1033 122.573 34.8284 121.876 34.8284C121.581 34.8284 121.271 34.8895 120.946 35.0117C120.621 35.1186 120.233 35.2866 119.815 35.5156L118.824 33.6983C119.397 33.347 119.986 33.0874 120.574 32.9042C121.178 32.7209 121.798 32.6293 122.433 32.6293C123.502 32.6293 124.339 32.9347 124.943 33.5303C125.547 34.1259 125.842 35.088 125.842 36.4167V40.9066H123.549L123.347 40.1277H123.285C122.96 40.4179 122.604 40.6622 122.232 40.8455C121.876 41.0135 121.473 41.1051 121.024 41.1051ZM122 38.967C122.232 38.967 122.418 38.9212 122.573 38.8143C122.728 38.7074 122.867 38.57 123.022 38.4173V37.3177C122.356 37.4093 121.891 37.562 121.628 37.7606C121.38 37.9591 121.256 38.1576 121.256 38.3867C121.256 38.7685 121.504 38.967 122 38.967Z" fill="black"/>
<path d="M131.403 41.1052C130.629 41.1052 129.932 40.9372 129.297 40.6012C128.677 40.2652 128.181 39.7918 127.809 39.1657C127.453 38.5243 127.267 37.7607 127.267 36.8749C127.267 35.9739 127.468 35.2256 127.871 34.5994C128.29 33.958 128.832 33.4846 129.498 33.1486C130.164 32.8126 130.892 32.6447 131.667 32.6447C132.163 32.6447 132.596 32.721 132.999 32.8737C133.402 33.0264 133.758 33.225 134.068 33.4846L132.751 35.2714C132.581 35.1187 132.41 35.0118 132.271 34.966C132.132 34.9049 131.977 34.8896 131.822 34.8896C131.295 34.8896 130.892 35.0729 130.598 35.4394C130.304 35.7906 130.149 36.2793 130.149 36.8902C130.149 37.5011 130.304 37.9898 130.613 38.3563C130.923 38.7075 131.295 38.8908 131.729 38.8908C131.961 38.8908 132.178 38.845 132.395 38.7381C132.627 38.6312 132.844 38.509 133.03 38.3716L134.115 40.1889C133.712 40.5401 133.263 40.7998 132.767 40.9372C132.287 41.0288 131.822 41.1052 131.403 41.1052Z" fill="black"/>
<path d="M138.731 41.1052C137.925 41.1052 137.213 40.9372 136.562 40.6012C135.927 40.2652 135.431 39.7918 135.059 39.1657C134.688 38.5243 134.502 37.7607 134.502 36.8749C134.502 36.0044 134.688 35.2561 135.059 34.63C135.447 33.9886 135.927 33.4999 136.531 33.1639C137.135 32.8126 137.771 32.6447 138.437 32.6447C139.242 32.6447 139.908 32.8279 140.435 33.1792C140.977 33.5304 141.365 33.9886 141.613 34.5842C141.876 35.1798 142 35.8364 142 36.5542C142 36.7986 141.984 37.0276 141.953 37.2567C141.938 37.4705 141.907 37.6232 141.891 37.7301H137.213C137.337 38.2188 137.585 38.5548 137.925 38.7533C138.266 38.9366 138.669 39.0282 139.118 39.0282C139.645 39.0282 140.203 38.8602 140.791 38.5395L141.706 40.1889C141.272 40.4943 140.776 40.7234 140.234 40.8914C139.707 41.0136 139.196 41.1052 138.731 41.1052ZM137.197 35.8975H139.63C139.63 35.5921 139.552 35.3172 139.382 35.0881C139.227 34.8438 138.932 34.7369 138.514 34.7369C138.204 34.7369 137.941 34.8285 137.693 35.0118C137.445 35.1798 137.29 35.4852 137.197 35.8975Z" fill="black"/>
<path d="M38.4046 44.144C38.5595 43.9149 38.668 43.6553 38.7145 43.3804C38.7609 43.1055 38.7454 42.8306 38.6835 42.5558C38.575 42.174 38.3736 41.8533 38.0793 41.6242C38.2187 41.3951 38.3117 41.1508 38.3426 40.8911C38.4201 40.3261 38.2342 39.761 37.8004 39.3029C37.4596 38.9364 36.9948 38.7531 36.4681 38.7531C36.4061 38.7531 36.3442 38.7531 36.2822 38.7684C36.685 37.5161 36.8864 36.218 36.8864 34.9046C36.8864 27.7727 31.0304 22 23.7956 22C16.5608 22 10.7049 27.7727 10.7049 34.9046C10.7049 36.218 10.9063 37.5161 11.2936 38.7531H11.2781C10.7513 38.7531 10.2866 38.9516 9.94575 39.3029C9.51197 39.761 9.32607 40.3261 9.40353 40.8911C9.43451 41.1508 9.52746 41.3951 9.66689 41.6242C9.37254 41.8533 9.17115 42.174 9.0627 42.5558C8.98524 42.8154 8.98524 43.1055 9.03172 43.3804C9.07819 43.6553 9.18664 43.9149 9.34156 44.144C9.31057 44.1898 9.29508 44.2356 9.2641 44.2815C9.00073 44.7702 8.98524 45.3199 9.21762 45.8239C9.55845 46.6028 10.426 47.1984 12.0991 47.855C13.1371 48.2674 14.0821 48.527 14.0976 48.527C15.4764 48.8783 16.7158 49.0615 17.7847 49.0615C19.5508 49.0615 20.8676 48.5881 21.7197 47.6412C23.145 47.8703 24.6012 47.855 26.011 47.6107C26.8476 48.5728 28.1799 49.0462 29.9615 49.0462C31.0304 49.0462 32.2853 48.863 33.6486 48.5117C33.6641 48.5117 34.6091 48.2521 35.647 47.8398C37.3202 47.1831 38.1722 46.5722 38.5286 45.8086C38.7609 45.3047 38.7454 44.7549 38.4821 44.2662C38.4666 44.2356 38.4356 44.1898 38.4046 44.144ZM21.1155 46.1599C21.0535 46.2821 20.9761 46.4042 20.8831 46.5264C20.6662 46.8471 20.3719 47.0762 20.0466 47.2595C19.4114 47.5954 18.6058 47.7176 17.7847 47.7176C16.4989 47.7176 15.1666 47.4274 14.4229 47.2289C14.392 47.2136 9.88378 45.9614 10.457 44.8923C10.5499 44.7091 10.7049 44.648 10.9063 44.648C11.7118 44.648 13.1681 45.8239 13.8033 45.8239C13.9427 45.8239 14.0356 45.7628 14.0821 45.6254C14.3455 44.6785 10.0077 44.2815 10.3795 42.907C10.4415 42.6627 10.6119 42.571 10.8598 42.571C11.9287 42.571 14.299 44.4189 14.8102 44.4189C14.8412 44.4189 14.8722 44.4036 14.8877 44.3884C14.8877 44.3884 14.8877 44.3884 14.8877 44.3731C15.1201 43.9913 14.9807 43.7164 13.385 42.7543C13.3385 42.7237 13.2765 42.6932 13.2301 42.6627C11.464 41.6089 10.2246 40.9828 10.9372 40.2192C11.0147 40.1276 11.1386 40.097 11.2781 40.097C11.4485 40.097 11.6499 40.1581 11.8668 40.2497C12.7963 40.6315 14.0976 41.7005 14.6243 42.1587C14.7793 42.2961 14.8722 42.3725 14.8722 42.3725C14.8722 42.3725 15.5539 43.075 15.9721 43.075C16.0651 43.075 16.1426 43.0445 16.2045 42.9528C16.4989 42.4641 13.4779 40.2192 13.3075 39.2876C13.1991 38.6615 13.385 38.3408 13.7568 38.3408C13.9272 38.3408 14.1441 38.4171 14.3765 38.5546C15.1046 39.0127 16.4834 41.3646 16.9946 42.2809C17.165 42.5863 17.4594 42.7237 17.7227 42.7237C18.2495 42.7237 18.6523 42.2198 17.7692 41.5631C16.4524 40.5857 16.9172 38.9974 17.5368 38.8905C17.5678 38.8905 17.5833 38.8905 17.6143 38.8905C18.1875 38.8905 18.4354 39.8679 18.4354 39.8679C18.4354 39.8679 19.179 41.7005 20.4493 42.9681C21.6267 44.0524 21.7817 44.984 21.1155 46.1599ZM25.2364 46.3737L25.1744 46.389C25.1434 46.389 25.097 46.4042 25.066 46.4042C25.004 46.4042 24.942 46.4195 24.8801 46.4195H24.8181H24.7716H24.6942C24.6632 46.4195 24.6322 46.4195 24.6167 46.4195H24.5392H24.5238C24.5083 46.4195 24.4773 46.4195 24.4618 46.4195H24.4308C24.3998 46.4195 24.3843 46.4195 24.3533 46.4195H24.2604H24.1829H24.121H24.09C24.0745 46.4195 24.059 46.4195 24.0435 46.4195C24.028 46.4195 24.028 46.4195 24.0125 46.4195C23.997 46.4195 23.9815 46.4195 23.966 46.4195H23.9041C23.8731 46.4195 23.8421 46.4195 23.8111 46.4195C23.7337 46.4195 23.6562 46.4195 23.5787 46.4195H23.5168C23.5013 46.4195 23.4858 46.4195 23.4703 46.4195H23.4083H23.3309H23.2534H23.2379H23.1759C23.1605 46.4195 23.145 46.4195 23.114 46.4195H23.0675C23.0055 46.4195 22.9591 46.4195 22.8971 46.4042H22.8351C22.8041 46.4042 22.7886 46.4042 22.7577 46.4042C22.7267 46.4042 22.6957 46.4042 22.6647 46.389C22.6182 46.389 22.5718 46.3737 22.5253 46.3737C23.2379 44.816 22.8816 43.3652 21.4408 41.9602C20.4958 41.0439 19.8761 39.6694 19.7522 39.3792C19.4888 38.4935 18.7917 37.5008 17.6453 37.5008C17.5523 37.5008 17.4439 37.5161 17.3509 37.5161C16.8397 37.5924 16.4059 37.8826 16.0961 38.3102C15.7553 37.8979 15.4299 37.5619 15.1201 37.3786C14.6708 37.1037 14.2215 36.951 13.7878 36.951C13.2456 36.951 12.7498 37.1648 12.409 37.5772L12.3935 37.5924C12.3935 37.5619 12.378 37.5466 12.378 37.5161C12.3625 37.4397 12.347 37.3481 12.316 37.2717C12.285 37.1343 12.2541 36.9968 12.2386 36.8594C12.2231 36.7983 12.2231 36.7525 12.2076 36.6914C12.2076 36.6761 12.2076 36.6456 12.1921 36.6303C12.1921 36.6151 12.1921 36.5998 12.1921 36.5998C12.1921 36.5845 12.1921 36.554 12.1766 36.5387C12.1766 36.5082 12.1611 36.4776 12.1611 36.4471C12.1611 36.4165 12.1611 36.386 12.1456 36.3554C12.1456 36.3249 12.1456 36.2943 12.1301 36.2638C12.1301 36.2333 12.1301 36.2027 12.1146 36.1874C12.1146 36.1264 12.0991 36.0805 12.0991 36.0195C12.0991 35.9584 12.0836 35.9126 12.0836 35.8515C12.0836 35.8362 12.0836 35.8209 12.0836 35.8057C12.0836 35.7751 12.0836 35.7598 12.0836 35.7293C12.0836 35.714 12.0836 35.6835 12.0836 35.6682V35.6529C12.0836 35.6224 12.0836 35.6071 12.0836 35.5766C12.0836 35.546 12.0836 35.5155 12.0836 35.4849C12.0836 35.4544 12.0836 35.4239 12.0836 35.3933C12.0836 35.3628 12.0836 35.3475 12.0836 35.317V35.2864C12.0836 35.2559 12.0836 35.2406 12.0836 35.2101V35.149C12.0836 35.1184 12.0836 35.1031 12.0836 35.0726C12.0836 35.0421 12.0836 35.0268 12.0836 34.9962C12.0836 34.9657 12.0836 34.9504 12.0836 34.9199C12.0836 34.8893 12.0836 34.8741 12.0836 34.8435C12.0836 28.4447 17.3354 23.2676 23.8266 23.2676C30.3178 23.2676 35.5696 28.4447 35.5696 34.8435C35.5696 34.8741 35.5696 34.8893 35.5696 34.9199C35.5696 34.9504 35.5696 34.9657 35.5696 34.9962C35.5696 35.0268 35.5696 35.0421 35.5696 35.0726C35.5696 35.0879 35.5696 35.1184 35.5696 35.1337C35.5696 35.149 35.5696 35.1642 35.5696 35.1948C35.5696 35.2253 35.5696 35.2406 35.5696 35.2711C35.5696 35.3017 35.5696 35.3322 35.5696 35.3475C35.5696 35.378 35.5696 35.3933 35.5696 35.4239V35.4391C35.5696 35.4697 35.5696 35.4849 35.5696 35.5155C35.5696 35.5308 35.5696 35.5613 35.5696 35.5766C35.5696 35.6987 35.5541 35.8209 35.5386 35.9431C35.5386 35.9584 35.5386 35.9889 35.5386 36.0042C35.5386 36.0347 35.5386 36.05 35.5231 36.0805C35.5231 36.0958 35.5231 36.1264 35.5231 36.1416C35.5231 36.1874 35.5076 36.218 35.5076 36.2638L35.4921 36.3249C35.4921 36.3554 35.4921 36.3707 35.4766 36.4012C35.4766 36.4318 35.4766 36.4471 35.4611 36.4776C35.4611 36.5082 35.4456 36.5387 35.4456 36.5692L35.4301 36.6456C35.4301 36.6761 35.4147 36.6914 35.4147 36.722C35.4147 36.7525 35.3992 36.7678 35.3992 36.7983C35.3992 36.8289 35.3837 36.8441 35.3837 36.8747C35.3682 36.9205 35.3682 36.9816 35.3527 37.0274C35.3372 37.0732 35.3372 37.1343 35.3217 37.1801C35.3217 37.2106 35.3062 37.2412 35.3062 37.2717C35.3062 37.3023 35.2907 37.3176 35.2907 37.3481C35.2907 37.3786 35.2752 37.3939 35.2752 37.4245C34.9499 37.1037 34.5006 36.9358 34.0204 36.9358C33.5866 36.9358 33.1373 37.0732 32.6881 37.3634C32.3937 37.5466 32.0529 37.8826 31.7121 38.2949C31.4022 37.8673 30.9529 37.5772 30.4572 37.5008C30.3642 37.4855 30.2713 37.4855 30.1629 37.4855C29.0164 37.4855 28.3193 38.4782 28.0559 39.364C27.932 39.6694 27.2968 41.0286 26.3673 41.9602C24.9111 43.3804 24.5392 44.816 25.2364 46.3737ZM37.3666 43.2583C37.3512 43.2735 37.3512 43.2888 37.3512 43.3041C37.3512 43.3193 37.3357 43.3346 37.3357 43.3499C37.3357 43.3652 37.3202 43.3652 37.3202 43.3804C37.3047 43.3957 37.2892 43.4262 37.2892 43.4415C37.2737 43.4721 37.2582 43.4873 37.2272 43.5179C37.2117 43.5331 37.2117 43.5484 37.1962 43.5484C37.1962 43.5637 37.1807 43.5637 37.1807 43.579C37.1652 43.5942 37.1653 43.6095 37.1498 43.6095C36.9484 43.808 36.623 43.9913 36.2667 44.1593C36.2202 44.1746 36.1893 44.1898 36.1428 44.2204L36.0963 44.2356C36.0653 44.2509 36.0343 44.2662 36.0188 44.2662C35.9879 44.2815 35.9569 44.2967 35.9259 44.2967L35.8329 44.3273C35.6315 44.4036 35.4301 44.48 35.2287 44.5716L35.1358 44.6022L35.0428 44.6327C34.9809 44.648 34.9344 44.6785 34.8724 44.6938L34.795 44.7243L34.7175 44.7549L34.671 44.7702C34.64 44.7854 34.6246 44.7854 34.5936 44.8007C34.0049 45.045 33.5711 45.3047 33.6641 45.6254C33.6641 45.6406 33.6641 45.6406 33.6795 45.6559C33.695 45.6865 33.695 45.7017 33.7105 45.717C33.726 45.7323 33.726 45.7476 33.7415 45.7476C33.85 45.8545 34.0359 45.8392 34.2837 45.7476C34.2992 45.7476 34.3302 45.7323 34.3457 45.7323C34.3612 45.7323 34.3767 45.717 34.3922 45.717L34.4077 45.7017C34.4696 45.6712 34.5161 45.6559 34.5781 45.6254C34.5936 45.6254 34.6091 45.6101 34.6246 45.6101C34.9189 45.4727 35.2597 45.2741 35.5851 45.1061C35.6315 45.0756 35.6935 45.0603 35.74 45.0298C35.8174 44.984 35.9104 44.9381 35.9879 44.9076C36.2977 44.7549 36.6075 44.6633 36.8399 44.6633C36.9484 44.6633 37.0568 44.6785 37.1343 44.7396L37.1498 44.7549C37.1653 44.7549 37.1652 44.7702 37.1807 44.7702C37.2117 44.8007 37.2427 44.8312 37.2582 44.8618C37.2582 44.8771 37.2737 44.8771 37.2737 44.8923C37.2737 44.9076 37.2892 44.9076 37.2892 44.9229C37.4131 45.1367 37.3047 45.3658 37.0723 45.5948C36.8554 45.8086 36.4991 46.0224 36.1118 46.221C36.0808 46.2362 36.0498 46.2515 36.0188 46.2668C34.8569 46.8318 33.3232 47.2595 33.3077 47.2595C32.9049 47.3664 32.3162 47.5038 31.6656 47.5954L31.5726 47.6107H31.5571C31.5262 47.6107 31.4797 47.626 31.4487 47.626C31.4177 47.626 31.3712 47.6412 31.3402 47.6412C31.2628 47.6565 31.1853 47.6565 31.1079 47.6718H31.0924C30.8135 47.7023 30.5347 47.7176 30.2558 47.7329C30.1629 47.7329 30.0544 47.7329 29.9615 47.7329C29.946 47.7329 29.9305 47.7329 29.915 47.7329H29.8995C29.884 47.7329 29.8685 47.7329 29.853 47.7329C29.791 47.7329 29.7291 47.7329 29.6826 47.7329C29.5896 47.7329 29.4967 47.7176 29.4037 47.7176C29.4037 47.7176 29.4037 47.7176 29.3883 47.7176C29.3573 47.7176 29.3108 47.7176 29.2798 47.7023C29.2643 47.7023 29.2488 47.7023 29.2178 47.7023C29.1559 47.7023 29.1094 47.6871 29.0474 47.6871C29.0164 47.6871 28.97 47.6718 28.939 47.6718C28.908 47.6718 28.8615 47.6565 28.8305 47.6565C28.815 47.6565 28.7996 47.6565 28.7841 47.6412C28.7376 47.626 28.6756 47.626 28.6291 47.6107C28.5982 47.6107 28.5672 47.5954 28.5362 47.5954H28.5207C28.5052 47.5954 28.4897 47.5802 28.4742 47.5802H28.4587L28.4123 47.5649C28.3968 47.5649 28.3813 47.5496 28.3658 47.5496L28.3193 47.5343C28.3038 47.5343 28.2883 47.5191 28.2728 47.5191C28.2573 47.5191 28.2418 47.5038 28.2263 47.5038L28.1954 47.4885C28.1644 47.4733 28.1334 47.4733 28.1024 47.458L28.0714 47.4427L28.0559 47.4274C28.0095 47.4122 27.963 47.3969 27.932 47.3664L27.901 47.3511C27.8855 47.3511 27.8855 47.3358 27.87 47.3358C27.8545 47.3205 27.8236 47.3205 27.8081 47.3053L27.7771 47.29C27.7461 47.2747 27.7151 47.2595 27.6841 47.2442C27.6686 47.2289 27.6531 47.2289 27.6377 47.2136L27.6067 47.1984C27.5912 47.1831 27.5757 47.1831 27.5602 47.1678L27.5292 47.1525C27.5137 47.1373 27.4982 47.1373 27.4982 47.122L27.4827 47.1067C27.4517 47.0915 27.4363 47.0762 27.4208 47.0609C27.4053 47.0456 27.3898 47.0456 27.3898 47.0304C27.3743 47.0151 27.3588 46.9998 27.3433 46.9998C27.3278 46.9846 27.3123 46.9846 27.3123 46.9693C27.2968 46.954 27.2813 46.954 27.2813 46.9387C27.2658 46.9235 27.2504 46.9235 27.2504 46.9082C27.2349 46.8929 27.2194 46.8777 27.2194 46.8777C27.2039 46.8624 27.1884 46.8471 27.1884 46.8471C27.1729 46.8318 27.1574 46.8166 27.1574 46.8166C27.1419 46.8013 27.1419 46.786 27.1264 46.786C27.1109 46.7708 27.1109 46.7555 27.0954 46.7555C27.0799 46.7249 27.049 46.7097 27.0335 46.6791C27.018 46.6486 26.987 46.618 26.9715 46.5875C26.9715 46.5722 26.956 46.5722 26.956 46.557C26.9405 46.5417 26.925 46.5264 26.925 46.4959C26.9095 46.4806 26.894 46.4653 26.894 46.4348C26.8785 46.4195 26.863 46.4042 26.863 46.3737C26.863 46.3584 26.8476 46.3584 26.8476 46.3431C26.8321 46.3279 26.8321 46.3126 26.8166 46.2973C26.8011 46.2821 26.8011 46.2668 26.7856 46.2515C26.7856 46.2362 26.7701 46.2362 26.7701 46.221C26.7701 46.2057 26.7546 46.2057 26.7546 46.1904C26.7546 46.1904 26.7546 46.1752 26.7391 46.1752C26.7236 46.1752 26.7391 46.1752 26.7391 46.1599C26.7236 46.1446 26.7236 46.1293 26.7081 46.0988C26.7081 46.0835 26.6926 46.0835 26.6926 46.0683L26.6771 46.0377L26.6617 46.0072C26.6462 45.9919 26.6462 45.9766 26.6307 45.9614C26.6307 45.9461 26.6152 45.9461 26.6152 45.9308C26.5997 45.9155 26.5997 45.9003 26.5842 45.8697C26.5842 45.8697 26.5842 45.8545 26.5687 45.8545C26.5532 45.8392 26.5532 45.8239 26.5532 45.8086C26.5532 45.7934 26.5532 45.7934 26.5377 45.7781C26.5377 45.7628 26.5222 45.7475 26.5222 45.7323C26.5222 45.717 26.5222 45.717 26.5067 45.7017C26.4912 45.6712 26.4757 45.6406 26.4757 45.5948C26.4757 45.5796 26.4757 45.5796 26.4603 45.5643C26.4603 45.549 26.4448 45.5337 26.4448 45.5185C26.4293 45.4879 26.4293 45.4727 26.4138 45.4421C26.4138 45.4268 26.4138 45.4268 26.4138 45.4116C26.4138 45.381 26.3983 45.3658 26.3983 45.3352C26.3983 45.3199 26.3983 45.3047 26.3828 45.2894C26.3828 45.2741 26.3828 45.2741 26.3828 45.2589C26.3828 45.2436 26.3828 45.2283 26.3673 45.213C26.3673 45.1825 26.3518 45.1672 26.3518 45.1367C26.3518 45.1214 26.3518 45.1214 26.3518 45.1061C26.3518 45.0909 26.3518 45.0909 26.3518 45.0756C26.3518 45.045 26.3518 45.0145 26.3363 44.984C26.3363 44.9687 26.3363 44.9687 26.3363 44.9534C26.3363 44.9381 26.3363 44.9229 26.3363 44.9076C26.3208 44.2509 26.6617 43.6248 27.3743 42.9223C28.6446 41.67 29.3883 39.8221 29.3883 39.8221C29.3883 39.8221 29.4037 39.7458 29.4502 39.6389C29.4502 39.6236 29.4657 39.6083 29.4657 39.593C29.4812 39.5778 29.4812 39.5472 29.4967 39.532C29.5122 39.5014 29.5277 39.4709 29.5432 39.4403C29.5432 39.4251 29.5587 39.4251 29.5587 39.4098V39.3945C29.5587 39.3945 29.5587 39.3792 29.5742 39.3792C29.5896 39.3334 29.6206 39.2876 29.6516 39.2571C29.6516 39.2418 29.6671 39.2418 29.6671 39.2265C29.6826 39.2112 29.6981 39.1807 29.7136 39.1654C29.7291 39.1502 29.7291 39.1502 29.7446 39.1349C29.7601 39.1196 29.7755 39.1043 29.791 39.0891L29.8065 39.0738C29.884 38.9974 29.9615 38.9364 30.0544 38.9058H30.0699C30.0854 38.9058 30.0854 38.9058 30.1009 38.9058C30.1164 38.9058 30.1164 38.9058 30.1319 38.9058C30.1474 38.9058 30.1783 38.9058 30.1938 38.8905C30.2093 38.8905 30.2093 38.8905 30.2248 38.8905C30.2403 38.8905 30.2558 38.8905 30.2713 38.8905C30.2868 38.8905 30.3023 38.8905 30.3178 38.8905C30.4262 38.9058 30.5347 38.9822 30.6431 39.0738L30.6586 39.0891C30.6741 39.1196 30.7051 39.1349 30.7206 39.1654C30.7361 39.1807 30.7361 39.1807 30.7361 39.196C30.7515 39.2265 30.767 39.2571 30.7825 39.2876C30.7825 39.3029 30.798 39.3181 30.798 39.3334C30.798 39.3334 30.798 39.3487 30.8135 39.3487C30.8135 39.364 30.829 39.3792 30.829 39.3945C30.829 39.4098 30.8445 39.4251 30.8445 39.4403C30.8755 39.5014 30.891 39.5778 30.9065 39.6541C30.9065 39.6694 30.9065 39.6847 30.922 39.6999C30.9375 39.761 30.9375 39.8221 30.9375 39.8832C30.9375 39.8985 30.9375 39.9137 30.9375 39.929C30.9375 39.9748 30.9375 40.0054 30.9375 40.0512C30.9375 40.0665 30.9375 40.0817 30.9375 40.097C30.922 40.2497 30.891 40.4024 30.8445 40.5552C30.829 40.5857 30.829 40.601 30.8135 40.6315C30.8135 40.6468 30.798 40.6621 30.798 40.6773C30.7825 40.7079 30.767 40.7384 30.7515 40.7842C30.7361 40.8148 30.7206 40.8301 30.7051 40.8606C30.6896 40.8759 30.6896 40.8911 30.6741 40.9064C30.6431 40.9522 30.6276 40.9828 30.5966 41.0286L30.5811 41.0591C30.5502 41.0897 30.5347 41.1202 30.5037 41.1508C30.4572 41.2118 30.4107 41.2577 30.3488 41.3187C30.2713 41.3951 30.1783 41.4715 30.0854 41.5478C30.0079 41.6089 29.915 41.67 29.853 41.7464C29.8375 41.7616 29.8375 41.7616 29.822 41.7769C29.5896 42.0212 29.5277 42.2351 29.5896 42.3878C29.5896 42.3878 29.5896 42.403 29.6051 42.403C29.6051 42.4183 29.6206 42.4183 29.6206 42.4336C29.6206 42.4336 29.6206 42.4489 29.6361 42.4489C29.6516 42.4794 29.6671 42.4947 29.6981 42.5252C29.6981 42.5252 29.6981 42.5252 29.7136 42.5405L29.7291 42.5558C29.7446 42.571 29.7446 42.571 29.7601 42.5863H29.7756L29.791 42.6016C29.8065 42.6168 29.822 42.6168 29.8375 42.6321L29.853 42.6474C29.884 42.6627 29.915 42.6779 29.9305 42.6779C29.946 42.6779 29.946 42.6779 29.9615 42.6779H29.9769H29.9924H30.0079H30.0234H30.0389H30.0544C30.0699 42.6779 30.0699 42.6779 30.0854 42.6779H30.1009H30.1164H30.1319H30.1474H30.1629H30.1783H30.1938H30.2093H30.2248H30.2403H30.2558H30.2713H30.2868C30.3023 42.6779 30.3023 42.6779 30.3178 42.6779C30.3488 42.6779 30.3642 42.6627 30.3952 42.6627C30.4262 42.6627 30.4417 42.6474 30.4727 42.6321C30.4882 42.6321 30.4882 42.6321 30.5037 42.6168C30.5192 42.6168 30.5347 42.6016 30.5502 42.6016C30.5656 42.6016 30.5656 42.5863 30.5811 42.5863C30.5966 42.571 30.6121 42.571 30.6276 42.5558C30.6586 42.5405 30.6896 42.5099 30.7206 42.4794L30.7361 42.4641C30.7361 42.4641 30.7361 42.4641 30.7515 42.4489L30.767 42.4336C30.7825 42.4183 30.798 42.403 30.8135 42.3878C30.8445 42.342 30.8755 42.2961 30.9065 42.2503C31.1079 41.8838 31.4642 41.2729 31.867 40.6468C31.8825 40.6162 31.898 40.601 31.9135 40.5704C31.9289 40.5399 31.9444 40.5246 31.9599 40.4941C31.9754 40.4635 32.0064 40.4177 32.0219 40.3872L32.0529 40.3566C32.0684 40.3261 32.0839 40.3108 32.0994 40.2803C32.1613 40.1886 32.2233 40.097 32.2853 39.9901L32.3317 39.9137C32.4247 39.7763 32.5176 39.6389 32.6106 39.5167L32.6571 39.4556C32.719 39.364 32.7965 39.2723 32.8585 39.1807C32.8894 39.1349 32.9359 39.0891 32.9669 39.0433L33.0134 38.9974C33.0134 38.9822 33.0289 38.9822 33.0289 38.9669C33.0444 38.9516 33.0599 38.9364 33.0754 38.9211C33.0754 38.9058 33.0908 38.9058 33.0908 38.8905C33.1063 38.8753 33.1218 38.86 33.1373 38.8447L33.1528 38.8295C33.1683 38.8142 33.1993 38.7836 33.2148 38.7684C33.2303 38.7531 33.2458 38.7378 33.2613 38.7226C33.3387 38.6462 33.4317 38.5698 33.5246 38.5087L33.5401 38.4935L33.5556 38.4782C33.5711 38.4629 33.5866 38.4629 33.6021 38.4477C33.9739 38.2491 34.2682 38.2339 34.4387 38.4018C34.5471 38.5087 34.6091 38.6767 34.5936 38.9211C34.5936 38.9364 34.5936 38.9364 34.5936 38.9516V38.9669C34.5936 38.9822 34.5936 38.9822 34.5936 38.9974C34.5936 39.0127 34.5936 39.028 34.5936 39.0433C34.5936 39.0585 34.5936 39.0738 34.5936 39.0738C34.5936 39.0738 34.5936 39.0738 34.5936 39.0891C34.5936 39.1043 34.5936 39.1043 34.5936 39.1196C34.5936 39.1196 34.5936 39.1196 34.5936 39.1349C34.5936 39.1502 34.5936 39.1502 34.5936 39.1654C34.5936 39.1654 34.5936 39.1654 34.5936 39.1807C34.5936 39.196 34.5936 39.2112 34.5936 39.2265C34.5936 39.2418 34.5936 39.2418 34.5936 39.2418C34.5936 39.2571 34.5781 39.2876 34.5781 39.3029C34.5781 39.3181 34.5626 39.3487 34.5471 39.364C34.5471 39.3792 34.5316 39.3945 34.5316 39.4098C34.5316 39.4251 34.5161 39.4403 34.5006 39.4556C34.4851 39.4861 34.4696 39.5167 34.4387 39.5625C34.4232 39.5778 34.4232 39.593 34.4077 39.6083C34.4077 39.6236 34.3922 39.6236 34.3922 39.6389C34.3767 39.6694 34.3612 39.6999 34.3302 39.7152C34.3147 39.7458 34.2837 39.7763 34.2682 39.8068C34.2373 39.8527 34.2063 39.8832 34.1753 39.929L34.1443 39.9596C34.0978 40.0054 34.0668 40.0665 34.0204 40.1123C33.9894 40.1428 33.9739 40.1734 33.9429 40.2039C33.9274 40.2192 33.9119 40.2497 33.8809 40.265L33.85 40.2955C33.8035 40.3414 33.7725 40.3872 33.726 40.4177L33.695 40.4483C33.6795 40.4635 33.6486 40.4941 33.6331 40.5093C33.6176 40.5246 33.5866 40.5552 33.5711 40.5704L33.5091 40.6315C33.4936 40.6468 33.4627 40.6773 33.4472 40.6926C33.4317 40.7079 33.4007 40.7384 33.3852 40.7537C33.3387 40.7995 33.2922 40.8453 33.2613 40.8911C32.6261 41.5326 31.9754 42.1587 31.743 42.5558C31.7275 42.5863 31.7121 42.6016 31.6966 42.6321C31.6656 42.7085 31.6501 42.7696 31.6656 42.8154C31.6656 42.8306 31.6811 42.8459 31.6811 42.8612C31.6811 42.8765 31.6966 42.8765 31.6966 42.8917C31.6966 42.907 31.7121 42.907 31.7275 42.9223C31.743 42.9376 31.743 42.9375 31.7585 42.9375C31.805 42.9681 31.867 42.9834 31.9135 42.9834H31.9289H31.9444H31.9599H31.9754H31.9909H32.0064H32.0219H32.0374C32.0529 42.9834 32.0684 42.9681 32.0684 42.9681C32.0839 42.9681 32.0994 42.9528 32.1148 42.9528C32.1303 42.9528 32.1458 42.9375 32.1613 42.9375C32.1613 42.9375 32.1768 42.9376 32.1768 42.9223L32.1923 42.907C32.2233 42.8917 32.2388 42.8765 32.2698 42.8612C32.2853 42.8459 32.3162 42.8306 32.3317 42.8154L32.3472 42.8001L32.3627 42.7848L32.3782 42.7696H32.3937C32.4092 42.7696 32.4092 42.7543 32.4247 42.7543C32.4557 42.739 32.4712 42.7085 32.5021 42.6932C32.5176 42.6779 32.5331 42.6779 32.5486 42.6627C32.6106 42.6168 32.6571 42.571 32.7035 42.5252L32.7345 42.4947L32.75 42.4794C32.7965 42.4489 32.8275 42.4183 32.8585 42.3878L32.874 42.3725C32.8895 42.3572 32.8894 42.3572 32.9049 42.342L32.9204 42.3267L32.9359 42.3114L32.9514 42.2961L32.9824 42.2656L32.9979 42.2503C33.0134 42.2503 33.0134 42.2351 33.0289 42.2198L33.0444 42.2045C33.0444 42.2045 33.0444 42.2045 33.0599 42.1892L33.0754 42.174L33.1063 42.1434L33.1218 42.1281C33.1838 42.0671 33.2768 42.006 33.3697 41.9143L33.4007 41.8838L33.4627 41.838C33.4781 41.8227 33.5091 41.8074 33.5246 41.7769C33.6176 41.7005 33.695 41.6395 33.8035 41.5631L33.8654 41.5173C33.9119 41.4715 33.9739 41.4257 34.0359 41.3951C34.0514 41.3798 34.0823 41.3646 34.0978 41.3493C34.1288 41.3187 34.1598 41.3035 34.2063 41.2729C34.2218 41.2577 34.2527 41.2424 34.2682 41.2271C34.4077 41.1355 34.5316 41.0286 34.671 40.937L34.733 40.8911C34.7795 40.8606 34.8105 40.8301 34.8569 40.7995L34.8879 40.769C34.9344 40.7384 34.9654 40.7231 35.0119 40.6926C35.0428 40.6621 35.0893 40.6468 35.1203 40.6315L35.1513 40.601L35.1823 40.5857C35.2133 40.5704 35.2597 40.5399 35.2907 40.5246L35.3217 40.5093L35.3992 40.4635C35.4301 40.4483 35.4456 40.433 35.4766 40.4177L35.4921 40.4024C35.5076 40.3872 35.5231 40.3872 35.5541 40.3719C35.5851 40.3566 35.6006 40.3414 35.6315 40.3414L35.6625 40.3261L35.6935 40.3108C35.709 40.3108 35.7245 40.2955 35.7245 40.2955C35.7865 40.265 35.8639 40.2345 35.9259 40.2039C35.9414 40.2039 35.9414 40.1886 35.9569 40.1886C35.9724 40.1734 36.0033 40.1734 36.0188 40.1581C36.0343 40.1581 36.0653 40.1428 36.0808 40.1428C36.0963 40.1428 36.1118 40.1276 36.1428 40.1276C36.1583 40.1276 36.1583 40.1276 36.1738 40.1123C36.1893 40.1123 36.2202 40.097 36.2357 40.097C36.2667 40.097 36.2977 40.0817 36.3132 40.0817C36.3287 40.0817 36.3287 40.0817 36.3442 40.0817C36.3597 40.0817 36.3752 40.0817 36.4061 40.0817C36.4216 40.0817 36.4216 40.0817 36.4371 40.0817C36.4526 40.0817 36.4681 40.0817 36.4836 40.0817H36.4991C36.5146 40.0817 36.5301 40.0817 36.5456 40.0817H36.5611H36.5766H36.592H36.6075H36.623C36.654 40.097 36.6695 40.097 36.7005 40.1123C36.7005 40.1123 36.716 40.1123 36.716 40.1276L36.7315 40.1428C36.747 40.1581 36.747 40.1581 36.7625 40.1734C36.7625 40.1734 36.7625 40.1734 36.778 40.1886L36.7934 40.2039C36.8554 40.265 36.9019 40.3414 36.9484 40.4177V40.433C36.9484 40.4483 36.9484 40.4483 36.9639 40.4635C36.9793 40.4788 36.9793 40.5093 36.9793 40.5246C36.9948 40.6162 36.9948 40.7079 36.9639 40.7995C36.9639 40.8148 36.9639 40.8148 36.9484 40.8301C36.9329 40.8606 36.9174 40.8911 36.9019 40.9217L36.8864 40.937C36.8399 41.0133 36.7779 41.0897 36.716 41.166L36.7005 41.1813C36.685 41.1966 36.654 41.2271 36.6385 41.2424C36.623 41.2577 36.623 41.2577 36.6075 41.2729C36.592 41.2882 36.592 41.2882 36.5766 41.3035L36.5611 41.3187C36.5456 41.334 36.5456 41.334 36.5301 41.3493C36.5146 41.3646 36.4836 41.3951 36.4526 41.4104L36.4371 41.4256C36.4061 41.4409 36.3906 41.4715 36.3597 41.4867C36.3132 41.5173 36.2667 41.5631 36.2202 41.5936C36.1738 41.6242 36.1273 41.6547 36.0808 41.6853C36.0188 41.7158 35.9724 41.7616 35.9104 41.7922C35.802 41.8533 35.6935 41.9296 35.5696 42.006C35.5386 42.0212 35.5076 42.0518 35.4766 42.0671C35.1668 42.2503 34.8414 42.4489 34.4696 42.6627L34.3767 42.7237C34.2682 42.7848 34.1753 42.8459 34.0823 42.907L34.0359 42.9375L33.9429 42.9986C33.9119 43.0139 33.8809 43.0445 33.85 43.0597C33.819 43.075 33.8035 43.0903 33.7725 43.1055L33.726 43.1361C33.7105 43.1514 33.6795 43.1666 33.6641 43.1819L33.6486 43.1972C33.6331 43.2124 33.6021 43.2277 33.5866 43.243L33.5556 43.2735L33.5091 43.3041L33.4781 43.3346C33.4162 43.3804 33.3542 43.4262 33.2922 43.4568L33.2767 43.4721C33.2458 43.4873 33.2303 43.5026 33.2148 43.5179C33.1993 43.5331 33.1993 43.5331 33.1838 43.5331C33.1373 43.5637 33.0908 43.6095 33.0599 43.6401L33.0444 43.6553C33.0289 43.6706 33.0289 43.6706 33.0134 43.6859L32.9979 43.7011L32.9824 43.7164L32.9669 43.7317C32.9514 43.747 32.9359 43.7622 32.9204 43.7775L32.9049 43.7928C32.8894 43.8233 32.8585 43.8386 32.843 43.8691V43.8844C32.8275 43.8997 32.812 43.9302 32.812 43.9455C32.812 43.9455 32.812 43.9608 32.7965 43.9608V43.976C32.7965 43.976 32.7965 43.976 32.7965 43.9913V44.0066C32.7965 44.0066 32.7965 44.0066 32.7965 44.0218V44.0371C32.7965 44.0524 32.781 44.0677 32.781 44.0829C32.781 44.0829 32.781 44.0829 32.781 44.0982C32.781 44.0982 32.781 44.0982 32.781 44.1135C32.781 44.1135 32.781 44.1135 32.781 44.1287V44.144C32.781 44.144 32.781 44.144 32.781 44.1593V44.1746V44.1898V44.2051V44.2204V44.2356V44.2509V44.2662C32.781 44.2815 32.781 44.2815 32.7965 44.2967V44.312V44.3273C32.7965 44.3273 32.7965 44.3425 32.812 44.3425C32.812 44.3578 32.8275 44.3578 32.8275 44.3731C32.8275 44.3731 32.8275 44.3884 32.843 44.3884L32.8585 44.4036C32.8585 44.4036 32.8585 44.4189 32.874 44.4189C32.874 44.4189 32.874 44.4189 32.874 44.4342C32.874 44.4342 32.874 44.4342 32.8894 44.4342C32.8894 44.4342 32.8894 44.4342 32.9049 44.4342C32.9049 44.4342 32.9049 44.4342 32.9204 44.4342C33.0134 44.4495 33.1993 44.3884 33.4317 44.2509C33.4472 44.2509 33.4627 44.2356 33.4781 44.2356L33.5556 44.1898L33.5866 44.1746C33.6176 44.1593 33.6331 44.144 33.6641 44.1287C33.6795 44.1135 33.695 44.1135 33.7105 44.0982C34.0359 43.9149 34.4232 43.6859 34.8105 43.4568C34.8414 43.4415 34.8879 43.411 34.9189 43.3957L34.9964 43.3499C35.0274 43.3346 35.0738 43.3041 35.1048 43.2888C35.1513 43.2583 35.1978 43.2277 35.2597 43.2124C35.3682 43.1514 35.4921 43.0903 35.6006 43.0292L35.678 42.9986C35.7245 42.9681 35.771 42.9528 35.8174 42.9223C35.8639 42.907 35.9104 42.8765 35.9569 42.8612C36.0033 42.8459 36.0498 42.8154 36.0963 42.8001L36.1428 42.7848C36.4216 42.6779 36.6695 42.6168 36.8709 42.6168C36.9174 42.6168 36.9639 42.6168 36.9948 42.6321C37.0103 42.6321 37.0258 42.6321 37.0413 42.6474C37.0568 42.6474 37.0568 42.6474 37.0723 42.6627C37.0878 42.6627 37.0878 42.6627 37.1033 42.6779H37.1188C37.1343 42.6779 37.1343 42.6779 37.1343 42.6932C37.1498 42.6932 37.1498 42.7085 37.1653 42.7085C37.1962 42.7237 37.2272 42.7543 37.2582 42.7848C37.2737 42.8001 37.2737 42.8154 37.2892 42.8306C37.2892 42.8306 37.2892 42.8459 37.3047 42.8459C37.3047 42.8612 37.3202 42.8612 37.3202 42.8765C37.3202 42.8917 37.3357 42.907 37.3357 42.907C37.3357 42.9223 37.3512 42.9376 37.3512 42.9528C37.3512 42.9681 37.3666 42.9834 37.3666 42.9986C37.3976 43.0139 37.3976 43.1361 37.3666 43.2583Z" fill="black"/>
<path d="M27.6065 31.7433C27.7924 31.8043 27.9319 32.0029 28.0558 32.1861C28.2262 32.4305 28.3966 32.6748 28.6445 32.5374C28.9389 32.3847 29.1867 32.1403 29.3416 31.8502C29.4966 31.56 29.574 31.224 29.5276 30.9033C29.4966 30.5826 29.3726 30.2619 29.1557 30.0023C28.9389 29.7427 28.66 29.5594 28.3347 29.4678C28.0093 29.3761 27.6685 29.3761 27.3587 29.4678C27.0333 29.5594 26.7545 29.7427 26.5376 30.0023C26.3207 30.2619 26.1968 30.5673 26.1658 30.888C26.1348 31.2087 26.1968 31.5447 26.3517 31.8349C26.4601 32.0487 26.7235 31.9418 27.0024 31.8349C27.2192 31.7585 27.4361 31.6822 27.6065 31.7433ZM19.6436 31.7433C19.4577 31.8043 19.3183 32.0029 19.1944 32.1861C19.024 32.4305 18.8535 32.6748 18.6057 32.5374C18.3113 32.3847 18.0634 32.1403 17.9085 31.8502C17.7536 31.56 17.6761 31.224 17.7226 30.9033C17.7536 30.5826 17.8775 30.2619 18.0944 30.0023C18.3113 29.7427 18.5902 29.5594 18.9155 29.4678C19.2408 29.3761 19.5817 29.3761 19.8915 29.4678C20.2168 29.5594 20.4957 29.7427 20.7126 30.0023C20.9295 30.2619 21.0534 30.5673 21.0844 30.888C21.1154 31.2087 21.0534 31.5447 20.8985 31.8349C20.7746 32.0487 20.5267 31.9418 20.2478 31.8349C20.0464 31.7585 19.814 31.6822 19.6436 31.7433ZM26.3827 38.8752C27.6375 37.8978 28.1023 36.2942 28.1023 35.3168C28.1023 34.538 27.5756 34.7823 26.7235 35.1947C26.708 35.2099 26.6925 35.2099 26.677 35.2252C25.9024 35.607 24.849 36.111 23.718 36.111C22.5716 36.111 21.5337 35.607 20.7591 35.2252C19.876 34.7976 19.3338 34.5227 19.3338 35.3168C19.3338 36.3401 19.8295 38.0047 21.1773 38.9668C21.3633 38.6155 21.6111 38.2948 21.921 38.0352C22.2308 37.7756 22.5871 37.5923 22.9744 37.4702C23.1139 37.4243 23.2533 37.6534 23.3927 37.8978C23.5321 38.1268 23.6716 38.3559 23.811 38.3559C23.9659 38.3559 24.1053 38.1268 24.2603 37.8978C24.4152 37.6687 24.5546 37.4396 24.7095 37.4854C24.756 37.5007 24.787 37.516 24.8335 37.5312C25.4841 37.7756 26.0418 38.249 26.3827 38.8752Z" fill="black"/>
<path d="M16.6383 33.118C16.4524 33.2402 16.251 33.3013 16.0341 33.3013C15.8947 33.3013 15.7398 33.2707 15.6159 33.2249C15.4764 33.1638 15.368 33.0875 15.2595 32.9958C15.1511 32.8889 15.0736 32.782 15.0272 32.6446C14.9807 32.5072 14.9497 32.3697 14.9497 32.2323C14.9497 32.0185 15.0117 31.8046 15.1356 31.6367C15.2595 31.4534 15.43 31.316 15.6314 31.2396C15.8328 31.1632 16.0496 31.1327 16.2665 31.1785C16.4834 31.2243 16.6693 31.316 16.8242 31.4687C16.9792 31.6214 17.0876 31.8199 17.1186 32.0185C17.1651 32.2323 17.1341 32.4461 17.0566 32.6446C16.9482 32.8279 16.8088 33.0111 16.6383 33.118ZM32.3473 33.118C32.1614 33.2402 31.96 33.3013 31.7431 33.3013C31.6036 33.3013 31.4487 33.2707 31.3248 33.2249C31.1854 33.1638 31.0769 33.0875 30.9685 32.9958C30.86 32.8889 30.7826 32.782 30.7361 32.6446C30.6896 32.5072 30.6586 32.3697 30.6586 32.2323C30.6586 32.0185 30.7206 31.8046 30.8445 31.6367C30.9685 31.4534 31.1389 31.316 31.3403 31.2396C31.5417 31.1632 31.7586 31.1327 31.9755 31.1785C32.1923 31.2243 32.3782 31.316 32.5332 31.4687C32.6881 31.6214 32.7965 31.8199 32.8275 32.0185C32.874 32.2323 32.843 32.4461 32.7655 32.6446C32.6571 32.8279 32.5177 33.0111 32.3473 33.118Z" fill="black"/>
</svg>
