<?xml version="1.0" encoding="utf-8"?>
<!-- Generator: Adobe Illustrator 27.6.1, SVG Export Plug-In . SVG Version: 6.00 Build 0)  -->
<svg version="1.1" id="Layer_1" xmlns="http://www.w3.org/2000/svg" xmlns:xlink="http://www.w3.org/1999/xlink" x="0px" y="0px"
	 viewBox="0 0 889 184.8" style="enable-background:new 0 0 889 184.8;" xml:space="preserve">
<style type="text/css">
	.st0{fill:#000B1B;}
</style>
<path class="st0" d="M250.4,127.4V58.5h18.2v25.6h20.6V58.5h18.2v68.9h-18.2v-27.3h-20.6v27.3H250.4z"/>
<path class="st0" d="M337.3,128.7c-5.8,0-10-1.9-12.6-5.8c-2.6-4-3.9-9.2-3.9-15.8V74.4H339v30.3c0,3.4,0.4,5.6,1.3,6.8
	c0.9,1.1,2.3,1.7,4,1.7s3.1-0.4,4.2-1.1c1.1-0.7,2.3-1.9,3.4-3.6V74.4h18.2v53h-14.8l-1.3-7h-0.4c-2.1,2.5-4.5,4.6-7.1,6
	C343.9,127.9,340.9,128.7,337.3,128.7z"/>
<path class="st0" d="M401.7,149.2c-4,0-7.7-0.5-11.1-1.4c-3.4-0.8-6.1-2.2-8.2-4.1c-2-1.9-3-4.4-3-7.6c0-4.2,2.5-7.6,7.4-10.2v-0.4
	c-1.3-1-2.5-2.2-3.5-3.6c-0.9-1.5-1.4-3.3-1.4-5.5c0-1.8,0.5-3.6,1.6-5.4c1.1-1.8,2.6-3.3,4.3-4.6V106c-1.9-1.3-3.6-3.1-5.1-5.4
	c-1.4-2.4-2.1-5.1-2.1-8.2c0-4.4,1.1-8,3.2-10.8c2.2-2.9,5-5,8.5-6.4s7.1-2.1,11-2.1c3.1,0,5.9,0.4,8.5,1.3h19.7v13.1h-7.6
	c0.2,0.6,0.4,1.4,0.5,2.4c0.2,1,0.3,2,0.3,3.1c0,4.2-1,7.6-2.9,10.2c-1.9,2.5-4.5,4.4-7.7,5.6c-3.2,1.2-6.9,1.8-10.8,1.8
	c-1.8,0-3.7-0.2-5.9-0.7c-0.8,0.8-1.3,1.8-1.3,3.1c0,1.1,0.6,1.9,1.7,2.4c1.2,0.5,3.1,0.7,5.7,0.7h7.9c6.6,0,11.8,1.1,15.4,3.3
	c3.7,2.1,5.5,5.6,5.5,10.5c0,3.8-1.3,7.2-3.8,10.1c-2.5,2.9-6,5.2-10.6,6.8C413.4,148.4,408,149.2,401.7,149.2z M403.4,99.9
	c1.7,0,3.1-0.6,4.1-1.8c1.1-1.2,1.6-3.1,1.6-5.6c0-2.5-0.5-4.3-1.6-5.4c-1.1-1.2-2.4-1.8-4.1-1.8s-3.1,0.6-4.1,1.8
	c-1.1,1.1-1.6,2.9-1.6,5.4c0,2.5,0.5,4.4,1.6,5.6C400.3,99.3,401.7,99.9,403.4,99.9z M404.7,138c3,0,5.4-0.5,7.4-1.4
	c2-0.8,3-2,3-3.5c0-1.4-0.6-2.3-1.9-2.6c-1.2-0.4-2.9-0.5-5.2-0.5h-4.1c-2.1,0-3.7-0.1-4.9-0.2c-1.1-0.1-2-0.2-2.8-0.4
	c-1.3,1.3-1.9,2.5-1.9,3.8c0,1.7,1,2.9,2.9,3.7C399.1,137.6,401.6,138,404.7,138z"/>
<path class="st0" d="M459.5,149.2c-4,0-7.7-0.5-11.1-1.4c-3.4-0.8-6.1-2.2-8.2-4.1c-2-1.9-3-4.4-3-7.6c0-4.2,2.5-7.6,7.4-10.2v-0.4
	c-1.3-1-2.5-2.2-3.5-3.6c-0.9-1.5-1.4-3.3-1.4-5.5c0-1.8,0.5-3.6,1.6-5.4c1.1-1.8,2.6-3.3,4.3-4.6V106c-1.9-1.3-3.6-3.1-5.1-5.4
	c-1.4-2.4-2.1-5.1-2.1-8.2c0-4.4,1.1-8,3.2-10.8c2.2-2.9,5-5,8.5-6.4s7.1-2.1,11-2.1c3.1,0,5.9,0.4,8.5,1.3h19.7v13.1h-7.6
	c0.2,0.6,0.4,1.4,0.5,2.4c0.2,1,0.3,2,0.3,3.1c0,4.2-1,7.6-2.9,10.2c-1.9,2.5-4.5,4.4-7.7,5.6c-3.2,1.2-6.9,1.8-10.8,1.8
	c-1.8,0-3.7-0.2-5.9-0.7c-0.8,0.8-1.3,1.8-1.3,3.1c0,1.1,0.6,1.9,1.7,2.4c1.2,0.5,3.1,0.7,5.7,0.7h7.9c6.6,0,11.8,1.1,15.4,3.3
	c3.7,2.1,5.5,5.6,5.5,10.5c0,3.8-1.3,7.2-3.8,10.1c-2.5,2.9-6,5.2-10.6,6.8C471.2,148.4,465.8,149.2,459.5,149.2z M461.2,99.9
	c1.7,0,3.1-0.6,4.1-1.8c1.1-1.2,1.6-3.1,1.6-5.6c0-2.5-0.5-4.3-1.6-5.4c-1.1-1.2-2.4-1.8-4.1-1.8s-3.1,0.6-4.1,1.8
	c-1.1,1.1-1.6,2.9-1.6,5.4c0,2.5,0.5,4.4,1.6,5.6C458.1,99.3,459.5,99.9,461.2,99.9z M462.5,138c3,0,5.4-0.5,7.4-1.4
	c2-0.8,3-2,3-3.5c0-1.4-0.6-2.3-1.9-2.6c-1.2-0.4-2.9-0.5-5.2-0.5h-4.1c-2.1,0-3.7-0.1-4.9-0.2c-1.1-0.1-2-0.2-2.8-0.4
	c-1.3,1.3-1.9,2.5-1.9,3.8c0,1.7,1,2.9,2.9,3.7C456.9,137.6,459.4,138,462.5,138z"/>
<path class="st0" d="M498.1,127.4v-53h18.2v53H498.1z M507.2,67.9c-3,0-5.4-0.8-7.2-2.4c-1.8-1.7-2.8-3.9-2.8-6.7
	c0-2.8,0.9-4.9,2.8-6.6c1.8-1.7,4.2-2.5,7.2-2.5s5.4,0.8,7.2,2.5c1.8,1.6,2.8,3.8,2.8,6.6c0,2.8-0.9,5-2.8,6.7
	C512.5,67.1,510.1,67.9,507.2,67.9z"/>
<path class="st0" d="M528.6,127.4v-53h14.8l1.3,6.4h0.4c2.1-2,4.5-3.8,7.2-5.3c2.8-1.6,5.9-2.3,9.5-2.3c5.9,0,10.1,2,12.6,5.9
	c2.6,3.9,3.9,9.1,3.9,15.7v32.6h-18.2V97.1c0-3.4-0.4-5.6-1.3-6.8c-0.8-1.1-2.2-1.7-4-1.7c-1.7,0-3.1,0.4-4.2,1.1
	c-1.1,0.7-2.4,1.7-3.8,3v34.7H528.6z"/>
<path class="st0" d="M609.5,149.2c-4,0-7.7-0.5-11.1-1.4c-3.4-0.8-6.1-2.2-8.2-4.1c-2-1.9-3-4.4-3-7.6c0-4.2,2.5-7.6,7.4-10.2v-0.4
	c-1.3-1-2.5-2.2-3.5-3.6c-0.9-1.5-1.4-3.3-1.4-5.5c0-1.8,0.5-3.6,1.6-5.4c1.1-1.8,2.6-3.3,4.3-4.6V106c-1.9-1.3-3.6-3.1-5.1-5.4
	c-1.4-2.4-2.1-5.1-2.1-8.2c0-4.4,1.1-8,3.2-10.8c2.2-2.9,5-5,8.5-6.4s7.1-2.1,11-2.1c3.1,0,5.9,0.4,8.5,1.3h19.7v13.1h-7.6
	c0.2,0.6,0.4,1.4,0.5,2.4c0.2,1,0.3,2,0.3,3.1c0,4.2-1,7.6-2.9,10.2c-1.9,2.5-4.5,4.4-7.7,5.6c-3.2,1.2-6.8,1.8-10.8,1.8
	c-1.8,0-3.7-0.2-5.9-0.7c-0.8,0.8-1.3,1.8-1.3,3.1c0,1.1,0.6,1.9,1.7,2.4c1.2,0.5,3.1,0.7,5.7,0.7h7.9c6.6,0,11.8,1.1,15.4,3.3
	c3.7,2.1,5.5,5.6,5.5,10.5c0,3.8-1.3,7.2-3.8,10.1c-2.5,2.9-6,5.2-10.6,6.8C621.2,148.4,615.8,149.2,609.5,149.2z M611.2,99.9
	c1.7,0,3.1-0.6,4.1-1.8c1.1-1.2,1.6-3.1,1.6-5.6c0-2.5-0.5-4.3-1.6-5.4c-1.1-1.2-2.4-1.8-4.1-1.8s-3.1,0.6-4.1,1.8
	c-1.1,1.1-1.6,2.9-1.6,5.4c0,2.5,0.5,4.4,1.6,5.6C608.1,99.3,609.5,99.9,611.2,99.9z M612.5,138c3,0,5.4-0.5,7.4-1.4
	c2-0.8,3-2,3-3.5c0-1.4-0.6-2.3-1.9-2.6c-1.2-0.4-2.9-0.5-5.2-0.5h-4.1c-2.1,0-3.7-0.1-4.9-0.2c-1.1-0.1-2-0.2-2.8-0.4
	c-1.3,1.3-1.9,2.5-1.9,3.8c0,1.7,1,2.9,2.9,3.7C606.9,137.6,609.4,138,612.5,138z"/>
<path class="st0" d="M670.7,127.4V58.5h44.9v15.3h-26.7v13.1h23v15.3H689v25.2H670.7z"/>
<path class="st0" d="M735.6,128.7c-3.3,0-6.2-0.7-8.6-2.2c-2.3-1.6-4.1-3.6-5.4-6c-1.3-2.5-1.9-5.2-1.9-8.1c0-5.5,2.3-9.8,6.8-12.9
	c4.5-3.2,11.9-5.3,22-6.4c-0.4-3.7-2.9-5.5-7.4-5.5c-1.9,0-3.9,0.4-6,1.2c-2.1,0.7-4.6,1.8-7.3,3.3l-6.4-11.9
	c3.7-2.3,7.5-4,11.3-5.2c3.9-1.2,7.9-1.8,12-1.8c6.9,0,12.3,2,16.2,5.9s5.8,10.2,5.8,18.9v29.4h-14.8l-1.3-5.1h-0.4
	c-2.1,1.9-4.4,3.5-6.8,4.7C741.1,128.1,738.5,128.7,735.6,128.7z M741.9,114.7c1.5,0,2.7-0.3,3.7-1s1.9-1.6,2.9-2.6v-7.2
	c-4.3,0.6-7.3,1.6-9,2.9c-1.6,1.3-2.4,2.6-2.4,4.1C737.1,113.4,738.7,114.7,741.9,114.7z"/>
<path class="st0" d="M802.6,128.7c-5,0-9.5-1.1-13.6-3.3c-4-2.2-7.2-5.3-9.6-9.4c-2.3-4.2-3.5-9.2-3.5-15c0-5.9,1.3-10.8,3.9-14.9
	c2.7-4.2,6.2-7.3,10.5-9.5s9-3.3,14-3.3c3.2,0,6,0.5,8.6,1.5s4.9,2.3,6.9,4l-8.5,11.7c-1.1-1-2.2-1.7-3.1-2
	c-0.9-0.4-1.9-0.5-2.9-0.5c-3.4,0-6,1.2-7.9,3.6c-1.9,2.3-2.9,5.5-2.9,9.5s1,7.2,3,9.6c2,2.3,4.4,3.5,7.2,3.5c1.5,0,2.9-0.3,4.3-1
	c1.5-0.7,2.9-1.5,4.1-2.4l7,11.9c-2.6,2.3-5.5,4-8.7,4.9C808.3,128.2,805.3,128.7,802.6,128.7z"/>
<path class="st0" d="M849.9,128.7c-5.2,0-9.8-1.1-14-3.3c-4.1-2.2-7.3-5.3-9.7-9.4c-2.4-4.2-3.6-9.2-3.6-15c0-5.7,1.2-10.6,3.6-14.7
	c2.5-4.2,5.6-7.4,9.5-9.6c3.9-2.3,8-3.4,12.3-3.4c5.2,0,9.5,1.2,12.9,3.5c3.5,2.3,6,5.3,7.6,9.2c1.7,3.9,2.5,8.2,2.5,12.9
	c0,1.6-0.1,3.1-0.3,4.6c-0.1,1.4-0.3,2.4-0.4,3.1h-30.2c0.8,3.2,2.4,5.4,4.6,6.7c2.2,1.2,4.8,1.8,7.7,1.8c3.4,0,7-1.1,10.8-3.2
	l5.9,10.8c-2.8,2-6,3.5-9.5,4.6C856.2,128.1,852.9,128.7,849.9,128.7z M840,94.6h15.7c0-2-0.5-3.8-1.6-5.3c-1-1.6-2.9-2.3-5.6-2.3
	c-2,0-3.7,0.6-5.3,1.8C841.6,89.9,840.6,91.9,840,94.6z"/>
<path class="st0" d="M202.3,148.6c1-1.5,1.7-3.2,2-5s0.2-3.6-0.2-5.4c-0.7-2.5-2-4.6-3.9-6.1c0.9-1.5,1.5-3.1,1.7-4.8
	c0.5-3.7-0.7-7.4-3.5-10.4c-2.2-2.4-5.2-3.6-8.6-3.6c-0.4,0-0.8,0-1.2,0.1c2.6-8.2,3.9-16.7,3.9-25.3c0-46.7-37.8-84.5-84.5-84.5
	S23.5,41.4,23.5,88.1c0,8.6,1.3,17.1,3.8,25.2h-0.1c-3.4,0-6.4,1.3-8.6,3.6c-2.8,3-4,6.7-3.5,10.4c0.2,1.7,0.8,3.3,1.7,4.8
	c-1.9,1.5-3.2,3.6-3.9,6.1c-0.5,1.7-0.5,3.6-0.2,5.4c0.3,1.8,1,3.5,2,5c-0.2,0.3-0.3,0.6-0.5,0.9c-1.7,3.2-1.8,6.8-0.3,10.1
	c2.2,5.1,7.8,9,18.6,13.3c6.7,2.7,12.8,4.4,12.9,4.4c8.9,2.3,16.9,3.5,23.8,3.5c11.4,0,19.9-3.1,25.4-9.3c9.2,1.5,18.6,1.4,27.7-0.2
	c5.4,6.3,14,9.4,25.5,9.4c6.9,0,15-1.2,23.8-3.5c0.1,0,6.2-1.7,12.9-4.4c10.8-4.3,16.3-8.3,18.6-13.3c1.5-3.3,1.4-6.9-0.3-10.1
	C202.7,149.2,202.5,148.9,202.3,148.6z M90.7,161.8c-0.4,0.8-0.9,1.6-1.5,2.4c-1.4,2.1-3.3,3.6-5.4,4.8c-4.1,2.2-9.3,3-14.6,3
	c-8.3,0-16.9-1.9-21.7-3.2c-0.2-0.1-29.3-8.3-25.6-15.3c0.6-1.2,1.6-1.6,2.9-1.6c5.2,0,14.6,7.7,18.7,7.7c0.9,0,1.5-0.4,1.8-1.3
	c1.7-6.2-26.3-8.8-23.9-17.8c0.4-1.6,1.5-2.2,3.1-2.2c6.9,0,22.2,12.1,25.5,12.1c0.2,0,0.4-0.1,0.5-0.2c0,0,0,0,0-0.1
	c1.5-2.5,0.6-4.3-9.7-10.6c-0.3-0.2-0.7-0.4-1-0.6c-11.4-6.9-19.4-11-14.8-16c0.5-0.6,1.3-0.8,2.2-0.8c1.1,0,2.4,0.4,3.8,1
	c6,2.5,14.4,9.5,17.8,12.5c1,0.9,1.6,1.4,1.6,1.4s4.4,4.6,7.1,4.6c0.6,0,1.1-0.2,1.5-0.8c1.9-3.2-17.6-17.9-18.7-24
	c-0.7-4.1,0.5-6.2,2.9-6.2c1.1,0,2.5,0.5,4,1.4c4.7,3,13.6,18.4,16.9,24.4c1.1,2,3,2.9,4.7,2.9c3.4,0,6-3.3,0.3-7.6
	c-8.5-6.4-5.5-16.8-1.5-17.5c0.2,0,0.3,0,0.5,0c3.7,0,5.3,6.4,5.3,6.4s4.8,12,13,20.3C94,148,95,154.1,90.7,161.8z M117.3,163.2
	l-0.4,0.1c-0.2,0-0.5,0.1-0.7,0.1c-0.4,0-0.8,0.1-1.2,0.1h-0.4h-0.3h-0.5c-0.2,0-0.4,0-0.5,0h-0.5h-0.1c-0.1,0-0.3,0-0.4,0h-0.2
	c-0.2,0-0.3,0-0.5,0H111h-0.5h-0.4h-0.2c-0.1,0-0.2,0-0.3,0s-0.1,0-0.2,0c-0.1,0-0.2,0-0.3,0h-0.4c-0.2,0-0.4,0-0.6,0
	c-0.5,0-1,0-1.5,0h-0.4c-0.1,0-0.2,0-0.3,0h-0.4H105h-0.5h-0.1H104c-0.1,0-0.2,0-0.4,0h-0.3c-0.4,0-0.7,0-1.1-0.1h-0.4
	c-0.2,0-0.3,0-0.5,0s-0.4,0-0.6-0.1c-0.3,0-0.6-0.1-0.9-0.1l0,0c4.6-10.2,2.3-19.7-7-28.9c-6.1-6-10.1-15-10.9-16.9
	c-1.7-5.8-6.2-12.3-13.6-12.3c-0.6,0-1.3,0.1-1.9,0.1c-3.3,0.5-6.1,2.4-8.1,5.2c-2.2-2.7-4.3-4.9-6.3-6.1c-2.9-1.8-5.8-2.8-8.6-2.8
	c-3.5,0-6.7,1.4-8.9,4.1l-0.1,0.1c0-0.2-0.1-0.3-0.1-0.5l0,0c-0.1-0.5-0.2-1.1-0.4-1.6c-0.2-0.9-0.4-1.8-0.5-2.7
	c-0.1-0.4-0.1-0.7-0.2-1.1l0,0c0-0.1,0-0.3-0.1-0.4c0-0.1,0-0.2,0-0.2c0-0.1,0-0.3-0.1-0.4c0-0.2-0.1-0.4-0.1-0.6
	c0-0.2,0-0.4-0.1-0.6c0-0.2,0-0.4-0.1-0.6c0-0.2,0-0.4-0.1-0.5l0,0c0-0.4-0.1-0.7-0.1-1.1c0-0.4-0.1-0.7-0.1-1.1c0-0.1,0-0.2,0-0.3
	c0-0.2,0-0.3,0-0.5c0-0.1,0-0.3,0-0.4V93c0-0.2,0-0.3,0-0.5s0-0.4,0-0.6s0-0.4,0-0.6s0-0.3,0-0.5v-0.2c0-0.2,0-0.3,0-0.5v-0.4
	c0-0.2,0-0.3,0-0.5s0-0.3,0-0.5s0-0.3,0-0.5s0-0.3,0-0.5c0-41.9,33.9-75.8,75.8-75.8S184,45.8,184,87.7c0,0.2,0,0.3,0,0.5
	s0,0.3,0,0.5s0,0.3,0,0.5c0,0.1,0,0.3,0,0.4s0,0.2,0,0.4c0,0.2,0,0.3,0,0.5l0,0c0,0.2,0,0.4,0,0.5c0,0.2,0,0.3,0,0.5v0.1
	c0,0.2,0,0.3,0,0.5c0,0.1,0,0.3,0,0.4c0,0.8-0.1,1.6-0.2,2.4c0,0.1,0,0.3,0,0.4l0,0c0,0.2,0,0.3-0.1,0.5c0,0.1,0,0.3,0,0.4
	c0,0.3-0.1,0.5-0.1,0.8l-0.1,0.4c0,0.2,0,0.3-0.1,0.5c0,0.2,0,0.3-0.1,0.5c0,0.2-0.1,0.4-0.1,0.6l-0.1,0.5c0,0.2-0.1,0.3-0.1,0.5
	s-0.1,0.3-0.1,0.5s-0.1,0.3-0.1,0.5c-0.1,0.3-0.1,0.7-0.2,1c-0.1,0.3-0.1,0.7-0.2,1c0,0.2-0.1,0.4-0.1,0.6c0,0.2-0.1,0.3-0.1,0.5
	s-0.1,0.3-0.1,0.5c-2.1-2.1-5-3.2-8.1-3.2c-2.8,0-5.7,0.9-8.6,2.8c-1.9,1.2-4.1,3.4-6.3,6.1c-2-2.8-4.9-4.7-8.1-5.2
	c-0.6-0.1-1.2-0.1-1.9-0.1c-7.4,0-11.9,6.5-13.6,12.3c-0.8,2-4.9,10.9-10.9,17C115.2,143.6,112.8,153,117.3,163.2z M195.6,142.8
	C195.6,142.8,195.5,142.8,195.6,142.8c-0.1,0.1-0.1,0.2-0.1,0.3s-0.1,0.2-0.1,0.3s-0.1,0.1-0.1,0.2c-0.1,0.1-0.2,0.3-0.2,0.4
	c-0.1,0.2-0.2,0.3-0.4,0.5c-0.1,0.1-0.1,0.2-0.2,0.2c0,0.1-0.1,0.1-0.1,0.2c-0.1,0.1-0.1,0.2-0.2,0.2c-1.3,1.3-3.4,2.5-5.7,3.6
	c-0.3,0.1-0.5,0.2-0.8,0.4l-0.3,0.1c-0.2,0.1-0.4,0.2-0.5,0.2c-0.2,0.1-0.4,0.2-0.6,0.2l-0.6,0.2c-1.3,0.5-2.6,1-3.9,1.6l-0.6,0.2
	l-0.6,0.2c-0.4,0.1-0.7,0.3-1.1,0.4l-0.5,0.2l-0.5,0.2l-0.3,0.1c-0.2,0.1-0.3,0.1-0.5,0.2c-3.8,1.6-6.6,3.3-6,5.4
	c0,0.1,0,0.1,0.1,0.2c0.1,0.2,0.1,0.3,0.2,0.4c0.1,0.1,0.1,0.2,0.2,0.2c0.7,0.7,1.9,0.6,3.5,0c0.1,0,0.3-0.1,0.4-0.1
	c0.1,0,0.2-0.1,0.3-0.1l0.1-0.1c0.4-0.2,0.7-0.3,1.1-0.5c0.1,0,0.2-0.1,0.3-0.1c1.9-0.9,4.1-2.2,6.2-3.3c0.3-0.2,0.7-0.3,1-0.5
	c0.5-0.3,1.1-0.6,1.6-0.8c2-1,4-1.6,5.5-1.6c0.7,0,1.4,0.1,1.9,0.5l0.1,0.1c0.1,0,0.1,0.1,0.2,0.1c0.2,0.2,0.4,0.4,0.5,0.6
	c0,0.1,0.1,0.1,0.1,0.2c0,0.1,0.1,0.1,0.1,0.2c0.8,1.4,0.1,2.9-1.4,4.4c-1.4,1.4-3.7,2.8-6.2,4.1c-0.2,0.1-0.4,0.2-0.6,0.3
	c-7.5,3.7-17.4,6.5-17.5,6.5c-2.6,0.7-6.4,1.6-10.6,2.2l-0.6,0.1h-0.1c-0.2,0-0.5,0.1-0.7,0.1s-0.5,0.1-0.7,0.1
	c-0.5,0.1-1,0.1-1.5,0.2h-0.1c-1.8,0.2-3.6,0.3-5.4,0.4l0,0c-0.6,0-1.3,0-1.9,0c-0.1,0-0.2,0-0.3,0h-0.1c-0.1,0-0.2,0-0.3,0
	c-0.4,0-0.8,0-1.1,0c-0.6,0-1.2-0.1-1.8-0.1c0,0,0,0-0.1,0c-0.2,0-0.5,0-0.7-0.1c-0.1,0-0.2,0-0.4,0c-0.4,0-0.7-0.1-1.1-0.1
	c-0.2,0-0.5-0.1-0.7-0.1s-0.5-0.1-0.7-0.1c-0.1,0-0.2,0-0.3-0.1l0,0c-0.3-0.1-0.7-0.1-1-0.2c-0.2,0-0.4-0.1-0.6-0.1h-0.1
	c-0.1,0-0.2-0.1-0.3-0.1h-0.1l-0.3-0.1c-0.1,0-0.2-0.1-0.3-0.1l0,0l-0.3-0.1c-0.1,0-0.2-0.1-0.3-0.1s-0.2-0.1-0.3-0.1l-0.2-0.1
	c-0.2-0.1-0.4-0.1-0.6-0.2l-0.2-0.1l-0.1-0.1c-0.3-0.1-0.6-0.2-0.8-0.4l-0.2-0.1l0,0c-0.1,0-0.1-0.1-0.2-0.1
	c-0.1-0.1-0.3-0.1-0.4-0.2l0,0l-0.2-0.1c-0.2-0.1-0.4-0.2-0.6-0.3c-0.1-0.1-0.2-0.1-0.3-0.2l-0.2-0.1c-0.1-0.1-0.2-0.1-0.3-0.2
	l-0.2-0.1c-0.1-0.1-0.2-0.1-0.2-0.2l-0.1-0.1c-0.2-0.1-0.3-0.2-0.4-0.3c-0.1-0.1-0.2-0.1-0.2-0.2c-0.1-0.1-0.2-0.2-0.3-0.2
	c-0.1-0.1-0.2-0.1-0.2-0.2l0,0c-0.1-0.1-0.2-0.1-0.2-0.2c-0.1-0.1-0.2-0.1-0.2-0.2l0,0c-0.1-0.1-0.2-0.2-0.2-0.2
	c-0.1-0.1-0.2-0.2-0.2-0.2c-0.1-0.1-0.2-0.2-0.2-0.2c-0.1-0.1-0.1-0.2-0.2-0.2l0,0c-0.1-0.1-0.1-0.2-0.2-0.2
	c-0.1-0.2-0.3-0.3-0.4-0.5c-0.1-0.2-0.3-0.4-0.4-0.6c0-0.1-0.1-0.1-0.1-0.2c-0.1-0.1-0.2-0.2-0.2-0.4c-0.1-0.1-0.2-0.2-0.2-0.4
	c-0.1-0.1-0.2-0.2-0.2-0.4c0-0.1-0.1-0.1-0.1-0.2c-0.1-0.1-0.1-0.2-0.2-0.3l0,0c-0.1-0.1-0.1-0.2-0.2-0.3c0-0.1-0.1-0.1-0.1-0.2
	c0-0.1-0.1-0.1-0.1-0.2c0,0,0-0.1-0.1-0.1s0,0,0-0.1c-0.1-0.1-0.1-0.2-0.2-0.4c0-0.1-0.1-0.1-0.1-0.2l-0.1-0.2l-0.1-0.2
	c-0.1-0.1-0.1-0.2-0.2-0.3c0-0.1-0.1-0.1-0.1-0.2c-0.1-0.1-0.1-0.2-0.2-0.4c0,0,0-0.1-0.1-0.1c-0.1-0.1-0.1-0.2-0.1-0.3
	s0-0.1-0.1-0.2c0-0.1-0.1-0.2-0.1-0.3s0-0.1-0.1-0.2c-0.1-0.2-0.2-0.4-0.2-0.7c0-0.1,0-0.1-0.1-0.2c0-0.1-0.1-0.2-0.1-0.3
	c-0.1-0.2-0.1-0.3-0.2-0.5c0-0.1,0-0.1,0-0.2c0-0.2-0.1-0.3-0.1-0.5c0-0.1,0-0.2-0.1-0.3c0-0.1,0-0.1,0-0.2c0-0.1,0-0.2-0.1-0.3
	c0-0.2-0.1-0.3-0.1-0.5c0-0.1,0-0.1,0-0.2c0-0.1,0-0.1,0-0.2c0-0.2,0-0.4-0.1-0.6c0-0.1,0-0.1,0-0.2c0-0.1,0-0.2,0-0.3
	c-0.1-4.3,2.1-8.4,6.7-13c8.2-8.2,13-20.3,13-20.3s0.1-0.5,0.4-1.2c0-0.1,0.1-0.2,0.1-0.3c0.1-0.1,0.1-0.3,0.2-0.4
	c0.1-0.2,0.2-0.4,0.3-0.6c0-0.1,0.1-0.1,0.1-0.2v-0.1c0,0,0-0.1,0.1-0.1c0.1-0.3,0.3-0.6,0.5-0.8c0-0.1,0.1-0.1,0.1-0.2
	c0.1-0.1,0.2-0.3,0.3-0.4c0.1-0.1,0.1-0.1,0.2-0.2c0.1-0.1,0.2-0.2,0.3-0.3l0.1-0.1c0.5-0.5,1-0.9,1.6-1.1h0.1c0.1,0,0.1,0,0.2,0
	c0.1,0,0.1,0,0.2,0l0,0c0.1,0,0.3,0,0.4-0.1l0,0c0.1,0,0.1,0,0.2,0c0.1,0,0.2,0,0.3,0s0.2,0,0.3,0c0.7,0.1,1.4,0.6,2.1,1.2l0.1,0.1
	c0.1,0.2,0.3,0.3,0.4,0.5c0.1,0.1,0.1,0.1,0.1,0.2c0.1,0.2,0.2,0.4,0.3,0.6c0,0.1,0.1,0.2,0.1,0.3c0,0,0,0.1,0.1,0.1
	c0,0.1,0.1,0.2,0.1,0.3s0.1,0.2,0.1,0.3c0.2,0.4,0.3,0.9,0.4,1.4c0,0.1,0,0.2,0.1,0.3c0.1,0.4,0.1,0.8,0.1,1.2c0,0.1,0,0.2,0,0.3
	c0,0.3,0,0.5,0,0.8c0,0.1,0,0.2,0,0.3c-0.1,1-0.3,2-0.6,3c-0.1,0.2-0.1,0.3-0.2,0.5c0,0.1-0.1,0.2-0.1,0.3c-0.1,0.2-0.2,0.4-0.3,0.7
	c-0.1,0.2-0.2,0.3-0.3,0.5c-0.1,0.1-0.1,0.2-0.2,0.3c-0.2,0.3-0.3,0.5-0.5,0.8l-0.1,0.2c-0.2,0.2-0.3,0.4-0.5,0.6
	c-0.3,0.4-0.6,0.7-1,1.1c-0.5,0.5-1.1,1-1.7,1.5c-0.5,0.4-1.1,0.8-1.5,1.3c-0.1,0.1-0.1,0.1-0.2,0.2c-1.5,1.6-1.9,3-1.5,4
	c0,0,0,0.1,0.1,0.1c0,0.1,0.1,0.1,0.1,0.2c0,0,0,0.1,0.1,0.1c0.1,0.2,0.2,0.3,0.4,0.5c0,0,0,0,0.1,0.1l0.1,0.1
	c0.1,0.1,0.1,0.1,0.2,0.2h0.1l0.1,0.1c0.1,0.1,0.2,0.1,0.3,0.2l0.1,0.1c0.2,0.1,0.4,0.2,0.5,0.2s0.1,0,0.2,0h0.1h0.1h0.1h0.1h0.1
	h0.1c0.1,0,0.1,0,0.2,0h0.1h0.1h0.1h0.1h0.1h0.1l0,0h0.1l0,0h0.1h0.1h0.1h0.1h0.1h0.1c0.1,0,0.1,0,0.2,0c0.2,0,0.3-0.1,0.5-0.1
	s0.3-0.1,0.5-0.2c0.1,0,0.1,0,0.2-0.1c0.1,0,0.2-0.1,0.3-0.1s0.1-0.1,0.2-0.1c0.1-0.1,0.2-0.1,0.3-0.2c0.2-0.1,0.4-0.3,0.6-0.5
	l0.1-0.1c0,0,0,0,0.1-0.1l0.1-0.1c0.1-0.1,0.2-0.2,0.3-0.3c0.2-0.3,0.4-0.6,0.6-0.9c1.3-2.4,3.6-6.4,6.2-10.5
	c0.1-0.2,0.2-0.3,0.3-0.5s0.2-0.3,0.3-0.5s0.3-0.5,0.4-0.7l0.2-0.2c0.1-0.2,0.2-0.3,0.3-0.5c0.4-0.6,0.8-1.2,1.2-1.9l0.3-0.5
	c0.6-0.9,1.2-1.8,1.8-2.6l0.3-0.4c0.4-0.6,0.9-1.2,1.3-1.8c0.2-0.3,0.5-0.6,0.7-0.9l0.3-0.3c0-0.1,0.1-0.1,0.1-0.2
	c0.1-0.1,0.2-0.2,0.3-0.3c0-0.1,0.1-0.1,0.1-0.2c0.1-0.1,0.2-0.2,0.3-0.3l0.1-0.1c0.1-0.1,0.3-0.3,0.4-0.4c0.1-0.1,0.2-0.2,0.3-0.3
	c0.5-0.5,1.1-1,1.7-1.4l0.1-0.1l0.1-0.1c0.1-0.1,0.2-0.1,0.3-0.2c2.4-1.3,4.3-1.4,5.4-0.3c0.7,0.7,1.1,1.8,1,3.4c0,0.1,0,0.1,0,0.2
	v0.1c0,0.1,0,0.1,0,0.2c0,0.1,0,0.2,0,0.3s0,0.2,0,0.2s0,0,0,0.1s0,0.1,0,0.2c0,0,0,0,0,0.1s0,0.1,0,0.2c0,0,0,0,0,0.1s0,0.2,0,0.3
	s0,0.1,0,0.1c0,0.1-0.1,0.3-0.1,0.4c0,0.1-0.1,0.3-0.2,0.4c0,0.1-0.1,0.2-0.1,0.3s-0.1,0.2-0.2,0.3c-0.1,0.2-0.2,0.4-0.4,0.7
	c-0.1,0.1-0.1,0.2-0.2,0.3c0,0.1-0.1,0.1-0.1,0.2c-0.1,0.2-0.2,0.4-0.4,0.5c-0.1,0.2-0.3,0.4-0.4,0.6c-0.2,0.3-0.4,0.5-0.6,0.8
	l-0.2,0.2c-0.3,0.3-0.5,0.7-0.8,1c-0.2,0.2-0.3,0.4-0.5,0.6c-0.1,0.1-0.2,0.3-0.4,0.4l-0.2,0.2c-0.3,0.3-0.5,0.6-0.8,0.8l-0.2,0.2
	c-0.1,0.1-0.3,0.3-0.4,0.4c-0.1,0.1-0.3,0.3-0.4,0.4l-0.4,0.4c-0.1,0.1-0.3,0.3-0.4,0.4c-0.1,0.1-0.3,0.3-0.4,0.4
	c-0.3,0.3-0.6,0.6-0.8,0.9c-4.1,4.2-8.3,8.3-9.8,10.9c-0.1,0.2-0.2,0.3-0.3,0.5c-0.2,0.5-0.3,0.9-0.2,1.2c0,0.1,0.1,0.2,0.1,0.3
	s0.1,0.1,0.1,0.2c0,0.1,0.1,0.1,0.2,0.2c0.1,0.1,0.1,0.1,0.2,0.1c0.3,0.2,0.7,0.3,1,0.3h0.1h0.1h0.1h0.1l0,0h0.1l0,0h0.1l0,0h0.1
	h0.1c0.1,0,0.2-0.1,0.2-0.1c0.1,0,0.2-0.1,0.3-0.1s0.2-0.1,0.3-0.1c0,0,0.1,0,0.1-0.1l0.1-0.1c0.2-0.1,0.3-0.2,0.5-0.3
	c0.1-0.1,0.3-0.2,0.4-0.3l0.1-0.1l0.1-0.1l0.1-0.1h0.1c0.1,0,0.1-0.1,0.2-0.1c0.2-0.1,0.3-0.3,0.5-0.4l0,0c0.1-0.1,0.2-0.1,0.3-0.2
	c0.4-0.3,0.7-0.6,1-0.9l0.2-0.2l0,0l0.1-0.1c0.3-0.2,0.5-0.4,0.7-0.6l0.1-0.1c0.1-0.1,0.1-0.1,0.2-0.2l0.1-0.1l0,0l0,0l0.1-0.1
	l0.1-0.1l0,0l0,0l0,0l0,0l0,0l0.2-0.2l0.1-0.1c0.1,0,0.1-0.1,0.2-0.2l0.1-0.1c0,0,0,0,0.1-0.1l0.1-0.1l0.2-0.2l0.1-0.1
	c0.4-0.4,1-0.8,1.6-1.4l0.2-0.2l0.4-0.3c0.1-0.1,0.3-0.2,0.4-0.4c0.6-0.5,1.1-0.9,1.8-1.4l0.4-0.3c0.3-0.3,0.7-0.6,1.1-0.8
	c0.1-0.1,0.3-0.2,0.4-0.3c0.2-0.2,0.4-0.3,0.7-0.5c0.1-0.1,0.3-0.2,0.4-0.3c0.9-0.6,1.7-1.3,2.6-1.9l0.4-0.3
	c0.3-0.2,0.5-0.4,0.8-0.6l0.2-0.2c0.3-0.2,0.5-0.3,0.8-0.5c0.2-0.2,0.5-0.3,0.7-0.4l0.2-0.2l0.2-0.1c0.2-0.1,0.5-0.3,0.7-0.4
	l0.2-0.1l0.5-0.3c0.2-0.1,0.3-0.2,0.5-0.3l0.1-0.1c0.1-0.1,0.2-0.1,0.4-0.2c0.2-0.1,0.3-0.2,0.5-0.2l0.2-0.1l0.2-0.1
	c0.1,0,0.2-0.1,0.2-0.1c0.4-0.2,0.9-0.4,1.3-0.6c0.1,0,0.1-0.1,0.2-0.1c0.1-0.1,0.3-0.1,0.4-0.2c0.1,0,0.3-0.1,0.4-0.1
	c0.1,0,0.2-0.1,0.4-0.1l0,0c0.1,0,0.1,0,0.2-0.1l0,0c0.1,0,0.3-0.1,0.4-0.1l0,0c0.2,0,0.4-0.1,0.5-0.1s0.1,0,0.2,0
	c0.1,0,0.2,0,0.4,0c0.1,0,0.1,0,0.2,0c0.1,0,0.2,0,0.3,0h0.1c0.1,0,0.2,0,0.3,0h0.1l0,0h0.1h0.1l0,0h0.1h0.1
	c0.2,0.1,0.3,0.1,0.5,0.2c0,0,0.1,0,0.1,0.1l0.1,0.1c0.1,0.1,0.1,0.1,0.2,0.2l0,0c0,0,0,0,0.1,0.1l0.1,0.1c0.4,0.4,0.7,0.9,1,1.4
	v0.1c0,0.1,0,0.1,0.1,0.2c0.1,0.1,0.1,0.3,0.1,0.4c0.1,0.6,0.1,1.2-0.1,1.8c0,0.1,0,0.1-0.1,0.2c-0.1,0.2-0.2,0.4-0.3,0.6l-0.1,0.1
	c-0.3,0.5-0.7,1-1.1,1.5l-0.1,0.1c-0.1,0.1-0.3,0.3-0.4,0.4c-0.1,0.1-0.1,0.1-0.2,0.2c-0.1,0.1-0.1,0.1-0.2,0.2l-0.1,0.1
	c-0.1,0.1-0.1,0.1-0.2,0.2c-0.1,0.1-0.3,0.3-0.5,0.4l-0.1,0.1c-0.2,0.1-0.3,0.3-0.5,0.4c-0.3,0.2-0.6,0.5-0.9,0.7
	c-0.3,0.2-0.6,0.4-0.9,0.6c-0.4,0.2-0.7,0.5-1.1,0.7c-0.7,0.4-1.4,0.9-2.2,1.4c-0.2,0.1-0.4,0.3-0.6,0.4c-2,1.2-4.1,2.5-6.5,3.9
	l-0.6,0.4c-0.7,0.4-1.3,0.8-1.9,1.2l-0.3,0.2l-0.6,0.4c-0.2,0.1-0.4,0.3-0.6,0.4c-0.2,0.1-0.3,0.2-0.5,0.3l-0.3,0.2
	c-0.1,0.1-0.3,0.2-0.4,0.3l-0.1,0.1c-0.1,0.1-0.3,0.2-0.4,0.3l-0.2,0.2l-0.3,0.2l-0.2,0.2c-0.4,0.3-0.8,0.6-1.2,0.8l-0.1,0.1
	c-0.2,0.1-0.3,0.2-0.4,0.3c-0.1,0.1-0.1,0.1-0.2,0.1c-0.3,0.2-0.6,0.5-0.8,0.7l-0.1,0.1c-0.1,0.1-0.1,0.1-0.2,0.2l-0.1,0.1l-0.1,0.1
	l-0.1,0.1c-0.1,0.1-0.2,0.2-0.3,0.3l-0.1,0.1c-0.1,0.2-0.3,0.3-0.4,0.5v0.1c-0.1,0.1-0.2,0.3-0.2,0.4c0,0,0,0.1-0.1,0.1v0.1
	c0,0,0,0,0,0.1v0.1l0,0c0,0,0,0,0,0.1v0.1c0,0.1-0.1,0.2-0.1,0.3c0,0,0,0,0,0.1c0,0,0,0,0,0.1c0,0,0,0,0,0.1v0.1c0,0,0,0,0,0.1l0,0
	v0.1v0.1l0,0v0.1l0,0v0.1v0.1l0,0v0.1v0.1c0,0.1,0,0.1,0.1,0.2v0.1l0,0v0.1c0,0,0,0.1,0.1,0.1c0,0.1,0.1,0.1,0.1,0.2
	c0,0,0,0.1,0.1,0.1l0.1,0.1c0,0,0,0.1,0.1,0.1c0,0,0,0,0,0.1l0,0l0,0l0,0c0,0,0,0,0.1,0c0,0,0,0,0.1,0c0,0,0,0,0.1,0
	c0.6,0.1,1.8-0.3,3.3-1.2c0.1,0,0.2-0.1,0.3-0.1l0.5-0.3l0.2-0.1c0.2-0.1,0.3-0.2,0.5-0.3c0.1-0.1,0.2-0.1,0.3-0.2
	c2.1-1.2,4.6-2.7,7.1-4.2c0.2-0.1,0.5-0.3,0.7-0.4l0.5-0.3c0.2-0.1,0.5-0.3,0.7-0.4c0.3-0.2,0.6-0.4,1-0.5c0.7-0.4,1.5-0.8,2.2-1.2
	l0.5-0.2c0.3-0.2,0.6-0.3,0.9-0.5c0.3-0.1,0.6-0.3,0.9-0.4c0.3-0.1,0.6-0.3,0.9-0.4l0.3-0.1l0,0c1.8-0.7,3.4-1.1,4.7-1.1
	c0.3,0,0.6,0,0.8,0.1l0,0c0.1,0,0.2,0,0.3,0.1l0,0c0.1,0,0.1,0,0.2,0.1c0.1,0,0.1,0,0.2,0.1h0.1c0.1,0,0.1,0,0.1,0.1
	c0.1,0,0.1,0.1,0.2,0.1c0.2,0.1,0.4,0.3,0.6,0.5c0.1,0.1,0.1,0.2,0.2,0.3c0,0,0,0.1,0.1,0.1c0,0.1,0.1,0.1,0.1,0.2
	c0,0.1,0.1,0.2,0.1,0.2c0,0.1,0.1,0.2,0.1,0.3s0.1,0.2,0.1,0.3C195.8,141.2,195.8,142,195.6,142.8z"/>
<path class="st0" d="M132.6,67.4c1.2,0.4,2.1,1.7,2.9,2.9c1.1,1.6,2.2,3.2,3.8,2.3c1.9-1,3.5-2.6,4.5-4.5s1.5-4.1,1.2-6.2
	c-0.2-2.1-1-4.2-2.4-5.9c-1.4-1.7-3.2-2.9-5.3-3.5s-4.3-0.6-6.3,0c-2.1,0.6-3.9,1.8-5.3,3.5s-2.2,3.7-2.4,5.8
	c-0.2,2.1,0.2,4.3,1.2,6.2c0.7,1.4,2.4,0.7,4.2,0C130.1,67.5,131.5,67,132.6,67.4z M81.2,67.4c-1.2,0.4-2.1,1.7-2.9,2.9
	c-1.1,1.6-2.2,3.2-3.8,2.3c-1.9-1-3.5-2.6-4.5-4.5s-1.5-4.1-1.2-6.2c0.2-2.1,1-4.2,2.4-5.9c1.4-1.7,3.2-2.9,5.3-3.5
	c2.1-0.6,4.3-0.6,6.3,0c2.1,0.6,3.9,1.8,5.3,3.5s2.2,3.7,2.4,5.8c0.2,2.1-0.2,4.3-1.2,6.2c-0.8,1.4-2.4,0.7-4.2,0
	C83.8,67.5,82.3,67,81.2,67.4z M124.7,114.1c8.1-6.4,11.1-16.9,11.1-23.3c0-5.1-3.4-3.5-8.9-0.8c-0.1,0.1-0.2,0.1-0.3,0.2
	c-5,2.5-11.8,5.8-19.1,5.8c-7.4,0-14.1-3.3-19.1-5.8c-5.7-2.8-9.2-4.6-9.2,0.6c0,6.7,3.2,17.6,11.9,23.9c1.2-2.3,2.8-4.4,4.8-6.1
	c2-1.7,4.3-2.9,6.8-3.7c0.9-0.3,1.8,1.2,2.7,2.8c0.9,1.5,1.8,3,2.7,3c1,0,1.9-1.5,2.9-3s1.9-3,2.9-2.7c0.3,0.1,0.5,0.2,0.8,0.3
	C118.9,106.9,122.5,110,124.7,114.1z"/>
<path class="st0" d="M61.8,76.4c-1.2,0.8-2.5,1.2-3.9,1.2c-0.9,0-1.9-0.2-2.7-0.5c-0.9-0.4-1.6-0.9-2.3-1.5
	c-0.7-0.7-1.2-1.4-1.5-2.3s-0.5-1.8-0.5-2.7c0-1.4,0.4-2.8,1.2-3.9c0.8-1.2,1.9-2.1,3.2-2.6c1.3-0.5,2.7-0.7,4.1-0.4
	c1.4,0.3,2.6,0.9,3.6,1.9s1.7,2.3,1.9,3.6c0.3,1.4,0.1,2.8-0.4,4.1C63.8,74.5,62.9,75.7,61.8,76.4z M163.2,76.4
	c-1.2,0.8-2.5,1.2-3.9,1.2c-0.9,0-1.9-0.2-2.7-0.5c-0.9-0.4-1.6-0.9-2.3-1.5c-0.7-0.7-1.2-1.4-1.5-2.3s-0.5-1.8-0.5-2.7
	c0-1.4,0.4-2.8,1.2-3.9c0.8-1.2,1.9-2.1,3.2-2.6s2.7-0.7,4.1-0.4c1.4,0.3,2.6,0.9,3.6,1.9s1.7,2.3,1.9,3.6c0.3,1.4,0.1,2.8-0.4,4.1
	C165.2,74.5,164.3,75.7,163.2,76.4z"/>
</svg>
