<?xml version="1.0" encoding="utf-8"?>
<!-- Generator: Adobe Illustrator 27.6.1, SVG Export Plug-In . SVG Version: 6.00 Build 0)  -->
<svg version="1.1" id="Layer_1" xmlns="http://www.w3.org/2000/svg" xmlns:xlink="http://www.w3.org/1999/xlink" x="0px" y="0px"
	 viewBox="0 0 963 256" style="enable-background:new 0 0 963 256;" xml:space="preserve">
<style type="text/css">
	.st0{fill:#000B1B;}
</style>
<path class="st0" d="M287.5,161V92.1h18.2v25.6h20.6V92.1h18.2V161h-18.2v-27.3h-20.6V161H287.5z"/>
<path class="st0" d="M374.4,162.3c-5.8,0-10-1.9-12.6-5.8c-2.6-4-3.9-9.2-3.9-15.8V108h18.2v30.3c0,3.4,0.4,5.6,1.3,6.8
	c0.9,1.1,2.3,1.7,4,1.7c1.7,0,3.1-0.4,4.2-1.1c1.1-0.7,2.3-1.9,3.4-3.6V108h18.2v53h-14.8l-1.3-7h-0.4c-2.1,2.5-4.5,4.6-7.1,6
	C381,161.5,378,162.3,374.4,162.3z"/>
<path class="st0" d="M438.8,182.8c-4,0-7.7-0.5-11.1-1.4c-3.4-0.8-6.1-2.2-8.2-4.1c-2-1.9-3-4.4-3-7.6c0-4.2,2.5-7.6,7.4-10.2v-0.4
	c-1.3-1-2.5-2.2-3.5-3.6c-0.9-1.5-1.4-3.3-1.4-5.5c0-1.8,0.5-3.6,1.6-5.4c1.1-1.8,2.6-3.3,4.3-4.6v-0.4c-1.9-1.3-3.6-3.1-5.1-5.4
	c-1.4-2.4-2.1-5.1-2.1-8.2c0-4.4,1.1-8,3.2-10.8c2.2-2.9,5-5,8.5-6.4c3.5-1.4,7.1-2.1,11-2.1c3.1,0,5.9,0.4,8.5,1.3h19.7v13.1H461
	c0.2,0.6,0.4,1.4,0.5,2.4c0.2,1,0.3,2,0.3,3.1c0,4.2-1,7.6-2.9,10.2c-1.9,2.5-4.5,4.4-7.7,5.6c-3.2,1.2-6.9,1.8-10.8,1.8
	c-1.8,0-3.7-0.2-5.9-0.7c-0.8,0.8-1.3,1.8-1.3,3.1c0,1.1,0.6,1.9,1.7,2.4c1.2,0.5,3.1,0.7,5.7,0.7h7.9c6.6,0,11.8,1.1,15.4,3.3
	c3.7,2.1,5.5,5.6,5.5,10.5c0,3.8-1.3,7.2-3.8,10.1c-2.5,2.9-6,5.2-10.6,6.8C450.5,182,445.1,182.8,438.8,182.8z M440.5,133.5
	c1.7,0,3.1-0.6,4.1-1.8c1.1-1.2,1.6-3.1,1.6-5.6c0-2.5-0.5-4.3-1.6-5.4c-1.1-1.2-2.4-1.8-4.1-1.8c-1.7,0-3.1,0.6-4.1,1.8
	c-1.1,1.1-1.6,2.9-1.6,5.4c0,2.5,0.5,4.4,1.6,5.6C437.4,132.9,438.8,133.5,440.5,133.5z M441.8,171.6c3,0,5.4-0.5,7.4-1.4
	c2-0.8,3-2,3-3.5c0-1.4-0.6-2.3-1.9-2.6c-1.2-0.4-2.9-0.5-5.2-0.5h-4.1c-2.1,0-3.7-0.1-4.9-0.2c-1.1-0.1-2-0.2-2.8-0.4
	c-1.3,1.3-1.9,2.5-1.9,3.8c0,1.7,1,2.9,2.9,3.7C436.2,171.2,438.7,171.6,441.8,171.6z"/>
<path class="st0" d="M496.6,182.8c-4,0-7.7-0.5-11.1-1.4c-3.4-0.8-6.1-2.2-8.2-4.1c-2-1.9-3-4.4-3-7.6c0-4.2,2.5-7.6,7.4-10.2v-0.4
	c-1.3-1-2.5-2.2-3.5-3.6c-0.9-1.5-1.4-3.3-1.4-5.5c0-1.8,0.5-3.6,1.6-5.4c1.1-1.8,2.6-3.3,4.3-4.6v-0.4c-1.9-1.3-3.6-3.1-5.1-5.4
	c-1.4-2.4-2.1-5.1-2.1-8.2c0-4.4,1.1-8,3.2-10.8c2.2-2.9,5-5,8.5-6.4c3.5-1.4,7.1-2.1,11-2.1c3.1,0,5.9,0.4,8.5,1.3h19.7v13.1h-7.6
	c0.2,0.6,0.4,1.4,0.5,2.4c0.2,1,0.3,2,0.3,3.1c0,4.2-1,7.6-2.9,10.2c-1.9,2.5-4.5,4.4-7.7,5.6c-3.2,1.2-6.9,1.8-10.8,1.8
	c-1.8,0-3.7-0.2-5.9-0.7c-0.8,0.8-1.3,1.8-1.3,3.1c0,1.1,0.6,1.9,1.7,2.4c1.2,0.5,3.1,0.7,5.7,0.7h7.9c6.6,0,11.8,1.1,15.4,3.3
	c3.7,2.1,5.5,5.6,5.5,10.5c0,3.8-1.3,7.2-3.8,10.1c-2.5,2.9-6,5.2-10.6,6.8C508.3,182,502.9,182.8,496.6,182.8z M498.3,133.5
	c1.7,0,3.1-0.6,4.1-1.8c1.1-1.2,1.6-3.1,1.6-5.6c0-2.5-0.5-4.3-1.6-5.4c-1.1-1.2-2.4-1.8-4.1-1.8c-1.7,0-3.1,0.6-4.1,1.8
	c-1.1,1.1-1.6,2.9-1.6,5.4c0,2.5,0.5,4.4,1.6,5.6C495.2,132.9,496.6,133.5,498.3,133.5z M499.6,171.6c3,0,5.4-0.5,7.4-1.4
	c2-0.8,3-2,3-3.5c0-1.4-0.6-2.3-1.9-2.6c-1.2-0.4-2.9-0.5-5.2-0.5h-4.1c-2.1,0-3.7-0.1-4.9-0.2c-1.1-0.1-2-0.2-2.8-0.4
	c-1.3,1.3-1.9,2.5-1.9,3.8c0,1.7,1,2.9,2.9,3.7C494,171.2,496.5,171.6,499.6,171.6z"/>
<path class="st0" d="M535.2,161v-53h18.2v53H535.2z M544.3,101.5c-3,0-5.4-0.8-7.2-2.4c-1.8-1.7-2.8-3.9-2.8-6.7
	c0-2.8,0.9-4.9,2.8-6.6c1.8-1.7,4.2-2.5,7.2-2.5s5.4,0.8,7.2,2.5c1.8,1.6,2.8,3.8,2.8,6.6c0,2.8-0.9,5-2.8,6.7
	C549.6,100.7,547.2,101.5,544.3,101.5z"/>
<path class="st0" d="M565.7,161v-53h14.8l1.3,6.4h0.4c2.1-2,4.5-3.8,7.2-5.3c2.8-1.6,5.9-2.3,9.5-2.3c5.9,0,10.1,2,12.6,5.9
	c2.6,3.9,3.9,9.1,3.9,15.7V161h-18.2v-30.3c0-3.4-0.4-5.6-1.3-6.8c-0.8-1.1-2.2-1.7-4-1.7c-1.7,0-3.1,0.4-4.2,1.1
	c-1.1,0.7-2.4,1.7-3.8,3V161H565.7z"/>
<path class="st0" d="M646.6,182.8c-4,0-7.7-0.5-11.1-1.4c-3.4-0.8-6.1-2.2-8.2-4.1c-2-1.9-3-4.4-3-7.6c0-4.2,2.5-7.6,7.4-10.2v-0.4
	c-1.3-1-2.5-2.2-3.5-3.6c-0.9-1.5-1.4-3.3-1.4-5.5c0-1.8,0.5-3.6,1.6-5.4c1.1-1.8,2.6-3.3,4.3-4.6v-0.4c-1.9-1.3-3.6-3.1-5.1-5.4
	c-1.4-2.4-2.1-5.1-2.1-8.2c0-4.4,1.1-8,3.2-10.8c2.2-2.9,5-5,8.5-6.4c3.5-1.4,7.1-2.1,11-2.1c3.1,0,5.9,0.4,8.5,1.3h19.7v13.1h-7.6
	c0.2,0.6,0.4,1.4,0.5,2.4c0.2,1,0.3,2,0.3,3.1c0,4.2-1,7.6-2.9,10.2c-1.9,2.5-4.5,4.4-7.7,5.6c-3.2,1.2-6.8,1.8-10.8,1.8
	c-1.8,0-3.7-0.2-5.9-0.7c-0.8,0.8-1.3,1.8-1.3,3.1c0,1.1,0.6,1.9,1.7,2.4c1.2,0.5,3.1,0.7,5.7,0.7h7.9c6.6,0,11.8,1.1,15.4,3.3
	c3.7,2.1,5.5,5.6,5.5,10.5c0,3.8-1.3,7.2-3.8,10.1c-2.5,2.9-6,5.2-10.6,6.8C658.3,182,652.9,182.8,646.6,182.8z M648.3,133.5
	c1.7,0,3.1-0.6,4.1-1.8c1.1-1.2,1.6-3.1,1.6-5.6c0-2.5-0.5-4.3-1.6-5.4c-1.1-1.2-2.4-1.8-4.1-1.8s-3.1,0.6-4.1,1.8
	c-1.1,1.1-1.6,2.9-1.6,5.4c0,2.5,0.5,4.4,1.6,5.6C645.2,132.9,646.6,133.5,648.3,133.5z M649.6,171.6c3,0,5.4-0.5,7.4-1.4
	c2-0.8,3-2,3-3.5c0-1.4-0.6-2.3-1.9-2.6c-1.2-0.4-2.9-0.5-5.2-0.5h-4.1c-2.1,0-3.7-0.1-4.9-0.2c-1.1-0.1-2-0.2-2.8-0.4
	c-1.3,1.3-1.9,2.5-1.9,3.8c0,1.7,1,2.9,2.9,3.7C644,171.2,646.5,171.6,649.6,171.6z"/>
<path class="st0" d="M707.8,161V92.1h44.9v15.3h-26.7v13.1H749v15.3h-22.9V161H707.8z"/>
<path class="st0" d="M772.7,162.3c-3.3,0-6.2-0.7-8.6-2.2c-2.3-1.6-4.1-3.6-5.4-6c-1.3-2.5-1.9-5.2-1.9-8.1c0-5.5,2.3-9.8,6.8-12.9
	c4.5-3.2,11.9-5.3,22-6.4c-0.4-3.7-2.9-5.5-7.4-5.5c-1.9,0-3.9,0.4-6,1.2c-2.1,0.7-4.6,1.8-7.3,3.3l-6.4-11.9
	c3.7-2.3,7.5-4,11.3-5.2c3.9-1.2,7.9-1.8,12-1.8c6.9,0,12.3,2,16.2,5.9c3.9,3.9,5.8,10.2,5.8,18.9V161H789l-1.3-5.1h-0.4
	c-2.1,1.9-4.4,3.5-6.8,4.7C778.2,161.7,775.6,162.3,772.7,162.3z M779,148.3c1.5,0,2.7-0.3,3.7-1c1-0.7,1.9-1.6,2.9-2.6v-7.2
	c-4.3,0.6-7.3,1.6-9,2.9c-1.6,1.3-2.4,2.6-2.4,4.1C774.2,147,775.8,148.3,779,148.3z"/>
<path class="st0" d="M839.7,162.3c-5,0-9.5-1.1-13.6-3.3c-4-2.2-7.2-5.3-9.6-9.4c-2.3-4.2-3.5-9.2-3.5-15c0-5.9,1.3-10.8,3.9-14.9
	c2.7-4.2,6.2-7.3,10.5-9.5c4.3-2.2,9-3.3,14-3.3c3.2,0,6,0.5,8.6,1.5c2.6,1,4.9,2.3,6.9,4l-8.5,11.7c-1.1-1-2.2-1.7-3.1-2
	c-0.9-0.4-1.9-0.5-2.9-0.5c-3.4,0-6,1.2-7.9,3.6c-1.9,2.3-2.9,5.5-2.9,9.5c0,4,1,7.2,3,9.6c2,2.3,4.4,3.5,7.2,3.5
	c1.5,0,2.9-0.3,4.3-1c1.5-0.7,2.9-1.5,4.1-2.4l7,11.9c-2.6,2.3-5.5,4-8.7,4.9C845.4,161.8,842.4,162.3,839.7,162.3z"/>
<path class="st0" d="M887,162.3c-5.2,0-9.8-1.1-14-3.3c-4.1-2.2-7.3-5.3-9.7-9.4c-2.4-4.2-3.6-9.2-3.6-15c0-5.7,1.2-10.6,3.6-14.7
	c2.5-4.2,5.6-7.4,9.5-9.6c3.9-2.3,8-3.4,12.3-3.4c5.2,0,9.5,1.2,12.9,3.5c3.5,2.3,6,5.3,7.6,9.2c1.7,3.9,2.5,8.2,2.5,12.9
	c0,1.6-0.1,3.1-0.3,4.6c-0.1,1.4-0.3,2.4-0.4,3.1h-30.2c0.8,3.2,2.4,5.4,4.6,6.7c2.2,1.2,4.8,1.8,7.7,1.8c3.4,0,7-1.1,10.8-3.2
	l5.9,10.8c-2.8,2-6,3.5-9.5,4.6C893.3,161.7,890,162.3,887,162.3z M877.1,128.2h15.7c0-2-0.5-3.8-1.6-5.3c-1-1.6-2.9-2.3-5.6-2.3
	c-2,0-3.7,0.6-5.3,1.8C878.7,123.5,877.7,125.5,877.1,128.2z"/>
<path class="st0" d="M239.4,182.2c1-1.5,1.7-3.2,2-5c0.3-1.8,0.2-3.6-0.2-5.4c-0.7-2.5-2-4.6-3.9-6.1c0.9-1.5,1.5-3.1,1.7-4.8
	c0.5-3.7-0.7-7.4-3.5-10.4c-2.2-2.4-5.2-3.6-8.6-3.6c-0.4,0-0.8,0-1.2,0.1c2.6-8.2,3.9-16.7,3.9-25.3c0-46.7-37.8-84.5-84.5-84.5
	c-46.7,0-84.5,37.8-84.5,84.5c0,8.6,1.3,17.1,3.8,25.2h-0.1c-3.4,0-6.4,1.3-8.6,3.6c-2.8,3-4,6.7-3.5,10.4c0.2,1.7,0.8,3.3,1.7,4.8
	c-1.9,1.5-3.2,3.6-3.9,6.1c-0.5,1.7-0.5,3.6-0.2,5.4c0.3,1.8,1,3.5,2,5c-0.2,0.3-0.3,0.6-0.5,0.9c-1.7,3.2-1.8,6.8-0.3,10.1
	c2.2,5.1,7.8,9,18.6,13.3c6.7,2.7,12.8,4.4,12.9,4.4c8.9,2.3,16.9,3.5,23.8,3.5c11.4,0,19.9-3.1,25.4-9.3c9.2,1.5,18.6,1.4,27.7-0.2
	c5.4,6.3,14,9.4,25.5,9.4c6.9,0,15-1.2,23.8-3.5c0.1,0,6.2-1.7,12.9-4.4c10.8-4.3,16.3-8.3,18.6-13.3c1.5-3.3,1.4-6.9-0.3-10.1
	C239.8,182.8,239.6,182.5,239.4,182.2z M127.8,195.4c-0.4,0.8-0.9,1.6-1.5,2.4c-1.4,2.1-3.3,3.6-5.4,4.8c-4.1,2.2-9.3,3-14.6,3
	c-8.3,0-16.9-1.9-21.7-3.2c-0.2-0.1-29.3-8.3-25.6-15.3c0.6-1.2,1.6-1.6,2.9-1.6c5.2,0,14.6,7.7,18.7,7.7c0.9,0,1.5-0.4,1.8-1.3
	c1.7-6.2-26.3-8.8-23.9-17.8c0.4-1.6,1.5-2.2,3.1-2.2c6.9,0,22.2,12.1,25.5,12.1c0.2,0,0.4-0.1,0.5-0.2c0,0,0,0,0-0.1
	c1.5-2.5,0.6-4.3-9.7-10.6c-0.3-0.2-0.7-0.4-1-0.6c-11.4-6.9-19.4-11-14.8-16c0.5-0.6,1.3-0.8,2.2-0.8c1.1,0,2.4,0.4,3.8,1
	c6,2.5,14.4,9.5,17.8,12.5c1,0.9,1.6,1.4,1.6,1.4s4.4,4.6,7.1,4.6c0.6,0,1.1-0.2,1.5-0.8c1.9-3.2-17.6-17.9-18.7-24
	c-0.7-4.1,0.5-6.2,2.9-6.2c1.1,0,2.5,0.5,4,1.4c4.7,3,13.6,18.4,16.9,24.4c1.1,2,3,2.9,4.7,2.9c3.4,0,6-3.3,0.3-7.6
	c-8.5-6.4-5.5-16.8-1.5-17.5c0.2,0,0.3,0,0.5,0c3.7,0,5.3,6.4,5.3,6.4s4.8,12,13,20.3C131.1,181.6,132.1,187.7,127.8,195.4z
	 M154.4,196.8l-0.4,0.1c-0.2,0-0.5,0.1-0.7,0.1c-0.4,0-0.8,0.1-1.2,0.1l-0.4,0l-0.3,0l-0.5,0c-0.2,0-0.4,0-0.5,0l-0.5,0l-0.1,0
	c-0.1,0-0.3,0-0.4,0l-0.2,0c-0.2,0-0.3,0-0.5,0l-0.6,0l-0.5,0l-0.4,0H147c-0.1,0-0.2,0-0.3,0c-0.1,0-0.1,0-0.2,0c-0.1,0-0.2,0-0.3,0
	l-0.4,0c-0.2,0-0.4,0-0.6,0c-0.5,0-1,0-1.5,0l-0.4,0c-0.1,0-0.2,0-0.3,0l-0.4,0l-0.5,0l-0.5,0l-0.1,0l-0.4,0c-0.1,0-0.2,0-0.4,0
	l-0.3,0c-0.4,0-0.7,0-1.1-0.1l-0.4,0c-0.2,0-0.3,0-0.5,0c-0.2,0-0.4,0-0.6-0.1c-0.3,0-0.6-0.1-0.9-0.1h0c4.6-10.2,2.3-19.7-7-28.9
	c-6.1-6-10.1-15-10.9-16.9c-1.7-5.8-6.2-12.3-13.6-12.3c-0.6,0-1.3,0.1-1.9,0.1c-3.3,0.5-6.1,2.4-8.1,5.2c-2.2-2.7-4.3-4.9-6.3-6.1
	c-2.9-1.8-5.8-2.8-8.6-2.8c-3.5,0-6.7,1.4-8.9,4.1l-0.1,0.1c0-0.2-0.1-0.3-0.1-0.5l0,0c-0.1-0.5-0.2-1.1-0.4-1.6
	c-0.2-0.9-0.4-1.8-0.5-2.7c-0.1-0.4-0.1-0.7-0.2-1.1c0,0,0,0,0,0c0-0.1,0-0.3-0.1-0.4c0-0.1,0-0.2,0-0.2c0-0.1,0-0.3-0.1-0.4
	c0-0.2-0.1-0.4-0.1-0.6c0-0.2,0-0.4-0.1-0.6c0-0.2,0-0.4-0.1-0.6c0-0.2,0-0.4-0.1-0.5l0,0c0-0.4-0.1-0.7-0.1-1.1
	c0-0.4-0.1-0.7-0.1-1.1c0-0.1,0-0.2,0-0.3c0-0.2,0-0.3,0-0.5c0-0.1,0-0.3,0-0.4c0,0,0-0.1,0-0.1c0-0.2,0-0.3,0-0.5
	c0-0.2,0-0.4,0-0.6c0-0.2,0-0.4,0-0.6c0-0.2,0-0.3,0-0.5l0-0.2c0-0.2,0-0.3,0-0.5l0-0.4c0-0.2,0-0.3,0-0.5c0-0.2,0-0.3,0-0.5
	c0-0.2,0-0.3,0-0.5c0-0.2,0-0.3,0-0.5c0-41.9,33.9-75.8,75.8-75.8s75.8,33.9,75.8,75.8c0,0.2,0,0.3,0,0.5c0,0.2,0,0.3,0,0.5
	c0,0.2,0,0.3,0,0.5c0,0.1,0,0.3,0,0.4c0,0.1,0,0.2,0,0.4c0,0.2,0,0.3,0,0.5v0c0,0.2,0,0.4,0,0.5c0,0.2,0,0.3,0,0.5l0,0.1
	c0,0.2,0,0.3,0,0.5c0,0.1,0,0.3,0,0.4c0,0.8-0.1,1.6-0.2,2.4c0,0.1,0,0.3,0,0.4c0,0,0,0,0,0c0,0.2,0,0.3-0.1,0.5c0,0.1,0,0.3,0,0.4
	c0,0.3-0.1,0.5-0.1,0.8l-0.1,0.4c0,0.2,0,0.3-0.1,0.5c0,0.2,0,0.3-0.1,0.5c0,0.2-0.1,0.4-0.1,0.6l-0.1,0.5c0,0.2-0.1,0.3-0.1,0.5
	s-0.1,0.3-0.1,0.5c0,0.2-0.1,0.3-0.1,0.5c-0.1,0.3-0.1,0.7-0.2,1c-0.1,0.3-0.1,0.7-0.2,1c0,0.2-0.1,0.4-0.1,0.6
	c0,0.2-0.1,0.3-0.1,0.5c0,0.2-0.1,0.3-0.1,0.5c-2.1-2.1-5-3.2-8.1-3.2c-2.8,0-5.7,0.9-8.6,2.8c-1.9,1.2-4.1,3.4-6.3,6.1
	c-2-2.8-4.9-4.7-8.1-5.2c-0.6-0.1-1.2-0.1-1.9-0.1c-7.4,0-11.9,6.5-13.6,12.3c-0.8,2-4.9,10.9-10.9,17
	C152.3,177.2,149.9,186.6,154.4,196.8z M232.7,176.4C232.7,176.4,232.6,176.4,232.7,176.4c-0.1,0.1-0.1,0.2-0.1,0.3
	c0,0.1-0.1,0.2-0.1,0.3c0,0.1-0.1,0.1-0.1,0.2c-0.1,0.1-0.2,0.3-0.2,0.4c-0.1,0.2-0.2,0.3-0.4,0.5c-0.1,0.1-0.1,0.2-0.2,0.2
	c0,0.1-0.1,0.1-0.1,0.2c-0.1,0.1-0.1,0.2-0.2,0.2c-1.3,1.3-3.4,2.5-5.7,3.6c-0.3,0.1-0.5,0.2-0.8,0.4l-0.3,0.1
	c-0.2,0.1-0.4,0.2-0.5,0.2c-0.2,0.1-0.4,0.2-0.6,0.2l-0.6,0.2c-1.3,0.5-2.6,1-3.9,1.6l-0.6,0.2l-0.6,0.2c-0.4,0.1-0.7,0.3-1.1,0.4
	l-0.5,0.2l-0.5,0.2l-0.3,0.1c-0.2,0.1-0.3,0.1-0.5,0.2c-3.8,1.6-6.6,3.3-6,5.4c0,0.1,0,0.1,0.1,0.2c0.1,0.2,0.1,0.3,0.2,0.4
	c0.1,0.1,0.1,0.2,0.2,0.2c0.7,0.7,1.9,0.6,3.5,0c0.1,0,0.3-0.1,0.4-0.1c0.1,0,0.2-0.1,0.3-0.1l0.1-0.1c0.4-0.2,0.7-0.3,1.1-0.5
	c0.1,0,0.2-0.1,0.3-0.1c1.9-0.9,4.1-2.2,6.2-3.3c0.3-0.2,0.7-0.3,1-0.5c0.5-0.3,1.1-0.6,1.6-0.8c2-1,4-1.6,5.5-1.6
	c0.7,0,1.4,0.1,1.9,0.5l0.1,0.1c0.1,0,0.1,0.1,0.2,0.1c0.2,0.2,0.4,0.4,0.5,0.6c0,0.1,0.1,0.1,0.1,0.2c0,0.1,0.1,0.1,0.1,0.2
	c0.8,1.4,0.1,2.9-1.4,4.4c-1.4,1.4-3.7,2.8-6.2,4.1c-0.2,0.1-0.4,0.2-0.6,0.3c-7.5,3.7-17.4,6.5-17.5,6.5c-2.6,0.7-6.4,1.6-10.6,2.2
	l-0.6,0.1l-0.1,0c-0.2,0-0.5,0.1-0.7,0.1c-0.2,0-0.5,0.1-0.7,0.1c-0.5,0.1-1,0.1-1.5,0.2l-0.1,0c-1.8,0.2-3.6,0.3-5.4,0.4h0
	c-0.6,0-1.3,0-1.9,0c-0.1,0-0.2,0-0.3,0h-0.1c-0.1,0-0.2,0-0.3,0c-0.4,0-0.8,0-1.1,0c-0.6,0-1.2-0.1-1.8-0.1c0,0,0,0-0.1,0
	c-0.2,0-0.5,0-0.7-0.1c-0.1,0-0.2,0-0.4,0c-0.4,0-0.7-0.1-1.1-0.1c-0.2,0-0.5-0.1-0.7-0.1c-0.2,0-0.5-0.1-0.7-0.1
	c-0.1,0-0.2,0-0.3-0.1l0,0c-0.3-0.1-0.7-0.1-1-0.2c-0.2,0-0.4-0.1-0.6-0.1l-0.1,0c-0.1,0-0.2-0.1-0.3-0.1l-0.1,0l-0.3-0.1
	c-0.1,0-0.2-0.1-0.3-0.1l0,0l-0.3-0.1c-0.1,0-0.2-0.1-0.3-0.1c-0.1,0-0.2-0.1-0.3-0.1l-0.2-0.1c-0.2-0.1-0.4-0.1-0.6-0.2l-0.2-0.1
	l-0.1-0.1c-0.3-0.1-0.6-0.2-0.8-0.4l-0.2-0.1l0,0c-0.1,0-0.1-0.1-0.2-0.1c-0.1-0.1-0.3-0.1-0.4-0.2l0,0l-0.2-0.1
	c-0.2-0.1-0.4-0.2-0.6-0.3c-0.1-0.1-0.2-0.1-0.3-0.2l-0.2-0.1c-0.1-0.1-0.2-0.1-0.3-0.2l-0.2-0.1c-0.1-0.1-0.2-0.1-0.2-0.2l-0.1-0.1
	c-0.2-0.1-0.3-0.2-0.4-0.3c-0.1-0.1-0.2-0.1-0.2-0.2c-0.1-0.1-0.2-0.2-0.3-0.2c-0.1-0.1-0.2-0.1-0.2-0.2l0,0
	c-0.1-0.1-0.2-0.1-0.2-0.2c-0.1-0.1-0.2-0.1-0.2-0.2l0,0c-0.1-0.1-0.2-0.2-0.2-0.2c-0.1-0.1-0.2-0.2-0.2-0.2
	c-0.1-0.1-0.2-0.2-0.2-0.2c-0.1-0.1-0.1-0.2-0.2-0.2l0,0c-0.1-0.1-0.1-0.2-0.2-0.2c-0.1-0.2-0.3-0.3-0.4-0.5
	c-0.1-0.2-0.3-0.4-0.4-0.6c0-0.1-0.1-0.1-0.1-0.2c-0.1-0.1-0.2-0.2-0.2-0.4c-0.1-0.1-0.2-0.2-0.2-0.4c-0.1-0.1-0.2-0.2-0.2-0.4
	c0-0.1-0.1-0.1-0.1-0.2c-0.1-0.1-0.1-0.2-0.2-0.3c0,0,0,0,0,0c-0.1-0.1-0.1-0.2-0.2-0.3c0-0.1-0.1-0.1-0.1-0.2
	c0-0.1-0.1-0.1-0.1-0.2c0,0,0-0.1-0.1-0.1s0,0,0-0.1c-0.1-0.1-0.1-0.2-0.2-0.4c0-0.1-0.1-0.1-0.1-0.2l-0.1-0.2l-0.1-0.2
	c-0.1-0.1-0.1-0.2-0.2-0.3c0-0.1-0.1-0.1-0.1-0.2c-0.1-0.1-0.1-0.2-0.2-0.4c0,0,0-0.1-0.1-0.1c-0.1-0.1-0.1-0.2-0.1-0.3
	c0-0.1,0-0.1-0.1-0.2c0-0.1-0.1-0.2-0.1-0.3c0-0.1,0-0.1-0.1-0.2c-0.1-0.2-0.2-0.4-0.2-0.7c0-0.1,0-0.1-0.1-0.2
	c0-0.1-0.1-0.2-0.1-0.3c-0.1-0.2-0.1-0.3-0.2-0.5c0-0.1,0-0.1,0-0.2c0-0.2-0.1-0.3-0.1-0.5c0-0.1,0-0.2-0.1-0.3c0-0.1,0-0.1,0-0.2
	c0-0.1,0-0.2-0.1-0.3c0-0.2-0.1-0.3-0.1-0.5c0-0.1,0-0.1,0-0.2c0-0.1,0-0.1,0-0.2c0-0.2,0-0.4-0.1-0.6c0-0.1,0-0.1,0-0.2
	c0-0.1,0-0.2,0-0.3c-0.1-4.3,2.1-8.4,6.7-13c8.2-8.2,13-20.3,13-20.3s0.1-0.5,0.4-1.2c0-0.1,0.1-0.2,0.1-0.3
	c0.1-0.1,0.1-0.3,0.2-0.4c0.1-0.2,0.2-0.4,0.3-0.6c0-0.1,0.1-0.1,0.1-0.2c0,0,0-0.1,0-0.1c0,0,0-0.1,0.1-0.1
	c0.1-0.3,0.3-0.6,0.5-0.8c0-0.1,0.1-0.1,0.1-0.2c0.1-0.1,0.2-0.3,0.3-0.4c0.1-0.1,0.1-0.1,0.2-0.2c0.1-0.1,0.2-0.2,0.3-0.3
	c0,0,0.1-0.1,0.1-0.1c0.5-0.5,1-0.9,1.6-1.1l0.1,0c0.1,0,0.1,0,0.2,0c0.1,0,0.1,0,0.2,0l0,0c0.1,0,0.3,0,0.4-0.1h0
	c0.1,0,0.1,0,0.2,0c0.1,0,0.2,0,0.3,0c0.1,0,0.2,0,0.3,0c0.7,0.1,1.4,0.6,2.1,1.2c0,0,0.1,0.1,0.1,0.1c0.1,0.2,0.3,0.3,0.4,0.5
	c0.1,0.1,0.1,0.1,0.1,0.2c0.1,0.2,0.2,0.4,0.3,0.6c0,0.1,0.1,0.2,0.1,0.3c0,0,0,0.1,0.1,0.1c0,0.1,0.1,0.2,0.1,0.3
	c0,0.1,0.1,0.2,0.1,0.3c0.2,0.4,0.3,0.9,0.4,1.4c0,0.1,0,0.2,0.1,0.3c0.1,0.4,0.1,0.8,0.1,1.2c0,0.1,0,0.2,0,0.3c0,0.3,0,0.5,0,0.8
	c0,0.1,0,0.2,0,0.3c-0.1,1-0.3,2-0.6,3c-0.1,0.2-0.1,0.3-0.2,0.5c0,0.1-0.1,0.2-0.1,0.3c-0.1,0.2-0.2,0.4-0.3,0.7
	c-0.1,0.2-0.2,0.3-0.3,0.5c-0.1,0.1-0.1,0.2-0.2,0.3c-0.2,0.3-0.3,0.5-0.5,0.8l-0.1,0.2c-0.2,0.2-0.3,0.4-0.5,0.6
	c-0.3,0.4-0.6,0.7-1,1.1c-0.5,0.5-1.1,1-1.7,1.5c-0.5,0.4-1.1,0.8-1.5,1.3c-0.1,0.1-0.1,0.1-0.2,0.2c-1.5,1.6-1.9,3-1.5,4
	c0,0,0,0.1,0.1,0.1c0,0.1,0.1,0.1,0.1,0.2c0,0,0,0.1,0.1,0.1c0.1,0.2,0.2,0.3,0.4,0.5c0,0,0,0,0.1,0.1l0.1,0.1
	c0.1,0.1,0.1,0.1,0.2,0.2l0.1,0c0,0,0.1,0.1,0.1,0.1c0.1,0.1,0.2,0.1,0.3,0.2c0,0,0.1,0.1,0.1,0.1c0.2,0.1,0.4,0.2,0.5,0.2
	c0.1,0,0.1,0,0.2,0l0.1,0l0.1,0l0.1,0l0.1,0l0.1,0l0.1,0c0.1,0,0.1,0,0.2,0l0.1,0l0.1,0l0.1,0l0.1,0h0.1l0.1,0h0h0.1h0h0.1l0.1,0
	l0.1,0l0.1,0l0.1,0c0,0,0.1,0,0.1,0c0.1,0,0.1,0,0.2,0c0.2,0,0.3-0.1,0.5-0.1c0.2,0,0.3-0.1,0.5-0.2c0.1,0,0.1,0,0.2-0.1
	c0.1,0,0.2-0.1,0.3-0.1c0.1,0,0.1-0.1,0.2-0.1c0.1-0.1,0.2-0.1,0.3-0.2c0.2-0.1,0.4-0.3,0.6-0.5c0,0,0.1-0.1,0.1-0.1
	c0,0,0,0,0.1-0.1c0,0,0.1-0.1,0.1-0.1c0.1-0.1,0.2-0.2,0.3-0.3c0.2-0.3,0.4-0.6,0.6-0.9c1.3-2.4,3.6-6.4,6.2-10.5
	c0.1-0.2,0.2-0.3,0.3-0.5c0.1-0.2,0.2-0.3,0.3-0.5c0.1-0.2,0.3-0.5,0.4-0.7l0.2-0.2c0.1-0.2,0.2-0.3,0.3-0.5
	c0.4-0.6,0.8-1.2,1.2-1.9l0.3-0.5c0.6-0.9,1.2-1.8,1.8-2.6l0.3-0.4c0.4-0.6,0.9-1.2,1.3-1.8c0.2-0.3,0.5-0.6,0.7-0.9l0.3-0.3
	c0-0.1,0.1-0.1,0.1-0.2c0.1-0.1,0.2-0.2,0.3-0.3c0-0.1,0.1-0.1,0.1-0.2c0.1-0.1,0.2-0.2,0.3-0.3c0,0,0.1-0.1,0.1-0.1
	c0.1-0.1,0.3-0.3,0.4-0.4c0.1-0.1,0.2-0.2,0.3-0.3c0.5-0.5,1.1-1,1.7-1.4l0.1-0.1c0,0,0.1-0.1,0.1-0.1c0.1-0.1,0.2-0.1,0.3-0.2
	c2.4-1.3,4.3-1.4,5.4-0.3c0.7,0.7,1.1,1.8,1,3.4c0,0.1,0,0.1,0,0.2c0,0,0,0.1,0,0.1c0,0.1,0,0.1,0,0.2c0,0.1,0,0.2,0,0.3
	c0,0.1,0,0.2,0,0.2c0,0,0,0,0,0.1c0,0.1,0,0.1,0,0.2c0,0,0,0,0,0.1c0,0.1,0,0.1,0,0.2c0,0,0,0,0,0.1c0,0.1,0,0.2,0,0.3
	c0,0.1,0,0.1,0,0.1c0,0.1-0.1,0.3-0.1,0.4c0,0.1-0.1,0.3-0.2,0.4c0,0.1-0.1,0.2-0.1,0.3c0,0.1-0.1,0.2-0.2,0.3
	c-0.1,0.2-0.2,0.4-0.4,0.7c-0.1,0.1-0.1,0.2-0.2,0.3c0,0.1-0.1,0.1-0.1,0.2c-0.1,0.2-0.2,0.4-0.4,0.5c-0.1,0.2-0.3,0.4-0.4,0.6
	c-0.2,0.3-0.4,0.5-0.6,0.8l-0.2,0.2c-0.3,0.3-0.5,0.7-0.8,1c-0.2,0.2-0.3,0.4-0.5,0.6c-0.1,0.1-0.2,0.3-0.4,0.4l-0.2,0.2
	c-0.3,0.3-0.5,0.6-0.8,0.8l-0.2,0.2c-0.1,0.1-0.3,0.3-0.4,0.4c-0.1,0.1-0.3,0.3-0.4,0.4l-0.4,0.4c-0.1,0.1-0.3,0.3-0.4,0.4
	c-0.1,0.1-0.3,0.3-0.4,0.4c-0.3,0.3-0.6,0.6-0.8,0.9c-4.1,4.2-8.3,8.3-9.8,10.9c-0.1,0.2-0.2,0.3-0.3,0.5c-0.2,0.5-0.3,0.9-0.2,1.2
	c0,0.1,0.1,0.2,0.1,0.3c0,0.1,0.1,0.1,0.1,0.2c0,0.1,0.1,0.1,0.2,0.2c0.1,0.1,0.1,0.1,0.2,0.1c0.3,0.2,0.7,0.3,1,0.3h0.1l0.1,0
	l0.1,0l0.1,0c0,0,0,0,0,0l0.1,0l0,0l0.1,0l0,0c0,0,0.1,0,0.1,0c0,0,0.1,0,0.1,0c0.1,0,0.2-0.1,0.2-0.1c0.1,0,0.2-0.1,0.3-0.1
	c0.1,0,0.2-0.1,0.3-0.1c0,0,0.1,0,0.1-0.1l0.1-0.1c0.2-0.1,0.3-0.2,0.5-0.3c0.1-0.1,0.3-0.2,0.4-0.3l0.1-0.1c0,0,0.1-0.1,0.1-0.1
	l0.1-0.1l0.1,0c0.1,0,0.1-0.1,0.2-0.1c0.2-0.1,0.3-0.3,0.5-0.4l0,0c0.1-0.1,0.2-0.1,0.3-0.2c0.4-0.3,0.7-0.6,1-0.9l0.2-0.2l0,0
	l0.1-0.1c0.3-0.2,0.5-0.4,0.7-0.6l0.1-0.1c0.1-0.1,0.1-0.1,0.2-0.2l0.1-0.1l0,0l0,0c0,0,0.1-0.1,0.1-0.1c0,0,0.1-0.1,0.1-0.1l0,0
	l0,0c0,0,0,0,0,0l0,0l0,0l0.2-0.2l0.1-0.1c0.1,0,0.1-0.1,0.2-0.2l0.1-0.1c0,0,0,0,0.1-0.1l0.1-0.1l0.2-0.2l0.1-0.1
	c0.4-0.4,1-0.8,1.6-1.4l0.2-0.2l0.4-0.3c0.1-0.1,0.3-0.2,0.4-0.4c0.6-0.5,1.1-0.9,1.8-1.4l0.4-0.3c0.3-0.3,0.7-0.6,1.1-0.8
	c0.1-0.1,0.3-0.2,0.4-0.3c0.2-0.2,0.4-0.3,0.7-0.5c0.1-0.1,0.3-0.2,0.4-0.3c0.9-0.6,1.7-1.3,2.6-1.9l0.4-0.3
	c0.3-0.2,0.5-0.4,0.8-0.6l0.2-0.2c0.3-0.2,0.5-0.3,0.8-0.5c0.2-0.2,0.5-0.3,0.7-0.4l0.2-0.2l0.2-0.1c0.2-0.1,0.5-0.3,0.7-0.4
	l0.2-0.1l0.5-0.3c0.2-0.1,0.3-0.2,0.5-0.3l0.1-0.1c0.1-0.1,0.2-0.1,0.4-0.2c0.2-0.1,0.3-0.2,0.5-0.2l0.2-0.1l0.2-0.1
	c0.1,0,0.2-0.1,0.2-0.1c0.4-0.2,0.9-0.4,1.3-0.6c0.1,0,0.1-0.1,0.2-0.1c0.1-0.1,0.3-0.1,0.4-0.2c0.1,0,0.3-0.1,0.4-0.1
	c0.1,0,0.2-0.1,0.4-0.1l0,0c0.1,0,0.1,0,0.2-0.1l0,0c0.1,0,0.3-0.1,0.4-0.1h0c0.2,0,0.4-0.1,0.5-0.1c0.1,0,0.1,0,0.2,0
	c0.1,0,0.2,0,0.4,0c0.1,0,0.1,0,0.2,0c0.1,0,0.2,0,0.3,0c0,0,0.1,0,0.1,0c0.1,0,0.2,0,0.3,0c0,0,0.1,0,0.1,0h0c0,0,0.1,0,0.1,0
	c0,0,0.1,0,0.1,0h0c0,0,0.1,0,0.1,0c0,0,0.1,0,0.1,0c0.2,0.1,0.3,0.1,0.5,0.2c0,0,0.1,0,0.1,0.1c0,0,0.1,0.1,0.1,0.1
	c0.1,0.1,0.1,0.1,0.2,0.2l0,0c0,0,0,0,0.1,0.1l0.1,0.1c0.4,0.4,0.7,0.9,1,1.4c0,0,0,0.1,0,0.1c0,0.1,0,0.1,0.1,0.2
	c0.1,0.1,0.1,0.3,0.1,0.4c0.1,0.6,0.1,1.2-0.1,1.8c0,0.1,0,0.1-0.1,0.2c-0.1,0.2-0.2,0.4-0.3,0.6c0,0-0.1,0.1-0.1,0.1
	c-0.3,0.5-0.7,1-1.1,1.5l-0.1,0.1c-0.1,0.1-0.3,0.3-0.4,0.4c-0.1,0.1-0.1,0.1-0.2,0.2c-0.1,0.1-0.1,0.1-0.2,0.2l-0.1,0.1
	c-0.1,0.1-0.1,0.1-0.2,0.2c-0.1,0.1-0.3,0.3-0.5,0.4c0,0-0.1,0.1-0.1,0.1c-0.2,0.1-0.3,0.3-0.5,0.4c-0.3,0.2-0.6,0.5-0.9,0.7
	c-0.3,0.2-0.6,0.4-0.9,0.6c-0.4,0.2-0.7,0.5-1.1,0.7c-0.7,0.4-1.4,0.9-2.2,1.4c-0.2,0.1-0.4,0.3-0.6,0.4c-2,1.2-4.1,2.5-6.5,3.9
	l-0.6,0.4c-0.7,0.4-1.3,0.8-1.9,1.2l-0.3,0.2l-0.6,0.4c-0.2,0.1-0.4,0.3-0.6,0.4c-0.2,0.1-0.3,0.2-0.5,0.3l-0.3,0.2
	c-0.1,0.1-0.3,0.2-0.4,0.3l-0.1,0.1c-0.1,0.1-0.3,0.2-0.4,0.3l-0.2,0.2l-0.3,0.2l-0.2,0.2c-0.4,0.3-0.8,0.6-1.2,0.8l-0.1,0.1
	c-0.2,0.1-0.3,0.2-0.4,0.3c-0.1,0.1-0.1,0.1-0.2,0.1c-0.3,0.2-0.6,0.5-0.8,0.7l-0.1,0.1c-0.1,0.1-0.1,0.1-0.2,0.2
	c0,0-0.1,0.1-0.1,0.1l-0.1,0.1c0,0-0.1,0.1-0.1,0.1c-0.1,0.1-0.2,0.2-0.3,0.3l-0.1,0.1c-0.1,0.2-0.3,0.3-0.4,0.5l0,0.1
	c-0.1,0.1-0.2,0.3-0.2,0.4c0,0,0,0.1-0.1,0.1c0,0,0,0.1,0,0.1c0,0,0,0,0,0.1l0,0.1l0,0c0,0,0,0,0,0.1c0,0,0,0.1,0,0.1
	c0,0.1-0.1,0.2-0.1,0.3c0,0,0,0,0,0.1c0,0,0,0,0,0.1c0,0,0,0,0,0.1l0,0.1c0,0,0,0,0,0.1c0,0,0,0,0,0c0,0,0,0.1,0,0.1
	c0,0,0,0.1,0,0.1c0,0,0,0,0,0c0,0,0,0.1,0,0.1c0,0,0,0,0,0c0,0,0,0.1,0,0.1c0,0,0,0.1,0,0.1c0,0,0,0,0,0c0,0,0,0.1,0,0.1
	c0,0,0,0.1,0,0.1c0,0.1,0,0.1,0.1,0.2c0,0,0,0.1,0,0.1c0,0,0,0,0,0c0,0,0,0.1,0,0.1c0,0,0,0.1,0.1,0.1c0,0.1,0.1,0.1,0.1,0.2
	c0,0,0,0.1,0.1,0.1l0.1,0.1c0,0,0,0.1,0.1,0.1c0,0,0,0,0,0.1l0,0l0,0l0,0c0,0,0,0,0.1,0c0,0,0,0,0.1,0c0,0,0,0,0.1,0
	c0.6,0.1,1.8-0.3,3.3-1.2c0.1,0,0.2-0.1,0.3-0.1l0.5-0.3l0.2-0.1c0.2-0.1,0.3-0.2,0.5-0.3c0.1-0.1,0.2-0.1,0.3-0.2
	c2.1-1.2,4.6-2.7,7.1-4.2c0.2-0.1,0.5-0.3,0.7-0.4l0.5-0.3c0.2-0.1,0.5-0.3,0.7-0.4c0.3-0.2,0.6-0.4,1-0.5c0.7-0.4,1.5-0.8,2.2-1.2
	l0.5-0.2c0.3-0.2,0.6-0.3,0.9-0.5c0.3-0.1,0.6-0.3,0.9-0.4c0.3-0.1,0.6-0.3,0.9-0.4l0.3-0.1l0,0c1.8-0.7,3.4-1.1,4.7-1.1
	c0.3,0,0.6,0,0.8,0.1h0c0.1,0,0.2,0,0.3,0.1h0c0.1,0,0.1,0,0.2,0.1c0.1,0,0.1,0,0.2,0.1c0,0,0.1,0,0.1,0c0.1,0,0.1,0,0.1,0.1
	c0.1,0,0.1,0.1,0.2,0.1c0.2,0.1,0.4,0.3,0.6,0.5c0.1,0.1,0.1,0.2,0.2,0.3c0,0,0,0.1,0.1,0.1c0,0.1,0.1,0.1,0.1,0.2
	c0,0.1,0.1,0.2,0.1,0.2c0,0.1,0.1,0.2,0.1,0.3c0,0.1,0.1,0.2,0.1,0.3C232.9,174.8,232.9,175.6,232.7,176.4z"/>
<path class="st0" d="M169.7,101c1.2,0.4,2.1,1.7,2.9,2.9c1.1,1.6,2.2,3.2,3.8,2.3c1.9-1,3.5-2.6,4.5-4.5c1-1.9,1.5-4.1,1.2-6.2
	c-0.2-2.1-1-4.2-2.4-5.9c-1.4-1.7-3.2-2.9-5.3-3.5c-2.1-0.6-4.3-0.6-6.3,0c-2.1,0.6-3.9,1.8-5.3,3.5s-2.2,3.7-2.4,5.8
	c-0.2,2.1,0.2,4.3,1.2,6.2c0.7,1.4,2.4,0.7,4.2,0C167.2,101.1,168.6,100.6,169.7,101z M118.3,101c-1.2,0.4-2.1,1.7-2.9,2.9
	c-1.1,1.6-2.2,3.2-3.8,2.3c-1.9-1-3.5-2.6-4.5-4.5c-1-1.9-1.5-4.1-1.2-6.2c0.2-2.1,1-4.2,2.4-5.9c1.4-1.7,3.2-2.9,5.3-3.5
	c2.1-0.6,4.3-0.6,6.3,0c2.1,0.6,3.9,1.8,5.3,3.5c1.4,1.7,2.2,3.7,2.4,5.8c0.2,2.1-0.2,4.3-1.2,6.2c-0.8,1.4-2.4,0.7-4.2,0
	C120.9,101.1,119.4,100.6,118.3,101z M161.8,147.7c8.1-6.4,11.1-16.9,11.1-23.3c0-5.1-3.4-3.5-8.9-0.8c-0.1,0.1-0.2,0.1-0.3,0.2
	c-5,2.5-11.8,5.8-19.1,5.8c-7.4,0-14.1-3.3-19.1-5.8c-5.7-2.8-9.2-4.6-9.2,0.6c0,6.7,3.2,17.6,11.9,23.9c1.2-2.3,2.8-4.4,4.8-6.1
	c2-1.7,4.3-2.9,6.8-3.7c0.9-0.3,1.8,1.2,2.7,2.8c0.9,1.5,1.8,3,2.7,3c1,0,1.9-1.5,2.9-3c1-1.5,1.9-3,2.9-2.7
	c0.3,0.1,0.5,0.2,0.8,0.3C156,140.5,159.6,143.6,161.8,147.7z"/>
<path class="st0" d="M98.9,110c-1.2,0.8-2.5,1.2-3.9,1.2c-0.9,0-1.9-0.2-2.7-0.5c-0.9-0.4-1.6-0.9-2.3-1.5c-0.7-0.7-1.2-1.4-1.5-2.3
	s-0.5-1.8-0.5-2.7c0-1.4,0.4-2.8,1.2-3.9c0.8-1.2,1.9-2.1,3.2-2.6c1.3-0.5,2.7-0.7,4.1-0.4c1.4,0.3,2.6,0.9,3.6,1.9
	c1,1,1.7,2.3,1.9,3.6c0.3,1.4,0.1,2.8-0.4,4.1C100.9,108.1,100,109.3,98.9,110z M200.3,110c-1.2,0.8-2.5,1.2-3.9,1.2
	c-0.9,0-1.9-0.2-2.7-0.5c-0.9-0.4-1.6-0.9-2.3-1.5c-0.7-0.7-1.2-1.4-1.5-2.3s-0.5-1.8-0.5-2.7c0-1.4,0.4-2.8,1.2-3.9
	c0.8-1.2,1.9-2.1,3.2-2.6s2.7-0.7,4.1-0.4c1.4,0.3,2.6,0.9,3.6,1.9c1,1,1.7,2.3,1.9,3.6c0.3,1.4,0.1,2.8-0.4,4.1
	C202.3,108.1,201.4,109.3,200.3,110z"/>
</svg>
