<svg xmlns="http://www.w3.org/2000/svg" width="150" height="70" fill="none" viewBox="0 0 150 70"><path fill="#000" d="M66.5425 46.2588H63.8796L63.1863 47.7541H62.1782L65.2548 41.2069L68.2206 47.7541H67.1951L66.5425 46.2588ZM66.1579 45.3812L65.2373 43.2854L64.27 45.3812H66.1579Z"/><path fill="#000" d="M70.0911 47.7541V41.1722L74.6243 45.8719V41.5879H75.5624V48.1236L71.0292 43.4355V47.7483H70.0911V47.7541Z"/><path fill="#000" d="M81.9018 46.2588H79.239L78.5456 47.7541H77.5376L80.6141 41.2069L83.5799 47.7541H82.5544L81.9018 46.2588ZM81.5173 45.3812L80.5966 43.2854L79.6294 45.3812H81.5173Z"/><path fill="#000" d="M86.441 41.5938V46.8823H88.2706V47.7541H85.5029V41.5938H86.441Z"/><path fill="#000" d="M91.0324 45.0925L89.0046 41.5938H90.0826L91.5043 44.0533L92.9319 41.5938H94.0098L91.9705 45.0925V47.7541H91.0324V45.0925Z"/><path fill="#000" d="M97.9897 42.4656V47.7541H97.0516V42.4656H95.624V41.5938H99.4172V42.4656H97.9897Z"/><path fill="#000" d="M102.342 41.5938V47.7541H101.404V41.5938H102.342Z"/><path fill="#000" d="M109.573 41.9228V43.0256C109.031 42.5752 108.472 42.3501 107.889 42.3501C107.248 42.3501 106.712 42.5752 106.275 43.0313C105.832 43.4817 105.617 44.0359 105.617 44.6941C105.617 45.3408 105.838 45.8835 106.275 46.328C106.718 46.7726 107.254 46.992 107.895 46.992C108.227 46.992 108.507 46.94 108.734 46.8303C108.862 46.7784 108.996 46.7033 109.136 46.6167C109.276 46.5243 109.422 46.4146 109.573 46.2876V47.4077C109.037 47.7079 108.472 47.858 107.883 47.858C106.992 47.858 106.234 47.552 105.611 46.9343C104.987 46.3165 104.673 45.5659 104.673 44.6941C104.673 43.9089 104.935 43.2103 105.459 42.5926C106.106 41.842 106.939 41.4609 107.959 41.4609C108.513 41.4725 109.055 41.6226 109.573 41.9228Z"/><path fill="#000" d="M115.423 42.5117L114.66 42.9562C114.52 42.7137 114.38 42.5521 114.252 42.477C114.118 42.3904 113.943 42.35 113.733 42.35C113.471 42.35 113.256 42.425 113.087 42.5694C112.918 42.7137 112.83 42.8927 112.83 43.1121C112.83 43.4123 113.058 43.6548 113.506 43.8396L114.124 44.0936C114.631 44.2957 114.998 44.5439 115.231 44.8326C115.464 45.1213 115.581 45.4793 115.581 45.9065C115.581 46.4723 115.388 46.94 115.009 47.3095C114.625 47.6847 114.147 47.8695 113.582 47.8695C113.04 47.8695 112.597 47.7136 112.248 47.3961C111.904 47.0785 111.682 46.634 111.601 46.0566L112.551 45.8488C112.591 46.2125 112.667 46.4608 112.778 46.5993C112.97 46.8649 113.256 46.9977 113.623 46.9977C113.914 46.9977 114.159 46.8995 114.351 46.709C114.543 46.5127 114.642 46.2702 114.642 45.97C114.642 45.8488 114.625 45.7391 114.59 45.6409C114.555 45.5428 114.503 45.4504 114.433 45.3638C114.363 45.2772 114.269 45.2021 114.159 45.1271C114.048 45.052 113.914 44.9827 113.757 44.9192L113.157 44.671C112.306 44.313 111.881 43.7934 111.881 43.1063C111.881 42.6444 112.061 42.2576 112.417 41.9458C112.772 41.6341 113.221 41.4724 113.751 41.4724C114.456 41.4724 115.015 41.8188 115.423 42.5117Z"/><path fill="#000" d="M64.3515 26.7789V36.6575H69.3392V38.2914H62.5977V26.7789H64.3515Z"/><path fill="#000" d="M73.8493 26.7789V38.2914H72.0955V26.7789H73.8493Z"/><path fill="#000" d="M88.521 38.4991H86.3184L85.4095 37.5754C84.4422 38.1931 83.3643 38.4991 82.1756 38.4991C80.6374 38.4991 79.2681 37.9795 78.0736 36.9461C76.7742 35.8087 76.1274 34.3537 76.1274 32.587C76.1274 30.855 76.7392 29.4058 77.9687 28.2453C79.1632 27.1195 80.5733 26.5594 82.1989 26.5594C83.6731 26.5594 84.9958 27.0502 86.1669 28.0375C87.5712 29.2211 88.2762 30.7626 88.2762 32.6679C88.2762 34.1574 87.7227 35.4853 86.6156 36.6401L88.521 38.4991ZM83.6964 33.736L85.3803 35.3987C86.1203 34.6309 86.4932 33.684 86.4932 32.5582C86.4932 31.3226 86.0795 30.2834 85.2521 29.452C84.4247 28.6206 83.3934 28.1991 82.1698 28.1991C80.9229 28.1991 79.9032 28.6148 79.0991 29.452C78.2892 30.2834 77.8871 31.3342 77.8871 32.6043C77.8871 33.8457 78.3008 34.8618 79.134 35.6528C80.0022 36.4668 80.9928 36.8768 82.1057 36.8768C82.8632 36.8768 83.5449 36.7036 84.1625 36.3629L81.4298 33.736H83.6964Z"/><path fill="#000" d="M92.5298 26.7789V33.713C92.5298 34.7002 92.693 35.4277 93.0192 35.8838C93.5029 36.5478 94.1904 36.8769 95.0761 36.8769C95.9618 36.8769 96.6493 36.5478 97.1388 35.8838C97.4651 35.4392 97.6282 34.7176 97.6282 33.713V26.7789H99.3821V34.1922C99.3821 35.4046 99.0033 36.4034 98.24 37.1886C97.3835 38.0662 96.3289 38.4992 95.0819 38.4992C93.835 38.4992 92.7804 38.0604 91.9296 37.1886C91.1663 36.4034 90.7876 35.4046 90.7876 34.1922V26.7789H92.5298Z"/><path fill="#000" d="M103.915 26.7789V38.2914H102.162V26.7789H103.915Z"/><path fill="#000" d="M107.015 38.2914V26.7789H109.451C110.622 26.7789 111.543 26.8944 112.218 27.1196C112.947 27.3447 113.605 27.7258 114.2 28.2627C115.4 29.3482 116 30.7684 116 32.5352C116 34.3019 115.377 35.7337 114.124 36.8307C113.494 37.3792 112.842 37.7602 112.154 37.9738C111.513 38.1875 110.604 38.2972 109.422 38.2972H107.015V38.2914ZM108.769 36.6575H109.561C110.348 36.6575 111.001 36.5766 111.525 36.4092C112.049 36.236 112.516 35.9589 112.941 35.5836C113.803 34.8042 114.234 33.788 114.234 32.5352C114.234 31.2707 113.809 30.2488 112.953 29.4636C112.183 28.765 111.053 28.4128 109.561 28.4128H108.769V36.6575Z"/><path fill="#000" d="M45.6638 50.6379C39.2216 50.6379 34 45.3342 34 38.798C34 30.5736 43.6719 23.4591 45.6638 16C47.65 23.4591 57.3276 30.5736 57.3276 38.798C57.3276 45.3342 52.1059 50.6379 45.6638 50.6379ZM45.5487 21.0117C44.3109 23.576 42.4917 26.0117 40.9603 28.1904C38.8359 31.222 36.1128 35.118 36.1128 39.0374C36.1128 42.7933 38.1278 46.0585 41.0927 47.7174C37.7536 41.9113 38.3063 38.3949 40.1485 35.5561C40.3155 35.2991 40.494 35.0421 40.6782 34.7968C42.5838 32.2734 45.3069 30.4451 46.7519 28.3774C48.7323 25.5386 47.1491 23.1203 45.5487 21.0117Z"/></svg>