<?xml version="1.0" encoding="utf-8"?>
<!-- Generator: Adobe Illustrator 27.2.0, SVG Export Plug-In . SVG Version: 6.00 Build 0)  -->
<svg version="1.1" id="Layer_1" xmlns="http://www.w3.org/2000/svg" xmlns:xlink="http://www.w3.org/1999/xlink" x="0px" y="0px"
	 viewBox="0 0 1407.3 593" style="enable-background:new 0 0 1407.3 593;" xml:space="preserve">
<g>
	<path d="M558.5,519.5h-45.7l-11.9,25.9h-17.3L536.4,432l50.9,113.4h-17.6L558.5,519.5z M551.9,504.3l-15.8-36.3l-16.6,36.3H551.9z"
		/>
	<path d="M619.4,545.4v-114l77.8,81.4v-74.2h16.1v113.2l-77.8-81.2v74.7H619.4z"/>
	<path d="M822.1,519.5h-45.7l-11.9,25.9h-17.3L800,432l50.9,113.4h-17.6L822.1,519.5z M815.5,504.3l-15.8-36.3l-16.6,36.3H815.5z"/>
	<path d="M900,438.7v91.6h31.4v15.1h-47.5V438.7H900z"/>
	<path d="M978.8,499.3L944,438.7h18.5l24.4,42.6l24.5-42.6h18.5l-35,60.6v46.1h-16.1V499.3z"/>
	<path d="M1098.2,453.8v91.6h-16.1v-91.6h-24.5v-15.1h65.1v15.1H1098.2z"/>
	<path d="M1172.9,438.7v106.7h-16.1V438.7H1172.9z"/>
	<path d="M1297,444.4v19.1c-9.3-7.8-18.9-11.7-28.9-11.7c-11,0-20.2,3.9-27.7,11.8c-7.6,7.8-11.3,17.4-11.3,28.8
		c0,11.2,3.8,20.6,11.3,28.3c7.6,7.7,16.8,11.5,27.8,11.5c5.7,0,10.5-0.9,14.4-2.8c2.2-0.9,4.5-2.2,6.9-3.7c2.4-1.6,4.9-3.5,7.5-5.7
		v19.4c-9.2,5.2-18.9,7.8-29,7.8c-15.3,0-28.3-5.3-39-16c-10.7-10.7-16.1-23.7-16.1-38.8c0-13.6,4.5-25.7,13.5-36.4
		c11.1-13,25.4-19.6,42.9-19.6C1278.8,436.6,1288.1,439.2,1297,444.4z"/>
	<path d="M1397.4,454.6l-13.1,7.7c-2.4-4.2-4.8-7-7-8.3c-2.3-1.5-5.3-2.2-8.9-2.2c-4.5,0-8.2,1.3-11.1,3.8c-2.9,2.5-4.4,5.6-4.4,9.4
		c0,5.2,3.9,9.4,11.6,12.6l10.6,4.4c8.7,3.5,15,7.8,19,12.8c4,5,6,11.2,6,18.6c0,9.8-3.3,17.9-9.8,24.3c-6.6,6.5-14.8,9.7-24.5,9.7
		c-9.3,0-16.9-2.7-22.9-8.2c-5.9-5.5-9.7-13.2-11.1-23.2l16.3-3.6c0.7,6.3,2,10.6,3.9,13c3.3,4.6,8.2,6.9,14.5,6.9
		c5,0,9.2-1.7,12.5-5c3.3-3.4,5-7.6,5-12.8c0-2.1-0.3-4-0.9-5.7s-1.5-3.3-2.7-4.8s-2.8-2.8-4.7-4.1c-1.9-1.3-4.2-2.5-6.9-3.6
		l-10.3-4.3c-14.6-6.2-21.9-15.2-21.9-27.1c0-8,3.1-14.7,9.2-20.1c6.1-5.4,13.8-8.2,22.9-8.2
		C1380.8,436.6,1390.4,442.6,1397.4,454.6z"/>
</g>
<g>
	<path d="M520.9,182.1v171.1h85.6v28.3H490.8V182.1H520.9z"/>
	<path d="M683.9,182.1v199.4h-30.1V182.1H683.9z"/>
	<path d="M935.7,385.1h-37.8l-15.6-16c-16.6,10.7-35.1,16-55.5,16c-26.4,0-49.9-9-70.4-26.9c-22.3-19.7-33.4-44.9-33.4-75.5
		c0-30,10.5-55.1,31.6-75.2c20.5-19.5,44.7-29.2,72.6-29.2c25.3,0,48,8.5,68.1,25.6c24.1,20.5,36.2,47.2,36.2,80.2
		c0,25.8-9.5,48.8-28.5,68.8L935.7,385.1z M852.9,302.6l28.9,28.8c12.7-13.3,19.1-29.7,19.1-49.2c0-21.4-7.1-39.4-21.3-53.8
		s-31.9-21.7-52.9-21.7c-21.4,0-38.9,7.2-52.7,21.7c-13.9,14.4-20.8,32.6-20.8,54.6c0,21.5,7.1,39.1,21.4,52.8
		c14.9,14.1,31.9,21.2,51,21.2c13,0,24.7-3,35.3-8.9L814,302.6H852.9z"/>
	<path d="M1004.5,182.1v120.1c0,17.1,2.8,29.7,8.4,37.6c8.3,11.5,20.1,17.2,35.3,17.2c15.2,0,27-5.7,35.4-17.2
		c5.6-7.7,8.4-20.2,8.4-37.6V182.1h30.1v128.4c0,21-6.5,38.3-19.6,51.9c-14.7,15.2-32.8,22.7-54.2,22.7s-39.5-7.6-54.1-22.7
		c-13.1-13.6-19.6-30.9-19.6-51.9V182.1H1004.5z"/>
	<path d="M1199.9,182.1v199.4h-30.1V182.1H1199.9z"/>
	<path d="M1253.1,381.5V182.1h41.8c20.1,0,35.9,2,47.5,5.9c12.5,3.9,23.8,10.5,34,19.8c20.6,18.8,30.9,43.4,30.9,74
		c0,30.6-10.7,55.4-32.2,74.4c-10.8,9.5-22,16.1-33.8,19.8c-11,3.7-26.6,5.6-46.9,5.6H1253.1z M1283.2,353.2h13.6
		c13.5,0,24.7-1.4,33.7-4.3c9-3,17-7.8,24.3-14.3c14.8-13.5,22.2-31.1,22.2-52.8c0-21.9-7.3-39.6-22-53.2
		c-13.2-12.1-32.6-18.2-58.2-18.2h-13.6V353.2z"/>
</g>
<path d="M202.6,593C90.7,593,0,502.2,0,390.3C0,249.5,168,127.7,202.6,0c34.5,127.7,202.6,249.5,202.6,390.3
	C405.2,502.2,314.5,593,202.6,593z M200.6,85.8c-21.5,43.9-53.1,85.6-79.7,122.9c-36.9,51.9-84.2,118.6-84.2,185.7
	c0,64.3,35,120.2,86.5,148.6c-58-99.4-48.4-159.6-16.4-208.2c2.9-4.4,6-8.8,9.2-13c33.1-43.2,80.4-74.5,105.5-109.9
	C255.9,163.3,228.4,121.9,200.6,85.8"/>
</svg>
