<svg xmlns="http://www.w3.org/2000/svg" width="150" height="70" fill="none" viewBox="0 0 150 70"><path fill="#000" d="M26 48.648C26 39.3881 26 30.2599 26 21C31.353 24.0641 36.6421 27.1281 41.9311 30.196C47.2202 27.1281 52.4415 24.1317 57.7945 21C57.7945 30.2599 57.7945 39.3881 57.7945 48.5803C55.118 47.0803 52.5055 45.5802 49.8929 44.0162C49.8929 40.9521 49.8929 37.952 49.8929 34.824C47.1524 36.388 44.5399 37.8881 41.9274 39.4521C39.3148 37.952 36.7701 36.4519 34.1576 35.0195C34.0936 35.0834 34.0258 35.0834 34.0258 35.0834C34.0258 35.0834 33.9618 35.0834 33.9618 35.1473C33.9618 35.2112 33.8978 35.2789 33.8978 35.2789C33.8978 38.2114 33.8978 41.0837 33.8978 44.0801C31.353 45.5839 28.7405 47.084 26 48.648Z"/><path fill="#000" d="M65.7068 27.9287C66.7966 27.9287 67.8199 27.9287 68.9097 27.9287C70.0623 29.7773 71.2149 31.6259 72.434 33.6031C73.6531 31.6259 74.8057 29.7773 76.0211 27.9287C77.1109 27.9287 78.1342 27.9287 79.224 27.9287C79.224 32.4528 79.224 36.9145 79.224 41.4423C78.2635 41.4423 77.3658 41.4423 76.3425 41.4423C76.3425 38.6381 76.3425 35.834 76.3425 33.0298C76.2797 33.0298 76.2132 32.9673 76.1504 32.9673C75.6369 33.5407 75.3192 34.2426 74.8685 34.816C74.4215 35.4518 73.9708 36.1537 73.5238 36.8557C72.8182 36.8557 72.0498 36.8557 71.2814 36.8557C70.4465 35.6429 69.6153 34.3713 68.7841 33.096C68.7213 33.096 68.6548 33.1585 68.6548 33.1585C68.6548 35.9001 68.6548 38.6418 68.6548 41.4459C67.6278 41.4459 66.6673 41.4459 65.7068 41.4459C65.7068 36.9806 65.7068 32.519 65.7068 27.9287Z"/><path fill="#000" d="M84.8871 34.85C84.8871 36.4835 85.3987 37.7217 86.4845 38.5723C88.2071 39.9422 90.8241 39.6186 92.1013 37.8534C93.5036 35.9603 93.1871 32.9569 91.3357 31.587C89.9959 30.6084 88.5899 30.4127 87.0587 31.1316C85.6527 31.9746 84.9497 33.3484 84.8871 34.85ZM81.7585 35.1097C81.7585 30.9961 84.8871 27.9287 89.0353 27.9287C93.0583 27.9287 96.1206 31.0601 96.1206 35.1097C96.1206 39.2234 92.992 42.2908 88.8439 42.2908C84.8209 42.2908 81.7585 39.1556 81.7585 35.1097Z"/><path fill="#000" d="M101.704 38.7132C102.808 38.7132 103.844 38.775 104.884 38.7132C105.404 38.6515 105.987 38.3973 106.44 38.1467C107.933 37.2025 108.322 35.8152 108.127 34.1774C107.933 32.7284 107.155 31.6571 105.793 31.0906C104.495 30.5858 103.133 30.7129 101.771 30.7129C101.704 33.2949 101.704 36.0041 101.704 38.7132ZM98.655 41.4188C98.655 37.01 98.655 32.4742 98.655 28.0655C98.786 28.0037 98.8496 27.9384 98.9132 27.9384C101.053 27.9384 103.197 27.8766 105.337 28.0655C108.191 28.316 110.462 30.3969 111.113 32.979C111.827 35.8116 110.724 38.6479 108.322 40.1586C107.091 40.9757 105.662 41.2917 104.233 41.357C102.546 41.357 100.795 41.357 99.1077 41.357C98.9169 41.4188 98.8496 41.4841 98.655 41.4188Z"/><path fill="#000" d="M123.021 33.3877C123.021 34.3652 123.021 35.2149 123.021 36.1247C120.868 36.1247 118.711 36.1247 116.557 36.1247C116.557 37.1022 116.557 38.0158 116.557 38.9933C119.038 38.9933 121.519 38.9933 124 38.9933C124 39.9069 124 40.7528 124 41.6663C120.54 41.6663 117.081 41.6663 113.553 41.6663C113.553 37.1022 113.553 32.5381 113.553 27.9062C117.013 27.9062 120.409 27.9062 123.868 27.9062C123.868 28.8198 123.868 29.6657 123.868 30.5793C121.451 30.5793 119.038 30.5793 116.557 30.5793C116.557 31.5568 116.557 32.4065 116.557 33.384C118.711 33.3877 120.8 33.3877 123.021 33.3877Z"/></svg>