<?xml version="1.0" encoding="utf-8"?>
<!-- Generator: Adobe Illustrator 26.0.3, SVG Export Plug-In . SVG Version: 6.00 Build 0)  -->
<svg version="1.1" id="Ebene_1" xmlns="http://www.w3.org/2000/svg" xmlns:xlink="http://www.w3.org/1999/xlink" x="0px" y="0px"
	 viewBox="0 0 2603.3 735.4" style="enable-background:new 0 0 2603.3 735.4;" xml:space="preserve">
<g>
	<g>
		<path d="M0,735.4C0,489.1,0,246.3,0,0c142.2,81.5,282.7,163,423.2,244.6C563.7,163,702.4,83.3,844.6,0c0,246.3,0,489.1,0,733.6
			c-71.1-39.9-140.5-79.8-209.9-121.4c0-81.5,0-161.3,0-244.5c-72.8,41.6-142.2,81.5-211.6,123.1c-69.4-39.9-137-79.8-206.4-117.9
			c-1.7,1.7-3.5,1.7-3.5,1.7s-1.7,0-1.7,1.7s-1.7,3.5-1.7,3.5c0,78,0,154.4,0,234.1C142.2,653.9,72.8,693.8,0,735.4"/>
	</g>
</g>
<path d="M1058,182.1c29.5,0,57.2,0,86.7,0c31.2,50.3,62.4,100.6,95.4,154.4c33-53.8,64.2-104.1,97.1-154.4c29.5,0,57.2,0,86.7,0
	c0,123.1,0,244.5,0,367.7c-26,0-50.3,0-78,0c0-76.3,0-152.6,0-228.9c-1.7,0-3.5-1.7-5.2-1.7c-13.9,15.6-22.5,34.7-34.7,50.3
	c-12.1,17.3-24.3,36.4-36.4,55.5c-19.1,0-39.9,0-60.7,0c-22.6-33-45.1-67.6-67.6-102.3c-1.7,0-3.5,1.7-3.5,1.7
	c0,74.6,0,149.2,0,225.5c-27.8,0-53.8,0-79.8,0C1058,428.4,1058,307,1058,182.1"/>
<path d="M1562.7,360.8c0,43.4,13.9,76.3,43.4,98.9c46.8,36.4,117.9,27.8,152.6-19.1c38.1-50.3,29.5-130.1-20.8-166.5
	c-36.4-26-74.6-31.2-116.2-12.1C1583.5,284.4,1564.4,320.9,1562.7,360.8z M1477.7,367.7c0-109.3,85-190.8,197.7-190.8
	c109.3,0,192.5,83.2,192.5,190.8c0,109.3-85,190.8-197.7,190.8C1560.9,558.5,1477.7,475.2,1477.7,367.7"/>
<path d="M2004.9,477c29.5,0,57.2,1.7,85,0c13.9-1.7,29.5-8.7,41.6-15.6c39.9-26,50.3-64.2,45.1-109.3c-5.2-39.9-26-69.4-62.4-85
	c-34.7-13.9-71.1-10.4-107.5-10.4C2004.9,327.8,2004.9,402.4,2004.9,477z M1923.4,551.5c0-121.4,0-246.3,0-367.7
	c3.5-1.7,5.2-3.5,6.9-3.5c57.2,0,114.5-1.7,171.7,3.5c76.3,6.9,137,64.2,154.4,135.3c19.1,78-10.4,156.1-74.6,197.7
	c-32.9,22.5-71.1,31.2-109.3,33c-45.1,0-91.9,0-137,0C1930.4,551.5,1928.6,553.3,1923.4,551.5"/>
<g>
	<path d="M2577.3,329.5c0,26,0,48.6,0,72.8c-57.2,0-114.5,0-171.7,0c0,26,0,50.3,0,76.3c65.9,0,131.8,0,197.7,0
		c0,24.3,0,46.8,0,71.1c-91.9,0-183.8,0-277.5,0c0-121.4,0-242.8,0-366c91.9,0,182.1,0,274,0c0,24.3,0,46.8,0,71.1
		c-64.2,0-128.3,0-194.2,0c0,26,0,48.6,0,74.6C2462.8,329.5,2518.3,329.5,2577.3,329.5"/>
</g>
</svg>
