<?xml version="1.0" encoding="utf-8"?>
<!-- Generator: Adobe Illustrator 26.5.0, SVG Export Plug-In . SVG Version: 6.00 Build 0)  -->
<svg version="1.1" id="Ebene_1" xmlns="http://www.w3.org/2000/svg" xmlns:xlink="http://www.w3.org/1999/xlink" x="0px" y="0px"
	 viewBox="0 0 105.9 28" style="enable-background:new 0 0 105.9 28;" xml:space="preserve">
<g>
	<path d="M6.9,20.4L3.6,10.1v10.3H1.3v-13H5l3.2,10.1l3.1-10.1h3.6v13h-2.3V10.1L9.3,20.4H6.9z"/>
	<path d="M21.5,10.6c2.5,0,4.7,1.6,4.7,5c0,3.4-2.2,5-4.7,5s-4.7-1.6-4.7-5C16.8,12.2,19,10.6,21.5,10.6z M21.5,18.9
		c1.5,0,2.5-1.1,2.5-3.3c0-2.2-1-3.3-2.5-3.3c-1.4,0-2.5,1.1-2.5,3.3C19,17.8,20,18.9,21.5,18.9z"/>
	<path d="M28.2,8h2.2v2.8h2v1.7h-2v5c0,1,0.2,1.2,1.2,1.2h0.8v1.7h-1.6c-2.1,0-2.5-0.6-2.5-2.6v-5.4h-1.4v-1.7h1.4V8z"/>
	<path d="M40.4,15c0-1-0.1-1.7-0.5-2.2c-0.3-0.3-0.7-0.5-1.3-0.5c-1.7,0-2.3,1.3-2.3,3v5h-2.2v-13h2.2V12c0.5-0.9,1.6-1.4,3-1.4
		c1.2,0,2.2,0.4,2.7,1.2c0.4,0.6,0.6,1.4,0.6,2.7v5.9h-2.2V15z"/>
	<path d="M44.2,15.6c0-3,1.9-5,4.7-5c3.1,0,4.8,2.3,4.7,5.7h-7.2c0,1.6,1.1,2.6,2.6,2.6c1.4,0,2.1-0.6,2.4-1.5l2.1,0.3
		c-0.5,1.4-1.8,3-4.4,3C45.8,20.6,44.2,18.4,44.2,15.6z M46.4,14.6h5c-0.1-1.5-1.1-2.4-2.4-2.4C47.7,12.3,46.5,13,46.4,14.6z"/>
	<path d="M60.6,12.9c-0.4,0-0.7-0.1-1-0.1c-1.4,0-2.1,0.6-2.1,2.6v4.9h-2.2v-9.6h2.1v1.6c0.5-1,1.5-1.6,2.6-1.6c0.2,0,0.4,0,0.5,0
		V12.9z"/>
	<path d="M65.4,7.4c4.2,0,7.6,1.4,7.6,6.5c0,5.1-3.4,6.5-7.6,6.5h-3.2v-13H65.4z M65.2,9.3h-0.8v9.1h0.8c2.5,0,5.3-0.4,5.3-4.6
		S67.8,9.3,65.2,9.3z"/>
	<path d="M80.7,19.2c-0.6,0.9-1.5,1.4-2.9,1.4c-1.2,0-2-0.4-2.6-1.1c-0.5-0.6-0.7-1.5-0.7-2.8v-6h2.2v5.5c0,0.8,0.1,1.4,0.3,1.8
		c0.3,0.5,0.8,0.7,1.5,0.7c1.6,0,2.2-1.3,2.2-3.1v-5h2.2v9.6h-2.2V19.2z"/>
	<path d="M93.7,13.9l-2.1,0.3c-0.2-1-1-1.8-2.3-1.8c-1.4,0-2.5,1.1-2.5,3.2c0,2.2,1.1,3.3,2.5,3.3c1.1,0,2.1-0.5,2.3-1.9l2.1,0.3
		c-0.5,2.1-2.3,3.3-4.5,3.3c-3,0-4.7-2.1-4.7-5s1.7-5,4.8-5C91.6,10.6,93.3,11.9,93.7,13.9z"/>
	<path d="M97.6,7.4v7.2l3.6-3.8h2.6l-3.4,3.6l3.7,6h-2.5l-2.7-4.4l-1.3,1.3v3.1h-2.2v-13H97.6z"/>
</g>
</svg>
