<svg width="150" height="70" viewBox="0 0 150 70" fill="none" xmlns="http://www.w3.org/2000/svg">
<path d="M81.8478 33.1114C81.3982 32.8492 80.8549 32.6993 80.2367 32.6993C79.5622 32.6993 79.0002 32.8492 78.5505 33.1489C78.1009 33.4487 77.7824 33.8608 77.5764 34.3854H77.4639V29.8704H75.0659V41.7106H77.5201V36.5773C77.5201 36.2026 77.5951 35.8654 77.745 35.6031C77.8948 35.3221 78.1009 35.116 78.3445 34.9849C78.6068 34.835 78.9065 34.7788 79.2437 34.7788C79.7496 34.7788 80.143 34.9287 80.4053 35.2284C80.6863 35.5282 80.8174 35.9591 80.8174 36.5024V41.7106H83.2717V36.0528C83.2717 35.3596 83.1405 34.7601 82.897 34.273C82.6722 33.7672 82.3162 33.3925 81.8478 33.1114Z" fill="black"/>
<path d="M65.5303 33.2988C64.8746 32.9054 64.1065 32.718 63.2072 32.718C62.3079 32.718 61.5398 32.9054 60.8841 33.2988C60.2284 33.6735 59.7226 34.2168 59.3666 34.91C59.0106 35.6031 58.842 36.39 58.842 37.308C58.842 38.226 59.0106 39.0128 59.3666 39.706C59.7226 40.3992 60.2284 40.9238 60.8841 41.3172C61.5398 41.6919 62.3079 41.898 63.2072 41.898C64.1065 41.898 64.8746 41.7106 65.5303 41.3172C66.186 40.9238 66.6918 40.3992 67.0478 39.706C67.4037 39.0128 67.5723 38.226 67.5723 37.308C67.5723 36.39 67.4037 35.5844 67.0478 34.91C66.6918 34.2168 66.186 33.6735 65.5303 33.2988ZM64.8746 38.6756C64.7434 39.0878 64.5373 39.4063 64.2563 39.6311C63.9753 39.8559 63.6381 39.987 63.2259 39.987C62.8138 39.987 62.4578 39.8746 62.1768 39.6311C61.8958 39.3875 61.6897 39.069 61.5398 38.6756C61.4087 38.2634 61.3337 37.8138 61.3337 37.2893C61.3337 36.7647 61.4087 36.3151 61.5398 35.9029C61.6897 35.4907 61.8958 35.1722 62.1768 34.9474C62.4578 34.7039 62.8138 34.5915 63.2259 34.5915C63.6381 34.5915 63.9753 34.7039 64.2563 34.9474C64.5373 35.191 64.7434 35.5095 64.8746 35.9029C65.0244 36.3151 65.0806 36.7647 65.0806 37.2893C65.0806 37.8138 65.0057 38.2634 64.8746 38.6756Z" fill="black"/>
<path d="M98.7091 32.6992C98.2033 32.6992 97.7724 32.8491 97.3977 33.1301C97.023 33.4111 96.742 33.8233 96.5921 34.3853H96.4984V32.8304H94.1191V41.7105H96.5734V36.6897C96.5734 36.3337 96.6483 36.0152 96.8169 35.7342C96.9855 35.4532 97.2103 35.2471 97.4914 35.0785C97.7724 34.9286 98.0909 34.835 98.4656 34.835C98.6342 34.835 98.8215 34.8537 99.0276 34.8724C99.2337 34.8912 99.3836 34.9286 99.5147 34.9661V32.7929C99.4023 32.7742 99.2899 32.7367 99.14 32.7367C98.9527 32.718 98.8215 32.6992 98.7091 32.6992Z" fill="black"/>
<path d="M91.6838 33.8421C91.3091 33.4674 90.8595 33.1864 90.3536 32.999C89.8478 32.8117 89.3045 32.718 88.7237 32.718C87.862 32.718 87.0938 32.9054 86.4381 33.2988C85.8012 33.6922 85.2953 34.2168 84.9394 34.91C84.5834 35.6031 84.4148 36.4087 84.4148 37.308C84.4148 38.2447 84.5834 39.0503 84.9394 39.7435C85.2953 40.4179 85.8012 40.9612 86.4569 41.3359C87.1126 41.7106 87.8994 41.898 88.8174 41.898C89.5481 41.898 90.2038 41.7855 90.7471 41.5607C91.3091 41.3359 91.7587 41.0174 92.1147 40.6053C92.4707 40.1931 92.7142 39.5749 92.8266 39.0128H90.541C90.4473 39.2376 90.3349 39.425 90.1663 39.5749C89.9977 39.7247 89.8103 39.8372 89.5855 39.9308C89.3607 40.0058 89.1172 40.0432 88.8361 40.0432C88.424 40.0432 88.068 39.9496 87.7683 39.7809C87.4685 39.6123 87.2437 39.3688 87.0751 39.0503C86.9065 38.7318 86.8316 38.3571 86.8316 37.9075H92.8828V37.2143C92.8828 36.4649 92.7704 35.8092 92.5643 35.2284C92.3583 34.6851 92.0585 34.2168 91.6838 33.8421ZM86.8503 36.3713C86.869 36.0528 86.944 35.753 87.0938 35.4907C87.2624 35.2097 87.4873 34.9662 87.7683 34.7976C88.0493 34.6289 88.3865 34.5353 88.7612 34.5353C89.1172 34.5353 89.4357 34.6102 89.6979 34.7788C89.979 34.9287 90.185 35.1535 90.3349 35.4158C90.4848 35.6968 90.5597 35.9966 90.5597 36.3525L86.8503 36.3713Z" fill="black"/>
<path d="M10.6191 40.1556C10.6191 40.1556 19.5554 46.5441 20.0987 46.8626C20.6233 47.1811 21.3914 47.256 22.0659 46.9937C22.7403 46.7315 23.2462 46.132 23.396 45.5324C23.5646 44.9329 25.6067 34.1418 25.6067 34.1418C25.6254 33.992 25.6816 33.5611 25.4568 33.1489C25.1383 32.5869 24.4264 32.2871 23.7895 32.4745C23.2836 32.6243 23.0213 32.999 22.9464 33.1302C22.834 33.3362 22.6279 33.6735 22.2532 33.9732C21.9722 34.198 21.6912 34.3292 21.56 34.3854C20.4172 34.8537 19.1433 34.4603 18.4126 33.5236C17.963 32.9428 17.1574 32.718 16.4455 32.999C15.7336 33.28 15.3214 34.0107 15.3776 34.7413C15.5088 35.9029 14.8531 37.0644 13.6915 37.5328C13.0733 37.7763 12.4176 37.7763 11.8368 37.589C11.7057 37.5515 11.2373 37.4391 10.7689 37.7014C10.1882 38.0012 9.88841 38.7131 10.0383 39.35C10.1507 39.7809 10.4879 40.062 10.6191 40.1556Z" fill="black"/>
<path d="M51.2729 37.8326H51.1418L47.882 29.8704H44.7908V41.7106H47.2263V33.9732H47.3199L50.3737 41.6544H52.041L55.0948 34.0107H55.1885V41.7106H57.6239V29.8704H54.5327L51.2729 37.8326Z" fill="black"/>
<path d="M137.115 41.7106H140L136.534 36.671L139.832 32.8304H137.003L134.155 36.2026H134.024V29.8704H131.57V41.7106H134.024V38.8817L134.698 38.1323L137.115 41.7106Z" fill="black"/>
<path d="M118.399 37.9262C118.399 38.3197 118.324 38.6569 118.156 38.9192C118.006 39.1815 117.781 39.3875 117.537 39.5374C117.275 39.6686 116.994 39.7435 116.713 39.7435C116.245 39.7435 115.87 39.5936 115.589 39.2939C115.308 38.9941 115.177 38.582 115.158 38.0574V32.8304H112.704V38.4883C112.704 39.1815 112.835 39.781 113.079 40.2681C113.341 40.7739 113.678 41.1486 114.128 41.4109C114.577 41.6732 115.102 41.823 115.701 41.823C116.376 41.823 116.938 41.6732 117.387 41.3547C117.856 41.0362 118.193 40.624 118.38 40.0995H118.474V41.7106H120.835V32.8304H118.399V37.9262Z" fill="black"/>
<path d="M125.387 34.9474C125.668 34.7413 126.005 34.6289 126.38 34.6289C126.83 34.6289 127.186 34.76 127.467 35.041C127.748 35.3033 127.916 35.6593 127.991 36.1089H130.314C130.277 35.4157 130.09 34.835 129.752 34.3104C129.415 33.7858 128.947 33.4111 128.366 33.1301C127.785 32.8491 127.111 32.6992 126.324 32.6992C125.425 32.6992 124.657 32.8866 124.001 33.28C123.345 33.6734 122.839 34.198 122.483 34.8912C122.127 35.5843 121.959 36.3712 121.959 37.2892C121.959 38.1884 122.127 38.9753 122.483 39.6685C122.839 40.3617 123.326 40.905 123.982 41.2796C124.638 41.6731 125.425 41.8604 126.324 41.8604C127.111 41.8604 127.804 41.7105 128.385 41.4295C128.965 41.1485 129.415 40.7363 129.734 40.2305C130.071 39.7059 130.258 39.1252 130.296 38.432H127.973C127.935 38.7505 127.823 39.0128 127.673 39.2376C127.523 39.4624 127.336 39.631 127.111 39.7434C126.886 39.8558 126.642 39.912 126.361 39.912C125.987 39.912 125.649 39.7996 125.368 39.5935C125.087 39.3875 124.863 39.0877 124.713 38.6943C124.563 38.3009 124.488 37.8138 124.488 37.2517C124.488 36.6897 124.563 36.2213 124.731 35.8279C124.881 35.4532 125.106 35.1534 125.387 34.9474Z" fill="black"/>
<path d="M108.732 30.5823C107.87 30.1139 106.84 29.8704 105.66 29.8704H101.426V41.7106H105.622C106.821 41.7106 107.851 41.4671 108.713 40.9987C109.575 40.5303 110.25 39.8372 110.699 38.9566C111.168 38.0761 111.392 37.0082 111.392 35.7717C111.392 34.5353 111.168 33.4861 110.699 32.6056C110.25 31.7251 109.594 31.0506 108.732 30.5823ZM108.526 37.945C108.264 38.507 107.889 38.9192 107.383 39.1814C106.877 39.4437 106.259 39.5749 105.51 39.5749H103.917V32.0248H105.51C106.24 32.0248 106.877 32.156 107.383 32.4183C107.889 32.6805 108.264 33.0927 108.526 33.636C108.788 34.198 108.919 34.91 108.919 35.7717C108.919 36.6523 108.788 37.3829 108.526 37.945Z" fill="black"/>
<path d="M73.0052 39.6871H72.6679C72.2558 39.6871 71.9186 39.3499 71.9186 38.9377V34.685H73.5859V32.8303H71.9186V30.7133H69.4643V32.849H68.2466V34.7037H69.4643V39.4061C69.4643 40.68 70.4947 41.7104 71.7687 41.7104H73.7171V39.6684L73.0052 39.6871Z" fill="black"/>
<path d="M25.5131 26.1608C25.5131 26.1608 28.698 36.6896 28.9228 37.2517C29.1476 37.8324 29.7097 38.357 30.4028 38.5631C31.096 38.7692 31.8641 38.6006 32.3512 38.2259C32.8383 37.8512 41.0628 30.5634 41.0628 30.5634C41.1752 30.4698 41.475 30.1513 41.5499 29.6829C41.6436 29.0459 41.2501 28.3715 40.6506 28.1279C40.1635 27.9406 39.7139 28.0717 39.5828 28.1279C39.3767 28.2216 39.002 28.3528 38.5336 28.3715C38.1589 28.3902 37.8779 28.3153 37.728 28.2778C36.5478 27.9406 35.7609 26.854 35.7609 25.6737C35.7422 24.9431 35.2551 24.2686 34.5244 24.0625C33.7751 23.8565 33.0069 24.1749 32.6135 24.7932C31.9953 25.8049 30.7775 26.3107 29.5785 25.9735C28.9415 25.7861 28.417 25.3927 28.0797 24.8869C27.9861 24.7745 27.6863 24.3998 27.1618 24.3061C26.5248 24.1937 25.8316 24.5684 25.5693 25.1491C25.3632 25.5988 25.4756 26.0109 25.5131 26.1608Z" fill="black"/>
</svg>
