<?xml version="1.0" encoding="utf-8"?>
<!-- Generator: Adobe Illustrator 27.0.0, SVG Export Plug-In . SVG Version: 6.00 Build 0)  -->
<svg version="1.1" id="Ebene_1" xmlns="http://www.w3.org/2000/svg" xmlns:xlink="http://www.w3.org/1999/xlink" x="0px" y="0px"
	 viewBox="0 0 693.9 123.6" style="enable-background:new 0 0 693.9 123.6;" xml:space="preserve">
<path d="M383.5,48.7c-2.4-1.4-5.3-2.2-8.6-2.2c-3.6,0-6.6,0.8-9,2.4c-2.4,1.6-4.1,3.8-5.2,6.6h-0.6V31.4h-12.8v63.2h13.1V67.2
	c0-2,0.4-3.8,1.2-5.2c0.8-1.5,1.9-2.6,3.2-3.3c1.4-0.8,3-1.1,4.8-1.1c2.7,0,4.8,0.8,6.2,2.4c1.5,1.6,2.2,3.9,2.2,6.8v27.8h13.1V64.4
	c0-3.7-0.7-6.9-2-9.5C387.9,52.2,386,50.2,383.5,48.7z"/>
<path d="M296.4,49.7c-3.5-2.1-7.6-3.1-12.4-3.1s-8.9,1-12.4,3.1c-3.5,2-6.2,4.9-8.1,8.6s-2.8,7.9-2.8,12.8s0.9,9.1,2.8,12.8
	c1.9,3.7,4.6,6.5,8.1,8.6c3.5,2,7.6,3.1,12.4,3.1s8.9-1,12.4-3.1s6.2-4.9,8.1-8.6s2.8-7.9,2.8-12.8s-0.9-9.2-2.8-12.8
	C302.6,54.6,299.9,51.7,296.4,49.7z M292.9,78.4c-0.7,2.2-1.8,3.9-3.3,5.1s-3.3,1.9-5.5,1.9s-4.1-0.6-5.6-1.9s-2.6-3-3.4-5.1
	c-0.7-2.2-1.1-4.6-1.1-7.4s0.4-5.2,1.1-7.4c0.8-2.2,1.9-3.9,3.4-5.1c1.5-1.3,3.4-1.9,5.6-1.9s4,0.6,5.5,1.9c1.5,1.3,2.6,3,3.3,5.1
	c0.8,2.2,1.1,4.6,1.1,7.4S293.6,76.2,292.9,78.4z"/>
<path d="M473.5,46.5c-2.7,0-5,0.8-7,2.3s-3.5,3.7-4.3,6.7h-0.5v-8.3H449v47.4h13.1V67.8c0-1.9,0.4-3.6,1.3-5.1s2.1-2.6,3.6-3.5
	c1.5-0.8,3.2-1.3,5.2-1.3c0.9,0,1.9,0.1,3,0.2c1.1,0.1,1.9,0.3,2.6,0.5V47c-0.6-0.1-1.2-0.3-2-0.3C474.8,46.6,474.1,46.5,473.5,46.5
	z"/>
<path d="M436,52.6c-2-2-4.4-3.5-7.1-4.5s-5.6-1.5-8.7-1.5c-4.6,0-8.7,1-12.2,3.1c-3.4,2.1-6.1,4.9-8,8.6c-1.9,3.7-2.8,8-2.8,12.8
	c0,5,0.9,9.3,2.8,13c1.9,3.6,4.6,6.5,8.1,8.5s7.7,3,12.6,3c3.9,0,7.4-0.6,10.3-1.8c3-1.2,5.4-2.9,7.3-5.1s3.2-5.5,3.8-8.5h-12.2
	c-0.5,1.2-1.1,2.2-2,3s-1.9,1.4-3.1,1.9c-1.2,0.4-2.5,0.6-4,0.6c-2.2,0-4.1-0.5-5.7-1.4s-2.8-2.2-3.7-3.9c-0.9-1.7-1.3-3.7-1.3-6.1
	l0,0h32.3v-3.7c0-4-0.6-7.5-1.7-10.6C439.6,57.1,438,54.6,436,52.6z M410.2,66.1c0.1-1.7,0.5-3.3,1.3-4.7c0.9-1.5,2.1-2.8,3.6-3.7
	s3.3-1.4,5.3-1.4c1.9,0,3.6,0.4,5,1.3c1.5,0.8,2.6,2,3.4,3.4c0.8,1.5,1.2,3.1,1.2,5L410.2,66.1L410.2,66.1z"/>
<path d="M3.3,86.3c0,0,47.7,34.1,50.6,35.8c2.8,1.7,6.9,2.1,10.5,0.7c3.6-1.4,6.3-4.6,7.1-7.8c0.9-3.2,11.8-60.8,11.8-60.8
	c0.1-0.8,0.4-3.1-0.8-5.3c-1.7-3-5.5-4.6-8.9-3.6c-2.7,0.8-4.1,2.8-4.5,3.5c-0.6,1.1-1.7,2.9-3.7,4.5c-1.5,1.2-3,1.9-3.7,2.2
	c-6.1,2.5-12.9,0.4-16.8-4.6c-2.4-3.1-6.7-4.3-10.5-2.8s-6,5.4-5.7,9.3c0.7,6.2-2.8,12.4-9,14.9c-3.3,1.3-6.8,1.3-9.9,0.3
	c-0.7-0.2-3.2-0.8-5.7,0.6C1,74.8-0.6,78.6,0.2,82C0.8,84.3,2.6,85.8,3.3,86.3z"/>
<polygon points="220.3,73.9 219.6,73.9 202.2,31.4 185.7,31.4 185.7,94.6 198.7,94.6 198.7,53.3 199.2,53.3 215.5,94.3 224.4,94.3 
	240.7,53.5 241.2,53.5 241.2,94.6 254.2,94.6 254.2,31.4 237.7,31.4 "/>
<g>
	<polygon points="678.5,94.6 693.9,94.6 675.4,67.7 693,47.2 677.9,47.2 662.7,65.2 662,65.2 662,31.4 648.9,31.4 648.9,94.6 
		662,94.6 662,79.5 665.6,75.5 	"/>
	<path d="M578.6,74.4c0,2.1-0.4,3.9-1.3,5.3c-0.8,1.4-2,2.5-3.3,3.3c-1.4,0.7-2.9,1.1-4.4,1.1c-2.5,0-4.5-0.8-6-2.4
		s-2.2-3.8-2.3-6.6V47.2h-13.1v30.2c0,3.7,0.7,6.9,2,9.5c1.4,2.7,3.2,4.7,5.6,6.1c2.4,1.4,5.2,2.2,8.4,2.2c3.6,0,6.6-0.8,9-2.5
		c2.5-1.7,4.3-3.9,5.3-6.7h0.5v8.6h12.6V47.2h-13V74.4z"/>
	<path d="M615.9,58.5c1.5-1.1,3.3-1.7,5.3-1.7c2.4,0,4.3,0.7,5.8,2.2c1.5,1.4,2.4,3.3,2.8,5.7h12.4c-0.2-3.7-1.2-6.8-3-9.6
		s-4.3-4.8-7.4-6.3c-3.1-1.5-6.7-2.3-10.9-2.3c-4.8,0-8.9,1-12.4,3.1s-6.2,4.9-8.1,8.6c-1.9,3.7-2.8,7.9-2.8,12.8
		c0,4.8,0.9,9,2.8,12.7c1.9,3.7,4.5,6.6,8,8.6c3.5,2.1,7.7,3.1,12.5,3.1c4.2,0,7.9-0.8,11-2.3s5.5-3.7,7.2-6.4
		c1.8-2.8,2.8-5.9,3-9.6h-12.4c-0.2,1.7-0.8,3.1-1.6,4.3c-0.8,1.2-1.8,2.1-3,2.7s-2.5,0.9-4,0.9c-2,0-3.8-0.6-5.3-1.7
		s-2.7-2.7-3.5-4.8c-0.8-2.1-1.2-4.7-1.2-7.7s0.4-5.5,1.3-7.6C613.2,61.2,614.4,59.6,615.9,58.5z"/>
	<path d="M527,35.2c-4.6-2.5-10.1-3.8-16.4-3.8H488v63.2h22.4c6.4,0,11.9-1.3,16.5-3.8s8.2-6.2,10.6-10.9c2.5-4.7,3.7-10.4,3.7-17
		S540,50.7,537.5,46C535.1,41.3,531.6,37.7,527,35.2z M525.9,74.5c-1.4,3-3.4,5.2-6.1,6.6c-2.7,1.4-6,2.1-10,2.1h-8.5V42.9h8.5
		c3.9,0,7.3,0.7,10,2.1c2.7,1.4,4.7,3.6,6.1,6.5c1.4,3,2.1,6.8,2.1,11.4C528,67.6,527.3,71.5,525.9,74.5z"/>
</g>
<path d="M336.3,83.8L336.3,83.8h-1.8c-2.2,0-4-1.8-4-4V57.1h8.9v-9.9h-8.9V35.9h-13.1v11.4h-6.5v9.9h6.5v25.1
	c0,6.8,5.5,12.3,12.3,12.3h10.4V83.7L336.3,83.8z"/>
<path d="M82.8,11.6c0,0,17,56.2,18.2,59.2c1.2,3.1,4.2,5.9,7.9,7s7.8,0.2,10.4-1.8s46.5-40.9,46.5-40.9c0.6-0.5,2.2-2.2,2.6-4.7
	c0.5-3.4-1.6-7-4.8-8.3c-2.6-1-5-0.3-5.7,0c-1.1,0.5-3.1,1.2-5.6,1.3c-2,0.1-3.5-0.3-4.3-0.5c-6.3-1.8-10.5-7.6-10.5-13.9
	c-0.1-3.9-2.7-7.5-6.6-8.6c-4-1.1-8.1,0.6-10.2,3.9c-3.3,5.4-9.8,8.1-16.2,6.3c-3.4-1-6.2-3.1-8-5.8c-0.5-0.6-2.1-2.6-4.9-3.1
	c-3.4-0.6-7.1,1.4-8.5,4.5C82,8.6,82.6,10.8,82.8,11.6z"/>
</svg>
