<svg width="150" height="60" viewBox="0 0 150 60" fill="none" xmlns="http://www.w3.org/2000/svg">
<path d="M48.2379 25.5761H50.1846V26.9891C50.8893 25.8925 51.9642 25.3536 53.2423 25.3536C55.375 25.3536 56.5969 26.7479 56.5969 29.1636V34.8691H54.558V29.5161C54.558 28.0482 53.8533 27.2492 52.5378 27.2492C51.0362 27.2492 50.2393 28.3646 50.2393 30.4827V34.8691H48.2379V25.5761Z" fill="#0D0D0D"/>
<path d="M62.2654 25.353C64.8606 25.353 66.1388 26.5608 66.1388 28.9765V34.8684H64.1374V33.5854C63.5077 34.5332 62.4686 35.091 61.1906 35.091C59.3187 35.091 58.0579 33.8831 58.0579 32.1724C58.0579 30.5745 59.189 29.4591 61.0234 29.2915L63.5998 29.0314C63.9889 28.9939 64.1374 28.8638 64.1374 28.6038V28.3986C64.1374 27.6184 63.4701 27.1532 62.3029 27.1532C61.0248 27.1532 60.1718 27.6921 59.9499 28.6038L58.3374 27.5823C58.8187 26.1317 60.1906 25.3515 62.267 25.3515L62.2654 25.353ZM61.4685 30.9097C60.6156 31.0021 60.1328 31.4486 60.1328 32.1175C60.1328 32.8602 60.7078 33.3254 61.6531 33.3254C63.0623 33.3254 64.1374 32.34 64.1374 31.1134V30.5745L61.4685 30.9082V30.9097Z" fill="#0D0D0D"/>
<path d="M78.9429 25.3526C81.1662 25.3526 82.4832 26.728 82.4832 29.3677V34.868H80.4631V29.5151C80.4631 28.0283 79.7959 27.2481 78.5351 27.2481C76.9227 27.2481 76.1446 28.3636 76.1446 30.4816V34.868H74.143V29.5151C74.143 28.0283 73.4572 27.2481 72.1963 27.2481C70.6011 27.2481 69.823 28.3636 69.823 30.4816V34.868H67.8215V25.5765H69.7683V27.0257C70.3433 25.9478 71.3058 25.3526 72.6791 25.3526C74.0524 25.3526 75.1071 25.9478 75.6446 27.1369C76.3678 25.9666 77.4429 25.3526 78.9443 25.3526H78.9429Z" fill="#0D0D0D"/>
<path d="M88.4089 25.3526C91.2807 25.3526 92.912 27.397 92.912 30.2591V30.8356H85.7936V30.8544C85.9794 32.435 87.2388 33.2152 88.5746 33.2152C89.798 33.2152 90.7059 32.6763 91.3541 32.0073L92.2995 33.6241C91.5401 34.3681 90.334 35.092 88.5919 35.092C85.6264 35.092 83.7545 33.1227 83.7545 30.2591C83.7545 27.3955 85.5528 25.3526 88.4074 25.3526H88.4089ZM88.3714 27.1369C86.9073 27.1369 86.0544 27.9547 85.8138 29.3113H90.726C90.5963 28.0283 89.8181 27.1369 88.3714 27.1369Z" fill="#0D0D0D"/>
<path d="M97.5983 25.3526C99.2669 25.3526 100.472 25.9478 101.269 27.0632L99.9154 28.3448C99.4154 27.5834 98.489 27.1933 97.4499 27.1933C96.5235 27.1933 95.9485 27.5285 95.9485 28.1223C95.9485 28.7536 96.561 28.9024 98.1358 29.2738C99.9904 29.7202 101.287 30.2591 101.287 32.1359C101.287 34.0127 99.9154 35.0905 97.5249 35.0905C95.6344 35.0905 94.1328 34.4028 93.4095 33.2137L94.7813 31.8946C95.3188 32.7312 96.2829 33.2701 97.672 33.2701C98.6546 33.2701 99.2484 32.9363 99.2484 32.2486C99.2484 31.5609 98.6733 31.4121 97.1907 31.0783C95.5969 30.7258 93.9096 30.1681 93.9096 28.1974C93.9096 26.4318 95.3188 25.354 97.5969 25.354L97.5983 25.3526Z" fill="#0D0D0D"/>
<path d="M102.415 25.5765H104.416V26.8956C105.157 25.8915 106.27 25.3526 107.605 25.3526C110.163 25.3526 111.943 27.3406 111.943 30.2216C111.943 33.1025 110.163 35.0905 107.624 35.0905C106.309 35.0905 105.215 34.5516 104.418 33.5302V39.3802H102.416V25.5765H102.415ZM109.885 30.223C109.885 28.4575 108.773 27.2684 107.105 27.2684C105.438 27.2684 104.326 28.4387 104.326 30.223C104.326 32.0073 105.438 33.1776 107.105 33.1776C108.773 33.1776 109.885 31.9886 109.885 30.223Z" fill="#0D0D0D"/>
<path d="M116.925 25.353C119.52 25.353 120.799 26.5608 120.799 28.9765V34.8684H118.797V33.5854C118.167 34.5332 117.128 35.091 115.85 35.091C113.978 35.091 112.717 33.8831 112.717 32.1724C112.717 30.5745 113.849 29.4591 115.683 29.2915L118.259 29.0314C118.649 28.9939 118.797 28.8638 118.797 28.6038V28.3986C118.797 27.6184 118.13 27.1532 116.963 27.1532C115.685 27.1532 114.831 27.6921 114.61 28.6038L112.997 27.5823C113.478 26.1317 114.85 25.3515 116.927 25.3515L116.925 25.353ZM116.128 30.9097C115.275 31.0021 114.793 31.4486 114.793 32.1175C114.793 32.8602 115.368 33.3254 116.313 33.3254C117.722 33.3254 118.797 32.34 118.797 31.1134V30.5745L116.128 30.9082V30.9097Z" fill="#0D0D0D"/>
<path d="M126.745 25.3526C128.115 25.3526 129.284 25.8178 130.173 26.7092L128.968 28.2884C128.263 27.6383 127.523 27.3031 126.688 27.3031C125.02 27.3031 123.89 28.4921 123.89 30.2216C123.89 31.951 125.04 33.1401 126.67 33.1401C127.541 33.1401 128.357 32.7875 129.062 32.1186L130.211 33.7165C129.321 34.608 128.079 35.092 126.671 35.092C123.799 35.092 121.834 33.1227 121.834 30.2418C121.834 27.3608 123.854 25.354 126.746 25.354L126.745 25.3526Z" fill="#0D0D0D"/>
<path d="M135.174 25.3526C138.046 25.3526 139.677 27.397 139.677 30.2591V30.8356H132.559V30.8544C132.745 32.435 134.004 33.2152 135.34 33.2152C136.563 33.2152 137.471 32.6763 138.119 32.0073L139.064 33.6241C138.305 34.3681 137.099 35.092 135.357 35.092C132.391 35.092 130.52 33.1227 130.52 30.2591C130.52 27.3955 132.318 25.3526 135.173 25.3526H135.174ZM135.136 27.1369C133.672 27.1369 132.819 27.9547 132.579 29.3113H137.491C137.361 28.0283 136.583 27.1369 135.136 27.1369Z" fill="#0D0D0D"/>
<path fill-rule="evenodd" clip-rule="evenodd" d="M25.2207 15C33.7423 15 40.6512 21.9081 40.6514 30.4297C40.6514 38.9514 33.7424 45.8604 25.2207 45.8604C16.6991 45.8601 9.79102 38.9513 9.79102 30.4297C9.79122 21.9082 16.6992 15.0002 25.2207 15ZM25.5117 38.9844H33.2578V36.6729H25.5117V38.9844ZM17.7676 23.4941V35.0264H20.0801V27.3428L25.5273 35.0264H27.4248V23.4941H25.1123V30.7832L20.0244 23.4941H17.7676Z" fill="#0D0D0D"/>
</svg>
