<?xml version="1.0" encoding="utf-8"?>
<!-- Generator: Adobe Illustrator 26.5.0, SVG Export Plug-In . SVG Version: 6.00 Build 0)  -->
<svg version="1.1" id="Ebene_1" xmlns="http://www.w3.org/2000/svg" xmlns:xlink="http://www.w3.org/1999/xlink" x="0px" y="0px"
	 viewBox="0 0 303.3 129.2" style="enable-background:new 0 0 303.3 129.2;" xml:space="preserve">
<path d="M84.2,65.1c0,9.2-3.2,17.1-9.8,23.6s-14.3,9.8-23.5,9.8s-17-3.2-23.6-9.8s-9.8-14.3-9.8-23.6s3.2-17,9.8-23.5
	s14.4-9.8,23.6-9.8s17,3.3,23.5,9.8S84.2,55.9,84.2,65.1z M50.9,41.4c-6.6,0-12.2,2.3-16.8,7s-7,10.2-7,16.8s2.3,12.2,7,16.8
	s10.2,7,16.8,7s12.2-2.3,16.8-7s7-10.2,7-16.8s-2.3-12.2-7-16.8S57.5,41.4,50.9,41.4z M103.3,93.7c0,1.3-0.5,2.4-1.4,3.4
	s-2.1,1.4-3.4,1.4S96.1,98,95.1,97s-1.4-2.1-1.4-3.4V36.6c0-1.3,0.5-2.4,1.4-3.4s2.1-1.4,3.4-1.4s2.4,0.5,3.4,1.4s1.4,2,1.4,3.4v1.2
	c4.7-4,10.3-6,16.7-6c7.2,0,13.4,2.6,18.5,7.7c1.1,1.1,2,2.2,2.9,3.4c0.9-1.2,1.9-2.3,2.9-3.4c5.1-5.1,11.3-7.7,18.5-7.7
	c7.2,0,13.4,2.6,18.5,7.7c5.1,5.1,7.7,11.3,7.7,18.5v35.7c0,1.3-0.5,2.4-1.4,3.4s-2.1,1.4-3.4,1.4s-2.4-0.5-3.4-1.4
	c-0.9-0.9-1.4-2.1-1.4-3.4V58c0-4.6-1.6-8.5-4.9-11.8s-7.2-4.9-11.8-4.9s-8.5,1.6-11.8,4.9c-3.2,3.2-4.9,7.2-4.9,11.8v35.7
	c0,1.3-0.5,2.4-1.4,3.4c-0.9,0.9-2.1,1.4-3.4,1.4s-2.4-0.5-3.4-1.4c-0.9-0.9-1.4-2.1-1.4-3.4V58c0-4.6-1.6-8.5-4.9-11.8
	s-7.2-4.9-11.8-4.9s-8.5,1.6-11.8,4.9c-3.2,3.2-4.9,7.2-4.9,11.8L103.3,93.7L103.3,93.7z M200.9,36.6c0-1.3,0.5-2.4,1.4-3.4
	c0.9-0.9,2.1-1.4,3.4-1.4s2.4,0.5,3.4,1.4c0.9,0.9,1.4,2,1.4,3.4v3.9c5.9-5.8,13.1-8.6,21.4-8.6s15.8,3,21.9,9.1
	c6,6,9.1,13.3,9.1,21.9v30.9c0,1.3-0.5,2.4-1.4,3.4s-2,1.4-3.4,1.4s-2.4-0.5-3.4-1.4c-0.9-0.9-1.4-2.1-1.4-3.4V62.8
	c0-5.9-2.1-11-6.3-15.1c-4.2-4.2-9.2-6.3-15.1-6.3s-10.9,2.1-15.1,6.3c-4.2,4.2-6.3,9.2-6.3,15.1v30.9c0,1.3-0.5,2.4-1.4,3.4
	s-2.1,1.4-3.4,1.4s-2.4-0.5-3.4-1.4c-0.9-0.9-1.4-2.1-1.4-3.4L200.9,36.6L200.9,36.6L200.9,36.6z M285.4,17.6c0,1.6-0.6,3-1.8,4.2
	s-2.6,1.8-4.2,1.8s-3-0.6-4.2-1.8s-1.8-2.6-1.8-4.2c0-1.6,0.6-3,1.8-4.2s2.6-1.7,4.2-1.7s3,0.6,4.2,1.8S285.4,16,285.4,17.6z
	 M274.7,36.6c0-1.3,0.5-2.4,1.4-3.4s2-1.4,3.4-1.4s2.4,0.5,3.4,1.4s1.4,2,1.4,3.4v57.1c0,1.3-0.5,2.4-1.4,3.4s-2,1.4-3.4,1.4
	s-2.4-0.5-3.4-1.4s-1.4-2.1-1.4-3.4V36.6z"/>
<path d="M79.5,108c1.3,0,2.4,0.5,3.4,1.4s1.4,2.1,1.4,3.4s-0.5,2.4-1.4,3.4s-2.1,1.4-3.4,1.4H22.4c-1.3,0-2.4-0.5-3.4-1.4
	c-0.9-0.9-1.4-2.1-1.4-3.4s0.5-2.4,1.4-3.4s2-1.4,3.4-1.4H79.5z"/>
</svg>
