<svg width="150" height="70" viewBox="0 0 150 70" fill="none" xmlns="http://www.w3.org/2000/svg">
<path d="M57.7817 34.9692C57.7817 37.1945 56.9671 39.1054 55.2869 40.6776C53.6068 42.2499 51.6467 43.0481 49.3047 43.0481C46.9627 43.0481 44.9771 42.2741 43.297 40.6776C41.6169 39.0812 40.8022 37.2187 40.8022 34.9692C40.8022 32.7197 41.6169 30.8572 43.297 29.2849C44.9771 27.7127 46.9627 26.9145 49.3047 26.9145C51.6467 26.9145 53.6323 27.7127 55.2869 29.2849C56.9416 30.8572 57.7817 32.7439 57.7817 34.9692ZM49.3047 29.2366C47.6246 29.2366 46.199 29.7929 45.028 30.9297C43.857 32.0666 43.2461 33.3969 43.2461 34.9934C43.2461 36.5898 43.8316 37.9444 45.028 39.057C46.2245 40.1697 47.6246 40.7502 49.3047 40.7502C50.9848 40.7502 52.4104 40.1939 53.5814 39.057C54.7523 37.9202 55.3633 36.5898 55.3633 34.9934C55.3633 33.3969 54.7778 32.0424 53.5814 30.9297C52.3849 29.8171 50.9848 29.2366 49.3047 29.2366ZM62.6438 41.8871C62.6438 42.2015 62.5165 42.4676 62.2874 42.7095C62.0583 42.9513 61.7529 43.0481 61.4219 43.0481C61.091 43.0481 60.811 42.9272 60.5564 42.6853C60.3018 42.4434 60.2 42.1773 60.2 41.8629V28.0755C60.2 27.7611 60.3273 27.495 60.5564 27.2531C60.7855 27.0112 61.091 26.9145 61.4219 26.9145C61.7529 26.9145 62.0329 27.0354 62.2874 27.2531C62.542 27.4708 62.6438 27.7369 62.6438 28.0755V28.3658C63.8403 27.3982 65.2658 26.9145 66.895 26.9145C68.7279 26.9145 70.3062 27.5434 71.6045 28.777C71.8845 29.043 72.1136 29.3091 72.3427 29.5994C72.5718 29.3091 72.8264 29.043 73.0809 28.777C74.3792 27.5434 75.9575 26.9145 77.7904 26.9145C79.6232 26.9145 81.2015 27.5434 82.4998 28.777C83.7981 30.0106 84.4599 31.5103 84.4599 33.2518V41.8871C84.4599 42.2015 84.3327 42.4676 84.1036 42.7095C83.8745 42.9513 83.569 43.0481 83.238 43.0481C82.9071 43.0481 82.6271 42.9272 82.3725 42.7095C82.1434 42.4918 82.0161 42.2015 82.0161 41.8871V33.2518C82.0161 32.1392 81.6088 31.1958 80.7688 30.3976C79.9287 29.5994 78.9359 29.2124 77.7649 29.2124C76.5939 29.2124 75.6011 29.5994 74.7611 30.3976C73.9465 31.1716 73.5137 32.1392 73.5137 33.2518V41.8871C73.5137 42.2015 73.3864 42.4676 73.1573 42.7095C72.9282 42.9272 72.6227 43.0481 72.2918 43.0481C71.9609 43.0481 71.6808 42.9272 71.4263 42.7095C71.1972 42.4918 71.0699 42.2015 71.0699 41.8871V33.2518C71.0699 32.1392 70.6626 31.1958 69.8225 30.3976C68.9825 29.5994 67.9897 29.2124 66.8187 29.2124C65.6477 29.2124 64.6549 29.5994 63.8148 30.3976C63.0002 31.1716 62.5675 32.1392 62.5675 33.2518L62.6438 41.8871ZM87.4893 28.0755C87.4893 27.7611 87.6165 27.495 87.8456 27.2531C88.0748 27.0354 88.3802 26.9145 88.7112 26.9145C89.0421 26.9145 89.3221 27.0354 89.5767 27.2531C89.8058 27.4708 89.9331 27.7369 89.9331 28.0755V29.0189C91.435 27.6159 93.2679 26.9387 95.3807 26.9387C97.4936 26.9387 99.4028 27.6643 100.956 29.1398C102.483 30.5911 103.272 32.3569 103.272 34.437V41.9113C103.272 42.2257 103.145 42.4918 102.916 42.7337C102.687 42.9755 102.407 43.0723 102.05 43.0723C101.694 43.0723 101.439 42.9513 101.185 42.7337C100.956 42.516 100.828 42.2257 100.828 41.9113V34.4129C100.828 32.9857 100.294 31.7521 99.2247 30.7604C98.1555 29.7445 96.8827 29.2366 95.3807 29.2366C93.8788 29.2366 92.606 29.7445 91.5368 30.7604C90.4677 31.7763 89.9331 32.9857 89.9331 34.4129V41.8871C89.9331 42.2015 89.8058 42.4676 89.5767 42.7095C89.3476 42.9513 89.0421 43.0481 88.7112 43.0481C88.3802 43.0481 88.1002 42.9272 87.8456 42.7095C87.6165 42.4918 87.4893 42.2015 87.4893 41.8871V28.0755ZM109 23.4797C109 23.8667 108.847 24.2054 108.542 24.4956C108.236 24.7859 107.88 24.931 107.473 24.931C107.065 24.931 106.709 24.7859 106.403 24.4956C106.098 24.2054 105.945 23.8667 105.945 23.4797C105.945 23.0927 106.098 22.7541 106.403 22.4638C106.709 22.1736 107.065 22.0526 107.473 22.0526C107.88 22.0526 108.236 22.1977 108.542 22.488C108.847 22.7783 109 23.0927 109 23.4797ZM106.276 28.0755C106.276 27.7611 106.403 27.495 106.632 27.2531C106.862 27.0112 107.142 26.9145 107.498 26.9145C107.854 26.9145 108.109 27.0354 108.363 27.2531C108.618 27.4708 108.72 27.7369 108.72 28.0755V41.8871C108.72 42.2015 108.593 42.4676 108.363 42.7095C108.134 42.9513 107.854 43.0481 107.498 43.0481C107.142 43.0481 106.887 42.9272 106.632 42.7095C106.378 42.4918 106.276 42.2015 106.276 41.8871V28.0755Z" fill="black"/>
<path d="M56.5851 45.3459C56.9161 45.3459 57.1961 45.4669 57.4507 45.6846C57.7052 45.9023 57.807 46.1925 57.807 46.507C57.807 46.8214 57.6798 47.0875 57.4507 47.3294C57.2216 47.5713 56.9161 47.668 56.5851 47.668H42.0495C41.7186 47.668 41.4386 47.5471 41.184 47.3294C40.9549 47.1117 40.8276 46.8214 40.8276 46.507C40.8276 46.1925 40.9549 45.9265 41.184 45.6846C41.4131 45.4427 41.6932 45.3459 42.0495 45.3459H56.5851Z" fill="black"/>
</svg>
