<?xml version="1.0" encoding="utf-8"?>
<!-- Generator: Adobe Illustrator 28.1.0, SVG Export Plug-In . SVG Version: 6.00 Build 0)  -->
<svg version="1.1" id="Ebene_1" xmlns="http://www.w3.org/2000/svg" xmlns:xlink="http://www.w3.org/1999/xlink" x="0px" y="0px"
	 viewBox="0 0 198 61" style="enable-background:new 0 0 198 61;" xml:space="preserve">
<style type="text/css">
	.st0{fill-rule:evenodd;clip-rule:evenodd;}
</style>
<path d="M78.8,17.6v9.1c0,2.2-1.8,4-4,4c-2.2,0-4-1.8-4-4v-9.1c0-2.2,1.8-4,4-4C77,13.7,78.8,15.4,78.8,17.6z M76.6,17.6
	c0-1-0.8-1.8-1.8-1.8c-1,0-1.8,0.8-1.8,1.8v9.1c0,1,0.8,1.8,1.8,1.8c1,0,1.8-0.8,1.8-1.8V17.6z"/>
<path d="M89.6,14.2v10.7c0,0.8-0.2,1.5-0.7,2.2L87,30.4c-0.1,0.2-0.3,0.3-0.5,0.3h-1.9c-0.2,0-0.4-0.1-0.5-0.3l-1.9-3.3
	c-0.4-0.7-0.7-1.4-0.7-2.2V14.2c0-0.3,0.2-0.6,0.6-0.6h1.1c0.3,0,0.6,0.2,0.6,0.6v10.7c0,0.2,0,0.4,0.1,0.6l1.7,3l1.7-3
	c0-0.2,0.1-0.3,0.1-0.6V14.2c0-0.3,0.3-0.6,0.6-0.6H89C89.3,13.7,89.6,13.9,89.6,14.2L89.6,14.2z"/>
<path d="M94.6,15.9v5.2h3c0.3,0,0.6,0.2,0.6,0.6v1.1c0,0.3-0.2,0.6-0.6,0.6h-3v5.2h3c0.3,0,0.6,0.2,0.6,0.6v1.1
	c0,0.3-0.2,0.6-0.6,0.6h-4.1c-0.6,0-1.1-0.5-1.1-1.1V14.8c0-0.6,0.5-1.1,1.1-1.1h4.1c0.3,0,0.6,0.2,0.6,0.6v1.1
	c0,0.3-0.2,0.6-0.6,0.6H94.6z"/>
<path d="M108.8,19.3c0,1.1-0.4,2.2-1.2,2.9c0.8,0.7,1.2,1.7,1.2,2.9v5.1c0,0.3-0.2,0.6-0.6,0.6h-1.1c-0.3,0-0.6-0.3-0.6-0.6V25
	c0-1-0.8-1.8-1.8-1.8h-1.8v6.9c0,0.3-0.3,0.6-0.6,0.6h-1.1c-0.3,0-0.6-0.3-0.6-0.6V14.8c0-0.6,0.5-1.1,1.1-1.1h2.9c2.2,0,4,1.8,4,4
	V19.3z M106.6,17.6c0-1-0.8-1.8-1.8-1.8h-1.8v5.2h1.8c1,0,1.8-0.8,1.8-1.8V17.6z"/>
<path d="M116.7,14.2v1.1c0,0.3-0.2,0.6-0.6,0.6h-1.5v14.3c0,0.3-0.2,0.6-0.6,0.6h-1.1c-0.3,0-0.6-0.3-0.6-0.6V15.9h-1.5
	c-0.3,0-0.6-0.2-0.6-0.6v-1.1c0-0.3,0.2-0.6,0.6-0.6h5.3C116.4,13.7,116.7,13.9,116.7,14.2L116.7,14.2z"/>
<path d="M127.1,14.2v12.5c0,2.2-1.8,4-4,4s-4-1.8-4-4V14.2c0-0.3,0.3-0.6,0.5-0.6h1.1c0.3,0,0.5,0.2,0.5,0.6v12.5
	c0,1,0.8,1.8,1.8,1.8s1.8-0.8,1.8-1.8V14.2c0-0.3,0.2-0.6,0.6-0.6h1.1C126.9,13.7,127.1,13.9,127.1,14.2z"/>
<path d="M137.7,19.3c0,1.1-0.4,2.2-1.2,2.9c0.8,0.7,1.2,1.7,1.2,2.9v5.1c0,0.3-0.2,0.6-0.6,0.6H136c-0.3,0-0.6-0.3-0.6-0.6V25
	c0-1-0.8-1.8-1.8-1.8H132v6.9c0,0.3-0.3,0.6-0.6,0.6h-1.1c-0.3,0-0.6-0.3-0.6-0.6V14.8c0-0.6,0.5-1.1,1.1-1.1h2.9c2.2,0,4,1.8,4,4
	V19.3z M135.5,17.6c0-1-0.8-1.8-1.8-1.8H132v5.2h1.8c1,0,1.8-0.8,1.8-1.8V17.6z"/>
<path d="M142.8,15.9v5.2h3c0.3,0,0.6,0.2,0.6,0.6v1.1c0,0.3-0.2,0.6-0.6,0.6h-3v5.2h3c0.3,0,0.6,0.2,0.6,0.6v1.1
	c0,0.3-0.2,0.6-0.6,0.6h-4.1c-0.6,0-1.1-0.5-1.1-1.1V14.8c0-0.6,0.5-1.1,1.1-1.1h4.1c0.3,0,0.6,0.2,0.6,0.6v1.1
	c0,0.3-0.2,0.6-0.6,0.6H142.8z"/>
<path d="M166.7,17.4v12.5c0,0.3-0.2,0.6-0.6,0.6h-1.1c-0.3,0-0.6-0.3-0.6-0.6V17.4c0-1-0.8-1.8-1.8-1.8s-1.8,0.8-1.8,1.8v12.5
	c0,0.3-0.2,0.6-0.6,0.6h-1.1c-0.3,0-0.6-0.3-0.6-0.6V17.4c0-1-0.8-1.8-1.8-1.8c-1,0-1.8,0.8-1.8,1.8v12.5c0,0.3-0.2,0.6-0.6,0.6
	h-1.1c-0.3,0-0.5-0.3-0.5-0.6V17.4c0-2.2,1.8-4,4-4c1.1,0,2.1,0.5,2.9,1.2c0.7-0.8,1.8-1.2,2.9-1.2
	C164.9,13.4,166.7,15.2,166.7,17.4z"/>
<path d="M177.5,17.4v12.5c0,0.3-0.2,0.6-0.6,0.6h-1.1c-0.3,0-0.6-0.2-0.6-0.6v-6.8h-3.5v6.8c0,0.3-0.2,0.6-0.6,0.6h-1.1
	c-0.3,0-0.5-0.2-0.5-0.6V17.4c0-2.2,1.8-4,4-4C175.8,13.5,177.5,15.3,177.5,17.4z M175.3,17.4c0-1-0.8-1.8-1.8-1.8
	c-1,0-1.8,0.8-1.8,1.8v3.4h3.5V17.4z"/>
<path d="M188.3,17.4V19c0,2.2-1.8,4-4,4h-1.8v6.9c0,0.3-0.2,0.6-0.6,0.6h-1.1c-0.3,0-0.6-0.3-0.6-0.6V14c0-0.3,0.3-0.6,0.6-0.6h3.4
	C186.5,13.4,188.3,15.2,188.3,17.4L188.3,17.4z M186.1,17.4c0-1-0.8-1.8-1.8-1.8h-1.8v5.2h1.8c1,0,1.8-0.8,1.8-1.8V17.4z"/>
<path d="M195.8,18.6v-1.2c0-1-0.8-1.8-1.8-1.8c-1,0-1.8,0.8-1.8,1.8c0,0.3,0,0.5,0.1,0.6l4.8,6.3c0.6,0.7,0.8,1.5,0.8,2.2
	c0,2.2-1.8,4-4,4s-4-1.8-4-4v-1.2c0-0.3,0.2-0.6,0.6-0.6h1.1c0.3,0,0.6,0.2,0.6,0.6v1.2c0,1,0.8,1.8,1.8,1.8c1,0,1.8-0.8,1.8-1.8
	c0-0.3,0-0.5-0.1-0.6l-4.8-6.3c-0.5-0.7-0.8-1.5-0.8-2.2c0-2.2,1.8-4,4-4s4,1.8,4,4v1.2c0,0.3-0.2,0.6-0.6,0.6h-1.1
	C196,19.1,195.8,18.9,195.8,18.6L195.8,18.6z"/>
<path d="M71.9,46.2v-8.6h5.6v1h-4.6v2.8h4.5v1h-4.5v3.9H71.9z"/>
<path d="M80.3,41.9c0-2.5,1.7-4.5,4.3-4.5s4.3,1.9,4.3,4.5c0,2.5-1.7,4.5-4.3,4.5S80.3,44.5,80.3,41.9z M87.8,41.9
	c0-2-1.3-3.5-3.2-3.5c-1.9,0-3.2,1.5-3.2,3.5c0,2,1.2,3.5,3.2,3.5C86.5,45.4,87.8,43.9,87.8,41.9z"/>
<path d="M92.2,42.9v-5.3h1.1v5.2c0,1.6,0.8,2.6,2.4,2.6c1.6,0,2.4-1,2.4-2.6v-5.2h1.1v5.3c0,2.1-1.2,3.5-3.5,3.5
	C93.4,46.4,92.2,45,92.2,42.9L92.2,42.9z"/>
<path d="M109,46.2l-5-6.9v6.9h-1.1v-8.6h1.1l5,6.7v-6.7h1.1v8.6H109z"/>
<path d="M113.7,46.2v-8.6h2.9c2.7,0,4.4,1.9,4.4,4.3c0,2.4-1.7,4.3-4.4,4.3H113.7z M120,41.9c0-1.9-1.2-3.4-3.3-3.4h-1.9v6.7h1.9
	C118.7,45.3,120,43.8,120,41.9z"/>
<path d="M130.1,46.2l-0.8-1.9H125l-0.8,1.9H123l3.5-8.6h1.3l3.5,8.6H130.1L130.1,46.2z M127.2,38.7l-1.8,4.7h3.7L127.2,38.7z"/>
<path d="M135.4,46.2v-7.7h-2.7v-1h6.5v1h-2.7v7.7H135.4z"/>
<path d="M142.2,46.2v-8.6h1.1v8.6H142.2z"/>
<path d="M146.6,41.9c0-2.5,1.7-4.5,4.3-4.5c2.5,0,4.3,1.9,4.3,4.5c0,2.5-1.7,4.5-4.3,4.5C148.4,46.4,146.6,44.5,146.6,41.9z
	 M154.1,41.9c0-2-1.3-3.5-3.2-3.5c-1.9,0-3.2,1.5-3.2,3.5c0,2,1.2,3.5,3.2,3.5C152.8,45.4,154.1,43.9,154.1,41.9z"/>
<path d="M164.6,46.2l-5-6.9v6.9h-1.1v-8.6h1.1l5,6.7v-6.7h1.1v8.6H164.6z"/>
<path d="M54.1,44.2l1.9,1C56,45.3,56,45.5,56,45.6c0,0.3,0.2,0.6,0.4,0.7l-2.7,1.2c0.1-0.1,0.1-0.2,0.1-0.4c0-0.5-0.4-0.8-0.8-0.8
	c-0.5,0-0.8,0.4-0.8,0.8c0,0.4,0.3,0.7,0.6,0.8L50,49.2c-0.1-0.1-0.2-0.2-0.4-0.2c-0.3,0-0.5,0.2-0.5,0.5c0,0,0,0.1,0,0.1l-12.7,5.8
	c0-0.4-0.4-0.7-0.8-0.7c-0.5,0-0.8,0.4-0.8,0.8c0,0.2,0.1,0.4,0.2,0.6l-3.4,1.6l-6-3.2c0.1-0.1,0.2-0.3,0.2-0.6
	c0-0.5-0.4-0.8-0.8-0.8c-0.4,0-0.7,0.3-0.8,0.7l-5.8-3.1c0.4,0,0.8-0.4,0.8-0.8S18.9,49,18.5,49c-0.5,0-0.8,0.4-0.8,0.8
	c0,0.2,0,0.3,0.1,0.4l-3.9-2.1c0.1-0.1,0.1-0.2,0.1-0.3c0-0.3-0.2-0.5-0.5-0.5c-0.2,0-0.4,0.2-0.5,0.4L9,45.5
	c0.3-0.1,0.4-0.4,0.4-0.7C9.4,44.3,9,44,8.6,44c-0.5,0-0.8,0.4-0.8,0.8v0.1l-2-1.1l2-0.9c0.1,0.2,0.2,0.3,0.5,0.3
	c0.3,0,0.5-0.2,0.5-0.5c0-0.1,0-0.1,0-0.2l0.2-0.1L6.2,41l-5.9,2.5l31.2,16.8L62.8,46l-5.9-3L54.1,44.2L54.1,44.2z"/>
<path d="M40.4,51.7c0,0.5-0.4,0.8-0.8,0.8c-0.5,0-0.8-0.4-0.8-0.8c0-0.5,0.4-0.8,0.8-0.8C40,50.9,40.4,51.3,40.4,51.7z"/>
<path d="M46,50.3c0,0.5-0.4,0.8-0.8,0.8c-0.5,0-0.8-0.4-0.8-0.8c0-0.5,0.4-0.8,0.8-0.8C45.7,49.5,46,49.9,46,50.3z"/>
<path d="M49.6,47.3c0,0.5-0.4,0.8-0.8,0.8c-0.5,0-0.8-0.4-0.8-0.8c0-0.5,0.4-0.8,0.8-0.8C49.2,46.5,49.6,46.9,49.6,47.3z"/>
<path d="M30.5,54.7c0,0.5-0.4,0.8-0.8,0.8c-0.5,0-0.8-0.4-0.8-0.8c0-0.5,0.4-0.8,0.8-0.8C30.1,53.9,30.5,54.3,30.5,54.7z"/>
<path d="M13,45.2c0.2,0,0.4-0.1,0.6-0.2l-1.4-0.7c0,0.1,0,0.1,0,0.2C12.1,44.8,12.5,45.2,13,45.2L13,45.2z"/>
<path d="M23,50.9c0.3,0,0.6-0.2,0.8-0.5l-1.5-0.8c-0.1,0.1-0.1,0.3-0.1,0.4C22.2,50.6,22.6,51,23,50.9L23,50.9z"/>
<path d="M15.2,47c0,0.5,0.4,0.8,0.8,0.8c0.5,0,0.8-0.4,0.8-0.8c0-0.1,0-0.2,0-0.2l-1-0.5C15.5,46.3,15.2,46.6,15.2,47L15.2,47z"/>
<path d="M57.1,36l-2.1,1l-0.6,0.3l-0.5,0.2l0.9,2.5l-2.1,1l-0.9-2.5l-1.1,0.5l0.9,2.5l-1.8,0.8l-0.9-2.5l-1.1,0.5l0.9,2.5l-2.1,1
	l-0.9-2.5l-1.1,0.5l0.9,2.5l-2.2,1l-0.9-2.5l-1.1,0.5l0.9,2.5l-1.8,0.8L39.5,44l-1.1,0.5l0.9,2.5l-2.1,1l-0.9-2.5L35.2,46l0.9,2.5
	l-1.9,0.8l-0.9-2.5l-1.1,0.5l0.9,2.5l-1.5,0.7L31,50.3L30,47.1l-1.6-0.8l1.1,3.1L27,48.1L26,45l-1.6-0.8l1.1,3.1l-2.6-1.4l-1.1-3.1
	l-1.6-0.8l1.1,3.1l-2.4-1.3l-1.1-3.1l-1.6-0.8l1.1,3.1l-2.6-1.4l-1.1-3.1l-1.6-0.8l1.1,3.1l-2.5-1.3l-1.1-3.1l-1.3-0.7l-0.3-0.2
	l-2.4-1.3l-5.4,2.4l31.2,16.8L62.8,39L57.1,36L57.1,36z M8.2,35.7l1,2.9l-3.4-1.8L8.2,35.7z M55.2,37.7l2.1,1.1l-1.5,0.7L55.2,37.7z
	"/>
<path d="M37.4,53.2c0,0.6-1,0.6-1,0C36.4,52.6,37.4,52.6,37.4,53.2z"/>
<path d="M33.2,55.7c0,0.6-1,0.6-1,0C32.2,55,33.2,55,33.2,55.7z"/>
<path d="M21.2,50.6c0,0.6-1,0.6-1,0C20.2,50,21.2,50,21.2,50.6z"/>
<path d="M24.9,51.7c0,0.6-1,0.6-1,0C23.9,51.1,24.9,51.1,24.9,51.7z"/>
<path d="M11.5,45.5c0,0.6-1,0.6-1,0C10.5,44.8,11.5,44.8,11.5,45.5z"/>
<path d="M43.1,51.6c0,0.6-1,0.6-1,0C42.1,50.9,43.1,50.9,43.1,51.6z"/>
<path d="M47,48.3c0,0.6-1,0.6-1,0C46.1,47.7,47,47.7,47,48.3z"/>
<path d="M27.8,53c0,0.6-1,0.6-1,0C26.9,52.4,27.8,52.4,27.8,53z"/>
<path class="st0" d="M38.4,3.2c5.9,2.5,9.9,8.3,9.9,15c0,4.2-1.6,7.9-4.1,10.8c-0.3-0.6-0.7-1.8-0.2-3.5c0.7-1.9-0.5-4.4-1.8-5.5
	c-0.8-0.6-2,0.1-2.7,0.3c-1.5,0.3-2.4-0.5-3.2-2.5c-1.3-3.4,1.2-5.3,2.7-6c1.4-0.6,2.8-1.6,3.7-1.2c0.6,0.3,0.7,1,0.9,1.2
	c0.6,0.5,1.2,0.7,1.9,0.2c0.9-0.8-1.6-3.3-3.2-3.2c-1.7,0.1-1.9,0.9-2.8,1.5c-0.9,0.6-2.5,0.6-2.3-0.9c0.2-1.8,2.4-0.2,1.8-2.3
	c-0.6-1.7,0.8-0.3,1.4-1.1c0.6-0.8-0.5-1.4-1.2-0.8c-0.6,0.6-1.4,0-1.1-1.5C38.3,3.4,38.3,3.3,38.4,3.2L38.4,3.2z M25.9,3.1
	c0.1,0.5,0.5,1.7,1,2.1c0.7,0.5,1,1.5,0.2,1.9c-0.9,0.4-1.2,0.6-0.6,0.8C27,8.1,26.6,9.2,25.8,9C25,8.7,24,8.3,23.9,9.1
	c-0.1,0.9-0.7,1.9-1.1,2.4c-0.4,0.5-0.9,0.7-0.7,1.4c0.2,0.7-0.3,1.2-0.5,0.6c-0.3-0.6-1.3-0.6-2,0c0,0-1.9,2.1-0.9,2.3
	c1.2,0.3,2.6,0.3,3,1.7c0.2,0.9,0.8,1.6,1.9,1.1c1.1-0.5,2.5-0.6,3.6,0.5s1.9-0.2,3,2.4c1.2,1.6,4.3-1.1,2.6,4
	c-1.1,3.1-2.3,1.6-2.6,2.9c-0.5,2.2-3.8,5.1-3.8,5.1L24,32.3c0,0,1.1-5,0-5.9c-1.1-0.9-2.4-3.6-2.1-4.9c0.3-1.3,1-1.7-0.7-2.6
	c-1.7-0.9-1.4-1.8-2.6-2.1c-1-0.2-2.3,0-2.8,0.1c0-0.5,0.1-1.1,0.2-1.6l0.6-2.5C18.2,8.4,21.6,4.8,25.9,3.1L25.9,3.1z M32,0
	C22,0,13.8,8.2,13.8,18.2c0,10.1,8.2,18.2,18.2,18.2c10.1,0,18.2-8.2,18.2-18.2C50.2,8.2,42.1,0,32,0z"/>
<path d="M49.1,25.6c-0.1,0.2-0.1,0.3-0.2,0.5c0,0.1,0,0.1-0.1,0.2c-0.2,0.5-0.5,1-0.8,1.5l9,4.4L31.3,43.8L5.5,29.9l9.4-4.1
	c0,0,0,0,0,0c-0.1-0.2-0.2-0.4-0.3-0.7c0-0.1-0.1-0.2-0.1-0.3c0-0.1-0.1-0.2-0.1-0.3c-0.1-0.3-0.2-0.6-0.3-1L0,29.7l7.1,3.8L9.8,35
	l1.8,1l1.6,0.8l2.6,1.4l1.6,0.8l2.4,1.3l1.6,0.8l2.6,1.4l1.6,0.8l2.5,1.3l1.6,0.8l1.8,1l0.6-0.3l1.1-0.5l1.9-0.8l1.1-0.5l2.1-1
	l1.1-0.5l1.8-0.8l1.1-0.5l2.2-1l1.1-0.5l2.1-1l1.1-0.5l1.8-0.8l1.1-0.5l1.6-0.7l0.5-0.2l1.1-0.5l1.2-0.5l6.8-3.1L49.1,25.6
	L49.1,25.6z"/>
</svg>
