<?xml version="1.0" encoding="utf-8"?>
<!-- Generator: Adobe Illustrator 28.1.0, SVG Export Plug-In . SVG Version: 6.00 Build 0)  -->
<svg version="1.1" id="Ebene_1" xmlns="http://www.w3.org/2000/svg" xmlns:xlink="http://www.w3.org/1999/xlink" x="0px" y="0px"
	 viewBox="0 0 1076 865.7" style="enable-background:new 0 0 1076 865.7;" xml:space="preserve">
<style type="text/css">
	.st0{fill-rule:evenodd;clip-rule:evenodd;}
</style>
<g id="a">
</g>
<path class="st0" d="M591,57.4c46,19.4,78.2,65,78.2,118.1c0,32.7-12.2,62.5-32.3,85.1c-2.6-4.9-5.8-14.5-1.4-27.6
	c5.2-15.3-3.8-34.9-14.5-43c-6.1-4.6-15.7,1.1-21.3,2.1c-11.7,2-18.9-3.6-24.9-20c-10-27.1,9.6-42,21-47c11.3-5,21.9-12.7,29.1-9.1
	c4.8,2.4,5.8,8.1,7.4,9.4c4.6,3.8,9.8,5.8,15.2,1.2c7.3-6.2-12.9-25.8-25-24.8c-13.7,1.1-14.6,7.2-21.9,11.7
	c-7.3,4.5-19.6,4.7-18.1-7c1.8-14.3,19.2-1.4,14.5-17.9c-4.7-13.2,6.4-2.1,11.1-8.7c4.7-6.6-4.2-11.1-9.1-6.1
	c-4.9,5.1-11.2,0-9-12.1C590.6,59,590.8,58.3,591,57.4L591,57.4L591,57.4z M493.3,56.5c1,4.3,3.6,13.2,7.7,16.2
	c5.4,4,8.1,11.9,1.4,15c-6.8,3.1-9.4,4.7-5,6.6c4.4,1.9,1.1,10.5-5.3,8.3c-6.4-2.2-14.2-5.5-14.8,1.4s-5.2,15-8.8,19
	c-3.5,4-7,5.4-5.7,10.8c1.2,5.4-2.2,9.6-4.3,5c-2.1-4.6-10.5-5.1-15.8,0.1c0,0-14.7,16.6-7,18.1c9.5,2,20.6,2.6,23.5,13
	c1.9,6.8,6.3,12.4,15.2,8.6c8.8-3.8,19.7-4.5,28.3,4.2s14.7-1.4,23.8,18.9c9.6,12.8,34-8.5,20.7,31.1c-8.3,24.6-17.9,12.5-20.1,23
	c-3.6,17.3-29.8,39.7-29.8,39.7l-19.5-9c0,0,9-39.4,0-46.5c-9-7.2-18.7-28.6-16.3-38.6c2.4-10,8-13.3-5.1-20.4
	c-13.1-7.2-10.7-14.1-20.6-16.4c-8-1.9-18.5,0-22.2,0.8c0.3-4.2,0.9-8.4,1.6-12.5l5.1-19.6C432.2,98.4,459.1,70.3,493.3,56.5
	L493.3,56.5L493.3,56.5z M541.1,32.2c-79.1,0-143.3,64.3-143.3,143.3s64.3,143.3,143.3,143.3s143.3-64.3,143.3-143.3
	S620.2,32.2,541.1,32.2L541.1,32.2z"/>
<path d="M736.6,370.2l46.6,23.9L536.8,506.4L291.1,374.5l46.6-19.8l21.2,11.4l-1.5,0.7c0.2,0.5,0.3,1,0.3,1.6c0,2.1-1.7,3.8-3.8,3.8
	c-1.7,0-3-0.9-3.6-2.3l-15.8,6.8l15.5,8.3v-0.5c0-3.6,2.9-6.5,6.5-6.5s6.5,2.9,6.5,6.5c0,2.4-1.3,4.6-3.3,5.6l32.5,17.4
	c0.3-1.7,1.9-3.1,3.7-3.1c2.1,0,3.8,1.7,3.8,3.8c0,1-0.4,2-1.1,2.7l30.3,16.3c-0.7-1-1-2.2-1-3.4c0-3.6,2.9-6.5,6.5-6.5
	s6.5,2.9,6.5,6.5s-2.7,6.3-6.2,6.5l45.3,24.3c0.6-3,3.1-5.1,6.3-5.1c3.6,0,6.5,2.9,6.5,6.5c0,1.7-0.7,3.3-1.8,4.5l46.8,25l26.7-12.2
	c-1.1-1.2-1.7-2.7-1.7-4.4c0-3.6,2.9-6.5,6.5-6.5c3.3,0,6.1,2.6,6.5,5.8l100.2-45.6c-0.1-0.3-0.2-0.7-0.2-1c0-2.1,1.7-3.8,3.8-3.8
	c1.3,0,2.5,0.8,3.2,1.7l22.2-10.1c-2.8-0.7-5-3.2-5-6.3c0-3.6,2.9-6.5,6.5-6.5s6.5,2.9,6.5,6.5c0,1.1-0.2,2.1-0.8,3l20.9-9.5
	c-2-1.1-3.4-3.2-3.4-5.7c0-1,0.2-1.9,0.6-2.7l-15.3-7.8L736.6,370.2L736.6,370.2z M606.8,438.9c0-3.6-2.9-6.5-6.5-6.5
	s-6.5,2.9-6.5,6.5s2.9,6.5,6.5,6.5S606.8,442.4,606.8,438.9 M651.4,428.1c0-3.6-2.9-6.5-6.5-6.5s-6.5,2.9-6.5,6.5s2.9,6.5,6.5,6.5
	S651.4,431.6,651.4,428.1 M679.4,404.4c0-3.6-2.9-6.5-6.5-6.5s-6.5,2.9-6.5,6.5s2.9,6.5,6.5,6.5S679.4,408,679.4,404.4 M529.2,462.4
	c0-3.6-2.9-6.5-6.5-6.5s-6.5,2.9-6.5,6.5s2.9,6.5,6.5,6.5S529.2,466,529.2,462.4 M391.2,387.7c1.7,0,3.4-0.7,4.6-1.8l-11-5.9
	c-0.1,0.4-0.1,0.8-0.1,1.2C384.7,384.8,387.6,387.7,391.2,387.7L391.2,387.7L391.2,387.7z M470.3,432.9c2.7,0,5-1.6,6-3.9l-11.5-6.1
	c-0.7,1-1,2.2-1,3.5C463.8,430,466.7,432.9,470.3,432.9L470.3,432.9L470.3,432.9z M409.1,401.6c0,3.6,2.9,6.5,6.5,6.5
	s6.5-2.9,6.5-6.5c0-0.7-0.1-1.2-0.2-1.9l-8.1-4.3C411,396.1,409.1,398.6,409.1,401.6L409.1,401.6L409.1,401.6z M783.2,338.5
	L536.8,450.8L291.1,318.9l42.8-18.5l18.9,10.1l2.2,1.2l10,5.3l8.5,24.6l19.7,10.5l-8.4-24.6l12.2,6.6l8.4,24.6l20.3,11l-8.4-24.6
	l12.2,6.6l8.4,24.6l19.2,10.3l-8.4-24.6l12.2,6.6l8.3,24.6l20.3,11l-8.4-24.6l12.2,6.6l8.4,24.6l19.4,10.2l-8.4-24.6l12.2,6.6
	l8.4,24.6l4.2,2.2l12-5.5l-6.8-19.9l8.6-3.9l6.8,19.9l14.7-6.6l-6.8-19.9l8.6-3.9l6.8,19.9l16.4-7.5l-6.8-19.9l8.6-3.9l6.8,19.9
	l14.4-6.6l-6.8-19.9l8.6-3.9l6.8,19.9l17-7.7l-6.8-19.9l8.6-3.9l6.8,19.9l16.4-7.5l-6.8-19.9l8.6-3.9l6.8,19.9l14.4-6.6l-6.8-19.9
	l8.6-3.9l6.8,19.9l16.4-7.5l-6.8-19.9l3.7-1.7l5-2.2l16.8-7.7L783.2,338.5L783.2,338.5z M334.4,320.9l26.9,14.4l-7.7-22.7
	L334.4,320.9z M728.3,343.1l12-5.5l-16.8-8.6L728.3,343.1L728.3,343.1z M583.6,450.9c0-5.1-7.6-5.1-7.6,0S583.6,456,583.6,450.9
	 M550.5,470.1c0-5.1-7.6-5.1-7.6,0S550.5,475.2,550.5,470.1 M456,430.2c0-5.1-7.6-5.1-7.6,0S456,435.3,456,430.2 M485.1,438.9
	c0-5.1-7.6-5.1-7.6,0S485.1,443.9,485.1,438.9 M379.4,390c0-5.1-7.6-5.1-7.6,0S379.4,395.1,379.4,390 M628,437.9
	c0-5.1-7.6-5.1-7.6,0S628,443,628,437.9 M659.2,412.4c0-5.1-7.6-5.1-7.6,0S659.2,417.5,659.2,412.4 M508.2,449.4
	c0-5.1-7.6-5.1-7.6,0S508.2,454.5,508.2,449.4 M675.4,233.8c-0.5,1.3-1.1,2.5-1.6,3.8c-0.2,0.4-0.4,0.8-0.6,1.2c-1.8,4-3.8,8-6,11.8
	l0,0l71,34.3l-202.4,91.9l-203.1-109l73.6-32.4c0-0.1-0.1-0.2-0.1-0.3c-0.7-1.7-1.4-3.4-2-5.2c-0.3-0.9-0.6-1.7-0.9-2.6
	c-0.3-0.8-0.6-1.6-0.8-2.5c-0.8-2.5-1.6-5-2.3-7.6v0l-110.6,48.7l55.7,29.9l21.1,11.4l14.1,7.6l12.2,6.6l20.3,11l12.2,6.6l19.2,10.3
	l12.2,6.6l20.3,11l12.2,6.6l19.5,10.5l12.2,6.6l14.4,7.7l4.6-2.2l8.6-3.9l14.6-6.6l8.6-3.9l16.4-7.5l8.6-3.9l14.4-6.6l8.6-3.9
	l17-7.7l8.6-3.9l16.4-7.5l8.6-3.9l14.4-6.6l8.6-3.9l12.5-5.6l4-1.8l8.6-3.9l9.2-4.2l53.9-24.6L675.4,233.8L675.4,233.8z"/>
<path d="M100.5,610.6V682c0,17.3-14.1,31.4-31.1,31.4S38,699.3,38,682v-71.4c0-17,14.1-31.1,31.4-31.1S100.5,593.5,100.5,610.6z
	 M83.2,610.6c0-7.6-6.2-13.8-13.8-13.8s-14.1,6.2-14.1,13.8V682c0,7.8,6.2,14.1,14.1,14.1s13.8-6.2,13.8-14.1V610.6z"/>
<path d="M185.1,584.1v84.1c0,6.2-1.9,12.2-5.1,17.3l-14.6,25.7c-0.8,1.3-2.2,2.2-3.8,2.2h-15.2c-1.6,0-3-0.8-3.8-2.2L128,685.5
	c-3.2-5.1-5.1-11.1-5.1-17.3v-84.1c0-2.4,1.9-4.3,4.3-4.3h8.7c2.4,0,4.3,1.9,4.3,4.3v84.1c0,1.6,0.3,3,0.8,4.3l13,23.3l13.2-23.3
	c0.3-1.3,0.5-2.7,0.5-4.3v-84.1c0-2.4,2.2-4.3,4.3-4.3h8.7C183.2,579.7,185.1,581.6,185.1,584.1L185.1,584.1z"/>
<path d="M225.2,596.8v40.8h23.5c2.4,0,4.3,1.9,4.3,4.3v8.7c0,2.4-1.9,4.3-4.3,4.3h-23.5V696h23.5c2.4,0,4.3,1.9,4.3,4.3v8.7
	c0,2.4-1.9,4.3-4.3,4.3h-32.2c-4.9,0-8.7-4.1-8.7-8.7V588.1c0-4.9,3.8-8.7,8.7-8.7h32.2c2.4,0,4.3,1.9,4.3,4.3v8.7
	c0,2.4-1.9,4.3-4.3,4.3L225.2,596.8L225.2,596.8z"/>
<path d="M336.3,623.5c0,8.9-3.5,17-9.5,22.7c6,5.7,9.5,13.5,9.5,22.5V709c0,2.2-1.9,4.3-4.3,4.3h-8.7c-2.4,0-4.3-2.2-4.3-4.3v-40.3
	c0-7.6-6.2-13.8-13.8-13.8h-13.8V709c0,2.2-2.2,4.3-4.3,4.3h-8.7c-2.4,0-4.3-2.2-4.3-4.3V588.1c0-4.9,3.8-8.7,8.7-8.7h22.4
	c17.3,0,31.1,14.1,31.1,31.1L336.3,623.5L336.3,623.5z M319,610.6c0-7.6-6.2-13.8-13.8-13.8h-13.8v40.8h13.8
	c7.6,0,13.8-6.2,13.8-14.1V610.6L319,610.6z"/>
<path d="M398.3,583.8v8.7c0,2.4-1.9,4.3-4.3,4.3h-12.2V709c0,2.2-1.9,4.3-4.3,4.3h-8.7c-2.4,0-4.3-2.2-4.3-4.3V596.8h-12.2
	c-2.4,0-4.3-1.9-4.3-4.3v-8.7c0-2.4,1.9-4.3,4.3-4.3h41.6C396.3,579.5,398.2,581.3,398.3,583.8L398.3,583.8z"/>
<path d="M480.5,583.8V682c0,17.3-14.1,31.4-31.1,31.4S418,699.3,418,682v-98.2c0-2.4,2.2-4.3,4.3-4.3h8.7c2.4,0,4.3,1.9,4.3,4.3V682
	c0,7.8,6.2,14.1,14.1,14.1s13.8-6.2,13.8-14.1v-98.2c0-2.4,1.9-4.3,4.3-4.3h8.7C478.6,579.5,480.5,581.3,480.5,583.8L480.5,583.8z"
	/>
<path d="M563.8,623.5c0,8.9-3.5,17-9.5,22.7c6,5.7,9.5,13.5,9.5,22.5V709c0,2.2-1.9,4.3-4.3,4.3h-8.7c-2.4,0-4.3-2.2-4.3-4.3v-40.3
	c0-7.6-6.2-13.8-13.8-13.8h-13.8V709c0,2.2-2.2,4.3-4.3,4.3h-8.7c-2.4,0-4.3-2.2-4.3-4.3V588.1c0-4.9,3.8-8.7,8.7-8.7h22.5
	c17.3,0,31.1,14.1,31.1,31.1L563.8,623.5L563.8,623.5z M546.5,610.6c0-7.6-6.2-13.8-13.8-13.8h-13.8v40.8h13.8
	c7.6,0,13.8-6.2,13.8-14.1V610.6L546.5,610.6z"/>
<path d="M603.5,596.8v40.8h23.5c2.4,0,4.3,1.9,4.3,4.3v8.7c0,2.4-1.9,4.3-4.3,4.3h-23.5V696h23.5c2.4,0,4.3,1.9,4.3,4.3v8.7
	c0,2.4-1.9,4.3-4.3,4.3h-32.2c-4.9,0-8.7-4.1-8.7-8.7V588.1c0-4.9,3.8-8.7,8.7-8.7h32.2c2.4,0,4.3,1.9,4.3,4.3v8.7
	c0,2.4-1.9,4.3-4.3,4.3L603.5,596.8L603.5,596.8z"/>
<path d="M791.9,608.9v98.5c0,2.2-1.9,4.3-4.3,4.3h-8.7c-2.4,0-4.3-2.2-4.3-4.3v-98.5c0-7.6-6.2-13.8-14.1-13.8s-13.8,6.2-13.8,13.8
	v98.5c0,2.2-1.9,4.3-4.3,4.3h-8.7c-2.4,0-4.3-2.2-4.3-4.3v-98.5c0-7.6-6.2-13.8-13.8-13.8s-14.1,6.2-14.1,13.8v98.5
	c0,2.2-1.9,4.3-4.3,4.3h-8.7c-2.2,0-4.3-2.2-4.3-4.3v-98.5c0-17,14.1-31.1,31.4-31.1c8.7,0,16.8,3.8,22.5,9.7
	c5.7-6,13.8-9.7,22.5-9.7C777.8,577.8,791.9,591.8,791.9,608.9L791.9,608.9z"/>
<path d="M876.8,609.2v98.2c0,2.4-1.9,4.3-4.3,4.3h-8.7c-2.4,0-4.3-1.9-4.3-4.3v-53.8h-27.9v53.8c0,2.4-1.9,4.3-4.3,4.3h-8.7
	c-2.4,0-4.3-1.9-4.3-4.3v-98.2c0-17,14.1-31.1,31.4-31.1S876.8,592.1,876.8,609.2L876.8,609.2z M859.5,609.2
	c0-7.6-6.2-13.8-13.8-13.8s-14.1,6.2-14.1,13.8v27h27.9L859.5,609.2L859.5,609.2z"/>
<path d="M961.7,608.9v13c0,17.3-14.1,31.4-31.1,31.4h-14.1v54.1c0,2.2-1.9,4.3-4.3,4.3h-8.7c-2.2,0-4.3-2.2-4.3-4.3V582.1
	c0-2.4,2.2-4.3,4.3-4.3h27C947.7,577.8,961.7,591.8,961.7,608.9L961.7,608.9z M944.4,608.9c0-7.6-6.2-13.8-13.8-13.8h-14.1v40.8
	h14.1c7.6,0,13.8-6.2,13.8-14.1V608.9L944.4,608.9z"/>
<path d="M1020.7,618.1v-9.2c0-7.6-6.2-13.8-13.8-13.8s-13.8,6.2-13.8,13.8c0,2.3,0.3,3.9,0.8,4.6l37.6,49.8
	c4.3,5.8,6.5,11.5,6.5,17.3c0,17-14.1,31.1-31.1,31.1s-31.1-14.1-31.1-31.1v-9.2c0-2.4,1.9-4.3,4.3-4.3h8.7c2.4,0,4.3,1.9,4.3,4.3
	v9.2c0,7.6,6.2,13.8,13.8,13.8s13.8-6.2,13.8-13.8c0-2.3-0.3-3.9-0.8-4.6l-37.6-49.8c-4.3-5.8-6.5-11.5-6.5-17.3
	c0-17,14.1-31.1,31.1-31.1s31.1,14.1,31.1,31.1v9.2c0,2.4-1.9,4.3-4.3,4.3h-8.7C1022.6,622.4,1020.7,620.5,1020.7,618.1z"/>
<path d="M169.2,835.7v-67.8h44.4v7.5h-36v21.8h35.3v7.5h-35.3v30.9L169.2,835.7L169.2,835.7z"/>
<path d="M235.5,801.9c0-20,13.6-35.1,33.6-35.1s33.7,15,33.7,35.1s-13.7,35.1-33.7,35.1C249.1,836.9,235.5,821.9,235.5,801.9
	L235.5,801.9z M294.1,801.9c0-15.8-9.9-27.5-25-27.5c-15.1,0-24.9,11.7-24.9,27.5s9.6,27.5,24.9,27.5S294.1,817.6,294.1,801.9z"/>
<path d="M329,809.4v-41.5h8.5v41.3c0,12.4,6.6,20.2,19.1,20.2s19.2-7.8,19.2-20.2v-41.3h8.5v41.4c0,16.9-9.4,27.6-27.7,27.6
	S329,826.1,329,809.4L329,809.4z"/>
<path d="M461.2,835.7l-39.5-54.1v54.1h-8.4v-67.8h8.6l39,52.9v-52.9h8.4v67.8L461.2,835.7L461.2,835.7z"/>
<path d="M498.2,835.7v-67.8h23.2c21.1,0,34.8,14.7,34.8,33.9s-13.6,33.8-34.8,33.8L498.2,835.7L498.2,835.7z M547.4,801.9
	c0-14.6-9.2-26.4-26-26.4h-14.7v52.7h14.7C537.9,828.2,547.4,816.4,547.4,801.9z"/>
<path d="M627,835.7l-6-15.1h-33.7l-6,15.1h-9.7l27.3-67.8h10.5l27.2,67.8L627,835.7L627,835.7z M604.1,776.6l-14.3,36.6h28.8
	L604.1,776.6z"/>
<path d="M668.4,835.7v-60.3H647v-7.5h51.4v7.5h-21.5v60.3H668.4L668.4,835.7z"/>
<path d="M722.6,835.7v-67.8h8.4v67.8L722.6,835.7L722.6,835.7z"/>
<path d="M757.2,801.9c0-20,13.6-35.1,33.6-35.1s33.7,15,33.7,35.1s-13.7,35.1-33.7,35.1S757.2,821.9,757.2,801.9z M815.8,801.9
	c0-15.8-9.9-27.5-25-27.5s-24.9,11.7-24.9,27.5s9.7,27.5,24.9,27.5S815.8,817.6,815.8,801.9z"/>
<path d="M898.6,835.7l-39.5-54.1v54.1h-8.4v-67.8h8.6l39,52.9v-52.9h8.4v67.8L898.6,835.7L898.6,835.7z"/>
</svg>
