<svg width="150" height="70" viewBox="0 0 150 70" fill="none" xmlns="http://www.w3.org/2000/svg">
<path d="M63.1535 27.9024V33.0224C63.1535 34.2602 62.1449 35.2729 60.9122 35.2729C59.6795 35.2729 58.6709 34.2602 58.6709 33.0224V27.9024C58.6709 26.6646 59.6795 25.6519 60.9122 25.6519C62.1449 25.7081 63.1535 26.6646 63.1535 27.9024ZM61.9208 27.9024C61.9208 27.3398 61.4725 26.8897 60.9122 26.8897C60.3519 26.8897 59.9036 27.3398 59.9036 27.9024V33.0224C59.9036 33.585 60.3519 34.0351 60.9122 34.0351C61.4725 34.0351 61.9208 33.585 61.9208 33.0224V27.9024Z" fill="black"/>
<path d="M69.2049 25.9894V32.0096C69.2049 32.4598 69.0928 32.8536 68.8127 33.2475L67.748 35.1042C67.692 35.2167 67.5799 35.2729 67.4679 35.2729H66.4033C66.2912 35.2729 66.1791 35.2167 66.1231 35.1042L65.0585 33.2475C64.8344 32.8536 64.6663 32.4598 64.6663 32.0096V25.9894C64.6663 25.8206 64.7783 25.6519 65.0025 25.6519H65.6188C65.7869 25.6519 65.955 25.7644 65.955 25.9894V32.0096C65.955 32.1222 65.955 32.2347 66.011 32.3472L66.9636 34.0351L67.9161 32.3472C67.9161 32.2347 67.9722 32.1784 67.9722 32.0096V25.9894C67.9722 25.8206 68.1403 25.6519 68.3084 25.6519H68.8687C69.0368 25.7081 69.2049 25.8206 69.2049 25.9894Z" fill="black"/>
<path d="M72.0066 26.9458V29.8715H73.6876C73.8557 29.8715 74.0238 29.984 74.0238 30.2091V30.828C74.0238 30.9968 73.9117 31.1656 73.6876 31.1656H72.0066V34.0913H73.6876C73.8557 34.0913 74.0238 34.2038 74.0238 34.4289V35.0478C74.0238 35.2166 73.9117 35.3854 73.6876 35.3854H71.3903C71.0541 35.3854 70.7739 35.104 70.7739 34.7665V26.3269C70.7739 25.9893 71.0541 25.708 71.3903 25.708H73.6876C73.8557 25.708 74.0238 25.8205 74.0238 26.0456V26.6645C74.0238 26.8333 73.9117 27.0021 73.6876 27.0021H72.0066V26.9458Z" fill="black"/>
<path d="M79.9631 28.8588C79.9631 29.4777 79.7389 30.0966 79.2907 30.4904C79.7389 30.8843 79.9631 31.4469 79.9631 32.1221V34.9915C79.9631 35.1603 79.851 35.3291 79.6269 35.3291H79.0105C78.8424 35.3291 78.6743 35.1603 78.6743 34.9915V32.0658C78.6743 31.5032 78.2261 31.0531 77.6657 31.0531H76.6572V34.9352C76.6572 35.104 76.4891 35.2728 76.321 35.2728H75.7046C75.5365 35.2728 75.3684 35.104 75.3684 34.9352V26.3269C75.3684 25.9893 75.6486 25.708 75.9848 25.708H77.6097C78.8424 25.708 79.851 26.7208 79.851 27.9586V28.8588H79.9631ZM78.7303 27.9023C78.7303 27.3397 78.2821 26.8895 77.7218 26.8895H76.7132V29.8153H77.7218C78.2821 29.8153 78.7303 29.3651 78.7303 28.8025V27.9023Z" fill="black"/>
<path d="M84.3897 25.9894V26.6083C84.3897 26.7771 84.2776 26.9459 84.0535 26.9459H83.213V34.9916C83.213 35.1604 83.1009 35.3292 82.8768 35.3292H82.2604C82.0923 35.3292 81.9242 35.1604 81.9242 34.9916V26.9459H81.0838C80.9157 26.9459 80.7476 26.8334 80.7476 26.6083V25.9894C80.7476 25.8206 80.8596 25.6519 81.0838 25.6519H84.0535C84.2216 25.7081 84.3897 25.8206 84.3897 25.9894Z" fill="black"/>
<path d="M90.217 25.9894V33.0224C90.217 34.2602 89.2084 35.2729 87.9757 35.2729C86.743 35.2729 85.7344 34.2602 85.7344 33.0224V25.9894C85.7344 25.8206 85.9025 25.6519 86.0145 25.6519H86.6309C86.799 25.6519 86.9111 25.7644 86.9111 25.9894V33.0224C86.9111 33.585 87.3593 34.0351 87.9196 34.0351C88.48 34.0351 88.9282 33.585 88.9282 33.0224V25.9894C88.9282 25.8206 89.0403 25.6519 89.2644 25.6519H89.8808C90.1049 25.7081 90.217 25.8206 90.217 25.9894Z" fill="black"/>
<path d="M96.1564 28.8588C96.1564 29.4777 95.9323 30.0966 95.484 30.4904C95.9323 30.8843 96.1564 31.4469 96.1564 32.1221V34.9915C96.1564 35.1603 96.0444 35.3291 95.8202 35.3291H95.2039C95.0358 35.3291 94.8677 35.1603 94.8677 34.9915V32.0658C94.8677 31.5032 94.4194 31.0531 93.8591 31.0531H92.9626V34.9352C92.9626 35.104 92.7945 35.2728 92.6264 35.2728H92.01C91.8419 35.2728 91.6738 35.104 91.6738 34.9352V26.3269C91.6738 25.9893 91.954 25.708 92.2902 25.708H93.9151C95.1478 25.708 96.1564 26.7208 96.1564 27.9586V28.8588ZM94.9237 27.9023C94.9237 27.3397 94.4754 26.8895 93.9151 26.8895H92.9626V29.8153H93.9712C94.5315 29.8153 94.9797 29.3651 94.9797 28.8025V27.9023H94.9237Z" fill="black"/>
<path d="M99.0144 26.9458V29.8715H100.695C100.864 29.8715 101.032 29.984 101.032 30.2091V30.828C101.032 30.9968 100.92 31.1656 100.695 31.1656H99.0144V34.0913H100.695C100.864 34.0913 101.032 34.2038 101.032 34.4289V35.0478C101.032 35.2166 100.92 35.3854 100.695 35.3854H98.3981C98.0619 35.3854 97.7817 35.104 97.7817 34.7665V26.3269C97.7817 25.9893 98.0619 25.708 98.3981 25.708H100.695C100.864 25.708 101.032 25.8205 101.032 26.0456V26.6645C101.032 26.8333 100.92 27.0021 100.695 27.0021H99.0144V26.9458Z" fill="black"/>
<path d="M112.406 27.7899V34.8228C112.406 34.9916 112.294 35.1604 112.07 35.1604H111.454C111.285 35.1604 111.117 34.9916 111.117 34.8228V27.7899C111.117 27.2272 110.669 26.7771 110.109 26.7771C109.548 26.7771 109.1 27.2272 109.1 27.7899V34.8228C109.1 34.9916 108.988 35.1604 108.764 35.1604H108.148C107.98 35.1604 107.811 34.9916 107.811 34.8228V27.7899C107.811 27.2272 107.363 26.7771 106.803 26.7771C106.242 26.7771 105.794 27.2272 105.794 27.7899V34.8228C105.794 34.9916 105.682 35.1604 105.458 35.1604H104.842C104.674 35.1604 104.562 34.9916 104.562 34.8228V27.7899C104.562 26.5521 105.57 25.5393 106.803 25.5393C107.419 25.5393 107.98 25.8206 108.428 26.2145C108.82 25.7644 109.436 25.5393 110.053 25.5393C111.397 25.5393 112.406 26.5521 112.406 27.7899Z" fill="black"/>
<path d="M118.457 27.7899V34.8228C118.457 34.9916 118.345 35.1604 118.121 35.1604H117.505C117.337 35.1604 117.169 35.0479 117.169 34.8228V30.9969H115.208V34.8228C115.208 34.9916 115.096 35.1604 114.871 35.1604H114.255C114.087 35.1604 113.975 35.0479 113.975 34.8228V27.7899C113.975 26.5521 114.983 25.5393 116.216 25.5393C117.505 25.5956 118.457 26.6083 118.457 27.7899ZM117.225 27.7899C117.225 27.2272 116.776 26.7771 116.216 26.7771C115.656 26.7771 115.208 27.2272 115.208 27.7899V29.7028H117.169V27.7899H117.225Z" fill="black"/>
<path d="M124.509 27.7899V28.6901C124.509 29.9279 123.5 30.9406 122.268 30.9406H121.259V34.8228C121.259 34.9916 121.147 35.1604 120.923 35.1604H120.306C120.138 35.1604 119.97 34.9916 119.97 34.8228V25.8769C119.97 25.7081 120.138 25.5393 120.306 25.5393H122.212C123.5 25.5393 124.509 26.5521 124.509 27.7899ZM123.276 27.7899C123.276 27.2272 122.828 26.7771 122.268 26.7771H121.259V29.7028H122.268C122.828 29.7028 123.276 29.2527 123.276 28.6901V27.7899Z" fill="black"/>
<path d="M128.711 28.465V27.7899C128.711 27.2272 128.263 26.7771 127.703 26.7771C127.143 26.7771 126.694 27.2272 126.694 27.7899C126.694 27.9586 126.694 28.0712 126.75 28.1274L129.44 31.672C129.776 32.0659 129.888 32.516 129.888 32.9098C129.888 34.1476 128.88 35.1604 127.647 35.1604C126.414 35.1604 125.406 34.1476 125.406 32.9098V32.2347C125.406 32.0659 125.518 31.8971 125.742 31.8971H126.358C126.526 31.8971 126.694 32.0096 126.694 32.2347V32.9098C126.694 33.4725 127.143 33.9226 127.703 33.9226C128.263 33.9226 128.711 33.4725 128.711 32.9098C128.711 32.7411 128.711 32.6285 128.655 32.5723L125.966 29.0277C125.686 28.6338 125.518 28.1837 125.518 27.7899C125.518 26.5521 126.526 25.5393 127.759 25.5393C128.992 25.5393 130 26.5521 130 27.7899V28.465C130 28.6338 129.888 28.8026 129.664 28.8026H129.048C128.823 28.7463 128.711 28.6338 128.711 28.465Z" fill="black"/>
<path d="M59.2874 43.9937V39.155H62.4252V39.7177H59.8477V41.2931H62.3691V41.8557H59.8477V44.05H59.2874V43.9937Z" fill="black"/>
<path d="M63.9941 41.5743C63.9941 40.1678 64.9467 39.0425 66.4035 39.0425C67.8604 39.0425 68.8129 40.1115 68.8129 41.5743C68.8129 42.9809 67.8604 44.1062 66.4035 44.1062C64.9467 44.1062 63.9941 43.0372 63.9941 41.5743ZM68.1966 41.5743C68.1966 40.4491 67.4681 39.6051 66.4035 39.6051C65.3389 39.6051 64.6105 40.4491 64.6105 41.5743C64.6105 42.6996 65.2829 43.5436 66.4035 43.5436C67.4681 43.5436 68.1966 42.6996 68.1966 41.5743Z" fill="black"/>
<path d="M70.6621 42.137V39.155H71.2785V42.0807C71.2785 42.981 71.7267 43.5436 72.6232 43.5436C73.5198 43.5436 73.968 42.981 73.968 42.0807V39.155H74.5844V42.137C74.5844 43.3185 73.912 44.1062 72.6232 44.1062C71.3345 44.1062 70.6621 43.3185 70.6621 42.137Z" fill="black"/>
<path d="M80.0752 43.9937L77.2736 40.1115V43.9937H76.6572V39.155H77.2736L80.0752 42.9247V39.155H80.6916V43.9937H80.0752Z" fill="black"/>
<path d="M82.709 43.9937V39.155H84.3339C85.8468 39.155 86.7993 40.224 86.7993 41.5744C86.7993 42.9247 85.8468 43.9937 84.3339 43.9937H82.709ZM86.239 41.5744C86.239 40.5054 85.5666 39.6614 84.39 39.6614H83.3253V43.4311H84.39C85.5106 43.4873 86.239 42.6434 86.239 41.5744Z" fill="black"/>
<path d="M91.8982 43.9937L91.45 42.9247H89.0406L88.5923 43.9937H87.9199L89.8811 39.155H90.6095L92.5706 43.9937H91.8982ZM90.2733 39.7739L89.2647 42.4183H91.3379L90.2733 39.7739Z" fill="black"/>
<path d="M94.8681 43.9938V39.6615H93.3552V39.0989H96.9973V39.6615H95.4845V43.9938H94.8681Z" fill="black"/>
<path d="M98.678 43.9937V39.155H99.2943V43.9937H98.678Z" fill="black"/>
<path d="M101.143 41.5743C101.143 40.1678 102.096 39.0425 103.553 39.0425C104.954 39.0425 105.962 40.1115 105.962 41.5743C105.962 42.9809 105.01 44.1062 103.553 44.1062C102.152 44.1062 101.143 43.0372 101.143 41.5743ZM105.346 41.5743C105.346 40.4491 104.617 39.6051 103.553 39.6051C102.488 39.6051 101.76 40.4491 101.76 41.5743C101.76 42.6996 102.432 43.5436 103.553 43.5436C104.617 43.5436 105.346 42.6996 105.346 41.5743Z" fill="black"/>
<path d="M111.229 43.9937L108.427 40.1115V43.9937H107.811V39.155H108.427L111.229 42.9247V39.155H111.845V43.9937H111.229Z" fill="black"/>
<path d="M49.3136 42.8688L50.3782 43.4314C50.3782 43.4877 50.3782 43.6002 50.3782 43.6565C50.3782 43.8253 50.4903 43.9941 50.6024 44.0503L49.0895 44.7255C49.1455 44.6692 49.1455 44.613 49.1455 44.5004C49.1455 44.2191 48.9214 44.0503 48.6973 44.0503C48.4171 44.0503 48.249 44.2754 48.249 44.5004C48.249 44.7255 48.4171 44.8943 48.5852 44.9506L47.0163 45.682C46.9603 45.6257 46.9042 45.5695 46.7922 45.5695C46.6241 45.5695 46.512 45.682 46.512 45.8508V45.907L39.3959 49.1703C39.3959 48.9453 39.1718 48.7765 38.9476 48.7765C38.6675 48.7765 38.4994 49.0015 38.4994 49.2266C38.4994 49.3391 38.5554 49.4516 38.6114 49.5642L36.7063 50.4644L33.3444 48.664C33.4004 48.6077 33.4565 48.4952 33.4565 48.3264C33.4565 48.0451 33.2323 47.8763 33.0082 47.8763C32.7841 47.8763 32.616 48.0451 32.5599 48.2701L29.3101 46.5259C29.5342 46.5259 29.7583 46.3009 29.7583 46.0758C29.7583 45.8508 29.5902 45.5695 29.3661 45.5695C29.0859 45.5695 28.9178 45.7945 28.9178 46.0196C28.9178 46.1321 28.9178 46.1884 28.9739 46.2446L26.7886 45.0631C26.8446 45.0068 26.8446 44.9506 26.8446 44.8943C26.8446 44.7255 26.7326 44.613 26.5645 44.613C26.4524 44.613 26.3404 44.7255 26.2843 44.838L24.043 43.6002C24.2111 43.544 24.2672 43.3752 24.2672 43.2064C24.2672 42.9251 24.043 42.7563 23.8189 42.7563C23.5387 42.7563 23.3706 42.9813 23.3706 43.2064V43.2626L22.25 42.6437L23.3706 42.1374C23.4267 42.2499 23.4827 42.3062 23.6508 42.3062C23.8189 42.3062 23.931 42.1936 23.931 42.0248C23.931 41.9686 23.931 41.9686 23.931 41.9123L24.043 41.8561L22.4741 41.0684L19.1682 42.475L36.6503 51.9272L54.1884 43.8815L50.8825 42.1936L49.3136 42.8688Z" fill="black"/>
<path d="M41.637 47.0885C41.637 47.3699 41.4129 47.5386 41.1887 47.5386C40.9086 47.5386 40.7405 47.3136 40.7405 47.0885C40.7405 46.8072 40.9646 46.6384 41.1887 46.6384C41.4129 46.6384 41.637 46.8635 41.637 47.0885Z" fill="black"/>
<path d="M44.7749 46.3007C44.7749 46.582 44.5508 46.7508 44.3267 46.7508C44.0465 46.7508 43.8784 46.5257 43.8784 46.3007C43.8784 46.0194 44.1025 45.8506 44.3267 45.8506C44.6068 45.8506 44.7749 46.0756 44.7749 46.3007Z" fill="black"/>
<path d="M46.792 44.613C46.792 44.8943 46.5679 45.0631 46.3438 45.0631C46.0636 45.0631 45.8955 44.838 45.8955 44.613C45.8955 44.3316 46.1196 44.1628 46.3438 44.1628C46.5679 44.1628 46.792 44.3879 46.792 44.613Z" fill="black"/>
<path d="M36.0896 48.7763C36.0896 49.0576 35.8655 49.2264 35.6414 49.2264C35.3612 49.2264 35.1931 49.0013 35.1931 48.7763C35.1931 48.495 35.4172 48.3262 35.6414 48.3262C35.8655 48.3262 36.0896 48.5512 36.0896 48.7763Z" fill="black"/>
<path d="M26.2841 43.4314C26.3961 43.4314 26.5082 43.3752 26.6202 43.3189L25.8358 42.925C25.8358 42.9813 25.8358 42.9813 25.8358 43.0376C25.7798 43.2064 26.0039 43.4314 26.2841 43.4314Z" fill="black"/>
<path d="M31.8877 46.6382C32.0558 46.6382 32.2239 46.5256 32.336 46.3568L31.4955 45.9067C31.4395 45.963 31.4395 46.0755 31.4395 46.1318C31.4395 46.4694 31.6636 46.6944 31.8877 46.6382Z" fill="black"/>
<path d="M27.5168 44.4439C27.5168 44.7252 27.741 44.894 27.9651 44.894C28.2453 44.894 28.4134 44.6689 28.4134 44.4439C28.4134 44.3876 28.4134 44.3314 28.4134 44.3314L27.853 44.05C27.6849 44.05 27.5168 44.2188 27.5168 44.4439Z" fill="black"/>
<path d="M50.9946 38.2549L49.8179 38.8176L49.4817 38.9864L49.2016 39.0989L49.7059 40.5055L48.5292 41.0681L48.0249 39.6615L47.4085 39.9428L47.9128 41.3494L46.9042 41.7995L46.3999 40.393L45.7836 40.6743L46.2879 42.0809L45.1112 42.6435L44.6069 41.2369L43.9906 41.5182L44.4948 42.9248L43.2621 43.4875L42.7578 42.0809L42.1415 42.3622L42.6458 43.7688L41.6372 44.2189L41.1329 42.756L40.5166 43.0373L41.0208 44.4439L39.8442 45.0066L39.3399 43.6L38.7235 43.8813L39.2278 45.2879L38.1632 45.738L37.6589 44.3314L37.0425 44.6127L37.5468 46.0193L36.7063 46.4132L36.3702 46.3006L35.8098 44.5002L34.9133 44.0501L35.5297 45.7943L34.1289 45.0628L33.5685 43.3187L32.672 42.8686L33.2884 44.6127L31.8315 43.825L31.2152 42.0809L30.3187 41.6308L30.935 43.3749L29.5902 42.6435L28.9739 40.8993L28.0774 40.4492L28.6937 42.1934L27.2369 41.4057L26.6205 39.6615L25.724 39.2114L26.3404 40.9556L24.9396 40.2242L24.3232 38.48L23.5948 38.0861L23.4267 37.9736L22.0819 37.2422L19.0562 38.5925L36.5382 48.0448L54.1884 39.9428L50.9946 38.2549ZM23.5948 38.0861L24.1551 39.7178L22.25 38.705L23.5948 38.0861ZM49.93 39.2114L51.1067 39.8303L50.2662 40.2242L49.93 39.2114Z" fill="black"/>
<path d="M39.9561 47.9324C39.9561 48.27 39.3958 48.27 39.3958 47.9324C39.3958 47.5948 39.9561 47.5948 39.9561 47.9324Z" fill="black"/>
<path d="M37.6028 49.3391C37.6028 49.6767 37.0425 49.6767 37.0425 49.3391C37.0425 48.9452 37.6028 48.9452 37.6028 49.3391Z" fill="black"/>
<path d="M30.8787 46.4695C30.8787 46.8071 30.3184 46.8071 30.3184 46.4695C30.3184 46.1319 30.8787 46.1319 30.8787 46.4695Z" fill="black"/>
<path d="M32.9522 47.0884C32.9522 47.426 32.3918 47.426 32.3918 47.0884C32.3918 46.7508 32.9522 46.7508 32.9522 47.0884Z" fill="black"/>
<path d="M25.4436 43.5998C25.4436 43.9374 24.8833 43.9374 24.8833 43.5998C24.8833 43.206 25.4436 43.206 25.4436 43.5998Z" fill="black"/>
<path d="M43.1499 47.0322C43.1499 47.3698 42.5896 47.3698 42.5896 47.0322C42.5896 46.6384 43.1499 46.6384 43.1499 47.0322Z" fill="black"/>
<path d="M45.3352 45.1755C45.3352 45.5131 44.7749 45.5131 44.7749 45.1755C44.8309 44.838 45.3352 44.838 45.3352 45.1755Z" fill="black"/>
<path d="M34.5769 47.8198C34.5769 48.1574 34.0166 48.1574 34.0166 47.8198C34.0726 47.4823 34.5769 47.4823 34.5769 47.8198Z" fill="black"/>
<path fill-rule="evenodd" clip-rule="evenodd" d="M40.5166 19.8004C43.8225 21.207 46.0638 24.4703 46.0638 28.24C46.0638 30.6031 45.1673 32.6848 43.7665 34.3165C43.5984 33.9789 43.3743 33.3037 43.6544 32.3472C44.0467 31.2782 43.3743 29.8716 42.6459 29.2527C42.1976 28.9152 41.5252 29.309 41.133 29.4215C40.2925 29.5903 39.7882 29.1402 39.3399 28.0149C38.6115 26.102 40.0123 25.033 40.8528 24.6391C41.6373 24.3015 42.4217 23.7389 42.926 23.9639C43.2622 24.1327 43.3182 24.5266 43.4303 24.6391C43.7665 24.9204 44.1027 25.033 44.4949 24.7516C44.9992 24.3015 43.5984 22.8949 42.7019 22.9512C41.7493 23.0075 41.6373 23.4576 41.133 23.7952C40.6287 24.1327 39.7322 24.1327 39.8442 23.2888C39.9563 22.276 41.189 23.1763 40.8528 21.9947C40.5166 21.0382 41.3011 21.8259 41.6373 21.3758C41.9735 20.9257 41.3571 20.5881 40.9649 20.9257C40.6287 21.2633 40.1804 20.9257 40.3485 20.0818C40.4606 19.913 40.4606 19.8567 40.5166 19.8004ZM33.5126 19.7442C33.5686 20.0255 33.7927 20.7007 34.0729 20.9257C34.4651 21.207 34.6332 21.7697 34.185 21.9947C33.6807 22.2198 33.5126 22.3323 33.8488 22.4448C34.1289 22.5574 33.9048 23.1763 33.4565 23.0637C33.0083 22.8949 32.448 22.6699 32.3919 23.12C32.3359 23.6264 31.9997 24.189 31.7756 24.4703C31.5514 24.7516 31.2713 24.8642 31.3834 25.258C31.4954 25.6519 31.2153 25.9332 31.1032 25.5956C30.9351 25.258 30.3748 25.258 29.9825 25.5956C29.9825 25.5956 28.9179 26.7771 29.4783 26.8897C30.1506 27.0585 30.9351 27.0585 31.1592 27.8461C31.2713 28.3525 31.6075 28.7464 32.2238 28.465C32.8402 28.1837 33.6246 28.1275 34.241 28.7464C34.8574 29.3653 35.3056 28.6338 35.922 30.0967C36.5944 30.9969 38.3314 29.4778 37.3788 32.3472C36.7625 34.0914 36.0901 33.2475 35.922 33.9789C35.6418 35.2167 33.7927 36.8483 33.7927 36.8483L32.448 36.1732C32.448 36.1732 33.0643 33.36 32.448 32.8536C31.8316 32.3472 31.1032 30.8281 31.2713 30.0967C31.4394 29.3653 31.8316 29.1402 30.8791 28.6338C29.9265 28.1275 30.0946 27.6211 29.4222 27.4523C28.8619 27.3398 28.1335 27.4523 27.8533 27.5086C27.8533 27.2272 27.9093 26.8897 27.9654 26.6083L28.3016 25.2017C29.1981 22.7261 31.1032 20.7007 33.5126 19.7442ZM36.9306 18C31.3273 18 26.7327 22.6136 26.7327 28.24C26.7327 33.9226 31.3273 38.48 36.9306 38.48C42.5898 38.48 47.1284 33.8664 47.1284 28.24C47.1284 22.6136 42.5898 18 36.9306 18Z" fill="black"/>
<path d="M46.5119 32.4032C46.4559 32.5157 46.4559 32.572 46.3998 32.6845C46.3998 32.7408 46.3998 32.7408 46.3438 32.7971C46.2317 33.0784 46.0636 33.3597 45.8955 33.641L50.9384 36.1166L36.5381 42.6432L22.0818 34.8226L27.3488 32.5157C27.2928 32.4032 27.2368 32.2907 27.1807 32.1219C27.1807 32.0656 27.1247 32.0094 27.1247 31.9531C27.1247 31.8968 27.0687 31.8406 27.0687 31.7843C27.0126 31.6155 26.9566 31.4467 26.9006 31.2217L19 34.71L22.9783 36.848L24.4912 37.692L25.4998 38.2546L26.3963 38.7047L27.8531 39.4924L28.7496 39.9425L30.0944 40.674L30.9909 41.1241L32.4478 41.9118L33.3443 42.3619L34.7451 43.0933L35.6416 43.5434L36.6502 44.1061L36.9864 43.9373L37.6027 43.6559L38.6674 43.2058L39.2837 42.9245L40.4604 42.3619L41.0768 42.0806L42.0853 41.6305L42.7017 41.3491L43.9344 40.7865L44.5508 40.5052L45.7274 39.9425L46.3438 39.6612L47.3524 39.2111L47.9687 38.9298L48.8653 38.536L49.1454 38.4234L49.7618 38.1421L50.4342 37.8608L54.2444 36.1166L46.5119 32.4032Z" fill="black"/>
</svg>
