<?xml version="1.0" encoding="utf-8"?>
<!-- Generator: Adobe Illustrator 27.0.0, SVG Export Plug-In . SVG Version: 6.00 Build 0)  -->
<svg version="1.1" id="Ebene_1" xmlns="http://www.w3.org/2000/svg" xmlns:xlink="http://www.w3.org/1999/xlink" x="0px" y="0px"
	 viewBox="0 0 704.9 182.5" style="enable-background:new 0 0 704.9 182.5;" xml:space="preserve">
<g id="full-rgb">
	<path id="fullLogo" d="M228.2,43.3h27.2v5.1c5.1-4.7,14.3-7.2,21.8-7.2c29.7,0,48.1,20.5,48.1,49.4c0,29.7-19.2,51.9-48.9,51.9
		c-9.4,0-18-1.5-21-4.9v41h-27.3V43.3z M255.4,77.7v31.2c3,4.5,9.6,8.3,17.3,8.3c15.2,0,24.4-9.6,24.4-24.4
		c0-17.3-8.6-26.1-22.9-26.1C266.3,66.4,259,70.7,255.4,77.7z"/>
	<path id="fullLogo-2" d="M387.3,41.3c31.2,0,53.2,21.2,53.2,50.7c0,29.3-22,50.5-53.2,50.5c-30.3,0-52.8-21.2-52.8-50.6
		C334.5,62.5,356.1,41.3,387.3,41.3z M387.3,117.2c14.8,0,25-9.4,25-25.2c0-16.2-11.3-25.4-25-25.4s-24.6,9.2-24.6,25.4
		C362.7,106.3,372.6,117.2,387.3,117.2z"/>
	<path id="fullLogo-3" d="M450.8,71.5c0-18.8,15.6-30.3,42.1-30.3c18.6,0,34.4,8.7,40.6,17.7l-18.6,17.8
		c-6.4-6.6-15.2-10.2-27.4-10.2c-5.1,0-8.5,1.1-8.5,4.7c0,8.5,55.4,5.8,55.4,40.4c0,21.4-19.2,30.8-41.3,30.8
		c-23.9,0-39.8-10.9-46.8-23.7l21.6-14.7c5.3,6.8,16.2,13,28.2,13c6.6,0,10.1-1.7,10.1-5.3C506.2,102.3,450.8,104.8,450.8,71.5z"/>
	<path id="fullLogo-4" d="M562.5,3.9c8.8,0,15.2,5.8,15.2,13.5c0,8.1-6.4,13.9-15.2,13.9c-9.6,0-15.4-5.8-15.4-13.9
		C547.1,9.7,553.5,3.9,562.5,3.9z M548.8,43.3H576v97.7h-27.2V43.3z"/>
	<path id="fullLogo-5" d="M586.5,43.3H605V20.6h27.2v22.7h29.9v25.4h-29.9v31.8c0,11.8,2.6,16.3,10,16.3c6.4,0,11.5-2.3,16.7-6.4
		l11.3,19.3c-6.8,7.1-17.3,12.4-30.6,12.4c-20.5,0-34.6-11.1-34.6-33.6V68.7h-18.6L586.5,43.3z"/>
	<path id="fullLogo-6" d="M675.7,43.5h11.7v2.8H683V57h-3V46.3h-4.3V43.5z"/>
	<path id="fullLogo-7" d="M688.9,43.5h2.8l4.3,6.5l4.1-6.5h2.7V57h-3v-8.1l-3.5,5.4h-0.8l-3.6-5.4V57h-3V43.5z"/>
	<polygon id="fullLogo-8" points="38,73.1 46.2,69.5 82.9,53.3 90.9,49.7 179.7,10.5 179.7,57.8 143.8,73.1 135.7,69.5 173.2,53.5 
		173.2,20.5 98.9,53.3 90.9,56.8 54.3,73 46.2,76.6 20.3,88 20.3,96.5 45.8,107.8 53.9,111.4 91.5,128 99.5,131.5 173.2,164.1 
		173.2,130.7 136.1,114.9 144.2,111.3 179.7,126.4 179.7,174 91.5,135.1 83.6,131.6 45.8,114.9 37.6,111.3 13.8,100.7 13.8,83.8 	
		"/>
	<polygon points="99.2,92.1 135.6,76.6 127.5,73 82.6,92.1 127.9,111.4 136,107.8 	"/>
	<polygon id="fullLogo-9" points="45.8,107.8 53.9,111.4 90.9,95.6 82.7,92.1 	"/>
	<polygon id="fullLogo-10" points="54.3,73 46.2,76.6 82.7,92.1 90.9,88.6 	"/>
	<polygon id="fullLogo-11" points="143.8,73.1 135.7,69.5 98.9,53.3 90.9,49.7 2.1,10.5 2.1,57.8 38,73.1 46.2,69.5 8.6,53.5 
		8.6,20.5 82.9,53.3 90.9,56.8 127.5,73 135.6,76.6 161.6,88 161.6,96.5 136.1,107.8 127.9,111.4 90.4,128 82.4,131.5 8.6,164.1 
		8.6,130.7 45.8,114.9 37.6,111.3 2.1,126.4 2.1,174 90.3,135.1 98.3,131.6 136.1,114.9 144.2,111.3 168,100.7 168,83.8 	"/>
</g>
</svg>
