<svg xmlns="http://www.w3.org/2000/svg" width="150" height="70" fill="none" viewBox="0 0 150 70"><path fill="#000" d="M60.105 29.702H63.3657V30.3107C63.9771 29.7498 65.08 29.4514 65.9791 29.4514C69.5396 29.4514 71.7454 31.8979 71.7454 35.3467C71.7454 38.8911 69.4437 41.5404 65.8832 41.5404C64.7564 41.5404 63.7254 41.3614 63.3657 40.9556V45.8485H60.093V29.702H60.105ZM63.3657 33.8073V37.5306C63.7254 38.0676 64.5166 38.5211 65.4397 38.5211C67.2619 38.5211 68.3647 37.3755 68.3647 35.6093C68.3647 33.5447 67.3338 32.4945 65.6195 32.4945C64.6724 32.4587 63.7973 32.9719 63.3657 33.8073Z"/><path fill="#000" d="M79.1781 29.4633C82.9183 29.4633 85.5557 31.9932 85.5557 35.5137C85.5557 39.0103 82.9183 41.5403 79.1781 41.5403C75.5457 41.5403 72.8484 39.0103 72.8484 35.5018C72.8484 31.9932 75.4378 29.4633 79.1781 29.4633ZM79.1781 38.521C80.9523 38.521 82.1751 37.3993 82.1751 35.5137C82.1751 33.5804 80.8204 32.4825 79.1781 32.4825C77.5357 32.4825 76.229 33.5804 76.229 35.5137C76.229 37.2203 77.4158 38.521 79.1781 38.521Z"/><path fill="#000" d="M86.7902 33.0674C86.7902 30.8238 88.6603 29.4514 91.8371 29.4514C94.0669 29.4514 95.961 30.4897 96.7043 31.5637L94.4745 33.6879C93.7073 32.9003 92.6523 32.4707 91.1898 32.4707C90.5784 32.4707 90.1708 32.6019 90.1708 33.0316C90.1708 34.0459 96.8122 33.7237 96.8122 37.8528C96.8122 40.4067 94.5105 41.5285 91.8611 41.5285C88.996 41.5285 87.0899 40.2277 86.2507 38.7001L88.8401 36.9459C89.4755 37.7574 90.7822 38.4973 92.2208 38.4973C93.012 38.4973 93.4316 38.2944 93.4316 37.8648C93.4316 36.743 86.7902 37.0413 86.7902 33.0674Z"/><path fill="#000" d="M100.181 25C101.236 25 102.003 25.6922 102.003 26.6111C102.003 27.5777 101.236 28.2699 100.181 28.2699C99.03 28.2699 98.3347 27.5777 98.3347 26.6111C98.3347 25.6922 99.102 25 100.181 25ZM98.5385 29.7019H101.799V41.3613H98.5385V29.7019Z"/><path fill="#000" d="M103.058 29.702H105.276V26.993H108.537V29.702H112.121V32.7332H108.537V36.5282C108.537 37.9364 108.848 38.4734 109.735 38.4734C110.503 38.4734 111.114 38.1989 111.737 37.7096L113.092 40.0129C112.277 40.8602 111.018 41.4927 109.424 41.4927C106.966 41.4927 105.276 40.168 105.276 37.4829V32.7332H103.046L103.058 29.702Z"/><path fill="#000" d="M113.751 29.7258H115.154V30.06H114.626V31.3369H114.267V30.06H113.751V29.7258Z"/><path fill="#000" d="M115.334 29.7258H115.669L116.185 30.5015L116.676 29.7258H117V31.3369H116.64V30.3703L116.221 31.0147H116.125L115.693 30.3703V31.3369H115.334V29.7258Z"/><path fill="#000" d="M37.3037 33.2583L38.2867 32.8287L42.6863 30.8954L43.6453 30.4658L54.2907 25.7877V31.4324L49.987 33.2583L49.016 32.8287L53.5115 30.9193V26.9811L44.6044 30.8954L43.6453 31.3131L39.2577 33.2464L38.2867 33.676L35.1818 35.0364V36.0508L38.2388 37.3993L39.2098 37.829L43.7173 39.81L44.6763 40.2277L53.5115 44.1181V40.1322L49.0639 38.2466L50.035 37.817L54.2907 39.619V45.2995L43.7173 40.6573L42.7702 40.2396L38.2388 38.2466L37.2557 37.817L34.4026 36.552V34.5352L37.3037 33.2583Z"/><path fill="#000" d="M44.6404 35.5256L49.004 33.6758L48.033 33.2462L42.6504 35.5256L48.081 37.8288L49.052 37.3992L44.6404 35.5256Z"/><path fill="#000" d="M38.2385 37.3992L39.2096 37.8289L43.6451 35.9433L42.6621 35.5256L38.2385 37.3992Z"/><path fill="#000" d="M39.2579 33.2462L38.2869 33.6758L42.6625 35.5256L43.6455 35.1079L39.2579 33.2462Z"/><path fill="#000" d="M49.987 33.2583L49.016 32.8287L44.6044 30.8954L43.6454 30.4658L33 25.7877V31.4324L37.3037 33.2583L38.2867 32.8287L33.7792 30.9193V26.9811L42.6863 30.8954L43.6454 31.3131L48.033 33.2464L49.004 33.676L52.1209 35.0364V36.0508L49.0639 37.3993L48.0809 37.829L43.5854 39.81L42.6264 40.2277L33.7792 44.1181V40.1322L38.2388 38.2466L37.2557 37.817L33 39.619V45.2995L43.5734 40.6573L44.5325 40.2396L49.0639 38.2466L50.035 37.817L52.8881 36.552V34.5352L49.987 33.2583Z"/></svg>