<svg width="150" height="70" viewBox="0 0 150 70" fill="none" xmlns="http://www.w3.org/2000/svg">
<path d="M29.339 35.672C29.0907 36.1538 28.382 36.1538 28.1337 35.672L27.5399 34.5196C27.4931 34.4288 27.4688 34.3287 27.4688 34.2272C27.4688 34.1257 27.4931 34.0256 27.5399 33.9348L28.1337 32.7823C28.382 32.3004 29.0907 32.3004 29.339 32.7823L29.9328 33.9348C29.9796 34.0256 30.004 34.1257 30.004 34.2272C30.004 34.3287 29.9796 34.4288 29.9328 34.5196L29.339 35.672ZM29.339 42.208C29.0907 42.6898 28.382 42.6898 28.1337 42.208L27.5399 41.0555C27.4931 40.9647 27.4688 40.8646 27.4688 40.7631C27.4688 40.6616 27.4931 40.5615 27.5399 40.4708L28.1337 39.3182C28.382 38.8364 29.0907 38.8364 29.339 39.3182L29.9328 40.4708C29.9796 40.5615 30.004 40.6616 30.004 40.7631C30.004 40.8646 29.9796 40.9647 29.9328 41.0555L29.339 42.208Z" fill="black"/>
<path d="M22 39.727C22 39.1445 22.7257 38.8527 23.1501 39.2646L26.2383 42.2612C26.6628 42.6732 26.3622 43.3772 25.7619 43.3772H22.6738C22.4951 43.3772 22.3238 43.3084 22.1974 43.1858C22.0711 43.0633 22.0001 42.8971 22 42.7237V39.727ZM22 36.5705C22 36.7441 22.071 36.9103 22.1974 37.0329L28.5383 43.1858C28.6647 43.3084 28.836 43.3773 29.0147 43.3774H32.4976C33.0978 43.3774 33.3984 42.6732 32.9739 42.2612L23.1502 32.7287C22.7257 32.3169 22 32.6086 22 33.191V36.5707V36.5705ZM22 30.0347C22 30.208 22.071 30.3744 22.1974 30.4969L35.2738 43.1858C35.4002 43.3084 35.5716 43.3773 35.7503 43.3774H39.2331C39.8333 43.3774 40.1341 42.6732 39.7096 42.2612L23.1502 26.1929C22.7257 25.7809 22 26.0727 22 26.6551V30.0347ZM28.7356 30.0347C28.7356 30.208 28.8067 30.3744 28.9331 30.4969L41.0568 42.2612C41.4812 42.6732 42.2069 42.3814 42.2069 41.7989V38.4194C42.2069 38.246 42.1359 38.0797 42.0095 37.957L29.8857 26.1928C29.4613 25.7809 28.7356 26.0727 28.7356 26.6551V30.0347ZM36.6214 26.1929C36.197 25.7809 35.4713 26.0727 35.4713 26.6551V30.0347C35.4713 30.208 35.5423 30.3744 35.6687 30.4969L41.0567 35.7253C41.4812 36.1372 42.2068 35.8455 42.2068 35.263V31.8835C42.2068 31.7101 42.1358 31.5438 42.0095 31.4211L36.6214 26.1929Z" fill="black"/>
<path d="M50.6524 39.8076L44.3104 33.6538C43.8859 33.2418 43.1602 33.5336 43.1602 34.116V42.7241C43.1602 42.8975 43.2311 43.0638 43.3575 43.1864C43.4839 43.309 43.6552 43.3779 43.8339 43.3779H53.6577C53.8364 43.3779 54.0078 43.309 54.1342 43.1864C54.2605 43.0638 54.3315 42.8975 54.3315 42.7241V41.9402C54.3315 41.5791 54.0286 41.2907 53.6597 41.2441C52.5214 41.1003 51.464 40.5953 50.6522 39.8076H50.6524ZM46.3932 41.2864C46.1074 41.2863 45.8333 41.1761 45.6313 40.98C45.4292 40.7839 45.3156 40.5179 45.3155 40.2406C45.3156 39.9633 45.4292 39.6974 45.6313 39.5013C45.8333 39.3052 46.1074 39.195 46.3932 39.1948C46.679 39.1949 46.953 39.3051 47.1551 39.5012C47.3572 39.6974 47.4708 39.9633 47.4709 40.2406C47.4708 40.518 47.3572 40.7839 47.1551 40.98C46.953 41.1761 46.679 41.2863 46.3932 41.2864Z" fill="black"/>
<path d="M22 42.7235C22 42.8969 22.071 43.0632 22.1973 43.1858C22.3237 43.3084 22.4951 43.3773 22.6738 43.3773H25.7619C26.3622 43.3773 26.6628 42.6731 26.2383 42.2612L23.1502 39.2646C22.7257 38.8528 22 39.1445 22 39.7269V42.7235ZM28.7356 31.6126L23.1501 26.1928C22.7257 25.7809 22 26.0726 22 26.6551V30.0347C22 30.208 22.071 30.3744 22.1974 30.4969L28.7356 36.8414V31.6126ZM23.1501 32.7286C22.7257 32.3168 22 32.6086 22 33.191V36.5706C22 36.7439 22.071 36.9103 22.1974 37.0328L28.7356 43.3773V38.1486L23.1501 32.7286Z" fill="black"/>
<path d="M35.472 31.8834C35.472 31.7975 35.4545 31.7125 35.4207 31.6332C35.3868 31.5539 35.3371 31.4818 35.2745 31.4211L29.8866 26.1928C29.462 25.7809 28.7363 26.0726 28.7363 26.6551V30.0347C28.7363 30.208 28.8073 30.3744 28.9338 30.4969L35.472 36.8414V31.8834ZM28.7363 43.3773H32.4983C33.0985 43.3773 33.3991 42.6731 32.9746 42.2612L28.7363 38.1486V43.3773ZM28.7363 31.6126V36.5706C28.7363 36.7439 28.8073 36.9103 28.9338 37.0328L35.472 43.3773V38.4193C35.472 38.3335 35.4545 38.2484 35.4207 38.1691C35.3868 38.0898 35.3371 38.0177 35.2745 37.957L28.7363 31.6126Z" fill="black"/>
<path d="M62.1895 40.7682H64.9571V36.3145H67.2695C69.8095 36.3145 71.4387 34.8526 71.4387 32.5918C71.4387 30.331 69.8097 28.8691 67.2695 28.8691H62.1895V40.768V40.7682ZM64.9571 34.0197V31.1639H66.9893C68.0403 31.1639 68.671 31.7077 68.671 32.5917C68.671 33.4757 68.0403 34.0196 66.9893 34.0196H64.9571V34.0197ZM76.4462 40.9041C79.1439 40.9041 81.1058 39.0343 81.1058 36.4844C81.1058 33.9347 79.1439 32.0649 76.4462 32.0649C73.7134 32.0649 71.7864 33.9347 71.7864 36.4844C71.7864 39.0343 73.7134 40.9041 76.4462 40.9041ZM74.3439 36.4844C74.3439 35.1245 75.1848 34.1897 76.4462 34.1897C77.6898 34.1897 78.5308 35.1245 78.5308 36.4844C78.5308 37.8443 77.6898 38.7793 76.4462 38.7793C75.1848 38.7793 74.3439 37.8443 74.3439 36.4844ZM85.5352 40.9041C87.6023 40.9041 89.0037 39.6461 89.0037 38.1673C89.0037 34.6997 84.2564 35.8215 84.2564 34.4616C84.2564 34.0877 84.6592 33.8497 85.2374 33.8497C85.833 33.8497 86.5513 34.2067 86.7789 34.9886L88.8461 34.1556C88.4433 32.9149 86.9541 32.0649 85.1498 32.0649C83.2053 32.0649 81.9966 33.1867 81.9966 34.5296C81.9966 37.7763 86.6739 36.8754 86.6739 38.2183C86.6739 38.6943 86.2185 39.0173 85.5352 39.0173C84.5543 39.0173 83.871 38.3544 83.6608 37.5554L81.5937 38.3373C82.0492 39.6292 83.3806 40.9041 85.5352 40.9041ZM95.6621 40.6832L95.4871 38.5243C95.1892 38.6773 94.8038 38.7283 94.4886 38.7283C93.8579 38.7283 93.4375 38.2864 93.4375 37.5214V34.2747H95.5747V32.2008H93.4375V29.7191H90.8623V32.2008H89.4609V34.2747H90.8623V37.8443C90.8623 39.9182 92.3164 40.9041 94.2257 40.9041C94.7513 40.9041 95.2418 40.8192 95.6623 40.6832H95.6621ZM104.641 28.8691V33.4927H99.7708V28.8693H97.0029V40.768H99.7708V35.7876H104.641V40.768H107.426V28.8691H104.641ZM113.57 40.9041C116.267 40.9041 118.229 39.0343 118.229 36.4844C118.229 33.9347 116.267 32.0649 113.57 32.0649C110.837 32.0649 108.91 33.9347 108.91 36.4844C108.91 39.0343 110.837 40.9041 113.57 40.9041ZM111.468 36.4844C111.468 35.1245 112.308 34.1897 113.57 34.1897C114.813 34.1897 115.654 35.1245 115.654 36.4844C115.654 37.8443 114.813 38.7793 113.57 38.7793C112.308 38.7793 111.468 37.8443 111.468 36.4844ZM123.2 40.4961C124.163 40.4961 125.022 40.1731 125.477 39.6122V40.4281C125.477 41.38 124.689 42.043 123.48 42.043C122.622 42.043 121.868 41.635 121.746 40.938L119.398 41.2951C119.714 42.9099 121.413 43.9979 123.48 43.9979C126.195 43.9979 128 42.4509 128 40.1562V32.2008H125.46V32.9317C124.987 32.4049 124.181 32.0649 123.147 32.0649C120.695 32.0649 119.153 33.6967 119.153 36.2805C119.153 38.8643 120.695 40.4961 123.2 40.4961ZM121.658 36.2805C121.658 35.0056 122.429 34.1897 123.62 34.1897C124.829 34.1897 125.6 35.0056 125.6 36.2805C125.6 37.5554 124.829 38.3713 123.62 38.3713C122.429 38.3713 121.658 37.5554 121.658 36.2805Z" fill="black"/>
</svg>
