<?xml version="1.0" encoding="utf-8"?>
<!-- Generator: Adobe Illustrator 26.2.1, SVG Export Plug-In . SVG Version: 6.00 Build 0)  -->
<svg version="1.1" id="Ebene_1" xmlns="http://www.w3.org/2000/svg" xmlns:xlink="http://www.w3.org/1999/xlink" x="0px" y="0px"
	 viewBox="0 0 312 46" style="enable-background:new 0 0 312 46;" xml:space="preserve">
<g>
	<path d="M30.8,18.1L30.8,18.1c-1.1,0-2.1-0.4-2.8-1.2L16.8,5.8l5.7-5.6l8.3,8.3l8.3-8.3l5.7,5.7L33.6,16.9
		C32.8,17.7,31.8,18.1,30.8,18.1z"/>
</g>
<g>
	<path d="M39.1,45.8l-8.3-8.3l-8.3,8.3l-5.7-5.7l11.1-11.1c1.6-1.6,4.1-1.6,5.7,0l11.1,11.1L39.1,45.8z"/>
</g>
<g>
	<path d="M12.3,36.9L1.2,25.8C0.4,25.1,0,24.1,0,23c0-1.1,0.4-2.1,1.2-2.8L12.3,9l5.7,5.6L9.7,23l8.3,8.3L12.3,36.9z"/>
</g>
<g>
	<path d="M49.2,36.9l-5.6-5.7l8.3-8.3l-8.2-8.3l5.7-5.6l11.1,11.1c0.7,0.8,1.2,1.8,1.2,2.8c0,1.1-0.4,2.1-1.2,2.8L49.2,36.9z"/>
</g>
<g>
	<path d="M94.4,32.3c0,1,0,1.8,0.1,2.5s0.2,1.4,0.4,2.2h-6c-0.3-1-0.5-2.5-0.5-4.5V31c0-1.4-0.4-2.5-1.2-3.2c-0.8-0.7-1.9-1-3.2-1
		h-5.4v10.2h-6.1V10.6h13.9c2.8,0,5,0.6,6.5,1.9s2.2,3,2.2,5.3c0,1.8-0.5,3.3-1.5,4.5c-1,1.2-2.4,2-4,2.4c1.5,0.4,2.7,1,3.5,1.9
		s1.2,2.2,1.2,4V32.3z M85.1,22.4c1.3,0,2.3-0.3,2.9-0.9c0.6-0.6,0.9-1.6,0.9-2.8c0-2.3-1.3-3.4-3.8-3.4h-6.5v7.2H85.1z"/>
</g>
<g>
	<path d="M111.6,32.8c0.7-0.5,1.3-1.1,1.5-1.9h5.6c-0.3,1.9-1.3,3.4-2.9,4.7c-1.6,1.3-4.1,1.9-7.3,1.9c-3.6,0-6.3-1-8-3
		c-1.7-2-2.6-4.5-2.6-7.6c0-2,0.4-3.8,1.2-5.3c0.8-1.6,2-2.8,3.6-3.8c1.6-0.9,3.6-1.4,5.9-1.4c3.5,0,6.1,1,7.8,2.9
		c1.7,2,2.5,4.5,2.5,7.5c0,0.8,0,1.3-0.1,1.6h-15.1c0.2,1.8,0.7,3.1,1.5,3.8c0.9,0.8,2,1.1,3.5,1.1
		C109.8,33.5,110.8,33.3,111.6,32.8z M105.2,21.5c-0.8,0.7-1.3,1.8-1.6,3.5h9.5c-0.1-1.5-0.5-2.6-1.3-3.4c-0.7-0.7-1.9-1.1-3.3-1.1
		C107.1,20.5,106,20.8,105.2,21.5z"/>
</g>
<g>
	<path d="M127.9,36.9H122V9.2h5.9V36.9z"/>
</g>
<g>
	<path d="M147.5,17.1h5.9v19.8h-5.9v-3c-1.4,2.4-3.7,3.6-6.9,3.6c-3.1,0-5.3-1-6.7-2.9c-1.4-2-2.2-4.5-2.2-7.6
		c0-3.1,0.7-5.7,2.2-7.6c1.4-1.9,3.7-2.9,6.7-2.9c3.2,0,5.6,1.2,6.9,3.6V17.1z M146.2,31.6c0.8-0.9,1.2-2.4,1.2-4.5
		s-0.4-3.6-1.2-4.5c-0.8-0.9-2.1-1.4-3.9-1.4c-1.8,0-3,0.5-3.8,1.4c-0.8,0.9-1.1,2.4-1.1,4.6c0,2.1,0.4,3.6,1.1,4.5
		c0.7,0.9,2,1.4,3.8,1.4C144.1,33,145.4,32.5,146.2,31.6z"/>
</g>
<g>
	<path d="M167,36.9c-2.7,0-4.6-0.6-5.7-1.7c-1.1-1.1-1.6-2.9-1.6-5.4v-8.2h-3.6v-2.8l4.1-1.7l2.4-4.7h3v4.7h5.7v4.4h-5.7v10.7h5.1
		v4.7L167,36.9L167,36.9z"/>
</g>
<g>
	<path d="M180.9,14.5h-6.4v-3.9h6.4V14.5z M180.6,36.9h-5.9V17.1h5.9V36.9z"/>
</g>
<g>
	<path d="M188.8,36.1c-1.6-1-2.8-2.2-3.6-3.8c-0.8-1.6-1.1-3.3-1.1-5.3c0-1.9,0.4-3.7,1.1-5.3c0.8-1.6,2-2.9,3.6-3.8
		c1.6-1,3.7-1.4,6.2-1.4c2.5,0,4.6,0.5,6.2,1.4c1.7,1,2.9,2.2,3.6,3.8c0.7,1.6,1.1,3.3,1.1,5.2c0,1.9-0.4,3.7-1.1,5.3
		c-0.7,1.6-2,2.9-3.6,3.8c-1.7,1-3.7,1.4-6.2,1.4C192.5,37.5,190.4,37.1,188.8,36.1z M191.1,31.6c0.8,0.9,2.1,1.3,3.9,1.3
		c1.8,0,3.1-0.5,3.9-1.3c0.8-0.9,1.2-2.4,1.2-4.6c0-2.2-0.4-3.7-1.2-4.6c-0.8-0.9-2.1-1.3-3.9-1.3c-1.8,0-3.1,0.5-3.9,1.3
		c-0.8,0.9-1.2,2.4-1.2,4.6S190.3,30.7,191.1,31.6z"/>
</g>
<g>
	<path d="M229.7,24.8v12.1h-5.9V25.7c0-1.6-0.3-2.7-0.9-3.4c-0.6-0.7-1.6-1-2.8-1c-1.6,0-2.8,0.5-3.6,1.6c-0.8,1.1-1.2,2.8-1.2,5.1
		v9h-5.9V17.1h5.9V21c1.4-3,3.8-4.5,7.1-4.5C227.3,16.5,229.7,19.3,229.7,24.8z"/>
</g>
<g>
	<path d="M248.9,17.1h5.9v19.8h-5.9v-3c-1.4,2.4-3.7,3.6-6.9,3.6c-3.1,0-5.3-1-6.7-2.9c-1.4-2-2.2-4.5-2.2-7.6
		c0-3.1,0.7-5.7,2.2-7.6c1.4-1.9,3.7-2.9,6.7-2.9c3.2,0,5.6,1.2,6.9,3.6V17.1z M247.6,31.6c0.8-0.9,1.2-2.4,1.2-4.5
		s-0.4-3.6-1.2-4.5c-0.8-0.9-2.1-1.4-3.9-1.4c-1.8,0-3,0.5-3.8,1.4c-0.7,0.9-1.1,2.4-1.1,4.6c0,2.1,0.4,3.6,1.1,4.5
		c0.7,0.9,2,1.4,3.8,1.4C245.5,33,246.8,32.5,247.6,31.6z"/>
</g>
<g>
	<path d="M265.2,36.9h-5.9V9.2h5.9V36.9z"/>
</g>
<g>
	<path d="M293.8,36.9h-3.3l-2.6-6.7h-13.1l-2.6,6.7H269l10-26.3h4.9L293.8,36.9z M281.4,13l-5.5,14.6h11.1L281.4,13z"/>
</g>
<g>
	<path d="M311.3,10.6v2.6h-5.6v21h5.6v2.6h-14.4v-2.6h5.6v-21h-5.6v-2.6H311.3z"/>
</g>
</svg>
