<svg width="150" height="70" viewBox="0 0 150 70" fill="none" xmlns="http://www.w3.org/2000/svg">
<path d="M24.9653 32.9422C24.5259 32.9422 24.1265 32.7658 23.8469 32.413L19.3735 27.5179L21.6502 25.0482L24.9653 28.7086L28.2804 25.0482L30.557 27.562L26.0836 32.413C25.7641 32.7658 25.3647 32.9422 24.9653 32.9422Z" fill="black"/>
<path d="M28.2804 45.1581L24.9653 41.4977L21.6502 45.1581L19.3735 42.6444L23.807 37.7492C24.446 37.0436 25.4446 37.0436 26.0836 37.7492L30.5171 42.6444L28.2804 45.1581Z" fill="black"/>
<path d="M17.5763 41.2332L13.1429 36.338C12.8233 36.0293 12.6636 35.5883 12.6636 35.1032C12.6636 34.6181 12.8233 34.1771 13.1429 33.8684L17.5763 28.9291L19.853 31.3987L16.5379 35.1032L19.853 38.7635L17.5763 41.2332Z" fill="black"/>
<path d="M32.3146 41.2332L30.0779 38.7194L33.393 35.0591L30.1178 31.3987L32.3945 28.9291L36.8279 33.8243C37.1075 34.1771 37.3072 34.6181 37.3072 35.0591C37.3072 35.5442 37.1474 35.9852 36.8279 36.2939L32.3146 41.2332Z" fill="black"/>
<path d="M50.3679 39.2046C50.3679 39.6456 50.3679 39.9984 50.4079 40.3071C50.4478 40.6158 50.4878 40.9245 50.5676 41.2773H48.1712C48.0514 40.8363 47.9715 40.1748 47.9715 39.2928V38.6313C47.9715 38.0139 47.8117 37.5288 47.4922 37.2201C47.1726 36.9114 46.7333 36.7791 46.2141 36.7791H44.0573V41.2773H41.6208V29.6348H47.1727C48.291 29.6348 49.1697 29.8994 49.7688 30.4727C50.3679 31.046 50.6475 31.7957 50.6475 32.81C50.6475 33.6038 50.4478 34.2653 50.0484 34.7945C49.649 35.3238 49.0898 35.6766 48.4508 35.853C49.0499 36.0294 49.5292 36.294 49.8487 36.6909C50.1682 37.0878 50.328 37.6611 50.328 38.4549V39.2046H50.3679ZM46.6534 34.8386C47.1726 34.8386 47.5721 34.7063 47.8117 34.4417C48.0514 34.1771 48.1712 33.7361 48.1712 33.2069C48.1712 32.1926 47.6519 31.7075 46.6534 31.7075H44.0573V34.8827H46.6534V34.8386Z" fill="black"/>
<path d="M57.2378 39.425C57.5174 39.2045 57.757 38.9399 57.8369 38.5871H60.0736C59.9538 39.425 59.5544 40.0865 58.9153 40.6598C58.2763 41.2331 57.2777 41.4978 55.9996 41.4978C54.5617 41.4978 53.4833 41.0567 52.8043 40.1747C52.1253 39.2927 51.7659 38.1902 51.7659 36.8231C51.7659 35.9411 51.9256 35.1473 52.2452 34.4857C52.5647 33.7801 53.044 33.2509 53.683 32.8099C54.3221 32.413 55.1209 32.1925 56.0396 32.1925C57.4375 32.1925 58.476 32.6335 59.155 33.4714C59.834 34.3534 60.1535 35.456 60.1535 36.779C60.1535 37.1318 60.1535 37.3523 60.1135 37.4846H54.0824C54.1623 38.2784 54.362 38.8517 54.6816 39.1604C55.041 39.5132 55.4804 39.6455 56.0795 39.6455C56.5188 39.7337 56.9183 39.6455 57.2378 39.425ZM54.6816 34.4416C54.362 34.7503 54.1623 35.2355 54.0425 35.9852H57.8369C57.797 35.3237 57.6372 34.8385 57.3177 34.4857C57.0381 34.177 56.5588 34.0006 55.9996 34.0006C55.4404 34.0006 55.0011 34.1329 54.6816 34.4416Z" fill="black"/>
<path d="M63.7481 41.2331H61.3916V29.0172H63.7481V41.2331Z" fill="black"/>
<path d="M71.5765 32.5012H73.9331V41.2331H71.5765V39.9101C71.0174 40.9685 70.0987 41.4977 68.8206 41.4977C67.5825 41.4977 66.7037 41.0567 66.1446 40.2188C65.5854 39.3368 65.2659 38.2343 65.2659 36.8671C65.2659 35.5 65.5455 34.3534 66.1446 33.5155C66.7037 32.6776 67.6224 32.2366 68.8206 32.2366C70.0987 32.2366 71.0573 32.7658 71.5765 33.8242V32.5012ZM71.0573 38.8958C71.3768 38.4989 71.5366 37.8374 71.5366 36.9112C71.5366 35.9851 71.3768 35.3236 71.0573 34.9267C70.7378 34.5298 70.2186 34.3093 69.4996 34.3093C68.7807 34.3093 68.3014 34.5298 67.9819 34.9267C67.6623 35.3236 67.5425 35.9851 67.5425 36.9553C67.5425 37.8815 67.7023 38.543 67.9819 38.9399C68.2614 39.3368 68.7807 39.5573 69.4996 39.5573C70.2186 39.5132 70.7378 39.2927 71.0573 38.8958Z" fill="black"/>
<path d="M79.365 41.2331C78.2866 41.2331 77.5278 40.9685 77.0884 40.4834C76.6491 39.9983 76.4493 39.2045 76.4493 38.102V34.4857H75.0115V33.2509L76.6491 32.5012L77.6076 30.4285H78.8059V32.5012H81.0825V34.4416H78.8059V39.1604H80.8429V41.2331H79.365Z" fill="black"/>
<path d="M84.9168 31.3547H82.3606V29.6348H84.9168V31.3547ZM84.797 41.2332H82.4405V32.5013H84.797V41.2332Z" fill="black"/>
<path d="M88.0721 40.8803C87.433 40.4393 86.9537 39.9101 86.6342 39.2045C86.3146 38.4989 86.1948 37.7492 86.1948 36.8671C86.1948 36.0292 86.3546 35.2354 86.6342 34.5298C86.9537 33.8242 87.433 33.2509 88.0721 32.854C88.7111 32.413 89.5499 32.2366 90.5484 32.2366C91.5469 32.2366 92.3857 32.4571 93.0247 32.854C93.7037 33.295 94.183 33.8242 94.4626 34.5298C94.7422 35.2354 94.902 35.9851 94.902 36.823C94.902 37.661 94.7422 38.4548 94.4626 39.1604C94.183 39.866 93.6638 40.4393 93.0247 40.8362C92.3457 41.2772 91.5469 41.4536 90.5484 41.4536C89.5499 41.4977 88.7111 41.3213 88.0721 40.8803ZM88.9907 38.8958C89.3102 39.2927 89.8295 39.4691 90.5484 39.4691C91.2673 39.4691 91.7866 39.2486 92.1061 38.8958C92.4256 38.4989 92.5854 37.8374 92.5854 36.8671C92.5854 35.8969 92.4256 35.2354 92.1061 34.8385C91.7866 34.4416 91.2673 34.2652 90.5484 34.2652C89.8295 34.2652 89.3102 34.4857 88.9907 34.8385C88.6712 35.2354 88.5114 35.8969 88.5114 36.8671C88.5114 37.8374 88.6712 38.4989 88.9907 38.8958Z" fill="black"/>
<path d="M104.408 35.8969V41.2331H102.052V36.2938C102.052 35.5882 101.932 35.1031 101.692 34.7944C101.452 34.4857 101.053 34.3534 100.574 34.3534C99.9347 34.3534 99.4554 34.5739 99.1359 35.059C98.8163 35.5441 98.6566 36.2938 98.6566 37.3082V41.2772H96.3V32.5012H98.6566V34.2211C99.2157 32.8981 100.174 32.2366 101.492 32.2366C103.449 32.2366 104.408 33.4714 104.408 35.8969Z" fill="black"/>
<path d="M112.077 32.5012H114.433V41.2331H112.077V39.9101C111.518 40.9685 110.599 41.4977 109.321 41.4977C108.083 41.4977 107.204 41.0567 106.645 40.2188C106.086 39.3368 105.766 38.2343 105.766 36.8671C105.766 35.5 106.046 34.3534 106.645 33.5155C107.204 32.6776 108.123 32.2366 109.321 32.2366C110.599 32.2366 111.558 32.7658 112.077 33.8242V32.5012ZM111.558 38.8958C111.877 38.4989 112.037 37.8374 112.037 36.9112C112.037 35.9851 111.877 35.3236 111.558 34.9267C111.238 34.5298 110.719 34.3093 110 34.3093C109.281 34.3093 108.802 34.5298 108.482 34.9267C108.203 35.3236 108.043 35.9851 108.043 36.9553C108.043 37.8815 108.203 38.543 108.482 38.9399C108.762 39.3368 109.281 39.5573 110 39.5573C110.719 39.5132 111.238 39.2927 111.558 38.8958Z" fill="black"/>
<path d="M118.587 41.2331H116.231V29.0172H118.587V41.2331Z" fill="black"/>
<path d="M130.01 41.2332H128.692L127.654 38.2785H122.422L121.383 41.2332H120.105L124.099 29.6348H126.056L130.01 41.2332ZM125.058 30.6932L122.861 37.1319H127.294L125.058 30.6932Z" fill="black"/>
<path d="M137 29.6348V30.7814H134.763V40.0425H137V41.1891H131.249V40.0425H133.485V30.7814H131.249V29.6348H137Z" fill="black"/>
</svg>
