<?xml version="1.0" encoding="utf-8"?>
<!-- Generator: Adobe Illustrator 26.2.1, SVG Export Plug-In . SVG Version: 6.00 Build 0)  -->
<svg version="1.1" id="Ebene_1" xmlns="http://www.w3.org/2000/svg" xmlns:xlink="http://www.w3.org/1999/xlink" x="0px" y="0px"
	 viewBox="0 0 1920 798.2" style="enable-background:new 0 0 1920 798.2;" xml:space="preserve">
<style type="text/css">
	.st0{fill-rule:evenodd;clip-rule:evenodd;}
</style>
<g>
	<g>
		<g id="Shape_00000078733726789757005130000013668718613476858283_">
			<path class="st0" d="M529.7,275.7V768l-123.1-61.5V275.7H529.7z M160.5,275.7v307.7L37.4,521.9V275.7H160.5z"/>
		</g>
		<g id="Shape_00000009563568315170094220000018167525662685424531_">
			<path class="st0" d="M591.3,214.2l123.1,61.5v246.1H591.3V214.2z M222,29.6l123.1,61.5v430.8H222V29.6z"/>
		</g>
	</g>
	<g id="Shape_00000082327101115029298320000003401112082981061034_">
		<path class="st0" d="M1118,91.1c116.9,0,211.7,94.8,211.7,211.7v7.4c0,76.8-40.9,144-102.1,181.1c1.7,3,3.3,6.1,4.9,9.2l0.9,1.9
			l96.3,204h-135.4l-72-151l0,0c-9.7-20.2-29.9-33.2-52.3-33.6l-1,0h-47v123.1l-123.1,61.5V91.1H1118z M1514.3,398.8v307.7h-123.1
			V460.3L1514.3,398.8z M1575.9,91.1l123.1,61.5v553.8h-123.1V91.1z M1760.5,183.4l123.1,61.5v461.5h-123.1V183.4z M1114.3,214.2
			H1022v184.6h92.3c51,0,92.3-41.3,92.3-92.3S1165.3,214.2,1114.3,214.2z M1452.8,214.2c34,0,61.5,27.6,61.5,61.5
			s-27.6,61.5-61.5,61.5c-34,0-61.5-27.6-61.5-61.5S1418.8,214.2,1452.8,214.2z"/>
	</g>
</g>
</svg>
