<svg xmlns="http://www.w3.org/2000/svg" width="150" height="70" fill="none" viewBox="0 0 150 70"><path fill="#000" d="M87.0027 25.2222L87.0169 44.7784H91.0001V25.2222H87.0027Z"/><path fill="#000" d="M81.5715 44.7784H85.5557V25.2222H81.5583L81.5715 44.7784Z"/><path fill="#000" d="M73.3619 35.7713C74.323 34.6201 74.804 33.2735 74.804 31.7316C74.804 29.7898 74.1948 28.2204 72.9772 27.0207C71.7589 25.8217 70.1223 25.2222 68.0665 25.2222H59.1001L61.1602 29.2761H67.4096C68.361 29.2761 69.0886 29.5192 69.5935 30.0038C70.0975 30.4892 70.3504 31.1223 70.3504 31.9022C70.3504 32.6819 70.0745 33.2868 69.5228 33.7722C68.9702 34.2576 68.2186 34.4999 67.2673 34.4999H60.4679V38.1259V44.7776H64.155V38.1259L69.9215 44.7776H75.6882L69.4644 37.9827C71.101 37.659 72.4007 36.9225 73.3619 35.7713Z"/><path fill="#000" d="M80.1111 30.3232H76.1438V44.7787H80.1111V30.3232Z"/></svg>