<svg width="150" height="70" viewBox="0 0 150 70" fill="none" xmlns="http://www.w3.org/2000/svg">
<path fill-rule="evenodd" clip-rule="evenodd" d="M61.4087 30.7408V46.2626L57.5362 44.3236V30.7408H61.4087ZM49.7944 30.7408V40.4424L45.9219 38.5033V30.7408H49.7944Z" fill="black"/>
<path fill-rule="evenodd" clip-rule="evenodd" d="M63.3465 28.8018L67.219 30.7409V38.5002H63.3465V28.8018ZM51.729 22.9816L55.6015 24.9206V38.5034H51.729V22.9816Z" fill="black"/>
<path fill-rule="evenodd" clip-rule="evenodd" d="M79.9157 24.9207C83.5931 24.9207 86.5754 27.9096 86.5754 31.5954V31.8287C86.5754 34.2501 85.2887 36.3689 83.3635 37.5386C83.417 37.6332 83.4673 37.7309 83.5176 37.8287L83.546 37.8886L86.5754 44.3205H82.3159L80.051 39.5596C79.7458 38.9227 79.1104 38.5129 78.4057 38.5003H78.3742H76.8957V42.3815L73.0232 44.3205V24.9207H79.9157ZM92.3826 34.6222V44.3237H88.5101V36.5612L92.3826 34.6222ZM94.3204 24.9207L98.1929 26.8597V44.3205H94.3204V24.9207ZM100.128 27.8308L104 29.7698V44.3205H100.128V27.8308ZM79.7993 28.8019H76.8957V34.6222H79.7993C81.4037 34.6222 82.7029 33.32 82.7029 31.712C82.7029 30.104 81.4037 28.8019 79.7993 28.8019ZM90.4479 28.8019C91.5175 28.8019 92.3826 29.6721 92.3826 30.7409C92.3826 31.8098 91.5143 32.68 90.4479 32.68C89.3783 32.68 88.5132 31.8098 88.5132 30.7409C88.5132 29.6721 89.3783 28.8019 90.4479 28.8019Z" fill="black"/>
</svg>
