<svg xmlns="http://www.w3.org/2000/svg" width="150" height="70" fill="none" viewBox="0 0 150 70"><path fill="#0D0D0D" d="M40.15 18.7108C40.5563 17.8095 39.065 16.2414 36.8192 15.2085C34.5733 14.1756 32.4232 14.069 32.0169 14.9704C31.6106 15.8718 33.1019 17.4399 35.3478 18.4728C37.5937 19.5056 39.7437 19.6122 40.15 18.7108Z"/><path fill="#0D0D0D" d="M47.5201 29.067L34.9531 50.79L35.1754 50.9212L47.7423 29.1982L47.5201 29.067Z"/><path fill="#0D0D0D" d="M32.3228 27.234L19.7559 48.957L19.9781 49.0882L32.5451 27.3652L32.3228 27.234Z"/><path fill="#0D0D0D" d="M39.2586 29.3686L30.2812 44.8867L30.5035 45.0179L39.4809 29.4998L39.2586 29.3686Z"/><path fill="#0D0D0D" d="M51.6903 34.0278L42.7129 49.5459L42.9351 49.6771L51.9125 34.159L51.6903 34.0278Z"/><path fill="#0D0D0D" d="M17.6091 38.6867L14.0195 44.8916L14.2418 45.0228L17.8314 38.8178L17.6091 38.6867Z"/><path fill="#0D0D0D" d="M16.9196 26.8869L11.5352 36.1943L11.7574 36.3255L17.1418 27.0181L16.9196 26.8869Z"/><path fill="#0D0D0D" d="M26.1168 24.0227L20.7324 33.3301L20.9547 33.4613L26.3391 24.1539L26.1168 24.0227Z"/><path fill="#0D0D0D" d="M22.9533 16.4566L20.7988 20.1807L21.0211 20.3118L23.1755 16.5877L22.9533 16.4566Z"/><path fill="#0D0D0D" d="M27.1134 50.2749L24.959 53.999L25.1812 54.1302L27.3357 50.4061L27.1134 50.2749Z"/><path fill="#0D0D0D" d="M43.0089 19.6868C42.7977 18.8868 42.4083 18.1802 41.9001 17.5935C41.2665 17.2602 40.5999 17.0002 39.9663 16.6602C39.4119 16.3602 38.8047 15.9535 38.1645 15.7468C37.6035 15.7135 37.0293 15.7668 36.4617 15.9202C33.6105 16.6802 31.9143 19.6068 32.6799 22.4535C33.4455 25.3002 36.3759 26.9868 39.2271 26.2268C42.0783 25.4668 43.7745 22.5402 43.0089 19.6935V19.6868Z"/><path fill="#0D0D0D" d="M37.3868 15.7268C37.1624 15.7068 36.938 15.7068 36.7136 15.7268C36.4694 15.7535 36.344 15.5801 36.3308 15.3935C36.3242 15.3735 36.311 15.3535 36.311 15.3268C34.859 15.0001 33.4202 14.5735 31.9352 14.4535C30.6614 14.3535 29.3744 14.4068 28.1006 14.3135C27.5726 15.3535 27.4142 16.5868 27.7376 17.8068C28.4438 20.4335 31.1564 21.9935 33.7898 21.2935C36.2714 20.6335 37.8026 18.2001 37.3868 15.7268Z"/><path fill="#0D0D0D" d="M48.1111 23.2534C47.8075 22.8401 47.4709 22.4468 47.1013 22.0668C46.2169 21.1668 45.3655 20.1668 44.3755 19.3801C44.3623 19.3668 44.3491 19.3601 44.3293 19.3468C44.2765 19.3134 44.2237 19.2868 44.1643 19.2534C44.1445 19.2401 44.1247 19.2268 44.1049 19.2201C43.9795 19.2068 43.8541 19.1934 43.7353 19.1934C43.4713 19.1934 43.3459 18.9801 43.3591 18.7734C43.2601 18.7868 43.1611 18.8068 43.0621 18.8268C40.8379 19.3401 39.4519 21.5534 39.9667 23.7668C40.4815 25.9868 42.6991 27.3668 44.9233 26.8534C46.6987 26.4468 47.9395 24.9534 48.1045 23.2401L48.1111 23.2534Z"/><path fill="#0D0D0D" d="M51.2738 28.2596C51.2738 28.2596 51.2606 28.233 51.254 28.2196C51.254 28.2196 51.254 28.2196 51.254 28.213C50.5214 27.233 49.9406 26.153 49.3268 25.0996C48.6932 24.0196 47.9936 23.053 47.0828 22.1863C46.9508 22.0596 46.8122 21.9263 46.6802 21.793C44.6672 22.5063 43.5122 24.653 44.0732 26.7396C44.6606 28.9396 46.931 30.2396 49.1354 29.653C50.0198 29.4196 50.759 28.913 51.287 28.253L51.2738 28.2596Z"/><path fill="#0D0D0D" d="M45.7481 19.9991C45.9029 19.4006 44.7046 18.5662 43.0718 18.1353C41.4389 17.7045 39.9897 17.8403 39.8349 18.4388C39.6802 19.0373 40.8784 19.8717 42.5113 20.3026C44.1442 20.7335 45.5933 20.5976 45.7481 19.9991Z"/><path fill="#0D0D0D" d="M31.4922 56.12C22.1334 56.12 13.56 49.9066 11.0388 40.5C9.59336 35.12 10.326 29.48 13.1046 24.62C15.936 19.66 20.5428 16.1133 26.0604 14.64C37.3596 11.62 49.0086 18.3 52.0248 29.5333C53.4702 34.9133 52.7376 40.5533 49.959 45.4133C47.121 50.3733 42.5208 53.92 37.0032 55.3933C35.1618 55.8866 33.3138 56.12 31.4988 56.12H31.4922ZM31.5648 15.0066C29.8356 15.0066 28.08 15.2266 26.3376 15.6933C21.0972 17.0933 16.728 20.46 14.0418 25.16C11.4084 29.7666 10.7154 35.1066 12.0816 40.2066C14.9394 50.86 25.9944 57.1933 36.7194 54.3266C41.9598 52.9266 46.329 49.56 49.0152 44.86C51.6486 40.2533 52.3416 34.9133 50.9754 29.8133C48.5796 20.8933 40.4418 15 31.5648 15V15.0066Z"/><path fill="#0D0D0D" d="M65.284 25.5596C65.6404 25.5596 65.9704 25.5329 66.4126 25.1396C67.0462 24.5263 67.132 24.4396 67.2706 24.4396C67.5742 24.4396 68.7886 25.6396 68.7886 25.9463C68.7886 26.1996 68.2408 27.1463 68.1814 27.3396C68.0164 28.3129 68.0164 30.4329 68.0164 30.9063C68.0164 32.3529 68.1814 38.7596 68.1814 40.0396C68.1814 40.4263 68.1814 41.2396 67.6864 41.7396C67.33 42.0996 66.7492 42.3796 66.5314 42.3796C66.0364 42.3796 66.01 41.7396 66.01 41.5729C66.01 40.9063 66.01 40.7063 65.2378 40.7063H63.667C63.0598 40.7063 62.8948 41.0929 62.8948 41.4863C62.8948 41.5729 62.8948 42.6863 62.8684 42.8529C62.7826 43.5796 61.8718 44.4996 61.4626 44.4996C60.7168 44.4996 60.7168 43.8596 60.7168 43.6063C60.7168 43.3529 60.829 41.5729 60.829 41.1863C60.9082 38.2329 60.9676 36.2529 60.9676 28.4596C60.9676 27.8729 60.8818 25.2863 60.8818 24.7796C60.8818 24.6396 60.8818 24.4729 61.0468 24.4729C61.2382 24.4729 61.7068 24.7529 62.2876 25.0863C62.974 25.5063 63.2248 25.5596 63.8056 25.5596H65.2972H65.284ZM65.2312 39.9863C65.482 39.9863 65.8912 39.9863 66.0562 39.6263C66.142 39.4329 66.142 37.1996 66.142 36.6196C66.142 35.6129 66.142 33.8329 66.0562 33.6396C65.9704 33.4729 65.779 33.2796 65.4226 33.2796H63.5482C62.8288 33.2796 62.8288 33.4996 62.8288 35.7863C62.8288 36.5663 62.8288 39.4329 62.941 39.6329C63.0268 39.9129 63.3304 39.9929 63.601 39.9929H65.2246L65.2312 39.9863ZM63.6604 26.3129C63.436 26.3129 63.2446 26.3396 63.0796 26.5329C62.8618 26.8129 62.8618 30.7929 62.8618 31.4329C62.8618 32.0729 62.8618 32.5463 63.634 32.5463H65.317C65.482 32.5463 65.8912 32.5463 66.0628 32.1863C66.175 31.9063 66.175 29.0129 66.175 28.4596C66.175 26.4529 66.175 26.3129 65.3764 26.3129H63.667H63.6604ZM79.4014 31.8263C80.695 31.8263 80.8336 31.8263 81.2494 31.1329C81.4408 30.8263 81.9358 30.0196 82.378 30.0196C82.5166 30.0196 83.2624 30.6329 83.4802 30.7996C84.7738 31.8863 84.8596 31.9396 84.8596 32.1663C84.8596 32.5529 84.2788 32.5529 83.368 32.5529H72.9796C71.6794 32.5529 70.5508 32.5796 70.0294 32.6396C69.9172 32.6396 69.508 32.6929 69.4222 32.6929C69.3364 32.6929 69.2836 32.6396 69.2044 32.5263L68.65 31.8863C68.5752 31.7929 68.5378 31.7285 68.5378 31.6929C68.5378 31.6396 68.5642 31.6396 68.6236 31.6396C68.848 31.6396 69.6994 31.7196 69.8644 31.7196C70.828 31.7729 72.2074 31.8329 73.1182 31.8329H74.194C75.019 31.8329 75.019 31.2729 75.019 30.9463C75.019 30.3596 75.019 28.8263 74.9926 28.3263C74.9662 27.6329 74.524 27.6329 74.2468 27.6329C73.3624 27.6329 71.9566 27.6329 71.158 27.6863C71.0722 27.6863 70.663 27.7663 70.5772 27.7663C70.465 27.7663 70.4122 27.6863 70.3264 27.5729L69.7984 26.9329C69.6862 26.8196 69.6598 26.7929 69.6598 26.7663C69.6598 26.7129 69.7126 26.6863 69.772 26.6863C69.9634 26.6863 70.8214 26.7663 70.9864 26.7996C71.9764 26.8263 73.1908 26.8863 74.1544 26.8863C74.458 26.8863 74.9794 26.8863 74.9794 26.1863C74.9794 24.9329 74.9266 23.8729 74.8144 23.0996C74.788 22.9596 74.7022 22.4329 74.7022 22.3196C74.7022 22.1529 74.8144 22.0996 74.92 22.0996C74.9464 22.0996 77.8438 22.9396 77.8438 23.2929C77.8438 23.4329 77.2366 23.9063 77.1574 24.0196C76.966 24.2396 76.966 24.8263 76.966 25.1329C76.966 26.8063 76.966 26.8863 78.154 26.8863C79.342 26.8863 79.6984 26.9129 80.0548 26.3863C80.5696 25.6618 80.8996 25.2996 81.0448 25.2996C81.4012 25.2996 83.4736 27.0796 83.4736 27.3329C83.4736 27.6396 83.335 27.6396 82.1206 27.6396H77.791C77.0188 27.6396 77.0188 28.0863 77.0188 28.7529C77.0188 31.0329 77.0188 31.2863 77.098 31.4796C77.2366 31.8396 77.6194 31.8396 77.8174 31.8396H79.3882L79.4014 31.8263ZM80.4508 37.3663C79.6258 37.3663 79.5136 37.6196 79.5136 38.3663C79.5136 39.4529 79.6522 44.1863 79.6522 45.1596C79.6522 47.3329 77.395 47.4129 77.0056 47.4129C76.7284 47.4129 76.6228 47.3863 76.6228 47.0796C76.6228 46.3529 76.6228 45.9663 75.4612 45.5463C75.184 45.4596 73.9696 45.1596 73.7518 45.0729C73.6396 45.0196 73.3096 44.8529 73.3096 44.7396C73.3096 44.6263 73.4746 44.5463 73.7254 44.5463C73.8376 44.5463 76.3456 44.8529 76.8406 44.8529C77.3092 44.8529 77.4478 44.7996 77.56 44.4063C77.6128 44.1863 77.6392 43.8463 77.6392 40.9796C77.6392 37.4129 77.6128 37.3596 76.702 37.3596H74.4382C73.831 37.3596 71.9302 37.3596 70.9666 37.4129C70.8874 37.4396 70.4716 37.4996 70.3858 37.4996C70.2736 37.4996 70.2208 37.4129 70.135 37.2996L69.6136 36.6596C69.5014 36.5463 69.475 36.5196 69.475 36.4929C69.475 36.4396 69.5278 36.4063 69.5872 36.4063C69.7786 36.4063 70.6366 36.4929 70.8016 36.5129C72.0688 36.5729 73.3096 36.5996 74.5768 36.5996H76.7284C77.527 36.5996 77.527 36.1263 77.527 35.6529C77.527 35.2929 77.3884 33.4263 77.3884 33.3663C77.3884 33.1463 77.4412 33.0329 77.6062 33.0329C77.7712 33.0329 80.365 33.7863 80.365 34.3463C80.365 34.5129 79.6786 35.0396 79.6192 35.1796C79.5664 35.2929 79.4806 35.4863 79.4806 36.0129C79.4806 36.4863 79.7314 36.5996 80.002 36.5996C80.332 36.5996 80.4178 36.4863 81.1042 35.5463C81.355 35.1796 81.6586 34.8196 81.9622 34.8196C82.1008 34.8196 82.213 34.9063 83.0644 35.5996C84.358 36.6596 84.4438 36.7463 84.4438 36.9663C84.4438 37.3529 83.8894 37.3529 82.9852 37.3529H80.4508V37.3663ZM74.2732 43.2996C73.666 43.2996 73.501 42.9929 72.9202 41.9929C72.1744 40.7663 70.9072 39.8463 70.465 39.5396C70.3528 39.4529 69.475 38.8129 69.475 38.7863C69.475 38.6463 69.6136 38.6196 69.6928 38.6196C70.2472 38.6196 75.2368 39.5929 75.2368 42.2929C75.2368 42.6263 74.9068 43.2929 74.2732 43.2929V43.2996Z"/><path fill="#0D0D0D" d="M98.2058 29.6734C98.978 29.6734 98.978 29.2001 98.978 28.7534C98.978 28.5001 98.978 26.0534 98.9252 25.8868C98.7602 25.4934 98.4038 25.4934 98.1266 25.4934H92.7542C90.3254 25.4934 89.5268 25.5468 89.2826 25.5468C89.1704 25.5734 88.7876 25.6268 88.6754 25.6268C88.5896 25.6268 88.5368 25.5468 88.4576 25.4334L87.9032 24.7934C87.8504 24.7068 87.791 24.6534 87.791 24.6268C87.791 24.5734 87.8174 24.5468 87.9032 24.5468C88.0682 24.5468 88.9196 24.6268 89.1176 24.6534C90.4706 24.7068 91.5992 24.7334 92.8928 24.7334H106.977C108.297 24.7334 108.436 24.7334 108.99 23.9268C109.65 22.9534 109.677 22.9268 109.901 22.9268C110.317 22.9268 112.218 24.8201 112.218 25.1001C112.218 25.4934 111.696 25.4934 110.759 25.4934H101.823C100.918 25.4934 100.918 25.6868 100.918 27.5001C100.918 29.4468 100.918 29.6734 101.77 29.6734H107.479C108.086 29.6734 108.363 29.4468 108.469 29.3134C108.687 29.0334 108.937 28.7868 109.05 28.7868C109.406 28.7868 111.558 30.4001 111.558 30.7334C111.558 30.9868 111.478 31.0134 110.785 31.4601C110.317 31.7668 110.317 31.9068 110.317 33.2734C110.317 34.3334 110.37 38.9534 110.37 39.9001C110.37 44.4401 110.37 44.9668 110.178 45.4134C109.736 46.5001 108.027 46.8868 107.723 46.8868C107.334 46.8868 107.202 46.7201 107.03 46.2201C106.641 45.1601 105.875 44.7134 105.373 44.5734C105.235 44.5468 104.74 44.4068 104.74 44.2934C104.74 44.2068 104.845 44.2068 104.905 44.2068C105.07 44.2068 107.664 44.2068 107.743 44.1801C108.211 44.0934 108.238 43.5668 108.264 42.9801C108.317 40.8934 108.403 33.8468 108.403 31.2068C108.403 30.5068 107.987 30.4001 107.551 30.4001H101.763C100.912 30.4001 100.912 30.4801 100.912 33.0734C100.912 34.9134 100.912 42.7668 101.017 44.1534C101.044 44.3801 101.07 44.8801 101.07 45.0734C101.07 46.5201 99.7172 46.5801 99.5522 46.5801C98.7272 46.5801 98.7272 46.1068 98.7272 45.8601C98.7272 45.5534 98.8394 44.2734 98.8394 44.0201C98.978 41.0934 99.0044 38.6468 99.0044 37.3668C99.0044 36.7268 99.0044 31.0468 98.978 30.9334C98.8922 30.6268 98.7008 30.4068 98.1794 30.4068H92.609C91.8104 30.4068 91.784 30.8801 91.784 31.4934C91.8104 33.6934 91.8104 43.4068 91.8104 45.3868C91.8104 46.4134 90.7346 46.7801 90.0746 46.7801C89.4938 46.7801 89.4938 46.1134 89.4938 45.9201C89.4938 45.5001 89.6852 42.8601 89.6852 42.2734V31.5534C89.6852 31.1868 89.4674 29.3268 89.4674 29.0468C89.4674 28.8534 89.4938 28.7668 89.6852 28.7668C90.0152 28.7668 91.0646 29.1868 91.5596 29.4068C91.916 29.5734 92.1668 29.6868 92.609 29.6868H98.2058V29.6734ZM96.965 35.1268C96.965 35.8801 96.4436 36.2668 96.0014 36.2668C95.48 36.2668 95.315 35.8468 95.0642 35.2601C94.7342 34.4268 94.0148 33.5401 93.4076 32.8401C93.2954 32.7268 93.0776 32.4801 93.0776 32.4201C93.0776 32.3934 93.104 32.3668 93.1304 32.3401C93.2426 32.3134 96.9584 33.2068 96.9584 35.1268H96.965ZM96.965 41.2001C96.965 41.9801 96.305 42.5334 95.8364 42.5334C95.3414 42.5334 95.2292 42.2268 94.8464 41.1401C94.5428 40.3068 93.7442 39.0801 93.4142 38.6068C93.302 38.4401 93.1634 38.2734 93.1634 38.2201C93.1634 38.1934 93.1898 38.1401 93.2162 38.1401C93.6848 38.0268 96.965 39.3068 96.965 41.2068V41.2001ZM106.977 41.1134C106.977 41.8668 106.396 42.2601 106.066 42.2601C105.71 42.2601 105.512 41.9801 105.156 41.3668C104.548 40.3334 103.558 39.3601 102.7 38.5801C102.423 38.3268 102.37 38.3001 102.456 38.2468C102.839 37.9934 106.977 38.7468 106.977 41.1134ZM106.753 35.3268C106.753 36.1001 106.231 36.5468 105.842 36.5468C105.373 36.5468 105.208 36.1868 104.984 35.6534C104.575 34.6534 103.525 33.5668 103.11 33.1201C102.997 33.0068 102.476 32.5601 102.476 32.5068C102.476 32.4534 102.535 32.4268 102.562 32.4268C103.169 32.1734 106.753 33.0934 106.753 35.3268Z"/><path fill="#0D0D0D" d="M135.508 27.8336C135.864 27.8336 136.089 27.7736 136.366 27.3602C136.557 27.0536 136.696 26.9136 136.835 26.9136C136.947 26.9136 139.541 28.6402 139.541 29.3669C139.541 29.7536 139.263 29.9269 138.709 29.9536C137.554 29.9869 137.389 29.9869 136.861 30.1469C136.557 30.2336 135.013 31.0402 135.013 30.9869C135.066 30.9002 135.864 29.2869 135.864 28.9536C135.864 28.5669 135.587 28.5669 135.343 28.5669H119.49C119.021 28.5669 118.803 28.5669 118.744 29.2069C118.467 32.1602 116.817 33.1869 116.018 33.1869C115.602 33.1869 115.055 32.8536 115.055 32.1536C115.055 31.4536 115.411 31.1536 115.906 30.6802C116.652 29.9869 117.2 29.1736 117.563 27.7336C117.615 27.5136 117.84 26.2536 117.919 26.2536C118.031 26.2536 118.058 26.3669 118.473 27.2869C118.665 27.7336 118.751 27.8469 119.437 27.8469H125.417C126.268 27.8469 126.268 27.4269 126.268 26.1469C126.268 25.5336 126.242 23.7802 126.156 23.2536C126.129 23.1136 125.991 22.4202 125.991 22.2802C125.991 22.1936 126.017 22.0869 126.268 22.0869C126.598 22.0869 129.106 22.4736 129.106 23.2002C129.106 23.3669 128.967 23.5069 128.855 23.5869C128.829 23.6136 128.439 23.9469 128.413 24.0069C128.274 24.2269 128.274 25.8136 128.274 26.7669C128.274 27.4069 128.274 27.8536 129.126 27.8536H135.495L135.508 27.8336ZM131.211 40.8936C131.984 40.8936 132.34 40.8936 132.564 40.8136C132.842 40.6736 133.719 39.3669 133.997 39.3669C134.327 39.3669 136.089 40.7869 136.089 41.2336C136.089 41.6536 135.594 41.6536 134.597 41.6536H129.053C128.222 41.6536 128.169 42.0736 128.169 42.7936C128.169 45.0202 128.169 45.2402 128.994 45.2402H134.261C135.442 45.2402 135.666 45.2136 135.831 45.0469C136.082 44.7669 137.019 43.3469 137.349 43.3469C137.653 43.3469 139.666 45.1602 139.666 45.6002C139.666 45.9869 139.197 45.9869 138.234 45.9869H120.064C117.635 45.9869 116.843 46.0402 116.592 46.0402C116.48 46.0736 116.071 46.1269 115.985 46.1269C115.899 46.1269 115.847 46.0402 115.767 45.9336L115.213 45.2936C115.101 45.1802 115.101 45.1536 115.101 45.1269C115.101 45.0736 115.127 45.0402 115.18 45.0402C115.371 45.0402 116.229 45.1536 116.421 45.1536C117.774 45.2336 118.902 45.2336 120.196 45.2336H125.377C126.202 45.2336 126.202 44.7869 126.202 44.1202C126.202 41.7802 126.202 41.6402 125.403 41.6402H123.364C120.935 41.6402 120.137 41.6936 119.859 41.6936C119.78 41.7202 119.364 41.7736 119.285 41.7736C119.206 41.7736 119.147 41.6936 119.034 41.5802L118.513 40.9402C118.401 40.8269 118.401 40.8002 118.401 40.7736C118.401 40.7202 118.427 40.6936 118.487 40.6936C118.678 40.6936 119.529 40.8069 119.701 40.8069C121.054 40.8869 122.183 40.8869 123.476 40.8869H125.403C126.202 40.8869 126.202 40.3869 126.202 39.8536C126.202 36.7936 126.149 36.5669 125.126 36.5669H124.163C123.39 36.5669 123.338 37.0136 123.311 37.3202C123.258 37.6869 123.173 38.4602 122.07 38.4602C121.549 38.4602 121.212 38.3202 121.212 37.7069C121.212 37.4002 121.351 36.0936 121.351 35.8402C121.377 34.9202 121.404 34.0002 121.404 33.5536C121.404 32.9736 121.377 32.0202 121.325 31.4669C121.298 31.3269 121.133 30.6869 121.133 30.5469C121.133 30.3536 121.272 30.2936 121.377 30.2936C121.767 30.2936 122.348 30.5469 122.783 30.7402C123.503 31.0469 123.971 31.0469 124.215 31.0469H130.664C130.941 31.0469 131.324 31.0469 131.687 30.5736C131.964 30.2136 132.017 30.1536 132.208 30.1536C132.538 30.1536 134.142 31.4069 134.142 31.7936C134.142 32.0202 134.056 32.1002 133.561 32.5469C133.343 32.7669 133.343 33.1869 133.343 33.9936C133.343 34.3536 133.396 36.0536 133.396 36.4136C133.396 37.7469 132.215 37.7469 132.102 37.7469C131.495 37.7469 131.409 37.4669 131.33 37.0536C131.218 36.5536 130.862 36.5536 130.558 36.5536H127.529C127.443 36.5536 127.278 36.5536 127.278 36.6936C127.278 36.8602 127.331 36.8869 128.076 37.1936C128.908 37.5269 128.961 37.6936 128.961 37.8336C128.961 38.0002 128.354 38.4736 128.301 38.6136C128.248 38.7536 128.162 38.9469 128.162 39.8402C128.162 40.5069 128.274 40.8736 129.047 40.8736H131.198L131.211 40.8936ZM123.298 26.0002C123.298 26.9202 122.638 27.0869 122.387 27.0869C121.945 27.0869 121.859 26.9202 121.034 25.3602C120.955 25.1936 120.288 23.9669 119.325 23.2736C119.239 23.2136 118.995 23.0202 118.995 22.9936C118.995 22.9402 119.186 22.9069 119.213 22.9069C119.655 22.9069 120.427 23.0736 121.305 23.4669C121.938 23.7736 123.291 24.5269 123.291 26.0002H123.298ZM124.156 31.7869C123.437 31.7869 123.272 32.0136 123.272 32.7936C123.272 35.2469 123.272 35.3002 123.384 35.5202C123.522 35.8536 123.905 35.8536 124.156 35.8536H130.604C131.403 35.8536 131.541 35.8269 131.541 33.0669C131.541 32.1202 131.515 31.7869 130.657 31.7869H124.149H124.156ZM135.62 24.6069C135.62 24.9669 135.264 24.9936 134.874 24.9936C134.58 25.0114 133.9 25.3269 132.835 25.9402C131.898 26.4669 130.875 26.8869 130.631 26.8869C130.604 26.8869 130.545 26.8869 130.545 26.8602C130.545 26.8336 131.621 25.4136 131.786 25.1069C132.67 23.6336 132.776 23.4936 132.941 22.9602C133.079 22.5736 133.106 22.4869 133.271 22.4869C133.601 22.4869 134.208 23.0136 134.485 23.2402C135.006 23.7136 135.614 24.2402 135.614 24.6069H135.62Z"/></svg>