<svg width="150" height="70" viewBox="0 0 150 70" fill="none" xmlns="http://www.w3.org/2000/svg">
<g clip-path="url(#clip0_7380_33718)">
<path d="M53.0498 30.9043L42.8848 48.6778" stroke="#0D0D0D" stroke-miterlimit="10"/>
<path d="M40.7587 29.4082L30.5938 47.1817" stroke="#0D0D0D" stroke-miterlimit="10"/>
<path d="M46.372 31.1572L39.1094 43.8536" stroke="#0D0D0D" stroke-miterlimit="10"/>
<path d="M56.4214 34.9707L49.1621 47.6636" stroke="#0D0D0D" stroke-miterlimit="10"/>
<path d="M28.8575 38.7764L25.9551 43.857" stroke="#0D0D0D" stroke-miterlimit="10"/>
<path d="M28.3061 29.124L23.9492 36.7398" stroke="#0D0D0D" stroke-miterlimit="10"/>
<path d="M35.7436 26.7773L31.3867 34.3965" stroke="#0D0D0D" stroke-miterlimit="10"/>
<path d="M33.1776 20.5898L31.4355 23.6341" stroke="#0D0D0D" stroke-miterlimit="10"/>
<path d="M36.5487 48.2646L34.8066 51.3089" stroke="#0D0D0D" stroke-miterlimit="10"/>
<path d="M49.0845 23.1758C48.9163 22.5443 48.6099 21.9602 48.1883 21.4675C47.6767 21.1976 47.1384 20.9857 46.6235 20.7021C46.1599 20.4095 45.6721 20.1591 45.1656 19.9539C44.702 19.9264 44.2371 19.9736 43.788 20.094C43.2421 20.2374 42.7295 20.4899 42.2797 20.837C41.8299 21.184 41.4518 21.6186 41.1673 22.1158C40.8829 22.613 40.6976 23.1628 40.6223 23.7336C40.5469 24.3043 40.583 24.8847 40.7284 25.4411C41.0362 26.5636 41.7654 27.5165 42.7573 28.0924C43.7493 28.6683 44.9237 28.8205 46.0249 28.5161C46.5703 28.373 47.0825 28.1209 47.532 27.7745C47.9816 27.428 48.3595 26.994 48.6439 26.4975C48.9284 26.001 49.1138 25.4518 49.1894 24.8817C49.265 24.3116 49.2293 23.7318 49.0845 23.1758Z" fill="#0D0D0D"/>
<path d="M44.7638 19.941C44.5824 19.9256 44.4001 19.9256 44.2188 19.941C44.1803 19.9469 44.141 19.9442 44.1036 19.9332C44.0662 19.9222 44.0315 19.903 44.002 19.8771C43.9725 19.8511 43.9488 19.819 43.9325 19.7829C43.9163 19.7467 43.9078 19.7074 43.9078 19.6676C43.9059 19.6495 43.9059 19.6311 43.9078 19.613C42.7457 19.2896 41.5623 19.0521 40.3668 18.9023C39.3335 18.8203 38.297 18.8647 37.2671 18.7861C36.8257 19.6681 36.722 20.6865 36.9762 21.6425C37.2609 22.6768 37.9316 23.5556 38.844 24.0898C39.7563 24.624 40.8375 24.7708 41.8547 24.4988C42.8087 24.2469 43.636 23.6396 44.1743 22.7963C44.7125 21.953 44.9228 20.9346 44.7638 19.941Z" fill="#0D0D0D"/>
<path d="M53.4485 26.1725C53.1886 25.8371 52.9047 25.5219 52.5992 25.2295C51.8828 24.4757 51.1212 23.7682 50.3188 23.1112L50.2853 23.0872L50.1516 23.0155L50.1048 22.9882C50.0034 22.9813 49.9018 22.9813 49.8005 22.9882C49.7567 22.9918 49.7126 22.9852 49.6717 22.969C49.6307 22.9527 49.5939 22.9272 49.564 22.8943C49.5341 22.8614 49.5118 22.822 49.4989 22.7791C49.486 22.7362 49.4828 22.6909 49.4895 22.6465C49.4083 22.6598 49.3279 22.6781 49.2488 22.7012C48.8272 22.8116 48.4313 23.0064 48.0838 23.2741C47.7364 23.5419 47.4443 23.8773 47.2245 24.2611C47.0047 24.6449 46.8615 25.0694 46.8031 25.5101C46.7448 25.9507 46.7726 26.3988 46.8847 26.8285C47.1194 27.6987 47.6815 28.4387 48.4484 28.8868C49.2152 29.3349 50.1244 29.4548 50.9775 29.2202C51.6504 29.0416 52.2512 28.6512 52.6947 28.1041C53.1383 27.5571 53.402 26.8813 53.4485 26.1725Z" fill="#0D0D0D"/>
<path d="M55.9951 30.1943V30.1635C55.4274 29.3462 54.906 28.4964 54.4336 27.6181C53.942 26.7372 53.3307 25.932 52.6179 25.2264L52.2835 24.9053C51.496 25.1824 50.8405 25.7542 50.449 26.5055C50.0575 27.2567 49.9591 28.1316 50.1736 28.954C50.3361 29.562 50.6599 30.1122 51.1093 30.5438C51.5587 30.9754 52.1162 31.2715 52.7201 31.3995C53.324 31.5275 53.9508 31.4824 54.5311 31.2691C55.1115 31.0558 55.6228 30.6826 56.0085 30.1909L55.9951 30.1943Z" fill="#0D0D0D"/>
<path d="M46.9972 22.3743C47.3262 21.6359 46.1215 20.3526 44.3063 19.5082C42.4912 18.6637 40.753 18.5778 40.4239 19.3162C40.0949 20.0547 41.2996 21.3379 43.1147 22.1824C44.9299 23.0268 46.6681 23.1128 46.9972 22.3743Z" fill="#0D0D0D"/>
<path d="M51.5349 23.4327C51.6605 22.9416 50.6904 22.2574 49.3682 21.9045C48.0461 21.5516 46.8724 21.6636 46.7469 22.1547C46.6213 22.6458 47.5914 23.33 48.9136 23.683C50.2358 24.0359 51.4094 23.9239 51.5349 23.4327Z" fill="#0D0D0D"/>
<path d="M56.1796 31.3522C58.557 40.3038 53.2438 49.5493 44.3394 51.9581C35.435 54.3668 26.253 49.0437 23.879 40.0886C21.5049 31.1335 26.8114 21.8914 35.7092 19.4827C44.6069 17.0739 53.7955 22.3971 56.1696 31.3522" stroke="#0D0D0D" stroke-width="3" stroke-miterlimit="10"/>
<path d="M67.3304 27.9838C67.4976 27.9956 67.6652 27.9714 67.8225 27.9125C67.9799 27.8536 68.1232 27.7615 68.2433 27.6421C68.7582 27.1433 68.8251 27.0715 68.9354 27.0715C69.1795 27.0715 70.1626 28.0555 70.1626 28.3015C70.1626 28.5475 69.7145 29.2855 69.6711 29.4427C69.5684 30.4116 69.5238 31.386 69.5373 32.3605C69.5373 33.5461 69.6711 38.7838 69.6711 39.8293C69.6711 40.1505 69.6711 40.8133 69.2698 41.2233C69.0129 41.4853 68.6881 41.6666 68.3336 41.7461C67.9323 41.7461 67.9089 41.2233 67.9089 41.0867C67.9089 40.5366 67.9089 40.3794 67.287 40.3794H66.0163C65.9319 40.3684 65.8462 40.3771 65.7656 40.4051C65.6851 40.4331 65.6118 40.4795 65.5515 40.5408C65.4912 40.6021 65.4454 40.6767 65.4176 40.7589C65.3898 40.8411 65.3807 40.9286 65.3911 41.0149C65.3911 41.0867 65.3911 41.9955 65.3677 42.1322C65.3008 42.7233 64.5652 43.4783 64.2308 43.4783C63.6289 43.4783 63.6289 42.9522 63.6289 42.7472C63.6289 42.5422 63.7192 41.0867 63.7192 40.7655C63.7861 38.3499 63.8295 36.7338 63.8295 30.3549C63.8295 29.8766 63.7627 27.7583 63.7627 27.3483C63.7627 27.2321 63.7627 27.0954 63.8964 27.0954C64.2534 27.2108 64.5915 27.3801 64.8995 27.5977C65.2554 27.8695 65.6929 28.0061 66.1367 27.9838H67.3304ZM67.287 39.7849C67.4876 39.7849 67.822 39.7849 67.9557 39.4911C68.0226 39.3305 68.0226 37.506 68.0226 37.0277C68.0446 36.215 68.0223 35.4017 67.9557 34.5916C67.9067 34.4969 67.8321 34.4186 67.7408 34.3659C67.6496 34.3133 67.5454 34.2884 67.4408 34.2943H65.9261C65.3476 34.2943 65.3476 34.4788 65.3476 36.3443C65.3476 36.9833 65.3476 39.3305 65.4345 39.4911C65.5014 39.7166 65.7488 39.7849 65.9729 39.7849H67.287ZM66.0163 28.5988C65.9296 28.5889 65.8417 28.6006 65.7603 28.6327C65.6788 28.6648 65.6061 28.7164 65.5482 28.7833C65.3677 29.0088 65.3677 32.2682 65.3677 32.791C65.3677 33.3137 65.3677 33.7033 65.9929 33.7033H67.3538C67.4716 33.7191 67.5914 33.6994 67.6983 33.6466C67.8053 33.5938 67.8947 33.5102 67.9557 33.406C68.0427 33.1771 68.0427 30.8093 68.0427 30.3549C68.0427 28.7149 68.0427 28.5988 67.3973 28.5988H66.0163ZM78.746 33.1087C79.7959 33.1087 79.9063 33.1087 80.2407 32.5416C80.3945 32.2922 80.7957 31.6293 81.1535 31.6293C81.471 31.8117 81.77 32.0258 82.0463 32.2683C83.0929 33.1566 83.1598 33.201 83.1598 33.3855C83.1598 33.7033 82.6916 33.7033 81.956 33.7033H73.5532C72.5032 33.7033 71.587 33.7272 71.1657 33.7716C71.0754 33.7716 70.7411 33.8194 70.6742 33.8194C70.6073 33.8194 70.5638 33.7716 70.497 33.6793L70.0489 33.1566C69.962 33.0438 69.962 33.0438 69.962 32.996C69.962 32.9482 69.982 32.9516 70.0288 32.9516C70.2061 32.9516 70.8982 33.0199 71.032 33.0199C71.8111 33.0643 72.9279 33.1087 73.6635 33.1087H74.5329C75.2016 33.1087 75.2016 32.6543 75.2016 32.381C75.2016 31.9027 75.2016 30.6487 75.1782 30.2387C75.1648 29.6921 74.8004 29.6921 74.5763 29.6921C73.8641 29.6921 72.7273 29.6921 72.0786 29.7365C72.0117 29.7365 71.6773 29.8048 71.6104 29.8048C71.5436 29.8048 71.4767 29.7365 71.4098 29.6443L70.9852 29.1215C70.8982 29.0293 70.8748 29.0088 70.8748 28.9848C70.8748 28.9609 70.9216 28.9165 70.9651 28.9165C71.1189 28.9165 71.8111 28.9848 71.9448 29.0088C72.7473 29.0293 73.7304 29.0771 74.5095 29.0771C74.7536 29.0771 75.1782 29.0771 75.1782 28.5065C75.1896 27.6616 75.1449 26.8169 75.0445 25.9782C75.0244 25.862 74.9542 25.4315 74.9542 25.3393C74.9521 25.3146 74.9553 25.2898 74.9637 25.2667C74.9721 25.2435 74.9854 25.2225 75.0026 25.2052C75.0199 25.1878 75.0407 25.1747 75.0635 25.1665C75.0864 25.1584 75.1107 25.1556 75.1348 25.1582C75.1548 25.1582 77.4954 25.8415 77.4954 26.1353C77.4954 26.2515 77.0073 26.6376 76.9404 26.7298C76.7832 26.9109 76.7832 27.3893 76.7832 27.6387C76.7832 29.0053 76.7832 29.0771 77.7429 29.0771C78.7025 29.0771 78.9934 29.0976 79.281 28.6671C79.9063 27.7788 79.9063 27.7788 80.0835 27.7788C80.3744 27.7788 82.0463 29.2343 82.0463 29.4427C82.0463 29.6511 81.9326 29.6921 80.9529 29.6921H77.452C76.8367 29.6921 76.8367 30.0337 76.8367 30.5872C76.8367 32.4527 76.8367 32.6578 76.9003 32.8183C77.0139 33.1122 77.3249 33.1122 77.4821 33.1122L78.746 33.1087ZM79.5953 37.6427C78.9266 37.6427 78.8363 37.8511 78.8363 38.4627C78.8363 39.3544 78.9466 43.2255 78.9466 44.025C78.9466 45.8017 77.1176 45.8666 76.8066 45.8666C76.5826 45.8666 76.4957 45.8461 76.4957 45.5932C76.4957 45.0022 76.4957 44.6844 75.5561 44.3427C75.3354 44.271 74.3523 44.025 74.1751 43.9532C74.0848 43.9088 73.8173 43.7722 73.8173 43.6799C73.8173 43.5877 73.9544 43.5228 74.1517 43.5228C74.242 43.5228 76.2716 43.7722 76.6729 43.7722C77.0741 43.7722 77.1644 43.7277 77.2513 43.4066C77.2982 43.2255 77.3182 42.9522 77.3182 40.6049C77.3182 37.6905 77.2982 37.6427 76.5625 37.6427H74.7335C74.242 37.6427 72.7038 37.6427 71.9247 37.6905C71.7703 37.7233 71.6139 37.7461 71.4566 37.7588C71.3663 37.7588 71.3229 37.6905 71.2527 37.5982L70.818 37.0789C70.7277 36.9867 70.7076 36.9628 70.7076 36.9423C70.7076 36.9218 70.7511 36.8739 70.7946 36.8739C70.9517 36.8739 71.6439 36.9422 71.7776 36.9627C72.8008 37.0106 73.8039 37.0311 74.8305 37.0311H76.5692C77.2146 37.0311 77.2146 36.645 77.2146 36.2589C77.2146 35.9651 77.1042 34.4344 77.1042 34.39C77.1042 34.2089 77.151 34.1167 77.2848 34.1167C77.4185 34.1167 79.5117 34.7317 79.5117 35.1861C79.5117 35.3262 78.9567 35.7567 78.9098 35.8694C78.8195 36.0847 78.7817 36.3192 78.7995 36.5528C78.7995 36.9423 79.0001 37.0311 79.2242 37.0311C79.4482 37.0311 79.5585 36.9423 80.1136 36.1667C80.3142 35.8694 80.5617 35.5756 80.8057 35.5756C80.9161 35.5756 81.0064 35.6439 81.6985 36.2111C82.7451 37.0789 82.812 37.1472 82.812 37.3283C82.812 37.6461 82.3673 37.6461 81.6317 37.6461L79.5953 37.6427ZM74.5997 42.5012C74.1082 42.5012 73.9745 42.2517 73.5063 41.4283C72.9788 40.6358 72.3053 39.9558 71.5235 39.4262C71.4332 39.3578 70.721 38.8317 70.721 38.8112C70.721 38.695 70.8313 38.6745 70.8982 38.6745C71.3429 38.6745 75.3788 39.4706 75.3788 41.6812C75.3682 41.8911 75.2833 42.0899 75.14 42.2407C74.9968 42.3915 74.8048 42.4841 74.5997 42.5012Z" fill="#0D0D0D"/>
<path d="M93.9569 31.349C94.5822 31.349 94.5822 30.9595 94.5822 30.5973C94.5822 30.3923 94.5822 28.3867 94.5354 28.2501C94.4017 27.9323 94.1141 27.9323 93.8901 27.9323H89.5432C87.5804 27.9323 86.9317 27.9767 86.7311 27.9767C86.5699 28.0095 86.4068 28.0324 86.2429 28.0451C86.176 28.0451 86.1292 27.9767 86.0623 27.8845L85.6176 27.3617C85.5742 27.2934 85.5273 27.249 85.5273 27.2251C85.5273 27.2011 85.5507 27.1567 85.6176 27.1567C85.7514 27.1567 86.4435 27.2251 86.5973 27.249C87.6907 27.2934 88.6036 27.3139 89.6535 27.3139H101.046C102.116 27.3139 102.226 27.3139 102.674 26.6545C103.209 25.8584 103.232 25.8379 103.41 25.8379C103.744 25.8379 105.282 27.3822 105.282 27.6111C105.282 27.9323 104.861 27.9323 104.102 27.9323H96.876C96.1437 27.9323 96.1437 28.0895 96.1437 29.5723C96.1437 31.1645 96.1437 31.349 96.8326 31.349H101.447C101.594 31.3664 101.742 31.3493 101.881 31.2989C102.02 31.2486 102.146 31.1664 102.249 31.0586C102.43 30.8296 102.631 30.6246 102.718 30.6246C103.008 30.6246 104.747 31.9469 104.747 32.2202C104.747 32.4252 104.68 32.4491 104.125 32.8113C103.744 33.0641 103.744 33.1769 103.744 34.2941C103.744 35.162 103.791 38.9408 103.791 39.7164C103.791 43.4303 103.791 43.8608 103.634 44.2264C103.276 45.1147 101.892 45.4359 101.648 45.4359C101.337 45.4359 101.226 45.2992 101.092 44.8892C100.99 44.5723 100.816 44.2849 100.583 44.0508C100.351 43.8167 100.067 43.6426 99.755 43.5431C99.6447 43.5191 99.2434 43.4064 99.2434 43.3176C99.2434 43.2287 99.3337 43.2458 99.3772 43.2458C99.5109 43.2458 101.607 43.2458 101.674 43.2253C102.052 43.1536 102.076 42.7231 102.099 42.2447C102.142 40.5364 102.209 34.7725 102.209 32.6097C102.209 32.0391 101.875 31.9469 101.517 31.9469H96.8359C96.1471 31.9469 96.1471 32.0152 96.1471 34.1336C96.1471 35.6369 96.1471 42.0636 96.234 43.2014C96.2574 43.3825 96.2775 43.7925 96.2775 43.9531C96.2828 44.1181 96.2545 44.2825 96.1944 44.4357C96.1343 44.589 96.0437 44.7279 95.9283 44.8435C95.813 44.9591 95.6754 45.049 95.5242 45.1075C95.3731 45.1659 95.2117 45.1917 95.0503 45.1831C94.3816 45.1831 94.3816 44.797 94.3816 44.592C94.3816 44.387 94.4685 43.2902 94.4685 43.0886C94.5822 40.697 94.6023 38.6914 94.6023 37.6459C94.6023 37.1197 94.6023 32.4696 94.5822 32.3808C94.5153 32.128 94.3582 31.9469 93.9335 31.9469H89.4295C88.7842 31.9469 88.7607 32.3364 88.7607 32.8352C88.7842 34.6358 88.7842 42.5864 88.7842 44.2059C88.7842 45.0464 87.9148 45.3436 87.3798 45.3436C86.9117 45.3436 86.9117 44.797 86.9117 44.6364C86.9117 44.2947 87.0655 42.132 87.0655 41.6536V32.8762C87.0655 32.5756 86.8882 31.0517 86.8882 30.8262C86.8882 30.6691 86.9117 30.6007 87.0655 30.6007C87.5899 30.7133 88.0994 30.8888 88.5835 31.1235C88.8425 31.2706 89.1333 31.3493 89.4295 31.3524L93.9569 31.349ZM92.9538 35.8146C92.9639 35.9286 92.9515 36.0435 92.9173 36.1526C92.8832 36.2617 92.8281 36.3626 92.7551 36.4496C92.6822 36.5365 92.593 36.6076 92.4927 36.6588C92.3925 36.7099 92.2832 36.74 92.1714 36.7473C91.7501 36.7473 91.6163 36.4056 91.4157 35.9273C91.0731 35.1999 90.6219 34.5313 90.0782 33.9456C89.973 33.8459 89.8828 33.7308 89.8107 33.604C89.8107 33.5801 89.8307 33.5596 89.8542 33.5356C89.9444 33.5117 92.9538 34.2429 92.9538 35.8146ZM92.9538 40.7824C92.9557 41.0465 92.8639 41.3024 92.6955 41.5027C92.5271 41.7031 92.2934 41.8343 92.0376 41.8723C91.6364 41.8723 91.5494 41.6229 91.2351 40.7346C90.9216 40.0037 90.5339 39.3086 90.0782 38.6606C89.9994 38.5631 89.9321 38.4564 89.8776 38.3429C89.8776 38.319 89.8976 38.2746 89.921 38.2746C90.2989 38.1823 92.9538 39.2312 92.9538 40.7824ZM101.046 40.7106C101.06 40.9328 100.992 41.1524 100.856 41.3263C100.72 41.5002 100.525 41.6157 100.31 41.6502C100.022 41.6502 99.8653 41.4213 99.5744 40.9225C99.0236 40.0698 98.3558 39.3024 97.5916 38.6436C97.3676 38.4351 97.3241 38.4146 97.391 38.3702C97.7019 38.1618 101.046 38.7734 101.046 40.7106ZM100.868 35.9751C100.892 36.2057 100.83 36.4369 100.693 36.622C100.556 36.8072 100.356 36.9326 100.133 36.9728C99.7517 36.9728 99.6179 36.679 99.4407 36.2451C99.1063 35.4285 98.2603 34.5367 97.926 34.1746C97.7445 34.0179 97.5726 33.8502 97.411 33.6723C97.4125 33.6547 97.4201 33.6382 97.4323 33.6257C97.4445 33.6132 97.4607 33.6055 97.4779 33.604C97.9694 33.399 100.868 34.1506 100.868 35.9751Z" fill="#0D0D0D"/>
<path d="M124.128 29.8459C124.269 29.8599 124.41 29.8302 124.533 29.7607C124.657 29.6911 124.757 29.5851 124.821 29.4564C124.974 29.2069 125.088 29.0942 125.198 29.0942C125.309 29.0942 127.382 30.5053 127.382 31.0998C127.382 31.4175 127.161 31.5542 126.713 31.5747C125.777 31.5986 125.643 31.5986 125.218 31.7353C124.974 31.8036 123.727 32.463 123.727 32.4186C123.727 32.3742 124.416 31.028 124.416 30.7547C124.416 30.4814 124.195 30.4369 123.995 30.4369H111.171C110.793 30.4369 110.616 30.4369 110.569 30.9597C110.349 33.3753 109.011 34.2192 108.363 34.2192C108.152 34.2103 107.954 34.1165 107.811 33.9583C107.668 33.8001 107.592 33.5904 107.6 33.3753C107.6 32.8047 107.891 32.5553 108.292 32.1692C108.976 31.5283 109.444 30.6828 109.63 29.7536C109.695 29.3436 109.792 28.9392 109.917 28.5441C110.008 28.5441 110.031 28.6364 110.365 29.3914C110.523 29.7536 110.586 29.8459 111.148 29.8459H115.96C116.652 29.8459 116.652 29.5042 116.652 28.4553C116.652 27.9564 116.628 26.518 116.561 26.0875C116.541 25.9714 116.428 25.4042 116.428 25.288C116.428 25.1719 116.451 25.1309 116.652 25.1309C116.919 25.1309 118.949 25.4452 118.949 26.0397C118.94 26.1047 118.917 26.167 118.883 26.2224C118.848 26.2778 118.802 26.325 118.748 26.3609C118.622 26.4673 118.503 26.5814 118.39 26.7025C118.28 26.8836 118.28 28.1819 118.28 28.9575C118.28 29.4803 118.28 29.8459 118.969 29.8459H124.128ZM120.641 40.5298C121.006 40.5598 121.373 40.5368 121.731 40.4614C121.955 40.3487 122.67 39.2759 122.891 39.2759C123.112 39.2759 124.586 40.4375 124.586 40.8031C124.586 41.1687 124.185 41.1448 123.383 41.1448H118.902C118.233 41.1448 118.187 41.4864 118.187 42.0809C118.187 43.902 118.187 44.0831 118.855 44.0831H123.115C124.072 44.0831 124.252 44.0626 124.386 43.9259C124.586 43.697 125.342 42.5354 125.61 42.5354C125.877 42.5354 127.485 44.0148 127.485 44.3804C127.485 44.7459 127.104 44.6981 126.325 44.6981H111.643C109.68 44.6981 109.035 44.7425 108.834 44.7425C108.672 44.7782 108.508 44.8021 108.343 44.8143C108.276 44.8143 108.229 44.7425 108.162 44.6537L107.717 44.1309C107.63 44.0387 107.63 44.0148 107.63 43.9943C107.63 43.9738 107.65 43.9259 107.697 43.9259C107.851 43.9259 108.543 44.0148 108.7 44.0148C109.79 44.0831 110.707 44.0831 111.753 44.0831H115.96C116.628 44.0831 116.628 43.7175 116.628 43.1743C116.628 41.2609 116.628 41.1448 115.98 41.1448H114.331C112.368 41.1448 111.723 41.1926 111.499 41.1926C111.345 41.2254 111.188 41.2482 111.031 41.2609C110.964 41.2609 110.921 41.1926 110.83 41.1004L110.406 40.5742C110.319 40.4854 110.319 40.4614 110.319 40.4375C110.318 40.4283 110.319 40.4189 110.322 40.4101C110.325 40.4013 110.329 40.3934 110.336 40.3868C110.342 40.3802 110.35 40.3752 110.359 40.3721C110.367 40.3691 110.377 40.3681 110.386 40.3692C110.539 40.3692 111.232 40.4614 111.365 40.4614C112.459 40.5298 113.372 40.5298 114.421 40.5298H115.96C116.608 40.5298 116.608 40.1198 116.608 39.6859C116.608 37.1814 116.561 36.9969 115.739 36.9969H114.956C114.331 36.9969 114.288 37.3625 114.268 37.6119C114.248 37.8614 114.154 38.5481 113.265 38.5481C112.843 38.5481 112.572 38.4319 112.572 37.9331C112.572 37.6803 112.686 36.6109 112.686 36.4059C112.709 35.6542 112.73 34.9025 112.73 34.5369C112.73 34.062 112.709 33.2864 112.663 32.8286C112.643 32.7159 112.509 32.1897 112.509 32.0769C112.506 32.0494 112.51 32.0215 112.519 31.9955C112.528 31.9694 112.543 31.9457 112.562 31.9261C112.581 31.9065 112.604 31.8915 112.63 31.8821C112.655 31.8728 112.682 31.8693 112.709 31.8719C113.106 31.9265 113.491 32.0502 113.846 32.2375C114.211 32.4062 114.607 32.4914 115.007 32.4869H120.223C120.382 32.5025 120.542 32.4751 120.687 32.4073C120.832 32.3395 120.957 32.2338 121.049 32.1009C121.269 31.8036 121.316 31.7592 121.47 31.7592C121.738 31.7592 123.032 32.7842 123.032 33.1019C123.032 33.2864 122.965 33.3514 122.563 33.7169C122.386 33.9014 122.386 34.2431 122.386 34.9025C122.386 35.1998 122.43 36.5869 122.43 36.8842C122.439 37.0283 122.419 37.1728 122.37 37.3082C122.321 37.4437 122.245 37.5671 122.146 37.6703C122.047 37.7735 121.928 37.8543 121.797 37.9072C121.665 37.9602 121.524 37.9841 121.383 37.9775C120.892 37.9775 120.825 37.7486 120.758 37.4104C120.668 36.9969 120.38 36.9969 120.133 36.9969H117.682C117.615 36.9969 117.481 36.9969 117.481 37.1131C117.481 37.2293 117.524 37.2737 118.126 37.5197C118.795 37.7964 118.839 37.9331 118.839 38.0459C118.839 38.1586 118.354 38.5754 118.3 38.6848C118.195 39.0068 118.157 39.3479 118.19 39.6859C118.19 40.2325 118.28 40.5298 118.905 40.5298H120.641ZM114.251 28.3425C114.266 28.4511 114.258 28.5616 114.228 28.6668C114.198 28.772 114.146 28.8695 114.077 28.953C114.007 29.0365 113.921 29.1041 113.825 29.1514C113.728 29.1987 113.623 29.2246 113.515 29.2274C113.158 29.2274 113.091 29.0942 112.422 27.8164C112.083 27.1547 111.613 26.5728 111.041 26.108C110.945 26.0409 110.855 25.9642 110.773 25.8791C110.773 25.8347 110.927 25.8074 110.951 25.8074C111.539 25.8537 112.114 26.0125 112.646 26.2754C113.158 26.518 114.251 27.133 114.251 28.3425ZM114.956 33.078C114.375 33.078 114.241 33.2625 114.241 33.9014C114.241 35.907 114.241 35.9514 114.331 36.1325C114.442 36.4059 114.756 36.4059 114.956 36.4059H120.173C120.818 36.4059 120.932 36.3819 120.932 34.1269C120.932 33.3514 120.908 33.078 120.216 33.078H114.956ZM124.229 27.2014C124.229 27.4986 123.941 27.5225 123.627 27.5225C123.312 27.5225 123.272 27.543 121.978 28.2981C121.423 28.64 120.823 28.9 120.196 29.0703C120.173 29.0703 120.129 29.0703 120.129 29.0464C120.129 29.0224 120.995 27.8608 121.132 27.6114C121.845 26.4053 121.932 26.2891 122.065 25.8586C122.179 25.5374 122.202 25.4691 122.336 25.4691C122.604 25.4691 123.095 25.903 123.316 26.0875C123.727 26.4736 124.215 26.9041 124.215 27.2014H124.229Z" fill="#0D0D0D"/>
</g>
<defs>
<clipPath id="clip0_7380_33718">
<rect width="107" height="41" fill="white" transform="translate(22 15)"/>
</clipPath>
</defs>
</svg>
