<svg width="150" height="70" viewBox="0 0 150 70" fill="none" xmlns="http://www.w3.org/2000/svg">
<path d="M36.9728 53.6349C47.0369 53.6349 55.1955 45.3939 55.1955 35.2281C55.1955 25.0623 47.0369 16.8213 36.9728 16.8213C26.9086 16.8213 18.75 25.0623 18.75 35.2281C18.75 45.3939 26.9086 53.6349 36.9728 53.6349Z" fill="white"/>
<path d="M44.609 21.0621C44.9691 20.2631 43.6473 18.8733 41.6566 17.9577C39.666 17.0422 37.7603 16.9477 37.4001 17.7467C37.04 18.5457 38.3618 19.9355 40.3525 20.851C42.3431 21.7666 44.2489 21.8611 44.609 21.0621Z" fill="#0D0D0D"/>
<path d="M51.1428 30.2406L40.0039 49.4951L40.2009 49.6114L51.3398 30.3569L51.1428 30.2406Z" fill="#0D0D0D"/>
<path d="M37.6721 28.6166L26.5332 47.8711L26.7302 47.9874L37.8691 28.7329L37.6721 28.6166Z" fill="#0D0D0D"/>
<path d="M43.8205 30.508L35.8633 44.2627L36.0603 44.379L44.0175 30.6243L43.8205 30.508Z" fill="#0D0D0D"/>
<path d="M54.84 34.6379L46.8828 48.3926L47.0798 48.5088L55.037 34.7542L54.84 34.6379Z" fill="#0D0D0D"/>
<path d="M24.6309 38.7677L21.4492 44.2676L21.6462 44.3838L24.8279 38.884L24.6309 38.7677Z" fill="#0D0D0D"/>
<path d="M24.0186 28.3088L19.2461 36.5586L19.4431 36.6749L24.2156 28.4251L24.0186 28.3088Z" fill="#0D0D0D"/>
<path d="M32.171 25.7698L27.3984 34.0195L27.5954 34.1358L32.368 25.8861L32.171 25.7698Z" fill="#0D0D0D"/>
<path d="M29.3686 19.0643L27.459 22.3652L27.656 22.4815L29.5656 19.1806L29.3686 19.0643Z" fill="#0D0D0D"/>
<path d="M33.0561 49.0389L31.1465 52.3398L31.3435 52.4561L33.2531 49.1552L33.0561 49.0389Z" fill="#0D0D0D"/>
<path d="M47.1443 21.9265C46.9571 21.2174 46.612 20.591 46.1615 20.071C45.5999 19.7756 45.0091 19.5451 44.4475 19.2438C43.9561 18.9779 43.4179 18.6174 42.8504 18.4342C42.3532 18.4047 41.8443 18.4519 41.3412 18.5879C38.8139 19.2615 37.3105 21.8556 37.9891 24.3788C38.6677 26.9019 41.2651 28.3969 43.7923 27.7233C46.3195 27.0497 47.8229 24.4556 47.1443 21.9324V21.9265Z" fill="#0D0D0D"/>
<path d="M42.16 18.4168C41.9611 18.3991 41.7622 18.3991 41.5633 18.4168C41.3468 18.4404 41.2357 18.2868 41.224 18.1213C41.2181 18.1036 41.2064 18.0859 41.2064 18.0622C39.9194 17.7727 38.6441 17.3945 37.3279 17.2882C36.1988 17.1995 35.0581 17.2468 33.929 17.1641C33.461 18.0859 33.3206 19.1791 33.6073 20.2604C34.2332 22.5886 36.6376 23.9713 38.9717 23.3509C41.1713 22.7659 42.5285 20.6091 42.16 18.4168Z" fill="#0D0D0D"/>
<path d="M51.6676 25.0881C51.3985 24.7217 51.1001 24.3731 50.7725 24.0363C49.9886 23.2386 49.234 22.3522 48.3565 21.6549C48.3448 21.6431 48.3331 21.6372 48.3155 21.6254C48.2687 21.5958 48.2219 21.5722 48.1693 21.5426C48.1517 21.5308 48.1342 21.519 48.1166 21.5131C48.0055 21.5013 47.8943 21.4895 47.789 21.4895C47.555 21.4895 47.4439 21.3004 47.4556 21.1172C47.3678 21.129 47.2801 21.1467 47.1923 21.1645C45.2209 21.6195 43.9924 23.5813 44.4487 25.5431C44.905 27.5108 46.8706 28.734 48.842 28.279C50.4157 27.9186 51.5155 26.5949 51.6617 25.0763L51.6676 25.0881Z" fill="#0D0D0D"/>
<path d="M54.4688 29.5258C54.4688 29.5258 54.4571 29.5021 54.4512 29.4903C54.4512 29.4903 54.4512 29.4903 54.4512 29.4844C53.8019 28.6158 53.2871 27.6585 52.743 26.7249C52.1814 25.7676 51.5613 24.9108 50.754 24.1426C50.637 24.0303 50.5142 23.9121 50.3972 23.7939C48.6129 24.4262 47.5892 26.3289 48.0864 28.1785C48.6071 30.1285 50.6195 31.2808 52.5734 30.7608C53.3573 30.5539 54.0125 30.1049 54.4805 29.5199L54.4688 29.5258Z" fill="#0D0D0D"/>
<path d="M49.5736 22.2037C49.7108 21.6733 48.6487 20.9336 47.2014 20.5517C45.7541 20.1698 44.4696 20.2903 44.3324 20.8208C44.1952 21.3512 45.2573 22.0908 46.7046 22.4727C48.1519 22.8546 49.4364 22.7342 49.5736 22.2037Z" fill="#0D0D0D"/>
<path d="M36.9372 54.2203C28.6419 54.2203 21.0427 48.7131 18.808 40.3753C17.5269 35.6067 18.1762 30.6076 20.6391 26.2999C23.1487 21.9035 27.232 18.7599 32.1226 17.454C42.1378 14.7772 52.4631 20.6981 55.1365 30.6549C56.4177 35.4235 55.7683 40.4226 53.3055 44.7303C50.79 49.1267 46.7125 52.2703 41.8219 53.5762C40.1898 54.0135 38.5518 54.2203 36.943 54.2203H36.9372ZM37.0015 17.779C35.4688 17.779 33.9127 17.974 32.3683 18.3876C27.7234 19.6285 23.8507 22.6126 21.4698 26.7785C19.1356 30.8617 18.5214 35.5949 19.7323 40.1153C22.2654 49.5581 32.0641 55.1717 41.5704 52.6308C46.2153 51.3899 50.088 48.4058 52.4689 44.2399C54.8031 40.1567 55.4173 35.4235 54.2064 30.9031C52.0828 22.9967 44.8698 17.7731 37.0015 17.7731V17.779Z" fill="#0D0D0D"/>
<path d="M66.888 27.1322C67.2039 27.1322 67.4964 27.1086 67.8884 26.76C68.45 26.2163 68.526 26.1395 68.6489 26.1395C68.918 26.1395 69.9944 27.2032 69.9944 27.475C69.9944 27.6995 69.5088 28.5386 69.4562 28.71C69.3099 29.5727 69.3099 31.4518 69.3099 31.8713C69.3099 33.1536 69.4562 38.8322 69.4562 39.9668C69.4562 40.3095 69.4562 41.0304 69.0174 41.4736C68.7015 41.7927 68.1867 42.0409 67.9937 42.0409C67.5549 42.0409 67.5315 41.4736 67.5315 41.3259C67.5315 40.735 67.5315 40.5577 66.8471 40.5577H65.4548C64.9166 40.5577 64.7703 40.9004 64.7703 41.2491C64.7703 41.3259 64.7703 42.3127 64.7469 42.4604C64.6709 43.1045 63.8636 43.92 63.5009 43.92C62.8398 43.92 62.8398 43.3527 62.8398 43.1282C62.8398 42.9036 62.9393 41.3259 62.9393 40.9832C63.0095 38.3654 63.0621 36.6104 63.0621 29.7027C63.0621 29.1827 62.9861 26.89 62.9861 26.4409C62.9861 26.3168 62.9861 26.1691 63.1323 26.1691C63.302 26.1691 63.7173 26.4172 64.2321 26.7127C64.8405 27.085 65.0628 27.1322 65.5776 27.1322H66.8997H66.888ZM66.8412 39.9195C67.0635 39.9195 67.4262 39.9195 67.5725 39.6004C67.6485 39.4291 67.6485 37.4495 67.6485 36.9354C67.6485 36.0432 67.6485 34.4654 67.5725 34.2941C67.4964 34.1463 67.3268 33.975 67.0109 33.975H65.3495C64.7118 33.975 64.7118 34.17 64.7118 36.1968C64.7118 36.8882 64.7118 39.4291 64.8113 39.6063C64.8873 39.8545 65.1564 39.9254 65.3963 39.9254H66.8354L66.8412 39.9195ZM65.4489 27.8C65.25 27.8 65.0804 27.8236 64.9341 27.995C64.7411 28.2432 64.7411 31.7709 64.7411 32.3382C64.7411 32.9054 64.7411 33.325 65.4255 33.325H66.9173C67.0635 33.325 67.4262 33.325 67.5783 33.0059C67.6778 32.7577 67.6778 30.1932 67.6778 29.7027C67.6778 27.9241 67.6778 27.8 66.9699 27.8H65.4548H65.4489ZM79.4012 32.6868C80.5478 32.6868 80.6706 32.6868 81.0392 32.0722C81.2088 31.8004 81.6476 31.0854 82.0395 31.0854C82.1624 31.0854 82.8234 31.6291 83.0165 31.7768C84.1631 32.74 84.2391 32.7872 84.2391 32.9882C84.2391 33.3309 83.7243 33.3309 82.917 33.3309H73.7091C72.5567 33.3309 71.5563 33.3545 71.0942 33.4077C70.9947 33.4077 70.632 33.455 70.556 33.455C70.4799 33.455 70.4331 33.4077 70.3629 33.3072L69.8715 32.74C69.8052 32.6572 69.7721 32.6001 69.7721 32.5686C69.7721 32.5213 69.7955 32.5213 69.8481 32.5213C70.047 32.5213 70.8017 32.5922 70.9479 32.5922C71.802 32.6395 73.0247 32.6927 73.832 32.6927H74.7855C75.5168 32.6927 75.5168 32.1963 75.5168 31.9068C75.5168 31.3868 75.5168 30.0277 75.4934 29.5845C75.47 28.97 75.078 28.97 74.8323 28.97C74.0484 28.97 72.8024 28.97 72.0945 29.0172C72.0185 29.0172 71.6558 29.0882 71.5797 29.0882C71.4803 29.0882 71.4335 29.0172 71.3574 28.9168L70.8894 28.3495C70.79 28.2491 70.7666 28.2254 70.7666 28.2018C70.7666 28.1545 70.8134 28.1309 70.866 28.1309C71.0357 28.1309 71.7962 28.2018 71.9424 28.2313C72.8199 28.255 73.8963 28.3082 74.7504 28.3082C75.0195 28.3082 75.4817 28.3082 75.4817 27.6877C75.4817 26.5768 75.4349 25.6372 75.3354 24.9518C75.312 24.8277 75.236 24.3609 75.236 24.2604C75.236 24.1127 75.3354 24.0654 75.429 24.0654C75.4524 24.0654 78.0206 24.81 78.0206 25.1232C78.0206 25.2472 77.4824 25.6668 77.4122 25.7672C77.2425 25.9622 77.2425 26.4822 77.2425 26.7541C77.2425 28.2372 77.2425 28.3082 78.2955 28.3082C79.3485 28.3082 79.6644 28.3318 79.9803 27.865C80.4366 27.2229 80.7291 26.9018 80.8578 26.9018C81.1737 26.9018 83.0106 28.4795 83.0106 28.7041C83.0106 28.9759 82.8878 28.9759 81.8114 28.9759H77.9738C77.2893 28.9759 77.2893 29.3718 77.2893 29.9627C77.2893 31.9836 77.2893 32.2082 77.3595 32.3795C77.4824 32.6986 77.8217 32.6986 77.9972 32.6986H79.3895L79.4012 32.6868ZM80.3313 37.5972C79.6001 37.5972 79.5006 37.8218 79.5006 38.4836C79.5006 39.4468 79.6235 43.6423 79.6235 44.505C79.6235 46.4313 77.6228 46.5022 77.2776 46.5022C77.0319 46.5022 76.9383 46.4786 76.9383 46.2068C76.9383 45.5627 76.9383 45.22 75.9087 44.8477C75.663 44.7709 74.5866 44.505 74.3936 44.4282C74.2941 44.3809 74.0016 44.2332 74.0016 44.1327C74.0016 44.0322 74.1479 43.9613 74.3702 43.9613C74.4696 43.9613 76.6926 44.2332 77.1314 44.2332C77.5467 44.2332 77.6696 44.1859 77.769 43.8372C77.8158 43.6422 77.8392 43.3409 77.8392 40.8C77.8392 37.6386 77.8158 37.5913 77.0085 37.5913H75.002C74.4638 37.5913 72.779 37.5913 71.9249 37.6386C71.8547 37.6622 71.4861 37.7154 71.4101 37.7154C71.3106 37.7154 71.2638 37.6386 71.1878 37.5382L70.7256 36.9709C70.6262 36.8704 70.6028 36.8468 70.6028 36.8232C70.6028 36.7759 70.6496 36.7463 70.7022 36.7463C70.8719 36.7463 71.6324 36.8232 71.7786 36.8409C72.9018 36.8941 74.0016 36.9177 75.1248 36.9177H77.0319C77.7398 36.9177 77.7398 36.4982 77.7398 36.0786C77.7398 35.7595 77.6169 34.105 77.6169 34.0518C77.6169 33.8568 77.6637 33.7563 77.81 33.7563C77.9562 33.7563 80.2553 34.4241 80.2553 34.9204C80.2553 35.0682 79.6469 35.535 79.5942 35.6591C79.5474 35.7595 79.4714 35.9309 79.4714 36.3977C79.4714 36.8172 79.6937 36.9177 79.9335 36.9177C80.226 36.9177 80.3021 36.8172 80.9105 35.9841C81.1328 35.6591 81.4019 35.34 81.671 35.34C81.7938 35.34 81.8933 35.4168 82.6479 36.0313C83.7945 36.9709 83.8706 37.0477 83.8706 37.2427C83.8706 37.5854 83.3792 37.5854 82.5777 37.5854H80.3313V37.5972ZM74.8557 42.8563C74.3175 42.8563 74.1713 42.5845 73.6565 41.6982C72.9954 40.6109 71.8722 39.7954 71.4803 39.5236C71.3808 39.4468 70.6028 38.8795 70.6028 38.8559C70.6028 38.7318 70.7256 38.7082 70.7958 38.7082C71.2872 38.7082 75.7098 39.5709 75.7098 41.9641C75.7098 42.2595 75.4173 42.8504 74.8557 42.8504V42.8563Z" fill="#0D0D0D"/>
<path d="M96.0692 30.7788C96.7536 30.7788 96.7536 30.3593 96.7536 29.9634C96.7536 29.7388 96.7536 27.5702 96.7068 27.4225C96.5606 27.0738 96.2447 27.0738 95.999 27.0738H91.2371C89.0843 27.0738 88.3764 27.1211 88.16 27.1211C88.0605 27.1447 87.7212 27.192 87.6218 27.192C87.5457 27.192 87.4989 27.1211 87.4287 27.0206L86.9373 26.4534C86.8905 26.3766 86.8379 26.3293 86.8379 26.3056C86.8379 26.2584 86.8613 26.2347 86.9373 26.2347C87.0836 26.2347 87.8382 26.3056 88.0137 26.3293C89.213 26.3766 90.2133 26.4002 91.3599 26.4002H103.844C105.014 26.4002 105.137 26.4002 105.628 25.6852C106.213 24.8225 106.236 24.7988 106.435 24.7988C106.804 24.7988 108.489 26.477 108.489 26.7252C108.489 27.0738 108.027 27.0738 107.196 27.0738H99.275C98.4735 27.0738 98.4735 27.2452 98.4735 28.8525C98.4735 30.5779 98.4735 30.7788 99.2282 30.7788H104.288C104.827 30.7788 105.072 30.5779 105.166 30.4597C105.359 30.2116 105.581 29.9929 105.681 29.9929C105.997 29.9929 107.904 31.4229 107.904 31.7184C107.904 31.9429 107.834 31.9666 107.219 32.3625C106.804 32.6343 106.804 32.7584 106.804 33.9697C106.804 34.9093 106.851 39.0043 106.851 39.8434C106.851 43.8675 106.851 44.3343 106.681 44.7302C106.289 45.6934 104.774 46.0361 104.505 46.0361C104.16 46.0361 104.043 45.8884 103.891 45.4452C103.545 44.5056 102.867 44.1097 102.422 43.9856C102.299 43.962 101.861 43.8379 101.861 43.7375C101.861 43.6606 101.954 43.6606 102.007 43.6606C102.153 43.6606 104.452 43.6606 104.522 43.637C104.938 43.5602 104.961 43.0934 104.985 42.5734C105.031 40.7238 105.107 34.4779 105.107 32.1379C105.107 31.5175 104.739 31.4229 104.353 31.4229H99.2223C98.4677 31.4229 98.4677 31.4938 98.4677 33.7925C98.4677 35.4234 98.4677 42.3843 98.5613 43.6134C98.5847 43.8143 98.6081 44.2575 98.6081 44.4288C98.6081 45.7111 97.4088 45.7643 97.2626 45.7643C96.5313 45.7643 96.5313 45.3447 96.5313 45.1261C96.5313 44.8543 96.6308 43.7197 96.6308 43.4952C96.7536 40.9011 96.777 38.7325 96.777 37.5979C96.777 37.0306 96.777 31.9961 96.7536 31.8956C96.6776 31.6238 96.5079 31.4288 96.0458 31.4288H91.1084C90.4005 31.4288 90.3771 31.8484 90.3771 32.392C90.4005 34.342 90.4005 42.9516 90.4005 44.7066C90.4005 45.6166 89.447 45.9416 88.862 45.9416C88.3472 45.9416 88.3472 45.3506 88.3472 45.1793C88.3472 44.807 88.5168 42.467 88.5168 41.947V32.4452C88.5168 32.1202 88.3238 30.4716 88.3238 30.2234C88.3238 30.052 88.3472 29.9752 88.5168 29.9752C88.8093 29.9752 89.7395 30.3475 90.1782 30.5425C90.4941 30.6902 90.7164 30.7906 91.1084 30.7906H96.0692V30.7788ZM94.9694 35.6125C94.9694 36.2802 94.5072 36.6229 94.1153 36.6229C93.6531 36.6229 93.5069 36.2506 93.2846 35.7306C92.9921 34.992 92.3544 34.2061 91.8162 33.5856C91.7168 33.4852 91.5237 33.2666 91.5237 33.2134C91.5237 33.1897 91.5471 33.1661 91.5705 33.1425C91.67 33.1188 94.9635 33.9106 94.9635 35.6125H94.9694ZM94.9694 40.9956C94.9694 41.687 94.3844 42.1775 93.969 42.1775C93.5303 42.1775 93.4308 41.9056 93.0915 40.9425C92.8224 40.2038 92.1146 39.1166 91.8221 38.697C91.7226 38.5493 91.5998 38.4016 91.5998 38.3543C91.5998 38.3306 91.6232 38.2834 91.6466 38.2834C92.0619 38.1829 94.9694 39.3175 94.9694 41.0016V40.9956ZM103.844 40.9188C103.844 41.5866 103.329 41.9352 103.037 41.9352C102.721 41.9352 102.545 41.687 102.229 41.1434C101.691 40.2275 100.814 39.3647 100.053 38.6734C99.8073 38.4488 99.7605 38.4252 99.8366 38.3779C100.176 38.1534 103.844 38.8211 103.844 40.9188ZM103.645 35.7897C103.645 36.4752 103.183 36.8711 102.838 36.8711C102.422 36.8711 102.276 36.552 102.077 36.0793C101.714 35.1929 100.784 34.2297 100.416 33.8338C100.316 33.7334 99.8541 33.3375 99.8541 33.2902C99.8541 33.2429 99.9068 33.2193 99.9302 33.2193C100.468 32.9947 103.645 33.8102 103.645 35.7897Z" fill="#0D0D0D"/>
<path d="M129.133 29.1473C129.449 29.1473 129.648 29.0942 129.894 28.7278C130.063 28.456 130.186 28.3319 130.309 28.3319C130.408 28.3319 132.707 29.8623 132.707 30.5064C132.707 30.8492 132.462 31.0028 131.97 31.0264C130.947 31.056 130.8 31.056 130.332 31.1978C130.063 31.2746 128.694 31.9896 128.694 31.9423C128.741 31.8655 129.449 30.4355 129.449 30.1401C129.449 29.7973 129.203 29.7973 128.987 29.7973H114.935C114.52 29.7973 114.327 29.7973 114.274 30.3646C114.028 32.9823 112.566 33.8923 111.858 33.8923C111.489 33.8923 111.004 33.5969 111.004 32.9764C111.004 32.356 111.32 32.0901 111.759 31.6705C112.42 31.056 112.905 30.3351 113.227 29.0587C113.274 28.8637 113.473 27.7469 113.543 27.7469C113.642 27.7469 113.666 27.8473 114.034 28.6628C114.204 29.0587 114.28 29.1592 114.888 29.1592H120.188C120.943 29.1592 120.943 28.7869 120.943 27.6523C120.943 27.1087 120.92 25.5546 120.844 25.0878C120.82 24.9637 120.697 24.3492 120.697 24.2251C120.697 24.1483 120.721 24.0537 120.943 24.0537C121.236 24.0537 123.459 24.3964 123.459 25.0405C123.459 25.1883 123.336 25.3123 123.236 25.3833C123.213 25.4069 122.868 25.7023 122.844 25.7555C122.721 25.9505 122.721 27.3569 122.721 28.2019C122.721 28.7692 122.721 29.1651 123.476 29.1651H129.121L129.133 29.1473ZM125.325 40.7233C126.009 40.7233 126.325 40.7233 126.524 40.6523C126.77 40.5283 127.548 39.3701 127.793 39.3701C128.086 39.3701 129.648 40.6287 129.648 41.0246C129.648 41.3969 129.209 41.3969 128.326 41.3969H123.412C122.675 41.3969 122.628 41.7692 122.628 42.4073C122.628 44.381 122.628 44.576 123.359 44.576H128.027C129.075 44.576 129.273 44.5523 129.42 44.4046C129.642 44.1564 130.473 42.8978 130.765 42.8978C131.034 42.8978 132.819 44.5051 132.819 44.8951C132.819 45.2378 132.403 45.2378 131.549 45.2378H115.444C113.291 45.2378 112.589 45.2851 112.367 45.2851C112.268 45.3146 111.905 45.3619 111.829 45.3619C111.753 45.3619 111.706 45.2851 111.636 45.1905L111.144 44.6233C111.045 44.5228 111.045 44.4992 111.045 44.4755C111.045 44.4283 111.068 44.3987 111.115 44.3987C111.285 44.3987 112.045 44.4992 112.215 44.4992C113.414 44.5701 114.414 44.5701 115.561 44.5701H120.153C120.885 44.5701 120.885 44.1742 120.885 43.5833C120.885 41.5092 120.885 41.3851 120.177 41.3851H118.369C116.216 41.3851 115.508 41.4323 115.263 41.4323C115.193 41.456 114.824 41.5033 114.754 41.5033C114.684 41.5033 114.631 41.4323 114.531 41.3319L114.069 40.7646C113.97 40.6642 113.97 40.6405 113.97 40.6169C113.97 40.5696 113.993 40.546 114.046 40.546C114.216 40.546 114.97 40.6464 115.122 40.6464C116.322 40.7173 117.322 40.7173 118.469 40.7173H120.177C120.885 40.7173 120.885 40.2742 120.885 39.8014C120.885 37.0892 120.838 36.8883 119.931 36.8883H119.077C118.392 36.8883 118.346 37.2842 118.322 37.556C118.275 37.881 118.199 38.5664 117.222 38.5664C116.76 38.5664 116.462 38.4423 116.462 37.8987C116.462 37.6269 116.585 36.4687 116.585 36.2442C116.608 35.4287 116.632 34.6133 116.632 34.2173C116.632 33.7033 116.608 32.8583 116.561 32.3678C116.538 32.2437 116.392 31.6764 116.392 31.5523C116.392 31.381 116.515 31.3278 116.608 31.3278C116.953 31.3278 117.468 31.5523 117.854 31.7237C118.492 31.9955 118.907 31.9955 119.124 31.9955H124.839C125.085 31.9955 125.424 31.9955 125.746 31.576C125.992 31.2569 126.038 31.2037 126.208 31.2037C126.501 31.2037 127.922 32.3146 127.922 32.6573C127.922 32.8583 127.846 32.9292 127.407 33.3251C127.214 33.5201 127.214 33.8923 127.214 34.6073C127.214 34.9264 127.261 36.4333 127.261 36.7523C127.261 37.9342 126.214 37.9342 126.114 37.9342C125.576 37.9342 125.5 37.686 125.43 37.3196C125.331 36.8764 125.015 36.8764 124.746 36.8764H122.06C121.984 36.8764 121.838 36.8764 121.838 37.0005C121.838 37.1483 121.885 37.1719 122.546 37.4437C123.283 37.7392 123.33 37.8869 123.33 38.011C123.33 38.1587 122.792 38.5783 122.745 38.7023C122.698 38.8264 122.622 38.9978 122.622 39.7896C122.622 40.3805 122.721 40.7055 123.406 40.7055H125.313L125.325 40.7233ZM118.311 27.5223C118.311 28.3378 117.726 28.4855 117.503 28.4855C117.111 28.4855 117.035 28.3378 116.304 26.9551C116.234 26.8073 115.643 25.7201 114.789 25.1055C114.713 25.0523 114.496 24.881 114.496 24.8573C114.496 24.8101 114.666 24.7805 114.689 24.7805C115.081 24.7805 115.766 24.9283 116.544 25.2769C117.105 25.5487 118.305 26.2164 118.305 27.5223H118.311ZM119.071 32.6514C118.433 32.6514 118.287 32.8523 118.287 33.5437C118.287 35.7183 118.287 35.7655 118.387 35.9605C118.509 36.256 118.849 36.256 119.071 36.256H124.787C125.494 36.256 125.617 36.2323 125.617 33.786C125.617 32.9469 125.594 32.6514 124.833 32.6514H119.065H119.071ZM129.233 26.2873C129.233 26.6064 128.917 26.6301 128.571 26.6301C128.31 26.6458 127.708 26.9255 126.764 27.4692C125.933 27.936 125.026 28.3083 124.81 28.3083C124.786 28.3083 124.734 28.3083 124.734 28.2846C124.734 28.261 125.687 27.0023 125.834 26.7305C126.618 25.4246 126.711 25.3005 126.857 24.8278C126.98 24.4851 127.004 24.4083 127.15 24.4083C127.442 24.4083 127.981 24.8751 128.226 25.076C128.688 25.4955 129.227 25.9623 129.227 26.2873H129.233Z" fill="#0D0D0D"/>
</svg>
