<svg width="150" height="70" viewBox="0 0 150 70" fill="none" xmlns="http://www.w3.org/2000/svg">
<path d="M63.9439 26C60.827 26 58.8876 28.1359 58.8876 31.1754C58.8876 32.5719 59.2339 33.722 59.9266 34.5434C60.5499 35.2828 61.5196 35.7757 62.6971 35.94L64.4287 36.1864C65.1214 36.3507 65.3984 36.4329 65.6755 36.8436C65.9525 37.1722 66.0911 37.6651 66.0911 38.2401C66.0911 39.6367 65.1906 40.376 63.5283 40.376C62.2815 40.376 60.9655 40.0474 60.0651 38.9795L58.3335 41.1153C59.788 42.8404 61.3811 43.3333 63.5976 43.3333C66.5759 43.3333 69.0002 41.4439 69.0002 38.158C69.0002 36.6793 68.6538 35.3649 67.8919 34.5434C67.2686 33.8041 66.4374 33.3934 65.1214 33.2291L63.3898 32.9826C62.7664 32.8183 62.3508 32.654 62.0738 32.2433C61.7967 31.9147 61.6582 31.4218 61.6582 31.0111C61.6582 29.861 62.4201 28.8752 63.8746 28.8752C64.7751 28.8752 65.8833 28.9573 66.7837 30.0253L68.5846 27.9716C67.3378 26.575 65.8833 26 63.9439 26Z" fill="black"/>
<path d="M81.6666 26H78.3526H75.6473H72.3333V29.3333H75.6473V43.3333H78.3526V29.3333H81.6666V26Z" fill="black"/>
<path d="M93.5454 27.8805C92.5065 26.7358 91.3291 26 89.6668 26C88.0046 26 86.7579 26.6541 85.7882 27.8805C84.2645 29.6792 84.3337 31.805 84.3337 34.6667C84.3337 37.6918 84.3337 39.8176 85.7882 41.4528C86.7579 42.5975 88.0046 43.3333 89.6668 43.3333C91.3291 43.3333 92.5758 42.6792 93.5454 41.4528C94.9999 39.6541 94.9999 37.5283 94.9999 34.6667C94.9999 31.6415 94.9999 29.5157 93.5454 27.8805ZM91.4676 39.4906C91.1213 39.9811 90.4287 40.3899 89.6668 40.3899C88.905 40.3899 88.2123 40.0629 87.866 39.4906C87.312 38.7547 87.1734 38.0189 87.1734 34.7484C87.1734 31.478 87.312 30.6604 87.866 30.0063C88.2123 29.3522 88.905 29.0252 89.6668 29.0252C90.4287 29.0252 91.1213 29.3522 91.4676 29.9245C92.0217 30.6604 92.1602 31.3962 92.1602 34.6667C92.1602 37.9371 91.9524 38.7547 91.4676 39.4906Z" fill="black"/>
<path d="M101.667 26H99V43.3333H101.667V26Z" fill="black"/>
<path d="M112.895 39.9245C112.544 40.434 111.842 40.8585 111.07 40.8585C110.299 40.8585 109.597 40.5189 109.246 39.9245C108.685 39.1604 108.544 38.3962 108.544 35C108.544 31.6038 108.685 30.7547 109.246 30.0755C109.597 29.566 110.299 29.1415 111.07 29.1415C111.842 29.1415 112.544 29.4811 112.895 30.0755L115 27.9528C113.948 26.7642 112.755 26 111.07 26C109.386 26 108.123 26.6792 107.141 27.9528C105.597 29.8208 105.667 32.0283 105.667 35C105.667 38.1415 105.667 40.3491 107.141 42.0472C108.123 43.2358 109.386 44 111.07 44C112.755 44 114.018 43.3208 115 42.0472" fill="black"/>
<path d="M43.981 41.613L38.0397 37.8241L35 39.8009L43.981 45.5667L52.962 39.7185L49.9223 37.7417L43.981 41.613Z" fill="black"/>
<path d="M52.962 34.9412L49.9223 32.9644L43.981 36.8357L38.0397 32.9644L35 34.9412L43.981 40.7893L52.962 34.9412Z" fill="black"/>
<path d="M44 36L35 30.0426L44 24L53 30.0426L44 36ZM41.0231 30.0426L44 32L46.9077 30.0426L44 28.0851L41.0231 30.0426Z" fill="black"/>
</svg>
