<?xml version="1.0" encoding="utf-8"?>
<!-- Generator: Adobe Illustrator 27.7.0, SVG Export Plug-In . SVG Version: 6.00 Build 0)  -->
<svg version="1.1" id="Ebene_1" xmlns="http://www.w3.org/2000/svg" xmlns:xlink="http://www.w3.org/1999/xlink" x="0px" y="0px"
	 viewBox="0 0 115.8 25.9" style="enable-background:new 0 0 115.8 25.9;" xml:space="preserve">
<style type="text/css">
	.st0{stroke:#000000;stroke-width:4.2;stroke-linecap:round;}
</style>
<path d="M42.1,2.3c-4.5,0-7.3,2.6-7.3,6.3c0,1.7,0.5,3.1,1.5,4.1c0.9,0.9,2.3,1.5,4,1.7l2.5,0.3c1,0.2,1.4,0.3,1.8,0.8
	c0.4,0.4,0.6,1,0.6,1.7c0,1.7-1.3,2.6-3.7,2.6c-1.8,0-3.7-0.4-5-1.7L34,20.7c2.1,2.1,4.4,2.7,7.6,2.7c4.3,0,7.8-2.3,7.8-6.3
	c0-1.8-0.5-3.4-1.6-4.4c-0.9-0.9-2.1-1.4-4-1.6l-2.5-0.3c-0.9-0.2-1.5-0.4-1.9-0.9c-0.4-0.4-0.6-1-0.6-1.5c0-1.4,1.1-2.6,3.2-2.6
	c1.3,0,2.9,0.1,4.2,1.4l2.6-2.5C47,3,44.9,2.3,42.1,2.3z"/>
<polygon points="67.4,2.3 62.5,2.3 58.5,2.3 53.6,2.3 53.6,6.3 58.5,6.3 58.5,23.1 62.5,23.1 62.5,6.3 67.4,6.3 "/>
<path d="M84.5,4.6c-1.5-1.4-3.2-2.3-5.6-2.3c-2.4,0-4.2,0.8-5.6,2.3c-2.2,2.2-2.1,4.8-2.1,8.3c0,3.7,0,6.3,2.1,8.3
	c1.4,1.4,3.2,2.3,5.6,2.3c2.4,0,4.2-0.8,5.6-2.3c2.1-2.2,2.1-4.8,2.1-8.3C86.6,9.2,86.6,6.6,84.5,4.6z M81.5,18.8
	c-0.5,0.6-1.5,1.1-2.6,1.1c-1.1,0-2.1-0.4-2.6-1.1c-0.8-0.9-1-1.8-1-5.8s0.2-5,1-5.8C76.8,6.4,77.8,6,78.9,6c1.1,0,2.1,0.4,2.6,1.1
	c0.8,0.9,1,1.8,1,5.8S82.2,17.9,81.5,18.8z"/>
<rect x="92.5" y="2.3" width="4" height="20.8"/>
<path d="M112.8,18.8c-0.5,0.6-1.5,1.1-2.6,1.1c-1.1,0-2.1-0.4-2.6-1.1c-0.8-0.9-1-1.8-1-5.8s0.2-5,1-5.8c0.5-0.6,1.5-1.1,2.6-1.1
	c1.1,0,2.1,0.4,2.6,1.1l3-2.5c-1.5-1.4-3.2-2.3-5.6-2.3c-2.4,0-4.2,0.8-5.6,2.3c-2.2,2.2-2.1,4.8-2.1,8.3c0,3.7,0,6.3,2.1,8.3
	c1.4,1.4,3.2,2.3,5.6,2.3c2.4,0,4.2-0.8,5.6-2.3"/>
<g>
	<g>
		<polygon points="13,21.1 4.4,16.5 0,18.9 13,25.9 26,18.8 21.6,16.4 		"/>
	</g>
</g>
<g>
	<polygon points="26,13 21.6,10.6 13,15.3 4.4,10.6 0,13 13,20.1 	"/>
</g>
<path d="M13,14.2L0,7.2l13-7.1l13,7.1L13,14.2z M8.7,7.2L13,9.5l4.2-2.3l-4.2-2.3L8.7,7.2z"/>
</svg>
