<?xml version="1.0" encoding="utf-8"?>
<!-- Generator: Adobe Illustrator 27.2.0, SVG Export Plug-In . SVG Version: 6.00 Build 0)  -->
<svg version="1.1" id="Layer_1" xmlns="http://www.w3.org/2000/svg" xmlns:xlink="http://www.w3.org/1999/xlink" x="0px" y="0px"
	 viewBox="0 0 807.4 143.9" style="enable-background:new 0 0 807.4 143.9;" xml:space="preserve">
<path d="M192.1,0c-13,0-20.9,6.4-20.9,19.9c0,36.2,2.3,49.8,2.3,69.4c0,5.7-0.3,13.1-8.5,13.1s-8.5-7.3-8.5-13.1
	c0-19.7,2.3-33.2,2.3-69.4c0-13.5-8.5-19.9-22.1-19.9C117.8,0,109,8.3,109,61.4s18.5,82.5,56,82.5s56-29.5,56-82.5S213.6,0,192.1,0
	L192.1,0z"/>
<path d="M54.4,0C28.7,0,3.5,16.2,3.5,43.9c0,37,54.6,41.2,54.6,55c0,3.2-1.2,5.4-7.1,5.4c-12.6,0-17.4-14.9-29.9-14.5
	C13.5,90.1,0,103.8,0,112.3c0,13.8,16.5,31.5,46.9,31.5S101,131.1,101,99.5c0-42.1-54-42.4-54-56.6c0-2.7,2.6-5.6,6.8-5.6
	c10.8,0,11.4,6.6,26.5,10.2c7,1.7,18.4-6.8,21.3-20.4C104.7,13,84,0,54.4,0L54.4,0z"/>
<path d="M666.5,101.6c-12.5,0-18.6,2.6-34.1,2.6c-11,0-12-4.9-12-7.1c0-3.9,3.3-5.9,11.5-5.9c22,0,38.4,5.6,38.4-19
	S651,53.8,635.5,53.8c-11.1,0-15-1.6-15-7.2s3.3-6.5,14.7-6.5c11.9,0,16,1.4,27.6,1.4s18.7-5.1,18.7-18.9c0-14.8-2.3-22.6-38.7-22.6
	c-44,0-56.6,3.5-56.6,70.2s4.4,73.7,45,73.7c47.5,0,52.7-9.8,52.7-23.8S677.4,101.6,666.5,101.6L666.5,101.6z"/>
<path d="M362.2,0c-38.1,0-31.2,48.3-47.5,48.3l0,0c-16.2,0-9.4-48.3-47.5-48.3c-25.2,0-37,34.2-37,79.5c0,56,2.2,64.4,29,64.4
	c14.6,0,19.4-11.2,19.4-20c0-24-3.3-31.8-3.3-41c0-4.3,1.7-7.1,5.5-7.1c14.8,0,5.8,48.5,33.9,48.5v-0.1l0,0.1
	c28.1,0,19.1-48.5,33.9-48.5c3.8,0,5.5,2.8,5.5,7.1c0,9.2-3.3,17-3.3,41c0,8.9,4.8,20,19.4,20c26.8,0,29-8.4,29-64.4
	C399.2,34.3,387.4,0,362.2,0L362.2,0z"/>
<path d="M540.1,0c-38.1,0-31.2,48.3-47.5,48.3l0,0c-16.2,0-9.3-48.3-47.5-48.3c-25.2,0-37,34.2-37,79.5c0,56,2.2,64.4,29,64.4
	c14.6,0,19.4-11.2,19.4-20c0-24-3.3-31.8-3.3-41c0-4.3,1.7-7.1,5.5-7.1c14.8,0,5.8,48.5,33.9,48.5v-0.1l0,0.1
	c28.1,0,19.1-48.5,33.9-48.5c3.8,0,5.5,2.8,5.5,7.1c0,9.2-3.3,17-3.3,41c0,8.9,4.8,20,19.4,20c26.8,0,29-8.4,29-64.4
	C577.1,34.3,565.3,0,540.1,0L540.1,0z"/>
<path d="M783.6,79c0-10.5,16.8-8.8,16.8-36.4S783.6,0,740.3,0c-30.3,0-49.5,3-49.5,65.7s3.5,78.2,26,78.2s20-19.5,20-30
	s-3.3-23.8,5-24.3c7.6-0.5,8.6,6.2,11.7,16.4c5,16.6,14.8,37.9,35.5,37.9c14.6,0,18.4-10.3,18.4-20C807.4,107.8,783.6,88.5,783.6,79
	L783.6,79z M744.8,61.2c-13.2-0.2-13-6.8-13-14.3s-0.4-14.3,11.9-14.3c9.4,0,17,4.1,17,12.8S758,61.4,744.8,61.2L744.8,61.2z"/>
</svg>
