<?xml version="1.0" encoding="utf-8"?>
<!-- Generator: Adobe Illustrator 27.6.1, SVG Export Plug-In . SVG Version: 6.00 Build 0)  -->
<svg version="1.1" id="Layer_1" xmlns="http://www.w3.org/2000/svg" xmlns:xlink="http://www.w3.org/1999/xlink" x="0px" y="0px"
	 viewBox="0 0 807.4 257.7" style="enable-background:new 0 0 807.4 257.7;" xml:space="preserve">
<path d="M192.1,56.9c-13,0-20.9,6.4-20.9,19.9c0,36.2,2.3,49.8,2.3,69.4c0,5.7-0.3,13.1-8.5,13.1s-8.5-7.3-8.5-13.1
	c0-19.7,2.3-33.2,2.3-69.4c0-13.5-8.5-19.9-22.1-19.9c-18.9,0-27.7,8.3-27.7,61.4s18.5,82.5,56,82.5s56-29.5,56-82.5
	S213.6,56.9,192.1,56.9L192.1,56.9z"/>
<path d="M54.4,56.9c-25.7,0-50.9,16.2-50.9,43.9c0,37,54.6,41.2,54.6,55c0,3.2-1.2,5.4-7.1,5.4c-12.6,0-17.4-14.9-29.9-14.5
	C13.5,147,0,160.7,0,169.2c0,13.8,16.5,31.5,46.9,31.5S101,188,101,156.4c0-42.1-54-42.4-54-56.6c0-2.7,2.6-5.6,6.8-5.6
	c10.8,0,11.4,6.6,26.5,10.2c7,1.7,18.4-6.8,21.3-20.4C104.7,69.9,84,56.9,54.4,56.9L54.4,56.9z"/>
<path d="M666.5,158.5c-12.5,0-18.6,2.6-34.1,2.6c-11,0-12-4.9-12-7.1c0-3.9,3.3-5.9,11.5-5.9c22,0,38.4,5.6,38.4-19
	s-19.3-18.4-34.8-18.4c-11.1,0-15-1.6-15-7.2c0-5.6,3.3-6.5,14.7-6.5c11.9,0,16,1.4,27.6,1.4s18.7-5.1,18.7-18.9
	c0-14.8-2.3-22.6-38.7-22.6c-44,0-56.6,3.5-56.6,70.2s4.4,73.7,45,73.7c47.5,0,52.7-9.8,52.7-23.8S677.4,158.5,666.5,158.5
	L666.5,158.5z"/>
<path d="M362.2,56.9c-38.1,0-31.2,48.3-47.5,48.3l0,0c-16.2,0-9.4-48.3-47.5-48.3c-25.2,0-37,34.2-37,79.5c0,56,2.2,64.4,29,64.4
	c14.6,0,19.4-11.2,19.4-20c0-24-3.3-31.8-3.3-41c0-4.3,1.7-7.1,5.5-7.1c14.8,0,5.8,48.5,33.9,48.5v-0.1v0.1
	c28.1,0,19.1-48.5,33.9-48.5c3.8,0,5.5,2.8,5.5,7.1c0,9.2-3.3,17-3.3,41c0,8.9,4.8,20,19.4,20c26.8,0,29-8.4,29-64.4
	C399.2,91.2,387.4,56.9,362.2,56.9L362.2,56.9z"/>
<path d="M540.1,56.9c-38.1,0-31.2,48.3-47.5,48.3l0,0c-16.2,0-9.3-48.3-47.5-48.3c-25.2,0-37,34.2-37,79.5c0,56,2.2,64.4,29,64.4
	c14.6,0,19.4-11.2,19.4-20c0-24-3.3-31.8-3.3-41c0-4.3,1.7-7.1,5.5-7.1c14.8,0,5.8,48.5,33.9,48.5v-0.1v0.1
	c28.1,0,19.1-48.5,33.9-48.5c3.8,0,5.5,2.8,5.5,7.1c0,9.2-3.3,17-3.3,41c0,8.9,4.8,20,19.4,20c26.8,0,29-8.4,29-64.4
	C577.1,91.2,565.3,56.9,540.1,56.9L540.1,56.9z"/>
<path d="M783.6,135.9c0-10.5,16.8-8.8,16.8-36.4s-16.8-42.6-60.1-42.6c-30.3,0-49.5,3-49.5,65.7s3.5,78.2,26,78.2s20-19.5,20-30
	s-3.3-23.8,5-24.3c7.6-0.5,8.6,6.2,11.7,16.4c5,16.6,14.8,37.9,35.5,37.9c14.6,0,18.4-10.3,18.4-20
	C807.4,164.7,783.6,145.4,783.6,135.9L783.6,135.9z M744.8,118.1c-13.2-0.2-13-6.8-13-14.3s-0.4-14.3,11.9-14.3
	c9.4,0,17,4.1,17,12.8S758,118.3,744.8,118.1L744.8,118.1z"/>
</svg>
