<svg xmlns="http://www.w3.org/2000/svg" width="150" height="70" fill="none" viewBox="0 0 150 70"><path fill="#000" d="M50.3649 26.1732C48.8514 26.1732 47.9317 26.9304 47.9317 28.5274C47.9317 32.81 48.1995 34.4189 48.1995 36.7376C48.1995 37.4119 48.1645 38.2874 47.2099 38.2874C46.2552 38.2874 46.2203 37.4237 46.2203 36.7376C46.2203 34.407 46.488 32.81 46.488 28.5274C46.488 26.9304 45.4985 26.1732 43.9151 26.1732C41.7147 26.1732 40.6902 27.1551 40.6902 33.437C40.6902 39.7188 42.844 43.1969 47.2099 43.1969C51.5757 43.1969 53.7296 39.707 53.7296 33.437C53.7296 27.167 52.868 26.1732 50.3649 26.1732Z"/><path fill="#000" d="M34.3334 26.1732C31.3413 26.1732 28.4075 28.0897 28.4075 31.3667C28.4075 35.7439 34.7642 36.2407 34.7642 37.8733C34.7642 38.2519 34.6245 38.5121 33.9376 38.5121C32.4706 38.5121 31.9118 36.7494 30.4565 36.7967C29.5717 36.8322 28 38.453 28 39.4585C28 41.0911 29.921 43.1851 33.4602 43.1851C36.9995 43.1851 39.7587 41.6826 39.7587 37.9443C39.7587 32.9638 33.4719 32.9283 33.4719 31.2484C33.4719 30.929 33.7746 30.5859 34.2636 30.5859C35.5209 30.5859 35.5908 31.3667 37.3488 31.7926C38.1637 31.9937 39.4909 30.9881 39.8286 29.3792C40.1895 27.7111 37.7795 26.1732 34.3334 26.1732Z"/><path fill="#000" d="M105.596 38.1927C104.141 38.1927 103.431 38.5003 101.626 38.5003C100.345 38.5003 100.229 37.9206 100.229 37.6604C100.229 37.199 100.613 36.9624 101.568 36.9624C104.129 36.9624 106.038 37.6249 106.038 34.7146C106.038 31.8044 103.792 32.5379 101.987 32.5379C100.695 32.5379 100.241 32.3486 100.241 31.6861C100.241 31.0236 100.625 30.9171 101.952 30.9171C103.337 30.9171 103.815 31.0828 105.165 31.0828C106.516 31.0828 107.342 30.4794 107.342 28.8468C107.342 27.096 107.075 26.1732 102.837 26.1732C97.7142 26.1732 96.2473 26.5873 96.2473 34.478C96.2473 42.3688 96.7596 43.1969 101.486 43.1969C107.016 43.1969 107.622 42.0375 107.622 40.3813C107.622 38.7251 106.865 38.1927 105.596 38.1927Z"/><path fill="#000" d="M70.1684 26.1732C65.7327 26.1732 66.536 31.8872 64.6383 31.8872C62.7522 31.8872 63.5439 26.1732 59.1082 26.1732C56.1743 26.1732 54.8005 30.2191 54.8005 35.5782C54.8005 42.2032 55.0567 43.1969 58.1768 43.1969C59.8766 43.1969 60.4354 41.8719 60.4354 40.8308C60.4354 37.9916 60.0512 37.0688 60.0512 35.9805C60.0512 35.4718 60.2491 35.1405 60.6915 35.1405C62.4146 35.1405 61.3668 40.8782 64.6383 40.8782C67.9098 40.8782 66.862 35.1405 68.585 35.1405C69.0274 35.1405 69.2253 35.4718 69.2253 35.9805C69.2253 37.0688 68.8411 37.9916 68.8411 40.8308C68.8411 41.8837 69.4 43.1969 71.0998 43.1969C74.2199 43.1969 74.476 42.2032 74.476 35.5782C74.476 30.231 73.1022 26.1732 70.1684 26.1732Z"/><path fill="#000" d="M90.88 26.1732C86.4443 26.1732 87.2476 31.8872 85.3499 31.8872C83.4639 31.8872 84.2672 26.1732 79.8199 26.1732C76.886 26.1732 75.5122 30.2191 75.5122 35.5782C75.5122 42.2032 75.7683 43.1969 78.8885 43.1969C80.5882 43.1969 81.1471 41.8719 81.1471 40.8308C81.1471 37.9916 80.7629 37.0688 80.7629 35.9805C80.7629 35.4718 80.9608 35.1405 81.4032 35.1405C83.1263 35.1405 82.0785 40.8782 85.3499 40.8782C88.6214 40.8782 87.5736 35.1405 89.2967 35.1405C89.7391 35.1405 89.937 35.4718 89.937 35.9805C89.937 37.0688 89.5528 37.9916 89.5528 40.8308C89.5528 41.8837 90.1116 43.1969 91.8114 43.1969C94.9316 43.1969 95.1877 42.2032 95.1877 35.5782C95.1877 30.231 93.8139 26.1732 90.88 26.1732Z"/><path fill="#000" d="M119.229 35.5191C119.229 34.2769 121.185 34.478 121.185 31.2129C121.185 27.9477 119.229 26.1732 114.188 26.1732C110.66 26.1732 108.425 26.5281 108.425 33.9457C108.425 41.3632 108.833 43.1969 111.452 43.1969C114.072 43.1969 113.781 40.89 113.781 39.6478C113.781 38.4057 113.396 36.8322 114.363 36.7731C115.247 36.7139 115.364 37.5066 115.725 38.7132C116.307 40.6771 117.448 43.1969 119.858 43.1969C121.558 43.1969 122 41.9784 122 40.8308C122 38.9262 119.229 36.643 119.229 35.5191ZM114.712 33.4133C113.175 33.3896 113.198 32.6089 113.198 31.7216C113.198 30.8343 113.152 30.0299 114.584 30.0299C115.678 30.0299 116.563 30.5149 116.563 31.5441C116.563 32.5734 116.249 33.437 114.712 33.4133Z"/></svg>