<svg xmlns="http://www.w3.org/2000/svg" width="150" height="70" fill="none" viewBox="0 0 150 70"><path fill="#000" d="M11.5578 27H1L11.8068 47.177L17.0465 37.3315L11.5578 27ZM11.805 45.7072L5.7941 34.4867L9.38531 27.7377H11.1661L16.2614 37.3315L11.805 45.7072Z"/><path fill="#000" d="M21.4229 27.7093L16.2319 27.7169L15.7131 27H22.5718L19.1529 33.4236L18.7577 32.7408L21.4229 27.7093Z"/><path fill="#000" d="M33.2795 32.0162C33.2169 31.88 33.2586 31.7798 33.384 31.7798H34.2788C34.353 31.7687 34.4286 31.7862 34.4922 31.8294C34.5559 31.8726 34.6036 31.9388 34.6269 32.0162L36.9578 37.2085H36.9787L39.3113 32.0162C39.3341 31.9383 39.3816 31.8718 39.4454 31.8285C39.5092 31.7851 39.5851 31.7679 39.6595 31.7798H40.5543C40.6795 31.7798 40.7284 31.88 40.6587 32.0162L37.1528 39.6751C37.111 39.7753 37.0692 39.8093 36.9961 39.8093H36.9334C36.8603 39.8093 36.8185 39.7753 36.7785 39.6751L33.2795 32.0162Z"/><path fill="#000" d="M48.0415 31.6267C49.0295 31.6498 49.9699 32.0924 50.6612 32.8599C51.3525 33.6273 51.7396 34.6584 51.7396 35.7323C51.7396 36.8061 51.3525 37.8372 50.6612 38.6047C49.9699 39.3721 49.0295 39.8148 48.0415 39.8379C45.9386 39.8379 44.3145 38.0409 44.3145 35.7332C44.3145 33.4256 45.9386 31.6267 48.0415 31.6267ZM48.0415 38.6499C49.5612 38.6499 50.5813 37.2824 50.5813 35.7332C50.5813 34.1841 49.5612 32.8146 48.0415 32.8146C46.5217 32.8146 45.5121 34.1708 45.5121 35.7332C45.5121 37.2957 46.5322 38.6557 48.0415 38.6557V38.6499Z"/><path fill="#000" d="M60.7734 38.5441C60.9475 38.5441 60.9823 38.5895 60.9823 38.7693V39.4597C60.9823 39.6488 60.9405 39.698 60.7734 39.698H56.505C56.3484 39.698 56.2979 39.6412 56.2979 39.4597V32.0165C56.2979 31.8368 56.3484 31.78 56.505 31.78H57.2762C57.4311 31.78 57.4833 31.8368 57.4833 32.0165V38.5441H60.7734Z"/><path fill="#000" d="M69.2895 31.78C69.4635 31.78 69.5071 31.8368 69.5071 32.0165V32.7409C69.5071 32.9301 69.4549 32.9793 69.2895 32.9793H67.1866V39.4597C67.1866 39.6488 67.1448 39.698 66.9777 39.698H66.2083C66.0517 39.698 65.9994 39.6412 65.9994 39.4597V32.9793H63.8862C63.7312 32.9793 63.679 32.9225 63.679 32.7409V32.0165C63.679 31.8368 63.7312 31.78 63.8862 31.78H69.2895Z"/><path fill="#000" d="M74.9107 39.4597C74.9107 39.6488 74.8585 39.698 74.7035 39.698H73.9359C73.7792 39.698 73.7288 39.6412 73.7288 39.4597V32.0165C73.7288 31.8368 73.7792 31.78 73.9359 31.78H76.6533C77.8718 31.78 79.2139 32.4345 79.2139 34.2674C79.2139 35.7163 78.3713 36.4276 77.4122 36.6545L79.1527 39.4029C79.268 39.5921 79.1945 39.698 78.9964 39.698H78.1642C78.0896 39.6968 78.0165 39.6742 77.9526 39.6323C77.8887 39.5904 77.8362 39.5309 77.8005 39.4597L76.0718 36.7453H74.9055L74.9107 39.4597ZM76.5349 35.5574C77.6594 35.5574 78.0128 34.99 78.0128 34.2447C78.0128 33.4994 77.6647 32.9566 76.5349 32.9566H74.9107V35.5574H76.5349Z"/><path fill="#000" d="M87.0807 31.6267C88.0687 31.6498 89.0088 32.0924 89.7005 32.8599C90.3914 33.6273 90.7782 34.6584 90.7782 35.7323C90.7782 36.8061 90.3914 37.8372 89.7005 38.6047C89.0088 39.3721 88.0687 39.8148 87.0807 39.8379C84.9778 39.8379 83.353 38.0409 83.353 35.7332C83.353 33.4256 84.9778 31.6267 87.0807 31.6267ZM87.0807 38.6499C88.6003 38.6499 89.62 37.2824 89.62 35.7332C89.62 34.1841 88.6003 32.8146 87.0807 32.8146C85.5604 32.8146 84.5546 34.1765 84.5546 35.7389C84.5546 37.3013 85.5712 38.6557 87.0807 38.6557V38.6499Z"/><path fill="#000" d="M96.5429 34.5397H96.522V39.4576C96.522 39.6468 96.4701 39.696 96.3146 39.696H95.5541C95.38 39.696 95.3367 39.6392 95.3367 39.4576V31.778C95.3367 31.6986 95.3661 31.6646 95.4496 31.6646H95.5022C95.5363 31.6643 95.5703 31.6735 95.6013 31.6914C95.6315 31.7092 95.657 31.7351 95.6763 31.7667L100.319 36.9363H100.339V32.0183C100.339 31.8386 100.381 31.7818 100.547 31.7818H101.307C101.481 31.7818 101.527 31.8386 101.527 32.0183V39.6884C101.527 39.7774 101.495 39.8114 101.412 39.8114H101.36C101.325 39.8117 101.291 39.8027 101.261 39.7852C101.231 39.7677 101.204 39.7422 101.186 39.7111L96.5429 34.5397Z"/><path fill="#000" d="M114.521 31.78C116.624 31.78 118.197 33.4313 118.197 35.739C118.197 38.0467 116.63 39.698 114.521 39.698H111.911C111.754 39.698 111.704 39.6412 111.704 39.4597V32.0165C111.704 31.8368 111.754 31.78 111.911 31.78H114.521ZM112.897 32.9566V38.5214H114.521C116.031 38.5214 116.999 37.2882 116.999 35.739C116.999 34.1898 116.031 32.9509 114.521 32.9509L112.897 32.9566Z"/><path fill="#000" d="M129.231 39.4594C129.294 39.5956 129.252 39.6977 129.127 39.6977H128.232C128.158 39.7069 128.083 39.6883 128.02 39.645C127.956 39.6016 127.909 39.5362 127.884 39.4594L127.217 37.9669H123.865L123.199 39.4594C123.178 39.538 123.131 39.6056 123.066 39.6494C123.003 39.6932 122.926 39.7103 122.851 39.6977H121.957C121.832 39.6977 121.783 39.5956 121.852 39.4594L125.35 31.8024C125.391 31.7003 125.433 31.6663 125.506 31.6663H125.569C125.642 31.6663 125.684 31.7003 125.726 31.8024L129.231 39.4594ZM125.546 34.1196L124.34 36.7791H126.755L125.557 34.1196H125.546Z"/><path fill="#000" d="M137.611 31.78C137.785 31.78 137.831 31.8368 137.831 32.0165V32.7409C137.831 32.9301 137.778 32.9793 137.611 32.9793H135.509V39.4597C135.509 39.6488 135.467 39.698 135.302 39.698H134.53C134.375 39.698 134.323 39.6412 134.323 39.4597V32.9793H132.21C132.053 32.9793 132.001 32.9225 132.001 32.7409V32.0165C132.001 31.8368 132.053 31.78 132.21 31.78H137.611Z"/><path fill="#000" d="M147.971 39.4594C148.034 39.5956 147.992 39.6977 147.867 39.6977H146.972C146.897 39.7065 146.823 39.6878 146.76 39.6446C146.696 39.6013 146.648 39.5359 146.624 39.4594L145.959 37.9669H142.61L141.943 39.4594C141.922 39.5385 141.875 39.6065 141.81 39.6504C141.746 39.6943 141.669 39.7111 141.594 39.6977H140.7C140.575 39.6977 140.526 39.5956 140.596 39.4594L144.093 31.8024C144.135 31.7003 144.176 31.6663 144.249 31.6663H144.312C144.385 31.6663 144.427 31.7003 144.467 31.8024L147.971 39.4594ZM144.286 34.1196L143.078 36.7791H145.492L144.296 34.1196H144.286Z"/></svg>