<svg xmlns="http://www.w3.org/2000/svg" width="150" height="70" fill="none" viewBox="0 0 150 70"><path fill="#000" d="M62.7484 28.3818L58.9549 42.4277H56.3918L53.3161 32.1752L50.2403 42.4277H47.6772L43.7812 28.3818H46.5494L49.01 38.4292L52.0858 28.3818H54.6489L57.7246 38.4292L60.1852 28.3818H62.7484ZM71.8731 35.251V42.4277H69.515V40.8898C68.7973 42.0176 67.7721 42.6328 66.2342 42.6328C65.3115 42.6328 64.4913 42.4277 63.8761 41.9151C63.261 41.4025 62.9534 40.5823 62.9534 39.557C62.9534 37.7116 64.0812 36.6863 66.2342 36.3787L68.2847 36.0712C69.1049 35.9686 69.515 35.5585 69.515 34.9434C69.515 34.6358 69.31 34.3282 69.0024 34.1232C68.6948 33.9181 68.2847 33.8156 67.7721 33.8156C67.1569 33.8156 66.6443 33.9181 66.2342 34.2257C65.9266 34.4308 65.6191 34.8409 65.5165 35.3535H63.1585C63.3635 34.2257 63.8761 33.303 64.6963 32.6878C65.5165 32.0727 66.6443 31.7651 67.9771 31.7651C69.2074 31.7651 70.2327 32.0727 70.8478 32.5853C71.5655 33.303 71.8731 34.1232 71.8731 35.251ZM69.4125 38.0191V37.5065C69.2074 37.609 68.6948 37.7116 68.0797 37.8141L67.0544 38.0191C65.9266 38.1217 65.414 38.6343 65.414 39.4545C65.414 40.2747 65.9266 40.6848 66.9519 40.6848C67.6696 40.6848 68.2847 40.4797 68.7973 39.9671C69.2074 39.352 69.4125 38.7368 69.4125 38.0191ZM79.87 40.1722V42.4277H78.2296C77.1019 42.4277 76.2817 42.2227 75.769 41.71C75.2564 41.1974 75.0514 40.3772 75.0514 39.0444V34.3282H73.2059V32.0727H75.0514V29.7146L77.512 28.9969V31.9702H79.5625V34.3282H77.512V38.9419C77.512 39.352 77.6145 39.6595 77.8195 39.8646C78.0246 40.0696 78.3322 40.1722 78.8448 40.1722H79.87ZM90.4301 38.0191H83.2534C83.2534 38.8393 83.5609 39.4545 83.971 39.8646C84.4837 40.2747 85.0988 40.4797 85.8165 40.4797C86.9443 40.4797 87.6619 40.0696 87.9695 39.2494H90.3276C90.02 40.2747 89.5074 41.0949 88.6872 41.71C87.867 42.3252 86.8417 42.5302 85.714 42.5302C84.2786 42.5302 83.1508 42.0176 82.2281 41.0949C81.3054 40.1722 80.7928 38.8393 80.7928 37.1989C80.7928 35.456 81.3054 34.1232 82.2281 33.2005C83.1508 32.2777 84.3811 31.7651 85.8165 31.7651C87.1493 31.7651 88.2771 32.1752 89.0973 33.0979C90.02 34.0207 90.4301 35.251 90.4301 36.7888V38.0191ZM83.2534 36.1737H87.9695C87.9695 35.456 87.7645 34.9434 87.3544 34.6358C86.9443 34.2257 86.4316 34.1232 85.714 34.1232C84.9963 34.1232 84.4837 34.3282 84.0736 34.6358C83.6635 34.9434 83.3559 35.456 83.2534 36.1737ZM98.222 31.9702V34.3282H97.6069C95.7614 34.3282 94.9412 35.3535 94.9412 37.3015V42.3252H92.4806V32.0727H94.9412V33.6106C95.4538 32.4828 96.3766 31.9702 97.6069 31.9702H98.222ZM107.962 39.1469C107.962 40.2747 107.552 41.0949 106.732 41.71C105.911 42.3252 104.886 42.6328 103.656 42.6328C102.426 42.6328 101.4 42.3252 100.478 41.8126C99.5548 41.1974 99.0422 40.3772 99.0422 39.1469H101.503C101.605 39.6595 101.81 39.9671 102.22 40.2747C102.631 40.4797 103.143 40.6848 103.758 40.6848C104.989 40.6848 105.604 40.2747 105.604 39.557C105.604 39.2494 105.501 39.0444 105.194 38.9419C104.989 38.8393 104.476 38.6343 103.656 38.5318C102.631 38.3267 101.913 38.2242 101.4 38.0191C100.067 37.609 99.3498 36.6863 99.3498 35.251C99.3498 34.1232 99.7599 33.303 100.478 32.7904C101.298 32.2777 102.22 31.9702 103.451 31.9702C104.681 31.9702 105.706 32.2777 106.527 32.8929C107.347 33.508 107.757 34.3282 107.859 35.456H105.399C105.296 34.5333 104.681 34.0207 103.553 34.0207C103.041 34.0207 102.631 34.1232 102.323 34.3282C102.015 34.5333 101.913 34.8409 101.913 35.1484C101.913 35.456 102.118 35.7636 102.426 35.8661C102.733 35.9686 103.348 36.1737 104.168 36.2762C105.091 36.3787 105.809 36.5838 106.321 36.6863C107.244 36.9939 107.962 37.9166 107.962 39.1469ZM118.932 35.7636V42.4277H116.471V35.9686C116.471 35.3535 116.266 34.9434 115.959 34.6358C115.651 34.3282 115.139 34.1232 114.523 34.1232C113.806 34.1232 113.191 34.3282 112.883 34.8409C112.473 35.3535 112.268 35.9686 112.268 36.7888V42.3252H109.807V28.0742H112.268V33.508C112.576 32.8929 112.986 32.4828 113.498 32.1752C114.011 31.8676 114.626 31.7651 115.446 31.7651C116.574 31.7651 117.497 32.0727 118.112 32.7904C118.624 33.508 118.932 34.5333 118.932 35.7636ZM130.415 38.0191H123.238C123.238 38.8393 123.546 39.4545 123.956 39.8646C124.468 40.2747 125.084 40.4797 125.801 40.4797C126.929 40.4797 127.647 40.0696 127.954 39.2494H130.312C130.005 40.2747 129.492 41.0949 128.672 41.71C127.852 42.3252 126.826 42.5302 125.699 42.5302C124.263 42.5302 123.136 42.0176 122.213 41.0949C121.29 40.1722 120.778 38.8393 120.778 37.1989C120.778 35.456 121.29 34.1232 122.213 33.2005C123.136 32.2777 124.366 31.7651 125.801 31.7651C127.134 31.7651 128.262 32.1752 129.082 33.0979C130.005 34.0207 130.415 35.251 130.415 36.7888V38.0191ZM123.238 36.1737H127.954C127.954 35.456 127.749 34.9434 127.339 34.6358C126.929 34.2257 126.416 34.1232 125.699 34.1232C124.981 34.1232 124.468 34.3282 124.058 34.6358C123.648 34.9434 123.341 35.456 123.238 36.1737ZM142 28.0742V42.3252H139.54V40.7873C139.232 41.2999 138.822 41.8126 138.207 42.1201C137.592 42.4277 136.976 42.6328 136.259 42.6328C134.926 42.6328 133.798 42.1201 132.875 41.1974C132.055 40.2747 131.543 38.9419 131.543 37.1989C131.543 35.5585 131.953 34.2257 132.875 33.303C133.798 32.3803 134.823 31.8676 136.259 31.8676C136.976 31.8676 137.592 31.9702 138.207 32.2777C138.822 32.5853 139.232 32.8929 139.54 33.4055V28.0742H142ZM139.54 37.1989C139.54 36.1737 139.232 35.456 138.719 34.8409C138.207 34.3282 137.592 34.0207 136.771 34.0207C135.951 34.0207 135.336 34.3282 134.823 34.8409C134.311 35.3535 134.106 36.1737 134.106 37.0964C134.106 38.0191 134.311 38.8393 134.823 39.352C135.336 39.8646 135.951 40.1722 136.771 40.1722C137.489 40.1722 138.207 39.8646 138.719 39.352C139.232 38.9419 139.54 38.2242 139.54 37.1989Z"/><path fill="#000" d="M22.3535 21C14.4591 21 8 27.4591 8 35.3535C8 43.2479 14.4591 49.707 22.3535 49.707C30.2479 49.707 36.707 43.2479 36.707 35.3535C36.707 27.4591 30.2479 21 22.3535 21ZM34.2464 34.1232H30.3504C30.1454 30.4323 29.2227 27.049 27.7873 24.6909C31.2732 26.5363 33.7338 30.0222 34.2464 34.1232ZM21.1232 23.6656V34.1232H16.8172C17.0222 28.8944 19.0727 24.8959 21.1232 23.6656ZM21.1232 36.5838V47.0413C19.0727 45.9136 17.0222 41.8126 16.8172 36.5838H21.1232ZM23.5838 47.0413V36.5838H27.8898C27.6848 41.8126 25.6343 45.811 23.5838 47.0413ZM23.5838 34.1232V23.6656C25.6343 24.7934 27.6848 28.8944 27.8898 34.1232H23.5838ZM17.0222 24.6909C15.5868 27.049 14.5616 30.4323 14.4591 34.1232H10.4606C10.9732 30.0222 13.4338 26.5363 17.0222 24.6909ZM10.4606 36.5838H14.3565C14.5616 40.2747 15.4843 43.658 16.9197 46.0161C13.4338 44.1706 10.9732 40.6848 10.4606 36.5838ZM27.6848 46.0161C29.1201 43.658 30.1454 40.2747 30.2479 36.5838H34.1439C33.7338 40.6848 31.2732 44.1706 27.6848 46.0161Z"/></svg>