<svg fill="none" height="120" viewBox="0 0 567 120" width="567" xmlns="http://www.w3.org/2000/svg"><g fill="#000"><path d="m229.068 30.7-16.044 58.8h-10.752l-12.936-42.924-12.936 42.924h-10.836l-16.044-58.8h11.592l10.332 41.916 12.684-41.916h10.752l12.684 42 10.332-42zm38.119 28.812v29.988h-10.164v-6.3c-2.912 4.816-7.448 7.224-13.608 7.224-3.808 0-7.112-1.064-9.912-3.192-2.688-2.184-4.032-5.404-4.032-9.66 0-7.504 4.592-11.928 13.776-13.272l8.736-1.26c3.36-.504 5.04-2.016 5.04-4.536 0-1.456-.672-2.548-2.016-3.276-1.288-.784-2.996-1.176-5.124-1.176-2.744 0-4.844.532-6.3 1.596-1.4 1.064-2.38 2.66-2.94 4.788h-9.912c.84-4.872 2.996-8.568 6.468-11.088 3.528-2.576 8.064-3.864 13.608-3.864 5.208 0 9.24 1.176 12.096 3.528 2.856 2.296 4.284 5.796 4.284 10.5zm-10.416 11.844v-2.352c-1.008.392-2.856.812-5.544 1.26l-4.368.672c-4.648.616-6.972 2.548-6.972 5.796 0 3.36 2.072 5.04 6.216 5.04 3.192 0 5.74-1.008 7.644-3.024 2.016-2.016 3.024-4.48 3.024-7.392zm43.456 8.904v9.24h-6.804c-4.592 0-7.952-.98-10.08-2.94-2.128-2.016-3.192-5.712-3.192-11.088v-19.824h-7.896v-9.408h7.896v-9.744l10.416-2.856v12.6h8.652v9.408h-8.652v19.404c0 1.792.364 3.108 1.092 3.948.784.84 2.156 1.26 4.116 1.26zm44.42-9.24h-30.156c.112 3.36 1.12 5.936 3.024 7.728 1.96 1.792 4.592 2.688 7.896 2.688 4.704 0 7.756-1.652 9.156-4.956h9.744c-1.12 4.424-3.472 7.868-7.056 10.332-3.584 2.408-7.672 3.612-12.264 3.612-5.88 0-10.78-1.96-14.7-5.88s-5.88-9.38-5.88-16.38c0-7.112 1.988-12.656 5.964-16.632 3.976-4.032 8.932-6.048 14.868-6.048 5.6 0 10.22 1.876 13.86 5.628 3.696 3.696 5.544 8.904 5.544 15.624zm-29.904-7.644h19.656c0-2.8-.84-4.984-2.52-6.552-1.624-1.568-3.864-2.352-6.72-2.352-2.8 0-5.124.756-6.972 2.268s-2.996 3.724-3.444 6.636zm62.357-17.64v10.164h-2.772c-7.504 0-11.256 4.144-11.256 12.432v21.168h-10.416v-43.26h10.332v6.384c2.072-4.592 5.824-6.888 11.256-6.888zm40.696 30.324c0 4.704-1.764 8.26-5.292 10.668-3.584 2.464-7.924 3.696-13.02 3.696s-9.52-1.204-13.272-3.612-5.796-6.132-6.132-11.172h10.5c.336 2.016 1.316 3.556 2.94 4.62 1.68 1.064 3.836 1.596 6.468 1.596 5.04 0 7.56-1.568 7.56-4.704 0-1.288-.532-2.184-1.596-2.688-1.008-.56-3.136-1.12-6.384-1.68-4.2-.728-7.364-1.428-9.492-2.1-5.768-1.736-8.652-5.544-8.652-11.424 0-4.648 1.624-8.092 4.872-10.332 3.304-2.296 7.42-3.444 12.348-3.444 5.264 0 9.52 1.288 12.768 3.864 3.304 2.52 5.096 6.104 5.376 10.752h-10.164c-.448-3.976-3.08-5.964-7.896-5.964-2.296 0-4.06.448-5.292 1.344-1.232.84-1.848 1.988-1.848 3.444s.644 2.492 1.932 3.108c1.344.616 3.724 1.176 7.14 1.68 3.696.56 6.664 1.148 8.904 1.764 5.488 1.568 8.232 5.096 8.232 10.584zm45.973-14.448v27.888h-10.416v-26.964c0-2.464-.7-4.368-2.1-5.712s-3.388-2.016-5.964-2.016c-3.024 0-5.376 1.008-7.056 3.024-1.624 1.96-2.436 4.732-2.436 8.316v23.352h-10.416v-59.724h10.416v22.848c1.4-2.408 3.108-4.2 5.124-5.376s4.676-1.764 7.98-1.764c4.872 0 8.568 1.4 11.088 4.2 2.52 2.744 3.78 6.72 3.78 11.928zm47.822 9.408h-30.156c.112 3.36 1.12 5.936 3.024 7.728 1.96 1.792 4.592 2.688 7.896 2.688 4.704 0 7.756-1.652 9.156-4.956h9.744c-1.12 4.424-3.472 7.868-7.056 10.332-3.584 2.408-7.672 3.612-12.264 3.612-5.88 0-10.78-1.96-14.7-5.88s-5.88-9.38-5.88-16.38c0-7.112 1.988-12.656 5.964-16.632 3.976-4.032 8.932-6.048 14.868-6.048 5.6 0 10.22 1.876 13.86 5.628 3.696 3.696 5.544 8.904 5.544 15.624zm-29.904-7.644h19.656c0-2.8-.84-4.984-2.52-6.552-1.624-1.568-3.864-2.352-6.72-2.352-2.8 0-5.124.756-6.972 2.268s-2.996 3.724-3.444 6.636zm78.316-33.6v59.724h-10.248v-6.636c-1.176 2.352-2.996 4.2-5.46 5.544-2.408 1.344-5.152 2.016-8.232 2.016-5.656 0-10.304-1.96-13.944-5.88-3.64-3.976-5.46-9.548-5.46-16.716 0-7.056 1.82-12.544 5.46-16.464s8.288-5.88 13.944-5.88c2.912 0 5.572.588 7.98 1.764 2.408 1.12 4.256 2.688 5.544 4.704v-22.176zm-10.164 38.052c0-4.144-1.12-7.364-3.36-9.66-2.184-2.296-4.844-3.444-7.98-3.444-3.304 0-6.02 1.176-8.148 3.528-2.072 2.296-3.108 5.488-3.108 9.576 0 4.032 1.036 7.224 3.108 9.576 2.128 2.296 4.844 3.444 8.148 3.444 3.136 0 5.796-1.148 7.98-3.444 2.24-2.352 3.36-5.544 3.36-9.576z"/><path d="m60 0c-33.1385 0-60 26.8615-60 60s26.8615 60 60 60 60-26.8615 60-60-26.8615-60-60-60zm49.523 54.8885h-16.4653c-.7269-15.6-4.7423-29.5039-10.8115-39.4039 14.873 7.4539 25.5118 22.1308 27.2768 39.4039zm-54.6345-43.6039v43.6154h-18.127c1.1308-21.8769 9.3923-38.7115 18.127-43.6154zm0 53.8269v43.6155c-8.7347-4.915-16.9962-21.7501-18.127-43.6155zm10.223 43.6035v-43.615h18.127c-1.1308 21.8769-9.3923 38.712-18.127 43.615zm0-53.8265v-43.6039c8.7462 4.9039 16.9962 21.75 18.127 43.6154h-18.127zm-27.3577-39.4039c-6.0692 9.9116-10.0846 23.8154-10.8115 39.4154h-16.4654c1.7654-17.2846 12.4039-31.9615 27.2769-39.4154zm-27.2769 49.6269h16.4654c.7269 15.6 4.7539 29.5039 10.8115 39.4155-14.873-7.4655-25.5115-22.1424-27.2769-39.4155zm71.7693 39.4035c6.0692-9.9112 10.0846-23.815 10.8115-39.415h16.4653c-1.765 17.2846-12.4038 31.9615-27.2768 39.415z"/></g></svg>