<?xml version="1.0" encoding="utf-8"?>
<!-- Generator: Adobe Illustrator 26.0.2, SVG Export Plug-In . SVG Version: 6.00 Build 0)  -->
<svg version="1.1" id="Ebene_1" xmlns="http://www.w3.org/2000/svg" xmlns:xlink="http://www.w3.org/1999/xlink" x="0px" y="0px"
	 viewBox="0 0 130.7 28" style="enable-background:new 0 0 130.7 28;" xml:space="preserve">
<g>
	<path d="M53.4,7.2l-3.7,13.7h-2.5l-3-10l-3,10h-2.5L34.9,7.2h2.7l2.4,9.8l3-9.8h2.5l3,9.8l2.4-9.8L53.4,7.2z M62.3,13.9v7H60v-1.5
		c-0.7,1.1-1.7,1.7-3.2,1.7c-0.9,0-1.7-0.2-2.3-0.7c-0.6-0.5-0.9-1.3-0.9-2.3c0-1.8,1.1-2.8,3.2-3.1l2-0.3c0.8-0.1,1.2-0.5,1.2-1.1
		c0-0.3-0.2-0.6-0.5-0.8c-0.3-0.2-0.7-0.3-1.2-0.3c-0.6,0-1.1,0.1-1.5,0.4c-0.3,0.2-0.6,0.6-0.7,1.1h-2.3c0.2-1.1,0.7-2,1.5-2.6
		c0.8-0.6,1.9-0.9,3.2-0.9c1.2,0,2.2,0.3,2.8,0.8C62,12,62.3,12.8,62.3,13.9L62.3,13.9z M59.9,16.6v-0.5c-0.2,0.1-0.7,0.2-1.3,0.3
		l-1,0.2c-1.1,0.1-1.6,0.6-1.6,1.4c0,0.8,0.5,1.2,1.5,1.2c0.7,0,1.3-0.2,1.8-0.7C59.7,17.9,59.9,17.3,59.9,16.6z M70.1,18.7v2.2
		h-1.6c-1.1,0-1.9-0.2-2.4-0.7c-0.5-0.5-0.7-1.3-0.7-2.6V13h-1.8v-2.2h1.8V8.5l2.4-0.7v2.9h2V13h-2v4.5c0,0.4,0.1,0.7,0.3,0.9
		c0.2,0.2,0.5,0.3,1,0.3H70.1z M80.4,16.6h-7c0,0.8,0.3,1.4,0.7,1.8c0.5,0.4,1.1,0.6,1.8,0.6c1.1,0,1.8-0.4,2.1-1.2h2.3
		c-0.3,1-0.8,1.8-1.6,2.4c-0.8,0.6-1.8,0.8-2.9,0.8c-1.4,0-2.5-0.5-3.4-1.4c-0.9-0.9-1.4-2.2-1.4-3.8c0-1.7,0.5-3,1.4-3.9
		c0.9-0.9,2.1-1.4,3.5-1.4c1.3,0,2.4,0.4,3.2,1.3c0.9,0.9,1.3,2.1,1.3,3.6L80.4,16.6z M73.4,14.8H78c0-0.7-0.2-1.2-0.6-1.5
		c-0.4-0.4-0.9-0.5-1.6-0.5c-0.7,0-1.2,0.2-1.6,0.5C73.8,13.6,73.5,14.1,73.4,14.8L73.4,14.8z M88,10.7V13h-0.6
		c-1.8,0-2.6,1-2.6,2.9v4.9h-2.4V10.8h2.4v1.5c0.5-1.1,1.4-1.6,2.6-1.6L88,10.7z M97.5,17.7c0,1.1-0.4,1.9-1.2,2.5
		c-0.8,0.6-1.8,0.9-3,0.9s-2.2-0.3-3.1-0.8c-0.9-0.6-1.4-1.4-1.4-2.6h2.4c0.1,0.5,0.3,0.8,0.7,1.1c0.4,0.2,0.9,0.4,1.5,0.4
		c1.2,0,1.8-0.4,1.8-1.1c0-0.3-0.1-0.5-0.4-0.6c-0.2-0.1-0.7-0.3-1.5-0.4c-1-0.2-1.7-0.3-2.2-0.5c-1.3-0.4-2-1.3-2-2.7
		c0-1.1,0.4-1.9,1.1-2.4c0.8-0.5,1.7-0.8,2.9-0.8c1.2,0,2.2,0.3,3,0.9c0.8,0.6,1.2,1.4,1.3,2.5h-2.4c-0.1-0.9-0.7-1.4-1.8-1.4
		c-0.5,0-0.9,0.1-1.2,0.3c-0.3,0.2-0.4,0.5-0.4,0.8c0,0.3,0.2,0.6,0.5,0.7c0.3,0.1,0.9,0.3,1.7,0.4c0.9,0.1,1.6,0.3,2.1,0.4
		C96.8,15.6,97.5,16.5,97.5,17.7L97.5,17.7z M108.2,14.4v6.5h-2.4v-6.3c0-0.6-0.2-1-0.5-1.3c-0.3-0.3-0.8-0.5-1.4-0.5
		c-0.7,0-1.3,0.2-1.6,0.7c-0.4,0.5-0.6,1.1-0.6,1.9v5.4h-2.4V6.9h2.4v5.3c0.3-0.6,0.7-1,1.2-1.3s1.1-0.4,1.9-0.4c1.1,0,2,0.3,2.6,1
		C107.9,12.2,108.2,13.2,108.2,14.4L108.2,14.4z M119.4,16.6h-7c0,0.8,0.3,1.4,0.7,1.8c0.5,0.4,1.1,0.6,1.8,0.6
		c1.1,0,1.8-0.4,2.1-1.2h2.3c-0.3,1-0.8,1.8-1.6,2.4c-0.8,0.6-1.8,0.8-2.9,0.8c-1.4,0-2.5-0.5-3.4-1.4c-0.9-0.9-1.4-2.2-1.4-3.8
		c0-1.7,0.5-3,1.4-3.9c0.9-0.9,2.1-1.4,3.5-1.4c1.3,0,2.4,0.4,3.2,1.3c0.9,0.9,1.3,2.1,1.3,3.6L119.4,16.6z M112.4,14.8h4.6
		c0-0.7-0.2-1.2-0.6-1.5c-0.4-0.4-0.9-0.5-1.6-0.5c-0.7,0-1.2,0.2-1.6,0.5C112.8,13.6,112.5,14.1,112.4,14.8L112.4,14.8z M130.7,6.9
		v13.9h-2.4v-1.5c-0.3,0.5-0.7,1-1.3,1.3c-0.6,0.3-1.2,0.5-1.9,0.5c-1.3,0-2.4-0.5-3.3-1.4c-0.8-0.9-1.3-2.2-1.3-3.9
		c0-1.6,0.4-2.9,1.3-3.8s1.9-1.4,3.3-1.4c0.7,0,1.3,0.1,1.9,0.4c0.6,0.3,1,0.6,1.3,1.1V6.9L130.7,6.9z M128.3,15.8
		c0-1-0.3-1.7-0.8-2.3c-0.5-0.5-1.1-0.8-1.9-0.8c-0.8,0-1.4,0.3-1.9,0.8c-0.5,0.5-0.7,1.3-0.7,2.2c0,0.9,0.2,1.7,0.7,2.2
		c0.5,0.5,1.1,0.8,1.9,0.8c0.7,0,1.4-0.3,1.9-0.8C128,17.5,128.3,16.8,128.3,15.8z"/>
	<path d="M14,0C6.3,0,0,6.3,0,14s6.3,14,14,14s14-6.3,14-14S21.7,0,14,0z M25.6,12.8h-3.8c-0.2-3.6-1.1-6.9-2.5-9.2
		C22.7,5.4,25.1,8.8,25.6,12.8z M12.8,2.6v10.2H8.6C8.8,7.7,10.8,3.8,12.8,2.6z M12.8,15.2v10.2c-2-1.1-4-5.1-4.2-10.2H12.8z
		 M15.2,25.4V15.2h4.2C19.2,20.3,17.2,24.2,15.2,25.4z M15.2,12.8V2.6c2,1.1,4,5.1,4.2,10.2L15.2,12.8L15.2,12.8z M8.8,3.6
		c-1.4,2.3-2.4,5.6-2.5,9.2H2.4C2.9,8.8,5.3,5.4,8.8,3.6z M2.4,15.2h3.8c0.2,3.6,1.1,6.9,2.5,9.2C5.3,22.6,2.9,19.2,2.4,15.2z
		 M19.2,24.4c1.4-2.3,2.4-5.6,2.5-9.2h3.8C25.1,19.2,22.7,22.6,19.2,24.4z"/>
</g>
</svg>
