<svg width="40" height="40" viewBox="0 0 40 40" fill="none" xmlns="http://www.w3.org/2000/svg">
<rect width="40" height="40" rx="9" fill="#BBBBBB"/>
<path d="M31.7312 17.1052H27.8418V22.8947H31.7312C33.3439 22.8947 34.6839 21.5731 34.6839 19.9824C34.6839 18.3801 33.3439 17.1052 31.7312 17.1052Z" fill="#564A44"/>
<path d="M31.7312 17.1052H30.8418V22.8947H31.7312C33.3439 22.8947 34.6839 21.5731 34.6839 19.9824C34.6839 18.3801 33.3439 17.1052 31.7312 17.1052Z" fill="#FEFFFF"/>
<path d="M12.7767 12.6894C8.81947 14.9741 7.45782 20.0558 9.74251 24.013C12.0272 27.9702 17.1089 29.3319 21.0661 27.0472C25.0233 24.7625 26.385 19.6808 24.1003 15.7236C21.8156 11.7664 16.7339 10.4047 12.7767 12.6894Z" fill="#FEFFFF"/>
<path d="M9.74221 24.0131C7.45752 20.0559 8.81917 14.9741 12.7764 12.6895L21.0658 27.0472C17.1086 29.3319 12.0269 27.9703 9.74221 24.0131Z" fill="#494645"/>
<circle cx="20.3421" cy="17.1053" r="1.84211" fill="black"/>
</svg>
