<svg xmlns="http://www.w3.org/2000/svg" width="40" height="40" fill="none" viewBox="0 0 40 40"><rect width="40" height="40" fill="#BBB" rx="9"/><path fill="#FCF252" d="M31.7312 17.1052H27.8418V22.8947H31.7312C33.3439 22.8947 34.6839 21.5731 34.6839 19.9824C34.6839 18.3801 33.3439 17.1052 31.7312 17.1052Z"/><path fill="#FEFFFF" d="M25.2105 19.8685C25.2105 15.2991 21.4904 11.579 16.921 11.579C12.3516 11.579 8.6315 15.2991 8.6315 19.8685C8.6315 24.4379 12.3516 28.158 16.921 28.158C21.4904 28.158 25.2104 24.4379 25.2105 19.8685Z"/><path fill="#494645" d="M16.9215 11.5787C21.4908 11.5787 25.2109 15.2988 25.2109 19.8682L8.63199 19.8682C8.63199 15.2988 12.3521 11.5787 16.9215 11.5787Z"/><circle cx="20.342" cy="17.105" r="1.842" fill="#000"/></svg>