<svg width="40" height="40" viewBox="0 0 40 40" fill="none" xmlns="http://www.w3.org/2000/svg">
<rect width="40" height="40" rx="9" fill="#BBBBBB"/>
<path d="M31.7312 17.1052H27.8418V22.8947H31.7312C33.3439 22.8947 34.6839 21.5731 34.6839 19.9824C34.6839 18.3801 33.3439 17.1052 31.7312 17.1052Z" fill="black"/>
<path d="M25.2109 19.8682C25.2109 15.2989 21.4908 11.5788 16.9215 11.5788C12.3521 11.5788 8.63199 15.2989 8.63199 19.8682C8.63199 24.4376 12.3521 28.1577 16.9215 28.1577C21.4908 28.1577 25.2109 24.4376 25.2109 19.8682Z" fill="#008666"/>
<path d="M16.9213 28.1579C12.3519 28.1579 8.63184 24.4378 8.63184 19.8684L25.2108 19.8684C25.2108 24.4378 21.4907 28.1579 16.9213 28.1579Z" fill="#965547"/>
<circle cx="20.3421" cy="17.1053" r="1.84211" fill="black"/>
</svg>
