<svg xmlns="http://www.w3.org/2000/svg" width="40" height="40" fill="none" viewBox="0 0 40 40"><rect width="40" height="40" fill="#BBB" rx="9"/><path fill="#6D6D6D" d="M31.7312 17.1052H27.8418V22.8947H31.7312C33.3439 22.8947 34.6839 21.5731 34.6839 19.9824C34.6839 18.3801 33.3439 17.1052 31.7312 17.1052Z"/><path fill="#5B4628" d="M8.63184 19.8683C8.63184 24.4377 12.3519 28.1578 16.9213 28.1578C21.4907 28.1578 25.2108 24.4377 25.2108 19.8683C25.2108 15.299 21.4907 11.5789 16.9213 11.5789C12.3519 11.5789 8.63184 15.299 8.63184 19.8683Z"/><path fill="#fff" d="M16.9213 28.1579C12.3519 28.1579 8.63184 24.4378 8.63184 19.8684H25.2108C25.2108 24.4378 21.4907 28.1579 16.9213 28.1579Z"/><circle cx="20.342" cy="17.105" r="1.842" fill="#000"/></svg>