<svg width="40" height="40" viewBox="0 0 40 40" fill="none" xmlns="http://www.w3.org/2000/svg">
<rect width="40" height="40" rx="9" fill="#BBBBBB"/>
<g clip-path="url(#clip0_5131_7485)">
<path d="M6.5 20.29C6.5 24.86 10.22 28.58 14.79 28.58C19.36 28.58 23.08 24.86 23.08 20.29C23.08 15.72 19.36 12 14.79 12C10.22 12 6.5 15.72 6.5 20.29Z" fill="#211E1F"/>
<path d="M6.5 20.29C6.5 24.86 10.22 28.58 14.79 28.58C19.36 28.58 23.08 24.86 23.08 20.29C23.08 15.72 19.36 12 14.79 12C10.22 12 6.5 15.72 6.5 20.29Z" fill="#211E1F"/>
<path d="M14.79 13.84C19.05 13.84 22.56 17.07 23.02 21.21C23.05 20.91 23.07 20.6 23.07 20.29C23.08 15.72 19.36 12 14.79 12C10.22 12 6.5 15.72 6.5 20.29C6.5 20.6 6.52 20.91 6.55 21.21C7.02 17.07 10.53 13.84 14.79 13.84Z" fill="#FF0000"/>
<path d="M18.21 19.3699C19.2262 19.3699 20.05 18.5461 20.05 17.5299C20.05 16.5137 19.2262 15.6899 18.21 15.6899C17.1938 15.6899 16.37 16.5137 16.37 17.5299C16.37 18.5461 17.1938 19.3699 18.21 19.3699Z" fill="#454545"/>
<path d="M29.6 17.53H25.71V23.32H29.6C31.21 23.32 32.55 22 32.55 20.41C32.55 18.82 31.21 17.53 29.6 17.53Z" fill="#E1E3E3"/>
</g>
<defs>
<clipPath id="clip0_5131_7485">
<rect width="26.05" height="16.58" fill="white" transform="translate(6.5 12)"/>
</clipPath>
</defs>
</svg>
