<svg width="40" height="40" viewBox="0 0 40 40" fill="none" xmlns="http://www.w3.org/2000/svg">
<rect width="40" height="40" rx="9" fill="#BBBBBB"/>
<g clip-path="url(#clip0_5938_25390)">
<path d="M6.5 20.29C6.5 24.86 10.22 28.58 14.79 28.58C19.36 28.58 23.08 24.86 23.08 20.29C23.08 15.72 19.36 12 14.79 12C10.22 12 6.5 15.72 6.5 20.29Z" fill="black"/>
<path d="M6.5 20.29C6.5 24.86 10.22 28.58 14.79 28.58C19.36 28.58 23.08 24.86 23.08 20.29C23.08 15.72 19.36 12 14.79 12C10.22 12 6.5 15.72 6.5 20.29Z" fill="#008666"/>
<path d="M18.2091 19.37C19.2253 19.37 20.0491 18.5462 20.0491 17.53C20.0491 16.5138 19.2253 15.69 18.2091 15.69C17.1929 15.69 16.3691 16.5138 16.3691 17.53C16.3691 18.5462 17.1929 19.37 18.2091 19.37Z" fill="#FCF252"/>
<path d="M29.6009 17.53H25.7109V23.32H29.6009C31.2109 23.32 32.5509 22 32.5509 20.41C32.5509 18.82 31.2109 17.53 29.6009 17.53Z" fill="black"/>
</g>
<defs>
<clipPath id="clip0_5938_25390">
<rect width="26.05" height="16.58" fill="white" transform="translate(6.5 12)"/>
</clipPath>
</defs>
</svg>
