<svg xmlns="http://www.w3.org/2000/svg" width="40" height="40" fill="none" viewBox="0 0 40 40"><rect width="40" height="40" fill="#BBB" rx="9"/><g clip-path="url(#clip0_7469_12137)"><path fill="#0D0D0D" d="M6.5 20.29C6.5 24.86 10.22 28.58 14.79 28.58C19.36 28.58 23.08 24.86 23.08 20.29C23.08 15.72 19.36 12 14.79 12C10.22 12 6.5 15.72 6.5 20.29Z"/><path fill="#000" d="M6.5 20.29C6.5 24.86 10.22 28.58 14.79 28.58C19.36 28.58 23.08 24.86 23.08 20.29C23.08 15.72 19.36 12 14.79 12C10.22 12 6.5 15.72 6.5 20.29Z"/><path fill="#fff" d="M18.2111 19.3699C19.2273 19.3699 20.0511 18.5461 20.0511 17.5299C20.0511 16.5137 19.2273 15.6899 18.2111 15.6899C17.1949 15.6899 16.3711 16.5137 16.3711 17.5299C16.3711 18.5461 17.1949 19.3699 18.2111 19.3699Z"/><path fill="#F1CB0D" d="M25.7109 23.3202H29.6009C31.2109 23.3202 32.5509 22.0002 32.5509 20.4102H25.7109V23.3202Z"/><path fill="#D44B4A" d="M25.7109 17.5002H29.6009C31.2109 17.5002 32.5509 18.8202 32.5509 20.4102H25.7109V17.5002Z"/></g><defs><clipPath id="clip0_7469_12137"><rect width="26.05" height="16.58" fill="#fff" transform="translate(6.5 12)"/></clipPath></defs></svg>