<svg width="684" height="69" viewBox="0 0 684 69" fill="none" xmlns="http://www.w3.org/2000/svg">
<path d="M274.951 28.75H271.164C270.94 27.6607 270.548 26.7038 269.988 25.8793C269.438 25.0547 268.767 24.3625 267.972 23.8026C267.189 23.2325 266.318 22.8049 265.361 22.5199C264.404 22.2348 263.407 22.0923 262.368 22.0923C260.475 22.0923 258.76 22.5708 257.222 23.5277C255.695 24.4846 254.479 25.8945 253.573 27.7575C252.677 29.6204 252.229 31.9058 252.229 34.6136C252.229 37.3215 252.677 39.6069 253.573 41.4698C254.479 43.3327 255.695 44.7427 257.222 45.6996C258.76 46.6565 260.475 47.1349 262.368 47.1349C263.407 47.1349 264.404 46.9924 265.361 46.7074C266.318 46.4223 267.189 45.9999 267.972 45.44C268.767 44.8699 269.438 44.1726 269.988 43.348C270.548 42.5133 270.94 41.5563 271.164 40.4773H274.951C274.666 42.0755 274.147 43.5058 273.393 44.7681C272.64 46.0304 271.703 47.1044 270.584 47.9901C269.464 48.8655 268.207 49.5323 266.812 49.9904C265.427 50.4485 263.946 50.6776 262.368 50.6776C259.701 50.6776 257.329 50.026 255.253 48.723C253.176 47.42 251.542 45.5672 250.351 43.1648C249.16 40.7623 248.564 37.9119 248.564 34.6136C248.564 31.3153 249.16 28.465 250.351 26.0625C251.542 23.66 253.176 21.8073 255.253 20.5043C257.329 19.2012 259.701 18.5497 262.368 18.5497C263.946 18.5497 265.427 18.7788 266.812 19.2369C268.207 19.695 269.464 20.3668 270.584 21.2525C271.703 22.128 272.64 23.1969 273.393 24.4592C274.147 25.7113 274.666 27.1416 274.951 28.75Z" fill="#A293FF"/>
<path d="M289.25 50.7386C287.133 50.7386 285.275 50.2347 283.676 49.2269C282.088 48.2191 280.846 46.8092 279.951 44.9972C279.065 43.1851 278.622 41.0677 278.622 38.6449C278.622 36.2017 279.065 34.069 279.951 32.2468C280.846 30.4246 282.088 29.0096 283.676 28.0018C285.275 26.994 287.133 26.4901 289.25 26.4901C291.367 26.4901 293.22 26.994 294.808 28.0018C296.406 29.0096 297.648 30.4246 298.534 32.2468C299.43 34.069 299.878 36.2017 299.878 38.6449C299.878 41.0677 299.43 43.1851 298.534 44.9972C297.648 46.8092 296.406 48.2191 294.808 49.2269C293.22 50.2347 291.367 50.7386 289.25 50.7386ZM289.25 47.5014C290.858 47.5014 292.182 47.0891 293.22 46.2646C294.259 45.44 295.027 44.3558 295.526 43.0121C296.025 41.6683 296.274 40.2126 296.274 38.6449C296.274 37.0772 296.025 35.6164 295.526 34.2624C295.027 32.9085 294.259 31.8142 293.22 30.9794C292.182 30.1446 290.858 29.7273 289.25 29.7273C287.642 29.7273 286.318 30.1446 285.28 30.9794C284.241 31.8142 283.473 32.9085 282.974 34.2624C282.475 35.6164 282.226 37.0772 282.226 38.6449C282.226 40.2126 282.475 41.6683 282.974 43.0121C283.473 44.3558 284.241 45.44 285.28 46.2646C286.318 47.0891 287.642 47.5014 289.25 47.5014Z" fill="#A293FF"/>
<path d="M304.519 50.25V26.7955H308V30.4602H308.306C308.794 29.2081 309.583 28.2359 310.673 27.5437C311.762 26.8413 313.07 26.4901 314.597 26.4901C316.144 26.4901 317.432 26.8413 318.46 27.5437C319.499 28.2359 320.308 29.2081 320.888 30.4602H321.132C321.733 29.2488 322.634 28.2868 323.835 27.5742C325.036 26.8514 326.477 26.4901 328.157 26.4901C330.254 26.4901 331.969 27.1467 333.303 28.4599C334.636 29.7629 335.303 31.7938 335.303 34.5526V50.25H331.699V34.5526C331.699 32.822 331.226 31.5851 330.279 30.842C329.332 30.0988 328.218 29.7273 326.935 29.7273C325.286 29.7273 324.008 30.2261 323.102 31.2237C322.196 32.2112 321.743 33.4633 321.743 34.9801V50.25H318.078V34.1861C318.078 32.8525 317.646 31.7785 316.781 30.9641C315.915 30.1396 314.801 29.7273 313.436 29.7273C312.5 29.7273 311.624 29.9767 310.81 30.4755C310.006 30.9743 309.354 31.6665 308.855 32.5522C308.367 33.4277 308.123 34.4406 308.123 35.5909V50.25H304.519Z" fill="#A293FF"/>
<path d="M341.032 50.25V26.7955H344.513V30.4602H344.819C345.307 29.2081 346.096 28.2359 347.186 27.5437C348.275 26.8413 349.583 26.4901 351.11 26.4901C352.657 26.4901 353.945 26.8413 354.973 27.5437C356.012 28.2359 356.821 29.2081 357.401 30.4602H357.645C358.246 29.2488 359.147 28.2868 360.348 27.5742C361.549 26.8514 362.99 26.4901 364.67 26.4901C366.767 26.4901 368.482 27.1467 369.816 28.4599C371.149 29.7629 371.816 31.7938 371.816 34.5526V50.25H368.212V34.5526C368.212 32.822 367.739 31.5851 366.792 30.842C365.845 30.0988 364.731 29.7273 363.448 29.7273C361.799 29.7273 360.521 30.2261 359.615 31.2237C358.709 32.2112 358.256 33.4633 358.256 34.9801V50.25H354.592V34.1861C354.592 32.8525 354.159 31.7785 353.294 30.9641C352.428 30.1396 351.314 29.7273 349.949 29.7273C349.013 29.7273 348.137 29.9767 347.323 30.4755C346.519 30.9743 345.867 31.6665 345.369 32.5522C344.88 33.4277 344.636 34.4406 344.636 35.5909V50.25H341.032Z" fill="#A293FF"/>
<path d="M392.326 40.6605V26.7955H395.93V50.25H392.326V46.2798H392.082C391.532 47.4709 390.677 48.4838 389.516 49.3185C388.356 50.1431 386.89 50.5554 385.119 50.5554C383.653 50.5554 382.35 50.2347 381.21 49.5934C380.07 48.9419 379.174 47.9646 378.522 46.6616C377.871 45.3484 377.545 43.6941 377.545 41.6989V26.7955H381.149V41.4545C381.149 43.1648 381.627 44.5289 382.584 45.5469C383.551 46.5649 384.783 47.0739 386.279 47.0739C387.175 47.0739 388.086 46.8448 389.013 46.3867C389.949 45.9286 390.733 45.2262 391.364 44.2795C392.005 43.3327 392.326 42.1264 392.326 40.6605Z" fill="#A293FF"/>
<path d="M405.274 36.1406V50.25H401.67V26.7955H405.152V30.4602H405.457C406.007 29.2692 406.842 28.3123 407.961 27.5895C409.081 26.8565 410.527 26.4901 412.298 26.4901C413.886 26.4901 415.276 26.8158 416.467 27.4673C417.658 28.1087 418.584 29.0859 419.246 30.3991C419.908 31.7022 420.238 33.3513 420.238 35.3466V50.25H416.635V35.5909C416.635 33.7483 416.156 32.313 415.199 31.2848C414.242 30.2464 412.929 29.7273 411.26 29.7273C410.109 29.7273 409.081 29.9767 408.175 30.4755C407.279 30.9743 406.572 31.7022 406.053 32.6591C405.534 33.616 405.274 34.7765 405.274 36.1406Z" fill="#A293FF"/>
<path d="M425.964 50.25V26.7955H429.567V50.25H425.964ZM427.796 22.8864C427.094 22.8864 426.488 22.6471 425.979 22.1687C425.48 21.6902 425.231 21.1151 425.231 20.4432C425.231 19.7713 425.48 19.1961 425.979 18.7177C426.488 18.2392 427.094 18 427.796 18C428.498 18 429.099 18.2392 429.598 18.7177C430.107 19.1961 430.361 19.7713 430.361 20.4432C430.361 21.1151 430.107 21.6902 429.598 22.1687C429.099 22.6471 428.498 22.8864 427.796 22.8864Z" fill="#A293FF"/>
<path d="M445.508 26.7955V29.8494H433.353V26.7955H445.508ZM436.896 21.1761H440.499V43.5312C440.499 44.5492 440.647 45.3127 440.942 45.8217C441.248 46.3205 441.635 46.6565 442.103 46.8295C442.581 46.9924 443.085 47.0739 443.615 47.0739C444.012 47.0739 444.337 47.0535 444.592 47.0128C444.846 46.9619 445.05 46.9212 445.203 46.8906L445.936 50.1278C445.691 50.2195 445.35 50.3111 444.912 50.4027C444.475 50.5045 443.92 50.5554 443.248 50.5554C442.23 50.5554 441.232 50.3365 440.255 49.8988C439.288 49.4611 438.484 48.7943 437.842 47.8984C437.211 47.0026 436.896 45.8726 436.896 44.5085V21.1761Z" fill="#A293FF"/>
<path d="M452.39 59.0455C451.779 59.0455 451.234 58.9946 450.756 58.8928C450.277 58.8011 449.947 58.7095 449.763 58.6179L450.68 55.4418C451.555 55.6657 452.329 55.7472 453.001 55.6861C453.672 55.625 454.268 55.3247 454.787 54.7852C455.317 54.2558 455.8 53.3956 456.238 52.2045L456.91 50.3722L448.236 26.7955H452.145L458.62 45.4858H458.864L465.339 26.7955H469.248L459.292 53.6705C458.844 54.8819 458.289 55.8846 457.627 56.6786C456.966 57.4828 456.197 58.0784 455.322 58.4652C454.456 58.852 453.479 59.0455 452.39 59.0455Z" fill="#A293FF"/>
<path d="M477.127 50.25V18.9773H496V22.3366H480.914V32.9034H495.023V36.2628H480.914V46.8906H496.245V50.25H477.127Z" fill="#A293FF"/>
<path d="M504.165 26.7955L509.784 36.3849L515.403 26.7955H519.557L511.983 38.5227L519.557 50.25H515.403L509.784 41.1491L504.165 50.25H500.011L507.463 38.5227L500.011 26.7955H504.165Z" fill="#A293FF"/>
<path d="M534.039 26.7955V29.8494H521.884V26.7955H534.039ZM525.427 21.1761H529.031V43.5312C529.031 44.5492 529.178 45.3127 529.474 45.8217C529.779 46.3205 530.166 46.6565 530.634 46.8295C531.113 46.9924 531.616 47.0739 532.146 47.0739C532.543 47.0739 532.869 47.0535 533.123 47.0128C533.378 46.9619 533.581 46.9212 533.734 46.8906L534.467 50.1278C534.223 50.2195 533.881 50.3111 533.444 50.4027C533.006 50.5045 532.451 50.5554 531.779 50.5554C530.761 50.5554 529.764 50.3365 528.786 49.8988C527.819 49.4611 527.015 48.7943 526.374 47.8984C525.743 47.0026 525.427 45.8726 525.427 44.5085V21.1761Z" fill="#A293FF"/>
<path d="M548.182 50.7386C545.922 50.7386 543.972 50.2398 542.334 49.2422C540.705 48.2344 539.448 46.8295 538.562 45.0277C537.686 43.2157 537.249 41.1084 537.249 38.706C537.249 36.3035 537.686 34.1861 538.562 32.3537C539.448 30.5111 540.679 29.0758 542.257 28.0476C543.845 27.0092 545.698 26.4901 547.815 26.4901C549.037 26.4901 550.243 26.6937 551.434 27.1009C552.625 27.508 553.71 28.1697 554.687 29.0859C555.664 29.992 556.443 31.1932 557.023 32.6896C557.603 34.1861 557.894 36.0286 557.894 38.2173V39.7443H539.814V36.6293H554.229C554.229 35.3059 553.964 34.125 553.435 33.0866C552.916 32.0483 552.172 31.2288 551.205 30.6282C550.248 30.0276 549.118 29.7273 547.815 29.7273C546.38 29.7273 545.138 30.0836 544.09 30.7962C543.051 31.4986 542.252 32.4148 541.692 33.5447C541.132 34.6747 540.852 35.8861 540.852 37.179V39.2557C540.852 41.027 541.158 42.5285 541.769 43.7603C542.39 44.9819 543.25 45.9134 544.349 46.5547C545.449 47.1858 546.726 47.5014 548.182 47.5014C549.129 47.5014 549.984 47.3691 550.747 47.1044C551.521 46.8295 552.188 46.4223 552.748 45.8828C553.307 45.3331 553.74 44.651 554.046 43.8366L557.527 44.8139C557.161 45.9948 556.545 47.0331 555.679 47.929C554.814 48.8146 553.745 49.5069 552.473 50.0057C551.2 50.4943 549.77 50.7386 548.182 50.7386Z" fill="#A293FF"/>
<path d="M566.119 36.1406V50.25H562.515V26.7955H565.997V30.4602H566.302C566.852 29.2692 567.687 28.3123 568.807 27.5895C569.926 26.8565 571.372 26.4901 573.143 26.4901C574.731 26.4901 576.121 26.8158 577.312 27.4673C578.503 28.1087 579.429 29.0859 580.091 30.3991C580.753 31.7022 581.084 33.3513 581.084 35.3466V50.25H577.48V35.5909C577.48 33.7483 577.001 32.313 576.045 31.2848C575.088 30.2464 573.774 29.7273 572.105 29.7273C570.955 29.7273 569.926 29.9767 569.02 30.4755C568.125 30.9743 567.417 31.7022 566.898 32.6591C566.379 33.616 566.119 34.7765 566.119 36.1406Z" fill="#A293FF"/>
<path d="M603.422 32.0483L600.185 32.9645C599.982 32.425 599.681 31.9007 599.284 31.3917C598.897 30.8725 598.368 30.445 597.696 30.109C597.024 29.7731 596.164 29.6051 595.116 29.6051C593.68 29.6051 592.484 29.936 591.527 30.5977C590.58 31.2492 590.107 32.0788 590.107 33.0866C590.107 33.9825 590.433 34.69 591.084 35.2092C591.736 35.7283 592.754 36.161 594.138 36.5071L597.62 37.3622C599.717 37.8712 601.28 38.65 602.308 39.6985C603.336 40.7369 603.85 42.0755 603.85 43.7145C603.85 45.0582 603.463 46.2595 602.689 47.3182C601.926 48.3769 600.857 49.2116 599.483 49.8224C598.108 50.4332 596.51 50.7386 594.688 50.7386C592.296 50.7386 590.316 50.2195 588.748 49.1811C587.18 48.1428 586.188 46.6259 585.77 44.6307L589.191 43.7756C589.517 45.0379 590.132 45.9846 591.039 46.6158C591.955 47.2469 593.151 47.5625 594.627 47.5625C596.307 47.5625 597.64 47.2062 598.628 46.4936C599.625 45.7708 600.124 44.9055 600.124 43.8977C600.124 43.0833 599.839 42.4013 599.269 41.8516C598.699 41.2917 597.823 40.8743 596.643 40.5994L592.733 39.6832C590.586 39.1742 589.008 38.3853 588 37.3164C587.002 36.2373 586.503 34.8885 586.503 33.2699C586.503 31.9465 586.875 30.7758 587.618 29.7578C588.371 28.7398 589.394 27.9407 590.687 27.3604C591.99 26.7802 593.466 26.4901 595.116 26.4901C597.437 26.4901 599.259 26.9991 600.582 28.017C601.916 29.035 602.862 30.3788 603.422 32.0483Z" fill="#A293FF"/>
<path d="M608.415 50.25V26.7955H612.018V50.25H608.415ZM610.247 22.8864C609.545 22.8864 608.939 22.6471 608.43 22.1687C607.931 21.6902 607.682 21.1151 607.682 20.4432C607.682 19.7713 607.931 19.1961 608.43 18.7177C608.939 18.2392 609.545 18 610.247 18C610.949 18 611.55 18.2392 612.049 18.7177C612.558 19.1961 612.812 19.7713 612.812 20.4432C612.812 21.1151 612.558 21.6902 612.049 22.1687C611.55 22.6471 610.949 22.8864 610.247 22.8864Z" fill="#A293FF"/>
<path d="M627.287 50.7386C625.17 50.7386 623.312 50.2347 621.714 49.2269C620.126 48.2191 618.884 46.8092 617.988 44.9972C617.102 43.1851 616.659 41.0677 616.659 38.6449C616.659 36.2017 617.102 34.069 617.988 32.2468C618.884 30.4246 620.126 29.0096 621.714 28.0018C623.312 26.994 625.17 26.4901 627.287 26.4901C629.405 26.4901 631.257 26.994 632.845 28.0018C634.444 29.0096 635.686 30.4246 636.571 32.2468C637.467 34.069 637.915 36.2017 637.915 38.6449C637.915 41.0677 637.467 43.1851 636.571 44.9972C635.686 46.8092 634.444 48.2191 632.845 49.2269C631.257 50.2347 629.405 50.7386 627.287 50.7386ZM627.287 47.5014C628.896 47.5014 630.219 47.0891 631.257 46.2646C632.296 45.44 633.064 44.3558 633.563 43.0121C634.062 41.6683 634.311 40.2126 634.311 38.6449C634.311 37.0772 634.062 35.6164 633.563 34.2624C633.064 32.9085 632.296 31.8142 631.257 30.9794C630.219 30.1446 628.896 29.7273 627.287 29.7273C625.679 29.7273 624.355 30.1446 623.317 30.9794C622.279 31.8142 621.51 32.9085 621.011 34.2624C620.512 35.6164 620.263 37.0772 620.263 38.6449C620.263 40.2126 620.512 41.6683 621.011 43.0121C621.51 44.3558 622.279 45.44 623.317 46.2646C624.355 47.0891 625.679 47.5014 627.287 47.5014Z" fill="#A293FF"/>
<path d="M646.16 36.1406V50.25H642.556V26.7955H646.037V30.4602H646.343C646.893 29.2692 647.727 28.3123 648.847 27.5895C649.967 26.8565 651.412 26.4901 653.184 26.4901C654.772 26.4901 656.161 26.8158 657.352 27.4673C658.543 28.1087 659.47 29.0859 660.132 30.3991C660.793 31.7022 661.124 33.3513 661.124 35.3466V50.25H657.52V35.5909C657.52 33.7483 657.042 32.313 656.085 31.2848C655.128 30.2464 653.815 29.7273 652.145 29.7273C650.995 29.7273 649.967 29.9767 649.061 30.4755C648.165 30.9743 647.458 31.7022 646.938 32.6591C646.419 33.616 646.16 34.7765 646.16 36.1406Z" fill="#A293FF"/>
<path d="M683.463 32.0483L680.226 32.9645C680.022 32.425 679.722 31.9007 679.325 31.3917C678.938 30.8725 678.409 30.445 677.737 30.109C677.065 29.7731 676.205 29.6051 675.156 29.6051C673.721 29.6051 672.525 29.936 671.568 30.5977C670.621 31.2492 670.148 32.0788 670.148 33.0866C670.148 33.9825 670.473 34.69 671.125 35.2092C671.776 35.7283 672.794 36.161 674.179 36.5071L677.66 37.3622C679.757 37.8712 681.32 38.65 682.348 39.6985C683.376 40.7369 683.89 42.0755 683.89 43.7145C683.89 45.0582 683.504 46.2595 682.73 47.3182C681.966 48.3769 680.898 49.2116 679.523 49.8224C678.149 50.4332 676.551 50.7386 674.729 50.7386C672.336 50.7386 670.356 50.2195 668.789 49.1811C667.221 48.1428 666.228 46.6259 665.811 44.6307L669.231 43.7756C669.557 45.0379 670.173 45.9846 671.079 46.6158C671.995 47.2469 673.191 47.5625 674.667 47.5625C676.347 47.5625 677.681 47.2062 678.668 46.4936C679.666 45.7708 680.165 44.9055 680.165 43.8977C680.165 43.0833 679.88 42.4013 679.309 41.8516C678.739 41.2917 677.864 40.8743 676.683 40.5994L672.774 39.6832C670.626 39.1742 669.048 38.3853 668.04 37.3164C667.043 36.2373 666.544 34.8885 666.544 33.2699C666.544 31.9465 666.915 30.7758 667.659 29.7578C668.412 28.7398 669.435 27.9407 670.728 27.3604C672.031 26.7802 673.507 26.4901 675.156 26.4901C677.477 26.4901 679.299 26.9991 680.623 28.017C681.956 29.035 682.903 30.3788 683.463 32.0483Z" fill="#A293FF"/>
<path d="M34.876 68.6607C16.0073 68.6607 0.769531 53.3229 0.769531 34.3303C0.769531 15.3378 16.0073 0 34.876 0C53.7446 0 68.9824 15.3378 68.9824 34.3303C68.9824 53.3229 53.7446 68.6607 34.876 68.6607Z" fill="#A293FF"/>
<path d="M53.1126 29.3872H46.4219V39.5508H53.1126C55.8868 39.5508 58.1919 37.2306 58.1919 34.4382C58.1919 31.6252 55.8868 29.3872 53.1126 29.3872Z" fill="black"/>
<path d="M13.6406 34.4795C13.6406 42.3229 19.9846 48.7085 27.7768 48.7085C35.5691 48.7085 41.9131 42.3229 41.9131 34.4795C41.9131 26.6361 35.5691 20.2505 27.7768 20.2505C19.9846 20.2505 13.6406 26.6361 13.6406 34.4795Z" fill="black"/>
<path d="M124.692 26.0016V40.3127C124.692 43.3926 122.795 45.569 120.204 45.569H118.939C116.287 45.569 114.452 43.3926 114.452 40.3127V26.0016H109.454V41.1956C109.454 46.6778 113.37 50.62 118.858 50.62H120.306C125.793 50.62 129.669 46.6778 129.669 41.1956V26.0016H124.692ZM170.282 34.6868L179.543 24.8723H172.567L164.428 33.7013V19.0616H159.492V50.2094H164.428V41.0724L166.815 38.5469L174.954 50.2299H181.073L170.282 34.6868ZM92.4414 45.2405H86.4647V24.0921H92.4414C97.0719 24.0921 100.764 28.8351 100.764 34.5842C100.764 40.5181 97.0719 45.2405 92.4414 45.2405ZM92.4414 19.0205H81.5078V50.2505H92.4414C99.7645 50.2505 105.762 43.2899 105.762 34.5842C105.762 26.0837 99.7849 19.0205 92.4414 19.0205ZM195.373 45.2405H189.477V24.0921H195.373C200.044 24.0921 203.695 28.8351 203.695 34.5842C203.695 40.5181 200.044 45.2405 195.373 45.2405ZM195.373 19.0205H184.5V50.2505H195.373C202.798 50.2505 208.693 43.2899 208.693 34.5842C208.693 26.0837 202.798 19.0205 195.373 19.0205ZM225.195 45.2405H217.505V36.5963H225.195C227.48 36.5963 229.459 38.588 229.459 40.8876C229.459 43.331 227.48 45.2405 225.195 45.2405ZM217.505 31.5659V24.0921H223.625C225.685 24.0921 227.358 25.7141 227.358 27.8084C227.358 29.8822 225.685 31.5659 223.625 31.5659H217.505ZM230.458 33.229C231.58 31.7301 232.355 29.8412 232.355 27.7879C232.355 22.9833 228.357 19 223.625 19H212.569V50.2299H225.195C230.315 50.2299 234.416 46.0208 234.416 40.8671C234.416 37.7256 232.886 34.9537 230.458 33.229ZM143.744 30.6625H144.968C147.926 30.6625 150.373 32.8389 150.373 35.5492H155.412C155.412 30.1697 150.7 25.7347 144.988 25.7347H143.764C138.134 25.7347 133.606 30.3134 133.606 35.9188V40.3949C133.606 46.0618 138.155 50.62 143.764 50.62H144.988C150.883 50.62 155.697 46.185 155.697 40.8466H150.659C150.659 43.4337 148.089 45.5485 144.988 45.5485H143.764C140.888 45.5485 138.501 43.2489 138.501 40.3949V35.9188C138.501 33.0032 140.868 30.6625 143.744 30.6625Z" fill="#A293FF"/>
</svg>
