<svg width="137" height="34" viewBox="0 0 137 34" fill="none" xmlns="http://www.w3.org/2000/svg">
<path d="M17 34C7.59796 34 0 26.402 0 17C0 7.59796 7.59796 0 17 0C26.402 0 34 7.59796 34 17C34 26.402 26.402 34 17 34Z" fill="#FFF100"/>
<path d="M26.0923 14.4668H22.7617V19.4974H26.0923C27.4801 19.4974 28.625 18.3525 28.625 16.9648C28.625 15.577 27.4801 14.4668 26.0923 14.4668Z" fill="#1A1A1A"/>
<path d="M6.42188 16.9999C6.42188 20.8856 9.57902 24.0427 13.4647 24.0427C17.3504 24.0427 20.5076 20.8856 20.5076 16.9999C20.5076 13.1142 17.3504 9.95703 13.4647 9.95703C9.57902 9.95703 6.42188 13.1142 6.42188 16.9999Z" fill="#1A1A1A"/>
<path d="M49.4321 17.603C49.4321 13.48 46.9811 12.853 44.4731 12.853H43.2191V22.372H44.4731C46.9811 22.372 49.4321 21.764 49.4321 17.603ZM40.5021 10.725H44.5871C48.9571 10.725 52.2441 12.131 52.2441 17.603C52.2441 23.075 48.9571 24.5 44.5871 24.5H40.5021V10.725ZM60.1677 24.5V23.151C59.5787 24.196 58.4577 24.747 57.1847 24.747C54.7337 24.747 53.7457 23.246 53.7457 20.738V14.278H56.3677V20.168C56.3677 21.536 56.5767 22.638 58.0397 22.638C59.7877 22.638 60.1677 21.213 60.1677 19.598V14.278H62.7897V24.5H60.1677ZM69.6064 14.05C71.7534 14.05 73.8814 15.247 74.2424 17.774H71.7344C71.5254 16.786 70.6134 16.083 69.6064 16.083C68.2384 16.083 67.1554 17.242 67.1554 19.37C67.1554 21.517 68.1814 22.714 69.6254 22.714C70.5374 22.714 71.4684 22.239 71.8294 21.023H74.3374C73.7294 23.816 71.6204 24.747 69.4924 24.747C66.4334 24.747 64.4764 22.505 64.4764 19.408C64.4764 16.292 66.5474 14.05 69.6064 14.05ZM75.9031 10.725H78.5251V18.382L82.2491 14.278H85.1941L81.5271 18.192L85.4031 24.5H82.4581L79.7791 20.073L78.5251 21.422V24.5H75.9031V10.725ZM95.8472 19.978H98.4312C98.0702 22.771 95.7522 24.747 92.4652 24.747C88.3612 24.747 86.0242 21.954 86.0242 17.546C86.0242 13.195 88.5322 10.478 92.5412 10.478C95.7712 10.478 97.9752 12.321 98.4312 15.19H95.8472C95.3342 13.271 94.0422 12.644 92.5222 12.644C90.4512 12.644 88.8362 14.354 88.8362 17.546C88.8362 20.833 90.4512 22.581 92.4272 22.581C94.0612 22.581 95.3912 21.859 95.8472 19.978ZM104.823 16.102C103.379 16.102 102.353 17.261 102.353 19.408C102.353 21.555 103.379 22.695 104.823 22.695C106.267 22.695 107.293 21.555 107.293 19.408C107.293 17.261 106.267 16.102 104.823 16.102ZM104.823 24.747C102.239 24.747 99.6927 22.98 99.6927 19.408C99.6927 15.817 102.239 14.05 104.823 14.05C107.407 14.05 109.953 15.817 109.953 19.408C109.953 22.98 107.407 24.747 104.823 24.747ZM114.243 14.278V15.627C114.832 14.582 115.934 14.05 117.207 14.05C119.658 14.05 120.741 15.532 120.741 18.059V24.5H118.119V18.629C118.119 17.318 117.834 16.159 116.352 16.159C114.623 16.159 114.243 17.565 114.243 19.18V24.5H111.621V14.278H114.243ZM125.99 12.929V10.725H136.117V12.929C132.526 16.558 130.759 19.56 130.512 24.5H127.624C127.833 19.75 130.398 15.798 133.476 12.929H125.99Z" fill="#F2F2F2"/>
</svg>
