<?xml version="1.0" encoding="UTF-8" standalone="no"?>
<!-- Created with Inkscape (http://www.inkscape.org/) -->

<svg
   version="1.1"
   id="svg1"
   width="160"
   height="160"
   viewBox="0 0 160 160"
   xmlns="http://www.w3.org/2000/svg"
   xmlns:svg="http://www.w3.org/2000/svg">
  <defs
     id="defs1">
    <clipPath
       clipPathUnits="userSpaceOnUse"
       id="clipPath4">
      <path
         d="M 0,792 H 612 V 0 H 0 Z"
         transform="translate(-278.58711,-498.75651)"
         id="path4" />
    </clipPath>
    <clipPath
       clipPathUnits="userSpaceOnUse"
       id="clipPath6">
      <path
         d="M 0,792 H 612 V 0 H 0 Z"
         transform="translate(-278.95831,-524.18302)"
         id="path6" />
    </clipPath>
    <clipPath
       clipPathUnits="userSpaceOnUse"
       id="clipPath8">
      <path
         d="M 0,792 H 612 V 0 H 0 Z"
         transform="translate(-283.07131,-520.98541)"
         id="path8" />
    </clipPath>
    <clipPath
       clipPathUnits="userSpaceOnUse"
       id="clipPath10">
      <path
         d="M 0,792 H 612 V 0 H 0 Z"
         transform="translate(-283.27221,-525.11242)"
         id="path10" />
    </clipPath>
    <clipPath
       clipPathUnits="userSpaceOnUse"
       id="clipPath12">
      <path
         d="M 0,792 H 612 V 0 H 0 Z"
         transform="translate(-333.41291,-498.75651)"
         id="path12" />
    </clipPath>
    <clipPath
       clipPathUnits="userSpaceOnUse"
       id="clipPath14">
      <path
         d="M 0,792 H 612 V 0 H 0 Z"
         transform="translate(-345.53081,-524.78152)"
         id="path14" />
    </clipPath>
    <clipPath
       clipPathUnits="userSpaceOnUse"
       id="clipPath16">
      <path
         d="M 0,792 H 612 V 0 H 0 Z"
         transform="translate(-319.30171,-521.41951)"
         id="path16" />
    </clipPath>
  </defs>
  <g
     id="layer-MC0"
     transform="translate(-327.94871,-299.08815)">
    <path
       id="path1"
       d="m 487.94871,459.08815 h -160 v -160 h 160 z"
       style="fill:#231f20;fill-opacity:1;fill-rule:nonzero;stroke:none;stroke-width:0.623352" />
    <path
       id="path3"
       d="m 0,0 c -12.538,0 -22.663,10.125 -22.663,22.663 0,12.538 10.125,22.663 22.663,22.663 12.538,0 22.663,-10.125 22.663,-22.663 C 22.663,10.125 12.538,0 0,0"
       style="fill:#f5f013;fill-opacity:1;fill-rule:nonzero;stroke:none"
       transform="matrix(1.3333333,0,0,-1.3333333,371.44947,390.99133)"
       clip-path="url(#clipPath4)" />
    <path
       id="path5"
       d="M 0,0 -0.971,1.884 C -1.085,2.141 -1.399,2.227 -1.656,2.113 -2.655,1.656 -3.712,1.256 -4.825,0.885 -6.281,0.4 -7.937,-0.143 -9.393,-0.999 c -1.742,-1.085 -4.254,-3.626 -5.396,-4.854 -0.343,-0.371 -0.314,-0.971 0.057,-1.313 l 0.857,-0.771 c 0.371,-0.314 0.913,-0.314 1.256,0.029 0.742,0.742 1.513,1.456 2.255,2.141 0.971,0.856 1.999,1.741 2.941,2.17 2.227,1.085 4.911,1.684 7.195,2.855 C 0.029,-0.571 0.114,-0.257 0,0"
       style="fill:#040606;fill-opacity:1;fill-rule:nonzero;stroke:none"
       transform="matrix(1.3333333,0,0,-1.3333333,371.9444,357.08933)"
       clip-path="url(#clipPath6)" />
    <path
       id="path7"
       d="m 0,0 -1.884,0.971 c -0.257,0.142 -0.571,0.028 -0.714,-0.229 -0.571,-1.142 -1.056,-2.341 -1.456,-3.54 -0.457,-1.313 -0.857,-2.541 -1.399,-3.654 -0.942,-1.799 -2.77,-3.626 -4.34,-5.197 -0.342,-0.342 -0.342,-0.885 -0.028,-1.256 l 0.799,-0.885 c 0.343,-0.371 0.914,-0.4 1.285,-0.057 0.828,0.742 1.627,1.513 2.398,2.341 1.028,1.085 2.084,2.284 2.769,3.626 1.2,2.398 1.713,4.882 2.798,7.195 C 0.343,-0.428 0.257,-0.143 0,0"
       style="fill:#040606;fill-opacity:1;fill-rule:nonzero;stroke:none"
       transform="matrix(1.3333333,0,0,-1.3333333,377.4284,361.3528)"
       clip-path="url(#clipPath8)" />
    <path
       id="path9"
       d="M 0,0 C -0.633,0 -1.147,0.514 -1.147,1.147 -1.147,1.78 -0.633,2.295 0,2.295 0.633,2.295 1.147,1.78 1.147,1.147 1.147,0.514 0.633,0 0,0 M 7.618,5.78 7.247,6.151 2.051,2.554 1.423,3.182 5.02,8.349 4.649,8.721 C 4.478,8.92 4.193,8.92 3.993,8.778 L 0.024,5.923 C -0.147,5.809 -0.261,5.637 -0.347,5.437 l -1.056,-2.398 -2.798,-1.627 0.942,-1.827 0.085,-0.172 1.057,0.457 0.942,-0.942 -0.457,-1.028 c 0.057,-0.028 0.086,-0.028 0.143,-0.057 l 1.856,-0.942 1.627,2.798 2.427,1.056 c 0.2,0.086 0.342,0.2 0.485,0.371 L 7.761,5.095 C 7.818,5.323 7.79,5.609 7.618,5.78"
       style="fill:#040606;fill-opacity:1;fill-rule:nonzero;stroke:none"
       transform="matrix(1.3333333,0,0,-1.3333333,377.69627,355.85013)"
       clip-path="url(#clipPath10)" />
    <path
       id="path11"
       d="m 0,0 c -12.538,0 -22.663,10.125 -22.663,22.663 0,12.538 10.125,22.663 22.663,22.663 12.538,0 22.663,-10.125 22.663,-22.663 C 22.663,10.125 12.538,0 0,0"
       style="fill:#f5f013;fill-opacity:1;fill-rule:nonzero;stroke:none"
       transform="matrix(1.3333333,0,0,-1.3333333,444.55053,390.99133)"
       clip-path="url(#clipPath12)" />
    <path
       id="path13"
       d="M 0,0 H -4.446 V -6.709 H 0 c 1.843,0 3.375,1.531 3.375,3.375 C 3.375,-1.477 1.843,0 0,0"
       style="fill:#231f20;fill-opacity:1;fill-rule:nonzero;stroke:none"
       transform="matrix(1.3333333,0,0,-1.3333333,460.70773,356.29133)"
       clip-path="url(#clipPath14)" />
    <path
       id="path15"
       d="m 0,0 c 0,-5.178 4.215,-9.393 9.393,-9.393 5.178,0 9.394,4.215 9.394,9.393 0,5.178 -4.216,9.393 -9.394,9.393 C 4.215,9.393 0,5.178 0,0"
       style="fill:#231f20;fill-opacity:1;fill-rule:nonzero;stroke:none"
       transform="matrix(1.3333333,0,0,-1.3333333,425.7356,360.774)"
       clip-path="url(#clipPath16)" />
    <text
       id="text16"
       xml:space="preserve"
       transform="matrix(1.3333333,0,0,1.3333333,353.23053,426.18947)"><tspan
         style="font-variant:normal;font-weight:500;font-stretch:normal;font-size:21.1795px;font-family:'Suisse Intl';writing-mode:lr-tb;fill:#f5f01d;fill-opacity:1;fill-rule:nonzero;stroke:none"
         x="0 12.495905 24.462322 35.983971 46.891415 59.32378 64.258606 74.340042"
         y="0"
         id="tspan16">duckplyr</tspan></text>
  </g>
  <g
     id="layer-MC2"
     style="display:none"
     transform="translate(-327.94871,-299.08815)">
    <path
       id="path18"
       d="M 0,0 H 612 V 792 H 0 Z M 220.057,458.083 V 557.32 L 306,606.938 391.942,557.32 V 458.083 L 306,408.463 Z"
       style="fill:#ffffff;fill-opacity:1;fill-rule:nonzero;stroke:none"
       transform="matrix(1.3333333,0,0,-1.3333333,0,1056)" />
  </g>
</svg>
