<svg width="150" height="34" viewBox="0 0 150 34" fill="none" xmlns="http://www.w3.org/2000/svg">
<path d="M17 34C7.59796 34 0 26.402 0 17C0 7.59796 7.59796 0 17 0C26.402 0 34 7.59796 34 17C34 26.402 26.402 34 17 34Z" fill="#FFF100"/>
<path d="M26.0923 14.4668H22.7617V19.4974H26.0923C27.4801 19.4974 28.625 18.3525 28.625 16.9648C28.625 15.577 27.4801 14.4668 26.0923 14.4668Z" fill="#1A1A1A"/>
<path d="M6.42188 16.9999C6.42188 20.8856 9.57902 24.0427 13.4647 24.0427C17.3504 24.0427 20.5076 20.8856 20.5076 16.9999C20.5076 13.1142 17.3504 9.95703 13.4647 9.95703C9.57902 9.95703 6.42188 13.1142 6.42188 16.9999Z" fill="#1A1A1A"/>
<path d="M49.5483 17.603C49.5483 13.48 47.0973 12.853 44.5893 12.853H43.3353V22.372H44.5893C47.0973 22.372 49.5483 21.764 49.5483 17.603ZM40.6183 10.725H44.7033C49.0733 10.725 52.3603 12.131 52.3603 17.603C52.3603 23.075 49.0733 24.5 44.7033 24.5H40.6183V10.725ZM60.2839 24.5V23.151C59.6949 24.196 58.5739 24.747 57.3009 24.747C54.8499 24.747 53.8619 23.246 53.8619 20.738V14.278H56.4839V20.168C56.4839 21.536 56.6929 22.638 58.1559 22.638C59.9039 22.638 60.2839 21.213 60.2839 19.598V14.278H62.9059V24.5H60.2839ZM69.7226 14.05C71.8696 14.05 73.9976 15.247 74.3586 17.774H71.8506C71.6416 16.786 70.7296 16.083 69.7226 16.083C68.3546 16.083 67.2716 17.242 67.2716 19.37C67.2716 21.517 68.2976 22.714 69.7416 22.714C70.6536 22.714 71.5846 22.239 71.9456 21.023H74.4536C73.8456 23.816 71.7366 24.747 69.6086 24.747C66.5496 24.747 64.5926 22.505 64.5926 19.408C64.5926 16.292 66.6636 14.05 69.7226 14.05ZM76.0193 10.725H78.6413V18.382L82.3653 14.278H85.3103L81.6433 18.192L85.5193 24.5H82.5743L79.8953 20.073L78.6413 21.422V24.5H76.0193V10.725ZM95.9634 19.978H98.5474C98.1864 22.771 95.8684 24.747 92.5814 24.747C88.4774 24.747 86.1404 21.954 86.1404 17.546C86.1404 13.195 88.6484 10.478 92.6574 10.478C95.8874 10.478 98.0914 12.321 98.5474 15.19H95.9634C95.4504 13.271 94.1584 12.644 92.6384 12.644C90.5674 12.644 88.9524 14.354 88.9524 17.546C88.9524 20.833 90.5674 22.581 92.5434 22.581C94.1774 22.581 95.5074 21.859 95.9634 19.978ZM104.939 16.102C103.495 16.102 102.469 17.261 102.469 19.408C102.469 21.555 103.495 22.695 104.939 22.695C106.383 22.695 107.409 21.555 107.409 19.408C107.409 17.261 106.383 16.102 104.939 16.102ZM104.939 24.747C102.355 24.747 99.8089 22.98 99.8089 19.408C99.8089 15.817 102.355 14.05 104.939 14.05C107.523 14.05 110.069 15.817 110.069 19.408C110.069 22.98 107.523 24.747 104.939 24.747ZM114.359 14.278V15.627C114.948 14.582 116.05 14.05 117.323 14.05C119.774 14.05 120.857 15.532 120.857 18.059V24.5H118.235V18.629C118.235 17.318 117.95 16.159 116.468 16.159C114.739 16.159 114.359 17.565 114.359 19.18V24.5H111.737V14.278H114.359ZM127.247 13.917H129.907L130.344 10.725H132.7L132.263 13.917H134.79L135.227 10.725H137.583L137.146 13.917H139.768L139.521 15.95H136.861L136.462 18.819H139.065L138.856 20.833H136.177L135.683 24.5H133.327L133.821 20.833H131.294L130.8 24.5H128.444L128.938 20.833H126.335L126.582 18.819H129.223L129.622 15.95H127.038L127.247 13.917ZM131.978 15.95L131.579 18.819H134.106L134.505 15.95H131.978ZM139.874 12.929V10.725H150.001V12.929C146.41 16.558 144.643 19.56 144.396 24.5H141.508C141.717 19.75 144.282 15.798 147.36 12.929H139.874Z" fill="#F2F2F2"/>
</svg>
