<svg width="750" height="363" viewBox="0 0 750 363" fill="none" xmlns="http://www.w3.org/2000/svg">
<path d="M10 0.5H740C745.247 0.5 749.5 4.75329 749.5 10V352.391C749.5 357.637 745.247 361.891 740 361.891H10C4.7533 361.891 0.5 357.637 0.5 352.391V10C0.5 4.7533 4.75329 0.5 10 0.5Z" fill="#F2F2F2"/>
<path d="M10 0.5H740C745.247 0.5 749.5 4.75329 749.5 10V352.391C749.5 357.637 745.247 361.891 740 361.891H10C4.7533 361.891 0.5 357.637 0.5 352.391V10C0.5 4.7533 4.75329 0.5 10 0.5Z" stroke="#E6E6E6"/>
<path d="M52.5078 64.5871V96.8125H181.505V64.5871H52.5078Z" stroke="black" stroke-width="0.533333" stroke-miterlimit="10" stroke-linejoin="round"/>
<path d="M310.501 64.5871V96.8125H439.498V64.5871H310.501Z" stroke="black" stroke-width="0.533333" stroke-miterlimit="10" stroke-linejoin="round"/>
<path d="M439.499 64.5871V96.8125H568.495V64.5871H439.499Z" stroke="black" stroke-width="0.533333" stroke-miterlimit="10" stroke-linejoin="round"/>
<path d="M568.495 64.5871V96.8125H697.492V64.5871H568.495Z" stroke="black" stroke-width="0.533333" stroke-miterlimit="10" stroke-linejoin="round"/>
<path d="M52.5078 96.8137V129.039H181.505V96.8137H52.5078Z" stroke="black" stroke-width="0.533333" stroke-miterlimit="10" stroke-linejoin="round"/>
<path d="M310.501 96.8137V129.039H439.498V96.8137H310.501Z" stroke="black" stroke-width="0.533333" stroke-miterlimit="10" stroke-linejoin="round"/>
<path d="M439.499 96.8137V129.039H568.495V96.8137H439.499Z" stroke="black" stroke-width="0.533333" stroke-miterlimit="10" stroke-linejoin="round"/>
<path d="M568.495 96.8137V129.039H697.492V96.8137H568.495Z" stroke="black" stroke-width="0.533333" stroke-miterlimit="10" stroke-linejoin="round"/>
<path d="M52.5078 129.04V161.266H181.505V129.04H52.5078Z" stroke="black" stroke-width="0.533333" stroke-miterlimit="10" stroke-linejoin="round"/>
<path d="M310.501 129.04V161.266H439.498V129.04H310.501Z" stroke="black" stroke-width="0.533333" stroke-miterlimit="10" stroke-linejoin="round"/>
<path d="M439.499 129.04V161.266H568.495V129.04H439.499Z" stroke="black" stroke-width="0.533333" stroke-miterlimit="10" stroke-linejoin="round"/>
<path d="M568.495 129.04V161.266H697.492V129.04H568.495Z" stroke="black" stroke-width="0.533333" stroke-miterlimit="10" stroke-linejoin="round"/>
<path d="M52.5078 161.263V193.488H181.505V161.263H52.5078Z" stroke="black" stroke-width="0.533333" stroke-miterlimit="10" stroke-linejoin="round"/>
<path d="M310.501 161.263V193.488H439.498V161.263H310.501Z" stroke="black" stroke-width="0.533333" stroke-miterlimit="10" stroke-linejoin="round"/>
<path d="M439.499 161.263V193.488H568.495V161.263H439.499Z" stroke="black" stroke-width="0.533333" stroke-miterlimit="10" stroke-linejoin="round"/>
<path d="M568.495 161.263V193.488H697.492V161.263H568.495Z" stroke="black" stroke-width="0.533333" stroke-miterlimit="10" stroke-linejoin="round"/>
<path d="M83.9696 75.1012C83.9696 74.5033 83.4972 74.0312 82.8988 74.0312C82.269 74.0312 81.7966 74.5033 81.7966 75.1012C81.7966 75.6992 82.269 76.2027 82.8988 76.2027C83.4972 76.2027 83.9696 75.6992 83.9696 75.1012ZM79.8125 78.3741C79.4975 78.3741 78.8677 78.3741 78.8677 79.0665C78.8677 79.7903 79.4975 79.7903 79.8125 79.7903H82.3949V87.3746H79.655C79.3086 87.3746 78.6787 87.3746 78.6787 88.0669C78.6787 88.7592 79.3086 88.7592 79.655 88.7592H86.3631C86.678 88.7592 87.3079 88.7592 87.3079 88.0669C87.3079 87.3746 86.678 87.3746 86.3631 87.3746H83.9696V79.3812C83.9696 78.6259 83.8121 78.3741 82.9933 78.3741H79.8125Z" fill="black"/>
<path d="M99.1582 81.7078C99.1582 79.3475 98.0559 78.2461 96.0719 78.2461C94.4342 78.2461 93.3634 79.1587 92.954 79.5993C92.954 78.7181 92.954 78.372 92.0092 78.372H90.4031C90.0566 78.372 89.4268 78.372 89.4268 79.0643C89.4268 79.7881 90.0566 79.7881 90.4031 79.7881H91.3793V87.3724H90.4031C90.0566 87.3724 89.4268 87.3724 89.4268 88.0648C89.4268 88.7571 90.0566 88.7571 90.4031 88.7571H93.9618C94.2767 88.7571 94.9066 88.7571 94.9066 88.0648C94.9066 87.3724 94.2767 87.3724 93.9618 87.3724H92.954V82.9981C92.954 80.6693 94.5917 79.6308 95.8829 79.6308C97.3001 79.6308 97.5835 80.4175 97.5835 81.8022V87.3724H96.6072C96.2608 87.3724 95.631 87.3724 95.631 88.0648C95.631 88.7571 96.2608 88.7571 96.6072 88.7571H100.135C100.481 88.7571 101.111 88.7571 101.111 88.0648C101.111 87.3724 100.481 87.3724 100.135 87.3724H99.1582V81.7078Z" fill="black"/>
<path d="M106.662 79.7884H110.568C110.914 79.7884 111.544 79.7884 111.544 79.0646C111.544 78.3722 110.914 78.3722 110.568 78.3722H106.662V76.4211C106.662 75.9805 106.662 75.4141 105.907 75.4141C105.119 75.4141 105.119 75.9805 105.119 76.4211V78.3722H103.041C102.726 78.3722 102.064 78.3722 102.064 79.0646C102.064 79.7884 102.694 79.7884 103.041 79.7884H105.119V85.8307C105.119 88.0965 106.631 88.9147 108.395 88.9147C109.686 88.9147 112.079 88.2539 112.079 85.7992C112.079 85.3271 112.079 84.7921 111.261 84.7921C110.505 84.7921 110.505 85.3271 110.505 85.8307C110.473 87.2783 109.119 87.4986 108.552 87.4986C106.662 87.4986 106.662 86.3027 106.662 85.7362V79.7884Z" fill="black"/>
<path d="M121.284 74.5645C121.064 73.7148 120.591 73.7148 120.056 73.7148C119.3 73.7148 119.017 73.8093 118.828 74.5645L115.836 87.3729C115.049 87.3729 114.513 87.3729 114.513 88.0652C114.513 88.7575 115.143 88.7575 115.489 88.7575H117.788C118.135 88.7575 118.796 88.7575 118.796 88.0652C118.796 87.3729 118.198 87.3729 117.474 87.3729L118.103 84.6664H122.009L122.607 87.3729C121.883 87.3729 121.284 87.3729 121.284 88.0652C121.284 88.7575 121.946 88.7575 122.292 88.7575H124.591C124.937 88.7575 125.599 88.7575 125.599 88.0652C125.599 87.3729 125.032 87.3729 124.245 87.3729L121.284 74.5645ZM118.418 83.2817C118.576 82.5579 119.899 76.8619 120.025 75.6975H120.056C120.119 76.2639 120.465 77.743 120.465 77.743L121.694 83.2817H118.418Z" fill="black"/>
<path d="M344.798 79.0689C344.798 78.6912 344.798 78.1562 344.137 78.1562C343.57 78.1562 343.412 78.7227 343.412 78.7542C342.436 78.1562 341.334 78.1562 340.861 78.1562C336.925 78.1562 336.389 80.1703 336.389 80.9886C336.389 81.9641 336.988 82.6565 337.806 83.0971C338.562 83.5376 339.255 83.6635 341.239 83.9782C342.184 84.1356 344.105 84.4503 344.105 85.772C344.105 86.6532 343.286 87.5029 341.05 87.5029C339.507 87.5029 338.499 86.9049 337.995 85.1741C337.869 84.8279 337.806 84.5761 337.208 84.5761C336.389 84.5761 336.389 85.0167 336.389 85.5202V88.0064C336.389 88.384 336.389 88.919 337.082 88.919C337.365 88.919 337.586 88.919 337.932 87.912C339.035 88.8246 340.294 88.919 341.05 88.919C345.491 88.919 345.491 86.0238 345.491 85.772C345.491 83.2859 342.53 82.7824 341.365 82.5935C339.255 82.2474 337.806 81.9956 337.806 80.9886C337.806 80.3277 338.531 79.5724 340.798 79.5724C343.097 79.5724 343.192 80.6424 343.255 81.2718C343.286 81.7438 343.727 81.8382 344.011 81.8382C344.798 81.8382 344.798 81.3977 344.798 80.9256V79.0689Z" fill="black"/>
<path d="M352.271 79.7923H356.176C356.522 79.7923 357.152 79.7923 357.152 79.0685C357.152 78.3762 356.522 78.3762 356.176 78.3762H352.271V76.425C352.271 75.9844 352.271 75.418 351.515 75.418C350.727 75.418 350.727 75.9844 350.727 76.425V78.3762H348.649C348.334 78.3762 347.673 78.3762 347.673 79.0685C347.673 79.7923 348.302 79.7923 348.649 79.7923H350.727V85.8346C350.727 88.1004 352.239 88.9186 354.003 88.9186C355.294 88.9186 357.688 88.2578 357.688 85.8031C357.688 85.331 357.688 84.7961 356.869 84.7961C356.113 84.7961 356.113 85.331 356.113 85.8346C356.081 87.2822 354.727 87.5025 354.16 87.5025C352.271 87.5025 352.271 86.3066 352.271 85.7402V79.7923Z" fill="black"/>
<path d="M364.656 84.1978C364.656 81.3341 366.672 79.6347 368.751 79.6347C368.845 79.6347 369.002 79.6347 369.128 79.6662C369.191 80.5158 369.853 80.6103 370.042 80.6103C370.577 80.6103 370.987 80.2011 370.987 79.6662C370.987 78.6276 369.979 78.25 368.751 78.25C367.144 78.25 365.759 78.9738 364.656 80.2956V79.3829C364.656 78.6276 364.53 78.3759 363.712 78.3759H361.255C360.94 78.3759 360.31 78.3759 360.31 79.0682C360.31 79.792 360.94 79.792 361.255 79.792H363.113V87.3763H361.255C360.94 87.3763 360.31 87.3763 360.31 88.0687C360.31 88.761 360.94 88.761 361.255 88.761H367.207C367.522 88.761 368.152 88.761 368.152 88.0687C368.152 87.3763 367.522 87.3763 367.207 87.3763H364.656V84.1978Z" fill="black"/>
<path d="M379.121 75.1051C379.121 74.5072 378.648 74.0352 378.05 74.0352C377.42 74.0352 376.948 74.5072 376.948 75.1051C376.948 75.7031 377.42 76.2066 378.05 76.2066C378.648 76.2066 379.121 75.7031 379.121 75.1051ZM374.964 78.378C374.649 78.378 374.019 78.378 374.019 79.0704C374.019 79.7942 374.649 79.7942 374.964 79.7942H377.546V87.3785H374.806C374.46 87.3785 373.83 87.3785 373.83 88.0708C373.83 88.7631 374.46 88.7631 374.806 88.7631H381.514C381.829 88.7631 382.459 88.7631 382.459 88.0708C382.459 87.3785 381.829 87.3785 381.514 87.3785H379.121V79.3851C379.121 78.6298 378.963 78.378 378.144 78.378H374.964Z" fill="black"/>
<path d="M394.309 81.7117C394.309 79.3515 393.207 78.25 391.223 78.25C389.585 78.25 388.515 79.1626 388.105 79.6032C388.105 78.7221 388.105 78.3759 387.16 78.3759H385.554C385.208 78.3759 384.578 78.3759 384.578 79.0682C384.578 79.792 385.208 79.792 385.554 79.792H386.53V87.3763H385.554C385.208 87.3763 384.578 87.3763 384.578 88.0687C384.578 88.761 385.208 88.761 385.554 88.761H389.113C389.428 88.761 390.058 88.761 390.058 88.0687C390.058 87.3763 389.428 87.3763 389.113 87.3763H388.105V83.002C388.105 80.6732 389.743 79.6347 391.034 79.6347C392.451 79.6347 392.735 80.4214 392.735 81.8061V87.3763H391.758C391.412 87.3763 390.782 87.3763 390.782 88.0687C390.782 88.761 391.412 88.761 391.758 88.761H395.286C395.632 88.761 396.262 88.761 396.262 88.0687C396.262 87.3763 395.632 87.3763 395.286 87.3763H394.309V81.7117Z" fill="black"/>
<path d="M401.184 87.283C400.9 87.283 399.798 87.283 399.798 85.9927C399.798 85.5207 399.861 85.4263 399.956 85.2375C400.459 85.5836 401.247 85.8983 402.097 85.8983C404.302 85.8983 406.002 84.136 406.002 82.059C406.002 81.461 405.845 80.7058 405.341 79.919C405.971 79.6043 406.538 79.5099 406.916 79.4784C407.042 80.2337 407.734 80.2652 407.766 80.2652C408.049 80.2652 408.648 80.0764 408.648 79.3526C408.648 78.8805 408.301 78.0938 406.947 78.0938C406.506 78.0938 405.435 78.1882 404.428 78.9749C403.64 78.4399 402.821 78.2511 402.129 78.2511C399.956 78.2511 398.255 80.0134 398.255 82.059C398.255 82.594 398.381 83.5066 399.042 84.3878C398.601 85.0486 398.507 85.7724 398.507 86.0557C398.507 86.9054 398.916 87.5977 399.137 87.7865C397.782 88.5103 397.31 89.8321 397.31 90.7447C397.31 92.7588 399.735 94.2694 402.821 94.2694C405.876 94.2694 408.301 92.7903 408.301 90.7447C408.301 87.283 404.05 87.283 403.231 87.283H401.184ZM402.097 84.5451C400.9 84.5451 399.83 83.4751 399.83 82.059C399.83 80.6428 400.932 79.6043 402.097 79.6043C403.388 79.6043 404.428 80.7058 404.428 82.059C404.428 83.4437 403.388 84.5451 402.097 84.5451ZM402.821 92.9162C400.459 92.9162 398.696 91.8776 398.696 90.7447C398.696 90.3985 398.822 89.5489 399.704 89.0139C400.27 88.6362 400.491 88.6362 402.16 88.6362C404.27 88.6362 406.916 88.6362 406.916 90.7447C406.916 91.8776 405.183 92.9162 402.821 92.9162Z" fill="black"/>
<path d="M416.435 74.5684C416.215 73.7188 415.742 73.7188 415.207 73.7188C414.451 73.7188 414.168 73.8132 413.979 74.5684L410.987 87.3768C410.199 87.3768 409.664 87.3768 409.664 88.0691C409.664 88.7614 410.294 88.7614 410.64 88.7614H412.939C413.286 88.7614 413.947 88.7614 413.947 88.0691C413.947 87.3768 413.349 87.3768 412.624 87.3768L413.254 84.6703H417.159L417.758 87.3768C417.034 87.3768 416.435 87.3768 416.435 88.0691C416.435 88.7614 417.097 88.7614 417.443 88.7614H419.742C420.088 88.7614 420.75 88.7614 420.75 88.0691C420.75 87.3768 420.183 87.3768 419.396 87.3768L416.435 74.5684ZM413.569 83.2857C413.727 82.5618 415.049 76.8658 415.175 75.7014H415.207C415.27 76.2678 415.616 77.7469 415.616 77.7469L416.845 83.2857H413.569Z" fill="black"/>
<path d="M470.96 75.0973C470.96 74.4994 470.488 74.0273 469.89 74.0273C469.26 74.0273 468.787 74.4994 468.787 75.0973C468.787 75.6953 469.26 76.1988 469.89 76.1988C470.488 76.1988 470.96 75.6953 470.96 75.0973ZM466.803 78.3702C466.488 78.3702 465.858 78.3702 465.858 79.0626C465.858 79.7864 466.488 79.7864 466.803 79.7864H469.386V87.3707H466.646C466.299 87.3707 465.669 87.3707 465.669 88.063C465.669 88.7553 466.299 88.7553 466.646 88.7553H473.354C473.669 88.7553 474.299 88.7553 474.299 88.063C474.299 87.3707 473.669 87.3707 473.354 87.3707H470.96V79.3773C470.96 78.622 470.803 78.3702 469.984 78.3702H466.803Z" fill="black"/>
<path d="M486.149 81.7078C486.149 79.3475 485.047 78.2461 483.063 78.2461C481.425 78.2461 480.354 79.1587 479.945 79.5993C479.945 78.7181 479.945 78.372 479 78.372H477.394C477.047 78.372 476.417 78.372 476.417 79.0643C476.417 79.7881 477.047 79.7881 477.394 79.7881H478.37V87.3724H477.394C477.047 87.3724 476.417 87.3724 476.417 88.0648C476.417 88.7571 477.047 88.7571 477.394 88.7571H480.953C481.267 88.7571 481.897 88.7571 481.897 88.0648C481.897 87.3724 481.267 87.3724 480.953 87.3724H479.945V82.9981C479.945 80.6693 481.582 79.6308 482.874 79.6308C484.291 79.6308 484.574 80.4175 484.574 81.8022V87.3724H483.598C483.252 87.3724 482.622 87.3724 482.622 88.0648C482.622 88.7571 483.252 88.7571 483.598 88.7571H487.125C487.472 88.7571 488.102 88.7571 488.102 88.0648C488.102 87.3724 487.472 87.3724 487.125 87.3724H486.149V81.7078Z" fill="black"/>
<path d="M493.653 79.7845H497.558C497.905 79.7845 498.535 79.7845 498.535 79.0607C498.535 78.3683 497.905 78.3683 497.558 78.3683H493.653V76.4172C493.653 75.9766 493.653 75.4102 492.897 75.4102C492.11 75.4102 492.11 75.9766 492.11 76.4172V78.3683H490.031C489.717 78.3683 489.055 78.3683 489.055 79.0607C489.055 79.7845 489.685 79.7845 490.031 79.7845H492.11V85.8267C492.11 88.0926 493.622 88.9108 495.385 88.9108C496.677 88.9108 499.07 88.2499 499.07 85.7953C499.07 85.3232 499.07 84.7882 498.251 84.7882C497.495 84.7882 497.495 85.3232 497.495 85.8267C497.464 87.2744 496.11 87.4947 495.543 87.4947C493.653 87.4947 493.653 86.2988 493.653 85.7323V79.7845Z" fill="black"/>
<path d="M502.417 74.0586C502.102 74.0586 501.472 74.0586 501.472 74.7509C501.472 75.4433 502.134 75.4433 502.449 75.4433H503.047V87.3704H502.449C502.134 87.3704 501.472 87.3704 501.472 88.0628C501.472 88.7551 502.134 88.7551 502.417 88.7551H508.149C510.826 88.7551 512.243 86.6466 512.243 84.7269C512.243 83.0276 511.046 81.4541 509.157 81.0449C510.354 80.6673 511.739 79.5029 511.739 77.7721C511.739 76.0097 510.322 74.0586 507.645 74.0586H502.417ZM504.59 80.4155V75.4433H507.582C509.598 75.4433 510.165 76.9224 510.165 77.8035C510.165 78.9365 509.22 80.4155 507.204 80.4155H504.59ZM504.59 87.3704V81.8002H507.771C510.196 81.8002 510.668 83.8773 510.668 84.6955C510.668 85.8599 509.755 87.3704 507.614 87.3704H504.59Z" fill="black"/>
<path d="M602.792 79.0689C602.792 78.6912 602.792 78.1562 602.13 78.1562C601.563 78.1562 601.406 78.7227 601.406 78.7542C600.43 78.1562 599.327 78.1562 598.855 78.1562C594.918 78.1562 594.383 80.1703 594.383 80.9886C594.383 81.9641 594.981 82.6565 595.8 83.0971C596.556 83.5376 597.249 83.6635 599.233 83.9782C600.178 84.1356 602.099 84.4503 602.099 85.772C602.099 86.6532 601.28 87.5029 599.044 87.5029C597.501 87.5029 596.493 86.9049 595.989 85.1741C595.863 84.8279 595.8 84.5761 595.202 84.5761C594.383 84.5761 594.383 85.0167 594.383 85.5202V88.0064C594.383 88.384 594.383 88.919 595.076 88.919C595.359 88.919 595.58 88.919 595.926 87.912C597.028 88.8246 598.288 88.919 599.044 88.919C603.484 88.919 603.484 86.0238 603.484 85.772C603.484 83.2859 600.524 82.7824 599.359 82.5935C597.249 82.2474 595.8 81.9956 595.8 80.9886C595.8 80.3277 596.524 79.5724 598.792 79.5724C601.091 79.5724 601.185 80.6424 601.248 81.2718C601.28 81.7438 601.721 81.8382 602.004 81.8382C602.792 81.8382 602.792 81.3977 602.792 80.9256V79.0689Z" fill="black"/>
<path d="M610.264 79.7923H614.169C614.516 79.7923 615.146 79.7923 615.146 79.0685C615.146 78.3762 614.516 78.3762 614.169 78.3762H610.264V76.425C610.264 75.9844 610.264 75.418 609.508 75.418C608.721 75.418 608.721 75.9844 608.721 76.425V78.3762H606.643C606.328 78.3762 605.666 78.3762 605.666 79.0685C605.666 79.7923 606.296 79.7923 606.643 79.7923H608.721V85.8346C608.721 88.1004 610.233 88.9186 611.996 88.9186C613.288 88.9186 615.681 88.2578 615.681 85.8031C615.681 85.331 615.681 84.7961 614.862 84.7961C614.106 84.7961 614.106 85.331 614.106 85.8346C614.075 87.2822 612.721 87.5025 612.154 87.5025C610.264 87.5025 610.264 86.3066 610.264 85.7402V79.7923Z" fill="black"/>
<path d="M622.65 84.2017C622.65 81.338 624.666 79.6386 626.744 79.6386C626.839 79.6386 626.996 79.6386 627.122 79.6701C627.185 80.5198 627.846 80.6142 628.035 80.6142C628.571 80.6142 628.98 80.2051 628.98 79.6701C628.98 78.6315 627.972 78.2539 626.744 78.2539C625.138 78.2539 623.752 78.9777 622.65 80.2995V79.3868C622.65 78.6315 622.524 78.3798 621.705 78.3798H619.249C618.934 78.3798 618.304 78.3798 618.304 79.0721C618.304 79.7959 618.934 79.7959 619.249 79.7959H621.107V87.3802H619.249C618.934 87.3802 618.304 87.3802 618.304 88.0726C618.304 88.7649 618.934 88.7649 619.249 88.7649H625.201C625.516 88.7649 626.146 88.7649 626.146 88.0726C626.146 87.3802 625.516 87.3802 625.201 87.3802H622.65V84.2017Z" fill="black"/>
<path d="M637.114 75.1051C637.114 74.5072 636.642 74.0352 636.044 74.0352C635.414 74.0352 634.941 74.5072 634.941 75.1051C634.941 75.7031 635.414 76.2066 636.044 76.2066C636.642 76.2066 637.114 75.7031 637.114 75.1051ZM632.957 78.378C632.642 78.378 632.012 78.378 632.012 79.0704C632.012 79.7942 632.642 79.7942 632.957 79.7942H635.54V87.3785H632.8C632.453 87.3785 631.823 87.3785 631.823 88.0708C631.823 88.7631 632.453 88.7631 632.8 88.7631H639.508C639.823 88.7631 640.453 88.7631 640.453 88.0708C640.453 87.3785 639.823 87.3785 639.508 87.3785H637.114V79.3851C637.114 78.6298 636.957 78.378 636.138 78.378H632.957Z" fill="black"/>
<path d="M652.303 81.7156C652.303 79.3554 651.201 78.2539 649.217 78.2539C647.579 78.2539 646.508 79.1665 646.099 79.6071C646.099 78.726 646.099 78.3798 645.154 78.3798H643.548C643.201 78.3798 642.572 78.3798 642.572 79.0721C642.572 79.7959 643.201 79.7959 643.548 79.7959H644.524V87.3802H643.548C643.201 87.3802 642.572 87.3802 642.572 88.0726C642.572 88.7649 643.201 88.7649 643.548 88.7649H647.107C647.422 88.7649 648.051 88.7649 648.051 88.0726C648.051 87.3802 647.422 87.3802 647.107 87.3802H646.099V83.0059C646.099 80.6771 647.736 79.6386 649.028 79.6386C650.445 79.6386 650.728 80.4253 650.728 81.81V87.3802H649.752C649.406 87.3802 648.776 87.3802 648.776 88.0726C648.776 88.7649 649.406 88.7649 649.752 88.7649H653.279C653.626 88.7649 654.256 88.7649 654.256 88.0726C654.256 87.3802 653.626 87.3802 653.279 87.3802H652.303V81.7156Z" fill="black"/>
<path d="M659.177 87.283C658.894 87.283 657.792 87.283 657.792 85.9927C657.792 85.5207 657.855 85.4263 657.949 85.2375C658.453 85.5836 659.24 85.8983 660.091 85.8983C662.295 85.8983 663.996 84.136 663.996 82.059C663.996 81.461 663.838 80.7058 663.335 79.919C663.964 79.6043 664.531 79.5099 664.909 79.4784C665.035 80.2337 665.728 80.2652 665.76 80.2652C666.043 80.2652 666.641 80.0764 666.641 79.3526C666.641 78.8805 666.295 78.0938 664.941 78.0938C664.5 78.0938 663.429 78.1882 662.421 78.9749C661.634 78.4399 660.815 78.2511 660.122 78.2511C657.949 78.2511 656.249 80.0134 656.249 82.059C656.249 82.594 656.374 83.5066 657.036 84.3878C656.595 85.0486 656.5 85.7724 656.5 86.0557C656.5 86.9054 656.91 87.5977 657.13 87.7865C655.776 88.5103 655.304 89.8321 655.304 90.7447C655.304 92.7588 657.729 94.2694 660.815 94.2694C663.87 94.2694 666.295 92.7903 666.295 90.7447C666.295 87.283 662.043 87.283 661.224 87.283H659.177ZM660.091 84.5451C658.894 84.5451 657.823 83.4751 657.823 82.059C657.823 80.6428 658.925 79.6043 660.091 79.6043C661.382 79.6043 662.421 80.7058 662.421 82.059C662.421 83.4437 661.382 84.5451 660.091 84.5451ZM660.815 92.9162C658.453 92.9162 656.689 91.8776 656.689 90.7447C656.689 90.3985 656.815 89.5489 657.697 89.0139C658.264 88.6362 658.485 88.6362 660.154 88.6362C662.264 88.6362 664.909 88.6362 664.909 90.7447C664.909 91.8776 663.177 92.9162 660.815 92.9162Z" fill="black"/>
<path d="M668.571 74.0664C668.256 74.0664 667.626 74.0664 667.626 74.7587C667.626 75.4511 668.288 75.4511 668.603 75.4511H669.201V87.3782H668.603C668.288 87.3782 667.626 87.3782 667.626 88.0706C667.626 88.7629 668.288 88.7629 668.571 88.7629H674.303C676.98 88.7629 678.397 86.6544 678.397 84.7348C678.397 83.0354 677.2 81.4619 675.311 81.0528C676.508 80.6751 677.893 79.5107 677.893 77.7799C677.893 76.0176 676.476 74.0664 673.799 74.0664H668.571ZM670.744 80.4234V75.4511H673.736C675.752 75.4511 676.319 76.9302 676.319 77.8113C676.319 78.9443 675.374 80.4234 673.358 80.4234H670.744ZM670.744 87.3782V81.808H673.925C676.35 81.808 676.823 83.8851 676.823 84.7033C676.823 85.8677 675.909 87.3782 673.768 87.3782H670.744Z" fill="black"/>
<path d="M82.8676 113.746C85.3555 113.746 86.4893 115.508 86.4893 116.798C86.4893 118.372 85.0721 119.882 82.962 119.882C80.537 119.882 79.4663 118.592 79.4663 118.246C79.4663 118.183 79.4978 118.152 79.5293 118.12C79.6237 117.963 79.6867 117.742 79.6867 117.554C79.6867 117.05 79.3088 116.578 78.7104 116.578C78.2065 116.578 77.7341 116.893 77.7341 117.648C77.7341 119.725 80.0331 121.267 82.962 121.267C85.9854 121.267 88.0325 119.096 88.0325 116.83C88.0325 115.602 87.3711 113.872 85.261 112.959C86.7097 112.046 87.3711 110.599 87.3711 109.371C87.3711 107.546 85.576 105.973 82.962 105.973C80.2851 105.973 78.3955 107.137 78.3955 108.931C78.3955 109.718 78.9939 109.969 79.4033 109.969C79.8127 109.969 80.3481 109.623 80.3481 108.962C80.3481 108.585 80.1591 108.364 80.1591 108.333C80.8835 107.42 82.5526 107.389 82.962 107.389C84.5997 107.389 85.7964 108.239 85.7964 109.371C85.7964 110.064 85.3555 112.078 82.8046 112.235C81.9228 112.298 81.5448 112.33 81.4503 112.33C80.9465 112.393 80.852 112.707 80.852 113.053C80.852 113.746 81.3559 113.746 81.7653 113.746H82.8676Z" fill="black"/>
<path d="M98.0877 107.672C93.3952 112.865 93.1432 118.624 93.1432 120.198C93.1432 120.512 93.1432 121.268 93.9306 121.268C94.6549 121.268 94.6864 120.512 94.6864 120.198C94.7809 115.477 96.7335 111.008 100.072 107.61C100.324 107.389 100.418 107.295 100.418 106.98C100.418 106.288 99.7883 106.288 99.4734 106.288H91.6001C91.6001 106.256 91.4741 105.91 90.9072 105.91C90.1199 105.91 90.1199 106.445 90.1199 106.886V107.767C90.1199 108.207 90.1199 108.742 90.8757 108.742C91.6945 108.742 91.6945 108.239 91.6945 107.672H98.0877Z" fill="black"/>
<path d="M82.8676 145.968C85.3555 145.968 86.4893 147.731 86.4893 149.021C86.4893 150.595 85.0721 152.105 82.962 152.105C80.537 152.105 79.4663 150.815 79.4663 150.469C79.4663 150.406 79.4978 150.374 79.5293 150.343C79.6237 150.185 79.6867 149.965 79.6867 149.776C79.6867 149.273 79.3088 148.801 78.7104 148.801C78.2065 148.801 77.7341 149.115 77.7341 149.871C77.7341 151.948 80.0331 153.49 82.962 153.49C85.9854 153.49 88.0325 151.318 88.0325 149.052C88.0325 147.825 87.3711 146.094 85.261 145.182C86.7097 144.269 87.3711 142.821 87.3711 141.594C87.3711 139.769 85.576 138.195 82.962 138.195C80.2851 138.195 78.3955 139.36 78.3955 141.153C78.3955 141.94 78.9939 142.192 79.4033 142.192C79.8127 142.192 80.3481 141.846 80.3481 141.185C80.3481 140.807 80.1591 140.587 80.1591 140.556C80.8835 139.643 82.5526 139.611 82.962 139.611C84.5997 139.611 85.7964 140.461 85.7964 141.594C85.7964 142.286 85.3555 144.301 82.8046 144.458C81.9228 144.521 81.5448 144.552 81.4503 144.552C80.9465 144.615 80.852 144.93 80.852 145.276C80.852 145.968 81.3559 145.968 81.7653 145.968H82.8676Z" fill="black"/>
<path d="M98.0877 139.895C93.3952 145.088 93.1432 150.847 93.1432 152.42C93.1432 152.735 93.1432 153.49 93.9306 153.49C94.6549 153.49 94.6864 152.735 94.6864 152.42C94.7809 147.7 96.7335 143.231 100.072 139.832C100.324 139.612 100.418 139.517 100.418 139.203C100.418 138.51 99.7883 138.51 99.4734 138.51H91.6001C91.6001 138.479 91.4741 138.133 90.9072 138.133C90.1199 138.133 90.1199 138.668 90.1199 139.108V139.99C90.1199 140.43 90.1199 140.965 90.8757 140.965C91.6945 140.965 91.6945 140.462 91.6945 139.895H98.0877Z" fill="black"/>
<path d="M77.6081 179.643C77.3877 179.958 77.3877 180.02 77.3877 180.461C77.3877 181.279 77.7026 181.374 78.364 181.374H84.2533V184.049H82.8046C82.4896 184.049 81.8598 184.049 81.8598 184.741C81.8598 185.433 82.4896 185.433 82.8046 185.433H87.0562C87.4026 185.433 88.0325 185.433 88.0325 184.741C88.0325 184.049 87.4026 184.049 87.0562 184.049H85.6075V181.374H87.4026C87.749 181.374 88.3789 181.374 88.3789 180.681C88.3789 179.989 87.749 179.989 87.4026 179.989H85.6075V171.366C85.6075 170.579 85.45 170.391 84.6312 170.391H84.0643C83.4974 170.391 83.3714 170.422 83.088 170.863L77.6081 179.643ZM78.9939 179.989L84.2533 171.555V179.989H78.9939Z" fill="black"/>
<path d="M97.4578 180.146C97.8043 179.863 100.229 177.786 100.229 175.111C100.229 172.373 97.9617 170.422 94.9699 170.422C92.1669 170.422 90.3088 172.53 90.3088 174.544C90.3088 175.551 91.1592 175.646 91.2851 175.646C91.726 175.646 92.2614 175.3 92.2614 174.639C92.2614 174.198 92.104 174.041 91.978 173.947C92.3244 172.688 93.4267 171.838 94.8124 171.838C96.8595 171.838 98.6546 173.002 98.6546 175.111C98.6546 176.968 97.2374 178.415 95.9462 179.548L90.6553 184.143C90.3718 184.363 90.3088 184.458 90.3088 184.741C90.3088 185.433 90.9702 185.433 91.2851 185.433H99.6939C100.229 185.276 100.229 184.804 100.229 184.458V183.954C100.229 183.513 100.229 182.947 99.4734 182.947C98.6546 182.947 98.6546 183.45 98.6546 184.048H92.8598L97.4578 180.146Z" fill="black"/>
<path d="M464.599 115.194C464.378 115.508 464.378 115.571 464.378 116.012C464.378 116.83 464.693 116.924 465.354 116.924H471.244V119.599H469.795C469.48 119.599 468.85 119.599 468.85 120.292C468.85 120.984 469.48 120.984 469.795 120.984H474.047C474.393 120.984 475.023 120.984 475.023 120.292C475.023 119.599 474.393 119.599 474.047 119.599H472.598V116.924H474.393C474.739 116.924 475.369 116.924 475.369 116.232C475.369 115.54 474.739 115.54 474.393 115.54H472.598V106.917C472.598 106.13 472.44 105.941 471.622 105.941H471.055C470.488 105.941 470.362 105.973 470.078 106.413L464.599 115.194ZM465.984 115.54L471.244 107.106V115.54H465.984Z" fill="black"/>
<path d="M484.448 115.697C484.795 115.414 487.22 113.337 487.22 110.662C487.22 107.924 484.952 105.973 481.96 105.973C479.157 105.973 477.299 108.081 477.299 110.095C477.299 111.102 478.15 111.197 478.276 111.197C478.717 111.197 479.252 110.851 479.252 110.19C479.252 109.749 479.094 109.592 478.968 109.497C479.315 108.239 480.417 107.389 481.803 107.389C483.85 107.389 485.645 108.553 485.645 110.662C485.645 112.518 484.228 113.966 482.937 115.099L477.646 119.694C477.362 119.914 477.299 120.008 477.299 120.292C477.299 120.984 477.961 120.984 478.276 120.984H486.684C487.22 120.827 487.22 120.354 487.22 120.008V119.505C487.22 119.064 487.22 118.498 486.464 118.498C485.645 118.498 485.645 119.001 485.645 119.599H479.85L484.448 115.697Z" fill="black"/>
<path d="M466.551 177.408C466.803 174.23 468.882 171.838 471.244 171.838C471.748 171.838 472.283 171.901 472.661 172.279C472.566 172.404 472.44 172.53 472.44 172.877C472.44 173.349 472.787 173.852 473.417 173.852C474.047 173.852 474.393 173.412 474.393 172.845C474.393 171.555 473.417 170.422 471.275 170.422C468.126 170.422 464.977 173.38 464.977 178.226C464.977 184.048 467.622 185.716 469.921 185.716C472.503 185.716 474.802 183.671 474.802 180.776C474.802 177.975 472.692 175.866 470.204 175.866C468.976 175.866 467.591 176.307 466.551 177.408ZM469.921 184.332C467.339 184.332 466.803 181.059 466.803 181.027C466.803 180.996 466.835 180.87 466.835 180.807C466.835 180.681 466.74 180.366 466.74 180.052C466.74 178.667 468.031 177.282 470.016 177.282C471.905 177.282 473.228 178.887 473.228 180.776C473.228 182.884 471.653 184.332 469.921 184.332Z" fill="black"/>
<path d="M478.937 177.408C479.189 174.23 481.267 171.838 483.629 171.838C484.133 171.838 484.669 171.901 485.047 172.279C484.952 172.404 484.826 172.53 484.826 172.877C484.826 173.349 485.173 173.852 485.803 173.852C486.432 173.852 486.779 173.412 486.779 172.845C486.779 171.555 485.803 170.422 483.661 170.422C480.512 170.422 477.362 173.38 477.362 178.226C477.362 184.048 480.008 185.716 482.307 185.716C484.889 185.716 487.188 183.671 487.188 180.776C487.188 177.975 485.078 175.866 482.59 175.866C481.362 175.866 479.976 176.307 478.937 177.408ZM482.307 184.332C479.724 184.332 479.189 181.059 479.189 181.027C479.189 180.996 479.22 180.87 479.22 180.807C479.22 180.681 479.126 180.366 479.126 180.052C479.126 178.667 480.417 177.282 482.401 177.282C484.291 177.282 485.614 178.887 485.614 180.776C485.614 182.884 484.039 184.332 482.307 184.332Z" fill="black"/>
<path d="M466.551 145.182C466.803 142.003 468.882 139.611 471.244 139.611C471.748 139.611 472.283 139.674 472.661 140.052C472.566 140.178 472.44 140.304 472.44 140.65C472.44 141.122 472.787 141.626 473.417 141.626C474.047 141.626 474.393 141.185 474.393 140.619C474.393 139.328 473.417 138.195 471.275 138.195C468.126 138.195 464.977 141.153 464.977 146C464.977 151.822 467.622 153.49 469.921 153.49C472.503 153.49 474.802 151.444 474.802 148.549C474.802 145.748 472.692 143.64 470.204 143.64C468.976 143.64 467.591 144.08 466.551 145.182ZM469.921 152.105C467.339 152.105 466.803 148.832 466.803 148.801C466.803 148.769 466.835 148.643 466.835 148.58C466.835 148.455 466.74 148.14 466.74 147.825C466.74 146.44 468.031 145.056 470.016 145.056C471.905 145.056 473.228 146.661 473.228 148.549C473.228 150.657 471.653 152.105 469.921 152.105Z" fill="black"/>
<path d="M478.937 145.182C479.189 142.003 481.267 139.611 483.629 139.611C484.133 139.611 484.669 139.674 485.047 140.052C484.952 140.178 484.826 140.304 484.826 140.65C484.826 141.122 485.173 141.626 485.803 141.626C486.432 141.626 486.779 141.185 486.779 140.619C486.779 139.328 485.803 138.195 483.661 138.195C480.512 138.195 477.362 141.153 477.362 146C477.362 151.822 480.008 153.49 482.307 153.49C484.889 153.49 487.188 151.444 487.188 148.549C487.188 145.748 485.078 143.64 482.59 143.64C481.362 143.64 479.976 144.08 478.937 145.182ZM482.307 152.105C479.724 152.105 479.189 148.832 479.189 148.801C479.189 148.769 479.22 148.643 479.22 148.58C479.22 148.455 479.126 148.14 479.126 147.825C479.126 146.44 480.417 145.056 482.401 145.056C484.291 145.056 485.614 146.661 485.614 148.549C485.614 150.657 484.039 152.105 482.307 152.105Z" fill="black"/>
<path d="M345.869 113.651C345.869 109.151 343.475 105.973 340.893 105.973C338.247 105.973 335.885 109.214 335.885 113.62C335.885 118.089 338.279 121.267 340.893 121.267C343.507 121.267 345.869 118.057 345.869 113.651ZM340.893 119.882C338.972 119.882 337.46 116.956 337.46 113.368C337.46 109.781 339.129 107.389 340.893 107.389C342.625 107.389 344.294 109.781 344.294 113.368C344.294 116.924 342.782 119.882 340.893 119.882Z" fill="black"/>
<path d="M602.036 107.67C602.382 107.67 602.981 107.67 602.981 106.977C602.981 106.285 602.382 106.285 602.036 106.285H595.769C594.981 106.285 594.792 106.474 594.792 107.198V113.649C594.792 113.964 594.792 114.593 595.517 114.593C595.926 114.593 596.021 114.467 596.21 114.216C596.934 113.366 597.973 112.988 599.233 112.988C601.123 112.988 602.256 114.688 602.256 116.419C602.256 118.37 600.587 119.88 598.572 119.88C597.312 119.88 596.021 119.282 595.611 118.149C595.706 118.055 595.863 117.866 595.863 117.457C595.863 116.796 595.296 116.45 594.887 116.45C594.666 116.45 593.911 116.576 593.911 117.52C593.911 119.534 595.926 121.265 598.572 121.265C601.469 121.265 603.831 119.093 603.831 116.419C603.831 113.964 602.036 111.604 599.233 111.604C598.446 111.604 597.375 111.729 596.367 112.296V107.67H602.036Z" fill="black"/>
<path d="M345.869 145.874C345.869 141.374 343.475 138.195 340.893 138.195C338.247 138.195 335.885 141.437 335.885 145.843C335.885 150.311 338.279 153.49 340.893 153.49C343.507 153.49 345.869 150.28 345.869 145.874ZM340.893 152.105C338.972 152.105 337.46 149.178 337.46 145.591C337.46 142.003 339.129 139.611 340.893 139.611C342.625 139.611 344.294 142.003 344.294 145.591C344.294 149.147 342.782 152.105 340.893 152.105Z" fill="black"/>
<path d="M598.855 145.968C601.343 145.968 602.477 147.731 602.477 149.021C602.477 150.595 601.06 152.105 598.95 152.105C596.525 152.105 595.454 150.815 595.454 150.469C595.454 150.406 595.485 150.374 595.517 150.343C595.611 150.185 595.674 149.965 595.674 149.776C595.674 149.273 595.296 148.801 594.698 148.801C594.194 148.801 593.722 149.115 593.722 149.871C593.722 151.948 596.021 153.49 598.95 153.49C601.973 153.49 604.02 151.318 604.02 149.052C604.02 147.825 603.359 146.094 601.249 145.182C602.697 144.269 603.359 142.821 603.359 141.594C603.359 139.769 601.564 138.195 598.95 138.195C596.273 138.195 594.383 139.36 594.383 141.153C594.383 141.94 594.981 142.192 595.391 142.192C595.8 142.192 596.336 141.846 596.336 141.185C596.336 140.807 596.147 140.587 596.147 140.556C596.871 139.643 598.54 139.611 598.95 139.611C600.587 139.611 601.784 140.461 601.784 141.594C601.784 142.286 601.343 144.301 598.792 144.458C597.91 144.521 597.532 144.552 597.438 144.552C596.934 144.615 596.84 144.93 596.84 145.276C596.84 145.968 597.343 145.968 597.753 145.968H598.855Z" fill="black"/>
<path d="M345.869 178.101C345.869 173.6 343.475 170.422 340.893 170.422C338.247 170.422 335.885 173.663 335.885 178.069C335.885 182.538 338.279 185.716 340.893 185.716C343.507 185.716 345.869 182.506 345.869 178.101ZM340.893 184.332C338.972 184.332 337.46 181.405 337.46 177.817C337.46 174.23 339.129 171.838 340.893 171.838C342.625 171.838 344.294 174.23 344.294 177.817C344.294 181.373 342.782 184.332 340.893 184.332Z" fill="black"/>
<path d="M600.02 171.429C600.02 171.051 600.02 170.422 599.296 170.422C598.886 170.422 598.76 170.642 598.603 170.957C598.162 171.995 597.343 173.286 596.083 173.38C595.706 173.412 595.202 173.443 595.202 174.072C595.202 174.482 595.454 174.765 595.989 174.765C597.343 174.765 598.382 173.758 598.445 173.695V184.048H596.335C595.989 184.048 595.328 184.048 595.328 184.741C595.328 185.433 595.989 185.433 596.335 185.433H602.13C602.477 185.433 603.106 185.433 603.106 184.741C603.106 184.048 602.477 184.048 602.13 184.048H600.02V171.429Z" fill="black"/>
<path d="M616.248 178.101C616.248 173.6 613.855 170.422 611.272 170.422C608.627 170.422 606.265 173.663 606.265 178.069C606.265 182.538 608.658 185.716 611.272 185.716C613.886 185.716 616.248 182.506 616.248 178.101ZM611.272 184.332C609.351 184.332 607.839 181.405 607.839 177.817C607.839 174.23 609.508 171.838 611.272 171.838C613.004 171.838 614.673 174.23 614.673 177.817C614.673 181.373 613.162 184.332 611.272 184.332Z" fill="black"/>
<path d="M375 225.716V257.941H471.748V225.716H375Z" stroke="black" stroke-width="0.533333" stroke-miterlimit="10" stroke-linejoin="round"/>
<path d="M471.748 225.716V257.941H632.994V225.716H471.748Z" stroke="black" stroke-width="0.533333" stroke-miterlimit="10" stroke-linejoin="round"/>
<path d="M375 257.939V290.164H439.498V257.939H375Z" stroke="black" stroke-width="0.533333" stroke-miterlimit="10" stroke-linejoin="round"/>
<path d="M439.499 257.939V290.164H632.994V257.939H439.499Z" stroke="black" stroke-width="0.533333" stroke-miterlimit="10" stroke-linejoin="round"/>
<path d="M375 290.165V322.391H536.246V290.165H375Z" stroke="black" stroke-width="0.533333" stroke-miterlimit="10" stroke-linejoin="round"/>
<path d="M536.246 290.165V322.391H632.994V290.165H536.246Z" stroke="black" stroke-width="0.533333" stroke-miterlimit="10" stroke-linejoin="round"/>
<path d="M392.605 299.637C392.29 299.637 391.66 299.637 391.66 300.329C391.66 301.021 392.29 301.021 392.605 301.021H393.109V312.949H392.605C392.29 312.949 391.66 312.949 391.66 313.641C391.66 314.333 392.29 314.333 392.605 314.333H397.423C400.51 314.333 402.588 310.903 402.588 307.127C402.588 303.256 400.604 299.637 397.392 299.637H392.605ZM394.652 312.949V301.021H396.951C399.754 301.021 401.014 304.357 401.014 307.095C401.014 309.99 399.596 312.949 396.983 312.949H394.652Z" fill="black"/>
<path d="M413.588 304.956C413.588 304.201 413.431 303.949 412.612 303.949H411.037C410.691 303.949 410.061 303.949 410.061 304.642C410.061 305.365 410.691 305.365 411.037 305.365H412.014V310.589C412.014 312.541 410.376 313.076 409.305 313.076C407.384 313.076 407.384 312.226 407.384 311.471V304.956C407.384 304.201 407.258 303.949 406.439 303.949H404.833C404.487 303.949 403.857 303.949 403.857 304.642C403.857 305.365 404.487 305.365 404.833 305.365H405.81V311.596C405.81 313.799 407.258 314.492 409.116 314.492C410.597 314.492 411.51 313.862 411.982 313.453C411.982 314.334 412.581 314.334 412.99 314.334H414.565C414.911 314.334 415.541 314.334 415.541 313.642C415.541 312.95 414.911 312.95 414.565 312.95H413.588V304.956Z" fill="black"/>
<path d="M426.887 311.72C426.887 311.091 426.289 311.091 426.1 311.091C425.533 311.091 425.439 311.279 425.313 311.626C424.777 312.947 423.612 313.073 423.014 313.073C420.967 313.073 419.235 311.374 419.235 309.139C419.235 307.912 419.959 305.143 423.108 305.143C423.738 305.143 424.242 305.174 424.462 305.206C424.651 305.269 424.651 305.269 424.651 305.394C424.746 306.402 425.47 306.402 425.628 306.402C426.163 306.402 426.604 306.055 426.604 305.394C426.604 303.727 424.179 303.727 423.108 303.727C419.014 303.727 417.691 307.125 417.691 309.139C417.691 312.066 419.927 314.489 422.825 314.489C426.037 314.489 426.887 312.098 426.887 311.72Z" fill="black"/>
<path d="M435.085 308.197L438.076 305.364H438.801C439.116 305.364 439.746 305.364 439.746 304.64C439.746 303.948 439.116 303.948 438.801 303.948H435.274C434.927 303.948 434.266 303.948 434.266 304.64C434.266 305.364 434.927 305.364 435.274 305.364H436.124L432.219 309.046V300.612C432.219 299.857 432.061 299.637 431.242 299.637H429.762C429.447 299.637 428.786 299.637 428.786 300.329C428.786 301.021 429.447 301.021 429.762 301.021H430.864V312.949H429.762C429.447 312.949 428.786 312.949 428.786 313.641C428.786 314.333 429.447 314.333 429.762 314.333H433.289C433.636 314.333 434.266 314.333 434.266 313.641C434.266 312.949 433.636 312.949 433.289 312.949H432.219V310.903L434.077 309.141L436.943 312.949C436.187 312.949 435.62 312.949 435.62 313.641C435.62 314.333 436.25 314.333 436.596 314.333H439.305C439.62 314.333 440.249 314.333 440.249 313.641C440.249 312.949 439.62 312.949 439.305 312.949H438.643L435.085 308.197Z" fill="black"/>
<path d="M442.148 299.637C441.833 299.637 441.203 299.637 441.203 300.329C441.203 301.021 441.833 301.021 442.148 301.021H442.652V312.949H442.148C441.833 312.949 441.203 312.949 441.203 313.641C441.203 314.333 441.833 314.333 442.148 314.333H446.966C450.053 314.333 452.131 310.903 452.131 307.127C452.131 303.256 450.147 299.637 446.935 299.637H442.148ZM444.195 312.949V301.021H446.494C449.297 301.021 450.557 304.357 450.557 307.095C450.557 309.99 449.139 312.949 446.526 312.949H444.195Z" fill="black"/>
<path d="M454.628 299.637C454.313 299.637 453.683 299.637 453.683 300.329C453.683 301.021 454.344 301.021 454.659 301.021H455.258V312.949H454.659C454.344 312.949 453.683 312.949 453.683 313.641C453.683 314.333 454.344 314.333 454.628 314.333H460.36C463.037 314.333 464.454 312.225 464.454 310.305C464.454 308.606 463.257 307.032 461.367 306.623C462.564 306.245 463.95 305.081 463.95 303.35C463.95 301.588 462.533 299.637 459.856 299.637H454.628ZM456.801 305.994V301.021H459.793C461.808 301.021 462.375 302.5 462.375 303.382C462.375 304.515 461.43 305.994 459.415 305.994H456.801ZM456.801 312.949V307.378H459.982C462.407 307.378 462.879 309.455 462.879 310.274C462.879 311.438 461.966 312.949 459.824 312.949H456.801Z" fill="black"/>
<path d="M469.596 301.021H470.856C471.202 301.021 471.832 301.021 471.832 300.329C471.832 299.637 471.202 299.637 470.856 299.637H467.234C466.919 299.637 466.258 299.637 466.258 300.329C466.258 301.021 466.919 301.021 467.234 301.021H468.053V312.949H467.234C466.919 312.949 466.258 312.949 466.258 313.641C466.258 314.333 466.919 314.333 467.234 314.333H476.021C476.808 314.333 476.966 314.113 476.966 313.358V311.375C476.966 310.966 476.966 310.399 476.21 310.399C475.422 310.399 475.422 310.934 475.422 311.375V312.949H469.596V301.021Z" fill="black"/>
<path d="M487.808 307.503C487.808 305.678 486.422 303.727 483.179 303.727C482.171 303.727 479.809 303.727 479.809 305.394C479.809 306.055 480.281 306.402 480.817 306.402C480.943 306.402 481.761 306.37 481.761 305.363C481.761 305.237 481.793 305.206 482.297 305.174C482.58 305.143 482.895 305.143 483.21 305.143C483.745 305.143 484.564 305.143 485.352 305.741C486.233 306.402 486.233 307.094 486.233 307.786C484.816 307.818 483.399 307.944 481.919 308.416C480.722 308.825 479.179 309.674 479.179 311.311C479.179 313.042 480.691 314.489 482.927 314.489C483.714 314.489 485.194 314.363 486.454 313.482C486.926 314.269 488.123 314.332 489.036 314.332C489.635 314.332 490.202 314.332 490.202 313.64C490.202 312.947 489.572 312.947 489.257 312.947C488.627 312.947 488.123 312.884 487.808 312.758V307.503ZM486.233 311.153C486.233 311.72 486.233 312.223 485.257 312.664C484.407 313.073 483.273 313.073 483.21 313.073C481.761 313.073 480.754 312.318 480.754 311.311C480.754 309.895 483.305 309.076 486.233 309.076V311.153Z" fill="black"/>
<path d="M494.084 300.612C494.084 299.857 493.958 299.637 493.139 299.637H491.533C491.187 299.637 490.557 299.637 490.557 300.329C490.557 301.021 491.187 301.021 491.533 301.021H492.509V313.358C492.509 313.767 492.509 314.333 493.328 314.333C494.084 314.333 494.084 313.83 494.084 313.137C494.683 313.767 495.564 314.491 496.919 314.491C499.47 314.491 501.706 312.193 501.706 309.141C501.706 306.182 499.69 303.822 497.17 303.822C495.407 303.822 494.305 304.861 494.084 305.113V300.612ZM494.084 307.945C494.084 306.56 495.438 305.207 497.013 305.207C498.745 305.207 500.131 306.969 500.131 309.141C500.131 311.438 498.493 313.074 496.793 313.074C494.966 313.074 494.084 311.029 494.084 309.833V307.945Z" fill="black"/>
<path d="M512.706 304.639C512.706 304.262 512.706 303.727 512.044 303.727C511.477 303.727 511.32 304.293 511.32 304.324C510.344 303.727 509.241 303.727 508.769 303.727C504.832 303.727 504.297 305.741 504.297 306.559C504.297 307.534 504.895 308.227 505.714 308.667C506.47 309.108 507.163 309.234 509.147 309.549C510.092 309.706 512.013 310.021 512.013 311.342C512.013 312.223 511.194 313.073 508.958 313.073C507.415 313.073 506.407 312.475 505.903 310.744C505.777 310.398 505.714 310.146 505.116 310.146C504.297 310.146 504.297 310.587 504.297 311.091V313.577C504.297 313.954 504.297 314.489 504.99 314.489C505.273 314.489 505.494 314.489 505.84 313.482C506.942 314.395 508.202 314.489 508.958 314.489C513.398 314.489 513.398 311.594 513.398 311.342C513.398 308.856 510.438 308.353 509.273 308.164C507.163 307.818 505.714 307.566 505.714 306.559C505.714 305.898 506.438 305.143 508.706 305.143C511.005 305.143 511.099 306.213 511.162 306.842C511.194 307.314 511.635 307.409 511.918 307.409C512.706 307.409 512.706 306.968 512.706 306.496V304.639Z" fill="black"/>
<path d="M492.754 255.24C493.069 255.24 493.699 255.24 493.699 254.547C493.699 253.824 493.069 253.824 492.754 253.824H491.746V248.694C492.344 249.323 493.226 250.047 494.58 250.047C497.131 250.047 499.367 247.75 499.367 244.697C499.367 241.739 497.352 239.379 494.832 239.379C493.069 239.379 491.966 240.417 491.746 240.669C491.746 239.882 491.746 239.505 490.801 239.505H489.195C488.849 239.505 488.219 239.505 488.219 240.197C488.219 240.921 488.849 240.921 489.195 240.921H490.171V253.824H489.195C488.849 253.824 488.219 253.824 488.219 254.547C488.219 255.24 488.849 255.24 489.195 255.24H492.754ZM491.746 243.501C491.746 242.117 493.1 240.764 494.675 240.764C496.407 240.764 497.793 242.526 497.793 244.697C497.793 246.995 496.155 248.631 494.454 248.631C492.628 248.631 491.746 246.586 491.746 245.39V243.501Z" fill="black"/>
<path d="M511.249 244.694C511.249 241.673 509.045 239.281 506.462 239.281C503.848 239.281 501.644 241.673 501.644 244.694C501.644 247.715 503.88 250.044 506.462 250.044C509.013 250.044 511.249 247.715 511.249 244.694ZM506.462 248.628C504.73 248.628 503.218 246.803 503.218 244.505C503.218 242.271 504.762 240.697 506.462 240.697C508.131 240.697 509.675 242.271 509.675 244.505C509.675 246.834 508.194 248.628 506.462 248.628Z" fill="black"/>
<path d="M519.919 236.23C519.919 235.632 519.446 235.16 518.848 235.16C518.218 235.16 517.746 235.632 517.746 236.23C517.746 236.828 518.218 237.332 518.848 237.332C519.446 237.332 519.919 236.828 519.919 236.23ZM515.762 239.503C515.447 239.503 514.817 239.503 514.817 240.195C514.817 240.919 515.447 240.919 515.762 240.919H518.344V248.503H515.604C515.258 248.503 514.628 248.503 514.628 249.196C514.628 249.888 515.258 249.888 515.604 249.888H522.312C522.627 249.888 523.257 249.888 523.257 249.196C523.257 248.503 522.627 248.503 522.312 248.503H519.919V240.51C519.919 239.755 519.761 239.503 518.943 239.503H515.762Z" fill="black"/>
<path d="M535.107 242.841C535.107 240.48 534.005 239.379 532.021 239.379C530.383 239.379 529.313 240.292 528.903 240.732C528.903 239.851 528.903 239.505 527.958 239.505H526.352C526.006 239.505 525.376 239.505 525.376 240.197C525.376 240.921 526.006 240.921 526.352 240.921H527.329V248.505H526.352C526.006 248.505 525.376 248.505 525.376 249.198C525.376 249.89 526.006 249.89 526.352 249.89H529.911C530.226 249.89 530.856 249.89 530.856 249.198C530.856 248.505 530.226 248.505 529.911 248.505H528.903V244.131C528.903 241.802 530.541 240.764 531.832 240.764C533.249 240.764 533.533 241.55 533.533 242.935V248.505H532.556C532.21 248.505 531.58 248.505 531.58 249.198C531.58 249.89 532.21 249.89 532.556 249.89H536.084C536.43 249.89 537.06 249.89 537.06 249.198C537.06 248.505 536.43 248.505 536.084 248.505H535.107V242.841Z" fill="black"/>
<path d="M542.612 240.917H546.517C546.863 240.917 547.493 240.917 547.493 240.193C547.493 239.501 546.863 239.501 546.517 239.501H542.612V237.55C542.612 237.109 542.612 236.543 541.856 236.543C541.069 236.543 541.069 237.109 541.069 237.55V239.501H538.99C538.675 239.501 538.014 239.501 538.014 240.193C538.014 240.917 538.644 240.917 538.99 240.917H541.069V246.96C541.069 249.225 542.58 250.044 544.344 250.044C545.635 250.044 548.029 249.383 548.029 246.928C548.029 246.456 548.029 245.921 547.21 245.921C546.454 245.921 546.454 246.456 546.454 246.96C546.422 248.407 545.068 248.627 544.501 248.627C542.612 248.627 542.612 247.432 542.612 246.865V240.917Z" fill="black"/>
<path d="M559.816 245.261C560.32 245.261 560.792 245.261 560.792 244.379C560.792 241.547 559.186 239.281 556.194 239.281C553.391 239.281 551.155 241.704 551.155 244.631C551.155 247.684 553.58 250.044 556.54 250.044C559.658 250.044 560.792 247.904 560.792 247.275C560.792 247.117 560.729 246.582 560.005 246.582C559.532 246.582 559.375 246.771 559.249 247.117C558.65 248.502 557.076 248.628 556.603 248.628C554.619 248.628 553.045 247.117 552.761 245.261H559.816ZM552.793 243.939C553.108 241.893 554.682 240.697 556.194 240.697C558.587 240.697 559.091 242.743 559.186 243.939H552.793Z" fill="black"/>
<path d="M567.383 245.327C567.383 242.463 569.399 240.764 571.477 240.764C571.572 240.764 571.729 240.764 571.855 240.795C571.918 241.645 572.579 241.739 572.768 241.739C573.304 241.739 573.713 241.33 573.713 240.795C573.713 239.757 572.705 239.379 571.477 239.379C569.871 239.379 568.485 240.103 567.383 241.424V240.512C567.383 239.757 567.257 239.505 566.438 239.505H563.982C563.667 239.505 563.037 239.505 563.037 240.197C563.037 240.921 563.667 240.921 563.982 240.921H565.84V248.505H563.982C563.667 248.505 563.037 248.505 563.037 249.198C563.037 249.89 563.667 249.89 563.982 249.89H569.934C570.249 249.89 570.879 249.89 570.879 249.198C570.879 248.505 570.249 248.505 569.934 248.505H567.383V245.327Z" fill="black"/>
<path d="M465.732 272.42C465.732 272.043 465.732 271.508 465.071 271.508C464.504 271.508 464.347 272.074 464.347 272.106C463.37 271.508 462.268 271.508 461.796 271.508C457.859 271.508 457.324 273.522 457.324 274.34C457.324 275.316 457.922 276.008 458.741 276.449C459.497 276.889 460.19 277.015 462.174 277.33C463.119 277.487 465.04 277.802 465.04 279.124C465.04 280.005 464.221 280.854 461.985 280.854C460.442 280.854 459.434 280.256 458.93 278.526C458.804 278.179 458.741 277.928 458.143 277.928C457.324 277.928 457.324 278.368 457.324 278.872V281.358C457.324 281.736 457.324 282.271 458.017 282.271C458.3 282.271 458.52 282.271 458.867 281.264C459.969 282.176 461.229 282.271 461.985 282.271C466.425 282.271 466.425 279.375 466.425 279.124C466.425 276.637 463.465 276.134 462.3 275.945C460.19 275.599 458.741 275.347 458.741 274.34C458.741 273.679 459.465 272.924 461.733 272.924C464.032 272.924 464.126 273.994 464.189 274.623C464.221 275.095 464.662 275.19 464.945 275.19C465.732 275.19 465.732 274.749 465.732 274.277V272.42Z" fill="black"/>
<path d="M478.843 273.147C479.441 273.147 480.039 273.147 480.039 272.423C480.039 271.73 479.378 271.73 479.031 271.73H476.355C476.008 271.73 475.347 271.73 475.347 272.423C475.347 273.147 476.008 273.147 476.355 273.147H477.488L476.26 280.479C476.166 279.85 475.756 278.497 475.536 277.741C475.095 276.168 475.032 275.885 474.213 275.885C473.457 275.885 473.363 276.168 472.922 277.71C472.449 279.346 472.26 280.039 472.197 280.479H472.166L470.938 273.147H472.071C472.386 273.147 473.048 273.147 473.048 272.423C473.048 271.73 472.386 271.73 472.071 271.73H469.363C469.017 271.73 468.355 271.73 468.355 272.423C468.355 273.147 468.985 273.147 469.552 273.147L471.001 281.329C471.127 282.179 471.536 282.241 472.071 282.241C473.016 282.241 473.079 282.053 473.552 280.385C473.772 279.535 474.15 278.213 474.213 277.552H474.244C474.276 277.867 474.402 278.559 474.906 280.416C475.378 282.021 475.441 282.241 476.355 282.241C476.764 282.241 477.236 282.241 477.394 281.36L478.843 273.147Z" fill="black"/>
<path d="M487.67 268.457C487.67 267.859 487.197 267.387 486.599 267.387C485.969 267.387 485.497 267.859 485.497 268.457C485.497 269.055 485.969 269.558 486.599 269.558C487.197 269.558 487.67 269.055 487.67 268.457ZM483.512 271.73C483.197 271.73 482.568 271.73 482.568 272.422C482.568 273.146 483.197 273.146 483.512 273.146H486.095V280.73H483.355C483.009 280.73 482.379 280.73 482.379 281.422C482.379 282.115 483.009 282.115 483.355 282.115H490.063C490.378 282.115 491.008 282.115 491.008 281.422C491.008 280.73 490.378 280.73 490.063 280.73H487.67V272.737C487.67 271.981 487.512 271.73 486.693 271.73H483.512Z" fill="black"/>
<path d="M503.551 273.335C503.834 273.052 503.929 272.958 503.929 272.549C503.929 271.73 503.394 271.73 502.953 271.73H494.922C494.135 271.73 493.946 271.919 493.946 272.738V273.682C493.946 274.122 493.946 274.689 494.701 274.689C495.489 274.689 495.489 274.154 495.489 273.682V273.147H501.598L493.946 280.542C493.662 280.794 493.536 280.888 493.536 281.329C493.536 282.116 494.072 282.116 494.544 282.116H503.047C503.834 282.116 503.992 281.895 503.992 281.14V279.913C503.992 279.472 503.992 278.906 503.236 278.906C502.449 278.906 502.449 279.441 502.449 279.913V280.731H495.898L503.551 273.335Z" fill="black"/>
<path d="M515.937 273.335C516.22 273.052 516.315 272.958 516.315 272.549C516.315 271.73 515.779 271.73 515.338 271.73H507.308C506.52 271.73 506.331 271.919 506.331 272.738V273.682C506.331 274.122 506.331 274.689 507.087 274.689C507.874 274.689 507.874 274.154 507.874 273.682V273.147H513.984L506.331 280.542C506.048 280.794 505.922 280.888 505.922 281.329C505.922 282.116 506.457 282.116 506.93 282.116H515.433C516.22 282.116 516.378 281.895 516.378 281.14V279.913C516.378 279.472 516.378 278.906 515.622 278.906C514.835 278.906 514.835 279.441 514.835 279.913V280.731H508.284L515.937 273.335Z" fill="black"/>
<path d="M524.543 268.394C524.543 267.638 524.386 267.418 523.567 267.418H520.04C519.693 267.418 519.063 267.418 519.063 268.11C519.063 268.803 519.693 268.803 520.04 268.803H522.969V280.73H520.04C519.693 280.73 519.063 280.73 519.063 281.422C519.063 282.114 519.693 282.114 520.04 282.114H527.472C527.819 282.114 528.449 282.114 528.449 281.422C528.449 280.73 527.819 280.73 527.472 280.73H524.543V268.394Z" fill="black"/>
<path d="M537.212 268.457C537.212 267.859 536.74 267.387 536.141 267.387C535.512 267.387 535.039 267.859 535.039 268.457C535.039 269.055 535.512 269.558 536.141 269.558C536.74 269.558 537.212 269.055 537.212 268.457ZM533.055 271.73C532.74 271.73 532.11 271.73 532.11 272.422C532.11 273.146 532.74 273.146 533.055 273.146H535.638V280.73H532.898C532.551 280.73 531.921 280.73 531.921 281.422C531.921 282.115 532.551 282.115 532.898 282.115H539.606C539.921 282.115 540.551 282.115 540.551 281.422C540.551 280.73 539.921 280.73 539.606 280.73H537.212V272.737C537.212 271.981 537.055 271.73 536.236 271.73H533.055Z" fill="black"/>
<path d="M552.401 275.067C552.401 272.707 551.299 271.605 549.315 271.605C547.677 271.605 546.606 272.518 546.197 272.959C546.197 272.078 546.197 271.731 545.252 271.731H543.646C543.299 271.731 542.669 271.731 542.669 272.424C542.669 273.148 543.299 273.148 543.646 273.148H544.622V280.732H543.646C543.299 280.732 542.669 280.732 542.669 281.424C542.669 282.116 543.299 282.116 543.646 282.116H547.204C547.519 282.116 548.149 282.116 548.149 281.424C548.149 280.732 547.519 280.732 547.204 280.732H546.197V276.357C546.197 274.029 547.834 272.99 549.126 272.99C550.543 272.99 550.826 273.777 550.826 275.162V280.732H549.85C549.503 280.732 548.874 280.732 548.874 281.424C548.874 282.116 549.503 282.116 549.85 282.116H553.377C553.724 282.116 554.353 282.116 554.353 281.424C554.353 280.732 553.724 280.732 553.377 280.732H552.401V275.067Z" fill="black"/>
<path d="M559.275 280.635C558.992 280.635 557.89 280.635 557.89 279.344C557.89 278.872 557.953 278.778 558.047 278.589C558.551 278.935 559.338 279.25 560.189 279.25C562.393 279.25 564.094 277.488 564.094 275.411C564.094 274.813 563.936 274.057 563.432 273.271C564.062 272.956 564.629 272.861 565.007 272.83C565.133 273.585 565.826 273.617 565.857 273.617C566.141 273.617 566.739 273.428 566.739 272.704C566.739 272.232 566.393 271.445 565.039 271.445C564.598 271.445 563.527 271.54 562.519 272.326C561.732 271.791 560.913 271.603 560.22 271.603C558.047 271.603 556.346 273.365 556.346 275.411C556.346 275.946 556.472 276.858 557.134 277.739C556.693 278.4 556.598 279.124 556.598 279.407C556.598 280.257 557.008 280.949 557.228 281.138C555.874 281.862 555.402 283.184 555.402 284.096C555.402 286.11 557.827 287.621 560.913 287.621C563.968 287.621 566.393 286.142 566.393 284.096C566.393 280.635 562.141 280.635 561.322 280.635H559.275ZM560.189 277.897C558.992 277.897 557.921 276.827 557.921 275.411C557.921 273.994 559.023 272.956 560.189 272.956C561.48 272.956 562.519 274.057 562.519 275.411C562.519 276.795 561.48 277.897 560.189 277.897ZM560.913 286.268C558.551 286.268 556.787 285.229 556.787 284.096C556.787 283.75 556.913 282.9 557.795 282.365C558.362 281.988 558.582 281.988 560.252 281.988C562.362 281.988 565.007 281.988 565.007 284.096C565.007 285.229 563.275 286.268 560.913 286.268Z" fill="black"/>
<path d="M556.937 312.861C556.654 312.861 555.552 312.861 555.552 311.571C555.552 311.099 555.615 311.004 555.709 310.816C556.213 311.162 557 311.476 557.851 311.476C560.055 311.476 561.756 309.714 561.756 307.637C561.756 307.039 561.598 306.284 561.095 305.497C561.724 305.182 562.291 305.088 562.669 305.057C562.795 305.812 563.488 305.843 563.52 305.843C563.803 305.843 564.401 305.654 564.401 304.931C564.401 304.459 564.055 303.672 562.701 303.672C562.26 303.672 561.189 303.766 560.181 304.553C559.394 304.018 558.575 303.829 557.882 303.829C555.709 303.829 554.009 305.592 554.009 307.637C554.009 308.172 554.134 309.085 554.796 309.966C554.355 310.627 554.26 311.351 554.26 311.634C554.26 312.483 554.67 313.176 554.89 313.365C553.536 314.088 553.064 315.41 553.064 316.323C553.064 318.337 555.489 319.847 558.575 319.847C561.63 319.847 564.055 318.368 564.055 316.323C564.055 312.861 559.803 312.861 558.984 312.861H556.937ZM557.851 310.123C556.654 310.123 555.583 309.053 555.583 307.637C555.583 306.221 556.685 305.182 557.851 305.182C559.142 305.182 560.181 306.284 560.181 307.637C560.181 309.022 559.142 310.123 557.851 310.123ZM558.575 318.494C556.213 318.494 554.449 317.456 554.449 316.323C554.449 315.977 554.575 315.127 555.457 314.592C556.024 314.214 556.245 314.214 557.914 314.214C560.024 314.214 562.669 314.214 562.669 316.323C562.669 317.456 560.937 318.494 558.575 318.494Z" fill="black"/>
<path d="M575.748 309.147C575.748 306.126 573.543 303.734 570.961 303.734C568.347 303.734 566.142 306.126 566.142 309.147C566.142 312.168 568.378 314.497 570.961 314.497C573.512 314.497 575.748 312.168 575.748 309.147ZM570.961 313.081C569.229 313.081 567.717 311.256 567.717 308.958C567.717 306.724 569.26 305.151 570.961 305.151C572.63 305.151 574.173 306.724 574.173 308.958C574.173 311.287 572.693 313.081 570.961 313.081Z" fill="black"/>
<path d="M588.134 309.147C588.134 306.126 585.929 303.734 583.347 303.734C580.733 303.734 578.528 306.126 578.528 309.147C578.528 312.168 580.764 314.497 583.347 314.497C585.898 314.497 588.134 312.168 588.134 309.147ZM583.347 313.081C581.614 313.081 580.103 311.256 580.103 308.958C580.103 306.724 581.646 305.151 583.347 305.151C585.016 305.151 586.559 306.724 586.559 308.958C586.559 311.287 585.079 313.081 583.347 313.081Z" fill="black"/>
<path d="M599.637 304.647C599.637 304.269 599.637 303.734 598.976 303.734C598.409 303.734 598.252 304.301 598.252 304.332C597.275 303.734 596.173 303.734 595.701 303.734C591.764 303.734 591.229 305.748 591.229 306.567C591.229 307.542 591.827 308.235 592.646 308.675C593.402 309.116 594.094 309.242 596.078 309.556C597.023 309.714 598.944 310.028 598.944 311.35C598.944 312.231 598.126 313.081 595.89 313.081C594.346 313.081 593.339 312.483 592.835 310.752C592.709 310.406 592.646 310.154 592.047 310.154C591.229 310.154 591.229 310.595 591.229 311.098V313.585C591.229 313.962 591.229 314.497 591.921 314.497C592.205 314.497 592.425 314.497 592.772 313.49C593.874 314.403 595.134 314.497 595.89 314.497C600.33 314.497 600.33 311.602 600.33 311.35C600.33 308.864 597.37 308.36 596.204 308.172C594.094 307.825 592.646 307.574 592.646 306.567C592.646 305.906 593.37 305.151 595.638 305.151C597.937 305.151 598.031 306.221 598.094 306.85C598.126 307.322 598.566 307.416 598.85 307.416C599.637 307.416 599.637 306.976 599.637 306.504V304.647Z" fill="black"/>
<path d="M611.929 309.714C612.432 309.714 612.905 309.714 612.905 308.833C612.905 306 611.299 303.734 608.307 303.734C605.504 303.734 603.268 306.158 603.268 309.084C603.268 312.137 605.693 314.497 608.653 314.497C611.771 314.497 612.905 312.357 612.905 311.728C612.905 311.57 612.842 311.035 612.117 311.035C611.645 311.035 611.488 311.224 611.362 311.57C610.763 312.955 609.189 313.081 608.716 313.081C606.732 313.081 605.157 311.57 604.874 309.714H611.929ZM604.905 308.392C605.22 306.346 606.795 305.151 608.307 305.151C610.7 305.151 611.204 307.196 611.299 308.392H604.905Z" fill="black"/>
<path d="M402.557 268.01C402.557 267.633 402.557 267.098 401.864 267.098C401.423 267.098 401.329 267.381 401.234 267.538C401.14 267.727 400.951 268.168 400.888 268.325C399.88 267.475 398.778 267.098 397.77 267.098C394.652 267.098 392.101 270.433 392.101 274.745C392.101 279.151 394.747 282.392 397.77 282.392C400.604 282.392 402.557 280.158 402.557 278.049C402.557 277.294 402.053 277.294 401.738 277.294C401.423 277.294 401.014 277.42 400.982 277.829C400.793 280.819 398.337 281.007 397.927 281.007C395.691 281.007 393.644 278.364 393.644 274.745C393.644 271.094 395.723 268.514 397.927 268.514C399.219 268.514 400.636 269.552 400.982 271.755C401.045 272.29 401.266 272.416 401.738 272.416C402.557 272.416 402.557 272.007 402.557 271.503V268.01Z" fill="black"/>
<path d="M414.754 268.799C414.943 268.799 415.635 268.799 415.635 268.106C415.635 267.414 414.974 267.414 414.628 267.414H412.864C412.518 267.414 411.856 267.414 411.856 268.106C411.856 268.799 412.518 268.799 412.864 268.799H413.399L412.392 276.603C412.203 277.957 411.982 279.467 411.982 280.38H411.951C411.825 278.68 410.691 273.96 410.691 273.897C410.534 273.267 409.904 273.267 409.715 273.267C409.494 273.267 408.99 273.267 408.77 273.771C408.675 273.991 407.573 278.775 407.447 280.38C407.416 279.719 407.353 279.404 407.258 278.429L406.03 268.799H406.534C406.88 268.799 407.542 268.799 407.542 268.106C407.542 267.414 406.88 267.414 406.534 267.414H404.77C404.424 267.414 403.762 267.414 403.762 268.106C403.762 268.799 404.487 268.799 404.613 268.799H404.644L406.376 281.387C406.439 281.859 406.502 282.331 407.321 282.331C407.573 282.331 408.077 282.331 408.266 281.764C408.329 281.639 409.589 276.163 409.683 274.998H409.715C409.809 276.1 411.037 281.639 411.163 281.859C411.384 282.331 411.856 282.331 412.077 282.331C412.896 282.331 412.959 281.859 413.022 281.418L414.754 268.799Z" fill="black"/>
<path d="M422.888 268.799H425.344C425.691 268.799 426.289 268.799 426.289 268.106C426.289 267.414 425.691 267.414 425.344 267.414H418.857C418.51 267.414 417.88 267.414 417.88 268.106C417.88 268.799 418.51 268.799 418.857 268.799H421.313V280.726H418.857C418.51 280.726 417.88 280.726 417.88 281.418C417.88 282.111 418.51 282.111 418.857 282.111H425.344C425.691 282.111 426.289 282.111 426.289 281.418C426.289 280.726 425.691 280.726 425.344 280.726H422.888V268.799Z" fill="black"/>
<path d="M396.321 245.323C396.321 242.459 398.337 240.76 400.415 240.76C400.51 240.76 400.667 240.76 400.793 240.791C400.856 241.641 401.517 241.735 401.706 241.735C402.242 241.735 402.651 241.326 402.651 240.791C402.651 239.753 401.643 239.375 400.415 239.375C398.809 239.375 397.423 240.099 396.321 241.421V240.508C396.321 239.753 396.195 239.501 395.376 239.501H392.92C392.605 239.501 391.975 239.501 391.975 240.193C391.975 240.917 392.605 240.917 392.92 240.917H394.778V248.501H392.92C392.605 248.501 391.975 248.501 391.975 249.194C391.975 249.886 392.605 249.886 392.92 249.886H398.872C399.187 249.886 399.817 249.886 399.817 249.194C399.817 248.501 399.187 248.501 398.872 248.501H396.321V245.323Z" fill="black"/>
<path d="M413.494 243.054C413.494 241.228 412.108 239.277 408.864 239.277C407.856 239.277 405.494 239.277 405.494 240.945C405.494 241.606 405.967 241.952 406.502 241.952C406.628 241.952 407.447 241.921 407.447 240.914C407.447 240.788 407.478 240.756 407.982 240.725C408.266 240.693 408.581 240.693 408.896 240.693C409.431 240.693 410.25 240.693 411.037 241.291C411.919 241.952 411.919 242.645 411.919 243.337C410.502 243.368 409.085 243.494 407.604 243.966C406.408 244.375 404.865 245.225 404.865 246.862C404.865 248.592 406.376 250.04 408.612 250.04C409.4 250.04 410.88 249.914 412.139 249.033C412.612 249.82 413.809 249.883 414.722 249.883C415.32 249.883 415.887 249.883 415.887 249.19C415.887 248.498 415.257 248.498 414.942 248.498C414.313 248.498 413.809 248.435 413.494 248.309V243.054ZM411.919 246.704C411.919 247.271 411.919 247.774 410.943 248.215C410.092 248.624 408.959 248.624 408.896 248.624C407.447 248.624 406.439 247.869 406.439 246.862C406.439 245.445 408.99 244.627 411.919 244.627V246.704Z" fill="black"/>
<path d="M425.974 236.163C425.974 235.408 425.816 235.188 424.998 235.188H423.423C423.077 235.188 422.447 235.188 422.447 235.88C422.447 236.572 423.077 236.572 423.423 236.572H424.399V240.569C424.021 240.191 423.014 239.373 421.565 239.373C419.014 239.373 416.778 241.67 416.778 244.723C416.778 247.681 418.856 250.041 421.344 250.041C422.919 250.041 423.958 249.097 424.399 248.562C424.399 249.569 424.399 249.884 425.376 249.884H426.95C427.297 249.884 427.926 249.884 427.926 249.192C427.926 248.499 427.297 248.499 426.95 248.499H425.974V236.163ZM424.399 245.321C424.399 246.643 423.297 248.625 421.47 248.625C419.738 248.625 418.353 246.863 418.353 244.723C418.353 242.394 419.99 240.758 421.691 240.758C423.265 240.758 424.399 242.174 424.399 243.433V245.321Z" fill="black"/>
<path d="M435.557 236.226C435.557 235.628 435.084 235.156 434.486 235.156C433.856 235.156 433.384 235.628 433.384 236.226C433.384 236.824 433.856 237.328 434.486 237.328C435.084 237.328 435.557 236.824 435.557 236.226ZM431.4 239.499C431.085 239.499 430.455 239.499 430.455 240.191C430.455 240.915 431.085 240.915 431.4 240.915H433.982V248.5H431.242C430.896 248.5 430.266 248.5 430.266 249.192C430.266 249.884 430.896 249.884 431.242 249.884H437.95C438.265 249.884 438.895 249.884 438.895 249.192C438.895 248.5 438.265 248.5 437.95 248.5H435.557V240.506C435.557 239.751 435.399 239.499 434.58 239.499H431.4Z" fill="black"/>
<path d="M447.47 244.535L450.241 240.916H451.06C451.407 240.916 452.037 240.916 452.037 240.192C452.037 239.5 451.407 239.5 451.06 239.5H448.415C448.068 239.5 447.439 239.5 447.439 240.192C447.439 240.916 448.005 240.916 448.604 240.916L446.777 243.371L444.919 240.916C445.486 240.916 446.053 240.916 446.053 240.192C446.053 239.5 445.423 239.5 445.108 239.5H442.431C442.085 239.5 441.455 239.5 441.455 240.192C441.455 240.916 442.085 240.916 442.431 240.916H443.281L446.147 244.535L443.124 248.5H442.305C441.959 248.5 441.329 248.5 441.329 249.193C441.329 249.885 441.959 249.885 442.305 249.885H444.951C445.297 249.885 445.927 249.885 445.927 249.193C445.927 248.5 445.36 248.5 444.73 248.5L446.777 245.448L448.95 248.5C448.352 248.5 447.785 248.5 447.785 249.193C447.785 249.885 448.415 249.885 448.73 249.885H451.407C451.753 249.885 452.383 249.885 452.383 249.193C452.383 248.5 451.753 248.5 451.407 248.5H450.556L447.47 244.535Z" fill="black"/>
<path d="M181.505 64.5871V96.8125H310.502V64.5871H181.505Z" stroke="black" stroke-width="0.533333" stroke-miterlimit="10" stroke-linejoin="round"/>
<path d="M181.505 161.263V193.488H310.502V161.263H181.505Z" stroke="black" stroke-width="0.533333" stroke-miterlimit="10" stroke-linejoin="round"/>
<path d="M181.505 129.04V161.266H310.502V129.04H181.505Z" stroke="black" stroke-width="0.533333" stroke-miterlimit="10" stroke-linejoin="round"/>
<path d="M181.505 96.8137V129.039H310.502V96.8137H181.505Z" stroke="black" stroke-width="0.533333" stroke-miterlimit="10" stroke-linejoin="round"/>
<path d="M216.683 83.5652C216.683 80.5441 214.478 78.1523 211.896 78.1523C209.282 78.1523 207.077 80.5441 207.077 83.5652C207.077 86.5863 209.313 88.9151 211.896 88.9151C214.447 88.9151 216.683 86.5863 216.683 83.5652ZM211.896 87.499C210.164 87.499 208.652 85.6737 208.652 83.3764C208.652 81.142 210.195 79.5685 211.896 79.5685C213.565 79.5685 215.108 81.142 215.108 83.3764C215.108 85.7052 213.628 87.499 211.896 87.499Z" fill="black"/>
<path d="M224.03 79.7872H226.959C227.273 79.7872 227.903 79.7872 227.903 79.0634C227.903 78.3711 227.273 78.3711 226.959 78.3711H224.03V77.1752C224.03 75.287 225.73 75.287 226.486 75.287C226.486 75.35 226.675 76.2311 227.462 76.2311C227.872 76.2311 228.407 75.9479 228.407 75.287C228.407 73.9023 226.581 73.9023 226.234 73.9023C224.376 73.9023 222.455 74.9409 222.455 77.0808V78.3711H220.061C219.747 78.3711 219.085 78.3711 219.085 79.0634C219.085 79.7872 219.715 79.7872 220.061 79.7872H222.455V87.3715H220.187C219.841 87.3715 219.211 87.3715 219.211 88.0639C219.211 88.7562 219.841 88.7562 220.187 88.7562H226.329C226.644 88.7562 227.273 88.7562 227.273 88.0639C227.273 87.3715 226.644 87.3715 226.329 87.3715H224.03V79.7872Z" fill="black"/>
<path d="M236.415 79.7872H239.344C239.659 79.7872 240.289 79.7872 240.289 79.0634C240.289 78.3711 239.659 78.3711 239.344 78.3711H236.415V77.1752C236.415 75.287 238.116 75.287 238.872 75.287C238.872 75.35 239.061 76.2311 239.848 76.2311C240.258 76.2311 240.793 75.9479 240.793 75.287C240.793 73.9023 238.966 73.9023 238.62 73.9023C236.762 73.9023 234.841 74.9409 234.841 77.0808V78.3711H232.447C232.132 78.3711 231.471 78.3711 231.471 79.0634C231.471 79.7872 232.101 79.7872 232.447 79.7872H234.841V87.3715H232.573C232.227 87.3715 231.597 87.3715 231.597 88.0639C231.597 88.7562 232.227 88.7562 232.573 88.7562H238.714C239.029 88.7562 239.659 88.7562 239.659 88.0639C239.659 87.3715 239.029 87.3715 238.714 87.3715H236.415V79.7872Z" fill="black"/>
<path d="M252.958 79.065C252.958 78.6873 252.958 78.1523 252.297 78.1523C251.73 78.1523 251.573 78.7188 251.573 78.7503C250.596 78.1523 249.494 78.1523 249.022 78.1523C245.085 78.1523 244.55 80.1664 244.55 80.9847C244.55 81.9602 245.148 82.6526 245.967 83.0931C246.723 83.5337 247.415 83.6596 249.4 83.9743C250.344 84.1317 252.265 84.4464 252.265 85.7681C252.265 86.6493 251.447 87.499 249.211 87.499C247.667 87.499 246.66 86.901 246.156 85.1702C246.03 84.824 245.967 84.5722 245.368 84.5722C244.55 84.5722 244.55 85.0128 244.55 85.5163V88.0025C244.55 88.3801 244.55 88.9151 245.242 88.9151C245.526 88.9151 245.746 88.9151 246.093 87.9081C247.195 88.8207 248.455 88.9151 249.211 88.9151C253.651 88.9151 253.651 86.0199 253.651 85.7681C253.651 83.282 250.691 82.7784 249.526 82.5896C247.415 82.2435 245.967 81.9917 245.967 80.9847C245.967 80.3238 246.691 79.5685 248.959 79.5685C251.258 79.5685 251.352 80.6385 251.415 81.2679C251.447 81.7399 251.888 81.8343 252.171 81.8343C252.958 81.8343 252.958 81.3938 252.958 80.9217V79.065Z" fill="black"/>
<path d="M265.25 84.1317C265.753 84.1317 266.226 84.1317 266.226 83.2505C266.226 80.4182 264.62 78.1523 261.628 78.1523C258.825 78.1523 256.589 80.5755 256.589 83.5023C256.589 86.5549 259.014 88.9151 261.974 88.9151C265.092 88.9151 266.226 86.7751 266.226 86.1457C266.226 85.9884 266.163 85.4534 265.439 85.4534C264.966 85.4534 264.809 85.6422 264.683 85.9884C264.084 87.3731 262.51 87.499 262.037 87.499C260.053 87.499 258.478 85.9884 258.195 84.1317H265.25ZM258.227 82.8099C258.541 80.7644 260.116 79.5685 261.628 79.5685C264.021 79.5685 264.525 81.6141 264.62 82.8099H258.227Z" fill="black"/>
<path d="M272.817 79.7884H276.722C277.068 79.7884 277.698 79.7884 277.698 79.0646C277.698 78.3722 277.068 78.3722 276.722 78.3722H272.817V76.4211C272.817 75.9805 272.817 75.4141 272.061 75.4141C271.274 75.4141 271.274 75.9805 271.274 76.4211V78.3722H269.195C268.88 78.3722 268.219 78.3722 268.219 79.0646C268.219 79.7884 268.849 79.7884 269.195 79.7884H271.274V85.8307C271.274 88.0965 272.785 88.9147 274.549 88.9147C275.84 88.9147 278.234 88.2539 278.234 85.7992C278.234 85.3271 278.234 84.7921 277.415 84.7921C276.659 84.7921 276.659 85.3271 276.659 85.8307C276.627 87.2783 275.273 87.4986 274.706 87.4986C272.817 87.4986 272.817 86.3027 272.817 85.7362V79.7884Z" fill="black"/>
<path d="M216.872 113.651C216.872 109.151 214.478 105.973 211.896 105.973C209.25 105.973 206.888 109.214 206.888 113.62C206.888 118.089 209.282 121.267 211.896 121.267C214.51 121.267 216.872 118.057 216.872 113.651ZM211.896 119.882C209.975 119.882 208.463 116.956 208.463 113.368C208.463 109.781 210.132 107.389 211.896 107.389C213.628 107.389 215.297 109.781 215.297 113.368C215.297 116.924 213.785 119.882 211.896 119.882Z" fill="black"/>
<path d="M213.03 139.202C213.03 138.825 213.03 138.195 212.305 138.195C211.896 138.195 211.77 138.416 211.612 138.73C211.172 139.769 210.353 141.059 209.093 141.153C208.715 141.185 208.211 141.216 208.211 141.846C208.211 142.255 208.463 142.538 208.999 142.538C210.353 142.538 211.392 141.531 211.455 141.468V151.822H209.345C208.999 151.822 208.337 151.822 208.337 152.514C208.337 153.207 208.999 153.207 209.345 153.207H215.14C215.486 153.207 216.116 153.207 216.116 152.514C216.116 151.822 215.486 151.822 215.14 151.822H213.03V139.202Z" fill="black"/>
<path d="M226.455 147.92C226.801 147.636 229.226 145.559 229.226 142.884C229.226 140.146 226.959 138.195 223.967 138.195C221.164 138.195 219.306 140.304 219.306 142.318C219.306 143.325 220.156 143.419 220.282 143.419C220.723 143.419 221.258 143.073 221.258 142.412C221.258 141.972 221.101 141.814 220.975 141.72C221.321 140.461 222.424 139.611 223.809 139.611C225.856 139.611 227.651 140.776 227.651 142.884C227.651 144.741 226.234 146.189 224.943 147.322L219.652 151.916C219.369 152.137 219.306 152.231 219.306 152.514C219.306 153.207 219.967 153.207 220.282 153.207H228.691C229.226 153.049 229.226 152.577 229.226 152.231V151.727C229.226 151.287 229.226 150.72 228.47 150.72C227.651 150.72 227.651 151.224 227.651 151.822H221.857L226.455 147.92Z" fill="black"/>
<path d="M214.069 180.146C214.415 179.863 216.84 177.786 216.84 175.111C216.84 172.373 214.573 170.422 211.581 170.422C208.778 170.422 206.92 172.53 206.92 174.544C206.92 175.551 207.77 175.646 207.896 175.646C208.337 175.646 208.873 175.3 208.873 174.639C208.873 174.198 208.715 174.041 208.589 173.947C208.935 172.688 210.038 171.838 211.423 171.838C213.471 171.838 215.266 173.002 215.266 175.111C215.266 176.968 213.848 178.415 212.557 179.548L207.266 184.143C206.983 184.363 206.92 184.458 206.92 184.741C206.92 185.433 207.581 185.433 207.896 185.433H216.305C216.84 185.276 216.84 184.804 216.84 184.458V183.954C216.84 183.513 216.84 182.947 216.084 182.947C215.266 182.947 215.266 183.45 215.266 184.048H209.471L214.069 180.146Z" fill="black"/>
<path d="M218.991 179.643C218.77 179.958 218.77 180.02 218.77 180.461C218.77 181.279 219.085 181.374 219.747 181.374H225.636V184.049H224.187C223.872 184.049 223.242 184.049 223.242 184.741C223.242 185.433 223.872 185.433 224.187 185.433H228.439C228.785 185.433 229.415 185.433 229.415 184.741C229.415 184.049 228.785 184.049 228.439 184.049H226.99V181.374H228.785C229.132 181.374 229.761 181.374 229.761 180.681C229.761 179.989 229.132 179.989 228.785 179.989H226.99V171.366C226.99 170.579 226.833 170.391 226.014 170.391H225.447C224.88 170.391 224.754 170.422 224.471 170.863L218.991 179.643ZM220.376 179.989L225.636 171.555V179.989H220.376Z" fill="black"/>
<path d="M315.194 48.3396C318.438 47.4584 319.225 45.7276 319.225 44.4373C319.225 42.0141 316.706 40 312.234 40H303.353V41.0385H305.904V55.4833H303.353V56.5218C304.045 56.4588 306.565 56.4588 307.415 56.4588C308.297 56.4588 310.816 56.4588 311.509 56.5218V55.4833H308.958V48.6543H311.824C312.801 48.6543 313.556 48.9375 314.092 49.5669C314.816 50.3851 314.816 50.9201 314.816 52.5251C314.816 54.1301 314.816 55.1371 316.044 55.9553C317.304 56.7735 319.288 56.805 319.824 56.805C322.28 56.805 322.564 54.6336 322.564 54.3189C322.564 53.9098 322.375 53.8154 322.06 53.8154C321.587 53.8154 321.556 54.0042 321.556 54.3189C321.43 55.5147 320.674 56.0183 320.013 56.0183C318.469 56.0183 318.28 54.4133 318.091 52.1789C317.965 50.9201 317.777 49.1263 315.194 48.3396ZM311.793 47.8675H308.958V41.0385H311.824C315.761 41.0385 315.824 43.0211 315.824 44.4373C315.824 45.759 315.824 47.8675 311.793 47.8675Z" fill="black"/>
<path d="M335.41 51.2347C335.41 47.9933 333.206 45.6016 329.427 45.6016C325.49 45.6016 323.411 48.1192 323.411 51.2347C323.411 54.4132 325.616 56.679 329.395 56.679C333.332 56.679 335.41 54.2873 335.41 51.2347ZM329.427 55.7979C326.309 55.7979 326.309 52.997 326.309 51.0144C326.309 49.8815 326.309 48.6856 326.75 47.8045C327.285 46.8289 328.356 46.4198 329.395 46.4198C330.781 46.4198 331.631 47.0492 332.041 47.7415C332.544 48.5912 332.544 49.85 332.544 51.0144C332.544 52.997 332.544 55.7979 329.427 55.7979Z" fill="black"/>
<path d="M352.805 47.4568C352.963 47.0476 353.026 46.8588 354.443 46.8588V45.8203C353.75 45.8833 353.435 45.8833 352.553 45.8833C351.577 45.8833 351.262 45.8833 350.38 45.8203V46.8588C350.601 46.8588 351.797 46.8588 351.797 47.1735C351.797 47.205 351.797 47.2365 351.703 47.4568L349.152 53.7193L346.381 46.8588H347.766V45.8203C347.199 45.8833 345.751 45.8833 345.121 45.8833C343.893 45.8833 343.83 45.8833 342.633 45.8203V46.8588H344.05C344.113 47.0476 344.239 47.3623 344.334 47.5826C344.428 47.74 344.648 48.3064 344.648 48.4323C344.648 48.4638 344.585 48.6526 344.554 48.7156L342.727 53.2787L340.113 46.8588H341.499V45.8203C340.932 45.8833 339.295 45.8833 338.665 45.8833C337.877 45.8833 336.744 45.8833 336.019 45.8203V46.8588H337.436L341.121 56.0481C341.279 56.4572 341.373 56.646 341.909 56.646C342.16 56.646 342.475 56.646 342.664 56.174L345.215 49.7855L347.766 56.111C347.987 56.646 348.239 56.646 348.522 56.646C349.058 56.646 349.152 56.4887 349.309 56.0481L352.805 47.4568Z" fill="black"/>
<path d="M379.17 50.0075H378.163C378.005 51.6754 377.627 55.4833 373.281 55.4833H370.699V41.0385H373.911V40C372.714 40.0629 370.573 40.0629 369.313 40.0629C368.4 40.0629 365.66 40.0629 364.967 40V41.0385H367.518V55.4833H364.967V56.5218H378.477L379.17 50.0075Z" fill="black"/>
<path d="M391.405 49.315C391.405 47.1121 389.641 45.6016 386.24 45.6016C384.886 45.6016 382.051 45.7274 382.051 47.773C382.051 48.78 382.839 49.1892 383.468 49.1892C384.193 49.1892 384.886 48.6856 384.886 47.773C384.886 47.3324 384.728 46.8918 384.319 46.6401C385.106 46.4198 385.704 46.4198 386.145 46.4198C387.783 46.4198 388.791 47.3324 388.791 49.315V50.2591C384.98 50.2591 381.138 51.3291 381.138 54.0041C381.138 56.1755 383.941 56.679 385.61 56.679C387.437 56.679 388.633 55.6405 389.106 54.602C389.106 55.4832 389.106 56.5217 391.531 56.5217H392.79C393.294 56.5217 393.483 56.5217 393.483 55.9867C393.483 55.4832 393.263 55.4832 392.916 55.4832C391.405 55.4517 391.405 55.0741 391.405 54.5391V49.315ZM388.791 53.1858C388.791 55.4517 386.744 55.8608 385.988 55.8608C384.791 55.8608 383.815 55.0741 383.815 53.9726C383.815 51.7697 386.429 51.0459 388.791 50.92V53.1858Z" fill="black"/>
<path d="M404.665 47.3938C404.791 47.0476 404.885 46.8588 406.429 46.8588V45.8203C405.61 45.8833 405.515 45.8833 404.539 45.8833C403.878 45.8833 403.846 45.8833 402.46 45.8203V46.8588C402.492 46.8588 403.626 46.8588 403.626 47.1735C403.626 47.2365 403.531 47.3938 403.531 47.4568L400.697 53.5305L397.61 46.8588H398.933V45.8203C398.366 45.8833 396.729 45.8833 396.067 45.8833C395.343 45.8833 393.926 45.8833 393.296 45.8203V46.8588H394.839L399.311 56.5201C399.185 56.8034 398.839 57.4957 398.713 57.8104C398.209 58.8804 397.453 60.5483 395.752 60.5483C395.658 60.5483 395.374 60.5483 395.123 60.391C395.154 60.3595 395.878 60.0763 395.878 59.1636C395.878 58.3769 395.311 57.8733 394.587 57.8733C393.831 57.8733 393.264 58.3769 393.264 59.1951C393.264 60.328 394.304 61.3351 395.752 61.3351C397.736 61.3351 399.028 59.5413 399.532 58.5028L404.665 47.3938Z" fill="black"/>
<path d="M419.002 51.2347C419.002 47.9933 416.798 45.6016 413.019 45.6016C409.082 45.6016 407.003 48.1192 407.003 51.2347C407.003 54.4132 409.208 56.679 412.987 56.679C416.924 56.679 419.002 54.2873 419.002 51.2347ZM413.019 55.7979C409.901 55.7979 409.901 52.997 409.901 51.0144C409.901 49.8815 409.901 48.6856 410.342 47.8045C410.877 46.8289 411.948 46.4198 412.987 46.4198C414.373 46.4198 415.223 47.0492 415.633 47.7415C416.136 48.5912 416.136 49.85 416.136 51.0144C416.136 52.997 416.136 55.7979 413.019 55.7979Z" fill="black"/>
<path d="M428.293 45.8841V46.9226C429.773 46.9226 429.962 46.9226 429.962 47.8667V52.5873C429.962 54.4125 428.86 55.8601 427.002 55.8601C425.175 55.8601 425.081 55.2622 425.081 53.9405V45.6953L420.798 45.8841V46.9226C422.31 46.9226 422.467 46.9226 422.467 47.8667V53.5628C422.467 55.9546 424.073 56.6784 426.656 56.6784C427.223 56.6784 429.018 56.6784 430.057 54.7272H430.088V56.6784L434.246 56.521V55.4825C432.765 55.4825 432.576 55.4825 432.576 54.5384V45.6953L428.293 45.8841Z" fill="black"/>
<path d="M439.921 46.8597H443.417V45.8212H439.921V41.2266H438.913C438.913 43.6183 437.748 46.01 435.354 46.073V46.8597H437.307V53.5628C437.307 56.1119 439.291 56.6784 441.023 56.6784C442.787 56.6784 443.858 55.3252 443.858 53.5314V52.2726H442.85V53.4999C442.85 55.1049 442.126 55.7972 441.37 55.7972C439.921 55.7972 439.921 54.1922 439.921 53.6258V46.8597Z" fill="black"/>
<path d="M452.253 209.465C455.497 208.583 456.285 206.853 456.285 205.562C456.285 203.139 453.765 201.125 449.293 201.125H440.412V202.164H442.963V216.608H440.412V217.647C441.105 217.584 443.624 217.584 444.475 217.584C445.356 217.584 447.876 217.584 448.569 217.647V216.608H446.018V209.779H448.884C449.86 209.779 450.616 210.063 451.151 210.692C451.875 211.51 451.875 212.045 451.875 213.65C451.875 215.255 451.875 216.262 453.104 217.08C454.363 217.899 456.348 217.93 456.883 217.93C459.339 217.93 459.623 215.759 459.623 215.444C459.623 215.035 459.434 214.94 459.119 214.94C458.647 214.94 458.615 215.129 458.615 215.444C458.489 216.64 457.733 217.143 457.072 217.143C455.529 217.143 455.34 215.538 455.151 213.304C455.025 212.045 454.836 210.251 452.253 209.465ZM448.852 208.993H446.018V202.164H448.884C452.82 202.164 452.883 204.146 452.883 205.562C452.883 206.884 452.883 208.993 448.852 208.993Z" fill="black"/>
<path d="M472.47 212.36C472.47 209.118 470.265 206.727 466.486 206.727C462.549 206.727 460.471 209.244 460.471 212.36C460.471 215.538 462.675 217.804 466.454 217.804C470.391 217.804 472.47 215.412 472.47 212.36ZM466.486 216.923C463.368 216.923 463.368 214.122 463.368 212.139C463.368 211.006 463.368 209.811 463.809 208.929C464.344 207.954 465.415 207.545 466.454 207.545C467.84 207.545 468.69 208.174 469.1 208.867C469.604 209.716 469.604 210.975 469.604 212.139C469.604 214.122 469.604 216.923 466.486 216.923Z" fill="black"/>
<path d="M489.865 208.582C490.022 208.173 490.085 207.984 491.502 207.984V206.945C490.809 207.008 490.494 207.008 489.613 207.008C488.636 207.008 488.321 207.008 487.44 206.945V207.984C487.66 207.984 488.857 207.984 488.857 208.299C488.857 208.33 488.857 208.361 488.762 208.582L486.211 214.844L483.44 207.984H484.826V206.945C484.259 207.008 482.81 207.008 482.18 207.008C480.952 207.008 480.889 207.008 479.692 206.945V207.984H481.109C481.172 208.173 481.298 208.487 481.393 208.708C481.487 208.865 481.708 209.431 481.708 209.557C481.708 209.589 481.645 209.778 481.613 209.841L479.787 214.404L477.173 207.984H478.558V206.945C477.992 207.008 476.354 207.008 475.724 207.008C474.937 207.008 473.803 207.008 473.079 206.945V207.984H474.496L478.181 217.173C478.338 217.582 478.432 217.771 478.968 217.771C479.22 217.771 479.535 217.771 479.724 217.299L482.275 210.911L484.826 217.236C485.046 217.771 485.298 217.771 485.581 217.771C486.117 217.771 486.211 217.614 486.369 217.173L489.865 208.582Z" fill="black"/>
<path d="M518.812 202.164H521.363V201.125C520.67 201.188 518.088 201.188 517.237 201.188C516.356 201.188 513.773 201.188 513.08 201.125V202.164H515.631V208.552H507.758V202.164H510.309V201.125C509.616 201.188 507.034 201.188 506.183 201.188C505.301 201.188 502.719 201.188 502.026 201.125V202.164H504.577V216.608H502.026V217.647C502.719 217.584 505.301 217.584 506.183 217.584C507.034 217.584 509.616 217.584 510.309 217.647V216.608H507.758V209.59H515.631V216.608H513.08V217.647C513.773 217.584 516.356 217.584 517.237 217.584C518.088 217.584 520.67 217.584 521.363 217.647V216.608H518.812V202.164Z" fill="black"/>
<path d="M533.191 212.328C533.727 212.328 533.884 212.328 533.884 211.73C533.884 211.006 533.727 209.181 532.593 208.08C531.585 207.041 530.231 206.727 528.845 206.727C525.097 206.727 523.05 209.181 523.05 212.234C523.05 215.601 525.538 217.804 529.16 217.804C532.813 217.804 533.884 215.255 533.884 214.814C533.884 214.468 533.506 214.468 533.38 214.468C533.002 214.468 532.971 214.531 532.813 214.846C532.183 216.419 530.609 216.923 529.443 216.923C525.948 216.923 525.948 213.681 525.948 212.328H533.191ZM525.948 211.636C525.979 210.629 526.011 209.716 526.515 208.835C526.955 208.08 527.806 207.545 528.845 207.545C531.428 207.545 531.648 210.44 531.679 211.636H525.948Z" fill="black"/>
<path d="M545.742 210.44C545.742 208.237 543.978 206.727 540.577 206.727C539.223 206.727 536.388 206.852 536.388 208.898C536.388 209.905 537.175 210.314 537.805 210.314C538.53 210.314 539.223 209.811 539.223 208.898C539.223 208.457 539.065 208.017 538.656 207.765C539.443 207.545 540.041 207.545 540.482 207.545C542.12 207.545 543.128 208.457 543.128 210.44V211.384C539.317 211.384 535.475 212.454 535.475 215.129C535.475 217.301 538.278 217.804 539.947 217.804C541.774 217.804 542.97 216.766 543.443 215.727C543.443 216.608 543.443 217.647 545.868 217.647H547.127C547.631 217.647 547.82 217.647 547.82 217.112C547.82 216.608 547.6 216.608 547.253 216.608C545.742 216.577 545.742 216.199 545.742 215.664V210.44ZM543.128 214.311C543.128 216.577 541.081 216.986 540.325 216.986C539.128 216.986 538.152 216.199 538.152 215.098C538.152 212.895 540.766 212.171 543.128 212.045V214.311Z" fill="black"/>
<path d="M554.616 221.297H552.947V216.67C553.545 217.174 554.616 217.803 556.065 217.803C559.34 217.803 561.923 215.789 561.923 212.265C561.923 208.96 559.687 206.82 556.443 206.82C555.025 206.82 553.797 207.292 552.821 208.079V206.82L548.664 207.009V208.048C550.144 208.048 550.333 208.048 550.333 208.992V221.297H548.664V222.304C549.199 222.272 550.931 222.272 551.624 222.272C552.286 222.272 554.049 222.272 554.616 222.304V221.297ZM552.947 209.212C553.829 208.079 555.12 207.67 556.065 207.67C557.608 207.67 559.025 209.086 559.025 212.265C559.025 215.758 557.293 216.985 555.75 216.985C554.742 216.985 553.703 216.482 552.947 215.349V209.212Z" fill="black"/>
</svg>
