<?xml version="1.0" encoding="utf-8" standalone="no"?>
<!DOCTYPE svg PUBLIC "-//W3C//DTD SVG 1.1//EN"
  "http://www.w3.org/Graphics/SVG/1.1/DTD/svg11.dtd">
<svg height="353.174766pt" version="1.1" viewBox="0 0 461.165629 353.174766" width="461.165629pt" xmlns="http://www.w3.org/2000/svg" xmlns:xlink="http://www.w3.org/1999/xlink">
 <metadata>
  <rdf:RDF xmlns:cc="http://creativecommons.org/ns#" xmlns:dc="http://purl.org/dc/elements/1.1/" xmlns:rdf="http://www.w3.org/1999/02/22-rdf-syntax-ns#">
   <cc:Work>
    <dc:type rdf:resource="http://purl.org/dc/dcmitype/StillImage"/>
    <dc:date>2021-08-24T15:10:51.333221</dc:date>
    <dc:format>image/svg+xml</dc:format>
    <dc:creator>
     <cc:Agent>
      <dc:title>Matplotlib v3.4.3, https://matplotlib.org/</dc:title>
     </cc:Agent>
    </dc:creator>
   </cc:Work>
  </rdf:RDF>
 </metadata>
 <defs>
  <style type="text/css">*{stroke-linecap:butt;stroke-linejoin:round;}</style>
 </defs>
 <g id="figure_1">
  <g id="patch_1">
   <path d="M 0 353.174766 
L 461.165629 353.174766 
L 461.165629 0 
L 0 0 
z
" style="fill:#ffffff;"/>
  </g>
  <g id="axes_1">
   <g id="patch_2">
    <path d="M 55.942969 300.923437 
L 314.034129 300.923437 
L 314.034129 26.303437 
L 55.942969 26.303437 
z
" style="fill:#eaeaf2;"/>
   </g>
   <g id="matplotlib.axis_1">
    <g id="xtick_1">
     <g id="text_1">
      <!-- 10 -->
      <g style="fill:#262626;" transform="translate(59.67198 322.233828)scale(0.165 -0.165)">
       <defs>
        <path d="M 2384 0 
L 1822 0 
L 1822 3584 
Q 1619 3391 1289 3197 
Q 959 3003 697 2906 
L 697 3450 
Q 1169 3672 1522 3987 
Q 1875 4303 2022 4600 
L 2384 4600 
L 2384 0 
z
" id="ArialMT-31" transform="scale(0.015625)"/>
        <path d="M 266 2259 
Q 266 3072 433 3567 
Q 600 4063 929 4331 
Q 1259 4600 1759 4600 
Q 2128 4600 2406 4451 
Q 2684 4303 2865 4023 
Q 3047 3744 3150 3342 
Q 3253 2941 3253 2259 
Q 3253 1453 3087 958 
Q 2922 463 2592 192 
Q 2263 -78 1759 -78 
Q 1097 -78 719 397 
Q 266 969 266 2259 
z
M 844 2259 
Q 844 1131 1108 757 
Q 1372 384 1759 384 
Q 2147 384 2411 759 
Q 2675 1134 2675 2259 
Q 2675 3391 2411 3762 
Q 2147 4134 1753 4134 
Q 1366 4134 1134 3806 
Q 844 3388 844 2259 
z
" id="ArialMT-30" transform="scale(0.015625)"/>
       </defs>
       <use xlink:href="#ArialMT-31"/>
       <use x="55.615234" xlink:href="#ArialMT-30"/>
      </g>
     </g>
    </g>
    <g id="xtick_2">
     <g id="text_2">
      <!-- 20 -->
      <g style="fill:#262626;" transform="translate(85.481096 322.233828)scale(0.165 -0.165)">
       <defs>
        <path d="M 3222 541 
L 3222 0 
L 194 0 
Q 188 203 259 391 
Q 375 700 629 1000 
Q 884 1300 1366 1694 
Q 2113 2306 2375 2664 
Q 2638 3022 2638 3341 
Q 2638 3675 2398 3904 
Q 2159 4134 1775 4134 
Q 1369 4134 1125 3890 
Q 881 3647 878 3216 
L 300 3275 
Q 359 3922 746 4261 
Q 1134 4600 1788 4600 
Q 2447 4600 2831 4234 
Q 3216 3869 3216 3328 
Q 3216 3053 3103 2787 
Q 2991 2522 2730 2228 
Q 2469 1934 1863 1422 
Q 1356 997 1212 845 
Q 1069 694 975 541 
L 3222 541 
z
" id="ArialMT-32" transform="scale(0.015625)"/>
       </defs>
       <use xlink:href="#ArialMT-32"/>
       <use x="55.615234" xlink:href="#ArialMT-30"/>
      </g>
     </g>
    </g>
    <g id="xtick_3">
     <g id="text_3">
      <!-- 30 -->
      <g style="fill:#262626;" transform="translate(111.290212 322.233828)scale(0.165 -0.165)">
       <defs>
        <path d="M 269 1209 
L 831 1284 
Q 928 806 1161 595 
Q 1394 384 1728 384 
Q 2125 384 2398 659 
Q 2672 934 2672 1341 
Q 2672 1728 2419 1979 
Q 2166 2231 1775 2231 
Q 1616 2231 1378 2169 
L 1441 2663 
Q 1497 2656 1531 2656 
Q 1891 2656 2178 2843 
Q 2466 3031 2466 3422 
Q 2466 3731 2256 3934 
Q 2047 4138 1716 4138 
Q 1388 4138 1169 3931 
Q 950 3725 888 3313 
L 325 3413 
Q 428 3978 793 4289 
Q 1159 4600 1703 4600 
Q 2078 4600 2393 4439 
Q 2709 4278 2876 4000 
Q 3044 3722 3044 3409 
Q 3044 3113 2884 2869 
Q 2725 2625 2413 2481 
Q 2819 2388 3044 2092 
Q 3269 1797 3269 1353 
Q 3269 753 2831 336 
Q 2394 -81 1725 -81 
Q 1122 -81 723 278 
Q 325 638 269 1209 
z
" id="ArialMT-33" transform="scale(0.015625)"/>
       </defs>
       <use xlink:href="#ArialMT-33"/>
       <use x="55.615234" xlink:href="#ArialMT-30"/>
      </g>
     </g>
    </g>
    <g id="xtick_4">
     <g id="text_4">
      <!-- 40 -->
      <g style="fill:#262626;" transform="translate(137.099328 322.233828)scale(0.165 -0.165)">
       <defs>
        <path d="M 2069 0 
L 2069 1097 
L 81 1097 
L 81 1613 
L 2172 4581 
L 2631 4581 
L 2631 1613 
L 3250 1613 
L 3250 1097 
L 2631 1097 
L 2631 0 
L 2069 0 
z
M 2069 1613 
L 2069 3678 
L 634 1613 
L 2069 1613 
z
" id="ArialMT-34" transform="scale(0.015625)"/>
       </defs>
       <use xlink:href="#ArialMT-34"/>
       <use x="55.615234" xlink:href="#ArialMT-30"/>
      </g>
     </g>
    </g>
    <g id="xtick_5">
     <g id="text_5">
      <!-- 50 -->
      <g style="fill:#262626;" transform="translate(162.908444 322.233828)scale(0.165 -0.165)">
       <defs>
        <path d="M 266 1200 
L 856 1250 
Q 922 819 1161 601 
Q 1400 384 1738 384 
Q 2144 384 2425 690 
Q 2706 997 2706 1503 
Q 2706 1984 2436 2262 
Q 2166 2541 1728 2541 
Q 1456 2541 1237 2417 
Q 1019 2294 894 2097 
L 366 2166 
L 809 4519 
L 3088 4519 
L 3088 3981 
L 1259 3981 
L 1013 2750 
Q 1425 3038 1878 3038 
Q 2478 3038 2890 2622 
Q 3303 2206 3303 1553 
Q 3303 931 2941 478 
Q 2500 -78 1738 -78 
Q 1113 -78 717 272 
Q 322 622 266 1200 
z
" id="ArialMT-35" transform="scale(0.015625)"/>
       </defs>
       <use xlink:href="#ArialMT-35"/>
       <use x="55.615234" xlink:href="#ArialMT-30"/>
      </g>
     </g>
    </g>
    <g id="xtick_6">
     <g id="text_6">
      <!-- 60 -->
      <g style="fill:#262626;" transform="translate(188.71756 322.233828)scale(0.165 -0.165)">
       <defs>
        <path d="M 3184 3459 
L 2625 3416 
Q 2550 3747 2413 3897 
Q 2184 4138 1850 4138 
Q 1581 4138 1378 3988 
Q 1113 3794 959 3422 
Q 806 3050 800 2363 
Q 1003 2672 1297 2822 
Q 1591 2972 1913 2972 
Q 2475 2972 2870 2558 
Q 3266 2144 3266 1488 
Q 3266 1056 3080 686 
Q 2894 316 2569 119 
Q 2244 -78 1831 -78 
Q 1128 -78 684 439 
Q 241 956 241 2144 
Q 241 3472 731 4075 
Q 1159 4600 1884 4600 
Q 2425 4600 2770 4297 
Q 3116 3994 3184 3459 
z
M 888 1484 
Q 888 1194 1011 928 
Q 1134 663 1356 523 
Q 1578 384 1822 384 
Q 2178 384 2434 671 
Q 2691 959 2691 1453 
Q 2691 1928 2437 2201 
Q 2184 2475 1800 2475 
Q 1419 2475 1153 2201 
Q 888 1928 888 1484 
z
" id="ArialMT-36" transform="scale(0.015625)"/>
       </defs>
       <use xlink:href="#ArialMT-36"/>
       <use x="55.615234" xlink:href="#ArialMT-30"/>
      </g>
     </g>
    </g>
    <g id="xtick_7">
     <g id="text_7">
      <!-- 70 -->
      <g style="fill:#262626;" transform="translate(214.526676 322.233828)scale(0.165 -0.165)">
       <defs>
        <path d="M 303 3981 
L 303 4522 
L 3269 4522 
L 3269 4084 
Q 2831 3619 2401 2847 
Q 1972 2075 1738 1259 
Q 1569 684 1522 0 
L 944 0 
Q 953 541 1156 1306 
Q 1359 2072 1739 2783 
Q 2119 3494 2547 3981 
L 303 3981 
z
" id="ArialMT-37" transform="scale(0.015625)"/>
       </defs>
       <use xlink:href="#ArialMT-37"/>
       <use x="55.615234" xlink:href="#ArialMT-30"/>
      </g>
     </g>
    </g>
    <g id="xtick_8">
     <g id="text_8">
      <!-- 80 -->
      <g style="fill:#262626;" transform="translate(240.335792 322.233828)scale(0.165 -0.165)">
       <defs>
        <path d="M 1131 2484 
Q 781 2613 612 2850 
Q 444 3088 444 3419 
Q 444 3919 803 4259 
Q 1163 4600 1759 4600 
Q 2359 4600 2725 4251 
Q 3091 3903 3091 3403 
Q 3091 3084 2923 2848 
Q 2756 2613 2416 2484 
Q 2838 2347 3058 2040 
Q 3278 1734 3278 1309 
Q 3278 722 2862 322 
Q 2447 -78 1769 -78 
Q 1091 -78 675 323 
Q 259 725 259 1325 
Q 259 1772 486 2073 
Q 713 2375 1131 2484 
z
M 1019 3438 
Q 1019 3113 1228 2906 
Q 1438 2700 1772 2700 
Q 2097 2700 2305 2904 
Q 2513 3109 2513 3406 
Q 2513 3716 2298 3927 
Q 2084 4138 1766 4138 
Q 1444 4138 1231 3931 
Q 1019 3725 1019 3438 
z
M 838 1322 
Q 838 1081 952 856 
Q 1066 631 1291 507 
Q 1516 384 1775 384 
Q 2178 384 2440 643 
Q 2703 903 2703 1303 
Q 2703 1709 2433 1975 
Q 2163 2241 1756 2241 
Q 1359 2241 1098 1978 
Q 838 1716 838 1322 
z
" id="ArialMT-38" transform="scale(0.015625)"/>
       </defs>
       <use xlink:href="#ArialMT-38"/>
       <use x="55.615234" xlink:href="#ArialMT-30"/>
      </g>
     </g>
    </g>
    <g id="xtick_9">
     <g id="text_9">
      <!-- 90 -->
      <g style="fill:#262626;" transform="translate(266.144908 322.233828)scale(0.165 -0.165)">
       <defs>
        <path d="M 350 1059 
L 891 1109 
Q 959 728 1153 556 
Q 1347 384 1650 384 
Q 1909 384 2104 503 
Q 2300 622 2425 820 
Q 2550 1019 2634 1356 
Q 2719 1694 2719 2044 
Q 2719 2081 2716 2156 
Q 2547 1888 2255 1720 
Q 1963 1553 1622 1553 
Q 1053 1553 659 1965 
Q 266 2378 266 3053 
Q 266 3750 677 4175 
Q 1088 4600 1706 4600 
Q 2153 4600 2523 4359 
Q 2894 4119 3086 3673 
Q 3278 3228 3278 2384 
Q 3278 1506 3087 986 
Q 2897 466 2520 194 
Q 2144 -78 1638 -78 
Q 1100 -78 759 220 
Q 419 519 350 1059 
z
M 2653 3081 
Q 2653 3566 2395 3850 
Q 2138 4134 1775 4134 
Q 1400 4134 1122 3828 
Q 844 3522 844 3034 
Q 844 2597 1108 2323 
Q 1372 2050 1759 2050 
Q 2150 2050 2401 2323 
Q 2653 2597 2653 3081 
z
" id="ArialMT-39" transform="scale(0.015625)"/>
       </defs>
       <use xlink:href="#ArialMT-39"/>
       <use x="55.615234" xlink:href="#ArialMT-30"/>
      </g>
     </g>
    </g>
    <g id="xtick_10">
     <g id="text_10">
      <!-- 100 -->
      <g style="fill:#262626;" transform="translate(287.366251 322.233828)scale(0.165 -0.165)">
       <use xlink:href="#ArialMT-31"/>
       <use x="55.615234" xlink:href="#ArialMT-30"/>
       <use x="111.230469" xlink:href="#ArialMT-30"/>
      </g>
     </g>
    </g>
    <g id="text_11">
     <!-- million rows sorted -->
     <g style="fill:#262626;" transform="translate(110.469955 342.397266)scale(0.18 -0.18)">
      <defs>
       <path d="M 422 0 
L 422 3319 
L 925 3319 
L 925 2853 
Q 1081 3097 1340 3245 
Q 1600 3394 1931 3394 
Q 2300 3394 2536 3241 
Q 2772 3088 2869 2813 
Q 3263 3394 3894 3394 
Q 4388 3394 4653 3120 
Q 4919 2847 4919 2278 
L 4919 0 
L 4359 0 
L 4359 2091 
Q 4359 2428 4304 2576 
Q 4250 2725 4106 2815 
Q 3963 2906 3769 2906 
Q 3419 2906 3187 2673 
Q 2956 2441 2956 1928 
L 2956 0 
L 2394 0 
L 2394 2156 
Q 2394 2531 2256 2718 
Q 2119 2906 1806 2906 
Q 1569 2906 1367 2781 
Q 1166 2656 1075 2415 
Q 984 2175 984 1722 
L 984 0 
L 422 0 
z
" id="ArialMT-6d" transform="scale(0.015625)"/>
       <path d="M 425 3934 
L 425 4581 
L 988 4581 
L 988 3934 
L 425 3934 
z
M 425 0 
L 425 3319 
L 988 3319 
L 988 0 
L 425 0 
z
" id="ArialMT-69" transform="scale(0.015625)"/>
       <path d="M 409 0 
L 409 4581 
L 972 4581 
L 972 0 
L 409 0 
z
" id="ArialMT-6c" transform="scale(0.015625)"/>
       <path d="M 213 1659 
Q 213 2581 725 3025 
Q 1153 3394 1769 3394 
Q 2453 3394 2887 2945 
Q 3322 2497 3322 1706 
Q 3322 1066 3130 698 
Q 2938 331 2570 128 
Q 2203 -75 1769 -75 
Q 1072 -75 642 372 
Q 213 819 213 1659 
z
M 791 1659 
Q 791 1022 1069 705 
Q 1347 388 1769 388 
Q 2188 388 2466 706 
Q 2744 1025 2744 1678 
Q 2744 2294 2464 2611 
Q 2184 2928 1769 2928 
Q 1347 2928 1069 2612 
Q 791 2297 791 1659 
z
" id="ArialMT-6f" transform="scale(0.015625)"/>
       <path d="M 422 0 
L 422 3319 
L 928 3319 
L 928 2847 
Q 1294 3394 1984 3394 
Q 2284 3394 2536 3286 
Q 2788 3178 2913 3003 
Q 3038 2828 3088 2588 
Q 3119 2431 3119 2041 
L 3119 0 
L 2556 0 
L 2556 2019 
Q 2556 2363 2490 2533 
Q 2425 2703 2258 2804 
Q 2091 2906 1866 2906 
Q 1506 2906 1245 2678 
Q 984 2450 984 1813 
L 984 0 
L 422 0 
z
" id="ArialMT-6e" transform="scale(0.015625)"/>
       <path id="ArialMT-20" transform="scale(0.015625)"/>
       <path d="M 416 0 
L 416 3319 
L 922 3319 
L 922 2816 
Q 1116 3169 1280 3281 
Q 1444 3394 1641 3394 
Q 1925 3394 2219 3213 
L 2025 2691 
Q 1819 2813 1613 2813 
Q 1428 2813 1281 2702 
Q 1134 2591 1072 2394 
Q 978 2094 978 1738 
L 978 0 
L 416 0 
z
" id="ArialMT-72" transform="scale(0.015625)"/>
       <path d="M 1034 0 
L 19 3319 
L 600 3319 
L 1128 1403 
L 1325 691 
Q 1338 744 1497 1375 
L 2025 3319 
L 2603 3319 
L 3100 1394 
L 3266 759 
L 3456 1400 
L 4025 3319 
L 4572 3319 
L 3534 0 
L 2950 0 
L 2422 1988 
L 2294 2553 
L 1622 0 
L 1034 0 
z
" id="ArialMT-77" transform="scale(0.015625)"/>
       <path d="M 197 991 
L 753 1078 
Q 800 744 1014 566 
Q 1228 388 1613 388 
Q 2000 388 2187 545 
Q 2375 703 2375 916 
Q 2375 1106 2209 1216 
Q 2094 1291 1634 1406 
Q 1016 1563 777 1677 
Q 538 1791 414 1992 
Q 291 2194 291 2438 
Q 291 2659 392 2848 
Q 494 3038 669 3163 
Q 800 3259 1026 3326 
Q 1253 3394 1513 3394 
Q 1903 3394 2198 3281 
Q 2494 3169 2634 2976 
Q 2775 2784 2828 2463 
L 2278 2388 
Q 2241 2644 2061 2787 
Q 1881 2931 1553 2931 
Q 1166 2931 1000 2803 
Q 834 2675 834 2503 
Q 834 2394 903 2306 
Q 972 2216 1119 2156 
Q 1203 2125 1616 2013 
Q 2213 1853 2448 1751 
Q 2684 1650 2818 1456 
Q 2953 1263 2953 975 
Q 2953 694 2789 445 
Q 2625 197 2315 61 
Q 2006 -75 1616 -75 
Q 969 -75 630 194 
Q 291 463 197 991 
z
" id="ArialMT-73" transform="scale(0.015625)"/>
       <path d="M 1650 503 
L 1731 6 
Q 1494 -44 1306 -44 
Q 1000 -44 831 53 
Q 663 150 594 308 
Q 525 466 525 972 
L 525 2881 
L 113 2881 
L 113 3319 
L 525 3319 
L 525 4141 
L 1084 4478 
L 1084 3319 
L 1650 3319 
L 1650 2881 
L 1084 2881 
L 1084 941 
Q 1084 700 1114 631 
Q 1144 563 1211 522 
Q 1278 481 1403 481 
Q 1497 481 1650 503 
z
" id="ArialMT-74" transform="scale(0.015625)"/>
       <path d="M 2694 1069 
L 3275 997 
Q 3138 488 2766 206 
Q 2394 -75 1816 -75 
Q 1088 -75 661 373 
Q 234 822 234 1631 
Q 234 2469 665 2931 
Q 1097 3394 1784 3394 
Q 2450 3394 2872 2941 
Q 3294 2488 3294 1666 
Q 3294 1616 3291 1516 
L 816 1516 
Q 847 969 1125 678 
Q 1403 388 1819 388 
Q 2128 388 2347 550 
Q 2566 713 2694 1069 
z
M 847 1978 
L 2700 1978 
Q 2663 2397 2488 2606 
Q 2219 2931 1791 2931 
Q 1403 2931 1139 2672 
Q 875 2413 847 1978 
z
" id="ArialMT-65" transform="scale(0.015625)"/>
       <path d="M 2575 0 
L 2575 419 
Q 2259 -75 1647 -75 
Q 1250 -75 917 144 
Q 584 363 401 755 
Q 219 1147 219 1656 
Q 219 2153 384 2558 
Q 550 2963 881 3178 
Q 1213 3394 1622 3394 
Q 1922 3394 2156 3267 
Q 2391 3141 2538 2938 
L 2538 4581 
L 3097 4581 
L 3097 0 
L 2575 0 
z
M 797 1656 
Q 797 1019 1065 703 
Q 1334 388 1700 388 
Q 2069 388 2326 689 
Q 2584 991 2584 1609 
Q 2584 2291 2321 2609 
Q 2059 2928 1675 2928 
Q 1300 2928 1048 2622 
Q 797 2316 797 1656 
z
" id="ArialMT-64" transform="scale(0.015625)"/>
      </defs>
      <use xlink:href="#ArialMT-6d"/>
      <use x="83.300781" xlink:href="#ArialMT-69"/>
      <use x="105.517578" xlink:href="#ArialMT-6c"/>
      <use x="127.734375" xlink:href="#ArialMT-6c"/>
      <use x="149.951172" xlink:href="#ArialMT-69"/>
      <use x="172.167969" xlink:href="#ArialMT-6f"/>
      <use x="227.783203" xlink:href="#ArialMT-6e"/>
      <use x="283.398438" xlink:href="#ArialMT-20"/>
      <use x="311.181641" xlink:href="#ArialMT-72"/>
      <use x="344.482422" xlink:href="#ArialMT-6f"/>
      <use x="400.097656" xlink:href="#ArialMT-77"/>
      <use x="472.314453" xlink:href="#ArialMT-73"/>
      <use x="522.314453" xlink:href="#ArialMT-20"/>
      <use x="550.097656" xlink:href="#ArialMT-73"/>
      <use x="600.097656" xlink:href="#ArialMT-6f"/>
      <use x="655.712891" xlink:href="#ArialMT-72"/>
      <use x="689.013672" xlink:href="#ArialMT-74"/>
      <use x="716.796875" xlink:href="#ArialMT-65"/>
      <use x="772.412109" xlink:href="#ArialMT-64"/>
     </g>
    </g>
   </g>
   <g id="matplotlib.axis_2">
    <g id="ytick_1">
     <g id="line2d_1">
      <path clip-path="url(#p67cbcb5984)" d="M 55.942969 290.427347 
L 314.034129 290.427347 
" style="fill:none;stroke:#ffffff;stroke-linecap:round;"/>
     </g>
     <g id="text_12">
      <!-- 0 -->
      <g style="fill:#262626;" transform="translate(37.267422 296.332542)scale(0.165 -0.165)">
       <use xlink:href="#ArialMT-30"/>
      </g>
     </g>
    </g>
    <g id="ytick_2">
     <g id="line2d_2">
      <path clip-path="url(#p67cbcb5984)" d="M 55.942969 236.15345 
L 314.034129 236.15345 
" style="fill:none;stroke:#ffffff;stroke-linecap:round;"/>
     </g>
     <g id="text_13">
      <!-- 10 -->
      <g style="fill:#262626;" transform="translate(28.091875 242.058645)scale(0.165 -0.165)">
       <use xlink:href="#ArialMT-31"/>
       <use x="55.615234" xlink:href="#ArialMT-30"/>
      </g>
     </g>
    </g>
    <g id="ytick_3">
     <g id="line2d_3">
      <path clip-path="url(#p67cbcb5984)" d="M 55.942969 181.879553 
L 314.034129 181.879553 
" style="fill:none;stroke:#ffffff;stroke-linecap:round;"/>
     </g>
     <g id="text_14">
      <!-- 20 -->
      <g style="fill:#262626;" transform="translate(28.091875 187.784749)scale(0.165 -0.165)">
       <use xlink:href="#ArialMT-32"/>
       <use x="55.615234" xlink:href="#ArialMT-30"/>
      </g>
     </g>
    </g>
    <g id="ytick_4">
     <g id="line2d_4">
      <path clip-path="url(#p67cbcb5984)" d="M 55.942969 127.605657 
L 314.034129 127.605657 
" style="fill:none;stroke:#ffffff;stroke-linecap:round;"/>
     </g>
     <g id="text_15">
      <!-- 30 -->
      <g style="fill:#262626;" transform="translate(28.091875 133.510852)scale(0.165 -0.165)">
       <use xlink:href="#ArialMT-33"/>
       <use x="55.615234" xlink:href="#ArialMT-30"/>
      </g>
     </g>
    </g>
    <g id="ytick_5">
     <g id="line2d_5">
      <path clip-path="url(#p67cbcb5984)" d="M 55.942969 73.33176 
L 314.034129 73.33176 
" style="fill:none;stroke:#ffffff;stroke-linecap:round;"/>
     </g>
     <g id="text_16">
      <!-- 40 -->
      <g style="fill:#262626;" transform="translate(28.091875 79.236955)scale(0.165 -0.165)">
       <use xlink:href="#ArialMT-34"/>
       <use x="55.615234" xlink:href="#ArialMT-30"/>
      </g>
     </g>
    </g>
    <g id="text_17">
     <!-- time (s) -->
     <g style="fill:#262626;" transform="translate(20.303438 193.60875)rotate(-90)scale(0.18 -0.18)">
      <defs>
       <path d="M 1497 -1347 
Q 1031 -759 709 28 
Q 388 816 388 1659 
Q 388 2403 628 3084 
Q 909 3875 1497 4659 
L 1900 4659 
Q 1522 4009 1400 3731 
Q 1209 3300 1100 2831 
Q 966 2247 966 1656 
Q 966 153 1900 -1347 
L 1497 -1347 
z
" id="ArialMT-28" transform="scale(0.015625)"/>
       <path d="M 791 -1347 
L 388 -1347 
Q 1322 153 1322 1656 
Q 1322 2244 1188 2822 
Q 1081 3291 891 3722 
Q 769 4003 388 4659 
L 791 4659 
Q 1378 3875 1659 3084 
Q 1900 2403 1900 1659 
Q 1900 816 1576 28 
Q 1253 -759 791 -1347 
z
" id="ArialMT-29" transform="scale(0.015625)"/>
      </defs>
      <use xlink:href="#ArialMT-74"/>
      <use x="27.783203" xlink:href="#ArialMT-69"/>
      <use x="50" xlink:href="#ArialMT-6d"/>
      <use x="133.300781" xlink:href="#ArialMT-65"/>
      <use x="188.916016" xlink:href="#ArialMT-20"/>
      <use x="216.699219" xlink:href="#ArialMT-28"/>
      <use x="250" xlink:href="#ArialMT-73"/>
      <use x="300" xlink:href="#ArialMT-29"/>
     </g>
    </g>
   </g>
   <g id="PathCollection_1">
    <defs>
     <path d="M -3.383948 3.383948 
L 3.383948 -3.383948 
M -3.383948 -3.383948 
L 3.383948 3.383948 
" id="m36c2705681" style="stroke:#4c72b0;stroke-width:2.025;"/>
    </defs>
    <g clip-path="url(#p67cbcb5984)">
     <use style="fill:#4c72b0;stroke:#4c72b0;stroke-width:2.025;" x="68.847527" xlink:href="#m36c2705681" y="287.875301"/>
     <use style="fill:#4c72b0;stroke:#4c72b0;stroke-width:2.025;" x="94.656643" xlink:href="#m36c2705681" y="283.954441"/>
     <use style="fill:#4c72b0;stroke:#4c72b0;stroke-width:2.025;" x="120.465759" xlink:href="#m36c2705681" y="278.895788"/>
     <use style="fill:#4c72b0;stroke:#4c72b0;stroke-width:2.025;" x="146.274875" xlink:href="#m36c2705681" y="273.556523"/>
     <use style="fill:#4c72b0;stroke:#4c72b0;stroke-width:2.025;" x="172.083991" xlink:href="#m36c2705681" y="268.628826"/>
     <use style="fill:#4c72b0;stroke:#4c72b0;stroke-width:2.025;" x="197.893107" xlink:href="#m36c2705681" y="262.570672"/>
     <use style="fill:#4c72b0;stroke:#4c72b0;stroke-width:2.025;" x="223.702223" xlink:href="#m36c2705681" y="257.379103"/>
     <use style="fill:#4c72b0;stroke:#4c72b0;stroke-width:2.025;" x="249.511339" xlink:href="#m36c2705681" y="249.783861"/>
     <use style="fill:#4c72b0;stroke:#4c72b0;stroke-width:2.025;" x="275.320455" xlink:href="#m36c2705681" y="242.851148"/>
     <use style="fill:#4c72b0;stroke:#4c72b0;stroke-width:2.025;" x="301.129571" xlink:href="#m36c2705681" y="236.713942"/>
    </g>
   </g>
   <g id="line2d_6">
    <path clip-path="url(#p67cbcb5984)" d="M 68.847527 287.875301 
L 94.656643 283.954441 
L 120.465759 278.895788 
L 146.274875 273.556523 
L 172.083991 268.628826 
L 197.893107 262.570672 
L 223.702223 257.379103 
L 249.511339 249.783861 
L 275.320455 242.851148 
L 301.129571 236.713942 
" style="fill:none;stroke:#4c72b0;stroke-linecap:round;stroke-width:2.7;"/>
   </g>
   <g id="line2d_7">
    <path clip-path="url(#p67cbcb5984)" style="fill:none;stroke:#4c72b0;stroke-linecap:round;stroke-width:2.7;"/>
   </g>
   <g id="line2d_8">
    <path clip-path="url(#p67cbcb5984)" style="fill:none;stroke:#4c72b0;stroke-linecap:round;stroke-width:2.7;"/>
   </g>
   <g id="line2d_9">
    <path clip-path="url(#p67cbcb5984)" style="fill:none;stroke:#4c72b0;stroke-linecap:round;stroke-width:2.7;"/>
   </g>
   <g id="line2d_10">
    <path clip-path="url(#p67cbcb5984)" style="fill:none;stroke:#4c72b0;stroke-linecap:round;stroke-width:2.7;"/>
   </g>
   <g id="line2d_11">
    <path clip-path="url(#p67cbcb5984)" style="fill:none;stroke:#4c72b0;stroke-linecap:round;stroke-width:2.7;"/>
   </g>
   <g id="line2d_12">
    <path clip-path="url(#p67cbcb5984)" style="fill:none;stroke:#4c72b0;stroke-linecap:round;stroke-width:2.7;"/>
   </g>
   <g id="line2d_13">
    <path clip-path="url(#p67cbcb5984)" style="fill:none;stroke:#4c72b0;stroke-linecap:round;stroke-width:2.7;"/>
   </g>
   <g id="line2d_14">
    <path clip-path="url(#p67cbcb5984)" style="fill:none;stroke:#4c72b0;stroke-linecap:round;stroke-width:2.7;"/>
   </g>
   <g id="line2d_15">
    <path clip-path="url(#p67cbcb5984)" style="fill:none;stroke:#4c72b0;stroke-linecap:round;stroke-width:2.7;"/>
   </g>
   <g id="line2d_16">
    <path clip-path="url(#p67cbcb5984)" style="fill:none;stroke:#4c72b0;stroke-linecap:round;stroke-width:2.7;"/>
   </g>
   <g id="PathCollection_2">
    <defs>
     <path d="M -3.383948 3.383948 
L 3.383948 -3.383948 
M -3.383948 -3.383948 
L 3.383948 3.383948 
" id="m21cc4aab28" style="stroke:#dd8452;stroke-width:2.025;"/>
    </defs>
    <g clip-path="url(#p67cbcb5984)">
     <use style="fill:#dd8452;stroke:#dd8452;stroke-width:2.025;" x="68.847527" xlink:href="#m21cc4aab28" y="288.44071"/>
     <use style="fill:#dd8452;stroke:#dd8452;stroke-width:2.025;" x="94.656643" xlink:href="#m21cc4aab28" y="286.309538"/>
     <use style="fill:#dd8452;stroke:#dd8452;stroke-width:2.025;" x="120.465759" xlink:href="#m21cc4aab28" y="284.048237"/>
     <use style="fill:#dd8452;stroke:#dd8452;stroke-width:2.025;" x="146.274875" xlink:href="#m21cc4aab28" y="281.89181"/>
     <use style="fill:#dd8452;stroke:#dd8452;stroke-width:2.025;" x="172.083991" xlink:href="#m21cc4aab28" y="279.828745"/>
     <use style="fill:#dd8452;stroke:#dd8452;stroke-width:2.025;" x="197.893107" xlink:href="#m21cc4aab28" y="277.795454"/>
     <use style="fill:#dd8452;stroke:#dd8452;stroke-width:2.025;" x="223.702223" xlink:href="#m21cc4aab28" y="275.828368"/>
     <use style="fill:#dd8452;stroke:#dd8452;stroke-width:2.025;" x="249.511339" xlink:href="#m21cc4aab28" y="273.592182"/>
     <use style="fill:#dd8452;stroke:#dd8452;stroke-width:2.025;" x="275.320455" xlink:href="#m21cc4aab28" y="271.134177"/>
     <use style="fill:#dd8452;stroke:#dd8452;stroke-width:2.025;" x="301.129571" xlink:href="#m21cc4aab28" y="269.115681"/>
    </g>
   </g>
   <g id="line2d_17">
    <path clip-path="url(#p67cbcb5984)" d="M 68.847527 288.44071 
L 94.656643 286.309538 
L 120.465759 284.048237 
L 146.274875 281.89181 
L 172.083991 279.828745 
L 197.893107 277.795454 
L 223.702223 275.828368 
L 249.511339 273.592182 
L 275.320455 271.134177 
L 301.129571 269.115681 
" style="fill:none;stroke:#dd8452;stroke-linecap:round;stroke-width:2.7;"/>
   </g>
   <g id="line2d_18">
    <path clip-path="url(#p67cbcb5984)" style="fill:none;stroke:#dd8452;stroke-linecap:round;stroke-width:2.7;"/>
   </g>
   <g id="line2d_19">
    <path clip-path="url(#p67cbcb5984)" style="fill:none;stroke:#dd8452;stroke-linecap:round;stroke-width:2.7;"/>
   </g>
   <g id="line2d_20">
    <path clip-path="url(#p67cbcb5984)" style="fill:none;stroke:#dd8452;stroke-linecap:round;stroke-width:2.7;"/>
   </g>
   <g id="line2d_21">
    <path clip-path="url(#p67cbcb5984)" style="fill:none;stroke:#dd8452;stroke-linecap:round;stroke-width:2.7;"/>
   </g>
   <g id="line2d_22">
    <path clip-path="url(#p67cbcb5984)" style="fill:none;stroke:#dd8452;stroke-linecap:round;stroke-width:2.7;"/>
   </g>
   <g id="line2d_23">
    <path clip-path="url(#p67cbcb5984)" style="fill:none;stroke:#dd8452;stroke-linecap:round;stroke-width:2.7;"/>
   </g>
   <g id="line2d_24">
    <path clip-path="url(#p67cbcb5984)" style="fill:none;stroke:#dd8452;stroke-linecap:round;stroke-width:2.7;"/>
   </g>
   <g id="line2d_25">
    <path clip-path="url(#p67cbcb5984)" style="fill:none;stroke:#dd8452;stroke-linecap:round;stroke-width:2.7;"/>
   </g>
   <g id="line2d_26">
    <path clip-path="url(#p67cbcb5984)" style="fill:none;stroke:#dd8452;stroke-linecap:round;stroke-width:2.7;"/>
   </g>
   <g id="line2d_27">
    <path clip-path="url(#p67cbcb5984)" style="fill:none;stroke:#dd8452;stroke-linecap:round;stroke-width:2.7;"/>
   </g>
   <g id="patch_3">
    <path d="M 55.942969 300.923437 
L 55.942969 26.303437 
" style="fill:none;stroke:#ffffff;stroke-linecap:square;stroke-linejoin:miter;stroke-width:1.25;"/>
   </g>
   <g id="patch_4">
    <path d="M 55.942969 300.923437 
L 314.034129 300.923437 
" style="fill:none;stroke:#ffffff;stroke-linecap:square;stroke-linejoin:miter;stroke-width:1.25;"/>
   </g>
   <g id="PathCollection_3">
    <defs>
     <path d="M -3.383948 3.383948 
L 3.383948 -3.383948 
M -3.383948 -3.383948 
L 3.383948 3.383948 
" id="m4c666ebc54" style="stroke:#55a868;stroke-width:2.025;"/>
    </defs>
    <g clip-path="url(#p67cbcb5984)">
     <use style="fill:#55a868;stroke:#55a868;stroke-width:2.025;" x="68.847527" xlink:href="#m4c666ebc54" y="281.006619"/>
     <use style="fill:#55a868;stroke:#55a868;stroke-width:2.025;" x="94.656643" xlink:href="#m4c666ebc54" y="271.854091"/>
     <use style="fill:#55a868;stroke:#55a868;stroke-width:2.025;" x="120.465759" xlink:href="#m4c666ebc54" y="262.479628"/>
     <use style="fill:#55a868;stroke:#55a868;stroke-width:2.025;" x="146.274875" xlink:href="#m4c666ebc54" y="252.961891"/>
     <use style="fill:#55a868;stroke:#55a868;stroke-width:2.025;" x="172.083991" xlink:href="#m4c666ebc54" y="243.955855"/>
     <use style="fill:#55a868;stroke:#55a868;stroke-width:2.025;" x="197.893107" xlink:href="#m4c666ebc54" y="235.641474"/>
     <use style="fill:#55a868;stroke:#55a868;stroke-width:2.025;" x="223.702223" xlink:href="#m4c666ebc54" y="225.223712"/>
     <use style="fill:#55a868;stroke:#55a868;stroke-width:2.025;" x="249.511339" xlink:href="#m4c666ebc54" y="216.748822"/>
     <use style="fill:#55a868;stroke:#55a868;stroke-width:2.025;" x="275.320455" xlink:href="#m4c666ebc54" y="205.43614"/>
     <use style="fill:#55a868;stroke:#55a868;stroke-width:2.025;" x="301.129571" xlink:href="#m4c666ebc54" y="196.3479"/>
    </g>
   </g>
   <g id="line2d_28">
    <path clip-path="url(#p67cbcb5984)" d="M 68.847527 281.006619 
L 94.656643 271.854091 
L 120.465759 262.479628 
L 146.274875 252.961891 
L 172.083991 243.955855 
L 197.893107 235.641474 
L 223.702223 225.223712 
L 249.511339 216.748822 
L 275.320455 205.43614 
L 301.129571 196.3479 
" style="fill:none;stroke:#55a868;stroke-linecap:round;stroke-width:2.7;"/>
   </g>
   <g id="line2d_29">
    <path clip-path="url(#p67cbcb5984)" style="fill:none;stroke:#55a868;stroke-linecap:round;stroke-width:2.7;"/>
   </g>
   <g id="line2d_30">
    <path clip-path="url(#p67cbcb5984)" style="fill:none;stroke:#55a868;stroke-linecap:round;stroke-width:2.7;"/>
   </g>
   <g id="line2d_31">
    <path clip-path="url(#p67cbcb5984)" style="fill:none;stroke:#55a868;stroke-linecap:round;stroke-width:2.7;"/>
   </g>
   <g id="line2d_32">
    <path clip-path="url(#p67cbcb5984)" style="fill:none;stroke:#55a868;stroke-linecap:round;stroke-width:2.7;"/>
   </g>
   <g id="line2d_33">
    <path clip-path="url(#p67cbcb5984)" style="fill:none;stroke:#55a868;stroke-linecap:round;stroke-width:2.7;"/>
   </g>
   <g id="line2d_34">
    <path clip-path="url(#p67cbcb5984)" style="fill:none;stroke:#55a868;stroke-linecap:round;stroke-width:2.7;"/>
   </g>
   <g id="line2d_35">
    <path clip-path="url(#p67cbcb5984)" style="fill:none;stroke:#55a868;stroke-linecap:round;stroke-width:2.7;"/>
   </g>
   <g id="line2d_36">
    <path clip-path="url(#p67cbcb5984)" style="fill:none;stroke:#55a868;stroke-linecap:round;stroke-width:2.7;"/>
   </g>
   <g id="line2d_37">
    <path clip-path="url(#p67cbcb5984)" style="fill:none;stroke:#55a868;stroke-linecap:round;stroke-width:2.7;"/>
   </g>
   <g id="line2d_38">
    <path clip-path="url(#p67cbcb5984)" style="fill:none;stroke:#55a868;stroke-linecap:round;stroke-width:2.7;"/>
   </g>
   <g id="text_18">
    <!-- Sorting 10-100M integers -->
    <g style="fill:#262626;" transform="translate(83.939643 20.303437)scale(0.18 -0.18)">
     <defs>
      <path d="M 288 1472 
L 859 1522 
Q 900 1178 1048 958 
Q 1197 738 1509 602 
Q 1822 466 2213 466 
Q 2559 466 2825 569 
Q 3091 672 3220 851 
Q 3350 1031 3350 1244 
Q 3350 1459 3225 1620 
Q 3100 1781 2813 1891 
Q 2628 1963 1997 2114 
Q 1366 2266 1113 2400 
Q 784 2572 623 2826 
Q 463 3081 463 3397 
Q 463 3744 659 4045 
Q 856 4347 1234 4503 
Q 1613 4659 2075 4659 
Q 2584 4659 2973 4495 
Q 3363 4331 3572 4012 
Q 3781 3694 3797 3291 
L 3216 3247 
Q 3169 3681 2898 3903 
Q 2628 4125 2100 4125 
Q 1550 4125 1298 3923 
Q 1047 3722 1047 3438 
Q 1047 3191 1225 3031 
Q 1400 2872 2139 2705 
Q 2878 2538 3153 2413 
Q 3553 2228 3743 1945 
Q 3934 1663 3934 1294 
Q 3934 928 3725 604 
Q 3516 281 3123 101 
Q 2731 -78 2241 -78 
Q 1619 -78 1198 103 
Q 778 284 539 648 
Q 300 1013 288 1472 
z
" id="ArialMT-53" transform="scale(0.015625)"/>
      <path d="M 319 -275 
L 866 -356 
Q 900 -609 1056 -725 
Q 1266 -881 1628 -881 
Q 2019 -881 2231 -725 
Q 2444 -569 2519 -288 
Q 2563 -116 2559 434 
Q 2191 0 1641 0 
Q 956 0 581 494 
Q 206 988 206 1678 
Q 206 2153 378 2554 
Q 550 2956 876 3175 
Q 1203 3394 1644 3394 
Q 2231 3394 2613 2919 
L 2613 3319 
L 3131 3319 
L 3131 450 
Q 3131 -325 2973 -648 
Q 2816 -972 2473 -1159 
Q 2131 -1347 1631 -1347 
Q 1038 -1347 672 -1080 
Q 306 -813 319 -275 
z
M 784 1719 
Q 784 1066 1043 766 
Q 1303 466 1694 466 
Q 2081 466 2343 764 
Q 2606 1063 2606 1700 
Q 2606 2309 2336 2618 
Q 2066 2928 1684 2928 
Q 1309 2928 1046 2623 
Q 784 2319 784 1719 
z
" id="ArialMT-67" transform="scale(0.015625)"/>
      <path d="M 203 1375 
L 203 1941 
L 1931 1941 
L 1931 1375 
L 203 1375 
z
" id="ArialMT-2d" transform="scale(0.015625)"/>
      <path d="M 475 0 
L 475 4581 
L 1388 4581 
L 2472 1338 
Q 2622 884 2691 659 
Q 2769 909 2934 1394 
L 4031 4581 
L 4847 4581 
L 4847 0 
L 4263 0 
L 4263 3834 
L 2931 0 
L 2384 0 
L 1059 3900 
L 1059 0 
L 475 0 
z
" id="ArialMT-4d" transform="scale(0.015625)"/>
     </defs>
     <use xlink:href="#ArialMT-53"/>
     <use x="66.699219" xlink:href="#ArialMT-6f"/>
     <use x="122.314453" xlink:href="#ArialMT-72"/>
     <use x="155.615234" xlink:href="#ArialMT-74"/>
     <use x="183.398438" xlink:href="#ArialMT-69"/>
     <use x="205.615234" xlink:href="#ArialMT-6e"/>
     <use x="261.230469" xlink:href="#ArialMT-67"/>
     <use x="316.845703" xlink:href="#ArialMT-20"/>
     <use x="344.628906" xlink:href="#ArialMT-31"/>
     <use x="400.244141" xlink:href="#ArialMT-30"/>
     <use x="455.859375" xlink:href="#ArialMT-2d"/>
     <use x="489.160156" xlink:href="#ArialMT-31"/>
     <use x="544.775391" xlink:href="#ArialMT-30"/>
     <use x="600.390625" xlink:href="#ArialMT-30"/>
     <use x="656.005859" xlink:href="#ArialMT-4d"/>
     <use x="739.306641" xlink:href="#ArialMT-20"/>
     <use x="767.089844" xlink:href="#ArialMT-69"/>
     <use x="789.306641" xlink:href="#ArialMT-6e"/>
     <use x="844.921875" xlink:href="#ArialMT-74"/>
     <use x="872.705078" xlink:href="#ArialMT-65"/>
     <use x="928.320312" xlink:href="#ArialMT-67"/>
     <use x="983.935547" xlink:href="#ArialMT-65"/>
     <use x="1039.550781" xlink:href="#ArialMT-72"/>
     <use x="1072.851562" xlink:href="#ArialMT-73"/>
    </g>
   </g>
   <g id="PathCollection_4">
    <defs>
     <path d="M -3.383948 3.383948 
L 3.383948 -3.383948 
M -3.383948 -3.383948 
L 3.383948 3.383948 
" id="mf24cb6178e" style="stroke:#c44e52;stroke-width:2.025;"/>
    </defs>
    <g clip-path="url(#p67cbcb5984)">
     <use style="fill:#c44e52;stroke:#c44e52;stroke-width:2.025;" x="68.847527" xlink:href="#mf24cb6178e" y="283.426308"/>
     <use style="fill:#c44e52;stroke:#c44e52;stroke-width:2.025;" x="94.656643" xlink:href="#mf24cb6178e" y="274.169993"/>
     <use style="fill:#c44e52;stroke:#c44e52;stroke-width:2.025;" x="120.465759" xlink:href="#mf24cb6178e" y="265.182794"/>
     <use style="fill:#c44e52;stroke:#c44e52;stroke-width:2.025;" x="146.274875" xlink:href="#mf24cb6178e" y="256.647562"/>
     <use style="fill:#c44e52;stroke:#c44e52;stroke-width:2.025;" x="172.083991" xlink:href="#mf24cb6178e" y="246.223824"/>
     <use style="fill:#c44e52;stroke:#c44e52;stroke-width:2.025;" x="197.893107" xlink:href="#mf24cb6178e" y="237.277712"/>
     <use style="fill:#c44e52;stroke:#c44e52;stroke-width:2.025;" x="223.702223" xlink:href="#mf24cb6178e" y="228.057565"/>
     <use style="fill:#c44e52;stroke:#c44e52;stroke-width:2.025;" x="249.511339" xlink:href="#mf24cb6178e" y="218.572041"/>
     <use style="fill:#c44e52;stroke:#c44e52;stroke-width:2.025;" x="275.320455" xlink:href="#mf24cb6178e" y="208.785034"/>
     <use style="fill:#c44e52;stroke:#c44e52;stroke-width:2.025;" x="301.129571" xlink:href="#mf24cb6178e" y="197.904389"/>
    </g>
   </g>
   <g id="line2d_39">
    <path clip-path="url(#p67cbcb5984)" d="M 68.847527 283.426308 
L 94.656643 274.169993 
L 120.465759 265.182794 
L 146.274875 256.647562 
L 172.083991 246.223824 
L 197.893107 237.277712 
L 223.702223 228.057565 
L 249.511339 218.572041 
L 275.320455 208.785034 
L 301.129571 197.904389 
" style="fill:none;stroke:#c44e52;stroke-linecap:round;stroke-width:2.7;"/>
   </g>
   <g id="line2d_40">
    <path clip-path="url(#p67cbcb5984)" style="fill:none;stroke:#c44e52;stroke-linecap:round;stroke-width:2.7;"/>
   </g>
   <g id="line2d_41">
    <path clip-path="url(#p67cbcb5984)" style="fill:none;stroke:#c44e52;stroke-linecap:round;stroke-width:2.7;"/>
   </g>
   <g id="line2d_42">
    <path clip-path="url(#p67cbcb5984)" style="fill:none;stroke:#c44e52;stroke-linecap:round;stroke-width:2.7;"/>
   </g>
   <g id="line2d_43">
    <path clip-path="url(#p67cbcb5984)" style="fill:none;stroke:#c44e52;stroke-linecap:round;stroke-width:2.7;"/>
   </g>
   <g id="line2d_44">
    <path clip-path="url(#p67cbcb5984)" style="fill:none;stroke:#c44e52;stroke-linecap:round;stroke-width:2.7;"/>
   </g>
   <g id="line2d_45">
    <path clip-path="url(#p67cbcb5984)" style="fill:none;stroke:#c44e52;stroke-linecap:round;stroke-width:2.7;"/>
   </g>
   <g id="line2d_46">
    <path clip-path="url(#p67cbcb5984)" style="fill:none;stroke:#c44e52;stroke-linecap:round;stroke-width:2.7;"/>
   </g>
   <g id="line2d_47">
    <path clip-path="url(#p67cbcb5984)" style="fill:none;stroke:#c44e52;stroke-linecap:round;stroke-width:2.7;"/>
   </g>
   <g id="line2d_48">
    <path clip-path="url(#p67cbcb5984)" style="fill:none;stroke:#c44e52;stroke-linecap:round;stroke-width:2.7;"/>
   </g>
   <g id="line2d_49">
    <path clip-path="url(#p67cbcb5984)" style="fill:none;stroke:#c44e52;stroke-linecap:round;stroke-width:2.7;"/>
   </g>
   <g id="PathCollection_5">
    <defs>
     <path d="M -3.383948 3.383948 
L 3.383948 -3.383948 
M -3.383948 -3.383948 
L 3.383948 3.383948 
" id="m210c505414" style="stroke:#8172b3;stroke-width:2.025;"/>
    </defs>
    <g clip-path="url(#p67cbcb5984)">
     <use style="fill:#8172b3;stroke:#8172b3;stroke-width:2.025;" x="68.847527" xlink:href="#m210c505414" y="268.038636"/>
     <use style="fill:#8172b3;stroke:#8172b3;stroke-width:2.025;" x="94.656643" xlink:href="#m210c505414" y="245.458677"/>
     <use style="fill:#8172b3;stroke:#8172b3;stroke-width:2.025;" x="120.465759" xlink:href="#m210c505414" y="218.790888"/>
     <use style="fill:#8172b3;stroke:#8172b3;stroke-width:2.025;" x="146.274875" xlink:href="#m210c505414" y="192.827847"/>
     <use style="fill:#8172b3;stroke:#8172b3;stroke-width:2.025;" x="172.083991" xlink:href="#m210c505414" y="167.143182"/>
     <use style="fill:#8172b3;stroke:#8172b3;stroke-width:2.025;" x="197.893107" xlink:href="#m210c505414" y="141.882184"/>
     <use style="fill:#8172b3;stroke:#8172b3;stroke-width:2.025;" x="223.702223" xlink:href="#m210c505414" y="114.315933"/>
     <use style="fill:#8172b3;stroke:#8172b3;stroke-width:2.025;" x="249.511339" xlink:href="#m210c505414" y="90.347746"/>
     <use style="fill:#8172b3;stroke:#8172b3;stroke-width:2.025;" x="275.320455" xlink:href="#m210c505414" y="64.397185"/>
     <use style="fill:#8172b3;stroke:#8172b3;stroke-width:2.025;" x="301.129571" xlink:href="#m210c505414" y="38.786165"/>
    </g>
   </g>
   <g id="line2d_50">
    <path clip-path="url(#p67cbcb5984)" d="M 68.847527 268.038636 
L 94.656643 245.458677 
L 120.465759 218.790888 
L 146.274875 192.827847 
L 172.083991 167.143182 
L 197.893107 141.882184 
L 223.702223 114.315933 
L 249.511339 90.347746 
L 275.320455 64.397185 
L 301.129571 38.786165 
" style="fill:none;stroke:#8172b3;stroke-linecap:round;stroke-width:2.7;"/>
   </g>
   <g id="line2d_51">
    <path clip-path="url(#p67cbcb5984)" style="fill:none;stroke:#8172b3;stroke-linecap:round;stroke-width:2.7;"/>
   </g>
   <g id="line2d_52">
    <path clip-path="url(#p67cbcb5984)" style="fill:none;stroke:#8172b3;stroke-linecap:round;stroke-width:2.7;"/>
   </g>
   <g id="line2d_53">
    <path clip-path="url(#p67cbcb5984)" style="fill:none;stroke:#8172b3;stroke-linecap:round;stroke-width:2.7;"/>
   </g>
   <g id="line2d_54">
    <path clip-path="url(#p67cbcb5984)" style="fill:none;stroke:#8172b3;stroke-linecap:round;stroke-width:2.7;"/>
   </g>
   <g id="line2d_55">
    <path clip-path="url(#p67cbcb5984)" style="fill:none;stroke:#8172b3;stroke-linecap:round;stroke-width:2.7;"/>
   </g>
   <g id="line2d_56">
    <path clip-path="url(#p67cbcb5984)" style="fill:none;stroke:#8172b3;stroke-linecap:round;stroke-width:2.7;"/>
   </g>
   <g id="line2d_57">
    <path clip-path="url(#p67cbcb5984)" style="fill:none;stroke:#8172b3;stroke-linecap:round;stroke-width:2.7;"/>
   </g>
   <g id="line2d_58">
    <path clip-path="url(#p67cbcb5984)" style="fill:none;stroke:#8172b3;stroke-linecap:round;stroke-width:2.7;"/>
   </g>
   <g id="line2d_59">
    <path clip-path="url(#p67cbcb5984)" style="fill:none;stroke:#8172b3;stroke-linecap:round;stroke-width:2.7;"/>
   </g>
   <g id="line2d_60">
    <path clip-path="url(#p67cbcb5984)" style="fill:none;stroke:#8172b3;stroke-linecap:round;stroke-width:2.7;"/>
   </g>
  </g>
  <g id="legend_1">
   <g id="text_19">
    <!-- system -->
    <g style="fill:#262626;" transform="translate(352.993246 122.689102)scale(0.18 -0.18)">
     <defs>
      <path d="M 397 -1278 
L 334 -750 
Q 519 -800 656 -800 
Q 844 -800 956 -737 
Q 1069 -675 1141 -563 
Q 1194 -478 1313 -144 
Q 1328 -97 1363 -6 
L 103 3319 
L 709 3319 
L 1400 1397 
Q 1534 1031 1641 628 
Q 1738 1016 1872 1384 
L 2581 3319 
L 3144 3319 
L 1881 -56 
Q 1678 -603 1566 -809 
Q 1416 -1088 1222 -1217 
Q 1028 -1347 759 -1347 
Q 597 -1347 397 -1278 
z
" id="ArialMT-79" transform="scale(0.015625)"/>
     </defs>
     <use xlink:href="#ArialMT-73"/>
     <use x="50" xlink:href="#ArialMT-79"/>
     <use x="100" xlink:href="#ArialMT-73"/>
     <use x="150" xlink:href="#ArialMT-74"/>
     <use x="177.783203" xlink:href="#ArialMT-65"/>
     <use x="233.398438" xlink:href="#ArialMT-6d"/>
    </g>
   </g>
   <g id="PathCollection_6">
    <defs>
     <path d="M -5 5 
L 5 -5 
M -5 -5 
L 5 5 
" id="m9dbaa9b212" style="stroke:#4c72b0;stroke-width:5;"/>
    </defs>
    <g>
     <use style="fill:#4c72b0;stroke:#4c72b0;stroke-width:5;" x="333.174614" xlink:href="#m9dbaa9b212" y="142.20668"/>
    </g>
   </g>
   <g id="text_20">
    <!-- ClickHouse -->
    <g style="fill:#262626;" transform="translate(362.874614 146.53793)scale(0.165 -0.165)">
     <defs>
      <path d="M 3763 1606 
L 4369 1453 
Q 4178 706 3683 314 
Q 3188 -78 2472 -78 
Q 1731 -78 1267 223 
Q 803 525 561 1097 
Q 319 1669 319 2325 
Q 319 3041 592 3573 
Q 866 4106 1370 4382 
Q 1875 4659 2481 4659 
Q 3169 4659 3637 4309 
Q 4106 3959 4291 3325 
L 3694 3184 
Q 3534 3684 3231 3912 
Q 2928 4141 2469 4141 
Q 1941 4141 1586 3887 
Q 1231 3634 1087 3207 
Q 944 2781 944 2328 
Q 944 1744 1114 1308 
Q 1284 872 1643 656 
Q 2003 441 2422 441 
Q 2931 441 3284 734 
Q 3638 1028 3763 1606 
z
" id="ArialMT-43" transform="scale(0.015625)"/>
      <path d="M 2588 1216 
L 3141 1144 
Q 3050 572 2676 248 
Q 2303 -75 1759 -75 
Q 1078 -75 664 370 
Q 250 816 250 1647 
Q 250 2184 428 2587 
Q 606 2991 970 3192 
Q 1334 3394 1763 3394 
Q 2303 3394 2647 3120 
Q 2991 2847 3088 2344 
L 2541 2259 
Q 2463 2594 2264 2762 
Q 2066 2931 1784 2931 
Q 1359 2931 1093 2626 
Q 828 2322 828 1663 
Q 828 994 1084 691 
Q 1341 388 1753 388 
Q 2084 388 2306 591 
Q 2528 794 2588 1216 
z
" id="ArialMT-63" transform="scale(0.015625)"/>
      <path d="M 425 0 
L 425 4581 
L 988 4581 
L 988 1969 
L 2319 3319 
L 3047 3319 
L 1778 2088 
L 3175 0 
L 2481 0 
L 1384 1697 
L 988 1316 
L 988 0 
L 425 0 
z
" id="ArialMT-6b" transform="scale(0.015625)"/>
      <path d="M 513 0 
L 513 4581 
L 1119 4581 
L 1119 2700 
L 3500 2700 
L 3500 4581 
L 4106 4581 
L 4106 0 
L 3500 0 
L 3500 2159 
L 1119 2159 
L 1119 0 
L 513 0 
z
" id="ArialMT-48" transform="scale(0.015625)"/>
      <path d="M 2597 0 
L 2597 488 
Q 2209 -75 1544 -75 
Q 1250 -75 995 37 
Q 741 150 617 320 
Q 494 491 444 738 
Q 409 903 409 1263 
L 409 3319 
L 972 3319 
L 972 1478 
Q 972 1038 1006 884 
Q 1059 663 1231 536 
Q 1403 409 1656 409 
Q 1909 409 2131 539 
Q 2353 669 2445 892 
Q 2538 1116 2538 1541 
L 2538 3319 
L 3100 3319 
L 3100 0 
L 2597 0 
z
" id="ArialMT-75" transform="scale(0.015625)"/>
     </defs>
     <use xlink:href="#ArialMT-43"/>
     <use x="72.216797" xlink:href="#ArialMT-6c"/>
     <use x="94.433594" xlink:href="#ArialMT-69"/>
     <use x="116.650391" xlink:href="#ArialMT-63"/>
     <use x="166.650391" xlink:href="#ArialMT-6b"/>
     <use x="216.650391" xlink:href="#ArialMT-48"/>
     <use x="288.867188" xlink:href="#ArialMT-6f"/>
     <use x="344.482422" xlink:href="#ArialMT-75"/>
     <use x="400.097656" xlink:href="#ArialMT-73"/>
     <use x="450.097656" xlink:href="#ArialMT-65"/>
    </g>
   </g>
   <g id="PathCollection_7">
    <defs>
     <path d="M -5 5 
L 5 -5 
M -5 -5 
L 5 5 
" id="mc9c2fdd564" style="stroke:#dd8452;stroke-width:5;"/>
    </defs>
    <g>
     <use style="fill:#dd8452;stroke:#dd8452;stroke-width:5;" x="333.174614" xlink:href="#mc9c2fdd564" y="165.546445"/>
    </g>
   </g>
   <g id="text_21">
    <!-- DuckDB -->
    <g style="fill:#262626;" transform="translate(362.874614 169.877695)scale(0.165 -0.165)">
     <defs>
      <path d="M 494 0 
L 494 4581 
L 2072 4581 
Q 2606 4581 2888 4516 
Q 3281 4425 3559 4188 
Q 3922 3881 4101 3404 
Q 4281 2928 4281 2316 
Q 4281 1794 4159 1391 
Q 4038 988 3847 723 
Q 3656 459 3429 307 
Q 3203 156 2883 78 
Q 2563 0 2147 0 
L 494 0 
z
M 1100 541 
L 2078 541 
Q 2531 541 2789 625 
Q 3047 709 3200 863 
Q 3416 1078 3536 1442 
Q 3656 1806 3656 2325 
Q 3656 3044 3420 3430 
Q 3184 3816 2847 3947 
Q 2603 4041 2063 4041 
L 1100 4041 
L 1100 541 
z
" id="ArialMT-44" transform="scale(0.015625)"/>
      <path d="M 469 0 
L 469 4581 
L 2188 4581 
Q 2713 4581 3030 4442 
Q 3347 4303 3526 4014 
Q 3706 3725 3706 3409 
Q 3706 3116 3547 2856 
Q 3388 2597 3066 2438 
Q 3481 2316 3704 2022 
Q 3928 1728 3928 1328 
Q 3928 1006 3792 729 
Q 3656 453 3456 303 
Q 3256 153 2954 76 
Q 2653 0 2216 0 
L 469 0 
z
M 1075 2656 
L 2066 2656 
Q 2469 2656 2644 2709 
Q 2875 2778 2992 2937 
Q 3109 3097 3109 3338 
Q 3109 3566 3000 3739 
Q 2891 3913 2687 3977 
Q 2484 4041 1991 4041 
L 1075 4041 
L 1075 2656 
z
M 1075 541 
L 2216 541 
Q 2509 541 2628 563 
Q 2838 600 2978 687 
Q 3119 775 3209 942 
Q 3300 1109 3300 1328 
Q 3300 1584 3169 1773 
Q 3038 1963 2805 2039 
Q 2572 2116 2134 2116 
L 1075 2116 
L 1075 541 
z
" id="ArialMT-42" transform="scale(0.015625)"/>
     </defs>
     <use xlink:href="#ArialMT-44"/>
     <use x="72.216797" xlink:href="#ArialMT-75"/>
     <use x="127.832031" xlink:href="#ArialMT-63"/>
     <use x="177.832031" xlink:href="#ArialMT-6b"/>
     <use x="227.832031" xlink:href="#ArialMT-44"/>
     <use x="300.048828" xlink:href="#ArialMT-42"/>
    </g>
   </g>
   <g id="PathCollection_8">
    <defs>
     <path d="M -5 5 
L 5 -5 
M -5 -5 
L 5 5 
" id="m87d668a3a8" style="stroke:#55a868;stroke-width:5;"/>
    </defs>
    <g>
     <use style="fill:#55a868;stroke:#55a868;stroke-width:5;" x="333.174614" xlink:href="#m87d668a3a8" y="188.886211"/>
    </g>
   </g>
   <g id="text_22">
    <!-- HyPer -->
    <g style="fill:#262626;" transform="translate(362.874614 193.217461)scale(0.165 -0.165)">
     <defs>
      <path d="M 494 0 
L 494 4581 
L 2222 4581 
Q 2678 4581 2919 4538 
Q 3256 4481 3484 4323 
Q 3713 4166 3852 3881 
Q 3991 3597 3991 3256 
Q 3991 2672 3619 2267 
Q 3247 1863 2275 1863 
L 1100 1863 
L 1100 0 
L 494 0 
z
M 1100 2403 
L 2284 2403 
Q 2872 2403 3119 2622 
Q 3366 2841 3366 3238 
Q 3366 3525 3220 3729 
Q 3075 3934 2838 4000 
Q 2684 4041 2272 4041 
L 1100 4041 
L 1100 2403 
z
" id="ArialMT-50" transform="scale(0.015625)"/>
     </defs>
     <use xlink:href="#ArialMT-48"/>
     <use x="72.216797" xlink:href="#ArialMT-79"/>
     <use x="122.216797" xlink:href="#ArialMT-50"/>
     <use x="188.916016" xlink:href="#ArialMT-65"/>
     <use x="244.53125" xlink:href="#ArialMT-72"/>
    </g>
   </g>
   <g id="PathCollection_9">
    <defs>
     <path d="M -5 5 
L 5 -5 
M -5 -5 
L 5 5 
" id="m85163443eb" style="stroke:#c44e52;stroke-width:5;"/>
    </defs>
    <g>
     <use style="fill:#c44e52;stroke:#c44e52;stroke-width:5;" x="333.174614" xlink:href="#m85163443eb" y="212.419336"/>
    </g>
   </g>
   <g id="text_23">
    <!-- Pandas -->
    <g style="fill:#262626;" transform="translate(362.874614 216.750586)scale(0.165 -0.165)">
     <defs>
      <path d="M 2588 409 
Q 2275 144 1986 34 
Q 1697 -75 1366 -75 
Q 819 -75 525 192 
Q 231 459 231 875 
Q 231 1119 342 1320 
Q 453 1522 633 1644 
Q 813 1766 1038 1828 
Q 1203 1872 1538 1913 
Q 2219 1994 2541 2106 
Q 2544 2222 2544 2253 
Q 2544 2597 2384 2738 
Q 2169 2928 1744 2928 
Q 1347 2928 1158 2789 
Q 969 2650 878 2297 
L 328 2372 
Q 403 2725 575 2942 
Q 747 3159 1072 3276 
Q 1397 3394 1825 3394 
Q 2250 3394 2515 3294 
Q 2781 3194 2906 3042 
Q 3031 2891 3081 2659 
Q 3109 2516 3109 2141 
L 3109 1391 
Q 3109 606 3145 398 
Q 3181 191 3288 0 
L 2700 0 
Q 2613 175 2588 409 
z
M 2541 1666 
Q 2234 1541 1622 1453 
Q 1275 1403 1131 1340 
Q 988 1278 909 1158 
Q 831 1038 831 891 
Q 831 666 1001 516 
Q 1172 366 1500 366 
Q 1825 366 2078 508 
Q 2331 650 2450 897 
Q 2541 1088 2541 1459 
L 2541 1666 
z
" id="ArialMT-61" transform="scale(0.015625)"/>
     </defs>
     <use xlink:href="#ArialMT-50"/>
     <use x="66.699219" xlink:href="#ArialMT-61"/>
     <use x="122.314453" xlink:href="#ArialMT-6e"/>
     <use x="177.929688" xlink:href="#ArialMT-64"/>
     <use x="233.544922" xlink:href="#ArialMT-61"/>
     <use x="289.160156" xlink:href="#ArialMT-73"/>
    </g>
   </g>
   <g id="PathCollection_10">
    <defs>
     <path d="M -5 5 
L 5 -5 
M -5 -5 
L 5 5 
" id="mb2c2fba605" style="stroke:#8172b3;stroke-width:5;"/>
    </defs>
    <g>
     <use style="fill:#8172b3;stroke:#8172b3;stroke-width:5;" x="333.174614" xlink:href="#mb2c2fba605" y="235.759102"/>
    </g>
   </g>
   <g id="text_24">
    <!-- SQLite -->
    <g style="fill:#262626;" transform="translate(362.874614 240.090352)scale(0.165 -0.165)">
     <defs>
      <path d="M 3966 491 
Q 4388 200 4744 66 
L 4566 -356 
Q 4072 -178 3581 206 
Q 3072 -78 2456 -78 
Q 1834 -78 1328 222 
Q 822 522 548 1065 
Q 275 1609 275 2291 
Q 275 2969 550 3525 
Q 825 4081 1333 4372 
Q 1841 4663 2469 4663 
Q 3103 4663 3612 4361 
Q 4122 4059 4389 3517 
Q 4656 2975 4656 2294 
Q 4656 1728 4484 1276 
Q 4313 825 3966 491 
z
M 2631 1266 
Q 3156 1119 3497 828 
Q 4031 1316 4031 2294 
Q 4031 2850 3842 3265 
Q 3653 3681 3289 3911 
Q 2925 4141 2472 4141 
Q 1794 4141 1347 3677 
Q 900 3213 900 2291 
Q 900 1397 1342 919 
Q 1784 441 2472 441 
Q 2797 441 3084 563 
Q 2800 747 2484 825 
L 2631 1266 
z
" id="ArialMT-51" transform="scale(0.015625)"/>
      <path d="M 469 0 
L 469 4581 
L 1075 4581 
L 1075 541 
L 3331 541 
L 3331 0 
L 469 0 
z
" id="ArialMT-4c" transform="scale(0.015625)"/>
     </defs>
     <use xlink:href="#ArialMT-53"/>
     <use x="66.699219" xlink:href="#ArialMT-51"/>
     <use x="144.482422" xlink:href="#ArialMT-4c"/>
     <use x="200.097656" xlink:href="#ArialMT-69"/>
     <use x="222.314453" xlink:href="#ArialMT-74"/>
     <use x="250.097656" xlink:href="#ArialMT-65"/>
    </g>
   </g>
  </g>
 </g>
 <defs>
  <clipPath id="p67cbcb5984">
   <rect height="274.62" width="258.09116" x="55.942969" y="26.303437"/>
  </clipPath>
 </defs>
</svg>
