<?xml version="1.0" encoding="utf-8" standalone="no"?>
<!DOCTYPE svg PUBLIC "-//W3C//DTD SVG 1.1//EN"
  "http://www.w3.org/Graphics/SVG/1.1/DTD/svg11.dtd">
<svg height="702.40625pt" version="1.1" viewBox="0 0 854.7885 702.40625" width="854.7885pt" xmlns="http://www.w3.org/2000/svg" xmlns:xlink="http://www.w3.org/1999/xlink">
 <metadata>
  <rdf:RDF xmlns:cc="http://creativecommons.org/ns#" xmlns:dc="http://purl.org/dc/elements/1.1/" xmlns:rdf="http://www.w3.org/1999/02/22-rdf-syntax-ns#">
   <cc:Work>
    <dc:type rdf:resource="http://purl.org/dc/dcmitype/StillImage"/>
    <dc:date>2021-08-24T15:23:32.539695</dc:date>
    <dc:format>image/svg+xml</dc:format>
    <dc:creator>
     <cc:Agent>
      <dc:title>Matplotlib v3.4.3, https://matplotlib.org/</dc:title>
     </cc:Agent>
    </dc:creator>
   </cc:Work>
  </rdf:RDF>
 </metadata>
 <defs>
  <style type="text/css">*{stroke-linecap:butt;stroke-linejoin:round;}</style>
 </defs>
 <g id="figure_1">
  <g id="patch_1">
   <path d="M 0 702.40625 
L 854.7885 702.40625 
L 854.7885 0 
L 0 0 
z
" style="fill:#ffffff;"/>
  </g>
  <g id="axes_1">
   <g id="patch_2">
    <path d="M 107.320578 330.332937 
L 395.542834 330.332937 
L 395.542834 64.8 
L 107.320578 64.8 
z
" style="fill:#eaeaf2;"/>
   </g>
   <g id="matplotlib.axis_1">
    <g id="xtick_1">
     <g id="text_1">
      <!-- CH -->
      <g style="fill:#262626;" transform="translate(125.021116 350.855969)scale(0.154 -0.154)">
       <defs>
        <path d="M 3763 1606 
L 4369 1453 
Q 4178 706 3683 314 
Q 3188 -78 2472 -78 
Q 1731 -78 1267 223 
Q 803 525 561 1097 
Q 319 1669 319 2325 
Q 319 3041 592 3573 
Q 866 4106 1370 4382 
Q 1875 4659 2481 4659 
Q 3169 4659 3637 4309 
Q 4106 3959 4291 3325 
L 3694 3184 
Q 3534 3684 3231 3912 
Q 2928 4141 2469 4141 
Q 1941 4141 1586 3887 
Q 1231 3634 1087 3207 
Q 944 2781 944 2328 
Q 944 1744 1114 1308 
Q 1284 872 1643 656 
Q 2003 441 2422 441 
Q 2931 441 3284 734 
Q 3638 1028 3763 1606 
z
" id="ArialMT-43" transform="scale(0.015625)"/>
        <path d="M 513 0 
L 513 4581 
L 1119 4581 
L 1119 2700 
L 3500 2700 
L 3500 4581 
L 4106 4581 
L 4106 0 
L 3500 0 
L 3500 2159 
L 1119 2159 
L 1119 0 
L 513 0 
z
" id="ArialMT-48" transform="scale(0.015625)"/>
       </defs>
       <use xlink:href="#ArialMT-43"/>
       <use x="72.216797" xlink:href="#ArialMT-48"/>
      </g>
     </g>
    </g>
    <g id="xtick_2">
     <g id="text_2">
      <!-- DuckDB -->
      <g style="fill:#262626;" transform="translate(165.547504 350.855969)scale(0.154 -0.154)">
       <defs>
        <path d="M 494 0 
L 494 4581 
L 2072 4581 
Q 2606 4581 2888 4516 
Q 3281 4425 3559 4188 
Q 3922 3881 4101 3404 
Q 4281 2928 4281 2316 
Q 4281 1794 4159 1391 
Q 4038 988 3847 723 
Q 3656 459 3429 307 
Q 3203 156 2883 78 
Q 2563 0 2147 0 
L 494 0 
z
M 1100 541 
L 2078 541 
Q 2531 541 2789 625 
Q 3047 709 3200 863 
Q 3416 1078 3536 1442 
Q 3656 1806 3656 2325 
Q 3656 3044 3420 3430 
Q 3184 3816 2847 3947 
Q 2603 4041 2063 4041 
L 1100 4041 
L 1100 541 
z
" id="ArialMT-44" transform="scale(0.015625)"/>
        <path d="M 2597 0 
L 2597 488 
Q 2209 -75 1544 -75 
Q 1250 -75 995 37 
Q 741 150 617 320 
Q 494 491 444 738 
Q 409 903 409 1263 
L 409 3319 
L 972 3319 
L 972 1478 
Q 972 1038 1006 884 
Q 1059 663 1231 536 
Q 1403 409 1656 409 
Q 1909 409 2131 539 
Q 2353 669 2445 892 
Q 2538 1116 2538 1541 
L 2538 3319 
L 3100 3319 
L 3100 0 
L 2597 0 
z
" id="ArialMT-75" transform="scale(0.015625)"/>
        <path d="M 2588 1216 
L 3141 1144 
Q 3050 572 2676 248 
Q 2303 -75 1759 -75 
Q 1078 -75 664 370 
Q 250 816 250 1647 
Q 250 2184 428 2587 
Q 606 2991 970 3192 
Q 1334 3394 1763 3394 
Q 2303 3394 2647 3120 
Q 2991 2847 3088 2344 
L 2541 2259 
Q 2463 2594 2264 2762 
Q 2066 2931 1784 2931 
Q 1359 2931 1093 2626 
Q 828 2322 828 1663 
Q 828 994 1084 691 
Q 1341 388 1753 388 
Q 2084 388 2306 591 
Q 2528 794 2588 1216 
z
" id="ArialMT-63" transform="scale(0.015625)"/>
        <path d="M 425 0 
L 425 4581 
L 988 4581 
L 988 1969 
L 2319 3319 
L 3047 3319 
L 1778 2088 
L 3175 0 
L 2481 0 
L 1384 1697 
L 988 1316 
L 988 0 
L 425 0 
z
" id="ArialMT-6b" transform="scale(0.015625)"/>
        <path d="M 469 0 
L 469 4581 
L 2188 4581 
Q 2713 4581 3030 4442 
Q 3347 4303 3526 4014 
Q 3706 3725 3706 3409 
Q 3706 3116 3547 2856 
Q 3388 2597 3066 2438 
Q 3481 2316 3704 2022 
Q 3928 1728 3928 1328 
Q 3928 1006 3792 729 
Q 3656 453 3456 303 
Q 3256 153 2954 76 
Q 2653 0 2216 0 
L 469 0 
z
M 1075 2656 
L 2066 2656 
Q 2469 2656 2644 2709 
Q 2875 2778 2992 2937 
Q 3109 3097 3109 3338 
Q 3109 3566 3000 3739 
Q 2891 3913 2687 3977 
Q 2484 4041 1991 4041 
L 1075 4041 
L 1075 2656 
z
M 1075 541 
L 2216 541 
Q 2509 541 2628 563 
Q 2838 600 2978 687 
Q 3119 775 3209 942 
Q 3300 1109 3300 1328 
Q 3300 1584 3169 1773 
Q 3038 1963 2805 2039 
Q 2572 2116 2134 2116 
L 1075 2116 
L 1075 541 
z
" id="ArialMT-42" transform="scale(0.015625)"/>
       </defs>
       <use xlink:href="#ArialMT-44"/>
       <use x="72.216797" xlink:href="#ArialMT-75"/>
       <use x="127.832031" xlink:href="#ArialMT-63"/>
       <use x="177.832031" xlink:href="#ArialMT-6b"/>
       <use x="227.832031" xlink:href="#ArialMT-44"/>
       <use x="300.048828" xlink:href="#ArialMT-42"/>
      </g>
     </g>
    </g>
    <g id="xtick_3">
     <g id="text_3">
      <!-- HyPer -->
      <g style="fill:#262626;" transform="translate(230.03894 350.855969)scale(0.154 -0.154)">
       <defs>
        <path d="M 397 -1278 
L 334 -750 
Q 519 -800 656 -800 
Q 844 -800 956 -737 
Q 1069 -675 1141 -563 
Q 1194 -478 1313 -144 
Q 1328 -97 1363 -6 
L 103 3319 
L 709 3319 
L 1400 1397 
Q 1534 1031 1641 628 
Q 1738 1016 1872 1384 
L 2581 3319 
L 3144 3319 
L 1881 -56 
Q 1678 -603 1566 -809 
Q 1416 -1088 1222 -1217 
Q 1028 -1347 759 -1347 
Q 597 -1347 397 -1278 
z
" id="ArialMT-79" transform="scale(0.015625)"/>
        <path d="M 494 0 
L 494 4581 
L 2222 4581 
Q 2678 4581 2919 4538 
Q 3256 4481 3484 4323 
Q 3713 4166 3852 3881 
Q 3991 3597 3991 3256 
Q 3991 2672 3619 2267 
Q 3247 1863 2275 1863 
L 1100 1863 
L 1100 0 
L 494 0 
z
M 1100 2403 
L 2284 2403 
Q 2872 2403 3119 2622 
Q 3366 2841 3366 3238 
Q 3366 3525 3220 3729 
Q 3075 3934 2838 4000 
Q 2684 4041 2272 4041 
L 1100 4041 
L 1100 2403 
z
" id="ArialMT-50" transform="scale(0.015625)"/>
        <path d="M 2694 1069 
L 3275 997 
Q 3138 488 2766 206 
Q 2394 -75 1816 -75 
Q 1088 -75 661 373 
Q 234 822 234 1631 
Q 234 2469 665 2931 
Q 1097 3394 1784 3394 
Q 2450 3394 2872 2941 
Q 3294 2488 3294 1666 
Q 3294 1616 3291 1516 
L 816 1516 
Q 847 969 1125 678 
Q 1403 388 1819 388 
Q 2128 388 2347 550 
Q 2566 713 2694 1069 
z
M 847 1978 
L 2700 1978 
Q 2663 2397 2488 2606 
Q 2219 2931 1791 2931 
Q 1403 2931 1139 2672 
Q 875 2413 847 1978 
z
" id="ArialMT-65" transform="scale(0.015625)"/>
        <path d="M 416 0 
L 416 3319 
L 922 3319 
L 922 2816 
Q 1116 3169 1280 3281 
Q 1444 3394 1641 3394 
Q 1925 3394 2219 3213 
L 2025 2691 
Q 1819 2813 1613 2813 
Q 1428 2813 1281 2702 
Q 1134 2591 1072 2394 
Q 978 2094 978 1738 
L 978 0 
L 416 0 
z
" id="ArialMT-72" transform="scale(0.015625)"/>
       </defs>
       <use xlink:href="#ArialMT-48"/>
       <use x="72.216797" xlink:href="#ArialMT-79"/>
       <use x="122.216797" xlink:href="#ArialMT-50"/>
       <use x="188.916016" xlink:href="#ArialMT-65"/>
       <use x="244.53125" xlink:href="#ArialMT-72"/>
      </g>
     </g>
    </g>
    <g id="xtick_4">
     <g id="text_4">
      <!-- Pandas -->
      <g style="fill:#262626;" transform="translate(282.962329 350.855969)scale(0.154 -0.154)">
       <defs>
        <path d="M 2588 409 
Q 2275 144 1986 34 
Q 1697 -75 1366 -75 
Q 819 -75 525 192 
Q 231 459 231 875 
Q 231 1119 342 1320 
Q 453 1522 633 1644 
Q 813 1766 1038 1828 
Q 1203 1872 1538 1913 
Q 2219 1994 2541 2106 
Q 2544 2222 2544 2253 
Q 2544 2597 2384 2738 
Q 2169 2928 1744 2928 
Q 1347 2928 1158 2789 
Q 969 2650 878 2297 
L 328 2372 
Q 403 2725 575 2942 
Q 747 3159 1072 3276 
Q 1397 3394 1825 3394 
Q 2250 3394 2515 3294 
Q 2781 3194 2906 3042 
Q 3031 2891 3081 2659 
Q 3109 2516 3109 2141 
L 3109 1391 
Q 3109 606 3145 398 
Q 3181 191 3288 0 
L 2700 0 
Q 2613 175 2588 409 
z
M 2541 1666 
Q 2234 1541 1622 1453 
Q 1275 1403 1131 1340 
Q 988 1278 909 1158 
Q 831 1038 831 891 
Q 831 666 1001 516 
Q 1172 366 1500 366 
Q 1825 366 2078 508 
Q 2331 650 2450 897 
Q 2541 1088 2541 1459 
L 2541 1666 
z
" id="ArialMT-61" transform="scale(0.015625)"/>
        <path d="M 422 0 
L 422 3319 
L 928 3319 
L 928 2847 
Q 1294 3394 1984 3394 
Q 2284 3394 2536 3286 
Q 2788 3178 2913 3003 
Q 3038 2828 3088 2588 
Q 3119 2431 3119 2041 
L 3119 0 
L 2556 0 
L 2556 2019 
Q 2556 2363 2490 2533 
Q 2425 2703 2258 2804 
Q 2091 2906 1866 2906 
Q 1506 2906 1245 2678 
Q 984 2450 984 1813 
L 984 0 
L 422 0 
z
" id="ArialMT-6e" transform="scale(0.015625)"/>
        <path d="M 2575 0 
L 2575 419 
Q 2259 -75 1647 -75 
Q 1250 -75 917 144 
Q 584 363 401 755 
Q 219 1147 219 1656 
Q 219 2153 384 2558 
Q 550 2963 881 3178 
Q 1213 3394 1622 3394 
Q 1922 3394 2156 3267 
Q 2391 3141 2538 2938 
L 2538 4581 
L 3097 4581 
L 3097 0 
L 2575 0 
z
M 797 1656 
Q 797 1019 1065 703 
Q 1334 388 1700 388 
Q 2069 388 2326 689 
Q 2584 991 2584 1609 
Q 2584 2291 2321 2609 
Q 2059 2928 1675 2928 
Q 1300 2928 1048 2622 
Q 797 2316 797 1656 
z
" id="ArialMT-64" transform="scale(0.015625)"/>
        <path d="M 197 991 
L 753 1078 
Q 800 744 1014 566 
Q 1228 388 1613 388 
Q 2000 388 2187 545 
Q 2375 703 2375 916 
Q 2375 1106 2209 1216 
Q 2094 1291 1634 1406 
Q 1016 1563 777 1677 
Q 538 1791 414 1992 
Q 291 2194 291 2438 
Q 291 2659 392 2848 
Q 494 3038 669 3163 
Q 800 3259 1026 3326 
Q 1253 3394 1513 3394 
Q 1903 3394 2198 3281 
Q 2494 3169 2634 2976 
Q 2775 2784 2828 2463 
L 2278 2388 
Q 2241 2644 2061 2787 
Q 1881 2931 1553 2931 
Q 1166 2931 1000 2803 
Q 834 2675 834 2503 
Q 834 2394 903 2306 
Q 972 2216 1119 2156 
Q 1203 2125 1616 2013 
Q 2213 1853 2448 1751 
Q 2684 1650 2818 1456 
Q 2953 1263 2953 975 
Q 2953 694 2789 445 
Q 2625 197 2315 61 
Q 2006 -75 1616 -75 
Q 969 -75 630 194 
Q 291 463 197 991 
z
" id="ArialMT-73" transform="scale(0.015625)"/>
       </defs>
       <use xlink:href="#ArialMT-50"/>
       <use x="66.699219" xlink:href="#ArialMT-61"/>
       <use x="122.314453" xlink:href="#ArialMT-6e"/>
       <use x="177.929688" xlink:href="#ArialMT-64"/>
       <use x="233.544922" xlink:href="#ArialMT-61"/>
       <use x="289.160156" xlink:href="#ArialMT-73"/>
      </g>
     </g>
    </g>
    <g id="xtick_5">
     <g id="text_5">
      <!-- SQLite -->
      <g style="fill:#262626;" transform="translate(343.181467 350.855969)scale(0.154 -0.154)">
       <defs>
        <path d="M 288 1472 
L 859 1522 
Q 900 1178 1048 958 
Q 1197 738 1509 602 
Q 1822 466 2213 466 
Q 2559 466 2825 569 
Q 3091 672 3220 851 
Q 3350 1031 3350 1244 
Q 3350 1459 3225 1620 
Q 3100 1781 2813 1891 
Q 2628 1963 1997 2114 
Q 1366 2266 1113 2400 
Q 784 2572 623 2826 
Q 463 3081 463 3397 
Q 463 3744 659 4045 
Q 856 4347 1234 4503 
Q 1613 4659 2075 4659 
Q 2584 4659 2973 4495 
Q 3363 4331 3572 4012 
Q 3781 3694 3797 3291 
L 3216 3247 
Q 3169 3681 2898 3903 
Q 2628 4125 2100 4125 
Q 1550 4125 1298 3923 
Q 1047 3722 1047 3438 
Q 1047 3191 1225 3031 
Q 1400 2872 2139 2705 
Q 2878 2538 3153 2413 
Q 3553 2228 3743 1945 
Q 3934 1663 3934 1294 
Q 3934 928 3725 604 
Q 3516 281 3123 101 
Q 2731 -78 2241 -78 
Q 1619 -78 1198 103 
Q 778 284 539 648 
Q 300 1013 288 1472 
z
" id="ArialMT-53" transform="scale(0.015625)"/>
        <path d="M 3966 491 
Q 4388 200 4744 66 
L 4566 -356 
Q 4072 -178 3581 206 
Q 3072 -78 2456 -78 
Q 1834 -78 1328 222 
Q 822 522 548 1065 
Q 275 1609 275 2291 
Q 275 2969 550 3525 
Q 825 4081 1333 4372 
Q 1841 4663 2469 4663 
Q 3103 4663 3612 4361 
Q 4122 4059 4389 3517 
Q 4656 2975 4656 2294 
Q 4656 1728 4484 1276 
Q 4313 825 3966 491 
z
M 2631 1266 
Q 3156 1119 3497 828 
Q 4031 1316 4031 2294 
Q 4031 2850 3842 3265 
Q 3653 3681 3289 3911 
Q 2925 4141 2472 4141 
Q 1794 4141 1347 3677 
Q 900 3213 900 2291 
Q 900 1397 1342 919 
Q 1784 441 2472 441 
Q 2797 441 3084 563 
Q 2800 747 2484 825 
L 2631 1266 
z
" id="ArialMT-51" transform="scale(0.015625)"/>
        <path d="M 469 0 
L 469 4581 
L 1075 4581 
L 1075 541 
L 3331 541 
L 3331 0 
L 469 0 
z
" id="ArialMT-4c" transform="scale(0.015625)"/>
        <path d="M 425 3934 
L 425 4581 
L 988 4581 
L 988 3934 
L 425 3934 
z
M 425 0 
L 425 3319 
L 988 3319 
L 988 0 
L 425 0 
z
" id="ArialMT-69" transform="scale(0.015625)"/>
        <path d="M 1650 503 
L 1731 6 
Q 1494 -44 1306 -44 
Q 1000 -44 831 53 
Q 663 150 594 308 
Q 525 466 525 972 
L 525 2881 
L 113 2881 
L 113 3319 
L 525 3319 
L 525 4141 
L 1084 4478 
L 1084 3319 
L 1650 3319 
L 1650 2881 
L 1084 2881 
L 1084 941 
Q 1084 700 1114 631 
Q 1144 563 1211 522 
Q 1278 481 1403 481 
Q 1497 481 1650 503 
z
" id="ArialMT-74" transform="scale(0.015625)"/>
       </defs>
       <use xlink:href="#ArialMT-53"/>
       <use x="66.699219" xlink:href="#ArialMT-51"/>
       <use x="144.482422" xlink:href="#ArialMT-4c"/>
       <use x="200.097656" xlink:href="#ArialMT-69"/>
       <use x="222.314453" xlink:href="#ArialMT-74"/>
       <use x="250.097656" xlink:href="#ArialMT-65"/>
      </g>
     </g>
    </g>
   </g>
   <g id="matplotlib.axis_2">
    <g id="ytick_1">
     <g id="line2d_1">
      <path clip-path="url(#p5c0f544369)" d="M 107.320578 330.332937 
L 395.542834 330.332937 
" style="fill:none;stroke:#ffffff;stroke-linecap:round;"/>
     </g>
     <g id="text_6">
      <!-- 0.00 -->
      <g style="fill:#262626;" transform="translate(67.850734 335.844453)scale(0.154 -0.154)">
       <defs>
        <path d="M 266 2259 
Q 266 3072 433 3567 
Q 600 4063 929 4331 
Q 1259 4600 1759 4600 
Q 2128 4600 2406 4451 
Q 2684 4303 2865 4023 
Q 3047 3744 3150 3342 
Q 3253 2941 3253 2259 
Q 3253 1453 3087 958 
Q 2922 463 2592 192 
Q 2263 -78 1759 -78 
Q 1097 -78 719 397 
Q 266 969 266 2259 
z
M 844 2259 
Q 844 1131 1108 757 
Q 1372 384 1759 384 
Q 2147 384 2411 759 
Q 2675 1134 2675 2259 
Q 2675 3391 2411 3762 
Q 2147 4134 1753 4134 
Q 1366 4134 1134 3806 
Q 844 3388 844 2259 
z
" id="ArialMT-30" transform="scale(0.015625)"/>
        <path d="M 581 0 
L 581 641 
L 1222 641 
L 1222 0 
L 581 0 
z
" id="ArialMT-2e" transform="scale(0.015625)"/>
       </defs>
       <use xlink:href="#ArialMT-30"/>
       <use x="55.615234" xlink:href="#ArialMT-2e"/>
       <use x="83.398438" xlink:href="#ArialMT-30"/>
       <use x="139.013672" xlink:href="#ArialMT-30"/>
      </g>
     </g>
    </g>
    <g id="ytick_2">
     <g id="line2d_2">
      <path clip-path="url(#p5c0f544369)" d="M 107.320578 282.821995 
L 395.542834 282.821995 
" style="fill:none;stroke:#ffffff;stroke-linecap:round;"/>
     </g>
     <g id="text_7">
      <!-- 0.05 -->
      <g style="fill:#262626;" transform="translate(67.850734 288.33351)scale(0.154 -0.154)">
       <defs>
        <path d="M 266 1200 
L 856 1250 
Q 922 819 1161 601 
Q 1400 384 1738 384 
Q 2144 384 2425 690 
Q 2706 997 2706 1503 
Q 2706 1984 2436 2262 
Q 2166 2541 1728 2541 
Q 1456 2541 1237 2417 
Q 1019 2294 894 2097 
L 366 2166 
L 809 4519 
L 3088 4519 
L 3088 3981 
L 1259 3981 
L 1013 2750 
Q 1425 3038 1878 3038 
Q 2478 3038 2890 2622 
Q 3303 2206 3303 1553 
Q 3303 931 2941 478 
Q 2500 -78 1738 -78 
Q 1113 -78 717 272 
Q 322 622 266 1200 
z
" id="ArialMT-35" transform="scale(0.015625)"/>
       </defs>
       <use xlink:href="#ArialMT-30"/>
       <use x="55.615234" xlink:href="#ArialMT-2e"/>
       <use x="83.398438" xlink:href="#ArialMT-30"/>
       <use x="139.013672" xlink:href="#ArialMT-35"/>
      </g>
     </g>
    </g>
    <g id="ytick_3">
     <g id="line2d_3">
      <path clip-path="url(#p5c0f544369)" d="M 107.320578 235.311052 
L 395.542834 235.311052 
" style="fill:none;stroke:#ffffff;stroke-linecap:round;"/>
     </g>
     <g id="text_8">
      <!-- 0.10 -->
      <g style="fill:#262626;" transform="translate(67.850734 240.822568)scale(0.154 -0.154)">
       <defs>
        <path d="M 2384 0 
L 1822 0 
L 1822 3584 
Q 1619 3391 1289 3197 
Q 959 3003 697 2906 
L 697 3450 
Q 1169 3672 1522 3987 
Q 1875 4303 2022 4600 
L 2384 4600 
L 2384 0 
z
" id="ArialMT-31" transform="scale(0.015625)"/>
       </defs>
       <use xlink:href="#ArialMT-30"/>
       <use x="55.615234" xlink:href="#ArialMT-2e"/>
       <use x="83.398438" xlink:href="#ArialMT-31"/>
       <use x="139.013672" xlink:href="#ArialMT-30"/>
      </g>
     </g>
    </g>
    <g id="ytick_4">
     <g id="line2d_4">
      <path clip-path="url(#p5c0f544369)" d="M 107.320578 187.800109 
L 395.542834 187.800109 
" style="fill:none;stroke:#ffffff;stroke-linecap:round;"/>
     </g>
     <g id="text_9">
      <!-- 0.15 -->
      <g style="fill:#262626;" transform="translate(67.850734 193.311625)scale(0.154 -0.154)">
       <use xlink:href="#ArialMT-30"/>
       <use x="55.615234" xlink:href="#ArialMT-2e"/>
       <use x="83.398438" xlink:href="#ArialMT-31"/>
       <use x="139.013672" xlink:href="#ArialMT-35"/>
      </g>
     </g>
    </g>
    <g id="ytick_5">
     <g id="line2d_5">
      <path clip-path="url(#p5c0f544369)" d="M 107.320578 140.289167 
L 395.542834 140.289167 
" style="fill:none;stroke:#ffffff;stroke-linecap:round;"/>
     </g>
     <g id="text_10">
      <!-- 0.20 -->
      <g style="fill:#262626;" transform="translate(67.850734 145.800682)scale(0.154 -0.154)">
       <defs>
        <path d="M 3222 541 
L 3222 0 
L 194 0 
Q 188 203 259 391 
Q 375 700 629 1000 
Q 884 1300 1366 1694 
Q 2113 2306 2375 2664 
Q 2638 3022 2638 3341 
Q 2638 3675 2398 3904 
Q 2159 4134 1775 4134 
Q 1369 4134 1125 3890 
Q 881 3647 878 3216 
L 300 3275 
Q 359 3922 746 4261 
Q 1134 4600 1788 4600 
Q 2447 4600 2831 4234 
Q 3216 3869 3216 3328 
Q 3216 3053 3103 2787 
Q 2991 2522 2730 2228 
Q 2469 1934 1863 1422 
Q 1356 997 1212 845 
Q 1069 694 975 541 
L 3222 541 
z
" id="ArialMT-32" transform="scale(0.015625)"/>
       </defs>
       <use xlink:href="#ArialMT-30"/>
       <use x="55.615234" xlink:href="#ArialMT-2e"/>
       <use x="83.398438" xlink:href="#ArialMT-32"/>
       <use x="139.013672" xlink:href="#ArialMT-30"/>
      </g>
     </g>
    </g>
    <g id="ytick_6">
     <g id="line2d_6">
      <path clip-path="url(#p5c0f544369)" d="M 107.320578 92.778224 
L 395.542834 92.778224 
" style="fill:none;stroke:#ffffff;stroke-linecap:round;"/>
     </g>
     <g id="text_11">
      <!-- 0.25 -->
      <g style="fill:#262626;" transform="translate(67.850734 98.28974)scale(0.154 -0.154)">
       <use xlink:href="#ArialMT-30"/>
       <use x="55.615234" xlink:href="#ArialMT-2e"/>
       <use x="83.398438" xlink:href="#ArialMT-32"/>
       <use x="139.013672" xlink:href="#ArialMT-35"/>
      </g>
     </g>
    </g>
    <g id="text_12">
     <!-- time (s) -->
     <g style="fill:#262626;" transform="translate(60.314859 225.562094)rotate(-90)scale(0.168 -0.168)">
      <defs>
       <path d="M 422 0 
L 422 3319 
L 925 3319 
L 925 2853 
Q 1081 3097 1340 3245 
Q 1600 3394 1931 3394 
Q 2300 3394 2536 3241 
Q 2772 3088 2869 2813 
Q 3263 3394 3894 3394 
Q 4388 3394 4653 3120 
Q 4919 2847 4919 2278 
L 4919 0 
L 4359 0 
L 4359 2091 
Q 4359 2428 4304 2576 
Q 4250 2725 4106 2815 
Q 3963 2906 3769 2906 
Q 3419 2906 3187 2673 
Q 2956 2441 2956 1928 
L 2956 0 
L 2394 0 
L 2394 2156 
Q 2394 2531 2256 2718 
Q 2119 2906 1806 2906 
Q 1569 2906 1367 2781 
Q 1166 2656 1075 2415 
Q 984 2175 984 1722 
L 984 0 
L 422 0 
z
" id="ArialMT-6d" transform="scale(0.015625)"/>
       <path id="ArialMT-20" transform="scale(0.015625)"/>
       <path d="M 1497 -1347 
Q 1031 -759 709 28 
Q 388 816 388 1659 
Q 388 2403 628 3084 
Q 909 3875 1497 4659 
L 1900 4659 
Q 1522 4009 1400 3731 
Q 1209 3300 1100 2831 
Q 966 2247 966 1656 
Q 966 153 1900 -1347 
L 1497 -1347 
z
" id="ArialMT-28" transform="scale(0.015625)"/>
       <path d="M 791 -1347 
L 388 -1347 
Q 1322 153 1322 1656 
Q 1322 2244 1188 2822 
Q 1081 3291 891 3722 
Q 769 4003 388 4659 
L 791 4659 
Q 1378 3875 1659 3084 
Q 1900 2403 1900 1659 
Q 1900 816 1576 28 
Q 1253 -759 791 -1347 
z
" id="ArialMT-29" transform="scale(0.015625)"/>
      </defs>
      <use xlink:href="#ArialMT-74"/>
      <use x="27.783203" xlink:href="#ArialMT-69"/>
      <use x="50" xlink:href="#ArialMT-6d"/>
      <use x="133.300781" xlink:href="#ArialMT-65"/>
      <use x="188.916016" xlink:href="#ArialMT-20"/>
      <use x="216.699219" xlink:href="#ArialMT-28"/>
      <use x="250" xlink:href="#ArialMT-73"/>
      <use x="300" xlink:href="#ArialMT-29"/>
     </g>
    </g>
   </g>
   <g id="patch_3">
    <path clip-path="url(#p5c0f544369)" d="M 113.085023 330.332937 
L 136.142803 330.332937 
L 136.142803 299.566564 
L 113.085023 299.566564 
z
" style="fill:#df7f20;stroke:#ffffff;stroke-linejoin:miter;"/>
   </g>
   <g id="patch_4">
    <path clip-path="url(#p5c0f544369)" d="M 170.729474 330.332937 
L 193.787254 330.332937 
L 193.787254 264.177895 
L 170.729474 264.177895 
z
" style="fill:#df7f20;stroke:#ffffff;stroke-linejoin:miter;"/>
   </g>
   <g id="patch_5">
    <path clip-path="url(#p5c0f544369)" d="M 228.373925 330.332937 
L 251.431706 330.332937 
L 251.431706 168.574321 
L 228.373925 168.574321 
z
" style="fill:#df7f20;stroke:#ffffff;stroke-linejoin:miter;"/>
   </g>
   <g id="patch_6">
    <path clip-path="url(#p5c0f544369)" d="M 286.018376 330.332937 
L 309.076157 330.332937 
L 309.076157 315.471495 
L 286.018376 315.471495 
z
" style="fill:#df7f20;stroke:#ffffff;stroke-linejoin:miter;"/>
   </g>
   <g id="patch_7">
    <path clip-path="url(#p5c0f544369)" d="M 343.662827 330.332937 
L 366.720608 330.332937 
L 366.720608 208.585286 
L 343.662827 208.585286 
z
" style="fill:#df7f20;stroke:#ffffff;stroke-linejoin:miter;"/>
   </g>
   <g id="patch_8">
    <path clip-path="url(#p5c0f544369)" d="M 136.142803 330.332937 
L 159.200584 330.332937 
L 159.200584 285.152105 
L 136.142803 285.152105 
z
" style="fill:#40923a;stroke:#ffffff;stroke-linejoin:miter;"/>
   </g>
   <g id="patch_9">
    <path clip-path="url(#p5c0f544369)" d="M 193.787254 330.332937 
L 216.845035 330.332937 
L 216.845035 239.635526 
L 193.787254 239.635526 
z
" style="fill:#40923a;stroke:#ffffff;stroke-linejoin:miter;"/>
   </g>
   <g id="patch_10">
    <path clip-path="url(#p5c0f544369)" d="M 251.431706 330.332937 
L 274.489486 330.332937 
L 274.489486 77.444426 
L 251.431706 77.444426 
z
" style="fill:#40923a;stroke:#ffffff;stroke-linejoin:miter;"/>
   </g>
   <g id="patch_11">
    <path clip-path="url(#p5c0f544369)" d="M 309.076157 330.332937 
L 332.133937 330.332937 
L 332.133937 281.707188 
L 309.076157 281.707188 
z
" style="fill:#40923a;stroke:#ffffff;stroke-linejoin:miter;"/>
   </g>
   <g id="patch_12">
    <path clip-path="url(#p5c0f544369)" d="M 366.720608 330.332937 
L 389.778388 330.332937 
L 389.778388 197.413434 
L 366.720608 197.413434 
z
" style="fill:#40923a;stroke:#ffffff;stroke-linejoin:miter;"/>
   </g>
   <g id="line2d_7">
    <path clip-path="url(#p5c0f544369)" style="fill:none;stroke:#424242;stroke-linecap:round;stroke-width:2.7;"/>
   </g>
   <g id="line2d_8">
    <path clip-path="url(#p5c0f544369)" style="fill:none;stroke:#424242;stroke-linecap:round;stroke-width:2.7;"/>
   </g>
   <g id="line2d_9">
    <path clip-path="url(#p5c0f544369)" style="fill:none;stroke:#424242;stroke-linecap:round;stroke-width:2.7;"/>
   </g>
   <g id="line2d_10">
    <path clip-path="url(#p5c0f544369)" style="fill:none;stroke:#424242;stroke-linecap:round;stroke-width:2.7;"/>
   </g>
   <g id="line2d_11">
    <path clip-path="url(#p5c0f544369)" style="fill:none;stroke:#424242;stroke-linecap:round;stroke-width:2.7;"/>
   </g>
   <g id="line2d_12">
    <path clip-path="url(#p5c0f544369)" style="fill:none;stroke:#424242;stroke-linecap:round;stroke-width:2.7;"/>
   </g>
   <g id="line2d_13">
    <path clip-path="url(#p5c0f544369)" style="fill:none;stroke:#424242;stroke-linecap:round;stroke-width:2.7;"/>
   </g>
   <g id="line2d_14">
    <path clip-path="url(#p5c0f544369)" style="fill:none;stroke:#424242;stroke-linecap:round;stroke-width:2.7;"/>
   </g>
   <g id="line2d_15">
    <path clip-path="url(#p5c0f544369)" style="fill:none;stroke:#424242;stroke-linecap:round;stroke-width:2.7;"/>
   </g>
   <g id="line2d_16">
    <path clip-path="url(#p5c0f544369)" style="fill:none;stroke:#424242;stroke-linecap:round;stroke-width:2.7;"/>
   </g>
   <g id="patch_13">
    <path d="M 107.320578 330.332937 
L 107.320578 64.8 
" style="fill:none;stroke:#ffffff;stroke-linecap:square;stroke-linejoin:miter;stroke-width:1.25;"/>
   </g>
   <g id="patch_14">
    <path d="M 107.320578 330.332937 
L 395.542834 330.332937 
" style="fill:none;stroke:#ffffff;stroke-linecap:square;stroke-linejoin:miter;stroke-width:1.25;"/>
   </g>
   <g id="text_13">
    <!-- sf = 1 -->
    <g style="fill:#262626;" transform="translate(230.653518 58.8)scale(0.168 -0.168)">
     <defs>
      <path d="M 556 0 
L 556 2881 
L 59 2881 
L 59 3319 
L 556 3319 
L 556 3672 
Q 556 4006 616 4169 
Q 697 4388 901 4523 
Q 1106 4659 1475 4659 
Q 1713 4659 2000 4603 
L 1916 4113 
Q 1741 4144 1584 4144 
Q 1328 4144 1222 4034 
Q 1116 3925 1116 3625 
L 1116 3319 
L 1763 3319 
L 1763 2881 
L 1116 2881 
L 1116 0 
L 556 0 
z
" id="ArialMT-66" transform="scale(0.015625)"/>
      <path d="M 3381 2694 
L 356 2694 
L 356 3219 
L 3381 3219 
L 3381 2694 
z
M 3381 1303 
L 356 1303 
L 356 1828 
L 3381 1828 
L 3381 1303 
z
" id="ArialMT-3d" transform="scale(0.015625)"/>
     </defs>
     <use xlink:href="#ArialMT-73"/>
     <use x="50" xlink:href="#ArialMT-66"/>
     <use x="77.783203" xlink:href="#ArialMT-20"/>
     <use x="105.566406" xlink:href="#ArialMT-3d"/>
     <use x="163.964844" xlink:href="#ArialMT-20"/>
     <use x="191.748047" xlink:href="#ArialMT-31"/>
    </g>
   </g>
  </g>
  <g id="axes_2">
   <g id="patch_15">
    <path d="M 444.572594 330.332937 
L 732.79485 330.332937 
L 732.79485 64.8 
L 444.572594 64.8 
z
" style="fill:#eaeaf2;"/>
   </g>
   <g id="matplotlib.axis_3">
    <g id="xtick_6">
     <g id="text_14">
      <!-- CH -->
      <g style="fill:#262626;" transform="translate(462.273132 350.855969)scale(0.154 -0.154)">
       <use xlink:href="#ArialMT-43"/>
       <use x="72.216797" xlink:href="#ArialMT-48"/>
      </g>
     </g>
    </g>
    <g id="xtick_7">
     <g id="text_15">
      <!-- DuckDB -->
      <g style="fill:#262626;" transform="translate(502.799521 350.855969)scale(0.154 -0.154)">
       <use xlink:href="#ArialMT-44"/>
       <use x="72.216797" xlink:href="#ArialMT-75"/>
       <use x="127.832031" xlink:href="#ArialMT-63"/>
       <use x="177.832031" xlink:href="#ArialMT-6b"/>
       <use x="227.832031" xlink:href="#ArialMT-44"/>
       <use x="300.048828" xlink:href="#ArialMT-42"/>
      </g>
     </g>
    </g>
    <g id="xtick_8">
     <g id="text_16">
      <!-- HyPer -->
      <g style="fill:#262626;" transform="translate(567.290956 350.855969)scale(0.154 -0.154)">
       <use xlink:href="#ArialMT-48"/>
       <use x="72.216797" xlink:href="#ArialMT-79"/>
       <use x="122.216797" xlink:href="#ArialMT-50"/>
       <use x="188.916016" xlink:href="#ArialMT-65"/>
       <use x="244.53125" xlink:href="#ArialMT-72"/>
      </g>
     </g>
    </g>
    <g id="xtick_9">
     <g id="text_17">
      <!-- Pandas -->
      <g style="fill:#262626;" transform="translate(620.214345 350.855969)scale(0.154 -0.154)">
       <use xlink:href="#ArialMT-50"/>
       <use x="66.699219" xlink:href="#ArialMT-61"/>
       <use x="122.314453" xlink:href="#ArialMT-6e"/>
       <use x="177.929688" xlink:href="#ArialMT-64"/>
       <use x="233.544922" xlink:href="#ArialMT-61"/>
       <use x="289.160156" xlink:href="#ArialMT-73"/>
      </g>
     </g>
    </g>
    <g id="xtick_10">
     <g id="text_18">
      <!-- SQLite -->
      <g style="fill:#262626;" transform="translate(680.433484 350.855969)scale(0.154 -0.154)">
       <use xlink:href="#ArialMT-53"/>
       <use x="66.699219" xlink:href="#ArialMT-51"/>
       <use x="144.482422" xlink:href="#ArialMT-4c"/>
       <use x="200.097656" xlink:href="#ArialMT-69"/>
       <use x="222.314453" xlink:href="#ArialMT-74"/>
       <use x="250.097656" xlink:href="#ArialMT-65"/>
      </g>
     </g>
    </g>
   </g>
   <g id="matplotlib.axis_4">
    <g id="ytick_7">
     <g id="line2d_17">
      <path clip-path="url(#p2ecb10c691)" d="M 444.572594 330.332937 
L 732.79485 330.332937 
" style="fill:none;stroke:#ffffff;stroke-linecap:round;"/>
     </g>
     <g id="text_19">
      <!-- 0.0 -->
      <g style="fill:#262626;" transform="translate(413.666594 335.844453)scale(0.154 -0.154)">
       <use xlink:href="#ArialMT-30"/>
       <use x="55.615234" xlink:href="#ArialMT-2e"/>
       <use x="83.398438" xlink:href="#ArialMT-30"/>
      </g>
     </g>
    </g>
    <g id="ytick_8">
     <g id="line2d_18">
      <path clip-path="url(#p2ecb10c691)" d="M 444.572594 295.977651 
L 732.79485 295.977651 
" style="fill:none;stroke:#ffffff;stroke-linecap:round;"/>
     </g>
     <g id="text_20">
      <!-- 0.1 -->
      <g style="fill:#262626;" transform="translate(413.666594 301.489167)scale(0.154 -0.154)">
       <use xlink:href="#ArialMT-30"/>
       <use x="55.615234" xlink:href="#ArialMT-2e"/>
       <use x="83.398438" xlink:href="#ArialMT-31"/>
      </g>
     </g>
    </g>
    <g id="ytick_9">
     <g id="line2d_19">
      <path clip-path="url(#p2ecb10c691)" d="M 444.572594 261.622365 
L 732.79485 261.622365 
" style="fill:none;stroke:#ffffff;stroke-linecap:round;"/>
     </g>
     <g id="text_21">
      <!-- 0.2 -->
      <g style="fill:#262626;" transform="translate(413.666594 267.13388)scale(0.154 -0.154)">
       <use xlink:href="#ArialMT-30"/>
       <use x="55.615234" xlink:href="#ArialMT-2e"/>
       <use x="83.398438" xlink:href="#ArialMT-32"/>
      </g>
     </g>
    </g>
    <g id="ytick_10">
     <g id="line2d_20">
      <path clip-path="url(#p2ecb10c691)" d="M 444.572594 227.267078 
L 732.79485 227.267078 
" style="fill:none;stroke:#ffffff;stroke-linecap:round;"/>
     </g>
     <g id="text_22">
      <!-- 0.3 -->
      <g style="fill:#262626;" transform="translate(413.666594 232.778594)scale(0.154 -0.154)">
       <defs>
        <path d="M 269 1209 
L 831 1284 
Q 928 806 1161 595 
Q 1394 384 1728 384 
Q 2125 384 2398 659 
Q 2672 934 2672 1341 
Q 2672 1728 2419 1979 
Q 2166 2231 1775 2231 
Q 1616 2231 1378 2169 
L 1441 2663 
Q 1497 2656 1531 2656 
Q 1891 2656 2178 2843 
Q 2466 3031 2466 3422 
Q 2466 3731 2256 3934 
Q 2047 4138 1716 4138 
Q 1388 4138 1169 3931 
Q 950 3725 888 3313 
L 325 3413 
Q 428 3978 793 4289 
Q 1159 4600 1703 4600 
Q 2078 4600 2393 4439 
Q 2709 4278 2876 4000 
Q 3044 3722 3044 3409 
Q 3044 3113 2884 2869 
Q 2725 2625 2413 2481 
Q 2819 2388 3044 2092 
Q 3269 1797 3269 1353 
Q 3269 753 2831 336 
Q 2394 -81 1725 -81 
Q 1122 -81 723 278 
Q 325 638 269 1209 
z
" id="ArialMT-33" transform="scale(0.015625)"/>
       </defs>
       <use xlink:href="#ArialMT-30"/>
       <use x="55.615234" xlink:href="#ArialMT-2e"/>
       <use x="83.398438" xlink:href="#ArialMT-33"/>
      </g>
     </g>
    </g>
    <g id="ytick_11">
     <g id="line2d_21">
      <path clip-path="url(#p2ecb10c691)" d="M 444.572594 192.911792 
L 732.79485 192.911792 
" style="fill:none;stroke:#ffffff;stroke-linecap:round;"/>
     </g>
     <g id="text_23">
      <!-- 0.4 -->
      <g style="fill:#262626;" transform="translate(413.666594 198.423307)scale(0.154 -0.154)">
       <defs>
        <path d="M 2069 0 
L 2069 1097 
L 81 1097 
L 81 1613 
L 2172 4581 
L 2631 4581 
L 2631 1613 
L 3250 1613 
L 3250 1097 
L 2631 1097 
L 2631 0 
L 2069 0 
z
M 2069 1613 
L 2069 3678 
L 634 1613 
L 2069 1613 
z
" id="ArialMT-34" transform="scale(0.015625)"/>
       </defs>
       <use xlink:href="#ArialMT-30"/>
       <use x="55.615234" xlink:href="#ArialMT-2e"/>
       <use x="83.398438" xlink:href="#ArialMT-34"/>
      </g>
     </g>
    </g>
    <g id="ytick_12">
     <g id="line2d_22">
      <path clip-path="url(#p2ecb10c691)" d="M 444.572594 158.556505 
L 732.79485 158.556505 
" style="fill:none;stroke:#ffffff;stroke-linecap:round;"/>
     </g>
     <g id="text_24">
      <!-- 0.5 -->
      <g style="fill:#262626;" transform="translate(413.666594 164.068021)scale(0.154 -0.154)">
       <use xlink:href="#ArialMT-30"/>
       <use x="55.615234" xlink:href="#ArialMT-2e"/>
       <use x="83.398438" xlink:href="#ArialMT-35"/>
      </g>
     </g>
    </g>
    <g id="ytick_13">
     <g id="line2d_23">
      <path clip-path="url(#p2ecb10c691)" d="M 444.572594 124.201219 
L 732.79485 124.201219 
" style="fill:none;stroke:#ffffff;stroke-linecap:round;"/>
     </g>
     <g id="text_25">
      <!-- 0.6 -->
      <g style="fill:#262626;" transform="translate(413.666594 129.712735)scale(0.154 -0.154)">
       <defs>
        <path d="M 3184 3459 
L 2625 3416 
Q 2550 3747 2413 3897 
Q 2184 4138 1850 4138 
Q 1581 4138 1378 3988 
Q 1113 3794 959 3422 
Q 806 3050 800 2363 
Q 1003 2672 1297 2822 
Q 1591 2972 1913 2972 
Q 2475 2972 2870 2558 
Q 3266 2144 3266 1488 
Q 3266 1056 3080 686 
Q 2894 316 2569 119 
Q 2244 -78 1831 -78 
Q 1128 -78 684 439 
Q 241 956 241 2144 
Q 241 3472 731 4075 
Q 1159 4600 1884 4600 
Q 2425 4600 2770 4297 
Q 3116 3994 3184 3459 
z
M 888 1484 
Q 888 1194 1011 928 
Q 1134 663 1356 523 
Q 1578 384 1822 384 
Q 2178 384 2434 671 
Q 2691 959 2691 1453 
Q 2691 1928 2437 2201 
Q 2184 2475 1800 2475 
Q 1419 2475 1153 2201 
Q 888 1928 888 1484 
z
" id="ArialMT-36" transform="scale(0.015625)"/>
       </defs>
       <use xlink:href="#ArialMT-30"/>
       <use x="55.615234" xlink:href="#ArialMT-2e"/>
       <use x="83.398438" xlink:href="#ArialMT-36"/>
      </g>
     </g>
    </g>
    <g id="ytick_14">
     <g id="line2d_24">
      <path clip-path="url(#p2ecb10c691)" d="M 444.572594 89.845933 
L 732.79485 89.845933 
" style="fill:none;stroke:#ffffff;stroke-linecap:round;"/>
     </g>
     <g id="text_26">
      <!-- 0.7 -->
      <g style="fill:#262626;" transform="translate(413.666594 95.357448)scale(0.154 -0.154)">
       <defs>
        <path d="M 303 3981 
L 303 4522 
L 3269 4522 
L 3269 4084 
Q 2831 3619 2401 2847 
Q 1972 2075 1738 1259 
Q 1569 684 1522 0 
L 944 0 
Q 953 541 1156 1306 
Q 1359 2072 1739 2783 
Q 2119 3494 2547 3981 
L 303 3981 
z
" id="ArialMT-37" transform="scale(0.015625)"/>
       </defs>
       <use xlink:href="#ArialMT-30"/>
       <use x="55.615234" xlink:href="#ArialMT-2e"/>
       <use x="83.398438" xlink:href="#ArialMT-37"/>
      </g>
     </g>
    </g>
   </g>
   <g id="patch_16">
    <path clip-path="url(#p2ecb10c691)" d="M 450.337039 330.332937 
L 473.39482 330.332937 
L 473.39482 272.869899 
L 450.337039 272.869899 
z
" style="fill:#df7f20;stroke:#ffffff;stroke-linejoin:miter;"/>
   </g>
   <g id="patch_17">
    <path clip-path="url(#p2ecb10c691)" d="M 507.98149 330.332937 
L 531.039271 330.332937 
L 531.039271 238.410866 
L 507.98149 238.410866 
z
" style="fill:#df7f20;stroke:#ffffff;stroke-linejoin:miter;"/>
   </g>
   <g id="patch_18">
    <path clip-path="url(#p2ecb10c691)" d="M 565.625942 330.332937 
L 588.683722 330.332937 
L 588.683722 157.586289 
L 565.625942 157.586289 
z
" style="fill:#df7f20;stroke:#ffffff;stroke-linejoin:miter;"/>
   </g>
   <g id="patch_19">
    <path clip-path="url(#p2ecb10c691)" d="M 623.270393 330.332937 
L 646.328173 330.332937 
L 646.328173 300.399152 
L 623.270393 300.399152 
z
" style="fill:#df7f20;stroke:#ffffff;stroke-linejoin:miter;"/>
   </g>
   <g id="patch_20">
    <path clip-path="url(#p2ecb10c691)" d="M 680.914844 330.332937 
L 703.972624 330.332937 
L 703.972624 101.890527 
L 680.914844 101.890527 
z
" style="fill:#df7f20;stroke:#ffffff;stroke-linejoin:miter;"/>
   </g>
   <g id="patch_21">
    <path clip-path="url(#p2ecb10c691)" d="M 473.39482 330.332937 
L 496.4526 330.332937 
L 496.4526 169.919221 
L 473.39482 169.919221 
z
" style="fill:#40923a;stroke:#ffffff;stroke-linejoin:miter;"/>
   </g>
   <g id="patch_22">
    <path clip-path="url(#p2ecb10c691)" d="M 531.039271 330.332937 
L 554.097051 330.332937 
L 554.097051 215.444376 
L 531.039271 215.444376 
z
" style="fill:#40923a;stroke:#ffffff;stroke-linejoin:miter;"/>
   </g>
   <g id="patch_23">
    <path clip-path="url(#p2ecb10c691)" d="M 588.683722 330.332937 
L 611.741503 330.332937 
L 611.741503 151.57029 
L 588.683722 151.57029 
z
" style="fill:#40923a;stroke:#ffffff;stroke-linejoin:miter;"/>
   </g>
   <g id="patch_24">
    <path clip-path="url(#p2ecb10c691)" d="M 646.328173 330.332937 
L 669.385954 330.332937 
L 669.385954 215.509985 
L 646.328173 215.509985 
z
" style="fill:#40923a;stroke:#ffffff;stroke-linejoin:miter;"/>
   </g>
   <g id="patch_25">
    <path clip-path="url(#p2ecb10c691)" d="M 703.972624 330.332937 
L 727.030405 330.332937 
L 727.030405 77.444426 
L 703.972624 77.444426 
z
" style="fill:#40923a;stroke:#ffffff;stroke-linejoin:miter;"/>
   </g>
   <g id="line2d_25">
    <path clip-path="url(#p2ecb10c691)" style="fill:none;stroke:#424242;stroke-linecap:round;stroke-width:2.7;"/>
   </g>
   <g id="line2d_26">
    <path clip-path="url(#p2ecb10c691)" style="fill:none;stroke:#424242;stroke-linecap:round;stroke-width:2.7;"/>
   </g>
   <g id="line2d_27">
    <path clip-path="url(#p2ecb10c691)" style="fill:none;stroke:#424242;stroke-linecap:round;stroke-width:2.7;"/>
   </g>
   <g id="line2d_28">
    <path clip-path="url(#p2ecb10c691)" style="fill:none;stroke:#424242;stroke-linecap:round;stroke-width:2.7;"/>
   </g>
   <g id="line2d_29">
    <path clip-path="url(#p2ecb10c691)" style="fill:none;stroke:#424242;stroke-linecap:round;stroke-width:2.7;"/>
   </g>
   <g id="line2d_30">
    <path clip-path="url(#p2ecb10c691)" style="fill:none;stroke:#424242;stroke-linecap:round;stroke-width:2.7;"/>
   </g>
   <g id="line2d_31">
    <path clip-path="url(#p2ecb10c691)" style="fill:none;stroke:#424242;stroke-linecap:round;stroke-width:2.7;"/>
   </g>
   <g id="line2d_32">
    <path clip-path="url(#p2ecb10c691)" style="fill:none;stroke:#424242;stroke-linecap:round;stroke-width:2.7;"/>
   </g>
   <g id="line2d_33">
    <path clip-path="url(#p2ecb10c691)" style="fill:none;stroke:#424242;stroke-linecap:round;stroke-width:2.7;"/>
   </g>
   <g id="line2d_34">
    <path clip-path="url(#p2ecb10c691)" style="fill:none;stroke:#424242;stroke-linecap:round;stroke-width:2.7;"/>
   </g>
   <g id="patch_26">
    <path d="M 444.572594 330.332937 
L 444.572594 64.8 
" style="fill:none;stroke:#ffffff;stroke-linecap:square;stroke-linejoin:miter;stroke-width:1.25;"/>
   </g>
   <g id="patch_27">
    <path d="M 444.572594 330.332937 
L 732.79485 330.332937 
" style="fill:none;stroke:#ffffff;stroke-linecap:square;stroke-linejoin:miter;stroke-width:1.25;"/>
   </g>
   <g id="text_27">
    <!-- sf = 10 -->
    <g style="fill:#262626;" transform="translate(563.234347 58.8)scale(0.168 -0.168)">
     <use xlink:href="#ArialMT-73"/>
     <use x="50" xlink:href="#ArialMT-66"/>
     <use x="77.783203" xlink:href="#ArialMT-20"/>
     <use x="105.566406" xlink:href="#ArialMT-3d"/>
     <use x="163.964844" xlink:href="#ArialMT-20"/>
     <use x="191.748047" xlink:href="#ArialMT-31"/>
     <use x="247.363281" xlink:href="#ArialMT-30"/>
    </g>
   </g>
  </g>
  <g id="axes_3">
   <g id="patch_28">
    <path d="M 107.320578 652.077875 
L 395.542834 652.077875 
L 395.542834 386.544938 
L 107.320578 386.544938 
z
" style="fill:#eaeaf2;"/>
   </g>
   <g id="matplotlib.axis_5">
    <g id="xtick_11">
     <g id="text_28">
      <!-- CH -->
      <g style="fill:#262626;" transform="translate(125.021116 672.600906)scale(0.154 -0.154)">
       <use xlink:href="#ArialMT-43"/>
       <use x="72.216797" xlink:href="#ArialMT-48"/>
      </g>
     </g>
    </g>
    <g id="xtick_12">
     <g id="text_29">
      <!-- DuckDB -->
      <g style="fill:#262626;" transform="translate(165.547504 672.600906)scale(0.154 -0.154)">
       <use xlink:href="#ArialMT-44"/>
       <use x="72.216797" xlink:href="#ArialMT-75"/>
       <use x="127.832031" xlink:href="#ArialMT-63"/>
       <use x="177.832031" xlink:href="#ArialMT-6b"/>
       <use x="227.832031" xlink:href="#ArialMT-44"/>
       <use x="300.048828" xlink:href="#ArialMT-42"/>
      </g>
     </g>
    </g>
    <g id="xtick_13">
     <g id="text_30">
      <!-- HyPer -->
      <g style="fill:#262626;" transform="translate(230.03894 672.600906)scale(0.154 -0.154)">
       <use xlink:href="#ArialMT-48"/>
       <use x="72.216797" xlink:href="#ArialMT-79"/>
       <use x="122.216797" xlink:href="#ArialMT-50"/>
       <use x="188.916016" xlink:href="#ArialMT-65"/>
       <use x="244.53125" xlink:href="#ArialMT-72"/>
      </g>
     </g>
    </g>
    <g id="xtick_14">
     <g id="text_31">
      <!-- Pandas -->
      <g style="fill:#262626;" transform="translate(282.962329 672.600906)scale(0.154 -0.154)">
       <use xlink:href="#ArialMT-50"/>
       <use x="66.699219" xlink:href="#ArialMT-61"/>
       <use x="122.314453" xlink:href="#ArialMT-6e"/>
       <use x="177.929688" xlink:href="#ArialMT-64"/>
       <use x="233.544922" xlink:href="#ArialMT-61"/>
       <use x="289.160156" xlink:href="#ArialMT-73"/>
      </g>
     </g>
    </g>
    <g id="xtick_15">
     <g id="text_32">
      <!-- SQLite -->
      <g style="fill:#262626;" transform="translate(343.181467 672.600906)scale(0.154 -0.154)">
       <use xlink:href="#ArialMT-53"/>
       <use x="66.699219" xlink:href="#ArialMT-51"/>
       <use x="144.482422" xlink:href="#ArialMT-4c"/>
       <use x="200.097656" xlink:href="#ArialMT-69"/>
       <use x="222.314453" xlink:href="#ArialMT-74"/>
       <use x="250.097656" xlink:href="#ArialMT-65"/>
      </g>
     </g>
    </g>
    <g id="text_33">
     <!-- system -->
     <g style="fill:#262626;" transform="translate(224.829956 691.670375)scale(0.168 -0.168)">
      <use xlink:href="#ArialMT-73"/>
      <use x="50" xlink:href="#ArialMT-79"/>
      <use x="100" xlink:href="#ArialMT-73"/>
      <use x="150" xlink:href="#ArialMT-74"/>
      <use x="177.783203" xlink:href="#ArialMT-65"/>
      <use x="233.398438" xlink:href="#ArialMT-6d"/>
     </g>
    </g>
   </g>
   <g id="matplotlib.axis_6">
    <g id="ytick_15">
     <g id="line2d_35">
      <path clip-path="url(#p8852a20fa5)" d="M 107.320578 652.077875 
L 395.542834 652.077875 
" style="fill:none;stroke:#ffffff;stroke-linecap:round;"/>
     </g>
     <g id="text_34">
      <!-- 0.0 -->
      <g style="fill:#262626;" transform="translate(76.414578 657.589391)scale(0.154 -0.154)">
       <use xlink:href="#ArialMT-30"/>
       <use x="55.615234" xlink:href="#ArialMT-2e"/>
       <use x="83.398438" xlink:href="#ArialMT-30"/>
      </g>
     </g>
    </g>
    <g id="ytick_16">
     <g id="line2d_36">
      <path clip-path="url(#p8852a20fa5)" d="M 107.320578 610.520472 
L 395.542834 610.520472 
" style="fill:none;stroke:#ffffff;stroke-linecap:round;"/>
     </g>
     <g id="text_35">
      <!-- 0.5 -->
      <g style="fill:#262626;" transform="translate(76.414578 616.031987)scale(0.154 -0.154)">
       <use xlink:href="#ArialMT-30"/>
       <use x="55.615234" xlink:href="#ArialMT-2e"/>
       <use x="83.398438" xlink:href="#ArialMT-35"/>
      </g>
     </g>
    </g>
    <g id="ytick_17">
     <g id="line2d_37">
      <path clip-path="url(#p8852a20fa5)" d="M 107.320578 568.963068 
L 395.542834 568.963068 
" style="fill:none;stroke:#ffffff;stroke-linecap:round;"/>
     </g>
     <g id="text_36">
      <!-- 1.0 -->
      <g style="fill:#262626;" transform="translate(76.414578 574.474584)scale(0.154 -0.154)">
       <use xlink:href="#ArialMT-31"/>
       <use x="55.615234" xlink:href="#ArialMT-2e"/>
       <use x="83.398438" xlink:href="#ArialMT-30"/>
      </g>
     </g>
    </g>
    <g id="ytick_18">
     <g id="line2d_38">
      <path clip-path="url(#p8852a20fa5)" d="M 107.320578 527.405665 
L 395.542834 527.405665 
" style="fill:none;stroke:#ffffff;stroke-linecap:round;"/>
     </g>
     <g id="text_37">
      <!-- 1.5 -->
      <g style="fill:#262626;" transform="translate(76.414578 532.917181)scale(0.154 -0.154)">
       <use xlink:href="#ArialMT-31"/>
       <use x="55.615234" xlink:href="#ArialMT-2e"/>
       <use x="83.398438" xlink:href="#ArialMT-35"/>
      </g>
     </g>
    </g>
    <g id="ytick_19">
     <g id="line2d_39">
      <path clip-path="url(#p8852a20fa5)" d="M 107.320578 485.848262 
L 395.542834 485.848262 
" style="fill:none;stroke:#ffffff;stroke-linecap:round;"/>
     </g>
     <g id="text_38">
      <!-- 2.0 -->
      <g style="fill:#262626;" transform="translate(76.414578 491.359778)scale(0.154 -0.154)">
       <use xlink:href="#ArialMT-32"/>
       <use x="55.615234" xlink:href="#ArialMT-2e"/>
       <use x="83.398438" xlink:href="#ArialMT-30"/>
      </g>
     </g>
    </g>
    <g id="ytick_20">
     <g id="line2d_40">
      <path clip-path="url(#p8852a20fa5)" d="M 107.320578 444.290859 
L 395.542834 444.290859 
" style="fill:none;stroke:#ffffff;stroke-linecap:round;"/>
     </g>
     <g id="text_39">
      <!-- 2.5 -->
      <g style="fill:#262626;" transform="translate(76.414578 449.802374)scale(0.154 -0.154)">
       <use xlink:href="#ArialMT-32"/>
       <use x="55.615234" xlink:href="#ArialMT-2e"/>
       <use x="83.398438" xlink:href="#ArialMT-35"/>
      </g>
     </g>
    </g>
    <g id="ytick_21">
     <g id="line2d_41">
      <path clip-path="url(#p8852a20fa5)" d="M 107.320578 402.733455 
L 395.542834 402.733455 
" style="fill:none;stroke:#ffffff;stroke-linecap:round;"/>
     </g>
     <g id="text_40">
      <!-- 3.0 -->
      <g style="fill:#262626;" transform="translate(76.414578 408.244971)scale(0.154 -0.154)">
       <use xlink:href="#ArialMT-33"/>
       <use x="55.615234" xlink:href="#ArialMT-2e"/>
       <use x="83.398438" xlink:href="#ArialMT-30"/>
      </g>
     </g>
    </g>
    <g id="text_41">
     <!-- time (s) -->
     <g style="fill:#262626;" transform="translate(68.878703 547.307031)rotate(-90)scale(0.168 -0.168)">
      <use xlink:href="#ArialMT-74"/>
      <use x="27.783203" xlink:href="#ArialMT-69"/>
      <use x="50" xlink:href="#ArialMT-6d"/>
      <use x="133.300781" xlink:href="#ArialMT-65"/>
      <use x="188.916016" xlink:href="#ArialMT-20"/>
      <use x="216.699219" xlink:href="#ArialMT-28"/>
      <use x="250" xlink:href="#ArialMT-73"/>
      <use x="300" xlink:href="#ArialMT-29"/>
     </g>
    </g>
   </g>
   <g id="patch_29">
    <path clip-path="url(#p8852a20fa5)" d="M 113.085023 652.077875 
L 136.142803 652.077875 
L 136.142803 562.240729 
L 113.085023 562.240729 
z
" style="fill:#df7f20;stroke:#ffffff;stroke-linejoin:miter;"/>
   </g>
   <g id="patch_30">
    <path clip-path="url(#p8852a20fa5)" d="M 170.729474 652.077875 
L 193.787254 652.077875 
L 193.787254 563.322213 
L 170.729474 563.322213 
z
" style="fill:#df7f20;stroke:#ffffff;stroke-linejoin:miter;"/>
   </g>
   <g id="patch_31">
    <path clip-path="url(#p8852a20fa5)" d="M 228.373925 652.077875 
L 251.431706 652.077875 
L 251.431706 499.517556 
L 228.373925 499.517556 
z
" style="fill:#df7f20;stroke:#ffffff;stroke-linejoin:miter;"/>
   </g>
   <g id="patch_32">
    <path clip-path="url(#p8852a20fa5)" d="M 286.018376 652.077875 
L 309.076157 652.077875 
L 309.076157 614.38289 
L 286.018376 614.38289 
z
" style="fill:#df7f20;stroke:#ffffff;stroke-linejoin:miter;"/>
   </g>
   <g id="patch_33">
    <path clip-path="url(#p8852a20fa5)" d="M 343.662827 652.077875 
L 366.720608 652.077875 
L 366.720608 428.850697 
L 343.662827 428.850697 
z
" style="fill:#df7f20;stroke:#ffffff;stroke-linejoin:miter;"/>
   </g>
   <g id="patch_34">
    <path clip-path="url(#p8852a20fa5)" d="M 136.142803 652.077875 
L 159.200584 652.077875 
L 159.200584 514.985995 
L 136.142803 514.985995 
z
" style="fill:#40923a;stroke:#ffffff;stroke-linejoin:miter;"/>
   </g>
   <g id="patch_35">
    <path clip-path="url(#p8852a20fa5)" d="M 193.787254 652.077875 
L 216.845035 652.077875 
L 216.845035 540.415479 
L 193.787254 540.415479 
z
" style="fill:#40923a;stroke:#ffffff;stroke-linejoin:miter;"/>
   </g>
   <g id="patch_36">
    <path clip-path="url(#p8852a20fa5)" d="M 251.431706 652.077875 
L 274.489486 652.077875 
L 274.489486 473.376951 
L 251.431706 473.376951 
z
" style="fill:#40923a;stroke:#ffffff;stroke-linejoin:miter;"/>
   </g>
   <g id="patch_37">
    <path clip-path="url(#p8852a20fa5)" d="M 309.076157 652.077875 
L 332.133937 652.077875 
L 332.133937 492.406246 
L 309.076157 492.406246 
z
" style="fill:#40923a;stroke:#ffffff;stroke-linejoin:miter;"/>
   </g>
   <g id="patch_38">
    <path clip-path="url(#p8852a20fa5)" d="M 366.720608 652.077875 
L 389.778388 652.077875 
L 389.778388 399.189363 
L 366.720608 399.189363 
z
" style="fill:#40923a;stroke:#ffffff;stroke-linejoin:miter;"/>
   </g>
   <g id="line2d_42">
    <path clip-path="url(#p8852a20fa5)" style="fill:none;stroke:#424242;stroke-linecap:round;stroke-width:2.7;"/>
   </g>
   <g id="line2d_43">
    <path clip-path="url(#p8852a20fa5)" style="fill:none;stroke:#424242;stroke-linecap:round;stroke-width:2.7;"/>
   </g>
   <g id="line2d_44">
    <path clip-path="url(#p8852a20fa5)" style="fill:none;stroke:#424242;stroke-linecap:round;stroke-width:2.7;"/>
   </g>
   <g id="line2d_45">
    <path clip-path="url(#p8852a20fa5)" style="fill:none;stroke:#424242;stroke-linecap:round;stroke-width:2.7;"/>
   </g>
   <g id="line2d_46">
    <path clip-path="url(#p8852a20fa5)" style="fill:none;stroke:#424242;stroke-linecap:round;stroke-width:2.7;"/>
   </g>
   <g id="line2d_47">
    <path clip-path="url(#p8852a20fa5)" style="fill:none;stroke:#424242;stroke-linecap:round;stroke-width:2.7;"/>
   </g>
   <g id="line2d_48">
    <path clip-path="url(#p8852a20fa5)" style="fill:none;stroke:#424242;stroke-linecap:round;stroke-width:2.7;"/>
   </g>
   <g id="line2d_49">
    <path clip-path="url(#p8852a20fa5)" style="fill:none;stroke:#424242;stroke-linecap:round;stroke-width:2.7;"/>
   </g>
   <g id="line2d_50">
    <path clip-path="url(#p8852a20fa5)" style="fill:none;stroke:#424242;stroke-linecap:round;stroke-width:2.7;"/>
   </g>
   <g id="line2d_51">
    <path clip-path="url(#p8852a20fa5)" style="fill:none;stroke:#424242;stroke-linecap:round;stroke-width:2.7;"/>
   </g>
   <g id="patch_39">
    <path d="M 107.320578 652.077875 
L 107.320578 386.544938 
" style="fill:none;stroke:#ffffff;stroke-linecap:square;stroke-linejoin:miter;stroke-width:1.25;"/>
   </g>
   <g id="patch_40">
    <path d="M 107.320578 652.077875 
L 395.542834 652.077875 
" style="fill:none;stroke:#ffffff;stroke-linecap:square;stroke-linejoin:miter;stroke-width:1.25;"/>
   </g>
   <g id="text_42">
    <!-- sf = 100 -->
    <g style="fill:#262626;" transform="translate(221.311143 380.544938)scale(0.168 -0.168)">
     <use xlink:href="#ArialMT-73"/>
     <use x="50" xlink:href="#ArialMT-66"/>
     <use x="77.783203" xlink:href="#ArialMT-20"/>
     <use x="105.566406" xlink:href="#ArialMT-3d"/>
     <use x="163.964844" xlink:href="#ArialMT-20"/>
     <use x="191.748047" xlink:href="#ArialMT-31"/>
     <use x="247.363281" xlink:href="#ArialMT-30"/>
     <use x="302.978516" xlink:href="#ArialMT-30"/>
    </g>
   </g>
  </g>
  <g id="axes_4">
   <g id="patch_41">
    <path d="M 444.572594 652.077875 
L 732.79485 652.077875 
L 732.79485 386.544938 
L 444.572594 386.544938 
z
" style="fill:#eaeaf2;"/>
   </g>
   <g id="matplotlib.axis_7">
    <g id="xtick_16">
     <g id="text_43">
      <!-- CH -->
      <g style="fill:#262626;" transform="translate(462.273132 672.600906)scale(0.154 -0.154)">
       <use xlink:href="#ArialMT-43"/>
       <use x="72.216797" xlink:href="#ArialMT-48"/>
      </g>
     </g>
    </g>
    <g id="xtick_17">
     <g id="text_44">
      <!-- DuckDB -->
      <g style="fill:#262626;" transform="translate(502.799521 672.600906)scale(0.154 -0.154)">
       <use xlink:href="#ArialMT-44"/>
       <use x="72.216797" xlink:href="#ArialMT-75"/>
       <use x="127.832031" xlink:href="#ArialMT-63"/>
       <use x="177.832031" xlink:href="#ArialMT-6b"/>
       <use x="227.832031" xlink:href="#ArialMT-44"/>
       <use x="300.048828" xlink:href="#ArialMT-42"/>
      </g>
     </g>
    </g>
    <g id="xtick_18">
     <g id="text_45">
      <!-- HyPer -->
      <g style="fill:#262626;" transform="translate(567.290956 672.600906)scale(0.154 -0.154)">
       <use xlink:href="#ArialMT-48"/>
       <use x="72.216797" xlink:href="#ArialMT-79"/>
       <use x="122.216797" xlink:href="#ArialMT-50"/>
       <use x="188.916016" xlink:href="#ArialMT-65"/>
       <use x="244.53125" xlink:href="#ArialMT-72"/>
      </g>
     </g>
    </g>
    <g id="xtick_19">
     <g id="text_46">
      <!-- Pandas -->
      <g style="fill:#262626;" transform="translate(620.214345 672.600906)scale(0.154 -0.154)">
       <use xlink:href="#ArialMT-50"/>
       <use x="66.699219" xlink:href="#ArialMT-61"/>
       <use x="122.314453" xlink:href="#ArialMT-6e"/>
       <use x="177.929688" xlink:href="#ArialMT-64"/>
       <use x="233.544922" xlink:href="#ArialMT-61"/>
       <use x="289.160156" xlink:href="#ArialMT-73"/>
      </g>
     </g>
    </g>
    <g id="xtick_20">
     <g id="text_47">
      <!-- SQLite -->
      <g style="fill:#262626;" transform="translate(680.433484 672.600906)scale(0.154 -0.154)">
       <use xlink:href="#ArialMT-53"/>
       <use x="66.699219" xlink:href="#ArialMT-51"/>
       <use x="144.482422" xlink:href="#ArialMT-4c"/>
       <use x="200.097656" xlink:href="#ArialMT-69"/>
       <use x="222.314453" xlink:href="#ArialMT-74"/>
       <use x="250.097656" xlink:href="#ArialMT-65"/>
      </g>
     </g>
    </g>
    <g id="text_48">
     <!-- system -->
     <g style="fill:#262626;" transform="translate(562.081972 691.670375)scale(0.168 -0.168)">
      <use xlink:href="#ArialMT-73"/>
      <use x="50" xlink:href="#ArialMT-79"/>
      <use x="100" xlink:href="#ArialMT-73"/>
      <use x="150" xlink:href="#ArialMT-74"/>
      <use x="177.783203" xlink:href="#ArialMT-65"/>
      <use x="233.398438" xlink:href="#ArialMT-6d"/>
     </g>
    </g>
   </g>
   <g id="matplotlib.axis_8">
    <g id="ytick_22">
     <g id="line2d_52">
      <path clip-path="url(#p9657344fa4)" d="M 444.572594 652.077875 
L 732.79485 652.077875 
" style="fill:none;stroke:#ffffff;stroke-linecap:round;"/>
     </g>
     <g id="text_49">
      <!-- 0.0 -->
      <g style="fill:#262626;" transform="translate(413.666594 657.589391)scale(0.154 -0.154)">
       <use xlink:href="#ArialMT-30"/>
       <use x="55.615234" xlink:href="#ArialMT-2e"/>
       <use x="83.398438" xlink:href="#ArialMT-30"/>
      </g>
     </g>
    </g>
    <g id="ytick_23">
     <g id="line2d_53">
      <path clip-path="url(#p9657344fa4)" d="M 444.572594 610.458289 
L 732.79485 610.458289 
" style="fill:none;stroke:#ffffff;stroke-linecap:round;"/>
     </g>
     <g id="text_50">
      <!-- 0.5 -->
      <g style="fill:#262626;" transform="translate(413.666594 615.969805)scale(0.154 -0.154)">
       <use xlink:href="#ArialMT-30"/>
       <use x="55.615234" xlink:href="#ArialMT-2e"/>
       <use x="83.398438" xlink:href="#ArialMT-35"/>
      </g>
     </g>
    </g>
    <g id="ytick_24">
     <g id="line2d_54">
      <path clip-path="url(#p9657344fa4)" d="M 444.572594 568.838703 
L 732.79485 568.838703 
" style="fill:none;stroke:#ffffff;stroke-linecap:round;"/>
     </g>
     <g id="text_51">
      <!-- 1.0 -->
      <g style="fill:#262626;" transform="translate(413.666594 574.350219)scale(0.154 -0.154)">
       <use xlink:href="#ArialMT-31"/>
       <use x="55.615234" xlink:href="#ArialMT-2e"/>
       <use x="83.398438" xlink:href="#ArialMT-30"/>
      </g>
     </g>
    </g>
    <g id="ytick_25">
     <g id="line2d_55">
      <path clip-path="url(#p9657344fa4)" d="M 444.572594 527.219117 
L 732.79485 527.219117 
" style="fill:none;stroke:#ffffff;stroke-linecap:round;"/>
     </g>
     <g id="text_52">
      <!-- 1.5 -->
      <g style="fill:#262626;" transform="translate(413.666594 532.730633)scale(0.154 -0.154)">
       <use xlink:href="#ArialMT-31"/>
       <use x="55.615234" xlink:href="#ArialMT-2e"/>
       <use x="83.398438" xlink:href="#ArialMT-35"/>
      </g>
     </g>
    </g>
    <g id="ytick_26">
     <g id="line2d_56">
      <path clip-path="url(#p9657344fa4)" d="M 444.572594 485.599531 
L 732.79485 485.599531 
" style="fill:none;stroke:#ffffff;stroke-linecap:round;"/>
     </g>
     <g id="text_53">
      <!-- 2.0 -->
      <g style="fill:#262626;" transform="translate(413.666594 491.111047)scale(0.154 -0.154)">
       <use xlink:href="#ArialMT-32"/>
       <use x="55.615234" xlink:href="#ArialMT-2e"/>
       <use x="83.398438" xlink:href="#ArialMT-30"/>
      </g>
     </g>
    </g>
    <g id="ytick_27">
     <g id="line2d_57">
      <path clip-path="url(#p9657344fa4)" d="M 444.572594 443.979945 
L 732.79485 443.979945 
" style="fill:none;stroke:#ffffff;stroke-linecap:round;"/>
     </g>
     <g id="text_54">
      <!-- 2.5 -->
      <g style="fill:#262626;" transform="translate(413.666594 449.491461)scale(0.154 -0.154)">
       <use xlink:href="#ArialMT-32"/>
       <use x="55.615234" xlink:href="#ArialMT-2e"/>
       <use x="83.398438" xlink:href="#ArialMT-35"/>
      </g>
     </g>
    </g>
    <g id="ytick_28">
     <g id="line2d_58">
      <path clip-path="url(#p9657344fa4)" d="M 444.572594 402.360359 
L 732.79485 402.360359 
" style="fill:none;stroke:#ffffff;stroke-linecap:round;"/>
     </g>
     <g id="text_55">
      <!-- 3.0 -->
      <g style="fill:#262626;" transform="translate(413.666594 407.871875)scale(0.154 -0.154)">
       <use xlink:href="#ArialMT-33"/>
       <use x="55.615234" xlink:href="#ArialMT-2e"/>
       <use x="83.398438" xlink:href="#ArialMT-30"/>
      </g>
     </g>
    </g>
   </g>
   <g id="patch_42">
    <path clip-path="url(#p9657344fa4)" d="M 450.337039 652.077875 
L 473.39482 652.077875 
L 473.39482 559.842638 
L 450.337039 559.842638 
z
" style="fill:#df7f20;stroke:#ffffff;stroke-linejoin:miter;"/>
   </g>
   <g id="patch_43">
    <path clip-path="url(#p9657344fa4)" d="M 507.98149 652.077875 
L 531.039271 652.077875 
L 531.039271 562.748931 
L 507.98149 562.748931 
z
" style="fill:#df7f20;stroke:#ffffff;stroke-linejoin:miter;"/>
   </g>
   <g id="patch_44">
    <path clip-path="url(#p9657344fa4)" d="M 565.625942 652.077875 
L 588.683722 652.077875 
L 588.683722 486.377644 
L 565.625942 486.377644 
z
" style="fill:#df7f20;stroke:#ffffff;stroke-linejoin:miter;"/>
   </g>
   <g id="patch_45">
    <path clip-path="url(#p9657344fa4)" d="M 623.270393 652.077875 
L 646.328173 652.077875 
L 646.328173 613.831553 
L 623.270393 613.831553 
z
" style="fill:#df7f20;stroke:#ffffff;stroke-linejoin:miter;"/>
   </g>
   <g id="patch_46">
    <path clip-path="url(#p9657344fa4)" d="M 680.914844 652.077875 
L 703.972624 652.077875 
L 703.972624 431.671701 
L 680.914844 431.671701 
z
" style="fill:#df7f20;stroke:#ffffff;stroke-linejoin:miter;"/>
   </g>
   <g id="patch_47">
    <path clip-path="url(#p9657344fa4)" d="M 473.39482 652.077875 
L 496.4526 652.077875 
L 496.4526 510.81437 
L 473.39482 510.81437 
z
" style="fill:#40923a;stroke:#ffffff;stroke-linejoin:miter;"/>
   </g>
   <g id="patch_48">
    <path clip-path="url(#p9657344fa4)" d="M 531.039271 652.077875 
L 554.097051 652.077875 
L 554.097051 541.461768 
L 531.039271 541.461768 
z
" style="fill:#40923a;stroke:#ffffff;stroke-linejoin:miter;"/>
   </g>
   <g id="patch_49">
    <path clip-path="url(#p9657344fa4)" d="M 588.683722 652.077875 
L 611.741503 652.077875 
L 611.741503 462.825543 
L 588.683722 462.825543 
z
" style="fill:#40923a;stroke:#ffffff;stroke-linejoin:miter;"/>
   </g>
   <g id="patch_50">
    <path clip-path="url(#p9657344fa4)" d="M 646.328173 652.077875 
L 669.385954 652.077875 
L 669.385954 494.898443 
L 646.328173 494.898443 
z
" style="fill:#40923a;stroke:#ffffff;stroke-linejoin:miter;"/>
   </g>
   <g id="patch_51">
    <path clip-path="url(#p9657344fa4)" d="M 703.972624 652.077875 
L 727.030405 652.077875 
L 727.030405 399.189363 
L 703.972624 399.189363 
z
" style="fill:#40923a;stroke:#ffffff;stroke-linejoin:miter;"/>
   </g>
   <g id="line2d_59">
    <path clip-path="url(#p9657344fa4)" style="fill:none;stroke:#424242;stroke-linecap:round;stroke-width:2.7;"/>
   </g>
   <g id="line2d_60">
    <path clip-path="url(#p9657344fa4)" style="fill:none;stroke:#424242;stroke-linecap:round;stroke-width:2.7;"/>
   </g>
   <g id="line2d_61">
    <path clip-path="url(#p9657344fa4)" style="fill:none;stroke:#424242;stroke-linecap:round;stroke-width:2.7;"/>
   </g>
   <g id="line2d_62">
    <path clip-path="url(#p9657344fa4)" style="fill:none;stroke:#424242;stroke-linecap:round;stroke-width:2.7;"/>
   </g>
   <g id="line2d_63">
    <path clip-path="url(#p9657344fa4)" style="fill:none;stroke:#424242;stroke-linecap:round;stroke-width:2.7;"/>
   </g>
   <g id="line2d_64">
    <path clip-path="url(#p9657344fa4)" style="fill:none;stroke:#424242;stroke-linecap:round;stroke-width:2.7;"/>
   </g>
   <g id="line2d_65">
    <path clip-path="url(#p9657344fa4)" style="fill:none;stroke:#424242;stroke-linecap:round;stroke-width:2.7;"/>
   </g>
   <g id="line2d_66">
    <path clip-path="url(#p9657344fa4)" style="fill:none;stroke:#424242;stroke-linecap:round;stroke-width:2.7;"/>
   </g>
   <g id="line2d_67">
    <path clip-path="url(#p9657344fa4)" style="fill:none;stroke:#424242;stroke-linecap:round;stroke-width:2.7;"/>
   </g>
   <g id="line2d_68">
    <path clip-path="url(#p9657344fa4)" style="fill:none;stroke:#424242;stroke-linecap:round;stroke-width:2.7;"/>
   </g>
   <g id="patch_52">
    <path d="M 444.572594 652.077875 
L 444.572594 386.544938 
" style="fill:none;stroke:#ffffff;stroke-linecap:square;stroke-linejoin:miter;stroke-width:1.25;"/>
   </g>
   <g id="patch_53">
    <path d="M 444.572594 652.077875 
L 732.79485 652.077875 
" style="fill:none;stroke:#ffffff;stroke-linecap:square;stroke-linejoin:miter;stroke-width:1.25;"/>
   </g>
   <g id="text_56">
    <!-- sf = 300 -->
    <g style="fill:#262626;" transform="translate(558.56316 380.544938)scale(0.168 -0.168)">
     <use xlink:href="#ArialMT-73"/>
     <use x="50" xlink:href="#ArialMT-66"/>
     <use x="77.783203" xlink:href="#ArialMT-20"/>
     <use x="105.566406" xlink:href="#ArialMT-3d"/>
     <use x="163.964844" xlink:href="#ArialMT-20"/>
     <use x="191.748047" xlink:href="#ArialMT-33"/>
     <use x="247.363281" xlink:href="#ArialMT-30"/>
     <use x="302.978516" xlink:href="#ArialMT-30"/>
    </g>
   </g>
  </g>
  <g id="text_57">
   <!-- customer ordered by c_birth_year, c_birth_month, c_birth_day and c_first_name, c_last_name -->
   <g style="fill:#262626;" transform="translate(7.2 21.87585)scale(0.2016 -0.2016)">
    <defs>
     <path d="M 213 1659 
Q 213 2581 725 3025 
Q 1153 3394 1769 3394 
Q 2453 3394 2887 2945 
Q 3322 2497 3322 1706 
Q 3322 1066 3130 698 
Q 2938 331 2570 128 
Q 2203 -75 1769 -75 
Q 1072 -75 642 372 
Q 213 819 213 1659 
z
M 791 1659 
Q 791 1022 1069 705 
Q 1347 388 1769 388 
Q 2188 388 2466 706 
Q 2744 1025 2744 1678 
Q 2744 2294 2464 2611 
Q 2184 2928 1769 2928 
Q 1347 2928 1069 2612 
Q 791 2297 791 1659 
z
" id="ArialMT-6f" transform="scale(0.015625)"/>
     <path d="M 941 0 
L 419 0 
L 419 4581 
L 981 4581 
L 981 2947 
Q 1338 3394 1891 3394 
Q 2197 3394 2470 3270 
Q 2744 3147 2920 2923 
Q 3097 2700 3197 2384 
Q 3297 2069 3297 1709 
Q 3297 856 2875 390 
Q 2453 -75 1863 -75 
Q 1275 -75 941 416 
L 941 0 
z
M 934 1684 
Q 934 1088 1097 822 
Q 1363 388 1816 388 
Q 2184 388 2453 708 
Q 2722 1028 2722 1663 
Q 2722 2313 2464 2622 
Q 2206 2931 1841 2931 
Q 1472 2931 1203 2611 
Q 934 2291 934 1684 
z
" id="ArialMT-62" transform="scale(0.015625)"/>
     <path d="M -97 -1272 
L -97 -866 
L 3631 -866 
L 3631 -1272 
L -97 -1272 
z
" id="ArialMT-5f" transform="scale(0.015625)"/>
     <path d="M 422 0 
L 422 4581 
L 984 4581 
L 984 2938 
Q 1378 3394 1978 3394 
Q 2347 3394 2619 3248 
Q 2891 3103 3008 2847 
Q 3125 2591 3125 2103 
L 3125 0 
L 2563 0 
L 2563 2103 
Q 2563 2525 2380 2717 
Q 2197 2909 1863 2909 
Q 1613 2909 1392 2779 
Q 1172 2650 1078 2428 
Q 984 2206 984 1816 
L 984 0 
L 422 0 
z
" id="ArialMT-68" transform="scale(0.015625)"/>
     <path d="M 569 0 
L 569 641 
L 1209 641 
L 1209 0 
Q 1209 -353 1084 -570 
Q 959 -788 688 -906 
L 531 -666 
Q 709 -588 793 -436 
Q 878 -284 888 0 
L 569 0 
z
" id="ArialMT-2c" transform="scale(0.015625)"/>
     <path d="M 409 0 
L 409 4581 
L 972 4581 
L 972 0 
L 409 0 
z
" id="ArialMT-6c" transform="scale(0.015625)"/>
    </defs>
    <use xlink:href="#ArialMT-63"/>
    <use x="50" xlink:href="#ArialMT-75"/>
    <use x="105.615234" xlink:href="#ArialMT-73"/>
    <use x="155.615234" xlink:href="#ArialMT-74"/>
    <use x="183.398438" xlink:href="#ArialMT-6f"/>
    <use x="239.013672" xlink:href="#ArialMT-6d"/>
    <use x="322.314453" xlink:href="#ArialMT-65"/>
    <use x="377.929688" xlink:href="#ArialMT-72"/>
    <use x="411.230469" xlink:href="#ArialMT-20"/>
    <use x="439.013672" xlink:href="#ArialMT-6f"/>
    <use x="494.628906" xlink:href="#ArialMT-72"/>
    <use x="527.929688" xlink:href="#ArialMT-64"/>
    <use x="583.544922" xlink:href="#ArialMT-65"/>
    <use x="639.160156" xlink:href="#ArialMT-72"/>
    <use x="672.460938" xlink:href="#ArialMT-65"/>
    <use x="728.076172" xlink:href="#ArialMT-64"/>
    <use x="783.691406" xlink:href="#ArialMT-20"/>
    <use x="811.474609" xlink:href="#ArialMT-62"/>
    <use x="867.089844" xlink:href="#ArialMT-79"/>
    <use x="917.089844" xlink:href="#ArialMT-20"/>
    <use x="944.873047" xlink:href="#ArialMT-63"/>
    <use x="994.873047" xlink:href="#ArialMT-5f"/>
    <use x="1050.488281" xlink:href="#ArialMT-62"/>
    <use x="1106.103516" xlink:href="#ArialMT-69"/>
    <use x="1128.320312" xlink:href="#ArialMT-72"/>
    <use x="1161.621094" xlink:href="#ArialMT-74"/>
    <use x="1189.404297" xlink:href="#ArialMT-68"/>
    <use x="1245.019531" xlink:href="#ArialMT-5f"/>
    <use x="1300.634766" xlink:href="#ArialMT-79"/>
    <use x="1350.634766" xlink:href="#ArialMT-65"/>
    <use x="1406.25" xlink:href="#ArialMT-61"/>
    <use x="1461.865234" xlink:href="#ArialMT-72"/>
    <use x="1489.666016" xlink:href="#ArialMT-2c"/>
    <use x="1517.449219" xlink:href="#ArialMT-20"/>
    <use x="1545.232422" xlink:href="#ArialMT-63"/>
    <use x="1595.232422" xlink:href="#ArialMT-5f"/>
    <use x="1650.847656" xlink:href="#ArialMT-62"/>
    <use x="1706.462891" xlink:href="#ArialMT-69"/>
    <use x="1728.679688" xlink:href="#ArialMT-72"/>
    <use x="1761.980469" xlink:href="#ArialMT-74"/>
    <use x="1789.763672" xlink:href="#ArialMT-68"/>
    <use x="1845.378906" xlink:href="#ArialMT-5f"/>
    <use x="1900.994141" xlink:href="#ArialMT-6d"/>
    <use x="1984.294922" xlink:href="#ArialMT-6f"/>
    <use x="2039.910156" xlink:href="#ArialMT-6e"/>
    <use x="2095.525391" xlink:href="#ArialMT-74"/>
    <use x="2123.308594" xlink:href="#ArialMT-68"/>
    <use x="2178.923828" xlink:href="#ArialMT-2c"/>
    <use x="2206.707031" xlink:href="#ArialMT-20"/>
    <use x="2234.490234" xlink:href="#ArialMT-63"/>
    <use x="2284.490234" xlink:href="#ArialMT-5f"/>
    <use x="2340.105469" xlink:href="#ArialMT-62"/>
    <use x="2395.720703" xlink:href="#ArialMT-69"/>
    <use x="2417.9375" xlink:href="#ArialMT-72"/>
    <use x="2451.238281" xlink:href="#ArialMT-74"/>
    <use x="2479.021484" xlink:href="#ArialMT-68"/>
    <use x="2534.636719" xlink:href="#ArialMT-5f"/>
    <use x="2590.251953" xlink:href="#ArialMT-64"/>
    <use x="2645.867188" xlink:href="#ArialMT-61"/>
    <use x="2701.482422" xlink:href="#ArialMT-79"/>
    <use x="2751.482422" xlink:href="#ArialMT-20"/>
    <use x="2779.265625" xlink:href="#ArialMT-61"/>
    <use x="2834.880859" xlink:href="#ArialMT-6e"/>
    <use x="2890.496094" xlink:href="#ArialMT-64"/>
    <use x="2946.111328" xlink:href="#ArialMT-20"/>
    <use x="2973.894531" xlink:href="#ArialMT-63"/>
    <use x="3023.894531" xlink:href="#ArialMT-5f"/>
    <use x="3079.509766" xlink:href="#ArialMT-66"/>
    <use x="3107.292969" xlink:href="#ArialMT-69"/>
    <use x="3129.509766" xlink:href="#ArialMT-72"/>
    <use x="3162.810547" xlink:href="#ArialMT-73"/>
    <use x="3212.810547" xlink:href="#ArialMT-74"/>
    <use x="3240.59375" xlink:href="#ArialMT-5f"/>
    <use x="3296.208984" xlink:href="#ArialMT-6e"/>
    <use x="3351.824219" xlink:href="#ArialMT-61"/>
    <use x="3407.439453" xlink:href="#ArialMT-6d"/>
    <use x="3490.740234" xlink:href="#ArialMT-65"/>
    <use x="3546.355469" xlink:href="#ArialMT-2c"/>
    <use x="3574.138672" xlink:href="#ArialMT-20"/>
    <use x="3601.921875" xlink:href="#ArialMT-63"/>
    <use x="3651.921875" xlink:href="#ArialMT-5f"/>
    <use x="3707.537109" xlink:href="#ArialMT-6c"/>
    <use x="3729.753906" xlink:href="#ArialMT-61"/>
    <use x="3785.369141" xlink:href="#ArialMT-73"/>
    <use x="3835.369141" xlink:href="#ArialMT-74"/>
    <use x="3863.152344" xlink:href="#ArialMT-5f"/>
    <use x="3918.767578" xlink:href="#ArialMT-6e"/>
    <use x="3974.382812" xlink:href="#ArialMT-61"/>
    <use x="4029.998047" xlink:href="#ArialMT-6d"/>
    <use x="4113.298828" xlink:href="#ArialMT-65"/>
   </g>
  </g>
  <g id="legend_1">
   <g id="text_58">
    <!-- sort type -->
    <g style="fill:#262626;" transform="translate(768.329422 333.573734)scale(0.168 -0.168)">
     <defs>
      <path d="M 422 -1272 
L 422 3319 
L 934 3319 
L 934 2888 
Q 1116 3141 1344 3267 
Q 1572 3394 1897 3394 
Q 2322 3394 2647 3175 
Q 2972 2956 3137 2557 
Q 3303 2159 3303 1684 
Q 3303 1175 3120 767 
Q 2938 359 2589 142 
Q 2241 -75 1856 -75 
Q 1575 -75 1351 44 
Q 1128 163 984 344 
L 984 -1272 
L 422 -1272 
z
M 931 1641 
Q 931 1000 1190 694 
Q 1450 388 1819 388 
Q 2194 388 2461 705 
Q 2728 1022 2728 1688 
Q 2728 2322 2467 2637 
Q 2206 2953 1844 2953 
Q 1484 2953 1207 2617 
Q 931 2281 931 1641 
z
" id="ArialMT-70" transform="scale(0.015625)"/>
     </defs>
     <use xlink:href="#ArialMT-73"/>
     <use x="50" xlink:href="#ArialMT-6f"/>
     <use x="105.615234" xlink:href="#ArialMT-72"/>
     <use x="138.916016" xlink:href="#ArialMT-74"/>
     <use x="166.699219" xlink:href="#ArialMT-20"/>
     <use x="194.482422" xlink:href="#ArialMT-74"/>
     <use x="222.265625" xlink:href="#ArialMT-79"/>
     <use x="272.265625" xlink:href="#ArialMT-70"/>
     <use x="327.880859" xlink:href="#ArialMT-65"/>
    </g>
   </g>
   <g id="patch_54">
    <path d="M 760.153094 355.832641 
L 790.953094 355.832641 
L 790.953094 345.052641 
L 760.153094 345.052641 
z
" style="fill:#df7f20;stroke:#ffffff;stroke-linejoin:miter;"/>
   </g>
   <g id="text_59">
    <!-- int -->
    <g style="fill:#262626;" transform="translate(803.273094 355.832641)scale(0.154 -0.154)">
     <use xlink:href="#ArialMT-69"/>
     <use x="22.216797" xlink:href="#ArialMT-6e"/>
     <use x="77.832031" xlink:href="#ArialMT-74"/>
    </g>
   </g>
   <g id="patch_55">
    <path d="M 760.153094 377.616422 
L 790.953094 377.616422 
L 790.953094 366.836422 
L 760.153094 366.836422 
z
" style="fill:#40923a;stroke:#ffffff;stroke-linejoin:miter;"/>
   </g>
   <g id="text_60">
    <!-- string -->
    <g style="fill:#262626;" transform="translate(803.273094 377.616422)scale(0.154 -0.154)">
     <defs>
      <path d="M 319 -275 
L 866 -356 
Q 900 -609 1056 -725 
Q 1266 -881 1628 -881 
Q 2019 -881 2231 -725 
Q 2444 -569 2519 -288 
Q 2563 -116 2559 434 
Q 2191 0 1641 0 
Q 956 0 581 494 
Q 206 988 206 1678 
Q 206 2153 378 2554 
Q 550 2956 876 3175 
Q 1203 3394 1644 3394 
Q 2231 3394 2613 2919 
L 2613 3319 
L 3131 3319 
L 3131 450 
Q 3131 -325 2973 -648 
Q 2816 -972 2473 -1159 
Q 2131 -1347 1631 -1347 
Q 1038 -1347 672 -1080 
Q 306 -813 319 -275 
z
M 784 1719 
Q 784 1066 1043 766 
Q 1303 466 1694 466 
Q 2081 466 2343 764 
Q 2606 1063 2606 1700 
Q 2606 2309 2336 2618 
Q 2066 2928 1684 2928 
Q 1309 2928 1046 2623 
Q 784 2319 784 1719 
z
" id="ArialMT-67" transform="scale(0.015625)"/>
     </defs>
     <use xlink:href="#ArialMT-73"/>
     <use x="50" xlink:href="#ArialMT-74"/>
     <use x="77.783203" xlink:href="#ArialMT-72"/>
     <use x="111.083984" xlink:href="#ArialMT-69"/>
     <use x="133.300781" xlink:href="#ArialMT-6e"/>
     <use x="188.916016" xlink:href="#ArialMT-67"/>
    </g>
   </g>
  </g>
 </g>
 <defs>
  <clipPath id="p5c0f544369">
   <rect height="265.532937" width="288.222256" x="107.320578" y="64.8"/>
  </clipPath>
  <clipPath id="p2ecb10c691">
   <rect height="265.532937" width="288.222256" x="444.572594" y="64.8"/>
  </clipPath>
  <clipPath id="p8852a20fa5">
   <rect height="265.532937" width="288.222256" x="107.320578" y="386.544938"/>
  </clipPath>
  <clipPath id="p9657344fa4">
   <rect height="265.532937" width="288.222256" x="444.572594" y="386.544938"/>
  </clipPath>
 </defs>
</svg>
