<svg width="560" height="240" viewBox="0 0 560 240" fill="none" xmlns="http://www.w3.org/2000/svg">
<rect width="560" height="240" fill="#FFF100"/>
<g clip-path="url(#clip0_4723_13029)">
<rect width="560" height="240" fill="#FFF100"/>
<path d="M224 49.847L224 -0.999985C224 -12.0457 215.046 -21 204 -21L-26 -21C-37.0457 -21 -46 -12.0457 -46 -1.00001L-46 175C-46 186.046 -37.0457 195 -26 195L52.5714 195C63.6171 195 72.5714 186.046 72.5714 175L72.5714 89.8471C72.5714 78.8014 81.5257 69.8471 92.5714 69.8471L204 69.8471C215.046 69.8471 224 60.8927 224 49.847Z" fill="#EDDE00"/>
<path d="M472.584 123.352L505.5 123.352C516.546 123.352 525.5 114.397 525.5 103.352L525.5 66.9999C525.5 55.9542 516.546 46.9999 505.5 46.9999L454.5 46.9999C443.454 46.9999 434.5 38.0456 434.5 26.9999L434.5 -34.0001C434.5 -45.0458 443.454 -54.0001 454.5 -54.0001L583 -54.0001C594.046 -54.0001 603 -45.0457 603 -34.0001L603 241.5C603 252.546 594.046 261.5 583 261.5L335 261.5C323.954 261.5 315 252.546 315 241.5L315 206.5C315 195.454 323.954 186.5 335 186.5L432.584 186.5C443.629 186.5 452.584 177.546 452.584 166.5L452.584 143.352C452.584 132.306 461.538 123.352 472.584 123.352Z" fill="#EDDE00"/>
</g>
<path fill-rule="evenodd" clip-rule="evenodd" d="M201 112.695V94.0535H267V145.946H201V127.001H205.014C208.977 127.001 212.269 123.735 212.269 119.805C212.269 115.845 208.977 112.695 205.014 112.695H201ZM230.528 122.155H227.087L231.033 140.724H234.512L237.219 128.087H237.285L239.814 140.724H243.228L247.613 122.155H244.239L241.561 134.947H241.511L238.961 122.155H235.743L232.919 134.792H232.877L230.528 122.155ZM256.917 122.155H251.493L247.042 140.724H250.499L251.404 136.592H257.583L258.755 140.724H262.304L256.917 122.155ZM252.057 133.544L253.558 126.732H255.005L256.728 133.544H252.057Z" fill="black"/>
<path d="M325.5 153.5C306.967 153.5 292 138.533 292 120C292 101.467 306.967 86.5 325.5 86.5C344.033 86.5 359 101.467 359 120C359 138.533 344.033 153.5 325.5 153.5Z" fill="black"/>
<path d="M343.412 115.03H336.84V124.948H343.412C346.137 124.948 348.401 122.684 348.401 119.959C348.401 117.214 346.137 115.03 343.412 115.03Z" fill="#FFF100"/>
<path d="M304.641 120C304.641 127.654 310.872 133.885 318.526 133.885C326.18 133.885 332.411 127.654 332.411 120C332.411 112.346 326.18 106.115 318.526 106.115C310.872 106.115 304.641 112.346 304.641 120Z" fill="#FFF100"/>
<defs>
<clipPath id="clip0_4723_13029">
<rect width="560" height="240" fill="white"/>
</clipPath>
</defs>
</svg>
