<svg xmlns="http://www.w3.org/2000/svg" width="560" height="240" fill="none" viewBox="0 0 560 240"><rect width="560" height="240" fill="#FFF100"/><g clip-path="url(#clip0_4723_13009)"><rect width="560" height="240" fill="#FFF100"/><path fill="#EDDE00" d="M224 49.847L224 -0.999985C224 -12.0457 215.046 -21 204 -21L-26 -21C-37.0457 -21 -46 -12.0457 -46 -1.00001L-46 175C-46 186.046 -37.0457 195 -26 195L52.5714 195C63.6171 195 72.5714 186.046 72.5714 175L72.5714 89.8471C72.5714 78.8014 81.5257 69.8471 92.5714 69.8471L204 69.8471C215.046 69.8471 224 60.8927 224 49.847Z"/><path fill="#EDDE00" d="M501.983 104.352L501.983 -32.9999C501.983 -44.0456 510.937 -52.9999 521.983 -52.9999L546 -52.9999C557.046 -52.9999 566 -44.0456 566 -32.9999L566 257C566 268.046 557.046 277 546 277L366 277C354.954 277 346 268.046 346 257L346 207.5C346 196.454 354.954 187.5 366 187.5L395.584 187.5C406.629 187.5 415.584 178.546 415.584 167.5L415.584 144.352C415.584 133.306 424.538 124.352 435.584 124.352L481.983 124.352C493.029 124.352 501.983 115.398 501.983 104.352Z"/></g><circle cx="188" cy="120" r="33.5" fill="#000"/><path fill="#FFF100" d="M188.095 113.695C180.034 113.695 173.5 111.731 173.5 109.309V132.114C173.5 134.536 180.034 136.5 188.095 136.5C196.156 136.5 202.69 134.536 202.69 132.114V109.309C202.69 111.731 196.156 113.695 188.095 113.695Z"/><path fill="#FFF100" d="M188.095 112.272C196.156 112.272 202.69 110.308 202.69 107.886C202.69 105.464 196.156 103.5 188.095 103.5C180.034 103.5 173.5 105.464 173.5 107.886C173.5 110.308 180.034 112.272 188.095 112.272Z"/><circle cx="280" cy="120" r="33.5" fill="#000"/><path fill="#FFF100" d="M280.095 113.695C272.034 113.695 265.5 111.731 265.5 109.309V132.114C265.5 134.536 272.034 136.5 280.095 136.5C288.156 136.5 294.69 134.536 294.69 132.114V109.309C294.69 111.731 288.156 113.695 280.095 113.695Z"/><path fill="#FFF100" d="M280.095 112.272C288.156 112.272 294.69 110.308 294.69 107.886C294.69 105.464 288.156 103.5 280.095 103.5C272.034 103.5 265.5 105.464 265.5 107.886C265.5 110.308 272.034 112.272 280.095 112.272Z"/><circle cx="372" cy="120" r="33.5" fill="#000"/><path fill="#FFF100" d="M372.095 113.695C364.034 113.695 357.5 111.731 357.5 109.309V132.114C357.5 134.536 364.034 136.5 372.095 136.5C380.156 136.5 386.69 134.536 386.69 132.114V109.309C386.69 111.731 380.156 113.695 372.095 113.695Z"/><path fill="#FFF100" d="M372.095 112.272C380.156 112.272 386.69 110.308 386.69 107.886C386.69 105.464 380.156 103.5 372.095 103.5C364.034 103.5 357.5 105.464 357.5 107.886C357.5 110.308 364.034 112.272 372.095 112.272Z"/><defs><clipPath id="clip0_4723_13009"><rect width="560" height="240" fill="#fff"/></clipPath></defs></svg>