<svg width="367" height="206" viewBox="0 0 367 206" fill="none" xmlns="http://www.w3.org/2000/svg">
<rect width="367" height="206" fill="#ECDC00"/>
<path d="M120.512 103.151C120.512 97.884 117.292 97.171 114.095 97.171H112.6V109.154H114.095C117.292 109.154 120.512 108.418 120.512 103.151ZM109.679 94.825H114.233C119.5 94.825 123.548 96.642 123.548 103.151C123.548 109.66 119.5 111.5 114.233 111.5H109.679V94.825ZM133.663 111.5V109.798C132.95 111.086 131.685 111.799 130.006 111.799C127.062 111.799 125.866 109.867 125.866 106.923V99.126H128.603V106.256C128.603 107.935 128.833 109.568 130.88 109.568C132.927 109.568 133.663 107.958 133.663 105.727V99.126H136.4V111.5H133.663ZM144.702 98.85C147.416 98.85 149.762 100.621 150.245 103.358H147.577C147.324 102.047 146.197 101.127 144.702 101.127C142.977 101.127 141.459 102.392 141.459 105.313C141.459 108.257 143.023 109.522 144.633 109.522C145.99 109.522 147.301 108.924 147.669 107.268H150.337C149.785 110.166 147.232 111.799 144.587 111.799C140.999 111.799 138.63 109.016 138.63 105.336C138.63 101.656 140.999 98.85 144.702 98.85ZM152.464 94.825H155.201V104.094L159.778 99.126H163.067L158.329 104.209L163.596 111.5H160.399L156.512 106.141L155.201 107.544V111.5H152.464V94.825ZM175.743 103.151C175.743 97.884 172.523 97.171 169.326 97.171H167.831V109.154H169.326C172.523 109.154 175.743 108.418 175.743 103.151ZM164.91 94.825H169.464C174.731 94.825 178.779 96.642 178.779 103.151C178.779 109.66 174.731 111.5 169.464 111.5H164.91V94.825ZM181.442 111.5V94.825H187.721C190.757 94.825 193.724 95.653 193.724 99.08C193.724 100.644 192.85 102.024 191.861 102.645C193.241 103.266 194.368 104.347 194.368 106.555C194.368 110.143 191.539 111.5 188.135 111.5H181.442ZM184.363 104.025V109.154H188.25C190.343 109.154 191.355 108.211 191.355 106.555C191.355 104.83 190.32 104.025 188.089 104.025H184.363ZM184.363 97.171V101.794H187.997C189.722 101.794 190.757 101.058 190.757 99.402C190.757 97.93 189.653 97.171 187.997 97.171H184.363ZM207.948 109.683C210.363 109.683 211.743 107.383 211.743 103.151C211.743 98.919 210.363 96.619 207.948 96.619C205.556 96.619 204.176 98.919 204.176 103.151C204.176 107.383 205.556 109.683 207.948 109.683ZM207.948 111.799C203.532 111.799 201.324 108.28 201.324 103.151C201.324 98.068 203.532 94.526 207.948 94.526C212.41 94.526 214.595 98.068 214.595 103.151C214.595 108.28 212.41 111.799 207.948 111.799ZM218.452 111.5H215.324V108.372H218.452V111.5ZM224.05 111.5H221.313V98.804H217.587V96.918C220.002 96.849 221.175 96.642 222.026 94.825H224.05V111.5ZM233.329 109.683C235.744 109.683 237.124 107.383 237.124 103.151C237.124 98.919 235.744 96.619 233.329 96.619C230.937 96.619 229.557 98.919 229.557 103.151C229.557 107.383 230.937 109.683 233.329 109.683ZM233.329 111.799C228.913 111.799 226.705 108.28 226.705 103.151C226.705 98.068 228.913 94.526 233.329 94.526C237.791 94.526 239.976 98.068 239.976 103.151C239.976 108.28 237.791 111.799 233.329 111.799ZM243.833 111.5H240.705V108.372H243.833V111.5ZM251.208 109.683C253.623 109.683 255.003 107.383 255.003 103.151C255.003 98.919 253.623 96.619 251.208 96.619C248.816 96.619 247.436 98.919 247.436 103.151C247.436 107.383 248.816 109.683 251.208 109.683ZM251.208 111.799C246.792 111.799 244.584 108.28 244.584 103.151C244.584 98.068 246.792 94.526 251.208 94.526C255.67 94.526 257.855 98.068 257.855 103.151C257.855 108.28 255.67 111.799 251.208 111.799Z" fill="#FFF100"/>
</svg>
