<svg width="560" height="240" viewBox="0 0 560 240" fill="none" xmlns="http://www.w3.org/2000/svg">
<rect width="560" height="240" fill="#FFF100"/>
<g clip-path="url(#clip0_4723_16244)">
<rect width="560" height="240" fill="#FFF100"/>
<path d="M-137 100L9.61491 100L67 100C78.0457 100 87 108.954 87 120L87 340C87 351.046 78.0457 360 67 360L-137 360C-148.046 360 -157 351.046 -157 340L-157 120C-157 108.954 -148.046 100 -137 100Z" fill="#FFF100"/>
<path d="M231 21.9441L231 -24C231 -35.0457 222.046 -44 211 -44L-11 -44C-22.0457 -44 -31 -35.0457 -31 -24L-31 191C-31 202.046 -22.0457 211 -11 211L76.5 211C87.5457 211 96.5 202.046 96.5 191L96.5 61.9441C96.5 50.8984 105.454 41.9441 116.5 41.9441L211 41.9441C222.046 41.9441 231 32.9898 231 21.9441Z" fill="#EDDE00"/>
<path d="M423.479 197.576L289 197.576C277.954 197.576 269 206.53 269 217.576L269 256C269 267.046 277.954 276 289 276L611.5 276C622.546 276 631.5 267.046 631.5 256L631.5 -28C631.5 -39.0457 622.546 -48 611.5 -48L504.424 -48C493.378 -48 484.424 -39.0457 484.424 -28L484.424 58.5088C484.424 69.5545 475.47 78.5088 464.424 78.5088L463.479 78.5088C452.433 78.5088 443.479 87.4631 443.479 98.5088L443.479 177.576C443.479 188.622 434.525 197.576 423.479 197.576Z" fill="#EDDE00"/>
<path d="M514 114C502.954 114 494 122.954 494 134L494 294C494 305.046 502.954 314 514 314H612C623.046 314 632 305.046 632 294L632 134C632 122.954 623.046 114 612 114L514 114Z" fill="#FFF100"/>
</g>
<path d="M226 153.5C207.467 153.5 192.5 138.533 192.5 120C192.5 101.467 207.467 86.5 226 86.5C244.533 86.5 259.5 101.467 259.5 120C259.5 138.533 244.533 153.5 226 153.5Z" fill="black"/>
<path d="M243.912 115.03H237.34V124.948H243.912C246.637 124.948 248.901 122.684 248.901 119.959C248.901 117.214 246.637 115.03 243.912 115.03Z" fill="#FFF100"/>
<path d="M205.141 120C205.141 127.654 211.372 133.885 219.026 133.885C226.68 133.885 232.911 127.654 232.911 120C232.911 112.346 226.68 106.115 219.026 106.115C211.372 106.115 205.141 112.346 205.141 120Z" fill="#FFF100"/>
<path d="M286.087 116.701C286.087 115.934 286.21 115.244 286.455 114.631C286.716 114.018 287.076 113.496 287.536 113.067C287.996 112.622 288.556 112.285 289.215 112.055C289.874 111.81 290.61 111.687 291.423 111.687C292.22 111.687 292.941 111.81 293.585 112.055C294.244 112.285 294.804 112.622 295.264 113.067C295.724 113.496 296.077 114.018 296.322 114.631C296.567 115.244 296.69 115.934 296.69 116.701V123.693C296.69 124.444 296.56 125.134 296.299 125.763C296.054 126.376 295.701 126.905 295.241 127.35C294.781 127.795 294.229 128.14 293.585 128.385C292.941 128.615 292.22 128.73 291.423 128.73C290.61 128.73 289.874 128.615 289.215 128.385C288.556 128.14 287.996 127.802 287.536 127.373C287.076 126.928 286.716 126.399 286.455 125.786C286.21 125.157 286.087 124.46 286.087 123.693V116.701ZM288.571 123.693C288.571 124.552 288.824 125.234 289.33 125.74C289.851 126.246 290.549 126.499 291.423 126.499C292.266 126.499 292.941 126.246 293.447 125.74C293.953 125.234 294.206 124.552 294.206 123.693V116.701C294.206 115.858 293.953 115.183 293.447 114.677C292.941 114.171 292.266 113.918 291.423 113.918C290.549 113.918 289.851 114.171 289.33 114.677C288.824 115.183 288.571 115.858 288.571 116.701V123.693ZM290.296 118.564C290.296 118.196 290.396 117.897 290.595 117.667C290.794 117.437 291.07 117.322 291.423 117.322C291.76 117.322 292.029 117.437 292.228 117.667C292.427 117.897 292.527 118.196 292.527 118.564V122.083C292.527 122.451 292.427 122.75 292.228 122.98C292.029 123.21 291.76 123.325 291.423 123.325C291.07 123.325 290.794 123.21 290.595 122.98C290.396 122.75 290.296 122.451 290.296 122.083V118.564ZM303.075 126.568C303.075 125.924 303.267 125.41 303.65 125.027C304.033 124.628 304.547 124.429 305.191 124.429C305.835 124.429 306.349 124.628 306.732 125.027C307.115 125.41 307.307 125.924 307.307 126.568C307.307 127.212 307.115 127.733 306.732 128.132C306.349 128.531 305.835 128.73 305.191 128.73C304.547 128.73 304.033 128.531 303.65 128.132C303.267 127.733 303.075 127.212 303.075 126.568ZM313.991 126.269H318.43V115.643C318.43 115.244 318.438 114.892 318.453 114.585C318.484 114.263 318.499 114.094 318.499 114.079H318.453C318.361 114.171 318.261 114.263 318.154 114.355C318.062 114.432 317.962 114.516 317.855 114.608C317.748 114.685 317.633 114.761 317.51 114.838L314.267 117V114.516L317.947 111.94H320.96V126.269H324.617V128.5H313.991V126.269ZM327.46 116.701C327.46 115.934 327.583 115.244 327.828 114.631C328.089 114.018 328.449 113.496 328.909 113.067C329.369 112.622 329.929 112.285 330.588 112.055C331.247 111.81 331.983 111.687 332.796 111.687C333.593 111.687 334.314 111.81 334.958 112.055C335.617 112.285 336.177 112.622 336.637 113.067C337.097 113.496 337.45 114.018 337.695 114.631C337.94 115.244 338.063 115.934 338.063 116.701V123.693C338.063 124.444 337.933 125.134 337.672 125.763C337.427 126.376 337.074 126.905 336.614 127.35C336.154 127.795 335.602 128.14 334.958 128.385C334.314 128.615 333.593 128.73 332.796 128.73C331.983 128.73 331.247 128.615 330.588 128.385C329.929 128.14 329.369 127.802 328.909 127.373C328.449 126.928 328.089 126.399 327.828 125.786C327.583 125.157 327.46 124.46 327.46 123.693V116.701ZM329.944 123.693C329.944 124.552 330.197 125.234 330.703 125.74C331.224 126.246 331.922 126.499 332.796 126.499C333.639 126.499 334.314 126.246 334.82 125.74C335.326 125.234 335.579 124.552 335.579 123.693V116.701C335.579 115.858 335.326 115.183 334.82 114.677C334.314 114.171 333.639 113.918 332.796 113.918C331.922 113.918 331.224 114.171 330.703 114.677C330.197 115.183 329.944 115.858 329.944 116.701V123.693ZM331.669 118.564C331.669 118.196 331.769 117.897 331.968 117.667C332.167 117.437 332.443 117.322 332.796 117.322C333.133 117.322 333.402 117.437 333.601 117.667C333.8 117.897 333.9 118.196 333.9 118.564V122.083C333.9 122.451 333.8 122.75 333.601 122.98C333.402 123.21 333.133 123.325 332.796 123.325C332.443 123.325 332.167 123.21 331.968 122.98C331.769 122.75 331.669 122.451 331.669 122.083V118.564ZM344.448 126.568C344.448 125.924 344.64 125.41 345.023 125.027C345.406 124.628 345.92 124.429 346.564 124.429C347.208 124.429 347.722 124.628 348.105 125.027C348.488 125.41 348.68 125.924 348.68 126.568C348.68 127.212 348.488 127.733 348.105 128.132C347.722 128.531 347.208 128.73 346.564 128.73C345.92 128.73 345.406 128.531 345.023 128.132C344.64 127.733 344.448 127.212 344.448 126.568ZM355.042 116.701C355.042 115.934 355.165 115.244 355.41 114.631C355.671 114.018 356.031 113.496 356.491 113.067C356.951 112.622 357.511 112.285 358.17 112.055C358.829 111.81 359.565 111.687 360.378 111.687C361.175 111.687 361.896 111.81 362.54 112.055C363.199 112.285 363.759 112.622 364.219 113.067C364.679 113.496 365.032 114.018 365.277 114.631C365.522 115.244 365.645 115.934 365.645 116.701V123.693C365.645 124.444 365.515 125.134 365.254 125.763C365.009 126.376 364.656 126.905 364.196 127.35C363.736 127.795 363.184 128.14 362.54 128.385C361.896 128.615 361.175 128.73 360.378 128.73C359.565 128.73 358.829 128.615 358.17 128.385C357.511 128.14 356.951 127.802 356.491 127.373C356.031 126.928 355.671 126.399 355.41 125.786C355.165 125.157 355.042 124.46 355.042 123.693V116.701ZM357.526 123.693C357.526 124.552 357.779 125.234 358.285 125.74C358.806 126.246 359.504 126.499 360.378 126.499C361.221 126.499 361.896 126.246 362.402 125.74C362.908 125.234 363.161 124.552 363.161 123.693V116.701C363.161 115.858 362.908 115.183 362.402 114.677C361.896 114.171 361.221 113.918 360.378 113.918C359.504 113.918 358.806 114.171 358.285 114.677C357.779 115.183 357.526 115.858 357.526 116.701V123.693ZM359.251 118.564C359.251 118.196 359.351 117.897 359.55 117.667C359.749 117.437 360.025 117.322 360.378 117.322C360.715 117.322 360.984 117.437 361.183 117.667C361.382 117.897 361.482 118.196 361.482 118.564V122.083C361.482 122.451 361.382 122.75 361.183 122.98C360.984 123.21 360.715 123.325 360.378 123.325C360.025 123.325 359.749 123.21 359.55 122.98C359.351 122.75 359.251 122.451 359.251 122.083V118.564Z" fill="black"/>
<defs>
<clipPath id="clip0_4723_16244">
<rect width="560" height="240" fill="white"/>
</clipPath>
</defs>
</svg>
