<svg width="367" height="206" viewBox="0 0 367 206" fill="none" xmlns="http://www.w3.org/2000/svg">
<rect width="367" height="206" fill="#E35400"/>
<path d="M65.4416 100.782V94.825H68.1786V111.5H65.4416V109.867C64.7056 111.086 63.4176 111.799 61.7616 111.799C58.8176 111.799 56.3796 109.292 56.3796 105.313C56.3796 101.357 58.8176 98.85 61.7616 98.85C63.4176 98.85 64.7056 99.563 65.4416 100.782ZM65.5566 105.313C65.5566 102.461 64.1306 101.081 62.3596 101.081C60.5196 101.081 59.2316 102.737 59.2316 105.313C59.2316 107.958 60.5196 109.568 62.3596 109.568C64.1306 109.568 65.5566 108.165 65.5566 105.313ZM78.9047 111.5V109.798C78.1917 111.086 76.9267 111.799 75.2477 111.799C72.3037 111.799 71.1077 109.867 71.1077 106.923V99.126H73.8447V106.256C73.8447 107.935 74.0747 109.568 76.1217 109.568C78.1687 109.568 78.9047 107.958 78.9047 105.727V99.126H81.6417V111.5H78.9047ZM89.9438 98.85C92.6578 98.85 95.0038 100.621 95.4868 103.358H92.8188C92.5658 102.047 91.4388 101.127 89.9438 101.127C88.2188 101.127 86.7008 102.392 86.7008 105.313C86.7008 108.257 88.2648 109.522 89.8748 109.522C91.2318 109.522 92.5428 108.924 92.9108 107.268H95.5788C95.0268 110.166 92.4738 111.799 89.8288 111.799C86.2408 111.799 83.8718 109.016 83.8718 105.336C83.8718 101.656 86.2408 98.85 89.9438 98.85ZM97.7052 94.825H100.442V104.094L105.019 99.126H108.308L103.57 104.209L108.837 111.5H105.64L101.753 106.141L100.442 107.544V111.5H97.7052V94.825ZM112.636 105.313C112.636 108.165 114.039 109.568 115.833 109.568C117.765 109.568 118.892 107.958 118.892 105.313C118.892 102.714 117.765 101.081 115.833 101.081C114.039 101.081 112.636 102.461 112.636 105.313ZM110.014 99.126H112.751V100.782C113.487 99.563 114.775 98.85 116.431 98.85C119.467 98.85 121.744 101.357 121.744 105.313C121.744 109.292 119.467 111.799 116.431 111.799C114.775 111.799 113.487 111.086 112.751 109.867V115.525H110.014V99.126ZM126.721 94.825V111.5H123.984V94.825H126.721ZM130.561 115.525H129.319V113.432H130.354C131.55 113.432 132.056 113.34 132.608 111.73L132.746 111.431L128.261 99.126H131.251L134.057 108.004L136.863 99.126H139.669L135.322 111.477C134.149 114.674 133.344 115.525 130.561 115.525ZM147.974 99.149V101.909C147.514 101.863 147.077 101.84 146.663 101.84C144.938 101.84 143.949 102.53 143.949 105.014V111.5H141.212V99.126H143.903V101.334C144.57 99.954 145.766 99.126 147.261 99.103C147.468 99.103 147.767 99.126 147.974 99.149Z" fill="#FF6900"/>
<path d="M311.31 68.8041L249.901 31L188.69 68.8041V139.601L249.991 175L311.31 139.601V68.8041Z" fill="#FF6900"/>
<path d="M263.688 92.4506C260.344 92.457 256.998 92.4181 253.656 92.4984C251.677 92.5461 250.349 91.7376 249.364 90.0556C248.91 89.2795 248.251 88.3241 247.493 88.1002C246.582 87.8312 245.434 88.1331 244.449 88.407C242.928 88.8307 241.45 89.4155 239.984 90.0053C239.819 90.0717 239.82 90.6101 239.794 90.9337C239.773 91.1825 239.833 91.4372 239.859 91.7173C238.992 91.4569 238.139 91.1848 237.274 90.9638C237.185 90.9414 236.989 91.2086 236.893 91.3709C236.739 91.631 236.638 91.9226 236.489 92.1857C236.456 92.2424 236.295 92.2809 236.222 92.2524C235.35 91.9069 234.48 91.5559 233.62 91.1819C233.502 91.1306 233.366 90.9455 233.367 90.8236C233.372 89.8022 232.519 89.8196 231.889 89.6035C230.193 89.0228 228.517 88.3393 226.775 87.9602C225.737 87.7341 224.591 88.0241 223.492 88.0458C220.396 88.1064 217.299 88.1467 214.203 88.1982C213.533 88.2092 212.826 88.1142 212.209 88.3027C211.941 88.3848 211.766 88.8511 211.61 89.2369C211.61 89.2369 211.609 89.2397 211.608 89.2415C211.608 89.2429 211.607 89.2443 211.607 89.2462C211.487 89.6446 211.333 90.1183 211.491 90.3499C211.854 90.8831 212.466 91.25 212.982 91.677C215.367 93.6521 217.76 95.6186 220.14 97.6006C220.984 98.3039 221.697 99.2463 222.65 99.7187C224.246 100.51 225.982 101.024 227.669 101.631C228.296 101.856 228.951 102.402 229.585 101.601C229.661 101.506 229.882 101.446 230.007 101.48C230.912 101.726 231.81 101.995 232.707 102.27C232.782 102.293 232.884 102.424 232.874 102.488C232.826 102.787 232.723 103.078 232.681 103.377C232.654 103.564 232.639 103.895 232.724 103.933C233.537 104.302 234.373 104.622 235.212 104.96C235.017 105.162 234.812 105.324 234.672 105.531C234.49 105.8 234.153 106.22 234.24 106.374C235.017 107.751 235.805 109.132 236.728 110.412C237.325 111.241 238.034 112.195 238.913 112.554C239.645 112.853 240.756 112.518 241.596 112.196C243.415 111.498 244.957 111.697 246.473 112.97C249.032 115.122 251.668 117.182 254.276 119.276C256.971 121.443 259.924 123.216 263.193 124.306C267.096 125.607 271.093 126.624 275.038 127.8C277.558 128.551 280.058 129.366 282.652 130.18C282.846 129.387 283.019 128.745 283.158 128.096C283.304 127.408 283.646 126.659 283.497 126.033C283.192 124.751 282.065 124.026 280.926 123.608C278.154 122.591 275.318 121.752 272.525 120.791C270.213 119.996 267.859 119.273 265.646 118.255C263.458 117.249 261.389 115.968 259.332 114.705C257.486 113.571 255.698 112.338 253.94 111.072C252.763 110.225 251.691 109.232 250.554 108.327C249.655 107.61 248.672 106.986 247.833 106.207C247.305 105.717 247.105 104.804 246.53 104.447C244.521 103.201 242.419 102.105 240.338 100.978C240.003 100.796 239.341 100.557 239.261 100.664C238.624 101.523 237.977 101.147 237.313 100.783C237.26 100.754 237.235 100.549 237.281 100.486C237.61 100.03 237.95 99.5824 238.308 99.1484C238.407 99.0286 238.47 98.8627 238.526 98.6862C238.593 98.5136 238.647 98.3444 238.644 98.1891C238.636 97.6273 238.651 97.0646 238.678 96.5032C238.682 96.4255 238.83 96.281 238.889 96.2914C239.635 96.422 240.375 96.5335 240.336 97.6022C240.331 97.7351 240.997 97.9626 241.373 98.0301C243.702 98.4499 246.028 98.9074 248.374 99.1894C249.046 99.2702 249.773 98.6828 250.492 98.6299C251.634 98.5461 252.791 98.6726 253.941 98.6753C255.394 98.6788 256.851 98.5734 258.3 98.6474C260.463 98.7582 262.63 98.912 264.779 99.18C267.175 99.4788 269.59 99.7721 271.927 100.353C274.291 100.941 276.58 101.847 278.882 102.671C281.663 103.667 284.402 104.784 287.202 105.721C288.353 106.107 289.685 106.244 290.724 105.434C291.232 105.038 291.433 104.24 291.749 103.612C292.047 103.018 292.312 102.409 292.655 101.669C290.122 100.683 287.661 99.7575 285.224 98.7694C281.409 97.2223 277.653 95.5191 273.793 94.0966C270.56 92.9051 267.146 92.4441 263.688 92.451L263.688 92.4506ZM220.081 91.4141C220.745 91.6959 221.452 91.9132 222.051 92.2969C222.189 92.3846 222.305 92.5096 222.408 92.6533C222.585 92.9004 222.464 93.2435 222.172 93.326C222.002 93.3739 221.833 93.399 221.671 93.3816C220.963 93.3064 220.276 93.0345 219.581 92.8396C219.049 92.6905 218.376 92.6805 218.026 92.3414C217.834 92.1556 217.688 91.9229 217.561 91.6713C217.446 91.4442 217.542 91.1692 217.774 91.0638C218.031 90.9474 218.29 90.8565 218.556 90.8312C219.041 90.7846 219.573 91.1979 220.081 91.4137L220.081 91.4141Z" fill="#E35400"/>
</svg>
