<svg width="367" height="206" viewBox="0 0 367 206" fill="none" xmlns="http://www.w3.org/2000/svg">
<g clip-path="url(#clip0_3234_5443)">
<rect width="367" height="206" fill="#FF6900"/>
<path d="M221 82.0842L183.44 58.9617L146 82.0842V125.387L183.495 147.038L221 125.387V82.0842Z" fill="black"/>
<path d="M191.872 96.5473C189.827 96.5512 187.78 96.5274 185.736 96.5766C184.526 96.6058 183.714 96.1112 183.111 95.0825C182.833 94.6078 182.43 94.0234 181.967 93.8864C181.41 93.7219 180.707 93.9066 180.105 94.0741C179.175 94.3332 178.271 94.6909 177.374 95.0517C177.273 95.0923 177.273 95.4216 177.257 95.6195C177.245 95.7717 177.281 95.9275 177.297 96.0988C176.767 95.9395 176.246 95.7731 175.716 95.6379C175.662 95.6242 175.542 95.7877 175.483 95.8869C175.389 96.046 175.327 96.2244 175.236 96.3853C175.216 96.42 175.117 96.4435 175.073 96.4261C174.54 96.2148 174.008 96.0001 173.481 95.7713C173.409 95.7399 173.326 95.6268 173.326 95.5522C173.33 94.9275 172.808 94.9381 172.422 94.8059C171.386 94.4507 170.36 94.0327 169.295 93.8008C168.66 93.6625 167.959 93.8399 167.287 93.8532C165.393 93.8902 163.499 93.9149 161.605 93.9464C161.195 93.9531 160.763 93.895 160.386 94.0103C160.221 94.0605 160.114 94.3457 160.019 94.5817C160.019 94.5817 160.019 94.5834 160.018 94.5845C160.018 94.5854 160.018 94.5862 160.017 94.5874C159.944 94.8311 159.85 95.1208 159.946 95.2625C160.169 95.5886 160.543 95.813 160.858 96.0742C162.317 97.2822 163.781 98.485 165.236 99.6973C165.753 100.127 166.189 100.704 166.771 100.993C167.748 101.477 168.81 101.791 169.841 102.162C170.225 102.3 170.626 102.634 171.013 102.144C171.06 102.086 171.195 102.049 171.271 102.07C171.825 102.22 172.375 102.385 172.923 102.553C172.969 102.567 173.031 102.647 173.025 102.687C172.996 102.87 172.933 103.047 172.907 103.23C172.891 103.345 172.882 103.547 172.933 103.57C173.431 103.796 173.942 103.992 174.455 104.198C174.336 104.322 174.21 104.421 174.125 104.548C174.013 104.712 173.807 104.969 173.861 105.064C174.336 105.906 174.818 106.75 175.382 107.534C175.747 108.04 176.181 108.624 176.719 108.843C177.166 109.026 177.846 108.822 178.36 108.625C179.473 108.198 180.416 108.319 181.342 109.098C182.908 110.414 184.52 111.674 186.115 112.955C187.764 114.28 189.57 115.365 191.569 116.031C193.957 116.827 196.401 117.449 198.814 118.168C200.355 118.628 201.885 119.127 203.471 119.624C203.59 119.139 203.696 118.747 203.781 118.349C203.87 117.929 204.079 117.471 203.988 117.088C203.801 116.303 203.113 115.86 202.416 115.604C200.72 114.982 198.986 114.469 197.277 113.882C195.863 113.395 194.423 112.953 193.069 112.33C191.732 111.715 190.466 110.931 189.208 110.159C188.079 109.466 186.985 108.711 185.91 107.937C185.19 107.419 184.534 106.812 183.839 106.258C183.289 105.82 182.688 105.438 182.175 104.962C181.852 104.662 181.729 104.103 181.377 103.885C180.149 103.123 178.863 102.452 177.591 101.763C177.385 101.652 176.98 101.505 176.932 101.571C176.542 102.096 176.146 101.867 175.74 101.644C175.708 101.626 175.692 101.5 175.72 101.462C175.922 101.183 176.13 100.909 176.349 100.644C176.409 100.571 176.448 100.469 176.482 100.361C176.523 100.256 176.556 100.152 176.555 100.057C176.55 99.7136 176.558 99.3695 176.575 99.0261C176.577 98.9786 176.668 98.8901 176.704 98.8965C177.16 98.9764 177.613 99.0446 177.589 99.6983C177.586 99.7796 177.993 99.9187 178.223 99.9599C179.648 100.217 181.071 100.497 182.506 100.669C182.917 100.718 183.361 100.359 183.801 100.327C184.5 100.276 185.207 100.353 185.91 100.355C186.799 100.357 187.691 100.292 188.576 100.338C189.9 100.405 191.225 100.499 192.539 100.663C194.005 100.846 195.482 101.025 196.911 101.381C198.358 101.74 199.758 102.295 201.166 102.799C202.867 103.408 204.542 104.091 206.254 104.664C206.958 104.9 207.773 104.984 208.409 104.489C208.719 104.246 208.842 103.758 209.035 103.374C209.217 103.011 209.38 102.638 209.59 102.185C208.041 101.583 206.535 101.017 205.044 100.412C202.711 99.4659 200.414 98.4242 198.053 97.5541C196.075 96.8253 193.988 96.5434 191.872 96.5476L191.872 96.5473ZM165.2 95.9134C165.606 96.0857 166.039 96.2186 166.406 96.4533C166.49 96.507 166.561 96.5834 166.623 96.6713C166.732 96.8225 166.658 97.0323 166.479 97.0827C166.375 97.1121 166.272 97.1274 166.173 97.1168C165.74 97.0708 165.319 96.9045 164.894 96.7853C164.569 96.6941 164.157 96.6879 163.943 96.4805C163.826 96.3669 163.737 96.2246 163.659 96.0706C163.589 95.9318 163.648 95.7636 163.789 95.6991C163.946 95.6279 164.105 95.5723 164.268 95.5568C164.564 95.5283 164.89 95.7811 165.2 95.9131L165.2 95.9134Z" fill="#FF6900"/>
<g filter="url(#filter0_d_3234_5443)">
<path d="M114 189V232H373V88H339C327.954 88 319 96.9543 319 108V149C319 160.046 310.046 169 299 169L134 169C122.954 169 114 177.954 114 189Z" fill="#E35400"/>
</g>
<path d="M29.798 84.9378V228H-40V-56H104C115.046 -56 124 -47.0457 124 -36V44.9378C124 55.9835 115.046 64.9378 104 64.9378H49.798C38.7523 64.9378 29.798 73.8921 29.798 84.9378Z" fill="#E35400"/>
<rect x="210" y="-44" width="196" height="95" rx="20" fill="#E35400"/>
</g>
<defs>
<filter id="filter0_d_3234_5443" x="114" y="88" width="261" height="146" filterUnits="userSpaceOnUse" color-interpolation-filters="sRGB">
<feFlood flood-opacity="0" result="BackgroundImageFix"/>
<feColorMatrix in="SourceAlpha" type="matrix" values="0 0 0 0 0 0 0 0 0 0 0 0 0 0 0 0 0 0 127 0" result="hardAlpha"/>
<feOffset dx="1" dy="1"/>
<feGaussianBlur stdDeviation="0.5"/>
<feComposite in2="hardAlpha" operator="out"/>
<feColorMatrix type="matrix" values="0 0 0 0 0 0 0 0 0 0 0 0 0 0 0 0 0 0 0.17 0"/>
<feBlend mode="normal" in2="BackgroundImageFix" result="effect1_dropShadow_3234_5443"/>
<feBlend mode="normal" in="SourceGraphic" in2="effect1_dropShadow_3234_5443" result="shape"/>
</filter>
<clipPath id="clip0_3234_5443">
<rect width="367" height="206" fill="white"/>
</clipPath>
</defs>
</svg>
