<svg width="367" height="206" viewBox="0 0 367 206" fill="none" xmlns="http://www.w3.org/2000/svg">
<g clip-path="url(#clip0_3234_5443)">
<rect width="367" height="206" fill="#00C770"/>
<path d="M221 82.0844L183.44 58.9619L146 82.0844V125.387L183.495 147.038L221 125.387V82.0844Z" fill="black"/>
<path d="M191.872 96.5475C189.827 96.5515 187.78 96.5277 185.736 96.5768C184.526 96.606 183.714 96.1115 183.111 95.0827C182.833 94.608 182.43 94.0236 181.967 93.8867C181.41 93.7221 180.707 93.9068 180.105 94.0743C179.175 94.3335 178.271 94.6912 177.374 95.0519C177.273 95.0925 177.273 95.4218 177.257 95.6198C177.245 95.7719 177.281 95.9277 177.297 96.0991C176.767 95.9398 176.246 95.7733 175.716 95.6382C175.662 95.6245 175.542 95.7879 175.483 95.8872C175.389 96.0463 175.327 96.2246 175.236 96.3855C175.216 96.4202 175.117 96.4438 175.073 96.4264C174.54 96.215 174.008 96.0003 173.481 95.7716C173.409 95.7402 173.326 95.627 173.326 95.5524C173.33 94.9277 172.808 94.9383 172.422 94.8062C171.386 94.451 170.36 94.0329 169.295 93.801C168.66 93.6627 167.959 93.8402 167.287 93.8534C165.393 93.8905 163.499 93.9151 161.605 93.9466C161.195 93.9534 160.763 93.8953 160.386 94.0105C160.221 94.0607 160.114 94.346 160.019 94.5819C160.019 94.5819 160.019 94.5836 160.018 94.5848C160.018 94.5856 160.018 94.5865 160.017 94.5876C159.944 94.8313 159.85 95.121 159.946 95.2627C160.169 95.5888 160.543 95.8132 160.858 96.0744C162.317 97.2825 163.781 98.4852 165.236 99.6975C165.753 100.128 166.189 100.704 166.771 100.993C167.748 101.477 168.81 101.792 169.841 102.162C170.225 102.3 170.626 102.635 171.013 102.145C171.06 102.086 171.195 102.05 171.271 102.07C171.825 102.22 172.375 102.385 172.923 102.554C172.969 102.568 173.031 102.647 173.025 102.687C172.996 102.87 172.933 103.048 172.907 103.231C172.891 103.345 172.882 103.548 172.933 103.571C173.431 103.796 173.942 103.992 174.455 104.199C174.336 104.322 174.21 104.421 174.125 104.548C174.013 104.712 173.807 104.97 173.861 105.064C174.336 105.906 174.818 106.751 175.382 107.534C175.747 108.041 176.181 108.624 176.719 108.843C177.166 109.026 177.846 108.822 178.36 108.625C179.473 108.198 180.416 108.319 181.342 109.098C182.908 110.414 184.52 111.674 186.115 112.955C187.764 114.281 189.57 115.365 191.569 116.032C193.957 116.827 196.401 117.449 198.814 118.169C200.355 118.628 201.885 119.127 203.471 119.624C203.59 119.14 203.696 118.747 203.781 118.35C203.87 117.929 204.079 117.471 203.988 117.088C203.801 116.304 203.113 115.86 202.416 115.605C200.72 114.982 198.986 114.469 197.277 113.882C195.863 113.396 194.423 112.953 193.069 112.331C191.732 111.715 190.466 110.932 189.208 110.159C188.079 109.466 186.985 108.711 185.91 107.937C185.19 107.419 184.534 106.812 183.839 106.258C183.289 105.82 182.688 105.438 182.175 104.962C181.852 104.662 181.729 104.104 181.377 103.885C180.149 103.123 178.863 102.453 177.591 101.763C177.385 101.652 176.98 101.506 176.932 101.571C176.542 102.097 176.146 101.867 175.74 101.644C175.708 101.626 175.692 101.501 175.72 101.462C175.922 101.184 176.13 100.91 176.349 100.644C176.409 100.571 176.448 100.469 176.482 100.362C176.523 100.256 176.556 100.152 176.555 100.057C176.55 99.7139 176.558 99.3697 176.575 99.0263C176.577 98.9788 176.668 98.8904 176.704 98.8968C177.16 98.9766 177.613 99.0448 177.589 99.6985C177.586 99.7798 177.993 99.919 178.223 99.9602C179.648 100.217 181.071 100.497 182.506 100.669C182.917 100.719 183.361 100.359 183.801 100.327C184.5 100.276 185.207 100.353 185.91 100.355C186.799 100.357 187.691 100.293 188.576 100.338C189.9 100.406 191.225 100.5 192.539 100.664C194.005 100.846 195.482 101.026 196.911 101.381C198.358 101.741 199.758 102.295 201.166 102.799C202.867 103.408 204.542 104.091 206.254 104.664C206.958 104.9 207.773 104.984 208.409 104.489C208.719 104.247 208.842 103.758 209.035 103.374C209.217 103.011 209.38 102.638 209.59 102.186C208.041 101.583 206.535 101.017 205.044 100.412C202.711 99.4661 200.414 98.4244 198.053 97.5543C196.075 96.8255 193.988 96.5436 191.872 96.5478L191.872 96.5475ZM165.2 95.9136C165.606 96.086 166.039 96.2189 166.406 96.4535C166.49 96.5072 166.561 96.5836 166.623 96.6715C166.732 96.8227 166.658 97.0325 166.479 97.083C166.375 97.1123 166.272 97.1276 166.173 97.117C165.74 97.071 165.319 96.9047 164.894 96.7855C164.569 96.6943 164.157 96.6882 163.943 96.4808C163.826 96.3671 163.737 96.2248 163.659 96.0709C163.589 95.932 163.648 95.7638 163.789 95.6994C163.946 95.6282 164.105 95.5726 164.268 95.5571C164.564 95.5286 164.89 95.7814 165.2 95.9133L165.2 95.9136Z" fill="#00C770"/>
<g filter="url(#filter0_d_3234_5443)">
<path d="M114 189V232H373V88H339C327.954 88 319 96.9543 319 108V149C319 160.046 310.046 169 299 169L134 169C122.954 169 114 177.954 114 189Z" fill="black" fill-opacity="0.05" shape-rendering="crispEdges"/>
</g>
<path d="M29.798 84.9378V228H-40V-56H104C115.046 -56 124 -47.0457 124 -36V44.9378C124 55.9835 115.046 64.9378 104 64.9378H49.798C38.7523 64.9378 29.798 73.8921 29.798 84.9378Z" fill="black" fill-opacity="0.05"/>
<rect x="210" y="-44" width="196" height="95" rx="20" fill="black" fill-opacity="0.05"/>
</g>
<defs>
<filter id="filter0_d_3234_5443" x="114" y="88" width="261" height="146" filterUnits="userSpaceOnUse" color-interpolation-filters="sRGB">
<feFlood flood-opacity="0" result="BackgroundImageFix"/>
<feColorMatrix in="SourceAlpha" type="matrix" values="0 0 0 0 0 0 0 0 0 0 0 0 0 0 0 0 0 0 127 0" result="hardAlpha"/>
<feOffset dx="1" dy="1"/>
<feGaussianBlur stdDeviation="0.5"/>
<feComposite in2="hardAlpha" operator="out"/>
<feColorMatrix type="matrix" values="0 0 0 0 0 0 0 0 0 0 0 0 0 0 0 0 0 0 0.17 0"/>
<feBlend mode="normal" in2="BackgroundImageFix" result="effect1_dropShadow_3234_5443"/>
<feBlend mode="normal" in="SourceGraphic" in2="effect1_dropShadow_3234_5443" result="shape"/>
</filter>
<clipPath id="clip0_3234_5443">
<rect width="367" height="206" fill="white"/>
</clipPath>
</defs>
</svg>
