<svg xmlns="http://www.w3.org/2000/svg" width="367" height="206" fill="none" viewBox="0 0 367 206"><g clip-path="url(#clip0_3959_16946)"><rect width="367" height="206" fill="#FFEF00"/><path fill="#FFEF00" d="M165.461 118.692H142.385V133.461H165.461V118.692Z"/><path fill="#000" d="M155.391 105.769C155.391 105.709 155.386 102.428 155.382 102.368H168.078V135.289H135.152V102.368H147.849C147.849 102.428 147.84 105.709 147.84 105.769M162.882 131.768H165.143L161.714 120.114H158.275L155.451 131.768H157.643L158.215 129.174H162.134L162.877 131.768H162.882ZM150.868 131.768H153.032L155.811 120.114H153.674L151.971 128.145H151.943L150.328 120.114H148.288L146.488 128.048H146.46L144.969 120.114H142.791L145.302 131.768H147.508L149.238 123.834H149.266L150.868 131.768ZM159.586 122.985H160.505L161.598 127.263H158.635L159.586 122.985Z"/><path fill="#000" d="M134.077 83.92C134.077 88.8123 130.015 93.1508 124.846 93.1508H106.385V102.382H101.769V70.0739H124.846C129.785 70.0739 133.939 74.1815 134.077 79.3046V83.92ZM129.462 79.3046C129.462 76.7662 127.385 74.6892 124.846 74.6892H106.385V88.5354H124.846C127.385 88.5354 129.462 86.4585 129.462 83.92V79.3046Z"/><path fill="#000" d="M153.923 92.2277V102.382H149.308V92.2277L135.461 76.9969V70.0739H140.077V75.1046L151.615 87.7969L163.154 75.1046V70.0739H167.769V76.9969L153.923 92.2277Z"/><g filter="url(#filter0_d_3959_16946)"><path fill="#000" d="M240.5 136.5C221.967 136.5 207 121.533 207 103C207 84.4668 221.967 69.5 240.5 69.5C259.033 69.5 274 84.4668 274 103C274 121.533 259.033 136.5 240.5 136.5Z"/><path fill="#FFEF00" d="M258.412 98.0304H251.84V107.948H258.412C261.137 107.948 263.401 105.684 263.401 102.959C263.401 100.214 261.137 98.0304 258.412 98.0304Z"/><path fill="#FFEF00" d="M219.641 103C219.641 110.654 225.872 116.885 233.526 116.885C241.18 116.885 247.411 110.654 247.411 103C247.411 95.3463 241.18 89.1151 233.526 89.1151C225.872 89.1151 219.641 95.3463 219.641 103Z"/></g><path fill="#EDDE00" d="M286 163.5L79.9999 163.5C68.9542 163.5 59.9999 154.546 59.9999 143.5L59.9999 55C60 43.9543 51.0457 35 40 35L-23 35L-23 206L306 206L306 183.5C306 172.454 297.046 163.5 286 163.5Z"/><path fill="#EDDE00" d="M316.002 99.5002L316.002 58.0001C316.002 46.9544 307.048 38 296.002 38L138.5 38C127.454 38 118.5 29.0457 118.5 18L118.5 -1.00029L367.002 -1.00031L367.002 119.5L336.002 119.5C324.956 119.5 316.002 110.546 316.002 99.5002Z"/><path fill="#FFEF00" d="M32 174L-75.6926 174L-115 174C-126.046 174 -135 182.954 -135 194L-135 256C-135 267.046 -126.046 276 -115 276L32 276C43.0457 276 52 267.046 52 256L52 194C52 182.954 43.0457 174 32 174Z"/><path fill="#FFEF00" d="M484 -38L391.33 -38L359 -38C347.954 -38 339 -29.0457 339 -18L339 32C339 43.0457 347.954 52 359 52L484 52C495.046 52 504 43.0457 504 32L504 -18C504 -29.0457 495.046 -38 484 -38Z"/></g><defs><filter id="filter0_d_3959_16946" width="69" height="69" x="206" y="68.5" color-interpolation-filters="sRGB" filterUnits="userSpaceOnUse"><feFlood flood-opacity="0" result="BackgroundImageFix"/><feColorMatrix in="SourceAlpha" result="hardAlpha" type="matrix" values="0 0 0 0 0 0 0 0 0 0 0 0 0 0 0 0 0 0 127 0"/><feOffset/><feGaussianBlur stdDeviation=".5"/><feComposite in2="hardAlpha" operator="out"/><feColorMatrix type="matrix" values="0 0 0 0 0 0 0 0 0 0 0 0 0 0 0 0 0 0 0.17 0"/><feBlend in2="BackgroundImageFix" mode="normal" result="effect1_dropShadow_3959_16946"/><feBlend in="SourceGraphic" in2="effect1_dropShadow_3959_16946" mode="normal" result="shape"/></filter><clipPath id="clip0_3959_16946"><rect width="367" height="206" fill="#fff"/></clipPath></defs></svg>