<svg width="367" height="206" viewBox="0 0 367 206" fill="none" xmlns="http://www.w3.org/2000/svg">
<g clip-path="url(#clip0_3558_2262)">
<rect width="367" height="206" fill="#EDDD00"/>
<path d="M46.8366 115.665V226H-23V-1H217L217 12.5C217 23.5457 208.046 32.5 197 32.5H161.091C150.045 32.5 141.091 41.4543 141.091 52.5L141.091 75.6651C141.091 86.7108 132.136 95.6651 121.091 95.6651H66.8366C55.7909 95.6651 46.8366 104.619 46.8366 115.665Z" fill="#F6E900"/>
<g filter="url(#filter0_d_3558_2262)">
<path d="M187 140V206H367V36H333C321.954 36 313 44.9543 313 56V100C313 111.046 304.046 120 293 120L207 120C195.954 120 187 128.954 187 140Z" fill="#F6E900"/>
</g>
<g filter="url(#filter1_d_3558_2262)">
<path d="M165.616 123.056C166.189 124.707 166.051 126.465 165.287 127.993C164.736 129.109 163.949 129.972 162.985 130.744C161.823 131.661 160.377 132.441 158.634 133.19C156.554 134.076 154.015 134.909 152.853 135.215C149.878 135.987 147.018 136.476 144.12 136.499C139.975 136.537 136.404 135.559 133.865 133.06C132.55 133.22 131.219 133.312 129.881 133.312C128.612 133.312 127.358 133.236 126.111 133.083C123.565 135.567 120.009 136.537 115.88 136.499C112.981 136.476 110.121 135.987 107.139 135.215C105.984 134.909 103.446 134.076 101.366 133.19C99.6221 132.441 98.1769 131.661 97.0222 130.744C96.051 129.972 95.2633 129.109 94.7128 127.993C93.9557 126.465 93.8104 124.707 94.3916 123.056C93.8563 121.795 93.7187 120.351 94.1392 118.754C94.3304 118.028 94.6439 117.355 95.0416 116.759C94.9575 116.446 94.8886 116.125 94.8428 115.773C94.5522 113.679 95.2786 111.769 96.6475 110.286C97.3204 109.545 98.0468 109.033 98.8039 108.704C98.2457 106.335 97.9551 103.897 97.9551 101.406C97.9551 83.7832 112.247 69.5 129.881 69.5C135.938 69.5 141.604 71.1813 146.437 74.1159C147.309 74.6508 148.165 75.224 148.983 75.8354C149.389 76.141 149.794 76.4544 150.184 76.783C150.582 77.1039 150.972 77.4402 151.346 77.7841C152.478 78.8158 153.541 79.9239 154.512 81.1084C154.841 81.4982 155.155 81.9032 155.46 82.3159C156.08 83.1336 156.653 83.9819 157.181 84.8607C157.984 86.1752 158.687 87.5507 159.299 88.9798C159.704 89.9352 160.056 90.9133 160.37 91.9145C160.836 93.4124 161.196 94.9561 161.44 96.5457C161.517 97.073 161.586 97.6078 161.639 98.1428C161.746 99.2128 161.807 100.298 161.807 101.406C161.807 103.867 161.517 106.282 160.974 108.613C161.815 108.941 162.61 109.476 163.352 110.286C164.721 111.769 165.447 113.687 165.157 115.781C165.111 116.125 165.042 116.446 164.958 116.759C165.356 117.355 165.669 118.028 165.86 118.754C166.281 120.351 166.143 121.795 165.616 123.056Z" fill="#FFEF00"/>
<path d="M156.624 101.395C156.624 86.7904 144.704 74.9509 130 74.9509C115.296 74.9509 103.376 86.7904 103.376 101.395C103.376 116 115.296 127.839 130 127.839C144.704 127.839 156.624 116 156.624 101.395ZM100.311 101.395C100.311 85.1092 113.604 71.907 130 71.907C146.397 71.907 159.689 85.1092 159.689 101.395C159.689 117.681 146.397 130.883 130 130.883C113.604 130.883 100.311 117.681 100.311 101.395Z" fill="black"/>
<path d="M130 128.075C144.846 128.075 156.88 116.22 156.88 101.596C156.88 86.9721 144.846 75.1169 130 75.1169C115.154 75.1169 103.12 86.9721 103.12 101.596C103.12 116.22 115.154 128.075 130 128.075Z" fill="#FFEF00"/>
<path d="M122.953 127.787C125.061 124.752 124.911 122.474 122.02 119.636C119.128 116.798 117.445 112.647 117.445 112.647C117.445 112.647 116.817 110.235 115.385 110.457C113.953 110.679 112.901 114.282 115.901 116.487C118.9 118.69 115.303 120.188 114.149 118.118C112.995 116.048 109.844 110.727 108.21 109.71C106.577 108.692 105.427 109.262 105.812 111.36C106.197 113.457 113.028 118.541 112.364 119.642C111.699 120.741 109.357 118.349 109.357 118.349C109.357 118.349 102.027 111.798 100.431 113.505C98.835 115.212 101.641 116.642 105.641 119.02C109.641 121.398 109.951 122.026 109.384 122.925C108.816 123.825 99.9867 116.514 99.1574 119.613C98.3288 122.712 108.168 123.612 107.561 125.752C106.954 127.892 100.63 121.702 99.3365 124.114C98.0424 126.526 108.26 129.361 108.343 129.382C111.643 130.223 120.025 132.004 122.953 127.787Z" fill="#FFEF00"/>
<path d="M107.036 106.41C105.8 106.41 104.695 106.91 103.925 107.817C103.448 108.379 102.95 109.285 102.91 110.641C102.392 110.494 101.893 110.412 101.427 110.412C100.244 110.412 99.1748 110.859 98.4189 111.67C97.4476 112.712 97.0162 113.992 97.2041 115.273C97.2934 115.883 97.5003 116.43 97.8096 116.936C97.1575 117.456 96.6772 118.179 96.4451 119.049C96.2634 119.732 96.0771 121.152 97.0498 122.616C96.988 122.712 96.93 122.811 96.8757 122.912C96.2909 124.006 96.2535 125.242 96.7696 126.392C97.5522 128.136 99.497 129.511 103.273 130.986C105.623 131.903 107.772 132.49 107.791 132.495C110.897 133.288 113.706 133.692 116.138 133.692C120.608 133.692 123.808 132.343 125.65 129.684C128.614 125.401 128.19 121.484 124.355 117.708C122.232 115.619 120.821 112.538 120.527 111.862C119.935 109.86 118.368 107.635 115.763 107.635H115.763C115.543 107.635 115.322 107.652 115.104 107.686C113.963 107.862 112.966 108.509 112.253 109.483C111.485 108.541 110.738 107.792 110.062 107.369C109.043 106.733 108.026 106.41 107.036 106.41ZM107.036 109.419C107.426 109.419 107.901 109.582 108.426 109.91C110.054 110.927 113.197 116.249 114.348 118.318C114.733 119.012 115.392 119.305 115.986 119.305C117.163 119.305 118.082 118.152 116.093 116.687C113.103 114.483 114.152 110.879 115.579 110.657C115.642 110.648 115.704 110.643 115.763 110.643C117.061 110.643 117.634 112.847 117.634 112.847C117.634 112.847 119.312 116.998 122.196 119.836C125.079 122.675 125.227 124.953 123.126 127.988C121.693 130.058 118.95 130.328 116.138 130.328C113.222 130.328 110.228 129.822 108.553 129.394C108.47 129.373 98.2875 126.727 99.5779 124.314C99.7948 123.909 100.152 123.746 100.602 123.746C102.419 123.746 105.724 126.41 107.145 126.41C107.463 126.41 107.7 126.168 107.791 125.843C108.424 123.601 98.5723 122.913 99.3992 119.814C99.5451 119.265 99.9406 119.043 100.496 119.043C102.898 119.043 108.285 123.203 109.415 123.203C109.501 123.203 109.563 123.179 109.596 123.126C110.162 122.226 109.901 121.494 105.914 119.117C101.926 116.738 99.077 115.412 100.669 113.705C100.852 113.508 101.112 113.421 101.427 113.421C103.848 113.421 109.569 118.549 109.569 118.549C109.569 118.549 111.113 120.131 112.047 120.131C112.261 120.131 112.444 120.047 112.567 119.841C113.229 118.742 106.418 113.658 106.034 111.56C105.774 110.138 106.217 109.419 107.036 109.419Z" fill="black"/>
<path d="M136.645 127.787C134.538 124.752 134.687 122.474 137.579 119.636C140.47 116.798 142.154 112.647 142.154 112.647C142.154 112.647 142.782 110.235 144.214 110.457C145.646 110.679 146.698 114.282 143.698 116.487C140.699 118.69 144.295 120.188 145.449 118.118C146.603 116.048 149.754 110.727 151.389 109.71C153.022 108.692 154.172 109.262 153.787 111.36C153.402 113.457 146.57 118.541 147.235 119.642C147.9 120.741 150.242 118.349 150.242 118.349C150.242 118.349 157.572 111.798 159.168 113.505C160.764 115.212 157.957 116.642 153.958 119.02C149.957 121.398 149.647 122.026 150.215 122.925C150.783 123.825 159.612 116.514 160.441 119.613C161.27 122.712 151.431 123.612 152.038 125.752C152.645 127.892 158.969 121.702 160.262 124.114C161.556 126.526 151.339 129.361 151.256 129.382C147.956 130.223 139.574 132.004 136.645 127.787Z" fill="#FFEF00"/>
<path d="M152.964 106.41C154.2 106.41 155.305 106.91 156.075 107.817C156.552 108.379 157.05 109.285 157.09 110.641C157.608 110.494 158.107 110.412 158.573 110.412C159.756 110.412 160.825 110.859 161.581 111.67C162.552 112.712 162.984 113.992 162.796 115.273C162.707 115.883 162.5 116.43 162.19 116.936C162.842 117.456 163.323 118.179 163.555 119.049C163.737 119.732 163.923 121.152 162.95 122.616C163.012 122.712 163.07 122.811 163.124 122.912C163.709 124.006 163.746 125.242 163.23 126.392C162.448 128.136 160.503 129.511 156.727 130.986C154.377 131.903 152.228 132.49 152.209 132.495C149.103 133.288 146.293 133.692 143.862 133.692C139.392 133.692 136.192 132.343 134.35 129.684C131.386 125.401 131.81 121.484 135.645 117.708C137.768 115.619 139.179 112.538 139.473 111.862C140.065 109.86 141.632 107.635 144.237 107.635H144.237C144.456 107.635 144.678 107.652 144.896 107.686C146.037 107.862 147.034 108.509 147.747 109.483C148.515 108.541 149.262 107.792 149.938 107.369C150.956 106.733 151.974 106.41 152.964 106.41ZM152.964 109.419C152.574 109.419 152.099 109.582 151.574 109.91C149.945 110.927 146.803 116.249 145.652 118.318C145.267 119.012 144.608 119.305 144.014 119.305C142.837 119.305 141.918 118.152 143.907 116.687C146.898 114.483 145.848 110.879 144.421 110.657C144.358 110.648 144.296 110.643 144.237 110.643C142.938 110.643 142.366 112.847 142.366 112.847C142.366 112.847 140.688 116.998 137.804 119.836C134.921 122.675 134.772 124.953 136.874 127.988C138.307 130.058 141.05 130.328 143.862 130.328C146.778 130.328 149.772 129.822 151.447 129.394C151.53 129.373 161.712 126.727 160.422 124.314C160.205 123.909 159.848 123.746 159.398 123.746C157.581 123.746 154.276 126.41 152.855 126.41C152.537 126.41 152.3 126.168 152.209 125.843C151.576 123.601 161.428 122.913 160.601 119.814C160.455 119.265 160.059 119.043 159.504 119.043C157.102 119.043 151.715 123.203 150.585 123.203C150.499 123.203 150.437 123.179 150.404 123.126C149.838 122.226 150.098 121.494 154.086 119.117C158.074 116.738 160.923 115.412 159.331 113.705C159.148 113.508 158.888 113.421 158.573 113.421C156.152 113.421 150.431 118.549 150.431 118.549C150.431 118.549 148.887 120.131 147.953 120.131C147.739 120.131 147.556 120.047 147.433 119.841C146.771 118.742 153.582 113.658 153.966 111.56C154.226 110.138 153.783 109.419 152.964 109.419Z" fill="black"/>
<path d="M140.03 102.742C140.03 99.369 135.635 104.51 130.2 104.533C124.767 104.511 120.371 99.3693 120.371 102.742C120.371 104.979 121.446 108.616 124.334 110.823C124.908 108.856 128.065 107.279 128.516 107.506C129.159 107.828 129.123 108.721 130.2 109.508C131.278 108.721 131.242 107.828 131.885 107.506C132.336 107.279 135.493 108.856 136.067 110.823C138.955 108.616 140.03 104.979 140.03 102.743L140.03 102.742Z" fill="#0E1116"/>
<path d="M131.727 107.236C131.068 107.583 131.105 108.543 130 109.39C128.894 108.543 128.931 107.583 128.272 107.236C127.809 106.993 124.571 108.688 123.982 110.804C125.479 112.004 127.452 112.81 129.998 112.83C129.998 112.83 129.999 112.83 130 112.83C130.001 112.83 130.001 112.83 130.002 112.83C132.548 112.81 134.521 112.004 136.018 110.804C135.429 108.688 132.191 106.993 131.728 107.236H131.727Z" fill="#FF6900"/>
<path d="M147.653 97.9853C148.982 97.9853 150.06 96.8178 150.06 95.3776C150.06 93.9373 148.982 92.7698 147.653 92.7698C146.323 92.7698 145.245 93.9373 145.245 95.3776C145.245 96.8178 146.323 97.9853 147.653 97.9853Z" fill="black"/>
<path d="M112.347 97.9853C113.677 97.9853 114.754 96.8178 114.754 95.3776C114.754 93.9373 113.677 92.7698 112.347 92.7698C111.018 92.7698 109.94 93.9373 109.94 95.3776C109.94 96.8178 111.018 97.9853 112.347 97.9853Z" fill="black"/>
<path d="M139.279 94.3814C140.251 94.7414 140.637 96.8371 141.618 96.2896C143.476 95.2526 144.182 92.8307 143.194 90.8803C142.206 88.9299 139.899 88.1895 138.04 89.2265C136.182 90.2636 135.477 92.6853 136.465 94.6357C136.931 95.5564 138.411 94.0596 139.279 94.3814Z" fill="#0E1116"/>
<path d="M121.122 94.3814C120.15 94.7414 119.764 96.8371 118.783 96.2896C116.925 95.2526 116.219 92.8307 117.207 90.8803C118.195 88.9299 120.503 88.1895 122.361 89.2265C124.219 90.2636 124.924 92.6853 123.936 94.6357C123.47 95.5564 121.99 94.0596 121.122 94.3814Z" fill="#0E1116"/>
</g>
<g filter="url(#filter2_d_3558_2262)">
<path d="M239.608 136.5C221.075 136.5 206.108 121.533 206.108 103C206.108 84.4668 221.075 69.5 239.608 69.5C258.141 69.5 273.108 84.4668 273.108 103C273.108 121.533 258.141 136.5 239.608 136.5Z" fill="black"/>
<path d="M257.52 98.0305H250.948V107.948H257.52C260.245 107.948 262.509 105.684 262.509 102.959C262.509 100.214 260.245 98.0305 257.52 98.0305Z" fill="#FFEF00"/>
<path d="M218.749 103C218.749 110.654 224.98 116.885 232.634 116.885C240.288 116.885 246.519 110.654 246.519 103C246.519 95.3464 240.288 89.1152 232.634 89.1152C224.98 89.1152 218.749 95.3464 218.749 103Z" fill="#FFEF00"/>
</g>
<g filter="url(#filter3_d_3558_2262)">
<path d="M185 82L182.1 79.4104C171.8 70.2485 165 64.1864 165 56.7902C165 50.7281 169.84 46 176 46C179.48 46 182.82 47.5891 185 50.0807C187.18 47.5891 190.52 46 194 46C200.16 46 205 50.7281 205 56.7902C205 64.1864 198.2 70.2485 187.9 79.4104L185 82Z" fill="#FF6900"/>
</g>
<path d="M50 50H-57.6926H-97C-108.046 50 -117 41.0457 -117 30V-32C-117 -43.0457 -108.046 -52 -97 -52H50C61.0457 -52 70 -43.0457 70 -32V30C70 41.0457 61.0457 50 50 50Z" fill="#EDDD00"/>
</g>
<defs>
<filter id="filter0_d_3558_2262" x="187" y="36" width="182" height="172" filterUnits="userSpaceOnUse" color-interpolation-filters="sRGB">
<feFlood flood-opacity="0" result="BackgroundImageFix"/>
<feColorMatrix in="SourceAlpha" type="matrix" values="0 0 0 0 0 0 0 0 0 0 0 0 0 0 0 0 0 0 127 0" result="hardAlpha"/>
<feOffset dx="1" dy="1"/>
<feGaussianBlur stdDeviation="0.5"/>
<feComposite in2="hardAlpha" operator="out"/>
<feColorMatrix type="matrix" values="0 0 0 0 0 0 0 0 0 0 0 0 0 0 0 0 0 0 0.17 0"/>
<feBlend mode="normal" in2="BackgroundImageFix" result="effect1_dropShadow_3558_2262"/>
<feBlend mode="normal" in="SourceGraphic" in2="effect1_dropShadow_3558_2262" result="shape"/>
</filter>
<filter id="filter1_d_3558_2262" x="92.8922" y="68.5" width="74.2156" height="69" filterUnits="userSpaceOnUse" color-interpolation-filters="sRGB">
<feFlood flood-opacity="0" result="BackgroundImageFix"/>
<feColorMatrix in="SourceAlpha" type="matrix" values="0 0 0 0 0 0 0 0 0 0 0 0 0 0 0 0 0 0 127 0" result="hardAlpha"/>
<feOffset/>
<feGaussianBlur stdDeviation="0.5"/>
<feComposite in2="hardAlpha" operator="out"/>
<feColorMatrix type="matrix" values="0 0 0 0 0 0 0 0 0 0 0 0 0 0 0 0 0 0 0.17 0"/>
<feBlend mode="normal" in2="BackgroundImageFix" result="effect1_dropShadow_3558_2262"/>
<feBlend mode="normal" in="SourceGraphic" in2="effect1_dropShadow_3558_2262" result="shape"/>
</filter>
<filter id="filter2_d_3558_2262" x="205.108" y="68.5" width="69" height="69" filterUnits="userSpaceOnUse" color-interpolation-filters="sRGB">
<feFlood flood-opacity="0" result="BackgroundImageFix"/>
<feColorMatrix in="SourceAlpha" type="matrix" values="0 0 0 0 0 0 0 0 0 0 0 0 0 0 0 0 0 0 127 0" result="hardAlpha"/>
<feOffset/>
<feGaussianBlur stdDeviation="0.5"/>
<feComposite in2="hardAlpha" operator="out"/>
<feColorMatrix type="matrix" values="0 0 0 0 0 0 0 0 0 0 0 0 0 0 0 0 0 0 0.17 0"/>
<feBlend mode="normal" in2="BackgroundImageFix" result="effect1_dropShadow_3558_2262"/>
<feBlend mode="normal" in="SourceGraphic" in2="effect1_dropShadow_3558_2262" result="shape"/>
</filter>
<filter id="filter3_d_3558_2262" x="164" y="45" width="42" height="38" filterUnits="userSpaceOnUse" color-interpolation-filters="sRGB">
<feFlood flood-opacity="0" result="BackgroundImageFix"/>
<feColorMatrix in="SourceAlpha" type="matrix" values="0 0 0 0 0 0 0 0 0 0 0 0 0 0 0 0 0 0 127 0" result="hardAlpha"/>
<feOffset/>
<feGaussianBlur stdDeviation="0.5"/>
<feComposite in2="hardAlpha" operator="out"/>
<feColorMatrix type="matrix" values="0 0 0 0 0 0 0 0 0 0 0 0 0 0 0 0 0 0 0.17 0"/>
<feBlend mode="normal" in2="BackgroundImageFix" result="effect1_dropShadow_3558_2262"/>
<feBlend mode="normal" in="SourceGraphic" in2="effect1_dropShadow_3558_2262" result="shape"/>
</filter>
<clipPath id="clip0_3558_2262">
<rect width="367" height="206" fill="white"/>
</clipPath>
</defs>
</svg>
