<svg width="367" height="206" viewBox="0 0 367 206" fill="none" xmlns="http://www.w3.org/2000/svg">
<g clip-path="url(#clip0_3660_2444)">
<rect width="367" height="206" fill="#2EAFFF"/>
<g filter="url(#filter0_d_3660_2444)">
<path d="M59.5 158V254.5H380V103H346C334.954 103 326 111.954 326 123V158C326 169.046 317.046 178 306 178L156 178C144.954 178 136 169.046 136 158C136 146.954 127.046 138 116 138H79.5C68.4543 138 59.5 146.954 59.5 158Z" fill="#1095E7"/>
</g>
<path d="M29.798 84.9378V228H-40V-56H104C115.046 -56 124 -47.0457 124 -36V44.9378C124 55.9835 115.046 64.9378 104 64.9378H49.798C38.7523 64.9378 29.798 73.8921 29.798 84.9378Z" fill="#1095E7"/>
<circle cx="183.5" cy="103" r="35.5" fill="black"/>
<path d="M200 116.109C200 116.877 199.358 117.5 198.565 117.5H168.435C167.642 117.5 167 116.877 167 116.109V86.8913C167 86.123 167.642 85.5 168.435 85.5C169.228 85.5 169.87 86.123 169.87 86.8913V108.576L180.333 98.4293C180.894 97.8858 181.802 97.8858 182.362 98.4293L185.582 101.551L193.788 92.4564H191.391C190.598 92.4564 189.956 91.8334 189.956 91.0651C189.956 90.2968 190.598 89.6738 191.391 89.6738H196.926C197.549 89.6738 198.103 90.065 198.292 90.6418L199.931 95.6167C200.173 96.3484 199.756 97.1317 199.002 97.3653C198.856 97.4101 198.709 97.432 198.565 97.432C197.957 97.432 197.394 97.0549 197.199 96.4632L196.339 93.8566L186.732 104.503C186.47 104.793 186.096 104.964 185.7 104.977C185.291 104.98 184.916 104.842 184.638 104.57L181.348 101.38L169.87 112.511V114.717H198.565C199.358 114.717 200 115.34 200 116.109Z" fill="#2EAFFF"/>
<g filter="url(#filter1_d_3660_2444)">
<path d="M266 20.5V-12H493V101.5H409C397.954 101.5 389 92.5457 389 81.5V60.5C389 49.4543 380.046 40.5 369 40.5H286C274.954 40.5 266 31.5457 266 20.5Z" fill="#1095E7"/>
</g>
</g>
<defs>
<filter id="filter0_d_3660_2444" x="59.5" y="103" width="322.5" height="153.5" filterUnits="userSpaceOnUse" color-interpolation-filters="sRGB">
<feFlood flood-opacity="0" result="BackgroundImageFix"/>
<feColorMatrix in="SourceAlpha" type="matrix" values="0 0 0 0 0 0 0 0 0 0 0 0 0 0 0 0 0 0 127 0" result="hardAlpha"/>
<feOffset dx="1" dy="1"/>
<feGaussianBlur stdDeviation="0.5"/>
<feComposite in2="hardAlpha" operator="out"/>
<feColorMatrix type="matrix" values="0 0 0 0 0 0 0 0 0 0 0 0 0 0 0 0 0 0 0.17 0"/>
<feBlend mode="normal" in2="BackgroundImageFix" result="effect1_dropShadow_3660_2444"/>
<feBlend mode="normal" in="SourceGraphic" in2="effect1_dropShadow_3660_2444" result="shape"/>
</filter>
<filter id="filter1_d_3660_2444" x="266" y="-12" width="229" height="115.5" filterUnits="userSpaceOnUse" color-interpolation-filters="sRGB">
<feFlood flood-opacity="0" result="BackgroundImageFix"/>
<feColorMatrix in="SourceAlpha" type="matrix" values="0 0 0 0 0 0 0 0 0 0 0 0 0 0 0 0 0 0 127 0" result="hardAlpha"/>
<feOffset dx="1" dy="1"/>
<feGaussianBlur stdDeviation="0.5"/>
<feComposite in2="hardAlpha" operator="out"/>
<feColorMatrix type="matrix" values="0 0 0 0 0 0 0 0 0 0 0 0 0 0 0 0 0 0 0.17 0"/>
<feBlend mode="normal" in2="BackgroundImageFix" result="effect1_dropShadow_3660_2444"/>
<feBlend mode="normal" in="SourceGraphic" in2="effect1_dropShadow_3660_2444" result="shape"/>
</filter>
<clipPath id="clip0_3660_2444">
<rect width="367" height="206" fill="white"/>
</clipPath>
</defs>
</svg>
