<svg xmlns="http://www.w3.org/2000/svg" width="560" height="240" fill="none" viewBox="0 0 560 240"><g clip-path="url(#clip0_4723_13103)"><rect width="560" height="240" fill="#FFF100"/><g clip-path="url(#clip1_4723_13103)"><rect width="560" height="240" fill="#FFF100"/><path fill="#EDDE00" d="M224 49.847L224 -0.999985C224 -12.0457 215.046 -21 204 -21L-26 -21C-37.0457 -21 -46 -12.0457 -46 -1.00001L-46 175C-46 186.046 -37.0457 195 -26 195L52.5714 195C63.6171 195 72.5714 186.046 72.5714 175L72.5714 89.8471C72.5714 78.8014 81.5257 69.8471 92.5714 69.8471L204 69.8471C215.046 69.8471 224 60.8927 224 49.847Z"/><path fill="#EDDE00" d="M472.584 123.352L505.5 123.352C516.546 123.352 525.5 114.397 525.5 103.352L525.5 66.9999C525.5 55.9542 516.546 46.9999 505.5 46.9999L454.5 46.9999C443.454 46.9999 434.5 38.0456 434.5 26.9999L434.5 -34.0001C434.5 -45.0458 443.454 -54.0001 454.5 -54.0001L583 -54.0001C594.046 -54.0001 603 -45.0457 603 -34.0001L603 241.5C603 252.546 594.046 261.5 583 261.5L335 261.5C323.954 261.5 315 252.546 315 241.5L315 206.5C315 195.454 323.954 186.5 335 186.5L432.584 186.5C443.629 186.5 452.584 177.546 452.584 166.5L452.584 143.352C452.584 132.306 461.538 123.352 472.584 123.352Z"/></g><g filter="url(#filter0_d_4723_13103)"><rect width="67" height="67" x="200.5" y="86.5" fill="#000" rx="20" shape-rendering="crispEdges"/><path fill="#FFF100" d="M234 99C225 99 216 100.105 216 107.842V128.842C216 133.108 219.533 136.579 223.875 136.579L220.5 139.895V141H225L229.5 136.579H238.5L243 141H247.5V139.895L244.125 136.579C248.467 136.579 252 133.108 252 128.842V107.842C252 100.105 243 99 234 99ZM223.875 132.158C222.008 132.158 220.5 130.677 220.5 128.842C220.5 127.007 222.008 125.526 223.875 125.526C225.743 125.526 227.25 127.007 227.25 128.842C227.25 130.677 225.743 132.158 223.875 132.158ZM231.75 116.684H220.5V107.842H231.75V116.684ZM244.125 132.158C242.257 132.158 240.75 130.677 240.75 128.842C240.75 127.007 242.257 125.526 244.125 125.526C245.993 125.526 247.5 127.007 247.5 128.842C247.5 130.677 245.993 132.158 244.125 132.158ZM247.5 116.684H236.25V107.842H247.5V116.684Z"/></g><g filter="url(#filter1_d_4723_13103)"><path fill="#000" d="M326 153.5C307.467 153.5 292.5 138.533 292.5 120C292.5 101.467 307.467 86.5 326 86.5C344.533 86.5 359.5 101.467 359.5 120C359.5 138.533 344.533 153.5 326 153.5Z"/><path fill="#FFEF00" d="M343.912 115.03H337.34V124.948H343.912C346.637 124.948 348.901 122.684 348.901 119.959C348.901 117.214 346.637 115.03 343.912 115.03Z"/><path fill="#FFEF00" d="M305.141 120C305.141 127.654 311.372 133.885 319.026 133.885C326.68 133.885 332.911 127.654 332.911 120C332.911 112.346 326.68 106.115 319.026 106.115C311.372 106.115 305.141 112.346 305.141 120Z"/></g></g><defs><filter id="filter0_d_4723_13103" width="69" height="69" x="199.5" y="85.5" color-interpolation-filters="sRGB" filterUnits="userSpaceOnUse"><feFlood flood-opacity="0" result="BackgroundImageFix"/><feColorMatrix in="SourceAlpha" result="hardAlpha" type="matrix" values="0 0 0 0 0 0 0 0 0 0 0 0 0 0 0 0 0 0 127 0"/><feOffset/><feGaussianBlur stdDeviation=".5"/><feComposite in2="hardAlpha" operator="out"/><feColorMatrix type="matrix" values="0 0 0 0 0 0 0 0 0 0 0 0 0 0 0 0 0 0 0.17 0"/><feBlend in2="BackgroundImageFix" mode="normal" result="effect1_dropShadow_4723_13103"/><feBlend in="SourceGraphic" in2="effect1_dropShadow_4723_13103" mode="normal" result="shape"/></filter><filter id="filter1_d_4723_13103" width="69" height="69" x="291.5" y="85.5" color-interpolation-filters="sRGB" filterUnits="userSpaceOnUse"><feFlood flood-opacity="0" result="BackgroundImageFix"/><feColorMatrix in="SourceAlpha" result="hardAlpha" type="matrix" values="0 0 0 0 0 0 0 0 0 0 0 0 0 0 0 0 0 0 127 0"/><feOffset/><feGaussianBlur stdDeviation=".5"/><feComposite in2="hardAlpha" operator="out"/><feColorMatrix type="matrix" values="0 0 0 0 0 0 0 0 0 0 0 0 0 0 0 0 0 0 0.17 0"/><feBlend in2="BackgroundImageFix" mode="normal" result="effect1_dropShadow_4723_13103"/><feBlend in="SourceGraphic" in2="effect1_dropShadow_4723_13103" mode="normal" result="shape"/></filter><clipPath id="clip0_4723_13103"><rect width="560" height="240" fill="#fff"/></clipPath><clipPath id="clip1_4723_13103"><rect width="560" height="240" fill="#fff"/></clipPath></defs></svg>