<svg width="560" height="240" viewBox="0 0 560 240" fill="none" xmlns="http://www.w3.org/2000/svg">
<g clip-path="url(#clip0_4723_13079)">
<rect width="560" height="240" fill="#FFF100"/>
<g clip-path="url(#clip1_4723_13079)">
<rect width="560" height="240" fill="#FFF100"/>
<path d="M224 49.847L224 -0.999985C224 -12.0457 215.046 -21 204 -21L-26 -21C-37.0457 -21 -46 -12.0457 -46 -1.00001L-46 175C-46 186.046 -37.0457 195 -26 195L52.5714 195C63.6171 195 72.5714 186.046 72.5714 175L72.5714 89.8471C72.5714 78.8014 81.5257 69.8471 92.5714 69.8471L204 69.8471C215.046 69.8471 224 60.8927 224 49.847Z" fill="#EDDE00"/>
<path d="M501.983 104.352L501.983 -32.9999C501.983 -44.0456 510.937 -52.9999 521.983 -52.9999L546 -52.9999C557.046 -52.9999 566 -44.0456 566 -32.9999L566 257C566 268.046 557.046 277 546 277L366 277C354.954 277 346 268.046 346 257L346 207.5C346 196.454 354.954 187.5 366 187.5L395.584 187.5C406.629 187.5 415.584 178.546 415.584 167.5L415.584 144.352C415.584 133.306 424.538 124.352 435.584 124.352L481.983 124.352C493.029 124.352 501.983 115.398 501.983 104.352Z" fill="#EDDE00"/>
</g>
<g filter="url(#filter0_d_4723_13079)">
<path d="M269.615 140.056C270.189 141.707 270.051 143.465 269.287 144.993C268.736 146.109 267.948 146.972 266.985 147.744C265.823 148.661 264.377 149.441 262.634 150.19C260.554 151.076 258.015 151.909 256.853 152.215C253.878 152.987 251.018 153.476 248.12 153.499C243.975 153.537 240.404 152.559 237.865 150.06C236.55 150.22 235.219 150.312 233.881 150.312C232.612 150.312 231.358 150.236 230.111 150.083C227.565 152.567 224.009 153.537 219.879 153.499C216.981 153.476 214.121 152.987 211.139 152.215C209.984 151.909 207.445 151.076 205.366 150.19C203.622 149.441 202.177 148.661 201.022 147.744C200.051 146.972 199.263 146.109 198.713 144.993C197.956 143.465 197.81 141.707 198.391 140.056C197.856 138.795 197.719 137.351 198.139 135.754C198.33 135.028 198.644 134.355 199.041 133.759C198.957 133.446 198.889 133.125 198.843 132.773C198.552 130.679 199.279 128.769 200.647 127.286C201.32 126.545 202.047 126.033 202.804 125.704C202.246 123.335 201.955 120.897 201.955 118.406C201.955 100.783 216.247 86.5 233.881 86.5C239.938 86.5 245.604 88.1813 250.437 91.1159C251.309 91.6508 252.165 92.224 252.983 92.8354C253.389 93.141 253.794 93.4544 254.184 93.783C254.581 94.104 254.971 94.4402 255.346 94.7841C256.478 95.8158 257.541 96.9239 258.512 98.1084C258.841 98.4982 259.154 98.9032 259.46 99.3159C260.08 100.134 260.653 100.982 261.181 101.861C261.984 103.175 262.687 104.551 263.299 105.98C263.704 106.935 264.056 107.913 264.37 108.914C264.836 110.412 265.196 111.956 265.44 113.546C265.517 114.073 265.586 114.608 265.639 115.143C265.746 116.213 265.807 117.298 265.807 118.406C265.807 120.867 265.517 123.282 264.974 125.613C265.815 125.941 266.61 126.476 267.352 127.286C268.721 128.769 269.447 130.687 269.157 132.781C269.111 133.125 269.042 133.446 268.958 133.759C269.355 134.355 269.669 135.028 269.86 135.754C270.281 137.351 270.143 138.795 269.615 140.056Z" fill="#FFEF00"/>
<path d="M260.624 118.395C260.624 103.79 248.704 91.951 234 91.951C219.296 91.951 207.376 103.79 207.376 118.395C207.376 133 219.296 144.839 234 144.839C248.704 144.839 260.624 133 260.624 118.395ZM204.311 118.395C204.311 102.109 217.603 88.907 234 88.907C250.396 88.907 263.688 102.109 263.688 118.395C263.688 134.681 250.396 147.883 234 147.883C217.603 147.883 204.311 134.681 204.311 118.395Z" fill="black"/>
<path d="M234 145.075C248.845 145.075 260.88 133.22 260.88 118.596C260.88 103.972 248.845 92.1168 234 92.1168C219.154 92.1168 207.12 103.972 207.12 118.596C207.12 133.22 219.154 145.075 234 145.075Z" fill="#FFEF00"/>
<path d="M226.953 144.787C229.061 141.752 228.911 139.474 226.02 136.636C223.128 133.798 221.445 129.647 221.445 129.647C221.445 129.647 220.817 127.235 219.385 127.457C217.953 127.679 216.901 131.282 219.901 133.487C222.9 135.69 219.303 137.188 218.149 135.118C216.995 133.048 213.844 127.727 212.21 126.71C210.577 125.692 209.427 126.262 209.812 128.36C210.197 130.457 217.028 135.541 216.364 136.642C215.699 137.741 213.357 135.349 213.357 135.349C213.357 135.349 206.027 128.797 204.431 130.505C202.835 132.212 205.642 133.642 209.641 136.02C213.642 138.398 213.952 139.026 213.384 139.925C212.816 140.825 203.987 133.514 203.157 136.613C202.329 139.712 212.168 140.612 211.561 142.751C210.954 144.892 204.63 138.702 203.337 141.113C202.043 143.526 212.26 146.361 212.343 146.382C215.643 147.223 224.025 149.004 226.953 144.787Z" fill="#FFEF00"/>
<path d="M211.036 123.41C209.8 123.41 208.695 123.91 207.925 124.817C207.448 125.379 206.95 126.285 206.91 127.641C206.392 127.494 205.893 127.412 205.427 127.412C204.244 127.412 203.175 127.859 202.419 128.67C201.448 129.712 201.016 130.992 201.204 132.273C201.293 132.883 201.5 133.43 201.81 133.936C201.157 134.456 200.677 135.179 200.445 136.049C200.263 136.732 200.077 138.152 201.05 139.616C200.988 139.711 200.93 139.811 200.876 139.912C200.291 141.006 200.253 142.241 200.77 143.392C201.552 145.136 203.497 146.51 207.273 147.985C209.623 148.903 211.772 149.49 211.791 149.495C214.897 150.288 217.706 150.692 220.138 150.692C224.608 150.692 227.808 149.343 229.65 146.684C232.614 142.401 232.19 138.484 228.355 134.708C226.232 132.619 224.821 129.538 224.527 128.862C223.935 126.86 222.368 124.635 219.763 124.635H219.763C219.543 124.635 219.322 124.652 219.104 124.686C217.963 124.862 216.966 125.509 216.253 126.482C215.485 125.541 214.738 124.792 214.062 124.369C213.043 123.733 212.026 123.41 211.036 123.41ZM211.036 126.419C211.426 126.419 211.901 126.582 212.426 126.91C214.054 127.927 217.197 133.249 218.348 135.318C218.733 136.012 219.392 136.305 219.986 136.305C221.163 136.305 222.082 135.152 220.093 133.687C217.103 131.482 218.152 127.879 219.579 127.657C219.642 127.647 219.704 127.643 219.763 127.643C221.061 127.643 221.634 129.847 221.634 129.847C221.634 129.847 223.312 133.998 226.196 136.836C229.079 139.674 229.227 141.953 227.126 144.988C225.693 147.058 222.95 147.328 220.138 147.328C217.222 147.328 214.228 146.822 212.553 146.394C212.47 146.373 202.288 143.727 203.578 141.314C203.795 140.909 204.152 140.746 204.602 140.746C206.419 140.746 209.724 143.41 211.145 143.41C211.463 143.41 211.7 143.168 211.791 142.843C212.424 140.601 202.572 139.913 203.399 136.814C203.545 136.265 203.941 136.043 204.496 136.043C206.898 136.043 212.285 140.203 213.415 140.203C213.501 140.203 213.563 140.178 213.596 140.126C214.162 139.226 213.901 138.494 209.914 136.117C205.926 133.738 203.077 132.412 204.669 130.705C204.852 130.508 205.112 130.421 205.427 130.421C207.848 130.421 213.569 135.549 213.569 135.549C213.569 135.549 215.113 137.131 216.047 137.131C216.261 137.131 216.444 137.047 216.567 136.841C217.229 135.742 210.418 130.657 210.034 128.56C209.774 127.138 210.217 126.419 211.036 126.419Z" fill="black"/>
<path d="M240.645 144.787C238.538 141.752 238.687 139.474 241.579 136.636C244.47 133.798 246.153 129.647 246.153 129.647C246.153 129.647 246.782 127.235 248.214 127.457C249.646 127.679 250.697 131.282 247.698 133.487C244.698 135.69 248.295 137.188 249.449 135.118C250.603 133.048 253.754 127.727 255.388 126.71C257.022 125.692 258.172 126.262 257.787 128.36C257.402 130.457 250.57 135.541 251.235 136.642C251.9 137.741 254.242 135.349 254.242 135.349C254.242 135.349 261.572 128.797 263.168 130.505C264.764 132.212 261.957 133.642 257.958 136.02C253.957 138.398 253.647 139.026 254.214 139.925C254.783 140.825 263.612 133.514 264.441 136.613C265.27 139.712 255.43 140.612 256.038 142.751C256.645 144.892 262.969 138.702 264.262 141.113C265.556 143.526 255.339 146.361 255.256 146.382C251.955 147.223 243.574 149.004 240.645 144.787Z" fill="#FFEF00"/>
<path d="M256.964 123.41C258.2 123.41 259.305 123.91 260.075 124.817C260.552 125.379 261.05 126.285 261.09 127.641C261.608 127.494 262.107 127.412 262.573 127.412C263.756 127.412 264.825 127.859 265.581 128.67C266.552 129.712 266.984 130.992 266.796 132.273C266.707 132.883 266.5 133.43 266.19 133.936C266.842 134.456 267.323 135.179 267.555 136.049C267.737 136.732 267.923 138.152 266.95 139.616C267.012 139.711 267.07 139.811 267.124 139.912C267.709 141.006 267.746 142.241 267.23 143.392C266.448 145.136 264.503 146.51 260.727 147.985C258.377 148.903 256.228 149.49 256.209 149.495C253.103 150.288 250.293 150.692 247.862 150.692C243.392 150.692 240.192 149.343 238.35 146.684C235.386 142.401 235.81 138.484 239.645 134.708C241.768 132.619 243.179 129.538 243.473 128.862C244.065 126.86 245.632 124.635 248.237 124.635H248.237C248.456 124.635 248.678 124.652 248.896 124.686C250.037 124.862 251.034 125.509 251.747 126.482C252.515 125.541 253.262 124.792 253.938 124.369C254.956 123.733 255.974 123.41 256.964 123.41ZM256.964 126.419C256.574 126.419 256.099 126.582 255.574 126.91C253.945 127.927 250.803 133.249 249.652 135.318C249.267 136.012 248.608 136.305 248.014 136.305C246.837 136.305 245.918 135.152 247.907 133.687C250.898 131.482 249.848 127.879 248.421 127.657C248.358 127.647 248.296 127.643 248.237 127.643C246.938 127.643 246.366 129.847 246.366 129.847C246.366 129.847 244.688 133.998 241.804 136.836C238.921 139.674 238.772 141.953 240.874 144.988C242.307 147.058 245.05 147.328 247.862 147.328C250.778 147.328 253.772 146.822 255.447 146.394C255.53 146.373 265.712 143.727 264.422 141.314C264.205 140.909 263.848 140.746 263.398 140.746C261.581 140.746 258.276 143.41 256.855 143.41C256.537 143.41 256.3 143.168 256.209 142.843C255.576 140.601 265.428 139.913 264.601 136.814C264.455 136.265 264.059 136.043 263.504 136.043C261.102 136.043 255.715 140.203 254.585 140.203C254.499 140.203 254.437 140.178 254.404 140.126C253.838 139.226 254.098 138.494 258.086 136.117C262.074 133.738 264.923 132.412 263.331 130.705C263.148 130.508 262.888 130.421 262.573 130.421C260.152 130.421 254.431 135.549 254.431 135.549C254.431 135.549 252.887 137.131 251.953 137.131C251.739 137.131 251.556 137.047 251.433 136.841C250.771 135.742 257.582 130.657 257.966 128.56C258.226 127.138 257.783 126.419 256.964 126.419Z" fill="black"/>
<path d="M244.03 119.742C244.03 116.369 239.635 121.51 234.2 121.533C228.766 121.511 224.371 116.369 224.371 119.742C224.371 121.979 225.446 125.616 228.333 127.823C228.908 125.855 232.065 124.279 232.516 124.506C233.159 124.828 233.123 125.721 234.2 126.508C235.278 125.721 235.242 124.828 235.884 124.506C236.336 124.279 239.493 125.855 240.067 127.823C242.954 125.616 244.029 121.979 244.029 119.743L244.03 119.742Z" fill="#0E1116"/>
<path d="M235.727 124.236C235.068 124.583 235.105 125.543 234 126.389C232.894 125.543 232.931 124.583 232.272 124.236C231.809 123.993 228.571 125.688 227.982 127.804C229.479 129.004 231.452 129.81 233.998 129.83C233.998 129.83 233.999 129.83 234 129.83C234.001 129.83 234.001 129.83 234.002 129.83C236.548 129.81 238.52 129.004 240.018 127.804C239.429 125.688 236.191 123.993 235.728 124.236H235.727Z" fill="#FF6900"/>
<path d="M251.652 114.985C252.982 114.985 254.059 113.818 254.059 112.378C254.059 110.937 252.982 109.77 251.652 109.77C250.323 109.77 249.245 110.937 249.245 112.378C249.245 113.818 250.323 114.985 251.652 114.985Z" fill="black"/>
<path d="M216.347 114.985C217.677 114.985 218.754 113.818 218.754 112.378C218.754 110.937 217.677 109.77 216.347 109.77C215.018 109.77 213.94 110.937 213.94 112.378C213.94 113.818 215.018 114.985 216.347 114.985Z" fill="black"/>
<path d="M243.279 111.381C244.25 111.741 244.637 113.837 245.618 113.29C247.476 112.253 248.182 109.831 247.194 107.88C246.206 105.93 243.898 105.189 242.04 106.227C240.182 107.264 239.476 109.685 240.464 111.636C240.931 112.556 242.411 111.06 243.279 111.381Z" fill="#0E1116"/>
<path d="M225.122 111.381C224.15 111.741 223.764 113.837 222.783 113.29C220.924 112.253 220.219 109.831 221.207 107.88C222.195 105.93 224.502 105.189 226.361 106.227C228.219 107.264 228.924 109.685 227.936 111.636C227.47 112.556 225.99 111.06 225.122 111.381Z" fill="#0E1116"/>
</g>
<g filter="url(#filter1_d_4723_13079)">
<path d="M328.608 153.5C310.075 153.5 295.108 138.533 295.108 120C295.108 101.467 310.075 86.5 328.608 86.5C347.141 86.5 362.108 101.467 362.108 120C362.108 138.533 347.141 153.5 328.608 153.5Z" fill="black"/>
<path d="M346.52 115.03H339.948V124.948H346.52C349.245 124.948 351.509 122.684 351.509 119.959C351.509 117.214 349.245 115.03 346.52 115.03Z" fill="#FFEF00"/>
<path d="M307.749 120C307.749 127.654 313.98 133.885 321.634 133.885C329.288 133.885 335.519 127.654 335.519 120C335.519 112.346 329.288 106.115 321.634 106.115C313.98 106.115 307.749 112.346 307.749 120Z" fill="#FFEF00"/>
</g>
</g>
<defs>
<filter id="filter0_d_4723_13079" x="196.892" y="85.5" width="74.2158" height="69" filterUnits="userSpaceOnUse" color-interpolation-filters="sRGB">
<feFlood flood-opacity="0" result="BackgroundImageFix"/>
<feColorMatrix in="SourceAlpha" type="matrix" values="0 0 0 0 0 0 0 0 0 0 0 0 0 0 0 0 0 0 127 0" result="hardAlpha"/>
<feOffset/>
<feGaussianBlur stdDeviation="0.5"/>
<feComposite in2="hardAlpha" operator="out"/>
<feColorMatrix type="matrix" values="0 0 0 0 0 0 0 0 0 0 0 0 0 0 0 0 0 0 0.17 0"/>
<feBlend mode="normal" in2="BackgroundImageFix" result="effect1_dropShadow_4723_13079"/>
<feBlend mode="normal" in="SourceGraphic" in2="effect1_dropShadow_4723_13079" result="shape"/>
</filter>
<filter id="filter1_d_4723_13079" x="294.108" y="85.5" width="69" height="69" filterUnits="userSpaceOnUse" color-interpolation-filters="sRGB">
<feFlood flood-opacity="0" result="BackgroundImageFix"/>
<feColorMatrix in="SourceAlpha" type="matrix" values="0 0 0 0 0 0 0 0 0 0 0 0 0 0 0 0 0 0 127 0" result="hardAlpha"/>
<feOffset/>
<feGaussianBlur stdDeviation="0.5"/>
<feComposite in2="hardAlpha" operator="out"/>
<feColorMatrix type="matrix" values="0 0 0 0 0 0 0 0 0 0 0 0 0 0 0 0 0 0 0.17 0"/>
<feBlend mode="normal" in2="BackgroundImageFix" result="effect1_dropShadow_4723_13079"/>
<feBlend mode="normal" in="SourceGraphic" in2="effect1_dropShadow_4723_13079" result="shape"/>
</filter>
<clipPath id="clip0_4723_13079">
<rect width="560" height="240" fill="white"/>
</clipPath>
<clipPath id="clip1_4723_13079">
<rect width="560" height="240" fill="white"/>
</clipPath>
</defs>
</svg>
