<svg xmlns="http://www.w3.org/2000/svg" width="367" height="206" fill="none" viewBox="0 0 367 206"><g clip-path="url(#clip0_3576_2520)"><rect width="367" height="206" fill="#E646C0"/><path fill="#C7189C" d="M336.976 260L371 260C382.046 260 391 251.046 391 240L391 -10C391 -21.0457 382.046 -30 371 -30L235 -30C223.954 -30 215 -21.0457 215 -10L215 33.1433C215 44.189 223.954 53.1433 235 53.1433L296.976 53.1433C308.022 53.1433 316.976 62.0977 316.976 73.1434L316.976 240C316.976 251.046 325.931 260 336.976 260Z"/><path fill="#C7189C" d="M99 174L205.5 174C216.546 174 225.5 182.954 225.5 194L225.5 207C225.5 218.046 216.546 227 205.5 227L20 227C8.95435 227 4.52837e-05 218.046 4.29599e-05 207L-8.45588e-06 -37.3936C-1.20062e-05 -47.6696 8.33037 -56 18.6064 -56C28.8825 -56 37.2128 -47.6696 37.2128 -37.3936L37.2129 34.5C37.2129 45.5457 46.1672 54.5 57.2129 54.5L59 54.5C70.0457 54.5 79 63.4543 79 74.5L79 154C79 165.046 87.9543 174 99 174Z"/><g filter="url(#filter0_d_3576_2520)"><rect width="66" height="66" x="104.5" y="70" fill="#000" rx="20" shape-rendering="crispEdges"/><path fill="#E646C0" d="M137.5 82C128.5 82 119.5 83.1053 119.5 90.8421V111.842C119.5 116.108 123.033 119.579 127.375 119.579L124 122.895V124H128.5L133 119.579H142L146.5 124H151V122.895L147.625 119.579C151.967 119.579 155.5 116.108 155.5 111.842V90.8421C155.5 83.1053 146.5 82 137.5 82ZM127.375 115.158C125.508 115.158 124 113.677 124 111.842C124 110.007 125.508 108.526 127.375 108.526C129.243 108.526 130.75 110.007 130.75 111.842C130.75 113.677 129.243 115.158 127.375 115.158ZM135.25 99.6842H124V90.8421H135.25V99.6842ZM147.625 115.158C145.757 115.158 144.25 113.677 144.25 111.842C144.25 110.007 145.757 108.526 147.625 108.526C149.493 108.526 151 110.007 151 111.842C151 113.677 149.493 115.158 147.625 115.158ZM151 99.6842H139.75V90.8421H151V99.6842Z"/></g><g filter="url(#filter1_dd_3576_2520)"><path fill="#000" d="M229 136.5C210.467 136.5 195.5 121.533 195.5 103C195.5 84.4668 210.467 69.5 229 69.5C247.533 69.5 262.5 84.4668 262.5 103C262.5 121.533 247.533 136.5 229 136.5Z"/><path fill="#E646C0" d="M246.912 98.0305H240.34V107.948H246.912C249.637 107.948 251.901 105.684 251.901 102.959C251.901 100.214 249.637 98.0305 246.912 98.0305Z"/><path fill="#E646C0" d="M208.141 103C208.141 110.654 214.372 116.885 222.026 116.885C229.68 116.885 235.911 110.654 235.911 103C235.911 95.3464 229.68 89.1152 222.026 89.1152C214.372 89.1152 208.141 95.3464 208.141 103Z"/></g><path fill="#E646C0" fill-rule="evenodd" d="M38 128C38 116.954 29.0457 108 18 108L-15 108C-26.0457 108 -35 116.954 -35 128L-35 199.482C-35 199.488 -35 199.494 -35 199.5L-35 232.5C-35 243.546 -26.0457 252.5 -15 252.5L69 252.5C80.0457 252.5 89 243.546 89 232.5L89 199.5C89 188.454 80.0457 179.5 69 179.5H58C46.9543 179.5 38 170.546 38 159.5L38 128Z" clip-rule="evenodd"/></g><defs><filter id="filter0_d_3576_2520" width="68" height="68" x="103.5" y="69" color-interpolation-filters="sRGB" filterUnits="userSpaceOnUse"><feFlood flood-opacity="0" result="BackgroundImageFix"/><feColorMatrix in="SourceAlpha" result="hardAlpha" type="matrix" values="0 0 0 0 0 0 0 0 0 0 0 0 0 0 0 0 0 0 127 0"/><feOffset/><feGaussianBlur stdDeviation=".5"/><feComposite in2="hardAlpha" operator="out"/><feColorMatrix type="matrix" values="0 0 0 0 0 0 0 0 0 0 0 0 0 0 0 0 0 0 0.17 0"/><feBlend in2="BackgroundImageFix" mode="normal" result="effect1_dropShadow_3576_2520"/><feBlend in="SourceGraphic" in2="effect1_dropShadow_3576_2520" mode="normal" result="shape"/></filter><filter id="filter1_dd_3576_2520" width="69" height="69" x="194.5" y="68.5" color-interpolation-filters="sRGB" filterUnits="userSpaceOnUse"><feFlood flood-opacity="0" result="BackgroundImageFix"/><feColorMatrix in="SourceAlpha" result="hardAlpha" type="matrix" values="0 0 0 0 0 0 0 0 0 0 0 0 0 0 0 0 0 0 127 0"/><feOffset/><feGaussianBlur stdDeviation=".5"/><feComposite in2="hardAlpha" operator="out"/><feColorMatrix type="matrix" values="0 0 0 0 0 0 0 0 0 0 0 0 0 0 0 0 0 0 0.17 0"/><feBlend in2="BackgroundImageFix" mode="normal" result="effect1_dropShadow_3576_2520"/><feColorMatrix in="SourceAlpha" result="hardAlpha" type="matrix" values="0 0 0 0 0 0 0 0 0 0 0 0 0 0 0 0 0 0 127 0"/><feOffset/><feGaussianBlur stdDeviation=".5"/><feComposite in2="hardAlpha" operator="out"/><feColorMatrix type="matrix" values="0 0 0 0 0 0 0 0 0 0 0 0 0 0 0 0 0 0 0.17 0"/><feBlend in2="effect1_dropShadow_3576_2520" mode="normal" result="effect2_dropShadow_3576_2520"/><feBlend in="SourceGraphic" in2="effect2_dropShadow_3576_2520" mode="normal" result="shape"/></filter><clipPath id="clip0_3576_2520"><rect width="367" height="206" fill="#fff"/></clipPath></defs></svg>