<svg xmlns="http://www.w3.org/2000/svg" width="367" height="206" fill="none" viewBox="0 0 367 206"><g clip-path="url(#clip0_3576_2520)"><rect width="367" height="206" fill="#E646C0"/><path fill="#C7189C" d="M336.976 260L371 260C382.046 260 391 251.046 391 240L391 -10C391 -21.0457 382.046 -30 371 -30L235 -30C223.954 -30 215 -21.0457 215 -10L215 33.1433C215 44.189 223.954 53.1433 235 53.1433L296.976 53.1433C308.022 53.1433 316.976 62.0977 316.976 73.1434L316.976 240C316.976 251.046 325.931 260 336.976 260Z"/><path fill="#C7189C" d="M99 174L205.5 174C216.546 174 225.5 182.954 225.5 194L225.5 207C225.5 218.046 216.546 227 205.5 227L20 227C8.95435 227 4.52837e-05 218.046 4.29599e-05 207L-8.45588e-06 -37.3936C-1.20062e-05 -47.6696 8.33037 -56 18.6064 -56C28.8825 -56 37.2128 -47.6696 37.2128 -37.3936L37.2129 34.5C37.2129 45.5457 46.1672 54.5 57.2129 54.5L59 54.5C70.0457 54.5 79 63.4543 79 74.5L79 154C79 165.046 87.9543 174 99 174Z"/><rect width="66" height="66" x="104.91" y="70" fill="#C7189C" rx="20"/><path fill="#E646C0" d="M137.91 82C128.91 82 119.91 83.1053 119.91 90.8421V111.842C119.91 116.108 123.442 119.579 127.785 119.579L124.41 122.895V124H128.91L133.41 119.579H142.41L146.91 124H151.41V122.895L148.035 119.579C152.377 119.579 155.91 116.108 155.91 111.842V90.8421C155.91 83.1053 146.91 82 137.91 82ZM127.785 115.158C125.917 115.158 124.41 113.677 124.41 111.842C124.41 110.007 125.917 108.526 127.785 108.526C129.652 108.526 131.16 110.007 131.16 111.842C131.16 113.677 129.652 115.158 127.785 115.158ZM135.66 99.6842H124.41V90.8421H135.66V99.6842ZM148.035 115.158C146.167 115.158 144.66 113.677 144.66 111.842C144.66 110.007 146.167 108.526 148.035 108.526C149.902 108.526 151.41 110.007 151.41 111.842C151.41 113.677 149.902 115.158 148.035 115.158ZM151.41 99.6842H140.16V90.8421H151.41V99.6842Z"/><g filter="url(#filter0_d_3576_2520)"><path fill="#C7189C" d="M229 136.09C210.693 136.09 195.91 121.307 195.91 103C195.91 84.6934 210.693 69.9097 229 69.9097C247.307 69.9097 262.09 84.6934 262.09 103C262.09 121.307 247.307 136.09 229 136.09Z"/><path fill="#E646C0" d="M246.693 98.0913H240.202V107.888H246.693C249.385 107.888 251.621 105.651 251.621 102.96C251.621 100.249 249.385 98.0913 246.693 98.0913Z"/><path fill="#E646C0" d="M208.396 103C208.396 110.56 214.551 116.715 222.111 116.715C229.671 116.715 235.826 110.56 235.826 103C235.826 95.4399 229.671 89.2849 222.111 89.2849C214.551 89.2849 208.396 95.4399 208.396 103Z"/></g><path fill="#E646C0" fill-rule="evenodd" d="M38 128C38 116.954 29.0457 108 18 108L-15 108C-26.0457 108 -35 116.954 -35 128L-35 199.482C-35 199.488 -35 199.494 -35 199.5L-35 232.5C-35 243.546 -26.0457 252.5 -15 252.5L69 252.5C80.0457 252.5 89 243.546 89 232.5L89 199.5C89 188.454 80.0457 179.5 69 179.5H58C46.9543 179.5 38 170.546 38 159.5L38 128Z" clip-rule="evenodd"/></g><defs><filter id="filter0_d_3576_2520" width="68.181" height="68.181" x="194.91" y="68.91" color-interpolation-filters="sRGB" filterUnits="userSpaceOnUse"><feFlood flood-opacity="0" result="BackgroundImageFix"/><feColorMatrix in="SourceAlpha" result="hardAlpha" type="matrix" values="0 0 0 0 0 0 0 0 0 0 0 0 0 0 0 0 0 0 127 0"/><feOffset/><feGaussianBlur stdDeviation=".5"/><feComposite in2="hardAlpha" operator="out"/><feColorMatrix type="matrix" values="0 0 0 0 0 0 0 0 0 0 0 0 0 0 0 0 0 0 0.17 0"/><feBlend in2="BackgroundImageFix" mode="normal" result="effect1_dropShadow_3576_2520"/><feBlend in="SourceGraphic" in2="effect1_dropShadow_3576_2520" mode="normal" result="shape"/></filter><clipPath id="clip0_3576_2520"><rect width="367" height="206" fill="#fff"/></clipPath></defs></svg>