<svg width="367" height="206" viewBox="0 0 367 206" fill="none" xmlns="http://www.w3.org/2000/svg">
<g clip-path="url(#clip0_3558_2262)">
<rect width="367" height="206" fill="#EDDD00"/>
<path d="M46.8366 115.665V226H-23V-1H217L217 12.5C217 23.5457 208.046 32.5 197 32.5H161.091C150.045 32.5 141.091 41.4543 141.091 52.5L141.091 75.6651C141.091 86.7108 132.136 95.6651 121.091 95.6651H66.8366C55.7909 95.6651 46.8366 104.619 46.8366 115.665Z" fill="#F6E900"/>
<g filter="url(#filter0_d_3558_2262)">
<path d="M187 140V206H367V36H333C321.954 36 313 44.9543 313 56V100C313 111.046 304.046 120 293 120L207 120C195.954 120 187 128.954 187 140Z" fill="#F6E900"/>
</g>
<g filter="url(#filter1_d_3558_2262)">
<path d="M167.95 129.551C168.71 131.737 168.527 134.064 167.515 136.087C166.786 137.564 165.743 138.707 164.468 139.729C162.929 140.943 161.016 141.975 158.708 142.966C155.954 144.14 152.593 145.243 151.054 145.648C147.116 146.669 143.33 147.317 139.493 147.347C134.007 147.398 129.279 146.103 125.918 142.794C124.177 143.007 122.415 143.128 120.644 143.128C118.963 143.128 117.303 143.027 115.653 142.825C112.282 146.113 107.574 147.398 102.108 147.347C98.271 147.317 94.4848 146.669 90.5368 145.648C89.0081 145.243 85.6472 144.14 82.8936 142.966C80.5855 141.975 78.6722 140.943 77.1435 139.729C75.8579 138.707 74.8152 137.564 74.0863 136.087C73.0841 134.064 72.8917 131.737 73.6611 129.551C72.9525 127.882 72.7702 125.97 73.327 123.855C73.5801 122.894 73.9952 122.004 74.5216 121.215C74.4102 120.8 74.3191 120.375 74.2584 119.91C73.8737 117.138 74.8354 114.608 76.6475 112.646C77.5384 111.664 78.5001 110.987 79.5023 110.552C78.7633 107.415 78.3786 104.188 78.3786 100.89C78.3786 77.5601 97.2991 58.6514 120.644 58.6514C128.662 58.6514 136.163 60.8771 142.561 64.762C143.715 65.4702 144.849 66.229 145.932 67.0384C146.469 67.4431 147.005 67.8578 147.521 68.2929C148.048 68.7178 148.564 69.1629 149.06 69.6182C150.558 70.984 151.965 72.451 153.251 74.0191C153.686 74.5351 154.102 75.0713 154.506 75.6176C155.326 76.7001 156.086 77.8231 156.784 78.9865C157.847 80.7267 158.778 82.5476 159.588 84.4395C160.125 85.7043 160.591 86.9992 161.006 88.3246C161.623 90.3075 162.099 92.3511 162.423 94.4555C162.524 95.1536 162.615 95.8616 162.686 96.5699C162.828 97.9863 162.909 99.4229 162.909 100.89C162.909 104.148 162.524 107.345 161.805 110.43C162.919 110.865 163.972 111.573 164.954 112.646C166.766 114.608 167.728 117.148 167.343 119.92C167.282 120.375 167.191 120.8 167.08 121.215C167.606 122.004 168.021 122.894 168.274 123.855C168.831 125.97 168.649 127.882 167.95 129.551Z" fill="#FFEF00"/>
<path d="M156.047 100.875C156.047 81.5411 140.267 65.8676 120.801 65.8676C101.335 65.8676 85.555 81.5411 85.555 100.875C85.555 120.21 101.335 135.883 120.801 135.883C140.267 135.883 156.047 120.21 156.047 100.875ZM81.4979 100.875C81.4979 79.3155 99.0945 61.8379 120.801 61.8379C142.507 61.8379 160.104 79.3155 160.104 100.875C160.104 122.435 142.507 139.913 120.801 139.913C99.0945 139.913 81.4979 122.435 81.4979 100.875Z" fill="black"/>
<path d="M120.801 136.195C140.454 136.195 156.386 120.501 156.386 101.141C156.386 81.7814 140.454 66.0872 120.801 66.0872C101.148 66.0872 85.2158 81.7814 85.2158 101.141C85.2158 120.501 101.148 136.195 120.801 136.195Z" fill="#FFEF00"/>
<path d="M111.472 135.815C114.262 131.796 114.064 128.78 110.237 125.023C106.409 121.266 104.181 115.77 104.181 115.77C104.181 115.77 103.348 112.578 101.452 112.872C99.5569 113.166 98.1649 117.936 102.136 120.854C106.107 123.771 101.345 125.754 99.8173 123.014C98.2896 120.274 94.1181 113.23 91.9548 111.882C89.7924 110.535 88.2698 111.29 88.7797 114.067C89.2896 116.844 98.3332 123.574 97.4533 125.031C96.5733 126.486 93.4724 123.319 93.4724 123.319C93.4724 123.319 83.7688 114.646 81.6561 116.906C79.5435 119.166 83.2589 121.06 88.5536 124.208C93.8495 127.356 94.26 128.187 93.5087 129.378C92.7565 130.568 81.0682 120.89 79.9703 124.993C78.8734 129.096 91.899 130.287 91.0951 133.119C90.2912 135.953 81.9197 127.758 80.2075 130.951C78.4943 134.145 92.0206 137.897 92.1302 137.925C96.4994 139.038 107.596 141.397 111.472 135.815Z" fill="#FFEF00"/>
<path d="M90.4005 107.514C88.764 107.514 87.3014 108.176 86.2815 109.377C85.6507 110.121 84.9917 111.32 84.9381 113.115C84.2518 112.921 83.5917 112.812 82.9752 112.812C81.4084 112.812 79.9933 113.404 78.9926 114.478C77.7068 115.857 77.1357 117.552 77.3844 119.247C77.5027 120.055 77.7766 120.779 78.186 121.449C77.3227 122.137 76.6869 123.095 76.3796 124.247C76.1391 125.15 75.8925 127.031 77.1802 128.968C77.0983 129.095 77.0215 129.226 76.9497 129.361C76.1755 130.808 76.1259 132.444 76.8092 133.968C77.8453 136.276 80.4198 138.096 85.4193 140.048C88.5295 141.263 91.3749 142.04 91.4002 142.046C95.5121 143.097 99.2309 143.631 102.45 143.631C108.368 143.631 112.604 141.845 115.042 138.325C118.966 132.655 118.405 127.47 113.328 122.471C110.517 119.706 108.65 115.627 108.26 114.732C107.476 112.082 105.402 109.135 101.954 109.135H101.953C101.663 109.135 101.37 109.158 101.081 109.203C99.5705 109.437 98.2504 110.293 97.3074 111.582C96.2895 110.335 95.301 109.343 94.4064 108.784C93.0579 107.941 91.7105 107.514 90.4005 107.514ZM90.4005 111.497C90.916 111.497 91.5457 111.713 92.2401 112.147C94.3962 113.494 98.5566 120.539 100.08 123.279C100.59 124.197 101.463 124.585 102.248 124.585C103.807 124.585 105.024 123.059 102.391 121.119C98.4314 118.201 99.8202 113.431 101.71 113.137C101.793 113.124 101.875 113.118 101.954 113.118C103.672 113.118 104.431 116.035 104.431 116.035C104.431 116.035 106.652 121.532 110.469 125.288C114.286 129.046 114.483 132.062 111.701 136.08C109.804 138.821 106.172 139.178 102.45 139.178C98.59 139.178 94.626 138.508 92.4082 137.941C92.2991 137.913 78.8187 134.411 80.527 131.217C80.8141 130.68 81.2871 130.465 81.8825 130.465C84.2882 130.465 88.664 133.992 90.5451 133.992C90.9656 133.992 91.2789 133.671 91.4002 133.241C92.2372 130.273 79.1958 129.362 80.2905 125.258C80.4835 124.533 81.0071 124.238 81.743 124.239C84.922 124.239 92.0542 129.746 93.5493 129.746C93.6634 129.746 93.7452 129.713 93.7898 129.643C94.5387 128.453 94.1937 127.483 88.9144 124.336C83.6349 121.187 79.8639 119.432 81.9714 117.172C82.214 116.911 82.5577 116.795 82.9752 116.795C86.1804 116.796 93.7533 123.585 93.7533 123.585C93.7533 123.585 95.7972 125.678 97.0335 125.678C97.3174 125.678 97.5591 125.568 97.7227 125.295C98.5991 123.84 89.5828 117.109 89.0743 114.332C88.7297 112.45 89.3159 111.497 90.4005 111.497Z" fill="black"/>
<path d="M129.598 135.815C126.809 131.796 127.006 128.78 130.834 125.023C134.662 121.266 136.89 115.77 136.89 115.77C136.89 115.77 137.723 112.578 139.618 112.872C141.514 113.166 142.906 117.936 138.935 120.854C134.964 123.771 139.726 125.754 141.253 123.014C142.781 120.274 146.953 113.23 149.116 111.882C151.278 110.535 152.801 111.29 152.291 114.067C151.781 116.844 142.738 123.574 143.618 125.031C144.497 126.486 147.599 123.319 147.599 123.319C147.599 123.319 157.302 114.646 159.415 116.906C161.527 119.166 157.812 121.06 152.517 124.208C147.221 127.356 146.811 128.187 147.562 129.378C148.314 130.568 160.003 120.89 161.101 124.993C162.197 129.096 149.172 130.287 149.976 133.119C150.78 135.953 159.151 127.758 160.863 130.951C162.577 134.145 149.05 137.897 148.941 137.925C144.571 139.038 133.475 141.397 129.598 135.815Z" fill="#FFEF00"/>
<path d="M151.201 107.514C152.838 107.514 154.3 108.176 155.32 109.377C155.951 110.121 156.61 111.32 156.664 113.115C157.35 112.921 158.01 112.812 158.627 112.812C160.193 112.812 161.608 113.404 162.609 114.478C163.895 115.857 164.466 117.552 164.217 119.247C164.099 120.055 163.825 120.779 163.416 121.449C164.279 122.137 164.915 123.095 165.222 124.247C165.463 125.15 165.709 127.031 164.422 128.968C164.503 129.095 164.58 129.226 164.652 129.361C165.426 130.808 165.476 132.444 164.792 133.968C163.756 136.276 161.182 138.096 156.183 140.048C153.072 141.263 150.227 142.04 150.202 142.046C146.09 143.097 142.371 143.631 139.151 143.631C133.234 143.631 128.998 141.845 126.56 138.325C122.636 132.655 123.197 127.47 128.274 122.471C131.084 119.706 132.952 115.627 133.341 114.732C134.126 112.082 136.2 109.135 139.648 109.135H139.649C139.939 109.135 140.232 109.158 140.521 109.203C142.031 109.437 143.351 110.293 144.294 111.582C145.312 110.335 146.301 109.343 147.195 108.784C148.544 107.941 149.891 107.514 151.201 107.514ZM151.201 111.497C150.686 111.497 150.056 111.713 149.362 112.147C147.205 113.494 143.045 120.539 141.522 123.279C141.011 124.197 140.139 124.585 139.354 124.585C137.795 124.585 136.578 123.059 139.211 121.119C143.17 118.201 141.782 113.431 139.891 113.137C139.808 113.124 139.727 113.118 139.648 113.118C137.929 113.118 137.171 116.035 137.171 116.035C137.171 116.035 134.95 121.532 131.133 125.288C127.316 129.046 127.119 132.062 129.9 136.08C131.798 138.821 135.43 139.178 139.151 139.178C143.012 139.178 146.976 138.508 149.193 137.941C149.303 137.913 162.783 134.411 161.075 131.217C160.788 130.68 160.315 130.465 159.719 130.465C157.314 130.465 152.938 133.992 151.057 133.992C150.636 133.992 150.323 133.671 150.202 133.241C149.364 130.273 162.406 129.362 161.311 125.258C161.118 124.533 160.595 124.238 159.859 124.239C156.68 124.239 149.548 129.746 148.053 129.746C147.938 129.746 147.856 129.713 147.812 129.643C147.063 128.453 147.408 127.483 152.687 124.336C157.967 121.187 161.738 119.432 159.63 117.172C159.388 116.911 159.044 116.795 158.627 116.795C155.421 116.796 147.848 123.585 147.848 123.585C147.848 123.585 145.805 125.678 144.568 125.678C144.284 125.678 144.043 125.568 143.879 125.295C143.003 123.84 152.019 117.109 152.528 114.332C152.872 112.45 152.286 111.497 151.201 111.497Z" fill="black"/>
<path d="M134.079 102.659C134.079 98.1931 128.26 104.999 121.066 105.03C113.873 105 108.054 98.1935 108.054 102.659C108.054 105.62 109.477 110.435 113.3 113.357C114.06 110.752 118.239 108.665 118.837 108.965C119.687 109.391 119.64 110.574 121.066 111.616C122.493 110.574 122.445 109.392 123.296 108.965C123.894 108.665 128.073 110.752 128.833 113.357C132.655 110.435 134.079 105.62 134.079 102.659L134.079 102.659Z" fill="#0E1116"/>
<path d="M123.087 108.608C122.215 109.067 122.264 110.338 120.8 111.459C119.337 110.338 119.386 109.067 118.514 108.608C117.9 108.286 113.614 110.53 112.834 113.331C114.816 114.919 117.428 115.987 120.798 116.013C120.799 116.013 120.8 116.013 120.801 116.013C120.802 116.013 120.803 116.013 120.804 116.013C124.174 115.987 126.785 114.919 128.768 113.331C127.988 110.53 123.701 108.286 123.088 108.608H123.087Z" fill="#FF6900"/>
<path d="M144.17 96.3614C145.93 96.3614 147.357 94.8158 147.357 92.9091C147.357 91.0024 145.93 89.4568 144.17 89.4568C142.41 89.4568 140.984 91.0024 140.984 92.9091C140.984 94.8158 142.41 96.3614 144.17 96.3614Z" fill="black"/>
<path d="M97.4315 96.3614C99.1915 96.3614 100.618 94.8158 100.618 92.9091C100.618 91.0024 99.1915 89.4568 97.4315 89.4568C95.6715 89.4568 94.2448 91.0024 94.2448 92.9091C94.2448 94.8158 95.6715 96.3614 97.4315 96.3614Z" fill="black"/>
<path d="M133.085 91.5903C134.371 92.0668 134.883 94.8413 136.182 94.1165C138.642 92.7436 139.576 89.5374 138.268 86.9554C136.96 84.3734 133.905 83.3932 131.445 84.7661C128.985 86.139 128.051 89.345 129.359 91.927C129.977 93.1458 131.936 91.1642 133.085 91.5903Z" fill="#0E1116"/>
<path d="M109.048 91.5903C107.762 92.0668 107.25 94.8413 105.951 94.1165C103.491 92.7436 102.557 89.5374 103.865 86.9554C105.173 84.3734 108.228 83.3932 110.688 84.7661C113.148 86.139 114.082 89.345 112.774 91.927C112.156 93.1458 110.197 91.1642 109.048 91.5903Z" fill="#0E1116"/>
</g>
<g filter="url(#filter2_d_3558_2262)">
<path d="M250.063 146.937C225.756 146.937 206.126 127.307 206.126 103C206.126 78.6927 225.756 59.063 250.063 59.063C274.37 59.063 294 78.6927 294 103C294 127.307 274.37 146.937 250.063 146.937Z" fill="black"/>
<path d="M273.556 96.4822H264.937V109.49H273.556C277.13 109.49 280.099 106.52 280.099 102.947C280.099 99.3465 277.13 96.4822 273.556 96.4822Z" fill="#FFEF00"/>
<path d="M222.706 103C222.706 113.038 230.878 121.211 240.916 121.211C250.955 121.211 259.127 113.038 259.127 103C259.127 92.9618 250.955 84.7893 240.916 84.7893C230.878 84.7893 222.706 92.9618 222.706 103Z" fill="#FFEF00"/>
</g>
<g filter="url(#filter3_d_3558_2262)">
<path d="M185 82L182.1 79.4104C171.8 70.2485 165 64.1864 165 56.7902C165 50.7281 169.84 46 176 46C179.48 46 182.82 47.5891 185 50.0807C187.18 47.5891 190.52 46 194 46C200.16 46 205 50.7281 205 56.7902C205 64.1864 198.2 70.2485 187.9 79.4104L185 82Z" fill="#FF6900"/>
</g>
<path d="M50 50H-57.6926H-97C-108.046 50 -117 41.0457 -117 30V-32C-117 -43.0457 -108.046 -52 -97 -52H50C61.0457 -52 70 -43.0457 70 -32V30C70 41.0457 61.0457 50 50 50Z" fill="#EDDD00"/>
</g>
<defs>
<filter id="filter0_d_3558_2262" x="187" y="36" width="182" height="172" filterUnits="userSpaceOnUse" color-interpolation-filters="sRGB">
<feFlood flood-opacity="0" result="BackgroundImageFix"/>
<feColorMatrix in="SourceAlpha" type="matrix" values="0 0 0 0 0 0 0 0 0 0 0 0 0 0 0 0 0 0 127 0" result="hardAlpha"/>
<feOffset dx="1" dy="1"/>
<feGaussianBlur stdDeviation="0.5"/>
<feComposite in2="hardAlpha" operator="out"/>
<feColorMatrix type="matrix" values="0 0 0 0 0 0 0 0 0 0 0 0 0 0 0 0 0 0 0.17 0"/>
<feBlend mode="normal" in2="BackgroundImageFix" result="effect1_dropShadow_3558_2262"/>
<feBlend mode="normal" in="SourceGraphic" in2="effect1_dropShadow_3558_2262" result="shape"/>
</filter>
<filter id="filter1_d_3558_2262" x="72" y="57.6514" width="97.6019" height="90.6973" filterUnits="userSpaceOnUse" color-interpolation-filters="sRGB">
<feFlood flood-opacity="0" result="BackgroundImageFix"/>
<feColorMatrix in="SourceAlpha" type="matrix" values="0 0 0 0 0 0 0 0 0 0 0 0 0 0 0 0 0 0 127 0" result="hardAlpha"/>
<feOffset/>
<feGaussianBlur stdDeviation="0.5"/>
<feComposite in2="hardAlpha" operator="out"/>
<feColorMatrix type="matrix" values="0 0 0 0 0 0 0 0 0 0 0 0 0 0 0 0 0 0 0.17 0"/>
<feBlend mode="normal" in2="BackgroundImageFix" result="effect1_dropShadow_3558_2262"/>
<feBlend mode="normal" in="SourceGraphic" in2="effect1_dropShadow_3558_2262" result="shape"/>
</filter>
<filter id="filter2_d_3558_2262" x="205.126" y="58.063" width="89.874" height="89.874" filterUnits="userSpaceOnUse" color-interpolation-filters="sRGB">
<feFlood flood-opacity="0" result="BackgroundImageFix"/>
<feColorMatrix in="SourceAlpha" type="matrix" values="0 0 0 0 0 0 0 0 0 0 0 0 0 0 0 0 0 0 127 0" result="hardAlpha"/>
<feOffset/>
<feGaussianBlur stdDeviation="0.5"/>
<feComposite in2="hardAlpha" operator="out"/>
<feColorMatrix type="matrix" values="0 0 0 0 0 0 0 0 0 0 0 0 0 0 0 0 0 0 0.17 0"/>
<feBlend mode="normal" in2="BackgroundImageFix" result="effect1_dropShadow_3558_2262"/>
<feBlend mode="normal" in="SourceGraphic" in2="effect1_dropShadow_3558_2262" result="shape"/>
</filter>
<filter id="filter3_d_3558_2262" x="164" y="45" width="42" height="38" filterUnits="userSpaceOnUse" color-interpolation-filters="sRGB">
<feFlood flood-opacity="0" result="BackgroundImageFix"/>
<feColorMatrix in="SourceAlpha" type="matrix" values="0 0 0 0 0 0 0 0 0 0 0 0 0 0 0 0 0 0 127 0" result="hardAlpha"/>
<feOffset/>
<feGaussianBlur stdDeviation="0.5"/>
<feComposite in2="hardAlpha" operator="out"/>
<feColorMatrix type="matrix" values="0 0 0 0 0 0 0 0 0 0 0 0 0 0 0 0 0 0 0.17 0"/>
<feBlend mode="normal" in2="BackgroundImageFix" result="effect1_dropShadow_3558_2262"/>
<feBlend mode="normal" in="SourceGraphic" in2="effect1_dropShadow_3558_2262" result="shape"/>
</filter>
<clipPath id="clip0_3558_2262">
<rect width="367" height="206" fill="white"/>
</clipPath>
</defs>
</svg>
