<svg width="560" height="240" viewBox="0 0 560 240" fill="none" xmlns="http://www.w3.org/2000/svg">
<g clip-path="url(#clip0_4723_15316)">
<rect width="560" height="240" fill="#FFF100"/>
<g clip-path="url(#clip1_4723_15316)">
<rect width="560" height="240" fill="#FFF100"/>
<path d="M224 49.847L224 -0.999985C224 -12.0457 215.046 -21 204 -21L-26 -21C-37.0457 -21 -46 -12.0457 -46 -1.00001L-46 175C-46 186.046 -37.0457 195 -26 195L52.5714 195C63.6171 195 72.5714 186.046 72.5714 175L72.5714 89.8471C72.5714 78.8014 81.5257 69.8471 92.5714 69.8471L204 69.8471C215.046 69.8471 224 60.8927 224 49.847Z" fill="#EDDE00"/>
<path d="M472.584 123.352L505.5 123.352C516.546 123.352 525.5 114.397 525.5 103.352L525.5 66.9999C525.5 55.9542 516.546 46.9999 505.5 46.9999L454.5 46.9999C443.454 46.9999 434.5 38.0456 434.5 26.9999L434.5 -34.0001C434.5 -45.0458 443.454 -54.0001 454.5 -54.0001L583 -54.0001C594.046 -54.0001 603 -45.0457 603 -34.0001L603 241.5C603 252.546 594.046 261.5 583 261.5L335 261.5C323.954 261.5 315 252.546 315 241.5L315 206.5C315 195.454 323.954 186.5 335 186.5L432.584 186.5C443.629 186.5 452.584 177.546 452.584 166.5L452.584 143.352C452.584 132.306 461.538 123.352 472.584 123.352Z" fill="#EDDE00"/>
</g>
<path d="M233 153.5C214.467 153.5 199.5 138.533 199.5 120C199.5 101.467 214.467 86.5 233 86.5C251.533 86.5 266.5 101.467 266.5 120C266.5 138.533 251.533 153.5 233 153.5Z" fill="black"/>
<path d="M250.912 115.03H244.34V124.948H250.912C253.637 124.948 255.901 122.684 255.901 119.959C255.901 117.214 253.637 115.03 250.912 115.03Z" fill="#FFF100"/>
<path d="M212.141 120C212.141 127.654 218.372 133.885 226.026 133.885C233.68 133.885 239.911 127.654 239.911 120C239.911 112.346 233.68 106.115 226.026 106.115C218.372 106.115 212.141 112.346 212.141 120Z" fill="#FFF100"/>
<path d="M293.409 126.269H297.848V115.643C297.848 115.244 297.856 114.892 297.871 114.585C297.902 114.263 297.917 114.094 297.917 114.079H297.871C297.779 114.171 297.679 114.263 297.572 114.355C297.48 114.432 297.38 114.516 297.273 114.608C297.166 114.685 297.051 114.761 296.928 114.838L293.685 117V114.516L297.365 111.94H300.378V126.269H304.035V128.5H293.409V126.269ZM310.075 126.568C310.075 125.924 310.267 125.41 310.65 125.027C311.033 124.628 311.547 124.429 312.191 124.429C312.835 124.429 313.349 124.628 313.732 125.027C314.115 125.41 314.307 125.924 314.307 126.568C314.307 127.212 314.115 127.733 313.732 128.132C313.349 128.531 312.835 128.73 312.191 128.73C311.547 128.73 311.033 128.531 310.65 128.132C310.267 127.733 310.075 127.212 310.075 126.568ZM320.669 116.701C320.669 115.934 320.792 115.244 321.037 114.631C321.298 114.018 321.658 113.496 322.118 113.067C322.578 112.622 323.138 112.285 323.797 112.055C324.456 111.81 325.192 111.687 326.005 111.687C326.802 111.687 327.523 111.81 328.167 112.055C328.826 112.285 329.386 112.622 329.846 113.067C330.306 113.496 330.659 114.018 330.904 114.631C331.149 115.244 331.272 115.934 331.272 116.701V123.693C331.272 124.444 331.142 125.134 330.881 125.763C330.636 126.376 330.283 126.905 329.823 127.35C329.363 127.795 328.811 128.14 328.167 128.385C327.523 128.615 326.802 128.73 326.005 128.73C325.192 128.73 324.456 128.615 323.797 128.385C323.138 128.14 322.578 127.802 322.118 127.373C321.658 126.928 321.298 126.399 321.037 125.786C320.792 125.157 320.669 124.46 320.669 123.693V116.701ZM323.153 123.693C323.153 124.552 323.406 125.234 323.912 125.74C324.433 126.246 325.131 126.499 326.005 126.499C326.848 126.499 327.523 126.246 328.029 125.74C328.535 125.234 328.788 124.552 328.788 123.693V116.701C328.788 115.858 328.535 115.183 328.029 114.677C327.523 114.171 326.848 113.918 326.005 113.918C325.131 113.918 324.433 114.171 323.912 114.677C323.406 115.183 323.153 115.858 323.153 116.701V123.693ZM324.878 118.564C324.878 118.196 324.978 117.897 325.177 117.667C325.376 117.437 325.652 117.322 326.005 117.322C326.342 117.322 326.611 117.437 326.81 117.667C327.009 117.897 327.109 118.196 327.109 118.564V122.083C327.109 122.451 327.009 122.75 326.81 122.98C326.611 123.21 326.342 123.325 326.005 123.325C325.652 123.325 325.376 123.21 325.177 122.98C324.978 122.75 324.878 122.451 324.878 122.083V118.564ZM337.657 126.568C337.657 125.924 337.849 125.41 338.232 125.027C338.615 124.628 339.129 124.429 339.773 124.429C340.417 124.429 340.931 124.628 341.314 125.027C341.697 125.41 341.889 125.924 341.889 126.568C341.889 127.212 341.697 127.733 341.314 128.132C340.931 128.531 340.417 128.73 339.773 128.73C339.129 128.73 338.615 128.531 338.232 128.132C337.849 127.733 337.657 127.212 337.657 126.568ZM348.251 116.701C348.251 115.934 348.374 115.244 348.619 114.631C348.88 114.018 349.24 113.496 349.7 113.067C350.16 112.622 350.72 112.285 351.379 112.055C352.038 111.81 352.774 111.687 353.587 111.687C354.384 111.687 355.105 111.81 355.749 112.055C356.408 112.285 356.968 112.622 357.428 113.067C357.888 113.496 358.241 114.018 358.486 114.631C358.731 115.244 358.854 115.934 358.854 116.701V123.693C358.854 124.444 358.724 125.134 358.463 125.763C358.218 126.376 357.865 126.905 357.405 127.35C356.945 127.795 356.393 128.14 355.749 128.385C355.105 128.615 354.384 128.73 353.587 128.73C352.774 128.73 352.038 128.615 351.379 128.385C350.72 128.14 350.16 127.802 349.7 127.373C349.24 126.928 348.88 126.399 348.619 125.786C348.374 125.157 348.251 124.46 348.251 123.693V116.701ZM350.735 123.693C350.735 124.552 350.988 125.234 351.494 125.74C352.015 126.246 352.713 126.499 353.587 126.499C354.43 126.499 355.105 126.246 355.611 125.74C356.117 125.234 356.37 124.552 356.37 123.693V116.701C356.37 115.858 356.117 115.183 355.611 114.677C355.105 114.171 354.43 113.918 353.587 113.918C352.713 113.918 352.015 114.171 351.494 114.677C350.988 115.183 350.735 115.858 350.735 116.701V123.693ZM352.46 118.564C352.46 118.196 352.56 117.897 352.759 117.667C352.958 117.437 353.234 117.322 353.587 117.322C353.924 117.322 354.193 117.437 354.392 117.667C354.591 117.897 354.691 118.196 354.691 118.564V122.083C354.691 122.451 354.591 122.75 354.392 122.98C354.193 123.21 353.924 123.325 353.587 123.325C353.234 123.325 352.958 123.21 352.759 122.98C352.56 122.75 352.46 122.451 352.46 122.083V118.564Z" fill="black"/>
</g>
<defs>
<clipPath id="clip0_4723_15316">
<rect width="560" height="240" fill="white"/>
</clipPath>
<clipPath id="clip1_4723_15316">
<rect width="560" height="240" fill="white"/>
</clipPath>
</defs>
</svg>
