<svg xmlns="http://www.w3.org/2000/svg" width="560" height="240" fill="none" viewBox="0 0 560 240"><g clip-path="url(#clip0_4723_13139)"><rect width="560" height="240" fill="#FFF100"/><g clip-path="url(#clip1_4723_13139)"><rect width="560" height="240" fill="#FFF100"/><path fill="url(#paint0_linear_4723_13139)" d="M387 170.5L451.783 170.5C462.828 170.5 471.782 161.546 471.782 150.5L471.782 67.5001C471.782 56.4544 480.737 47.5001 491.782 47.5001L692.082 47.5001C703.128 47.5001 712.082 56.4544 712.082 67.5001L712.082 241.913C712.082 252.958 703.128 261.913 692.082 261.913L387 261.913C375.954 261.913 367 252.958 367 241.913L367 190.5C367 179.454 375.954 170.5 387 170.5Z"/><path fill="url(#paint1_linear_4723_13139)" d="M141.127 314L141.127 77.9839C141.127 66.9382 150.081 57.9839 161.127 57.9839L199.812 57.9839C210.857 57.9839 219.812 49.0296 219.812 37.9839L219.812 -86.9999C219.812 -98.0456 210.857 -107 199.812 -107L-54.0001 -107C-65.0458 -107 -74.0001 -98.0457 -74.0001 -87L-74.0002 314C-74.0002 325.046 -65.0458 334 -54.0002 334L121.127 334C132.173 334 141.127 325.046 141.127 314Z"/><rect width="546" height="169" x="417" y="194" fill="#FFF100" rx="20"/><rect width="598" height="204" x="-513" y="-43" fill="#FFF100" rx="20"/></g><rect width="65" height="65" x="202.5" y="87.5" fill="#000" rx="10"/><path fill="#FFF100" d="M233.371 99.9285H235.9V103.224C242.266 103.857 246.329 107.92 246.329 113.88H241.001C240.956 109.771 238.654 107.785 235.9 107.288V117.492L236.396 117.582C241.227 118.801 246.916 120.788 246.916 127.289C246.916 133.43 241.769 136.681 235.9 137.042V140.834H233.371V137.042C226.915 136.545 222.4 132.075 222.535 125.799H227.863C227.863 130.314 230.482 132.572 233.371 132.933V121.871L231.926 121.51C227.231 120.291 223.167 117.672 223.167 112.164C223.167 106.43 228.269 103.586 233.371 103.224V99.9285ZM241.724 127.741C241.724 124.626 239.512 123.587 235.9 122.503V132.978C239.015 132.843 241.724 131.082 241.724 127.741ZM228.359 111.984C228.359 114.512 230.165 116.137 233.055 116.815L233.371 116.905V107.198C230.843 107.333 228.359 108.913 228.359 111.984Z"/><rect width="65" height="65" x="292.5" y="87.5" fill="#000" rx="10"/><path fill="#FFF100" d="M333.062 120.111C333.062 109.771 326.741 108.372 320.465 108.372H317.53V131.895H320.465C326.741 131.895 333.062 130.45 333.062 120.111ZM311.796 103.766H320.736C331.075 103.766 339.021 107.333 339.021 120.111C339.021 132.888 331.075 136.5 320.736 136.5H311.796V103.766Z"/></g><defs><linearGradient id="paint0_linear_4723_13139" x1="400.322" x2="400.322" y1="65.999" y2="234.499" gradientUnits="userSpaceOnUse"><stop stop-color="#EDDD0C"/><stop offset="1" stop-color="#F3E71B"/></linearGradient><linearGradient id="paint1_linear_4723_13139" x1="72.906" x2="72.906" y1="349.513" y2="-53.814" gradientUnits="userSpaceOnUse"><stop stop-color="#EDDD0C"/><stop offset="1" stop-color="#F3E71B"/></linearGradient><clipPath id="clip0_4723_13139"><rect width="560" height="240" fill="#fff"/></clipPath><clipPath id="clip1_4723_13139"><rect width="560" height="240" fill="#fff"/></clipPath></defs></svg>