<svg xmlns="http://www.w3.org/2000/svg" width="560" height="240" fill="none" viewBox="0 0 560 240"><g clip-path="url(#clip0_4723_13166)"><rect width="560" height="240" fill="#FFF100"/><g clip-path="url(#clip1_4723_13166)"><rect width="560" height="240" fill="#FFF100"/><path fill="url(#paint0_linear_4723_13166)" d="M387 170.5L451.783 170.5C462.828 170.5 471.782 161.546 471.782 150.5L471.782 67.5001C471.782 56.4544 480.737 47.5001 491.782 47.5001L692.082 47.5001C703.128 47.5001 712.082 56.4544 712.082 67.5001L712.082 241.913C712.082 252.958 703.128 261.913 692.082 261.913L387 261.913C375.954 261.913 367 252.958 367 241.913L367 190.5C367 179.454 375.954 170.5 387 170.5Z"/><path fill="url(#paint1_linear_4723_13166)" d="M141.127 314L141.127 77.9839C141.127 66.9382 150.081 57.9839 161.127 57.9839L199.812 57.9839C210.857 57.9839 219.812 49.0296 219.812 37.9839L219.812 -86.9999C219.812 -98.0456 210.857 -107 199.812 -107L-54.0001 -107C-65.0458 -107 -74.0001 -98.0457 -74.0001 -87L-74.0002 314C-74.0002 325.046 -65.0458 334 -54.0002 334L121.127 334C132.173 334 141.127 325.046 141.127 314Z"/><rect width="546" height="169" x="417" y="194" fill="#FFF100" rx="20"/><rect width="598" height="204" x="-513" y="-43" fill="#FFF100" rx="20"/></g><path fill="#000" d="M160.587 123.716V116.724C160.587 115.973 160.71 115.298 160.955 114.7C161.216 114.087 161.576 113.565 162.036 113.136C162.511 112.691 163.071 112.354 163.715 112.124C164.374 111.879 165.103 111.756 165.9 111.756C167.387 111.756 168.599 112.139 169.534 112.906C170.469 113.657 171.052 114.731 171.282 116.126H168.729C168.606 115.467 168.292 114.953 167.786 114.585C167.295 114.202 166.667 114.01 165.9 114.01C165.041 114.01 164.359 114.255 163.853 114.746C163.362 115.221 163.117 115.881 163.117 116.724V123.716C163.117 124.59 163.362 125.272 163.853 125.763C164.359 126.254 165.041 126.499 165.9 126.499C166.759 126.499 167.433 126.254 167.924 125.763C168.43 125.272 168.683 124.59 168.683 123.716V121.968H165.578V119.76H171.213V123.716C171.213 124.467 171.083 125.157 170.822 125.786C170.577 126.399 170.224 126.928 169.764 127.373C169.304 127.802 168.744 128.14 168.085 128.385C167.441 128.615 166.713 128.73 165.9 128.73C165.103 128.73 164.374 128.615 163.715 128.385C163.056 128.14 162.496 127.802 162.036 127.373C161.576 126.928 161.216 126.399 160.955 125.786C160.71 125.157 160.587 124.467 160.587 123.716ZM174.838 126.2H179.392V118.127H175.413V115.85H181.853V126.2H185.556V128.5H174.838V126.2ZM178.472 112.377C178.472 111.932 178.61 111.58 178.886 111.319C179.177 111.043 179.561 110.905 180.036 110.905H180.588C181.063 110.905 181.439 111.043 181.715 111.319C182.006 111.58 182.152 111.932 182.152 112.377C182.152 112.822 182.006 113.174 181.715 113.435C181.439 113.696 181.056 113.826 180.565 113.826H180.036C179.561 113.826 179.177 113.696 178.886 113.435C178.61 113.174 178.472 112.822 178.472 112.377ZM187.778 115.85H191.343V111.94H193.873V115.85H198.726V118.127H193.873V124.866C193.873 125.28 193.996 125.61 194.241 125.855C194.486 126.085 194.831 126.2 195.276 126.2H198.496V128.5H195.161C193.98 128.5 193.045 128.17 192.355 127.511C191.68 126.852 191.343 125.97 191.343 124.866V118.127H187.778V115.85ZM202.259 128.5V111.94H204.789V118.725H209.78V111.94H212.31V128.5H209.78V121.048H204.789V128.5H202.259ZM218.58 115.85V123.877C218.58 125.64 219.4 126.522 221.041 126.522C222.712 126.522 223.548 125.64 223.548 123.877V115.85H226.078V123.877C226.078 125.426 225.641 126.622 224.767 127.465C223.893 128.308 222.651 128.73 221.041 128.73C219.462 128.73 218.235 128.308 217.361 127.465C216.487 126.606 216.05 125.41 216.05 123.877V115.85H218.58ZM229.795 111.94H232.325V115.689C232.325 115.904 232.317 116.149 232.302 116.425C232.302 116.701 232.294 116.962 232.279 117.207C232.248 117.483 232.225 117.759 232.21 118.035H232.394C232.563 117.268 232.946 116.678 233.544 116.264C234.157 115.835 234.924 115.62 235.844 115.62C236.488 115.62 237.078 115.735 237.615 115.965C238.152 116.195 238.604 116.525 238.972 116.954C239.355 117.383 239.647 117.905 239.846 118.518C240.061 119.116 240.168 119.798 240.168 120.565V123.739C240.168 124.506 240.061 125.203 239.846 125.832C239.647 126.445 239.355 126.967 238.972 127.396C238.604 127.825 238.152 128.155 237.615 128.385C237.078 128.615 236.488 128.73 235.844 128.73C234.924 128.73 234.157 128.523 233.544 128.109C232.946 127.68 232.563 127.082 232.394 126.315H232.21V128.5H229.795V111.94ZM232.325 123.739C232.325 124.582 232.555 125.257 233.015 125.763C233.49 126.269 234.127 126.522 234.924 126.522C235.767 126.522 236.427 126.269 236.902 125.763C237.393 125.257 237.638 124.575 237.638 123.716V120.611C237.638 119.737 237.393 119.055 236.902 118.564C236.427 118.058 235.767 117.805 234.924 117.805C234.142 117.805 233.513 118.058 233.038 118.564C232.563 119.07 232.325 119.752 232.325 120.611V123.739Z"/><circle cx="300.5" cy="120" r="33.5" fill="#000"/><path fill="#FFF100" d="M297.771 97.8736C298.838 95.5336 302.162 95.5336 303.229 97.8736L307.595 107.444C308.027 108.393 308.922 109.049 309.957 109.176L320.335 110.457C322.853 110.768 323.873 113.869 322.03 115.613L314.301 122.929C313.557 123.634 313.223 124.669 313.417 125.675L315.436 136.162C315.92 138.675 313.238 140.601 311.011 139.34L301.979 134.223C301.061 133.703 299.939 133.703 299.021 134.223L289.989 139.34C287.762 140.601 285.08 138.675 285.564 136.162L287.583 125.675C287.777 124.669 287.443 123.634 286.699 122.929L278.97 115.613C277.127 113.869 278.147 110.768 280.665 110.457L291.043 109.176C292.078 109.049 292.973 108.393 293.405 107.444L297.771 97.8736Z"/><path fill="#000" d="M360.334 116.471C360.349 115.75 360.487 115.099 360.748 114.516C361.024 113.933 361.4 113.435 361.875 113.021C362.366 112.607 362.948 112.285 363.623 112.055C364.298 111.825 365.041 111.71 365.854 111.71C366.636 111.71 367.341 111.825 367.97 112.055C368.614 112.27 369.166 112.584 369.626 112.998C370.086 113.412 370.439 113.91 370.684 114.493C370.929 115.076 371.052 115.727 371.052 116.448C371.052 117.644 370.73 118.786 370.086 119.875C369.442 120.948 368.415 122.083 367.004 123.279L364.428 125.441C364.305 125.548 364.175 125.648 364.037 125.74C363.899 125.817 363.769 125.893 363.646 125.97C363.508 126.047 363.37 126.116 363.232 126.177V126.269C363.462 126.254 363.692 126.238 363.922 126.223C364.137 126.223 364.367 126.223 364.612 126.223C364.857 126.208 365.087 126.2 365.302 126.2H371.236V128.5H360.449V125.786L365.348 121.715C365.9 121.24 366.375 120.787 366.774 120.358C367.173 119.929 367.495 119.507 367.74 119.093C368.001 118.679 368.185 118.265 368.292 117.851C368.415 117.437 368.476 117 368.476 116.54C368.476 115.743 368.238 115.114 367.763 114.654C367.288 114.179 366.644 113.941 365.831 113.941C364.957 113.941 364.252 114.171 363.715 114.631C363.178 115.091 362.91 115.704 362.91 116.471H360.334ZM374.378 116.701C374.378 115.934 374.501 115.244 374.746 114.631C375.007 114.018 375.367 113.496 375.827 113.067C376.287 112.622 376.847 112.285 377.506 112.055C378.165 111.81 378.901 111.687 379.714 111.687C380.511 111.687 381.232 111.81 381.876 112.055C382.535 112.285 383.095 112.622 383.555 113.067C384.015 113.496 384.368 114.018 384.613 114.631C384.858 115.244 384.981 115.934 384.981 116.701V123.693C384.981 124.444 384.851 125.134 384.59 125.763C384.345 126.376 383.992 126.905 383.532 127.35C383.072 127.795 382.52 128.14 381.876 128.385C381.232 128.615 380.511 128.73 379.714 128.73C378.901 128.73 378.165 128.615 377.506 128.385C376.847 128.14 376.287 127.802 375.827 127.373C375.367 126.928 375.007 126.399 374.746 125.786C374.501 125.157 374.378 124.46 374.378 123.693V116.701ZM376.862 123.693C376.862 124.552 377.115 125.234 377.621 125.74C378.142 126.246 378.84 126.499 379.714 126.499C380.557 126.499 381.232 126.246 381.738 125.74C382.244 125.234 382.497 124.552 382.497 123.693V116.701C382.497 115.858 382.244 115.183 381.738 114.677C381.232 114.171 380.557 113.918 379.714 113.918C378.84 113.918 378.142 114.171 377.621 114.677C377.115 115.183 376.862 115.858 376.862 116.701V123.693ZM378.587 118.564C378.587 118.196 378.687 117.897 378.886 117.667C379.085 117.437 379.361 117.322 379.714 117.322C380.051 117.322 380.32 117.437 380.519 117.667C380.718 117.897 380.818 118.196 380.818 118.564V122.083C380.818 122.451 380.718 122.75 380.519 122.98C380.32 123.21 380.051 123.325 379.714 123.325C379.361 123.325 379.085 123.21 378.886 122.98C378.687 122.75 378.587 122.451 378.587 122.083V118.564ZM388.537 111.94H391.067V120.979H393.298L396.771 115.85H399.623L395.46 121.991L399.692 128.5H396.771L393.298 123.164H391.067V128.5H388.537V111.94Z"/></g><defs><linearGradient id="paint0_linear_4723_13166" x1="400.322" x2="400.322" y1="65.999" y2="234.499" gradientUnits="userSpaceOnUse"><stop stop-color="#EDDD0C"/><stop offset="1" stop-color="#F3E71B"/></linearGradient><linearGradient id="paint1_linear_4723_13166" x1="72.906" x2="72.906" y1="349.513" y2="-53.814" gradientUnits="userSpaceOnUse"><stop stop-color="#EDDD0C"/><stop offset="1" stop-color="#F3E71B"/></linearGradient><clipPath id="clip0_4723_13166"><rect width="560" height="240" fill="#fff"/></clipPath><clipPath id="clip1_4723_13166"><rect width="560" height="240" fill="#fff"/></clipPath></defs></svg>