<svg xmlns="http://www.w3.org/2000/svg" width="367" height="206" fill="none" viewBox="0 0 367 206"><g clip-path="url(#clip0_3649_9441)"><rect width="367" height="206" fill="#E646C0"/><path fill="#C7189C" d="M79 173L178.5 173C189.546 173 198.5 164.046 198.5 153L198.5 90.4999C198.5 79.4542 207.455 70.5 218.5 70.5L382 70.5L382 206L59.0001 206L59 193C59 181.954 67.9543 173 79 173Z"/><path fill="#000" d="M126.429 64.464C128.038 61.0002 132.962 61.0002 134.571 64.464L143.897 84.5465C144.551 85.9547 145.887 86.9249 147.428 87.1117L169.409 89.7758C173.201 90.2353 174.722 94.9186 171.925 97.5188L155.708 112.595C154.571 113.652 154.061 115.222 154.359 116.745L158.618 138.474C159.353 142.222 155.369 145.116 152.032 143.26L132.682 132.495C131.325 131.74 129.675 131.74 128.318 132.495L108.968 143.26C105.631 145.116 101.647 142.222 102.382 138.474L106.641 116.745C106.939 115.222 106.429 113.652 105.292 112.595L89.0747 97.5188C86.2775 94.9186 87.7992 90.2353 91.5905 89.7758L113.572 87.1117C115.114 86.9249 116.449 85.9547 117.103 84.5465L126.429 64.464Z"/><path fill="#E646C0" d="M124.18 100.552C124.18 103.589 121.124 106.359 117.094 109.205H124.543V111H114.516V109.281C119.272 105.671 122.098 103.15 122.098 100.762C122.098 99.3681 121.163 98.4895 119.673 98.4895C118.259 98.4895 116.903 99.2917 116.884 101.526H114.86C114.821 98.7569 116.75 96.9042 119.73 96.9042C122.289 96.9042 124.18 98.203 124.18 100.552ZM125.976 104.067C125.976 99.7501 127.733 96.9042 131.419 96.9042C135.125 96.9042 136.863 99.7501 136.863 104.067C136.863 108.402 135.125 111.248 131.419 111.248C127.733 111.248 125.976 108.402 125.976 104.067ZM134.762 104.067C134.762 100.399 133.52 98.4895 131.419 98.4895C129.337 98.4895 128.077 100.399 128.077 104.067C128.077 107.753 129.337 109.644 131.419 109.644C133.52 109.644 134.762 107.753 134.762 104.067ZM141.049 97.1525V105.117L145.137 100.724H147.562L143.57 104.964L147.849 111H145.48L142.214 106.397L141.049 107.638V111H139.063V97.1525H141.049Z"/><path fill="#000" d="M220.516 94.526C224.265 94.526 226.841 96.55 227.554 100.115H224.771C224.219 98.068 222.655 96.918 220.447 96.918C217.595 96.918 215.525 99.011 215.525 103.105C215.525 107.153 217.48 109.407 220.424 109.407C222.402 109.407 224.886 108.533 224.886 105.566V105.244H220.631V102.783H227.6V111.5H225.3L225.208 109.499C224.219 110.971 222.402 111.799 220.102 111.799C215.364 111.799 212.512 108.349 212.512 103.105C212.512 97.93 215.548 94.526 220.516 94.526ZM230.605 94.825H233.342V97.585H230.605V94.825ZM230.605 99.126H233.342V111.5H230.605V99.126ZM236.814 99.126V95.86H239.551V99.126H242.035V101.104H239.551V107.843C239.551 109.108 239.85 109.407 241.023 109.407H242.012V111.5H239.988C237.343 111.5 236.814 110.787 236.814 108.257V101.104H234.974V99.126H236.814ZM255.256 94.825H258.177V111.5H255.256V104.14H247.298V111.5H244.377V94.825H247.298V101.725H255.256V94.825ZM269.035 111.5V109.798C268.322 111.086 267.057 111.799 265.378 111.799C262.434 111.799 261.238 109.867 261.238 106.923V99.126H263.975V106.256C263.975 107.935 264.205 109.568 266.252 109.568C268.299 109.568 269.035 107.958 269.035 105.727V99.126H271.772V111.5H269.035ZM277.476 105.313C277.476 108.165 278.879 109.568 280.673 109.568C282.513 109.568 283.801 107.958 283.801 105.313C283.801 102.737 282.513 101.081 280.673 101.081C278.879 101.081 277.476 102.461 277.476 105.313ZM274.854 94.825H277.591V100.782C278.327 99.563 279.615 98.85 281.271 98.85C284.215 98.85 286.653 101.357 286.653 105.313C286.653 109.292 284.215 111.799 281.271 111.799C279.615 111.799 278.327 111.086 277.591 109.867V111.5H274.854V94.825Z"/><path fill="#C7189C" d="M417.5 21.5L417.5 -0.999985L-4.99996 -1.00002L-4.99997 107L29.0001 107C40.0457 107 49.0001 98.0457 49.0001 87L49.0001 61.5C49.0001 50.4543 57.9544 41.5 69.0001 41.5L397.5 41.5C408.546 41.5 417.5 32.5457 417.5 21.5Z"/><path fill="#E646C0" d="M281 138L405.081 138L452 138C463.046 138 472 146.954 472 158L472 343C472 354.046 463.046 363 452 363L281 363C269.954 363 261 354.046 261 343L261 158C261 146.954 269.954 138 281 138Z"/></g><defs><clipPath id="clip0_3649_9441"><rect width="367" height="206" fill="#fff"/></clipPath></defs></svg>