<svg width="367" height="206" viewBox="0 0 367 206" fill="none" xmlns="http://www.w3.org/2000/svg">
<g clip-path="url(#clip0_3565_2396)">
<rect width="367" height="206" fill="#B7ABFF"/>
<path d="M183.5 120.5C164.967 120.5 150 105.533 150 86.9999C150 68.4668 164.967 53.5 183.5 53.5C202.033 53.5 217 68.4668 217 86.9999C217 105.533 202.033 120.5 183.5 120.5Z" fill="black"/>
<path d="M201.412 82.0303H194.841V91.948H201.412C204.137 91.948 206.401 89.684 206.401 86.9591C206.401 84.2142 204.137 82.0303 201.412 82.0303Z" fill="#FFF100"/>
<path d="M162.641 86.9998C162.641 94.6535 168.872 100.885 176.526 100.885C184.18 100.885 190.411 94.6535 190.411 86.9998C190.411 79.3461 184.18 73.115 176.526 73.115C168.872 73.115 162.641 79.3461 162.641 86.9998Z" fill="#FFF100"/>
<path d="M127.012 144.151C127.012 138.884 123.792 138.171 120.595 138.171H119.1V150.154H120.595C123.792 150.154 127.012 149.418 127.012 144.151ZM116.179 135.825H120.733C126 135.825 130.048 137.642 130.048 144.151C130.048 150.66 126 152.5 120.733 152.5H116.179V135.825ZM140.163 152.5V150.798C139.45 152.086 138.185 152.799 136.506 152.799C133.562 152.799 132.366 150.867 132.366 147.923V140.126H135.103V147.256C135.103 148.935 135.333 150.568 137.38 150.568C139.427 150.568 140.163 148.958 140.163 146.727V140.126H142.9V152.5H140.163ZM151.202 139.85C153.916 139.85 156.262 141.621 156.745 144.358H154.077C153.824 143.047 152.697 142.127 151.202 142.127C149.477 142.127 147.959 143.392 147.959 146.313C147.959 149.257 149.523 150.522 151.133 150.522C152.49 150.522 153.801 149.924 154.169 148.268H156.837C156.285 151.166 153.732 152.799 151.087 152.799C147.499 152.799 145.13 150.016 145.13 146.336C145.13 142.656 147.499 139.85 151.202 139.85ZM158.964 135.825H161.701V145.094L166.278 140.126H169.567L164.829 145.209L170.096 152.5H166.899L163.012 147.141L161.701 148.544V152.5H158.964V135.825ZM182.243 144.151C182.243 138.884 179.023 138.171 175.826 138.171H174.331V150.154H175.826C179.023 150.154 182.243 149.418 182.243 144.151ZM171.41 135.825H175.964C181.231 135.825 185.279 137.642 185.279 144.151C185.279 150.66 181.231 152.5 175.964 152.5H171.41V135.825ZM187.942 152.5V135.825H194.221C197.257 135.825 200.224 136.653 200.224 140.08C200.224 141.644 199.35 143.024 198.361 143.645C199.741 144.266 200.868 145.347 200.868 147.555C200.868 151.143 198.039 152.5 194.635 152.5H187.942ZM190.863 145.025V150.154H194.75C196.843 150.154 197.855 149.211 197.855 147.555C197.855 145.83 196.82 145.025 194.589 145.025H190.863ZM190.863 138.171V142.794H194.497C196.222 142.794 197.257 142.058 197.257 140.402C197.257 138.93 196.153 138.171 194.497 138.171H190.863ZM213.367 152.5H210.63V139.804H206.904V137.918C209.319 137.849 210.492 137.642 211.343 135.825H213.367V152.5ZM218.843 152.5H215.715V149.372H218.843V152.5ZM226.218 150.683C228.633 150.683 230.013 148.383 230.013 144.151C230.013 139.919 228.633 137.619 226.218 137.619C223.826 137.619 222.446 139.919 222.446 144.151C222.446 148.383 223.826 150.683 226.218 150.683ZM226.218 152.799C221.802 152.799 219.594 149.28 219.594 144.151C219.594 139.068 221.802 135.526 226.218 135.526C230.68 135.526 232.865 139.068 232.865 144.151C232.865 149.28 230.68 152.799 226.218 152.799ZM236.721 152.5H233.593V149.372H236.721V152.5ZM244.097 150.683C246.512 150.683 247.892 148.383 247.892 144.151C247.892 139.919 246.512 137.619 244.097 137.619C241.705 137.619 240.325 139.919 240.325 144.151C240.325 148.383 241.705 150.683 244.097 150.683ZM244.097 152.799C239.681 152.799 237.473 149.28 237.473 144.151C237.473 139.068 239.681 135.526 244.097 135.526C248.559 135.526 250.744 139.068 250.744 144.151C250.744 149.28 248.559 152.799 244.097 152.799Z" fill="black"/>
<path d="M170 12.5088L170 -31L-19 -31L-19 120L44 120C55.0457 120 64 111.046 64 100L64 52.5088C64 41.4631 72.9543 32.5088 84 32.5088L150 32.5088C161.046 32.5088 170 23.5545 170 12.5088Z" fill="#A293FF"/>
<path d="M335.983 150.352L335.983 -7.00001L400 -7L400 258.5L180 258.5L180 253.5C180 242.454 188.954 233.5 200 233.5L229.584 233.5C240.629 233.5 249.584 224.546 249.584 213.5L249.584 190.352C249.584 179.306 258.538 170.352 269.584 170.352L315.983 170.352C327.029 170.352 335.983 161.397 335.983 150.352Z" fill="#A293FF"/>
</g>
<defs>
<clipPath id="clip0_3565_2396">
<rect width="367" height="206" fill="white"/>
</clipPath>
</defs>
</svg>
