<svg width="367" height="206" viewBox="0 0 367 206" fill="none" xmlns="http://www.w3.org/2000/svg">
<g clip-path="url(#clip0_3595_2263)">
<rect width="367" height="206" fill="#2EAFFF"/>
<path d="M165 163.5L297 163.5C308.046 163.5 317 154.546 317 143.5L317 -21L385 -21L385 206L145 206L145 183.5C145 172.454 153.954 163.5 165 163.5Z" fill="#1095E7"/>
<path d="M175 26.3794L175 -1L-5 -1.00002L-5.00002 180L29 180C40.0457 180 49 171.046 49 160L49 66.3794C49 55.3337 57.9543 46.3794 69 46.3794L155 46.3794C166.046 46.3794 175 37.4251 175 26.3794Z" fill="#1095E7"/>
<path d="M330 174L437.693 174L477 174C488.046 174 497 182.954 497 194L497 256C497 267.046 488.046 276 477 276L330 276C318.954 276 310 267.046 310 256L310 194C310 182.954 318.954 174 330 174Z" fill="#2EAFFF"/>
<path fill-rule="evenodd" clip-rule="evenodd" d="M155.352 113.54L127.465 67.6136C126.841 66.5868 125.301 66.5868 124.677 67.6136L100.978 106.643C100.561 107.33 101.313 108.122 102.06 107.785C102.367 107.646 102.721 107.506 103.11 107.366L103.102 107.382C103.102 107.382 103.75 107.14 104.844 106.806C106.049 106.449 107.371 106.111 108.567 105.826C111.914 105.082 116.3 104.476 120.255 105.108C123.895 105.69 126.43 106.63 128.276 107.553C129.122 107.977 129.922 106.913 129.238 106.272C126.591 103.795 122.518 100.804 116.323 99.5501C116.051 99.4953 115.915 99.2006 116.056 98.97L125.386 83.6043C125.692 83.0995 126.45 83.0995 126.756 83.6043L144.575 112.95C144.951 113.568 144.636 114.357 143.931 114.585C142.535 115.034 140.867 115.371 139 115.371C137.812 115.371 136.617 115.236 135.419 114.967C135.419 114.967 131.966 114.443 127.35 111.79C122.735 109.138 113.836 105.755 103.85 111.232C99.5957 113.866 96.7608 117.467 95.267 119.729C95.033 120.083 95.4369 120.505 95.8212 120.307C99.2521 118.542 108.503 114.372 116.838 115.871C121.793 116.762 127.455 120.365 133.34 122.43C143.077 125.906 152.622 120.083 152.643 120.071C153.652 119.428 154.245 118.94 154.346 118.856L154.467 118.753C156.023 117.445 156.394 115.257 155.352 113.54Z" fill="black"/>
<path fill-rule="evenodd" clip-rule="evenodd" d="M83.465 129.322C85.0382 129.322 86.3263 129.734 87.3285 130.558C87.8697 131.006 88.2807 131.539 88.5614 132.157C88.8416 132.775 88.9819 133.469 88.9819 134.239C88.9819 135.01 88.8416 135.706 88.5614 136.328C88.2807 136.951 87.8697 137.486 87.3285 137.934C86.8272 138.337 86.2539 138.641 85.6072 138.847C84.9609 139.053 84.2467 139.156 83.465 139.156H79.3606C79.2605 139.156 79.1753 139.125 79.1051 139.062C79.0348 139 79 138.924 79 138.834V129.644C79 129.555 79.0348 129.479 79.1051 129.416C79.1753 129.353 79.2605 129.322 79.3606 129.322H83.465ZM98.3178 129.322C98.418 129.322 98.5032 129.353 98.5734 129.416C98.6436 129.479 98.6788 129.555 98.6788 129.644V131.471C98.6788 131.561 98.6436 131.637 98.5734 131.7C98.5032 131.763 98.418 131.794 98.3178 131.794H93.6426C93.5425 131.794 93.4573 131.825 93.3871 131.888C93.3168 131.951 93.282 132.027 93.282 132.116V132.681C93.282 132.77 93.3168 132.847 93.3871 132.909C93.4573 132.972 93.5425 133.003 93.6426 133.003H97.7167C97.8169 133.003 97.9021 133.034 97.9721 133.097C98.0424 133.16 98.0772 133.236 98.0772 133.326V135.18C98.0772 135.269 98.0424 135.345 97.9721 135.408C97.9021 135.471 97.8169 135.502 97.7167 135.502H93.6426C93.5425 135.502 93.4573 135.533 93.3871 135.596C93.3168 135.659 93.282 135.735 93.282 135.824V136.335C93.282 136.425 93.3168 136.501 93.3871 136.563C93.4573 136.626 93.5425 136.657 93.6426 136.657H98.3178C98.418 136.657 98.5032 136.689 98.5734 136.752C98.6436 136.814 98.6788 136.89 98.6788 136.98V138.834C98.6788 138.924 98.6436 139 98.5734 139.062C98.5032 139.125 98.418 139.156 98.3178 139.156H90.6659C90.5658 139.156 90.4806 139.125 90.4104 139.062C90.3401 139 90.3053 138.924 90.3053 138.834V129.644C90.3053 129.555 90.3401 129.479 90.4104 129.416C90.4806 129.353 90.5658 129.322 90.6659 129.322H98.3178ZM103.189 129.322C103.289 129.322 103.374 129.353 103.444 129.416C103.514 129.479 103.55 129.555 103.55 129.644V136.362C103.55 136.452 103.582 136.528 103.647 136.59C103.712 136.653 103.8 136.684 103.91 136.684H108.435C108.535 136.684 108.621 136.716 108.691 136.778C108.761 136.841 108.796 136.917 108.796 137.007V138.834C108.796 138.924 108.761 139 108.691 139.062C108.621 139.125 108.535 139.156 108.435 139.156H100.933C100.823 139.156 100.736 139.125 100.671 139.062C100.605 139 100.573 138.924 100.573 138.834V129.644C100.573 129.555 100.605 129.479 100.671 129.416C100.736 129.353 100.823 129.322 100.933 129.322H103.189ZM115.787 129.322C115.897 129.322 115.984 129.353 116.05 129.416C116.115 129.479 116.147 129.555 116.147 129.644V131.471C116.147 131.561 116.115 131.637 116.05 131.7C115.984 131.763 115.897 131.794 115.787 131.794H113.682C113.581 131.794 113.496 131.825 113.426 131.888C113.356 131.951 113.321 132.027 113.321 132.117V138.834C113.321 138.924 113.288 139 113.224 139.062C113.158 139.125 113.07 139.156 112.96 139.156H110.705C110.605 139.156 110.52 139.125 110.45 139.062C110.38 139 110.344 138.924 110.344 138.834V132.117C110.344 132.027 110.312 131.951 110.247 131.888C110.181 131.825 110.094 131.794 109.984 131.794H107.849C107.749 131.794 107.663 131.763 107.594 131.7C107.523 131.637 107.488 131.561 107.488 131.471V129.644C107.488 129.555 107.523 129.479 107.594 129.416C107.663 129.353 107.749 129.322 107.849 129.322H115.787ZM121.996 129.336C122.095 129.336 122.193 129.365 122.289 129.423C122.384 129.481 122.451 129.55 122.491 129.631L126.881 138.767C126.921 138.847 126.914 138.932 126.859 139.022C126.804 139.112 126.696 139.156 126.535 139.156H123.965C123.854 139.156 123.752 139.127 123.657 139.069C123.561 139.011 123.489 138.941 123.439 138.861L123.033 138.055C122.983 137.974 122.91 137.905 122.815 137.846C122.72 137.788 122.622 137.759 122.522 137.759H119.35C119.239 137.759 119.136 137.788 119.041 137.846C118.946 137.905 118.879 137.974 118.838 138.055L118.417 138.861C118.377 138.941 118.31 139.011 118.215 139.069C118.119 139.127 118.021 139.156 117.921 139.156H115.335C115.286 139.156 115.233 139.147 115.178 139.129C115.123 139.112 115.078 139.085 115.042 139.049C115.008 139.013 114.985 138.968 114.975 138.915C114.965 138.861 114.98 138.798 115.02 138.726L119.379 129.631C119.42 129.55 119.487 129.481 119.583 129.423C119.678 129.365 119.78 129.336 119.891 129.336H121.996ZM135.676 129.322C135.775 129.322 135.861 129.353 135.931 129.416C136.001 129.479 136.036 129.555 136.036 129.644V136.362C136.036 136.452 136.069 136.528 136.134 136.59C136.199 136.653 136.286 136.684 136.397 136.684H140.922C141.022 136.684 141.107 136.716 141.178 136.778C141.248 136.841 141.283 136.917 141.283 137.007V138.834C141.283 138.924 141.248 139 141.178 139.062C141.107 139.125 141.022 139.156 140.922 139.156H133.42C133.31 139.156 133.222 139.125 133.158 139.062C133.092 139 133.06 138.924 133.06 138.834V129.644C133.06 129.555 133.092 129.479 133.158 129.416C133.222 129.353 133.31 129.322 133.42 129.322H135.676ZM148.529 129.336C148.628 129.336 148.727 129.365 148.822 129.423C148.917 129.481 148.984 129.55 149.024 129.631L153.415 138.767C153.454 138.847 153.447 138.932 153.392 139.022C153.337 139.112 153.229 139.156 153.068 139.156H150.498C150.387 139.156 150.285 139.127 150.19 139.069C150.095 139.011 150.022 138.941 149.972 138.861L149.566 138.055C149.516 137.974 149.443 137.905 149.348 137.846C149.253 137.788 149.155 137.759 149.055 137.759H145.883C145.772 137.759 145.67 137.788 145.575 137.846C145.479 137.905 145.412 137.974 145.372 138.055L144.95 138.861C144.91 138.941 144.843 139.011 144.748 139.069C144.653 139.127 144.554 139.156 144.455 139.156H141.869C141.819 139.156 141.766 139.147 141.711 139.129C141.656 139.112 141.611 139.085 141.576 139.049C141.541 139.013 141.518 138.968 141.508 138.915C141.498 138.861 141.514 138.798 141.553 138.726L145.913 129.631C145.953 129.55 146.021 129.481 146.116 129.423C146.211 129.365 146.314 129.336 146.424 129.336H148.529ZM157.128 129.322C157.228 129.322 157.313 129.353 157.383 129.416C157.453 129.479 157.488 129.555 157.488 129.644V132.734C157.488 132.824 157.508 132.876 157.549 132.889C157.588 132.902 157.639 132.873 157.699 132.802L160.405 129.591C160.465 129.519 160.55 129.459 160.66 129.409C160.77 129.36 160.881 129.336 160.991 129.336H163.862C163.973 129.336 164.043 129.378 164.073 129.463C164.103 129.548 164.088 129.626 164.028 129.698L160.074 134.118C160.014 134.19 159.986 134.273 159.991 134.367C159.996 134.461 160.034 134.539 160.104 134.602C160.444 134.933 160.806 135.278 161.187 135.636C161.567 135.995 161.946 136.355 162.321 136.718C162.697 137.081 163.068 137.439 163.434 137.793C163.799 138.147 164.148 138.476 164.479 138.78C164.548 138.852 164.574 138.932 164.554 139.022C164.534 139.111 164.469 139.156 164.358 139.156H161.247C161.136 139.156 161.024 139.134 160.908 139.089C160.793 139.044 160.705 138.986 160.645 138.915L157.729 135.999C157.659 135.927 157.601 135.901 157.556 135.918C157.511 135.936 157.488 135.99 157.488 136.08V138.834C157.488 138.924 157.453 139 157.383 139.062C157.313 139.125 157.228 139.156 157.128 139.156H154.872C154.762 139.156 154.674 139.125 154.609 139.062C154.544 139 154.512 138.924 154.512 138.834V129.644C154.512 129.555 154.544 129.479 154.609 129.416C154.674 129.353 154.762 129.322 154.872 129.322H157.128ZM173.514 129.322C173.614 129.322 173.699 129.353 173.769 129.416C173.839 129.479 173.874 129.555 173.874 129.644V131.471C173.874 131.561 173.839 131.637 173.769 131.7C173.699 131.763 173.614 131.794 173.514 131.794H168.838C168.738 131.794 168.653 131.825 168.583 131.888C168.512 131.951 168.477 132.027 168.477 132.116V132.681C168.477 132.77 168.512 132.847 168.583 132.909C168.653 132.972 168.738 133.003 168.838 133.003H172.912C173.012 133.003 173.097 133.034 173.168 133.097C173.238 133.16 173.273 133.236 173.273 133.326V135.18C173.273 135.269 173.238 135.345 173.168 135.408C173.097 135.471 173.012 135.502 172.912 135.502H168.838C168.738 135.502 168.653 135.533 168.583 135.596C168.512 135.659 168.477 135.735 168.477 135.824V136.335C168.477 136.425 168.512 136.501 168.583 136.563C168.653 136.626 168.738 136.657 168.838 136.657H173.514C173.614 136.657 173.699 136.689 173.769 136.752C173.839 136.814 173.874 136.89 173.874 136.98V138.834C173.874 138.924 173.839 139 173.769 139.062C173.699 139.125 173.614 139.156 173.514 139.156H165.862C165.761 139.156 165.676 139.125 165.606 139.062C165.536 139 165.501 138.924 165.501 138.834V129.644C165.501 129.555 165.536 129.479 165.606 129.416C165.676 129.353 165.761 129.322 165.862 129.322H173.514ZM83.465 131.821H82.3373C82.2372 131.821 82.152 131.852 82.0818 131.915C82.0115 131.978 81.9767 132.054 81.9767 132.143V136.362C81.9767 136.452 82.0115 136.528 82.0818 136.59C82.152 136.653 82.2372 136.684 82.3373 136.684H83.465C83.7454 136.684 84.0362 136.653 84.3368 136.59C84.6374 136.528 84.908 136.409 85.1486 136.234C85.389 136.06 85.5868 135.813 85.7425 135.495C85.8976 135.177 85.9757 134.763 85.9757 134.253C85.9757 133.742 85.8976 133.328 85.7425 133.01C85.5868 132.692 85.3865 132.446 85.1411 132.271C84.8956 132.096 84.625 131.978 84.3293 131.915C84.0336 131.852 83.7454 131.821 83.465 131.821ZM120.928 133.433C120.878 133.433 120.833 133.473 120.793 133.554L120.041 135.18C120.001 135.26 120.001 135.33 120.041 135.388C120.081 135.446 120.156 135.475 120.267 135.475H121.605C121.705 135.475 121.778 135.446 121.823 135.388C121.868 135.33 121.865 135.26 121.815 135.18C121.715 134.956 121.594 134.694 121.454 134.394C121.314 134.094 121.183 133.814 121.063 133.554C121.023 133.473 120.978 133.433 120.928 133.433ZM147.461 133.433C147.411 133.433 147.366 133.473 147.326 133.554L146.574 135.18C146.534 135.26 146.534 135.33 146.574 135.388C146.614 135.446 146.69 135.475 146.8 135.475H148.138C148.238 135.475 148.311 135.446 148.356 135.388C148.401 135.33 148.398 135.26 148.348 135.18C148.248 134.956 148.127 134.694 147.987 134.394C147.847 134.094 147.717 133.814 147.597 133.554C147.556 133.473 147.511 133.433 147.461 133.433Z" fill="black"/>
<path d="M245.937 145.063C222.667 145.063 203.874 126.27 203.874 103C203.874 79.7295 222.667 60.937 245.937 60.937C269.207 60.937 288 79.7295 288 103C288 126.27 269.207 145.063 245.937 145.063Z" fill="black"/>
<path d="M268.428 96.7603H260.176V109.213H268.428C271.849 109.213 274.692 106.37 274.692 102.949C274.692 99.5024 271.849 96.7603 268.428 96.7603Z" fill="#2EAFFF"/>
<path d="M219.746 103C219.746 112.61 227.57 120.434 237.18 120.434C246.791 120.434 254.614 112.61 254.614 103C254.614 93.3901 246.791 85.5662 237.18 85.5662C227.57 85.5662 219.746 93.3901 219.746 103Z" fill="#2EAFFF"/>
</g>
<defs>
<clipPath id="clip0_3595_2263">
<rect width="367" height="206" fill="white"/>
</clipPath>
</defs>
</svg>
