<svg width="367" height="206" viewBox="0 0 367 206" fill="none" xmlns="http://www.w3.org/2000/svg">
<g clip-path="url(#clip0_3649_9441)">
<rect width="367" height="206" fill="#E646C0"/>
<path d="M79 173L178.5 173C189.546 173 198.5 164.046 198.5 153L198.5 90.4999C198.5 79.4542 207.455 70.5 218.5 70.5L382 70.5L382 206L59.0001 206L59 193C59 181.954 67.9543 173 79 173Z" fill="#C7189C"/>
<path d="M126.429 59.464C128.038 56.0002 132.962 56.0002 134.571 59.464L145.314 82.5967C145.968 84.0049 147.303 84.9751 148.844 85.1619L174.165 88.2307C177.956 88.6902 179.478 93.3735 176.681 95.9737L158 113.339C156.863 114.396 156.353 115.966 156.651 117.49L161.557 142.519C162.292 146.267 158.308 149.161 154.97 147.305L132.682 134.905C131.325 134.15 129.675 134.15 128.318 134.905L106.03 147.305C102.692 149.161 98.7084 146.267 99.443 142.519L104.349 117.49C104.647 115.966 104.137 114.396 103 113.339L84.3194 95.9737C81.5222 93.3735 83.0439 88.6902 86.8353 88.2307L112.156 85.1619C113.697 84.9751 115.032 84.0049 115.686 82.5967L126.429 59.464Z" fill="black"/>
<path d="M124.781 99.9102C124.781 103.425 121.244 106.629 116.581 109.923H125.201V112H113.597V110.011C119.1 105.834 122.371 102.916 122.371 100.153C122.371 98.5399 121.288 97.5232 119.564 97.5232C117.929 97.5232 116.36 98.4515 116.337 101.037H113.995C113.95 97.8326 116.183 95.6887 119.631 95.6887C122.592 95.6887 124.781 97.1916 124.781 99.9102ZM126.858 103.977C126.858 98.9819 128.892 95.6887 133.158 95.6887C137.445 95.6887 139.457 98.9819 139.457 103.977C139.457 108.994 137.445 112.288 133.158 112.288C128.892 112.288 126.858 108.994 126.858 103.977ZM137.025 103.977C137.025 99.7334 135.589 97.5232 133.158 97.5232C130.748 97.5232 129.29 99.7334 129.29 103.977C129.29 108.243 130.748 110.431 133.158 110.431C135.589 110.431 137.025 108.243 137.025 103.977ZM144.301 95.976V105.193L149.031 100.109H151.838L147.219 105.016L152.17 112H149.429L145.649 106.674L144.301 108.11V112H142.003V95.976H144.301Z" fill="#E646C0"/>
<path d="M225.516 94.526C229.265 94.526 231.841 96.55 232.554 100.115H229.771C229.219 98.068 227.655 96.918 225.447 96.918C222.595 96.918 220.525 99.011 220.525 103.105C220.525 107.153 222.48 109.407 225.424 109.407C227.402 109.407 229.886 108.533 229.886 105.566V105.244H225.631V102.783H232.6V111.5H230.3L230.208 109.499C229.219 110.971 227.402 111.799 225.102 111.799C220.364 111.799 217.512 108.349 217.512 103.105C217.512 97.93 220.548 94.526 225.516 94.526ZM235.605 94.825H238.342V97.585H235.605V94.825ZM235.605 99.126H238.342V111.5H235.605V99.126ZM241.814 99.126V95.86H244.551V99.126H247.035V101.104H244.551V107.843C244.551 109.108 244.85 109.407 246.023 109.407H247.012V111.5H244.988C242.343 111.5 241.814 110.787 241.814 108.257V101.104H239.974V99.126H241.814ZM260.256 94.825H263.177V111.5H260.256V104.14H252.298V111.5H249.377V94.825H252.298V101.725H260.256V94.825ZM274.035 111.5V109.798C273.322 111.086 272.057 111.799 270.378 111.799C267.434 111.799 266.238 109.867 266.238 106.923V99.126H268.975V106.256C268.975 107.935 269.205 109.568 271.252 109.568C273.299 109.568 274.035 107.958 274.035 105.727V99.126H276.772V111.5H274.035ZM282.476 105.313C282.476 108.165 283.879 109.568 285.673 109.568C287.513 109.568 288.801 107.958 288.801 105.313C288.801 102.737 287.513 101.081 285.673 101.081C283.879 101.081 282.476 102.461 282.476 105.313ZM279.854 94.825H282.591V100.782C283.327 99.563 284.615 98.85 286.271 98.85C289.215 98.85 291.653 101.357 291.653 105.313C291.653 109.292 289.215 111.799 286.271 111.799C284.615 111.799 283.327 111.086 282.591 109.867V111.5H279.854V94.825Z" fill="black"/>
<path d="M417.5 21.5L417.5 -0.999985L-4.99996 -1.00002L-4.99997 107L29.0001 107C40.0457 107 49.0001 98.0457 49.0001 87L49.0001 61.5C49.0001 50.4543 57.9544 41.5 69.0001 41.5L397.5 41.5C408.546 41.5 417.5 32.5457 417.5 21.5Z" fill="#C7189C"/>
<path d="M281 138L405.081 138L452 138C463.046 138 472 146.954 472 158L472 343C472 354.046 463.046 363 452 363L281 363C269.954 363 261 354.046 261 343L261 158C261 146.954 269.954 138 281 138Z" fill="#E646C0"/>
</g>
<defs>
<clipPath id="clip0_3649_9441">
<rect width="367" height="206" fill="white"/>
</clipPath>
</defs>
</svg>
