<svg xmlns="http://www.w3.org/2000/svg" width="367" height="206" fill="none" viewBox="0 0 367 206"><g clip-path="url(#clip0_3611_2620)"><rect width="367" height="206" fill="#FF6900"/><rect width="65" height="65" x="108.5" y="70.5" fill="#000" rx="10"/><path fill="#FF6900" d="M139.371 82.9285H141.9V86.2244C148.266 86.8565 152.329 90.92 152.329 96.8798H147.001C146.956 92.7712 144.654 90.7846 141.9 90.2879V100.492L142.396 100.582C147.227 101.801 152.916 103.788 152.916 110.289C152.916 116.43 147.769 119.681 141.9 120.042V123.834H139.371V120.042C132.915 119.545 128.4 115.075 128.535 108.799H133.863C133.863 113.314 136.482 115.572 139.371 115.933V104.871L137.926 104.51C133.231 103.291 129.167 100.672 129.167 95.1641C129.167 89.4301 134.269 86.5856 139.371 86.2244V82.9285ZM147.724 110.741C147.724 107.626 145.512 106.587 141.9 105.503V115.978C145.015 115.843 147.724 114.082 147.724 110.741ZM134.359 94.9835C134.359 97.5119 136.165 99.1373 139.055 99.8146L139.371 99.9049V90.1976C136.843 90.3331 134.359 91.9133 134.359 94.9835Z"/><rect width="65" height="65" x="193.5" y="70.5" fill="#000" rx="10"/><path fill="#FF6900" d="M234.062 103.111C234.062 92.7712 227.741 91.3715 221.465 91.3715H218.53V114.895H221.465C227.741 114.895 234.062 113.45 234.062 103.111ZM212.796 86.7662H221.736C232.075 86.7662 240.021 90.3331 240.021 103.111C240.021 115.888 232.075 119.5 221.736 119.5H212.796V86.7662Z"/><path fill="#E35400" d="M202 26.3794L202 -0.999985L-5.00001 -1L-5.00003 180L43 180C54.0457 180 63 171.046 63 160L63 66.3794C63 55.3337 71.9543 46.3794 83 46.3794L182 46.3794C193.046 46.3794 202 37.4251 202 26.3794Z"/><path fill="#E35400" d="M273.5 176L161 176C149.954 176 141 184.954 141 196L141 224.5C141 235.546 149.954 244.5 161 244.5L346.5 244.5C357.546 244.5 366.5 235.546 366.5 224.5L366.5 -19.8936C366.5 -30.1696 358.17 -38.5 347.894 -38.5C337.618 -38.5 329.287 -30.1696 329.287 -19.8936L329.287 54.1064C329.287 63.9888 321.276 72 311.394 72C301.511 72 293.5 80.0112 293.5 89.8936L293.5 156C293.5 167.046 284.546 176 273.5 176Z"/><path fill="#FF6900" fill-rule="evenodd" d="M335 120C335 108.954 343.954 100 355 100L388 100C399.046 100 408 108.954 408 120L408 318.406C408 318.41 408 318.415 408 318.419L408 366.893L408 424.111C408 424.115 408 424.12 408 424.124L408 481C408 492.046 399.046 501 388 501L304 501C292.954 501 284 492.046 284 481L284 318.419C284 307.373 292.954 298.419 304 298.419L315 298.419C326.046 298.419 335 289.464 335 278.419L335 120Z" clip-rule="evenodd"/></g><defs><clipPath id="clip0_3611_2620"><rect width="367" height="206" fill="#fff"/></clipPath></defs></svg>