<svg xmlns="http://www.w3.org/2000/svg" width="367" height="206" fill="none" viewBox="0 0 367 206"><g clip-path="url(#clip0_3595_2263)"><rect width="367" height="206" fill="#2EAFFF"/><path fill="#1095E7" d="M165 163.5L297 163.5C308.046 163.5 317 154.546 317 143.5L317 -21L385 -21L385 206L145 206L145 183.5C145 172.454 153.954 163.5 165 163.5Z"/><path fill="#1095E7" d="M175 26.3794L175 -1L-5 -1.00002L-5.00002 180L29 180C40.0457 180 49 171.046 49 160L49 66.3794C49 55.3337 57.9543 46.3794 69 46.3794L155 46.3794C166.046 46.3794 175 37.4251 175 26.3794Z"/><path fill="#2EAFFF" d="M330 174L437.693 174L477 174C488.046 174 497 182.954 497 194L497 256C497 267.046 488.046 276 477 276L330 276C318.954 276 310 267.046 310 256L310 194C310 182.954 318.954 174 330 174Z"/><path fill="#000" fill-rule="evenodd" d="M160.715 112.374L135.914 71.5299C135.359 70.6167 133.989 70.6167 133.435 71.5299L112.358 106.24C111.988 106.851 112.656 107.555 113.321 107.255C113.594 107.132 113.909 107.007 114.254 106.883L114.247 106.897C114.247 106.897 114.823 106.682 115.796 106.385C116.869 106.067 118.044 105.767 119.108 105.513C122.084 104.851 125.985 104.312 129.502 104.875C132.739 105.392 134.994 106.228 136.635 107.05C137.388 107.427 138.099 106.48 137.491 105.91C135.136 103.707 131.514 101.047 126.005 99.9321C125.764 99.8833 125.643 99.6212 125.767 99.4161L134.065 85.7509C134.338 85.302 135.011 85.302 135.284 85.7509L151.131 111.849C151.465 112.399 151.185 113.101 150.558 113.303C149.316 113.703 147.833 114.002 146.172 114.002C145.116 114.002 144.053 113.882 142.988 113.643C142.988 113.643 139.917 113.176 135.812 110.818C131.707 108.459 123.793 105.45 114.913 110.321C111.129 112.663 108.608 115.867 107.279 117.878C107.071 118.192 107.431 118.568 107.772 118.392C110.823 116.822 119.05 113.114 126.463 114.447C130.87 115.239 135.905 118.443 141.139 120.28C149.798 123.371 158.287 118.193 158.306 118.182C159.203 117.611 159.73 117.176 159.82 117.101L159.928 117.01C161.312 115.847 161.642 113.901 160.715 112.374Z" clip-rule="evenodd"/><path fill="#000" fill-rule="evenodd" d="M96.7835 126.409C98.1826 126.409 99.3281 126.776 100.219 127.508C100.701 127.907 101.066 128.381 101.316 128.93C101.565 129.48 101.69 130.097 101.69 130.782C101.69 131.467 101.565 132.086 101.316 132.64C101.066 133.194 100.701 133.67 100.219 134.068C99.7736 134.426 99.2637 134.697 98.6886 134.88C98.1138 135.064 97.4787 135.155 96.7835 135.155H93.1334C93.0443 135.155 92.9685 135.127 92.9061 135.072C92.8436 135.016 92.8126 134.948 92.8126 134.868V126.696C92.8126 126.616 92.8436 126.548 92.9061 126.493C92.9685 126.437 93.0443 126.409 93.1334 126.409H96.7835ZM109.993 126.409C110.082 126.409 110.157 126.437 110.22 126.493C110.282 126.548 110.314 126.616 110.314 126.696V128.321C110.314 128.401 110.282 128.468 110.22 128.524C110.157 128.58 110.082 128.607 109.993 128.607H105.835C105.746 128.607 105.67 128.636 105.608 128.691C105.545 128.747 105.514 128.815 105.514 128.894V129.396C105.514 129.476 105.545 129.544 105.608 129.599C105.67 129.655 105.746 129.683 105.835 129.683H109.458C109.547 129.683 109.623 129.711 109.685 129.767C109.748 129.822 109.779 129.89 109.779 129.97V131.618C109.779 131.698 109.748 131.766 109.685 131.822C109.623 131.877 109.547 131.905 109.458 131.905H105.835C105.746 131.905 105.67 131.933 105.608 131.989C105.545 132.045 105.514 132.112 105.514 132.192V132.646C105.514 132.726 105.545 132.793 105.608 132.849C105.67 132.905 105.746 132.933 105.835 132.933H109.993C110.082 132.933 110.157 132.961 110.22 133.016C110.282 133.072 110.314 133.14 110.314 133.22V134.868C110.314 134.948 110.282 135.016 110.22 135.071C110.157 135.127 110.082 135.155 109.993 135.155H103.188C103.098 135.155 103.023 135.127 102.96 135.071C102.898 135.016 102.867 134.948 102.867 134.868V126.696C102.867 126.616 102.898 126.548 102.96 126.493C103.023 126.437 103.098 126.409 103.188 126.409H109.993ZM114.324 126.409C114.413 126.409 114.489 126.437 114.552 126.493C114.614 126.548 114.645 126.616 114.645 126.696V132.67C114.645 132.75 114.674 132.817 114.732 132.873C114.79 132.929 114.868 132.957 114.966 132.957H118.99C119.08 132.957 119.155 132.985 119.218 133.04C119.28 133.096 119.311 133.164 119.311 133.243V134.868C119.311 134.948 119.28 135.016 119.218 135.071C119.155 135.127 119.08 135.155 118.99 135.155H112.319C112.221 135.155 112.143 135.127 112.085 135.071C112.027 135.016 111.998 134.948 111.998 134.868V126.696C111.998 126.616 112.027 126.548 112.085 126.493C112.143 126.437 112.221 126.409 112.319 126.409H114.324ZM125.528 126.409C125.626 126.409 125.704 126.437 125.762 126.493C125.82 126.548 125.849 126.616 125.849 126.696V128.321C125.849 128.4 125.82 128.468 125.762 128.524C125.704 128.58 125.626 128.608 125.528 128.608H123.656C123.567 128.608 123.491 128.635 123.429 128.691C123.366 128.747 123.336 128.815 123.336 128.894V134.868C123.336 134.948 123.306 135.016 123.249 135.072C123.191 135.127 123.112 135.155 123.015 135.155H121.009C120.92 135.155 120.844 135.127 120.782 135.072C120.72 135.016 120.688 134.948 120.688 134.868V128.894C120.688 128.815 120.659 128.747 120.601 128.691C120.543 128.635 120.465 128.608 120.368 128.608H118.469C118.38 128.608 118.304 128.58 118.242 128.524C118.179 128.468 118.148 128.4 118.148 128.321V126.696C118.148 126.616 118.179 126.548 118.242 126.493C118.304 126.437 118.38 126.409 118.469 126.409H125.528ZM131.05 126.421C131.139 126.421 131.226 126.447 131.311 126.499C131.395 126.551 131.455 126.612 131.491 126.684L135.395 134.809C135.431 134.88 135.424 134.956 135.375 135.036C135.326 135.115 135.23 135.155 135.087 135.155H132.801C132.703 135.155 132.612 135.129 132.527 135.077C132.442 135.026 132.378 134.964 132.333 134.892L131.973 134.175C131.928 134.104 131.863 134.042 131.779 133.99C131.694 133.938 131.607 133.913 131.518 133.913H128.697C128.599 133.913 128.507 133.938 128.423 133.99C128.338 134.042 128.278 134.104 128.242 134.175L127.868 134.892C127.832 134.964 127.772 135.026 127.688 135.077C127.603 135.129 127.516 135.155 127.427 135.155H125.127C125.083 135.155 125.036 135.147 124.987 135.131C124.938 135.115 124.898 135.092 124.866 135.059C124.835 135.028 124.815 134.988 124.806 134.94C124.798 134.892 124.811 134.837 124.846 134.773L128.723 126.684C128.759 126.612 128.819 126.551 128.904 126.499C128.989 126.447 129.08 126.421 129.178 126.421H131.05ZM143.216 126.409C143.305 126.409 143.381 126.437 143.443 126.493C143.505 126.548 143.537 126.616 143.537 126.696V132.67C143.537 132.75 143.566 132.817 143.623 132.873C143.682 132.929 143.759 132.957 143.858 132.957H147.882C147.971 132.957 148.047 132.985 148.109 133.04C148.172 133.096 148.203 133.164 148.203 133.243V134.868C148.203 134.948 148.172 135.016 148.109 135.071C148.047 135.127 147.971 135.155 147.882 135.155H141.21C141.112 135.155 141.034 135.127 140.977 135.071C140.919 135.016 140.89 134.948 140.89 134.868V126.696C140.89 126.616 140.919 126.548 140.977 126.493C141.034 126.437 141.112 126.409 141.21 126.409H143.216ZM154.647 126.421C154.735 126.421 154.823 126.447 154.908 126.499C154.992 126.551 155.052 126.612 155.088 126.684L158.992 134.809C159.027 134.88 159.021 134.956 158.972 135.036C158.923 135.115 158.827 135.155 158.684 135.155H156.398C156.3 135.155 156.209 135.129 156.124 135.077C156.039 135.026 155.975 134.964 155.93 134.892L155.569 134.175C155.525 134.104 155.46 134.042 155.375 133.99C155.291 133.938 155.203 133.913 155.115 133.913H152.294C152.195 133.913 152.104 133.938 152.02 133.99C151.935 134.042 151.875 134.104 151.839 134.175L151.465 134.892C151.429 134.964 151.369 135.026 151.284 135.077C151.2 135.129 151.112 135.155 151.023 135.155H148.724C148.679 135.155 148.633 135.147 148.584 135.131C148.535 135.115 148.495 135.092 148.463 135.059C148.432 135.028 148.412 134.988 148.403 134.94C148.395 134.892 148.408 134.837 148.443 134.773L152.32 126.684C152.356 126.612 152.416 126.551 152.501 126.499C152.586 126.447 152.677 126.421 152.775 126.421H154.647ZM162.294 126.409C162.383 126.409 162.459 126.437 162.521 126.493C162.584 126.548 162.615 126.616 162.615 126.696V129.444C162.615 129.524 162.633 129.569 162.668 129.581C162.704 129.593 162.749 129.567 162.802 129.504L165.209 126.648C165.262 126.584 165.338 126.531 165.436 126.487C165.534 126.443 165.632 126.421 165.73 126.421H168.283C168.382 126.421 168.444 126.459 168.471 126.535C168.497 126.61 168.484 126.68 168.431 126.744L164.915 130.675C164.861 130.739 164.836 130.812 164.841 130.896C164.845 130.979 164.879 131.049 164.941 131.105C165.244 131.399 165.565 131.706 165.904 132.025C166.243 132.343 166.579 132.664 166.913 132.986C167.247 133.309 167.577 133.628 167.903 133.942C168.228 134.257 168.538 134.55 168.832 134.821C168.894 134.884 168.916 134.956 168.899 135.036C168.88 135.115 168.823 135.155 168.725 135.155H165.957C165.859 135.155 165.759 135.135 165.656 135.095C165.554 135.056 165.476 135.004 165.423 134.94L162.829 132.347C162.766 132.284 162.715 132.26 162.675 132.275C162.635 132.292 162.615 132.339 162.615 132.419V134.868C162.615 134.948 162.584 135.016 162.521 135.071C162.459 135.127 162.383 135.155 162.294 135.155H160.289C160.19 135.155 160.112 135.127 160.055 135.071C159.996 135.016 159.968 134.948 159.968 134.868V126.696C159.968 126.616 159.996 126.548 160.055 126.493C160.112 126.437 160.19 126.409 160.289 126.409H162.294ZM176.867 126.409C176.956 126.409 177.032 126.437 177.094 126.493C177.157 126.548 177.187 126.616 177.187 126.696V128.321C177.187 128.401 177.157 128.468 177.094 128.524C177.032 128.58 176.956 128.607 176.867 128.607H172.709C172.619 128.607 172.544 128.636 172.482 128.691C172.419 128.747 172.388 128.815 172.388 128.894V129.396C172.388 129.476 172.419 129.544 172.482 129.599C172.544 129.655 172.619 129.683 172.709 129.683H176.332C176.421 129.683 176.497 129.711 176.559 129.767C176.621 129.822 176.653 129.89 176.653 129.97V131.618C176.653 131.698 176.621 131.766 176.559 131.822C176.497 131.877 176.421 131.905 176.332 131.905H172.709C172.619 131.905 172.544 131.933 172.482 131.989C172.419 132.045 172.388 132.112 172.388 132.192V132.646C172.388 132.726 172.419 132.793 172.482 132.849C172.544 132.905 172.619 132.933 172.709 132.933H176.867C176.956 132.933 177.032 132.961 177.094 133.016C177.157 133.072 177.187 133.14 177.187 133.22V134.868C177.187 134.948 177.157 135.016 177.094 135.071C177.032 135.127 176.956 135.155 176.867 135.155H170.062C169.972 135.155 169.896 135.127 169.834 135.071C169.772 135.016 169.74 134.948 169.74 134.868V126.696C169.74 126.616 169.772 126.548 169.834 126.493C169.896 126.437 169.972 126.409 170.062 126.409H176.867ZM96.7835 128.631H95.7806C95.6916 128.631 95.6158 128.659 95.5533 128.715C95.4909 128.771 95.4599 128.839 95.4599 128.918V132.67C95.4599 132.75 95.4909 132.817 95.5533 132.873C95.6158 132.929 95.6916 132.957 95.7806 132.957H96.7835C97.0329 132.957 97.2915 132.929 97.5588 132.873C97.8262 132.817 98.0668 132.712 98.2808 132.556C98.4946 132.401 98.6704 132.182 98.809 131.899C98.9469 131.617 99.0163 131.248 99.0163 130.794C99.0163 130.34 98.9469 129.972 98.809 129.689C98.6704 129.406 98.4923 129.187 98.2741 129.032C98.0557 128.876 97.8152 128.771 97.5522 128.715C97.2892 128.659 97.0329 128.631 96.7835 128.631ZM130.101 130.065C130.056 130.065 130.016 130.101 129.98 130.173L129.312 131.618C129.276 131.69 129.276 131.752 129.312 131.804C129.347 131.856 129.414 131.881 129.513 131.881H130.702C130.791 131.881 130.856 131.856 130.896 131.804C130.936 131.752 130.934 131.69 130.89 131.618C130.8 131.419 130.693 131.186 130.568 130.919C130.444 130.653 130.328 130.404 130.221 130.173C130.185 130.101 130.145 130.065 130.101 130.065ZM153.697 130.065C153.653 130.065 153.613 130.101 153.577 130.173L152.909 131.618C152.873 131.69 152.873 131.752 152.909 131.804C152.944 131.856 153.011 131.881 153.109 131.881H154.299C154.388 131.881 154.453 131.856 154.493 131.804C154.533 131.752 154.531 131.69 154.486 131.618C154.397 131.419 154.29 131.186 154.165 130.919C154.04 130.653 153.924 130.404 153.818 130.173C153.782 130.101 153.742 130.065 153.697 130.065Z" clip-rule="evenodd"/><path fill="#000" d="M240.687 136.5C222.154 136.5 207.187 121.533 207.187 103C207.187 84.4668 222.154 69.5 240.687 69.5C259.221 69.5 274.187 84.4668 274.187 103C274.187 121.533 259.221 136.5 240.687 136.5Z"/><path fill="#2EAFFF" d="M258.6 98.0305H252.028V107.948H258.6C261.324 107.948 263.589 105.684 263.589 102.959C263.589 100.214 261.324 98.0305 258.6 98.0305Z"/><path fill="#2EAFFF" d="M219.829 103C219.829 110.654 226.06 116.885 233.713 116.885C241.367 116.885 247.598 110.654 247.598 103C247.598 95.3464 241.367 89.1152 233.713 89.1152C226.06 89.1152 219.829 95.3464 219.829 103Z"/></g><defs><clipPath id="clip0_3595_2263"><rect width="367" height="206" fill="#fff"/></clipPath></defs></svg>