<svg xmlns="http://www.w3.org/2000/svg" width="367" height="206" fill="none" viewBox="0 0 367 206"><g clip-path="url(#clip0_3565_2396)"><rect width="367" height="206" fill="#B7ABFF"/><path fill="#000" d="M151 136.5C132.467 136.5 117.5 121.533 117.5 103C117.5 84.4668 132.467 69.5 151 69.5C169.533 69.5 184.5 84.4668 184.5 103C184.5 121.533 169.533 136.5 151 136.5Z"/><path fill="#B7ABFF" d="M168.912 98.0303H162.341V107.948H168.912C171.637 107.948 173.901 105.684 173.901 102.959C173.901 100.214 171.637 98.0303 168.912 98.0303Z"/><path fill="#B7ABFF" d="M130.141 103C130.141 110.654 136.372 116.885 144.026 116.885C151.68 116.885 157.911 110.654 157.911 103C157.911 95.3461 151.68 89.115 144.026 89.115C136.372 89.115 130.141 95.3461 130.141 103Z"/><path fill="#000" d="M210.963 111.5H208.226V98.804H204.5V96.918C206.915 96.849 208.088 96.642 208.939 94.825H210.963V111.5ZM216.438 111.5H213.31V108.372H216.438V111.5ZM223.814 109.683C226.229 109.683 227.609 107.383 227.609 103.151C227.609 98.919 226.229 96.619 223.814 96.619C221.422 96.619 220.042 98.919 220.042 103.151C220.042 107.383 221.422 109.683 223.814 109.683ZM223.814 111.799C219.398 111.799 217.19 108.28 217.19 103.151C217.19 98.068 219.398 94.526 223.814 94.526C228.276 94.526 230.461 98.068 230.461 103.151C230.461 108.28 228.276 111.799 223.814 111.799ZM234.317 111.5H231.189V108.372H234.317V111.5ZM241.692 109.683C244.107 109.683 245.487 107.383 245.487 103.151C245.487 98.919 244.107 96.619 241.692 96.619C239.3 96.619 237.92 98.919 237.92 103.151C237.92 107.383 239.3 109.683 241.692 109.683ZM241.692 111.799C237.276 111.799 235.068 108.28 235.068 103.151C235.068 98.068 237.276 94.526 241.692 94.526C246.154 94.526 248.339 98.068 248.339 103.151C248.339 108.28 246.154 111.799 241.692 111.799Z"/><path fill="#A293FF" d="M170 12.5088L170 -31L-19 -31L-19 120L44 120C55.0457 120 64 111.046 64 100L64 52.5088C64 41.4631 72.9543 32.5088 84 32.5088L150 32.5088C161.046 32.5088 170 23.5545 170 12.5088Z"/><path fill="#A293FF" d="M335.983 150.352L335.983 -7.00001L400 -7L400 258.5L180 258.5L180 253.5C180 242.454 188.954 233.5 200 233.5L229.584 233.5C240.629 233.5 249.584 224.546 249.584 213.5L249.584 190.352C249.584 179.306 258.538 170.352 269.584 170.352L315.983 170.352C327.029 170.352 335.983 161.397 335.983 150.352Z"/></g><defs><clipPath id="clip0_3565_2396"><rect width="367" height="206" fill="#fff"/></clipPath></defs></svg>