<svg width="560" height="240" viewBox="0 0 560 240" fill="none" xmlns="http://www.w3.org/2000/svg">
<g clip-path="url(#clip0_4723_13127)">
<rect width="560" height="240" fill="#FFF100"/>
<g clip-path="url(#clip1_4723_13127)">
<rect width="560" height="240" fill="#FFF100"/>
<path d="M224 49.847L224 -0.999985C224 -12.0457 215.046 -21 204 -21L-26 -21C-37.0457 -21 -46 -12.0457 -46 -1.00001L-46 175C-46 186.046 -37.0457 195 -26 195L52.5714 195C63.6171 195 72.5714 186.046 72.5714 175L72.5714 89.8471C72.5714 78.8014 81.5257 69.8471 92.5714 69.8471L204 69.8471C215.046 69.8471 224 60.8927 224 49.847Z" fill="#EDDE00"/>
<path d="M472.584 123.352L505.5 123.352C516.546 123.352 525.5 114.397 525.5 103.352L525.5 66.9999C525.5 55.9542 516.546 46.9999 505.5 46.9999L454.5 46.9999C443.454 46.9999 434.5 38.0456 434.5 26.9999L434.5 -34.0001C434.5 -45.0458 443.454 -54.0001 454.5 -54.0001L583 -54.0001C594.046 -54.0001 603 -45.0457 603 -34.0001L603 241.5C603 252.546 594.046 261.5 583 261.5L335 261.5C323.954 261.5 315 252.546 315 241.5L315 206.5C315 195.454 323.954 186.5 335 186.5L432.584 186.5C443.629 186.5 452.584 177.546 452.584 166.5L452.584 143.352C452.584 132.306 461.538 123.352 472.584 123.352Z" fill="#EDDE00"/>
</g>
<path fill-rule="evenodd" clip-rule="evenodd" d="M259.715 129.374L234.914 88.5299C234.359 87.6167 232.989 87.6167 232.435 88.5299L211.358 123.24C210.988 123.851 211.656 124.555 212.321 124.255C212.594 124.132 212.908 124.007 213.254 123.883L213.247 123.897C213.247 123.897 213.823 123.682 214.796 123.385C215.868 123.068 217.044 122.767 218.107 122.513C221.084 121.851 224.985 121.312 228.502 121.875C231.739 122.392 233.993 123.228 235.635 124.05C236.388 124.427 237.099 123.48 236.49 122.91C234.136 120.707 230.514 118.047 225.005 116.932C224.763 116.883 224.642 116.621 224.767 116.416L233.065 102.751C233.338 102.302 234.011 102.302 234.284 102.751L250.131 128.849C250.465 129.399 250.185 130.101 249.558 130.303C248.316 130.703 246.833 131.002 245.172 131.002C244.116 131.002 243.053 130.882 241.988 130.643C241.988 130.643 238.917 130.176 234.812 127.818C230.707 125.459 222.793 122.45 213.913 127.321C210.129 129.663 207.608 132.867 206.279 134.878C206.071 135.192 206.43 135.568 206.772 135.392C209.823 133.822 218.05 130.114 225.463 131.447C229.869 132.239 234.905 135.443 240.139 137.28C248.798 140.371 257.287 135.193 257.306 135.182C258.203 134.611 258.73 134.176 258.82 134.101L258.928 134.01C260.312 132.847 260.642 130.901 259.715 129.374Z" fill="black"/>
<path fill-rule="evenodd" clip-rule="evenodd" d="M195.783 143.409C197.182 143.409 198.328 143.776 199.219 144.508C199.701 144.907 200.066 145.381 200.316 145.93C200.565 146.48 200.69 147.097 200.69 147.782C200.69 148.467 200.565 149.087 200.316 149.64C200.066 150.194 199.701 150.67 199.219 151.068C198.773 151.426 198.264 151.697 197.688 151.88C197.114 152.064 196.479 152.155 195.783 152.155H192.133C192.044 152.155 191.968 152.127 191.906 152.072C191.843 152.016 191.812 151.948 191.812 151.868V143.696C191.812 143.616 191.843 143.549 191.906 143.493C191.968 143.437 192.044 143.409 192.133 143.409H195.783ZM208.992 143.409C209.082 143.409 209.157 143.437 209.22 143.493C209.282 143.548 209.314 143.616 209.314 143.696V145.321C209.314 145.401 209.282 145.468 209.22 145.524C209.157 145.58 209.082 145.607 208.992 145.607H204.835C204.746 145.607 204.67 145.636 204.607 145.691C204.545 145.747 204.514 145.815 204.514 145.894V146.396C204.514 146.476 204.545 146.544 204.607 146.599C204.67 146.655 204.746 146.683 204.835 146.683H208.458C208.547 146.683 208.623 146.711 208.685 146.767C208.748 146.822 208.778 146.89 208.778 146.97V148.618C208.778 148.698 208.748 148.766 208.685 148.822C208.623 148.877 208.547 148.905 208.458 148.905H204.835C204.746 148.905 204.67 148.933 204.607 148.989C204.545 149.045 204.514 149.112 204.514 149.192V149.646C204.514 149.726 204.545 149.793 204.607 149.849C204.67 149.905 204.746 149.933 204.835 149.933H208.992C209.082 149.933 209.157 149.961 209.22 150.016C209.282 150.072 209.314 150.14 209.314 150.22V151.868C209.314 151.948 209.282 152.016 209.22 152.071C209.157 152.127 209.082 152.155 208.992 152.155H202.187C202.098 152.155 202.023 152.127 201.96 152.071C201.898 152.016 201.867 151.948 201.867 151.868V143.696C201.867 143.616 201.898 143.548 201.96 143.493C202.023 143.437 202.098 143.409 202.187 143.409H208.992ZM213.324 143.409C213.413 143.409 213.489 143.437 213.552 143.493C213.614 143.548 213.645 143.616 213.645 143.696V149.67C213.645 149.75 213.674 149.817 213.732 149.873C213.79 149.929 213.868 149.957 213.966 149.957H217.99C218.079 149.957 218.155 149.985 218.218 150.04C218.28 150.096 218.311 150.164 218.311 150.243V151.868C218.311 151.948 218.28 152.016 218.218 152.071C218.155 152.127 218.079 152.155 217.99 152.155H211.319C211.22 152.155 211.143 152.127 211.085 152.071C211.027 152.016 210.998 151.948 210.998 151.868V143.696C210.998 143.616 211.027 143.548 211.085 143.493C211.143 143.437 211.22 143.409 211.319 143.409H213.324ZM224.528 143.409C224.626 143.409 224.704 143.437 224.762 143.493C224.82 143.548 224.849 143.616 224.849 143.696V145.321C224.849 145.4 224.82 145.468 224.762 145.524C224.704 145.58 224.626 145.608 224.528 145.608H222.656C222.567 145.608 222.491 145.636 222.429 145.691C222.366 145.747 222.335 145.815 222.335 145.894V151.868C222.335 151.948 222.306 152.016 222.249 152.072C222.191 152.127 222.112 152.155 222.015 152.155H220.009C219.92 152.155 219.844 152.127 219.782 152.072C219.719 152.016 219.688 151.948 219.688 151.868V145.894C219.688 145.815 219.659 145.747 219.601 145.691C219.543 145.636 219.465 145.608 219.367 145.608H217.469C217.38 145.608 217.304 145.58 217.242 145.524C217.179 145.468 217.148 145.4 217.148 145.321V143.696C217.148 143.616 217.179 143.548 217.242 143.493C217.304 143.437 217.38 143.409 217.469 143.409H224.528ZM230.05 143.421C230.139 143.421 230.226 143.447 230.311 143.499C230.395 143.551 230.455 143.612 230.491 143.684L234.395 151.809C234.43 151.88 234.424 151.956 234.375 152.036C234.326 152.115 234.23 152.155 234.087 152.155H231.801C231.703 152.155 231.612 152.129 231.527 152.077C231.442 152.026 231.378 151.964 231.333 151.892L230.972 151.175C230.928 151.104 230.863 151.042 230.778 150.99C230.694 150.939 230.607 150.913 230.518 150.913H227.697C227.599 150.913 227.507 150.939 227.423 150.99C227.338 151.042 227.278 151.104 227.242 151.175L226.868 151.892C226.832 151.964 226.772 152.026 226.687 152.077C226.603 152.129 226.515 152.155 226.426 152.155H224.127C224.083 152.155 224.036 152.147 223.987 152.131C223.938 152.115 223.898 152.092 223.866 152.059C223.835 152.028 223.815 151.988 223.806 151.94C223.798 151.892 223.811 151.837 223.846 151.773L227.723 143.684C227.759 143.612 227.819 143.551 227.904 143.499C227.989 143.447 228.08 143.421 228.178 143.421H230.05ZM242.216 143.409C242.305 143.409 242.381 143.437 242.443 143.493C242.505 143.548 242.537 143.616 242.537 143.696V149.67C242.537 149.75 242.566 149.817 242.623 149.873C242.682 149.929 242.759 149.957 242.858 149.957H246.882C246.971 149.957 247.047 149.985 247.109 150.04C247.171 150.096 247.203 150.164 247.203 150.243V151.868C247.203 151.948 247.171 152.016 247.109 152.071C247.047 152.127 246.971 152.155 246.882 152.155H240.21C240.112 152.155 240.034 152.127 239.977 152.071C239.918 152.016 239.889 151.948 239.889 151.868V143.696C239.889 143.616 239.918 143.548 239.977 143.493C240.034 143.437 240.112 143.409 240.21 143.409H242.216ZM253.647 143.421C253.735 143.421 253.823 143.447 253.907 143.499C253.992 143.551 254.052 143.612 254.088 143.684L257.992 151.809C258.027 151.88 258.021 151.956 257.972 152.036C257.923 152.115 257.826 152.155 257.684 152.155H255.398C255.3 152.155 255.209 152.129 255.124 152.077C255.039 152.026 254.975 151.964 254.93 151.892L254.569 151.175C254.525 151.104 254.46 151.042 254.375 150.99C254.291 150.939 254.203 150.913 254.115 150.913H251.294C251.195 150.913 251.104 150.939 251.019 150.99C250.935 151.042 250.875 151.104 250.839 151.175L250.464 151.892C250.429 151.964 250.369 152.026 250.284 152.077C250.2 152.129 250.112 152.155 250.023 152.155H247.724C247.679 152.155 247.633 152.147 247.584 152.131C247.535 152.115 247.495 152.092 247.463 152.059C247.432 152.028 247.412 151.988 247.403 151.94C247.394 151.892 247.408 151.837 247.443 151.773L251.32 143.684C251.356 143.612 251.416 143.551 251.501 143.499C251.585 143.447 251.677 143.421 251.775 143.421H253.647ZM261.294 143.409C261.383 143.409 261.459 143.437 261.521 143.493C261.584 143.548 261.614 143.616 261.614 143.696V146.444C261.614 146.524 261.633 146.569 261.668 146.581C261.704 146.593 261.748 146.567 261.802 146.504L264.209 143.648C264.262 143.584 264.338 143.531 264.436 143.487C264.534 143.443 264.632 143.421 264.73 143.421H267.283C267.381 143.421 267.444 143.459 267.47 143.535C267.497 143.61 267.484 143.68 267.43 143.744L263.914 147.675C263.861 147.739 263.836 147.812 263.841 147.896C263.845 147.979 263.879 148.049 263.941 148.105C264.244 148.399 264.565 148.706 264.904 149.025C265.242 149.344 265.579 149.664 265.913 149.986C266.247 150.309 266.577 150.628 266.903 150.942C267.227 151.257 267.538 151.55 267.832 151.821C267.894 151.884 267.916 151.956 267.898 152.036C267.88 152.115 267.823 152.155 267.725 152.155H264.957C264.859 152.155 264.759 152.135 264.656 152.095C264.554 152.056 264.476 152.004 264.423 151.94L261.829 149.347C261.766 149.284 261.715 149.26 261.675 149.276C261.635 149.292 261.614 149.339 261.614 149.419V151.868C261.614 151.948 261.584 152.016 261.521 152.071C261.459 152.127 261.383 152.155 261.294 152.155H259.288C259.19 152.155 259.112 152.127 259.054 152.071C258.996 152.016 258.968 151.948 258.968 151.868V143.696C258.968 143.616 258.996 143.548 259.054 143.493C259.112 143.437 259.19 143.409 259.288 143.409H261.294ZM275.866 143.409C275.956 143.409 276.031 143.437 276.094 143.493C276.156 143.548 276.187 143.616 276.187 143.696V145.321C276.187 145.401 276.156 145.468 276.094 145.524C276.031 145.58 275.956 145.607 275.866 145.607H271.709C271.619 145.607 271.544 145.636 271.481 145.691C271.419 145.747 271.388 145.815 271.388 145.894V146.396C271.388 146.476 271.419 146.544 271.481 146.599C271.544 146.655 271.619 146.683 271.709 146.683H275.332C275.421 146.683 275.496 146.711 275.559 146.767C275.621 146.822 275.653 146.89 275.653 146.97V148.618C275.653 148.698 275.621 148.766 275.559 148.822C275.496 148.877 275.421 148.905 275.332 148.905H271.709C271.619 148.905 271.544 148.933 271.481 148.989C271.419 149.045 271.388 149.112 271.388 149.192V149.646C271.388 149.726 271.419 149.793 271.481 149.849C271.544 149.905 271.619 149.933 271.709 149.933H275.866C275.956 149.933 276.031 149.961 276.094 150.016C276.156 150.072 276.187 150.14 276.187 150.22V151.868C276.187 151.948 276.156 152.016 276.094 152.071C276.031 152.127 275.956 152.155 275.866 152.155H269.061C268.972 152.155 268.896 152.127 268.834 152.071C268.772 152.016 268.74 151.948 268.74 151.868V143.696C268.74 143.616 268.772 143.548 268.834 143.493C268.896 143.437 268.972 143.409 269.061 143.409H275.866ZM195.783 145.631H194.781C194.691 145.631 194.616 145.659 194.553 145.715C194.491 145.771 194.46 145.839 194.46 145.918V149.67C194.46 149.75 194.491 149.817 194.553 149.873C194.616 149.929 194.691 149.957 194.781 149.957H195.783C196.033 149.957 196.291 149.929 196.559 149.873C196.826 149.817 197.067 149.712 197.281 149.556C197.494 149.401 197.67 149.182 197.809 148.899C197.947 148.617 198.016 148.248 198.016 147.794C198.016 147.34 197.947 146.972 197.809 146.689C197.67 146.406 197.492 146.187 197.274 146.032C197.056 145.876 196.815 145.771 196.552 145.715C196.289 145.659 196.033 145.631 195.783 145.631ZM229.1 147.065C229.056 147.065 229.016 147.101 228.98 147.173L228.312 148.619C228.276 148.69 228.276 148.752 228.312 148.804C228.347 148.856 228.414 148.881 228.512 148.881H229.702C229.791 148.881 229.856 148.856 229.896 148.804C229.936 148.752 229.934 148.69 229.889 148.619C229.8 148.419 229.693 148.186 229.568 147.919C229.443 147.653 229.328 147.404 229.221 147.173C229.185 147.101 229.145 147.065 229.1 147.065ZM252.697 147.065C252.652 147.065 252.613 147.101 252.577 147.173L251.909 148.619C251.873 148.69 251.873 148.752 251.909 148.804C251.944 148.856 252.011 148.881 252.109 148.881H253.299C253.388 148.881 253.453 148.856 253.493 148.804C253.533 148.752 253.531 148.69 253.486 148.619C253.397 148.419 253.29 148.186 253.165 147.919C253.04 147.653 252.924 147.404 252.818 147.173C252.782 147.101 252.742 147.065 252.697 147.065Z" fill="black"/>
<path d="M334.687 153.5C316.154 153.5 301.188 138.533 301.188 120C301.188 101.467 316.154 86.5 334.687 86.5C353.221 86.5 368.187 101.467 368.187 120C368.187 138.533 353.221 153.5 334.687 153.5Z" fill="black"/>
<path d="M352.6 115.031H346.028V124.948H352.6C355.324 124.948 357.589 122.684 357.589 119.959C357.589 117.214 355.324 115.031 352.6 115.031Z" fill="#FFF100"/>
<path d="M313.829 120C313.829 127.654 320.06 133.885 327.713 133.885C335.367 133.885 341.598 127.654 341.598 120C341.598 112.346 335.367 106.115 327.713 106.115C320.06 106.115 313.829 112.346 313.829 120Z" fill="#FFF100"/>
</g>
<defs>
<clipPath id="clip0_4723_13127">
<rect width="560" height="240" fill="white"/>
</clipPath>
<clipPath id="clip1_4723_13127">
<rect width="560" height="240" fill="white"/>
</clipPath>
</defs>
</svg>
