<svg width="367" height="206" viewBox="0 0 367 206" fill="none" xmlns="http://www.w3.org/2000/svg">
<g clip-path="url(#clip0_3644_3857)">
<rect width="367" height="206" fill="#F6E900"/>
<path d="M175 26.3793L175 -1.00011L-5 -1.00012L-5.00002 118L29 118C40.0457 118 49 109.046 49 98L49 66.3793C49 55.3336 57.9543 46.3793 69 46.3793L155 46.3793C166.046 46.3793 175 37.425 175 26.3793Z" fill="#EDDD00"/>
<g style="mix-blend-mode:multiply">
<path d="M183.5 143.103C205.867 143.103 224 124.97 224 102.603C224 80.2352 205.867 62.1028 183.5 62.1028C161.132 62.1028 143 80.2352 143 102.603C143 124.97 161.132 143.103 183.5 143.103Z" fill="black"/>
<path d="M183.5 66.8279C188.198 66.8279 192.85 67.7532 197.191 69.5511C201.531 71.3489 205.475 73.9841 208.797 77.3061C212.119 80.6281 214.754 84.5719 216.552 88.9124C218.35 93.2528 219.275 97.9048 219.275 102.603L183.5 102.603L183.5 66.8279Z" fill="white"/>
<mask id="path-4-outside-1_3644_3857" maskUnits="userSpaceOnUse" x="172.425" y="91.5278" width="52" height="22" fill="black">
<rect fill="white" x="172.425" y="91.5278" width="52" height="22"/>
<path fill-rule="evenodd" clip-rule="evenodd" d="M189.477 102.603C189.477 105.958 186.779 108.678 183.451 108.678C180.123 108.678 177.425 105.958 177.425 102.603C177.425 99.2477 180.123 96.5278 183.451 96.5278C186.779 96.5278 189.477 99.2477 189.477 102.603ZM192 100.5V105L219 105V100.5L192 100.5Z"/>
</mask>
<path fill-rule="evenodd" clip-rule="evenodd" d="M189.477 102.603C189.477 105.958 186.779 108.678 183.451 108.678C180.123 108.678 177.425 105.958 177.425 102.603C177.425 99.2477 180.123 96.5278 183.451 96.5278C186.779 96.5278 189.477 99.2477 189.477 102.603ZM192 100.5V105L219 105V100.5L192 100.5Z" fill="white"/>
<path d="M192 105H187.275C187.275 106.253 187.773 107.455 188.659 108.341C189.545 109.227 190.747 109.725 192 109.725L192 105ZM192 100.5L192 95.775C189.39 95.775 187.275 97.8905 187.275 100.5H192ZM219 105L219 109.725C221.61 109.725 223.725 107.61 223.725 105H219ZM219 100.5H223.725C223.725 99.2469 223.227 98.045 222.341 97.1589C221.455 96.2728 220.253 95.775 219 95.775L219 100.5ZM183.451 113.403C189.425 113.403 194.202 108.531 194.202 102.603H184.752C184.752 103.385 184.134 103.953 183.451 103.953V113.403ZM172.7 102.603C172.7 108.531 177.477 113.403 183.451 113.403V103.953C182.769 103.953 182.15 103.385 182.15 102.603H172.7ZM183.451 91.8028C177.477 91.8028 172.7 96.6743 172.7 102.603H182.15C182.15 101.821 182.769 101.253 183.451 101.253V91.8028ZM194.202 102.603C194.202 96.6743 189.425 91.8028 183.451 91.8028V101.253C184.134 101.253 184.752 101.821 184.752 102.603H194.202ZM196.725 105V100.5H187.275V105H196.725ZM219 100.275L192 100.275L192 109.725L219 109.725L219 100.275ZM214.275 100.5V105H223.725V100.5H214.275ZM192 105.225L219 105.225L219 95.775L192 95.775L192 105.225Z" fill="black" mask="url(#path-4-outside-1_3644_3857)"/>
<mask id="path-6-outside-2_3644_3857" maskUnits="userSpaceOnUse" x="172.425" y="91.5278" width="52" height="22" fill="black">
<rect fill="white" x="172.425" y="91.5278" width="52" height="22"/>
<path fill-rule="evenodd" clip-rule="evenodd" d="M189.477 102.603C189.477 105.958 186.779 108.678 183.451 108.678C180.123 108.678 177.425 105.958 177.425 102.603C177.425 99.2477 180.123 96.5278 183.451 96.5278C186.779 96.5278 189.477 99.2477 189.477 102.603ZM192 100.5V105L216.75 105C217.993 105 219 103.993 219 102.75C219 101.507 217.993 100.5 216.75 100.5L192 100.5Z"/>
</mask>
<path fill-rule="evenodd" clip-rule="evenodd" d="M189.477 102.603C189.477 105.958 186.779 108.678 183.451 108.678C180.123 108.678 177.425 105.958 177.425 102.603C177.425 99.2477 180.123 96.5278 183.451 96.5278C186.779 96.5278 189.477 99.2477 189.477 102.603ZM192 100.5V105L216.75 105C217.993 105 219 103.993 219 102.75C219 101.507 217.993 100.5 216.75 100.5L192 100.5Z" fill="white"/>
<path d="M192 105H187.275C187.275 106.253 187.773 107.455 188.659 108.341C189.545 109.227 190.747 109.725 192 109.725L192 105ZM192 100.5L192 95.775C189.39 95.775 187.275 97.8905 187.275 100.5H192ZM216.75 105L216.75 100.275H216.75L216.75 105ZM216.75 100.5L216.75 105.225L216.75 105.225L216.75 100.5ZM183.451 113.403C189.425 113.403 194.202 108.531 194.202 102.603H184.752C184.752 103.385 184.134 103.953 183.451 103.953V113.403ZM172.7 102.603C172.7 108.531 177.477 113.403 183.451 113.403V103.953C182.769 103.953 182.15 103.385 182.15 102.603H172.7ZM183.451 91.8028C177.477 91.8028 172.7 96.6743 172.7 102.603H182.15C182.15 101.821 182.769 101.253 183.451 101.253V91.8028ZM194.202 102.603C194.202 96.6743 189.425 91.8028 183.451 91.8028V101.253C184.134 101.253 184.752 101.821 184.752 102.603H194.202ZM196.725 105V100.5H187.275V105H196.725ZM216.75 100.275L192 100.275L192 109.725L216.75 109.725L216.75 100.275ZM214.275 102.75C214.275 101.383 215.383 100.275 216.75 100.275V109.725C220.602 109.725 223.725 106.602 223.725 102.75H214.275ZM216.75 105.225C215.383 105.225 214.275 104.117 214.275 102.75H223.725C223.725 98.8978 220.602 95.775 216.75 95.775L216.75 105.225ZM192 105.225L216.75 105.225L216.75 95.775L192 95.775L192 105.225Z" fill="black" mask="url(#path-6-outside-2_3644_3857)"/>
<rect x="179.45" y="58.053" width="8.09999" height="4.72499" fill="black"/>
<rect x="212.165" y="68.3447" width="8.09999" height="4.72457" transform="rotate(45 212.165 68.3447)" fill="black"/>
</g>
<rect x="319" y="-67" width="107" height="153" rx="20" fill="#EDDD00"/>
<rect x="88" y="166" width="199" height="153" rx="20" fill="#EDDD00"/>
</g>
<defs>
<clipPath id="clip0_3644_3857">
<rect width="367" height="206" fill="white"/>
</clipPath>
</defs>
</svg>
