<svg width="367" height="206" viewBox="0 0 367 206" fill="none" xmlns="http://www.w3.org/2000/svg">
<g clip-path="url(#clip0_3611_2620)">
<rect width="367" height="206" fill="#FF6900"/>
<rect x="103" y="66.5" width="68" height="73" rx="10" fill="black"/>
<path d="M135.371 82.9285H137.9V86.2244C144.266 86.8565 148.329 90.92 148.329 96.8798H143.001C142.956 92.7712 140.654 90.7846 137.9 90.2879V100.492L138.396 100.582C143.227 101.801 148.916 103.788 148.916 110.289C148.916 116.43 143.769 119.681 137.9 120.042V123.834H135.371V120.042C128.915 119.545 124.4 115.075 124.535 108.799H129.863C129.863 113.314 132.482 115.572 135.371 115.933V104.871L133.926 104.51C129.231 103.291 125.167 100.672 125.167 95.1641C125.167 89.4301 130.269 86.5856 135.371 86.2244V82.9285ZM143.724 110.741C143.724 107.626 141.512 106.587 137.9 105.503V115.978C141.015 115.843 143.724 114.082 143.724 110.741ZM130.359 94.9835C130.359 97.5119 132.165 99.1373 135.055 99.8146L135.371 99.9049V90.1976C132.843 90.3331 130.359 91.9133 130.359 94.9835Z" fill="#FF6900"/>
<rect x="191" y="66.5" width="73" height="73" rx="10" fill="black"/>
<path d="M235.562 103.111C235.562 92.7712 229.241 91.3715 222.965 91.3715H220.03V114.895H222.965C229.241 114.895 235.562 113.45 235.562 103.111ZM214.296 86.7662H223.236C233.575 86.7662 241.521 90.3331 241.521 103.111C241.521 115.888 233.575 119.5 223.236 119.5H214.296V86.7662Z" fill="#FF6900"/>
<path d="M202 26.3794L202 -0.999985L-5.00001 -1L-5.00003 180L43 180C54.0457 180 63 171.046 63 160L63 66.3794C63 55.3337 71.9543 46.3794 83 46.3794L182 46.3794C193.046 46.3794 202 37.4251 202 26.3794Z" fill="#E35400"/>
<path d="M273.5 176L161 176C149.954 176 141 184.954 141 196L141 224.5C141 235.546 149.954 244.5 161 244.5L346.5 244.5C357.546 244.5 366.5 235.546 366.5 224.5L366.5 -19.8936C366.5 -30.1696 358.17 -38.5 347.894 -38.5C337.618 -38.5 329.287 -30.1696 329.287 -19.8936L329.287 54.1064C329.287 63.9888 321.276 72 311.394 72C301.511 72 293.5 80.0112 293.5 89.8936L293.5 156C293.5 167.046 284.546 176 273.5 176Z" fill="#E35400"/>
<path fill-rule="evenodd" clip-rule="evenodd" d="M335 120C335 108.954 343.954 100 355 100L388 100C399.046 100 408 108.954 408 120L408 318.406C408 318.41 408 318.415 408 318.419L408 366.893L408 424.111C408 424.115 408 424.12 408 424.124L408 481C408 492.046 399.046 501 388 501L304 501C292.954 501 284 492.046 284 481L284 318.419C284 307.373 292.954 298.419 304 298.419L315 298.419C326.046 298.419 335 289.464 335 278.419L335 120Z" fill="#FF6900"/>
</g>
<defs>
<clipPath id="clip0_3611_2620">
<rect width="367" height="206" fill="white"/>
</clipPath>
</defs>
</svg>
