<svg xmlns="http://www.w3.org/2000/svg" width="367" height="206" fill="none" viewBox="0 0 367 206"><g clip-path="url(#clip0_3750_2636)"><rect width="367" height="206" fill="#E646C0"/><rect width="65" height="65" x="151" y="70.5" fill="#000" rx="10"/><path fill="#E646C0" d="M171.129 120.067L181.559 96.3179L180.34 92.9317C179.858 91.6374 179.331 90.629 178.759 89.9066C178.187 89.1541 177.254 88.7779 175.96 88.7779C175.418 88.7779 174.937 88.808 174.515 88.8682C174.124 88.9284 173.763 88.9886 173.432 89.0488V85.8431C173.823 85.7528 174.274 85.6776 174.786 85.6174C175.328 85.5271 175.87 85.4819 176.411 85.4819C177.947 85.4819 179.196 85.7528 180.159 86.2946C181.122 86.8364 181.92 87.6642 182.552 88.7779C183.184 89.8916 183.816 91.3213 184.448 93.0671L192.259 114.829C192.831 116.455 193.584 117.268 194.517 117.268C194.757 117.268 194.998 117.237 195.239 117.177C195.51 117.117 195.721 117.072 195.871 117.042V119.977C195.54 120.127 195.149 120.247 194.697 120.338C194.276 120.458 193.809 120.518 193.298 120.518C192.184 120.518 191.296 120.247 190.634 119.706C190.002 119.134 189.445 118.186 188.963 116.861L185.667 107.605C185.426 106.883 185.14 106.085 184.809 105.212C184.508 104.309 184.222 103.437 183.952 102.594C183.711 101.721 183.53 100.998 183.41 100.427H183.229C182.958 101.48 182.597 102.609 182.146 103.813C181.724 105.017 181.258 106.206 180.746 107.38L175.238 120.067H171.129Z"/><path fill="#C7189C" d="M291 173L142.5 173C131.455 173 122.5 164.046 122.5 153L122.5 37.9999C122.5 26.9543 113.546 18 102.5 18L-12 18L-11.9998 206L311 206L311 193C311 181.954 302.046 173 291 173Z"/><path fill="#C7189C" d="M228.5 21.5002L228.5 -0.999741L384.5 -1.00014L384.5 145.5L350.5 145.5C339.454 145.5 330.5 136.546 330.5 125.5L330.5 61.4999C330.5 50.4542 321.546 41.4999 310.5 41.4999L248.5 41.5002C237.454 41.5002 228.5 32.5459 228.5 21.5002Z"/><path fill="#E646C0" d="M-135 80L-10.9191 80L36 80C47.0457 80 56 88.9543 56 100L56 285C56 296.046 47.0457 305 36 305L-135 305C-146.046 305 -155 296.046 -155 285L-155 100C-155 88.9543 -146.046 80 -135 80Z"/></g><defs><clipPath id="clip0_3750_2636"><rect width="367" height="206" fill="#fff"/></clipPath></defs></svg>