<svg width="560" height="240" viewBox="0 0 560 240" fill="none" xmlns="http://www.w3.org/2000/svg">
<g clip-path="url(#clip0_4723_13301)">
<rect width="560" height="240" fill="#FFF100"/>
<g clip-path="url(#clip1_4723_13301)">
<rect width="560" height="240" fill="#FFF100"/>
<path d="M387 170.5L451.783 170.5C462.828 170.5 471.782 161.546 471.782 150.5L471.782 67.5001C471.782 56.4544 480.737 47.5001 491.782 47.5001L692.082 47.5001C703.128 47.5001 712.082 56.4544 712.082 67.5001L712.082 241.913C712.082 252.958 703.128 261.913 692.082 261.913L387 261.913C375.954 261.913 367 252.958 367 241.913L367 190.5C367 179.454 375.954 170.5 387 170.5Z" fill="url(#paint0_linear_4723_13301)"/>
<path d="M141.127 314L141.127 77.9839C141.127 66.9382 150.081 57.9839 161.127 57.9839L199.812 57.9839C210.857 57.9839 219.812 49.0296 219.812 37.9839L219.812 -86.9999C219.812 -98.0456 210.857 -107 199.812 -107L-54.0001 -107C-65.0458 -107 -74.0001 -98.0457 -74.0001 -87L-74.0002 314C-74.0002 325.046 -65.0458 334 -54.0002 334L121.127 334C132.173 334 141.127 325.046 141.127 314Z" fill="url(#paint1_linear_4723_13301)"/>
<rect x="417" y="194" width="546" height="169" rx="20" fill="#FFF100"/>
<rect x="-513" y="-43" width="598" height="204" rx="20" fill="#FFF100"/>
</g>
<rect x="247.5" y="87.5" width="65" height="65" rx="10" fill="black"/>
<path d="M267.629 137.067L278.059 113.318L276.84 109.932C276.358 108.637 275.831 107.629 275.259 106.907C274.687 106.154 273.754 105.778 272.46 105.778C271.918 105.778 271.437 105.808 271.015 105.868C270.624 105.928 270.263 105.988 269.932 106.049V102.843C270.323 102.753 270.774 102.677 271.286 102.617C271.828 102.527 272.37 102.482 272.911 102.482C274.447 102.482 275.696 102.753 276.659 103.295C277.622 103.836 278.42 104.664 279.052 105.778C279.684 106.891 280.316 108.321 280.948 110.067L288.759 131.829C289.331 133.455 290.084 134.267 291.017 134.267C291.257 134.267 291.498 134.237 291.739 134.177C292.01 134.117 292.221 134.072 292.371 134.042V136.976C292.04 137.127 291.649 137.247 291.197 137.338C290.776 137.458 290.309 137.518 289.798 137.518C288.684 137.518 287.796 137.247 287.134 136.706C286.502 136.134 285.945 135.185 285.463 133.861L282.167 124.605C281.926 123.883 281.64 123.085 281.309 122.212C281.008 121.309 280.722 120.436 280.452 119.594C280.211 118.721 280.03 117.998 279.91 117.426H279.729C279.458 118.48 279.097 119.609 278.646 120.813C278.224 122.017 277.758 123.206 277.246 124.38L271.738 137.067H267.629Z" fill="#FFF100"/>
</g>
<defs>
<linearGradient id="paint0_linear_4723_13301" x1="400.322" y1="65.9995" x2="400.322" y2="234.499" gradientUnits="userSpaceOnUse">
<stop stop-color="#EDDD0C"/>
<stop offset="1" stop-color="#F3E71B"/>
</linearGradient>
<linearGradient id="paint1_linear_4723_13301" x1="72.9057" y1="349.513" x2="72.9058" y2="-53.8141" gradientUnits="userSpaceOnUse">
<stop stop-color="#EDDD0C"/>
<stop offset="1" stop-color="#F3E71B"/>
</linearGradient>
<clipPath id="clip0_4723_13301">
<rect width="560" height="240" fill="white"/>
</clipPath>
<clipPath id="clip1_4723_13301">
<rect width="560" height="240" fill="white"/>
</clipPath>
</defs>
</svg>
