<svg xmlns="http://www.w3.org/2000/svg" width="367" height="206" fill="none" viewBox="0 0 367 206"><g clip-path="url(#clip0_3780_2707)"><rect width="367" height="206" fill="#000"/><rect width="183.5" height="206" x="184" fill="#F6E900"/><path fill="#000" d="M250 125.543V86C250 82.6863 252.686 80 256 80H295C298.314 80 301 82.6863 301 86V125.543C301 128.857 298.314 131.543 295 131.543H281.899C281.43 131.543 280.977 131.707 280.617 132.008L267.144 143.259C265.842 144.347 263.862 143.421 263.862 141.724V133.543C263.862 132.438 262.967 131.543 261.862 131.543H256C252.686 131.543 250 128.857 250 125.543Z"/><path fill="#F6E900" d="M264.6 99.6593C264.008 99.0671 263.038 99.2414 262.859 100.06C262.201 103.078 263.042 106.354 265.384 108.696C268.015 111.327 271.825 112.064 275.123 110.909L280.996 116.782C282.589 118.375 285.172 118.375 286.765 116.782C288.359 115.188 288.359 112.605 286.765 111.012L280.893 105.139C282.048 101.841 281.311 98.0314 278.68 95.4003C276.338 93.0581 273.062 92.217 270.044 92.8752C269.225 93.0539 269.022 94.0525 269.614 94.6447C270.908 95.9384 272.191 97.2403 273.477 98.5395C274.638 99.7123 274.638 101.605 273.471 102.772L272.704 103.538C271.537 104.705 269.646 104.705 268.479 103.538L264.6 99.6593Z"/><g filter="url(#filter0_d_3780_2707)"><path fill="#000" fill-opacity=".05" d="M334.5 127V162C334.5 173.046 325.546 182 314.5 182L183 182V258.5H388.5V107H354.5C343.454 107 334.5 115.954 334.5 127Z" shape-rendering="crispEdges"/></g><path fill="#000" fill-opacity=".05" d="M236.5 18.798L372 18.798L372 -51L183 -51L183 113L196.5 113C207.546 113 216.5 104.046 216.5 93L216.5 38.798C216.5 27.7523 225.454 18.798 236.5 18.798Z"/><path fill="#F6E900" d="M31.1187 27.7774C31.1187 22.862 28.1966 22.1145 25.2066 22.1145H23.7116V33.463H25.2066C28.1966 33.463 31.1187 32.7381 31.1187 27.7774ZM20.4724 19.5775H25.3425C30.5524 19.5775 34.4712 21.2537 34.4712 27.7774C34.4712 34.3011 30.5524 36 25.3425 36H20.4724V19.5775ZM43.9177 36V34.3917C43.2154 35.6376 41.879 36.2945 40.3613 36.2945C37.4392 36.2945 36.2614 34.505 36.2614 31.5149V23.8133H39.3873V30.8354C39.3873 32.4663 39.6365 33.7801 41.3807 33.7801C43.4646 33.7801 43.9177 32.0812 43.9177 30.1558V23.8133H47.0436V36H43.9177ZM55.1705 23.5415C57.7301 23.5415 60.2671 24.9686 60.6975 27.9813H57.7074C57.4583 26.8034 56.371 25.9653 55.1705 25.9653C53.5395 25.9653 52.2484 27.347 52.2484 29.884C52.2484 32.4437 53.4716 33.8707 55.1931 33.8707C56.2804 33.8707 57.3903 33.3044 57.8207 31.8547H60.8107C60.0859 35.1845 57.5715 36.2945 55.0345 36.2945C51.3876 36.2945 49.0545 33.6216 49.0545 29.9293C49.0545 26.2144 51.5235 23.5415 55.1705 23.5415ZM62.6774 19.5775H65.8033V28.7061L70.2431 23.8133H73.7541L69.3823 28.4796L74.0033 36H70.4923L67.2984 30.7221L65.8033 32.3304V36H62.6774V19.5775ZM85.9563 27.7774C85.9563 22.862 83.0343 22.1145 80.0442 22.1145H78.5492V33.463H80.0442C83.0343 33.463 85.9563 32.7381 85.9563 27.7774ZM75.31 19.5775H80.1801C85.39 19.5775 89.3088 21.2537 89.3088 27.7774C89.3088 34.3011 85.39 36 80.1801 36H75.31V19.5775ZM91.591 36V19.5775H97.9788C100.856 19.5775 103.959 20.4835 103.959 23.8587C103.959 25.399 102.939 26.7807 102.101 27.3244C103.37 27.936 104.548 28.8873 104.548 31.1525C104.548 34.6862 101.626 36 98.2506 36H91.591ZM94.8302 28.7967V33.463H98.4091C100.312 33.463 101.241 32.6702 101.241 31.1525C101.241 29.6122 100.289 28.7967 98.2732 28.7967H94.8302ZM94.8302 22.1145V26.3503H98.1826C99.7229 26.3503 100.629 25.6255 100.629 24.1758C100.629 22.8846 99.7003 22.1145 98.1826 22.1145H94.8302ZM24.4461 58V43.2018H19V41.818H31.3876V43.2018H25.9415V58H24.4461ZM36.9925 45.9249V47.398C36.8809 47.3757 36.7693 47.3757 36.6577 47.3757H36.3676C33.8901 47.3757 33.0865 49.1613 33.0865 51.7058V58H31.725V45.9918H33.0419V48.1792C33.5776 46.773 35.1623 45.9026 36.5908 45.9026H36.7693C36.8363 45.9026 36.9256 45.9026 36.9925 45.9249ZM38.6782 45.9918H40.0621V58H38.6782V45.9918ZM38.6782 41.818H40.0621V44.0277H38.6782V41.818ZM47.9837 45.791C50.7291 45.791 52.5593 47.7105 52.9165 49.8532H51.4657C51.0193 48.0453 49.6131 47.0632 47.8498 47.0632C45.7964 47.0632 43.9438 48.7149 43.9438 52.0182C43.9438 55.4332 45.7964 57.0179 47.8721 57.0179C49.9256 57.0179 51.1978 55.701 51.5549 54.2056H53.0281C52.5593 56.6831 50.5282 58.2902 47.8721 58.2902C44.4795 58.2902 42.4707 55.7234 42.4707 52.0406C42.4707 48.3131 44.4795 45.791 47.9837 45.791ZM55.2656 41.818H56.6495V51.9959L62.1402 45.9918H63.8365L59.3948 50.813L64.2383 58H62.6312L58.502 51.795L56.6495 53.8038V58H55.2656V41.818ZM74.5622 49.2729H73.1114C72.8212 47.8444 71.5043 46.9962 69.808 46.9962C68.4911 46.9962 66.7502 47.5096 66.7502 48.9604C66.7502 50.1434 67.6653 50.7683 69.0045 51.0138L70.7008 51.3263C72.665 51.6834 74.8523 52.353 74.8523 54.6297C74.8523 57.0179 72.6873 58.2902 70.0758 58.2902C67.5983 58.2902 65.4556 57.0626 65.0985 54.3172H66.5493C66.7948 56.1921 68.3572 57.0626 70.1874 57.0626C71.6382 57.0626 73.4462 56.4599 73.4462 54.8529C73.4462 53.4467 72.107 52.9557 70.4776 52.6432L68.6027 52.2861C66.8841 51.929 65.344 50.9692 65.344 49.072C65.344 47.1748 67.2412 45.7686 69.9419 45.7686C72.531 45.7686 74.272 47.3757 74.5622 49.2729Z"/></g><defs><filter id="filter0_d_3780_2707" width="207.5" height="153.5" x="183" y="107" color-interpolation-filters="sRGB" filterUnits="userSpaceOnUse"><feFlood flood-opacity="0" result="BackgroundImageFix"/><feColorMatrix in="SourceAlpha" result="hardAlpha" type="matrix" values="0 0 0 0 0 0 0 0 0 0 0 0 0 0 0 0 0 0 127 0"/><feOffset dx="1" dy="1"/><feGaussianBlur stdDeviation=".5"/><feComposite in2="hardAlpha" operator="out"/><feColorMatrix type="matrix" values="0 0 0 0 0 0 0 0 0 0 0 0 0 0 0 0 0 0 0.17 0"/><feBlend in2="BackgroundImageFix" mode="normal" result="effect1_dropShadow_3780_2707"/><feBlend in="SourceGraphic" in2="effect1_dropShadow_3780_2707" mode="normal" result="shape"/></filter><clipPath id="clip0_3780_2707"><rect width="367" height="206" fill="#fff"/></clipPath></defs></svg>