<svg width="367" height="206" viewBox="0 0 367 206" fill="none" xmlns="http://www.w3.org/2000/svg">
<g clip-path="url(#clip0_3937_2825)">
<rect width="367" height="206" fill="#2EAFFF"/>
<path d="M224.5 12.509L224.5 -30.9998L-18.9999 -30.9998L-18.9999 229L59.5001 229C70.5458 229 79.5001 220.046 79.5001 209L79.5001 155.5C79.5001 144.454 70.5458 135.5 59.5001 135.5L49.5001 135.5C38.4544 135.5 29.5001 126.546 29.5001 115.5L29.5001 52.509C29.5001 41.4633 38.4544 32.509 49.5001 32.509L204.5 32.5091C215.546 32.5091 224.5 23.5547 224.5 12.509Z" fill="#1095E7"/>
<path d="M320 78.4999L320 -44L400 -44L400 221.5L156 221.5L156 188C156 176.954 164.954 168 176 168L251 168C262.046 168 271 159.046 271 148L271 118.5C271 107.454 279.954 98.4999 291 98.5L300 98.5C311.046 98.5 320 89.5456 320 78.4999Z" fill="#1095E7"/>
<circle cx="183.5" cy="103" r="35.5" fill="black"/>
<path d="M191.318 101.16C186.657 105.211 182.089 109.182 177.523 113.154C175.731 114.712 173.928 116.258 172.15 117.834C171.627 118.298 171.124 118.513 170.439 118.259C169.679 117.978 168.979 118.204 168.363 118.724C168.01 119.022 167.669 119.34 167.303 119.624C166.589 120.176 165.839 120.114 165.32 119.482C164.845 118.905 164.898 118.12 165.486 117.501C165.786 117.187 166.127 116.915 166.458 116.633C167.148 116.047 167.426 115.332 167.403 114.391C167.39 113.913 167.622 113.266 167.965 112.964C174.277 107.418 180.621 101.912 186.96 96.3993C187.023 96.345 187.112 96.3219 187.271 96.2446C188.595 97.8512 189.928 99.4694 191.319 101.156L191.318 101.16Z" fill="#2EAFFF"/>
<path d="M194.892 98.0535C195.37 98.6616 195.793 99.2019 196.274 99.8164C195.4 100.582 194.564 101.313 193.64 102.122C191.295 99.272 189.012 96.4975 186.687 93.6734C187.6 92.8742 188.441 92.1395 189.321 91.3698C189.821 91.9474 190.27 92.4636 190.775 93.0465C191.166 92.722 191.543 92.4196 191.908 92.1047C193.177 91.0063 194.42 89.8755 195.713 88.8056C197.159 87.6096 199.148 87.7711 200.256 89.1184C201.409 90.5197 201.206 92.4991 199.755 93.8125C198.961 94.5308 198.146 95.227 197.338 95.9306C196.554 96.6132 195.768 97.2936 194.891 98.0531L194.892 98.0535Z" fill="#2EAFFF"/>
</g>
<defs>
<clipPath id="clip0_3937_2825">
<rect width="367" height="206" fill="white"/>
</clipPath>
</defs>
</svg>
