<svg width="560" height="240" viewBox="0 0 560 240" fill="none" xmlns="http://www.w3.org/2000/svg">
<g clip-path="url(#clip0_4723_15587)">
<rect width="560" height="240" fill="#FFF100"/>
<g clip-path="url(#clip1_4723_15587)">
<rect width="560" height="240" fill="#FFF100"/>
<path d="M387 170.5L451.783 170.5C462.828 170.5 471.782 161.546 471.782 150.5L471.782 67.5001C471.782 56.4544 480.737 47.5001 491.782 47.5001L692.082 47.5001C703.128 47.5001 712.082 56.4544 712.082 67.5001L712.082 241.913C712.082 252.958 703.128 261.913 692.082 261.913L387 261.913C375.954 261.913 367 252.958 367 241.913L367 190.5C367 179.454 375.954 170.5 387 170.5Z" fill="url(#paint0_linear_4723_15587)"/>
<path d="M141.127 314L141.127 77.9839C141.127 66.9382 150.081 57.9839 161.127 57.9839L199.812 57.9839C210.857 57.9839 219.812 49.0296 219.812 37.9839L219.812 -86.9999C219.812 -98.0456 210.857 -107 199.812 -107L-54.0001 -107C-65.0458 -107 -74.0001 -98.0457 -74.0001 -87L-74.0002 314C-74.0002 325.046 -65.0458 334 -54.0002 334L121.127 334C132.173 334 141.127 325.046 141.127 314Z" fill="url(#paint1_linear_4723_15587)"/>
<rect x="417" y="194" width="546" height="169" rx="20" fill="#FFF100"/>
<rect x="-513" y="-43" width="598" height="204" rx="20" fill="#FFF100"/>
</g>
<path d="M233 153.5C214.467 153.5 199.5 138.533 199.5 120C199.5 101.467 214.467 86.5 233 86.5C251.533 86.5 266.5 101.467 266.5 120C266.5 138.533 251.533 153.5 233 153.5Z" fill="black"/>
<path d="M250.912 115.03H244.34V124.948H250.912C253.637 124.948 255.901 122.684 255.901 119.959C255.901 117.214 253.637 115.03 250.912 115.03Z" fill="#FFF100"/>
<path d="M212.141 120C212.141 127.654 218.372 133.885 226.026 133.885C233.68 133.885 239.911 127.654 239.911 120C239.911 112.346 233.68 106.115 226.026 106.115C218.372 106.115 212.141 112.346 212.141 120Z" fill="#FFF100"/>
<path d="M293.409 126.269H297.848V115.643C297.848 115.244 297.856 114.892 297.871 114.585C297.902 114.263 297.917 114.094 297.917 114.079H297.871C297.779 114.171 297.679 114.263 297.572 114.355C297.48 114.432 297.38 114.516 297.273 114.608C297.166 114.685 297.051 114.761 296.928 114.838L293.685 117V114.516L297.365 111.94H300.378V126.269H304.035V128.5H293.409V126.269ZM310.075 126.568C310.075 125.924 310.267 125.41 310.65 125.027C311.033 124.628 311.547 124.429 312.191 124.429C312.835 124.429 313.349 124.628 313.732 125.027C314.115 125.41 314.307 125.924 314.307 126.568C314.307 127.212 314.115 127.733 313.732 128.132C313.349 128.531 312.835 128.73 312.191 128.73C311.547 128.73 311.033 128.531 310.65 128.132C310.267 127.733 310.075 127.212 310.075 126.568ZM320.991 126.269H325.43V115.643C325.43 115.244 325.438 114.892 325.453 114.585C325.484 114.263 325.499 114.094 325.499 114.079H325.453C325.361 114.171 325.261 114.263 325.154 114.355C325.062 114.432 324.962 114.516 324.855 114.608C324.748 114.685 324.633 114.761 324.51 114.838L321.267 117V114.516L324.947 111.94H327.96V126.269H331.617V128.5H320.991V126.269ZM337.657 126.568C337.657 125.924 337.849 125.41 338.232 125.027C338.615 124.628 339.129 124.429 339.773 124.429C340.417 124.429 340.931 124.628 341.314 125.027C341.697 125.41 341.889 125.924 341.889 126.568C341.889 127.212 341.697 127.733 341.314 128.132C340.931 128.531 340.417 128.73 339.773 128.73C339.129 128.73 338.615 128.531 338.232 128.132C337.849 127.733 337.657 127.212 337.657 126.568ZM348.251 116.701C348.251 115.934 348.374 115.244 348.619 114.631C348.88 114.018 349.24 113.496 349.7 113.067C350.16 112.622 350.72 112.285 351.379 112.055C352.038 111.81 352.774 111.687 353.587 111.687C354.384 111.687 355.105 111.81 355.749 112.055C356.408 112.285 356.968 112.622 357.428 113.067C357.888 113.496 358.241 114.018 358.486 114.631C358.731 115.244 358.854 115.934 358.854 116.701V123.693C358.854 124.444 358.724 125.134 358.463 125.763C358.218 126.376 357.865 126.905 357.405 127.35C356.945 127.795 356.393 128.14 355.749 128.385C355.105 128.615 354.384 128.73 353.587 128.73C352.774 128.73 352.038 128.615 351.379 128.385C350.72 128.14 350.16 127.802 349.7 127.373C349.24 126.928 348.88 126.399 348.619 125.786C348.374 125.157 348.251 124.46 348.251 123.693V116.701ZM350.735 123.693C350.735 124.552 350.988 125.234 351.494 125.74C352.015 126.246 352.713 126.499 353.587 126.499C354.43 126.499 355.105 126.246 355.611 125.74C356.117 125.234 356.37 124.552 356.37 123.693V116.701C356.37 115.858 356.117 115.183 355.611 114.677C355.105 114.171 354.43 113.918 353.587 113.918C352.713 113.918 352.015 114.171 351.494 114.677C350.988 115.183 350.735 115.858 350.735 116.701V123.693ZM352.46 118.564C352.46 118.196 352.56 117.897 352.759 117.667C352.958 117.437 353.234 117.322 353.587 117.322C353.924 117.322 354.193 117.437 354.392 117.667C354.591 117.897 354.691 118.196 354.691 118.564V122.083C354.691 122.451 354.591 122.75 354.392 122.98C354.193 123.21 353.924 123.325 353.587 123.325C353.234 123.325 352.958 123.21 352.759 122.98C352.56 122.75 352.46 122.451 352.46 122.083V118.564Z" fill="black"/>
</g>
<defs>
<linearGradient id="paint0_linear_4723_15587" x1="400.322" y1="65.9995" x2="400.322" y2="234.499" gradientUnits="userSpaceOnUse">
<stop stop-color="#EDDD0C"/>
<stop offset="1" stop-color="#F3E71B"/>
</linearGradient>
<linearGradient id="paint1_linear_4723_15587" x1="72.9057" y1="349.513" x2="72.9058" y2="-53.8141" gradientUnits="userSpaceOnUse">
<stop stop-color="#EDDD0C"/>
<stop offset="1" stop-color="#F3E71B"/>
</linearGradient>
<clipPath id="clip0_4723_15587">
<rect width="560" height="240" fill="white"/>
</clipPath>
<clipPath id="clip1_4723_15587">
<rect width="560" height="240" fill="white"/>
</clipPath>
</defs>
</svg>
