<svg width="367" height="206" viewBox="0 0 367 206" fill="none" xmlns="http://www.w3.org/2000/svg">
<g clip-path="url(#clip0_3937_2766)">
<rect width="367" height="206" fill="#B7ABFF"/>
<path d="M77.3752 113.22V92.78H83.0872C84.4312 92.78 85.5979 93.0413 86.5872 93.564C87.5766 94.068 88.3419 94.7867 88.8832 95.72C89.4432 96.6533 89.7232 97.7547 89.7232 99.024V106.948C89.7232 108.199 89.4432 109.3 88.8832 110.252C88.3419 111.204 87.5766 111.941 86.5872 112.464C85.5979 112.968 84.4312 113.22 83.0872 113.22H77.3752ZM80.3992 110.532H83.0872C84.1886 110.532 85.0659 110.215 85.7192 109.58C86.3726 108.927 86.6992 108.049 86.6992 106.948V99.024C86.6992 97.9413 86.3726 97.0827 85.7192 96.448C85.0659 95.7947 84.1886 95.468 83.0872 95.468H80.3992V110.532Z" fill="black"/>
<path d="M98.7283 113.22V105.688L92.6523 92.78H95.8443L99.4003 100.508C99.643 101.012 99.839 101.488 99.9883 101.936C100.138 102.365 100.24 102.701 100.296 102.944C100.334 102.701 100.427 102.365 100.576 101.936C100.744 101.488 100.94 101.012 101.164 100.508L104.692 92.78H107.828L101.752 105.688V113.22H98.7283Z" fill="black"/>
<path d="M110.897 113.22V92.78H114.705L120.669 109.776C120.632 109.235 120.585 108.591 120.529 107.844C120.473 107.097 120.427 106.323 120.389 105.52C120.371 104.717 120.361 103.989 120.361 103.336V92.78H123.161V113.22H119.353L113.417 96.224C113.455 96.7093 113.492 97.316 113.529 98.044C113.585 98.772 113.623 99.528 113.641 100.312C113.679 101.096 113.697 101.824 113.697 102.496V113.22H110.897Z" fill="black"/>
<path d="M126.622 113.22L131.83 92.78H135.806L141.014 113.22H137.962L136.73 108.04H130.934L129.702 113.22H126.622ZM131.494 105.548H136.142L134.742 99.64C134.5 98.5947 134.294 97.6893 134.126 96.924C133.977 96.14 133.874 95.608 133.818 95.328C133.762 95.608 133.66 96.14 133.51 96.924C133.361 97.6893 133.156 98.5853 132.894 99.612L131.494 105.548Z" fill="black"/>
<path d="M143.971 113.22V92.78H148.115L150.551 101.6L153.071 92.78H157.243V113.22H154.387V104.092C154.387 103.047 154.406 101.917 154.443 100.704C154.499 99.472 154.565 98.2587 154.639 97.064C154.714 95.8693 154.798 94.7867 154.891 93.816L151.811 104.232H149.263L146.295 94.068C146.407 94.9453 146.501 95.916 146.575 96.98C146.669 98.044 146.734 99.1733 146.771 100.368C146.809 101.563 146.827 102.804 146.827 104.092V113.22H143.971Z" fill="black"/>
<path d="M161.741 113.22V110.476H165.857V95.524H161.741V92.78H173.053V95.524H168.937V110.476H173.053V113.22H161.741Z" fill="black"/>
<path d="M184.41 113.5C183.14 113.5 182.03 113.267 181.078 112.8C180.144 112.315 179.416 111.624 178.894 110.728C178.39 109.813 178.138 108.749 178.138 107.536V98.464C178.138 97.232 178.39 96.168 178.894 95.272C179.416 94.376 180.144 93.6947 181.078 93.228C182.03 92.7427 183.14 92.5 184.41 92.5C185.679 92.5 186.78 92.7427 187.714 93.228C188.647 93.7133 189.366 94.404 189.87 95.3C190.392 96.1773 190.654 97.232 190.654 98.464H187.63C187.63 97.4 187.35 96.588 186.79 96.028C186.23 95.468 185.436 95.188 184.41 95.188C183.383 95.188 182.58 95.468 182.002 96.028C181.442 96.588 181.162 97.4 181.162 98.464V107.536C181.162 108.581 181.442 109.393 182.002 109.972C182.58 110.532 183.383 110.812 184.41 110.812C185.436 110.812 186.23 110.532 186.79 109.972C187.35 109.393 187.63 108.581 187.63 107.536H190.654C190.654 108.749 190.392 109.804 189.87 110.7C189.366 111.596 188.647 112.287 187.714 112.772C186.78 113.257 185.679 113.5 184.41 113.5Z" fill="black"/>
<path d="M223.014 97.1794C229.841 97.1794 235.375 94.9006 235.375 92.0897C235.375 89.2787 229.841 87 223.014 87C216.188 87 210.654 89.2787 210.654 92.0897C210.654 94.9006 216.188 97.1794 223.014 97.1794Z" stroke="black" stroke-width="3"/>
<path d="M210.653 92.0894V113.902C210.71 114.572 211.087 115.235 211.761 115.853C212.435 116.471 213.393 117.033 214.581 117.507C215.769 117.98 217.164 118.355 218.686 118.612C220.207 118.868 221.826 119 223.449 119C225.072 119 226.668 118.868 228.146 118.612C229.624 118.355 230.954 117.98 232.062 117.507C233.169 117.033 234.032 116.471 234.6 115.853C235.169 115.235 235.432 114.572 235.375 113.902V92.0894M210.653 99.3603C210.71 100.03 211.087 100.693 211.761 101.311C212.435 101.929 213.393 102.491 214.581 102.965C215.769 103.438 217.164 103.813 218.686 104.07C220.207 104.326 221.826 104.458 223.449 104.458C225.072 104.458 226.668 104.326 228.146 104.07C229.624 103.813 230.954 103.438 232.062 102.965C233.169 102.491 234.032 101.929 234.6 101.311C235.169 100.693 235.432 100.03 235.375 99.3603M210.653 106.631C210.71 107.301 211.087 107.964 211.761 108.582C212.435 109.2 213.393 109.762 214.581 110.236C215.769 110.709 217.164 111.084 218.686 111.341C220.207 111.597 221.826 111.729 223.449 111.729C225.072 111.729 226.668 111.597 228.146 111.341C229.624 111.084 230.954 110.709 232.062 110.236C233.169 109.762 234.032 109.2 234.6 108.582C235.169 107.964 235.432 107.301 235.375 106.631" stroke="black" stroke-width="3"/>
<path d="M249.047 113.12C247.703 113.12 246.527 112.887 245.519 112.42C244.511 111.935 243.736 111.244 243.195 110.348C242.653 109.452 242.383 108.388 242.383 107.156H245.351C245.351 108.183 245.687 108.995 246.359 109.592C247.049 110.171 247.945 110.46 249.047 110.46C250.148 110.46 251.016 110.161 251.651 109.564C252.285 108.967 252.603 108.173 252.603 107.184C252.603 106.437 252.397 105.784 251.987 105.224C251.576 104.664 250.988 104.281 250.223 104.076L247.283 103.292C245.901 102.919 244.809 102.237 244.007 101.248C243.223 100.24 242.831 99.0548 242.831 97.6921C242.831 96.5721 243.073 95.6015 243.559 94.7801C244.063 93.9401 244.772 93.2868 245.687 92.8201C246.601 92.3535 247.665 92.1201 248.879 92.1201C250.092 92.1201 251.156 92.3535 252.071 92.8201C253.004 93.2868 253.723 93.9401 254.227 94.7801C254.749 95.6015 255.011 96.5628 255.011 97.6641H252.043C252.043 96.7868 251.744 96.0868 251.147 95.5641C250.568 95.0228 249.812 94.7521 248.879 94.7521C247.945 94.7521 247.189 95.0228 246.611 95.5641C246.051 96.0868 245.771 96.7774 245.771 97.6361C245.771 98.3081 245.957 98.8868 246.331 99.3721C246.723 99.8388 247.264 100.165 247.955 100.352L250.979 101.164C252.397 101.537 253.508 102.265 254.311 103.348C255.132 104.412 255.543 105.691 255.543 107.184C255.543 108.397 255.281 109.452 254.759 110.348C254.236 111.225 253.48 111.907 252.491 112.392C251.52 112.877 250.372 113.12 249.047 113.12Z" fill="black"/>
<path d="M268.972 117.88L265.948 112.868L266.396 113.092C266.321 113.092 266.228 113.092 266.116 113.092C266.004 113.111 265.882 113.12 265.752 113.12C264.482 113.12 263.372 112.868 262.42 112.364C261.468 111.86 260.73 111.16 260.208 110.264C259.685 109.349 259.424 108.285 259.424 107.072V98.1681C259.424 96.9361 259.685 95.8721 260.208 94.9761C260.73 94.0801 261.468 93.3801 262.42 92.8761C263.372 92.3721 264.482 92.1201 265.752 92.1201C267.04 92.1201 268.15 92.3721 269.084 92.8761C270.036 93.3801 270.773 94.0801 271.296 94.9761C271.818 95.8721 272.08 96.9361 272.08 98.1681V107.072C272.08 108.304 271.809 109.387 271.268 110.32C270.745 111.253 269.989 111.953 269 112.42L272.332 117.88H268.972ZM265.752 110.46C266.778 110.46 267.581 110.152 268.16 109.536C268.757 108.92 269.056 108.099 269.056 107.072V98.1681C269.056 97.1228 268.757 96.3014 268.16 95.7041C267.581 95.0881 266.778 94.7801 265.752 94.7801C264.744 94.7801 263.941 95.0881 263.344 95.7041C262.746 96.3014 262.448 97.1228 262.448 98.1681V107.072C262.448 108.099 262.737 108.92 263.316 109.536C263.913 110.152 264.725 110.46 265.752 110.46Z" fill="black"/>
<path d="M277.669 112.84V92.4001H280.665V110.096H289.625V112.84H277.669Z" fill="black"/>
<path d="M170 12.5088L170 -31L-19 -31L-19 120L26 120C37.0457 120 46 111.046 46 100L46 52.5088C46 41.4631 54.9543 32.5088 66 32.5088L150 32.5088C161.046 32.5088 170 23.5545 170 12.5088Z" fill="#A293FF"/>
<path d="M258 32L258 -44L400 -44L400 221.5L180 221.5L180 178C180 166.954 188.954 158 200 158L317.5 158C328.546 158 337.5 149.046 337.5 138L337.5 72C337.5 60.9543 328.546 52 317.5 52L278 52C266.954 52 258 43.0457 258 32Z" fill="#A293FF"/>
</g>
<defs>
<clipPath id="clip0_3937_2766">
<rect width="367" height="206" fill="white"/>
</clipPath>
</defs>
</svg>
