<svg width="367" height="206" viewBox="0 0 367 206" fill="none" xmlns="http://www.w3.org/2000/svg">
<g clip-path="url(#clip0_3939_9096)">
<rect width="367" height="206" fill="#B7ABFF"/>
<path d="M99.7664 100.782V94.825H102.503V111.5H99.7664V109.867C99.0304 111.086 97.7424 111.799 96.0864 111.799C93.1424 111.799 90.7044 109.292 90.7044 105.313C90.7044 101.357 93.1424 98.85 96.0864 98.85C97.7424 98.85 99.0304 99.563 99.7664 100.782ZM99.8814 105.313C99.8814 102.461 98.4554 101.081 96.6844 101.081C94.8444 101.081 93.5564 102.737 93.5564 105.313C93.5564 107.958 94.8444 109.568 96.6844 109.568C98.4554 109.568 99.8814 108.165 99.8814 105.313ZM105.662 115.525H104.42V113.432H105.455C106.651 113.432 107.157 113.34 107.709 111.73L107.847 111.431L103.362 99.126H106.352L109.158 108.004L111.964 99.126H114.77L110.423 111.477C109.25 114.674 108.445 115.525 105.662 115.525ZM118.361 99.126V100.851C119.074 99.563 120.362 98.85 122.11 98.85C125.1 98.85 126.319 100.782 126.319 103.726V111.5H123.582V104.393C123.582 102.714 123.352 101.081 121.236 101.081C119.12 101.081 118.361 102.691 118.361 104.922V111.5H115.624V99.126H118.361ZM136.137 106.624V105.681C132.227 106.049 130.64 106.624 130.64 108.027C130.64 109.108 131.537 109.752 132.917 109.752C134.941 109.752 136.137 108.74 136.137 106.624ZM132.319 111.799C129.628 111.799 127.742 110.35 127.742 108.096C127.742 104.991 131.56 104.255 136.068 103.772V103.542C136.068 101.426 134.872 100.782 133.492 100.782C132.112 100.782 131.077 101.518 131.008 103.013H128.317C128.501 100.506 130.594 98.758 133.584 98.758C136.551 98.758 138.874 100.115 138.805 104.071C138.805 104.669 138.759 106.141 138.759 107.268C138.759 108.832 138.874 110.465 139.127 111.5H136.62C136.528 110.971 136.459 110.672 136.39 109.821C135.585 111.178 134.159 111.799 132.319 111.799ZM143.619 104.922V111.5H140.882V99.126H143.619V100.851C144.332 99.563 145.551 98.85 147.207 98.85C149.139 98.85 150.243 99.655 150.818 101.035C151.899 99.471 153.302 98.85 154.843 98.85C157.787 98.85 158.891 100.782 158.891 103.726V111.5H156.154V104.393C156.154 102.714 155.993 101.081 153.969 101.081C151.945 101.081 151.255 102.691 151.255 104.922V111.5H148.518V104.393C148.518 102.714 148.357 101.081 146.333 101.081C144.309 101.081 143.619 102.691 143.619 104.922ZM161.059 94.825H163.796V97.585H161.059V94.825ZM161.059 99.126H163.796V111.5H161.059V99.126ZM171.407 98.85C174.121 98.85 176.467 100.621 176.95 103.358H174.282C174.029 102.047 172.902 101.127 171.407 101.127C169.682 101.127 168.164 102.392 168.164 105.313C168.164 108.257 169.728 109.522 171.338 109.522C172.695 109.522 174.006 108.924 174.374 107.268H177.042C176.49 110.166 173.937 111.799 171.292 111.799C167.704 111.799 165.335 109.016 165.335 105.336C165.335 101.656 167.704 98.85 171.407 98.85Z" fill="black"/>
<path d="M210.375 97.1794C217.202 97.1794 222.736 94.9006 222.736 92.0897C222.736 89.2787 217.202 87 210.375 87C203.548 87 198.014 89.2787 198.014 92.0897C198.014 94.9006 203.548 97.1794 210.375 97.1794Z" stroke="black" stroke-width="3"/>
<path d="M198.014 92.0894V113.902C198.071 114.572 198.448 115.235 199.122 115.853C199.795 116.471 200.754 117.033 201.942 117.507C203.13 117.98 204.525 118.355 206.046 118.612C207.568 118.868 209.187 119 210.81 119C212.433 119 214.029 118.868 215.507 118.612C216.985 118.355 218.315 117.98 219.423 117.507C220.53 117.033 221.393 116.471 221.961 115.853C222.529 115.235 222.793 114.572 222.735 113.902V92.0894M198.014 99.3603C198.071 100.03 198.448 100.693 199.122 101.311C199.795 101.929 200.754 102.491 201.942 102.965C203.13 103.438 204.525 103.813 206.046 104.07C207.568 104.326 209.187 104.458 210.81 104.458C212.433 104.458 214.029 104.326 215.507 104.07C216.985 103.813 218.315 103.438 219.423 102.965C220.53 102.491 221.393 101.929 221.961 101.311C222.529 100.693 222.793 100.03 222.735 99.3603M198.014 106.631C198.071 107.301 198.448 107.964 199.122 108.582C199.795 109.2 200.754 109.762 201.942 110.236C203.13 110.709 204.525 111.084 206.046 111.341C207.568 111.597 209.187 111.729 210.81 111.729C212.433 111.729 214.029 111.597 215.507 111.341C216.985 111.084 218.315 110.709 219.423 110.236C220.53 109.762 221.393 109.2 221.961 108.582C222.529 107.964 222.793 107.301 222.735 106.631" stroke="black" stroke-width="3"/>
<path d="M237.632 104.324L235.608 103.933C232.963 103.381 230.801 102.047 230.801 99.218C230.801 96.113 234.044 94.526 237.103 94.526C240.415 94.526 242.968 96.021 243.635 99.494H240.806C240.323 97.493 238.598 96.918 236.942 96.918C235.654 96.918 233.745 97.493 233.745 99.126C233.745 100.414 234.78 101.058 236.229 101.334L238.276 101.725C241.197 102.277 243.98 103.381 243.98 106.716C243.98 110.097 240.645 111.799 237.356 111.799C233.377 111.799 230.709 109.66 230.341 105.98H233.216C233.745 108.28 235.194 109.407 237.494 109.407C239.472 109.407 241.059 108.51 241.059 106.9C241.059 105.175 239.219 104.623 237.632 104.324ZM260.985 103.151C260.985 105.934 260.111 108.211 258.478 109.752L260.456 112.098L258.662 113.593L256.546 111.086C255.511 111.569 254.338 111.799 253.027 111.799C248.128 111.799 245.069 108.28 245.069 103.151C245.069 97.999 248.128 94.526 253.027 94.526C257.926 94.526 260.985 97.999 260.985 103.151ZM248.082 103.151C248.082 107.222 250.267 109.407 253.027 109.407C253.694 109.407 254.315 109.292 254.844 109.039L253.487 107.406L255.258 105.911L256.684 107.613C257.489 106.532 257.972 105.083 257.972 103.151C257.972 99.103 255.787 96.918 253.027 96.918C250.267 96.918 248.082 99.103 248.082 103.151ZM265.914 94.825V109.039H274.309V111.5H262.993V94.825H265.914Z" fill="black"/>
<path d="M170 12.5088L170 -31L-19 -31L-19 120L26 120C37.0457 120 46 111.046 46 100L46 52.5088C46 41.4631 54.9543 32.5088 66 32.5088L150 32.5088C161.046 32.5088 170 23.5545 170 12.5088Z" fill="#A293FF"/>
<path d="M258 32L258 -44L400 -44L400 221.5L180 221.5L180 178C180 166.954 188.954 158 200 158L317.5 158C328.546 158 337.5 149.046 337.5 138L337.5 72C337.5 60.9543 328.546 52 317.5 52L278 52C266.954 52 258 43.0457 258 32Z" fill="#A293FF"/>
</g>
<defs>
<clipPath id="clip0_3939_9096">
<rect width="367" height="206" fill="white"/>
</clipPath>
</defs>
</svg>
