<svg width="560" height="240" viewBox="0 0 560 240" fill="none" xmlns="http://www.w3.org/2000/svg">
<g clip-path="url(#clip0_4723_13713)">
<rect width="560" height="240" fill="#FFF100"/>
<g clip-path="url(#clip1_4723_13713)">
<rect width="560" height="240" fill="#FFF100"/>
<path d="M224 49.847L224 -0.999985C224 -12.0457 215.046 -21 204 -21L-26 -21C-37.0457 -21 -46 -12.0457 -46 -1.00001L-46 175C-46 186.046 -37.0457 195 -26 195L52.5714 195C63.6171 195 72.5714 186.046 72.5714 175L72.5714 89.8471C72.5714 78.8014 81.5257 69.8471 92.5714 69.8471L204 69.8471C215.046 69.8471 224 60.8927 224 49.847Z" fill="#EDDE00"/>
<path d="M472.584 123.352L505.5 123.352C516.546 123.352 525.5 114.397 525.5 103.352L525.5 66.9999C525.5 55.9542 516.546 46.9999 505.5 46.9999L454.5 46.9999C443.454 46.9999 434.5 38.0456 434.5 26.9999L434.5 -34.0001C434.5 -45.0458 443.454 -54.0001 454.5 -54.0001L583 -54.0001C594.046 -54.0001 603 -45.0457 603 -34.0001L603 241.5C603 252.546 594.046 261.5 583 261.5L335 261.5C323.954 261.5 315 252.546 315 241.5L315 206.5C315 195.454 323.954 186.5 335 186.5L432.584 186.5C443.629 186.5 452.584 177.546 452.584 166.5L452.584 143.352C452.584 132.306 461.538 123.352 472.584 123.352Z" fill="#EDDE00"/>
</g>
<path d="M257.934 132.33H239.802V143.934H257.934V132.33Z" fill="#FFEF00"/>
<path d="M250.021 122.176C250.021 122.129 250.018 119.55 250.014 119.503H259.99V145.37H234.12V119.503H244.096C244.096 119.55 244.089 122.129 244.089 122.176M255.907 142.603H257.684L254.989 133.447H252.288L250.068 142.603H251.791L252.241 140.565H255.319L255.903 142.603H255.907ZM246.467 142.603H248.168L250.351 133.447H248.672L247.334 139.756H247.312L246.043 133.447H244.44L243.026 139.68H243.004L241.833 133.447H240.121L242.094 142.603H243.827L245.187 136.369H245.209L246.467 142.603ZM253.318 135.702H254.039L254.899 139.064H252.571L253.318 135.702Z" fill="black"/>
<path d="M233.275 105.009C233.275 108.853 230.084 112.261 226.022 112.261H211.517V119.514H207.89V94.1295H226.022C229.902 94.1295 233.166 97.357 233.275 101.382V105.009ZM229.648 101.382C229.648 99.3878 228.017 97.7559 226.022 97.7559H211.517V108.635H226.022C228.017 108.635 229.648 107.003 229.648 105.009V101.382Z" fill="black"/>
<path d="M248.868 111.536V119.514H245.241V111.536L234.362 99.569V94.1294H237.989V98.0821L247.055 108.055L256.121 98.0821V94.1294H259.747V99.569L248.868 111.536Z" fill="black"/>
<g filter="url(#filter0_d_4723_13713)">
<path d="M325.5 153.5C306.967 153.5 292 138.533 292 120C292 101.467 306.967 86.5 325.5 86.5C344.033 86.5 359 101.467 359 120C359 138.533 344.033 153.5 325.5 153.5Z" fill="black"/>
<path d="M343.412 115.03H336.84V124.948H343.412C346.137 124.948 348.401 122.684 348.401 119.959C348.401 117.214 346.137 115.03 343.412 115.03Z" fill="#FFEF00"/>
<path d="M304.641 120C304.641 127.654 310.872 133.885 318.526 133.885C326.18 133.885 332.411 127.654 332.411 120C332.411 112.346 326.18 106.115 318.526 106.115C310.872 106.115 304.641 112.346 304.641 120Z" fill="#FFEF00"/>
</g>
</g>
<defs>
<filter id="filter0_d_4723_13713" x="291" y="85.5" width="69" height="69" filterUnits="userSpaceOnUse" color-interpolation-filters="sRGB">
<feFlood flood-opacity="0" result="BackgroundImageFix"/>
<feColorMatrix in="SourceAlpha" type="matrix" values="0 0 0 0 0 0 0 0 0 0 0 0 0 0 0 0 0 0 127 0" result="hardAlpha"/>
<feOffset/>
<feGaussianBlur stdDeviation="0.5"/>
<feComposite in2="hardAlpha" operator="out"/>
<feColorMatrix type="matrix" values="0 0 0 0 0 0 0 0 0 0 0 0 0 0 0 0 0 0 0.17 0"/>
<feBlend mode="normal" in2="BackgroundImageFix" result="effect1_dropShadow_4723_13713"/>
<feBlend mode="normal" in="SourceGraphic" in2="effect1_dropShadow_4723_13713" result="shape"/>
</filter>
<clipPath id="clip0_4723_13713">
<rect width="560" height="240" fill="white"/>
</clipPath>
<clipPath id="clip1_4723_13713">
<rect width="560" height="240" fill="white"/>
</clipPath>
</defs>
</svg>
