<svg xmlns="http://www.w3.org/2000/svg" width="560" height="240" fill="none" viewBox="0 0 560 240"><g clip-path="url(#clip0_4723_13385)"><rect width="560" height="240" fill="#FFF100"/><g clip-path="url(#clip1_4723_13385)"><rect width="560" height="240" fill="#FFF100"/><path fill="url(#paint0_linear_4723_13385)" d="M387 170.5L451.783 170.5C462.828 170.5 471.782 161.546 471.782 150.5L471.782 67.5001C471.782 56.4544 480.737 47.5001 491.782 47.5001L692.082 47.5001C703.128 47.5001 712.082 56.4544 712.082 67.5001L712.082 241.913C712.082 252.958 703.128 261.913 692.082 261.913L387 261.913C375.954 261.913 367 252.958 367 241.913L367 190.5C367 179.454 375.954 170.5 387 170.5Z"/><path fill="url(#paint1_linear_4723_13385)" d="M141.127 314L141.127 77.9839C141.127 66.9382 150.081 57.9839 161.127 57.9839L199.812 57.9839C210.857 57.9839 219.812 49.0296 219.812 37.9839L219.812 -86.9999C219.812 -98.0456 210.857 -107 199.812 -107L-54.0001 -107C-65.0458 -107 -74.0001 -98.0457 -74.0001 -87L-74.0002 314C-74.0002 325.046 -65.0458 334 -54.0002 334L121.127 334C132.173 334 141.127 325.046 141.127 314Z"/><rect width="546" height="169" x="417" y="194" fill="#FFF100" rx="20"/><rect width="598" height="204" x="-513" y="-43" fill="#FFF100" rx="20"/></g><circle cx="280" cy="120" r="33.5" fill="#000"/><path fill="#FFF100" d="M287.377 118.263C282.979 122.087 278.669 125.834 274.359 129.582C272.668 131.052 270.967 132.511 269.289 133.999C268.796 134.436 268.321 134.639 267.675 134.4C266.957 134.134 266.297 134.347 265.716 134.838C265.382 135.119 265.061 135.419 264.716 135.687C264.041 136.208 263.334 136.15 262.844 135.553C262.395 135.009 262.445 134.269 263.001 133.684C263.283 133.388 263.605 133.131 263.918 132.865C264.569 132.312 264.831 131.637 264.809 130.75C264.798 130.299 265.016 129.688 265.34 129.403C271.296 124.169 277.282 118.973 283.265 113.771C283.324 113.72 283.408 113.698 283.558 113.625C284.807 115.141 286.065 116.668 287.378 118.26L287.377 118.263Z"/><path fill="#FFF100" d="M290.75 115.332C291.201 115.906 291.6 116.416 292.054 116.996C291.229 117.719 290.44 118.408 289.568 119.171C287.356 116.482 285.201 113.864 283.007 111.199C283.869 110.445 284.662 109.751 285.493 109.025C285.965 109.57 286.388 110.057 286.865 110.607C287.234 110.301 287.59 110.016 287.934 109.719C289.131 108.682 290.304 107.615 291.524 106.605C292.889 105.477 294.766 105.629 295.812 106.9C296.9 108.223 296.708 110.091 295.339 111.33C294.59 112.008 293.821 112.665 293.059 113.329C292.318 113.973 291.577 114.615 290.749 115.332L290.75 115.332Z"/></g><defs><linearGradient id="paint0_linear_4723_13385" x1="400.322" x2="400.322" y1="65.999" y2="234.499" gradientUnits="userSpaceOnUse"><stop stop-color="#EDDD0C"/><stop offset="1" stop-color="#F3E71B"/></linearGradient><linearGradient id="paint1_linear_4723_13385" x1="72.906" x2="72.906" y1="349.513" y2="-53.814" gradientUnits="userSpaceOnUse"><stop stop-color="#EDDD0C"/><stop offset="1" stop-color="#F3E71B"/></linearGradient><clipPath id="clip0_4723_13385"><rect width="560" height="240" fill="#fff"/></clipPath><clipPath id="clip1_4723_13385"><rect width="560" height="240" fill="#fff"/></clipPath></defs></svg>