<svg width="560" height="240" viewBox="0 0 560 240" fill="none" xmlns="http://www.w3.org/2000/svg">
<g clip-path="url(#clip0_5552_17119)">
<rect width="560" height="240" fill="#FFF100"/>
<g clip-path="url(#clip1_5552_17119)">
<rect width="560" height="240" fill="#FFF100"/>
<path d="M224 49.847L224 -0.999985C224 -12.0457 215.046 -21 204 -21L-26 -21C-37.0457 -21 -46 -12.0457 -46 -1.00001L-46 175C-46 186.046 -37.0457 195 -26 195L52.5714 195C63.6171 195 72.5714 186.046 72.5714 175L72.5714 89.8471C72.5714 78.8014 81.5257 69.8471 92.5714 69.8471L204 69.8471C215.046 69.8471 224 60.8927 224 49.847Z" fill="#EDDE00"/>
<path d="M472.584 123.352L505.5 123.352C516.546 123.352 525.5 114.397 525.5 103.352L525.5 66.9999C525.5 55.9542 516.546 46.9999 505.5 46.9999L454.5 46.9999C443.454 46.9999 434.5 38.0456 434.5 26.9999L434.5 -34.0001C434.5 -45.0458 443.454 -54.0001 454.5 -54.0001L583 -54.0001C594.046 -54.0001 603 -45.0457 603 -34.0001L603 241.5C603 252.546 594.046 261.5 583 261.5L335 261.5C323.954 261.5 315 252.546 315 241.5L315 206.5C315 195.454 323.954 186.5 335 186.5L432.584 186.5C443.629 186.5 452.584 177.546 452.584 166.5L452.584 143.352C452.584 132.306 461.538 123.352 472.584 123.352Z" fill="#EDDE00"/>
</g>
<path d="M164.852 109.022L163.963 106.157H159.666L158.813 109.022H155.966L160.391 96.4556H163.383L167.807 109.022H164.852ZM160.246 104.199H163.401L161.805 98.9398L160.246 104.199Z" fill="black"/>
<path d="M180.665 109.022V102.748C180.665 101.926 180.296 101.515 179.558 101.515C178.906 101.515 178.247 101.672 177.582 101.986V109.022H174.934V102.748C174.934 101.926 174.566 101.515 173.828 101.515C173.151 101.515 172.486 101.678 171.834 102.004V109.022H169.186V99.7558H171.362L171.598 100.644C172.239 100.221 172.813 99.9251 173.321 99.7558C173.84 99.5745 174.372 99.4838 174.916 99.4838C176.004 99.4838 176.772 99.8707 177.219 100.644C177.836 100.233 178.416 99.9372 178.96 99.7558C179.504 99.5745 180.066 99.4838 180.646 99.4838C181.493 99.4838 182.146 99.7196 182.605 100.191C183.076 100.662 183.312 101.321 183.312 102.168V109.022H180.665Z" fill="black"/>
<path d="M191.127 109.022L190.91 108.206C190.535 108.544 190.1 108.816 189.604 109.022C189.121 109.215 188.649 109.312 188.19 109.312C187.295 109.312 186.576 109.058 186.032 108.55C185.5 108.043 185.234 107.366 185.234 106.52C185.234 105.939 185.379 105.432 185.669 104.996C185.959 104.549 186.376 104.199 186.92 103.945C187.464 103.691 188.105 103.564 188.843 103.564C189.423 103.564 190.064 103.642 190.765 103.8V102.893C190.765 102.337 190.65 101.956 190.42 101.75C190.191 101.545 189.767 101.442 189.151 101.442C188.16 101.442 187.066 101.63 185.869 102.004V100.245C186.316 100.016 186.878 99.8344 187.555 99.7014C188.232 99.5564 188.921 99.4838 189.622 99.4838C190.868 99.4838 191.774 99.7377 192.342 100.245C192.923 100.741 193.213 101.527 193.213 102.603V109.022H191.127ZM188.933 107.535C189.236 107.535 189.544 107.469 189.858 107.336C190.184 107.203 190.487 107.021 190.765 106.792V105.214C190.233 105.129 189.755 105.087 189.332 105.087C188.28 105.087 187.755 105.51 187.755 106.356C187.755 106.731 187.857 107.021 188.063 107.227C188.268 107.432 188.559 107.535 188.933 107.535Z" fill="black"/>
<path d="M195.024 109.022V107.136L199.793 101.714H195.206V99.7558H202.713V101.642L197.889 107.064H202.803V109.022H195.024Z" fill="black"/>
<path d="M208.595 109.294C207.157 109.294 206.032 108.865 205.222 108.007C204.412 107.136 204.007 105.927 204.007 104.38C204.007 102.845 204.412 101.648 205.222 100.789C206.032 99.919 207.157 99.4838 208.595 99.4838C210.034 99.4838 211.158 99.919 211.968 100.789C212.778 101.648 213.183 102.845 213.183 104.38C213.183 105.927 212.778 107.136 211.968 108.007C211.158 108.865 210.034 109.294 208.595 109.294ZM208.595 107.263C209.865 107.263 210.499 106.302 210.499 104.38C210.499 102.47 209.865 101.515 208.595 101.515C207.326 101.515 206.691 102.47 206.691 104.38C206.691 106.302 207.326 107.263 208.595 107.263Z" fill="black"/>
<path d="M221.193 109.022V102.947C221.193 102.452 221.085 102.089 220.867 101.859C220.649 101.63 220.317 101.515 219.87 101.515C219.205 101.515 218.546 101.72 217.893 102.131V109.022H215.246V99.7558H217.422L217.675 100.753C218.763 99.9069 219.924 99.4838 221.157 99.4838C222.015 99.4838 222.674 99.7196 223.134 100.191C223.605 100.65 223.841 101.309 223.841 102.168V109.022H221.193Z" fill="black"/>
<path d="M132.44 132.902C130.759 132.266 129.538 131.497 128.78 130.595C128.021 129.693 127.642 128.554 127.642 127.181C127.642 126.032 127.929 125.017 128.503 124.135C129.077 123.233 129.897 122.526 130.964 122.013C132.051 121.5 133.322 121.244 134.778 121.244C136.624 121.244 138.52 121.613 140.469 122.351V124.843C138.397 124.207 136.572 123.889 134.993 123.889C133.66 123.889 132.625 124.166 131.886 124.72C131.169 125.253 130.81 126.022 130.81 127.027C130.81 127.847 131.056 128.503 131.548 128.995C132.04 129.467 132.953 129.949 134.286 130.441L137.085 131.487C138.746 132.102 139.935 132.851 140.653 133.732C141.391 134.594 141.76 135.711 141.76 137.085C141.76 139.054 141.053 140.623 139.638 141.792C138.244 142.96 136.357 143.545 133.978 143.545C131.62 143.545 129.569 143.125 127.826 142.284V139.823C129.979 140.541 132.01 140.9 133.917 140.9C135.373 140.9 136.511 140.582 137.331 139.946C138.172 139.31 138.592 138.449 138.592 137.362C138.592 136.603 138.346 135.978 137.854 135.486C137.382 134.973 136.572 134.491 135.424 134.04L132.44 132.902Z" fill="black"/>
<path d="M151.06 130.841C151.162 130.82 151.265 130.81 151.367 130.81C151.47 130.81 151.572 130.81 151.675 130.81C153.705 130.81 155.315 131.364 156.504 132.471C157.694 133.558 158.288 135.024 158.288 136.87C158.288 138.88 157.56 140.489 156.104 141.699C154.669 142.889 152.731 143.483 150.291 143.483C148.363 143.483 146.456 143.073 144.569 142.253V139.792C146.804 140.53 148.712 140.9 150.291 140.9C151.849 140.9 153.049 140.551 153.89 139.854C154.73 139.156 155.151 138.162 155.151 136.87C155.151 134.389 153.582 133.148 150.444 133.148C149.46 133.148 148.486 133.199 147.522 133.302V131.272L153.982 124.228H144.877V121.705H157.396V124.135L151.06 130.841Z" fill="black"/>
<path d="M174.427 143.022V124.289H167.629V121.705H184.362V124.289H177.564V143.022H174.427Z" fill="black"/>
<path d="M193.972 143.022L193.726 141.422C192.988 142.058 192.167 142.55 191.265 142.899C190.383 143.248 189.502 143.422 188.62 143.422C187.164 143.422 185.995 143.012 185.113 142.191C184.252 141.351 183.821 140.233 183.821 138.839C183.821 137.342 184.354 136.152 185.421 135.27C186.487 134.368 187.923 133.917 189.727 133.917C190.917 133.917 192.209 134.091 193.603 134.44V132.41C193.603 131.302 193.347 130.523 192.834 130.072C192.342 129.621 191.491 129.395 190.281 129.395C188.538 129.395 186.733 129.713 184.867 130.349V128.196C185.605 127.806 186.508 127.509 187.574 127.304C188.64 127.078 189.717 126.965 190.804 126.965C192.752 126.965 194.187 127.375 195.11 128.196C196.033 128.995 196.494 130.226 196.494 131.887V143.022H193.972ZM189.358 141.115C190.753 141.115 192.167 140.592 193.603 139.546V136.409C192.537 136.142 191.45 136.009 190.342 136.009C188.025 136.009 186.867 136.901 186.867 138.685C186.867 139.464 187.082 140.069 187.512 140.5C187.943 140.91 188.558 141.115 189.358 141.115Z" fill="black"/>
<path d="M200.258 143.022V120.26H203.303V128.903C204.841 127.611 206.502 126.965 208.286 126.965C210.275 126.965 211.844 127.683 212.992 129.118C214.141 130.554 214.715 132.523 214.715 135.024C214.715 137.547 214.11 139.567 212.9 141.084C211.69 142.602 210.08 143.36 208.071 143.36C206.184 143.36 204.533 142.704 203.118 141.392L202.78 143.022H200.258ZM207.425 129.426C205.969 129.426 204.595 129.898 203.303 130.841V139.423C204.595 140.407 205.948 140.9 207.363 140.9C210.193 140.9 211.608 138.992 211.608 135.178C211.608 133.23 211.26 131.784 210.562 130.841C209.886 129.898 208.84 129.426 207.425 129.426Z" fill="black"/>
<path d="M223.26 142.807C222.583 143.053 221.845 143.176 221.045 143.176C219.958 143.176 219.128 142.868 218.554 142.253C217.98 141.617 217.692 140.715 217.692 139.546V120.26H220.738V139.362C220.738 139.833 220.83 140.182 221.015 140.407C221.22 140.612 221.548 140.715 221.999 140.715C222.409 140.715 222.829 140.684 223.26 140.623V142.807Z" fill="black"/>
<path d="M227.848 135.886C227.889 137.649 228.32 138.951 229.14 139.792C229.981 140.633 231.273 141.053 233.016 141.053C234.636 141.053 236.287 140.735 237.968 140.1V142.284C236.492 143.083 234.687 143.483 232.554 143.483C230.032 143.483 228.125 142.786 226.833 141.392C225.541 139.997 224.895 137.936 224.895 135.209C224.895 132.605 225.541 130.585 226.833 129.149C228.125 127.693 229.929 126.965 232.247 126.965C234.195 126.965 235.692 127.519 236.738 128.626C237.784 129.713 238.306 131.261 238.306 133.271C238.306 134.235 238.224 135.106 238.06 135.886H227.848ZM232.093 129.272C230.801 129.272 229.796 129.662 229.078 130.441C228.361 131.2 227.951 132.338 227.848 133.855H235.507C235.528 133.691 235.538 133.425 235.538 133.056C235.538 131.805 235.241 130.861 234.646 130.226C234.072 129.59 233.221 129.272 232.093 129.272Z" fill="black"/>
<path d="M248.528 138.839C248.528 138.346 248.364 137.947 248.036 137.639C247.728 137.331 247.154 137.024 246.313 136.716L243.699 135.732C241.422 134.891 240.284 133.456 240.284 131.425C240.284 130.092 240.797 129.016 241.822 128.196C242.868 127.375 244.232 126.965 245.913 126.965C247.533 126.965 249.061 127.293 250.497 127.95V130.103C248.897 129.59 247.421 129.334 246.067 129.334C244.098 129.334 243.114 130 243.114 131.333C243.114 131.866 243.278 132.287 243.606 132.594C243.934 132.902 244.58 133.24 245.544 133.609L247.944 134.532C249.153 135.004 250.025 135.568 250.558 136.224C251.091 136.86 251.358 137.69 251.358 138.716C251.358 140.172 250.814 141.33 249.728 142.191C248.641 143.053 247.195 143.483 245.39 143.483C243.36 143.483 241.597 143.094 240.1 142.314V140.161C242.027 140.797 243.811 141.115 245.452 141.115C246.457 141.115 247.216 140.92 247.728 140.53C248.261 140.141 248.528 139.577 248.528 138.839Z" fill="black"/>
<path d="M276.358 98C276.358 92.4772 280.836 88 286.358 88H330.358C335.881 88 340.358 92.4772 340.358 98V142C340.358 147.523 335.881 152 330.358 152H286.358C280.836 152 276.358 147.523 276.358 142V98Z" fill="black"/>
<path d="M328.404 127.636H311.222C310.697 127.636 310.267 128.051 310.267 128.576V140.03C310.267 140.557 310.695 141 311.222 141H328.404C328.931 141 329.358 140.557 329.358 140.03V128.576C329.358 128.048 328.931 127.636 328.404 127.636ZM315.995 139.091H312.177V137.182H315.995V139.091ZM315.995 135.273H312.177V133.364H315.995V135.273ZM315.995 131.455H312.177V129.545H315.995V131.455ZM321.722 139.091H317.904V137.182H321.722V139.091ZM321.722 135.273H317.904V133.364H321.722V135.273ZM321.722 131.455H317.904V129.545H321.722V131.455ZM327.449 139.091H323.631V137.182H327.449V139.091ZM327.449 135.273H323.631V133.364H327.449V135.273ZM327.449 131.455H323.631V129.545H327.449V131.455ZM327.453 122.516C327.236 121.358 325.862 120.137 323.007 118.56L324.586 105.205C324.586 101.778 316.252 99 305.972 99C295.692 99 287.358 101.778 287.358 105.205L291.212 136.757C291.336 140.092 300.513 141 305.972 141C306.709 141 307.517 140.966 308.358 140.93V139.022C307.597 139.055 306.807 139.091 305.972 139.091C298.063 139.091 293.411 137.502 293.12 136.689C293.12 136.651 293.118 136.612 293.114 136.575L289.632 108.177C292.791 110.103 298.923 111.409 305.972 111.409C313.028 111.409 319.166 110.1 322.322 108.171L320.7 121.756C316.431 120.374 310.927 117.887 308.387 116.702C308.388 116.682 308.358 116.679 308.358 116.659C308.358 115.324 307.288 114.273 305.972 114.273C304.656 114.273 303.586 115.324 303.586 116.659C303.586 117.994 304.656 119.045 305.972 119.045C306.584 119.045 307.171 118.824 307.594 118.439C310.243 119.674 316.05 122.296 320.466 123.688L320.221 125.727H322.14L322.321 124.215C323.448 124.499 324.37 124.65 325.096 124.649C326.041 124.649 326.677 124.408 327.083 123.925C327.417 123.527 327.548 123.027 327.453 122.516ZM305.972 117.136C305.709 117.136 305.495 116.922 305.495 116.659C305.495 116.396 305.709 116.182 305.972 116.182C306.235 116.182 306.449 116.396 306.449 116.659C306.449 116.922 306.235 117.136 305.972 117.136ZM305.972 109.5C296.746 109.5 289.267 107.577 289.267 105.205C289.267 102.832 296.746 100.909 305.972 100.909C315.198 100.909 322.677 102.832 322.677 105.205C322.677 107.577 315.198 109.5 305.972 109.5ZM322.553 122.305L322.758 120.616C324.707 121.756 325.317 122.428 325.498 122.71C325.199 122.766 324.398 122.789 322.553 122.305Z" fill="#FFF100"/>
<path d="M398.858 153.5C380.325 153.5 365.358 138.533 365.358 120C365.358 101.467 380.325 86.5 398.858 86.5C417.392 86.5 432.358 101.467 432.358 120C432.358 138.533 417.392 153.5 398.858 153.5Z" fill="black"/>
<path d="M416.771 115.031H410.199V124.949H416.771C419.496 124.949 421.76 122.684 421.76 119.96C421.76 117.215 419.496 115.031 416.771 115.031Z" fill="#FFF100"/>
<path d="M378 120C378 127.654 384.231 133.885 391.885 133.885C399.539 133.885 405.77 127.654 405.77 120C405.77 112.346 399.539 106.115 391.885 106.115C384.231 106.115 378 112.346 378 120Z" fill="#FFF100"/>
</g>
<defs>
<clipPath id="clip0_5552_17119">
<rect width="560" height="240" fill="white"/>
</clipPath>
<clipPath id="clip1_5552_17119">
<rect width="560" height="240" fill="white"/>
</clipPath>
</defs>
</svg>
