<svg xmlns="http://www.w3.org/2000/svg" width="367" height="206" fill="none" viewBox="0 0 367 206"><g clip-path="url(#clip0_3941_9265)"><rect width="367" height="206" fill="#2EAFFF"/><path fill="#1095E7" d="M103.5 171.5L282 171.5C293.046 171.5 302 162.546 302 151.5L302 148.5C302 137.454 310.954 128.5 322 128.5L385 128.5L385 206L83.5 206L83.5 191.5C83.5 180.454 92.4543 171.5 103.5 171.5Z"/><path fill="#1095E7" d="M379.5 64.9995L379.5 -1.00053L-4.99965 -1.00057L-4.99966 119.5L25.9999 119.5C37.0457 119.5 46 110.546 45.9999 99.4999L45.9998 45.4996C45.9998 34.4539 54.9541 25.4996 65.9998 25.4996L281.5 25.4996C292.546 25.4996 301.5 34.4538 301.5 45.4995L301.5 64.9996C301.5 76.0453 310.455 84.9996 321.5 84.9996L359.5 84.9996C370.546 84.9996 379.5 76.0452 379.5 64.9995Z"/><path fill="#2EAFFF" d="M330 174L437.693 174L477 174C488.046 174 497 182.954 497 194L497 256C497 267.046 488.046 276 477 276L330 276C318.954 276 310 267.046 310 256L310 194C310 182.954 318.954 174 330 174Z"/><path fill="#000" d="M99 73.0654L129.13 103L99 132.935V120.961L117.079 103L99 85.0393V73.0654Z"/><path fill="#000" d="M120.13 73.0654L149.869 103L120.13 132.935V120.961L137.974 103L120.13 85.0393V73.0654Z"/><path fill="#000" d="M140.87 73.0654L171 103L140.87 132.935V120.961L158.948 103L140.87 85.0393V73.0654Z"/><path fill="#000" d="M234.5 136.5C215.967 136.5 201 121.533 201 103C201 84.4668 215.967 69.5 234.5 69.5C253.033 69.5 268 84.4668 268 103C268 121.533 253.033 136.5 234.5 136.5Z"/><path fill="#2EAFFF" d="M252.412 98.0308H245.84V107.949H252.412C255.137 107.949 257.401 105.684 257.401 102.96C257.401 100.215 255.137 98.0308 252.412 98.0308Z"/><path fill="#2EAFFF" d="M213.641 103C213.641 110.654 219.872 116.885 227.526 116.885C235.18 116.885 241.411 110.654 241.411 103C241.411 95.3464 235.18 89.1152 227.526 89.1152C219.872 89.1152 213.641 95.3464 213.641 103Z"/></g><defs><clipPath id="clip0_3941_9265"><rect width="367" height="206" fill="#fff"/></clipPath></defs></svg>