<svg xmlns="http://www.w3.org/2000/svg" width="560" height="240" fill="none" viewBox="0 0 560 240"><g clip-path="url(#clip0_5263_5660)"><rect width="560" height="240" fill="#FFF100"/><g clip-path="url(#clip1_5263_5660)"><rect width="560" height="240" fill="#FFF100"/><path fill="#FFF100" d="M-137 100L9.61491 100L67 100C78.0457 100 87 108.954 87 120L87 340C87 351.046 78.0457 360 67 360L-137 360C-148.046 360 -157 351.046 -157 340L-157 120C-157 108.954 -148.046 100 -137 100Z"/><path fill="#EDDE00" d="M231 21.9441L231 -24C231 -35.0457 222.046 -44 211 -44L-11 -44C-22.0457 -44 -31 -35.0457 -31 -24L-31 191C-31 202.046 -22.0457 211 -11 211L76.5 211C87.5457 211 96.5 202.046 96.5 191L96.5 61.9441C96.5 50.8984 105.454 41.9441 116.5 41.9441L211 41.9441C222.046 41.9441 231 32.9898 231 21.9441Z"/><path fill="#EDDE00" d="M423.479 197.576L289 197.576C277.954 197.576 269 206.53 269 217.576L269 256C269 267.046 277.954 276 289 276L611.5 276C622.546 276 631.5 267.046 631.5 256L631.5 -28C631.5 -39.0457 622.546 -48 611.5 -48L504.424 -48C493.378 -48 484.424 -39.0457 484.424 -28L484.424 58.5088C484.424 69.5545 475.47 78.5088 464.424 78.5088L463.479 78.5088C452.433 78.5088 443.479 87.4631 443.479 98.5088L443.479 177.576C443.479 188.622 434.525 197.576 423.479 197.576Z"/><path fill="#FFF100" d="M514 114C502.954 114 494 122.954 494 134L494 294C494 305.046 502.954 314 514 314L612 314C623.046 314 632 305.046 632 294L632 134C632 122.954 623.046 114 612 114L514 114Z"/></g><path fill="#000" d="M223 101.812L218.1 101.812L218.1 156.068H223V161H174V156.068H178.9V101.812L174 101.812V91.9473H178.9V87.0149H193.6L194.825 79L202.175 79L203.4 87.0149H218.1V91.9473H223V101.812ZM177.063 94.4135V99.3458H219.937V94.4135H177.063ZM183.8 144.353V153.601H196.05V144.353H183.8ZM183.8 132.023V141.271H196.05V132.023H183.8ZM183.8 112.293V116.609H186.25V112.293H183.8ZM188.7 112.293V116.609H191.15V112.293H188.7ZM193.6 112.293V116.609H196.05V112.293H193.6ZM183.8 104.895V109.21H186.25V104.895H183.8ZM188.7 104.895V109.21H191.15V104.895H188.7ZM193.6 104.895V109.21H196.05V104.895H193.6ZM183.8 119.692V128.94H196.05V119.692H183.8ZM186.25 121.542H193.6V127.09H186.25V121.542ZM200.95 144.354V153.602H213.2V144.354H200.95ZM200.95 132.023V141.271H213.2V132.023H200.95ZM200.95 112.293L200.95 116.609H203.4V112.293H200.95ZM205.85 112.293V116.609H208.3L208.3 112.293H205.85ZM210.75 112.293V116.609H213.2V112.293H210.75ZM200.95 104.895L200.95 109.211H203.4V104.895H200.95ZM205.85 104.895V109.211H208.3L208.3 104.895H205.85ZM210.75 104.895V109.211H213.2V104.895H210.75ZM200.95 119.692V128.94H213.2V119.692H200.95ZM200.95 87.0149L200.338 82.6992H196.662L196.05 87.0149H200.95ZM181.963 89.4811V91.9473H215.038V89.4811H181.963Z"/><path fill="#000" d="M249.058 128.5L253.405 111.71H256.418L260.742 128.5H258.419L257.361 124.13H252.439L251.381 128.5H249.058ZM252.899 122.244H256.901L255.705 117.23C255.475 116.31 255.291 115.528 255.153 114.884C255.015 114.24 254.931 113.803 254.9 113.573C254.869 113.803 254.785 114.24 254.647 114.884C254.509 115.528 254.333 116.302 254.118 117.207L252.899 122.244ZM268.185 128.684C266.744 128.684 265.624 128.362 264.827 127.718C264.03 127.074 263.631 126.169 263.631 125.004H265.885C265.885 125.556 266.084 125.993 266.483 126.315C266.897 126.622 267.464 126.775 268.185 126.775H269.197C269.948 126.775 270.523 126.614 270.922 126.292C271.336 125.97 271.543 125.518 271.543 124.935C271.543 123.908 271.037 123.333 270.025 123.21L266.621 122.727C265.716 122.589 265.019 122.221 264.528 121.623C264.037 121.01 263.792 120.22 263.792 119.254C263.792 118.119 264.175 117.238 264.942 116.609C265.709 115.98 266.782 115.666 268.162 115.666H269.174C270.462 115.666 271.505 115.973 272.302 116.586C273.099 117.199 273.521 118.012 273.567 119.024H271.267C271.236 118.595 271.037 118.242 270.669 117.966C270.301 117.675 269.803 117.529 269.174 117.529H268.162C267.472 117.529 266.935 117.682 266.552 117.989C266.184 118.296 266 118.71 266 119.231C266 120.074 266.422 120.55 267.265 120.657L270.462 121.117C272.655 121.408 273.751 122.681 273.751 124.935C273.751 126.131 273.352 127.059 272.555 127.718C271.773 128.362 270.654 128.684 269.197 128.684H268.185ZM282.482 128.73C280.949 128.73 279.737 128.285 278.848 127.396C277.959 126.507 277.514 125.249 277.514 123.624V116.563C277.514 114.953 277.959 113.703 278.848 112.814C279.737 111.925 280.949 111.48 282.482 111.48C284.015 111.48 285.227 111.925 286.116 112.814C287.005 113.688 287.45 114.938 287.45 116.563V123.624C287.45 125.249 287.005 126.507 286.116 127.396C285.227 128.285 284.015 128.73 282.482 128.73ZM282.482 126.706C283.341 126.706 284 126.461 284.46 125.97C284.935 125.479 285.173 124.774 285.173 123.854V116.333C285.173 115.428 284.943 114.731 284.483 114.24C284.023 113.749 283.356 113.504 282.482 113.504C281.608 113.504 280.941 113.749 280.481 114.24C280.021 114.731 279.791 115.428 279.791 116.333V123.854C279.791 124.774 280.021 125.479 280.481 125.97C280.956 126.461 281.623 126.706 282.482 126.706ZM294.226 128.5V119.645H290.592V117.575H294.226V115.022C294.226 114.01 294.556 113.205 295.215 112.607C295.874 112.009 296.771 111.71 297.906 111.71H301.609V113.757H297.906C296.971 113.757 296.503 114.186 296.503 115.045V117.575H301.609V119.645H296.503V128.5H294.226ZM323.165 128.73C321.524 128.73 320.236 128.278 319.301 127.373C318.366 126.453 317.898 125.203 317.898 123.624H320.175C320.175 124.605 320.436 125.364 320.957 125.901C321.494 126.438 322.23 126.706 323.165 126.706C324.1 126.706 324.829 126.438 325.35 125.901C325.887 125.364 326.155 124.613 326.155 123.647V111.71H328.432V123.647C328.432 125.211 327.957 126.453 327.006 127.373C326.071 128.278 324.79 128.73 323.165 128.73ZM337.646 128.684C336.097 128.684 334.863 128.239 333.943 127.35C333.038 126.461 332.586 125.219 332.586 123.624V120.726C332.586 119.131 333.038 117.889 333.943 117C334.863 116.111 336.097 115.666 337.646 115.666C339.195 115.666 340.421 116.111 341.326 117C342.246 117.889 342.706 119.131 342.706 120.726V123.624C342.706 125.219 342.246 126.461 341.326 127.35C340.421 128.239 339.195 128.684 337.646 128.684ZM337.646 126.683C338.505 126.683 339.179 126.445 339.67 125.97C340.176 125.479 340.429 124.766 340.429 123.831V120.519C340.429 119.584 340.176 118.878 339.67 118.403C339.179 117.912 338.505 117.667 337.646 117.667C336.787 117.667 336.105 117.912 335.599 118.403C335.108 118.878 334.863 119.584 334.863 120.519V123.831C334.863 124.766 335.108 125.479 335.599 125.97C336.105 126.445 336.787 126.683 337.646 126.683ZM346.446 128.5V126.43H350.885V117.92H346.906V115.85H353.162V126.43H357.325V128.5H346.446ZM351.805 113.619C351.284 113.619 350.87 113.489 350.563 113.228C350.256 112.952 350.103 112.584 350.103 112.124C350.103 111.649 350.256 111.273 350.563 110.997C350.87 110.721 351.284 110.583 351.805 110.583C352.326 110.583 352.74 110.721 353.047 110.997C353.354 111.273 353.507 111.649 353.507 112.124C353.507 112.584 353.354 112.952 353.047 113.228C352.74 113.489 352.326 113.619 351.805 113.619ZM360.352 128.5V115.85H362.606V118.265H362.629C362.736 117.437 363.081 116.793 363.664 116.333C364.262 115.858 365.044 115.62 366.01 115.62C367.267 115.62 368.272 116.019 369.023 116.816C369.774 117.613 370.15 118.687 370.15 120.036V128.5H367.873V120.404C367.873 119.484 367.643 118.779 367.183 118.288C366.723 117.797 366.094 117.552 365.297 117.552C364.469 117.552 363.817 117.813 363.342 118.334C362.867 118.84 362.629 119.553 362.629 120.473V128.5H360.352ZM378.513 128.684C377.072 128.684 375.952 128.362 375.155 127.718C374.358 127.074 373.959 126.169 373.959 125.004H376.213C376.213 125.556 376.412 125.993 376.811 126.315C377.225 126.622 377.792 126.775 378.513 126.775H379.525C380.276 126.775 380.851 126.614 381.25 126.292C381.664 125.97 381.871 125.518 381.871 124.935C381.871 123.908 381.365 123.333 380.353 123.21L376.949 122.727C376.044 122.589 375.347 122.221 374.856 121.623C374.365 121.01 374.12 120.22 374.12 119.254C374.12 118.119 374.503 117.238 375.27 116.609C376.037 115.98 377.11 115.666 378.49 115.666H379.502C380.79 115.666 381.833 115.973 382.63 116.586C383.427 117.199 383.849 118.012 383.895 119.024H381.595C381.564 118.595 381.365 118.242 380.997 117.966C380.629 117.675 380.131 117.529 379.502 117.529H378.49C377.8 117.529 377.263 117.682 376.88 117.989C376.512 118.296 376.328 118.71 376.328 119.231C376.328 120.074 376.75 120.55 377.593 120.657L380.79 121.117C382.983 121.408 384.079 122.681 384.079 124.935C384.079 126.131 383.68 127.059 382.883 127.718C382.101 128.362 380.982 128.684 379.525 128.684H378.513Z"/></g><defs><clipPath id="clip0_5263_5660"><rect width="560" height="240" fill="#fff"/></clipPath><clipPath id="clip1_5263_5660"><rect width="560" height="240" fill="#fff"/></clipPath></defs></svg>