<svg width="560" height="240" viewBox="0 0 560 240" fill="none" xmlns="http://www.w3.org/2000/svg">
<rect width="560" height="240" fill="#FFF100"/>
<g clip-path="url(#clip0_4723_15276)">
<rect width="560" height="240" fill="#FFF100"/>
<path d="M224 49.847L224 -0.999985C224 -12.0457 215.046 -21 204 -21L-26 -21C-37.0457 -21 -46 -12.0457 -46 -1.00001L-46 175C-46 186.046 -37.0457 195 -26 195L52.5714 195C63.6171 195 72.5714 186.046 72.5714 175L72.5714 89.8471C72.5714 78.8014 81.5257 69.8471 92.5714 69.8471L204 69.8471C215.046 69.8471 224 60.8927 224 49.847Z" fill="#EDDE00"/>
<path d="M472.584 123.352L505.5 123.352C516.546 123.352 525.5 114.397 525.5 103.352L525.5 66.9999C525.5 55.9542 516.546 46.9999 505.5 46.9999L454.5 46.9999C443.454 46.9999 434.5 38.0456 434.5 26.9999L434.5 -34.0001C434.5 -45.0458 443.454 -54.0001 454.5 -54.0001L583 -54.0001C594.046 -54.0001 603 -45.0457 603 -34.0001L603 241.5C603 252.546 594.046 261.5 583 261.5L335 261.5C323.954 261.5 315 252.546 315 241.5L315 206.5C315 195.454 323.954 186.5 335 186.5L432.584 186.5C443.629 186.5 452.584 177.546 452.584 166.5L452.584 143.352C452.584 132.306 461.538 123.352 472.584 123.352Z" fill="#EDDE00"/>
</g>
<path d="M222.744 111.94H226.194L230.541 128.5H227.919L226.861 124.107H221.916L220.858 128.5H218.259L222.744 111.94ZM226.355 122.083L224.86 115.873C224.783 115.582 224.722 115.306 224.676 115.045C224.63 114.769 224.592 114.524 224.561 114.309C224.53 114.064 224.5 113.834 224.469 113.619H224.354C224.323 113.834 224.285 114.064 224.239 114.309C224.208 114.524 224.162 114.769 224.101 115.045C224.055 115.306 223.994 115.582 223.917 115.873L222.422 122.083H226.355ZM232.809 125.326H235.431C235.523 125.74 235.776 126.07 236.19 126.315C236.619 126.56 237.141 126.683 237.754 126.683H238.582C239.333 126.683 239.916 126.53 240.33 126.223C240.759 125.916 240.974 125.495 240.974 124.958C240.974 124.038 240.299 123.486 238.95 123.302L237.11 123.049C235.745 122.865 234.733 122.474 234.074 121.876C233.43 121.263 233.108 120.404 233.108 119.3C233.108 118.135 233.514 117.23 234.327 116.586C235.155 115.942 236.328 115.62 237.846 115.62H238.651C239.985 115.62 241.066 115.919 241.894 116.517C242.737 117.1 243.236 117.897 243.389 118.909H240.79C240.698 118.526 240.46 118.227 240.077 118.012C239.694 117.782 239.218 117.667 238.651 117.667H237.846C237.125 117.667 236.573 117.805 236.19 118.081C235.807 118.342 235.615 118.74 235.615 119.277C235.615 119.722 235.753 120.067 236.029 120.312C236.32 120.557 236.78 120.718 237.409 120.795L239.295 121.048C240.736 121.247 241.794 121.654 242.469 122.267C243.144 122.88 243.481 123.754 243.481 124.889C243.481 126.116 243.059 127.066 242.216 127.741C241.373 128.4 240.161 128.73 238.582 128.73H237.754C236.343 128.73 235.193 128.431 234.304 127.833C233.43 127.22 232.932 126.384 232.809 125.326ZM251.982 128.73C251.169 128.73 250.433 128.615 249.774 128.385C249.13 128.14 248.578 127.802 248.118 127.373C247.658 126.928 247.298 126.399 247.037 125.786C246.792 125.157 246.669 124.467 246.669 123.716V116.724C246.669 115.957 246.792 115.267 247.037 114.654C247.298 114.041 247.658 113.519 248.118 113.09C248.578 112.645 249.13 112.308 249.774 112.078C250.433 111.833 251.169 111.71 251.982 111.71C252.795 111.71 253.523 111.833 254.167 112.078C254.826 112.308 255.386 112.645 255.846 113.09C256.306 113.519 256.659 114.041 256.904 114.654C257.165 115.267 257.295 115.957 257.295 116.724V123.716C257.295 124.467 257.165 125.157 256.904 125.786C256.659 126.399 256.298 126.928 255.823 127.373C255.363 127.802 254.803 128.14 254.144 128.385C253.5 128.615 252.779 128.73 251.982 128.73ZM249.199 123.716C249.199 124.559 249.452 125.234 249.958 125.74C250.464 126.246 251.139 126.499 251.982 126.499C252.825 126.499 253.5 126.246 254.006 125.74C254.512 125.234 254.765 124.559 254.765 123.716V116.724C254.765 115.865 254.512 115.183 254.006 114.677C253.5 114.171 252.825 113.918 251.982 113.918C251.139 113.918 250.464 114.171 249.958 114.677C249.452 115.183 249.199 115.865 249.199 116.724V123.716ZM263.749 117.184V115.39C263.749 114.332 264.086 113.496 264.761 112.883C265.451 112.254 266.386 111.94 267.567 111.94H271.27V114.194H267.59C267.176 114.194 266.854 114.301 266.624 114.516C266.394 114.715 266.279 115.014 266.279 115.413V117.184H271.27V119.484H266.279V128.5H263.749V119.484H260.161V117.184H263.749ZM289.836 124.199C289.928 124.889 290.235 125.449 290.756 125.878C291.277 126.307 291.914 126.522 292.665 126.522C293.554 126.522 294.26 126.269 294.781 125.763C295.318 125.242 295.586 124.552 295.586 123.693V114.217H289.445V111.94H298.116V123.693C298.116 124.475 297.986 125.18 297.725 125.809C297.48 126.422 297.119 126.951 296.644 127.396C296.184 127.825 295.617 128.155 294.942 128.385C294.267 128.615 293.508 128.73 292.665 128.73C291.178 128.73 289.951 128.324 288.985 127.511C288.034 126.698 287.475 125.594 287.306 124.199H289.836ZM307.146 128.73C306.333 128.73 305.597 128.615 304.938 128.385C304.294 128.14 303.742 127.802 303.282 127.373C302.822 126.928 302.462 126.399 302.201 125.786C301.956 125.173 301.833 124.49 301.833 123.739V120.588C301.833 119.837 301.956 119.154 302.201 118.541C302.462 117.928 302.822 117.406 303.282 116.977C303.742 116.532 304.294 116.195 304.938 115.965C305.597 115.72 306.333 115.597 307.146 115.597C307.959 115.597 308.687 115.712 309.331 115.942C309.99 116.172 310.55 116.509 311.01 116.954C311.47 117.383 311.823 117.905 312.068 118.518C312.329 119.116 312.459 119.798 312.459 120.565V123.739C312.459 124.49 312.336 125.18 312.091 125.809C311.846 126.422 311.493 126.944 311.033 127.373C310.573 127.802 310.013 128.14 309.354 128.385C308.695 128.615 307.959 128.73 307.146 128.73ZM304.363 123.739C304.363 124.598 304.608 125.272 305.099 125.763C305.59 126.254 306.272 126.499 307.146 126.499C308.005 126.499 308.679 126.254 309.17 125.763C309.676 125.272 309.929 124.598 309.929 123.739V120.588C309.929 119.729 309.676 119.055 309.17 118.564C308.679 118.073 308.005 117.828 307.146 117.828C306.287 117.828 305.605 118.073 305.099 118.564C304.608 119.055 304.363 119.729 304.363 120.588V123.739ZM316.084 126.2H320.638V118.127H316.659V115.85H323.099V126.2H326.802V128.5H316.084V126.2ZM319.718 112.377C319.718 111.932 319.856 111.58 320.132 111.319C320.423 111.043 320.807 110.905 321.282 110.905H321.834C322.309 110.905 322.685 111.043 322.961 111.319C323.252 111.58 323.398 111.932 323.398 112.377C323.398 112.822 323.252 113.174 322.961 113.435C322.685 113.696 322.302 113.826 321.811 113.826H321.282C320.807 113.826 320.423 113.696 320.132 113.435C319.856 113.174 319.718 112.822 319.718 112.377ZM329.645 115.85H332.037V118.035H332.244C332.413 117.253 332.788 116.655 333.371 116.241C333.954 115.827 334.705 115.62 335.625 115.62C336.284 115.62 336.867 115.735 337.373 115.965C337.894 116.18 338.331 116.486 338.684 116.885C339.052 117.284 339.328 117.767 339.512 118.334C339.696 118.886 339.788 119.499 339.788 120.174V128.5H337.258V120.519C337.258 119.645 337.036 118.97 336.591 118.495C336.146 118.02 335.533 117.782 334.751 117.782C333.954 117.782 333.325 118.035 332.865 118.541C332.405 119.047 332.175 119.737 332.175 120.611V128.5H329.645V115.85Z" fill="black"/>
<defs>
<clipPath id="clip0_4723_15276">
<rect width="560" height="240" fill="white"/>
</clipPath>
</defs>
</svg>
