<svg xmlns="http://www.w3.org/2000/svg" width="560" height="240" fill="none" viewBox="0 0 560 240"><g clip-path="url(#clip0_4843_24799)"><rect width="560" height="240" fill="#FFF100"/><g clip-path="url(#clip1_4843_24799)"><rect width="560" height="240" fill="#FFF100"/><path fill="#EDDE00" d="M224 49.847L224 -0.999985C224 -12.0457 215.046 -21 204 -21L-26 -21C-37.0457 -21 -46 -12.0457 -46 -1.00001L-46 175C-46 186.046 -37.0457 195 -26 195L52.5714 195C63.6171 195 72.5714 186.046 72.5714 175L72.5714 89.8471C72.5714 78.8014 81.5257 69.8471 92.5714 69.8471L204 69.8471C215.046 69.8471 224 60.8927 224 49.847Z"/><path fill="#EDDE00" d="M472.584 123.352L505.5 123.352C516.546 123.352 525.5 114.397 525.5 103.352L525.5 66.9999C525.5 55.9542 516.546 46.9999 505.5 46.9999L454.5 46.9999C443.454 46.9999 434.5 38.0456 434.5 26.9999L434.5 -34.0001C434.5 -45.0458 443.454 -54.0001 454.5 -54.0001L583 -54.0001C594.046 -54.0001 603 -45.0457 603 -34.0001L603 241.5C603 252.546 594.046 261.5 583 261.5L335 261.5C323.954 261.5 315 252.546 315 241.5L315 206.5C315 195.454 323.954 186.5 335 186.5L432.584 186.5C443.629 186.5 452.584 177.546 452.584 166.5L452.584 143.352C452.584 132.306 461.538 123.352 472.584 123.352Z"/></g><rect width="67" height="67" x="246.5" y="86.5" fill="#000" rx="33.5"/><path fill="#000" stroke="#000" stroke-width="2" d="M273.5 122.5C274.605 122.5 275.5 121.605 275.5 120.5C275.5 119.395 274.605 118.5 273.5 118.5C272.395 118.5 271.5 119.395 271.5 120.5C271.5 121.605 272.395 122.5 273.5 122.5Z"/><path fill="#000" stroke="#000" stroke-width="2" d="M287.5 115.5C288.605 115.5 289.5 114.605 289.5 113.5C289.5 112.395 288.605 111.5 287.5 111.5C286.395 111.5 285.5 112.395 285.5 113.5C285.5 114.605 286.395 115.5 287.5 115.5Z"/><path fill="#000" stroke="#000" stroke-width="2" d="M287.5 122.5C288.605 122.5 289.5 121.605 289.5 120.5C289.5 119.395 288.605 118.5 287.5 118.5C286.395 118.5 285.5 119.395 285.5 120.5C285.5 121.605 286.395 122.5 287.5 122.5Z"/><path fill="#000" stroke="#000" stroke-width="2" d="M287.5 129.5C288.605 129.5 289.5 128.605 289.5 127.5C289.5 126.395 288.605 125.5 287.5 125.5C286.395 125.5 285.5 126.395 285.5 127.5C285.5 128.605 286.395 129.5 287.5 129.5Z"/><path stroke="#000" stroke-linecap="round" stroke-linejoin="round" stroke-width="2" d="M285.5 127.5H279.5V113.5H285.5M275.5 120.5H285.5"/><circle cx="285.5" cy="106.5" r="5" fill="#FFF100"/><circle cx="276" cy="119.5" r="5" fill="#FFF100"/><circle cx="294" cy="119.5" r="5" fill="#FFF100"/><circle cx="285" cy="132.5" r="5" fill="#FFF100"/><circle cx="266.5" cy="132.5" r="5" fill="#FFF100"/><path stroke="#FFF100" stroke-width="2.5" d="M284.913 106.782L266 134"/><path stroke="#FFF100" stroke-width="2.5" d="M285.5 106.665L294.418 119.5"/><path stroke="#FFF100" stroke-width="2.5" d="M275.5 118.665L284.957 132.274"/></g><defs><clipPath id="clip0_4843_24799"><rect width="560" height="240" fill="#fff"/></clipPath><clipPath id="clip1_4843_24799"><rect width="560" height="240" fill="#fff"/></clipPath></defs></svg>