<svg xmlns="http://www.w3.org/2000/svg" width="560" height="240" fill="none" viewBox="0 0 560 240"><g clip-path="url(#clip0_4992_5535)"><rect width="560" height="240" fill="#FFF100"/><g clip-path="url(#clip1_4992_5535)"><rect width="560" height="240" fill="#FFF100"/><path fill="url(#paint0_linear_4992_5535)" d="M387 170.5L451.783 170.5C462.828 170.5 471.782 161.546 471.782 150.5L471.782 67.5001C471.782 56.4544 480.737 47.5001 491.782 47.5001L692.082 47.5001C703.128 47.5001 712.082 56.4544 712.082 67.5001L712.082 241.913C712.082 252.958 703.128 261.913 692.082 261.913L387 261.913C375.954 261.913 367 252.958 367 241.913L367 190.5C367 179.454 375.954 170.5 387 170.5Z"/><path fill="url(#paint1_linear_4992_5535)" d="M141.127 314L141.127 77.9839C141.127 66.9382 150.081 57.9839 161.127 57.9839L199.812 57.9839C210.857 57.9839 219.812 49.0296 219.812 37.9839L219.812 -86.9999C219.812 -98.0456 210.857 -107 199.812 -107L-54.0001 -107C-65.0458 -107 -74.0001 -98.0457 -74.0001 -87L-74.0002 314C-74.0002 325.046 -65.0458 334 -54.0002 334L121.127 334C132.173 334 141.127 325.046 141.127 314Z"/><rect width="546" height="169" x="417" y="194" fill="#FFF100" rx="20"/><rect width="598" height="204" x="-513" y="-43" fill="#FFF100" rx="20"/></g><path fill="#000" d="M282.87 128.611H273.603L271.474 135.492H265.4L275.421 104.42H281.495L291.472 135.492H285.087L282.87 128.611ZM275.022 123.729H281.673L278.525 113.342H278.125L275.022 123.729Z"/><path fill="#000" d="M305.616 128.789H305.926L310.892 113.297H317.1L308.631 135.491H302.468L292.935 113.297H299.63L305.616 128.789Z"/><path fill="#000" d="M320.072 130.609H325.57V118.18H320.072V113.297H330.048L330.713 116.227H330.891C331.733 115.25 332.664 114.451 333.728 113.786C334.854 113.118 336.145 112.78 337.453 112.809C339.227 112.809 340.601 113.475 341.621 114.762C342.641 116.094 343.173 118.224 343.173 121.287H337.985C337.985 120.222 337.808 119.467 337.497 118.979C337.187 118.491 336.699 118.224 336.034 118.224C334.999 118.174 333.98 118.488 333.152 119.112C332.448 119.698 331.835 120.386 331.334 121.154V130.609H340.956V135.491H320.072V130.609Z"/><path fill="#000" d="M346.498 124.395C346.498 122.531 346.764 120.844 347.34 119.423C347.866 118.053 348.681 116.812 349.729 115.786C350.777 114.76 352.034 113.971 353.415 113.475C354.966 112.925 356.602 112.655 358.248 112.677C360.11 112.677 361.795 112.943 363.214 113.52C364.617 114.034 365.889 114.852 366.938 115.917C367.964 116.956 368.737 118.216 369.2 119.601C369.747 121.139 370.017 122.762 369.998 124.395C370.027 126.09 369.741 127.776 369.155 129.366C368.63 130.749 367.811 132.002 366.754 133.036C365.698 134.071 364.429 134.864 363.036 135.359C361.495 135.882 359.875 136.137 358.248 136.113C356.54 136.14 354.842 135.854 353.237 135.27C351.859 134.752 350.606 133.951 349.557 132.917C348.533 131.852 347.747 130.581 347.251 129.189C346.734 127.644 346.479 126.024 346.498 124.395ZM352.439 124.395C352.439 125.371 352.572 126.259 352.838 127.103C353.084 127.893 353.475 128.631 353.991 129.278C354.484 129.892 355.104 130.391 355.809 130.742C356.577 131.081 357.409 131.248 358.248 131.231C359.977 131.231 361.351 130.698 362.416 129.588C363.524 128.479 364.056 126.748 364.056 124.395C364.143 122.627 363.61 120.884 362.549 119.468C362.035 118.83 361.377 118.324 360.629 117.992C359.881 117.66 359.064 117.512 358.248 117.559C357.461 117.552 356.68 117.687 355.942 117.959C355.231 118.196 354.59 118.608 354.08 119.157C353.543 119.78 353.136 120.505 352.882 121.288C352.565 122.292 352.415 123.342 352.439 124.395Z"/><path fill="#6A6A6A" d="M208.11 126.434L211.106 135.582L257.981 148.951L208.11 126.434Z"/><path fill="#242424" d="M224.475 111.285C225.051 113.567 224.445 115.017 220.752 114.658L257.795 148.987C258.215 149.155 258.289 148.874 257.998 148.445L224.475 111.285Z"/><path fill="#BBB" d="M223.298 94.7207C223.298 94.7207 221.977 95.9676 223.367 97.5824C224.397 98.7817 225.939 98.0457 225.939 98.0457C225.939 98.0457 227.359 97.2488 226.28 95.5686C224.878 93.3829 223.298 94.7207 223.298 94.7207ZM258.072 149.138L205.521 125.728C205.521 125.728 188.35 115.108 190.129 110.913C191.862 106.852 207.166 115.035 208.785 115.411C210.404 115.792 211.305 114.766 211.335 114.051C211.383 113.021 209.062 110.072 210.266 108.813C211.465 107.558 215.388 110.004 215.388 110.004L218.57 112.207L258.072 149.138Z"/><path fill="#BBB" d="M258.28 148.917L223.6 110.502C223.6 110.502 217.354 103.409 217.613 101.379C217.872 99.3482 226.168 105.83 226.168 105.83C226.168 105.83 227.091 106.718 227.965 106.566C228.84 106.418 227.904 104.964 227.904 104.964C227.904 104.964 226.471 101.635 227.427 101.037C228.39 100.444 230.818 102.95 230.818 102.95C230.818 102.95 231.424 103.579 232.06 103.409C232.697 103.236 232.355 101.839 232.355 101.839C232.355 101.839 227.969 91.7249 229.882 90.9712C232.801 89.8152 236.957 98.1844 238.351 100.79C238.702 101.509 258.28 148.917 258.28 148.917ZM204.161 101.383C204.161 101.383 202.382 102.561 204.36 104.826C206.179 106.913 207.799 105.83 207.799 105.83C207.799 105.83 209.478 104.803 207.867 102.868C205.737 100.31 204.161 101.383 204.161 101.383Z"/></g><defs><linearGradient id="paint0_linear_4992_5535" x1="400.322" x2="400.322" y1="65.999" y2="234.499" gradientUnits="userSpaceOnUse"><stop stop-color="#EDDD0C"/><stop offset="1" stop-color="#F3E71B"/></linearGradient><linearGradient id="paint1_linear_4992_5535" x1="72.906" x2="72.906" y1="349.513" y2="-53.814" gradientUnits="userSpaceOnUse"><stop stop-color="#EDDD0C"/><stop offset="1" stop-color="#F3E71B"/></linearGradient><clipPath id="clip0_4992_5535"><rect width="560" height="240" fill="#fff"/></clipPath><clipPath id="clip1_4992_5535"><rect width="560" height="240" fill="#fff"/></clipPath></defs></svg>