<svg width="560" height="240" viewBox="0 0 560 240" fill="none" xmlns="http://www.w3.org/2000/svg">
<g clip-path="url(#clip0_4992_5535)">
<rect width="560" height="240" fill="#FFF100"/>
<g clip-path="url(#clip1_4992_5535)">
<rect width="560" height="240" fill="#FFF100"/>
<path d="M515.501 253L515.501 97.5C515.501 86.4543 506.546 77.5 495.501 77.5L337 77.5001C325.954 77.5001 317 68.5458 317 57.5001L317 -29C317 -40.0457 325.954 -49 337 -49L579.913 -49C590.959 -49 599.913 -40.0457 599.913 -29L599.913 253C599.913 264.046 590.959 273 579.913 273L535.501 273C524.455 273 515.501 264.046 515.501 253Z" fill="url(#paint0_linear_4992_5535)"/>
<path d="M261 188.299L261 244L-19 244L-19 35L28.651 35C39.6967 35 48.651 43.9543 48.651 55L48.651 148.299C48.651 159.345 57.6053 168.299 68.651 168.299L241 168.299C252.046 168.299 261 177.253 261 188.299Z" fill="#EDDD00"/>
<rect width="199" height="153" rx="20" transform="matrix(-1 0 0 1 121 196)" fill="#FFEF00"/>
</g>
<path d="M282.391 127.176H274.669L272.895 132.91H267.833L276.184 107.017H281.246L289.56 132.91H284.239L282.391 127.176ZM275.851 123.107H281.394L278.77 114.452H278.438L275.851 123.107Z" fill="black"/>
<path d="M301.347 127.324H301.605L305.744 114.415H310.917L303.859 132.91H298.723L290.779 114.415H296.358L301.347 127.324Z" fill="black"/>
<path d="M313.393 128.841H317.975V118.483H313.393V114.414H321.707L322.261 116.856H322.409C323.111 116.042 323.887 115.376 324.774 114.821C325.712 114.265 326.787 113.983 327.877 114.008C329.355 114.008 330.501 114.562 331.351 115.635C332.201 116.745 332.644 118.52 332.644 121.073H328.321C328.321 120.185 328.173 119.556 327.914 119.149C327.656 118.742 327.249 118.52 326.695 118.52C325.833 118.478 324.983 118.74 324.293 119.26C323.706 119.748 323.196 120.322 322.778 120.962V128.841H330.797V132.91H313.393V128.841Z" fill="black"/>
<path d="M335.415 123.662C335.415 122.109 335.637 120.703 336.117 119.52C336.555 118.378 337.234 117.344 338.108 116.488C338.981 115.633 340.029 114.976 341.179 114.563C342.472 114.104 343.835 113.879 345.207 113.897C346.758 113.897 348.163 114.119 349.345 114.6C350.514 115.028 351.574 115.71 352.449 116.597C353.303 117.463 353.948 118.513 354.333 119.667C354.789 120.949 355.014 122.302 354.998 123.662C355.023 125.075 354.785 126.48 354.296 127.805C353.859 128.958 353.176 130.001 352.295 130.864C351.415 131.726 350.358 132.386 349.197 132.799C347.913 133.235 346.563 133.447 345.207 133.428C343.784 133.45 342.369 133.212 341.031 132.725C339.883 132.294 338.838 131.626 337.964 130.765C337.111 129.877 336.456 128.818 336.043 127.657C335.612 126.37 335.399 125.02 335.415 123.662ZM340.366 123.662C340.366 124.476 340.477 125.216 340.699 125.919C340.904 126.578 341.229 127.192 341.659 127.731C342.07 128.243 342.587 128.659 343.174 128.952C343.814 129.234 344.508 129.373 345.207 129.359C346.648 129.359 347.793 128.915 348.68 127.99C349.604 127.066 350.047 125.623 350.047 123.662C350.119 122.189 349.675 120.737 348.791 119.557C348.363 119.025 347.814 118.604 347.191 118.327C346.568 118.05 345.887 117.927 345.207 117.966C344.551 117.96 343.9 118.073 343.285 118.299C342.693 118.496 342.159 118.84 341.733 119.298C341.286 119.817 340.947 120.421 340.736 121.073C340.471 121.91 340.346 122.785 340.366 123.662Z" fill="black"/>
<g style="mix-blend-mode:multiply">
<path d="M220.091 125.362L222.588 132.985L261.651 144.126L220.091 125.362Z" fill="#6A6A6A"/>
<path d="M233.728 112.738C234.209 114.639 233.704 115.847 230.626 115.548L261.496 144.156C261.846 144.296 261.907 144.062 261.665 143.704L233.728 112.738Z" fill="#242424"/>
<path d="M232.748 98.9339C232.748 98.9339 231.647 99.973 232.805 101.319C233.664 102.318 234.949 101.705 234.949 101.705C234.949 101.705 236.132 101.041 235.233 99.6405C234.065 97.8191 232.748 98.9339 232.748 98.9339ZM261.727 144.281L217.934 124.773C217.934 124.773 203.625 115.923 205.107 112.427C206.551 109.043 219.304 115.862 220.654 116.176C222.003 116.493 222.754 115.639 222.779 115.043C222.819 114.184 220.885 111.727 221.888 110.678C222.887 109.631 226.156 111.67 226.156 111.67L228.808 113.506L261.727 144.281Z" fill="#BBBBBB"/>
<path d="M261.899 144.098L233 112.085C233 112.085 227.794 106.174 228.01 104.482C228.226 102.79 235.14 108.191 235.14 108.191C235.14 108.191 235.908 108.931 236.637 108.805C237.366 108.682 236.586 107.47 236.586 107.47C236.586 107.47 235.392 104.696 236.189 104.198C236.991 103.704 239.014 105.792 239.014 105.792C239.014 105.792 239.52 106.316 240.05 106.174C240.58 106.03 240.296 104.865 240.296 104.865C240.296 104.865 236.641 96.4373 238.235 95.8093C240.667 94.8459 244.13 101.82 245.292 103.992C245.584 104.591 261.899 144.098 261.899 144.098ZM216.8 104.486C216.8 104.486 215.318 105.468 216.966 107.355C218.482 109.094 219.832 108.191 219.832 108.191C219.832 108.191 221.231 107.336 219.889 105.724C218.114 103.592 216.8 104.486 216.8 104.486Z" fill="#BBBBBB"/>
</g>
</g>
<defs>
<linearGradient id="paint0_linear_4992_5535" x1="404" y1="-196.405" x2="572.5" y2="-196.405" gradientUnits="userSpaceOnUse">
<stop stop-color="#EDDD0C"/>
<stop offset="1" stop-color="#F3E71B"/>
</linearGradient>
<clipPath id="clip0_4992_5535">
<rect width="560" height="240" fill="white"/>
</clipPath>
<clipPath id="clip1_4992_5535">
<rect width="560" height="240" fill="white"/>
</clipPath>
</defs>
</svg>
