<svg width="560" height="240" viewBox="0 0 560 240" fill="none" xmlns="http://www.w3.org/2000/svg">
<g clip-path="url(#clip0_8852_5383)">
<rect width="560" height="240" fill="#FFF100"/>
<g clip-path="url(#clip1_8852_5383)">
<rect width="560" height="240" fill="#FFF100"/>
<path d="M333 49.847L333 -0.999985C333 -12.0457 341.954 -21 353 -21L583 -21C594.046 -21 603 -12.0457 603 -1.00001L603 175C603 186.046 594.046 195 583 195L504.429 195C493.383 195 484.429 186.046 484.429 175L484.429 89.8471C484.429 78.8014 475.474 69.8471 464.429 69.8471L353 69.8471C341.954 69.8471 333 60.8927 333 49.847Z" fill="#EDDD0C"/>
<path d="M84.4164 123.352L51.5 123.352C40.4543 123.352 31.5 114.397 31.5 103.352L31.5 66.9999C31.5 55.9542 40.4543 46.9999 51.5 46.9999L102.5 46.9999C113.546 46.9999 122.5 38.0456 122.5 26.9999L122.5 -34.0001C122.5 -45.0458 113.546 -54.0001 102.5 -54.0001L-26 -54.0001C-37.0457 -54.0001 -46 -45.0457 -46 -34.0001L-46 241.5C-46 252.546 -37.0457 261.5 -26 261.5L222 261.5C233.046 261.5 242 252.546 242 241.5L242 206.5C242 195.454 233.046 186.5 222 186.5L124.416 186.5C113.371 186.5 104.416 177.546 104.416 166.5L104.416 143.352C104.416 132.306 95.4621 123.352 84.4164 123.352Z" fill="#EDDD0C"/>
</g>
<circle cx="234" cy="120" r="33.5" fill="#0D0D0D"/>
<path d="M249.57 132.37C249.57 133.095 248.965 133.683 248.216 133.683H219.784C219.035 133.683 218.43 133.095 218.43 132.37V104.799C218.43 104.074 219.035 103.486 219.784 103.486C220.532 103.486 221.138 104.074 221.138 104.799V125.262L231.012 115.687C231.541 115.174 232.397 115.174 232.926 115.687L235.965 118.633L243.709 110.05H241.447C240.698 110.05 240.093 109.462 240.093 108.737C240.093 108.012 240.698 107.424 241.447 107.424H246.669C247.258 107.424 247.78 107.794 247.958 108.338L249.506 113.033C249.734 113.723 249.34 114.462 248.629 114.683C248.491 114.725 248.352 114.746 248.216 114.746C247.642 114.746 247.111 114.39 246.927 113.831L246.116 111.372L237.05 121.419C236.803 121.692 236.45 121.854 236.076 121.866C235.69 121.869 235.337 121.738 235.074 121.482L231.969 118.471L221.138 128.975V131.057H248.216C248.965 131.057 249.57 131.645 249.57 132.37Z" fill="#FFF100"/>
<path d="M326 153.5C307.467 153.5 292.5 138.533 292.5 120C292.5 101.467 307.467 86.5 326 86.5C344.533 86.5 359.5 101.467 359.5 120C359.5 138.533 344.533 153.5 326 153.5Z" fill="#0D0D0D"/>
<path d="M343.912 115.03H337.34V124.948H343.912C346.637 124.948 348.901 122.684 348.901 119.959C348.901 117.214 346.637 115.03 343.912 115.03Z" fill="#FFF100"/>
<path d="M305.141 120C305.141 127.654 311.372 133.885 319.026 133.885C326.68 133.885 332.911 127.654 332.911 120C332.911 112.346 326.68 106.115 319.026 106.115C311.372 106.115 305.141 112.346 305.141 120Z" fill="#FFF100"/>
</g>
<defs>
<clipPath id="clip0_8852_5383">
<rect width="560" height="240" fill="white"/>
</clipPath>
<clipPath id="clip1_8852_5383">
<rect width="560" height="240" fill="white"/>
</clipPath>
</defs>
</svg>
