<svg width="560" height="240" viewBox="0 0 560 240" fill="none" xmlns="http://www.w3.org/2000/svg">
<g clip-path="url(#clip0_4723_13149)">
<rect width="560" height="240" fill="#FFF100"/>
<g clip-path="url(#clip1_4723_13149)">
<rect width="560" height="240" fill="#FFF100"/>
<path d="M387 170.5L451.783 170.5C462.828 170.5 471.782 161.546 471.782 150.5L471.782 67.5001C471.782 56.4544 480.737 47.5001 491.782 47.5001L692.082 47.5001C703.128 47.5001 712.082 56.4544 712.082 67.5001L712.082 241.913C712.082 252.958 703.128 261.913 692.082 261.913L387 261.913C375.954 261.913 367 252.958 367 241.913L367 190.5C367 179.454 375.954 170.5 387 170.5Z" fill="url(#paint0_linear_4723_13149)"/>
<path d="M141.127 314L141.127 77.9839C141.127 66.9382 150.081 57.9839 161.127 57.9839L199.812 57.9839C210.857 57.9839 219.812 49.0296 219.812 37.9839L219.812 -86.9999C219.812 -98.0456 210.857 -107 199.812 -107L-54.0001 -107C-65.0458 -107 -74.0001 -98.0457 -74.0001 -87L-74.0002 314C-74.0002 325.046 -65.0458 334 -54.0002 334L121.127 334C132.173 334 141.127 325.046 141.127 314Z" fill="url(#paint1_linear_4723_13149)"/>
<rect x="417" y="194" width="546" height="169" rx="20" fill="#FFF100"/>
<rect x="-513" y="-43" width="598" height="204" rx="20" fill="#FFF100"/>
</g>
<circle cx="280" cy="120" r="33.5" fill="black"/>
<path d="M280 142.75C292.426 142.75 302.5 132.676 302.5 120.25C302.5 107.824 292.426 97.7499 280 97.7499C267.574 97.7499 257.5 107.824 257.5 120.25C257.5 132.676 267.574 142.75 280 142.75Z" fill="#FFF100"/>
<path d="M280 100.375C282.61 100.375 285.195 100.889 287.606 101.888C290.017 102.887 292.208 104.351 294.054 106.196C295.899 108.042 297.363 110.233 298.362 112.644C299.361 115.056 299.875 117.64 299.875 120.25L280 120.25V100.375Z" fill="black"/>
<mask id="path-8-outside-1_4723_13149" maskUnits="userSpaceOnUse" x="273.625" y="113.875" width="29" height="13" fill="black">
<rect fill="white" x="273.625" y="113.875" width="29" height="13"/>
<path fill-rule="evenodd" clip-rule="evenodd" d="M283.321 120.25C283.321 122.114 281.822 123.625 279.973 123.625C278.124 123.625 276.625 122.114 276.625 120.25C276.625 118.386 278.124 116.875 279.973 116.875C281.822 116.875 283.321 118.386 283.321 120.25ZM284.722 119.082V121.582L299.722 121.582L299.722 119.082L284.722 119.082Z"/>
</mask>
<path fill-rule="evenodd" clip-rule="evenodd" d="M283.321 120.25C283.321 122.114 281.822 123.625 279.973 123.625C278.124 123.625 276.625 122.114 276.625 120.25C276.625 118.386 278.124 116.875 279.973 116.875C281.822 116.875 283.321 118.386 283.321 120.25ZM284.722 119.082V121.582L299.722 121.582L299.722 119.082L284.722 119.082Z" fill="black"/>
<path d="M284.722 121.582H282.097C282.097 122.278 282.374 122.946 282.866 123.438C283.358 123.93 284.026 124.207 284.722 124.207V121.582ZM284.722 119.082V116.457C283.273 116.457 282.097 117.632 282.097 119.082H284.722ZM299.722 121.582V124.207C300.419 124.207 301.086 123.93 301.578 123.438C302.071 122.946 302.347 122.278 302.347 121.582L299.722 121.582ZM299.722 119.082L302.347 119.082C302.347 117.632 301.172 116.457 299.722 116.457V119.082ZM279.973 126.25C283.291 126.25 285.946 123.544 285.946 120.25H280.696C280.696 120.684 280.352 121 279.973 121V126.25ZM274 120.25C274 123.544 276.654 126.25 279.973 126.25V121C279.594 121 279.25 120.684 279.25 120.25H274ZM279.973 114.25C276.654 114.25 274 116.956 274 120.25H279.25C279.25 119.816 279.594 119.5 279.973 119.5V114.25ZM285.946 120.25C285.946 116.956 283.291 114.25 279.973 114.25V119.5C280.352 119.5 280.696 119.816 280.696 120.25H285.946ZM287.347 121.582V119.082H282.097V121.582H287.347ZM299.722 118.957L284.722 118.957V124.207L299.722 124.207V118.957ZM297.097 119.082L297.097 121.582L302.347 121.582L302.347 119.082L297.097 119.082ZM284.722 121.707L299.722 121.707V116.457L284.722 116.457V121.707Z" fill="#FFF100" mask="url(#path-8-outside-1_4723_13149)"/>
<mask id="path-10-outside-2_4723_13149" maskUnits="userSpaceOnUse" x="273.625" y="113.875" width="29" height="13" fill="black">
<rect fill="white" x="273.625" y="113.875" width="29" height="13"/>
<path fill-rule="evenodd" clip-rule="evenodd" d="M283.321 120.25C283.321 122.114 281.822 123.625 279.973 123.625C278.124 123.625 276.625 122.114 276.625 120.25C276.625 118.386 278.124 116.875 279.973 116.875C281.822 116.875 283.321 118.386 283.321 120.25ZM284.722 119.082V121.582L298.472 121.582C299.163 121.582 299.722 121.022 299.722 120.332C299.722 119.641 299.163 119.082 298.472 119.082L284.722 119.082Z"/>
</mask>
<path fill-rule="evenodd" clip-rule="evenodd" d="M283.321 120.25C283.321 122.114 281.822 123.625 279.973 123.625C278.124 123.625 276.625 122.114 276.625 120.25C276.625 118.386 278.124 116.875 279.973 116.875C281.822 116.875 283.321 118.386 283.321 120.25ZM284.722 119.082V121.582L298.472 121.582C299.163 121.582 299.722 121.022 299.722 120.332C299.722 119.641 299.163 119.082 298.472 119.082L284.722 119.082Z" fill="black"/>
<path d="M284.722 121.582H282.097C282.097 122.278 282.374 122.946 282.866 123.438C283.358 123.93 284.026 124.207 284.722 124.207V121.582ZM284.722 119.082V116.457C283.273 116.457 282.097 117.632 282.097 119.082H284.722ZM298.472 121.582V118.957V121.582ZM298.472 119.082V116.457V119.082ZM279.973 126.25C283.291 126.25 285.946 123.544 285.946 120.25H280.696C280.696 120.684 280.352 121 279.973 121V126.25ZM274 120.25C274 123.544 276.654 126.25 279.973 126.25V121C279.594 121 279.25 120.684 279.25 120.25H274ZM279.973 114.25C276.654 114.25 274 116.956 274 120.25H279.25C279.25 119.816 279.594 119.5 279.973 119.5V114.25ZM285.946 120.25C285.946 116.956 283.291 114.25 279.973 114.25V119.5C280.352 119.5 280.696 119.816 280.696 120.25H285.946ZM287.347 121.582V119.082H282.097V121.582H287.347ZM298.472 118.957L284.722 118.957V124.207L298.472 124.207V118.957ZM297.097 120.332C297.097 119.572 297.713 118.957 298.472 118.957V124.207C300.612 124.207 302.347 122.472 302.347 120.332H297.097ZM298.472 121.707C297.713 121.707 297.097 121.091 297.097 120.332H302.347C302.347 118.192 300.612 116.457 298.472 116.457V121.707ZM284.722 121.707L298.472 121.707V116.457L284.722 116.457V121.707Z" fill="#FFF100" mask="url(#path-10-outside-2_4723_13149)"/>
<rect x="277.75" y="95.5" width="4.50001" height="2.62501" fill="#FFF100"/>
<rect x="295.925" y="101.218" width="4.50001" height="2.62477" transform="rotate(45 295.925 101.218)" fill="#FFF100"/>
</g>
<defs>
<linearGradient id="paint0_linear_4723_13149" x1="400.322" y1="65.9995" x2="400.322" y2="234.499" gradientUnits="userSpaceOnUse">
<stop stop-color="#EDDD0C"/>
<stop offset="1" stop-color="#F3E71B"/>
</linearGradient>
<linearGradient id="paint1_linear_4723_13149" x1="72.9057" y1="349.513" x2="72.9058" y2="-53.8141" gradientUnits="userSpaceOnUse">
<stop stop-color="#EDDD0C"/>
<stop offset="1" stop-color="#F3E71B"/>
</linearGradient>
<clipPath id="clip0_4723_13149">
<rect width="560" height="240" fill="white"/>
</clipPath>
<clipPath id="clip1_4723_13149">
<rect width="560" height="240" fill="white"/>
</clipPath>
</defs>
</svg>
