<svg xmlns="http://www.w3.org/2000/svg" width="560" height="240" fill="none" viewBox="0 0 560 240"><g clip-path="url(#clip0_5407_1062)"><rect width="560" height="240" fill="#FFF100"/><g clip-path="url(#clip1_5407_1062)"><rect width="560" height="240" fill="#FFF100"/><path fill="#EDDE00" d="M224 49.847L224 -0.999985C224 -12.0457 215.046 -21 204 -21L-26 -21C-37.0457 -21 -46 -12.0457 -46 -1.00001L-46 175C-46 186.046 -37.0457 195 -26 195L52.5714 195C63.6171 195 72.5714 186.046 72.5714 175L72.5714 89.8471C72.5714 78.8014 81.5257 69.8471 92.5714 69.8471L204 69.8471C215.046 69.8471 224 60.8927 224 49.847Z"/><path fill="#EDDE00" d="M501.983 104.352L501.983 -32.9999C501.983 -44.0456 510.937 -52.9999 521.983 -52.9999L546 -52.9999C557.046 -52.9999 566 -44.0456 566 -32.9999L566 257C566 268.046 557.046 277 546 277L320.5 277C309.454 277 300.5 268.046 300.5 257L300.5 207.5C300.5 196.454 309.454 187.5 320.5 187.5L417 187.5C428.046 187.5 437 178.546 437 167.5L437 144.352C437 133.306 445.954 124.352 457 124.352L481.983 124.352C493.029 124.352 501.983 115.398 501.983 104.352Z"/></g><path fill="#000" d="M248 98C248 92.4772 252.477 88 258 88H302C307.523 88 312 92.4772 312 98V142C312 147.523 307.523 152 302 152H258C252.477 152 248 147.523 248 142V98Z"/><path fill="#FFF100" d="M283.2 133.696C283.2 134.481 282.336 134.96 281.67 134.544L277.27 131.794C276.978 131.611 276.8 131.291 276.8 130.946V118.459C276.8 118.227 276.72 118.002 276.572 117.823L266.947 106.136C266.41 105.483 266.874 104.5 267.719 104.5H292.281C293.127 104.5 293.591 105.483 293.053 106.136L283.428 117.823C283.281 118.002 283.2 118.227 283.2 118.459V133.696Z"/></g><defs><clipPath id="clip0_5407_1062"><rect width="560" height="240" fill="#fff"/></clipPath><clipPath id="clip1_5407_1062"><rect width="560" height="240" fill="#fff"/></clipPath></defs></svg>