<svg width="560" height="240" viewBox="0 0 560 240" fill="none" xmlns="http://www.w3.org/2000/svg">
<g clip-path="url(#clip0_5407_1062)">
<rect width="560" height="240" fill="#FFF100"/>
<g clip-path="url(#clip1_5407_1062)">
<rect width="560" height="240" fill="#FFF100"/>
<path d="M515.501 253L515.501 97.5C515.501 86.4543 506.546 77.5 495.501 77.5L337 77.5001C325.954 77.5001 317 68.5458 317 57.5001L317 -29C317 -40.0457 325.954 -49 337 -49L579.913 -49C590.959 -49 599.913 -40.0457 599.913 -29L599.913 253C599.913 264.046 590.959 273 579.913 273L535.501 273C524.455 273 515.501 264.046 515.501 253Z" fill="url(#paint0_linear_5407_1062)"/>
<path d="M261 188.299L261 244L-19 244L-19 35L28.651 35C39.6967 35 48.651 43.9543 48.651 55L48.651 148.299C48.651 159.345 57.6053 168.299 68.651 168.299L241 168.299C252.046 168.299 261 177.253 261 188.299Z" fill="#EDDD00"/>
<rect width="199" height="153" rx="20" transform="matrix(-1 0 0 1 121 196)" fill="#FFEF00"/>
</g>
<path d="M203.5 98C203.5 92.4772 207.977 88 213.5 88H257.5C263.023 88 267.5 92.4772 267.5 98V142C267.5 147.523 263.023 152 257.5 152H213.5C207.977 152 203.5 147.523 203.5 142V98Z" fill="black"/>
<path d="M231.486 104.39C234.562 104.39 237.511 105.611 239.686 107.786C241.861 109.961 243.083 112.911 243.083 115.986C243.083 118.858 242.03 121.499 240.299 123.533L240.781 124.014H242.19L251.111 132.935L248.435 135.611L239.514 126.69V125.281L239.033 124.799C236.928 126.595 234.253 127.582 231.486 127.583C228.411 127.583 225.461 126.361 223.286 124.186C221.111 122.011 219.89 119.062 219.89 115.986C219.89 112.911 221.111 109.961 223.286 107.786C225.461 105.611 228.411 104.39 231.486 104.39ZM231.486 107.958C227.026 107.958 223.458 111.526 223.458 115.986C223.458 120.446 227.026 124.014 231.486 124.014C235.946 124.014 239.514 120.446 239.514 115.986C239.514 111.526 235.946 107.958 231.486 107.958Z" fill="#FFF100"/>
<path d="M292.5 98C292.5 92.4772 296.977 88 302.5 88H346.5C352.023 88 356.5 92.4772 356.5 98V142C356.5 147.523 352.023 152 346.5 152H302.5C296.977 152 292.5 147.523 292.5 142V98Z" fill="black"/>
<path d="M327.7 133.696C327.7 134.481 326.836 134.96 326.17 134.544L321.77 131.794C321.478 131.611 321.3 131.291 321.3 130.946V118.459C321.3 118.227 321.22 118.002 321.072 117.823L311.447 106.136C310.91 105.483 311.374 104.5 312.219 104.5H336.781C337.627 104.5 338.091 105.483 337.553 106.136L327.928 117.823C327.781 118.002 327.7 118.227 327.7 118.459V133.696Z" fill="#FFF100"/>
</g>
<defs>
<linearGradient id="paint0_linear_5407_1062" x1="404" y1="-196.405" x2="572.5" y2="-196.405" gradientUnits="userSpaceOnUse">
<stop stop-color="#EDDD0C"/>
<stop offset="1" stop-color="#F3E71B"/>
</linearGradient>
<clipPath id="clip0_5407_1062">
<rect width="560" height="240" fill="white"/>
</clipPath>
<clipPath id="clip1_5407_1062">
<rect width="560" height="240" fill="white"/>
</clipPath>
</defs>
</svg>
