<svg width="367" height="206" viewBox="0 0 367 206" fill="none" xmlns="http://www.w3.org/2000/svg">
<g clip-path="url(#clip0_3672_2688)">
<rect width="367" height="206" fill="#B7ABFF"/>
<path d="M-11.7151 -10.4621V-53.7626L25.7849 -75.4136L63.2849 -53.7626V-10.4621L25.7849 11.1889L-11.7151 -10.4621Z" fill="#A899FF"/>
<path d="M67.1384 -10.4621V-53.7626L104.638 -75.4136L142.138 -53.7626V-10.4621L104.638 11.1889L67.1384 -10.4621Z" fill="#A899FF"/>
<path d="M145.992 -10.4621V-53.7626L183.492 -75.4136L220.992 -53.7626V-10.4621L183.492 11.1889L145.992 -10.4621Z" fill="#A899FF"/>
<path d="M224.845 -10.4621V-53.7626L262.345 -75.4136L299.845 -53.7626V-10.4621L262.345 11.1889L224.845 -10.4621Z" fill="#A899FF"/>
<path d="M303.699 -10.4621V-53.7626L341.199 -75.4136L378.699 -53.7626V-10.4621L341.199 11.1889L303.699 -10.4621Z" fill="#A899FF"/>
<path d="M-51.1418 57.0565V13.756L-13.6418 -7.89502L23.8582 13.756V57.0565L-13.6418 78.7075L-51.1418 57.0565Z" fill="#A899FF"/>
<path d="M27.7117 57.0565V13.756L65.2117 -7.89502L102.712 13.756V57.0565L65.2117 78.7075L27.7117 57.0565Z" fill="#A899FF"/>
<path d="M106.565 57.0565V13.756L144.065 -7.89502L181.565 13.756V57.0565L144.065 78.7075L106.565 57.0565Z" fill="#A899FF"/>
<path d="M185.419 57.0565V13.756L222.919 -7.89502L260.419 13.756V57.0565L222.919 78.7075L185.419 57.0565Z" fill="#A899FF"/>
<path d="M264.272 57.0565V13.756L301.772 -7.89502L339.272 13.756V57.0565L301.772 78.7075L264.272 57.0565Z" fill="#A899FF"/>
<path d="M343.126 57.0565V13.756L380.626 -7.89502L418.126 13.756V57.0565L380.626 78.7075L343.126 57.0565Z" fill="#A899FF"/>
<path d="M-11.7151 124.575V81.2745L25.7849 59.6235L63.2849 81.2745V124.575L25.7849 146.226L-11.7151 124.575Z" fill="#A899FF"/>
<path d="M67.1384 124.575V81.2745L104.638 59.6235L142.138 81.2745V124.575L104.638 146.226L67.1384 124.575Z" fill="#A899FF"/>
<path d="M145.992 124.575V81.2745L183.492 59.6235L220.992 81.2745V124.575L183.492 146.226L145.992 124.575Z" fill="#A899FF"/>
<path d="M224.845 124.575V81.2745L262.345 59.6235L299.845 81.2745V124.575L262.345 146.226L224.845 124.575Z" fill="#A899FF"/>
<path d="M303.699 124.575V81.2745L341.199 59.6235L378.699 81.2745V124.575L341.199 146.226L303.699 124.575Z" fill="#A899FF"/>
<path d="M-51.1418 192.094V148.793L-13.6418 127.142L23.8582 148.793V192.094L-13.6418 213.745L-51.1418 192.094Z" fill="#A899FF"/>
<path d="M27.7117 192.094V148.793L65.2117 127.142L102.712 148.793V192.094L65.2117 213.745L27.7117 192.094Z" fill="#A899FF"/>
<path d="M106.565 192.094V148.793L144.065 127.142L181.565 148.793V192.094L144.065 213.745L106.565 192.094Z" fill="#A899FF"/>
<path d="M185.419 192.094V148.793L222.919 127.142L260.419 148.793V192.094L222.919 213.745L185.419 192.094Z" fill="#A899FF"/>
<path d="M264.272 192.094V148.793L301.772 127.142L339.272 148.793V192.094L301.772 213.745L264.272 192.094Z" fill="#A899FF"/>
<path d="M343.126 192.094V148.793L380.626 127.142L418.126 148.793V192.094L380.626 213.745L343.126 192.094Z" fill="#A899FF"/>
<path d="M-11.7151 259.612V216.311L25.7849 194.66L63.2849 216.311V259.612L25.7849 281.263L-11.7151 259.612Z" fill="#A899FF"/>
<path d="M67.1384 259.612V216.311L104.638 194.66L142.138 216.311V259.612L104.638 281.263L67.1384 259.612Z" fill="#A899FF"/>
<path d="M145.992 259.612V216.311L183.492 194.66L220.992 216.311V259.612L183.492 281.263L145.992 259.612Z" fill="#A899FF"/>
<path d="M224.845 259.612V216.311L262.345 194.66L299.845 216.311V259.612L262.345 281.263L224.845 259.612Z" fill="#A899FF"/>
<path d="M303.699 259.612V216.311L341.199 194.66L378.699 216.311V259.612L341.199 281.263L303.699 259.612Z" fill="#A899FF"/>
<path d="M221 124.65V81.3497L183.5 59.6987L146 81.3497V124.65L183.5 146.301L221 124.65Z" fill="black"/>
<path d="M183.566 103.615C177.034 103.615 171.759 98.3398 171.759 91.8075C171.759 85.2752 177.034 80 183.566 80C190.099 80 195.374 85.2752 195.374 91.8075C195.374 98.3327 190.099 103.615 183.566 103.615Z" fill="#A798FF"/>
<path d="M189.764 90.1973H187.323V93.6858H189.764C190.783 93.6858 191.617 92.8895 191.617 91.931C191.617 90.9725 190.783 90.1973 189.764 90.1973Z" fill="black"/>
<path d="M176.052 91.8079C176.052 94.4705 178.28 96.6382 181.017 96.6382C183.753 96.6382 185.981 94.4705 185.981 91.8079C185.981 89.1453 183.753 86.9775 181.017 86.9775C178.28 86.9775 176.052 89.1453 176.052 91.8079Z" fill="black"/>
<path d="M172.003 111.947V116.928C172.003 118 171.347 118.756 170.441 118.756H170.003C169.081 118.756 168.441 118 168.441 116.928V111.947H166.706V117.243C166.706 119.15 168.066 120.521 169.972 120.521H170.472C172.378 120.521 173.722 119.15 173.722 117.243V111.947H172.003ZM187.85 114.973L191.069 111.553H188.647L185.818 114.627V109.535H184.099V120.38H185.818V117.196L186.646 116.313L189.475 120.38H191.6L187.849 114.973H187.85ZM160.798 118.646H158.719V111.284H160.798C162.408 111.284 163.689 112.94 163.689 114.941C163.689 116.943 162.407 118.645 160.798 118.645V118.646ZM160.798 109.519H157V120.396H160.798C163.345 120.396 165.424 117.968 165.424 114.942C165.424 111.916 163.345 109.52 160.798 109.52V109.519ZM196.57 118.646H194.522V111.284H196.57C198.195 111.284 199.461 112.94 199.461 114.941C199.461 116.943 198.195 118.645 196.57 118.645V118.646ZM196.57 109.519H192.788V120.396H196.57C199.148 120.396 201.196 117.968 201.196 114.942C201.196 111.916 199.148 109.52 196.57 109.52V109.519ZM206.931 118.646H204.258V115.636H206.931C207.728 115.636 208.415 116.329 208.415 117.133C208.415 117.984 207.728 118.646 206.931 118.646ZM204.258 113.886V111.285H206.383C207.102 111.285 207.681 111.853 207.681 112.578C207.681 113.303 207.102 113.887 206.383 113.887H204.258V113.886ZM208.759 114.469C209.15 113.949 209.416 113.287 209.416 112.578C209.416 110.907 208.025 109.52 206.383 109.52H202.539V120.396H206.93C208.712 120.396 210.134 118.931 210.134 117.134C210.134 116.03 209.602 115.069 208.758 114.47L208.759 114.469ZM178.629 113.571H179.051C180.082 113.571 180.926 114.327 180.926 115.273H182.676C182.676 113.397 181.035 111.852 179.051 111.852H178.629C176.675 111.852 175.097 113.444 175.097 115.399V116.959C175.097 118.93 176.675 120.521 178.629 120.521H179.051C181.098 120.521 182.77 118.977 182.77 117.116H181.02C181.02 118.015 180.129 118.756 179.051 118.756H178.629C177.629 118.756 176.8 117.952 176.8 116.959V115.399C176.8 114.39 177.629 113.571 178.629 113.571Z" fill="#A798FF"/>
<path d="M124 14L124 -1.00011L389.5 -1.00013L389.5 118L355.5 118C344.454 118 335.5 109.046 335.5 98L335.5 54C335.5 42.9543 326.546 34 315.5 34L144 34C132.954 34 124 25.0457 124 14Z" fill="#9A89FF"/>
<path d="M317.5 170V254.5H-3V90H31C42.0457 90 51 98.9543 51 110V166.5C51 177.546 59.9543 186.5 71 186.5L222.75 186.5C232.829 186.5 241 178.329 241 168.25C241 158.171 249.171 150 259.25 150H297.5C308.546 150 317.5 158.954 317.5 170Z" fill="#9A89FF"/>
</g>
<defs>
<clipPath id="clip0_3672_2688">
<rect width="367" height="206" fill="white"/>
</clipPath>
</defs>
</svg>
