<svg width="367" height="206" viewBox="0 0 367 206" fill="none" xmlns="http://www.w3.org/2000/svg">
<g clip-path="url(#clip0_3660_2365)">
<rect width="367" height="206" fill="#B7ABFF"/>
<path d="M180.491 47.4411C182.043 46.5494 183 44.8958 183 43.1056V-5.10559C183 -6.89577 182.043 -8.54935 180.491 -9.44109L138.491 -33.5692C136.948 -34.4552 135.052 -34.4552 133.509 -33.5692L91.5093 -9.44109C89.9571 -8.54935 89 -6.89577 89 -5.10559V43.1056C89 44.8958 89.9571 46.5494 91.5093 47.4411L133.509 71.5692C135.052 72.4552 136.948 72.4552 138.491 71.5692L180.491 47.4411Z" fill="#A293FF"/>
<path d="M278.508 48.1944C280.05 47.3001 281 45.6519 281 43.8689V-4.86888C281 -6.65194 280.05 -8.30006 278.508 -9.19442L236.508 -33.5459C234.957 -34.4452 233.043 -34.4452 231.492 -33.5459L189.492 -9.19442C187.95 -8.30006 187 -6.65194 187 -4.86888V43.8689C187 45.6519 187.95 47.3001 189.492 48.1944L231.492 72.5459C233.043 73.4452 234.957 73.4452 236.508 72.5459L278.508 48.1944Z" fill="#A293FF"/>
<path d="M131.491 133.441C133.043 132.549 134 130.896 134 129.106V80.8944C134 79.1042 133.043 77.4507 131.491 76.5589L89.4907 52.4308C87.9484 51.5448 86.0516 51.5448 84.5093 52.4308L42.5093 76.5589C40.9571 77.4507 40 79.1042 40 80.8944V129.106C40 130.896 40.9571 132.549 42.5093 133.441L84.5093 157.569C86.0516 158.455 87.9484 158.455 89.4907 157.569L131.491 133.441Z" fill="#A293FF"/>
<path d="M278.491 214.441C280.043 213.549 281 211.896 281 210.106V161.894C281 160.104 280.043 158.451 278.491 157.559L236.491 133.431C234.948 132.545 233.052 132.545 231.509 133.431L189.509 157.559C187.957 158.451 187 160.104 187 161.894V210.106C187 211.896 187.957 213.549 189.509 214.441L231.509 238.569C233.052 239.455 234.948 239.455 236.491 238.569L278.491 214.441Z" fill="#A293FF"/>
<path d="M82.4907 48.4411C84.0429 47.5494 85 45.8958 85 44.1056V-4.10559C85 -5.89577 84.0429 -7.54935 82.4907 -8.44109L40.4907 -32.5692C38.9484 -33.4552 37.0516 -33.4552 35.5093 -32.5692L-6.49066 -8.44109C-8.04293 -7.54935 -9 -5.89577 -9 -4.10559V44.1056C-9 45.8958 -8.04292 47.5494 -6.49065 48.4411L35.5093 72.5692C37.0516 73.4552 38.9484 73.4552 40.4907 72.5692L82.4907 48.4411Z" fill="#A293FF"/>
<path d="M33.4907 133.441C35.0429 132.549 36 130.896 36 129.106V80.8944C36 79.1042 35.0429 77.4507 33.4907 76.5589L-8.50935 52.4308C-10.0516 51.5448 -11.9484 51.5448 -13.4907 52.4308L-55.4907 76.5589C-57.0429 77.4507 -58 79.1042 -58 80.8944V129.106C-58 130.896 -57.0429 132.549 -55.4907 133.441L-13.4907 157.569C-11.9484 158.455 -10.0516 158.455 -8.50935 157.569L33.4907 133.441Z" fill="#A293FF"/>
<path d="M82.4907 218.441C84.0429 217.549 85 215.896 85 214.106V165.894C85 164.104 84.0429 162.451 82.4907 161.559L40.4907 137.431C38.9484 136.545 37.0516 136.545 35.5093 137.431L-6.49066 161.559C-8.04293 162.451 -9 164.104 -9 165.894V214.106C-9 215.896 -8.04292 217.549 -6.49065 218.441L35.5093 242.569C37.0516 243.455 38.9484 243.455 40.4907 242.569L82.4907 218.441Z" fill="#A293FF"/>
<path d="M227.765 131.443C229.312 130.55 230.265 128.899 230.265 127.113V78.8872C230.265 77.1009 229.312 75.4503 227.765 74.5571L186 50.4434C184.453 49.5502 182.547 49.5502 181 50.4434L139.235 74.5571C137.688 75.4503 136.735 77.1009 136.735 78.8872V127.113C136.735 128.899 137.688 130.55 139.235 131.443L181 155.557C182.547 156.45 184.453 156.45 186 155.557L227.765 131.443Z" fill="black"/>
<path d="M183.416 105.641C177.813 105.641 173.289 101.116 173.289 95.5129C173.289 89.91 177.813 85.3853 183.416 85.3853C189.019 85.3853 193.544 89.91 193.544 95.5129C193.544 101.11 189.019 105.641 183.416 105.641Z" fill="#FFF100"/>
<path d="M188.732 94.1318H186.638V97.1241H188.732C189.606 97.1241 190.321 96.441 190.321 95.6189C190.321 94.7968 189.606 94.1318 188.732 94.1318Z" fill="black"/>
<path d="M176.971 95.5132C176.971 97.797 178.882 99.6564 181.23 99.6564C183.577 99.6564 185.488 97.797 185.488 95.5132C185.488 93.2294 183.577 91.3701 181.23 91.3701C178.882 91.3701 176.971 93.2294 176.971 95.5132Z" fill="black"/>
<path d="M173.498 112.787V117.059C173.498 117.979 172.935 118.627 172.158 118.627H171.783C170.992 118.627 170.443 117.979 170.443 117.059V112.787H168.955V117.33C168.955 118.965 170.121 120.142 171.756 120.142H172.185C173.82 120.142 174.973 118.965 174.973 117.33V112.787H173.498ZM187.09 115.383L189.852 112.449H187.774L185.348 115.086V110.719H183.873V120.02H185.348V117.289L186.058 116.532L188.484 120.02H190.307L187.09 115.383H187.09ZM163.887 118.533H162.104V112.219H163.887C165.268 112.219 166.367 113.639 166.367 115.355C166.367 117.072 165.267 118.532 163.887 118.532V118.533ZM163.887 110.705H160.63V120.034H163.887C166.072 120.034 167.855 117.952 167.855 115.356C167.855 112.76 166.072 110.705 163.887 110.705V110.705ZM194.57 118.533H192.814V112.219H194.57C195.964 112.219 197.049 113.639 197.049 115.355C197.049 117.072 195.963 118.532 194.57 118.532V118.533ZM194.57 110.705H191.326V120.034H194.57C196.781 120.034 198.537 117.952 198.537 115.356C198.537 112.76 196.781 110.705 194.57 110.705V110.705ZM203.457 118.533H201.164V115.951H203.457C204.14 115.951 204.73 116.546 204.73 117.235C204.73 117.965 204.14 118.533 203.457 118.533ZM201.164 114.45V112.219H202.987C203.604 112.219 204.1 112.706 204.1 113.328C204.1 113.95 203.604 114.451 202.987 114.451H201.164V114.45ZM205.025 114.951C205.36 114.505 205.588 113.937 205.588 113.328C205.588 111.895 204.395 110.705 202.987 110.705H199.69V120.034H203.456C204.984 120.034 206.204 118.777 206.204 117.236C206.204 116.289 205.748 115.465 205.024 114.951L205.025 114.951ZM179.181 114.18H179.543C180.428 114.18 181.151 114.829 181.151 115.64H182.653C182.653 114.031 181.245 112.706 179.543 112.706H179.181C177.505 112.706 176.152 114.071 176.152 115.748V117.086C176.152 118.776 177.505 120.142 179.181 120.142H179.543C181.299 120.142 182.734 118.817 182.734 117.221H181.232C181.232 117.992 180.468 118.627 179.543 118.627H179.181C178.323 118.627 177.613 117.938 177.613 117.086V115.748C177.613 114.883 178.323 114.18 179.181 114.18Z" fill="#FFF100"/>
</g>
<defs>
<clipPath id="clip0_3660_2365">
<rect width="367" height="206" fill="white"/>
</clipPath>
</defs>
</svg>
