<svg width="560" height="240" viewBox="0 0 560 240" fill="none" xmlns="http://www.w3.org/2000/svg">
<g clip-path="url(#clip0_4985_734)">
<rect width="560" height="240" fill="#FFF100"/>
<g clip-path="url(#clip1_4985_734)">
<rect width="560" height="240" fill="#FFF100"/>
<path d="M-137 100L9.61491 100L67 100C78.0457 100 87 108.954 87 120L87 340C87 351.046 78.0457 360 67 360L-137 360C-148.046 360 -157 351.046 -157 340L-157 120C-157 108.954 -148.046 100 -137 100Z" fill="#FFF100"/>
<path d="M231 21.9441L231 -24C231 -35.0457 222.046 -44 211 -44L-11 -44C-22.0457 -44 -31 -35.0457 -31 -24L-31 191C-31 202.046 -22.0457 211 -11 211L76.5 211C87.5457 211 96.5 202.046 96.5 191L96.5 61.9441C96.5 50.8984 105.454 41.9441 116.5 41.9441L211 41.9441C222.046 41.9441 231 32.9898 231 21.9441Z" fill="#EDDE00"/>
<path d="M423.479 197.576L289 197.576C277.954 197.576 269 206.53 269 217.576L269 256C269 267.046 277.954 276 289 276L611.5 276C622.546 276 631.5 267.046 631.5 256L631.5 -28C631.5 -39.0457 622.546 -48 611.5 -48L504.424 -48C493.378 -48 484.424 -39.0457 484.424 -28L484.424 58.5088C484.424 69.5545 475.47 78.5088 464.424 78.5088L463.479 78.5088C452.433 78.5088 443.479 87.4631 443.479 98.5088L443.479 177.576C443.479 188.622 434.525 197.576 423.479 197.576Z" fill="#EDDE00"/>
<path d="M514 114C502.954 114 494 122.954 494 134L494 294C494 305.046 502.954 314 514 314L612 314C623.046 314 632 305.046 632 294L632 134C632 122.954 623.046 114 612 114L514 114Z" fill="#FFF100"/>
</g>
<rect x="202.5" y="87.5" width="65" height="65" rx="10" fill="black"/>
<mask id="mask0_4985_734" style="mask-type:alpha" maskUnits="userSpaceOnUse" x="217" y="97" width="36" height="46">
<path d="M250.116 108.741C251.642 110.267 252.5 112.338 252.5 114.497V139.125C252.5 141.196 250.821 142.875 248.75 142.875H221.25C219.179 142.875 217.5 141.196 217.5 139.125V100.875C217.5 98.804 219.179 97.125 221.25 97.125H235.128C237.287 97.125 239.358 97.9826 240.884 99.509L250.116 108.741Z" fill="#EDDE00"/>
</mask>
<g mask="url(#mask0_4985_734)">
<path d="M250.116 108.741C251.642 110.267 252.5 112.338 252.5 114.497V139.125C252.5 141.196 250.821 142.875 248.75 142.875H221.25C219.179 142.875 217.5 141.196 217.5 139.125V100.875C217.5 98.804 219.179 97.125 221.25 97.125H235.128C237.287 97.125 239.358 97.9826 240.884 99.509L250.116 108.741Z" fill="#FFF100"/>
<path d="M238.5 96.375V107.346C238.5 109.412 240.183 111.091 242.253 111.091L252.987 111.125H253.25L238.5 96.375Z" fill="#FFF100" stroke="black" stroke-width="2"/>
</g>
<path d="M228.004 120.237C229.672 120.237 231.114 121.325 231.411 123.007H229.771C229.616 122.202 228.923 121.636 228.004 121.636C226.944 121.636 226.011 122.414 226.011 124.209C226.011 126.018 226.973 126.796 227.962 126.796C228.796 126.796 229.602 126.428 229.828 125.41H231.467C231.128 127.191 229.559 128.195 227.934 128.195C225.729 128.195 224.273 126.485 224.273 124.223C224.273 121.961 225.729 120.237 228.004 120.237ZM238.356 122.484H236.773C236.589 121.792 235.953 121.523 235.105 121.523C234.37 121.523 233.691 121.848 233.691 122.357C233.691 122.866 234.044 123.135 234.709 123.262L235.783 123.474C237.324 123.771 238.497 124.251 238.497 125.735C238.497 127.319 236.999 128.195 235.274 128.195C233.408 128.195 232.165 127.121 231.981 125.693H233.62C233.776 126.485 234.327 126.923 235.331 126.923C236.221 126.923 236.857 126.555 236.857 125.933C236.857 125.311 236.292 125.043 235.543 124.887L234.398 124.661C233.112 124.393 232.108 123.841 232.108 122.442C232.108 121.099 233.564 120.237 235.204 120.237C236.688 120.237 238.045 120.958 238.356 122.484ZM240.216 120.407L241.969 125.834L243.707 120.407H245.46L242.718 128.011H241.135L238.364 120.407H240.216Z" fill="black"/>
<rect x="292.5" y="87.5" width="65" height="65" rx="10" fill="black"/>
<mask id="mask1_4985_734" style="mask-type:alpha" maskUnits="userSpaceOnUse" x="307" y="97" width="36" height="46">
<path d="M340.116 108.741C341.642 110.267 342.5 112.338 342.5 114.497V139.125C342.5 141.196 340.821 142.875 338.75 142.875H311.25C309.179 142.875 307.5 141.196 307.5 139.125V100.875C307.5 98.804 309.179 97.125 311.25 97.125H325.128C327.287 97.125 329.358 97.9826 330.884 99.509L340.116 108.741Z" fill="#EDDE00"/>
</mask>
<g mask="url(#mask1_4985_734)">
<path d="M340.116 108.741C341.642 110.267 342.5 112.338 342.5 114.497V139.125C342.5 141.196 340.821 142.875 338.75 142.875H311.25C309.179 142.875 307.5 141.196 307.5 139.125V100.875C307.5 98.804 309.179 97.125 311.25 97.125H325.128C327.287 97.125 329.358 97.9826 330.884 99.509L340.116 108.741Z" fill="#FFF100"/>
<path d="M328.5 96.375V107.346C328.5 109.412 330.183 111.091 332.253 111.091L342.987 111.125H343.25L328.5 96.375Z" fill="#FFF100" stroke="black" stroke-width="2"/>
</g>
<path d="M319.241 124.209C319.241 125.962 320.103 126.824 321.206 126.824C322.393 126.824 323.086 125.834 323.086 124.209C323.086 122.612 322.393 121.608 321.206 121.608C320.103 121.608 319.241 122.456 319.241 124.209ZM317.629 120.407H319.311V121.424C319.764 120.675 320.555 120.237 321.573 120.237C323.439 120.237 324.838 121.778 324.838 124.209C324.838 126.654 323.439 128.195 321.573 128.195C320.555 128.195 319.764 127.757 319.311 127.008V130.485H317.629V120.407ZM330.949 124.209C330.949 122.456 330.072 121.608 328.984 121.608C327.796 121.608 327.104 122.612 327.104 124.209C327.104 125.834 327.796 126.824 328.984 126.824C330.072 126.824 330.949 125.962 330.949 124.209ZM330.878 121.424V120.407H332.56V130.485H330.878V127.008C330.426 127.757 329.634 128.195 328.616 128.195C326.75 128.195 325.351 126.654 325.351 124.209C325.351 121.778 326.75 120.237 328.616 120.237C329.634 120.237 330.426 120.675 330.878 121.424Z" fill="black"/>
</g>
<defs>
<clipPath id="clip0_4985_734">
<rect width="560" height="240" fill="white"/>
</clipPath>
<clipPath id="clip1_4985_734">
<rect width="560" height="240" fill="white"/>
</clipPath>
</defs>
</svg>
