<svg width="560" height="240" viewBox="0 0 560 240" fill="none" xmlns="http://www.w3.org/2000/svg">
<g clip-path="url(#clip0_4723_13622)">
<rect width="560" height="240" fill="#FFF100"/>
<g clip-path="url(#clip1_4723_13622)">
<rect width="560" height="240" fill="#FFF100"/>
<path d="M-137 100L9.61491 100L67 100C78.0457 100 87 108.954 87 120L87 340C87 351.046 78.0457 360 67 360L-137 360C-148.046 360 -157 351.046 -157 340L-157 120C-157 108.954 -148.046 100 -137 100Z" fill="#FFF100"/>
<path d="M231 21.9441L231 -24C231 -35.0457 222.046 -44 211 -44L-11 -44C-22.0457 -44 -31 -35.0457 -31 -24L-31 191C-31 202.046 -22.0457 211 -11 211L76.5 211C87.5457 211 96.5 202.046 96.5 191L96.5 61.9441C96.5 50.8984 105.454 41.9441 116.5 41.9441L211 41.9441C222.046 41.9441 231 32.9898 231 21.9441Z" fill="#EDDE00"/>
<path d="M423.479 197.576L289 197.576C277.954 197.576 269 206.53 269 217.576L269 256C269 267.046 277.954 276 289 276L611.5 276C622.546 276 631.5 267.046 631.5 256L631.5 -28C631.5 -39.0457 622.546 -48 611.5 -48L504.424 -48C493.378 -48 484.424 -39.0457 484.424 -28L484.424 58.5088C484.424 69.5545 475.47 78.5088 464.424 78.5088L463.479 78.5088C452.433 78.5088 443.479 87.4631 443.479 98.5088L443.479 177.576C443.479 188.622 434.525 197.576 423.479 197.576Z" fill="#EDDE00"/>
<path d="M514 114C502.954 114 494 122.954 494 134L494 294C494 305.046 502.954 314 514 314H612C623.046 314 632 305.046 632 294L632 134C632 122.954 623.046 114 612 114L514 114Z" fill="#FFF100"/>
</g>
<rect x="247.5" y="87.5" width="65" height="65" rx="10" fill="black"/>
<mask id="mask0_4723_13622" style="mask-type:alpha" maskUnits="userSpaceOnUse" x="262" y="97" width="36" height="46">
<path d="M295.116 108.741C296.642 110.267 297.5 112.338 297.5 114.497V139.125C297.5 141.196 295.821 142.875 293.75 142.875H266.25C264.179 142.875 262.5 141.196 262.5 139.125V100.875C262.5 98.804 264.179 97.125 266.25 97.125H280.128C282.287 97.125 284.358 97.9826 285.884 99.509L295.116 108.741Z" fill="#EDDE00"/>
</mask>
<g mask="url(#mask0_4723_13622)">
<path d="M295.116 108.741C296.642 110.267 297.5 112.338 297.5 114.497V139.125C297.5 141.196 295.821 142.875 293.75 142.875H266.25C264.179 142.875 262.5 141.196 262.5 139.125V100.875C262.5 98.804 264.179 97.125 266.25 97.125H280.128C282.287 97.125 284.358 97.9826 285.884 99.509L295.116 108.741Z" fill="#FFF100"/>
<path d="M283.5 96.375V107.346C283.5 109.412 285.183 111.091 287.253 111.091L297.987 111.125H298.25L283.5 96.375Z" fill="#FFF100" stroke="black" stroke-width="2"/>
</g>
<path d="M273.004 120.237C274.672 120.237 276.114 121.325 276.411 123.007H274.771C274.616 122.202 273.923 121.636 273.004 121.636C271.944 121.636 271.011 122.414 271.011 124.209C271.011 126.018 271.973 126.796 272.962 126.796C273.796 126.796 274.602 126.428 274.828 125.41H276.467C276.128 127.191 274.559 128.195 272.934 128.195C270.729 128.195 269.273 126.485 269.273 124.223C269.273 121.961 270.729 120.237 273.004 120.237ZM283.356 122.484H281.773C281.589 121.792 280.953 121.523 280.105 121.523C279.37 121.523 278.691 121.848 278.691 122.357C278.691 122.866 279.044 123.135 279.709 123.262L280.783 123.474C282.324 123.771 283.497 124.251 283.497 125.735C283.497 127.319 281.999 128.195 280.274 128.195C278.408 128.195 277.165 127.121 276.981 125.693H278.62C278.776 126.485 279.327 126.923 280.331 126.923C281.221 126.923 281.857 126.555 281.857 125.933C281.857 125.311 281.292 125.043 280.543 124.887L279.398 124.661C278.112 124.393 277.108 123.841 277.108 122.442C277.108 121.099 278.564 120.237 280.204 120.237C281.688 120.237 283.045 120.958 283.356 122.484ZM285.216 120.407L286.969 125.834L288.707 120.407H290.46L287.718 128.011H286.135L283.364 120.407H285.216Z" fill="black"/>
</g>
<defs>
<clipPath id="clip0_4723_13622">
<rect width="560" height="240" fill="white"/>
</clipPath>
<clipPath id="clip1_4723_13622">
<rect width="560" height="240" fill="white"/>
</clipPath>
</defs>
</svg>
