<svg fill="none" height="628" viewBox="0 0 1200 628" width="1200" xmlns="http://www.w3.org/2000/svg" xmlns:xlink="http://www.w3.org/1999/xlink"><linearGradient id="a" gradientUnits="userSpaceOnUse" x1="589" x2="586.026" y1="-32.3146" y2="764.571"><stop offset="0" stop-color="#fdef00"/><stop offset=".938633" stop-color="#fffaa3"/></linearGradient><linearGradient id="b" gradientUnits="userSpaceOnUse" x1="587" x2="587" y1="-103.981" y2="767.01"><stop offset="0" stop-color="#fff100"/><stop offset=".938633" stop-color="#fffa99"/></linearGradient><clipPath id="c"><path d="m0 0h1200v628h-1200z"/></clipPath><clipPath id="d"><path d="m0 .5h1200v630h-1200z"/></clipPath><clipPath id="e"><path d="m486.969 182.672h226.062v262.656h-226.062z"/></clipPath><g clip-path="url(#c)"><path d="m0 0h1200v628h-1200z" fill="url(#a)"/><g clip-path="url(#d)"><path d="m0 0h1200v630h-1200z" fill="url(#b)" transform="translate(0 .5)"/><g stroke="#eddd0c" stroke-width="3.2"><path d="m81.9736-109.711v476.282c0 27.615 22.3864 50.001 50.0004 50l132.499-.001c27.615 0 50.001 22.386 50.001 50v191.975" stroke-linejoin="round"/><rect fill="#eddd0c" height="43.3492" rx="10.8373" transform="matrix(-1 -0 0 -1 185.621 490.636)" width="21.6746" x="92.8105" y="245.318"/><path d="m895.993-69.4646v173.1626c0 27.614 22.386 50 50 50h411.497" stroke-linejoin="round"/><rect fill="#eddd0c" height="53" rx="13.5" transform="matrix(0 -1 1 0 879.361 1213.759)" width="27" x="1046.56" y="167.199"/><path d="m1083.26 677.199v-200.658c0-27.614 22.39-50 50-50l93-.001" stroke-linecap="round" stroke-linejoin="round"/></g></g><g clip-path="url(#e)"><g stroke="#998b00" stroke-miterlimit="10" stroke-width="3.2"><path d="m508.154 184.203h181.71c3.276 0 5.922 2.646 5.922 5.922v235.152c0 3.276-2.646 5.922-5.922 5.922h-148.14l-.63-.63-38.214-38.16v-.648l-.648-201.618c0-3.276 2.646-5.94 5.922-5.94z" fill="#fff100"/><path d="m676.131 443.799h-181.71c-3.276 0-5.922-2.646-5.922-5.922v-235.152c0-3.276 2.646-5.922 5.922-5.922h148.14l.63.63 38.214 38.16v.648l.648 201.618c0 3.276-2.646 5.94-5.922 5.94z" fill="#fffdcc"/><path d="m681.406 235.593v.648h-33.48c-2.61 0-4.734-2.124-4.734-4.734v-33.552c0-.198.234-.288.378-.162l37.836 37.782z" fill="#fffdcc"/></g><path d="m576.331 304.275v-3.419c0-10.421-5.047-14.004-14.817-14.004-8.63 0-14.492 4.397-15.632 12.864h-25.076c1.302-16.446 16.934-31.101 42.987-31.101 25.239 0 39.569 10.259 39.08 36.8l-.326 19.052v9.118c0 9.607.652 19.866 1.954 25.402h-26.378l-.326-10.584c-6.513 9.281-16.935 12.701-29.473 12.701-16.609 0-30.286-9.77-30.286-25.728 0-21.493 24.262-28.495 58.293-31.101zm.652 17.912v-2.117c-18.726 1.791-31.264 3.908-31.264 13.352 0 5.7 5.373 9.445 12.375 9.445 10.747 0 18.889-4.56 18.889-20.68z" fill="#fff100"/><path d="m619.418 358.987v-28.984h30.124v30.612l-16.609 24.099h-15.957l14.166-25.727z" fill="#fff100"/><path d="m576.331 304.275v-3.419c0-10.421-5.047-14.004-14.817-14.004-8.63 0-14.492 4.397-15.632 12.864h-25.076c1.302-16.446 16.934-31.101 42.987-31.101 25.239 0 39.569 10.259 39.08 36.8l-.326 19.052v9.118c0 9.607.652 19.866 1.954 25.402h-26.378l-.326-10.584c-6.513 9.281-16.935 12.701-29.473 12.701-16.609 0-30.286-9.77-30.286-25.728 0-21.493 24.262-28.495 58.293-31.101zm.652 17.912v-2.117c-18.726 1.791-31.264 3.908-31.264 13.352 0 5.7 5.373 9.445 12.375 9.445 10.747 0 18.889-4.56 18.889-20.68z" stroke="#998b00" stroke-miterlimit="10" stroke-width="3.2"/><path d="m619.418 358.987v-28.984h30.124v30.612l-16.609 24.099h-15.957l14.166-25.727z" stroke="#998b00" stroke-miterlimit="10" stroke-width="3.2"/></g></g></svg>