<svg width="560" height="240" viewBox="0 0 560 240" fill="none" xmlns="http://www.w3.org/2000/svg">
<g clip-path="url(#clip0_5395_1651)">
<rect width="560" height="240" fill="#FFF100"/>
<g clip-path="url(#clip1_5395_1651)">
<rect width="560" height="240" fill="#FFF100"/>
<path d="M224 49.847L224 -0.999985C224 -12.0457 215.046 -21 204 -21L-26 -21C-37.0457 -21 -46 -12.0457 -46 -1.00001L-46 175C-46 186.046 -37.0457 195 -26 195L52.5714 195C63.6171 195 72.5714 186.046 72.5714 175L72.5714 89.8471C72.5714 78.8014 81.5257 69.8471 92.5714 69.8471L204 69.8471C215.046 69.8471 224 60.8927 224 49.847Z" fill="#EDDE00"/>
<path d="M472.584 123.352L505.5 123.352C516.546 123.352 525.5 114.397 525.5 103.352L525.5 66.9999C525.5 55.9542 516.546 46.9999 505.5 46.9999L454.5 46.9999C443.454 46.9999 434.5 38.0456 434.5 26.9999L434.5 -34.0001C434.5 -45.0458 443.454 -54.0001 454.5 -54.0001L583 -54.0001C594.046 -54.0001 603 -45.0457 603 -34.0001L603 241.5C603 252.546 594.046 261.5 583 261.5L335 261.5C323.954 261.5 315 252.546 315 241.5L315 206.5C315 195.454 323.954 186.5 335 186.5L432.584 186.5C443.629 186.5 452.584 177.546 452.584 166.5L452.584 143.352C452.584 132.306 461.538 123.352 472.584 123.352Z" fill="#EDDE00"/>
</g>
<path d="M225.312 153.5C206.779 153.5 191.812 138.533 191.812 120C191.812 101.467 206.779 86.5 225.312 86.5C243.846 86.5 258.812 101.467 258.812 120C258.812 138.533 243.846 153.5 225.312 153.5Z" fill="black"/>
<path d="M243.225 115.031H236.653V124.948H243.225C245.95 124.948 248.214 122.684 248.214 119.959C248.214 117.214 245.95 115.031 243.225 115.031Z" fill="#FFF100"/>
<path d="M204.454 120C204.454 127.654 210.685 133.885 218.339 133.885C225.993 133.885 232.224 127.654 232.224 120C232.224 112.346 225.993 106.115 218.339 106.115C210.685 106.115 204.454 112.346 204.454 120Z" fill="#FFF100"/>
<path fill-rule="evenodd" clip-rule="evenodd" d="M351.715 129.374L326.914 88.5299C326.359 87.6167 324.989 87.6167 324.435 88.5299L303.358 123.24C302.988 123.851 303.656 124.555 304.321 124.255C304.594 124.132 304.908 124.007 305.254 123.883L305.247 123.897C305.247 123.897 305.823 123.682 306.796 123.385C307.868 123.067 309.044 122.767 310.107 122.513C313.084 121.851 316.985 121.312 320.502 121.875C323.739 122.392 325.993 123.228 327.635 124.05C328.388 124.427 329.099 123.48 328.49 122.91C326.136 120.707 322.514 118.047 317.005 116.932C316.763 116.883 316.642 116.621 316.767 116.416L325.065 102.751C325.338 102.302 326.011 102.302 326.284 102.751L342.131 128.849C342.465 129.399 342.185 130.101 341.558 130.303C340.316 130.703 338.833 131.002 337.172 131.002C336.116 131.002 335.053 130.882 333.988 130.643C333.988 130.643 330.917 130.176 326.812 127.818C322.707 125.459 314.793 122.45 305.913 127.321C302.129 129.663 299.608 132.867 298.279 134.878C298.071 135.192 298.43 135.568 298.772 135.392C301.823 133.822 310.05 130.114 317.463 131.447C321.869 132.239 326.905 135.443 332.139 137.28C340.798 140.371 349.287 135.193 349.306 135.182C350.203 134.611 350.73 134.176 350.82 134.101L350.928 134.01C352.312 132.847 352.642 130.901 351.715 129.374Z" fill="black"/>
<path fill-rule="evenodd" clip-rule="evenodd" d="M287.783 143.409C289.182 143.409 290.328 143.776 291.219 144.508C291.701 144.907 292.066 145.381 292.316 145.93C292.565 146.48 292.69 147.097 292.69 147.782C292.69 148.467 292.565 149.086 292.316 149.64C292.066 150.194 291.701 150.67 291.219 151.068C290.773 151.426 290.264 151.697 289.688 151.88C289.114 152.064 288.479 152.155 287.783 152.155H284.133C284.044 152.155 283.968 152.127 283.906 152.072C283.843 152.016 283.812 151.948 283.812 151.868V143.696C283.812 143.616 283.843 143.548 283.906 143.493C283.968 143.437 284.044 143.409 284.133 143.409H287.783ZM300.992 143.409C301.082 143.409 301.157 143.437 301.22 143.493C301.282 143.548 301.314 143.616 301.314 143.696V145.321C301.314 145.401 301.282 145.468 301.22 145.524C301.157 145.58 301.082 145.607 300.992 145.607H296.835C296.746 145.607 296.67 145.636 296.607 145.691C296.545 145.747 296.514 145.815 296.514 145.894V146.396C296.514 146.476 296.545 146.544 296.607 146.599C296.67 146.655 296.746 146.683 296.835 146.683H300.458C300.547 146.683 300.623 146.711 300.685 146.767C300.748 146.822 300.778 146.89 300.778 146.97V148.618C300.778 148.698 300.748 148.766 300.685 148.822C300.623 148.877 300.547 148.905 300.458 148.905H296.835C296.746 148.905 296.67 148.933 296.607 148.989C296.545 149.045 296.514 149.112 296.514 149.192V149.646C296.514 149.726 296.545 149.793 296.607 149.849C296.67 149.905 296.746 149.933 296.835 149.933H300.992C301.082 149.933 301.157 149.961 301.22 150.016C301.282 150.072 301.314 150.14 301.314 150.22V151.868C301.314 151.948 301.282 152.016 301.22 152.071C301.157 152.127 301.082 152.155 300.992 152.155H294.187C294.098 152.155 294.023 152.127 293.96 152.071C293.898 152.016 293.867 151.948 293.867 151.868V143.696C293.867 143.616 293.898 143.548 293.96 143.493C294.023 143.437 294.098 143.409 294.187 143.409H300.992ZM305.324 143.409C305.413 143.409 305.489 143.437 305.552 143.493C305.614 143.548 305.645 143.616 305.645 143.696V149.67C305.645 149.75 305.674 149.817 305.732 149.873C305.79 149.929 305.868 149.957 305.966 149.957H309.99C310.079 149.957 310.155 149.985 310.218 150.04C310.28 150.096 310.311 150.164 310.311 150.243V151.868C310.311 151.948 310.28 152.016 310.218 152.071C310.155 152.127 310.079 152.155 309.99 152.155H303.319C303.22 152.155 303.143 152.127 303.085 152.071C303.027 152.016 302.998 151.948 302.998 151.868V143.696C302.998 143.616 303.027 143.548 303.085 143.493C303.143 143.437 303.22 143.409 303.319 143.409H305.324ZM316.528 143.409C316.626 143.409 316.704 143.437 316.762 143.493C316.82 143.548 316.849 143.616 316.849 143.696V145.321C316.849 145.4 316.82 145.468 316.762 145.524C316.704 145.58 316.626 145.608 316.528 145.608H314.656C314.567 145.608 314.491 145.635 314.429 145.691C314.366 145.747 314.335 145.815 314.335 145.894V151.868C314.335 151.948 314.306 152.016 314.249 152.072C314.191 152.127 314.112 152.155 314.015 152.155H312.009C311.92 152.155 311.844 152.127 311.782 152.072C311.719 152.016 311.688 151.948 311.688 151.868V145.894C311.688 145.815 311.659 145.747 311.601 145.691C311.543 145.635 311.465 145.608 311.367 145.608H309.469C309.38 145.608 309.304 145.58 309.242 145.524C309.179 145.468 309.148 145.4 309.148 145.321V143.696C309.148 143.616 309.179 143.548 309.242 143.493C309.304 143.437 309.38 143.409 309.469 143.409H316.528ZM322.05 143.421C322.139 143.421 322.226 143.447 322.311 143.499C322.395 143.551 322.455 143.612 322.491 143.684L326.395 151.809C326.43 151.88 326.424 151.956 326.375 152.036C326.326 152.115 326.23 152.155 326.087 152.155H323.801C323.703 152.155 323.612 152.129 323.527 152.077C323.442 152.026 323.378 151.964 323.333 151.892L322.972 151.175C322.928 151.104 322.863 151.042 322.778 150.99C322.694 150.938 322.607 150.913 322.518 150.913H319.697C319.599 150.913 319.507 150.938 319.423 150.99C319.338 151.042 319.278 151.104 319.242 151.175L318.868 151.892C318.832 151.964 318.772 152.026 318.687 152.077C318.603 152.129 318.515 152.155 318.426 152.155H316.127C316.083 152.155 316.036 152.147 315.987 152.131C315.938 152.115 315.898 152.092 315.866 152.059C315.835 152.028 315.815 151.988 315.806 151.94C315.798 151.892 315.811 151.837 315.846 151.773L319.723 143.684C319.759 143.612 319.819 143.551 319.904 143.499C319.989 143.447 320.08 143.421 320.178 143.421H322.05ZM334.216 143.409C334.305 143.409 334.381 143.437 334.443 143.493C334.505 143.548 334.537 143.616 334.537 143.696V149.67C334.537 149.75 334.566 149.817 334.623 149.873C334.682 149.929 334.759 149.957 334.858 149.957H338.882C338.971 149.957 339.047 149.985 339.109 150.04C339.171 150.096 339.203 150.164 339.203 150.243V151.868C339.203 151.948 339.171 152.016 339.109 152.071C339.047 152.127 338.971 152.155 338.882 152.155H332.21C332.112 152.155 332.034 152.127 331.977 152.071C331.918 152.016 331.889 151.948 331.889 151.868V143.696C331.889 143.616 331.918 143.548 331.977 143.493C332.034 143.437 332.112 143.409 332.21 143.409H334.216ZM345.647 143.421C345.735 143.421 345.823 143.447 345.907 143.499C345.992 143.551 346.052 143.612 346.088 143.684L349.992 151.809C350.027 151.88 350.021 151.956 349.972 152.036C349.923 152.115 349.826 152.155 349.684 152.155H347.398C347.3 152.155 347.209 152.129 347.124 152.077C347.039 152.026 346.975 151.964 346.93 151.892L346.569 151.175C346.525 151.104 346.46 151.042 346.375 150.99C346.291 150.938 346.203 150.913 346.115 150.913H343.294C343.195 150.913 343.104 150.938 343.019 150.99C342.935 151.042 342.875 151.104 342.839 151.175L342.464 151.892C342.429 151.964 342.369 152.026 342.284 152.077C342.2 152.129 342.112 152.155 342.023 152.155H339.724C339.679 152.155 339.633 152.147 339.584 152.131C339.535 152.115 339.495 152.092 339.463 152.059C339.432 152.028 339.412 151.988 339.403 151.94C339.394 151.892 339.408 151.837 339.443 151.773L343.32 143.684C343.356 143.612 343.416 143.551 343.501 143.499C343.585 143.447 343.677 143.421 343.775 143.421H345.647ZM353.294 143.409C353.383 143.409 353.459 143.437 353.521 143.493C353.584 143.548 353.614 143.616 353.614 143.696V146.444C353.614 146.524 353.633 146.569 353.668 146.581C353.704 146.593 353.748 146.567 353.802 146.504L356.209 143.648C356.262 143.584 356.338 143.531 356.436 143.487C356.534 143.443 356.632 143.421 356.73 143.421H359.283C359.381 143.421 359.444 143.459 359.47 143.535C359.497 143.61 359.484 143.68 359.43 143.744L355.914 147.675C355.861 147.739 355.836 147.812 355.841 147.896C355.845 147.979 355.879 148.049 355.941 148.105C356.244 148.399 356.565 148.706 356.904 149.025C357.242 149.343 357.579 149.664 357.913 149.986C358.247 150.309 358.577 150.628 358.903 150.942C359.227 151.257 359.538 151.55 359.832 151.821C359.894 151.884 359.916 151.956 359.898 152.036C359.88 152.115 359.823 152.155 359.725 152.155H356.957C356.859 152.155 356.759 152.135 356.656 152.095C356.554 152.056 356.476 152.004 356.423 151.94L353.829 149.347C353.766 149.284 353.715 149.26 353.675 149.275C353.635 149.292 353.614 149.339 353.614 149.419V151.868C353.614 151.948 353.584 152.016 353.521 152.071C353.459 152.127 353.383 152.155 353.294 152.155H351.288C351.19 152.155 351.112 152.127 351.054 152.071C350.996 152.016 350.968 151.948 350.968 151.868V143.696C350.968 143.616 350.996 143.548 351.054 143.493C351.112 143.437 351.19 143.409 351.288 143.409H353.294ZM367.866 143.409C367.956 143.409 368.031 143.437 368.094 143.493C368.156 143.548 368.187 143.616 368.187 143.696V145.321C368.187 145.401 368.156 145.468 368.094 145.524C368.031 145.58 367.956 145.607 367.866 145.607H363.709C363.619 145.607 363.544 145.636 363.481 145.691C363.419 145.747 363.388 145.815 363.388 145.894V146.396C363.388 146.476 363.419 146.544 363.481 146.599C363.544 146.655 363.619 146.683 363.709 146.683H367.332C367.421 146.683 367.496 146.711 367.559 146.767C367.621 146.822 367.653 146.89 367.653 146.97V148.618C367.653 148.698 367.621 148.766 367.559 148.822C367.496 148.877 367.421 148.905 367.332 148.905H363.709C363.619 148.905 363.544 148.933 363.481 148.989C363.419 149.045 363.388 149.112 363.388 149.192V149.646C363.388 149.726 363.419 149.793 363.481 149.849C363.544 149.905 363.619 149.933 363.709 149.933H367.866C367.956 149.933 368.031 149.961 368.094 150.016C368.156 150.072 368.187 150.14 368.187 150.22V151.868C368.187 151.948 368.156 152.016 368.094 152.071C368.031 152.127 367.956 152.155 367.866 152.155H361.061C360.972 152.155 360.896 152.127 360.834 152.071C360.772 152.016 360.74 151.948 360.74 151.868V143.696C360.74 143.616 360.772 143.548 360.834 143.493C360.896 143.437 360.972 143.409 361.061 143.409H367.866ZM287.783 145.631H286.781C286.691 145.631 286.616 145.659 286.553 145.715C286.491 145.771 286.46 145.839 286.46 145.918V149.67C286.46 149.75 286.491 149.817 286.553 149.873C286.616 149.929 286.691 149.957 286.781 149.957H287.783C288.033 149.957 288.291 149.929 288.559 149.873C288.826 149.817 289.067 149.712 289.281 149.556C289.494 149.401 289.67 149.182 289.809 148.899C289.947 148.617 290.016 148.248 290.016 147.794C290.016 147.34 289.947 146.972 289.809 146.689C289.67 146.406 289.492 146.187 289.274 146.032C289.056 145.876 288.815 145.771 288.552 145.715C288.289 145.659 288.033 145.631 287.783 145.631ZM321.1 147.065C321.056 147.065 321.016 147.101 320.98 147.173L320.312 148.618C320.276 148.69 320.276 148.752 320.312 148.804C320.347 148.856 320.414 148.881 320.512 148.881H321.702C321.791 148.881 321.856 148.856 321.896 148.804C321.936 148.752 321.934 148.69 321.889 148.618C321.8 148.419 321.693 148.186 321.568 147.919C321.443 147.653 321.328 147.404 321.221 147.173C321.185 147.101 321.145 147.065 321.1 147.065ZM344.697 147.065C344.652 147.065 344.613 147.101 344.577 147.173L343.909 148.618C343.873 148.69 343.873 148.752 343.909 148.804C343.944 148.856 344.011 148.881 344.109 148.881H345.299C345.388 148.881 345.453 148.856 345.493 148.804C345.533 148.752 345.531 148.69 345.486 148.618C345.397 148.419 345.29 148.186 345.165 147.919C345.04 147.653 344.924 147.404 344.818 147.173C344.782 147.101 344.742 147.065 344.697 147.065Z" fill="black"/>
</g>
<defs>
<clipPath id="clip0_5395_1651">
<rect width="560" height="240" fill="white"/>
</clipPath>
<clipPath id="clip1_5395_1651">
<rect width="560" height="240" fill="white"/>
</clipPath>
</defs>
</svg>
