<svg width="1200" height="515" viewBox="0 0 1200 515" fill="none" xmlns="http://www.w3.org/2000/svg">
<g clip-path="url(#clip0_14624_8045)">
<rect width="1200" height="515" fill="url(#paint0_linear_14624_8045)"/>
<g clip-path="url(#clip1_14624_8045)">
<rect width="1200" height="515" fill="url(#paint1_linear_14624_8045)"/>
<path d="M794.496 -399.098C794.496 -399.924 793.826 -400.594 792.999 -400.594C792.173 -400.594 791.503 -399.924 791.503 -399.098L792.999 -399.098L794.496 -399.098ZM791.942 89.4604C792.526 90.0447 793.474 90.0447 794.058 89.4604L803.58 79.938C804.165 79.3536 804.165 78.4062 803.58 77.8219C802.996 77.2376 802.049 77.2376 801.464 77.8219L793 86.2863L784.536 77.8219C783.951 77.2376 783.004 77.2376 782.42 77.8219C781.835 78.4062 781.835 79.3537 782.42 79.938L791.942 89.4604ZM792.999 -399.098L791.503 -399.098L791.504 88.4023L793 88.4023L794.496 88.4023L794.496 -399.098L792.999 -399.098Z" fill="#F0DF09"/>
<path d="M534.999 -473.862L619.612 -473.862C655.51 -473.862 684.612 -444.761 684.612 -408.862L684.612 -199C684.612 -163.102 713.713 -134 749.612 -134L816 -134C851.899 -134 881 -104.899 881 -69L881 108.5C881 144.399 910.102 173.5 946 173.5L1208 173.5" stroke="#F0DF09" stroke-width="2.9926"/>
<path d="M603 749.902L782.688 749.902C818.586 749.902 847.688 720.801 847.688 684.902L847.688 496.402C847.688 460.504 876.789 431.402 912.688 431.402L985 431.402C1020.9 431.402 1050 402.301 1050 366.402L1050 -148.098" stroke="#F0DF09" stroke-width="2.9926"/>
<path d="M372 631.403L372 512.5C372 476.602 342.898 447.5 307 447.5L166 447.501C130.102 447.501 101 418.399 101 382.501L101 149.965C101 114.066 130.102 84.9648 166 84.9648L483.244 84.9649C519.142 84.9649 548.244 55.8634 548.244 19.9649L548.244 -373.097C548.244 -408.996 577.345 -438.097 613.244 -438.097L793 -438.097" stroke="#F0DF09" stroke-width="2.9926"/>
<rect x="92.9619" y="245.866" width="16.0762" height="38.0762" rx="8.0381" fill="#D4C50B" stroke="#F0DF09" stroke-width="1.92382"/>
<path d="M1115.4 127.28C1114.71 127.28 1114.15 127.075 1113.72 126.664C1113.31 126.253 1113.1 125.721 1113.1 125.068C1113.1 124.377 1113.31 123.817 1113.72 123.388C1114.15 122.959 1114.71 122.744 1115.4 122.744C1116.09 122.744 1116.64 122.959 1117.05 123.388C1117.48 123.817 1117.7 124.377 1117.7 125.068C1117.7 125.721 1117.48 126.253 1117.05 126.664C1116.64 127.075 1116.09 127.28 1115.4 127.28ZM1128.75 124.116L1126.81 122.744L1128.63 120.14C1128.88 119.804 1129.2 119.393 1129.61 118.908C1130.04 118.423 1130.44 117.993 1130.82 117.62C1130.29 117.545 1129.74 117.433 1129.17 117.284C1128.59 117.135 1128.13 116.995 1127.79 116.864L1124.8 115.744L1125.58 113.532L1128.61 114.652C1128.92 114.764 1129.34 114.941 1129.87 115.184C1130.39 115.427 1130.86 115.679 1131.29 115.94C1131.2 115.455 1131.13 114.96 1131.07 114.456C1131.03 113.933 1131.01 113.495 1131.01 113.14V109.64H1133.37V113.14C1133.37 113.495 1133.34 113.933 1133.28 114.456C1133.23 114.96 1133.15 115.455 1133.06 115.94C1133.51 115.679 1133.98 115.427 1134.49 115.184C1135.01 114.941 1135.44 114.764 1135.77 114.652L1138.8 113.532L1139.58 115.744L1136.59 116.864C1136.25 116.995 1135.79 117.135 1135.21 117.284C1134.63 117.433 1134.08 117.545 1133.56 117.62C1133.93 117.993 1134.34 118.432 1134.77 118.936C1135.19 119.421 1135.52 119.823 1135.75 120.14L1137.57 122.744L1135.63 124.116L1133.81 121.484C1133.59 121.167 1133.32 120.728 1133 120.168C1132.68 119.608 1132.41 119.085 1132.19 118.6C1131.97 119.085 1131.69 119.608 1131.38 120.168C1131.06 120.709 1130.79 121.148 1130.57 121.484L1128.75 124.116Z" fill="#F3E223"/>
<path d="M548.493 881.278C548.493 882.104 549.163 882.774 549.989 882.774C550.815 882.774 551.485 882.104 551.485 881.278L549.989 881.278L548.493 881.278ZM551.046 392.72C550.462 392.135 549.515 392.135 548.93 392.72L539.408 402.242C538.823 402.827 538.823 403.774 539.408 404.358C539.992 404.943 540.94 404.943 541.524 404.358L549.988 395.894L558.453 404.358C559.037 404.943 559.984 404.943 560.569 404.358C561.153 403.774 561.153 402.827 560.569 402.242L551.046 392.72ZM549.989 881.278L551.485 881.278L551.485 393.778L549.988 393.778L548.492 393.778L548.493 881.278L549.989 881.278Z" fill="#F0DF09"/>
</g>
<circle cx="556.5" cy="190.5" r="60.5" fill="#FFFCC2" stroke="#978C00" stroke-width="3.21" stroke-miterlimit="10"/>
<path d="M556.207 176.949L544.643 183.626V196.979L556.207 203.656L567.771 196.979V183.626L556.207 176.949Z" fill="#978C00"/>
<path d="M581.45 174.728C581.065 175.395 581.546 176.228 582.316 176.228H592.152C592.922 176.228 593.403 175.395 593.018 174.728L588.099 166.211C587.714 165.545 586.752 165.545 586.367 166.211L581.45 174.728Z" fill="#FFFCC2" stroke="#978C00" stroke-width="3.21" stroke-miterlimit="10"/>
<path d="M582.316 204.375C581.546 204.375 581.065 205.208 581.45 205.874L586.367 214.394C586.752 215.061 587.714 215.061 588.099 214.394L593.019 205.875C593.404 205.208 592.922 204.375 592.153 204.375H582.316Z" fill="#FFFCC2" stroke="#978C00" stroke-width="3.21" stroke-miterlimit="10"/>
<path d="M550.419 228.466C550.034 229.132 550.515 229.966 551.285 229.966H561.121C561.891 229.966 562.372 229.132 561.987 228.466L557.07 219.949C556.685 219.282 555.723 219.282 555.338 219.948L550.419 228.466Z" fill="#FFFCC2" stroke="#978C00" stroke-width="3.21" stroke-miterlimit="10"/>
<path d="M520.261 204.375C519.491 204.375 519.01 205.208 519.395 205.874L524.312 214.394C524.697 215.061 525.659 215.061 526.044 214.394L530.964 205.875C531.349 205.208 530.868 204.375 530.098 204.375H520.261Z" fill="#FFFCC2" stroke="#978C00" stroke-width="3.21" stroke-miterlimit="10"/>
<path d="M519.395 174.728C519.01 175.395 519.492 176.228 520.261 176.228H530.098C530.868 176.228 531.349 175.395 530.964 174.728L526.044 166.211C525.659 165.545 524.697 165.545 524.312 166.211L519.395 174.728Z" fill="#FFFCC2" stroke="#978C00" stroke-width="3.21" stroke-miterlimit="10"/>
<path d="M551.285 150.637C550.515 150.637 550.034 151.471 550.419 152.137L555.338 160.657C555.723 161.323 556.685 161.323 557.07 160.657L561.988 152.137C562.372 151.47 561.891 150.637 561.122 150.637H551.285Z" fill="#FFFCC2" stroke="#978C00" stroke-width="3.21" stroke-miterlimit="10"/>
<path d="M568.895 152.894L561.178 166.261L574.545 173.979L582.263 160.612L568.895 152.894Z" fill="#FFF100" stroke="#978C00" stroke-width="3.50184" stroke-miterlimit="10"/>
<path d="M594.945 182.585H579.51V198.021H594.945V182.585Z" fill="#FFF100" stroke="#978C00" stroke-width="3.50184" stroke-miterlimit="10"/>
<path d="M574.545 206.625L561.178 214.342L568.895 227.71L582.263 219.992L574.545 206.625Z" fill="#FFF100" stroke="#978C00" stroke-width="3.50184" stroke-miterlimit="10"/>
<path d="M537.866 206.627L530.148 219.995L543.516 227.712L551.234 214.345L537.866 206.627Z" fill="#FFF100" stroke="#978C00" stroke-width="3.50184" stroke-miterlimit="10"/>
<path d="M532.898 182.583H517.463V198.018H532.898V182.583Z" fill="#FFF100" stroke="#978C00" stroke-width="3.50184" stroke-miterlimit="10"/>
<path d="M543.512 152.888L530.145 160.606L537.862 173.973L551.23 166.255L543.512 152.888Z" fill="#FFF100" stroke="#978C00" stroke-width="3.50184" stroke-miterlimit="10"/>
<path d="M666.125 386.212C666.117 385.971 666.023 385.741 665.86 385.564L631.99 348.877C631.921 348.802 631.84 348.738 631.751 348.687L534.622 293.168C534.574 293.141 534.525 293.117 534.474 293.098L449.348 261.5C448.695 261.258 448 261.741 448 262.438V273.252C448 273.33 448.009 273.407 448.027 273.483L462.253 333.4C462.408 334.051 463.147 334.37 463.727 334.035L482.032 323.454C482.34 323.276 482.719 323.275 483.028 323.452L575.982 376.585C576.909 377.115 576.472 378.534 575.407 378.45L562.39 377.416C561.808 377.37 561.311 377.83 561.311 378.413V389.55C561.311 390.074 561.715 390.509 562.237 390.547L665.392 398.132C665.984 398.176 666.484 397.697 666.465 397.104L666.125 386.212Z" fill="#978C00" stroke="#978C00" stroke-width="3.21" stroke-miterlimit="10"/>
<path d="M652.101 326.426C651.947 325.773 651.207 325.454 650.627 325.791L632.384 336.367C632.076 336.546 631.695 336.547 631.385 336.369L536.056 281.69C535.388 281.307 535.386 280.343 536.053 279.957L551.843 270.822C552.694 270.33 552.399 269.035 551.419 268.959L449.365 261.105C448.69 261.053 448.159 261.673 448.315 262.332L462.254 321.24C462.408 321.893 463.148 322.211 463.728 321.875L482.03 311.26C482.339 311.081 482.72 311.08 483.03 311.257L578.359 365.936C579.027 366.32 579.029 367.283 578.362 367.669L562.511 376.844C561.66 377.336 561.955 378.631 562.935 378.706L664.971 386.561C665.646 386.613 666.176 385.993 666.021 385.334L652.101 326.426Z" fill="#FFFCC2" stroke="#978C00" stroke-width="3.21" stroke-miterlimit="10"/>
<path d="M613.658 184.584H719.582C721.795 184.584 723.582 186.367 723.582 188.573V346.967C723.582 349.174 721.795 350.531 719.582 350.531L593.299 350.531V324.391L592.861 204.956L613.658 184.584Z" fill="#FFF100" stroke="#978C00" stroke-width="3.21" stroke-miterlimit="10" stroke-linecap="round"/>
<path d="M587.005 339.072H709.916C712.132 339.072 713.922 337.282 713.922 335.066V176.006C713.922 173.79 712.132 172 709.916 172H609.712L609.286 172.426L583.437 198.238V198.676L582.999 335.054C582.999 337.27 584.789 339.072 587.005 339.072Z" fill="#FFFCC2" stroke="#978C00" stroke-width="3.21" stroke-miterlimit="10"/>
<path d="M583.437 198.238V198.677H606.083C607.848 198.677 609.285 197.24 609.285 195.474V172.779C609.285 172.645 609.127 172.584 609.029 172.67L583.437 198.226V198.238Z" fill="#FFF100" stroke="#978C00" stroke-width="3.21" stroke-miterlimit="10"/>
<path fill-rule="evenodd" clip-rule="evenodd" d="M683.794 273.861L650.511 216.954C649.767 215.682 647.928 215.682 647.184 216.954L618.898 265.315C618.401 266.166 619.299 267.148 620.19 266.73C620.594 266.54 621.434 266.23 621.434 266.23C621.434 266.23 622.206 265.93 623.512 265.517C624.952 265.075 626.529 264.656 627.956 264.302C631.951 263.38 637.186 262.629 641.906 263.413C646.25 264.134 649.276 265.299 651.479 266.443C652.489 266.969 653.444 265.65 652.627 264.856C649.468 261.786 644.606 258.079 637.213 256.526C636.889 256.458 636.726 256.093 636.894 255.808L648.029 236.768C648.396 236.143 649.299 236.143 649.665 236.768L670.932 273.13C671.38 273.896 671.005 274.874 670.164 275.156C668.497 275.713 666.506 276.129 664.278 276.129C662.86 276.129 661.434 275.962 660.004 275.63C660.004 275.63 655.883 274.979 650.374 271.693C644.866 268.407 634.245 264.215 622.327 271.001C617.249 274.265 613.865 278.728 612.083 281.53C611.803 281.968 612.285 282.491 612.744 282.246C616.839 280.059 627.879 274.892 637.828 276.75C643.741 277.853 650.499 282.317 657.523 284.877C669.144 289.183 680.537 281.969 680.561 281.953C681.766 281.157 682.473 280.552 682.593 280.447L682.739 280.321C684.596 278.7 685.039 275.988 683.794 273.861Z" fill="#FFF100" stroke="#978C00" stroke-width="3.50184" stroke-miterlimit="10"/>
<path d="M703.721 316.283L683.267 323.798C683 323.887 682.736 323.649 682.825 323.371L689.564 302.766C689.564 302.766 689.598 302.757 689.615 302.752L703.737 316.206C703.737 316.206 703.746 316.24 703.729 316.244L703.721 316.283Z" fill="#FFFCC2" stroke="#978C00" stroke-width="3.50184" stroke-miterlimit="10"/>
<path d="M745.996 271.734L731.256 257.931L689.979 302.01C689.739 302.266 689.752 302.663 690.008 302.903L703.826 315.842C704.082 316.082 704.479 316.069 704.719 315.813L745.996 271.734Z" fill="#FFF100" stroke="#978C00" stroke-width="3.50184" stroke-miterlimit="10"/>
<path d="M754.001 252.647L749.775 248.689C746.868 245.967 742.306 246.117 739.583 249.024L731.249 257.924L745.989 271.727L754.323 262.827C757.045 259.92 756.896 255.357 753.989 252.635L754.001 252.647Z" fill="#FFFCC2" stroke="#978C00" stroke-width="3.50184" stroke-miterlimit="10"/>
</g>
<defs>
<linearGradient id="paint0_linear_14624_8045" x1="589" y1="-26.5" x2="587" y2="627" gradientUnits="userSpaceOnUse">
<stop stop-color="#FDEF00"/>
<stop offset="0.938633" stop-color="#FFFAA3"/>
</linearGradient>
<linearGradient id="paint1_linear_14624_8045" x1="589" y1="-26.5" x2="587" y2="627" gradientUnits="userSpaceOnUse">
<stop stop-color="#FDEF00"/>
<stop offset="0.938633" stop-color="#FFFAA3"/>
</linearGradient>
<clipPath id="clip0_14624_8045">
<rect width="1200" height="515" fill="white"/>
</clipPath>
<clipPath id="clip1_14624_8045">
<rect width="1200" height="515" fill="white"/>
</clipPath>
</defs>
</svg>
