<svg width="560" height="240" viewBox="0 0 560 240" fill="none" xmlns="http://www.w3.org/2000/svg">
<g clip-path="url(#clip0_5583_1205)">
<rect width="560" height="240" fill="#FFF100"/>
<g clip-path="url(#clip1_5583_1205)">
<rect width="560" height="240" fill="#FFF100"/>
<path d="M-137 100L9.61491 100L67 100C78.0457 100 87 108.954 87 120L87 340C87 351.046 78.0457 360 67 360L-137 360C-148.046 360 -157 351.046 -157 340L-157 120C-157 108.954 -148.046 100 -137 100Z" fill="#FFF100"/>
<path d="M231 21.9441L231 -24C231 -35.0457 222.046 -44 211 -44L-11 -44C-22.0457 -44 -31 -35.0457 -31 -24L-31 191C-31 202.046 -22.0457 211 -11 211L76.5 211C87.5457 211 96.5 202.046 96.5 191L96.5 61.9441C96.5 50.8984 105.454 41.9441 116.5 41.9441L211 41.9441C222.046 41.9441 231 32.9898 231 21.9441Z" fill="#EDDE00"/>
<path d="M423.479 197.576L289 197.576C277.954 197.576 269 206.53 269 217.576L269 256C269 267.046 277.954 276 289 276L611.5 276C622.546 276 631.5 267.046 631.5 256L631.5 -28C631.5 -39.0457 622.546 -48 611.5 -48L504.424 -48C493.378 -48 484.424 -39.0457 484.424 -28L484.424 58.5088C484.424 69.5545 475.47 78.5088 464.424 78.5088L463.479 78.5088C452.433 78.5088 443.479 87.4631 443.479 98.5088L443.479 177.576C443.479 188.622 434.525 197.576 423.479 197.576Z" fill="#EDDE00"/>
<path d="M514 114C502.954 114 494 122.954 494 134V294C494 305.046 502.954 314 514 314H612C623.046 314 632 305.046 632 294L632 134C632 122.954 623.046 114 612 114L514 114Z" fill="#FFF100"/>
</g>
<path d="M235.5 153.5C216.967 153.5 202 138.533 202 120C202 101.467 216.967 86.5 235.5 86.5C254.033 86.5 269 101.467 269 120C269 138.533 254.033 153.5 235.5 153.5Z" fill="black"/>
<path d="M253.412 115.031H246.84V124.949H253.412C256.137 124.949 258.401 122.684 258.401 119.96C258.401 117.215 256.137 115.031 253.412 115.031Z" fill="#FFF100"/>
<path d="M214.641 120C214.641 127.654 220.872 133.885 228.526 133.885C236.18 133.885 242.411 127.654 242.411 120C242.411 112.346 236.18 106.115 228.526 106.115C220.872 106.115 214.641 112.346 214.641 120Z" fill="#FFF100"/>
<g style="mix-blend-mode:multiply" clip-path="url(#clip2_5583_1205)">
<g style="mix-blend-mode:multiply">
<path d="M354.998 90.6618C356.495 92.1085 357.475 94.0181 357.705 96.1013C357.705 96.9692 357.475 97.5479 356.956 98.6474C356.438 99.7468 350.044 110.857 348.144 113.924C347.049 115.718 346.473 117.859 346.473 119.942C346.473 122.083 347.049 124.166 348.144 125.96C350.044 129.027 356.438 140.195 356.956 141.295C357.475 142.394 357.705 142.915 357.705 143.783C357.475 145.866 356.553 147.776 355.055 149.165C353.615 150.669 351.715 151.653 349.699 151.826C348.835 151.826 348.259 151.595 347.222 151.074C346.185 150.553 334.896 144.304 331.843 142.394C331.612 142.278 331.382 142.105 331.094 141.989L316.003 133.02C316.349 135.913 317.616 138.691 319.689 140.716C320.093 141.121 320.496 141.468 320.957 141.816C320.611 141.989 320.208 142.163 319.862 142.394C316.809 144.304 305.693 150.727 304.598 151.248C303.504 151.769 302.986 152 302.064 152C299.99 151.769 298.09 150.843 296.707 149.338C295.21 147.891 294.23 145.982 294 143.899C294.058 143.031 294.288 142.163 294.749 141.41C295.267 140.311 301.661 129.143 303.561 126.076C304.656 124.282 305.232 122.199 305.232 120.058C305.232 117.917 304.656 115.834 303.561 114.04C301.661 110.857 295.21 99.689 294.749 98.5895C294.288 97.8372 294.058 96.9692 294 96.1013C294.23 94.0181 295.152 92.1085 296.65 90.6618C298.09 89.1573 299.99 88.2315 302.064 88C302.928 88.0579 303.792 88.2893 304.598 88.7523C305.52 89.1573 313.641 93.9024 317.961 96.4485L318.941 97.0271C319.286 97.2586 319.574 97.4322 319.805 97.5479L320.265 97.8372L335.644 106.98C335.299 103.508 333.513 100.325 330.748 98.1845C331.094 98.0109 331.497 97.8372 331.843 97.6058C334.896 95.6962 346.012 89.2152 347.107 88.7523C347.856 88.2893 348.72 88.0579 349.641 88C351.657 88.2315 353.558 89.1573 354.998 90.6618ZM326.659 124.109L329.942 120.81C330.403 120.347 330.403 119.653 329.942 119.19L326.659 115.891C326.198 115.429 325.507 115.429 325.046 115.891L321.763 119.19C321.302 119.653 321.302 120.347 321.763 120.81L325.046 124.109C325.449 124.514 326.198 124.514 326.659 124.109Z" fill="#737373"/>
</g>
</g>
</g>
<defs>
<clipPath id="clip0_5583_1205">
<rect width="560" height="240" fill="white"/>
</clipPath>
<clipPath id="clip1_5583_1205">
<rect width="560" height="240" fill="white"/>
</clipPath>
<clipPath id="clip2_5583_1205">
<rect width="64" height="64" fill="white" transform="translate(294 88)"/>
</clipPath>
</defs>
</svg>
