<svg width="560" height="240" viewBox="0 0 560 240" fill="none" xmlns="http://www.w3.org/2000/svg">
<g clip-path="url(#clip0_5543_1464)">
<rect width="560" height="240" fill="#FFF100"/>
<g clip-path="url(#clip1_5543_1464)">
<rect width="560" height="240" fill="#FFF100"/>
<path d="M224 49.847L224 -0.999985C224 -12.0457 215.046 -21 204 -21L-26 -21C-37.0457 -21 -46 -12.0457 -46 -1.00001L-46 175C-46 186.046 -37.0457 195 -26 195L52.5714 195C63.6171 195 72.5714 186.046 72.5714 175L72.5714 89.8471C72.5714 78.8014 81.5257 69.8471 92.5714 69.8471L204 69.8471C215.046 69.8471 224 60.8927 224 49.847Z" fill="#EDDE00"/>
<path d="M472.584 123.352L505.5 123.352C516.546 123.352 525.5 114.397 525.5 103.352L525.5 66.9999C525.5 55.9542 516.546 46.9999 505.5 46.9999L454.5 46.9999C443.454 46.9999 434.5 38.0456 434.5 26.9999L434.5 -34.0001C434.5 -45.0458 443.454 -54.0001 454.5 -54.0001L583 -54.0001C594.046 -54.0001 603 -45.0457 603 -34.0001L603 241.5C603 252.546 594.046 261.5 583 261.5L335 261.5C323.954 261.5 315 252.546 315 241.5L315 206.5C315 195.454 323.954 186.5 335 186.5L432.584 186.5C443.629 186.5 452.584 177.546 452.584 166.5L452.584 143.352C452.584 132.306 461.538 123.352 472.584 123.352Z" fill="#EDDE00"/>
</g>
<path d="M216.5 153.5C197.967 153.5 183 138.533 183 120C183 101.467 197.967 86.5 216.5 86.5C235.033 86.5 250 101.467 250 120C250 138.533 235.033 153.5 216.5 153.5Z" fill="black"/>
<path d="M234.413 115.031H227.841V124.948H234.413C237.137 124.948 239.402 122.684 239.402 119.959C239.402 117.214 237.137 115.031 234.413 115.031Z" fill="#FFF100"/>
<path d="M195.642 120C195.642 127.654 201.873 133.885 209.526 133.885C217.18 133.885 223.411 127.654 223.411 120C223.411 112.346 217.18 106.115 209.526 106.115C201.873 106.115 195.642 112.346 195.642 120Z" fill="#FFF100"/>
<g style="mix-blend-mode:multiply" clip-path="url(#clip2_5543_1464)">
<path d="M326.158 125.385L311.043 117.374L284.807 103.469C284.783 103.445 284.735 103.445 284.711 103.445C283.753 102.989 282.771 103.95 283.131 104.91L296.499 139.1L296.501 139.107C296.516 139.141 296.528 139.175 296.542 139.208C297.09 140.483 298.288 141.271 299.591 141.581C299.701 141.605 299.78 141.627 299.912 141.653C300.044 141.682 300.228 141.722 300.386 141.735C300.412 141.737 300.436 141.737 300.462 141.739H300.482C300.501 141.742 300.52 141.742 300.539 141.744H300.566C300.582 141.747 300.602 141.747 300.618 141.747H300.649C300.668 141.749 300.688 141.749 300.707 141.749C317.637 143.6 334.718 143.6 351.649 141.749C351.853 141.749 352.052 141.739 352.243 141.72C352.305 141.713 352.365 141.706 352.425 141.699C352.432 141.696 352.442 141.696 352.449 141.694C352.49 141.689 352.531 141.682 352.571 141.675C352.631 141.667 352.691 141.655 352.751 141.643C352.871 141.617 352.925 141.598 353.088 141.542C353.25 141.486 353.52 141.388 353.689 141.306C353.857 141.224 353.975 141.146 354.116 141.057C354.291 140.947 354.457 140.834 354.626 140.707C354.698 140.651 354.748 140.616 354.801 140.565L354.772 140.548L326.158 125.385Z" fill="#808495"/>
<path d="M367.552 103.47H367.528L341.282 117.374L355.872 139.163L369.207 104.911V104.862C369.542 103.854 368.512 102.941 367.552 103.47Z" fill="#262730"/>
<path d="M327.557 96.8582C326.887 95.8761 325.426 95.8761 324.779 96.8582L311.044 117.374L326.158 125.385L354.802 140.565C354.982 140.389 355.126 140.216 355.278 140.035C355.494 139.768 355.695 139.482 355.872 139.163L341.283 117.374L327.557 96.8582Z" fill="#555867"/>
</g>
</g>
<defs>
<clipPath id="clip0_5543_1464">
<rect width="560" height="240" fill="white"/>
</clipPath>
<clipPath id="clip1_5543_1464">
<rect width="560" height="240" fill="white"/>
</clipPath>
<clipPath id="clip2_5543_1464">
<rect width="102" height="117" fill="white" transform="translate(275 61.5)"/>
</clipPath>
</defs>
</svg>
