<svg width="1200" height="627" viewBox="0 0 1200 627" fill="none" xmlns="http://www.w3.org/2000/svg">
<g clip-path="url(#clip0_13424_6955)">
<g clip-path="url(#clip1_13424_6955)">
<rect width="1200" height="627" fill="url(#paint0_linear_13424_6955)"/>
<path d="M396.558 400.057C397.142 399.473 397.142 398.526 396.558 397.941L387.036 388.419C386.451 387.835 385.504 387.835 384.92 388.419C384.335 389.003 384.335 389.951 384.92 390.535L393.384 398.999L384.92 407.464C384.335 408.048 384.335 408.996 384.92 409.58C385.504 410.164 386.451 410.164 387.036 409.58L396.558 400.057ZM395.5 398.999L395.5 397.503L-81 397.503L-81 398.999L-81 400.496L395.5 400.496L395.5 398.999Z" fill="#F0DF09"/>
<path d="M1052.56 237.559C1053.14 236.975 1053.14 236.028 1052.56 235.443L1043.04 225.921C1042.45 225.336 1041.5 225.336 1040.92 225.921C1040.34 226.505 1040.34 227.453 1040.92 228.037L1049.38 236.501L1040.92 244.966C1040.34 245.55 1040.34 246.497 1040.92 247.082C1041.5 247.666 1042.45 247.666 1043.04 247.082L1052.56 237.559ZM1051.5 236.501V235.005H765.5V236.501V237.998H1051.5V236.501ZM710.5 291.501H709.004L709.004 355.499L710.5 355.499H711.996L711.996 291.501H710.5ZM765.5 410.499V411.995H1272.24V410.499V409.002H765.5V410.499ZM1327.24 465.499H1325.75V728.999H1327.24H1328.74V465.499H1327.24ZM1382.24 783.999V785.495H1572V783.999V782.502H1382.24V783.999ZM1327.24 728.999H1325.75C1325.75 760.201 1351.04 785.495 1382.24 785.495V783.999V782.502C1352.69 782.502 1328.74 758.548 1328.74 728.999H1327.24ZM1272.24 410.499V411.995C1301.79 411.995 1325.75 435.949 1325.75 465.499H1327.24H1328.74C1328.74 434.297 1303.45 409.002 1272.24 409.002V410.499ZM710.5 355.499L709.004 355.499C709.004 386.701 734.298 411.995 765.5 411.995V410.499V409.002C735.951 409.002 711.996 385.048 711.996 355.499H710.5ZM765.5 236.501V235.005C734.298 235.005 709.004 260.299 709.004 291.501H710.5H711.996C711.996 261.952 735.951 237.998 765.5 237.998V236.501Z" fill="#F0DF09"/>
<path d="M1102.34 636.001L1102.34 -45.8858C1102.34 -76.2615 1126.96 -100.886 1157.34 -100.886L1292.23 -100.886C1322.61 -100.886 1347.23 -76.2615 1347.23 -45.8858L1347.23 252.489C1347.23 282.865 1371.86 307.489 1402.23 307.489L1960.51 307.489C1990.89 307.489 2015.51 332.114 2015.51 362.489L2015.51 505.489" stroke="#F0DF09" stroke-width="2.9926"/>
<rect x="1079.96" y="73.9624" width="45.0762" height="90.0762" rx="22.5381" fill="#D4C50B" stroke="#F0DF09" stroke-width="1.92382"/>
<path d="M555.721 350.942C555.137 350.358 554.19 350.358 553.605 350.942L544.083 360.464C543.499 361.049 543.499 361.996 544.083 362.58C544.667 363.165 545.615 363.165 546.199 362.58L554.663 354.116L563.128 362.58C563.712 363.165 564.659 363.165 565.244 362.58C565.828 361.996 565.828 361.049 565.244 360.464L555.721 350.942ZM134.294 299.5L134.294 300.996L134.294 299.5ZM189.294 354.5L187.797 354.5L187.798 447L189.294 447L190.79 447L190.79 354.5L189.294 354.5ZM244.294 502L244.294 503.496L499.663 503.496L499.663 502L499.663 500.504L244.294 500.503L244.294 502ZM554.663 447L556.16 447L556.16 352L554.663 352L553.167 352L553.167 447L554.663 447ZM134.294 299.5L134.294 298.004L-13 298.004L-13 299.5L-13 300.996L134.294 300.996L134.294 299.5ZM499.663 502L499.663 503.496C530.865 503.496 556.16 478.202 556.16 447L554.663 447L553.167 447C553.167 476.549 529.213 500.504 499.663 500.504L499.663 502ZM189.294 447L187.798 447C187.798 478.202 213.092 503.496 244.294 503.496L244.294 502L244.294 500.503C214.745 500.503 190.79 476.549 190.79 447L189.294 447ZM189.294 354.5L190.79 354.5C190.79 323.298 165.495 298.004 134.294 298.004L134.294 299.5L134.294 300.996C163.843 300.996 187.797 324.951 187.797 354.5L189.294 354.5Z" fill="#F0DF09"/>
<path d="M650.72 -185.493C650.136 -186.077 649.188 -186.077 648.604 -185.493L639.082 -175.97C638.497 -175.386 638.497 -174.439 639.082 -173.854C639.666 -173.27 640.613 -173.27 641.198 -173.854L649.662 -182.319L658.126 -173.854C658.711 -173.27 659.658 -173.27 660.243 -173.854C660.827 -174.439 660.827 -175.386 660.243 -175.97L650.72 -185.493ZM235.803 -166L234.306 -166L235.803 -166ZM180.803 -221L180.803 -219.504L180.803 -221ZM235.803 -166L234.306 -166L234.307 4.99963L235.803 4.99963L237.299 4.99962L237.299 -166L235.803 -166ZM290.803 59.9996L290.803 61.4959L594.662 61.4962L594.662 59.9999L594.662 58.5036L290.803 58.5033L290.803 59.9996ZM649.662 4.99991L651.158 4.99991L651.158 -184.435L649.662 -184.435L648.166 -184.435L648.166 4.99991L649.662 4.99991ZM180.803 -221L180.803 -222.496L6.6621 -222.496L6.6621 -221L6.6621 -219.504L180.803 -219.504L180.803 -221ZM594.662 59.9999L594.662 61.4962C625.864 61.4962 651.158 36.202 651.158 4.99991L649.662 4.99991L648.166 4.99991C648.166 34.5492 624.211 58.5036 594.662 58.5036L594.662 59.9999ZM235.803 4.99963L234.307 4.99963C234.307 36.2016 259.601 61.4959 290.803 61.4959L290.803 59.9996L290.803 58.5033C261.254 58.5033 237.299 34.5489 237.299 4.99962L235.803 4.99963ZM235.803 -166L237.299 -166C237.299 -197.202 212.005 -222.496 180.803 -222.496L180.803 -221L180.803 -219.504C210.352 -219.504 234.306 -195.549 234.306 -166L235.803 -166Z" fill="#F0DF09"/>
<path d="M465.999 1107L465.999 881.5C465.999 851.125 490.624 826.5 520.999 826.5L552.338 826.5C582.713 826.5 607.338 801.876 607.338 771.5L607.338 521.499C607.338 491.123 631.962 466.499 662.338 466.499L944 466.499C974.376 466.499 999 441.875 999 411.499L999 -71.0018C999 -101.378 1023.62 -126.002 1054 -126.002L1175 -126.001" stroke="#F0DF09" stroke-width="2.9926"/>
<rect x="67.9619" y="412.038" width="27.0762" height="56.0762" rx="13.5381" transform="rotate(-90 67.9619 412.038)" fill="#D4C50B" stroke="#F0DF09" stroke-width="1.92382"/>
<path d="M456.016 228V207.56H459.74L462.344 216.408L465.06 207.56H468.784V228H466.348V218.34C466.348 217.425 466.357 216.38 466.376 215.204C466.413 214.009 466.46 212.805 466.516 211.592C466.572 210.379 466.637 209.287 466.712 208.316L463.408 218.872H461.224L458.06 208.568C458.209 209.949 458.312 211.461 458.368 213.104C458.424 214.747 458.452 216.492 458.452 218.34V228H456.016ZM472.189 228L477.509 207.56H480.897L486.189 228H483.641L482.297 222.568H476.109L474.765 228H472.189ZM476.613 220.44H481.765L480.197 214.14C479.898 212.945 479.665 211.947 479.497 211.144C479.329 210.341 479.226 209.819 479.189 209.576C479.152 209.819 479.049 210.341 478.881 211.144C478.713 211.947 478.48 212.936 478.181 214.112L476.613 220.44ZM488.978 228L494.298 207.56H497.686L502.978 228H500.43L499.086 222.568H492.898L491.554 228H488.978ZM493.402 220.44H498.554L496.986 214.14C496.687 212.945 496.454 211.947 496.286 211.144C496.118 210.341 496.015 209.819 495.978 209.576C495.941 209.819 495.838 210.341 495.67 211.144C495.502 211.947 495.269 212.936 494.97 214.112L493.402 220.44ZM506.943 228V207.56H509.463V216.352H512.487L517.023 207.56H519.767L514.699 217.416L520.047 228H517.163L512.403 218.564H509.463V228H506.943ZM545.085 228V209.856H539.485V207.56H553.205V209.856H547.605V228H545.085ZM556.134 228L561.454 207.56H564.842L570.134 228H567.586L566.242 222.568H560.054L558.71 228H556.134ZM560.558 220.44H565.71L564.142 214.14C563.844 212.945 563.61 211.947 563.442 211.144C563.274 210.341 563.172 209.819 563.134 209.576C563.097 209.819 562.994 210.341 562.826 211.144C562.658 211.947 562.425 212.936 562.126 214.112L560.558 220.44ZM574.127 228V207.56H579.923C581.79 207.56 583.246 208.027 584.291 208.96C585.355 209.893 585.887 211.191 585.887 212.852C585.887 213.897 585.551 214.84 584.879 215.68C584.226 216.52 583.367 217.043 582.303 217.248V217.332C583.106 217.425 583.806 217.705 584.403 218.172C585.019 218.639 585.495 219.236 585.831 219.964C586.186 220.673 586.363 221.457 586.363 222.316C586.363 224.071 585.822 225.461 584.739 226.488C583.675 227.496 582.21 228 580.343 228H574.127ZM576.591 216.268H579.895C580.978 216.268 581.827 215.979 582.443 215.4C583.078 214.821 583.395 214.037 583.395 213.048C583.395 212.059 583.087 211.275 582.471 210.696C581.855 210.117 581.006 209.828 579.923 209.828H576.591V216.268ZM576.591 225.732H580.063C581.239 225.732 582.163 225.424 582.835 224.808C583.526 224.173 583.871 223.315 583.871 222.232C583.871 221.112 583.526 220.207 582.835 219.516C582.163 218.807 581.239 218.452 580.063 218.452H576.591V225.732ZM591.113 228V207.56H602.873V209.856H593.605V216.184H601.893V218.424H593.605V225.704H602.873V228H591.113ZM608.742 228V207.56H611.262V225.704H620.502V228H608.742Z" fill="#F3E223"/>
<path d="M740.14 70V51.856H734.54V49.56H748.26V51.856H742.66V70H740.14ZM752.589 70V49.56H764.349V51.856H755.081V58.184H763.369V60.424H755.081V67.704H764.349V70H752.589ZM769.154 70V49.56H771.674V58.352H774.698L779.234 49.56H781.978L776.91 59.416L782.258 70H779.374L774.614 60.564H771.674V70H769.154ZM791.879 70.28C789.901 70.28 788.323 69.7573 787.147 68.712C785.971 67.6667 785.383 66.2293 785.383 64.4H787.903C787.903 65.5387 788.267 66.4347 788.995 67.088C789.723 67.7227 790.685 68.04 791.879 68.04C793.037 68.04 793.961 67.704 794.651 67.032C795.342 66.36 795.687 65.4827 795.687 64.4C795.687 63.5787 795.463 62.8693 795.015 62.272C794.586 61.656 793.961 61.236 793.139 61.012L790.031 60.144C788.743 59.7707 787.726 59.108 786.979 58.156C786.251 57.1853 785.887 56.0467 785.887 54.74C785.887 53.6573 786.13 52.7053 786.615 51.884C787.101 51.0627 787.782 50.428 788.659 49.98C789.537 49.5133 790.545 49.28 791.683 49.28C792.841 49.28 793.858 49.5133 794.735 49.98C795.631 50.428 796.331 51.0627 796.835 51.884C797.339 52.6867 797.591 53.62 797.591 54.684H795.071C795.071 53.7507 794.754 52.9947 794.119 52.416C793.485 51.8187 792.673 51.52 791.683 51.52C790.694 51.52 789.891 51.8187 789.275 52.416C788.659 52.9947 788.351 53.7507 788.351 54.684C788.351 55.4307 788.547 56.0747 788.939 56.616C789.35 57.1387 789.919 57.5027 790.647 57.708L793.839 58.604C795.202 58.9773 796.257 59.6867 797.003 60.732C797.769 61.7587 798.151 62.9813 798.151 64.4C798.151 66.192 797.582 67.62 796.443 68.684C795.305 69.748 793.783 70.28 791.879 70.28ZM807.296 70V51.856H801.696V49.56H815.416V51.856H809.816V70H807.296Z" fill="#F3E223"/>
<path d="M235.996 335L233.56 314.56H235.884L237.48 329.68C237.555 330.296 237.611 330.94 237.648 331.612C237.685 332.265 237.713 332.788 237.732 333.18C237.769 332.788 237.816 332.265 237.872 331.612C237.947 330.94 238.021 330.296 238.096 329.68L240.112 314.56H242.828L244.676 329.68C244.751 330.296 244.825 330.94 244.9 331.612C244.975 332.265 245.031 332.788 245.068 333.18C245.105 332.788 245.143 332.265 245.18 331.612C245.236 330.94 245.301 330.296 245.376 329.68L247.028 314.56H249.24L246.748 335H243.584L241.736 319.6C241.661 318.965 241.605 318.349 241.568 317.752C241.531 317.136 241.493 316.66 241.456 316.324C241.419 316.66 241.381 317.136 241.344 317.752C241.307 318.349 241.241 318.965 241.148 319.6L239.16 335H235.996ZM251.189 335L256.509 314.56H259.897L265.189 335H262.641L261.297 329.568H255.109L253.765 335H251.189ZM255.613 327.44H260.765L259.197 321.14C258.898 319.945 258.665 318.947 258.497 318.144C258.329 317.341 258.226 316.819 258.189 316.576C258.152 316.819 258.049 317.341 257.881 318.144C257.713 318.947 257.48 319.936 257.181 321.112L255.613 327.44ZM267.978 335L273.298 314.56H276.686L281.978 335H279.43L278.086 329.568H271.898L270.554 335H267.978ZM272.402 327.44H277.554L275.986 321.14C275.687 319.945 275.454 318.947 275.286 318.144C275.118 317.341 275.015 316.819 274.978 316.576C274.941 316.819 274.838 317.341 274.67 318.144C274.502 318.947 274.269 319.936 273.97 321.112L272.402 327.44ZM285.971 335V314.56H292.271C293.485 314.56 294.549 314.812 295.463 315.316C296.378 315.801 297.087 316.483 297.591 317.36C298.095 318.237 298.347 319.264 298.347 320.44C298.347 321.821 297.993 323.007 297.283 323.996C296.574 324.985 295.631 325.676 294.455 326.068L298.627 335H295.855L291.851 326.32H288.463V335H285.971ZM288.463 324.052H292.271C293.317 324.052 294.157 323.725 294.791 323.072C295.426 322.4 295.743 321.523 295.743 320.44C295.743 319.339 295.426 318.461 294.791 317.808C294.157 317.155 293.317 316.828 292.271 316.828H288.463V324.052ZM302.76 335V314.56H308.556C310.423 314.56 311.879 315.027 312.924 315.96C313.988 316.893 314.52 318.191 314.52 319.852C314.52 320.897 314.184 321.84 313.512 322.68C312.859 323.52 312 324.043 310.936 324.248V324.332C311.739 324.425 312.439 324.705 313.036 325.172C313.652 325.639 314.128 326.236 314.464 326.964C314.819 327.673 314.996 328.457 314.996 329.316C314.996 331.071 314.455 332.461 313.372 333.488C312.308 334.496 310.843 335 308.976 335H302.76ZM305.224 323.268H308.528C309.611 323.268 310.46 322.979 311.076 322.4C311.711 321.821 312.028 321.037 312.028 320.048C312.028 319.059 311.72 318.275 311.104 317.696C310.488 317.117 309.639 316.828 308.556 316.828H305.224V323.268ZM305.224 332.732H308.696C309.872 332.732 310.796 332.424 311.468 331.808C312.159 331.173 312.504 330.315 312.504 329.232C312.504 328.112 312.159 327.207 311.468 326.516C310.796 325.807 309.872 325.452 308.696 325.452H305.224V332.732ZM319.885 335V332.704H324.057V316.856H319.885V314.56H330.805V316.856H326.633V332.704H330.805V335H319.885ZM341.294 335.28C339.334 335.28 337.794 334.729 336.674 333.628C335.554 332.527 334.994 331.024 334.994 329.12H337.514C337.514 330.371 337.841 331.341 338.494 332.032C339.166 332.704 340.1 333.04 341.294 333.04C342.489 333.04 343.413 332.704 344.066 332.032C344.738 331.341 345.074 330.371 345.074 329.12V314.56H347.594V329.12C347.594 331.024 347.025 332.527 345.886 333.628C344.766 334.729 343.236 335.28 341.294 335.28Z" fill="#F3E223"/>
</g>
<path d="M110.125 140.775C110.125 124.5 100.45 122.025 90.55 122.025H85.6V159.6H90.55C100.45 159.6 110.125 157.2 110.125 140.775ZM74.875 113.625H91C108.25 113.625 121.225 119.175 121.225 140.775C121.225 162.375 108.25 168 91 168H74.875V113.625ZM152.502 168V162.675C150.177 166.8 145.752 168.975 140.727 168.975C131.052 168.975 127.152 163.05 127.152 153.15V127.65H137.502V150.9C137.502 156.3 138.327 160.65 144.102 160.65C151.002 160.65 152.502 155.025 152.502 148.65V127.65H162.852V168H152.502ZM189.76 126.75C198.235 126.75 206.635 131.475 208.06 141.45H198.16C197.335 137.55 193.735 134.775 189.76 134.775C184.36 134.775 180.085 139.35 180.085 147.75C180.085 156.225 184.135 160.95 189.835 160.95C193.435 160.95 197.11 159.075 198.535 154.275H208.435C206.035 165.3 197.71 168.975 189.31 168.975C177.235 168.975 169.51 160.125 169.51 147.9C169.51 135.6 177.685 126.75 189.76 126.75ZM214.616 113.625H224.966V143.85L239.666 127.65H251.291L236.816 143.1L252.116 168H240.491L229.916 150.525L224.966 155.85V168H214.616V113.625ZM291.692 140.775C291.692 124.5 282.017 122.025 272.117 122.025H267.167V159.6H272.117C282.017 159.6 291.692 157.2 291.692 140.775ZM256.442 113.625H272.567C289.817 113.625 302.792 119.175 302.792 140.775C302.792 162.375 289.817 168 272.567 168H256.442V113.625ZM310.349 168V113.625H331.499C341.024 113.625 351.299 116.625 351.299 127.8C351.299 132.9 347.924 137.475 345.149 139.275C349.349 141.3 353.249 144.45 353.249 151.95C353.249 163.65 343.574 168 332.399 168H310.349ZM321.074 144.15V159.6H332.924C339.224 159.6 342.299 156.975 342.299 151.95C342.299 146.85 339.149 144.15 332.474 144.15H321.074ZM321.074 122.025V136.05H332.174C337.274 136.05 340.274 133.65 340.274 128.85C340.274 124.575 337.199 122.025 332.174 122.025H321.074ZM422.897 168H408.947L387.197 126.525V168H377.072V113.625H391.022L412.772 155.1V113.625H422.897V168ZM449.988 134.85C444.288 134.85 440.238 139.425 440.238 147.9C440.238 156.375 444.288 160.875 449.988 160.875C455.688 160.875 459.738 156.375 459.738 147.9C459.738 139.425 455.688 134.85 449.988 134.85ZM449.988 168.975C439.788 168.975 429.738 162 429.738 147.9C429.738 133.725 439.788 126.75 449.988 126.75C460.188 126.75 470.238 133.725 470.238 147.9C470.238 162 460.188 168.975 449.988 168.975ZM488.214 155.55L494.514 127.65H505.539L511.914 155.475L517.314 127.65H527.589L518.064 168H507.414L500.064 137.4L492.639 168H481.989L472.539 127.65H482.814L488.214 155.55ZM570.786 145.425L563.886 144.15C555.111 142.35 547.611 137.85 547.611 128.4C547.611 117.45 559.311 112.65 569.286 112.65C580.536 112.65 590.061 119.25 590.661 129.675H580.311C579.486 123.3 573.936 121.2 568.836 121.2C563.811 121.2 558.336 123.075 558.336 127.95C558.336 131.775 561.486 133.875 565.911 134.7L573.036 135.975C581.886 137.625 591.636 141 591.636 152.325C591.636 163.5 580.536 168.975 569.586 168.975C556.236 168.975 547.386 161.775 546.411 150.075H556.761C557.961 158.1 563.511 160.425 569.961 160.425C574.761 160.425 580.836 158.625 580.836 152.85C580.836 148.275 576.561 146.4 570.786 145.425ZM617.464 161.025C622.864 161.025 626.689 155.775 626.689 147.9C626.689 140.025 622.864 134.7 617.464 134.7C611.764 134.7 608.014 139.725 608.014 147.825C608.014 156.15 611.764 161.025 617.464 161.025ZM608.389 181.125H598.039V127.65H608.389V132.825C610.564 129 614.914 126.75 620.014 126.75C629.764 126.75 637.564 135.15 637.564 147.825C637.564 160.725 629.539 168.975 619.939 168.975C615.739 168.975 611.014 167.4 608.389 162.9V181.125ZM682.265 150.675H652.49C653.09 157.575 657.74 160.95 662.69 160.95C665.915 160.95 669.065 159.825 671.165 156.3H681.815C679.64 162.3 673.79 168.975 662.765 168.975C649.79 168.975 642.215 159.3 642.215 147.675C642.215 135.675 650.54 126.75 662.465 126.75C674.915 126.75 682.64 136.425 682.265 150.675ZM662.39 134.325C658.49 134.325 653.465 136.725 652.64 143.55H671.765C671.54 136.725 666.74 134.325 662.39 134.325ZM714.132 152.55V149.55C702.507 150.75 697.932 152.1 697.932 156.6C697.932 159.525 700.182 161.925 704.907 161.925C711.432 161.925 714.132 158.475 714.132 152.55ZM715.032 162.975C712.107 167.175 707.907 168.975 701.832 168.975C694.107 168.975 687.282 164.475 687.282 157.125C687.282 147.6 697.932 144.75 713.832 142.95V142.275C713.832 136.05 710.457 133.875 706.257 133.875C702.282 133.875 698.982 135.9 698.757 140.4H689.082C689.907 132.45 696.357 126.6 706.782 126.6C716.307 126.6 724.182 130.8 724.182 144.375C724.182 145.575 724.032 151.05 724.032 154.65C724.032 161.025 724.407 164.625 725.232 168H715.707C715.407 166.725 715.257 165 715.032 162.975ZM732.804 113.625H743.154V143.85L757.854 127.65H769.479L755.004 143.1L770.304 168H758.679L748.104 150.525L743.154 155.85V168H732.804V113.625ZM806.073 139.8H796.398C795.573 136.425 792.573 134.025 787.773 134.025C783.948 134.025 781.248 135.45 781.248 137.925C781.248 140.1 782.823 141.75 786.648 142.575L792.048 143.775C800.073 145.575 806.898 147.6 806.898 155.925C806.898 164.025 798.573 168.975 789.423 168.975C779.523 168.975 772.023 163.875 771.048 154.65H781.023C781.623 158.55 784.323 161.475 789.723 161.475C794.223 161.475 796.998 159.825 796.998 156.9C796.998 153.9 793.923 152.775 790.398 151.95L784.398 150.675C776.823 149.1 771.798 145.95 771.798 138.6C771.798 131.4 779.598 126.6 788.298 126.6C796.698 126.6 804.648 130.5 806.073 139.8ZM110.125 226.775C110.125 210.5 100.45 208.025 90.55 208.025H85.6V245.6H90.55C100.45 245.6 110.125 243.2 110.125 226.775ZM74.875 199.625H91C108.25 199.625 121.225 205.175 121.225 226.775C121.225 248.375 108.25 254 91 254H74.875V199.625ZM152.502 254V248.675C150.177 252.8 145.752 254.975 140.727 254.975C131.052 254.975 127.152 249.05 127.152 239.15V213.65H137.502V236.9C137.502 242.3 138.327 246.65 144.102 246.65C151.002 246.65 152.502 241.025 152.502 234.65V213.65H162.852V254H152.502ZM173.56 213.65V202.7H183.91V213.65H192.31V220.775H183.91V241.625C183.91 245.75 185.335 246.575 189.01 246.575H192.16V254H184.585C175.285 254 173.56 251.15 173.56 243.125V220.775H167.86V213.65H173.56ZM216.567 212.75C225.042 212.75 233.442 217.475 234.867 227.45H224.967C224.142 223.55 220.542 220.775 216.567 220.775C211.167 220.775 206.892 225.35 206.892 233.75C206.892 242.225 210.942 246.95 216.642 246.95C220.242 246.95 223.917 245.075 225.342 240.275H235.242C232.842 251.3 224.517 254.975 216.117 254.975C204.042 254.975 196.317 246.125 196.317 233.9C196.317 221.6 204.492 212.75 216.567 212.75ZM251.772 199.625V218.975C254.097 214.85 258.447 212.75 263.472 212.75C273.147 212.75 277.422 218.6 277.422 228.575V254H267.072V230.825C267.072 225.65 265.947 221.075 260.097 221.075C253.272 221.075 251.772 226.625 251.772 233V254H241.422V199.625H251.772ZM294.35 237.95H287.525L285.65 213.575V199.625H296V213.575L294.35 237.95ZM296.375 254H285.275V242.75H296.375V254Z" fill="#0D0D0D"/>
<path d="M72.064 77V59.6H83.872V61.712H74.512V66.992H83.32V69.104H74.512V74.888H83.872V77H72.064ZM85.6788 77L92.1348 68.048L86.1108 59.6H89.0148L93.5988 66.032L98.2308 59.6H100.991L94.9668 67.952L101.423 77H98.5428L93.5028 69.968L88.4388 77H85.6788ZM108.053 77V61.712H102.389V59.6H116.165V61.712H110.501V77H108.053ZM119.194 77V59.6H131.002V61.712H121.642V66.992H130.45V69.104H121.642V74.888H131.002V77H119.194ZM148.865 77H145.289L137.321 62.144V77H134.873V59.6H138.473L146.417 74.408V59.6H148.865V77ZM153.23 64.04C153.23 60.704 156.71 59.288 159.518 59.288C162.662 59.288 165.422 60.704 166.118 64.04H163.742C163.166 62.048 161.15 61.352 159.422 61.352C158.078 61.352 155.726 61.952 155.726 63.896C155.726 65.432 156.926 66.2 158.558 66.56L160.574 67.016C163.238 67.592 166.43 68.6 166.43 72.104C166.43 75.488 163.262 77.312 159.806 77.312C155.702 77.312 153.11 75.056 152.654 71.6H155.054C155.51 74 157.166 75.248 159.854 75.248C162.446 75.248 163.91 74.048 163.91 72.32C163.91 70.472 162.326 69.752 160.166 69.248L158.006 68.792C155.606 68.264 153.23 66.92 153.23 64.04ZM172.733 59.6V77H170.285V59.6H172.733ZM179.487 68.288C179.487 72.776 181.983 75.248 185.151 75.248C188.319 75.248 190.815 72.776 190.815 68.288C190.815 63.8 188.319 61.352 185.151 61.352C181.983 61.352 179.487 63.8 179.487 68.288ZM193.311 68.288C193.311 73.544 190.167 77.312 185.151 77.312C180.135 77.312 176.991 73.544 176.991 68.288C176.991 63.032 180.135 59.288 185.151 59.288C190.167 59.288 193.311 63.032 193.311 68.288ZM211.556 77H207.98L200.012 62.144V77H197.564V59.6H201.164L209.108 74.408V59.6H211.556V77Z" fill="#B2A630"/>
<path d="M84.95 557.562C84.95 551.166 81.18 550.386 77.306 550.386H74.888V564.764H77.306C81.18 564.764 84.95 563.984 84.95 557.562ZM72.236 548.15H77.384C83.338 548.15 87.654 550.412 87.654 557.562C87.654 564.738 83.338 567 77.384 567H72.236V548.15ZM100.388 561.15V560.266C96.0981 560.682 93.3681 561.332 93.3681 563.256C93.3681 564.582 94.3821 565.466 96.0721 565.466C98.2821 565.466 100.388 564.452 100.388 561.15ZM95.5521 567.338C92.9261 567.338 90.7421 565.882 90.7421 563.308C90.7421 560.006 94.4861 559.018 100.206 558.394V558.056C100.206 555.482 98.8021 554.65 97.0341 554.65C95.0581 554.65 93.9401 555.69 93.8361 557.432H91.3921C91.6001 554.416 94.3041 552.726 97.0081 552.726C100.882 552.726 102.598 554.546 102.572 558.498L102.546 561.722C102.52 564.088 102.624 565.674 102.91 567H100.518C100.44 566.48 100.362 565.908 100.336 565.076C99.4781 566.532 98.0481 567.338 95.5521 567.338ZM109.504 553.012V555.118C110.31 553.792 111.662 552.778 114.028 552.778C117.408 552.778 118.63 554.962 118.63 558.16V567H116.264V558.862C116.264 556.704 115.9 554.832 113.196 554.832C110.908 554.832 109.504 556.392 109.504 559.408V567H107.138V553.012H109.504ZM123.209 553.012H125.575V567H123.209V553.012ZM123.209 548.15H125.575V551.01H123.209V548.15ZM142.718 560.786H131.954C132.032 563.802 134.216 565.258 136.27 565.258C138.35 565.258 139.494 564.322 140.092 562.944H142.536C141.912 565.336 139.676 567.338 136.27 567.338C131.85 567.338 129.406 564.166 129.406 560.032C129.406 555.586 132.37 552.778 136.192 552.778C140.482 552.778 143.004 556.34 142.718 560.786ZM136.192 554.806C134.112 554.806 132.188 555.95 131.98 558.758H140.222C140.144 556.782 138.714 554.806 136.192 554.806ZM131.824 550.724V548.15H134.19V550.724H131.824ZM137.778 548.15H140.17V550.724H137.778V548.15ZM148.881 548.15V567H146.515V548.15H148.881ZM161.56 553.012V549.502H163.926V553.012H166.578V554.91H163.926V563.204C163.926 564.66 164.03 565.024 165.382 565.024H166.578V567H164.862C162.184 567 161.56 566.402 161.56 563.49V554.91H159.35V553.012H161.56ZM182.603 560.786H171.839C171.917 563.802 174.101 565.258 176.155 565.258C178.235 565.258 179.379 564.322 179.977 562.944H182.421C181.797 565.336 179.561 567.338 176.155 567.338C171.735 567.338 169.291 564.166 169.291 560.032C169.291 555.586 172.255 552.778 176.077 552.778C180.367 552.778 182.889 556.34 182.603 560.786ZM176.077 554.806C173.997 554.806 172.073 555.95 171.865 558.758H180.107C180.029 556.782 178.599 554.806 176.077 554.806ZM188.766 553.012V555.118C189.572 553.792 190.924 552.778 193.29 552.778C196.67 552.778 197.892 554.962 197.892 558.16V567H195.526V558.862C195.526 556.704 195.162 554.832 192.458 554.832C190.17 554.832 188.766 556.392 188.766 559.408V567H186.4V553.012H188.766ZM221.381 548.15L225.099 563.984L228.583 548.15H231.365L226.659 567H223.435L219.795 551.504L216.233 567H213.009L208.225 548.15H211.137L214.777 563.984L218.261 548.15H221.381ZM235.515 560.058C235.515 563.802 237.543 565.258 239.701 565.258C241.859 565.258 243.887 563.646 243.887 560.058C243.887 556.314 241.859 554.858 239.701 554.858C237.543 554.858 235.515 556.236 235.515 560.058ZM239.701 552.778C242.951 552.778 246.409 554.988 246.409 560.058C246.409 565.128 242.951 567.338 239.701 567.338C236.451 567.338 232.993 565.128 232.993 560.058C232.993 554.988 236.451 552.778 239.701 552.778ZM252.645 548.15V567H250.279V548.15H252.645ZM267.032 555.222V548.15H269.398V567H267.032V564.894C266.174 566.376 264.718 567.338 262.456 567.338C259.232 567.338 256.476 564.712 256.476 560.058C256.476 555.482 259.232 552.778 262.456 552.778C264.718 552.778 266.174 553.74 267.032 555.222ZM267.136 560.058C267.136 556.366 265.16 554.806 263.054 554.806C260.636 554.806 259.05 556.704 259.05 560.058C259.05 563.412 260.636 565.31 263.054 565.31C265.16 565.31 267.136 563.75 267.136 560.058ZM286.519 560.786H275.755C275.833 563.802 278.017 565.258 280.071 565.258C282.151 565.258 283.295 564.322 283.893 562.944H286.337C285.713 565.336 283.477 567.338 280.071 567.338C275.651 567.338 273.207 564.166 273.207 560.032C273.207 555.586 276.171 552.778 279.993 552.778C284.283 552.778 286.805 556.34 286.519 560.786ZM279.993 554.806C277.913 554.806 275.989 555.95 275.781 558.758H284.023C283.945 556.782 282.515 554.806 279.993 554.806Z" fill="#B2A630"/>
<g clip-path="url(#clip2_13424_6955)">
<path d="M1124.49 416.562C1124.49 436.254 1116.99 454.218 1104.69 467.718C1093.59 479.904 1087.81 496.032 1087.81 512.52V528.414C1087.81 538.746 1079.42 547.134 1069.09 547.134H1067.58C1066.23 555.468 1058.72 562.29 1050.3 562.29C1041.87 562.29 1035.32 555.468 1033.99 547.134H1029.92C1019.59 547.134 1011.2 538.746 1011.2 528.414V517.578C1011.2 499.254 1004.74 481.362 992.375 467.844C979.703 454.002 972.089 435.444 972.467 415.104C973.205 375.126 1005.53 342.114 1045.49 340.584C1088.84 338.928 1124.49 373.578 1124.49 416.562Z" fill="#FFF100" stroke="#978C00" stroke-width="3.06" stroke-miterlimit="10"/>
<path d="M1105.58 419.028C1105.58 438.72 1098.07 456.684 1085.78 470.184C1074.67 482.37 1068.89 498.498 1068.89 514.986V530.88C1068.89 541.212 1060.5 549.6 1050.17 549.6H1011C1000.67 549.6 992.285 541.212 992.285 530.88V520.044C992.285 501.72 985.823 483.828 973.457 470.31C960.785 456.468 953.171 437.91 953.549 417.57C954.287 377.592 986.615 344.58 1026.57 343.05C1069.92 341.394 1105.58 376.044 1105.58 419.028Z" fill="#FFFCC2" stroke="#978C00" stroke-width="3.06" stroke-miterlimit="10"/>
<path d="M1048.86 549.906C1048.34 558.852 1040.92 565.944 1031.87 565.944C1022.81 565.944 1015.38 558.852 1014.86 549.906H1048.88H1048.86Z" fill="#FFFCC2" stroke="#978C00" stroke-width="3.06" stroke-miterlimit="10"/>
<path d="M1068.89 524.256V530.88C1068.89 541.212 1060.51 549.6 1050.17 549.6H1011.01C1000.67 549.6 992.285 541.212 992.285 530.88V524.256H1068.89Z" stroke="#978C00" stroke-width="3.06" stroke-miterlimit="10"/>
<path d="M1023.46 524.472L1022.13 447.936C1022.13 447.936 1021.82 419.064 1005.77 422.196C1002.47 422.844 1000.06 425.688 999.664 429.018C998.764 436.758 999.61 452.166 1018.44 459.15C1028.05 462.714 1038.8 462.462 1047.74 457.476C1054.46 453.732 1061.24 447.036 1063.29 435.066C1064.28 429.36 1060.45 423.672 1054.71 422.97C1052.55 422.7 1050.17 423.168 1047.83 425.004C1045.49 426.84 1043.94 429.72 1043.42 432.726C1042.31 439.278 1040.04 454.056 1040.04 464.856V523.806" stroke="#978C00" stroke-width="3.06" stroke-miterlimit="10"/>
</g>
</g>
<defs>
<linearGradient id="paint0_linear_13424_6955" x1="587" y1="-228" x2="585.824" y2="741.999" gradientUnits="userSpaceOnUse">
<stop stop-color="#FDEF00"/>
<stop offset="0.938633" stop-color="#FFFAA3"/>
</linearGradient>
<clipPath id="clip0_13424_6955">
<rect width="1200" height="627" fill="white"/>
</clipPath>
<clipPath id="clip1_13424_6955">
<rect width="1200" height="627" fill="white"/>
</clipPath>
<clipPath id="clip2_13424_6955">
<rect width="174.024" height="228.474" fill="white" transform="translate(952 339)"/>
</clipPath>
</defs>
</svg>
