<svg width="560" height="240" viewBox="0 0 560 240" fill="none" xmlns="http://www.w3.org/2000/svg">
<g clip-path="url(#clip0_5619_1206)">
<rect width="560" height="240" fill="#FFF100"/>
<g clip-path="url(#clip1_5619_1206)">
<rect width="560" height="240" fill="#FFF100"/>
<path d="M387 170.5L451.783 170.5C462.828 170.5 471.782 161.546 471.782 150.5L471.782 67.5001C471.782 56.4544 480.737 47.5001 491.782 47.5001L692.082 47.5001C703.128 47.5001 712.082 56.4544 712.082 67.5001L712.082 241.913C712.082 252.958 703.128 261.913 692.082 261.913L387 261.913C375.954 261.913 367 252.958 367 241.913L367 190.5C367 179.454 375.954 170.5 387 170.5Z" fill="#EDDD0C"/>
<path d="M141.127 314L141.127 77.9839C141.127 66.9382 150.081 57.9839 161.127 57.9839L199.812 57.9839C210.857 57.9839 219.812 49.0296 219.812 37.9839L219.812 -86.9999C219.812 -98.0456 210.857 -107 199.812 -107L-54.0001 -107C-65.0458 -107 -74.0001 -98.0457 -74.0001 -87L-74.0002 314C-74.0002 325.046 -65.0458 334 -54.0002 334L121.127 334C132.173 334 141.127 325.046 141.127 314Z" fill="#EDDD0C"/>
<rect x="417" y="194" width="546" height="169" rx="20" fill="#FFF100"/>
<rect x="-513" y="-43" width="598" height="204" rx="20" fill="#FFF100"/>
</g>
<rect x="201.5" y="87.5" width="65" height="65" rx="10" fill="#0D0D0D"/>
<mask id="mask0_5619_1206" style="mask-type:alpha" maskUnits="userSpaceOnUse" x="216" y="97" width="36" height="46">
<path d="M249.116 108.741C250.642 110.267 251.5 112.338 251.5 114.497V139.125C251.5 141.196 249.821 142.875 247.75 142.875H220.25C218.179 142.875 216.5 141.196 216.5 139.125V100.875C216.5 98.804 218.179 97.125 220.25 97.125H234.128C236.287 97.125 238.358 97.9826 239.884 99.509L249.116 108.741Z" fill="#EDDE00"/>
</mask>
<g mask="url(#mask0_5619_1206)">
<path d="M249.116 108.741C250.642 110.267 251.5 112.338 251.5 114.497V139.125C251.5 141.196 249.821 142.875 247.75 142.875H220.25C218.179 142.875 216.5 141.196 216.5 139.125V100.875C216.5 98.804 218.179 97.125 220.25 97.125H234.128C236.287 97.125 238.358 97.9826 239.884 99.509L249.116 108.741Z" fill="#FFF100"/>
<path d="M237.5 96.375V107.346C237.5 109.412 239.183 111.091 241.253 111.091L251.987 111.125H252.25L237.5 96.375Z" fill="#FFF100" stroke="#0D0D0D" stroke-width="2"/>
</g>
<path d="M227.004 120.237C228.672 120.237 230.114 121.325 230.411 123.007H228.771C228.616 122.202 227.923 121.636 227.004 121.636C225.944 121.636 225.011 122.414 225.011 124.209C225.011 126.018 225.973 126.796 226.962 126.796C227.796 126.796 228.602 126.428 228.828 125.41H230.467C230.128 127.191 228.559 128.195 226.934 128.195C224.729 128.195 223.273 126.485 223.273 124.223C223.273 121.961 224.729 120.237 227.004 120.237ZM237.356 122.484H235.773C235.589 121.792 234.953 121.523 234.105 121.523C233.37 121.523 232.691 121.848 232.691 122.357C232.691 122.866 233.044 123.135 233.709 123.262L234.783 123.474C236.324 123.771 237.497 124.251 237.497 125.735C237.497 127.319 235.999 128.195 234.274 128.195C232.408 128.195 231.165 127.121 230.981 125.693H232.62C232.776 126.485 233.327 126.923 234.331 126.923C235.221 126.923 235.857 126.555 235.857 125.933C235.857 125.311 235.292 125.043 234.543 124.887L233.398 124.661C232.112 124.393 231.108 123.841 231.108 122.442C231.108 121.099 232.564 120.237 234.204 120.237C235.688 120.237 237.045 120.958 237.356 122.484ZM239.216 120.407L240.969 125.834L242.707 120.407H244.46L241.718 128.011H240.135L237.364 120.407H239.216Z" fill="#0D0D0D"/>
<rect x="291.5" y="86.5" width="67" height="67" rx="33.5" fill="#0D0D0D"/>
<path d="M317.844 118.079C317.423 117.605 317.444 116.884 317.893 116.435L320.376 113.951C320.825 113.502 321.546 113.481 322.021 113.903L328.499 119.659L334.101 126.068C334.146 126.119 334.195 126.166 334.247 126.209L341.918 132.453C342.469 132.901 342.511 133.728 342.009 134.231L338.172 138.067C337.67 138.57 336.843 138.528 336.394 137.977L330.15 130.306C330.108 130.253 330.06 130.205 330.009 130.16L323.601 124.558L317.844 118.079Z" fill="#FFF100"/>
<path d="M318.352 111.629L321.466 114.743C321.536 114.813 321.536 114.927 321.466 114.997L319.374 117.09C319.084 117.379 318.615 117.379 318.325 117.09L315.355 114.119C313.811 112.576 311.309 112.576 309.766 114.119C309.625 114.259 309.625 114.487 309.766 114.627L309.969 114.83C310.222 115.083 310.222 115.492 309.969 115.745L307.987 117.726C307.651 118.063 307.105 118.063 306.768 117.726L303.11 114.068C302.773 113.731 302.773 113.186 303.11 112.849L304.939 111.02C305.276 110.683 305.822 110.683 306.158 111.02C306.495 111.356 307.041 111.356 307.378 111.02L308.597 109.8C308.934 109.463 308.934 108.918 308.597 108.581L308.144 108.128C308.058 108.041 308.058 107.901 308.144 107.814L313.337 102.622C316.612 99.3464 321.922 99.3464 325.197 102.622C325.289 102.714 325.289 102.863 325.197 102.956L324.237 103.916C324.186 103.967 324.104 103.967 324.053 103.916C322.757 102.62 320.655 102.62 319.359 103.916L318.352 104.923C316.5 106.775 316.5 109.777 318.352 111.629Z" fill="#FFF100"/>
</g>
<defs>
<clipPath id="clip0_5619_1206">
<rect width="560" height="240" fill="white"/>
</clipPath>
<clipPath id="clip1_5619_1206">
<rect width="560" height="240" fill="white"/>
</clipPath>
</defs>
</svg>
