<svg xmlns="http://www.w3.org/2000/svg" width="560" height="240" fill="none" viewBox="0 0 560 240"><g clip-path="url(#clip0_6414_6218)"><rect width="560" height="240" fill="#1A1A1A"/><g clip-path="url(#clip1_6414_6218)"><rect width="560" height="240" fill="#2EAFFF"/><path fill="#000" fill-opacity=".06" d="M231 21.9441L231 -24C231 -35.0457 222.046 -44 211 -44L-11 -44C-22.0457 -44 -31 -35.0457 -31 -24L-31 191C-31 202.046 -22.0457 211 -11 211L76.5 211C87.5457 211 96.5 202.046 96.5 191L96.5 61.9441C96.5 50.8984 105.454 41.9441 116.5 41.9441L211 41.9441C222.046 41.9441 231 32.9898 231 21.9441Z"/><path fill="#000" fill-opacity=".06" d="M396.5 197.576L289 197.576C277.954 197.576 269 206.53 269 217.576L269 256C269 267.046 277.954 276 289 276L611.5 276C622.546 276 631.5 267.046 631.5 256L631.5 -28C631.5 -39.0457 622.546 -48 611.5 -48L504.424 -48C493.378 -48 484.424 -39.0457 484.424 -28L484.424 58.5088C484.424 69.5545 475.47 78.5088 464.424 78.5088L436.5 78.5088C425.454 78.5088 416.5 87.4631 416.5 98.5088L416.5 177.576C416.5 188.622 407.546 197.576 396.5 197.576Z"/><path fill="#2EAFFF" d="M514 114C502.954 114 494 122.954 494 134V294C494 305.046 502.954 314 514 314H612C623.046 314 632 305.046 632 294V134C632 122.954 623.046 114 612 114H514Z"/></g><path fill="#0D0D0D" d="M196.039 91.2568C180.192 91.2568 167.296 104.152 167.296 120C167.296 135.848 180.192 148.743 196.039 148.743C211.887 148.743 224.782 135.848 224.782 120C224.782 104.152 211.887 91.2568 196.039 91.2568Z"/><path fill="#2EAFFF" fill-rule="evenodd" d="M193.603 105.87C198.829 105.87 203.376 108.674 205.847 112.859H208.43V112.874C211.995 112.874 215.002 115.741 215.01 119.38H215.025C215.024 122.995 212.06 125.96 208.445 125.96H206.533C204.368 130.698 199.685 134.045 194.193 134.269L193.603 134.281L192.872 134.261C185.361 133.881 179.399 127.682 179.398 120.076V120.06C179.399 112.209 185.752 105.855 193.603 105.855V105.87ZM193.603 110.182C188.157 110.182 183.726 114.599 183.726 120.06V120.076C183.726 125.522 188.142 129.953 193.603 129.953C197.99 129.953 201.712 127.095 202.998 123.131L203.482 121.633H208.445C209.65 121.633 210.689 120.613 210.697 119.395H210.683C210.683 118.2 209.685 117.187 208.43 117.186H203.15L202.575 115.93C201.017 112.527 197.582 110.182 193.603 110.182Z" clip-rule="evenodd"/><path fill="#000" d="M244.307 106.433H235.372V133.255H244.307C250.298 133.255 255.181 127.264 255.181 119.801C255.181 112.338 250.298 106.433 244.307 106.433ZM244.307 128.926H239.424V110.779H244.307C248.099 110.779 251.112 114.866 251.112 119.801C251.112 124.736 248.099 128.944 244.307 128.944L244.307 128.926Z"/><path fill="#000" d="M287.233 129.204H286.246C283.891 129.204 281.951 127.212 281.951 124.771V120.147C281.951 117.654 283.908 115.645 286.246 115.645H287.233C289.657 115.645 291.648 117.515 291.648 119.836H295.769C295.769 115.212 291.908 111.403 287.25 111.403H286.263C281.674 111.403 277.951 115.334 277.951 120.147V124.771C277.951 129.636 281.657 133.55 286.263 133.55H287.25C292.064 133.55 295.994 129.74 295.994 125.152H291.873C291.873 127.368 289.778 129.186 287.25 129.186L287.233 129.204Z"/><path fill="#000" d="M270.644 124.701C270.644 127.351 269.103 129.203 266.973 129.203H265.951C263.787 129.203 262.28 127.333 262.28 124.701V112.424H258.194V125.48C258.194 130.19 261.397 133.567 265.882 133.567H267.059C271.544 133.567 274.696 130.19 274.696 125.48V112.424H270.661V124.701H270.644Z"/><path fill="#000" d="M315.475 111.437H309.795L303.128 119.022V106.468H299.094V133.203H303.128V125.359L305.085 123.178L311.734 133.203H316.739L307.908 119.87L315.475 111.437Z"/><path fill="#000" d="M373.466 111.437H367.752L361.103 119.022V106.468H357.068V133.203H361.103V125.359L363.059 123.178L369.708 133.203H374.713L365.882 119.87L373.466 111.437Z"/><path fill="#000" d="M323.198 106.433H319.198V133.255H334.661V128.926H323.198V106.433Z"/><path fill="#000" d="M388.53 125.862C388.149 127.749 386.245 129.204 383.976 129.204H382.989C380.634 129.204 378.695 127.23 378.695 124.771V123.264H392.513V119.836C392.513 115.212 388.651 111.403 383.993 111.403H383.006C378.418 111.403 374.695 115.334 374.695 120.147V124.771C374.695 129.636 378.4 133.55 383.006 133.55H383.993C388.565 133.55 392.34 130.121 392.703 125.844H388.548L388.53 125.862ZM383.976 115.645C386.366 115.645 388.322 117.602 388.374 119.888H378.678C378.816 117.515 380.703 115.645 382.972 115.645H383.976Z"/><path fill="#000" d="M348.861 114.624C347.649 113.065 346.073 112.13 344.272 112.13H343.251C338.8 112.13 335.684 115.749 335.684 120.909V124.753C335.684 129.879 338.8 133.532 343.251 133.532H344.272C346.073 133.532 347.649 132.632 348.861 131.091V133.186H352.757V112.39H348.861V114.624ZM349.242 123.801C349.242 127.229 347.147 129.584 344.29 129.584H343.268C340.948 129.584 339.337 127.593 339.337 124.771V120.926C339.337 118.052 340.948 116.026 343.268 116.026H344.29C347.164 116.026 349.242 118.364 349.242 121.654V123.801Z"/></g><defs><clipPath id="clip0_6414_6218"><rect width="560" height="240" fill="#fff"/></clipPath><clipPath id="clip1_6414_6218"><rect width="560" height="240" fill="#fff"/></clipPath></defs></svg>