<svg xmlns="http://www.w3.org/2000/svg" width="560" height="240" fill="none" viewBox="0 0 560 240"><g clip-path="url(#clip0_4723_13407)"><rect width="560" height="240" fill="#FFF100"/><g clip-path="url(#clip1_4723_13407)"><rect width="560" height="240" fill="#FFF100"/><path fill="url(#paint0_linear_4723_13407)" d="M387 170.5L451.783 170.5C462.828 170.5 471.782 161.546 471.782 150.5L471.782 67.5001C471.782 56.4544 480.737 47.5001 491.782 47.5001L692.082 47.5001C703.128 47.5001 712.082 56.4544 712.082 67.5001L712.082 241.913C712.082 252.958 703.128 261.913 692.082 261.913L387 261.913C375.954 261.913 367 252.958 367 241.913L367 190.5C367 179.454 375.954 170.5 387 170.5Z"/><path fill="url(#paint1_linear_4723_13407)" d="M141.127 314L141.127 77.9839C141.127 66.9382 150.081 57.9839 161.127 57.9839L199.812 57.9839C210.857 57.9839 219.812 49.0296 219.812 37.9839L219.812 -86.9999C219.812 -98.0456 210.857 -107 199.812 -107L-54.0001 -107C-65.0458 -107 -74.0001 -98.0457 -74.0001 -87L-74.0002 314C-74.0002 325.046 -65.0458 334 -54.0002 334L121.127 334C132.173 334 141.127 325.046 141.127 314Z"/><rect width="546" height="169" x="417" y="194" fill="#FFF100" rx="20"/><rect width="598" height="204" x="-513" y="-43" fill="#FFF100" rx="20"/></g><path fill="#000" d="M234 153.5C215.467 153.5 200.5 138.533 200.5 120C200.5 101.467 215.467 86.5 234 86.5C252.533 86.5 267.5 101.467 267.5 120C267.5 138.533 252.533 153.5 234 153.5Z"/><path fill="#FFF100" d="M251.912 115.031H245.34V124.949H251.912C254.637 124.949 256.901 122.684 256.901 119.96C256.901 117.215 254.637 115.031 251.912 115.031Z"/><path fill="#FFF100" d="M213.141 120C213.141 127.654 219.372 133.885 227.026 133.885C234.68 133.885 240.911 127.654 240.911 120C240.911 112.347 234.68 106.115 227.026 106.115C219.372 106.115 213.141 112.347 213.141 120Z"/><path fill="#000" d="M326 153.5C307.553 153.5 292.5 138.595 292.5 120C292.5 101.405 307.405 86.5 326 86.5C344.595 86.5 359.5 101.405 359.5 120C359.5 138.595 344.595 153.5 326 153.5Z"/><path fill="#FFF100" d="M326.591 116.163L325.115 113.359C325.115 112.916 324.524 112.916 324.082 113.063C322.606 113.801 320.983 114.392 319.359 114.834C317.146 115.572 314.784 116.31 312.571 117.638C310.062 119.262 306.225 122.951 304.602 124.87C304.159 125.46 304.159 126.345 304.602 126.788L305.93 127.969C306.52 128.411 307.258 128.411 307.848 127.969C308.881 126.936 310.062 125.755 311.243 124.87C312.718 123.541 314.194 122.361 315.522 121.623C318.769 120 322.754 119.114 326.148 117.343C326.591 117.048 326.591 116.605 326.443 116.31L326.591 116.163Z"/><path fill="#FFF100" d="M332.641 120.885L329.837 119.409C329.395 119.409 328.952 119.409 328.804 119.705C327.919 121.328 327.181 123.099 326.591 124.87C325.853 126.788 325.262 128.559 324.525 130.33C323.196 132.987 320.392 135.643 318.179 138.004C315.965 140.365 317.736 139.332 318.179 139.923L319.359 141.251C319.802 141.841 320.688 141.841 321.278 141.251C322.458 140.218 323.639 139.037 324.82 137.857C326.295 136.233 327.919 134.462 328.952 132.544C330.723 129.002 331.461 125.313 333.084 121.918C333.084 121.475 333.084 121.18 332.789 120.885H332.641Z"/><path fill="#FFF100" d="M344.152 106.127L343.562 105.537L335.888 110.85L335.002 109.964L340.315 102.29L339.725 101.7C339.43 101.405 338.987 101.405 338.692 101.7L332.789 105.98C332.494 105.98 332.346 106.422 332.198 106.718L330.575 110.259L326.443 112.621L327.771 115.277V115.572L329.394 114.834L330.723 116.162L329.985 117.638L332.789 118.966L335.15 114.834L338.692 113.211C338.987 113.211 339.134 112.916 339.43 112.621L343.709 106.718C343.709 106.422 343.709 105.98 343.709 105.684L344.152 106.127ZM332.936 114.687C332.051 114.687 331.313 113.949 331.313 113.063C331.313 112.178 332.051 111.44 332.936 111.44C333.822 111.44 334.56 112.178 334.56 113.063C334.56 113.949 333.822 114.687 332.936 114.687Z"/></g><defs><linearGradient id="paint0_linear_4723_13407" x1="400.322" x2="400.322" y1="65.999" y2="234.499" gradientUnits="userSpaceOnUse"><stop stop-color="#EDDD0C"/><stop offset="1" stop-color="#F3E71B"/></linearGradient><linearGradient id="paint1_linear_4723_13407" x1="72.906" x2="72.906" y1="349.513" y2="-53.814" gradientUnits="userSpaceOnUse"><stop stop-color="#EDDD0C"/><stop offset="1" stop-color="#F3E71B"/></linearGradient><clipPath id="clip0_4723_13407"><rect width="560" height="240" fill="#fff"/></clipPath><clipPath id="clip1_4723_13407"><rect width="560" height="240" fill="#fff"/></clipPath></defs></svg>