<svg width="560" height="240" viewBox="0 0 560 240" fill="none" xmlns="http://www.w3.org/2000/svg">
<g clip-path="url(#clip0_5938_26585)">
<rect width="560" height="240" fill="#FFF100"/>
<g clip-path="url(#clip1_5938_26585)">
<rect width="560" height="240" fill="#FFF100"/>
<path d="M-137 100L9.61491 100L67 100C78.0457 100 87 108.954 87 120L87 340C87 351.046 78.0457 360 67 360L-137 360C-148.046 360 -157 351.046 -157 340L-157 120C-157 108.954 -148.046 100 -137 100Z" fill="#FFF100"/>
<path d="M231 21.9441L231 -24C231 -35.0457 222.046 -44 211 -44L-11 -44C-22.0457 -44 -31 -35.0457 -31 -24L-31 191C-31 202.046 -22.0457 211 -11 211L76.5 211C87.5457 211 96.5 202.046 96.5 191L96.5 61.9441C96.5 50.8984 105.454 41.9441 116.5 41.9441L211 41.9441C222.046 41.9441 231 32.9898 231 21.9441Z" fill="#EDDD0C"/>
<path d="M396.5 197.576L289 197.576C277.954 197.576 269 206.53 269 217.576L269 256C269 267.046 277.954 276 289 276L611.5 276C622.546 276 631.5 267.046 631.5 256L631.5 -28C631.5 -39.0457 622.546 -48 611.5 -48L504.424 -48C493.378 -48 484.424 -39.0457 484.424 -28L484.424 58.5088C484.424 69.5545 475.47 78.5088 464.424 78.5088L436.5 78.5088C425.454 78.5088 416.5 87.4631 416.5 98.5088L416.5 177.576C416.5 188.622 407.546 197.576 396.5 197.576Z" fill="#EDDD0C"/>
<path d="M514 114C502.954 114 494 122.954 494 134V294C494 305.046 502.954 314 514 314H612C623.046 314 632 305.046 632 294V134C632 122.954 623.046 114 612 114H514Z" fill="#FFF100"/>
</g>
<path d="M205 153.5C186.467 153.5 171.5 138.533 171.5 120C171.5 101.467 186.467 86.5 205 86.5C223.533 86.5 238.5 101.467 238.5 120C238.5 138.533 223.533 153.5 205 153.5Z" fill="#0D0D0D"/>
<path d="M222.913 115.031H216.341V124.948H222.913C225.637 124.948 227.902 122.684 227.902 119.959C227.902 117.214 225.637 115.031 222.913 115.031Z" fill="#FFF100"/>
<path d="M184.142 120C184.142 127.654 190.373 133.885 198.026 133.885C205.68 133.885 211.911 127.654 211.911 120C211.911 112.346 205.68 106.115 198.026 106.115C190.373 106.115 184.142 112.346 184.142 120Z" fill="#FFF100"/>
<path d="M265.547 128.5V126.43H270.032V113.757L265.524 117.115V114.539L269.342 111.71H272.309V126.43H275.989V128.5H265.547ZM284.191 128.73C283.608 128.73 283.133 128.554 282.765 128.201C282.412 127.848 282.236 127.396 282.236 126.844C282.236 126.261 282.412 125.786 282.765 125.418C283.133 125.05 283.608 124.866 284.191 124.866C284.774 124.866 285.241 125.05 285.594 125.418C285.962 125.786 286.146 126.261 286.146 126.844C286.146 127.396 285.962 127.848 285.594 128.201C285.241 128.554 284.774 128.73 284.191 128.73ZM300.19 128.5V124.912H292.623V121.439L298.764 111.71H301.34L294.877 121.968V122.865H300.19V118.84H302.467V128.5H300.19ZM311.773 128.73C311.19 128.73 310.715 128.554 310.347 128.201C309.994 127.848 309.818 127.396 309.818 126.844C309.818 126.261 309.994 125.786 310.347 125.418C310.715 125.05 311.19 124.866 311.773 124.866C312.356 124.866 312.823 125.05 313.176 125.418C313.544 125.786 313.728 126.261 313.728 126.844C313.728 127.396 313.544 127.848 313.176 128.201C312.823 128.554 312.356 128.73 311.773 128.73ZM325.564 128.73C323.985 128.73 322.735 128.285 321.815 127.396C320.895 126.491 320.435 125.28 320.435 123.762V116.448C320.435 114.93 320.895 113.726 321.815 112.837C322.735 111.932 323.985 111.48 325.564 111.48C327.143 111.48 328.393 111.932 329.313 112.837C330.233 113.726 330.693 114.93 330.693 116.448V123.762C330.693 124.759 330.478 125.633 330.049 126.384C329.635 127.12 329.045 127.695 328.278 128.109C327.511 128.523 326.607 128.73 325.564 128.73ZM325.564 126.775C326.453 126.775 327.166 126.499 327.703 125.947C328.24 125.38 328.508 124.651 328.508 123.762V116.448C328.508 115.559 328.24 114.838 327.703 114.286C327.166 113.719 326.453 113.435 325.564 113.435C324.675 113.435 323.962 113.719 323.425 114.286C322.888 114.838 322.62 115.559 322.62 116.448V123.762C322.62 124.651 322.888 125.38 323.425 125.947C323.962 126.499 324.675 126.775 325.564 126.775ZM325.564 121.393C325.135 121.393 324.79 121.278 324.529 121.048C324.284 120.803 324.161 120.465 324.161 120.036C324.161 119.607 324.284 119.285 324.529 119.07C324.79 118.84 325.135 118.725 325.564 118.725C325.993 118.725 326.338 118.84 326.599 119.07C326.86 119.285 326.99 119.607 326.99 120.036C326.99 120.465 326.86 120.803 326.599 121.048C326.338 121.278 325.993 121.393 325.564 121.393ZM349.19 128.5V111.71H351.467V126.43H358.942V128.5H349.19ZM365.81 128.5V113.78H361.256V111.71H372.618V113.78H368.087V128.5H365.81ZM380.82 128.73C379.164 128.73 377.845 128.301 376.864 127.442C375.883 126.568 375.392 125.372 375.392 123.854H377.669C377.669 124.743 377.953 125.441 378.52 125.947C379.087 126.453 379.854 126.706 380.82 126.706C381.74 126.706 382.468 126.453 383.005 125.947C383.557 125.426 383.833 124.736 383.833 123.877C383.833 123.233 383.657 122.673 383.304 122.198C382.951 121.707 382.453 121.378 381.809 121.209L379.325 120.542C378.236 120.235 377.37 119.683 376.726 118.886C376.097 118.073 375.783 117.115 375.783 116.011C375.783 115.106 375.982 114.317 376.381 113.642C376.795 112.952 377.37 112.423 378.106 112.055C378.842 111.672 379.693 111.48 380.659 111.48C381.64 111.48 382.499 111.672 383.235 112.055C383.986 112.423 384.569 112.944 384.983 113.619C385.397 114.294 385.604 115.076 385.604 115.965H383.35C383.35 115.229 383.097 114.631 382.591 114.171C382.1 113.711 381.456 113.481 380.659 113.481C379.862 113.481 379.218 113.711 378.727 114.171C378.252 114.631 378.014 115.229 378.014 115.965C378.014 116.563 378.175 117.069 378.497 117.483C378.819 117.882 379.271 118.165 379.854 118.334L382.407 119.024C383.557 119.331 384.454 119.921 385.098 120.795C385.742 121.654 386.064 122.681 386.064 123.877C386.064 124.858 385.849 125.717 385.42 126.453C384.991 127.174 384.377 127.733 383.58 128.132C382.798 128.531 381.878 128.73 380.82 128.73Z" fill="#0D0D0D"/>
</g>
<defs>
<clipPath id="clip0_5938_26585">
<rect width="560" height="240" fill="white"/>
</clipPath>
<clipPath id="clip1_5938_26585">
<rect width="560" height="240" fill="white"/>
</clipPath>
</defs>
</svg>
