<svg xmlns="http://www.w3.org/2000/svg" width="560" height="240" fill="none" viewBox="0 0 560 240"><g clip-path="url(#clip0_4723_16579)"><rect width="560" height="240" fill="#FFF100"/><g clip-path="url(#clip1_4723_16579)"><rect width="560" height="240" fill="#FFF100"/><path fill="url(#paint0_linear_4723_16579)" d="M294.978 54.1962L416.868 54.1962C427.914 54.1962 436.868 63.1505 436.868 74.1962L436.868 157C436.868 168.046 445.822 177 456.868 177L583.619 177C594.665 177 603.619 168.046 603.619 157L603.619 -13.9535C603.619 -24.9992 594.665 -33.9535 583.619 -33.9535L294.978 -33.9539C283.932 -33.9539 274.978 -24.9996 274.978 -13.9539L274.978 34.1962C274.978 45.2419 283.932 54.1962 294.978 54.1962Z"/><path fill="url(#paint1_linear_4723_16579)" d="M-55.5005 45.3256L66.9995 45.3256C78.0452 45.3256 86.9995 54.2799 86.9995 65.3256L86.9993 139C86.9993 150.046 95.9536 159 106.999 159L208.041 159C219.087 159 228.041 167.954 228.041 179L228.041 195.5C228.041 206.546 236.996 215.5 248.041 215.5L316.711 215.5C327.757 215.5 336.711 224.454 336.711 235.5L336.711 268.827C336.711 279.873 327.757 288.827 316.711 288.827L-55.5005 288.827C-66.5462 288.827 -75.5005 279.873 -75.5005 268.827L-75.5005 65.3256C-75.5005 54.2799 -66.5462 45.3256 -55.5005 45.3256Z"/><path stroke="url(#paint2_linear_4723_16579)" stroke-linecap="round" stroke-linejoin="round" stroke-width="3" d="M205.5 388.986L205.5 228.531C205.5 215.798 195.178 205.476 182.445 205.476V205.476L87.9777 205.476C71.4091 205.476 57.9777 192.045 57.9777 175.476L57.9777 120.476C57.9777 103.908 44.5463 90.4763 27.9777 90.4763L-100.5 90.4763"/><path stroke="url(#paint3_linear_4723_16579)" stroke-linecap="round" stroke-linejoin="round" stroke-width="3" d="M490 -95L490 90.0001C490 106.569 503.431 120 520 120L667.999 120"/></g><path fill="#000" d="M218.934 94.5071C218.934 89.2713 215.821 88.4751 212.636 88.4751H211.044V100.563H212.636C215.821 100.563 218.934 99.7912 218.934 94.5071ZM207.593 85.7727H212.781C218.33 85.7727 222.505 87.5582 222.505 94.5071C222.505 101.456 218.33 103.266 212.781 103.266H207.593V85.7727ZM232.567 103.266V101.553C231.819 102.88 230.395 103.579 228.779 103.579C225.666 103.579 224.411 101.673 224.411 98.4883V90.2847H227.741V97.7644C227.741 99.5016 228.007 100.901 229.864 100.901C232.084 100.901 232.567 99.0915 232.567 97.0406V90.2847H235.896V103.266H232.567ZM244.553 89.9951C247.28 89.9951 249.982 91.5152 250.44 94.7243H247.255C246.99 93.4696 245.832 92.5769 244.553 92.5769C242.816 92.5769 241.44 94.0487 241.44 96.751C241.44 99.4775 242.743 100.998 244.577 100.998C245.735 100.998 246.918 100.394 247.376 98.8502H250.561C249.789 102.397 247.111 103.579 244.408 103.579C240.524 103.579 238.038 100.732 238.038 96.7993C238.038 92.8423 240.668 89.9951 244.553 89.9951ZM252.549 85.7727H255.879V95.4964L260.608 90.2847H264.348L259.691 95.2551L264.613 103.266H260.873L257.471 97.6438L255.879 99.3569V103.266H252.549V85.7727ZM277.876 97.5231H281.158C280.699 101.07 277.756 103.579 273.581 103.579C268.37 103.579 265.402 100.032 265.402 94.4347C265.402 88.9094 268.587 85.4591 273.678 85.4591C277.78 85.4591 280.579 87.7995 281.158 91.4428H277.876C277.225 89.0059 275.584 88.2097 273.654 88.2097C271.024 88.2097 268.973 90.3812 268.973 94.4347C268.973 98.6089 271.024 100.829 273.533 100.829C275.608 100.829 277.297 99.9118 277.876 97.5231ZM289.274 92.601C287.441 92.601 286.138 94.0728 286.138 96.7993C286.138 99.5258 287.441 100.973 289.274 100.973C291.108 100.973 292.411 99.5258 292.411 96.7993C292.411 94.0728 291.108 92.601 289.274 92.601ZM289.274 103.579C285.993 103.579 282.76 101.335 282.76 96.7993C282.76 92.2391 285.993 89.9951 289.274 89.9951C292.556 89.9951 295.789 92.2391 295.789 96.7993C295.789 101.335 292.556 103.579 289.274 103.579ZM301.237 90.2847V91.9978C301.985 90.6707 303.384 89.9951 305.001 89.9951C308.114 89.9951 309.489 91.8771 309.489 95.0862V103.266H306.159V95.81C306.159 94.1452 305.797 92.6734 303.915 92.6734C301.72 92.6734 301.237 94.4589 301.237 96.5097V103.266H297.907V90.2847H301.237ZM317.603 89.8262H320.981L321.536 85.7727H324.528L323.973 89.8262H327.182L327.737 85.7727H330.729L330.174 89.8262H333.503L333.19 92.408H329.812L329.305 96.0513H332.611L332.345 98.6089H328.943L328.316 103.266H325.324L325.951 98.6089H322.742L322.115 103.266H319.123L319.75 98.6089H316.445L316.758 96.0513H320.112L320.619 92.408H317.337L317.603 89.8262ZM323.611 92.408L323.104 96.0513H326.313L326.82 92.408H323.611ZM340.925 101.07C342.759 101.07 344.207 99.9842 344.207 98.3435C344.207 96.2926 342.301 95.4722 339.815 95.4722H339.116V92.8664H339.695C342.204 92.8664 343.772 91.9495 343.772 90.3088C343.772 88.7887 342.445 87.9684 340.998 87.9684C338.971 87.9684 337.716 89.223 337.547 91.0568H334.387C334.773 87.5582 337.161 85.4591 341.191 85.4591C344.11 85.4591 347.126 86.8585 347.126 90.164C347.126 91.8771 346.113 93.2524 344.762 94.0004C346.571 94.7725 347.585 96.4856 347.585 98.247C347.585 101.794 344.52 103.579 340.829 103.579C336.824 103.579 334.435 100.973 334.242 97.7644H337.379C337.644 99.5258 338.73 101.07 340.925 101.07ZM207.425 120.003L205.205 119.593C202.382 119.014 199.969 117.566 199.969 114.526C199.969 111.003 203.733 109.459 206.942 109.459C210.561 109.459 213.626 111.582 213.819 114.936H210.489C210.224 112.885 208.438 112.21 206.797 112.21C205.181 112.21 203.419 112.813 203.419 114.381C203.419 115.612 204.433 116.287 205.856 116.553L208.149 116.963C210.996 117.494 214.132 118.579 214.132 122.223C214.132 125.818 210.561 127.579 207.039 127.579C202.744 127.579 199.897 125.263 199.583 121.499H202.913C203.299 124.081 205.084 124.829 207.159 124.829C208.703 124.829 210.658 124.25 210.658 122.392C210.658 120.92 209.283 120.317 207.425 120.003ZM224.299 122.295V121.33C220.559 121.716 219.087 122.15 219.087 123.598C219.087 124.539 219.811 125.311 221.331 125.311C223.431 125.311 224.299 124.201 224.299 122.295ZM224.589 125.649C223.648 127 222.296 127.579 220.342 127.579C217.857 127.579 215.661 126.132 215.661 123.767C215.661 120.703 219.087 119.786 224.203 119.207V118.99C224.203 116.987 223.117 116.287 221.766 116.287C220.487 116.287 219.425 116.939 219.353 118.386H216.24C216.506 115.829 218.581 113.947 221.935 113.947C224.999 113.947 227.532 115.298 227.532 119.665C227.532 120.051 227.484 121.813 227.484 122.971C227.484 125.022 227.605 126.18 227.87 127.266H224.806C224.709 126.855 224.661 126.3 224.589 125.649ZM233.636 114.285V115.998C234.384 114.671 235.783 113.995 237.4 113.995C240.512 113.995 241.888 115.877 241.888 119.086V127.266H238.558V119.81C238.558 118.145 238.196 116.673 236.314 116.673C234.118 116.673 233.636 118.459 233.636 120.51V127.266H230.306V114.285H233.636ZM250.195 127.266V109.773H262.934V112.572H253.645V116.915H262.428V119.714H253.645V127.266H250.195ZM271.856 114.357V117.494C271.374 117.421 270.964 117.421 270.481 117.421C268.84 117.421 267.754 118.025 267.754 120.461V127.266H264.425V114.285H267.706V116.553C268.454 114.936 269.612 114.309 271.132 114.309C271.35 114.309 271.639 114.333 271.856 114.357ZM281.203 122.295V121.33C277.463 121.716 275.991 122.15 275.991 123.598C275.991 124.539 276.715 125.311 278.235 125.311C280.334 125.311 281.203 124.201 281.203 122.295ZM281.492 125.649C280.551 127 279.2 127.579 277.246 127.579C274.761 127.579 272.565 126.132 272.565 123.767C272.565 120.703 275.991 119.786 281.106 119.207V118.99C281.106 116.987 280.021 116.287 278.669 116.287C277.391 116.287 276.329 116.939 276.257 118.386H273.144C273.41 115.829 275.485 113.947 278.838 113.947C281.903 113.947 284.436 115.298 284.436 119.665C284.436 120.051 284.388 121.813 284.388 122.971C284.388 125.022 284.508 126.18 284.774 127.266H281.71C281.613 126.855 281.565 126.3 281.492 125.649ZM290.54 114.285V115.998C291.288 114.671 292.687 113.995 294.304 113.995C297.416 113.995 298.791 115.877 298.791 119.086V127.266H295.462V119.81C295.462 118.145 295.1 116.673 293.218 116.673C291.022 116.673 290.54 118.459 290.54 120.51V127.266H287.21V114.285H290.54ZM307.253 113.995C309.98 113.995 312.682 115.515 313.14 118.724H309.956C309.69 117.47 308.532 116.577 307.253 116.577C305.516 116.577 304.141 118.049 304.141 120.751C304.141 123.478 305.444 124.998 307.277 124.998C308.435 124.998 309.618 124.394 310.076 122.85H313.261C312.489 126.397 309.811 127.579 307.108 127.579C303.224 127.579 300.739 124.732 300.739 120.799C300.739 116.842 303.369 113.995 307.253 113.995ZM315.249 114.285H318.579V127.266H315.249V114.285ZM315.249 109.773H318.579V112.861H315.249V109.773ZM331.988 118.193H328.875C328.61 117.108 327.645 116.336 326.1 116.336C324.87 116.336 324.001 116.794 324.001 117.59C324.001 118.29 324.508 118.821 325.738 119.086L327.476 119.472C330.057 120.051 332.253 120.703 332.253 123.381C332.253 125.987 329.575 127.579 326.631 127.579C323.446 127.579 321.033 125.939 320.72 122.971H323.929C324.122 124.225 324.99 125.166 326.728 125.166C328.175 125.166 329.068 124.636 329.068 123.695C329.068 122.73 328.079 122.368 326.945 122.102L325.015 121.692C322.578 121.185 320.961 120.172 320.961 117.807C320.961 115.491 323.47 113.947 326.269 113.947C328.972 113.947 331.529 115.202 331.988 118.193ZM340.123 113.995C342.85 113.995 345.552 115.515 346.01 118.724H342.825C342.56 117.47 341.402 116.577 340.123 116.577C338.386 116.577 337.011 118.049 337.011 120.751C337.011 123.478 338.313 124.998 340.147 124.998C341.305 124.998 342.488 124.394 342.946 122.85H346.131C345.359 126.397 342.681 127.579 339.978 127.579C336.094 127.579 333.609 124.732 333.609 120.799C333.609 116.842 336.238 113.995 340.123 113.995ZM353.883 116.601C352.049 116.601 350.746 118.073 350.746 120.799C350.746 123.526 352.049 124.973 353.883 124.973C355.717 124.973 357.02 123.526 357.02 120.799C357.02 118.073 355.717 116.601 353.883 116.601ZM353.883 127.579C350.602 127.579 347.369 125.335 347.369 120.799C347.369 116.239 350.602 113.995 353.883 113.995C357.165 113.995 360.398 116.239 360.398 120.799C360.398 125.335 357.165 127.579 353.883 127.579Z"/><path fill="#000" d="M228.09 138.236C230.883 138.236 232.689 139.706 232.689 142.163C232.689 145.25 230.043 148.253 224.436 152.474H233.151V153.734H222.63V152.432C228.237 148.169 231.303 145.145 231.303 142.31C231.303 140.357 229.812 139.391 228.09 139.391C226.179 139.391 224.436 140.294 224.373 143.213H222.987C223.134 139.958 225.066 138.236 228.09 138.236ZM240.949 154.007C236.917 154.007 235.09 150.962 235.09 146.111C235.09 141.302 236.917 138.236 240.949 138.236C244.939 138.236 246.787 141.302 246.787 146.111C246.787 150.962 244.939 154.007 240.949 154.007ZM240.949 152.852C243.679 152.852 245.422 150.71 245.422 146.111C245.422 141.554 243.679 139.391 240.949 139.391C238.198 139.391 236.476 141.554 236.476 146.111C236.476 150.71 238.198 152.852 240.949 152.852ZM254.012 138.236C256.805 138.236 258.611 139.706 258.611 142.163C258.611 145.25 255.965 148.253 250.358 152.474H259.073V153.734H248.552V152.432C254.159 148.169 257.225 145.145 257.225 142.31C257.225 140.357 255.734 139.391 254.012 139.391C252.101 139.391 250.358 140.294 250.295 143.213H248.909C249.056 139.958 250.988 138.236 254.012 138.236ZM265.569 152.852C267.879 152.852 269.559 151.655 269.559 149.534C269.559 147.203 267.795 146.258 264.939 146.258H264.813V145.103H264.939C267.795 145.103 269.16 144.053 269.16 142.205C269.16 140.63 267.921 139.391 265.674 139.391C264.078 139.391 262.251 140.252 261.915 142.604H260.529C260.865 140 262.734 138.236 265.779 138.236C268.698 138.236 270.546 139.706 270.546 142.079C270.546 143.591 269.748 145.04 268.047 145.628C269.664 146.069 270.945 147.161 270.945 149.513C270.945 152.537 268.425 154.007 265.59 154.007C262.545 154.007 260.508 152.033 260.235 149.45H261.621C262.062 151.802 263.763 152.852 265.569 152.852ZM278.637 148.715H272.757V147.245H278.637V148.715ZM286.538 154.007C282.506 154.007 280.679 150.962 280.679 146.111C280.679 141.302 282.506 138.236 286.538 138.236C290.528 138.236 292.376 141.302 292.376 146.111C292.376 150.962 290.528 154.007 286.538 154.007ZM286.538 152.852C289.268 152.852 291.011 150.71 291.011 146.111C291.011 141.554 289.268 139.391 286.538 139.391C283.787 139.391 282.065 141.554 282.065 146.111C282.065 150.71 283.787 152.852 286.538 152.852ZM295.989 148.904C295.989 151.235 297.606 152.852 299.874 152.852C302.163 152.852 303.759 151.235 303.759 148.904C303.759 146.405 302.226 144.788 299.874 144.788C297.522 144.788 295.989 146.405 295.989 148.904ZM300.126 139.391C297.459 139.391 295.737 141.68 295.737 146.069C296.43 144.641 298.005 143.633 300.021 143.633C303.045 143.633 305.145 145.817 305.145 148.841C305.145 151.697 303.087 154.007 299.874 154.007C296.115 154.007 294.414 151.319 294.414 146.72C294.414 141.932 295.947 138.236 300.336 138.236C303.066 138.236 304.62 139.832 304.893 142.016H303.507C303.234 140.231 301.911 139.391 300.126 139.391ZM313.029 148.715H307.149V147.245H313.029V148.715ZM319.616 138.236C322.409 138.236 324.215 139.706 324.215 142.163C324.215 145.25 321.569 148.253 315.962 152.474H324.677V153.734H314.156V152.432C319.763 148.169 322.829 145.145 322.829 142.31C322.829 140.357 321.338 139.391 319.616 139.391C317.705 139.391 315.962 140.294 315.899 143.213H314.513C314.66 139.958 316.592 138.236 319.616 138.236ZM335.268 143.339C335.268 141.008 333.651 139.391 331.383 139.391C329.094 139.391 327.498 141.008 327.498 143.339C327.498 145.817 329.031 147.455 331.383 147.455C333.735 147.455 335.268 145.817 335.268 143.339ZM331.131 152.852C333.819 152.852 335.52 150.563 335.52 146.174C334.827 147.602 333.252 148.61 331.236 148.61C328.212 148.61 326.112 146.426 326.112 143.402C326.112 140.546 328.17 138.236 331.383 138.236C335.142 138.236 336.843 140.924 336.843 145.502C336.843 150.269 335.31 154.007 330.921 154.007C328.191 154.007 326.637 152.348 326.364 150.227H327.771C328.023 152.012 329.346 152.852 331.131 152.852Z"/></g><defs><linearGradient id="paint0_linear_4723_16579" x1="363.767" x2="363.767" y1="-79.38" y2="147.13" gradientUnits="userSpaceOnUse"><stop stop-color="#EDDD0C"/><stop offset="1" stop-color="#F3E71B"/></linearGradient><linearGradient id="paint1_linear_4723_16579" x1="298.167" x2="298.167" y1="213.947" y2="68.92" gradientUnits="userSpaceOnUse"><stop stop-color="#EDDD0C"/><stop offset="1" stop-color="#F3E71B"/></linearGradient><linearGradient id="paint2_linear_4723_16579" x1="244.999" x2="158.601" y1="240" y2="27.543" gradientUnits="userSpaceOnUse"><stop stop-color="#EDDD0C"/><stop offset=".395" stop-color="#CCBD00"/><stop offset="1" stop-color="#EDDD0C"/></linearGradient><linearGradient id="paint3_linear_4723_16579" x1="567" x2="526.651" y1="109.5" y2="14.484" gradientUnits="userSpaceOnUse"><stop stop-color="#EDDD0C"/><stop offset=".395" stop-color="#CCBD00"/><stop offset="1" stop-color="#EDDD0C"/></linearGradient><clipPath id="clip0_4723_16579"><rect width="560" height="240" fill="#fff"/></clipPath><clipPath id="clip1_4723_16579"><rect width="560" height="240" fill="#fff"/></clipPath></defs></svg>