<svg xmlns="http://www.w3.org/2000/svg" width="560" height="240" fill="none" viewBox="0 0 560 240"><g clip-path="url(#clip0_6244_1320)"><rect width="560" height="240" fill="#FFF100"/><g clip-path="url(#clip1_6244_1320)"><rect width="560" height="240" fill="#FFF100"/><path fill="#EDDD0C" d="M387 170.5L451.783 170.5C462.828 170.5 471.782 161.546 471.782 150.5L471.782 67.5001C471.782 56.4544 480.737 47.5001 491.782 47.5001L692.082 47.5001C703.128 47.5001 712.082 56.4544 712.082 67.5001L712.082 241.913C712.082 252.958 703.128 261.913 692.082 261.913L387 261.913C375.954 261.913 367 252.958 367 241.913L367 190.5C367 179.454 375.954 170.5 387 170.5Z"/><path fill="#EDDD0C" d="M141.127 314L141.127 77.9839C141.127 66.9382 150.081 57.9839 161.127 57.9839L199.812 57.9839C210.857 57.9839 219.812 49.0296 219.812 37.9839L219.812 -86.9999C219.812 -98.0456 210.857 -107 199.812 -107L-54.0001 -107C-65.0458 -107 -74.0001 -98.0457 -74.0001 -87L-74.0002 314C-74.0002 325.046 -65.0458 334 -54.0002 334L121.127 334C132.173 334 141.127 325.046 141.127 314Z"/><rect width="546" height="169" x="417" y="194" fill="#FFF100" rx="20"/><rect width="598" height="204" x="-513" y="-43" fill="#FFF100" rx="20"/></g><path fill="#000" d="M239.5 153.5C220.967 153.5 206 138.533 206 120C206 101.467 220.967 86.5 239.5 86.5C258.033 86.5 273 101.467 273 120C273 138.533 258.033 153.5 239.5 153.5Z"/><path fill="#FFF100" d="M257.413 115.031H250.841V124.949H257.413C260.137 124.949 262.402 122.684 262.402 119.96C262.402 117.215 260.137 115.031 257.413 115.031Z"/><path fill="#FFF100" d="M218.642 120C218.642 127.654 224.873 133.885 232.526 133.885C240.18 133.885 246.411 127.654 246.411 120C246.411 112.346 240.18 106.115 232.526 106.115C224.873 106.115 218.642 112.346 218.642 120Z"/><path fill="#000" d="M298 96.7173L321.435 120L298 143.282V133.969L312.061 120L298 106.03V96.7173Z"/><path fill="#000" d="M314.435 96.7173L337.565 120L314.435 143.282V133.969L328.313 120L314.435 106.03V96.7173Z"/><path fill="#000" d="M330.565 96.7173L354 120L330.565 143.282V133.969L344.626 120L330.565 106.03V96.7173Z"/></g><defs><clipPath id="clip0_6244_1320"><rect width="560" height="240" fill="#fff"/></clipPath><clipPath id="clip1_6244_1320"><rect width="560" height="240" fill="#fff"/></clipPath></defs></svg>