<svg width="367" height="206" viewBox="0 0 367 206" fill="none" xmlns="http://www.w3.org/2000/svg">
<g clip-path="url(#clip0_3959_17091)">
<rect width="367" height="206" fill="#00C770"/>
<path d="M135 136.5C116.467 136.5 101.5 121.533 101.5 103C101.5 84.4668 116.467 69.5 135 69.5C153.533 69.5 168.5 84.4668 168.5 103C168.5 121.533 153.533 136.5 135 136.5Z" fill="black"/>
<path d="M152.912 98.0307H146.341V107.948H152.912C155.637 107.948 157.901 105.684 157.901 102.96C157.901 100.215 155.637 98.0307 152.912 98.0307Z" fill="#00C770"/>
<path d="M114.141 103C114.141 110.654 120.372 116.885 128.026 116.885C135.68 116.885 141.911 110.654 141.911 103C141.911 95.3465 135.68 89.1154 128.026 89.1154C120.372 89.1154 114.141 95.3465 114.141 103Z" fill="#00C770"/>
<path d="M232 136.5C213.553 136.5 198.5 121.595 198.5 103C198.5 84.4053 213.405 69.5 232 69.5C250.595 69.5 265.5 84.4053 265.5 103C265.5 121.595 250.595 136.5 232 136.5Z" fill="black"/>
<path d="M232.59 99.1627L231.115 96.3587C231.115 95.916 230.524 95.916 230.082 96.0635C228.606 96.8014 226.982 97.3917 225.359 97.8345C223.145 98.5724 220.784 99.3102 218.571 100.638C216.062 102.262 212.225 105.951 210.601 107.87C210.159 108.46 210.159 109.345 210.601 109.788L211.93 110.969C212.52 111.412 213.258 111.412 213.848 110.969C214.881 109.936 216.062 108.755 217.242 107.87C218.718 106.542 220.194 105.361 221.522 104.623C224.769 103 228.753 102.114 232.148 100.343C232.59 100.048 232.59 99.6054 232.443 99.3102L232.59 99.1627Z" fill="#00C770"/>
<path d="M238.641 103.885L235.837 102.409C235.394 102.409 234.952 102.409 234.804 102.705C233.919 104.328 233.181 106.099 232.59 107.87C231.852 109.788 231.262 111.559 230.524 113.33C229.196 115.987 226.392 118.643 224.178 121.004C221.965 123.365 223.736 122.332 224.178 122.923L225.359 124.251C225.802 124.841 226.687 124.841 227.278 124.251C228.458 123.218 229.639 122.037 230.819 120.857C232.295 119.233 233.919 117.462 234.952 115.544C236.722 112.002 237.46 108.313 239.084 104.918C239.084 104.475 239.084 104.18 238.789 103.885H238.641Z" fill="#00C770"/>
<path d="M250.152 89.1273L249.561 88.537L241.887 93.8498L241.002 92.9643L246.315 85.2903L245.724 84.7C245.429 84.4048 244.986 84.4048 244.691 84.7L238.788 88.9797C238.493 88.9797 238.345 89.4225 238.198 89.7176L236.575 93.2595L232.442 95.6207L233.771 98.2771V98.5722L235.394 97.8344L236.722 99.1626L235.984 100.638L238.788 101.967L241.149 97.8344L244.691 96.211C244.986 96.211 245.134 95.9159 245.429 95.6207L249.709 89.7176C249.709 89.4225 249.709 88.9797 249.709 88.6846L250.152 89.1273ZM238.936 97.6868C238.05 97.6868 237.312 96.9489 237.312 96.0634C237.312 95.178 238.05 94.4401 238.936 94.4401C239.821 94.4401 240.559 95.178 240.559 96.0634C240.559 96.9489 239.821 97.6868 238.936 97.6868Z" fill="#00C770"/>
<path d="M112.5 184V250H389V80H325.5C314.454 80 305.5 88.9543 305.5 100V144C305.5 155.046 296.546 164 285.5 164L132.5 164C121.454 164 112.5 172.954 112.5 184Z" fill="url(#paint0_linear_3959_17091)"/>
<path d="M316 19.5V-9.5H-9.5V93H13C24.0457 93 33 84.0457 33 73V59.5C33 48.4543 41.9543 39.5 53 39.5L296 39.5C307.046 39.5 316 30.5457 316 19.5Z" fill="url(#paint1_linear_3959_17091)"/>
<g filter="url(#filter0_i_3959_17091)">
<rect x="10" y="168" width="55" height="28" rx="14" fill="#016238"/>
<path d="M23.4387 186.319H26.784V178.311C26.784 178.01 26.7898 177.744 26.8013 177.513C26.8244 177.271 26.836 177.144 26.836 177.132H26.8013C26.732 177.201 26.6569 177.271 26.576 177.34C26.5067 177.398 26.4316 177.461 26.3507 177.531C26.2698 177.588 26.1831 177.646 26.0907 177.704L23.6467 179.333V177.461L26.42 175.52H28.6907V186.319H31.4467V188H23.4387V186.319ZM39.1359 173.613H41.1119L35.0279 189.907H33.0346L39.1359 173.613ZM42.7518 178.935C42.7633 178.392 42.8673 177.9 43.0638 177.461C43.2718 177.022 43.5549 176.647 43.9131 176.335C44.2829 176.023 44.722 175.78 45.2305 175.607C45.7389 175.433 46.2993 175.347 46.9118 175.347C47.5011 175.347 48.0327 175.433 48.5065 175.607C48.9918 175.768 49.4078 176.005 49.7545 176.317C50.1011 176.629 50.3669 177.005 50.5518 177.444C50.7367 177.883 50.8291 178.374 50.8291 178.917C50.8291 179.819 50.5865 180.68 50.1011 181.5C49.6158 182.309 48.8416 183.164 47.7785 184.065L45.8371 185.695C45.7447 185.776 45.6465 185.851 45.5425 185.92C45.4385 185.978 45.3402 186.036 45.2478 186.093C45.1438 186.151 45.0398 186.203 44.9358 186.249V186.319C45.1091 186.307 45.2825 186.296 45.4558 186.284C45.6176 186.284 45.7909 186.284 45.9758 186.284C46.1607 186.272 46.334 186.267 46.4958 186.267H50.9678V188H42.8385V185.955L46.5305 182.887C46.9465 182.528 47.3047 182.188 47.6051 181.864C47.9056 181.54 48.1482 181.223 48.3331 180.911C48.5296 180.599 48.6682 180.287 48.7491 179.975C48.8416 179.663 48.8878 179.333 48.8878 178.987C48.8878 178.386 48.7087 177.912 48.3505 177.565C47.9922 177.207 47.5069 177.028 46.8945 177.028C46.2358 177.028 45.7042 177.201 45.2998 177.548C44.8953 177.895 44.6931 178.357 44.6931 178.935H42.7518Z" fill="#00C770"/>
</g>
<path d="M499 244H391.307H352C340.954 244 332 235.046 332 224V162C332 150.954 340.954 142 352 142H499C510.046 142 519 150.954 519 162V224C519 235.046 510.046 244 499 244Z" fill="#00C770"/>
</g>
<defs>
<filter id="filter0_i_3959_17091" x="10" y="168" width="55" height="32" filterUnits="userSpaceOnUse" color-interpolation-filters="sRGB">
<feFlood flood-opacity="0" result="BackgroundImageFix"/>
<feBlend mode="normal" in="SourceGraphic" in2="BackgroundImageFix" result="shape"/>
<feColorMatrix in="SourceAlpha" type="matrix" values="0 0 0 0 0 0 0 0 0 0 0 0 0 0 0 0 0 0 127 0" result="hardAlpha"/>
<feOffset dy="4"/>
<feGaussianBlur stdDeviation="2"/>
<feComposite in2="hardAlpha" operator="arithmetic" k2="-1" k3="1"/>
<feColorMatrix type="matrix" values="0 0 0 0 0 0 0 0 0 0 0 0 0 0 0 0 0 0 0.25 0"/>
<feBlend mode="normal" in2="shape" result="effect1_innerShadow_3959_17091"/>
</filter>
<linearGradient id="paint0_linear_3959_17091" x1="192.5" y1="191.75" x2="309" y2="191.75" gradientUnits="userSpaceOnUse">
<stop stop-color="#00A05A"/>
<stop offset="1" stop-color="#00874C"/>
</linearGradient>
<linearGradient id="paint1_linear_3959_17091" x1="221.823" y1="25.6213" x2="84.6772" y2="25.6213" gradientUnits="userSpaceOnUse">
<stop stop-color="#00A05A"/>
<stop offset="1" stop-color="#00874C"/>
</linearGradient>
<clipPath id="clip0_3959_17091">
<rect width="367" height="206" fill="white"/>
</clipPath>
</defs>
</svg>
