<svg width="1600" height="900" viewBox="0 0 1600 900" fill="none" xmlns="http://www.w3.org/2000/svg">
<g clip-path="url(#clip0_3975_2800)">
<rect width="1600" height="900" fill="black"/>
<path d="M944 1018L944 632C944 565.726 997.726 512 1064 512L1872 512" stroke="url(#paint0_linear_3975_2800)" stroke-width="15" stroke-linecap="round" stroke-linejoin="round"/>
<path d="M478.5 610.5L1198.5 610.5C1231.64 610.5 1258.5 583.637 1258.5 550.5L1258.5 223C1258.5 189.862 1285.36 163 1318.5 163L1683 163C1716.14 163 1743 189.862 1743 223L1743 882.999C1743 916.136 1716.14 942.999 1683 942.999L478.5 943C445.363 943 418.5 916.137 418.5 883L418.5 670.5C418.5 637.363 445.363 610.5 478.5 610.5Z" fill="url(#paint1_linear_3975_2800)"/>
<path d="M1512 408L2031.74 408L2241 408C2274.14 408 2301 434.863 2301 468L2301 972C2301 1005.14 2274.14 1032 2241 1032L1512 1032C1478.86 1032 1452 1005.14 1452 972L1452 468C1452 434.863 1478.86 408 1512 408Z" fill="black"/>
<path d="M203.498 560.5L203.497 237.685C203.497 204.548 230.36 177.685 263.498 177.685L1040 177.685C1073.14 177.685 1100 150.822 1100 117.685L1100 -27.0005C1100 -60.1376 1073.14 -87.0006 1040 -87.0006L32.0001 -87.0006C-1.13702 -87.0006 -27.9999 -60.1377 -27.9999 -27.0006L-28 560.5C-28 593.637 -1.13708 620.5 32 620.5L143.498 620.5C176.635 620.5 203.498 593.637 203.498 560.5Z" fill="url(#paint2_linear_3975_2800)"/>
<path d="M1600 -104L914.381 -104C848.106 -103.999 794.381 -50.2736 794.381 16.0005L794.381 392C794.381 458.274 740.655 512 674.381 512L-170 512" stroke="url(#paint3_linear_3975_2800)" stroke-width="15" stroke-linecap="round" stroke-linejoin="round"/>
<path d="M768.776 784.577V803.647H776.59V785.746C776.59 777.774 787.443 777.759 787.443 777.759V769.998C787.443 769.998 784.407 770.134 782.009 770.673C775.214 772.204 768.776 775.56 768.776 784.577Z" fill="#EEEEEE"/>
<path d="M709.884 769.612C712.927 769.612 716.729 771.336 718.799 774.364C720.941 771.611 724.467 769.752 728.822 769.68C734.354 769.608 741.199 773.051 741.199 783.384V803.623H733.385V783.38C733.385 779.937 730.896 777.46 727.167 777.46C723.437 777.46 720.948 779.937 720.948 783.38V803.619H713.135V783.38C713.135 779.937 710.646 777.46 706.916 777.46C703.183 777.46 700.626 779.937 700.626 783.38V803.619H692.409V770.634H700.626V773.949C702.84 771.264 706.087 769.608 709.888 769.608H709.884V769.612Z" fill="#EEEEEE"/>
<path d="M759.169 771.058V803.647H751.224V771.058H759.169Z" fill="#EEEEEE"/>
<path d="M755.195 765.872C757.646 765.872 759.629 763.896 759.629 761.456C759.629 759.02 757.642 757.044 755.195 757.044C752.747 757.044 750.76 759.02 750.76 761.456C750.76 763.896 752.743 765.872 755.195 765.872Z" fill="#EEEEEE"/>
<path d="M808.659 769.542C799.039 769.542 791.24 777.303 791.24 786.874C791.24 796.445 799.039 804.205 808.659 804.205C818.279 804.205 826.077 796.445 826.077 786.874C826.077 777.303 818.279 769.542 808.659 769.542ZM808.659 796.414C803.213 796.414 798.797 792.021 798.797 786.602C798.797 781.183 803.213 776.79 808.659 776.79C814.108 776.79 818.52 781.183 818.52 786.602C818.52 792.021 814.108 796.414 808.659 796.414Z" fill="#EEEEEE"/>
<path d="M590.808 762.166C590.808 750.708 600.1 741.416 611.559 741.416H654.677C666.139 741.416 675.428 750.708 675.428 762.166V805.284C675.428 816.747 666.136 826.035 654.677 826.035H611.559C600.1 826.035 590.808 816.743 590.808 805.284V762.166Z" stroke="#EEEEEE" stroke-width="1.61697"/>
<path fill-rule="evenodd" clip-rule="evenodd" d="M647.335 757.044H639.506L646.03 768.508L631.677 757.044H623.849L631.025 771.053L616.02 757.044H608.191L616.02 774.877L608.191 810.54H616.02L631.025 772.332L623.849 810.54H631.677L646.03 769.783L639.506 810.54H647.335L661.687 765.959L647.335 757.044Z" fill="#EEEEEE"/>
<g clip-path="url(#clip1_3975_2800)">
<path d="M929.236 742.222C951.388 742.222 969.337 760.17 969.337 782.323C969.337 804.475 951.388 822.424 929.236 822.424C907.083 822.424 889.135 804.475 889.135 782.323C888.973 760.17 906.922 742.222 929.236 742.222Z" fill="#FF6900"/>
<path d="M907.731 788.468H915.654V776.502H907.731C904.497 776.502 901.748 779.251 901.748 782.485C901.748 785.719 904.335 788.468 907.731 788.468Z" fill="black"/>
<path d="M954.138 782.484C954.138 773.267 946.7 765.829 937.483 765.829C928.266 765.829 920.828 773.267 920.828 782.484C920.828 791.701 928.266 799.139 937.483 799.139C946.7 799.139 954.138 791.377 954.138 782.484Z" fill="black"/>
<path d="M1047.92 771.978V788.795C1047.92 792.352 1045.66 794.939 1042.59 794.939H1041.13C1038.06 794.939 1035.8 792.352 1035.8 788.795V771.978H1029.97V789.765C1029.97 796.233 1034.66 800.76 1040.97 800.76H1042.75C1049.22 800.76 1053.74 796.071 1053.74 789.765V771.978H1047.92ZM1222.07 788.795V783.459C1222.07 779.578 1224.33 776.829 1227.73 776.829H1229.19C1233.39 776.829 1236.3 780.063 1236.3 784.59V787.501C1236.3 792.19 1233.23 795.424 1229.19 795.424H1227.73C1224.33 795.262 1222.07 792.675 1222.07 788.795ZM1216.74 788.795C1216.74 795.748 1221.26 800.76 1227.57 800.76H1229.02C1231.61 800.76 1233.88 799.467 1235.65 797.365V800.275H1241.31V771.978H1235.65V775.05C1233.88 772.948 1231.61 771.655 1229.02 771.655H1227.57C1221.1 771.655 1216.74 776.506 1216.74 783.62V788.795ZM1191.67 800.275H1213.99V794.454H1197.49V763.731H1191.67V800.275ZM1252.15 787.501V784.59C1252.15 780.063 1255.06 776.829 1259.26 776.829H1260.72C1264.11 776.829 1266.38 779.578 1266.38 783.459V788.633C1266.38 792.514 1264.11 795.262 1260.72 795.262H1259.26C1255.06 795.262 1252.15 792.19 1252.15 787.501ZM1246.97 800.275H1252.63V797.203C1254.41 799.305 1256.67 800.598 1259.26 800.598H1260.72C1267.18 800.598 1271.71 795.586 1271.71 788.633V783.459C1271.71 776.344 1267.18 771.493 1260.72 771.493H1259.26C1256.67 771.493 1254.41 772.787 1252.63 774.889V763.893H1246.97V800.275ZM1292.25 779.901H1297.75C1296.78 774.727 1292.41 771.493 1286.27 771.493C1279.31 771.493 1275.11 774.565 1275.11 779.578C1275.11 783.459 1278.18 786.531 1283.19 787.339L1287.72 788.309C1290.79 788.956 1292.73 790.25 1292.73 792.19C1292.73 794.454 1290.47 795.909 1286.91 795.909C1283.35 795.909 1281.09 794.131 1280.44 791.382H1274.62C1275.43 797.203 1279.96 800.76 1286.59 800.76C1293.86 800.76 1298.23 797.041 1298.23 791.382C1298.23 787.178 1294.51 784.105 1288.53 782.973L1284.32 782.165C1282.06 781.518 1280.61 780.386 1280.61 778.931C1280.61 777.152 1282.71 776.02 1285.94 776.02C1289.5 776.182 1291.76 777.637 1292.25 779.901ZM1101.61 782.165L1112.44 770.684H1104.19L1094.65 781.033V763.731H1088.83V800.113H1094.65V789.441L1097.4 786.531L1106.94 800.275H1114.22L1101.61 782.165ZM1009.92 794.454H1002.81V769.714H1009.92C1015.42 769.714 1019.79 775.212 1019.79 782.003C1019.79 788.795 1015.42 794.454 1009.92 794.454ZM1009.92 763.731H996.988V800.275H1009.92C1018.49 800.275 1025.61 792.19 1025.61 782.003C1025.61 771.816 1018.66 763.731 1009.92 763.731ZM1131.2 794.454H1124.24V769.714H1131.2C1136.69 769.714 1141.06 775.212 1141.06 782.003C1141.06 788.795 1136.69 794.454 1131.2 794.454ZM1131.2 763.731H1118.42V800.275H1131.2C1139.93 800.275 1146.88 792.19 1146.88 782.003C1146.88 771.816 1139.93 763.731 1131.2 763.731ZM1166.29 794.454H1157.23V784.267H1166.29C1169.03 784.267 1171.3 786.531 1171.3 789.28C1171.3 792.19 1169.03 794.454 1166.29 794.454ZM1157.23 778.446V769.714H1164.51C1166.93 769.714 1168.87 771.655 1168.87 774.08C1168.87 776.506 1166.93 778.446 1164.51 778.446H1157.23ZM1172.59 780.386C1173.89 778.608 1174.86 776.344 1174.86 774.08C1174.86 768.421 1170.17 763.731 1164.51 763.731H1151.41V800.275H1166.29C1172.27 800.275 1177.12 795.424 1177.12 789.28C1177.12 785.722 1175.34 782.327 1172.59 780.386ZM1070.4 777.314H1071.85C1075.41 777.314 1078.16 779.901 1078.16 782.973H1084.14C1084.14 776.667 1078.65 771.493 1071.85 771.493H1070.4C1063.77 771.493 1058.43 776.829 1058.43 783.459V788.633C1058.43 795.262 1063.77 800.598 1070.4 800.598H1071.85C1078.81 800.598 1084.47 795.424 1084.47 789.118H1078.48C1078.48 792.19 1075.41 794.616 1071.85 794.616H1070.4C1067 794.616 1064.25 791.867 1064.25 788.633V783.459C1064.25 780.063 1067 777.314 1070.4 777.314Z" fill="#FF6900"/>
</g>
<path d="M121.673 103.211C121.673 80.3848 108.103 76.9135 94.2178 76.9135H87.2752V129.614H94.2178C108.103 129.614 121.673 126.248 121.673 103.211ZM72.2329 65.1321H94.8489C119.043 65.1321 137.241 72.9163 137.241 103.211C137.241 133.506 119.043 141.396 94.8489 141.396H72.2329V65.1321ZM181.109 141.396V133.927C177.848 139.712 171.642 142.763 164.594 142.763C151.024 142.763 145.554 134.453 145.554 120.568V84.8028H160.071V117.412C160.071 124.986 161.228 131.087 169.327 131.087C179.005 131.087 181.109 123.197 181.109 114.256V84.8028H195.625V141.396H181.109ZM233.365 83.5405C245.251 83.5405 257.033 90.1676 259.031 104.158H245.146C243.989 98.688 238.94 94.796 233.365 94.796C225.791 94.796 219.795 101.213 219.795 112.994C219.795 124.881 225.475 131.508 233.47 131.508C238.519 131.508 243.673 128.878 245.672 122.146H259.557C256.191 137.609 244.515 142.763 232.734 142.763C215.798 142.763 204.963 130.35 204.963 113.204C204.963 95.9531 216.429 83.5405 233.365 83.5405ZM268.226 65.1321H282.742V107.524L303.359 84.8028H319.664L299.362 106.472L320.821 141.396H304.516L289.685 116.886L282.742 124.355V141.396H268.226V65.1321ZM376.329 103.211C376.329 80.3848 362.759 76.9135 348.874 76.9135H341.932V129.614H348.874C362.759 129.614 376.329 126.248 376.329 103.211ZM326.889 65.1321H349.505C373.699 65.1321 391.897 72.9163 391.897 103.211C391.897 133.506 373.699 141.396 349.505 141.396H326.889V65.1321ZM402.495 141.396V65.1321H432.159C445.518 65.1321 459.929 69.3398 459.929 85.0132C459.929 92.1662 455.196 98.5828 451.304 101.107C457.194 103.948 462.664 108.366 462.664 118.885C462.664 135.294 449.095 141.396 433.421 141.396H402.495ZM417.537 107.945V129.614H434.158C442.994 129.614 447.306 125.932 447.306 118.885C447.306 111.732 442.888 107.945 433.526 107.945H417.537ZM417.537 76.9135V96.5842H433.106C440.259 96.5842 444.466 93.2181 444.466 86.4859C444.466 80.49 440.154 76.9135 433.106 76.9135H417.537ZM543.835 141.396H528.898L510.068 84.0665V141.396H496.078V65.1321H517.958L536.471 124.565L554.459 65.1321H576.549V141.396H562.559V84.0665L543.835 141.396ZM642.349 117.096H600.588C601.43 126.774 607.952 131.508 614.894 131.508C619.418 131.508 623.836 129.93 626.781 124.986H641.718C638.668 133.401 630.463 142.763 615 142.763C596.802 142.763 586.177 129.193 586.177 112.889C586.177 96.0583 597.853 83.5405 614.579 83.5405C632.041 83.5405 642.875 97.1102 642.349 117.096ZM614.474 94.1648C609.004 94.1648 601.956 97.5309 600.799 107.103H627.623C627.307 97.5309 620.575 94.1648 614.474 94.1648ZM705.731 117.096H663.97C664.812 126.774 671.333 131.508 678.276 131.508C682.799 131.508 687.217 129.93 690.163 124.986H705.1C702.049 133.401 693.844 142.763 678.381 142.763C660.183 142.763 649.559 129.193 649.559 112.889C649.559 96.0583 661.235 83.5405 677.96 83.5405C695.422 83.5405 706.257 97.1102 705.731 117.096ZM677.855 94.1648C672.385 94.1648 665.338 97.5309 664.18 107.103H691.004C690.689 97.5309 683.956 94.1648 677.855 94.1648ZM717.08 84.8028V69.445H731.596V84.8028H743.378V94.796H731.596V124.039C731.596 129.825 733.595 130.982 738.749 130.982H743.167V141.396H732.543C719.499 141.396 717.08 137.398 717.08 126.143V94.796H709.085V84.8028H717.08ZM787.497 141.396V133.927C784.236 139.712 778.03 142.763 770.982 142.763C757.412 142.763 751.942 134.453 751.942 120.568V84.8028H766.459V117.412C766.459 124.986 767.616 131.087 775.716 131.087C785.393 131.087 787.497 123.197 787.497 114.256V84.8028H802.013V141.396H787.497ZM842.278 131.613C849.851 131.613 855.216 124.249 855.216 113.204C855.216 102.159 849.851 94.6908 842.278 94.6908C834.283 94.6908 829.024 101.739 829.024 113.099C829.024 124.775 834.283 131.613 842.278 131.613ZM829.549 159.804H815.033V84.8028H829.549V92.061C832.6 86.6963 838.701 83.5405 845.854 83.5405C859.529 83.5405 870.469 95.3219 870.469 113.099C870.469 131.192 859.213 142.763 845.749 142.763C839.858 142.763 833.231 140.554 829.549 134.243V159.804ZM903.056 82.8042H917.783L920.203 65.1321H933.246L930.827 82.8042H944.817L947.237 65.1321H960.28L957.861 82.8042H972.377L971.01 94.0596H956.283L954.074 109.943H968.485L967.328 121.094H952.496L949.761 141.396H936.718L939.453 121.094H925.462L922.727 141.396H909.684L912.418 121.094H898.007L899.375 109.943H913.996L916.205 94.0596H901.899L903.056 82.8042ZM929.249 94.0596L927.04 109.943H941.03L943.239 94.0596H929.249ZM1004.21 141.396H989.693V84.3821H973.283V74.4941C984.223 74.1786 989.587 73.4422 993.164 65.1321H1004.21V141.396ZM65.3955 242.396L93.797 166.132H108.945L137.451 242.396H121.147L115.782 226.932H86.1181L80.7534 242.396H65.3955ZM100.95 184.541L90.4309 214.625H111.469L100.95 184.541ZM213.564 242.396V209.471C213.564 203.265 213.038 196.217 204.518 196.217C194.84 196.217 193.262 204.316 193.262 212.942V242.396H178.746V209.471C178.746 203.265 178.22 196.217 169.7 196.217C160.022 196.217 158.444 204.316 158.444 212.942V242.396H143.928V185.803H158.444V193.271C161.705 187.696 167.385 184.541 174.223 184.541C183.795 184.541 188.108 189.695 190.317 193.797C194.84 187.486 200.415 184.541 208.936 184.541C223.137 184.541 228.081 193.377 228.081 206.736V242.396H213.564ZM285.727 202.844H272.157C271 198.11 266.792 194.744 260.06 194.744C254.695 194.744 250.909 196.743 250.909 200.214C250.909 203.265 253.118 205.579 258.482 206.736L266.056 208.419C277.311 210.943 286.884 213.784 286.884 225.46C286.884 236.82 275.208 243.763 262.374 243.763C248.489 243.763 237.97 236.61 236.603 223.672H250.593C251.435 229.141 255.221 233.244 262.795 233.244C269.107 233.244 272.999 230.93 272.999 226.827C272.999 222.62 268.686 221.042 263.742 219.885L255.327 218.096C244.702 215.887 237.655 211.469 237.655 201.161C237.655 191.062 248.594 184.33 260.797 184.33C272.578 184.33 283.728 189.8 285.727 202.844ZM298.679 185.803V170.445H313.196V185.803H324.977V195.796H313.196V225.039C313.196 230.825 315.194 231.982 320.349 231.982H324.767V242.396H314.142C301.099 242.396 298.679 238.398 298.679 227.143V195.796H290.685V185.803H298.679ZM386.768 218.096H345.008C345.849 227.774 352.371 232.508 359.314 232.508C363.837 232.508 368.255 230.93 371.2 225.986H386.137C383.087 234.401 374.882 243.763 359.419 243.763C341.221 243.763 330.596 230.193 330.596 213.889C330.596 197.058 342.273 184.541 358.998 184.541C376.46 184.541 387.294 198.11 386.768 218.096ZM358.893 195.165C353.423 195.165 346.375 198.531 345.218 208.103H372.042C371.726 198.531 364.994 195.165 358.893 195.165ZM428.518 186.118V199.793C426.414 199.478 424.626 199.478 422.522 199.478C415.369 199.478 410.635 202.107 410.635 212.732V242.396H396.119V185.803H410.425V195.691C413.686 188.643 418.735 185.908 425.362 185.908C426.309 185.908 427.571 186.013 428.518 186.118ZM487.73 242.396H473.214V235.243C469.532 241.554 462.8 243.763 456.909 243.763C443.445 243.763 432.295 232.192 432.295 214.099C432.295 196.322 443.234 184.541 456.909 184.541C464.062 184.541 470.163 187.696 473.214 193.061V166.132H487.73V242.396ZM460.486 232.613C468.48 232.613 473.74 225.775 473.74 214.099C473.74 202.739 468.48 195.691 460.486 195.691C452.912 195.691 447.547 203.159 447.547 214.204C447.547 225.249 452.912 232.613 460.486 232.613ZM536.14 220.726V216.519C519.836 218.202 513.419 220.095 513.419 226.406C513.419 230.509 516.575 233.875 523.202 233.875C532.353 233.875 536.14 229.036 536.14 220.726ZM537.402 235.348C533.3 241.238 527.409 243.763 518.889 243.763C508.054 243.763 498.482 237.452 498.482 227.143C498.482 213.784 513.419 209.786 535.719 207.262V206.315C535.719 197.584 530.986 194.534 525.095 194.534C519.52 194.534 514.892 197.374 514.576 203.685H501.006C502.163 192.535 511.21 184.33 525.831 184.33C539.191 184.33 550.236 190.221 550.236 209.26C550.236 210.943 550.025 218.622 550.025 223.672C550.025 232.613 550.551 237.662 551.708 242.396H538.349C537.928 240.607 537.718 238.188 537.402 235.348ZM631.965 242.396V209.471C631.965 203.265 631.439 196.217 622.918 196.217C613.241 196.217 611.663 204.316 611.663 212.942V242.396H597.147V209.471C597.147 203.265 596.621 196.217 588.1 196.217C578.423 196.217 576.845 204.316 576.845 212.942V242.396H562.329V185.803H576.845V193.271C580.106 187.696 585.786 184.541 592.623 184.541C602.196 184.541 606.509 189.695 608.718 193.797C613.241 187.486 618.816 184.541 627.336 184.541C641.537 184.541 646.481 193.377 646.481 206.736V242.396H631.965Z" fill="#EEEEEE"/>
<path d="M94.6389 290.976C108.051 290.976 116.723 298.035 116.723 309.833C116.723 324.656 104.017 339.076 77.0929 359.345H118.941V365.396H68.4207V359.143C95.3448 338.673 110.067 324.152 110.067 310.539C110.067 301.161 102.908 296.522 94.6389 296.522C85.4625 296.522 77.0929 300.858 76.7903 314.875H70.135C70.8408 299.245 80.118 290.976 94.6389 290.976ZM156.386 366.706C137.025 366.706 128.252 352.085 128.252 328.791C128.252 305.699 137.025 290.976 156.386 290.976C175.546 290.976 184.42 305.699 184.42 328.791C184.42 352.085 175.546 366.706 156.386 366.706ZM156.386 361.16C169.495 361.16 177.865 350.875 177.865 328.791C177.865 306.909 169.495 296.522 156.386 296.522C143.176 296.522 134.908 306.909 134.908 328.791C134.908 350.875 143.176 361.16 156.386 361.16ZM219.112 290.976C232.524 290.976 241.196 298.035 241.196 309.833C241.196 324.656 228.49 339.076 201.566 359.345H243.415V365.396H192.894V359.143C219.818 338.673 234.541 324.152 234.541 310.539C234.541 301.161 227.381 296.522 219.112 296.522C209.936 296.522 201.566 300.858 201.264 314.875H194.608C195.314 299.245 204.591 290.976 219.112 290.976ZM282.695 300.959L250.829 340.085H282.695V300.959ZM303.165 340.085V346.236H288.947V365.396H282.695V346.236H243.367V340.589L282.795 292.287H288.947V340.085H303.165ZM336.77 341.295H308.535V334.236H336.77V341.295ZM361.066 365.396H354.814V306.203H338.075V301.968C350.882 301.968 354.108 300.657 356.831 291.682H361.066V365.396ZM404.447 366.706C385.086 366.706 376.313 352.085 376.313 328.791C376.313 305.699 385.086 290.976 404.447 290.976C423.606 290.976 432.48 305.699 432.48 328.791C432.48 352.085 423.606 366.706 404.447 366.706ZM404.447 361.16C417.556 361.16 425.926 350.875 425.926 328.791C425.926 306.909 417.556 296.522 404.447 296.522C391.237 296.522 382.968 306.909 382.968 328.791C382.968 350.875 391.237 361.16 404.447 361.16ZM470.501 341.295H442.266V334.236H470.501V341.295ZM494.797 365.396H488.544V306.203H471.805V301.968C484.612 301.968 487.839 300.657 490.561 291.682H494.797V365.396ZM505.102 298.337V292.287H555.017V298.337C535.656 312.556 523.152 334.438 522.043 365.396H515.085C517.001 332.421 530.009 311.144 547.353 298.337H505.102Z" fill="#EEEEEE"/>
</g>
<defs>
<linearGradient id="paint0_linear_3975_2800" x1="793.547" y1="-351.801" x2="2668.43" y2="1330.2" gradientUnits="userSpaceOnUse">
<stop offset="0.0928008" stop-color="#292058"/>
<stop offset="0.387106" stop-color="#5C4CB8"/>
<stop offset="0.765429" stop-color="#292058"/>
</linearGradient>
<linearGradient id="paint1_linear_3975_2800" x1="335.5" y1="553" x2="1743" y2="553" gradientUnits="userSpaceOnUse">
<stop stop-color="#2A2A2A"/>
<stop offset="1" stop-color="#0E0E0E"/>
</linearGradient>
<linearGradient id="paint2_linear_3975_2800" x1="1100" y1="274.5" x2="-28" y2="274.5" gradientUnits="userSpaceOnUse">
<stop stop-color="#2A2A2A"/>
<stop offset="1" stop-color="#0E0E0E"/>
</linearGradient>
<linearGradient id="paint3_linear_3975_2800" x1="1687.89" y1="-160.05" x2="1395.04" y2="1028.41" gradientUnits="userSpaceOnUse">
<stop offset="0.0928008" stop-color="#292058"/>
<stop offset="0.387106" stop-color="#5C4CB8"/>
<stop offset="0.765429" stop-color="#292058"/>
</linearGradient>
<clipPath id="clip0_3975_2800">
<rect width="1600" height="900" fill="white"/>
</clipPath>
<clipPath id="clip1_3975_2800">
<rect width="409.095" height="80.2019" fill="white" transform="translate(889.137 742.223)"/>
</clipPath>
</defs>
</svg>
