<svg width="1600" height="900" viewBox="0 0 1600 900" fill="none" xmlns="http://www.w3.org/2000/svg">
<g clip-path="url(#clip0_3975_2800)">
<rect width="1600" height="900" fill="black"/>
<path d="M944 1018L944 632C944 565.726 997.726 512 1064 512L1872 512" stroke="url(#paint0_linear_3975_2800)" stroke-width="15" stroke-linecap="round" stroke-linejoin="round"/>
<path d="M478.5 610.5L1198.5 610.5C1231.64 610.5 1258.5 583.637 1258.5 550.5L1258.5 223C1258.5 189.862 1285.36 163 1318.5 163L1683 163C1716.14 163 1743 189.862 1743 223L1743 882.999C1743 916.136 1716.14 942.999 1683 942.999L478.5 943C445.363 943 418.5 916.137 418.5 883L418.5 670.5C418.5 637.363 445.363 610.5 478.5 610.5Z" fill="url(#paint1_linear_3975_2800)"/>
<path d="M1512 408L2031.74 408L2241 408C2274.14 408 2301 434.863 2301 468L2301 972C2301 1005.14 2274.14 1032 2241 1032L1512 1032C1478.86 1032 1452 1005.14 1452 972L1452 468C1452 434.863 1478.86 408 1512 408Z" fill="black"/>
<path d="M203.498 560.5L203.497 237.685C203.497 204.548 230.36 177.685 263.498 177.685L1040 177.685C1073.14 177.685 1100 150.822 1100 117.685L1100 -27.0005C1100 -60.1376 1073.14 -87.0006 1040 -87.0006L32.0001 -87.0006C-1.13702 -87.0006 -27.9999 -60.1377 -27.9999 -27.0006L-28 560.5C-28 593.637 -1.13708 620.5 32 620.5L143.498 620.5C176.635 620.5 203.498 593.637 203.498 560.5Z" fill="url(#paint2_linear_3975_2800)"/>
<path d="M1600 -104L914.381 -104C848.106 -103.999 794.381 -50.2736 794.381 16.0005L794.381 392C794.381 458.274 740.655 512 674.381 512L-170 512" stroke="url(#paint3_linear_3975_2800)" stroke-width="15" stroke-linecap="round" stroke-linejoin="round"/>
<path d="M86.912 69.672C94.416 69.672 99.792 73.424 99.792 80.312C99.792 89.72 89.992 98.008 78.624 106.24H100.912V111H71.68V106.408C86.016 95.824 94.416 88.208 94.416 80.984C94.416 76.728 91.672 73.928 86.8 73.928C82.432 73.928 78.232 76.336 78.064 83.056H72.8C72.632 74.992 78.232 69.672 86.912 69.672ZM131.871 90.672C131.871 79.416 127.839 73.928 121.511 73.928C115.071 73.928 111.151 79.416 111.151 90.672C111.151 102.04 115.071 107.472 121.511 107.472C127.951 107.472 131.871 102.04 131.871 90.672ZM137.303 90.672C137.303 103.496 132.319 111.728 121.511 111.728C110.703 111.728 105.719 103.496 105.719 90.672C105.719 77.848 110.703 69.672 121.511 69.672C132.319 69.672 137.303 77.848 137.303 90.672ZM156.967 69.672C164.471 69.672 169.847 73.424 169.847 80.312C169.847 89.72 160.047 98.008 148.679 106.24H170.967V111H141.735V106.408C156.071 95.824 164.471 88.208 164.471 80.984C164.471 76.728 161.727 73.928 156.855 73.928C152.487 73.928 148.287 76.336 148.119 83.056H142.855C142.687 74.992 148.287 69.672 156.967 69.672ZM192.503 77.4L177.999 96.16H192.503V77.4ZM205.103 96.16V100.976H197.655V111H192.503V100.976H172.343V96.16L192.447 70.4H197.655V96.16H205.103ZM226.552 98.064H208.744V93.248H226.552V98.064ZM242.512 111H237.416V79.248H228.008V75.776C233.776 75.608 236.856 74.768 239.04 70.4H242.512V111ZM276.793 90.672C276.793 79.416 272.761 73.928 266.433 73.928C259.993 73.928 256.073 79.416 256.073 90.672C256.073 102.04 259.993 107.472 266.433 107.472C272.873 107.472 276.793 102.04 276.793 90.672ZM282.225 90.672C282.225 103.496 277.241 111.728 266.433 111.728C255.625 111.728 250.641 103.496 250.641 90.672C250.641 77.848 255.625 69.672 266.433 69.672C277.241 69.672 282.225 77.848 282.225 90.672ZM305.193 98.064H287.385V93.248H305.193V98.064ZM321.153 111H316.057V79.248H306.649V75.776C312.417 75.608 315.497 74.768 317.681 70.4H321.153V111ZM327.21 75.16V70.4H355.322V75.16C345.242 83.28 339.082 95.768 338.13 111H331.97C332.866 96.384 339.25 83.952 349.386 75.16H327.21Z" fill="#EEEEEE"/>
<path d="M126.277 198.816C126.277 175.989 112.707 172.518 98.8223 172.518H91.8797V225.219H98.8223C112.707 225.219 126.277 221.853 126.277 198.816ZM76.8374 160.737H99.4534C123.647 160.737 141.845 168.521 141.845 198.816C141.845 229.111 123.647 237 99.4534 237H76.8374V160.737ZM185.713 237V229.531C182.452 235.317 176.246 238.367 169.198 238.367C155.629 238.367 150.159 230.057 150.159 216.172V180.407H164.675V213.016C164.675 220.59 165.832 226.691 173.932 226.691C183.609 226.691 185.713 218.802 185.713 209.861V180.407H200.23V237H185.713ZM237.969 179.145C249.856 179.145 261.637 185.772 263.636 199.762H249.751C248.593 194.293 243.544 190.4 237.969 190.4C230.395 190.4 224.4 196.817 224.4 208.598C224.4 220.485 230.08 227.112 238.074 227.112C243.124 227.112 248.278 224.482 250.277 217.75H264.162C260.796 233.213 249.119 238.367 237.338 238.367C220.402 238.367 209.568 225.955 209.568 208.809C209.568 191.558 221.033 179.145 237.969 179.145ZM272.83 160.737H287.346V203.129L307.964 180.407H324.268L303.967 202.077L325.426 237H309.121L294.289 212.491L287.346 219.959V237H272.83V160.737ZM380.933 198.816C380.933 175.989 367.364 172.518 353.479 172.518H346.536V225.219H353.479C367.364 225.219 380.933 221.853 380.933 198.816ZM331.494 160.737H354.11C378.304 160.737 396.502 168.521 396.502 198.816C396.502 229.111 378.304 237 354.11 237H331.494V160.737ZM407.1 237V160.737H436.763C450.123 160.737 464.534 164.944 464.534 180.618C464.534 187.771 459.8 194.187 455.908 196.712C461.799 199.552 467.269 203.97 467.269 214.489C467.269 230.899 453.699 237 438.026 237H407.1ZM422.142 203.549V225.219H438.762C447.598 225.219 451.911 221.537 451.911 214.489C451.911 207.336 447.493 203.549 438.131 203.549H422.142ZM422.142 172.518V192.189H437.71C444.863 192.189 449.071 188.823 449.071 182.09C449.071 176.095 444.758 172.518 437.71 172.518H422.142ZM70 338L98.4015 261.737H113.549L142.056 338H125.751L120.386 322.537H90.7226L85.3579 338H70ZM105.555 280.145L95.0354 310.23H116.074L105.555 280.145ZM218.169 338V305.075C218.169 298.869 217.643 291.821 209.122 291.821C199.445 291.821 197.867 299.921 197.867 308.547V338H183.351V305.075C183.351 298.869 182.825 291.821 174.304 291.821C164.627 291.821 163.049 299.921 163.049 308.547V338H148.532V281.407H163.049V288.876C166.31 283.301 171.99 280.145 178.827 280.145C188.4 280.145 192.712 285.299 194.922 289.402C199.445 283.09 205.02 280.145 213.54 280.145C227.741 280.145 232.685 288.981 232.685 302.34V338H218.169ZM290.331 298.448H276.762C275.604 293.715 271.397 290.349 264.665 290.349C259.3 290.349 255.513 292.347 255.513 295.818C255.513 298.869 257.722 301.183 263.087 302.34L270.661 304.023C281.916 306.548 291.488 309.388 291.488 321.064C291.488 332.425 279.812 339.367 266.979 339.367C253.094 339.367 242.575 332.215 241.207 319.276H255.197C256.039 324.746 259.826 328.848 267.4 328.848C273.711 328.848 277.603 326.534 277.603 322.432C277.603 318.224 273.29 316.646 268.346 315.489L259.931 313.701C249.307 311.492 242.259 307.074 242.259 296.765C242.259 286.667 253.199 279.935 265.401 279.935C277.182 279.935 288.333 285.405 290.331 298.448ZM303.284 281.407V266.049H317.8V281.407H329.581V291.4H317.8V320.644C317.8 326.429 319.799 327.586 324.953 327.586H329.371V338H318.747C305.703 338 303.284 334.003 303.284 322.747V291.4H295.289V281.407H303.284ZM391.373 313.701H349.612C350.454 323.378 356.975 328.112 363.918 328.112C368.441 328.112 372.859 326.534 375.805 321.59H390.742C387.691 330.005 379.486 339.367 364.023 339.367C345.825 339.367 335.201 325.798 335.201 309.493C335.201 292.663 346.877 280.145 363.602 280.145C381.064 280.145 391.899 293.715 391.373 313.701ZM363.497 290.769C358.027 290.769 350.979 294.135 349.822 303.708H376.646C376.33 294.135 369.598 290.769 363.497 290.769ZM433.122 281.723V295.398C431.018 295.082 429.23 295.082 427.126 295.082C419.973 295.082 415.24 297.712 415.24 308.336V338H400.723V281.407H415.029V291.295C418.29 284.247 423.339 281.513 429.966 281.513C430.913 281.513 432.175 281.618 433.122 281.723ZM492.335 338H477.818V330.847C474.137 337.158 467.404 339.367 461.514 339.367C448.049 339.367 436.899 327.796 436.899 309.704C436.899 291.926 447.839 280.145 461.514 280.145C468.667 280.145 474.768 283.301 477.818 288.666V261.737H492.335V338ZM465.09 328.217C473.085 328.217 478.344 321.38 478.344 309.704C478.344 298.343 473.085 291.295 465.09 291.295C457.516 291.295 452.152 298.764 452.152 309.809C452.152 320.854 457.516 328.217 465.09 328.217ZM540.745 316.331V312.123C524.44 313.806 518.023 315.7 518.023 322.011C518.023 326.113 521.179 329.48 527.806 329.48C536.958 329.48 540.745 324.641 540.745 316.331ZM542.007 330.952C537.904 336.843 532.014 339.367 523.493 339.367C512.659 339.367 503.086 333.056 503.086 322.747C503.086 309.388 518.023 305.391 540.324 302.866V301.92C540.324 293.189 535.59 290.138 529.7 290.138C524.124 290.138 519.496 292.978 519.18 299.29H505.611C506.768 288.14 515.814 279.935 530.436 279.935C543.795 279.935 554.84 285.825 554.84 304.865C554.84 306.548 554.63 314.227 554.63 319.276C554.63 328.217 555.156 333.266 556.313 338H542.954C542.533 336.212 542.322 333.792 542.007 330.952ZM636.569 338V305.075C636.569 298.869 636.043 291.821 627.523 291.821C617.845 291.821 616.267 299.921 616.267 308.547V338H601.751V305.075C601.751 298.869 601.225 291.821 592.705 291.821C583.027 291.821 581.449 299.921 581.449 308.547V338H566.933V281.407H581.449V288.876C584.71 283.301 590.391 280.145 597.228 280.145C606.8 280.145 611.113 285.299 613.322 289.402C617.845 283.09 623.42 280.145 631.941 280.145C646.142 280.145 651.086 288.981 651.086 302.34V338H636.569ZM735.091 338H720.154L701.325 280.671V338H687.335V261.737H709.214L727.728 321.169L745.715 261.737H767.806V338H753.815V280.671L735.091 338ZM833.606 313.701H791.845C792.686 323.378 799.208 328.112 806.151 328.112C810.674 328.112 815.092 326.534 818.037 321.59H832.975C829.924 330.005 821.719 339.367 806.256 339.367C788.058 339.367 777.434 325.798 777.434 309.493C777.434 292.663 789.11 280.145 805.835 280.145C823.297 280.145 834.132 293.715 833.606 313.701ZM805.73 290.769C800.26 290.769 793.212 294.135 792.055 303.708H818.879C818.563 294.135 811.831 290.769 805.73 290.769ZM896.987 313.701H855.227C856.068 323.378 862.59 328.112 869.532 328.112C874.056 328.112 878.474 326.534 881.419 321.59H896.356C893.306 330.005 885.101 339.367 869.638 339.367C851.44 339.367 840.815 325.798 840.815 309.493C840.815 292.663 852.492 280.145 869.217 280.145C886.679 280.145 897.513 293.715 896.987 313.701ZM869.112 290.769C863.642 290.769 856.594 294.135 855.437 303.708H882.261C881.945 294.135 875.213 290.769 869.112 290.769ZM908.336 281.407V266.049H922.853V281.407H934.634V291.4H922.853V320.644C922.853 326.429 924.851 327.586 930.006 327.586H934.424V338H923.799C910.756 338 908.336 334.003 908.336 322.747V291.4H900.342V281.407H908.336ZM978.753 338V330.531C975.492 336.317 969.286 339.367 962.238 339.367C948.669 339.367 943.199 331.057 943.199 317.172V281.407H957.715V314.016C957.715 321.59 958.872 327.691 966.972 327.691C976.65 327.691 978.753 319.802 978.753 310.861V281.407H993.27V338H978.753ZM1033.53 328.217C1041.11 328.217 1046.47 320.854 1046.47 309.809C1046.47 298.764 1041.11 291.295 1033.53 291.295C1025.54 291.295 1020.28 298.343 1020.28 309.704C1020.28 321.38 1025.54 328.217 1033.53 328.217ZM1020.81 356.408H1006.29V281.407H1020.81V288.666C1023.86 283.301 1029.96 280.145 1037.11 280.145C1050.79 280.145 1061.73 291.926 1061.73 309.704C1061.73 327.796 1050.47 339.367 1037.01 339.367C1031.11 339.367 1024.49 337.158 1020.81 330.847V356.408ZM1094.31 279.409H1109.04L1111.46 261.737H1124.5L1122.08 279.409H1136.07L1138.49 261.737H1151.54L1149.12 279.409H1163.63L1162.27 290.664H1147.54L1145.33 306.548H1159.74L1158.58 317.698H1143.75L1141.02 338H1127.97L1130.71 317.698H1116.72L1113.98 338H1100.94L1103.67 317.698H1089.26L1090.63 306.548H1105.25L1107.46 290.664H1093.16L1094.31 279.409ZM1120.51 290.664L1118.3 306.548H1132.29L1134.5 290.664H1120.51ZM1195.47 338H1180.95V280.987H1164.54V271.099C1175.48 270.783 1180.84 270.047 1184.42 261.737H1195.47V338Z" fill="#EEEEEE"/>
<path d="M768.776 784.577V803.647H776.59V785.746C776.59 777.774 787.443 777.759 787.443 777.759V769.998C787.443 769.998 784.407 770.134 782.009 770.673C775.214 772.204 768.776 775.56 768.776 784.577Z" fill="#EEEEEE"/>
<path d="M709.884 769.611C712.927 769.611 716.729 771.335 718.799 774.363C720.941 771.61 724.467 769.751 728.822 769.679C734.354 769.607 741.199 773.05 741.199 783.383V803.622H733.385V783.379C733.385 779.936 730.896 777.459 727.167 777.459C723.437 777.459 720.948 779.936 720.948 783.379V803.618H713.135V783.379C713.135 779.936 710.646 777.459 706.916 777.459C703.183 777.459 700.626 779.936 700.626 783.379V803.618H692.409V770.633H700.626V773.948C702.84 771.263 706.087 769.607 709.888 769.607H709.884V769.611Z" fill="#EEEEEE"/>
<path d="M759.169 771.057V803.646H751.224V771.057H759.169Z" fill="#EEEEEE"/>
<path d="M755.195 765.873C757.646 765.873 759.629 763.897 759.629 761.457C759.629 759.021 757.642 757.045 755.195 757.045C752.747 757.045 750.76 759.021 750.76 761.457C750.76 763.897 752.743 765.873 755.195 765.873Z" fill="#EEEEEE"/>
<path d="M808.659 769.541C799.039 769.541 791.24 777.302 791.24 786.873C791.24 796.444 799.039 804.204 808.659 804.204C818.279 804.204 826.077 796.444 826.077 786.873C826.077 777.302 818.279 769.541 808.659 769.541ZM808.659 796.413C803.213 796.413 798.797 792.02 798.797 786.601C798.797 781.182 803.213 776.789 808.659 776.789C814.108 776.789 818.52 781.182 818.52 786.601C818.52 792.02 814.108 796.413 808.659 796.413Z" fill="#EEEEEE"/>
<path d="M590.808 762.166C590.808 750.708 600.1 741.416 611.559 741.416H654.677C666.139 741.416 675.428 750.708 675.428 762.166V805.284C675.428 816.747 666.136 826.035 654.677 826.035H611.559C600.1 826.035 590.808 816.743 590.808 805.284V762.166Z" stroke="#EEEEEE" stroke-width="1.61697"/>
<path fill-rule="evenodd" clip-rule="evenodd" d="M647.335 757.045H639.506L646.03 768.509L631.677 757.045H623.849L631.025 771.054L616.02 757.045H608.191L616.02 774.878L608.191 810.541H616.02L631.025 772.333L623.849 810.541H631.677L646.03 769.783L639.506 810.541H647.335L661.687 765.96L647.335 757.045Z" fill="#EEEEEE"/>
<g clip-path="url(#clip1_3975_2800)">
<path d="M929.236 742.223C951.388 742.223 969.337 760.171 969.337 782.324C969.337 804.476 951.388 822.425 929.236 822.425C907.083 822.425 889.135 804.476 889.135 782.324C888.973 760.171 906.922 742.223 929.236 742.223Z" fill="#FF6900"/>
<path d="M907.731 788.468H915.654V776.502H907.731C904.497 776.502 901.748 779.251 901.748 782.485C901.748 785.719 904.335 788.468 907.731 788.468Z" fill="black"/>
<path d="M954.138 782.485C954.138 773.268 946.7 765.83 937.483 765.83C928.266 765.83 920.828 773.268 920.828 782.485C920.828 791.702 928.266 799.14 937.483 799.14C946.7 799.14 954.138 791.378 954.138 782.485Z" fill="black"/>
<path d="M1047.92 771.977V788.794C1047.92 792.351 1045.66 794.938 1042.59 794.938H1041.13C1038.06 794.938 1035.8 792.351 1035.8 788.794V771.977H1029.97V789.764C1029.97 796.232 1034.66 800.759 1040.97 800.759H1042.75C1049.22 800.759 1053.74 796.07 1053.74 789.764V771.977H1047.92ZM1222.07 788.794V783.458C1222.07 779.577 1224.33 776.828 1227.73 776.828H1229.19C1233.39 776.828 1236.3 780.062 1236.3 784.589V787.5C1236.3 792.189 1233.23 795.423 1229.19 795.423H1227.73C1224.33 795.261 1222.07 792.674 1222.07 788.794ZM1216.74 788.794C1216.74 795.747 1221.26 800.759 1227.57 800.759H1229.02C1231.61 800.759 1233.88 799.466 1235.65 797.364V800.274H1241.31V771.977H1235.65V775.049C1233.88 772.947 1231.61 771.654 1229.02 771.654H1227.57C1221.1 771.654 1216.74 776.505 1216.74 783.619V788.794ZM1191.67 800.274H1213.99V794.453H1197.49V763.73H1191.67V800.274ZM1252.15 787.5V784.589C1252.15 780.062 1255.06 776.828 1259.26 776.828H1260.72C1264.11 776.828 1266.38 779.577 1266.38 783.458V788.632C1266.38 792.513 1264.11 795.261 1260.72 795.261H1259.26C1255.06 795.261 1252.15 792.189 1252.15 787.5ZM1246.97 800.274H1252.63V797.202C1254.41 799.304 1256.67 800.597 1259.26 800.597H1260.72C1267.18 800.597 1271.71 795.585 1271.71 788.632V783.458C1271.71 776.343 1267.18 771.492 1260.72 771.492H1259.26C1256.67 771.492 1254.41 772.786 1252.63 774.888V763.892H1246.97V800.274ZM1292.25 779.9H1297.75C1296.78 774.726 1292.41 771.492 1286.27 771.492C1279.31 771.492 1275.11 774.564 1275.11 779.577C1275.11 783.458 1278.18 786.53 1283.19 787.338L1287.72 788.308C1290.79 788.955 1292.73 790.249 1292.73 792.189C1292.73 794.453 1290.47 795.908 1286.91 795.908C1283.35 795.908 1281.09 794.13 1280.44 791.381H1274.62C1275.43 797.202 1279.96 800.759 1286.59 800.759C1293.86 800.759 1298.23 797.04 1298.23 791.381C1298.23 787.177 1294.51 784.104 1288.53 782.972L1284.32 782.164C1282.06 781.517 1280.61 780.385 1280.61 778.93C1280.61 777.151 1282.71 776.019 1285.94 776.019C1289.5 776.181 1291.76 777.636 1292.25 779.9ZM1101.61 782.164L1112.44 770.683H1104.19L1094.65 781.032V763.73H1088.83V800.112H1094.65V789.44L1097.4 786.53L1106.94 800.274H1114.22L1101.61 782.164ZM1009.92 794.453H1002.81V769.713H1009.92C1015.42 769.713 1019.79 775.211 1019.79 782.002C1019.79 788.794 1015.42 794.453 1009.92 794.453ZM1009.92 763.73H996.988V800.274H1009.92C1018.49 800.274 1025.61 792.189 1025.61 782.002C1025.61 771.815 1018.66 763.73 1009.92 763.73ZM1131.2 794.453H1124.24V769.713H1131.2C1136.69 769.713 1141.06 775.211 1141.06 782.002C1141.06 788.794 1136.69 794.453 1131.2 794.453ZM1131.2 763.73H1118.42V800.274H1131.2C1139.93 800.274 1146.88 792.189 1146.88 782.002C1146.88 771.815 1139.93 763.73 1131.2 763.73ZM1166.29 794.453H1157.23V784.266H1166.29C1169.03 784.266 1171.3 786.53 1171.3 789.279C1171.3 792.189 1169.03 794.453 1166.29 794.453ZM1157.23 778.445V769.713H1164.51C1166.93 769.713 1168.87 771.654 1168.87 774.079C1168.87 776.505 1166.93 778.445 1164.51 778.445H1157.23ZM1172.59 780.385C1173.89 778.607 1174.86 776.343 1174.86 774.079C1174.86 768.42 1170.17 763.73 1164.51 763.73H1151.41V800.274H1166.29C1172.27 800.274 1177.12 795.423 1177.12 789.279C1177.12 785.721 1175.34 782.326 1172.59 780.385ZM1070.4 777.313H1071.85C1075.41 777.313 1078.16 779.9 1078.16 782.972H1084.14C1084.14 776.666 1078.65 771.492 1071.85 771.492H1070.4C1063.77 771.492 1058.43 776.828 1058.43 783.458V788.632C1058.43 795.261 1063.77 800.597 1070.4 800.597H1071.85C1078.81 800.597 1084.47 795.423 1084.47 789.117H1078.48C1078.48 792.189 1075.41 794.615 1071.85 794.615H1070.4C1067 794.615 1064.25 791.866 1064.25 788.632V783.458C1064.25 780.062 1067 777.313 1070.4 777.313Z" fill="#FF6900"/>
</g>
</g>
<defs>
<linearGradient id="paint0_linear_3975_2800" x1="793.547" y1="-351.801" x2="2668.43" y2="1330.2" gradientUnits="userSpaceOnUse">
<stop offset="0.0928008" stop-color="#292058"/>
<stop offset="0.387106" stop-color="#5C4CB8"/>
<stop offset="0.765429" stop-color="#292058"/>
</linearGradient>
<linearGradient id="paint1_linear_3975_2800" x1="335.5" y1="553" x2="1743" y2="553" gradientUnits="userSpaceOnUse">
<stop stop-color="#2A2A2A"/>
<stop offset="1" stop-color="#0E0E0E"/>
</linearGradient>
<linearGradient id="paint2_linear_3975_2800" x1="1100" y1="274.5" x2="-28" y2="274.5" gradientUnits="userSpaceOnUse">
<stop stop-color="#2A2A2A"/>
<stop offset="1" stop-color="#0E0E0E"/>
</linearGradient>
<linearGradient id="paint3_linear_3975_2800" x1="1687.89" y1="-160.05" x2="1395.04" y2="1028.41" gradientUnits="userSpaceOnUse">
<stop offset="0.0928008" stop-color="#292058"/>
<stop offset="0.387106" stop-color="#5C4CB8"/>
<stop offset="0.765429" stop-color="#292058"/>
</linearGradient>
<clipPath id="clip0_3975_2800">
<rect width="1600" height="900" fill="white"/>
</clipPath>
<clipPath id="clip1_3975_2800">
<rect width="409.095" height="80.2019" fill="white" transform="translate(889.137 742.223)"/>
</clipPath>
</defs>
</svg>
