<svg width="1101" height="618" viewBox="0 0 1101 618" fill="none" xmlns="http://www.w3.org/2000/svg">
<g clip-path="url(#clip0_3948_3130)">
<rect width="1101" height="618" fill="black"/>
<path d="M94.3551 82.3342C94.3551 67.5879 85.5889 65.3453 76.6188 65.3453H72.1337V99.391H76.6188C85.5889 99.391 94.3551 97.2164 94.3551 82.3342ZM62.4161 57.7344H77.0265C92.6562 57.7344 104.413 62.763 104.413 82.3342C104.413 101.905 92.6562 107.002 77.0265 107.002H62.4161V57.7344ZM132.752 107.002V102.177C130.645 105.915 126.636 107.885 122.083 107.885C113.317 107.885 109.783 102.517 109.783 93.5468V70.442H119.161V91.5081C119.161 96.4009 119.908 100.342 125.141 100.342C131.393 100.342 132.752 95.2457 132.752 89.4695V70.442H142.13V107.002H132.752ZM166.51 69.6265C174.189 69.6265 181.8 73.9077 183.091 82.9458H174.121C173.374 79.4121 170.112 76.8978 166.51 76.8978C161.618 76.8978 157.744 81.043 157.744 88.654C157.744 96.333 161.414 100.614 166.578 100.614C169.84 100.614 173.17 98.9153 174.461 94.5661H183.431C181.257 104.556 173.714 107.885 166.103 107.885C155.162 107.885 148.162 99.8666 148.162 88.7899C148.162 77.6453 155.57 69.6265 166.51 69.6265ZM189.031 57.7344H198.409V85.1203L211.728 70.442H222.261L209.146 84.4408L223.009 107.002H212.476L202.894 91.1684L198.409 95.9932V107.002H189.031V57.7344ZM258.868 82.3342C258.868 67.5879 250.102 65.3453 241.132 65.3453H236.647V99.391H241.132C250.102 99.391 258.868 97.2164 258.868 82.3342ZM226.929 57.7344H241.539C257.169 57.7344 268.925 62.763 268.925 82.3342C268.925 101.905 257.169 107.002 241.539 107.002H226.929V57.7344ZM275.772 107.002V57.7344H294.935C303.566 57.7344 312.875 60.4526 312.875 70.5779C312.875 75.1989 309.818 79.3441 307.303 80.9751C311.109 82.8099 314.642 85.664 314.642 92.4595C314.642 103.061 305.876 107.002 295.751 107.002H275.772ZM285.49 85.3922V99.391H296.226C301.935 99.391 304.721 97.0125 304.721 92.4595C304.721 87.8386 301.867 85.3922 295.819 85.3922H285.49ZM285.49 65.3453V78.053H295.547C300.168 78.053 302.886 75.8784 302.886 71.5293C302.886 67.6558 300.1 65.3453 295.547 65.3453H285.49ZM57.999 172.002L76.347 122.734H86.1325L104.548 172.002H94.0153L90.5496 162.013H71.3862L67.9205 172.002H57.999ZM80.9679 134.627L74.1724 154.062H87.7634L80.9679 134.627ZM153.719 172.002V150.732C153.719 146.723 153.379 142.17 147.875 142.17C141.623 142.17 140.603 147.402 140.603 152.974V172.002H131.226V150.732C131.226 146.723 130.886 142.17 125.381 142.17C119.13 142.17 118.11 147.402 118.11 152.974V172.002H108.732V135.442H118.11V140.267C120.217 136.665 123.886 134.627 128.304 134.627C134.488 134.627 137.274 137.956 138.701 140.607C141.623 136.529 145.224 134.627 150.729 134.627C159.903 134.627 163.097 140.335 163.097 148.965V172.002H153.719ZM200.337 146.451H191.571C190.824 143.393 188.105 141.218 183.756 141.218C180.29 141.218 177.844 142.509 177.844 144.752C177.844 146.723 179.271 148.218 182.737 148.965L187.63 150.052C194.901 151.683 201.085 153.518 201.085 161.061C201.085 168.4 193.542 172.885 185.251 172.885C176.281 172.885 169.486 168.264 168.602 159.906H177.64C178.184 163.44 180.63 166.09 185.523 166.09C189.6 166.09 192.115 164.595 192.115 161.945C192.115 159.226 189.328 158.207 186.135 157.46L180.698 156.304C173.835 154.877 169.282 152.023 169.282 145.363C169.282 138.84 176.349 134.491 184.232 134.491C191.843 134.491 199.046 138.024 200.337 146.451ZM208.705 135.442V125.521H218.083V135.442H225.694V141.898H218.083V160.789C218.083 164.527 219.374 165.274 222.704 165.274H225.558V172.002H218.694C210.268 172.002 208.705 169.42 208.705 162.148V141.898H203.54V135.442H208.705ZM265.612 156.304H238.634C239.177 162.556 243.391 165.614 247.876 165.614C250.798 165.614 253.652 164.595 255.555 161.401H265.204C263.234 166.837 257.933 172.885 247.944 172.885C236.187 172.885 229.324 164.119 229.324 153.586C229.324 142.713 236.867 134.627 247.672 134.627C258.952 134.627 265.952 143.393 265.612 156.304ZM247.604 141.49C244.07 141.49 239.517 143.665 238.77 149.849H256.098C255.894 143.665 251.545 141.49 247.604 141.49ZM292.583 135.646V144.48C291.224 144.276 290.069 144.276 288.709 144.276C284.088 144.276 281.03 145.975 281.03 152.839V172.002H271.653V135.442H280.895V141.83C283.001 137.277 286.263 135.51 290.544 135.51C291.156 135.51 291.971 135.578 292.583 135.646ZM330.835 172.002H321.458V167.381C319.079 171.458 314.73 172.885 310.924 172.885C302.226 172.885 295.023 165.41 295.023 153.722C295.023 142.238 302.09 134.627 310.924 134.627C315.545 134.627 319.487 136.665 321.458 140.131V122.734H330.835V172.002ZM313.235 165.682C318.4 165.682 321.797 161.265 321.797 153.722C321.797 146.383 318.4 141.83 313.235 141.83C308.342 141.83 304.876 146.655 304.876 153.79C304.876 160.925 308.342 165.682 313.235 165.682ZM362.109 158.003V155.285C351.576 156.372 347.431 157.595 347.431 161.673C347.431 164.323 349.469 166.498 353.751 166.498C359.663 166.498 362.109 163.372 362.109 158.003ZM362.925 167.449C360.274 171.254 356.469 172.885 350.964 172.885C343.965 172.885 337.781 168.808 337.781 162.148C337.781 153.518 347.431 150.936 361.837 149.305V148.693C361.837 143.053 358.779 141.082 354.974 141.082C351.372 141.082 348.382 142.917 348.178 146.994H339.412C340.16 139.791 346.004 134.491 355.449 134.491C364.08 134.491 371.215 138.296 371.215 150.596C371.215 151.683 371.079 156.644 371.079 159.906C371.079 165.682 371.419 168.944 372.166 172.002H363.536C363.264 170.847 363.128 169.284 362.925 167.449ZM424.014 172.002V150.732C424.014 146.723 423.674 142.17 418.17 142.17C411.918 142.17 410.898 147.402 410.898 152.974V172.002H401.521V150.732C401.521 146.723 401.181 142.17 395.676 142.17C389.424 142.17 388.405 147.402 388.405 152.974V172.002H379.027V135.442H388.405V140.267C390.512 136.665 394.181 134.627 398.598 134.627C404.782 134.627 407.569 137.956 408.996 140.607C411.918 136.529 415.519 134.627 421.024 134.627C430.198 134.627 433.392 140.335 433.392 148.965V172.002H424.014ZM93.2678 237.002H83.6182L71.4542 199.966V237.002H62.4161V187.734H76.5508L88.511 226.129L100.131 187.734H114.402V237.002H105.364V199.966L93.2678 237.002ZM156.91 221.304H129.932C130.475 227.556 134.689 230.614 139.174 230.614C142.096 230.614 144.95 229.595 146.853 226.401H156.502C154.532 231.837 149.231 237.885 139.242 237.885C127.485 237.885 120.622 229.119 120.622 218.586C120.622 207.713 128.165 199.627 138.97 199.627C150.25 199.627 157.25 208.393 156.91 221.304ZM138.902 206.49C135.368 206.49 130.815 208.665 130.068 214.849H147.396C147.192 208.665 142.843 206.49 138.902 206.49ZM197.856 221.304H170.878C171.421 227.556 175.634 230.614 180.119 230.614C183.042 230.614 185.896 229.595 187.798 226.401H197.448C195.477 231.837 190.177 237.885 180.187 237.885C168.431 237.885 161.568 229.119 161.568 218.586C161.568 207.713 169.111 199.627 179.916 199.627C191.196 199.627 198.196 208.393 197.856 221.304ZM179.848 206.49C176.314 206.49 171.761 208.665 171.013 214.849H188.342C188.138 208.665 183.789 206.49 179.848 206.49ZM205.188 200.442V190.521H214.565V200.442H222.176V206.898H214.565V225.789C214.565 229.527 215.857 230.274 219.186 230.274H222.04V237.002H215.177C206.751 237.002 205.188 234.42 205.188 227.148V206.898H200.023V200.442H205.188ZM250.678 237.002V232.177C248.572 235.915 244.562 237.885 240.009 237.885C231.243 237.885 227.709 232.517 227.709 223.547V200.442H237.087V221.508C237.087 226.401 237.835 230.342 243.067 230.342C249.319 230.342 250.678 225.246 250.678 219.469V200.442H260.056V237.002H250.678ZM286.068 230.682C290.96 230.682 294.426 225.925 294.426 218.79C294.426 211.655 290.96 206.83 286.068 206.83C280.903 206.83 277.505 211.383 277.505 218.722C277.505 226.265 280.903 230.682 286.068 230.682ZM277.845 248.894H268.467V200.442H277.845V205.131C279.816 201.665 283.757 199.627 288.378 199.627C297.212 199.627 304.28 207.238 304.28 218.722C304.28 230.41 297.008 237.885 288.31 237.885C284.505 237.885 280.223 236.458 277.845 232.381V248.894ZM325.332 199.151H334.846L336.409 187.734H344.835L343.272 199.151H352.31L353.873 187.734H362.3L360.737 199.151H370.115L369.231 206.422H359.717L358.29 216.683H367.6L366.853 223.887H357.271L355.504 237.002H347.078L348.845 223.887H339.806L338.04 237.002H329.613L331.38 223.887H322.07L322.954 216.683H332.399L333.826 206.422H324.585L325.332 199.151ZM342.253 206.422L340.826 216.683H349.864L351.291 206.422H342.253ZM390.678 237.002H381.301V200.17H370.7V193.782C377.767 193.579 381.233 193.103 383.543 187.734H390.678V237.002ZM77.7061 251.851C86.7441 251.851 92.5883 256.608 92.5883 264.559C92.5883 274.548 84.0259 284.266 65.8818 297.925H94.0833V302.002H60.0377V297.789C78.1818 283.994 88.1032 274.208 88.1032 265.034C88.1032 258.714 83.2784 255.588 77.7061 255.588C71.5221 255.588 65.8818 258.511 65.678 267.956H61.1929C61.6686 257.423 67.9205 251.851 77.7061 251.851ZM119.318 302.885C106.27 302.885 100.358 293.032 100.358 277.334C100.358 261.772 106.27 251.851 119.318 251.851C132.229 251.851 138.209 261.772 138.209 277.334C138.209 293.032 132.229 302.885 119.318 302.885ZM119.318 299.148C128.152 299.148 133.792 292.216 133.792 277.334C133.792 262.588 128.152 255.588 119.318 255.588C110.415 255.588 104.843 262.588 104.843 277.334C104.843 292.216 110.415 299.148 119.318 299.148ZM161.588 251.851C170.626 251.851 176.471 256.608 176.471 264.559C176.471 274.548 167.908 284.266 149.764 297.925H177.966V302.002H143.92V297.789C162.064 283.994 171.986 274.208 171.986 265.034C171.986 258.714 167.161 255.588 161.588 255.588C155.404 255.588 149.764 258.511 149.56 267.956H145.075C145.551 257.423 151.803 251.851 161.588 251.851ZM204.436 258.579L182.962 284.945H204.436V258.579ZM218.231 284.945V289.09H208.65V302.002H204.436V289.09H177.934V285.285L204.504 252.734H208.65V284.945H218.231ZM240.878 285.761H221.85V281.004H240.878V285.761ZM257.251 302.002H253.038V262.112H241.757V259.258C250.387 259.258 252.562 258.375 254.397 252.327H257.251V302.002ZM286.485 302.885C273.438 302.885 267.525 293.032 267.525 277.334C267.525 261.772 273.438 251.851 286.485 251.851C299.396 251.851 305.377 261.772 305.377 277.334C305.377 293.032 299.396 302.885 286.485 302.885ZM286.485 299.148C295.319 299.148 300.959 292.216 300.959 277.334C300.959 262.588 295.319 255.588 286.485 255.588C277.583 255.588 272.01 262.588 272.01 277.334C272.01 292.216 277.583 299.148 286.485 299.148ZM330.998 285.761H311.971V281.004H330.998V285.761ZM347.371 302.002H343.158V262.112H331.878V259.258C340.508 259.258 342.682 258.375 344.517 252.327H347.371V302.002ZM354.316 256.812V252.734H387.954V256.812C374.906 266.393 366.48 281.14 365.732 302.002H361.044C362.335 279.781 371.101 265.442 382.789 256.812H354.316Z" fill="#FFF100"/>
<g clip-path="url(#clip1_3948_3130)">
<rect width="550.5" height="618" transform="translate(552)" fill="#FFF100"/>
<path d="M1044.2 156.645L1123.14 156.645L1123.14 628.298L601 628.299L601 488.187C601 470.411 615.411 456 633.187 456L828.102 456C846.084 456 860.579 441.267 860.286 423.287L860.04 408.232C859.747 390.252 874.241 375.52 892.223 375.52L978.899 375.519C996.6 375.519 1010.98 361.226 1011.09 343.525L1012.01 188.639C1012.12 170.938 1026.5 156.645 1044.2 156.645Z" fill="black" fill-opacity="0.07"/>
<path d="M933.529 97.8509L933.529 -65.2324L458.441 -65.2324L458.441 387L598.312 387C616.089 387 630.5 372.589 630.5 354.812L630.5 162.226C630.5 144.449 644.91 130.038 662.687 130.038L901.341 130.038C919.118 130.038 933.529 115.628 933.529 97.8509Z" fill="black" fill-opacity="0.07"/>
<g clip-path="url(#clip2_3948_3130)">
<path d="M660.8 542.866C674.5 542.866 685.6 553.966 685.6 567.666C685.6 581.366 674.5 592.466 660.8 592.466C647.1 592.466 636 581.366 636 567.666C635.9 553.966 647 542.866 660.8 542.866Z" fill="black"/>
<path d="M647.5 571.466H652.4V564.066H647.5C645.5 564.066 643.8 565.766 643.8 567.766C643.8 569.766 645.4 571.466 647.5 571.466Z" fill="#FF6900"/>
<path d="M676.2 567.766C676.2 562.066 671.6 557.466 665.9 557.466C660.2 557.466 655.6 562.066 655.6 567.766C655.6 573.466 660.2 578.066 665.9 578.066C671.6 578.066 676.2 573.266 676.2 567.766Z" fill="#FF6900"/>
<path d="M734.2 561.266V571.666C734.2 573.866 732.8 575.466 730.9 575.466H730C728.1 575.466 726.7 573.866 726.7 571.666V561.266H723.1V572.266C723.1 576.266 726 579.066 729.9 579.066H731C735 579.066 737.8 576.166 737.8 572.266V561.266H734.2ZM841.9 571.666V568.366C841.9 565.966 843.3 564.266 845.4 564.266H846.3C848.9 564.266 850.7 566.266 850.7 569.066V570.866C850.7 573.766 848.8 575.766 846.3 575.766H845.4C843.3 575.666 841.9 574.066 841.9 571.666ZM838.6 571.666C838.6 575.966 841.4 579.066 845.3 579.066H846.2C847.8 579.066 849.2 578.266 850.3 576.966V578.766H853.8V561.266H850.3V563.166C849.2 561.866 847.8 561.066 846.2 561.066H845.3C841.3 561.066 838.6 564.066 838.6 568.466V571.666ZM823.1 578.766H836.9V575.166H826.7V556.166H823.1V578.766ZM860.5 570.866V569.066C860.5 566.266 862.3 564.266 864.9 564.266H865.8C867.9 564.266 869.3 565.966 869.3 568.366V571.566C869.3 573.966 867.9 575.666 865.8 575.666H864.9C862.3 575.666 860.5 573.766 860.5 570.866ZM857.3 578.766H860.8V576.866C861.9 578.166 863.3 578.966 864.9 578.966H865.8C869.8 578.966 872.6 575.866 872.6 571.566V568.366C872.6 563.966 869.8 560.966 865.8 560.966H864.9C863.3 560.966 861.9 561.766 860.8 563.066V556.266H857.3V578.766ZM885.3 566.166H888.7C888.1 562.966 885.4 560.966 881.6 560.966C877.3 560.966 874.7 562.866 874.7 565.966C874.7 568.366 876.6 570.266 879.7 570.766L882.5 571.366C884.4 571.766 885.6 572.566 885.6 573.766C885.6 575.166 884.2 576.066 882 576.066C879.8 576.066 878.4 574.966 878 573.266H874.4C874.9 576.866 877.7 579.066 881.8 579.066C886.3 579.066 889 576.766 889 573.266C889 570.666 886.7 568.766 883 568.066L880.4 567.566C879 567.166 878.1 566.466 878.1 565.566C878.1 564.466 879.4 563.766 881.4 563.766C883.6 563.866 885 564.766 885.3 566.166ZM767.4 567.566L774.1 560.466H769L763.1 566.866V556.166H759.5V578.666H763.1V572.066L764.8 570.266L770.7 578.766H775.2L767.4 567.566ZM710.7 575.166H706.3V559.866H710.7C714.1 559.866 716.8 563.266 716.8 567.466C716.8 571.666 714.1 575.166 710.7 575.166ZM710.7 556.166H702.7V578.766H710.7C716 578.766 720.4 573.766 720.4 567.466C720.4 561.166 716.1 556.166 710.7 556.166ZM785.7 575.166H781.4V559.866H785.7C789.1 559.866 791.8 563.266 791.8 567.466C791.8 571.666 789.1 575.166 785.7 575.166ZM785.7 556.166H777.8V578.766H785.7C791.1 578.766 795.4 573.766 795.4 567.466C795.4 561.166 791.1 556.166 785.7 556.166ZM807.4 575.166H801.8V568.866H807.4C809.1 568.866 810.5 570.266 810.5 571.966C810.5 573.766 809.1 575.166 807.4 575.166ZM801.8 565.266V559.866H806.3C807.8 559.866 809 561.066 809 562.566C809 564.066 807.8 565.266 806.3 565.266H801.8ZM811.3 566.466C812.1 565.366 812.7 563.966 812.7 562.566C812.7 559.066 809.8 556.166 806.3 556.166H798.2V578.766H807.4C811.1 578.766 814.1 575.766 814.1 571.966C814.1 569.766 813 567.666 811.3 566.466ZM748.1 564.566H749C751.2 564.566 752.9 566.166 752.9 568.066H756.6C756.6 564.166 753.2 560.966 749 560.966H748.1C744 560.966 740.7 564.266 740.7 568.366V571.566C740.7 575.666 744 578.966 748.1 578.966H749C753.3 578.966 756.8 575.766 756.8 571.866H753.1C753.1 573.766 751.2 575.266 749 575.266H748.1C746 575.266 744.3 573.566 744.3 571.566V568.366C744.3 566.266 746 564.566 748.1 564.566Z" fill="black"/>
</g>
<path d="M1029.56 568.192V579.986H1034.39V568.915C1034.39 563.985 1041.11 563.975 1041.11 563.975V559.176C1041.11 559.176 1039.23 559.26 1037.75 559.593C1033.54 560.54 1029.56 562.616 1029.56 568.192Z" fill="black"/>
<path d="M993.141 558.938C995.023 558.938 997.374 560.004 998.654 561.876C999.979 560.174 1002.16 559.024 1004.85 558.98C1008.27 558.936 1012.51 561.065 1012.51 567.455V579.972H1007.68V567.453C1007.68 565.323 1006.14 563.791 1003.83 563.791C1001.52 563.791 999.984 565.323 999.984 567.453V579.969H995.152V567.453C995.152 565.323 993.612 563.791 991.306 563.791C988.997 563.791 987.416 565.323 987.416 567.453V579.969H982.334V559.57H987.416V561.62C988.785 559.959 990.793 558.936 993.144 558.936H993.141V558.938Z" fill="black"/>
<path d="M1023.62 559.832V579.987H1018.71V559.832H1023.62Z" fill="black"/>
<path d="M1021.16 556.626C1022.68 556.626 1023.91 555.404 1023.91 553.895C1023.91 552.388 1022.68 551.166 1021.16 551.166C1019.65 551.166 1018.42 552.388 1018.42 553.895C1018.42 555.404 1019.65 556.626 1021.16 556.626Z" fill="black"/>
<path d="M1054.23 558.895C1048.28 558.895 1043.46 563.694 1043.46 569.613C1043.46 575.532 1048.28 580.332 1054.23 580.332C1060.18 580.332 1065 575.532 1065 569.613C1065 563.694 1060.18 558.895 1054.23 558.895ZM1054.23 575.513C1050.86 575.513 1048.13 572.797 1048.13 569.445C1048.13 566.094 1050.86 563.377 1054.23 563.377C1057.6 563.377 1060.33 566.094 1060.33 569.445C1060.33 572.797 1057.6 575.513 1054.23 575.513Z" fill="black"/>
<path d="M919.5 554.333C919.5 547.246 925.246 541.5 932.333 541.5H958.999C966.088 541.5 971.832 547.246 971.832 554.333V580.999C971.832 588.088 966.085 593.832 958.999 593.832H932.333C925.246 593.832 919.5 588.085 919.5 580.999V554.333Z" stroke="black"/>
<path fill-rule="evenodd" clip-rule="evenodd" d="M954.458 551.166H949.616L953.651 558.256L944.775 551.166H939.933L944.371 559.83L935.092 551.166H930.25L935.092 562.195L930.25 584.25H935.092L944.371 560.621L939.933 584.25H944.775L953.651 559.044L949.616 584.25H954.458L963.334 556.679L954.458 551.166Z" fill="black"/>
</g>
</g>
<defs>
<clipPath id="clip0_3948_3130">
<rect width="1101" height="618" fill="white"/>
</clipPath>
<clipPath id="clip1_3948_3130">
<rect width="550.5" height="618" fill="white" transform="translate(552)"/>
</clipPath>
<clipPath id="clip2_3948_3130">
<rect width="253" height="49.6" fill="white" transform="translate(636 542.866)"/>
</clipPath>
</defs>
</svg>
