<svg width="1200" height="515" viewBox="0 0 1200 515" fill="none" xmlns="http://www.w3.org/2000/svg">
<g clip-path="url(#clip0_12243_49046)">
<rect width="1200" height="515" fill="url(#paint0_linear_12243_49046)"/>
<g clip-path="url(#clip1_12243_49046)">
<rect width="1200" height="515" fill="url(#paint1_linear_12243_49046)"/>
<path d="M70.5037 552C70.5037 552.826 71.1736 553.496 72 553.496C72.8264 553.496 73.4963 552.826 73.4963 552L72 552L70.5037 552ZM73.058 215.942C72.4737 215.358 71.5263 215.358 70.9419 215.942L61.4195 225.464C60.8352 226.049 60.8352 226.996 61.4195 227.58C62.0039 228.165 62.9513 228.165 63.5356 227.58L72 219.116L80.4643 227.58C81.0487 228.165 81.9961 228.165 82.5804 227.58C83.1647 226.996 83.1647 226.049 82.5804 225.464L73.058 215.942ZM72 552L73.4963 552L73.4963 217L72 217L70.5037 217L70.5037 552L72 552Z" fill="#2EAFFF"/>
<path d="M465.504 580.5C465.504 581.326 466.174 581.996 467 581.996C467.826 581.996 468.496 581.326 468.496 580.5L467 580.5L465.504 580.5ZM468.059 403.942C467.475 403.358 466.527 403.358 465.943 403.942L456.421 413.464C455.836 414.049 455.836 414.996 456.421 415.58C457.005 416.165 457.952 416.165 458.537 415.58L467.001 407.116L475.465 415.581C476.05 416.165 476.997 416.165 477.581 415.581C478.166 414.996 478.166 414.049 477.581 413.464L468.059 403.942ZM467 580.5L468.496 580.5L468.497 405L467.001 405L465.505 405L465.504 580.5L467 580.5Z" fill="#2EAFFF"/>
<path d="M1206.75 110.251C1207.57 110.251 1208.24 109.581 1208.24 108.754C1208.24 107.928 1207.57 107.258 1206.75 107.258L1206.75 108.754L1206.75 110.251ZM718.188 107.697C717.604 108.281 717.604 109.229 718.188 109.813L727.71 119.335C728.295 119.92 729.242 119.92 729.827 119.335C730.411 118.751 730.411 117.804 729.827 117.219L721.362 108.755L729.827 100.29C730.411 99.7062 730.411 98.7587 729.827 98.1744C729.242 97.5901 728.295 97.5901 727.71 98.1744L718.188 107.697ZM1206.75 108.754L1206.75 107.258L719.246 107.259L719.246 108.755L719.246 110.251L1206.75 110.251L1206.75 108.754Z" fill="#2EAFFF"/>
<path d="M723 854L847 854C877.376 854 902 829.376 902 799L902 471C902 440.624 926.624 416 957 416L995 416C1025.38 416 1050 391.376 1050 361L1050 -44.0001" stroke="#2EAFFF" stroke-width="2.9926" stroke-linejoin="round"/>
<path d="M225 551.999L225 334.499C225 304.123 249.624 279.499 280 279.499L441 279.5C471.376 279.5 496 254.875 496 224.5L496 132.499C496 102.123 471.376 77.4986 441 77.4986L103.756 77.4986C73.3804 77.4986 48.7561 52.8743 48.7561 22.4986L48.7561 -279C48.7561 -309.376 24.1318 -334 -6.24389 -334L-196 -334" stroke="#2EAFFF" stroke-width="2.9926" stroke-linejoin="round"/>
<rect x="1037.46" y="83.9619" width="25.0762" height="50.0762" rx="12.5381" fill="#2EAFFF" stroke="#2EAFFF" stroke-width="1.92382"/>
<rect x="63.9619" y="426.962" width="16.0762" height="38.0762" rx="8.0381" fill="#2EAFFF" stroke="#2EAFFF" stroke-width="1.92382"/>
<path d="M79.5931 178V157.56H82.1131V175.704H91.3531V178H79.5931ZM101.142 178.28C99.3129 178.28 97.8662 177.748 96.8022 176.684C95.7382 175.62 95.2062 174.099 95.2062 172.12V163.44C95.2062 161.461 95.7382 159.94 96.8022 158.876C97.8662 157.812 99.3129 157.28 101.142 157.28C102.972 157.28 104.418 157.812 105.482 158.876C106.546 159.94 107.078 161.452 107.078 163.412V172.12C107.078 174.099 106.546 175.62 105.482 176.684C104.418 177.748 102.972 178.28 101.142 178.28ZM101.142 176.012C102.244 176.012 103.084 175.704 103.662 175.088C104.26 174.453 104.558 173.557 104.558 172.4V163.16C104.558 162.003 104.26 161.116 103.662 160.5C103.084 159.865 102.244 159.548 101.142 159.548C100.06 159.548 99.2195 159.865 98.6222 160.5C98.0249 161.116 97.7262 162.003 97.7262 163.16V172.4C97.7262 173.557 98.0249 174.453 98.6222 175.088C99.2195 175.704 100.06 176.012 101.142 176.012ZM110.931 178L116.251 157.56H119.639L124.931 178H122.383L121.039 172.568H114.851L113.507 178H110.931ZM115.355 170.44H120.507L118.939 164.14C118.641 162.945 118.407 161.947 118.239 161.144C118.071 160.341 117.969 159.819 117.931 159.576C117.894 159.819 117.791 160.341 117.623 161.144C117.455 161.947 117.222 162.936 116.923 164.112L115.355 170.44ZM128.896 178V157.56H134.188C135.514 157.56 136.652 157.812 137.604 158.316C138.575 158.82 139.322 159.529 139.844 160.444C140.386 161.359 140.656 162.441 140.656 163.692V171.84C140.656 173.091 140.386 174.183 139.844 175.116C139.322 176.031 138.575 176.74 137.604 177.244C136.652 177.748 135.514 178 134.188 178H128.896ZM131.416 175.76H134.188C135.42 175.76 136.382 175.415 137.072 174.724C137.782 174.033 138.136 173.072 138.136 171.84V163.692C138.136 162.479 137.782 161.527 137.072 160.836C136.382 160.145 135.42 159.8 134.188 159.8H131.416V175.76ZM167.402 178.28C165.872 178.28 164.64 177.767 163.706 176.74C162.792 175.713 162.334 174.323 162.334 172.568V168.06C162.334 166.287 162.792 164.887 163.706 163.86C164.621 162.833 165.853 162.32 167.402 162.32C168.56 162.32 169.512 162.609 170.258 163.188C171.024 163.767 171.481 164.551 171.63 165.54H171.658L171.602 162.04V157.56H174.122V178H171.602V175.06H171.574C171.444 176.068 171.005 176.861 170.258 177.44C169.512 178 168.56 178.28 167.402 178.28ZM168.242 176.096C169.288 176.096 170.109 175.769 170.706 175.116C171.304 174.463 171.602 173.557 171.602 172.4V168.2C171.602 167.043 171.304 166.137 170.706 165.484C170.109 164.831 169.288 164.504 168.242 164.504C167.178 164.504 166.348 164.784 165.75 165.344C165.153 165.885 164.854 166.791 164.854 168.06V172.54C164.854 173.791 165.153 174.696 165.75 175.256C166.348 175.816 167.178 176.096 168.242 176.096ZM185.06 178.28C183.286 178.28 181.868 177.757 180.803 176.712C179.74 175.648 179.208 174.211 179.208 172.4V162.6H181.728V172.4C181.728 173.52 182.026 174.416 182.624 175.088C183.221 175.741 184.033 176.068 185.06 176.068C186.105 176.068 186.926 175.741 187.524 175.088C188.14 174.416 188.448 173.52 188.448 172.4V162.6H190.968V172.4C190.968 174.211 190.426 175.648 189.344 176.712C188.261 177.757 186.833 178.28 185.06 178.28ZM202.101 178.28C200.234 178.28 198.741 177.757 197.621 176.712C196.501 175.667 195.941 174.229 195.941 172.4V168.2C195.941 166.371 196.501 164.933 197.621 163.888C198.741 162.843 200.234 162.32 202.101 162.32C203.874 162.32 205.302 162.796 206.385 163.748C207.486 164.7 208.065 165.997 208.121 167.64H205.601C205.545 166.651 205.209 165.895 204.593 165.372C203.977 164.831 203.146 164.56 202.101 164.56C200.999 164.56 200.113 164.877 199.441 165.512C198.787 166.128 198.461 167.015 198.461 168.172V172.4C198.461 173.557 198.787 174.453 199.441 175.088C200.113 175.723 200.999 176.04 202.101 176.04C203.146 176.04 203.977 175.769 204.593 175.228C205.209 174.687 205.545 173.931 205.601 172.96H208.121C208.065 174.603 207.486 175.9 206.385 176.852C205.302 177.804 203.874 178.28 202.101 178.28ZM212.982 178V157.56H215.502V168.956H218.442L222.754 162.6H225.638L220.682 169.936L225.918 178H222.978L218.498 171.14H215.502V178H212.982ZM237.695 178C236.332 178 235.24 177.608 234.419 176.824C233.616 176.021 233.215 174.967 233.215 173.66V159.856H227.895V157.56H235.735V173.66C235.735 174.295 235.912 174.799 236.267 175.172C236.621 175.527 237.097 175.704 237.695 175.704H242.455V178H237.695ZM250.9 178.28C249.313 178.28 248.053 177.841 247.12 176.964C246.186 176.068 245.72 174.901 245.72 173.464C245.72 172.512 245.934 171.681 246.364 170.972C246.793 170.263 247.39 169.712 248.156 169.32C248.921 168.909 249.798 168.704 250.788 168.704H255.548V167.5C255.548 165.503 254.456 164.504 252.272 164.504C251.301 164.504 250.517 164.681 249.92 165.036C249.322 165.391 249.005 165.885 248.968 166.52H246.448C246.541 165.307 247.101 164.308 248.128 163.524C249.173 162.721 250.554 162.32 252.272 162.32C254.138 162.32 255.566 162.768 256.556 163.664C257.564 164.56 258.068 165.811 258.068 167.416V178H255.576V175.2H255.52C255.37 176.152 254.894 176.908 254.092 177.468C253.289 178.009 252.225 178.28 250.9 178.28ZM251.516 176.152C252.748 176.152 253.728 175.853 254.456 175.256C255.184 174.659 255.548 173.847 255.548 172.82V170.664H251.068C250.246 170.664 249.574 170.916 249.052 171.42C248.548 171.905 248.296 172.559 248.296 173.38C248.296 174.239 248.576 174.92 249.136 175.424C249.714 175.909 250.508 176.152 251.516 176.152ZM263.349 178V157.56H265.869V168.956H268.809L273.121 162.6H276.005L271.049 169.936L276.285 178H273.345L268.865 171.14H265.869V178H263.349ZM285.822 178.28C284.011 178.28 282.546 177.739 281.426 176.656C280.325 175.555 279.774 174.043 279.774 172.12V168.48C279.774 166.557 280.325 165.055 281.426 163.972C282.546 162.871 284.011 162.32 285.822 162.32C287.035 162.32 288.09 162.563 288.986 163.048C289.901 163.533 290.61 164.215 291.114 165.092C291.618 165.969 291.87 167.005 291.87 168.2V170.944H282.238V172.4C282.238 173.539 282.565 174.444 283.218 175.116C283.871 175.769 284.739 176.096 285.822 176.096C286.755 176.096 287.521 175.919 288.118 175.564C288.734 175.191 289.107 174.696 289.238 174.08H291.758C291.59 175.368 290.965 176.395 289.882 177.16C288.799 177.907 287.446 178.28 285.822 178.28ZM282.238 168.984H289.406V168.2C289.406 166.987 289.089 166.053 288.454 165.4C287.838 164.728 286.961 164.392 285.822 164.392C284.683 164.392 283.797 164.728 283.162 165.4C282.546 166.053 282.238 166.987 282.238 168.2V168.984ZM302.331 166.52C301.715 166.52 301.211 166.324 300.819 165.932C300.427 165.54 300.231 165.036 300.231 164.42C300.231 163.823 300.427 163.328 300.819 162.936C301.23 162.525 301.734 162.32 302.331 162.32H302.891C303.488 162.32 303.983 162.525 304.375 162.936C304.786 163.328 304.991 163.823 304.991 164.42C304.991 165.036 304.795 165.54 304.403 165.932C304.011 166.324 303.507 166.52 302.891 166.52H302.331ZM299.951 182.48L301.491 173.912H304.515L302.555 182.48H299.951Z" fill="#2EAFFF"/>
<path d="M529.404 484L534.724 463.56H538.112L543.404 484H540.856L539.512 478.568H533.324L531.98 484H529.404ZM533.828 476.44H538.98L537.412 470.14C537.113 468.945 536.88 467.947 536.712 467.144C536.544 466.341 536.441 465.819 536.404 465.576C536.367 465.819 536.264 466.341 536.096 467.144C535.928 467.947 535.695 468.936 535.396 470.112L533.828 476.44ZM551.933 484V465.856H546.333V463.56H560.053V465.856H554.453V484H551.933ZM568.722 484V465.856H563.122V463.56H576.842V465.856H571.242V484H568.722ZM579.771 484L585.091 463.56H588.479L593.771 484H591.223L589.879 478.568H583.691L582.347 484H579.771ZM584.195 476.44H589.347L587.779 470.14C587.48 468.945 587.247 467.947 587.079 467.144C586.911 466.341 586.808 465.819 586.771 465.576C586.734 465.819 586.631 466.341 586.463 467.144C586.295 467.947 586.062 468.936 585.763 470.112L584.195 476.44ZM603.784 484.28C601.917 484.28 600.443 483.757 599.36 482.712C598.277 481.667 597.736 480.229 597.736 478.4V469.16C597.736 467.331 598.277 465.893 599.36 464.848C600.443 463.803 601.917 463.28 603.784 463.28C605.613 463.28 607.069 463.812 608.152 464.876C609.235 465.921 609.776 467.349 609.776 469.16H607.256C607.256 468.003 606.948 467.116 606.332 466.5C605.735 465.865 604.885 465.548 603.784 465.548C602.683 465.548 601.815 465.865 601.18 466.5C600.564 467.116 600.256 468.003 600.256 469.16V478.4C600.256 479.557 600.564 480.453 601.18 481.088C601.815 481.704 602.683 482.012 603.784 482.012C604.885 482.012 605.735 481.704 606.332 481.088C606.948 480.453 607.256 479.557 607.256 478.4H609.776C609.776 480.211 609.235 481.648 608.152 482.712C607.069 483.757 605.613 484.28 603.784 484.28ZM614.553 484V463.56H617.073V472.296H623.625V463.56H626.145V484H623.625V474.592H617.073V484H614.553ZM647.207 484V468.6H649.391V470.644H649.447C649.541 469.953 649.811 469.393 650.259 468.964C650.726 468.535 651.314 468.32 652.023 468.32C652.695 468.32 653.265 468.516 653.731 468.908C654.198 469.3 654.534 469.832 654.739 470.504H654.767C654.898 469.832 655.187 469.3 655.635 468.908C656.102 468.516 656.69 468.32 657.399 468.32C658.389 468.32 659.173 468.693 659.751 469.44C660.349 470.168 660.647 471.12 660.647 472.296V484H658.295V472.268C658.295 471.652 658.146 471.167 657.847 470.812C657.549 470.439 657.138 470.252 656.615 470.252C656.111 470.252 655.71 470.429 655.411 470.784C655.113 471.139 654.963 471.624 654.963 472.24V484H652.891V472.268C652.891 471.652 652.742 471.167 652.443 470.812C652.145 470.439 651.743 470.252 651.239 470.252C650.717 470.252 650.306 470.429 650.007 470.784C649.709 471.139 649.559 471.624 649.559 472.24V484H647.207ZM667.3 489.04L669.568 483.048L663.828 468.6H666.544L670.184 478.12C670.334 478.493 670.474 478.885 670.604 479.296C670.735 479.707 670.828 480.061 670.884 480.36C670.94 480.061 671.034 479.707 671.164 479.296C671.295 478.885 671.426 478.493 671.556 478.12L674.944 468.6H677.604L669.932 489.04H667.3ZM680.785 486.8V484.7H694.225V486.8H680.785ZM703.399 484.28C701.868 484.28 700.636 483.767 699.703 482.74C698.788 481.713 698.331 480.323 698.331 478.568V474.06C698.331 472.287 698.788 470.887 699.703 469.86C700.617 468.833 701.849 468.32 703.399 468.32C704.556 468.32 705.508 468.609 706.255 469.188C707.02 469.767 707.477 470.551 707.627 471.54H707.655L707.599 468.04V463.56H710.119V484H707.599V481.06H707.571C707.44 482.068 707.001 482.861 706.255 483.44C705.508 484 704.556 484.28 703.399 484.28ZM704.239 482.096C705.284 482.096 706.105 481.769 706.703 481.116C707.3 480.463 707.599 479.557 707.599 478.4V474.2C707.599 473.043 707.3 472.137 706.703 471.484C706.105 470.831 705.284 470.504 704.239 470.504C703.175 470.504 702.344 470.784 701.747 471.344C701.149 471.885 700.851 472.791 700.851 474.06V478.54C700.851 479.791 701.149 480.696 701.747 481.256C702.344 481.816 703.175 482.096 704.239 482.096ZM721.056 484.28C719.282 484.28 717.864 483.757 716.8 482.712C715.736 481.648 715.204 480.211 715.204 478.4V468.6H717.724V478.4C717.724 479.52 718.022 480.416 718.62 481.088C719.217 481.741 720.029 482.068 721.056 482.068C722.101 482.068 722.922 481.741 723.52 481.088C724.136 480.416 724.444 479.52 724.444 478.4V468.6H726.964V478.4C726.964 480.211 726.422 481.648 725.34 482.712C724.257 483.757 722.829 484.28 721.056 484.28ZM738.097 484.28C736.23 484.28 734.737 483.757 733.617 482.712C732.497 481.667 731.937 480.229 731.937 478.4V474.2C731.937 472.371 732.497 470.933 733.617 469.888C734.737 468.843 736.23 468.32 738.097 468.32C739.87 468.32 741.298 468.796 742.381 469.748C743.482 470.7 744.061 471.997 744.117 473.64H741.597C741.541 472.651 741.205 471.895 740.589 471.372C739.973 470.831 739.142 470.56 738.097 470.56C736.995 470.56 736.109 470.877 735.437 471.512C734.783 472.128 734.457 473.015 734.457 474.172V478.4C734.457 479.557 734.783 480.453 735.437 481.088C736.109 481.723 736.995 482.04 738.097 482.04C739.142 482.04 739.973 481.769 740.589 481.228C741.205 480.687 741.541 479.931 741.597 478.96H744.117C744.061 480.603 743.482 481.9 742.381 482.852C741.298 483.804 739.87 484.28 738.097 484.28ZM748.978 484V463.56H751.498V474.956H754.438L758.75 468.6H761.634L756.678 475.936L761.914 484H758.974L754.494 477.14H751.498V484H748.978ZM773.691 484C772.328 484 771.236 483.608 770.415 482.824C769.612 482.021 769.211 480.967 769.211 479.66V465.856H763.891V463.56H771.731V479.66C771.731 480.295 771.908 480.799 772.263 481.172C772.617 481.527 773.093 481.704 773.691 481.704H778.451V484H773.691ZM786.896 484.28C785.309 484.28 784.049 483.841 783.116 482.964C782.183 482.068 781.716 480.901 781.716 479.464C781.716 478.512 781.931 477.681 782.36 476.972C782.789 476.263 783.387 475.712 784.152 475.32C784.917 474.909 785.795 474.704 786.784 474.704H791.544V473.5C791.544 471.503 790.452 470.504 788.268 470.504C787.297 470.504 786.513 470.681 785.916 471.036C785.319 471.391 785.001 471.885 784.964 472.52H782.444C782.537 471.307 783.097 470.308 784.124 469.524C785.169 468.721 786.551 468.32 788.268 468.32C790.135 468.32 791.563 468.768 792.552 469.664C793.56 470.56 794.064 471.811 794.064 473.416V484H791.572V481.2H791.516C791.367 482.152 790.891 482.908 790.088 483.468C789.285 484.009 788.221 484.28 786.896 484.28ZM787.512 482.152C788.744 482.152 789.724 481.853 790.452 481.256C791.18 480.659 791.544 479.847 791.544 478.82V476.664H787.064C786.243 476.664 785.571 476.916 785.048 477.42C784.544 477.905 784.292 478.559 784.292 479.38C784.292 480.239 784.572 480.92 785.132 481.424C785.711 481.909 786.504 482.152 787.512 482.152ZM799.345 484V463.56H801.865V474.956H804.805L809.117 468.6H812.001L807.045 475.936L812.281 484H809.341L804.861 477.14H801.865V484H799.345ZM821.818 484.28C820.007 484.28 818.542 483.739 817.422 482.656C816.321 481.555 815.77 480.043 815.77 478.12V474.48C815.77 472.557 816.321 471.055 817.422 469.972C818.542 468.871 820.007 468.32 821.818 468.32C823.031 468.32 824.086 468.563 824.982 469.048C825.897 469.533 826.606 470.215 827.11 471.092C827.614 471.969 827.866 473.005 827.866 474.2V476.944H818.234V478.4C818.234 479.539 818.561 480.444 819.214 481.116C819.867 481.769 820.735 482.096 821.818 482.096C822.751 482.096 823.517 481.919 824.114 481.564C824.73 481.191 825.103 480.696 825.234 480.08H827.754C827.586 481.368 826.961 482.395 825.878 483.16C824.795 483.907 823.442 484.28 821.818 484.28ZM818.234 474.984H825.402V474.2C825.402 472.987 825.085 472.053 824.45 471.4C823.834 470.728 822.957 470.392 821.818 470.392C820.679 470.392 819.793 470.728 819.158 471.4C818.542 472.053 818.234 472.987 818.234 474.2V474.984ZM838.327 472.52C837.711 472.52 837.207 472.324 836.815 471.932C836.423 471.54 836.227 471.036 836.227 470.42C836.227 469.823 836.423 469.328 836.815 468.936C837.226 468.525 837.73 468.32 838.327 468.32H838.887C839.484 468.32 839.979 468.525 840.371 468.936C840.782 469.328 840.987 469.823 840.987 470.42C840.987 471.036 840.791 471.54 840.399 471.932C840.007 472.324 839.503 472.52 838.887 472.52H838.327ZM835.947 488.48L837.487 479.912H840.511L838.551 488.48H835.947Z" fill="#2EAFFF"/>
<path d="M120.58 356.36C117.911 355.763 115.839 354.512 114.364 352.608C112.908 350.704 112.18 348.315 112.18 345.44V340.4C112.18 337.525 112.908 335.136 114.364 333.232C115.839 331.328 117.911 330.077 120.58 329.48V331.916C119.385 332.196 118.34 332.728 117.444 333.512C116.567 334.296 115.885 335.276 115.4 336.452C114.933 337.609 114.7 338.925 114.7 340.4V345.44C114.7 346.896 114.933 348.212 115.4 349.388C115.885 350.564 116.567 351.544 117.444 352.328C118.34 353.112 119.385 353.644 120.58 353.924V356.36ZM127.009 356.36V353.924C128.222 353.644 129.268 353.112 130.145 352.328C131.022 351.544 131.694 350.564 132.161 349.388C132.646 348.212 132.889 346.896 132.889 345.44V340.4C132.889 338.925 132.646 337.609 132.161 336.452C131.694 335.276 131.022 334.296 130.145 333.512C129.268 332.728 128.222 332.196 127.009 331.916V329.48C129.678 330.077 131.741 331.328 133.197 333.232C134.672 335.136 135.409 337.525 135.409 340.4V345.44C135.409 348.315 134.672 350.704 133.197 352.608C131.741 354.512 129.678 355.763 127.009 356.36ZM148.698 341.52C148.082 341.52 147.578 341.324 147.186 340.932C146.794 340.54 146.598 340.036 146.598 339.42C146.598 338.823 146.794 338.328 147.186 337.936C147.597 337.525 148.101 337.32 148.698 337.32H149.258C149.855 337.32 150.35 337.525 150.742 337.936C151.153 338.328 151.358 338.823 151.358 339.42C151.358 340.036 151.162 340.54 150.77 340.932C150.378 341.324 149.874 341.52 149.258 341.52H148.698ZM146.318 357.48L147.858 348.912H150.882L148.922 357.48H146.318Z" fill="#2EAFFF"/>
<path d="M1132.4 287.28C1131.71 287.28 1131.15 287.075 1130.72 286.664C1130.31 286.253 1130.1 285.721 1130.1 285.068C1130.1 284.377 1130.31 283.817 1130.72 283.388C1131.15 282.959 1131.71 282.744 1132.4 282.744C1133.09 282.744 1133.64 282.959 1134.05 283.388C1134.48 283.817 1134.7 284.377 1134.7 285.068C1134.7 285.721 1134.48 286.253 1134.05 286.664C1133.64 287.075 1133.09 287.28 1132.4 287.28ZM1145.75 284.116L1143.81 282.744L1145.63 280.14C1145.88 279.804 1146.2 279.393 1146.61 278.908C1147.04 278.423 1147.44 277.993 1147.82 277.62C1147.29 277.545 1146.74 277.433 1146.17 277.284C1145.59 277.135 1145.13 276.995 1144.79 276.864L1141.8 275.744L1142.58 273.532L1145.61 274.652C1145.92 274.764 1146.34 274.941 1146.87 275.184C1147.39 275.427 1147.86 275.679 1148.29 275.94C1148.2 275.455 1148.13 274.96 1148.07 274.456C1148.03 273.933 1148.01 273.495 1148.01 273.14V269.64H1150.37V273.14C1150.37 273.495 1150.34 273.933 1150.28 274.456C1150.23 274.96 1150.15 275.455 1150.06 275.94C1150.51 275.679 1150.98 275.427 1151.49 275.184C1152.01 274.941 1152.44 274.764 1152.77 274.652L1155.8 273.532L1156.58 275.744L1153.59 276.864C1153.25 276.995 1152.79 277.135 1152.21 277.284C1151.63 277.433 1151.08 277.545 1150.56 277.62C1150.93 277.993 1151.34 278.432 1151.77 278.936C1152.19 279.421 1152.52 279.823 1152.75 280.14L1154.57 282.744L1152.63 284.116L1150.81 281.484C1150.59 281.167 1150.32 280.728 1150 280.168C1149.68 279.608 1149.41 279.085 1149.19 278.6C1148.97 279.085 1148.69 279.608 1148.38 280.168C1148.06 280.709 1147.79 281.148 1147.57 281.484L1145.75 284.116Z" fill="#2EAFFF"/>
<path d="M399.4 45.28C398.709 45.28 398.149 45.0747 397.72 44.664C397.309 44.2533 397.104 43.7213 397.104 43.068C397.104 42.3773 397.309 41.8173 397.72 41.388C398.149 40.9587 398.709 40.744 399.4 40.744C400.091 40.744 400.641 40.9587 401.052 41.388C401.481 41.8173 401.696 42.3773 401.696 43.068C401.696 43.7213 401.481 44.2533 401.052 44.664C400.641 45.0747 400.091 45.28 399.4 45.28ZM412.745 42.116L410.813 40.744L412.633 38.14C412.876 37.804 413.202 37.3933 413.613 36.908C414.042 36.4227 414.444 35.9933 414.817 35.62C414.294 35.5453 413.744 35.4333 413.165 35.284C412.586 35.1347 412.129 34.9947 411.793 34.864L408.797 33.744L409.581 31.532L412.605 32.652C412.922 32.764 413.342 32.9413 413.865 33.184C414.388 33.4267 414.864 33.6787 415.293 33.94C415.2 33.4547 415.125 32.96 415.069 32.456C415.032 31.9333 415.013 31.4947 415.013 31.14V27.64H417.365V31.14C417.365 31.4947 417.337 31.9333 417.281 32.456C417.225 32.96 417.15 33.4547 417.057 33.94C417.505 33.6787 417.981 33.4267 418.485 33.184C419.008 32.9413 419.437 32.764 419.773 32.652L422.797 31.532L423.581 33.744L420.585 34.864C420.249 34.9947 419.792 35.1347 419.213 35.284C418.634 35.4333 418.084 35.5453 417.561 35.62C417.934 35.9933 418.336 36.432 418.765 36.936C419.194 37.4213 419.521 37.8227 419.745 38.14L421.565 40.744L419.633 42.116L417.813 39.484C417.589 39.1667 417.318 38.728 417.001 38.168C416.684 37.608 416.413 37.0853 416.189 36.6C415.965 37.0853 415.694 37.608 415.377 38.168C415.06 38.7093 414.789 39.148 414.565 39.484L412.745 42.116Z" fill="#2EAFFF"/>
</g>
<g clip-path="url(#clip2_12243_49046)">
<g filter="url(#filter0_d_12243_49046)">
<path d="M603.903 172.238C603.903 173.342 603.004 174.236 601.9 174.254C584.355 174.544 576.018 178.665 566.029 183.504C553.653 189.5 539.499 196.27 512.952 196.27C486.404 196.27 472.25 189.5 459.875 183.504C449.885 178.665 441.548 174.544 424.004 174.254C422.899 174.236 422 173.342 422 172.238V139.591C422 138.487 422.901 137.59 424.005 137.604C449.268 137.936 463.017 144.514 475.077 150.357C485.439 155.377 494.024 159.623 512.952 159.623C531.88 159.623 540.464 155.377 550.826 150.357C562.887 144.514 576.636 137.936 601.898 137.604C603.002 137.59 603.903 138.487 603.903 139.591V172.238Z" fill="#B3E2FF" stroke="#478DB8" stroke-width="3.06" stroke-miterlimit="10"/>
<path d="M603.903 233.239C603.903 234.344 603.004 235.237 601.9 235.255C584.355 235.541 576.018 239.592 566.029 244.351C553.653 250.247 539.499 256.904 512.952 256.904C486.404 256.904 472.25 250.247 459.875 244.351C449.885 239.592 441.548 235.541 424.004 235.255C422.899 235.237 422 234.344 422 233.239V201.204C422 200.099 422.901 199.202 424.005 199.216C449.268 199.542 463.017 206.011 475.077 211.756C485.439 216.693 494.024 220.869 512.952 220.869C531.88 220.869 540.464 216.693 550.826 211.756C562.887 206.011 576.636 199.542 601.898 199.216C603.002 199.202 603.903 200.099 603.903 201.204V233.239Z" fill="#B3E2FF" stroke="#478DB8" stroke-width="3.06" stroke-miterlimit="10"/>
<path d="M604.216 228.503C561.871 228.503 527.543 238.819 527.543 251.545V385.161C527.543 397.884 561.871 408.202 604.216 408.202C646.562 408.202 680.89 397.884 680.89 385.161V251.545C680.89 238.819 646.562 228.503 604.216 228.503Z" fill="#B3E2FF"/>
<path d="M680.89 251.545C680.89 238.819 646.562 228.503 604.216 228.503C561.871 228.503 527.543 238.819 527.543 251.545M680.89 251.545V251.541V385.161M680.89 251.545V385.161M527.543 251.545C527.543 264.27 527.543 251.541 527.543 251.541M527.543 251.545V251.541M680.89 385.161C680.89 397.884 646.562 408.202 604.216 408.202C561.871 408.202 527.543 397.884 527.543 385.161V251.541" stroke="#478DB8" stroke-width="3.21" stroke-miterlimit="10"/>
<path d="M527.543 340.618C527.543 353.342 561.871 363.66 604.216 363.66C646.562 363.66 680.89 353.342 680.89 340.618" stroke="#478DB8" stroke-width="3.21" stroke-miterlimit="10"/>
<path d="M527.543 296.078C527.543 308.801 561.871 319.119 604.216 319.119C646.562 319.119 680.89 308.801 680.89 296.078" stroke="#478DB8" stroke-width="3.21" stroke-miterlimit="10"/>
<path d="M604.216 274.586C646.562 274.586 680.89 264.27 680.89 251.545C680.89 238.819 646.562 228.503 604.216 228.503C561.871 228.503 527.543 238.819 527.543 251.545C527.543 264.27 561.871 274.586 604.216 274.586Z" fill="#99D8FF" stroke="#478DB8" stroke-width="3.21" stroke-miterlimit="10"/>
<path d="M636.572 354.998H757.073C759.245 354.998 761 353.234 761 351.051V192.456C761 190.272 759.245 188.509 757.073 188.509H658.834L658.416 188.928L633.075 214.363V214.795L632.645 351.039C632.645 353.222 634.4 354.998 636.572 354.998Z" fill="#B3E2FF" stroke="#478DB8" stroke-width="3.06" stroke-miterlimit="10"/>
<path d="M749.633 347.557H629.132C626.96 347.557 625.205 345.793 625.205 343.61V186.875C625.205 184.692 626.96 182.928 629.132 182.928H727.371L727.789 183.348L753.13 208.782V209.214L753.56 343.598C753.56 345.781 751.805 347.557 749.633 347.557Z" fill="#B3E2FF" stroke="#478DB8" stroke-width="3.06" stroke-miterlimit="10"/>
<path d="M726.844 182.966C726.745 182.884 726.586 182.942 726.586 183.072V204.953C726.586 206.656 728.033 208.041 729.812 208.041H752.629V207.618V207.607" stroke="#478DB8" stroke-width="3.06" stroke-miterlimit="10"/>
<path d="M690.219 299.129C670.748 299.129 655.023 283.405 655.023 263.933C655.023 244.462 670.748 228.738 690.219 228.738C709.691 228.738 725.415 244.462 725.415 263.933C725.415 283.405 709.691 299.129 690.219 299.129Z" fill="#99D8FF" stroke="#478DB8" stroke-width="3.21" stroke-miterlimit="10" stroke-linecap="round"/>
<path d="M686.901 251.642V250.037H686.901L686.901 251.642ZM699.254 260.06L697.76 260.647L698.16 261.665H699.254V260.06ZM703.788 260.06L703.788 258.455H703.788V260.06ZM708.611 264.785H710.216V264.785L708.611 264.785ZM703.788 269.572L703.788 267.967H703.788L703.788 269.572ZM699.324 269.573L699.324 267.968L698.212 267.968L697.822 269.009L699.324 269.573ZM686.901 278.178L686.901 279.783H686.901V278.178ZM673.635 264.91L672.03 264.91V264.91H673.635ZM686.901 251.642V253.247C691.835 253.247 696.057 256.312 697.76 260.647L699.254 260.06L700.748 259.473C698.578 253.951 693.199 250.037 686.901 250.037V251.642ZM699.254 260.06V261.665H703.788V260.06V258.455H699.254V260.06ZM703.788 260.06L703.788 261.665C705.576 261.665 707.006 263.094 707.006 264.785L708.611 264.785L710.216 264.785C710.216 261.244 707.272 258.455 703.788 258.455L703.788 260.06ZM708.611 264.785H707.006C707.006 266.503 705.549 267.967 703.788 267.967L703.788 269.572L703.788 271.177C707.299 271.177 710.216 268.299 710.216 264.785H708.611ZM703.788 269.572L703.788 267.967L699.324 267.968L699.324 269.573L699.325 271.178L703.788 271.177L703.788 269.572ZM699.324 269.573L697.822 269.009C696.161 273.431 691.897 276.573 686.901 276.573V278.178V279.783C693.278 279.783 698.712 275.769 700.827 270.137L699.324 269.573ZM686.901 278.178L686.901 276.573C680.461 276.573 675.24 271.351 675.24 264.91H673.635H672.03C672.03 273.124 678.688 279.783 686.901 279.783L686.901 278.178ZM673.635 264.91L675.24 264.91C675.24 258.469 680.461 253.247 686.901 253.247L686.901 251.642L686.901 250.037C678.688 250.037 672.03 256.696 672.03 264.91L673.635 264.91Z" fill="#478DB8"/>
</g>
</g>
</g>
<defs>
<filter id="filter0_d_12243_49046" x="386.471" y="102.074" width="410.059" height="341.733" filterUnits="userSpaceOnUse" color-interpolation-filters="sRGB">
<feFlood flood-opacity="0" result="BackgroundImageFix"/>
<feColorMatrix in="SourceAlpha" type="matrix" values="0 0 0 0 0 0 0 0 0 0 0 0 0 0 0 0 0 0 127 0" result="hardAlpha"/>
<feOffset/>
<feGaussianBlur stdDeviation="17"/>
<feComposite in2="hardAlpha" operator="out"/>
<feColorMatrix type="matrix" values="0 0 0 0 0.6 0 0 0 0 0.847059 0 0 0 0 1 0 0 0 1 0"/>
<feBlend mode="normal" in2="BackgroundImageFix" result="effect1_dropShadow_12243_49046"/>
<feBlend mode="normal" in="SourceGraphic" in2="effect1_dropShadow_12243_49046" result="shape"/>
</filter>
<linearGradient id="paint0_linear_12243_49046" x1="589" y1="-26.5" x2="587" y2="627" gradientUnits="userSpaceOnUse">
<stop stop-color="#FDEF00"/>
<stop offset="0.938633" stop-color="#FFFAA3"/>
</linearGradient>
<linearGradient id="paint1_linear_12243_49046" x1="589" y1="-26.5" x2="587" y2="627" gradientUnits="userSpaceOnUse">
<stop stop-color="#2EAFFF"/>
<stop offset="0.938633" stop-color="#99D8FF"/>
</linearGradient>
<clipPath id="clip0_12243_49046">
<rect width="1200" height="515" fill="white"/>
</clipPath>
<clipPath id="clip1_12243_49046">
<rect width="1200" height="515" fill="white"/>
</clipPath>
<clipPath id="clip2_12243_49046">
<rect width="450" height="370" fill="white" transform="translate(375 72)"/>
</clipPath>
</defs>
</svg>
