<svg width="1200" height="515" viewBox="0 0 1200 515" fill="none" xmlns="http://www.w3.org/2000/svg">
<g clip-path="url(#clip0_14738_28635)">
<g clip-path="url(#clip1_14738_28635)">
<rect width="1200" height="515" fill="url(#paint0_linear_14738_28635)"/>
<path d="M-200.003 -476.574L505.555 -476.574C535.931 -476.574 560.555 -451.95 560.555 -421.574L560.555 -329.749C560.555 -299.373 535.93 -274.749 505.555 -274.749L194.061 -274.749C163.686 -274.749 139.061 -250.125 139.061 -219.749L139.061 221C139.061 251.375 114.437 276 84.0613 276L-127.502 276" stroke="#F0DF09" stroke-width="2.9926"/>
<path d="M1315 217.5L908.5 217.5C878.124 217.5 853.5 192.876 853.5 162.5L853.5 -145.829C853.5 -176.205 878.124 -200.829 908.5 -200.829L1047.93 -200.829C1078.31 -200.829 1102.93 -225.453 1102.93 -255.829L1102.93 -388" stroke="#F0DF09" stroke-width="2.9926" stroke-linejoin="round"/>
<path d="M636 556.5L636 471.07C636 440.694 611.375 416.07 581 416.07L297.5 416.071C267.124 416.071 242.5 391.447 242.5 361.071L242.5 218.309C242.5 187.934 267.124 163.309 297.5 163.309L518.576 163.309C548.951 163.309 573.576 138.685 573.576 108.309L573.576 -471.437C573.576 -501.813 598.2 -526.437 628.576 -526.437L777.936 -526.437" stroke="#F0DF09" stroke-width="2.9926" stroke-linejoin="round"/>
<rect x="251.712" y="318.387" width="19.7508" height="41.4254" rx="9.87539" transform="rotate(-180 251.712 318.387)" fill="#D4C50B" stroke="#F0DF09" stroke-width="1.92382"/>
<path d="M-220 453.505C-220.826 453.505 -221.496 454.175 -221.496 455.002C-221.496 455.828 -220.826 456.498 -220 456.498L-220 455.002L-220 453.505ZM166.933 456.058C167.517 455.474 167.517 454.526 166.933 453.942L157.411 444.42C156.826 443.835 155.879 443.835 155.294 444.42C154.71 445.004 154.71 445.951 155.295 446.536L163.759 455L155.295 463.464C154.71 464.049 154.71 464.996 155.295 465.58C155.879 466.165 156.826 466.165 157.411 465.58L166.933 456.058ZM-220 455.002L-220 456.498L165.875 456.496L165.875 455L165.875 453.504L-220 453.505L-220 455.002Z" fill="#F0DF09"/>
<path d="M1005.5 614.375C1005.5 615.201 1006.17 615.871 1007 615.871C1007.83 615.871 1008.5 615.201 1008.5 614.375L1007 614.375L1005.5 614.375ZM1008.06 326.442C1007.47 325.858 1006.53 325.858 1005.94 326.442L996.42 335.964C995.835 336.549 995.835 337.496 996.42 338.08C997.004 338.665 997.951 338.665 998.536 338.08L1007 329.616L1015.46 338.08C1016.05 338.665 1017 338.665 1017.58 338.08C1018.16 337.496 1018.16 336.549 1017.58 335.964L1008.06 326.442ZM1007 614.375L1008.5 614.375L1008.5 327.5L1007 327.5L1005.5 327.5L1005.5 614.375L1007 614.375Z" fill="#F0DF09"/>
<rect x="1081.96" y="230.038" width="25.0762" height="51.0762" rx="12.5381" transform="rotate(-90 1081.96 230.038)" fill="#D4C50B" stroke="#F0DF09" stroke-width="1.92382"/>
<path d="M234.4 95L239.72 74.56H243.108L248.4 95H245.852L244.508 89.568H238.32L236.976 95H234.4ZM238.824 87.44H243.976L242.408 81.14C242.109 79.9453 241.876 78.9467 241.708 78.144C241.54 77.3413 241.437 76.8187 241.4 76.576C241.363 76.8187 241.26 77.3413 241.092 78.144C240.924 78.9467 240.691 79.936 240.392 81.112L238.824 87.44ZM256.929 95V76.856H251.329V74.56H265.049V76.856H259.449V95H256.929ZM273.718 95V76.856H268.118V74.56H281.838V76.856H276.238V95H273.718ZM284.767 95L290.087 74.56H293.475L298.767 95H296.219L294.875 89.568H288.687L287.343 95H284.767ZM289.191 87.44H294.343L292.775 81.14C292.477 79.9453 292.243 78.9467 292.075 78.144C291.907 77.3413 291.805 76.8187 291.767 76.576C291.73 76.8187 291.627 77.3413 291.459 78.144C291.291 78.9467 291.058 79.936 290.759 81.112L289.191 87.44ZM308.78 95.28C306.914 95.28 305.439 94.7573 304.356 93.712C303.274 92.6667 302.732 91.2293 302.732 89.4V80.16C302.732 78.3307 303.274 76.8933 304.356 75.848C305.439 74.8027 306.914 74.28 308.78 74.28C310.61 74.28 312.066 74.812 313.148 75.876C314.231 76.9213 314.772 78.3493 314.772 80.16H312.252C312.252 79.0027 311.944 78.116 311.328 77.5C310.731 76.8653 309.882 76.548 308.78 76.548C307.679 76.548 306.811 76.8653 306.176 77.5C305.56 78.116 305.252 79.0027 305.252 80.16V89.4C305.252 90.5573 305.56 91.4533 306.176 92.088C306.811 92.704 307.679 93.012 308.78 93.012C309.882 93.012 310.731 92.704 311.328 92.088C311.944 91.4533 312.252 90.5573 312.252 89.4H314.772C314.772 91.2107 314.231 92.648 313.148 93.712C312.066 94.7573 310.61 95.28 308.78 95.28ZM319.549 95V74.56H322.069V83.296H328.621V74.56H331.141V95H328.621V85.592H322.069V95H319.549Z" fill="#F3E223"/>
<path d="M274.58 483.36C271.911 482.763 269.839 481.512 268.364 479.608C266.908 477.704 266.18 475.315 266.18 472.44V467.4C266.18 464.525 266.908 462.136 268.364 460.232C269.839 458.328 271.911 457.077 274.58 456.48V458.916C273.385 459.196 272.34 459.728 271.444 460.512C270.567 461.296 269.885 462.276 269.4 463.452C268.933 464.609 268.7 465.925 268.7 467.4V472.44C268.7 473.896 268.933 475.212 269.4 476.388C269.885 477.564 270.567 478.544 271.444 479.328C272.34 480.112 273.385 480.644 274.58 480.924V483.36ZM281.009 483.36V480.924C282.222 480.644 283.268 480.112 284.145 479.328C285.022 478.544 285.694 477.564 286.161 476.388C286.646 475.212 286.889 473.896 286.889 472.44V467.4C286.889 465.925 286.646 464.609 286.161 463.452C285.694 462.276 285.022 461.296 284.145 460.512C283.268 459.728 282.222 459.196 281.009 458.916V456.48C283.678 457.077 285.741 458.328 287.197 460.232C288.672 462.136 289.409 464.525 289.409 467.4V472.44C289.409 475.315 288.672 477.704 287.197 479.608C285.741 481.512 283.678 482.763 281.009 483.36Z" fill="#F3E223"/>
<path d="M51.58 360.36C48.9107 359.763 46.8387 358.512 45.364 356.608C43.908 354.704 43.18 352.315 43.18 349.44V344.4C43.18 341.525 43.908 339.136 45.364 337.232C46.8387 335.328 48.9107 334.077 51.58 333.48V335.916C50.3853 336.196 49.34 336.728 48.444 337.512C47.5667 338.296 46.8853 339.276 46.4 340.452C45.9333 341.609 45.7 342.925 45.7 344.4V349.44C45.7 350.896 45.9333 352.212 46.4 353.388C46.8853 354.564 47.5667 355.544 48.444 356.328C49.34 357.112 50.3853 357.644 51.58 357.924V360.36ZM58.0091 360.36V357.924C59.2224 357.644 60.2677 357.112 61.1451 356.328C62.0224 355.544 62.6944 354.564 63.1611 353.388C63.6464 352.212 63.8891 350.896 63.8891 349.44V344.4C63.8891 342.925 63.6464 341.609 63.1611 340.452C62.6944 339.276 62.0224 338.296 61.1451 337.512C60.2677 336.728 59.2224 336.196 58.0091 335.916V333.48C60.6784 334.077 62.7411 335.328 64.1971 337.232C65.6717 339.136 66.4091 341.525 66.4091 344.4V349.44C66.4091 352.315 65.6717 354.704 64.1971 356.608C62.7411 358.512 60.6784 359.763 58.0091 360.36ZM79.6981 345.52C79.0821 345.52 78.5781 345.324 78.1861 344.932C77.7941 344.54 77.5981 344.036 77.5981 343.42C77.5981 342.823 77.7941 342.328 78.1861 341.936C78.5968 341.525 79.1008 341.32 79.6981 341.32H80.2581C80.8555 341.32 81.3501 341.525 81.7421 341.936C82.1528 342.328 82.3581 342.823 82.3581 343.42C82.3581 344.036 82.1621 344.54 81.7701 344.932C81.3781 345.324 80.8741 345.52 80.2581 345.52H79.6981ZM77.3181 361.48L78.8581 352.912H81.8821L79.9221 361.48H77.3181Z" fill="#F3E223"/>
<path d="M1025.47 115.28C1023.6 115.28 1022.13 114.757 1021.04 113.712C1019.96 112.667 1019.42 111.229 1019.42 109.4V100.16C1019.42 98.3307 1019.96 96.8933 1021.04 95.848C1022.13 94.8027 1023.6 94.28 1025.47 94.28C1027.3 94.28 1028.75 94.812 1029.84 95.876C1030.92 96.9213 1031.46 98.3493 1031.46 100.16H1028.94C1028.94 99.0027 1028.63 98.116 1028.02 97.5C1027.42 96.8653 1026.57 96.548 1025.47 96.548C1024.37 96.548 1023.5 96.8653 1022.86 97.5C1022.25 98.116 1021.94 99.0027 1021.94 100.16V109.4C1021.94 110.557 1022.25 111.453 1022.86 112.088C1023.5 112.704 1024.37 113.012 1025.47 113.012C1026.57 113.012 1027.42 112.704 1028.02 112.088C1028.63 111.453 1028.94 110.557 1028.94 109.4H1031.46C1031.46 111.211 1030.92 112.648 1029.84 113.712C1028.75 114.757 1027.3 115.28 1025.47 115.28ZM1035.03 115L1040.35 94.56H1043.74L1049.03 115H1046.48L1045.14 109.568H1038.95L1037.61 115H1035.03ZM1039.46 107.44H1044.61L1043.04 101.14C1042.74 99.9453 1042.51 98.9467 1042.34 98.144C1042.17 97.3413 1042.07 96.8187 1042.03 96.576C1042 96.8187 1041.89 97.3413 1041.72 98.144C1041.56 98.9467 1041.32 99.936 1041.02 101.112L1039.46 107.44ZM1054.06 115V94.56H1056.58V112.704H1065.82V115H1054.06ZM1070.85 115V94.56H1073.37V112.704H1082.61V115H1070.85Z" fill="#F3E223"/>
</g>
<path d="M410.929 326.477C372.278 326.477 341.064 295.264 341.064 256.613C341.064 217.962 372.278 186.749 410.929 186.749C449.579 186.749 480.793 217.962 480.793 256.613C480.793 295.264 449.579 326.477 410.929 326.477Z" fill="black"/>
<path d="M448.285 246.248H434.58V266.931H448.285C453.968 266.931 458.69 262.21 458.69 256.527C458.69 250.803 453.968 246.248 448.285 246.248Z" fill="#FFF100"/>
<path d="M367.428 256.614C367.428 272.576 380.423 285.571 396.385 285.571C412.346 285.571 425.341 272.576 425.341 256.614C425.341 240.652 412.346 227.657 396.385 227.657C380.423 227.657 367.428 240.652 367.428 256.614Z" fill="#FFF100"/>
<path d="M516.621 274.113V239.098H526.023C528.293 239.098 530.26 239.545 531.923 240.441C533.618 241.304 534.929 242.535 535.856 244.134C536.783 245.701 537.247 247.556 537.247 249.698V263.465C537.247 265.607 536.783 267.478 535.856 269.077C534.929 270.676 533.618 271.923 531.923 272.818C530.26 273.682 528.293 274.113 526.023 274.113H516.621ZM521.37 269.892H526.023C528.037 269.892 529.62 269.317 530.772 268.165C531.923 267.014 532.498 265.447 532.498 263.465V249.698C532.498 247.716 531.923 246.165 530.772 245.046C529.62 243.894 528.037 243.319 526.023 243.319H521.37V269.892ZM555.504 274.593C552.402 274.593 549.923 273.682 548.069 271.859C546.214 270.036 545.287 267.558 545.287 264.424V247.732H550.035V264.424C550.035 266.279 550.515 267.75 551.474 268.837C552.466 269.892 553.809 270.42 555.504 270.42C557.23 270.42 558.589 269.892 559.581 268.837C560.572 267.75 561.068 266.279 561.068 264.424V247.732H565.816V264.424C565.816 267.558 564.873 270.036 562.986 271.859C561.132 273.682 558.637 274.593 555.504 274.593ZM584.696 274.593C581.467 274.593 578.876 273.698 576.926 271.907C574.975 270.084 574 267.59 574 264.424V257.373C574 254.239 574.975 251.777 576.926 249.986C578.876 248.163 581.467 247.252 584.696 247.252C587.798 247.252 590.292 248.083 592.179 249.746C594.098 251.377 595.105 253.616 595.201 256.462H590.5C590.404 254.863 589.829 253.632 588.774 252.768C587.75 251.873 586.391 251.425 584.696 251.425C582.874 251.425 581.419 251.953 580.331 253.008C579.276 254.031 578.749 255.486 578.749 257.373V264.424C578.749 266.343 579.276 267.814 580.331 268.837C581.419 269.86 582.874 270.372 584.696 270.372C586.423 270.372 587.798 269.94 588.822 269.077C589.845 268.213 590.404 266.982 590.5 265.383H595.201C595.105 268.229 594.098 270.484 592.179 272.147C590.292 273.778 587.798 274.593 584.696 274.593ZM603.145 274.113V239.098H607.893V258.476H612.738L619.837 247.732H625.209L616.911 260.347L625.641 274.113H620.173L612.786 262.553H607.893V274.113H603.145ZM631.666 274.113V239.098H641.068C643.338 239.098 645.305 239.545 646.967 240.441C648.662 241.304 649.973 242.535 650.901 244.134C651.828 245.701 652.292 247.556 652.292 249.698V263.465C652.292 265.607 651.828 267.478 650.901 269.077C649.973 270.676 648.662 271.923 646.967 272.818C645.305 273.682 643.338 274.113 641.068 274.113H631.666ZM636.415 269.892H641.068C643.082 269.892 644.665 269.317 645.816 268.165C646.967 267.014 647.543 265.447 647.543 263.465V249.698C647.543 247.716 646.967 246.165 645.816 245.046C644.665 243.894 643.082 243.319 641.068 243.319H636.415V269.892ZM660.475 274.113V239.098H670.596C673.826 239.098 676.368 239.913 678.223 241.544C680.11 243.143 681.053 245.349 681.053 248.163C681.053 249.986 680.477 251.617 679.326 253.056C678.207 254.463 676.752 255.326 674.961 255.646V255.79C676.304 255.95 677.487 256.43 678.511 257.229C679.566 258.029 680.381 259.052 680.957 260.299C681.565 261.514 681.868 262.857 681.868 264.328C681.868 267.334 680.909 269.716 678.99 271.475C677.104 273.234 674.529 274.113 671.268 274.113H660.475ZM665.128 253.871H670.548C672.339 253.871 673.746 253.408 674.769 252.48C675.793 251.521 676.304 250.226 676.304 248.595C676.304 246.932 675.793 245.637 674.769 244.71C673.746 243.75 672.355 243.271 670.596 243.271H665.128V253.871ZM665.128 269.94H670.836C672.787 269.94 674.322 269.429 675.441 268.405C676.56 267.35 677.12 265.927 677.12 264.136C677.12 262.282 676.56 260.779 675.441 259.627C674.322 258.476 672.787 257.901 670.836 257.901H665.128V269.94ZM717.998 274.113V269.796H727.351V243.367L717.95 250.37V244.998L725.912 239.098H732.1V269.796H739.774V274.113H717.998ZM756.88 274.593C755.665 274.593 754.673 274.225 753.906 273.49C753.17 272.754 752.803 271.811 752.803 270.66C752.803 269.445 753.17 268.453 753.906 267.686C754.673 266.918 755.665 266.535 756.88 266.535C758.095 266.535 759.07 266.918 759.806 267.686C760.573 268.453 760.957 269.445 760.957 270.66C760.957 271.811 760.573 272.754 759.806 273.49C759.07 274.225 758.095 274.593 756.88 274.593ZM785.401 274.593C782.107 274.593 779.501 273.698 777.582 271.907C775.664 270.084 774.704 267.622 774.704 264.52H779.453C779.453 266.343 779.981 267.782 781.036 268.837C782.123 269.86 783.578 270.372 785.401 270.372C787.256 270.372 788.711 269.844 789.766 268.789C790.853 267.734 791.397 266.295 791.397 264.472V262.266C791.397 260.443 790.869 259.004 789.814 257.949C788.791 256.893 787.384 256.366 785.593 256.366H775.904V239.098H794.898V243.415H780.317L780.412 252.097H785.833C789.094 252.097 791.621 252.992 793.411 254.783C795.234 256.542 796.146 259.036 796.146 262.266V264.472C796.146 267.606 795.17 270.084 793.22 271.907C791.301 273.698 788.695 274.593 785.401 274.593ZM814.402 274.593C813.187 274.593 812.196 274.225 811.428 273.49C810.693 272.754 810.325 271.811 810.325 270.66C810.325 269.445 810.693 268.453 811.428 267.686C812.196 266.918 813.187 266.535 814.402 266.535C815.617 266.535 816.592 266.918 817.328 267.686C818.095 268.453 818.479 269.445 818.479 270.66C818.479 271.811 818.095 272.754 817.328 273.49C816.592 274.225 815.617 274.593 814.402 274.593ZM842.684 274.593C839.39 274.593 836.784 273.698 834.865 271.907C832.946 270.084 831.987 267.622 831.987 264.52H836.736C836.736 266.343 837.263 267.782 838.319 268.837C839.406 269.86 840.877 270.372 842.731 270.372C844.554 270.372 846.009 269.86 847.096 268.837C848.184 267.782 848.727 266.343 848.727 264.52V262.074C848.727 260.251 848.184 258.812 847.096 257.757C846.041 256.669 844.586 256.126 842.731 256.126H838.798V252.145L847.24 243.367H833.042V239.098H852.565V243.415L844.218 252.049C847.064 252.305 849.319 253.328 850.982 255.119C852.645 256.877 853.476 259.196 853.476 262.074V264.52C853.476 267.622 852.501 270.084 850.55 271.907C848.631 273.698 846.009 274.593 842.684 274.593Z" fill="black"/>
</g>
<defs>
<linearGradient id="paint0_linear_14738_28635" x1="587" y1="-85" x2="587" y2="627" gradientUnits="userSpaceOnUse">
<stop stop-color="#FDEF00"/>
<stop offset="0.938633" stop-color="#FFFAA3"/>
</linearGradient>
<clipPath id="clip0_14738_28635">
<rect width="1200" height="514.29" fill="white"/>
</clipPath>
<clipPath id="clip1_14738_28635">
<rect width="1200" height="515" fill="white"/>
</clipPath>
</defs>
</svg>
