<svg width="367" height="206" viewBox="0 0 367 206" fill="none" xmlns="http://www.w3.org/2000/svg">
<g clip-path="url(#clip0_4032_8299)">
<rect width="367" height="206" fill="#FFF100"/>
<g clip-path="url(#clip1_4032_8299)">
<rect width="177.778" height="200" fill="black"/>
<path d="M177.87 53.426L151.574 53.426C146.972 53.426 143.241 49.6951 143.241 45.0927L143.241 -11.8517C143.241 -16.4541 146.972 -20.1851 151.574 -20.1851L169.537 -20.1851C174.139 -20.1851 177.87 -16.4541 177.87 -11.8518L177.87 53.426Z" fill="url(#paint0_linear_4032_8299)"/>
</g>
<path d="M122.232 168.334H177.778V210.926H-1.11111C-6.02031 210.926 -10 206.946 -10 202.037V96.4817C-10 91.5725 -6.02031 87.5928 -1.11111 87.5928H47.2644C52.1207 87.5928 56.0781 91.4902 56.1523 96.3458L56.7181 133.377C56.7923 138.232 60.7497 142.13 65.606 142.13H104.713C109.733 142.13 113.757 146.284 113.597 151.301L113.347 159.162C113.188 164.179 117.212 168.334 122.232 168.334Z" fill="url(#paint1_linear_4032_8299)"/>
<path d="M336.296 38.1326L336.296 -23.704L177.778 -23.7037L177.778 168.333L212.481 168.333C217.083 168.333 220.814 164.602 220.814 160L220.814 90.2257C220.814 85.5816 224.611 81.8336 229.254 81.893L244.24 82.0848C248.883 82.1442 252.68 78.3962 252.68 73.7521L252.68 55.126C252.68 50.5395 256.386 46.8151 260.972 46.7928L328.004 46.4659C332.59 46.4435 336.296 42.7191 336.296 38.1326Z" fill="#EDDE00"/>
<path d="M342.18 94.2132L369.972 94.2132L369.972 206.482L287.333 206.482L287.333 174.597C287.333 169.995 291.064 166.264 295.667 166.264L325.513 166.264C330.116 166.264 333.847 162.533 333.847 157.93L333.847 102.546C333.847 97.9441 337.578 94.2132 342.18 94.2132Z" fill="#EDDE00"/>
<path d="M231.204 45.0927C231.204 49.6951 227.473 53.426 222.87 53.426L177.778 53.426L177.778 -11.8518C177.778 -16.4541 181.509 -20.1851 186.111 -20.1851L222.87 -20.1851C227.473 -20.1851 231.204 -16.4541 231.204 -11.8518L231.204 45.0927Z" fill="#FFF100"/>
<path d="M27.9086 23.2415C27.9086 18.0057 24.796 17.2094 21.6111 17.2094H20.0187V29.2976H21.6111C24.796 29.2976 27.9086 28.5255 27.9086 23.2415ZM16.5683 14.5071H21.7559C27.3054 14.5071 31.4795 16.2926 31.4795 23.2415C31.4795 30.1904 27.3054 32 21.7559 32H16.5683V14.5071ZM41.5417 32V30.2869C40.7937 31.6139 39.3702 32.3137 37.7536 32.3137C34.6411 32.3137 33.3864 30.4075 33.3864 27.2226V19.0191H36.7161V26.4988C36.7161 28.236 36.9815 29.6354 38.8394 29.6354C41.0592 29.6354 41.5417 27.8258 41.5417 25.7749V19.0191H44.8714V32H41.5417ZM53.5279 18.7295C56.2544 18.7295 58.9568 20.2496 59.4152 23.4586H56.2303C55.9649 22.204 54.8067 21.3112 53.5279 21.3112C51.7907 21.3112 50.4154 22.783 50.4154 25.4854C50.4154 28.2119 51.7183 29.732 53.5521 29.732C54.7102 29.732 55.8925 29.1288 56.3509 27.5845H59.5359C58.7637 31.1314 56.0855 32.3137 53.3832 32.3137C49.4985 32.3137 47.0133 29.4665 47.0133 25.5337C47.0133 21.5766 49.6433 18.7295 53.5279 18.7295ZM61.5242 14.5071H64.8538V24.2307L69.583 19.0191H73.3228L68.6661 23.9895L73.5882 32H69.8484L66.4463 26.3781L64.8538 28.0912V32H61.5242V14.5071ZM86.8512 26.2575H90.1326C89.6742 29.8043 86.7305 32.3137 82.5564 32.3137C77.3447 32.3137 74.3769 28.7668 74.3769 23.1691C74.3769 17.6438 77.5618 14.1934 82.6529 14.1934C86.7547 14.1934 89.5535 16.5339 90.1326 20.1772H86.8512C86.1997 17.7403 84.559 16.944 82.6288 16.944C79.9988 16.944 77.9479 19.1156 77.9479 23.1691C77.9479 27.3433 79.9988 29.5631 82.5081 29.5631C84.5831 29.5631 86.2721 28.6462 86.8512 26.2575ZM98.2493 21.3354C96.4155 21.3354 95.1126 22.8072 95.1126 25.5337C95.1126 28.2601 96.4155 29.7078 98.2493 29.7078C100.083 29.7078 101.386 28.2601 101.386 25.5337C101.386 22.8072 100.083 21.3354 98.2493 21.3354ZM98.2493 32.3137C94.9678 32.3137 91.7347 30.0697 91.7347 25.5337C91.7347 20.9734 94.9678 18.7295 98.2493 18.7295C101.531 18.7295 104.764 20.9734 104.764 25.5337C104.764 30.0697 101.531 32.3137 98.2493 32.3137ZM110.212 19.0191V20.7322C110.96 19.4051 112.359 18.7295 113.976 18.7295C117.088 18.7295 118.464 20.6115 118.464 23.8206V32H115.134V24.5444C115.134 22.8796 114.772 21.4077 112.89 21.4077C110.694 21.4077 110.212 23.1932 110.212 25.2441V32H106.882V19.0191H110.212ZM126.578 18.5606H129.956L130.511 14.5071H133.503L132.948 18.5606H136.157L136.712 14.5071H139.704L139.149 18.5606H142.478L142.165 21.1423H138.787L138.28 24.7857H141.586L141.32 27.3433H137.918L137.291 32H134.299L134.926 27.3433H131.717L131.09 32H128.098L128.725 27.3433H125.42L125.733 24.7857H129.087L129.594 21.1423H126.312L126.578 18.5606ZM132.586 21.1423L132.079 24.7857H135.288L135.795 21.1423H132.586ZM147.174 26.3299C147.174 28.429 148.549 29.8043 150.383 29.8043C152.192 29.8043 153.52 28.4532 153.52 26.3299C153.52 24.279 152.192 22.9278 150.383 22.9278C148.549 22.9278 147.174 24.279 147.174 26.3299ZM150.528 16.7269C148.308 16.7269 146.981 18.7778 146.981 22.0592C147.729 21.1182 149.128 20.3944 150.962 20.3944C154.195 20.3944 156.897 22.59 156.897 26.3781C156.897 29.9732 154.171 32.3137 150.383 32.3137C145.702 32.3137 143.651 28.5497 143.651 23.6517C143.651 18.633 145.509 14.1934 150.745 14.1934C154.557 14.1934 156.343 16.7751 156.536 19.0191H153.278C153.109 17.5714 151.975 16.7269 150.528 16.7269ZM15 56L21.5146 38.5071H24.9891L31.5278 56H27.7879L26.5574 52.4532H19.7532L18.5227 56H15ZM23.1553 42.7295L20.7425 49.6302H25.5681L23.1553 42.7295ZM48.9862 56V48.4479C48.9862 47.0243 48.8656 45.4077 46.9112 45.4077C44.6914 45.4077 44.3295 47.2656 44.3295 49.2441V56H40.9998V48.4479C40.9998 47.0243 40.8791 45.4077 38.9248 45.4077C36.705 45.4077 36.343 47.2656 36.343 49.2441V56H33.0134V43.0191H36.343V44.7322C37.091 43.4534 38.3939 42.7295 39.9623 42.7295C42.1579 42.7295 43.1472 43.9118 43.6539 44.8528C44.6914 43.4051 45.9702 42.7295 47.9246 42.7295C51.1819 42.7295 52.3159 44.7563 52.3159 47.8206V56H48.9862ZM65.5385 46.9278H62.4259C62.1605 45.842 61.1954 45.0699 59.6512 45.0699C58.4207 45.0699 57.5521 45.5284 57.5521 46.3246C57.5521 47.0243 58.0588 47.5551 59.2893 47.8206L61.0265 48.2066C63.6082 48.7857 65.8039 49.4371 65.8039 52.1154C65.8039 54.7212 63.1257 56.3137 60.182 56.3137C56.9971 56.3137 54.5843 54.673 54.2706 51.7052H57.4797C57.6727 52.9599 58.5413 53.9009 60.2785 53.9009C61.7262 53.9009 62.619 53.37 62.619 52.429C62.619 51.4639 61.6297 51.102 60.4957 50.8366L58.5654 50.4264C56.1285 49.9197 54.5119 48.9063 54.5119 46.5418C54.5119 44.2255 57.0212 42.6813 59.8201 42.6813C62.5225 42.6813 65.08 43.9359 65.5385 46.9278ZM68.5094 43.0191V39.4963H71.8391V43.0191H74.5415V45.3112H71.8391V52.0189C71.8391 53.3459 72.2976 53.6113 73.4798 53.6113H74.4932V56H72.0563C69.0644 56 68.5094 55.0831 68.5094 52.5014V45.3112H66.6757V43.0191H68.5094ZM88.7149 50.4264H79.136C79.329 52.6462 80.825 53.732 82.4174 53.732C83.4549 53.732 84.4683 53.37 85.1439 52.236H88.5701C87.8704 54.1663 85.9884 56.3137 82.4416 56.3137C78.2674 56.3137 75.8305 53.2011 75.8305 49.4613C75.8305 45.6008 78.5087 42.7295 82.3451 42.7295C86.3503 42.7295 88.8355 45.842 88.7149 50.4264ZM82.3209 45.1665C81.0663 45.1665 79.4497 45.9386 79.1843 48.1342H85.3369C85.2646 45.9386 83.7204 45.1665 82.3209 45.1665ZM98.2911 43.0914V46.2281C97.8086 46.1557 97.3984 46.1557 96.9158 46.1557C95.2751 46.1557 94.1893 46.7589 94.1893 49.1959V56H90.8597V43.0191H94.1411V45.2871C94.8891 43.6705 96.0472 43.0432 97.5673 43.0432C97.7844 43.0432 98.074 43.0673 98.2911 43.0914ZM111.873 56H108.543V54.3593C107.699 55.807 106.155 56.3137 104.803 56.3137C101.715 56.3137 99.1575 53.6596 99.1575 49.5095C99.1575 45.4319 101.667 42.7295 104.803 42.7295C106.444 42.7295 107.844 43.4534 108.543 44.6839V38.5071H111.873V56ZM105.624 53.7561C107.458 53.7561 108.664 52.1878 108.664 49.5095C108.664 46.9037 107.458 45.2871 105.624 45.2871C103.887 45.2871 102.656 47.0002 102.656 49.5337C102.656 52.0671 103.887 53.7561 105.624 53.7561ZM122.977 51.0296V50.0645C119.237 50.4505 117.765 50.8848 117.765 52.3325C117.765 53.2735 118.489 54.0456 120.009 54.0456C122.108 54.0456 122.977 52.9357 122.977 51.0296ZM123.267 54.3834C122.326 55.7346 120.974 56.3137 119.02 56.3137C116.535 56.3137 114.339 54.866 114.339 52.5014C114.339 49.4371 117.765 48.5203 122.881 47.9412V47.724C122.881 45.7214 121.795 45.0217 120.444 45.0217C119.165 45.0217 118.103 45.6732 118.031 47.1208H114.918C115.184 44.5633 117.259 42.6813 120.612 42.6813C123.677 42.6813 126.21 44.0324 126.21 48.3996C126.21 48.7857 126.162 50.547 126.162 51.7052C126.162 53.7561 126.283 54.9142 126.548 56H123.484C123.387 55.5898 123.339 55.0349 123.267 54.3834ZM144.957 56V48.4479C144.957 47.0243 144.836 45.4077 142.882 45.4077C140.662 45.4077 140.3 47.2656 140.3 49.2441V56H136.97V48.4479C136.97 47.0243 136.85 45.4077 134.895 45.4077C132.676 45.4077 132.314 47.2656 132.314 49.2441V56H128.984V43.0191H132.314V44.7322C133.062 43.4534 134.365 42.7295 135.933 42.7295C138.129 42.7295 139.118 43.9118 139.625 44.8528C140.662 43.4051 141.941 42.7295 143.895 42.7295C147.153 42.7295 148.287 44.7563 148.287 47.8206V56H144.957Z" fill="#FFF100"/>
<path d="M21.7077 63.9301C24.784 63.9301 26.7732 65.5492 26.7732 68.2554C26.7732 71.6555 23.8588 74.9631 17.6831 79.6122H27.282V81H15.6939V79.5659C21.8696 74.8705 25.2466 71.5398 25.2466 68.4173C25.2466 66.2662 23.6044 65.2022 21.7077 65.2022C19.6029 65.2022 17.6831 66.1968 17.6137 69.4119H16.0871C16.249 65.8267 18.377 63.9301 21.7077 63.9301ZM35.871 81.3007C31.4301 81.3007 29.4178 77.9468 29.4178 72.6038C29.4178 67.307 31.4301 63.9301 35.871 63.9301C40.2657 63.9301 42.3012 67.307 42.3012 72.6038C42.3012 77.9468 40.2657 81.3007 35.871 81.3007ZM35.871 80.0285C38.8779 80.0285 40.7977 77.6693 40.7977 72.6038C40.7977 67.5846 38.8779 65.2022 35.871 65.2022C32.841 65.2022 30.9443 67.5846 30.9443 72.6038C30.9443 77.6693 32.841 80.0285 35.871 80.0285ZM50.2588 63.9301C53.3351 63.9301 55.3243 65.5492 55.3243 68.2554C55.3243 71.6555 52.4099 74.9631 46.2342 79.6122H55.8331V81H44.245V79.5659C50.4207 74.8705 53.7977 71.5398 53.7977 68.4173C53.7977 66.2662 52.1555 65.2022 50.2588 65.2022C48.154 65.2022 46.2342 66.1968 46.1648 69.4119H44.6382C44.8001 65.8267 46.9281 63.9301 50.2588 63.9301ZM63.5894 80.0285C65.9256 80.0285 67.9148 78.4326 67.9148 75.5182C67.9148 72.3725 65.6711 71.0772 63.5432 71.0772C61.6465 71.0772 60.0737 72.0949 59.588 73.2283L58.177 73.0895L59.2641 64.2308H68.7474V65.6186H60.5132L59.773 71.3548C60.5825 70.4296 62.2479 69.782 63.8901 69.782C66.9896 69.782 69.4413 71.7943 69.4413 75.4951C69.4413 79.3115 66.6426 81.3007 63.5894 81.3007C60.2587 81.3007 58.0151 79.1265 57.7144 76.2815H59.241C59.7267 78.872 61.6003 80.0285 63.5894 80.0285ZM78.1275 75.4719H71.6511V73.8528H78.1275V75.4719ZM86.8293 81.3007C82.3884 81.3007 80.376 77.9468 80.376 72.6038C80.376 67.307 82.3884 63.9301 86.8293 63.9301C91.224 63.9301 93.2595 67.307 93.2595 72.6038C93.2595 77.9468 91.224 81.3007 86.8293 81.3007ZM86.8293 80.0285C89.8362 80.0285 91.756 77.6693 91.756 72.6038C91.756 67.5846 89.8362 65.2022 86.8293 65.2022C83.7993 65.2022 81.9026 67.5846 81.9026 72.6038C81.9026 77.6693 83.7993 80.0285 86.8293 80.0285ZM99.783 81H98.3489V67.4227H94.5094V66.4512C97.4469 66.4512 98.187 66.1505 98.8115 64.092H99.783V81ZM109.502 75.4719H103.026V73.8528H109.502V75.4719ZM116.77 80.0285C119.314 80.0285 121.165 78.7101 121.165 76.374C121.165 73.8066 119.222 72.7657 116.076 72.7657H115.937V71.4936H116.076C119.222 71.4936 120.725 70.3371 120.725 68.3016C120.725 66.5669 119.36 65.2022 116.885 65.2022C115.128 65.2022 113.115 66.1505 112.745 68.7411H111.219C111.589 65.873 113.647 63.9301 117.001 63.9301C120.216 63.9301 122.252 65.5492 122.252 68.1629C122.252 69.8282 121.373 71.4242 119.499 72.0718C121.28 72.5576 122.691 73.7603 122.691 76.3509C122.691 79.6816 119.916 81.3007 116.793 81.3007C113.439 81.3007 111.195 79.1265 110.895 76.2815H112.421C112.907 78.872 114.781 80.0285 116.77 80.0285ZM128.967 81H127.533V67.4227H123.693V66.4512C126.63 66.4512 127.371 66.1505 127.995 64.092H128.967V81Z" fill="#FFF100"/>
</g>
<defs>
<linearGradient id="paint0_linear_4032_8299" x1="160.556" y1="53.426" x2="160.556" y2="-20.1851" gradientUnits="userSpaceOnUse">
<stop stop-color="#222222"/>
<stop offset="1" stop-color="#161616"/>
</linearGradient>
<linearGradient id="paint1_linear_4032_8299" x1="83.8889" y1="81.0187" x2="83.8889" y2="210.926" gradientUnits="userSpaceOnUse">
<stop stop-color="#222222"/>
<stop offset="1" stop-color="#161616"/>
</linearGradient>
<clipPath id="clip0_4032_8299">
<rect width="367" height="206" fill="white"/>
</clipPath>
<clipPath id="clip1_4032_8299">
<rect width="177.778" height="200" fill="white"/>
</clipPath>
</defs>
</svg>
