<svg xmlns="http://www.w3.org/2000/svg" width="560" height="240" fill="none" viewBox="0 0 560 240"><g clip-path="url(#clip0_4723_16535)"><rect width="560" height="240" fill="#FFF100"/><g clip-path="url(#clip1_4723_16535)"><rect width="560" height="240" fill="#FFF100"/><path fill="url(#paint0_linear_4723_16535)" d="M294.978 54.1962L416.868 54.1962C427.914 54.1962 436.868 63.1505 436.868 74.1962L436.868 192.5C436.868 203.546 445.822 212.5 456.868 212.5L583.619 212.5C594.665 212.5 603.619 203.546 603.619 192.5L603.619 -13.9535C603.619 -24.9992 594.665 -33.9535 583.619 -33.9535L294.978 -33.9539C283.932 -33.9539 274.978 -24.9996 274.978 -13.9539L274.978 34.1962C274.978 45.2419 283.932 54.1962 294.978 54.1962Z"/><path fill="url(#paint1_linear_4723_16535)" d="M-22.5 45.3256L37.5002 45.3256C48.5459 45.3256 57.5002 54.2799 57.5002 65.3256L57.5 139C57.5 150.046 66.4543 159 77.5 159L114.5 159C125.546 159 134.5 167.954 134.5 179L134.5 268.827C134.5 279.873 125.546 288.827 114.5 288.827L-22.5 288.827C-33.5457 288.827 -42.5 279.873 -42.5 268.827L-42.5 65.3255C-42.5 54.2799 -33.5457 45.3256 -22.5 45.3256Z"/><path stroke="url(#paint2_linear_4723_16535)" stroke-linecap="round" stroke-linejoin="round" stroke-width="3" d="M-65.9998 184L62.478 184C79.0466 184 92.478 197.431 92.478 214L92.478 371"/><path stroke="url(#paint3_linear_4723_16535)" stroke-linecap="round" stroke-linejoin="round" stroke-width="3" d="M490 -95L490 126C490 142.569 503.431 156 520 156L668 156"/></g><path fill="#000" d="M184.332 94.5071C184.332 89.2713 181.219 88.4751 178.034 88.4751H176.442V100.563H178.034C181.219 100.563 184.332 99.7912 184.332 94.5071ZM172.992 85.7727H178.179C183.729 85.7727 187.903 87.5582 187.903 94.5071C187.903 101.456 183.729 103.266 178.179 103.266H172.992V85.7727ZM197.965 103.266V101.553C197.217 102.88 195.794 103.579 194.177 103.579C191.064 103.579 189.81 101.673 189.81 98.4883V90.2847H193.139V97.7644C193.139 99.5016 193.405 100.901 195.263 100.901C197.482 100.901 197.965 99.0915 197.965 97.0406V90.2847H201.295V103.266H197.965ZM209.951 89.9951C212.678 89.9951 215.38 91.5152 215.839 94.7243H212.654C212.388 93.4696 211.23 92.5769 209.951 92.5769C208.214 92.5769 206.839 94.0487 206.839 96.751C206.839 99.4775 208.142 100.998 209.975 100.998C211.134 100.998 212.316 100.394 212.774 98.8502H215.959C215.187 102.397 212.509 103.579 209.807 103.579C205.922 103.579 203.437 100.732 203.437 96.7993C203.437 92.8423 206.067 89.9951 209.951 89.9951ZM217.947 85.7727H221.277V95.4964L226.006 90.2847H229.746L225.089 95.2551L230.012 103.266H226.272L222.87 97.6438L221.277 99.3569V103.266H217.947V85.7727ZM242.744 94.5071C242.744 89.2713 239.631 88.4751 236.446 88.4751H234.854V100.563H236.446C239.631 100.563 242.744 99.7912 242.744 94.5071ZM231.403 85.7727H236.591C242.14 85.7727 246.315 87.5582 246.315 94.5071C246.315 101.456 242.14 103.266 236.591 103.266H231.403V85.7727ZM248.746 103.266V85.7727H255.55C258.614 85.7727 261.92 86.7378 261.92 90.3329C261.92 91.9737 260.834 93.4455 259.941 94.0245C261.292 94.676 262.547 95.6894 262.547 98.1022C262.547 101.866 259.434 103.266 255.839 103.266H248.746ZM252.196 95.5929V100.563H256.008C258.035 100.563 259.024 99.7188 259.024 98.1022C259.024 96.4615 258.011 95.5929 255.863 95.5929H252.196ZM252.196 88.4751V92.987H255.767C257.408 92.987 258.373 92.2149 258.373 90.6707C258.373 89.2954 257.383 88.4751 255.767 88.4751H252.196ZM281.165 103.266H277.739L273.42 90.1158V103.266H270.211V85.7727H275.23L279.476 99.4051L283.602 85.7727H288.669V103.266H285.46V90.1158L281.165 103.266ZM303.762 97.692H294.183C294.376 99.9118 295.872 100.998 297.465 100.998C298.502 100.998 299.516 100.636 300.191 99.5016H303.617C302.918 101.432 301.036 103.579 297.489 103.579C293.315 103.579 290.878 100.467 290.878 96.7269C290.878 92.8664 293.556 89.9951 297.392 89.9951C301.398 89.9951 303.883 93.1077 303.762 97.692ZM297.368 92.4321C296.113 92.4321 294.497 93.2042 294.231 95.3998H300.384C300.312 93.2042 298.768 92.4321 297.368 92.4321ZM318.3 97.692H308.721C308.914 99.9118 310.41 100.998 312.003 100.998C313.04 100.998 314.054 100.636 314.729 99.5016H318.155C317.456 101.432 315.574 103.579 312.027 103.579C307.853 103.579 305.416 100.467 305.416 96.7269C305.416 92.8664 308.094 89.9951 311.93 89.9951C315.936 89.9951 318.421 93.1077 318.3 97.692ZM311.906 92.4321C310.652 92.4321 309.035 93.2042 308.77 95.3998H314.922C314.85 93.2042 313.306 92.4321 311.906 92.4321ZM320.903 90.2847V86.762H324.233V90.2847H326.935V92.5769H324.233V99.2845C324.233 100.612 324.692 100.877 325.874 100.877H326.887V103.266H324.45C321.458 103.266 320.903 102.349 320.903 99.767V92.5769H319.07V90.2847H320.903ZM337.055 103.266V101.553C336.307 102.88 334.884 103.579 333.267 103.579C330.155 103.579 328.9 101.673 328.9 98.4883V90.2847H332.23V97.7644C332.23 99.5016 332.495 100.901 334.353 100.901C336.573 100.901 337.055 99.0915 337.055 97.0406V90.2847H340.385V103.266H337.055ZM349.621 101.022C351.358 101.022 352.588 99.3327 352.588 96.7993C352.588 94.2658 351.358 92.5527 349.621 92.5527C347.787 92.5527 346.581 94.1693 346.581 96.7752C346.581 99.4534 347.787 101.022 349.621 101.022ZM346.701 107.488H343.371V90.2847H346.701V91.9495C347.401 90.719 348.8 89.9951 350.441 89.9951C353.578 89.9951 356.087 92.6975 356.087 96.7752C356.087 100.925 353.505 103.579 350.417 103.579C349.066 103.579 347.546 103.073 346.701 101.625V107.488ZM363.562 89.8262H366.94L367.495 85.7727H370.487L369.932 89.8262H373.141L373.696 85.7727H376.688L376.133 89.8262H379.462L379.149 92.408H375.771L375.264 96.0513H378.57L378.304 98.6089H374.902L374.275 103.266H371.283L371.91 98.6089H368.701L368.074 103.266H365.082L365.709 98.6089H362.404L362.717 96.0513H366.071L366.578 92.408H363.296L363.562 89.8262ZM369.57 92.408L369.063 96.0513H372.272L372.779 92.408H369.57ZM386.764 103.266H383.434V90.1882H379.67V87.9201C382.179 87.8477 383.41 87.6788 384.23 85.7727H386.764V103.266ZM212.705 127.266L219.22 109.773H222.694L229.233 127.266H225.493L224.262 123.719H217.458L216.228 127.266H212.705ZM220.86 113.995L218.448 120.896H223.273L220.86 113.995ZM246.691 127.266V119.714C246.691 118.29 246.571 116.673 244.616 116.673C242.396 116.673 242.035 118.531 242.035 120.51V127.266H238.705V119.714C238.705 118.29 238.584 116.673 236.63 116.673C234.41 116.673 234.048 118.531 234.048 120.51V127.266H230.718V114.285H234.048V115.998C234.796 114.719 236.099 113.995 237.667 113.995C239.863 113.995 240.852 115.177 241.359 116.118C242.396 114.671 243.675 113.995 245.63 113.995C248.887 113.995 250.021 116.022 250.021 119.086V127.266H246.691ZM263.244 118.193H260.131C259.866 117.108 258.901 116.336 257.356 116.336C256.126 116.336 255.257 116.794 255.257 117.59C255.257 118.29 255.764 118.821 256.994 119.086L258.732 119.472C261.313 120.051 263.509 120.703 263.509 123.381C263.509 125.987 260.831 127.579 257.887 127.579C254.702 127.579 252.289 125.939 251.976 122.971H255.185C255.378 124.225 256.246 125.166 257.984 125.166C259.431 125.166 260.324 124.636 260.324 123.695C260.324 122.73 259.335 122.368 258.201 122.102L256.271 121.692C253.834 121.185 252.217 120.172 252.217 117.807C252.217 115.491 254.726 113.947 257.525 113.947C260.228 113.947 262.785 115.202 263.244 118.193ZM266.215 114.285V110.762H269.544V114.285H272.247V116.577H269.544V123.284C269.544 124.612 270.003 124.877 271.185 124.877H272.198V127.266H269.761C266.769 127.266 266.215 126.349 266.215 123.767V116.577H264.381V114.285H266.215ZM286.42 121.692H276.841C277.034 123.912 278.53 124.998 280.123 124.998C281.16 124.998 282.173 124.636 282.849 123.502H286.275C285.575 125.432 283.693 127.579 280.147 127.579C275.972 127.579 273.536 124.467 273.536 120.727C273.536 116.866 276.214 113.995 280.05 113.995C284.055 113.995 286.541 117.108 286.42 121.692ZM280.026 116.432C278.771 116.432 277.155 117.204 276.889 119.4H283.042C282.97 117.204 281.425 116.432 280.026 116.432ZM295.996 114.357V117.494C295.514 117.421 295.103 117.421 294.621 117.421C292.98 117.421 291.894 118.025 291.894 120.461V127.266H288.565V114.285H291.846V116.553C292.594 114.936 293.752 114.309 295.272 114.309C295.49 114.309 295.779 114.333 295.996 114.357ZM309.578 127.266H306.248V125.625C305.404 127.073 303.86 127.579 302.509 127.579C299.42 127.579 296.863 124.925 296.863 120.775C296.863 116.697 299.372 113.995 302.509 113.995C304.149 113.995 305.549 114.719 306.248 115.95V109.773H309.578V127.266ZM303.329 125.022C305.163 125.022 306.369 123.453 306.369 120.775C306.369 118.169 305.163 116.553 303.329 116.553C301.592 116.553 300.361 118.266 300.361 120.799C300.361 123.333 301.592 125.022 303.329 125.022ZM320.682 122.295V121.33C316.942 121.716 315.47 122.15 315.47 123.598C315.47 124.539 316.194 125.311 317.714 125.311C319.814 125.311 320.682 124.201 320.682 122.295ZM320.972 125.649C320.031 127 318.679 127.579 316.725 127.579C314.24 127.579 312.044 126.132 312.044 123.767C312.044 120.703 315.47 119.786 320.586 119.207V118.99C320.586 116.987 319.5 116.287 318.149 116.287C316.87 116.287 315.808 116.939 315.736 118.386H312.623C312.889 115.829 314.964 113.947 318.318 113.947C321.382 113.947 323.915 115.298 323.915 119.665C323.915 120.051 323.867 121.813 323.867 122.971C323.867 125.022 323.988 126.18 324.253 127.266H321.189C321.092 126.855 321.044 126.3 320.972 125.649ZM342.662 127.266V119.714C342.662 118.29 342.541 116.673 340.587 116.673C338.367 116.673 338.005 118.531 338.005 120.51V127.266H334.676V119.714C334.676 118.29 334.555 116.673 332.6 116.673C330.381 116.673 330.019 118.531 330.019 120.51V127.266H326.689V114.285H330.019V115.998C330.767 114.719 332.07 113.995 333.638 113.995C335.834 113.995 336.823 115.177 337.33 116.118C338.367 114.671 339.646 113.995 341.6 113.995C344.858 113.995 345.992 116.022 345.992 119.086V127.266H342.662Z"/><path fill="#000" d="M234.59 138.236C237.383 138.236 239.189 139.706 239.189 142.163C239.189 145.25 236.543 148.253 230.936 152.474H239.651V153.734H229.13V152.432C234.737 148.169 237.803 145.145 237.803 142.31C237.803 140.357 236.312 139.391 234.59 139.391C232.679 139.391 230.936 140.294 230.873 143.213H229.487C229.634 139.958 231.566 138.236 234.59 138.236ZM247.449 154.007C243.417 154.007 241.59 150.962 241.59 146.111C241.59 141.302 243.417 138.236 247.449 138.236C251.439 138.236 253.287 141.302 253.287 146.111C253.287 150.962 251.439 154.007 247.449 154.007ZM247.449 152.852C250.179 152.852 251.922 150.71 251.922 146.111C251.922 141.554 250.179 139.391 247.449 139.391C244.698 139.391 242.976 141.554 242.976 146.111C242.976 150.71 244.698 152.852 247.449 152.852ZM260.512 138.236C263.305 138.236 265.111 139.706 265.111 142.163C265.111 145.25 262.465 148.253 256.858 152.474H265.573V153.734H255.052V152.432C260.659 148.169 263.725 145.145 263.725 142.31C263.725 140.357 262.234 139.391 260.512 139.391C258.601 139.391 256.858 140.294 256.795 143.213H255.409C255.556 139.958 257.488 138.236 260.512 138.236ZM273.753 140.315L267.117 148.463H273.753V140.315ZM278.016 148.463V149.744H275.055V153.734H273.753V149.744H265.563V148.568L273.774 138.509H275.055V148.463H278.016ZM285.014 148.715H279.134V147.245H285.014V148.715ZM290.074 153.734H288.772V141.407H285.286V140.525C287.953 140.525 288.625 140.252 289.192 138.383H290.074V153.734ZM299.108 154.007C295.076 154.007 293.249 150.962 293.249 146.111C293.249 141.302 295.076 138.236 299.108 138.236C303.098 138.236 304.946 141.302 304.946 146.111C304.946 150.962 303.098 154.007 299.108 154.007ZM299.108 152.852C301.838 152.852 303.581 150.71 303.581 146.111C303.581 141.554 301.838 139.391 299.108 139.391C296.357 139.391 294.635 141.554 294.635 146.111C294.635 150.71 296.357 152.852 299.108 152.852ZM312.864 148.715H306.984V147.245H312.864V148.715ZM317.924 153.734H316.622V141.407H313.136V140.525C315.803 140.525 316.475 140.252 317.042 138.383H317.924V153.734ZM320.07 139.769V138.509H330.465V139.769C326.433 142.73 323.829 147.287 323.598 153.734H322.149C322.548 146.867 325.257 142.436 328.869 139.769H320.07Z"/><path fill="#000" d="M234.328 214.765V219.139H236.12V215.033C236.12 213.204 238.61 213.201 238.61 213.201V211.421C238.61 211.421 237.913 211.452 237.363 211.575C235.805 211.927 234.328 212.697 234.328 214.765Z"/><path fill="#000" d="M220.82 211.332C221.518 211.332 222.39 211.727 222.865 212.422C223.356 211.791 224.165 211.364 225.164 211.348C226.433 211.331 228.003 212.121 228.003 214.491V219.133H226.21V214.49C226.21 213.7 225.64 213.132 224.784 213.132C223.929 213.132 223.358 213.7 223.358 214.49V219.133H221.565V214.49C221.565 213.7 220.995 213.132 220.139 213.132C219.283 213.132 218.696 213.7 218.696 214.49V219.133H216.812V211.567H218.696V212.327C219.204 211.711 219.949 211.331 220.821 211.331H220.82V211.332Z"/><path fill="#000" d="M232.124 211.664V219.139H230.302V211.664H232.124Z"/><path fill="#000" d="M231.213 210.474C231.775 210.474 232.23 210.021 232.23 209.461C232.23 208.903 231.774 208.449 231.213 208.449C230.651 208.449 230.195 208.903 230.195 209.461C230.195 210.021 230.65 210.474 231.213 210.474Z"/><path fill="#000" d="M243.476 211.316C241.27 211.316 239.481 213.096 239.481 215.291C239.481 217.487 241.27 219.267 243.476 219.267C245.683 219.267 247.472 217.487 247.472 215.291C247.472 213.096 245.683 211.316 243.476 211.316ZM243.476 217.48C242.227 217.48 241.214 216.472 241.214 215.229C241.214 213.986 242.227 212.979 243.476 212.979C244.726 212.979 245.738 213.986 245.738 215.229C245.738 216.472 244.726 217.48 243.476 217.48Z"/><path stroke="#000" stroke-width=".371" d="M193.507 209.624C193.507 206.996 195.638 204.865 198.266 204.865H208.157C210.786 204.865 212.916 206.996 212.916 209.624V219.514C212.916 222.144 210.785 224.274 208.157 224.274H198.266C195.638 224.274 193.507 222.143 193.507 219.514V209.624Z"/><path fill="#000" fill-rule="evenodd" d="M206.472 208.449H204.676L206.173 211.079L202.881 208.449H201.085L202.731 211.663L199.289 208.449H197.494L199.289 212.54L197.494 220.72H199.289L202.731 211.956L201.085 220.72H202.881L206.173 211.371L204.676 220.72H206.472L209.764 210.494L206.472 208.449Z" clip-rule="evenodd"/><g clip-path="url(#clip2_4723_16535)"><path fill="#000" d="M278.64 205.06C283.893 205.06 288.149 209.316 288.149 214.569C288.149 219.822 283.893 224.079 278.64 224.079C273.386 224.079 269.13 219.822 269.13 214.569C269.092 209.316 273.348 205.06 278.64 205.06Z"/><path fill="#FFF100" d="M273.539 216.026H275.418V213.189H273.539C272.772 213.189 272.121 213.841 272.121 214.607C272.121 215.374 272.734 216.026 273.539 216.026Z"/><path fill="#FFF100" d="M284.544 214.608C284.544 212.422 282.78 210.658 280.594 210.658C278.409 210.658 276.645 212.422 276.645 214.608C276.645 216.793 278.409 218.557 280.594 218.557C282.78 218.557 284.544 216.716 284.544 214.608Z"/><path fill="#000" d="M306.784 212.116V216.104C306.784 216.947 306.247 217.561 305.519 217.561H305.174C304.445 217.561 303.908 216.947 303.908 216.104V212.116H302.528V216.334C302.528 217.868 303.64 218.941 305.135 218.941H305.557C307.091 218.941 308.164 217.829 308.164 216.334V212.116H306.784ZM348.081 216.104V214.839C348.081 213.918 348.618 213.266 349.423 213.266H349.768C350.765 213.266 351.455 214.033 351.455 215.107V215.797C351.455 216.909 350.727 217.676 349.768 217.676H349.423C348.618 217.638 348.081 217.024 348.081 216.104ZM346.816 216.104C346.816 217.753 347.889 218.941 349.385 218.941H349.73C350.343 218.941 350.88 218.635 351.302 218.136V218.826H352.644V212.116H351.302V212.845C350.88 212.346 350.343 212.039 349.73 212.039H349.385C347.851 212.039 346.816 213.19 346.816 214.877V216.104ZM340.872 218.826H346.164V217.446H342.253V210.161H340.872V218.826ZM355.213 215.797V215.107C355.213 214.033 355.903 213.266 356.9 213.266H357.245C358.05 213.266 358.587 213.918 358.587 214.839V216.066C358.587 216.986 358.05 217.638 357.245 217.638H356.9C355.903 217.638 355.213 216.909 355.213 215.797ZM353.986 218.826H355.328V218.098C355.75 218.596 356.287 218.903 356.9 218.903H357.245C358.779 218.903 359.853 217.714 359.853 216.066V214.839C359.853 213.151 358.779 212.001 357.245 212.001H356.9C356.287 212.001 355.75 212.308 355.328 212.806V210.199H353.986V218.826ZM364.722 213.995H366.026C365.796 212.768 364.761 212.001 363.304 212.001C361.655 212.001 360.658 212.73 360.658 213.918C360.658 214.839 361.386 215.567 362.575 215.759L363.649 215.989C364.377 216.142 364.837 216.449 364.837 216.909C364.837 217.446 364.301 217.791 363.457 217.791C362.613 217.791 362.077 217.369 361.923 216.717H360.543C360.735 218.098 361.808 218.941 363.38 218.941C365.106 218.941 366.141 218.059 366.141 216.717C366.141 215.72 365.259 214.992 363.84 214.724L362.843 214.532C362.307 214.378 361.962 214.11 361.962 213.765C361.962 213.343 362.46 213.075 363.227 213.075C364.071 213.113 364.607 213.458 364.722 213.995ZM319.514 214.532L322.083 211.809H320.128L317.866 214.263V210.161H316.485V218.788H317.866V216.257L318.517 215.567L320.78 218.826H322.505L319.514 214.532ZM297.773 217.446H296.086V211.579H297.773C299.077 211.579 300.112 212.883 300.112 214.493C300.112 216.104 299.077 217.446 297.773 217.446ZM297.773 210.161H294.706V218.826H297.773C299.805 218.826 301.493 216.909 301.493 214.493C301.493 212.078 299.844 210.161 297.773 210.161ZM326.531 217.446H324.883V211.579H326.531C327.835 211.579 328.87 212.883 328.87 214.493C328.87 216.104 327.835 217.446 326.531 217.446ZM326.531 210.161H323.502V218.826H326.531C328.602 218.826 330.251 216.909 330.251 214.493C330.251 212.078 328.602 210.161 326.531 210.161ZM334.852 217.446H332.705V215.03H334.852C335.504 215.03 336.041 215.567 336.041 216.219C336.041 216.909 335.504 217.446 334.852 217.446ZM332.705 213.65V211.579H334.43C335.005 211.579 335.466 212.039 335.466 212.615C335.466 213.19 335.005 213.65 334.43 213.65H332.705ZM336.348 214.11C336.654 213.688 336.884 213.151 336.884 212.615C336.884 211.273 335.772 210.161 334.43 210.161H331.324V218.826H334.852C336.271 218.826 337.421 217.676 337.421 216.219C337.421 215.375 336.999 214.57 336.348 214.11ZM312.114 213.381H312.459C313.303 213.381 313.954 213.995 313.954 214.724H315.373C315.373 213.228 314.069 212.001 312.459 212.001H312.114C310.542 212.001 309.276 213.266 309.276 214.839V216.066C309.276 217.638 310.542 218.903 312.114 218.903H312.459C314.108 218.903 315.45 217.676 315.45 216.181H314.031C314.031 216.909 313.303 217.484 312.459 217.484H312.114C311.309 217.484 310.657 216.832 310.657 216.066V214.839C310.657 214.033 311.309 213.381 312.114 213.381Z"/></g></g><defs><linearGradient id="paint0_linear_4723_16535" x1="363.767" x2="363.767" y1="-79.38" y2="147.13" gradientUnits="userSpaceOnUse"><stop stop-color="#EDDD0C"/><stop offset="1" stop-color="#F3E71B"/></linearGradient><linearGradient id="paint1_linear_4723_16535" x1="298.168" x2="298.168" y1="213.947" y2="68.92" gradientUnits="userSpaceOnUse"><stop stop-color="#EDDD0C"/><stop offset="1" stop-color="#F3E71B"/></linearGradient><linearGradient id="paint2_linear_4723_16535" x1="105" x2="-6.627" y1="253.5" y2="184.205" gradientUnits="userSpaceOnUse"><stop stop-color="#EDDD0C"/><stop offset=".395" stop-color="#CCBD00"/><stop offset="1" stop-color="#EDDD0C"/></linearGradient><linearGradient id="paint3_linear_4723_16535" x1="567" x2="514.897" y1="143.741" y2="38.643" gradientUnits="userSpaceOnUse"><stop stop-color="#EDDD0C"/><stop offset=".395" stop-color="#CCBD00"/><stop offset="1" stop-color="#EDDD0C"/></linearGradient><clipPath id="clip0_4723_16535"><rect width="560" height="240" fill="#fff"/></clipPath><clipPath id="clip1_4723_16535"><rect width="560" height="240" fill="#fff"/></clipPath><clipPath id="clip2_4723_16535"><rect width="97.011" height="19.019" fill="#fff" transform="translate(269.13 205.06)"/></clipPath></defs></svg>