<svg width="1200" height="515" viewBox="0 0 1200 515" fill="none" xmlns="http://www.w3.org/2000/svg">
<g clip-path="url(#clip0_12175_8037)">
<rect width="1200" height="515" fill="url(#paint0_linear_12175_8037)"/>
<g clip-path="url(#clip1_12175_8037)">
<rect width="1200" height="515" fill="url(#paint1_linear_12175_8037)"/>
<path d="M-200.003 -476.574L505.555 -476.574C535.931 -476.574 560.555 -451.95 560.555 -421.574L560.555 -329.749C560.555 -299.373 535.93 -274.749 505.555 -274.749L194.061 -274.749C163.686 -274.749 139.061 -250.125 139.061 -219.749L139.061 221C139.061 251.375 114.437 276 84.0613 276L-127.502 276" stroke="#F0DF09" stroke-width="2.9926"/>
<path d="M1315 217.5L908.5 217.5C878.124 217.5 853.5 192.876 853.5 162.5L853.5 -145.829C853.5 -176.205 878.124 -200.829 908.5 -200.829L1047.93 -200.829C1078.31 -200.829 1102.93 -225.453 1102.93 -255.829L1102.93 -388" stroke="#F0DF09" stroke-width="2.9926" stroke-linejoin="round"/>
<path d="M636 556.5L636 471.07C636 440.694 611.375 416.07 581 416.07L297.5 416.071C267.124 416.071 242.5 391.447 242.5 361.071L242.5 218.309C242.5 187.934 267.124 163.309 297.5 163.309L518.576 163.309C548.951 163.309 573.576 138.685 573.576 108.309L573.576 -471.437C573.576 -501.813 598.2 -526.437 628.576 -526.437L777.936 -526.437" stroke="#F0DF09" stroke-width="2.9926" stroke-linejoin="round"/>
<rect x="251.712" y="318.387" width="19.7508" height="41.4254" rx="9.87539" transform="rotate(-180 251.712 318.387)" fill="#D4C50B" stroke="#F0DF09" stroke-width="1.92382"/>
<path d="M-220 453.505C-220.826 453.505 -221.496 454.175 -221.496 455.002C-221.496 455.828 -220.826 456.498 -220 456.498L-220 455.002L-220 453.505ZM166.933 456.058C167.517 455.474 167.517 454.526 166.933 453.942L157.411 444.42C156.826 443.835 155.879 443.835 155.294 444.42C154.71 445.004 154.71 445.951 155.295 446.536L163.759 455L155.295 463.464C154.71 464.049 154.71 464.996 155.295 465.58C155.879 466.165 156.826 466.165 157.411 465.58L166.933 456.058ZM-220 455.002L-220 456.498L165.875 456.496L165.875 455L165.875 453.504L-220 453.505L-220 455.002Z" fill="#F0DF09"/>
<path d="M1005.5 614.375C1005.5 615.201 1006.17 615.871 1007 615.871C1007.83 615.871 1008.5 615.201 1008.5 614.375L1007 614.375L1005.5 614.375ZM1008.06 326.442C1007.47 325.858 1006.53 325.858 1005.94 326.442L996.42 335.964C995.835 336.549 995.835 337.496 996.42 338.08C997.004 338.665 997.951 338.665 998.536 338.08L1007 329.616L1015.46 338.08C1016.05 338.665 1017 338.665 1017.58 338.08C1018.16 337.496 1018.16 336.549 1017.58 335.964L1008.06 326.442ZM1007 614.375L1008.5 614.375L1008.5 327.5L1007 327.5L1005.5 327.5L1005.5 614.375L1007 614.375Z" fill="#F0DF09"/>
<rect x="1081.96" y="230.038" width="25.0762" height="51.0762" rx="12.5381" transform="rotate(-90 1081.96 230.038)" fill="#D4C50B" stroke="#F0DF09" stroke-width="1.92382"/>
<path d="M168.357 95V92.704H173.817V81.896H168.917V79.6H176.337V92.704H181.517V95H168.357ZM174.797 76.828C174.181 76.828 173.695 76.6693 173.341 76.352C172.986 76.0347 172.809 75.6053 172.809 75.064C172.809 74.504 172.986 74.0653 173.341 73.748C173.695 73.412 174.181 73.244 174.797 73.244C175.413 73.244 175.898 73.412 176.253 73.748C176.607 74.0653 176.785 74.504 176.785 75.064C176.785 75.6053 176.607 76.0347 176.253 76.352C175.898 76.6693 175.413 76.828 174.797 76.828ZM191.39 95.28C189.523 95.28 188.03 94.7573 186.91 93.712C185.79 92.6667 185.23 91.2293 185.23 89.4V85.2C185.23 83.3707 185.79 81.9333 186.91 80.888C188.03 79.8427 189.523 79.32 191.39 79.32C193.163 79.32 194.591 79.796 195.674 80.748C196.775 81.7 197.354 82.9973 197.41 84.64H194.89C194.834 83.6507 194.498 82.8947 193.882 82.372C193.266 81.8307 192.435 81.56 191.39 81.56C190.288 81.56 189.402 81.8773 188.73 82.512C188.076 83.128 187.75 84.0147 187.75 85.172V89.4C187.75 90.5573 188.076 91.4533 188.73 92.088C189.402 92.7227 190.288 93.04 191.39 93.04C192.435 93.04 193.266 92.7693 193.882 92.228C194.498 91.6867 194.834 90.9307 194.89 89.96H197.41C197.354 91.6027 196.775 92.9 195.674 93.852C194.591 94.804 193.163 95.28 191.39 95.28ZM207.955 95.28C206.144 95.28 204.679 94.7387 203.559 93.656C202.457 92.5547 201.907 91.0427 201.907 89.12V85.48C201.907 83.5573 202.457 82.0547 203.559 80.972C204.679 79.8707 206.144 79.32 207.955 79.32C209.168 79.32 210.223 79.5627 211.119 80.048C212.033 80.5333 212.743 81.2147 213.247 82.092C213.751 82.9693 214.003 84.0053 214.003 85.2V87.944H204.371V89.4C204.371 90.5387 204.697 91.444 205.351 92.116C206.004 92.7693 206.872 93.096 207.955 93.096C208.888 93.096 209.653 92.9187 210.251 92.564C210.867 92.1907 211.24 91.696 211.371 91.08H213.891C213.723 92.368 213.097 93.3947 212.015 94.16C210.932 94.9067 209.579 95.28 207.955 95.28ZM204.371 85.984H211.539V85.2C211.539 83.9867 211.221 83.0533 210.587 82.4C209.971 81.728 209.093 81.392 207.955 81.392C206.816 81.392 205.929 81.728 205.295 82.4C204.679 83.0533 204.371 83.9867 204.371 85.2V85.984ZM225.64 95.28C224.482 95.28 223.53 95 222.784 94.44C222.037 93.8613 221.598 93.068 221.468 92.06H221.44V95H218.92V74.56H221.44V79.04L221.384 82.54H221.412C221.561 81.5507 222.009 80.7667 222.756 80.188C223.521 79.6093 224.482 79.32 225.64 79.32C227.189 79.32 228.421 79.8333 229.336 80.86C230.25 81.8867 230.708 83.2867 230.708 85.06V89.568C230.708 91.3227 230.25 92.7133 229.336 93.74C228.421 94.7667 227.189 95.28 225.64 95.28ZM224.8 93.096C225.864 93.096 226.694 92.816 227.292 92.256C227.889 91.696 228.188 90.7907 228.188 89.54V85.06C228.188 83.7907 227.889 82.8853 227.292 82.344C226.694 81.784 225.864 81.504 224.8 81.504C223.773 81.504 222.952 81.8307 222.336 82.484C221.738 83.1373 221.44 84.0427 221.44 85.2V89.4C221.44 90.5573 221.738 91.4627 222.336 92.116C222.952 92.7693 223.773 93.096 224.8 93.096ZM241.533 95.28C239.722 95.28 238.257 94.7387 237.137 93.656C236.035 92.5547 235.485 91.0427 235.485 89.12V85.48C235.485 83.5573 236.035 82.0547 237.137 80.972C238.257 79.8707 239.722 79.32 241.533 79.32C242.746 79.32 243.801 79.5627 244.697 80.048C245.611 80.5333 246.321 81.2147 246.825 82.092C247.329 82.9693 247.581 84.0053 247.581 85.2V87.944H237.949V89.4C237.949 90.5387 238.275 91.444 238.929 92.116C239.582 92.7693 240.45 93.096 241.533 93.096C242.466 93.096 243.231 92.9187 243.829 92.564C244.445 92.1907 244.818 91.696 244.949 91.08H247.469C247.301 92.368 246.675 93.3947 245.593 94.16C244.51 94.9067 243.157 95.28 241.533 95.28ZM237.949 85.984H245.117V85.2C245.117 83.9867 244.799 83.0533 244.165 82.4C243.549 81.728 242.671 81.392 241.533 81.392C240.394 81.392 239.507 81.728 238.873 82.4C238.257 83.0533 237.949 83.9867 237.949 85.2V85.984ZM253.058 95V79.6H255.578V82.54H255.634C255.765 81.5507 256.185 80.7667 256.894 80.188C257.603 79.6093 258.555 79.32 259.75 79.32C261.355 79.32 262.587 79.8053 263.446 80.776C264.323 81.728 264.762 83.0907 264.762 84.864V86.18H262.242V84.864C262.242 82.624 261.15 81.504 258.966 81.504C257.865 81.504 257.025 81.8213 256.446 82.456C255.867 83.0907 255.578 84.0053 255.578 85.2V95H253.058ZM271.219 100.04V97.744H275.559C276.436 97.744 277.127 97.492 277.631 96.988C278.135 96.5027 278.387 95.84 278.387 95V93.6L278.443 91.08H278.359C278.21 91.9947 277.771 92.704 277.043 93.208C276.315 93.6933 275.4 93.936 274.299 93.936C272.712 93.936 271.462 93.432 270.547 92.424C269.632 91.416 269.175 90.0347 269.175 88.28V85.032C269.175 83.2773 269.632 81.8867 270.547 80.86C271.462 79.8333 272.712 79.32 274.299 79.32C275.4 79.32 276.315 79.5813 277.043 80.104C277.771 80.6267 278.21 81.3453 278.359 82.26H278.415V79.6H280.907V95C280.907 96.5493 280.422 97.772 279.451 98.668C278.499 99.5827 277.192 100.04 275.531 100.04H271.219ZM275.055 91.836C276.1 91.836 276.922 91.5093 277.519 90.856C278.116 90.2027 278.415 89.2973 278.415 88.14V85.2C278.415 84.0427 278.116 83.1373 277.519 82.484C276.922 81.8307 276.1 81.504 275.055 81.504C273.991 81.504 273.16 81.812 272.563 82.428C271.984 83.044 271.695 83.8747 271.695 84.92V88.42C271.695 89.4653 271.984 90.296 272.563 90.912C273.16 91.528 273.991 91.836 275.055 91.836ZM285.18 97.8V95.7H298.62V97.8H285.18ZM308.913 95.28C307.046 95.28 305.553 94.7573 304.433 93.712C303.313 92.6667 302.753 91.2293 302.753 89.4V85.2C302.753 83.3707 303.313 81.9333 304.433 80.888C305.553 79.8427 307.046 79.32 308.913 79.32C310.686 79.32 312.114 79.796 313.197 80.748C314.298 81.7 314.877 82.9973 314.933 84.64H312.413C312.357 83.6507 312.021 82.8947 311.405 82.372C310.789 81.8307 309.958 81.56 308.913 81.56C307.812 81.56 306.925 81.8773 306.253 82.512C305.6 83.128 305.273 84.0147 305.273 85.172V89.4C305.273 90.5573 305.6 91.4533 306.253 92.088C306.925 92.7227 307.812 93.04 308.913 93.04C309.958 93.04 310.789 92.7693 311.405 92.228C312.021 91.6867 312.357 90.9307 312.413 89.96H314.933C314.877 91.6027 314.298 92.9 313.197 93.852C312.114 94.804 310.686 95.28 308.913 95.28ZM324.134 95.28C322.547 95.28 321.287 94.8413 320.354 93.964C319.421 93.068 318.954 91.9013 318.954 90.464C318.954 89.512 319.169 88.6813 319.598 87.972C320.027 87.2627 320.625 86.712 321.39 86.32C322.155 85.9093 323.033 85.704 324.022 85.704H328.782V84.5C328.782 82.5027 327.69 81.504 325.506 81.504C324.535 81.504 323.751 81.6813 323.154 82.036C322.557 82.3907 322.239 82.8853 322.202 83.52H319.682C319.775 82.3067 320.335 81.308 321.362 80.524C322.407 79.7213 323.789 79.32 325.506 79.32C327.373 79.32 328.801 79.768 329.79 80.664C330.798 81.56 331.302 82.8107 331.302 84.416V95H328.81V92.2H328.754C328.605 93.152 328.129 93.908 327.326 94.468C326.523 95.0093 325.459 95.28 324.134 95.28ZM324.75 93.152C325.982 93.152 326.962 92.8533 327.69 92.256C328.418 91.6587 328.782 90.8467 328.782 89.82V87.664H324.302C323.481 87.664 322.809 87.916 322.286 88.42C321.782 88.9053 321.53 89.5587 321.53 90.38C321.53 91.2387 321.81 91.92 322.37 92.424C322.949 92.9093 323.742 93.152 324.75 93.152ZM343.807 95C342.538 95 341.521 94.636 340.755 93.908C339.99 93.1613 339.607 92.172 339.607 90.94V81.896H335.183V79.6H339.607V75.26H342.127V79.6H348.427V81.896H342.127V90.94C342.127 91.4627 342.277 91.892 342.575 92.228C342.893 92.5453 343.303 92.704 343.807 92.704H348.287V95H343.807ZM357.712 95.28C356.126 95.28 354.866 94.8413 353.932 93.964C352.999 93.068 352.532 91.9013 352.532 90.464C352.532 89.512 352.747 88.6813 353.176 87.972C353.606 87.2627 354.203 86.712 354.968 86.32C355.734 85.9093 356.611 85.704 357.6 85.704H362.36V84.5C362.36 82.5027 361.268 81.504 359.084 81.504C358.114 81.504 357.33 81.6813 356.732 82.036C356.135 82.3907 355.818 82.8853 355.78 83.52H353.26C353.354 82.3067 353.914 81.308 354.94 80.524C355.986 79.7213 357.367 79.32 359.084 79.32C360.951 79.32 362.379 79.768 363.368 80.664C364.376 81.56 364.88 82.8107 364.88 84.416V95H362.388V92.2H362.332C362.183 93.152 361.707 93.908 360.904 94.468C360.102 95.0093 359.038 95.28 357.712 95.28ZM358.328 93.152C359.56 93.152 360.54 92.8533 361.268 92.256C361.996 91.6587 362.36 90.8467 362.36 89.82V87.664H357.88C357.059 87.664 356.387 87.916 355.864 88.42C355.36 88.9053 355.108 89.5587 355.108 90.38C355.108 91.2387 355.388 91.92 355.948 92.424C356.527 92.9093 357.32 93.152 358.328 93.152ZM378.085 95C376.723 95 375.631 94.608 374.809 93.824C374.007 93.0213 373.605 91.9667 373.605 90.66V76.856H368.285V74.56H376.125V90.66C376.125 91.2947 376.303 91.7987 376.657 92.172C377.012 92.5267 377.488 92.704 378.085 92.704H382.845V95H378.085ZM392.634 95.224C390.786 95.224 389.312 94.6827 388.21 93.6C387.128 92.5173 386.586 91.0053 386.586 89.064V85.536C386.586 83.576 387.128 82.064 388.21 81C389.293 79.9173 390.768 79.376 392.634 79.376C394.501 79.376 395.976 79.9173 397.058 81C398.141 82.064 398.682 83.576 398.682 85.536V89.064C398.682 91.0053 398.132 92.5173 397.03 93.6C395.948 94.6827 394.482 95.224 392.634 95.224ZM392.634 92.984C393.736 92.984 394.594 92.676 395.21 92.06C395.845 91.444 396.162 90.5387 396.162 89.344V85.256C396.162 84.0613 395.845 83.156 395.21 82.54C394.594 81.924 393.736 81.616 392.634 81.616C391.552 81.616 390.693 81.924 390.058 82.54C389.424 83.156 389.106 84.0613 389.106 85.256V89.344C389.106 90.5387 389.424 91.444 390.058 92.06C390.693 92.676 391.552 92.984 392.634 92.984ZM405.531 100.04V97.744H409.871C410.749 97.744 411.439 97.492 411.943 96.988C412.447 96.5027 412.699 95.84 412.699 95V93.6L412.755 91.08H412.671C412.522 91.9947 412.083 92.704 411.355 93.208C410.627 93.6933 409.713 93.936 408.611 93.936C407.025 93.936 405.774 93.432 404.859 92.424C403.945 91.416 403.487 90.0347 403.487 88.28V85.032C403.487 83.2773 403.945 81.8867 404.859 80.86C405.774 79.8333 407.025 79.32 408.611 79.32C409.713 79.32 410.627 79.5813 411.355 80.104C412.083 80.6267 412.522 81.3453 412.671 82.26H412.727V79.6H415.219V95C415.219 96.5493 414.734 97.772 413.763 98.668C412.811 99.5827 411.505 100.04 409.843 100.04H405.531ZM409.367 91.836C410.413 91.836 411.234 91.5093 411.831 90.856C412.429 90.2027 412.727 89.2973 412.727 88.14V85.2C412.727 84.0427 412.429 83.1373 411.831 82.484C411.234 81.8307 410.413 81.504 409.367 81.504C408.303 81.504 407.473 81.812 406.875 82.428C406.297 83.044 406.007 83.8747 406.007 84.92V88.42C406.007 89.4653 406.297 90.296 406.875 90.912C407.473 91.528 408.303 91.836 409.367 91.836Z" fill="#F3E223"/>
<path d="M269.512 480.28C267.533 480.28 265.956 479.757 264.78 478.712C263.604 477.667 263.016 476.229 263.016 474.4H265.536C265.536 475.539 265.9 476.435 266.628 477.088C267.356 477.723 268.317 478.04 269.512 478.04C270.669 478.04 271.593 477.704 272.284 477.032C272.975 476.36 273.32 475.483 273.32 474.4C273.32 473.579 273.096 472.869 272.648 472.272C272.219 471.656 271.593 471.236 270.772 471.012L267.664 470.144C266.376 469.771 265.359 469.108 264.612 468.156C263.884 467.185 263.52 466.047 263.52 464.74C263.52 463.657 263.763 462.705 264.248 461.884C264.733 461.063 265.415 460.428 266.292 459.98C267.169 459.513 268.177 459.28 269.316 459.28C270.473 459.28 271.491 459.513 272.368 459.98C273.264 460.428 273.964 461.063 274.468 461.884C274.972 462.687 275.224 463.62 275.224 464.684H272.704C272.704 463.751 272.387 462.995 271.752 462.416C271.117 461.819 270.305 461.52 269.316 461.52C268.327 461.52 267.524 461.819 266.908 462.416C266.292 462.995 265.984 463.751 265.984 464.684C265.984 465.431 266.18 466.075 266.572 466.616C266.983 467.139 267.552 467.503 268.28 467.708L271.472 468.604C272.835 468.977 273.889 469.687 274.636 470.732C275.401 471.759 275.784 472.981 275.784 474.4C275.784 476.192 275.215 477.62 274.076 478.684C272.937 479.748 271.416 480.28 269.512 480.28ZM280.589 480V459.56H292.349V461.856H283.081V468.184H291.369V470.424H283.081V477.704H292.349V480H280.589ZM298.218 480V459.56H300.738V477.704H309.978V480H298.218ZM314.167 480V459.56H325.927V461.856H316.659V468.184H324.947V470.424H316.659V477.704H325.927V480H314.167ZM336.78 480.28C334.914 480.28 333.439 479.757 332.356 478.712C331.274 477.667 330.732 476.229 330.732 474.4V465.16C330.732 463.331 331.274 461.893 332.356 460.848C333.439 459.803 334.914 459.28 336.78 459.28C338.61 459.28 340.066 459.812 341.148 460.876C342.231 461.921 342.772 463.349 342.772 465.16H340.252C340.252 464.003 339.944 463.116 339.328 462.5C338.731 461.865 337.882 461.548 336.78 461.548C335.679 461.548 334.811 461.865 334.176 462.5C333.56 463.116 333.252 464.003 333.252 465.16V474.4C333.252 475.557 333.56 476.453 334.176 477.088C334.811 477.704 335.679 478.012 336.78 478.012C337.882 478.012 338.731 477.704 339.328 477.088C339.944 476.453 340.252 475.557 340.252 474.4H342.772C342.772 476.211 342.231 477.648 341.148 478.712C340.066 479.757 338.61 480.28 336.78 480.28ZM352.085 480V461.856H346.485V459.56H360.205V461.856H354.605V480H352.085Z" fill="#F3E223"/>
<path d="M51.58 360.36C48.9107 359.763 46.8387 358.512 45.364 356.608C43.908 354.704 43.18 352.315 43.18 349.44V344.4C43.18 341.525 43.908 339.136 45.364 337.232C46.8387 335.328 48.9107 334.077 51.58 333.48V335.916C50.3853 336.196 49.34 336.728 48.444 337.512C47.5667 338.296 46.8853 339.276 46.4 340.452C45.9333 341.609 45.7 342.925 45.7 344.4V349.44C45.7 350.896 45.9333 352.212 46.4 353.388C46.8853 354.564 47.5667 355.544 48.444 356.328C49.34 357.112 50.3853 357.644 51.58 357.924V360.36ZM58.0091 360.36V357.924C59.2224 357.644 60.2677 357.112 61.1451 356.328C62.0224 355.544 62.6944 354.564 63.1611 353.388C63.6464 352.212 63.8891 350.896 63.8891 349.44V344.4C63.8891 342.925 63.6464 341.609 63.1611 340.452C62.6944 339.276 62.0224 338.296 61.1451 337.512C60.2677 336.728 59.2224 336.196 58.0091 335.916V333.48C60.6784 334.077 62.7411 335.328 64.1971 337.232C65.6717 339.136 66.4091 341.525 66.4091 344.4V349.44C66.4091 352.315 65.6717 354.704 64.1971 356.608C62.7411 358.512 60.6784 359.763 58.0091 360.36ZM79.6981 345.52C79.0821 345.52 78.5781 345.324 78.1861 344.932C77.7941 344.54 77.5981 344.036 77.5981 343.42C77.5981 342.823 77.7941 342.328 78.1861 341.936C78.5968 341.525 79.1008 341.32 79.6981 341.32H80.2581C80.8555 341.32 81.3501 341.525 81.7421 341.936C82.1528 342.328 82.3581 342.823 82.3581 343.42C82.3581 344.036 82.1621 344.54 81.7701 344.932C81.3781 345.324 80.8741 345.52 80.2581 345.52H79.6981ZM77.3181 361.48L78.8581 352.912H81.8821L79.9221 361.48H77.3181Z" fill="#F3E223"/>
<path d="M973.141 115L967.877 94.56H970.453L973.953 108.476C974.195 109.447 974.391 110.343 974.541 111.164C974.709 111.985 974.83 112.611 974.905 113.04C974.979 112.611 975.101 111.985 975.269 111.164C975.455 110.324 975.67 109.419 975.913 108.448L979.273 94.56H981.877L976.585 115H973.141ZM986.066 115V94.56H997.826V96.856H988.558V103.184H996.846V105.424H988.558V112.704H997.826V115H986.066ZM1002.66 115V94.56H1008.96C1010.17 94.56 1011.24 94.812 1012.15 95.316C1013.07 95.8013 1013.77 96.4827 1014.28 97.36C1014.78 98.2373 1015.03 99.264 1015.03 100.44C1015.03 101.821 1014.68 103.007 1013.97 103.996C1013.26 104.985 1012.32 105.676 1011.14 106.068L1015.31 115H1012.54L1008.54 106.32H1005.15V115H1002.66ZM1005.15 104.052H1008.96C1010 104.052 1010.84 103.725 1011.48 103.072C1012.11 102.4 1012.43 101.523 1012.43 100.44C1012.43 99.3387 1012.11 98.4613 1011.48 97.808C1010.84 97.1547 1010 96.828 1008.96 96.828H1005.15V104.052ZM1025.36 115.28C1023.38 115.28 1021.8 114.757 1020.62 113.712C1019.45 112.667 1018.86 111.229 1018.86 109.4H1021.38C1021.38 110.539 1021.74 111.435 1022.47 112.088C1023.2 112.723 1024.16 113.04 1025.36 113.04C1026.51 113.04 1027.44 112.704 1028.13 112.032C1028.82 111.36 1029.16 110.483 1029.16 109.4C1029.16 108.579 1028.94 107.869 1028.49 107.272C1028.06 106.656 1027.44 106.236 1026.62 106.012L1023.51 105.144C1022.22 104.771 1021.2 104.108 1020.46 103.156C1019.73 102.185 1019.36 101.047 1019.36 99.74C1019.36 98.6573 1019.61 97.7053 1020.09 96.884C1020.58 96.0627 1021.26 95.428 1022.14 94.98C1023.01 94.5133 1024.02 94.28 1025.16 94.28C1026.32 94.28 1027.33 94.5133 1028.21 94.98C1029.11 95.428 1029.81 96.0627 1030.31 96.884C1030.82 97.6867 1031.07 98.62 1031.07 99.684H1028.55C1028.55 98.7507 1028.23 97.9947 1027.6 97.416C1026.96 96.8187 1026.15 96.52 1025.16 96.52C1024.17 96.52 1023.37 96.8187 1022.75 97.416C1022.14 97.9947 1021.83 98.7507 1021.83 99.684C1021.83 100.431 1022.02 101.075 1022.42 101.616C1022.83 102.139 1023.4 102.503 1024.12 102.708L1027.32 103.604C1028.68 103.977 1029.73 104.687 1030.48 105.732C1031.25 106.759 1031.63 107.981 1031.63 109.4C1031.63 111.192 1031.06 112.62 1029.92 113.684C1028.78 114.748 1027.26 115.28 1025.36 115.28ZM1036.57 115V112.704H1040.74V96.856H1036.57V94.56H1047.49V96.856H1043.32V112.704H1047.49V115H1036.57ZM1058.82 115.28C1056.99 115.28 1055.55 114.748 1054.48 113.684C1053.42 112.62 1052.89 111.099 1052.89 109.12V100.44C1052.89 98.4613 1053.42 96.94 1054.48 95.876C1055.55 94.812 1056.99 94.28 1058.82 94.28C1060.65 94.28 1062.1 94.812 1063.16 95.876C1064.23 96.94 1064.76 98.452 1064.76 100.412V109.12C1064.76 111.099 1064.23 112.62 1063.16 113.684C1062.1 114.748 1060.65 115.28 1058.82 115.28ZM1058.82 113.012C1059.92 113.012 1060.76 112.704 1061.34 112.088C1061.94 111.453 1062.24 110.557 1062.24 109.4V100.16C1062.24 99.0027 1061.94 98.116 1061.34 97.5C1060.76 96.8653 1059.92 96.548 1058.82 96.548C1057.74 96.548 1056.9 96.8653 1056.3 97.5C1055.7 98.116 1055.41 99.0027 1055.41 100.16V109.4C1055.41 110.557 1055.7 111.453 1056.3 112.088C1056.9 112.704 1057.74 113.012 1058.82 113.012ZM1069.73 115V94.56H1073.09L1079.33 112.06C1079.3 111.593 1079.25 111.024 1079.19 110.352C1079.16 109.661 1079.12 108.943 1079.08 108.196C1079.06 107.431 1079.05 106.712 1079.05 106.04V94.56H1081.49V115H1078.13L1071.91 97.5C1071.95 97.948 1071.99 98.5173 1072.03 99.208C1072.06 99.88 1072.09 100.599 1072.11 101.364C1072.15 102.111 1072.17 102.829 1072.17 103.52V115H1069.73Z" fill="#F3E223"/>
</g>
<g filter="url(#filter0_d_12175_8037)">
<path d="M550.517 405.419C543.221 404.967 537.318 399.028 536.966 391.795C536.783 388 538.09 384.507 540.358 381.845C541.823 380.128 542.662 377.954 542.461 375.713C542.461 375.695 542.461 375.677 542.461 375.665C542.194 372.859 539.738 370.745 536.893 370.745L495 370.745C493.895 370.745 493 369.849 493 368.745L493 325.723C493 324.355 493.997 323.163 495.365 322.97C495.541 322.946 495.717 322.928 495.888 322.91C498.222 322.699 500.49 323.554 502.277 325.054C505.049 327.373 508.679 328.71 512.636 328.523C520.169 328.162 526.351 322.133 526.819 314.677C527.354 306.07 520.472 298.926 511.901 298.926C507.894 298.926 504.691 300.697 502.855 302.028C500.964 303.396 498.617 304.07 496.313 303.679C495.821 303.594 495.31 303.468 494.812 303.293C493.711 302.908 493 301.842 493 300.685L493 258.723C493 257.619 493.895 256.723 495 256.723L539.659 256.723C541.051 256.723 542.182 257.844 542.182 259.223C542.388 261.536 541.525 263.782 540.018 265.553C537.677 268.3 536.327 271.901 536.516 275.816C536.875 283.279 542.966 289.404 550.492 289.868C559.174 290.398 566.384 283.58 566.384 275.087C566.384 271.118 564.596 267.944 563.253 266.125C561.873 264.252 561.198 261.927 561.593 259.645C561.648 259.325 561.721 258.994 561.818 258.669C562.152 257.5 563.277 256.723 564.499 256.723L607.875 256.723C608.98 256.723 609.875 257.619 609.875 258.723L609.875 297.878C609.875 299.167 610.313 300.432 611.158 301.414C612.514 303.004 612.475 293.633 614.074 293.904C616.305 294.284 618.771 297.391 620.607 296.066C622.388 294.777 628.917 296.066 632.802 296.066C641.106 296.066 645.926 306.305 645.403 314.646C644.953 321.874 638.959 327.722 631.657 328.066C627.827 328.246 621.552 338.52 618.865 336.273C617.623 335.232 617.757 331.803 617.099 330.019C616.74 329.047 615.841 329.728 615.751 330.761C615.393 334.898 613.655 330.107 613.203 330.22C610.79 330.841 609.875 325.741 609.875 328.216L609.875 368.745C609.875 369.849 608.98 370.745 607.875 370.745L567.034 370.745C565.004 370.745 563.101 371.817 562.14 373.587C561.684 374.419 561.423 375.292 561.277 376.123C560.888 378.34 561.551 380.592 562.888 382.405C564.189 384.17 565.922 387.248 565.922 391.096C565.922 399.324 558.93 405.931 550.517 405.419Z" fill="#FFFCC2" stroke="#978C00" stroke-width="3.21" stroke-miterlimit="10"/>
<path d="M755.097 314.941C754.654 322.058 748.826 327.817 741.728 328.161C738.005 328.339 734.577 327.064 731.965 324.851C730.281 323.422 728.147 322.604 725.949 322.799C725.931 322.799 725.913 322.799 725.901 322.799C723.147 323.06 721.073 325.456 721.073 328.232V369.054C721.073 370.159 720.177 371.054 719.073 371.054H676.895C675.553 371.054 674.383 370.082 674.194 368.747C674.171 368.575 674.153 368.403 674.135 368.237C673.928 365.96 674.767 363.747 676.239 362.004C678.514 359.299 679.826 355.758 679.643 351.897C679.289 344.549 673.373 338.517 666.056 338.06C657.611 337.538 650.601 344.252 650.601 352.615C650.601 356.523 652.339 359.649 653.645 361.44C654.986 363.285 655.648 365.574 655.264 367.822C655.182 368.302 655.057 368.801 654.886 369.287C654.508 370.36 653.462 371.054 652.327 371.054H611.189C610.085 371.054 609.189 370.159 609.189 369.054V325.534C609.189 324.175 610.289 323.072 611.642 323.072C613.912 322.871 616.116 323.713 617.854 325.184C620.549 327.467 624.083 328.784 627.924 328.6C635.247 328.25 641.257 322.307 641.712 314.964C642.233 306.495 635.542 299.461 627.209 299.461C623.314 299.461 620.2 301.204 618.415 302.515C616.577 303.861 614.296 304.52 612.056 304.134C611.743 304.081 611.418 304.01 611.098 303.915C609.952 303.589 609.189 302.491 609.189 301.299V259.03C609.189 257.925 610.085 257.03 611.189 257.03H649.573C650.838 257.03 652.079 256.603 653.042 255.778C654.602 254.456 645.407 254.493 645.673 252.933C646.045 250.757 649.095 248.351 647.794 246.56C646.53 244.822 647.794 238.453 647.794 234.663C647.794 226.561 657.841 221.859 666.026 222.369C673.119 222.808 678.857 228.656 679.194 235.779C679.371 239.515 689.452 245.638 687.248 248.259C686.233 249.463 682.907 249.342 681.147 249.969C680.171 250.317 680.84 251.208 681.873 251.3C685.872 251.656 681.198 253.343 681.308 253.783C681.917 256.138 676.913 257.03 679.342 257.03H719.073C720.177 257.03 721.073 257.925 721.073 259.03V298.826C721.073 300.807 722.125 302.663 723.862 303.6C724.678 304.045 725.535 304.3 726.35 304.443C728.525 304.822 730.736 304.176 732.515 302.871C734.246 301.602 737.266 299.911 741.043 299.911C749.116 299.911 755.599 306.732 755.097 314.941Z" fill="#FFFCC2" stroke="#978C00" stroke-width="3.21" stroke-miterlimit="10"/>
<path d="M755.097 200.606C754.654 207.724 748.826 213.483 741.728 213.827C738.005 214.005 734.577 212.73 731.965 210.517C730.281 209.088 728.147 208.269 725.949 208.465C725.931 208.465 725.913 208.465 725.901 208.465C723.147 208.726 721.073 211.122 721.073 213.898V254.723C721.073 255.828 720.177 256.723 719.073 256.723H676.895C675.553 256.723 674.383 255.751 674.194 254.416C674.171 254.244 674.153 254.072 674.135 253.906C673.928 251.628 674.767 249.416 676.239 247.672C678.514 244.967 679.826 241.426 679.643 237.565C679.289 230.216 673.373 224.183 666.056 223.727C657.611 223.205 650.601 229.919 650.601 238.283C650.601 242.191 652.339 245.317 653.645 247.109C654.986 248.953 655.648 251.243 655.264 253.491C655.182 253.971 655.057 254.469 654.886 254.956C654.508 256.029 653.462 256.723 652.327 256.723H611.189C610.085 256.723 609.189 255.828 609.189 254.723V211.2C609.189 209.841 610.289 208.738 611.642 208.738C613.912 208.536 616.116 209.379 617.854 210.85C620.549 213.133 624.083 214.45 627.924 214.266C635.247 213.916 641.257 207.973 641.712 200.63C642.233 192.16 635.542 185.125 627.209 185.125C623.314 185.125 620.2 186.869 618.415 188.18C616.577 189.526 614.296 190.184 612.056 189.799C611.743 189.746 611.418 189.674 611.098 189.579C609.952 189.253 609.189 188.156 609.189 186.964V144.691C609.189 143.587 610.085 142.691 611.189 142.691H649.573C650.838 142.691 652.079 142.264 653.042 141.44C654.602 140.117 655.3 138.433 655.566 136.873C655.938 134.696 655.3 132.477 653.999 130.686C652.735 128.948 651.044 125.923 651.044 122.133C651.044 114.031 657.841 107.518 666.026 108.028C673.119 108.467 678.857 114.315 679.194 121.439C679.371 125.176 678.101 128.616 675.896 131.238C674.472 132.928 673.662 135.069 673.857 137.276C673.899 137.756 673.981 138.249 674.106 138.741C674.714 141.096 676.913 142.691 679.342 142.691H719.073C720.177 142.691 721.073 143.587 721.073 144.691V184.49C721.073 186.471 722.125 188.328 723.862 189.265C724.678 189.71 725.535 189.965 726.35 190.107C728.525 190.487 730.736 189.84 732.515 188.536C734.246 187.266 737.266 185.576 741.043 185.576C749.116 185.576 755.599 192.397 755.097 200.606Z" fill="#FFFCC2" stroke="#978C00" stroke-width="3.21" stroke-miterlimit="10"/>
<path d="M598.825 172.377C604.323 169.14 609.694 169.024 615.233 172.216C635.779 184.056 656.352 195.848 676.905 207.676C679.239 209.025 681.017 210.709 682.251 212.703L682.491 213.107C683.753 215.315 684.378 217.888 684.379 220.8C684.387 244.561 684.387 292.044 684.387 292.149C684.386 294.997 683.787 297.521 682.582 299.696C681.575 301.512 680.143 303.089 678.275 304.405C678.131 304.506 677.985 304.606 677.836 304.704C677.538 304.9 677.23 305.09 676.912 305.274C656.356 317.102 635.782 328.893 615.235 340.734C611.512 342.879 607.866 343.531 604.206 342.745C604.121 342.727 604.035 342.708 603.95 342.688C603.494 342.582 603.039 342.451 602.583 342.301C602.187 342.17 601.789 342.025 601.392 341.861C600.538 341.508 599.682 341.078 598.823 340.572C597.8 339.97 596.266 339.077 594.339 337.962C592.412 336.847 590.093 335.51 587.503 334.018C583.251 331.57 578.267 328.707 573.083 325.731C569.714 323.798 566.261 321.816 562.869 319.87C552.393 313.861 542.498 308.185 537.475 305.281C536.36 304.638 535.373 303.917 534.512 303.124C534.142 302.783 533.796 302.43 533.472 302.063C533.147 301.694 532.845 301.311 532.566 300.915C532.29 300.524 532.036 300.12 531.805 299.702L531.586 299.29C530.526 297.21 530 294.826 530 292.156C530.008 268.368 530 244.582 530.008 220.795C530.009 215.018 532.455 210.573 537.481 207.669C549.686 200.613 590.644 177.193 598.825 172.377Z" fill="#FFF100"/>
<path d="M682.582 299.696C683.787 297.521 684.386 294.997 684.387 292.149C684.387 292.043 684.387 244.561 684.379 220.8C684.377 217.888 683.753 215.315 682.491 213.107L682.251 212.703C681.017 210.709 679.239 209.025 676.905 207.676C656.352 195.848 635.779 184.056 615.233 172.216C609.694 169.024 604.323 169.14 598.825 172.377C590.644 177.193 549.686 200.613 537.481 207.669C532.455 210.573 530.009 215.018 530.008 220.795C530 244.582 530.008 268.368 530 292.156C530 294.826 530.526 297.21 531.586 299.29L531.805 299.702C532.036 300.12 532.29 300.524 532.566 300.915C532.845 301.311 533.147 301.694 533.472 302.063C533.796 302.43 534.142 302.783 534.512 303.124C535.373 303.917 536.36 304.638 537.475 305.281C542.498 308.185 552.393 313.861 562.869 319.87C566.261 321.816 569.714 323.798 573.083 325.731C578.267 328.707 583.251 331.57 587.503 334.018C590.093 335.51 592.412 336.847 594.339 337.962C596.266 339.077 597.8 339.97 598.823 340.572C599.682 341.078 600.538 341.508 601.392 341.861C601.789 342.025 602.187 342.17 602.583 342.301C603.039 342.451 603.494 342.582 603.95 342.688C604.035 342.708 604.121 342.727 604.206 342.745C607.866 343.531 611.512 342.879 615.235 340.734C635.782 328.893 656.356 317.102 676.912 305.274C677.23 305.091 677.538 304.9 677.836 304.704C677.985 304.606 678.131 304.506 678.275 304.405C680.143 303.089 681.575 301.512 682.582 299.696ZM682.582 299.696L682.581 299.695" stroke="#978C00" stroke-width="3.21" stroke-miterlimit="10"/>
<path d="M652.166 239.694V248.085H660.221V239.694H664.249V248.085H672.304V252.28H664.249V260.671H672.304V264.866H664.249V273.256H660.221V264.866H652.166V273.256H648.139V264.866H640.084V260.671H648.139V252.28H640.084V248.085H648.139V239.694H652.166ZM660.221 252.28H652.166V260.671H660.221V252.28Z" fill="#978C00"/>
<path d="M607.68 199.419C628.967 199.419 647.552 210.882 657.507 227.921L657.409 227.757L632.364 242.056C627.43 233.772 618.383 228.181 608.007 228.066L607.68 228.064C591.855 228.064 579.026 240.784 579.026 256.475C579.026 261.606 580.405 266.416 582.805 270.571C587.744 279.12 597.029 284.887 607.68 284.887C618.396 284.887 627.734 279.047 632.648 270.406L632.529 270.613L657.536 284.978C647.691 301.873 629.36 313.3 608.321 313.528L607.68 313.532C586.326 313.532 567.687 301.998 557.758 284.869C552.91 276.507 550.137 266.813 550.137 256.475C550.137 224.965 575.899 199.419 607.68 199.419Z" fill="#978C00"/>
</g>
</g>
<defs>
<filter id="filter0_d_12175_8037" x="457.395" y="72.395" width="333.334" height="368.657" filterUnits="userSpaceOnUse" color-interpolation-filters="sRGB">
<feFlood flood-opacity="0" result="BackgroundImageFix"/>
<feColorMatrix in="SourceAlpha" type="matrix" values="0 0 0 0 0 0 0 0 0 0 0 0 0 0 0 0 0 0 127 0" result="hardAlpha"/>
<feOffset/>
<feGaussianBlur stdDeviation="17"/>
<feComposite in2="hardAlpha" operator="out"/>
<feColorMatrix type="matrix" values="0 0 0 0 1 0 0 0 0 0.986905 0 0 0 0 0.761493 0 0 0 1 0"/>
<feBlend mode="normal" in2="BackgroundImageFix" result="effect1_dropShadow_12175_8037"/>
<feBlend mode="normal" in="SourceGraphic" in2="effect1_dropShadow_12175_8037" result="shape"/>
</filter>
<linearGradient id="paint0_linear_12175_8037" x1="589" y1="-26.5" x2="587" y2="627" gradientUnits="userSpaceOnUse">
<stop stop-color="#FDEF00"/>
<stop offset="0.938633" stop-color="#FFFAA3"/>
</linearGradient>
<linearGradient id="paint1_linear_12175_8037" x1="587" y1="-85" x2="587" y2="627" gradientUnits="userSpaceOnUse">
<stop stop-color="#FDEF00"/>
<stop offset="0.938633" stop-color="#FFFAA3"/>
</linearGradient>
<clipPath id="clip0_12175_8037">
<rect width="1200" height="515" fill="white"/>
</clipPath>
<clipPath id="clip1_12175_8037">
<rect width="1200" height="515" fill="white"/>
</clipPath>
</defs>
</svg>
