<svg width="560" height="240" viewBox="0 0 560 240" fill="none" xmlns="http://www.w3.org/2000/svg">
<g clip-path="url(#clip0_6603_20156)">
<rect width="560" height="240" fill="#FFF100"/>
<g clip-path="url(#clip1_6603_20156)">
<rect width="560" height="240" fill="#FFF100"/>
<path d="M134.5 190.5L361 190.5C372.046 190.5 381 181.546 381 170.5L381 54.9999C381.001 43.9543 389.955 35 401 35L598.5 35C609.546 35 618.5 43.9543 618.5 55.0001L618.5 309C618.5 320.046 609.545 329 598.5 329L134.5 329C123.454 329 114.5 320.046 114.5 309L114.5 210.5C114.5 199.454 123.454 190.5 134.5 190.5Z" fill="#EDDD0C"/>
<path d="M186.5 50.8302L186.5 -21.9996C186.5 -33.0452 177.546 -41.9995 166.5 -41.9996L-27.9999 -42C-39.0457 -42 -48 -33.0457 -48 -22L-48 185C-48 196.046 -39.0457 205 -28 205L33.7692 205C44.8149 205 53.7692 196.046 53.7692 185L53.7693 90.8299C53.7693 79.7841 62.7236 70.8298 73.7693 70.8299L166.5 70.8302C177.546 70.8302 186.5 61.8759 186.5 50.8302Z" fill="#EDDD0C"/>
<path d="M686.5 100L539.885 100L482.5 100C471.454 100 462.5 108.954 462.5 120L462.5 340C462.5 351.046 471.454 360 482.5 360L686.5 360C697.546 360 706.5 351.046 706.5 340L706.5 120C706.5 108.954 697.546 100 686.5 100Z" fill="#FFF100"/>
</g>
<path d="M233 153.5C214.467 153.5 199.5 138.533 199.5 120C199.5 101.467 214.467 86.5 233 86.5C251.533 86.5 266.5 101.467 266.5 120C266.5 138.533 251.533 153.5 233 153.5Z" fill="#0D0D0D"/>
<path d="M250.913 115.031H244.341V124.948H250.913C253.637 124.948 255.902 122.684 255.902 119.959C255.902 117.214 253.637 115.031 250.913 115.031Z" fill="#FFF100"/>
<path d="M212.142 120C212.142 127.654 218.373 133.885 226.026 133.885C233.68 133.885 239.911 127.654 239.911 120C239.911 112.346 233.68 106.115 226.026 106.115C218.373 106.115 212.142 112.346 212.142 120Z" fill="#FFF100"/>
<path d="M293.409 126.269H297.848V115.643C297.848 115.244 297.856 114.892 297.871 114.585C297.902 114.263 297.917 114.094 297.917 114.079H297.871C297.779 114.171 297.679 114.263 297.572 114.355C297.48 114.432 297.38 114.516 297.273 114.608C297.166 114.685 297.051 114.761 296.928 114.838L293.685 117V114.516L297.365 111.94H300.378V126.269H304.035V128.5H293.409V126.269ZM310.075 126.568C310.075 125.924 310.267 125.41 310.65 125.027C311.033 124.628 311.547 124.429 312.191 124.429C312.835 124.429 313.349 124.628 313.732 125.027C314.115 125.41 314.307 125.924 314.307 126.568C314.307 127.212 314.115 127.733 313.732 128.132C313.349 128.531 312.835 128.73 312.191 128.73C311.547 128.73 311.033 128.531 310.65 128.132C310.267 127.733 310.075 127.212 310.075 126.568ZM323.222 124.866C323.375 125.372 323.69 125.778 324.165 126.085C324.656 126.392 325.269 126.545 326.005 126.545C326.879 126.545 327.569 126.3 328.075 125.809C328.596 125.303 328.857 124.628 328.857 123.785V122.75C328.857 121.907 328.596 121.24 328.075 120.749C327.554 120.243 326.856 119.99 325.982 119.99C324.863 119.99 324.058 120.35 323.567 121.071H321.037L321.152 111.94H330.72V114.194H323.567L323.498 119.622H323.613C323.751 119.3 323.958 119.009 324.234 118.748C324.479 118.533 324.809 118.342 325.223 118.173C325.637 117.989 326.174 117.897 326.833 117.897C327.538 117.897 328.175 118.012 328.742 118.242C329.309 118.472 329.792 118.802 330.191 119.231C330.59 119.645 330.896 120.151 331.111 120.749C331.326 121.347 331.433 122.014 331.433 122.75V123.785C331.433 124.536 331.303 125.219 331.042 125.832C330.781 126.445 330.413 126.967 329.938 127.396C329.478 127.825 328.911 128.155 328.236 128.385C327.561 128.615 326.81 128.73 325.982 128.73C325.246 128.73 324.571 128.638 323.958 128.454C323.345 128.27 322.8 128.009 322.325 127.672C321.865 127.335 321.489 126.928 321.198 126.453C320.907 125.978 320.715 125.449 320.623 124.866H323.222ZM337.657 126.568C337.657 125.924 337.849 125.41 338.232 125.027C338.615 124.628 339.129 124.429 339.773 124.429C340.417 124.429 340.931 124.628 341.314 125.027C341.697 125.41 341.889 125.924 341.889 126.568C341.889 127.212 341.697 127.733 341.314 128.132C340.931 128.531 340.417 128.73 339.773 128.73C339.129 128.73 338.615 128.531 338.232 128.132C337.849 127.733 337.657 127.212 337.657 126.568ZM348.251 116.701C348.251 115.934 348.374 115.244 348.619 114.631C348.88 114.018 349.24 113.496 349.7 113.067C350.16 112.622 350.72 112.285 351.379 112.055C352.038 111.81 352.774 111.687 353.587 111.687C354.384 111.687 355.105 111.81 355.749 112.055C356.408 112.285 356.968 112.622 357.428 113.067C357.888 113.496 358.241 114.018 358.486 114.631C358.731 115.244 358.854 115.934 358.854 116.701V123.693C358.854 124.444 358.724 125.134 358.463 125.763C358.218 126.376 357.865 126.905 357.405 127.35C356.945 127.795 356.393 128.14 355.749 128.385C355.105 128.615 354.384 128.73 353.587 128.73C352.774 128.73 352.038 128.615 351.379 128.385C350.72 128.14 350.16 127.802 349.7 127.373C349.24 126.928 348.88 126.399 348.619 125.786C348.374 125.157 348.251 124.46 348.251 123.693V116.701ZM350.735 123.693C350.735 124.552 350.988 125.234 351.494 125.74C352.015 126.246 352.713 126.499 353.587 126.499C354.43 126.499 355.105 126.246 355.611 125.74C356.117 125.234 356.37 124.552 356.37 123.693V116.701C356.37 115.858 356.117 115.183 355.611 114.677C355.105 114.171 354.43 113.918 353.587 113.918C352.713 113.918 352.015 114.171 351.494 114.677C350.988 115.183 350.735 115.858 350.735 116.701V123.693ZM352.46 118.564C352.46 118.196 352.56 117.897 352.759 117.667C352.958 117.437 353.234 117.322 353.587 117.322C353.924 117.322 354.193 117.437 354.392 117.667C354.591 117.897 354.691 118.196 354.691 118.564V122.083C354.691 122.451 354.591 122.75 354.392 122.98C354.193 123.21 353.924 123.325 353.587 123.325C353.234 123.325 352.958 123.21 352.759 122.98C352.56 122.75 352.46 122.451 352.46 122.083V118.564Z" fill="#0D0D0D"/>
</g>
<defs>
<clipPath id="clip0_6603_20156">
<rect width="560" height="240" fill="white"/>
</clipPath>
<clipPath id="clip1_6603_20156">
<rect width="560" height="240" fill="white"/>
</clipPath>
</defs>
</svg>
