<svg width="560" height="240" viewBox="0 0 560 240" fill="none" xmlns="http://www.w3.org/2000/svg">
<g clip-path="url(#clip0_6687_22533)">
<rect width="560" height="240" fill="#1A1A1A"/>
<g clip-path="url(#clip1_6687_22533)">
<rect width="560" height="240" fill="#2EAFFF"/>
<path d="M231 21.9441L231 -24C231 -35.0457 222.046 -44 211 -44L-11 -44C-22.0457 -44 -31 -35.0457 -31 -24L-31 191C-31 202.046 -22.0457 211 -11 211L76.5 211C87.5457 211 96.5 202.046 96.5 191L96.5 61.9441C96.5 50.8984 105.454 41.9441 116.5 41.9441L211 41.9441C222.046 41.9441 231 32.9898 231 21.9441Z" fill="black" fill-opacity="0.06"/>
<path d="M396.5 197.576L289 197.576C277.954 197.576 269 206.53 269 217.576L269 256C269 267.046 277.954 276 289 276L611.5 276C622.546 276 631.5 267.046 631.5 256L631.5 -28C631.5 -39.0457 622.546 -48 611.5 -48L504.424 -48C493.378 -48 484.424 -39.0457 484.424 -28L484.424 58.5088C484.424 69.5545 475.47 78.5088 464.424 78.5088L436.5 78.5088C425.454 78.5088 416.5 87.4631 416.5 98.5088L416.5 177.576C416.5 188.622 407.546 197.576 396.5 197.576Z" fill="black" fill-opacity="0.06"/>
<path d="M514 114C502.954 114 494 122.954 494 134V294C494 305.046 502.954 314 514 314H612C623.046 314 632 305.046 632 294L632 134C632 122.954 623.046 114 612 114L514 114Z" fill="#2EAFFF"/>
</g>
<path d="M187 86.5C168.53 86.5 153.5 101.53 153.5 120C153.5 138.47 168.53 153.5 187 153.5C205.47 153.5 220.5 138.47 220.5 120C220.5 101.53 205.47 86.5 187 86.5Z" fill="#0D0D0D"/>
<path fill-rule="evenodd" clip-rule="evenodd" d="M183.028 103.017C189.119 103.017 194.419 106.286 197.299 111.163H200.308V111.181C204.464 111.181 207.968 114.523 207.977 118.764H207.995C207.994 122.977 204.539 126.432 200.326 126.433H198.098C195.574 131.955 190.117 135.855 183.715 136.116L183.028 136.13L182.176 136.108C173.422 135.664 166.473 128.439 166.473 119.575V119.556C166.473 110.405 173.878 103.001 183.028 103V103.017ZM183.028 108.043C176.681 108.044 171.516 113.191 171.516 119.556V119.575C171.516 125.921 176.664 131.086 183.028 131.087C188.141 131.087 192.479 127.755 193.977 123.135L194.542 121.389H200.326C201.73 121.389 202.941 120.201 202.951 118.781H202.934C202.934 117.388 201.771 116.207 200.308 116.207H194.155L193.485 114.743C191.669 110.776 187.665 108.043 183.028 108.043Z" fill="#2EAFFF"/>
<path d="M242.524 128.5V111.71H247.032C248.136 111.71 249.087 111.925 249.884 112.354C250.681 112.768 251.302 113.358 251.747 114.125C252.192 114.876 252.414 115.766 252.414 116.793V123.394C252.414 124.421 252.192 125.318 251.747 126.085C251.302 126.852 250.681 127.45 249.884 127.879C249.087 128.293 248.136 128.5 247.032 128.5H242.524ZM244.801 126.476H247.032C247.998 126.476 248.757 126.2 249.309 125.648C249.861 125.096 250.137 124.345 250.137 123.394V116.793C250.137 115.842 249.861 115.099 249.309 114.562C248.757 114.01 247.998 113.734 247.032 113.734H244.801V126.476ZM261.168 128.73C259.681 128.73 258.492 128.293 257.603 127.419C256.714 126.545 256.269 125.357 256.269 123.854V115.85H258.546V123.854C258.546 124.743 258.776 125.449 259.236 125.97C259.711 126.476 260.355 126.729 261.168 126.729C261.996 126.729 262.648 126.476 263.123 125.97C263.598 125.449 263.836 124.743 263.836 123.854V115.85H266.113V123.854C266.113 125.357 265.661 126.545 264.756 127.419C263.851 128.293 262.655 128.73 261.168 128.73ZM275.166 128.73C274.139 128.73 273.234 128.538 272.452 128.155C271.685 127.756 271.087 127.197 270.658 126.476C270.244 125.74 270.037 124.866 270.037 123.854V120.496C270.037 119.469 270.244 118.595 270.658 117.874C271.087 117.153 271.685 116.601 272.452 116.218C273.234 115.819 274.139 115.62 275.166 115.62C276.653 115.62 277.849 116.019 278.754 116.816C279.674 117.598 280.157 118.671 280.203 120.036H277.949C277.903 119.269 277.635 118.679 277.144 118.265C276.653 117.851 275.994 117.644 275.166 117.644C274.292 117.644 273.594 117.889 273.073 118.38C272.567 118.855 272.314 119.553 272.314 120.473V123.854C272.314 124.774 272.567 125.479 273.073 125.97C273.594 126.461 274.292 126.706 275.166 126.706C275.994 126.706 276.653 126.499 277.144 126.085C277.635 125.656 277.903 125.065 277.949 124.314H280.203C280.157 125.679 279.674 126.76 278.754 127.557C277.849 128.339 276.653 128.73 275.166 128.73ZM284.012 128.5V111.71H286.289V121.002H288.612L292.016 115.85H294.592L290.613 121.899L294.799 128.5H292.177L288.635 122.957H286.289V128.5H284.012ZM298.608 128.5V111.71H300.885V126.43H308.36V128.5H298.608ZM315.182 128.73C313.879 128.73 312.844 128.37 312.077 127.649C311.326 126.913 310.95 125.955 310.95 124.774C310.95 123.977 311.126 123.287 311.479 122.704C311.847 122.121 312.353 121.669 312.997 121.347C313.656 121.01 314.408 120.841 315.251 120.841H318.954V119.875C318.954 119.093 318.739 118.51 318.31 118.127C317.881 117.744 317.237 117.552 316.378 117.552C315.611 117.552 314.99 117.698 314.515 117.989C314.055 118.265 313.81 118.656 313.779 119.162H311.525C311.602 118.135 312.069 117.291 312.928 116.632C313.787 115.957 314.937 115.62 316.378 115.62C317.942 115.62 319.138 115.996 319.966 116.747C320.809 117.483 321.231 118.51 321.231 119.829V128.5H318.977V126.177H318.609L318.977 125.717C318.977 126.33 318.824 126.867 318.517 127.327C318.21 127.772 317.773 128.117 317.206 128.362C316.639 128.607 315.964 128.73 315.182 128.73ZM315.78 126.821C316.746 126.821 317.513 126.591 318.08 126.131C318.663 125.656 318.954 125.012 318.954 124.199V122.52H315.458C314.799 122.52 314.262 122.719 313.848 123.118C313.449 123.501 313.25 124.015 313.25 124.659C313.25 125.318 313.472 125.847 313.917 126.246C314.362 126.629 314.983 126.821 315.78 126.821ZM325.385 128.5V111.71H327.662V121.002H329.985L333.389 115.85H335.965L331.986 121.899L336.172 128.5H333.55L330.008 122.957H327.662V128.5H325.385ZM343.937 128.73C342.925 128.73 342.036 128.531 341.269 128.132C340.518 127.718 339.927 127.135 339.498 126.384C339.084 125.617 338.877 124.713 338.877 123.67V120.68C338.877 119.622 339.084 118.717 339.498 117.966C339.927 117.215 340.518 116.64 341.269 116.241C342.036 115.827 342.925 115.62 343.937 115.62C344.949 115.62 345.831 115.819 346.582 116.218C347.349 116.617 347.939 117.184 348.353 117.92C348.782 118.641 348.997 119.499 348.997 120.496V122.75H341.108V123.854C341.108 124.774 341.361 125.495 341.867 126.016C342.388 126.537 343.078 126.798 343.937 126.798C344.658 126.798 345.256 126.66 345.731 126.384C346.222 126.108 346.513 125.725 346.605 125.234H348.882C348.729 126.307 348.2 127.158 347.295 127.787C346.39 128.416 345.271 128.73 343.937 128.73ZM346.766 121.278V120.473C346.766 119.507 346.521 118.763 346.03 118.242C345.539 117.721 344.842 117.46 343.937 117.46C343.032 117.46 342.335 117.728 341.844 118.265C341.353 118.786 341.108 119.53 341.108 120.496V121.071H346.95L346.766 121.278ZM371.519 128.73C370.476 128.73 369.572 128.531 368.805 128.132C368.038 127.718 367.44 127.135 367.011 126.384C366.597 125.633 366.39 124.759 366.39 123.762V116.448C366.39 115.436 366.597 114.562 367.011 113.826C367.44 113.075 368.038 112.5 368.805 112.101C369.572 111.687 370.476 111.48 371.519 111.48C372.577 111.48 373.482 111.687 374.233 112.101C375 112.5 375.59 113.075 376.004 113.826C376.433 114.562 376.648 115.436 376.648 116.448V123.762C376.648 124.759 376.433 125.633 376.004 126.384C375.59 127.135 375 127.718 374.233 128.132C373.466 128.531 372.562 128.73 371.519 128.73ZM371.519 126.775C372.408 126.775 373.121 126.499 373.658 125.947C374.195 125.38 374.463 124.651 374.463 123.762V116.448C374.463 115.559 374.195 114.838 373.658 114.286C373.121 113.719 372.408 113.435 371.519 113.435C370.63 113.435 369.917 113.719 369.38 114.286C368.843 114.838 368.575 115.559 368.575 116.448V123.762C368.575 124.651 368.843 125.38 369.38 125.947C369.917 126.499 370.63 126.775 371.519 126.775ZM371.519 121.393C371.09 121.393 370.745 121.278 370.484 121.048C370.223 120.818 370.093 120.481 370.093 120.036C370.093 119.607 370.223 119.285 370.484 119.07C370.745 118.84 371.09 118.725 371.519 118.725C371.948 118.725 372.293 118.84 372.554 119.07C372.815 119.285 372.945 119.607 372.945 120.036C372.945 120.481 372.815 120.818 372.554 121.048C372.293 121.278 371.948 121.393 371.519 121.393ZM385.31 128.73C384.727 128.73 384.252 128.554 383.884 128.201C383.531 127.848 383.355 127.396 383.355 126.844C383.355 126.246 383.531 125.771 383.884 125.418C384.252 125.05 384.727 124.866 385.31 124.866C385.893 124.866 386.36 125.05 386.713 125.418C387.081 125.771 387.265 126.246 387.265 126.844C387.265 127.396 387.081 127.848 386.713 128.201C386.36 128.554 385.893 128.73 385.31 128.73ZM394.11 128.5V126.407L399.814 120.381C400.55 119.599 401.072 118.894 401.378 118.265C401.7 117.636 401.861 117.015 401.861 116.402C401.861 115.528 401.608 114.83 401.102 114.309C400.596 113.772 399.914 113.504 399.055 113.504C398.166 113.504 397.461 113.78 396.939 114.332C396.418 114.869 396.157 115.589 396.157 116.494H393.88C393.896 115.467 394.118 114.577 394.547 113.826C394.992 113.075 395.598 112.5 396.364 112.101C397.131 111.687 398.028 111.48 399.055 111.48C400.113 111.48 401.018 111.679 401.769 112.078C402.536 112.477 403.126 113.044 403.54 113.78C403.97 114.516 404.184 115.382 404.184 116.379C404.184 117.192 403.97 118.043 403.54 118.932C403.111 119.806 402.383 120.772 401.355 121.83L396.893 126.43H404.391V128.5H394.11Z" fill="black"/>
</g>
<defs>
<clipPath id="clip0_6687_22533">
<rect width="560" height="240" fill="white"/>
</clipPath>
<clipPath id="clip1_6687_22533">
<rect width="560" height="240" fill="white"/>
</clipPath>
</defs>
</svg>
