<svg xmlns="http://www.w3.org/2000/svg" width="560" height="240" fill="none" viewBox="0 0 560 240"><rect width="560" height="240" fill="#FFF100"/><g clip-path="url(#clip0_4739_623)"><rect width="560" height="240" fill="#FFF100"/><path fill="#EDDE00" d="M134.5 190.5L361 190.5C372.046 190.5 381 181.546 381 170.5L381 54.9999C381.001 43.9543 389.955 35 401 35L598.5 35C609.546 35 618.5 43.9543 618.5 55.0001L618.5 309C618.5 320.046 609.545 329 598.5 329L134.5 329C123.454 329 114.5 320.046 114.5 309L114.5 210.5C114.5 199.454 123.454 190.5 134.5 190.5Z"/><path fill="#EDDE00" d="M186.5 50.8302L186.5 -21.9996C186.5 -33.0452 177.546 -41.9995 166.5 -41.9996L-27.9999 -42C-39.0457 -42 -48 -33.0457 -48 -22L-48 185C-48 196.046 -39.0457 205 -28 205L33.7692 205C44.8149 205 53.7692 196.046 53.7692 185L53.7693 90.8299C53.7693 79.7841 62.7236 70.8298 73.7693 70.8299L166.5 70.8302C177.546 70.8302 186.5 61.8759 186.5 50.8302Z"/><path fill="#FFF100" d="M686.5 100L539.885 100L482.5 100C471.454 100 462.5 108.954 462.5 120L462.5 340C462.5 351.046 471.454 360 482.5 360L686.5 360C697.546 360 706.5 351.046 706.5 340L706.5 120C706.5 108.954 697.546 100 686.5 100Z"/></g><path fill="#000" d="M233 153.5C214.467 153.5 199.5 138.533 199.5 120C199.5 101.467 214.467 86.5 233 86.5C251.533 86.5 266.5 101.467 266.5 120C266.5 138.533 251.533 153.5 233 153.5Z"/><path fill="#FFF100" d="M250.912 115.03H244.34V124.948H250.912C253.637 124.948 255.901 122.684 255.901 119.959C255.901 117.214 253.637 115.03 250.912 115.03Z"/><path fill="#FFF100" d="M212.141 120C212.141 127.654 218.372 133.885 226.026 133.885C233.68 133.885 239.911 127.654 239.911 120C239.911 112.346 233.68 106.115 226.026 106.115C218.372 106.115 212.141 112.346 212.141 120Z"/><path fill="#000" d="M298.4 128.73C297.342 128.73 296.422 128.523 295.64 128.109C294.873 127.695 294.275 127.12 293.846 126.384C293.417 125.633 293.202 124.759 293.202 123.762V116.448C293.202 115.436 293.409 114.562 293.823 113.826C294.252 113.09 294.858 112.515 295.64 112.101C296.422 111.687 297.342 111.48 298.4 111.48C299.473 111.48 300.393 111.687 301.16 112.101C301.942 112.515 302.54 113.09 302.954 113.826C303.383 114.562 303.598 115.436 303.598 116.448V123.762C303.598 124.759 303.383 125.633 302.954 126.384C302.525 127.12 301.919 127.695 301.137 128.109C300.37 128.523 299.458 128.73 298.4 128.73ZM298.4 126.591C299.259 126.591 299.941 126.33 300.447 125.809C300.968 125.288 301.229 124.605 301.229 123.762V116.448C301.229 115.605 300.968 114.922 300.447 114.401C299.941 113.88 299.259 113.619 298.4 113.619C297.541 113.619 296.851 113.88 296.33 114.401C295.824 114.922 295.571 115.605 295.571 116.448V123.762C295.571 124.605 295.824 125.288 296.33 125.809C296.851 126.33 297.541 126.591 298.4 126.591ZM298.4 121.531C297.971 121.531 297.618 121.393 297.342 121.117C297.081 120.841 296.951 120.481 296.951 120.036C296.951 119.607 297.081 119.262 297.342 119.001C297.618 118.725 297.971 118.587 298.4 118.587C298.829 118.587 299.174 118.725 299.435 119.001C299.711 119.262 299.849 119.607 299.849 120.036C299.849 120.481 299.711 120.841 299.435 121.117C299.174 121.393 298.829 121.531 298.4 121.531ZM312.191 128.73C311.578 128.73 311.087 128.554 310.719 128.201C310.351 127.833 310.167 127.342 310.167 126.729C310.167 126.1 310.351 125.602 310.719 125.234C311.087 124.851 311.578 124.659 312.191 124.659C312.82 124.659 313.31 124.851 313.663 125.234C314.031 125.602 314.215 126.1 314.215 126.729C314.215 127.342 314.031 127.833 313.663 128.201C313.31 128.554 312.82 128.73 312.191 128.73ZM325.982 128.73C324.909 128.73 323.981 128.546 323.199 128.178C322.417 127.81 321.811 127.289 321.382 126.614C320.953 125.924 320.738 125.127 320.738 124.222C320.738 123.21 321.014 122.344 321.566 121.623C322.118 120.902 322.969 120.274 324.119 119.737L326.534 118.61C327.147 118.319 327.623 117.935 327.96 117.46C328.297 116.969 328.466 116.433 328.466 115.85C328.466 115.16 328.244 114.616 327.799 114.217C327.354 113.818 326.749 113.619 325.982 113.619C325.215 113.619 324.602 113.826 324.142 114.24C323.697 114.639 323.475 115.183 323.475 115.873C323.475 116.44 323.644 116.969 323.981 117.46C324.318 117.935 324.778 118.311 325.361 118.587L327.776 119.691C328.987 120.258 329.861 120.91 330.398 121.646C330.95 122.367 331.226 123.225 331.226 124.222C331.226 125.602 330.751 126.698 329.8 127.511C328.865 128.324 327.592 128.73 325.982 128.73ZM325.982 126.568C326.841 126.568 327.523 126.346 328.029 125.901C328.535 125.441 328.788 124.843 328.788 124.107C328.788 123.509 328.619 122.957 328.282 122.451C327.945 121.93 327.477 121.523 326.879 121.232L324.395 120.059C323.26 119.522 322.417 118.909 321.865 118.219C321.313 117.529 321.037 116.701 321.037 115.735C321.037 114.892 321.236 114.148 321.635 113.504C322.049 112.86 322.624 112.362 323.36 112.009C324.096 111.641 324.97 111.457 325.982 111.457C326.994 111.457 327.868 111.641 328.604 112.009C329.34 112.362 329.907 112.86 330.306 113.504C330.705 114.148 330.904 114.892 330.904 115.735C330.904 116.716 330.628 117.544 330.076 118.219C329.539 118.894 328.696 119.515 327.546 120.082L325.039 121.255C324.456 121.531 323.996 121.922 323.659 122.428C323.337 122.934 323.176 123.478 323.176 124.061C323.176 124.812 323.429 125.418 323.935 125.878C324.441 126.338 325.123 126.568 325.982 126.568ZM339.773 128.73C339.16 128.73 338.669 128.554 338.301 128.201C337.933 127.833 337.749 127.342 337.749 126.729C337.749 126.1 337.933 125.602 338.301 125.234C338.669 124.851 339.16 124.659 339.773 124.659C340.402 124.659 340.892 124.851 341.245 125.234C341.613 125.602 341.797 126.1 341.797 126.729C341.797 127.342 341.613 127.833 341.245 128.201C340.892 128.554 340.402 128.73 339.773 128.73ZM353.564 128.73C352.506 128.73 351.586 128.523 350.804 128.109C350.037 127.695 349.439 127.12 349.01 126.384C348.581 125.633 348.366 124.759 348.366 123.762V116.448C348.366 115.436 348.573 114.562 348.987 113.826C349.416 113.09 350.022 112.515 350.804 112.101C351.586 111.687 352.506 111.48 353.564 111.48C354.637 111.48 355.557 111.687 356.324 112.101C357.106 112.515 357.704 113.09 358.118 113.826C358.547 114.562 358.762 115.436 358.762 116.448V123.762C358.762 124.759 358.547 125.633 358.118 126.384C357.689 127.12 357.083 127.695 356.301 128.109C355.534 128.523 354.622 128.73 353.564 128.73ZM353.564 126.591C354.423 126.591 355.105 126.33 355.611 125.809C356.132 125.288 356.393 124.605 356.393 123.762V116.448C356.393 115.605 356.132 114.922 355.611 114.401C355.105 113.88 354.423 113.619 353.564 113.619C352.705 113.619 352.015 113.88 351.494 114.401C350.988 114.922 350.735 115.605 350.735 116.448V123.762C350.735 124.605 350.988 125.288 351.494 125.809C352.015 126.33 352.705 126.591 353.564 126.591ZM353.564 121.531C353.135 121.531 352.782 121.393 352.506 121.117C352.245 120.841 352.115 120.481 352.115 120.036C352.115 119.607 352.245 119.262 352.506 119.001C352.782 118.725 353.135 118.587 353.564 118.587C353.993 118.587 354.338 118.725 354.599 119.001C354.875 119.262 355.013 119.607 355.013 120.036C355.013 120.481 354.875 120.841 354.599 121.117C354.338 121.393 353.993 121.531 353.564 121.531Z"/><defs><clipPath id="clip0_4739_623"><rect width="560" height="240" fill="#fff"/></clipPath></defs></svg>