<svg fill="none" height="630" viewBox="0 0 1200 630" width="1200" xmlns="http://www.w3.org/2000/svg" xmlns:xlink="http://www.w3.org/1999/xlink"><linearGradient id="a" gradientUnits="userSpaceOnUse" x1="589" x2="586.007" y1="-32.4175" y2="767.006"><stop offset="0" stop-color="#fff100"/><stop offset=".938633" stop-color="#fffa99"/></linearGradient><clipPath id="b"><path d="m0 0h1200v630h-1200z"/></clipPath><g clip-path="url(#b)"><path d="m0 0h1200v630h-1200z" fill="url(#a)"/><path d="m600 120 9.238-16h-18.476zm0-41.7562h-1.6v27.3562h1.6 1.6v-27.3562zm308.996-218.3148h-1.6v118.315h1.6 1.6v-118.315zm-50 168.315v-1.6l-208.996-.0002v1.6 1.6l208.996.0002zm50-50h-1.6c0 26.73059-21.669 48.4-48.4 48.4v1.6 1.6c28.498 0 51.6-23.10209 51.6-51.6zm-308.996 99.9998h1.6c0-26.7306 21.669-48.4 48.4-48.4v-1.6-1.6c-28.498 0-51.6 23.1021-51.6 51.6z" fill="#eddd0c"/><path d="m1440.63 401.884h-349.11c-27.61 0-50 22.386-50 50v220.286" stroke="#eddd0c" stroke-linecap="round" stroke-linejoin="round" stroke-width="3.2"/><path d="m426.605 643.123v-103.471c0-27.614-22.385-50-50-50l-159.609.001c-27.615 0-50.001-22.386-50.001-50v-83.936c0-27.614-22.385-50-50-50h-247.003" stroke="#eddd0c" stroke-width="3.2"/><g fill="#eddd0c"><path d="m806.225 93.52c-.616 0-1.12-.196-1.512-.588s-.588-.896-.588-1.512c0-.5973.196-1.092.588-1.484.411-.4107.915-.616 1.512-.616h.56c.598 0 1.092.2053 1.484.616.411.392.616.8867.616 1.484 0 .616-.196 1.12-.588 1.512s-.896.588-1.512.588zm-2.38 15.96 1.54-8.568h3.024l-1.96 8.568z"/><path d="m116.105 584.151v-5.46h-5.347v-2.24h5.347v-5.46h2.464v5.46h5.348v2.24h-5.348v5.46z"/><path d="m990.863 220.675c-.691 0-1.251-.206-1.68-.616-.411-.411-.616-.943-.616-1.596 0-.691.205-1.251.616-1.68.429-.43.989-.644 1.68-.644s1.241.214 1.652.644c.429.429.644.989.644 1.68 0 .653-.215 1.185-.644 1.596-.411.41-.961.616-1.652.616zm13.347-3.164-1.93-1.372 1.82-2.604c.24-.336.57-.747.98-1.232.43-.486.83-.915 1.2-1.288-.52-.075-1.07-.187-1.65-.336-.58-.15-1.04-.29-1.37-.42l-3-1.12.78-2.212 3.03 1.12c.32.112.74.289 1.26.532.52.242 1 .494 1.43.756-.1-.486-.17-.98-.23-1.484-.04-.523-.05-.962-.05-1.316v-3.5h2.35v3.5c0 .354-.03.793-.09 1.316-.05.504-.13.998-.22 1.484.45-.262.92-.514 1.43-.756.52-.243.95-.42 1.29-.532l3.02-1.12.78 2.212-2.99 1.12c-.34.13-.8.27-1.37.42-.58.149-1.13.261-1.66.336.38.373.78.812 1.21 1.316.43.485.75.886.98 1.204l1.82 2.604-1.93 1.372-1.82-2.632c-.23-.318-.5-.756-.82-1.316-.31-.56-.58-1.083-.81-1.568-.22.485-.49 1.008-.81 1.568-.32.541-.59.98-.81 1.316z"/></g></g><g fill="#fffdcc"><rect height="214.552" rx="10" stroke="#998b00" stroke-miterlimit="10" stroke-width="3.2" width="268.19" x="445" y="193"/><path d="m445 203c0-5.523 4.477-10 10-10h248.19c5.523 0 10 4.477 10 10v41.756h-268.19z" stroke="#998b00" stroke-miterlimit="10" stroke-width="3.2"/><path d="m467.691 225.159c4.217 0 7.635-3.408 7.635-7.611s-3.418-7.61-7.635-7.61c-4.218 0-7.636 3.407-7.636 7.61s3.418 7.611 7.636 7.611z" stroke="#998b00" stroke-miterlimit="10" stroke-width="3.2"/><path d="m490.671 225.159c4.217 0 7.636-3.408 7.636-7.611s-3.419-7.61-7.636-7.61-7.636 3.407-7.636 7.61 3.419 7.611 7.636 7.611z" stroke="#998b00" stroke-miterlimit="10" stroke-width="3.2"/><path d="m513.611 225.159c4.217 0 7.635-3.408 7.635-7.611s-3.418-7.61-7.635-7.61c-4.218 0-7.636 3.407-7.636 7.61s3.418 7.611 7.636 7.611z" stroke="#998b00" stroke-miterlimit="10" stroke-width="3.2"/></g><path d="m508.459 349.63c-3.163 0-5.915-.585-8.255-1.755-2.34-1.213-4.16-2.881-5.46-5.005-1.256-2.166-1.885-4.68-1.885-7.54v-20.15c0-2.86.629-5.351 1.885-7.475 1.3-2.166 3.12-3.835 5.46-5.005 2.34-1.213 5.092-1.82 8.255-1.82 3.207 0 5.959.607 8.255 1.82 2.34 1.17 4.139 2.839 5.395 5.005 1.3 2.124 1.95 4.615 1.95 7.475v20.15c0 2.86-.65 5.374-1.95 7.54-1.256 2.124-3.055 3.792-5.395 5.005-2.296 1.17-5.048 1.755-8.255 1.755zm-6.5-34.45v13.325l12.805-15.08c-.693-2.73-2.795-4.095-6.305-4.095-2.036 0-3.64.52-4.81 1.56-1.126 1.04-1.69 2.47-1.69 4.29zm6.5 26c2.037 0 3.619-.52 4.745-1.56 1.17-1.04 1.755-2.47 1.755-4.29v-13.325l-12.805 15.08c.347 1.3 1.062 2.319 2.145 3.055 1.084.694 2.47 1.04 4.16 1.04zm35.075 8.45c-1.95 0-3.532-.606-4.745-1.82-1.214-1.213-1.82-2.795-1.82-4.745s.606-3.531 1.82-4.745c1.213-1.213 2.795-1.82 4.745-1.82s3.531.607 4.745 1.82c1.213 1.214 1.82 2.795 1.82 4.745s-.607 3.532-1.82 4.745c-1.214 1.214-2.795 1.82-4.745 1.82zm24.414-.65 17.68-39h-13.065v7.8h-9.75v-16.25h33.345v8.385l-17.55 39.065zm45.735.65c-1.95 0-3.532-.606-4.745-1.82-1.213-1.213-1.82-2.795-1.82-4.745s.607-3.531 1.82-4.745c1.213-1.213 2.795-1.82 4.745-1.82s3.532.607 4.745 1.82c1.213 1.214 1.82 2.795 1.82 4.745s-.607 3.532-1.82 4.745c-1.213 1.214-2.795 1.82-4.745 1.82zm35.075 0c-3.164 0-5.915-.585-8.255-1.755-2.34-1.213-4.16-2.881-5.46-5.005-1.257-2.166-1.885-4.68-1.885-7.54v-20.15c0-2.86.628-5.351 1.885-7.475 1.3-2.166 3.12-3.835 5.46-5.005 2.34-1.213 5.091-1.82 8.255-1.82 3.206 0 5.958.607 8.255 1.82 2.34 1.17 4.138 2.839 5.395 5.005 1.3 2.124 1.95 4.615 1.95 7.475v20.15c0 2.86-.65 5.374-1.95 7.54-1.257 2.124-3.055 3.792-5.395 5.005-2.297 1.17-5.049 1.755-8.255 1.755zm-6.5-34.45v13.325l12.805-15.08c-.694-2.73-2.795-4.095-6.305-4.095-2.037 0-3.64.52-4.81 1.56-1.127 1.04-1.69 2.47-1.69 4.29zm6.5 26c2.036 0 3.618-.52 4.745-1.56 1.17-1.04 1.755-2.47 1.755-4.29v-13.325l-12.805 15.08c.346 1.3 1.061 2.319 2.145 3.055 1.083.694 2.47 1.04 4.16 1.04z" fill="#fff100"/><path d="m500.204 347.875-.736 1.421.01.005.011.006zm-5.46-5.005-1.384.803.01.017.01.016zm0-35.165-1.372-.823-.005.009zm5.46-5.005.716 1.432.01-.006.011-.005zm16.51 0-.747 1.415.016.009.016.008zm5.395 5.005-1.384.803.01.017.01.016zm0 35.165-1.372-.823-.005.009zm-5.395 5.005.726 1.426.011-.005zm-14.755-19.37h-1.6v4.357l2.82-3.321zm12.805-15.08 1.22 1.036.534-.629-.203-.8zm-11.115-2.535-1.063-1.195-.011.01-.011.01zm9.555 28.73-1.063-1.195-.011.01-.011.01zm1.755-17.615h1.6v-4.356l-2.819 3.321zm-12.805 15.08-1.219-1.035-.543.638.216.81zm2.145 3.055-.9 1.324.019.012.019.012zm4.16 9.49v-1.6c-2.966 0-5.463-.548-7.539-1.586l-.716 1.431-.715 1.432c2.604 1.302 5.61 1.923 8.97 1.923zm-8.255-1.755.737-1.42c-2.097-1.087-3.693-2.56-4.832-4.42l-1.365.835-1.364.836c1.461 2.387 3.505 4.251 6.088 5.59zm-5.46-5.005 1.384-.802c-1.096-1.89-1.669-4.119-1.669-6.738h-1.6-1.6c0 3.102.684 5.9 2.101 8.343zm-1.885-7.54h1.6v-20.15h-1.6-1.6v20.15zm0-20.15h1.6c0-2.619.573-4.82 1.662-6.66l-1.377-.815-1.377-.814c-1.424 2.407-2.108 5.189-2.108 8.289zm1.885-7.475 1.372.824c1.138-1.897 2.726-3.358 4.804-4.397l-.716-1.432-.715-1.431c-2.602 1.301-4.655 3.176-6.117 5.613zm5.46-5.005.737 1.421c2.071-1.074 4.56-1.641 7.518-1.641v-1.6-1.6c-3.369 0-6.382.647-8.991 2zm8.255-1.82v1.6c3.007 0 5.489.569 7.508 1.635l.747-1.415.748-1.414c-2.575-1.361-5.596-2.006-9.003-2.006zm8.255 1.82-.715 1.432c2.073 1.036 3.633 2.492 4.726 4.376l1.384-.803 1.384-.802c-1.42-2.45-3.457-4.33-6.063-5.634zm5.395 5.005-1.364.836c1.124 1.836 1.714 4.03 1.714 6.639h1.6 1.6c0-3.11-.71-5.9-2.185-8.31zm1.95 7.475h-1.6v20.15h1.6 1.6v-20.15zm0 20.15h-1.6c0 2.61-.59 4.831-1.722 6.717l1.372.823 1.372.824c1.468-2.447 2.178-5.253 2.178-8.364zm-1.95 7.54-1.377-.814c-1.093 1.847-2.661 3.314-4.754 4.399l.736 1.42.737 1.421c2.587-1.342 4.615-3.212 6.035-5.611zm-5.395 5.005-.726-1.425c-2.024 1.031-4.514 1.58-7.529 1.58v1.6 1.6c3.399 0 6.412-.62 8.981-1.929zm-14.755-32.695h-1.6v13.325h1.6 1.6v-13.325zm0 13.325 1.22 1.036 12.805-15.08-1.22-1.036-1.219-1.035-12.805 15.08zm12.805-15.08 1.551-.393c-.433-1.703-1.345-3.09-2.776-4.02-1.394-.905-3.134-1.282-5.08-1.282v1.6 1.6c1.565 0 2.63.307 3.337.766.671.436 1.157 1.096 1.417 2.123zm-6.305-4.095v-1.6c-2.308 0-4.331.594-5.873 1.965l1.063 1.195 1.063 1.196c.798-.709 1.982-1.156 3.747-1.156zm-4.81 1.56-1.085-1.175c-1.516 1.399-2.205 3.29-2.205 5.465h1.6 1.6c0-1.464.438-2.433 1.175-3.114zm4.81 30.29v1.6c2.304 0 4.322-.592 5.83-1.984l-1.085-1.176-1.085-1.175c-.745.687-1.89 1.135-3.66 1.135zm4.745-1.56 1.063 1.196c1.569-1.394 2.292-3.29 2.292-5.486h-1.6-1.6c0 1.445-.446 2.409-1.218 3.095zm1.755-4.29h1.6v-13.325h-1.6-1.6v13.325zm0-13.325-1.219-1.035-12.805 15.08 1.219 1.035 1.22 1.036 12.805-15.08zm-12.805 15.08-1.546.413c.443 1.66 1.381 3.006 2.791 3.966l.9-1.324.9-1.323c-.756-.514-1.248-1.204-1.499-2.144zm2.145 3.055-.862 1.348c1.41.903 3.121 1.292 5.022 1.292v-1.6-1.6c-1.478 0-2.541-.303-3.297-.787zm34.49 7.67-1.132 1.132zm0-9.49-1.132-1.131zm9.49 9.49 1.131 1.132zm-4.745 1.82v-1.6c-1.589 0-2.742-.479-3.614-1.351l-1.131 1.131-1.132 1.132c1.556 1.555 3.565 2.288 5.877 2.288zm-4.745-1.82 1.131-1.131c-.871-.871-1.351-2.025-1.351-3.614h-1.6-1.6c0 2.312.733 4.322 2.288 5.877zm-1.82-4.745h1.6c0-1.588.48-2.742 1.351-3.613l-1.131-1.132-1.132-1.131c-1.555 1.555-2.288 3.565-2.288 5.876zm1.82-4.745 1.131 1.132c.872-.872 2.025-1.352 3.614-1.352v-1.6-1.6c-2.312 0-4.321.734-5.877 2.289zm4.745-1.82v1.6c1.588 0 2.742.48 3.613 1.352l1.132-1.132 1.131-1.131c-1.555-1.555-3.565-2.289-5.876-2.289zm4.745 1.82-1.132 1.132c.872.871 1.352 2.025 1.352 3.613h1.6 1.6c0-2.311-.734-4.321-2.289-5.876zm1.82 4.745h-1.6c0 1.589-.48 2.743-1.352 3.614l1.132 1.131 1.131 1.132c1.555-1.555 2.289-3.565 2.289-5.877zm-1.82 4.745-1.132-1.131c-.871.872-2.025 1.351-3.613 1.351v1.6 1.6c2.311 0 4.321-.733 5.876-2.288zm19.669 1.17-1.457-.66-1.025 2.26h2.482zm17.68-39 1.458.661 1.024-2.261h-2.482zm-13.065 0v-1.6h-1.6v1.6zm0 7.8v1.6h1.6v-1.6zm-9.75 0h-1.6v1.6h1.6zm0-16.25v-1.6h-1.6v1.6zm33.345 0h1.6v-1.6h-1.6zm0 8.385 1.46.656.14-.313v-.343zm-17.55 39.065v1.6h1.036l.424-.944zm-10.66 0 1.458.661 17.68-39-1.458-.661-1.457-.66-17.68 39zm17.68-39v-1.6h-13.065v1.6 1.6h13.065zm-13.065 0h-1.6v7.8h1.6 1.6v-7.8zm0 7.8v-1.6h-9.75v1.6 1.6h9.75zm-9.75 0h1.6v-16.25h-1.6-1.6v16.25zm0-16.25v1.6h33.345v-1.6-1.6h-33.345zm33.345 0h-1.6v8.385h1.6 1.6v-8.385zm0 8.385-1.459-.655-17.55 39.065 1.459.655 1.46.656 17.55-39.065zm-17.55 39.065v-1.6h-10.66v1.6 1.6h10.66zm30.33-1.17-1.131 1.132zm0-9.49-1.131-1.131zm9.49 9.49 1.131 1.132zm-4.745 1.82v-1.6c-1.589 0-2.742-.479-3.614-1.351l-1.131 1.131-1.131 1.132c1.555 1.555 3.565 2.288 5.876 2.288zm-4.745-1.82 1.131-1.131c-.871-.871-1.351-2.025-1.351-3.614h-1.6-1.6c0 2.312.733 4.322 2.289 5.877zm-1.82-4.745h1.6c0-1.588.48-2.742 1.351-3.613l-1.131-1.132-1.131-1.131c-1.556 1.555-2.289 3.565-2.289 5.876zm1.82-4.745 1.131 1.132c.872-.872 2.025-1.352 3.614-1.352v-1.6-1.6c-2.311 0-4.321.734-5.876 2.289zm4.745-1.82v1.6c1.589 0 2.742.48 3.614 1.352l1.131-1.132 1.131-1.131c-1.555-1.555-3.565-2.289-5.876-2.289zm4.745 1.82-1.131 1.132c.871.871 1.351 2.025 1.351 3.613h1.6 1.6c0-2.311-.733-4.321-2.289-5.876zm1.82 4.745h-1.6c0 1.589-.48 2.743-1.351 3.614l1.131 1.131 1.131 1.132c1.556-1.555 2.289-3.565 2.289-5.877zm-1.82 4.745-1.131-1.131c-.872.872-2.025 1.351-3.614 1.351v1.6 1.6c2.311 0 4.321-.733 5.876-2.288zm22.075.065-.737 1.421.011.005.01.006zm-5.46-5.005-1.384.803.009.017.01.016zm0-35.165-1.372-.823-.005.009zm5.46-5.005.715 1.432.011-.006.01-.005zm16.51 0-.748 1.415.016.009.016.008zm5.395 5.005-1.384.803.009.017.01.016zm0 35.165-1.372-.823-.005.009zm-5.395 5.005.726 1.426.01-.005zm-14.755-19.37h-1.6v4.357l2.819-3.321zm12.805-15.08 1.219 1.036.535-.629-.204-.8zm-11.115-2.535-1.063-1.195-.012.01-.011.01zm9.555 28.73-1.063-1.195-.012.01-.011.01zm1.755-17.615h1.6v-4.356l-2.82 3.321zm-12.805 15.08-1.22-1.035-.542.638.216.81zm2.145 3.055-.9 1.324.018.012.019.012zm4.16 9.49v-1.6c-2.967 0-5.464-.548-7.54-1.586l-.715 1.431-.716 1.432c2.604 1.302 5.61 1.923 8.971 1.923zm-8.255-1.755.736-1.42c-2.097-1.087-3.693-2.56-4.832-4.42l-1.364.835-1.365.836c1.461 2.387 3.505 4.251 6.088 5.59zm-5.46-5.005 1.384-.802c-1.096-1.89-1.669-4.119-1.669-6.738h-1.6-1.6c0 3.102.683 5.9 2.101 8.343zm-1.885-7.54h1.6v-20.15h-1.6-1.6v20.15zm0-20.15h1.6c0-2.619.573-4.82 1.662-6.66l-1.377-.815-1.377-.814c-1.425 2.407-2.108 5.189-2.108 8.289zm1.885-7.475 1.372.824c1.137-1.897 2.725-3.358 4.803-4.397l-.715-1.432-.716-1.431c-2.602 1.301-4.654 3.176-6.116 5.613zm5.46-5.005.736 1.421c2.071-1.074 4.561-1.641 7.519-1.641v-1.6-1.6c-3.369 0-6.383.647-8.992 2zm8.255-1.82v1.6c3.006 0 5.489.569 7.507 1.635l.748-1.415.747-1.414c-2.575-1.361-5.595-2.006-9.002-2.006zm8.255 1.82-.716 1.432c2.074 1.036 3.634 2.492 4.727 4.376l1.384-.803 1.384-.802c-1.421-2.45-3.458-4.33-6.064-5.634zm5.395 5.005-1.365.836c1.124 1.836 1.715 4.03 1.715 6.639h1.6 1.6c0-3.11-.71-5.9-2.186-8.31zm1.95 7.475h-1.6v20.15h1.6 1.6v-20.15zm0 20.15h-1.6c0 2.61-.59 4.831-1.722 6.717l1.372.823 1.372.824c1.468-2.447 2.178-5.253 2.178-8.364zm-1.95 7.54-1.377-.814c-1.094 1.847-2.662 3.314-4.755 4.399l.737 1.42.736 1.421c2.587-1.342 4.616-3.212 6.036-5.611zm-5.395 5.005-.727-1.425c-2.023 1.031-4.514 1.58-7.528 1.58v1.6 1.6c3.398 0 6.411-.62 8.981-1.929zm-14.755-32.695h-1.6v13.325h1.6 1.6v-13.325zm0 13.325 1.219 1.036 12.805-15.08-1.219-1.036-1.22-1.035-12.805 15.08zm12.805-15.08 1.55-.393c-.432-1.703-1.344-3.09-2.775-4.02-1.395-.905-3.135-1.282-5.08-1.282v1.6 1.6c1.564 0 2.63.307 3.337.766.67.436 1.156 1.096 1.417 2.123zm-6.305-4.095v-1.6c-2.308 0-4.331.594-5.873 1.965l1.063 1.195 1.063 1.196c.798-.709 1.981-1.156 3.747-1.156zm-4.81 1.56-1.086-1.175c-1.516 1.399-2.204 3.29-2.204 5.465h1.6 1.6c0-1.464.438-2.433 1.175-3.114zm4.81 30.29v1.6c2.304 0 4.322-.592 5.83-1.984l-1.085-1.176-1.086-1.175c-.745.687-1.89 1.135-3.659 1.135zm4.745-1.56 1.063 1.196c1.568-1.394 2.292-3.29 2.292-5.486h-1.6-1.6c0 1.445-.447 2.409-1.218 3.095zm1.755-4.29h1.6v-13.325h-1.6-1.6v13.325zm0-13.325-1.22-1.035-12.805 15.08 1.22 1.035 1.219 1.036 12.805-15.08zm-12.805 15.08-1.546.413c.442 1.66 1.38 3.006 2.791 3.966l.9-1.324.899-1.323c-.756-.514-1.248-1.204-1.498-2.144zm2.145 3.055-.863 1.348c1.41.903 3.121 1.292 5.023 1.292v-1.6-1.6c-1.479 0-2.541-.303-3.298-.787z" fill="#998b00"/><path d="m702.594 445.544c-26.631 0-48.137-21.507-48.137-48.137 0-26.631 21.506-48.137 48.137-48.137s48.137 21.506 48.137 48.137c0 26.63-21.506 48.137-48.137 48.137z" fill="#fffdcc" stroke="#998b00" stroke-linecap="round" stroke-miterlimit="10" stroke-width="3.2"/><path d="m728.336 390.275h-9.443v14.251h9.443c3.915 0 7.168-3.253 7.168-7.168 0-3.944-3.253-7.083-7.168-7.083z" fill="#fff100" stroke="#998b00" stroke-linecap="round" stroke-miterlimit="10" stroke-width="3.2"/><path d="m672.623 397.54c0 11.067 8.954 20.077 19.952 20.077 10.997 0 19.951-9.01 19.951-20.077s-8.954-20.077-19.951-20.077c-10.998 0-19.952 9.01-19.952 20.077z" fill="#fff100" stroke="#998b00" stroke-linecap="round" stroke-miterlimit="10" stroke-width="3.2"/></svg>