<svg width="1200" height="627" viewBox="0 0 1200 627" fill="none" xmlns="http://www.w3.org/2000/svg">
<g clip-path="url(#clip0_10434_48003)">
<rect width="1200" height="627" fill="url(#paint0_linear_10434_48003)"/>
<path d="M814.496 -335.002C814.496 -335.828 813.826 -336.498 812.999 -336.498C812.173 -336.498 811.503 -335.828 811.503 -335.002L812.999 -335.002L814.496 -335.002ZM811.942 153.556C812.526 154.14 813.474 154.14 814.058 153.556L823.58 144.034C824.165 143.449 824.165 142.502 823.58 141.918C822.996 141.333 822.049 141.333 821.464 141.918L813 150.382L804.536 141.918C803.951 141.333 803.004 141.333 802.42 141.918C801.835 142.502 801.835 143.449 802.42 144.034L811.942 153.556ZM812.999 -335.002L811.503 -335.002L811.504 152.498L813 152.498L814.496 152.498L814.496 -335.002L812.999 -335.002Z" fill="#F0DF09"/>
<path d="M534.999 -369.767L619.612 -369.767C655.51 -369.767 684.612 -340.666 684.612 -304.767L684.612 31.2473C684.612 67.1458 713.713 96.2473 749.612 96.2473L875.997 96.2473C911.895 96.2473 940.997 125.349 940.997 161.247L940.997 304.372C940.997 340.271 970.098 369.372 1006 369.372L1208 369.372" stroke="#F0DF09" stroke-width="2.9926"/>
<path d="M603 853.999L782.688 853.999C818.586 853.999 847.688 824.897 847.688 788.999L847.688 600.499C847.688 564.6 876.789 535.499 912.688 535.499L985 535.499C1020.9 535.499 1050 506.397 1050 470.499L1050 -44.0015" stroke="#F0DF09" stroke-width="2.9926"/>
<path d="M371.998 735.499L371.998 585.31C371.998 549.411 342.896 520.31 306.998 520.31L165.998 520.31C130.1 520.31 100.998 491.209 100.998 455.31L100.998 254.061C100.998 218.162 130.1 189.061 165.998 189.061L483.242 189.061C519.14 189.061 548.242 159.959 548.242 124.061L548.242 -269.001C548.242 -304.9 577.343 -334.001 613.242 -334.001L792.998 -334.001" stroke="#F0DF09" stroke-width="2.9926"/>
<rect x="1036.96" y="45.9595" width="25.0762" height="50.0762" rx="12.5381" fill="#D4C50B" stroke="#F0DF09" stroke-width="1.92382"/>
<rect x="62.9619" y="445.96" width="16.0762" height="38.0762" rx="8.0381" fill="#D4C50B" stroke="#F0DF09" stroke-width="1.92382"/>
<path d="M347.851 89.2076L347.515 85.0076V80.8076H350.231V85.0076L349.923 89.2076H347.851ZM365.928 101.528C364.696 101.528 363.623 101.294 362.708 100.828C361.812 100.361 361.112 99.6889 360.608 98.8116C360.123 97.9156 359.88 96.8609 359.88 95.6476V86.4076C359.88 85.1756 360.123 84.1209 360.608 83.2436C361.112 82.3662 361.812 81.6942 362.708 81.2276C363.623 80.7609 364.696 80.5276 365.928 80.5276C367.16 80.5276 368.224 80.7702 369.12 81.2556C370.016 81.7222 370.707 82.3942 371.192 83.2716C371.677 84.1489 371.92 85.1942 371.92 86.4076H369.4C369.4 85.2502 369.092 84.3636 368.476 83.7476C367.879 83.1129 367.029 82.7956 365.928 82.7956C364.827 82.7956 363.959 83.1036 363.324 83.7196C362.708 84.3356 362.4 85.2222 362.4 86.3796V95.6476C362.4 96.8049 362.708 97.7009 363.324 98.3356C363.959 98.9516 364.827 99.2596 365.928 99.2596C367.029 99.2596 367.879 98.9516 368.476 98.3356C369.092 97.7009 369.4 96.8049 369.4 95.6476H371.92C371.92 96.8422 371.677 97.8876 371.192 98.7836C370.707 99.6609 370.016 100.342 369.12 100.828C368.224 101.294 367.16 101.528 365.928 101.528ZM381.345 101.248V83.0756H375.745V80.7796H389.465V83.0756H383.865V101.248H381.345ZM393.57 101.248V80.8076H399.898C401.111 80.8076 402.175 81.0596 403.09 81.5636C404.005 82.0489 404.714 82.7302 405.218 83.6076C405.722 84.4849 405.974 85.5116 405.974 86.6876C405.974 88.0689 405.61 89.2542 404.882 90.2436C404.173 91.2329 403.202 91.9142 401.97 92.2876L406.254 101.248H403.286L399.366 92.5676H396.09V101.248H393.57ZM396.09 90.2996H399.898C400.943 90.2996 401.783 89.9729 402.418 89.3196C403.053 88.6476 403.37 87.7702 403.37 86.6876C403.37 85.5862 403.053 84.7089 402.418 84.0556C401.783 83.4022 400.943 83.0756 399.898 83.0756H396.09V90.2996ZM415.007 89.2076L414.671 85.0076V80.8076H417.387V85.0076L417.079 89.2076H415.007Z" fill="#F3E223"/>
<path d="M693.275 210.623L698.595 190.183H701.983L707.275 210.623H704.727L703.383 205.191H697.195L695.851 210.623H693.275ZM697.699 203.063H702.851L701.283 196.763C700.984 195.568 700.751 194.57 700.583 193.767C700.415 192.964 700.312 192.442 700.275 192.199C700.238 192.442 700.135 192.964 699.967 193.767C699.799 194.57 699.566 195.559 699.267 196.735L697.699 203.063ZM715.804 210.623V192.451H710.204V190.155H723.924V192.451H718.324V210.623H715.804ZM732.593 210.623V192.451H726.993V190.155H740.713V192.451H735.113V210.623H732.593ZM743.642 210.623L748.962 190.183H752.35L757.642 210.623H755.094L753.75 205.191H747.562L746.218 210.623H743.642ZM748.066 203.063H753.218L751.65 196.763C751.352 195.568 751.118 194.57 750.95 193.767C750.782 192.964 750.68 192.442 750.642 192.199C750.605 192.442 750.502 192.964 750.334 193.767C750.166 194.57 749.933 195.559 749.634 196.735L748.066 203.063ZM767.543 210.903C766.311 210.903 765.238 210.67 764.323 210.203C763.427 209.736 762.727 209.064 762.223 208.187C761.738 207.291 761.495 206.236 761.495 205.023V195.783C761.495 194.551 761.738 193.496 762.223 192.619C762.727 191.742 763.427 191.07 764.323 190.603C765.238 190.136 766.311 189.903 767.543 189.903C768.775 189.903 769.839 190.146 770.735 190.631C771.631 191.098 772.322 191.77 772.807 192.647C773.293 193.524 773.535 194.57 773.535 195.783H771.015C771.015 194.626 770.707 193.739 770.091 193.123C769.494 192.488 768.645 192.171 767.543 192.171C766.442 192.171 765.574 192.479 764.939 193.095C764.323 193.711 764.015 194.598 764.015 195.755V205.023C764.015 206.18 764.323 207.076 764.939 207.711C765.574 208.327 766.442 208.635 767.543 208.635C768.645 208.635 769.494 208.327 770.091 207.711C770.707 207.076 771.015 206.18 771.015 205.023H773.535C773.535 206.218 773.293 207.263 772.807 208.159C772.322 209.036 771.631 209.718 770.735 210.203C769.839 210.67 768.775 210.903 767.543 210.903ZM778.424 210.623V190.183H780.944V198.919H787.496V190.183H790.016V210.623H787.496V201.215H780.944V210.623H778.424Z" fill="#F3E223"/>
<path d="M483.318 570.278C481.788 570.278 480.546 569.764 479.594 568.738C478.661 567.711 478.194 566.32 478.194 564.566V560.058C478.194 558.284 478.661 556.884 479.594 555.858C480.528 554.831 481.769 554.318 483.318 554.318C484.588 554.318 485.605 554.663 486.37 555.354C487.136 556.044 487.518 556.968 487.518 558.126L487.014 557.538H487.574L487.518 554.038V549.558H490.038V569.998H487.518V567.058H487.014L487.518 566.47C487.518 567.646 487.136 568.579 486.37 569.27C485.605 569.942 484.588 570.278 483.318 570.278ZM484.158 568.094C485.204 568.094 486.025 567.767 486.622 567.114C487.22 566.46 487.518 565.555 487.518 564.398V560.198C487.518 559.04 487.22 558.135 486.622 557.482C486.025 556.828 485.204 556.502 484.158 556.502C483.094 556.502 482.254 556.819 481.638 557.454C481.022 558.088 480.714 559.003 480.714 560.198V564.398C480.714 565.592 481.022 566.507 481.638 567.142C482.254 567.776 483.094 568.094 484.158 568.094ZM500.976 570.278C499.202 570.278 497.784 569.755 496.72 568.71C495.656 567.646 495.124 566.208 495.124 564.398V554.598H497.644V564.398C497.644 565.555 497.942 566.46 498.54 567.114C499.137 567.748 499.949 568.066 500.976 568.066C502.021 568.066 502.842 567.748 503.44 567.114C504.056 566.46 504.364 565.555 504.364 564.398V554.598H506.884V564.398C506.884 566.208 506.342 567.646 505.26 568.71C504.177 569.755 502.749 570.278 500.976 570.278ZM517.905 570.278C516.673 570.278 515.59 570.044 514.657 569.578C513.742 569.111 513.033 568.439 512.529 567.562C512.025 566.666 511.773 565.611 511.773 564.398V560.198C511.773 558.966 512.025 557.911 512.529 557.034C513.033 556.156 513.742 555.484 514.657 555.018C515.59 554.551 516.673 554.318 517.905 554.318C519.678 554.318 521.106 554.794 522.189 555.746C523.271 556.698 523.841 557.995 523.897 559.638H521.377C521.321 558.648 520.985 557.892 520.369 557.37C519.771 556.828 518.95 556.558 517.905 556.558C516.803 556.558 515.926 556.875 515.273 557.51C514.619 558.126 514.293 559.012 514.293 560.17V564.398C514.293 565.555 514.619 566.451 515.273 567.086C515.926 567.72 516.803 568.038 517.905 568.038C518.95 568.038 519.771 567.767 520.369 567.226C520.985 566.684 521.321 565.928 521.377 564.958H523.897C523.841 566.6 523.271 567.898 522.189 568.85C521.106 569.802 519.678 570.278 517.905 570.278ZM528.842 569.998V549.558H531.362V560.954H534.33L538.81 554.598H541.694L536.514 561.934L541.778 569.998H538.838L534.358 563.138H531.362V569.998H528.842ZM550.475 570.278C548.944 570.278 547.703 569.764 546.751 568.738C545.817 567.711 545.351 566.32 545.351 564.566V560.058C545.351 558.284 545.817 556.884 546.751 555.858C547.684 554.831 548.925 554.318 550.475 554.318C551.744 554.318 552.761 554.663 553.527 555.354C554.292 556.044 554.675 556.968 554.675 558.126L554.171 557.538H554.731L554.675 554.038V549.558H557.195V569.998H554.675V567.058H554.171L554.675 566.47C554.675 567.646 554.292 568.579 553.527 569.27C552.761 569.942 551.744 570.278 550.475 570.278ZM551.315 568.094C552.36 568.094 553.181 567.767 553.779 567.114C554.376 566.46 554.675 565.555 554.675 564.398V560.198C554.675 559.04 554.376 558.135 553.779 557.482C553.181 556.828 552.36 556.502 551.315 556.502C550.251 556.502 549.411 556.819 548.795 557.454C548.179 558.088 547.871 559.003 547.871 560.198V564.398C547.871 565.592 548.179 566.507 548.795 567.142C549.411 567.776 550.251 568.094 551.315 568.094ZM569.056 570.278C567.786 570.278 566.769 569.942 566.004 569.27C565.238 568.579 564.856 567.646 564.856 566.47L565.36 567.058H564.856V569.998H562.336V549.558H564.856V554.038L564.8 557.538H565.36L564.856 558.126C564.856 556.968 565.238 556.044 566.004 555.354C566.788 554.663 567.805 554.318 569.056 554.318C570.605 554.318 571.846 554.831 572.78 555.858C573.713 556.884 574.18 558.284 574.18 560.058V564.566C574.18 566.32 573.713 567.711 572.78 568.738C571.846 569.764 570.605 570.278 569.056 570.278ZM568.216 568.094C569.28 568.094 570.12 567.776 570.736 567.142C571.352 566.507 571.66 565.592 571.66 564.398V560.198C571.66 559.003 571.352 558.088 570.736 557.454C570.12 556.819 569.28 556.502 568.216 556.502C567.189 556.502 566.368 556.828 565.752 557.482C565.154 558.135 564.856 559.04 564.856 560.198V564.398C564.856 565.555 565.154 566.46 565.752 567.114C566.368 567.767 567.189 568.094 568.216 568.094ZM578.229 572.798V570.698H591.669V572.798H578.229ZM600.842 570.278C599.311 570.278 598.07 569.764 597.118 568.738C596.185 567.711 595.718 566.32 595.718 564.566V560.058C595.718 558.284 596.185 556.884 597.118 555.858C598.051 554.831 599.293 554.318 600.842 554.318C602.111 554.318 603.129 554.663 603.894 555.354C604.659 556.044 605.042 556.968 605.042 558.126L604.538 557.538H605.098L605.042 554.038V549.558H607.562V569.998H605.042V567.058H604.538L605.042 566.47C605.042 567.646 604.659 568.579 603.894 569.27C603.129 569.942 602.111 570.278 600.842 570.278ZM601.682 568.094C602.727 568.094 603.549 567.767 604.146 567.114C604.743 566.46 605.042 565.555 605.042 564.398V560.198C605.042 559.04 604.743 558.135 604.146 557.482C603.549 556.828 602.727 556.502 601.682 556.502C600.618 556.502 599.778 556.819 599.162 557.454C598.546 558.088 598.238 559.003 598.238 560.198V564.398C598.238 565.592 598.546 566.507 599.162 567.142C599.778 567.776 600.618 568.094 601.682 568.094ZM617.183 570.278C615.559 570.278 614.28 569.867 613.347 569.046C612.414 568.206 611.947 567.076 611.947 565.658C611.947 564.22 612.414 563.091 613.347 562.27C614.28 561.448 615.54 561.038 617.127 561.038H621.887V559.498C621.887 558.546 621.598 557.818 621.019 557.314C620.459 556.791 619.656 556.53 618.611 556.53C617.696 556.53 616.931 556.726 616.315 557.118C615.699 557.491 615.344 558.004 615.251 558.658H612.731C612.899 557.332 613.524 556.278 614.607 555.494C615.69 554.71 617.043 554.318 618.667 554.318C620.44 554.318 621.84 554.775 622.867 555.69C623.894 556.604 624.407 557.846 624.407 559.414V569.998H621.943V567.058H621.523L621.943 566.638C621.943 567.758 621.504 568.644 620.627 569.298C619.768 569.951 618.62 570.278 617.183 570.278ZM617.799 568.29C618.994 568.29 619.974 567.991 620.739 567.394C621.504 566.796 621.887 566.031 621.887 565.098V562.914H617.183C616.343 562.914 615.68 563.147 615.195 563.614C614.71 564.08 614.467 564.715 614.467 565.518C614.467 566.376 614.756 567.058 615.335 567.562C615.932 568.047 616.754 568.29 617.799 568.29ZM636.996 569.998C635.671 569.998 634.635 569.643 633.888 568.934C633.16 568.224 632.796 567.226 632.796 565.938V556.894H628.456V554.598H632.796V550.258H635.316V554.598H641.476V556.894H635.316V565.938C635.316 567.114 635.876 567.702 636.996 567.702H641.196V569.998H636.996ZM650.761 570.278C649.137 570.278 647.858 569.867 646.925 569.046C645.992 568.206 645.525 567.076 645.525 565.658C645.525 564.22 645.992 563.091 646.925 562.27C647.858 561.448 649.118 561.038 650.705 561.038H655.465V559.498C655.465 558.546 655.176 557.818 654.597 557.314C654.037 556.791 653.234 556.53 652.189 556.53C651.274 556.53 650.509 556.726 649.893 557.118C649.277 557.491 648.922 558.004 648.829 558.658H646.309C646.477 557.332 647.102 556.278 648.185 555.494C649.268 554.71 650.621 554.318 652.245 554.318C654.018 554.318 655.418 554.775 656.445 555.69C657.472 556.604 657.985 557.846 657.985 559.414V569.998H655.521V567.058H655.101L655.521 566.638C655.521 567.758 655.082 568.644 654.205 569.298C653.346 569.951 652.198 570.278 650.761 570.278ZM651.377 568.29C652.572 568.29 653.552 567.991 654.317 567.394C655.082 566.796 655.465 566.031 655.465 565.098V562.914H650.761C649.921 562.914 649.258 563.147 648.773 563.614C648.288 564.08 648.045 564.715 648.045 565.518C648.045 566.376 648.334 567.058 648.913 567.562C649.51 568.047 650.332 568.29 651.377 568.29ZM669.79 570.278C668.521 570.278 667.503 569.942 666.738 569.27C665.973 568.579 665.59 567.646 665.59 566.47L666.094 567.058H665.59V569.998H663.07V549.558H665.59V554.038L665.534 557.538H666.094L665.59 558.126C665.59 556.968 665.973 556.044 666.738 555.354C667.522 554.663 668.539 554.318 669.79 554.318C671.339 554.318 672.581 554.831 673.514 555.858C674.447 556.884 674.914 558.284 674.914 560.058V564.566C674.914 566.32 674.447 567.711 673.514 568.738C672.581 569.764 671.339 570.278 669.79 570.278ZM668.95 568.094C670.014 568.094 670.854 567.776 671.47 567.142C672.086 566.507 672.394 565.592 672.394 564.398V560.198C672.394 559.003 672.086 558.088 671.47 557.454C670.854 556.819 670.014 556.502 668.95 556.502C667.923 556.502 667.102 556.828 666.486 557.482C665.889 558.135 665.59 559.04 665.59 560.198V564.398C665.59 565.555 665.889 566.46 666.486 567.114C667.102 567.767 667.923 568.094 668.95 568.094ZM684.339 570.278C682.715 570.278 681.437 569.867 680.503 569.046C679.57 568.206 679.103 567.076 679.103 565.658C679.103 564.22 679.57 563.091 680.503 562.27C681.437 561.448 682.697 561.038 684.283 561.038H689.043V559.498C689.043 558.546 688.754 557.818 688.175 557.314C687.615 556.791 686.813 556.53 685.767 556.53C684.853 556.53 684.087 556.726 683.471 557.118C682.855 557.491 682.501 558.004 682.407 558.658H679.887C680.055 557.332 680.681 556.278 681.763 555.494C682.846 554.71 684.199 554.318 685.823 554.318C687.597 554.318 688.997 554.775 690.023 555.69C691.05 556.604 691.563 557.846 691.563 559.414V569.998H689.099V567.058H688.679L689.099 566.638C689.099 567.758 688.661 568.644 687.783 569.298C686.925 569.951 685.777 570.278 684.339 570.278ZM684.955 568.29C686.15 568.29 687.13 567.991 687.895 567.394C688.661 566.796 689.043 566.031 689.043 565.098V562.914H684.339C683.499 562.914 682.837 563.147 682.351 563.614C681.866 564.08 681.623 564.715 681.623 565.518C681.623 566.376 681.913 567.058 682.491 567.562C683.089 568.047 683.91 568.29 684.955 568.29ZM701.996 570.222C700.951 570.222 700.036 570.063 699.252 569.746C698.487 569.41 697.871 568.943 697.404 568.346C696.956 567.748 696.686 567.039 696.592 566.218H699.112C699.224 566.759 699.523 567.188 700.008 567.506C700.512 567.823 701.175 567.982 701.996 567.982H703.172C704.162 567.982 704.899 567.786 705.384 567.394C705.87 566.983 706.112 566.442 706.112 565.77C706.112 565.116 705.888 564.603 705.44 564.23C705.011 563.838 704.367 563.576 703.508 563.446L701.436 563.11C699.924 562.848 698.795 562.382 698.048 561.71C697.32 561.019 696.956 560.02 696.956 558.714C696.956 557.332 697.395 556.268 698.272 555.522C699.15 554.756 700.466 554.374 702.22 554.374H703.284C704.759 554.374 705.944 554.719 706.84 555.41C707.736 556.1 708.278 557.034 708.464 558.21H705.944C705.832 557.724 705.552 557.342 705.104 557.062C704.656 556.763 704.05 556.614 703.284 556.614H702.22C701.268 556.614 700.568 556.791 700.12 557.146C699.691 557.5 699.476 558.032 699.476 558.742C699.476 559.376 699.663 559.843 700.036 560.142C700.41 560.44 700.998 560.655 701.8 560.786L703.872 561.122C705.534 561.383 706.738 561.868 707.484 562.578C708.25 563.287 708.632 564.314 708.632 565.658C708.632 567.076 708.175 568.196 707.26 569.018C706.364 569.82 705.002 570.222 703.172 570.222H701.996ZM719.261 570.278C718.048 570.278 716.984 570.035 716.069 569.55C715.173 569.064 714.473 568.383 713.969 567.506C713.484 566.61 713.241 565.574 713.241 564.398V560.198C713.241 559.003 713.484 557.967 713.969 557.09C714.473 556.212 715.173 555.531 716.069 555.046C716.984 554.56 718.048 554.318 719.261 554.318C720.475 554.318 721.529 554.56 722.425 555.046C723.34 555.531 724.04 556.212 724.525 557.09C725.029 557.967 725.281 559.003 725.281 560.198V562.914H715.705V564.398C715.705 565.611 716.013 566.544 716.629 567.198C717.245 567.832 718.123 568.15 719.261 568.15C720.232 568.15 721.016 567.982 721.613 567.646C722.211 567.291 722.575 566.768 722.705 566.078H725.225C725.057 567.366 724.423 568.392 723.321 569.158C722.239 569.904 720.885 570.278 719.261 570.278ZM722.817 561.234V560.198C722.817 558.984 722.509 558.051 721.893 557.398C721.296 556.744 720.419 556.418 719.261 556.418C718.123 556.418 717.245 556.744 716.629 557.398C716.013 558.051 715.705 558.984 715.705 560.198V561.01H723.013L722.817 561.234ZM735.574 570.222C734.529 570.222 733.614 570.063 732.83 569.746C732.065 569.41 731.449 568.943 730.982 568.346C730.534 567.748 730.264 567.039 730.17 566.218H732.69C732.802 566.759 733.101 567.188 733.586 567.506C734.09 567.823 734.753 567.982 735.574 567.982H736.75C737.74 567.982 738.477 567.786 738.962 567.394C739.448 566.983 739.69 566.442 739.69 565.77C739.69 565.116 739.466 564.603 739.018 564.23C738.589 563.838 737.945 563.576 737.086 563.446L735.014 563.11C733.502 562.848 732.373 562.382 731.626 561.71C730.898 561.019 730.534 560.02 730.534 558.714C730.534 557.332 730.973 556.268 731.85 555.522C732.728 554.756 734.044 554.374 735.798 554.374H736.862C738.337 554.374 739.522 554.719 740.418 555.41C741.314 556.1 741.856 557.034 742.042 558.21H739.522C739.41 557.724 739.13 557.342 738.682 557.062C738.234 556.763 737.628 556.614 736.862 556.614H735.798C734.846 556.614 734.146 556.791 733.698 557.146C733.269 557.5 733.054 558.032 733.054 558.742C733.054 559.376 733.241 559.843 733.614 560.142C733.988 560.44 734.576 560.655 735.378 560.786L737.45 561.122C739.112 561.383 740.316 561.868 741.062 562.578C741.828 563.287 742.21 564.314 742.21 565.658C742.21 567.076 741.753 568.196 740.838 569.018C739.942 569.82 738.58 570.222 736.75 570.222H735.574Z" fill="#F3E223"/>
<path d="M183.582 363.358C180.931 362.704 178.869 361.416 177.394 359.494C175.919 357.571 175.182 355.219 175.182 352.438V347.398C175.182 345.568 175.518 343.916 176.19 342.442C176.881 340.948 177.851 339.688 179.102 338.662C180.371 337.635 181.865 336.907 183.582 336.478V338.858C182.387 339.138 181.351 339.679 180.474 340.482C179.597 341.266 178.915 342.246 178.43 343.422C177.945 344.598 177.702 345.923 177.702 347.398V352.438C177.702 353.875 177.935 355.182 178.402 356.358C178.887 357.534 179.569 358.514 180.446 359.298C181.342 360.063 182.387 360.586 183.582 360.866V363.358ZM190.011 363.358V360.866C191.224 360.586 192.27 360.063 193.147 359.298C194.024 358.514 194.696 357.534 195.163 356.358C195.648 355.182 195.891 353.875 195.891 352.438V347.398C195.891 345.923 195.648 344.598 195.163 343.422C194.678 342.246 193.996 341.266 193.119 340.482C192.242 339.679 191.206 339.138 190.011 338.858V336.478C191.747 336.907 193.24 337.635 194.491 338.662C195.742 339.688 196.703 340.948 197.375 342.442C198.066 343.916 198.411 345.568 198.411 347.398V352.438C198.411 355.219 197.674 357.571 196.199 359.494C194.724 361.416 192.662 362.704 190.011 363.358ZM208.34 364.478L210.58 355.77H214.22L210.58 364.478H208.34ZM211.7 348.518C211.084 348.518 210.58 348.322 210.188 347.93C209.796 347.538 209.6 347.034 209.6 346.418C209.6 345.82 209.796 345.326 210.188 344.934C210.599 344.523 211.103 344.318 211.7 344.318H212.26C212.857 344.318 213.352 344.523 213.744 344.934C214.155 345.326 214.36 345.82 214.36 346.418C214.36 347.034 214.164 347.538 213.772 347.93C213.38 348.322 212.876 348.518 212.26 348.518H211.7Z" fill="#F3E223"/>
<path d="M1114.03 465.278C1113.32 465.278 1112.75 465.072 1112.32 464.662C1111.91 464.251 1111.7 463.7 1111.7 463.01C1111.7 462.282 1111.91 461.703 1112.32 461.274C1112.75 460.844 1113.32 460.63 1114.03 460.63C1114.74 460.63 1115.3 460.844 1115.71 461.274C1116.14 461.703 1116.35 462.282 1116.35 463.01C1116.35 463.7 1116.14 464.251 1115.71 464.662C1115.3 465.072 1114.74 465.278 1114.03 465.278ZM1127.48 462.366L1125.47 460.966L1126.98 458.782C1127.22 458.427 1127.51 458.082 1127.85 457.746C1128.18 457.391 1128.52 457.064 1128.86 456.766C1129.21 456.448 1129.52 456.178 1129.78 455.954L1129.7 455.758C1129.34 455.72 1128.94 455.683 1128.49 455.646C1128.04 455.59 1127.59 455.515 1127.12 455.422C1126.67 455.31 1126.25 455.188 1125.86 455.058L1123.4 454.162L1124.24 451.838L1126.7 452.734C1127.09 452.864 1127.49 453.051 1127.9 453.294C1128.33 453.518 1128.74 453.76 1129.14 454.022C1129.53 454.264 1129.86 454.498 1130.14 454.722L1130.28 454.61C1130.19 454.255 1130.09 453.854 1129.98 453.406C1129.86 452.939 1129.77 452.463 1129.7 451.978C1129.62 451.474 1129.58 451.007 1129.58 450.578V447.918H1132.05V450.578C1132.05 451.007 1132.01 451.474 1131.94 451.978C1131.86 452.463 1131.77 452.939 1131.66 453.406C1131.54 453.854 1131.43 454.255 1131.32 454.61L1131.46 454.722C1131.76 454.498 1132.09 454.264 1132.47 454.022C1132.86 453.76 1133.26 453.518 1133.67 453.294C1134.1 453.051 1134.51 452.864 1134.9 452.734L1137.4 451.838L1138.24 454.162L1135.74 455.058C1135.37 455.188 1134.95 455.31 1134.48 455.422C1134.04 455.515 1133.59 455.59 1133.14 455.646C1132.69 455.683 1132.29 455.72 1131.94 455.758L1131.82 455.982C1132.1 456.206 1132.41 456.476 1132.75 456.794C1133.1 457.092 1133.44 457.419 1133.76 457.774C1134.09 458.11 1134.37 458.446 1134.6 458.782L1136.14 460.966L1134.12 462.366L1132.58 460.182C1132.36 459.846 1132.13 459.463 1131.91 459.034C1131.7 458.604 1131.51 458.175 1131.32 457.746C1131.15 457.316 1131.01 456.934 1130.9 456.598H1130.7C1130.59 456.934 1130.44 457.316 1130.26 457.746C1130.09 458.175 1129.89 458.604 1129.67 459.034C1129.46 459.463 1129.24 459.846 1129 460.182L1127.48 462.366Z" fill="#F3E223"/>
<path d="M399.4 45.2776C398.691 45.2776 398.121 45.0722 397.692 44.6616C397.281 44.2509 397.076 43.7002 397.076 43.0096C397.076 42.2816 397.281 41.7029 397.692 41.2736C398.121 40.8442 398.691 40.6296 399.4 40.6296C400.109 40.6296 400.669 40.8442 401.08 41.2736C401.509 41.7029 401.724 42.2816 401.724 43.0096C401.724 43.7002 401.509 44.2509 401.08 44.6616C400.669 45.0722 400.109 45.2776 399.4 45.2776ZM412.857 42.3656L410.841 40.9656L412.353 38.7816C412.596 38.4269 412.885 38.0816 413.221 37.7456C413.557 37.3909 413.893 37.0642 414.229 36.7656C414.584 36.4482 414.892 36.1776 415.153 35.9536L415.069 35.7576C414.714 35.7202 414.313 35.6829 413.865 35.6456C413.417 35.5896 412.96 35.5149 412.493 35.4216C412.045 35.3096 411.625 35.1882 411.233 35.0576L408.769 34.1616L409.609 31.8376L412.073 32.7336C412.465 32.8642 412.866 33.0509 413.277 33.2936C413.706 33.5176 414.117 33.7602 414.509 34.0216C414.901 34.2642 415.237 34.4976 415.517 34.7216L415.657 34.6096C415.564 34.2549 415.461 33.8536 415.349 33.4056C415.237 32.9389 415.144 32.4629 415.069 31.9776C414.994 31.4736 414.957 31.0069 414.957 30.5776V27.9176H417.421V30.5776C417.421 31.0069 417.384 31.4736 417.309 31.9776C417.234 32.4629 417.141 32.9389 417.029 33.4056C416.917 33.8536 416.805 34.2549 416.693 34.6096L416.833 34.7216C417.132 34.4976 417.468 34.2642 417.841 34.0216C418.233 33.7602 418.634 33.5176 419.045 33.2936C419.474 33.0509 419.885 32.8642 420.277 32.7336L422.769 31.8376L423.609 34.1616L421.117 35.0576C420.744 35.1882 420.324 35.3096 419.857 35.4216C419.409 35.5149 418.961 35.5896 418.513 35.6456C418.065 35.6829 417.664 35.7202 417.309 35.7576L417.197 35.9816C417.477 36.2056 417.785 36.4762 418.121 36.7936C418.476 37.0922 418.812 37.4189 419.129 37.7736C419.465 38.1096 419.745 38.4456 419.969 38.7816L421.509 40.9656L419.493 42.3656L417.953 40.1816C417.729 39.8456 417.505 39.4629 417.281 39.0336C417.076 38.6042 416.88 38.1749 416.693 37.7456C416.525 37.3162 416.385 36.9336 416.273 36.5976H416.077C415.965 36.9336 415.816 37.3162 415.629 37.7456C415.461 38.1749 415.265 38.6042 415.041 39.0336C414.836 39.4629 414.612 39.8456 414.369 40.1816L412.857 42.3656Z" fill="#F3E223"/>
<path d="M168.493 927.374C168.493 928.2 169.163 928.87 169.989 928.87C170.815 928.87 171.485 928.2 171.485 927.374L169.989 927.374L168.493 927.374ZM171.046 438.815C170.462 438.231 169.515 438.231 168.93 438.815L159.408 448.338C158.823 448.922 158.823 449.87 159.408 450.454C159.992 451.038 160.94 451.038 161.524 450.454L169.988 441.99L178.453 450.454C179.037 451.038 179.984 451.038 180.569 450.454C181.153 449.87 181.153 448.922 180.569 448.338L171.046 438.815ZM169.989 927.374L171.485 927.374L171.485 439.874L169.988 439.874L168.492 439.874L168.493 927.374L169.989 927.374Z" fill="#F0DF09"/>
<path d="M-233.123 76.6274C-233.949 76.6274 -234.619 77.2973 -234.619 78.1237C-234.619 78.95 -233.949 79.62 -233.123 79.62L-233.123 78.1237L-233.123 76.6274ZM255.435 79.1811C256.019 78.5967 256.019 77.6493 255.435 77.065L245.913 67.5426C245.328 66.9583 244.381 66.9583 243.797 67.5426C243.212 68.127 243.212 69.0744 243.797 69.6587L252.261 78.123L243.797 86.5874C243.212 87.1718 243.212 88.1192 243.797 88.7035C244.381 89.2878 245.328 89.2878 245.913 88.7035L255.435 79.1811ZM-233.123 78.1237L-233.123 79.62L254.377 79.6193L254.377 78.123L254.377 76.6267L-233.123 76.6274L-233.123 78.1237Z" fill="#F0DF09"/>
</g>
<path d="M353.429 383.478C314.778 383.478 283.564 352.264 283.564 313.614C283.564 274.963 314.778 243.75 353.429 243.75C392.079 243.75 423.293 274.963 423.293 313.614C423.293 352.264 392.079 383.478 353.429 383.478Z" fill="black"/>
<path d="M390.785 303.249H377.08V323.932H390.785C396.468 323.932 401.19 319.21 401.19 313.528C401.19 307.803 396.468 303.249 390.785 303.249Z" fill="#FFF100"/>
<path d="M309.928 313.615C309.928 329.576 322.923 342.571 338.885 342.571C354.846 342.571 367.841 329.576 367.841 313.615C367.841 297.653 354.846 284.658 338.885 284.658C322.923 284.658 309.928 297.653 309.928 313.615Z" fill="#FFF100"/>
<path d="M459.121 331.114V296.098H468.523C470.793 296.098 472.76 296.546 474.423 297.441C476.118 298.305 477.429 299.536 478.356 301.135C479.283 302.702 479.747 304.556 479.747 306.699V320.465C479.747 322.608 479.283 324.478 478.356 326.077C477.429 327.676 476.118 328.923 474.423 329.819C472.76 330.682 470.793 331.114 468.523 331.114H459.121ZM463.87 326.893H468.523C470.537 326.893 472.12 326.317 473.272 325.166C474.423 324.015 474.998 322.448 474.998 320.465V306.699C474.998 304.716 474.423 303.165 473.272 302.046C472.12 300.895 470.537 300.319 468.523 300.319H463.87V326.893ZM498.004 331.593C494.902 331.593 492.423 330.682 490.569 328.859C488.714 327.037 487.787 324.558 487.787 321.425V304.732H492.535V321.425C492.535 323.279 493.015 324.75 493.974 325.837C494.966 326.893 496.309 327.42 498.004 327.42C499.73 327.42 501.089 326.893 502.081 325.837C503.072 324.75 503.568 323.279 503.568 321.425V304.732H508.316V321.425C508.316 324.558 507.373 327.037 505.486 328.859C503.632 330.682 501.137 331.593 498.004 331.593ZM527.196 331.593C523.967 331.593 521.376 330.698 519.426 328.907C517.475 327.085 516.5 324.59 516.5 321.425V314.373C516.5 311.24 517.475 308.777 519.426 306.987C521.376 305.164 523.967 304.253 527.196 304.253C530.298 304.253 532.792 305.084 534.679 306.747C536.598 308.378 537.605 310.616 537.701 313.462H533C532.904 311.863 532.329 310.632 531.274 309.769C530.25 308.873 528.891 308.426 527.196 308.426C525.374 308.426 523.919 308.953 522.831 310.009C521.776 311.032 521.249 312.487 521.249 314.373V321.425C521.249 323.343 521.776 324.814 522.831 325.837C523.919 326.861 525.374 327.372 527.196 327.372C528.923 327.372 530.298 326.941 531.322 326.077C532.345 325.214 532.904 323.983 533 322.384H537.701C537.605 325.23 536.598 327.484 534.679 329.147C532.792 330.778 530.298 331.593 527.196 331.593ZM545.645 331.114V296.098H550.393V315.477H555.238L562.337 304.732H567.709L559.411 317.347L568.141 331.114H562.673L555.286 319.554H550.393V331.114H545.645ZM574.166 331.114V296.098H583.568C585.838 296.098 587.805 296.546 589.467 297.441C591.162 298.305 592.473 299.536 593.401 301.135C594.328 302.702 594.792 304.556 594.792 306.699V320.465C594.792 322.608 594.328 324.478 593.401 326.077C592.473 327.676 591.162 328.923 589.467 329.819C587.805 330.682 585.838 331.114 583.568 331.114H574.166ZM578.915 326.893H583.568C585.582 326.893 587.165 326.317 588.316 325.166C589.467 324.015 590.043 322.448 590.043 320.465V306.699C590.043 304.716 589.467 303.165 588.316 302.046C587.165 300.895 585.582 300.319 583.568 300.319H578.915V326.893ZM602.975 331.114V296.098H613.096C616.326 296.098 618.868 296.914 620.723 298.545C622.61 300.143 623.553 302.35 623.553 305.164C623.553 306.987 622.977 308.617 621.826 310.056C620.707 311.463 619.252 312.327 617.461 312.647V312.791C618.804 312.95 619.987 313.43 621.011 314.23C622.066 315.029 622.881 316.052 623.457 317.299C624.065 318.515 624.368 319.858 624.368 321.329C624.368 324.335 623.409 326.717 621.49 328.476C619.604 330.234 617.029 331.114 613.768 331.114H602.975ZM607.628 310.872H613.048C614.839 310.872 616.246 310.408 617.269 309.481C618.293 308.522 618.804 307.226 618.804 305.596C618.804 303.933 618.293 302.638 617.269 301.71C616.246 300.751 614.855 300.271 613.096 300.271H607.628V310.872ZM607.628 326.941H613.336C615.287 326.941 616.822 326.429 617.941 325.406C619.06 324.35 619.62 322.927 619.62 321.137C619.62 319.282 619.06 317.779 617.941 316.628C616.822 315.477 615.287 314.901 613.336 314.901H607.628V326.941ZM660.498 331.114V326.797H669.851V300.367L660.45 307.37V301.998L668.412 296.098H674.6V326.797H682.274V331.114H660.498ZM699.38 331.593C698.165 331.593 697.173 331.226 696.406 330.49C695.67 329.755 695.303 328.811 695.303 327.66C695.303 326.445 695.67 325.454 696.406 324.686C697.173 323.919 698.165 323.535 699.38 323.535C700.595 323.535 701.57 323.919 702.306 324.686C703.073 325.454 703.457 326.445 703.457 327.66C703.457 328.811 703.073 329.755 702.306 330.49C701.57 331.226 700.595 331.593 699.38 331.593ZM732.746 331.114V323.631H716.965V316.388L729.772 296.098H735.144L721.665 317.491V319.362H732.746V310.968H737.494V331.114H732.746ZM756.902 331.593C755.687 331.593 754.696 331.226 753.928 330.49C753.193 329.755 752.825 328.811 752.825 327.66C752.825 326.445 753.193 325.454 753.928 324.686C754.696 323.919 755.687 323.535 756.902 323.535C758.117 323.535 759.092 323.919 759.828 324.686C760.595 325.454 760.979 326.445 760.979 327.66C760.979 328.811 760.595 329.755 759.828 330.49C759.092 331.226 758.117 331.593 756.902 331.593ZM785.184 331.593C781.89 331.593 779.284 330.698 777.365 328.907C775.446 327.085 774.487 324.622 774.487 321.52H779.236C779.236 323.343 779.763 324.782 780.819 325.837C781.906 326.861 783.377 327.372 785.231 327.372C787.054 327.372 788.509 326.861 789.596 325.837C790.684 324.782 791.227 323.343 791.227 321.52V319.074C791.227 317.251 790.684 315.812 789.596 314.757C788.541 313.67 787.086 313.126 785.231 313.126H781.298V309.145L789.74 300.367H775.542V296.098H795.065V300.415L786.718 309.049C789.564 309.305 791.819 310.328 793.482 312.119C795.145 313.878 795.976 316.196 795.976 319.074V321.52C795.976 324.622 795.001 327.085 793.05 328.907C791.131 330.698 788.509 331.593 785.184 331.593ZM834.935 331.114V296.098H839.684V326.797H855.273V331.114H834.935ZM869.596 331.114V300.415H860.099V296.098H883.794V300.415H874.345V331.114H869.596ZM900.9 331.593C897.446 331.593 894.696 330.698 892.649 328.907C890.603 327.085 889.58 324.59 889.58 321.425H894.328C894.328 323.279 894.92 324.734 896.103 325.789C897.286 326.845 898.885 327.372 900.9 327.372C902.818 327.372 904.337 326.845 905.457 325.789C906.608 324.702 907.183 323.263 907.183 321.473C907.183 320.129 906.816 318.962 906.08 317.971C905.345 316.948 904.305 316.26 902.962 315.908L897.782 314.517C895.511 313.878 893.705 312.727 892.362 311.064C891.051 309.369 890.395 307.37 890.395 305.068C890.395 303.181 890.811 301.534 891.642 300.127C892.506 298.688 893.705 297.585 895.24 296.818C896.775 296.018 898.549 295.619 900.564 295.619C902.61 295.619 904.401 296.018 905.936 296.818C907.503 297.585 908.718 298.672 909.582 300.079C910.445 301.486 910.877 303.117 910.877 304.972H906.176C906.176 303.437 905.648 302.19 904.593 301.231C903.57 300.271 902.227 299.792 900.564 299.792C898.901 299.792 897.558 300.271 896.535 301.231C895.543 302.19 895.048 303.437 895.048 304.972C895.048 306.219 895.384 307.274 896.055 308.138C896.727 308.969 897.67 309.561 898.885 309.913L904.209 311.352C906.608 311.991 908.478 313.222 909.821 315.045C911.165 316.836 911.836 318.978 911.836 321.473C911.836 323.519 911.388 325.31 910.493 326.845C909.598 328.348 908.319 329.515 906.656 330.346C905.025 331.178 903.106 331.593 900.9 331.593Z" fill="black"/>
<defs>
<linearGradient id="paint0_linear_10434_48003" x1="589" y1="-32.2631" x2="586.036" y2="763.354" gradientUnits="userSpaceOnUse">
<stop stop-color="#FDEF00"/>
<stop offset="0.938633" stop-color="#FFFAA3"/>
</linearGradient>
<clipPath id="clip0_10434_48003">
<rect width="1200" height="627" fill="white"/>
</clipPath>
</defs>
</svg>
