<svg width="1200" height="630" viewBox="0 0 1200 630" fill="none" xmlns="http://www.w3.org/2000/svg">
<g clip-path="url(#clip0_17621_12691)">
<rect width="1200" height="630" fill="url(#paint0_linear_17621_12691)"/>
<path d="M81.9746 -110.211L81.9746 366.071C81.9746 393.686 104.361 416.072 131.975 416.071L264.474 416.07C292.089 416.07 314.475 438.456 314.475 466.07L314.475 658.045" stroke="#EDDD0C" stroke-width="3.2" stroke-linejoin="round"/>
<rect x="92.8105" y="244.818" width="21.6746" height="43.3492" rx="10.8373" transform="rotate(-180 92.8105 244.818)" fill="#EDDD0C" stroke="#EDDD0C" stroke-width="3.2"/>
<path d="M895.994 -69.9646L895.994 103.198C895.994 130.812 918.38 153.198 945.994 153.198L1357.5 153.198" stroke="#EDDD0C" stroke-width="3.2" stroke-linejoin="round"/>
<rect x="1046.56" y="166.699" width="27" height="53" rx="13.5" transform="rotate(-90 1046.56 166.699)" fill="#EDDD0C" stroke="#EDDD0C" stroke-width="3.2"/>
<path d="M1083.26 676.699L1083.26 476.041C1083.26 448.427 1105.65 426.041 1133.26 426.041L1226.26 426.04" stroke="#EDDD0C" stroke-width="3.2" stroke-linecap="round" stroke-linejoin="round"/>
</g>
<rect x="445" y="193" width="268.19" height="214.552" rx="10" fill="#FFFDCC" stroke="#998B00" stroke-width="3.2" stroke-miterlimit="10"/>
<path d="M445 203C445 197.477 449.477 193 455 193H703.19C708.713 193 713.19 197.477 713.19 203V244.756H445V203Z" fill="#FFFDCC" stroke="#998B00" stroke-width="3.2" stroke-miterlimit="10"/>
<path d="M657.702 210.254V225.704H666.827V228.379H654.527V210.254H657.702ZM669.931 228.379V212.904H664.231V210.254H678.806V212.904H673.106V228.379H669.931ZM687.576 220.579L685.376 220.154C682.501 219.554 680.151 218.104 680.151 215.029C680.151 211.654 683.676 209.929 687.001 209.929C690.601 209.929 693.376 211.554 694.101 215.329H691.026C690.501 213.154 688.626 212.529 686.826 212.529C685.426 212.529 683.351 213.154 683.351 214.929C683.351 216.329 684.476 217.029 686.051 217.329L688.276 217.754C691.451 218.354 694.476 219.554 694.476 223.179C694.476 226.854 690.851 228.704 687.276 228.704C682.951 228.704 680.051 226.379 679.651 222.379H682.776C683.351 224.879 684.926 226.104 687.426 226.104C689.576 226.104 691.301 225.129 691.301 223.379C691.301 221.504 689.301 220.904 687.576 220.579Z" fill="#998B00"/>
<path d="M467.691 225.159C471.908 225.159 475.326 221.751 475.326 217.548C475.326 213.345 471.908 209.938 467.691 209.938C463.473 209.938 460.055 213.345 460.055 217.548C460.055 221.751 463.473 225.159 467.691 225.159Z" fill="#FFFDCC" stroke="#998B00" stroke-width="3.2" stroke-miterlimit="10"/>
<path d="M490.671 225.159C494.888 225.159 498.307 221.751 498.307 217.548C498.307 213.345 494.888 209.938 490.671 209.938C486.454 209.938 483.035 213.345 483.035 217.548C483.035 221.751 486.454 225.159 490.671 225.159Z" fill="#FFFDCC" stroke="#998B00" stroke-width="3.2" stroke-miterlimit="10"/>
<path d="M513.611 225.159C517.828 225.159 521.246 221.751 521.246 217.548C521.246 213.345 517.828 209.938 513.611 209.938C509.393 209.938 505.975 213.345 505.975 217.548C505.975 221.751 509.393 225.159 513.611 225.159Z" fill="#FFFDCC" stroke="#998B00" stroke-width="3.2" stroke-miterlimit="10"/>
<path d="M494.159 348.98V340.205H506.119V311.41L494.029 320.12V309.33L505.144 301.53H515.869V340.205H525.359V348.98H494.159ZM543.534 349.63C541.584 349.63 540.002 349.024 538.789 347.81C537.575 346.597 536.969 345.015 536.969 343.065C536.969 341.115 537.575 339.534 538.789 338.32C540.002 337.107 541.584 336.5 543.534 336.5C545.484 336.5 547.065 337.107 548.279 338.32C549.492 339.534 550.099 341.115 550.099 343.065C550.099 345.015 549.492 346.597 548.279 347.81C547.065 349.024 545.484 349.63 543.534 349.63ZM583.158 348.98V340.27H562.488V326.685L580.168 301.53H590.893L571.588 329.415V331.82H583.158V321.68H592.908V348.98H583.158ZM613.683 349.63C611.733 349.63 610.151 349.024 608.938 347.81C607.725 346.597 607.118 345.015 607.118 343.065C607.118 341.115 607.725 339.534 608.938 338.32C610.151 337.107 611.733 336.5 613.683 336.5C615.633 336.5 617.215 337.107 618.428 338.32C619.641 339.534 620.248 341.115 620.248 343.065C620.248 345.015 619.641 346.597 618.428 347.81C617.215 349.024 615.633 349.63 613.683 349.63ZM648.628 349.63C643.774 349.63 639.896 348.417 636.993 345.99C634.089 343.52 632.638 340.184 632.638 335.98H642.388C642.388 337.584 642.951 338.862 644.078 339.815C645.248 340.725 646.764 341.18 648.628 341.18C650.534 341.18 652.008 340.704 653.048 339.75C654.088 338.754 654.608 337.389 654.608 335.655V332.34C654.608 328.7 652.614 326.88 648.628 326.88H634.263V301.53H662.603V310.305H643.558V318.43H649.018C653.914 318.43 657.684 319.644 660.328 322.07C663.014 324.497 664.358 327.92 664.358 332.34V335.655C664.358 339.989 662.949 343.412 660.133 345.925C657.359 348.395 653.524 349.63 648.628 349.63Z" fill="#FFF100"/>
<path d="M494.159 348.98H492.559V350.58H494.159V348.98ZM494.159 340.205V338.605H492.559V340.205H494.159ZM506.119 340.205V341.805H507.719V340.205H506.119ZM506.119 311.41H507.719V308.286L505.184 310.112L506.119 311.41ZM494.029 320.12H492.429V323.245L494.964 321.419L494.029 320.12ZM494.029 309.33L493.11 308.021L492.429 308.499V309.33H494.029ZM505.144 301.53V299.93H504.639L504.225 300.221L505.144 301.53ZM515.869 301.53H517.469V299.93H515.869V301.53ZM515.869 340.205H514.269V341.805H515.869V340.205ZM525.359 340.205H526.959V338.605H525.359V340.205ZM525.359 348.98V350.58H526.959V348.98H525.359ZM494.159 348.98H495.759V340.205H494.159H492.559V348.98H494.159ZM494.159 340.205V341.805H506.119V340.205V338.605H494.159V340.205ZM506.119 340.205H507.719V311.41H506.119H504.519V340.205H506.119ZM506.119 311.41L505.184 310.112L493.094 318.822L494.029 320.12L494.964 321.419L507.054 312.709L506.119 311.41ZM494.029 320.12H495.629V309.33H494.029H492.429V320.12H494.029ZM494.029 309.33L494.948 310.64L506.063 302.84L505.144 301.53L504.225 300.221L493.11 308.021L494.029 309.33ZM505.144 301.53V303.13H515.869V301.53V299.93H505.144V301.53ZM515.869 301.53H514.269V340.205H515.869H517.469V301.53H515.869ZM515.869 340.205V341.805H525.359V340.205V338.605H515.869V340.205ZM525.359 340.205H523.759V348.98H525.359H526.959V340.205H525.359ZM525.359 348.98V347.38H494.159V348.98V350.58H525.359V348.98ZM538.789 347.81L537.657 348.942V348.942L538.789 347.81ZM538.789 338.32L537.657 337.189V337.189L538.789 338.32ZM548.279 347.81L549.41 348.942L548.279 347.81ZM543.534 349.63V348.03C541.945 348.03 540.792 347.551 539.92 346.679L538.789 347.81L537.657 348.942C539.213 350.497 541.222 351.23 543.534 351.23V349.63ZM538.789 347.81L539.92 346.679C539.049 345.808 538.569 344.654 538.569 343.065H536.969H535.369C535.369 345.377 536.102 347.387 537.657 348.942L538.789 347.81ZM536.969 343.065H538.569C538.569 341.477 539.049 340.323 539.92 339.452L538.789 338.32L537.657 337.189C536.102 338.744 535.369 340.754 535.369 343.065H536.969ZM538.789 338.32L539.92 339.452C540.792 338.58 541.945 338.1 543.534 338.1V336.5V334.9C541.222 334.9 539.213 335.634 537.657 337.189L538.789 338.32ZM543.534 336.5V338.1C545.122 338.1 546.276 338.58 547.147 339.452L548.279 338.32L549.41 337.189C547.855 335.634 545.845 334.9 543.534 334.9V336.5ZM548.279 338.32L547.147 339.452C548.019 340.323 548.499 341.477 548.499 343.065H550.099H551.699C551.699 340.754 550.965 338.744 549.41 337.189L548.279 338.32ZM550.099 343.065H548.499C548.499 344.654 548.019 345.808 547.147 346.679L548.279 347.81L549.41 348.942C550.965 347.387 551.699 345.377 551.699 343.065H550.099ZM548.279 347.81L547.147 346.679C546.276 347.551 545.122 348.03 543.534 348.03V349.63V351.23C545.845 351.23 547.855 350.497 549.41 348.942L548.279 347.81ZM583.158 348.98H581.558V350.58H583.158V348.98ZM583.158 340.27H584.758V338.67H583.158V340.27ZM562.488 340.27H560.888V341.87H562.488V340.27ZM562.488 326.685L561.179 325.765L560.888 326.179V326.685H562.488ZM580.168 301.53V299.93H579.337L578.859 300.61L580.168 301.53ZM590.893 301.53L592.209 302.441L593.947 299.93H590.893V301.53ZM571.588 329.415L570.273 328.505L569.988 328.916V329.415H571.588ZM571.588 331.82H569.988V333.42H571.588V331.82ZM583.158 331.82V333.42H584.758V331.82H583.158ZM583.158 321.68V320.08H581.558V321.68H583.158ZM592.908 321.68H594.508V320.08H592.908V321.68ZM592.908 348.98V350.58H594.508V348.98H592.908ZM583.158 348.98H584.758V340.27H583.158H581.558V348.98H583.158ZM583.158 340.27V338.67H562.488V340.27V341.87H583.158V340.27ZM562.488 340.27H564.088V326.685H562.488H560.888V340.27H562.488ZM562.488 326.685L563.797 327.606L581.477 302.451L580.168 301.53L578.859 300.61L561.179 325.765L562.488 326.685ZM580.168 301.53V303.13H590.893V301.53V299.93H580.168V301.53ZM590.893 301.53L589.578 300.62L570.273 328.505L571.588 329.415L572.904 330.326L592.209 302.441L590.893 301.53ZM571.588 329.415H569.988V331.82H571.588H573.188V329.415H571.588ZM571.588 331.82V333.42H583.158V331.82V330.22H571.588V331.82ZM583.158 331.82H584.758V321.68H583.158H581.558V331.82H583.158ZM583.158 321.68V323.28H592.908V321.68V320.08H583.158V321.68ZM592.908 321.68H591.308V348.98H592.908H594.508V321.68H592.908ZM592.908 348.98V347.38H583.158V348.98V350.58H592.908V348.98ZM608.938 347.81L607.807 348.942V348.942L608.938 347.81ZM608.938 338.32L607.807 337.189V337.189L608.938 338.32ZM618.428 347.81L619.559 348.942L618.428 347.81ZM613.683 349.63V348.03C612.094 348.03 610.941 347.551 610.069 346.679L608.938 347.81L607.807 348.942C609.362 350.497 611.372 351.23 613.683 351.23V349.63ZM608.938 347.81L610.069 346.679C609.198 345.808 608.718 344.654 608.718 343.065H607.118H605.518C605.518 345.377 606.251 347.387 607.807 348.942L608.938 347.81ZM607.118 343.065H608.718C608.718 341.477 609.198 340.323 610.069 339.452L608.938 338.32L607.807 337.189C606.251 338.744 605.518 340.754 605.518 343.065H607.118ZM608.938 338.32L610.069 339.452C610.941 338.58 612.094 338.1 613.683 338.1V336.5V334.9C611.372 334.9 609.362 335.634 607.807 337.189L608.938 338.32ZM613.683 336.5V338.1C615.272 338.1 616.425 338.58 617.297 339.452L618.428 338.32L619.559 337.189C618.004 335.634 615.994 334.9 613.683 334.9V336.5ZM618.428 338.32L617.297 339.452C618.168 340.323 618.648 341.477 618.648 343.065H620.248H621.848C621.848 340.754 621.115 338.744 619.559 337.189L618.428 338.32ZM620.248 343.065H618.648C618.648 344.654 618.168 345.808 617.297 346.679L618.428 347.81L619.559 348.942C621.115 347.387 621.848 345.377 621.848 343.065H620.248ZM618.428 347.81L617.297 346.679C616.425 347.551 615.272 348.03 613.683 348.03V349.63V351.23C615.994 351.23 618.004 350.497 619.559 348.942L618.428 347.81ZM636.993 345.99L635.956 347.209L635.967 347.218L636.993 345.99ZM632.638 335.98V334.38H631.038V335.98H632.638ZM642.388 335.98H643.988V334.38H642.388V335.98ZM644.078 339.815L643.044 341.037L643.069 341.058L643.095 341.078L644.078 339.815ZM653.048 339.75L654.129 340.93L654.142 340.918L654.155 340.906L653.048 339.75ZM634.263 326.88H632.663V328.48H634.263V326.88ZM634.263 301.53V299.93H632.663V301.53H634.263ZM662.603 301.53H664.203V299.93H662.603V301.53ZM662.603 310.305V311.905H664.203V310.305H662.603ZM643.558 310.305V308.705H641.958V310.305H643.558ZM643.558 318.43H641.958V320.03H643.558V318.43ZM660.328 322.07L659.246 323.249L659.255 323.258L660.328 322.07ZM660.133 345.925L661.197 347.12L661.198 347.119L660.133 345.925ZM648.628 349.63V348.03C644.041 348.03 640.561 346.888 638.019 344.763L636.993 345.99L635.967 347.218C639.231 349.947 643.507 351.23 648.628 351.23V349.63ZM636.993 345.99L638.029 344.772C635.523 342.639 634.238 339.769 634.238 335.98H632.638H631.038C631.038 340.599 632.656 344.402 635.956 347.209L636.993 345.99ZM632.638 335.98V337.58H642.388V335.98V334.38H632.638V335.98ZM642.388 335.98H640.788C640.788 338.008 641.524 339.751 643.044 341.037L644.078 339.815L645.111 338.594C644.377 337.973 643.988 337.159 643.988 335.98H642.388ZM644.078 339.815L643.095 341.078C644.612 342.258 646.502 342.78 648.628 342.78V341.18V339.58C647.027 339.58 645.883 339.193 645.06 338.553L644.078 339.815ZM648.628 341.18V342.78C650.792 342.78 652.703 342.237 654.129 340.93L653.048 339.75L651.966 338.571C651.312 339.171 650.277 339.58 648.628 339.58V341.18ZM653.048 339.75L654.155 340.906C655.572 339.547 656.208 337.729 656.208 335.655H654.608H653.008C653.008 337.048 652.603 337.961 651.941 338.595L653.048 339.75ZM654.608 335.655H656.208V332.34H654.608H653.008V335.655H654.608ZM654.608 332.34H656.208C656.208 330.234 655.624 328.372 654.191 327.064C652.786 325.781 650.833 325.28 648.628 325.28V326.88V328.48C650.409 328.48 651.446 328.89 652.034 329.427C652.594 329.939 653.008 330.806 653.008 332.34H654.608ZM648.628 326.88V325.28H634.263V326.88V328.48H648.628V326.88ZM634.263 326.88H635.863V301.53H634.263H632.663V326.88H634.263ZM634.263 301.53V303.13H662.603V301.53V299.93H634.263V301.53ZM662.603 301.53H661.003V310.305H662.603H664.203V301.53H662.603ZM662.603 310.305V308.705H643.558V310.305V311.905H662.603V310.305ZM643.558 310.305H641.958V318.43H643.558H645.158V310.305H643.558ZM643.558 318.43V320.03H649.018V318.43V316.83H643.558V318.43ZM649.018 318.43V320.03C653.661 320.03 656.991 321.179 659.246 323.249L660.328 322.07L661.41 320.892C658.378 318.109 654.167 316.83 649.018 316.83V318.43ZM660.328 322.07L659.255 323.258C661.533 325.315 662.758 328.265 662.758 332.34H664.358H665.958C665.958 327.576 664.495 323.679 661.4 320.883L660.328 322.07ZM664.358 332.34H662.758V335.655H664.358H665.958V332.34H664.358ZM664.358 335.655H662.758C662.758 339.607 661.492 342.568 659.067 344.732L660.133 345.925L661.198 347.119C664.407 344.256 665.958 340.37 665.958 335.655H664.358ZM660.133 345.925L659.068 344.731C656.671 346.866 653.259 348.03 648.628 348.03V349.63V351.23C653.789 351.23 658.047 349.925 661.197 347.12L660.133 345.925Z" fill="#998B00"/>
<path d="M702.594 445.544C675.963 445.544 654.457 424.037 654.457 397.407C654.457 370.776 675.963 349.27 702.594 349.27C729.225 349.27 750.731 370.776 750.731 397.407C750.731 424.037 729.225 445.544 702.594 445.544Z" fill="#FFFDCC" stroke="#998B00" stroke-width="3.2" stroke-miterlimit="10" stroke-linecap="round"/>
<path d="M728.336 390.275H718.893V404.526H728.336C732.251 404.526 735.504 401.273 735.504 397.358C735.504 393.414 732.251 390.275 728.336 390.275Z" fill="#FFF100" stroke="#998B00" stroke-width="3.2" stroke-miterlimit="10" stroke-linecap="round"/>
<path d="M672.623 397.54C672.623 408.607 681.577 417.617 692.575 417.617C703.572 417.617 712.526 408.607 712.526 397.54C712.526 386.473 703.572 377.463 692.575 377.463C681.577 377.463 672.623 386.473 672.623 397.54Z" fill="#FFF100" stroke="#998B00" stroke-width="3.2" stroke-miterlimit="10" stroke-linecap="round"/>
<defs>
<linearGradient id="paint0_linear_17621_12691" x1="587" y1="-103.981" x2="587" y2="767.01" gradientUnits="userSpaceOnUse">
<stop stop-color="#FFF100"/>
<stop offset="0.938633" stop-color="#FFFA99"/>
</linearGradient>
<clipPath id="clip0_17621_12691">
<rect width="1200" height="630" fill="white"/>
</clipPath>
</defs>
</svg>
