<svg width="1200" height="515" viewBox="0 0 1200 515" fill="none" xmlns="http://www.w3.org/2000/svg">
<g clip-path="url(#clip0_13541_28138)">
<g clip-path="url(#clip1_13541_28138)">
<rect width="1200" height="515" fill="url(#paint0_linear_13541_28138)"/>
<path d="M-62.9999 57.0028L958.471 56.999C988.847 56.9989 1013.47 81.6233 1013.47 111.999L1013.47 254.761C1013.47 285.137 988.847 309.761 958.471 309.761L646.977 309.761C616.602 309.761 591.977 334.385 591.977 364.761L591.977 944.508C591.977 974.883 567.353 999.508 536.977 999.508L387.617 999.508" stroke="#F0DF09" stroke-width="2.9926" stroke-linejoin="round"/>
<path d="M1140.5 -6.33731e-06C1140.5 -0.826391 1139.83 -1.4963 1139 -1.4963C1138.17 -1.4963 1137.5 -0.826378 1137.5 6.33709e-06L1139 -1.10526e-10L1140.5 -6.33731e-06ZM1137.94 169.433C1138.53 170.017 1139.47 170.017 1140.06 169.433L1149.58 159.911C1150.16 159.326 1150.16 158.379 1149.58 157.795C1149 157.21 1148.05 157.21 1147.46 157.795L1139 166.259L1130.54 157.795C1129.95 157.21 1129 157.21 1128.42 157.795C1127.84 158.379 1127.84 159.326 1128.42 159.911L1137.94 169.433ZM1139 -1.10526e-10L1137.5 6.33709e-06L1137.5 168.375L1139 168.375L1140.5 168.375L1140.5 -6.33731e-06L1139 -1.10526e-10Z" fill="#F0DF09"/>
<path d="M786 612.501L786 488.501C786 458.125 761.376 433.501 731 433.501L374.367 433.501C343.991 433.501 319.367 408.877 319.367 378.501L319.367 248C319.367 217.625 294.743 193 264.367 193L158.684 193C128.308 193 103.684 168.376 103.684 138L103.684 -82.5" stroke="#F0DF09" stroke-width="2.9926" stroke-linejoin="round"/>
<rect x="309.038" y="46.9619" width="21.0762" height="43.0762" rx="10.5381" transform="rotate(90 309.038 46.9619)" fill="#D4C50B" stroke="#F0DF09" stroke-width="1.92382"/>
<path d="M233.254 557.001C233.254 557.827 233.924 558.497 234.75 558.497C235.577 558.497 236.247 557.827 236.247 557.001L234.75 557.001L233.254 557.001ZM92.808 251.943C92.2237 251.359 91.2763 251.359 90.692 251.943L81.1696 261.465C80.5852 262.05 80.5852 262.997 81.1696 263.581C81.7539 264.166 82.7013 264.166 83.2856 263.581L91.75 255.117L100.214 263.581C100.799 264.166 101.746 264.166 102.33 263.581C102.915 262.997 102.915 262.05 102.33 261.465L92.808 251.943ZM146.75 405.124L146.75 403.627L146.75 405.124ZM234.75 557.001L236.247 557.001L236.246 460.124L234.75 460.124L233.254 460.124L233.254 557.001L234.75 557.001ZM179.75 405.124L179.75 403.627L146.75 403.627L146.75 405.124L146.75 406.62L179.75 406.62L179.75 405.124ZM91.75 350.124L93.2463 350.124L93.2463 253.001L91.75 253.001L90.2537 253.001L90.2537 350.124L91.75 350.124ZM146.75 405.124L146.75 403.627C117.201 403.627 93.2463 379.673 93.2463 350.124L91.75 350.124L90.2537 350.124C90.2537 381.326 115.548 406.62 146.75 406.62L146.75 405.124ZM234.75 460.124L236.246 460.124C236.246 428.922 210.952 403.628 179.75 403.627L179.75 405.124L179.75 406.62C209.299 406.62 233.254 430.574 233.254 460.124L234.75 460.124Z" fill="#F0DF09"/>
<rect x="1116.96" y="350.962" width="16.0762" height="35.0762" rx="8.0381" fill="#D4C50B" stroke="#F0DF09" stroke-width="1.92382"/>
<path d="M994.504 461.28C992.973 461.28 991.741 460.767 990.808 459.74C989.893 458.713 989.436 457.323 989.436 455.568V451.06C989.436 449.287 989.893 447.887 990.808 446.86C991.723 445.833 992.955 445.32 994.504 445.32C995.661 445.32 996.613 445.609 997.36 446.188C998.125 446.767 998.583 447.551 998.732 448.54H998.76L998.704 445.04V440.56H1001.22V461H998.704V458.06H998.676C998.545 459.068 998.107 459.861 997.36 460.44C996.613 461 995.661 461.28 994.504 461.28ZM995.344 459.096C996.389 459.096 997.211 458.769 997.808 458.116C998.405 457.463 998.704 456.557 998.704 455.4V451.2C998.704 450.043 998.405 449.137 997.808 448.484C997.211 447.831 996.389 447.504 995.344 447.504C994.28 447.504 993.449 447.784 992.852 448.344C992.255 448.885 991.956 449.791 991.956 451.06V455.54C991.956 456.791 992.255 457.696 992.852 458.256C993.449 458.816 994.28 459.096 995.344 459.096ZM1012.16 461.28C1010.39 461.28 1008.97 460.757 1007.91 459.712C1006.84 458.648 1006.31 457.211 1006.31 455.4V445.6H1008.83V455.4C1008.83 456.52 1009.13 457.416 1009.73 458.088C1010.32 458.741 1011.13 459.068 1012.16 459.068C1013.21 459.068 1014.03 458.741 1014.63 458.088C1015.24 457.416 1015.55 456.52 1015.55 455.4V445.6H1018.07V455.4C1018.07 457.211 1017.53 458.648 1016.45 459.712C1015.36 460.757 1013.93 461.28 1012.16 461.28ZM1029.2 461.28C1027.34 461.28 1025.84 460.757 1024.72 459.712C1023.6 458.667 1023.04 457.229 1023.04 455.4V451.2C1023.04 449.371 1023.6 447.933 1024.72 446.888C1025.84 445.843 1027.34 445.32 1029.2 445.32C1030.98 445.32 1032.4 445.796 1033.49 446.748C1034.59 447.7 1035.17 448.997 1035.22 450.64H1032.7C1032.65 449.651 1032.31 448.895 1031.69 448.372C1031.08 447.831 1030.25 447.56 1029.2 447.56C1028.1 447.56 1027.21 447.877 1026.54 448.512C1025.89 449.128 1025.56 450.015 1025.56 451.172V455.4C1025.56 456.557 1025.89 457.453 1026.54 458.088C1027.21 458.723 1028.1 459.04 1029.2 459.04C1030.25 459.04 1031.08 458.769 1031.69 458.228C1032.31 457.687 1032.65 456.931 1032.7 455.96H1035.22C1035.17 457.603 1034.59 458.9 1033.49 459.852C1032.4 460.804 1030.98 461.28 1029.2 461.28ZM1040.08 461V440.56H1042.6V451.956H1045.54L1049.86 445.6H1052.74L1047.78 452.936L1053.02 461H1050.08L1045.6 454.14H1042.6V461H1040.08ZM1064.8 461C1063.43 461 1062.34 460.608 1061.52 459.824C1060.72 459.021 1060.32 457.967 1060.32 456.66V442.856H1055V440.56H1062.84V456.66C1062.84 457.295 1063.01 457.799 1063.37 458.172C1063.72 458.527 1064.2 458.704 1064.8 458.704H1069.56V461H1064.8ZM1078 461.28C1076.41 461.28 1075.15 460.841 1074.22 459.964C1073.29 459.068 1072.82 457.901 1072.82 456.464C1072.82 455.512 1073.04 454.681 1073.47 453.972C1073.89 453.263 1074.49 452.712 1075.26 452.32C1076.02 451.909 1076.9 451.704 1077.89 451.704H1082.65V450.5C1082.65 448.503 1081.56 447.504 1079.37 447.504C1078.4 447.504 1077.62 447.681 1077.02 448.036C1076.42 448.391 1076.11 448.885 1076.07 449.52H1073.55C1073.64 448.307 1074.2 447.308 1075.23 446.524C1076.27 445.721 1077.66 445.32 1079.37 445.32C1081.24 445.32 1082.67 445.768 1083.66 446.664C1084.67 447.56 1085.17 448.811 1085.17 450.416V461H1082.68V458.2H1082.62C1082.47 459.152 1082 459.908 1081.19 460.468C1080.39 461.009 1079.33 461.28 1078 461.28ZM1078.62 459.152C1079.85 459.152 1080.83 458.853 1081.56 458.256C1082.29 457.659 1082.65 456.847 1082.65 455.82V453.664H1078.17C1077.35 453.664 1076.68 453.916 1076.15 454.42C1075.65 454.905 1075.4 455.559 1075.4 456.38C1075.4 457.239 1075.68 457.92 1076.24 458.424C1076.82 458.909 1077.61 459.152 1078.62 459.152ZM1090.45 461V440.56H1092.97V451.956H1095.91L1100.22 445.6H1103.11L1098.15 452.936L1103.39 461H1100.45L1095.97 454.14H1092.97V461H1090.45ZM1112.92 461.28C1111.11 461.28 1109.65 460.739 1108.53 459.656C1107.43 458.555 1106.88 457.043 1106.88 455.12V451.48C1106.88 449.557 1107.43 448.055 1108.53 446.972C1109.65 445.871 1111.11 445.32 1112.92 445.32C1114.14 445.32 1115.19 445.563 1116.09 446.048C1117 446.533 1117.71 447.215 1118.22 448.092C1118.72 448.969 1118.97 450.005 1118.97 451.2V453.944H1109.34V455.4C1109.34 456.539 1109.67 457.444 1110.32 458.116C1110.97 458.769 1111.84 459.096 1112.92 459.096C1113.86 459.096 1114.62 458.919 1115.22 458.564C1115.84 458.191 1116.21 457.696 1116.34 457.08H1118.86C1118.69 458.368 1118.07 459.395 1116.98 460.16C1115.9 460.907 1114.55 461.28 1112.92 461.28ZM1109.34 451.984H1116.51V451.2C1116.51 449.987 1116.19 449.053 1115.56 448.4C1114.94 447.728 1114.06 447.392 1112.92 447.392C1111.78 447.392 1110.9 447.728 1110.26 448.4C1109.65 449.053 1109.34 449.987 1109.34 451.2V451.984Z" fill="#F3E223"/>
<path d="M905.624 139.28C903.757 139.28 902.283 138.757 901.2 137.712C900.117 136.667 899.576 135.229 899.576 133.4V124.16C899.576 122.331 900.117 120.893 901.2 119.848C902.283 118.803 903.757 118.28 905.624 118.28C907.453 118.28 908.909 118.812 909.992 119.876C911.075 120.921 911.616 122.349 911.616 124.16H909.096C909.096 123.003 908.788 122.116 908.172 121.5C907.575 120.865 906.725 120.548 905.624 120.548C904.523 120.548 903.655 120.865 903.02 121.5C902.404 122.116 902.096 123.003 902.096 124.16V133.4C902.096 134.557 902.404 135.453 903.02 136.088C903.655 136.704 904.523 137.012 905.624 137.012C906.725 137.012 907.575 136.704 908.172 136.088C908.788 135.453 909.096 134.557 909.096 133.4H911.616C911.616 135.211 911.075 136.648 909.992 137.712C908.909 138.757 907.453 139.28 905.624 139.28ZM915.189 139L920.509 118.56H923.897L929.189 139H926.641L925.297 133.568H919.109L917.765 139H915.189ZM919.613 131.44H924.765L923.197 125.14C922.898 123.945 922.665 122.947 922.497 122.144C922.329 121.341 922.226 120.819 922.189 120.576C922.152 120.819 922.049 121.341 921.881 122.144C921.713 122.947 921.48 123.936 921.181 125.112L919.613 131.44ZM934.218 139V118.56H936.738V136.704H945.978V139H934.218ZM951.007 139V118.56H953.527V136.704H962.767V139H951.007Z" fill="#F3E223"/>
<path d="M35.58 494.36C32.9107 493.763 30.8387 492.512 29.364 490.608C27.908 488.704 27.18 486.315 27.18 483.44V478.4C27.18 475.525 27.908 473.136 29.364 471.232C30.8387 469.328 32.9107 468.077 35.58 467.48V469.916C34.3853 470.196 33.34 470.728 32.444 471.512C31.5667 472.296 30.8853 473.276 30.4 474.452C29.9333 475.609 29.7 476.925 29.7 478.4V483.44C29.7 484.896 29.9333 486.212 30.4 487.388C30.8853 488.564 31.5667 489.544 32.444 490.328C33.34 491.112 34.3853 491.644 35.58 491.924V494.36ZM42.0091 494.36V491.924C43.2224 491.644 44.2677 491.112 45.1451 490.328C46.0224 489.544 46.6944 488.564 47.1611 487.388C47.6464 486.212 47.8891 484.896 47.8891 483.44V478.4C47.8891 476.925 47.6464 475.609 47.1611 474.452C46.6944 473.276 46.0224 472.296 45.1451 471.512C44.2677 470.728 43.2224 470.196 42.0091 469.916V467.48C44.6784 468.077 46.7411 469.328 48.1971 471.232C49.6717 473.136 50.4091 475.525 50.4091 478.4V483.44C50.4091 486.315 49.6717 488.704 48.1971 490.608C46.7411 492.512 44.6784 493.763 42.0091 494.36ZM63.6981 479.52C63.0821 479.52 62.5781 479.324 62.1861 478.932C61.7941 478.54 61.5981 478.036 61.5981 477.42C61.5981 476.823 61.7941 476.328 62.1861 475.936C62.5968 475.525 63.1008 475.32 63.6981 475.32H64.2581C64.8555 475.32 65.3501 475.525 65.7421 475.936C66.1528 476.328 66.3581 476.823 66.3581 477.42C66.3581 478.036 66.1621 478.54 65.7701 478.932C65.3781 479.324 64.8741 479.52 64.2581 479.52H63.6981ZM61.3181 495.48L62.8581 486.912H65.8821L63.9221 495.48H61.3181Z" fill="#F3E223"/>
<path d="M137.4 178.28C136.709 178.28 136.149 178.075 135.72 177.664C135.309 177.253 135.104 176.721 135.104 176.068C135.104 175.377 135.309 174.817 135.72 174.388C136.149 173.959 136.709 173.744 137.4 173.744C138.091 173.744 138.641 173.959 139.052 174.388C139.481 174.817 139.696 175.377 139.696 176.068C139.696 176.721 139.481 177.253 139.052 177.664C138.641 178.075 138.091 178.28 137.4 178.28ZM150.745 175.116L148.813 173.744L150.633 171.14C150.876 170.804 151.202 170.393 151.613 169.908C152.042 169.423 152.444 168.993 152.817 168.62C152.294 168.545 151.744 168.433 151.165 168.284C150.586 168.135 150.129 167.995 149.793 167.864L146.797 166.744L147.581 164.532L150.605 165.652C150.922 165.764 151.342 165.941 151.865 166.184C152.388 166.427 152.864 166.679 153.293 166.94C153.2 166.455 153.125 165.96 153.069 165.456C153.032 164.933 153.013 164.495 153.013 164.14V160.64H155.365V164.14C155.365 164.495 155.337 164.933 155.281 165.456C155.225 165.96 155.15 166.455 155.057 166.94C155.505 166.679 155.981 166.427 156.485 166.184C157.008 165.941 157.437 165.764 157.773 165.652L160.797 164.532L161.581 166.744L158.585 167.864C158.249 167.995 157.792 168.135 157.213 168.284C156.634 168.433 156.084 168.545 155.561 168.62C155.934 168.993 156.336 169.432 156.765 169.936C157.194 170.421 157.521 170.823 157.745 171.14L159.565 173.744L157.633 175.116L155.813 172.484C155.589 172.167 155.318 171.728 155.001 171.168C154.684 170.608 154.413 170.085 154.189 169.6C153.965 170.085 153.694 170.608 153.377 171.168C153.06 171.709 152.789 172.148 152.565 172.484L150.745 175.116Z" fill="#F3E223"/>
<path d="M620.4 491.28C619.709 491.28 619.149 491.075 618.72 490.664C618.309 490.253 618.104 489.721 618.104 489.068C618.104 488.377 618.309 487.817 618.72 487.388C619.149 486.959 619.709 486.744 620.4 486.744C621.091 486.744 621.641 486.959 622.052 487.388C622.481 487.817 622.696 488.377 622.696 489.068C622.696 489.721 622.481 490.253 622.052 490.664C621.641 491.075 621.091 491.28 620.4 491.28ZM633.745 488.116L631.813 486.744L633.633 484.14C633.876 483.804 634.202 483.393 634.613 482.908C635.042 482.423 635.444 481.993 635.817 481.62C635.294 481.545 634.744 481.433 634.165 481.284C633.586 481.135 633.129 480.995 632.793 480.864L629.797 479.744L630.581 477.532L633.605 478.652C633.922 478.764 634.342 478.941 634.865 479.184C635.388 479.427 635.864 479.679 636.293 479.94C636.2 479.455 636.125 478.96 636.069 478.456C636.032 477.933 636.013 477.495 636.013 477.14V473.64H638.365V477.14C638.365 477.495 638.337 477.933 638.281 478.456C638.225 478.96 638.15 479.455 638.057 479.94C638.505 479.679 638.981 479.427 639.485 479.184C640.008 478.941 640.437 478.764 640.773 478.652L643.797 477.532L644.581 479.744L641.585 480.864C641.249 480.995 640.792 481.135 640.213 481.284C639.634 481.433 639.084 481.545 638.561 481.62C638.934 481.993 639.336 482.432 639.765 482.936C640.194 483.421 640.521 483.823 640.745 484.14L642.565 486.744L640.633 488.116L638.813 485.484C638.589 485.167 638.318 484.728 638.001 484.168C637.684 483.608 637.413 483.085 637.189 482.6C636.965 483.085 636.694 483.608 636.377 484.168C636.06 484.709 635.789 485.148 635.565 485.484L633.745 488.116Z" fill="#F3E223"/>
</g>
<path d="M410.929 326.477C372.278 326.477 341.064 295.264 341.064 256.613C341.064 217.962 372.278 186.749 410.929 186.749C449.579 186.749 480.793 217.962 480.793 256.613C480.793 295.264 449.579 326.477 410.929 326.477Z" fill="black"/>
<path d="M448.285 246.248H434.58V266.931H448.285C453.968 266.931 458.69 262.21 458.69 256.527C458.69 250.803 453.968 246.248 448.285 246.248Z" fill="#FFF100"/>
<path d="M367.428 256.614C367.428 272.576 380.423 285.571 396.385 285.571C412.346 285.571 425.341 272.576 425.341 256.614C425.341 240.652 412.346 227.657 396.385 227.657C380.423 227.657 367.428 240.652 367.428 256.614Z" fill="#FFF100"/>
<path d="M516.621 274.113V239.098H526.023C528.293 239.098 530.26 239.545 531.923 240.441C533.618 241.304 534.929 242.535 535.856 244.134C536.783 245.701 537.247 247.556 537.247 249.698V263.465C537.247 265.607 536.783 267.478 535.856 269.077C534.929 270.676 533.618 271.923 531.923 272.818C530.26 273.682 528.293 274.113 526.023 274.113H516.621ZM521.37 269.892H526.023C528.037 269.892 529.62 269.317 530.772 268.165C531.923 267.014 532.498 265.447 532.498 263.465V249.698C532.498 247.716 531.923 246.165 530.772 245.046C529.62 243.894 528.037 243.319 526.023 243.319H521.37V269.892ZM555.504 274.593C552.402 274.593 549.923 273.682 548.069 271.859C546.214 270.036 545.287 267.558 545.287 264.424V247.732H550.035V264.424C550.035 266.279 550.515 267.75 551.474 268.837C552.466 269.892 553.809 270.42 555.504 270.42C557.23 270.42 558.589 269.892 559.581 268.837C560.572 267.75 561.068 266.279 561.068 264.424V247.732H565.816V264.424C565.816 267.558 564.873 270.036 562.986 271.859C561.132 273.682 558.637 274.593 555.504 274.593ZM584.696 274.593C581.467 274.593 578.876 273.698 576.926 271.907C574.975 270.084 574 267.59 574 264.424V257.373C574 254.239 574.975 251.777 576.926 249.986C578.876 248.163 581.467 247.252 584.696 247.252C587.798 247.252 590.292 248.083 592.179 249.746C594.098 251.377 595.105 253.616 595.201 256.462H590.5C590.404 254.863 589.829 253.632 588.774 252.768C587.75 251.873 586.391 251.425 584.696 251.425C582.874 251.425 581.419 251.953 580.331 253.008C579.276 254.031 578.749 255.486 578.749 257.373V264.424C578.749 266.343 579.276 267.814 580.331 268.837C581.419 269.86 582.874 270.372 584.696 270.372C586.423 270.372 587.798 269.94 588.822 269.077C589.845 268.213 590.404 266.982 590.5 265.383H595.201C595.105 268.229 594.098 270.484 592.179 272.147C590.292 273.778 587.798 274.593 584.696 274.593ZM603.145 274.113V239.098H607.893V258.476H612.738L619.837 247.732H625.209L616.911 260.347L625.641 274.113H620.173L612.786 262.553H607.893V274.113H603.145ZM631.666 274.113V239.098H641.068C643.338 239.098 645.305 239.545 646.967 240.441C648.662 241.304 649.973 242.535 650.901 244.134C651.828 245.701 652.292 247.556 652.292 249.698V263.465C652.292 265.607 651.828 267.478 650.901 269.077C649.973 270.676 648.662 271.923 646.967 272.818C645.305 273.682 643.338 274.113 641.068 274.113H631.666ZM636.415 269.892H641.068C643.082 269.892 644.665 269.317 645.816 268.165C646.967 267.014 647.543 265.447 647.543 263.465V249.698C647.543 247.716 646.967 246.165 645.816 245.046C644.665 243.894 643.082 243.319 641.068 243.319H636.415V269.892ZM660.475 274.113V239.098H670.596C673.826 239.098 676.368 239.913 678.223 241.544C680.11 243.143 681.053 245.349 681.053 248.163C681.053 249.986 680.477 251.617 679.326 253.056C678.207 254.463 676.752 255.326 674.961 255.646V255.79C676.304 255.95 677.487 256.43 678.511 257.229C679.566 258.029 680.381 259.052 680.957 260.299C681.565 261.514 681.868 262.857 681.868 264.328C681.868 267.334 680.909 269.716 678.99 271.475C677.104 273.234 674.529 274.113 671.268 274.113H660.475ZM665.128 253.871H670.548C672.339 253.871 673.746 253.408 674.769 252.48C675.793 251.521 676.304 250.226 676.304 248.595C676.304 246.932 675.793 245.637 674.769 244.71C673.746 243.75 672.355 243.271 670.596 243.271H665.128V253.871ZM665.128 269.94H670.836C672.787 269.94 674.322 269.429 675.441 268.405C676.56 267.35 677.12 265.927 677.12 264.136C677.12 262.282 676.56 260.779 675.441 259.627C674.322 258.476 672.787 257.901 670.836 257.901H665.128V269.94ZM717.998 274.113V269.796H727.351V243.367L717.95 250.37V244.998L725.912 239.098H732.1V269.796H739.774V274.113H717.998ZM756.88 274.593C755.665 274.593 754.673 274.225 753.906 273.49C753.17 272.754 752.803 271.811 752.803 270.66C752.803 269.445 753.17 268.453 753.906 267.686C754.673 266.918 755.665 266.535 756.88 266.535C758.095 266.535 759.07 266.918 759.806 267.686C760.573 268.453 760.957 269.445 760.957 270.66C760.957 271.811 760.573 272.754 759.806 273.49C759.07 274.225 758.095 274.593 756.88 274.593ZM785.401 274.593C782.107 274.593 779.501 273.698 777.582 271.907C775.664 270.084 774.704 267.622 774.704 264.52H779.453C779.453 266.343 779.981 267.782 781.036 268.837C782.123 269.86 783.578 270.372 785.401 270.372C787.256 270.372 788.711 269.844 789.766 268.789C790.853 267.734 791.397 266.295 791.397 264.472V262.266C791.397 260.443 790.869 259.004 789.814 257.949C788.791 256.893 787.384 256.366 785.593 256.366H775.904V239.098H794.898V243.415H780.317L780.412 252.097H785.833C789.094 252.097 791.621 252.992 793.411 254.783C795.234 256.542 796.146 259.036 796.146 262.266V264.472C796.146 267.606 795.17 270.084 793.22 271.907C791.301 273.698 788.695 274.593 785.401 274.593ZM814.402 274.593C813.187 274.593 812.196 274.225 811.428 273.49C810.693 272.754 810.325 271.811 810.325 270.66C810.325 269.445 810.693 268.453 811.428 267.686C812.196 266.918 813.187 266.535 814.402 266.535C815.617 266.535 816.592 266.918 817.328 267.686C818.095 268.453 818.479 269.445 818.479 270.66C818.479 271.811 818.095 272.754 817.328 273.49C816.592 274.225 815.617 274.593 814.402 274.593ZM832.754 274.113V269.748L844.65 257.181C846.185 255.582 847.272 254.127 847.912 252.816C848.583 251.473 848.919 250.162 848.919 248.883C848.919 247.06 848.392 245.605 847.336 244.518C846.281 243.399 844.858 242.839 843.067 242.839C841.213 242.839 839.742 243.399 838.654 244.518C837.567 245.637 837.023 247.156 837.023 249.075H832.275C832.339 245.877 833.346 243.335 835.297 241.448C837.279 239.561 839.869 238.618 843.067 238.618C846.329 238.618 848.919 239.545 850.838 241.4C852.788 243.255 853.764 245.733 853.764 248.835C853.764 250.53 853.316 252.305 852.421 254.159C851.525 255.982 850.006 257.997 847.864 260.203L838.558 269.796H854.195V274.113H832.754Z" fill="black"/>
</g>
<defs>
<linearGradient id="paint0_linear_13541_28138" x1="587" y1="-85" x2="587" y2="627" gradientUnits="userSpaceOnUse">
<stop stop-color="#FDEF00"/>
<stop offset="0.938633" stop-color="#FFFAA3"/>
</linearGradient>
<clipPath id="clip0_13541_28138">
<rect width="1200" height="514.29" fill="white"/>
</clipPath>
<clipPath id="clip1_13541_28138">
<rect width="1200" height="515" fill="white"/>
</clipPath>
</defs>
</svg>
