<svg width="1200" height="515" viewBox="0 0 1200 515" fill="none" xmlns="http://www.w3.org/2000/svg">
<g clip-path="url(#clip0_13485_25032)">
<rect width="1200" height="515" fill="url(#paint0_linear_13485_25032)"/>
<g clip-path="url(#clip1_13485_25032)">
<rect width="1200" height="515" fill="url(#paint1_linear_13485_25032)"/>
<path d="M70.5037 552C70.5037 552.826 71.1736 553.496 72 553.496C72.8264 553.496 73.4963 552.826 73.4963 552L72 552L70.5037 552ZM73.058 215.942C72.4737 215.358 71.5263 215.358 70.9419 215.942L61.4195 225.464C60.8352 226.049 60.8352 226.996 61.4195 227.58C62.0039 228.165 62.9513 228.165 63.5356 227.58L72 219.116L80.4643 227.58C81.0487 228.165 81.9961 228.165 82.5804 227.58C83.1647 226.996 83.1647 226.049 82.5804 225.464L73.058 215.942ZM72 552L73.4963 552L73.4963 217L72 217L70.5037 217L70.5037 552L72 552Z" fill="#2EAFFF"/>
<path d="M465.504 580.5C465.504 581.326 466.174 581.996 467 581.996C467.826 581.996 468.496 581.326 468.496 580.5L467 580.5L465.504 580.5ZM468.059 403.942C467.475 403.358 466.527 403.358 465.943 403.942L456.421 413.464C455.836 414.049 455.836 414.996 456.421 415.58C457.005 416.165 457.952 416.165 458.537 415.58L467.001 407.116L475.465 415.581C476.05 416.165 476.997 416.165 477.581 415.581C478.166 414.996 478.166 414.049 477.581 413.464L468.059 403.942ZM467 580.5L468.496 580.5L468.497 405L467.001 405L465.505 405L465.504 580.5L467 580.5Z" fill="#2EAFFF"/>
<path d="M1206.75 110.251C1207.57 110.251 1208.24 109.581 1208.24 108.754C1208.24 107.928 1207.57 107.258 1206.75 107.258L1206.75 108.754L1206.75 110.251ZM718.188 107.697C717.604 108.281 717.604 109.229 718.188 109.813L727.71 119.335C728.295 119.92 729.242 119.92 729.827 119.335C730.411 118.751 730.411 117.804 729.827 117.219L721.362 108.755L729.827 100.29C730.411 99.7062 730.411 98.7587 729.827 98.1744C729.242 97.5901 728.295 97.5901 727.71 98.1744L718.188 107.697ZM1206.75 108.754L1206.75 107.258L719.246 107.259L719.246 108.755L719.246 110.251L1206.75 110.251L1206.75 108.754Z" fill="#2EAFFF"/>
<path d="M723 854L847 854C877.376 854 902 829.376 902 799L902 471C902 440.624 926.624 416 957 416L995 416C1025.38 416 1050 391.376 1050 361L1050 -44" stroke="#2EAFFF" stroke-width="2.9926" stroke-linejoin="round"/>
<path d="M225 551.999L225 334.499C225 304.123 249.624 279.499 280 279.499L441 279.5C471.376 279.5 496 254.875 496 224.5L496 132.499C496 102.123 471.376 77.4986 441 77.4986L103.756 77.4986C73.3804 77.4986 48.7561 52.8743 48.7561 22.4986L48.7561 -279C48.7561 -309.376 24.1318 -334 -6.24389 -334L-196 -334" stroke="#2EAFFF" stroke-width="2.9926" stroke-linejoin="round"/>
<rect x="1037.46" y="83.9619" width="25.0762" height="50.0762" rx="12.5381" fill="#2EAFFF" stroke="#2EAFFF" stroke-width="1.92382"/>
<rect x="63.9619" y="426.962" width="16.0762" height="38.0762" rx="8.0381" fill="#2EAFFF" stroke="#2EAFFF" stroke-width="1.92382"/>
<path d="M85.2491 178.28C84.0918 178.28 83.1398 178 82.3931 177.44C81.6465 176.861 81.2078 176.068 81.0771 175.06H81.0491V178H78.5291V157.56H81.0491V162.04L80.9931 165.54H81.0211C81.1705 164.551 81.6185 163.767 82.3651 163.188C83.1305 162.609 84.0918 162.32 85.2491 162.32C86.7985 162.32 88.0305 162.833 88.9451 163.86C89.8598 164.887 90.3171 166.287 90.3171 168.06V172.568C90.3171 174.323 89.8598 175.713 88.9451 176.74C88.0305 177.767 86.7985 178.28 85.2491 178.28ZM84.4091 176.096C85.4731 176.096 86.3038 175.816 86.9011 175.256C87.4985 174.696 87.7971 173.791 87.7971 172.54V168.06C87.7971 166.791 87.4985 165.885 86.9011 165.344C86.3038 164.784 85.4731 164.504 84.4091 164.504C83.3825 164.504 82.5611 164.831 81.9451 165.484C81.3478 166.137 81.0491 167.043 81.0491 168.2V172.4C81.0491 173.557 81.3478 174.463 81.9451 175.116C82.5611 175.769 83.3825 176.096 84.4091 176.096ZM101.142 178.28C99.3315 178.28 97.8662 177.739 96.7462 176.656C95.6449 175.555 95.0942 174.043 95.0942 172.12V168.48C95.0942 166.557 95.6449 165.055 96.7462 163.972C97.8662 162.871 99.3315 162.32 101.142 162.32C102.356 162.32 103.41 162.563 104.306 163.048C105.221 163.533 105.93 164.215 106.434 165.092C106.938 165.969 107.19 167.005 107.19 168.2V170.944H97.5582V172.4C97.5582 173.539 97.8849 174.444 98.5382 175.116C99.1915 175.769 100.06 176.096 101.142 176.096C102.076 176.096 102.841 175.919 103.438 175.564C104.054 175.191 104.428 174.696 104.558 174.08H107.078C106.91 175.368 106.285 176.395 105.202 177.16C104.12 177.907 102.766 178.28 101.142 178.28ZM97.5582 168.984H104.726V168.2C104.726 166.987 104.409 166.053 103.774 165.4C103.158 164.728 102.281 164.392 101.142 164.392C100.004 164.392 99.1169 164.728 98.4822 165.4C97.8662 166.053 97.5582 166.987 97.5582 168.2V168.984ZM114.039 183.04V180.744H118.379C119.257 180.744 119.947 180.492 120.451 179.988C120.955 179.503 121.207 178.84 121.207 178V176.6L121.263 174.08H121.179C121.03 174.995 120.591 175.704 119.863 176.208C119.135 176.693 118.221 176.936 117.119 176.936C115.533 176.936 114.282 176.432 113.367 175.424C112.453 174.416 111.995 173.035 111.995 171.28V168.032C111.995 166.277 112.453 164.887 113.367 163.86C114.282 162.833 115.533 162.32 117.119 162.32C118.221 162.32 119.135 162.581 119.863 163.104C120.591 163.627 121.03 164.345 121.179 165.26H121.235V162.6H123.727V178C123.727 179.549 123.242 180.772 122.271 181.668C121.319 182.583 120.013 183.04 118.351 183.04H114.039ZM117.875 174.836C118.921 174.836 119.742 174.509 120.339 173.856C120.937 173.203 121.235 172.297 121.235 171.14V168.2C121.235 167.043 120.937 166.137 120.339 165.484C119.742 164.831 118.921 164.504 117.875 164.504C116.811 164.504 115.981 164.812 115.383 165.428C114.805 166.044 114.515 166.875 114.515 167.92V171.42C114.515 172.465 114.805 173.296 115.383 173.912C115.981 174.528 116.811 174.836 117.875 174.836ZM128.7 178V175.704H134.16V164.896H129.26V162.6H136.68V175.704H141.86V178H128.7ZM135.14 159.828C134.524 159.828 134.039 159.669 133.684 159.352C133.33 159.035 133.152 158.605 133.152 158.064C133.152 157.504 133.33 157.065 133.684 156.748C134.039 156.412 134.524 156.244 135.14 156.244C135.756 156.244 136.242 156.412 136.596 156.748C136.951 157.065 137.128 157.504 137.128 158.064C137.128 158.605 136.951 159.035 136.596 159.352C136.242 159.669 135.756 159.828 135.14 159.828ZM145.685 178V162.6H148.205V165.54H148.233C148.364 164.513 148.784 163.72 149.493 163.16C150.203 162.6 151.145 162.32 152.321 162.32C153.871 162.32 155.103 162.796 156.017 163.748C156.932 164.7 157.389 165.997 157.389 167.64V178H154.869V168.088C154.869 166.912 154.571 166.016 153.973 165.4C153.395 164.765 152.601 164.448 151.593 164.448C150.548 164.448 149.717 164.775 149.101 165.428C148.504 166.081 148.205 167.005 148.205 168.2V178H145.685ZM161.578 180.8V178.7H175.018V180.8H161.578ZM184.472 178.224C182.754 178.224 181.42 177.841 180.468 177.076C179.534 176.292 179.068 175.191 179.068 173.772H181.588C181.588 174.481 181.84 175.041 182.344 175.452C182.848 175.844 183.557 176.04 184.472 176.04H185.704C186.637 176.04 187.356 175.835 187.86 175.424C188.382 175.013 188.644 174.435 188.644 173.688C188.644 172.363 188.037 171.616 186.824 171.448L182.568 170.832C181.522 170.683 180.71 170.253 180.132 169.544C179.553 168.816 179.264 167.864 179.264 166.688C179.264 165.344 179.721 164.289 180.636 163.524C181.569 162.759 182.848 162.376 184.472 162.376H185.704C187.197 162.376 188.41 162.749 189.344 163.496C190.296 164.224 190.809 165.185 190.884 166.38H188.336C188.298 165.839 188.037 165.391 187.552 165.036C187.085 164.681 186.469 164.504 185.704 164.504H184.472C183.613 164.504 182.941 164.7 182.456 165.092C181.97 165.484 181.728 166.016 181.728 166.688C181.728 167.771 182.222 168.387 183.212 168.536L187.188 169.096C189.801 169.469 191.108 171 191.108 173.688C191.108 175.125 190.632 176.245 189.68 177.048C188.746 177.832 187.421 178.224 185.704 178.224H184.472ZM196.053 178V162.6H198.573V165.54H198.601C198.731 164.513 199.151 163.72 199.861 163.16C200.57 162.6 201.513 162.32 202.689 162.32C204.238 162.32 205.47 162.796 206.385 163.748C207.299 164.7 207.757 165.997 207.757 167.64V178H205.237V168.088C205.237 166.912 204.938 166.016 204.341 165.4C203.762 164.765 202.969 164.448 201.961 164.448C200.915 164.448 200.085 164.775 199.469 165.428C198.871 166.081 198.573 167.005 198.573 168.2V178H196.053ZM217.322 178.28C215.735 178.28 214.475 177.841 213.542 176.964C212.608 176.068 212.142 174.901 212.142 173.464C212.142 172.512 212.356 171.681 212.786 170.972C213.215 170.263 213.812 169.712 214.578 169.32C215.343 168.909 216.22 168.704 217.21 168.704H221.97V167.5C221.97 165.503 220.878 164.504 218.694 164.504C217.723 164.504 216.939 164.681 216.342 165.036C215.744 165.391 215.427 165.885 215.39 166.52H212.87C212.963 165.307 213.523 164.308 214.55 163.524C215.595 162.721 216.976 162.32 218.694 162.32C220.56 162.32 221.988 162.768 222.978 163.664C223.986 164.56 224.49 165.811 224.49 167.416V178H221.998V175.2H221.942C221.792 176.152 221.316 176.908 220.514 177.468C219.711 178.009 218.647 178.28 217.322 178.28ZM217.938 176.152C219.17 176.152 220.15 175.853 220.878 175.256C221.606 174.659 221.97 173.847 221.97 172.82V170.664H217.49C216.668 170.664 215.996 170.916 215.474 171.42C214.97 171.905 214.718 172.559 214.718 173.38C214.718 174.239 214.998 174.92 215.558 175.424C216.136 175.909 216.93 176.152 217.938 176.152ZM229.631 183.04V162.6H232.151V165.54H232.179C232.309 164.532 232.748 163.748 233.495 163.188C234.241 162.609 235.193 162.32 236.351 162.32C237.9 162.32 239.132 162.833 240.047 163.86C240.961 164.868 241.419 166.259 241.419 168.032V172.54C241.419 174.313 240.961 175.713 240.047 176.74C239.132 177.767 237.9 178.28 236.351 178.28C235.193 178.28 234.241 177.991 233.495 177.412C232.748 176.833 232.309 176.049 232.179 175.06H232.095L232.151 178.56V183.04H229.631ZM235.511 176.096C236.575 176.096 237.405 175.816 238.003 175.256C238.6 174.696 238.899 173.791 238.899 172.54V168.06C238.899 166.791 238.6 165.885 238.003 165.344C237.405 164.784 236.575 164.504 235.511 164.504C234.484 164.504 233.663 164.831 233.047 165.484C232.449 166.137 232.151 167.043 232.151 168.2V172.4C232.151 173.557 232.449 174.463 233.047 175.116C233.663 175.769 234.484 176.096 235.511 176.096ZM251.628 178.224C249.91 178.224 248.576 177.841 247.624 177.076C246.69 176.292 246.224 175.191 246.224 173.772H248.744C248.744 174.481 248.996 175.041 249.5 175.452C250.004 175.844 250.713 176.04 251.628 176.04H252.86C253.793 176.04 254.512 175.835 255.016 175.424C255.538 175.013 255.8 174.435 255.8 173.688C255.8 172.363 255.193 171.616 253.98 171.448L249.724 170.832C248.678 170.683 247.866 170.253 247.288 169.544C246.709 168.816 246.42 167.864 246.42 166.688C246.42 165.344 246.877 164.289 247.792 163.524C248.725 162.759 250.004 162.376 251.628 162.376H252.86C254.353 162.376 255.566 162.749 256.5 163.496C257.452 164.224 257.965 165.185 258.04 166.38H255.492C255.454 165.839 255.193 165.391 254.708 165.036C254.241 164.681 253.625 164.504 252.86 164.504H251.628C250.769 164.504 250.097 164.7 249.612 165.092C249.126 165.484 248.884 166.016 248.884 166.688C248.884 167.771 249.378 168.387 250.368 168.536L254.344 169.096C256.957 169.469 258.264 171 258.264 173.688C258.264 175.125 257.788 176.245 256.836 177.048C255.902 177.832 254.577 178.224 252.86 178.224H251.628ZM263.209 178V157.56H265.729V165.54H265.757C265.887 164.513 266.307 163.72 267.017 163.16C267.726 162.6 268.669 162.32 269.845 162.32C271.394 162.32 272.626 162.796 273.541 163.748C274.455 164.7 274.913 165.997 274.913 167.64V178H272.393V168.06C272.393 166.903 272.094 166.016 271.497 165.4C270.918 164.765 270.125 164.448 269.117 164.448C268.071 164.448 267.241 164.775 266.625 165.428C266.027 166.081 265.729 167.005 265.729 168.2V178H263.209ZM285.822 178.224C283.974 178.224 282.499 177.683 281.398 176.6C280.315 175.517 279.774 174.005 279.774 172.064V168.536C279.774 166.576 280.315 165.064 281.398 164C282.481 162.917 283.955 162.376 285.822 162.376C287.689 162.376 289.163 162.917 290.246 164C291.329 165.064 291.87 166.576 291.87 168.536V172.064C291.87 174.005 291.319 175.517 290.218 176.6C289.135 177.683 287.67 178.224 285.822 178.224ZM285.822 175.984C286.923 175.984 287.782 175.676 288.398 175.06C289.033 174.444 289.35 173.539 289.35 172.344V168.256C289.35 167.061 289.033 166.156 288.398 165.54C287.782 164.924 286.923 164.616 285.822 164.616C284.739 164.616 283.881 164.924 283.246 165.54C282.611 166.156 282.294 167.061 282.294 168.256V172.344C282.294 173.539 282.611 174.444 283.246 175.06C283.881 175.676 284.739 175.984 285.822 175.984ZM304.151 178C302.882 178 301.864 177.636 301.099 176.908C300.334 176.161 299.951 175.172 299.951 173.94V164.896H295.527V162.6H299.951V158.26H302.471V162.6H308.771V164.896H302.471V173.94C302.471 174.463 302.62 174.892 302.919 175.228C303.236 175.545 303.647 175.704 304.151 175.704H308.631V178H304.151Z" fill="#2EAFFF"/>
<path d="M640.269 484V468.6H642.789V471.54H642.845C642.975 470.551 643.395 469.767 644.105 469.188C644.814 468.609 645.766 468.32 646.961 468.32C648.566 468.32 649.798 468.805 650.657 469.776C651.534 470.728 651.973 472.091 651.973 473.864V475.18H649.453V473.864C649.453 471.624 648.361 470.504 646.177 470.504C645.075 470.504 644.235 470.821 643.657 471.456C643.078 472.091 642.789 473.005 642.789 474.2V484H640.269ZM662.322 484.224C660.474 484.224 658.999 483.683 657.898 482.6C656.815 481.517 656.274 480.005 656.274 478.064V474.536C656.274 472.576 656.815 471.064 657.898 470C658.981 468.917 660.455 468.376 662.322 468.376C664.189 468.376 665.663 468.917 666.746 470C667.829 471.064 668.37 472.576 668.37 474.536V478.064C668.37 480.005 667.819 481.517 666.718 482.6C665.635 483.683 664.17 484.224 662.322 484.224ZM662.322 481.984C663.423 481.984 664.282 481.676 664.898 481.06C665.533 480.444 665.85 479.539 665.85 478.344V474.256C665.85 473.061 665.533 472.156 664.898 471.54C664.282 470.924 663.423 470.616 662.322 470.616C661.239 470.616 660.381 470.924 659.746 471.54C659.111 472.156 658.794 473.061 658.794 474.256V478.344C658.794 479.539 659.111 480.444 659.746 481.06C660.381 481.676 661.239 481.984 662.322 481.984ZM674.099 484L671.579 468.6H673.763L675.331 479.464C675.387 479.875 675.443 480.332 675.499 480.836C675.555 481.321 675.592 481.723 675.611 482.04C675.648 481.723 675.686 481.321 675.723 480.836C675.779 480.332 675.844 479.875 675.919 479.464L677.851 468.6H680.371L682.303 479.464C682.378 479.875 682.443 480.332 682.499 480.836C682.574 481.321 682.62 481.723 682.639 482.04C682.676 481.723 682.723 481.321 682.779 480.836C682.835 480.332 682.891 479.875 682.947 479.464L684.571 468.6H686.643L684.011 484H681.239L679.475 473.36C679.4 472.837 679.326 472.287 679.251 471.708C679.195 471.111 679.148 470.653 679.111 470.336C679.092 470.653 679.046 471.111 678.971 471.708C678.896 472.287 678.812 472.837 678.719 473.36L676.871 484H674.099ZM689.18 486.8V484.7H702.62V486.8H689.18ZM706.669 484V481.704H712.129V470.896H707.229V468.6H714.649V481.704H719.829V484H706.669ZM713.109 465.828C712.493 465.828 712.008 465.669 711.653 465.352C711.298 465.035 711.121 464.605 711.121 464.064C711.121 463.504 711.298 463.065 711.653 462.748C712.008 462.412 712.493 462.244 713.109 462.244C713.725 462.244 714.21 462.412 714.565 462.748C714.92 463.065 715.097 463.504 715.097 464.064C715.097 464.605 714.92 465.035 714.565 465.352C714.21 465.669 713.725 465.828 713.109 465.828ZM728.582 484.28C727.051 484.28 725.819 483.767 724.886 482.74C723.971 481.713 723.514 480.323 723.514 478.568V474.06C723.514 472.287 723.971 470.887 724.886 469.86C725.801 468.833 727.033 468.32 728.582 468.32C729.739 468.32 730.691 468.609 731.438 469.188C732.203 469.767 732.661 470.551 732.81 471.54H732.838L732.782 468.04V463.56H735.302V484H732.782V481.06H732.754C732.623 482.068 732.185 482.861 731.438 483.44C730.691 484 729.739 484.28 728.582 484.28ZM729.422 482.096C730.467 482.096 731.289 481.769 731.886 481.116C732.483 480.463 732.782 479.557 732.782 478.4V474.2C732.782 473.043 732.483 472.137 731.886 471.484C731.289 470.831 730.467 470.504 729.422 470.504C728.358 470.504 727.527 470.784 726.93 471.344C726.333 471.885 726.034 472.791 726.034 474.06V478.54C726.034 479.791 726.333 480.696 726.93 481.256C727.527 481.816 728.358 482.096 729.422 482.096Z" fill="#2EAFFF"/>
<path d="M399.4 45.28C398.709 45.28 398.149 45.0747 397.72 44.664C397.309 44.2533 397.104 43.7213 397.104 43.068C397.104 42.3773 397.309 41.8173 397.72 41.388C398.149 40.9587 398.709 40.744 399.4 40.744C400.091 40.744 400.641 40.9587 401.052 41.388C401.481 41.8173 401.696 42.3773 401.696 43.068C401.696 43.7213 401.481 44.2533 401.052 44.664C400.641 45.0747 400.091 45.28 399.4 45.28ZM412.745 42.116L410.813 40.744L412.633 38.14C412.876 37.804 413.202 37.3933 413.613 36.908C414.042 36.4227 414.444 35.9933 414.817 35.62C414.294 35.5453 413.744 35.4333 413.165 35.284C412.586 35.1347 412.129 34.9947 411.793 34.864L408.797 33.744L409.581 31.532L412.605 32.652C412.922 32.764 413.342 32.9413 413.865 33.184C414.388 33.4267 414.864 33.6787 415.293 33.94C415.2 33.4547 415.125 32.96 415.069 32.456C415.032 31.9333 415.013 31.4947 415.013 31.14V27.64H417.365V31.14C417.365 31.4947 417.337 31.9333 417.281 32.456C417.225 32.96 417.15 33.4547 417.057 33.94C417.505 33.6787 417.981 33.4267 418.485 33.184C419.008 32.9413 419.437 32.764 419.773 32.652L422.797 31.532L423.581 33.744L420.585 34.864C420.249 34.9947 419.792 35.1347 419.213 35.284C418.634 35.4333 418.084 35.5453 417.561 35.62C417.934 35.9933 418.336 36.432 418.765 36.936C419.194 37.4213 419.521 37.8227 419.745 38.14L421.565 40.744L419.633 42.116L417.813 39.484C417.589 39.1667 417.318 38.728 417.001 38.168C416.684 37.608 416.413 37.0853 416.189 36.6C415.965 37.0853 415.694 37.608 415.377 38.168C415.06 38.7093 414.789 39.148 414.565 39.484L412.745 42.116Z" fill="#2EAFFF"/>
</g>
<path d="M770.43 192.587V228.292C770.43 229.949 769.087 231.292 767.43 231.292H617.42C615.763 231.292 614.42 229.949 614.42 228.292V180.23C614.42 178.573 615.763 177.23 617.42 177.23H659.186C659.85 177.23 660.495 177.45 661.02 177.856L675.395 188.961C675.92 189.367 676.565 189.587 677.229 189.587H767.43C769.087 189.587 770.43 190.93 770.43 192.587Z" fill="#99D8FF" stroke="#478DB8" stroke-width="3.21" stroke-miterlimit="10"/>
<path d="M619.734 309.897C666.561 310.019 747.503 310.168 766.409 309.977C768.818 309.952 770.428 308.211 770.428 305.802V205.735C770.428 202.787 768.039 200.398 765.092 200.398H619.757C616.809 200.398 614.42 202.787 614.42 205.735V304.561C614.42 307.503 616.792 309.89 619.734 309.897Z" fill="#B3E2FF" stroke="#478DB8" stroke-width="3.21" stroke-miterlimit="10"/>
<path d="M686.07 278.854C685.49 279.492 685.586 279.637 688.813 283.009V282.999C690.652 284.921 692.369 286.447 692.627 286.391C692.878 286.34 702.208 277.182 713.344 266.052C730.392 249.019 733.516 245.748 733.114 245.364C732.062 244.361 727.254 242.087 726.767 242.363C726.214 242.685 686.99 277.843 686.07 278.854Z" fill="#478DB8"/>
<path d="M677.287 270.711C677.177 270.99 678.277 272.336 680.017 274.049L680.012 274.045C681.615 275.623 683.033 276.915 683.165 276.915C683.613 276.915 706.278 257.09 706.278 256.704C706.278 256.336 700.972 252.388 700.452 252.369C700.031 252.356 677.486 270.205 677.287 270.711Z" fill="#478DB8"/>
<path d="M669.772 262.952C669.587 263.119 670.443 264.323 671.805 265.813C673.098 267.227 674.436 268.385 674.779 268.385C675.491 268.385 686.107 260.382 686.107 259.845C686.107 259.408 681.376 255.436 680.849 255.429C680.525 255.425 670.722 262.083 669.772 262.952Z" fill="#478DB8"/>
<path d="M663.308 256.328C662.866 256.73 663.099 257.091 665.049 259.023V259.019C666.356 260.314 667.524 261.194 667.833 261.116C668.61 260.923 700.554 239.013 700.554 238.675C700.554 238.202 696.238 235.643 695.739 235.82C695.107 236.052 663.943 255.75 663.308 256.328Z" fill="#478DB8"/>
<path d="M683.508 253.609C683.5 253.83 684.545 254.865 685.832 255.911C687.119 256.957 688.41 257.81 688.704 257.807C689.27 257.807 716.307 237.294 716.502 236.72C716.637 236.324 712.425 233.94 711.592 233.94C711.282 233.94 705.968 237.498 699.786 241.847C693.6 246.196 687.413 250.531 686.032 251.481C684.652 252.432 683.515 253.389 683.508 253.609Z" fill="#478DB8"/>
<path d="M657.414 250.507C657.013 250.865 657.235 251.249 658.771 252.84H658.759C659.77 253.886 660.848 254.743 661.156 254.742C661.801 254.742 683.573 241.358 683.742 240.86C683.872 240.476 679.78 237.585 679.394 237.79C677.065 239.03 657.762 250.196 657.414 250.507Z" fill="#478DB8"/>
<path d="M702.753 250.805C702.82 251.001 704.031 251.974 705.443 252.967V252.973C706.857 253.966 708.28 254.733 708.606 254.678C709.317 254.549 724.565 241.42 724.571 240.912C724.574 240.714 723.325 239.898 721.794 239.1C719.372 237.836 718.928 237.706 718.363 238.096C715.463 240.103 702.658 250.525 702.753 250.805Z" fill="#478DB8"/>
<path d="M651.715 245.603L653.572 247.445L653.575 247.443C654.596 248.456 655.476 249.285 655.53 249.285C656.017 249.285 696.371 226.209 696.371 225.929C696.371 225.723 695.526 225.15 694.494 224.654L692.617 223.753L672.993 234.155C662.196 239.876 652.993 244.792 652.539 245.08L651.715 245.603Z" fill="#478DB8"/>
<path d="M682.101 236.549C682.099 236.766 682.843 237.491 683.752 238.159C684.662 238.828 685.666 239.38 685.981 239.385C686.612 239.396 702.644 229.58 702.644 229.176C702.644 229.034 701.7 228.425 700.546 227.823L698.448 226.727L690.275 231.441C685.781 234.035 682.102 236.333 682.101 236.549Z" fill="#478DB8"/>
<path d="M698.13 234.509C698.127 234.729 699.025 235.454 700.126 236.12C701.227 236.787 702.297 237.337 702.502 237.342C702.876 237.351 707.519 234.336 708.65 233.35C708.981 233.061 709.176 232.707 709.085 232.563C708.782 232.083 705.037 230.148 704.617 230.254C703.703 230.486 698.137 234.137 698.13 234.509Z" fill="#478DB8"/>
<path d="M580.46 235.23C610.859 235.23 635.502 242.635 635.502 251.77V347.689C635.502 356.823 610.859 364.23 580.46 364.23C550.062 364.23 525.419 356.723 525.419 347.689V251.77C525.419 242.635 550.062 235.23 580.46 235.23Z" fill="#B3E2FF"/>
<path d="M525.419 251.77C525.419 242.635 550.062 235.23 580.46 235.23C610.859 235.23 635.502 242.635 635.502 251.77M525.419 251.77V251.768V347.689M525.419 251.77V347.689M635.502 251.77C635.502 260.905 635.502 251.768 635.502 251.768M635.502 251.77V251.768M525.419 347.689C525.419 356.723 550.062 364.23 580.46 364.23C610.859 364.23 635.502 356.823 635.502 347.689V251.768" stroke="#478DB8" stroke-width="3.21" stroke-miterlimit="10"/>
<path d="M635.502 315.053C635.502 324.186 610.859 331.593 580.46 331.593C550.062 331.593 525.419 324.186 525.419 315.053" stroke="#478DB8" stroke-width="3.21" stroke-miterlimit="10"/>
<path d="M635.502 283.078C635.502 292.212 610.859 299.619 580.46 299.619C550.062 299.619 525.419 292.212 525.419 283.078" stroke="#478DB8" stroke-width="3.21" stroke-miterlimit="10"/>
<path d="M580.46 268.311C550.062 268.311 525.419 260.905 525.419 251.77C525.419 242.635 550.062 235.23 580.46 235.23C610.859 235.23 635.502 242.635 635.502 251.77C635.502 260.905 610.859 268.311 580.46 268.311Z" fill="#B3E2FF" stroke="#478DB8" stroke-width="3.21" stroke-miterlimit="10"/>
<path d="M406.427 232H511.573C513.469 232 515 230.939 515 229.626V135.374C515 134.061 513.469 133 511.573 133H407C404.791 133 403 134.791 403 137L403 229.619C403 230.932 404.531 232 406.427 232Z" fill="#B3E2FF" stroke="#478DB8" stroke-width="3.21" stroke-miterlimit="10"/>
<rect x="417.42" y="152.23" width="83" height="15" rx="2" fill="#99D8FF" stroke="#478DB8" stroke-width="3.21" stroke-miterlimit="10"/>
<rect x="417.42" y="176.23" width="83" height="15" rx="2" fill="#99D8FF" stroke="#478DB8" stroke-width="3.21" stroke-miterlimit="10"/>
<rect x="417.42" y="200.23" width="83" height="15" rx="2" fill="#99D8FF" stroke="#478DB8" stroke-width="3.21" stroke-miterlimit="10"/>
<path d="M500.42 159.23L565.42 159.23C573.704 159.23 580.42 165.945 580.42 174.23L580.42 241.5" stroke="#478DB8" stroke-width="3.21" stroke-miterlimit="10"/>
<path d="M500.42 183.23L565.42 183.23C573.704 183.23 580.42 189.945 580.42 198.23L580.42 210.23" stroke="#478DB8" stroke-width="3.21" stroke-miterlimit="10"/>
<path d="M500.42 208.23L565.42 208.23C573.704 208.23 580.42 214.945 580.42 223.23L580.42 235.23" stroke="#478DB8" stroke-width="3.21" stroke-miterlimit="10"/>
<path d="M580.42 364.23L580.42 376.23C580.42 384.514 587.136 391.23 595.42 391.23L675.42 391.23C683.704 391.23 690.42 384.514 690.42 376.23L690.42 310.23" stroke="#478DB8" stroke-width="3.21" stroke-miterlimit="10"/>
<path d="M644.322 389.659C645.034 390.034 645.034 391.053 644.322 391.429L627.466 400.315C626.8 400.666 626 400.183 626 399.43L626 381.658C626 380.905 626.8 380.422 627.466 380.773L644.322 389.659Z" fill="#478DB8"/>
<path d="M581.429 258.322C581.053 259.034 580.034 259.034 579.659 258.322L570.773 241.466C570.422 240.8 570.905 240 571.658 240L589.43 240C590.183 240 590.666 240.8 590.315 241.466L581.429 258.322Z" fill="#478DB8"/>
</g>
<defs>
<linearGradient id="paint0_linear_13485_25032" x1="589" y1="-26.5" x2="587" y2="627" gradientUnits="userSpaceOnUse">
<stop stop-color="#FDEF00"/>
<stop offset="0.938633" stop-color="#FFFAA3"/>
</linearGradient>
<linearGradient id="paint1_linear_13485_25032" x1="589" y1="-26.5" x2="587" y2="627" gradientUnits="userSpaceOnUse">
<stop stop-color="#2EAFFF"/>
<stop offset="0.938633" stop-color="#99D8FF"/>
</linearGradient>
<clipPath id="clip0_13485_25032">
<rect width="1200" height="515" fill="white"/>
</clipPath>
<clipPath id="clip1_13485_25032">
<rect width="1200" height="515" fill="white"/>
</clipPath>
</defs>
</svg>
