<svg width="367" height="206" viewBox="0 0 367 206" fill="none" xmlns="http://www.w3.org/2000/svg">
<g clip-path="url(#clip0_4037_232)">
<rect width="367" height="206" fill="black"/>
<path d="M154.484 140.033L274.906 140.033C282.507 140.033 288.669 133.872 288.669 126.271L288.668 51.1506C288.668 43.5497 294.83 37.3881 302.431 37.3881L386.038 37.3881C393.639 37.3881 399.801 43.5497 399.801 51.1505L399.801 202.538C399.801 210.139 393.639 216.301 386.038 216.301L154.484 216.301C146.883 216.301 140.722 210.139 140.722 202.538L140.722 153.796C140.722 146.195 146.883 140.033 154.484 140.033Z" fill="url(#paint0_linear_4037_232)"/>
<path d="M46.6774 128.12L46.6772 54.0746C46.6772 46.4738 52.8389 40.312 60.4398 40.312L238.55 40.3121C246.151 40.3121 252.313 34.1504 252.313 26.5496L252.313 -6.63762C252.313 -14.2384 246.151 -20.4001 238.55 -20.4001L7.34003 -20.4001C-0.260789 -20.4001 -6.42247 -14.2384 -6.42247 -6.63763L-6.42248 128.12C-6.42248 135.721 -0.260803 141.883 7.34001 141.883L32.9149 141.883C40.5158 141.883 46.6775 135.721 46.6774 128.12Z" fill="url(#paint1_linear_4037_232)"/>
<path d="M346.815 93.5851L466.03 93.5851L514.029 93.5851C521.63 93.5851 527.792 99.7468 527.792 107.348L527.792 222.953C527.792 230.553 521.63 236.715 514.029 236.715L346.815 236.715C339.214 236.715 333.052 230.553 333.052 222.953L333.052 107.348C333.052 99.7468 339.214 93.5851 346.815 93.5851Z" fill="black"/>
<rect x="16.0562" y="168.174" width="89.525" height="21.7625" rx="10.8813" fill="#EEEEEE"/>
<path d="M33.7226 177.411V178.782C33.5115 178.751 33.3322 178.751 33.1211 178.751C32.4037 178.751 31.9289 179.015 31.9289 180.08V183.056H30.4728V177.379H31.9078V178.371C32.2348 177.664 32.7413 177.39 33.406 177.39C33.501 177.39 33.6276 177.4 33.7226 177.411ZM39.7358 180.618H35.5469C35.6314 181.589 36.2855 182.064 36.9819 182.064C37.4356 182.064 37.8788 181.906 38.1742 181.41H39.6725C39.3665 182.254 38.5435 183.193 36.9925 183.193C35.1671 183.193 34.1014 181.832 34.1014 180.196C34.1014 178.508 35.2726 177.252 36.9503 177.252C38.7018 177.252 39.7885 178.614 39.7358 180.618ZM36.9397 178.318C36.391 178.318 35.6841 178.656 35.568 179.616H38.2586C38.227 178.656 37.5517 178.318 36.9397 178.318ZM43.2973 181.747C44.1097 181.747 44.6056 181.061 44.6056 180.049C44.6056 179.046 44.1097 178.36 43.2973 178.36C42.5481 178.36 41.9889 179.109 41.9889 180.059C41.9889 180.998 42.5481 181.747 43.2973 181.747ZM44.5528 177.379H45.9984V182.486C45.9984 184.343 44.9538 185.039 43.2128 185.039C41.9994 185.039 40.9338 184.596 40.7333 183.277H42.1155C42.2421 183.741 42.6325 183.974 43.2867 183.974C44.0464 183.974 44.5528 183.615 44.5528 182.76V182.001C44.1836 182.623 43.5188 182.855 42.928 182.855C41.5352 182.855 40.459 181.705 40.459 180.049C40.459 178.434 41.5035 177.252 42.928 177.252C43.6454 177.252 44.2996 177.622 44.5528 178.118V177.379ZM47.3198 177.379H48.7758V183.056H47.3198V177.379ZM47.3198 175.406H48.7758V176.757H47.3198V175.406ZM54.6394 179.088H53.2782C53.1622 178.614 52.7401 178.276 52.0648 178.276C51.5267 178.276 51.1469 178.476 51.1469 178.825C51.1469 179.131 51.3685 179.363 51.9066 179.479L52.6663 179.648C53.7953 179.901 54.7554 180.186 54.7554 181.357C54.7554 182.496 53.5842 183.193 52.297 183.193C50.9042 183.193 49.8491 182.475 49.7119 181.178H51.1152C51.1996 181.726 51.5795 182.138 52.3392 182.138C52.9723 182.138 53.3626 181.906 53.3626 181.494C53.3626 181.072 52.93 180.914 52.4341 180.798L51.59 180.618C50.5244 180.397 49.8174 179.954 49.8174 178.92C49.8174 177.907 50.9148 177.231 52.1387 177.231C53.3204 177.231 54.4389 177.78 54.6394 179.088ZM55.9386 177.379V175.839H57.3946V177.379H58.5764V178.381H57.3946V181.315C57.3946 181.895 57.5951 182.011 58.1121 182.011H58.5553V183.056H57.4896C56.1812 183.056 55.9386 182.655 55.9386 181.526V178.381H55.1367V177.379H55.9386ZM64.7744 180.618H60.5856C60.67 181.589 61.3241 182.064 62.0205 182.064C62.4742 182.064 62.9174 181.906 63.2128 181.41H64.7111C64.4051 182.254 63.5821 183.193 62.0311 183.193C60.2057 183.193 59.14 181.832 59.14 180.196C59.14 178.508 60.3112 177.252 61.9889 177.252C63.7404 177.252 64.8272 178.614 64.7744 180.618ZM61.9783 178.318C61.4297 178.318 60.7227 178.656 60.6067 179.616H63.2972C63.2656 178.656 62.5903 178.318 61.9783 178.318ZM68.9621 177.411V178.782C68.7511 178.751 68.5717 178.751 68.3607 178.751C67.6432 178.751 67.1684 179.015 67.1684 180.08V183.056H65.7123V177.379H67.1473V178.371C67.4744 177.664 67.9808 177.39 68.6456 177.39C68.7405 177.39 68.8671 177.4 68.9621 177.411ZM73.5465 177.379V178.128C73.8736 177.548 74.4856 177.252 75.1925 177.252C76.5536 177.252 77.1551 178.075 77.1551 179.479V183.056H75.699V179.795C75.699 179.067 75.5407 178.424 74.7177 178.424C73.7576 178.424 73.5465 179.204 73.5465 180.101V183.056H72.0905V177.379H73.5465ZM80.8449 178.392C80.043 178.392 79.4732 179.036 79.4732 180.228C79.4732 181.42 80.043 182.053 80.8449 182.053C81.6468 182.053 82.2165 181.42 82.2165 180.228C82.2165 179.036 81.6468 178.392 80.8449 178.392ZM80.8449 183.193C79.4099 183.193 77.996 182.212 77.996 180.228C77.996 178.234 79.4099 177.252 80.8449 177.252C82.2798 177.252 83.6937 178.234 83.6937 180.228C83.6937 182.212 82.2798 183.193 80.8449 183.193ZM86.2226 181.304L87.1089 177.379H88.66L89.5568 181.294L90.3165 177.379H91.762L90.422 183.056H88.9237L87.8897 178.751L86.8451 183.056H85.3469L84.0174 177.379H85.4629L86.2226 181.304Z" fill="black"/>
<path d="M27.9086 23.2415C27.9086 18.0057 24.796 17.2094 21.6111 17.2094H20.0187V29.2976H21.6111C24.796 29.2976 27.9086 28.5255 27.9086 23.2415ZM16.5683 14.5071H21.7559C27.3054 14.5071 31.4795 16.2926 31.4795 23.2415C31.4795 30.1904 27.3054 32 21.7559 32H16.5683V14.5071ZM41.5417 32V30.2869C40.7937 31.6139 39.3702 32.3137 37.7536 32.3137C34.6411 32.3137 33.3864 30.4075 33.3864 27.2226V19.0191H36.7161V26.4988C36.7161 28.236 36.9815 29.6354 38.8394 29.6354C41.0592 29.6354 41.5417 27.8258 41.5417 25.7749V19.0191H44.8714V32H41.5417ZM53.5279 18.7295C56.2544 18.7295 58.9568 20.2496 59.4152 23.4586H56.2303C55.9649 22.204 54.8067 21.3112 53.5279 21.3112C51.7907 21.3112 50.4154 22.783 50.4154 25.4854C50.4154 28.2119 51.7183 29.732 53.5521 29.732C54.7102 29.732 55.8925 29.1288 56.3509 27.5845H59.5359C58.7637 31.1314 56.0855 32.3137 53.3832 32.3137C49.4985 32.3137 47.0133 29.4665 47.0133 25.5337C47.0133 21.5766 49.6433 18.7295 53.5279 18.7295ZM61.5242 14.5071H64.8538V24.2307L69.583 19.0191H73.3228L68.6661 23.9895L73.5882 32H69.8484L66.4463 26.3781L64.8538 28.0912V32H61.5242V14.5071ZM86.3204 23.2415C86.3204 18.0057 83.2078 17.2094 80.0229 17.2094H78.4305V29.2976H80.0229C83.2078 29.2976 86.3204 28.5255 86.3204 23.2415ZM74.9801 14.5071H80.1677C85.7172 14.5071 89.8913 16.2926 89.8913 23.2415C89.8913 30.1904 85.7172 32 80.1677 32H74.9801V14.5071ZM92.3222 32V14.5071H99.1264C102.191 14.5071 105.496 15.4722 105.496 19.0673C105.496 20.708 104.41 22.1798 103.518 22.7589C104.869 23.4104 106.124 24.4238 106.124 26.8366C106.124 30.6006 103.011 32 99.4159 32H92.3222ZM95.7726 24.3272V29.2976H99.5848C101.612 29.2976 102.601 28.4532 102.601 26.8366C102.601 25.1959 101.587 24.3272 99.44 24.3272H95.7726ZM95.7726 17.2094V21.7214H99.3435C100.984 21.7214 101.949 20.9493 101.949 19.4051C101.949 18.0298 100.96 17.2094 99.3435 17.2094H95.7726ZM15 56L21.5146 38.5071H24.9891L31.5278 56H27.7879L26.5574 52.4532H19.7532L18.5227 56H15ZM23.1553 42.7295L20.7425 49.6302H25.5681L23.1553 42.7295ZM48.9862 56V48.4479C48.9862 47.0243 48.8656 45.4077 46.9112 45.4077C44.6914 45.4077 44.3295 47.2656 44.3295 49.2441V56H40.9998V48.4479C40.9998 47.0243 40.8791 45.4077 38.9248 45.4077C36.705 45.4077 36.343 47.2656 36.343 49.2441V56H33.0134V43.0191H36.343V44.7322C37.091 43.4534 38.3939 42.7295 39.9623 42.7295C42.1579 42.7295 43.1472 43.9118 43.6539 44.8528C44.6914 43.4051 45.9702 42.7295 47.9246 42.7295C51.1819 42.7295 52.3159 44.7563 52.3159 47.8206V56H48.9862ZM65.5385 46.9278H62.4259C62.1605 45.842 61.1954 45.0699 59.6512 45.0699C58.4207 45.0699 57.5521 45.5284 57.5521 46.3246C57.5521 47.0243 58.0588 47.5551 59.2893 47.8206L61.0265 48.2066C63.6082 48.7857 65.8039 49.4371 65.8039 52.1154C65.8039 54.7212 63.1257 56.3137 60.182 56.3137C56.9971 56.3137 54.5843 54.673 54.2706 51.7052H57.4797C57.6727 52.9599 58.5413 53.9009 60.2785 53.9009C61.7262 53.9009 62.619 53.37 62.619 52.429C62.619 51.4639 61.6297 51.102 60.4957 50.8366L58.5654 50.4264C56.1285 49.9197 54.5119 48.9063 54.5119 46.5418C54.5119 44.2255 57.0212 42.6813 59.8201 42.6813C62.5225 42.6813 65.08 43.9359 65.5385 46.9278ZM68.5094 43.0191V39.4963H71.8391V43.0191H74.5415V45.3112H71.8391V52.0189C71.8391 53.3459 72.2976 53.6113 73.4798 53.6113H74.4932V56H72.0563C69.0644 56 68.5094 55.0831 68.5094 52.5014V45.3112H66.6757V43.0191H68.5094ZM88.7149 50.4264H79.136C79.329 52.6462 80.825 53.732 82.4174 53.732C83.4549 53.732 84.4683 53.37 85.1439 52.236H88.5701C87.8704 54.1663 85.9884 56.3137 82.4416 56.3137C78.2674 56.3137 75.8305 53.2011 75.8305 49.4613C75.8305 45.6008 78.5087 42.7295 82.3451 42.7295C86.3503 42.7295 88.8355 45.842 88.7149 50.4264ZM82.3209 45.1665C81.0663 45.1665 79.4497 45.9386 79.1843 48.1342H85.3369C85.2646 45.9386 83.7204 45.1665 82.3209 45.1665ZM98.2911 43.0914V46.2281C97.8086 46.1557 97.3984 46.1557 96.9158 46.1557C95.2751 46.1557 94.1893 46.7589 94.1893 49.1959V56H90.8597V43.0191H94.1411V45.2871C94.8891 43.6705 96.0472 43.0432 97.5673 43.0432C97.7844 43.0432 98.074 43.0673 98.2911 43.0914ZM111.873 56H108.543V54.3593C107.699 55.807 106.155 56.3137 104.803 56.3137C101.715 56.3137 99.1575 53.6596 99.1575 49.5095C99.1575 45.4319 101.667 42.7295 104.803 42.7295C106.444 42.7295 107.844 43.4534 108.543 44.6839V38.5071H111.873V56ZM105.624 53.7561C107.458 53.7561 108.664 52.1878 108.664 49.5095C108.664 46.9037 107.458 45.2871 105.624 45.2871C103.887 45.2871 102.656 47.0002 102.656 49.5337C102.656 52.0671 103.887 53.7561 105.624 53.7561ZM122.977 51.0296V50.0645C119.237 50.4505 117.765 50.8848 117.765 52.3325C117.765 53.2735 118.489 54.0456 120.009 54.0456C122.108 54.0456 122.977 52.9357 122.977 51.0296ZM123.267 54.3834C122.326 55.7346 120.974 56.3137 119.02 56.3137C116.535 56.3137 114.339 54.866 114.339 52.5014C114.339 49.4371 117.765 48.5203 122.881 47.9412V47.724C122.881 45.7214 121.795 45.0217 120.444 45.0217C119.165 45.0217 118.103 45.6732 118.031 47.1208H114.918C115.184 44.5633 117.259 42.6813 120.612 42.6813C123.677 42.6813 126.21 44.0324 126.21 48.3996C126.21 48.7857 126.162 50.547 126.162 51.7052C126.162 53.7561 126.283 54.9142 126.548 56H123.484C123.387 55.5898 123.339 55.0349 123.267 54.3834ZM144.957 56V48.4479C144.957 47.0243 144.836 45.4077 142.882 45.4077C140.662 45.4077 140.3 47.2656 140.3 49.2441V56H136.97V48.4479C136.97 47.0243 136.85 45.4077 134.895 45.4077C132.676 45.4077 132.314 47.2656 132.314 49.2441V56H128.984V43.0191H132.314V44.7322C133.062 43.4534 134.365 42.7295 135.933 42.7295C138.129 42.7295 139.118 43.9118 139.625 44.8528C140.662 43.4051 141.941 42.7295 143.895 42.7295C147.153 42.7295 148.287 44.7563 148.287 47.8206V56H144.957ZM167.555 56H164.129L159.81 42.8502V56H156.601V38.5071H161.62L165.866 52.1395L169.992 38.5071H175.059V56H171.85V42.8502L167.555 56ZM190.152 50.4264H180.573C180.766 52.6462 182.262 53.732 183.855 53.732C184.892 53.732 185.906 53.37 186.581 52.236H190.007C189.308 54.1663 187.426 56.3137 183.879 56.3137C179.705 56.3137 177.268 53.2011 177.268 49.4613C177.268 45.6008 179.946 42.7295 183.782 42.7295C187.788 42.7295 190.273 45.842 190.152 50.4264ZM183.758 45.1665C182.503 45.1665 180.887 45.9386 180.621 48.1342H186.774C186.702 45.9386 185.158 45.1665 183.758 45.1665ZM204.69 50.4264H195.111C195.304 52.6462 196.8 53.732 198.393 53.732C199.43 53.732 200.444 53.37 201.119 52.236H204.545C203.846 54.1663 201.964 56.3137 198.417 56.3137C194.243 56.3137 191.806 53.2011 191.806 49.4613C191.806 45.6008 194.484 42.7295 198.32 42.7295C202.326 42.7295 204.811 45.842 204.69 50.4264ZM198.296 45.1665C197.042 45.1665 195.425 45.9386 195.16 48.1342H201.312C201.24 45.9386 199.696 45.1665 198.296 45.1665ZM207.293 43.0191V39.4963H210.623V43.0191H213.325V45.3112H210.623V52.0189C210.623 53.3459 211.082 53.6113 212.264 53.6113H213.277V56H210.84C207.848 56 207.293 55.0831 207.293 52.5014V45.3112H205.46V43.0191H207.293ZM223.445 56V54.2869C222.697 55.6139 221.274 56.3137 219.657 56.3137C216.545 56.3137 215.29 54.4075 215.29 51.2226V43.0191H218.62V50.4988C218.62 52.236 218.885 53.6354 220.743 53.6354C222.963 53.6354 223.445 51.8258 223.445 49.7749V43.0191H226.775V56H223.445ZM236.011 53.7561C237.748 53.7561 238.978 52.0671 238.978 49.5337C238.978 47.0002 237.748 45.2871 236.011 45.2871C234.177 45.2871 232.97 46.9037 232.97 49.5095C232.97 52.1878 234.177 53.7561 236.011 53.7561ZM233.091 60.2224H229.761V43.0191H233.091V44.6839C233.791 43.4534 235.19 42.7295 236.831 42.7295C239.968 42.7295 242.477 45.4319 242.477 49.5095C242.477 53.6596 239.895 56.3137 236.807 56.3137C235.456 56.3137 233.936 55.807 233.091 54.3593V60.2224ZM249.952 42.5606H253.33L253.885 38.5071H256.877L256.322 42.5606H259.531L260.086 38.5071H263.078L262.523 42.5606H265.852L265.539 45.1423H262.161L261.654 48.7857H264.96L264.694 51.3433H261.292L260.665 56H257.673L258.3 51.3433H255.091L254.464 56H251.472L252.099 51.3433H248.794L249.107 48.7857H252.461L252.968 45.1423H249.686L249.952 42.5606ZM255.96 45.1423L255.453 48.7857H258.662L259.169 45.1423H255.96ZM273.154 56H269.824V42.9225H266.06V40.6545C268.569 40.5821 269.8 40.4132 270.62 38.5071H273.154V56Z" fill="#EEEEEE"/>
<path d="M21.7077 67.3988C24.784 67.3988 26.7732 69.0179 26.7732 71.7241C26.7732 75.1242 23.8588 78.4318 17.6831 83.0809H27.282V84.4688H15.6939V83.0347C21.8696 78.3393 25.2466 75.0086 25.2466 71.886C25.2466 69.7349 23.6044 68.671 21.7077 68.671C19.6029 68.671 17.6831 69.6655 17.6137 72.8806H16.0871C16.249 69.2955 18.377 67.3988 21.7077 67.3988ZM35.871 84.7694C31.4301 84.7694 29.4178 81.4156 29.4178 76.0726C29.4178 70.7758 31.4301 67.3988 35.871 67.3988C40.2657 67.3988 42.3012 70.7758 42.3012 76.0726C42.3012 81.4156 40.2657 84.7694 35.871 84.7694ZM35.871 83.4973C38.8779 83.4973 40.7977 81.138 40.7977 76.0726C40.7977 71.0533 38.8779 68.671 35.871 68.671C32.841 68.671 30.9443 71.0533 30.9443 76.0726C30.9443 81.138 32.841 83.4973 35.871 83.4973ZM50.2588 67.3988C53.3351 67.3988 55.3243 69.0179 55.3243 71.7241C55.3243 75.1242 52.4099 78.4318 46.2342 83.0809H55.8331V84.4688H44.245V83.0347C50.4207 78.3393 53.7977 75.0086 53.7977 71.886C53.7977 69.7349 52.1555 68.671 50.2588 68.671C48.154 68.671 46.2342 69.6655 46.1648 72.8806H44.6382C44.8001 69.2955 46.9281 67.3988 50.2588 67.3988ZM64.843 69.6887L57.5339 78.6631H64.843V69.6887ZM69.5384 78.6631V80.074H66.277V84.4688H64.843V80.074H55.8223V78.7788L64.8661 67.6995H66.277V78.6631H69.5384ZM77.2466 78.9407H70.7702V77.3216H77.2466V78.9407ZM82.8195 84.4688H81.3854V70.8914H77.5459V69.92C80.4834 69.92 81.2235 69.6193 81.848 67.5607H82.8195V84.4688ZM92.7699 84.7694C88.329 84.7694 86.3167 81.4156 86.3167 76.0726C86.3167 70.7758 88.329 67.3988 92.7699 67.3988C97.1646 67.3988 99.2001 70.7758 99.2001 76.0726C99.2001 81.4156 97.1646 84.7694 92.7699 84.7694ZM92.7699 83.4973C95.7768 83.4973 97.6966 81.138 97.6966 76.0726C97.6966 71.0533 95.7768 68.671 92.7699 68.671C89.7399 68.671 87.8432 71.0533 87.8432 76.0726C87.8432 81.138 89.7399 83.4973 92.7699 83.4973ZM107.921 78.9407H101.445V77.3216H107.921V78.9407ZM113.494 84.4688H112.06V70.8914H108.22V69.92C111.158 69.92 111.898 69.6193 112.522 67.5607H113.494V84.4688ZM115.858 69.0873V67.6995H127.307V69.0873C122.866 72.3486 119.998 77.3678 119.743 84.4688H118.148C118.587 76.9052 121.571 72.0248 125.549 69.0873H115.858Z" fill="#EEEEEE"/>
<path d="M229.553 179.581V183.946H231.345V179.849C231.345 178.024 233.835 178.02 233.835 178.02V176.244C233.835 176.244 233.138 176.275 232.588 176.399C231.03 176.749 229.553 177.517 229.553 179.581Z" fill="#EEEEEE"/>
<path d="M216.045 176.156C216.743 176.156 217.615 176.55 218.09 177.243C218.581 176.613 219.39 176.188 220.389 176.171C221.658 176.155 223.228 176.943 223.228 179.308V183.94H221.435V179.307C221.435 178.519 220.864 177.952 220.009 177.952C219.153 177.952 218.583 178.519 218.583 179.307V183.94H216.79V179.307C216.79 178.519 216.219 177.952 215.364 177.952C214.508 177.952 213.921 178.519 213.921 179.307V183.94H212.036V176.39H213.921V177.148C214.429 176.534 215.174 176.155 216.046 176.155H216.045V176.156Z" fill="#EEEEEE"/>
<path d="M227.349 176.487V183.946H225.527V176.487H227.349Z" fill="#EEEEEE"/>
<path d="M226.438 175.3C227 175.3 227.455 174.847 227.455 174.289C227.455 173.731 226.999 173.279 226.438 173.279C225.876 173.279 225.421 173.731 225.421 174.289C225.421 174.847 225.876 175.3 226.438 175.3Z" fill="#EEEEEE"/>
<path d="M238.701 176.14C236.495 176.14 234.706 177.916 234.706 180.107C234.706 182.297 236.495 184.074 238.701 184.074C240.908 184.074 242.697 182.297 242.697 180.107C242.697 177.916 240.908 176.14 238.701 176.14ZM238.701 182.29C237.452 182.29 236.439 181.285 236.439 180.045C236.439 178.804 237.452 177.799 238.701 177.799C239.951 177.799 240.963 178.804 240.963 180.045C240.963 181.285 239.951 182.29 238.701 182.29Z" fill="#EEEEEE"/>
<path d="M188.732 174.451C188.732 171.829 190.863 169.702 193.491 169.702H203.382C206.011 169.702 208.141 171.829 208.141 174.451V184.321C208.141 186.944 206.01 189.07 203.382 189.07H193.491C190.863 189.07 188.732 186.943 188.732 184.321V174.451Z" stroke="#EEEEEE" stroke-width="0.370894"/>
<path fill-rule="evenodd" clip-rule="evenodd" d="M201.697 173.279H199.902L201.398 175.903L198.106 173.279H196.31L197.956 176.486L194.515 173.279H192.719L194.515 177.361L192.719 185.524H194.515L197.956 176.778L196.31 185.524H198.106L201.398 176.195L199.902 185.524H201.697L204.99 175.32L201.697 173.279Z" fill="#EEEEEE"/>
<g clip-path="url(#clip1_4037_232)">
<path d="M266.358 170.247C271.439 170.247 275.556 174.364 275.556 179.445C275.556 184.526 271.439 188.643 266.358 188.643C261.277 188.643 257.16 184.526 257.16 179.445C257.123 174.364 261.24 170.247 266.358 170.247Z" fill="#FF6900"/>
<path d="M261.426 180.854H263.243V178.11H261.426C260.684 178.11 260.053 178.74 260.053 179.482C260.053 180.224 260.647 180.854 261.426 180.854Z" fill="black"/>
<path d="M272.07 179.482C272.07 177.368 270.364 175.662 268.25 175.662C266.136 175.662 264.43 177.368 264.43 179.482C264.43 181.596 266.136 183.302 268.25 183.302C270.364 183.302 272.07 181.522 272.07 179.482Z" fill="black"/>
<path d="M293.582 177.072V180.93C293.582 181.745 293.063 182.339 292.358 182.339H292.024C291.32 182.339 290.8 181.745 290.8 180.93V177.072H289.465V181.152C289.465 182.636 290.541 183.674 291.987 183.674H292.395C293.879 183.674 294.917 182.599 294.917 181.152V177.072H293.582ZM333.527 180.93V179.706C333.527 178.815 334.047 178.185 334.825 178.185H335.159C336.124 178.185 336.791 178.927 336.791 179.965V180.633C336.791 181.708 336.086 182.45 335.159 182.45H334.825C334.047 182.413 333.527 181.82 333.527 180.93ZM332.303 180.93C332.303 182.524 333.342 183.674 334.788 183.674H335.122C335.716 183.674 336.235 183.377 336.643 182.895V183.563H337.941V177.072H336.643V177.777C336.235 177.295 335.716 176.998 335.122 176.998H334.788C333.305 176.998 332.303 178.111 332.303 179.743V180.93ZM326.555 183.563H331.673V182.228H327.89V175.181H326.555V183.563ZM340.426 180.633V179.965C340.426 178.927 341.094 178.185 342.058 178.185H342.392C343.171 178.185 343.69 178.815 343.69 179.706V180.892C343.69 181.783 343.171 182.413 342.392 182.413H342.058C341.094 182.413 340.426 181.708 340.426 180.633ZM339.239 183.563H340.537V182.858C340.945 183.34 341.464 183.637 342.058 183.637H342.392C343.875 183.637 344.914 182.487 344.914 180.892V179.706C344.914 178.074 343.875 176.961 342.392 176.961H342.058C341.464 176.961 340.945 177.258 340.537 177.74V175.218H339.239V183.563ZM349.624 178.89H350.885C350.663 177.703 349.661 176.961 348.252 176.961C346.657 176.961 345.693 177.666 345.693 178.815C345.693 179.706 346.397 180.41 347.547 180.596L348.586 180.818C349.29 180.967 349.735 181.263 349.735 181.708C349.735 182.228 349.216 182.561 348.4 182.561C347.584 182.561 347.065 182.153 346.917 181.523H345.581C345.767 182.858 346.805 183.674 348.326 183.674C349.995 183.674 350.996 182.821 350.996 181.523C350.996 180.559 350.143 179.854 348.771 179.594L347.807 179.409C347.287 179.26 346.954 179.001 346.954 178.667C346.954 178.259 347.436 177.999 348.178 177.999C348.994 178.037 349.513 178.37 349.624 178.89ZM305.896 179.409L308.381 176.776H306.489L304.301 179.149V175.181H302.966V183.526H304.301V181.078L304.931 180.41L307.12 183.563H308.789L305.896 179.409ZM284.866 182.228H283.234V176.553H284.866C286.127 176.553 287.129 177.814 287.129 179.372C287.129 180.93 286.127 182.228 284.866 182.228ZM284.866 175.181H281.899V183.563H284.866C286.832 183.563 288.464 181.708 288.464 179.372C288.464 177.035 286.869 175.181 284.866 175.181ZM312.683 182.228H311.088V176.553H312.683C313.944 176.553 314.946 177.814 314.946 179.372C314.946 180.93 313.944 182.228 312.683 182.228ZM312.683 175.181H309.753V183.563H312.683C314.686 183.563 316.281 181.708 316.281 179.372C316.281 177.035 314.686 175.181 312.683 175.181ZM320.731 182.228H318.654V179.891H320.731C321.362 179.891 321.881 180.41 321.881 181.041C321.881 181.708 321.362 182.228 320.731 182.228ZM318.654 178.556V176.553H320.324C320.88 176.553 321.325 176.998 321.325 177.554C321.325 178.111 320.88 178.556 320.324 178.556H318.654ZM322.178 179.001C322.475 178.593 322.697 178.074 322.697 177.554C322.697 176.256 321.622 175.181 320.324 175.181H317.319V183.563H320.731C322.104 183.563 323.216 182.45 323.216 181.041C323.216 180.225 322.808 179.446 322.178 179.001ZM298.737 178.296H299.071C299.887 178.296 300.518 178.89 300.518 179.594H301.89C301.89 178.148 300.629 176.961 299.071 176.961H298.737C297.217 176.961 295.993 178.185 295.993 179.706V180.892C295.993 182.413 297.217 183.637 298.737 183.637H299.071C300.666 183.637 301.964 182.45 301.964 181.004H300.592C300.592 181.708 299.887 182.265 299.071 182.265H298.737C297.959 182.265 297.328 181.634 297.328 180.892V179.706C297.328 178.927 297.959 178.296 298.737 178.296Z" fill="#FF6900"/>
</g>
</g>
<defs>
<linearGradient id="paint0_linear_4037_232" x1="76.9554" y1="126.844" x2="399.801" y2="126.844" gradientUnits="userSpaceOnUse">
<stop stop-color="#2A2A2A"/>
<stop offset="1" stop-color="#0E0E0E"/>
</linearGradient>
<linearGradient id="paint1_linear_4037_232" x1="252.312" y1="62.519" x2="-6.42248" y2="62.519" gradientUnits="userSpaceOnUse">
<stop stop-color="#2A2A2A"/>
<stop offset="1" stop-color="#0E0E0E"/>
</linearGradient>
<clipPath id="clip0_4037_232">
<rect width="367" height="206" fill="white"/>
</clipPath>
<clipPath id="clip1_4037_232">
<rect width="93.8361" height="18.3963" fill="white" transform="translate(257.161 170.247)"/>
</clipPath>
</defs>
</svg>
