<svg xmlns="http://www.w3.org/2000/svg" width="560" height="240" fill="none" viewBox="0 0 560 240"><g clip-path="url(#clip0_7219_29430)"><rect width="560" height="240" fill="#FFF100"/><path stroke="url(#paint0_linear_7219_29430)" stroke-linecap="round" stroke-linejoin="round" stroke-width="3" d="M-7.99988 214.5L111.5 95.0002"/><path stroke="url(#paint1_linear_7219_29430)" stroke-linecap="round" stroke-linejoin="round" stroke-width="3" d="M120.5 149.554L120.5 116C120.5 99.4312 107.069 85.9998 90.5 85.9997L56.9456 85.9997"/><path fill="#EDDD0C" d="M386 185L631.156 185.001L660 185C671.046 185 680 193.954 680 205L680 275C680 286.046 671.046 295 660 295L386 295C374.954 295 366 286.046 366 275L366 205C366 193.954 374.954 185 386 185Z"/><path fill="#EDDD0C" d="M423.5 42.5004L58.0001 42.5C46.9544 42.5 38.0001 51.4543 38.0001 62.5L38 168C38 179.046 46.9543 188 58 188L127.5 188C138.546 188 147.5 196.954 147.5 208L147.5 252.5C147.5 263.546 138.546 272.5 127.5 272.5L-8.99996 272.5C-20.0457 272.5 -29 263.546 -29 252.5L-28.9998 -24C-28.9998 -35.0457 -20.0455 -44 -8.99979 -44L423.5 -44C434.546 -44 443.5 -35.0457 443.5 -24L443.5 22.5004C443.5 33.5461 434.546 42.5004 423.5 42.5004Z"/><path stroke="url(#paint2_linear_7219_29430)" stroke-linecap="round" stroke-linejoin="round" stroke-width="3" d="M603.5 -14.0001L484 105.5"/><path stroke="url(#paint3_linear_7219_29430)" stroke-linecap="round" stroke-linejoin="round" stroke-width="3" d="M475 50.9456L475 84.5C475 101.069 488.431 114.5 505 114.5L538.554 114.5"/><path stroke="url(#paint4_linear_7219_29430)" stroke-linecap="round" stroke-linejoin="round" stroke-width="3" d="M409 276V238C409 221.431 422.431 208 439 208L592 208"/><path fill="#000" d="M200.248 83.6715C200.248 78.4357 197.136 77.6395 193.951 77.6395H192.359V89.7277H193.951C197.136 89.7277 200.248 88.9556 200.248 83.6715ZM188.908 74.9371H194.096C199.645 74.9371 203.819 76.7226 203.819 83.6715C203.819 90.6204 199.645 92.4301 194.096 92.4301H188.908V74.9371ZM213.882 92.4301V90.717C213.134 92.044 211.71 92.7437 210.093 92.7437C206.981 92.7437 205.726 90.8376 205.726 87.6527V79.4491H209.056V86.9288C209.056 88.6661 209.321 90.0655 211.179 90.0655C213.399 90.0655 213.882 88.2559 213.882 86.205V79.4491H217.211V92.4301H213.882ZM225.868 79.1596C228.594 79.1596 231.297 80.6796 231.755 83.8887H228.57C228.305 82.634 227.147 81.7413 225.868 81.7413C224.131 81.7413 222.755 83.2131 222.755 85.9155C222.755 88.6419 224.058 90.162 225.892 90.162C227.05 90.162 228.232 89.5588 228.691 88.0146H231.876C231.104 91.5614 228.425 92.7437 225.723 92.7437C221.838 92.7437 219.353 89.8966 219.353 85.9637C219.353 82.0067 221.983 79.1596 225.868 79.1596ZM233.864 74.9371H237.194V84.6608L241.923 79.4491H245.663L241.006 84.4195L245.928 92.4301H242.188L238.786 86.8082L237.194 88.5213V92.4301H233.864V74.9371ZM258.66 83.6715C258.66 78.4357 255.548 77.6395 252.363 77.6395H250.77V89.7277H252.363C255.548 89.7277 258.66 88.9556 258.66 83.6715ZM247.32 74.9371H252.508C258.057 74.9371 262.231 76.7226 262.231 83.6715C262.231 90.6204 258.057 92.4301 252.508 92.4301H247.32V74.9371ZM264.662 92.4301V74.9371H271.466C274.531 74.9371 277.836 75.9023 277.836 79.4974C277.836 81.1381 276.75 82.6099 275.858 83.189C277.209 83.8404 278.463 84.8538 278.463 87.2666C278.463 91.0306 275.351 92.4301 271.756 92.4301H264.662ZM268.112 84.7573V89.7277H271.925C273.951 89.7277 274.941 88.8832 274.941 87.2666C274.941 85.6259 273.927 84.7573 271.78 84.7573H268.112ZM268.112 77.6395V82.1515H271.683C273.324 82.1515 274.289 81.3794 274.289 79.8352C274.289 78.4599 273.3 77.6395 271.683 77.6395H268.112ZM297.082 92.4301H293.656L289.337 79.2802V92.4301H286.128V74.9371H291.146L295.393 88.5695L299.519 74.9371H304.586V92.4301H301.377V79.2802L297.082 92.4301ZM319.679 86.8565H310.1C310.293 89.0762 311.789 90.162 313.381 90.162C314.419 90.162 315.432 89.8001 316.108 88.6661H319.534C318.834 90.5963 316.952 92.7437 313.405 92.7437C309.231 92.7437 306.794 89.6312 306.794 85.8913C306.794 82.0308 309.472 79.1596 313.309 79.1596C317.314 79.1596 319.799 82.2721 319.679 86.8565ZM313.285 81.5965C312.03 81.5965 310.413 82.3686 310.148 84.5643H316.301C316.228 82.3686 314.684 81.5965 313.285 81.5965ZM334.217 86.8565H324.638C324.831 89.0762 326.327 90.162 327.919 90.162C328.957 90.162 329.97 89.8001 330.646 88.6661H334.072C333.372 90.5963 331.49 92.7437 327.943 92.7437C323.769 92.7437 321.332 89.6312 321.332 85.8913C321.332 82.0308 324.011 79.1596 327.847 79.1596C331.852 79.1596 334.337 82.2721 334.217 86.8565ZM327.823 81.5965C326.568 81.5965 324.952 82.3686 324.686 84.5643H330.839C330.766 82.3686 329.222 81.5965 327.823 81.5965ZM336.82 79.4491V75.9264H340.15V79.4491H342.852V81.7413H340.15V88.4489C340.15 89.776 340.608 90.0414 341.79 90.0414H342.804V92.4301H340.367C337.375 92.4301 336.82 91.5132 336.82 88.9315V81.7413H334.986V79.4491H336.82ZM352.972 92.4301V90.717C352.224 92.044 350.8 92.7437 349.184 92.7437C346.071 92.7437 344.817 90.8376 344.817 87.6527V79.4491H348.146V86.9288C348.146 88.6661 348.412 90.0655 350.27 90.0655C352.489 90.0655 352.972 88.2559 352.972 86.205V79.4491H356.302V92.4301H352.972ZM365.537 90.1861C367.274 90.1861 368.505 88.4972 368.505 85.9637C368.505 83.4303 367.274 81.7172 365.537 81.7172C363.703 81.7172 362.497 83.3337 362.497 85.9396C362.497 88.6178 363.703 90.1861 365.537 90.1861ZM362.618 96.6525H359.288V79.4491H362.618V81.114C363.317 79.8834 364.717 79.1596 366.358 79.1596C369.494 79.1596 372.004 81.8619 372.004 85.9396C372.004 90.0896 369.422 92.7437 366.333 92.7437C364.982 92.7437 363.462 92.237 362.618 90.7893V96.6525Z"/><rect width="255.187" height="38.14" x="152.406" y="100.93" fill="#EDDD0C" rx="19.07"/><rect width="255.187" height="38.14" x="152.406" y="100.93" stroke="#D2C202" rx="19.07"/><path fill="#000" d="M167.601 115.124C167.601 111.75 171.025 110.279 173.993 110.279C177.621 110.279 180.158 112.054 180.843 115.2H179.067C178.433 113.069 176.632 111.902 173.816 111.902C171.964 111.902 169.351 112.638 169.351 115.048C169.351 116.9 170.848 117.813 172.902 118.295L175.084 118.777C177.722 119.386 181.274 120.426 181.274 123.952C181.274 127.478 178.052 129.33 174.475 129.33C169.884 129.33 167.347 126.768 166.941 123.47H168.717C169.351 126.412 171.38 127.706 174.399 127.706C176.403 127.706 179.498 126.971 179.498 124.231C179.498 121.998 177.316 120.933 174.729 120.375L172.42 119.868C170.011 119.335 167.601 118.143 167.601 115.124ZM189.212 115.124C192.332 115.124 194.413 117.305 194.819 119.741H193.17C192.662 117.686 191.064 116.57 189.06 116.57C186.726 116.57 184.621 118.447 184.621 122.201C184.621 126.083 186.726 127.884 189.085 127.884C191.419 127.884 192.865 126.387 193.271 124.687H194.945C194.413 127.503 192.104 129.33 189.085 129.33C185.229 129.33 182.946 126.412 182.946 122.227C182.946 117.99 185.229 115.124 189.212 115.124ZM197.235 115.352H198.808V129H197.235V115.352ZM197.235 110.608H198.808V113.12H197.235V110.608ZM207.735 129.33C203.752 129.33 201.292 126.463 201.292 122.227C201.292 117.838 204.031 115.124 207.684 115.124C211.515 115.124 213.975 118.371 213.773 122.633H202.915C202.991 125.956 205.046 127.884 207.836 127.884C209.967 127.884 211.464 126.818 211.997 124.916H213.646C212.961 127.757 210.754 129.33 207.735 129.33ZM207.659 116.544C205.122 116.544 203.296 118.143 202.966 121.187H212.047C212.047 118.878 210.399 116.544 207.659 116.544ZM217.822 115.352V117.661C218.507 116.367 219.8 115.124 222.363 115.124C225.584 115.124 226.954 117.052 226.954 120.4V129H225.381V120.832C225.381 118.269 224.696 116.544 221.957 116.544C219.597 116.544 217.822 118.523 217.822 121.415V129H216.249V115.352H217.822ZM235.292 115.124C238.412 115.124 240.492 117.305 240.898 119.741H239.249C238.742 117.686 237.143 116.57 235.139 116.57C232.806 116.57 230.7 118.447 230.7 122.201C230.7 126.083 232.806 127.884 235.165 127.884C237.499 127.884 238.945 126.387 239.35 124.687H241.025C240.492 127.503 238.184 129.33 235.165 129.33C231.309 129.33 229.026 126.412 229.026 122.227C229.026 117.99 231.309 115.124 235.292 115.124ZM248.94 129.33C244.957 129.33 242.496 126.463 242.496 122.227C242.496 117.838 245.236 115.124 248.889 115.124C252.72 115.124 255.18 118.371 254.977 122.633H244.12C244.196 125.956 246.251 127.884 249.041 127.884C251.172 127.884 252.669 126.818 253.202 124.916H254.851C254.166 127.757 251.959 129.33 248.94 129.33ZM248.864 116.544C246.327 116.544 244.501 118.143 244.171 121.187H253.252C253.252 118.878 251.604 116.544 248.864 116.544ZM268.141 129.33C264.387 129.33 262.129 127.123 262.129 124.003C262.129 121.263 263.829 119.563 267 118.472C265.452 116.747 264.691 115.479 264.691 114.033C264.691 111.75 266.67 110.279 269.435 110.279C271.566 110.279 273.925 111.369 273.925 114.211C273.925 116.341 272.632 117.914 269.663 119.03L274.306 124.003C275.118 122.557 275.6 120.882 275.777 119.183H277.375C277.096 121.314 276.386 123.343 275.295 125.068L278.973 129H276.843L274.357 126.336C272.758 128.163 270.678 129.33 268.141 129.33ZM268.116 127.935C270.348 127.935 272.099 126.92 273.393 125.322L267.989 119.512C265.249 120.324 263.804 121.796 263.804 124.003C263.804 126.362 265.579 127.935 268.116 127.935ZM266.366 113.982C266.366 115.403 267.456 116.595 268.522 117.787L268.674 117.965C271.211 117.077 272.327 116.037 272.327 114.236C272.327 112.612 271.109 111.674 269.41 111.674C267.812 111.674 266.366 112.384 266.366 113.982ZM286.725 129V110.608H298.521V112.181H288.424V118.675H297.912V120.273H288.424V127.427H298.521V129H286.725ZM310.391 122.227C310.391 118.168 308.057 116.544 306.003 116.544C303.466 116.544 301.665 118.599 301.665 122.227C301.665 125.854 303.466 127.909 306.003 127.909C308.057 127.909 310.391 126.286 310.391 122.227ZM299.965 122.227C299.965 117.686 302.527 115.124 305.673 115.124C307.702 115.124 309.3 116.062 310.29 117.711V110.608H311.863V129H310.29V126.768C309.3 128.391 307.702 129.33 305.673 129.33C302.527 129.33 299.965 126.768 299.965 122.227ZM323.841 129V126.793C323.156 128.087 321.811 129.33 319.452 129.33C316.332 129.33 315.013 127.402 315.013 124.053V115.352H316.585V123.622C316.585 126.184 317.194 127.909 319.858 127.909C322.014 127.909 323.841 125.93 323.841 123.039V115.352H325.413V129H323.841ZM334.164 115.124C337.284 115.124 339.364 117.305 339.77 119.741H338.121C337.614 117.686 336.016 116.57 334.012 116.57C331.678 116.57 329.572 118.447 329.572 122.201C329.572 126.083 331.678 127.884 334.037 127.884C336.371 127.884 337.817 126.387 338.223 124.687H339.897C339.364 127.503 337.056 129.33 334.037 129.33C330.181 129.33 327.898 126.412 327.898 122.227C327.898 117.99 330.181 115.124 334.164 115.124ZM342.871 125.575C342.871 127.021 344.165 127.935 345.992 127.935C348.528 127.935 350.812 126.615 350.812 122.76V122.1C345.281 122.709 342.871 123.47 342.871 125.575ZM350.837 129L350.761 126.92C349.873 128.366 348.173 129.33 345.637 129.33C343.074 129.33 341.121 127.858 341.121 125.601C341.121 122.48 344.165 121.39 350.735 120.705V120.223C350.735 117.102 348.884 116.443 346.93 116.443C344.596 116.443 343.227 117.711 343.1 119.512H341.451C341.831 116.798 343.962 115.048 347.032 115.048C350.203 115.048 352.308 116.367 352.308 120.426C352.308 122.328 352.283 123.546 352.283 124.637C352.283 126.184 352.359 127.503 352.435 129H350.837ZM355.994 115.352V112.283H357.592V115.352H360.281V116.722H357.592V125.448C357.592 127.199 357.643 127.579 359.47 127.579H360.281V129H358.988C356.552 129 355.994 128.467 355.994 125.753V116.722H353.736V115.352H355.994ZM362.736 115.352H364.309V129H362.736V115.352ZM362.736 110.608H364.309V113.12H362.736V110.608ZM368.467 122.227C368.467 126.159 370.319 127.884 372.958 127.884C375.57 127.884 377.473 126.159 377.473 122.227C377.473 118.295 375.57 116.57 372.958 116.57C370.319 116.57 368.467 118.295 368.467 122.227ZM366.793 122.227C366.793 117.255 369.71 115.124 372.958 115.124C376.23 115.124 379.147 117.255 379.147 122.227C379.147 127.199 376.23 129.33 372.958 129.33C369.71 129.33 366.793 127.199 366.793 122.227ZM383.199 115.352V117.661C383.884 116.367 385.178 115.124 387.74 115.124C390.962 115.124 392.332 117.052 392.332 120.4V129H390.759V120.832C390.759 118.269 390.074 116.544 387.334 116.544C384.975 116.544 383.199 118.523 383.199 121.415V129H381.627V115.352H383.199Z"/><path fill="#000" d="M169.554 147.077V163.074H178.819V164.57H167.938V147.077H169.554ZM180.975 158.128C180.975 161.868 182.736 163.508 185.246 163.508C187.731 163.508 189.541 161.868 189.541 158.128C189.541 154.388 187.731 152.747 185.246 152.747C182.736 152.747 180.975 154.388 180.975 158.128ZM179.383 158.128C179.383 153.399 182.157 151.372 185.246 151.372C188.358 151.372 191.133 153.399 191.133 158.128C191.133 162.857 188.358 164.884 185.246 164.884C182.157 164.884 179.383 162.857 179.383 158.128ZM195.228 151.589V153.785C195.88 152.554 197.11 151.372 199.547 151.372C202.612 151.372 203.915 153.206 203.915 156.391V164.57H202.419V156.801C202.419 154.364 201.767 152.723 199.161 152.723C196.917 152.723 195.228 154.605 195.228 157.356V164.57H193.732V151.589H195.228ZM216.019 158.128C216.019 154.267 213.799 152.723 211.845 152.723C209.432 152.723 207.719 154.677 207.719 158.128C207.719 161.578 209.432 163.532 211.845 163.532C213.799 163.532 216.019 161.988 216.019 158.128ZM206.102 158.128C206.102 153.809 208.539 151.372 211.531 151.372C213.461 151.372 214.981 152.265 215.922 153.833V147.077H217.418V164.57H215.922V162.447C214.981 163.991 213.461 164.884 211.531 164.884C208.539 164.884 206.102 162.447 206.102 158.128ZM221.621 158.128C221.621 161.868 223.382 163.508 225.891 163.508C228.377 163.508 230.186 161.868 230.186 158.128C230.186 154.388 228.377 152.747 225.891 152.747C223.382 152.747 221.621 154.388 221.621 158.128ZM220.028 158.128C220.028 153.399 222.803 151.372 225.891 151.372C229.004 151.372 231.779 153.399 231.779 158.128C231.779 162.857 229.004 164.884 225.891 164.884C222.803 164.884 220.028 162.857 220.028 158.128ZM235.874 151.589V153.785C236.525 152.554 237.756 151.372 240.193 151.372C243.257 151.372 244.56 153.206 244.56 156.391V164.57H243.064V156.801C243.064 154.364 242.413 152.723 239.807 152.723C237.563 152.723 235.874 154.605 235.874 157.356V164.57H234.378V151.589H235.874ZM247.779 164.57V162.302H249.879V164.763L248.672 167.9H247.562L248.6 164.57H247.779ZM264.165 146.763C267.374 146.763 269.449 148.452 269.449 151.275C269.449 154.822 266.409 158.272 259.967 163.122H269.98V164.57H257.892V163.074C264.334 158.176 267.857 154.702 267.857 151.444C267.857 149.2 266.143 148.09 264.165 148.09C261.969 148.09 259.967 149.128 259.894 152.482H258.302C258.471 148.742 260.691 146.763 264.165 146.763ZM278.939 164.884C274.307 164.884 272.208 161.385 272.208 155.811C272.208 150.286 274.307 146.763 278.939 146.763C283.524 146.763 285.647 150.286 285.647 155.811C285.647 161.385 283.524 164.884 278.939 164.884ZM278.939 163.557C282.076 163.557 284.079 161.095 284.079 155.811C284.079 150.576 282.076 148.09 278.939 148.09C275.779 148.09 273.8 150.576 273.8 155.811C273.8 161.095 275.779 163.557 278.939 163.557ZM293.948 146.763C297.157 146.763 299.232 148.452 299.232 151.275C299.232 154.822 296.192 158.272 289.75 163.122H299.763V164.57H287.675V163.074C294.117 158.176 297.64 154.702 297.64 151.444C297.64 149.2 295.927 148.09 293.948 148.09C291.752 148.09 289.75 149.128 289.677 152.482H288.085C288.254 148.742 290.474 146.763 293.948 146.763ZM307.854 163.557C310.291 163.557 312.366 161.892 312.366 158.852C312.366 155.57 310.026 154.219 307.806 154.219C305.827 154.219 304.187 155.281 303.68 156.463L302.208 156.318L303.342 147.077H313.235V148.525H304.645L303.873 154.509C304.717 153.543 306.455 152.868 308.168 152.868C311.401 152.868 313.958 154.967 313.958 158.827C313.958 162.809 311.039 164.884 307.854 164.884C304.38 164.884 302.039 162.616 301.725 159.648H303.318C303.825 162.35 305.779 163.557 307.854 163.557ZM323.02 158.803H316.264V157.114H323.02V158.803ZM332.097 164.884C327.464 164.884 325.365 161.385 325.365 155.811C325.365 150.286 327.464 146.763 332.097 146.763C336.681 146.763 338.804 150.286 338.804 155.811C338.804 161.385 336.681 164.884 332.097 164.884ZM332.097 163.557C335.233 163.557 337.236 161.095 337.236 155.811C337.236 150.576 335.233 148.09 332.097 148.09C328.936 148.09 326.958 150.576 326.958 155.811C326.958 161.095 328.936 163.557 332.097 163.557ZM351.352 152.627C351.352 149.948 349.494 148.09 346.888 148.09C344.258 148.09 342.425 149.948 342.425 152.627C342.425 155.474 344.186 157.356 346.888 157.356C349.591 157.356 351.352 155.474 351.352 152.627ZM346.599 163.557C349.687 163.557 351.642 160.927 351.642 155.884C350.845 157.525 349.036 158.683 346.719 158.683C343.245 158.683 340.832 156.173 340.832 152.699C340.832 149.417 343.197 146.763 346.888 146.763C351.207 146.763 353.162 149.852 353.162 155.112C353.162 160.589 351.4 164.884 346.357 164.884C343.221 164.884 341.435 162.977 341.122 160.541H342.738C343.028 162.591 344.548 163.557 346.599 163.557ZM362.228 158.803H355.472V157.114H362.228V158.803ZM371.305 164.884C366.672 164.884 364.573 161.385 364.573 155.811C364.573 150.286 366.672 146.763 371.305 146.763C375.889 146.763 378.013 150.286 378.013 155.811C378.013 161.385 375.889 164.884 371.305 164.884ZM371.305 163.557C374.442 163.557 376.444 161.095 376.444 155.811C376.444 150.576 374.442 148.09 371.305 148.09C368.144 148.09 366.166 150.576 366.166 155.811C366.166 161.095 368.144 163.557 371.305 163.557ZM388.992 149.152L381.367 158.514H388.992V149.152ZM393.89 158.514V159.986H390.488V164.57H388.992V159.986H379.582V158.634L389.016 147.077H390.488V158.514H393.89Z"/></g><defs><linearGradient id="paint0_linear_7219_29430" x1="136.06" x2="21.837" y1="70.807" y2="186.494" gradientUnits="userSpaceOnUse"><stop stop-color="#EDDD0C"/><stop offset="1" stop-color="#CCBD00"/></linearGradient><linearGradient id="paint1_linear_7219_29430" x1="121" x2="106.027" y1="90" y2="140.081" gradientUnits="userSpaceOnUse"><stop stop-color="#EDDD0C"/><stop offset="1" stop-color="#CCBD00"/></linearGradient><linearGradient id="paint2_linear_7219_29430" x1="475.5" x2="573.663" y1="111.5" y2="14.006" gradientUnits="userSpaceOnUse"><stop stop-color="#EDDD0C"/><stop offset="1" stop-color="#CCBD00"/></linearGradient><linearGradient id="paint3_linear_7219_29430" x1="483" x2="494.482" y1="104.5" y2="81.304" gradientUnits="userSpaceOnUse"><stop stop-color="#EDDD0C"/><stop offset="1" stop-color="#CCBD00"/></linearGradient><linearGradient id="paint4_linear_7219_29430" x1="16275100" x2="16275100" y1="54452.5" y2="54388.4" gradientUnits="userSpaceOnUse"><stop stop-color="#EDDD0C"/><stop offset="1" stop-color="#CCBD00"/></linearGradient><clipPath id="clip0_7219_29430"><rect width="560" height="240" fill="#fff"/></clipPath></defs></svg>