<svg width="367" height="206" viewBox="0 0 367 206" fill="none" xmlns="http://www.w3.org/2000/svg">
<g clip-path="url(#clip0_3407_26696)">
<rect width="367" height="206" fill="black"/>
<path d="M31.4519 27.1107C31.4519 22.1952 28.5299 21.4477 25.5398 21.4477H24.0448V32.7963H25.5398C28.5299 32.7963 31.4519 32.0714 31.4519 27.1107ZM20.8056 18.9107H25.6757C30.8857 18.9107 34.8044 20.5869 34.8044 27.1107C34.8044 33.6344 30.8857 35.3333 25.6757 35.3333H20.8056V18.9107ZM44.2509 35.3333V33.725C43.5487 34.9708 42.2122 35.6277 40.6946 35.6277C37.7725 35.6277 36.5946 33.8382 36.5946 30.8482V23.1466H39.7206V30.1686C39.7206 31.7996 39.9697 33.1134 41.7139 33.1134C43.7979 33.1134 44.2509 31.4145 44.2509 29.4891V23.1466H47.3769V35.3333H44.2509ZM55.5037 22.8748C58.0634 22.8748 60.6004 24.3018 61.0307 27.3145H58.0407C57.7915 26.1366 56.7042 25.2985 55.5037 25.2985C53.8728 25.2985 52.5816 26.6803 52.5816 29.2173C52.5816 31.7769 53.8048 33.204 55.5264 33.204C56.6136 33.204 57.7236 32.6377 58.154 31.188H61.144C60.4191 34.5178 57.9048 35.6277 55.3678 35.6277C51.7209 35.6277 49.3877 32.9548 49.3877 29.2626C49.3877 25.5477 51.8568 22.8748 55.5037 22.8748ZM63.0106 18.9107H66.1366V28.0394L70.5763 23.1466H74.0874L69.7156 27.8129L74.3365 35.3333H70.8255L67.6316 30.0554L66.1366 31.6637V35.3333H63.0106V18.9107ZM86.7879 29.9421H89.8686C89.4382 33.2719 86.6747 35.6277 82.7559 35.6277C77.8631 35.6277 75.077 32.2979 75.077 27.0427C75.077 21.8554 78.067 18.6162 82.8465 18.6162C86.6973 18.6162 89.3249 20.8135 89.8686 24.2339H86.7879C86.1763 21.9461 84.636 21.1985 82.8239 21.1985C80.3548 21.1985 78.4294 23.2372 78.4294 27.0427C78.4294 30.9615 80.3548 33.0454 82.7106 33.0454C84.6587 33.0454 86.2443 32.1847 86.7879 29.9421ZM97.4886 25.3212C95.7671 25.3212 94.5439 26.7029 94.5439 29.2626C94.5439 31.8222 95.7671 33.1813 97.4886 33.1813C99.2101 33.1813 100.433 31.8222 100.433 29.2626C100.433 26.7029 99.2101 25.3212 97.4886 25.3212ZM97.4886 35.6277C94.4079 35.6277 91.3726 33.5211 91.3726 29.2626C91.3726 24.9814 94.4079 22.8748 97.4886 22.8748C100.569 22.8748 103.605 24.9814 103.605 29.2626C103.605 33.5211 100.569 35.6277 97.4886 35.6277ZM108.719 23.1466V24.7549C109.421 23.509 110.735 22.8748 112.253 22.8748C115.175 22.8748 116.466 24.6416 116.466 27.6543V35.3333H113.34V28.3339C113.34 26.7709 113 25.3891 111.234 25.3891C109.172 25.3891 108.719 27.0654 108.719 28.9908V35.3333H105.593V23.1466H108.719ZM124.084 22.7162H127.255L127.776 18.9107H130.585L130.064 22.7162H133.076L133.597 18.9107H136.406L135.885 22.7162H139.011L138.717 25.14H135.546L135.07 28.5604H138.173L137.924 30.9615H134.73L134.141 35.3333H131.332L131.921 30.9615H128.909L128.32 35.3333H125.511L126.1 30.9615H122.996L123.291 28.5604H126.439L126.915 25.14H123.835L124.084 22.7162ZM129.724 25.14L129.248 28.5604H132.261L132.737 25.14H129.724ZM146.274 33.2719C147.995 33.2719 149.241 32.0261 149.241 29.9421C149.241 27.677 147.723 26.5897 146.206 26.5897C144.756 26.5897 143.737 27.2919 143.397 28.0847L140.543 27.9488L141.63 18.9107H151.755V21.5383H144.19L143.737 25.0493C144.439 24.5284 145.458 24.1433 146.998 24.1433C149.807 24.1433 152.412 26.1366 152.412 29.9195C152.412 33.5438 149.603 35.6277 146.228 35.6277C142.377 35.6277 140.339 33.0001 140.158 30.1686H143.102C143.284 31.8675 144.258 33.2719 146.274 33.2719ZM27.2614 50.5151L25.1774 50.13C22.5272 49.5863 20.262 48.2272 20.262 45.3731C20.262 42.066 23.7957 40.6162 26.8083 40.6162C30.2061 40.6162 33.0829 42.6096 33.2641 45.7582H30.1381C29.889 43.8328 28.2127 43.1985 26.6724 43.1985C25.1548 43.1985 23.5012 43.7648 23.5012 45.2372C23.5012 46.3924 24.4526 47.0267 25.789 47.2759L27.9409 47.6609C30.6138 48.1593 33.5586 49.1786 33.5586 52.599C33.5586 55.9741 30.2061 57.6277 26.8989 57.6277C22.8669 57.6277 20.194 55.4532 19.8995 51.9195H23.0255C23.3879 54.3432 25.0642 55.0454 27.0122 55.0454C28.4619 55.0454 30.2967 54.5018 30.2967 52.7576C30.2967 51.3758 29.0056 50.8095 27.2614 50.5151ZM47.3707 52.1007H38.3779C38.5591 54.1847 39.9635 55.204 41.4585 55.204C42.4326 55.204 43.3839 54.8642 44.0182 53.7996H47.2347C46.5778 55.6117 44.811 57.6277 41.4812 57.6277C37.5624 57.6277 35.2746 54.7056 35.2746 51.1946C35.2746 47.5703 37.789 44.8748 41.3906 44.8748C45.1508 44.8748 47.4839 47.7969 47.3707 52.1007ZM41.3679 47.1626C40.19 47.1626 38.6724 47.8875 38.4232 49.9488H44.1994C44.1315 47.8875 42.6817 47.1626 41.3679 47.1626ZM56.9952 52.667V51.7609C53.4842 52.1233 52.1024 52.5311 52.1024 53.8902C52.1024 54.7736 52.782 55.4985 54.209 55.4985C56.1797 55.4985 56.9952 54.4565 56.9952 52.667ZM57.267 55.8156C56.3836 57.0841 55.1151 57.6277 53.2803 57.6277C50.9472 57.6277 48.8858 56.2686 48.8858 54.0487C48.8858 51.172 52.1024 50.3112 56.9046 49.7676V49.5637C56.9046 47.6836 55.8852 47.0267 54.6167 47.0267C53.4162 47.0267 52.4195 47.6383 52.3516 48.9974H49.4295C49.6787 46.5963 51.6267 44.8295 54.7753 44.8295C57.6521 44.8295 60.0305 46.098 60.0305 50.1979C60.0305 50.5604 59.9852 52.214 59.9852 53.3012C59.9852 55.2266 60.0985 56.3139 60.3476 57.3333H57.4709C57.3803 56.9482 57.335 56.4272 57.267 55.8156ZM63.065 45.1466V41.8394H66.1909V45.1466H68.7279V47.2985H66.1909V53.5957C66.1909 54.8416 66.6213 55.0907 67.7312 55.0907H68.6826V57.3333H66.3948C63.586 57.3333 63.065 56.4725 63.065 54.0487V47.2985H61.3434V45.1466H63.065ZM71.1612 45.1466V41.8394H74.2872V45.1466H76.8242V47.2985H74.2872V53.5957C74.2872 54.8416 74.7175 55.0907 75.8275 55.0907H76.7788V57.3333H74.491C71.6822 57.3333 71.1612 56.4725 71.1612 54.0487V47.2985H69.4397V45.1466H71.1612ZM81.953 40.9107V57.3333H78.8271V40.9107H81.953ZM96.0587 52.1007H87.0659C87.2471 54.1847 88.6516 55.204 90.1466 55.204C91.1206 55.204 92.072 54.8642 92.7062 53.7996H95.9228C95.2659 55.6117 93.499 57.6277 90.1692 57.6277C86.2505 57.6277 83.9626 54.7056 83.9626 51.1946C83.9626 47.5703 86.477 44.8748 90.0786 44.8748C93.8388 44.8748 96.1719 47.7969 96.0587 52.1007ZM90.056 47.1626C88.8781 47.1626 87.3604 47.8875 87.1112 49.9488H92.8874C92.8195 47.8875 91.3698 47.1626 90.056 47.1626ZM97.3364 57.3333V53.9355H100.847V57.5824L98.99 61.1841H97.2005L98.8767 57.3333H97.3364ZM119.092 40.9107L121.606 52.9388L123.849 40.9107H127.156L123.509 57.3333H119.681L117.189 45.1013L114.697 57.3333H110.869L107.222 40.9107H110.575L113.021 52.8709L115.309 40.9107H119.092ZM126.354 57.3333L132.47 40.9107H135.732L141.87 57.3333H138.359L137.204 54.0034H130.816L129.661 57.3333H126.354ZM134.01 44.8748L131.745 51.3532H136.275L134.01 44.8748ZM25.8061 62.8611C28.7746 62.8611 30.6941 64.4235 30.6941 67.0349C30.6941 70.316 27.8818 73.5077 21.9224 77.9941H31.1852V79.3333H20.0029V77.9494C25.9623 73.4185 29.221 70.2044 29.221 67.1912C29.221 65.1154 27.6363 64.0887 25.8061 64.0887C23.7749 64.0887 21.9224 65.0485 21.8554 68.1509H20.3823C20.5385 64.6913 22.592 62.8611 25.8061 62.8611ZM39.4734 79.6234C35.1879 79.6234 33.2461 76.387 33.2461 71.2311C33.2461 66.1198 35.1879 62.8611 39.4734 62.8611C43.7142 62.8611 45.6783 66.1198 45.6783 71.2311C45.6783 76.387 43.7142 79.6234 39.4734 79.6234ZM39.4734 78.3958C42.375 78.3958 44.2275 76.1192 44.2275 71.2311C44.2275 66.3877 42.375 64.0887 39.4734 64.0887C36.5495 64.0887 34.7192 66.3877 34.7192 71.2311C34.7192 76.1192 36.5495 78.3958 39.4734 78.3958ZM53.3573 62.8611C56.3259 62.8611 58.2454 64.4235 58.2454 67.0349C58.2454 70.316 55.4331 73.5077 49.4736 77.9941H58.7364V79.3333H47.5541V77.9494C53.5135 73.4185 56.7723 70.2044 56.7723 67.1912C56.7723 65.1154 55.1875 64.0887 53.3573 64.0887C51.3262 64.0887 49.4736 65.0485 49.4067 68.1509H47.9335C48.0898 64.6913 50.1432 62.8611 53.3573 62.8611ZM67.4308 65.0708L60.3776 73.7309H67.4308V65.0708ZM71.9617 73.7309V75.0925H68.8146V79.3333H67.4308V75.0925H58.726V73.8425L67.4531 63.1513H68.8146V73.7309H71.9617ZM79.4 73.9988H73.1504V72.4364H79.4V73.9988ZM87.7971 79.6234C83.5116 79.6234 81.5698 76.387 81.5698 71.2311C81.5698 66.1198 83.5116 62.8611 87.7971 62.8611C92.0379 62.8611 94.002 66.1198 94.002 71.2311C94.002 76.387 92.0379 79.6234 87.7971 79.6234ZM87.7971 78.3958C90.6987 78.3958 92.5512 76.1192 92.5512 71.2311C92.5512 66.3877 90.6987 64.0887 87.7971 64.0887C84.8731 64.0887 83.0429 66.3877 83.0429 71.2311C83.0429 76.1192 84.8731 78.3958 87.7971 78.3958ZM101.949 62.8611C105.23 62.8611 107.261 64.5574 107.261 66.901C107.261 68.8429 106.257 70.0705 104.828 70.6731C106.614 71.4097 107.752 72.6819 107.752 74.8469C107.752 77.8825 105.274 79.6234 101.949 79.6234C98.6455 79.6234 96.1679 77.8825 96.1679 74.8469C96.1679 72.6819 97.2839 71.4097 99.0695 70.6731C97.6634 70.0705 96.659 68.8429 96.659 66.901C96.659 64.5574 98.6678 62.8611 101.949 62.8611ZM101.949 71.2311C99.3374 71.2311 97.6411 72.6819 97.6411 74.8469C97.6411 77.012 99.3374 78.3958 101.949 78.3958C104.605 78.3958 106.279 77.012 106.279 74.8469C106.279 72.6819 104.583 71.2311 101.949 71.2311ZM105.832 67.1242C105.832 65.1824 104.337 64.0887 101.949 64.0887C99.6052 64.0887 98.0875 65.1824 98.0875 67.1242C98.0875 69.0214 99.6052 70.1597 101.949 70.1597C104.337 70.1597 105.832 69.0214 105.832 67.1242ZM115.714 73.9988H109.464V72.4364H115.714V73.9988ZM121.091 79.3333H119.708V66.2314H116.002V65.294C118.837 65.294 119.551 65.0038 120.154 63.0173H121.091V79.3333ZM129.89 78.3958C132.144 78.3958 134.064 76.8557 134.064 74.0434C134.064 71.0079 131.899 69.758 129.845 69.758C128.015 69.758 126.497 70.7401 126.028 71.8337L124.667 71.6998L125.716 63.1513H134.867V64.4905H126.921L126.207 70.0258C126.988 69.133 128.595 68.5081 130.18 68.5081C133.171 68.5081 135.537 70.4499 135.537 74.0211C135.537 77.7039 132.836 79.6234 129.89 79.6234C126.676 79.6234 124.511 77.5253 124.221 74.78H125.694C126.162 77.2798 127.97 78.3958 129.89 78.3958Z" fill="#29D087"/>
<g clip-path="url(#clip1_3407_26696)">
<rect width="183.667" height="206.625" transform="translate(183.667)" fill="#7AE2B5"/>
<path d="M576.209 218.762H127.465L127.465 76.6836H127.474C141.502 76.6836 148.515 73.1468 155.528 69.6102C162.54 66.0743 169.551 62.5386 183.572 62.5386C197.595 62.5386 204.606 66.0748 211.618 69.6111C218.629 73.1473 225.64 76.6836 239.663 76.6836C253.685 76.6836 260.696 73.1473 267.708 69.6111C274.719 66.0748 281.73 62.5386 295.753 62.5386C309.775 62.5386 316.787 66.0748 323.798 69.6111C330.809 73.1473 337.82 76.6836 351.843 76.6836C365.865 76.6836 372.877 73.1473 379.888 69.6111C386.899 66.0748 393.91 62.5386 407.933 62.5386C421.956 62.5386 428.967 66.0748 435.978 69.6111C442.989 73.1473 450.001 76.6836 464.023 76.6836C478.045 76.6836 485.054 73.1479 492.063 69.6119C499.074 66.0754 506.085 62.5386 520.113 62.5386C534.141 62.5386 541.155 66.0754 548.168 69.6119C555.179 73.1476 562.19 76.6831 576.209 76.6836L576.209 218.762Z" fill="#29D087"/>
<path d="M632.411 131.827C618.476 131.85 611.485 135.367 604.495 138.883C597.481 142.411 590.468 145.939 576.44 145.939C562.413 145.939 555.399 142.411 548.386 138.883C541.372 135.355 534.358 131.827 520.331 131.827C506.304 131.827 499.29 135.355 492.276 138.883C485.263 142.411 478.249 145.939 464.222 145.939C450.194 145.939 443.181 142.411 436.167 138.883C429.153 135.355 422.14 131.827 408.112 131.827C394.085 131.827 387.072 135.355 380.058 138.883C373.044 142.411 366.031 145.939 352.003 145.939C337.977 145.939 330.966 142.411 323.954 138.884C316.94 135.355 309.927 131.827 295.894 131.827C281.861 131.827 274.845 135.355 267.83 138.884C260.816 142.411 253.802 145.939 239.776 145.939C225.749 145.939 218.735 142.411 211.721 138.883C204.708 135.355 197.694 131.827 183.667 131.827V294.939H632.411V131.827Z" fill="#00C770"/>
</g>
</g>
<defs>
<clipPath id="clip0_3407_26696">
<rect width="367" height="206" fill="white"/>
</clipPath>
<clipPath id="clip1_3407_26696">
<rect width="183.667" height="206.625" fill="white" transform="translate(183.667)"/>
</clipPath>
</defs>
</svg>
