<svg width="1200" height="515" viewBox="0 0 1200 515" fill="none" xmlns="http://www.w3.org/2000/svg">
<g clip-path="url(#clip0_14738_28635)">
<g clip-path="url(#clip1_14738_28635)">
<rect width="1200" height="515" fill="url(#paint0_linear_14738_28635)"/>
<path d="M-200.003 -476.574L505.555 -476.574C535.931 -476.574 560.555 -451.95 560.555 -421.574L560.555 -329.749C560.555 -299.373 535.93 -274.749 505.555 -274.749L194.061 -274.749C163.686 -274.749 139.061 -250.125 139.061 -219.749L139.061 221C139.061 251.375 114.437 276 84.0613 276L-127.502 276" stroke="#F0DF09" stroke-width="2.9926"/>
<path d="M1315 217.5L908.5 217.5C878.124 217.5 853.5 192.876 853.5 162.5L853.5 -145.829C853.5 -176.205 878.124 -200.829 908.5 -200.829L1047.93 -200.829C1078.31 -200.829 1102.93 -225.453 1102.93 -255.829L1102.93 -388" stroke="#F0DF09" stroke-width="2.9926" stroke-linejoin="round"/>
<path d="M636 556.5L636 471.07C636 440.694 611.375 416.07 581 416.07L297.5 416.071C267.124 416.071 242.5 391.447 242.5 361.071L242.5 218.309C242.5 187.934 267.124 163.309 297.5 163.309L518.576 163.309C548.951 163.309 573.576 138.685 573.576 108.309L573.576 -471.437C573.576 -501.813 598.2 -526.437 628.576 -526.437L777.936 -526.437" stroke="#F0DF09" stroke-width="2.9926" stroke-linejoin="round"/>
<rect x="251.712" y="318.387" width="19.7508" height="41.4254" rx="9.87539" transform="rotate(-180 251.712 318.387)" fill="#D4C50B" stroke="#F0DF09" stroke-width="1.92382"/>
<path d="M-220 453.505C-220.826 453.505 -221.496 454.175 -221.496 455.002C-221.496 455.828 -220.826 456.498 -220 456.498L-220 455.002L-220 453.505ZM166.933 456.058C167.517 455.474 167.517 454.526 166.933 453.942L157.411 444.42C156.826 443.835 155.879 443.835 155.294 444.42C154.71 445.004 154.71 445.951 155.295 446.536L163.759 455L155.295 463.464C154.71 464.049 154.71 464.996 155.295 465.58C155.879 466.165 156.826 466.165 157.411 465.58L166.933 456.058ZM-220 455.002L-220 456.498L165.875 456.496L165.875 455L165.875 453.504L-220 453.505L-220 455.002Z" fill="#F0DF09"/>
<path d="M1005.5 614.375C1005.5 615.201 1006.17 615.871 1007 615.871C1007.83 615.871 1008.5 615.201 1008.5 614.375L1007 614.375L1005.5 614.375ZM1008.06 326.442C1007.47 325.858 1006.53 325.858 1005.94 326.442L996.42 335.964C995.835 336.549 995.835 337.496 996.42 338.08C997.004 338.665 997.951 338.665 998.536 338.08L1007 329.616L1015.46 338.08C1016.05 338.665 1017 338.665 1017.58 338.08C1018.16 337.496 1018.16 336.549 1017.58 335.964L1008.06 326.442ZM1007 614.375L1008.5 614.375L1008.5 327.5L1007 327.5L1005.5 327.5L1005.5 614.375L1007 614.375Z" fill="#F0DF09"/>
<rect x="1081.96" y="230.038" width="25.0762" height="51.0762" rx="12.5381" transform="rotate(-90 1081.96 230.038)" fill="#D4C50B" stroke="#F0DF09" stroke-width="1.92382"/>
<path d="M244.704 100.04V95.56L244.76 92.06H244.676C244.545 93.0493 244.107 93.8333 243.36 94.412C242.613 94.9907 241.661 95.28 240.504 95.28C238.955 95.28 237.723 94.7667 236.808 93.74C235.893 92.7133 235.436 91.3133 235.436 89.54V85.032C235.436 83.2587 235.893 81.868 236.808 80.86C237.741 79.8333 238.973 79.32 240.504 79.32C241.661 79.32 242.613 79.6093 243.36 80.188C244.107 80.748 244.545 81.532 244.676 82.54H244.704V79.6H247.224V100.04H244.704ZM241.344 93.096C242.389 93.096 243.211 92.7693 243.808 92.116C244.405 91.4627 244.704 90.5573 244.704 89.4V85.2C244.704 84.0427 244.405 83.1373 243.808 82.484C243.211 81.8307 242.389 81.504 241.344 81.504C240.28 81.504 239.449 81.7747 238.852 82.316C238.255 82.8573 237.956 83.7253 237.956 84.92V89.68C237.956 90.8747 238.255 91.7427 238.852 92.284C239.449 92.8253 240.28 93.096 241.344 93.096ZM258.161 95.28C256.388 95.28 254.969 94.7573 253.905 93.712C252.841 92.648 252.309 91.2107 252.309 89.4V79.6H254.829V89.4C254.829 90.52 255.128 91.416 255.725 92.088C256.322 92.7413 257.134 93.068 258.161 93.068C259.206 93.068 260.028 92.7413 260.625 92.088C261.241 91.416 261.549 90.52 261.549 89.4V79.6H264.069V89.4C264.069 91.2107 263.528 92.648 262.445 93.712C261.362 94.7573 259.934 95.28 258.161 95.28ZM273.634 95.28C272.047 95.28 270.787 94.8413 269.854 93.964C268.921 93.068 268.454 91.9013 268.454 90.464C268.454 89.512 268.669 88.6813 269.098 87.972C269.527 87.2627 270.125 86.712 270.89 86.32C271.655 85.9093 272.533 85.704 273.522 85.704H278.282V84.5C278.282 82.5027 277.19 81.504 275.006 81.504C274.035 81.504 273.251 81.6813 272.654 82.036C272.057 82.3907 271.739 82.8853 271.702 83.52H269.182C269.275 82.3067 269.835 81.308 270.862 80.524C271.907 79.7213 273.289 79.32 275.006 79.32C276.873 79.32 278.301 79.768 279.29 80.664C280.298 81.56 280.802 82.8107 280.802 84.416V95H278.31V92.2H278.254C278.105 93.152 277.629 93.908 276.826 94.468C276.023 95.0093 274.959 95.28 273.634 95.28ZM274.25 93.152C275.482 93.152 276.462 92.8533 277.19 92.256C277.918 91.6587 278.282 90.8467 278.282 89.82V87.664H273.802C272.981 87.664 272.309 87.916 271.786 88.42C271.282 88.9053 271.03 89.5587 271.03 90.38C271.03 91.2387 271.31 91.92 271.87 92.424C272.449 92.9093 273.242 93.152 274.25 93.152ZM291.991 95.28C290.125 95.28 288.631 94.7573 287.511 93.712C286.391 92.6667 285.831 91.2293 285.831 89.4V85.2C285.831 83.3707 286.391 81.9333 287.511 80.888C288.631 79.8427 290.125 79.32 291.991 79.32C293.765 79.32 295.193 79.796 296.275 80.748C297.377 81.7 297.955 82.9973 298.011 84.64H295.491C295.435 83.6507 295.099 82.8947 294.483 82.372C293.867 81.8307 293.037 81.56 291.991 81.56C290.89 81.56 290.003 81.8773 289.331 82.512C288.678 83.128 288.351 84.0147 288.351 85.172V89.4C288.351 90.5573 288.678 91.4533 289.331 92.088C290.003 92.7227 290.89 93.04 291.991 93.04C293.037 93.04 293.867 92.7693 294.483 92.228C295.099 91.6867 295.435 90.9307 295.491 89.96H298.011C297.955 91.6027 297.377 92.9 296.275 93.852C295.193 94.804 293.765 95.28 291.991 95.28ZM302.872 95V74.56H305.392V85.956H308.332L312.644 79.6H315.528L310.572 86.936L315.808 95H312.868L308.388 88.14H305.392V95H302.872ZM318.625 97.8V95.7H332.065V97.8H318.625ZM341.518 95.224C339.801 95.224 338.466 94.8413 337.514 94.076C336.581 93.292 336.114 92.1907 336.114 90.772H338.634C338.634 91.4813 338.886 92.0413 339.39 92.452C339.894 92.844 340.604 93.04 341.518 93.04H342.75C343.684 93.04 344.402 92.8347 344.906 92.424C345.429 92.0133 345.69 91.4347 345.69 90.688C345.69 89.3627 345.084 88.616 343.87 88.448L339.614 87.832C338.569 87.6827 337.757 87.2533 337.178 86.544C336.6 85.816 336.31 84.864 336.31 83.688C336.31 82.344 336.768 81.2893 337.682 80.524C338.616 79.7587 339.894 79.376 341.518 79.376H342.75C344.244 79.376 345.457 79.7493 346.39 80.496C347.342 81.224 347.856 82.1853 347.93 83.38H345.382C345.345 82.8387 345.084 82.3907 344.598 82.036C344.132 81.6813 343.516 81.504 342.75 81.504H341.518C340.66 81.504 339.988 81.7 339.502 82.092C339.017 82.484 338.774 83.016 338.774 83.688C338.774 84.7707 339.269 85.3867 340.258 85.536L344.234 86.096C346.848 86.4693 348.154 88 348.154 90.688C348.154 92.1253 347.678 93.2453 346.726 94.048C345.793 94.832 344.468 95.224 342.75 95.224H341.518ZM358.923 95.28C357.113 95.28 355.647 94.7387 354.527 93.656C353.426 92.5547 352.875 91.0427 352.875 89.12V85.48C352.875 83.5573 353.426 82.0547 354.527 80.972C355.647 79.8707 357.113 79.32 358.923 79.32C360.137 79.32 361.191 79.5627 362.087 80.048C363.002 80.5333 363.711 81.2147 364.215 82.092C364.719 82.9693 364.971 84.0053 364.971 85.2V87.944H355.339V89.4C355.339 90.5387 355.666 91.444 356.319 92.116C356.973 92.7693 357.841 93.096 358.923 93.096C359.857 93.096 360.622 92.9187 361.219 92.564C361.835 92.1907 362.209 91.696 362.339 91.08H364.859C364.691 92.368 364.066 93.3947 362.983 94.16C361.901 94.9067 360.547 95.28 358.923 95.28ZM355.339 85.984H362.507V85.2C362.507 83.9867 362.19 83.0533 361.555 82.4C360.939 81.728 360.062 81.392 358.923 81.392C357.785 81.392 356.898 81.728 356.263 82.4C355.647 83.0533 355.339 83.9867 355.339 85.2V85.984ZM370.449 95V79.6H372.969V82.54H373.025C373.155 81.5507 373.575 80.7667 374.285 80.188C374.994 79.6093 375.946 79.32 377.141 79.32C378.746 79.32 379.978 79.8053 380.837 80.776C381.714 81.728 382.153 83.0907 382.153 84.864V86.18H379.633V84.864C379.633 82.624 378.541 81.504 376.357 81.504C375.255 81.504 374.415 81.8213 373.837 82.456C373.258 83.0907 372.969 84.0053 372.969 85.2V95H370.449ZM390.85 95L385.614 79.6H388.33L391.69 89.96C391.895 90.576 392.072 91.1733 392.222 91.752C392.371 92.312 392.483 92.7507 392.558 93.068C392.651 92.7507 392.763 92.312 392.894 91.752C393.024 91.1733 393.183 90.576 393.37 89.96L396.73 79.6H399.39L394.154 95H390.85ZM409.291 95.28C407.48 95.28 406.015 94.7387 404.895 93.656C403.793 92.5547 403.243 91.0427 403.243 89.12V85.48C403.243 83.5573 403.793 82.0547 404.895 80.972C406.015 79.8707 407.48 79.32 409.291 79.32C410.504 79.32 411.559 79.5627 412.455 80.048C413.369 80.5333 414.079 81.2147 414.583 82.092C415.087 82.9693 415.339 84.0053 415.339 85.2V87.944H405.707V89.4C405.707 90.5387 406.033 91.444 406.687 92.116C407.34 92.7693 408.208 93.096 409.291 93.096C410.224 93.096 410.989 92.9187 411.587 92.564C412.203 92.1907 412.576 91.696 412.707 91.08H415.227C415.059 92.368 414.433 93.3947 413.351 94.16C412.268 94.9067 410.915 95.28 409.291 95.28ZM405.707 85.984H412.875V85.2C412.875 83.9867 412.557 83.0533 411.923 82.4C411.307 81.728 410.429 81.392 409.291 81.392C408.152 81.392 407.265 81.728 406.631 82.4C406.015 83.0533 405.707 83.9867 405.707 85.2V85.984Z" fill="#F3E223"/>
<path d="M274.58 483.36C271.911 482.763 269.839 481.512 268.364 479.608C266.908 477.704 266.18 475.315 266.18 472.44V467.4C266.18 464.525 266.908 462.136 268.364 460.232C269.839 458.328 271.911 457.077 274.58 456.48V458.916C273.385 459.196 272.34 459.728 271.444 460.512C270.567 461.296 269.885 462.276 269.4 463.452C268.933 464.609 268.7 465.925 268.7 467.4V472.44C268.7 473.896 268.933 475.212 269.4 476.388C269.885 477.564 270.567 478.544 271.444 479.328C272.34 480.112 273.385 480.644 274.58 480.924V483.36ZM281.009 483.36V480.924C282.222 480.644 283.268 480.112 284.145 479.328C285.022 478.544 285.694 477.564 286.161 476.388C286.646 475.212 286.889 473.896 286.889 472.44V467.4C286.889 465.925 286.646 464.609 286.161 463.452C285.694 462.276 285.022 461.296 284.145 460.512C283.268 459.728 282.222 459.196 281.009 458.916V456.48C283.678 457.077 285.741 458.328 287.197 460.232C288.672 462.136 289.409 464.525 289.409 467.4V472.44C289.409 475.315 288.672 477.704 287.197 479.608C285.741 481.512 283.678 482.763 281.009 483.36Z" fill="#F3E223"/>
<path d="M51.58 360.36C48.9107 359.763 46.8387 358.512 45.364 356.608C43.908 354.704 43.18 352.315 43.18 349.44V344.4C43.18 341.525 43.908 339.136 45.364 337.232C46.8387 335.328 48.9107 334.077 51.58 333.48V335.916C50.3853 336.196 49.34 336.728 48.444 337.512C47.5667 338.296 46.8853 339.276 46.4 340.452C45.9333 341.609 45.7 342.925 45.7 344.4V349.44C45.7 350.896 45.9333 352.212 46.4 353.388C46.8853 354.564 47.5667 355.544 48.444 356.328C49.34 357.112 50.3853 357.644 51.58 357.924V360.36ZM58.0091 360.36V357.924C59.2224 357.644 60.2677 357.112 61.1451 356.328C62.0224 355.544 62.6944 354.564 63.1611 353.388C63.6464 352.212 63.8891 350.896 63.8891 349.44V344.4C63.8891 342.925 63.6464 341.609 63.1611 340.452C62.6944 339.276 62.0224 338.296 61.1451 337.512C60.2677 336.728 59.2224 336.196 58.0091 335.916V333.48C60.6784 334.077 62.7411 335.328 64.1971 337.232C65.6717 339.136 66.4091 341.525 66.4091 344.4V349.44C66.4091 352.315 65.6717 354.704 64.1971 356.608C62.7411 358.512 60.6784 359.763 58.0091 360.36ZM79.6981 345.52C79.0821 345.52 78.5781 345.324 78.1861 344.932C77.7941 344.54 77.5981 344.036 77.5981 343.42C77.5981 342.823 77.7941 342.328 78.1861 341.936C78.5968 341.525 79.1008 341.32 79.6981 341.32H80.2581C80.8555 341.32 81.3501 341.525 81.7421 341.936C82.1528 342.328 82.3581 342.823 82.3581 343.42C82.3581 344.036 82.1621 344.54 81.7701 344.932C81.3781 345.324 80.8741 345.52 80.2581 345.52H79.6981ZM77.3181 361.48L78.8581 352.912H81.8821L79.9221 361.48H77.3181Z" fill="#F3E223"/>
<path d="M994.97 120.04V115.56L995.026 112.06H994.942C994.811 113.049 994.372 113.833 993.626 114.412C992.879 114.991 991.927 115.28 990.77 115.28C989.22 115.28 987.988 114.767 987.074 113.74C986.159 112.713 985.702 111.313 985.702 109.54V105.032C985.702 103.259 986.159 101.868 987.074 100.86C988.007 99.8333 989.239 99.32 990.77 99.32C991.927 99.32 992.879 99.6093 993.626 100.188C994.372 100.748 994.811 101.532 994.942 102.54H994.97V99.6H997.49V120.04H994.97ZM991.61 113.096C992.655 113.096 993.476 112.769 994.074 112.116C994.671 111.463 994.97 110.557 994.97 109.4V105.2C994.97 104.043 994.671 103.137 994.074 102.484C993.476 101.831 992.655 101.504 991.61 101.504C990.546 101.504 989.715 101.775 989.118 102.316C988.52 102.857 988.222 103.725 988.222 104.92V109.68C988.222 110.875 988.52 111.743 989.118 112.284C989.715 112.825 990.546 113.096 991.61 113.096ZM1008.43 115.28C1006.65 115.28 1005.23 114.757 1004.17 113.712C1003.11 112.648 1002.57 111.211 1002.57 109.4V99.6H1005.09V109.4C1005.09 110.52 1005.39 111.416 1005.99 112.088C1006.59 112.741 1007.4 113.068 1008.43 113.068C1009.47 113.068 1010.29 112.741 1010.89 112.088C1011.51 111.416 1011.81 110.52 1011.81 109.4V99.6H1014.33V109.4C1014.33 111.211 1013.79 112.648 1012.71 113.712C1011.63 114.757 1010.2 115.28 1008.43 115.28ZM1023.9 115.28C1022.31 115.28 1021.05 114.841 1020.12 113.964C1019.19 113.068 1018.72 111.901 1018.72 110.464C1018.72 109.512 1018.93 108.681 1019.36 107.972C1019.79 107.263 1020.39 106.712 1021.16 106.32C1021.92 105.909 1022.8 105.704 1023.79 105.704H1028.55V104.5C1028.55 102.503 1027.46 101.504 1025.27 101.504C1024.3 101.504 1023.52 101.681 1022.92 102.036C1022.32 102.391 1022.01 102.885 1021.97 103.52H1019.45C1019.54 102.307 1020.1 101.308 1021.13 100.524C1022.17 99.7213 1023.55 99.32 1025.27 99.32C1027.14 99.32 1028.57 99.768 1029.56 100.664C1030.56 101.56 1031.07 102.811 1031.07 104.416V115H1028.58V112.2H1028.52C1028.37 113.152 1027.89 113.908 1027.09 114.468C1026.29 115.009 1025.23 115.28 1023.9 115.28ZM1024.52 113.152C1025.75 113.152 1026.73 112.853 1027.46 112.256C1028.18 111.659 1028.55 110.847 1028.55 109.82V107.664H1024.07C1023.25 107.664 1022.57 107.916 1022.05 108.42C1021.55 108.905 1021.3 109.559 1021.3 110.38C1021.3 111.239 1021.58 111.92 1022.14 112.424C1022.71 112.909 1023.51 113.152 1024.52 113.152ZM1042.26 115.28C1040.39 115.28 1038.9 114.757 1037.78 113.712C1036.66 112.667 1036.1 111.229 1036.1 109.4V105.2C1036.1 103.371 1036.66 101.933 1037.78 100.888C1038.9 99.8427 1040.39 99.32 1042.26 99.32C1044.03 99.32 1045.46 99.796 1046.54 100.748C1047.64 101.7 1048.22 102.997 1048.28 104.64H1045.76C1045.7 103.651 1045.36 102.895 1044.75 102.372C1044.13 101.831 1043.3 101.56 1042.26 101.56C1041.16 101.56 1040.27 101.877 1039.6 102.512C1038.94 103.128 1038.62 104.015 1038.62 105.172V109.4C1038.62 110.557 1038.94 111.453 1039.6 112.088C1040.27 112.723 1041.16 113.04 1042.26 113.04C1043.3 113.04 1044.13 112.769 1044.75 112.228C1045.36 111.687 1045.7 110.931 1045.76 109.96H1048.28C1048.22 111.603 1047.64 112.9 1046.54 113.852C1045.46 114.804 1044.03 115.28 1042.26 115.28ZM1053.14 115V94.56H1055.66V105.956H1058.6L1062.91 99.6H1065.79L1060.84 106.936L1066.07 115H1063.13L1058.65 108.14H1055.66V115H1053.14ZM1075.61 103.464C1074.85 103.464 1074.27 103.277 1073.87 102.904C1073.48 102.531 1073.29 102.027 1073.29 101.392C1073.29 100.757 1073.48 100.253 1073.87 99.88C1074.27 99.5067 1074.85 99.32 1075.61 99.32C1076.38 99.32 1076.95 99.5067 1077.35 99.88C1077.74 100.253 1077.93 100.757 1077.93 101.392C1077.93 102.027 1077.74 102.531 1077.35 102.904C1076.95 103.277 1076.38 103.464 1075.61 103.464ZM1075.61 115.28C1074.85 115.28 1074.27 115.093 1073.87 114.72C1073.48 114.347 1073.29 113.843 1073.29 113.208C1073.29 112.573 1073.48 112.069 1073.87 111.696C1074.27 111.323 1074.85 111.136 1075.61 111.136C1076.38 111.136 1076.95 111.323 1077.35 111.696C1077.74 112.069 1077.93 112.573 1077.93 113.208C1077.93 113.843 1077.74 114.347 1077.35 114.72C1076.95 115.093 1076.38 115.28 1075.61 115.28Z" fill="#F3E223"/>
</g>
<path d="M410.929 326.477C372.278 326.477 341.064 295.264 341.064 256.613C341.064 217.962 372.278 186.749 410.929 186.749C449.579 186.749 480.793 217.962 480.793 256.613C480.793 295.264 449.579 326.477 410.929 326.477Z" fill="black"/>
<path d="M448.285 246.248H434.58V266.931H448.285C453.968 266.931 458.69 262.21 458.69 256.527C458.69 250.803 453.968 246.248 448.285 246.248Z" fill="#FFF100"/>
<path d="M367.428 256.614C367.428 272.576 380.423 285.571 396.385 285.571C412.346 285.571 425.341 272.576 425.341 256.614C425.341 240.652 412.346 227.657 396.385 227.657C380.423 227.657 367.428 240.652 367.428 256.614Z" fill="#FFF100"/>
<path d="M516.621 274.113V239.098H526.023C528.293 239.098 530.26 239.545 531.923 240.441C533.618 241.304 534.929 242.535 535.856 244.134C536.783 245.701 537.247 247.556 537.247 249.698V263.465C537.247 265.607 536.783 267.478 535.856 269.077C534.929 270.676 533.618 271.923 531.923 272.818C530.26 273.682 528.293 274.113 526.023 274.113H516.621ZM521.37 269.892H526.023C528.037 269.892 529.62 269.317 530.772 268.165C531.923 267.014 532.498 265.447 532.498 263.465V249.698C532.498 247.716 531.923 246.165 530.772 245.046C529.62 243.894 528.037 243.319 526.023 243.319H521.37V269.892ZM555.504 274.593C552.402 274.593 549.923 273.682 548.069 271.859C546.214 270.036 545.287 267.558 545.287 264.424V247.732H550.035V264.424C550.035 266.279 550.515 267.75 551.474 268.837C552.466 269.892 553.809 270.42 555.504 270.42C557.23 270.42 558.589 269.892 559.581 268.837C560.572 267.75 561.068 266.279 561.068 264.424V247.732H565.816V264.424C565.816 267.558 564.873 270.036 562.986 271.859C561.132 273.682 558.637 274.593 555.504 274.593ZM584.696 274.593C581.467 274.593 578.876 273.698 576.926 271.907C574.975 270.084 574 267.59 574 264.424V257.373C574 254.239 574.975 251.777 576.926 249.986C578.876 248.163 581.467 247.252 584.696 247.252C587.798 247.252 590.292 248.083 592.179 249.746C594.098 251.377 595.105 253.616 595.201 256.462H590.5C590.404 254.863 589.829 253.632 588.774 252.768C587.75 251.873 586.391 251.425 584.696 251.425C582.874 251.425 581.419 251.953 580.331 253.008C579.276 254.031 578.749 255.486 578.749 257.373V264.424C578.749 266.343 579.276 267.814 580.331 268.837C581.419 269.86 582.874 270.372 584.696 270.372C586.423 270.372 587.798 269.94 588.822 269.077C589.845 268.213 590.404 266.982 590.5 265.383H595.201C595.105 268.229 594.098 270.484 592.179 272.147C590.292 273.778 587.798 274.593 584.696 274.593ZM603.145 274.113V239.098H607.893V258.476H612.738L619.837 247.732H625.209L616.911 260.347L625.641 274.113H620.173L612.786 262.553H607.893V274.113H603.145ZM631.666 274.113V239.098H641.068C643.338 239.098 645.305 239.545 646.967 240.441C648.662 241.304 649.973 242.535 650.901 244.134C651.828 245.701 652.292 247.556 652.292 249.698V263.465C652.292 265.607 651.828 267.478 650.901 269.077C649.973 270.676 648.662 271.923 646.967 272.818C645.305 273.682 643.338 274.113 641.068 274.113H631.666ZM636.415 269.892H641.068C643.082 269.892 644.665 269.317 645.816 268.165C646.967 267.014 647.543 265.447 647.543 263.465V249.698C647.543 247.716 646.967 246.165 645.816 245.046C644.665 243.894 643.082 243.319 641.068 243.319H636.415V269.892ZM660.475 274.113V239.098H670.596C673.826 239.098 676.368 239.913 678.223 241.544C680.11 243.143 681.053 245.349 681.053 248.163C681.053 249.986 680.477 251.617 679.326 253.056C678.207 254.463 676.752 255.326 674.961 255.646V255.79C676.304 255.95 677.487 256.43 678.511 257.229C679.566 258.029 680.381 259.052 680.957 260.299C681.565 261.514 681.868 262.857 681.868 264.328C681.868 267.334 680.909 269.716 678.99 271.475C677.104 273.234 674.529 274.113 671.268 274.113H660.475ZM665.128 253.871H670.548C672.339 253.871 673.746 253.408 674.769 252.48C675.793 251.521 676.304 250.226 676.304 248.595C676.304 246.932 675.793 245.637 674.769 244.71C673.746 243.75 672.355 243.271 670.596 243.271H665.128V253.871ZM665.128 269.94H670.836C672.787 269.94 674.322 269.429 675.441 268.405C676.56 267.35 677.12 265.927 677.12 264.136C677.12 262.282 676.56 260.779 675.441 259.627C674.322 258.476 672.787 257.901 670.836 257.901H665.128V269.94ZM717.998 274.113V269.796H727.351V243.367L717.95 250.37V244.998L725.912 239.098H732.1V269.796H739.774V274.113H717.998ZM756.88 274.593C755.665 274.593 754.673 274.225 753.906 273.49C753.17 272.754 752.803 271.811 752.803 270.66C752.803 269.445 753.17 268.453 753.906 267.686C754.673 266.918 755.665 266.535 756.88 266.535C758.095 266.535 759.07 266.918 759.806 267.686C760.573 268.453 760.957 269.445 760.957 270.66C760.957 271.811 760.573 272.754 759.806 273.49C759.07 274.225 758.095 274.593 756.88 274.593ZM785.401 274.593C782.107 274.593 779.501 273.698 777.582 271.907C775.664 270.084 774.704 267.622 774.704 264.52H779.453C779.453 266.343 779.981 267.782 781.036 268.837C782.123 269.86 783.578 270.372 785.401 270.372C787.256 270.372 788.711 269.844 789.766 268.789C790.853 267.734 791.397 266.295 791.397 264.472V262.266C791.397 260.443 790.869 259.004 789.814 257.949C788.791 256.893 787.384 256.366 785.593 256.366H775.904V239.098H794.898V243.415H780.317L780.412 252.097H785.833C789.094 252.097 791.621 252.992 793.411 254.783C795.234 256.542 796.146 259.036 796.146 262.266V264.472C796.146 267.606 795.17 270.084 793.22 271.907C791.301 273.698 788.695 274.593 785.401 274.593ZM814.402 274.593C813.187 274.593 812.196 274.225 811.428 273.49C810.693 272.754 810.325 271.811 810.325 270.66C810.325 269.445 810.693 268.453 811.428 267.686C812.196 266.918 813.187 266.535 814.402 266.535C815.617 266.535 816.592 266.918 817.328 267.686C818.095 268.453 818.479 269.445 818.479 270.66C818.479 271.811 818.095 272.754 817.328 273.49C816.592 274.225 815.617 274.593 814.402 274.593ZM842.684 274.593C839.39 274.593 836.784 273.698 834.865 271.907C832.946 270.084 831.987 267.622 831.987 264.52H836.736C836.736 266.343 837.263 267.782 838.319 268.837C839.406 269.86 840.877 270.372 842.731 270.372C844.554 270.372 846.009 269.86 847.096 268.837C848.184 267.782 848.727 266.343 848.727 264.52V262.074C848.727 260.251 848.184 258.812 847.096 257.757C846.041 256.669 844.586 256.126 842.731 256.126H838.798V252.145L847.24 243.367H833.042V239.098H852.565V243.415L844.218 252.049C847.064 252.305 849.319 253.328 850.982 255.119C852.645 256.877 853.476 259.196 853.476 262.074V264.52C853.476 267.622 852.501 270.084 850.55 271.907C848.631 273.698 846.009 274.593 842.684 274.593Z" fill="black"/>
</g>
<defs>
<linearGradient id="paint0_linear_14738_28635" x1="587" y1="-85" x2="587" y2="627" gradientUnits="userSpaceOnUse">
<stop stop-color="#FDEF00"/>
<stop offset="0.938633" stop-color="#FFFAA3"/>
</linearGradient>
<clipPath id="clip0_14738_28635">
<rect width="1200" height="514.29" fill="white"/>
</clipPath>
<clipPath id="clip1_14738_28635">
<rect width="1200" height="515" fill="white"/>
</clipPath>
</defs>
</svg>
