<svg width="367" height="206" viewBox="0 0 367 206" fill="none" xmlns="http://www.w3.org/2000/svg">
<g clip-path="url(#clip0_4032_8299)">
<rect width="367" height="206" fill="#FFF100"/>
<g clip-path="url(#clip1_4032_8299)">
<rect width="177.778" height="200" fill="black"/>
<path d="M177.87 53.4259L151.574 53.4259C146.972 53.4259 143.241 49.6949 143.241 45.0926L143.241 -11.8519C143.241 -16.4542 146.972 -20.1852 151.574 -20.1852L169.537 -20.1852C174.139 -20.1852 177.87 -16.4542 177.87 -11.8519L177.87 53.4259Z" fill="url(#paint0_linear_4032_8299)"/>
</g>
<path d="M122.232 168.333H177.778V210.926H-1.11111C-6.02031 210.926 -10 206.946 -10 202.037V96.4815C-10 91.5723 -6.02031 87.5927 -1.11111 87.5927H47.2644C52.1207 87.5927 56.0781 91.49 56.1523 96.3457L56.7181 133.377C56.7923 138.232 60.7497 142.13 65.606 142.13H104.713C109.733 142.13 113.757 146.284 113.597 151.301L113.347 159.162C113.188 164.179 117.212 168.333 122.232 168.333Z" fill="url(#paint1_linear_4032_8299)"/>
<path d="M336.296 38.1327L336.296 -23.7039L177.778 -23.7036L177.778 168.333L212.481 168.333C217.083 168.333 220.814 164.602 220.814 160L220.814 90.2257C220.814 85.5816 224.61 81.8336 229.254 81.8931L244.24 82.0848C248.883 82.1443 252.68 78.3963 252.68 73.7522L252.68 55.1261C252.68 50.5396 256.386 46.8152 260.972 46.7928L328.004 46.4659C332.59 46.4436 336.296 42.7192 336.296 38.1327Z" fill="black" fill-opacity="0.1"/>
<path d="M342.18 94.2132L369.972 94.2132L369.972 206.482L287.333 206.482L287.333 174.597C287.333 169.995 291.064 166.264 295.667 166.264L325.513 166.264C330.116 166.264 333.847 162.533 333.847 157.93L333.847 102.547C333.847 97.9442 337.578 94.2132 342.18 94.2132Z" fill="black" fill-opacity="0.1"/>
<path d="M231.204 45.0927C231.204 49.6951 227.473 53.426 222.87 53.426L177.778 53.426L177.778 -11.8518C177.778 -16.4541 181.509 -20.1851 186.111 -20.1851L222.87 -20.1851C227.473 -20.1851 231.204 -16.4541 231.204 -11.8518L231.204 45.0927Z" fill="#FFF100"/>
<path d="M24.8272 21.5347C24.8272 16.8727 22.0558 16.1637 19.22 16.1637H17.802V26.9271H19.22C22.0558 26.9271 24.8272 26.2396 24.8272 21.5347ZM14.7298 13.7575H19.3489C24.2902 13.7575 28.0069 15.3473 28.0069 21.5347C28.0069 27.722 24.2902 29.3333 19.3489 29.3333H14.7298V13.7575ZM36.9663 29.3333V27.808C36.3003 28.9896 35.0328 29.6126 33.5933 29.6126C30.8219 29.6126 29.7048 27.9154 29.7048 25.0795V17.775H32.6695V24.435C32.6695 25.9818 32.9059 27.2279 34.5601 27.2279C36.5366 27.2279 36.9663 25.6166 36.9663 23.7905V17.775H39.9311V29.3333H36.9663ZM47.6389 17.5172C50.0666 17.5172 52.4728 18.8707 52.881 21.728H50.0451C49.8088 20.6109 48.7776 19.816 47.6389 19.816C46.0921 19.816 44.8675 21.1265 44.8675 23.5327C44.8675 25.9603 46.0276 27.3138 47.6604 27.3138C48.6916 27.3138 49.7443 26.7767 50.1525 25.4018H52.9884C52.3009 28.5599 49.9162 29.6126 47.51 29.6126C44.0511 29.6126 41.8383 27.0775 41.8383 23.5756C41.8383 20.0523 44.18 17.5172 47.6389 17.5172ZM54.7588 13.7575H57.7236V22.4155L61.9344 17.775H65.2644L61.118 22.2007L65.5008 29.3333H62.1708L59.1415 24.3276L57.7236 25.8529V29.3333H54.7588V13.7575ZM77.3102 24.2202H80.232C79.8238 27.3783 77.2028 29.6126 73.486 29.6126C68.8455 29.6126 66.203 26.4545 66.203 21.4702C66.203 16.5504 69.0389 13.4782 73.572 13.4782C77.2242 13.4782 79.7164 15.5621 80.232 18.8062H77.3102C76.7301 16.6363 75.2692 15.9274 73.5505 15.9274C71.2088 15.9274 69.3826 17.8609 69.3826 21.4702C69.3826 25.1869 71.2088 27.1634 73.4431 27.1634C75.2907 27.1634 76.7946 26.3471 77.3102 24.2202ZM87.4591 19.8374C85.8263 19.8374 84.6662 21.148 84.6662 23.5756C84.6662 26.0033 85.8263 27.2923 87.4591 27.2923C89.0919 27.2923 90.252 26.0033 90.252 23.5756C90.252 21.148 89.0919 19.8374 87.4591 19.8374ZM87.4591 29.6126C84.5373 29.6126 81.6585 27.6146 81.6585 23.5756C81.6585 19.5152 84.5373 17.5172 87.4591 17.5172C90.3809 17.5172 93.2598 19.5152 93.2598 23.5756C93.2598 27.6146 90.3809 29.6126 87.4591 29.6126ZM98.1108 17.775V19.3003C98.7768 18.1187 100.023 17.5172 101.462 17.5172C104.234 17.5172 105.458 19.1929 105.458 22.0503V29.3333H102.493V22.6948C102.493 21.2124 102.171 19.9019 100.495 19.9019C98.5404 19.9019 98.1108 21.4917 98.1108 23.3178V29.3333H95.146V17.775H98.1108ZM112.683 17.3668H115.691L116.185 13.7575H118.849L118.355 17.3668H121.212L121.706 13.7575H124.37L123.876 17.3668H126.841L126.562 19.6656H123.554L123.103 22.9096H126.046L125.81 25.1869H122.78L122.222 29.3333H119.558L120.116 25.1869H117.259L116.701 29.3333H114.037L114.595 25.1869H111.652L111.931 22.9096H114.917L115.369 19.6656H112.447L112.683 17.3668ZM118.033 19.6656L117.581 22.9096H120.439L120.89 19.6656H118.033ZM131.022 24.2846C131.022 26.1537 132.246 27.3783 133.879 27.3783C135.491 27.3783 136.672 26.1752 136.672 24.2846C136.672 22.4585 135.491 21.2554 133.879 21.2554C132.246 21.2554 131.022 22.4585 131.022 24.2846ZM134.008 15.734C132.032 15.734 130.85 17.5601 130.85 20.482C131.516 19.6441 132.762 18.9996 134.395 18.9996C137.274 18.9996 139.68 20.9546 139.68 24.3276C139.68 27.5287 137.252 29.6126 133.879 29.6126C129.711 29.6126 127.885 26.2611 127.885 21.8999C127.885 17.4312 129.539 13.4782 134.201 13.4782C137.596 13.4782 139.186 15.777 139.358 17.775H136.457C136.307 16.486 135.297 15.734 134.008 15.734ZM13.3334 49.3333L19.134 33.7575H22.2277L28.0498 49.3333H24.7198L23.6242 46.1752H17.5657L16.47 49.3333H13.3334ZM20.5949 37.5172L18.4465 43.6616H22.7433L20.5949 37.5172ZM43.5949 49.3333V42.6089C43.5949 41.3413 43.4875 39.9019 41.7473 39.9019C39.7708 39.9019 39.4485 41.5561 39.4485 43.3178V49.3333H36.4838V42.6089C36.4838 41.3413 36.3763 39.9019 34.6361 39.9019C32.6596 39.9019 32.3374 41.5561 32.3374 43.3178V49.3333H29.3726V37.775H32.3374V39.3003C33.0034 38.1617 34.1635 37.5172 35.56 37.5172C37.515 37.5172 38.3958 38.5699 38.847 39.4078C39.7708 38.1187 40.9094 37.5172 42.6496 37.5172C45.55 37.5172 46.5597 39.3218 46.5597 42.0503V49.3333H43.5949ZM58.3332 41.2554H55.5618C55.3255 40.2886 54.4661 39.6011 53.0911 39.6011C51.9955 39.6011 51.222 40.0093 51.222 40.7183C51.222 41.3413 51.6732 41.814 52.7689 42.0503L54.3157 42.394C56.6145 42.9096 58.5695 43.4897 58.5695 45.8744C58.5695 48.1947 56.1848 49.6126 53.5638 49.6126C50.7279 49.6126 48.5795 48.1517 48.3002 45.5092H51.1576C51.3295 46.6263 52.1029 47.4642 53.6497 47.4642C54.9387 47.4642 55.7336 46.9916 55.7336 46.1537C55.7336 45.2943 54.8528 44.9721 53.8431 44.7358L52.1244 44.3705C49.9545 43.9194 48.5151 43.0171 48.5151 40.9116C48.5151 38.8492 50.7494 37.4742 53.2415 37.4742C55.6477 37.4742 57.925 38.5914 58.3332 41.2554ZM60.9786 37.775V34.6383H63.9433V37.775H66.3495V39.816H63.9433V45.7885C63.9433 46.9701 64.3515 47.2064 65.4042 47.2064H66.3066V49.3333H64.1367C61.4727 49.3333 60.9786 48.5169 60.9786 46.2182V39.816H59.3458V37.775H60.9786ZM78.9696 44.3705H70.4405C70.6124 46.3471 71.9444 47.3138 73.3623 47.3138C74.2861 47.3138 75.1885 46.9916 75.79 45.9818H78.8407C78.2177 47.7005 76.542 49.6126 73.3838 49.6126C69.6671 49.6126 67.4972 46.8412 67.4972 43.5112C67.4972 40.0738 69.882 37.5172 73.2979 37.5172C76.8642 37.5172 79.0771 40.2886 78.9696 44.3705ZM73.2764 39.6871C72.1592 39.6871 70.7198 40.3745 70.4835 42.3296H75.9619C75.8974 40.3745 74.5225 39.6871 73.2764 39.6871ZM87.4964 37.8394V40.6323C87.0667 40.5679 86.7015 40.5679 86.2718 40.5679C84.8109 40.5679 83.8441 41.105 83.8441 43.2749V49.3333H80.8793V37.775H83.8012V39.7945C84.4672 38.3551 85.4984 37.7965 86.8519 37.7965C87.0452 37.7965 87.303 37.818 87.4964 37.8394ZM99.5898 49.3333H96.625V47.8724C95.8731 49.1614 94.4981 49.6126 93.295 49.6126C90.5451 49.6126 88.2678 47.2494 88.2678 43.5542C88.2678 39.9234 90.5021 37.5172 93.295 37.5172C94.7559 37.5172 96.002 38.1617 96.625 39.2574V33.7575H99.5898V49.3333ZM94.0255 47.3353C95.6582 47.3353 96.7324 45.9389 96.7324 43.5542C96.7324 41.2339 95.6582 39.7945 94.0255 39.7945C92.4786 39.7945 91.3829 41.3198 91.3829 43.5756C91.3829 45.8314 92.4786 47.3353 94.0255 47.3353ZM109.477 44.9076V44.0483C106.147 44.392 104.836 44.7787 104.836 46.0678C104.836 46.9056 105.481 47.5931 106.834 47.5931C108.703 47.5931 109.477 46.6049 109.477 44.9076ZM109.735 47.8939C108.897 49.097 107.694 49.6126 105.954 49.6126C103.741 49.6126 101.786 48.3236 101.786 46.2182C101.786 43.4897 104.836 42.6733 109.391 42.1577V41.9643C109.391 40.1812 108.424 39.5581 107.221 39.5581C106.082 39.5581 105.137 40.1382 105.073 41.4272H102.301C102.538 39.15 104.385 37.4742 107.371 37.4742C110.1 37.4742 112.356 38.6773 112.356 42.5659C112.356 42.9096 112.313 44.478 112.313 45.5092C112.313 47.3353 112.42 48.3665 112.657 49.3333H109.928C109.842 48.9681 109.799 48.474 109.735 47.8939ZM129.048 49.3333V42.6089C129.048 41.3413 128.94 39.9019 127.2 39.9019C125.224 39.9019 124.901 41.5561 124.901 43.3178V49.3333H121.937V42.6089C121.937 41.3413 121.829 39.9019 120.089 39.9019C118.113 39.9019 117.79 41.5561 117.79 43.3178V49.3333H114.826V37.775H117.79V39.3003C118.456 38.1617 119.616 37.5172 121.013 37.5172C122.968 37.5172 123.849 38.5699 124.3 39.4078C125.224 38.1187 126.362 37.5172 128.103 37.5172C131.003 37.5172 132.013 39.3218 132.013 42.0503V49.3333H129.048ZM19.5637 55.4782C22.4211 55.4782 24.2687 56.9821 24.2687 59.4957C24.2687 62.6538 21.5617 65.726 15.8255 70.0443H24.7413V71.3333H13.9779V70.0013C19.7141 65.6401 22.8507 62.5464 22.8507 59.6461C22.8507 57.6481 21.3254 56.6598 19.5637 56.6598C17.6087 56.6598 15.8255 57.5836 15.7611 60.5699H14.3431C14.4935 57.2399 16.47 55.4782 19.5637 55.4782ZM32.719 71.6126C28.5941 71.6126 26.725 68.4974 26.725 63.5347C26.725 58.6149 28.5941 55.4782 32.719 55.4782C36.801 55.4782 38.6916 58.6149 38.6916 63.5347C38.6916 68.4974 36.801 71.6126 32.719 71.6126ZM32.719 70.431C35.512 70.431 37.2951 68.2396 37.2951 63.5347C37.2951 58.8727 35.512 56.6598 32.719 56.6598C29.9047 56.6598 28.143 58.8727 28.143 63.5347C28.143 68.2396 29.9047 70.431 32.719 70.431ZM46.0829 55.4782C48.9402 55.4782 50.7878 56.9821 50.7878 59.4957C50.7878 62.6538 48.0809 65.726 42.3447 70.0443H51.2605V71.3333H40.497V70.0013C46.2332 65.6401 49.3699 62.5464 49.3699 59.6461C49.3699 57.6481 47.8445 56.6598 46.0829 56.6598C44.1278 56.6598 42.3447 57.5836 42.2802 60.5699H40.8623C41.0127 57.2399 42.9892 55.4782 46.0829 55.4782ZM58.4648 70.431C60.6347 70.431 62.4823 68.9486 62.4823 66.2416C62.4823 63.3198 60.3983 62.1167 58.4218 62.1167C56.6601 62.1167 55.1992 63.062 54.7481 64.1147L53.4376 63.9858L54.4473 55.7575H63.2557V57.0465H55.6074L54.9199 62.3745C55.6719 61.5152 57.2187 60.9136 58.7441 60.9136C61.6229 60.9136 63.9002 62.7827 63.9002 66.2202C63.9002 69.765 61.3007 71.6126 58.4648 71.6126C55.3711 71.6126 53.2872 69.5931 53.0079 66.9506H54.4258C54.877 69.3568 56.6172 70.431 58.4648 70.431ZM71.9682 66.1987H65.9528V64.6948H71.9682V66.1987ZM80.0507 71.6126C75.9258 71.6126 74.0567 68.4974 74.0567 63.5347C74.0567 58.6149 75.9258 55.4782 80.0507 55.4782C84.1326 55.4782 86.0232 58.6149 86.0232 63.5347C86.0232 68.4974 84.1326 71.6126 80.0507 71.6126ZM80.0507 70.431C82.8436 70.431 84.6268 68.2396 84.6268 63.5347C84.6268 58.8727 82.8436 56.6598 80.0507 56.6598C77.2363 56.6598 75.4746 58.8727 75.4746 63.5347C75.4746 68.2396 77.2363 70.431 80.0507 70.431ZM92.0825 71.3333H90.7505V58.7223H87.1842V57.82C89.9126 57.82 90.6001 57.5407 91.1802 55.6286H92.0825V71.3333ZM101.11 66.1987H95.0945V64.6948H101.11V66.1987ZM107.86 70.431C110.224 70.431 111.942 69.2064 111.942 67.0365C111.942 64.6518 110.138 63.6851 107.216 63.6851H107.087V62.5034H107.216C110.138 62.5034 111.534 61.4292 111.534 59.5387C111.534 57.9274 110.267 56.6598 107.968 56.6598C106.335 56.6598 104.466 57.5407 104.122 59.9469H102.704C103.048 57.2829 104.96 55.4782 108.075 55.4782C111.062 55.4782 112.952 56.9821 112.952 59.4098C112.952 60.9566 112.136 62.439 110.396 63.0405C112.05 63.4917 113.36 64.6089 113.36 67.0151C113.36 70.1087 110.782 71.6126 107.882 71.6126C104.767 71.6126 102.683 69.5931 102.404 66.9506H103.821C104.273 69.3568 106.013 70.431 107.86 70.431ZM119.189 71.3333H117.857V58.7223H114.291V57.82C117.019 57.82 117.707 57.5407 118.287 55.6286H119.189V71.3333Z" fill="#FFF100"/>
</g>
<defs>
<linearGradient id="paint0_linear_4032_8299" x1="160.556" y1="53.4259" x2="160.556" y2="-20.1852" gradientUnits="userSpaceOnUse">
<stop stop-color="#222222"/>
<stop offset="1" stop-color="#161616"/>
</linearGradient>
<linearGradient id="paint1_linear_4032_8299" x1="83.8889" y1="81.0186" x2="83.8889" y2="210.926" gradientUnits="userSpaceOnUse">
<stop stop-color="#222222"/>
<stop offset="1" stop-color="#161616"/>
</linearGradient>
<clipPath id="clip0_4032_8299">
<rect width="367" height="206" fill="white"/>
</clipPath>
<clipPath id="clip1_4032_8299">
<rect width="177.778" height="200" fill="white"/>
</clipPath>
</defs>
</svg>
