<svg width="560" height="245" viewBox="0 0 560 245" fill="none" xmlns="http://www.w3.org/2000/svg">
<g clip-path="url(#clip0_7226_1703)">
<rect width="560" height="245" fill="#FFF100"/>
<g clip-path="url(#clip1_7226_1703)">
<rect width="560" height="315" transform="translate(0 -34)" fill="#FFF100"/>
<path d="M510.403 314.5L510.402 70.9642C510.402 59.9186 501.448 50.9643 490.402 50.9643L319.913 50.9644C308.867 50.9644 299.913 42.0101 299.913 30.9644L299.913 -63C299.913 -74.0457 308.867 -83 319.913 -83L579.913 -83C590.959 -83 599.913 -74.0457 599.913 -63L599.913 314.5C599.913 325.546 590.959 334.5 579.913 334.5L530.403 334.5C519.357 334.5 510.403 325.546 510.403 314.5Z" fill="#EDDD0C"/>
<path d="M322 196.535L322 294.5C322 305.546 313.046 314.5 302 314.5L-6.99997 314.5C-18.0457 314.5 -27 305.546 -27 294.5L-27 39C-27 27.9543 -18.0457 19 -6.99997 19L51.7316 19C62.7773 19 71.7316 27.9543 71.7316 39L71.7316 156.535C71.7316 167.581 80.6859 176.535 91.7316 176.535L302 176.535C313.046 176.535 322 185.489 322 196.535Z" fill="#EDDD0C"/>
<rect width="235" height="181" rx="20" transform="matrix(-1 0 0 1 157 211)" fill="#FFF100"/>
</g>
<rect x="105" y="89" width="67" height="67" rx="33.5" fill="#0D0D0D"/>
<path d="M153.87 130.987C159.741 125.117 160.716 116.575 156.049 111.908C151.383 107.242 142.841 108.217 136.971 114.087C131.1 119.958 132.799 131.173 134.792 133.167C136.403 134.777 148 136.857 153.87 130.987Z" fill="#FFF100"/>
<path d="M129.782 122.505C126.376 119.099 121.42 118.532 118.712 121.241C116.004 123.948 116.57 128.905 119.976 132.311C123.383 135.717 129.89 134.732 131.046 133.575C131.981 132.641 133.189 125.911 129.782 122.505Z" fill="#FFF100"/>
<path d="M203.394 131.184C201.953 131.184 200.833 130.862 200.036 130.218C199.239 129.574 198.84 128.669 198.84 127.504H201.094C201.094 128.056 201.293 128.493 201.692 128.815C202.106 129.122 202.673 129.275 203.394 129.275H204.406C205.157 129.275 205.732 129.114 206.131 128.792C206.545 128.47 206.752 128.018 206.752 127.435C206.752 126.408 206.246 125.833 205.234 125.71L201.83 125.227C200.925 125.089 200.228 124.721 199.737 124.123C199.246 123.51 199.001 122.72 199.001 121.754C199.001 120.619 199.384 119.738 200.151 119.109C200.918 118.48 201.991 118.166 203.371 118.166H204.383C205.671 118.166 206.714 118.473 207.511 119.086C208.308 119.699 208.73 120.512 208.776 121.524H206.476C206.445 121.095 206.246 120.742 205.878 120.466C205.51 120.175 205.012 120.029 204.383 120.029H203.371C202.681 120.029 202.144 120.182 201.761 120.489C201.393 120.796 201.209 121.21 201.209 121.731C201.209 122.574 201.631 123.05 202.474 123.157L205.671 123.617C207.864 123.908 208.96 125.181 208.96 127.435C208.96 128.631 208.561 129.559 207.764 130.218C206.982 130.862 205.863 131.184 204.406 131.184H203.394ZM217.875 131.23C216.326 131.23 215.084 130.801 214.149 129.942C213.214 129.068 212.746 127.872 212.746 126.354V122.973C212.746 121.47 213.214 120.29 214.149 119.431C215.084 118.557 216.326 118.12 217.875 118.12C219.362 118.12 220.558 118.519 221.463 119.316C222.383 120.098 222.866 121.171 222.912 122.536H220.658C220.612 121.769 220.336 121.179 219.83 120.765C219.339 120.336 218.688 120.121 217.875 120.121C217.001 120.121 216.303 120.374 215.782 120.88C215.276 121.371 215.023 122.068 215.023 122.973V126.354C215.023 127.274 215.276 127.979 215.782 128.47C216.303 128.961 217.001 129.206 217.875 129.206C218.703 129.206 219.362 128.999 219.853 128.585C220.344 128.171 220.612 127.581 220.658 126.814H222.912C222.866 128.179 222.383 129.26 221.463 130.057C220.558 130.839 219.362 131.23 217.875 131.23ZM226.491 131V128.93H230.93V120.42H226.951V118.35H233.207V128.93H237.37V131H226.491ZM231.85 116.119C231.329 116.119 230.915 115.989 230.608 115.728C230.301 115.452 230.148 115.084 230.148 114.624C230.148 114.149 230.301 113.773 230.608 113.497C230.915 113.221 231.329 113.083 231.85 113.083C232.371 113.083 232.785 113.221 233.092 113.497C233.399 113.773 233.552 114.149 233.552 114.624C233.552 115.084 233.399 115.452 233.092 115.728C232.785 115.989 232.371 116.119 231.85 116.119ZM240.512 131V114.21H242.789V123.502H245.112L248.516 118.35H251.092L247.113 124.399L251.299 131H248.677L245.135 125.457H242.789V131H240.512ZM254.073 131V128.93H258.512V120.42H254.533V118.35H260.789V128.93H264.952V131H254.073ZM259.432 116.119C258.911 116.119 258.497 115.989 258.19 115.728C257.883 115.452 257.73 115.084 257.73 114.624C257.73 114.149 257.883 113.773 258.19 113.497C258.497 113.221 258.911 113.083 259.432 113.083C259.953 113.083 260.367 113.221 260.674 113.497C260.981 113.773 261.134 114.149 261.134 114.624C261.134 115.084 260.981 115.452 260.674 115.728C260.367 115.989 259.953 116.119 259.432 116.119ZM274.12 131C273.031 131 272.165 130.686 271.521 130.057C270.892 129.428 270.578 128.593 270.578 127.55V120.42H266.967V118.35H270.578V114.785H272.855V118.35H277.984V120.42H272.855V127.527C272.855 127.941 272.97 128.278 273.2 128.539C273.445 128.8 273.767 128.93 274.166 128.93H277.869V131H274.12ZM282.966 124.422V122.375H290.326V124.422H282.966ZM302.323 131C301.173 131 300.253 130.663 299.563 129.988C298.873 129.313 298.528 128.416 298.528 127.297V116.28H294.204V114.21H300.805V127.274C300.805 127.78 300.943 128.186 301.219 128.493C301.51 128.784 301.901 128.93 302.392 128.93H306.233V131H302.323ZM314.228 131.23C312.71 131.23 311.483 130.778 310.548 129.873C309.628 128.968 309.168 127.734 309.168 126.17V123.18C309.168 121.616 309.628 120.382 310.548 119.477C311.483 118.572 312.71 118.12 314.228 118.12C315.24 118.12 316.122 118.327 316.873 118.741C317.64 119.14 318.23 119.707 318.644 120.443C319.073 121.164 319.288 122.007 319.288 122.973V125.25H311.399V126.354C311.399 127.274 311.652 127.995 312.158 128.516C312.664 129.037 313.354 129.298 314.228 129.298C314.964 129.298 315.57 129.16 316.045 128.884C316.52 128.608 316.804 128.225 316.896 127.734H319.173C319.02 128.807 318.491 129.658 317.586 130.287C316.681 130.916 315.562 131.23 314.228 131.23ZM311.399 122.973V123.571H317.057V122.973C317.057 122.007 316.812 121.263 316.321 120.742C315.83 120.221 315.133 119.96 314.228 119.96C313.323 119.96 312.626 120.221 312.135 120.742C311.644 121.263 311.399 122.007 311.399 122.973ZM326.846 131.23C325.543 131.23 324.508 130.87 323.741 130.149C322.99 129.413 322.614 128.455 322.614 127.274C322.614 126.093 323.005 125.143 323.787 124.422C324.584 123.701 325.627 123.341 326.915 123.341H330.618V122.375C330.618 120.826 329.759 120.052 328.042 120.052C327.275 120.052 326.654 120.198 326.179 120.489C325.719 120.765 325.474 121.156 325.443 121.662H323.189C323.266 120.635 323.733 119.791 324.592 119.132C325.451 118.457 326.601 118.12 328.042 118.12C329.591 118.12 330.787 118.488 331.63 119.224C332.473 119.96 332.895 120.995 332.895 122.329V131H330.664V128.677H330.618C330.511 129.459 330.12 130.08 329.445 130.54C328.786 131 327.919 131.23 326.846 131.23ZM327.444 129.321C328.41 129.321 329.177 129.091 329.744 128.631C330.327 128.156 330.618 127.512 330.618 126.699V125.02H327.122C326.463 125.02 325.926 125.219 325.512 125.618C325.113 126.001 324.914 126.515 324.914 127.159C324.914 127.818 325.136 128.347 325.581 128.746C326.026 129.129 326.647 129.321 327.444 129.321ZM337.394 131V118.35H339.648V120.788H339.671C339.794 119.96 340.146 119.308 340.729 118.833C341.327 118.358 342.117 118.12 343.098 118.12C344.401 118.12 345.413 118.526 346.134 119.339C346.855 120.136 347.215 121.263 347.215 122.72V123.824H344.938V122.743C344.938 120.98 344.072 120.098 342.339 120.098C341.465 120.098 340.798 120.351 340.338 120.857C339.893 121.363 339.671 122.084 339.671 123.019V131H337.394ZM350.725 131V118.35H352.979V120.765H353.002C353.11 119.937 353.455 119.293 354.037 118.833C354.635 118.358 355.417 118.12 356.383 118.12C357.641 118.12 358.645 118.519 359.396 119.316C360.148 120.113 360.523 121.187 360.523 122.536V131H358.246V122.904C358.246 121.984 358.016 121.279 357.556 120.788C357.096 120.297 356.468 120.052 355.67 120.052C354.842 120.052 354.191 120.313 353.715 120.834C353.24 121.34 353.002 122.053 353.002 122.973V131H350.725Z" fill="black"/>
<path d="M421.5 156C402.967 156 388 141.033 388 122.5C388 103.967 402.967 89 421.5 89C440.033 89 455 103.967 455 122.5C455 141.033 440.033 156 421.5 156Z" fill="black"/>
<path d="M439.413 117.531H432.841V127.449H439.413C442.137 127.449 444.402 125.184 444.402 122.46C444.402 119.715 442.137 117.531 439.413 117.531Z" fill="#FFF100"/>
<path d="M400.642 122.5C400.642 130.154 406.873 136.385 414.526 136.385C422.18 136.385 428.411 130.154 428.411 122.5C428.411 114.846 422.18 108.615 414.526 108.615C406.873 108.615 400.642 114.846 400.642 122.5Z" fill="#FFF100"/>
</g>
<defs>
<clipPath id="clip0_7226_1703">
<rect width="560" height="245" fill="white"/>
</clipPath>
<clipPath id="clip1_7226_1703">
<rect width="560" height="315" fill="white" transform="translate(0 -34)"/>
</clipPath>
</defs>
</svg>
