<svg width="1200" height="515" viewBox="0 0 1200 515" fill="none" xmlns="http://www.w3.org/2000/svg">
<g clip-path="url(#clip0_14819_23580)">
<rect width="1200" height="515" fill="url(#paint0_linear_14819_23580)"/>
<g clip-path="url(#clip1_14819_23580)">
<rect width="1200" height="515" fill="url(#paint1_linear_14819_23580)"/>
<path d="M70.5037 552C70.5037 552.826 71.1736 553.496 72 553.496C72.8264 553.496 73.4963 552.826 73.4963 552L72 552L70.5037 552ZM73.058 215.942C72.4737 215.358 71.5263 215.358 70.9419 215.942L61.4195 225.464C60.8352 226.049 60.8352 226.996 61.4195 227.58C62.0039 228.165 62.9513 228.165 63.5356 227.58L72 219.116L80.4643 227.58C81.0487 228.165 81.9961 228.165 82.5804 227.58C83.1647 226.996 83.1647 226.049 82.5804 225.464L73.058 215.942ZM72 552L73.4963 552L73.4963 217L72 217L70.5037 217L70.5037 552L72 552Z" fill="#2EAFFF"/>
<path d="M465.504 580.5C465.504 581.326 466.174 581.996 467 581.996C467.826 581.996 468.496 581.326 468.496 580.5L467 580.5L465.504 580.5ZM468.059 403.942C467.475 403.358 466.527 403.358 465.943 403.942L456.421 413.464C455.836 414.049 455.836 414.996 456.421 415.58C457.005 416.165 457.952 416.165 458.537 415.58L467.001 407.116L475.465 415.581C476.05 416.165 476.997 416.165 477.581 415.581C478.166 414.996 478.166 414.049 477.581 413.464L468.059 403.942ZM467 580.5L468.496 580.5L468.497 405L467.001 405L465.505 405L465.504 580.5L467 580.5Z" fill="#2EAFFF"/>
<path d="M1206.75 110.251C1207.57 110.251 1208.24 109.581 1208.24 108.754C1208.24 107.928 1207.57 107.258 1206.75 107.258L1206.75 108.754L1206.75 110.251ZM718.188 107.697C717.604 108.281 717.604 109.229 718.188 109.813L727.71 119.335C728.295 119.92 729.242 119.92 729.827 119.335C730.411 118.751 730.411 117.804 729.827 117.219L721.362 108.755L729.827 100.29C730.411 99.7062 730.411 98.7587 729.827 98.1744C729.242 97.5901 728.295 97.5901 727.71 98.1744L718.188 107.697ZM1206.75 108.754L1206.75 107.258L719.246 107.259L719.246 108.755L719.246 110.251L1206.75 110.251L1206.75 108.754Z" fill="#2EAFFF"/>
<path d="M723 854L847 854C877.376 854 902 829.376 902 799L902 471C902 440.624 926.624 416 957 416L995 416C1025.38 416 1050 391.376 1050 361L1050 -44.0001" stroke="#2EAFFF" stroke-width="2.9926" stroke-linejoin="round"/>
<path d="M225 551.999L225 334.499C225 304.123 249.624 279.499 280 279.499L441 279.5C471.376 279.5 496 254.875 496 224.5L496 132.499C496 102.123 471.376 77.4986 441 77.4986L103.756 77.4986C73.3804 77.4986 48.7561 52.8743 48.7561 22.4986L48.7561 -279C48.7561 -309.376 24.1318 -334 -6.24389 -334L-196 -334" stroke="#2EAFFF" stroke-width="2.9926" stroke-linejoin="round"/>
<rect x="1037.46" y="83.9619" width="25.0762" height="50.0762" rx="12.5381" fill="#2EAFFF" stroke="#2EAFFF" stroke-width="1.92382"/>
<rect x="63.9619" y="426.962" width="16.0762" height="38.0762" rx="8.0381" fill="#2EAFFF" stroke="#2EAFFF" stroke-width="1.92382"/>
<path d="M212.842 183.04V162.6H215.362V165.54H215.39C215.52 164.532 215.959 163.748 216.706 163.188C217.452 162.609 218.404 162.32 219.562 162.32C221.111 162.32 222.343 162.833 223.258 163.86C224.172 164.868 224.63 166.259 224.63 168.032V172.54C224.63 174.313 224.172 175.713 223.258 176.74C222.343 177.767 221.111 178.28 219.562 178.28C218.404 178.28 217.452 177.991 216.706 177.412C215.959 176.833 215.52 176.049 215.39 175.06H215.306L215.362 178.56V183.04H212.842ZM218.722 176.096C219.786 176.096 220.616 175.816 221.214 175.256C221.811 174.696 222.11 173.791 222.11 172.54V168.06C222.11 166.791 221.811 165.885 221.214 165.344C220.616 164.784 219.786 164.504 218.722 164.504C217.695 164.504 216.874 164.831 216.258 165.484C215.66 166.137 215.362 167.043 215.362 168.2V172.4C215.362 173.557 215.66 174.463 216.258 175.116C216.874 175.769 217.695 176.096 218.722 176.096ZM234.111 178.28C232.524 178.28 231.264 177.841 230.331 176.964C229.397 176.068 228.931 174.901 228.931 173.464C228.931 172.512 229.145 171.681 229.575 170.972C230.004 170.263 230.601 169.712 231.367 169.32C232.132 168.909 233.009 168.704 233.999 168.704H238.759V167.5C238.759 165.503 237.667 164.504 235.483 164.504C234.512 164.504 233.728 164.681 233.131 165.036C232.533 165.391 232.216 165.885 232.179 166.52H229.659C229.752 165.307 230.312 164.308 231.339 163.524C232.384 162.721 233.765 162.32 235.483 162.32C237.349 162.32 238.777 162.768 239.767 163.664C240.775 164.56 241.279 165.811 241.279 167.416V178H238.787V175.2H238.731C238.581 176.152 238.105 176.908 237.303 177.468C236.5 178.009 235.436 178.28 234.111 178.28ZM234.727 176.152C235.959 176.152 236.939 175.853 237.667 175.256C238.395 174.659 238.759 173.847 238.759 172.82V170.664H234.279C233.457 170.664 232.785 170.916 232.263 171.42C231.759 171.905 231.507 172.559 231.507 173.38C231.507 174.239 231.787 174.92 232.347 175.424C232.925 175.909 233.719 176.152 234.727 176.152ZM246.42 178V162.6H248.94V165.54H248.968C249.098 164.513 249.518 163.72 250.228 163.16C250.937 162.6 251.88 162.32 253.056 162.32C254.605 162.32 255.837 162.796 256.752 163.748C257.666 164.7 258.124 165.997 258.124 167.64V178H255.604V168.088C255.604 166.912 255.305 166.016 254.708 165.4C254.129 164.765 253.336 164.448 252.328 164.448C251.282 164.448 250.452 164.775 249.836 165.428C249.238 166.081 248.94 167.005 248.94 168.2V178H246.42ZM268.137 178.28C266.606 178.28 265.374 177.767 264.441 176.74C263.526 175.713 263.069 174.323 263.069 172.568V168.06C263.069 166.287 263.526 164.887 264.441 163.86C265.355 162.833 266.587 162.32 268.137 162.32C269.294 162.32 270.246 162.609 270.993 163.188C271.758 163.767 272.215 164.551 272.365 165.54H272.393L272.337 162.04V157.56H274.857V178H272.337V175.06H272.309C272.178 176.068 271.739 176.861 270.993 177.44C270.246 178 269.294 178.28 268.137 178.28ZM268.977 176.096C270.022 176.096 270.843 175.769 271.441 175.116C272.038 174.463 272.337 173.557 272.337 172.4V168.2C272.337 167.043 272.038 166.137 271.441 165.484C270.843 164.831 270.022 164.504 268.977 164.504C267.913 164.504 267.082 164.784 266.485 165.344C265.887 165.885 265.589 166.791 265.589 168.06V172.54C265.589 173.791 265.887 174.696 266.485 175.256C267.082 175.816 267.913 176.096 268.977 176.096ZM284.478 178.28C282.891 178.28 281.631 177.841 280.698 176.964C279.765 176.068 279.298 174.901 279.298 173.464C279.298 172.512 279.513 171.681 279.942 170.972C280.371 170.263 280.969 169.712 281.734 169.32C282.499 168.909 283.377 168.704 284.366 168.704H289.126V167.5C289.126 165.503 288.034 164.504 285.85 164.504C284.879 164.504 284.095 164.681 283.498 165.036C282.901 165.391 282.583 165.885 282.546 166.52H280.026C280.119 165.307 280.679 164.308 281.706 163.524C282.751 162.721 284.133 162.32 285.85 162.32C287.717 162.32 289.145 162.768 290.134 163.664C291.142 164.56 291.646 165.811 291.646 167.416V178H289.154V175.2H289.098C288.949 176.152 288.473 176.908 287.67 177.468C286.867 178.009 285.803 178.28 284.478 178.28ZM285.094 176.152C286.326 176.152 287.306 175.853 288.034 175.256C288.762 174.659 289.126 173.847 289.126 172.82V170.664H284.646C283.825 170.664 283.153 170.916 282.63 171.42C282.126 171.905 281.874 172.559 281.874 173.38C281.874 174.239 282.154 174.92 282.714 175.424C283.293 175.909 284.086 176.152 285.094 176.152ZM301.995 178.224C300.278 178.224 298.943 177.841 297.991 177.076C297.058 176.292 296.591 175.191 296.591 173.772H299.111C299.111 174.481 299.363 175.041 299.867 175.452C300.371 175.844 301.08 176.04 301.995 176.04H303.227C304.16 176.04 304.879 175.835 305.383 175.424C305.906 175.013 306.167 174.435 306.167 173.688C306.167 172.363 305.56 171.616 304.347 171.448L300.091 170.832C299.046 170.683 298.234 170.253 297.655 169.544C297.076 168.816 296.787 167.864 296.787 166.688C296.787 165.344 297.244 164.289 298.159 163.524C299.092 162.759 300.371 162.376 301.995 162.376H303.227C304.72 162.376 305.934 162.749 306.867 163.496C307.819 164.224 308.332 165.185 308.407 166.38H305.859C305.822 165.839 305.56 165.391 305.075 165.036C304.608 164.681 303.992 164.504 303.227 164.504H301.995C301.136 164.504 300.464 164.7 299.979 165.092C299.494 165.484 299.251 166.016 299.251 166.688C299.251 167.771 299.746 168.387 300.735 168.536L304.711 169.096C307.324 169.469 308.631 171 308.631 173.688C308.631 175.125 308.155 176.245 307.203 177.048C306.27 177.832 304.944 178.224 303.227 178.224H301.995Z" fill="#2EAFFF"/>
<path d="M627.848 484.28C626.317 484.28 625.085 483.767 624.152 482.74C623.237 481.713 622.78 480.323 622.78 478.568V474.06C622.78 472.287 623.237 470.887 624.152 469.86C625.066 468.833 626.298 468.32 627.848 468.32C629.005 468.32 629.957 468.609 630.704 469.188C631.469 469.767 631.926 470.551 632.076 471.54H632.104L632.048 468.04V463.56H634.568V484H632.048V481.06H632.02C631.889 482.068 631.45 482.861 630.704 483.44C629.957 484 629.005 484.28 627.848 484.28ZM628.688 482.096C629.733 482.096 630.554 481.769 631.152 481.116C631.749 480.463 632.048 479.557 632.048 478.4V474.2C632.048 473.043 631.749 472.137 631.152 471.484C630.554 470.831 629.733 470.504 628.688 470.504C627.624 470.504 626.793 470.784 626.196 471.344C625.598 471.885 625.3 472.791 625.3 474.06V478.54C625.3 479.791 625.598 480.696 626.196 481.256C626.793 481.816 627.624 482.096 628.688 482.096ZM645.505 484.28C643.731 484.28 642.313 483.757 641.249 482.712C640.185 481.648 639.653 480.211 639.653 478.4V468.6H642.173V478.4C642.173 479.52 642.471 480.416 643.069 481.088C643.666 481.741 644.478 482.068 645.505 482.068C646.55 482.068 647.371 481.741 647.969 481.088C648.585 480.416 648.893 479.52 648.893 478.4V468.6H651.413V478.4C651.413 480.211 650.871 481.648 649.789 482.712C648.706 483.757 647.278 484.28 645.505 484.28ZM662.546 484.28C660.679 484.28 659.186 483.757 658.066 482.712C656.946 481.667 656.386 480.229 656.386 478.4V474.2C656.386 472.371 656.946 470.933 658.066 469.888C659.186 468.843 660.679 468.32 662.546 468.32C664.319 468.32 665.747 468.796 666.83 469.748C667.931 470.7 668.51 471.997 668.566 473.64H666.046C665.99 472.651 665.654 471.895 665.038 471.372C664.422 470.831 663.591 470.56 662.546 470.56C661.445 470.56 660.558 470.877 659.886 471.512C659.233 472.128 658.906 473.015 658.906 474.172V478.4C658.906 479.557 659.233 480.453 659.886 481.088C660.558 481.723 661.445 482.04 662.546 482.04C663.591 482.04 664.422 481.769 665.038 481.228C665.654 480.687 665.99 479.931 666.046 478.96H668.566C668.51 480.603 667.931 481.9 666.83 482.852C665.747 483.804 664.319 484.28 662.546 484.28ZM673.427 484V463.56H675.947V474.956H678.887L683.199 468.6H686.083L681.127 475.936L686.363 484H683.423L678.943 477.14H675.947V484H673.427ZM698.14 484C696.777 484 695.685 483.608 694.864 482.824C694.061 482.021 693.66 480.967 693.66 479.66V465.856H688.34V463.56H696.18V479.66C696.18 480.295 696.357 480.799 696.712 481.172C697.067 481.527 697.543 481.704 698.14 481.704H702.9V484H698.14ZM711.345 484.28C709.758 484.28 708.498 483.841 707.565 482.964C706.632 482.068 706.165 480.901 706.165 479.464C706.165 478.512 706.38 477.681 706.809 476.972C707.238 476.263 707.836 475.712 708.601 475.32C709.366 474.909 710.244 474.704 711.233 474.704H715.993V473.5C715.993 471.503 714.901 470.504 712.717 470.504C711.746 470.504 710.962 470.681 710.365 471.036C709.768 471.391 709.45 471.885 709.413 472.52H706.893C706.986 471.307 707.546 470.308 708.573 469.524C709.618 468.721 711 468.32 712.717 468.32C714.584 468.32 716.012 468.768 717.001 469.664C718.009 470.56 718.513 471.811 718.513 473.416V484H716.021V481.2H715.965C715.816 482.152 715.34 482.908 714.537 483.468C713.734 484.009 712.67 484.28 711.345 484.28ZM711.961 482.152C713.193 482.152 714.173 481.853 714.901 481.256C715.629 480.659 715.993 479.847 715.993 478.82V476.664H711.513C710.692 476.664 710.02 476.916 709.497 477.42C708.993 477.905 708.741 478.559 708.741 479.38C708.741 480.239 709.021 480.92 709.581 481.424C710.16 481.909 710.953 482.152 711.961 482.152ZM723.794 484V463.56H726.314V474.956H729.254L733.566 468.6H736.45L731.494 475.936L736.73 484H733.79L729.31 477.14H726.314V484H723.794ZM746.267 484.28C744.457 484.28 742.991 483.739 741.871 482.656C740.77 481.555 740.219 480.043 740.219 478.12V474.48C740.219 472.557 740.77 471.055 741.871 469.972C742.991 468.871 744.457 468.32 746.267 468.32C747.481 468.32 748.535 468.563 749.431 469.048C750.346 469.533 751.055 470.215 751.559 471.092C752.063 471.969 752.315 473.005 752.315 474.2V476.944H742.683V478.4C742.683 479.539 743.01 480.444 743.663 481.116C744.317 481.769 745.185 482.096 746.267 482.096C747.201 482.096 747.966 481.919 748.563 481.564C749.179 481.191 749.553 480.696 749.683 480.08H752.203C752.035 481.368 751.41 482.395 750.327 483.16C749.245 483.907 747.891 484.28 746.267 484.28ZM742.683 474.984H749.851V474.2C749.851 472.987 749.534 472.053 748.899 471.4C748.283 470.728 747.406 470.392 746.267 470.392C745.129 470.392 744.242 470.728 743.607 471.4C742.991 472.053 742.683 472.987 742.683 474.2V474.984Z" fill="#2EAFFF"/>
<path d="M399.4 45.28C398.709 45.28 398.149 45.0747 397.72 44.664C397.309 44.2533 397.104 43.7213 397.104 43.068C397.104 42.3773 397.309 41.8173 397.72 41.388C398.149 40.9587 398.709 40.744 399.4 40.744C400.091 40.744 400.641 40.9587 401.052 41.388C401.481 41.8173 401.696 42.3773 401.696 43.068C401.696 43.7213 401.481 44.2533 401.052 44.664C400.641 45.0747 400.091 45.28 399.4 45.28ZM412.745 42.116L410.813 40.744L412.633 38.14C412.876 37.804 413.202 37.3933 413.613 36.908C414.042 36.4227 414.444 35.9933 414.817 35.62C414.294 35.5453 413.744 35.4333 413.165 35.284C412.586 35.1347 412.129 34.9947 411.793 34.864L408.797 33.744L409.581 31.532L412.605 32.652C412.922 32.764 413.342 32.9413 413.865 33.184C414.388 33.4267 414.864 33.6787 415.293 33.94C415.2 33.4547 415.125 32.96 415.069 32.456C415.032 31.9333 415.013 31.4947 415.013 31.14V27.64H417.365V31.14C417.365 31.4947 417.337 31.9333 417.281 32.456C417.225 32.96 417.15 33.4547 417.057 33.94C417.505 33.6787 417.981 33.4267 418.485 33.184C419.008 32.9413 419.437 32.764 419.773 32.652L422.797 31.532L423.581 33.744L420.585 34.864C420.249 34.9947 419.792 35.1347 419.213 35.284C418.634 35.4333 418.084 35.5453 417.561 35.62C417.934 35.9933 418.336 36.432 418.765 36.936C419.194 37.4213 419.521 37.8227 419.745 38.14L421.565 40.744L419.633 42.116L417.813 39.484C417.589 39.1667 417.318 38.728 417.001 38.168C416.684 37.608 416.413 37.0853 416.189 36.6C415.965 37.0853 415.694 37.608 415.377 38.168C415.06 38.7093 414.789 39.148 414.565 39.484L412.745 42.116Z" fill="#2EAFFF"/>
</g>
<path d="M720.406 355.063H715.171V248.712C721.38 245.251 725.641 235.826 725.641 223.998C725.641 209.056 718.889 197.785 709.936 197.785C700.983 197.785 694.231 209.056 694.231 223.998C694.231 235.826 698.492 245.251 704.701 248.712V355.063H694.231V223.998V185.8C700.439 182.34 704.701 172.915 704.701 161.086C704.701 146.145 697.949 134.873 688.996 134.873C680.043 134.873 673.291 146.145 673.291 161.086C673.291 172.915 677.552 182.34 683.761 185.8V234.483C683.761 227.655 679.373 221.901 673.303 219.722V203.027C673.303 165.448 640.424 134.873 600.013 134.873C559.596 134.873 526.722 165.448 526.722 203.027V203.134C526.722 203.166 526.722 203.181 526.722 203.216V219.722C520.636 221.888 516.239 227.655 516.239 234.483V276.424C516.239 285.095 523.286 292.152 531.944 292.152H541.187L547.952 323.755L538.079 376.034H526.709V360.306C526.709 357.41 524.366 355.063 521.474 355.063H479.594C476.703 355.063 474.359 357.41 474.359 360.306V381.276C474.359 384.172 476.703 386.519 479.594 386.519H720.406C723.298 386.519 725.641 384.172 725.641 381.276V360.306C725.641 357.41 723.298 355.063 720.406 355.063ZM516.239 376.034H484.829V365.548H516.239V376.034ZM709.936 208.27C711.245 208.27 715.171 213.848 715.171 223.998C715.171 234.147 711.245 239.726 709.936 239.726C708.627 239.726 704.701 234.147 704.701 223.998C704.701 213.848 708.627 208.27 709.936 208.27ZM688.996 145.359C690.305 145.359 694.231 150.937 694.231 161.086C694.231 171.236 690.305 176.814 688.996 176.814C687.687 176.814 683.761 171.236 683.761 161.086C683.761 150.937 687.687 145.359 688.996 145.359ZM673.291 234.483V276.424C673.291 279.32 670.947 281.666 668.056 281.666H661.083L671.92 231.013C672.746 231.943 673.291 233.14 673.291 234.483ZM600 145.359C622.646 145.359 642.477 156.45 653.532 172.997C648.698 169.086 643.063 166.329 636.645 166.329C621.255 166.329 611.959 173.28 608.241 176.814H591.759C588.033 173.28 578.745 166.329 563.355 166.329C556.938 166.329 551.302 169.086 546.467 172.997C557.522 156.45 577.354 145.359 600 145.359ZM531.944 281.666C529.053 281.666 526.709 279.32 526.709 276.424V234.483C526.709 233.131 527.254 231.923 528.1 230.993L538.938 281.666H531.944ZM537.179 223.441V204.129C540.549 195.868 550.926 176.814 563.367 176.814C578.275 176.814 585.187 185.002 585.436 185.317C586.43 186.567 587.938 187.299 589.542 187.299H610.483C612.041 187.299 613.558 186.554 614.551 185.35C614.847 185.002 621.746 176.814 636.658 176.814C649.029 176.814 659.405 195.795 662.82 204.088V223.441L643.68 312.934C630.646 307.867 616.122 302.625 600 302.625C584.147 302.625 569.817 307.699 556.328 312.934L537.179 223.441ZM548.729 376.034L553.608 350.197L558.328 372.237C558.36 372.352 558.443 372.446 558.475 372.565C558.546 372.774 558.643 372.962 558.749 373.162C559.134 374.166 559.608 375.141 560.246 376.034H548.729ZM600 376.034C578.127 376.034 570.242 372.27 568.778 370.152C569.772 365.192 582.577 355.063 600 355.063C617.308 355.063 630.04 365.057 631.189 370.046C629.369 372.446 621.329 376.034 600 376.034ZM600 344.578C585.771 344.578 573.301 349.989 565.743 356.898L558.631 323.661L558.716 323.231C571.219 318.345 585.26 313.122 600 313.122C614.478 313.122 628.281 318.156 641.295 323.239L641.377 323.702L634.276 356.911C626.719 350.001 614.241 344.578 600 344.578ZM639.631 376.034C640.237 375.206 640.707 374.305 641.108 373.371C641.295 373.043 641.451 372.72 641.565 372.351C641.62 372.183 641.733 372.048 641.773 371.893L646.403 350.271L651.271 376.034L639.631 376.034ZM673.291 360.306V376.034H661.921L652.056 323.829L658.841 292.152H668.056C676.714 292.152 683.761 285.095 683.761 276.424V355.063H678.526C675.634 355.063 673.291 357.41 673.291 360.306ZM715.171 376.034H683.761V365.548H715.171V376.034ZM568.59 229.24C574.369 229.24 579.06 224.543 579.06 218.755C579.06 212.967 574.369 208.27 568.59 208.27C562.811 208.27 558.12 212.967 558.12 218.755C558.12 224.543 562.811 229.24 568.59 229.24ZM631.41 229.24C637.19 229.24 641.88 224.543 641.88 218.755C641.88 212.967 637.19 208.27 631.41 208.27C625.631 208.27 620.94 212.967 620.94 218.755C620.94 224.543 625.631 229.24 631.41 229.24Z" fill="#B3E2FF"/>
<path d="M694.231 223.998C694.231 209.056 700.983 197.785 709.936 197.785C718.889 197.785 725.641 209.056 725.641 223.998C725.641 235.826 721.38 245.251 715.171 248.712V355.063H720.406C723.298 355.063 725.641 357.41 725.641 360.306V381.276C725.641 384.172 723.298 386.519 720.406 386.519H479.594C476.703 386.519 474.359 384.172 474.359 381.276V360.306C474.359 357.41 476.703 355.063 479.594 355.063H521.474C524.366 355.063 526.709 357.41 526.709 360.306V376.034H538.079L547.952 323.755L541.187 292.152H531.944C523.286 292.152 516.239 285.095 516.239 276.424V234.483C516.239 227.655 520.636 221.888 526.722 219.722V203.216C526.722 203.181 526.722 203.166 526.722 203.134V203.027C526.722 165.448 559.596 134.873 600.013 134.873C640.424 134.873 673.303 165.448 673.303 203.027V219.722C679.373 221.901 683.761 227.655 683.761 234.483V185.8C677.552 182.34 673.291 172.915 673.291 161.086C673.291 146.145 680.043 134.873 688.996 134.873C697.949 134.873 704.701 146.145 704.701 161.086C704.701 172.915 700.439 182.34 694.231 185.8V223.998ZM694.231 223.998C694.231 235.826 698.492 245.251 704.701 248.712V355.063H694.231V223.998ZM516.239 376.034H484.829V365.548H516.239V376.034ZM709.936 208.27C711.245 208.27 715.171 213.848 715.171 223.998C715.171 234.147 711.245 239.726 709.936 239.726C708.627 239.726 704.701 234.147 704.701 223.998C704.701 213.848 708.627 208.27 709.936 208.27ZM688.996 145.359C690.305 145.359 694.231 150.937 694.231 161.086C694.231 171.236 690.305 176.814 688.996 176.814C687.687 176.814 683.761 171.236 683.761 161.086C683.761 150.937 687.687 145.359 688.996 145.359ZM673.291 234.483V276.424C673.291 279.32 670.947 281.666 668.056 281.666H661.083L671.92 231.013C672.746 231.943 673.291 233.14 673.291 234.483ZM600 145.359C622.646 145.359 642.477 156.45 653.532 172.997C648.698 169.086 643.063 166.329 636.645 166.329C621.255 166.329 611.959 173.28 608.241 176.814H591.759C588.033 173.28 578.745 166.329 563.355 166.329C556.938 166.329 551.302 169.086 546.467 172.997C557.522 156.45 577.354 145.359 600 145.359ZM531.944 281.666C529.053 281.666 526.709 279.32 526.709 276.424V234.483C526.709 233.131 527.254 231.923 528.1 230.993L538.938 281.666H531.944ZM537.179 223.441V204.129C540.549 195.868 550.926 176.814 563.367 176.814C578.275 176.814 585.187 185.002 585.436 185.317C586.43 186.567 587.938 187.299 589.542 187.299H610.483C612.041 187.299 613.558 186.554 614.551 185.35C614.847 185.002 621.746 176.814 636.658 176.814C649.029 176.814 659.405 195.795 662.82 204.088V223.441L643.68 312.934C630.646 307.867 616.122 302.625 600 302.625C584.147 302.625 569.817 307.699 556.328 312.934L537.179 223.441ZM548.729 376.034L553.608 350.197L558.328 372.237C558.36 372.352 558.443 372.446 558.475 372.565C558.546 372.774 558.643 372.962 558.749 373.162C559.134 374.166 559.608 375.141 560.246 376.034H548.729ZM600 376.034C578.127 376.034 570.242 372.27 568.778 370.152C569.772 365.192 582.577 355.063 600 355.063C617.308 355.063 630.04 365.057 631.189 370.046C629.369 372.446 621.329 376.034 600 376.034ZM600 344.578C585.771 344.578 573.301 349.989 565.743 356.898L558.631 323.661L558.716 323.231C571.219 318.345 585.26 313.122 600 313.122C614.478 313.122 628.281 318.156 641.295 323.239L641.377 323.702L634.276 356.911C626.719 350.001 614.241 344.578 600 344.578ZM639.631 376.034C640.237 375.206 640.707 374.305 641.108 373.371C641.295 373.043 641.451 372.72 641.565 372.351C641.62 372.183 641.733 372.048 641.773 371.893L646.403 350.271L651.271 376.034L639.631 376.034ZM673.291 360.306V376.034H661.921L652.056 323.829L658.841 292.152H668.056C676.714 292.152 683.761 285.095 683.761 276.424V355.063H678.526C675.634 355.063 673.291 357.41 673.291 360.306ZM715.171 376.034H683.761V365.548H715.171V376.034ZM568.59 229.24C574.369 229.24 579.06 224.543 579.06 218.755C579.06 212.967 574.369 208.27 568.59 208.27C562.811 208.27 558.12 212.967 558.12 218.755C558.12 224.543 562.811 229.24 568.59 229.24ZM631.41 229.24C637.19 229.24 641.88 224.543 641.88 218.755C641.88 212.967 637.19 208.27 631.41 208.27C625.631 208.27 620.94 212.967 620.94 218.755C620.94 224.543 625.631 229.24 631.41 229.24Z" stroke="#478DB8" stroke-width="3.21"/>
</g>
<defs>
<linearGradient id="paint0_linear_14819_23580" x1="589" y1="-26.5" x2="587" y2="627" gradientUnits="userSpaceOnUse">
<stop stop-color="#FDEF00"/>
<stop offset="0.938633" stop-color="#FFFAA3"/>
</linearGradient>
<linearGradient id="paint1_linear_14819_23580" x1="589" y1="-26.5" x2="587" y2="627" gradientUnits="userSpaceOnUse">
<stop stop-color="#2EAFFF"/>
<stop offset="0.938633" stop-color="#99D8FF"/>
</linearGradient>
<clipPath id="clip0_14819_23580">
<rect width="1200" height="515" fill="white"/>
</clipPath>
<clipPath id="clip1_14819_23580">
<rect width="1200" height="515" fill="white"/>
</clipPath>
</defs>
</svg>
