<svg width="1200" height="515" viewBox="0 0 1200 515" fill="none" xmlns="http://www.w3.org/2000/svg">
<g clip-path="url(#clip0_11646_51472)">
<g clip-path="url(#clip1_11646_51472)">
<rect width="1200" height="515" fill="url(#paint0_linear_11646_51472)"/>
<path d="M794.496 -399.098C794.496 -399.924 793.826 -400.594 792.999 -400.594C792.173 -400.594 791.503 -399.924 791.503 -399.098L792.999 -399.098L794.496 -399.098ZM791.942 89.4604C792.526 90.0447 793.474 90.0447 794.058 89.4604L803.58 79.938C804.165 79.3536 804.165 78.4062 803.58 77.8219C802.996 77.2376 802.049 77.2376 801.464 77.8219L793 86.2863L784.536 77.8219C783.951 77.2376 783.004 77.2376 782.42 77.8219C781.835 78.4062 781.835 79.3537 782.42 79.938L791.942 89.4604ZM792.999 -399.098L791.503 -399.098L791.504 88.4023L793 88.4023L794.496 88.4023L794.496 -399.098L792.999 -399.098Z" fill="#F0DF09"/>
<path d="M534.999 -473.862L619.612 -473.862C655.51 -473.862 684.612 -444.761 684.612 -408.862L684.612 -199C684.612 -163.102 713.713 -134 749.612 -134L816 -134C851.899 -134 881 -104.899 881 -69L881 108.5C881 144.398 910.102 173.5 946 173.5L1208 173.5" stroke="#F0DF09" stroke-width="2.9926"/>
<path d="M603 749.902L782.688 749.902C818.586 749.902 847.688 720.801 847.688 684.902L847.688 496.402C847.688 460.504 876.789 431.402 912.688 431.402L985 431.402C1020.9 431.402 1050 402.301 1050 366.402L1050 -148.098" stroke="#F0DF09" stroke-width="2.9926"/>
<path d="M372 631.403L372 512.5C372 476.602 342.898 447.5 307 447.5L166 447.501C130.102 447.501 101 418.399 101 382.501L101 149.965C101 114.066 130.102 84.9648 166 84.9648L483.244 84.9649C519.142 84.9649 548.244 55.8634 548.244 19.9649L548.244 -373.097C548.244 -408.996 577.345 -438.097 613.244 -438.097L793 -438.097" stroke="#F0DF09" stroke-width="2.9926"/>
<rect x="92.9619" y="245.866" width="16.0762" height="38.0762" rx="8.0381" fill="#D4C50B" stroke="#F0DF09" stroke-width="1.92382"/>
<path d="M633.4 54L638.72 33.56H642.108L647.4 54H644.852L643.508 48.568H637.32L635.976 54H633.4ZM637.824 46.44H642.976L641.408 40.14C641.109 38.9453 640.876 37.9467 640.708 37.144C640.54 36.3413 640.437 35.8187 640.4 35.576C640.363 35.8187 640.26 36.3413 640.092 37.144C639.924 37.9467 639.691 38.936 639.392 40.112L637.824 46.44ZM655.929 54V35.856H650.329V33.56H664.049V35.856H658.449V54H655.929ZM672.718 54V35.856H667.118V33.56H680.838V35.856H675.238V54H672.718ZM683.767 54L689.087 33.56H692.475L697.767 54H695.219L693.875 48.568H687.687L686.343 54H683.767ZM688.191 46.44H693.343L691.775 40.14C691.477 38.9453 691.243 37.9467 691.075 37.144C690.907 36.3413 690.805 35.8187 690.767 35.576C690.73 35.8187 690.627 36.3413 690.459 37.144C690.291 37.9467 690.058 38.936 689.759 40.112L688.191 46.44ZM707.78 54.28C705.914 54.28 704.439 53.7573 703.356 52.712C702.274 51.6667 701.732 50.2293 701.732 48.4V39.16C701.732 37.3307 702.274 35.8933 703.356 34.848C704.439 33.8027 705.914 33.28 707.78 33.28C709.61 33.28 711.066 33.812 712.148 34.876C713.231 35.9213 713.772 37.3493 713.772 39.16H711.252C711.252 38.0027 710.944 37.116 710.328 36.5C709.731 35.8653 708.882 35.548 707.78 35.548C706.679 35.548 705.811 35.8653 705.176 36.5C704.56 37.116 704.252 38.0027 704.252 39.16V48.4C704.252 49.5573 704.56 50.4533 705.176 51.088C705.811 51.704 706.679 52.012 707.78 52.012C708.882 52.012 709.731 51.704 710.328 51.088C710.944 50.4533 711.252 49.5573 711.252 48.4H713.772C713.772 50.2107 713.231 51.648 712.148 52.712C711.066 53.7573 709.61 54.28 707.78 54.28ZM718.549 54V33.56H721.069V42.296H727.621V33.56H730.141V54H727.621V44.592H721.069V54H718.549Z" fill="#F3E223"/>
<path d="M471.692 466.182C470.161 466.182 468.929 465.669 467.996 464.642C467.081 463.615 466.624 462.225 466.624 460.47V455.962C466.624 454.189 467.081 452.789 467.996 451.762C468.91 450.735 470.142 450.222 471.692 450.222C472.849 450.222 473.801 450.511 474.548 451.09C475.313 451.669 475.77 452.453 475.92 453.442H475.948L475.892 449.942V445.462H478.412V465.902H475.892V462.962H475.864C475.733 463.97 475.294 464.763 474.548 465.342C473.801 465.902 472.849 466.182 471.692 466.182ZM472.532 463.998C473.577 463.998 474.398 463.671 474.996 463.018C475.593 462.365 475.892 461.459 475.892 460.302V456.102C475.892 454.945 475.593 454.039 474.996 453.386C474.398 452.733 473.577 452.406 472.532 452.406C471.468 452.406 470.637 452.686 470.04 453.246C469.442 453.787 469.144 454.693 469.144 455.962V460.442C469.144 461.693 469.442 462.598 470.04 463.158C470.637 463.718 471.468 463.998 472.532 463.998ZM489.349 466.182C487.575 466.182 486.157 465.659 485.093 464.614C484.029 463.55 483.497 462.113 483.497 460.302V450.502H486.017V460.302C486.017 461.422 486.315 462.318 486.913 462.99C487.51 463.643 488.322 463.97 489.349 463.97C490.394 463.97 491.215 463.643 491.813 462.99C492.429 462.318 492.737 461.422 492.737 460.302V450.502H495.257V460.302C495.257 462.113 494.715 463.55 493.633 464.614C492.55 465.659 491.122 466.182 489.349 466.182ZM506.39 466.182C504.523 466.182 503.03 465.659 501.91 464.614C500.79 463.569 500.23 462.131 500.23 460.302V456.102C500.23 454.273 500.79 452.835 501.91 451.79C503.03 450.745 504.523 450.222 506.39 450.222C508.163 450.222 509.591 450.698 510.674 451.65C511.775 452.602 512.354 453.899 512.41 455.542H509.89C509.834 454.553 509.498 453.797 508.882 453.274C508.266 452.733 507.435 452.462 506.39 452.462C505.288 452.462 504.402 452.779 503.73 453.414C503.076 454.03 502.75 454.917 502.75 456.074V460.302C502.75 461.459 503.076 462.355 503.73 462.99C504.402 463.625 505.288 463.942 506.39 463.942C507.435 463.942 508.266 463.671 508.882 463.13C509.498 462.589 509.834 461.833 509.89 460.862H512.41C512.354 462.505 511.775 463.802 510.674 464.754C509.591 465.706 508.163 466.182 506.39 466.182ZM517.271 465.902V445.462H519.791V456.858H522.731L527.043 450.502H529.927L524.971 457.838L530.207 465.902H527.267L522.787 459.042H519.791V465.902H517.271ZM538.848 466.182C537.317 466.182 536.085 465.669 535.152 464.642C534.237 463.615 533.78 462.225 533.78 460.47V455.962C533.78 454.189 534.237 452.789 535.152 451.762C536.066 450.735 537.298 450.222 538.848 450.222C540.005 450.222 540.957 450.511 541.704 451.09C542.469 451.669 542.926 452.453 543.076 453.442H543.104L543.048 449.942V445.462H545.568V465.902H543.048V462.962H543.02C542.889 463.97 542.45 464.763 541.704 465.342C540.957 465.902 540.005 466.182 538.848 466.182ZM539.688 463.998C540.733 463.998 541.554 463.671 542.152 463.018C542.749 462.365 543.048 461.459 543.048 460.302V456.102C543.048 454.945 542.749 454.039 542.152 453.386C541.554 452.733 540.733 452.406 539.688 452.406C538.624 452.406 537.793 452.686 537.196 453.246C536.598 453.787 536.3 454.693 536.3 455.962V460.442C536.3 461.693 536.598 462.598 537.196 463.158C537.793 463.718 538.624 463.998 539.688 463.998ZM557.429 466.182C556.271 466.182 555.319 465.902 554.573 465.342C553.826 464.763 553.387 463.97 553.257 462.962H553.229V465.902H550.709V445.462H553.229V449.942L553.173 453.442H553.201C553.35 452.453 553.798 451.669 554.545 451.09C555.31 450.511 556.271 450.222 557.429 450.222C558.978 450.222 560.21 450.735 561.125 451.762C562.039 452.789 562.497 454.189 562.497 455.962V460.47C562.497 462.225 562.039 463.615 561.125 464.642C560.21 465.669 558.978 466.182 557.429 466.182ZM556.589 463.998C557.653 463.998 558.483 463.718 559.081 463.158C559.678 462.598 559.977 461.693 559.977 460.442V455.962C559.977 454.693 559.678 453.787 559.081 453.246C558.483 452.686 557.653 452.406 556.589 452.406C555.562 452.406 554.741 452.733 554.125 453.386C553.527 454.039 553.229 454.945 553.229 456.102V460.302C553.229 461.459 553.527 462.365 554.125 463.018C554.741 463.671 555.562 463.998 556.589 463.998ZM566.602 468.702V466.602H580.042V468.702H566.602ZM589.215 466.182C587.684 466.182 586.452 465.669 585.519 464.642C584.604 463.615 584.147 462.225 584.147 460.47V455.962C584.147 454.189 584.604 452.789 585.519 451.762C586.434 450.735 587.666 450.222 589.215 450.222C590.372 450.222 591.324 450.511 592.071 451.09C592.836 451.669 593.294 452.453 593.443 453.442H593.471L593.415 449.942V445.462H595.935V465.902H593.415V462.962H593.387C593.256 463.97 592.818 464.763 592.071 465.342C591.324 465.902 590.372 466.182 589.215 466.182ZM590.055 463.998C591.1 463.998 591.922 463.671 592.519 463.018C593.116 462.365 593.415 461.459 593.415 460.302V456.102C593.415 454.945 593.116 454.039 592.519 453.386C591.922 452.733 591.1 452.406 590.055 452.406C588.991 452.406 588.16 452.686 587.563 453.246C586.966 453.787 586.667 454.693 586.667 455.962V460.442C586.667 461.693 586.966 462.598 587.563 463.158C588.16 463.718 588.991 463.998 590.055 463.998ZM605.556 466.182C603.969 466.182 602.709 465.743 601.776 464.866C600.843 463.97 600.376 462.803 600.376 461.366C600.376 460.414 600.591 459.583 601.02 458.874C601.449 458.165 602.047 457.614 602.812 457.222C603.577 456.811 604.455 456.606 605.444 456.606H610.204V455.402C610.204 453.405 609.112 452.406 606.928 452.406C605.957 452.406 605.173 452.583 604.576 452.938C603.979 453.293 603.661 453.787 603.624 454.422H601.104C601.197 453.209 601.757 452.21 602.784 451.426C603.829 450.623 605.211 450.222 606.928 450.222C608.795 450.222 610.223 450.67 611.212 451.566C612.22 452.462 612.724 453.713 612.724 455.318V465.902H610.232V463.102H610.176C610.027 464.054 609.551 464.81 608.748 465.37C607.945 465.911 606.881 466.182 605.556 466.182ZM606.172 464.054C607.404 464.054 608.384 463.755 609.112 463.158C609.84 462.561 610.204 461.749 610.204 460.722V458.566H605.724C604.903 458.566 604.231 458.818 603.708 459.322C603.204 459.807 602.952 460.461 602.952 461.282C602.952 462.141 603.232 462.822 603.792 463.326C604.371 463.811 605.164 464.054 606.172 464.054ZM625.229 465.902C623.96 465.902 622.942 465.538 622.177 464.81C621.412 464.063 621.029 463.074 621.029 461.842V452.798H616.605V450.502H621.029V446.162H623.549V450.502H629.849V452.798H623.549V461.842C623.549 462.365 623.698 462.794 623.997 463.13C624.314 463.447 624.725 463.606 625.229 463.606H629.709V465.902H625.229ZM639.134 466.182C637.547 466.182 636.287 465.743 635.354 464.866C634.421 463.97 633.954 462.803 633.954 461.366C633.954 460.414 634.169 459.583 634.598 458.874C635.027 458.165 635.625 457.614 636.39 457.222C637.155 456.811 638.033 456.606 639.022 456.606H643.782V455.402C643.782 453.405 642.69 452.406 640.506 452.406C639.535 452.406 638.751 452.583 638.154 452.938C637.557 453.293 637.239 453.787 637.202 454.422H634.682C634.775 453.209 635.335 452.21 636.362 451.426C637.407 450.623 638.789 450.222 640.506 450.222C642.373 450.222 643.801 450.67 644.79 451.566C645.798 452.462 646.302 453.713 646.302 455.318V465.902H643.81V463.102H643.754C643.605 464.054 643.129 464.81 642.326 465.37C641.523 465.911 640.459 466.182 639.134 466.182ZM639.75 464.054C640.982 464.054 641.962 463.755 642.69 463.158C643.418 462.561 643.782 461.749 643.782 460.722V458.566H639.302C638.481 458.566 637.809 458.818 637.286 459.322C636.782 459.807 636.53 460.461 636.53 461.282C636.53 462.141 636.81 462.822 637.37 463.326C637.949 463.811 638.742 464.054 639.75 464.054ZM658.163 466.182C657.006 466.182 656.054 465.902 655.307 465.342C654.561 464.763 654.122 463.97 653.991 462.962H653.963V465.902H651.443V445.462H653.963V449.942L653.907 453.442H653.935C654.085 452.453 654.533 451.669 655.279 451.09C656.045 450.511 657.006 450.222 658.163 450.222C659.713 450.222 660.945 450.735 661.859 451.762C662.774 452.789 663.231 454.189 663.231 455.962V460.47C663.231 462.225 662.774 463.615 661.859 464.642C660.945 465.669 659.713 466.182 658.163 466.182ZM657.323 463.998C658.387 463.998 659.218 463.718 659.815 463.158C660.413 462.598 660.711 461.693 660.711 460.442V455.962C660.711 454.693 660.413 453.787 659.815 453.246C659.218 452.686 658.387 452.406 657.323 452.406C656.297 452.406 655.475 452.733 654.859 453.386C654.262 454.039 653.963 454.945 653.963 456.102V460.302C653.963 461.459 654.262 462.365 654.859 463.018C655.475 463.671 656.297 463.998 657.323 463.998ZM672.712 466.182C671.126 466.182 669.866 465.743 668.932 464.866C667.999 463.97 667.532 462.803 667.532 461.366C667.532 460.414 667.747 459.583 668.176 458.874C668.606 458.165 669.203 457.614 669.968 457.222C670.734 456.811 671.611 456.606 672.6 456.606H677.36V455.402C677.36 453.405 676.268 452.406 674.084 452.406C673.114 452.406 672.33 452.583 671.732 452.938C671.135 453.293 670.818 453.787 670.78 454.422H668.26C668.354 453.209 668.914 452.21 669.94 451.426C670.986 450.623 672.367 450.222 674.084 450.222C675.951 450.222 677.379 450.67 678.368 451.566C679.376 452.462 679.88 453.713 679.88 455.318V465.902H677.388V463.102H677.332C677.183 464.054 676.707 464.81 675.904 465.37C675.102 465.911 674.038 466.182 672.712 466.182ZM673.328 464.054C674.56 464.054 675.54 463.755 676.268 463.158C676.996 462.561 677.36 461.749 677.36 460.722V458.566H672.88C672.059 458.566 671.387 458.818 670.864 459.322C670.36 459.807 670.108 460.461 670.108 461.282C670.108 462.141 670.388 462.822 670.948 463.326C671.527 463.811 672.32 464.054 673.328 464.054ZM690.229 466.126C688.512 466.126 687.177 465.743 686.225 464.978C685.292 464.194 684.825 463.093 684.825 461.674H687.345C687.345 462.383 687.597 462.943 688.101 463.354C688.605 463.746 689.315 463.942 690.229 463.942H691.461C692.395 463.942 693.113 463.737 693.617 463.326C694.14 462.915 694.401 462.337 694.401 461.59C694.401 460.265 693.795 459.518 692.581 459.35L688.325 458.734C687.28 458.585 686.468 458.155 685.889 457.446C685.311 456.718 685.021 455.766 685.021 454.59C685.021 453.246 685.479 452.191 686.393 451.426C687.327 450.661 688.605 450.278 690.229 450.278H691.461C692.955 450.278 694.168 450.651 695.101 451.398C696.053 452.126 696.567 453.087 696.641 454.282H694.093C694.056 453.741 693.795 453.293 693.309 452.938C692.843 452.583 692.227 452.406 691.461 452.406H690.229C689.371 452.406 688.699 452.602 688.213 452.994C687.728 453.386 687.485 453.918 687.485 454.59C687.485 455.673 687.98 456.289 688.969 456.438L692.945 456.998C695.559 457.371 696.865 458.902 696.865 461.59C696.865 463.027 696.389 464.147 695.437 464.95C694.504 465.734 693.179 466.126 691.461 466.126H690.229ZM707.634 466.182C705.824 466.182 704.358 465.641 703.238 464.558C702.137 463.457 701.586 461.945 701.586 460.022V456.382C701.586 454.459 702.137 452.957 703.238 451.874C704.358 450.773 705.824 450.222 707.634 450.222C708.848 450.222 709.902 450.465 710.798 450.95C711.713 451.435 712.422 452.117 712.926 452.994C713.43 453.871 713.682 454.907 713.682 456.102V458.846H704.05V460.302C704.05 461.441 704.377 462.346 705.03 463.018C705.684 463.671 706.552 463.998 707.634 463.998C708.568 463.998 709.333 463.821 709.93 463.466C710.546 463.093 710.92 462.598 711.05 461.982H713.57C713.402 463.27 712.777 464.297 711.694 465.062C710.612 465.809 709.258 466.182 707.634 466.182ZM704.05 456.886H711.218V456.102C711.218 454.889 710.901 453.955 710.266 453.302C709.65 452.63 708.773 452.294 707.634 452.294C706.496 452.294 705.609 452.63 704.974 453.302C704.358 453.955 704.05 454.889 704.05 456.102V456.886ZM723.807 466.126C722.09 466.126 720.755 465.743 719.803 464.978C718.87 464.194 718.403 463.093 718.403 461.674H720.923C720.923 462.383 721.175 462.943 721.679 463.354C722.183 463.746 722.893 463.942 723.807 463.942H725.039C725.973 463.942 726.691 463.737 727.195 463.326C727.718 462.915 727.979 462.337 727.979 461.59C727.979 460.265 727.373 459.518 726.159 459.35L721.903 458.734C720.858 458.585 720.046 458.155 719.467 457.446C718.889 456.718 718.599 455.766 718.599 454.59C718.599 453.246 719.057 452.191 719.971 451.426C720.905 450.661 722.183 450.278 723.807 450.278H725.039C726.533 450.278 727.746 450.651 728.679 451.398C729.631 452.126 730.145 453.087 730.219 454.282H727.671C727.634 453.741 727.373 453.293 726.887 452.938C726.421 452.583 725.805 452.406 725.039 452.406H723.807C722.949 452.406 722.277 452.602 721.791 452.994C721.306 453.386 721.063 453.918 721.063 454.59C721.063 455.673 721.558 456.289 722.547 456.438L726.523 456.998C729.137 457.371 730.443 458.902 730.443 461.59C730.443 463.027 729.967 464.147 729.015 464.95C728.082 465.734 726.757 466.126 725.039 466.126H723.807Z" fill="#F3E223"/>
<path d="M183.58 164.36C180.911 163.763 178.839 162.512 177.364 160.608C175.908 158.704 175.18 156.315 175.18 153.44V148.4C175.18 145.525 175.908 143.136 177.364 141.232C178.839 139.328 180.911 138.077 183.58 137.48V139.916C182.385 140.196 181.34 140.728 180.444 141.512C179.567 142.296 178.885 143.276 178.4 144.452C177.933 145.609 177.7 146.925 177.7 148.4V153.44C177.7 154.896 177.933 156.212 178.4 157.388C178.885 158.564 179.567 159.544 180.444 160.328C181.34 161.112 182.385 161.644 183.58 161.924V164.36ZM190.009 164.36V161.924C191.222 161.644 192.268 161.112 193.145 160.328C194.022 159.544 194.694 158.564 195.161 157.388C195.646 156.212 195.889 154.896 195.889 153.44V148.4C195.889 146.925 195.646 145.609 195.161 144.452C194.694 143.276 194.022 142.296 193.145 141.512C192.268 140.728 191.222 140.196 190.009 139.916V137.48C192.678 138.077 194.741 139.328 196.197 141.232C197.672 143.136 198.409 145.525 198.409 148.4V153.44C198.409 156.315 197.672 158.704 196.197 160.608C194.741 162.512 192.678 163.763 190.009 164.36ZM211.698 149.52C211.082 149.52 210.578 149.324 210.186 148.932C209.794 148.54 209.598 148.036 209.598 147.42C209.598 146.823 209.794 146.328 210.186 145.936C210.597 145.525 211.101 145.32 211.698 145.32H212.258C212.855 145.32 213.35 145.525 213.742 145.936C214.153 146.328 214.358 146.823 214.358 147.42C214.358 148.036 214.162 148.54 213.77 148.932C213.378 149.324 212.874 149.52 212.258 149.52H211.698ZM209.318 165.48L210.858 156.912H213.882L211.922 165.48H209.318Z" fill="#F3E223"/>
<path d="M1114.02 361.182C1113.33 361.182 1112.77 360.977 1112.34 360.566C1111.93 360.155 1111.73 359.623 1111.73 358.97C1111.73 358.279 1111.93 357.719 1112.34 357.29C1112.77 356.861 1113.33 356.646 1114.02 356.646C1114.72 356.646 1115.27 356.861 1115.68 357.29C1116.11 357.719 1116.32 358.279 1116.32 358.97C1116.32 359.623 1116.11 360.155 1115.68 360.566C1115.27 360.977 1114.72 361.182 1114.02 361.182ZM1127.37 358.018L1125.44 356.646L1127.26 354.042C1127.5 353.706 1127.83 353.295 1128.24 352.81C1128.67 352.325 1129.07 351.895 1129.44 351.522C1128.92 351.447 1128.37 351.335 1127.79 351.186C1127.21 351.037 1126.75 350.897 1126.42 350.766L1123.42 349.646L1124.21 347.434L1127.23 348.554C1127.55 348.666 1127.97 348.843 1128.49 349.086C1129.01 349.329 1129.49 349.581 1129.92 349.842C1129.82 349.357 1129.75 348.862 1129.69 348.358C1129.66 347.835 1129.64 347.397 1129.64 347.042V343.542H1131.99V347.042C1131.99 347.397 1131.96 347.835 1131.91 348.358C1131.85 348.862 1131.78 349.357 1131.68 349.842C1132.13 349.581 1132.61 349.329 1133.11 349.086C1133.63 348.843 1134.06 348.666 1134.4 348.554L1137.42 347.434L1138.21 349.646L1135.21 350.766C1134.87 350.897 1134.42 351.037 1133.84 351.186C1133.26 351.335 1132.71 351.447 1132.19 351.522C1132.56 351.895 1132.96 352.334 1133.39 352.838C1133.82 353.323 1134.15 353.725 1134.37 354.042L1136.19 356.646L1134.26 358.018L1132.44 355.386C1132.21 355.069 1131.94 354.63 1131.63 354.07C1131.31 353.51 1131.04 352.987 1130.81 352.502C1130.59 352.987 1130.32 353.51 1130 354.07C1129.68 354.611 1129.41 355.05 1129.19 355.386L1127.37 358.018Z" fill="#F3E223"/>
<path d="M168.493 711.278C168.493 712.104 169.163 712.774 169.989 712.774C170.815 712.774 171.485 712.104 171.485 711.278L169.989 711.278L168.493 711.278ZM171.046 222.72C170.462 222.135 169.515 222.135 168.93 222.72L159.408 232.242C158.823 232.827 158.823 233.774 159.408 234.358C159.992 234.943 160.94 234.943 161.524 234.358L169.988 225.894L178.453 234.358C179.037 234.943 179.984 234.943 180.569 234.358C181.153 233.774 181.153 232.827 180.569 232.242L171.046 222.72ZM169.989 711.278L171.485 711.278L171.485 223.778L169.988 223.778L168.492 223.778L168.493 711.278L169.989 711.278Z" fill="#F0DF09"/>
</g>
<path d="M353.429 326.477C314.778 326.477 283.564 295.264 283.564 256.613C283.564 217.962 314.778 186.749 353.429 186.749C392.079 186.749 423.293 217.962 423.293 256.613C423.293 295.264 392.079 326.477 353.429 326.477Z" fill="black"/>
<path d="M390.785 246.248H377.08V266.931H390.785C396.468 266.931 401.19 262.21 401.19 256.527C401.19 250.803 396.468 246.248 390.785 246.248Z" fill="#FFF100"/>
<path d="M309.928 256.614C309.928 272.576 322.923 285.571 338.885 285.571C354.846 285.571 367.841 272.576 367.841 256.614C367.841 240.652 354.846 227.657 338.885 227.657C322.923 227.657 309.928 240.652 309.928 256.614Z" fill="#FFF100"/>
<path d="M459.121 274.113V239.098H468.523C470.793 239.098 472.76 239.545 474.423 240.441C476.118 241.304 477.429 242.535 478.356 244.134C479.283 245.701 479.747 247.556 479.747 249.698V263.465C479.747 265.607 479.283 267.478 478.356 269.077C477.429 270.676 476.118 271.923 474.423 272.818C472.76 273.682 470.793 274.113 468.523 274.113H459.121ZM463.87 269.892H468.523C470.537 269.892 472.12 269.317 473.272 268.165C474.423 267.014 474.998 265.447 474.998 263.465V249.698C474.998 247.716 474.423 246.165 473.272 245.046C472.12 243.894 470.537 243.319 468.523 243.319H463.87V269.892ZM498.004 274.593C494.902 274.593 492.423 273.682 490.569 271.859C488.714 270.036 487.787 267.558 487.787 264.424V247.732H492.535V264.424C492.535 266.279 493.015 267.75 493.974 268.837C494.966 269.892 496.309 270.42 498.004 270.42C499.73 270.42 501.089 269.892 502.081 268.837C503.072 267.75 503.568 266.279 503.568 264.424V247.732H508.316V264.424C508.316 267.558 507.373 270.036 505.486 271.859C503.632 273.682 501.137 274.593 498.004 274.593ZM527.196 274.593C523.967 274.593 521.376 273.698 519.426 271.907C517.475 270.084 516.5 267.59 516.5 264.424V257.373C516.5 254.239 517.475 251.777 519.426 249.986C521.376 248.163 523.967 247.252 527.196 247.252C530.298 247.252 532.792 248.083 534.679 249.746C536.598 251.377 537.605 253.616 537.701 256.462H533C532.904 254.863 532.329 253.632 531.274 252.768C530.25 251.873 528.891 251.425 527.196 251.425C525.374 251.425 523.919 251.953 522.831 253.008C521.776 254.031 521.249 255.486 521.249 257.373V264.424C521.249 266.343 521.776 267.814 522.831 268.837C523.919 269.86 525.374 270.372 527.196 270.372C528.923 270.372 530.298 269.94 531.322 269.077C532.345 268.213 532.904 266.982 533 265.383H537.701C537.605 268.229 536.598 270.484 534.679 272.147C532.792 273.778 530.298 274.593 527.196 274.593ZM545.645 274.113V239.098H550.393V258.476H555.238L562.337 247.732H567.709L559.411 260.347L568.141 274.113H562.673L555.286 262.553H550.393V274.113H545.645ZM574.166 274.113V239.098H583.568C585.838 239.098 587.805 239.545 589.467 240.441C591.162 241.304 592.473 242.535 593.401 244.134C594.328 245.701 594.792 247.556 594.792 249.698V263.465C594.792 265.607 594.328 267.478 593.401 269.077C592.473 270.676 591.162 271.923 589.467 272.818C587.805 273.682 585.838 274.113 583.568 274.113H574.166ZM578.915 269.892H583.568C585.582 269.892 587.165 269.317 588.316 268.165C589.467 267.014 590.043 265.447 590.043 263.465V249.698C590.043 247.716 589.467 246.165 588.316 245.046C587.165 243.894 585.582 243.319 583.568 243.319H578.915V269.892ZM602.975 274.113V239.098H613.096C616.326 239.098 618.868 239.913 620.723 241.544C622.61 243.143 623.553 245.349 623.553 248.163C623.553 249.986 622.977 251.617 621.826 253.056C620.707 254.463 619.252 255.326 617.461 255.646V255.79C618.804 255.95 619.987 256.43 621.011 257.229C622.066 258.029 622.881 259.052 623.457 260.299C624.065 261.514 624.368 262.857 624.368 264.328C624.368 267.334 623.409 269.716 621.49 271.475C619.604 273.234 617.029 274.113 613.768 274.113H602.975ZM607.628 253.871H613.048C614.839 253.871 616.246 253.408 617.269 252.48C618.293 251.521 618.804 250.226 618.804 248.595C618.804 246.932 618.293 245.637 617.269 244.71C616.246 243.75 614.855 243.271 613.096 243.271H607.628V253.871ZM607.628 269.94H613.336C615.287 269.94 616.822 269.429 617.941 268.405C619.06 267.35 619.62 265.927 619.62 264.136C619.62 262.282 619.06 260.779 617.941 259.627C616.822 258.476 615.287 257.901 613.336 257.901H607.628V269.94ZM660.498 274.113V269.796H669.851V243.367L660.45 250.37V244.998L668.412 239.098H674.6V269.796H682.274V274.113H660.498ZM699.38 274.593C698.165 274.593 697.173 274.225 696.406 273.49C695.67 272.754 695.303 271.811 695.303 270.66C695.303 269.445 695.67 268.453 696.406 267.686C697.173 266.918 698.165 266.535 699.38 266.535C700.595 266.535 701.57 266.918 702.306 267.686C703.073 268.453 703.457 269.445 703.457 270.66C703.457 271.811 703.073 272.754 702.306 273.49C701.57 274.225 700.595 274.593 699.38 274.593ZM732.746 274.113V266.631H716.965V259.388L729.772 239.098H735.144L721.665 260.491V262.361H732.746V253.967H737.494V274.113H732.746ZM756.902 274.593C755.687 274.593 754.696 274.225 753.928 273.49C753.193 272.754 752.825 271.811 752.825 270.66C752.825 269.445 753.193 268.453 753.928 267.686C754.696 266.918 755.687 266.535 756.902 266.535C758.117 266.535 759.092 266.918 759.828 267.686C760.595 268.453 760.979 269.445 760.979 270.66C760.979 271.811 760.595 272.754 759.828 273.49C759.092 274.225 758.117 274.593 756.902 274.593ZM790.268 274.113V266.631H774.487V259.388L787.294 239.098H792.666L779.188 260.491V262.361H790.268V253.967H795.017V274.113H790.268ZM834.935 274.113V239.098H839.684V269.796H855.273V274.113H834.935ZM869.596 274.113V243.415H860.099V239.098H883.794V243.415H874.345V274.113H869.596ZM900.9 274.593C897.446 274.593 894.696 273.698 892.649 271.907C890.603 270.084 889.58 267.59 889.58 264.424H894.328C894.328 266.279 894.92 267.734 896.103 268.789C897.286 269.844 898.885 270.372 900.9 270.372C902.818 270.372 904.337 269.844 905.457 268.789C906.608 267.702 907.183 266.263 907.183 264.472C907.183 263.129 906.816 261.962 906.08 260.97C905.345 259.947 904.305 259.26 902.962 258.908L897.782 257.517C895.511 256.877 893.705 255.726 892.362 254.063C891.051 252.368 890.395 250.37 890.395 248.067C890.395 246.181 890.811 244.534 891.642 243.127C892.506 241.688 893.705 240.585 895.24 239.817C896.775 239.018 898.549 238.618 900.564 238.618C902.61 238.618 904.401 239.018 905.936 239.817C907.503 240.585 908.718 241.672 909.582 243.079C910.445 244.486 910.877 246.117 910.877 247.972H906.176C906.176 246.437 905.648 245.189 904.593 244.23C903.57 243.271 902.227 242.791 900.564 242.791C898.901 242.791 897.558 243.271 896.535 244.23C895.543 245.189 895.048 246.437 895.048 247.972C895.048 249.219 895.384 250.274 896.055 251.137C896.727 251.969 897.67 252.56 898.885 252.912L904.209 254.351C906.608 254.991 908.478 256.222 909.821 258.045C911.165 259.835 911.836 261.978 911.836 264.472C911.836 266.519 911.388 268.309 910.493 269.844C909.598 271.347 908.319 272.514 906.656 273.346C905.025 274.177 903.106 274.593 900.9 274.593Z" fill="black"/>
</g>
<defs>
<linearGradient id="paint0_linear_11646_51472" x1="589" y1="-26.5" x2="587" y2="627" gradientUnits="userSpaceOnUse">
<stop stop-color="#FDEF00"/>
<stop offset="0.938633" stop-color="#FFFAA3"/>
</linearGradient>
<clipPath id="clip0_11646_51472">
<rect width="1200" height="514.29" fill="white"/>
</clipPath>
<clipPath id="clip1_11646_51472">
<rect width="1200" height="515" fill="white"/>
</clipPath>
</defs>
</svg>
