<svg width="1200" height="515" viewBox="0 0 1200 515" fill="none" xmlns="http://www.w3.org/2000/svg">
<g clip-path="url(#clip0_13444_27628)">
<rect width="1200" height="515" fill="url(#paint0_linear_13444_27628)"/>
<g clip-path="url(#clip1_13444_27628)">
<rect width="1200" height="515" fill="url(#paint1_linear_13444_27628)"/>
<path d="M794.496 -399.098C794.496 -399.924 793.826 -400.594 792.999 -400.594C792.173 -400.594 791.503 -399.924 791.503 -399.098L792.999 -399.098L794.496 -399.098ZM791.942 89.4604C792.526 90.0447 793.474 90.0447 794.058 89.4604L803.58 79.938C804.165 79.3536 804.165 78.4062 803.58 77.8219C802.996 77.2376 802.049 77.2376 801.464 77.8219L793 86.2863L784.536 77.8219C783.951 77.2376 783.004 77.2376 782.42 77.8219C781.835 78.4062 781.835 79.3537 782.42 79.938L791.942 89.4604ZM792.999 -399.098L791.503 -399.098L791.504 88.4023L793 88.4023L794.496 88.4023L794.496 -399.098L792.999 -399.098Z" fill="#F0DF09"/>
<path d="M534.999 -473.862L619.612 -473.862C655.51 -473.862 684.612 -444.761 684.612 -408.862L684.612 -199C684.612 -163.102 713.713 -134 749.612 -134L816 -134C851.899 -134 881 -104.899 881 -69L881 108.5C881 144.398 910.102 173.5 946 173.5L1208 173.5" stroke="#F0DF09" stroke-width="2.9926"/>
<path d="M603 749.902L782.688 749.902C818.586 749.902 847.688 720.801 847.688 684.902L847.688 496.402C847.688 460.504 876.789 431.402 912.688 431.402L985 431.402C1020.9 431.402 1050 402.301 1050 366.402L1050 -148.098" stroke="#F0DF09" stroke-width="2.9926"/>
<path d="M372 631.403L372 512.5C372 476.602 342.898 447.5 307 447.5L166 447.501C130.102 447.501 101 418.399 101 382.501L101 149.965C101 114.066 130.102 84.9648 166 84.9648L483.244 84.9649C519.142 84.9649 548.244 55.8634 548.244 19.9649L548.244 -373.097C548.244 -408.996 577.345 -438.097 613.244 -438.097L793 -438.097" stroke="#F0DF09" stroke-width="2.9926"/>
<rect x="92.9619" y="245.866" width="16.0762" height="38.0762" rx="8.0381" fill="#D4C50B" stroke="#F0DF09" stroke-width="1.92382"/>
<path d="M1115.4 127.28C1114.71 127.28 1114.15 127.075 1113.72 126.664C1113.31 126.253 1113.1 125.721 1113.1 125.068C1113.1 124.377 1113.31 123.817 1113.72 123.388C1114.15 122.959 1114.71 122.744 1115.4 122.744C1116.09 122.744 1116.64 122.959 1117.05 123.388C1117.48 123.817 1117.7 124.377 1117.7 125.068C1117.7 125.721 1117.48 126.253 1117.05 126.664C1116.64 127.075 1116.09 127.28 1115.4 127.28ZM1128.75 124.116L1126.81 122.744L1128.63 120.14C1128.88 119.804 1129.2 119.393 1129.61 118.908C1130.04 118.423 1130.44 117.993 1130.82 117.62C1130.29 117.545 1129.74 117.433 1129.17 117.284C1128.59 117.135 1128.13 116.995 1127.79 116.864L1124.8 115.744L1125.58 113.532L1128.61 114.652C1128.92 114.764 1129.34 114.941 1129.87 115.184C1130.39 115.427 1130.86 115.679 1131.29 115.94C1131.2 115.455 1131.13 114.96 1131.07 114.456C1131.03 113.933 1131.01 113.495 1131.01 113.14V109.64H1133.37V113.14C1133.37 113.495 1133.34 113.933 1133.28 114.456C1133.23 114.96 1133.15 115.455 1133.06 115.94C1133.51 115.679 1133.98 115.427 1134.49 115.184C1135.01 114.941 1135.44 114.764 1135.77 114.652L1138.8 113.532L1139.58 115.744L1136.59 116.864C1136.25 116.995 1135.79 117.135 1135.21 117.284C1134.63 117.433 1134.08 117.545 1133.56 117.62C1133.93 117.993 1134.34 118.432 1134.77 118.936C1135.19 119.421 1135.52 119.823 1135.75 120.14L1137.57 122.744L1135.63 124.116L1133.81 121.484C1133.59 121.167 1133.32 120.728 1133 120.168C1132.68 119.608 1132.41 119.085 1132.19 118.6C1131.97 119.085 1131.69 119.608 1131.38 120.168C1131.06 120.709 1130.79 121.148 1130.57 121.484L1128.75 124.116Z" fill="#F3E223"/>
<path d="M548.493 881.278C548.493 882.104 549.163 882.774 549.989 882.774C550.815 882.774 551.485 882.104 551.485 881.278L549.989 881.278L548.493 881.278ZM551.046 392.72C550.462 392.135 549.515 392.135 548.93 392.72L539.408 402.242C538.823 402.827 538.823 403.774 539.408 404.358C539.992 404.943 540.94 404.943 541.524 404.358L549.988 395.894L558.453 404.358C559.037 404.943 559.984 404.943 560.569 404.358C561.153 403.774 561.153 402.827 560.569 402.242L551.046 392.72ZM549.989 881.278L551.485 881.278L551.485 393.778L549.988 393.778L548.492 393.778L548.493 881.278L549.989 881.278Z" fill="#F0DF09"/>
</g>
<path d="M755 338L589 434L423 338L589 242L755 338Z" fill="#FFF100" stroke="#978C00" stroke-width="3.21" stroke-miterlimit="10" stroke-linecap="round"/>
<path d="M522 295C491.019 295 466 269.981 466 239C466 208.019 491.019 183 522 183C552.981 183 578 208.019 578 239C578 269.981 552.981 295 522 295Z" fill="#FFFCC2" stroke="#978C00" stroke-width="3.21" stroke-miterlimit="10" stroke-linecap="round"/>
<path d="M551.939 230.704H540.953V247.283H551.939C556.494 247.283 560.278 243.498 560.278 238.943C560.278 234.354 556.494 230.704 551.939 230.704Z" fill="#FFF100" stroke="#978C00" stroke-width="3.21" stroke-miterlimit="10" stroke-linecap="round"/>
<path d="M487.135 239.155C487.135 252.03 497.551 262.512 510.345 262.512C523.14 262.512 533.556 252.03 533.556 239.155C533.556 226.281 523.14 215.799 510.345 215.799C497.551 215.799 487.135 226.281 487.135 239.155Z" fill="#FFF100" stroke="#978C00" stroke-width="3.21" stroke-miterlimit="10" stroke-linecap="round"/>
<path d="M568.19 261.199C565.934 259.362 563.067 258.251 560.301 259.154C551.606 262.172 547.644 270.883 543.35 277.092C534.272 290.46 517.529 302.698 505.949 308.033C495.23 313.022 494.091 318.876 502.108 327.584C504.208 329.838 506.251 333.791 507.331 334.964C509.579 337.405 511.985 334.61 514.822 334.122C518.836 333.422 524.754 330.566 536.431 324.772C554.541 315.816 560.786 311.429 566.694 314.25C569.171 315.416 569.479 316.825 571.804 319.302C575.554 323.362 580.525 325.84 585.741 327.395L586.297 325.241C594.288 307.962 602.712 302.982 608.999 301.628C617.728 299.801 621.874 305.16 635.056 302.981C639.514 302.231 648.933 300.774 655.055 293.066C659.256 287.814 659.935 282.31 660.555 277.61C661.919 267.1 658.154 259.358 650.728 243.911C650.409 243.299 649.707 241.934 648.265 241.101C646.172 239.792 643.34 239.912 641.019 241.467C635.212 245.306 628.976 248.447 622.9 251.669C616.303 255.149 605.881 262.345 578.936 265.075C575.535 265.458 572.127 264.447 569.484 262.254L568.19 261.199Z" fill="#FFFCC2" stroke="#978C00" stroke-width="3.06" stroke-miterlimit="10"/>
<path d="M652.001 250.717C640.762 259.39 628.05 265.218 615.01 270.574C608.181 273.379 600.873 275.75 594.075 275.698C587.277 275.646 573.504 266.4 571.068 263.508" stroke="#978C00" stroke-width="3.06" stroke-miterlimit="10" stroke-linecap="round"/>
<path d="M489.498 346.637C495.712 365.875 506.998 379.847 528.788 382.002C542.756 383.379 554.105 379.893 564.07 376.379C580.1 370.709 581.151 366.539 589.832 366.761C601.929 367.058 603.405 375.273 614.714 375.935C627.089 376.662 643.099 366.713 647.74 352.701C649.738 346.72 649.126 341.679 648.084 332.817C647.838 330.635 647.38 327.785 645.184 325.868C643.399 324.319 641.281 323.913 640.124 323.859C633.681 323.478 615.662 327.022 609.448 327.859C606.816 328.201 583.385 331.111 571.919 318.817C569.774 316.526 569.49 315.222 567.204 314.144C561.754 311.534 556.039 315.583 539.29 323.866C525.953 330.496 513.789 334.178 499.065 336.511C493.656 337.368 488.167 342.557 489.498 346.637Z" fill="#FFFCC2" stroke="#978C00" stroke-width="3.06" stroke-miterlimit="10"/>
<path d="M571.859 318.731C575.264 326.084 581.735 332.862 588.182 336.143C595.407 339.797 603.077 339.211 610.651 339.004C622.681 338.711 634.625 337.645 646.338 334.533" stroke="#978C00" stroke-width="3.06" stroke-miterlimit="10" stroke-linecap="round"/>
<path d="M697.25 189.039H684.898V340.426C684.898 343.837 687.664 346.602 691.074 346.602C694.485 346.602 697.25 343.837 697.25 340.426V189.039Z" fill="#FFFCC2" stroke="#978C00" stroke-width="3.06" stroke-miterlimit="10"/>
<path d="M732.047 181.127V195.643C732.047 226.06 722.8 255.686 705.56 280.758L697.369 292.701V278.185C697.369 247.768 706.617 218.142 723.857 193.07L732.047 181.127Z" fill="#FFFCC2" stroke="#978C00" stroke-width="3.06" stroke-miterlimit="10"/>
<path d="M650 213.254V227.77C650 258.187 659.247 287.813 676.487 312.886L684.678 324.828V310.312C684.678 279.895 675.431 250.27 658.191 225.197L650 213.254Z" fill="#FFFCC2" stroke="#978C00" stroke-width="3.06" stroke-miterlimit="10"/>
<path d="M691.104 189.039C709.401 189.039 724.263 174.193 724.263 155.917V103L660.059 167.133C664.682 179.868 676.77 189.039 691.104 189.039Z" fill="#FFF100" stroke="#978C00" stroke-width="3.21" stroke-miterlimit="10" stroke-linecap="round"/>
<path d="M691.307 189.039C673.01 189.039 658.148 174.193 658.148 155.917V103L722.352 167.133C717.729 179.868 705.641 189.039 691.307 189.039Z" fill="#FFF100" stroke="#978C00" stroke-width="3.21" stroke-miterlimit="10" stroke-linecap="round"/>
<path d="M707.36 119.205L691.152 103.016L674.945 119.205L691.152 135.395L707.36 119.205Z" fill="#FFF100" stroke="#978C00" stroke-width="3.21" stroke-miterlimit="10" stroke-linecap="round"/>
</g>
<defs>
<linearGradient id="paint0_linear_13444_27628" x1="589" y1="-26.5" x2="587" y2="627" gradientUnits="userSpaceOnUse">
<stop stop-color="#FDEF00"/>
<stop offset="0.938633" stop-color="#FFFAA3"/>
</linearGradient>
<linearGradient id="paint1_linear_13444_27628" x1="589" y1="-26.5" x2="587" y2="627" gradientUnits="userSpaceOnUse">
<stop stop-color="#FDEF00"/>
<stop offset="0.938633" stop-color="#FFFAA3"/>
</linearGradient>
<clipPath id="clip0_13444_27628">
<rect width="1200" height="515" fill="white"/>
</clipPath>
<clipPath id="clip1_13444_27628">
<rect width="1200" height="515" fill="white"/>
</clipPath>
</defs>
</svg>
