<svg width="1200" height="515" viewBox="0 0 1200 515" fill="none" xmlns="http://www.w3.org/2000/svg">
<g clip-path="url(#clip0_14738_28700)">
<g clip-path="url(#clip1_14738_28700)">
<rect width="1200" height="515" fill="url(#paint0_linear_14738_28700)"/>
<path d="M794.496 -399.098C794.496 -399.924 793.826 -400.594 792.999 -400.594C792.173 -400.594 791.503 -399.924 791.503 -399.098L792.999 -399.098L794.496 -399.098ZM791.942 89.4604C792.526 90.0447 793.474 90.0447 794.058 89.4604L803.58 79.938C804.165 79.3536 804.165 78.4062 803.58 77.8219C802.996 77.2376 802.049 77.2376 801.464 77.8219L793 86.2863L784.536 77.8219C783.951 77.2376 783.004 77.2376 782.42 77.8219C781.835 78.4062 781.835 79.3537 782.42 79.938L791.942 89.4604ZM792.999 -399.098L791.503 -399.098L791.504 88.4023L793 88.4023L794.496 88.4023L794.496 -399.098L792.999 -399.098Z" fill="#F0DF09"/>
<path d="M534.999 -473.862L619.612 -473.862C655.51 -473.862 684.612 -444.761 684.612 -408.862L684.612 -199C684.612 -163.102 713.713 -134 749.612 -134L816 -134C851.899 -134 881 -104.899 881 -69L881 108.5C881 144.398 910.102 173.5 946 173.5L1208 173.5" stroke="#F0DF09" stroke-width="2.9926"/>
<path d="M603 749.902L782.688 749.902C818.586 749.902 847.688 720.801 847.688 684.902L847.688 496.402C847.688 460.504 876.789 431.402 912.688 431.402L985 431.402C1020.9 431.402 1050 402.301 1050 366.402L1050 -148.098" stroke="#F0DF09" stroke-width="2.9926"/>
<path d="M372 631.403L372 512.5C372 476.602 342.898 447.5 307 447.5L166 447.501C130.102 447.501 101 418.399 101 382.501L101 149.965C101 114.066 130.102 84.9648 166 84.9648L483.244 84.9649C519.142 84.9649 548.244 55.8634 548.244 19.9649L548.244 -373.097C548.244 -408.996 577.345 -438.097 613.244 -438.097L793 -438.097" stroke="#F0DF09" stroke-width="2.9926"/>
<rect x="92.9619" y="245.866" width="16.0762" height="38.0762" rx="8.0381" fill="#D4C50B" stroke="#F0DF09" stroke-width="1.92382"/>
<path d="M609.864 113.04V108.56L609.92 105.06H609.836C609.705 106.049 609.267 106.833 608.52 107.412C607.773 107.991 606.821 108.28 605.664 108.28C604.115 108.28 602.883 107.767 601.968 106.74C601.053 105.713 600.596 104.313 600.596 102.54V98.032C600.596 96.2587 601.053 94.868 601.968 93.86C602.901 92.8333 604.133 92.32 605.664 92.32C606.821 92.32 607.773 92.6093 608.52 93.188C609.267 93.748 609.705 94.532 609.836 95.54H609.864V92.6H612.384V113.04H609.864ZM606.504 106.096C607.549 106.096 608.371 105.769 608.968 105.116C609.565 104.463 609.864 103.557 609.864 102.4V98.2C609.864 97.0427 609.565 96.1373 608.968 95.484C608.371 94.8307 607.549 94.504 606.504 94.504C605.44 94.504 604.609 94.7747 604.012 95.316C603.415 95.8573 603.116 96.7253 603.116 97.92V102.68C603.116 103.875 603.415 104.743 604.012 105.284C604.609 105.825 605.44 106.096 606.504 106.096ZM623.321 108.28C621.548 108.28 620.129 107.757 619.065 106.712C618.001 105.648 617.469 104.211 617.469 102.4V92.6H619.989V102.4C619.989 103.52 620.288 104.416 620.885 105.088C621.483 105.741 622.295 106.068 623.321 106.068C624.367 106.068 625.188 105.741 625.785 105.088C626.401 104.416 626.709 103.52 626.709 102.4V92.6H629.229V102.4C629.229 104.211 628.688 105.648 627.605 106.712C626.523 107.757 625.095 108.28 623.321 108.28ZM638.794 108.28C637.208 108.28 635.948 107.841 635.014 106.964C634.081 106.068 633.614 104.901 633.614 103.464C633.614 102.512 633.829 101.681 634.258 100.972C634.688 100.263 635.285 99.712 636.05 99.32C636.816 98.9093 637.693 98.704 638.682 98.704H643.442V97.5C643.442 95.5027 642.35 94.504 640.166 94.504C639.196 94.504 638.412 94.6813 637.814 95.036C637.217 95.3907 636.9 95.8853 636.862 96.52H634.342C634.436 95.3067 634.996 94.308 636.022 93.524C637.068 92.7213 638.449 92.32 640.166 92.32C642.033 92.32 643.461 92.768 644.45 93.664C645.458 94.56 645.962 95.8107 645.962 97.416V108H643.47V105.2H643.414C643.265 106.152 642.789 106.908 641.986 107.468C641.184 108.009 640.12 108.28 638.794 108.28ZM639.41 106.152C640.642 106.152 641.622 105.853 642.35 105.256C643.078 104.659 643.442 103.847 643.442 102.82V100.664H638.962C638.141 100.664 637.469 100.916 636.946 101.42C636.442 101.905 636.19 102.559 636.19 103.38C636.19 104.239 636.47 104.92 637.03 105.424C637.609 105.909 638.402 106.152 639.41 106.152ZM657.151 108.28C655.285 108.28 653.791 107.757 652.671 106.712C651.551 105.667 650.991 104.229 650.991 102.4V98.2C650.991 96.3707 651.551 94.9333 652.671 93.888C653.791 92.8427 655.285 92.32 657.151 92.32C658.925 92.32 660.353 92.796 661.435 93.748C662.537 94.7 663.115 95.9973 663.171 97.64H660.651C660.595 96.6507 660.259 95.8947 659.643 95.372C659.027 94.8307 658.197 94.56 657.151 94.56C656.05 94.56 655.163 94.8773 654.491 95.512C653.838 96.128 653.511 97.0147 653.511 98.172V102.4C653.511 103.557 653.838 104.453 654.491 105.088C655.163 105.723 656.05 106.04 657.151 106.04C658.197 106.04 659.027 105.769 659.643 105.228C660.259 104.687 660.595 103.931 660.651 102.96H663.171C663.115 104.603 662.537 105.9 661.435 106.852C660.353 107.804 658.925 108.28 657.151 108.28ZM668.032 108V87.56H670.552V98.956H673.492L677.804 92.6H680.688L675.732 99.936L680.968 108H678.028L673.548 101.14H670.552V108H668.032ZM686.025 99.88V97.64H694.985V99.88H686.025ZM710.599 113.04V108.56L710.655 105.06H710.571C710.44 106.049 710.001 106.833 709.255 107.412C708.508 107.991 707.556 108.28 706.399 108.28C704.849 108.28 703.617 107.767 702.703 106.74C701.788 105.713 701.331 104.313 701.331 102.54V98.032C701.331 96.2587 701.788 94.868 702.703 93.86C703.636 92.8333 704.868 92.32 706.399 92.32C707.556 92.32 708.508 92.6093 709.255 93.188C710.001 93.748 710.44 94.532 710.571 95.54H710.599V92.6H713.119V113.04H710.599ZM707.239 106.096C708.284 106.096 709.105 105.769 709.703 105.116C710.3 104.463 710.599 103.557 710.599 102.4V98.2C710.599 97.0427 710.3 96.1373 709.703 95.484C709.105 94.8307 708.284 94.504 707.239 94.504C706.175 94.504 705.344 94.7747 704.747 95.316C704.149 95.8573 703.851 96.7253 703.851 97.92V102.68C703.851 103.875 704.149 104.743 704.747 105.284C705.344 105.825 706.175 106.096 707.239 106.096ZM724.056 108.28C722.282 108.28 720.864 107.757 719.8 106.712C718.736 105.648 718.204 104.211 718.204 102.4V92.6H720.724V102.4C720.724 103.52 721.022 104.416 721.62 105.088C722.217 105.741 723.029 106.068 724.056 106.068C725.101 106.068 725.922 105.741 726.52 105.088C727.136 104.416 727.444 103.52 727.444 102.4V92.6H729.964V102.4C729.964 104.211 729.422 105.648 728.34 106.712C727.257 107.757 725.829 108.28 724.056 108.28ZM739.529 108.28C737.942 108.28 736.682 107.841 735.749 106.964C734.815 106.068 734.349 104.901 734.349 103.464C734.349 102.512 734.563 101.681 734.993 100.972C735.422 100.263 736.019 99.712 736.785 99.32C737.55 98.9093 738.427 98.704 739.417 98.704H744.177V97.5C744.177 95.5027 743.085 94.504 740.901 94.504C739.93 94.504 739.146 94.6813 738.549 95.036C737.951 95.3907 737.634 95.8853 737.597 96.52H735.077C735.17 95.3067 735.73 94.308 736.757 93.524C737.802 92.7213 739.183 92.32 740.901 92.32C742.767 92.32 744.195 92.768 745.185 93.664C746.193 94.56 746.697 95.8107 746.697 97.416V108H744.205V105.2H744.149C743.999 106.152 743.523 106.908 742.721 107.468C741.918 108.009 740.854 108.28 739.529 108.28ZM740.145 106.152C741.377 106.152 742.357 105.853 743.085 105.256C743.813 104.659 744.177 103.847 744.177 102.82V100.664H739.697C738.875 100.664 738.203 100.916 737.681 101.42C737.177 101.905 736.925 102.559 736.925 103.38C736.925 104.239 737.205 104.92 737.765 105.424C738.343 105.909 739.137 106.152 740.145 106.152ZM757.886 108.28C756.019 108.28 754.526 107.757 753.406 106.712C752.286 105.667 751.726 104.229 751.726 102.4V98.2C751.726 96.3707 752.286 94.9333 753.406 93.888C754.526 92.8427 756.019 92.32 757.886 92.32C759.659 92.32 761.087 92.796 762.17 93.748C763.271 94.7 763.85 95.9973 763.906 97.64H761.386C761.33 96.6507 760.994 95.8947 760.378 95.372C759.762 94.8307 758.931 94.56 757.886 94.56C756.784 94.56 755.898 94.8773 755.226 95.512C754.572 96.128 754.246 97.0147 754.246 98.172V102.4C754.246 103.557 754.572 104.453 755.226 105.088C755.898 105.723 756.784 106.04 757.886 106.04C758.931 106.04 759.762 105.769 760.378 105.228C760.994 104.687 761.33 103.931 761.386 102.96H763.906C763.85 104.603 763.271 105.9 762.17 106.852C761.087 107.804 759.659 108.28 757.886 108.28ZM768.767 108V87.56H771.287V98.956H774.227L778.539 92.6H781.423L776.467 99.936L781.703 108H778.763L774.283 101.14H771.287V108H768.767Z" fill="#F3E223"/>
<path d="M287.58 325.36C284.911 324.763 282.839 323.512 281.364 321.608C279.908 319.704 279.18 317.315 279.18 314.44V309.4C279.18 306.525 279.908 304.136 281.364 302.232C282.839 300.328 284.911 299.077 287.58 298.48V300.916C286.385 301.196 285.34 301.728 284.444 302.512C283.567 303.296 282.885 304.276 282.4 305.452C281.933 306.609 281.7 307.925 281.7 309.4V314.44C281.7 315.896 281.933 317.212 282.4 318.388C282.885 319.564 283.567 320.544 284.444 321.328C285.34 322.112 286.385 322.644 287.58 322.924V325.36ZM294.009 325.36V322.924C295.222 322.644 296.268 322.112 297.145 321.328C298.022 320.544 298.694 319.564 299.161 318.388C299.646 317.212 299.889 315.896 299.889 314.44V309.4C299.889 307.925 299.646 306.609 299.161 305.452C298.694 304.276 298.022 303.296 297.145 302.512C296.268 301.728 295.222 301.196 294.009 300.916V298.48C296.678 299.077 298.741 300.328 300.197 302.232C301.672 304.136 302.409 306.525 302.409 309.4V314.44C302.409 317.315 301.672 319.704 300.197 321.608C298.741 323.512 296.678 324.763 294.009 325.36ZM315.698 310.52C315.082 310.52 314.578 310.324 314.186 309.932C313.794 309.54 313.598 309.036 313.598 308.42C313.598 307.823 313.794 307.328 314.186 306.936C314.597 306.525 315.101 306.32 315.698 306.32H316.258C316.855 306.32 317.35 306.525 317.742 306.936C318.153 307.328 318.358 307.823 318.358 308.42C318.358 309.036 318.162 309.54 317.77 309.932C317.378 310.324 316.874 310.52 316.258 310.52H315.698ZM313.318 326.48L314.858 317.912H317.882L315.922 326.48H313.318Z" fill="#F3E223"/>
<path d="M1115.4 127.28C1114.71 127.28 1114.15 127.075 1113.72 126.664C1113.31 126.253 1113.1 125.721 1113.1 125.068C1113.1 124.377 1113.31 123.817 1113.72 123.388C1114.15 122.959 1114.71 122.744 1115.4 122.744C1116.09 122.744 1116.64 122.959 1117.05 123.388C1117.48 123.817 1117.7 124.377 1117.7 125.068C1117.7 125.721 1117.48 126.253 1117.05 126.664C1116.64 127.075 1116.09 127.28 1115.4 127.28ZM1128.75 124.116L1126.81 122.744L1128.63 120.14C1128.88 119.804 1129.2 119.393 1129.61 118.908C1130.04 118.423 1130.44 117.993 1130.82 117.62C1130.29 117.545 1129.74 117.433 1129.17 117.284C1128.59 117.135 1128.13 116.995 1127.79 116.864L1124.8 115.744L1125.58 113.532L1128.61 114.652C1128.92 114.764 1129.34 114.941 1129.87 115.184C1130.39 115.427 1130.86 115.679 1131.29 115.94C1131.2 115.455 1131.13 114.96 1131.07 114.456C1131.03 113.933 1131.01 113.495 1131.01 113.14V109.64H1133.37V113.14C1133.37 113.495 1133.34 113.933 1133.28 114.456C1133.23 114.96 1133.15 115.455 1133.06 115.94C1133.51 115.679 1133.98 115.427 1134.49 115.184C1135.01 114.941 1135.44 114.764 1135.77 114.652L1138.8 113.532L1139.58 115.744L1136.59 116.864C1136.25 116.995 1135.79 117.135 1135.21 117.284C1134.63 117.433 1134.08 117.545 1133.56 117.62C1133.93 117.993 1134.34 118.432 1134.77 118.936C1135.19 119.421 1135.52 119.823 1135.75 120.14L1137.57 122.744L1135.63 124.116L1133.81 121.484C1133.59 121.167 1133.32 120.728 1133 120.168C1132.68 119.608 1132.41 119.085 1132.19 118.6C1131.97 119.085 1131.69 119.608 1131.38 120.168C1131.06 120.709 1130.79 121.148 1130.57 121.484L1128.75 124.116Z" fill="#F3E223"/>
<path d="M548.493 881.278C548.493 882.104 549.163 882.774 549.989 882.774C550.815 882.774 551.485 882.104 551.485 881.278L549.989 881.278L548.493 881.278ZM551.046 392.72C550.462 392.135 549.515 392.135 548.93 392.72L539.408 402.242C538.823 402.827 538.823 403.774 539.408 404.358C539.992 404.943 540.94 404.943 541.524 404.358L549.988 395.894L558.453 404.358C559.037 404.943 559.984 404.943 560.569 404.358C561.153 403.774 561.153 402.827 560.569 402.242L551.046 392.72ZM549.989 881.278L551.485 881.278L551.485 393.778L549.988 393.778L548.492 393.778L548.493 881.278L549.989 881.278Z" fill="#F0DF09"/>
</g>
<path d="M410.929 326.477C372.278 326.477 341.064 295.264 341.064 256.613C341.064 217.962 372.278 186.749 410.929 186.749C449.579 186.749 480.793 217.962 480.793 256.613C480.793 295.264 449.579 326.477 410.929 326.477Z" fill="black"/>
<path d="M448.285 246.248H434.58V266.931H448.285C453.968 266.931 458.69 262.21 458.69 256.527C458.69 250.803 453.968 246.248 448.285 246.248Z" fill="#FFF100"/>
<path d="M367.428 256.614C367.428 272.576 380.423 285.571 396.385 285.571C412.346 285.571 425.341 272.576 425.341 256.614C425.341 240.652 412.346 227.657 396.385 227.657C380.423 227.657 367.428 240.652 367.428 256.614Z" fill="#FFF100"/>
<path d="M516.621 274.113V239.098H526.023C528.293 239.098 530.26 239.545 531.923 240.441C533.618 241.304 534.929 242.535 535.856 244.134C536.783 245.701 537.247 247.556 537.247 249.698V263.465C537.247 265.607 536.783 267.478 535.856 269.077C534.929 270.676 533.618 271.923 531.923 272.818C530.26 273.682 528.293 274.113 526.023 274.113H516.621ZM521.37 269.892H526.023C528.037 269.892 529.62 269.317 530.772 268.165C531.923 267.014 532.498 265.447 532.498 263.465V249.698C532.498 247.716 531.923 246.165 530.772 245.046C529.62 243.894 528.037 243.319 526.023 243.319H521.37V269.892ZM555.504 274.593C552.402 274.593 549.923 273.682 548.069 271.859C546.214 270.036 545.287 267.558 545.287 264.424V247.732H550.035V264.424C550.035 266.279 550.515 267.75 551.474 268.837C552.466 269.892 553.809 270.42 555.504 270.42C557.23 270.42 558.589 269.892 559.581 268.837C560.572 267.75 561.068 266.279 561.068 264.424V247.732H565.816V264.424C565.816 267.558 564.873 270.036 562.986 271.859C561.132 273.682 558.637 274.593 555.504 274.593ZM584.696 274.593C581.467 274.593 578.876 273.698 576.926 271.907C574.975 270.084 574 267.59 574 264.424V257.373C574 254.239 574.975 251.777 576.926 249.986C578.876 248.163 581.467 247.252 584.696 247.252C587.798 247.252 590.292 248.083 592.179 249.746C594.098 251.377 595.105 253.616 595.201 256.462H590.5C590.404 254.863 589.829 253.632 588.774 252.768C587.75 251.873 586.391 251.425 584.696 251.425C582.874 251.425 581.419 251.953 580.331 253.008C579.276 254.031 578.749 255.486 578.749 257.373V264.424C578.749 266.343 579.276 267.814 580.331 268.837C581.419 269.86 582.874 270.372 584.696 270.372C586.423 270.372 587.798 269.94 588.822 269.077C589.845 268.213 590.404 266.982 590.5 265.383H595.201C595.105 268.229 594.098 270.484 592.179 272.147C590.292 273.778 587.798 274.593 584.696 274.593ZM603.145 274.113V239.098H607.893V258.476H612.738L619.837 247.732H625.209L616.911 260.347L625.641 274.113H620.173L612.786 262.553H607.893V274.113H603.145ZM631.666 274.113V239.098H641.068C643.338 239.098 645.305 239.545 646.967 240.441C648.662 241.304 649.973 242.535 650.901 244.134C651.828 245.701 652.292 247.556 652.292 249.698V263.465C652.292 265.607 651.828 267.478 650.901 269.077C649.973 270.676 648.662 271.923 646.967 272.818C645.305 273.682 643.338 274.113 641.068 274.113H631.666ZM636.415 269.892H641.068C643.082 269.892 644.665 269.317 645.816 268.165C646.967 267.014 647.543 265.447 647.543 263.465V249.698C647.543 247.716 646.967 246.165 645.816 245.046C644.665 243.894 643.082 243.319 641.068 243.319H636.415V269.892ZM660.475 274.113V239.098H670.596C673.826 239.098 676.368 239.913 678.223 241.544C680.11 243.143 681.053 245.349 681.053 248.163C681.053 249.986 680.477 251.617 679.326 253.056C678.207 254.463 676.752 255.326 674.961 255.646V255.79C676.304 255.95 677.487 256.43 678.511 257.229C679.566 258.029 680.381 259.052 680.957 260.299C681.565 261.514 681.868 262.857 681.868 264.328C681.868 267.334 680.909 269.716 678.99 271.475C677.104 273.234 674.529 274.113 671.268 274.113H660.475ZM665.128 253.871H670.548C672.339 253.871 673.746 253.408 674.769 252.48C675.793 251.521 676.304 250.226 676.304 248.595C676.304 246.932 675.793 245.637 674.769 244.71C673.746 243.75 672.355 243.271 670.596 243.271H665.128V253.871ZM665.128 269.94H670.836C672.787 269.94 674.322 269.429 675.441 268.405C676.56 267.35 677.12 265.927 677.12 264.136C677.12 262.282 676.56 260.779 675.441 259.627C674.322 258.476 672.787 257.901 670.836 257.901H665.128V269.94ZM717.998 274.113V269.796H727.351V243.367L717.95 250.37V244.998L725.912 239.098H732.1V269.796H739.774V274.113H717.998ZM756.88 274.593C755.665 274.593 754.673 274.225 753.906 273.49C753.17 272.754 752.803 271.811 752.803 270.66C752.803 269.445 753.17 268.453 753.906 267.686C754.673 266.918 755.665 266.535 756.88 266.535C758.095 266.535 759.07 266.918 759.806 267.686C760.573 268.453 760.957 269.445 760.957 270.66C760.957 271.811 760.573 272.754 759.806 273.49C759.07 274.225 758.095 274.593 756.88 274.593ZM785.401 274.593C782.107 274.593 779.501 273.698 777.582 271.907C775.664 270.084 774.704 267.622 774.704 264.52H779.453C779.453 266.343 779.981 267.782 781.036 268.837C782.123 269.86 783.578 270.372 785.401 270.372C787.256 270.372 788.711 269.844 789.766 268.789C790.853 267.734 791.397 266.295 791.397 264.472V262.266C791.397 260.443 790.869 259.004 789.814 257.949C788.791 256.893 787.384 256.366 785.593 256.366H775.904V239.098H794.898V243.415H780.317L780.412 252.097H785.833C789.094 252.097 791.621 252.992 793.411 254.783C795.234 256.542 796.146 259.036 796.146 262.266V264.472C796.146 267.606 795.17 270.084 793.22 271.907C791.301 273.698 788.695 274.593 785.401 274.593ZM814.402 274.593C813.187 274.593 812.196 274.225 811.428 273.49C810.693 272.754 810.325 271.811 810.325 270.66C810.325 269.445 810.693 268.453 811.428 267.686C812.196 266.918 813.187 266.535 814.402 266.535C815.617 266.535 816.592 266.918 817.328 267.686C818.095 268.453 818.479 269.445 818.479 270.66C818.479 271.811 818.095 272.754 817.328 273.49C816.592 274.225 815.617 274.593 814.402 274.593ZM847.768 274.113V266.631H831.987V259.388L844.794 239.098H850.166L836.688 260.491V262.361H847.768V253.967H852.517V274.113H847.768Z" fill="black"/>
</g>
<defs>
<linearGradient id="paint0_linear_14738_28700" x1="589" y1="-26.5" x2="587" y2="627" gradientUnits="userSpaceOnUse">
<stop stop-color="#FDEF00"/>
<stop offset="0.938633" stop-color="#FFFAA3"/>
</linearGradient>
<clipPath id="clip0_14738_28700">
<rect width="1200" height="514.29" fill="white"/>
</clipPath>
<clipPath id="clip1_14738_28700">
<rect width="1200" height="515" fill="white"/>
</clipPath>
</defs>
</svg>
