<svg xmlns="http://www.w3.org/2000/svg" width="560" height="240" fill="none" viewBox="0 0 560 240"><g clip-path="url(#clip0_4723_16515)"><rect width="560" height="240" fill="#FFF100"/><g clip-path="url(#clip1_4723_16515)"><rect width="560" height="240" fill="#FFF100"/><path fill="url(#paint0_linear_4723_16515)" d="M294.978 54.1962L416.868 54.1962C427.914 54.1962 436.868 63.1505 436.868 74.1962L436.868 157C436.868 168.046 445.822 177 456.868 177L583.619 177C594.665 177 603.619 168.046 603.619 157L603.619 -13.9535C603.619 -24.9992 594.665 -33.9535 583.619 -33.9535L294.978 -33.9539C283.932 -33.9539 274.978 -24.9996 274.978 -13.9539L274.978 34.1962C274.978 45.2419 283.932 54.1962 294.978 54.1962Z"/><path fill="url(#paint1_linear_4723_16515)" d="M-55.5005 45.3256L66.9995 45.3256C78.0452 45.3256 86.9995 54.2799 86.9995 65.3256L86.9993 139C86.9993 150.046 95.9536 159 106.999 159L208.041 159C219.087 159 228.041 167.954 228.041 179L228.041 195.5C228.041 206.546 236.996 215.5 248.041 215.5L316.711 215.5C327.757 215.5 336.711 224.454 336.711 235.5L336.711 268.827C336.711 279.873 327.757 288.827 316.711 288.827L-55.5005 288.827C-66.5462 288.827 -75.5005 279.873 -75.5005 268.827L-75.5005 65.3256C-75.5005 54.2799 -66.5462 45.3256 -55.5005 45.3256Z"/><path stroke="url(#paint2_linear_4723_16515)" stroke-linecap="round" stroke-linejoin="round" stroke-width="3" d="M205.5 388.986L205.5 228.531C205.5 215.798 195.178 205.476 182.445 205.476V205.476L87.9777 205.476C71.4091 205.476 57.9777 192.045 57.9777 175.476L57.9777 120.476C57.9777 103.908 44.5463 90.4763 27.9777 90.4763L-100.5 90.4763"/><path stroke="url(#paint3_linear_4723_16515)" stroke-linecap="round" stroke-linejoin="round" stroke-width="3" d="M490 -95L490 90C490 106.569 503.431 120 520 120L668 120"/></g><path fill="#000" d="M221.49 94.5071C221.49 89.2713 218.378 88.4751 215.193 88.4751H213.6V100.563H215.193C218.378 100.563 221.49 99.7912 221.49 94.5071ZM210.15 85.7727H215.338C220.887 85.7727 225.061 87.5582 225.061 94.5071C225.061 101.456 220.887 103.266 215.338 103.266H210.15V85.7727ZM235.123 103.266V101.553C234.375 102.88 232.952 103.579 231.335 103.579C228.223 103.579 226.968 101.673 226.968 98.4883V90.2847H230.298V97.7644C230.298 99.5016 230.563 100.901 232.421 100.901C234.641 100.901 235.123 99.0915 235.123 97.0406V90.2847H238.453V103.266H235.123ZM247.11 89.9951C249.836 89.9951 252.538 91.5152 252.997 94.7243H249.812C249.547 93.4696 248.388 92.5769 247.11 92.5769C245.372 92.5769 243.997 94.0487 243.997 96.751C243.997 99.4775 245.3 100.998 247.134 100.998C248.292 100.998 249.474 100.394 249.933 98.8502H253.117C252.345 102.397 249.667 103.579 246.965 103.579C243.08 103.579 240.595 100.732 240.595 96.7993C240.595 92.8423 243.225 89.9951 247.11 89.9951ZM255.106 85.7727H258.435V95.4964L263.165 90.2847H266.904L262.248 95.2551L267.17 103.266H263.43L260.028 97.6438L258.435 99.3569V103.266H255.106V85.7727ZM280.433 97.5231H283.714C283.256 101.07 280.312 103.579 276.138 103.579C270.926 103.579 267.959 100.032 267.959 94.4347C267.959 88.9094 271.143 85.4591 276.234 85.4591C280.336 85.4591 283.135 87.7995 283.714 91.4428H280.433C279.781 89.0059 278.141 88.2097 276.21 88.2097C273.58 88.2097 271.53 90.3812 271.53 94.4347C271.53 98.6089 273.58 100.829 276.09 100.829C278.165 100.829 279.854 99.9118 280.433 97.5231ZM291.831 92.601C289.997 92.601 288.694 94.0728 288.694 96.7993C288.694 99.5258 289.997 100.973 291.831 100.973C293.665 100.973 294.968 99.5258 294.968 96.7993C294.968 94.0728 293.665 92.601 291.831 92.601ZM291.831 103.579C288.549 103.579 285.316 101.335 285.316 96.7993C285.316 92.2391 288.549 89.9951 291.831 89.9951C295.112 89.9951 298.345 92.2391 298.345 96.7993C298.345 101.335 295.112 103.579 291.831 103.579ZM303.794 90.2847V91.9978C304.542 90.6707 305.941 89.9951 307.558 89.9951C310.67 89.9951 312.045 91.8771 312.045 95.0862V103.266H308.716V95.81C308.716 94.1452 308.354 92.6734 306.472 92.6734C304.276 92.6734 303.794 94.4589 303.794 96.5097V103.266H300.464V90.2847H303.794ZM320.159 89.8262H323.537L324.092 85.7727H327.084L326.529 89.8262H329.738L330.293 85.7727H333.285L332.73 89.8262H336.06L335.746 92.408H332.368L331.862 96.0513H335.167L334.902 98.6089H331.5L330.872 103.266H327.88L328.508 98.6089H325.299L324.671 103.266H321.679L322.307 98.6089H319.001L319.315 96.0513H322.669L323.175 92.408H319.894L320.159 89.8262ZM326.167 92.408L325.661 96.0513H328.87L329.376 92.408H326.167ZM340.755 97.5955C340.755 99.6947 342.131 101.07 343.964 101.07C345.774 101.07 347.101 99.7188 347.101 97.5955C347.101 95.5446 345.774 94.1934 343.964 94.1934C342.131 94.1934 340.755 95.5446 340.755 97.5955ZM344.109 87.9925C341.889 87.9925 340.562 90.0434 340.562 93.3248C341.31 92.3838 342.71 91.66 344.544 91.66C347.777 91.66 350.479 93.8556 350.479 97.6438C350.479 101.239 347.753 103.579 343.964 103.579C339.284 103.579 337.233 99.8153 337.233 94.9173C337.233 89.8986 339.091 85.4591 344.326 85.4591C348.139 85.4591 349.924 88.0408 350.117 90.2847H346.86C346.691 88.837 345.557 87.9925 344.109 87.9925ZM212.705 127.266L219.22 109.773H222.694L229.233 127.266H225.493L224.262 123.719H217.458L216.228 127.266H212.705ZM220.86 113.995L218.448 120.896H223.273L220.86 113.995ZM246.691 127.266V119.714C246.691 118.29 246.571 116.673 244.616 116.673C242.396 116.673 242.035 118.531 242.035 120.51V127.266H238.705V119.714C238.705 118.29 238.584 116.673 236.63 116.673C234.41 116.673 234.048 118.531 234.048 120.51V127.266H230.718V114.285H234.048V115.998C234.796 114.719 236.099 113.995 237.667 113.995C239.863 113.995 240.852 115.177 241.359 116.118C242.396 114.671 243.675 113.995 245.63 113.995C248.887 113.995 250.021 116.022 250.021 119.086V127.266H246.691ZM263.244 118.193H260.131C259.866 117.108 258.901 116.336 257.356 116.336C256.126 116.336 255.257 116.794 255.257 117.59C255.257 118.29 255.764 118.821 256.994 119.086L258.732 119.472C261.313 120.051 263.509 120.703 263.509 123.381C263.509 125.987 260.831 127.579 257.887 127.579C254.702 127.579 252.289 125.939 251.976 122.971H255.185C255.378 124.225 256.246 125.166 257.984 125.166C259.431 125.166 260.324 124.636 260.324 123.695C260.324 122.73 259.335 122.368 258.201 122.102L256.271 121.692C253.834 121.185 252.217 120.172 252.217 117.807C252.217 115.491 254.726 113.947 257.525 113.947C260.228 113.947 262.785 115.202 263.244 118.193ZM266.215 114.285V110.762H269.544V114.285H272.247V116.577H269.544V123.284C269.544 124.612 270.003 124.877 271.185 124.877H272.198V127.266H269.761C266.769 127.266 266.215 126.349 266.215 123.767V116.577H264.381V114.285H266.215ZM286.42 121.692H276.841C277.034 123.912 278.53 124.998 280.123 124.998C281.16 124.998 282.173 124.636 282.849 123.502H286.275C285.575 125.432 283.693 127.579 280.147 127.579C275.972 127.579 273.536 124.467 273.536 120.727C273.536 116.866 276.214 113.995 280.05 113.995C284.055 113.995 286.541 117.108 286.42 121.692ZM280.026 116.432C278.771 116.432 277.155 117.204 276.889 119.4H283.042C282.97 117.204 281.425 116.432 280.026 116.432ZM295.996 114.357V117.494C295.514 117.421 295.103 117.421 294.621 117.421C292.98 117.421 291.894 118.025 291.894 120.461V127.266H288.565V114.285H291.846V116.553C292.594 114.936 293.752 114.309 295.272 114.309C295.49 114.309 295.779 114.333 295.996 114.357ZM309.578 127.266H306.248V125.625C305.404 127.073 303.86 127.579 302.509 127.579C299.42 127.579 296.863 124.925 296.863 120.775C296.863 116.697 299.372 113.995 302.509 113.995C304.149 113.995 305.549 114.719 306.248 115.95V109.773H309.578V127.266ZM303.329 125.022C305.163 125.022 306.369 123.453 306.369 120.775C306.369 118.169 305.163 116.553 303.329 116.553C301.592 116.553 300.361 118.266 300.361 120.799C300.361 123.333 301.592 125.022 303.329 125.022ZM320.682 122.295V121.33C316.942 121.716 315.47 122.15 315.47 123.598C315.47 124.539 316.194 125.311 317.714 125.311C319.814 125.311 320.682 124.201 320.682 122.295ZM320.972 125.649C320.031 127 318.679 127.579 316.725 127.579C314.24 127.579 312.044 126.132 312.044 123.767C312.044 120.703 315.47 119.786 320.586 119.207V118.99C320.586 116.987 319.5 116.287 318.149 116.287C316.87 116.287 315.808 116.939 315.736 118.386H312.623C312.889 115.829 314.964 113.947 318.318 113.947C321.382 113.947 323.915 115.298 323.915 119.665C323.915 120.051 323.867 121.813 323.867 122.971C323.867 125.022 323.988 126.18 324.253 127.266H321.189C321.092 126.855 321.044 126.3 320.972 125.649ZM342.662 127.266V119.714C342.662 118.29 342.541 116.673 340.587 116.673C338.367 116.673 338.005 118.531 338.005 120.51V127.266H334.676V119.714C334.676 118.29 334.555 116.673 332.6 116.673C330.381 116.673 330.019 118.531 330.019 120.51V127.266H326.689V114.285H330.019V115.998C330.767 114.719 332.07 113.995 333.638 113.995C335.834 113.995 336.823 115.177 337.33 116.118C338.367 114.671 339.646 113.995 341.6 113.995C344.858 113.995 345.992 116.022 345.992 119.086V127.266H342.662Z"/><path fill="#000" d="M233.09 138.236C235.883 138.236 237.689 139.706 237.689 142.163C237.689 145.25 235.043 148.253 229.436 152.474H238.151V153.734H227.63V152.432C233.237 148.169 236.303 145.145 236.303 142.31C236.303 140.357 234.812 139.391 233.09 139.391C231.179 139.391 229.436 140.294 229.373 143.213H227.987C228.134 139.958 230.066 138.236 233.09 138.236ZM245.949 154.007C241.917 154.007 240.09 150.962 240.09 146.111C240.09 141.302 241.917 138.236 245.949 138.236C249.939 138.236 251.787 141.302 251.787 146.111C251.787 150.962 249.939 154.007 245.949 154.007ZM245.949 152.852C248.679 152.852 250.422 150.71 250.422 146.111C250.422 141.554 248.679 139.391 245.949 139.391C243.198 139.391 241.476 141.554 241.476 146.111C241.476 150.71 243.198 152.852 245.949 152.852ZM259.012 138.236C261.805 138.236 263.611 139.706 263.611 142.163C263.611 145.25 260.965 148.253 255.358 152.474H264.073V153.734H253.552V152.432C259.159 148.169 262.225 145.145 262.225 142.31C262.225 140.357 260.734 139.391 259.012 139.391C257.101 139.391 255.358 140.294 255.295 143.213H253.909C254.056 139.958 255.988 138.236 259.012 138.236ZM271.115 152.852C273.236 152.852 275.042 151.403 275.042 148.757C275.042 145.901 273.005 144.725 271.073 144.725C269.351 144.725 267.923 145.649 267.482 146.678L266.201 146.552L267.188 138.509H275.798V139.769H268.322L267.65 144.977C268.385 144.137 269.897 143.549 271.388 143.549C274.202 143.549 276.428 145.376 276.428 148.736C276.428 152.201 273.887 154.007 271.115 154.007C268.091 154.007 266.054 152.033 265.781 149.45H267.167C267.608 151.802 269.309 152.852 271.115 152.852ZM284.314 148.715H278.434V147.245H284.314V148.715ZM292.215 154.007C288.183 154.007 286.356 150.962 286.356 146.111C286.356 141.302 288.183 138.236 292.215 138.236C296.205 138.236 298.053 141.302 298.053 146.111C298.053 150.962 296.205 154.007 292.215 154.007ZM292.215 152.852C294.945 152.852 296.688 150.71 296.688 146.111C296.688 141.554 294.945 139.391 292.215 139.391C289.464 139.391 287.742 141.554 287.742 146.111C287.742 150.71 289.464 152.852 292.215 152.852ZM303.976 153.734H302.674V141.407H299.188V140.525C301.855 140.525 302.527 140.252 303.094 138.383H303.976V153.734ZM312.8 148.715H306.92V147.245H312.8V148.715ZM319.398 152.852C321.708 152.852 323.388 151.655 323.388 149.534C323.388 147.203 321.624 146.258 318.768 146.258H318.642V145.103H318.768C321.624 145.103 322.989 144.053 322.989 142.205C322.989 140.63 321.75 139.391 319.503 139.391C317.907 139.391 316.08 140.252 315.744 142.604H314.358C314.694 140 316.563 138.236 319.608 138.236C322.527 138.236 324.375 139.706 324.375 142.079C324.375 143.591 323.577 145.04 321.876 145.628C323.493 146.069 324.774 147.161 324.774 149.513C324.774 152.537 322.254 154.007 319.419 154.007C316.374 154.007 314.337 152.033 314.064 149.45H315.45C315.891 151.802 317.592 152.852 319.398 152.852ZM330.472 153.734H329.17V141.407H325.684V140.525C328.351 140.525 329.023 140.252 329.59 138.383H330.472V153.734Z"/></g><defs><linearGradient id="paint0_linear_4723_16515" x1="363.767" x2="363.767" y1="-79.38" y2="147.13" gradientUnits="userSpaceOnUse"><stop stop-color="#EDDD0C"/><stop offset="1" stop-color="#F3E71B"/></linearGradient><linearGradient id="paint1_linear_4723_16515" x1="298.167" x2="298.167" y1="213.947" y2="68.92" gradientUnits="userSpaceOnUse"><stop stop-color="#EDDD0C"/><stop offset="1" stop-color="#F3E71B"/></linearGradient><linearGradient id="paint2_linear_4723_16515" x1="244.999" x2="158.601" y1="240" y2="27.543" gradientUnits="userSpaceOnUse"><stop stop-color="#EDDD0C"/><stop offset=".395" stop-color="#CCBD00"/><stop offset="1" stop-color="#EDDD0C"/></linearGradient><linearGradient id="paint3_linear_4723_16515" x1="567" x2="526.651" y1="109.5" y2="14.484" gradientUnits="userSpaceOnUse"><stop stop-color="#EDDD0C"/><stop offset=".395" stop-color="#CCBD00"/><stop offset="1" stop-color="#EDDD0C"/></linearGradient><clipPath id="clip0_4723_16515"><rect width="560" height="240" fill="#fff"/></clipPath><clipPath id="clip1_4723_16515"><rect width="560" height="240" fill="#fff"/></clipPath></defs></svg>