<svg width="560" height="315" viewBox="0 0 560 315" fill="none" xmlns="http://www.w3.org/2000/svg">
<g clip-path="url(#clip0_9426_19715)">
<rect width="560" height="315" fill="#FFF100"/>
<g clip-path="url(#clip1_9426_19715)">
<rect width="560" height="315" fill="#FFF100"/>
<path d="M197 78.0264L197 -1.00003C197 -12.0457 188.046 -21 177 -21L-26 -21.0001C-37.0457 -21.0001 -46 -12.0457 -46 -1.00005L-46 242C-46 253.046 -37.0457 262 -26 262L46.5001 262C57.5457 262 66.5001 253.046 66.5001 242L66.5001 118.026C66.5001 106.981 75.4544 98.0265 86.5001 98.0265L177 98.0265C188.046 98.0265 197 89.0721 197 78.0264Z" fill="#EDDD0C"/>
<path d="M499.233 153.258L499.233 -32.9999C499.233 -44.0457 508.187 -52.9999 519.233 -52.9999L561 -52.9999C572.046 -52.9999 581 -44.0457 581 -33L581 348C581 359.046 572.046 368 561 368L320 368C308.954 368 300 359.046 300 348L300 273.82C300 262.774 308.954 253.82 320 253.82L368.877 253.82C379.923 253.82 388.877 244.866 388.877 233.82L388.877 193.258C388.877 182.212 397.831 173.258 408.877 173.258L479.233 173.258C490.279 173.258 499.233 164.304 499.233 153.258Z" fill="#EDDD0C"/>
</g>
<path d="M227 191C208.467 191 193.5 176.033 193.5 157.5C193.5 138.967 208.467 124 227 124C245.533 124 260.5 138.967 260.5 157.5C260.5 176.033 245.533 191 227 191Z" fill="#0D0D0D"/>
<path d="M244.912 152.53H238.34V162.448H244.912C247.637 162.448 249.901 160.184 249.901 157.459C249.901 154.714 247.637 152.53 244.912 152.53Z" fill="#FFF100"/>
<path d="M206.141 157.5C206.141 165.154 212.372 171.385 220.026 171.385C227.68 171.385 233.911 165.154 233.911 157.5C233.911 149.846 227.68 143.615 220.026 143.615C212.372 143.615 206.141 149.846 206.141 157.5Z" fill="#FFF100"/>
<line x1="258.5" y1="158.5" x2="300.5" y2="158.5" stroke="black" stroke-width="7"/>
<path d="M333 191C314.467 191 299.5 176.033 299.5 157.5C299.5 138.967 314.467 124 333 124C351.533 124 366.5 138.967 366.5 157.5C366.5 176.033 351.533 191 333 191Z" fill="#0D0D0D"/>
<path d="M350.912 152.53H344.34V162.448H350.912C353.637 162.448 355.901 160.184 355.901 157.459C355.901 154.714 353.637 152.53 350.912 152.53Z" fill="#FFF100"/>
<path d="M312.141 157.5C312.141 165.154 318.372 171.385 326.026 171.385C333.68 171.385 339.911 165.154 339.911 157.5C339.911 149.846 333.68 143.615 326.026 143.615C318.372 143.615 312.141 149.846 312.141 157.5Z" fill="#FFF100"/>
</g>
<defs>
<clipPath id="clip0_9426_19715">
<rect width="560" height="315" fill="white"/>
</clipPath>
<clipPath id="clip1_9426_19715">
<rect width="560" height="315" fill="white"/>
</clipPath>
</defs>
</svg>
