<svg width="367" height="206" viewBox="0 0 367 206" fill="none" xmlns="http://www.w3.org/2000/svg">
<g clip-path="url(#clip0_3941_9145)">
<rect width="367" height="206" fill="#EDDD00"/>
<path fill-rule="evenodd" clip-rule="evenodd" d="M-26 140H39C50.0457 140 59 131.046 59 120L59 51C59 39.9543 67.9543 31 79 31H124C135.046 31 144 22.0457 144 11V0H407.5V13.5C407.5 24.5457 398.546 33.5 387.5 33.5H342.5C331.454 33.5 322.5 42.4543 322.5 53.5V147C322.5 158.046 313.546 167 302.5 167H196.5C185.454 167 176.5 175.954 176.5 187L176.5 227H-26V140Z" fill="#F6E900"/>
<path d="M135 136.5C116.467 136.5 101.5 121.533 101.5 103C101.5 84.4668 116.467 69.5 135 69.5C153.533 69.5 168.5 84.4668 168.5 103C168.5 121.533 153.533 136.5 135 136.5Z" fill="black"/>
<path d="M152.912 98.0308H146.34V107.949H152.912C155.637 107.949 157.901 105.684 157.901 102.96C157.901 100.215 155.637 98.0308 152.912 98.0308Z" fill="#FFEF00"/>
<path d="M114.141 103C114.141 110.654 120.372 116.885 128.026 116.885C135.68 116.885 141.911 110.654 141.911 103C141.911 95.3464 135.68 89.1152 128.026 89.1152C120.372 89.1152 114.141 95.3464 114.141 103Z" fill="#FFEF00"/>
<path d="M232 136.5C213.553 136.5 198.5 121.595 198.5 103C198.5 84.4053 213.405 69.5 232 69.5C250.595 69.5 265.5 84.4053 265.5 103C265.5 121.595 250.595 136.5 232 136.5Z" fill="black"/>
<path d="M232.591 99.163L231.115 96.359C231.115 95.9163 230.524 95.9163 230.082 96.0638C228.606 96.8017 226.983 97.392 225.359 97.8348C223.146 98.5727 220.784 99.3105 218.571 100.639C216.062 102.262 212.225 105.952 210.602 107.87C210.159 108.46 210.159 109.346 210.602 109.789L211.93 110.969C212.52 111.412 213.258 111.412 213.848 110.969C214.881 109.936 216.062 108.755 217.243 107.87C218.718 106.542 220.194 105.361 221.522 104.623C224.769 103 228.754 102.115 232.148 100.344C232.591 100.048 232.591 99.6057 232.443 99.3105L232.591 99.163Z" fill="#F6E900"/>
<path d="M238.641 103.885L235.837 102.41C235.395 102.41 234.952 102.41 234.804 102.705C233.919 104.328 233.181 106.099 232.591 107.87C231.853 109.789 231.262 111.559 230.525 113.33C229.196 115.987 226.392 118.643 224.179 121.004C221.965 123.366 223.736 122.333 224.179 122.923L225.359 124.251C225.802 124.841 226.688 124.841 227.278 124.251C228.458 123.218 229.639 122.037 230.82 120.857C232.295 119.233 233.919 117.463 234.952 115.544C236.723 112.002 237.461 108.313 239.084 104.918C239.084 104.476 239.084 104.181 238.789 103.885H238.641Z" fill="#F6E900"/>
<path d="M250.152 89.1277L249.562 88.5374L241.888 93.8501L241.002 92.9647L246.315 85.2907L245.725 84.7004C245.43 84.4052 244.987 84.4052 244.692 84.7004L238.789 88.9801C238.494 88.9801 238.346 89.4228 238.198 89.718L236.575 93.2598L232.443 95.6211L233.771 98.2775V98.5726L235.394 97.8347L236.723 99.1629L235.985 100.639L238.789 101.967L241.15 97.8347L244.692 96.2114C244.987 96.2114 245.134 95.9162 245.43 95.6211L249.709 89.718C249.709 89.4228 249.709 88.9801 249.709 88.685L250.152 89.1277ZM238.936 97.6872C238.051 97.6872 237.313 96.9493 237.313 96.0638C237.313 95.1783 238.051 94.4405 238.936 94.4405C239.822 94.4405 240.56 95.1783 240.56 96.0638C240.56 96.9493 239.822 97.6872 238.936 97.6872Z" fill="#F6E900"/>
</g>
<defs>
<clipPath id="clip0_3941_9145">
<rect width="367" height="206" fill="white"/>
</clipPath>
</defs>
</svg>
