<svg width="560" height="240" viewBox="0 0 560 240" fill="none" xmlns="http://www.w3.org/2000/svg">
<g clip-path="url(#clip0_4723_16588)">
<rect width="560" height="240" fill="#FFF100"/>
<g clip-path="url(#clip1_4723_16588)">
<rect width="560" height="240" fill="#FFF100"/>
<path d="M294.978 54.1961L416.868 54.1961C427.914 54.1961 436.868 63.1504 436.868 74.1961L436.868 157C436.868 168.046 445.822 177 456.868 177L583.619 177C594.665 177 603.619 168.046 603.619 157L603.619 -13.9536C603.619 -24.9993 594.665 -33.9536 583.619 -33.9536L294.978 -33.954C283.932 -33.954 274.978 -24.9997 274.978 -13.954L274.978 34.1961C274.978 45.2418 283.932 54.1961 294.978 54.1961Z" fill="url(#paint0_linear_4723_16588)"/>
<path d="M-55.5005 45.3255L66.9995 45.3255C78.0452 45.3255 86.9995 54.2799 86.9995 65.3256L86.9993 139C86.9993 150.046 95.9536 159 106.999 159L208.041 159C219.087 159 228.041 167.954 228.041 179L228.041 195.5C228.041 206.546 236.996 215.5 248.041 215.5L316.711 215.5C327.757 215.5 336.711 224.454 336.711 235.5L336.711 268.827C336.711 279.873 327.757 288.827 316.711 288.827L-55.5005 288.827C-66.5462 288.827 -75.5005 279.873 -75.5005 268.827L-75.5005 65.3255C-75.5005 54.2798 -66.5462 45.3255 -55.5005 45.3255Z" fill="url(#paint1_linear_4723_16588)"/>
<path d="M205.5 388.986L205.5 228.531C205.5 215.798 195.178 205.476 182.445 205.476V205.476L87.9777 205.476C71.4091 205.476 57.9777 192.045 57.9777 175.476L57.9777 120.476C57.9777 103.908 44.5463 90.4761 27.9777 90.4761L-100.5 90.4761" stroke="url(#paint2_linear_4723_16588)" stroke-width="3" stroke-linecap="round" stroke-linejoin="round"/>
<path d="M490 -95L490 90C490 106.569 503.431 120 520 120L668 120" stroke="url(#paint3_linear_4723_16588)" stroke-width="3" stroke-linecap="round" stroke-linejoin="round"/>
</g>
<path d="M222.079 94.5071C222.079 89.2713 218.967 88.4751 215.782 88.4751H214.189V100.563H215.782C218.967 100.563 222.079 99.7912 222.079 94.5071ZM210.739 85.7727H215.927C221.476 85.7727 225.65 87.5582 225.65 94.5071C225.65 101.456 221.476 103.266 215.927 103.266H210.739V85.7727ZM235.712 103.266V101.553C234.964 102.88 233.541 103.579 231.924 103.579C228.812 103.579 227.557 101.673 227.557 98.4883V90.2847H230.887V97.7644C230.887 99.5016 231.152 100.901 233.01 100.901C235.23 100.901 235.712 99.0915 235.712 97.0406V90.2847H239.042V103.266H235.712ZM247.699 89.9951C250.425 89.9951 253.127 91.5152 253.586 94.7243H250.401C250.136 93.4696 248.977 92.5769 247.699 92.5769C245.961 92.5769 244.586 94.0487 244.586 96.751C244.586 99.4775 245.889 100.998 247.723 100.998C248.881 100.998 250.063 100.394 250.522 98.8502H253.707C252.934 102.397 250.256 103.579 247.554 103.579C243.669 103.579 241.184 100.732 241.184 96.7993C241.184 92.8423 243.814 89.9951 247.699 89.9951ZM255.695 85.7727H259.025V95.4964L263.754 90.2847H267.494L262.837 95.2551L267.759 103.266H264.019L260.617 97.6438L259.025 99.3569V103.266H255.695V85.7727ZM281.022 97.5231H284.303C283.845 101.07 280.901 103.579 276.727 103.579C271.515 103.579 268.548 100.032 268.548 94.4347C268.548 88.9094 271.733 85.4591 276.824 85.4591C280.925 85.4591 283.724 87.7995 284.303 91.4428H281.022C280.37 89.0059 278.73 88.2097 276.799 88.2097C274.169 88.2097 272.119 90.3812 272.119 94.4347C272.119 98.6089 274.169 100.829 276.679 100.829C278.754 100.829 280.443 99.9118 281.022 97.5231ZM292.42 92.601C290.586 92.601 289.283 94.0728 289.283 96.7993C289.283 99.5258 290.586 100.973 292.42 100.973C294.254 100.973 295.557 99.5258 295.557 96.7993C295.557 94.0728 294.254 92.601 292.42 92.601ZM292.42 103.579C289.139 103.579 285.905 101.335 285.905 96.7993C285.905 92.2391 289.139 89.9951 292.42 89.9951C295.701 89.9951 298.935 92.2391 298.935 96.7993C298.935 101.335 295.701 103.579 292.42 103.579ZM304.383 90.2847V91.9978C305.131 90.6707 306.53 89.9951 308.147 89.9951C311.259 89.9951 312.634 91.8771 312.634 95.0862V103.266H309.305V95.81C309.305 94.1452 308.943 92.6734 307.061 92.6734C304.865 92.6734 304.383 94.4589 304.383 96.5097V103.266H301.053V90.2847H304.383ZM320.748 89.8262H324.126L324.681 85.7727H327.673L327.118 89.8262H330.327L330.882 85.7727H333.874L333.319 89.8262H336.649L336.335 92.408H332.957L332.451 96.0513H335.756L335.491 98.6089H332.089L331.461 103.266H328.469L329.097 98.6089H325.888L325.26 103.266H322.269L322.896 98.6089H319.59L319.904 96.0513H323.258L323.764 92.408H320.483L320.748 89.8262ZM326.756 92.408L326.25 96.0513H329.459L329.965 92.408H326.756ZM344.119 85.4591C347.618 85.4591 349.862 87.0998 349.862 90.164C349.862 93.4213 346.677 96.8717 341.296 100.467H350.272V103.266H337.412V100.563C343.033 96.0513 346.508 93.1077 346.508 90.3329C346.508 88.7887 345.567 87.9201 343.926 87.9201C342.454 87.9201 340.958 88.8129 340.958 91.4187H337.725C337.653 87.8236 340.259 85.4591 344.119 85.4591ZM232.37 127.266V109.773H239.174C242.238 109.773 245.543 110.738 245.543 114.333C245.543 115.974 244.458 117.445 243.565 118.025C244.916 118.676 246.171 119.689 246.171 122.102C246.171 125.866 243.058 127.266 239.463 127.266H232.37ZM235.82 119.593V124.563H239.632C241.659 124.563 242.648 123.719 242.648 122.102C242.648 120.461 241.635 119.593 239.487 119.593H235.82ZM235.82 112.475V116.987H239.391C241.032 116.987 241.997 116.215 241.997 114.671C241.997 113.295 241.007 112.475 239.391 112.475H235.82ZM255.751 114.357V117.494C255.269 117.421 254.858 117.421 254.376 117.421C252.735 117.421 251.649 118.025 251.649 120.461V127.266H248.32V114.285H251.601V116.553C252.349 114.936 253.507 114.309 255.027 114.309C255.245 114.309 255.534 114.333 255.751 114.357ZM265.448 127.266V125.553C264.7 126.88 263.277 127.579 261.66 127.579C258.548 127.579 257.293 125.673 257.293 122.488V114.285H260.623V121.764C260.623 123.502 260.888 124.901 262.746 124.901C264.966 124.901 265.448 123.091 265.448 121.041V114.285H268.778V127.266H265.448ZM282.188 118.193H279.075C278.81 117.108 277.845 116.336 276.301 116.336C275.07 116.336 274.202 116.794 274.202 117.59C274.202 118.29 274.708 118.821 275.939 119.086L277.676 119.472C280.258 120.051 282.453 120.703 282.453 123.381C282.453 125.987 279.775 127.579 276.831 127.579C273.647 127.579 271.234 125.939 270.92 122.971H274.129C274.322 124.225 275.191 125.166 276.928 125.166C278.376 125.166 279.268 124.636 279.268 123.695C279.268 122.73 278.279 122.368 277.145 122.102L275.215 121.692C272.778 121.185 271.161 120.172 271.161 117.807C271.161 115.491 273.671 113.947 276.47 113.947C279.172 113.947 281.729 115.202 282.188 118.193ZM294.959 118.193H291.846C291.581 117.108 290.616 116.336 289.072 116.336C287.841 116.336 286.972 116.794 286.972 117.59C286.972 118.29 287.479 118.821 288.71 119.086L290.447 119.472C293.029 120.051 295.224 120.703 295.224 123.381C295.224 125.987 292.546 127.579 289.602 127.579C286.418 127.579 284.005 125.939 283.691 122.971H286.9C287.093 124.225 287.962 125.166 289.699 125.166C291.147 125.166 292.039 124.636 292.039 123.695C292.039 122.73 291.05 122.368 289.916 122.102L287.986 121.692C285.549 121.185 283.932 120.172 283.932 117.807C283.932 115.491 286.442 113.947 289.241 113.947C291.943 113.947 294.5 115.202 294.959 118.193ZM309.464 121.692H299.885C300.078 123.912 301.574 124.998 303.167 124.998C304.204 124.998 305.218 124.636 305.893 123.502H309.319C308.62 125.432 306.738 127.579 303.191 127.579C299.017 127.579 296.58 124.467 296.58 120.727C296.58 116.866 299.258 113.995 303.094 113.995C307.1 113.995 309.585 117.108 309.464 121.692ZM303.07 116.432C301.816 116.432 300.199 117.204 299.934 119.4H306.086C306.014 117.204 304.47 116.432 303.07 116.432ZM314.939 109.773V127.266H311.609V109.773H314.939ZM328.347 118.193H325.235C324.969 117.108 324.004 116.336 322.46 116.336C321.229 116.336 320.361 116.794 320.361 117.59C320.361 118.29 320.867 118.821 322.098 119.086L323.835 119.472C326.417 120.051 328.613 120.703 328.613 123.381C328.613 125.987 325.934 127.579 322.991 127.579C319.806 127.579 317.393 125.939 317.079 122.971H320.288C320.481 124.225 321.35 125.166 323.087 125.166C324.535 125.166 325.428 124.636 325.428 123.695C325.428 122.73 324.438 122.368 323.304 122.102L321.374 121.692C318.937 121.185 317.321 120.172 317.321 117.807C317.321 115.491 319.83 113.947 322.629 113.947C325.331 113.947 327.889 115.202 328.347 118.193Z" fill="black"/>
<path d="M227.59 138.236C230.383 138.236 232.189 139.706 232.189 142.163C232.189 145.25 229.543 148.253 223.936 152.474H232.651V153.734H222.13V152.432C227.737 148.169 230.803 145.145 230.803 142.31C230.803 140.357 229.312 139.391 227.59 139.391C225.679 139.391 223.936 140.294 223.873 143.213H222.487C222.634 139.958 224.566 138.236 227.59 138.236ZM240.449 154.007C236.417 154.007 234.59 150.962 234.59 146.111C234.59 141.302 236.417 138.236 240.449 138.236C244.439 138.236 246.287 141.302 246.287 146.111C246.287 150.962 244.439 154.007 240.449 154.007ZM240.449 152.852C243.179 152.852 244.922 150.71 244.922 146.111C244.922 141.554 243.179 139.391 240.449 139.391C237.698 139.391 235.976 141.554 235.976 146.111C235.976 150.71 237.698 152.852 240.449 152.852ZM253.512 138.236C256.305 138.236 258.111 139.706 258.111 142.163C258.111 145.25 255.465 148.253 249.858 152.474H258.573V153.734H248.052V152.432C253.659 148.169 256.725 145.145 256.725 142.31C256.725 140.357 255.234 139.391 253.512 139.391C251.601 139.391 249.858 140.294 249.795 143.213H248.409C248.556 139.958 250.488 138.236 253.512 138.236ZM265.069 152.852C267.379 152.852 269.059 151.655 269.059 149.534C269.059 147.203 267.295 146.258 264.439 146.258H264.313V145.103H264.439C267.295 145.103 268.66 144.053 268.66 142.205C268.66 140.63 267.421 139.391 265.174 139.391C263.578 139.391 261.751 140.252 261.415 142.604H260.029C260.365 140 262.234 138.236 265.279 138.236C268.198 138.236 270.046 139.706 270.046 142.079C270.046 143.591 269.248 145.04 267.547 145.628C269.164 146.069 270.445 147.161 270.445 149.513C270.445 152.537 267.925 154.007 265.09 154.007C262.045 154.007 260.008 152.033 259.735 149.45H261.121C261.562 151.802 263.263 152.852 265.069 152.852ZM278.137 148.715H272.257V147.245H278.137V148.715ZM286.038 154.007C282.006 154.007 280.179 150.962 280.179 146.111C280.179 141.302 282.006 138.236 286.038 138.236C290.028 138.236 291.876 141.302 291.876 146.111C291.876 150.962 290.028 154.007 286.038 154.007ZM286.038 152.852C288.768 152.852 290.511 150.71 290.511 146.111C290.511 141.554 288.768 139.391 286.038 139.391C283.287 139.391 281.565 141.554 281.565 146.111C281.565 150.71 283.287 152.852 286.038 152.852ZM299.101 138.236C301.894 138.236 303.7 139.706 303.7 142.163C303.7 145.25 301.054 148.253 295.447 152.474H304.162V153.734H293.641V152.432C299.248 148.169 302.314 145.145 302.314 142.31C302.314 140.357 300.823 139.391 299.101 139.391C297.19 139.391 295.447 140.294 295.384 143.213H293.998C294.145 139.958 296.077 138.236 299.101 138.236ZM310.909 148.715H305.029V147.245H310.909V148.715ZM318.809 154.007C314.777 154.007 312.95 150.962 312.95 146.111C312.95 141.302 314.777 138.236 318.809 138.236C322.799 138.236 324.647 141.302 324.647 146.111C324.647 150.962 322.799 154.007 318.809 154.007ZM318.809 152.852C321.539 152.852 323.282 150.71 323.282 146.111C323.282 141.554 321.539 139.391 318.809 139.391C316.058 139.391 314.336 141.554 314.336 146.111C314.336 150.71 316.058 152.852 318.809 152.852ZM331.473 152.852C333.783 152.852 335.463 151.655 335.463 149.534C335.463 147.203 333.699 146.258 330.843 146.258H330.717V145.103H330.843C333.699 145.103 335.064 144.053 335.064 142.205C335.064 140.63 333.825 139.391 331.578 139.391C329.982 139.391 328.155 140.252 327.819 142.604H326.433C326.769 140 328.638 138.236 331.683 138.236C334.602 138.236 336.45 139.706 336.45 142.079C336.45 143.591 335.652 145.04 333.951 145.628C335.568 146.069 336.849 147.161 336.849 149.513C336.849 152.537 334.329 154.007 331.494 154.007C328.449 154.007 326.412 152.033 326.139 149.45H327.525C327.966 151.802 329.667 152.852 331.473 152.852Z" fill="black"/>
</g>
<defs>
<linearGradient id="paint0_linear_4723_16588" x1="363.767" y1="-79.3806" x2="363.767" y2="147.13" gradientUnits="userSpaceOnUse">
<stop stop-color="#EDDD0C"/>
<stop offset="1" stop-color="#F3E71B"/>
</linearGradient>
<linearGradient id="paint1_linear_4723_16588" x1="298.167" y1="213.947" x2="298.167" y2="68.9198" gradientUnits="userSpaceOnUse">
<stop stop-color="#EDDD0C"/>
<stop offset="1" stop-color="#F3E71B"/>
</linearGradient>
<linearGradient id="paint2_linear_4723_16588" x1="244.999" y1="240" x2="158.601" y2="27.5431" gradientUnits="userSpaceOnUse">
<stop stop-color="#EDDD0C"/>
<stop offset="0.395" stop-color="#CCBD00"/>
<stop offset="1" stop-color="#EDDD0C"/>
</linearGradient>
<linearGradient id="paint3_linear_4723_16588" x1="567" y1="109.5" x2="526.651" y2="14.4836" gradientUnits="userSpaceOnUse">
<stop stop-color="#EDDD0C"/>
<stop offset="0.395" stop-color="#CCBD00"/>
<stop offset="1" stop-color="#EDDD0C"/>
</linearGradient>
<clipPath id="clip0_4723_16588">
<rect width="560" height="240" fill="white"/>
</clipPath>
<clipPath id="clip1_4723_16588">
<rect width="560" height="240" fill="white"/>
</clipPath>
</defs>
</svg>
