<svg width="1200" height="515" viewBox="0 0 1200 515" fill="none" xmlns="http://www.w3.org/2000/svg">
<g clip-path="url(#clip0_12437_25619)">
<g clip-path="url(#clip1_12437_25619)">
<rect width="1200" height="515" fill="url(#paint0_linear_12437_25619)"/>
<path d="M534.999 -473.862L619.612 -473.862C655.51 -473.862 684.612 -444.761 684.612 -408.862L684.612 -199C684.612 -163.102 713.713 -134 749.612 -134L816 -134C851.899 -134 881 -104.899 881 -69L881 108.5C881 144.398 910.102 173.5 946 173.5L1208 173.5" stroke="#F0DF09" stroke-width="2.9926"/>
<path d="M603 749.902L782.688 749.902C818.586 749.902 847.688 720.801 847.688 684.902L847.688 496.402C847.688 460.504 876.789 431.402 912.688 431.402L985 431.402C1020.9 431.402 1050 402.301 1050 366.402L1050 -148.098" stroke="#F0DF09" stroke-width="2.9926"/>
<path d="M372 631.403L372 512.5C372 476.602 342.898 447.5 307 447.5L166 447.501C130.102 447.501 101 418.399 101 382.501L101 149.965C101 114.066 130.102 84.9648 166 84.9648L483.244 84.9649C519.142 84.9649 548.244 55.8634 548.244 19.9649L548.244 -373.097C548.244 -408.996 577.345 -438.097 613.244 -438.097L793 -438.097" stroke="#F0DF09" stroke-width="2.9926"/>
<rect x="92.9619" y="245.866" width="16.0762" height="38.0762" rx="8.0381" fill="#D4C50B" stroke="#F0DF09" stroke-width="1.92382"/>
<path d="M648.645 108.28C646.666 108.28 645.089 107.757 643.913 106.712C642.737 105.667 642.149 104.229 642.149 102.4H644.669C644.669 103.539 645.033 104.435 645.761 105.088C646.489 105.723 647.45 106.04 648.645 106.04C649.802 106.04 650.726 105.704 651.417 105.032C652.107 104.36 652.453 103.483 652.453 102.4C652.453 101.579 652.229 100.869 651.781 100.272C651.351 99.656 650.726 99.236 649.905 99.012L646.797 98.144C645.509 97.7707 644.491 97.108 643.745 96.156C643.017 95.1853 642.653 94.0467 642.653 92.74C642.653 91.6573 642.895 90.7053 643.381 89.884C643.866 89.0627 644.547 88.428 645.425 87.98C646.302 87.5133 647.31 87.28 648.449 87.28C649.606 87.28 650.623 87.5133 651.501 87.98C652.397 88.428 653.097 89.0627 653.601 89.884C654.105 90.6867 654.357 91.62 654.357 92.684H651.837C651.837 91.7507 651.519 90.9947 650.885 90.416C650.25 89.8187 649.438 89.52 648.449 89.52C647.459 89.52 646.657 89.8187 646.041 90.416C645.425 90.9947 645.117 91.7507 645.117 92.684C645.117 93.4307 645.313 94.0747 645.705 94.616C646.115 95.1387 646.685 95.5027 647.413 95.708L650.605 96.604C651.967 96.9773 653.022 97.6867 653.769 98.732C654.534 99.7587 654.917 100.981 654.917 102.4C654.917 104.192 654.347 105.62 653.209 106.684C652.07 107.748 650.549 108.28 648.645 108.28ZM659.722 108V87.56H671.482V89.856H662.214V96.184H670.502V98.424H662.214V105.704H671.482V108H659.722ZM677.351 108V87.56H679.871V105.704H689.111V108H677.351ZM693.3 108V87.56H705.06V89.856H695.792V96.184H704.08V98.424H695.792V105.704H705.06V108H693.3ZM715.913 108.28C714.046 108.28 712.572 107.757 711.489 106.712C710.406 105.667 709.865 104.229 709.865 102.4V93.16C709.865 91.3307 710.406 89.8933 711.489 88.848C712.572 87.8027 714.046 87.28 715.913 87.28C717.742 87.28 719.198 87.812 720.281 88.876C721.364 89.9213 721.905 91.3493 721.905 93.16H719.385C719.385 92.0027 719.077 91.116 718.461 90.5C717.864 89.8653 717.014 89.548 715.913 89.548C714.812 89.548 713.944 89.8653 713.309 90.5C712.693 91.116 712.385 92.0027 712.385 93.16V102.4C712.385 103.557 712.693 104.453 713.309 105.088C713.944 105.704 714.812 106.012 715.913 106.012C717.014 106.012 717.864 105.704 718.461 105.088C719.077 104.453 719.385 103.557 719.385 102.4H721.905C721.905 104.211 721.364 105.648 720.281 106.712C719.198 107.757 717.742 108.28 715.913 108.28ZM731.218 108V89.856H725.618V87.56H739.338V89.856H733.738V108H731.218Z" fill="#F3E223"/>
<path d="M287.58 325.36C284.911 324.763 282.839 323.512 281.364 321.608C279.908 319.704 279.18 317.315 279.18 314.44V309.4C279.18 306.525 279.908 304.136 281.364 302.232C282.839 300.328 284.911 299.077 287.58 298.48V300.916C286.385 301.196 285.34 301.728 284.444 302.512C283.567 303.296 282.885 304.276 282.4 305.452C281.933 306.609 281.7 307.925 281.7 309.4V314.44C281.7 315.896 281.933 317.212 282.4 318.388C282.885 319.564 283.567 320.544 284.444 321.328C285.34 322.112 286.385 322.644 287.58 322.924V325.36ZM294.009 325.36V322.924C295.222 322.644 296.268 322.112 297.145 321.328C298.022 320.544 298.694 319.564 299.161 318.388C299.646 317.212 299.889 315.896 299.889 314.44V309.4C299.889 307.925 299.646 306.609 299.161 305.452C298.694 304.276 298.022 303.296 297.145 302.512C296.268 301.728 295.222 301.196 294.009 300.916V298.48C296.678 299.077 298.741 300.328 300.197 302.232C301.672 304.136 302.409 306.525 302.409 309.4V314.44C302.409 317.315 301.672 319.704 300.197 321.608C298.741 323.512 296.678 324.763 294.009 325.36ZM315.698 310.52C315.082 310.52 314.578 310.324 314.186 309.932C313.794 309.54 313.598 309.036 313.598 308.42C313.598 307.823 313.794 307.328 314.186 306.936C314.597 306.525 315.101 306.32 315.698 306.32H316.258C316.855 306.32 317.35 306.525 317.742 306.936C318.153 307.328 318.358 307.823 318.358 308.42C318.358 309.036 318.162 309.54 317.77 309.932C317.378 310.324 316.874 310.52 316.258 310.52H315.698ZM313.318 326.48L314.858 317.912H317.882L315.922 326.48H313.318Z" fill="#F3E223"/>
<path d="M1115.4 127.28C1114.71 127.28 1114.15 127.075 1113.72 126.664C1113.31 126.253 1113.1 125.721 1113.1 125.068C1113.1 124.377 1113.31 123.817 1113.72 123.388C1114.15 122.959 1114.71 122.744 1115.4 122.744C1116.09 122.744 1116.64 122.959 1117.05 123.388C1117.48 123.817 1117.7 124.377 1117.7 125.068C1117.7 125.721 1117.48 126.253 1117.05 126.664C1116.64 127.075 1116.09 127.28 1115.4 127.28ZM1128.75 124.116L1126.81 122.744L1128.63 120.14C1128.88 119.804 1129.2 119.393 1129.61 118.908C1130.04 118.423 1130.44 117.993 1130.82 117.62C1130.29 117.545 1129.74 117.433 1129.17 117.284C1128.59 117.135 1128.13 116.995 1127.79 116.864L1124.8 115.744L1125.58 113.532L1128.61 114.652C1128.92 114.764 1129.34 114.941 1129.87 115.184C1130.39 115.427 1130.86 115.679 1131.29 115.94C1131.2 115.455 1131.13 114.96 1131.07 114.456C1131.03 113.933 1131.01 113.495 1131.01 113.14V109.64H1133.37V113.14C1133.37 113.495 1133.34 113.933 1133.28 114.456C1133.23 114.96 1133.15 115.455 1133.06 115.94C1133.51 115.679 1133.98 115.427 1134.49 115.184C1135.01 114.941 1135.44 114.764 1135.77 114.652L1138.8 113.532L1139.58 115.744L1136.59 116.864C1136.25 116.995 1135.79 117.135 1135.21 117.284C1134.63 117.433 1134.08 117.545 1133.56 117.62C1133.93 117.993 1134.34 118.432 1134.77 118.936C1135.19 119.421 1135.52 119.823 1135.75 120.14L1137.57 122.744L1135.63 124.116L1133.81 121.484C1133.59 121.167 1133.32 120.728 1133 120.168C1132.68 119.608 1132.41 119.085 1132.19 118.6C1131.97 119.085 1131.69 119.608 1131.38 120.168C1131.06 120.709 1130.79 121.148 1130.57 121.484L1128.75 124.116Z" fill="#F3E223"/>
<path d="M548.493 881.278C548.493 882.104 549.163 882.774 549.989 882.774C550.815 882.774 551.485 882.104 551.485 881.278L549.989 881.278L548.493 881.278ZM551.046 392.72C550.462 392.135 549.515 392.135 548.93 392.72L539.408 402.242C538.823 402.827 538.823 403.774 539.408 404.358C539.992 404.943 540.94 404.943 541.524 404.358L549.988 395.894L558.453 404.358C559.037 404.943 559.984 404.943 560.569 404.358C561.153 403.774 561.153 402.827 560.569 402.242L551.046 392.72ZM549.989 881.278L551.485 881.278L551.485 393.778L549.988 393.778L548.492 393.778L548.493 881.278L549.989 881.278Z" fill="#F0DF09"/>
</g>
<path d="M410.929 326.477C372.278 326.477 341.064 295.264 341.064 256.613C341.064 217.962 372.278 186.749 410.929 186.749C449.579 186.749 480.793 217.962 480.793 256.613C480.793 295.264 449.579 326.477 410.929 326.477Z" fill="black"/>
<path d="M448.285 246.248H434.58V266.931H448.285C453.968 266.931 458.69 262.21 458.69 256.527C458.69 250.803 453.968 246.248 448.285 246.248Z" fill="#FFF100"/>
<path d="M367.428 256.614C367.428 272.576 380.423 285.571 396.385 285.571C412.346 285.571 425.341 272.576 425.341 256.614C425.341 240.652 412.346 227.657 396.385 227.657C380.423 227.657 367.428 240.652 367.428 256.614Z" fill="#FFF100"/>
<path d="M516.621 274.113V239.098H526.023C528.293 239.098 530.26 239.545 531.923 240.441C533.618 241.304 534.929 242.535 535.856 244.134C536.783 245.701 537.247 247.556 537.247 249.698V263.465C537.247 265.607 536.783 267.478 535.856 269.077C534.929 270.676 533.618 271.923 531.923 272.818C530.26 273.682 528.293 274.113 526.023 274.113H516.621ZM521.37 269.892H526.023C528.037 269.892 529.62 269.317 530.772 268.165C531.923 267.014 532.498 265.447 532.498 263.465V249.698C532.498 247.716 531.923 246.165 530.772 245.046C529.62 243.894 528.037 243.319 526.023 243.319H521.37V269.892ZM555.504 274.593C552.402 274.593 549.923 273.682 548.069 271.859C546.214 270.036 545.287 267.558 545.287 264.424V247.732H550.035V264.424C550.035 266.279 550.515 267.75 551.474 268.837C552.466 269.892 553.809 270.42 555.504 270.42C557.23 270.42 558.589 269.892 559.581 268.837C560.572 267.75 561.068 266.279 561.068 264.424V247.732H565.816V264.424C565.816 267.558 564.873 270.036 562.986 271.859C561.132 273.682 558.637 274.593 555.504 274.593ZM584.696 274.593C581.467 274.593 578.876 273.698 576.926 271.907C574.975 270.084 574 267.59 574 264.424V257.373C574 254.239 574.975 251.777 576.926 249.986C578.876 248.163 581.467 247.252 584.696 247.252C587.798 247.252 590.292 248.083 592.179 249.746C594.098 251.377 595.105 253.616 595.201 256.462H590.5C590.404 254.863 589.829 253.632 588.774 252.768C587.75 251.873 586.391 251.425 584.696 251.425C582.874 251.425 581.419 251.953 580.331 253.008C579.276 254.031 578.749 255.486 578.749 257.373V264.424C578.749 266.343 579.276 267.814 580.331 268.837C581.419 269.86 582.874 270.372 584.696 270.372C586.423 270.372 587.798 269.94 588.822 269.077C589.845 268.213 590.404 266.982 590.5 265.383H595.201C595.105 268.229 594.098 270.484 592.179 272.147C590.292 273.778 587.798 274.593 584.696 274.593ZM603.145 274.113V239.098H607.893V258.476H612.738L619.837 247.732H625.209L616.911 260.347L625.641 274.113H620.173L612.786 262.553H607.893V274.113H603.145ZM631.666 274.113V239.098H641.068C643.338 239.098 645.305 239.545 646.967 240.441C648.662 241.304 649.973 242.535 650.901 244.134C651.828 245.701 652.292 247.556 652.292 249.698V263.465C652.292 265.607 651.828 267.478 650.901 269.077C649.973 270.676 648.662 271.923 646.967 272.818C645.305 273.682 643.338 274.113 641.068 274.113H631.666ZM636.415 269.892H641.068C643.082 269.892 644.665 269.317 645.816 268.165C646.967 267.014 647.543 265.447 647.543 263.465V249.698C647.543 247.716 646.967 246.165 645.816 245.046C644.665 243.894 643.082 243.319 641.068 243.319H636.415V269.892ZM660.475 274.113V239.098H670.596C673.826 239.098 676.368 239.913 678.223 241.544C680.11 243.143 681.053 245.349 681.053 248.163C681.053 249.986 680.477 251.617 679.326 253.056C678.207 254.463 676.752 255.326 674.961 255.646V255.79C676.304 255.95 677.487 256.43 678.511 257.229C679.566 258.029 680.381 259.052 680.957 260.299C681.565 261.514 681.868 262.857 681.868 264.328C681.868 267.334 680.909 269.716 678.99 271.475C677.104 273.234 674.529 274.113 671.268 274.113H660.475ZM665.128 253.871H670.548C672.339 253.871 673.746 253.408 674.769 252.48C675.793 251.521 676.304 250.226 676.304 248.595C676.304 246.932 675.793 245.637 674.769 244.71C673.746 243.75 672.355 243.271 670.596 243.271H665.128V253.871ZM665.128 269.94H670.836C672.787 269.94 674.322 269.429 675.441 268.405C676.56 267.35 677.12 265.927 677.12 264.136C677.12 262.282 676.56 260.779 675.441 259.627C674.322 258.476 672.787 257.901 670.836 257.901H665.128V269.94ZM717.998 274.113V269.796H727.351V243.367L717.95 250.37V244.998L725.912 239.098H732.1V269.796H739.774V274.113H717.998ZM756.88 274.593C755.665 274.593 754.673 274.225 753.906 273.49C753.17 272.754 752.803 271.811 752.803 270.66C752.803 269.445 753.17 268.453 753.906 267.686C754.673 266.918 755.665 266.535 756.88 266.535C758.095 266.535 759.07 266.918 759.806 267.686C760.573 268.453 760.957 269.445 760.957 270.66C760.957 271.811 760.573 272.754 759.806 273.49C759.07 274.225 758.095 274.593 756.88 274.593ZM785.401 274.593C782.107 274.593 779.501 273.698 777.582 271.907C775.664 270.084 774.704 267.622 774.704 264.52H779.453C779.453 266.343 779.981 267.782 781.036 268.837C782.123 269.86 783.578 270.372 785.401 270.372C787.256 270.372 788.711 269.844 789.766 268.789C790.853 267.734 791.397 266.295 791.397 264.472V262.266C791.397 260.443 790.869 259.004 789.814 257.949C788.791 256.893 787.384 256.366 785.593 256.366H775.904V239.098H794.898V243.415H780.317L780.412 252.097H785.833C789.094 252.097 791.621 252.992 793.411 254.783C795.234 256.542 796.146 259.036 796.146 262.266V264.472C796.146 267.606 795.17 270.084 793.22 271.907C791.301 273.698 788.695 274.593 785.401 274.593ZM814.402 274.593C813.187 274.593 812.196 274.225 811.428 273.49C810.693 272.754 810.325 271.811 810.325 270.66C810.325 269.445 810.693 268.453 811.428 267.686C812.196 266.918 813.187 266.535 814.402 266.535C815.617 266.535 816.592 266.918 817.328 267.686C818.095 268.453 818.479 269.445 818.479 270.66C818.479 271.811 818.095 272.754 817.328 273.49C816.592 274.225 815.617 274.593 814.402 274.593ZM833.042 274.113V269.796H842.396V243.367L832.994 250.37V244.998L840.957 239.098H847.144V269.796H854.819V274.113H833.042Z" fill="black"/>
</g>
<defs>
<linearGradient id="paint0_linear_12437_25619" x1="589" y1="-26.5" x2="587" y2="627" gradientUnits="userSpaceOnUse">
<stop stop-color="#FDEF00"/>
<stop offset="0.938633" stop-color="#FFFAA3"/>
</linearGradient>
<clipPath id="clip0_12437_25619">
<rect width="1200" height="514.29" fill="white"/>
</clipPath>
<clipPath id="clip1_12437_25619">
<rect width="1200" height="515" fill="white"/>
</clipPath>
</defs>
</svg>
