<svg width="560" height="240" viewBox="0 0 560 240" fill="none" xmlns="http://www.w3.org/2000/svg">
<g clip-path="url(#clip0_5398_1048)">
<rect width="560" height="240" fill="#FFF100"/>
<g clip-path="url(#clip1_5398_1048)">
<rect width="560" height="240" fill="#FFF100"/>
<path d="M224 49.847L224 -0.999985C224 -12.0457 215.046 -21 204 -21L-26 -21C-37.0457 -21 -46 -12.0457 -46 -1.00001L-46 175C-46 186.046 -37.0457 195 -26 195L52.5714 195C63.6171 195 72.5714 186.046 72.5714 175L72.5714 89.8471C72.5714 78.8014 81.5257 69.8471 92.5714 69.8471L204 69.8471C215.046 69.8471 224 60.8927 224 49.847Z" fill="#EDDE00"/>
<path d="M472.584 123.352L505.5 123.352C516.546 123.352 525.5 114.397 525.5 103.352L525.5 66.9999C525.5 55.9542 516.546 46.9999 505.5 46.9999L454.5 46.9999C443.454 46.9999 434.5 38.0456 434.5 26.9999L434.5 -34.0001C434.5 -45.0458 443.454 -54.0001 454.5 -54.0001L583 -54.0001C594.046 -54.0001 603 -45.0457 603 -34.0001L603 241.5C603 252.546 594.046 261.5 583 261.5L335 261.5C323.954 261.5 315 252.546 315 241.5L315 206.5C315 195.454 323.954 186.5 335 186.5L432.584 186.5C443.629 186.5 452.584 177.546 452.584 166.5L452.584 143.352C452.584 132.306 461.538 123.352 472.584 123.352Z" fill="#EDDE00"/>
</g>
<path d="M173 98C173 92.4772 177.477 88 183 88H227C232.523 88 237 92.4772 237 98V142C237 147.523 232.523 152 227 152H183C177.477 152 173 147.523 173 142V98Z" fill="black"/>
<path d="M200.986 104.389C204.062 104.389 207.011 105.611 209.186 107.786C211.361 109.961 212.583 112.91 212.583 115.986C212.583 118.858 211.53 121.499 209.799 123.532L210.281 124.014H211.69L220.611 132.934L217.935 135.611L209.014 126.69V125.281L208.533 124.799C206.428 126.595 203.753 127.581 200.986 127.582C197.911 127.582 194.961 126.361 192.786 124.186C190.611 122.011 189.39 119.061 189.39 115.986C189.39 112.91 190.611 109.961 192.786 107.786C194.961 105.611 197.911 104.389 200.986 104.389ZM200.986 107.958C196.526 107.958 192.958 111.526 192.958 115.986C192.958 120.446 196.526 124.014 200.986 124.014C205.446 124.014 209.014 120.446 209.014 115.986C209.014 111.526 205.446 107.958 200.986 107.958Z" fill="#FFF100"/>
<path d="M264.024 128.5V111.71H268.532C269.621 111.71 270.564 111.925 271.361 112.354C272.174 112.768 272.802 113.358 273.247 114.125C273.692 114.876 273.914 115.766 273.914 116.793V123.394C273.914 124.421 273.692 125.318 273.247 126.085C272.802 126.852 272.174 127.45 271.361 127.879C270.564 128.293 269.621 128.5 268.532 128.5H264.024ZM266.301 126.476H268.532C269.498 126.476 270.257 126.2 270.809 125.648C271.361 125.096 271.637 124.345 271.637 123.394V116.793C271.637 115.842 271.361 115.099 270.809 114.562C270.257 114.01 269.498 113.734 268.532 113.734H266.301V126.476ZM282.668 128.73C281.181 128.73 279.992 128.293 279.103 127.419C278.214 126.545 277.769 125.357 277.769 123.854V115.85H280.046V123.854C280.046 124.743 280.276 125.449 280.736 125.97C281.211 126.476 281.855 126.729 282.668 126.729C283.496 126.729 284.148 126.476 284.623 125.97C285.098 125.449 285.336 124.743 285.336 123.854V115.85H287.613V123.854C287.613 125.357 287.161 126.545 286.256 127.419C285.367 128.293 284.171 128.73 282.668 128.73ZM296.666 128.73C295.117 128.73 293.875 128.301 292.94 127.442C292.005 126.568 291.537 125.372 291.537 123.854V120.473C291.537 118.97 292.005 117.79 292.94 116.931C293.875 116.057 295.117 115.62 296.666 115.62C298.153 115.62 299.349 116.019 300.254 116.816C301.174 117.598 301.657 118.671 301.703 120.036H299.449C299.403 119.269 299.127 118.679 298.621 118.265C298.13 117.836 297.479 117.621 296.666 117.621C295.792 117.621 295.094 117.874 294.573 118.38C294.067 118.871 293.814 119.568 293.814 120.473V123.854C293.814 124.774 294.067 125.479 294.573 125.97C295.094 126.461 295.792 126.706 296.666 126.706C297.494 126.706 298.153 126.499 298.644 126.085C299.135 125.671 299.403 125.081 299.449 124.314H301.703C301.657 125.679 301.174 126.76 300.254 127.557C299.349 128.339 298.153 128.73 296.666 128.73ZM305.512 128.5V111.71H307.789V121.002H310.112L313.516 115.85H316.092L312.113 121.899L316.299 128.5H313.677L310.135 122.957H307.789V128.5H305.512ZM319.188 128.5V111.71H323.696C324.785 111.71 325.728 111.925 326.525 112.354C327.338 112.768 327.966 113.358 328.411 114.125C328.856 114.876 329.078 115.766 329.078 116.793V123.394C329.078 124.421 328.856 125.318 328.411 126.085C327.966 126.852 327.338 127.45 326.525 127.879C325.728 128.293 324.785 128.5 323.696 128.5H319.188ZM321.465 126.476H323.696C324.662 126.476 325.421 126.2 325.973 125.648C326.525 125.096 326.801 124.345 326.801 123.394V116.793C326.801 115.842 326.525 115.099 325.973 114.562C325.421 114.01 324.662 113.734 323.696 113.734H321.465V126.476ZM333.002 128.5V111.71H337.855C339.404 111.71 340.623 112.101 341.512 112.883C342.417 113.65 342.869 114.708 342.869 116.057C342.869 116.931 342.593 117.713 342.041 118.403C341.504 119.078 340.807 119.492 339.948 119.645V119.714C340.592 119.791 341.159 120.021 341.65 120.404C342.156 120.787 342.547 121.278 342.823 121.876C343.114 122.459 343.26 123.103 343.26 123.808C343.26 125.249 342.8 126.392 341.88 127.235C340.975 128.078 339.741 128.5 338.177 128.5H333.002ZM335.233 118.794H337.832C338.691 118.794 339.365 118.572 339.856 118.127C340.347 117.667 340.592 117.046 340.592 116.264C340.592 115.467 340.347 114.846 339.856 114.401C339.365 113.941 338.698 113.711 337.855 113.711H335.233V118.794ZM335.233 126.499H337.97C338.905 126.499 339.641 126.254 340.178 125.763C340.715 125.257 340.983 124.575 340.983 123.716C340.983 122.827 340.715 122.106 340.178 121.554C339.641 121.002 338.905 120.726 337.97 120.726H335.233V126.499ZM365.437 128.73C363.858 128.73 362.639 128.293 361.78 127.419C360.937 126.545 360.515 125.357 360.515 123.854V111.71H362.792V123.854C362.792 124.743 363.007 125.441 363.436 125.947C363.881 126.453 364.548 126.706 365.437 126.706C366.311 126.706 366.97 126.453 367.415 125.947C367.875 125.441 368.105 124.743 368.105 123.854V111.71H370.382V123.854C370.382 125.372 369.953 126.568 369.094 127.442C368.251 128.301 367.032 128.73 365.437 128.73ZM374.651 128.5V126.43H378.078V113.78H374.651V111.71H383.805V113.78H380.378V126.43H383.805V128.5H374.651Z" fill="black"/>
</g>
<defs>
<clipPath id="clip0_5398_1048">
<rect width="560" height="240" fill="white"/>
</clipPath>
<clipPath id="clip1_5398_1048">
<rect width="560" height="240" fill="white"/>
</clipPath>
</defs>
</svg>
