<svg width="560" height="240" viewBox="0 0 560 240" fill="none" xmlns="http://www.w3.org/2000/svg">
<g clip-path="url(#clip0_4723_16506)">
<rect width="560" height="240" fill="#FFF100"/>
<g clip-path="url(#clip1_4723_16506)">
<rect width="560" height="240" fill="#FFF100"/>
<path d="M277.817 196.5L394.5 196.5C405.546 196.5 414.5 187.546 414.5 176.5L414.5 114C414.5 102.954 423.454 94 434.5 94L583.619 94C594.665 94 603.619 102.954 603.619 114L603.619 248.954C603.619 260 594.665 268.954 583.619 268.954L277.818 268.954C266.772 268.954 257.818 260 257.818 248.954L257.817 216.5C257.817 205.455 266.772 196.5 277.817 196.5Z" fill="url(#paint0_linear_4723_16506)"/>
<path d="M118.501 169.674L118.5 77C118.5 65.9543 127.455 56.9999 138.5 56.9999L362.317 57C373.363 57 382.317 48.0457 382.317 37L382.317 -33.8271C382.317 -44.8728 373.363 -53.8271 362.317 -53.8271L14.0917 -53.8271C3.04604 -53.8271 -5.90827 -44.8728 -5.90828 -33.8271L-5.90829 169.675C-5.90829 180.72 3.04602 189.675 14.0917 189.675L98.5006 189.675C109.546 189.675 118.501 180.72 118.501 169.674Z" fill="url(#paint1_linear_4723_16506)"/>
<path d="M226 -51L226 5.00001C226 21.5685 212.569 35 196 35L-106 35" stroke="url(#paint2_linear_4723_16506)" stroke-width="3" stroke-linecap="round" stroke-linejoin="round"/>
<path d="M433 271L433 178C433 161.431 446.431 148 463 148L621 148" stroke="url(#paint3_linear_4723_16506)" stroke-width="3" stroke-linecap="round" stroke-linejoin="round"/>
</g>
<path d="M221.549 94.5071C221.549 89.2713 218.437 88.4751 215.252 88.4751H213.659V100.563H215.252C218.437 100.563 221.549 99.7912 221.549 94.5071ZM210.209 85.7727H215.396C220.946 85.7727 225.12 87.5582 225.12 94.5071C225.12 101.456 220.946 103.266 215.396 103.266H210.209V85.7727ZM235.182 103.266V101.553C234.434 102.88 233.011 103.579 231.394 103.579C228.282 103.579 227.027 101.673 227.027 98.4883V90.2847H230.357V97.7644C230.357 99.5016 230.622 100.901 232.48 100.901C234.7 100.901 235.182 99.0915 235.182 97.0406V90.2847H238.512V103.266H235.182ZM247.168 89.9951C249.895 89.9951 252.597 91.5152 253.056 94.7243H249.871C249.605 93.4696 248.447 92.5769 247.168 92.5769C245.431 92.5769 244.056 94.0487 244.056 96.751C244.056 99.4775 245.359 100.998 247.193 100.998C248.351 100.998 249.533 100.394 249.991 98.8502H253.176C252.404 102.397 249.726 103.579 247.024 103.579C243.139 103.579 240.654 100.732 240.654 96.7993C240.654 92.8423 243.284 89.9951 247.168 89.9951ZM255.165 85.7727H258.494V95.4964L263.223 90.2847H266.963L262.307 95.2551L267.229 103.266H263.489L260.087 97.6438L258.494 99.3569V103.266H255.165V85.7727ZM280.492 97.5231H283.773C283.315 101.07 280.371 103.579 276.197 103.579C270.985 103.579 268.017 100.032 268.017 94.4347C268.017 88.9094 271.202 85.4591 276.293 85.4591C280.395 85.4591 283.194 87.7995 283.773 91.4428H280.492C279.84 89.0059 278.2 88.2097 276.269 88.2097C273.639 88.2097 271.588 90.3812 271.588 94.4347C271.588 98.6089 273.639 100.829 276.149 100.829C278.224 100.829 279.913 99.9118 280.492 97.5231ZM291.89 92.601C290.056 92.601 288.753 94.0728 288.753 96.7993C288.753 99.5258 290.056 100.973 291.89 100.973C293.724 100.973 295.026 99.5258 295.026 96.7993C295.026 94.0728 293.724 92.601 291.89 92.601ZM291.89 103.579C288.608 103.579 285.375 101.335 285.375 96.7993C285.375 92.2391 288.608 89.9951 291.89 89.9951C295.171 89.9951 298.404 92.2391 298.404 96.7993C298.404 101.335 295.171 103.579 291.89 103.579ZM303.852 90.2847V91.9978C304.6 90.6707 306 89.9951 307.616 89.9951C310.729 89.9951 312.104 91.8771 312.104 95.0862V103.266H308.775V95.81C308.775 94.1452 308.413 92.6734 306.531 92.6734C304.335 92.6734 303.852 94.4589 303.852 96.5097V103.266H300.523V90.2847H303.852ZM320.218 89.8262H323.596L324.151 85.7727H327.143L326.588 89.8262H329.797L330.352 85.7727H333.344L332.789 89.8262H336.119L335.805 92.408H332.427L331.92 96.0513H335.226L334.961 98.6089H331.559L330.931 103.266H327.939L328.567 98.6089H325.358L324.73 103.266H321.738L322.366 98.6089H319.06L319.374 96.0513H322.728L323.234 92.408H319.953L320.218 89.8262ZM326.226 92.408L325.72 96.0513H328.929L329.435 92.408H326.226ZM343.854 101.07C345.688 101.07 347.015 99.7429 347.015 97.5231C347.015 95.1103 345.399 93.9522 343.782 93.9522C342.238 93.9522 341.152 94.7001 340.79 95.5446L337.75 95.3998L338.908 85.7727H349.694V88.5716H341.635L341.152 92.3114C341.9 91.7565 342.986 91.3463 344.627 91.3463C347.618 91.3463 350.393 93.4696 350.393 97.499C350.393 101.36 347.401 103.579 343.806 103.579C339.704 103.579 337.533 100.78 337.34 97.7644H340.477C340.67 99.574 341.707 101.07 343.854 101.07ZM223.188 120.003L220.968 119.593C218.145 119.014 215.733 117.566 215.733 114.526C215.733 111.003 219.497 109.459 222.706 109.459C226.325 109.459 229.389 111.582 229.582 114.936H226.252C225.987 112.885 224.201 112.21 222.561 112.21C220.944 112.21 219.183 112.813 219.183 114.381C219.183 115.612 220.196 116.287 221.62 116.553L223.912 116.963C226.759 117.494 229.896 118.579 229.896 122.223C229.896 125.818 226.325 127.579 222.802 127.579C218.507 127.579 215.66 125.263 215.346 121.499H218.676C219.062 124.081 220.848 124.829 222.923 124.829C224.467 124.829 226.421 124.25 226.421 122.392C226.421 120.92 225.046 120.317 223.188 120.003ZM244.608 121.692H235.029C235.222 123.912 236.718 124.998 238.311 124.998C239.348 124.998 240.362 124.636 241.037 123.502H244.463C243.764 125.432 241.882 127.579 238.335 127.579C234.161 127.579 231.724 124.467 231.724 120.727C231.724 116.866 234.402 113.995 238.238 113.995C242.244 113.995 244.729 117.108 244.608 121.692ZM238.214 116.432C236.959 116.432 235.343 117.204 235.077 119.4H241.23C241.158 117.204 239.614 116.432 238.214 116.432ZM254.86 122.295V121.33C251.12 121.716 249.648 122.15 249.648 123.598C249.648 124.539 250.372 125.311 251.892 125.311C253.991 125.311 254.86 124.201 254.86 122.295ZM255.149 125.649C254.208 127 252.857 127.579 250.903 127.579C248.418 127.579 246.222 126.132 246.222 123.767C246.222 120.703 249.648 119.786 254.763 119.207V118.99C254.763 116.987 253.678 116.287 252.326 116.287C251.048 116.287 249.986 116.939 249.914 118.386H246.801C247.066 115.829 249.142 113.947 252.495 113.947C255.56 113.947 258.093 115.298 258.093 119.665C258.093 120.051 258.045 121.813 258.045 122.971C258.045 125.022 258.165 126.18 258.431 127.266H255.367C255.27 126.855 255.222 126.3 255.149 125.649ZM261.325 114.285V110.762H264.655V114.285H267.357V116.577H264.655V123.284C264.655 124.612 265.113 124.877 266.296 124.877H267.309V127.266H264.872C261.88 127.266 261.325 126.349 261.325 123.767V116.577H259.492V114.285H261.325ZM269.949 114.285V110.762H273.279V114.285H275.981V116.577H273.279V123.284C273.279 124.612 273.737 124.877 274.92 124.877H275.933V127.266H273.496C270.504 127.266 269.949 126.349 269.949 123.767V116.577H268.115V114.285H269.949ZM281.444 109.773V127.266H278.115V109.773H281.444ZM296.469 121.692H286.891C287.084 123.912 288.58 124.998 290.172 124.998C291.21 124.998 292.223 124.636 292.898 123.502H296.325C295.625 125.432 293.743 127.579 290.196 127.579C286.022 127.579 283.585 124.467 283.585 120.727C283.585 116.866 286.263 113.995 290.1 113.995C294.105 113.995 296.59 117.108 296.469 121.692ZM290.075 116.432C288.821 116.432 287.204 117.204 286.939 119.4H293.091C293.019 117.204 291.475 116.432 290.075 116.432ZM297.83 127.266V123.646H301.57V127.531L299.592 131.367H297.686L299.471 127.266H297.83ZM321.004 109.773L323.682 122.585L326.071 109.773H329.593L325.709 127.266H321.631L318.977 114.236L316.323 127.266H312.245L308.36 109.773H311.931L314.537 122.512L316.974 109.773H321.004ZM328.739 127.266L335.254 109.773H338.728L345.267 127.266H341.527L340.297 123.719H333.493L332.262 127.266H328.739ZM336.895 113.995L334.482 120.896H339.307L336.895 113.995Z" fill="black"/>
<path d="M230.59 138.236C233.383 138.236 235.189 139.706 235.189 142.163C235.189 145.25 232.543 148.253 226.936 152.474H235.651V153.734H225.13V152.432C230.737 148.169 233.803 145.145 233.803 142.31C233.803 140.357 232.312 139.391 230.59 139.391C228.679 139.391 226.936 140.294 226.873 143.213H225.487C225.634 139.958 227.566 138.236 230.59 138.236ZM243.449 154.007C239.417 154.007 237.59 150.962 237.59 146.111C237.59 141.302 239.417 138.236 243.449 138.236C247.439 138.236 249.287 141.302 249.287 146.111C249.287 150.962 247.439 154.007 243.449 154.007ZM243.449 152.852C246.179 152.852 247.922 150.71 247.922 146.111C247.922 141.554 246.179 139.391 243.449 139.391C240.698 139.391 238.976 141.554 238.976 146.111C238.976 150.71 240.698 152.852 243.449 152.852ZM256.512 138.236C259.305 138.236 261.111 139.706 261.111 142.163C261.111 145.25 258.465 148.253 252.858 152.474H261.573V153.734H251.052V152.432C256.659 148.169 259.725 145.145 259.725 142.31C259.725 140.357 258.234 139.391 256.512 139.391C254.601 139.391 252.858 140.294 252.795 143.213H251.409C251.556 139.958 253.488 138.236 256.512 138.236ZM269.753 140.315L263.117 148.463H269.753V140.315ZM274.016 148.463V149.744H271.055V153.734H269.753V149.744H261.563V148.568L269.774 138.509H271.055V148.463H274.016ZM281.014 148.715H275.134V147.245H281.014V148.715ZM288.915 154.007C284.883 154.007 283.056 150.962 283.056 146.111C283.056 141.302 284.883 138.236 288.915 138.236C292.905 138.236 294.753 141.302 294.753 146.111C294.753 150.962 292.905 154.007 288.915 154.007ZM288.915 152.852C291.645 152.852 293.388 150.71 293.388 146.111C293.388 141.554 291.645 139.391 288.915 139.391C286.164 139.391 284.442 141.554 284.442 146.111C284.442 150.71 286.164 152.852 288.915 152.852ZM302.23 138.236C305.317 138.236 307.228 139.832 307.228 142.037C307.228 143.864 306.283 145.019 304.939 145.586C306.619 146.279 307.69 147.476 307.69 149.513C307.69 152.369 305.359 154.007 302.23 154.007C299.122 154.007 296.791 152.369 296.791 149.513C296.791 147.476 297.841 146.279 299.521 145.586C298.198 145.019 297.253 143.864 297.253 142.037C297.253 139.832 299.143 138.236 302.23 138.236ZM302.23 146.111C299.773 146.111 298.177 147.476 298.177 149.513C298.177 151.55 299.773 152.852 302.23 152.852C304.729 152.852 306.304 151.55 306.304 149.513C306.304 147.476 304.708 146.111 302.23 146.111ZM305.884 142.247C305.884 140.42 304.477 139.391 302.23 139.391C300.025 139.391 298.597 140.42 298.597 142.247C298.597 144.032 300.025 145.103 302.23 145.103C304.477 145.103 305.884 144.032 305.884 142.247ZM315.18 148.715H309.3V147.245H315.18V148.715ZM320.24 153.734H318.938V141.407H315.452V140.525C318.119 140.525 318.791 140.252 319.358 138.383H320.24V153.734ZM328.518 152.852C330.639 152.852 332.445 151.403 332.445 148.757C332.445 145.901 330.408 144.725 328.476 144.725C326.754 144.725 325.326 145.649 324.885 146.678L323.604 146.552L324.591 138.509H333.201V139.769H325.725L325.053 144.977C325.788 144.137 327.3 143.549 328.791 143.549C331.605 143.549 333.831 145.376 333.831 148.736C333.831 152.201 331.29 154.007 328.518 154.007C325.494 154.007 323.457 152.033 323.184 149.45H324.57C325.011 151.802 326.712 152.852 328.518 152.852Z" fill="black"/>
</g>
<defs>
<linearGradient id="paint0_linear_4723_16506" x1="504.81" y1="122.872" x2="504.81" y2="248.514" gradientUnits="userSpaceOnUse">
<stop stop-color="#EDDD0C"/>
<stop offset="1" stop-color="#F3E71B"/>
</linearGradient>
<linearGradient id="paint1_linear_4723_16506" x1="178.049" y1="242.11" x2="178.049" y2="-19.3487" gradientUnits="userSpaceOnUse">
<stop stop-color="#EDDD0C"/>
<stop offset="1" stop-color="#F3E71B"/>
</linearGradient>
<linearGradient id="paint2_linear_4723_16506" x1="41.4985" y1="4.46067" x2="268.556" y2="5.16264" gradientUnits="userSpaceOnUse">
<stop stop-color="#EDDD0C"/>
<stop offset="1" stop-color="#CCBD00"/>
</linearGradient>
<linearGradient id="paint3_linear_4723_16506" x1="538.999" y1="131" x2="540.031" y2="237.967" gradientUnits="userSpaceOnUse">
<stop stop-color="#EDDD0C"/>
<stop offset="0.395" stop-color="#CCBD00"/>
<stop offset="1" stop-color="#EDDD0C"/>
</linearGradient>
<clipPath id="clip0_4723_16506">
<rect width="560" height="240" fill="white"/>
</clipPath>
<clipPath id="clip1_4723_16506">
<rect width="560" height="240" fill="white"/>
</clipPath>
</defs>
</svg>
