<svg width="560" height="240" viewBox="0 0 560 240" fill="none" xmlns="http://www.w3.org/2000/svg">
<g clip-path="url(#clip0_4723_13366)">
<rect width="560" height="240" fill="#FFF100"/>
<g clip-path="url(#clip1_4723_13366)">
<rect width="560" height="240" fill="#FFF100"/>
<path d="M387 170.5L451.783 170.5C462.828 170.5 471.782 161.546 471.782 150.5L471.782 67.5001C471.782 56.4544 480.737 47.5001 491.782 47.5001L692.082 47.5001C703.128 47.5001 712.082 56.4544 712.082 67.5001L712.082 241.913C712.082 252.958 703.128 261.913 692.082 261.913L387 261.913C375.954 261.913 367 252.958 367 241.913L367 190.5C367 179.454 375.954 170.5 387 170.5Z" fill="url(#paint0_linear_4723_13366)"/>
<path d="M141.127 314L141.127 77.9839C141.127 66.9382 150.081 57.9839 161.127 57.9839L199.812 57.9839C210.857 57.9839 219.812 49.0296 219.812 37.9839L219.812 -86.9999C219.812 -98.0456 210.857 -107 199.812 -107L-54.0001 -107C-65.0458 -107 -74.0001 -98.0457 -74.0001 -87L-74.0002 314C-74.0002 325.046 -65.0458 334 -54.0002 334L121.127 334C132.173 334 141.127 325.046 141.127 314Z" fill="url(#paint1_linear_4723_13366)"/>
<rect x="417" y="194" width="546" height="169" rx="20" fill="#FFF100"/>
<rect x="-513" y="-43" width="598" height="204" rx="20" fill="#FFF100"/>
</g>
<path d="M180.038 119.777C180.038 114.862 177.116 114.114 174.126 114.114H172.631V125.463H174.126C177.116 125.463 180.038 124.738 180.038 119.777ZM169.392 111.577H174.262C179.472 111.577 183.391 113.254 183.391 119.777C183.391 126.301 179.472 128 174.262 128H169.392V111.577ZM192.837 128V126.392C192.135 127.638 190.799 128.294 189.281 128.294C186.359 128.294 185.181 126.505 185.181 123.515V115.813H188.307V122.835C188.307 124.466 188.556 125.78 190.3 125.78C192.384 125.78 192.837 124.081 192.837 122.156V115.813H195.963V128H192.837ZM204.09 115.542C206.65 115.542 209.187 116.969 209.617 119.981H206.627C206.378 118.803 205.291 117.965 204.09 117.965C202.459 117.965 201.168 119.347 201.168 121.884C201.168 124.444 202.391 125.871 204.113 125.871C205.2 125.871 206.31 125.304 206.74 123.855H209.73C209.006 127.185 206.491 128.294 203.954 128.294C200.307 128.294 197.974 125.622 197.974 121.929C197.974 118.214 200.443 115.542 204.09 115.542ZM211.597 111.577H214.723V120.706L219.163 115.813H222.674L218.302 120.48L222.923 128H219.412L216.218 122.722L214.723 124.33V128H211.597V111.577ZM234.876 119.777C234.876 114.862 231.954 114.114 228.964 114.114H227.469V125.463H228.964C231.954 125.463 234.876 124.738 234.876 119.777ZM224.23 111.577H229.1C234.31 111.577 238.229 113.254 238.229 119.777C238.229 126.301 234.31 128 229.1 128H224.23V111.577ZM240.511 128V111.577H246.898C249.775 111.577 252.879 112.484 252.879 115.859C252.879 117.399 251.859 118.781 251.021 119.324C252.29 119.936 253.467 120.887 253.467 123.153C253.467 126.686 250.545 128 247.17 128H240.511ZM243.75 120.797V125.463H247.329C249.232 125.463 250.16 124.67 250.16 123.153C250.16 121.612 249.209 120.797 247.193 120.797H243.75ZM243.75 114.114V118.35H247.102C248.643 118.35 249.549 117.625 249.549 116.176C249.549 114.885 248.62 114.114 247.102 114.114H243.75ZM264.637 128V113.202H259.19V111.818H271.578V113.202H266.132V128H264.637ZM277.183 115.925V117.398C277.071 117.376 276.96 117.376 276.848 117.376H276.558C274.08 117.376 273.277 119.161 273.277 121.706V128H271.915V115.992H273.232V118.179C273.768 116.773 275.353 115.903 276.781 115.903H276.96C277.027 115.903 277.116 115.903 277.183 115.925ZM278.869 115.992H280.252V128H278.869V115.992ZM278.869 111.818H280.252V114.028H278.869V111.818ZM288.174 115.791C290.92 115.791 292.75 117.71 293.107 119.853H291.656C291.21 118.045 289.804 117.063 288.04 117.063C285.987 117.063 284.134 118.715 284.134 122.018C284.134 125.433 285.987 127.018 288.063 127.018C290.116 127.018 291.388 125.701 291.745 124.206H293.218C292.75 126.683 290.719 128.29 288.063 128.29C284.67 128.29 282.661 125.723 282.661 122.041C282.661 118.313 284.67 115.791 288.174 115.791ZM295.456 111.818H296.84V121.996L302.331 115.992H304.027L299.585 120.813L304.429 128H302.822L298.692 121.795L296.84 123.804V128H295.456V111.818ZM314.753 119.273H313.302C313.012 117.844 311.695 116.996 309.998 116.996C308.682 116.996 306.941 117.51 306.941 118.96C306.941 120.143 307.856 120.768 309.195 121.014L310.891 121.326C312.855 121.683 315.043 122.353 315.043 124.63C315.043 127.018 312.878 128.29 310.266 128.29C307.789 128.29 305.646 127.063 305.289 124.317H306.74C306.985 126.192 308.548 127.063 310.378 127.063C311.829 127.063 313.637 126.46 313.637 124.853C313.637 123.447 312.297 122.956 310.668 122.643L308.793 122.286C307.074 121.929 305.534 120.969 305.534 119.072C305.534 117.175 307.432 115.769 310.132 115.769C312.721 115.769 314.462 117.376 314.753 119.273Z" fill="black"/>
<path d="M341.5 140.043V100.5C341.5 97.1863 344.186 94.5 347.5 94.5H386.5C389.814 94.5 392.5 97.1863 392.5 100.5V140.043C392.5 143.357 389.814 146.043 386.5 146.043H373.399C372.93 146.043 372.477 146.207 372.117 146.508L358.644 157.759C357.342 158.847 355.362 157.921 355.362 156.224V148.043C355.362 146.938 354.467 146.043 353.362 146.043H347.5C344.186 146.043 341.5 143.357 341.5 140.043Z" fill="black"/>
<path d="M356.1 114.159C355.508 113.567 354.538 113.741 354.359 114.56C353.701 117.578 354.542 120.854 356.884 123.196C359.515 125.827 363.325 126.564 366.623 125.409L372.496 131.282C374.089 132.875 376.672 132.875 378.265 131.282C379.859 129.688 379.859 127.105 378.265 125.512L372.393 119.639C373.548 116.341 372.811 112.531 370.18 109.9C367.838 107.558 364.562 106.717 361.544 107.375C360.725 107.554 360.522 108.552 361.114 109.145C362.408 110.438 363.691 111.74 364.977 113.039C366.138 114.212 366.138 116.105 364.971 117.271L364.204 118.038C363.037 119.205 361.146 119.205 359.979 118.038L356.1 114.159Z" fill="#F6E900"/>
</g>
<defs>
<linearGradient id="paint0_linear_4723_13366" x1="400.322" y1="65.9995" x2="400.322" y2="234.499" gradientUnits="userSpaceOnUse">
<stop stop-color="#EDDD0C"/>
<stop offset="1" stop-color="#F3E71B"/>
</linearGradient>
<linearGradient id="paint1_linear_4723_13366" x1="72.9057" y1="349.513" x2="72.9058" y2="-53.8141" gradientUnits="userSpaceOnUse">
<stop stop-color="#EDDD0C"/>
<stop offset="1" stop-color="#F3E71B"/>
</linearGradient>
<clipPath id="clip0_4723_13366">
<rect width="560" height="240" fill="white"/>
</clipPath>
<clipPath id="clip1_4723_13366">
<rect width="560" height="240" fill="white"/>
</clipPath>
</defs>
</svg>
