<svg width="1920" height="1080" viewBox="0 0 1920 1080" fill="none" xmlns="http://www.w3.org/2000/svg">
<g clip-path="url(#clip0_3979_3)">
<rect width="1920" height="1080" fill="white"/>
<g clip-path="url(#clip1_3979_3)">
<rect width="3240" height="1080" transform="translate(-2280)" fill="black"/>
<path d="M-2342.64 289.44C-2218.09 289.44 -2218.09 352.031 -2093.53 352.031C-1968.98 352.031 -1968.98 289.44 -1844.39 289.44C-1719.79 289.44 -1719.83 352.031 -1595.28 352.031C-1470.73 352.031 -1470.73 289.44 -1346.17 289.44C-1221.62 289.44 -1221.62 352.031 -1097.07 352.031C-972.513 352.031 -972.513 289.44 -847.959 289.44C-723.406 289.44 -723.406 352.031 -598.852 352.031C-474.299 352.031 -474.299 289.44 -349.745 289.44C-225.192 289.44 -225.192 352.031 -100.599 352.031C23.9933 352.031 23.9544 289.44 148.508 289.44C273.061 289.44 273.061 352.031 397.634 352.031C522.207 352.031 522.188 289.44 646.741 289.44C771.295 289.44 771.294 352.031 895.887 352.031C1020.48 352.031 1020.46 289.44 1145.01 289.44C1269.57 289.44 1269.61 352.031 1394.16 352.031V813.24H-2342.64V289.44Z" fill="#121212"/>
<path d="M-2342.64 550.8C-2218.09 550.8 -2218.09 613.391 -2093.53 613.391C-1968.98 613.391 -1968.98 550.8 -1844.39 550.8C-1719.79 550.8 -1719.83 613.391 -1595.28 613.391C-1470.73 613.391 -1470.73 550.8 -1346.17 550.8C-1221.62 550.8 -1221.62 613.391 -1097.07 613.391C-972.513 613.391 -972.513 550.8 -847.959 550.8C-723.406 550.8 -723.406 613.391 -598.852 613.391C-474.299 613.391 -474.299 550.8 -349.745 550.8C-225.192 550.8 -225.192 613.391 -100.599 613.391C23.9933 613.391 23.9544 550.8 148.508 550.8C273.061 550.8 273.061 613.391 397.634 613.391C522.207 613.391 522.188 550.8 646.741 550.8C771.295 550.8 771.294 613.391 895.887 613.391C1020.48 613.391 1020.46 550.8 1145.01 550.8C1269.57 550.8 1269.61 613.391 1394.16 613.391V1074.6H-2342.64V550.8Z" fill="#1B1B1B"/>
<path d="M-2342.64 812.16C-2218.09 812.16 -2218.09 874.751 -2093.53 874.751C-1968.98 874.751 -1968.98 812.16 -1844.39 812.16C-1719.79 812.16 -1719.83 874.751 -1595.28 874.751C-1470.73 874.751 -1470.73 812.16 -1346.17 812.16C-1221.62 812.16 -1221.62 874.751 -1097.07 874.751C-972.513 874.751 -972.513 812.16 -847.959 812.16C-723.406 812.16 -723.406 874.751 -598.852 874.751C-474.299 874.751 -474.299 812.16 -349.745 812.16C-225.192 812.16 -225.192 874.751 -100.599 874.751C23.9933 874.751 23.9544 812.16 148.508 812.16C273.061 812.16 273.061 874.751 397.634 874.751C522.207 874.751 522.188 812.16 646.741 812.16C771.295 812.16 771.294 874.751 895.887 874.751C1020.48 874.751 1020.46 812.16 1145.01 812.16C1269.57 812.16 1269.61 874.751 1394.16 874.751V1335.96H-2342.64V812.16Z" fill="#242424"/>
</g>
<path d="M100.569 85.9033C100.569 61.3359 85.9649 57.5998 71.0206 57.5998H63.5485V114.32H71.0206C85.9649 114.32 100.569 110.697 100.569 85.9033ZM47.3589 44.9199H71.6999C97.7391 44.9199 117.325 53.2977 117.325 85.9033C117.325 118.509 97.7391 127 71.6999 127H47.3589V44.9199ZM164.539 127V118.962C161.029 125.189 154.35 128.472 146.764 128.472C132.16 128.472 126.273 119.528 126.273 104.584V66.0909H141.896V101.187C141.896 109.339 143.141 115.905 151.859 115.905C162.275 115.905 164.539 107.414 164.539 97.7908V66.0909H180.162V127H164.539ZM220.781 64.7323C233.574 64.7323 246.254 71.8648 248.405 86.9222H233.461C232.215 81.0351 226.781 76.8462 220.781 76.8462C212.629 76.8462 206.176 83.7523 206.176 96.4322C206.176 109.225 212.29 116.358 220.894 116.358C226.328 116.358 231.876 113.528 234.027 106.282H248.971C245.348 122.924 232.781 128.472 220.101 128.472C201.874 128.472 190.213 115.113 190.213 96.6587C190.213 78.0916 202.553 64.7323 220.781 64.7323ZM258.3 44.9199H273.924V90.5451L296.114 66.0909H313.662L291.812 89.413L314.907 127H297.359L281.396 100.621L273.924 108.659V127H258.3V44.9199ZM377.14 100.055H392.537C390.386 116.698 376.574 128.472 356.988 128.472C332.533 128.472 318.608 111.829 318.608 85.5637C318.608 59.6377 333.552 43.4481 357.441 43.4481C376.687 43.4481 389.82 54.4298 392.537 71.5251H377.14C374.083 60.0905 366.384 56.3545 357.327 56.3545C344.987 56.3545 335.364 66.5437 335.364 85.5637C335.364 105.15 344.987 115.565 356.761 115.565C366.498 115.565 374.423 111.263 377.14 100.055ZM430.622 76.9594C422.018 76.9594 415.904 83.8655 415.904 96.6587C415.904 109.452 422.018 116.245 430.622 116.245C439.226 116.245 445.34 109.452 445.34 96.6587C445.34 83.8655 439.226 76.9594 430.622 76.9594ZM430.622 128.472C415.225 128.472 400.054 117.943 400.054 96.6587C400.054 75.2612 415.225 64.7323 430.622 64.7323C446.019 64.7323 461.19 75.2612 461.19 96.6587C461.19 117.943 446.019 128.472 430.622 128.472ZM486.753 66.0909V74.1291C490.263 67.9023 496.829 64.7323 504.414 64.7323C519.019 64.7323 525.472 73.563 525.472 88.6205V127H509.849V92.0169C509.849 84.2051 508.15 77.2991 499.32 77.2991C489.017 77.2991 486.753 85.6769 486.753 95.3001V127H471.129V66.0909H486.753ZM563.545 63.9398H579.395L581.999 44.9199H596.037L593.433 63.9398H608.491L611.095 44.9199H625.133L622.529 63.9398H638.153L636.681 76.0537H620.831L618.454 93.149H633.964L632.719 105.15H616.755L613.812 127H599.773L602.717 105.15H587.659L584.716 127H570.677L573.621 105.15H558.111L559.582 93.149H575.319L577.697 76.0537H562.299L563.545 63.9398ZM591.735 76.0537L589.358 93.149H604.415L606.793 76.0537H591.735ZM660.185 100.395C660.185 110.244 666.639 116.698 675.243 116.698C683.734 116.698 689.961 110.358 689.961 100.395C689.961 90.7715 683.734 84.4315 675.243 84.4315C666.639 84.4315 660.185 90.7715 660.185 100.395ZM675.922 55.3355C665.506 55.3355 659.28 64.9587 659.28 80.3558C662.789 75.9405 669.356 72.5441 677.96 72.5441C693.131 72.5441 705.811 82.8465 705.811 100.621C705.811 117.49 693.017 128.472 675.243 128.472C653.279 128.472 643.656 110.81 643.656 87.828C643.656 64.2794 652.374 43.4481 676.941 43.4481C694.829 43.4481 703.207 55.562 704.112 66.0909H688.829C688.036 59.298 682.715 55.3355 675.922 55.3355ZM40 235L70.5678 152.92H86.8706L117.552 235H100.003L94.2295 218.358H62.3032L56.5292 235H40ZM78.2663 172.732L66.9449 205.112H89.5877L78.2663 172.732ZM199.47 235V199.564C199.47 192.884 198.904 185.299 189.733 185.299C179.318 185.299 177.62 194.017 177.62 203.3V235H161.996V199.564C161.996 192.884 161.43 185.299 152.26 185.299C141.844 185.299 140.146 194.017 140.146 203.3V235H124.522V174.091H140.146V182.129C143.655 176.129 149.769 172.732 157.128 172.732C167.43 172.732 172.072 178.28 174.45 182.695C179.318 175.902 185.318 172.732 194.488 172.732C209.772 172.732 215.093 182.242 215.093 196.62V235H199.47ZM277.136 192.432H262.532C261.286 187.337 256.758 183.714 249.512 183.714C243.738 183.714 239.663 185.865 239.663 189.601C239.663 192.884 242.04 195.375 247.814 196.62L255.965 198.432C268.079 201.149 278.382 204.206 278.382 216.773C278.382 229 265.815 236.472 252.003 236.472C237.059 236.472 225.737 228.773 224.265 214.848H239.323C240.229 220.735 244.304 225.15 252.456 225.15C259.249 225.15 263.438 222.66 263.438 218.244C263.438 213.716 258.796 212.018 253.475 210.772L244.418 208.848C232.983 206.47 225.398 201.715 225.398 190.62C225.398 179.752 237.172 172.506 250.305 172.506C262.985 172.506 274.985 178.393 277.136 192.432ZM291.077 174.091V157.562H306.7V174.091H319.38V184.846H306.7V216.32C306.7 222.546 308.851 223.792 314.399 223.792H319.154V235H307.719C293.681 235 291.077 230.698 291.077 218.584V184.846H282.473V174.091H291.077ZM385.885 208.848H340.939C341.844 219.263 348.864 224.358 356.336 224.358C361.204 224.358 365.959 222.66 369.129 217.339H385.205C381.922 226.396 373.091 236.472 356.449 236.472C336.863 236.472 325.428 221.867 325.428 204.319C325.428 186.205 337.995 172.732 355.996 172.732C374.79 172.732 386.451 187.337 385.885 208.848ZM355.883 184.167C349.996 184.167 342.41 187.79 341.165 198.092H370.035C369.695 187.79 362.449 184.167 355.883 184.167ZM430.818 174.431V189.148C428.554 188.809 426.629 188.809 424.365 188.809C416.666 188.809 411.572 191.639 411.572 203.074V235H395.948V174.091H411.345V184.733C414.855 177.148 420.289 174.204 427.422 174.204C428.441 174.204 429.799 174.317 430.818 174.431ZM494.547 235H478.924V227.301C474.961 234.094 467.715 236.472 461.375 236.472C446.884 236.472 434.883 224.018 434.883 204.545C434.883 185.412 446.658 172.732 461.375 172.732C469.074 172.732 475.64 176.129 478.924 181.903V152.92H494.547V235ZM465.225 224.471C473.829 224.471 479.49 217.112 479.49 204.545C479.49 192.318 473.829 184.733 465.225 184.733C457.073 184.733 451.299 192.771 451.299 204.659C451.299 216.546 457.073 224.471 465.225 224.471ZM546.649 211.678V207.149C529.101 208.961 522.195 210.999 522.195 217.791C522.195 222.207 525.592 225.83 532.724 225.83C542.574 225.83 546.649 220.622 546.649 211.678ZM548.008 227.415C543.593 233.755 537.253 236.472 528.082 236.472C516.421 236.472 506.119 229.679 506.119 218.584C506.119 204.206 522.195 199.904 546.197 197.187V196.168C546.197 186.771 541.102 183.488 534.762 183.488C528.762 183.488 523.78 186.544 523.441 193.337H508.836C510.081 181.337 519.818 172.506 535.554 172.506C549.933 172.506 561.82 178.846 561.82 199.338C561.82 201.149 561.594 209.414 561.594 214.848C561.594 224.471 562.16 229.905 563.405 235H549.027C548.574 233.075 548.348 230.471 548.008 227.415ZM649.783 235V199.564C649.783 192.884 649.217 185.299 640.047 185.299C629.631 185.299 627.933 194.017 627.933 203.3V235H612.309V199.564C612.309 192.884 611.743 185.299 602.573 185.299C592.157 185.299 590.459 194.017 590.459 203.3V235H574.835V174.091H590.459V182.129C593.968 176.129 600.082 172.732 607.441 172.732C617.743 172.732 622.385 178.28 624.763 182.695C629.631 175.902 635.631 172.732 644.801 172.732C660.085 172.732 665.406 182.242 665.406 196.62V235H649.783ZM71.4974 268.844C85.9428 268.844 95.2834 276.447 95.2834 289.155C95.2834 305.121 81.5983 320.652 52.599 342.483H97.6729V349H43.2584V342.266C72.2577 320.218 88.115 304.578 88.115 289.915C88.115 279.814 80.4036 274.818 71.4974 274.818C61.6137 274.818 52.599 279.488 52.2731 294.585H45.1048C45.865 277.751 55.8573 268.844 71.4974 268.844ZM138.004 350.412C117.151 350.412 107.702 334.663 107.702 309.574C107.702 284.702 117.151 268.844 138.004 268.844C158.641 268.844 168.198 284.702 168.198 309.574C168.198 334.663 158.641 350.412 138.004 350.412ZM138.004 344.438C152.124 344.438 161.139 333.36 161.139 309.574C161.139 286.005 152.124 274.818 138.004 274.818C123.776 274.818 114.87 286.005 114.87 309.574C114.87 333.36 123.776 344.438 138.004 344.438ZM205.565 268.844C220.01 268.844 229.351 276.447 229.351 289.155C229.351 305.121 215.666 320.652 186.667 342.483H231.741V349H177.326V342.266C206.325 320.218 222.183 304.578 222.183 289.915C222.183 279.814 214.471 274.818 205.565 274.818C195.681 274.818 186.667 279.488 186.341 294.585H179.172C179.933 277.751 189.925 268.844 205.565 268.844ZM268.162 344.438C279.132 344.438 288.472 336.944 288.472 323.259C288.472 308.488 277.937 302.406 267.945 302.406C259.039 302.406 251.653 307.184 249.372 312.506L242.747 311.855L247.852 270.256H292.382V276.773H253.717L250.241 303.709C254.042 299.364 261.863 296.323 269.574 296.323C284.128 296.323 295.641 305.773 295.641 323.15C295.641 341.071 282.499 350.412 268.162 350.412C252.522 350.412 241.987 340.202 240.575 326.843H247.743C250.024 339.008 258.821 344.438 268.162 344.438ZM336.429 323.042H306.017V315.439H336.429V323.042ZM377.29 350.412C356.436 350.412 346.987 334.663 346.987 309.574C346.987 284.702 356.436 268.844 377.29 268.844C397.926 268.844 407.484 284.702 407.484 309.574C407.484 334.663 397.926 350.412 377.29 350.412ZM377.29 344.438C391.409 344.438 400.424 333.36 400.424 309.574C400.424 286.005 391.409 274.818 377.29 274.818C363.062 274.818 354.155 286.005 354.155 309.574C354.155 333.36 363.062 344.438 377.29 344.438ZM438.117 349H431.383V285.245H413.353V280.683C427.147 280.683 430.622 279.271 433.555 269.605H438.117V349ZM483.755 323.042H453.343V315.439H483.755V323.042ZM517.882 344.438C529.829 344.438 538.518 338.247 538.518 327.278C538.518 315.222 529.395 310.334 514.623 310.334H513.972V304.361H514.623C529.395 304.361 536.454 298.93 536.454 289.372C536.454 281.226 530.046 274.818 518.425 274.818C510.17 274.818 500.721 279.271 498.983 291.436H491.815C493.553 277.968 503.219 268.844 518.968 268.844C534.065 268.844 543.623 276.447 543.623 288.72C543.623 296.541 539.495 304.035 530.698 307.076C539.061 309.357 545.686 315.005 545.686 327.169C545.686 342.809 532.653 350.412 517.99 350.412C502.242 350.412 491.706 340.202 490.294 326.843H497.463C499.744 339.008 508.541 344.438 517.882 344.438ZM575.154 349H568.42V285.245H550.391V280.683C564.184 280.683 567.66 279.271 570.592 269.605H575.154V349Z" fill="#FFF100"/>
<g clip-path="url(#clip2_3979_3)">
<rect width="3240" height="1080" transform="translate(960)" fill="#DFD100"/>
<path d="M646.8 289.44C771.353 289.44 771.353 352.031 895.907 352.031C1020.46 352.031 1020.46 289.44 1145.05 289.44C1269.65 289.44 1269.61 352.031 1394.16 352.031C1518.71 352.031 1518.71 289.44 1643.27 289.44C1767.82 289.44 1767.82 352.031 1892.37 352.031C2016.93 352.031 2016.93 289.44 2141.48 289.44C2266.03 289.44 2266.03 352.031 2390.59 352.031C2515.14 352.031 2515.14 289.44 2639.69 289.44C2764.25 289.44 2764.25 352.031 2888.84 352.031C3013.43 352.031 3013.39 289.44 3137.95 289.44C3262.5 289.44 3262.5 352.031 3387.07 352.031C3511.65 352.031 3511.63 289.44 3636.18 289.44C3760.73 289.44 3760.73 352.031 3885.33 352.031C4009.92 352.031 4009.9 289.44 4134.45 289.44C4259.01 289.44 4259.05 352.031 4383.6 352.031V813.24H646.8V289.44Z" fill="#ECDC00"/>
<path d="M646.8 550.8C771.353 550.8 771.353 613.391 895.907 613.391C1020.46 613.391 1020.46 550.8 1145.05 550.8C1269.65 550.8 1269.61 613.391 1394.16 613.391C1518.71 613.391 1518.71 550.8 1643.27 550.8C1767.82 550.8 1767.82 613.391 1892.37 613.391C2016.93 613.391 2016.93 550.8 2141.48 550.8C2266.03 550.8 2266.03 613.391 2390.59 613.391C2515.14 613.391 2515.14 550.8 2639.69 550.8C2764.25 550.8 2764.25 613.391 2888.84 613.391C3013.43 613.391 3013.39 550.8 3137.95 550.8C3262.5 550.8 3262.5 613.391 3387.07 613.391C3511.65 613.391 3511.63 550.8 3636.18 550.8C3760.73 550.8 3760.73 613.391 3885.33 613.391C4009.92 613.391 4009.9 550.8 4134.45 550.8C4259.01 550.8 4259.05 613.391 4383.6 613.391V1074.6H646.8V550.8Z" fill="#F8E700"/>
<path d="M646.8 812.16C771.353 812.16 771.353 874.751 895.907 874.751C1020.46 874.751 1020.46 812.16 1145.05 812.16C1269.65 812.16 1269.61 874.751 1394.16 874.751C1518.71 874.751 1518.71 812.16 1643.27 812.16C1767.82 812.16 1767.82 874.751 1892.37 874.751C2016.93 874.751 2016.93 812.16 2141.48 812.16C2266.03 812.16 2266.03 874.751 2390.59 874.751C2515.14 874.751 2515.14 812.16 2639.69 812.16C2764.25 812.16 2764.25 874.751 2888.84 874.751C3013.43 874.751 3013.39 812.16 3137.95 812.16C3262.5 812.16 3262.5 874.751 3387.07 874.751C3511.65 874.751 3511.63 812.16 3636.18 812.16C3760.73 812.16 3760.73 874.751 3885.33 874.751C4009.92 874.751 4009.9 812.16 4134.45 812.16C4259.01 812.16 4259.05 874.751 4383.6 874.751V1335.96H646.8V812.16Z" fill="#FFF100"/>
<path d="M1273.32 1035.14C1247.83 1035.14 1227.25 1014.56 1227.25 989.07C1227.25 963.583 1247.83 943 1273.32 943C1298.81 943 1319.39 963.583 1319.39 989.07C1319.39 1014.56 1298.81 1035.14 1273.32 1035.14Z" fill="black"/>
<path d="M1297.96 982.235H1288.92V995.874H1297.96C1301.7 995.874 1304.82 992.761 1304.82 989.014C1304.82 985.239 1301.7 982.235 1297.96 982.235Z" fill="#FFF100"/>
<path d="M1244.64 989.069C1244.64 999.595 1253.21 1008.16 1263.73 1008.16C1274.26 1008.16 1282.83 999.595 1282.83 989.069C1282.83 978.544 1274.26 969.975 1263.73 969.975C1253.21 969.975 1244.64 978.544 1244.64 989.069Z" fill="#FFF100"/>
<path d="M1363.63 987.81C1363.63 979.593 1358.74 978.343 1353.75 978.343H1351.25V997.314H1353.75C1358.74 997.314 1363.63 996.102 1363.63 987.81ZM1345.83 974.102H1353.97C1362.68 974.102 1369.23 976.904 1369.23 987.81C1369.23 998.715 1362.68 1001.55 1353.97 1001.55H1345.83V974.102ZM1385.02 1001.55V998.866C1383.85 1000.95 1381.62 1002.05 1379.08 1002.05C1374.19 1002.05 1372.23 999.056 1372.23 994.057V981.183H1377.45V992.921C1377.45 995.648 1377.87 997.844 1380.78 997.844C1384.27 997.844 1385.02 995.004 1385.02 991.785V981.183H1390.25V1001.55H1385.02ZM1403.83 980.729C1408.11 980.729 1412.35 983.114 1413.07 988.15H1408.08C1407.66 986.181 1405.84 984.78 1403.83 984.78C1401.11 984.78 1398.95 987.09 1398.95 991.331C1398.95 995.61 1400.99 997.995 1403.87 997.995C1405.69 997.995 1407.55 997.049 1408.26 994.625H1413.26C1412.05 1000.19 1407.85 1002.05 1403.61 1002.05C1397.51 1002.05 1393.61 997.579 1393.61 991.407C1393.61 985.197 1397.74 980.729 1403.83 980.729ZM1416.38 974.102H1421.61V989.362L1429.03 981.183H1434.9L1427.59 988.983L1435.32 1001.55H1429.45L1424.11 992.732L1421.61 995.42V1001.55H1416.38V974.102ZM1455.3 987.81C1455.3 979.593 1450.41 978.343 1445.41 978.343H1442.92V997.314H1445.41C1450.41 997.314 1455.3 996.102 1455.3 987.81ZM1437.5 974.102H1445.64C1454.35 974.102 1460.9 976.904 1460.9 987.81C1460.9 998.715 1454.35 1001.55 1445.64 1001.55H1437.5V974.102ZM1464.72 1001.55V974.102H1475.39C1480.2 974.102 1485.39 975.617 1485.39 981.259C1485.39 983.834 1483.69 986.143 1482.29 987.052C1484.41 988.075 1486.38 989.665 1486.38 993.451C1486.38 999.358 1481.49 1001.55 1475.85 1001.55H1464.72ZM1470.13 989.513V997.314H1476.11C1479.29 997.314 1480.85 995.988 1480.85 993.451C1480.85 990.877 1479.26 989.513 1475.89 989.513H1470.13ZM1470.13 978.343V985.424H1475.74C1478.31 985.424 1479.82 984.212 1479.82 981.789C1479.82 979.631 1478.27 978.343 1475.74 978.343H1470.13ZM1499.2 1001.55V974.102H1515.97V976.45H1501.74V986.143H1515.1V988.529H1501.74V1001.55H1499.2ZM1519.73 991.445C1519.73 997.314 1522.5 999.889 1526.43 999.889C1530.34 999.889 1533.17 997.314 1533.17 991.445C1533.17 985.575 1530.34 983.001 1526.43 983.001C1522.5 983.001 1519.73 985.575 1519.73 991.445ZM1517.23 991.445C1517.23 984.023 1521.59 980.842 1526.43 980.842C1531.32 980.842 1535.67 984.023 1535.67 991.445C1535.67 998.866 1531.32 1002.05 1526.43 1002.05C1521.59 1002.05 1517.23 998.866 1517.23 991.445ZM1552.32 1001.55V998.26C1551.3 1000.19 1549.3 1002.05 1545.77 1002.05C1541.12 1002.05 1539.15 999.169 1539.15 994.171V981.183H1541.5V993.527C1541.5 997.352 1542.4 999.926 1546.38 999.926C1549.6 999.926 1552.32 996.973 1552.32 992.656V981.183H1554.67V1001.55H1552.32ZM1562.7 981.183V984.629C1563.72 982.698 1565.65 980.842 1569.48 980.842C1574.28 980.842 1576.33 983.72 1576.33 988.718V1001.55H1573.98V989.362C1573.98 985.538 1572.96 982.963 1568.87 982.963C1565.35 982.963 1562.7 985.916 1562.7 990.233V1001.55H1560.35V981.183H1562.7ZM1595.33 991.445C1595.33 985.386 1591.84 982.963 1588.77 982.963C1584.99 982.963 1582.3 986.03 1582.3 991.445C1582.3 996.859 1584.99 999.926 1588.77 999.926C1591.84 999.926 1595.33 997.503 1595.33 991.445ZM1579.76 991.445C1579.76 984.667 1583.59 980.842 1588.28 980.842C1591.31 980.842 1593.7 982.243 1595.17 984.705V974.102H1597.52V1001.55H1595.17V998.223C1593.7 1000.65 1591.31 1002.05 1588.28 1002.05C1583.59 1002.05 1579.76 998.223 1579.76 991.445ZM1604.23 996.443C1604.23 998.601 1606.16 999.964 1608.89 999.964C1612.67 999.964 1616.08 997.995 1616.08 992.24V991.255C1607.83 992.164 1604.23 993.3 1604.23 996.443ZM1616.12 1001.55L1616.01 998.45C1614.68 1000.61 1612.14 1002.05 1608.36 1002.05C1604.53 1002.05 1601.62 999.851 1601.62 996.481C1601.62 991.823 1606.16 990.195 1615.97 989.173V988.453C1615.97 983.796 1613.2 982.811 1610.29 982.811C1606.8 982.811 1604.76 984.705 1604.57 987.393H1602.11C1602.68 983.341 1605.86 980.729 1610.44 980.729C1615.17 980.729 1618.32 982.698 1618.32 988.756C1618.32 991.596 1618.28 993.414 1618.28 995.042C1618.28 997.352 1618.39 999.321 1618.51 1001.55H1616.12ZM1624.2 981.183V976.601H1626.58V981.183H1630.6V983.228H1626.58V996.254C1626.58 998.866 1626.66 999.434 1629.38 999.434H1630.6V1001.55H1628.66C1625.03 1001.55 1624.2 1000.76 1624.2 996.708V983.228H1620.83V981.183H1624.2ZM1634.64 981.183H1636.99V1001.55H1634.64V981.183ZM1634.64 974.102H1636.99V977.851H1634.64V974.102ZM1643.57 991.445C1643.57 997.314 1646.34 999.889 1650.27 999.889C1654.17 999.889 1657.01 997.314 1657.01 991.445C1657.01 985.575 1654.17 983.001 1650.27 983.001C1646.34 983.001 1643.57 985.575 1643.57 991.445ZM1641.07 991.445C1641.07 984.023 1645.43 980.842 1650.27 980.842C1655.16 980.842 1659.51 984.023 1659.51 991.445C1659.51 998.866 1655.16 1002.05 1650.27 1002.05C1645.43 1002.05 1641.07 998.866 1641.07 991.445ZM1665.94 981.183V984.629C1666.96 982.698 1668.89 980.842 1672.72 980.842C1677.53 980.842 1679.57 983.72 1679.57 988.718V1001.55H1677.22V989.362C1677.22 985.538 1676.2 982.963 1672.11 982.963C1668.59 982.963 1665.94 985.916 1665.94 990.233V1001.55H1663.59V981.183H1665.94Z" fill="black"/>
</g>
</g>
<defs>
<clipPath id="clip0_3979_3">
<rect width="1920" height="1080" fill="white"/>
</clipPath>
<clipPath id="clip1_3979_3">
<rect width="3240" height="1080" fill="white" transform="translate(-2280)"/>
</clipPath>
<clipPath id="clip2_3979_3">
<rect width="3240" height="1080" fill="white" transform="translate(960)"/>
</clipPath>
</defs>
</svg>
