<svg width="1200" height="515" viewBox="0 0 1200 515" fill="none" xmlns="http://www.w3.org/2000/svg">
<g clip-path="url(#clip0_12175_8037)">
<rect width="1200" height="515" fill="url(#paint0_linear_12175_8037)"/>
<g clip-path="url(#clip1_12175_8037)">
<rect width="1200" height="515" fill="url(#paint1_linear_12175_8037)"/>
<path d="M-200.003 -476.574L505.555 -476.574C535.931 -476.574 560.555 -451.95 560.555 -421.574L560.555 -329.749C560.555 -299.373 535.93 -274.749 505.555 -274.749L194.061 -274.749C163.686 -274.749 139.061 -250.125 139.061 -219.749L139.061 221C139.061 251.375 114.437 276 84.0613 276L-127.502 276" stroke="#F0DF09" stroke-width="2.9926"/>
<path d="M1315 217.5L908.5 217.5C878.124 217.5 853.5 192.876 853.5 162.5L853.5 -145.829C853.5 -176.205 878.124 -200.829 908.5 -200.829L1047.93 -200.829C1078.31 -200.829 1102.93 -225.453 1102.93 -255.829L1102.93 -388" stroke="#F0DF09" stroke-width="2.9926" stroke-linejoin="round"/>
<path d="M636 556.5L636 471.07C636 440.694 611.375 416.07 581 416.07L297.5 416.071C267.124 416.071 242.5 391.447 242.5 361.071L242.5 218.309C242.5 187.934 267.124 163.309 297.5 163.309L518.576 163.309C548.951 163.309 573.576 138.685 573.576 108.309L573.576 -471.437C573.576 -501.813 598.2 -526.437 628.576 -526.437L777.936 -526.437" stroke="#F0DF09" stroke-width="2.9926" stroke-linejoin="round"/>
<rect x="251.712" y="318.387" width="19.7508" height="41.4254" rx="9.87539" transform="rotate(-180 251.712 318.387)" fill="#D4C50B" stroke="#F0DF09" stroke-width="1.92382"/>
<path d="M-220 453.505C-220.826 453.505 -221.496 454.175 -221.496 455.002C-221.496 455.828 -220.826 456.498 -220 456.498L-220 455.002L-220 453.505ZM166.933 456.058C167.517 455.474 167.517 454.526 166.933 453.942L157.411 444.42C156.826 443.835 155.879 443.835 155.294 444.42C154.71 445.004 154.71 445.951 155.295 446.536L163.759 455L155.295 463.464C154.71 464.049 154.71 464.996 155.295 465.58C155.879 466.165 156.826 466.165 157.411 465.58L166.933 456.058ZM-220 455.002L-220 456.498L165.875 456.496L165.875 455L165.875 453.504L-220 453.505L-220 455.002Z" fill="#F0DF09"/>
<path d="M1005.5 614.375C1005.5 615.201 1006.17 615.871 1007 615.871C1007.83 615.871 1008.5 615.201 1008.5 614.375L1007 614.375L1005.5 614.375ZM1008.06 326.442C1007.47 325.858 1006.53 325.858 1005.94 326.442L996.42 335.964C995.835 336.549 995.835 337.496 996.42 338.08C997.004 338.665 997.951 338.665 998.536 338.08L1007 329.616L1015.46 338.08C1016.05 338.665 1017 338.665 1017.58 338.08C1018.16 337.496 1018.16 336.549 1017.58 335.964L1008.06 326.442ZM1007 614.375L1008.5 614.375L1008.5 327.5L1007 327.5L1005.5 327.5L1005.5 614.375L1007 614.375Z" fill="#F0DF09"/>
<rect x="1081.96" y="230.038" width="25.0762" height="51.0762" rx="12.5381" transform="rotate(-90 1081.96 230.038)" fill="#D4C50B" stroke="#F0DF09" stroke-width="1.92382"/>
<path d="M259.716 95L265.036 74.56H268.424L273.716 95H271.168L269.824 89.568H263.636L262.292 95H259.716ZM264.14 87.44H269.292L267.724 81.14C267.426 79.9453 267.192 78.9467 267.024 78.144C266.856 77.3413 266.754 76.8187 266.716 76.576C266.679 76.8187 266.576 77.3413 266.408 78.144C266.24 78.9467 266.007 79.936 265.708 81.112L264.14 87.44ZM283.505 95.28C281.676 95.28 280.229 94.748 279.165 93.684C278.101 92.62 277.569 91.0987 277.569 89.12V80.44C277.569 78.4613 278.101 76.94 279.165 75.876C280.229 74.812 281.676 74.28 283.505 74.28C285.335 74.28 286.781 74.812 287.845 75.876C288.909 76.94 289.441 78.452 289.441 80.412V89.12C289.441 91.0987 288.909 92.62 287.845 93.684C286.781 94.748 285.335 95.28 283.505 95.28ZM283.505 93.012C284.607 93.012 285.447 92.704 286.025 92.088C286.623 91.4533 286.921 90.5573 286.921 89.4V80.16C286.921 79.0027 286.623 78.116 286.025 77.5C285.447 76.8653 284.607 76.548 283.505 76.548C282.423 76.548 281.583 76.8653 280.985 77.5C280.388 78.116 280.089 79.0027 280.089 80.16V89.4C280.089 90.5573 280.388 91.4533 280.985 92.088C281.583 92.704 282.423 93.012 283.505 93.012ZM299.035 95V76.856H293.435V74.56H307.155V76.856H301.555V95H299.035Z" fill="#F3E223"/>
<path d="M269.4 480.28C268.709 480.28 268.149 480.075 267.72 479.664C267.309 479.253 267.104 478.721 267.104 478.068C267.104 477.377 267.309 476.817 267.72 476.388C268.149 475.959 268.709 475.744 269.4 475.744C270.091 475.744 270.641 475.959 271.052 476.388C271.481 476.817 271.696 477.377 271.696 478.068C271.696 478.721 271.481 479.253 271.052 479.664C270.641 480.075 270.091 480.28 269.4 480.28ZM280.309 480V459.56H283.669L289.913 477.06C289.876 476.593 289.829 476.024 289.773 475.352C289.736 474.661 289.698 473.943 289.661 473.196C289.642 472.431 289.633 471.712 289.633 471.04V459.56H292.069V480H288.709L282.493 462.5C282.53 462.948 282.568 463.517 282.605 464.208C282.642 464.88 282.67 465.599 282.689 466.364C282.726 467.111 282.745 467.829 282.745 468.52V480H280.309ZM297.378 480V459.56H309.138V461.856H299.87V468.184H308.158V470.424H299.87V477.704H309.138V480H297.378ZM318.507 480V461.856H312.907V459.56H326.627V461.856H321.027V480H318.507Z" fill="#F3E223"/>
<path d="M51.58 360.36C48.9107 359.763 46.8387 358.512 45.364 356.608C43.908 354.704 43.18 352.315 43.18 349.44V344.4C43.18 341.525 43.908 339.136 45.364 337.232C46.8387 335.328 48.9107 334.077 51.58 333.48V335.916C50.3853 336.196 49.34 336.728 48.444 337.512C47.5667 338.296 46.8853 339.276 46.4 340.452C45.9333 341.609 45.7 342.925 45.7 344.4V349.44C45.7 350.896 45.9333 352.212 46.4 353.388C46.8853 354.564 47.5667 355.544 48.444 356.328C49.34 357.112 50.3853 357.644 51.58 357.924V360.36ZM58.0091 360.36V357.924C59.2224 357.644 60.2677 357.112 61.1451 356.328C62.0224 355.544 62.6944 354.564 63.1611 353.388C63.6464 352.212 63.8891 350.896 63.8891 349.44V344.4C63.8891 342.925 63.6464 341.609 63.1611 340.452C62.6944 339.276 62.0224 338.296 61.1451 337.512C60.2677 336.728 59.2224 336.196 58.0091 335.916V333.48C60.6784 334.077 62.7411 335.328 64.1971 337.232C65.6717 339.136 66.4091 341.525 66.4091 344.4V349.44C66.4091 352.315 65.6717 354.704 64.1971 356.608C62.7411 358.512 60.6784 359.763 58.0091 360.36ZM79.6981 345.52C79.0821 345.52 78.5781 345.324 78.1861 344.932C77.7941 344.54 77.5981 344.036 77.5981 343.42C77.5981 342.823 77.7941 342.328 78.1861 341.936C78.5968 341.525 79.1008 341.32 79.6981 341.32H80.2581C80.8555 341.32 81.3501 341.525 81.7421 341.936C82.1528 342.328 82.3581 342.823 82.3581 343.42C82.3581 344.036 82.1621 344.54 81.7701 344.932C81.3781 345.324 80.8741 345.52 80.2581 345.52H79.6981ZM77.3181 361.48L78.8581 352.912H81.8821L79.9221 361.48H77.3181Z" fill="#F3E223"/>
<path d="M1041.19 115.28C1039.23 115.28 1037.69 114.729 1036.57 113.628C1035.45 112.527 1034.89 111.024 1034.89 109.12H1037.41C1037.41 110.371 1037.74 111.341 1038.39 112.032C1039.06 112.704 1040 113.04 1041.19 113.04C1042.39 113.04 1043.31 112.704 1043.96 112.032C1044.64 111.341 1044.97 110.371 1044.97 109.12V94.56H1047.49V109.12C1047.49 111.024 1046.92 112.527 1045.78 113.628C1044.66 114.729 1043.13 115.28 1041.19 115.28ZM1053.42 115L1050.98 94.56H1053.31L1054.9 109.68C1054.98 110.296 1055.03 110.94 1055.07 111.612C1055.11 112.265 1055.14 112.788 1055.15 113.18C1055.19 112.788 1055.24 112.265 1055.29 111.612C1055.37 110.94 1055.44 110.296 1055.52 109.68L1057.53 94.56H1060.25L1062.1 109.68C1062.17 110.296 1062.25 110.94 1062.32 111.612C1062.4 112.265 1062.45 112.788 1062.49 113.18C1062.53 112.788 1062.56 112.265 1062.6 111.612C1062.66 110.94 1062.72 110.296 1062.8 109.68L1064.45 94.56H1066.66L1064.17 115H1061.01L1059.16 99.6C1059.08 98.9653 1059.03 98.3493 1058.99 97.752C1058.95 97.136 1058.92 96.66 1058.88 96.324C1058.84 96.66 1058.8 97.136 1058.77 97.752C1058.73 98.3493 1058.66 98.9653 1058.57 99.6L1056.58 115H1053.42ZM1074.35 115V96.856H1068.75V94.56H1082.47V96.856H1076.87V115H1074.35Z" fill="#F3E223"/>
</g>
<g filter="url(#filter0_d_12175_8037)">
<path d="M550.517 405.419C543.221 404.967 537.318 399.028 536.966 391.795C536.783 388 538.09 384.507 540.358 381.845C541.823 380.128 542.662 377.954 542.461 375.713C542.461 375.695 542.461 375.677 542.461 375.665C542.194 372.859 539.738 370.745 536.893 370.745L495 370.745C493.895 370.745 493 369.849 493 368.745L493 325.723C493 324.355 493.997 323.163 495.365 322.97C495.541 322.946 495.717 322.928 495.888 322.91C498.222 322.699 500.49 323.554 502.277 325.054C505.049 327.373 508.679 328.71 512.636 328.523C520.169 328.162 526.351 322.133 526.819 314.677C527.354 306.07 520.472 298.926 511.901 298.926C507.894 298.926 504.691 300.697 502.855 302.028C500.964 303.396 498.617 304.07 496.313 303.679C495.821 303.594 495.31 303.468 494.812 303.293C493.711 302.908 493 301.842 493 300.685L493 258.723C493 257.619 493.895 256.723 495 256.723L539.659 256.723C541.051 256.723 542.182 257.844 542.182 259.223C542.388 261.536 541.525 263.782 540.018 265.553C537.677 268.3 536.327 271.901 536.516 275.816C536.875 283.279 542.966 289.404 550.492 289.868C559.174 290.398 566.384 283.58 566.384 275.087C566.384 271.118 564.596 267.944 563.253 266.125C561.873 264.252 561.198 261.927 561.593 259.645C561.648 259.325 561.721 258.994 561.818 258.669C562.152 257.5 563.277 256.723 564.499 256.723L607.875 256.723C608.98 256.723 609.875 257.619 609.875 258.723L609.875 297.878C609.875 299.167 610.313 300.432 611.158 301.414C612.514 303.004 612.475 293.633 614.074 293.904C616.305 294.284 618.771 297.391 620.607 296.066C622.388 294.777 628.917 296.066 632.802 296.066C641.106 296.066 645.926 306.305 645.403 314.646C644.953 321.874 638.959 327.722 631.657 328.066C627.827 328.246 621.552 338.52 618.865 336.273C617.623 335.232 617.757 331.803 617.099 330.019C616.74 329.047 615.841 329.728 615.751 330.761C615.393 334.898 613.655 330.107 613.203 330.22C610.79 330.841 609.875 325.741 609.875 328.216L609.875 368.745C609.875 369.849 608.98 370.745 607.875 370.745L567.034 370.745C565.004 370.745 563.101 371.817 562.14 373.587C561.684 374.419 561.423 375.292 561.277 376.123C560.888 378.34 561.551 380.592 562.888 382.405C564.189 384.17 565.922 387.248 565.922 391.096C565.922 399.324 558.93 405.931 550.517 405.419Z" fill="#FFFCC2" stroke="#978C00" stroke-width="3.21" stroke-miterlimit="10"/>
<path d="M755.097 314.941C754.654 322.058 748.826 327.817 741.728 328.161C738.005 328.339 734.577 327.064 731.965 324.851C730.281 323.422 728.147 322.604 725.949 322.799C725.931 322.799 725.913 322.799 725.901 322.799C723.147 323.06 721.073 325.456 721.073 328.232V369.054C721.073 370.159 720.177 371.054 719.073 371.054H676.895C675.553 371.054 674.383 370.082 674.194 368.747C674.171 368.575 674.153 368.403 674.135 368.237C673.928 365.96 674.767 363.747 676.239 362.004C678.514 359.299 679.826 355.758 679.643 351.897C679.289 344.549 673.373 338.517 666.056 338.06C657.611 337.538 650.601 344.252 650.601 352.615C650.601 356.523 652.339 359.649 653.645 361.44C654.986 363.285 655.648 365.574 655.264 367.822C655.182 368.302 655.057 368.801 654.886 369.287C654.508 370.36 653.462 371.054 652.327 371.054H611.189C610.085 371.054 609.189 370.159 609.189 369.054V325.534C609.189 324.175 610.289 323.072 611.642 323.072C613.912 322.871 616.116 323.713 617.854 325.184C620.549 327.467 624.083 328.784 627.924 328.6C635.247 328.25 641.257 322.307 641.712 314.964C642.233 306.495 635.542 299.461 627.209 299.461C623.314 299.461 620.2 301.204 618.415 302.515C616.577 303.861 614.296 304.52 612.056 304.134C611.743 304.081 611.418 304.01 611.098 303.915C609.952 303.589 609.189 302.491 609.189 301.299V259.03C609.189 257.925 610.085 257.03 611.189 257.03H649.573C650.838 257.03 652.079 256.603 653.042 255.778C654.602 254.456 645.407 254.493 645.673 252.933C646.045 250.757 649.095 248.351 647.794 246.56C646.53 244.822 647.794 238.453 647.794 234.663C647.794 226.561 657.841 221.859 666.026 222.369C673.119 222.808 678.857 228.656 679.194 235.779C679.371 239.515 689.452 245.638 687.248 248.259C686.233 249.463 682.907 249.342 681.147 249.969C680.171 250.317 680.84 251.208 681.873 251.3C685.872 251.656 681.198 253.343 681.308 253.783C681.917 256.138 676.913 257.03 679.342 257.03H719.073C720.177 257.03 721.073 257.925 721.073 259.03V298.826C721.073 300.807 722.125 302.663 723.862 303.6C724.678 304.045 725.535 304.3 726.35 304.443C728.525 304.822 730.736 304.176 732.515 302.871C734.246 301.602 737.266 299.911 741.043 299.911C749.116 299.911 755.599 306.732 755.097 314.941Z" fill="#FFFCC2" stroke="#978C00" stroke-width="3.21" stroke-miterlimit="10"/>
<path d="M755.097 200.606C754.654 207.724 748.826 213.483 741.728 213.827C738.005 214.005 734.577 212.73 731.965 210.517C730.281 209.088 728.147 208.269 725.949 208.465C725.931 208.465 725.913 208.465 725.901 208.465C723.147 208.726 721.073 211.122 721.073 213.898V254.723C721.073 255.828 720.177 256.723 719.073 256.723H676.895C675.553 256.723 674.383 255.751 674.194 254.416C674.171 254.244 674.153 254.072 674.135 253.906C673.928 251.628 674.767 249.416 676.239 247.672C678.514 244.967 679.826 241.426 679.643 237.565C679.289 230.216 673.373 224.183 666.056 223.727C657.611 223.205 650.601 229.919 650.601 238.283C650.601 242.191 652.339 245.317 653.645 247.109C654.986 248.953 655.648 251.243 655.264 253.491C655.182 253.971 655.057 254.469 654.886 254.956C654.508 256.029 653.462 256.723 652.327 256.723H611.189C610.085 256.723 609.189 255.828 609.189 254.723V211.2C609.189 209.841 610.289 208.738 611.642 208.738C613.912 208.536 616.116 209.379 617.854 210.85C620.549 213.133 624.083 214.45 627.924 214.266C635.247 213.916 641.257 207.973 641.712 200.63C642.233 192.16 635.542 185.125 627.209 185.125C623.314 185.125 620.2 186.869 618.415 188.18C616.577 189.526 614.296 190.184 612.056 189.799C611.743 189.746 611.418 189.674 611.098 189.579C609.952 189.253 609.189 188.156 609.189 186.964V144.691C609.189 143.587 610.085 142.691 611.189 142.691H649.573C650.838 142.691 652.079 142.264 653.042 141.44C654.602 140.117 655.3 138.433 655.566 136.873C655.938 134.696 655.3 132.477 653.999 130.686C652.735 128.948 651.044 125.923 651.044 122.133C651.044 114.031 657.841 107.518 666.026 108.028C673.119 108.467 678.857 114.315 679.194 121.439C679.371 125.176 678.101 128.616 675.896 131.238C674.472 132.928 673.662 135.069 673.857 137.276C673.899 137.756 673.981 138.249 674.106 138.741C674.714 141.096 676.913 142.691 679.342 142.691H719.073C720.177 142.691 721.073 143.587 721.073 144.691V184.49C721.073 186.471 722.125 188.328 723.862 189.265C724.678 189.71 725.535 189.965 726.35 190.107C728.525 190.487 730.736 189.84 732.515 188.536C734.246 187.266 737.266 185.576 741.043 185.576C749.116 185.576 755.599 192.397 755.097 200.606Z" fill="#FFFCC2" stroke="#978C00" stroke-width="3.21" stroke-miterlimit="10"/>
<path d="M598.825 172.377C604.323 169.14 609.694 169.024 615.233 172.216C635.779 184.056 656.352 195.848 676.905 207.676C679.239 209.025 681.017 210.709 682.251 212.703L682.491 213.107C683.753 215.315 684.378 217.888 684.379 220.8C684.387 244.561 684.387 292.044 684.387 292.149C684.386 294.997 683.787 297.521 682.582 299.696C681.575 301.512 680.143 303.089 678.275 304.405C678.131 304.506 677.985 304.606 677.836 304.704C677.538 304.9 677.23 305.09 676.912 305.274C656.356 317.102 635.782 328.893 615.235 340.734C611.512 342.879 607.866 343.531 604.206 342.745C604.121 342.727 604.035 342.708 603.95 342.688C603.494 342.582 603.039 342.451 602.583 342.301C602.187 342.17 601.789 342.025 601.392 341.861C600.538 341.508 599.682 341.078 598.823 340.572C597.8 339.97 596.266 339.077 594.339 337.962C592.412 336.847 590.093 335.51 587.503 334.018C583.251 331.57 578.267 328.707 573.083 325.731C569.714 323.798 566.261 321.816 562.869 319.87C552.393 313.861 542.498 308.185 537.475 305.281C536.36 304.638 535.373 303.917 534.512 303.124C534.142 302.783 533.796 302.43 533.472 302.063C533.147 301.694 532.845 301.311 532.566 300.915C532.29 300.524 532.036 300.12 531.805 299.702L531.586 299.29C530.526 297.21 530 294.826 530 292.156C530.008 268.368 530 244.582 530.008 220.795C530.009 215.018 532.455 210.573 537.481 207.669C549.686 200.613 590.644 177.193 598.825 172.377Z" fill="#FFF100"/>
<path d="M682.582 299.696C683.787 297.521 684.386 294.997 684.387 292.149C684.387 292.043 684.387 244.561 684.379 220.8C684.377 217.888 683.753 215.315 682.491 213.107L682.251 212.703C681.017 210.709 679.239 209.025 676.905 207.676C656.352 195.848 635.779 184.056 615.233 172.216C609.694 169.024 604.323 169.14 598.825 172.377C590.644 177.193 549.686 200.613 537.481 207.669C532.455 210.573 530.009 215.018 530.008 220.795C530 244.582 530.008 268.368 530 292.156C530 294.826 530.526 297.21 531.586 299.29L531.805 299.702C532.036 300.12 532.29 300.524 532.566 300.915C532.845 301.311 533.147 301.694 533.472 302.063C533.796 302.43 534.142 302.783 534.512 303.124C535.373 303.917 536.36 304.638 537.475 305.281C542.498 308.185 552.393 313.861 562.869 319.87C566.261 321.816 569.714 323.798 573.083 325.731C578.267 328.707 583.251 331.57 587.503 334.018C590.093 335.51 592.412 336.847 594.339 337.962C596.266 339.077 597.8 339.97 598.823 340.572C599.682 341.078 600.538 341.508 601.392 341.861C601.789 342.025 602.187 342.17 602.583 342.301C603.039 342.451 603.494 342.582 603.95 342.688C604.035 342.708 604.121 342.727 604.206 342.745C607.866 343.531 611.512 342.879 615.235 340.734C635.782 328.893 656.356 317.102 676.912 305.274C677.23 305.091 677.538 304.9 677.836 304.704C677.985 304.606 678.131 304.506 678.275 304.405C680.143 303.089 681.575 301.512 682.582 299.696ZM682.582 299.696L682.581 299.695" stroke="#978C00" stroke-width="3.21" stroke-miterlimit="10"/>
<path d="M652.166 239.694V248.085H660.221V239.694H664.249V248.085H672.304V252.28H664.249V260.671H672.304V264.866H664.249V273.256H660.221V264.866H652.166V273.256H648.139V264.866H640.084V260.671H648.139V252.28H640.084V248.085H648.139V239.694H652.166ZM660.221 252.28H652.166V260.671H660.221V252.28Z" fill="#978C00"/>
<path d="M607.68 199.419C628.967 199.419 647.552 210.882 657.507 227.921L657.409 227.757L632.364 242.056C627.43 233.772 618.383 228.181 608.007 228.066L607.68 228.064C591.855 228.064 579.026 240.784 579.026 256.475C579.026 261.606 580.405 266.416 582.805 270.571C587.744 279.12 597.029 284.887 607.68 284.887C618.396 284.887 627.734 279.047 632.648 270.406L632.529 270.613L657.536 284.978C647.691 301.873 629.36 313.3 608.321 313.528L607.68 313.532C586.326 313.532 567.687 301.998 557.758 284.869C552.91 276.507 550.137 266.813 550.137 256.475C550.137 224.965 575.899 199.419 607.68 199.419Z" fill="#978C00"/>
</g>
</g>
<defs>
<filter id="filter0_d_12175_8037" x="457.395" y="72.395" width="333.334" height="368.657" filterUnits="userSpaceOnUse" color-interpolation-filters="sRGB">
<feFlood flood-opacity="0" result="BackgroundImageFix"/>
<feColorMatrix in="SourceAlpha" type="matrix" values="0 0 0 0 0 0 0 0 0 0 0 0 0 0 0 0 0 0 127 0" result="hardAlpha"/>
<feOffset/>
<feGaussianBlur stdDeviation="17"/>
<feComposite in2="hardAlpha" operator="out"/>
<feColorMatrix type="matrix" values="0 0 0 0 1 0 0 0 0 0.986905 0 0 0 0 0.761493 0 0 0 1 0"/>
<feBlend mode="normal" in2="BackgroundImageFix" result="effect1_dropShadow_12175_8037"/>
<feBlend mode="normal" in="SourceGraphic" in2="effect1_dropShadow_12175_8037" result="shape"/>
</filter>
<linearGradient id="paint0_linear_12175_8037" x1="589" y1="-26.5" x2="587" y2="627" gradientUnits="userSpaceOnUse">
<stop stop-color="#FDEF00"/>
<stop offset="0.938633" stop-color="#FFFAA3"/>
</linearGradient>
<linearGradient id="paint1_linear_12175_8037" x1="587" y1="-85" x2="587" y2="627" gradientUnits="userSpaceOnUse">
<stop stop-color="#FDEF00"/>
<stop offset="0.938633" stop-color="#FFFAA3"/>
</linearGradient>
<clipPath id="clip0_12175_8037">
<rect width="1200" height="515" fill="white"/>
</clipPath>
<clipPath id="clip1_12175_8037">
<rect width="1200" height="515" fill="white"/>
</clipPath>
</defs>
</svg>
