<svg width="560" height="240" viewBox="0 0 560 240" fill="none" xmlns="http://www.w3.org/2000/svg">
<g clip-path="url(#clip0_5340_2553)">
<rect width="560" height="240" fill="#FFF100"/>
<g clip-path="url(#clip1_5340_2553)">
<rect width="560" height="240" fill="#FFF100"/>
<path d="M294.978 54.1962L416.868 54.1962C427.914 54.1962 436.868 63.1505 436.868 74.1962L436.868 192.5C436.868 203.546 445.822 212.5 456.868 212.5L583.619 212.5C594.665 212.5 603.619 203.546 603.619 192.5L603.619 -13.9535C603.619 -24.9992 594.665 -33.9535 583.619 -33.9535L294.978 -33.9539C283.932 -33.9539 274.978 -24.9996 274.978 -13.9539L274.978 34.1962C274.978 45.2419 283.932 54.1962 294.978 54.1962Z" fill="#EDDD0C"/>
<path d="M-22.5 45.3254L37.5002 45.3254C48.5459 45.3254 57.5002 54.2798 57.5002 65.3255L57.5 139C57.5 150.045 66.4543 159 77.5 159L114.5 159C125.546 159 134.5 167.954 134.5 179L134.5 268.827C134.5 279.873 125.546 288.827 114.5 288.827L-22.5 288.827C-33.5457 288.827 -42.5 279.873 -42.5 268.827L-42.5 65.3254C-42.5 54.2797 -33.5457 45.3254 -22.5 45.3254Z" fill="#EDDD0C"/>
<path d="M-86.0003 183L42.4775 183C59.0461 183 72.4775 196.431 72.4775 213L72.4776 370" stroke="url(#paint0_linear_5340_2553)" stroke-width="3" stroke-linecap="round" stroke-linejoin="round"/>
<path d="M490 -95L490 126C490 142.569 503.431 156 520 156L668 156" stroke="url(#paint1_linear_5340_2553)" stroke-width="3" stroke-linecap="round" stroke-linejoin="round"/>
</g>
<path d="M164.115 106.507C164.115 101.271 161.003 100.475 157.818 100.475H156.225V112.563H157.818C161.003 112.563 164.115 111.791 164.115 106.507ZM152.775 97.7727H157.962C163.512 97.7727 167.686 99.5582 167.686 106.507C167.686 113.456 163.512 115.266 157.962 115.266H152.775V97.7727ZM177.748 115.266V113.553C177 114.88 175.577 115.579 173.96 115.579C170.848 115.579 169.593 113.673 169.593 110.488V102.285H172.923V109.764C172.923 111.502 173.188 112.901 175.046 112.901C177.266 112.901 177.748 111.091 177.748 109.041V102.285H181.078V115.266H177.748ZM189.735 101.995C192.461 101.995 195.163 103.515 195.622 106.724H192.437C192.171 105.47 191.013 104.577 189.735 104.577C187.997 104.577 186.622 106.049 186.622 108.751C186.622 111.478 187.925 112.998 189.759 112.998C190.917 112.998 192.099 112.394 192.558 110.85H195.742C194.97 114.397 192.292 115.579 189.59 115.579C185.705 115.579 183.22 112.732 183.22 108.799C183.22 104.842 185.85 101.995 189.735 101.995ZM197.731 97.7727H201.06V107.496L205.79 102.285H209.529L204.873 107.255L209.795 115.266H206.055L202.653 109.644L201.06 111.357V115.266H197.731V97.7727ZM222.527 106.507C222.527 101.271 219.414 100.475 216.229 100.475H214.637V112.563H216.229C219.414 112.563 222.527 111.791 222.527 106.507ZM211.187 97.7727H216.374C221.924 97.7727 226.098 99.5582 226.098 106.507C226.098 113.456 221.924 115.266 216.374 115.266H211.187V97.7727ZM228.529 115.266V97.7727H235.333C238.397 97.7727 241.703 98.7378 241.703 102.333C241.703 103.974 240.617 105.445 239.724 106.025C241.075 106.676 242.33 107.689 242.33 110.102C242.33 113.866 239.218 115.266 235.622 115.266H228.529ZM231.979 107.593V112.563H235.791C237.818 112.563 238.807 111.719 238.807 110.102C238.807 108.461 237.794 107.593 235.647 107.593H231.979ZM231.979 100.475V104.987H235.55C237.191 104.987 238.156 104.215 238.156 102.671C238.156 101.295 237.167 100.475 235.55 100.475H231.979ZM249.994 115.266V97.7727H256.799C259.863 97.7727 263.168 98.7378 263.168 102.333C263.168 103.974 262.083 105.445 261.19 106.025C262.541 106.676 263.796 107.689 263.796 110.102C263.796 113.866 260.683 115.266 257.088 115.266H249.994ZM253.445 107.593V112.563H257.257C259.284 112.563 260.273 111.719 260.273 110.102C260.273 108.461 259.26 107.593 257.112 107.593H253.445ZM253.445 100.475V104.987H257.016C258.656 104.987 259.622 104.215 259.622 102.671C259.622 101.295 258.632 100.475 257.016 100.475H253.445ZM278.456 109.692H268.877C269.07 111.912 270.566 112.998 272.158 112.998C273.196 112.998 274.209 112.636 274.885 111.502H278.311C277.611 113.432 275.729 115.579 272.182 115.579C268.008 115.579 265.571 112.467 265.571 108.727C265.571 104.866 268.25 101.995 272.086 101.995C276.091 101.995 278.576 105.108 278.456 109.692ZM272.062 104.432C270.807 104.432 269.191 105.204 268.925 107.4H275.078C275.005 105.204 273.461 104.432 272.062 104.432ZM288.032 102.357V105.494C287.549 105.421 287.139 105.421 286.657 105.421C285.016 105.421 283.93 106.025 283.93 108.461V115.266H280.601V102.285H283.882V104.553C284.63 102.936 285.788 102.309 287.308 102.309C287.525 102.309 287.815 102.333 288.032 102.357ZM293.073 97.7727V115.266H289.743V97.7727H293.073ZM296.058 102.285H299.387V115.266H296.058V102.285ZM296.058 97.7727H299.387V100.861H296.058V97.7727ZM305.702 102.285V103.998C306.45 102.671 307.85 101.995 309.466 101.995C312.579 101.995 313.954 103.877 313.954 107.086V115.266H310.624V107.81C310.624 106.145 310.262 104.673 308.38 104.673C306.185 104.673 305.702 106.459 305.702 108.51V115.266H302.372V102.285H305.702ZM333.215 115.266H329.789L325.47 102.116V115.266H322.261V97.7727H327.28L331.526 111.405L335.652 97.7727H340.719V115.266H337.51V102.116L333.215 115.266ZM355.812 109.692H346.233C346.426 111.912 347.922 112.998 349.515 112.998C350.552 112.998 351.565 112.636 352.241 111.502H355.667C354.967 113.432 353.085 115.579 349.539 115.579C345.364 115.579 342.928 112.467 342.928 108.727C342.928 104.866 345.606 101.995 349.442 101.995C353.447 101.995 355.933 105.108 355.812 109.692ZM349.418 104.432C348.163 104.432 346.547 105.204 346.281 107.4H352.434C352.362 105.204 350.817 104.432 349.418 104.432ZM370.35 109.692H360.771C360.964 111.912 362.46 112.998 364.053 112.998C365.09 112.998 366.104 112.636 366.779 111.502H370.205C369.506 113.432 367.624 115.579 364.077 115.579C359.903 115.579 357.466 112.467 357.466 108.727C357.466 104.866 360.144 101.995 363.98 101.995C367.986 101.995 370.471 105.108 370.35 109.692ZM363.956 104.432C362.701 104.432 361.085 105.204 360.819 107.4H366.972C366.9 105.204 365.356 104.432 363.956 104.432ZM372.953 102.285V98.762H376.283V102.285H378.985V104.577H376.283V111.284C376.283 112.612 376.741 112.877 377.924 112.877H378.937V115.266H376.5C373.508 115.266 372.953 114.349 372.953 111.767V104.577H371.12V102.285H372.953ZM389.105 115.266V113.553C388.357 114.88 386.934 115.579 385.317 115.579C382.205 115.579 380.95 113.673 380.95 110.488V102.285H384.28V109.764C384.28 111.502 384.545 112.901 386.403 112.901C388.623 112.901 389.105 111.091 389.105 109.041V102.285H392.435V115.266H389.105ZM401.671 113.022C403.408 113.022 404.638 111.333 404.638 108.799C404.638 106.266 403.408 104.553 401.671 104.553C399.837 104.553 398.63 106.169 398.63 108.775C398.63 111.453 399.837 113.022 401.671 113.022ZM398.751 119.488H395.421V102.285H398.751V103.95C399.451 102.719 400.85 101.995 402.491 101.995C405.628 101.995 408.137 104.697 408.137 108.775C408.137 112.925 405.555 115.579 402.467 115.579C401.116 115.579 399.595 115.073 398.751 113.625V119.488Z" fill="black"/>
<path d="M227.59 126.236C230.383 126.236 232.189 127.706 232.189 130.163C232.189 133.25 229.543 136.253 223.936 140.474H232.651V141.734H222.13V140.432C227.737 136.169 230.803 133.145 230.803 130.31C230.803 128.357 229.312 127.391 227.59 127.391C225.679 127.391 223.936 128.294 223.873 131.213H222.487C222.634 127.958 224.566 126.236 227.59 126.236ZM240.449 142.007C236.417 142.007 234.59 138.962 234.59 134.111C234.59 129.302 236.417 126.236 240.449 126.236C244.439 126.236 246.287 129.302 246.287 134.111C246.287 138.962 244.439 142.007 240.449 142.007ZM240.449 140.852C243.179 140.852 244.922 138.71 244.922 134.111C244.922 129.554 243.179 127.391 240.449 127.391C237.698 127.391 235.976 129.554 235.976 134.111C235.976 138.71 237.698 140.852 240.449 140.852ZM253.512 126.236C256.305 126.236 258.111 127.706 258.111 130.163C258.111 133.25 255.465 136.253 249.858 140.474H258.573V141.734H248.052V140.432C253.659 136.169 256.725 133.145 256.725 130.31C256.725 128.357 255.234 127.391 253.512 127.391C251.601 127.391 249.858 128.294 249.795 131.213H248.409C248.556 127.958 250.488 126.236 253.512 126.236ZM265.615 140.852C267.736 140.852 269.542 139.403 269.542 136.757C269.542 133.901 267.505 132.725 265.573 132.725C263.851 132.725 262.423 133.649 261.982 134.678L260.701 134.552L261.688 126.509H270.298V127.769H262.822L262.15 132.977C262.885 132.137 264.397 131.549 265.888 131.549C268.702 131.549 270.928 133.376 270.928 136.736C270.928 140.201 268.387 142.007 265.615 142.007C262.591 142.007 260.554 140.033 260.281 137.45H261.667C262.108 139.802 263.809 140.852 265.615 140.852ZM278.814 136.715H272.934V135.245H278.814V136.715ZM286.715 142.007C282.683 142.007 280.856 138.962 280.856 134.111C280.856 129.302 282.683 126.236 286.715 126.236C290.705 126.236 292.553 129.302 292.553 134.111C292.553 138.962 290.705 142.007 286.715 142.007ZM286.715 140.852C289.445 140.852 291.188 138.71 291.188 134.111C291.188 129.554 289.445 127.391 286.715 127.391C283.964 127.391 282.242 129.554 282.242 134.111C282.242 138.71 283.964 140.852 286.715 140.852ZM296.166 136.904C296.166 139.235 297.783 140.852 300.051 140.852C302.34 140.852 303.936 139.235 303.936 136.904C303.936 134.405 302.403 132.788 300.051 132.788C297.699 132.788 296.166 134.405 296.166 136.904ZM300.303 127.391C297.636 127.391 295.914 129.68 295.914 134.069C296.607 132.641 298.182 131.633 300.198 131.633C303.222 131.633 305.322 133.817 305.322 136.841C305.322 139.697 303.264 142.007 300.051 142.007C296.292 142.007 294.591 139.319 294.591 134.72C294.591 129.932 296.124 126.236 300.513 126.236C303.243 126.236 304.797 127.832 305.07 130.016H303.684C303.411 128.231 302.088 127.391 300.303 127.391ZM313.206 136.715H307.326V135.245H313.206V136.715ZM319.793 126.236C322.586 126.236 324.392 127.706 324.392 130.163C324.392 133.25 321.746 136.253 316.139 140.474H324.854V141.734H314.333V140.432C319.94 136.169 323.006 133.145 323.006 130.31C323.006 128.357 321.515 127.391 319.793 127.391C317.882 127.391 316.139 128.294 316.076 131.213H314.69C314.837 127.958 316.769 126.236 319.793 126.236ZM328.137 136.904C328.137 139.235 329.754 140.852 332.022 140.852C334.311 140.852 335.907 139.235 335.907 136.904C335.907 134.405 334.374 132.788 332.022 132.788C329.67 132.788 328.137 134.405 328.137 136.904ZM332.274 127.391C329.607 127.391 327.885 129.68 327.885 134.069C328.578 132.641 330.153 131.633 332.169 131.633C335.193 131.633 337.293 133.817 337.293 136.841C337.293 139.697 335.235 142.007 332.022 142.007C328.263 142.007 326.562 139.319 326.562 134.72C326.562 129.932 328.095 126.236 332.484 126.236C335.214 126.236 336.768 127.832 337.041 130.016H335.655C335.382 128.231 334.059 127.391 332.274 127.391Z" fill="black"/>
<g clip-path="url(#clip2_5340_2553)">
<path d="M240.734 205.441C245.987 205.441 250.244 209.697 250.244 214.95C250.244 220.203 245.987 224.459 240.734 224.459C235.481 224.459 231.225 220.203 231.225 214.95C231.187 209.697 235.443 205.441 240.734 205.441Z" fill="black"/>
<path d="M235.635 216.407H237.513V213.57H235.635C234.868 213.57 234.216 214.221 234.216 214.988C234.216 215.755 234.829 216.407 235.635 216.407Z" fill="#FFF100"/>
<path d="M246.639 214.988C246.639 212.803 244.875 211.039 242.69 211.039C240.504 211.039 238.74 212.803 238.74 214.988C238.74 217.174 240.504 218.938 242.69 218.938C244.875 218.938 246.639 217.097 246.639 214.988Z" fill="#FFF100"/>
<path d="M268.879 212.497V216.485C268.879 217.328 268.342 217.942 267.614 217.942H267.269C266.54 217.942 266.003 217.328 266.003 216.485V212.497H264.623V216.715C264.623 218.248 265.735 219.322 267.23 219.322H267.652C269.186 219.322 270.26 218.21 270.26 216.715V212.497H268.879ZM310.176 216.485V215.219C310.176 214.299 310.713 213.647 311.518 213.647H311.863C312.86 213.647 313.55 214.414 313.55 215.488V216.178C313.55 217.29 312.822 218.057 311.863 218.057H311.518C310.713 218.018 310.176 217.405 310.176 216.485ZM308.911 216.485C308.911 218.133 309.984 219.322 311.48 219.322H311.825C312.438 219.322 312.975 219.015 313.397 218.517V219.207H314.739V212.497H313.397V213.225C312.975 212.727 312.438 212.42 311.825 212.42H311.48C309.946 212.42 308.911 213.57 308.911 215.258V216.485ZM302.967 219.207H308.259V217.827H304.348V210.541H302.967V219.207ZM317.308 216.178V215.488C317.308 214.414 317.998 213.647 318.995 213.647H319.34C320.146 213.647 320.682 214.299 320.682 215.219V216.446C320.682 217.367 320.146 218.018 319.34 218.018H318.995C317.998 218.018 317.308 217.29 317.308 216.178ZM316.081 219.207H317.423V218.479C317.845 218.977 318.382 219.284 318.995 219.284H319.34C320.874 219.284 321.948 218.095 321.948 216.446V215.219C321.948 213.532 320.874 212.382 319.34 212.382H318.995C318.382 212.382 317.845 212.689 317.423 213.187V210.58H316.081V219.207ZM326.818 214.376H328.121C327.891 213.149 326.856 212.382 325.399 212.382C323.75 212.382 322.753 213.11 322.753 214.299C322.753 215.219 323.482 215.948 324.67 216.14L325.744 216.37C326.472 216.523 326.933 216.83 326.933 217.29C326.933 217.827 326.396 218.172 325.552 218.172C324.709 218.172 324.172 217.75 324.018 217.098H322.638C322.83 218.479 323.903 219.322 325.476 219.322C327.201 219.322 328.236 218.44 328.236 217.098C328.236 216.101 327.354 215.373 325.936 215.104L324.939 214.913C324.402 214.759 324.057 214.491 324.057 214.146C324.057 213.724 324.555 213.455 325.322 213.455C326.166 213.494 326.703 213.839 326.818 214.376ZM281.61 214.913L284.179 212.19H282.223L279.961 214.644V210.541H278.58V219.169H279.961V216.638L280.613 215.948L282.875 219.207H284.6L281.61 214.913ZM259.868 217.827H258.181V211.96H259.868C261.172 211.96 262.207 213.264 262.207 214.874C262.207 216.485 261.172 217.827 259.868 217.827ZM259.868 210.541H256.801V219.207H259.868C261.901 219.207 263.588 217.29 263.588 214.874C263.588 212.458 261.939 210.541 259.868 210.541ZM288.627 217.827H286.978V211.96H288.627C289.93 211.96 290.966 213.264 290.966 214.874C290.966 216.485 289.93 217.827 288.627 217.827ZM288.627 210.541H285.597V219.207H288.627C290.697 219.207 292.346 217.29 292.346 214.874C292.346 212.458 290.697 210.541 288.627 210.541ZM296.947 217.827H294.8V215.411H296.947C297.599 215.411 298.136 215.948 298.136 216.6C298.136 217.29 297.599 217.827 296.947 217.827ZM294.8 214.031V211.96H296.526C297.101 211.96 297.561 212.42 297.561 212.995C297.561 213.57 297.101 214.031 296.526 214.031H294.8ZM298.443 214.491C298.75 214.069 298.98 213.532 298.98 212.995C298.98 211.653 297.868 210.541 296.526 210.541H293.42V219.207H296.947C298.366 219.207 299.516 218.057 299.516 216.6C299.516 215.756 299.095 214.951 298.443 214.491ZM274.209 213.762H274.554C275.398 213.762 276.05 214.376 276.05 215.104H277.468C277.468 213.609 276.165 212.382 274.554 212.382H274.209C272.637 212.382 271.372 213.647 271.372 215.219V216.446C271.372 218.018 272.637 219.284 274.209 219.284H274.554C276.203 219.284 277.545 218.057 277.545 216.561H276.126C276.126 217.29 275.398 217.865 274.554 217.865H274.209C273.404 217.865 272.752 217.213 272.752 216.446V215.219C272.752 214.414 273.404 213.762 274.209 213.762Z" fill="black"/>
</g>
</g>
<defs>
<linearGradient id="paint0_linear_5340_2553" x1="47.9998" y1="228.5" x2="53.8852" y2="187.028" gradientUnits="userSpaceOnUse">
<stop stop-color="#EDDD0C"/>
<stop offset="1" stop-color="#CCBD00"/>
</linearGradient>
<linearGradient id="paint1_linear_5340_2553" x1="594" y1="148" x2="516.484" y2="34.0736" gradientUnits="userSpaceOnUse">
<stop stop-color="#EDDD0C"/>
<stop offset="1" stop-color="#CCBD00"/>
</linearGradient>
<clipPath id="clip0_5340_2553">
<rect width="560" height="240" fill="white"/>
</clipPath>
<clipPath id="clip1_5340_2553">
<rect width="560" height="240" fill="white"/>
</clipPath>
<clipPath id="clip2_5340_2553">
<rect width="97.0112" height="19.0188" fill="white" transform="translate(231.226 205.441)"/>
</clipPath>
</defs>
</svg>
