<svg xmlns="http://www.w3.org/2000/svg" width="1200" height="515" fill="none" viewBox="0 0 1200 515"><g clip-path="url(#clip0_12437_25619)"><g clip-path="url(#clip1_12437_25619)"><rect width="1200" height="515" fill="url(#paint0_linear_12437_25619)"/><path stroke="#F0DF09" stroke-width="2.993" d="M534.999 -473.862L619.612 -473.862C655.51 -473.862 684.612 -444.761 684.612 -408.862L684.612 -199C684.612 -163.102 713.713 -134 749.612 -134L816 -134C851.899 -134 881 -104.899 881 -69L881 108.5C881 144.398 910.102 173.5 946 173.5L1208 173.5"/><path stroke="#F0DF09" stroke-width="2.993" d="M603 749.902L782.688 749.902C818.586 749.902 847.688 720.801 847.688 684.902L847.688 496.402C847.688 460.504 876.789 431.402 912.688 431.402L985 431.402C1020.9 431.402 1050 402.301 1050 366.402L1050 -148.098"/><path stroke="#F0DF09" stroke-width="2.993" d="M372 631.403L372 512.5C372 476.602 342.898 447.5 307 447.5L166 447.501C130.102 447.501 101 418.399 101 382.501L101 149.965C101 114.066 130.102 84.9648 166 84.9648L483.244 84.9649C519.142 84.9649 548.244 55.8634 548.244 19.9649L548.244 -373.097C548.244 -408.996 577.345 -438.097 613.244 -438.097L793 -438.097"/><rect width="16.076" height="38.076" x="92.962" y="245.866" fill="#D4C50B" stroke="#F0DF09" stroke-width="1.924" rx="8.038"/><path fill="#F3E223" d="M648.645 108.28C646.666 108.28 645.089 107.757 643.913 106.712C642.737 105.667 642.149 104.229 642.149 102.4H644.669C644.669 103.539 645.033 104.435 645.761 105.088C646.489 105.723 647.45 106.04 648.645 106.04C649.802 106.04 650.726 105.704 651.417 105.032C652.107 104.36 652.453 103.483 652.453 102.4C652.453 101.579 652.229 100.869 651.781 100.272C651.351 99.656 650.726 99.236 649.905 99.012L646.797 98.144C645.509 97.7707 644.491 97.108 643.745 96.156C643.017 95.1853 642.653 94.0467 642.653 92.74C642.653 91.6573 642.895 90.7053 643.381 89.884C643.866 89.0627 644.547 88.428 645.425 87.98C646.302 87.5133 647.31 87.28 648.449 87.28C649.606 87.28 650.623 87.5133 651.501 87.98C652.397 88.428 653.097 89.0627 653.601 89.884C654.105 90.6867 654.357 91.62 654.357 92.684H651.837C651.837 91.7507 651.519 90.9947 650.885 90.416C650.25 89.8187 649.438 89.52 648.449 89.52C647.459 89.52 646.657 89.8187 646.041 90.416C645.425 90.9947 645.117 91.7507 645.117 92.684C645.117 93.4307 645.313 94.0747 645.705 94.616C646.115 95.1387 646.685 95.5027 647.413 95.708L650.605 96.604C651.967 96.9773 653.022 97.6867 653.769 98.732C654.534 99.7587 654.917 100.981 654.917 102.4C654.917 104.192 654.347 105.62 653.209 106.684C652.07 107.748 650.549 108.28 648.645 108.28ZM659.722 108V87.56H671.482V89.856H662.214V96.184H670.502V98.424H662.214V105.704H671.482V108H659.722ZM677.351 108V87.56H679.871V105.704H689.111V108H677.351ZM693.3 108V87.56H705.06V89.856H695.792V96.184H704.08V98.424H695.792V105.704H705.06V108H693.3ZM715.913 108.28C714.046 108.28 712.572 107.757 711.489 106.712C710.406 105.667 709.865 104.229 709.865 102.4V93.16C709.865 91.3307 710.406 89.8933 711.489 88.848C712.572 87.8027 714.046 87.28 715.913 87.28C717.742 87.28 719.198 87.812 720.281 88.876C721.364 89.9213 721.905 91.3493 721.905 93.16H719.385C719.385 92.0027 719.077 91.116 718.461 90.5C717.864 89.8653 717.014 89.548 715.913 89.548C714.812 89.548 713.944 89.8653 713.309 90.5C712.693 91.116 712.385 92.0027 712.385 93.16V102.4C712.385 103.557 712.693 104.453 713.309 105.088C713.944 105.704 714.812 106.012 715.913 106.012C717.014 106.012 717.864 105.704 718.461 105.088C719.077 104.453 719.385 103.557 719.385 102.4H721.905C721.905 104.211 721.364 105.648 720.281 106.712C719.198 107.757 717.742 108.28 715.913 108.28ZM731.218 108V89.856H725.618V87.56H739.338V89.856H733.738V108H731.218Z"/><path fill="#F3E223" d="M287.58 325.36C284.911 324.763 282.839 323.512 281.364 321.608C279.908 319.704 279.18 317.315 279.18 314.44V309.4C279.18 306.525 279.908 304.136 281.364 302.232C282.839 300.328 284.911 299.077 287.58 298.48V300.916C286.385 301.196 285.34 301.728 284.444 302.512C283.567 303.296 282.885 304.276 282.4 305.452C281.933 306.609 281.7 307.925 281.7 309.4V314.44C281.7 315.896 281.933 317.212 282.4 318.388C282.885 319.564 283.567 320.544 284.444 321.328C285.34 322.112 286.385 322.644 287.58 322.924V325.36ZM294.009 325.36V322.924C295.222 322.644 296.268 322.112 297.145 321.328C298.022 320.544 298.694 319.564 299.161 318.388C299.646 317.212 299.889 315.896 299.889 314.44V309.4C299.889 307.925 299.646 306.609 299.161 305.452C298.694 304.276 298.022 303.296 297.145 302.512C296.268 301.728 295.222 301.196 294.009 300.916V298.48C296.678 299.077 298.741 300.328 300.197 302.232C301.672 304.136 302.409 306.525 302.409 309.4V314.44C302.409 317.315 301.672 319.704 300.197 321.608C298.741 323.512 296.678 324.763 294.009 325.36ZM315.698 310.52C315.082 310.52 314.578 310.324 314.186 309.932C313.794 309.54 313.598 309.036 313.598 308.42C313.598 307.823 313.794 307.328 314.186 306.936C314.597 306.525 315.101 306.32 315.698 306.32H316.258C316.855 306.32 317.35 306.525 317.742 306.936C318.153 307.328 318.358 307.823 318.358 308.42C318.358 309.036 318.162 309.54 317.77 309.932C317.378 310.324 316.874 310.52 316.258 310.52H315.698ZM313.318 326.48L314.858 317.912H317.882L315.922 326.48H313.318Z"/><path fill="#F3E223" d="M1115.4 127.28C1114.71 127.28 1114.15 127.075 1113.72 126.664C1113.31 126.253 1113.1 125.721 1113.1 125.068C1113.1 124.377 1113.31 123.817 1113.72 123.388C1114.15 122.959 1114.71 122.744 1115.4 122.744C1116.09 122.744 1116.64 122.959 1117.05 123.388C1117.48 123.817 1117.7 124.377 1117.7 125.068C1117.7 125.721 1117.48 126.253 1117.05 126.664C1116.64 127.075 1116.09 127.28 1115.4 127.28ZM1128.75 124.116L1126.81 122.744L1128.63 120.14C1128.88 119.804 1129.2 119.393 1129.61 118.908C1130.04 118.423 1130.44 117.993 1130.82 117.62C1130.29 117.545 1129.74 117.433 1129.17 117.284C1128.59 117.135 1128.13 116.995 1127.79 116.864L1124.8 115.744L1125.58 113.532L1128.61 114.652C1128.92 114.764 1129.34 114.941 1129.87 115.184C1130.39 115.427 1130.86 115.679 1131.29 115.94C1131.2 115.455 1131.13 114.96 1131.07 114.456C1131.03 113.933 1131.01 113.495 1131.01 113.14V109.64H1133.37V113.14C1133.37 113.495 1133.34 113.933 1133.28 114.456C1133.23 114.96 1133.15 115.455 1133.06 115.94C1133.51 115.679 1133.98 115.427 1134.49 115.184C1135.01 114.941 1135.44 114.764 1135.77 114.652L1138.8 113.532L1139.58 115.744L1136.59 116.864C1136.25 116.995 1135.79 117.135 1135.21 117.284C1134.63 117.433 1134.08 117.545 1133.56 117.62C1133.93 117.993 1134.34 118.432 1134.77 118.936C1135.19 119.421 1135.52 119.823 1135.75 120.14L1137.57 122.744L1135.63 124.116L1133.81 121.484C1133.59 121.167 1133.32 120.728 1133 120.168C1132.68 119.608 1132.41 119.085 1132.19 118.6C1131.97 119.085 1131.69 119.608 1131.38 120.168C1131.06 120.709 1130.79 121.148 1130.57 121.484L1128.75 124.116Z"/><path fill="#F0DF09" d="M548.493 881.278C548.493 882.104 549.163 882.774 549.989 882.774C550.815 882.774 551.485 882.104 551.485 881.278L549.989 881.278L548.493 881.278ZM551.046 392.72C550.462 392.135 549.515 392.135 548.93 392.72L539.408 402.242C538.823 402.827 538.823 403.774 539.408 404.358C539.992 404.943 540.94 404.943 541.524 404.358L549.988 395.894L558.453 404.358C559.037 404.943 559.984 404.943 560.569 404.358C561.153 403.774 561.153 402.827 560.569 402.242L551.046 392.72ZM549.989 881.278L551.485 881.278L551.485 393.778L549.988 393.778L548.492 393.778L548.493 881.278L549.989 881.278Z"/></g><path fill="#000" d="M267.429 326.477C228.778 326.477 197.564 295.264 197.564 256.613C197.564 217.962 228.778 186.749 267.429 186.749C306.079 186.749 337.293 217.962 337.293 256.613C337.293 295.264 306.079 326.477 267.429 326.477Z"/><path fill="#FFF100" d="M304.785 246.248H291.08V266.931H304.785C310.468 266.931 315.19 262.21 315.19 256.527C315.19 250.803 310.468 246.248 304.785 246.248Z"/><path fill="#FFF100" d="M223.928 256.614C223.928 272.576 236.923 285.571 252.885 285.571C268.846 285.571 281.841 272.576 281.841 256.614C281.841 240.652 268.846 227.657 252.885 227.657C236.923 227.657 223.928 240.652 223.928 256.614Z"/><path fill="#000" d="M373.121 274.113V239.098H382.523C384.793 239.098 386.76 239.545 388.423 240.441C390.118 241.304 391.429 242.535 392.356 244.134C393.283 245.701 393.747 247.556 393.747 249.698V263.465C393.747 265.607 393.283 267.478 392.356 269.077C391.429 270.676 390.118 271.923 388.423 272.818C386.76 273.682 384.793 274.113 382.523 274.113H373.121ZM377.87 269.892H382.523C384.537 269.892 386.12 269.317 387.272 268.165C388.423 267.014 388.998 265.447 388.998 263.465V249.698C388.998 247.716 388.423 246.165 387.272 245.046C386.12 243.894 384.537 243.319 382.523 243.319H377.87V269.892ZM412.004 274.593C408.902 274.593 406.423 273.682 404.569 271.859C402.714 270.036 401.787 267.558 401.787 264.424V247.732H406.535V264.424C406.535 266.279 407.015 267.75 407.974 268.837C408.966 269.892 410.309 270.42 412.004 270.42C413.73 270.42 415.089 269.892 416.081 268.837C417.072 267.75 417.568 266.279 417.568 264.424V247.732H422.316V264.424C422.316 267.558 421.373 270.036 419.486 271.859C417.632 273.682 415.137 274.593 412.004 274.593ZM441.196 274.593C437.967 274.593 435.376 273.698 433.426 271.907C431.475 270.084 430.5 267.59 430.5 264.424V257.373C430.5 254.239 431.475 251.777 433.426 249.986C435.376 248.163 437.967 247.252 441.196 247.252C444.298 247.252 446.792 248.083 448.679 249.746C450.598 251.377 451.605 253.616 451.701 256.462H447C446.904 254.863 446.329 253.632 445.274 252.768C444.25 251.873 442.891 251.425 441.196 251.425C439.374 251.425 437.919 251.953 436.831 253.008C435.776 254.031 435.249 255.486 435.249 257.373V264.424C435.249 266.343 435.776 267.814 436.831 268.837C437.919 269.86 439.374 270.372 441.196 270.372C442.923 270.372 444.298 269.94 445.322 269.077C446.345 268.213 446.904 266.982 447 265.383H451.701C451.605 268.229 450.598 270.484 448.679 272.147C446.792 273.778 444.298 274.593 441.196 274.593ZM459.645 274.113V239.098H464.393V258.476H469.238L476.337 247.732H481.709L473.411 260.347L482.141 274.113H476.673L469.286 262.553H464.393V274.113H459.645ZM488.166 274.113V239.098H497.568C499.838 239.098 501.805 239.545 503.467 240.441C505.162 241.304 506.473 242.535 507.401 244.134C508.328 245.701 508.792 247.556 508.792 249.698V263.465C508.792 265.607 508.328 267.478 507.401 269.077C506.473 270.676 505.162 271.923 503.467 272.818C501.805 273.682 499.838 274.113 497.568 274.113H488.166ZM492.915 269.892H497.568C499.582 269.892 501.165 269.317 502.316 268.165C503.467 267.014 504.043 265.447 504.043 263.465V249.698C504.043 247.716 503.467 246.165 502.316 245.046C501.165 243.894 499.582 243.319 497.568 243.319H492.915V269.892ZM516.975 274.113V239.098H527.096C530.326 239.098 532.868 239.913 534.723 241.544C536.61 243.143 537.553 245.349 537.553 248.163C537.553 249.986 536.977 251.617 535.826 253.056C534.707 254.463 533.252 255.326 531.461 255.646V255.79C532.804 255.95 533.987 256.43 535.011 257.229C536.066 258.029 536.881 259.052 537.457 260.299C538.065 261.514 538.368 262.857 538.368 264.328C538.368 267.334 537.409 269.716 535.49 271.475C533.604 273.234 531.029 274.113 527.768 274.113H516.975ZM521.628 253.871H527.048C528.839 253.871 530.246 253.408 531.269 252.48C532.293 251.521 532.804 250.226 532.804 248.595C532.804 246.932 532.293 245.637 531.269 244.71C530.246 243.75 528.855 243.271 527.096 243.271H521.628V253.871ZM521.628 269.94H527.336C529.287 269.94 530.822 269.429 531.941 268.405C533.06 267.35 533.62 265.927 533.62 264.136C533.62 262.282 533.06 260.779 531.941 259.627C530.822 258.476 529.287 257.901 527.336 257.901H521.628V269.94ZM574.498 274.113V269.796H583.851V243.367L574.45 250.37V244.998L582.412 239.098H588.6V269.796H596.274V274.113H574.498ZM613.38 274.593C612.165 274.593 611.173 274.225 610.406 273.49C609.67 272.754 609.303 271.811 609.303 270.66C609.303 269.445 609.67 268.453 610.406 267.686C611.173 266.918 612.165 266.535 613.38 266.535C614.595 266.535 615.57 266.918 616.306 267.686C617.073 268.453 617.457 269.445 617.457 270.66C617.457 271.811 617.073 272.754 616.306 273.49C615.57 274.225 614.595 274.593 613.38 274.593ZM641.901 274.593C638.607 274.593 636.001 273.698 634.082 271.907C632.164 270.084 631.204 267.622 631.204 264.52H635.953C635.953 266.343 636.481 267.782 637.536 268.837C638.623 269.86 640.078 270.372 641.901 270.372C643.756 270.372 645.211 269.844 646.266 268.789C647.353 267.734 647.897 266.295 647.897 264.472V262.266C647.897 260.443 647.369 259.004 646.314 257.949C645.291 256.893 643.884 256.366 642.093 256.366H632.404V239.098H651.398V243.415H636.817L636.912 252.097H642.333C645.594 252.097 648.121 252.992 649.911 254.783C651.734 256.542 652.646 259.036 652.646 262.266V264.472C652.646 267.606 651.67 270.084 649.72 271.907C647.801 273.698 645.195 274.593 641.901 274.593ZM670.902 274.593C669.687 274.593 668.696 274.225 667.928 273.49C667.193 272.754 666.825 271.811 666.825 270.66C666.825 269.445 667.193 268.453 667.928 267.686C668.696 266.918 669.687 266.535 670.902 266.535C672.117 266.535 673.092 266.918 673.828 267.686C674.595 268.453 674.979 269.445 674.979 270.66C674.979 271.811 674.595 272.754 673.828 273.49C673.092 274.225 672.117 274.593 670.902 274.593ZM699.663 274.593C696.369 274.593 693.763 273.666 691.845 271.811C689.926 269.924 688.967 267.398 688.967 264.232V248.979C688.967 245.813 689.926 243.303 691.845 241.448C693.763 239.561 696.369 238.618 699.663 238.618C702.957 238.618 705.563 239.561 707.482 241.448C709.4 243.303 710.36 245.813 710.36 248.979V264.232C710.36 266.311 709.912 268.133 709.017 269.7C708.153 271.235 706.922 272.434 705.323 273.298C703.724 274.161 701.838 274.593 699.663 274.593ZM699.663 270.516C701.518 270.516 703.005 269.94 704.124 268.789C705.243 267.606 705.803 266.087 705.803 264.232V248.979C705.803 247.124 705.243 245.621 704.124 244.47C703.005 243.287 701.518 242.695 699.663 242.695C697.808 242.695 696.322 243.287 695.202 244.47C694.083 245.621 693.523 247.124 693.523 248.979V264.232C693.523 266.087 694.083 267.606 695.202 268.789C696.322 269.94 697.808 270.516 699.663 270.516ZM699.663 259.292C698.768 259.292 698.048 259.052 697.505 258.572C696.993 258.06 696.737 257.357 696.737 256.462C696.737 255.566 696.993 254.895 697.505 254.447C698.048 253.967 698.768 253.728 699.663 253.728C700.559 253.728 701.278 253.967 701.822 254.447C702.365 254.895 702.637 255.566 702.637 256.462C702.637 257.357 702.365 258.06 701.822 258.572C701.278 259.052 700.559 259.292 699.663 259.292ZM753.972 274.113L745.002 239.098H749.895L755.699 262.697C756.082 264.2 756.402 265.655 756.658 267.062C756.946 268.437 757.154 269.493 757.281 270.228C757.377 269.493 757.569 268.421 757.857 267.014C758.177 265.607 758.513 264.152 758.864 262.649L764.476 239.098H769.369L760.351 274.113H753.972ZM783.5 274.593C780.782 274.593 778.624 273.841 777.025 272.339C775.458 270.804 774.675 268.805 774.675 266.343C774.675 263.88 775.49 261.898 777.121 260.395C778.784 258.892 780.958 258.14 783.644 258.14H791.367V256.126C791.367 252.896 789.576 251.281 785.995 251.281C784.396 251.281 783.101 251.585 782.109 252.193C781.15 252.768 780.638 253.584 780.574 254.639H775.874C776.034 252.496 777.009 250.738 778.8 249.363C780.59 247.956 782.989 247.252 785.995 247.252C789.224 247.252 791.719 248.02 793.477 249.554C795.236 251.089 796.116 253.248 796.116 256.03V274.113H791.463V269.269H791.367C791.143 270.9 790.328 272.195 788.921 273.154C787.546 274.113 785.739 274.593 783.5 274.593ZM784.747 270.612C786.762 270.612 788.361 270.132 789.544 269.173C790.759 268.181 791.367 266.838 791.367 265.144V261.642H784.076C782.701 261.642 781.582 262.058 780.718 262.889C779.887 263.689 779.471 264.76 779.471 266.103C779.471 267.478 779.935 268.581 780.862 269.413C781.79 270.212 783.085 270.612 784.747 270.612ZM805.498 274.113V247.732H810.199V252.816H810.247C810.503 251.089 811.238 249.73 812.453 248.739C813.701 247.748 815.347 247.252 817.394 247.252C820.112 247.252 822.223 248.099 823.726 249.794C825.228 251.457 825.98 253.807 825.98 256.845V259.148H821.231V256.893C821.231 253.216 819.425 251.377 815.811 251.377C813.988 251.377 812.597 251.905 811.638 252.96C810.711 254.015 810.247 255.518 810.247 257.469V274.113H805.498ZM833.06 274.113V269.796H842.318V252.049H834.02V247.732H847.066V269.796H855.748V274.113H833.06ZM844.236 243.079C843.149 243.079 842.286 242.807 841.646 242.264C841.007 241.688 840.687 240.92 840.687 239.961C840.687 238.97 841.007 238.186 841.646 237.611C842.286 237.035 843.149 236.747 844.236 236.747C845.324 236.747 846.187 237.035 846.827 237.611C847.466 238.186 847.786 238.97 847.786 239.961C847.786 240.92 847.466 241.688 846.827 242.264C846.187 242.807 845.324 243.079 844.236 243.079ZM872.23 274.593C869.064 274.593 866.506 273.65 864.556 271.763C862.637 269.876 861.678 267.302 861.678 264.04V257.805C861.678 254.543 862.637 251.969 864.556 250.082C866.506 248.195 869.064 247.252 872.23 247.252C874.341 247.252 876.179 247.684 877.746 248.547C879.345 249.379 880.576 250.562 881.44 252.097C882.335 253.6 882.783 255.358 882.783 257.373V262.122H866.33V264.424C866.33 266.343 866.858 267.846 867.913 268.933C868.968 270.02 870.407 270.564 872.23 270.564C873.765 270.564 875.028 270.276 876.02 269.7C877.011 269.125 877.602 268.325 877.794 267.302H882.543C882.223 269.54 881.12 271.315 879.233 272.626C877.347 273.937 875.012 274.593 872.23 274.593ZM866.33 257.373V258.62H878.13V257.373C878.13 255.358 877.618 253.807 876.595 252.72C875.572 251.633 874.117 251.089 872.23 251.089C870.343 251.089 868.888 251.633 867.865 252.72C866.842 253.807 866.33 255.358 866.33 257.373ZM894.228 282.747V278.526H901.663C903.102 278.526 904.253 278.11 905.116 277.279C905.98 276.48 906.412 275.376 906.412 273.969V271.763L906.507 267.206H906.46C906.14 268.837 905.356 270.1 904.109 270.995C902.894 271.891 901.327 272.339 899.408 272.339C896.69 272.339 894.548 271.475 892.981 269.748C891.414 267.99 890.631 265.591 890.631 262.553V257.133C890.631 254.095 891.414 251.697 892.981 249.938C894.548 248.147 896.69 247.252 899.408 247.252C901.263 247.252 902.798 247.7 904.013 248.595C905.26 249.49 906.06 250.722 906.412 252.289H906.46V247.732H911.112V274.017C911.112 276.703 910.265 278.83 908.57 280.397C906.875 281.964 904.573 282.747 901.663 282.747H894.228ZM900.895 268.357C902.59 268.357 903.933 267.83 904.925 266.774C905.916 265.719 906.412 264.232 906.412 262.314V257.373C906.412 255.486 905.916 254.015 904.925 252.96C903.933 251.905 902.59 251.377 900.895 251.377C899.137 251.377 897.778 251.889 896.818 252.912C895.859 253.903 895.379 255.262 895.379 256.989V262.745C895.379 264.472 895.859 265.847 896.818 266.87C897.778 267.862 899.137 268.357 900.895 268.357ZM927.306 274.593C924.588 274.593 922.43 273.841 920.831 272.339C919.264 270.804 918.48 268.805 918.48 266.343C918.48 263.88 919.296 261.898 920.927 260.395C922.59 258.892 924.764 258.14 927.45 258.14H935.173V256.126C935.173 252.896 933.382 251.281 929.8 251.281C928.202 251.281 926.906 251.585 925.915 252.193C924.956 252.768 924.444 253.584 924.38 254.639H919.68C919.839 252.496 920.815 250.738 922.605 249.363C924.396 247.956 926.795 247.252 929.8 247.252C933.03 247.252 935.524 248.02 937.283 249.554C939.042 251.089 939.921 253.248 939.921 256.03V274.113H935.269V269.269H935.173C934.949 270.9 934.133 272.195 932.726 273.154C931.351 274.113 929.545 274.593 927.306 274.593ZM928.553 270.612C930.568 270.612 932.167 270.132 933.35 269.173C934.565 268.181 935.173 266.838 935.173 265.144V261.642H927.882C926.507 261.642 925.388 262.058 924.524 262.889C923.693 263.689 923.277 264.76 923.277 266.103C923.277 267.478 923.741 268.581 924.668 269.413C925.595 270.212 926.89 270.612 928.553 270.612ZM961.152 274.113C958.881 274.113 957.075 273.458 955.732 272.147C954.421 270.836 953.765 269.093 953.765 266.918V252.049H946.234V247.732H953.765V240.297H958.514V247.732H969.21V252.049H958.514V266.87C958.514 267.734 958.754 268.437 959.233 268.981C959.745 269.524 960.416 269.796 961.248 269.796H968.97V274.113H961.152ZM984.829 274.593C982.11 274.593 979.952 273.841 978.353 272.339C976.786 270.804 976.003 268.805 976.003 266.343C976.003 263.88 976.818 261.898 978.449 260.395C980.112 258.892 982.286 258.14 984.972 258.14H992.695V256.126C992.695 252.896 990.904 251.281 987.323 251.281C985.724 251.281 984.429 251.585 983.438 252.193C982.478 252.768 981.967 253.584 981.903 254.639H977.202C977.362 252.496 978.337 250.738 980.128 249.363C981.919 247.956 984.317 247.252 987.323 247.252C990.553 247.252 993.047 248.02 994.806 249.554C996.564 251.089 997.444 253.248 997.444 256.03V274.113H992.791V269.269H992.695C992.471 270.9 991.656 272.195 990.249 273.154C988.874 274.113 987.067 274.593 984.829 274.593ZM986.076 270.612C988.09 270.612 989.689 270.132 990.872 269.173C992.087 268.181 992.695 266.838 992.695 265.144V261.642H985.404C984.029 261.642 982.91 262.058 982.046 262.889C981.215 263.689 980.799 264.76 980.799 266.103C980.799 267.478 981.263 268.581 982.19 269.413C983.118 270.212 984.413 270.612 986.076 270.612Z"/></g><defs><linearGradient id="paint0_linear_12437_25619" x1="589" x2="587" y1="-26.5" y2="627" gradientUnits="userSpaceOnUse"><stop stop-color="#FDEF00"/><stop offset=".939" stop-color="#FFFAA3"/></linearGradient><clipPath id="clip0_12437_25619"><rect width="1200" height="514.29" fill="#fff"/></clipPath><clipPath id="clip1_12437_25619"><rect width="1200" height="515" fill="#fff"/></clipPath></defs></svg>