<svg width="560" height="315" viewBox="0 0 560 315" fill="none" xmlns="http://www.w3.org/2000/svg">
<g clip-path="url(#clip0_6167_4506)">
<rect width="560" height="315" fill="#FFF100"/>
<g clip-path="url(#clip1_6167_4506)">
<rect width="560" height="315" fill="#FFF100"/>
<path d="M510.403 348.5L510.402 104.964C510.402 93.9186 501.448 84.9643 490.402 84.9643L319.913 84.9644C308.867 84.9644 299.913 76.0101 299.913 64.9644L299.913 -29C299.913 -40.0457 308.867 -49 319.913 -49L579.913 -49C590.959 -49 599.913 -40.0457 599.913 -29L599.913 348.5C599.913 359.546 590.959 368.5 579.913 368.5L530.403 368.5C519.357 368.5 510.403 359.546 510.403 348.5Z" fill="#EDDD0C"/>
<path d="M322 230.535L322 328.5C322 339.546 313.046 348.5 302 348.5L-6.99997 348.5C-18.0457 348.5 -27 339.546 -27 328.5L-27 73C-27 61.9543 -18.0457 53 -6.99997 53L51.7316 53C62.7773 53 71.7316 61.9543 71.7316 73L71.7316 190.535C71.7316 201.581 80.6859 210.535 91.7316 210.535L302 210.535C313.046 210.535 322 219.489 322 230.535Z" fill="#EDDD0C"/>
<rect width="235" height="181" rx="20" transform="matrix(-1 0 0 1 157 245)" fill="#FFF100"/>
</g>
<path d="M138.5 191C119.967 191 105 176.033 105 157.5C105 138.967 119.967 124 138.5 124C157.033 124 172 138.967 172 157.5C172 176.033 157.033 191 138.5 191Z" fill="black"/>
<path d="M156.413 152.531H149.841V162.449H156.413C159.137 162.449 161.402 160.184 161.402 157.46C161.402 154.715 159.137 152.531 156.413 152.531Z" fill="#FFF100"/>
<path d="M117.642 157.5C117.642 165.154 123.873 171.385 131.526 171.385C139.18 171.385 145.411 165.154 145.411 157.5C145.411 149.846 139.18 143.615 131.526 143.615C123.873 143.615 117.642 149.846 117.642 157.5Z" fill="#FFF100"/>
<path d="M203.394 166.184C201.953 166.184 200.833 165.862 200.036 165.218C199.239 164.574 198.84 163.669 198.84 162.504H201.094C201.094 163.056 201.293 163.493 201.692 163.815C202.106 164.122 202.673 164.275 203.394 164.275H204.406C205.157 164.275 205.732 164.114 206.131 163.792C206.545 163.47 206.752 163.018 206.752 162.435C206.752 161.408 206.246 160.833 205.234 160.71L201.83 160.227C200.925 160.089 200.228 159.721 199.737 159.123C199.246 158.51 199.001 157.72 199.001 156.754C199.001 155.619 199.384 154.738 200.151 154.109C200.918 153.48 201.991 153.166 203.371 153.166H204.383C205.671 153.166 206.714 153.473 207.511 154.086C208.308 154.699 208.73 155.512 208.776 156.524H206.476C206.445 156.095 206.246 155.742 205.878 155.466C205.51 155.175 205.012 155.029 204.383 155.029H203.371C202.681 155.029 202.144 155.182 201.761 155.489C201.393 155.796 201.209 156.21 201.209 156.731C201.209 157.574 201.631 158.05 202.474 158.157L205.671 158.617C207.864 158.908 208.96 160.181 208.96 162.435C208.96 163.631 208.561 164.559 207.764 165.218C206.982 165.862 205.863 166.184 204.406 166.184H203.394ZM217.875 166.23C216.326 166.23 215.084 165.801 214.149 164.942C213.214 164.068 212.746 162.872 212.746 161.354V157.973C212.746 156.47 213.214 155.29 214.149 154.431C215.084 153.557 216.326 153.12 217.875 153.12C219.362 153.12 220.558 153.519 221.463 154.316C222.383 155.098 222.866 156.171 222.912 157.536H220.658C220.612 156.769 220.336 156.179 219.83 155.765C219.339 155.336 218.688 155.121 217.875 155.121C217.001 155.121 216.303 155.374 215.782 155.88C215.276 156.371 215.023 157.068 215.023 157.973V161.354C215.023 162.274 215.276 162.979 215.782 163.47C216.303 163.961 217.001 164.206 217.875 164.206C218.703 164.206 219.362 163.999 219.853 163.585C220.344 163.171 220.612 162.581 220.658 161.814H222.912C222.866 163.179 222.383 164.26 221.463 165.057C220.558 165.839 219.362 166.23 217.875 166.23ZM226.491 166V163.93H230.93V155.42H226.951V153.35H233.207V163.93H237.37V166H226.491ZM231.85 151.119C231.329 151.119 230.915 150.989 230.608 150.728C230.301 150.452 230.148 150.084 230.148 149.624C230.148 149.149 230.301 148.773 230.608 148.497C230.915 148.221 231.329 148.083 231.85 148.083C232.371 148.083 232.785 148.221 233.092 148.497C233.399 148.773 233.552 149.149 233.552 149.624C233.552 150.084 233.399 150.452 233.092 150.728C232.785 150.989 232.371 151.119 231.85 151.119ZM240.512 166V149.21H242.789V158.502H245.112L248.516 153.35H251.092L247.113 159.399L251.299 166H248.677L245.135 160.457H242.789V166H240.512ZM254.073 166V163.93H258.512V155.42H254.533V153.35H260.789V163.93H264.952V166H254.073ZM259.432 151.119C258.911 151.119 258.497 150.989 258.19 150.728C257.883 150.452 257.73 150.084 257.73 149.624C257.73 149.149 257.883 148.773 258.19 148.497C258.497 148.221 258.911 148.083 259.432 148.083C259.953 148.083 260.367 148.221 260.674 148.497C260.981 148.773 261.134 149.149 261.134 149.624C261.134 150.084 260.981 150.452 260.674 150.728C260.367 150.989 259.953 151.119 259.432 151.119ZM274.12 166C273.031 166 272.165 165.686 271.521 165.057C270.892 164.428 270.578 163.593 270.578 162.55V155.42H266.967V153.35H270.578V149.785H272.855V153.35H277.984V155.42H272.855V162.527C272.855 162.941 272.97 163.278 273.2 163.539C273.445 163.8 273.767 163.93 274.166 163.93H277.869V166H274.12ZM282.966 159.422V157.375H290.326V159.422H282.966ZM302.323 166C301.173 166 300.253 165.663 299.563 164.988C298.873 164.313 298.528 163.416 298.528 162.297V151.28H294.204V149.21H300.805V162.274C300.805 162.78 300.943 163.186 301.219 163.493C301.51 163.784 301.901 163.93 302.392 163.93H306.233V166H302.323ZM314.228 166.23C312.71 166.23 311.483 165.778 310.548 164.873C309.628 163.968 309.168 162.734 309.168 161.17V158.18C309.168 156.616 309.628 155.382 310.548 154.477C311.483 153.572 312.71 153.12 314.228 153.12C315.24 153.12 316.122 153.327 316.873 153.741C317.64 154.14 318.23 154.707 318.644 155.443C319.073 156.164 319.288 157.007 319.288 157.973V160.25H311.399V161.354C311.399 162.274 311.652 162.995 312.158 163.516C312.664 164.037 313.354 164.298 314.228 164.298C314.964 164.298 315.57 164.16 316.045 163.884C316.52 163.608 316.804 163.225 316.896 162.734H319.173C319.02 163.807 318.491 164.658 317.586 165.287C316.681 165.916 315.562 166.23 314.228 166.23ZM311.399 157.973V158.571H317.057V157.973C317.057 157.007 316.812 156.263 316.321 155.742C315.83 155.221 315.133 154.96 314.228 154.96C313.323 154.96 312.626 155.221 312.135 155.742C311.644 156.263 311.399 157.007 311.399 157.973ZM326.846 166.23C325.543 166.23 324.508 165.87 323.741 165.149C322.99 164.413 322.614 163.455 322.614 162.274C322.614 161.093 323.005 160.143 323.787 159.422C324.584 158.701 325.627 158.341 326.915 158.341H330.618V157.375C330.618 155.826 329.759 155.052 328.042 155.052C327.275 155.052 326.654 155.198 326.179 155.489C325.719 155.765 325.474 156.156 325.443 156.662H323.189C323.266 155.635 323.733 154.791 324.592 154.132C325.451 153.457 326.601 153.12 328.042 153.12C329.591 153.12 330.787 153.488 331.63 154.224C332.473 154.96 332.895 155.995 332.895 157.329V166H330.664V163.677H330.618C330.511 164.459 330.12 165.08 329.445 165.54C328.786 166 327.919 166.23 326.846 166.23ZM327.444 164.321C328.41 164.321 329.177 164.091 329.744 163.631C330.327 163.156 330.618 162.512 330.618 161.699V160.02H327.122C326.463 160.02 325.926 160.219 325.512 160.618C325.113 161.001 324.914 161.515 324.914 162.159C324.914 162.818 325.136 163.347 325.581 163.746C326.026 164.129 326.647 164.321 327.444 164.321ZM337.394 166V153.35H339.648V155.788H339.671C339.794 154.96 340.146 154.308 340.729 153.833C341.327 153.358 342.117 153.12 343.098 153.12C344.401 153.12 345.413 153.526 346.134 154.339C346.855 155.136 347.215 156.263 347.215 157.72V158.824H344.938V157.743C344.938 155.98 344.072 155.098 342.339 155.098C341.465 155.098 340.798 155.351 340.338 155.857C339.893 156.363 339.671 157.084 339.671 158.019V166H337.394ZM350.725 166V153.35H352.979V155.765H353.002C353.11 154.937 353.455 154.293 354.037 153.833C354.635 153.358 355.417 153.12 356.383 153.12C357.641 153.12 358.645 153.519 359.396 154.316C360.148 155.113 360.523 156.187 360.523 157.536V166H358.246V157.904C358.246 156.984 358.016 156.279 357.556 155.788C357.096 155.297 356.468 155.052 355.67 155.052C354.842 155.052 354.191 155.313 353.715 155.834C353.24 156.34 353.002 157.053 353.002 157.973V166H350.725Z" fill="black"/>
<rect x="388" y="124" width="67" height="67" rx="33.5" fill="#0D0D0D"/>
<path d="M436.87 165.987C442.741 160.117 443.716 151.575 439.049 146.908C434.383 142.242 425.841 143.217 419.971 149.087C414.1 154.958 415.799 166.173 417.792 168.167C419.403 169.777 431 171.857 436.87 165.987Z" fill="#FFF100"/>
<path d="M412.782 157.505C409.376 154.099 404.42 153.532 401.712 156.241C399.004 158.948 399.57 163.905 402.976 167.311C406.383 170.717 412.89 169.732 414.046 168.575C414.981 167.641 416.189 160.911 412.782 157.505Z" fill="#FFF100"/>
</g>
<defs>
<clipPath id="clip0_6167_4506">
<rect width="560" height="315" fill="white"/>
</clipPath>
<clipPath id="clip1_6167_4506">
<rect width="560" height="315" fill="white"/>
</clipPath>
</defs>
</svg>
