<svg width="367" height="206" viewBox="0 0 367 206" fill="none" xmlns="http://www.w3.org/2000/svg">
<g clip-path="url(#clip0_4072_142)">
<rect width="367" height="206" fill="black"/>
<rect x="184" width="183.5" height="206" fill="#F6E900"/>
<path d="M250 125.543V86C250 82.6863 252.686 80 256 80H295C298.314 80 301 82.6863 301 86V125.543C301 128.857 298.314 131.543 295 131.543H281.899C281.43 131.543 280.977 131.707 280.617 132.008L267.144 143.259C265.842 144.347 263.862 143.421 263.862 141.724V133.543C263.862 132.438 262.967 131.543 261.862 131.543H256C252.686 131.543 250 128.857 250 125.543Z" fill="black"/>
<path d="M264.6 99.6592C264.008 99.067 263.038 99.2413 262.859 100.06C262.201 103.078 263.042 106.354 265.384 108.696C268.015 111.327 271.825 112.064 275.123 110.909L280.996 116.782C282.589 118.375 285.172 118.375 286.765 116.782C288.359 115.188 288.359 112.605 286.765 111.012L280.893 105.139C282.048 101.841 281.311 98.0313 278.68 95.4001C276.338 93.058 273.062 92.2168 270.044 92.8751C269.225 93.0537 269.022 94.0524 269.614 94.6446C270.908 95.9383 272.191 97.2401 273.477 98.5394C274.638 99.7122 274.638 101.605 273.471 102.771L272.704 103.538C271.537 104.705 269.646 104.705 268.479 103.538L264.6 99.6592Z" fill="#F6E900"/>
<g filter="url(#filter0_d_4072_142)">
<path d="M334.5 127V162C334.5 173.046 325.546 182 314.5 182L183 182V258.5H388.5V107H354.5C343.454 107 334.5 115.954 334.5 127Z" fill="black" fill-opacity="0.05" shape-rendering="crispEdges"/>
</g>
<path d="M236.5 18.798L372 18.798L372 -51L183 -51L183 113L196.5 113C207.546 113 216.5 104.046 216.5 93L216.5 38.798C216.5 27.7523 225.454 18.798 236.5 18.798Z" fill="black" fill-opacity="0.05"/>
<path d="M32.1187 27.7774C32.1187 22.862 29.1966 22.1145 26.2066 22.1145H24.7116V33.463H26.2066C29.1966 33.463 32.1187 32.7381 32.1187 27.7774ZM21.4724 19.5775H26.3425C31.5524 19.5775 35.4712 21.2537 35.4712 27.7774C35.4712 34.3011 31.5524 36 26.3425 36H21.4724V19.5775ZM44.9177 36V34.3917C44.2154 35.6376 42.879 36.2945 41.3613 36.2945C38.4392 36.2945 37.2614 34.505 37.2614 31.5149V23.8133H40.3873V30.8354C40.3873 32.4663 40.6365 33.7801 42.3807 33.7801C44.4646 33.7801 44.9177 32.0812 44.9177 30.1558V23.8133H48.0436V36H44.9177ZM56.1705 23.5415C58.7301 23.5415 61.2671 24.9686 61.6975 27.9813H58.7074C58.4583 26.8034 57.371 25.9653 56.1705 25.9653C54.5395 25.9653 53.2484 27.347 53.2484 29.884C53.2484 32.4437 54.4716 33.8707 56.1931 33.8707C57.2804 33.8707 58.3903 33.3044 58.8207 31.8547H61.8107C61.0859 35.1845 58.5715 36.2945 56.0345 36.2945C52.3876 36.2945 50.0545 33.6216 50.0545 29.9293C50.0545 26.2144 52.5235 23.5415 56.1705 23.5415ZM63.6774 19.5775H66.8033V28.7061L71.2431 23.8133H74.7541L70.3823 28.4796L75.0033 36H71.4923L68.2984 30.7221L66.8033 32.3304V36H63.6774V19.5775ZM86.9563 27.7774C86.9563 22.862 84.0343 22.1145 81.0442 22.1145H79.5492V33.463H81.0442C84.0343 33.463 86.9563 32.7381 86.9563 27.7774ZM76.31 19.5775H81.1801C86.39 19.5775 90.3088 21.2537 90.3088 27.7774C90.3088 34.3011 86.39 36 81.1801 36H76.31V19.5775ZM92.591 36V19.5775H98.9788C101.856 19.5775 104.959 20.4835 104.959 23.8587C104.959 25.399 103.939 26.7807 103.101 27.3244C104.37 27.936 105.548 28.8873 105.548 31.1525C105.548 34.6862 102.626 36 99.2506 36H92.591ZM95.8302 28.7967V33.463H99.4091C101.312 33.463 102.241 32.6702 102.241 31.1525C102.241 29.6122 101.289 28.7967 99.2732 28.7967H95.8302ZM95.8302 22.1145V26.3503H99.1826C100.723 26.3503 101.629 25.6255 101.629 24.1758C101.629 22.8846 100.7 22.1145 99.1826 22.1145H95.8302ZM25.4461 58V43.2018H20V41.818H32.3876V43.2018H26.9415V58H25.4461ZM37.9925 45.9249V47.398C37.8809 47.3757 37.7693 47.3757 37.6577 47.3757H37.3676C34.8901 47.3757 34.0865 49.1613 34.0865 51.7058V58H32.725V45.9918H34.0419V48.1792C34.5776 46.773 36.1623 45.9026 37.5908 45.9026H37.7693C37.8363 45.9026 37.9256 45.9026 37.9925 45.9249ZM39.6782 45.9918H41.0621V58H39.6782V45.9918ZM39.6782 41.818H41.0621V44.0277H39.6782V41.818ZM48.9837 45.791C51.7291 45.791 53.5593 47.7105 53.9165 49.8532H52.4657C52.0193 48.0453 50.6131 47.0632 48.8498 47.0632C46.7964 47.0632 44.9438 48.7149 44.9438 52.0182C44.9438 55.4332 46.7964 57.0179 48.8721 57.0179C50.9256 57.0179 52.1978 55.701 52.5549 54.2056H54.0281C53.5593 56.6831 51.5282 58.2902 48.8721 58.2902C45.4795 58.2902 43.4707 55.7234 43.4707 52.0406C43.4707 48.3131 45.4795 45.791 48.9837 45.791ZM56.2656 41.818H57.6495V51.9959L63.1402 45.9918H64.8365L60.3948 50.813L65.2383 58H63.6312L59.502 51.795L57.6495 53.8038V58H56.2656V41.818ZM75.5622 49.2729H74.1114C73.8212 47.8444 72.5043 46.9962 70.808 46.9962C69.4911 46.9962 67.7502 47.5096 67.7502 48.9604C67.7502 50.1434 68.6653 50.7683 70.0045 51.0138L71.7008 51.3263C73.665 51.6834 75.8523 52.353 75.8523 54.6297C75.8523 57.0179 73.6873 58.2902 71.0758 58.2902C68.5983 58.2902 66.4556 57.0626 66.0985 54.3172H67.5493C67.7948 56.1921 69.3572 57.0626 71.1874 57.0626C72.6382 57.0626 74.4462 56.4599 74.4462 54.8529C74.4462 53.4467 73.107 52.9557 71.4776 52.6432L69.6027 52.2861C67.8841 51.929 66.344 50.9692 66.344 49.072C66.344 47.1748 68.2412 45.7686 70.9419 45.7686C73.531 45.7686 75.272 47.3757 75.5622 49.2729Z" fill="#F6E900"/>
<g filter="url(#filter1_i_4072_142)">
<rect x="20" y="158" width="55" height="28" rx="14" fill="#FFF100"/>
<path d="M33.5427 178.5V176.94H36.9227V167.389L33.5253 169.92V167.979L36.4027 165.847H38.6387V176.94H41.412V178.5H33.5427ZM43.1039 180.407L49.2399 164.113H51.0426L44.9066 180.407H43.1039ZM53.2718 178.5V168.967H54.9705V170.787H54.9878C55.0687 170.163 55.3287 169.677 55.7678 169.331C56.2185 168.972 56.8078 168.793 57.5358 168.793C58.4833 168.793 59.2402 169.094 59.8065 169.695C60.3727 170.296 60.6558 171.104 60.6558 172.121V178.5H58.9398V172.399C58.9398 171.705 58.7665 171.174 58.4198 170.804C58.0731 170.434 57.5993 170.249 56.9985 170.249C56.3745 170.249 55.8833 170.446 55.5251 170.839C55.1669 171.22 54.9878 171.757 54.9878 172.451V178.5H53.2718Z" fill="black"/>
</g>
</g>
<defs>
<filter id="filter0_d_4072_142" x="183" y="107" width="207.5" height="153.5" filterUnits="userSpaceOnUse" color-interpolation-filters="sRGB">
<feFlood flood-opacity="0" result="BackgroundImageFix"/>
<feColorMatrix in="SourceAlpha" type="matrix" values="0 0 0 0 0 0 0 0 0 0 0 0 0 0 0 0 0 0 127 0" result="hardAlpha"/>
<feOffset dx="1" dy="1"/>
<feGaussianBlur stdDeviation="0.5"/>
<feComposite in2="hardAlpha" operator="out"/>
<feColorMatrix type="matrix" values="0 0 0 0 0 0 0 0 0 0 0 0 0 0 0 0 0 0 0.17 0"/>
<feBlend mode="normal" in2="BackgroundImageFix" result="effect1_dropShadow_4072_142"/>
<feBlend mode="normal" in="SourceGraphic" in2="effect1_dropShadow_4072_142" result="shape"/>
</filter>
<filter id="filter1_i_4072_142" x="20" y="158" width="55" height="32" filterUnits="userSpaceOnUse" color-interpolation-filters="sRGB">
<feFlood flood-opacity="0" result="BackgroundImageFix"/>
<feBlend mode="normal" in="SourceGraphic" in2="BackgroundImageFix" result="shape"/>
<feColorMatrix in="SourceAlpha" type="matrix" values="0 0 0 0 0 0 0 0 0 0 0 0 0 0 0 0 0 0 127 0" result="hardAlpha"/>
<feOffset dy="4"/>
<feGaussianBlur stdDeviation="2"/>
<feComposite in2="hardAlpha" operator="arithmetic" k2="-1" k3="1"/>
<feColorMatrix type="matrix" values="0 0 0 0 0 0 0 0 0 0 0 0 0 0 0 0 0 0 0.25 0"/>
<feBlend mode="normal" in2="shape" result="effect1_innerShadow_4072_142"/>
</filter>
<clipPath id="clip0_4072_142">
<rect width="367" height="206" fill="white"/>
</clipPath>
</defs>
</svg>
