<svg width="560" height="240" viewBox="0 0 560 240" fill="none" xmlns="http://www.w3.org/2000/svg">
<g clip-path="url(#clip0_4723_16570)">
<rect width="560" height="240" fill="#FFF100"/>
<g clip-path="url(#clip1_4723_16570)">
<rect width="560" height="240" fill="#FFF100"/>
<path d="M277.817 196.5L394.5 196.5C405.546 196.5 414.5 187.546 414.5 176.5L414.5 114C414.5 102.954 423.454 94 434.5 94L583.619 94C594.665 94 603.619 102.954 603.619 114L603.619 248.954C603.619 260 594.665 268.954 583.619 268.954L277.818 268.954C266.772 268.954 257.818 260 257.818 248.954L257.817 216.5C257.817 205.455 266.772 196.5 277.817 196.5Z" fill="url(#paint0_linear_4723_16570)"/>
<path d="M118.501 169.674L118.5 77C118.5 65.9543 127.455 56.9999 138.5 56.9999L362.317 57C373.363 57 382.317 48.0457 382.317 37L382.317 -33.8271C382.317 -44.8728 373.363 -53.8271 362.317 -53.8271L14.0917 -53.8271C3.04604 -53.8271 -5.90827 -44.8728 -5.90828 -33.8271L-5.90829 169.675C-5.90829 180.72 3.04602 189.675 14.0917 189.675L98.5006 189.675C109.546 189.675 118.501 180.72 118.501 169.674Z" fill="url(#paint1_linear_4723_16570)"/>
<path d="M226 -51L226 5.00001C226 21.5685 212.569 35 196 35L-106 35" stroke="url(#paint2_linear_4723_16570)" stroke-width="3" stroke-linecap="round" stroke-linejoin="round"/>
<path d="M433 271L433 178C433 161.431 446.431 148 463 148L621 148" stroke="url(#paint3_linear_4723_16570)" stroke-width="3" stroke-linecap="round" stroke-linejoin="round"/>
</g>
<path d="M221.419 94.5071C221.419 89.2713 218.307 88.4751 215.122 88.4751H213.53V100.563H215.122C218.307 100.563 221.419 99.7912 221.419 94.5071ZM210.079 85.7727H215.267C220.816 85.7727 224.99 87.5582 224.99 94.5071C224.99 101.456 220.816 103.266 215.267 103.266H210.079V85.7727ZM235.053 103.266V101.553C234.305 102.88 232.881 103.579 231.265 103.579C228.152 103.579 226.897 101.673 226.897 98.4883V90.2847H230.227V97.7644C230.227 99.5016 230.492 100.901 232.35 100.901C234.57 100.901 235.053 99.0915 235.053 97.0406V90.2847H238.382V103.266H235.053ZM247.039 89.9951C249.765 89.9951 252.468 91.5152 252.926 94.7243H249.741C249.476 93.4696 248.318 92.5769 247.039 92.5769C245.302 92.5769 243.926 94.0487 243.926 96.751C243.926 99.4775 245.229 100.998 247.063 100.998C248.221 100.998 249.403 100.394 249.862 98.8502H253.047C252.275 102.397 249.596 103.579 246.894 103.579C243.009 103.579 240.524 100.732 240.524 96.7993C240.524 92.8423 243.154 89.9951 247.039 89.9951ZM255.035 85.7727H258.365V95.4964L263.094 90.2847H266.834L262.177 95.2551L267.099 103.266H263.359L259.957 97.6438L258.365 99.3569V103.266H255.035V85.7727ZM280.362 97.5231H283.644C283.185 101.07 280.241 103.579 276.067 103.579C270.856 103.579 267.888 100.032 267.888 94.4347C267.888 88.9094 271.073 85.4591 276.164 85.4591C280.266 85.4591 283.064 87.7995 283.644 91.4428H280.362C279.711 89.0059 278.07 88.2097 276.14 88.2097C273.51 88.2097 271.459 90.3812 271.459 94.4347C271.459 98.6089 273.51 100.829 276.019 100.829C278.094 100.829 279.783 99.9118 280.362 97.5231ZM291.76 92.601C289.926 92.601 288.624 94.0728 288.624 96.7993C288.624 99.5258 289.926 100.973 291.76 100.973C293.594 100.973 294.897 99.5258 294.897 96.7993C294.897 94.0728 293.594 92.601 291.76 92.601ZM291.76 103.579C288.479 103.579 285.246 101.335 285.246 96.7993C285.246 92.2391 288.479 89.9951 291.76 89.9951C295.042 89.9951 298.275 92.2391 298.275 96.7993C298.275 101.335 295.042 103.579 291.76 103.579ZM303.723 90.2847V91.9978C304.471 90.6707 305.87 89.9951 307.487 89.9951C310.599 89.9951 311.975 91.8771 311.975 95.0862V103.266H308.645V95.81C308.645 94.1452 308.283 92.6734 306.401 92.6734C304.205 92.6734 303.723 94.4589 303.723 96.5097V103.266H300.393V90.2847H303.723ZM320.089 89.8262H323.467L324.022 85.7727H327.014L326.459 89.8262H329.668L330.223 85.7727H333.214L332.659 89.8262H335.989L335.676 92.408H332.298L331.791 96.0513H335.096L334.831 98.6089H331.429L330.802 103.266H327.81L328.437 98.6089H325.228L324.601 103.266H321.609L322.236 98.6089H318.931L319.244 96.0513H322.598L323.105 92.408H319.823L320.089 89.8262ZM326.097 92.408L325.59 96.0513H328.799L329.306 92.408H326.097ZM345.028 89.9951L340.033 96.2443H345.028V89.9951ZM351.325 96.2443V99.0673H348.333V103.266H345.028V99.0673H336.39V96.4615L345.076 85.7727H348.333V96.2443H351.325ZM212.705 127.266L219.22 109.773H222.694L229.233 127.266H225.493L224.262 123.719H217.458L216.228 127.266H212.705ZM220.86 113.995L218.448 120.896H223.273L220.86 113.995ZM246.691 127.266V119.714C246.691 118.29 246.571 116.673 244.616 116.673C242.396 116.673 242.035 118.531 242.035 120.51V127.266H238.705V119.714C238.705 118.29 238.584 116.673 236.63 116.673C234.41 116.673 234.048 118.531 234.048 120.51V127.266H230.718V114.285H234.048V115.998C234.796 114.719 236.099 113.995 237.667 113.995C239.863 113.995 240.852 115.177 241.359 116.118C242.396 114.671 243.675 113.995 245.63 113.995C248.887 113.995 250.021 116.022 250.021 119.086V127.266H246.691ZM263.244 118.193H260.131C259.866 117.108 258.901 116.336 257.356 116.336C256.126 116.336 255.257 116.794 255.257 117.59C255.257 118.29 255.764 118.821 256.994 119.086L258.732 119.472C261.313 120.051 263.509 120.703 263.509 123.381C263.509 125.987 260.831 127.579 257.887 127.579C254.702 127.579 252.289 125.939 251.976 122.971H255.185C255.378 124.225 256.246 125.166 257.984 125.166C259.431 125.166 260.324 124.636 260.324 123.695C260.324 122.73 259.335 122.368 258.201 122.102L256.271 121.692C253.834 121.185 252.217 120.172 252.217 117.807C252.217 115.491 254.726 113.947 257.525 113.947C260.228 113.947 262.785 115.202 263.244 118.193ZM266.215 114.285V110.762H269.544V114.285H272.247V116.577H269.544V123.284C269.544 124.612 270.003 124.877 271.185 124.877H272.198V127.266H269.761C266.769 127.266 266.215 126.349 266.215 123.767V116.577H264.381V114.285H266.215ZM286.42 121.692H276.841C277.034 123.912 278.53 124.998 280.123 124.998C281.16 124.998 282.173 124.636 282.849 123.502H286.275C285.575 125.432 283.693 127.579 280.147 127.579C275.972 127.579 273.536 124.467 273.536 120.727C273.536 116.866 276.214 113.995 280.05 113.995C284.055 113.995 286.541 117.108 286.42 121.692ZM280.026 116.432C278.771 116.432 277.155 117.204 276.889 119.4H283.042C282.97 117.204 281.425 116.432 280.026 116.432ZM295.996 114.357V117.494C295.514 117.421 295.103 117.421 294.621 117.421C292.98 117.421 291.894 118.025 291.894 120.461V127.266H288.565V114.285H291.846V116.553C292.594 114.936 293.752 114.309 295.272 114.309C295.49 114.309 295.779 114.333 295.996 114.357ZM309.578 127.266H306.248V125.625C305.404 127.073 303.86 127.579 302.509 127.579C299.42 127.579 296.863 124.925 296.863 120.775C296.863 116.697 299.372 113.995 302.509 113.995C304.149 113.995 305.549 114.719 306.248 115.95V109.773H309.578V127.266ZM303.329 125.022C305.163 125.022 306.369 123.453 306.369 120.775C306.369 118.169 305.163 116.553 303.329 116.553C301.592 116.553 300.361 118.266 300.361 120.799C300.361 123.333 301.592 125.022 303.329 125.022ZM320.682 122.295V121.33C316.942 121.716 315.47 122.15 315.47 123.598C315.47 124.539 316.194 125.311 317.714 125.311C319.814 125.311 320.682 124.201 320.682 122.295ZM320.972 125.649C320.031 127 318.679 127.579 316.725 127.579C314.24 127.579 312.044 126.132 312.044 123.767C312.044 120.703 315.47 119.786 320.586 119.207V118.99C320.586 116.987 319.5 116.287 318.149 116.287C316.87 116.287 315.808 116.939 315.736 118.386H312.623C312.889 115.829 314.964 113.947 318.318 113.947C321.382 113.947 323.915 115.298 323.915 119.665C323.915 120.051 323.867 121.813 323.867 122.971C323.867 125.022 323.988 126.18 324.253 127.266H321.189C321.092 126.855 321.044 126.3 320.972 125.649ZM342.662 127.266V119.714C342.662 118.29 342.541 116.673 340.587 116.673C338.367 116.673 338.005 118.531 338.005 120.51V127.266H334.676V119.714C334.676 118.29 334.555 116.673 332.6 116.673C330.381 116.673 330.019 118.531 330.019 120.51V127.266H326.689V114.285H330.019V115.998C330.767 114.719 332.07 113.995 333.638 113.995C335.834 113.995 336.823 115.177 337.33 116.118C338.367 114.671 339.646 113.995 341.6 113.995C344.858 113.995 345.992 116.022 345.992 119.086V127.266H342.662Z" fill="black"/>
<path d="M227.59 138.236C230.383 138.236 232.189 139.706 232.189 142.163C232.189 145.25 229.543 148.253 223.936 152.474H232.651V153.734H222.13V152.432C227.737 148.169 230.803 145.145 230.803 142.31C230.803 140.357 229.312 139.391 227.59 139.391C225.679 139.391 223.936 140.294 223.873 143.213H222.487C222.634 139.958 224.566 138.236 227.59 138.236ZM240.449 154.007C236.417 154.007 234.59 150.962 234.59 146.111C234.59 141.302 236.417 138.236 240.449 138.236C244.439 138.236 246.287 141.302 246.287 146.111C246.287 150.962 244.439 154.007 240.449 154.007ZM240.449 152.852C243.179 152.852 244.922 150.71 244.922 146.111C244.922 141.554 243.179 139.391 240.449 139.391C237.698 139.391 235.976 141.554 235.976 146.111C235.976 150.71 237.698 152.852 240.449 152.852ZM253.512 138.236C256.305 138.236 258.111 139.706 258.111 142.163C258.111 145.25 255.465 148.253 249.858 152.474H258.573V153.734H248.052V152.432C253.659 148.169 256.725 145.145 256.725 142.31C256.725 140.357 255.234 139.391 253.512 139.391C251.601 139.391 249.858 140.294 249.795 143.213H248.409C248.556 139.958 250.488 138.236 253.512 138.236ZM266.753 140.315L260.117 148.463H266.753V140.315ZM271.016 148.463V149.744H268.055V153.734H266.753V149.744H258.563V148.568L266.774 138.509H268.055V148.463H271.016ZM278.014 148.715H272.134V147.245H278.014V148.715ZM285.915 154.007C281.883 154.007 280.056 150.962 280.056 146.111C280.056 141.302 281.883 138.236 285.915 138.236C289.905 138.236 291.753 141.302 291.753 146.111C291.753 150.962 289.905 154.007 285.915 154.007ZM285.915 152.852C288.645 152.852 290.388 150.71 290.388 146.111C290.388 141.554 288.645 139.391 285.915 139.391C283.164 139.391 281.442 141.554 281.442 146.111C281.442 150.71 283.164 152.852 285.915 152.852ZM298.978 138.236C301.771 138.236 303.577 139.706 303.577 142.163C303.577 145.25 300.931 148.253 295.324 152.474H304.039V153.734H293.518V152.432C299.125 148.169 302.191 145.145 302.191 142.31C302.191 140.357 300.7 139.391 298.978 139.391C297.067 139.391 295.324 140.294 295.261 143.213H293.875C294.022 139.958 295.954 138.236 298.978 138.236ZM310.786 148.715H304.906V147.245H310.786V148.715ZM318.686 154.007C314.654 154.007 312.827 150.962 312.827 146.111C312.827 141.302 314.654 138.236 318.686 138.236C322.676 138.236 324.524 141.302 324.524 146.111C324.524 150.962 322.676 154.007 318.686 154.007ZM318.686 152.852C321.416 152.852 323.159 150.71 323.159 146.111C323.159 141.554 321.416 139.391 318.686 139.391C315.935 139.391 314.213 141.554 314.213 146.111C314.213 150.71 315.935 152.852 318.686 152.852ZM331.749 138.236C334.542 138.236 336.348 139.706 336.348 142.163C336.348 145.25 333.702 148.253 328.095 152.474H336.81V153.734H326.289V152.432C331.896 148.169 334.962 145.145 334.962 142.31C334.962 140.357 333.471 139.391 331.749 139.391C329.838 139.391 328.095 140.294 328.032 143.213H326.646C326.793 139.958 328.725 138.236 331.749 138.236Z" fill="black"/>
</g>
<defs>
<linearGradient id="paint0_linear_4723_16570" x1="504.81" y1="122.872" x2="504.81" y2="248.514" gradientUnits="userSpaceOnUse">
<stop stop-color="#EDDD0C"/>
<stop offset="1" stop-color="#F3E71B"/>
</linearGradient>
<linearGradient id="paint1_linear_4723_16570" x1="178.049" y1="242.11" x2="178.049" y2="-19.3487" gradientUnits="userSpaceOnUse">
<stop stop-color="#EDDD0C"/>
<stop offset="1" stop-color="#F3E71B"/>
</linearGradient>
<linearGradient id="paint2_linear_4723_16570" x1="41.4985" y1="4.46067" x2="268.556" y2="5.16264" gradientUnits="userSpaceOnUse">
<stop stop-color="#EDDD0C"/>
<stop offset="1" stop-color="#CCBD00"/>
</linearGradient>
<linearGradient id="paint3_linear_4723_16570" x1="538.999" y1="131" x2="540.031" y2="237.967" gradientUnits="userSpaceOnUse">
<stop stop-color="#EDDD0C"/>
<stop offset="0.395" stop-color="#CCBD00"/>
<stop offset="1" stop-color="#EDDD0C"/>
</linearGradient>
<clipPath id="clip0_4723_16570">
<rect width="560" height="240" fill="white"/>
</clipPath>
<clipPath id="clip1_4723_16570">
<rect width="560" height="240" fill="white"/>
</clipPath>
</defs>
</svg>
