<svg xmlns="http://www.w3.org/2000/svg" width="560" height="240" fill="none" viewBox="0 0 560 240"><g clip-path="url(#clip0_5064_882)"><rect width="560" height="240" fill="#FFF100"/><g clip-path="url(#clip1_5064_882)"><rect width="560" height="240" fill="#FFF100"/><path fill="url(#paint0_linear_5064_882)" d="M387 170.5L451.783 170.5C462.828 170.5 471.782 161.546 471.782 150.5L471.782 67.5001C471.782 56.4544 480.737 47.5001 491.782 47.5001L692.082 47.5001C703.128 47.5001 712.082 56.4544 712.082 67.5001L712.082 241.913C712.082 252.958 703.128 261.913 692.082 261.913L387 261.913C375.954 261.913 367 252.958 367 241.913L367 190.5C367 179.454 375.954 170.5 387 170.5Z"/><path fill="url(#paint1_linear_5064_882)" d="M141.127 314L141.127 77.9839C141.127 66.9382 150.081 57.9839 161.127 57.9839L199.812 57.9839C210.857 57.9839 219.812 49.0296 219.812 37.9839L219.812 -86.9999C219.812 -98.0456 210.857 -107 199.812 -107L-54.0001 -107C-65.0458 -107 -74.0001 -98.0457 -74.0001 -87L-74.0002 314C-74.0002 325.046 -65.0458 334 -54.0002 334L121.127 334C132.173 334 141.127 325.046 141.127 314Z"/><rect width="546" height="169" x="417" y="194" fill="#FFF100" rx="20"/><rect width="598" height="204" x="-513" y="-43" fill="#FFF100" rx="20"/></g><path fill="#000" d="M233 153.5C214.467 153.5 199.5 138.533 199.5 120C199.5 101.467 214.467 86.5 233 86.5C251.533 86.5 266.5 101.467 266.5 120C266.5 138.533 251.533 153.5 233 153.5Z"/><path fill="#FFF100" d="M250.912 115.03H244.34V124.948H250.912C253.637 124.948 255.901 122.684 255.901 119.959C255.901 117.214 253.637 115.03 250.912 115.03Z"/><path fill="#FFF100" d="M212.141 120C212.141 127.654 218.372 133.885 226.026 133.885C233.68 133.885 239.911 127.654 239.911 120C239.911 112.346 233.68 106.115 226.026 106.115C218.372 106.115 212.141 112.346 212.141 120Z"/><path fill="#000" d="M293.547 128.5V126.43H298.032V113.757L293.524 117.115V114.539L297.342 111.71H300.309V126.43H303.989V128.5H293.547ZM312.191 128.73C311.608 128.73 311.133 128.554 310.765 128.201C310.412 127.848 310.236 127.396 310.236 126.844C310.236 126.261 310.412 125.786 310.765 125.418C311.133 125.05 311.608 124.866 312.191 124.866C312.774 124.866 313.241 125.05 313.594 125.418C313.962 125.786 314.146 126.261 314.146 126.844C314.146 127.396 313.962 127.848 313.594 128.201C313.241 128.554 312.774 128.73 312.191 128.73ZM320.991 128.5V126.407L326.695 120.381C327.431 119.614 327.952 118.917 328.259 118.288C328.581 117.644 328.742 117.015 328.742 116.402C328.742 115.528 328.489 114.83 327.983 114.309C327.477 113.772 326.795 113.504 325.936 113.504C325.047 113.504 324.341 113.772 323.82 114.309C323.299 114.846 323.038 115.574 323.038 116.494H320.761C320.792 114.961 321.275 113.742 322.21 112.837C323.161 111.932 324.403 111.48 325.936 111.48C327.5 111.48 328.742 111.925 329.662 112.814C330.597 113.703 331.065 114.892 331.065 116.379C331.065 117.192 330.85 118.043 330.421 118.932C329.992 119.806 329.263 120.772 328.236 121.83L323.774 126.43H331.272V128.5H320.991ZM339.773 128.73C339.19 128.73 338.715 128.554 338.347 128.201C337.994 127.848 337.818 127.396 337.818 126.844C337.818 126.261 337.994 125.786 338.347 125.418C338.715 125.05 339.19 124.866 339.773 124.866C340.356 124.866 340.823 125.05 341.176 125.418C341.544 125.786 341.728 126.261 341.728 126.844C341.728 127.396 341.544 127.848 341.176 128.201C340.823 128.554 340.356 128.73 339.773 128.73ZM353.564 128.73C351.985 128.73 350.735 128.285 349.815 127.396C348.895 126.491 348.435 125.28 348.435 123.762V116.448C348.435 114.93 348.895 113.726 349.815 112.837C350.735 111.932 351.985 111.48 353.564 111.48C355.143 111.48 356.393 111.932 357.313 112.837C358.233 113.726 358.693 114.93 358.693 116.448V123.762C358.693 124.759 358.478 125.633 358.049 126.384C357.635 127.12 357.045 127.695 356.278 128.109C355.511 128.523 354.607 128.73 353.564 128.73ZM353.564 126.775C354.453 126.775 355.166 126.499 355.703 125.947C356.24 125.38 356.508 124.651 356.508 123.762V116.448C356.508 115.559 356.24 114.838 355.703 114.286C355.166 113.719 354.453 113.435 353.564 113.435C352.675 113.435 351.962 113.719 351.425 114.286C350.888 114.838 350.62 115.559 350.62 116.448V123.762C350.62 124.651 350.888 125.38 351.425 125.947C351.962 126.499 352.675 126.775 353.564 126.775ZM353.564 121.393C353.135 121.393 352.79 121.278 352.529 121.048C352.284 120.803 352.161 120.465 352.161 120.036C352.161 119.607 352.284 119.285 352.529 119.07C352.79 118.84 353.135 118.725 353.564 118.725C353.993 118.725 354.338 118.84 354.599 119.07C354.86 119.285 354.99 119.607 354.99 120.036C354.99 120.465 354.86 120.803 354.599 121.048C354.338 121.278 353.993 121.393 353.564 121.393Z"/></g><defs><linearGradient id="paint0_linear_5064_882" x1="400.322" x2="400.322" y1="65.999" y2="234.499" gradientUnits="userSpaceOnUse"><stop stop-color="#EDDD0C"/><stop offset="1" stop-color="#F3E71B"/></linearGradient><linearGradient id="paint1_linear_5064_882" x1="72.906" x2="72.906" y1="349.513" y2="-53.814" gradientUnits="userSpaceOnUse"><stop stop-color="#EDDD0C"/><stop offset="1" stop-color="#F3E71B"/></linearGradient><clipPath id="clip0_5064_882"><rect width="560" height="240" fill="#fff"/></clipPath><clipPath id="clip1_5064_882"><rect width="560" height="240" fill="#fff"/></clipPath></defs></svg>