<svg width="560" height="240" viewBox="0 0 560 240" fill="none" xmlns="http://www.w3.org/2000/svg">
<rect width="560" height="240" fill="#FFF100"/>
<g clip-path="url(#clip0_4723_15274)">
<rect width="560" height="240" fill="#FFF100"/>
<path d="M134.5 190.5L361 190.5C372.046 190.5 381 181.546 381 170.5L381 54.9999C381.001 43.9543 389.955 35 401 35L598.5 35C609.546 35 618.5 43.9543 618.5 55.0001L618.5 309C618.5 320.046 609.545 329 598.5 329L134.5 329C123.454 329 114.5 320.046 114.5 309L114.5 210.5C114.5 199.454 123.454 190.5 134.5 190.5Z" fill="#EDDE00"/>
<path d="M186.5 50.8302L186.5 -21.9996C186.5 -33.0452 177.546 -41.9995 166.5 -41.9996L-27.9999 -42C-39.0457 -42 -48 -33.0457 -48 -22L-48 185C-48 196.046 -39.0457 205 -28 205L33.7692 205C44.8149 205 53.7692 196.046 53.7692 185L53.7693 90.8299C53.7693 79.7841 62.7236 70.8298 73.7693 70.8299L166.5 70.8302C177.546 70.8302 186.5 61.8759 186.5 50.8302Z" fill="#EDDE00"/>
<path d="M686.5 100L539.885 100L482.5 100C471.454 100 462.5 108.954 462.5 120L462.5 340C462.5 351.046 471.454 360 482.5 360L686.5 360C697.546 360 706.5 351.046 706.5 340L706.5 120C706.5 108.954 697.546 100 686.5 100Z" fill="#FFF100"/>
</g>
<path d="M233 153.5C214.467 153.5 199.5 138.533 199.5 120C199.5 101.467 214.467 86.5 233 86.5C251.533 86.5 266.5 101.467 266.5 120C266.5 138.533 251.533 153.5 233 153.5Z" fill="black"/>
<path d="M250.912 115.03H244.34V124.948H250.912C253.637 124.948 255.901 122.684 255.901 119.959C255.901 117.214 253.637 115.03 250.912 115.03Z" fill="#FFF100"/>
<path d="M212.141 120C212.141 127.654 218.372 133.885 226.026 133.885C233.68 133.885 239.911 127.654 239.911 120C239.911 112.346 233.68 106.115 226.026 106.115C218.372 106.115 212.141 112.346 212.141 120Z" fill="#FFF100"/>
<path d="M293.087 116.701C293.087 115.934 293.21 115.244 293.455 114.631C293.716 114.018 294.076 113.496 294.536 113.067C294.996 112.622 295.556 112.285 296.215 112.055C296.874 111.81 297.61 111.687 298.423 111.687C299.22 111.687 299.941 111.81 300.585 112.055C301.244 112.285 301.804 112.622 302.264 113.067C302.724 113.496 303.077 114.018 303.322 114.631C303.567 115.244 303.69 115.934 303.69 116.701V123.693C303.69 124.444 303.56 125.134 303.299 125.763C303.054 126.376 302.701 126.905 302.241 127.35C301.781 127.795 301.229 128.14 300.585 128.385C299.941 128.615 299.22 128.73 298.423 128.73C297.61 128.73 296.874 128.615 296.215 128.385C295.556 128.14 294.996 127.802 294.536 127.373C294.076 126.928 293.716 126.399 293.455 125.786C293.21 125.157 293.087 124.46 293.087 123.693V116.701ZM295.571 123.693C295.571 124.552 295.824 125.234 296.33 125.74C296.851 126.246 297.549 126.499 298.423 126.499C299.266 126.499 299.941 126.246 300.447 125.74C300.953 125.234 301.206 124.552 301.206 123.693V116.701C301.206 115.858 300.953 115.183 300.447 114.677C299.941 114.171 299.266 113.918 298.423 113.918C297.549 113.918 296.851 114.171 296.33 114.677C295.824 115.183 295.571 115.858 295.571 116.701V123.693ZM297.296 118.564C297.296 118.196 297.396 117.897 297.595 117.667C297.794 117.437 298.07 117.322 298.423 117.322C298.76 117.322 299.029 117.437 299.228 117.667C299.427 117.897 299.527 118.196 299.527 118.564V122.083C299.527 122.451 299.427 122.75 299.228 122.98C299.029 123.21 298.76 123.325 298.423 123.325C298.07 123.325 297.794 123.21 297.595 122.98C297.396 122.75 297.296 122.451 297.296 122.083V118.564ZM310.075 126.568C310.075 125.924 310.267 125.41 310.65 125.027C311.033 124.628 311.547 124.429 312.191 124.429C312.835 124.429 313.349 124.628 313.732 125.027C314.115 125.41 314.307 125.924 314.307 126.568C314.307 127.212 314.115 127.733 313.732 128.132C313.349 128.531 312.835 128.73 312.191 128.73C311.547 128.73 311.033 128.531 310.65 128.132C310.267 127.733 310.075 127.212 310.075 126.568ZM325.959 111.71C326.787 111.71 327.538 111.84 328.213 112.101C328.903 112.346 329.486 112.699 329.961 113.159C330.452 113.619 330.827 114.179 331.088 114.838C331.364 115.482 331.502 116.195 331.502 116.977C331.502 117.989 331.28 119.016 330.835 120.059C330.406 121.102 329.8 122.259 329.018 123.532L325.936 128.5H322.992L326.58 122.98C326.933 122.443 327.216 122.014 327.431 121.692C327.646 121.37 327.814 121.125 327.937 120.956C328.075 120.757 328.175 120.626 328.236 120.565H327.96C327.807 120.841 327.6 121.086 327.339 121.301C327.109 121.485 326.81 121.654 326.442 121.807C326.089 121.96 325.645 122.037 325.108 122.037C324.418 122.037 323.789 121.914 323.222 121.669C322.655 121.424 322.164 121.086 321.75 120.657C321.351 120.212 321.037 119.676 320.807 119.047C320.577 118.418 320.462 117.728 320.462 116.977C320.462 116.195 320.592 115.482 320.853 114.838C321.129 114.194 321.505 113.642 321.98 113.182C322.471 112.707 323.053 112.346 323.728 112.101C324.403 111.84 325.146 111.71 325.959 111.71ZM322.992 116.954C322.992 117.889 323.268 118.641 323.82 119.208C324.372 119.76 325.085 120.036 325.959 120.036C326.848 120.036 327.569 119.752 328.121 119.185C328.688 118.618 328.972 117.874 328.972 116.954C328.972 116.034 328.696 115.298 328.144 114.746C327.592 114.179 326.864 113.895 325.959 113.895C325.085 113.895 324.372 114.179 323.82 114.746C323.268 115.298 322.992 116.034 322.992 116.954ZM337.657 126.568C337.657 125.924 337.849 125.41 338.232 125.027C338.615 124.628 339.129 124.429 339.773 124.429C340.417 124.429 340.931 124.628 341.314 125.027C341.697 125.41 341.889 125.924 341.889 126.568C341.889 127.212 341.697 127.733 341.314 128.132C340.931 128.531 340.417 128.73 339.773 128.73C339.129 128.73 338.615 128.531 338.232 128.132C337.849 127.733 337.657 127.212 337.657 126.568ZM348.251 116.701C348.251 115.934 348.374 115.244 348.619 114.631C348.88 114.018 349.24 113.496 349.7 113.067C350.16 112.622 350.72 112.285 351.379 112.055C352.038 111.81 352.774 111.687 353.587 111.687C354.384 111.687 355.105 111.81 355.749 112.055C356.408 112.285 356.968 112.622 357.428 113.067C357.888 113.496 358.241 114.018 358.486 114.631C358.731 115.244 358.854 115.934 358.854 116.701V123.693C358.854 124.444 358.724 125.134 358.463 125.763C358.218 126.376 357.865 126.905 357.405 127.35C356.945 127.795 356.393 128.14 355.749 128.385C355.105 128.615 354.384 128.73 353.587 128.73C352.774 128.73 352.038 128.615 351.379 128.385C350.72 128.14 350.16 127.802 349.7 127.373C349.24 126.928 348.88 126.399 348.619 125.786C348.374 125.157 348.251 124.46 348.251 123.693V116.701ZM350.735 123.693C350.735 124.552 350.988 125.234 351.494 125.74C352.015 126.246 352.713 126.499 353.587 126.499C354.43 126.499 355.105 126.246 355.611 125.74C356.117 125.234 356.37 124.552 356.37 123.693V116.701C356.37 115.858 356.117 115.183 355.611 114.677C355.105 114.171 354.43 113.918 353.587 113.918C352.713 113.918 352.015 114.171 351.494 114.677C350.988 115.183 350.735 115.858 350.735 116.701V123.693ZM352.46 118.564C352.46 118.196 352.56 117.897 352.759 117.667C352.958 117.437 353.234 117.322 353.587 117.322C353.924 117.322 354.193 117.437 354.392 117.667C354.591 117.897 354.691 118.196 354.691 118.564V122.083C354.691 122.451 354.591 122.75 354.392 122.98C354.193 123.21 353.924 123.325 353.587 123.325C353.234 123.325 352.958 123.21 352.759 122.98C352.56 122.75 352.46 122.451 352.46 122.083V118.564Z" fill="black"/>
<defs>
<clipPath id="clip0_4723_15274">
<rect width="560" height="240" fill="white"/>
</clipPath>
</defs>
</svg>
