<svg xmlns="http://www.w3.org/2000/svg" width="367" height="206" fill="none" viewBox="0 0 367 206"><g clip-path="url(#clip0_3407_26715)"><rect width="367" height="206" fill="#000"/><path fill="#29D087" d="M31.4517 27.1104C31.4517 22.195 28.5296 21.4475 25.5396 21.4475H24.0446V32.796H25.5396C28.5296 32.796 31.4517 32.0712 31.4517 27.1104ZM20.8054 18.9105H25.6755C30.8854 18.9105 34.8042 20.5867 34.8042 27.1104C34.8042 33.6341 30.8854 35.333 25.6755 35.333H20.8054V18.9105ZM44.2507 35.333V33.7247C43.5485 34.9706 42.212 35.6275 40.6943 35.6275C37.7723 35.6275 36.5944 33.838 36.5944 30.848V23.1464H39.7203V30.1684C39.7203 31.7993 39.9695 33.1131 41.7137 33.1131C43.7976 33.1131 44.2507 31.4143 44.2507 29.4889V23.1464H47.3766V35.333H44.2507ZM55.5035 22.8745C58.0631 22.8745 60.6001 24.3016 61.0305 27.3143H58.0405C57.7913 26.1364 56.704 25.2983 55.5035 25.2983C53.8725 25.2983 52.5814 26.68 52.5814 29.217C52.5814 31.7767 53.8046 33.2037 55.5261 33.2037C56.6134 33.2037 57.7233 32.6374 58.1537 31.1877H61.1437C60.4189 34.5175 57.9045 35.6275 55.3675 35.6275C51.7206 35.6275 49.3875 32.9546 49.3875 29.2623C49.3875 25.5474 51.8565 22.8745 55.5035 22.8745ZM63.0104 18.9105H66.1363V28.0391L70.5761 23.1464H74.0871L69.7153 27.8126L74.3363 35.333H70.8253L67.6314 30.0551L66.1363 31.6634V35.333H63.0104V18.9105ZM86.7877 29.9419H89.8683C89.4379 33.2717 86.6744 35.6275 82.7557 35.6275C77.8629 35.6275 75.0767 32.2977 75.0767 27.0425C75.0767 21.8552 78.0667 18.616 82.8463 18.616C86.6971 18.616 89.3247 20.8132 89.8683 24.2336H86.7877C86.1761 21.9458 84.6358 21.1983 82.8236 21.1983C80.3546 21.1983 78.4292 23.237 78.4292 27.0425C78.4292 30.9612 80.3546 33.0452 82.7104 33.0452C84.6584 33.0452 86.244 32.1844 86.7877 29.9419ZM97.4883 25.3209C95.7668 25.3209 94.5436 26.7027 94.5436 29.2623C94.5436 31.822 95.7668 33.1811 97.4883 33.1811C99.2099 33.1811 100.433 31.822 100.433 29.2623C100.433 26.7027 99.2099 25.3209 97.4883 25.3209ZM97.4883 35.6275C94.4077 35.6275 91.3724 33.5209 91.3724 29.2623C91.3724 24.9811 94.4077 22.8745 97.4883 22.8745C100.569 22.8745 103.604 24.9811 103.604 29.2623C103.604 33.5209 100.569 35.6275 97.4883 35.6275ZM108.719 23.1464V24.7546C109.421 23.5088 110.735 22.8745 112.253 22.8745C115.175 22.8745 116.466 24.6414 116.466 27.6541V35.333H113.34V28.3336C113.34 26.7706 113 25.3889 111.233 25.3889C109.172 25.3889 108.719 27.0651 108.719 28.9905V35.333H105.593V23.1464H108.719ZM124.083 22.716H127.255L127.776 18.9105H130.585L130.064 22.716H133.076L133.597 18.9105H136.406L135.885 22.716H139.011L138.717 25.1397H135.545L135.07 28.5601H138.173L137.924 30.9612H134.73L134.141 35.333H131.332L131.921 30.9612H128.908L128.319 35.333H125.511L126.099 30.9612H122.996L123.291 28.5601H126.439L126.915 25.1397H123.834L124.083 22.716ZM129.724 25.1397L129.248 28.5601H132.261L132.736 25.1397H129.724ZM146.273 33.2717C147.995 33.2717 149.241 32.0258 149.241 29.9419C149.241 27.6767 147.723 26.5894 146.205 26.5894C144.756 26.5894 143.736 27.2916 143.397 28.0844L140.542 27.9485L141.63 18.9105H151.755V21.5381H144.189L143.736 25.0491C144.439 24.5281 145.458 24.143 146.998 24.143C149.807 24.143 152.412 26.1364 152.412 29.9192C152.412 33.5435 149.603 35.6275 146.228 35.6275C142.377 35.6275 140.339 32.9999 140.157 30.1684H143.102C143.283 31.8673 144.257 33.2717 146.273 33.2717ZM27.2611 50.5148L25.1772 50.1297C22.5269 49.5861 20.2617 48.227 20.2617 45.3729C20.2617 42.0657 23.7954 40.616 26.8081 40.616C30.2059 40.616 33.0826 42.6094 33.2638 45.758H30.1379C29.8887 43.8326 28.2125 43.1983 26.6722 43.1983C25.1545 43.1983 23.5009 43.7646 23.5009 45.237C23.5009 46.3922 24.4523 47.0265 25.7888 47.2756L27.9407 47.6607C30.6136 48.159 33.5583 49.1784 33.5583 52.5988C33.5583 55.9739 30.2059 57.6275 26.8987 57.6275C22.8667 57.6275 20.1938 55.4529 19.8993 51.9192H23.0252C23.3877 54.343 25.0639 55.0452 27.012 55.0452C28.4617 55.0452 30.2965 54.5015 30.2965 52.7574C30.2965 51.3756 29.0053 50.8093 27.2611 50.5148ZM47.3704 52.1004H38.3777C38.5589 54.1844 39.9633 55.2037 41.4583 55.2037C42.4323 55.2037 43.3837 54.864 44.018 53.7993H47.2345C46.5776 55.6115 44.8108 57.6275 41.481 57.6275C37.5622 57.6275 35.2744 54.7054 35.2744 51.1944C35.2744 47.5701 37.7887 44.8745 41.3903 44.8745C45.1505 44.8745 47.4837 47.7966 47.3704 52.1004ZM41.3677 47.1624C40.1898 47.1624 38.6721 47.8872 38.423 49.9485H44.1992C44.1312 47.8872 42.6815 47.1624 41.3677 47.1624ZM56.9949 52.6667V51.7607C53.4839 52.1231 52.1022 52.5308 52.1022 53.8899C52.1022 54.7734 52.7817 55.4982 54.2088 55.4982C56.1795 55.4982 56.9949 54.4562 56.9949 52.6667ZM57.2668 55.8153C56.3833 57.0838 55.1148 57.6275 53.28 57.6275C50.9469 57.6275 48.8856 56.2684 48.8856 54.0485C48.8856 51.1717 52.1022 50.311 56.9043 49.7673V49.5635C56.9043 47.6834 55.885 47.0265 54.6165 47.0265C53.416 47.0265 52.4193 47.638 52.3513 48.9972H49.4292C49.6784 46.5961 51.6265 44.8292 54.7751 44.8292C57.6518 44.8292 60.0303 46.0977 60.0303 50.1977C60.0303 50.5601 59.985 52.2137 59.985 53.301C59.985 55.2264 60.0982 56.3137 60.3474 57.333H57.4706C57.38 56.9479 57.3347 56.4269 57.2668 55.8153ZM63.0647 45.1464V41.8392H66.1907V45.1464H68.7277V47.2983H66.1907V53.5955C66.1907 54.8413 66.6211 55.0905 67.731 55.0905H68.6824V57.333H66.3945C63.5857 57.333 63.0647 56.4722 63.0647 54.0485V47.2983H61.3432V45.1464H63.0647ZM71.161 45.1464V41.8392H74.2869V45.1464H76.8239V47.2983H74.2869V53.5955C74.2869 54.8413 74.7173 55.0905 75.8272 55.0905H76.7786V57.333H74.4908C71.682 57.333 71.161 56.4722 71.161 54.0485V47.2983H69.4394V45.1464H71.161ZM81.9528 40.9105V57.333H78.8268V40.9105H81.9528ZM96.0584 52.1004H87.0657C87.2469 54.1844 88.6513 55.2037 90.1463 55.2037C91.1204 55.2037 92.0717 54.864 92.706 53.7993H95.9225C95.2656 55.6115 93.4988 57.6275 90.169 57.6275C86.2502 57.6275 83.9624 54.7054 83.9624 51.1944C83.9624 47.5701 86.4767 44.8745 90.0784 44.8745C93.8386 44.8745 96.1717 47.7966 96.0584 52.1004ZM90.0557 47.1624C88.8778 47.1624 87.3602 47.8872 87.111 49.9485H92.8872C92.8192 47.8872 91.3695 47.1624 90.0557 47.1624ZM97.3361 57.333V53.9352H100.847V57.5822L98.9897 61.1838H97.2002L98.8765 57.333H97.3361ZM119.091 40.9105L121.606 52.9386L123.848 40.9105H127.155L123.508 57.333H119.68L117.189 45.1011L114.697 57.333H110.869L107.222 40.9105H110.574L113.021 52.8706L115.309 40.9105H119.091ZM126.354 57.333L132.47 40.9105H135.732L141.87 57.333H138.359L137.204 54.0032H130.816L129.661 57.333H126.354ZM134.01 44.8745L131.745 51.3529H136.275L134.01 44.8745ZM25.8058 62.8608C28.7744 62.8608 30.6939 64.4232 30.6939 67.0347C30.6939 70.3157 27.8816 73.5075 21.9221 77.9938H31.1849V79.333H20.0026V77.9492C25.962 73.4182 29.2208 70.2041 29.2208 67.1909C29.2208 65.1152 27.636 64.0884 25.8058 64.0884C23.7747 64.0884 21.9221 65.0482 21.8552 68.1507H20.382C20.5383 64.6911 22.5917 62.8608 25.8058 62.8608ZM39.4731 79.6232C35.1877 79.6232 33.2459 76.3868 33.2459 71.2308C33.2459 66.1196 35.1877 62.8608 39.4731 62.8608C43.7139 62.8608 45.6781 66.1196 45.6781 71.2308C45.6781 76.3868 43.7139 79.6232 39.4731 79.6232ZM39.4731 78.3956C42.3747 78.3956 44.2273 76.1189 44.2273 71.2308C44.2273 66.3874 42.3747 64.0884 39.4731 64.0884C36.5492 64.0884 34.719 66.3874 34.719 71.2308C34.719 76.1189 36.5492 78.3956 39.4731 78.3956ZM53.3571 62.8608C56.3256 62.8608 58.2451 64.4232 58.2451 67.0347C58.2451 70.3157 55.4328 73.5075 49.4734 77.9938H58.7362V79.333H47.5539V77.9492C53.5133 73.4182 56.772 70.2041 56.772 67.1909C56.772 65.1152 55.1873 64.0884 53.3571 64.0884C51.3259 64.0884 49.4734 65.0482 49.4064 68.1507H47.9333C48.0895 64.6911 50.143 62.8608 53.3571 62.8608ZM67.4305 65.0705L60.3774 73.7307H67.4305V65.0705ZM71.9615 73.7307V75.0922H68.8144V79.333H67.4305V75.0922H58.7257V73.8423L67.4528 63.151H68.8144V73.7307H71.9615ZM79.3998 73.9985H73.1502V72.4361H79.3998V73.9985ZM87.7968 79.6232C83.5114 79.6232 81.5695 76.3868 81.5695 71.2308C81.5695 66.1196 83.5114 62.8608 87.7968 62.8608C92.0376 62.8608 94.0018 66.1196 94.0018 71.2308C94.0018 76.3868 92.0376 79.6232 87.7968 79.6232ZM87.7968 78.3956C90.6984 78.3956 92.551 76.1189 92.551 71.2308C92.551 66.3874 90.6984 64.0884 87.7968 64.0884C84.8729 64.0884 83.0427 66.3874 83.0427 71.2308C83.0427 76.1189 84.8729 78.3956 87.7968 78.3956ZM101.949 62.8608C105.23 62.8608 107.261 64.5572 107.261 66.9008C107.261 68.8426 106.256 70.0702 104.828 70.6728C106.613 71.4094 107.752 72.6816 107.752 74.8467C107.752 77.8822 105.274 79.6232 101.949 79.6232C98.6452 79.6232 96.1677 77.8822 96.1677 74.8467C96.1677 72.6816 97.2837 71.4094 99.0693 70.6728C97.6631 70.0702 96.6587 68.8426 96.6587 66.9008C96.6587 64.5572 98.6675 62.8608 101.949 62.8608ZM101.949 71.2308C99.3371 71.2308 97.6408 72.6816 97.6408 74.8467C97.6408 77.0117 99.3371 78.3956 101.949 78.3956C104.605 78.3956 106.279 77.0117 106.279 74.8467C106.279 72.6816 104.582 71.2308 101.949 71.2308ZM105.832 67.124C105.832 65.1821 104.337 64.0884 101.949 64.0884C99.605 64.0884 98.0872 65.1821 98.0872 67.124C98.0872 69.0212 99.605 70.1595 101.949 70.1595C104.337 70.1595 105.832 69.0212 105.832 67.124ZM115.713 73.9985H109.464V72.4361H115.713V73.9985ZM121.091 79.333H119.707V66.2312H116.002V65.2937C118.837 65.2937 119.551 65.0036 120.154 63.0171H121.091V79.333ZM129.89 78.3956C132.144 78.3956 134.063 76.8555 134.063 74.0432C134.063 71.0076 131.898 69.7577 129.845 69.7577C128.015 69.7577 126.497 70.7398 126.028 71.8335L124.667 71.6996L125.716 63.151H134.867V64.4902H126.921L126.207 70.0256C126.988 69.1328 128.595 68.5078 130.18 68.5078C133.171 68.5078 135.537 70.4496 135.537 74.0208C135.537 77.7036 132.836 79.6232 129.89 79.6232C126.675 79.6232 124.51 77.5251 124.22 74.7797H125.693C126.162 77.2796 127.97 78.3956 129.89 78.3956Z"/><g clip-path="url(#clip1_3407_26715)"><rect width="183.667" height="206.625" fill="#7AE2B5" transform="translate(183.667)"/><path fill="#29D087" d="M576.21 218.762H127.465L127.465 76.6831H127.474C141.502 76.6831 148.516 73.1463 155.529 69.6098C162.54 66.0738 169.552 62.5381 183.573 62.5381C197.596 62.5381 204.607 66.0743 211.618 69.6106C218.629 73.1468 225.641 76.6831 239.663 76.6831C253.686 76.6831 260.697 73.1468 267.708 69.6106C274.72 66.0743 281.731 62.5381 295.753 62.5381C309.776 62.5381 316.787 66.0743 323.798 69.6106C330.81 73.1468 337.821 76.6831 351.843 76.6831C365.866 76.6831 372.877 73.1468 379.889 69.6106C386.9 66.0743 393.911 62.5381 407.934 62.5381C421.956 62.5381 428.967 66.0743 435.979 69.6106C442.99 73.1468 450.001 76.6831 464.024 76.6831C478.045 76.6831 485.054 73.1474 492.064 69.6114C499.075 66.0749 506.086 62.5381 520.114 62.5381C534.142 62.5381 541.155 66.0749 548.168 69.6114C555.18 73.1471 562.19 76.6826 576.21 76.6831L576.21 218.762Z"/><path fill="#00C770" d="M632.412 131.827C618.476 131.85 611.486 135.367 604.495 138.883C597.482 142.411 590.468 145.939 576.441 145.939C562.413 145.939 555.4 142.411 548.386 138.883C541.372 135.355 534.359 131.827 520.331 131.827C506.304 131.827 499.29 135.355 492.277 138.883C485.263 142.411 478.249 145.939 464.222 145.939C450.195 145.939 443.181 142.411 436.167 138.883C429.154 135.355 422.14 131.827 408.113 131.827C394.086 131.827 387.072 135.355 380.058 138.883C373.045 142.411 366.031 145.939 352.004 145.939C337.977 145.939 330.966 142.412 323.954 138.884C316.941 135.356 309.927 131.827 295.894 131.827C281.861 131.827 274.846 135.356 267.83 138.884C260.816 142.412 253.802 145.939 239.776 145.939C225.749 145.939 218.735 142.411 211.722 138.883C204.708 135.355 197.694 131.827 183.667 131.827V294.939H632.412V131.827Z"/></g></g><defs><clipPath id="clip0_3407_26715"><rect width="367" height="206" fill="#fff"/></clipPath><clipPath id="clip1_3407_26715"><rect width="183.667" height="206.625" fill="#fff" transform="translate(183.667)"/></clipPath></defs></svg>