<svg width="1200" height="515" viewBox="0 0 1200 515" fill="none" xmlns="http://www.w3.org/2000/svg">
<g clip-path="url(#clip0_10607_33953)">
<g clip-path="url(#clip1_10607_33953)">
<rect width="1200" height="515" fill="url(#paint0_linear_10607_33953)"/>
<path d="M794.496 -399.098C794.496 -399.924 793.826 -400.594 792.999 -400.594C792.173 -400.594 791.503 -399.924 791.503 -399.098L792.999 -399.098L794.496 -399.098ZM791.942 89.4604C792.526 90.0447 793.474 90.0447 794.058 89.4604L803.58 79.938C804.165 79.3536 804.165 78.4062 803.58 77.8219C802.996 77.2375 802.049 77.2375 801.464 77.8219L793 86.2863L784.536 77.8219C783.951 77.2376 783.004 77.2376 782.42 77.8219C781.835 78.4063 781.835 79.3537 782.42 79.938L791.942 89.4604ZM792.999 -399.098L791.503 -399.098L791.504 88.4023L793 88.4023L794.496 88.4023L794.496 -399.098L792.999 -399.098Z" fill="#F0DF09"/>
<path d="M534.999 -473.862L619.612 -473.862C655.51 -473.862 684.612 -444.761 684.612 -408.862L684.612 -199C684.612 -163.102 713.713 -134 749.612 -134L816 -134C851.899 -134 881 -104.899 881 -69L881 108.5C881 144.398 910.102 173.5 946 173.5L1208 173.5" stroke="#F0DF09" stroke-width="2.9926"/>
<path d="M603 749.902L782.688 749.902C818.586 749.902 847.688 720.801 847.688 684.902L847.688 496.402C847.688 460.504 876.789 431.402 912.688 431.402L985 431.402C1020.9 431.402 1050 402.301 1050 366.402L1050 -148.098" stroke="#F0DF09" stroke-width="2.9926"/>
<path d="M372 631.403L372 512.5C372 476.602 342.898 447.5 307 447.5L166 447.501C130.102 447.501 101 418.399 101 382.501L101 149.965C101 114.066 130.102 84.9648 166 84.9648L483.244 84.9649C519.142 84.9649 548.244 55.8634 548.244 19.9649L548.244 -373.097C548.244 -408.996 577.345 -438.097 613.244 -438.097L793 -438.097" stroke="#F0DF09" stroke-width="2.9926"/>
<rect x="92.9619" y="245.866" width="16.0762" height="38.0762" rx="8.0381" fill="#D4C50B" stroke="#F0DF09" stroke-width="1.92382"/>
<path d="M633.4 54L638.72 33.56H642.108L647.4 54H644.852L643.508 48.568H637.32L635.976 54H633.4ZM637.824 46.44H642.976L641.408 40.14C641.109 38.9453 640.876 37.9467 640.708 37.144C640.54 36.3413 640.437 35.8187 640.4 35.576C640.363 35.8187 640.26 36.3413 640.092 37.144C639.924 37.9467 639.691 38.936 639.392 40.112L637.824 46.44ZM655.929 54V35.828H650.329V33.532H664.049V35.828H658.449V54H655.929ZM672.718 54V35.828H667.118V33.532H680.838V35.828H675.238V54H672.718ZM683.767 54L689.087 33.56H692.475L697.767 54H695.219L693.875 48.568H687.687L686.343 54H683.767ZM688.191 46.44H693.343L691.775 40.14C691.477 38.9453 691.243 37.9467 691.075 37.144C690.907 36.3413 690.805 35.8187 690.767 35.576C690.73 35.8187 690.627 36.3413 690.459 37.144C690.291 37.9467 690.058 38.936 689.759 40.112L688.191 46.44ZM707.668 54.28C706.436 54.28 705.363 54.0467 704.448 53.58C703.552 53.1133 702.852 52.4413 702.348 51.564C701.863 50.668 701.62 49.6133 701.62 48.4V39.16C701.62 37.928 701.863 36.8733 702.348 35.996C702.852 35.1187 703.552 34.4467 704.448 33.98C705.363 33.5133 706.436 33.28 707.668 33.28C708.9 33.28 709.964 33.5227 710.86 34.008C711.756 34.4747 712.447 35.1467 712.932 36.024C713.418 36.9013 713.66 37.9467 713.66 39.16H711.14C711.14 38.0027 710.832 37.116 710.216 36.5C709.619 35.8653 708.77 35.548 707.668 35.548C706.567 35.548 705.699 35.856 705.064 36.472C704.448 37.088 704.14 37.9747 704.14 39.132V48.4C704.14 49.5573 704.448 50.4533 705.064 51.088C705.699 51.704 706.567 52.012 707.668 52.012C708.77 52.012 709.619 51.704 710.216 51.088C710.832 50.4533 711.14 49.5573 711.14 48.4H713.66C713.66 49.5947 713.418 50.64 712.932 51.536C712.447 52.4133 711.756 53.0947 710.86 53.58C709.964 54.0467 708.9 54.28 707.668 54.28ZM718.549 54V33.56H721.069V42.296H727.621V33.56H730.141V54H727.621V44.592H721.069V54H718.549Z" fill="#F3E223"/>
<path d="M471.692 466.182C470.161 466.182 468.92 465.669 467.968 464.642C467.034 463.615 466.568 462.225 466.568 460.47V455.962C466.568 454.189 467.034 452.789 467.968 451.762C468.901 450.735 470.142 450.222 471.692 450.222C472.961 450.222 473.978 450.567 474.744 451.258C475.509 451.949 475.892 452.873 475.892 454.03L475.388 453.442H475.948L475.892 449.942V445.462H478.412V465.902H475.892V462.962H475.388L475.892 462.374C475.892 463.55 475.509 464.483 474.744 465.174C473.978 465.846 472.961 466.182 471.692 466.182ZM472.532 463.998C473.577 463.998 474.398 463.671 474.996 463.018C475.593 462.365 475.892 461.459 475.892 460.302V456.102C475.892 454.945 475.593 454.039 474.996 453.386C474.398 452.733 473.577 452.406 472.532 452.406C471.468 452.406 470.628 452.723 470.012 453.358C469.396 453.993 469.088 454.907 469.088 456.102V460.302C469.088 461.497 469.396 462.411 470.012 463.046C470.628 463.681 471.468 463.998 472.532 463.998ZM489.349 466.182C487.575 466.182 486.157 465.659 485.093 464.614C484.029 463.55 483.497 462.113 483.497 460.302V450.502H486.017V460.302C486.017 461.459 486.315 462.365 486.913 463.018C487.51 463.653 488.322 463.97 489.349 463.97C490.394 463.97 491.215 463.653 491.813 463.018C492.429 462.365 492.737 461.459 492.737 460.302V450.502H495.257V460.302C495.257 462.113 494.715 463.55 493.633 464.614C492.55 465.659 491.122 466.182 489.349 466.182ZM506.278 466.182C505.046 466.182 503.963 465.949 503.03 465.482C502.115 465.015 501.406 464.343 500.902 463.466C500.398 462.57 500.146 461.515 500.146 460.302V456.102C500.146 454.87 500.398 453.815 500.902 452.938C501.406 452.061 502.115 451.389 503.03 450.922C503.963 450.455 505.046 450.222 506.278 450.222C508.051 450.222 509.479 450.698 510.562 451.65C511.644 452.602 512.214 453.899 512.27 455.542H509.75C509.694 454.553 509.358 453.797 508.742 453.274C508.144 452.733 507.323 452.462 506.278 452.462C505.176 452.462 504.299 452.779 503.646 453.414C502.992 454.03 502.666 454.917 502.666 456.074V460.302C502.666 461.459 502.992 462.355 503.646 462.99C504.299 463.625 505.176 463.942 506.278 463.942C507.323 463.942 508.144 463.671 508.742 463.13C509.358 462.589 509.694 461.833 509.75 460.862H512.27C512.214 462.505 511.644 463.802 510.562 464.754C509.479 465.706 508.051 466.182 506.278 466.182ZM517.215 465.902V445.462H519.735V456.858H522.703L527.183 450.502H530.067L524.887 457.838L530.151 465.902H527.211L522.731 459.042H519.735V465.902H517.215ZM538.848 466.182C537.317 466.182 536.076 465.669 535.124 464.642C534.19 463.615 533.724 462.225 533.724 460.47V455.962C533.724 454.189 534.19 452.789 535.124 451.762C536.057 450.735 537.298 450.222 538.848 450.222C540.117 450.222 541.134 450.567 541.9 451.258C542.665 451.949 543.048 452.873 543.048 454.03L542.544 453.442H543.104L543.048 449.942V445.462H545.568V465.902H543.048V462.962H542.544L543.048 462.374C543.048 463.55 542.665 464.483 541.9 465.174C541.134 465.846 540.117 466.182 538.848 466.182ZM539.688 463.998C540.733 463.998 541.554 463.671 542.152 463.018C542.749 462.365 543.048 461.459 543.048 460.302V456.102C543.048 454.945 542.749 454.039 542.152 453.386C541.554 452.733 540.733 452.406 539.688 452.406C538.624 452.406 537.784 452.723 537.168 453.358C536.552 453.993 536.244 454.907 536.244 456.102V460.302C536.244 461.497 536.552 462.411 537.168 463.046C537.784 463.681 538.624 463.998 539.688 463.998ZM557.429 466.182C556.159 466.182 555.142 465.846 554.377 465.174C553.611 464.483 553.229 463.55 553.229 462.374L553.733 462.962H553.229V465.902H550.709V445.462H553.229V449.942L553.173 453.442H553.733L553.229 454.03C553.229 452.873 553.611 451.949 554.377 451.258C555.161 450.567 556.178 450.222 557.429 450.222C558.978 450.222 560.219 450.735 561.153 451.762C562.086 452.789 562.553 454.189 562.553 455.962V460.47C562.553 462.225 562.086 463.615 561.153 464.642C560.219 465.669 558.978 466.182 557.429 466.182ZM556.589 463.998C557.653 463.998 558.493 463.681 559.109 463.046C559.725 462.411 560.033 461.497 560.033 460.302V456.102C560.033 454.907 559.725 453.993 559.109 453.358C558.493 452.723 557.653 452.406 556.589 452.406C555.562 452.406 554.741 452.733 554.125 453.386C553.527 454.039 553.229 454.945 553.229 456.102V460.302C553.229 461.459 553.527 462.365 554.125 463.018C554.741 463.671 555.562 463.998 556.589 463.998ZM566.602 468.702V466.602H580.042V468.702H566.602ZM589.215 466.182C587.684 466.182 586.443 465.669 585.491 464.642C584.558 463.615 584.091 462.225 584.091 460.47V455.962C584.091 454.189 584.558 452.789 585.491 451.762C586.424 450.735 587.666 450.222 589.215 450.222C590.484 450.222 591.502 450.567 592.267 451.258C593.032 451.949 593.415 452.873 593.415 454.03L592.911 453.442H593.471L593.415 449.942V445.462H595.935V465.902H593.415V462.962H592.911L593.415 462.374C593.415 463.55 593.032 464.483 592.267 465.174C591.502 465.846 590.484 466.182 589.215 466.182ZM590.055 463.998C591.1 463.998 591.922 463.671 592.519 463.018C593.116 462.365 593.415 461.459 593.415 460.302V456.102C593.415 454.945 593.116 454.039 592.519 453.386C591.922 452.733 591.1 452.406 590.055 452.406C588.991 452.406 588.151 452.723 587.535 453.358C586.919 453.993 586.611 454.907 586.611 456.102V460.302C586.611 461.497 586.919 462.411 587.535 463.046C588.151 463.681 588.991 463.998 590.055 463.998ZM605.556 466.182C603.932 466.182 602.653 465.771 601.72 464.95C600.787 464.11 600.32 462.981 600.32 461.562C600.32 460.125 600.787 458.995 601.72 458.174C602.653 457.353 603.913 456.942 605.5 456.942H610.26V455.402C610.26 454.45 609.971 453.722 609.392 453.218C608.832 452.695 608.029 452.434 606.984 452.434C606.069 452.434 605.304 452.63 604.688 453.022C604.072 453.395 603.717 453.909 603.624 454.562H601.104C601.272 453.237 601.897 452.182 602.98 451.398C604.063 450.614 605.416 450.222 607.04 450.222C608.813 450.222 610.213 450.679 611.24 451.594C612.267 452.509 612.78 453.75 612.78 455.318V465.902H610.316V462.962H609.896L610.316 462.542C610.316 463.662 609.877 464.549 609 465.202C608.141 465.855 606.993 466.182 605.556 466.182ZM606.172 464.194C607.367 464.194 608.347 463.895 609.112 463.298C609.877 462.701 610.26 461.935 610.26 461.002V458.818H605.556C604.716 458.818 604.053 459.051 603.568 459.518C603.083 459.985 602.84 460.619 602.84 461.422C602.84 462.281 603.129 462.962 603.708 463.466C604.305 463.951 605.127 464.194 606.172 464.194ZM625.369 465.902C624.044 465.902 623.008 465.547 622.261 464.838C621.533 464.129 621.169 463.13 621.169 461.842V452.798H616.829V450.502H621.169V446.162H623.689V450.502H629.849V452.798H623.689V461.842C623.689 463.018 624.249 463.606 625.369 463.606H629.569V465.902H625.369ZM639.134 466.182C637.51 466.182 636.231 465.771 635.298 464.95C634.365 464.11 633.898 462.981 633.898 461.562C633.898 460.125 634.365 458.995 635.298 458.174C636.231 457.353 637.491 456.942 639.078 456.942H643.838V455.402C643.838 454.45 643.549 453.722 642.97 453.218C642.41 452.695 641.607 452.434 640.562 452.434C639.647 452.434 638.882 452.63 638.266 453.022C637.65 453.395 637.295 453.909 637.202 454.562H634.682C634.85 453.237 635.475 452.182 636.558 451.398C637.641 450.614 638.994 450.222 640.618 450.222C642.391 450.222 643.791 450.679 644.818 451.594C645.845 452.509 646.358 453.75 646.358 455.318V465.902H643.894V462.962H643.474L643.894 462.542C643.894 463.662 643.455 464.549 642.578 465.202C641.719 465.855 640.571 466.182 639.134 466.182ZM639.75 464.194C640.945 464.194 641.925 463.895 642.69 463.298C643.455 462.701 643.838 461.935 643.838 461.002V458.818H639.134C638.294 458.818 637.631 459.051 637.146 459.518C636.661 459.985 636.418 460.619 636.418 461.422C636.418 462.281 636.707 462.962 637.286 463.466C637.883 463.951 638.705 464.194 639.75 464.194ZM658.163 466.182C656.894 466.182 655.877 465.846 655.111 465.174C654.346 464.483 653.963 463.55 653.963 462.374L654.467 462.962H653.963V465.902H651.443V445.462H653.963V449.942L653.907 453.442H654.467L653.963 454.03C653.963 452.873 654.346 451.949 655.111 451.258C655.895 450.567 656.913 450.222 658.163 450.222C659.713 450.222 660.954 450.735 661.887 451.762C662.821 452.789 663.287 454.189 663.287 455.962V460.47C663.287 462.225 662.821 463.615 661.887 464.642C660.954 465.669 659.713 466.182 658.163 466.182ZM657.323 463.998C658.387 463.998 659.227 463.681 659.843 463.046C660.459 462.411 660.767 461.497 660.767 460.302V456.102C660.767 454.907 660.459 453.993 659.843 453.358C659.227 452.723 658.387 452.406 657.323 452.406C656.297 452.406 655.475 452.733 654.859 453.386C654.262 454.039 653.963 454.945 653.963 456.102V460.302C653.963 461.459 654.262 462.365 654.859 463.018C655.475 463.671 656.297 463.998 657.323 463.998ZM672.712 466.182C671.088 466.182 669.81 465.771 668.876 464.95C667.943 464.11 667.476 462.981 667.476 461.562C667.476 460.125 667.943 458.995 668.876 458.174C669.81 457.353 671.07 456.942 672.656 456.942H677.416V455.402C677.416 454.45 677.127 453.722 676.548 453.218C675.988 452.695 675.186 452.434 674.14 452.434C673.226 452.434 672.46 452.63 671.844 453.022C671.228 453.395 670.874 453.909 670.78 454.562H668.26C668.428 453.237 669.054 452.182 670.136 451.398C671.219 450.614 672.572 450.222 674.196 450.222C675.97 450.222 677.37 450.679 678.396 451.594C679.423 452.509 679.936 453.75 679.936 455.318V465.902H677.472V462.962H677.052L677.472 462.542C677.472 463.662 677.034 464.549 676.156 465.202C675.298 465.855 674.15 466.182 672.712 466.182ZM673.328 464.194C674.523 464.194 675.503 463.895 676.268 463.298C677.034 462.701 677.416 461.935 677.416 461.002V458.818H672.712C671.872 458.818 671.21 459.051 670.724 459.518C670.239 459.985 669.996 460.619 669.996 461.422C669.996 462.281 670.286 462.962 670.864 463.466C671.462 463.951 672.283 464.194 673.328 464.194ZM690.369 466.126C689.324 466.126 688.409 465.967 687.625 465.65C686.86 465.314 686.244 464.847 685.777 464.25C685.329 463.653 685.059 462.943 684.965 462.122H687.485C687.597 462.663 687.896 463.093 688.381 463.41C688.885 463.727 689.548 463.886 690.369 463.886H691.545C692.535 463.886 693.272 463.69 693.757 463.298C694.243 462.887 694.485 462.346 694.485 461.674C694.485 461.021 694.261 460.507 693.813 460.134C693.384 459.742 692.74 459.481 691.881 459.35L689.809 459.014C688.297 458.753 687.168 458.286 686.421 457.614C685.693 456.923 685.329 455.925 685.329 454.618C685.329 453.237 685.768 452.173 686.645 451.426C687.523 450.661 688.839 450.278 690.593 450.278H691.657C693.132 450.278 694.317 450.623 695.213 451.314C696.109 452.005 696.651 452.938 696.837 454.114H694.317C694.205 453.629 693.925 453.246 693.477 452.966C693.029 452.667 692.423 452.518 691.657 452.518H690.593C689.641 452.518 688.941 452.695 688.493 453.05C688.064 453.405 687.849 453.937 687.849 454.646C687.849 455.281 688.036 455.747 688.409 456.046C688.783 456.345 689.371 456.559 690.173 456.69L692.245 457.026C693.907 457.287 695.111 457.773 695.857 458.482C696.623 459.191 697.005 460.218 697.005 461.562C697.005 462.981 696.548 464.101 695.633 464.922C694.737 465.725 693.375 466.126 691.545 466.126H690.369ZM707.634 466.182C706.421 466.182 705.357 465.939 704.442 465.454C703.546 464.969 702.846 464.287 702.342 463.41C701.857 462.514 701.614 461.478 701.614 460.302V456.102C701.614 454.907 701.857 453.871 702.342 452.994C702.846 452.117 703.546 451.435 704.442 450.95C705.357 450.465 706.421 450.222 707.634 450.222C708.848 450.222 709.902 450.465 710.798 450.95C711.713 451.435 712.413 452.117 712.898 452.994C713.402 453.871 713.654 454.907 713.654 456.102V458.818H704.078V460.302C704.078 461.515 704.386 462.449 705.002 463.102C705.618 463.737 706.496 464.054 707.634 464.054C708.605 464.054 709.389 463.886 709.986 463.55C710.584 463.195 710.948 462.673 711.078 461.982H713.598C713.43 463.27 712.796 464.297 711.694 465.062C710.612 465.809 709.258 466.182 707.634 466.182ZM711.19 457.138V456.102C711.19 454.889 710.882 453.955 710.266 453.302C709.669 452.649 708.792 452.322 707.634 452.322C706.496 452.322 705.618 452.649 705.002 453.302C704.386 453.955 704.078 454.889 704.078 456.102V456.914H711.386L711.19 457.138ZM723.947 466.126C722.902 466.126 721.987 465.967 721.203 465.65C720.438 465.314 719.822 464.847 719.355 464.25C718.907 463.653 718.637 462.943 718.543 462.122H721.063C721.175 462.663 721.474 463.093 721.959 463.41C722.463 463.727 723.126 463.886 723.947 463.886H725.123C726.113 463.886 726.85 463.69 727.335 463.298C727.821 462.887 728.063 462.346 728.063 461.674C728.063 461.021 727.839 460.507 727.391 460.134C726.962 459.742 726.318 459.481 725.459 459.35L723.387 459.014C721.875 458.753 720.746 458.286 719.999 457.614C719.271 456.923 718.907 455.925 718.907 454.618C718.907 453.237 719.346 452.173 720.223 451.426C721.101 450.661 722.417 450.278 724.171 450.278H725.235C726.71 450.278 727.895 450.623 728.791 451.314C729.687 452.005 730.229 452.938 730.415 454.114H727.895C727.783 453.629 727.503 453.246 727.055 452.966C726.607 452.667 726.001 452.518 725.235 452.518H724.171C723.219 452.518 722.519 452.695 722.071 453.05C721.642 453.405 721.427 453.937 721.427 454.646C721.427 455.281 721.614 455.747 721.987 456.046C722.361 456.345 722.949 456.559 723.751 456.69L725.823 457.026C727.485 457.287 728.689 457.773 729.435 458.482C730.201 459.191 730.583 460.218 730.583 461.562C730.583 462.981 730.126 464.101 729.211 464.922C728.315 465.725 726.953 466.126 725.123 466.126H723.947Z" fill="#F3E223"/>
<path d="M183.58 164.36C180.929 163.707 178.867 162.419 177.392 160.496C175.917 158.573 175.18 156.221 175.18 153.44V148.4C175.18 146.571 175.516 144.919 176.188 143.444C176.879 141.951 177.849 140.691 179.1 139.664C180.369 138.637 181.863 137.909 183.58 137.48V139.86C182.385 140.14 181.349 140.681 180.472 141.484C179.595 142.268 178.913 143.248 178.428 144.424C177.943 145.6 177.7 146.925 177.7 148.4V153.44C177.7 154.877 177.933 156.184 178.4 157.36C178.885 158.536 179.567 159.516 180.444 160.3C181.34 161.065 182.385 161.588 183.58 161.868V164.36ZM190.009 164.36V161.868C191.222 161.588 192.268 161.065 193.145 160.3C194.022 159.516 194.694 158.536 195.161 157.36C195.646 156.184 195.889 154.877 195.889 153.44V148.4C195.889 146.925 195.646 145.6 195.161 144.424C194.676 143.248 193.994 142.268 193.117 141.484C192.24 140.681 191.204 140.14 190.009 139.86V137.48C191.745 137.909 193.238 138.637 194.489 139.664C195.74 140.691 196.701 141.951 197.373 143.444C198.064 144.919 198.409 146.571 198.409 148.4V153.44C198.409 156.221 197.672 158.573 196.197 160.496C194.722 162.419 192.66 163.707 190.009 164.36ZM208.338 165.48L210.578 156.772H214.218L210.578 165.48H208.338ZM211.698 149.52C211.082 149.52 210.578 149.324 210.186 148.932C209.794 148.54 209.598 148.036 209.598 147.42C209.598 146.823 209.794 146.328 210.186 145.936C210.597 145.525 211.101 145.32 211.698 145.32H212.258C212.855 145.32 213.35 145.525 213.742 145.936C214.153 146.328 214.358 146.823 214.358 147.42C214.358 148.036 214.162 148.54 213.77 148.932C213.378 149.324 212.874 149.52 212.258 149.52H211.698Z" fill="#F3E223"/>
<path d="M1114.02 361.182C1113.32 361.182 1112.75 360.977 1112.32 360.566C1111.91 360.155 1111.7 359.605 1111.7 358.914C1111.7 358.186 1111.91 357.607 1112.32 357.178C1112.75 356.749 1113.32 356.534 1114.02 356.534C1114.73 356.534 1115.29 356.749 1115.7 357.178C1116.13 357.607 1116.35 358.186 1116.35 358.914C1116.35 359.605 1116.13 360.155 1115.7 360.566C1115.29 360.977 1114.73 361.182 1114.02 361.182ZM1127.48 358.27L1125.47 356.87L1126.98 354.686C1127.22 354.331 1127.51 353.986 1127.85 353.65C1128.18 353.295 1128.52 352.969 1128.85 352.67C1129.21 352.353 1129.52 352.082 1129.78 351.858L1129.69 351.662C1129.34 351.625 1128.94 351.587 1128.49 351.55C1128.04 351.494 1127.58 351.419 1127.12 351.326C1126.67 351.214 1126.25 351.093 1125.86 350.962L1123.39 350.066L1124.23 347.742L1126.7 348.638C1127.09 348.769 1127.49 348.955 1127.9 349.198C1128.33 349.422 1128.74 349.665 1129.13 349.926C1129.53 350.169 1129.86 350.402 1130.14 350.626L1130.28 350.514C1130.19 350.159 1130.09 349.758 1129.97 349.31C1129.86 348.843 1129.77 348.367 1129.69 347.882C1129.62 347.378 1129.58 346.911 1129.58 346.482V343.822H1132.05V346.482C1132.05 346.911 1132.01 347.378 1131.93 347.882C1131.86 348.367 1131.77 348.843 1131.65 349.31C1131.54 349.758 1131.43 350.159 1131.32 350.514L1131.46 350.626C1131.76 350.402 1132.09 350.169 1132.47 349.926C1132.86 349.665 1133.26 349.422 1133.67 349.198C1134.1 348.955 1134.51 348.769 1134.9 348.638L1137.39 347.742L1138.23 350.066L1135.74 350.962C1135.37 351.093 1134.95 351.214 1134.48 351.326C1134.03 351.419 1133.59 351.494 1133.14 351.55C1132.69 351.587 1132.29 351.625 1131.93 351.662L1131.82 351.886C1132.1 352.11 1132.41 352.381 1132.75 352.698C1133.1 352.997 1133.44 353.323 1133.75 353.678C1134.09 354.014 1134.37 354.35 1134.59 354.686L1136.13 356.87L1134.12 358.27L1132.58 356.086C1132.35 355.75 1132.13 355.367 1131.91 354.938C1131.7 354.509 1131.5 354.079 1131.32 353.65C1131.15 353.221 1131.01 352.838 1130.9 352.502H1130.7C1130.59 352.838 1130.44 353.221 1130.25 353.65C1130.09 354.079 1129.89 354.509 1129.67 354.938C1129.46 355.367 1129.24 355.75 1128.99 356.086L1127.48 358.27Z" fill="#F3E223"/>
<path d="M168.493 711.278C168.493 712.104 169.163 712.774 169.989 712.774C170.815 712.774 171.485 712.104 171.485 711.278L169.989 711.278L168.493 711.278ZM171.046 222.72C170.462 222.135 169.515 222.135 168.93 222.72L159.408 232.242C158.823 232.827 158.823 233.774 159.408 234.358C159.992 234.943 160.94 234.943 161.524 234.358L169.988 225.894L178.453 234.358C179.037 234.943 179.984 234.943 180.569 234.358C181.153 233.774 181.153 232.827 180.569 232.242L171.046 222.72ZM169.989 711.278L171.485 711.278L171.485 223.778L169.988 223.778L168.492 223.778L168.493 711.278L169.989 711.278Z" fill="#F0DF09"/>
</g>
<path d="M353.429 326.477C314.778 326.477 283.564 295.264 283.564 256.613C283.564 217.962 314.778 186.749 353.429 186.749C392.079 186.749 423.293 217.962 423.293 256.613C423.293 295.264 392.079 326.477 353.429 326.477Z" fill="black"/>
<path d="M390.785 246.248H377.08V266.931H390.785C396.468 266.931 401.19 262.21 401.19 256.527C401.19 250.803 396.468 246.248 390.785 246.248Z" fill="#FFF100"/>
<path d="M309.928 256.614C309.928 272.576 322.923 285.571 338.885 285.571C354.846 285.571 367.841 272.576 367.841 256.614C367.841 240.652 354.846 227.657 338.885 227.657C322.923 227.657 309.928 240.652 309.928 256.614Z" fill="#FFF100"/>
<path d="M459.121 274.113V239.098H468.523C470.793 239.098 472.76 239.545 474.423 240.441C476.118 241.304 477.429 242.535 478.356 244.134C479.283 245.701 479.747 247.556 479.747 249.698V263.465C479.747 265.607 479.283 267.478 478.356 269.077C477.429 270.676 476.118 271.923 474.423 272.818C472.76 273.682 470.793 274.113 468.523 274.113H459.121ZM463.87 269.892H468.523C470.537 269.892 472.12 269.317 473.272 268.165C474.423 267.014 474.998 265.447 474.998 263.465V249.698C474.998 247.716 474.423 246.165 473.272 245.046C472.12 243.894 470.537 243.319 468.523 243.319H463.87V269.892ZM498.004 274.593C494.902 274.593 492.423 273.682 490.569 271.859C488.714 270.036 487.787 267.558 487.787 264.424V247.732H492.535V264.424C492.535 266.279 493.015 267.75 493.974 268.837C494.966 269.892 496.309 270.42 498.004 270.42C499.73 270.42 501.089 269.892 502.081 268.837C503.072 267.75 503.568 266.279 503.568 264.424V247.732H508.316V264.424C508.316 267.558 507.373 270.036 505.486 271.859C503.632 273.682 501.137 274.593 498.004 274.593ZM527.196 274.593C523.967 274.593 521.376 273.698 519.426 271.907C517.475 270.084 516.5 267.59 516.5 264.424V257.373C516.5 254.239 517.475 251.777 519.426 249.986C521.376 248.163 523.967 247.252 527.196 247.252C530.298 247.252 532.792 248.083 534.679 249.746C536.598 251.377 537.605 253.616 537.701 256.462H533C532.904 254.863 532.329 253.632 531.274 252.768C530.25 251.873 528.891 251.425 527.196 251.425C525.374 251.425 523.919 251.953 522.831 253.008C521.776 254.031 521.249 255.486 521.249 257.373V264.424C521.249 266.343 521.776 267.814 522.831 268.837C523.919 269.86 525.374 270.372 527.196 270.372C528.923 270.372 530.298 269.94 531.322 269.077C532.345 268.213 532.904 266.982 533 265.383H537.701C537.605 268.229 536.598 270.484 534.679 272.147C532.792 273.778 530.298 274.593 527.196 274.593ZM545.645 274.113V239.098H550.393V258.476H555.238L562.337 247.732H567.709L559.411 260.347L568.141 274.113H562.673L555.286 262.553H550.393V274.113H545.645ZM574.166 274.113V239.098H583.568C585.838 239.098 587.805 239.545 589.467 240.441C591.162 241.304 592.473 242.535 593.401 244.134C594.328 245.701 594.792 247.556 594.792 249.698V263.465C594.792 265.607 594.328 267.478 593.401 269.077C592.473 270.676 591.162 271.923 589.467 272.818C587.805 273.682 585.838 274.113 583.568 274.113H574.166ZM578.915 269.892H583.568C585.582 269.892 587.165 269.317 588.316 268.165C589.467 267.014 590.043 265.447 590.043 263.465V249.698C590.043 247.716 589.467 246.165 588.316 245.046C587.165 243.894 585.582 243.319 583.568 243.319H578.915V269.892ZM602.975 274.113V239.098H613.096C616.326 239.098 618.868 239.913 620.723 241.544C622.61 243.143 623.553 245.349 623.553 248.163C623.553 249.986 622.977 251.617 621.826 253.056C620.707 254.463 619.252 255.326 617.461 255.646V255.79C618.804 255.95 619.987 256.43 621.011 257.229C622.066 258.029 622.881 259.052 623.457 260.299C624.065 261.514 624.368 262.857 624.368 264.328C624.368 267.334 623.409 269.716 621.49 271.475C619.604 273.234 617.029 274.113 613.768 274.113H602.975ZM607.628 253.871H613.048C614.839 253.871 616.246 253.408 617.269 252.48C618.293 251.521 618.804 250.226 618.804 248.595C618.804 246.932 618.293 245.637 617.269 244.71C616.246 243.75 614.855 243.271 613.096 243.271H607.628V253.871ZM607.628 269.94H613.336C615.287 269.94 616.822 269.429 617.941 268.405C619.06 267.35 619.62 265.927 619.62 264.136C619.62 262.282 619.06 260.779 617.941 259.627C616.822 258.476 615.287 257.901 613.336 257.901H607.628V269.94ZM660.498 274.113V269.796H669.851V243.367L660.45 250.37V244.998L668.412 239.098H674.6V269.796H682.274V274.113H660.498ZM699.38 274.593C698.165 274.593 697.173 274.225 696.406 273.49C695.67 272.754 695.303 271.811 695.303 270.66C695.303 269.445 695.67 268.453 696.406 267.686C697.173 266.918 698.165 266.535 699.38 266.535C700.595 266.535 701.57 266.918 702.306 267.686C703.073 268.453 703.457 269.445 703.457 270.66C703.457 271.811 703.073 272.754 702.306 273.49C701.57 274.225 700.595 274.593 699.38 274.593ZM732.746 274.113V266.631H716.965V259.388L729.772 239.098H735.144L721.665 260.491V262.361H732.746V253.967H737.494V274.113H732.746ZM756.902 274.593C755.687 274.593 754.696 274.225 753.928 273.49C753.193 272.754 752.825 271.811 752.825 270.66C752.825 269.445 753.193 268.453 753.928 267.686C754.696 266.918 755.687 266.535 756.902 266.535C758.117 266.535 759.092 266.918 759.828 267.686C760.595 268.453 760.979 269.445 760.979 270.66C760.979 271.811 760.595 272.754 759.828 273.49C759.092 274.225 758.117 274.593 756.902 274.593ZM785.184 274.593C781.89 274.593 779.284 273.698 777.365 271.907C775.446 270.084 774.487 267.622 774.487 264.52H779.236C779.236 266.343 779.763 267.782 780.819 268.837C781.906 269.86 783.377 270.372 785.231 270.372C787.054 270.372 788.509 269.86 789.596 268.837C790.684 267.782 791.227 266.343 791.227 264.52V262.074C791.227 260.251 790.684 258.812 789.596 257.757C788.541 256.669 787.086 256.126 785.231 256.126H781.298V252.145L789.74 243.367H775.542V239.098H795.065V243.415L786.718 252.049C789.564 252.305 791.819 253.328 793.482 255.119C795.145 256.877 795.976 259.196 795.976 262.074V264.52C795.976 267.622 795.001 270.084 793.05 271.907C791.131 273.698 788.509 274.593 785.184 274.593ZM834.935 274.113V239.098H839.684V269.796H855.273V274.113H834.935ZM869.596 274.113V243.415H860.099V239.098H883.794V243.415H874.345V274.113H869.596ZM900.9 274.593C897.446 274.593 894.696 273.698 892.649 271.907C890.603 270.084 889.58 267.59 889.58 264.424H894.328C894.328 266.279 894.92 267.734 896.103 268.789C897.286 269.844 898.885 270.372 900.9 270.372C902.818 270.372 904.337 269.844 905.457 268.789C906.608 267.702 907.183 266.263 907.183 264.472C907.183 263.129 906.816 261.962 906.08 260.97C905.345 259.947 904.305 259.26 902.962 258.908L897.782 257.517C895.511 256.877 893.705 255.726 892.362 254.063C891.051 252.368 890.395 250.37 890.395 248.067C890.395 246.181 890.811 244.534 891.642 243.127C892.506 241.688 893.705 240.585 895.24 239.817C896.775 239.018 898.549 238.618 900.564 238.618C902.61 238.618 904.401 239.018 905.936 239.817C907.503 240.585 908.718 241.672 909.582 243.079C910.445 244.486 910.877 246.117 910.877 247.972H906.176C906.176 246.437 905.648 245.189 904.593 244.23C903.57 243.271 902.227 242.791 900.564 242.791C898.901 242.791 897.558 243.271 896.535 244.23C895.543 245.189 895.048 246.437 895.048 247.972C895.048 249.219 895.384 250.274 896.055 251.137C896.727 251.969 897.67 252.56 898.885 252.912L904.209 254.351C906.608 254.991 908.478 256.222 909.821 258.045C911.165 259.835 911.836 261.978 911.836 264.472C911.836 266.519 911.388 268.309 910.493 269.844C909.598 271.347 908.319 272.514 906.656 273.346C905.025 274.177 903.106 274.593 900.9 274.593Z" fill="black"/>
</g>
<defs>
<linearGradient id="paint0_linear_10607_33953" x1="589" y1="-26.5" x2="587" y2="627" gradientUnits="userSpaceOnUse">
<stop stop-color="#FDEF00"/>
<stop offset="0.938633" stop-color="#FFFAA3"/>
</linearGradient>
<clipPath id="clip0_10607_33953">
<rect width="1200" height="514.29" fill="white"/>
</clipPath>
<clipPath id="clip1_10607_33953">
<rect width="1200" height="515" fill="white"/>
</clipPath>
</defs>
</svg>
