<svg xmlns="http://www.w3.org/2000/svg" width="560" height="240" fill="none" viewBox="0 0 560 240"><g clip-path="url(#clip0_5049_5466)"><rect width="560" height="240" fill="#FFF100"/><g clip-path="url(#clip1_5049_5466)"><rect width="560" height="240" fill="#FFF100"/><path fill="url(#paint0_linear_5049_5466)" d="M387 170.5L451.783 170.5C462.828 170.5 471.782 161.546 471.782 150.5L471.782 67.5001C471.782 56.4544 480.737 47.5001 491.782 47.5001L692.082 47.5001C703.128 47.5001 712.082 56.4544 712.082 67.5001L712.082 241.913C712.082 252.958 703.128 261.913 692.082 261.913L387 261.913C375.954 261.913 367 252.958 367 241.913L367 190.5C367 179.454 375.954 170.5 387 170.5Z"/><path fill="url(#paint1_linear_5049_5466)" d="M141.127 314L141.127 77.9839C141.127 66.9382 150.081 57.9839 161.127 57.9839L199.812 57.9839C210.857 57.9839 219.812 49.0296 219.812 37.9839L219.812 -86.9999C219.812 -98.0456 210.857 -107 199.812 -107L-54.0001 -107C-65.0458 -107 -74.0001 -98.0457 -74.0001 -87L-74.0002 314C-74.0002 325.046 -65.0458 334 -54.0002 334L121.127 334C132.173 334 141.127 325.046 141.127 314Z"/><rect width="546" height="169" x="417" y="194" fill="#FFF100" rx="20"/><rect width="598" height="204" x="-513" y="-43" fill="#FFF100" rx="20"/></g><path fill="#000" d="M205 153.5C186.467 153.5 171.5 138.533 171.5 120C171.5 101.467 186.467 86.5 205 86.5C223.533 86.5 238.5 101.467 238.5 120C238.5 138.533 223.533 153.5 205 153.5Z"/><path fill="#FFF100" d="M222.912 115.03H216.34V124.948H222.912C225.637 124.948 227.901 122.684 227.901 119.959C227.901 117.214 225.637 115.03 222.912 115.03Z"/><path fill="#FFF100" d="M184.141 120C184.141 127.654 190.372 133.885 198.026 133.885C205.68 133.885 211.911 127.654 211.911 120C211.911 112.346 205.68 106.115 198.026 106.115C190.372 106.115 184.141 112.346 184.141 120Z"/><path fill="#000" d="M265.547 128.5V126.43H270.032V113.757L265.524 117.115V114.539L269.342 111.71H272.309V126.43H275.989V128.5H265.547ZM284.191 128.73C283.608 128.73 283.133 128.554 282.765 128.201C282.412 127.848 282.236 127.396 282.236 126.844C282.236 126.261 282.412 125.786 282.765 125.418C283.133 125.05 283.608 124.866 284.191 124.866C284.774 124.866 285.241 125.05 285.594 125.418C285.962 125.786 286.146 126.261 286.146 126.844C286.146 127.396 285.962 127.848 285.594 128.201C285.241 128.554 284.774 128.73 284.191 128.73ZM292.991 128.5V126.407L298.695 120.381C299.431 119.614 299.952 118.917 300.259 118.288C300.581 117.644 300.742 117.015 300.742 116.402C300.742 115.528 300.489 114.83 299.983 114.309C299.477 113.772 298.795 113.504 297.936 113.504C297.047 113.504 296.341 113.772 295.82 114.309C295.299 114.846 295.038 115.574 295.038 116.494H292.761C292.792 114.961 293.275 113.742 294.21 112.837C295.161 111.932 296.403 111.48 297.936 111.48C299.5 111.48 300.742 111.925 301.662 112.814C302.597 113.703 303.065 114.892 303.065 116.379C303.065 117.192 302.85 118.043 302.421 118.932C301.992 119.806 301.263 120.772 300.236 121.83L295.774 126.43H303.272V128.5H292.991ZM311.773 128.73C311.19 128.73 310.715 128.554 310.347 128.201C309.994 127.848 309.818 127.396 309.818 126.844C309.818 126.261 309.994 125.786 310.347 125.418C310.715 125.05 311.19 124.866 311.773 124.866C312.356 124.866 312.823 125.05 313.176 125.418C313.544 125.786 313.728 126.261 313.728 126.844C313.728 127.396 313.544 127.848 313.176 128.201C312.823 128.554 312.356 128.73 311.773 128.73ZM325.564 128.73C323.985 128.73 322.735 128.285 321.815 127.396C320.895 126.491 320.435 125.28 320.435 123.762V116.448C320.435 114.93 320.895 113.726 321.815 112.837C322.735 111.932 323.985 111.48 325.564 111.48C327.143 111.48 328.393 111.932 329.313 112.837C330.233 113.726 330.693 114.93 330.693 116.448V123.762C330.693 124.759 330.478 125.633 330.049 126.384C329.635 127.12 329.045 127.695 328.278 128.109C327.511 128.523 326.607 128.73 325.564 128.73ZM325.564 126.775C326.453 126.775 327.166 126.499 327.703 125.947C328.24 125.38 328.508 124.651 328.508 123.762V116.448C328.508 115.559 328.24 114.838 327.703 114.286C327.166 113.719 326.453 113.435 325.564 113.435C324.675 113.435 323.962 113.719 323.425 114.286C322.888 114.838 322.62 115.559 322.62 116.448V123.762C322.62 124.651 322.888 125.38 323.425 125.947C323.962 126.499 324.675 126.775 325.564 126.775ZM325.564 121.393C325.135 121.393 324.79 121.278 324.529 121.048C324.284 120.803 324.161 120.465 324.161 120.036C324.161 119.607 324.284 119.285 324.529 119.07C324.79 118.84 325.135 118.725 325.564 118.725C325.993 118.725 326.338 118.84 326.599 119.07C326.86 119.285 326.99 119.607 326.99 120.036C326.99 120.465 326.86 120.803 326.599 121.048C326.338 121.278 325.993 121.393 325.564 121.393ZM335.675 121.922V119.875H343.035V121.922H335.675ZM348.293 128.5V111.71H353.491C354.518 111.71 355.415 111.917 356.182 112.331C356.949 112.73 357.547 113.297 357.976 114.033C358.405 114.754 358.62 115.605 358.62 116.586C358.62 117.721 358.329 118.694 357.746 119.507C357.179 120.32 356.42 120.895 355.469 121.232L358.85 128.5H356.343L353.146 121.485H350.547V128.5H348.293ZM350.547 119.461H353.491C354.35 119.461 355.024 119.2 355.515 118.679C356.021 118.158 356.274 117.468 356.274 116.609C356.274 115.735 356.021 115.037 355.515 114.516C355.009 113.995 354.334 113.734 353.491 113.734H350.547V119.461ZM367.121 128.73C365.572 128.73 364.338 128.301 363.418 127.442C362.513 126.568 362.061 125.372 362.061 123.854V116.333C362.061 114.83 362.513 113.65 363.418 112.791C364.338 111.917 365.572 111.48 367.121 111.48C368.654 111.48 369.873 111.917 370.778 112.791C371.698 113.665 372.158 114.846 372.158 116.333H369.881C369.881 115.428 369.636 114.731 369.145 114.24C368.654 113.749 367.98 113.504 367.121 113.504C366.247 113.504 365.565 113.749 365.074 114.24C364.583 114.731 364.338 115.428 364.338 116.333V123.854C364.338 124.774 364.583 125.479 365.074 125.97C365.565 126.461 366.247 126.706 367.121 126.706C367.98 126.706 368.654 126.461 369.145 125.97C369.636 125.479 369.881 124.774 369.881 123.854H372.158C372.158 125.357 371.698 126.545 370.778 127.419C369.873 128.293 368.654 128.73 367.121 128.73ZM375.875 128.5V126.43H380.36V113.757L375.852 117.115V114.539L379.67 111.71H382.637V126.43H386.317V128.5H375.875Z"/></g><defs><linearGradient id="paint0_linear_5049_5466" x1="400.322" x2="400.322" y1="65.999" y2="234.499" gradientUnits="userSpaceOnUse"><stop stop-color="#EDDD0C"/><stop offset="1" stop-color="#F3E71B"/></linearGradient><linearGradient id="paint1_linear_5049_5466" x1="72.906" x2="72.906" y1="349.513" y2="-53.814" gradientUnits="userSpaceOnUse"><stop stop-color="#EDDD0C"/><stop offset="1" stop-color="#F3E71B"/></linearGradient><clipPath id="clip0_5049_5466"><rect width="560" height="240" fill="#fff"/></clipPath><clipPath id="clip1_5049_5466"><rect width="560" height="240" fill="#fff"/></clipPath></defs></svg>