<svg width="367" height="206" viewBox="0 0 367 206" fill="none" xmlns="http://www.w3.org/2000/svg">
<g clip-path="url(#clip0_3959_17113)">
<rect width="367" height="206" fill="#00C770"/>
<path d="M135 136.5C116.467 136.5 101.5 121.533 101.5 103C101.5 84.4668 116.467 69.5 135 69.5C153.533 69.5 168.5 84.4668 168.5 103C168.5 121.533 153.533 136.5 135 136.5Z" fill="black"/>
<path d="M152.912 98.0307H146.34V107.948H152.912C155.637 107.948 157.901 105.684 157.901 102.96C157.901 100.215 155.637 98.0307 152.912 98.0307Z" fill="#00C770"/>
<path d="M114.141 103C114.141 110.654 120.372 116.885 128.026 116.885C135.68 116.885 141.911 110.654 141.911 103C141.911 95.3465 135.68 89.1154 128.026 89.1154C120.372 89.1154 114.141 95.3465 114.141 103Z" fill="#00C770"/>
<path d="M232 136.5C213.553 136.5 198.5 121.595 198.5 103C198.5 84.4053 213.405 69.5 232 69.5C250.595 69.5 265.5 84.4053 265.5 103C265.5 121.595 250.595 136.5 232 136.5Z" fill="black"/>
<path d="M232.59 99.1627L231.115 96.3587C231.115 95.916 230.524 95.916 230.082 96.0635C228.606 96.8014 226.982 97.3917 225.359 97.8345C223.145 98.5724 220.784 99.3102 218.571 100.638C216.062 102.262 212.225 105.951 210.601 107.87C210.159 108.46 210.159 109.345 210.601 109.788L211.93 110.969C212.52 111.412 213.258 111.412 213.848 110.969C214.881 109.936 216.062 108.755 217.242 107.87C218.718 106.542 220.194 105.361 221.522 104.623C224.769 103 228.753 102.114 232.148 100.343C232.59 100.048 232.59 99.6054 232.443 99.3102L232.59 99.1627Z" fill="#00C770"/>
<path d="M238.641 103.885L235.837 102.409C235.394 102.409 234.952 102.409 234.804 102.705C233.919 104.328 233.181 106.099 232.59 107.87C231.852 109.788 231.262 111.559 230.524 113.33C229.196 115.987 226.392 118.643 224.178 121.004C221.965 123.365 223.736 122.332 224.178 122.923L225.359 124.251C225.802 124.841 226.687 124.841 227.278 124.251C228.458 123.218 229.639 122.037 230.819 120.857C232.295 119.233 233.919 117.462 234.952 115.544C236.722 112.002 237.46 108.313 239.084 104.918C239.084 104.475 239.084 104.18 238.789 103.885H238.641Z" fill="#00C770"/>
<path d="M250.152 89.1273L249.561 88.537L241.887 93.8498L241.002 92.9643L246.315 85.2903L245.724 84.7C245.429 84.4048 244.986 84.4048 244.691 84.7L238.788 88.9797C238.493 88.9797 238.345 89.4225 238.198 89.7176L236.575 93.2595L232.442 95.6207L233.771 98.2771V98.5722L235.394 97.8344L236.722 99.1626L235.984 100.638L238.788 101.967L241.149 97.8344L244.691 96.211C244.986 96.211 245.134 95.9159 245.429 95.6207L249.709 89.7176C249.709 89.4225 249.709 88.9797 249.709 88.6846L250.152 89.1273ZM238.936 97.6868C238.05 97.6868 237.312 96.9489 237.312 96.0634C237.312 95.178 238.05 94.4401 238.936 94.4401C239.821 94.4401 240.559 95.178 240.559 96.0634C240.559 96.9489 239.821 97.6868 238.936 97.6868Z" fill="#00C770"/>
<path d="M112.5 184V250H389V80H325.5C314.454 80 305.5 88.9543 305.5 100V144C305.5 155.046 296.546 164 285.5 164L132.5 164C121.454 164 112.5 172.954 112.5 184Z" fill="#00B063"/>
<path d="M316 19.5V-9.5H-9.5V93H13C24.0457 93 33 84.0457 33 73V59.5C33 48.4543 41.9543 39.5 53 39.5L296 39.5C307.046 39.5 316 30.5457 316 19.5Z" fill="#00B063"/>
<g filter="url(#filter0_i_3959_17113)">
<rect x="10" y="168" width="55" height="28" rx="14" fill="#016238"/>
<path d="M23.4387 188.5V186.923L27.7373 182.381C28.292 181.804 28.6849 181.278 28.916 180.804C29.1587 180.319 29.28 179.845 29.28 179.383C29.28 178.724 29.0893 178.198 28.708 177.805C28.3267 177.401 27.8124 177.199 27.1653 177.199C26.4951 177.199 25.9636 177.401 25.5707 177.805C25.1778 178.21 24.9813 178.759 24.9813 179.452H23.2653C23.2884 178.296 23.6524 177.378 24.3573 176.696C25.0738 176.014 26.0098 175.673 27.1653 175.673C28.344 175.673 29.28 176.008 29.9733 176.679C30.6782 177.349 31.0307 178.244 31.0307 179.365C31.0307 179.978 30.8689 180.619 30.5453 181.289C30.2218 181.948 29.6729 182.676 28.8987 183.473L25.536 186.94H31.1867V188.5H23.4387ZM33.1039 190.407L39.2399 174.113H41.0426L34.9066 190.407H33.1039ZM43.1851 188.5V186.923L47.4838 182.381C48.0385 181.804 48.4313 181.278 48.6625 180.804C48.9051 180.319 49.0265 179.845 49.0265 179.383C49.0265 178.724 48.8358 178.198 48.4545 177.805C48.0731 177.401 47.5589 177.199 46.9118 177.199C46.2416 177.199 45.71 177.401 45.3171 177.805C44.9242 178.21 44.7278 178.759 44.7278 179.452H43.0118C43.0349 178.296 43.3989 177.378 44.1038 176.696C44.8202 176.014 45.7562 175.673 46.9118 175.673C48.0905 175.673 49.0265 176.008 49.7198 176.679C50.4247 177.349 50.7771 178.244 50.7771 179.365C50.7771 179.978 50.6153 180.619 50.2918 181.289C49.9682 181.948 49.4193 182.676 48.6451 183.473L45.2825 186.94H50.9331V188.5H43.1851Z" fill="#00C770"/>
</g>
<path d="M499 244H391.307H352C340.954 244 332 235.046 332 224V162C332 150.954 340.954 142 352 142H499C510.046 142 519 150.954 519 162V224C519 235.046 510.046 244 499 244Z" fill="#00C770"/>
</g>
<defs>
<filter id="filter0_i_3959_17113" x="10" y="168" width="55" height="32" filterUnits="userSpaceOnUse" color-interpolation-filters="sRGB">
<feFlood flood-opacity="0" result="BackgroundImageFix"/>
<feBlend mode="normal" in="SourceGraphic" in2="BackgroundImageFix" result="shape"/>
<feColorMatrix in="SourceAlpha" type="matrix" values="0 0 0 0 0 0 0 0 0 0 0 0 0 0 0 0 0 0 127 0" result="hardAlpha"/>
<feOffset dy="4"/>
<feGaussianBlur stdDeviation="2"/>
<feComposite in2="hardAlpha" operator="arithmetic" k2="-1" k3="1"/>
<feColorMatrix type="matrix" values="0 0 0 0 0 0 0 0 0 0 0 0 0 0 0 0 0 0 0.25 0"/>
<feBlend mode="normal" in2="shape" result="effect1_innerShadow_3959_17113"/>
</filter>
<clipPath id="clip0_3959_17113">
<rect width="367" height="206" fill="white"/>
</clipPath>
</defs>
</svg>
