<svg width="560" height="240" viewBox="0 0 560 240" fill="none" xmlns="http://www.w3.org/2000/svg">
<g clip-path="url(#clip0_6244_1320)">
<rect width="560" height="240" fill="#FFF100"/>
<g clip-path="url(#clip1_6244_1320)">
<rect width="560" height="240" fill="#FFF100"/>
<path d="M437.5 177.5L593 177.5C604.046 177.5 613 168.546 613 157.5L613 -1.00059C613 -12.0463 621.954 -21.0006 633 -21.0006L1090.5 -21.0006C1101.55 -21.0006 1110.5 -12.0463 1110.5 -1.00058L1110.5 241.912C1110.5 252.958 1101.55 261.912 1090.5 261.912L437.5 261.913C426.454 261.913 417.5 252.958 417.5 241.913L417.5 197.5C417.5 186.455 426.454 177.5 437.5 177.5Z" fill="url(#paint0_linear_6244_1320)"/>
<path d="M-521.92 305.92L-105.42 304.262C-94.4059 304.218 -85.5 295.277 -85.5 284.262L-85.5 183C-85.5 171.954 -76.5457 163 -65.5 163L79 163C90.0457 163 99 154.046 99 143L99 82C99 70.9543 107.954 62 119 62L239.5 62C250.546 62 259.5 53.0457 259.5 42L259.5 -1C259.5 -12.0457 250.546 -21 239.5 -21L-522 -21C-533.046 -21 -542 -12.0457 -542 -1.00001L-542 285.92C-542 296.997 -532.997 305.964 -521.92 305.92Z" fill="#EDDD0C"/>
<rect x="379" y="95" width="546" height="211" rx="20" fill="#EDDD0C"/>
</g>
<path d="M239.5 153.5C220.967 153.5 206 138.533 206 120C206 101.467 220.967 86.5 239.5 86.5C258.033 86.5 273 101.467 273 120C273 138.533 258.033 153.5 239.5 153.5Z" fill="black"/>
<path d="M257.413 115.031H250.841V124.949H257.413C260.137 124.949 262.402 122.684 262.402 119.96C262.402 117.215 260.137 115.031 257.413 115.031Z" fill="#FFF100"/>
<path d="M218.642 120C218.642 127.654 224.873 133.885 232.526 133.885C240.18 133.885 246.411 127.654 246.411 120C246.411 112.346 240.18 106.115 232.526 106.115C224.873 106.115 218.642 112.346 218.642 120Z" fill="#FFF100"/>
<path d="M298 96.7173L321.435 120L298 143.282V133.969L312.061 120L298 106.03V96.7173Z" fill="black"/>
<path d="M314.435 96.7173L337.565 120L314.435 143.282V133.969L328.313 120L314.435 106.03V96.7173Z" fill="black"/>
<path d="M330.565 96.7173L354 120L330.565 143.282V133.969L344.626 120L330.565 106.03V96.7173Z" fill="black"/>
</g>
<defs>
<linearGradient id="paint0_linear_6244_1320" x1="886.905" y1="65.9995" x2="886.905" y2="234.5" gradientUnits="userSpaceOnUse">
<stop stop-color="#EDDD0C"/>
<stop offset="1" stop-color="#CCBD00"/>
</linearGradient>
<clipPath id="clip0_6244_1320">
<rect width="560" height="240" fill="white"/>
</clipPath>
<clipPath id="clip1_6244_1320">
<rect width="560" height="240" fill="white"/>
</clipPath>
</defs>
</svg>
