<svg width="560" height="240" viewBox="0 0 560 240" fill="none" xmlns="http://www.w3.org/2000/svg">
<g clip-path="url(#clip0_5112_16249)">
<rect width="560" height="240" fill="#FFF100"/>
<g clip-path="url(#clip1_5112_16249)">
<rect width="560" height="240" fill="#FFF100"/>
<path d="M294.978 54.1962L416.868 54.1962C427.914 54.1962 436.868 63.1505 436.868 74.1962L436.868 192.5C436.868 203.546 445.822 212.5 456.868 212.5L583.619 212.5C594.665 212.5 603.619 203.546 603.619 192.5L603.619 -13.9535C603.619 -24.9992 594.665 -33.9535 583.619 -33.9535L294.978 -33.9539C283.932 -33.9539 274.978 -24.9996 274.978 -13.9539L274.978 34.1962C274.978 45.2419 283.932 54.1962 294.978 54.1962Z" fill="url(#paint0_linear_5112_16249)"/>
<path d="M-22.5 45.3256L37.5002 45.3256C48.5459 45.3256 57.5002 54.2799 57.5002 65.3256L57.5 139C57.5 150.046 66.4543 159 77.5 159L114.5 159C125.546 159 134.5 167.954 134.5 179L134.5 268.827C134.5 279.873 125.546 288.827 114.5 288.827L-22.5 288.827C-33.5457 288.827 -42.5 279.873 -42.5 268.827L-42.5 65.3255C-42.5 54.2799 -33.5457 45.3256 -22.5 45.3256Z" fill="url(#paint1_linear_5112_16249)"/>
<path d="M-65.9998 184L62.478 184C79.0466 184 92.478 197.431 92.478 214L92.478 371" stroke="url(#paint2_linear_5112_16249)" stroke-width="3" stroke-linecap="round" stroke-linejoin="round"/>
<path d="M490 -95L490 126C490 142.569 503.431 156 520 156L668 156" stroke="url(#paint3_linear_5112_16249)" stroke-width="3" stroke-linecap="round" stroke-linejoin="round"/>
</g>
<path d="M181.799 94.5071C181.799 89.2713 178.686 88.4751 175.501 88.4751H173.909V100.563H175.501C178.686 100.563 181.799 99.7912 181.799 94.5071ZM170.459 85.7727H175.646C181.196 85.7727 185.37 87.5582 185.37 94.5071C185.37 101.456 181.196 103.266 175.646 103.266H170.459V85.7727ZM195.432 103.266V101.553C194.684 102.88 193.261 103.579 191.644 103.579C188.531 103.579 187.277 101.673 187.277 98.4883V90.2847H190.606V97.7644C190.606 99.5016 190.872 100.901 192.73 100.901C194.949 100.901 195.432 99.0915 195.432 97.0406V90.2847H198.762V103.266H195.432ZM207.418 89.9951C210.145 89.9951 212.847 91.5152 213.306 94.7243H210.121C209.855 93.4696 208.697 92.5769 207.418 92.5769C205.681 92.5769 204.306 94.0487 204.306 96.751C204.306 99.4775 205.609 100.998 207.442 100.998C208.601 100.998 209.783 100.394 210.241 98.8502H213.426C212.654 102.397 209.976 103.579 207.274 103.579C203.389 103.579 200.904 100.732 200.904 96.7993C200.904 92.8423 203.534 89.9951 207.418 89.9951ZM215.415 85.7727H218.744V95.4964L223.473 90.2847H227.213L222.556 95.2551L227.479 103.266H223.739L220.337 97.6438L218.744 99.3569V103.266H215.415V85.7727ZM240.211 94.5071C240.211 89.2713 237.098 88.4751 233.913 88.4751H232.321V100.563H233.913C237.098 100.563 240.211 99.7912 240.211 94.5071ZM228.87 85.7727H234.058C239.607 85.7727 243.782 87.5582 243.782 94.5071C243.782 101.456 239.607 103.266 234.058 103.266H228.87V85.7727ZM246.213 103.266V85.7727H253.017C256.081 85.7727 259.387 86.7378 259.387 90.3329C259.387 91.9737 258.301 93.4455 257.408 94.0245C258.759 94.676 260.014 95.6894 260.014 98.1022C260.014 101.866 256.901 103.266 253.306 103.266H246.213ZM249.663 95.5929V100.563H253.475C255.502 100.563 256.491 99.7188 256.491 98.1022C256.491 96.4615 255.478 95.5929 253.33 95.5929H249.663ZM249.663 88.4751V92.987H253.234C254.875 92.987 255.84 92.2149 255.84 90.6707C255.84 89.2954 254.85 88.4751 253.234 88.4751H249.663ZM278.632 103.266H275.206L270.887 90.1158V103.266H267.678V85.7727H272.697L276.943 99.4051L281.069 85.7727H286.136V103.266H282.927V90.1158L278.632 103.266ZM301.229 97.692H291.65C291.843 99.9118 293.339 100.998 294.932 100.998C295.969 100.998 296.983 100.636 297.658 99.5016H301.084C300.385 101.432 298.503 103.579 294.956 103.579C290.782 103.579 288.345 100.467 288.345 96.7269C288.345 92.8664 291.023 89.9951 294.859 89.9951C298.865 89.9951 301.35 93.1077 301.229 97.692ZM294.835 92.4321C293.58 92.4321 291.964 93.2042 291.698 95.3998H297.851C297.779 93.2042 296.235 92.4321 294.835 92.4321ZM315.767 97.692H306.188C306.381 99.9118 307.877 100.998 309.47 100.998C310.507 100.998 311.521 100.636 312.196 99.5016H315.622C314.923 101.432 313.041 103.579 309.494 103.579C305.32 103.579 302.883 100.467 302.883 96.7269C302.883 92.8664 305.561 89.9951 309.397 89.9951C313.403 89.9951 315.888 93.1077 315.767 97.692ZM309.373 92.4321C308.119 92.4321 306.502 93.2042 306.237 95.3998H312.389C312.317 93.2042 310.773 92.4321 309.373 92.4321ZM318.37 90.2847V86.762H321.7V90.2847H324.402V92.5769H321.7V99.2845C321.7 100.612 322.159 100.877 323.341 100.877H324.354V103.266H321.917C318.925 103.266 318.37 102.349 318.37 99.767V92.5769H316.537V90.2847H318.37ZM334.522 103.266V101.553C333.774 102.88 332.351 103.579 330.734 103.579C327.622 103.579 326.367 101.673 326.367 98.4883V90.2847H329.697V97.7644C329.697 99.5016 329.962 100.901 331.82 100.901C334.04 100.901 334.522 99.0915 334.522 97.0406V90.2847H337.852V103.266H334.522ZM347.088 101.022C348.825 101.022 350.055 99.3327 350.055 96.7993C350.055 94.2658 348.825 92.5527 347.088 92.5527C345.254 92.5527 344.048 94.1693 344.048 96.7752C344.048 99.4534 345.254 101.022 347.088 101.022ZM344.168 107.488H340.838V90.2847H344.168V91.9495C344.868 90.719 346.267 89.9951 347.908 89.9951C351.045 89.9951 353.554 92.6975 353.554 96.7752C353.554 100.925 350.972 103.579 347.884 103.579C346.533 103.579 345.013 103.073 344.168 101.625V107.488ZM361.029 89.8262H364.407L364.962 85.7727H367.954L367.399 89.8262H370.608L371.163 85.7727H374.155L373.6 89.8262H376.929L376.616 92.408H373.238L372.731 96.0513H376.037L375.771 98.6089H372.369L371.742 103.266H368.75L369.377 98.6089H366.168L365.541 103.266H362.549L363.176 98.6089H359.871L360.184 96.0513H363.538L364.045 92.408H360.763L361.029 89.8262ZM367.037 92.408L366.53 96.0513H369.739L370.246 92.408H367.037ZM384.4 85.4591C387.898 85.4591 390.142 87.0998 390.142 90.164C390.142 93.4213 386.957 96.8717 381.577 100.467H390.552V103.266H377.692V100.563C383.314 96.0513 386.788 93.1077 386.788 90.3329C386.788 88.7887 385.847 87.9201 384.207 87.9201C382.735 87.9201 381.239 88.8129 381.239 91.4187H378.006C377.933 87.8236 380.539 85.4591 384.4 85.4591ZM212.705 127.266L219.22 109.773H222.694L229.233 127.266H225.493L224.262 123.719H217.458L216.228 127.266H212.705ZM220.86 113.995L218.448 120.896H223.273L220.86 113.995ZM246.691 127.266V119.714C246.691 118.29 246.571 116.673 244.616 116.673C242.396 116.673 242.035 118.531 242.035 120.51V127.266H238.705V119.714C238.705 118.29 238.584 116.673 236.63 116.673C234.41 116.673 234.048 118.531 234.048 120.51V127.266H230.718V114.285H234.048V115.998C234.796 114.719 236.099 113.995 237.667 113.995C239.863 113.995 240.852 115.177 241.359 116.118C242.396 114.671 243.675 113.995 245.63 113.995C248.887 113.995 250.021 116.022 250.021 119.086V127.266H246.691ZM263.244 118.193H260.131C259.866 117.108 258.901 116.336 257.356 116.336C256.126 116.336 255.257 116.794 255.257 117.59C255.257 118.29 255.764 118.821 256.994 119.086L258.732 119.472C261.313 120.051 263.509 120.703 263.509 123.381C263.509 125.987 260.831 127.579 257.887 127.579C254.702 127.579 252.289 125.939 251.976 122.971H255.185C255.378 124.225 256.246 125.166 257.984 125.166C259.431 125.166 260.324 124.636 260.324 123.695C260.324 122.73 259.335 122.368 258.201 122.102L256.271 121.692C253.834 121.185 252.217 120.172 252.217 117.807C252.217 115.491 254.726 113.947 257.525 113.947C260.228 113.947 262.785 115.202 263.244 118.193ZM266.215 114.285V110.762H269.544V114.285H272.247V116.577H269.544V123.284C269.544 124.612 270.003 124.877 271.185 124.877H272.198V127.266H269.761C266.769 127.266 266.215 126.349 266.215 123.767V116.577H264.381V114.285H266.215ZM286.42 121.692H276.841C277.034 123.912 278.53 124.998 280.123 124.998C281.16 124.998 282.173 124.636 282.849 123.502H286.275C285.575 125.432 283.693 127.579 280.147 127.579C275.972 127.579 273.536 124.467 273.536 120.727C273.536 116.866 276.214 113.995 280.05 113.995C284.055 113.995 286.541 117.108 286.42 121.692ZM280.026 116.432C278.771 116.432 277.155 117.204 276.889 119.4H283.042C282.97 117.204 281.425 116.432 280.026 116.432ZM295.996 114.357V117.494C295.514 117.421 295.103 117.421 294.621 117.421C292.98 117.421 291.894 118.025 291.894 120.461V127.266H288.565V114.285H291.846V116.553C292.594 114.936 293.752 114.309 295.272 114.309C295.49 114.309 295.779 114.333 295.996 114.357ZM309.578 127.266H306.248V125.625C305.404 127.073 303.86 127.579 302.509 127.579C299.42 127.579 296.863 124.925 296.863 120.775C296.863 116.697 299.372 113.995 302.509 113.995C304.149 113.995 305.549 114.719 306.248 115.95V109.773H309.578V127.266ZM303.329 125.022C305.163 125.022 306.369 123.453 306.369 120.775C306.369 118.169 305.163 116.553 303.329 116.553C301.592 116.553 300.361 118.266 300.361 120.799C300.361 123.333 301.592 125.022 303.329 125.022ZM320.682 122.295V121.33C316.942 121.716 315.47 122.15 315.47 123.598C315.47 124.539 316.194 125.311 317.714 125.311C319.814 125.311 320.682 124.201 320.682 122.295ZM320.972 125.649C320.031 127 318.679 127.579 316.725 127.579C314.24 127.579 312.044 126.132 312.044 123.767C312.044 120.703 315.47 119.786 320.586 119.207V118.99C320.586 116.987 319.5 116.287 318.149 116.287C316.87 116.287 315.808 116.939 315.736 118.386H312.623C312.889 115.829 314.964 113.947 318.318 113.947C321.382 113.947 323.915 115.298 323.915 119.665C323.915 120.051 323.867 121.813 323.867 122.971C323.867 125.022 323.988 126.18 324.253 127.266H321.189C321.092 126.855 321.044 126.3 320.972 125.649ZM342.662 127.266V119.714C342.662 118.29 342.541 116.673 340.587 116.673C338.367 116.673 338.005 118.531 338.005 120.51V127.266H334.676V119.714C334.676 118.29 334.555 116.673 332.6 116.673C330.381 116.673 330.019 118.531 330.019 120.51V127.266H326.689V114.285H330.019V115.998C330.767 114.719 332.07 113.995 333.638 113.995C335.834 113.995 336.823 115.177 337.33 116.118C338.367 114.671 339.646 113.995 341.6 113.995C344.858 113.995 345.992 116.022 345.992 119.086V127.266H342.662Z" fill="black"/>
<path d="M227.59 138.236C230.383 138.236 232.189 139.706 232.189 142.163C232.189 145.25 229.543 148.253 223.936 152.474H232.651V153.734H222.13V152.432C227.737 148.169 230.803 145.145 230.803 142.31C230.803 140.357 229.312 139.391 227.59 139.391C225.679 139.391 223.936 140.294 223.873 143.213H222.487C222.634 139.958 224.566 138.236 227.59 138.236ZM240.449 154.007C236.417 154.007 234.59 150.962 234.59 146.111C234.59 141.302 236.417 138.236 240.449 138.236C244.439 138.236 246.287 141.302 246.287 146.111C246.287 150.962 244.439 154.007 240.449 154.007ZM240.449 152.852C243.179 152.852 244.922 150.71 244.922 146.111C244.922 141.554 243.179 139.391 240.449 139.391C237.698 139.391 235.976 141.554 235.976 146.111C235.976 150.71 237.698 152.852 240.449 152.852ZM253.512 138.236C256.305 138.236 258.111 139.706 258.111 142.163C258.111 145.25 255.465 148.253 249.858 152.474H258.573V153.734H248.052V152.432C253.659 148.169 256.725 145.145 256.725 142.31C256.725 140.357 255.234 139.391 253.512 139.391C251.601 139.391 249.858 140.294 249.795 143.213H248.409C248.556 139.958 250.488 138.236 253.512 138.236ZM265.615 152.852C267.736 152.852 269.542 151.403 269.542 148.757C269.542 145.901 267.505 144.725 265.573 144.725C263.851 144.725 262.423 145.649 261.982 146.678L260.701 146.552L261.688 138.509H270.298V139.769H262.822L262.15 144.977C262.885 144.137 264.397 143.549 265.888 143.549C268.702 143.549 270.928 145.376 270.928 148.736C270.928 152.201 268.387 154.007 265.615 154.007C262.591 154.007 260.554 152.033 260.281 149.45H261.667C262.108 151.802 263.809 152.852 265.615 152.852ZM278.814 148.715H272.934V147.245H278.814V148.715ZM286.715 154.007C282.683 154.007 280.856 150.962 280.856 146.111C280.856 141.302 282.683 138.236 286.715 138.236C290.705 138.236 292.553 141.302 292.553 146.111C292.553 150.962 290.705 154.007 286.715 154.007ZM286.715 152.852C289.445 152.852 291.188 150.71 291.188 146.111C291.188 141.554 289.445 139.391 286.715 139.391C283.964 139.391 282.242 141.554 282.242 146.111C282.242 150.71 283.964 152.852 286.715 152.852ZM299.778 138.236C302.571 138.236 304.377 139.706 304.377 142.163C304.377 145.25 301.731 148.253 296.124 152.474H304.839V153.734H294.318V152.432C299.925 148.169 302.991 145.145 302.991 142.31C302.991 140.357 301.5 139.391 299.778 139.391C297.867 139.391 296.124 140.294 296.061 143.213H294.675C294.822 139.958 296.754 138.236 299.778 138.236ZM311.586 148.715H305.706V147.245H311.586V148.715ZM318.173 138.236C320.966 138.236 322.772 139.706 322.772 142.163C322.772 145.25 320.126 148.253 314.519 152.474H323.234V153.734H312.713V152.432C318.32 148.169 321.386 145.145 321.386 142.31C321.386 140.357 319.895 139.391 318.173 139.391C316.262 139.391 314.519 140.294 314.456 143.213H313.07C313.217 139.958 315.149 138.236 318.173 138.236ZM331.032 154.007C327 154.007 325.173 150.962 325.173 146.111C325.173 141.302 327 138.236 331.032 138.236C335.022 138.236 336.87 141.302 336.87 146.111C336.87 150.962 335.022 154.007 331.032 154.007ZM331.032 152.852C333.762 152.852 335.505 150.71 335.505 146.111C335.505 141.554 333.762 139.391 331.032 139.391C328.281 139.391 326.559 141.554 326.559 146.111C326.559 150.71 328.281 152.852 331.032 152.852Z" fill="black"/>
<path d="M219.756 214.384H215.912C216.147 213.516 216.935 212.943 217.77 212.943C218.807 212.943 219.494 213.455 219.756 214.384ZM215.892 215.704H221.534C221.534 215.583 221.534 215.468 221.534 215.347C221.534 214.418 221.318 213.671 220.881 213.038C220.133 212.048 219.022 211.442 217.824 211.442C216.861 211.442 215.932 211.859 215.218 212.607C214.565 213.3 214.229 214.169 214.229 215.152C214.229 216.081 214.619 217.044 215.279 217.737C216.006 218.465 216.875 218.821 217.925 218.821C219.487 218.821 220.726 217.953 221.318 216.418H219.548C219.211 216.99 218.585 217.286 217.871 217.286C216.72 217.327 215.972 216.694 215.892 215.704Z" fill="black"/>
<path d="M224.079 215.219C224.079 214.014 224.948 213.112 226.093 213.112C227.237 213.112 228.139 214.075 228.139 215.186C228.139 216.351 227.271 217.26 226.005 217.26C224.988 217.266 224.079 216.364 224.079 215.219ZM224.019 212.216V209.395H222.403V218.707H224.019V218.135C224.672 218.647 225.379 218.882 226.207 218.882C227.109 218.882 227.884 218.586 228.517 218.074C229.365 217.347 229.836 216.303 229.836 215.192C229.836 214.169 229.419 213.146 228.631 212.452C227.978 211.819 227.129 211.523 226.2 211.523C225.345 211.503 224.652 211.705 224.019 212.216Z" fill="black"/>
<path d="M230.96 211.685H232.523V218.707H230.96V211.685ZM230.96 209.395H232.523V210.957H230.96V209.395Z" fill="black"/>
<path d="M235.263 215.098C235.263 213.954 236.166 213.085 237.277 213.085C238.3 213.085 239.256 213.987 239.256 215.192C239.256 216.276 238.327 217.206 237.304 217.206C236.193 217.206 235.263 216.337 235.263 215.098ZM239.438 218.707H241V211.684H239.438V212.526C238.96 211.833 238.233 211.503 237.209 211.503C236.159 211.503 235.317 211.839 234.604 212.587C233.95 213.28 233.614 214.182 233.614 215.172C233.614 217.28 235.176 218.862 237.243 218.862C238.327 218.862 239.041 218.566 239.431 217.839V218.707H239.438Z" fill="black"/>
<path d="M199.853 221.764H204.135L208.768 217.145L213.387 221.764H217.723L210.936 214.977L217.783 208.136H213.447L208.768 212.822L204.115 208.136H199.792L206.6 214.977L199.853 221.764Z" fill="black"/>
<g clip-path="url(#clip2_5112_16249)">
<path d="M272.167 205.441C277.421 205.441 281.677 209.697 281.677 214.95C281.677 220.203 277.421 224.459 272.167 224.459C266.914 224.459 262.658 220.203 262.658 214.95C262.62 209.697 266.876 205.441 272.167 205.441Z" fill="black"/>
<path d="M267.067 216.407H268.946V213.57H267.067C266.3 213.57 265.648 214.221 265.648 214.988C265.648 215.755 266.262 216.407 267.067 216.407Z" fill="#FFF100"/>
<path d="M278.072 214.988C278.072 212.803 276.308 211.039 274.122 211.039C271.937 211.039 270.173 212.803 270.173 214.988C270.173 217.174 271.937 218.938 274.122 218.938C276.308 218.938 278.072 217.097 278.072 214.988Z" fill="#FFF100"/>
<path d="M300.312 212.497V216.485C300.312 217.328 299.775 217.942 299.047 217.942H298.701C297.973 217.942 297.436 217.328 297.436 216.485V212.497H296.056V216.715C296.056 218.248 297.168 219.322 298.663 219.322H299.085C300.619 219.322 301.692 218.21 301.692 216.715V212.497H300.312ZM341.609 216.485V215.219C341.609 214.299 342.146 213.647 342.951 213.647H343.296C344.293 213.647 344.983 214.414 344.983 215.488V216.178C344.983 217.29 344.255 218.057 343.296 218.057H342.951C342.146 218.018 341.609 217.405 341.609 216.485ZM340.343 216.485C340.343 218.133 341.417 219.322 342.912 219.322H343.258C343.871 219.322 344.408 219.015 344.83 218.517V219.207H346.172V212.497H344.83V213.225C344.408 212.727 343.871 212.42 343.258 212.42H342.912C341.379 212.42 340.343 213.57 340.343 215.258V216.485ZM334.4 219.207H339.692V217.827H335.78V210.541H334.4V219.207ZM348.741 216.178V215.488C348.741 214.414 349.431 213.647 350.428 213.647H350.773C351.578 213.647 352.115 214.299 352.115 215.219V216.446C352.115 217.367 351.578 218.018 350.773 218.018H350.428C349.431 218.018 348.741 217.29 348.741 216.178ZM347.514 219.207H348.856V218.479C349.278 218.977 349.814 219.284 350.428 219.284H350.773C352.307 219.284 353.38 218.095 353.38 216.446V215.219C353.38 213.532 352.307 212.382 350.773 212.382H350.428C349.814 212.382 349.278 212.689 348.856 213.187V210.58H347.514V219.207ZM358.25 214.376H359.554C359.324 213.149 358.289 212.382 356.831 212.382C355.183 212.382 354.186 213.11 354.186 214.299C354.186 215.219 354.914 215.948 356.103 216.14L357.177 216.37C357.905 216.523 358.365 216.83 358.365 217.29C358.365 217.827 357.828 218.172 356.985 218.172C356.141 218.172 355.604 217.75 355.451 217.098H354.071C354.262 218.479 355.336 219.322 356.908 219.322C358.634 219.322 359.669 218.44 359.669 217.098C359.669 216.101 358.787 215.373 357.368 215.104L356.371 214.913C355.835 214.759 355.489 214.491 355.489 214.146C355.489 213.724 355.988 213.455 356.755 213.455C357.598 213.494 358.135 213.839 358.25 214.376ZM313.042 214.913L315.611 212.19H313.656L311.393 214.644V210.541H310.013V219.169H311.393V216.638L312.045 215.948L314.308 219.207H316.033L313.042 214.913ZM291.301 217.827H289.614V211.96H291.301C292.605 211.96 293.64 213.264 293.64 214.874C293.64 216.485 292.605 217.827 291.301 217.827ZM291.301 210.541H288.233V219.207H291.301C293.333 219.207 295.02 217.29 295.02 214.874C295.02 212.458 293.372 210.541 291.301 210.541ZM320.059 217.827H318.41V211.96H320.059C321.363 211.96 322.398 213.264 322.398 214.874C322.398 216.485 321.363 217.827 320.059 217.827ZM320.059 210.541H317.03V219.207H320.059C322.13 219.207 323.779 217.29 323.779 214.874C323.779 212.458 322.13 210.541 320.059 210.541ZM328.38 217.827H326.233V215.411H328.38C329.032 215.411 329.569 215.948 329.569 216.6C329.569 217.29 329.032 217.827 328.38 217.827ZM326.233 214.031V211.96H327.958C328.533 211.96 328.993 212.42 328.993 212.995C328.993 213.57 328.533 214.031 327.958 214.031H326.233ZM329.875 214.491C330.182 214.069 330.412 213.532 330.412 212.995C330.412 211.653 329.3 210.541 327.958 210.541H324.852V219.207H328.38C329.799 219.207 330.949 218.057 330.949 216.6C330.949 215.756 330.527 214.951 329.875 214.491ZM305.642 213.762H305.987C306.83 213.762 307.482 214.376 307.482 215.104H308.901C308.901 213.609 307.597 212.382 305.987 212.382H305.642C304.07 212.382 302.804 213.647 302.804 215.219V216.446C302.804 218.018 304.07 219.284 305.642 219.284H305.987C307.636 219.284 308.978 218.057 308.978 216.561H307.559C307.559 217.29 306.83 217.865 305.987 217.865H305.642C304.837 217.865 304.185 217.213 304.185 216.446V215.219C304.185 214.414 304.837 213.762 305.642 213.762Z" fill="black"/>
</g>
</g>
<defs>
<linearGradient id="paint0_linear_5112_16249" x1="363.767" y1="-79.3805" x2="363.767" y2="147.13" gradientUnits="userSpaceOnUse">
<stop stop-color="#EDDD0C"/>
<stop offset="1" stop-color="#F3E71B"/>
</linearGradient>
<linearGradient id="paint1_linear_5112_16249" x1="298.168" y1="213.947" x2="298.168" y2="68.9198" gradientUnits="userSpaceOnUse">
<stop stop-color="#EDDD0C"/>
<stop offset="1" stop-color="#F3E71B"/>
</linearGradient>
<linearGradient id="paint2_linear_5112_16249" x1="105" y1="253.5" x2="-6.62727" y2="184.205" gradientUnits="userSpaceOnUse">
<stop stop-color="#EDDD0C"/>
<stop offset="0.395" stop-color="#CCBD00"/>
<stop offset="1" stop-color="#EDDD0C"/>
</linearGradient>
<linearGradient id="paint3_linear_5112_16249" x1="567" y1="143.741" x2="514.897" y2="38.6432" gradientUnits="userSpaceOnUse">
<stop stop-color="#EDDD0C"/>
<stop offset="0.395" stop-color="#CCBD00"/>
<stop offset="1" stop-color="#EDDD0C"/>
</linearGradient>
<clipPath id="clip0_5112_16249">
<rect width="560" height="240" fill="white"/>
</clipPath>
<clipPath id="clip1_5112_16249">
<rect width="560" height="240" fill="white"/>
</clipPath>
<clipPath id="clip2_5112_16249">
<rect width="97.0112" height="19.0188" fill="white" transform="translate(262.658 205.441)"/>
</clipPath>
</defs>
</svg>
