<svg width="560" height="240" viewBox="0 0 560 240" fill="none" xmlns="http://www.w3.org/2000/svg">
<g clip-path="url(#clip0_7601_38975)">
<rect width="560" height="240" fill="#1A1A1A"/>
<g clip-path="url(#clip1_7601_38975)">
<rect width="560" height="240" fill="#2EAFFF"/>
<path d="M436.5 103L498.5 103C509.546 103 518.5 111.954 518.5 123L518.5 246.896C518.5 257.941 527.454 266.896 538.5 266.896L715 266.896C726.046 266.896 735 257.941 735 246.896L735 3.98244C735 -7.06326 726.046 -16.0176 715 -16.0176L436.5 -16.0175C425.454 -16.0175 416.5 -7.06325 416.5 3.98244L416.5 82.9998C416.5 94.0455 425.454 103 436.5 103Z" fill="black" fill-opacity="0.06"/>
<path d="M-6.00012 -51L246.097 -51C257.299 -51 266.316 -41.8006 266.093 -30.6009L265.015 23.399C264.798 34.287 255.91 43 245.019 43L98.899 43C87.7467 43 78.7488 52.1215 78.9009 63.2728L80.2309 160.773C80.3801 171.711 89.2897 180.5 100.229 180.5L326.5 180.5C337.546 180.5 346.5 189.454 346.5 200.5L346.5 283C346.5 294.046 337.546 303 326.5 303L-6.00008 303C-17.0458 303 -26.0001 294.046 -26.0001 283L-26.0001 -31C-26.0001 -42.0457 -17.0458 -51 -6.00012 -51Z" fill="black" fill-opacity="0.06"/>
<rect width="291" height="125" rx="20" transform="matrix(1 -2.3597e-08 -2.3597e-08 -1 476 62)" fill="#2EAFFF"/>
<rect width="265" height="145" rx="20" transform="matrix(1 -2.3597e-08 -2.3597e-08 -1 -227 271)" fill="#2EAFFF"/>
</g>
<path d="M187 86.5C168.53 86.5 153.5 101.53 153.5 120C153.5 138.47 168.53 153.5 187 153.5C205.47 153.5 220.5 138.47 220.5 120C220.5 101.53 205.47 86.5 187 86.5Z" fill="#0D0D0D"/>
<path fill-rule="evenodd" clip-rule="evenodd" d="M183.028 103.018C189.119 103.018 194.419 106.286 197.299 111.164H200.308V111.181C204.464 111.181 207.968 114.523 207.977 118.764H207.995C207.994 122.977 204.539 126.433 200.326 126.433H198.098C195.574 131.955 190.117 135.855 183.715 136.117L183.028 136.13L182.176 136.108C173.422 135.665 166.473 128.439 166.473 119.575V119.556C166.473 110.406 173.878 103.001 183.028 103V103.018ZM183.028 108.044C176.681 108.044 171.516 113.191 171.516 119.556V119.575C171.516 125.922 176.664 131.087 183.028 131.087C188.141 131.087 192.479 127.755 193.977 123.136L194.542 121.39H200.326C201.73 121.389 202.941 120.201 202.951 118.781H202.934C202.934 117.388 201.771 116.207 200.308 116.207H194.155L193.485 114.743C191.669 110.776 187.665 108.044 183.028 108.044Z" fill="#2EAFFF"/>
<path d="M242.524 128.5V111.71H247.032C248.121 111.71 249.064 111.925 249.861 112.354C250.674 112.768 251.302 113.358 251.747 114.125C252.192 114.876 252.414 115.766 252.414 116.793V123.394C252.414 124.421 252.192 125.318 251.747 126.085C251.302 126.852 250.674 127.45 249.861 127.879C249.064 128.293 248.121 128.5 247.032 128.5H242.524ZM244.801 126.476H247.032C247.998 126.476 248.757 126.2 249.309 125.648C249.861 125.096 250.137 124.345 250.137 123.394V116.793C250.137 115.842 249.861 115.099 249.309 114.562C248.757 114.01 247.998 113.734 247.032 113.734H244.801V126.476ZM261.168 128.73C259.681 128.73 258.492 128.293 257.603 127.419C256.714 126.545 256.269 125.357 256.269 123.854V115.85H258.546V123.854C258.546 124.743 258.776 125.449 259.236 125.97C259.711 126.476 260.355 126.729 261.168 126.729C261.996 126.729 262.648 126.476 263.123 125.97C263.598 125.449 263.836 124.743 263.836 123.854V115.85H266.113V123.854C266.113 125.357 265.661 126.545 264.756 127.419C263.867 128.293 262.671 128.73 261.168 128.73ZM275.166 128.73C273.617 128.73 272.375 128.301 271.44 127.442C270.505 126.568 270.037 125.372 270.037 123.854V120.473C270.037 118.97 270.505 117.79 271.44 116.931C272.375 116.057 273.617 115.62 275.166 115.62C276.653 115.62 277.849 116.019 278.754 116.816C279.674 117.598 280.157 118.671 280.203 120.036H277.949C277.903 119.269 277.627 118.679 277.121 118.265C276.63 117.836 275.979 117.621 275.166 117.621C274.292 117.621 273.594 117.874 273.073 118.38C272.567 118.871 272.314 119.568 272.314 120.473V123.854C272.314 124.774 272.567 125.479 273.073 125.97C273.594 126.461 274.292 126.706 275.166 126.706C275.994 126.706 276.653 126.499 277.144 126.085C277.635 125.671 277.903 125.081 277.949 124.314H280.203C280.157 125.679 279.674 126.76 278.754 127.557C277.849 128.339 276.653 128.73 275.166 128.73ZM284.012 128.5V111.71H286.289V121.002H288.612L292.016 115.85H294.592L290.613 121.899L294.799 128.5H292.177L288.635 122.957H286.289V128.5H284.012ZM298.608 128.5V111.71H300.885V126.43H308.36V128.5H298.608ZM315.182 128.73C313.879 128.73 312.844 128.37 312.077 127.649C311.326 126.913 310.95 125.955 310.95 124.774C310.95 123.593 311.341 122.643 312.123 121.922C312.92 121.201 313.963 120.841 315.251 120.841H318.954V119.875C318.954 118.326 318.095 117.552 316.378 117.552C315.611 117.552 314.99 117.698 314.515 117.989C314.055 118.265 313.81 118.656 313.779 119.162H311.525C311.602 118.135 312.069 117.291 312.928 116.632C313.787 115.957 314.937 115.62 316.378 115.62C317.927 115.62 319.123 115.988 319.966 116.724C320.809 117.46 321.231 118.495 321.231 119.829V128.5H319V126.177H318.954C318.847 126.959 318.456 127.58 317.781 128.04C317.122 128.5 316.255 128.73 315.182 128.73ZM315.78 126.821C316.746 126.821 317.513 126.591 318.08 126.131C318.663 125.656 318.954 125.012 318.954 124.199V122.52H315.458C314.799 122.52 314.262 122.719 313.848 123.118C313.449 123.501 313.25 124.015 313.25 124.659C313.25 125.318 313.472 125.847 313.917 126.246C314.362 126.629 314.983 126.821 315.78 126.821ZM325.385 128.5V111.71H327.662V121.002H329.985L333.389 115.85H335.965L331.986 121.899L336.172 128.5H333.55L330.008 122.957H327.662V128.5H325.385ZM343.937 128.73C342.419 128.73 341.192 128.278 340.257 127.373C339.337 126.468 338.877 125.234 338.877 123.67V120.68C338.877 119.116 339.337 117.882 340.257 116.977C341.192 116.072 342.419 115.62 343.937 115.62C344.949 115.62 345.831 115.827 346.582 116.241C347.349 116.64 347.939 117.207 348.353 117.943C348.782 118.664 348.997 119.507 348.997 120.473V122.75H341.108V123.854C341.108 124.774 341.361 125.495 341.867 126.016C342.373 126.537 343.063 126.798 343.937 126.798C344.673 126.798 345.279 126.66 345.754 126.384C346.229 126.108 346.513 125.725 346.605 125.234H348.882C348.729 126.307 348.2 127.158 347.295 127.787C346.39 128.416 345.271 128.73 343.937 128.73ZM341.108 120.473V121.071H346.766V120.473C346.766 119.507 346.521 118.763 346.03 118.242C345.539 117.721 344.842 117.46 343.937 117.46C343.032 117.46 342.335 117.721 341.844 118.242C341.353 118.763 341.108 119.507 341.108 120.473ZM371.519 128.73C369.94 128.73 368.69 128.285 367.77 127.396C366.85 126.491 366.39 125.28 366.39 123.762V116.448C366.39 114.93 366.85 113.726 367.77 112.837C368.69 111.932 369.94 111.48 371.519 111.48C373.098 111.48 374.348 111.932 375.268 112.837C376.188 113.726 376.648 114.93 376.648 116.448V123.762C376.648 124.759 376.433 125.633 376.004 126.384C375.59 127.12 375 127.695 374.233 128.109C373.466 128.523 372.562 128.73 371.519 128.73ZM371.519 126.775C372.408 126.775 373.121 126.499 373.658 125.947C374.195 125.38 374.463 124.651 374.463 123.762V116.448C374.463 115.559 374.195 114.838 373.658 114.286C373.121 113.719 372.408 113.435 371.519 113.435C370.63 113.435 369.917 113.719 369.38 114.286C368.843 114.838 368.575 115.559 368.575 116.448V123.762C368.575 124.651 368.843 125.38 369.38 125.947C369.917 126.499 370.63 126.775 371.519 126.775ZM371.519 121.393C371.09 121.393 370.745 121.278 370.484 121.048C370.239 120.803 370.116 120.465 370.116 120.036C370.116 119.607 370.239 119.285 370.484 119.07C370.745 118.84 371.09 118.725 371.519 118.725C371.948 118.725 372.293 118.84 372.554 119.07C372.815 119.285 372.945 119.607 372.945 120.036C372.945 120.465 372.815 120.803 372.554 121.048C372.293 121.278 371.948 121.393 371.519 121.393ZM385.31 128.73C384.727 128.73 384.252 128.554 383.884 128.201C383.531 127.848 383.355 127.396 383.355 126.844C383.355 126.261 383.531 125.786 383.884 125.418C384.252 125.05 384.727 124.866 385.31 124.866C385.893 124.866 386.36 125.05 386.713 125.418C387.081 125.786 387.265 126.261 387.265 126.844C387.265 127.396 387.081 127.848 386.713 128.201C386.36 128.554 385.893 128.73 385.31 128.73ZM398.871 128.73C397.292 128.73 396.042 128.301 395.122 127.442C394.202 126.568 393.742 125.387 393.742 123.9H396.019C396.019 124.774 396.272 125.464 396.778 125.97C397.3 126.461 398.005 126.706 398.894 126.706C399.768 126.706 400.466 126.461 400.987 125.97C401.509 125.464 401.769 124.774 401.769 123.9V122.727C401.769 121.853 401.509 121.163 400.987 120.657C400.481 120.136 399.784 119.875 398.894 119.875H397.008V117.966L401.056 113.757H394.248V111.71H403.609V113.78L399.607 117.92C400.972 118.043 402.053 118.533 402.85 119.392C403.648 120.235 404.046 121.347 404.046 122.727V123.9C404.046 125.387 403.579 126.568 402.643 127.442C401.723 128.301 400.466 128.73 398.871 128.73Z" fill="black"/>
</g>
<defs>
<clipPath id="clip0_7601_38975">
<rect width="560" height="240" fill="white"/>
</clipPath>
<clipPath id="clip1_7601_38975">
<rect width="560" height="240" fill="white"/>
</clipPath>
</defs>
</svg>
