<svg xmlns="http://www.w3.org/2000/svg" width="560" height="240" fill="none" viewBox="0 0 560 240"><g clip-path="url(#clip0_4723_13373)"><rect width="560" height="240" fill="#FFF100"/><g clip-path="url(#clip1_4723_13373)"><rect width="560" height="240" fill="#FFF100"/><path fill="url(#paint0_linear_4723_13373)" d="M387 170.5L451.783 170.5C462.828 170.5 471.782 161.546 471.782 150.5L471.782 67.5001C471.782 56.4544 480.737 47.5001 491.782 47.5001L692.082 47.5001C703.128 47.5001 712.082 56.4544 712.082 67.5001L712.082 241.913C712.082 252.958 703.128 261.913 692.082 261.913L387 261.913C375.954 261.913 367 252.958 367 241.913L367 190.5C367 179.454 375.954 170.5 387 170.5Z"/><path fill="url(#paint1_linear_4723_13373)" d="M141.127 314L141.127 77.9839C141.127 66.9382 150.081 57.9839 161.127 57.9839L199.812 57.9839C210.857 57.9839 219.812 49.0296 219.812 37.9839L219.812 -86.9999C219.812 -98.0456 210.857 -107 199.812 -107L-54.0001 -107C-65.0458 -107 -74.0001 -98.0457 -74.0001 -87L-74.0002 314C-74.0002 325.046 -65.0458 334 -54.0002 334L121.127 334C132.173 334 141.127 325.046 141.127 314Z"/><rect width="546" height="169" x="417" y="194" fill="#FFF100" rx="20"/><rect width="598" height="204" x="-513" y="-43" fill="#FFF100" rx="20"/></g><path fill="#000" d="M181.102 120.565C181.102 119.798 181.201 119.116 181.401 118.518C181.615 117.905 181.907 117.383 182.275 116.954C182.658 116.525 183.118 116.195 183.655 115.965C184.191 115.735 184.782 115.62 185.426 115.62C186.346 115.62 187.105 115.835 187.703 116.264C188.316 116.678 188.707 117.268 188.876 118.035H189.083C189.067 117.774 189.052 117.514 189.037 117.253C189.006 117.023 188.983 116.785 188.968 116.54C188.968 116.279 188.968 116.049 188.968 115.85V111.94H191.475V128.5H189.083V126.315H188.876C188.707 127.082 188.316 127.68 187.703 128.109C187.105 128.523 186.346 128.73 185.426 128.73C184.782 128.73 184.191 128.615 183.655 128.385C183.118 128.155 182.658 127.825 182.275 127.396C181.907 126.967 181.615 126.445 181.401 125.832C181.201 125.203 181.102 124.506 181.102 123.739V120.565ZM183.632 120.611V123.716C183.632 124.575 183.869 125.257 184.345 125.763C184.835 126.269 185.502 126.522 186.346 126.522C187.143 126.522 187.779 126.269 188.255 125.763C188.73 125.257 188.968 124.582 188.968 123.739V120.611C188.968 119.752 188.722 119.07 188.232 118.564C187.756 118.058 187.128 117.805 186.346 117.805C185.502 117.805 184.835 118.058 184.345 118.564C183.869 119.055 183.632 119.737 183.632 120.611ZM194.272 115.85H197.032L199.7 122.819C199.822 123.126 199.914 123.432 199.976 123.739C200.052 124.03 200.114 124.306 200.16 124.567C200.206 124.858 200.244 125.134 200.275 125.395H200.459C200.474 125.134 200.505 124.858 200.551 124.567C200.597 124.322 200.65 124.046 200.712 123.739C200.788 123.432 200.88 123.126 200.988 122.819L203.472 115.85H206.14L200.068 132.41H197.4L199.148 127.695L194.272 115.85ZM208.914 115.85H211.306V118.035H211.513C211.681 117.253 212.057 116.655 212.64 116.241C213.222 115.827 213.974 115.62 214.894 115.62C215.553 115.62 216.136 115.735 216.642 115.965C217.163 116.18 217.6 116.486 217.953 116.885C218.321 117.284 218.597 117.767 218.781 118.334C218.965 118.886 219.057 119.499 219.057 120.174V128.5H216.527V120.519C216.527 119.645 216.304 118.97 215.86 118.495C215.415 118.02 214.802 117.782 214.02 117.782C213.222 117.782 212.594 118.035 212.134 118.541C211.674 119.047 211.444 119.737 211.444 120.611V128.5H208.914V115.85ZM222.176 124.889C222.176 123.662 222.597 122.689 223.441 121.968C224.299 121.247 225.457 120.887 226.914 120.887H230.341V119.829C230.341 119.154 230.103 118.633 229.628 118.265C229.168 117.882 228.508 117.69 227.65 117.69C226.99 117.69 226.431 117.813 225.971 118.058C225.511 118.288 225.204 118.618 225.051 119.047H222.567C222.766 117.989 223.326 117.153 224.246 116.54C225.166 115.927 226.308 115.62 227.673 115.62C229.283 115.62 230.548 115.988 231.468 116.724C232.403 117.46 232.871 118.472 232.871 119.76V128.5H230.525V126.039H230.341C230.172 126.867 229.72 127.526 228.984 128.017C228.263 128.492 227.366 128.73 226.293 128.73C225.035 128.73 224.031 128.385 223.28 127.695C222.544 126.99 222.176 126.054 222.176 124.889ZM224.706 124.682C224.706 125.326 224.913 125.824 225.327 126.177C225.741 126.53 226.323 126.706 227.075 126.706C227.55 126.706 227.987 126.645 228.386 126.522C228.784 126.399 229.129 126.231 229.421 126.016C229.712 125.786 229.934 125.525 230.088 125.234C230.256 124.927 230.341 124.598 230.341 124.245V122.658H226.937C226.247 122.658 225.702 122.834 225.304 123.187C224.905 123.54 224.706 124.038 224.706 124.682ZM235.944 128.5V115.85H238.037V117.713H238.221C238.267 117.054 238.466 116.54 238.819 116.172C239.187 115.804 239.677 115.62 240.291 115.62C240.873 115.62 241.333 115.796 241.671 116.149C242.008 116.502 242.253 117.023 242.407 117.713H242.568C242.614 117.054 242.821 116.54 243.189 116.172C243.557 115.804 244.055 115.62 244.684 115.62C245.45 115.62 246.064 115.911 246.524 116.494C246.999 117.061 247.237 117.851 247.237 118.863V128.5H244.914V118.978C244.914 118.487 244.814 118.112 244.615 117.851C244.415 117.59 244.124 117.46 243.741 117.46C242.928 117.46 242.522 117.997 242.522 119.07V128.5H240.659V118.978C240.659 118.487 240.551 118.112 240.337 117.851C240.122 117.59 239.815 117.46 239.417 117.46C238.619 117.46 238.221 117.997 238.221 119.07V128.5H235.944ZM250.517 126.2H255.071V118.127H251.092V115.85H257.532V126.2H261.235V128.5H250.517V126.2ZM254.151 112.377C254.151 111.932 254.289 111.58 254.565 111.319C254.856 111.043 255.239 110.905 255.715 110.905H256.267C256.742 110.905 257.118 111.043 257.394 111.319C257.685 111.58 257.831 111.932 257.831 112.377C257.831 112.822 257.685 113.174 257.394 113.435C257.118 113.696 256.734 113.826 256.244 113.826H255.715C255.239 113.826 254.856 113.696 254.565 113.435C254.289 113.174 254.151 112.822 254.151 112.377ZM269.322 128.73C268.509 128.73 267.773 128.615 267.114 128.385C266.47 128.155 265.918 127.825 265.458 127.396C264.998 126.967 264.645 126.445 264.4 125.832C264.154 125.219 264.032 124.536 264.032 123.785V120.565C264.032 119.814 264.154 119.131 264.4 118.518C264.645 117.905 264.998 117.383 265.458 116.954C265.918 116.525 266.47 116.195 267.114 115.965C267.773 115.735 268.509 115.62 269.322 115.62C270.042 115.62 270.702 115.72 271.3 115.919C271.913 116.118 272.45 116.41 272.91 116.793C273.37 117.176 273.745 117.636 274.037 118.173C274.343 118.71 274.543 119.315 274.635 119.99H272.105C271.997 119.346 271.691 118.825 271.185 118.426C270.679 118.027 270.058 117.828 269.322 117.828C268.448 117.828 267.765 118.073 267.275 118.564C266.784 119.039 266.539 119.706 266.539 120.565V123.785C266.539 124.644 266.784 125.311 267.275 125.786C267.765 126.261 268.448 126.499 269.322 126.499C270.058 126.499 270.679 126.307 271.185 125.924C271.691 125.525 271.997 125.004 272.105 124.36H274.635C274.42 125.709 273.837 126.775 272.887 127.557C271.951 128.339 270.763 128.73 269.322 128.73Z"/><path stroke="#000" stroke-width="3" d="M313.875 114.179C320.702 114.179 326.236 111.901 326.236 109.09C326.236 106.279 320.702 104 313.875 104C307.049 104 301.515 106.279 301.515 109.09C301.515 111.901 307.049 114.179 313.875 114.179Z"/><path stroke="#000" stroke-width="3" d="M301.515 109.09V130.903C301.572 131.572 301.948 132.235 302.622 132.853C303.296 133.472 304.254 134.034 305.443 134.507C306.631 134.98 308.025 135.356 309.547 135.612C311.069 135.868 312.687 136 314.31 136C315.934 136 317.53 135.868 319.007 135.612C320.485 135.356 321.816 134.98 322.923 134.507C324.031 134.034 324.893 133.472 325.462 132.853C326.03 132.235 326.293 131.572 326.236 130.903V109.09M301.515 116.361C301.572 117.03 301.948 117.693 302.622 118.311C303.296 118.93 304.254 119.492 305.443 119.965C306.631 120.438 308.025 120.814 309.547 121.07C311.069 121.326 312.687 121.458 314.31 121.458C315.934 121.458 317.53 121.326 319.007 121.07C320.485 120.814 321.816 120.438 322.923 119.965C324.031 119.492 324.893 118.93 325.462 118.311C326.03 117.693 326.293 117.03 326.236 116.361M301.515 123.632C301.572 124.301 301.948 124.964 302.622 125.582C303.296 126.201 304.254 126.763 305.443 127.236C306.631 127.709 308.025 128.085 309.547 128.341C311.069 128.597 312.687 128.729 314.31 128.729C315.934 128.729 317.53 128.597 319.007 128.341C320.485 128.085 321.816 127.709 322.923 127.236C324.031 126.763 324.893 126.201 325.462 125.582C326.03 124.964 326.293 124.301 326.236 123.632"/><path fill="#000" d="M341.133 121.324L339.109 120.933C336.464 120.381 334.302 119.047 334.302 116.218C334.302 113.113 337.545 111.526 340.604 111.526C343.916 111.526 346.469 113.021 347.136 116.494H344.307C343.824 114.493 342.099 113.918 340.443 113.918C339.155 113.918 337.246 114.493 337.246 116.126C337.246 117.414 338.281 118.058 339.73 118.334L341.777 118.725C344.698 119.277 347.481 120.381 347.481 123.716C347.481 127.097 344.146 128.799 340.857 128.799C336.878 128.799 334.21 126.66 333.842 122.98H336.717C337.246 125.28 338.695 126.407 340.995 126.407C342.973 126.407 344.56 125.51 344.56 123.9C344.56 122.175 342.72 121.623 341.133 121.324ZM364.486 120.151C364.486 122.934 363.612 125.211 361.979 126.752L363.957 129.098L362.163 130.593L360.047 128.086C359.012 128.569 357.839 128.799 356.528 128.799C351.629 128.799 348.57 125.28 348.57 120.151C348.57 114.999 351.629 111.526 356.528 111.526C361.427 111.526 364.486 114.999 364.486 120.151ZM351.583 120.151C351.583 124.222 353.768 126.407 356.528 126.407C357.195 126.407 357.816 126.292 358.345 126.039L356.988 124.406L358.759 122.911L360.185 124.613C360.99 123.532 361.473 122.083 361.473 120.151C361.473 116.103 359.288 113.918 356.528 113.918C353.768 113.918 351.583 116.103 351.583 120.151ZM369.414 111.825V126.039H377.809V128.5H366.493V111.825H369.414Z"/></g><defs><linearGradient id="paint0_linear_4723_13373" x1="400.322" x2="400.322" y1="65.999" y2="234.499" gradientUnits="userSpaceOnUse"><stop stop-color="#EDDD0C"/><stop offset="1" stop-color="#F3E71B"/></linearGradient><linearGradient id="paint1_linear_4723_13373" x1="72.906" x2="72.906" y1="349.513" y2="-53.814" gradientUnits="userSpaceOnUse"><stop stop-color="#EDDD0C"/><stop offset="1" stop-color="#F3E71B"/></linearGradient><clipPath id="clip0_4723_13373"><rect width="560" height="240" fill="#fff"/></clipPath><clipPath id="clip1_4723_13373"><rect width="560" height="240" fill="#fff"/></clipPath></defs></svg>