<svg width="1200" height="515" viewBox="0 0 1200 515" fill="none" xmlns="http://www.w3.org/2000/svg">
<g clip-path="url(#clip0_10191_19327)">
<rect width="1200" height="515" fill="url(#paint0_linear_10191_19327)"/>
<path d="M57.5037 730.375C57.5037 731.201 58.1736 731.871 59 731.871C59.8264 731.871 60.4963 731.201 60.4963 730.375L59 730.375L57.5037 730.375ZM60.058 402.942C59.4737 402.358 58.5263 402.358 57.942 402.942L48.4196 412.464C47.8352 413.049 47.8352 413.996 48.4196 414.58C49.0039 415.165 49.9513 415.165 50.5356 414.58L59 406.116L67.4644 414.58C68.0487 415.165 68.9961 415.165 69.5804 414.58C70.1648 413.996 70.1648 413.049 69.5804 412.464L60.058 402.942ZM59 730.375L60.4963 730.375L60.4963 404L59 404L57.5037 404L57.5037 730.375L59 730.375Z" fill="#F0DF09"/>
<path d="M111.504 673.5C111.504 674.326 112.174 674.996 113 674.996C113.826 674.996 114.496 674.326 114.496 673.5L113 673.5L111.504 673.5ZM114.058 -78.558C113.474 -79.1424 112.526 -79.1424 111.942 -78.558L102.42 -69.0356C101.835 -68.4513 101.835 -67.5039 102.42 -66.9196C103.004 -66.3352 103.951 -66.3352 104.536 -66.9196L113 -75.3839L121.464 -66.9196C122.049 -66.3352 122.996 -66.3352 123.58 -66.9196C124.165 -67.5039 124.165 -68.4513 123.58 -69.0356L114.058 -78.558ZM113 673.5L114.496 673.5L114.496 -77.5L113 -77.5L111.504 -77.5L111.504 673.5L113 673.5Z" fill="#F0DF09"/>
<path d="M400.504 613.5C400.504 614.326 401.174 614.996 402 614.996C402.826 614.996 403.496 614.326 403.496 613.5L402 613.5L400.504 613.5ZM403.058 65.942C402.474 65.3576 401.526 65.3576 400.942 65.942L391.42 75.4644C390.835 76.0487 390.835 76.9961 391.42 77.5804C392.004 78.1648 392.951 78.1648 393.536 77.5804L402 69.1161L410.464 77.5804C411.049 78.1648 411.996 78.1648 412.58 77.5804C413.165 76.9961 413.165 76.0487 412.58 75.4644L403.058 65.942ZM402 613.5L403.496 613.5L403.496 67L402 67L400.504 67L400.504 613.5L402 613.5Z" fill="#F0DF09"/>
<path d="M1008.5 -95C1008.5 -95.8264 1007.83 -96.4963 1007 -96.4963C1006.17 -96.4963 1005.5 -95.8264 1005.5 -95L1007 -95L1008.5 -95ZM1005.94 232.433C1006.53 233.017 1007.47 233.017 1008.06 232.433L1017.58 222.911C1018.16 222.326 1018.16 221.379 1017.58 220.795C1017 220.21 1016.05 220.21 1015.46 220.795L1007 229.259L998.536 220.795C997.951 220.21 997.004 220.21 996.42 220.795C995.835 221.379 995.835 222.326 996.42 222.911L1005.94 232.433ZM1007 -95L1005.5 -95L1005.5 231.375L1007 231.375L1008.5 231.375L1008.5 -95L1007 -95Z" fill="#F0DF09"/>
<path d="M817 737.5C817 686.69 775.81 645.5 725 645.5L450.12 645.5C395.028 645.5 350.367 600.839 350.367 545.747L350.367 417.753C350.367 362.66 305.706 317.999 250.614 317.999L-81 317.999" stroke="#F0DF09" stroke-width="2.9926"/>
<path d="M1105.5 -183L1105.5 -10.2539C1105.5 44.8385 1060.84 89.4997 1005.75 89.4994L979.754 89.4993C924.662 89.4989 880 134.16 880 189.253L880 229.745C880 284.838 924.661 329.499 979.753 329.499H1227.49C1282.58 329.499 1327.24 374.16 1327.24 429.252V603.245C1327.24 658.337 1371.9 702.999 1427 702.999H1572" stroke="#F0DF09" stroke-width="2.9926"/>
<path d="M1152.34 585L1152.34 -52.1334C1152.34 -107.226 1197 -151.887 1252.09 -151.887L1297.48 -151.887C1352.57 -151.887 1397.23 -107.226 1397.23 -52.1334L1397.23 156.735C1397.23 211.827 1441.89 256.488 1496.99 256.488L1965.76 256.488C2020.85 256.488 2065.51 301.149 2065.51 356.242V454.488" stroke="#F0DF09" stroke-width="2.9926"/>
<rect x="1129.96" y="185.962" width="45.0762" height="90.0762" rx="22.5381" fill="#D4C50B" stroke="#F0DF09" stroke-width="1.92382"/>
<path d="M696.001 -215L696.001 -5.16936C696.001 33.8602 664.361 65.4999 625.332 65.5C586.302 65.5001 554.663 97.1398 554.663 136.169L554.663 363.246C554.663 418.339 510.001 463 454.909 463L289.047 463C233.954 463 189.293 418.339 189.293 363.246L189.293 240.253C189.293 185.161 144.632 140.5 89.54 140.5L-13 140.5" stroke="#F0DF09" stroke-width="2.9926"/>
<path d="M465.999 1026L465.999 816.169C465.999 777.14 497.639 745.5 536.668 745.5C575.698 745.5 607.337 713.86 607.337 674.831L607.337 447.753C607.337 392.661 651.999 348 707.091 348L872.953 348C928.046 348 972.707 392.662 972.707 447.754L972.707 621.624C972.707 676.717 1017.37 721.378 1072.46 721.378L1175 721.378" stroke="#F0DF09" stroke-width="2.9926"/>
<path d="M636 -560L636 -342.893C636 -307.882 607.618 -279.5 572.607 -279.5C537.596 -279.5 509.214 -251.118 509.214 -216.107L509.214 18.2465C509.214 73.3388 464.553 118 409.461 118L281.218 118C226.126 118 181.465 73.3384 181.465 18.2462L181.465 -155.624C181.465 -210.717 136.803 -255.378 81.7112 -255.378L1.90929e-05 -255.378" stroke="#F0DF09" stroke-width="2.9926"/>
<rect x="95.9619" y="325.038" width="15.0762" height="33.0762" rx="7.53809" transform="rotate(-90 95.9619 325.038)" fill="#D4C50B" stroke="#F0DF09" stroke-width="1.92382"/>
<path d="M1266 441.496C1266.83 441.496 1267.5 440.826 1267.5 440C1267.5 439.174 1266.83 438.504 1266 438.504L1266 440L1266 441.496ZM804.942 635.942C804.358 636.526 804.358 637.474 804.942 638.058L814.464 647.58C815.049 648.165 815.996 648.165 816.58 647.58C817.165 646.996 817.165 646.049 816.58 645.464L808.116 637L816.58 628.536C817.165 627.951 817.165 627.004 816.58 626.42C815.996 625.835 815.049 625.835 814.464 626.42L804.942 635.942ZM1266 440L1266 438.504L1134.69 438.504L1134.69 440L1134.69 441.496L1266 441.496L1266 440ZM937.686 637L937.686 635.504L806 635.504L806 637L806 638.496L937.686 638.496L937.686 637ZM1036.19 538.5L1034.69 538.5C1034.69 592.074 991.259 635.504 937.686 635.504L937.686 637L937.686 638.496C992.912 638.496 1037.68 593.726 1037.68 538.5L1036.19 538.5ZM1134.69 440L1134.69 438.504C1079.46 438.504 1034.69 483.274 1034.69 538.5L1036.19 538.5L1037.68 538.5C1037.68 484.926 1081.11 441.496 1134.69 441.496L1134.69 440Z" fill="#F0DF09"/>
<path d="M36.512 98.28C35.28 98.28 34.2067 98.0467 33.292 97.58C32.396 97.1133 31.696 96.4413 31.192 95.564C30.7067 94.668 30.464 93.6133 30.464 92.4V83.16C30.464 81.928 30.7067 80.8733 31.192 79.996C31.696 79.1187 32.396 78.4467 33.292 77.98C34.2067 77.5133 35.28 77.28 36.512 77.28C37.744 77.28 38.808 77.5227 39.704 78.008C40.6 78.4747 41.2907 79.1467 41.776 80.024C42.2613 80.9013 42.504 81.9467 42.504 83.16H39.984C39.984 82.0027 39.676 81.116 39.06 80.5C38.4627 79.8653 37.6133 79.548 36.512 79.548C35.4107 79.548 34.5427 79.856 33.908 80.472C33.292 81.088 32.984 81.9747 32.984 83.132V92.4C32.984 93.5573 33.292 94.4533 33.908 95.088C34.5427 95.704 35.4107 96.012 36.512 96.012C37.6133 96.012 38.4627 95.704 39.06 95.088C39.676 94.4533 39.984 93.5573 39.984 92.4H42.504C42.504 93.5947 42.2613 94.64 41.776 95.536C41.2907 96.4133 40.6 97.0947 39.704 97.58C38.808 98.0467 37.744 98.28 36.512 98.28ZM46.1891 98L51.5091 77.56H54.8971L60.1891 98H57.6411L56.2971 92.568H50.1091L48.7651 98H46.1891ZM50.6131 90.44H55.7651L54.1971 84.14C53.8984 82.9453 53.6651 81.9467 53.4971 81.144C53.3291 80.3413 53.2264 79.8187 53.1891 79.576C53.1517 79.8187 53.0491 80.3413 52.8811 81.144C52.7131 81.9467 52.4797 82.936 52.1811 84.112L50.6131 90.44ZM64.7981 98V77.56H67.3181V95.704H76.5581V98H64.7981ZM81.5872 98V77.56H84.1072V95.704H93.3472V98H81.5872Z" fill="#F3E223"/>
<path d="M696.4 455.28C695.187 455.28 694.123 455.037 693.208 454.552C692.312 454.067 691.612 453.385 691.108 452.508C690.623 451.612 690.38 450.576 690.38 449.4V445.2C690.38 444.005 690.623 442.969 691.108 442.092C691.612 441.215 692.312 440.533 693.208 440.048C694.123 439.563 695.187 439.32 696.4 439.32C697.613 439.32 698.668 439.563 699.564 440.048C700.479 440.533 701.179 441.215 701.664 442.092C702.168 442.969 702.42 444.005 702.42 445.2V447.916H692.844V449.4C692.844 450.613 693.152 451.547 693.768 452.2C694.384 452.835 695.261 453.152 696.4 453.152C697.371 453.152 698.155 452.984 698.752 452.648C699.349 452.293 699.713 451.771 699.844 451.08H702.364C702.196 452.368 701.561 453.395 700.46 454.16C699.377 454.907 698.024 455.28 696.4 455.28ZM699.956 446.236V445.2C699.956 443.987 699.648 443.053 699.032 442.4C698.435 441.747 697.557 441.42 696.4 441.42C695.261 441.42 694.384 441.747 693.768 442.4C693.152 443.053 692.844 443.987 692.844 445.2V446.012H700.152L699.956 446.236ZM707.365 455V439.6H709.885V442.54H710.417L709.885 443.128C709.885 441.915 710.249 440.981 710.977 440.328C711.705 439.656 712.713 439.32 714.001 439.32C715.55 439.32 716.782 439.796 717.697 440.748C718.612 441.7 719.069 442.997 719.069 444.64V455H716.549V444.92C716.549 443.819 716.25 442.979 715.653 442.4C715.074 441.803 714.281 441.504 713.273 441.504C712.228 441.504 711.397 441.821 710.781 442.456C710.184 443.091 709.885 444.005 709.885 445.2V455H707.365ZM730.09 455.28C728.858 455.28 727.775 455.047 726.842 454.58C725.927 454.113 725.218 453.441 724.714 452.564C724.21 451.668 723.958 450.613 723.958 449.4V445.2C723.958 443.968 724.21 442.913 724.714 442.036C725.218 441.159 725.927 440.487 726.842 440.02C727.775 439.553 728.858 439.32 730.09 439.32C731.863 439.32 733.291 439.796 734.374 440.748C735.457 441.7 736.026 442.997 736.082 444.64H733.562C733.506 443.651 733.17 442.895 732.554 442.372C731.957 441.831 731.135 441.56 730.09 441.56C728.989 441.56 728.111 441.877 727.458 442.512C726.805 443.128 726.478 444.015 726.478 445.172V449.4C726.478 450.557 726.805 451.453 727.458 452.088C728.111 452.723 728.989 453.04 730.09 453.04C731.135 453.04 731.957 452.769 732.554 452.228C733.17 451.687 733.506 450.931 733.562 449.96H736.082C736.026 451.603 735.457 452.9 734.374 453.852C733.291 454.804 731.863 455.28 730.09 455.28ZM741.475 455V439.6H743.939V442.54H744.527L743.715 444.36C743.715 442.699 744.07 441.448 744.779 440.608C745.507 439.749 746.581 439.32 747.999 439.32C749.623 439.32 750.911 439.833 751.863 440.86C752.834 441.868 753.319 443.24 753.319 444.976V445.9H750.799V445.2C750.799 443.987 750.501 443.063 749.903 442.428C749.325 441.775 748.494 441.448 747.411 441.448C746.347 441.448 745.507 441.775 744.891 442.428C744.294 443.081 743.995 444.005 743.995 445.2V455H741.475ZM760.14 460.04L762.408 454.048L756.696 439.6H759.496L763.08 449.12C763.211 449.437 763.332 449.82 763.444 450.268C763.556 450.697 763.65 451.061 763.724 451.36C763.799 451.061 763.892 450.697 764.004 450.268C764.116 449.82 764.228 449.437 764.34 449.12L767.7 439.6H770.416L762.828 460.04H760.14ZM774.521 460.04V439.6H777.041V442.54H777.545L777.041 443.128C777.041 441.952 777.424 441.028 778.189 440.356C778.973 439.665 780 439.32 781.269 439.32C782.819 439.32 784.051 439.833 784.965 440.86C785.899 441.868 786.365 443.259 786.365 445.032V449.54C786.365 450.716 786.151 451.733 785.721 452.592C785.311 453.451 784.723 454.113 783.957 454.58C783.211 455.047 782.315 455.28 781.269 455.28C780.019 455.28 779.001 454.935 778.217 454.244C777.433 453.553 777.041 452.629 777.041 451.472L777.545 452.06H776.985L777.041 455.56V460.04H774.521ZM780.429 453.096C781.493 453.096 782.324 452.779 782.921 452.144C783.537 451.509 783.845 450.595 783.845 449.4V445.2C783.845 444.005 783.537 443.091 782.921 442.456C782.324 441.821 781.493 441.504 780.429 441.504C779.403 441.504 778.581 441.831 777.965 442.484C777.349 443.137 777.041 444.043 777.041 445.2V449.4C777.041 450.557 777.349 451.463 777.965 452.116C778.581 452.769 779.403 453.096 780.429 453.096ZM798.814 455C797.489 455 796.453 454.645 795.706 453.936C794.978 453.227 794.614 452.228 794.614 450.94V441.896H790.274V439.6H794.614V435.26H797.134V439.6H803.294V441.896H797.134V450.94C797.134 452.116 797.694 452.704 798.814 452.704H803.014V455H798.814ZM813.923 455.28C812.71 455.28 811.646 455.037 810.731 454.552C809.835 454.067 809.135 453.385 808.631 452.508C808.146 451.612 807.903 450.576 807.903 449.4V445.2C807.903 444.005 808.146 442.969 808.631 442.092C809.135 441.215 809.835 440.533 810.731 440.048C811.646 439.563 812.71 439.32 813.923 439.32C815.137 439.32 816.191 439.563 817.087 440.048C818.002 440.533 818.702 441.215 819.187 442.092C819.691 442.969 819.943 444.005 819.943 445.2V447.916H810.367V449.4C810.367 450.613 810.675 451.547 811.291 452.2C811.907 452.835 812.785 453.152 813.923 453.152C814.894 453.152 815.678 452.984 816.275 452.648C816.873 452.293 817.237 451.771 817.367 451.08H819.887C819.719 452.368 819.085 453.395 817.983 454.16C816.901 454.907 815.547 455.28 813.923 455.28ZM817.479 446.236V445.2C817.479 443.987 817.171 443.053 816.555 442.4C815.958 441.747 815.081 441.42 813.923 441.42C812.785 441.42 811.907 441.747 811.291 442.4C810.675 443.053 810.367 443.987 810.367 445.2V446.012H817.675L817.479 446.236ZM829.817 455.28C828.286 455.28 827.045 454.767 826.093 453.74C825.159 452.713 824.693 451.323 824.693 449.568V445.06C824.693 443.287 825.159 441.887 826.093 440.86C827.026 439.833 828.267 439.32 829.817 439.32C831.086 439.32 832.103 439.665 832.869 440.356C833.634 441.047 834.017 441.971 834.017 443.128L833.513 442.54H834.073L834.017 439.04V434.56H836.537V455H834.017V452.06H833.513L834.017 451.472C834.017 452.648 833.634 453.581 832.869 454.272C832.103 454.944 831.086 455.28 829.817 455.28ZM830.657 453.096C831.702 453.096 832.523 452.769 833.121 452.116C833.718 451.463 834.017 450.557 834.017 449.4V445.2C834.017 444.043 833.718 443.137 833.121 442.484C832.523 441.831 831.702 441.504 830.657 441.504C829.593 441.504 828.753 441.821 828.137 442.456C827.521 443.091 827.213 444.005 827.213 445.2V449.4C827.213 450.595 827.521 451.509 828.137 452.144C828.753 452.779 829.593 453.096 830.657 453.096ZM847.502 455.28C846.792 455.28 846.223 455.075 845.794 454.664C845.383 454.253 845.178 453.703 845.178 453.012C845.178 452.284 845.383 451.705 845.794 451.276C846.223 450.847 846.792 450.632 847.502 450.632C848.211 450.632 848.771 450.847 849.182 451.276C849.611 451.705 849.826 452.284 849.826 453.012C849.826 453.703 849.611 454.253 849.182 454.664C848.771 455.075 848.211 455.28 847.502 455.28ZM863.395 455.28C861.864 455.28 860.623 454.767 859.671 453.74C858.737 452.713 858.271 451.323 858.271 449.568V445.06C858.271 443.287 858.737 441.887 859.671 440.86C860.604 439.833 861.845 439.32 863.395 439.32C864.664 439.32 865.681 439.665 866.447 440.356C867.212 441.047 867.595 441.971 867.595 443.128L867.091 442.54H867.651L867.595 439.04V434.56H870.115V455H867.595V452.06H867.091L867.595 451.472C867.595 452.648 867.212 453.581 866.447 454.272C865.681 454.944 864.664 455.28 863.395 455.28ZM864.235 453.096C865.28 453.096 866.101 452.769 866.699 452.116C867.296 451.463 867.595 450.557 867.595 449.4V445.2C867.595 444.043 867.296 443.137 866.699 442.484C866.101 441.831 865.28 441.504 864.235 441.504C863.171 441.504 862.331 441.821 861.715 442.456C861.099 443.091 860.791 444.005 860.791 445.2V449.4C860.791 450.595 861.099 451.509 861.715 452.144C862.331 452.779 863.171 453.096 864.235 453.096ZM881.976 455.28C880.706 455.28 879.689 454.944 878.924 454.272C878.158 453.581 877.776 452.648 877.776 451.472L878.28 452.06H877.776V455H875.256V434.56H877.776V439.04L877.72 442.54H878.28L877.776 443.128C877.776 441.971 878.158 441.047 878.924 440.356C879.708 439.665 880.725 439.32 881.976 439.32C883.525 439.32 884.766 439.833 885.7 440.86C886.633 441.887 887.1 443.287 887.1 445.06V449.568C887.1 451.323 886.633 452.713 885.7 453.74C884.766 454.767 883.525 455.28 881.976 455.28ZM881.136 453.096C882.2 453.096 883.04 452.779 883.656 452.144C884.272 451.509 884.58 450.595 884.58 449.4V445.2C884.58 444.005 884.272 443.091 883.656 442.456C883.04 441.821 882.2 441.504 881.136 441.504C880.109 441.504 879.288 441.831 878.672 442.484C878.074 443.137 877.776 444.043 877.776 445.2V449.4C877.776 450.557 878.074 451.463 878.672 452.116C879.288 452.769 880.109 453.096 881.136 453.096Z" fill="#F3E223"/>
<path d="M725.8 59V38.56H737.56V40.856H728.292V47.184H736.58V49.452H728.292V56.704H737.56V59H725.8ZM742.309 59V38.56H745.669L751.913 56.06C751.876 55.5933 751.829 55.024 751.773 54.352C751.736 53.6613 751.698 52.9427 751.661 52.196C751.642 51.4307 751.633 50.712 751.633 50.04V38.56H754.069V59H750.709L744.493 41.5C744.53 41.948 744.568 42.5173 744.605 43.208C744.642 43.88 744.67 44.5987 744.689 45.364C744.726 46.1107 744.745 46.8293 744.745 47.52V59H742.309ZM765.09 59.28C763.858 59.28 762.785 59.0467 761.87 58.58C760.974 58.1133 760.274 57.4413 759.77 56.564C759.285 55.668 759.042 54.6133 759.042 53.4V44.16C759.042 42.928 759.285 41.8733 759.77 40.996C760.274 40.1187 760.974 39.4467 761.87 38.98C762.785 38.5133 763.858 38.28 765.09 38.28C766.322 38.28 767.386 38.5227 768.282 39.008C769.178 39.4747 769.869 40.1467 770.354 41.024C770.839 41.9013 771.082 42.9467 771.082 44.16H768.562C768.562 43.0027 768.254 42.116 767.638 41.5C767.041 40.8653 766.191 40.548 765.09 40.548C763.989 40.548 763.121 40.856 762.486 41.472C761.87 42.088 761.562 42.9747 761.562 44.132V53.4C761.562 54.5573 761.87 55.4533 762.486 56.088C763.121 56.704 763.989 57.012 765.09 57.012C766.191 57.012 767.041 56.704 767.638 56.088C768.254 55.4533 768.562 54.5573 768.562 53.4H771.082C771.082 54.5947 770.839 55.64 770.354 56.536C769.869 57.4133 769.178 58.0947 768.282 58.58C767.386 59.0467 766.322 59.28 765.09 59.28ZM775.943 59V38.56H782.271C783.485 38.56 784.549 38.812 785.463 39.316C786.378 39.8013 787.087 40.4827 787.591 41.36C788.095 42.2373 788.347 43.264 788.347 44.44C788.347 45.8213 787.983 47.0067 787.255 47.996C786.546 48.9853 785.575 49.6667 784.343 50.04L788.627 59H785.659L781.739 50.32H778.463V59H775.943ZM778.463 48.052H782.271C783.317 48.052 784.157 47.7253 784.791 47.072C785.426 46.4 785.743 45.5227 785.743 44.44C785.743 43.3387 785.426 42.4613 784.791 41.808C784.157 41.1547 783.317 40.828 782.271 40.828H778.463V48.052ZM797.296 59V51.356L791.136 38.56H793.74L797.8 46.96C798.024 47.4267 798.202 47.828 798.332 48.164C798.463 48.4813 798.547 48.7147 798.584 48.864C798.622 48.7147 798.706 48.4813 798.836 48.164C798.986 47.828 799.172 47.4267 799.396 46.96L803.372 38.56H805.976L799.816 51.356V59H797.296ZM809.521 59V38.56H816.101C817.371 38.56 818.472 38.812 819.405 39.316C820.339 39.8013 821.057 40.492 821.561 41.388C822.084 42.284 822.345 43.348 822.345 44.58C822.345 45.7933 822.084 46.8573 821.561 47.772C821.057 48.668 820.339 49.368 819.405 49.872C818.472 50.3573 817.371 50.6 816.101 50.6H812.041V59H809.521ZM812.041 48.332H816.101C817.203 48.332 818.08 47.996 818.733 47.324C819.405 46.6333 819.741 45.7187 819.741 44.58C819.741 43.4227 819.405 42.508 818.733 41.836C818.08 41.164 817.203 40.828 816.101 40.828H812.041V48.332ZM830.874 59V40.828H825.274V38.532H838.994V40.828H833.394V59H830.874ZM843.463 59V56.704H847.635V40.856H843.463V38.56H854.383V40.856H850.211V56.704H854.383V59H843.463ZM865.713 59.28C864.481 59.28 863.417 59.0467 862.521 58.58C861.643 58.1133 860.962 57.4413 860.477 56.564C860.01 55.668 859.777 54.6133 859.777 53.4V44.16C859.777 42.928 860.01 41.8733 860.477 40.996C860.962 40.1187 861.643 39.4467 862.521 38.98C863.417 38.5133 864.481 38.28 865.713 38.28C866.945 38.28 867.999 38.5133 868.877 38.98C869.773 39.4467 870.454 40.1187 870.921 40.996C871.406 41.8733 871.649 42.9187 871.649 44.132V53.4C871.649 54.6133 871.406 55.668 870.921 56.564C870.454 57.4413 869.773 58.1133 868.877 58.58C867.999 59.0467 866.945 59.28 865.713 59.28ZM865.713 57.012C866.814 57.012 867.654 56.704 868.233 56.088C868.83 55.4533 869.129 54.5573 869.129 53.4V44.16C869.129 43.0027 868.83 42.116 868.233 41.5C867.654 40.8653 866.814 40.548 865.713 40.548C864.63 40.548 863.79 40.8653 863.193 41.5C862.595 42.116 862.297 43.0027 862.297 44.16V53.4C862.297 54.5573 862.595 55.4533 863.193 56.088C863.79 56.704 864.63 57.012 865.713 57.012ZM876.622 59V38.56H879.982L886.226 56.06C886.188 55.5933 886.142 55.024 886.086 54.352C886.048 53.6613 886.011 52.9427 885.974 52.196C885.955 51.4307 885.946 50.712 885.946 50.04V38.56H888.382V59H885.022L878.806 41.5C878.843 41.948 878.88 42.5173 878.918 43.208C878.955 43.88 878.983 44.5987 879.002 45.364C879.039 46.1107 879.058 46.8293 879.058 47.52V59H876.622ZM892.571 61.8V59.7H906.011V61.8H892.571ZM910.256 59V38.56H912.776V47.324H915.8L920.336 38.56H923.08L918.012 48.388L923.36 59H920.476L915.716 49.536H912.776V59H910.256ZM927.269 59V38.56H939.029V40.856H929.761V47.184H938.049V49.452H929.761V56.704H939.029V59H927.269ZM948.398 59V51.356L942.238 38.56H944.842L948.902 46.96C949.126 47.4267 949.303 47.828 949.434 48.164C949.564 48.4813 949.648 48.7147 949.686 48.864C949.723 48.7147 949.807 48.4813 949.938 48.164C950.087 47.828 950.274 47.4267 950.498 46.96L954.474 38.56H957.078L950.918 51.356V59H948.398Z" fill="#F3E223"/>
<path d="M240.224 241.96L239.888 237.76V233.56H242.604V237.76L242.296 241.96H240.224ZM258.301 254.28C257.069 254.28 255.986 254.047 255.053 253.58C254.138 253.113 253.429 252.441 252.925 251.564C252.421 250.668 252.169 249.613 252.169 248.4V244.2C252.169 242.968 252.421 241.913 252.925 241.036C253.429 240.159 254.138 239.487 255.053 239.02C255.986 238.553 257.069 238.32 258.301 238.32C260.074 238.32 261.502 238.796 262.585 239.748C263.668 240.7 264.237 241.997 264.293 243.64H261.773C261.717 242.651 261.381 241.895 260.765 241.372C260.168 240.831 259.346 240.56 258.301 240.56C257.2 240.56 256.322 240.877 255.669 241.512C255.016 242.128 254.689 243.015 254.689 244.172V248.4C254.689 249.557 255.016 250.453 255.669 251.088C256.322 251.723 257.2 252.04 258.301 252.04C259.346 252.04 260.168 251.769 260.765 251.228C261.381 250.687 261.717 249.931 261.773 248.96H264.293C264.237 250.603 263.668 251.9 262.585 252.852C261.502 253.804 260.074 254.28 258.301 254.28ZM268.958 254V251.704H274.418V240.896H269.658V238.6H276.938V251.704H282.118V254H268.958ZM275.398 235.828C274.782 235.828 274.297 235.669 273.942 235.352C273.587 235.035 273.41 234.605 273.41 234.064C273.41 233.504 273.587 233.065 273.942 232.748C274.297 232.412 274.782 232.244 275.398 232.244C276.014 232.244 276.499 232.412 276.854 232.748C277.209 233.065 277.386 233.504 277.386 234.064C277.386 234.605 277.209 235.035 276.854 235.352C276.499 235.669 276.014 235.828 275.398 235.828ZM285.943 259.04V238.6H288.463V241.54H288.967L288.463 242.128C288.463 240.952 288.846 240.028 289.611 239.356C290.395 238.665 291.422 238.32 292.691 238.32C294.241 238.32 295.473 238.833 296.387 239.86C297.321 240.868 297.787 242.259 297.787 244.032V248.54C297.787 249.716 297.573 250.733 297.143 251.592C296.733 252.451 296.145 253.113 295.379 253.58C294.633 254.047 293.737 254.28 292.691 254.28C291.441 254.28 290.423 253.935 289.639 253.244C288.855 252.553 288.463 251.629 288.463 250.472L288.967 251.06H288.407L288.463 254.56V259.04H285.943ZM291.851 252.096C292.915 252.096 293.746 251.779 294.343 251.144C294.959 250.509 295.267 249.595 295.267 248.4V244.2C295.267 243.005 294.959 242.091 294.343 241.456C293.746 240.821 292.915 240.504 291.851 240.504C290.825 240.504 290.003 240.831 289.387 241.484C288.771 242.137 288.463 243.043 288.463 244.2V248.4C288.463 249.557 288.771 250.463 289.387 251.116C290.003 251.769 290.825 252.096 291.851 252.096ZM302.732 254V233.56H305.252V238.6V241.54H305.784L305.252 242.128C305.252 240.915 305.616 239.981 306.344 239.328C307.072 238.656 308.08 238.32 309.368 238.32C310.918 238.32 312.15 238.796 313.064 239.748C313.979 240.7 314.436 241.997 314.436 243.64V254H311.916V243.92C311.916 242.819 311.618 241.969 311.02 241.372C310.442 240.756 309.648 240.448 308.64 240.448C307.595 240.448 306.764 240.775 306.148 241.428C305.551 242.081 305.252 243.005 305.252 244.2V254H302.732ZM325.345 254.28C324.132 254.28 323.068 254.037 322.153 253.552C321.257 253.067 320.557 252.385 320.053 251.508C319.568 250.612 319.325 249.576 319.325 248.4V244.2C319.325 243.005 319.568 241.969 320.053 241.092C320.557 240.215 321.257 239.533 322.153 239.048C323.068 238.563 324.132 238.32 325.345 238.32C326.559 238.32 327.613 238.563 328.509 239.048C329.424 239.533 330.124 240.215 330.609 241.092C331.113 241.969 331.365 243.005 331.365 244.2V246.916H321.789V248.4C321.789 249.613 322.097 250.547 322.713 251.2C323.329 251.835 324.207 252.152 325.345 252.152C326.316 252.152 327.1 251.984 327.697 251.648C328.295 251.293 328.659 250.771 328.789 250.08H331.309C331.141 251.368 330.507 252.395 329.405 253.16C328.323 253.907 326.969 254.28 325.345 254.28ZM328.901 245.236V244.2C328.901 242.987 328.593 242.053 327.977 241.4C327.38 240.747 326.503 240.42 325.345 240.42C324.207 240.42 323.329 240.747 322.713 241.4C322.097 242.053 321.789 242.987 321.789 244.2V245.012H329.097L328.901 245.236ZM336.842 254V238.6H339.306V241.54H339.894L339.082 243.36C339.082 241.699 339.437 240.448 340.146 239.608C340.874 238.749 341.948 238.32 343.366 238.32C344.99 238.32 346.278 238.833 347.23 239.86C348.201 240.868 348.686 242.24 348.686 243.976V244.9H346.166V244.2C346.166 242.987 345.868 242.063 345.27 241.428C344.692 240.775 343.861 240.448 342.778 240.448C341.714 240.448 340.874 240.775 340.258 241.428C339.661 242.081 339.362 243.005 339.362 244.2V254H336.842ZM357.747 241.96L357.411 237.76V233.56H360.127V237.76L359.819 241.96H357.747Z" fill="#F3E223"/>
<g filter="url(#filter0_f_10191_19327)">
<path d="M498.301 134.024C519.675 133.397 538.486 144.915 548.325 162.182C549.206 161.329 550.203 160.513 551.297 159.736C555.668 156.631 561.888 153.9 569.431 151.634C584.536 147.094 605.308 144.31 628.183 144.31C651.058 144.31 671.83 147.094 686.936 151.634C694.478 153.9 700.698 156.631 705.069 159.736C707.62 161.548 709.647 163.569 710.883 165.782C711.459 166.813 711.861 167.886 712.065 168.998C712.165 169.54 712.22 170.091 712.222 170.652C712.222 170.663 712.223 170.673 712.223 170.684V215.764C745.414 215.879 772.268 243.711 772.269 276.036C772.268 309.311 745.336 336.282 712.099 336.282C705.227 336.282 698.622 335.132 692.467 333L666.537 358.813L666.522 358.828L666.508 358.842C665.842 359.471 664.912 359.771 663.982 359.622L663.975 359.62L663.967 359.619L638.834 355.329L642.937 380.531C643.092 381.467 642.778 382.414 642.111 383.082L641.166 384.027L641.15 384.044L641.133 384.06C640.467 384.689 639.538 384.989 638.608 384.84L638.601 384.839L638.593 384.837L613.598 380.58L617.683 405.663C617.838 406.598 617.524 407.546 616.857 408.214L616.849 408.223L616.84 408.23L616.272 408.781L616.26 408.793L616.247 408.806C615.787 409.233 615.109 409.594 614.32 409.611L578.433 410.954L578.432 410.952C577.121 411.006 576.104 409.889 576.228 408.615H576.226L579.473 374.091L579.476 374.053L579.481 374.015C579.537 373.624 579.711 373.159 580.089 372.78L580.093 372.776L612.743 340.288C596.748 339.383 582.34 337.097 570.942 333.84V355.159C570.942 357.497 569.047 359.395 566.708 359.395H432.965C430.627 359.394 428.731 357.497 428.73 355.159V242.818C428.731 240.481 430.627 238.585 432.965 238.584H444.34V190.757C444.34 160.591 467.945 134.954 498.258 134.025L498.282 134.024H498.301ZM730.498 246.056C720.728 244.469 712.407 252.648 713.716 262.374L713.785 262.839V262.84C714.766 268.796 719.556 273.604 725.469 274.62H725.475L725.604 274.642C735.509 276.269 743.941 267.823 742.314 257.874L742.211 257.315C741.023 251.577 736.293 246.998 730.498 246.056ZM500.685 147.973C477.481 147.575 458.327 167.245 458.327 190.626V238.584H541.618V189.638C541.618 166.856 523.99 148.373 500.685 147.973Z" fill="#FFFCC2"/>
</g>
<path d="M628.183 145.914C582.655 145.914 545.748 157.005 545.748 170.687V314.343C545.748 328.023 582.655 339.116 628.183 339.116C673.711 339.116 710.618 328.023 710.618 314.343V170.687C710.618 157.005 673.711 145.914 628.183 145.914Z" fill="#FFFCC2"/>
<path d="M710.618 170.687C710.618 157.005 673.711 145.914 628.183 145.914C582.655 145.914 545.748 157.005 545.748 170.687M710.618 170.687V170.683V314.343M710.618 170.687V314.343M545.748 170.687C545.748 184.368 545.748 170.683 545.748 170.683M545.748 170.687V170.683M710.618 314.343C710.618 328.023 673.711 339.116 628.183 339.116C582.655 339.116 545.748 328.023 545.748 314.343V170.683" stroke="#978C00" stroke-width="3.21" stroke-miterlimit="10"/>
<path d="M545.748 266.453C545.748 280.133 582.655 291.226 628.183 291.226C673.711 291.226 710.618 280.133 710.618 266.453" stroke="#978C00" stroke-width="3.21" stroke-miterlimit="10"/>
<path d="M545.748 218.566C545.748 232.246 582.655 243.339 628.183 243.339C673.711 243.339 710.618 232.246 710.618 218.566" stroke="#978C00" stroke-width="3.21" stroke-miterlimit="10"/>
<path d="M628.183 195.46C673.711 195.46 710.618 184.368 710.618 170.687C710.618 157.005 673.711 145.914 628.183 145.914C582.655 145.914 545.748 157.005 545.748 170.687C545.748 184.368 582.655 195.46 628.183 195.46Z" fill="#FFF100" stroke="#978C00" stroke-width="3.21" stroke-miterlimit="10"/>
<path d="M493.308 145.63C523.826 144.711 548.98 169.293 548.98 199.638V250.189H561.708C563.16 250.189 564.337 251.367 564.337 252.818V365.159C564.337 366.611 563.16 367.789 561.708 367.789H427.965C426.513 367.789 425.336 366.611 425.336 365.159V252.818C425.336 251.367 426.513 250.19 427.965 250.189H440.945V200.757C440.945 171.414 463.905 146.531 493.307 145.63H493.308ZM495.712 156.368C471.564 155.954 451.722 176.395 451.722 200.626V250.189H538.224V199.638C538.223 175.995 519.907 156.784 495.712 156.368Z" fill="#FFFCC2"/>
<path d="M493.308 145.63V147.235H493.332L493.356 147.234L493.308 145.63ZM548.98 199.638H550.585V199.638L548.98 199.638ZM548.98 250.189H547.375V251.794H548.98V250.189ZM564.337 252.818H565.942V252.818L564.337 252.818ZM427.965 367.789L427.965 369.394H427.965V367.789ZM425.336 252.818L423.731 252.818V252.818H425.336ZM427.965 250.189V248.584H427.965L427.965 250.189ZM440.945 250.189V251.794H442.55V250.189H440.945ZM440.945 200.757L439.34 200.757V200.757H440.945ZM493.307 145.63V144.025H493.282L493.257 144.026L493.307 145.63ZM495.712 156.368L495.739 154.763L495.739 154.763L495.712 156.368ZM451.722 200.626L450.117 200.626V200.626H451.722ZM451.722 250.189H450.117V251.794H451.722V250.189ZM538.224 250.189V251.794H539.829V250.189H538.224ZM538.224 199.638H539.829V199.638L538.224 199.638ZM493.308 145.63L493.356 147.234C522.966 146.343 547.375 170.195 547.375 199.638L548.98 199.638L550.585 199.638C550.585 168.39 524.685 143.08 493.259 144.026L493.308 145.63ZM548.98 199.638H547.375V250.189H548.98H550.585V199.638H548.98ZM548.98 250.189V251.794H561.708V250.189V248.584H548.98V250.189ZM561.708 250.189V251.794C562.273 251.794 562.732 252.253 562.732 252.819L564.337 252.818L565.942 252.818C565.942 250.48 564.046 248.584 561.708 248.584V250.189ZM564.337 252.818H562.732V365.159H564.337H565.942V252.818H564.337ZM564.337 365.159H562.732C562.732 365.725 562.273 366.184 561.708 366.184V367.789V369.394C564.047 369.394 565.942 367.497 565.942 365.159H564.337ZM561.708 367.789V366.184H427.965V367.789V369.394H561.708V367.789ZM427.965 367.789L427.965 366.184C427.4 366.184 426.941 365.725 426.941 365.159H425.336H423.731C423.731 367.497 425.626 369.394 427.965 369.394L427.965 367.789ZM425.336 365.159H426.941V252.818H425.336H423.731V365.159H425.336ZM425.336 252.818L426.941 252.819C426.941 252.253 427.4 251.795 427.965 251.794L427.965 250.189L427.965 248.584C425.627 248.585 423.731 250.48 423.731 252.818L425.336 252.818ZM427.965 250.189V251.794H440.945V250.189V248.584H427.965V250.189ZM440.945 250.189H442.55V200.757H440.945H439.34V250.189H440.945ZM440.945 200.757L442.55 200.757C442.55 172.236 464.865 148.107 493.356 147.234L493.307 145.63L493.257 144.026C462.945 144.955 439.34 170.591 439.34 200.757L440.945 200.757ZM493.307 145.63V147.235H493.308V145.63V144.025H493.307V145.63ZM495.712 156.368L495.739 154.763C470.648 154.333 450.117 175.545 450.117 200.626L451.722 200.626L453.327 200.626C453.327 177.245 472.48 157.575 495.684 157.973L495.712 156.368ZM451.722 200.626H450.117V250.189H451.722H453.327V200.626H451.722ZM451.722 250.189V251.794H538.224V250.189V248.584H451.722V250.189ZM538.224 250.189H539.829V199.638H538.224H536.619V250.189H538.224ZM538.224 199.638L539.829 199.638C539.828 175.134 520.824 155.194 495.739 154.763L495.712 156.368L495.684 157.973C518.989 158.373 536.618 176.856 536.619 199.638L538.224 199.638Z" fill="#978C00"/>
<path d="M490.198 333.634C487.626 333.634 485.538 331.546 485.538 328.973V315.83C482.834 313.276 481.287 309.734 481.287 305.931C481.287 298.399 487.421 292.266 494.952 292.266C502.484 292.266 508.617 298.399 508.617 305.931C508.617 309.734 507.07 313.276 504.367 315.83V328.973C504.367 331.546 502.279 333.634 499.706 333.634H490.161H490.198Z" fill="#FFFCC2" stroke="#978C00" stroke-width="3.21" stroke-miterlimit="10"/>
<path d="M503.995 305.945C503.995 300.967 499.969 296.922 494.972 296.922C489.976 296.922 485.949 300.949 485.949 305.945C485.949 309.17 487.646 311.985 490.2 313.589V328.969H499.745V313.589C502.299 312.004 503.995 309.17 503.995 305.945Z" fill="#978C00"/>
<path d="M709.333 217.429C679.028 218.822 654.513 243.748 653.585 274.126C653.327 282.52 654.822 290.502 657.743 297.778L581.225 373.913C581.139 373.999 581.088 374.12 581.07 374.24L577.823 408.764C577.789 409.091 578.047 409.366 578.373 409.349L614.261 408.007C614.588 408.007 614.914 407.852 615.155 407.629L615.721 407.078C616.031 406.769 616.168 406.339 616.099 405.926L611.822 379.659C611.736 379.143 612.182 378.713 612.698 378.799L638.862 383.254C639.292 383.323 639.721 383.185 640.031 382.893L640.975 381.947C641.285 381.637 641.422 381.207 641.353 380.794L637.058 354.407C636.973 353.89 637.419 353.46 637.935 353.546L664.236 358.036C664.666 358.105 665.095 357.967 665.405 357.675L692.05 331.15C698.304 333.438 705.055 334.676 712.099 334.676C744.448 334.676 770.664 308.426 770.664 276.035C770.664 243.644 742.936 215.881 709.333 217.429ZM725.327 276.225C718.678 275.141 713.301 269.774 712.202 263.1C710.381 252.091 719.744 242.681 730.756 244.47C737.421 245.554 742.799 250.938 743.898 257.612C745.702 268.639 736.339 278.031 725.344 276.225H725.327Z" fill="#FFF100" stroke="#978C00" stroke-width="3.21" stroke-miterlimit="10"/>
<path d="M158.58 477.36C155.929 476.707 153.867 475.419 152.392 473.496C150.917 471.573 150.18 469.221 150.18 466.44V461.4C150.18 459.571 150.516 457.919 151.188 456.444C151.879 454.951 152.849 453.691 154.1 452.664C155.369 451.637 156.863 450.909 158.58 450.48V452.86C157.385 453.14 156.349 453.681 155.472 454.484C154.595 455.268 153.913 456.248 153.428 457.424C152.943 458.6 152.7 459.925 152.7 461.4V466.44C152.7 467.877 152.933 469.184 153.4 470.36C153.885 471.536 154.567 472.516 155.444 473.3C156.34 474.065 157.385 474.588 158.58 474.868V477.36ZM165.009 477.36V474.868C166.222 474.588 167.268 474.065 168.145 473.3C169.022 472.516 169.694 471.536 170.161 470.36C170.646 469.184 170.889 467.877 170.889 466.44V461.4C170.889 459.925 170.646 458.6 170.161 457.424C169.676 456.248 168.994 455.268 168.117 454.484C167.24 453.681 166.204 453.14 165.009 452.86V450.48C166.745 450.909 168.238 451.637 169.489 452.664C170.74 453.691 171.701 454.951 172.373 456.444C173.064 457.919 173.409 459.571 173.409 461.4V466.44C173.409 469.221 172.672 471.573 171.197 473.496C169.722 475.419 167.66 476.707 165.009 477.36ZM183.338 478.48L185.578 469.772H189.218L185.578 478.48H183.338ZM186.698 462.52C186.082 462.52 185.578 462.324 185.186 461.932C184.794 461.54 184.598 461.036 184.598 460.42C184.598 459.823 184.794 459.328 185.186 458.936C185.597 458.525 186.101 458.32 186.698 458.32H187.258C187.855 458.32 188.35 458.525 188.742 458.936C189.153 459.328 189.358 459.823 189.358 460.42C189.358 461.036 189.162 461.54 188.77 461.932C188.378 462.324 187.874 462.52 187.258 462.52H186.698Z" fill="#F3E223"/>
</g>
<defs>
<filter id="filter0_f_10191_19327" x="388.73" y="94" width="423.539" height="356.953" filterUnits="userSpaceOnUse" color-interpolation-filters="sRGB">
<feFlood flood-opacity="0" result="BackgroundImageFix"/>
<feBlend mode="normal" in="SourceGraphic" in2="BackgroundImageFix" result="shape"/>
<feGaussianBlur stdDeviation="20" result="effect1_foregroundBlur_10191_19327"/>
</filter>
<linearGradient id="paint0_linear_10191_19327" x1="589" y1="-26.5" x2="587" y2="627" gradientUnits="userSpaceOnUse">
<stop stop-color="#FDEF00"/>
<stop offset="0.938633" stop-color="#FFFAA3"/>
</linearGradient>
<clipPath id="clip0_10191_19327">
<rect width="1200" height="515" fill="white"/>
</clipPath>
</defs>
</svg>
