<svg width="560" height="240" viewBox="0 0 560 240" fill="none" xmlns="http://www.w3.org/2000/svg">
<g clip-path="url(#clip0_10141_44782)">
<rect width="560" height="240" fill="#FFF100"/>
<g clip-path="url(#clip1_10141_44782)">
<rect width="560" height="240" fill="#FFF100"/>
<path d="M436.5 103L498.5 103C509.546 103 518.5 111.954 518.5 123L518.5 246.896C518.5 257.941 527.454 266.896 538.5 266.896L715 266.896C726.046 266.896 735 257.941 735 246.896L735 3.98244C735 -7.06326 726.046 -16.0176 715 -16.0176L436.5 -16.0175C425.454 -16.0175 416.5 -7.06325 416.5 3.98244L416.5 82.9998C416.5 94.0455 425.454 103 436.5 103Z" fill="#EDDD0C"/>
<path d="M-6.00012 -51L246.097 -51C257.299 -51 266.316 -41.8006 266.093 -30.6009L265.015 23.399C264.798 34.287 255.91 43 245.019 43L98.899 43C87.7467 43 78.7488 52.1215 78.9009 63.2728L80.2309 160.773C80.3801 171.711 89.2897 180.5 100.229 180.5L326.5 180.5C337.546 180.5 346.5 189.454 346.5 200.5L346.5 283C346.5 294.046 337.546 303 326.5 303L-6.00008 303C-17.0458 303 -26.0001 294.046 -26.0001 283L-26.0001 -31C-26.0001 -42.0457 -17.0458 -51 -6.00012 -51Z" fill="#EDDD0C"/>
<rect width="291" height="125" rx="20" transform="matrix(1 -2.3597e-08 -2.3597e-08 -1 476 62)" fill="#FFF100"/>
<rect width="265" height="145" rx="20" transform="matrix(1 -2.3597e-08 -2.3597e-08 -1 -227 271)" fill="#FFF100"/>
</g>
<path d="M234 153.5C215.467 153.5 200.5 138.533 200.5 120C200.5 101.467 215.467 86.5 234 86.5C252.533 86.5 267.5 101.467 267.5 120C267.5 138.533 252.533 153.5 234 153.5Z" fill="black"/>
<path d="M251.912 115.031H245.34V124.949H251.912C254.637 124.949 256.901 122.684 256.901 119.96C256.901 117.215 254.637 115.031 251.912 115.031Z" fill="#FFF100"/>
<path d="M213.141 120C213.141 127.654 219.372 133.885 227.026 133.885C234.68 133.885 240.911 127.654 240.911 120C240.911 112.346 234.68 106.115 227.026 106.115C219.372 106.115 213.141 112.346 213.141 120Z" fill="#FFF100"/>
<rect x="292.5" y="86.5" width="67" height="67" rx="33.5" fill="#0D0D0D"/>
<path d="M342.424 114.84C342.157 112.185 340.964 109.709 339.054 107.845L338.881 107.704C337.506 106.367 335.812 105.401 333.961 104.897C332.11 104.393 330.161 104.368 328.297 104.824C326.433 105.28 324.716 106.203 323.306 107.504C321.896 108.806 320.841 110.444 320.238 112.266C319.43 114.706 319.474 117.348 320.362 119.761L310.843 129.317C310.734 129.426 310.648 129.555 310.589 129.697C310.531 129.839 310.5 129.991 310.501 130.145V135.329C310.499 135.483 310.528 135.636 310.586 135.779C310.644 135.922 310.73 136.051 310.839 136.161C310.948 136.27 311.077 136.356 311.22 136.414C311.363 136.472 311.516 136.502 311.67 136.5H316.868C317.037 136.503 317.205 136.468 317.359 136.399C317.514 136.33 317.651 136.227 317.761 136.099C317.871 135.971 317.952 135.82 317.997 135.657C318.043 135.494 318.052 135.323 318.023 135.156L317.788 133.596L319.239 133.829C319.423 133.861 319.613 133.85 319.791 133.795C319.97 133.741 320.134 133.646 320.27 133.517L322.876 130.909C323.008 130.779 323.107 130.619 323.163 130.442C323.22 130.266 323.234 130.078 323.202 129.895L322.953 128.333L324.514 128.567C324.697 128.597 324.885 128.583 325.061 128.525C325.237 128.468 325.398 128.37 325.529 128.239L327.26 126.49C329.062 127.159 331.005 127.357 332.905 127.066C334.805 126.774 336.6 126.002 338.118 124.823C339.637 123.644 340.831 122.097 341.588 120.329C342.344 118.561 342.638 116.629 342.441 114.716L342.424 114.84ZM335.184 118.636C334.517 119.319 333.657 119.782 332.72 119.964C332.411 120.025 332.097 120.056 331.783 120.057C331.152 120.055 330.528 119.933 329.943 119.698C329.064 119.331 328.315 118.711 327.789 117.917C327.253 117.13 326.97 116.199 326.976 115.247C326.976 114.297 327.258 113.369 327.786 112.579C328.314 111.79 329.064 111.175 329.941 110.812C330.821 110.453 331.788 110.361 332.72 110.547C333.652 110.733 334.509 111.189 335.184 111.858C336.074 112.761 336.573 113.979 336.573 115.247C336.573 116.515 336.074 117.733 335.184 118.636Z" fill="#FFF100"/>
</g>
<defs>
<clipPath id="clip0_10141_44782">
<rect width="560" height="240" fill="white"/>
</clipPath>
<clipPath id="clip1_10141_44782">
<rect width="560" height="240" fill="white"/>
</clipPath>
</defs>
</svg>
