<svg width="560" height="240" viewBox="0 0 560 240" fill="none" xmlns="http://www.w3.org/2000/svg">
<g clip-path="url(#clip0_7666_36892)">
<rect width="560" height="240" fill="#FFF100"/>
<g clip-path="url(#clip1_7666_36892)">
<rect width="560" height="240" fill="#FFF100"/>
<path d="M436.5 103L498.5 103C509.546 103 518.5 111.954 518.5 123L518.5 246.896C518.5 257.941 527.454 266.896 538.5 266.896L715 266.896C726.046 266.896 735 257.941 735 246.896L735 3.98244C735 -7.06326 726.046 -16.0176 715 -16.0176L436.5 -16.0175C425.454 -16.0175 416.5 -7.06325 416.5 3.98244L416.5 82.9998C416.5 94.0455 425.454 103 436.5 103Z" fill="#EDDD0C"/>
<path d="M-6.00012 -51L246.097 -51C257.299 -51 266.316 -41.8006 266.093 -30.6009L265.015 23.399C264.798 34.287 255.91 43 245.019 43L98.899 43C87.7467 43 78.7488 52.1215 78.9009 63.2728L80.2309 160.773C80.3801 171.711 89.2897 180.5 100.229 180.5L326.5 180.5C337.546 180.5 346.5 189.454 346.5 200.5L346.5 283C346.5 294.046 337.546 303 326.5 303L-6.00008 303C-17.0458 303 -26.0001 294.046 -26.0001 283L-26.0001 -31C-26.0001 -42.0457 -17.0458 -51 -6.00012 -51Z" fill="#EDDD0C"/>
<rect width="291" height="125" rx="20" transform="matrix(1 -2.3597e-08 -2.3597e-08 -1 476 62)" fill="#FFF100"/>
<rect width="265" height="145" rx="20" transform="matrix(1 -2.3597e-08 -2.3597e-08 -1 -227 271)" fill="#FFF100"/>
</g>
<path d="M145.5 153.5C126.967 153.5 112 138.533 112 120C112 101.467 126.967 86.5 145.5 86.5C164.033 86.5 179 101.467 179 120C179 138.533 164.033 153.5 145.5 153.5Z" fill="#0D0D0D"/>
<path d="M163.412 115.03H156.84V124.948H163.412C166.137 124.948 168.401 122.684 168.401 119.959C168.401 117.214 166.137 115.03 163.412 115.03Z" fill="#FFF100"/>
<path d="M124.641 120C124.641 127.654 130.872 133.885 138.526 133.885C146.18 133.885 152.411 127.654 152.411 120C152.411 112.346 146.18 106.115 138.526 106.115C130.872 106.115 124.641 112.346 124.641 120Z" fill="#FFF100"/>
<rect x="204" y="86.5" width="67" height="67" rx="33.5" fill="#0D0D0D"/>
<path d="M254.089 115.64L251.458 114.074C250.226 113.338 249.464 111.981 249.464 110.514V107.382C249.464 106.741 249.181 106.136 248.699 105.733C247.264 104.537 245.649 103.567 243.903 102.873C243.321 102.642 242.671 102.688 242.133 103.008L239.497 104.578C238.265 105.314 236.746 105.314 235.511 104.578L232.875 103.008C232.337 102.688 231.683 102.638 231.105 102.873C229.355 103.567 227.744 104.537 226.313 105.729C225.831 106.132 225.548 106.736 225.548 107.378V110.51C225.548 111.977 224.79 113.334 223.554 114.069L220.923 115.636C220.385 115.956 220.018 116.511 219.922 117.144C219.775 118.077 219.703 119.031 219.703 120.001C219.703 120.971 219.775 121.925 219.918 122.853C220.014 123.487 220.381 124.046 220.919 124.366L223.55 125.932C224.782 126.668 225.544 128.024 225.544 129.492V132.624C225.544 133.265 225.827 133.869 226.309 134.272C227.74 135.464 229.355 136.434 231.101 137.129C231.683 137.359 232.333 137.314 232.871 136.993L235.507 135.423C236.739 134.688 238.257 134.688 239.493 135.423L242.129 136.993C242.667 137.314 243.321 137.359 243.899 137.129C245.645 136.434 247.26 135.464 248.691 134.272C249.173 133.869 249.456 133.265 249.456 132.624V129.492C249.456 128.024 250.218 126.668 251.45 125.932L254.081 124.366C254.619 124.046 254.986 123.491 255.082 122.853C255.221 121.925 255.297 120.971 255.297 120.001C255.297 119.031 255.225 118.077 255.082 117.148C254.99 116.515 254.627 115.96 254.089 115.64ZM237.504 131.029C231.6 131.029 226.812 126.093 226.812 120.005C226.812 113.917 231.6 108.981 237.504 108.981C243.408 108.981 248.196 113.917 248.196 120.005C248.196 126.093 243.408 131.029 237.504 131.029Z" fill="#FFF100"/>
<path d="M298.047 114.5V97.71H302.9C304.449 97.71 305.668 98.101 306.557 98.883C307.462 99.6497 307.914 100.708 307.914 102.057C307.914 102.931 307.638 103.713 307.086 104.403C306.549 105.078 305.852 105.492 304.993 105.645V105.714C305.637 105.791 306.204 106.021 306.695 106.404C307.201 106.787 307.592 107.278 307.868 107.876C308.159 108.459 308.305 109.103 308.305 109.808C308.305 111.249 307.845 112.392 306.925 113.235C306.02 114.078 304.786 114.5 303.222 114.5H298.047ZM300.278 104.794H302.877C303.736 104.794 304.41 104.572 304.901 104.127C305.392 103.667 305.637 103.046 305.637 102.264C305.637 101.467 305.392 100.846 304.901 100.401C304.41 99.941 303.743 99.711 302.9 99.711H300.278V104.794ZM300.278 112.499H303.015C303.95 112.499 304.686 112.254 305.223 111.763C305.76 111.257 306.028 110.575 306.028 109.716C306.028 108.827 305.76 108.106 305.223 107.554C304.686 107.002 303.95 106.726 303.015 106.726H300.278V112.499ZM311.7 114.5V112.43H316.139V103.92H312.16V101.85H318.416V112.43H322.579V114.5H311.7ZM317.059 99.619C316.538 99.619 316.124 99.4887 315.817 99.228C315.51 98.952 315.357 98.584 315.357 98.124C315.357 97.6487 315.51 97.273 315.817 96.997C316.124 96.721 316.538 96.583 317.059 96.583C317.58 96.583 317.994 96.721 318.301 96.997C318.608 97.273 318.761 97.6487 318.761 98.124C318.761 98.584 318.608 98.952 318.301 99.228C317.994 99.4887 317.58 99.619 317.059 99.619ZM327.239 118.64V116.616H330.804C331.494 116.616 332.046 116.417 332.46 116.018C332.874 115.635 333.081 115.106 333.081 114.431V113.373L333.127 111.188H333.104C332.951 111.97 332.575 112.576 331.977 113.005C331.394 113.434 330.643 113.649 329.723 113.649C328.42 113.649 327.392 113.235 326.641 112.407C325.89 111.564 325.514 110.414 325.514 108.957V106.358C325.514 104.901 325.89 103.751 326.641 102.908C327.392 102.049 328.42 101.62 329.723 101.62C330.612 101.62 331.348 101.835 331.931 102.264C332.529 102.693 332.912 103.284 333.081 104.035H333.104V101.85H335.335V114.454C335.335 115.742 334.929 116.762 334.116 117.513C333.303 118.264 332.199 118.64 330.804 118.64H327.239ZM330.436 111.74C331.249 111.74 331.893 111.487 332.368 110.981C332.843 110.475 333.081 109.762 333.081 108.842V106.473C333.081 105.568 332.843 104.863 332.368 104.357C331.893 103.851 331.249 103.598 330.436 103.598C329.593 103.598 328.941 103.843 328.481 104.334C328.021 104.809 327.791 105.461 327.791 106.289V109.049C327.791 109.877 328.021 110.536 328.481 111.027C328.941 111.502 329.593 111.74 330.436 111.74ZM353.188 114.5V97.71H357.696C358.785 97.71 359.728 97.9247 360.525 98.354C361.338 98.768 361.966 99.3583 362.411 100.125C362.856 100.876 363.078 101.766 363.078 102.793V109.394C363.078 110.421 362.856 111.318 362.411 112.085C361.966 112.852 361.338 113.45 360.525 113.879C359.728 114.293 358.785 114.5 357.696 114.5H353.188ZM355.465 112.476H357.696C358.662 112.476 359.421 112.2 359.973 111.648C360.525 111.096 360.801 110.345 360.801 109.394V102.793C360.801 101.842 360.525 101.099 359.973 100.562C359.421 100.01 358.662 99.734 357.696 99.734H355.465V112.476ZM370.682 114.73C369.379 114.73 368.344 114.37 367.577 113.649C366.826 112.913 366.45 111.955 366.45 110.774C366.45 109.593 366.841 108.643 367.623 107.922C368.42 107.201 369.463 106.841 370.751 106.841H374.454V105.875C374.454 104.326 373.595 103.552 371.878 103.552C371.111 103.552 370.49 103.698 370.015 103.989C369.555 104.265 369.31 104.656 369.279 105.162H367.025C367.102 104.135 367.569 103.291 368.428 102.632C369.287 101.957 370.437 101.62 371.878 101.62C373.427 101.62 374.623 101.988 375.466 102.724C376.309 103.46 376.731 104.495 376.731 105.829V114.5H374.5V112.177H374.454C374.347 112.959 373.956 113.58 373.281 114.04C372.622 114.5 371.755 114.73 370.682 114.73ZM371.28 112.821C372.246 112.821 373.013 112.591 373.58 112.131C374.163 111.656 374.454 111.012 374.454 110.199V108.52H370.958C370.299 108.52 369.762 108.719 369.348 109.118C368.949 109.501 368.75 110.015 368.75 110.659C368.75 111.318 368.972 111.847 369.417 112.246C369.862 112.629 370.483 112.821 371.28 112.821ZM386.911 114.5C385.822 114.5 384.956 114.186 384.312 113.557C383.683 112.928 383.369 112.093 383.369 111.05V103.92H379.758V101.85H383.369V98.285H385.646V101.85H390.775V103.92H385.646V111.027C385.646 111.441 385.761 111.778 385.991 112.039C386.236 112.3 386.558 112.43 386.957 112.43H390.66V114.5H386.911ZM398.264 114.73C396.961 114.73 395.926 114.37 395.159 113.649C394.408 112.913 394.032 111.955 394.032 110.774C394.032 109.593 394.423 108.643 395.205 107.922C396.002 107.201 397.045 106.841 398.333 106.841H402.036V105.875C402.036 104.326 401.177 103.552 399.46 103.552C398.693 103.552 398.072 103.698 397.597 103.989C397.137 104.265 396.892 104.656 396.861 105.162H394.607C394.684 104.135 395.151 103.291 396.01 102.632C396.869 101.957 398.019 101.62 399.46 101.62C401.009 101.62 402.205 101.988 403.048 102.724C403.891 103.46 404.313 104.495 404.313 105.829V114.5H402.082V112.177H402.036C401.929 112.959 401.538 113.58 400.863 114.04C400.204 114.5 399.337 114.73 398.264 114.73ZM398.862 112.821C399.828 112.821 400.595 112.591 401.162 112.131C401.745 111.656 402.036 111.012 402.036 110.199V108.52H398.54C397.881 108.52 397.344 108.719 396.93 109.118C396.531 109.501 396.332 110.015 396.332 110.659C396.332 111.318 396.554 111.847 396.999 112.246C397.444 112.629 398.065 112.821 398.862 112.821ZM302.9 142.684C301.351 142.684 300.117 142.239 299.197 141.35C298.292 140.461 297.84 139.219 297.84 137.624V134.726C297.84 133.131 298.292 131.889 299.197 131C300.117 130.111 301.351 129.666 302.9 129.666C304.449 129.666 305.675 130.111 306.58 131C307.5 131.889 307.96 133.131 307.96 134.726V137.624C307.96 139.219 307.5 140.461 306.58 141.35C305.675 142.239 304.449 142.684 302.9 142.684ZM302.9 140.683C303.759 140.683 304.433 140.445 304.924 139.97C305.43 139.479 305.683 138.766 305.683 137.831V134.519C305.683 133.584 305.43 132.878 304.924 132.403C304.433 131.912 303.759 131.667 302.9 131.667C302.041 131.667 301.359 131.912 300.853 132.403C300.362 132.878 300.117 133.584 300.117 134.519V137.831C300.117 138.766 300.362 139.479 300.853 139.97C301.359 140.445 302.041 140.683 302.9 140.683ZM311.815 142.5V129.85H314.069V132.265H314.092C314.199 131.437 314.544 130.793 315.127 130.333C315.725 129.858 316.507 129.62 317.473 129.62C318.73 129.62 319.735 130.019 320.486 130.816C321.237 131.613 321.613 132.687 321.613 134.036V142.5H319.336V134.404C319.336 133.484 319.106 132.779 318.646 132.288C318.186 131.797 317.557 131.552 316.76 131.552C315.932 131.552 315.28 131.813 314.805 132.334C314.33 132.84 314.092 133.553 314.092 134.473V142.5H311.815ZM345.538 142.5C344.449 142.5 343.583 142.186 342.939 141.557C342.31 140.928 341.996 140.093 341.996 139.05V131.92H338.385V129.85H341.996V126.285H344.273V129.85H349.402V131.92H344.273V139.027C344.273 139.441 344.388 139.778 344.618 140.039C344.863 140.3 345.185 140.43 345.584 140.43H349.287V142.5H345.538ZM353.188 142.5V125.71H355.465V129.85L355.442 132.265H355.465C355.572 131.437 355.917 130.793 356.5 130.333C357.098 129.858 357.88 129.62 358.846 129.62C360.103 129.62 361.108 130.019 361.859 130.816C362.61 131.613 362.986 132.687 362.986 134.036V142.5H360.709V134.381C360.709 133.476 360.479 132.779 360.019 132.288C359.559 131.797 358.93 131.552 358.133 131.552C357.305 131.552 356.653 131.813 356.178 132.334C355.703 132.84 355.465 133.553 355.465 134.473V142.5H353.188ZM371.855 142.73C370.337 142.73 369.11 142.278 368.175 141.373C367.255 140.468 366.795 139.234 366.795 137.67V134.68C366.795 133.116 367.255 131.882 368.175 130.977C369.11 130.072 370.337 129.62 371.855 129.62C372.867 129.62 373.749 129.827 374.5 130.241C375.267 130.64 375.857 131.207 376.271 131.943C376.7 132.664 376.915 133.507 376.915 134.473V136.75H369.026V137.854C369.026 138.774 369.279 139.495 369.785 140.016C370.291 140.537 370.981 140.798 371.855 140.798C372.591 140.798 373.197 140.66 373.672 140.384C374.147 140.108 374.431 139.725 374.523 139.234H376.8C376.647 140.307 376.118 141.158 375.213 141.787C374.308 142.416 373.189 142.73 371.855 142.73ZM369.026 134.473V135.071H374.684V134.473C374.684 133.507 374.439 132.763 373.948 132.242C373.457 131.721 372.76 131.46 371.855 131.46C370.95 131.46 370.253 131.721 369.762 132.242C369.271 132.763 369.026 133.507 369.026 134.473ZM393.848 142.5V129.85H395.78V131.575H395.849C395.91 130.992 396.125 130.525 396.493 130.172C396.876 129.804 397.359 129.62 397.942 129.62C398.509 129.62 398.985 129.789 399.368 130.126C399.751 130.463 400.027 130.916 400.196 131.483C400.288 130.9 400.526 130.448 400.909 130.126C401.292 129.789 401.775 129.62 402.358 129.62C403.155 129.62 403.799 129.927 404.29 130.54C404.781 131.138 405.026 131.92 405.026 132.886V142.5H402.956V132.909C402.956 132.434 402.833 132.058 402.588 131.782C402.358 131.491 402.044 131.345 401.645 131.345C401.246 131.345 400.932 131.483 400.702 131.759C400.472 132.035 400.357 132.418 400.357 132.909V142.5H398.517V132.909C398.517 132.434 398.402 132.058 398.172 131.782C397.942 131.491 397.628 131.345 397.229 131.345C396.83 131.345 396.508 131.483 396.263 131.759C396.033 132.035 395.918 132.418 395.918 132.909V142.5H393.848ZM413.228 142.684C411.679 142.684 410.445 142.239 409.525 141.35C408.62 140.461 408.168 139.219 408.168 137.624V134.726C408.168 133.131 408.62 131.889 409.525 131C410.445 130.111 411.679 129.666 413.228 129.666C414.777 129.666 416.003 130.111 416.908 131C417.828 131.889 418.288 133.131 418.288 134.726V137.624C418.288 139.219 417.828 140.461 416.908 141.35C416.003 142.239 414.777 142.684 413.228 142.684ZM413.228 140.683C414.087 140.683 414.761 140.445 415.252 139.97C415.758 139.479 416.011 138.766 416.011 137.831V134.519C416.011 133.584 415.758 132.878 415.252 132.403C414.761 131.912 414.087 131.667 413.228 131.667C412.369 131.667 411.687 131.912 411.181 132.403C410.69 132.878 410.445 133.584 410.445 134.519V137.831C410.445 138.766 410.69 139.479 411.181 139.97C411.687 140.445 412.369 140.683 413.228 140.683ZM425.547 142.5L421.269 129.85H423.684L426.375 138.153C426.528 138.644 426.666 139.127 426.789 139.602C426.912 140.062 427.004 140.43 427.065 140.706C427.126 140.43 427.211 140.062 427.318 139.602C427.425 139.127 427.556 138.644 427.709 138.153L430.377 129.85H432.792L428.491 142.5H425.547ZM440.81 142.73C439.292 142.73 438.065 142.278 437.13 141.373C436.21 140.468 435.75 139.234 435.75 137.67V134.68C435.75 133.116 436.21 131.882 437.13 130.977C438.065 130.072 439.292 129.62 440.81 129.62C441.822 129.62 442.704 129.827 443.455 130.241C444.222 130.64 444.812 131.207 445.226 131.943C445.655 132.664 445.87 133.507 445.87 134.473V136.75H437.981V137.854C437.981 138.774 438.234 139.495 438.74 140.016C439.246 140.537 439.936 140.798 440.81 140.798C441.546 140.798 442.152 140.66 442.627 140.384C443.102 140.108 443.386 139.725 443.478 139.234H445.755C445.602 140.307 445.073 141.158 444.168 141.787C443.263 142.416 442.144 142.73 440.81 142.73ZM437.981 134.473V135.071H443.639V134.473C443.639 133.507 443.394 132.763 442.903 132.242C442.412 131.721 441.715 131.46 440.81 131.46C439.905 131.46 439.208 131.721 438.717 132.242C438.226 132.763 437.981 133.507 437.981 134.473Z" fill="black"/>
</g>
<defs>
<clipPath id="clip0_7666_36892">
<rect width="560" height="240" fill="white"/>
</clipPath>
<clipPath id="clip1_7666_36892">
<rect width="560" height="240" fill="white"/>
</clipPath>
</defs>
</svg>
