<svg width="560" height="240" viewBox="0 0 560 240" fill="none" xmlns="http://www.w3.org/2000/svg">
<g clip-path="url(#clip0_7457_12485)">
<rect width="560" height="240" fill="#FFF100"/>
<g clip-path="url(#clip1_7457_12485)">
<rect width="560" height="240" fill="#FFF100"/>
<path d="M515.501 253L515.501 97.5C515.501 86.4543 506.546 77.5 495.501 77.5L337 77.5001C325.954 77.5001 317 68.5458 317 57.5001L317 -29C317 -40.0457 325.954 -49 337 -49L579.913 -49C590.959 -49 599.913 -40.0457 599.913 -29L599.913 253C599.913 264.046 590.959 273 579.913 273L535.501 273C524.455 273 515.501 264.046 515.501 253Z" fill="#EDDD0C"/>
<path d="M261 188.299L261 261C261 272.046 252.046 281 241 281L0.999991 281C-10.0457 281 -19 272.046 -19 261L-19 55C-19 43.9543 -10.0457 35 0.999969 35L28.651 35C39.6967 35 48.651 43.9543 48.651 55L48.651 148.299C48.651 159.345 57.6053 168.299 68.651 168.299L241 168.299C252.046 168.299 261 177.253 261 188.299Z" fill="#EDDD0C"/>
<rect width="199" height="153" rx="20" transform="matrix(-1 0 0 1 121 196)" fill="#FFF100"/>
</g>
<path d="M152.5 153.5C133.967 153.5 119 138.533 119 120C119 101.467 133.967 86.5 152.5 86.5C171.033 86.5 186 101.467 186 120C186 138.533 171.033 153.5 152.5 153.5Z" fill="#0D0D0D"/>
<path d="M170.412 115.03H163.84V124.948H170.412C173.137 124.948 175.401 122.684 175.401 119.959C175.401 117.214 173.137 115.03 170.412 115.03Z" fill="#FFF100"/>
<path d="M131.641 120C131.641 127.654 137.872 133.885 145.526 133.885C153.18 133.885 159.411 127.654 159.411 120C159.411 112.346 153.18 106.115 145.526 106.115C137.872 106.115 131.641 112.346 131.641 120Z" fill="#FFF100"/>
<rect x="211" y="86.5" width="67" height="67" rx="33.5" fill="#0D0D0D"/>
<path d="M261.089 115.64L258.458 114.074C257.226 113.338 256.464 111.981 256.464 110.514V107.382C256.464 106.741 256.181 106.136 255.699 105.733C254.264 104.537 252.649 103.567 250.903 102.873C250.321 102.642 249.671 102.688 249.133 103.008L246.497 104.578C245.265 105.314 243.746 105.314 242.511 104.578L239.875 103.008C239.337 102.688 238.683 102.638 238.105 102.873C236.355 103.567 234.744 104.537 233.313 105.729C232.831 106.132 232.548 106.736 232.548 107.378V110.51C232.548 111.977 231.79 113.334 230.554 114.069L227.923 115.636C227.385 115.956 227.018 116.511 226.922 117.144C226.775 118.077 226.703 119.031 226.703 120.001C226.703 120.971 226.775 121.925 226.918 122.853C227.014 123.487 227.381 124.046 227.919 124.366L230.55 125.932C231.782 126.668 232.544 128.024 232.544 129.492V132.624C232.544 133.265 232.827 133.869 233.309 134.272C234.74 135.464 236.355 136.434 238.101 137.129C238.683 137.359 239.333 137.314 239.871 136.993L242.507 135.423C243.739 134.688 245.257 134.688 246.493 135.423L249.129 136.993C249.667 137.314 250.321 137.359 250.899 137.129C252.645 136.434 254.26 135.464 255.691 134.272C256.173 133.869 256.456 133.265 256.456 132.624V129.492C256.456 128.024 257.218 126.668 258.45 125.932L261.081 124.366C261.619 124.046 261.986 123.491 262.082 122.853C262.221 121.925 262.297 120.971 262.297 120.001C262.297 119.031 262.225 118.077 262.082 117.148C261.99 116.515 261.627 115.96 261.089 115.64ZM244.504 131.029C238.6 131.029 233.812 126.093 233.812 120.005C233.812 113.917 238.6 108.981 244.504 108.981C250.408 108.981 255.196 113.917 255.196 120.005C255.196 126.093 250.408 131.029 244.504 131.029Z" fill="#FFF100"/>
<path d="M305.046 97.917H315.235V100.217H307.53V104.955H314.637V107.255H307.576V114.5H305.046V97.917ZM321.574 101.85V104.035H321.781C321.95 103.268 322.341 102.678 322.954 102.264C323.583 101.835 324.365 101.62 325.3 101.62C326.649 101.62 327.707 102.042 328.474 102.885C329.241 103.713 329.624 104.871 329.624 106.358V107.186H327.025V106.611C327.025 105.722 326.787 105.032 326.312 104.541C325.837 104.035 325.185 103.782 324.357 103.782C323.544 103.782 322.9 104.035 322.425 104.541C321.95 105.047 321.712 105.737 321.712 106.611V114.5H319.182V101.85H321.574ZM331.915 110.889C331.915 109.662 332.337 108.689 333.18 107.968C334.039 107.247 335.196 106.887 336.653 106.887H340.08V105.829C340.08 105.154 339.842 104.633 339.367 104.265C338.907 103.882 338.248 103.69 337.389 103.69C336.73 103.69 336.17 103.813 335.71 104.058C335.25 104.288 334.943 104.618 334.79 105.047H332.306C332.505 103.989 333.065 103.153 333.985 102.54C334.905 101.927 336.047 101.62 337.412 101.62C339.022 101.62 340.287 101.988 341.207 102.724C342.142 103.46 342.61 104.472 342.61 105.76V114.5H340.264V112.039H340.08C339.911 112.867 339.459 113.526 338.723 114.017C338.002 114.492 337.105 114.73 336.032 114.73C334.775 114.73 333.77 114.385 333.019 113.695C332.283 112.99 331.915 112.054 331.915 110.889ZM334.445 110.682C334.445 111.326 334.652 111.824 335.066 112.177C335.48 112.53 336.063 112.706 336.814 112.706C337.289 112.706 337.726 112.645 338.125 112.522C338.524 112.399 338.869 112.231 339.16 112.016C339.451 111.786 339.674 111.525 339.827 111.234C339.996 110.927 340.08 110.598 340.08 110.245V108.658H336.676C335.986 108.658 335.442 108.834 335.043 109.187C334.644 109.54 334.445 110.038 334.445 110.682ZM345.683 114.5V101.85H347.776V103.713H347.96C348.006 103.054 348.205 102.54 348.558 102.172C348.926 101.804 349.417 101.62 350.03 101.62C350.613 101.62 351.073 101.796 351.41 102.149C351.747 102.502 351.993 103.023 352.146 103.713H352.307C352.353 103.054 352.56 102.54 352.928 102.172C353.296 101.804 353.794 101.62 354.423 101.62C355.19 101.62 355.803 101.911 356.263 102.494C356.738 103.061 356.976 103.851 356.976 104.863V114.5H354.653V104.978C354.653 104.487 354.553 104.112 354.354 103.851C354.155 103.59 353.863 103.46 353.48 103.46C352.667 103.46 352.261 103.997 352.261 105.07V114.5H350.398V104.978C350.398 104.487 350.291 104.112 350.076 103.851C349.861 103.59 349.555 103.46 349.156 103.46C348.359 103.46 347.96 103.997 347.96 105.07V114.5H345.683ZM359.796 106.519C359.796 105.768 359.919 105.093 360.164 104.495C360.409 103.882 360.762 103.368 361.222 102.954C361.682 102.525 362.242 102.195 362.901 101.965C363.56 101.735 364.296 101.62 365.109 101.62C365.922 101.62 366.65 101.735 367.294 101.965C367.953 102.195 368.513 102.525 368.973 102.954C369.433 103.368 369.786 103.882 370.031 104.495C370.276 105.093 370.399 105.768 370.399 106.519V108.842H362.303V109.739C362.303 110.644 362.548 111.349 363.039 111.855C363.545 112.361 364.235 112.614 365.109 112.614C365.753 112.614 366.313 112.514 366.788 112.315C367.263 112.116 367.608 111.817 367.823 111.418H370.307C370.169 111.924 369.947 112.384 369.64 112.798C369.333 113.197 368.95 113.542 368.49 113.833C368.045 114.124 367.532 114.347 366.949 114.5C366.382 114.653 365.768 114.73 365.109 114.73C364.296 114.73 363.56 114.615 362.901 114.385C362.257 114.155 361.705 113.825 361.245 113.396C360.785 112.967 360.425 112.453 360.164 111.855C359.919 111.242 359.796 110.559 359.796 109.808V106.519ZM362.303 107.002H367.915V106.519C367.915 105.645 367.67 104.963 367.179 104.472C366.688 103.981 365.998 103.736 365.109 103.736C364.22 103.736 363.53 103.981 363.039 104.472C362.548 104.963 362.303 105.645 362.303 106.519V107.002ZM374.622 101.85L375.68 110.061C375.711 110.322 375.734 110.628 375.749 110.981C375.78 111.334 375.81 111.671 375.841 111.993C375.872 112.376 375.902 112.76 375.933 113.143H376.186C376.232 112.76 376.278 112.376 376.324 111.993C376.355 111.671 376.393 111.334 376.439 110.981C376.485 110.628 376.531 110.322 376.577 110.061L377.865 101.85H379.912L381.223 110.061C381.269 110.337 381.307 110.651 381.338 111.004C381.384 111.357 381.422 111.694 381.453 112.016C381.499 112.384 381.537 112.76 381.568 113.143H381.844C381.875 112.76 381.905 112.384 381.936 112.016C381.967 111.694 381.997 111.357 382.028 111.004C382.074 110.636 382.112 110.322 382.143 110.061L383.201 101.85H385.271L383.5 114.5H380.441L379.199 105.99C379.168 105.745 379.138 105.469 379.107 105.162C379.092 104.855 379.076 104.572 379.061 104.311C379.061 104.004 379.061 103.69 379.061 103.368H378.762C378.762 103.69 378.754 104.004 378.739 104.311C378.724 104.572 378.701 104.855 378.67 105.162C378.655 105.469 378.632 105.745 378.601 105.99L377.29 114.5H374.277L372.529 101.85H374.622ZM392.691 114.73C391.878 114.73 391.142 114.615 390.483 114.385C389.839 114.14 389.287 113.802 388.827 113.373C388.367 112.928 388.007 112.399 387.746 111.786C387.501 111.173 387.378 110.49 387.378 109.739V106.588C387.378 105.837 387.501 105.154 387.746 104.541C388.007 103.928 388.367 103.406 388.827 102.977C389.287 102.532 389.839 102.195 390.483 101.965C391.142 101.72 391.878 101.597 392.691 101.597C393.504 101.597 394.232 101.712 394.876 101.942C395.535 102.172 396.095 102.509 396.555 102.954C397.015 103.383 397.368 103.905 397.613 104.518C397.874 105.116 398.004 105.798 398.004 106.565V109.739C398.004 110.49 397.881 111.18 397.636 111.809C397.391 112.422 397.038 112.944 396.578 113.373C396.118 113.802 395.558 114.14 394.899 114.385C394.24 114.615 393.504 114.73 392.691 114.73ZM389.908 109.739C389.908 110.598 390.153 111.272 390.644 111.763C391.135 112.254 391.817 112.499 392.691 112.499C393.55 112.499 394.224 112.254 394.715 111.763C395.221 111.272 395.474 110.598 395.474 109.739V106.588C395.474 105.729 395.221 105.055 394.715 104.564C394.224 104.073 393.55 103.828 392.691 103.828C391.832 103.828 391.15 104.073 390.644 104.564C390.153 105.055 389.908 105.729 389.908 106.588V109.739ZM404.32 101.85V104.035H404.527C404.696 103.268 405.087 102.678 405.7 102.264C406.329 101.835 407.111 101.62 408.046 101.62C409.395 101.62 410.453 102.042 411.22 102.885C411.987 103.713 412.37 104.871 412.37 106.358V107.186H409.771V106.611C409.771 105.722 409.533 105.032 409.058 104.541C408.583 104.035 407.931 103.782 407.103 103.782C406.29 103.782 405.646 104.035 405.171 104.541C404.696 105.047 404.458 105.737 404.458 106.611V114.5H401.928V101.85H404.32ZM415.328 97.94H417.858V106.979H420.089L423.562 101.85H426.414L422.251 107.991L426.483 114.5H423.562L420.089 109.164H417.858V114.5H415.328V97.94ZM307.921 125.94V140.177H315.396V142.5H305.391V125.94H307.921ZM318.124 138.889C318.124 137.662 318.546 136.689 319.389 135.968C320.248 135.247 321.405 134.887 322.862 134.887H326.289V133.829C326.289 133.154 326.051 132.633 325.576 132.265C325.116 131.882 324.457 131.69 323.598 131.69C322.939 131.69 322.379 131.813 321.919 132.058C321.459 132.288 321.152 132.618 320.999 133.047H318.515C318.714 131.989 319.274 131.153 320.194 130.54C321.114 129.927 322.256 129.62 323.621 129.62C325.231 129.62 326.496 129.988 327.416 130.724C328.351 131.46 328.819 132.472 328.819 133.76V142.5H326.473V140.039H326.289C326.12 140.867 325.668 141.526 324.932 142.017C324.211 142.492 323.314 142.73 322.241 142.73C320.984 142.73 319.979 142.385 319.228 141.695C318.492 140.99 318.124 140.054 318.124 138.889ZM320.654 138.682C320.654 139.326 320.861 139.824 321.275 140.177C321.689 140.53 322.272 140.706 323.023 140.706C323.498 140.706 323.935 140.645 324.334 140.522C324.733 140.399 325.078 140.231 325.369 140.016C325.66 139.786 325.883 139.525 326.036 139.234C326.205 138.927 326.289 138.598 326.289 138.245V136.658H322.885C322.195 136.658 321.651 136.834 321.252 137.187C320.853 137.54 320.654 138.038 320.654 138.682ZM332.467 129.85H334.882V132.035H335.066C335.235 131.268 335.618 130.678 336.216 130.264C336.829 129.835 337.596 129.62 338.516 129.62C339.16 129.62 339.75 129.735 340.287 129.965C340.824 130.195 341.276 130.525 341.644 130.954C342.027 131.383 342.319 131.905 342.518 132.518C342.733 133.116 342.84 133.798 342.84 134.565V137.739C342.84 138.506 342.733 139.203 342.518 139.832C342.319 140.445 342.027 140.967 341.644 141.396C341.276 141.825 340.824 142.155 340.287 142.385C339.75 142.615 339.16 142.73 338.516 142.73C337.596 142.73 336.829 142.523 336.216 142.109C335.618 141.68 335.235 141.082 335.066 140.315H334.882C334.882 140.33 334.89 140.415 334.905 140.568C334.92 140.721 334.928 140.905 334.928 141.12C334.943 141.335 334.959 141.565 334.974 141.81C334.989 142.055 334.997 142.285 334.997 142.5V146.41H332.467V129.85ZM334.997 134.611V137.739C334.997 138.582 335.227 139.257 335.687 139.763C336.162 140.269 336.799 140.522 337.596 140.522C338.439 140.522 339.099 140.269 339.574 139.763C340.065 139.257 340.31 138.575 340.31 137.716V134.611C340.31 133.737 340.065 133.055 339.574 132.564C339.099 132.058 338.439 131.805 337.596 131.805C336.814 131.805 336.185 132.058 335.71 132.564C335.235 133.07 334.997 133.752 334.997 134.611ZM345.614 129.85H349.179V125.94H351.709V129.85H356.562V132.127H351.709V138.866C351.709 139.28 351.832 139.61 352.077 139.855C352.322 140.085 352.667 140.2 353.112 140.2H356.332V142.5H352.997C351.816 142.5 350.881 142.17 350.191 141.511C349.516 140.852 349.179 139.97 349.179 138.866V132.127H345.614V129.85ZM365.109 142.73C364.296 142.73 363.56 142.615 362.901 142.385C362.257 142.14 361.705 141.802 361.245 141.373C360.785 140.928 360.425 140.399 360.164 139.786C359.919 139.173 359.796 138.49 359.796 137.739V134.588C359.796 133.837 359.919 133.154 360.164 132.541C360.425 131.928 360.785 131.406 361.245 130.977C361.705 130.532 362.257 130.195 362.901 129.965C363.56 129.72 364.296 129.597 365.109 129.597C365.922 129.597 366.65 129.712 367.294 129.942C367.953 130.172 368.513 130.509 368.973 130.954C369.433 131.383 369.786 131.905 370.031 132.518C370.292 133.116 370.422 133.798 370.422 134.565V137.739C370.422 138.49 370.299 139.18 370.054 139.809C369.809 140.422 369.456 140.944 368.996 141.373C368.536 141.802 367.976 142.14 367.317 142.385C366.658 142.615 365.922 142.73 365.109 142.73ZM362.326 137.739C362.326 138.598 362.571 139.272 363.062 139.763C363.553 140.254 364.235 140.499 365.109 140.499C365.968 140.499 366.642 140.254 367.133 139.763C367.639 139.272 367.892 138.598 367.892 137.739V134.588C367.892 133.729 367.639 133.055 367.133 132.564C366.642 132.073 365.968 131.828 365.109 131.828C364.25 131.828 363.568 132.073 363.062 132.564C362.571 133.055 362.326 133.729 362.326 134.588V137.739ZM373.84 129.85H376.255V132.035H376.439C376.608 131.268 376.991 130.678 377.589 130.264C378.202 129.835 378.969 129.62 379.889 129.62C380.533 129.62 381.123 129.735 381.66 129.965C382.197 130.195 382.649 130.525 383.017 130.954C383.4 131.383 383.692 131.905 383.891 132.518C384.106 133.116 384.213 133.798 384.213 134.565V137.739C384.213 138.506 384.106 139.203 383.891 139.832C383.692 140.445 383.4 140.967 383.017 141.396C382.649 141.825 382.197 142.155 381.66 142.385C381.123 142.615 380.533 142.73 379.889 142.73C378.969 142.73 378.202 142.523 377.589 142.109C376.991 141.68 376.608 141.082 376.439 140.315H376.255C376.255 140.33 376.263 140.415 376.278 140.568C376.293 140.721 376.301 140.905 376.301 141.12C376.316 141.335 376.332 141.565 376.347 141.81C376.362 142.055 376.37 142.285 376.37 142.5V146.41H373.84V129.85ZM376.37 134.611V137.739C376.37 138.582 376.6 139.257 377.06 139.763C377.535 140.269 378.172 140.522 378.969 140.522C379.812 140.522 380.472 140.269 380.947 139.763C381.438 139.257 381.683 138.575 381.683 137.716V134.611C381.683 133.737 381.438 133.055 380.947 132.564C380.472 132.058 379.812 131.805 378.969 131.805C378.187 131.805 377.558 132.058 377.083 132.564C376.608 133.07 376.37 133.752 376.37 134.611ZM401.491 140.269H405.93V129.643C405.93 129.244 405.938 128.892 405.953 128.585C405.984 128.263 405.999 128.094 405.999 128.079H405.953C405.861 128.171 405.761 128.263 405.654 128.355C405.562 128.432 405.462 128.516 405.355 128.608C405.248 128.685 405.133 128.761 405.01 128.838L401.767 131V128.516L405.447 125.94H408.46V140.269H412.117V142.5H401.491V140.269ZM420.181 142.73C419.43 142.73 418.732 142.63 418.088 142.431C417.444 142.216 416.884 141.917 416.409 141.534C415.949 141.135 415.573 140.66 415.282 140.108C414.991 139.556 414.814 138.935 414.753 138.245H417.283C417.406 138.935 417.728 139.495 418.249 139.924C418.77 140.338 419.414 140.545 420.181 140.545C421.07 140.545 421.783 140.277 422.32 139.74C422.857 139.203 423.125 138.49 423.125 137.601C423.125 136.712 422.849 135.999 422.297 135.462C421.745 134.91 421.009 134.634 420.089 134.634H418.111V132.15L421.032 129.275C421.201 129.106 421.377 128.953 421.561 128.815C421.745 128.677 421.921 128.547 422.09 128.424C422.274 128.301 422.458 128.179 422.642 128.056V127.964C422.458 127.995 422.259 128.018 422.044 128.033C421.86 128.064 421.645 128.087 421.4 128.102C421.17 128.117 420.925 128.125 420.664 128.125H415.374V125.94H424.919V128.493L421.331 131.782C421.208 131.874 421.093 131.966 420.986 132.058C420.879 132.135 420.779 132.211 420.687 132.288C420.58 132.365 420.48 132.434 420.388 132.495C421.201 132.51 421.929 132.648 422.573 132.909C423.217 133.154 423.769 133.499 424.229 133.944C424.689 134.389 425.042 134.918 425.287 135.531C425.532 136.144 425.655 136.834 425.655 137.601C425.655 138.383 425.525 139.088 425.264 139.717C425.003 140.346 424.635 140.89 424.16 141.35C423.685 141.795 423.11 142.14 422.435 142.385C421.76 142.615 421.009 142.73 420.181 142.73ZM435.191 125.71H437.813V129.229L437.56 132.61H435.49L435.191 129.229V125.71ZM430.315 129.229V125.71H432.937V129.229L432.661 132.61H430.614L430.315 129.229Z" fill="black"/>
</g>
<defs>
<clipPath id="clip0_7457_12485">
<rect width="560" height="240" fill="white"/>
</clipPath>
<clipPath id="clip1_7457_12485">
<rect width="560" height="240" fill="white"/>
</clipPath>
</defs>
</svg>
