<svg width="560" height="240" viewBox="0 0 560 240" fill="none" xmlns="http://www.w3.org/2000/svg">
<g clip-path="url(#clip0_7457_12485)">
<rect width="560" height="240" fill="#FFF100"/>
<g clip-path="url(#clip1_7457_12485)">
<rect width="560" height="240" transform="translate(140 120)" fill="#FFF100"/>
<path d="M655.501 373L655.501 217.5C655.501 206.454 646.546 197.5 635.501 197.5L477 197.5C465.954 197.5 457 188.546 457 177.5L457 91C457 79.9543 465.954 71 477 71L719.913 71C730.959 71 739.913 79.9543 739.913 91L739.913 373C739.913 384.046 730.959 393 719.913 393L675.501 393C664.455 393 655.501 384.046 655.501 373Z" fill="#EDDD0C"/>
<path d="M401 308.299L401 381C401 392.046 392.046 401 381 401L141 401C129.954 401 121 392.046 121 381L121 175C121 163.954 129.954 155 141 155L168.651 155C179.697 155 188.651 163.954 188.651 175L188.651 268.299C188.651 279.345 197.605 288.299 208.651 288.299L381 288.299C392.046 288.299 401 297.253 401 308.299Z" fill="#EDDD0C"/>
</g>
<path d="M152.5 153.5C133.967 153.5 119 138.533 119 120C119 101.467 133.967 86.5 152.5 86.5C171.033 86.5 186 101.467 186 120C186 138.533 171.033 153.5 152.5 153.5Z" fill="#0D0D0D"/>
<path d="M170.412 115.03H163.84V124.948H170.412C173.137 124.948 175.401 122.684 175.401 119.959C175.401 117.214 173.137 115.03 170.412 115.03Z" fill="#FFF100"/>
<path d="M131.641 120C131.641 127.654 137.872 133.885 145.526 133.885C153.18 133.885 159.411 127.654 159.411 120C159.411 112.346 153.18 106.115 145.526 106.115C137.872 106.115 131.641 112.346 131.641 120Z" fill="#FFF100"/>
<rect x="211" y="86.5" width="67" height="67" rx="33.5" fill="#0D0D0D"/>
<path d="M261.089 115.64L258.458 114.074C257.226 113.338 256.464 111.981 256.464 110.514V107.382C256.464 106.741 256.181 106.136 255.699 105.733C254.264 104.537 252.649 103.567 250.903 102.873C250.321 102.642 249.671 102.688 249.133 103.008L246.497 104.578C245.265 105.314 243.746 105.314 242.511 104.578L239.875 103.008C239.337 102.688 238.683 102.638 238.105 102.873C236.355 103.567 234.744 104.537 233.313 105.729C232.831 106.132 232.548 106.736 232.548 107.378V110.51C232.548 111.977 231.79 113.334 230.554 114.069L227.923 115.636C227.385 115.956 227.018 116.511 226.922 117.144C226.775 118.077 226.703 119.031 226.703 120.001C226.703 120.971 226.775 121.925 226.918 122.853C227.014 123.487 227.381 124.046 227.919 124.366L230.55 125.932C231.782 126.668 232.544 128.024 232.544 129.492V132.624C232.544 133.265 232.827 133.869 233.309 134.272C234.74 135.464 236.355 136.434 238.101 137.129C238.683 137.359 239.333 137.314 239.871 136.993L242.507 135.423C243.739 134.688 245.257 134.688 246.493 135.423L249.129 136.993C249.667 137.314 250.321 137.359 250.899 137.129C252.645 136.434 254.26 135.464 255.691 134.272C256.173 133.869 256.456 133.265 256.456 132.624V129.492C256.456 128.024 257.218 126.668 258.45 125.932L261.081 124.366C261.619 124.046 261.986 123.491 262.082 122.853C262.221 121.925 262.297 120.971 262.297 120.001C262.297 119.031 262.225 118.077 262.082 117.148C261.99 116.515 261.627 115.96 261.089 115.64ZM244.504 131.029C238.6 131.029 233.812 126.093 233.812 120.005C233.812 113.917 238.6 108.981 244.504 108.981C250.408 108.981 255.196 113.917 255.196 120.005C255.196 126.093 250.408 131.029 244.504 131.029Z" fill="#FFF100"/>
<path d="M305.093 114.5V97.71H315.121V99.803H307.324V105.093H314.523V107.163H307.37V114.5H305.093ZM319.275 114.5V101.85H321.529V104.288H321.552C321.675 103.46 322.027 102.808 322.61 102.333C323.208 101.858 323.998 101.62 324.979 101.62C326.282 101.62 327.294 102.026 328.015 102.839C328.736 103.636 329.096 104.763 329.096 106.22V107.324H326.819V106.243C326.819 104.48 325.953 103.598 324.22 103.598C323.346 103.598 322.679 103.851 322.219 104.357C321.774 104.863 321.552 105.584 321.552 106.519V114.5H319.275ZM336.309 114.73C335.006 114.73 333.971 114.37 333.204 113.649C332.453 112.913 332.077 111.955 332.077 110.774C332.077 109.593 332.468 108.643 333.25 107.922C334.047 107.201 335.09 106.841 336.378 106.841H340.081V105.875C340.081 104.326 339.222 103.552 337.505 103.552C336.738 103.552 336.117 103.698 335.642 103.989C335.182 104.265 334.937 104.656 334.906 105.162H332.652C332.729 104.135 333.196 103.291 334.055 102.632C334.914 101.957 336.064 101.62 337.505 101.62C339.054 101.62 340.25 101.988 341.093 102.724C341.936 103.46 342.358 104.495 342.358 105.829V114.5H340.127V112.177H340.081C339.974 112.959 339.583 113.58 338.908 114.04C338.249 114.5 337.382 114.73 336.309 114.73ZM336.907 112.821C337.873 112.821 338.64 112.591 339.207 112.131C339.79 111.656 340.081 111.012 340.081 110.199V108.52H336.585C335.926 108.52 335.389 108.719 334.975 109.118C334.576 109.501 334.377 110.015 334.377 110.659C334.377 111.318 334.599 111.847 335.044 112.246C335.489 112.629 336.11 112.821 336.907 112.821ZM345.684 114.5V101.85H347.616V103.575H347.685C347.746 102.992 347.961 102.525 348.329 102.172C348.712 101.804 349.195 101.62 349.778 101.62C350.345 101.62 350.821 101.789 351.204 102.126C351.587 102.463 351.863 102.916 352.032 103.483C352.124 102.9 352.362 102.448 352.745 102.126C353.128 101.789 353.611 101.62 354.194 101.62C354.991 101.62 355.635 101.927 356.126 102.54C356.617 103.138 356.862 103.92 356.862 104.886V114.5H354.792V104.909C354.792 104.434 354.669 104.058 354.424 103.782C354.194 103.491 353.88 103.345 353.481 103.345C353.082 103.345 352.768 103.483 352.538 103.759C352.308 104.035 352.193 104.418 352.193 104.909V114.5H350.353V104.909C350.353 104.434 350.238 104.058 350.008 103.782C349.778 103.491 349.464 103.345 349.065 103.345C348.666 103.345 348.344 103.483 348.099 103.759C347.869 104.035 347.754 104.418 347.754 104.909V114.5H345.684ZM365.064 114.73C363.546 114.73 362.319 114.278 361.384 113.373C360.464 112.468 360.004 111.234 360.004 109.67V106.68C360.004 105.116 360.464 103.882 361.384 102.977C362.319 102.072 363.546 101.62 365.064 101.62C366.076 101.62 366.958 101.827 367.709 102.241C368.476 102.64 369.066 103.207 369.48 103.943C369.909 104.664 370.124 105.507 370.124 106.473V108.75H362.235V109.854C362.235 110.774 362.488 111.495 362.994 112.016C363.5 112.537 364.19 112.798 365.064 112.798C365.8 112.798 366.406 112.66 366.881 112.384C367.356 112.108 367.64 111.725 367.732 111.234H370.009C369.856 112.307 369.327 113.158 368.422 113.787C367.517 114.416 366.398 114.73 365.064 114.73ZM362.235 106.473V107.071H367.893V106.473C367.893 105.507 367.648 104.763 367.157 104.242C366.666 103.721 365.969 103.46 365.064 103.46C364.159 103.46 363.462 103.721 362.971 104.242C362.48 104.763 362.235 105.507 362.235 106.473ZM374.623 114.5L372.576 101.85H374.508L375.75 110.475C375.796 110.858 375.842 111.272 375.888 111.717C375.934 112.162 375.965 112.522 375.98 112.798C376.011 112.522 376.049 112.162 376.095 111.717C376.141 111.272 376.195 110.858 376.256 110.475L377.774 101.85H379.936L381.454 110.475C381.515 110.858 381.569 111.272 381.615 111.717C381.676 112.146 381.722 112.507 381.753 112.798C381.784 112.507 381.822 112.146 381.868 111.717C381.914 111.272 381.96 110.858 382.006 110.475L383.294 101.85H385.134L382.995 114.5H380.557L379.154 105.99C379.093 105.576 379.031 105.116 378.97 104.61C378.924 104.104 378.886 103.705 378.855 103.414C378.84 103.705 378.794 104.104 378.717 104.61C378.656 105.116 378.594 105.576 378.533 105.99L377.084 114.5H374.623ZM392.646 114.684C391.097 114.684 389.863 114.239 388.943 113.35C388.038 112.461 387.586 111.219 387.586 109.624V106.726C387.586 105.131 388.038 103.889 388.943 103C389.863 102.111 391.097 101.666 392.646 101.666C394.195 101.666 395.421 102.111 396.326 103C397.246 103.889 397.706 105.131 397.706 106.726V109.624C397.706 111.219 397.246 112.461 396.326 113.35C395.421 114.239 394.195 114.684 392.646 114.684ZM392.646 112.683C393.505 112.683 394.179 112.445 394.67 111.97C395.176 111.479 395.429 110.766 395.429 109.831V106.519C395.429 105.584 395.176 104.878 394.67 104.403C394.179 103.912 393.505 103.667 392.646 103.667C391.787 103.667 391.105 103.912 390.599 104.403C390.108 104.878 389.863 105.584 389.863 106.519V109.831C389.863 110.766 390.108 111.479 390.599 111.97C391.105 112.445 391.787 112.683 392.646 112.683ZM402.021 114.5V101.85H404.275V104.288H404.298C404.421 103.46 404.773 102.808 405.356 102.333C405.954 101.858 406.744 101.62 407.725 101.62C409.028 101.62 410.04 102.026 410.761 102.839C411.482 103.636 411.842 104.763 411.842 106.22V107.324H409.565V106.243C409.565 104.48 408.699 103.598 406.966 103.598C406.092 103.598 405.425 103.851 404.965 104.357C404.52 104.863 404.298 105.584 404.298 106.519V114.5H402.021ZM415.467 114.5V97.71H417.744V107.002H420.067L423.471 101.85H426.047L422.068 107.899L426.254 114.5H423.632L420.09 108.957H417.744V114.5H415.467ZM305.944 142.5V125.71H308.221V140.43H315.696V142.5H305.944ZM322.518 142.73C321.215 142.73 320.18 142.37 319.413 141.649C318.662 140.913 318.286 139.955 318.286 138.774C318.286 137.593 318.677 136.643 319.459 135.922C320.256 135.201 321.299 134.841 322.587 134.841H326.29V133.875C326.29 132.326 325.431 131.552 323.714 131.552C322.947 131.552 322.326 131.698 321.851 131.989C321.391 132.265 321.146 132.656 321.115 133.162H318.861C318.938 132.135 319.405 131.291 320.264 130.632C321.123 129.957 322.273 129.62 323.714 129.62C325.263 129.62 326.459 129.988 327.302 130.724C328.145 131.46 328.567 132.495 328.567 133.829V142.5H326.336V140.177H326.29C326.183 140.959 325.792 141.58 325.117 142.04C324.458 142.5 323.591 142.73 322.518 142.73ZM323.116 140.821C324.082 140.821 324.849 140.591 325.416 140.131C325.999 139.656 326.29 139.012 326.29 138.199V136.52H322.794C322.135 136.52 321.598 136.719 321.184 137.118C320.785 137.501 320.586 138.015 320.586 138.659C320.586 139.318 320.808 139.847 321.253 140.246C321.698 140.629 322.319 140.821 323.116 140.821ZM332.606 146.64V129.85H334.86V132.288H334.883C335.006 131.46 335.374 130.808 335.987 130.333C336.6 129.858 337.382 129.62 338.333 129.62C339.59 129.62 340.595 130.049 341.346 130.908C342.097 131.751 342.473 132.901 342.473 134.358V137.969C342.473 139.441 342.097 140.606 341.346 141.465C340.595 142.308 339.59 142.73 338.333 142.73C337.398 142.73 336.623 142.492 336.01 142.017C335.397 141.542 335.021 140.89 334.883 140.062H334.837L334.883 142.983V146.64H332.606ZM337.528 140.752C338.371 140.752 339.023 140.537 339.483 140.108C339.958 139.663 340.196 138.95 340.196 137.969V134.381C340.196 133.4 339.958 132.694 339.483 132.265C339.023 131.82 338.371 131.598 337.528 131.598C336.715 131.598 336.071 131.851 335.596 132.357C335.121 132.863 334.883 133.576 334.883 134.496V137.854C334.883 138.774 335.121 139.487 335.596 139.993C336.071 140.499 336.715 140.752 337.528 140.752ZM352.538 142.5C351.449 142.5 350.583 142.186 349.939 141.557C349.31 140.928 348.996 140.093 348.996 139.05V131.92H345.385V129.85H348.996V126.285H351.273V129.85H356.402V131.92H351.273V139.027C351.273 139.441 351.388 139.778 351.618 140.039C351.863 140.3 352.185 140.43 352.584 140.43H356.287V142.5H352.538ZM365.064 142.684C363.515 142.684 362.281 142.239 361.361 141.35C360.456 140.461 360.004 139.219 360.004 137.624V134.726C360.004 133.131 360.456 131.889 361.361 131C362.281 130.111 363.515 129.666 365.064 129.666C366.613 129.666 367.839 130.111 368.744 131C369.664 131.889 370.124 133.131 370.124 134.726V137.624C370.124 139.219 369.664 140.461 368.744 141.35C367.839 142.239 366.613 142.684 365.064 142.684ZM365.064 140.683C365.923 140.683 366.597 140.445 367.088 139.97C367.594 139.479 367.847 138.766 367.847 137.831V134.519C367.847 133.584 367.594 132.878 367.088 132.403C366.597 131.912 365.923 131.667 365.064 131.667C364.205 131.667 363.523 131.912 363.017 132.403C362.526 132.878 362.281 133.584 362.281 134.519V137.831C362.281 138.766 362.526 139.479 363.017 139.97C363.523 140.445 364.205 140.683 365.064 140.683ZM373.979 146.64V129.85H376.233V132.288H376.256C376.379 131.46 376.747 130.808 377.36 130.333C377.973 129.858 378.755 129.62 379.706 129.62C380.963 129.62 381.968 130.049 382.719 130.908C383.47 131.751 383.846 132.901 383.846 134.358V137.969C383.846 139.441 383.47 140.606 382.719 141.465C381.968 142.308 380.963 142.73 379.706 142.73C378.771 142.73 377.996 142.492 377.383 142.017C376.77 141.542 376.394 140.89 376.256 140.062H376.21L376.256 142.983V146.64H373.979ZM378.901 140.752C379.744 140.752 380.396 140.537 380.856 140.108C381.331 139.663 381.569 138.95 381.569 137.969V134.381C381.569 133.4 381.331 132.694 380.856 132.265C380.396 131.82 379.744 131.598 378.901 131.598C378.088 131.598 377.444 131.851 376.969 132.357C376.494 132.863 376.256 133.576 376.256 134.496V137.854C376.256 138.774 376.494 139.487 376.969 139.993C377.444 140.499 378.088 140.752 378.901 140.752ZM401.584 142.5V140.43H406.069V127.757L401.561 131.115V128.539L405.379 125.71H408.346V140.43H412.026V142.5H401.584ZM419.998 142.73C418.419 142.73 417.169 142.301 416.249 141.442C415.329 140.568 414.869 139.387 414.869 137.9H417.146C417.146 138.774 417.399 139.464 417.905 139.97C418.426 140.461 419.132 140.706 420.021 140.706C420.895 140.706 421.593 140.461 422.114 139.97C422.635 139.464 422.896 138.774 422.896 137.9V136.727C422.896 135.853 422.635 135.163 422.114 134.657C421.608 134.136 420.91 133.875 420.021 133.875H418.135V131.966L422.183 127.757H415.375V125.71H424.736V127.78L420.734 131.92C422.099 132.043 423.18 132.533 423.977 133.392C424.774 134.235 425.173 135.347 425.173 136.727V137.9C425.173 139.387 424.705 140.568 423.77 141.442C422.85 142.301 421.593 142.73 419.998 142.73Z" fill="black"/>
</g>
<defs>
<clipPath id="clip0_7457_12485">
<rect width="560" height="240" fill="white"/>
</clipPath>
<clipPath id="clip1_7457_12485">
<rect width="560" height="240" fill="white" transform="translate(140 120)"/>
</clipPath>
</defs>
</svg>
