<svg width="560" height="240" viewBox="0 0 560 240" fill="none" xmlns="http://www.w3.org/2000/svg">
<g clip-path="url(#clip0_7601_39251)">
<rect width="560" height="240" fill="#1A1A1A"/>
<g clip-path="url(#clip1_7601_39251)">
<rect width="560" height="240" fill="#2EAFFF"/>
<path d="M436.5 103L498.5 103C509.546 103 518.5 111.954 518.5 123L518.5 246.896C518.5 257.941 527.454 266.896 538.5 266.896L715 266.896C726.046 266.896 735 257.941 735 246.896L735 3.98244C735 -7.06326 726.046 -16.0176 715 -16.0176L436.5 -16.0175C425.454 -16.0175 416.5 -7.06325 416.5 3.98244L416.5 82.9998C416.5 94.0455 425.454 103 436.5 103Z" fill="black" fill-opacity="0.06"/>
<path d="M-6.00012 -51L246.097 -51C257.299 -51 266.316 -41.8006 266.093 -30.6009L265.015 23.399C264.798 34.287 255.91 43 245.019 43L98.899 43C87.7467 43 78.7488 52.1215 78.9009 63.2728L80.2309 160.773C80.3801 171.711 89.2897 180.5 100.229 180.5L326.5 180.5C337.546 180.5 346.5 189.454 346.5 200.5L346.5 283C346.5 294.046 337.546 303 326.5 303L-6.00008 303C-17.0458 303 -26.0001 294.046 -26.0001 283L-26.0001 -31C-26.0001 -42.0457 -17.0458 -51 -6.00012 -51Z" fill="black" fill-opacity="0.06"/>
<rect width="291" height="125" rx="20" transform="matrix(1 -2.3597e-08 -2.3597e-08 -1 476 62)" fill="#2EAFFF"/>
<rect width="265" height="145" rx="20" transform="matrix(1 -2.3597e-08 -2.3597e-08 -1 -227 271)" fill="#2EAFFF"/>
</g>
<rect x="204.5" y="88" width="64" height="64" rx="32" fill="#0D0D0D"/>
<path d="M237.659 106.184L240.649 103.157L241.936 104.458L242.282 104.81L241.936 105.161L237.659 109.488V117.971L244.898 113.727L246.583 107.325L248.82 107.927L247.729 112.064L252.588 109.216L253.025 108.96L253.275 109.399L253.934 110.554L254.178 110.983L253.752 111.232L248.878 114.091L252.498 115.067L252.978 115.197L252.386 117.451L246.059 115.745L238.742 120.033L245.934 124.536L252.306 123.017L252.836 125.286L252.352 125.402L248.707 126.27L253.916 129.53L253.658 129.952L252.701 131.515L247.498 128.258L248.468 132.428L247.984 132.543L246.215 132.967L244.713 126.516L237.654 122.099V130.51L242.278 135.19L241.001 136.482L240.646 136.843L237.654 133.815V140H235.339V133.815L232.349 136.843L231.062 135.542L230.716 135.19L235.339 130.511V122.028L228.099 126.272L226.415 132.675L224.178 132.073L225.268 127.935L220.41 130.784L219.973 131.04L219.723 130.601L219.064 129.446L218.82 129.017L219.246 128.768L224.119 125.908L220.5 124.933L220.021 124.803L220.612 122.549L226.938 124.254L234.255 119.966L227.063 115.463L220.692 116.983L220.162 114.714L220.646 114.598L224.29 113.729L219.082 110.47L219.34 110.048L220.297 108.485L225.499 111.741L224.53 107.572L225.014 107.457L226.783 107.033L228.284 113.483L235.344 117.9V109.489L230.72 104.81L231.997 103.518L232.353 103.157L232.708 103.518L235.344 106.184V100H237.659V106.184Z" fill="#2EAFFF" stroke="#2EAFFF"/>
<path d="M322 86.5C303.53 86.5 288.5 101.53 288.5 120C288.5 138.47 303.53 153.5 322 153.5C340.47 153.5 355.5 138.47 355.5 120C355.5 101.53 340.47 86.5 322 86.5Z" fill="#1A1A1A"/>
<path fill-rule="evenodd" clip-rule="evenodd" d="M318.28 103.267C324.371 103.267 329.671 106.535 332.551 111.413H335.56V111.43C339.716 111.431 343.22 114.772 343.229 119.013H343.247C343.246 123.227 339.791 126.682 335.578 126.682H333.35C330.826 132.205 325.369 136.105 318.967 136.366L318.28 136.38L317.428 136.357C308.674 135.914 301.725 128.689 301.725 119.824V119.805C301.725 110.655 309.13 103.25 318.28 103.25V103.267ZM318.28 108.293C311.933 108.294 306.768 113.441 306.768 119.805V119.824C306.768 126.171 311.916 131.336 318.28 131.337C323.393 131.337 327.73 128.005 329.229 123.385L329.794 121.639H335.578C336.982 121.639 338.193 120.451 338.203 119.031H338.186C338.186 117.638 337.023 116.457 335.56 116.456H329.407L328.737 114.993C326.921 111.026 322.917 108.293 318.28 108.293Z" fill="#2EAFFF"/>
</g>
<defs>
<clipPath id="clip0_7601_39251">
<rect width="560" height="240" fill="white"/>
</clipPath>
<clipPath id="clip1_7601_39251">
<rect width="560" height="240" fill="white"/>
</clipPath>
</defs>
</svg>
