<svg width="560" height="240" viewBox="0 0 560 240" fill="none" xmlns="http://www.w3.org/2000/svg">
<g clip-path="url(#clip0_9419_20027)">
<g clip-path="url(#clip1_9419_20027)">
<rect width="560" height="240" transform="matrix(-1 0 0 1 560 0)" fill="#2EAFFF"/>
<path d="M123.5 103L61.5 103C50.4543 103 41.5 111.954 41.5 123L41.5 246.896C41.5001 257.941 32.5457 266.896 21.5 266.896L-155 266.896C-166.046 266.896 -175 257.941 -175 246.896L-175 3.98244C-175 -7.06326 -166.046 -16.0176 -155 -16.0176L123.5 -16.0175C134.546 -16.0175 143.5 -7.06325 143.5 3.98244L143.5 82.9998C143.5 94.0455 134.546 103 123.5 103Z" fill="#2BA3ED"/>
<path d="M566 -51L313.903 -51C302.701 -51 293.684 -41.8006 293.907 -30.6009L294.985 23.399C295.202 34.287 304.09 43 314.981 43L461.101 43C472.253 43 481.251 52.1215 481.099 63.2728L479.769 160.773C479.62 171.711 470.71 180.5 459.771 180.5L233.5 180.5C222.454 180.5 213.5 189.454 213.5 200.5L213.5 283C213.5 294.046 222.454 303 233.5 303L566 303C577.046 303 586 294.046 586 283L586 -31C586 -42.0457 577.046 -51 566 -51Z" fill="#2BA3ED"/>
<rect x="84" y="62" width="291" height="125" rx="20" transform="rotate(-180 84 62)" fill="#2EAFFF"/>
<rect x="787" y="271" width="265" height="145" rx="20" transform="rotate(-180 787 271)" fill="#2EAFFF"/>
</g>
<rect x="202.5" y="87.5" width="65" height="65" rx="32.5" fill="#0D0D0D"/>
<path d="M236.16 106.184L239.15 103.157L240.437 104.458L240.783 104.81L240.437 105.161L236.16 109.488V117.971L243.399 113.727L245.084 107.325L247.321 107.927L246.23 112.064L251.089 109.216L251.526 108.96L251.776 109.399L252.435 110.554L252.679 110.983L252.253 111.232L247.379 114.091L250.999 115.067L251.479 115.197L250.887 117.451L244.56 115.745L237.243 120.033L244.435 124.536L250.807 123.017L251.337 125.286L250.853 125.402L247.208 126.27L252.417 129.53L252.159 129.952L251.202 131.515L245.999 128.258L246.969 132.428L246.485 132.543L244.716 132.967L243.214 126.516L236.155 122.099V130.51L240.779 135.19L239.502 136.482L239.146 136.843L236.155 133.815V140H233.84V133.815L230.85 136.843L229.563 135.542L229.217 135.19L233.84 130.511V122.028L226.6 126.272L224.916 132.675L222.679 132.073L223.769 127.935L218.911 130.784L218.474 131.04L218.224 130.601L217.565 129.446L217.321 129.017L217.747 128.768L222.62 125.908L219.001 124.933L218.521 124.803L219.113 122.549L225.439 124.254L232.756 119.966L225.564 115.463L219.193 116.983L218.663 114.714L219.147 114.598L222.791 113.729L217.583 110.47L217.841 110.048L218.798 108.485L224 111.741L223.031 107.572L223.515 107.457L225.284 107.033L226.785 113.483L233.845 117.9V109.489L229.221 104.81L230.498 103.518L230.854 103.157L231.209 103.518L233.845 106.184V100H236.16V106.184Z" fill="#2EAFFF"/>
<circle cx="325" cy="120" r="32.5" fill="#0D0D0D"/>
<path d="M341.5 120.92H338.1C335.737 120.92 333.374 120.121 331.3 118.659C327.152 121.566 321.848 121.566 317.7 118.659C315.626 120.121 313.263 120.92 310.9 120.92H307.5M341.5 110.72H338.1C335.737 110.72 333.374 109.921 331.3 108.459C327.152 111.366 321.848 111.366 317.7 108.459C315.626 109.921 313.263 110.72 310.9 110.72H307.5M341.5 131.12H338.1C335.737 131.12 333.374 130.321 331.3 128.859C327.152 131.766 321.848 131.766 317.7 128.859C315.626 130.321 313.263 131.12 310.9 131.12H307.5" stroke="#2EAFFF" stroke-width="3"/>
</g>
<defs>
<clipPath id="clip0_9419_20027">
<rect width="560" height="240" fill="white"/>
</clipPath>
<clipPath id="clip1_9419_20027">
<rect width="560" height="240" fill="white" transform="matrix(-1 0 0 1 560 0)"/>
</clipPath>
</defs>
</svg>
