<svg xmlns="http://www.w3.org/2000/svg" width="560" height="240" fill="none" viewBox="0 0 560 240"><g clip-path="url(#clip0_5386_1547)"><rect width="560" height="240" fill="#FFF100"/><g clip-path="url(#clip1_5386_1547)"><rect width="560" height="240" fill="#FFF100"/><path fill="url(#paint0_linear_5386_1547)" d="M515.501 253L515.501 97.5C515.501 86.4543 506.546 77.5 495.501 77.5L337 77.5001C325.954 77.5001 317 68.5458 317 57.5001L317 -29C317 -40.0457 325.954 -49 337 -49L579.913 -49C590.959 -49 599.913 -40.0457 599.913 -29L599.913 253C599.913 264.046 590.959 273 579.913 273L535.501 273C524.455 273 515.501 264.046 515.501 253Z"/><path fill="#EDDD00" d="M261 188.299L261 244L-19 244L-19 35L28.651 35C39.6967 35 48.651 43.9543 48.651 55L48.651 148.299C48.651 159.345 57.6053 168.299 68.651 168.299L241 168.299C252.046 168.299 261 177.253 261 188.299Z"/><rect width="199" height="153" fill="#FFEF00" rx="20" transform="matrix(-1 0 0 1 121 196)"/></g><g clip-path="url(#clip2_5386_1547)"><path fill="#000" d="M147.45 95.9218L136 108.092L124.55 95.9218H147.45ZM119.263 99.4681L128.737 109.531H111.856L119.263 99.4681ZM112.72 115.812H136H159.28L136 141.5L112.72 115.812ZM160.143 109.531H143.263L152.737 99.4681L160.143 109.531ZM103.311 114.779L133.671 148.279C134.259 148.933 135.11 149.312 136 149.312C136.89 149.312 137.727 148.933 138.329 148.279L168.689 114.779C169.696 113.666 169.775 112.004 168.885 110.8L154.229 90.9099C153.64 90.1116 152.698 89.6274 151.703 89.6274H120.297C119.302 89.6274 118.36 90.0985 117.771 90.9099L103.115 110.8C102.225 112.004 102.317 113.666 103.311 114.779Z"/></g><path fill="#000" d="M201.492 128.73C199.943 128.73 198.709 128.301 197.789 127.442C196.884 126.568 196.432 125.372 196.432 123.854V116.333C196.432 114.83 196.884 113.65 197.789 112.791C198.709 111.917 199.943 111.48 201.492 111.48C203.025 111.48 204.244 111.917 205.149 112.791C206.069 113.665 206.529 114.846 206.529 116.333H204.252C204.252 115.428 204.007 114.731 203.516 114.24C203.025 113.749 202.351 113.504 201.492 113.504C200.618 113.504 199.936 113.749 199.445 114.24C198.954 114.731 198.709 115.428 198.709 116.333V123.854C198.709 124.774 198.954 125.479 199.445 125.97C199.936 126.461 200.618 126.706 201.492 126.706C202.351 126.706 203.025 126.461 203.516 125.97C204.007 125.479 204.252 124.774 204.252 123.854V121.669H200.986V119.645H206.529V123.854C206.529 125.357 206.069 126.545 205.149 127.419C204.244 128.293 203.025 128.73 201.492 128.73ZM215.191 128.73C213.673 128.73 212.446 128.278 211.511 127.373C210.591 126.468 210.131 125.234 210.131 123.67V120.68C210.131 119.116 210.591 117.882 211.511 116.977C212.446 116.072 213.673 115.62 215.191 115.62C216.203 115.62 217.085 115.827 217.836 116.241C218.603 116.64 219.193 117.207 219.607 117.943C220.036 118.664 220.251 119.507 220.251 120.473V122.75H212.362V123.854C212.362 124.774 212.615 125.495 213.121 126.016C213.627 126.537 214.317 126.798 215.191 126.798C215.927 126.798 216.533 126.66 217.008 126.384C217.483 126.108 217.767 125.725 217.859 125.234H220.136C219.983 126.307 219.454 127.158 218.549 127.787C217.644 128.416 216.525 128.73 215.191 128.73ZM212.362 120.473V121.071H218.02V120.473C218.02 119.507 217.775 118.763 217.284 118.242C216.793 117.721 216.096 117.46 215.191 117.46C214.286 117.46 213.589 117.721 213.098 118.242C212.607 118.763 212.362 119.507 212.362 120.473ZM223.393 128.5V115.85H225.325V117.575H225.394C225.455 116.992 225.67 116.525 226.038 116.172C226.421 115.804 226.904 115.62 227.487 115.62C228.054 115.62 228.53 115.789 228.913 116.126C229.296 116.463 229.572 116.916 229.741 117.483C229.833 116.9 230.071 116.448 230.454 116.126C230.837 115.789 231.32 115.62 231.903 115.62C232.7 115.62 233.344 115.927 233.835 116.54C234.326 117.138 234.571 117.92 234.571 118.886V128.5H232.501V118.909C232.501 118.434 232.378 118.058 232.133 117.782C231.903 117.491 231.589 117.345 231.19 117.345C230.791 117.345 230.477 117.483 230.247 117.759C230.017 118.035 229.902 118.418 229.902 118.909V128.5H228.062V118.909C228.062 118.434 227.947 118.058 227.717 117.782C227.487 117.491 227.173 117.345 226.774 117.345C226.375 117.345 226.053 117.483 225.808 117.759C225.578 118.035 225.463 118.418 225.463 118.909V128.5H223.393ZM242.267 128.684C240.826 128.684 239.706 128.362 238.909 127.718C238.112 127.074 237.713 126.169 237.713 125.004H239.967C239.967 125.556 240.166 125.993 240.565 126.315C240.979 126.622 241.546 126.775 242.267 126.775H243.279C244.03 126.775 244.605 126.614 245.004 126.292C245.418 125.97 245.625 125.518 245.625 124.935C245.625 123.908 245.119 123.333 244.107 123.21L240.703 122.727C239.798 122.589 239.101 122.221 238.61 121.623C238.119 121.01 237.874 120.22 237.874 119.254C237.874 118.119 238.257 117.238 239.024 116.609C239.791 115.98 240.864 115.666 242.244 115.666H243.256C244.544 115.666 245.587 115.973 246.384 116.586C247.181 117.199 247.603 118.012 247.649 119.024H245.349C245.318 118.595 245.119 118.242 244.751 117.966C244.383 117.675 243.885 117.529 243.256 117.529H242.244C241.554 117.529 241.017 117.682 240.634 117.989C240.266 118.296 240.082 118.71 240.082 119.231C240.082 120.074 240.504 120.55 241.347 120.657L244.544 121.117C246.737 121.408 247.833 122.681 247.833 124.935C247.833 126.131 247.434 127.059 246.637 127.718C245.855 128.362 244.736 128.684 243.279 128.684H242.267ZM270.355 128.684C268.806 128.684 267.572 128.239 266.652 127.35C265.747 126.461 265.295 125.219 265.295 123.624V120.726C265.295 119.131 265.747 117.889 266.652 117C267.572 116.111 268.806 115.666 270.355 115.666C271.904 115.666 273.13 116.111 274.035 117C274.955 117.889 275.415 119.131 275.415 120.726V123.624C275.415 125.219 274.955 126.461 274.035 127.35C273.13 128.239 271.904 128.684 270.355 128.684ZM270.355 126.683C271.214 126.683 271.888 126.445 272.379 125.97C272.885 125.479 273.138 124.766 273.138 123.831V120.519C273.138 119.584 272.885 118.878 272.379 118.403C271.888 117.912 271.214 117.667 270.355 117.667C269.496 117.667 268.814 117.912 268.308 118.403C267.817 118.878 267.572 119.584 267.572 120.519V123.831C267.572 124.766 267.817 125.479 268.308 125.97C268.814 126.445 269.496 126.683 270.355 126.683ZM282.099 128.5V119.645H278.465V117.575H282.099V115.022C282.099 114.01 282.429 113.205 283.088 112.607C283.747 112.009 284.644 111.71 285.779 111.71H289.482V113.757H285.779C284.844 113.757 284.376 114.186 284.376 115.045V117.575H289.482V119.645H284.376V128.5H282.099ZM306.852 128.5V111.71H311.36C312.449 111.71 313.392 111.925 314.189 112.354C315.002 112.768 315.63 113.358 316.075 114.125C316.52 114.876 316.742 115.766 316.742 116.793V123.394C316.742 124.421 316.52 125.318 316.075 126.085C315.63 126.852 315.002 127.45 314.189 127.879C313.392 128.293 312.449 128.5 311.36 128.5H306.852ZM309.129 126.476H311.36C312.326 126.476 313.085 126.2 313.637 125.648C314.189 125.096 314.465 124.345 314.465 123.394V116.793C314.465 115.842 314.189 115.099 313.637 114.562C313.085 114.01 312.326 113.734 311.36 113.734H309.129V126.476ZM325.496 128.73C324.009 128.73 322.82 128.293 321.931 127.419C321.042 126.545 320.597 125.357 320.597 123.854V115.85H322.874V123.854C322.874 124.743 323.104 125.449 323.564 125.97C324.039 126.476 324.683 126.729 325.496 126.729C326.324 126.729 326.976 126.476 327.451 125.97C327.926 125.449 328.164 124.743 328.164 123.854V115.85H330.441V123.854C330.441 125.357 329.989 126.545 329.084 127.419C328.195 128.293 326.999 128.73 325.496 128.73ZM339.494 128.73C337.945 128.73 336.703 128.301 335.768 127.442C334.833 126.568 334.365 125.372 334.365 123.854V120.473C334.365 118.97 334.833 117.79 335.768 116.931C336.703 116.057 337.945 115.62 339.494 115.62C340.981 115.62 342.177 116.019 343.082 116.816C344.002 117.598 344.485 118.671 344.531 120.036H342.277C342.231 119.269 341.955 118.679 341.449 118.265C340.958 117.836 340.307 117.621 339.494 117.621C338.62 117.621 337.922 117.874 337.401 118.38C336.895 118.871 336.642 119.568 336.642 120.473V123.854C336.642 124.774 336.895 125.479 337.401 125.97C337.922 126.461 338.62 126.706 339.494 126.706C340.322 126.706 340.981 126.499 341.472 126.085C341.963 125.671 342.231 125.081 342.277 124.314H344.531C344.485 125.679 344.002 126.76 343.082 127.557C342.177 128.339 340.981 128.73 339.494 128.73ZM348.34 128.5V111.71H350.617V121.002H352.94L356.344 115.85H358.92L354.941 121.899L359.127 128.5H356.505L352.963 122.957H350.617V128.5H348.34ZM362.016 128.5V111.71H366.524C367.613 111.71 368.556 111.925 369.353 112.354C370.166 112.768 370.795 113.358 371.239 114.125C371.684 114.876 371.906 115.766 371.906 116.793V123.394C371.906 124.421 371.684 125.318 371.239 126.085C370.795 126.852 370.166 127.45 369.353 127.879C368.556 128.293 367.613 128.5 366.524 128.5H362.016ZM364.293 126.476H366.524C367.49 126.476 368.249 126.2 368.801 125.648C369.353 125.096 369.629 124.345 369.629 123.394V116.793C369.629 115.842 369.353 115.099 368.801 114.562C368.249 114.01 367.49 113.734 366.524 113.734H364.293V126.476ZM375.83 128.5V111.71H380.683C382.232 111.71 383.451 112.101 384.34 112.883C385.245 113.65 385.697 114.708 385.697 116.057C385.697 116.931 385.421 117.713 384.869 118.403C384.333 119.078 383.635 119.492 382.776 119.645V119.714C383.42 119.791 383.988 120.021 384.478 120.404C384.984 120.787 385.375 121.278 385.651 121.876C385.943 122.459 386.088 123.103 386.088 123.808C386.088 125.249 385.628 126.392 384.708 127.235C383.804 128.078 382.569 128.5 381.005 128.5H375.83ZM378.061 118.794H380.66C381.519 118.794 382.194 118.572 382.684 118.127C383.175 117.667 383.42 117.046 383.42 116.264C383.42 115.467 383.175 114.846 382.684 114.401C382.194 113.941 381.527 113.711 380.683 113.711H378.061V118.794ZM378.061 126.499H380.798C381.734 126.499 382.47 126.254 383.006 125.763C383.543 125.257 383.811 124.575 383.811 123.716C383.811 122.827 383.543 122.106 383.006 121.554C382.47 121.002 381.734 120.726 380.798 120.726H378.061V126.499ZM403.412 128.5V126.43H407.897V113.757L403.389 117.115V114.539L407.207 111.71H410.174V126.43H413.854V128.5H403.412ZM422.056 128.73C421.474 128.73 420.998 128.554 420.63 128.201C420.278 127.848 420.101 127.396 420.101 126.844C420.101 126.261 420.278 125.786 420.63 125.418C420.998 125.05 421.474 124.866 422.056 124.866C422.639 124.866 423.107 125.05 423.459 125.418C423.827 125.786 424.011 126.261 424.011 126.844C424.011 127.396 423.827 127.848 423.459 128.201C423.107 128.554 422.639 128.73 422.056 128.73ZM430.856 128.5V126.407L436.56 120.381C437.296 119.614 437.818 118.917 438.124 118.288C438.446 117.644 438.607 117.015 438.607 116.402C438.607 115.528 438.354 114.83 437.848 114.309C437.342 113.772 436.66 113.504 435.801 113.504C434.912 113.504 434.207 113.772 433.685 114.309C433.164 114.846 432.903 115.574 432.903 116.494H430.626C430.657 114.961 431.14 113.742 432.075 112.837C433.026 111.932 434.268 111.48 435.801 111.48C437.365 111.48 438.607 111.925 439.527 112.814C440.463 113.703 440.93 114.892 440.93 116.379C440.93 117.192 440.716 118.043 440.286 118.932C439.857 119.806 439.129 120.772 438.101 121.83L433.639 126.43H441.137V128.5H430.856Z"/></g><defs><linearGradient id="paint0_linear_5386_1547" x1="404" x2="572.5" y1="-196.405" y2="-196.405" gradientUnits="userSpaceOnUse"><stop stop-color="#EDDD0C"/><stop offset="1" stop-color="#F3E71B"/></linearGradient><clipPath id="clip0_5386_1547"><rect width="560" height="240" fill="#fff"/></clipPath><clipPath id="clip1_5386_1547"><rect width="560" height="240" fill="#fff"/></clipPath><clipPath id="clip2_5386_1547"><rect width="67" height="67" fill="#fff" transform="matrix(-1 0 0 1 169.5 86.5)"/></clipPath></defs></svg>