<svg xmlns="http://www.w3.org/2000/svg" width="560" height="240" fill="none" viewBox="0 0 560 240"><g clip-path="url(#clip0_4771_4718)"><rect width="560" height="240" fill="#FFF100"/><g clip-path="url(#clip1_4771_4718)"><rect width="560" height="240" fill="#FFF100"/><path fill="url(#paint0_linear_4771_4718)" d="M387 170.5L451.783 170.5C462.828 170.5 471.782 161.546 471.782 150.5L471.782 67.5001C471.782 56.4544 480.737 47.5001 491.782 47.5001L692.082 47.5001C703.128 47.5001 712.082 56.4544 712.082 67.5001L712.082 241.913C712.082 252.958 703.128 261.913 692.082 261.913L387 261.913C375.954 261.913 367 252.958 367 241.913L367 190.5C367 179.454 375.954 170.5 387 170.5Z"/><path fill="url(#paint1_linear_4771_4718)" d="M141.127 314L141.127 77.9839C141.127 66.9382 150.081 57.9839 161.127 57.9839L199.812 57.9839C210.857 57.9839 219.812 49.0296 219.812 37.9839L219.812 -86.9999C219.812 -98.0456 210.857 -107 199.812 -107L-54.0001 -107C-65.0458 -107 -74.0001 -98.0457 -74.0001 -87L-74.0002 314C-74.0002 325.046 -65.0458 334 -54.0002 334L121.127 334C132.173 334 141.127 325.046 141.127 314Z"/><rect width="546" height="169" x="417" y="194" fill="#FFF100" rx="20"/><rect width="598" height="204" x="-513" y="-43" fill="#FFF100" rx="20"/></g><path fill="#000" d="M160.587 123.716V116.724C160.587 115.973 160.71 115.298 160.955 114.7C161.216 114.087 161.576 113.565 162.036 113.136C162.511 112.691 163.071 112.354 163.715 112.124C164.374 111.879 165.103 111.756 165.9 111.756C167.387 111.756 168.599 112.139 169.534 112.906C170.469 113.657 171.052 114.731 171.282 116.126H168.729C168.606 115.467 168.292 114.953 167.786 114.585C167.295 114.202 166.667 114.01 165.9 114.01C165.041 114.01 164.359 114.255 163.853 114.746C163.362 115.221 163.117 115.881 163.117 116.724V123.716C163.117 124.59 163.362 125.272 163.853 125.763C164.359 126.254 165.041 126.499 165.9 126.499C166.759 126.499 167.433 126.254 167.924 125.763C168.43 125.272 168.683 124.59 168.683 123.716V121.968H165.578V119.76H171.213V123.716C171.213 124.467 171.083 125.157 170.822 125.786C170.577 126.399 170.224 126.928 169.764 127.373C169.304 127.802 168.744 128.14 168.085 128.385C167.441 128.615 166.713 128.73 165.9 128.73C165.103 128.73 164.374 128.615 163.715 128.385C163.056 128.14 162.496 127.802 162.036 127.373C161.576 126.928 161.216 126.399 160.955 125.786C160.71 125.157 160.587 124.467 160.587 123.716ZM174.838 126.2H179.392V118.127H175.413V115.85H181.853V126.2H185.556V128.5H174.838V126.2ZM178.472 112.377C178.472 111.932 178.61 111.58 178.886 111.319C179.177 111.043 179.561 110.905 180.036 110.905H180.588C181.063 110.905 181.439 111.043 181.715 111.319C182.006 111.58 182.152 111.932 182.152 112.377C182.152 112.822 182.006 113.174 181.715 113.435C181.439 113.696 181.056 113.826 180.565 113.826H180.036C179.561 113.826 179.177 113.696 178.886 113.435C178.61 113.174 178.472 112.822 178.472 112.377ZM187.778 115.85H191.343V111.94H193.873V115.85H198.726V118.127H193.873V124.866C193.873 125.28 193.996 125.61 194.241 125.855C194.486 126.085 194.831 126.2 195.276 126.2H198.496V128.5H195.161C193.98 128.5 193.045 128.17 192.355 127.511C191.68 126.852 191.343 125.97 191.343 124.866V118.127H187.778V115.85ZM202.259 128.5V111.94H204.789V118.725H209.78V111.94H212.31V128.5H209.78V121.048H204.789V128.5H202.259ZM218.58 115.85V123.877C218.58 125.64 219.4 126.522 221.041 126.522C222.712 126.522 223.548 125.64 223.548 123.877V115.85H226.078V123.877C226.078 125.426 225.641 126.622 224.767 127.465C223.893 128.308 222.651 128.73 221.041 128.73C219.462 128.73 218.235 128.308 217.361 127.465C216.487 126.606 216.05 125.41 216.05 123.877V115.85H218.58ZM229.795 111.94H232.325V115.689C232.325 115.904 232.317 116.149 232.302 116.425C232.302 116.701 232.294 116.962 232.279 117.207C232.248 117.483 232.225 117.759 232.21 118.035H232.394C232.563 117.268 232.946 116.678 233.544 116.264C234.157 115.835 234.924 115.62 235.844 115.62C236.488 115.62 237.078 115.735 237.615 115.965C238.152 116.195 238.604 116.525 238.972 116.954C239.355 117.383 239.647 117.905 239.846 118.518C240.061 119.116 240.168 119.798 240.168 120.565V123.739C240.168 124.506 240.061 125.203 239.846 125.832C239.647 126.445 239.355 126.967 238.972 127.396C238.604 127.825 238.152 128.155 237.615 128.385C237.078 128.615 236.488 128.73 235.844 128.73C234.924 128.73 234.157 128.523 233.544 128.109C232.946 127.68 232.563 127.082 232.394 126.315H232.21V128.5H229.795V111.94ZM232.325 123.739C232.325 124.582 232.555 125.257 233.015 125.763C233.49 126.269 234.127 126.522 234.924 126.522C235.767 126.522 236.427 126.269 236.902 125.763C237.393 125.257 237.638 124.575 237.638 123.716V120.611C237.638 119.737 237.393 119.055 236.902 118.564C236.427 118.058 235.767 117.805 234.924 117.805C234.142 117.805 233.513 118.058 233.038 118.564C232.563 119.07 232.325 119.752 232.325 120.611V123.739Z"/><circle cx="300.5" cy="120" r="33.5" fill="#000"/><path fill="#FFF100" d="M297.771 97.8736C298.838 95.5336 302.162 95.5336 303.229 97.8736L307.595 107.444C308.027 108.393 308.922 109.049 309.957 109.176L320.335 110.457C322.853 110.768 323.873 113.869 322.03 115.613L314.301 122.929C313.557 123.634 313.223 124.669 313.417 125.675L315.436 136.162C315.92 138.675 313.238 140.601 311.011 139.34L301.979 134.223C301.061 133.703 299.939 133.703 299.021 134.223L289.989 139.34C287.762 140.601 285.08 138.675 285.564 136.162L287.583 125.675C287.777 124.669 287.443 123.634 286.699 122.929L278.97 115.613C277.127 113.869 278.147 110.768 280.665 110.457L291.043 109.176C292.078 109.049 292.973 108.393 293.405 107.444L297.771 97.8736Z"/><path fill="#000" d="M360.909 128.5V126.407L366.613 120.381C367.349 119.614 367.87 118.917 368.177 118.288C368.499 117.644 368.66 117.015 368.66 116.402C368.66 115.528 368.407 114.83 367.901 114.309C367.395 113.772 366.713 113.504 365.854 113.504C364.965 113.504 364.259 113.772 363.738 114.309C363.217 114.846 362.956 115.574 362.956 116.494H360.679C360.71 114.961 361.193 113.742 362.128 112.837C363.079 111.932 364.321 111.48 365.854 111.48C367.418 111.48 368.66 111.925 369.58 112.814C370.515 113.703 370.983 114.892 370.983 116.379C370.983 117.192 370.768 118.043 370.339 118.932C369.91 119.806 369.181 120.772 368.154 121.83L363.692 126.43H371.19V128.5H360.909ZM379.576 128.73C377.997 128.73 376.747 128.301 375.827 127.442C374.907 126.568 374.447 125.387 374.447 123.9H376.724C376.724 124.774 376.977 125.464 377.483 125.97C378.004 126.461 378.702 126.706 379.576 126.706C380.465 126.706 381.163 126.453 381.669 125.947C382.19 125.441 382.451 124.751 382.451 123.877V122.819C382.451 121.945 382.198 121.255 381.692 120.749C381.201 120.243 380.527 119.99 379.668 119.99H375.022V111.71H384.13V113.78H377.138L377.184 117.943H379.783C381.347 117.943 382.558 118.372 383.417 119.231C384.291 120.074 384.728 121.27 384.728 122.819V123.877C384.728 125.38 384.26 126.568 383.325 127.442C382.405 128.301 381.155 128.73 379.576 128.73ZM388.721 128.5V111.71H390.998V121.002H393.321L396.725 115.85H399.301L395.322 121.899L399.508 128.5H396.886L393.344 122.957H390.998V128.5H388.721Z"/></g><defs><linearGradient id="paint0_linear_4771_4718" x1="400.322" x2="400.322" y1="65.999" y2="234.499" gradientUnits="userSpaceOnUse"><stop stop-color="#EDDD0C"/><stop offset="1" stop-color="#F3E71B"/></linearGradient><linearGradient id="paint1_linear_4771_4718" x1="72.906" x2="72.906" y1="349.513" y2="-53.814" gradientUnits="userSpaceOnUse"><stop stop-color="#EDDD0C"/><stop offset="1" stop-color="#F3E71B"/></linearGradient><clipPath id="clip0_4771_4718"><rect width="560" height="240" fill="#fff"/></clipPath><clipPath id="clip1_4771_4718"><rect width="560" height="240" fill="#fff"/></clipPath></defs></svg>