<svg xmlns="http://www.w3.org/2000/svg" width="560" height="240" fill="none" viewBox="0 0 560 240"><g clip-path="url(#clip0_5320_5767)"><rect width="560" height="240" fill="#FFF100"/><g clip-path="url(#clip1_5320_5767)"><rect width="560" height="240" fill="#A899FF"/><path fill="url(#paint0_linear_5320_5767)" d="M134.5 190.5L361 190.5C372.046 190.5 381 181.546 381 170.5L381 54.9999C381.001 43.9543 389.955 35 401 35L598.5 35C609.546 35 618.5 43.9543 618.5 55.0001L618.5 309C618.5 320.046 609.545 329 598.5 329L134.5 329C123.454 329 114.5 320.046 114.5 309L114.5 210.5C114.5 199.454 123.454 190.5 134.5 190.5Z"/><path fill="url(#paint1_linear_5320_5767)" d="M186.5 50.8302L186.5 -21.9996C186.5 -33.0452 177.546 -41.9995 166.5 -41.9996L-27.9999 -42C-39.0457 -42 -48 -33.0457 -48 -22L-48 185C-48 196.046 -39.0457 205 -28 205L33.7692 205C44.8149 205 53.7692 196.046 53.7692 185L53.7693 90.8299C53.7693 79.7841 62.7236 70.8298 73.7693 70.8299L166.5 70.8302C177.546 70.8302 186.5 61.8759 186.5 50.8302Z"/><path fill="#A899FF" d="M686.5 100L539.885 100L482.5 100C471.454 100 462.5 108.954 462.5 120L462.5 340C462.5 351.046 471.454 360 482.5 360L686.5 360C697.546 360 706.5 351.046 706.5 340L706.5 120C706.5 108.954 697.546 100 686.5 100Z"/></g><mask id="mask0_5320_5767" width="48" height="66" x="195" y="87" maskUnits="userSpaceOnUse" style="mask-type:luminance"><path fill="#fff" d="M224.945 87.5H199.677C197.224 87.5 195.218 89.4943 195.218 91.9318V148.068C195.218 150.506 197.224 152.5 199.677 152.5H238.323C240.775 152.5 242.782 150.506 242.782 148.068V105.227L224.945 87.5Z"/></mask><g mask="url(#mask0_5320_5767)"><path fill="#0D0D0D" d="M224.945 87.5H199.677C197.224 87.5 195.218 89.4943 195.218 91.9318V148.068C195.218 150.506 197.224 152.5 199.677 152.5H238.323C240.775 152.5 242.782 150.506 242.782 148.068V105.227L232.377 97.8409L224.945 87.5Z"/></g><mask id="mask1_5320_5767" width="48" height="66" x="195" y="87" maskUnits="userSpaceOnUse" style="mask-type:luminance"><path fill="#fff" d="M224.945 87.5H199.677C197.224 87.5 195.218 89.4943 195.218 91.9318V148.068C195.218 150.506 197.224 152.5 199.677 152.5H238.323C240.775 152.5 242.782 150.506 242.782 148.068V105.227L224.945 87.5Z"/></mask><g mask="url(#mask1_5320_5767)"><path fill="#A899FF" d="M207.109 119.261V140.682H230.891V119.261H207.109ZM217.514 137.727H210.082V134.034H217.514V137.727ZM217.514 131.818H210.082V128.125H217.514V131.818ZM217.514 125.909H210.082V122.216H217.514V125.909ZM227.918 137.727H220.486V134.034H227.918V137.727ZM227.918 131.818H220.486V128.125H227.918V131.818ZM227.918 125.909H220.486V122.216H227.918V125.909Z"/></g><mask id="mask2_5320_5767" width="48" height="66" x="195" y="87" maskUnits="userSpaceOnUse" style="mask-type:luminance"><path fill="#fff" d="M224.945 87.5H199.677C197.224 87.5 195.218 89.4943 195.218 91.9318V148.068C195.218 150.506 197.224 152.5 199.677 152.5H238.323C240.775 152.5 242.782 150.506 242.782 148.068V105.227L224.945 87.5Z"/></mask><g mask="url(#mask2_5320_5767)"><path fill="#0D0D0D" d="M226.25 103.931L242.782 120.358V105.227L226.25 103.931Z"/></g><mask id="mask3_5320_5767" width="48" height="66" x="195" y="87" maskUnits="userSpaceOnUse" style="mask-type:luminance"><path fill="#fff" d="M224.945 87.5H199.677C197.224 87.5 195.218 89.4943 195.218 91.9318V148.068C195.218 150.506 197.224 152.5 199.677 152.5H238.323C240.775 152.5 242.782 150.506 242.782 148.068V105.227L224.945 87.5Z"/></mask><g mask="url(#mask3_5320_5767)"><path fill="#8C78FF" d="M224.945 87.5V100.795C224.945 103.244 226.941 105.227 229.404 105.227H242.782L224.945 87.5Z"/></g><mask id="mask4_5320_5767" width="48" height="66" x="195" y="87" maskUnits="userSpaceOnUse" style="mask-type:luminance"><path fill="#fff" d="M224.945 87.5H199.677C197.224 87.5 195.218 89.4943 195.218 91.9318V148.068C195.218 150.506 197.224 152.5 199.677 152.5H238.323C240.775 152.5 242.782 150.506 242.782 148.068V105.227L224.945 87.5Z"/></mask><g mask="url(#mask4_5320_5767)"><path fill="#fff" fill-opacity=".2" d="M199.677 87.5C197.224 87.5 195.218 89.4943 195.218 91.9318V92.3011C195.218 89.8636 197.224 87.8693 199.677 87.8693H224.945V87.5H199.677Z"/></g><mask id="mask5_5320_5767" width="48" height="66" x="195" y="87" maskUnits="userSpaceOnUse" style="mask-type:luminance"><path fill="#fff" d="M224.945 87.5H199.677C197.224 87.5 195.218 89.4943 195.218 91.9318V148.068C195.218 150.506 197.224 152.5 199.677 152.5H238.323C240.775 152.5 242.782 150.506 242.782 148.068V105.227L224.945 87.5Z"/></mask><g mask="url(#mask5_5320_5767)"><path fill="#263238" fill-opacity=".2" d="M238.323 152.131H199.677C197.224 152.131 195.218 150.136 195.218 147.699V148.068C195.218 150.506 197.224 152.5 199.677 152.5H238.323C240.775 152.5 242.782 150.506 242.782 148.068V147.699C242.782 150.136 240.775 152.131 238.323 152.131Z"/></g><mask id="mask6_5320_5767" width="48" height="66" x="195" y="87" maskUnits="userSpaceOnUse" style="mask-type:luminance"><path fill="#fff" d="M224.945 87.5H199.677C197.224 87.5 195.218 89.4943 195.218 91.9318V148.068C195.218 150.506 197.224 152.5 199.677 152.5H238.323C240.775 152.5 242.782 150.506 242.782 148.068V105.227L224.945 87.5Z"/></mask><g mask="url(#mask6_5320_5767)"><path fill="#263238" fill-opacity=".1" d="M229.404 105.227C226.941 105.227 224.945 103.244 224.945 100.795V101.165C224.945 103.613 226.941 105.597 229.404 105.597H242.782V105.227H229.404Z"/></g><path fill="#000" d="M269.277 120.496C269.277 119.76 269.377 119.093 269.576 118.495C269.776 117.882 270.067 117.368 270.45 116.954C270.834 116.525 271.294 116.195 271.83 115.965C272.367 115.735 272.965 115.62 273.624 115.62C274.56 115.62 275.342 115.842 275.97 116.287C276.599 116.732 277.005 117.353 277.189 118.15H277.35V115.85H279.742V127.741C279.742 129.182 279.282 130.317 278.362 131.145C277.458 131.988 276.208 132.41 274.613 132.41H271.347V130.248H274.613C275.426 130.248 276.062 130.026 276.522 129.581C276.998 129.136 277.235 128.523 277.235 127.741V127.304L277.327 125.004H277.189C276.99 125.801 276.576 126.422 275.947 126.867C275.319 127.312 274.537 127.534 273.601 127.534C272.942 127.534 272.344 127.419 271.807 127.189C271.286 126.959 270.834 126.637 270.45 126.223C270.082 125.794 269.791 125.28 269.576 124.682C269.377 124.084 269.277 123.417 269.277 122.681V120.496ZM271.83 122.635C271.83 123.478 272.068 124.145 272.543 124.636C273.034 125.111 273.693 125.349 274.521 125.349C275.365 125.349 276.024 125.111 276.499 124.636C276.99 124.145 277.235 123.478 277.235 122.635V120.519C277.235 119.676 276.99 119.016 276.499 118.541C276.024 118.05 275.365 117.805 274.521 117.805C273.693 117.805 273.034 118.05 272.543 118.541C272.068 119.016 271.83 119.676 271.83 120.519V122.635ZM283.091 125.326H285.713C285.805 125.74 286.058 126.07 286.472 126.315C286.902 126.56 287.423 126.683 288.036 126.683H288.864C289.616 126.683 290.198 126.53 290.612 126.223C291.042 125.916 291.256 125.495 291.256 124.958C291.256 124.038 290.582 123.486 289.232 123.302L287.392 123.049C286.028 122.865 285.016 122.474 284.356 121.876C283.712 121.263 283.39 120.404 283.39 119.3C283.39 118.135 283.797 117.23 284.609 116.586C285.437 115.942 286.61 115.62 288.128 115.62H288.933C290.267 115.62 291.348 115.919 292.176 116.517C293.02 117.1 293.518 117.897 293.671 118.909H291.072C290.98 118.526 290.743 118.227 290.359 118.012C289.976 117.782 289.501 117.667 288.933 117.667H288.128C287.408 117.667 286.856 117.805 286.472 118.081C286.089 118.342 285.897 118.74 285.897 119.277C285.897 119.722 286.035 120.067 286.311 120.312C286.603 120.557 287.063 120.718 287.691 120.795L289.577 121.048C291.019 121.247 292.077 121.654 292.751 122.267C293.426 122.88 293.763 123.754 293.763 124.889C293.763 126.116 293.342 127.066 292.498 127.741C291.655 128.4 290.444 128.73 288.864 128.73H288.036C286.626 128.73 285.476 128.431 284.586 127.833C283.712 127.22 283.214 126.384 283.091 125.326ZM297.181 128.5V111.94H299.711V115.85C299.711 116.065 299.704 116.302 299.688 116.563C299.673 116.808 299.65 117.046 299.619 117.276C299.604 117.491 299.589 117.675 299.573 117.828C299.573 117.966 299.573 118.035 299.573 118.035H299.78C299.949 117.268 300.325 116.678 300.907 116.264C301.505 115.835 302.257 115.62 303.161 115.62C303.79 115.62 304.357 115.727 304.863 115.942C305.385 116.157 305.822 116.463 306.174 116.862C306.542 117.261 306.826 117.744 307.025 118.311C307.225 118.863 307.324 119.484 307.324 120.174V128.5H304.817V120.519C304.817 119.66 304.587 118.993 304.127 118.518C303.683 118.027 303.069 117.782 302.287 117.782C301.49 117.782 300.861 118.035 300.401 118.541C299.941 119.047 299.711 119.737 299.711 120.611V128.5H297.181ZM310.742 120.519C310.742 119.768 310.865 119.093 311.11 118.495C311.356 117.882 311.708 117.368 312.168 116.954C312.628 116.525 313.188 116.195 313.847 115.965C314.507 115.735 315.243 115.62 316.055 115.62C316.868 115.62 317.596 115.735 318.24 115.965C318.9 116.195 319.459 116.525 319.919 116.954C320.379 117.368 320.732 117.882 320.977 118.495C321.223 119.093 321.345 119.768 321.345 120.519V122.842H313.249V123.739C313.249 124.644 313.495 125.349 313.985 125.855C314.491 126.361 315.181 126.614 316.055 126.614C316.699 126.614 317.259 126.514 317.734 126.315C318.21 126.116 318.555 125.817 318.769 125.418H321.253C321.115 125.924 320.893 126.384 320.586 126.798C320.28 127.197 319.896 127.542 319.436 127.833C318.992 128.124 318.478 128.347 317.895 128.5C317.328 128.653 316.715 128.73 316.055 128.73C315.243 128.73 314.507 128.615 313.847 128.385C313.203 128.155 312.651 127.825 312.191 127.396C311.731 126.967 311.371 126.453 311.11 125.855C310.865 125.242 310.742 124.559 310.742 123.808V120.519ZM313.249 121.002H318.861V120.519C318.861 119.645 318.616 118.963 318.125 118.472C317.635 117.981 316.945 117.736 316.055 117.736C315.166 117.736 314.476 117.981 313.985 118.472C313.495 118.963 313.249 119.645 313.249 120.519V121.002ZM324.533 120.519C324.533 119.768 324.656 119.093 324.901 118.495C325.147 117.882 325.499 117.368 325.959 116.954C326.419 116.525 326.979 116.195 327.638 115.965C328.298 115.735 329.034 115.62 329.846 115.62C330.659 115.62 331.387 115.735 332.031 115.965C332.691 116.195 333.25 116.525 333.71 116.954C334.17 117.368 334.523 117.882 334.768 118.495C335.014 119.093 335.136 119.768 335.136 120.519V122.842H327.04V123.739C327.04 124.644 327.286 125.349 327.776 125.855C328.282 126.361 328.972 126.614 329.846 126.614C330.49 126.614 331.05 126.514 331.525 126.315C332.001 126.116 332.346 125.817 332.56 125.418H335.044C334.906 125.924 334.684 126.384 334.377 126.798C334.071 127.197 333.687 127.542 333.227 127.833C332.783 128.124 332.269 128.347 331.686 128.5C331.119 128.653 330.506 128.73 329.846 128.73C329.034 128.73 328.298 128.615 327.638 128.385C326.994 128.155 326.442 127.825 325.982 127.396C325.522 126.967 325.162 126.453 324.901 125.855C324.656 125.242 324.533 124.559 324.533 123.808V120.519ZM327.04 121.002H332.652V120.519C332.652 119.645 332.407 118.963 331.916 118.472C331.426 117.981 330.736 117.736 329.846 117.736C328.957 117.736 328.267 117.981 327.776 118.472C327.286 118.963 327.04 119.645 327.04 120.519V121.002ZM337.933 115.85H341.498V111.94H344.028V115.85H348.881V118.127H344.028V124.866C344.028 125.28 344.151 125.61 344.396 125.855C344.642 126.085 344.987 126.2 345.431 126.2H348.651V128.5H345.316C344.136 128.5 343.2 128.17 342.51 127.511C341.836 126.852 341.498 125.97 341.498 124.866V118.127H337.933V115.85ZM352.046 125.326H354.668C354.76 125.74 355.013 126.07 355.427 126.315C355.857 126.56 356.378 126.683 356.991 126.683H357.819C358.571 126.683 359.153 126.53 359.567 126.223C359.997 125.916 360.211 125.495 360.211 124.958C360.211 124.038 359.537 123.486 358.187 123.302L356.347 123.049C354.983 122.865 353.971 122.474 353.311 121.876C352.667 121.263 352.345 120.404 352.345 119.3C352.345 118.135 352.752 117.23 353.564 116.586C354.392 115.942 355.565 115.62 357.083 115.62H357.888C359.222 115.62 360.303 115.919 361.131 116.517C361.975 117.1 362.473 117.897 362.626 118.909H360.027C359.935 118.526 359.698 118.227 359.314 118.012C358.931 117.782 358.456 117.667 357.888 117.667H357.083C356.363 117.667 355.811 117.805 355.427 118.081C355.044 118.342 354.852 118.74 354.852 119.277C354.852 119.722 354.99 120.067 355.266 120.312C355.558 120.557 356.018 120.718 356.646 120.795L358.532 121.048C359.974 121.247 361.032 121.654 361.706 122.267C362.381 122.88 362.718 123.754 362.718 124.889C362.718 126.116 362.297 127.066 361.453 127.741C360.61 128.4 359.399 128.73 357.819 128.73H356.991C355.581 128.73 354.431 128.431 353.541 127.833C352.667 127.22 352.169 126.384 352.046 125.326Z"/></g><defs><linearGradient id="paint0_linear_5320_5767" x1="366.5" x2="366.5" y1="288.465" y2="90.675" gradientUnits="userSpaceOnUse"><stop stop-color="#8C78FF"/><stop offset="1" stop-color="#8C78FF"/></linearGradient><linearGradient id="paint1_linear_5320_5767" x1="69.25" x2="69.25" y1="170.946" y2="4.774" gradientUnits="userSpaceOnUse"><stop stop-color="#8C78FF"/><stop offset="1" stop-color="#8C78FF"/></linearGradient><clipPath id="clip0_5320_5767"><rect width="560" height="240" fill="#fff"/></clipPath><clipPath id="clip1_5320_5767"><rect width="560" height="240" fill="#fff"/></clipPath></defs></svg>