<svg xmlns="http://www.w3.org/2000/svg" width="560" height="240" fill="none" viewBox="0 0 560 240"><rect width="560" height="240" fill="#FFF100"/><g clip-path="url(#clip0_4723_13036)"><rect width="560" height="240" fill="#FFF100"/><path fill="#FFF100" d="M-137 100L9.61491 100L67 100C78.0457 100 87 108.954 87 120L87 340C87 351.046 78.0457 360 67 360L-137 360C-148.046 360 -157 351.046 -157 340L-157 120C-157 108.954 -148.046 100 -137 100Z"/><path fill="#EDDE00" d="M231 21.9441L231 -24C231 -35.0457 222.046 -44 211 -44L-11 -44C-22.0457 -44 -31 -35.0457 -31 -24L-31 191C-31 202.046 -22.0457 211 -11 211L76.5 211C87.5457 211 96.5 202.046 96.5 191L96.5 61.9441C96.5 50.8984 105.454 41.9441 116.5 41.9441L211 41.9441C222.046 41.9441 231 32.9898 231 21.9441Z"/><path fill="#EDDE00" d="M423.479 197.576L289 197.576C277.954 197.576 269 206.53 269 217.576L269 256C269 267.046 277.954 276 289 276L611.5 276C622.546 276 631.5 267.046 631.5 256L631.5 -28C631.5 -39.0457 622.546 -48 611.5 -48L504.424 -48C493.378 -48 484.424 -39.0457 484.424 -28L484.424 58.5088C484.424 69.5545 475.47 78.5088 464.424 78.5088L463.479 78.5088C452.433 78.5088 443.479 87.4631 443.479 98.5088L443.479 177.576C443.479 188.622 434.525 197.576 423.479 197.576Z"/><path fill="#FFF100" d="M514 114C502.954 114 494 122.954 494 134L494 294C494 305.046 502.954 314 514 314H612C623.046 314 632 305.046 632 294L632 134C632 122.954 623.046 114 612 114L514 114Z"/></g><path fill="#000" d="M248.875 110.228V132.117H243.81V123.142H233.866V132.117H228.801V110.228H233.866V118.858H243.81V110.228H248.875Z"/><path fill="#000" d="M269.042 127.988V132.117H252.502V128.833L260.945 120.859C262.884 119.014 263.227 117.889 263.227 116.825C263.227 115.105 262.037 114.104 259.726 114.104C257.85 114.104 256.255 114.824 255.191 116.294L251.501 113.918C253.191 111.448 256.255 109.853 260.195 109.853C265.074 109.853 268.325 112.354 268.325 116.327C268.325 118.452 267.73 120.392 264.666 123.237L259.631 127.991H269.042V127.988Z"/><path fill="#000" d="M271.137 121.173C271.137 114.668 276.202 109.853 283.112 109.853C290.022 109.853 295.087 114.638 295.087 121.173C295.087 127.707 289.991 132.492 283.112 132.492C276.233 132.492 271.137 127.677 271.137 121.173ZM289.96 121.173C289.96 117.013 287.021 114.168 283.112 114.168C279.203 114.168 276.263 117.013 276.263 121.173C276.263 125.332 279.203 128.177 283.112 128.177C287.021 128.177 289.96 125.332 289.96 121.173Z"/><path fill="#000" d="M296.743 129.302C296.743 127.488 298.087 126.301 299.777 126.301C301.466 126.301 302.81 127.49 302.81 129.302C302.81 131.114 301.466 132.367 299.777 132.367C298.087 132.367 296.743 131.086 296.743 129.302Z"/><path fill="#000" d="M321.318 122.517V132.117H316.753V130.022C315.848 131.553 314.095 132.367 311.625 132.367C307.685 132.367 305.34 130.177 305.34 127.271C305.34 124.364 307.435 122.237 312.564 122.237H316.44C316.44 120.142 315.189 118.922 312.564 118.922C310.782 118.922 308.938 119.516 307.718 120.486L305.967 117.077C307.812 115.763 310.532 115.046 313.222 115.046C318.351 115.046 321.321 117.421 321.321 122.52L321.318 122.517ZM316.44 126.801V125.082H313.094C310.813 125.082 310.094 125.926 310.094 127.052C310.094 128.271 311.125 129.083 312.844 129.083C314.47 129.083 315.878 128.333 316.44 126.801Z"/><path fill="#000" d="M325.131 110.228C325.131 108.697 326.351 107.508 328.165 107.508C329.979 107.508 331.199 108.634 331.199 110.134C331.199 111.759 329.979 112.948 328.165 112.948C326.351 112.948 325.131 111.759 325.131 110.228ZM325.726 115.293H330.605V132.117H325.726V115.293Z"/><defs><clipPath id="clip0_4723_13036"><rect width="560" height="240" fill="#fff"/></clipPath></defs></svg>