<svg xmlns="http://www.w3.org/2000/svg" width="560" height="240" fill="none" viewBox="0 0 560 240"><g clip-path="url(#clip0_6570_22226)"><rect width="560" height="240" fill="#FFF100"/><g clip-path="url(#clip1_6570_22226)"><rect width="560" height="240" fill="#FFF100"/><path fill="#EDDD0C" d="M224 49.847L224 -0.999985C224 -12.0457 215.046 -21 204 -21L-26 -21C-37.0457 -21 -46 -12.0457 -46 -1.00001L-46 175C-46 186.046 -37.0457 195 -26 195L52.5714 195C63.6171 195 72.5714 186.046 72.5714 175L72.5714 89.8471C72.5714 78.8014 81.5257 69.8471 92.5714 69.8471L204 69.8471C215.046 69.8471 224 60.8927 224 49.847Z"/><path fill="#EDDD0C" d="M501.983 104.352L501.983 -32.9999C501.983 -44.0456 510.937 -52.9999 521.983 -52.9999L546 -52.9999C557.046 -52.9999 566 -44.0456 566 -32.9999L566 257C566 268.046 557.046 277 546 277L320.5 277C309.454 277 300.5 268.046 300.5 257L300.5 207.5C300.5 196.454 309.454 187.5 320.5 187.5L417 187.5C428.046 187.5 437 178.546 437 167.5L437 144.352C437 133.306 445.954 124.352 457 124.352L481.983 124.352C493.029 124.352 501.983 115.398 501.983 104.352Z"/></g><path fill="#FFEF00" d="M269.616 140.056C270.19 141.707 270.052 143.465 269.287 144.993C268.737 146.109 267.949 146.972 266.985 147.744C265.823 148.661 264.378 149.441 262.634 150.19C260.554 151.076 258.016 151.909 256.853 152.215C253.878 152.987 251.019 153.476 248.12 153.499C243.976 153.537 240.404 152.559 237.866 150.06C236.55 150.22 235.22 150.312 233.882 150.312C232.612 150.312 231.358 150.236 230.112 150.083C227.565 152.567 224.009 153.537 219.88 153.499C216.982 153.476 214.122 152.987 211.139 152.215C209.985 151.909 207.446 151.076 205.366 150.19C203.622 149.441 202.177 148.661 201.023 147.744C200.051 146.972 199.264 146.109 198.713 144.993C197.956 143.465 197.811 141.707 198.392 140.056C197.857 138.795 197.719 137.351 198.14 135.754C198.331 135.028 198.644 134.355 199.042 133.759C198.958 133.446 198.889 133.125 198.843 132.773C198.553 130.679 199.279 128.769 200.648 127.286C201.321 126.545 202.047 126.033 202.804 125.704C202.246 123.335 201.955 120.897 201.955 118.406C201.955 100.783 216.248 86.5 233.882 86.5C239.938 86.5 245.604 88.1813 250.437 91.1159C251.309 91.6508 252.165 92.224 252.984 92.8354C253.389 93.141 253.794 93.4544 254.184 93.783C254.582 94.104 254.972 94.4402 255.347 94.7841C256.479 95.8158 257.541 96.9239 258.513 98.1084C258.841 98.4982 259.155 98.9032 259.461 99.3159C260.08 100.134 260.654 100.982 261.181 101.861C261.984 103.175 262.688 104.551 263.3 105.98C263.705 106.935 264.057 107.913 264.37 108.914C264.837 110.412 265.196 111.956 265.441 113.546C265.517 114.073 265.586 114.608 265.639 115.143C265.747 116.213 265.808 117.298 265.808 118.406C265.808 120.867 265.517 123.282 264.974 125.613C265.815 125.941 266.611 126.476 267.352 127.286C268.721 128.769 269.448 130.687 269.157 132.781C269.111 133.125 269.042 133.446 268.958 133.759C269.356 134.355 269.67 135.028 269.861 135.754C270.281 137.351 270.144 138.795 269.616 140.056Z"/><path fill="#000" d="M260.624 118.395C260.624 103.791 248.704 91.9512 234 91.9512C219.296 91.9512 207.376 103.791 207.376 118.395C207.376 133 219.296 144.839 234 144.839C248.704 144.839 260.624 133 260.624 118.395ZM204.312 118.395C204.312 102.109 217.604 88.9072 234 88.9072C250.397 88.9072 263.689 102.109 263.689 118.395C263.689 134.681 250.397 147.883 234 147.883C217.604 147.883 204.312 134.681 204.312 118.395Z"/><path fill="#FFEF00" d="M234 145.075C248.846 145.075 260.881 133.22 260.881 118.596C260.881 103.972 248.846 92.1172 234 92.1172C219.155 92.1172 207.12 103.972 207.12 118.596C207.12 133.22 219.155 145.075 234 145.075Z"/><path fill="#FFEF00" d="M226.954 144.788C229.061 141.752 228.912 139.474 226.02 136.636C223.129 133.798 221.446 129.647 221.446 129.647C221.446 129.647 220.817 127.236 219.385 127.458C217.953 127.679 216.902 131.283 219.901 133.487C222.901 135.691 219.304 137.188 218.15 135.118C216.996 133.048 213.845 127.728 212.211 126.71C210.577 125.692 209.427 126.262 209.812 128.36C210.198 130.458 217.029 135.542 216.364 136.642C215.7 137.742 213.357 135.349 213.357 135.349C213.357 135.349 206.027 128.798 204.431 130.505C202.836 132.212 205.642 133.643 209.642 136.021C213.642 138.398 213.952 139.026 213.385 139.926C212.816 140.825 203.987 133.514 203.158 136.613C202.329 139.713 212.169 140.612 211.561 142.752C210.954 144.892 204.631 138.702 203.337 141.114C202.043 143.526 212.261 146.361 212.343 146.382C215.644 147.223 224.026 149.005 226.954 144.788Z"/><path fill="#000" d="M211.037 123.41C209.8 123.41 208.696 123.91 207.925 124.817C207.449 125.379 206.951 126.285 206.91 127.641C206.392 127.494 205.893 127.412 205.428 127.412C204.244 127.412 203.175 127.859 202.419 128.67C201.448 129.712 201.017 130.992 201.205 132.273C201.294 132.883 201.501 133.43 201.81 133.936C201.158 134.456 200.678 135.179 200.446 136.049C200.264 136.732 200.078 138.152 201.05 139.616C200.988 139.712 200.93 139.811 200.876 139.912C200.291 141.006 200.254 142.242 200.77 143.392C201.553 145.136 203.497 146.511 207.274 147.986C209.623 148.903 211.773 149.49 211.792 149.495C214.898 150.288 217.707 150.692 220.139 150.692C224.609 150.692 227.809 149.343 229.65 146.684C232.614 142.401 232.19 138.484 228.355 134.708C226.233 132.619 224.822 129.538 224.528 128.862C223.935 126.86 222.368 124.635 219.764 124.635H219.763C219.544 124.635 219.323 124.652 219.104 124.686C217.963 124.862 216.966 125.509 216.254 126.483C215.485 125.541 214.738 124.792 214.063 124.369C213.044 123.733 212.026 123.41 211.037 123.41ZM211.037 126.419C211.426 126.419 211.902 126.582 212.426 126.91C214.055 127.927 217.198 133.249 218.348 135.318C218.734 136.012 219.393 136.305 219.986 136.305C221.163 136.305 222.083 135.152 220.094 133.687C217.103 131.483 218.152 127.879 219.58 127.657C219.642 127.648 219.704 127.643 219.764 127.643C221.062 127.643 221.635 129.847 221.635 129.847C221.635 129.847 223.313 133.998 226.196 136.836C229.079 139.675 229.228 141.953 227.127 144.988C225.694 147.058 222.95 147.328 220.139 147.328C217.223 147.328 214.228 146.822 212.553 146.394C212.471 146.373 202.288 143.727 203.578 141.314C203.795 140.909 204.153 140.746 204.602 140.746C206.42 140.746 209.725 143.41 211.146 143.41C211.463 143.41 211.7 143.168 211.792 142.843C212.424 140.601 202.573 139.913 203.4 136.814C203.546 136.265 203.941 136.043 204.497 136.043C206.898 136.043 212.286 140.203 213.415 140.203C213.501 140.203 213.563 140.179 213.597 140.126C214.163 139.226 213.902 138.494 209.914 136.117C205.926 133.738 203.078 132.412 204.67 130.705C204.853 130.508 205.112 130.421 205.428 130.421C207.849 130.421 213.569 135.549 213.569 135.549C213.569 135.549 215.113 137.131 216.047 137.131C216.262 137.131 216.444 137.047 216.568 136.841C217.23 135.742 210.419 130.658 210.035 128.56C209.775 127.138 210.217 126.419 211.037 126.419Z"/><path fill="#FFEF00" d="M240.646 144.788C238.538 141.752 238.688 139.474 241.579 136.636C244.471 133.798 246.154 129.647 246.154 129.647C246.154 129.647 246.783 127.236 248.214 127.458C249.646 127.679 250.698 131.283 247.698 133.487C244.699 135.691 248.296 137.188 249.45 135.118C250.604 133.048 253.755 127.728 255.389 126.71C257.022 125.692 258.172 126.262 257.787 128.36C257.402 130.458 250.571 135.542 251.235 136.642C251.9 137.742 254.243 135.349 254.243 135.349C254.243 135.349 261.572 128.798 263.168 130.505C264.764 132.212 261.957 133.643 257.958 136.021C253.958 138.398 253.648 139.026 254.215 139.926C254.783 140.825 263.612 133.514 264.442 136.613C265.27 139.713 255.431 140.612 256.038 142.752C256.645 144.892 262.969 138.702 264.262 141.114C265.557 143.526 255.339 146.361 255.256 146.382C251.956 147.223 243.574 149.005 240.646 144.788Z"/><path fill="#000" d="M256.964 123.41C258.2 123.41 259.305 123.91 260.075 124.817C260.552 125.379 261.05 126.285 261.09 127.641C261.608 127.494 262.107 127.412 262.573 127.412C263.756 127.412 264.825 127.859 265.581 128.67C266.552 129.712 266.984 130.992 266.796 132.273C266.707 132.883 266.5 133.43 266.19 133.936C266.842 134.456 267.323 135.179 267.555 136.049C267.737 136.732 267.923 138.152 266.95 139.616C267.012 139.712 267.07 139.811 267.124 139.912C267.709 141.006 267.746 142.242 267.23 143.392C266.448 145.136 264.503 146.511 260.727 147.986C258.377 148.903 256.228 149.49 256.209 149.495C253.103 150.288 250.293 150.692 247.862 150.692C243.392 150.692 240.192 149.343 238.35 146.684C235.386 142.401 235.81 138.484 239.645 134.708C241.768 132.619 243.179 129.538 243.473 128.862C244.065 126.86 245.632 124.635 248.237 124.635H248.237C248.456 124.635 248.678 124.652 248.896 124.686C250.037 124.862 251.034 125.509 251.747 126.483C252.515 125.541 253.262 124.792 253.938 124.369C254.956 123.733 255.974 123.41 256.964 123.41ZM256.964 126.419C256.574 126.419 256.099 126.582 255.574 126.91C253.945 127.927 250.803 133.249 249.652 135.318C249.267 136.012 248.608 136.305 248.014 136.305C246.837 136.305 245.918 135.152 247.907 133.687C250.898 131.483 249.848 127.879 248.421 127.657C248.358 127.648 248.296 127.643 248.237 127.643C246.938 127.643 246.366 129.847 246.366 129.847C246.366 129.847 244.688 133.998 241.804 136.836C238.921 139.675 238.772 141.953 240.874 144.988C242.307 147.058 245.05 147.328 247.862 147.328C250.778 147.328 253.772 146.822 255.447 146.394C255.53 146.373 265.712 143.727 264.422 141.314C264.205 140.909 263.848 140.746 263.398 140.746C261.581 140.746 258.276 143.41 256.855 143.41C256.537 143.41 256.3 143.168 256.209 142.843C255.576 140.601 265.428 139.913 264.601 136.814C264.455 136.265 264.059 136.043 263.504 136.043C261.102 136.043 255.715 140.203 254.585 140.203C254.499 140.203 254.437 140.179 254.404 140.126C253.838 139.226 254.098 138.494 258.086 136.117C262.074 133.738 264.923 132.412 263.331 130.705C263.148 130.508 262.888 130.421 262.573 130.421C260.152 130.421 254.431 135.549 254.431 135.549C254.431 135.549 252.887 137.131 251.953 137.131C251.739 137.131 251.556 137.047 251.433 136.841C250.771 135.742 257.582 130.658 257.966 128.56C258.226 127.138 257.783 126.419 256.964 126.419Z"/><path fill="#0E1116" d="M244.031 119.742C244.031 116.369 239.636 121.51 234.201 121.533C228.767 121.511 224.372 116.369 224.372 119.742C224.372 121.979 225.447 125.616 228.334 127.823C228.909 125.856 232.066 124.279 232.517 124.506C233.16 124.828 233.124 125.721 234.201 126.508C235.279 125.721 235.243 124.828 235.885 124.506C236.337 124.279 239.494 125.856 240.068 127.823C242.955 125.616 244.03 121.979 244.03 119.743L244.031 119.742Z"/><path fill="#FF6900" d="M235.728 124.236C235.068 124.583 235.106 125.543 234 126.39C232.895 125.543 232.932 124.583 232.273 124.236C231.809 123.993 228.572 125.688 227.982 127.804C229.48 129.004 231.453 129.81 233.998 129.83C233.999 129.83 233.999 129.83 234 129.83C234.001 129.83 234.002 129.83 234.003 129.83C236.548 129.81 238.521 129.004 240.018 127.804C239.429 125.688 236.191 123.993 235.728 124.236H235.728Z"/><path fill="#000" d="M251.653 114.985C252.983 114.985 254.06 113.818 254.06 112.377C254.06 110.937 252.983 109.77 251.653 109.77C250.324 109.77 249.246 110.937 249.246 112.377C249.246 113.818 250.324 114.985 251.653 114.985Z"/><path fill="#000" d="M216.348 114.985C217.677 114.985 218.755 113.818 218.755 112.377C218.755 110.937 217.677 109.77 216.348 109.77C215.018 109.77 213.94 110.937 213.94 112.377C213.94 113.818 215.018 114.985 216.348 114.985Z"/><path fill="#0E1116" d="M243.28 111.382C244.251 111.742 244.638 113.837 245.619 113.29C247.477 112.253 248.183 109.831 247.195 107.881C246.207 105.93 243.899 105.19 242.041 106.227C240.183 107.264 239.477 109.686 240.465 111.636C240.932 112.557 242.412 111.06 243.28 111.382Z"/><path fill="#0E1116" d="M225.122 111.382C224.151 111.742 223.764 113.837 222.783 113.29C220.925 112.253 220.22 109.831 221.208 107.881C222.196 105.93 224.503 105.19 226.361 106.227C228.219 107.264 228.925 109.686 227.937 111.636C227.47 112.557 225.99 111.06 225.122 111.382Z"/><path fill="#0D0D0D" d="M328.607 153.5C310.074 153.5 295.107 138.533 295.107 120C295.107 101.467 310.074 86.5 328.607 86.5C347.141 86.5 362.107 101.467 362.107 120C362.107 138.533 347.141 153.5 328.607 153.5Z"/><path fill="#FFF100" d="M346.52 115.03H339.948V124.948H346.52C349.245 124.948 351.509 122.684 351.509 119.959C351.509 117.214 349.245 115.03 346.52 115.03Z"/><path fill="#FFF100" d="M307.749 120C307.749 127.654 313.98 133.885 321.634 133.885C329.288 133.885 335.519 127.654 335.519 120C335.519 112.346 329.288 106.115 321.634 106.115C313.98 106.115 307.749 112.346 307.749 120Z"/></g><defs><clipPath id="clip0_6570_22226"><rect width="560" height="240" fill="#fff"/></clipPath><clipPath id="clip1_6570_22226"><rect width="560" height="240" fill="#fff"/></clipPath></defs></svg>