<svg width="1200" height="515" viewBox="0 0 1200 515" fill="none" xmlns="http://www.w3.org/2000/svg">
<g clip-path="url(#clip0_10265_19578)">
<rect width="1200" height="515" fill="url(#paint0_linear_10265_19578)"/>
<g clip-path="url(#clip1_10265_19578)">
<rect width="1200" height="515" fill="url(#paint1_linear_10265_19578)"/>
<path d="M-101.995 -493.005L558.809 -493.005C613.902 -493.005 658.563 -448.343 658.563 -393.251L658.563 -339.996C658.563 -284.904 613.902 -240.242 558.809 -240.242L336.823 -240.243C281.73 -240.243 237.069 -195.581 237.069 -140.489L237.069 349.751C237.069 404.843 192.408 449.504 137.316 449.504L-29.4942 449.504" stroke="#F0DF09" stroke-width="2.9926"/>
<path d="M1315 268L1090.79 268C1054.67 268 1025.4 238.725 1025.4 202.614C1025.4 166.502 996.124 137.227 960.012 137.227L802.253 137.227C747.161 137.227 702.5 92.5661 702.5 37.4738L702.5 -101.076C702.5 -156.168 747.161 -200.829 802.254 -200.829L900.74 -200.829C955.833 -200.829 1000.49 -245.49 1000.49 -300.582L1000.49 -388" stroke="#F0DF09" stroke-width="2.9926"/>
<path d="M616.504 703C616.504 703.826 617.174 704.496 618 704.496C618.826 704.496 619.496 703.826 619.496 703L618 703L616.504 703ZM393.058 282.942C392.474 282.358 391.526 282.358 390.942 282.942L381.42 292.464C380.835 293.049 380.835 293.996 381.42 294.58C382.004 295.165 382.951 295.165 383.536 294.58L392 286.116L400.464 294.58C401.049 295.165 401.996 295.165 402.58 294.58C403.165 293.996 403.165 293.049 402.58 292.464L393.058 282.942ZM618 703L619.496 703L619.496 596.725L618 596.725L616.504 596.725L616.504 703L618 703ZM514.944 493.669L514.944 492.173L495.055 492.173L495.055 493.669L495.055 495.165L514.944 495.165L514.944 493.669ZM392 390.613L393.496 390.613L393.496 284L392 284L390.504 284L390.504 390.613L392 390.613ZM495.055 493.669L495.055 492.173C438.966 492.173 393.496 446.703 393.496 390.613L392 390.613L390.504 390.613C390.504 448.356 437.313 495.165 495.055 495.165L495.055 493.669ZM618 596.725L619.496 596.725C619.496 538.982 572.687 492.173 514.944 492.173L514.944 493.669L514.944 495.165C571.034 495.165 616.504 540.635 616.504 596.725L618 596.725Z" fill="#F0DF09"/>
<path d="M1228.55 416.067L251.836 416.071C196.743 416.071 152.082 371.41 152.082 316.318L152.082 263.063C152.082 207.97 196.743 163.309 251.835 163.309L473.822 163.309C528.914 163.309 573.575 118.648 573.575 63.556L573.575 -426.684C573.575 -481.776 618.237 -526.437 673.329 -526.437L777.936 -526.437" stroke="#F0DF09" stroke-width="2.9926"/>
<rect x="246.93" y="73.386" width="19.7508" height="41.4254" rx="9.87539" transform="rotate(-180 246.93 73.386)" fill="#D4C50B" stroke="#F0DF09" stroke-width="1.92382"/>
<path d="M1200.38 63.4938C1201.2 63.4938 1201.87 62.8239 1201.87 61.9975C1201.87 61.1712 1201.2 60.5012 1200.37 60.5012L1200.38 61.9975L1200.38 63.4938ZM813.442 60.9412C812.858 61.5256 812.858 62.473 813.442 63.0573L822.964 72.5797C823.549 73.164 824.496 73.164 825.081 72.5797C825.665 71.9953 825.665 71.0479 825.08 70.4636L816.616 61.9993L825.08 53.5349C825.665 52.9505 825.665 52.0031 825.08 51.4188C824.496 50.8344 823.549 50.8344 822.964 51.4188L813.442 60.9412ZM1200.38 61.9975L1200.37 60.5012L814.5 60.503L814.5 61.9993L814.5 63.4956L1200.38 63.4938L1200.38 61.9975Z" fill="#F0DF09"/>
<path d="M1005.5 614.375C1005.5 615.201 1006.17 615.871 1007 615.871C1007.83 615.871 1008.5 615.201 1008.5 614.375L1007 614.375L1005.5 614.375ZM1008.06 444.942C1007.47 444.358 1006.53 444.358 1005.94 444.942L996.42 454.464C995.835 455.049 995.835 455.996 996.42 456.58C997.004 457.165 997.951 457.165 998.536 456.58L1007 448.116L1015.46 456.58C1016.05 457.165 1017 457.165 1017.58 456.58C1018.16 455.996 1018.16 455.049 1017.58 454.464L1008.06 444.942ZM1007 614.375L1008.5 614.375L1008.5 446L1007 446L1005.5 446L1005.5 614.375L1007 614.375Z" fill="#F0DF09"/>
<path d="M313 -80C313 -29.1898 354.19 12 405 12L679.88 12C734.972 12 779.633 56.6612 779.633 111.753L779.633 239.747C779.633 294.84 824.294 339.501 879.386 339.501L1211 339.501" stroke="#F0DF09" stroke-width="2.9926"/>
<rect x="1081.96" y="428.038" width="25.0762" height="51.0762" rx="12.5381" transform="rotate(-90 1081.96 428.038)" fill="#D4C50B" stroke="#F0DF09" stroke-width="1.92382"/>
<path d="M740.14 480V461.856H734.54V459.56H748.26V461.856H742.66V480H740.14ZM756.929 480V472.356L750.769 459.56H753.457L757.433 467.96C757.657 468.427 757.834 468.828 757.965 469.164C758.096 469.481 758.18 469.715 758.217 469.864C758.254 469.715 758.338 469.481 758.469 469.164C758.618 468.828 758.805 468.427 759.029 467.96L763.005 459.56H765.609L759.449 472.356V480H756.929ZM769.154 480V459.56H775.734C777.003 459.56 778.105 459.812 779.038 460.316C779.971 460.801 780.69 461.492 781.194 462.388C781.717 463.284 781.978 464.348 781.978 465.58C781.978 466.793 781.717 467.857 781.194 468.772C780.69 469.668 779.971 470.368 779.038 470.872C778.105 471.357 777.003 471.6 775.734 471.6H771.674V480H769.154ZM771.674 469.332H775.734C776.835 469.332 777.713 468.996 778.366 468.324C779.038 467.633 779.374 466.719 779.374 465.58C779.374 464.423 779.038 463.508 778.366 462.836C777.713 462.164 776.835 461.828 775.734 461.828H771.674V469.332ZM786.167 480V459.56H797.927V461.856H788.659V468.184H796.947V470.424H788.659V477.704H797.927V480H786.167ZM819.325 480V477.704H824.785V466.896H819.885V464.6H827.305V477.704H832.485V480H819.325ZM825.765 461.828C825.149 461.828 824.664 461.669 824.309 461.352C823.955 461.035 823.777 460.605 823.777 460.064C823.777 459.504 823.955 459.065 824.309 458.748C824.664 458.412 825.149 458.244 825.765 458.244C826.381 458.244 826.867 458.412 827.221 458.748C827.576 459.065 827.753 459.504 827.753 460.064C827.753 460.605 827.576 461.035 827.221 461.352C826.867 461.669 826.381 461.828 825.765 461.828ZM842.358 480.28C841.126 480.28 840.044 480.047 839.11 479.58C838.196 479.113 837.477 478.441 836.954 477.564C836.45 476.668 836.198 475.613 836.198 474.4V470.2C836.198 468.968 836.45 467.913 836.954 467.036C837.477 466.159 838.196 465.487 839.11 465.02C840.044 464.553 841.126 464.32 842.358 464.32C844.132 464.32 845.56 464.796 846.642 465.748C847.744 466.7 848.322 467.997 848.378 469.64H845.858C845.802 468.651 845.466 467.895 844.85 467.372C844.234 466.831 843.404 466.56 842.358 466.56C841.257 466.56 840.37 466.877 839.698 467.512C839.045 468.128 838.718 469.015 838.718 470.172V474.4C838.718 475.557 839.045 476.453 839.698 477.088C840.37 477.723 841.257 478.04 842.358 478.04C843.404 478.04 844.234 477.769 844.85 477.228C845.466 476.687 845.802 475.931 845.858 474.96H848.378C848.322 476.603 847.744 477.9 846.642 478.852C845.56 479.804 844.132 480.28 842.358 480.28ZM858.923 480.28C857.71 480.28 856.646 480.037 855.731 479.552C854.835 479.048 854.135 478.339 853.631 477.424C853.127 476.491 852.875 475.389 852.875 474.12V470.48C852.875 469.192 853.127 468.091 853.631 467.176C854.135 466.261 854.835 465.561 855.731 465.076C856.646 464.572 857.71 464.32 858.923 464.32C860.137 464.32 861.191 464.563 862.087 465.048C863.002 465.533 863.711 466.215 864.215 467.092C864.719 467.969 864.971 469.005 864.971 470.2V472.944H855.339V474.4C855.339 475.539 855.666 476.444 856.319 477.116C856.973 477.769 857.841 478.096 858.923 478.096C859.857 478.096 860.622 477.919 861.219 477.564C861.835 477.191 862.209 476.696 862.339 476.08H864.859C864.691 477.368 864.066 478.395 862.983 479.16C861.901 479.907 860.547 480.28 858.923 480.28ZM862.507 471.236V470.2C862.507 468.987 862.19 468.053 861.555 467.4C860.939 466.728 860.062 466.392 858.923 466.392C857.785 466.392 856.898 466.728 856.263 467.4C855.647 468.053 855.339 468.987 855.339 470.2V470.984H862.703L862.507 471.236ZM876.609 480.28C875.339 480.28 874.322 479.944 873.557 479.272C872.791 478.581 872.409 477.648 872.409 476.472L872.913 477.06H872.409V480H869.889V459.56H872.409V464.04L872.353 467.54H872.913L872.353 468.128C872.353 466.971 872.745 466.047 873.529 465.356C874.331 464.665 875.358 464.32 876.609 464.32C878.158 464.32 879.39 464.833 880.305 465.86C881.219 466.887 881.677 468.287 881.677 470.06V474.568C881.677 476.323 881.219 477.713 880.305 478.74C879.39 479.767 878.158 480.28 876.609 480.28ZM875.769 478.096C876.833 478.096 877.663 477.816 878.261 477.256C878.858 476.696 879.157 475.791 879.157 474.54V470.06C879.157 468.791 878.858 467.885 878.261 467.344C877.663 466.784 876.833 466.504 875.769 466.504C874.742 466.504 873.921 466.831 873.305 467.484C872.707 468.137 872.409 469.043 872.409 470.2V474.4C872.409 475.557 872.707 476.463 873.305 477.116C873.921 477.769 874.742 478.096 875.769 478.096ZM892.502 480.28C891.288 480.28 890.224 480.037 889.31 479.552C888.414 479.048 887.714 478.339 887.21 477.424C886.706 476.491 886.454 475.389 886.454 474.12V470.48C886.454 469.192 886.706 468.091 887.21 467.176C887.714 466.261 888.414 465.561 889.31 465.076C890.224 464.572 891.288 464.32 892.502 464.32C893.715 464.32 894.77 464.563 895.666 465.048C896.58 465.533 897.29 466.215 897.794 467.092C898.298 467.969 898.55 469.005 898.55 470.2V472.944H888.918V474.4C888.918 475.539 889.244 476.444 889.898 477.116C890.551 477.769 891.419 478.096 892.502 478.096C893.435 478.096 894.2 477.919 894.798 477.564C895.414 477.191 895.787 476.696 895.918 476.08H898.438C898.27 477.368 897.644 478.395 896.562 479.16C895.479 479.907 894.126 480.28 892.502 480.28ZM896.086 471.236V470.2C896.086 468.987 895.768 468.053 895.134 467.4C894.518 466.728 893.64 466.392 892.502 466.392C891.363 466.392 890.476 466.728 889.842 467.4C889.226 468.053 888.918 468.987 888.918 470.2V470.984H896.282L896.086 471.236ZM904.027 480V464.6H906.547V467.54H907.079L906.547 468.212C906.547 467.017 906.911 466.075 907.639 465.384C908.385 464.675 909.412 464.32 910.719 464.32C912.324 464.32 913.556 464.805 914.415 465.776C915.292 466.728 915.731 468.091 915.731 469.864V471.18H913.211V469.864C913.211 468.725 912.931 467.885 912.371 467.344C911.811 466.784 910.999 466.504 909.935 466.504C908.833 466.504 907.993 466.821 907.415 467.456C906.836 468.091 906.547 469.005 906.547 470.2V480H904.027ZM922.188 485.04V482.744H926.528C927.405 482.744 928.096 482.492 928.6 481.988C929.104 481.503 929.356 480.84 929.356 480V478.6L929.412 476.08H928.908L929.384 475.38C929.384 476.5 929.01 477.377 928.264 478.012C927.517 478.628 926.518 478.936 925.268 478.936C923.681 478.936 922.43 478.432 921.516 477.424C920.601 476.416 920.144 475.035 920.144 473.28V470.032C920.144 468.277 920.601 466.887 921.516 465.86C922.43 464.833 923.681 464.32 925.268 464.32C926.518 464.32 927.517 464.647 928.264 465.3C929.01 465.953 929.384 466.84 929.384 467.96L928.908 467.26H929.384V464.6H931.876V480C931.876 481.549 931.39 482.772 930.42 483.668C929.468 484.583 928.161 485.04 926.5 485.04H922.188ZM926.024 476.836C927.069 476.836 927.89 476.509 928.488 475.856C929.085 475.203 929.384 474.297 929.384 473.14V470.2C929.384 469.043 929.085 468.137 928.488 467.484C927.89 466.831 927.069 466.504 926.024 466.504C924.96 466.504 924.129 466.812 923.532 467.428C922.953 468.044 922.664 468.875 922.664 469.92V473.42C922.664 474.465 922.953 475.296 923.532 475.912C924.129 476.528 924.96 476.836 926.024 476.836ZM940.349 484.48L941.889 475.912H944.913L942.953 484.48H940.349Z" fill="#F3E223"/>
<path d="M252.357 115V112.704H257.817V101.896H252.917V99.6H260.337V112.704H265.517V115H252.357ZM258.797 96.828C258.181 96.828 257.695 96.6693 257.341 96.352C256.986 96.0347 256.809 95.6053 256.809 95.064C256.809 94.504 256.986 94.0653 257.341 93.748C257.695 93.412 258.181 93.244 258.797 93.244C259.413 93.244 259.898 93.412 260.253 93.748C260.607 94.0653 260.785 94.504 260.785 95.064C260.785 95.6053 260.607 96.0347 260.253 96.352C259.898 96.6693 259.413 96.828 258.797 96.828ZM275.39 115.28C274.158 115.28 273.075 115.047 272.142 114.58C271.227 114.113 270.508 113.441 269.986 112.564C269.482 111.668 269.23 110.613 269.23 109.4V105.2C269.23 103.968 269.482 102.913 269.986 102.036C270.508 101.159 271.227 100.487 272.142 100.02C273.075 99.5533 274.158 99.32 275.39 99.32C277.163 99.32 278.591 99.796 279.674 100.748C280.775 101.7 281.354 102.997 281.41 104.64H278.89C278.834 103.651 278.498 102.895 277.882 102.372C277.266 101.831 276.435 101.56 275.39 101.56C274.288 101.56 273.402 101.877 272.73 102.512C272.076 103.128 271.75 104.015 271.75 105.172V109.4C271.75 110.557 272.076 111.453 272.73 112.088C273.402 112.723 274.288 113.04 275.39 113.04C276.435 113.04 277.266 112.769 277.882 112.228C278.498 111.687 278.834 110.931 278.89 109.96H281.41C281.354 111.603 280.775 112.9 279.674 113.852C278.591 114.804 277.163 115.28 275.39 115.28ZM291.955 115.28C290.741 115.28 289.677 115.037 288.763 114.552C287.867 114.048 287.167 113.339 286.663 112.424C286.159 111.491 285.907 110.389 285.907 109.12V105.48C285.907 104.192 286.159 103.091 286.663 102.176C287.167 101.261 287.867 100.561 288.763 100.076C289.677 99.572 290.741 99.32 291.955 99.32C293.168 99.32 294.223 99.5627 295.119 100.048C296.033 100.533 296.743 101.215 297.247 102.092C297.751 102.969 298.003 104.005 298.003 105.2V107.944H288.371V109.4C288.371 110.539 288.697 111.444 289.351 112.116C290.004 112.769 290.872 113.096 291.955 113.096C292.888 113.096 293.653 112.919 294.251 112.564C294.867 112.191 295.24 111.696 295.371 111.08H297.891C297.723 112.368 297.097 113.395 296.015 114.16C294.932 114.907 293.579 115.28 291.955 115.28ZM295.539 106.236V105.2C295.539 103.987 295.221 103.053 294.587 102.4C293.971 101.728 293.093 101.392 291.955 101.392C290.816 101.392 289.929 101.728 289.295 102.4C288.679 103.053 288.371 103.987 288.371 105.2V105.984H295.735L295.539 106.236ZM309.64 115.28C308.37 115.28 307.353 114.944 306.588 114.272C305.822 113.581 305.44 112.648 305.44 111.472L305.944 112.06H305.44V115H302.92V94.56H305.44V99.04L305.384 102.54H305.944L305.384 103.128C305.384 101.971 305.776 101.047 306.56 100.356C307.362 99.6653 308.389 99.32 309.64 99.32C311.189 99.32 312.421 99.8333 313.336 100.86C314.25 101.887 314.708 103.287 314.708 105.06V109.568C314.708 111.323 314.25 112.713 313.336 113.74C312.421 114.767 311.189 115.28 309.64 115.28ZM308.8 113.096C309.864 113.096 310.694 112.816 311.292 112.256C311.889 111.696 312.188 110.791 312.188 109.54V105.06C312.188 103.791 311.889 102.885 311.292 102.344C310.694 101.784 309.864 101.504 308.8 101.504C307.773 101.504 306.952 101.831 306.336 102.484C305.738 103.137 305.44 104.043 305.44 105.2V109.4C305.44 110.557 305.738 111.463 306.336 112.116C306.952 112.769 307.773 113.096 308.8 113.096ZM325.533 115.28C324.319 115.28 323.255 115.037 322.341 114.552C321.445 114.048 320.745 113.339 320.241 112.424C319.737 111.491 319.485 110.389 319.485 109.12V105.48C319.485 104.192 319.737 103.091 320.241 102.176C320.745 101.261 321.445 100.561 322.341 100.076C323.255 99.572 324.319 99.32 325.533 99.32C326.746 99.32 327.801 99.5627 328.697 100.048C329.611 100.533 330.321 101.215 330.825 102.092C331.329 102.969 331.581 104.005 331.581 105.2V107.944H321.949V109.4C321.949 110.539 322.275 111.444 322.929 112.116C323.582 112.769 324.45 113.096 325.533 113.096C326.466 113.096 327.231 112.919 327.829 112.564C328.445 112.191 328.818 111.696 328.949 111.08H331.469C331.301 112.368 330.675 113.395 329.593 114.16C328.51 114.907 327.157 115.28 325.533 115.28ZM329.117 106.236V105.2C329.117 103.987 328.799 103.053 328.165 102.4C327.549 101.728 326.671 101.392 325.533 101.392C324.394 101.392 323.507 101.728 322.873 102.4C322.257 103.053 321.949 103.987 321.949 105.2V105.984H329.313L329.117 106.236ZM337.058 115V99.6H339.578V102.54H340.11L339.578 103.212C339.578 102.017 339.942 101.075 340.67 100.384C341.417 99.6747 342.443 99.32 343.75 99.32C345.355 99.32 346.587 99.8053 347.446 100.776C348.323 101.728 348.762 103.091 348.762 104.864V106.18H346.242V104.864C346.242 103.725 345.962 102.885 345.402 102.344C344.842 101.784 344.03 101.504 342.966 101.504C341.865 101.504 341.025 101.821 340.446 102.456C339.867 103.091 339.578 104.005 339.578 105.2V115H337.058ZM355.219 120.04V117.744H359.559C360.436 117.744 361.127 117.492 361.631 116.988C362.135 116.503 362.387 115.84 362.387 115V113.6L362.443 111.08H361.939L362.415 110.38C362.415 111.5 362.042 112.377 361.295 113.012C360.548 113.628 359.55 113.936 358.299 113.936C356.712 113.936 355.462 113.432 354.547 112.424C353.632 111.416 353.175 110.035 353.175 108.28V105.032C353.175 103.277 353.632 101.887 354.547 100.86C355.462 99.8333 356.712 99.32 358.299 99.32C359.55 99.32 360.548 99.6467 361.295 100.3C362.042 100.953 362.415 101.84 362.415 102.96L361.939 102.26H362.415V99.6H364.907V115C364.907 116.549 364.422 117.772 363.451 118.668C362.499 119.583 361.192 120.04 359.531 120.04H355.219ZM359.055 111.836C360.1 111.836 360.922 111.509 361.519 110.856C362.116 110.203 362.415 109.297 362.415 108.14V105.2C362.415 104.043 362.116 103.137 361.519 102.484C360.922 101.831 360.1 101.504 359.055 101.504C357.991 101.504 357.16 101.812 356.563 102.428C355.984 103.044 355.695 103.875 355.695 104.92V108.42C355.695 109.465 355.984 110.296 356.563 110.912C357.16 111.528 357.991 111.836 359.055 111.836ZM369.18 117.8V115.7H382.62V117.8H369.18ZM392.913 115.28C391.681 115.28 390.598 115.047 389.665 114.58C388.75 114.113 388.032 113.441 387.509 112.564C387.005 111.668 386.753 110.613 386.753 109.4V105.2C386.753 103.968 387.005 102.913 387.509 102.036C388.032 101.159 388.75 100.487 389.665 100.02C390.598 99.5533 391.681 99.32 392.913 99.32C394.686 99.32 396.114 99.796 397.197 100.748C398.298 101.7 398.877 102.997 398.933 104.64H396.413C396.357 103.651 396.021 102.895 395.405 102.372C394.789 101.831 393.958 101.56 392.913 101.56C391.812 101.56 390.925 101.877 390.253 102.512C389.6 103.128 389.273 104.015 389.273 105.172V109.4C389.273 110.557 389.6 111.453 390.253 112.088C390.925 112.723 391.812 113.04 392.913 113.04C393.958 113.04 394.789 112.769 395.405 112.228C396.021 111.687 396.357 110.931 396.413 109.96H398.933C398.877 111.603 398.298 112.9 397.197 113.852C396.114 114.804 394.686 115.28 392.913 115.28ZM408.134 115.28C406.547 115.28 405.287 114.841 404.354 113.964C403.421 113.068 402.954 111.901 402.954 110.464C402.954 109.512 403.169 108.681 403.598 107.972C404.027 107.263 404.625 106.712 405.39 106.32C406.155 105.909 407.033 105.704 408.022 105.704H412.782V104.5C412.782 103.492 412.511 102.745 411.97 102.26C411.429 101.756 410.607 101.504 409.506 101.504C408.535 101.504 407.751 101.681 407.154 102.036C406.557 102.391 406.239 102.885 406.202 103.52H403.682C403.775 102.307 404.335 101.308 405.362 100.524C406.407 99.7213 407.789 99.32 409.506 99.32C411.373 99.32 412.801 99.768 413.79 100.664C414.798 101.56 415.302 102.811 415.302 104.416V115H412.81V112.2H412.39L412.782 111.64C412.782 112.387 412.595 113.031 412.222 113.572C411.849 114.113 411.317 114.533 410.626 114.832C409.935 115.131 409.105 115.28 408.134 115.28ZM408.75 113.152C409.982 113.152 410.962 112.853 411.69 112.256C412.418 111.659 412.782 110.847 412.782 109.82V107.664H408.302C407.481 107.664 406.809 107.916 406.286 108.42C405.782 108.905 405.53 109.559 405.53 110.38C405.53 111.239 405.81 111.92 406.37 112.424C406.949 112.909 407.742 113.152 408.75 113.152ZM427.807 115C426.538 115 425.521 114.636 424.755 113.908C423.99 113.161 423.607 112.172 423.607 110.94V101.896H419.183V99.6H423.607V95.26H426.127V99.6H432.427V101.896H426.127V110.94C426.127 111.463 426.277 111.892 426.575 112.228C426.893 112.545 427.303 112.704 427.807 112.704H432.287V115H427.807ZM441.712 115.28C440.126 115.28 438.866 114.841 437.932 113.964C436.999 113.068 436.532 111.901 436.532 110.464C436.532 109.512 436.747 108.681 437.176 107.972C437.606 107.263 438.203 106.712 438.968 106.32C439.734 105.909 440.611 105.704 441.6 105.704H446.36V104.5C446.36 103.492 446.09 102.745 445.548 102.26C445.007 101.756 444.186 101.504 443.084 101.504C442.114 101.504 441.33 101.681 440.732 102.036C440.135 102.391 439.818 102.885 439.78 103.52H437.26C437.354 102.307 437.914 101.308 438.94 100.524C439.986 99.7213 441.367 99.32 443.084 99.32C444.951 99.32 446.379 99.768 447.368 100.664C448.376 101.56 448.88 102.811 448.88 104.416V115H446.388V112.2H445.968L446.36 111.64C446.36 112.387 446.174 113.031 445.8 113.572C445.427 114.113 444.895 114.533 444.204 114.832C443.514 115.131 442.683 115.28 441.712 115.28ZM442.328 113.152C443.56 113.152 444.54 112.853 445.268 112.256C445.996 111.659 446.36 110.847 446.36 109.82V107.664H441.88C441.059 107.664 440.387 107.916 439.864 108.42C439.36 108.905 439.108 109.559 439.108 110.38C439.108 111.239 439.388 111.92 439.948 112.424C440.527 112.909 441.32 113.152 442.328 113.152ZM462.085 115C461.189 115 460.405 114.823 459.733 114.468C459.061 114.113 458.539 113.609 458.165 112.956C457.792 112.303 457.605 111.537 457.605 110.66V96.856H452.285V94.56H460.125V110.66C460.125 111.295 460.303 111.799 460.657 112.172C461.012 112.527 461.488 112.704 462.085 112.704H466.845V115H462.085ZM476.634 115.224C475.402 115.224 474.329 114.981 473.414 114.496C472.518 114.011 471.818 113.311 471.314 112.396C470.829 111.463 470.586 110.352 470.586 109.064V105.536C470.586 104.229 470.829 103.119 471.314 102.204C471.818 101.289 472.518 100.589 473.414 100.104C474.329 99.6187 475.402 99.376 476.634 99.376C477.885 99.376 478.958 99.6187 479.854 100.104C480.75 100.589 481.441 101.289 481.926 102.204C482.43 103.119 482.682 104.229 482.682 105.536V109.064C482.682 110.352 482.43 111.463 481.926 112.396C481.441 113.311 480.741 114.011 479.826 114.496C478.93 114.981 477.866 115.224 476.634 115.224ZM476.634 112.984C477.736 112.984 478.594 112.676 479.21 112.06C479.845 111.444 480.162 110.539 480.162 109.344V105.256C480.162 104.061 479.845 103.156 479.21 102.54C478.594 101.924 477.736 101.616 476.634 101.616C475.552 101.616 474.693 101.924 474.058 102.54C473.424 103.156 473.106 104.061 473.106 105.256V109.344C473.106 110.539 473.424 111.444 474.058 112.06C474.693 112.676 475.552 112.984 476.634 112.984ZM489.531 120.04V117.744H493.871C494.749 117.744 495.439 117.492 495.943 116.988C496.447 116.503 496.699 115.84 496.699 115V113.6L496.755 111.08H496.251L496.727 110.38C496.727 111.5 496.354 112.377 495.607 113.012C494.861 113.628 493.862 113.936 492.611 113.936C491.025 113.936 489.774 113.432 488.859 112.424C487.945 111.416 487.487 110.035 487.487 108.28V105.032C487.487 103.277 487.945 101.887 488.859 100.86C489.774 99.8333 491.025 99.32 492.611 99.32C493.862 99.32 494.861 99.6467 495.607 100.3C496.354 100.953 496.727 101.84 496.727 102.96L496.251 102.26H496.727V99.6H499.219V115C499.219 116.549 498.734 117.772 497.763 118.668C496.811 119.583 495.505 120.04 493.843 120.04H489.531ZM493.367 111.836C494.413 111.836 495.234 111.509 495.831 110.856C496.429 110.203 496.727 109.297 496.727 108.14V105.2C496.727 104.043 496.429 103.137 495.831 102.484C495.234 101.831 494.413 101.504 493.367 101.504C492.303 101.504 491.473 101.812 490.875 102.428C490.297 103.044 490.007 103.875 490.007 104.92V108.42C490.007 109.465 490.297 110.296 490.875 110.912C491.473 111.528 492.303 111.836 493.367 111.836Z" fill="#F3E223"/>
<path d="M269.512 480.28C268.205 480.28 267.057 480.047 266.068 479.58C265.097 479.113 264.341 478.441 263.8 477.564C263.277 476.668 263.016 475.613 263.016 474.4H265.536C265.536 475.539 265.9 476.435 266.628 477.088C267.356 477.723 268.317 478.04 269.512 478.04C270.669 478.04 271.593 477.704 272.284 477.032C272.975 476.36 273.32 475.483 273.32 474.4C273.32 473.579 273.096 472.869 272.648 472.272C272.219 471.656 271.593 471.236 270.772 471.012L267.664 470.144C266.376 469.771 265.359 469.108 264.612 468.156C263.884 467.185 263.52 466.047 263.52 464.74C263.52 463.657 263.763 462.705 264.248 461.884C264.733 461.063 265.415 460.428 266.292 459.98C267.169 459.513 268.177 459.28 269.316 459.28C270.473 459.28 271.491 459.513 272.368 459.98C273.264 460.428 273.964 461.063 274.468 461.884C274.972 462.687 275.224 463.62 275.224 464.684H272.704C272.704 463.751 272.387 462.995 271.752 462.416C271.117 461.819 270.305 461.52 269.316 461.52C268.327 461.52 267.524 461.819 266.908 462.416C266.292 462.995 265.984 463.751 265.984 464.684C265.984 465.431 266.18 466.075 266.572 466.616C266.983 467.139 267.552 467.503 268.28 467.708L271.472 468.604C272.835 468.977 273.889 469.687 274.636 470.732C275.401 471.759 275.784 472.981 275.784 474.4C275.784 475.595 275.523 476.631 275 477.508C274.496 478.385 273.768 479.067 272.816 479.552C271.883 480.037 270.781 480.28 269.512 480.28ZM280.589 480V459.56H292.349V461.856H283.081V468.184H291.369V470.424H283.081V477.704H292.349V480H280.589ZM298.218 480V459.56H300.738V477.704H309.978V480H298.218ZM314.167 480V459.56H325.927V461.856H316.659V468.184H324.947V470.424H316.659V477.704H325.927V480H314.167ZM336.78 480.28C335.548 480.28 334.475 480.047 333.56 479.58C332.664 479.113 331.964 478.441 331.46 477.564C330.975 476.668 330.732 475.613 330.732 474.4V465.16C330.732 463.928 330.975 462.873 331.46 461.996C331.964 461.119 332.664 460.447 333.56 459.98C334.475 459.513 335.548 459.28 336.78 459.28C338.012 459.28 339.076 459.523 339.972 460.008C340.868 460.475 341.559 461.147 342.044 462.024C342.53 462.901 342.772 463.947 342.772 465.16H340.252C340.252 464.003 339.944 463.116 339.328 462.5C338.731 461.865 337.882 461.548 336.78 461.548C335.679 461.548 334.811 461.865 334.176 462.5C333.56 463.116 333.252 464.003 333.252 465.16V474.4C333.252 475.557 333.56 476.453 334.176 477.088C334.811 477.704 335.679 478.012 336.78 478.012C337.882 478.012 338.731 477.704 339.328 477.088C339.944 476.453 340.252 475.557 340.252 474.4H342.772C342.772 475.595 342.53 476.64 342.044 477.536C341.559 478.413 340.868 479.095 339.972 479.58C339.076 480.047 338.012 480.28 336.78 480.28ZM352.085 480V461.856H346.485V459.56H360.205V461.856H354.605V480H352.085Z" fill="#F3E223"/>
<path d="M49.58 396.36C46.9107 395.763 44.8387 394.512 43.364 392.608C41.908 390.704 41.18 388.315 41.18 385.44V380.4C41.18 377.525 41.908 375.136 43.364 373.232C44.8387 371.328 46.9107 370.077 49.58 369.48V371.916C48.3853 372.196 47.34 372.728 46.444 373.512C45.5667 374.296 44.8853 375.276 44.4 376.452C43.9333 377.609 43.7 378.925 43.7 380.4V385.44C43.7 386.896 43.9333 388.212 44.4 389.388C44.8853 390.564 45.5667 391.544 46.444 392.328C47.34 393.112 48.3853 393.644 49.58 393.924V396.36ZM56.0091 396.36V393.924C57.2224 393.644 58.2677 393.112 59.1451 392.328C60.0224 391.544 60.6944 390.564 61.1611 389.388C61.6464 388.212 61.8891 386.896 61.8891 385.44V380.4C61.8891 378.925 61.6464 377.609 61.1611 376.452C60.6944 375.276 60.0224 374.296 59.1451 373.512C58.2677 372.728 57.2224 372.196 56.0091 371.916V369.48C58.6784 370.077 60.7411 371.328 62.1971 373.232C63.6717 375.136 64.4091 377.525 64.4091 380.4V385.44C64.4091 388.315 63.6717 390.704 62.1971 392.608C60.7411 394.512 58.6784 395.763 56.0091 396.36ZM77.6981 381.52C77.0821 381.52 76.5781 381.324 76.1861 380.932C75.7941 380.54 75.5981 380.036 75.5981 379.42C75.5981 378.823 75.7941 378.328 76.1861 377.936C76.5968 377.525 77.1008 377.32 77.6981 377.32H78.2581C78.8555 377.32 79.3501 377.525 79.7421 377.936C80.1528 378.328 80.3581 378.823 80.3581 379.42C80.3581 380.036 80.1621 380.54 79.7701 380.932C79.3781 381.324 78.8741 381.52 78.2581 381.52H77.6981ZM75.3181 397.48L76.8581 388.912H79.8821L77.9221 397.48H75.3181Z" fill="#F3E223"/>
<path d="M1038.14 160L1032.88 139.56H1035.45L1038.95 153.476C1039.2 154.447 1039.39 155.343 1039.54 156.164C1039.71 156.985 1039.83 157.611 1039.9 158.04C1039.98 157.611 1040.1 156.985 1040.27 156.164C1040.46 155.324 1040.67 154.419 1040.91 153.448L1044.27 139.56H1046.88L1041.58 160H1038.14ZM1051.07 160V139.56H1062.83V141.856H1053.56V148.184H1061.85V150.424H1053.56V157.704H1062.83V160H1051.07ZM1067.66 160V139.56H1073.96C1075.17 139.56 1076.24 139.812 1077.15 140.316C1078.07 140.801 1078.77 141.483 1079.28 142.36C1079.78 143.237 1080.03 144.264 1080.03 145.44C1080.03 146.821 1079.68 148.007 1078.97 148.996C1078.26 149.985 1077.32 150.676 1076.14 151.068L1080.31 160H1077.54L1073.54 151.32H1070.15V160H1067.66ZM1070.15 149.052H1073.96C1075 149.052 1075.84 148.725 1076.48 148.072C1077.11 147.4 1077.43 146.523 1077.43 145.44C1077.43 144.339 1077.11 143.461 1076.48 142.808C1075.84 142.155 1075 141.828 1073.96 141.828H1070.15V149.052ZM1090.36 160.28C1089.05 160.28 1087.9 160.047 1086.91 159.58C1085.94 159.113 1085.19 158.441 1084.64 157.564C1084.12 156.668 1083.86 155.613 1083.86 154.4H1086.38C1086.38 155.539 1086.74 156.435 1087.47 157.088C1088.2 157.723 1089.16 158.04 1090.36 158.04C1091.51 158.04 1092.44 157.704 1093.13 157.032C1093.82 156.36 1094.16 155.483 1094.16 154.4C1094.16 153.579 1093.94 152.869 1093.49 152.272C1093.06 151.656 1092.44 151.236 1091.62 151.012L1088.51 150.144C1087.22 149.771 1086.2 149.108 1085.46 148.156C1084.73 147.185 1084.36 146.047 1084.36 144.74C1084.36 143.657 1084.61 142.705 1085.09 141.884C1085.58 141.063 1086.26 140.428 1087.14 139.98C1088.01 139.513 1089.02 139.28 1090.16 139.28C1091.32 139.28 1092.33 139.513 1093.21 139.98C1094.11 140.428 1094.81 141.063 1095.31 141.884C1095.82 142.687 1096.07 143.62 1096.07 144.684H1093.55C1093.55 143.751 1093.23 142.995 1092.6 142.416C1091.96 141.819 1091.15 141.52 1090.16 141.52C1089.17 141.52 1088.37 141.819 1087.75 142.416C1087.14 142.995 1086.83 143.751 1086.83 144.684C1086.83 145.431 1087.02 146.075 1087.42 146.616C1087.83 147.139 1088.4 147.503 1089.12 147.708L1092.32 148.604C1093.68 148.977 1094.73 149.687 1095.48 150.732C1096.25 151.759 1096.63 152.981 1096.63 154.4C1096.63 155.595 1096.37 156.631 1095.84 157.508C1095.34 158.385 1094.61 159.067 1093.66 159.552C1092.73 160.037 1091.63 160.28 1090.36 160.28ZM1101.57 160V157.704H1105.74V141.856H1101.57V139.56H1112.49V141.856H1108.32V157.704H1112.49V160H1101.57ZM1123.82 160.28C1121.99 160.28 1120.55 159.748 1119.48 158.684C1118.42 157.62 1117.89 156.099 1117.89 154.12V145.44C1117.89 143.461 1118.42 141.94 1119.48 140.876C1120.55 139.812 1121.99 139.28 1123.82 139.28C1125.65 139.28 1127.1 139.812 1128.16 140.876C1129.23 141.94 1129.76 143.452 1129.76 145.412V154.12C1129.76 156.099 1129.23 157.62 1128.16 158.684C1127.1 159.748 1125.65 160.28 1123.82 160.28ZM1123.82 158.012C1124.92 158.012 1125.76 157.704 1126.34 157.088C1126.94 156.453 1127.24 155.557 1127.24 154.4V145.16C1127.24 144.003 1126.94 143.116 1126.34 142.5C1125.76 141.865 1124.92 141.548 1123.82 141.548C1122.74 141.548 1121.9 141.865 1121.3 142.5C1120.7 143.116 1120.41 144.003 1120.41 145.16V154.4C1120.41 155.557 1120.7 156.453 1121.3 157.088C1121.9 157.704 1122.74 158.012 1123.82 158.012ZM1134.73 160V139.56H1138.09L1144.33 157.06C1144.3 156.593 1144.25 156.024 1144.19 155.352C1144.16 154.661 1144.12 153.943 1144.08 153.196C1144.06 152.431 1144.05 151.712 1144.05 151.04V139.56H1146.49V160H1143.13L1136.91 142.5C1136.95 142.948 1136.99 143.517 1137.03 144.208C1137.06 144.88 1137.09 145.599 1137.11 146.364C1137.15 147.111 1137.17 147.829 1137.17 148.52V160H1134.73Z" fill="#F3E223"/>
</g>
<g filter="url(#filter0_f_10265_19578)">
<path d="M751.202 143.395C754.583 143.395 757.493 145.998 757.493 149.41V236.126C757.493 239.538 754.583 242.142 751.202 242.142H693.621L702.021 253.333H725.918C726.804 253.333 727.523 254.052 727.523 254.938C727.523 255.825 726.804 256.544 725.918 256.544H703.149C703.092 256.836 702.993 257.123 702.851 257.395L652.207 353.748C651.532 355.033 650.057 355.678 648.655 355.303L628.991 350.031L606.491 389.022C605.296 391.093 602.307 391.093 601.112 389.022L588.216 366.673L556.507 358.173C555.632 357.938 554.902 357.333 554.511 356.517L538.539 323.209C537.941 328.763 533.24 333.087 527.527 333.087H453.473C447.355 333.087 442.395 328.128 442.395 322.01V245.473C442.395 239.355 447.355 234.395 453.473 234.395H518.503L554.291 172.379L554.431 172.158C555.122 171.162 556.335 170.659 557.528 170.874L557.784 170.932L582.572 177.576L601.112 145.449C602.307 143.378 605.296 143.378 606.491 145.449L615.769 161.526C615.826 161.551 615.882 161.578 615.938 161.61C616.318 161.83 616.573 162.182 616.682 162.574L646.533 179.817C646.896 180.027 647.213 180.308 647.464 180.643L655.395 191.209V149.41C655.395 145.998 658.305 143.395 661.687 143.395H751.202Z" fill="#FFFCC2"/>
<path d="M751.202 143.395L751.202 141.395H751.202V143.395ZM757.493 149.41H759.493V149.41L757.493 149.41ZM757.493 236.126L759.493 236.126V236.126H757.493ZM751.202 242.142V244.142H751.202L751.202 242.142ZM693.621 242.142V240.142H689.619L692.021 243.342L693.621 242.142ZM702.021 253.333L700.421 254.534L701.021 255.333H702.021V253.333ZM725.918 253.333V251.333V253.333ZM727.523 254.938H729.523V254.938L727.523 254.938ZM725.918 256.544V254.544V256.544ZM703.149 256.544V254.544H701.502L701.186 256.161L703.149 256.544ZM702.851 257.395L701.08 256.464V256.464L702.851 257.395ZM652.207 353.748L650.437 352.818L650.437 352.818L652.207 353.748ZM648.655 355.303L648.137 357.235L648.138 357.235L648.655 355.303ZM628.991 350.031L629.509 348.099L628.026 347.702L627.259 349.032L628.991 350.031ZM606.491 389.022L608.223 390.022V390.022L606.491 389.022ZM601.112 389.022L599.38 390.022L599.38 390.022L601.112 389.022ZM588.216 366.673L589.948 365.673L589.534 364.956L588.734 364.741L588.216 366.673ZM556.507 358.173L555.989 360.105H555.989L556.507 358.173ZM554.511 356.517L552.707 357.381L552.707 357.382L554.511 356.517ZM538.539 323.209L540.342 322.344L537.303 316.006L536.551 322.995L538.539 323.209ZM453.473 333.087L453.473 335.087H453.473V333.087ZM442.395 245.473L440.395 245.473V245.473H442.395ZM453.473 234.395V232.395H453.473L453.473 234.395ZM518.503 234.395V236.395H519.658L520.235 235.394L518.503 234.395ZM554.291 172.379L552.601 171.31L552.579 171.344L552.559 171.379L554.291 172.379ZM554.431 172.158L552.788 171.017L552.764 171.053L552.741 171.089L554.431 172.158ZM557.528 170.874L557.968 168.923L557.925 168.913L557.883 168.906L557.528 170.874ZM557.784 170.932L558.302 169L558.263 168.989L558.224 168.981L557.784 170.932ZM582.572 177.576L582.054 179.508L583.537 179.905L584.305 178.576L582.572 177.576ZM601.112 145.449L602.845 146.449L602.845 146.449L601.112 145.449ZM606.491 145.449L608.223 144.45L608.223 144.45L606.491 145.449ZM615.769 161.526L614.036 162.526L614.368 163.1L614.977 163.363L615.769 161.526ZM615.938 161.61L616.938 159.878L616.937 159.878L615.938 161.61ZM616.682 162.574L614.754 163.106L614.971 163.896L615.681 164.306L616.682 162.574ZM646.533 179.817L647.534 178.086L647.534 178.086L646.533 179.817ZM647.464 180.643L645.864 181.843L645.864 181.843L647.464 180.643ZM655.395 191.209L653.795 192.41L657.395 197.205V191.209H655.395ZM655.395 149.41L653.395 149.41V149.41H655.395ZM751.202 143.395L751.202 145.395C753.604 145.395 755.493 147.223 755.493 149.41L757.493 149.41L759.493 149.41C759.493 144.772 755.563 141.395 751.202 141.395L751.202 143.395ZM757.493 149.41H755.493V236.126H757.493H759.493V149.41H757.493ZM757.493 236.126L755.493 236.126C755.493 238.313 753.604 240.142 751.202 240.142L751.202 242.142L751.202 244.142C755.563 244.142 759.493 240.764 759.493 236.126L757.493 236.126ZM751.202 242.142V240.142H693.621V242.142V244.142H751.202V242.142ZM693.621 242.142L692.021 243.342L700.421 254.534L702.021 253.333L703.62 252.132L695.221 240.941L693.621 242.142ZM702.021 253.333V255.333H725.918V253.333V251.333H702.021V253.333ZM725.918 253.333V255.333C725.7 255.333 725.523 255.157 725.523 254.939L727.523 254.938L729.523 254.938C729.523 252.948 727.909 251.333 725.918 251.333V253.333ZM727.523 254.938H725.523C725.523 254.72 725.7 254.544 725.918 254.544V256.544V258.544C727.909 258.544 729.523 256.929 729.523 254.938H727.523ZM725.918 256.544V254.544H703.149V256.544V258.544H725.918V256.544ZM703.149 256.544L701.186 256.161C701.166 256.267 701.13 256.369 701.08 256.464L702.851 257.395L704.621 258.325C704.856 257.877 705.019 257.405 705.112 256.927L703.149 256.544ZM702.851 257.395L701.08 256.464L650.437 352.818L652.207 353.748L653.977 354.679L704.621 258.325L702.851 257.395ZM652.207 353.748L650.437 352.818C650.196 353.275 649.672 353.505 649.173 353.371L648.655 355.303L648.138 357.235C650.443 357.852 652.867 356.791 653.977 354.679L652.207 353.748ZM648.655 355.303L649.173 353.371L629.509 348.099L628.991 350.031L628.473 351.963L648.137 357.235L648.655 355.303ZM628.991 350.031L627.259 349.032L604.759 388.023L606.491 389.022L608.223 390.022L630.723 351.031L628.991 350.031ZM606.491 389.022L604.759 388.023C604.334 388.76 603.27 388.76 602.845 388.023L601.112 389.022L599.38 390.022C601.345 393.427 606.259 393.427 608.223 390.022L606.491 389.022ZM601.112 389.022L602.845 388.023L589.948 365.673L588.216 366.673L586.484 367.672L599.38 390.022L601.112 389.022ZM588.216 366.673L588.734 364.741L557.025 356.241L556.507 358.173L555.989 360.105L587.698 368.605L588.216 366.673ZM556.507 358.173L557.025 356.241C556.713 356.157 556.453 355.942 556.314 355.652L554.511 356.517L552.707 357.382C553.352 358.725 554.551 359.719 555.989 360.105L556.507 358.173ZM554.511 356.517L556.314 355.652L540.342 322.344L538.539 323.209L536.736 324.074L552.707 357.381L554.511 356.517ZM538.539 323.209L536.551 322.995C536.061 327.544 532.207 331.087 527.527 331.087V333.087V335.087C534.273 335.087 539.821 329.981 540.528 323.423L538.539 323.209ZM527.527 333.087V331.087H453.473V333.087V335.087H527.527V333.087ZM453.473 333.087L453.473 331.087C448.459 331.087 444.395 327.023 444.395 322.01H442.395H440.395C440.395 329.232 446.251 335.087 453.473 335.087L453.473 333.087ZM442.395 322.01H444.395V245.473H442.395H440.395V322.01H442.395ZM442.395 245.473L444.395 245.473C444.395 240.46 448.46 236.395 453.473 236.395L453.473 234.395L453.473 232.395C446.25 232.395 440.395 238.25 440.395 245.473L442.395 245.473ZM453.473 234.395V236.395H518.503V234.395V232.395H453.473V234.395ZM518.503 234.395L520.235 235.394L556.023 173.379L554.291 172.379L552.559 171.379L516.771 233.395L518.503 234.395ZM554.291 172.379L555.981 173.448L556.121 173.228L554.431 172.158L552.741 171.089L552.601 171.31L554.291 172.379ZM554.431 172.158L556.073 173.299C556.319 172.945 556.751 172.766 557.174 172.842L557.528 170.874L557.883 168.906C555.918 168.552 553.926 169.379 552.788 171.017L554.431 172.158ZM557.528 170.874L557.089 172.825L557.345 172.883L557.784 170.932L558.224 168.981L557.968 168.923L557.528 170.874ZM557.784 170.932L557.266 172.863L582.054 179.508L582.572 177.576L583.09 175.644L558.302 169L557.784 170.932ZM582.572 177.576L584.305 178.576L602.845 146.449L601.112 145.449L599.38 144.45L580.84 176.577L582.572 177.576ZM601.112 145.449L602.845 146.449C603.27 145.712 604.334 145.712 604.759 146.449L606.491 145.449L608.223 144.45C606.259 141.045 601.345 141.045 599.38 144.45L601.112 145.449ZM606.491 145.449L604.759 146.449L614.036 162.526L615.769 161.526L617.501 160.527L608.223 144.45L606.491 145.449ZM615.769 161.526L614.977 163.363C614.979 163.364 614.964 163.357 614.938 163.343L615.938 161.61L616.937 159.878C616.801 159.8 616.673 159.738 616.561 159.69L615.769 161.526ZM615.938 161.61L614.938 163.342C614.842 163.287 614.779 163.197 614.754 163.106L616.682 162.574L618.61 162.043C618.368 161.167 617.794 160.373 616.938 159.878L615.938 161.61ZM616.682 162.574L615.681 164.306L645.533 181.549L646.533 179.817L647.534 178.086L617.682 160.842L616.682 162.574ZM646.533 179.817L645.533 181.549C645.662 181.624 645.775 181.724 645.864 181.843L647.464 180.643L649.063 179.442C648.65 178.891 648.13 178.43 647.534 178.086L646.533 179.817ZM647.464 180.643L645.864 181.843L653.795 192.41L655.395 191.209L656.994 190.008L649.063 179.442L647.464 180.643ZM655.395 191.209H657.395V149.41H655.395H653.395V191.209H655.395ZM655.395 149.41L657.395 149.41C657.395 147.224 659.284 145.395 661.687 145.395V143.395V141.395C657.326 141.395 653.395 144.772 653.395 149.41L655.395 149.41ZM661.687 143.395V145.395H751.202V143.395V141.395H661.687V143.395Z" fill="#FFFCC2"/>
</g>
<path d="M751.202 145H661.686C659.098 145 657 146.975 657 149.41V236.126C657 238.562 659.098 240.536 661.686 240.536H751.202C753.79 240.536 755.888 238.562 755.888 236.126V149.41C755.888 146.975 753.79 145 751.202 145Z" fill="#FFFCC2" stroke="#978C00" stroke-width="3.21" stroke-miterlimit="10"/>
<path d="M738.142 177.478H727.154C726.76 177.478 726.439 177.795 726.439 178.187V218.148C726.439 218.54 726.76 218.857 727.154 218.857H738.142C738.537 218.857 738.857 218.54 738.857 218.148V178.187C738.857 177.795 738.537 177.478 738.142 177.478Z" fill="#FFF100" stroke="#978C00" stroke-width="3.21" stroke-miterlimit="10" stroke-linecap="round"/>
<path d="M717.326 189.276H706.338C705.943 189.276 705.623 189.594 705.623 189.985V218.147C705.623 218.538 705.943 218.855 706.338 218.855H717.326C717.72 218.855 718.041 218.538 718.041 218.147V189.985C718.041 189.594 717.72 189.276 717.326 189.276Z" fill="#FFF100" stroke="#978C00" stroke-width="3.21" stroke-miterlimit="10" stroke-linecap="round"/>
<path d="M696.703 198.062H685.715C685.32 198.062 685 198.38 685 198.771V218.146C685 218.537 685.32 218.855 685.715 218.855H696.703C697.097 218.855 697.418 218.537 697.418 218.146V198.771C697.418 198.38 697.097 198.062 696.703 198.062Z" fill="#FFF100" stroke="#978C00" stroke-width="3.21" stroke-miterlimit="10" stroke-linecap="round"/>
<path d="M690.429 183.995C690.429 183.995 717.653 186.056 730.88 158.007" stroke="#978C00" stroke-width="3.21" stroke-miterlimit="10"/>
<path d="M722.771 160.424L730.881 158L732.489 166.209" stroke="#978C00" stroke-width="3.21" stroke-miterlimit="10"/>
<path d="M555.681 173.181L508.395 255.123C508.148 255.551 508.128 256.075 508.342 256.521L555.958 355.822C556.147 356.217 556.499 356.509 556.922 356.622L588.673 365.134C589.058 365.238 589.385 365.489 589.584 365.834L602.503 388.221C603.08 389.221 604.524 389.221 605.101 388.221L627.642 349.159C627.981 348.571 628.673 348.284 629.329 348.46L649.07 353.753C649.748 353.934 650.46 353.622 650.787 353.002L701.43 256.647C701.699 256.135 701.65 255.512 701.302 255.049L646.18 181.606C646.058 181.444 645.905 181.309 645.73 181.207L615.392 163.683C615.164 163.551 614.975 163.362 614.843 163.134L605.101 146.251C604.524 145.251 603.08 145.251 602.503 146.251L583.923 178.449C583.583 179.037 582.891 179.324 582.235 179.148L557.368 172.482C556.712 172.306 556.02 172.593 555.681 173.181Z" fill="#FFFCC2" stroke="#978C00" stroke-width="3.21" stroke-miterlimit="10" stroke-linecap="round"/>
<path d="M646.267 341.373L656.787 320.333" stroke="#978C00" stroke-width="3.21" stroke-miterlimit="10" stroke-linecap="round"/>
<path d="M542 212.04L552.52 191" stroke="#978C00" stroke-width="3.21" stroke-miterlimit="10" stroke-linecap="round"/>
<path d="M650.773 285.77L659.791 269.239" stroke="#978C00" stroke-width="3.21" stroke-miterlimit="10" stroke-linecap="round"/>
<path d="M643.26 195.601L671.063 234.676" stroke="#978C00" stroke-width="3.21" stroke-miterlimit="10" stroke-linecap="round"/>
<path d="M550.5 313L564 343.5" stroke="#978C00" stroke-width="3.21" stroke-miterlimit="10" stroke-linecap="round"/>
<path d="M615.135 163L588 210" stroke="#978C00" stroke-width="3.21" stroke-miterlimit="10" stroke-linecap="round"/>
<path d="M682 255L656.595 300.142C656.397 300.493 656.067 300.75 655.677 300.854L611.411 312.774C610.892 312.914 610.337 312.765 609.958 312.384L582.603 284.894C582.229 284.518 582.081 283.973 582.214 283.461L589.561 255" stroke="#978C00" stroke-width="3.21" stroke-miterlimit="10" stroke-linecap="round"/>
<path d="M642 255L616.436 218.923C616.242 218.649 615.961 218.448 615.64 218.352L574.931 206.236C574.437 206.089 573.902 206.206 573.515 206.545L547.609 229.219C547.229 229.552 547.042 230.053 547.111 230.553L550.484 255" stroke="#978C00" stroke-width="3.21" stroke-miterlimit="10" stroke-linecap="round"/>
<path d="M589.908 364.674L620.717 310.57" stroke="#978C00" stroke-width="3.21" stroke-miterlimit="10" stroke-linecap="round"/>
<path d="M508.26 254.938L725.918 254.938" stroke="#978C00" stroke-width="3.21" stroke-miterlimit="10" stroke-linecap="round"/>
<path d="M527.528 236H453.472C448.241 236 444 240.241 444 245.472V322.01C444 327.241 448.241 331.482 453.472 331.482H527.528C532.759 331.482 537 327.241 537 322.01V245.472C537 240.241 532.759 236 527.528 236Z" fill="#FFF100" stroke="#978C00" stroke-width="3.21" stroke-miterlimit="10"/>
<path d="M476.047 276.404C478.686 276.404 480.825 273.252 480.825 269.364C480.825 265.475 478.686 262.323 476.047 262.323C473.408 262.323 471.269 265.475 471.269 269.364C471.269 273.252 473.408 276.404 476.047 276.404Z" fill="#978C00"/>
<path d="M503.94 276.404C506.579 276.404 508.719 273.252 508.719 269.364C508.719 265.475 506.579 262.323 503.94 262.323C501.301 262.323 499.162 265.475 499.162 269.364C499.162 273.252 501.301 276.404 503.94 276.404Z" fill="#978C00"/>
<path d="M507.099 296.694C507.994 296.694 508.906 297.032 509.598 297.707C511 299.075 511.034 301.321 509.666 302.739C509.514 302.908 493.204 319.269 471.49 303.347C469.903 302.182 469.548 299.936 470.713 298.349C471.878 296.762 474.107 296.424 475.711 297.572C492.326 309.746 504.06 298.231 504.55 297.741C505.242 297.032 506.171 296.677 507.099 296.677L507.099 296.694Z" fill="#978C00"/>
</g>
<defs>
<filter id="filter0_f_10265_19578" x="400.395" y="101.395" width="399.099" height="331.181" filterUnits="userSpaceOnUse" color-interpolation-filters="sRGB">
<feFlood flood-opacity="0" result="BackgroundImageFix"/>
<feBlend mode="normal" in="SourceGraphic" in2="BackgroundImageFix" result="shape"/>
<feGaussianBlur stdDeviation="20" result="effect1_foregroundBlur_10265_19578"/>
</filter>
<linearGradient id="paint0_linear_10265_19578" x1="589" y1="-26.5" x2="587" y2="627" gradientUnits="userSpaceOnUse">
<stop stop-color="#FDEF00"/>
<stop offset="0.938633" stop-color="#FFFAA3"/>
</linearGradient>
<linearGradient id="paint1_linear_10265_19578" x1="589" y1="-26.5" x2="587" y2="627" gradientUnits="userSpaceOnUse">
<stop stop-color="#FDEF00"/>
<stop offset="0.938633" stop-color="#FFFAA3"/>
</linearGradient>
<clipPath id="clip0_10265_19578">
<rect width="1200" height="515" fill="white"/>
</clipPath>
<clipPath id="clip1_10265_19578">
<rect width="1200" height="515" fill="white"/>
</clipPath>
</defs>
</svg>
