<svg width="1200" height="627" viewBox="0 0 1200 627" fill="none" xmlns="http://www.w3.org/2000/svg">
<g clip-path="url(#clip0_15571_30663)">
<g clip-path="url(#clip1_15571_30663)">
<rect width="1200" height="627" fill="url(#paint0_linear_15571_30663)"/>
<path d="M1131.18 -272.001L1131.17 207C1131.17 237.375 1106.55 262 1076.17 262L941.28 262C910.904 262 886.28 237.375 886.28 206.999L886.28 111.51C886.28 81.1345 861.656 56.51 831.28 56.51L613.501 56.51C583.125 56.51 558.501 31.8857 558.501 1.51002L558.501 -141.49" stroke="#F0DF09" stroke-width="2.9926"/>
<path d="M633 690.376L633 621.5C633 591.124 608.376 566.5 578 566.5L360 566.5C329.624 566.5 305 591.124 305 621.5L305 708.5" stroke="#F0DF09" stroke-width="2.9926"/>
<path d="M57.4963 -8C57.4963 -8.82638 56.8264 -9.4963 56 -9.4963C55.1736 -9.4963 54.5037 -8.82638 54.5037 -8L56 -8L57.4963 -8ZM54.942 317.558C55.5263 318.142 56.4737 318.142 57.058 317.558L66.5804 308.036C67.1648 307.451 67.1648 306.504 66.5804 305.92C65.9961 305.335 65.0487 305.335 64.4644 305.92L56 314.384L47.5356 305.92C46.9513 305.335 46.0039 305.335 45.4196 305.92C44.8352 306.504 44.8352 307.451 45.4196 308.036L54.942 317.558ZM56 -8L54.5037 -8L54.5037 316.5L56 316.5L57.4963 316.5L57.4963 -8L56 -8Z" fill="#F0DF09"/>
<path d="M-81 393.504C-81.8264 393.504 -82.4963 394.174 -82.4963 395C-82.4963 395.826 -81.8264 396.496 -81 396.496L-81 395L-81 393.504ZM380.058 249.058C380.642 248.474 380.642 247.526 380.058 246.942L370.536 237.42C369.951 236.835 369.004 236.835 368.42 237.42C367.835 238.004 367.835 238.951 368.42 239.536L376.884 248L368.42 256.464C367.835 257.049 367.835 257.996 368.42 258.58C369.004 259.165 369.951 259.165 370.536 258.58L380.058 249.058ZM-81 395L-81 396.496L62.0001 396.496L62.0001 395L62.0001 393.504L-81 393.504L-81 395ZM117 340L118.496 340L118.496 303L117 303L115.504 303L115.504 340L117 340ZM172 248L172 249.496L379 249.496L379 248L379 246.504L172 246.504L172 248ZM117 303L118.496 303C118.496 273.451 142.451 249.496 172 249.496L172 248L172 246.504C140.798 246.504 115.504 271.798 115.504 303L117 303ZM62.0001 395L62.0001 396.496C93.2021 396.496 118.496 371.202 118.496 340L117 340L115.504 340C115.504 369.549 91.5493 393.504 62.0001 393.504L62.0001 395Z" fill="#F0DF09"/>
<path d="M731.004 466.5C731.004 467.326 731.674 467.996 732.5 467.996C733.326 467.996 733.996 467.326 733.996 466.5L732.5 466.5L731.004 466.5ZM733.558 288.442C732.974 287.858 732.026 287.858 731.442 288.442L721.92 297.964C721.335 298.549 721.335 299.496 721.92 300.08C722.504 300.665 723.451 300.665 724.036 300.08L732.5 291.616L740.964 300.08C741.549 300.665 742.496 300.665 743.08 300.08C743.665 299.496 743.665 298.549 743.08 297.964L733.558 288.442ZM732.5 466.5L733.996 466.5L733.996 289.5L732.5 289.5L731.004 289.5L731.004 466.5L732.5 466.5Z" fill="#F0DF09"/>
<path d="M1017.5 -71.5C1017.5 -72.3264 1016.83 -72.9963 1016 -72.9963C1015.17 -72.9963 1014.5 -72.3264 1014.5 -71.5L1016 -71.5L1017.5 -71.5ZM1014.94 220.558C1015.53 221.142 1016.47 221.142 1017.06 220.558L1026.58 211.036C1027.16 210.451 1027.16 209.504 1026.58 208.92C1026 208.335 1025.05 208.335 1024.46 208.92L1016 217.384L1007.54 208.92C1006.95 208.335 1006 208.335 1005.42 208.92C1004.84 209.504 1004.84 210.451 1005.42 211.036L1014.94 220.558ZM1016 -71.5L1014.5 -71.5L1014.5 219.5L1016 219.5L1017.5 219.5L1017.5 -71.5L1016 -71.5Z" fill="#F0DF09"/>
<path d="M1084.12 123.52C1083.5 123.52 1083 123.324 1082.61 122.932C1082.22 122.54 1082.02 122.036 1082.02 121.42C1082.02 120.823 1082.22 120.328 1082.61 119.936C1083.02 119.525 1083.52 119.32 1084.12 119.32H1084.68C1085.28 119.32 1085.77 119.525 1086.16 119.936C1086.57 120.328 1086.78 120.823 1086.78 121.42C1086.78 122.036 1086.58 122.54 1086.19 122.932C1085.8 123.324 1085.3 123.52 1084.68 123.52H1084.12ZM1081.74 139.48L1083.28 130.912H1086.3L1084.34 139.48H1081.74Z" fill="#F3E223"/>
<path d="M71.56 475.28C69.6 475.28 68.06 474.729 66.94 473.628C65.82 472.527 65.26 471.024 65.26 469.12H67.78C67.78 470.371 68.1067 471.341 68.76 472.032C69.432 472.704 70.3653 473.04 71.56 473.04C72.7547 473.04 73.6787 472.704 74.332 472.032C75.004 471.341 75.34 470.371 75.34 469.12V454.56H77.86V469.12C77.86 471.024 77.2907 472.527 76.152 473.628C75.032 474.729 73.5013 475.28 71.56 475.28ZM89.1891 475.28C87.3597 475.28 85.9131 474.748 84.8491 473.684C83.7851 472.62 83.2531 471.099 83.2531 469.12V460.44C83.2531 458.461 83.7851 456.94 84.8491 455.876C85.9131 454.812 87.3597 454.28 89.1891 454.28C91.0184 454.28 92.4651 454.812 93.5291 455.876C94.5931 456.94 95.1251 458.452 95.1251 460.412V469.12C95.1251 471.099 94.5931 472.62 93.5291 473.684C92.4651 474.748 91.0184 475.28 89.1891 475.28ZM89.1891 473.012C90.2904 473.012 91.1304 472.704 91.7091 472.088C92.3064 471.453 92.6051 470.557 92.6051 469.4V460.16C92.6051 459.003 92.3064 458.116 91.7091 457.5C91.1304 456.865 90.2904 456.548 89.1891 456.548C88.1064 456.548 87.2664 456.865 86.6691 457.5C86.0717 458.116 85.7731 459.003 85.7731 460.16V469.4C85.7731 470.557 86.0717 471.453 86.6691 472.088C87.2664 472.704 88.1064 473.012 89.1891 473.012ZM100.518 475V472.704H104.69V456.856H100.518V454.56H111.438V456.856H107.266V472.704H111.438V475H100.518ZM116.887 475V454.56H120.247L126.491 472.06C126.454 471.593 126.407 471.024 126.351 470.352C126.314 469.661 126.277 468.943 126.239 468.196C126.221 467.431 126.211 466.712 126.211 466.04V454.56H128.647V475H125.287L119.071 457.5C119.109 457.948 119.146 458.517 119.183 459.208C119.221 459.88 119.249 460.599 119.267 461.364C119.305 462.111 119.323 462.829 119.323 463.52V475H116.887Z" fill="#F3E223"/>
<path d="M732.5 484.038C727.232 484.038 722.962 479.768 722.962 474.5L722.962 455.5C722.962 450.232 727.232 445.962 732.5 445.962C737.768 445.962 742.038 450.232 742.038 455.5L742.038 474.5C742.038 479.768 737.768 484.038 732.5 484.038Z" fill="#D4C50B" stroke="#F0DF09" stroke-width="1.92382"/>
</g>
<path d="M120.7 168H106.75L85 126.525V168H74.875V113.625H88.825L110.575 155.1V113.625H120.7V168ZM167.666 150.675H137.891C138.491 157.575 143.141 160.95 148.091 160.95C151.316 160.95 154.466 159.825 156.566 156.3H167.216C165.041 162.3 159.191 168.975 148.166 168.975C135.191 168.975 127.616 159.3 127.616 147.675C127.616 135.675 135.941 126.75 147.866 126.75C160.316 126.75 168.041 136.425 167.666 150.675ZM147.791 134.325C143.891 134.325 138.866 136.725 138.041 143.55H157.166C156.941 136.725 152.141 134.325 147.791 134.325ZM185.724 155.55L192.024 127.65H203.049L209.424 155.475L214.824 127.65H225.099L215.574 168H204.924L197.574 137.4L190.149 168H179.499L170.049 127.65H180.324L185.724 155.55ZM282.171 140.775C282.171 124.5 272.496 122.025 262.596 122.025H257.646V159.6H262.596C272.496 159.6 282.171 157.2 282.171 140.775ZM246.921 113.625H263.046C280.296 113.625 293.271 119.175 293.271 140.775C293.271 162.375 280.296 168 263.046 168H246.921V113.625ZM324.548 168V162.675C322.223 166.8 317.798 168.975 312.773 168.975C303.098 168.975 299.198 163.05 299.198 153.15V127.65H309.548V150.9C309.548 156.3 310.373 160.65 316.148 160.65C323.048 160.65 324.548 155.025 324.548 148.65V127.65H334.898V168H324.548ZM361.806 126.75C370.281 126.75 378.681 131.475 380.106 141.45H370.206C369.381 137.55 365.781 134.775 361.806 134.775C356.406 134.775 352.131 139.35 352.131 147.75C352.131 156.225 356.181 160.95 361.881 160.95C365.481 160.95 369.156 159.075 370.581 154.275H380.481C378.081 165.3 369.756 168.975 361.356 168.975C349.281 168.975 341.556 160.125 341.556 147.9C341.556 135.6 349.731 126.75 361.806 126.75ZM386.662 113.625H397.012V143.85L411.712 127.65H423.337L408.862 143.1L424.162 168H412.537L401.962 150.525L397.012 155.85V168H386.662V113.625ZM463.738 140.775C463.738 124.5 454.063 122.025 444.163 122.025H439.213V159.6H444.163C454.063 159.6 463.738 157.2 463.738 140.775ZM428.488 113.625H444.613C461.863 113.625 474.838 119.175 474.838 140.775C474.838 162.375 461.863 168 444.613 168H428.488V113.625ZM482.395 168V113.625H503.545C513.07 113.625 523.345 116.625 523.345 127.8C523.345 132.9 519.97 137.475 517.195 139.275C521.395 141.3 525.295 144.45 525.295 151.95C525.295 163.65 515.62 168 504.445 168H482.395ZM493.12 144.15V159.6H504.97C511.27 159.6 514.345 156.975 514.345 151.95C514.345 146.85 511.195 144.15 504.52 144.15H493.12ZM493.12 122.025V136.05H504.22C509.32 136.05 512.32 133.65 512.32 128.85C512.32 124.575 509.245 122.025 504.22 122.025H493.12ZM555.374 152.475H530.549V143.475H555.374V152.475ZM574.272 113.625V168H563.547V113.625H574.272ZM601.455 126.75C609.93 126.75 618.33 131.475 619.755 141.45H609.855C609.03 137.55 605.43 134.775 601.455 134.775C596.055 134.775 591.78 139.35 591.78 147.75C591.78 156.225 595.83 160.95 601.53 160.95C605.13 160.95 608.805 159.075 610.23 154.275H620.13C617.73 165.3 609.405 168.975 601.005 168.975C588.93 168.975 581.205 160.125 581.205 147.9C581.205 135.6 589.38 126.75 601.455 126.75ZM664.101 150.675H634.326C634.926 157.575 639.576 160.95 644.526 160.95C647.751 160.95 650.901 159.825 653.001 156.3H663.651C661.476 162.3 655.626 168.975 644.601 168.975C631.626 168.975 624.051 159.3 624.051 147.675C624.051 135.675 632.376 126.75 644.301 126.75C656.751 126.75 664.476 136.425 664.101 150.675ZM644.226 134.325C640.326 134.325 635.301 136.725 634.476 143.55H653.601C653.376 136.725 648.576 134.325 644.226 134.325ZM690.193 161.025C695.593 161.025 699.418 155.775 699.418 147.9C699.418 140.025 695.593 134.7 690.193 134.7C684.493 134.7 680.743 139.725 680.743 147.825C680.743 156.15 684.493 161.025 690.193 161.025ZM681.118 168H670.768V113.625H681.118V132.825C683.293 129 687.643 126.75 692.743 126.75C702.493 126.75 710.293 135.15 710.293 147.825C710.293 160.725 702.343 168.975 692.743 168.975C688.543 168.975 683.743 167.4 681.118 162.9V168ZM754.995 150.675H725.22C725.82 157.575 730.47 160.95 735.42 160.95C738.645 160.95 741.795 159.825 743.895 156.3H754.545C752.37 162.3 746.52 168.975 735.495 168.975C722.52 168.975 714.945 159.3 714.945 147.675C714.945 135.675 723.27 126.75 735.195 126.75C747.645 126.75 755.37 136.425 754.995 150.675ZM735.12 134.325C731.22 134.325 726.195 136.725 725.37 143.55H744.495C744.27 136.725 739.47 134.325 735.12 134.325ZM784.762 127.875V137.625C783.262 137.4 781.987 137.4 780.487 137.4C775.387 137.4 772.012 139.275 772.012 146.85V168H761.662V127.65H771.862V134.7C774.187 129.675 777.787 127.725 782.512 127.725C783.187 127.725 784.087 127.8 784.762 127.875ZM807.63 158.7C813.405 158.7 816.93 153.825 816.93 146.625C816.93 139.5 813.405 134.625 807.63 134.625C802.305 134.625 798.33 139.95 798.33 146.7C798.33 153.375 802.305 158.7 807.63 158.7ZM816.555 127.65H826.83V163.95C826.83 177.15 819.405 182.1 807.03 182.1C798.405 182.1 790.83 178.95 789.405 169.575H799.23C800.13 172.875 802.905 174.525 807.555 174.525C812.955 174.525 816.555 171.975 816.555 165.9V160.5C813.93 164.925 809.205 166.575 805.005 166.575C795.105 166.575 787.455 158.4 787.455 146.625C787.455 135.15 794.88 126.75 805.005 126.75C810.105 126.75 814.755 129.375 816.555 132.9V127.65ZM74.875 254V199.625H114.475V208.325H85.6V221.825H112.9V230.525H85.6V254H74.875ZM156.533 236.675H126.758C127.358 243.575 132.008 246.95 136.958 246.95C140.183 246.95 143.333 245.825 145.433 242.3H156.083C153.908 248.3 148.058 254.975 137.033 254.975C124.058 254.975 116.483 245.3 116.483 233.675C116.483 221.675 124.808 212.75 136.733 212.75C149.183 212.75 156.908 222.425 156.533 236.675ZM136.658 220.325C132.758 220.325 127.733 222.725 126.908 229.55H146.033C145.808 222.725 141.008 220.325 136.658 220.325ZM188.4 238.55V235.55C176.775 236.75 172.2 238.1 172.2 242.6C172.2 245.525 174.45 247.925 179.175 247.925C185.7 247.925 188.4 244.475 188.4 238.55ZM189.3 248.975C186.375 253.175 182.175 254.975 176.1 254.975C168.375 254.975 161.55 250.475 161.55 243.125C161.55 233.6 172.2 230.75 188.1 228.95V228.275C188.1 222.05 184.725 219.875 180.525 219.875C176.55 219.875 173.25 221.9 173.025 226.4H163.35C164.175 218.45 170.625 212.6 181.05 212.6C190.575 212.6 198.45 216.8 198.45 230.375C198.45 231.575 198.3 237.05 198.3 240.65C198.3 247.025 198.675 250.625 199.5 254H189.975C189.675 252.725 189.525 251 189.3 248.975ZM208.497 213.65V202.7H218.847V213.65H227.247V220.775H218.847V241.625C218.847 245.75 220.272 246.575 223.947 246.575H227.097V254H219.522C210.222 254 208.497 251.15 208.497 243.125V220.775H202.797V213.65H208.497ZM258.704 254V248.675C256.379 252.8 251.954 254.975 246.929 254.975C237.254 254.975 233.354 249.05 233.354 239.15V213.65H243.704V236.9C243.704 242.3 244.529 246.65 250.304 246.65C257.204 246.65 258.704 241.025 258.704 234.65V213.65H269.054V254H258.704ZM301.437 213.875V223.625C299.937 223.4 298.662 223.4 297.162 223.4C292.062 223.4 288.687 225.275 288.687 232.85V254H278.337V213.65H288.537V220.7C290.862 215.675 294.462 213.725 299.187 213.725C299.862 213.725 300.762 213.8 301.437 213.875ZM344.179 236.675H314.404C315.004 243.575 319.654 246.95 324.604 246.95C327.829 246.95 330.979 245.825 333.079 242.3H343.729C341.554 248.3 335.704 254.975 324.679 254.975C311.704 254.975 304.129 245.3 304.129 233.675C304.129 221.675 312.454 212.75 324.379 212.75C336.829 212.75 344.554 222.425 344.179 236.675ZM324.304 220.325C320.404 220.325 315.379 222.725 314.554 229.55H333.679C333.454 222.725 328.654 220.325 324.304 220.325ZM383.613 225.8H373.938C373.113 222.425 370.113 220.025 365.312 220.025C361.488 220.025 358.788 221.45 358.788 223.925C358.788 226.1 360.363 227.75 364.188 228.575L369.588 229.775C377.613 231.575 384.437 233.6 384.437 241.925C384.437 250.025 376.113 254.975 366.963 254.975C357.063 254.975 349.563 249.875 348.588 240.65H358.563C359.163 244.55 361.863 247.475 367.263 247.475C371.763 247.475 374.538 245.825 374.538 242.9C374.538 239.9 371.463 238.775 367.938 237.95L361.938 236.675C354.363 235.1 349.338 231.95 349.338 224.6C349.338 217.4 357.138 212.6 365.837 212.6C374.238 212.6 382.188 216.5 383.613 225.8ZM407.829 213.65H418.179V254H407.829V213.65ZM407.829 199.625H418.179V209.225H407.829V199.625ZM437.808 213.65V218.975C440.133 214.85 444.483 212.75 449.508 212.75C459.183 212.75 463.458 218.6 463.458 228.575V254H453.108V230.825C453.108 225.65 451.983 221.075 446.133 221.075C439.308 221.075 437.808 226.625 437.808 233V254H427.458V213.65H437.808ZM495.279 213.65L504.729 243.5L514.179 213.65H524.454L509.979 254H499.104L484.404 213.65H495.279ZM546.518 254H536.168V213.35H524.468V206.3C532.268 206.075 536.093 205.55 538.643 199.625H546.518V254ZM566.346 254H555.246V242.75H566.346V254ZM591.74 247.175C597.44 247.175 601.565 243.05 601.565 236.15C601.565 228.65 596.54 225.05 591.515 225.05C586.715 225.05 583.34 227.375 582.215 230L572.765 229.55L576.365 199.625H609.89V208.325H584.84L583.34 219.95C585.665 218.225 589.04 216.95 594.14 216.95C603.44 216.95 612.065 223.55 612.065 236.075C612.065 248.075 602.765 254.975 591.59 254.975C578.84 254.975 572.09 246.275 571.49 236.9H581.24C581.84 242.525 585.065 247.175 591.74 247.175ZM628.162 254H617.062V242.75H628.162V254ZM654.266 247.175C659.966 247.175 664.466 243.8 664.466 238.7C664.466 232.325 658.541 229.775 650.816 229.775H648.641V221.675H650.441C658.241 221.675 663.116 218.825 663.116 213.725C663.116 209 658.991 206.45 654.491 206.45C648.191 206.45 644.291 210.35 643.766 216.05H633.941C635.141 205.175 642.566 198.65 655.091 198.65C664.166 198.65 673.541 203 673.541 213.275C673.541 218.6 670.391 222.875 666.191 225.2C671.816 227.6 674.966 232.925 674.966 238.4C674.966 249.425 665.441 254.975 653.966 254.975C641.516 254.975 634.091 246.875 633.491 236.9H643.241C644.066 242.375 647.441 247.175 654.266 247.175Z" fill="#0D0D0D"/>
<path d="M72.064 77V59.6H83.872V61.712H74.512V66.992H83.32V69.104H74.512V74.888H83.872V77H72.064ZM85.6788 77L92.1348 68.048L86.1108 59.6H89.0148L93.5988 66.032L98.2308 59.6H100.991L94.9668 67.952L101.423 77H98.5428L93.5028 69.968L88.4388 77H85.6788ZM108.053 77V61.712H102.389V59.6H116.165V61.712H110.501V77H108.053ZM119.194 77V59.6H131.002V61.712H121.642V66.992H130.45V69.104H121.642V74.888H131.002V77H119.194ZM148.865 77H145.289L137.321 62.144V77H134.873V59.6H138.473L146.417 74.408V59.6H148.865V77ZM153.23 64.04C153.23 60.704 156.71 59.288 159.518 59.288C162.662 59.288 165.422 60.704 166.118 64.04H163.742C163.166 62.048 161.15 61.352 159.422 61.352C158.078 61.352 155.726 61.952 155.726 63.896C155.726 65.432 156.926 66.2 158.558 66.56L160.574 67.016C163.238 67.592 166.43 68.6 166.43 72.104C166.43 75.488 163.262 77.312 159.806 77.312C155.702 77.312 153.11 75.056 152.654 71.6H155.054C155.51 74 157.166 75.248 159.854 75.248C162.446 75.248 163.91 74.048 163.91 72.32C163.91 70.472 162.326 69.752 160.166 69.248L158.006 68.792C155.606 68.264 153.23 66.92 153.23 64.04ZM172.733 59.6V77H170.285V59.6H172.733ZM179.487 68.288C179.487 72.776 181.983 75.248 185.151 75.248C188.319 75.248 190.815 72.776 190.815 68.288C190.815 63.8 188.319 61.352 185.151 61.352C181.983 61.352 179.487 63.8 179.487 68.288ZM193.311 68.288C193.311 73.544 190.167 77.312 185.151 77.312C180.135 77.312 176.991 73.544 176.991 68.288C176.991 63.032 180.135 59.288 185.151 59.288C190.167 59.288 193.311 63.032 193.311 68.288ZM211.556 77H207.98L200.012 62.144V77H197.564V59.6H201.164L209.108 74.408V59.6H211.556V77ZM215.921 64.04C215.921 60.704 219.401 59.288 222.209 59.288C225.354 59.288 228.113 60.704 228.81 64.04H226.433C225.858 62.048 223.841 61.352 222.113 61.352C220.769 61.352 218.417 61.952 218.417 63.896C218.417 65.432 219.617 66.2 221.25 66.56L223.265 67.016C225.929 67.592 229.121 68.6 229.121 72.104C229.121 75.488 225.954 77.312 222.497 77.312C218.393 77.312 215.801 75.056 215.345 71.6H217.745C218.201 74 219.857 75.248 222.545 75.248C225.138 75.248 226.602 74.048 226.602 72.32C226.602 70.472 225.018 69.752 222.858 69.248L220.697 68.792C218.297 68.264 215.921 66.92 215.921 64.04Z" fill="#B2A630"/>
<path d="M76.136 567V550.438H70V548.15H84.924V550.438H78.788V567H76.136ZM87.3717 560.058C87.3717 563.802 89.3997 565.258 91.5577 565.258C93.7157 565.258 95.7437 563.646 95.7437 560.058C95.7437 556.314 93.7157 554.858 91.5577 554.858C89.3997 554.858 87.3717 556.236 87.3717 560.058ZM91.5577 552.778C94.8077 552.778 98.2657 554.988 98.2657 560.058C98.2657 565.128 94.8077 567.338 91.5577 567.338C88.3077 567.338 84.8497 565.128 84.8497 560.058C84.8497 554.988 88.3077 552.778 91.5577 552.778ZM104.502 559.408V567H102.136V553.012H104.502V555.118C105.308 553.792 106.608 552.778 108.714 552.778C110.872 552.778 112.12 553.688 112.744 555.248C113.862 553.506 115.474 552.778 117.45 552.778C120.7 552.778 121.974 554.962 121.974 558.16V567H119.608V558.862C119.608 556.704 119.192 554.832 116.618 554.832C114.564 554.832 113.238 556.392 113.238 559.408V567H110.872V558.862C110.872 556.704 110.456 554.832 107.882 554.832C105.828 554.832 104.502 556.392 104.502 559.408ZM134.134 567V548.15H146.926V550.438H136.786V556.158H146.328V558.446H136.786V564.712H146.926V567H134.134ZM153.018 560.058C153.018 563.75 154.994 565.31 157.1 565.31C159.518 565.31 161.104 563.412 161.104 560.058C161.104 556.704 159.518 554.806 157.1 554.806C154.994 554.806 153.018 556.366 153.018 560.058ZM150.756 548.15H153.122V555.222C153.98 553.74 155.436 552.778 157.698 552.778C160.922 552.778 163.678 555.482 163.678 560.058C163.678 564.712 160.922 567.338 157.698 567.338C155.436 567.338 153.98 566.376 153.122 564.894V567H150.756V548.15ZM179.964 560.786H169.2C169.278 563.802 171.462 565.258 173.516 565.258C175.596 565.258 176.74 564.322 177.338 562.944H179.782C179.158 565.336 176.922 567.338 173.516 567.338C169.096 567.338 166.652 564.166 166.652 560.032C166.652 555.586 169.616 552.778 173.438 552.778C177.728 552.778 180.25 556.34 179.964 560.786ZM173.438 554.806C171.358 554.806 169.434 555.95 169.226 558.758H177.468C177.39 556.782 175.96 554.806 173.438 554.806ZM190.729 552.96V555.482C190.235 555.404 189.793 555.378 189.403 555.378C187.219 555.378 186.127 556.574 186.127 559.668V567H183.761V553.012H186.075V555.456C186.777 553.87 188.181 553.012 190.027 552.934C190.261 552.934 190.443 552.934 190.729 552.96ZM203.202 555.222V553.012H205.568V565.128C205.568 567.962 205.048 569.158 204.242 570.042C203.228 571.212 201.486 571.888 199.406 571.888C196.208 571.888 194.102 570.432 193.66 567.598H196.182C196.468 568.846 197.274 569.808 199.432 569.808C200.706 569.808 201.642 569.47 202.292 568.768C202.786 568.196 203.202 567.598 203.202 565.674V564.348C202.344 565.83 201.018 566.766 198.756 566.766C195.662 566.766 192.828 564.27 192.828 559.772C192.828 555.3 195.662 552.778 198.756 552.778C201.018 552.778 202.344 553.74 203.202 555.222ZM203.306 559.772C203.306 556.236 201.434 554.806 199.354 554.806C197.04 554.806 195.402 556.574 195.402 559.772C195.402 562.996 197.04 564.764 199.354 564.764C201.434 564.764 203.306 563.334 203.306 559.772ZM222.693 560.786H211.929C212.007 563.802 214.191 565.258 216.245 565.258C218.325 565.258 219.469 564.322 220.067 562.944H222.511C221.887 565.336 219.651 567.338 216.245 567.338C211.825 567.338 209.381 564.166 209.381 560.032C209.381 555.586 212.345 552.778 216.167 552.778C220.457 552.778 222.979 556.34 222.693 560.786ZM216.167 554.806C214.087 554.806 212.163 555.95 211.955 558.758H220.197C220.119 556.782 218.689 554.806 216.167 554.806ZM228.857 553.012V555.118C229.663 553.792 231.015 552.778 233.381 552.778C236.761 552.778 237.983 554.962 237.983 558.16V567H235.617V558.862C235.617 556.704 235.253 554.832 232.549 554.832C230.261 554.832 228.857 556.392 228.857 559.408V567H226.491V553.012H228.857ZM242.583 567V564.01H245.573V567.208L243.987 570.614H242.479L243.857 567H242.583ZM261.652 567V550.438H255.516V548.15H270.44V550.438H264.304V567H261.652ZM275.216 548.15V555.118C276.022 553.792 277.374 552.778 279.74 552.778C283.12 552.778 284.342 554.962 284.342 558.16V567H281.976V558.862C281.976 556.704 281.612 554.832 278.908 554.832C276.62 554.832 275.216 556.392 275.216 559.408V567H272.85V548.15H275.216ZM288.921 553.012H291.287V567H288.921V553.012ZM288.921 548.15H291.287V551.01H288.921V548.15ZM296.08 567.754V553.012H298.446V567.702C298.446 570.614 297.848 571.55 295.144 571.55H293.948V569.574H294.624C295.846 569.574 296.08 569.21 296.08 567.754ZM296.08 548.15H298.446V551.01H296.08V548.15ZM313.717 557.094H311.247C310.857 555.43 309.609 554.78 307.945 554.78C306.567 554.78 305.007 555.274 305.007 556.548C305.007 557.666 305.787 558.16 307.139 558.446L309.115 558.836C311.663 559.304 313.899 560.318 313.899 562.996C313.899 565.778 311.403 567.338 308.205 567.338C304.539 567.338 302.485 564.92 302.199 562.476H304.695C305.085 564.27 306.177 565.336 308.257 565.336C310.051 565.336 311.507 564.582 311.507 563.256C311.507 561.826 310.181 561.28 308.673 560.942L306.593 560.526C304.695 560.11 302.615 559.278 302.615 556.652C302.615 554.182 305.111 552.752 308.205 552.752C311.247 552.752 313.275 554.416 313.717 557.094ZM325.514 567V548.15H332.3C335.81 548.15 338.93 549.06 338.93 552.804C338.93 554.598 338.176 556.21 336.85 556.964C338.644 557.718 339.71 559.122 339.71 561.436C339.71 565.44 336.72 567 332.95 567H325.514ZM328.166 558.316V564.764H332.976C335.68 564.764 336.98 563.62 336.98 561.462C336.98 559.252 335.654 558.316 332.82 558.316H328.166ZM328.166 550.386V556.21H332.716C334.9 556.21 336.252 555.378 336.252 553.168C336.252 551.218 334.822 550.386 332.716 550.386H328.166ZM350.626 552.96V555.482C350.132 555.404 349.69 555.378 349.3 555.378C347.116 555.378 346.024 556.574 346.024 559.668V567H343.658V553.012H345.972V555.456C346.674 553.87 348.078 553.012 349.924 552.934C350.158 552.934 350.34 552.934 350.626 552.96ZM362.599 567V564.998C361.793 566.324 360.519 567.338 358.205 567.338C354.981 567.338 353.733 565.154 353.733 561.956V553.012H356.099V561.254C356.099 563.412 356.437 565.284 359.037 565.284C361.299 565.284 362.599 563.724 362.599 560.708V553.012H364.965V567H362.599ZM369.758 553.012H372.124V567H369.758V553.012ZM369.758 548.15H372.124V551.01H369.758V548.15ZM379.283 553.012V555.118C380.089 553.792 381.441 552.778 383.807 552.778C387.187 552.778 388.409 554.962 388.409 558.16V567H386.043V558.862C386.043 556.704 385.679 554.832 382.975 554.832C380.687 554.832 379.283 556.392 379.283 559.408V567H376.917V553.012H379.283ZM405.338 560.786H394.574C394.652 563.802 396.836 565.258 398.89 565.258C400.97 565.258 402.114 564.322 402.712 562.944H405.156C404.532 565.336 402.296 567.338 398.89 567.338C394.47 567.338 392.026 564.166 392.026 560.032C392.026 555.586 394.99 552.778 398.812 552.778C403.102 552.778 405.624 556.34 405.338 560.786ZM398.812 554.806C396.732 554.806 394.808 555.95 394.6 558.758H402.842C402.764 556.782 401.334 554.806 398.812 554.806ZM411.502 559.408V567H409.136V553.012H411.502V555.118C412.308 553.792 413.608 552.778 415.714 552.778C417.872 552.778 419.12 553.688 419.744 555.248C420.862 553.506 422.474 552.778 424.45 552.778C427.7 552.778 428.974 554.962 428.974 558.16V567H426.608V558.862C426.608 556.704 426.192 554.832 423.618 554.832C421.564 554.832 420.238 556.392 420.238 559.408V567H417.872V558.862C417.872 556.704 417.456 554.832 414.882 554.832C412.828 554.832 411.502 556.392 411.502 559.408ZM442.374 561.15V560.266C438.084 560.682 435.354 561.332 435.354 563.256C435.354 564.582 436.368 565.466 438.058 565.466C440.268 565.466 442.374 564.452 442.374 561.15ZM437.538 567.338C434.912 567.338 432.728 565.882 432.728 563.308C432.728 560.006 436.472 559.018 442.192 558.394V558.056C442.192 555.482 440.788 554.65 439.02 554.65C437.044 554.65 435.926 555.69 435.822 557.432H433.378C433.586 554.416 436.29 552.726 438.994 552.726C442.868 552.726 444.584 554.546 444.558 558.498L444.532 561.722C444.506 564.088 444.61 565.674 444.896 567H442.504C442.426 566.48 442.348 565.908 442.322 565.076C441.464 566.532 440.034 567.338 437.538 567.338ZM451.49 553.012V555.118C452.296 553.792 453.648 552.778 456.014 552.778C459.394 552.778 460.616 554.962 460.616 558.16V567H458.25V558.862C458.25 556.704 457.886 554.832 455.182 554.832C452.894 554.832 451.49 556.392 451.49 559.408V567H449.124V553.012H451.49Z" fill="#B2A630"/>
<path d="M957.682 318C958.524 318 959.261 318.632 959.393 319.475L961.104 330.558C961.184 331.163 961.604 331.663 962.157 331.9L973.609 336.533C974.188 336.77 974.82 336.692 975.294 336.323L984.35 329.609C985.034 329.109 985.982 329.162 986.588 329.768L998.803 341.799C999.408 342.404 999.487 343.378 998.987 344.062L992.484 352.935C992.063 353.487 992.064 354.225 992.406 354.83C994.486 358.305 996.144 362.07 997.329 366.045C997.54 366.677 998.066 367.15 998.724 367.256L1009.46 368.862C1010.31 368.968 1010.94 369.704 1010.94 370.547L1011.07 387.658C1011.07 388.501 1010.44 389.238 1009.6 389.37L999.408 390.949L998.044 392.414C996.817 396.424 995.166 400.623 993.327 404.35C992.985 404.929 993.038 405.666 993.433 406.192L999.461 414.327C999.961 415.012 999.908 415.959 999.303 416.564L987.272 428.78C986.667 429.386 985.692 429.464 985.008 428.964L977.216 423.251C976.663 422.83 975.926 422.804 975.32 423.172C971.477 425.515 967.265 427.332 962.842 428.569C962.184 428.754 961.71 429.307 961.604 429.965L960.386 439.255C960.28 440.097 959.199 441.021 958.356 441.021H941.359C940.517 441.021 939.78 440.389 939.648 439.547L938.18 430.264C938.074 429.579 937.568 428.99 936.91 428.832C932.382 427.674 928.118 425.937 924.195 423.646C923.616 423.304 922.879 423.331 922.326 423.752L914.691 429.411C914.007 429.911 912.813 429.438 912.207 428.832L900.238 417.223C899.633 416.617 899.554 415.643 900.054 414.959L905.819 407.113C906.241 406.56 906.267 405.823 905.925 405.244C903.713 401.427 902.028 397.294 900.896 392.924C900.739 392.239 900.185 391.739 899.501 391.634L889.603 390.159C888.76 390.054 888.129 389.317 888.129 388.475L887.997 371.337C887.997 370.495 888.628 369.757 889.471 369.625L899.791 368.046C900.475 367.941 901.002 367.467 901.187 366.809C902.345 362.702 904.003 358.831 906.109 355.225C906.451 354.619 906.425 353.882 906.004 353.329L899.606 344.694C899.106 344.01 899.159 343.062 899.765 342.457L911.796 330.241C912.401 329.636 913.375 329.558 914.06 330.058L923.116 336.691C923.59 337.06 924.248 337.139 924.801 336.902L936.174 332.084C936.726 331.847 937.121 331.347 937.2 330.742L938.858 319.605C938.964 318.763 939.702 318.132 940.544 318.132L957.682 318ZM949.39 359.38C937.786 359.38 928.378 368.787 928.378 380.392C928.378 391.996 937.786 401.402 949.39 401.402C960.994 401.402 970.4 391.996 970.4 380.392C970.4 368.788 960.994 359.38 949.39 359.38Z" fill="#FFF100"/>
<path d="M957.682 318V316.47L957.67 316.47L957.682 318ZM959.393 319.475L960.905 319.241L960.904 319.238L959.393 319.475ZM961.104 330.558L962.622 330.36L962.619 330.342L962.617 330.324L961.104 330.558ZM962.157 331.9L961.555 333.307L961.569 333.313L961.583 333.319L962.157 331.9ZM973.609 336.533L974.189 335.117L974.183 335.115L973.609 336.533ZM975.294 336.323L974.383 335.094L974.369 335.105L974.355 335.115L975.294 336.323ZM984.35 329.609L983.447 328.374L983.438 328.38L984.35 329.609ZM986.588 329.768L985.506 330.849L985.514 330.858L986.588 329.768ZM998.803 341.799L999.885 340.717L999.876 340.709L998.803 341.799ZM998.987 344.062L1000.22 344.967L1000.22 344.965L998.987 344.062ZM992.484 352.935L993.702 353.862L993.71 353.85L993.718 353.839L992.484 352.935ZM992.406 354.83L991.074 355.583L991.084 355.599L991.093 355.616L992.406 354.83ZM997.329 366.045L995.863 366.482L995.87 366.505L995.878 366.529L997.329 366.045ZM998.724 367.256L998.482 368.767L998.489 368.768L998.497 368.769L998.724 367.256ZM1009.46 368.862L1009.24 370.375L1009.26 370.378L1009.28 370.38L1009.46 368.862ZM1010.94 370.547H1009.41L1009.41 370.559L1010.94 370.547ZM1011.07 387.658H1012.6L1012.6 387.646L1011.07 387.658ZM1009.6 389.37L1009.83 390.882L1009.83 390.882L1009.6 389.37ZM999.408 390.949L999.174 389.437L998.65 389.518L998.289 389.906L999.408 390.949ZM998.044 392.414L996.924 391.371L996.684 391.629L996.581 391.967L998.044 392.414ZM993.327 404.35L994.645 405.128L994.674 405.078L994.699 405.027L993.327 404.35ZM993.433 406.192L994.662 405.281L994.657 405.274L993.433 406.192ZM999.461 414.327L1000.7 413.424L1000.69 413.416L999.461 414.327ZM999.303 416.564L998.221 415.483L998.213 415.491L999.303 416.564ZM987.272 428.78L988.354 429.862L988.363 429.854L987.272 428.78ZM985.008 428.964L984.103 430.198L984.105 430.199L985.008 428.964ZM977.216 423.251L976.289 424.468L976.3 424.477L976.311 424.485L977.216 423.251ZM975.32 423.172L974.525 421.865L974.524 421.865L975.32 423.172ZM962.842 428.569L962.43 427.096L962.429 427.096L962.842 428.569ZM961.604 429.965L960.094 429.723L960.09 429.744L960.087 429.766L961.604 429.965ZM960.386 439.255L958.869 439.056L958.868 439.065L960.386 439.255ZM958.356 441.021V442.551H958.357L958.356 441.021ZM941.359 441.021L941.359 442.551H941.359V441.021ZM939.648 439.547L941.16 439.311L941.16 439.308L939.648 439.547ZM938.18 430.264L936.667 430.496L936.668 430.503L938.18 430.264ZM936.91 428.832L936.531 430.314L936.542 430.317L936.553 430.32L936.91 428.832ZM924.195 423.646L923.417 424.964L923.424 424.968L924.195 423.646ZM922.326 423.752L923.237 424.981L923.245 424.975L923.253 424.969L922.326 423.752ZM914.691 429.411L915.594 430.646L915.602 430.64L914.691 429.411ZM912.207 428.832L913.289 427.75L913.281 427.742L913.272 427.734L912.207 428.832ZM900.238 417.223L899.156 418.304L899.165 418.313L899.173 418.321L900.238 417.223ZM900.054 414.959L898.821 414.053L898.818 414.057L900.054 414.959ZM905.819 407.113L904.602 406.186L904.594 406.197L904.586 406.207L905.819 407.113ZM905.925 405.244L904.601 406.011L904.608 406.022L905.925 405.244ZM900.896 392.924L899.406 393.268L899.41 393.288L899.415 393.307L900.896 392.924ZM899.501 391.634L899.734 390.122L899.726 390.12L899.501 391.634ZM889.603 390.159L889.828 388.646L889.81 388.643L889.793 388.641L889.603 390.159ZM888.129 388.475H889.659L889.659 388.463L888.129 388.475ZM887.997 371.337H886.467L886.467 371.349L887.997 371.337ZM889.471 369.625L889.239 368.113L889.234 368.113L889.471 369.625ZM899.791 368.046L900.022 369.558L900.024 369.558L899.791 368.046ZM901.187 366.809L899.714 366.393L899.713 366.396L901.187 366.809ZM906.109 355.225L907.431 355.996L907.436 355.987L907.441 355.977L906.109 355.225ZM906.004 353.329L904.775 354.24L904.781 354.248L904.787 354.256L906.004 353.329ZM899.606 344.694L898.371 345.597L898.377 345.605L899.606 344.694ZM899.765 342.457L900.847 343.539L900.855 343.531L899.765 342.457ZM911.796 330.241L910.714 329.159L910.706 329.168L911.796 330.241ZM914.06 330.058L914.964 328.823L914.962 328.822L914.06 330.058ZM923.116 336.691L924.055 335.484L924.038 335.47L924.02 335.457L923.116 336.691ZM924.801 336.902L924.204 335.494L924.198 335.496L924.801 336.902ZM936.174 332.084L936.771 333.493L936.777 333.49L936.174 332.084ZM937.2 330.742L935.687 330.517L935.685 330.53L935.683 330.544L937.2 330.742ZM938.858 319.605L940.372 319.831L940.374 319.813L940.377 319.796L938.858 319.605ZM940.544 318.132V319.662L940.556 319.662L940.544 318.132ZM949.39 359.38L949.39 357.85H949.39V359.38ZM928.378 380.392L926.848 380.392V380.392L928.378 380.392ZM949.39 401.402V402.932H949.39L949.39 401.402ZM970.4 380.392L971.93 380.392V380.392L970.4 380.392ZM957.682 318V319.53C957.716 319.53 957.761 319.543 957.806 319.581C957.85 319.619 957.874 319.666 957.881 319.711L959.393 319.475L960.904 319.238C960.657 317.659 959.285 316.47 957.682 316.47V318ZM959.393 319.475L957.881 319.708L959.592 330.791L961.104 330.558L962.617 330.324L960.905 319.241L959.393 319.475ZM961.104 330.558L959.587 330.756C959.744 331.958 960.564 332.882 961.555 333.307L962.157 331.9L962.76 330.494C962.71 330.473 962.672 330.441 962.648 330.412C962.626 330.384 962.622 330.366 962.622 330.36L961.104 330.558ZM962.157 331.9L961.583 333.319L973.036 337.952L973.609 336.533L974.183 335.115L962.731 330.482L962.157 331.9ZM973.609 336.533L973.03 337.949C974.089 338.382 975.304 338.254 976.233 337.531L975.294 336.323L974.355 335.115C974.339 335.127 974.323 335.134 974.302 335.137C974.28 335.14 974.242 335.139 974.189 335.117L973.609 336.533ZM975.294 336.323L976.205 337.552L985.261 330.838L984.35 329.609L983.438 328.38L974.383 335.094L975.294 336.323ZM984.35 329.609L985.252 330.845C985.352 330.772 985.455 330.798 985.506 330.849L986.588 329.768L987.67 328.686C986.51 327.526 984.716 327.446 983.447 328.374L984.35 329.609ZM986.588 329.768L985.514 330.858L997.729 342.889L998.803 341.799L999.876 340.709L987.662 328.678L986.588 329.768ZM998.803 341.799L997.721 342.881C997.755 342.915 997.78 342.965 997.785 343.025C997.79 343.086 997.773 343.131 997.752 343.16L998.987 344.062L1000.22 344.965C1001.17 343.663 1001.02 341.848 999.885 340.717L998.803 341.799ZM998.987 344.062L997.753 343.158L991.25 352.03L992.484 352.935L993.718 353.839L1000.22 344.967L998.987 344.062ZM992.484 352.935L991.267 352.007C990.42 353.12 990.479 354.53 991.074 355.583L992.406 354.83L993.738 354.077C993.696 354.003 993.687 353.942 993.688 353.908C993.689 353.879 993.696 353.869 993.702 353.862L992.484 352.935ZM992.406 354.83L991.093 355.616C993.107 358.98 994.714 362.628 995.863 366.482L997.329 366.045L998.795 365.608C997.575 361.512 995.865 357.63 993.719 354.044L992.406 354.83ZM997.329 366.045L995.878 366.529C996.256 367.664 997.223 368.565 998.482 368.767L998.724 367.256L998.966 365.745C998.908 365.736 998.823 365.689 998.781 365.561L997.329 366.045ZM998.724 367.256L998.497 368.769L1009.24 370.375L1009.46 368.862L1009.69 367.349L998.95 365.743L998.724 367.256ZM1009.46 368.862L1009.28 370.38C1009.3 370.384 1009.33 370.397 1009.36 370.432C1009.4 370.469 1009.41 370.511 1009.41 370.547H1010.94H1012.47C1012.47 368.952 1011.28 367.548 1009.65 367.344L1009.46 368.862ZM1010.94 370.547L1009.41 370.559L1009.54 387.67L1011.07 387.658L1012.6 387.646L1012.47 370.535L1010.94 370.547ZM1011.07 387.658H1009.54C1009.54 387.693 1009.53 387.738 1009.49 387.783C1009.45 387.828 1009.4 387.852 1009.36 387.858L1009.6 389.37L1009.83 390.882C1011.41 390.635 1012.6 389.261 1012.6 387.658H1011.07ZM1009.6 389.37L1009.36 387.858L999.174 389.437L999.408 390.949L999.643 392.461L1009.83 390.882L1009.6 389.37ZM999.408 390.949L998.289 389.906L996.924 391.371L998.044 392.414L999.164 393.457L1000.53 391.992L999.408 390.949ZM998.044 392.414L996.581 391.967C995.377 395.901 993.756 400.023 991.955 403.672L993.327 404.35L994.699 405.027C996.576 401.223 998.257 396.947 999.507 392.862L998.044 392.414ZM993.327 404.35L992.01 403.572C991.346 404.696 991.452 406.102 992.209 407.11L993.433 406.192L994.657 405.274C994.645 405.259 994.633 405.232 994.631 405.197C994.629 405.164 994.637 405.141 994.645 405.128L993.327 404.35ZM993.433 406.192L992.203 407.103L998.232 415.238L999.461 414.327L1000.69 413.416L994.662 405.281L993.433 406.192ZM999.461 414.327L998.226 415.23C998.298 415.329 998.272 415.431 998.221 415.483L999.303 416.564L1000.38 417.646C1001.54 416.487 1001.62 414.694 1000.7 413.425L999.461 414.327ZM999.303 416.564L998.213 415.491L986.182 427.707L987.272 428.78L988.363 429.854L1000.39 417.638L999.303 416.564ZM987.272 428.78L986.191 427.698C986.157 427.732 986.108 427.757 986.046 427.762C985.985 427.767 985.939 427.75 985.911 427.729L985.008 428.964L984.105 430.199C985.406 431.15 987.222 430.994 988.354 429.862L987.272 428.78ZM985.008 428.964L985.912 427.73L978.12 422.017L977.216 423.251L976.311 424.485L984.103 430.198L985.008 428.964ZM977.216 423.251L978.143 422.034C977.066 421.213 975.643 421.185 974.525 421.865L975.32 423.172L976.116 424.479C976.167 424.448 976.206 424.443 976.227 424.444C976.246 424.445 976.265 424.45 976.289 424.468L977.216 423.251ZM975.32 423.172L974.524 421.865C970.804 424.133 966.721 425.895 962.43 427.096L962.842 428.569L963.254 430.043C967.808 428.769 972.15 426.897 976.117 424.478L975.32 423.172ZM962.842 428.569L962.429 427.096C961.178 427.446 960.29 428.494 960.094 429.723L961.604 429.965L963.115 430.207C963.129 430.12 963.189 430.061 963.254 430.043L962.842 428.569ZM961.604 429.965L960.087 429.766L958.869 439.056L960.386 439.255L961.903 439.454L963.121 430.164L961.604 429.965ZM960.386 439.255L958.868 439.065C958.876 438.998 958.892 439.002 958.849 439.07C958.809 439.134 958.74 439.216 958.647 439.297C958.553 439.378 958.459 439.436 958.386 439.469C958.306 439.505 958.297 439.491 958.356 439.491L958.356 441.021L958.357 442.551C959.278 442.551 960.101 442.085 960.648 441.611C961.194 441.139 961.787 440.382 961.904 439.445L960.386 439.255ZM958.356 441.021V439.491H941.359V441.021V442.551H958.356V441.021ZM941.359 441.021L941.36 439.491C941.325 439.491 941.28 439.479 941.235 439.44C941.191 439.402 941.167 439.355 941.16 439.311L939.648 439.547L938.137 439.783C938.384 441.363 939.756 442.551 941.359 442.551L941.359 441.021ZM939.648 439.547L941.16 439.308L939.691 430.025L938.18 430.264L936.668 430.503L938.137 439.786L939.648 439.547ZM938.18 430.264L939.692 430.031C939.501 428.789 938.584 427.66 937.267 427.344L936.91 428.832L936.553 430.32C936.547 430.318 936.569 430.322 936.603 430.36C936.637 430.399 936.66 430.45 936.667 430.496L938.18 430.264ZM936.91 428.832L937.289 427.35C932.894 426.225 928.762 424.541 924.967 422.325L924.195 423.646L923.424 424.968C927.473 427.332 931.87 429.122 936.531 430.314L936.91 428.832ZM924.195 423.646L924.974 422.329C923.876 421.681 922.463 421.724 921.399 422.535L922.326 423.752L923.253 424.969C923.295 424.937 923.357 424.928 923.417 424.964L924.195 423.646ZM922.326 423.752L921.415 422.523L913.78 428.182L914.691 429.411L915.602 430.64L923.237 424.981L922.326 423.752ZM914.691 429.411L913.789 428.176C913.89 428.102 913.975 428.092 913.984 428.091C913.987 428.091 913.939 428.093 913.841 428.065C913.745 428.038 913.636 427.991 913.528 427.928C913.419 427.864 913.337 427.799 913.289 427.75L912.207 428.832L911.125 429.914C911.615 430.403 912.293 430.805 912.999 431.007C913.67 431.199 914.705 431.296 915.594 430.646L914.691 429.411ZM912.207 428.832L913.272 427.734L901.304 416.124L900.238 417.223L899.173 418.321L911.142 429.93L912.207 428.832ZM900.238 417.223L901.32 416.141C901.287 416.107 901.262 416.057 901.257 415.996C901.252 415.935 901.269 415.89 901.289 415.861L900.054 414.959L898.818 414.057C897.867 415.359 898.026 417.173 899.156 418.304L900.238 417.223ZM900.054 414.959L901.287 415.865L907.052 408.019L905.819 407.113L904.586 406.207L898.821 414.053L900.054 414.959ZM905.819 407.113L907.036 408.041C907.847 406.977 907.891 405.564 907.242 404.466L905.925 405.244L904.608 406.022C904.643 406.083 904.634 406.144 904.602 406.186L905.819 407.113ZM905.925 405.244L907.249 404.477C905.109 400.783 903.476 396.78 902.378 392.54L900.896 392.924L899.415 393.307C900.581 397.808 902.318 402.071 904.601 406.011L905.925 405.244ZM900.896 392.924L902.387 392.58C902.086 391.273 901.024 390.32 899.734 390.122L899.501 391.634L899.268 393.146C899.31 393.152 899.34 393.169 899.361 393.188C899.381 393.207 899.397 393.231 899.406 393.268L900.896 392.924ZM899.501 391.634L899.726 390.12L889.828 388.646L889.603 390.159L889.377 391.672L899.276 393.147L899.501 391.634ZM889.603 390.159L889.793 388.641C889.767 388.638 889.735 388.625 889.705 388.589C889.673 388.553 889.659 388.511 889.659 388.475H888.129H886.599C886.599 390.068 887.784 391.474 889.413 391.677L889.603 390.159ZM888.129 388.475L889.659 388.463L889.527 371.325L887.997 371.337L886.467 371.349L886.599 388.486L888.129 388.475ZM887.997 371.337H889.527C889.527 371.302 889.54 371.256 889.578 371.212C889.617 371.167 889.663 371.144 889.707 371.137L889.471 369.625L889.234 368.113C887.653 368.361 886.467 369.735 886.467 371.337H887.997ZM889.471 369.625L889.702 371.137L900.022 369.558L899.791 368.046L899.56 366.534L889.239 368.113L889.471 369.625ZM899.791 368.046L900.024 369.558C901.307 369.361 902.315 368.452 902.66 367.221L901.187 366.809L899.713 366.396C899.698 366.449 899.676 366.477 899.659 366.492C899.643 366.506 899.613 366.525 899.558 366.534L899.791 368.046ZM901.187 366.809L902.659 367.224C903.782 363.243 905.389 359.493 907.431 355.996L906.109 355.225L904.788 354.453C902.618 358.17 900.908 362.16 899.714 366.393L901.187 366.809ZM906.109 355.225L907.441 355.977C908.062 354.879 908.04 353.476 907.221 352.402L906.004 353.329L904.787 354.256C904.804 354.279 904.813 354.303 904.815 354.334C904.816 354.367 904.809 354.416 904.777 354.472L906.109 355.225ZM906.004 353.329L907.233 352.418L900.836 343.784L899.606 344.694L898.377 345.605L904.775 354.24L906.004 353.329ZM899.606 344.694L900.842 343.792C900.769 343.692 900.795 343.59 900.847 343.539L899.765 342.457L898.683 341.375C897.523 342.535 897.444 344.328 898.371 345.597L899.606 344.694ZM899.765 342.457L900.855 343.531L912.886 331.315L911.796 330.241L910.706 329.168L898.675 341.383L899.765 342.457ZM911.796 330.241L912.877 331.323C912.911 331.29 912.961 331.265 913.022 331.26C913.082 331.255 913.128 331.272 913.157 331.293L914.06 330.058L914.962 328.822C913.661 327.871 911.846 328.028 910.714 329.159L911.796 330.241ZM914.06 330.058L913.155 331.292L922.212 337.926L923.116 336.691L924.02 335.457L914.964 328.823L914.06 330.058ZM923.116 336.691L922.177 337.899C923.099 338.616 924.349 338.76 925.403 338.309L924.801 336.902L924.198 335.496C924.18 335.504 924.151 335.51 924.117 335.505C924.084 335.501 924.063 335.49 924.055 335.484L923.116 336.691ZM924.801 336.902L925.398 338.311L936.771 333.493L936.174 332.084L935.577 330.675L924.204 335.494L924.801 336.902ZM936.174 332.084L936.777 333.49C937.805 333.049 938.565 332.103 938.717 330.94L937.2 330.742L935.683 330.544C935.679 330.573 935.669 330.596 935.653 330.616C935.637 330.638 935.61 330.661 935.571 330.678L936.174 332.084ZM937.2 330.742L938.714 330.968L940.372 319.831L938.858 319.605L937.345 319.38L935.687 330.517L937.2 330.742ZM938.858 319.605L940.377 319.796C940.38 319.771 940.392 319.739 940.428 319.708C940.465 319.676 940.508 319.662 940.544 319.662V318.132V316.602C938.952 316.602 937.544 317.786 937.34 319.415L938.858 319.605ZM940.544 318.132L940.556 319.662L957.693 319.53L957.682 318L957.67 316.47L940.532 316.602L940.544 318.132ZM949.39 359.38V357.85C936.941 357.85 926.848 367.943 926.848 380.392L928.378 380.392L929.908 380.392C929.908 369.632 938.631 360.91 949.39 360.91V359.38ZM928.378 380.392L926.848 380.392C926.848 392.841 936.941 402.932 949.39 402.932V401.402V399.872C938.63 399.872 929.908 391.151 929.908 380.392L928.378 380.392ZM949.39 401.402L949.39 402.932C961.839 402.932 971.93 392.841 971.93 380.392L970.4 380.392L968.87 380.392C968.87 391.151 960.149 399.872 949.39 399.872L949.39 401.402ZM970.4 380.392L971.93 380.392C971.93 367.943 961.839 357.85 949.39 357.85L949.39 359.38L949.39 360.91C960.148 360.91 968.87 369.633 968.87 380.392L970.4 380.392Z" fill="#998B00"/>
<path d="M960.5 371.269L911.909 455.473C911.662 455.902 911.642 456.425 911.856 456.871L960.777 558.894C960.966 559.289 961.318 559.581 961.741 559.694L994.385 568.446C994.769 568.549 995.097 568.8 995.296 569.145L1008.61 592.213C1009.18 593.213 1010.63 593.213 1011.21 592.213L1034.41 552.007C1034.75 551.419 1035.44 551.132 1036.09 551.308L1056.43 556.76C1057.11 556.942 1057.82 556.63 1058.15 556.009L1110.19 456.998C1110.46 456.485 1110.41 455.863 1110.06 455.399L1053.43 379.943C1053.3 379.781 1053.15 379.645 1052.98 379.544L1021.8 361.536C1021.57 361.404 1021.38 361.215 1021.25 360.987L1011.21 343.578C1010.63 342.577 1009.18 342.577 1008.61 343.578L989.474 376.734C989.135 377.322 988.443 377.609 987.787 377.433L962.187 370.57C961.531 370.394 960.839 370.681 960.5 371.269Z" fill="#FFFDCC" stroke="#998B00" stroke-width="3.21" stroke-miterlimit="10" stroke-linecap="round"/>
<path d="M1053.52 544.038L1064.32 522.428" stroke="#998B00" stroke-width="3.21" stroke-miterlimit="10" stroke-linecap="round"/>
<path d="M946.434 411.207L958.044 389.918" stroke="#998B00" stroke-width="3.21" stroke-miterlimit="10" stroke-linecap="round"/>
<path d="M1058.15 486.931L1067.41 469.952" stroke="#998B00" stroke-width="3.21" stroke-miterlimit="10" stroke-linecap="round"/>
<path d="M1050.43 394.323L1078.99 434.454" stroke="#998B00" stroke-width="3.21" stroke-miterlimit="10" stroke-linecap="round"/>
<path d="M955.163 514.897L969.028 546.222" stroke="#998B00" stroke-width="3.21" stroke-miterlimit="10" stroke-linecap="round"/>
<path d="M1020.75 362.08L993.678 409.111" stroke="#998B00" stroke-width="3.21" stroke-miterlimit="10" stroke-linecap="round"/>
<path d="M1090.22 456.355L1064.12 502.733C1063.92 503.084 1063.59 503.341 1063.2 503.446L1017.7 515.698C1017.18 515.838 1016.63 515.689 1016.25 515.308L988.118 487.041C987.744 486.666 987.596 486.121 987.729 485.608L995.28 456.355" stroke="#998B00" stroke-width="3.21" stroke-miterlimit="10" stroke-linecap="round"/>
<path d="M1049.14 455.328L1022.87 418.264C1022.68 417.99 1022.4 417.789 1022.08 417.693L980.233 405.239C979.739 405.092 979.205 405.209 978.817 405.548L952.177 428.865C951.797 429.197 951.61 429.698 951.679 430.198L955.146 455.328" stroke="#998B00" stroke-width="3.21" stroke-miterlimit="10" stroke-linecap="round"/>
<path d="M995.637 567.969L1027.14 513.764" stroke="#998B00" stroke-width="3.21" stroke-miterlimit="10" stroke-linecap="round"/>
<path d="M911.78 456.187L1138.6 456.187" stroke="#998B00" stroke-width="3.21" stroke-miterlimit="10" stroke-linecap="round"/>
<path d="M1089.15 441.022C1061.33 441.022 1038.87 418.556 1038.87 390.736C1038.87 362.917 1061.33 340.451 1089.15 340.451C1116.97 340.451 1139.44 362.917 1139.44 390.736C1139.44 418.556 1116.97 441.022 1089.15 441.022Z" fill="#FFFDCC" stroke="#998B00" stroke-width="3.21" stroke-miterlimit="10" stroke-linecap="round"/>
<path d="M1116.04 383.287H1106.18V398.174H1116.04C1120.13 398.174 1123.53 394.775 1123.53 390.685C1123.53 386.565 1120.13 383.287 1116.04 383.287Z" fill="#FFF100" stroke="#998B00" stroke-width="3.21" stroke-miterlimit="10" stroke-linecap="round"/>
<path d="M1057.84 390.876C1057.84 402.437 1067.2 411.849 1078.69 411.849C1090.17 411.849 1099.53 402.437 1099.53 390.876C1099.53 379.316 1090.17 369.904 1078.69 369.904C1067.2 369.904 1057.84 379.316 1057.84 390.876Z" fill="#FFF100" stroke="#998B00" stroke-width="3.21" stroke-miterlimit="10" stroke-linecap="round"/>
</g>
<defs>
<linearGradient id="paint0_linear_15571_30663" x1="589" y1="-32.2631" x2="586.036" y2="763.354" gradientUnits="userSpaceOnUse">
<stop stop-color="#FDEF00"/>
<stop offset="0.938633" stop-color="#FFFAA3"/>
</linearGradient>
<clipPath id="clip0_15571_30663">
<rect width="1200" height="627" fill="white"/>
</clipPath>
<clipPath id="clip1_15571_30663">
<rect width="1200" height="627" fill="white"/>
</clipPath>
</defs>
</svg>
