<svg width="1200" height="515" viewBox="0 0 1200 515" fill="none" xmlns="http://www.w3.org/2000/svg">
<g clip-path="url(#clip0_15571_30702)">
<rect width="1200" height="515" fill="url(#paint0_linear_15571_30702)"/>
<g clip-path="url(#clip1_15571_30702)">
<rect width="1200" height="515" fill="url(#paint1_linear_15571_30702)"/>
<path d="M794.497 -399.098C794.497 -399.924 793.827 -400.594 793 -400.594C792.174 -400.594 791.504 -399.924 791.504 -399.098L793 -399.098L794.497 -399.098ZM791.943 89.4604C792.527 90.0447 793.475 90.0447 794.059 89.4604L803.581 79.938C804.166 79.3536 804.166 78.4062 803.581 77.8219C802.997 77.2376 802.05 77.2376 801.465 77.8219L793.001 86.2863L784.537 77.8219C783.952 77.2376 783.005 77.2376 782.421 77.8219C781.836 78.4062 781.836 79.3537 782.421 79.938L791.943 89.4604ZM793 -399.098L791.504 -399.098L791.505 88.4023L793.001 88.4023L794.497 88.4023L794.497 -399.098L793 -399.098Z" fill="#F0DF09"/>
<path d="M534.999 -473.862L619.612 -473.862C655.51 -473.862 684.612 -444.761 684.612 -408.862L684.612 -199C684.612 -163.102 713.713 -134 749.612 -134L816 -134C851.899 -134 881 -104.899 881 -69L881 108.5C881 144.398 910.102 173.5 946 173.5L1208 173.5" stroke="#F0DF09" stroke-width="2.9926"/>
<path d="M603.001 749.902L782.689 749.902C818.587 749.902 847.689 720.801 847.689 684.902L847.689 496.402C847.689 460.504 876.79 431.402 912.689 431.402L985.001 431.402C1020.9 431.402 1050 402.301 1050 366.402L1050 -148.098" stroke="#F0DF09" stroke-width="2.9926"/>
<path d="M371.999 631.403L371.999 512.5C371.999 476.602 342.897 447.5 306.999 447.5L165.999 447.501C130.101 447.501 100.999 418.399 100.999 382.501L100.999 149.965C100.999 114.066 130.101 84.9648 165.999 84.9648L483.243 84.9649C519.141 84.9649 548.243 55.8634 548.243 19.9649L548.243 -373.097C548.243 -408.996 577.344 -438.097 613.243 -438.097L792.999 -438.097" stroke="#F0DF09" stroke-width="2.9926"/>
<rect x="92.9619" y="245.866" width="16.0762" height="38.0762" rx="8.0381" fill="#D4C50B" stroke="#F0DF09" stroke-width="1.92382"/>
<path d="M1115.4 127.28C1114.71 127.28 1114.15 127.075 1113.72 126.664C1113.31 126.253 1113.1 125.721 1113.1 125.068C1113.1 124.377 1113.31 123.817 1113.72 123.388C1114.15 122.959 1114.71 122.744 1115.4 122.744C1116.09 122.744 1116.64 122.959 1117.05 123.388C1117.48 123.817 1117.7 124.377 1117.7 125.068C1117.7 125.721 1117.48 126.253 1117.05 126.664C1116.64 127.075 1116.09 127.28 1115.4 127.28ZM1128.75 124.116L1126.81 122.744L1128.63 120.14C1128.88 119.804 1129.2 119.393 1129.61 118.908C1130.04 118.423 1130.44 117.993 1130.82 117.62C1130.29 117.545 1129.74 117.433 1129.17 117.284C1128.59 117.135 1128.13 116.995 1127.79 116.864L1124.8 115.744L1125.58 113.532L1128.61 114.652C1128.92 114.764 1129.34 114.941 1129.87 115.184C1130.39 115.427 1130.86 115.679 1131.29 115.94C1131.2 115.455 1131.13 114.96 1131.07 114.456C1131.03 113.933 1131.01 113.495 1131.01 113.14V109.64H1133.37V113.14C1133.37 113.495 1133.34 113.933 1133.28 114.456C1133.23 114.96 1133.15 115.455 1133.06 115.94C1133.51 115.679 1133.98 115.427 1134.49 115.184C1135.01 114.941 1135.44 114.764 1135.77 114.652L1138.8 113.532L1139.58 115.744L1136.59 116.864C1136.25 116.995 1135.79 117.135 1135.21 117.284C1134.63 117.433 1134.08 117.545 1133.56 117.62C1133.93 117.993 1134.34 118.432 1134.77 118.936C1135.19 119.421 1135.52 119.823 1135.75 120.14L1137.57 122.744L1135.63 124.116L1133.81 121.484C1133.59 121.167 1133.32 120.728 1133 120.168C1132.68 119.608 1132.41 119.085 1132.19 118.6C1131.97 119.085 1131.69 119.608 1131.38 120.168C1131.06 120.709 1130.79 121.148 1130.57 121.484L1128.75 124.116Z" fill="#F3E223"/>
<path d="M548.494 881.278C548.494 882.104 549.163 882.774 549.99 882.774C550.816 882.774 551.486 882.104 551.486 881.278L549.99 881.278L548.494 881.278ZM551.047 392.72C550.463 392.135 549.516 392.135 548.931 392.72L539.409 402.242C538.824 402.827 538.824 403.774 539.409 404.358C539.993 404.943 540.941 404.943 541.525 404.358L549.989 395.894L558.454 404.358C559.038 404.943 559.985 404.943 560.57 404.358C561.154 403.774 561.154 402.827 560.57 402.242L551.047 392.72ZM549.99 881.278L551.486 881.278L551.486 393.778L549.989 393.778L548.493 393.778L548.494 881.278L549.99 881.278Z" fill="#F0DF09"/>
</g>
<path d="M535.682 122.171C536.524 122.171 537.261 122.803 537.393 123.646L539.104 134.729C539.184 135.334 539.604 135.834 540.157 136.071L551.609 140.704C552.188 140.941 552.82 140.863 553.294 140.494L562.35 133.78C563.034 133.28 563.982 133.333 564.588 133.938L576.803 145.97C577.408 146.575 577.487 147.549 576.987 148.233L570.484 157.105C570.063 157.658 570.064 158.396 570.406 159.001C572.486 162.476 574.144 166.241 575.329 170.216C575.54 170.847 576.066 171.321 576.724 171.427L587.465 173.033C588.307 173.139 588.939 173.875 588.939 174.718L589.071 191.829C589.071 192.672 588.439 193.409 587.597 193.541L577.408 195.12L576.044 196.585C574.817 200.595 573.166 204.794 571.327 208.521C570.985 209.1 571.038 209.837 571.433 210.363L577.461 218.498C577.961 219.183 577.908 220.13 577.303 220.735L565.272 232.951C564.667 233.557 563.692 233.635 563.008 233.135L555.216 227.422C554.663 227.001 553.926 226.974 553.32 227.343C549.477 229.686 545.265 231.503 540.842 232.74C540.184 232.925 539.71 233.478 539.604 234.136L538.386 243.426C538.28 244.268 537.199 245.192 536.356 245.192H519.359C518.517 245.192 517.78 244.56 517.648 243.718L516.18 234.435C516.074 233.75 515.568 233.161 514.91 233.003C510.382 231.845 506.118 230.108 502.195 227.817C501.616 227.475 500.879 227.502 500.326 227.923L492.691 233.582C492.007 234.082 490.813 233.608 490.207 233.003L478.238 221.394C477.633 220.788 477.554 219.814 478.054 219.13L483.819 211.284C484.241 210.731 484.267 209.994 483.925 209.415C481.713 205.598 480.028 201.465 478.896 197.095C478.739 196.41 478.185 195.91 477.501 195.805L467.603 194.33C466.76 194.225 466.129 193.488 466.129 192.646L465.997 175.508C465.997 174.666 466.628 173.928 467.471 173.796L477.791 172.217C478.475 172.111 479.002 171.638 479.187 170.979C480.345 166.873 482.003 163.002 484.109 159.396C484.451 158.79 484.425 158.053 484.004 157.5L477.606 148.865C477.106 148.181 477.159 147.233 477.765 146.628L489.796 134.412C490.401 133.807 491.375 133.728 492.06 134.229L501.116 140.862C501.59 141.231 502.248 141.31 502.801 141.073L514.174 136.255C514.726 136.018 515.121 135.518 515.2 134.913L516.858 123.776C516.964 122.934 517.702 122.303 518.544 122.303L535.682 122.171ZM527.39 163.551C515.786 163.551 506.378 172.958 506.378 184.562C506.378 196.167 515.786 205.573 527.39 205.573C538.994 205.573 548.4 196.166 548.4 184.562C548.4 172.959 538.994 163.551 527.39 163.551Z" fill="#FFF100"/>
<path d="M535.682 122.171V120.641L535.67 120.641L535.682 122.171ZM537.393 123.646L538.905 123.412L538.904 123.409L537.393 123.646ZM539.104 134.729L540.622 134.53L540.619 134.513L540.617 134.495L539.104 134.729ZM540.157 136.071L539.555 137.478L539.569 137.484L539.583 137.49L540.157 136.071ZM551.609 140.704L552.189 139.288L552.183 139.286L551.609 140.704ZM553.294 140.494L552.383 139.265L552.369 139.276L552.355 139.286L553.294 140.494ZM562.35 133.78L561.447 132.545L561.438 132.551L562.35 133.78ZM564.588 133.938L563.506 135.02L563.514 135.029L564.588 133.938ZM576.803 145.97L577.885 144.888L577.876 144.88L576.803 145.97ZM576.987 148.233L578.221 149.138L578.223 149.136L576.987 148.233ZM570.484 157.105L571.702 158.033L571.71 158.021L571.718 158.01L570.484 157.105ZM570.406 159.001L569.074 159.754L569.084 159.77L569.093 159.787L570.406 159.001ZM575.329 170.216L573.863 170.653L573.87 170.676L573.878 170.7L575.329 170.216ZM576.724 171.427L576.482 172.937L576.489 172.939L576.497 172.94L576.724 171.427ZM587.465 173.033L587.239 174.546L587.257 174.549L587.275 174.551L587.465 173.033ZM588.939 174.718H587.409L587.41 174.73L588.939 174.718ZM589.071 191.829H590.601L590.601 191.817L589.071 191.829ZM587.597 193.541L587.831 195.053L587.833 195.053L587.597 193.541ZM577.408 195.12L577.174 193.608L576.65 193.689L576.289 194.077L577.408 195.12ZM576.044 196.585L574.924 195.542L574.684 195.8L574.581 196.137L576.044 196.585ZM571.327 208.521L572.645 209.299L572.674 209.249L572.699 209.198L571.327 208.521ZM571.433 210.363L572.662 209.452L572.657 209.445L571.433 210.363ZM577.461 218.498L578.696 217.595L578.69 217.587L577.461 218.498ZM577.303 220.735L576.221 219.653L576.213 219.662L577.303 220.735ZM565.272 232.951L566.354 234.033L566.363 234.025L565.272 232.951ZM563.008 233.135L562.103 234.369L562.105 234.37L563.008 233.135ZM555.216 227.422L554.289 228.639L554.3 228.647L554.311 228.656L555.216 227.422ZM553.32 227.343L552.525 226.036L552.524 226.036L553.32 227.343ZM540.842 232.74L540.43 231.267L540.429 231.267L540.842 232.74ZM539.604 234.136L538.094 233.894L538.09 233.915L538.087 233.937L539.604 234.136ZM538.386 243.426L536.869 243.227L536.868 243.236L538.386 243.426ZM536.356 245.192V246.722H536.357L536.356 245.192ZM519.359 245.192L519.359 246.722H519.359V245.192ZM517.648 243.718L519.16 243.482L519.16 243.479L517.648 243.718ZM516.18 234.435L514.667 234.667L514.668 234.674L516.18 234.435ZM514.91 233.003L514.531 234.485L514.542 234.488L514.553 234.491L514.91 233.003ZM502.195 227.817L501.417 229.135L501.424 229.139L502.195 227.817ZM500.326 227.923L501.237 229.152L501.245 229.146L501.253 229.14L500.326 227.923ZM492.691 233.582L493.594 234.817L493.602 234.811L492.691 233.582ZM490.207 233.003L491.289 231.921L491.281 231.913L491.272 231.905L490.207 233.003ZM478.238 221.394L477.156 222.475L477.165 222.484L477.173 222.492L478.238 221.394ZM478.054 219.13L476.821 218.224L476.818 218.228L478.054 219.13ZM483.819 211.284L482.602 210.357L482.594 210.367L482.586 210.378L483.819 211.284ZM483.925 209.415L482.601 210.182L482.608 210.193L483.925 209.415ZM478.896 197.095L477.406 197.439L477.41 197.459L477.415 197.478L478.896 197.095ZM477.501 195.805L477.734 194.292L477.726 194.291L477.501 195.805ZM467.603 194.33L467.828 192.817L467.81 192.814L467.793 192.812L467.603 194.33ZM466.129 192.646H467.659L467.659 192.634L466.129 192.646ZM465.997 175.508H464.467L464.467 175.52L465.997 175.508ZM467.471 173.796L467.239 172.283L467.234 172.284L467.471 173.796ZM477.791 172.217L478.022 173.729L478.024 173.729L477.791 172.217ZM479.187 170.979L477.714 170.564L477.713 170.567L479.187 170.979ZM484.109 159.396L485.431 160.167L485.436 160.158L485.441 160.148L484.109 159.396ZM484.004 157.5L482.775 158.411L482.781 158.419L482.787 158.427L484.004 157.5ZM477.606 148.865L476.371 149.768L476.377 149.776L477.606 148.865ZM477.765 146.628L478.847 147.71L478.855 147.702L477.765 146.628ZM489.796 134.412L488.714 133.33L488.706 133.339L489.796 134.412ZM492.06 134.229L492.964 132.994L492.962 132.993L492.06 134.229ZM501.116 140.862L502.055 139.654L502.038 139.641L502.02 139.628L501.116 140.862ZM502.801 141.073L502.204 139.664L502.198 139.667L502.801 141.073ZM514.174 136.255L514.771 137.664L514.777 137.661L514.174 136.255ZM515.2 134.913L513.687 134.688L513.685 134.701L513.683 134.715L515.2 134.913ZM516.858 123.776L518.372 124.002L518.374 123.984L518.377 123.966L516.858 123.776ZM518.544 122.303V123.833L518.556 123.833L518.544 122.303ZM527.39 163.551L527.39 162.021H527.39V163.551ZM506.378 184.562L504.848 184.562V184.563L506.378 184.562ZM527.39 205.573V207.103H527.39L527.39 205.573ZM548.4 184.562L549.93 184.563V184.562L548.4 184.562ZM535.682 122.171V123.701C535.716 123.701 535.761 123.714 535.806 123.752C535.85 123.79 535.874 123.837 535.881 123.882L537.393 123.646L538.904 123.409C538.657 121.829 537.285 120.641 535.682 120.641V122.171ZM537.393 123.646L535.881 123.879L537.592 134.962L539.104 134.729L540.617 134.495L538.905 123.412L537.393 123.646ZM539.104 134.729L537.587 134.927C537.744 136.128 538.564 137.053 539.555 137.478L540.157 136.071L540.76 134.665C540.71 134.644 540.672 134.612 540.648 134.583C540.626 134.555 540.622 134.537 540.622 134.53L539.104 134.729ZM540.157 136.071L539.583 137.49L551.036 142.122L551.609 140.704L552.183 139.286L540.731 134.653L540.157 136.071ZM551.609 140.704L551.03 142.12C552.089 142.553 553.304 142.425 554.233 141.702L553.294 140.494L552.355 139.286C552.339 139.298 552.323 139.305 552.302 139.308C552.28 139.311 552.242 139.31 552.189 139.288L551.609 140.704ZM553.294 140.494L554.205 141.723L563.261 135.009L562.35 133.78L561.438 132.551L552.383 139.265L553.294 140.494ZM562.35 133.78L563.252 135.016C563.352 134.943 563.455 134.969 563.506 135.02L564.588 133.938L565.67 132.857C564.51 131.697 562.716 131.617 561.447 132.545L562.35 133.78ZM564.588 133.938L563.514 135.029L575.729 147.06L576.803 145.97L577.876 144.88L565.662 132.848L564.588 133.938ZM576.803 145.97L575.721 147.052C575.755 147.085 575.78 147.135 575.785 147.196C575.79 147.257 575.773 147.302 575.752 147.331L576.987 148.233L578.223 149.136C579.174 147.834 579.016 146.019 577.885 144.888L576.803 145.97ZM576.987 148.233L575.753 147.329L569.25 156.201L570.484 157.105L571.718 158.01L578.221 149.138L576.987 148.233ZM570.484 157.105L569.267 156.178C568.42 157.291 568.479 158.701 569.074 159.754L570.406 159.001L571.738 158.248C571.696 158.174 571.687 158.113 571.688 158.078C571.689 158.05 571.696 158.04 571.702 158.033L570.484 157.105ZM570.406 159.001L569.093 159.787C571.107 163.151 572.714 166.799 573.863 170.653L575.329 170.216L576.795 169.779C575.575 165.683 573.865 161.801 571.719 158.215L570.406 159.001ZM575.329 170.216L573.878 170.7C574.256 171.835 575.223 172.736 576.482 172.937L576.724 171.427L576.966 169.916C576.908 169.907 576.823 169.86 576.781 169.732L575.329 170.216ZM576.724 171.427L576.497 172.94L587.239 174.546L587.465 173.033L587.691 171.52L576.95 169.914L576.724 171.427ZM587.465 173.033L587.275 174.551C587.301 174.555 587.333 174.568 587.364 174.603C587.396 174.64 587.409 174.682 587.409 174.718H588.939H590.469C590.469 173.123 589.282 171.718 587.655 171.515L587.465 173.033ZM588.939 174.718L587.41 174.73L587.541 191.841L589.071 191.829L590.601 191.817L590.469 174.706L588.939 174.718ZM589.071 191.829H587.541C587.541 191.864 587.528 191.909 587.49 191.954C587.452 191.998 587.405 192.022 587.36 192.029L587.597 193.541L587.833 195.053C589.414 194.806 590.601 193.432 590.601 191.829H589.071ZM587.597 193.541L587.362 192.029L577.174 193.608L577.408 195.12L577.643 196.632L587.831 195.053L587.597 193.541ZM577.408 195.12L576.289 194.077L574.924 195.542L576.044 196.585L577.164 197.628L578.528 196.163L577.408 195.12ZM576.044 196.585L574.581 196.137C573.377 200.072 571.756 204.194 569.955 207.843L571.327 208.521L572.699 209.198C574.576 205.394 576.257 201.118 577.507 197.032L576.044 196.585ZM571.327 208.521L570.01 207.742C569.346 208.867 569.452 210.273 570.209 211.281L571.433 210.363L572.657 209.445C572.645 209.43 572.633 209.403 572.631 209.368C572.629 209.335 572.637 209.312 572.645 209.299L571.327 208.521ZM571.433 210.363L570.203 211.274L576.232 219.409L577.461 218.498L578.69 217.587L572.662 209.452L571.433 210.363ZM577.461 218.498L576.226 219.401C576.298 219.5 576.272 219.602 576.221 219.653L577.303 220.735L578.385 221.817C579.544 220.658 579.624 218.865 578.696 217.595L577.461 218.498ZM577.303 220.735L576.213 219.662L564.182 231.878L565.272 232.951L566.363 234.025L578.393 221.809L577.303 220.735ZM565.272 232.951L564.191 231.869C564.157 231.903 564.108 231.928 564.046 231.933C563.985 231.937 563.939 231.92 563.911 231.899L563.008 233.135L562.105 234.37C563.406 235.321 565.222 235.165 566.354 234.033L565.272 232.951ZM563.008 233.135L563.912 231.901L556.12 226.188L555.216 227.422L554.311 228.656L562.103 234.369L563.008 233.135ZM555.216 227.422L556.143 226.205C555.066 225.384 553.643 225.356 552.525 226.036L553.32 227.343L554.116 228.65C554.167 228.619 554.206 228.614 554.227 228.615C554.246 228.616 554.265 228.621 554.289 228.639L555.216 227.422ZM553.32 227.343L552.524 226.036C548.804 228.304 544.721 230.066 540.43 231.267L540.842 232.74L541.254 234.214C545.808 232.94 550.15 231.067 554.117 228.649L553.32 227.343ZM540.842 232.74L540.429 231.267C539.178 231.617 538.29 232.664 538.094 233.894L539.604 234.136L541.115 234.377C541.129 234.291 541.189 234.232 541.254 234.214L540.842 232.74ZM539.604 234.136L538.087 233.937L536.869 243.227L538.386 243.426L539.903 243.625L541.121 234.335L539.604 234.136ZM538.386 243.426L536.868 243.236C536.876 243.169 536.892 243.172 536.849 243.241C536.809 243.304 536.74 243.387 536.647 243.468C536.553 243.549 536.459 243.607 536.386 243.64C536.306 243.676 536.297 243.662 536.356 243.662L536.356 245.192L536.357 246.722C537.278 246.722 538.101 246.255 538.648 245.782C539.194 245.31 539.787 244.553 539.904 243.616L538.386 243.426ZM536.356 245.192V243.662H519.359V245.192V246.722H536.356V245.192ZM519.359 245.192L519.36 243.662C519.325 243.662 519.28 243.649 519.235 243.611C519.191 243.573 519.167 243.526 519.16 243.482L517.648 243.718L516.137 243.954C516.384 245.534 517.756 246.722 519.359 246.722L519.359 245.192ZM517.648 243.718L519.16 243.479L517.691 234.195L516.18 234.435L514.668 234.674L516.137 243.957L517.648 243.718ZM516.18 234.435L517.692 234.202C517.501 232.96 516.584 231.831 515.267 231.515L514.91 233.003L514.553 234.491C514.547 234.489 514.569 234.493 514.603 234.531C514.637 234.57 514.66 234.621 514.667 234.667L516.18 234.435ZM514.91 233.003L515.289 231.521C510.894 230.396 506.762 228.712 502.967 226.496L502.195 227.817L501.424 229.139C505.473 231.503 509.87 233.293 514.531 234.485L514.91 233.003ZM502.195 227.817L502.974 226.5C501.876 225.851 500.463 225.895 499.399 226.706L500.326 227.923L501.253 229.14C501.295 229.108 501.357 229.099 501.417 229.135L502.195 227.817ZM500.326 227.923L499.415 226.694L491.78 232.353L492.691 233.582L493.602 234.811L501.237 229.152L500.326 227.923ZM492.691 233.582L491.789 232.347C491.89 232.272 491.975 232.263 491.984 232.262C491.987 232.262 491.939 232.264 491.841 232.236C491.745 232.209 491.636 232.162 491.528 232.099C491.419 232.035 491.337 231.97 491.289 231.921L490.207 233.003L489.125 234.085C489.615 234.574 490.293 234.976 490.999 235.178C491.67 235.37 492.705 235.467 493.594 234.817L492.691 233.582ZM490.207 233.003L491.272 231.905L479.304 220.295L478.238 221.394L477.173 222.492L489.142 234.101L490.207 233.003ZM478.238 221.394L479.32 220.312C479.287 220.278 479.262 220.228 479.257 220.167C479.252 220.106 479.269 220.061 479.289 220.032L478.054 219.13L476.818 218.228C475.867 219.529 476.026 221.344 477.156 222.475L478.238 221.394ZM478.054 219.13L479.287 220.036L485.052 212.19L483.819 211.284L482.586 210.378L476.821 218.224L478.054 219.13ZM483.819 211.284L485.036 212.211C485.847 211.148 485.891 209.735 485.242 208.637L483.925 209.415L482.608 210.193C482.643 210.254 482.634 210.315 482.602 210.357L483.819 211.284ZM483.925 209.415L485.249 208.648C483.109 204.954 481.476 200.951 480.378 196.711L478.896 197.095L477.415 197.478C478.581 201.979 480.318 206.241 482.601 210.182L483.925 209.415ZM478.896 197.095L480.387 196.751C480.086 195.444 479.024 194.491 477.734 194.292L477.501 195.805L477.268 197.317C477.31 197.323 477.34 197.34 477.361 197.359C477.381 197.377 477.397 197.402 477.406 197.439L478.896 197.095ZM477.501 195.805L477.726 194.291L467.828 192.817L467.603 194.33L467.377 195.843L477.276 197.318L477.501 195.805ZM467.603 194.33L467.793 192.812C467.767 192.809 467.735 192.796 467.705 192.76C467.673 192.724 467.659 192.682 467.659 192.646H466.129H464.599C464.599 194.239 465.784 195.644 467.413 195.848L467.603 194.33ZM466.129 192.646L467.659 192.634L467.527 175.496L465.997 175.508L464.467 175.52L464.599 192.657L466.129 192.646ZM465.997 175.508H467.527C467.527 175.473 467.54 175.427 467.578 175.383C467.617 175.338 467.663 175.314 467.707 175.308L467.471 173.796L467.234 172.284C465.653 172.532 464.467 173.906 464.467 175.508H465.997ZM467.471 173.796L467.702 175.308L478.022 173.729L477.791 172.217L477.56 170.704L467.239 172.284L467.471 173.796ZM477.791 172.217L478.024 173.729C479.307 173.532 480.315 172.623 480.66 171.392L479.187 170.979L477.713 170.567C477.698 170.62 477.676 170.648 477.659 170.663C477.643 170.677 477.613 170.696 477.558 170.705L477.791 172.217ZM479.187 170.979L480.659 171.395C481.782 167.414 483.389 163.663 485.431 160.167L484.109 159.396L482.788 158.624C480.618 162.341 478.908 166.331 477.714 170.564L479.187 170.979ZM484.109 159.396L485.441 160.148C486.062 159.05 486.04 157.647 485.221 156.573L484.004 157.5L482.787 158.427C482.804 158.45 482.813 158.474 482.815 158.505C482.816 158.538 482.809 158.587 482.777 158.643L484.109 159.396ZM484.004 157.5L485.233 156.589L478.836 147.954L477.606 148.865L476.377 149.776L482.775 158.411L484.004 157.5ZM477.606 148.865L478.842 147.963C478.769 147.863 478.795 147.761 478.847 147.71L477.765 146.628L476.683 145.546C475.523 146.706 475.444 148.499 476.371 149.768L477.606 148.865ZM477.765 146.628L478.855 147.702L490.886 135.486L489.796 134.412L488.706 133.339L476.675 145.554L477.765 146.628ZM489.796 134.412L490.877 135.494C490.911 135.461 490.961 135.436 491.022 135.431C491.082 135.426 491.128 135.443 491.157 135.464L492.06 134.229L492.962 132.993C491.661 132.042 489.846 132.199 488.714 133.33L489.796 134.412ZM492.06 134.229L491.155 135.463L500.212 142.097L501.116 140.862L502.02 139.628L492.964 132.994L492.06 134.229ZM501.116 140.862L500.177 142.07C501.099 142.787 502.349 142.931 503.403 142.48L502.801 141.073L502.198 139.667C502.18 139.675 502.151 139.681 502.117 139.676C502.084 139.672 502.063 139.661 502.055 139.654L501.116 140.862ZM502.801 141.073L503.398 142.482L514.771 137.664L514.174 136.255L513.577 134.846L502.204 139.664L502.801 141.073ZM514.174 136.255L514.777 137.661C515.805 137.22 516.565 136.274 516.717 135.111L515.2 134.913L513.683 134.715C513.679 134.744 513.669 134.767 513.653 134.787C513.637 134.809 513.61 134.832 513.571 134.849L514.174 136.255ZM515.2 134.913L516.714 135.138L518.372 124.002L516.858 123.776L515.345 123.551L513.687 134.688L515.2 134.913ZM516.858 123.776L518.377 123.966C518.38 123.942 518.392 123.91 518.428 123.879C518.465 123.847 518.508 123.833 518.544 123.833V122.303V120.773C516.952 120.773 515.544 121.957 515.34 123.586L516.858 123.776ZM518.544 122.303L518.556 123.833L535.693 123.701L535.682 122.171L535.67 120.641L518.532 120.773L518.544 122.303ZM527.39 163.551V162.021C514.941 162.021 504.848 172.113 504.848 184.562L506.378 184.562L507.908 184.563C507.908 173.803 516.631 165.081 527.39 165.081V163.551ZM506.378 184.562L504.848 184.563C504.848 197.012 514.941 207.103 527.39 207.103V205.573V204.043C516.63 204.043 507.908 195.322 507.908 184.562L506.378 184.562ZM527.39 205.573L527.39 207.103C539.839 207.103 549.93 197.011 549.93 184.563L548.4 184.562L546.87 184.562C546.87 195.321 538.149 204.043 527.39 204.043L527.39 205.573ZM548.4 184.562L549.93 184.562C549.93 172.114 539.839 162.021 527.39 162.021L527.39 163.551L527.39 165.081C538.148 165.081 546.87 173.803 546.87 184.563L548.4 184.562Z" fill="#998B00"/>
<path d="M538.5 175.44L489.909 259.644C489.662 260.073 489.642 260.596 489.856 261.042L538.777 363.065C538.966 363.46 539.318 363.752 539.741 363.865L572.385 372.617C572.769 372.72 573.097 372.971 573.296 373.316L586.607 396.384C587.185 397.384 588.629 397.384 589.206 396.384L612.407 356.178C612.746 355.59 613.438 355.303 614.094 355.479L634.431 360.931C635.108 361.113 635.821 360.801 636.147 360.18L688.187 261.168C688.457 260.656 688.407 260.034 688.059 259.57L631.426 184.113C631.304 183.952 631.151 183.816 630.976 183.715L599.801 165.707C599.573 165.575 599.383 165.386 599.252 165.158L589.206 147.748C588.629 146.748 587.185 146.748 586.607 147.749L567.474 180.905C567.135 181.493 566.443 181.78 565.787 181.604L540.187 174.741C539.531 174.565 538.839 174.852 538.5 175.44Z" fill="#FFFDCC" stroke="#998B00" stroke-width="3.21" stroke-miterlimit="10" stroke-linecap="round"/>
<path d="M631.52 348.208L642.324 326.599" stroke="#998B00" stroke-width="3.21" stroke-miterlimit="10" stroke-linecap="round"/>
<path d="M524.434 215.378L536.044 194.089" stroke="#998B00" stroke-width="3.21" stroke-miterlimit="10" stroke-linecap="round"/>
<path d="M636.148 291.102L645.41 274.123" stroke="#998B00" stroke-width="3.21" stroke-miterlimit="10" stroke-linecap="round"/>
<path d="M628.433 198.493L656.988 238.625" stroke="#998B00" stroke-width="3.21" stroke-miterlimit="10" stroke-linecap="round"/>
<path d="M533.163 319.068L547.028 350.393" stroke="#998B00" stroke-width="3.21" stroke-miterlimit="10" stroke-linecap="round"/>
<path d="M598.749 166.251L571.678 213.282" stroke="#998B00" stroke-width="3.21" stroke-miterlimit="10" stroke-linecap="round"/>
<path d="M668.22 260.526L642.119 306.904C641.921 307.255 641.591 307.512 641.202 307.616L595.699 319.869C595.18 320.009 594.625 319.86 594.246 319.478L566.118 291.212C565.744 290.837 565.596 290.292 565.729 289.779L573.28 260.526" stroke="#998B00" stroke-width="3.21" stroke-miterlimit="10" stroke-linecap="round"/>
<path d="M627.138 259.499L600.874 222.435C600.68 222.161 600.399 221.96 600.078 221.864L558.233 209.41C557.739 209.263 557.205 209.38 556.817 209.719L530.177 233.035C529.797 233.368 529.61 233.869 529.679 234.369L533.146 259.499" stroke="#998B00" stroke-width="3.21" stroke-miterlimit="10" stroke-linecap="round"/>
<path d="M573.637 372.14L605.138 317.935" stroke="#998B00" stroke-width="3.21" stroke-miterlimit="10" stroke-linecap="round"/>
<path d="M489.78 260.358L716.601 260.358" stroke="#998B00" stroke-width="3.21" stroke-miterlimit="10" stroke-linecap="round"/>
<path d="M667.153 245.193C639.334 245.193 616.868 222.727 616.868 194.907C616.868 167.088 639.334 144.622 667.153 144.622C694.973 144.622 717.439 167.088 717.439 194.907C717.439 222.727 694.973 245.193 667.153 245.193Z" fill="#FFFDCC" stroke="#998B00" stroke-width="3.21" stroke-miterlimit="10" stroke-linecap="round"/>
<path d="M694.042 187.458H684.178V202.345H694.042C698.132 202.345 701.531 198.946 701.531 194.856C701.531 190.736 698.132 187.458 694.042 187.458Z" fill="#FFF100" stroke="#998B00" stroke-width="3.21" stroke-miterlimit="10" stroke-linecap="round"/>
<path d="M635.844 195.047C635.844 206.608 645.197 216.02 656.686 216.02C668.174 216.02 677.528 206.608 677.528 195.047C677.528 183.487 668.174 174.074 656.686 174.074C645.197 174.074 635.844 183.487 635.844 195.047Z" fill="#FFF100" stroke="#998B00" stroke-width="3.21" stroke-miterlimit="10" stroke-linecap="round"/>
</g>
<defs>
<linearGradient id="paint0_linear_15571_30702" x1="589" y1="-26.5" x2="587" y2="627" gradientUnits="userSpaceOnUse">
<stop stop-color="#FDEF00"/>
<stop offset="0.938633" stop-color="#FFFAA3"/>
</linearGradient>
<linearGradient id="paint1_linear_15571_30702" x1="589" y1="-26.5" x2="587" y2="627" gradientUnits="userSpaceOnUse">
<stop stop-color="#FDEF00"/>
<stop offset="0.938633" stop-color="#FFFAA3"/>
</linearGradient>
<clipPath id="clip0_15571_30702">
<rect width="1200" height="515" fill="white"/>
</clipPath>
<clipPath id="clip1_15571_30702">
<rect width="1200" height="515" fill="white"/>
</clipPath>
</defs>
</svg>
