<svg width="1200" height="515" viewBox="0 0 1200 515" fill="none" xmlns="http://www.w3.org/2000/svg">
<g clip-path="url(#clip0_10265_19465)">
<rect width="1200" height="515" fill="url(#paint0_linear_10265_19465)"/>
<g clip-path="url(#clip1_10265_19465)">
<rect width="1200" height="515" fill="url(#paint1_linear_10265_19465)"/>
<path d="M190.504 552C190.504 552.826 191.174 553.496 192 553.496C192.826 553.496 193.496 552.826 193.496 552L192 552L190.504 552ZM193.058 215.942C192.474 215.358 191.526 215.358 190.942 215.942L181.42 225.464C180.835 226.049 180.835 226.996 181.42 227.58C182.004 228.165 182.951 228.165 183.536 227.58L192 219.116L200.464 227.58C201.049 228.165 201.996 228.165 202.58 227.58C203.165 226.996 203.165 226.049 202.58 225.464L193.058 215.942ZM192 552L193.496 552L193.496 217L192 217L190.504 217L190.504 552L192 552Z" fill="#F0DF09"/>
<path d="M465.504 580.5C465.504 581.326 466.174 581.996 467 581.996C467.826 581.996 468.496 581.326 468.496 580.5L467 580.5L465.504 580.5ZM468.059 403.942C467.475 403.358 466.527 403.358 465.943 403.942L456.421 413.464C455.836 414.049 455.836 414.996 456.421 415.58C457.005 416.165 457.952 416.165 458.537 415.58L467.001 407.116L475.465 415.581C476.05 416.165 476.997 416.165 477.581 415.581C478.166 414.996 478.166 414.049 477.581 413.464L468.059 403.942ZM467 580.5L468.496 580.5L468.497 405L467.001 405L465.505 405L465.504 580.5L467 580.5Z" fill="#F0DF09"/>
<path d="M921.496 -31C921.496 -31.8264 920.826 -32.4963 920 -32.4963C919.174 -32.4963 918.504 -31.8264 918.504 -31L920 -31L921.496 -31ZM918.941 145.558C919.525 146.142 920.473 146.142 921.057 145.558L930.579 136.036C931.164 135.451 931.164 134.504 930.579 133.92C929.995 133.335 929.048 133.335 928.463 133.92L919.999 142.384L911.535 133.919C910.95 133.335 910.003 133.335 909.419 133.919C908.834 134.504 908.834 135.451 909.418 136.036L918.941 145.558ZM920 -31L918.504 -31L918.503 144.5L919.999 144.5L921.495 144.5L921.496 -31L920 -31Z" fill="#F0DF09"/>
<path d="M734.496 -135C734.496 -135.826 733.826 -136.496 732.999 -136.496C732.173 -136.496 731.503 -135.826 731.503 -135L732.999 -135L734.496 -135ZM731.942 353.558C732.526 354.142 733.474 354.142 734.058 353.558L743.58 344.036C744.165 343.451 744.165 342.504 743.58 341.92C742.996 341.335 742.049 341.335 741.464 341.92L733 350.384L724.536 341.92C723.951 341.335 723.004 341.335 722.42 341.92C721.835 342.504 721.835 343.451 722.42 344.036L731.942 353.558ZM732.999 -135L731.503 -135L731.504 352.5L733 352.5L734.496 352.5L734.496 -135L732.999 -135Z" fill="#F0DF09"/>
<path d="M71.0035 836.471L70.9998 -175C70.9996 -210.898 100.101 -240 136 -240L258.762 -240C294.661 -240 323.762 -210.898 323.762 -175L323.762 116.494C323.762 152.392 352.864 181.494 388.762 181.494L851.999 181.494C887.897 181.494 916.998 210.595 916.999 246.493L916.999 278.974C917 314.872 946.101 343.973 981.999 343.973L1208 343.973" stroke="#F0DF09" stroke-width="2.9926" stroke-linejoin="round"/>
<path d="M723 854L837 854C872.898 854 902 824.898 902 789L902 481C902 445.101 931.101 416 967 416L985 416C1020.9 416 1050 386.899 1050 351L1050 -44.0001" stroke="#F0DF09" stroke-width="2.9926" stroke-linejoin="round"/>
<path d="M319 551.999L319 344.499C319 308.601 348.102 279.499 384 279.499L525 279.5C560.898 279.5 590 250.398 590 214.5L590 142.498C590 106.6 560.898 77.4986 525 77.4986L207.756 77.4986C171.858 77.4986 142.756 48.3971 142.756 12.4986L142.756 -269C142.756 -304.898 113.655 -334 77.7561 -334L-102 -334" stroke="#F0DF09" stroke-width="2.9926" stroke-linejoin="round"/>
<rect x="1036.96" y="45.9619" width="25.0762" height="50.0762" rx="12.5381" fill="#D4C50B" stroke="#F0DF09" stroke-width="1.92382"/>
<rect x="183.962" y="426.962" width="16.0762" height="38.0762" rx="8.0381" fill="#D4C50B" stroke="#F0DF09" stroke-width="1.92382"/>
<path d="M234.224 165.96L233.888 161.76V157.56H236.604V161.76L236.296 165.96H234.224ZM252.301 178.28C251.069 178.28 249.996 178.047 249.081 177.58C248.185 177.113 247.485 176.441 246.981 175.564C246.496 174.668 246.253 173.613 246.253 172.4V163.16C246.253 161.928 246.496 160.873 246.981 159.996C247.485 159.119 248.185 158.447 249.081 157.98C249.996 157.513 251.069 157.28 252.301 157.28C253.533 157.28 254.597 157.523 255.493 158.008C256.389 158.475 257.08 159.147 257.565 160.024C258.05 160.901 258.293 161.947 258.293 163.16H255.773C255.773 162.003 255.465 161.116 254.849 160.5C254.252 159.865 253.402 159.548 252.301 159.548C251.2 159.548 250.332 159.856 249.697 160.472C249.081 161.088 248.773 161.975 248.773 163.132V172.4C248.773 173.557 249.081 174.453 249.697 175.088C250.332 175.704 251.2 176.012 252.301 176.012C253.402 176.012 254.252 175.704 254.849 175.088C255.465 174.453 255.773 173.557 255.773 172.4H258.293C258.293 173.595 258.05 174.64 257.565 175.536C257.08 176.413 256.389 177.095 255.493 177.58C254.597 178.047 253.533 178.28 252.301 178.28ZM267.718 178V159.828H262.118V157.532H275.838V159.828H270.238V178H267.718ZM279.943 178V157.56H286.271C287.485 157.56 288.549 157.812 289.463 158.316C290.378 158.801 291.087 159.483 291.591 160.36C292.095 161.237 292.347 162.264 292.347 163.44C292.347 164.821 291.983 166.007 291.255 166.996C290.546 167.985 289.575 168.667 288.343 169.04L292.627 178H289.659L285.739 169.32H282.463V178H279.943ZM282.463 167.052H286.271C287.317 167.052 288.157 166.725 288.791 166.072C289.426 165.4 289.743 164.523 289.743 163.44C289.743 162.339 289.426 161.461 288.791 160.808C288.157 160.155 287.317 159.828 286.271 159.828H282.463V167.052ZM301.38 165.96L301.044 161.76V157.56H303.76V161.76L303.452 165.96H301.38Z" fill="#F3E223"/>
<path d="M777.4 139L782.72 118.56H786.108L791.4 139H788.852L787.508 133.568H781.32L779.976 139H777.4ZM781.824 131.44H786.976L785.408 125.14C785.109 123.945 784.876 122.947 784.708 122.144C784.54 121.341 784.437 120.819 784.4 120.576C784.363 120.819 784.26 121.341 784.092 122.144C783.924 122.947 783.691 123.936 783.392 125.112L781.824 131.44ZM799.929 139V120.828H794.329V118.532H808.049V120.828H802.449V139H799.929ZM816.718 139V120.828H811.118V118.532H824.838V120.828H819.238V139H816.718ZM827.767 139L833.087 118.56H836.475L841.767 139H839.219L837.875 133.568H831.687L830.343 139H827.767ZM832.191 131.44H837.343L835.775 125.14C835.477 123.945 835.243 122.947 835.075 122.144C834.907 121.341 834.805 120.819 834.767 120.576C834.73 120.819 834.627 121.341 834.459 122.144C834.291 122.947 834.058 123.936 833.759 125.112L832.191 131.44ZM851.668 139.28C850.436 139.28 849.363 139.047 848.448 138.58C847.552 138.113 846.852 137.441 846.348 136.564C845.863 135.668 845.62 134.613 845.62 133.4V124.16C845.62 122.928 845.863 121.873 846.348 120.996C846.852 120.119 847.552 119.447 848.448 118.98C849.363 118.513 850.436 118.28 851.668 118.28C852.9 118.28 853.964 118.523 854.86 119.008C855.756 119.475 856.447 120.147 856.932 121.024C857.418 121.901 857.66 122.947 857.66 124.16H855.14C855.14 123.003 854.832 122.116 854.216 121.5C853.619 120.865 852.77 120.548 851.668 120.548C850.567 120.548 849.699 120.856 849.064 121.472C848.448 122.088 848.14 122.975 848.14 124.132V133.4C848.14 134.557 848.448 135.453 849.064 136.088C849.699 136.704 850.567 137.012 851.668 137.012C852.77 137.012 853.619 136.704 854.216 136.088C854.832 135.453 855.14 134.557 855.14 133.4H857.66C857.66 134.595 857.418 135.64 856.932 136.536C856.447 137.413 855.756 138.095 854.86 138.58C853.964 139.047 852.9 139.28 851.668 139.28ZM862.549 139V118.56H865.069V127.296H871.621V118.56H874.141V139H871.621V129.592H865.069V139H862.549Z" fill="#F3E223"/>
<path d="M518.719 484.28C517.188 484.28 515.947 483.767 514.995 482.74C514.062 481.713 513.595 480.323 513.595 478.568V474.06C513.595 472.287 514.062 470.887 514.995 469.86C515.928 468.833 517.17 468.32 518.719 468.32C519.988 468.32 521.006 468.665 521.771 469.356C522.536 470.047 522.919 470.971 522.919 472.128L522.415 471.54H522.975L522.919 468.04V463.56H525.439V484H522.919V481.06H522.415L522.919 480.472C522.919 481.648 522.536 482.581 521.771 483.272C521.006 483.944 519.988 484.28 518.719 484.28ZM519.559 482.096C520.604 482.096 521.426 481.769 522.023 481.116C522.62 480.463 522.919 479.557 522.919 478.4V474.2C522.919 473.043 522.62 472.137 522.023 471.484C521.426 470.831 520.604 470.504 519.559 470.504C518.495 470.504 517.655 470.821 517.039 471.456C516.423 472.091 516.115 473.005 516.115 474.2V478.4C516.115 479.595 516.423 480.509 517.039 481.144C517.655 481.779 518.495 482.096 519.559 482.096ZM535.06 484.28C533.436 484.28 532.157 483.869 531.224 483.048C530.291 482.208 529.824 481.079 529.824 479.66C529.824 478.223 530.291 477.093 531.224 476.272C532.157 475.451 533.417 475.04 535.004 475.04H539.764V473.5C539.764 472.548 539.475 471.82 538.896 471.316C538.336 470.793 537.533 470.532 536.488 470.532C535.573 470.532 534.808 470.728 534.192 471.12C533.576 471.493 533.221 472.007 533.128 472.66H530.608C530.776 471.335 531.401 470.28 532.484 469.496C533.567 468.712 534.92 468.32 536.544 468.32C538.317 468.32 539.717 468.777 540.744 469.692C541.771 470.607 542.284 471.848 542.284 473.416V484H539.82V481.06H539.4L539.82 480.64C539.82 481.76 539.381 482.647 538.504 483.3C537.645 483.953 536.497 484.28 535.06 484.28ZM535.676 482.292C536.871 482.292 537.851 481.993 538.616 481.396C539.381 480.799 539.764 480.033 539.764 479.1V476.916H535.06C534.22 476.916 533.557 477.149 533.072 477.616C532.587 478.083 532.344 478.717 532.344 479.52C532.344 480.379 532.633 481.06 533.212 481.564C533.809 482.049 534.631 482.292 535.676 482.292ZM554.873 484C553.548 484 552.512 483.645 551.765 482.936C551.037 482.227 550.673 481.228 550.673 479.94V470.896H546.333V468.6H550.673V464.26H553.193V468.6H559.353V470.896H553.193V479.94C553.193 481.116 553.753 481.704 554.873 481.704H559.073V484H554.873ZM568.638 484.28C567.014 484.28 565.735 483.869 564.802 483.048C563.869 482.208 563.402 481.079 563.402 479.66C563.402 478.223 563.869 477.093 564.802 476.272C565.735 475.451 566.995 475.04 568.582 475.04H573.342V473.5C573.342 472.548 573.053 471.82 572.474 471.316C571.914 470.793 571.111 470.532 570.066 470.532C569.151 470.532 568.386 470.728 567.77 471.12C567.154 471.493 566.799 472.007 566.706 472.66H564.186C564.354 471.335 564.979 470.28 566.062 469.496C567.145 468.712 568.498 468.32 570.122 468.32C571.895 468.32 573.295 468.777 574.322 469.692C575.349 470.607 575.862 471.848 575.862 473.416V484H573.398V481.06H572.978L573.398 480.64C573.398 481.76 572.959 482.647 572.082 483.3C571.223 483.953 570.075 484.28 568.638 484.28ZM569.254 482.292C570.449 482.292 571.429 481.993 572.194 481.396C572.959 480.799 573.342 480.033 573.342 479.1V476.916H568.638C567.798 476.916 567.135 477.149 566.65 477.616C566.165 478.083 565.922 478.717 565.922 479.52C565.922 480.379 566.211 481.06 566.79 481.564C567.387 482.049 568.209 482.292 569.254 482.292ZM588.871 484C587.975 484 587.191 483.823 586.519 483.468C585.847 483.113 585.324 482.609 584.951 481.956C584.578 481.303 584.391 480.537 584.391 479.66V465.856H579.211V463.56H586.911V479.66C586.911 480.295 587.088 480.799 587.443 481.172C587.798 481.527 588.274 481.704 588.871 481.704H593.771V484H588.871ZM602.216 484.28C600.592 484.28 599.313 483.869 598.38 483.048C597.447 482.208 596.98 481.079 596.98 479.66C596.98 478.223 597.447 477.093 598.38 476.272C599.313 475.451 600.573 475.04 602.16 475.04H606.92V473.5C606.92 472.548 606.631 471.82 606.052 471.316C605.492 470.793 604.689 470.532 603.644 470.532C602.729 470.532 601.964 470.728 601.348 471.12C600.732 471.493 600.377 472.007 600.284 472.66H597.764C597.932 471.335 598.557 470.28 599.64 469.496C600.723 468.712 602.076 468.32 603.7 468.32C605.473 468.32 606.873 468.777 607.9 469.692C608.927 470.607 609.44 471.848 609.44 473.416V484H606.976V481.06H606.556L606.976 480.64C606.976 481.76 606.537 482.647 605.66 483.3C604.801 483.953 603.653 484.28 602.216 484.28ZM602.832 482.292C604.027 482.292 605.007 481.993 605.772 481.396C606.537 480.799 606.92 480.033 606.92 479.1V476.916H602.216C601.376 476.916 600.713 477.149 600.228 477.616C599.743 478.083 599.5 478.717 599.5 479.52C599.5 480.379 599.789 481.06 600.368 481.564C600.965 482.049 601.787 482.292 602.832 482.292ZM614.609 484V463.56H617.129V474.956H620.097L624.577 468.6H627.461L622.281 475.936L627.545 484H624.605L620.125 477.14H617.129V484H614.609ZM637.138 484.28C635.925 484.28 634.861 484.037 633.946 483.552C633.05 483.067 632.35 482.385 631.846 481.508C631.361 480.612 631.118 479.576 631.118 478.4V474.2C631.118 473.005 631.361 471.969 631.846 471.092C632.35 470.215 633.05 469.533 633.946 469.048C634.861 468.563 635.925 468.32 637.138 468.32C638.352 468.32 639.406 468.563 640.302 469.048C641.217 469.533 641.917 470.215 642.402 471.092C642.906 471.969 643.158 473.005 643.158 474.2V476.916H633.582V478.4C633.582 479.613 633.89 480.547 634.506 481.2C635.122 481.835 636 482.152 637.138 482.152C638.109 482.152 638.893 481.984 639.49 481.648C640.088 481.293 640.452 480.771 640.582 480.08H643.102C642.934 481.368 642.3 482.395 641.198 483.16C640.116 483.907 638.762 484.28 637.138 484.28ZM640.694 475.236V474.2C640.694 472.987 640.386 472.053 639.77 471.4C639.173 470.747 638.296 470.42 637.138 470.42C636 470.42 635.122 470.747 634.506 471.4C633.89 472.053 633.582 472.987 633.582 474.2V475.012H640.89L640.694 475.236ZM653.927 484.28C653.218 484.28 652.649 484.075 652.219 483.664C651.809 483.253 651.603 482.703 651.603 482.012C651.603 481.284 651.809 480.705 652.219 480.276C652.649 479.847 653.218 479.632 653.927 479.632C654.637 479.632 655.197 479.847 655.607 480.276C656.037 480.705 656.251 481.284 656.251 482.012C656.251 482.703 656.037 483.253 655.607 483.664C655.197 484.075 654.637 484.28 653.927 484.28ZM670.24 484.224C669.195 484.224 668.28 484.065 667.496 483.748C666.731 483.412 666.115 482.945 665.648 482.348C665.2 481.751 664.93 481.041 664.836 480.22H667.356C667.468 480.761 667.767 481.191 668.252 481.508C668.756 481.825 669.419 481.984 670.24 481.984H671.416C672.406 481.984 673.143 481.788 673.628 481.396C674.114 480.985 674.356 480.444 674.356 479.772C674.356 479.119 674.132 478.605 673.684 478.232C673.255 477.84 672.611 477.579 671.752 477.448L669.68 477.112C668.168 476.851 667.039 476.384 666.292 475.712C665.564 475.021 665.2 474.023 665.2 472.716C665.2 471.335 665.639 470.271 666.516 469.524C667.394 468.759 668.71 468.376 670.464 468.376H671.528C673.003 468.376 674.188 468.721 675.084 469.412C675.98 470.103 676.522 471.036 676.708 472.212H674.188C674.076 471.727 673.796 471.344 673.348 471.064C672.9 470.765 672.294 470.616 671.528 470.616H670.464C669.512 470.616 668.812 470.793 668.364 471.148C667.935 471.503 667.72 472.035 667.72 472.744C667.72 473.379 667.907 473.845 668.28 474.144C668.654 474.443 669.242 474.657 670.044 474.788L672.116 475.124C673.778 475.385 674.982 475.871 675.728 476.58C676.494 477.289 676.876 478.316 676.876 479.66C676.876 481.079 676.419 482.199 675.504 483.02C674.608 483.823 673.246 484.224 671.416 484.224H670.24ZM687.617 484.28C686.385 484.28 685.303 484.047 684.369 483.58C683.455 483.113 682.745 482.441 682.241 481.564C681.737 480.668 681.485 479.613 681.485 478.4V474.2C681.485 472.968 681.737 471.913 682.241 471.036C682.745 470.159 683.455 469.487 684.369 469.02C685.303 468.553 686.385 468.32 687.617 468.32C689.391 468.32 690.819 468.796 691.901 469.748C692.984 470.7 693.553 471.997 693.609 473.64H691.089C691.033 472.651 690.697 471.895 690.081 471.372C689.484 470.831 688.663 470.56 687.617 470.56C686.516 470.56 685.639 470.877 684.985 471.512C684.332 472.128 684.005 473.015 684.005 474.172V478.4C684.005 479.557 684.332 480.453 684.985 481.088C685.639 481.723 686.516 482.04 687.617 482.04C688.663 482.04 689.484 481.769 690.081 481.228C690.697 480.687 691.033 479.931 691.089 478.96H693.609C693.553 480.603 692.984 481.9 691.901 482.852C690.819 483.804 689.391 484.28 687.617 484.28ZM698.471 484V463.56H700.991V468.6V471.54H701.523L700.991 472.128C700.991 470.915 701.355 469.981 702.083 469.328C702.811 468.656 703.819 468.32 705.107 468.32C706.656 468.32 707.888 468.796 708.803 469.748C709.717 470.7 710.175 471.997 710.175 473.64V484H707.655V473.92C707.655 472.819 707.356 471.969 706.759 471.372C706.18 470.756 705.387 470.448 704.379 470.448C703.333 470.448 702.503 470.775 701.887 471.428C701.289 472.081 700.991 473.005 700.991 474.2V484H698.471ZM721.084 484.28C719.87 484.28 718.806 484.037 717.892 483.552C716.996 483.067 716.296 482.385 715.792 481.508C715.306 480.612 715.064 479.576 715.064 478.4V474.2C715.064 473.005 715.306 471.969 715.792 471.092C716.296 470.215 716.996 469.533 717.892 469.048C718.806 468.563 719.87 468.32 721.084 468.32C722.297 468.32 723.352 468.563 724.248 469.048C725.162 469.533 725.862 470.215 726.348 471.092C726.852 471.969 727.104 473.005 727.104 474.2V476.916H717.528V478.4C717.528 479.613 717.836 480.547 718.452 481.2C719.068 481.835 719.945 482.152 721.084 482.152C722.054 482.152 722.838 481.984 723.436 481.648C724.033 481.293 724.397 480.771 724.528 480.08H727.048C726.88 481.368 726.245 482.395 725.144 483.16C724.061 483.907 722.708 484.28 721.084 484.28ZM724.64 475.236V474.2C724.64 472.987 724.332 472.053 723.716 471.4C723.118 470.747 722.241 470.42 721.084 470.42C719.945 470.42 719.068 470.747 718.452 471.4C717.836 472.053 717.528 472.987 717.528 474.2V475.012H724.836L724.64 475.236ZM731.321 484V468.6H733.533V470.448H734.037L733.645 471.12C733.645 470.261 733.869 469.58 734.317 469.076C734.783 468.572 735.409 468.32 736.193 468.32C737.051 468.32 737.714 468.637 738.181 469.272C738.647 469.907 738.881 470.803 738.881 471.96L738.125 470.448H739.301L738.769 471.12C738.769 470.261 739.002 469.58 739.469 469.076C739.954 468.572 740.589 468.32 741.373 468.32C742.343 468.32 743.09 468.684 743.613 469.412C744.154 470.14 744.425 471.101 744.425 472.296V484H742.101V472.268C742.101 471.633 741.961 471.139 741.681 470.784C741.419 470.429 741.027 470.252 740.505 470.252C740.001 470.252 739.599 470.429 739.301 470.784C739.021 471.12 738.881 471.605 738.881 472.24V484H736.865V472.268C736.865 471.615 736.715 471.12 736.417 470.784C736.137 470.429 735.735 470.252 735.213 470.252C734.69 470.252 734.298 470.429 734.037 470.784C733.775 471.12 733.645 471.605 733.645 472.24V484H731.321ZM753.318 484.28C751.694 484.28 750.415 483.869 749.482 483.048C748.548 482.208 748.082 481.079 748.082 479.66C748.082 478.223 748.548 477.093 749.482 476.272C750.415 475.451 751.675 475.04 753.262 475.04H758.022V473.5C758.022 472.548 757.732 471.82 757.154 471.316C756.594 470.793 755.791 470.532 754.746 470.532C753.831 470.532 753.066 470.728 752.45 471.12C751.834 471.493 751.479 472.007 751.386 472.66H748.866C749.034 471.335 749.659 470.28 750.742 469.496C751.824 468.712 753.178 468.32 754.802 468.32C756.575 468.32 757.975 468.777 759.002 469.692C760.028 470.607 760.542 471.848 760.542 473.416V484H758.078V481.06H757.658L758.078 480.64C758.078 481.76 757.639 482.647 756.762 483.3C755.903 483.953 754.755 484.28 753.318 484.28ZM753.934 482.292C755.128 482.292 756.108 481.993 756.874 481.396C757.639 480.799 758.022 480.033 758.022 479.1V476.916H753.318C752.478 476.916 751.815 477.149 751.33 477.616C750.844 478.083 750.602 478.717 750.602 479.52C750.602 480.379 750.891 481.06 751.47 481.564C752.067 482.049 752.888 482.292 753.934 482.292ZM771.451 484.28C770.741 484.28 770.172 484.075 769.743 483.664C769.332 483.253 769.127 482.703 769.127 482.012C769.127 481.284 769.332 480.705 769.743 480.276C770.172 479.847 770.741 479.632 771.451 479.632C772.16 479.632 772.72 479.847 773.131 480.276C773.56 480.705 773.775 481.284 773.775 482.012C773.775 482.703 773.56 483.253 773.131 483.664C772.72 484.075 772.16 484.28 771.451 484.28ZM789.92 484C788.595 484 787.559 483.645 786.812 482.936C786.084 482.227 785.72 481.228 785.72 479.94V470.896H781.38V468.6H785.72V464.26H788.24V468.6H794.4V470.896H788.24V479.94C788.24 481.116 788.8 481.704 789.92 481.704H794.12V484H789.92ZM803.685 484.28C802.061 484.28 800.782 483.869 799.849 483.048C798.916 482.208 798.449 481.079 798.449 479.66C798.449 478.223 798.916 477.093 799.849 476.272C800.782 475.451 802.042 475.04 803.629 475.04H808.389V473.5C808.389 472.548 808.1 471.82 807.521 471.316C806.961 470.793 806.158 470.532 805.113 470.532C804.198 470.532 803.433 470.728 802.817 471.12C802.201 471.493 801.846 472.007 801.753 472.66H799.233C799.401 471.335 800.026 470.28 801.109 469.496C802.192 468.712 803.545 468.32 805.169 468.32C806.942 468.32 808.342 468.777 809.369 469.692C810.396 470.607 810.909 471.848 810.909 473.416V484H808.445V481.06H808.025L808.445 480.64C808.445 481.76 808.006 482.647 807.129 483.3C806.27 483.953 805.122 484.28 803.685 484.28ZM804.301 482.292C805.496 482.292 806.476 481.993 807.241 481.396C808.006 480.799 808.389 480.033 808.389 479.1V476.916H803.685C802.845 476.916 802.182 477.149 801.697 477.616C801.212 478.083 800.969 478.717 800.969 479.52C800.969 480.379 801.258 481.06 801.837 481.564C802.434 482.049 803.256 482.292 804.301 482.292ZM822.714 484.28C821.445 484.28 820.427 483.944 819.662 483.272C818.897 482.581 818.514 481.648 818.514 480.472L819.018 481.06H818.514V484H815.994V463.56H818.514V468.04L818.458 471.54H819.018L818.514 472.128C818.514 470.971 818.897 470.047 819.662 469.356C820.446 468.665 821.463 468.32 822.714 468.32C824.263 468.32 825.505 468.833 826.438 469.86C827.371 470.887 827.838 472.287 827.838 474.06V478.568C827.838 480.323 827.371 481.713 826.438 482.74C825.505 483.767 824.263 484.28 822.714 484.28ZM821.874 482.096C822.938 482.096 823.778 481.779 824.394 481.144C825.01 480.509 825.318 479.595 825.318 478.4V474.2C825.318 473.005 825.01 472.091 824.394 471.456C823.778 470.821 822.938 470.504 821.874 470.504C820.847 470.504 820.026 470.831 819.41 471.484C818.813 472.137 818.514 473.043 818.514 474.2V478.4C818.514 479.557 818.813 480.463 819.41 481.116C820.026 481.769 820.847 482.096 821.874 482.096ZM840.707 484C839.811 484 839.027 483.823 838.355 483.468C837.683 483.113 837.16 482.609 836.787 481.956C836.414 481.303 836.227 480.537 836.227 479.66V465.856H831.047V463.56H838.747V479.66C838.747 480.295 838.924 480.799 839.279 481.172C839.634 481.527 840.11 481.704 840.707 481.704H845.607V484H840.707ZM855.396 484.28C854.183 484.28 853.119 484.037 852.204 483.552C851.308 483.067 850.608 482.385 850.104 481.508C849.619 480.612 849.376 479.576 849.376 478.4V474.2C849.376 473.005 849.619 471.969 850.104 471.092C850.608 470.215 851.308 469.533 852.204 469.048C853.119 468.563 854.183 468.32 855.396 468.32C856.609 468.32 857.664 468.563 858.56 469.048C859.475 469.533 860.175 470.215 860.66 471.092C861.164 471.969 861.416 473.005 861.416 474.2V476.916H851.84V478.4C851.84 479.613 852.148 480.547 852.764 481.2C853.38 481.835 854.257 482.152 855.396 482.152C856.367 482.152 857.151 481.984 857.748 481.648C858.345 481.293 858.709 480.771 858.84 480.08H861.36C861.192 481.368 860.557 482.395 859.456 483.16C858.373 483.907 857.02 484.28 855.396 484.28ZM858.952 475.236V474.2C858.952 472.987 858.644 472.053 858.028 471.4C857.431 470.747 856.553 470.42 855.396 470.42C854.257 470.42 853.38 470.747 852.764 471.4C852.148 472.053 851.84 472.987 851.84 474.2V475.012H859.148L858.952 475.236Z" fill="#F3E223"/>
<path d="M120.58 356.36C117.929 355.707 115.867 354.419 114.392 352.496C112.917 350.573 112.18 348.221 112.18 345.44V340.4C112.18 338.571 112.516 336.919 113.188 335.444C113.879 333.951 114.849 332.691 116.1 331.664C117.369 330.637 118.863 329.909 120.58 329.48V331.86C119.385 332.14 118.349 332.681 117.472 333.484C116.595 334.268 115.913 335.248 115.428 336.424C114.943 337.6 114.7 338.925 114.7 340.4V345.44C114.7 346.877 114.933 348.184 115.4 349.36C115.885 350.536 116.567 351.516 117.444 352.3C118.34 353.065 119.385 353.588 120.58 353.868V356.36ZM127.009 356.36V353.868C128.222 353.588 129.268 353.065 130.145 352.3C131.022 351.516 131.694 350.536 132.161 349.36C132.646 348.184 132.889 346.877 132.889 345.44V340.4C132.889 338.925 132.646 337.6 132.161 336.424C131.676 335.248 130.994 334.268 130.117 333.484C129.24 332.681 128.204 332.14 127.009 331.86V329.48C128.745 329.909 130.238 330.637 131.489 331.664C132.74 332.691 133.701 333.951 134.373 335.444C135.064 336.919 135.409 338.571 135.409 340.4V345.44C135.409 348.221 134.672 350.573 133.197 352.496C131.722 354.419 129.66 355.707 127.009 356.36ZM145.338 357.48L147.578 348.772H151.218L147.578 357.48H145.338ZM148.698 341.52C148.082 341.52 147.578 341.324 147.186 340.932C146.794 340.54 146.598 340.036 146.598 339.42C146.598 338.823 146.794 338.328 147.186 337.936C147.597 337.525 148.101 337.32 148.698 337.32H149.258C149.855 337.32 150.35 337.525 150.742 337.936C151.153 338.328 151.358 338.823 151.358 339.42C151.358 340.036 151.162 340.54 150.77 340.932C150.378 341.324 149.874 341.52 149.258 341.52H148.698Z" fill="#F3E223"/>
<path d="M1128.4 495.28C1127.69 495.28 1127.12 495.075 1126.69 494.664C1126.28 494.253 1126.08 493.703 1126.08 493.012C1126.08 492.284 1126.28 491.705 1126.69 491.276C1127.12 490.847 1127.69 490.632 1128.4 490.632C1129.11 490.632 1129.67 490.847 1130.08 491.276C1130.51 491.705 1130.72 492.284 1130.72 493.012C1130.72 493.703 1130.51 494.253 1130.08 494.664C1129.67 495.075 1129.11 495.28 1128.4 495.28ZM1141.86 492.368L1139.84 490.968L1141.35 488.784C1141.6 488.429 1141.89 488.084 1142.22 487.748C1142.56 487.393 1142.89 487.067 1143.23 486.768C1143.58 486.451 1143.89 486.18 1144.15 485.956L1144.07 485.76C1143.71 485.723 1143.31 485.685 1142.87 485.648C1142.42 485.592 1141.96 485.517 1141.49 485.424C1141.05 485.312 1140.63 485.191 1140.23 485.06L1137.77 484.164L1138.61 481.84L1141.07 482.736C1141.47 482.867 1141.87 483.053 1142.28 483.296C1142.71 483.52 1143.12 483.763 1143.51 484.024C1143.9 484.267 1144.24 484.5 1144.52 484.724L1144.66 484.612C1144.56 484.257 1144.46 483.856 1144.35 483.408C1144.24 482.941 1144.14 482.465 1144.07 481.98C1143.99 481.476 1143.96 481.009 1143.96 480.58V477.92H1146.42V480.58C1146.42 481.009 1146.38 481.476 1146.31 481.98C1146.23 482.465 1146.14 482.941 1146.03 483.408C1145.92 483.856 1145.81 484.257 1145.69 484.612L1145.83 484.724C1146.13 484.5 1146.47 484.267 1146.84 484.024C1147.23 483.763 1147.63 483.52 1148.05 483.296C1148.47 483.053 1148.89 482.867 1149.28 482.736L1151.77 481.84L1152.61 484.164L1150.12 485.06C1149.74 485.191 1149.32 485.312 1148.86 485.424C1148.41 485.517 1147.96 485.592 1147.51 485.648C1147.07 485.685 1146.66 485.723 1146.31 485.76L1146.2 485.984C1146.48 486.208 1146.79 486.479 1147.12 486.796C1147.48 487.095 1147.81 487.421 1148.13 487.776C1148.47 488.112 1148.75 488.448 1148.97 488.784L1150.51 490.968L1148.49 492.368L1146.95 490.184C1146.73 489.848 1146.51 489.465 1146.28 489.036C1146.08 488.607 1145.88 488.177 1145.69 487.748C1145.53 487.319 1145.39 486.936 1145.27 486.6H1145.08C1144.97 486.936 1144.82 487.319 1144.63 487.748C1144.46 488.177 1144.27 488.607 1144.04 489.036C1143.84 489.465 1143.61 489.848 1143.37 490.184L1141.86 492.368Z" fill="#F3E223"/>
<path d="M399.4 45.28C398.691 45.28 398.121 45.0747 397.692 44.664C397.281 44.2533 397.076 43.7027 397.076 43.012C397.076 42.284 397.281 41.7053 397.692 41.276C398.121 40.8467 398.691 40.632 399.4 40.632C400.109 40.632 400.669 40.8467 401.08 41.276C401.509 41.7053 401.724 42.284 401.724 43.012C401.724 43.7027 401.509 44.2533 401.08 44.664C400.669 45.0747 400.109 45.28 399.4 45.28ZM412.857 42.368L410.841 40.968L412.353 38.784C412.596 38.4293 412.885 38.084 413.221 37.748C413.557 37.3933 413.893 37.0667 414.229 36.768C414.584 36.4507 414.892 36.18 415.153 35.956L415.069 35.76C414.714 35.7227 414.313 35.6853 413.865 35.648C413.417 35.592 412.96 35.5173 412.493 35.424C412.045 35.312 411.625 35.1907 411.233 35.06L408.769 34.164L409.609 31.84L412.073 32.736C412.465 32.8667 412.866 33.0533 413.277 33.296C413.706 33.52 414.117 33.7627 414.509 34.024C414.901 34.2667 415.237 34.5 415.517 34.724L415.657 34.612C415.564 34.2573 415.461 33.856 415.349 33.408C415.237 32.9413 415.144 32.4653 415.069 31.98C414.994 31.476 414.957 31.0093 414.957 30.58V27.92H417.421V30.58C417.421 31.0093 417.384 31.476 417.309 31.98C417.234 32.4653 417.141 32.9413 417.029 33.408C416.917 33.856 416.805 34.2573 416.693 34.612L416.833 34.724C417.132 34.5 417.468 34.2667 417.841 34.024C418.233 33.7627 418.634 33.52 419.045 33.296C419.474 33.0533 419.885 32.8667 420.277 32.736L422.769 31.84L423.609 34.164L421.117 35.06C420.744 35.1907 420.324 35.312 419.857 35.424C419.409 35.5173 418.961 35.592 418.513 35.648C418.065 35.6853 417.664 35.7227 417.309 35.76L417.197 35.984C417.477 36.208 417.785 36.4787 418.121 36.796C418.476 37.0947 418.812 37.4213 419.129 37.776C419.465 38.112 419.745 38.448 419.969 38.784L421.509 40.968L419.493 42.368L417.953 40.184C417.729 39.848 417.505 39.4653 417.281 39.036C417.076 38.6067 416.88 38.1773 416.693 37.748C416.525 37.3187 416.385 36.936 416.273 36.6H416.077C415.965 36.936 415.816 37.3187 415.629 37.748C415.461 38.1773 415.265 38.6067 415.041 39.036C414.836 39.4653 414.612 39.848 414.369 40.184L412.857 42.368Z" fill="#F3E223"/>
</g>
<g filter="url(#filter0_f_10265_19465)">
<path d="M717.521 124.395C717.94 124.395 718.354 124.416 718.762 124.457C724.067 124.994 728.364 128.934 729.416 134.061C729.578 134.849 729.663 135.666 729.663 136.503V282.057C729.721 282.222 729.754 282.4 729.754 282.585C729.754 282.77 729.721 282.947 729.663 283.112V343C729.663 349.692 724.222 355.108 717.521 355.108H673.336L671.097 359.368C670.421 360.653 668.946 361.299 667.544 360.923L652.724 356.95L635.598 386.63C634.403 388.701 631.414 388.701 630.219 386.63L620.52 369.821L596.077 363.269C595.202 363.034 594.473 362.429 594.081 361.612L590.962 355.108H516.235C509.535 355.108 504.093 349.692 504.093 343V264.113L501.183 264.136H501.17C499.896 264.135 498.813 263.196 498.617 261.945V261.944L497.862 257.09C495.45 256.439 493.159 255.508 491.028 254.306L487.049 257.257L487.039 257.263C486.042 257.991 484.625 257.936 483.701 257.021V257.021L476.795 250.22L476.786 250.211C475.893 249.317 475.765 247.883 476.521 246.849L476.523 246.846L479.539 242.741C478.382 240.673 477.48 238.458 476.845 236.133L471.672 235.362V235.36C470.395 235.182 469.476 234.081 469.471 232.834L469.47 232.835L469.396 223.146L469.395 223.133C469.395 221.859 470.336 220.776 471.586 220.58L471.591 220.579L477.025 219.746C477.67 217.573 478.554 215.514 479.648 213.579L476.274 209.025L476.268 209.017C475.54 208.02 475.594 206.602 476.51 205.679L483.312 198.772L483.32 198.764C484.158 197.926 485.47 197.762 486.483 198.367L486.683 198.499L486.684 198.5L491.52 202.043L497.282 199.603L498.169 193.649C498.347 192.373 499.449 191.454 500.696 191.448V191.447L504.093 191.421V136.503C504.093 135.039 504.353 133.636 504.83 132.337C506.465 127.885 510.645 124.661 515.61 124.41C515.817 124.4 516.026 124.395 516.235 124.395H717.521Z" fill="#FFFCC2"/>
<path d="M718.762 124.457L718.56 126.447L718.56 126.447L718.762 124.457ZM729.416 134.061L727.457 134.462L727.457 134.463L729.416 134.061ZM729.663 282.057H727.663V282.396L727.775 282.716L729.663 282.057ZM729.754 282.585H731.754V282.585L729.754 282.585ZM729.663 283.112L727.774 282.455L727.663 282.774V283.112H729.663ZM729.663 343L731.663 343V343H729.663ZM673.336 355.108V353.108H672.128L671.566 354.178L673.336 355.108ZM671.097 359.368L669.326 358.438L669.326 358.438L671.097 359.368ZM667.544 360.923L667.026 362.855L667.026 362.855L667.544 360.923ZM652.724 356.95L653.241 355.018L651.759 354.621L650.991 355.951L652.724 356.95ZM635.598 386.63L637.33 387.63L637.33 387.629L635.598 386.63ZM630.219 386.63L628.486 387.629L628.486 387.63L630.219 386.63ZM620.52 369.821L622.252 368.822L621.838 368.104L621.037 367.89L620.52 369.821ZM596.077 363.269L595.559 365.2L595.559 365.2L596.077 363.269ZM594.081 361.612L595.884 360.748L595.884 360.747L594.081 361.612ZM590.962 355.108L592.765 354.244L592.221 353.108H590.962V355.108ZM516.235 355.108L516.235 357.108H516.235V355.108ZM504.093 343H502.093V343L504.093 343ZM504.093 264.113H506.093V262.098L504.077 262.113L504.093 264.113ZM501.183 264.136V266.136H501.19L501.198 266.136L501.183 264.136ZM501.17 264.136L501.17 266.136H501.17V264.136ZM498.617 261.945H496.617V262.101L496.641 262.254L498.617 261.945ZM498.617 261.944H500.617V261.79L500.593 261.637L498.617 261.944ZM497.862 257.09L499.839 256.783L499.639 255.498L498.383 255.159L497.862 257.09ZM491.028 254.306L492.011 252.564L490.88 251.926L489.837 252.699L491.028 254.306ZM487.049 257.257L488.078 258.972L488.162 258.922L488.24 258.863L487.049 257.257ZM487.039 257.263L486.01 255.548L485.932 255.594L485.859 255.648L487.039 257.263ZM483.701 257.021L485.109 255.6L481.701 252.222V257.021H483.701ZM483.701 257.021L482.298 258.446L485.701 261.798V257.021H483.701ZM476.795 250.22L475.381 251.634L475.386 251.639L475.392 251.645L476.795 250.22ZM476.786 250.211L475.372 251.625L475.372 251.625L476.786 250.211ZM476.521 246.849L478.136 248.029L478.162 247.994L478.186 247.958L476.521 246.849ZM476.523 246.846L474.912 245.662L474.885 245.698L474.859 245.736L476.523 246.846ZM479.539 242.741L481.151 243.925L481.913 242.888L481.284 241.764L479.539 242.741ZM476.845 236.133L478.774 235.606L478.43 234.347L477.139 234.155L476.845 236.133ZM471.672 235.362H469.672V237.086L471.377 237.34L471.672 235.362ZM471.672 235.36H473.672V233.621L471.949 233.38L471.672 235.36ZM469.471 232.834L471.471 232.825L471.449 228.027L468.056 231.42L469.471 232.834ZM469.47 232.835L467.47 232.85L467.506 237.627L470.884 234.249L469.47 232.835ZM469.396 223.146L471.395 223.13L471.395 223.061L471.39 222.992L469.396 223.146ZM469.395 223.133L467.395 223.133L467.395 223.209L467.4 223.286L469.395 223.133ZM471.586 220.58L471.895 222.556L471.937 222.55L471.978 222.541L471.586 220.58ZM471.591 220.579L471.288 218.602L471.243 218.609L471.199 218.618L471.591 220.579ZM477.025 219.746L477.328 221.723L478.582 221.531L478.943 220.315L477.025 219.746ZM479.648 213.579L481.389 214.563L482.029 213.432L481.255 212.388L479.648 213.579ZM476.274 209.025L477.881 207.835L477.867 207.816L477.853 207.798L476.274 209.025ZM476.268 209.017L474.652 210.196L474.67 210.22L474.689 210.244L476.268 209.017ZM476.51 205.679L477.93 207.086L477.935 207.082L476.51 205.679ZM483.312 198.772L481.897 197.358L481.892 197.364L481.887 197.369L483.312 198.772ZM483.32 198.764L481.906 197.349L481.906 197.349L483.32 198.764ZM486.483 198.367L487.587 196.699L487.549 196.674L487.509 196.65L486.483 198.367ZM486.683 198.499L488.097 197.085L487.954 196.942L487.786 196.831L486.683 198.499ZM486.684 198.5L485.269 199.914L485.378 200.023L485.502 200.113L486.684 198.5ZM491.52 202.043L490.338 203.656L491.254 204.328L492.299 203.885L491.52 202.043ZM497.282 199.603L498.062 201.444L499.095 201.007L499.26 199.897L497.282 199.603ZM498.169 193.649L500.147 193.944L500.148 193.935L500.15 193.926L498.169 193.649ZM500.696 191.448L500.706 193.448L502.696 193.438V191.448H500.696ZM500.696 191.447L500.681 189.447L498.696 189.463V191.447H500.696ZM504.093 191.421L504.108 193.421L506.093 193.405V191.421H504.093ZM504.83 132.337L506.707 133.027L506.708 133.026L504.83 132.337ZM515.61 124.41L515.711 126.408L515.712 126.408L515.61 124.41ZM516.235 124.395V122.395H516.235L516.235 124.395ZM717.521 124.395V126.395C717.872 126.395 718.219 126.412 718.56 126.447L718.762 124.457L718.963 122.467C718.488 122.419 718.007 122.395 717.521 122.395V124.395ZM718.762 124.457L718.56 126.447C722.991 126.895 726.58 130.188 727.457 134.462L729.416 134.061L731.375 133.659C730.149 127.679 725.143 123.092 718.963 122.467L718.762 124.457ZM729.416 134.061L727.457 134.463C727.592 135.12 727.663 135.802 727.663 136.503H729.663H731.663C731.663 135.53 731.564 134.579 731.375 133.658L729.416 134.061ZM729.663 136.503H727.663V282.057H729.663H731.663V136.503H729.663ZM729.663 282.057L727.775 282.716C727.764 282.684 727.754 282.639 727.754 282.585L729.754 282.585L731.754 282.585C731.754 282.16 731.678 281.76 731.551 281.398L729.663 282.057ZM729.754 282.585H727.754C727.754 282.528 727.764 282.483 727.774 282.455L729.663 283.112L731.552 283.77C731.677 283.411 731.754 283.012 731.754 282.585H729.754ZM729.663 283.112H727.663V343H729.663H731.663V283.112H729.663ZM729.663 343L727.663 343C727.663 348.581 723.123 353.108 717.521 353.108V355.108V357.108C725.32 357.108 731.663 350.803 731.663 343L729.663 343ZM717.521 355.108V353.108H673.336V355.108V357.108H717.521V355.108ZM673.336 355.108L671.566 354.178L669.326 358.438L671.097 359.368L672.867 360.299L675.106 356.039L673.336 355.108ZM671.097 359.368L669.326 358.438C669.086 358.895 668.561 359.125 668.062 358.991L667.544 360.923L667.026 362.855C669.331 363.472 671.757 362.411 672.867 360.299L671.097 359.368ZM667.544 360.923L668.062 358.991L653.241 355.018L652.724 356.95L652.206 358.882L667.026 362.855L667.544 360.923ZM652.724 356.95L650.991 355.951L633.865 385.63L635.598 386.63L637.33 387.629L654.456 357.95L652.724 356.95ZM635.598 386.63L633.865 385.63C633.44 386.367 632.376 386.367 631.951 385.63L630.219 386.63L628.486 387.63C630.451 391.034 635.365 391.034 637.33 387.63L635.598 386.63ZM630.219 386.63L631.951 385.63L622.252 368.822L620.52 369.821L618.787 370.821L628.486 387.629L630.219 386.63ZM620.52 369.821L621.037 367.89L596.595 361.337L596.077 363.269L595.559 365.2L620.002 371.753L620.52 369.821ZM596.077 363.269L596.595 361.337C596.283 361.253 596.023 361.037 595.884 360.748L594.081 361.612L592.278 362.477C592.922 363.821 594.121 364.815 595.559 365.2L596.077 363.269ZM594.081 361.612L595.884 360.747L592.765 354.244L590.962 355.108L589.159 355.973L592.278 362.477L594.081 361.612ZM590.962 355.108V353.108H516.235V355.108V357.108H590.962V355.108ZM516.235 355.108L516.235 353.108C510.633 353.108 506.093 348.58 506.093 343L504.093 343L502.093 343C502.093 350.803 508.437 357.108 516.235 357.108L516.235 355.108ZM504.093 343H506.093V264.113H504.093H502.093V343H504.093ZM504.093 264.113L504.077 262.113L501.167 262.136L501.183 264.136L501.198 266.136L504.108 266.113L504.093 264.113ZM501.183 264.136V262.136H501.17V264.136V266.136H501.183V264.136ZM501.17 264.136L501.17 262.136C500.891 262.136 500.638 261.923 500.593 261.637L498.617 261.945L496.641 262.254C496.987 264.468 498.901 266.135 501.17 266.136L501.17 264.136ZM498.617 261.945H500.617V261.944H498.617H496.617V261.945H498.617ZM498.617 261.944L500.593 261.637L499.839 256.783L497.862 257.09L495.886 257.397L496.641 262.252L498.617 261.944ZM497.862 257.09L498.383 255.159C496.127 254.55 493.992 253.681 492.011 252.564L491.028 254.306L490.046 256.048C492.327 257.334 494.772 258.327 497.341 259.021L497.862 257.09ZM491.028 254.306L489.837 252.699L485.857 255.65L487.049 257.257L488.24 258.863L492.22 255.912L491.028 254.306ZM487.049 257.257L486.02 255.542L486.01 255.548L487.039 257.263L488.068 258.978L488.078 258.972L487.049 257.257ZM487.039 257.263L485.859 255.648C485.619 255.823 485.304 255.794 485.109 255.6L483.701 257.021L482.293 258.441C483.946 260.079 486.464 260.16 488.219 258.878L487.039 257.263ZM483.701 257.021H481.701V257.021H483.701H485.701V257.021H483.701ZM483.701 257.021L485.105 255.597L478.198 248.795L476.795 250.22L475.392 251.645L482.298 258.446L483.701 257.021ZM476.795 250.22L478.209 248.806L478.2 248.797L476.786 250.211L475.372 251.625L475.381 251.634L476.795 250.22ZM476.786 250.211L478.201 248.797C477.993 248.589 477.971 248.255 478.136 248.029L476.521 246.849L474.907 245.669C473.56 247.512 473.792 250.045 475.372 251.625L476.786 250.211ZM476.521 246.849L478.186 247.958L478.188 247.955L476.523 246.846L474.859 245.736L474.857 245.739L476.521 246.849ZM476.523 246.846L478.135 248.03L481.151 243.925L479.539 242.741L477.927 241.557L474.912 245.662L476.523 246.846ZM479.539 242.741L481.284 241.764C480.208 239.842 479.368 237.778 478.774 235.606L476.845 236.133L474.915 236.66C475.593 239.138 476.555 241.504 477.794 243.718L479.539 242.741ZM476.845 236.133L477.139 234.155L471.967 233.384L471.672 235.362L471.377 237.34L476.55 238.111L476.845 236.133ZM471.672 235.362H473.672V235.36H471.672H469.672V235.362H471.672ZM471.672 235.36L471.949 233.38C471.683 233.342 471.472 233.106 471.471 232.825L469.471 232.834L467.471 232.843C467.481 235.057 469.106 237.021 471.395 237.341L471.672 235.36ZM469.471 232.834L468.056 231.42L468.056 231.421L469.47 232.835L470.884 234.249L470.885 234.248L469.471 232.834ZM469.47 232.835L471.47 232.82L471.395 223.13L469.396 223.146L467.396 223.161L467.47 232.85L469.47 232.835ZM469.396 223.146L471.39 222.992L471.389 222.979L469.395 223.133L467.4 223.286L467.401 223.299L469.396 223.146ZM469.395 223.133L471.395 223.133C471.395 222.856 471.607 222.601 471.895 222.556L471.586 220.58L471.277 218.604C469.064 218.95 467.395 220.863 467.395 223.133L469.395 223.133ZM471.586 220.58L471.978 222.541L471.983 222.54L471.591 220.579L471.199 218.618L471.194 218.619L471.586 220.58ZM471.591 220.579L471.894 222.556L477.328 221.723L477.025 219.746L476.722 217.769L471.288 218.602L471.591 220.579ZM477.025 219.746L478.943 220.315C479.544 218.291 480.368 216.371 481.389 214.563L479.648 213.579L477.907 212.595C476.741 214.658 475.797 216.856 475.108 219.177L477.025 219.746ZM479.648 213.579L481.255 212.388L477.881 207.835L476.274 209.025L474.667 210.216L478.041 214.77L479.648 213.579ZM476.274 209.025L477.853 207.798L477.846 207.789L476.268 209.017L474.689 210.244L474.696 210.253L476.274 209.025ZM476.268 209.017L477.883 207.837C477.708 207.597 477.737 207.281 477.93 207.086L476.51 205.679L475.089 204.271C473.452 205.924 473.372 208.442 474.652 210.196L476.268 209.017ZM476.51 205.679L477.935 207.082L484.736 200.176L483.312 198.772L481.887 197.369L475.085 204.275L476.51 205.679ZM483.312 198.772L484.726 200.187L484.735 200.178L483.32 198.764L481.906 197.349L481.897 197.358L483.312 198.772ZM483.32 198.764L484.734 200.178C484.927 199.985 485.234 199.951 485.458 200.084L486.483 198.367L487.509 196.65C485.706 195.573 483.389 195.867 481.906 197.349L483.32 198.764ZM486.483 198.367L485.38 200.035L485.579 200.167L486.683 198.499L487.786 196.831L487.587 196.699L486.483 198.367ZM486.683 198.499L485.268 199.913L485.269 199.914L486.684 198.5L488.098 197.086L488.097 197.085L486.683 198.499ZM486.684 198.5L485.502 200.113L490.338 203.656L491.52 202.043L492.702 200.43L487.866 196.887L486.684 198.5ZM491.52 202.043L492.299 203.885L498.062 201.444L497.282 199.603L496.502 197.761L490.74 200.201L491.52 202.043ZM497.282 199.603L499.26 199.897L500.147 193.944L498.169 193.649L496.191 193.355L495.304 199.308L497.282 199.603ZM498.169 193.649L500.15 193.926C500.186 193.663 500.423 193.45 500.706 193.448L500.696 191.448L500.686 189.448C498.476 189.459 496.508 191.082 496.188 193.372L498.169 193.649ZM500.696 191.448H502.696V191.447H500.696H498.696V191.448H500.696ZM500.696 191.447L500.712 193.447L504.108 193.421L504.093 191.421L504.077 189.421L500.681 189.447L500.696 191.447ZM504.093 191.421H506.093V136.503H504.093H502.093V191.421H504.093ZM504.093 136.503H506.093C506.093 135.277 506.31 134.107 506.707 133.027L504.83 132.337L502.953 131.647C502.395 133.164 502.093 134.8 502.093 136.503H504.093ZM504.83 132.337L506.708 133.026C508.072 129.309 511.565 126.617 515.711 126.408L515.61 124.41L515.509 122.413C509.725 122.705 504.857 126.46 502.953 131.648L504.83 132.337ZM515.61 124.41L515.712 126.408C515.884 126.399 516.058 126.395 516.235 126.395L516.235 124.395L516.235 122.395C515.993 122.395 515.751 122.4 515.509 122.413L515.61 124.41ZM516.235 124.395V126.395H717.521V124.395V122.395H516.235V124.395Z" fill="#FFFCC2"/>
</g>
<path d="M717.522 126H516.237C510.417 126 505.699 130.702 505.699 136.503V343C505.699 348.801 510.417 353.503 516.237 353.503H717.522C723.341 353.503 728.059 348.801 728.059 343V136.503C728.059 130.702 723.341 126 717.522 126Z" fill="#FFF100" stroke="#978C00" stroke-width="3.21" stroke-miterlimit="10"/>
<path d="M516.237 126H717.522C723.345 126 728.059 130.699 728.059 136.503V180.517H505.699V136.503C505.699 130.699 510.414 126 516.237 126Z" fill="#FFFCC2" stroke="#978C00" stroke-width="3.21" stroke-miterlimit="10"/>
<path d="M524.331 162.413C528.813 162.413 532.446 158.792 532.446 154.325C532.446 149.859 528.813 146.238 524.331 146.238C519.85 146.238 516.217 149.859 516.217 154.325C516.217 158.792 519.85 162.413 524.331 162.413Z" fill="#FFFCC2" stroke="#978C00" stroke-width="3.21" stroke-miterlimit="10"/>
<path d="M548.751 162.413C553.233 162.413 556.866 158.792 556.866 154.325C556.866 149.859 553.233 146.238 548.751 146.238C544.27 146.238 540.637 149.859 540.637 154.325C540.637 158.792 544.27 162.413 548.751 162.413Z" fill="#FFFCC2" stroke="#978C00" stroke-width="3.21" stroke-miterlimit="10"/>
<path d="M573.132 162.413C577.614 162.413 581.247 158.792 581.247 154.325C581.247 149.859 577.614 146.238 573.132 146.238C568.651 146.238 565.018 149.859 565.018 154.325C565.018 158.792 568.651 162.413 573.132 162.413Z" fill="#FFFCC2" stroke="#978C00" stroke-width="3.21" stroke-miterlimit="10"/>
<path d="M708.918 147.042H612.126C608.018 147.042 604.688 150.362 604.688 154.456C604.688 158.551 608.018 161.87 612.126 161.87H708.918C713.026 161.87 716.356 158.551 716.356 154.456C716.356 150.362 713.026 147.042 708.918 147.042Z" fill="#FFF100" stroke="#978C00" stroke-width="3.21" stroke-miterlimit="10"/>
<path d="M666.025 350.566L674.23 334.156" stroke="#978C00" stroke-width="3.21" stroke-miterlimit="10" stroke-linecap="round"/>
<path d="M595.699 275.554L603.318 262.661" stroke="#978C00" stroke-width="3.21" stroke-miterlimit="10" stroke-linecap="round"/>
<path d="M669.541 307.2L676.574 294.307" stroke="#978C00" stroke-width="3.21" stroke-miterlimit="10" stroke-linecap="round"/>
<path d="M663.682 236.875L685.366 267.35" stroke="#978C00" stroke-width="3.21" stroke-miterlimit="10" stroke-linecap="round"/>
<path d="M579.289 303.685L598.043 342.365" stroke="#978C00" stroke-width="3.21" stroke-miterlimit="10" stroke-linecap="round"/>
<path d="M595.25 218.829L558.585 282.367C558.337 282.796 558.317 283.319 558.531 283.765L595.527 360.918C595.717 361.313 596.069 361.605 596.491 361.719L620.976 368.283C621.361 368.386 621.688 368.637 621.887 368.982L631.608 385.828C632.185 386.828 633.629 386.828 634.207 385.828L651.374 356.078C651.713 355.49 652.406 355.203 653.061 355.379L667.958 359.373C668.636 359.554 669.348 359.243 669.675 358.622L708.952 283.892C709.222 283.379 709.172 282.757 708.824 282.293L665.999 225.234C665.878 225.072 665.725 224.937 665.55 224.836L642.023 211.246C641.795 211.114 641.606 210.925 641.474 210.697L634.207 198.102C633.629 197.102 632.185 197.102 631.608 198.102L617.53 222.499C617.191 223.087 616.498 223.374 615.842 223.198L596.938 218.13C596.282 217.954 595.589 218.241 595.25 218.829Z" fill="#FFFCC2" stroke="#978C00" stroke-width="3.21" stroke-miterlimit="10" stroke-linecap="round"/>
<path d="M579.289 282.591L596.759 252.788C596.959 252.446 597.287 252.197 597.67 252.096L627.859 244.129C628.372 243.994 628.917 244.139 629.295 244.51L647.819 262.756C648.206 263.136 648.356 263.695 648.214 264.218L643.216 282.591" stroke="#978C00" stroke-width="3.21" stroke-miterlimit="10" stroke-linecap="round"/>
<path d="M641.411 211.083L620.898 245.661" stroke="#978C00" stroke-width="3.21" stroke-miterlimit="10" stroke-linecap="round"/>
<path d="M694.156 283.755L674.273 318.151C674.074 318.495 673.746 318.746 673.362 318.849L638.897 328.072C638.38 328.211 637.828 328.063 637.45 327.685L616.237 306.499C615.858 306.12 615.709 305.567 615.848 305.049L621.561 283.755" stroke="#978C00" stroke-width="3.21" stroke-miterlimit="10" stroke-linecap="round"/>
<path d="M622.071 368.739L646.1 326.543" stroke="#978C00" stroke-width="3.21" stroke-miterlimit="10" stroke-linecap="round"/>
<path d="M540.607 282.585H728.148" stroke="#978C00" stroke-width="3.21" stroke-miterlimit="10" stroke-linecap="round"/>
<path d="M540.583 232.376L540.509 222.687C540.509 222.21 540.152 221.794 539.675 221.734L533.603 220.826C533.231 220.767 532.933 220.499 532.814 220.142C532.144 217.894 531.206 215.766 530.031 213.801C529.837 213.459 529.837 213.042 530.075 212.729L533.752 207.713C534.034 207.326 533.99 206.776 533.647 206.433L526.741 199.631C526.399 199.289 525.863 199.259 525.476 199.542L520.356 203.337C520.088 203.546 519.731 203.59 519.403 203.456L512.929 200.837C512.616 200.703 512.378 200.42 512.333 200.078L511.366 193.812C511.291 193.335 510.875 192.978 510.398 192.978L500.709 193.052C500.232 193.052 499.816 193.41 499.756 193.886L498.818 200.182C498.774 200.524 498.551 200.807 498.238 200.941L491.808 203.665C491.495 203.799 491.123 203.754 490.855 203.546L485.735 199.795C485.348 199.512 484.798 199.557 484.455 199.899L477.653 206.805C477.311 207.148 477.281 207.684 477.564 208.071L481.181 212.953C481.419 213.265 481.434 213.682 481.24 214.024C480.05 216.063 479.112 218.251 478.457 220.573C478.353 220.945 478.055 221.213 477.668 221.273L471.834 222.166C471.357 222.24 471 222.657 471 223.133L471.074 232.823C471.074 233.299 471.432 233.716 471.908 233.775L477.504 234.609C477.891 234.669 478.204 234.951 478.293 235.338C478.933 237.809 479.886 240.146 481.136 242.304C481.33 242.632 481.315 243.048 481.077 243.361L477.817 247.796C477.534 248.183 477.579 248.734 477.921 249.076L484.827 255.878C485.17 256.221 485.706 256.251 486.093 255.968L490.409 252.768C490.721 252.53 491.138 252.515 491.466 252.708C493.683 254.003 496.095 254.985 498.655 255.64C499.027 255.73 499.325 256.042 499.384 256.429L500.203 261.698C500.277 262.174 500.694 262.532 501.17 262.532L510.86 262.457C511.336 262.457 511.753 262.1 511.812 261.624L512.616 256.28C512.676 255.908 512.944 255.596 513.316 255.491C515.816 254.792 518.198 253.765 520.371 252.44C520.713 252.232 521.13 252.247 521.442 252.485L525.848 255.715C526.235 255.998 526.786 255.953 527.128 255.611L533.93 248.704C534.273 248.362 534.302 247.826 534.019 247.439L530.611 242.84C530.388 242.542 530.358 242.125 530.551 241.798C531.712 239.67 532.62 237.377 533.201 234.951C533.29 234.564 533.603 234.282 533.99 234.222L539.75 233.329C540.226 233.255 540.583 232.838 540.583 232.361V232.376Z" fill="#FFFCC2" stroke="#978C00" stroke-width="3.21" stroke-miterlimit="10"/>
<path d="M505.71 239.263C511.793 239.263 516.724 234.332 516.724 228.249C516.724 222.166 511.793 217.234 505.71 217.234C499.627 217.234 494.695 222.166 494.695 228.249C494.695 234.332 499.627 239.263 505.71 239.263Z" fill="#FFFCC2" stroke="#978C00" stroke-width="3.21" stroke-miterlimit="10"/>
</g>
<defs>
<filter id="filter0_f_10265_19465" x="427.395" y="82.3945" width="344.359" height="347.789" filterUnits="userSpaceOnUse" color-interpolation-filters="sRGB">
<feFlood flood-opacity="0" result="BackgroundImageFix"/>
<feBlend mode="normal" in="SourceGraphic" in2="BackgroundImageFix" result="shape"/>
<feGaussianBlur stdDeviation="20" result="effect1_foregroundBlur_10265_19465"/>
</filter>
<linearGradient id="paint0_linear_10265_19465" x1="589" y1="-26.5" x2="587" y2="627" gradientUnits="userSpaceOnUse">
<stop stop-color="#FDEF00"/>
<stop offset="0.938633" stop-color="#FFFAA3"/>
</linearGradient>
<linearGradient id="paint1_linear_10265_19465" x1="587" y1="-85" x2="587" y2="627" gradientUnits="userSpaceOnUse">
<stop stop-color="#FDEF00"/>
<stop offset="0.938633" stop-color="#FFFAA3"/>
</linearGradient>
<clipPath id="clip0_10265_19465">
<rect width="1200" height="515" fill="white"/>
</clipPath>
<clipPath id="clip1_10265_19465">
<rect width="1200" height="515" fill="white"/>
</clipPath>
</defs>
</svg>
