<svg width="560" height="240" viewBox="0 0 560 240" fill="none" xmlns="http://www.w3.org/2000/svg">
<g clip-path="url(#clip0_4998_5613)">
<rect width="560" height="240" fill="#FFF100"/>
<g clip-path="url(#clip1_4998_5613)">
<rect width="560" height="240" fill="#FFF100"/>
<path d="M224 49.847L224 -0.999985C224 -12.0457 215.046 -21 204 -21L-26 -21C-37.0457 -21 -46 -12.0457 -46 -1.00001L-46 175C-46 186.046 -37.0457 195 -26 195L52.5714 195C63.6171 195 72.5714 186.046 72.5714 175L72.5714 89.8471C72.5714 78.8014 81.5257 69.8471 92.5714 69.8471L204 69.8471C215.046 69.8471 224 60.8927 224 49.847Z" fill="#EDDE00"/>
<path d="M501.983 104.352L501.983 -32.9999C501.983 -44.0456 510.937 -52.9999 521.983 -52.9999L546 -52.9999C557.046 -52.9999 566 -44.0456 566 -32.9999L566 257C566 268.046 557.046 277 546 277L366 277C354.954 277 346 268.046 346 257L346 207.5C346 196.454 354.954 187.5 366 187.5L395.584 187.5C406.629 187.5 415.584 178.546 415.584 167.5L415.584 144.352C415.584 133.306 424.538 124.352 435.584 124.352L481.983 124.352C493.029 124.352 501.983 115.398 501.983 104.352Z" fill="#EDDE00"/>
</g>
<path d="M202.551 119.848C202.551 131.886 211.896 135.571 212.09 135.643L212.098 135.645C212.089 135.649 212.081 135.652 212.072 135.656C222.701 139.268 233.359 130.286 233.359 114.065C233.359 105.138 229.384 94.5085 218.86 88.4717C233.737 91.7777 244.453 104.502 244.453 119.949C244.453 138.7 228.655 152.404 212.066 152.404C210.979 152.404 192.658 146.68 192.586 125.623C192.532 109.825 202.64 104.473 209.713 105.501C209.718 105.502 202.551 109.587 202.551 119.848Z" fill="black"/>
<path fill-rule="evenodd" clip-rule="evenodd" d="M221.449 120.152C221.449 108.114 212.104 104.429 211.91 104.357L211.902 104.355C211.91 104.351 211.919 104.348 211.928 104.344C201.299 100.733 190.64 109.715 190.64 125.936C190.64 134.863 194.616 145.492 205.139 151.529C190.263 148.222 179.547 135.498 179.547 120.051C179.547 101.3 195.345 87.5962 211.934 87.5962C213.021 87.5962 231.342 93.32 231.414 114.377C231.468 130.175 221.36 135.527 214.287 134.5C214.282 134.498 221.449 130.413 221.449 120.152Z" fill="black"/>
<path d="M280.988 131.03C279.623 131.03 278.542 130.685 277.745 129.995C276.963 129.32 276.626 128.37 276.733 127.143L277.078 123.44C277.155 122.673 277.04 122.121 276.733 121.784C276.442 121.431 275.836 121.255 274.916 121.255H272.202V119.208H274.916C275.836 119.208 276.442 119.032 276.733 118.679C277.04 118.326 277.155 117.767 277.078 117L276.733 113.274C276.626 112.063 276.963 111.12 277.745 110.445C278.542 109.755 279.623 109.41 280.988 109.41H282.161V111.457H281.08C280.39 111.457 279.861 111.618 279.493 111.94C279.125 112.262 278.964 112.73 279.01 113.343L279.355 117.069C279.447 117.943 279.24 118.648 278.734 119.185C278.228 119.722 277.431 120.044 276.342 120.151C277.431 120.274 278.228 120.626 278.734 121.209C279.24 121.792 279.447 122.512 279.355 123.371L279.01 127.097C278.964 127.71 279.125 128.178 279.493 128.5C279.861 128.822 280.39 128.983 281.08 128.983H282.161V131.03H280.988ZM300.106 132.64V130.57H303.073C303.978 130.57 304.675 130.317 305.166 129.811C305.672 129.32 305.925 128.63 305.925 127.741V117.92H299.991V115.85H308.202V127.764C308.202 129.251 307.742 130.432 306.822 131.306C305.902 132.195 304.668 132.64 303.119 132.64H300.106ZM306.868 113.619C306.347 113.619 305.933 113.489 305.626 113.228C305.319 112.952 305.166 112.584 305.166 112.124C305.166 111.649 305.319 111.273 305.626 110.997C305.933 110.721 306.347 110.583 306.868 110.583C307.389 110.583 307.803 110.721 308.11 110.997C308.417 111.273 308.57 111.649 308.57 112.124C308.57 112.584 308.417 112.952 308.11 113.228C307.803 113.489 307.389 113.619 306.868 113.619ZM318.267 128.684C316.826 128.684 315.706 128.362 314.909 127.718C314.112 127.074 313.713 126.169 313.713 125.004H315.967C315.967 125.556 316.166 125.993 316.565 126.315C316.979 126.622 317.546 126.775 318.267 126.775H319.279C320.03 126.775 320.605 126.614 321.004 126.292C321.418 125.97 321.625 125.518 321.625 124.935C321.625 123.908 321.119 123.333 320.107 123.21L316.703 122.727C315.798 122.589 315.101 122.221 314.61 121.623C314.119 121.01 313.874 120.22 313.874 119.254C313.874 118.119 314.257 117.238 315.024 116.609C315.791 115.98 316.864 115.666 318.244 115.666H319.256C320.544 115.666 321.587 115.973 322.384 116.586C323.181 117.199 323.603 118.012 323.649 119.024H321.349C321.318 118.595 321.119 118.242 320.751 117.966C320.383 117.675 319.885 117.529 319.256 117.529H318.244C317.554 117.529 317.017 117.682 316.634 117.989C316.266 118.296 316.082 118.71 316.082 119.231C316.082 120.074 316.504 120.55 317.347 120.657L320.544 121.117C322.737 121.408 323.833 122.681 323.833 124.935C323.833 126.131 323.434 127.059 322.637 127.718C321.855 128.362 320.736 128.684 319.279 128.684H318.267ZM332.564 128.684C331.015 128.684 329.781 128.239 328.861 127.35C327.956 126.461 327.504 125.219 327.504 123.624V120.726C327.504 119.131 327.956 117.889 328.861 117C329.781 116.111 331.015 115.666 332.564 115.666C334.113 115.666 335.339 116.111 336.244 117C337.164 117.889 337.624 119.131 337.624 120.726V123.624C337.624 125.219 337.164 126.461 336.244 127.35C335.339 128.239 334.113 128.684 332.564 128.684ZM332.564 126.683C333.423 126.683 334.097 126.445 334.588 125.97C335.094 125.479 335.347 124.766 335.347 123.831V120.519C335.347 119.584 335.094 118.878 334.588 118.403C334.097 117.912 333.423 117.667 332.564 117.667C331.705 117.667 331.023 117.912 330.517 118.403C330.026 118.878 329.781 119.584 329.781 120.519V123.831C329.781 124.766 330.026 125.479 330.517 125.97C331.023 126.445 331.705 126.683 332.564 126.683ZM341.479 128.5V115.85H343.733V118.265H343.756C343.863 117.437 344.208 116.793 344.791 116.333C345.389 115.858 346.171 115.62 347.137 115.62C348.394 115.62 349.399 116.019 350.15 116.816C350.901 117.613 351.277 118.687 351.277 120.036V128.5H349V120.404C349 119.484 348.77 118.779 348.31 118.288C347.85 117.797 347.221 117.552 346.424 117.552C345.596 117.552 344.944 117.813 344.469 118.334C343.994 118.84 343.756 119.553 343.756 120.473V128.5H341.479ZM369.199 131.03V128.983H370.257C370.947 128.983 371.484 128.822 371.867 128.5C372.266 128.178 372.419 127.71 372.327 127.097L371.775 123.371C371.652 122.528 371.813 121.815 372.258 121.232C372.718 120.634 373.339 120.266 374.121 120.128C373.324 119.99 372.703 119.66 372.258 119.139C371.813 118.618 371.652 117.928 371.775 117.069L372.327 113.343C372.419 112.73 372.266 112.262 371.867 111.94C371.484 111.618 370.947 111.457 370.257 111.457H369.199V109.41H370.372C371.261 109.41 372.043 109.563 372.718 109.87C373.408 110.177 373.922 110.621 374.259 111.204C374.596 111.771 374.711 112.461 374.604 113.274L374.052 117C373.945 117.767 374.044 118.326 374.351 118.679C374.673 119.032 375.294 119.208 376.214 119.208H379.158V121.255H376.214C375.309 121.255 374.696 121.431 374.374 121.784C374.052 122.121 373.945 122.673 374.052 123.44L374.604 127.143C374.711 127.956 374.596 128.653 374.259 129.236C373.922 129.819 373.416 130.263 372.741 130.57C372.066 130.877 371.277 131.03 370.372 131.03H369.199Z" fill="black"/>
</g>
<defs>
<clipPath id="clip0_4998_5613">
<rect width="560" height="240" fill="white"/>
</clipPath>
<clipPath id="clip1_4998_5613">
<rect width="560" height="240" fill="white"/>
</clipPath>
</defs>
</svg>
