<svg xmlns="http://www.w3.org/2000/svg" width="560" height="240" fill="none" viewBox="0 0 560 240"><g clip-path="url(#clip0_7776_36724)"><rect width="560" height="240" fill="#FFF100"/><g clip-path="url(#clip1_7776_36724)"><rect width="560" height="240" fill="#FFF100"/><path fill="#EDDD0C" d="M-186.2 305.695L-105.2 304.479C-94.2724 304.314 -85.5001 295.409 -85.5001 284.481L-85.5001 141C-85.5001 129.954 -76.5458 121 -65.5001 121L21 121C32.0457 121 41 112.046 41 101L41 63.9999C41 52.9542 49.9543 43.9999 61 43.9999L495.5 43.9999C506.546 43.9999 515.5 52.9542 515.5 63.9999L515.5 77.5C515.5 88.5457 524.454 97.5 535.5 97.5L597 97.5C608.046 97.5 617 88.5457 617 77.5L617 -1.00006C617 -12.0457 608.046 -21.0001 597 -21.0001L-186.5 -20.9998C-197.546 -20.9998 -206.5 -12.0455 -206.5 -0.999798L-206.5 285.697C-206.5 296.861 -197.362 305.863 -186.2 305.695Z"/><path fill="#EDDD0C" d="M461.5 179.5C461.5 168.454 470.454 159.5 481.5 159.5H565.5C576.546 159.5 585.5 168.454 585.5 179.5V268C585.5 279.046 576.546 288 565.5 288L314.5 288C303.454 288 294.5 279.046 294.5 268V232.5C294.5 221.454 303.454 212.5 314.5 212.5H441.5C452.546 212.5 461.5 203.546 461.5 192.5V179.5Z"/><rect width="265" height="145" x="740" y="350" fill="#FFF100" rx="20" transform="rotate(-180 740 350)"/><rect width="174" height="59" x="-37" y="212" fill="#EDDD0C" rx="20"/></g><rect width="67" height="67" x="200.5" y="86.5" fill="#0D0D0D" rx="20"/><path fill="#FFF100" d="M234 99C225 99 216 100.105 216 107.842V128.842C216 133.108 219.533 136.579 223.875 136.579L220.5 139.895V141H225L229.5 136.579H238.5L243 141H247.5V139.895L244.125 136.579C248.467 136.579 252 133.108 252 128.842V107.842C252 100.105 243 99 234 99ZM223.875 132.158C222.008 132.158 220.5 130.677 220.5 128.842C220.5 127.007 222.008 125.526 223.875 125.526C225.742 125.526 227.25 127.007 227.25 128.842C227.25 130.677 225.742 132.158 223.875 132.158ZM231.75 116.684H220.5V107.842H231.75V116.684ZM244.125 132.158C242.258 132.158 240.75 130.677 240.75 128.842C240.75 127.007 242.258 125.526 244.125 125.526C245.992 125.526 247.5 127.007 247.5 128.842C247.5 130.677 245.992 132.158 244.125 132.158ZM247.5 116.684H236.25V107.842H247.5V116.684Z"/><path fill="#0D0D0D" d="M326 153.5C307.553 153.5 292.5 138.595 292.5 120C292.5 101.405 307.405 86.5 326 86.5C344.595 86.5 359.5 101.405 359.5 120C359.5 138.595 344.595 153.5 326 153.5Z"/><path fill="#FFF100" d="M335.98 104.22C333.299 101.537 329.773 100.195 326.252 100.195C322.728 100.195 319.205 101.537 316.523 104.218C311.159 109.58 311.159 118.309 316.523 123.673L321.336 128.487C321.339 128.491 321.341 128.491 321.344 128.496L326.251 133.401L331.164 128.489V128.487L335.977 123.673C341.344 118.309 341.344 109.582 335.98 104.22ZM326.252 122.928C321.297 122.928 317.267 118.898 317.267 113.943C317.267 108.991 321.297 104.961 326.252 104.961C331.207 104.961 335.237 108.991 335.237 113.943C335.234 118.901 331.207 122.928 326.252 122.928Z"/><path fill="#FFF100" d="M338.826 135.077C338.826 133.349 336.199 131.565 332.361 130.637L327.084 135.914C326.852 136.146 326.549 136.26 326.246 136.26C325.944 136.26 325.641 136.144 325.409 135.914L320.132 130.637C316.296 131.565 313.667 133.349 313.667 135.077C313.667 137.5 318.83 140.202 326.242 140.202C333.663 140.202 338.826 137.5 338.826 135.077Z"/><path fill="#FFF100" d="M326.252 107.329C322.603 107.329 319.636 110.297 319.636 113.946C319.636 117.595 322.603 120.562 326.252 120.562C329.901 120.562 332.868 117.595 332.868 113.946C332.868 110.297 329.901 107.329 326.252 107.329Z"/></g><defs><clipPath id="clip0_7776_36724"><rect width="560" height="240" fill="#fff"/></clipPath><clipPath id="clip1_7776_36724"><rect width="560" height="240" fill="#fff"/></clipPath></defs></svg>