<svg xmlns="http://www.w3.org/2000/svg" width="560" height="240" fill="none" viewBox="0 0 560 240"><g clip-path="url(#clip0_6570_22168)"><rect width="560" height="240" fill="#FFF100"/><g clip-path="url(#clip1_6570_22168)"><rect width="560" height="240" fill="#FFF100"/><path fill="#EDDD0C" d="M224 49.847L224 -0.999985C224 -12.0457 215.046 -21 204 -21L-26 -21C-37.0457 -21 -46 -12.0457 -46 -1.00001L-46 175C-46 186.046 -37.0457 195 -26 195L52.5714 195C63.6171 195 72.5714 186.046 72.5714 175L72.5714 89.8471C72.5714 78.8014 81.5257 69.8471 92.5714 69.8471L204 69.8471C215.046 69.8471 224 60.8927 224 49.847Z"/><path fill="#EDDD0C" d="M472.584 123.352L505.5 123.352C516.546 123.352 525.5 114.397 525.5 103.352L525.5 66.9999C525.5 55.9542 516.546 46.9999 505.5 46.9999L454.5 46.9999C443.454 46.9999 434.5 38.0456 434.5 26.9999L434.5 -34.0001C434.5 -45.0458 443.454 -54.0001 454.5 -54.0001L583 -54.0001C594.046 -54.0001 603 -45.0457 603 -34.0001L603 241.5C603 252.546 594.046 261.5 583 261.5L335 261.5C323.954 261.5 315 252.546 315 241.5L315 206.5C315 195.454 323.954 186.5 335 186.5L432.584 186.5C443.629 186.5 452.584 177.546 452.584 166.5L452.584 143.352C452.584 132.306 461.538 123.352 472.584 123.352Z"/></g><path fill="#0D0D0D" d="M234 153.5C215.467 153.5 200.5 138.533 200.5 120C200.5 101.467 215.467 86.5 234 86.5C252.533 86.5 267.5 101.467 267.5 120C267.5 138.533 252.533 153.5 234 153.5Z"/><path fill="#FFF100" d="M251.912 115.03H245.34V124.948H251.912C254.637 124.948 256.901 122.684 256.901 119.959C256.901 117.214 254.637 115.03 251.912 115.03Z"/><path fill="#FFF100" d="M213.141 120C213.141 127.654 219.372 133.885 227.026 133.885C234.68 133.885 240.911 127.654 240.911 120C240.911 112.346 234.68 106.115 227.026 106.115C219.372 106.115 213.141 112.346 213.141 120Z"/><rect width="67" height="67" x="292.5" y="86.5" fill="#0D0D0D" rx="33.5"/><path fill="#FFF100" d="M313.229 106.459C313.229 105.907 313.677 105.459 314.229 105.459H337.77C338.322 105.459 338.77 105.907 338.77 106.459V121.459H313.229V106.459Z"/><path fill="#FFF100" d="M313.23 123.459H338.77L342.825 132.031C343.139 132.695 342.655 133.459 341.921 133.459H310.079C309.345 133.459 308.861 132.695 309.175 132.031L313.23 123.459Z"/><circle cx="326.5" cy="107.459" r="1" fill="#0D0D0D"/><path fill="#0D0D0D" d="M331 131.459H321.3L322.205 127.837C322.261 127.614 322.461 127.458 322.69 127.458H329.61C329.839 127.458 330.039 127.614 330.095 127.837L331 131.459Z"/></g><defs><clipPath id="clip0_6570_22168"><rect width="560" height="240" fill="#fff"/></clipPath><clipPath id="clip1_6570_22168"><rect width="560" height="240" fill="#fff"/></clipPath></defs></svg>