<svg xmlns="http://www.w3.org/2000/svg" width="1200" height="515" fill="none" viewBox="0 0 1200 515"><g clip-path="url(#clip0_12945_27083)"><rect width="1200" height="515" fill="url(#paint0_linear_12945_27083)"/><g clip-path="url(#clip1_12945_27083)"><rect width="1200" height="515" fill="url(#paint1_linear_12945_27083)"/><path stroke="#F0DF09" stroke-width="2.993" d="M-200.003 -476.575L505.555 -476.574C535.931 -476.574 560.555 -451.95 560.555 -421.574L560.555 -329.749C560.555 -299.373 535.93 -274.749 505.555 -274.749L194.061 -274.749C163.686 -274.749 139.061 -250.125 139.061 -219.749L139.061 220.999C139.061 251.375 114.437 275.999 84.0613 275.999L-127.502 275.999"/><path stroke="#F0DF09" stroke-linejoin="round" stroke-width="2.993" d="M1315 217.5L908.5 217.5C878.124 217.5 853.5 192.876 853.5 162.5L853.5 -145.829C853.5 -176.205 878.124 -200.829 908.5 -200.829L1047.93 -200.829C1078.31 -200.829 1102.93 -225.453 1102.93 -255.829L1102.93 -388"/><path stroke="#F0DF09" stroke-linejoin="round" stroke-width="2.993" d="M636 556.5L636 471.07C636 440.694 611.375 416.07 581 416.07L297.5 416.071C267.124 416.071 242.5 391.447 242.5 361.071L242.5 218.309C242.5 187.934 267.124 163.309 297.5 163.309L518.576 163.309C548.951 163.309 573.576 138.685 573.576 108.309L573.576 -471.437C573.576 -501.813 598.2 -526.437 628.576 -526.437L777.936 -526.437"/><rect width="19.751" height="41.425" x="251.712" y="318.387" fill="#D4C50B" stroke="#F0DF09" stroke-width="1.924" rx="9.875" transform="rotate(-180 251.712 318.387)"/><path fill="#F0DF09" d="M-220 453.505C-220.826 453.505 -221.496 454.175 -221.496 455.002C-221.496 455.828 -220.826 456.498 -220 456.498L-220 455.002L-220 453.505ZM166.933 456.058C167.517 455.474 167.517 454.526 166.933 453.942L157.411 444.42C156.826 443.835 155.879 443.835 155.294 444.42C154.71 445.004 154.71 445.951 155.295 446.536L163.759 455L155.295 463.464C154.71 464.049 154.71 464.996 155.295 465.58C155.879 466.165 156.826 466.165 157.411 465.58L166.933 456.058ZM-220 455.002L-220 456.498L165.875 456.496L165.875 455L165.875 453.504L-220 453.505L-220 455.002Z"/><path fill="#F0DF09" d="M1005.5 614.375C1005.5 615.201 1006.17 615.871 1007 615.871C1007.83 615.871 1008.5 615.201 1008.5 614.375L1007 614.375L1005.5 614.375ZM1008.06 326.442C1007.47 325.858 1006.53 325.858 1005.94 326.442L996.42 335.964C995.835 336.549 995.835 337.496 996.42 338.08C997.004 338.665 997.951 338.665 998.536 338.08L1007 329.616L1015.46 338.08C1016.05 338.665 1017 338.665 1017.58 338.08C1018.16 337.496 1018.16 336.549 1017.58 335.964L1008.06 326.442ZM1007 614.375L1008.5 614.375L1008.5 327.5L1007 327.5L1005.5 327.5L1005.5 614.375L1007 614.375Z"/><rect width="25.076" height="51.076" x="1081.96" y="230.038" fill="#D4C50B" stroke="#F0DF09" stroke-width="1.924" rx="12.538" transform="rotate(-90 1081.96 230.038)"/><path fill="#F3E223" d="M235.016 95V74.56H238.74L241.344 83.408L244.06 74.56H247.784V95H245.348V85.34C245.348 84.4253 245.357 83.38 245.376 82.204C245.413 81.0093 245.46 79.8053 245.516 78.592C245.572 77.3787 245.637 76.2867 245.712 75.316L242.408 85.872H240.224L237.06 75.568C237.209 76.9493 237.312 78.4613 237.368 80.104C237.424 81.7467 237.452 83.492 237.452 85.34V95H235.016ZM256.845 95.28C255.258 95.28 253.998 94.8413 253.065 93.964C252.132 93.068 251.665 91.9013 251.665 90.464C251.665 89.512 251.88 88.6813 252.309 87.972C252.738 87.2627 253.336 86.712 254.101 86.32C254.866 85.9093 255.744 85.704 256.733 85.704H261.493V84.5C261.493 82.5027 260.401 81.504 258.217 81.504C257.246 81.504 256.462 81.6813 255.865 82.036C255.268 82.3907 254.95 82.8853 254.913 83.52H252.393C252.486 82.3067 253.046 81.308 254.073 80.524C255.118 79.7213 256.5 79.32 258.217 79.32C260.084 79.32 261.512 79.768 262.501 80.664C263.509 81.56 264.013 82.8107 264.013 84.416V95H261.521V92.2H261.465C261.316 93.152 260.84 93.908 260.037 94.468C259.234 95.0093 258.17 95.28 256.845 95.28ZM257.461 93.152C258.693 93.152 259.673 92.8533 260.401 92.256C261.129 91.6587 261.493 90.8467 261.493 89.82V87.664H257.013C256.192 87.664 255.52 87.916 254.997 88.42C254.493 88.9053 254.241 89.5587 254.241 90.38C254.241 91.2387 254.521 91.92 255.081 92.424C255.66 92.9093 256.453 93.152 257.461 93.152ZM275.202 95.28C273.335 95.28 271.842 94.7573 270.722 93.712C269.602 92.6667 269.042 91.2293 269.042 89.4V85.2C269.042 83.3707 269.602 81.9333 270.722 80.888C271.842 79.8427 273.335 79.32 275.202 79.32C276.975 79.32 278.403 79.796 279.486 80.748C280.587 81.7 281.166 82.9973 281.222 84.64H278.702C278.646 83.6507 278.31 82.8947 277.694 82.372C277.078 81.8307 276.247 81.56 275.202 81.56C274.101 81.56 273.214 81.8773 272.542 82.512C271.889 83.128 271.562 84.0147 271.562 85.172V89.4C271.562 90.5573 271.889 91.4533 272.542 92.088C273.214 92.7227 274.101 93.04 275.202 93.04C276.247 93.04 277.078 92.7693 277.694 92.228C278.31 91.6867 278.646 90.9307 278.702 89.96H281.222C281.166 91.6027 280.587 92.9 279.486 93.852C278.403 94.804 276.975 95.28 275.202 95.28ZM285.971 95V74.56H291.767C293.634 74.56 295.09 75.0267 296.135 75.96C297.199 76.8933 297.731 78.1907 297.731 79.852C297.731 80.8973 297.395 81.84 296.723 82.68C296.07 83.52 295.211 84.0427 294.147 84.248V84.332C294.95 84.4253 295.65 84.7053 296.247 85.172C296.863 85.6387 297.339 86.236 297.675 86.964C298.03 87.6733 298.207 88.4573 298.207 89.316C298.207 91.0707 297.666 92.4613 296.583 93.488C295.519 94.496 294.054 95 292.187 95H285.971ZM288.435 83.268H291.739C292.822 83.268 293.671 82.9787 294.287 82.4C294.922 81.8213 295.239 81.0373 295.239 80.048C295.239 79.0587 294.931 78.2747 294.315 77.696C293.699 77.1173 292.85 76.828 291.767 76.828H288.435V83.268ZM288.435 92.732H291.907C293.083 92.732 294.007 92.424 294.679 91.808C295.37 91.1733 295.715 90.3147 295.715 89.232C295.715 88.112 295.37 87.2067 294.679 86.516C294.007 85.8067 293.083 85.452 291.907 85.452H288.435V92.732ZM308.556 95.224C306.708 95.224 305.234 94.6827 304.132 93.6C303.05 92.5173 302.508 91.0053 302.508 89.064V85.536C302.508 83.576 303.05 82.064 304.132 81C305.215 79.9173 306.69 79.376 308.556 79.376C310.423 79.376 311.898 79.9173 312.98 81C314.063 82.064 314.604 83.576 314.604 85.536V89.064C314.604 91.0053 314.054 92.5173 312.952 93.6C311.87 94.6827 310.404 95.224 308.556 95.224ZM308.556 92.984C309.658 92.984 310.516 92.676 311.132 92.06C311.767 91.444 312.084 90.5387 312.084 89.344V85.256C312.084 84.0613 311.767 83.156 311.132 82.54C310.516 81.924 309.658 81.616 308.556 81.616C307.474 81.616 306.615 81.924 305.98 82.54C305.346 83.156 305.028 84.0613 305.028 85.256V89.344C305.028 90.5387 305.346 91.444 305.98 92.06C306.615 92.676 307.474 92.984 308.556 92.984ZM325.345 95.224C323.497 95.224 322.023 94.6827 320.921 93.6C319.839 92.5173 319.297 91.0053 319.297 89.064V85.536C319.297 83.576 319.839 82.064 320.921 81C322.004 79.9173 323.479 79.376 325.345 79.376C327.212 79.376 328.687 79.9173 329.769 81C330.852 82.064 331.393 83.576 331.393 85.536V89.064C331.393 91.0053 330.843 92.5173 329.741 93.6C328.659 94.6827 327.193 95.224 325.345 95.224ZM325.345 92.984C326.447 92.984 327.305 92.676 327.921 92.06C328.556 91.444 328.873 90.5387 328.873 89.344V85.256C328.873 84.0613 328.556 83.156 327.921 82.54C327.305 81.924 326.447 81.616 325.345 81.616C324.263 81.616 323.404 81.924 322.769 82.54C322.135 83.156 321.817 84.0613 321.817 85.256V89.344C321.817 90.5387 322.135 91.444 322.769 92.06C323.404 92.676 324.263 92.984 325.345 92.984ZM336.45 95V74.56H338.97V85.956H341.91L346.222 79.6H349.106L344.15 86.936L349.386 95H346.446L341.966 88.14H338.97V95H336.45ZM369.833 95V74.56H373.193L379.437 92.06C379.399 91.5933 379.353 91.024 379.297 90.352C379.259 89.6613 379.222 88.9427 379.185 88.196C379.166 87.4307 379.157 86.712 379.157 86.04V74.56H381.593V95H378.233L372.017 77.5C372.054 77.948 372.091 78.5173 372.129 79.208C372.166 79.88 372.194 80.5987 372.213 81.364C372.25 82.1107 372.269 82.8293 372.269 83.52V95H369.833ZM392.502 95.28C390.691 95.28 389.226 94.7387 388.106 93.656C387.004 92.5547 386.454 91.0427 386.454 89.12V85.48C386.454 83.5573 387.004 82.0547 388.106 80.972C389.226 79.8707 390.691 79.32 392.502 79.32C393.715 79.32 394.77 79.5627 395.666 80.048C396.58 80.5333 397.29 81.2147 397.794 82.092C398.298 82.9693 398.55 84.0053 398.55 85.2V87.944H388.918V89.4C388.918 90.5387 389.244 91.444 389.898 92.116C390.551 92.7693 391.419 93.096 392.502 93.096C393.435 93.096 394.2 92.9187 394.798 92.564C395.414 92.1907 395.787 91.696 395.918 91.08H398.438C398.27 92.368 397.644 93.3947 396.562 94.16C395.479 94.9067 394.126 95.28 392.502 95.28ZM388.918 85.984H396.086V85.2C396.086 83.9867 395.768 83.0533 395.134 82.4C394.518 81.728 393.64 81.392 392.502 81.392C391.363 81.392 390.476 81.728 389.842 82.4C389.226 83.0533 388.918 83.9867 388.918 85.2V85.984ZM409.291 95.224C407.443 95.224 405.968 94.6827 404.867 93.6C403.784 92.5173 403.243 91.0053 403.243 89.064V85.536C403.243 83.576 403.784 82.064 404.867 81C405.949 79.9173 407.424 79.376 409.291 79.376C411.157 79.376 412.632 79.9173 413.715 81C414.797 82.064 415.339 83.576 415.339 85.536V89.064C415.339 91.0053 414.788 92.5173 413.687 93.6C412.604 94.6827 411.139 95.224 409.291 95.224ZM409.291 92.984C410.392 92.984 411.251 92.676 411.867 92.06C412.501 91.444 412.819 90.5387 412.819 89.344V85.256C412.819 84.0613 412.501 83.156 411.867 82.54C411.251 81.924 410.392 81.616 409.291 81.616C408.208 81.616 407.349 81.924 406.715 82.54C406.08 83.156 405.763 84.0613 405.763 85.256V89.344C405.763 90.5387 406.08 91.444 406.715 92.06C407.349 92.676 408.208 92.984 409.291 92.984Z"/><path fill="#F3E223" d="M45.14 357V338.856H39.54V336.56H53.26V338.856H47.66V357H45.14ZM57.3651 357V336.56H63.9451C65.8491 336.56 67.3611 337.111 68.4811 338.212C69.6197 339.295 70.1891 340.751 70.1891 342.58C70.1891 344.409 69.6197 345.875 68.4811 346.976C67.3611 348.059 65.8491 348.6 63.9451 348.6H59.8851V357H57.3651ZM59.8851 346.332H63.9451C65.0464 346.332 65.9237 345.996 66.5771 345.324C67.2491 344.633 67.5851 343.719 67.5851 342.58C67.5851 341.423 67.2491 340.508 66.5771 339.836C65.9237 339.164 65.0464 338.828 63.9451 338.828H59.8851V346.332ZM80.2021 357.28C78.3355 357.28 76.8608 356.757 75.7781 355.712C74.6955 354.667 74.1541 353.229 74.1541 351.4V342.16C74.1541 340.331 74.6955 338.893 75.7781 337.848C76.8608 336.803 78.3355 336.28 80.2021 336.28C82.0315 336.28 83.4875 336.812 84.5701 337.876C85.6528 338.921 86.1941 340.349 86.1941 342.16H83.6741C83.6741 341.003 83.3661 340.116 82.7501 339.5C82.1528 338.865 81.3035 338.548 80.2021 338.548C79.1008 338.548 78.2328 338.865 77.5981 339.5C76.9821 340.116 76.6741 341.003 76.6741 342.16V351.4C76.6741 352.557 76.9821 353.453 77.5981 354.088C78.2328 354.704 79.1008 355.012 80.2021 355.012C81.3035 355.012 82.1528 354.704 82.7501 354.088C83.3661 353.453 83.6741 352.557 83.6741 351.4H86.1941C86.1941 353.211 85.6528 354.648 84.5701 355.712C83.4875 356.757 82.0315 357.28 80.2021 357.28ZM92.2872 348.88V346.64H101.247V348.88H92.2872ZM107.732 357V336.56H113.024C114.35 336.56 115.488 336.812 116.44 337.316C117.411 337.82 118.158 338.529 118.68 339.444C119.222 340.359 119.492 341.441 119.492 342.692V350.84C119.492 352.091 119.222 353.183 118.68 354.116C118.158 355.031 117.411 355.74 116.44 356.244C115.488 356.748 114.35 357 113.024 357H107.732ZM110.252 354.76H113.024C114.256 354.76 115.218 354.415 115.908 353.724C116.618 353.033 116.972 352.072 116.972 350.84V342.692C116.972 341.479 116.618 340.527 115.908 339.836C115.218 339.145 114.256 338.8 113.024 338.8H110.252V354.76ZM130.457 357.28C128.479 357.28 126.901 356.757 125.725 355.712C124.549 354.667 123.961 353.229 123.961 351.4H126.481C126.481 352.539 126.845 353.435 127.573 354.088C128.301 354.723 129.263 355.04 130.457 355.04C131.615 355.04 132.539 354.704 133.229 354.032C133.92 353.36 134.265 352.483 134.265 351.4C134.265 350.579 134.041 349.869 133.593 349.272C133.164 348.656 132.539 348.236 131.717 348.012L128.609 347.144C127.321 346.771 126.304 346.108 125.557 345.156C124.829 344.185 124.465 343.047 124.465 341.74C124.465 340.657 124.708 339.705 125.193 338.884C125.679 338.063 126.36 337.428 127.237 336.98C128.115 336.513 129.123 336.28 130.261 336.28C131.419 336.28 132.436 336.513 133.313 336.98C134.209 337.428 134.909 338.063 135.413 338.884C135.917 339.687 136.169 340.62 136.169 341.684H133.649C133.649 340.751 133.332 339.995 132.697 339.416C132.063 338.819 131.251 338.52 130.261 338.52C129.272 338.52 128.469 338.819 127.853 339.416C127.237 339.995 126.929 340.751 126.929 341.684C126.929 342.431 127.125 343.075 127.517 343.616C127.928 344.139 128.497 344.503 129.225 344.708L132.417 345.604C133.78 345.977 134.835 346.687 135.581 347.732C136.347 348.759 136.729 349.981 136.729 351.4C136.729 353.192 136.16 354.62 135.021 355.684C133.883 356.748 132.361 357.28 130.457 357.28Z"/><path fill="#F3E223" d="M924.733 115.28C922.867 115.28 921.392 114.757 920.309 113.712C919.227 112.667 918.685 111.229 918.685 109.4V100.16C918.685 98.3307 919.227 96.8933 920.309 95.848C921.392 94.8027 922.867 94.28 924.733 94.28C926.563 94.28 928.019 94.812 929.101 95.876C930.184 96.9213 930.725 98.3493 930.725 100.16H928.205C928.205 99.0027 927.897 98.116 927.281 97.5C926.684 96.8653 925.835 96.548 924.733 96.548C923.632 96.548 922.764 96.8653 922.129 97.5C921.513 98.116 921.205 99.0027 921.205 100.16V109.4C921.205 110.557 921.513 111.453 922.129 112.088C922.764 112.704 923.632 113.012 924.733 113.012C925.835 113.012 926.684 112.704 927.281 112.088C927.897 111.453 928.205 110.557 928.205 109.4H930.725C930.725 111.211 930.184 112.648 929.101 113.712C928.019 114.757 926.563 115.28 924.733 115.28ZM943.538 115C942.176 115 941.084 114.608 940.262 113.824C939.46 113.021 939.058 111.967 939.058 110.66V96.856H933.738V94.56H941.578V110.66C941.578 111.295 941.756 111.799 942.11 112.172C942.465 112.527 942.941 112.704 943.538 112.704H948.298V115H943.538ZM952.068 115V112.704H957.528V101.896H952.628V99.6H960.048V112.704H965.228V115H952.068ZM958.508 96.828C957.892 96.828 957.406 96.6693 957.052 96.352C956.697 96.0347 956.52 95.6053 956.52 95.064C956.52 94.504 956.697 94.0653 957.052 93.748C957.406 93.412 957.892 93.244 958.508 93.244C959.124 93.244 959.609 93.412 959.964 93.748C960.318 94.0653 960.496 94.504 960.496 95.064C960.496 95.6053 960.318 96.0347 959.964 96.352C959.609 96.6693 959.124 96.828 958.508 96.828ZM975.101 115.28C973.234 115.28 971.741 114.757 970.621 113.712C969.501 112.667 968.941 111.229 968.941 109.4V105.2C968.941 103.371 969.501 101.933 970.621 100.888C971.741 99.8427 973.234 99.32 975.101 99.32C976.874 99.32 978.302 99.796 979.385 100.748C980.486 101.7 981.065 102.997 981.121 104.64H978.601C978.545 103.651 978.209 102.895 977.593 102.372C976.977 101.831 976.146 101.56 975.101 101.56C973.999 101.56 973.113 101.877 972.441 102.512C971.787 103.128 971.461 104.015 971.461 105.172V109.4C971.461 110.557 971.787 111.453 972.441 112.088C973.113 112.723 973.999 113.04 975.101 113.04C976.146 113.04 976.977 112.769 977.593 112.228C978.209 111.687 978.545 110.931 978.601 109.96H981.121C981.065 111.603 980.486 112.9 979.385 113.852C978.302 114.804 976.874 115.28 975.101 115.28ZM985.982 115V94.56H988.502V105.956H991.442L995.754 99.6H998.638L993.682 106.936L998.918 115H995.978L991.498 108.14H988.502V115H985.982ZM1002.66 115V94.56H1008.45C1010.32 94.56 1011.78 95.0267 1012.82 95.96C1013.89 96.8933 1014.42 98.1907 1014.42 99.852C1014.42 100.897 1014.08 101.84 1013.41 102.68C1012.76 103.52 1011.9 104.043 1010.83 104.248V104.332C1011.64 104.425 1012.34 104.705 1012.93 105.172C1013.55 105.639 1014.03 106.236 1014.36 106.964C1014.72 107.673 1014.89 108.457 1014.89 109.316C1014.89 111.071 1014.35 112.461 1013.27 113.488C1012.21 114.496 1010.74 115 1008.87 115H1002.66ZM1005.12 103.268H1008.43C1009.51 103.268 1010.36 102.979 1010.97 102.4C1011.61 101.821 1011.93 101.037 1011.93 100.048C1011.93 99.0587 1011.62 98.2747 1011 97.696C1010.39 97.1173 1009.54 96.828 1008.45 96.828H1005.12V103.268ZM1005.12 112.732H1008.59C1009.77 112.732 1010.69 112.424 1011.37 111.808C1012.06 111.173 1012.4 110.315 1012.4 109.232C1012.4 108.112 1012.06 107.207 1011.37 106.516C1010.69 105.807 1009.77 105.452 1008.59 105.452H1005.12V112.732ZM1025.24 115.28C1023.43 115.28 1021.97 114.739 1020.85 113.656C1019.75 112.555 1019.2 111.043 1019.2 109.12V105.48C1019.2 103.557 1019.75 102.055 1020.85 100.972C1021.97 99.8707 1023.43 99.32 1025.24 99.32C1026.46 99.32 1027.51 99.5627 1028.41 100.048C1029.32 100.533 1030.03 101.215 1030.54 102.092C1031.04 102.969 1031.29 104.005 1031.29 105.2V107.944H1021.66V109.4C1021.66 110.539 1021.99 111.444 1022.64 112.116C1023.29 112.769 1024.16 113.096 1025.24 113.096C1026.18 113.096 1026.94 112.919 1027.54 112.564C1028.16 112.191 1028.53 111.696 1028.66 111.08H1031.18C1031.01 112.368 1030.39 113.395 1029.3 114.16C1028.22 114.907 1026.87 115.28 1025.24 115.28ZM1021.66 105.984H1028.83V105.2C1028.83 103.987 1028.51 103.053 1027.88 102.4C1027.26 101.728 1026.38 101.392 1025.24 101.392C1024.11 101.392 1023.22 101.728 1022.58 102.4C1021.97 103.053 1021.66 103.987 1021.66 105.2V105.984ZM1036.21 115V99.6H1038.73V102.54H1038.76C1038.89 101.513 1039.31 100.72 1040.02 100.16C1040.73 99.6 1041.67 99.32 1042.84 99.32C1044.39 99.32 1045.63 99.796 1046.54 100.748C1047.46 101.7 1047.91 102.997 1047.91 104.64V115H1045.39V105.088C1045.39 103.912 1045.09 103.016 1044.5 102.4C1043.92 101.765 1043.12 101.448 1042.12 101.448C1041.07 101.448 1040.24 101.775 1039.62 102.428C1039.03 103.081 1038.73 104.005 1038.73 105.2V115H1036.21ZM1059.05 115.28C1057.18 115.28 1055.69 114.757 1054.57 113.712C1053.45 112.667 1052.89 111.229 1052.89 109.4V105.2C1052.89 103.371 1053.45 101.933 1054.57 100.888C1055.69 99.8427 1057.18 99.32 1059.05 99.32C1060.82 99.32 1062.25 99.796 1063.33 100.748C1064.43 101.7 1065.01 102.997 1065.07 104.64H1062.55C1062.49 103.651 1062.15 102.895 1061.54 102.372C1060.92 101.831 1060.09 101.56 1059.05 101.56C1057.94 101.56 1057.06 101.877 1056.39 102.512C1055.73 103.128 1055.41 104.015 1055.41 105.172V109.4C1055.41 110.557 1055.73 111.453 1056.39 112.088C1057.06 112.723 1057.94 113.04 1059.05 113.04C1060.09 113.04 1060.92 112.769 1061.54 112.228C1062.15 111.687 1062.49 110.931 1062.55 109.96H1065.07C1065.01 111.603 1064.43 112.9 1063.33 113.852C1062.25 114.804 1060.82 115.28 1059.05 115.28ZM1069.79 115V94.56H1072.31V102.54H1072.33C1072.47 101.513 1072.89 100.72 1073.59 100.16C1074.3 99.6 1075.25 99.32 1076.42 99.32C1077.97 99.32 1079.2 99.796 1080.12 100.748C1081.03 101.7 1081.49 102.997 1081.49 104.64V115H1078.97V105.06C1078.97 103.903 1078.67 103.016 1078.07 102.4C1077.5 101.765 1076.7 101.448 1075.69 101.448C1074.65 101.448 1073.82 101.775 1073.2 102.428C1072.61 103.081 1072.31 104.005 1072.31 105.2V115H1069.79Z"/></g><path fill="#FFFCC2" stroke="#978C00" stroke-miterlimit="10" stroke-width="3.06" d="M426 352.597H809.706V363.379C809.706 369.679 804.594 374.809 798.276 374.809H437.43C431.13 374.809 426 369.697 426 363.379V352.597Z"/><path fill="#FFFCC2" stroke="#978C00" stroke-miterlimit="10" stroke-width="3.06" d="M472.727 140H764.075C770.375 140 775.505 145.112 775.505 151.43V352.598H461.297V151.43C461.297 145.13 466.409 140 472.727 140Z"/><path fill="#FFF100" stroke="#978C00" stroke-miterlimit="10" stroke-width="3.06" d="M670.107 216.517H655.34C654.035 216.517 652.977 217.567 652.977 218.863V305.202C652.977 306.498 654.035 307.549 655.34 307.549H670.107C671.412 307.549 672.47 306.498 672.47 305.202V218.863C672.47 217.567 671.412 216.517 670.107 216.517Z"/><path fill="#FFFCC2" stroke="#978C00" stroke-miterlimit="10" stroke-width="3.06" d="M639.521 247.552H624.754C623.449 247.552 622.391 248.603 622.391 249.899V305.318C622.391 306.615 623.449 307.665 624.754 307.665H639.521C640.826 307.665 641.884 306.615 641.884 305.318V249.899C641.884 248.603 640.826 247.552 639.521 247.552Z"/><path fill="#FFFCC2" stroke="#978C00" stroke-miterlimit="10" stroke-width="3.06" d="M578.064 256.503H563.364C562.065 256.503 561.012 257.397 561.012 258.5V305.663C561.012 306.767 562.065 307.661 563.364 307.661H578.064C579.363 307.661 580.416 306.767 580.416 305.663V258.5C580.416 257.397 579.363 256.503 578.064 256.503Z"/><path fill="#FFFCC2" stroke="#978C00" stroke-miterlimit="10" stroke-width="3.06" d="M609.023 237.642H594.256C592.951 237.642 591.893 238.693 591.893 239.989V305.318C591.893 306.614 592.951 307.665 594.256 307.665H609.023C610.328 307.665 611.386 306.614 611.386 305.318V239.989C611.386 238.693 610.328 237.642 609.023 237.642Z"/><path stroke="#978C00" stroke-linecap="round" stroke-miterlimit="10" stroke-width="3.06" d="M570.881 239.998L601.273 218.909L631.931 228.832L662.456 197.146"/><path fill="#FFFCC2" stroke="#978C00" stroke-miterlimit="10" stroke-width="3.06" d="M600.871 223.067C602.86 223.067 604.471 221.455 604.471 219.467C604.471 217.479 602.86 215.867 600.871 215.867C598.883 215.867 597.271 217.479 597.271 219.467C597.271 221.455 598.883 223.067 600.871 223.067Z"/><path fill="#FFFCC2" stroke="#978C00" stroke-miterlimit="10" stroke-width="3.06" d="M570.272 244.667C572.26 244.667 573.872 243.056 573.872 241.067C573.872 239.079 572.26 237.467 570.272 237.467C568.284 237.467 566.672 239.079 566.672 241.067C566.672 243.056 568.284 244.667 570.272 244.667Z"/><path fill="#FFFCC2" stroke="#978C00" stroke-miterlimit="10" stroke-width="3.06" d="M631.471 232.067C633.459 232.067 635.071 230.455 635.071 228.467C635.071 226.479 633.459 224.867 631.471 224.867C629.483 224.867 627.871 226.479 627.871 228.467C627.871 230.455 629.483 232.067 631.471 232.067Z"/><path fill="#FFF100" stroke="#978C00" stroke-miterlimit="10" stroke-width="3.06" d="M662.073 199.667C664.061 199.667 665.673 198.056 665.673 196.067C665.673 194.079 664.061 192.467 662.073 192.467C660.084 192.467 658.473 194.079 658.473 196.067C658.473 198.056 660.084 199.667 662.073 199.667Z"/><path stroke="#978C00" stroke-miterlimit="10" stroke-width="3.06" d="M656.147 352.597H578.711V374.791H656.147V352.597Z"/><path fill="#FFFCC2" stroke="#978C00" stroke-linecap="round" stroke-miterlimit="10" stroke-width="3.06" d="M505.472 212.267C489.539 212.267 476.672 199.4 476.672 183.467C476.672 167.534 489.539 154.667 505.472 154.667C521.405 154.667 534.272 167.534 534.272 183.467C534.272 199.4 521.405 212.267 505.472 212.267Z"/><path fill="#FFF100" stroke="#978C00" stroke-linecap="round" stroke-miterlimit="10" stroke-width="3.06" d="M520.87 179.201H515.221V187.727H520.87C523.213 187.727 525.159 185.781 525.159 183.438C525.159 181.078 523.213 179.201 520.87 179.201Z"/><path fill="#FFF100" stroke="#978C00" stroke-linecap="round" stroke-miterlimit="10" stroke-width="3.06" d="M487.543 183.548C487.543 190.169 492.9 195.56 499.48 195.56C506.06 195.56 511.417 190.169 511.417 183.548C511.417 176.927 506.06 171.536 499.48 171.536C492.9 171.536 487.543 176.927 487.543 183.548Z"/></g><defs><linearGradient id="paint0_linear_12945_27083" x1="589" x2="587" y1="-26.5" y2="627" gradientUnits="userSpaceOnUse"><stop stop-color="#FDEF00"/><stop offset=".939" stop-color="#FFFAA3"/></linearGradient><linearGradient id="paint1_linear_12945_27083" x1="587" x2="587" y1="-85" y2="627" gradientUnits="userSpaceOnUse"><stop stop-color="#FDEF00"/><stop offset=".939" stop-color="#FFFAA3"/></linearGradient><clipPath id="clip0_12945_27083"><rect width="1200" height="515" fill="#fff"/></clipPath><clipPath id="clip1_12945_27083"><rect width="1200" height="515" fill="#fff"/></clipPath></defs></svg>