<svg width="560" height="240" viewBox="0 0 560 240" fill="none" xmlns="http://www.w3.org/2000/svg">
<g clip-path="url(#clip0_6230_8975)">
<rect width="560" height="240" fill="#FFF100"/>
<g clip-path="url(#clip1_6230_8975)">
<rect width="560" height="240" fill="#FFF100"/>
<path d="M224 49.847L224 -0.999985C224 -12.0457 215.046 -21 204 -21L-26 -21C-37.0457 -21 -46 -12.0457 -46 -1.00001L-46 175C-46 186.046 -37.0457 195 -26 195L52.5714 195C63.6171 195 72.5714 186.046 72.5714 175L72.5714 89.8471C72.5714 78.8014 81.5257 69.8471 92.5714 69.8471L204 69.8471C215.046 69.8471 224 60.8927 224 49.847Z" fill="#EDDD0C"/>
<path d="M472.584 123.352L505.5 123.352C516.546 123.352 525.5 114.397 525.5 103.352L525.5 66.9999C525.5 55.9542 516.546 46.9999 505.5 46.9999L454.5 46.9999C443.454 46.9999 434.5 38.0456 434.5 26.9999L434.5 -34.0001C434.5 -45.0458 443.454 -54.0001 454.5 -54.0001L583 -54.0001C594.046 -54.0001 603 -45.0457 603 -34.0001L603 241.5C603 252.546 594.046 261.5 583 261.5L335 261.5C323.954 261.5 315 252.546 315 241.5L315 206.5C315 195.454 323.954 186.5 335 186.5L432.584 186.5C443.629 186.5 452.584 177.546 452.584 166.5L452.584 143.352C452.584 132.306 461.538 123.352 472.584 123.352Z" fill="#EDDD0C"/>
</g>
<g filter="url(#filter0_d_6230_8975)">
<path d="M234 153.5C215.467 153.5 200.5 138.533 200.5 120C200.5 101.467 215.467 86.5 234 86.5C252.533 86.5 267.5 101.467 267.5 120C267.5 138.533 252.533 153.5 234 153.5Z" fill="#0D0D0D"/>
<path d="M251.913 115.03H245.341V124.948H251.913C254.637 124.948 256.902 122.684 256.902 119.959C256.902 117.214 254.637 115.03 251.913 115.03Z" fill="#FFF100"/>
<path d="M213.141 120C213.141 127.654 219.372 133.885 227.026 133.885C234.68 133.885 240.911 127.654 240.911 120C240.911 112.346 234.68 106.115 227.026 106.115C219.372 106.115 213.141 112.346 213.141 120Z" fill="#FFF100"/>
</g>
<rect x="292.5" y="86.5" width="67" height="67" rx="33.5" fill="#0D0D0D"/>
<path d="M313.229 106.458C313.229 105.906 313.677 105.458 314.229 105.458H337.77C338.322 105.458 338.77 105.906 338.77 106.458V121.458H313.229V106.458Z" fill="#FFF100"/>
<path d="M313.23 123.458H338.77L342.825 132.031C343.139 132.694 342.655 133.458 341.921 133.458H310.079C309.345 133.458 308.861 132.694 309.175 132.031L313.23 123.458Z" fill="#FFF100"/>
<circle cx="326.5" cy="107.458" r="1" fill="#0D0D0D"/>
<path d="M331 131.459H321.3L322.205 127.837C322.261 127.614 322.461 127.458 322.69 127.458H329.61C329.839 127.458 330.039 127.614 330.095 127.837L331 131.459Z" fill="black"/>
</g>
<defs>
<filter id="filter0_d_6230_8975" x="199.5" y="85.5" width="69" height="69" filterUnits="userSpaceOnUse" color-interpolation-filters="sRGB">
<feFlood flood-opacity="0" result="BackgroundImageFix"/>
<feColorMatrix in="SourceAlpha" type="matrix" values="0 0 0 0 0 0 0 0 0 0 0 0 0 0 0 0 0 0 127 0" result="hardAlpha"/>
<feOffset/>
<feGaussianBlur stdDeviation="0.5"/>
<feComposite in2="hardAlpha" operator="out"/>
<feColorMatrix type="matrix" values="0 0 0 0 0 0 0 0 0 0 0 0 0 0 0 0 0 0 0.17 0"/>
<feBlend mode="normal" in2="BackgroundImageFix" result="effect1_dropShadow_6230_8975"/>
<feBlend mode="normal" in="SourceGraphic" in2="effect1_dropShadow_6230_8975" result="shape"/>
</filter>
<clipPath id="clip0_6230_8975">
<rect width="560" height="240" fill="white"/>
</clipPath>
<clipPath id="clip1_6230_8975">
<rect width="560" height="240" fill="white"/>
</clipPath>
</defs>
</svg>
