<svg xmlns="http://www.w3.org/2000/svg" width="560" height="240" fill="none" viewBox="0 0 560 240"><g clip-path="url(#clip0_6570_22264)"><rect width="560" height="240" fill="#FFF100"/><g clip-path="url(#clip1_6570_22264)"><rect width="560" height="240" fill="#FFF100"/><path fill="#EDDD0C" d="M387 170.499L451.783 170.499C462.828 170.499 471.782 161.545 471.782 150.499L471.782 67.4996C471.782 56.4539 480.737 47.4996 491.782 47.4996L692.082 47.4996C703.128 47.4996 712.082 56.4539 712.082 67.4996L712.082 241.912C712.082 252.958 703.128 261.912 692.082 261.912L387 261.912C375.954 261.912 367 252.958 367 241.912L367 190.5C367 179.454 375.954 170.5 387 170.499Z"/><path fill="#EDDD0C" d="M141.127 314L141.127 77.9839C141.127 66.9382 150.081 57.9839 161.127 57.9839L199.812 57.9839C210.857 57.9839 219.812 49.0296 219.812 37.9839L219.812 -86.9999C219.812 -98.0456 210.857 -107 199.812 -107L-54.0001 -107C-65.0458 -107 -74.0001 -98.0457 -74.0001 -87L-74.0002 314C-74.0002 325.046 -65.0458 334 -54.0002 334L121.127 334C132.173 334 141.127 325.046 141.127 314Z"/><rect width="546" height="169" x="417" y="194" fill="#FFF100" rx="20"/><rect width="598" height="204" x="-513" y="-43" fill="#FFF100" rx="20"/></g><rect width="65" height="65" x="247.5" y="87.5" fill="#0D0D0D" rx="10"/><path fill="#FFF100" fill-rule="evenodd" d="M269.93 100V107.308H264.175L264.175 100L269.93 100Z" clip-rule="evenodd"/><path fill="#FFF100" fill-rule="evenodd" d="M278.561 100V107.308H272.807V100L278.561 100Z" clip-rule="evenodd"/><path fill="#FFF100" fill-rule="evenodd" d="M287.193 100V107.308H281.439V100L287.193 100Z" clip-rule="evenodd"/><path fill="#FFF100" fill-rule="evenodd" d="M295.825 100V107.308H290.07V100L295.825 100Z" clip-rule="evenodd"/><path fill="#FFF100" d="M259.5 113.423C259.5 111.405 261.11 109.769 263.096 109.769H296.904C298.89 109.769 300.5 111.405 300.5 113.423V126.577C300.5 128.595 298.89 130.231 296.904 130.231H263.096C261.11 130.231 259.5 128.595 259.5 126.577V113.423Z"/><path fill="#FFF100" fill-rule="evenodd" d="M269.93 132.692V140H264.175L264.175 132.692H269.93Z" clip-rule="evenodd"/><path fill="#FFF100" fill-rule="evenodd" d="M278.561 132.692V140H272.807V132.692H278.561Z" clip-rule="evenodd"/><path fill="#FFF100" fill-rule="evenodd" d="M287.193 132.692V140H281.439V132.692H287.193Z" clip-rule="evenodd"/><path fill="#FFF100" fill-rule="evenodd" d="M295.825 132.692V140H290.07V132.692H295.825Z" clip-rule="evenodd"/></g><defs><clipPath id="clip0_6570_22264"><rect width="560" height="240" fill="#fff"/></clipPath><clipPath id="clip1_6570_22264"><rect width="560" height="240" fill="#fff"/></clipPath></defs></svg>