<svg xmlns="http://www.w3.org/2000/svg" width="367" height="206" fill="none" viewBox="0 0 367 206"><g clip-path="url(#clip0_3696_2400)"><rect width="367" height="206" fill="#2EAFFF"/><path fill="#1095E7" d="M160 191.621L160 219L367 219L367 38L319 38C307.954 38 299 46.9543 299 58L299 151.621C299 162.666 290.046 171.621 279 171.621L180 171.621C168.954 171.621 160 180.575 160 191.621Z"/><path fill="#1095E7" d="M88.5 42L201 42C212.046 42 221 33.0457 221 22L221 -6.49997C221 -17.5457 212.046 -26.5 201 -26.5L15.5 -26.5C4.45435 -26.5 -4.49996 -17.5457 -4.49996 -6.5L-4.50003 237.894C-4.50004 248.17 3.83035 256.5 14.1064 256.5C24.3824 256.5 32.7128 248.17 32.7128 237.894L32.7129 163.894C32.7129 154.011 40.7241 146 50.6064 146C60.4888 146 68.5 137.989 68.5 128.106L68.5 62C68.5 50.9543 77.4543 42 88.5 42Z"/><path fill="#2EAFFF" fill-rule="evenodd" d="M39 83C39 94.0457 30.0457 103 19 103L-14 103C-25.0457 103 -34 94.0457 -34 83L-34 -115.406C-34 -115.41 -34 -115.415 -34 -115.419L-34 -163.893L-34 -221.111C-34 -221.115 -34 -221.12 -34 -221.124L-34 -278C-34 -289.046 -25.0456 -298 -14 -298L70 -298C81.0457 -298 90 -289.046 90 -278L90 -115.419C90 -104.373 81.0457 -95.4187 70 -95.4187L59 -95.4187C47.9543 -95.4187 39 -86.4644 39 -75.4187L39 83Z" clip-rule="evenodd"/><path stroke="#000" stroke-linecap="square" stroke-width="8" d="M165.5 83L165.5 81"/><path stroke="#000" stroke-linecap="square" stroke-width="8" d="M177.5 83L177.5 81"/><path stroke="#000" stroke-linecap="square" stroke-width="8" d="M189.5 83L189.5 81"/><path stroke="#000" stroke-linecap="square" stroke-width="8" d="M201.5 83L201.5 81"/><rect width="57" height="28" x="155" y="89" fill="#000" rx="5"/><path stroke="#000" stroke-linecap="square" stroke-width="8" d="M165.5 125L165.5 123"/><path stroke="#000" stroke-linecap="square" stroke-width="8" d="M177.5 125L177.5 123"/><path stroke="#000" stroke-linecap="square" stroke-width="8" d="M189.5 125L189.5 123"/><path stroke="#000" stroke-linecap="square" stroke-width="8" d="M201.5 125L201.5 123"/></g><defs><clipPath id="clip0_3696_2400"><rect width="367" height="206" fill="#fff"/></clipPath></defs></svg>