<svg width="560" height="240" viewBox="0 0 560 240" fill="none" xmlns="http://www.w3.org/2000/svg">
<g clip-path="url(#clip0_4723_13283)">
<rect width="560" height="240" fill="#FFF100"/>
<g clip-path="url(#clip1_4723_13283)">
<rect width="560" height="240" fill="#FFF100"/>
<path d="M387 170.5L451.783 170.5C462.828 170.5 471.782 161.546 471.782 150.5L471.782 67.5001C471.782 56.4544 480.737 47.5001 491.782 47.5001L692.082 47.5001C703.128 47.5001 712.082 56.4544 712.082 67.5001L712.082 241.913C712.082 252.958 703.128 261.913 692.082 261.913L387 261.913C375.954 261.913 367 252.958 367 241.913L367 190.5C367 179.454 375.954 170.5 387 170.5Z" fill="url(#paint0_linear_4723_13283)"/>
<path d="M141.127 314L141.127 77.9839C141.127 66.9382 150.081 57.9839 161.127 57.9839L199.812 57.9839C210.857 57.9839 219.812 49.0296 219.812 37.9839L219.812 -86.9999C219.812 -98.0456 210.857 -107 199.812 -107L-54.0001 -107C-65.0458 -107 -74.0001 -98.0457 -74.0001 -87L-74.0002 314C-74.0002 325.046 -65.0458 334 -54.0002 334L121.127 334C132.173 334 141.127 325.046 141.127 314Z" fill="url(#paint1_linear_4723_13283)"/>
<rect x="417" y="194" width="546" height="169" rx="20" fill="#FFF100"/>
<rect x="-513" y="-43" width="598" height="204" rx="20" fill="#FFF100"/>
</g>
<rect x="247.5" y="87.5" width="65" height="65" rx="10" fill="black"/>
<path fill-rule="evenodd" clip-rule="evenodd" d="M269.93 100V107.308H264.175L264.175 100L269.93 100Z" fill="#FFF100"/>
<path fill-rule="evenodd" clip-rule="evenodd" d="M278.561 100V107.308H272.807V100L278.561 100Z" fill="#FFF100"/>
<path fill-rule="evenodd" clip-rule="evenodd" d="M287.193 100V107.308H281.439V100L287.193 100Z" fill="#FFF100"/>
<path fill-rule="evenodd" clip-rule="evenodd" d="M295.825 100V107.308H290.07V100L295.825 100Z" fill="#FFF100"/>
<path d="M259.5 113.423C259.5 111.405 261.11 109.769 263.096 109.769H296.904C298.89 109.769 300.5 111.405 300.5 113.423V126.577C300.5 128.595 298.89 130.231 296.904 130.231H263.096C261.11 130.231 259.5 128.595 259.5 126.577V113.423Z" fill="#FFF100"/>
<path fill-rule="evenodd" clip-rule="evenodd" d="M269.93 132.692V140H264.175L264.175 132.692H269.93Z" fill="#FFF100"/>
<path fill-rule="evenodd" clip-rule="evenodd" d="M278.561 132.692V140H272.807V132.692H278.561Z" fill="#FFF100"/>
<path fill-rule="evenodd" clip-rule="evenodd" d="M287.193 132.692V140H281.439V132.692H287.193Z" fill="#FFF100"/>
<path fill-rule="evenodd" clip-rule="evenodd" d="M295.825 132.692V140H290.07V132.692H295.825Z" fill="#FFF100"/>
</g>
<defs>
<linearGradient id="paint0_linear_4723_13283" x1="400.322" y1="65.9995" x2="400.322" y2="234.499" gradientUnits="userSpaceOnUse">
<stop stop-color="#EDDD0C"/>
<stop offset="1" stop-color="#F3E71B"/>
</linearGradient>
<linearGradient id="paint1_linear_4723_13283" x1="72.9057" y1="349.513" x2="72.9058" y2="-53.8141" gradientUnits="userSpaceOnUse">
<stop stop-color="#EDDD0C"/>
<stop offset="1" stop-color="#F3E71B"/>
</linearGradient>
<clipPath id="clip0_4723_13283">
<rect width="560" height="240" fill="white"/>
</clipPath>
<clipPath id="clip1_4723_13283">
<rect width="560" height="240" fill="white"/>
</clipPath>
</defs>
</svg>
