<svg xmlns="http://www.w3.org/2000/svg" width="560" height="240" fill="none" viewBox="0 0 560 240"><g clip-path="url(#clip0_5063_727)"><rect width="560" height="240" fill="#FFF100"/><g clip-path="url(#clip1_5063_727)"><rect width="560" height="240" fill="#FFF100"/><path fill="#FFF100" d="M-137 100L9.61491 100L67 100C78.0457 100 87 108.954 87 120L87 340C87 351.046 78.0457 360 67 360L-137 360C-148.046 360 -157 351.046 -157 340L-157 120C-157 108.954 -148.046 100 -137 100Z"/><path fill="#EDDE00" d="M231 21.9441L231 -24C231 -35.0457 222.046 -44 211 -44L-11 -44C-22.0457 -44 -31 -35.0457 -31 -24L-31 191C-31 202.046 -22.0457 211 -11 211L76.5 211C87.5457 211 96.5 202.046 96.5 191L96.5 61.9441C96.5 50.8984 105.454 41.9441 116.5 41.9441L211 41.9441C222.046 41.9441 231 32.9898 231 21.9441Z"/><path fill="#EDDE00" d="M423.479 197.576L289 197.576C277.954 197.576 269 206.53 269 217.576L269 256C269 267.046 277.954 276 289 276L611.5 276C622.546 276 631.5 267.046 631.5 256L631.5 -28C631.5 -39.0457 622.546 -48 611.5 -48L504.424 -48C493.378 -48 484.424 -39.0457 484.424 -28L484.424 58.5088C484.424 69.5545 475.47 78.5088 464.424 78.5088L463.479 78.5088C452.433 78.5088 443.479 87.4631 443.479 98.5088L443.479 177.576C443.479 188.622 434.525 197.576 423.479 197.576Z"/><path fill="#FFF100" d="M514 114C502.954 114 494 122.954 494 134V294C494 305.046 502.954 314 514 314H612C623.046 314 632 305.046 632 294L632 134C632 122.954 623.046 114 612 114L514 114Z"/></g><rect width="65" height="65" x="156.5" y="87.5" fill="#000" rx="10"/><path fill="#FFF100" d="M174.979 112.828C173.61 112.827 172.5 113.934 172.5 115.297L172.502 125.634C172.501 125.959 172.565 126.28 172.69 126.579C172.815 126.879 172.997 127.152 173.227 127.381C173.458 127.61 173.731 127.792 174.032 127.916C174.333 128.04 174.656 128.104 174.981 128.104C175.307 128.104 175.63 128.041 175.931 127.917C176.232 127.793 176.505 127.611 176.735 127.381C176.965 127.152 177.148 126.88 177.272 126.58C177.397 126.28 177.46 125.959 177.46 125.635V115.295C177.459 114.64 177.197 114.013 176.732 113.55C176.267 113.087 175.636 112.827 174.979 112.828ZM194.971 103.544L196.701 100.398C196.745 100.318 196.756 100.224 196.73 100.136C196.705 100.049 196.646 99.9749 196.566 99.9308C196.485 99.8876 196.391 99.8778 196.304 99.9034C196.216 99.9291 196.143 99.9881 196.099 100.068L194.351 103.247C192.88 102.595 191.235 102.23 189.493 102.232C187.756 102.23 186.111 102.594 184.647 103.242L182.897 100.071C182.876 100.031 182.846 99.9965 182.811 99.9682C182.776 99.9398 182.736 99.9187 182.693 99.906C182.65 99.8933 182.604 99.8893 182.559 99.8942C182.514 99.8991 182.471 99.9128 182.431 99.9345C182.392 99.9557 182.356 99.9847 182.328 100.02C182.299 100.055 182.278 100.095 182.265 100.138C182.253 100.181 182.249 100.227 182.254 100.271C182.259 100.316 182.273 100.359 182.295 100.399L184.026 103.543C180.625 105.29 178.327 108.616 178.329 112.435L200.66 112.432C200.661 108.615 198.367 105.295 194.971 103.544ZM184.414 108.406C184.166 108.406 183.928 108.308 183.752 108.133C183.577 107.958 183.478 107.721 183.478 107.473C183.478 107.226 183.577 106.989 183.753 106.814C183.928 106.639 184.167 106.541 184.415 106.541C184.663 106.542 184.902 106.64 185.077 106.815C185.253 106.99 185.352 107.227 185.352 107.474C185.352 107.722 185.253 107.959 185.077 108.134C184.901 108.309 184.663 108.407 184.414 108.406ZM194.583 108.404C194.46 108.405 194.338 108.38 194.224 108.334C194.111 108.287 194.007 108.218 193.92 108.132C193.834 108.045 193.765 107.942 193.718 107.829C193.67 107.716 193.646 107.595 193.646 107.472C193.648 107.225 193.747 106.989 193.922 106.814C194.097 106.639 194.335 106.54 194.583 106.538C194.831 106.54 195.068 106.639 195.243 106.814C195.418 106.989 195.517 107.226 195.517 107.473C195.518 107.595 195.494 107.716 195.447 107.829C195.4 107.942 195.331 108.045 195.244 108.132C195.157 108.218 195.054 108.287 194.941 108.334C194.827 108.38 194.705 108.404 194.583 108.404ZM178.42 113.294L178.424 129.315C178.423 129.661 178.491 130.004 178.624 130.324C178.757 130.644 178.952 130.934 179.198 131.179C179.443 131.423 179.735 131.617 180.056 131.75C180.377 131.882 180.722 131.95 181.069 131.949L182.87 131.95L182.872 137.42C182.872 138.782 183.984 139.889 185.35 139.889C186.719 139.889 187.829 138.781 187.83 137.418L187.828 131.95L191.175 131.949L191.176 137.418C191.176 138.779 192.289 139.889 193.655 139.886C195.025 139.887 196.135 138.779 196.135 137.416L196.133 131.948L197.941 131.947C198.288 131.947 198.632 131.878 198.954 131.746C199.275 131.614 199.566 131.42 199.812 131.175C200.058 130.93 200.253 130.64 200.386 130.32C200.519 130 200.587 129.658 200.587 129.312L200.584 113.29L178.42 113.294ZM206.498 115.293C206.498 114.969 206.434 114.648 206.31 114.348C206.185 114.049 206.002 113.776 205.772 113.547C205.542 113.318 205.269 113.136 204.968 113.012C204.667 112.888 204.344 112.824 204.019 112.825C202.65 112.823 201.541 113.93 201.541 115.294L201.543 125.632C201.543 125.956 201.607 126.277 201.731 126.577C201.856 126.877 202.038 127.149 202.268 127.378C202.499 127.607 202.772 127.789 203.073 127.913C203.374 128.037 203.696 128.101 204.022 128.101C204.347 128.101 204.67 128.037 204.97 127.913C205.271 127.788 205.545 127.607 205.775 127.377C206.005 127.148 206.187 126.876 206.312 126.576C206.436 126.276 206.5 125.955 206.5 125.631L206.498 115.293Z"/><circle cx="280" cy="120" r="33.5" fill="#000"/><path fill="#FFF100" d="M280 142.75C292.426 142.75 302.5 132.676 302.5 120.25C302.5 107.824 292.426 97.75 280 97.75C267.574 97.75 257.5 107.824 257.5 120.25C257.5 132.676 267.574 142.75 280 142.75Z"/><path fill="#000" d="M280 100.375C282.61 100.375 285.195 100.889 287.606 101.888C290.017 102.887 292.208 104.351 294.054 106.196C295.899 108.042 297.363 110.233 298.362 112.644C299.361 115.056 299.875 117.64 299.875 120.25L280 120.25V100.375Z"/><mask id="path-10-outside-1_5063_727" width="29" height="13" x="273.625" y="113.875" fill="#000" maskUnits="userSpaceOnUse"><rect width="29" height="13" x="273.625" y="113.875" fill="#fff"/><path fill-rule="evenodd" d="M283.321 120.25C283.321 122.114 281.822 123.625 279.973 123.625C278.124 123.625 276.625 122.114 276.625 120.25C276.625 118.386 278.124 116.875 279.973 116.875C281.822 116.875 283.321 118.386 283.321 120.25ZM284.722 119.082V121.582L299.722 121.582L299.722 119.082L284.722 119.082Z" clip-rule="evenodd"/></mask><path fill="#000" fill-rule="evenodd" d="M283.321 120.25C283.321 122.114 281.822 123.625 279.973 123.625C278.124 123.625 276.625 122.114 276.625 120.25C276.625 118.386 278.124 116.875 279.973 116.875C281.822 116.875 283.321 118.386 283.321 120.25ZM284.722 119.082V121.582L299.722 121.582L299.722 119.082L284.722 119.082Z" clip-rule="evenodd"/><path fill="#FFF100" d="M284.722 121.582H282.097C282.097 122.278 282.374 122.946 282.866 123.438C283.358 123.931 284.026 124.207 284.722 124.207V121.582ZM284.722 119.082V116.457C283.273 116.457 282.097 117.632 282.097 119.082H284.722ZM299.722 121.582V124.207C300.419 124.207 301.086 123.931 301.578 123.438C302.071 122.946 302.347 122.278 302.347 121.582L299.722 121.582ZM299.722 119.082L302.347 119.082C302.347 117.632 301.172 116.457 299.722 116.457V119.082ZM279.973 126.25C283.291 126.25 285.946 123.544 285.946 120.25H280.696C280.696 120.685 280.352 121 279.973 121V126.25ZM274 120.25C274 123.544 276.654 126.25 279.973 126.25V121C279.594 121 279.25 120.685 279.25 120.25H274ZM279.973 114.25C276.654 114.25 274 116.957 274 120.25H279.25C279.25 119.816 279.594 119.5 279.973 119.5V114.25ZM285.946 120.25C285.946 116.957 283.291 114.25 279.973 114.25V119.5C280.352 119.5 280.696 119.816 280.696 120.25H285.946ZM287.347 121.582V119.082H282.097V121.582H287.347ZM299.722 118.957L284.722 118.957V124.207L299.722 124.207V118.957ZM297.097 119.082L297.097 121.582L302.347 121.582L302.347 119.082L297.097 119.082ZM284.722 121.707L299.722 121.707V116.457L284.722 116.457V121.707Z" mask="url(#path-10-outside-1_5063_727)"/><mask id="path-12-outside-2_5063_727" width="29" height="13" x="273.625" y="113.875" fill="#000" maskUnits="userSpaceOnUse"><rect width="29" height="13" x="273.625" y="113.875" fill="#fff"/><path fill-rule="evenodd" d="M283.321 120.25C283.321 122.114 281.822 123.625 279.973 123.625C278.124 123.625 276.625 122.114 276.625 120.25C276.625 118.386 278.124 116.875 279.973 116.875C281.822 116.875 283.321 118.386 283.321 120.25ZM284.722 119.082V121.582L298.472 121.582C299.163 121.582 299.722 121.022 299.722 120.332C299.722 119.642 299.163 119.082 298.472 119.082L284.722 119.082Z" clip-rule="evenodd"/></mask><path fill="#000" fill-rule="evenodd" d="M283.321 120.25C283.321 122.114 281.822 123.625 279.973 123.625C278.124 123.625 276.625 122.114 276.625 120.25C276.625 118.386 278.124 116.875 279.973 116.875C281.822 116.875 283.321 118.386 283.321 120.25ZM284.722 119.082V121.582L298.472 121.582C299.163 121.582 299.722 121.022 299.722 120.332C299.722 119.642 299.163 119.082 298.472 119.082L284.722 119.082Z" clip-rule="evenodd"/><path fill="#FFF100" d="M284.722 121.582H282.097C282.097 122.278 282.374 122.946 282.866 123.438C283.358 123.931 284.026 124.207 284.722 124.207V121.582ZM284.722 119.082V116.457C283.273 116.457 282.097 117.632 282.097 119.082H284.722ZM298.472 121.582V118.957V121.582ZM298.472 119.082V116.457V119.082ZM279.973 126.25C283.291 126.25 285.946 123.544 285.946 120.25H280.696C280.696 120.685 280.352 121 279.973 121V126.25ZM274 120.25C274 123.544 276.654 126.25 279.973 126.25V121C279.594 121 279.25 120.685 279.25 120.25H274ZM279.973 114.25C276.654 114.25 274 116.957 274 120.25H279.25C279.25 119.816 279.594 119.5 279.973 119.5V114.25ZM285.946 120.25C285.946 116.957 283.291 114.25 279.973 114.25V119.5C280.352 119.5 280.696 119.816 280.696 120.25H285.946ZM287.347 121.582V119.082H282.097V121.582H287.347ZM298.472 118.957L284.722 118.957V124.207L298.472 124.207V118.957ZM297.097 120.332C297.097 119.573 297.713 118.957 298.472 118.957V124.207C300.612 124.207 302.347 122.472 302.347 120.332H297.097ZM298.472 121.707C297.713 121.707 297.097 121.091 297.097 120.332H302.347C302.347 118.192 300.612 116.457 298.472 116.457V121.707ZM284.722 121.707L298.472 121.707V116.457L284.722 116.457V121.707Z" mask="url(#path-12-outside-2_5063_727)"/><rect width="4.5" height="2.625" x="277.75" y="95.5" fill="#FFF100"/><rect width="4.5" height="2.625" x="295.925" y="101.218" fill="#FFF100" transform="rotate(45 295.925 101.218)"/><rect width="65" height="65" x="338.5" y="87.5" fill="#000" rx="10"/><path fill="#FFF100" d="M354.653 127.985H357.382V116.278H354.653V127.985ZM356.012 114.743C356.867 114.743 357.536 114.08 357.536 113.252C357.536 112.413 356.867 111.75 356.012 111.75C355.169 111.75 354.5 112.413 354.5 113.252C354.5 114.08 355.169 114.743 356.012 114.743ZM366.468 111.783C361.854 111.783 358.961 114.953 358.961 120.022C358.961 125.091 361.854 128.25 366.468 128.25C371.071 128.25 373.965 125.091 373.965 120.022C373.965 114.953 371.071 111.783 366.468 111.783ZM366.468 114.213C369.285 114.213 371.082 116.466 371.082 120.022C371.082 123.567 369.285 125.82 366.468 125.82C363.641 125.82 361.854 123.567 361.854 120.022C361.854 116.466 363.641 114.213 366.468 114.213ZM375.116 123.501C375.236 126.439 377.625 128.25 381.264 128.25C385.089 128.25 387.5 126.35 387.5 123.324C387.5 120.95 386.141 119.613 382.93 118.874L381.111 118.454C379.171 117.99 378.371 117.372 378.371 116.311C378.371 114.986 379.576 114.102 381.363 114.102C383.171 114.102 384.409 114.997 384.541 116.488H387.237C387.171 113.683 384.87 111.783 381.385 111.783C377.943 111.783 375.499 113.694 375.499 116.521C375.499 118.796 376.88 120.21 379.795 120.884L381.845 121.37C383.839 121.844 384.65 122.507 384.65 123.656C384.65 124.981 383.324 125.931 381.417 125.931C379.489 125.931 378.031 124.97 377.856 123.501L375.116 123.501Z"/></g><defs><clipPath id="clip0_5063_727"><rect width="560" height="240" fill="#fff"/></clipPath><clipPath id="clip1_5063_727"><rect width="560" height="240" fill="#fff"/></clipPath></defs></svg>