<svg width="560" height="240" viewBox="0 0 560 240" fill="none" xmlns="http://www.w3.org/2000/svg">
<g clip-path="url(#clip0_4986_5490)">
<rect width="560" height="240" fill="#FFF100"/>
<g clip-path="url(#clip1_4986_5490)">
<rect width="560" height="240" fill="#FFF100"/>
<path d="M-137 100L9.61491 100L67 100C78.0457 100 87 108.954 87 120L87 340C87 351.046 78.0457 360 67 360L-137 360C-148.046 360 -157 351.046 -157 340L-157 120C-157 108.954 -148.046 100 -137 100Z" fill="#FFF100"/>
<path d="M231 21.9441L231 -24C231 -35.0457 222.046 -44 211 -44L-11 -44C-22.0457 -44 -31 -35.0457 -31 -24L-31 191C-31 202.046 -22.0457 211 -11 211L76.5 211C87.5457 211 96.5 202.046 96.5 191L96.5 61.9441C96.5 50.8984 105.454 41.9441 116.5 41.9441L211 41.9441C222.046 41.9441 231 32.9898 231 21.9441Z" fill="#EDDE00"/>
<path d="M423.479 197.576L289 197.576C277.954 197.576 269 206.53 269 217.576L269 256C269 267.046 277.954 276 289 276L611.5 276C622.546 276 631.5 267.046 631.5 256L631.5 -28C631.5 -39.0457 622.546 -48 611.5 -48L504.424 -48C493.378 -48 484.424 -39.0457 484.424 -28L484.424 58.5088C484.424 69.5545 475.47 78.5088 464.424 78.5088L463.479 78.5088C452.433 78.5088 443.479 87.4631 443.479 98.5088L443.479 177.576C443.479 188.622 434.525 197.576 423.479 197.576Z" fill="#EDDE00"/>
<path d="M514 114C502.954 114 494 122.954 494 134L494 294C494 305.046 502.954 314 514 314L612 314C623.046 314 632 305.046 632 294L632 134C632 122.954 623.046 114 612 114L514 114Z" fill="#FFF100"/>
</g>
<rect x="247.5" y="87.5" width="65" height="65" rx="10" fill="black"/>
<path d="M265.479 112.938C264.11 112.937 263 114.045 263 115.407L263.002 125.745C263.001 126.069 263.065 126.39 263.19 126.69C263.315 126.99 263.497 127.262 263.727 127.491C263.958 127.721 264.231 127.903 264.532 128.027C264.833 128.151 265.156 128.215 265.481 128.214C265.807 128.215 266.13 128.151 266.431 128.027C266.732 127.903 267.005 127.721 267.235 127.492C267.465 127.263 267.648 126.99 267.772 126.69C267.897 126.391 267.96 126.069 267.96 125.745V115.406C267.959 114.751 267.697 114.123 267.232 113.661C266.767 113.198 266.136 112.938 265.479 112.938ZM285.471 103.655L287.201 100.508C287.245 100.428 287.256 100.334 287.23 100.247C287.205 100.159 287.146 100.085 287.066 100.041C286.985 99.9982 286.891 99.9884 286.804 100.014C286.716 100.04 286.643 100.099 286.599 100.178L284.851 103.358C283.38 102.706 281.735 102.341 279.993 102.342C278.256 102.341 276.611 102.705 275.147 103.353L273.397 100.182C273.376 100.142 273.346 100.107 273.311 100.079C273.276 100.05 273.236 100.029 273.193 100.017C273.15 100.004 273.104 99.9999 273.059 100.005C273.014 100.01 272.971 100.023 272.931 100.045C272.892 100.066 272.856 100.095 272.828 100.13C272.799 100.165 272.778 100.205 272.765 100.249C272.753 100.292 272.749 100.337 272.754 100.382C272.759 100.427 272.773 100.47 272.795 100.509L274.526 103.654C271.125 105.4 268.827 108.727 268.829 112.546L291.16 112.543C291.161 108.725 288.867 105.406 285.471 103.655ZM274.914 108.517C274.666 108.517 274.428 108.419 274.252 108.244C274.077 108.069 273.978 107.831 273.978 107.584C273.978 107.337 274.077 107.1 274.253 106.925C274.428 106.75 274.667 106.652 274.915 106.652C275.163 106.652 275.402 106.751 275.577 106.926C275.753 107.101 275.852 107.338 275.852 107.585C275.852 107.833 275.753 108.07 275.577 108.244C275.401 108.419 275.163 108.517 274.914 108.517ZM285.083 108.515C284.96 108.515 284.838 108.491 284.724 108.444C284.611 108.397 284.507 108.329 284.42 108.242C284.334 108.156 284.265 108.053 284.218 107.94C284.17 107.827 284.146 107.705 284.146 107.583C284.148 107.336 284.247 107.099 284.422 106.924C284.597 106.75 284.835 106.65 285.083 106.649C285.331 106.651 285.568 106.75 285.743 106.925C285.918 107.1 286.017 107.336 286.017 107.583C286.018 107.706 285.994 107.827 285.947 107.94C285.9 108.053 285.831 108.156 285.744 108.242C285.657 108.329 285.554 108.397 285.441 108.444C285.327 108.491 285.205 108.515 285.083 108.515ZM268.92 113.405L268.924 129.426C268.923 129.772 268.991 130.115 269.124 130.434C269.257 130.754 269.452 131.045 269.698 131.289C269.943 131.534 270.235 131.728 270.556 131.86C270.877 131.992 271.222 132.06 271.569 132.06L273.37 132.06L273.372 137.531C273.372 138.893 274.484 140 275.85 140C277.219 140 278.329 138.892 278.33 137.529L278.328 132.06L281.675 132.059L281.676 137.529C281.676 138.89 282.789 140 284.155 139.997C285.525 139.998 286.635 138.89 286.635 137.527L286.633 132.058L288.441 132.057C288.788 132.057 289.132 131.989 289.454 131.857C289.775 131.724 290.066 131.53 290.312 131.286C290.558 131.041 290.753 130.75 290.886 130.431C291.019 130.111 291.087 129.768 291.087 129.422L291.084 113.401L268.92 113.405ZM296.998 115.403C296.998 115.079 296.934 114.758 296.81 114.459C296.685 114.159 296.502 113.887 296.272 113.658C296.042 113.429 295.769 113.247 295.468 113.123C295.167 112.999 294.844 112.935 294.519 112.935C293.15 112.934 292.041 114.041 292.041 115.404L292.043 125.743C292.043 126.067 292.107 126.388 292.231 126.688C292.356 126.987 292.538 127.259 292.768 127.489C292.999 127.718 293.272 127.9 293.573 128.024C293.874 128.148 294.196 128.211 294.522 128.211C294.847 128.211 295.17 128.147 295.47 128.023C295.771 127.899 296.045 127.717 296.275 127.488C296.505 127.258 296.687 126.986 296.812 126.686C296.936 126.387 297 126.066 297 125.741L296.998 115.403Z" fill="#FFF100"/>
</g>
<defs>
<clipPath id="clip0_4986_5490">
<rect width="560" height="240" fill="white"/>
</clipPath>
<clipPath id="clip1_4986_5490">
<rect width="560" height="240" fill="white"/>
</clipPath>
</defs>
</svg>
