<svg width="1200" height="515" viewBox="0 0 1200 515" fill="none" xmlns="http://www.w3.org/2000/svg">
<g clip-path="url(#clip0_11116_10713)">
<rect width="1200" height="515" fill="url(#paint0_linear_11116_10713)"/>
<g clip-path="url(#clip1_11116_10713)">
<rect width="1200" height="515" fill="url(#paint1_linear_11116_10713)"/>
<path d="M-200.003 -476.575L460.802 -476.574C515.894 -476.574 560.555 -431.913 560.555 -376.821L560.555 -374.502C560.555 -319.41 515.894 -274.749 460.801 -274.749L238.815 -274.749C183.723 -274.749 139.061 -230.088 139.061 -174.996L139.061 176.246C139.061 231.338 94.4002 275.999 39.3079 275.999L-127.502 275.999" stroke="#F0DF09" stroke-width="2.9926"/>
<path d="M1315 217.5L918.5 217.5C882.601 217.5 853.5 188.399 853.5 152.5L853.5 -135.829C853.5 -171.728 882.601 -200.829 918.5 -200.829L1037.93 -200.829C1073.83 -200.829 1102.93 -229.93 1102.93 -265.829L1102.93 -388" stroke="#F0DF09" stroke-width="2.9926" stroke-linejoin="round"/>
<path d="M636 556.5L636 481.07C636 445.171 606.898 416.07 571 416.07L307.5 416.071C271.601 416.071 242.5 386.97 242.5 351.071L242.5 228.309C242.5 192.411 271.601 163.309 307.5 163.309L508.576 163.309C544.474 163.309 573.576 134.208 573.576 98.3093L573.576 -461.437C573.576 -497.336 602.677 -526.437 638.576 -526.437L777.936 -526.437" stroke="#F0DF09" stroke-width="2.9926" stroke-linejoin="round"/>
<rect x="251.712" y="318.387" width="19.7508" height="41.4254" rx="9.87539" transform="rotate(-180 251.712 318.387)" fill="#D4C50B" stroke="#F0DF09" stroke-width="1.92382"/>
<path d="M-220 453.505C-220.826 453.505 -221.496 454.175 -221.496 455.002C-221.496 455.828 -220.826 456.498 -220 456.498L-220 455.002L-220 453.505ZM166.933 456.058C167.517 455.474 167.517 454.526 166.933 453.942L157.411 444.42C156.826 443.835 155.879 443.835 155.294 444.42C154.71 445.004 154.71 445.951 155.295 446.536L163.759 455L155.295 463.464C154.71 464.049 154.71 464.996 155.295 465.58C155.879 466.165 156.826 466.165 157.411 465.58L166.933 456.058ZM-220 455.002L-220 456.498L165.875 456.496L165.875 455L165.875 453.504L-220 453.505L-220 455.002Z" fill="#F0DF09"/>
<path d="M1005.5 614.375C1005.5 615.201 1006.17 615.871 1007 615.871C1007.83 615.871 1008.5 615.201 1008.5 614.375L1007 614.375L1005.5 614.375ZM1008.06 326.442C1007.47 325.858 1006.53 325.858 1005.94 326.442L996.42 335.964C995.835 336.549 995.835 337.496 996.42 338.08C997.004 338.665 997.951 338.665 998.536 338.08L1007 329.616L1015.46 338.08C1016.05 338.665 1017 338.665 1017.58 338.08C1018.16 337.496 1018.16 336.549 1017.58 335.964L1008.06 326.442ZM1007 614.375L1008.5 614.375L1008.5 327.5L1007 327.5L1005.5 327.5L1005.5 614.375L1007 614.375Z" fill="#F0DF09"/>
<rect x="1081.96" y="230.038" width="25.0762" height="51.0762" rx="12.5381" transform="rotate(-90 1081.96 230.038)" fill="#D4C50B" stroke="#F0DF09" stroke-width="1.92382"/>
<path d="M710.68 482V466.6H712.864V468.644H712.92C713.013 467.953 713.284 467.393 713.732 466.964C714.199 466.535 714.787 466.32 715.496 466.32C716.168 466.32 716.737 466.516 717.204 466.908C717.671 467.3 718.007 467.832 718.212 468.504H718.24C718.371 467.832 718.66 467.3 719.108 466.908C719.575 466.516 720.163 466.32 720.872 466.32C721.861 466.32 722.645 466.693 723.224 467.44C723.821 468.168 724.12 469.12 724.12 470.296V482H721.768V470.268C721.768 469.652 721.619 469.167 721.32 468.812C721.021 468.439 720.611 468.252 720.088 468.252C719.584 468.252 719.183 468.429 718.884 468.784C718.585 469.139 718.436 469.624 718.436 470.24V482H716.364V470.268C716.364 469.652 716.215 469.167 715.916 468.812C715.617 468.439 715.216 468.252 714.712 468.252C714.189 468.252 713.779 468.429 713.48 468.784C713.181 469.139 713.032 469.624 713.032 470.24V482H710.68ZM732.845 482.28C731.258 482.28 729.998 481.841 729.065 480.964C728.132 480.068 727.665 478.901 727.665 477.464C727.665 476.512 727.88 475.681 728.309 474.972C728.738 474.263 729.336 473.712 730.101 473.32C730.866 472.909 731.744 472.704 732.733 472.704H737.493V471.5C737.493 469.503 736.401 468.504 734.217 468.504C733.246 468.504 732.462 468.681 731.865 469.036C731.268 469.391 730.95 469.885 730.913 470.52H728.393C728.486 469.307 729.046 468.308 730.073 467.524C731.118 466.721 732.5 466.32 734.217 466.32C736.084 466.32 737.512 466.768 738.501 467.664C739.509 468.56 740.013 469.811 740.013 471.416V482H737.521V479.2H737.465C737.316 480.152 736.84 480.908 736.037 481.468C735.234 482.009 734.17 482.28 732.845 482.28ZM733.461 480.152C734.693 480.152 735.673 479.853 736.401 479.256C737.129 478.659 737.493 477.847 737.493 476.82V474.664H733.013C732.192 474.664 731.52 474.916 730.997 475.42C730.493 475.905 730.241 476.559 730.241 477.38C730.241 478.239 730.521 478.92 731.081 479.424C731.66 479.909 732.453 480.152 733.461 480.152ZM745.294 482V461.56H747.814V472.956H750.754L755.066 466.6H757.95L752.994 473.936L758.23 482H755.29L750.81 475.14H747.814V482H745.294ZM767.767 482.28C765.957 482.28 764.491 481.739 763.371 480.656C762.27 479.555 761.719 478.043 761.719 476.12V472.48C761.719 470.557 762.27 469.055 763.371 467.972C764.491 466.871 765.957 466.32 767.767 466.32C768.981 466.32 770.035 466.563 770.931 467.048C771.846 467.533 772.555 468.215 773.059 469.092C773.563 469.969 773.815 471.005 773.815 472.2V474.944H764.183V476.4C764.183 477.539 764.51 478.444 765.163 479.116C765.817 479.769 766.685 480.096 767.767 480.096C768.701 480.096 769.466 479.919 770.063 479.564C770.679 479.191 771.053 478.696 771.183 478.08H773.703C773.535 479.368 772.91 480.395 771.827 481.16C770.745 481.907 769.391 482.28 767.767 482.28ZM764.183 472.984H771.351V472.2C771.351 470.987 771.034 470.053 770.399 469.4C769.783 468.728 768.906 468.392 767.767 468.392C766.629 468.392 765.742 468.728 765.107 469.4C764.491 470.053 764.183 470.987 764.183 472.2V472.984ZM800.001 482.28C798.415 482.28 797.155 481.841 796.221 480.964C795.288 480.068 794.821 478.901 794.821 477.464C794.821 476.512 795.036 475.681 795.465 474.972C795.895 474.263 796.492 473.712 797.257 473.32C798.023 472.909 798.9 472.704 799.889 472.704H804.649V471.5C804.649 469.503 803.557 468.504 801.373 468.504C800.403 468.504 799.619 468.681 799.021 469.036C798.424 469.391 798.107 469.885 798.069 470.52H795.549C795.643 469.307 796.203 468.308 797.229 467.524C798.275 466.721 799.656 466.32 801.373 466.32C803.24 466.32 804.668 466.768 805.657 467.664C806.665 468.56 807.169 469.811 807.169 471.416V482H804.677V479.2H804.621C804.472 480.152 803.996 480.908 803.193 481.468C802.391 482.009 801.327 482.28 800.001 482.28ZM800.617 480.152C801.849 480.152 802.829 479.853 803.557 479.256C804.285 478.659 804.649 477.847 804.649 476.82V474.664H800.169C799.348 474.664 798.676 474.916 798.153 475.42C797.649 475.905 797.397 476.559 797.397 477.38C797.397 478.239 797.677 478.92 798.237 479.424C798.816 479.909 799.609 480.152 800.617 480.152ZM820.374 482C819.012 482 817.92 481.608 817.098 480.824C816.296 480.021 815.894 478.967 815.894 477.66V463.856H810.574V461.56H818.414V477.66C818.414 478.295 818.592 478.799 818.946 479.172C819.301 479.527 819.777 479.704 820.374 479.704H825.134V482H820.374ZM837.163 482C835.801 482 834.709 481.608 833.887 480.824C833.085 480.021 832.683 478.967 832.683 477.66V463.856H827.363V461.56H835.203V477.66C835.203 478.295 835.381 478.799 835.735 479.172C836.09 479.527 836.566 479.704 837.163 479.704H841.923V482H837.163ZM851.685 482.28C849.911 482.28 848.493 481.757 847.428 480.712C846.365 479.648 845.833 478.211 845.833 476.4V466.6H848.353V476.4C848.353 477.52 848.651 478.416 849.249 479.088C849.846 479.741 850.658 480.068 851.685 480.068C852.73 480.068 853.551 479.741 854.149 479.088C854.765 478.416 855.073 477.52 855.073 476.4V466.6H857.593V476.4C857.593 478.211 857.051 479.648 855.969 480.712C854.886 481.757 853.458 482.28 851.685 482.28ZM862.678 482V466.6H865.198V469.54H865.226C865.356 468.513 865.776 467.72 866.486 467.16C867.195 466.6 868.138 466.32 869.314 466.32C870.863 466.32 872.095 466.796 873.01 467.748C873.924 468.7 874.382 469.997 874.382 471.64V482H871.862V472.088C871.862 470.912 871.563 470.016 870.966 469.4C870.387 468.765 869.594 468.448 868.586 468.448C867.54 468.448 866.71 468.775 866.094 469.428C865.496 470.081 865.198 471.005 865.198 472.2V482H862.678ZM879.271 482V479.704H884.731V468.896H879.831V466.6H887.251V479.704H892.431V482H879.271ZM885.711 463.828C885.095 463.828 884.609 463.669 884.255 463.352C883.9 463.035 883.723 462.605 883.723 462.064C883.723 461.504 883.9 461.065 884.255 460.748C884.609 460.412 885.095 460.244 885.711 460.244C886.327 460.244 886.812 460.412 887.167 460.748C887.521 461.065 887.699 461.504 887.699 462.064C887.699 462.605 887.521 463.035 887.167 463.352C886.812 463.669 886.327 463.828 885.711 463.828ZM903.62 482C902.35 482 901.333 481.636 900.568 480.908C899.802 480.161 899.42 479.172 899.42 477.94V468.896H894.996V466.6H899.42V462.26H901.94V466.6H908.24V468.896H901.94V477.94C901.94 478.463 902.089 478.892 902.388 479.228C902.705 479.545 903.116 479.704 903.62 479.704H908.1V482H903.62Z" fill="#F3E223"/>
<path d="M237.508 100.04V97.744H241.848C242.725 97.744 243.416 97.492 243.92 96.988C244.424 96.5027 244.676 95.84 244.676 95V93.6L244.732 91.08H244.648C244.499 91.9947 244.06 92.704 243.332 93.208C242.604 93.6933 241.689 93.936 240.588 93.936C239.001 93.936 237.751 93.432 236.836 92.424C235.921 91.416 235.464 90.0347 235.464 88.28V85.032C235.464 83.2773 235.921 81.8867 236.836 80.86C237.751 79.8333 239.001 79.32 240.588 79.32C241.689 79.32 242.604 79.5813 243.332 80.104C244.06 80.6267 244.499 81.3453 244.648 82.26H244.704V79.6H247.196V95C247.196 96.5493 246.711 97.772 245.74 98.668C244.788 99.5827 243.481 100.04 241.82 100.04H237.508ZM241.344 91.836C242.389 91.836 243.211 91.5093 243.808 90.856C244.405 90.2027 244.704 89.2973 244.704 88.14V85.2C244.704 84.0427 244.405 83.1373 243.808 82.484C243.211 81.8307 242.389 81.504 241.344 81.504C240.28 81.504 239.449 81.812 238.852 82.428C238.273 83.044 237.984 83.8747 237.984 84.92V88.42C237.984 89.4653 238.273 90.296 238.852 90.912C239.449 91.528 240.28 91.836 241.344 91.836ZM258.413 95.28C256.546 95.28 255.053 94.7573 253.933 93.712C252.813 92.6667 252.253 91.2293 252.253 89.4V85.2C252.253 83.3707 252.813 81.9333 253.933 80.888C255.053 79.8427 256.546 79.32 258.413 79.32C260.186 79.32 261.614 79.796 262.697 80.748C263.798 81.7 264.377 82.9973 264.433 84.64H261.913C261.857 83.6507 261.521 82.8947 260.905 82.372C260.289 81.8307 259.458 81.56 258.413 81.56C257.312 81.56 256.425 81.8773 255.753 82.512C255.1 83.128 254.773 84.0147 254.773 85.172V89.4C254.773 90.5573 255.1 91.4533 255.753 92.088C256.425 92.7227 257.312 93.04 258.413 93.04C259.458 93.04 260.289 92.7693 260.905 92.228C261.521 91.6867 261.857 90.9307 261.913 89.96H264.433C264.377 91.6027 263.798 92.9 262.697 93.852C261.614 94.804 260.186 95.28 258.413 95.28ZM275.202 95.28C273.335 95.28 271.842 94.7573 270.722 93.712C269.602 92.6667 269.042 91.2293 269.042 89.4V85.2C269.042 83.3707 269.602 81.9333 270.722 80.888C271.842 79.8427 273.335 79.32 275.202 79.32C276.975 79.32 278.403 79.796 279.486 80.748C280.587 81.7 281.166 82.9973 281.222 84.64H278.702C278.646 83.6507 278.31 82.8947 277.694 82.372C277.078 81.8307 276.247 81.56 275.202 81.56C274.101 81.56 273.214 81.8773 272.542 82.512C271.889 83.128 271.562 84.0147 271.562 85.172V89.4C271.562 90.5573 271.889 91.4533 272.542 92.088C273.214 92.7227 274.101 93.04 275.202 93.04C276.247 93.04 277.078 92.7693 277.694 92.228C278.31 91.6867 278.646 90.9307 278.702 89.96H281.222C281.166 91.6027 280.587 92.9 279.486 93.852C278.403 94.804 276.975 95.28 275.202 95.28Z" fill="#F3E223"/>
<path d="M49.58 396.36C46.9107 395.763 44.8387 394.512 43.364 392.608C41.908 390.704 41.18 388.315 41.18 385.44V380.4C41.18 377.525 41.908 375.136 43.364 373.232C44.8387 371.328 46.9107 370.077 49.58 369.48V371.916C48.3853 372.196 47.34 372.728 46.444 373.512C45.5667 374.296 44.8853 375.276 44.4 376.452C43.9333 377.609 43.7 378.925 43.7 380.4V385.44C43.7 386.896 43.9333 388.212 44.4 389.388C44.8853 390.564 45.5667 391.544 46.444 392.328C47.34 393.112 48.3853 393.644 49.58 393.924V396.36ZM56.0091 396.36V393.924C57.2224 393.644 58.2677 393.112 59.1451 392.328C60.0224 391.544 60.6944 390.564 61.1611 389.388C61.6464 388.212 61.8891 386.896 61.8891 385.44V380.4C61.8891 378.925 61.6464 377.609 61.1611 376.452C60.6944 375.276 60.0224 374.296 59.1451 373.512C58.2677 372.728 57.2224 372.196 56.0091 371.916V369.48C58.6784 370.077 60.7411 371.328 62.1971 373.232C63.6717 375.136 64.4091 377.525 64.4091 380.4V385.44C64.4091 388.315 63.6717 390.704 62.1971 392.608C60.7411 394.512 58.6784 395.763 56.0091 396.36ZM77.6981 381.52C77.0821 381.52 76.5781 381.324 76.1861 380.932C75.7941 380.54 75.5981 380.036 75.5981 379.42C75.5981 378.823 75.7941 378.328 76.1861 377.936C76.5968 377.525 77.1008 377.32 77.6981 377.32H78.2581C78.8555 377.32 79.3501 377.525 79.7421 377.936C80.1528 378.328 80.3581 378.823 80.3581 379.42C80.3581 380.036 80.1621 380.54 79.7701 380.932C79.3781 381.324 78.8741 381.52 78.2581 381.52H77.6981ZM75.3181 397.48L76.8581 388.912H79.8821L77.9221 397.48H75.3181Z" fill="#F3E223"/>
<path d="M1002.07 115V94.56H1005.79L1008.4 103.408L1011.11 94.56H1014.84V115H1012.4V105.34C1012.4 104.425 1012.41 103.38 1012.43 102.204C1012.47 101.009 1012.51 99.8053 1012.57 98.592C1012.63 97.3787 1012.69 96.2867 1012.77 95.316L1009.46 105.872H1007.28L1004.11 95.568C1004.26 96.9493 1004.37 98.4613 1004.42 100.104C1004.48 101.747 1004.51 103.492 1004.51 105.34V115H1002.07ZM1022.16 115L1029.44 96.856H1021.66V100.16H1019.14V94.56H1032.13V96.912L1024.91 115H1022.16ZM1042.03 115.28C1040.15 115.28 1038.64 114.739 1037.52 113.656C1036.42 112.555 1035.87 111.089 1035.87 109.26V100.3C1035.87 98.4707 1036.42 97.0147 1037.52 95.932C1038.64 94.8307 1040.15 94.28 1042.03 94.28C1043.92 94.28 1045.41 94.8307 1046.51 95.932C1047.63 97.0147 1048.19 98.4707 1048.19 100.3V109.26C1048.19 110.473 1047.94 111.537 1047.44 112.452C1046.93 113.348 1046.21 114.048 1045.28 114.552C1044.37 115.037 1043.28 115.28 1042.03 115.28ZM1042.03 113.124C1043.15 113.124 1044.05 112.769 1044.72 112.06C1045.41 111.332 1045.76 110.399 1045.76 109.26V100.3C1045.76 99.1613 1045.41 98.2373 1044.72 97.528C1044.05 96.8 1043.15 96.436 1042.03 96.436C1040.91 96.436 1040.01 96.8 1039.32 97.528C1038.64 98.2373 1038.31 99.1613 1038.31 100.3V109.26C1038.31 110.399 1038.64 111.332 1039.32 112.06C1040.01 112.769 1040.91 113.124 1042.03 113.124ZM1042.03 106.32C1041.53 106.32 1041.12 106.18 1040.8 105.9C1040.5 105.62 1040.35 105.219 1040.35 104.696C1040.35 104.192 1040.5 103.809 1040.8 103.548C1041.12 103.268 1041.53 103.128 1042.03 103.128C1042.54 103.128 1042.94 103.268 1043.24 103.548C1043.55 103.809 1043.71 104.192 1043.71 104.696C1043.71 105.219 1043.55 105.62 1043.24 105.9C1042.94 106.18 1042.54 106.32 1042.03 106.32ZM1058.82 115.28C1056.94 115.28 1055.43 114.739 1054.31 113.656C1053.21 112.555 1052.66 111.089 1052.66 109.26V100.3C1052.66 98.4707 1053.21 97.0147 1054.31 95.932C1055.43 94.8307 1056.94 94.28 1058.82 94.28C1060.71 94.28 1062.2 94.8307 1063.3 95.932C1064.42 97.0147 1064.98 98.4707 1064.98 100.3V109.26C1064.98 110.473 1064.73 111.537 1064.23 112.452C1063.72 113.348 1063 114.048 1062.07 114.552C1061.16 115.037 1060.07 115.28 1058.82 115.28ZM1058.82 113.124C1059.94 113.124 1060.84 112.769 1061.51 112.06C1062.2 111.332 1062.55 110.399 1062.55 109.26V100.3C1062.55 99.1613 1062.2 98.2373 1061.51 97.528C1060.84 96.8 1059.94 96.436 1058.82 96.436C1057.7 96.436 1056.8 96.8 1056.11 97.528C1055.43 98.2373 1055.1 99.1613 1055.1 100.3V109.26C1055.1 110.399 1055.43 111.332 1056.11 112.06C1056.8 112.769 1057.7 113.124 1058.82 113.124ZM1058.82 106.32C1058.32 106.32 1057.91 106.18 1057.59 105.9C1057.29 105.62 1057.14 105.219 1057.14 104.696C1057.14 104.192 1057.29 103.809 1057.59 103.548C1057.91 103.268 1058.32 103.128 1058.82 103.128C1059.33 103.128 1059.73 103.268 1060.03 103.548C1060.34 103.809 1060.5 104.192 1060.5 104.696C1060.5 105.219 1060.34 105.62 1060.03 105.9C1059.73 106.18 1059.33 106.32 1058.82 106.32ZM1075.72 115.28C1073.74 115.28 1072.17 114.757 1070.99 113.712C1069.81 112.667 1069.23 111.229 1069.23 109.4H1071.75C1071.75 110.539 1072.11 111.435 1072.84 112.088C1073.57 112.723 1074.53 113.04 1075.72 113.04C1076.88 113.04 1077.8 112.704 1078.49 112.032C1079.19 111.36 1079.53 110.483 1079.53 109.4C1079.53 108.579 1079.31 107.869 1078.86 107.272C1078.43 106.656 1077.8 106.236 1076.98 106.012L1073.87 105.144C1072.59 104.771 1071.57 104.108 1070.82 103.156C1070.09 102.185 1069.73 101.047 1069.73 99.74C1069.73 98.6573 1069.97 97.7053 1070.46 96.884C1070.94 96.0627 1071.63 95.428 1072.5 94.98C1073.38 94.5133 1074.39 94.28 1075.53 94.28C1076.68 94.28 1077.7 94.5133 1078.58 94.98C1079.47 95.428 1080.17 96.0627 1080.68 96.884C1081.18 97.6867 1081.43 98.62 1081.43 99.684H1078.91C1078.91 98.7507 1078.6 97.9947 1077.96 97.416C1077.33 96.8187 1076.52 96.52 1075.53 96.52C1074.54 96.52 1073.73 96.8187 1073.12 97.416C1072.5 97.9947 1072.19 98.7507 1072.19 99.684C1072.19 100.431 1072.39 101.075 1072.78 101.616C1073.19 102.139 1073.76 102.503 1074.49 102.708L1077.68 103.604C1079.05 103.977 1080.1 104.687 1080.85 105.732C1081.61 106.759 1081.99 107.981 1081.99 109.4C1081.99 111.192 1081.43 112.62 1080.29 113.684C1079.15 114.748 1077.63 115.28 1075.72 115.28Z" fill="#F3E223"/>
</g>
<g filter="url(#filter0_f_11116_10713)">
<path d="M749.381 135C754.134 135 758.156 138.651 758.156 143.354V251.888L783.934 257.633H783.935C786.393 258.182 787.554 260.238 787.472 262.241V347.022L787.47 347.055C787.392 348.99 786.083 350.998 783.596 351.359H783.594L595.857 378.316C583.761 380.058 571.449 379.6 559.516 376.961L415.54 345.166L415.534 345.164C413.145 344.627 411.98 342.615 412.001 340.702H412V254.285L412.283 254.289C412.795 252.876 413.999 251.705 415.873 251.432L484.196 241.43C478.184 233.222 474.634 223.092 474.634 212.114C474.634 184.673 496.798 162.509 524.239 162.509C551.681 162.509 573.845 184.673 573.845 212.114C573.845 217.943 572.844 223.532 571.006 228.723L603.634 223.947V143.354C603.634 138.651 607.657 135 612.41 135H749.381Z" fill="#FFFCC2"/>
</g>
<path d="M748.141 135.492H611.171C607.21 135.492 604 138.513 604 142.24V274.926C604 278.653 607.21 281.674 611.171 281.674H748.141C752.102 281.674 755.312 278.653 755.312 274.926V142.24C755.312 138.513 752.102 135.492 748.141 135.492Z" fill="#FFFCC2" stroke="#978C00" stroke-width="3.21" stroke-miterlimit="10"/>
<path d="M726.466 173.704H706.977C706.277 173.704 705.709 174.291 705.709 175.015V248.908C705.709 249.632 706.277 250.219 706.977 250.219H726.466C727.166 250.219 727.734 249.632 727.734 248.908V175.015C727.734 174.291 727.166 173.704 726.466 173.704Z" fill="#FFF100" stroke="#978C00" stroke-width="3.21" stroke-miterlimit="10" stroke-linecap="round"/>
<path d="M689.54 195.521H670.051C669.351 195.521 668.783 196.107 668.783 196.831V248.905C668.783 249.629 669.351 250.216 670.051 250.216H689.54C690.241 250.216 690.808 249.629 690.808 248.905V196.831C690.808 196.107 690.241 195.521 689.54 195.521Z" fill="#FFF100" stroke="#978C00" stroke-width="3.21" stroke-miterlimit="10" stroke-linecap="round"/>
<path d="M652.96 211.768H633.471C632.771 211.768 632.203 212.354 632.203 213.078V248.904C632.203 249.628 632.771 250.215 633.471 250.215H652.96C653.661 250.215 654.228 249.628 654.228 248.904V213.078C654.228 212.354 653.661 211.768 652.96 211.768Z" fill="#FFF100" stroke="#978C00" stroke-width="3.21" stroke-miterlimit="10" stroke-linecap="round"/>
<path d="M784.634 261.069L412.366 254.802V339.587C412.344 340.857 413.09 342.133 414.647 342.484L558.623 374.279C570.367 376.876 582.485 377.328 594.39 375.614L782.126 348.656C783.735 348.422 784.576 347.16 784.627 345.876V261.069H784.634Z" fill="#FFFCC2" stroke="#978C00" stroke-width="3.21" stroke-miterlimit="10"/>
<path d="M782.133 263.82L598.368 290.238C584.13 292.288 569.636 291.748 555.588 288.655L414.655 257.64C411.488 256.932 411.656 252.373 414.867 251.906L614.588 222.671C618.12 222.153 621.726 222.285 625.214 223.065L782.345 258.085C785.512 258.793 785.344 263.353 782.133 263.82Z" fill="#FFFCC2" stroke="#978C00" stroke-width="3.21" stroke-miterlimit="10"/>
<path d="M579.348 291.457V376.344" stroke="#978C00" stroke-width="3.21" stroke-miterlimit="10"/>
<path d="M604 289V373.683" stroke="#978C00" stroke-width="3.21" stroke-miterlimit="10"/>
<path d="M557 288V372.887" stroke="#978C00" stroke-width="3.21" stroke-miterlimit="10"/>
<path d="M649.193 328.198L741.371 314.949C743.01 314.715 744.231 313.307 744.231 311.659V291.901C744.231 289.873 742.432 288.319 740.421 288.611L648.242 301.86C646.604 302.094 645.383 303.502 645.383 305.151V324.908C645.383 326.936 647.182 328.49 649.193 328.198Z" fill="#FFF100" stroke="#978C00" stroke-width="3.21" stroke-miterlimit="10"/>
<path d="M535.216 311.254C537.149 310.991 538.319 307.865 537.829 304.272C537.338 300.679 535.374 297.979 533.441 298.241C531.508 298.504 530.339 301.629 530.829 305.223C531.319 308.816 533.283 311.516 535.216 311.254Z" fill="#978C00"/>
<path d="M523.449 308.55C525.382 308.287 526.551 305.161 526.061 301.568C525.571 297.975 523.607 295.275 521.674 295.537C519.741 295.799 518.571 298.925 519.061 302.518C519.552 306.112 521.516 308.812 523.449 308.55Z" fill="#978C00"/>
<path d="M511.679 305.845C513.612 305.583 514.782 302.457 514.292 298.864C513.801 295.271 511.837 292.57 509.904 292.833C507.971 293.095 506.802 296.221 507.292 299.814C507.782 303.408 509.746 306.108 511.679 305.845Z" fill="#978C00"/>
<path d="M499.912 303.149C501.845 302.886 503.014 299.761 502.524 296.167C502.034 292.574 500.069 289.874 498.137 290.136C496.204 290.399 495.034 293.524 495.524 297.118C496.014 300.711 497.979 303.411 499.912 303.149Z" fill="#978C00"/>
<path d="M488.142 300.438C490.075 300.176 491.245 297.05 490.754 293.457C490.264 289.863 488.3 287.163 486.367 287.426C484.434 287.688 483.265 290.814 483.755 294.407C484.245 298 486.209 300.701 488.142 300.438Z" fill="#978C00"/>
<path d="M476.375 297.734C478.307 297.472 479.477 294.346 478.987 290.753C478.497 287.159 476.532 284.459 474.599 284.722C472.667 284.984 471.497 288.11 471.987 291.703C472.477 295.296 474.442 297.997 476.375 297.734Z" fill="#978C00"/>
<path d="M464.605 295.037C466.538 294.775 467.707 291.649 467.217 288.056C466.727 284.463 464.763 281.762 462.83 282.025C460.897 282.287 459.727 285.413 460.218 289.006C460.708 292.6 462.672 295.3 464.605 295.037Z" fill="#978C00"/>
<path d="M452.837 292.326C454.77 292.063 455.94 288.938 455.45 285.344C454.96 281.751 452.995 279.051 451.062 279.313C449.129 279.576 447.96 282.702 448.45 286.295C448.94 289.888 450.905 292.588 452.837 292.326Z" fill="#978C00"/>
<path d="M441.07 289.63C443.003 289.367 444.172 286.241 443.682 282.648C443.192 279.055 441.228 276.355 439.295 276.617C437.362 276.88 436.192 280.005 436.682 283.599C437.173 287.192 439.137 289.892 441.07 289.63Z" fill="#978C00"/>
<path d="M429.3 286.926C431.233 286.663 432.403 283.537 431.913 279.944C431.422 276.351 429.458 273.651 427.525 273.913C425.592 274.175 424.423 277.301 424.913 280.894C425.403 284.488 427.367 287.188 429.3 286.926Z" fill="#978C00"/>
<path d="M535.21 327.065C537.143 326.803 538.313 323.677 537.823 320.084C537.333 316.49 535.368 313.79 533.435 314.053C531.502 314.315 530.333 317.441 530.823 321.034C531.313 324.627 533.278 327.328 535.21 327.065Z" fill="#978C00"/>
<path d="M523.451 324.368C525.384 324.106 526.553 320.98 526.063 317.387C525.573 313.794 523.609 311.093 521.676 311.356C519.743 311.618 518.573 314.744 519.063 318.337C519.553 321.931 521.518 324.631 523.451 324.368Z" fill="#978C00"/>
<path d="M511.681 321.664C513.614 321.402 514.784 318.276 514.293 314.683C513.803 311.09 511.839 308.389 509.906 308.652C507.973 308.914 506.804 312.04 507.294 315.633C507.784 319.227 509.748 321.927 511.681 321.664Z" fill="#978C00"/>
<path d="M499.912 318.953C501.845 318.69 503.014 315.565 502.524 311.971C502.034 308.378 500.069 305.678 498.137 305.94C496.204 306.203 495.034 309.328 495.524 312.922C496.014 316.515 497.979 319.215 499.912 318.953Z" fill="#978C00"/>
<path d="M488.136 316.257C490.069 315.995 491.239 312.869 490.749 309.276C490.258 305.682 488.294 302.982 486.361 303.245C484.428 303.507 483.259 306.633 483.749 310.226C484.239 313.819 486.203 316.52 488.136 316.257Z" fill="#978C00"/>
<path d="M476.376 313.553C478.309 313.291 479.479 310.165 478.989 306.572C478.499 302.978 476.534 300.278 474.601 300.54C472.668 300.803 471.499 303.929 471.989 307.522C472.479 311.115 474.444 313.815 476.376 313.553Z" fill="#978C00"/>
<path d="M464.607 310.849C466.54 310.586 467.709 307.461 467.219 303.867C466.729 300.274 464.765 297.574 462.832 297.836C460.899 298.099 459.729 301.224 460.22 304.818C460.71 308.411 462.674 311.111 464.607 310.849Z" fill="#978C00"/>
<path d="M452.839 308.145C454.772 307.882 455.942 304.757 455.452 301.163C454.962 297.57 452.997 294.87 451.064 295.132C449.131 295.395 447.962 298.52 448.452 302.114C448.942 305.707 450.906 308.407 452.839 308.145Z" fill="#978C00"/>
<path d="M441.07 305.442C443.003 305.179 444.172 302.053 443.682 298.46C443.192 294.867 441.228 292.167 439.295 292.429C437.362 292.692 436.192 295.817 436.682 299.411C437.173 303.004 439.137 305.704 441.07 305.442Z" fill="#978C00"/>
<path d="M429.302 302.737C431.235 302.475 432.405 299.349 431.915 295.756C431.424 292.162 429.46 289.462 427.527 289.725C425.594 289.987 424.425 293.113 424.915 296.706C425.405 300.299 427.369 303 429.302 302.737Z" fill="#978C00"/>
<path d="M535.212 342.884C537.145 342.622 538.315 339.496 537.825 335.903C537.335 332.309 535.37 329.609 533.437 329.871C531.504 330.134 530.335 333.26 530.825 336.853C531.315 340.446 533.28 343.146 535.212 342.884Z" fill="#978C00"/>
<path d="M523.445 340.18C525.378 339.917 526.547 336.792 526.057 333.198C525.567 329.605 523.603 326.905 521.67 327.167C519.737 327.43 518.567 330.556 519.057 334.149C519.548 337.742 521.512 340.442 523.445 340.18Z" fill="#978C00"/>
<path d="M511.683 337.483C513.616 337.221 514.786 334.095 514.295 330.502C513.805 326.908 511.841 324.208 509.908 324.471C507.975 324.733 506.806 327.859 507.296 331.452C507.786 335.045 509.75 337.746 511.683 337.483Z" fill="#978C00"/>
<path d="M499.916 334.772C501.848 334.509 503.018 331.384 502.528 327.79C502.038 324.197 500.073 321.497 498.14 321.759C496.208 322.022 495.038 325.147 495.528 328.741C496.018 332.334 497.983 335.034 499.916 334.772Z" fill="#978C00"/>
<path d="M488.14 332.075C490.073 331.813 491.243 328.687 490.752 325.094C490.262 321.501 488.298 318.8 486.365 319.063C484.432 319.325 483.263 322.451 483.753 326.044C484.243 329.638 486.207 332.338 488.14 332.075Z" fill="#978C00"/>
<path d="M476.371 329.371C478.304 329.109 479.473 325.983 478.983 322.39C478.493 318.797 476.528 316.096 474.596 316.359C472.663 316.621 471.493 319.747 471.983 323.34C472.473 326.934 474.438 329.634 476.371 329.371Z" fill="#978C00"/>
<path d="M464.609 326.66C466.542 326.398 467.711 323.272 467.221 319.679C466.731 316.086 464.767 313.385 462.834 313.648C460.901 313.91 459.731 317.036 460.222 320.629C460.712 324.223 462.676 326.923 464.609 326.66Z" fill="#978C00"/>
<path d="M452.841 323.963C454.774 323.701 455.944 320.575 455.454 316.982C454.963 313.388 452.999 310.688 451.066 310.951C449.133 311.213 447.964 314.339 448.454 317.932C448.944 321.525 450.908 324.226 452.841 323.963Z" fill="#978C00"/>
<path d="M441.066 321.26C442.999 320.998 444.168 317.872 443.678 314.279C443.188 310.685 441.224 307.985 439.291 308.247C437.358 308.51 436.188 311.636 436.679 315.229C437.169 318.822 439.133 321.522 441.066 321.26Z" fill="#978C00"/>
<path d="M429.304 318.549C431.237 318.286 432.407 315.16 431.917 311.567C431.426 307.974 429.462 305.274 427.529 305.536C425.596 305.798 424.427 308.924 424.917 312.518C425.407 316.111 427.371 318.811 429.304 318.549Z" fill="#978C00"/>
<path d="M535.214 358.703C537.147 358.44 538.317 355.315 537.827 351.721C537.337 348.128 535.372 345.428 533.439 345.69C531.506 345.953 530.337 349.078 530.827 352.672C531.317 356.265 533.281 358.965 535.214 358.703Z" fill="#978C00"/>
<path d="M523.447 355.999C525.38 355.736 526.549 352.611 526.059 349.017C525.569 345.424 523.605 342.724 521.672 342.986C519.739 343.249 518.569 346.374 519.059 349.968C519.55 353.561 521.514 356.261 523.447 355.999Z" fill="#978C00"/>
<path d="M511.677 353.295C513.61 353.032 514.78 349.907 514.29 346.313C513.799 342.72 511.835 340.02 509.902 340.282C507.969 340.545 506.8 343.67 507.29 347.264C507.78 350.857 509.744 353.557 511.677 353.295Z" fill="#978C00"/>
<path d="M499.917 350.591C501.85 350.328 503.02 347.202 502.53 343.609C502.04 340.016 500.075 337.316 498.142 337.578C496.21 337.84 495.04 340.966 495.53 344.559C496.02 348.153 497.985 350.853 499.917 350.591Z" fill="#978C00"/>
<path d="M488.14 347.887C490.073 347.625 491.243 344.499 490.752 340.906C490.262 337.313 488.298 334.612 486.365 334.875C484.432 335.137 483.263 338.263 483.753 341.856C484.243 345.45 486.207 348.15 488.14 347.887Z" fill="#978C00"/>
<path d="M476.373 345.183C478.305 344.92 479.475 341.795 478.985 338.201C478.495 334.608 476.53 331.908 474.598 332.17C472.665 332.433 471.495 335.558 471.985 339.152C472.475 342.745 474.44 345.445 476.373 345.183Z" fill="#978C00"/>
<path d="M464.603 342.479C466.536 342.217 467.706 339.091 467.215 335.498C466.725 331.904 464.761 329.204 462.828 329.467C460.895 329.729 459.725 332.855 460.216 336.448C460.706 340.041 462.67 342.742 464.603 342.479Z" fill="#978C00"/>
<path d="M452.841 339.775C454.774 339.513 455.944 336.387 455.454 332.794C454.963 329.2 452.999 326.5 451.066 326.763C449.133 327.025 447.964 330.151 448.454 333.744C448.944 337.337 450.908 340.038 452.841 339.775Z" fill="#978C00"/>
<path d="M441.068 337.072C443.001 336.809 444.17 333.683 443.68 330.09C443.19 326.497 441.226 323.797 439.293 324.059C437.36 324.321 436.19 327.447 436.681 331.04C437.171 334.634 439.135 337.334 441.068 337.072Z" fill="#978C00"/>
<path d="M429.298 334.367C431.231 334.105 432.401 330.979 431.911 327.386C431.421 323.793 429.456 321.092 427.523 321.355C425.59 321.617 424.421 324.743 424.911 328.336C425.401 331.93 427.365 334.63 429.298 334.367Z" fill="#978C00"/>
<path d="M523 259C496.445 259 475 237.555 475 211C475 184.445 496.445 163 523 163C549.555 163 571 184.445 571 211C571 237.555 549.555 259 523 259Z" fill="#FFFCC2" stroke="#978C00" stroke-width="3.21" stroke-miterlimit="10" stroke-linecap="round"/>
<path d="M548.664 203.889H539.248V218.099H548.664C552.569 218.099 555.813 214.855 555.813 210.951C555.813 207.018 552.569 203.889 548.664 203.889Z" fill="#FFF100" stroke="#978C00" stroke-width="3.21" stroke-miterlimit="10" stroke-linecap="round"/>
<path d="M493.117 211.134C493.117 222.169 502.045 231.153 513.012 231.153C523.978 231.153 532.907 222.169 532.907 211.134C532.907 200.098 523.978 191.114 513.012 191.114C502.045 191.114 493.117 200.098 493.117 211.134Z" fill="#FFF100" stroke="#978C00" stroke-width="3.21" stroke-miterlimit="10" stroke-linecap="round"/>
</g>
<defs>
<filter id="filter0_f_11116_10713" x="372" y="95" width="455.477" height="324.352" filterUnits="userSpaceOnUse" color-interpolation-filters="sRGB">
<feFlood flood-opacity="0" result="BackgroundImageFix"/>
<feBlend mode="normal" in="SourceGraphic" in2="BackgroundImageFix" result="shape"/>
<feGaussianBlur stdDeviation="20" result="effect1_foregroundBlur_11116_10713"/>
</filter>
<linearGradient id="paint0_linear_11116_10713" x1="589" y1="-26.5" x2="587" y2="627" gradientUnits="userSpaceOnUse">
<stop stop-color="#FDEF00"/>
<stop offset="0.938633" stop-color="#FFFAA3"/>
</linearGradient>
<linearGradient id="paint1_linear_11116_10713" x1="587" y1="-85" x2="587" y2="627" gradientUnits="userSpaceOnUse">
<stop stop-color="#FDEF00"/>
<stop offset="0.938633" stop-color="#FFFAA3"/>
</linearGradient>
<clipPath id="clip0_11116_10713">
<rect width="1200" height="515" fill="white"/>
</clipPath>
<clipPath id="clip1_11116_10713">
<rect width="1200" height="515" fill="white"/>
</clipPath>
</defs>
</svg>
