<svg width="560" height="240" viewBox="0 0 560 240" fill="none" xmlns="http://www.w3.org/2000/svg">
<g clip-path="url(#clip0_9115_51586)">
<rect width="560" height="240" fill="#FFF100"/>
<g clip-path="url(#clip1_9115_51586)">
<rect width="560" height="240" fill="#FFF100"/>
<path d="M436.5 103L498.5 103C509.546 103 518.5 111.954 518.5 123L518.5 246.896C518.5 257.941 527.454 266.896 538.5 266.896L715 266.896C726.046 266.896 735 257.941 735 246.896L735 3.98244C735 -7.06326 726.046 -16.0176 715 -16.0176L436.5 -16.0175C425.454 -16.0175 416.5 -7.06325 416.5 3.98244L416.5 82.9998C416.5 94.0455 425.454 103 436.5 103Z" fill="#EDDD0C"/>
<path d="M-6.00012 -51L246.097 -51C257.299 -51 266.316 -41.8006 266.093 -30.6009L265.015 23.399C264.798 34.287 255.91 43 245.019 43L98.899 43C87.7467 43 78.7488 52.1215 78.9009 63.2728L80.2309 160.773C80.3801 171.711 89.2897 180.5 100.229 180.5L326.5 180.5C337.546 180.5 346.5 189.454 346.5 200.5L346.5 283C346.5 294.046 337.546 303 326.5 303L-6.00008 303C-17.0458 303 -26.0001 294.046 -26.0001 283L-26.0001 -31C-26.0001 -42.0457 -17.0458 -51 -6.00012 -51Z" fill="#EDDD0C"/>
<rect width="291" height="125" rx="20" transform="matrix(1 -2.3597e-08 -2.3597e-08 -1 476 62)" fill="#FFF100"/>
<rect width="265" height="145" rx="20" transform="matrix(1 -2.3597e-08 -2.3597e-08 -1 -227 271)" fill="#FFF100"/>
</g>
<rect x="202.5" y="87.5" width="65" height="65" rx="32.5" fill="#0D0D0D"/>
<path d="M250.5 134.559C250.5 135.417 250.193 136.243 249.64 136.872C249.088 137.501 248.33 137.886 247.519 137.95L247.278 137.959L224.722 137.959C223.909 137.959 223.126 137.635 222.53 137.052C221.934 136.469 221.569 135.669 221.508 134.814L221.5 134.559L221.5 107.359C221.5 106.501 221.807 105.675 222.36 105.046C222.912 104.417 223.67 104.032 224.481 103.967L224.722 103.959L247.278 103.959C248.091 103.959 248.874 104.283 249.47 104.866C250.066 105.449 250.431 106.249 250.492 107.104L250.5 107.359L250.5 134.559ZM227.944 134.559L227.944 131.159L224.722 131.159L224.722 134.559L227.944 134.559ZM227.944 110.759L227.944 107.359L224.722 107.359L224.722 110.759L227.944 110.759ZM234.389 134.559L234.389 131.159L231.167 131.159L231.167 134.559L234.389 134.559ZM234.389 110.759L234.389 107.359L231.167 107.359L231.167 110.759L234.389 110.759ZM240.833 134.559L240.833 131.159L237.611 131.159L237.611 134.559L240.833 134.559ZM240.833 110.759L240.833 107.359L237.611 107.359L237.611 110.759L240.833 110.759ZM247.278 134.559L247.278 131.159L244.056 131.159L244.056 134.559L247.278 134.559ZM247.278 110.759L247.278 107.359L244.056 107.359L244.056 110.759L247.278 110.759Z" fill="#FFF100"/>
<rect x="292.5" y="87.5" width="65" height="65" rx="10" fill="#0D0D0D"/>
<path d="M342.5 111.125L330.88 99.505L328.5 97.125H311.25C309.18 97.125 307.5 98.805 307.5 100.875V139.125C307.5 139.905 307.74 140.625 308.14 141.225C308.41 141.625 308.75 141.965 309.15 142.235C309.75 142.635 310.47 142.875 311.25 142.875H338.75C339.27 142.875 339.76 142.775 340.21 142.585C340.88 142.305 341.46 141.825 341.86 141.225C342.26 140.625 342.5 139.905 342.5 139.125V111.125Z" fill="#FFF100"/>
<path d="M341.49 110.115H340.82L332.25 110.085C330.73 110.085 329.5 108.855 329.5 107.335V98.125L328.5 97.125H327.5V107.345C327.5 109.965 329.63 112.085 332.25 112.095L342.5 112.125V111.125L341.49 110.115Z" fill="#0D0D0D"/>
<path d="M317.797 131.459H315.893V129.555H317.797V131.459ZM323.798 124.935V121.309H325.464V131.459H323.798V130.465C323.35 131.207 322.566 131.641 321.558 131.641C319.766 131.641 318.282 130.115 318.282 127.693C318.282 125.285 319.766 123.759 321.558 123.759C322.566 123.759 323.35 124.193 323.798 124.935ZM323.868 127.693C323.868 125.957 323 125.117 321.922 125.117C320.802 125.117 320.018 126.125 320.018 127.693C320.018 129.303 320.802 130.283 321.922 130.283C323 130.283 323.868 129.429 323.868 127.693ZM328.521 127.693C328.521 129.429 329.375 130.283 330.467 130.283C331.587 130.283 332.371 129.303 332.371 127.693C332.371 126.125 331.587 125.117 330.467 125.117C329.375 125.117 328.521 125.957 328.521 127.693ZM326.925 121.309H328.591V124.935C329.039 124.193 329.823 123.759 330.831 123.759C332.623 123.759 334.107 125.285 334.107 127.693C334.107 130.115 332.623 131.641 330.831 131.641C329.823 131.641 329.039 131.207 328.591 130.465V131.459H326.925V121.309Z" fill="#0D0D0D"/>
</g>
<defs>
<clipPath id="clip0_9115_51586">
<rect width="560" height="240" fill="white"/>
</clipPath>
<clipPath id="clip1_9115_51586">
<rect width="560" height="240" fill="white"/>
</clipPath>
</defs>
</svg>
