<svg xmlns="http://www.w3.org/2000/svg" width="560" height="240" fill="none" viewBox="0 0 560 240"><g clip-path="url(#clip0_4723_13467)"><rect width="560" height="240" fill="#FFF100"/><g clip-path="url(#clip1_4723_13467)"><rect width="560" height="240" fill="#FFF100"/><path fill="#EDDE00" d="M224 49.847L224 -0.999985C224 -12.0457 215.046 -21 204 -21L-26 -21C-37.0457 -21 -46 -12.0457 -46 -1.00001L-46 175C-46 186.046 -37.0457 195 -26 195L52.5714 195C63.6171 195 72.5714 186.046 72.5714 175L72.5714 89.8471C72.5714 78.8014 81.5257 69.8471 92.5714 69.8471L204 69.8471C215.046 69.8471 224 60.8927 224 49.847Z"/><path fill="#EDDE00" d="M472.584 123.352L505.5 123.352C516.546 123.352 525.5 114.397 525.5 103.352L525.5 66.9999C525.5 55.9542 516.546 46.9999 505.5 46.9999L454.5 46.9999C443.454 46.9999 434.5 38.0456 434.5 26.9999L434.5 -34.0001C434.5 -45.0458 443.454 -54.0001 454.5 -54.0001L583 -54.0001C594.046 -54.0001 603 -45.0457 603 -34.0001L603 241.5C603 252.546 594.046 261.5 583 261.5L335 261.5C323.954 261.5 315 252.546 315 241.5L315 206.5C315 195.454 323.954 186.5 335 186.5L432.584 186.5C443.629 186.5 452.584 177.546 452.584 166.5L452.584 143.352C452.584 132.306 461.538 123.352 472.584 123.352Z"/></g><circle cx="280" cy="120" r="33.5" fill="#000"/><path fill="#FFF100" d="M258.116 121.7C258.116 121.045 258.647 120.514 259.302 120.514H269.519C270.174 120.514 270.705 121.045 270.705 121.7V131.27C270.705 131.926 270.174 132.457 269.519 132.457H259.302C258.647 132.457 258.116 131.926 258.116 131.27V121.7Z"/><path fill="#FFF100" d="M273.706 108.73C273.706 108.075 274.237 107.544 274.892 107.544H285.109C285.764 107.544 286.295 108.075 286.295 108.73V131.27C286.295 131.926 285.764 132.457 285.109 132.457H274.892C274.237 132.457 273.706 131.926 273.706 131.27V108.73Z"/><path fill="#FFF100" d="M289.295 115.17C289.295 114.515 289.826 113.984 290.481 113.984H300.698C301.353 113.984 301.885 114.515 301.885 115.17V131.27C301.885 131.926 301.353 132.457 300.698 132.457H290.481C289.826 132.457 289.295 131.926 289.295 131.27V115.17Z"/></g><defs><clipPath id="clip0_4723_13467"><rect width="560" height="240" fill="#fff"/></clipPath><clipPath id="clip1_4723_13467"><rect width="560" height="240" fill="#fff"/></clipPath></defs></svg>