<svg width="560" height="240" viewBox="0 0 560 240" fill="none" xmlns="http://www.w3.org/2000/svg">
<g clip-path="url(#clip0_5777_1396)">
<rect width="560" height="240" fill="#FFF100"/>
<g clip-path="url(#clip1_5777_1396)">
<rect width="560" height="240" fill="#FFF100"/>
<path d="M134.5 190.5L361 190.5C372.046 190.5 381 181.546 381 170.5L381 54.9999C381.001 43.9543 389.955 35 401 35L598.5 35C609.546 35 618.5 43.9543 618.5 55.0001L618.5 309C618.5 320.046 609.545 329 598.5 329L134.5 329C123.454 329 114.5 320.046 114.5 309L114.5 210.5C114.5 199.454 123.454 190.5 134.5 190.5Z" fill="#EDDD0C"/>
<path d="M186.5 50.8302L186.5 -21.9996C186.5 -33.0452 177.546 -41.9995 166.5 -41.9996L-27.9999 -42C-39.0457 -42 -48 -33.0457 -48 -22L-48 185C-48 196.046 -39.0457 205 -28 205L33.7692 205C44.8149 205 53.7692 196.046 53.7692 185L53.7693 90.8299C53.7693 79.7841 62.7236 70.8298 73.7693 70.8299L166.5 70.8302C177.546 70.8302 186.5 61.8759 186.5 50.8302Z" fill="#EDDD0C"/>
<path d="M686.5 100L539.885 100L482.5 100C471.454 100 462.5 108.954 462.5 120L462.5 340C462.5 351.046 471.454 360 482.5 360L686.5 360C697.546 360 706.5 351.046 706.5 340L706.5 120C706.5 108.954 697.546 100 686.5 100Z" fill="#FFF100"/>
</g>
<g filter="url(#filter0_d_5777_1396)">
<path d="M235.5 153.5C216.967 153.5 202 138.533 202 120C202 101.467 216.967 86.5 235.5 86.5C254.033 86.5 269 101.467 269 120C269 138.533 254.033 153.5 235.5 153.5Z" fill="#0D0D0D"/>
<path d="M253.413 115.03H246.841V124.948H253.413C256.137 124.948 258.402 122.684 258.402 119.959C258.402 117.214 256.137 115.03 253.413 115.03Z" fill="#FFF100"/>
<path d="M214.641 120C214.641 127.654 220.872 133.885 228.526 133.885C236.18 133.885 242.411 127.654 242.411 120C242.411 112.346 236.18 106.115 228.526 106.115C220.872 106.115 214.641 112.346 214.641 120Z" fill="#FFF100"/>
</g>
<path d="M294 98C294 92.4772 298.477 88 304 88H348C353.523 88 358 92.4772 358 98V142C358 147.523 353.523 152 348 152H304C298.477 152 294 147.523 294 142V98Z" fill="#0D0D0D"/>
<path d="M324.899 121.101L324.899 126.76C323.862 127.028 322.957 127.665 322.356 128.552C321.755 129.439 321.497 130.515 321.632 131.578C321.767 132.641 322.285 133.618 323.089 134.327C323.894 135.035 324.928 135.426 326 135.426C327.071 135.426 328.106 135.035 328.91 134.327C329.714 133.618 330.232 132.641 330.367 131.578C330.502 130.515 330.245 129.439 329.644 128.552C329.042 127.665 328.138 127.028 327.101 126.76L327.101 121.101L335.906 121.101L335.906 126.76C334.868 127.028 333.964 127.665 333.363 128.552C332.761 129.439 332.504 130.515 332.639 131.578C332.774 132.641 333.292 133.618 334.096 134.327C334.9 135.035 335.935 135.426 337.007 135.426C338.078 135.426 339.113 135.035 339.917 134.327C340.721 133.618 341.239 132.641 341.374 131.578C341.509 130.515 341.252 129.439 340.65 128.552C340.049 127.665 339.145 127.028 338.107 126.76L338.107 121.101C338.107 120.517 337.875 119.957 337.462 119.544C337.05 119.131 336.49 118.899 335.906 118.899L327.101 118.899L327.101 113.24C328.138 112.972 329.042 112.335 329.644 111.448C330.245 110.561 330.502 109.485 330.367 108.422C330.232 107.359 329.714 106.382 328.91 105.673C328.106 104.965 327.071 104.574 326 104.574C324.928 104.574 323.894 104.965 323.089 105.673C322.285 106.382 321.767 107.359 321.632 108.422C321.497 109.485 321.755 110.561 322.356 111.448C322.957 112.335 323.862 112.972 324.899 113.24L324.899 118.899L316.094 118.899C315.51 118.899 314.95 119.131 314.537 119.544C314.125 119.957 313.893 120.517 313.893 121.101L313.893 126.76C312.855 127.028 311.951 127.665 311.349 128.552C310.748 129.439 310.491 130.515 310.626 131.578C310.761 132.641 311.279 133.618 312.083 134.327C312.887 135.035 313.922 135.426 314.993 135.426C316.065 135.426 317.1 135.035 317.904 134.327C318.708 133.618 319.226 132.641 319.361 131.578C319.496 130.515 319.239 129.439 318.637 128.552C318.036 127.665 317.131 127.028 316.094 126.76L316.094 121.101L324.899 121.101ZM328.201 131.007C328.201 131.442 328.072 131.868 327.83 132.23C327.588 132.592 327.245 132.874 326.842 133.04C326.44 133.207 325.997 133.251 325.57 133.166C325.143 133.081 324.751 132.871 324.443 132.563C324.135 132.255 323.926 131.863 323.841 131.436C323.756 131.009 323.8 130.566 323.966 130.164C324.133 129.762 324.415 129.418 324.777 129.176C325.139 128.934 325.565 128.805 326 128.805C326.584 128.805 327.144 129.037 327.556 129.45C327.969 129.863 328.201 130.423 328.201 131.007ZM339.208 131.007C339.208 131.442 339.079 131.868 338.837 132.23C338.595 132.592 338.251 132.874 337.849 133.04C337.447 133.207 337.004 133.251 336.577 133.166C336.15 133.081 335.758 132.871 335.45 132.563C335.142 132.255 334.932 131.863 334.847 131.436C334.763 131.009 334.806 130.566 334.973 130.164C335.139 129.762 335.422 129.418 335.784 129.176C336.146 128.934 336.571 128.805 337.007 128.805C337.59 128.805 338.15 129.037 338.563 129.45C338.976 129.863 339.208 130.423 339.208 131.007ZM323.799 108.993C323.799 108.558 323.928 108.132 324.17 107.77C324.411 107.408 324.755 107.126 325.157 106.96C325.56 106.793 326.002 106.749 326.429 106.834C326.856 106.919 327.249 107.129 327.556 107.437C327.864 107.745 328.074 108.137 328.159 108.564C328.244 108.991 328.2 109.434 328.034 109.836C327.867 110.238 327.585 110.582 327.223 110.824C326.861 111.066 326.435 111.195 326 111.195C325.416 111.195 324.856 110.963 324.443 110.55C324.03 110.137 323.799 109.577 323.799 108.993ZM317.195 131.007C317.195 131.442 317.065 131.868 316.824 132.23C316.582 132.592 316.238 132.874 315.836 133.04C315.433 133.207 314.991 133.251 314.564 133.166C314.137 133.081 313.745 132.871 313.437 132.563C313.129 132.255 312.919 131.863 312.834 131.436C312.749 131.009 312.793 130.566 312.96 130.164C313.126 129.762 313.408 129.418 313.77 129.176C314.132 128.934 314.558 128.805 314.993 128.805C315.577 128.805 316.137 129.037 316.55 129.45C316.963 129.863 317.195 130.423 317.195 131.007Z" fill="#FFF100"/>
</g>
<defs>
<filter id="filter0_d_5777_1396" x="201" y="85.5" width="69" height="69" filterUnits="userSpaceOnUse" color-interpolation-filters="sRGB">
<feFlood flood-opacity="0" result="BackgroundImageFix"/>
<feColorMatrix in="SourceAlpha" type="matrix" values="0 0 0 0 0 0 0 0 0 0 0 0 0 0 0 0 0 0 127 0" result="hardAlpha"/>
<feOffset/>
<feGaussianBlur stdDeviation="0.5"/>
<feComposite in2="hardAlpha" operator="out"/>
<feColorMatrix type="matrix" values="0 0 0 0 0 0 0 0 0 0 0 0 0 0 0 0 0 0 0.17 0"/>
<feBlend mode="normal" in2="BackgroundImageFix" result="effect1_dropShadow_5777_1396"/>
<feBlend mode="normal" in="SourceGraphic" in2="effect1_dropShadow_5777_1396" result="shape"/>
</filter>
<clipPath id="clip0_5777_1396">
<rect width="560" height="240" fill="white"/>
</clipPath>
<clipPath id="clip1_5777_1396">
<rect width="560" height="240" fill="white"/>
</clipPath>
</defs>
</svg>
