<svg width="560" height="240" viewBox="0 0 560 240" fill="none" xmlns="http://www.w3.org/2000/svg">
<g clip-path="url(#clip0_5005_722)">
<rect width="560" height="240" fill="#FFF100"/>
<g clip-path="url(#clip1_5005_722)">
<rect width="560" height="240" fill="#FFF100"/>
<path d="M224 49.847L224 -0.999985C224 -12.0457 215.046 -21 204 -21L-26 -21C-37.0457 -21 -46 -12.0457 -46 -1.00001L-46 175C-46 186.046 -37.0457 195 -26 195L52.5714 195C63.6171 195 72.5714 186.046 72.5714 175L72.5714 89.8471C72.5714 78.8014 81.5257 69.8471 92.5714 69.8471L204 69.8471C215.046 69.8471 224 60.8927 224 49.847Z" fill="#EDDE00"/>
<path d="M472.584 123.352L505.5 123.352C516.546 123.352 525.5 114.397 525.5 103.352L525.5 66.9999C525.5 55.9542 516.546 46.9999 505.5 46.9999L454.5 46.9999C443.454 46.9999 434.5 38.0456 434.5 26.9999L434.5 -34.0001C434.5 -45.0458 443.454 -54.0001 454.5 -54.0001L583 -54.0001C594.046 -54.0001 603 -45.0457 603 -34.0001L603 241.5C603 252.546 594.046 261.5 583 261.5L335 261.5C323.954 261.5 315 252.546 315 241.5L315 206.5C315 195.454 323.954 186.5 335 186.5L432.584 186.5C443.629 186.5 452.584 177.546 452.584 166.5L452.584 143.352C452.584 132.306 461.538 123.352 472.584 123.352Z" fill="#EDDE00"/>
</g>
<path d="M279.313 151.685C278.474 151.685 277.64 151.465 276.904 151.041L269.236 146.501C268.091 145.86 268.649 145.634 269.027 145.503C270.554 144.969 270.864 144.848 272.494 143.922C272.666 143.824 272.89 143.859 273.065 143.962L278.956 147.458C279.169 147.573 279.471 147.573 279.668 147.458L302.638 134.199C302.851 134.079 302.989 133.831 302.989 133.578V107.073C302.989 106.808 302.851 106.572 302.633 106.44L279.673 93.1929C279.46 93.0664 279.178 93.0664 278.966 93.1929L256.009 106.44C255.787 106.567 255.646 106.814 255.646 107.067V133.573C255.646 133.826 255.783 134.067 256.002 134.188L262.292 137.822C265.707 139.529 267.795 137.517 267.795 135.493V109.332C267.795 108.958 268.088 108.671 268.461 108.671H271.371C271.733 108.671 272.032 108.958 272.032 109.332V135.505C272.032 140.058 269.548 142.674 265.23 142.674C263.902 142.674 262.856 142.674 259.935 141.237L253.909 137.764C252.42 136.902 251.5 135.292 251.5 133.573V107.067C251.5 105.342 252.42 103.732 253.909 102.881L276.902 89.6167C278.357 88.7944 280.289 88.7944 281.732 89.6167L304.696 102.887C306.179 103.744 307.105 105.348 307.105 107.073V133.578C307.105 135.298 306.179 136.902 304.696 137.764L281.732 151.029C280.996 151.454 280.162 151.673 279.311 151.673" fill="black"/>
<path d="M286.409 133.42C276.359 133.42 274.251 128.807 274.251 124.937C274.251 124.569 274.548 124.276 274.917 124.276H277.884C278.211 124.276 278.487 124.515 278.539 124.838C278.987 127.862 280.321 129.386 286.399 129.386C291.24 129.386 293.298 128.293 293.298 125.726C293.298 124.248 292.712 123.15 285.191 122.414C278.901 121.793 275.014 120.407 275.014 115.376C275.014 110.742 278.924 107.982 285.473 107.982C292.827 107.982 296.472 110.535 296.932 116.02C296.949 116.21 296.88 116.394 296.754 116.532C296.627 116.664 296.449 116.745 296.265 116.745H293.281C292.971 116.745 292.7 116.526 292.637 116.227C291.918 113.048 290.182 112.03 285.462 112.03C280.178 112.03 279.562 113.87 279.562 115.25C279.562 116.923 280.287 117.412 287.416 118.355C294.477 119.292 297.829 120.614 297.829 125.576C297.829 130.578 293.655 133.447 286.376 133.447" fill="black"/>
</g>
<defs>
<clipPath id="clip0_5005_722">
<rect width="560" height="240" fill="white"/>
</clipPath>
<clipPath id="clip1_5005_722">
<rect width="560" height="240" fill="white"/>
</clipPath>
</defs>
</svg>
