<svg xmlns="http://www.w3.org/2000/svg" width="367" height="206" fill="none" viewBox="0 0 367 206"><g clip-path="url(#clip0_4716_12437)"><rect width="367" height="206" fill="#FFF100"/><path fill="#EDDE00" d="M103.5 171.5L282 171.5C293.046 171.5 302 162.546 302 151.5L302 148.5C302 137.454 310.954 128.5 322 128.5L385 128.5L385 206L83.5 206L83.5 191.5C83.5 180.454 92.4543 171.5 103.5 171.5Z"/><path fill="#EDDE00" d="M379.5 64.9995L379.5 -1.00053L-4.99965 -1.00057L-4.99966 119.5L25.9999 119.5C37.0457 119.5 46 110.546 45.9999 99.4999L45.9998 45.4996C45.9998 34.4539 54.9541 25.4996 65.9998 25.4996L281.5 25.4996C292.546 25.4996 301.5 34.4538 301.5 45.4995L301.5 64.9996C301.5 76.0453 310.455 84.9996 321.5 84.9996L359.5 84.9996C370.546 84.9996 379.5 76.0452 379.5 64.9995Z"/><path fill="#FFF100" d="M330 174L437.693 174L477 174C488.046 174 497 182.954 497 194L497 256C497 267.046 488.046 276 477 276L330 276C318.954 276 310 267.046 310 256L310 194C310 182.954 318.954 174 330 174Z"/><circle cx="183.5" cy="103" r="33.5" fill="#000"/><path fill="#FFF100" d="M165.423 115.578L164.914 111.603C164.638 111.499 164.378 111.375 164.134 111.23C163.889 111.085 163.651 110.93 163.419 110.764L159.633 112.317L156.134 106.416L159.41 103.994C159.389 103.849 159.379 103.709 159.379 103.574V102.737C159.379 102.602 159.389 102.462 159.41 102.317L156.134 99.8943L159.633 93.9934L163.419 95.5463C163.652 95.3807 163.896 95.2254 164.15 95.0805C164.405 94.9355 164.659 94.8113 164.914 94.7078L165.423 90.7324H172.421L172.93 94.7078C173.206 94.8113 173.466 94.9355 173.71 95.0805C173.955 95.2254 174.193 95.3807 174.426 95.5463L178.211 93.9934L181.71 99.8943L178.434 102.317C178.455 102.462 178.466 102.602 178.466 102.737V103.574C178.466 103.709 178.444 103.849 178.402 103.994L181.679 106.416L178.179 112.317L174.426 110.764C174.192 110.93 173.948 111.085 173.694 111.23C173.439 111.375 173.185 111.499 172.93 111.603L172.421 115.578H165.423Z"/><circle cx="169.288" cy="103.155" r="5.846" fill="#000"/><path fill="#F6E900" stroke="#000" stroke-width=".875" d="M182.309 83.8C181.968 83.4582 181.5 83.3232 181.074 83.4137C180.636 83.5066 180.266 83.8347 180.155 84.3427C179.588 86.9403 180.312 89.7628 182.33 91.7808C184.527 93.9784 187.678 94.6411 190.455 93.7743L199.532 102.851C201.001 104.32 203.382 104.32 204.851 102.851C206.32 101.383 206.32 99.001 204.851 97.5322L195.774 88.4551C196.641 85.6782 195.978 82.5276 193.781 80.3301C191.763 78.312 188.94 77.5882 186.343 78.1548C185.832 78.2662 185.503 78.6436 185.403 79.0791C185.306 79.5067 185.428 79.9846 185.777 80.3329C186.59 81.1462 187.398 81.9633 188.207 82.7813C188.403 82.98 188.6 83.1787 188.796 83.3774C189.643 84.2331 189.642 85.6125 188.792 86.462L188.42 86.8339C187.571 87.6836 186.193 87.6836 185.343 86.8339L182.309 83.8Z"/><path fill="#FFF100" d="M179.725 117.552C179.725 117.151 180.051 116.826 180.452 116.826H186.276C186.678 116.826 187.003 117.151 187.003 117.552V125.146C187.003 125.548 186.678 125.873 186.276 125.873H180.452C180.051 125.873 179.725 125.548 179.725 125.146V117.552Z"/><path fill="#FFF100" d="M188.032 107.727C188.032 107.325 188.358 107 188.759 107H194.583C194.985 107 195.31 107.325 195.31 107.727V125.147C195.31 125.548 194.985 125.873 194.583 125.873H188.759C188.358 125.873 188.032 125.548 188.032 125.147V107.727Z"/><path fill="#FFF100" d="M196.339 112.605C196.339 112.204 196.664 111.878 197.066 111.878H202.89C203.291 111.878 203.617 112.204 203.617 112.605V125.146C203.617 125.548 203.291 125.873 202.89 125.873H197.066C196.664 125.873 196.339 125.548 196.339 125.146V112.605Z"/></g><defs><clipPath id="clip0_4716_12437"><rect width="367" height="206" fill="#fff"/></clipPath></defs></svg>