<svg xmlns="http://www.w3.org/2000/svg" width="560" height="240" fill="none" viewBox="0 0 560 240"><g clip-path="url(#clip0_4998_5654)"><rect width="560" height="240" fill="#FFF100"/><g clip-path="url(#clip1_4998_5654)"><rect width="560" height="240" fill="#FFF100"/><path fill="#EDDE00" d="M224 49.847L224 -0.999985C224 -12.0457 215.046 -21 204 -21L-26 -21C-37.0457 -21 -46 -12.0457 -46 -1.00001L-46 175C-46 186.046 -37.0457 195 -26 195L52.5714 195C63.6171 195 72.5714 186.046 72.5714 175L72.5714 89.8471C72.5714 78.8014 81.5257 69.8471 92.5714 69.8471L204 69.8471C215.046 69.8471 224 60.8927 224 49.847Z"/><path fill="#EDDE00" d="M472.584 123.352L505.5 123.352C516.546 123.352 525.5 114.397 525.5 103.352L525.5 66.9999C525.5 55.9542 516.546 46.9999 505.5 46.9999L454.5 46.9999C443.454 46.9999 434.5 38.0456 434.5 26.9999L434.5 -34.0001C434.5 -45.0458 443.454 -54.0001 454.5 -54.0001L583 -54.0001C594.046 -54.0001 603 -45.0457 603 -34.0001L603 241.5C603 252.546 594.046 261.5 583 261.5L335 261.5C323.954 261.5 315 252.546 315 241.5L315 206.5C315 195.454 323.954 186.5 335 186.5L432.584 186.5C443.629 186.5 452.584 177.546 452.584 166.5L452.584 143.352C452.584 132.306 461.538 123.352 472.584 123.352Z"/></g><path fill="#000" d="M218.172 134.742C216.504 132.963 216.455 132.886 216.755 132.549C217.23 132.016 237.501 113.463 237.787 113.293C238.039 113.147 240.523 114.347 241.067 114.876C241.275 115.079 239.66 116.805 230.85 125.794C225.095 131.667 220.273 136.5 220.144 136.527C220.01 136.557 219.123 135.751 218.172 134.737V134.742ZM307.756 134.559C307.597 134.4 307.534 133.41 307.534 131.044C307.534 129.233 307.487 127.75 307.428 127.75C307.37 127.75 306.906 128.114 306.398 128.559C305.186 129.62 304.125 129.966 302.348 129.881C298.389 129.691 296.023 126.268 296.023 120.732C296.023 117.273 296.84 114.878 298.582 113.229C300.405 111.505 302.972 111.049 305.105 112.07C305.699 112.355 306.422 112.84 306.713 113.15C307.004 113.459 307.303 113.712 307.378 113.712C307.454 113.712 307.54 113.328 307.57 112.857L307.625 112.002L312.217 111.901L312.17 123.288L312.124 134.675L310.051 134.725C308.591 134.761 307.912 134.71 307.756 134.554L307.756 134.559ZM305.59 125.478C308.141 124.175 308.373 118.118 305.943 116.261C305.059 115.587 303.533 115.503 302.679 116.084C301.423 116.937 300.695 118.632 300.695 120.706C300.695 124.493 303.041 126.78 305.59 125.477L305.59 125.478ZM213.626 130.014C212.727 129.11 212.159 128.4 212.216 128.252C212.318 127.985 223.97 118.566 224.187 118.573C224.456 118.583 227.198 120.667 227.198 120.861C227.198 121.065 215.485 131.526 215.254 131.526C215.185 131.526 214.452 130.845 213.624 130.012L213.626 130.014ZM340.009 129.815C338.47 129.481 337.27 128.786 336.085 127.543C334.42 125.797 333.663 123.674 333.667 120.766C333.674 116.791 335.376 113.671 338.336 112.216C339.438 111.673 339.622 111.639 341.49 111.639C343.266 111.639 343.581 111.69 344.506 112.123C347.323 113.443 349.065 116.913 348.925 120.925L348.872 122.437L343.749 122.484C340.932 122.511 338.556 122.602 338.471 122.688C338.22 122.939 339.055 124.641 339.711 125.217C341.147 126.477 343.183 126.398 345.122 125.006L345.944 124.416L346.656 125.226C347.047 125.672 347.582 126.31 347.845 126.646L348.323 127.255L347.518 127.976C346.097 129.248 343.782 130.108 341.874 130.071C341.467 130.063 340.628 129.947 340.009 129.812L340.009 129.815ZM344.156 119.245C344.431 119.04 344.435 118.933 344.2 118.047C343.562 115.649 341.38 114.645 339.765 116.004C339.127 116.541 338.797 117.141 338.508 118.291C338.329 118.999 338.336 119.174 338.543 119.306C338.948 119.562 343.802 119.509 344.156 119.245ZM269.878 129.659C267.483 128.768 266.164 126.113 266.685 123.235C267.049 121.23 267.946 120.029 269.653 119.261C270.869 118.714 273.745 118.577 275.191 118.998C275.739 119.157 276.227 119.287 276.275 119.287C276.509 119.287 276.565 118.633 276.387 117.963C276.165 117.124 275.669 116.511 274.872 116.085C274.064 115.655 272.045 115.719 270.473 116.224C269.733 116.462 269.122 116.57 269.041 116.478C268.841 116.251 267.943 113.622 267.943 113.264C267.943 112.58 271.068 111.711 273.602 111.69C276.594 111.666 278.541 112.409 279.728 114.027C280.96 115.706 280.991 115.928 280.991 123.155V129.634L278.937 129.685C277.807 129.713 276.81 129.665 276.722 129.577C276.634 129.489 276.528 129.151 276.487 128.826C276.446 128.501 276.372 128.195 276.323 128.146C276.274 128.096 275.946 128.308 275.595 128.617C274.497 129.581 273.925 129.787 272.172 129.85C271.096 129.889 270.326 129.824 269.877 129.657L269.878 129.659ZM275.213 126.078C276.147 125.543 276.582 124.689 276.582 123.391C276.582 122.106 276.356 121.952 274.332 121.847C273.044 121.781 272.826 121.818 272.265 122.201C271.405 122.787 271.154 123.335 271.235 124.459C271.339 125.919 271.973 126.457 273.612 126.472C274.226 126.478 274.734 126.353 275.213 126.078ZM319.263 129.677C318.27 129.359 316.966 128.042 316.498 126.884C316.09 125.873 316.084 125.744 316.083 118.925L316.083 111.994L320.654 111.893L320.708 117.883C320.756 123.21 320.797 123.936 321.081 124.455C322.02 126.175 324.48 126.161 325.406 124.432C325.787 123.72 325.804 123.469 325.86 117.793L325.918 111.893L330.481 111.994L330.527 120.612C330.562 126.935 330.519 129.298 330.366 129.482C330.205 129.676 329.684 129.722 328.069 129.683L325.981 129.632L325.925 128.822C325.894 128.377 325.801 127.943 325.718 127.86C325.636 127.776 325.216 128.051 324.785 128.471C323.656 129.573 322.833 129.897 321.212 129.88C320.47 129.872 319.592 129.779 319.263 129.674L319.263 129.677ZM355.546 129.735C354.481 129.396 353.807 128.81 353.302 127.782L352.799 126.756L352.681 115.866H351.997C351.006 115.866 350.886 115.617 350.946 113.68C350.997 112.034 351.008 111.996 351.448 111.947C352.781 111.797 352.708 111.927 352.708 109.69C352.708 108.35 352.781 107.586 352.924 107.444C353.23 107.137 357.132 107.145 357.332 107.453C357.412 107.576 357.518 108.609 357.567 109.747L357.657 111.817L360.998 111.92L360.947 113.848L360.896 115.776L357.567 115.879V120.462C357.567 126.233 357.448 126.03 360.537 125.551C360.873 125.498 360.9 125.61 360.948 127.257L361 129.018L360.139 129.412C359.199 129.841 356.483 130.031 355.545 129.733L355.546 129.735ZM248.957 129.506C248.909 129.38 248.89 124.133 248.916 117.848L248.962 106.42L253.822 106.431C258.377 106.441 258.754 106.467 259.851 106.846C263.051 107.952 264.799 110.303 265.023 113.798C265.251 117.368 263.631 120.298 260.697 121.62C259.167 122.309 257.997 122.527 255.815 122.527C254.492 122.527 253.899 122.595 253.758 122.765C253.634 122.914 253.542 124.246 253.511 126.32L253.462 129.636L251.254 129.686C249.587 129.724 249.024 129.68 248.957 129.506ZM258.14 117.868C259.468 117.255 260.216 116.026 260.202 114.479C260.179 111.987 258.944 110.899 255.916 110.702C253.44 110.542 253.551 110.372 253.551 114.33C253.551 116.149 253.6 117.766 253.66 117.922C253.828 118.361 257.158 118.32 258.14 117.867L258.14 117.868ZM284.886 129.479C284.739 129.302 284.695 126.829 284.729 120.616L284.775 111.998L287.011 111.947C288.678 111.909 289.283 111.955 289.393 112.127C289.473 112.254 289.54 112.783 289.542 113.302C289.545 114.227 289.78 114.562 289.982 113.928C290.123 113.483 291.303 112.298 291.926 111.976C292.211 111.828 292.845 111.661 293.334 111.603L294.224 111.497V116.555L293.46 116.682C292.187 116.894 291.369 117.311 290.707 118.085C289.677 119.288 289.545 120.054 289.545 124.82C289.545 127.377 289.472 129.166 289.359 129.377C289.191 129.69 288.965 129.725 287.131 129.725C285.626 129.725 285.036 129.661 284.886 129.48L284.886 129.479ZM209.383 125.668C208.679 124.882 208.237 124.246 208.332 124.158C208.823 123.699 213.889 120.186 214.056 120.188C214.329 120.192 216.774 122.288 216.774 122.519C216.774 122.802 211.287 127.025 210.919 127.025C210.742 127.025 210.051 126.414 209.383 125.668ZM205.891 122.085C204.883 121.065 204.763 120.874 204.991 120.662C205.319 120.357 221.425 109.963 221.752 109.84C222.009 109.747 224.24 111.097 224.24 111.347C224.24 111.525 207.731 123.087 207.33 123.189C207.17 123.23 206.567 122.766 205.891 122.083V122.085ZM216.632 120.443C215.967 119.891 215.426 119.344 215.43 119.228C215.434 119.111 216.022 118.606 216.735 118.105C217.449 117.603 220.646 115.316 223.843 113.021C227.038 110.726 229.784 108.848 229.945 108.848C230.375 108.848 232.552 110.106 232.482 110.315C232.381 110.618 218.408 121.443 218.116 121.443C217.964 121.444 217.296 120.994 216.631 120.442L216.632 120.443ZM202.647 118.822C201.853 117.982 201.738 117.78 201.945 117.59C202.125 117.427 212.101 111.534 213.305 110.88C213.504 110.771 215.619 112.297 215.551 112.5C215.464 112.762 204.212 119.826 203.879 119.826C203.72 119.826 203.163 119.374 202.64 118.822H202.647ZM226.767 118.889C226.037 118.365 225.411 117.851 225.376 117.748C225.327 117.6 231.945 112.1 233.444 111.041C233.736 110.835 233.965 110.904 235.217 111.571C236.008 111.992 236.654 112.422 236.652 112.527C236.649 112.795 228.769 119.724 228.401 119.792C228.233 119.821 227.497 119.416 226.767 118.892V118.889ZM199.96 115.975L199 115.003L199.426 114.727C199.66 114.575 204.417 111.981 209.996 108.961L220.138 103.472L221.108 103.948C221.642 104.209 222.078 104.512 222.078 104.62C222.078 104.768 201.223 116.946 200.971 116.946C200.944 116.946 200.489 116.508 199.961 115.974L199.96 115.975ZM215.557 111.075C215.087 110.722 214.703 110.339 214.703 110.225C214.704 110.111 216.605 108.898 218.928 107.529L223.151 105.042L224.236 105.62C224.832 105.938 225.32 106.259 225.32 106.334C225.32 106.547 217.035 111.727 216.709 111.721C216.546 111.718 216.029 111.427 215.558 111.074L215.557 111.075ZM224.019 109.998C223.45 109.647 222.985 109.265 222.988 109.148C222.991 108.952 225.868 107.025 226.34 106.903C226.557 106.847 228.492 107.868 228.649 108.121C228.696 108.197 228.595 108.384 228.424 108.536C227.839 109.057 225.44 110.648 225.247 110.643C225.141 110.64 224.588 110.35 224.019 109.998Z"/></g><defs><clipPath id="clip0_4998_5654"><rect width="560" height="240" fill="#fff"/></clipPath><clipPath id="clip1_4998_5654"><rect width="560" height="240" fill="#fff"/></clipPath></defs></svg>