<svg width="560" height="240" viewBox="0 0 560 240" fill="none" xmlns="http://www.w3.org/2000/svg">
<g clip-path="url(#clip0_4723_17937)">
<rect width="560" height="240" fill="#FFF100"/>
<g clip-path="url(#clip1_4723_17937)">
<rect width="560" height="240" fill="#FFF100"/>
<path d="M134.5 190.5L361 190.5C372.046 190.5 381 181.546 381 170.5L381 54.9999C381.001 43.9543 389.955 35 401 35L598.5 35C609.546 35 618.5 43.9543 618.5 55.0001L618.5 309C618.5 320.046 609.545 329 598.5 329L134.5 329C123.454 329 114.5 320.046 114.5 309L114.5 210.5C114.5 199.454 123.454 190.5 134.5 190.5Z" fill="#EDDE00"/>
<path d="M186.5 50.8302L186.5 -21.9996C186.5 -33.0452 177.546 -41.9995 166.5 -41.9996L-27.9999 -42C-39.0457 -42 -48 -33.0457 -48 -22L-48 185C-48 196.046 -39.0457 205 -28 205L33.7692 205C44.8149 205 53.7692 196.046 53.7692 185L53.7693 90.8299C53.7693 79.7841 62.7236 70.8298 73.7693 70.8299L166.5 70.8302C177.546 70.8302 186.5 61.8759 186.5 50.8302Z" fill="#EDDE00"/>
<path d="M686.5 100L539.885 100L482.5 100C471.454 100 462.5 108.954 462.5 120L462.5 340C462.5 351.046 471.454 360 482.5 360L686.5 360C697.546 360 706.5 351.046 706.5 340L706.5 120C706.5 108.954 697.546 100 686.5 100Z" fill="#FFF100"/>
</g>
</g>
<defs>
<clipPath id="clip0_4723_17937">
<rect width="560" height="240" fill="white"/>
</clipPath>
<clipPath id="clip1_4723_17937">
<rect width="560" height="240" fill="white"/>
</clipPath>
</defs>
</svg>
