<svg width="560" height="240" viewBox="0 0 560 240" fill="none" xmlns="http://www.w3.org/2000/svg">
<g clip-path="url(#clip0_4723_17959)">
<rect width="560" height="240" fill="#FFF100"/>
<g clip-path="url(#clip1_4723_17959)">
<rect width="560" height="240" fill="#FFF100"/>
<path d="M224 49.847L224 -0.999985C224 -12.0457 215.046 -21 204 -21L-26 -21C-37.0457 -21 -46 -12.0457 -46 -1.00001L-46 175C-46 186.046 -37.0457 195 -26 195L52.5714 195C63.6171 195 72.5714 186.046 72.5714 175L72.5714 89.8471C72.5714 78.8014 81.5257 69.8471 92.5714 69.8471L204 69.8471C215.046 69.8471 224 60.8927 224 49.847Z" fill="#EDDE00"/>
<path d="M472.584 123.352L505.5 123.352C516.546 123.352 525.5 114.397 525.5 103.352L525.5 66.9999C525.5 55.9542 516.546 46.9999 505.5 46.9999L454.5 46.9999C443.454 46.9999 434.5 38.0456 434.5 26.9999L434.5 -34.0001C434.5 -45.0458 443.454 -54.0001 454.5 -54.0001L583 -54.0001C594.046 -54.0001 603 -45.0457 603 -34.0001L603 241.5C603 252.546 594.046 261.5 583 261.5L335 261.5C323.954 261.5 315 252.546 315 241.5L315 206.5C315 195.454 323.954 186.5 335 186.5L432.584 186.5C443.629 186.5 452.584 177.546 452.584 166.5L452.584 143.352C452.584 132.306 461.538 123.352 472.584 123.352Z" fill="#EDDE00"/>
</g>
</g>
<defs>
<clipPath id="clip0_4723_17959">
<rect width="560" height="240" fill="white"/>
</clipPath>
<clipPath id="clip1_4723_17959">
<rect width="560" height="240" fill="white"/>
</clipPath>
</defs>
</svg>
