<svg width="560" height="240" viewBox="0 0 560 240" fill="none" xmlns="http://www.w3.org/2000/svg">
<g clip-path="url(#clip0_5004_5268)">
<rect width="560" height="240" fill="#FFF100"/>
<g clip-path="url(#clip1_5004_5268)">
<rect width="560" height="240" fill="#FFF100"/>
<path d="M-137 100L9.61491 100L67 100C78.0457 100 87 108.954 87 120L87 340C87 351.046 78.0457 360 67 360L-137 360C-148.046 360 -157 351.046 -157 340L-157 120C-157 108.954 -148.046 100 -137 100Z" fill="#FFF100"/>
<path d="M231 21.9441L231 -24C231 -35.0457 222.046 -44 211 -44L-11 -44C-22.0457 -44 -31 -35.0457 -31 -24L-31 191C-31 202.046 -22.0457 211 -11 211L76.5 211C87.5457 211 96.5 202.046 96.5 191L96.5 61.9441C96.5 50.8984 105.454 41.9441 116.5 41.9441L211 41.9441C222.046 41.9441 231 32.9898 231 21.9441Z" fill="#EDDE00"/>
<path d="M423.479 197.576L289 197.576C277.954 197.576 269 206.53 269 217.576L269 256C269 267.046 277.954 276 289 276L611.5 276C622.546 276 631.5 267.046 631.5 256L631.5 -28C631.5 -39.0457 622.546 -48 611.5 -48L504.424 -48C493.378 -48 484.424 -39.0457 484.424 -28L484.424 58.5088C484.424 69.5545 475.47 78.5088 464.424 78.5088L463.479 78.5088C452.433 78.5088 443.479 87.4631 443.479 98.5088L443.479 177.576C443.479 188.622 434.525 197.576 423.479 197.576Z" fill="#EDDE00"/>
<path d="M514 114C502.954 114 494 122.954 494 134V294C494 305.046 502.954 314 514 314H612C623.046 314 632 305.046 632 294L632 134C632 122.954 623.046 114 612 114L514 114Z" fill="#FFF100"/>
</g>
<g filter="url(#filter0_d_5004_5268)">
<rect x="247" y="86" width="67" height="67" rx="33.5" fill="black"/>
<path d="M291.214 133.675V140.5H269.786V133.675C269.786 130.777 274.586 128.425 280.5 128.425C286.414 128.425 291.214 130.777 291.214 133.675ZM280.5 106.9C284.194 106.9 287.737 108.338 290.349 110.898C292.961 113.458 294.429 116.93 294.429 120.55C294.429 123.175 293.679 125.632 292.371 127.711L289.071 124.834C289.757 123.553 290.143 122.083 290.143 120.55C290.143 115.3 285.857 111.1 280.5 111.1C275.143 111.1 270.857 115.3 270.857 120.55C270.857 122.083 271.243 123.553 271.929 124.834L268.629 127.711C267.321 125.632 266.571 123.175 266.571 120.55C266.571 116.93 268.039 113.458 270.651 110.898C273.263 108.338 276.806 106.9 280.5 106.9ZM280.5 98.5C286.467 98.5 292.19 100.823 296.41 104.958C300.629 109.093 303 114.702 303 120.55C303 125.338 301.436 129.769 298.8 133.381L295.586 130.546C297.557 127.69 298.714 124.246 298.714 120.55C298.714 115.816 296.795 111.276 293.379 107.928C289.964 104.581 285.331 102.7 280.5 102.7C275.669 102.7 271.036 104.581 267.621 107.928C264.205 111.276 262.286 115.816 262.286 120.55C262.286 124.246 263.443 127.69 265.414 130.546L262.2 133.381C259.464 129.64 257.995 125.152 258 120.55C258 114.702 260.371 109.093 264.59 104.958C268.81 100.823 274.533 98.5 280.5 98.5ZM280.5 115.3C281.921 115.3 283.283 115.853 284.288 116.838C285.293 117.822 285.857 119.158 285.857 120.55C285.857 121.942 285.293 123.278 284.288 124.262C283.283 125.247 281.921 125.8 280.5 125.8C279.079 125.8 277.717 125.247 276.712 124.262C275.707 123.278 275.143 121.942 275.143 120.55C275.143 119.158 275.707 117.822 276.712 116.838C277.717 115.853 279.079 115.3 280.5 115.3Z" fill="#FFF100"/>
</g>
</g>
<defs>
<filter id="filter0_d_5004_5268" x="245.5" y="85" width="69.5" height="69.5" filterUnits="userSpaceOnUse" color-interpolation-filters="sRGB">
<feFlood flood-opacity="0" result="BackgroundImageFix"/>
<feColorMatrix in="SourceAlpha" type="matrix" values="0 0 0 0 0 0 0 0 0 0 0 0 0 0 0 0 0 0 127 0" result="hardAlpha"/>
<feOffset/>
<feGaussianBlur stdDeviation="0.5"/>
<feComposite in2="hardAlpha" operator="out"/>
<feColorMatrix type="matrix" values="0 0 0 0 0 0 0 0 0 0 0 0 0 0 0 0 0 0 0.17 0"/>
<feBlend mode="normal" in2="BackgroundImageFix" result="effect1_dropShadow_5004_5268"/>
<feBlend mode="normal" in="SourceGraphic" in2="effect1_dropShadow_5004_5268" result="shape"/>
</filter>
<clipPath id="clip0_5004_5268">
<rect width="560" height="240" fill="white"/>
</clipPath>
<clipPath id="clip1_5004_5268">
<rect width="560" height="240" fill="white"/>
</clipPath>
</defs>
</svg>
