<svg xmlns="http://www.w3.org/2000/svg" width="560" height="240" fill="none" viewBox="0 0 560 240"><g clip-path="url(#clip0_6672_25234)"><rect width="560" height="240" fill="#FFF100"/><g clip-path="url(#clip1_6672_25234)"><rect width="560" height="240" fill="#FFF100"/><path fill="#EDDD0C" d="M134.5 190.5L361 190.5C372.046 190.5 381 181.546 381 170.5L381 54.9999C381.001 43.9543 389.955 35 401 35L598.5 35C609.546 35 618.5 43.9543 618.5 55.0001L618.5 309C618.5 320.046 609.545 329 598.5 329L134.5 329C123.454 329 114.5 320.046 114.5 309L114.5 210.5C114.5 199.454 123.454 190.5 134.5 190.5Z"/><path fill="#EDDD0C" d="M186.5 50.8302L186.5 -21.9996C186.5 -33.0452 177.546 -41.9995 166.5 -41.9996L-27.9999 -42C-39.0457 -42 -48 -33.0457 -48 -22L-48 185C-48 196.046 -39.0457 205 -28 205L33.7692 205C44.8149 205 53.7692 196.046 53.7692 185L53.7693 90.8299C53.7693 79.7841 62.7236 70.8298 73.7693 70.8299L166.5 70.8302C177.546 70.8302 186.5 61.8759 186.5 50.8302Z"/><path fill="#FFF100" d="M686.5 100L539.885 100L482.5 100C471.454 100 462.5 108.954 462.5 120L462.5 340C462.5 351.046 471.454 360 482.5 360L686.5 360C697.546 360 706.5 351.046 706.5 340L706.5 120C706.5 108.954 697.546 100 686.5 100Z"/></g><path fill="#000" d="M295.173 88L264.703 88.0263C255.205 88.4637 248.381 95.4156 248 104.887V135.112C248.262 144.57 255.394 151.634 264.831 152L295.401 151.995C303.991 151.791 311.208 145.133 312 136.577V103.422C311.18 94.7579 303.858 88.1159 295.173 88ZM284.105 136.927C281.631 141.53 275.034 141.881 272.084 137.568C268.986 133.039 271.992 126.835 277.471 126.514C282.976 126.192 286.724 132.052 284.104 136.926L284.105 136.927ZM301.996 120.248C300.687 128.575 294.256 135.426 286.077 137.389C286.32 136.632 286.595 135.859 286.737 135.074C287.104 133.035 286.683 130.888 285.697 129.08C287.775 128.142 289.658 126.919 291.104 125.138C296.548 118.431 293.996 108.273 285.997 105.048C277.649 101.683 268.687 107.549 268.198 116.403L268.204 144.851C267.848 147.697 265.254 147.878 262.901 147.667C261.303 147.524 260.142 146.194 260.071 144.619V115.553C260.639 106.298 267.426 98.3139 276.479 96.3106C291.131 93.0684 304.319 105.456 301.995 120.248H301.996Z"/></g><defs><clipPath id="clip0_6672_25234"><rect width="560" height="240" fill="#fff"/></clipPath><clipPath id="clip1_6672_25234"><rect width="560" height="240" fill="#fff"/></clipPath></defs></svg>