<svg width="560" height="240" viewBox="0 0 560 240" fill="none" xmlns="http://www.w3.org/2000/svg">
<g clip-path="url(#clip0_5276_967)">
<rect width="560" height="240" fill="#FFF100"/>
<g clip-path="url(#clip1_5276_967)">
<rect width="560" height="240" fill="#FFF100"/>
<path d="M224 49.847L224 -0.999985C224 -12.0457 215.046 -21 204 -21L-26 -21C-37.0457 -21 -46 -12.0457 -46 -1.00001L-46 175C-46 186.046 -37.0457 195 -26 195L52.5714 195C63.6171 195 72.5714 186.046 72.5714 175L72.5714 89.8471C72.5714 78.8014 81.5257 69.8471 92.5714 69.8471L204 69.8471C215.046 69.8471 224 60.8927 224 49.847Z" fill="#EDDE00"/>
<path d="M472.584 123.352L505.5 123.352C516.546 123.352 525.5 114.397 525.5 103.352L525.5 66.9999C525.5 55.9542 516.546 46.9999 505.5 46.9999L454.5 46.9999C443.454 46.9999 434.5 38.0456 434.5 26.9999L434.5 -34.0001C434.5 -45.0458 443.454 -54.0001 454.5 -54.0001L583 -54.0001C594.046 -54.0001 603 -45.0457 603 -34.0001L603 241.5C603 252.546 594.046 261.5 583 261.5L335 261.5C323.954 261.5 315 252.546 315 241.5L315 206.5C315 195.454 323.954 186.5 335 186.5L432.584 186.5C443.629 186.5 452.584 177.546 452.584 166.5L452.584 143.352C452.584 132.306 461.538 123.352 472.584 123.352Z" fill="#EDDE00"/>
</g>
<path d="M196.992 128.73C195.336 128.73 194.017 128.301 193.036 127.442C192.055 126.568 191.564 125.372 191.564 123.854H193.841C193.841 124.743 194.125 125.441 194.692 125.947C195.259 126.453 196.026 126.706 196.992 126.706C197.912 126.706 198.64 126.453 199.177 125.947C199.729 125.426 200.005 124.736 200.005 123.877C200.005 123.233 199.829 122.673 199.476 122.198C199.123 121.707 198.625 121.378 197.981 121.209L195.497 120.542C194.408 120.235 193.542 119.683 192.898 118.886C192.269 118.073 191.955 117.115 191.955 116.011C191.955 115.106 192.154 114.317 192.553 113.642C192.967 112.952 193.542 112.423 194.278 112.055C195.014 111.672 195.865 111.48 196.831 111.48C197.812 111.48 198.671 111.672 199.407 112.055C200.158 112.423 200.741 112.944 201.155 113.619C201.569 114.294 201.776 115.076 201.776 115.965H199.522C199.522 115.229 199.269 114.631 198.763 114.171C198.272 113.711 197.628 113.481 196.831 113.481C196.034 113.481 195.39 113.711 194.899 114.171C194.424 114.631 194.186 115.229 194.186 115.965C194.186 116.563 194.347 117.069 194.669 117.483C194.991 117.882 195.443 118.165 196.026 118.334L198.579 119.024C199.729 119.331 200.626 119.921 201.27 120.795C201.914 121.654 202.236 122.681 202.236 123.877C202.236 124.858 202.021 125.717 201.592 126.453C201.163 127.174 200.549 127.733 199.752 128.132C198.97 128.531 198.05 128.73 196.992 128.73ZM206.022 128.5V111.71H215.797V113.757H208.276V118.748H214.992V120.726H208.276V126.453H215.797V128.5H206.022ZM220.526 128.5V111.71H222.803V126.43H230.278V128.5H220.526ZM233.604 128.5V111.71H243.379V113.757H235.858V118.748H242.574V120.726H235.858V126.453H243.379V128.5H233.604ZM252.248 128.73C250.699 128.73 249.465 128.301 248.545 127.442C247.64 126.568 247.188 125.372 247.188 123.854V116.333C247.188 114.83 247.64 113.65 248.545 112.791C249.465 111.917 250.699 111.48 252.248 111.48C253.781 111.48 255 111.917 255.905 112.791C256.825 113.665 257.285 114.846 257.285 116.333H255.008C255.008 115.428 254.763 114.731 254.272 114.24C253.781 113.749 253.107 113.504 252.248 113.504C251.374 113.504 250.692 113.749 250.201 114.24C249.71 114.731 249.465 115.428 249.465 116.333V123.854C249.465 124.774 249.71 125.479 250.201 125.97C250.692 126.461 251.374 126.706 252.248 126.706C253.107 126.706 253.781 126.461 254.272 125.97C254.763 125.479 255.008 124.774 255.008 123.854H257.285C257.285 125.357 256.825 126.545 255.905 127.419C255 128.293 253.781 128.73 252.248 128.73ZM264.728 128.5V113.78H260.174V111.71H271.536V113.78H267.005V128.5H264.728ZM292.264 128.73C290.961 128.73 289.926 128.37 289.159 127.649C288.408 126.913 288.032 125.955 288.032 124.774C288.032 123.593 288.423 122.643 289.205 121.922C290.002 121.201 291.045 120.841 292.333 120.841H296.036V119.875C296.036 118.326 295.177 117.552 293.46 117.552C292.693 117.552 292.072 117.698 291.597 117.989C291.137 118.265 290.892 118.656 290.861 119.162H288.607C288.684 118.135 289.151 117.291 290.01 116.632C290.869 115.957 292.019 115.62 293.46 115.62C295.009 115.62 296.205 115.988 297.048 116.724C297.891 117.46 298.313 118.495 298.313 119.829V128.5H296.082V126.177H296.036C295.929 126.959 295.538 127.58 294.863 128.04C294.204 128.5 293.337 128.73 292.264 128.73ZM292.862 126.821C293.828 126.821 294.595 126.591 295.162 126.131C295.745 125.656 296.036 125.012 296.036 124.199V122.52H292.54C291.881 122.52 291.344 122.719 290.93 123.118C290.531 123.501 290.332 124.015 290.332 124.659C290.332 125.318 290.554 125.847 290.999 126.246C291.444 126.629 292.065 126.821 292.862 126.821ZM307.228 119.139C306.584 119.139 306.093 118.978 305.756 118.656C305.419 118.334 305.25 117.905 305.25 117.368C305.25 116.847 305.419 116.425 305.756 116.103C306.093 115.781 306.584 115.62 307.228 115.62C307.872 115.62 308.363 115.781 308.7 116.103C309.037 116.425 309.206 116.847 309.206 117.368C309.206 117.905 309.037 118.334 308.7 118.656C308.363 118.978 307.872 119.139 307.228 119.139ZM307.228 128.73C306.584 128.73 306.093 128.569 305.756 128.247C305.419 127.925 305.25 127.503 305.25 126.982C305.25 126.445 305.419 126.016 305.756 125.694C306.093 125.372 306.584 125.211 307.228 125.211C307.872 125.211 308.363 125.372 308.7 125.694C309.037 126.016 309.206 126.445 309.206 126.982C309.206 127.503 309.037 127.925 308.7 128.247C308.363 128.569 307.872 128.73 307.228 128.73ZM337.018 128.5V124.912H329.451V121.439L335.592 111.71H338.168L331.705 121.968V122.865H337.018V118.84H339.295V128.5H337.018ZM343.61 128.5V126.407L349.314 120.381C350.05 119.614 350.572 118.917 350.878 118.288C351.2 117.644 351.361 117.015 351.361 116.402C351.361 115.528 351.108 114.83 350.602 114.309C350.096 113.772 349.414 113.504 348.555 113.504C347.666 113.504 346.961 113.772 346.439 114.309C345.918 114.846 345.657 115.574 345.657 116.494H343.38C343.411 114.961 343.894 113.742 344.829 112.837C345.78 111.932 347.022 111.48 348.555 111.48C350.119 111.48 351.361 111.925 352.281 112.814C353.217 113.703 353.684 114.892 353.684 116.379C353.684 117.192 353.47 118.043 353.04 118.932C352.611 119.806 351.883 120.772 350.855 121.83L346.393 126.43H353.891V128.5H343.61ZM362.162 119.162C361.641 119.162 361.212 119.001 360.874 118.679C360.552 118.342 360.391 117.912 360.391 117.391C360.391 116.885 360.56 116.463 360.897 116.126C361.235 115.789 361.656 115.62 362.162 115.62H362.622C363.128 115.62 363.55 115.789 363.887 116.126C364.225 116.463 364.393 116.885 364.393 117.391C364.393 117.912 364.225 118.342 363.887 118.679C363.565 119.001 363.144 119.162 362.622 119.162H362.162ZM360.092 132.18L361.334 125.142H364.025L362.392 132.18H360.092Z" fill="black"/>
</g>
<defs>
<clipPath id="clip0_5276_967">
<rect width="560" height="240" fill="white"/>
</clipPath>
<clipPath id="clip1_5276_967">
<rect width="560" height="240" fill="white"/>
</clipPath>
</defs>
</svg>
