<svg width="560" height="240" viewBox="0 0 560 240" fill="none" xmlns="http://www.w3.org/2000/svg">
<g clip-path="url(#clip0_6570_22198)">
<rect width="560" height="240" fill="#FFF100"/>
<g clip-path="url(#clip1_6570_22198)">
<rect width="560" height="240" fill="#FFF100"/>
<path d="M224 49.847L224 -0.999985C224 -12.0457 215.046 -21 204 -21L-26 -21C-37.0457 -21 -46 -12.0457 -46 -1.00001L-46 175C-46 186.046 -37.0457 195 -26 195L52.5714 195C63.6171 195 72.5714 186.046 72.5714 175L72.5714 89.8471C72.5714 78.8014 81.5257 69.8471 92.5714 69.8471L204 69.8471C215.046 69.8471 224 60.8927 224 49.847Z" fill="#EDDD0C"/>
<path d="M472.584 123.352L505.5 123.352C516.546 123.352 525.5 114.397 525.5 103.352L525.5 66.9999C525.5 55.9542 516.546 46.9999 505.5 46.9999L454.5 46.9999C443.454 46.9999 434.5 38.0456 434.5 26.9999L434.5 -34.0001C434.5 -45.0458 443.454 -54.0001 454.5 -54.0001L583 -54.0001C594.046 -54.0001 603 -45.0457 603 -34.0001L603 241.5C603 252.546 594.046 261.5 583 261.5L335 261.5C323.954 261.5 315 252.546 315 241.5L315 206.5C315 195.454 323.954 186.5 335 186.5L432.584 186.5C443.629 186.5 452.584 177.546 452.584 166.5L452.584 143.352C452.584 132.306 461.538 123.352 472.584 123.352Z" fill="#EDDD0C"/>
</g>
<path d="M264.462 135.692H241.385V150.462H264.462V135.692Z" fill="#FFEF00"/>
<path d="M254.391 122.769C254.391 122.709 254.386 119.428 254.382 119.368H267.078V152.289H234.152V119.368H246.849C246.849 119.428 246.84 122.709 246.84 122.769M261.882 148.768H264.143L260.714 137.114H257.275L254.451 148.768H256.643L257.215 146.174H261.134L261.877 148.768H261.882ZM249.868 148.768H252.032L254.811 137.114H252.674L250.971 145.145H250.943L249.328 137.114H247.288L245.488 145.048H245.46L243.969 137.114H241.791L244.302 148.768H246.508L248.238 140.834H248.266L249.868 148.768ZM258.586 139.985H259.505L260.598 144.263H257.635L258.586 139.985Z" fill="black"/>
<path d="M233.077 100.92C233.077 105.812 229.016 110.151 223.846 110.151H205.385V119.381H200.77V87.0737H223.846C228.785 87.0737 232.939 91.1814 233.077 96.3045V100.92ZM228.462 96.3045C228.462 93.766 226.385 91.6891 223.846 91.6891H205.385V105.535H223.846C226.385 105.535 228.462 103.458 228.462 100.92V96.3045Z" fill="black"/>
<path d="M252.923 109.228V119.381H248.308V109.228L234.462 93.9968V87.0737H239.077V92.1045L250.616 104.797L262.154 92.1045V87.0737H266.77V93.9968L252.923 109.228Z" fill="black"/>
<path d="M334.5 153.5C315.967 153.5 301 138.533 301 120C301 101.467 315.967 86.5 334.5 86.5C353.033 86.5 368 101.467 368 120C368 138.533 353.033 153.5 334.5 153.5Z" fill="#0D0D0D"/>
<path d="M352.413 115.03H345.841V124.948H352.413C355.137 124.948 357.402 122.684 357.402 119.959C357.402 117.214 355.137 115.03 352.413 115.03Z" fill="#FFF100"/>
<path d="M313.642 120C313.642 127.654 319.873 133.885 327.526 133.885C335.18 133.885 341.411 127.654 341.411 120C341.411 112.346 335.18 106.115 327.526 106.115C319.873 106.115 313.642 112.346 313.642 120Z" fill="#FFF100"/>
</g>
<defs>
<clipPath id="clip0_6570_22198">
<rect width="560" height="240" fill="white"/>
</clipPath>
<clipPath id="clip1_6570_22198">
<rect width="560" height="240" fill="white"/>
</clipPath>
</defs>
</svg>
