<svg width="1200" height="515" viewBox="0 0 1200 515" fill="none" xmlns="http://www.w3.org/2000/svg">
<g clip-path="url(#clip0_15020_22551)">
<rect width="1200" height="515" fill="url(#paint0_linear_15020_22551)"/>
<g clip-path="url(#clip1_15020_22551)">
<rect width="1200" height="515" fill="url(#paint1_linear_15020_22551)"/>
<path d="M794.496 -399.098C794.496 -399.924 793.826 -400.594 792.999 -400.594C792.173 -400.594 791.503 -399.924 791.503 -399.098L792.999 -399.098L794.496 -399.098ZM791.942 89.4604C792.526 90.0447 793.474 90.0447 794.058 89.4604L803.58 79.938C804.165 79.3536 804.165 78.4062 803.58 77.8219C802.996 77.2376 802.049 77.2376 801.464 77.8219L793 86.2863L784.536 77.8219C783.951 77.2376 783.004 77.2376 782.42 77.8219C781.835 78.4062 781.835 79.3537 782.42 79.938L791.942 89.4604ZM792.999 -399.098L791.503 -399.098L791.504 88.4023L793 88.4023L794.496 88.4023L794.496 -399.098L792.999 -399.098Z" fill="#F0DF09"/>
<path d="M534.999 -473.862L619.612 -473.862C655.51 -473.862 684.612 -444.761 684.612 -408.862L684.612 -199C684.612 -163.102 713.713 -134 749.612 -134L816 -134C851.899 -134 881 -104.899 881 -69L881 108.5C881 144.398 910.102 173.5 946 173.5L1208 173.5" stroke="#F0DF09" stroke-width="2.9926"/>
<path d="M603 749.902L782.688 749.902C818.586 749.902 847.688 720.801 847.688 684.902L847.688 496.402C847.688 460.504 876.789 431.402 912.688 431.402L985 431.402C1020.9 431.402 1050 402.301 1050 366.402L1050 -148.098" stroke="#F0DF09" stroke-width="2.9926"/>
<path d="M372 631.403L372 512.5C372 476.602 342.898 447.5 307 447.5L166 447.501C130.102 447.501 101 418.399 101 382.501L101 149.965C101 114.066 130.102 84.9648 166 84.9648L483.244 84.9649C519.142 84.9649 548.244 55.8634 548.244 19.9649L548.244 -373.097C548.244 -408.996 577.345 -438.097 613.244 -438.097L793 -438.097" stroke="#F0DF09" stroke-width="2.9926"/>
<rect x="92.9619" y="245.866" width="16.0762" height="38.0762" rx="8.0381" fill="#D4C50B" stroke="#F0DF09" stroke-width="1.92382"/>
<path d="M1115.4 127.28C1114.71 127.28 1114.15 127.075 1113.72 126.664C1113.31 126.253 1113.1 125.721 1113.1 125.068C1113.1 124.377 1113.31 123.817 1113.72 123.388C1114.15 122.959 1114.71 122.744 1115.4 122.744C1116.09 122.744 1116.64 122.959 1117.05 123.388C1117.48 123.817 1117.7 124.377 1117.7 125.068C1117.7 125.721 1117.48 126.253 1117.05 126.664C1116.64 127.075 1116.09 127.28 1115.4 127.28ZM1128.75 124.116L1126.81 122.744L1128.63 120.14C1128.88 119.804 1129.2 119.393 1129.61 118.908C1130.04 118.423 1130.44 117.993 1130.82 117.62C1130.29 117.545 1129.74 117.433 1129.17 117.284C1128.59 117.135 1128.13 116.995 1127.79 116.864L1124.8 115.744L1125.58 113.532L1128.61 114.652C1128.92 114.764 1129.34 114.941 1129.87 115.184C1130.39 115.427 1130.86 115.679 1131.29 115.94C1131.2 115.455 1131.13 114.96 1131.07 114.456C1131.03 113.933 1131.01 113.495 1131.01 113.14V109.64H1133.37V113.14C1133.37 113.495 1133.34 113.933 1133.28 114.456C1133.23 114.96 1133.15 115.455 1133.06 115.94C1133.51 115.679 1133.98 115.427 1134.49 115.184C1135.01 114.941 1135.44 114.764 1135.77 114.652L1138.8 113.532L1139.58 115.744L1136.59 116.864C1136.25 116.995 1135.79 117.135 1135.21 117.284C1134.63 117.433 1134.08 117.545 1133.56 117.62C1133.93 117.993 1134.34 118.432 1134.77 118.936C1135.19 119.421 1135.52 119.823 1135.75 120.14L1137.57 122.744L1135.63 124.116L1133.81 121.484C1133.59 121.167 1133.32 120.728 1133 120.168C1132.68 119.608 1132.41 119.085 1132.19 118.6C1131.97 119.085 1131.69 119.608 1131.38 120.168C1131.06 120.709 1130.79 121.148 1130.57 121.484L1128.75 124.116Z" fill="#F3E223"/>
<path d="M548.493 881.278C548.493 882.104 549.163 882.774 549.989 882.774C550.815 882.774 551.485 882.104 551.485 881.278L549.989 881.278L548.493 881.278ZM551.046 392.72C550.462 392.135 549.515 392.135 548.93 392.72L539.408 402.242C538.823 402.827 538.823 403.774 539.408 404.358C539.992 404.943 540.94 404.943 541.524 404.358L549.988 395.894L558.453 404.358C559.037 404.943 559.984 404.943 560.569 404.358C561.153 403.774 561.153 402.827 560.569 402.242L551.046 392.72ZM549.989 881.278L551.485 881.278L551.485 393.778L549.988 393.778L548.492 393.778L548.493 881.278L549.989 881.278Z" fill="#F0DF09"/>
</g>
<g clip-path="url(#clip2_15020_22551)">
<rect x="416.299" y="190.1" width="185.9" height="117.7" rx="10" fill="#FFFCC2"/>
<path d="M416.299 196.478C416.299 192.955 419.155 190.1 422.677 190.1H595.821C599.343 190.1 602.199 192.955 602.199 196.478V210.1H416.299V196.478Z" fill="#FFFCC2"/>
<path d="M416.299 196.478C416.299 192.955 419.155 190.1 422.677 190.1H595.821C599.343 190.1 602.199 192.955 602.199 196.478V210.1H416.299V196.478Z" stroke="#978C00" stroke-width="3.21" stroke-miterlimit="10"/>
<path d="M427.299 203.1C428.956 203.1 430.299 201.757 430.299 200.1C430.299 198.443 428.956 197.1 427.299 197.1C425.642 197.1 424.299 198.443 424.299 200.1C424.299 201.757 425.642 203.1 427.299 203.1Z" fill="#FFFCC2" stroke="#978C00" stroke-width="3.21" stroke-miterlimit="10"/>
<path d="M438.299 203.1C439.956 203.1 441.299 201.757 441.299 200.1C441.299 198.443 439.956 197.1 438.299 197.1C436.642 197.1 435.299 198.443 435.299 200.1C435.299 201.757 436.642 203.1 438.299 203.1Z" fill="#FFFCC2" stroke="#978C00" stroke-width="3.21" stroke-miterlimit="10"/>
<path d="M449.299 203.1C450.956 203.1 452.299 201.757 452.299 200.1C452.299 198.443 450.956 197.1 449.299 197.1C447.642 197.1 446.299 198.443 446.299 200.1C446.299 201.757 447.642 203.1 449.299 203.1Z" fill="#FFFCC2" stroke="#978C00" stroke-width="3.21" stroke-miterlimit="10"/>
<path d="M483.131 240.687C483.131 242.758 478.094 244.437 471.881 244.437C465.668 244.437 460.631 242.758 460.631 240.687M483.131 240.687C483.131 238.616 478.094 236.937 471.881 236.937C465.668 236.937 460.631 238.616 460.631 240.687M483.131 240.687V258.187C483.131 260.262 478.131 261.937 471.881 261.937C465.631 261.937 460.631 260.262 460.631 258.187V240.687M483.131 249.437C483.131 251.512 478.131 253.187 471.881 253.187C465.631 253.187 460.631 251.512 460.631 249.437" stroke="#998B00" stroke-width="2.29167" stroke-linecap="round" stroke-linejoin="round"/>
<path d="M498.007 250.97L496.489 250.69C494.559 250.294 492.909 249.304 492.909 247.225C492.909 244.816 495.483 243.76 497.677 243.76C500.152 243.76 502.248 245.212 502.38 247.505H500.103C499.921 246.103 498.7 245.641 497.578 245.641C496.473 245.641 495.268 246.053 495.268 247.126C495.268 247.967 495.961 248.429 496.935 248.611L498.502 248.891C500.449 249.254 502.594 249.997 502.594 252.488C502.594 254.947 500.152 256.151 497.743 256.151C494.806 256.151 492.859 254.567 492.645 251.993H494.922C495.186 253.759 496.407 254.27 497.826 254.27C498.882 254.27 500.218 253.874 500.218 252.604C500.218 251.597 499.278 251.185 498.007 250.97ZM512.738 252.125H506.187C506.319 253.643 507.342 254.386 508.431 254.386C509.141 254.386 509.834 254.138 510.296 253.363H512.639C512.16 254.683 510.873 256.151 508.448 256.151C505.593 256.151 503.927 254.023 503.927 251.465C503.927 248.825 505.758 246.862 508.382 246.862C511.121 246.862 512.82 248.99 512.738 252.125ZM508.365 248.528C507.507 248.528 506.402 249.056 506.22 250.558H510.428C510.378 249.056 509.322 248.528 508.365 248.528ZM519.369 247.109V249.254C519.039 249.205 518.758 249.205 518.428 249.205C517.306 249.205 516.564 249.617 516.564 251.284V255.937H514.287V247.06H516.531V248.611C517.042 247.505 517.834 247.076 518.874 247.076C519.022 247.076 519.22 247.093 519.369 247.109ZM522.152 247.06L524.231 253.627L526.31 247.06H528.571L525.386 255.937H522.994L519.76 247.06H522.152ZM537.751 252.125H531.201C531.333 253.643 532.356 254.386 533.445 254.386C534.154 254.386 534.847 254.138 535.309 253.363H537.652C537.174 254.683 535.887 256.151 533.461 256.151C530.607 256.151 528.94 254.023 528.94 251.465C528.94 248.825 530.772 246.862 533.395 246.862C536.134 246.862 537.834 248.99 537.751 252.125ZM533.379 248.528C532.521 248.528 531.415 249.056 531.234 250.558H535.441C535.392 249.056 534.336 248.528 533.379 248.528ZM544.383 247.109V249.254C544.053 249.205 543.772 249.205 543.442 249.205C542.32 249.205 541.578 249.617 541.578 251.284V255.937H539.301V247.06H541.545V248.611C542.056 247.505 542.848 247.076 543.888 247.076C544.036 247.076 544.234 247.093 544.383 247.109Z" fill="#998B00"/>
</g>
<rect x="416.299" y="190.1" width="185.9" height="117.7" rx="10" stroke="#978C00" stroke-width="3.21" stroke-miterlimit="10"/>
<g clip-path="url(#clip3_15020_22551)">
<rect x="564.801" y="279.2" width="172.7" height="113.3" rx="10" fill="#FFFCC2"/>
<path d="M629.883 333.787H604.883M619.883 344.412L623.008 341.287L619.883 338.162M614.883 338.162L611.758 341.287L614.883 344.412M604.883 332.287L604.883 342.787C604.883 344.887 604.883 345.937 605.292 346.739C605.651 347.445 606.225 348.019 606.93 348.378C607.733 348.787 608.783 348.787 610.883 348.787H623.883C625.983 348.787 627.033 348.787 627.835 348.378C628.541 348.019 629.115 347.445 629.474 346.739C629.883 345.937 629.883 344.887 629.883 342.787V332.287C629.883 330.187 629.883 329.137 629.474 328.334C629.115 327.629 628.541 327.055 627.835 326.696C627.033 326.287 625.983 326.287 623.883 326.287L610.883 326.287C608.783 326.287 607.733 326.287 606.93 326.696C606.225 327.055 605.651 327.629 605.292 328.334C604.883 329.137 604.883 330.187 604.883 332.287Z" stroke="#998B00" stroke-width="2.29167" stroke-linecap="round" stroke-linejoin="round"/>
<path d="M646.906 340.11H649.15C648.836 342.535 646.823 344.251 643.969 344.251C640.405 344.251 638.375 341.826 638.375 337.998C638.375 334.219 640.553 331.86 644.035 331.86C646.84 331.86 648.754 333.46 649.15 335.952H646.906C646.46 334.285 645.338 333.741 644.018 333.741C642.22 333.741 640.817 335.226 640.817 337.998C640.817 340.852 642.22 342.37 643.936 342.37C645.355 342.37 646.51 341.743 646.906 340.11ZM652.957 332.074V344.037H650.68V332.074H652.957ZM655.081 335.16H657.358V344.037H655.081V335.16ZM655.081 332.074H657.358V334.186H655.081V332.074ZM667.715 340.225H661.165C661.297 341.743 662.32 342.486 663.409 342.486C664.118 342.486 664.811 342.238 665.273 341.463H667.616C667.138 342.783 665.851 344.251 663.425 344.251C660.571 344.251 658.904 342.123 658.904 339.565C658.904 336.925 660.736 334.962 663.359 334.962C666.098 334.962 667.798 337.09 667.715 340.225ZM663.343 336.628C662.485 336.628 661.379 337.156 661.198 338.658H665.405C665.356 337.156 664.3 336.628 663.343 336.628ZM671.541 335.16V336.331C672.053 335.424 673.01 334.962 674.115 334.962C676.244 334.962 677.184 336.249 677.184 338.443V344.037H674.907V338.938C674.907 337.8 674.66 336.793 673.373 336.793C671.871 336.793 671.541 338.014 671.541 339.417V344.037H669.264V335.16H671.541ZM679.49 335.16V332.751H681.767V335.16H683.615V336.727H681.767V341.314C681.767 342.222 682.08 342.403 682.889 342.403H683.582V344.037H681.915C679.869 344.037 679.49 343.41 679.49 341.644V336.727H678.236V335.16H679.49Z" fill="#998B00"/>
<path d="M564.801 285.578C564.801 282.056 567.657 279.2 571.179 279.2H731.122C734.645 279.2 737.501 282.056 737.501 285.578V299.2H564.801V285.578Z" fill="#FFFCC2"/>
<path d="M564.801 285.578C564.801 282.056 567.657 279.2 571.179 279.2H731.122C734.645 279.2 737.501 282.056 737.501 285.578V299.2H564.801V285.578Z" stroke="#978C00" stroke-width="3.21" stroke-miterlimit="10"/>
<path d="M575.801 292.2C577.458 292.2 578.801 290.857 578.801 289.2C578.801 287.543 577.458 286.2 575.801 286.2C574.144 286.2 572.801 287.543 572.801 289.2C572.801 290.857 574.144 292.2 575.801 292.2Z" fill="#FFFCC2" stroke="#978C00" stroke-width="3.21" stroke-miterlimit="10"/>
<path d="M586.801 292.2C588.458 292.2 589.801 290.857 589.801 289.2C589.801 287.543 588.458 286.2 586.801 286.2C585.144 286.2 583.801 287.543 583.801 289.2C583.801 290.857 585.144 292.2 586.801 292.2Z" fill="#FFFCC2" stroke="#978C00" stroke-width="3.21" stroke-miterlimit="10"/>
<path d="M597.801 292.2C599.458 292.2 600.801 290.857 600.801 289.2C600.801 287.543 599.458 286.2 597.801 286.2C596.144 286.2 594.801 287.543 594.801 289.2C594.801 290.857 596.144 292.2 597.801 292.2Z" fill="#FFFCC2" stroke="#978C00" stroke-width="3.21" stroke-miterlimit="10"/>
</g>
<rect x="564.801" y="279.2" width="172.7" height="113.3" rx="10" stroke="#978C00" stroke-width="3.21" stroke-miterlimit="10"/>
<path d="M554.899 348.5L538.849 339.233V357.766L554.899 348.5ZM508.699 314.4L499.433 330.45H517.966L508.699 314.4ZM540.454 348.5V346.895H518.699V348.5V350.105H540.454V348.5ZM508.699 338.5H510.304V328.845H508.699H507.094V338.5H508.699ZM518.699 348.5V346.895C514.063 346.895 510.304 343.136 510.304 338.5H508.699H507.094C507.094 344.909 512.29 350.105 518.699 350.105V348.5Z" fill="#978C00"/>
<path d="M590.199 225.9H607.263C612.309 225.9 616.399 229.99 616.399 235.036V252.903C616.399 256.99 620.824 259.545 624.364 257.501L676.131 227.614C678.075 226.491 680.281 225.9 682.526 225.9H753.699C759.222 225.9 763.699 221.423 763.699 215.9L763.699 132.5C763.7 126.977 759.222 122.5 753.7 122.5H590.2C584.677 122.5 580.2 126.977 580.2 132.5L580.199 215.9C580.199 221.423 584.676 225.9 590.199 225.9Z" fill="#FFF100" stroke="#978C00" stroke-width="3.21" stroke-miterlimit="10"/>
<g clip-path="url(#clip4_15020_22551)">
<path d="M627.104 152.83C614.879 152.83 604.969 162.74 604.969 174.965C604.969 187.189 614.879 197.1 627.104 197.1C639.328 197.1 649.239 187.189 649.239 174.965C649.239 162.74 639.328 152.83 627.104 152.83Z" fill="#978C00"/>
<path d="M676.184 175.072C676.184 169.041 672.458 165.02 666.668 165.02C660.878 165.02 657.152 169.041 657.152 175.072C657.152 181.103 660.878 185.151 666.668 185.151C667.928 185.151 669 184.963 670.046 184.642L672.646 187.992L675.004 186.223L672.699 183.194C674.951 181.452 676.184 178.637 676.184 175.072ZM670.528 180.353L668.92 178.208L666.534 180.004L668.009 181.934C667.579 182.042 667.124 182.095 666.668 182.095C663.639 182.095 661.12 179.656 661.12 175.072C661.12 170.515 663.639 168.076 666.668 168.076C669.697 168.076 672.217 170.515 672.217 175.072C672.217 177.404 671.574 179.147 670.528 180.353Z" fill="#978C00"/>
<path d="M715.879 182.283C713.842 182.283 712.395 180.594 712.395 177.565C712.395 174.563 713.923 172.928 715.852 172.928C717.273 172.928 718.56 173.92 718.854 175.313H722.393C721.883 171.748 718.882 170.06 715.852 170.06C711.537 170.06 708.615 173.223 708.615 177.619C708.615 181.988 711.376 185.151 715.692 185.151C718.694 185.151 721.669 183.838 722.527 179.897H718.989C718.479 181.613 717.166 182.283 715.879 182.283Z" fill="#978C00"/>
<path d="M706.471 176.359C706.471 171.507 703.657 170.006 700.252 170.006C696.527 170.006 694.221 172.097 693.926 174.938H697.384C697.464 173.33 698.644 172.606 700.065 172.606C701.566 172.606 702.772 173.383 702.772 175.608V175.85C697.089 176.493 693.283 177.511 693.283 180.916C693.283 183.543 695.722 185.151 698.483 185.151C700.654 185.151 702.156 184.508 703.201 183.007C703.281 183.73 703.335 184.347 703.442 184.802H706.846C706.551 183.596 706.417 182.31 706.417 180.031C706.417 178.745 706.471 176.788 706.471 176.359ZM702.879 179.281C702.879 181.398 701.914 182.631 699.582 182.631C697.893 182.631 697.089 181.773 697.089 180.728C697.089 179.12 698.724 178.637 702.879 178.208V179.281Z" fill="#978C00"/>
<path d="M732.671 175.903L737.845 170.381H733.689L728.436 176.171V165.369H724.736V184.802H728.436V180.46L730.205 178.557L733.984 184.802H738.139L732.671 175.903Z" fill="#978C00"/>
<path d="M687.284 178.732C687.284 180.694 686.731 182.336 684.669 182.336C682.606 182.336 682.052 180.694 682.052 178.732V170.381H678.33V179.537C678.33 183.109 681.197 185.191 684.669 185.191C688.14 185.191 691.007 183.109 691.007 179.537V170.381H687.284V178.732Z" fill="#978C00"/>
<path d="M632.114 177.527L630.133 175.546C629.413 174.826 628.245 174.826 627.525 175.546C626.804 176.266 626.804 177.435 627.525 178.155L629.503 180.132L632.114 177.527Z" fill="#FFF21A"/>
<path d="M639.699 185.111L637.754 183.166L635.143 185.771L637.091 187.719C637.451 188.079 637.923 188.259 638.395 188.259C638.867 188.259 639.339 188.079 639.699 187.719C640.419 186.999 640.419 185.831 639.699 185.111Z" fill="#FFF21A"/>
<path d="M627.102 185.989C621.023 185.989 616.078 181.043 616.078 174.965C616.078 168.886 621.023 163.941 627.102 163.941C633.181 163.941 638.126 168.886 638.126 174.965C638.126 181.043 633.181 185.989 627.102 185.989ZM627.102 167.322C622.888 167.322 619.46 170.751 619.46 174.965C619.46 179.179 622.888 182.607 627.102 182.607C631.316 182.607 634.745 179.179 634.745 174.965C634.745 170.751 631.316 167.322 627.102 167.322Z" fill="#FFF21A"/>
</g>
</g>
<defs>
<linearGradient id="paint0_linear_15020_22551" x1="589" y1="-26.5" x2="587" y2="627" gradientUnits="userSpaceOnUse">
<stop stop-color="#FDEF00"/>
<stop offset="0.938633" stop-color="#FFFAA3"/>
</linearGradient>
<linearGradient id="paint1_linear_15020_22551" x1="589" y1="-26.5" x2="587" y2="627" gradientUnits="userSpaceOnUse">
<stop stop-color="#FDEF00"/>
<stop offset="0.938633" stop-color="#FFFAA3"/>
</linearGradient>
<clipPath id="clip0_15020_22551">
<rect width="1200" height="515" fill="white"/>
</clipPath>
<clipPath id="clip1_15020_22551">
<rect width="1200" height="515" fill="white"/>
</clipPath>
<clipPath id="clip2_15020_22551">
<rect x="416.299" y="190.1" width="185.9" height="117.7" rx="10" fill="white"/>
</clipPath>
<clipPath id="clip3_15020_22551">
<rect x="564.801" y="279.2" width="172.7" height="113.3" rx="10" fill="white"/>
</clipPath>
<clipPath id="clip4_15020_22551">
<rect width="133.17" height="44.2698" fill="white" transform="translate(604.969 152.83)"/>
</clipPath>
</defs>
</svg>
