<svg xmlns="http://www.w3.org/2000/svg" width="560" height="240" fill="none" viewBox="0 0 560 240"><g clip-path="url(#clip0_4723_13663)"><rect width="560" height="240" fill="#FFF100"/><g clip-path="url(#clip1_4723_13663)"><rect width="560" height="240" fill="#FFF100"/><path fill="#EDDE00" d="M134.5 190.5L361 190.5C372.046 190.5 381 181.546 381 170.5L381 54.9999C381.001 43.9543 389.955 35 401 35L598.5 35C609.546 35 618.5 43.9543 618.5 55.0001L618.5 309C618.5 320.046 609.545 329 598.5 329L134.5 329C123.454 329 114.5 320.046 114.5 309L114.5 210.5C114.5 199.454 123.454 190.5 134.5 190.5Z"/><path fill="#EDDE00" d="M186.5 50.8302L186.5 -21.9996C186.5 -33.0452 177.546 -41.9995 166.5 -41.9996L-27.9999 -42C-39.0457 -42 -48 -33.0457 -48 -22L-48 185C-48 196.046 -39.0457 205 -28 205L33.7692 205C44.8149 205 53.7692 196.046 53.7692 185L53.7693 90.8299C53.7693 79.7841 62.7236 70.8298 73.7693 70.8299L166.5 70.8302C177.546 70.8302 186.5 61.8759 186.5 50.8302Z"/><path fill="#FFF100" d="M686.5 100L539.885 100L482.5 100C471.454 100 462.5 108.954 462.5 120L462.5 340C462.5 351.046 471.454 360 482.5 360L686.5 360C697.546 360 706.5 351.046 706.5 340L706.5 120C706.5 108.954 697.546 100 686.5 100Z"/></g><circle cx="280" cy="120" r="33.5" fill="#000"/><path fill="#FFF100" d="M264.043 130.817L263.595 127.32C263.353 127.229 263.124 127.119 262.909 126.992C262.694 126.864 262.485 126.728 262.28 126.582L258.95 127.948L255.872 122.757L258.754 120.626C258.735 120.499 258.726 120.375 258.726 120.257V119.52C258.726 119.401 258.735 119.278 258.754 119.151L255.872 117.02L258.95 111.829L262.28 113.195C262.485 113.049 262.7 112.912 262.924 112.785C263.148 112.657 263.372 112.548 263.595 112.457L264.043 108.96H270.2L270.648 112.457C270.89 112.548 271.119 112.657 271.334 112.785C271.549 112.912 271.758 113.049 271.963 113.195L275.293 111.829L278.371 117.02L275.489 119.151C275.508 119.278 275.517 119.401 275.517 119.52V120.257C275.517 120.375 275.498 120.499 275.461 120.626L278.343 122.757L275.265 127.948L271.963 126.582C271.758 126.728 271.543 126.864 271.319 126.992C271.095 127.119 270.871 127.229 270.648 127.32L270.2 130.817H264.043Z"/><circle cx="267.443" cy="119.888" r="5.143" fill="#000"/><path fill="#F6E900" stroke="#000" stroke-width=".769" d="M278.898 102.862C278.597 102.561 278.186 102.442 277.811 102.522C277.426 102.603 277.1 102.892 277.002 103.339C276.504 105.624 277.141 108.107 278.916 109.882C280.849 111.815 283.621 112.399 286.064 111.636L294.049 119.621C295.341 120.913 297.436 120.913 298.728 119.621C300.02 118.329 300.02 116.234 298.728 114.942L290.743 106.957C291.505 104.514 290.922 101.742 288.989 99.8091C287.214 98.0338 284.731 97.3971 282.446 97.8955C281.997 97.9935 281.707 98.3255 281.62 98.7086C281.534 99.0848 281.642 99.5052 281.948 99.8116C282.663 100.527 283.374 101.246 284.086 101.965C284.259 102.14 284.432 102.315 284.605 102.49C285.349 103.243 285.348 104.456 284.601 105.203L284.274 105.53C283.526 106.278 282.314 106.278 281.567 105.53L278.898 102.862Z"/><path fill="#FFF100" d="M276.625 132.553C276.625 132.2 276.911 131.914 277.264 131.914H282.388C282.741 131.914 283.027 132.2 283.027 132.553V139.234C283.027 139.587 282.741 139.873 282.388 139.873H277.264C276.911 139.873 276.625 139.587 276.625 139.234V132.553Z"/><path fill="#FFF100" d="M283.933 123.91C283.933 123.557 284.219 123.271 284.572 123.271H289.696C290.049 123.271 290.335 123.557 290.335 123.91V139.234C290.335 139.587 290.049 139.873 289.696 139.873H284.572C284.219 139.873 283.933 139.587 283.933 139.234V123.91Z"/><path fill="#FFF100" d="M291.24 128.201C291.24 127.848 291.526 127.562 291.879 127.562H297.003C297.356 127.562 297.642 127.848 297.642 128.201V139.234C297.642 139.587 297.356 139.873 297.003 139.873H291.879C291.526 139.873 291.24 139.587 291.24 139.234V128.201Z"/></g><defs><clipPath id="clip0_4723_13663"><rect width="560" height="240" fill="#fff"/></clipPath><clipPath id="clip1_4723_13663"><rect width="560" height="240" fill="#fff"/></clipPath></defs></svg>