<svg xmlns="http://www.w3.org/2000/svg" width="560" height="240" fill="none" viewBox="0 0 560 240"><g clip-path="url(#clip0_6570_22213)"><rect width="560" height="240" fill="#FFF100"/><g clip-path="url(#clip1_6570_22213)"><rect width="560" height="240" fill="#FFF100"/><path fill="#EDDD0C" d="M387 170.499L451.783 170.499C462.828 170.499 471.782 161.545 471.782 150.499L471.782 67.4996C471.782 56.4539 480.737 47.4996 491.782 47.4996L692.082 47.4996C703.128 47.4996 712.082 56.4539 712.082 67.4996L712.082 241.912C712.082 252.958 703.128 261.912 692.082 261.912L387 261.912C375.954 261.912 367 252.958 367 241.912L367 190.5C367 179.454 375.954 170.5 387 170.499Z"/><path fill="#EDDD0C" d="M141.127 314L141.127 77.9839C141.127 66.9382 150.081 57.9839 161.127 57.9839L199.812 57.9839C210.857 57.9839 219.812 49.0296 219.812 37.9839L219.812 -86.9999C219.812 -98.0456 210.857 -107 199.812 -107L-54.0001 -107C-65.0458 -107 -74.0001 -98.0457 -74.0001 -87L-74.0002 314C-74.0002 325.046 -65.0458 334 -54.0002 334L121.127 334C132.173 334 141.127 325.046 141.127 314Z"/><rect width="546" height="169" x="417" y="194" fill="#FFF100" rx="20"/><rect width="598" height="204" x="-513" y="-43" fill="#FFF100" rx="20"/></g><g filter="url(#filter0_d_6570_22213)"><rect width="66" height="66" x="201" y="87" fill="#000" rx="20" shape-rendering="crispEdges"/><path fill="#FFF100" d="M234 99C225 99 216 100.105 216 107.842V128.842C216 133.108 219.533 136.579 223.875 136.579L220.5 139.895V141H225L229.5 136.579H238.5L243 141H247.5V139.895L244.125 136.579C248.467 136.579 252 133.108 252 128.842V107.842C252 100.105 243 99 234 99ZM223.875 132.158C222.008 132.158 220.5 130.677 220.5 128.842C220.5 127.007 222.008 125.526 223.875 125.526C225.743 125.526 227.25 127.007 227.25 128.842C227.25 130.677 225.743 132.158 223.875 132.158ZM231.75 116.684H220.5V107.842H231.75V116.684ZM244.125 132.158C242.257 132.158 240.75 130.677 240.75 128.842C240.75 127.007 242.257 125.526 244.125 125.526C245.993 125.526 247.5 127.007 247.5 128.842C247.5 130.677 245.993 132.158 244.125 132.158ZM247.5 116.684H236.25V107.842H247.5V116.684Z"/></g><path fill="#0D0D0D" d="M325.5 153.5C306.967 153.5 292 138.533 292 120C292 101.467 306.967 86.5 325.5 86.5C344.033 86.5 359 101.467 359 120C359 138.533 344.033 153.5 325.5 153.5Z"/><path fill="#FFF100" d="M343.413 115.03H336.841V124.948H343.413C346.137 124.948 348.402 122.684 348.402 119.959C348.402 117.214 346.137 115.03 343.413 115.03Z"/><path fill="#FFF100" d="M304.642 120C304.642 127.654 310.873 133.885 318.526 133.885C326.18 133.885 332.411 127.654 332.411 120C332.411 112.346 326.18 106.115 318.526 106.115C310.873 106.115 304.642 112.346 304.642 120Z"/></g><defs><filter id="filter0_d_6570_22213" width="68" height="68" x="200" y="86" color-interpolation-filters="sRGB" filterUnits="userSpaceOnUse"><feFlood flood-opacity="0" result="BackgroundImageFix"/><feColorMatrix in="SourceAlpha" result="hardAlpha" type="matrix" values="0 0 0 0 0 0 0 0 0 0 0 0 0 0 0 0 0 0 127 0"/><feOffset/><feGaussianBlur stdDeviation=".5"/><feComposite in2="hardAlpha" operator="out"/><feColorMatrix type="matrix" values="0 0 0 0 0 0 0 0 0 0 0 0 0 0 0 0 0 0 0.17 0"/><feBlend in2="BackgroundImageFix" mode="normal" result="effect1_dropShadow_6570_22213"/><feBlend in="SourceGraphic" in2="effect1_dropShadow_6570_22213" mode="normal" result="shape"/></filter><clipPath id="clip0_6570_22213"><rect width="560" height="240" fill="#fff"/></clipPath><clipPath id="clip1_6570_22213"><rect width="560" height="240" fill="#fff"/></clipPath></defs></svg>