<svg xmlns="http://www.w3.org/2000/svg" width="367" height="206" fill="none" viewBox="0 0 367 206"><g clip-path="url(#clip0_3959_17258)"><rect width="367" height="206" fill="#E646C0"/><path fill="#C7189C" d="M336.976 260L371 260C382.046 260 391 251.046 391 240L391 -10C391 -21.0457 382.046 -30 371 -30L235 -30C223.954 -30 215 -21.0457 215 -10L215 33.1433C215 44.189 223.954 53.1433 235 53.1433L296.976 53.1433C308.022 53.1433 316.976 62.0977 316.976 73.1434L316.976 240C316.976 251.046 325.931 260 336.976 260Z"/><path fill="#C7189C" d="M92 148.5L205.5 148.5C216.546 148.5 225.5 157.454 225.5 168.5L225.5 207C225.5 218.046 216.546 227 205.5 227L20 227C8.95435 227 4.52837e-05 218.046 4.29599e-05 207L-8.45588e-06 -37.3936C-1.20062e-05 -47.6696 8.33037 -56 18.6064 -56C28.8825 -56 37.2128 -47.6696 37.2128 -37.3936L37.2129 51.1064C37.2129 60.7126 45.0003 68.5 54.6064 68.5C64.2126 68.5 72 76.2874 72 85.8936L72 128.5C72 139.546 80.9543 148.5 92 148.5Z"/><g filter="url(#filter0_d_3959_17258)"><rect width="66" height="66" x="104.5" y="70" fill="#000" rx="20" shape-rendering="crispEdges"/><path fill="#E646C0" d="M137.5 82C128.5 82 119.5 83.1053 119.5 90.8421V111.842C119.5 116.108 123.033 119.579 127.375 119.579L124 122.895V124H128.5L133 119.579H142L146.5 124H151V122.895L147.625 119.579C151.967 119.579 155.5 116.108 155.5 111.842V90.8421C155.5 83.1053 146.5 82 137.5 82ZM127.375 115.158C125.508 115.158 124 113.677 124 111.842C124 110.007 125.508 108.526 127.375 108.526C129.243 108.526 130.75 110.007 130.75 111.842C130.75 113.677 129.243 115.158 127.375 115.158ZM135.25 99.6842H124V90.8421H135.25V99.6842ZM147.625 115.158C145.757 115.158 144.25 113.677 144.25 111.842C144.25 110.007 145.757 108.526 147.625 108.526C149.493 108.526 151 110.007 151 111.842C151 113.677 149.493 115.158 147.625 115.158ZM151 99.6842H139.75V90.8421H151V99.6842Z"/></g><g filter="url(#filter1_dd_3959_17258)"><path fill="#000" d="M229 136.5C210.467 136.5 195.5 121.533 195.5 103C195.5 84.4668 210.467 69.5 229 69.5C247.533 69.5 262.5 84.4668 262.5 103C262.5 121.533 247.533 136.5 229 136.5Z"/><path fill="#E646C0" d="M246.912 98.0305H240.34V107.948H246.912C249.637 107.948 251.901 105.684 251.901 102.959C251.901 100.214 249.637 98.0305 246.912 98.0305Z"/><path fill="#E646C0" d="M208.141 103C208.141 110.654 214.372 116.885 222.026 116.885C229.68 116.885 235.911 110.654 235.911 103C235.911 95.3464 229.68 89.1152 222.026 89.1152C214.372 89.1152 208.141 95.3464 208.141 103Z"/></g><path fill="#E646C0" fill-rule="evenodd" d="M36 118C36 106.954 27.0457 98 16 98H3C-8.04569 98 -17 106.954 -17 118L-17 177.994C-17 177.996 -17 177.998 -17 178V202C-17 202.004 -17 202.007 -17 202.011L-17 226C-17 237.046 -8.04568 246 3.00001 246L87 246C98.0457 246 107 237.046 107 226L107 178C107 166.954 98.0457 158 87 158L56 158C44.9543 158 36 149.046 36 138V118Z" clip-rule="evenodd"/><g filter="url(#filter2_i_3959_17258)"><rect width="55" height="28" x="10" y="168" fill="#981477" rx="14"/><path fill="#E646C0" d="M23.4387 186.319H26.784V178.311C26.784 178.01 26.7898 177.744 26.8013 177.513C26.8244 177.271 26.836 177.144 26.836 177.132H26.8013C26.732 177.201 26.6569 177.271 26.576 177.34C26.5067 177.398 26.4316 177.461 26.3507 177.531C26.2698 177.588 26.1831 177.646 26.0907 177.704L23.6467 179.333V177.461L26.42 175.52H28.6907V186.319H31.4467V188H23.4387V186.319ZM39.1359 173.613H41.1119L35.0279 189.907H33.0346L39.1359 173.613ZM42.7518 178.935C42.7633 178.392 42.8673 177.9 43.0638 177.461C43.2718 177.022 43.5549 176.647 43.9131 176.335C44.2829 176.023 44.722 175.78 45.2305 175.607C45.7389 175.433 46.2993 175.347 46.9118 175.347C47.5011 175.347 48.0327 175.433 48.5065 175.607C48.9918 175.768 49.4078 176.005 49.7545 176.317C50.1011 176.629 50.3669 177.005 50.5518 177.444C50.7367 177.883 50.8291 178.374 50.8291 178.917C50.8291 179.819 50.5865 180.68 50.1011 181.5C49.6158 182.309 48.8416 183.164 47.7785 184.065L45.8371 185.695C45.7447 185.776 45.6465 185.851 45.5425 185.92C45.4385 185.978 45.3402 186.036 45.2478 186.093C45.1438 186.151 45.0398 186.203 44.9358 186.249V186.319C45.1091 186.307 45.2825 186.296 45.4558 186.284C45.6176 186.284 45.7909 186.284 45.9758 186.284C46.1607 186.272 46.334 186.267 46.4958 186.267H50.9678V188H42.8385V185.955L46.5305 182.887C46.9465 182.528 47.3047 182.188 47.6051 181.864C47.9056 181.54 48.1482 181.223 48.3331 180.911C48.5296 180.599 48.6682 180.287 48.7491 179.975C48.8416 179.663 48.8878 179.333 48.8878 178.987C48.8878 178.386 48.7087 177.912 48.3505 177.565C47.9922 177.207 47.5069 177.028 46.8945 177.028C46.2358 177.028 45.7042 177.201 45.2998 177.548C44.8953 177.895 44.6931 178.357 44.6931 178.935H42.7518Z"/></g></g><defs><filter id="filter0_d_3959_17258" width="68" height="68" x="103.5" y="69" color-interpolation-filters="sRGB" filterUnits="userSpaceOnUse"><feFlood flood-opacity="0" result="BackgroundImageFix"/><feColorMatrix in="SourceAlpha" result="hardAlpha" type="matrix" values="0 0 0 0 0 0 0 0 0 0 0 0 0 0 0 0 0 0 127 0"/><feOffset/><feGaussianBlur stdDeviation=".5"/><feComposite in2="hardAlpha" operator="out"/><feColorMatrix type="matrix" values="0 0 0 0 0 0 0 0 0 0 0 0 0 0 0 0 0 0 0.17 0"/><feBlend in2="BackgroundImageFix" mode="normal" result="effect1_dropShadow_3959_17258"/><feBlend in="SourceGraphic" in2="effect1_dropShadow_3959_17258" mode="normal" result="shape"/></filter><filter id="filter1_dd_3959_17258" width="69" height="69" x="194.5" y="68.5" color-interpolation-filters="sRGB" filterUnits="userSpaceOnUse"><feFlood flood-opacity="0" result="BackgroundImageFix"/><feColorMatrix in="SourceAlpha" result="hardAlpha" type="matrix" values="0 0 0 0 0 0 0 0 0 0 0 0 0 0 0 0 0 0 127 0"/><feOffset/><feGaussianBlur stdDeviation=".5"/><feComposite in2="hardAlpha" operator="out"/><feColorMatrix type="matrix" values="0 0 0 0 0 0 0 0 0 0 0 0 0 0 0 0 0 0 0.17 0"/><feBlend in2="BackgroundImageFix" mode="normal" result="effect1_dropShadow_3959_17258"/><feColorMatrix in="SourceAlpha" result="hardAlpha" type="matrix" values="0 0 0 0 0 0 0 0 0 0 0 0 0 0 0 0 0 0 127 0"/><feOffset/><feGaussianBlur stdDeviation=".5"/><feComposite in2="hardAlpha" operator="out"/><feColorMatrix type="matrix" values="0 0 0 0 0 0 0 0 0 0 0 0 0 0 0 0 0 0 0.17 0"/><feBlend in2="effect1_dropShadow_3959_17258" mode="normal" result="effect2_dropShadow_3959_17258"/><feBlend in="SourceGraphic" in2="effect2_dropShadow_3959_17258" mode="normal" result="shape"/></filter><filter id="filter2_i_3959_17258" width="55" height="32" x="10" y="168" color-interpolation-filters="sRGB" filterUnits="userSpaceOnUse"><feFlood flood-opacity="0" result="BackgroundImageFix"/><feBlend in="SourceGraphic" in2="BackgroundImageFix" mode="normal" result="shape"/><feColorMatrix in="SourceAlpha" result="hardAlpha" type="matrix" values="0 0 0 0 0 0 0 0 0 0 0 0 0 0 0 0 0 0 127 0"/><feOffset dy="4"/><feGaussianBlur stdDeviation="2"/><feComposite in2="hardAlpha" k2="-1" k3="1" operator="arithmetic"/><feColorMatrix type="matrix" values="0 0 0 0 0 0 0 0 0 0 0 0 0 0 0 0 0 0 0.25 0"/><feBlend in2="shape" mode="normal" result="effect1_innerShadow_3959_17258"/></filter><clipPath id="clip0_3959_17258"><rect width="367" height="206" fill="#fff"/></clipPath></defs></svg>