<svg width="560" height="240" viewBox="0 0 560 240" fill="none" xmlns="http://www.w3.org/2000/svg">
<g clip-path="url(#clip0_5060_643)">
<rect width="560" height="240" fill="#FFF100"/>
<g clip-path="url(#clip1_5060_643)">
<rect width="560" height="240" transform="translate(0 1)" fill="#FFF100"/>
<path d="M224 50.847L224 1.52588e-05C224 -11.0457 215.046 -20 204 -20L-26 -20C-37.0457 -20 -46 -11.0457 -46 -8.34536e-06L-46 176C-46 187.046 -37.0457 196 -26 196L52.5714 196C63.6171 196 72.5714 187.046 72.5714 176L72.5714 90.8471C72.5714 79.8014 81.5257 70.8471 92.5714 70.8471L204 70.8471C215.046 70.8471 224 61.8927 224 50.847Z" fill="#EDDE00"/>
<path d="M501.983 105.352L501.983 -31.9999C501.983 -43.0456 510.937 -51.9999 521.983 -51.9999L546 -51.9999C557.046 -51.9999 566 -43.0456 566 -31.9999L566 258C566 269.046 557.046 278 546 278L366 278C354.954 278 346 269.046 346 258L346 208.5C346 197.454 354.954 188.5 366 188.5L395.584 188.5C406.629 188.5 415.584 179.546 415.584 168.5L415.584 145.352C415.584 134.306 424.538 125.352 435.584 125.352L481.983 125.352C493.029 125.352 501.983 116.398 501.983 105.352Z" fill="#EDDE00"/>
</g>
<rect x="201.5" y="87.5" width="65" height="65" rx="10" fill="black"/>
<path d="M246.835 118.079L246.554 117.545C246.561 113.74 244.924 112.19 243.012 111.009C243.591 110.845 244.185 110.714 244.352 109.927C245.35 109.656 245.556 109.156 245.655 108.631C245.914 108.443 246.782 107.918 246.691 107.016C247.178 106.655 247.452 106.187 247.308 105.531C247.833 104.916 247.97 104.408 247.75 103.94C248.382 103.096 248.1 102.661 247.833 102.226C248.306 101.308 247.887 100.324 246.569 100.488C246.043 99.6594 244.901 99.848 244.726 99.848C244.528 99.5856 244.269 99.3559 243.469 99.4626C242.951 98.9623 242.372 99.0525 241.77 99.2903C241.062 98.6917 240.589 99.1755 240.049 99.3559C239.188 99.0607 238.99 99.4626 238.571 99.6348C237.634 99.4216 237.345 99.8808 236.895 100.365L236.37 100.356C234.953 101.242 234.252 103.046 234.001 103.973C233.749 103.046 233.049 101.242 231.632 100.356L231.106 100.365C230.657 99.8808 230.367 99.4216 229.431 99.6348C229.004 99.4708 228.814 99.0607 227.953 99.3559C227.602 99.2411 227.275 98.9951 226.894 99.0033C226.696 99.0115 226.475 99.0853 226.231 99.2903C225.63 99.0443 225.051 98.9623 224.533 99.4626C223.733 99.3559 223.466 99.5774 223.276 99.848C223.101 99.848 221.958 99.6594 221.433 100.488C220.115 100.324 219.704 101.308 220.176 102.226C219.909 102.669 219.627 103.104 220.26 103.94C220.039 104.408 220.176 104.916 220.701 105.531C220.564 106.187 220.839 106.655 221.318 107.016C221.227 107.918 222.095 108.443 222.354 108.631C222.453 109.156 222.659 109.648 223.657 109.927C223.824 110.706 224.419 110.845 224.997 111.009C223.086 112.19 221.448 113.74 221.455 117.545L221.174 118.079C218.98 119.489 217.007 124.041 220.092 127.731C220.29 128.887 220.633 129.716 220.93 130.634C221.379 134.341 224.319 136.071 225.089 136.276C226.224 137.195 227.435 138.064 229.065 138.671C230.611 140.36 232.287 141 233.963 141H234.039C235.722 141 237.39 140.36 238.929 138.671C240.567 138.064 241.77 137.195 242.905 136.276C243.682 136.071 246.615 134.341 247.064 130.634C247.361 129.716 247.704 128.887 247.902 127.731C250.994 124.032 249.022 119.489 246.835 118.079ZM245.144 117.422C245.03 118.956 237.611 112.084 238.891 111.854C242.372 111.239 245.259 113.429 245.144 117.422ZM241.869 125.057C240.003 126.353 237.314 125.517 235.867 123.188C234.42 120.859 234.755 117.923 236.621 116.627C238.487 115.331 241.176 116.168 242.623 118.497C244.07 120.826 243.735 123.762 241.869 125.057ZM236.697 101.414C236.758 101.759 236.834 101.972 236.918 102.038C237.329 101.562 237.665 101.078 238.198 100.619C238.198 100.89 238.068 101.177 238.388 101.39C238.67 100.98 239.058 100.611 239.569 100.299C239.325 100.758 239.523 100.898 239.66 101.086C240.049 100.725 240.422 100.365 241.138 100.078C240.94 100.332 240.666 100.586 240.955 100.881C241.359 100.611 241.763 100.34 242.715 100.151C242.501 100.406 242.052 100.668 242.326 100.922C242.829 100.717 243.393 100.561 244.01 100.479C243.712 100.742 243.469 100.996 243.712 101.201C244.253 101.021 245 100.783 245.723 100.988L245.266 101.488C245.213 101.554 246.34 101.537 247.087 101.554C246.813 101.964 246.538 102.349 246.378 103.046C246.455 103.128 246.82 103.079 247.171 103.046C246.813 103.858 246.196 104.055 246.051 104.408C246.272 104.588 246.569 104.539 246.904 104.416C246.645 104.982 246.112 105.375 245.685 105.835C245.792 105.917 245.982 105.966 246.424 105.908C246.028 106.359 245.556 106.77 244.992 107.139C245.091 107.262 245.434 107.262 245.754 107.27C245.244 107.803 244.588 108.082 243.971 108.434C244.276 108.656 244.497 108.607 244.733 108.607C244.299 108.992 243.56 109.189 242.875 109.427C243.004 109.648 243.134 109.705 243.415 109.763C242.692 110.198 241.648 110.001 241.359 110.222C241.427 110.444 241.633 110.583 241.869 110.698C240.696 110.772 237.505 110.649 236.888 108.049C238.083 106.63 240.27 104.974 244.025 102.915C241.1 103.965 238.464 105.375 236.255 107.303C233.643 105.999 235.433 102.718 236.697 101.414ZM234.077 110.813C235.92 110.788 238.198 112.272 238.19 113.658C238.183 114.888 236.591 115.881 234.092 115.864C231.647 115.832 230.002 114.618 230.009 113.42C230.009 112.445 232.005 110.755 234.077 110.813ZM224.708 109.763C224.99 109.705 225.119 109.64 225.249 109.427C224.563 109.197 223.824 108.992 223.39 108.607C223.626 108.607 223.847 108.664 224.152 108.434C223.535 108.082 222.88 107.803 222.37 107.27C222.689 107.262 223.032 107.27 223.131 107.139C222.568 106.77 222.095 106.359 221.699 105.908C222.141 105.966 222.331 105.917 222.438 105.835C222.012 105.375 221.471 104.982 221.219 104.416C221.547 104.539 221.852 104.58 222.072 104.408C221.928 104.063 221.311 103.858 220.953 103.046C221.303 103.079 221.669 103.128 221.745 103.046C221.585 102.349 221.303 101.956 221.037 101.554C221.783 101.546 222.91 101.554 222.857 101.488L222.4 100.988C223.124 100.783 223.87 101.021 224.411 101.201C224.655 100.996 224.403 100.742 224.114 100.479C224.731 100.57 225.287 100.717 225.797 100.922C226.064 100.668 225.622 100.406 225.409 100.151C226.361 100.34 226.765 100.611 227.168 100.881C227.458 100.586 227.184 100.332 226.985 100.078C227.701 100.356 228.075 100.725 228.463 101.086C228.593 100.898 228.798 100.758 228.555 100.299C229.065 100.611 229.453 100.98 229.735 101.39C230.048 101.177 229.926 100.881 229.926 100.619C230.459 101.078 230.794 101.562 231.205 102.038C231.289 101.972 231.358 101.759 231.426 101.414C232.691 102.718 234.481 105.999 231.883 107.303C229.674 105.375 227.039 103.965 224.114 102.915C227.869 104.965 230.055 106.63 231.251 108.049C230.642 110.657 227.442 110.772 226.269 110.698C226.506 110.583 226.711 110.435 226.78 110.222C226.475 109.992 225.439 110.189 224.708 109.763ZM229.286 111.739C230.565 111.969 223.146 118.833 223.032 117.308C222.918 113.314 225.812 111.116 229.286 111.739ZM221.41 127.059C219.605 125.517 219.026 121.014 222.37 118.997C224.388 118.423 223.055 127.838 221.41 127.059ZM228.341 135.112C227.328 135.76 224.853 135.497 223.101 132.824C221.92 130.577 222.072 128.297 222.903 127.624C224.144 126.821 226.064 127.903 227.542 129.724C228.829 131.364 229.415 134.259 228.341 135.112ZM226.33 125.295C224.464 124 224.129 121.064 225.576 118.735C227.024 116.406 229.712 115.569 231.579 116.865C233.445 118.161 233.78 121.096 232.333 123.426C230.878 125.755 228.189 126.591 226.33 125.295ZM234.115 139.688C231.876 139.786 229.682 137.744 229.712 137.039C229.682 135.997 232.439 135.186 234.229 135.235C236.035 135.153 238.464 135.85 238.472 136.785C238.51 137.687 236.278 139.729 234.115 139.688ZM238.601 129.445C238.617 131.881 236.606 133.857 234.123 133.873C231.639 133.89 229.613 131.922 229.598 129.494V129.445C229.583 127.009 231.594 125.033 234.077 125.016C236.56 125 238.586 126.968 238.601 129.396V129.445ZM244.863 132.947C242.936 135.784 240.323 135.891 239.356 135.104C238.342 134.087 239.112 130.929 240.506 129.199C242.098 127.288 243.804 126.042 244.992 127.018C245.792 127.862 246.264 131.044 244.863 132.947ZM246.607 126.944C244.969 127.715 243.636 118.308 245.647 118.882C248.991 120.908 248.412 125.41 246.607 126.944Z" fill="#FFF100"/>
<circle cx="325" cy="120" r="33.5" fill="black"/>
<path d="M325 142.75C337.426 142.75 347.5 132.676 347.5 120.25C347.5 107.824 337.426 97.75 325 97.75C312.574 97.75 302.5 107.824 302.5 120.25C302.5 132.676 312.574 142.75 325 142.75Z" fill="#FFF100"/>
<path d="M325 100.375C327.61 100.375 330.195 100.889 332.606 101.888C335.017 102.887 337.208 104.351 339.054 106.196C340.899 108.042 342.363 110.233 343.362 112.644C344.361 115.056 344.875 117.64 344.875 120.25L325 120.25V100.375Z" fill="black"/>
<mask id="path-8-outside-1_5060_643" maskUnits="userSpaceOnUse" x="318.625" y="113.875" width="29" height="13" fill="black">
<rect fill="white" x="318.625" y="113.875" width="29" height="13"/>
<path fill-rule="evenodd" clip-rule="evenodd" d="M328.321 120.25C328.321 122.114 326.822 123.625 324.973 123.625C323.124 123.625 321.625 122.114 321.625 120.25C321.625 118.386 323.124 116.875 324.973 116.875C326.822 116.875 328.321 118.386 328.321 120.25ZM329.722 119.082V121.582L344.722 121.582L344.722 119.082L329.722 119.082Z"/>
</mask>
<path fill-rule="evenodd" clip-rule="evenodd" d="M328.321 120.25C328.321 122.114 326.822 123.625 324.973 123.625C323.124 123.625 321.625 122.114 321.625 120.25C321.625 118.386 323.124 116.875 324.973 116.875C326.822 116.875 328.321 118.386 328.321 120.25ZM329.722 119.082V121.582L344.722 121.582L344.722 119.082L329.722 119.082Z" fill="black"/>
<path d="M329.722 121.582H327.097C327.097 122.278 327.374 122.946 327.866 123.438C328.358 123.931 329.026 124.207 329.722 124.207V121.582ZM329.722 119.082V116.457C328.273 116.457 327.097 117.632 327.097 119.082H329.722ZM344.722 121.582V124.207C345.419 124.207 346.086 123.931 346.578 123.438C347.071 122.946 347.347 122.278 347.347 121.582L344.722 121.582ZM344.722 119.082L347.347 119.082C347.347 117.632 346.172 116.457 344.722 116.457V119.082ZM324.973 126.25C328.291 126.25 330.946 123.544 330.946 120.25H325.696C325.696 120.685 325.352 121 324.973 121V126.25ZM319 120.25C319 123.544 321.654 126.25 324.973 126.25V121C324.594 121 324.25 120.685 324.25 120.25H319ZM324.973 114.25C321.654 114.25 319 116.957 319 120.25H324.25C324.25 119.816 324.594 119.5 324.973 119.5V114.25ZM330.946 120.25C330.946 116.957 328.291 114.25 324.973 114.25V119.5C325.352 119.5 325.696 119.816 325.696 120.25H330.946ZM332.347 121.582V119.082H327.097V121.582H332.347ZM344.722 118.957L329.722 118.957V124.207L344.722 124.207V118.957ZM342.097 119.082L342.097 121.582L347.347 121.582L347.347 119.082L342.097 119.082ZM329.722 121.707L344.722 121.707V116.457L329.722 116.457V121.707Z" fill="#FFF100" mask="url(#path-8-outside-1_5060_643)"/>
<mask id="path-10-outside-2_5060_643" maskUnits="userSpaceOnUse" x="318.625" y="113.875" width="29" height="13" fill="black">
<rect fill="white" x="318.625" y="113.875" width="29" height="13"/>
<path fill-rule="evenodd" clip-rule="evenodd" d="M328.321 120.25C328.321 122.114 326.822 123.625 324.973 123.625C323.124 123.625 321.625 122.114 321.625 120.25C321.625 118.386 323.124 116.875 324.973 116.875C326.822 116.875 328.321 118.386 328.321 120.25ZM329.722 119.082V121.582L343.472 121.582C344.163 121.582 344.722 121.022 344.722 120.332C344.722 119.642 344.163 119.082 343.472 119.082L329.722 119.082Z"/>
</mask>
<path fill-rule="evenodd" clip-rule="evenodd" d="M328.321 120.25C328.321 122.114 326.822 123.625 324.973 123.625C323.124 123.625 321.625 122.114 321.625 120.25C321.625 118.386 323.124 116.875 324.973 116.875C326.822 116.875 328.321 118.386 328.321 120.25ZM329.722 119.082V121.582L343.472 121.582C344.163 121.582 344.722 121.022 344.722 120.332C344.722 119.642 344.163 119.082 343.472 119.082L329.722 119.082Z" fill="black"/>
<path d="M329.722 121.582H327.097C327.097 122.278 327.374 122.946 327.866 123.438C328.358 123.931 329.026 124.207 329.722 124.207V121.582ZM329.722 119.082V116.457C328.273 116.457 327.097 117.632 327.097 119.082H329.722ZM343.472 121.582V118.957V121.582ZM343.472 119.082V116.457V119.082ZM324.973 126.25C328.291 126.25 330.946 123.544 330.946 120.25H325.696C325.696 120.685 325.352 121 324.973 121V126.25ZM319 120.25C319 123.544 321.654 126.25 324.973 126.25V121C324.594 121 324.25 120.685 324.25 120.25H319ZM324.973 114.25C321.654 114.25 319 116.957 319 120.25H324.25C324.25 119.816 324.594 119.5 324.973 119.5V114.25ZM330.946 120.25C330.946 116.957 328.291 114.25 324.973 114.25V119.5C325.352 119.5 325.696 119.816 325.696 120.25H330.946ZM332.347 121.582V119.082H327.097V121.582H332.347ZM343.472 118.957L329.722 118.957V124.207L343.472 124.207V118.957ZM342.097 120.332C342.097 119.573 342.713 118.957 343.472 118.957V124.207C345.612 124.207 347.347 122.472 347.347 120.332H342.097ZM343.472 121.707C342.713 121.707 342.097 121.091 342.097 120.332H347.347C347.347 118.192 345.612 116.457 343.472 116.457V121.707ZM329.722 121.707L343.472 121.707V116.457L329.722 116.457V121.707Z" fill="#FFF100" mask="url(#path-10-outside-2_5060_643)"/>
<rect x="322.75" y="95.5" width="4.50001" height="2.62501" fill="#FFF100"/>
<rect x="340.925" y="101.218" width="4.50001" height="2.62477" transform="rotate(45 340.925 101.218)" fill="#FFF100"/>
</g>
<defs>
<clipPath id="clip0_5060_643">
<rect width="560" height="240" fill="white"/>
</clipPath>
<clipPath id="clip1_5060_643">
<rect width="560" height="240" fill="white" transform="translate(0 1)"/>
</clipPath>
</defs>
</svg>
