<svg width="560" height="240" viewBox="0 0 560 240" fill="none" xmlns="http://www.w3.org/2000/svg">
<g clip-path="url(#clip0_8483_38537)">
<rect width="560" height="240" fill="#FFF100"/>
<g clip-path="url(#clip1_8483_38537)">
<rect width="560" height="240" fill="#FFF100"/>
<path d="M333 49.847L333 -0.999985C333 -12.0457 341.954 -21 353 -21L583 -21C594.046 -21 603 -12.0457 603 -1.00001L603 175C603 186.046 594.046 195 583 195L504.429 195C493.383 195 484.429 186.046 484.429 175L484.429 89.8471C484.429 78.8014 475.474 69.8471 464.429 69.8471L353 69.8471C341.954 69.8471 333 60.8927 333 49.847Z" fill="#EDDD0C"/>
<path d="M84.4164 123.352L51.5 123.352C40.4543 123.352 31.5 114.397 31.5 103.352L31.5 66.9999C31.5 55.9542 40.4543 46.9999 51.5 46.9999L102.5 46.9999C113.546 46.9999 122.5 38.0456 122.5 26.9999L122.5 -34.0001C122.5 -45.0458 113.546 -54.0001 102.5 -54.0001L-26 -54.0001C-37.0457 -54.0001 -46 -45.0457 -46 -34.0001L-46 241.5C-46 252.546 -37.0457 261.5 -26 261.5L222 261.5C233.046 261.5 242 252.546 242 241.5L242 206.5C242 195.454 233.046 186.5 222 186.5L124.416 186.5C113.371 186.5 104.416 177.546 104.416 166.5L104.416 143.352C104.416 132.306 95.4621 123.352 84.4164 123.352Z" fill="#EDDD0C"/>
</g>
<rect x="247" y="87" width="65" height="65" rx="10" fill="#0D0D0D"/>
<rect x="257" y="96.5" width="20" height="20.5" rx="2" fill="#FFF100"/>
<rect x="257" y="122" width="20" height="20.5" rx="2" fill="#FFF100"/>
<rect x="282" y="96.5" width="20" height="20.5" rx="2" fill="#FFF100"/>
<rect x="282" y="122" width="20" height="20.5" rx="2" fill="#FFF100"/>
<path d="M295.785 107.103C295.785 103.284 294.417 101.422 292.27 101.422C290.085 101.422 288.755 103.284 288.755 107.103C288.755 110.96 290.085 112.803 292.27 112.803C294.455 112.803 295.785 110.96 295.785 107.103ZM297.628 107.103C297.628 111.454 295.937 114.247 292.27 114.247C288.603 114.247 286.912 111.454 286.912 107.103C286.912 102.752 288.603 99.978 292.27 99.978C295.937 99.978 297.628 102.752 297.628 107.103Z" fill="black"/>
<path d="M295.645 129.633C295.645 127.733 294.486 126.422 292.662 126.422C290.876 126.422 289.641 127.752 289.641 129.633C289.641 131.514 290.876 132.882 292.643 132.882C294.448 132.882 295.645 131.514 295.645 129.633ZM292.472 137.803C294.6 137.803 295.778 135.675 295.873 132.483C295.246 133.566 294.049 134.402 292.225 134.402C289.679 134.402 287.798 132.502 287.798 129.709C287.798 127.163 289.698 124.978 292.643 124.978C296.082 124.978 297.659 127.372 297.659 131.628C297.659 135.504 296.234 139.247 292.282 139.247C289.584 139.247 288.33 137.556 288.026 135.808H289.907C290.135 137.043 291.047 137.803 292.472 137.803Z" fill="black"/>
<path d="M260 114L265.111 100.225H267.353L272.54 114H270.45L269.367 111.017H263.04L261.976 114H260ZM266.175 102.182L263.629 109.364H268.759L266.175 102.182Z" fill="black"/>
<path d="M272.172 125.225V126.897L264.078 137.328H272.476V139H261.779V137.328L269.892 126.897H262.406V125.225H272.172Z" fill="black"/>
</g>
<defs>
<clipPath id="clip0_8483_38537">
<rect width="560" height="240" fill="white"/>
</clipPath>
<clipPath id="clip1_8483_38537">
<rect width="560" height="240" fill="white"/>
</clipPath>
</defs>
</svg>
