<svg width="560" height="240" viewBox="0 0 560 240" fill="none" xmlns="http://www.w3.org/2000/svg">
<g clip-path="url(#clip0_7218_1916)">
<rect width="560" height="240" fill="#FFF100"/>
<g clip-path="url(#clip1_7218_1916)">
<rect width="560" height="240" fill="#FFF100"/>
<path d="M515.501 253L515.501 97.5C515.501 86.4543 506.546 77.5 495.501 77.5L337 77.5001C325.954 77.5001 317 68.5458 317 57.5001L317 -29C317 -40.0457 325.954 -49 337 -49L579.913 -49C590.959 -49 599.913 -40.0457 599.913 -29L599.913 253C599.913 264.046 590.959 273 579.913 273L535.501 273C524.455 273 515.501 264.046 515.501 253Z" fill="#EDDD0C"/>
<path d="M261 188.299L261 224C261 235.046 252.046 244 241 244L0.999988 244C-10.0457 244 -19 235.046 -19 224L-19 55C-19 43.9543 -10.0457 35 0.999969 35L28.651 35C39.6967 35 48.651 43.9543 48.651 55L48.651 148.299C48.651 159.345 57.6053 168.299 68.651 168.299L241 168.299C252.046 168.299 261 177.253 261 188.299Z" fill="#EDDD0C"/>
<rect width="199" height="153" rx="20" transform="matrix(-1 0 0 1 121 196)" fill="#FFF100"/>
</g>
<path d="M133 153.5C114.553 153.5 99.5 138.595 99.5 120C99.5 101.405 114.405 86.5 133 86.5C151.595 86.5 166.5 101.405 166.5 120C166.5 138.595 151.595 153.5 133 153.5Z" fill="#0D0D0D"/>
<path d="M142.98 104.22C140.299 101.537 136.773 100.195 133.252 100.195C129.728 100.195 126.205 101.537 123.523 104.218C118.159 109.58 118.159 118.309 123.523 123.673L128.336 128.487C128.339 128.491 128.341 128.491 128.344 128.496L133.251 133.401L138.164 128.489V128.487L142.977 123.673C148.344 118.309 148.344 109.582 142.98 104.22ZM133.252 122.928C128.297 122.928 124.267 118.898 124.267 113.943C124.267 108.991 128.297 104.961 133.252 104.961C138.207 104.961 142.237 108.991 142.237 113.943C142.234 118.901 138.207 122.928 133.252 122.928Z" fill="#FFF100"/>
<path d="M145.826 135.076C145.826 133.349 143.199 131.565 139.361 130.637L134.084 135.914C133.852 136.146 133.549 136.26 133.246 136.26C132.944 136.26 132.641 136.144 132.409 135.914L127.132 130.637C123.296 131.565 120.667 133.349 120.667 135.076C120.667 137.5 125.83 140.202 133.242 140.202C140.663 140.202 145.826 137.5 145.826 135.076Z" fill="#FFF100"/>
<path d="M133.252 107.33C129.603 107.33 126.636 110.297 126.636 113.946C126.636 117.595 129.603 120.562 133.252 120.562C136.901 120.562 139.868 117.595 139.868 113.946C139.868 110.297 136.901 107.33 133.252 107.33Z" fill="#FFF100"/>
<rect x="191.5" y="88" width="64" height="64" rx="32" fill="#0D0D0D"/>
<mask id="mask0_7218_1916" style="mask-type:alpha" maskUnits="userSpaceOnUse" x="222" y="105" width="16" height="31">
<rect x="222.85" y="105.254" width="14.3" height="29.9" fill="#FFF100"/>
</mask>
<g mask="url(#mask0_7218_1916)">
<rect x="237.425" y="105.254" width="20.6134" height="20.6134" transform="rotate(45 237.425 105.254)" fill="#FFF100"/>
</g>
<mask id="mask1_7218_1916" style="mask-type:alpha" maskUnits="userSpaceOnUse" x="209" y="104" width="16" height="31">
<rect width="14.3" height="29.9" transform="matrix(-1 0 0 1 224.149 104.846)" fill="#FFF100"/>
</mask>
<g mask="url(#mask1_7218_1916)">
<rect width="20.6134" height="20.6134" transform="matrix(-0.707107 0.707107 0.707107 0.707107 209.574 104.846)" fill="#FFF100"/>
</g>
<path d="M287.492 128.73C285.836 128.73 284.517 128.301 283.536 127.442C282.555 126.568 282.064 125.372 282.064 123.854H284.341C284.341 124.743 284.625 125.441 285.192 125.947C285.759 126.453 286.526 126.706 287.492 126.706C288.412 126.706 289.14 126.453 289.677 125.947C290.229 125.426 290.505 124.736 290.505 123.877C290.505 123.233 290.329 122.673 289.976 122.198C289.623 121.707 289.125 121.378 288.481 121.209L285.997 120.542C284.908 120.235 284.042 119.683 283.398 118.886C282.769 118.073 282.455 117.115 282.455 116.011C282.455 115.106 282.654 114.317 283.053 113.642C283.467 112.952 284.042 112.423 284.778 112.055C285.514 111.672 286.365 111.48 287.331 111.48C288.312 111.48 289.171 111.672 289.907 112.055C290.658 112.423 291.241 112.944 291.655 113.619C292.069 114.294 292.276 115.076 292.276 115.965H290.022C290.022 115.229 289.769 114.631 289.263 114.171C288.772 113.711 288.128 113.481 287.331 113.481C286.534 113.481 285.89 113.711 285.399 114.171C284.924 114.631 284.686 115.229 284.686 115.965C284.686 116.563 284.847 117.069 285.169 117.483C285.491 117.882 285.943 118.165 286.526 118.334L289.079 119.024C290.229 119.331 291.126 119.921 291.77 120.795C292.414 121.654 292.736 122.681 292.736 123.877C292.736 124.858 292.521 125.717 292.092 126.453C291.663 127.174 291.049 127.733 290.252 128.132C289.47 128.531 288.55 128.73 287.492 128.73ZM296.315 132.64V115.85H298.569V118.288H298.592C298.715 117.46 299.083 116.808 299.696 116.333C300.309 115.858 301.091 115.62 302.042 115.62C303.299 115.62 304.304 116.049 305.055 116.908C305.806 117.751 306.182 118.901 306.182 120.358V123.969C306.182 125.441 305.806 126.606 305.055 127.465C304.304 128.308 303.299 128.73 302.042 128.73C301.107 128.73 300.332 128.492 299.719 128.017C299.106 127.542 298.73 126.89 298.592 126.062H298.546L298.592 128.983V132.64H296.315ZM301.237 126.752C302.08 126.752 302.732 126.537 303.192 126.108C303.667 125.663 303.905 124.95 303.905 123.969V120.381C303.905 119.4 303.667 118.694 303.192 118.265C302.732 117.82 302.08 117.598 301.237 117.598C300.424 117.598 299.78 117.851 299.305 118.357C298.83 118.863 298.592 119.576 298.592 120.496V123.854C298.592 124.774 298.83 125.487 299.305 125.993C299.78 126.499 300.424 126.752 301.237 126.752ZM313.809 128.73C312.506 128.73 311.471 128.37 310.704 127.649C309.953 126.913 309.577 125.955 309.577 124.774C309.577 123.593 309.968 122.643 310.75 121.922C311.547 121.201 312.59 120.841 313.878 120.841H317.581V119.875C317.581 118.326 316.722 117.552 315.005 117.552C314.238 117.552 313.617 117.698 313.142 117.989C312.682 118.265 312.437 118.656 312.406 119.162H310.152C310.229 118.135 310.696 117.291 311.555 116.632C312.414 115.957 313.564 115.62 315.005 115.62C316.554 115.62 317.75 115.988 318.593 116.724C319.436 117.46 319.858 118.495 319.858 119.829V128.5H317.627V126.177H317.581C317.474 126.959 317.083 127.58 316.408 128.04C315.749 128.5 314.882 128.73 313.809 128.73ZM314.407 126.821C315.373 126.821 316.14 126.591 316.707 126.131C317.29 125.656 317.581 125.012 317.581 124.199V122.52H314.085C313.426 122.52 312.889 122.719 312.475 123.118C312.076 123.501 311.877 124.015 311.877 124.659C311.877 125.318 312.099 125.847 312.544 126.246C312.989 126.629 313.61 126.821 314.407 126.821ZM330.038 128.5C328.949 128.5 328.083 128.186 327.439 127.557C326.81 126.928 326.496 126.093 326.496 125.05V117.92H322.885V115.85H326.496V112.285H328.773V115.85H333.902V117.92H328.773V125.027C328.773 125.441 328.888 125.778 329.118 126.039C329.363 126.3 329.685 126.43 330.084 126.43H333.787V128.5H330.038ZM337.573 128.5V126.43H342.012V117.92H338.033V115.85H344.289V126.43H348.452V128.5H337.573ZM342.932 113.619C342.411 113.619 341.997 113.489 341.69 113.228C341.383 112.952 341.23 112.584 341.23 112.124C341.23 111.649 341.383 111.273 341.69 110.997C341.997 110.721 342.411 110.583 342.932 110.583C343.453 110.583 343.867 110.721 344.174 110.997C344.481 111.273 344.634 111.649 344.634 112.124C344.634 112.584 344.481 112.952 344.174 113.228C343.867 113.489 343.453 113.619 342.932 113.619ZM355.182 128.73C353.879 128.73 352.844 128.37 352.077 127.649C351.326 126.913 350.95 125.955 350.95 124.774C350.95 123.593 351.341 122.643 352.123 121.922C352.92 121.201 353.963 120.841 355.251 120.841H358.954V119.875C358.954 118.326 358.095 117.552 356.378 117.552C355.611 117.552 354.99 117.698 354.515 117.989C354.055 118.265 353.81 118.656 353.779 119.162H351.525C351.602 118.135 352.069 117.291 352.928 116.632C353.787 115.957 354.937 115.62 356.378 115.62C357.927 115.62 359.123 115.988 359.966 116.724C360.809 117.46 361.231 118.495 361.231 119.829V128.5H359V126.177H358.954C358.847 126.959 358.456 127.58 357.781 128.04C357.122 128.5 356.255 128.73 355.182 128.73ZM355.78 126.821C356.746 126.821 357.513 126.591 358.08 126.131C358.663 125.656 358.954 125.012 358.954 124.199V122.52H355.458C354.799 122.52 354.262 122.719 353.848 123.118C353.449 123.501 353.25 124.015 353.25 124.659C353.25 125.318 353.472 125.847 353.917 126.246C354.362 126.629 354.983 126.821 355.78 126.821ZM372.032 128.5C370.882 128.5 369.962 128.163 369.272 127.488C368.582 126.813 368.237 125.916 368.237 124.797V113.78H363.913V111.71H370.514V124.774C370.514 125.28 370.652 125.686 370.928 125.993C371.219 126.284 371.61 126.43 372.101 126.43H375.942V128.5H372.032ZM392.852 132.64V130.57H395.819C396.724 130.57 397.421 130.317 397.912 129.811C398.418 129.32 398.671 128.63 398.671 127.741V117.92H392.737V115.85H400.948V127.764C400.948 129.251 400.488 130.432 399.568 131.306C398.648 132.195 397.414 132.64 395.865 132.64H392.852ZM399.614 113.619C399.093 113.619 398.679 113.489 398.372 113.228C398.065 112.952 397.912 112.584 397.912 112.124C397.912 111.649 398.065 111.273 398.372 110.997C398.679 110.721 399.093 110.583 399.614 110.583C400.135 110.583 400.549 110.721 400.856 110.997C401.163 111.273 401.316 111.649 401.316 112.124C401.316 112.584 401.163 112.952 400.856 113.228C400.549 113.489 400.135 113.619 399.614 113.619ZM411.519 128.684C409.97 128.684 408.736 128.239 407.816 127.35C406.911 126.461 406.459 125.219 406.459 123.624V120.726C406.459 119.131 406.911 117.889 407.816 117C408.736 116.111 409.97 115.666 411.519 115.666C413.068 115.666 414.294 116.111 415.199 117C416.119 117.889 416.579 119.131 416.579 120.726V123.624C416.579 125.219 416.119 126.461 415.199 127.35C414.294 128.239 413.068 128.684 411.519 128.684ZM411.519 126.683C412.378 126.683 413.052 126.445 413.543 125.97C414.049 125.479 414.302 124.766 414.302 123.831V120.519C414.302 119.584 414.049 118.878 413.543 118.403C413.052 117.912 412.378 117.667 411.519 117.667C410.66 117.667 409.978 117.912 409.472 118.403C408.981 118.878 408.736 119.584 408.736 120.519V123.831C408.736 124.766 408.981 125.479 409.472 125.97C409.978 126.445 410.66 126.683 411.519 126.683ZM420.319 128.5V126.43H424.758V117.92H420.779V115.85H427.035V126.43H431.198V128.5H420.319ZM425.678 113.619C425.157 113.619 424.743 113.489 424.436 113.228C424.129 112.952 423.976 112.584 423.976 112.124C423.976 111.649 424.129 111.273 424.436 110.997C424.743 110.721 425.157 110.583 425.678 110.583C426.199 110.583 426.613 110.721 426.92 110.997C427.227 111.273 427.38 111.649 427.38 112.124C427.38 112.584 427.227 112.952 426.92 113.228C426.613 113.489 426.199 113.619 425.678 113.619ZM434.225 128.5V115.85H436.479V118.265H436.502C436.61 117.437 436.955 116.793 437.537 116.333C438.135 115.858 438.917 115.62 439.883 115.62C441.141 115.62 442.145 116.019 442.896 116.816C443.648 117.613 444.023 118.687 444.023 120.036V128.5H441.746V120.404C441.746 119.484 441.516 118.779 441.056 118.288C440.596 117.797 439.968 117.552 439.17 117.552C438.342 117.552 437.691 117.813 437.215 118.334C436.74 118.84 436.502 119.553 436.502 120.473V128.5H434.225ZM452.386 128.684C450.945 128.684 449.826 128.362 449.028 127.718C448.231 127.074 447.832 126.169 447.832 125.004H450.086C450.086 125.556 450.286 125.993 450.684 126.315C451.098 126.622 451.666 126.775 452.386 126.775H453.398C454.15 126.775 454.725 126.614 455.123 126.292C455.537 125.97 455.744 125.518 455.744 124.935C455.744 123.908 455.238 123.333 454.226 123.21L450.822 122.727C449.918 122.589 449.22 122.221 448.729 121.623C448.239 121.01 447.993 120.22 447.993 119.254C447.993 118.119 448.377 117.238 449.143 116.609C449.91 115.98 450.983 115.666 452.363 115.666H453.375C454.663 115.666 455.706 115.973 456.503 116.586C457.301 117.199 457.722 118.012 457.768 119.024H455.468C455.438 118.595 455.238 118.242 454.87 117.966C454.502 117.675 454.004 117.529 453.375 117.529H452.363C451.673 117.529 451.137 117.682 450.753 117.989C450.385 118.296 450.201 118.71 450.201 119.231C450.201 120.074 450.623 120.55 451.466 120.657L454.663 121.117C456.856 121.408 457.952 122.681 457.952 124.935C457.952 126.131 457.554 127.059 456.756 127.718C455.974 128.362 454.855 128.684 453.398 128.684H452.386Z" fill="black"/>
</g>
<defs>
<clipPath id="clip0_7218_1916">
<rect width="560" height="240" fill="white"/>
</clipPath>
<clipPath id="clip1_7218_1916">
<rect width="560" height="240" fill="white"/>
</clipPath>
</defs>
</svg>
