<svg xmlns="http://www.w3.org/2000/svg" width="367" height="206" fill="none" viewBox="0 0 367 206"><g clip-path="url(#clip0_3959_17193)"><rect width="367" height="206" fill="#B7ABFF"/><path fill="#000" d="M202.955 71.0458C197.594 65.6795 190.543 62.9963 183.501 62.9963C176.454 62.9963 169.408 65.6795 164.046 71.0411C153.318 81.7644 153.318 99.2219 164.046 109.949L173.671 119.575C173.676 119.584 173.681 119.584 173.686 119.594L183.5 129.404L193.324 119.579V119.575L202.95 109.949C213.683 99.2213 213.683 81.7684 202.955 71.0458ZM183.501 108.459C173.591 108.459 165.532 100.4 165.532 90.4909C165.532 80.5863 173.591 72.5274 183.501 72.5274C193.41 72.5274 201.469 80.5864 201.469 90.4909C201.464 100.405 193.41 108.459 183.501 108.459Z"/><path fill="#000" d="M208.648 132.754C208.648 129.299 203.395 125.731 195.719 123.876L185.167 134.429C184.703 134.893 184.097 135.12 183.491 135.12C182.886 135.12 182.28 134.888 181.816 134.429L171.263 123.876C163.592 125.731 158.335 129.299 158.335 132.754C158.335 137.599 168.66 143.004 183.482 143.004C198.322 143.004 208.648 137.599 208.648 132.754Z"/><path fill="#000" d="M183.501 77.2644C176.204 77.2644 170.269 83.1986 170.269 90.4959C170.269 97.793 176.203 103.727 183.501 103.727C190.798 103.727 196.732 97.7932 196.732 90.4959C196.732 83.1988 190.798 77.2644 183.501 77.2644Z"/><path fill="#A293FF" d="M31.5 280.5L31.5 86.5C31.5001 75.4543 40.4543 66.5 51.5 66.5L109.5 66.5C120.546 66.5 129.5 57.5457 129.5 46.5L129.5 -1.00001L-2.99994 -0.999927L-2.99999 300.5L11.5 300.5C22.5457 300.5 31.5 291.546 31.5 280.5Z"/><path fill="#A293FF" d="M309.501 -13L375.501 -13L375.501 205.5L151.5 205.5L151.5 184.5C151.5 173.454 160.454 164.5 171.5 164.5L329.001 164.5C340.046 164.5 349.001 155.546 349.001 144.5L349.001 84.9999C349.001 73.9542 340.046 65 329.001 64.9999L309.5 64.9998C298.455 64.9998 289.501 56.0455 289.501 44.9998L289.501 7C289.501 -4.0457 298.455 -13 309.501 -13Z"/><path fill="#B7ABFF" d="M-95.5 31.5L12.1925 31.5L51.5 31.5C62.5457 31.5 71.5 22.5457 71.5 11.5L71.5 -50.5C71.5 -61.5457 62.5457 -70.5 51.5 -70.5L-95.5 -70.5C-106.546 -70.5 -115.5 -61.5457 -115.5 -50.5L-115.5 11.5C-115.5 22.5457 -106.546 31.5 -95.5 31.5Z"/></g><defs><clipPath id="clip0_3959_17193"><rect width="367" height="206" fill="#fff"/></clipPath></defs></svg>