<svg xmlns="http://www.w3.org/2000/svg" width="560" height="240" fill="none" viewBox="0 0 560 240"><g clip-path="url(#clip0_4745_632)"><rect width="560" height="240" fill="#FFF100"/><g clip-path="url(#clip1_4745_632)"><rect width="560" height="240" fill="#FFF100"/><path fill="url(#paint0_linear_4745_632)" d="M387 170.5L451.783 170.5C462.828 170.5 471.782 161.546 471.782 150.5L471.782 67.5001C471.782 56.4544 480.737 47.5001 491.782 47.5001L692.082 47.5001C703.128 47.5001 712.082 56.4544 712.082 67.5001L712.082 241.913C712.082 252.958 703.128 261.913 692.082 261.913L387 261.913C375.954 261.913 367 252.958 367 241.913L367 190.5C367 179.454 375.954 170.5 387 170.5Z"/><path fill="url(#paint1_linear_4745_632)" d="M141.127 314L141.127 77.9839C141.127 66.9382 150.081 57.9839 161.127 57.9839L199.812 57.9839C210.857 57.9839 219.812 49.0296 219.812 37.9839L219.812 -86.9999C219.812 -98.0456 210.857 -107 199.812 -107L-54.0001 -107C-65.0458 -107 -74.0001 -98.0457 -74.0001 -87L-74.0002 314C-74.0002 325.046 -65.0458 334 -54.0002 334L121.127 334C132.173 334 141.127 325.046 141.127 314Z"/><rect width="546" height="169" x="417" y="194" fill="#FFF100" rx="20"/><rect width="598" height="204" x="-513" y="-43" fill="#FFF100" rx="20"/></g><path stroke="#000" stroke-width="3" d="M252.875 114.179C259.702 114.179 265.236 111.901 265.236 109.09C265.236 106.279 259.702 104 252.875 104C246.049 104 240.515 106.279 240.515 109.09C240.515 111.901 246.049 114.179 252.875 114.179Z"/><path stroke="#000" stroke-width="3" d="M240.515 109.09V130.903C240.572 131.572 240.948 132.235 241.622 132.853C242.296 133.472 243.254 134.034 244.443 134.507C245.631 134.98 247.025 135.356 248.547 135.612C250.069 135.868 251.687 136 253.31 136C254.934 136 256.53 135.868 258.007 135.612C259.485 135.356 260.816 134.98 261.923 134.507C263.031 134.034 263.893 133.472 264.462 132.853C265.03 132.235 265.293 131.572 265.236 130.903V109.09M240.515 116.361C240.572 117.03 240.948 117.693 241.622 118.311C242.296 118.93 243.254 119.492 244.443 119.965C245.631 120.438 247.025 120.814 248.547 121.07C250.069 121.326 251.687 121.458 253.31 121.458C254.934 121.458 256.53 121.326 258.007 121.07C259.485 120.814 260.816 120.438 261.923 119.965C263.031 119.492 263.893 118.93 264.462 118.311C265.03 117.693 265.293 117.03 265.236 116.361M240.515 123.632C240.572 124.301 240.948 124.964 241.622 125.582C242.296 126.201 243.254 126.763 244.443 127.236C245.631 127.709 247.025 128.085 248.547 128.341C250.069 128.597 251.687 128.729 253.31 128.729C254.934 128.729 256.53 128.597 258.007 128.341C259.485 128.085 260.816 127.709 261.923 127.236C263.031 126.763 263.893 126.201 264.462 125.582C265.03 124.964 265.293 124.301 265.236 123.632"/><path fill="#000" d="M280.133 121.324L278.109 120.933C275.464 120.381 273.302 119.047 273.302 116.218C273.302 113.113 276.545 111.526 279.604 111.526C282.916 111.526 285.469 113.021 286.136 116.494H283.307C282.824 114.493 281.099 113.918 279.443 113.918C278.155 113.918 276.246 114.493 276.246 116.126C276.246 117.414 277.281 118.058 278.73 118.334L280.777 118.725C283.698 119.277 286.481 120.381 286.481 123.716C286.481 127.097 283.146 128.799 279.857 128.799C275.878 128.799 273.21 126.66 272.842 122.98H275.717C276.246 125.28 277.695 126.407 279.995 126.407C281.973 126.407 283.56 125.51 283.56 123.9C283.56 122.175 281.72 121.623 280.133 121.324ZM303.486 120.151C303.486 122.934 302.612 125.211 300.979 126.752L302.957 129.098L301.163 130.593L299.047 128.086C298.012 128.569 296.839 128.799 295.528 128.799C290.629 128.799 287.57 125.28 287.57 120.151C287.57 114.999 290.629 111.526 295.528 111.526C300.427 111.526 303.486 114.999 303.486 120.151ZM290.583 120.151C290.583 124.222 292.768 126.407 295.528 126.407C296.195 126.407 296.816 126.292 297.345 126.039L295.988 124.406L297.759 122.911L299.185 124.613C299.99 123.532 300.473 122.083 300.473 120.151C300.473 116.103 298.288 113.918 295.528 113.918C292.768 113.918 290.583 116.103 290.583 120.151ZM308.414 111.825V126.039H316.809V128.5H305.493V111.825H308.414Z"/></g><defs><linearGradient id="paint0_linear_4745_632" x1="400.322" x2="400.322" y1="65.999" y2="234.499" gradientUnits="userSpaceOnUse"><stop stop-color="#EDDD0C"/><stop offset="1" stop-color="#F3E71B"/></linearGradient><linearGradient id="paint1_linear_4745_632" x1="72.906" x2="72.906" y1="349.513" y2="-53.814" gradientUnits="userSpaceOnUse"><stop stop-color="#EDDD0C"/><stop offset="1" stop-color="#F3E71B"/></linearGradient><clipPath id="clip0_4745_632"><rect width="560" height="240" fill="#fff"/></clipPath><clipPath id="clip1_4745_632"><rect width="560" height="240" fill="#fff"/></clipPath></defs></svg>