<svg xmlns="http://www.w3.org/2000/svg" width="560" height="240" fill="none" viewBox="0 0 560 240"><g clip-path="url(#clip0_8935_2385)"><rect width="560" height="240" fill="#FFF100"/><g clip-path="url(#clip1_8935_2385)"><rect width="560" height="240" fill="#FFF100"/><path fill="#EDDD0C" d="M436.5 103L498.5 103C509.546 103 518.5 111.954 518.5 123L518.5 246.896C518.5 257.941 527.454 266.896 538.5 266.896L715 266.896C726.046 266.896 735 257.941 735 246.896L735 3.98244C735 -7.06326 726.046 -16.0176 715 -16.0176L436.5 -16.0175C425.454 -16.0175 416.5 -7.06325 416.5 3.98244L416.5 82.9998C416.5 94.0455 425.454 103 436.5 103Z"/><path fill="#EDDD0C" d="M-6.00012 -51L246.097 -51C257.299 -51 266.316 -41.8006 266.093 -30.6009L265.015 23.399C264.798 34.287 255.91 43 245.019 43L98.899 43C87.7467 43 78.7488 52.1215 78.9009 63.2728L80.2309 160.773C80.3801 171.711 89.2897 180.5 100.229 180.5L326.5 180.5C337.546 180.5 346.5 189.454 346.5 200.5L346.5 283C346.5 294.046 337.546 303 326.5 303L-6.00008 303C-17.0458 303 -26.0001 294.046 -26.0001 283L-26.0001 -31C-26.0001 -42.0457 -17.0458 -51 -6.00012 -51Z"/><rect width="291" height="125" fill="#FFF100" rx="20" transform="matrix(1 -2.3597e-08 -2.3597e-08 -1 476 62)"/><rect width="265" height="145" fill="#FFF100" rx="20" transform="matrix(1 -2.3597e-08 -2.3597e-08 -1 -227 271)"/></g><path fill="#0D0D0D" d="M160.5 153.5C141.967 153.5 127 138.533 127 120C127 101.467 141.967 86.5 160.5 86.5C179.033 86.5 194 101.467 194 120C194 138.533 179.033 153.5 160.5 153.5Z"/><path fill="#FFF100" d="M178.412 115.03H171.84V124.948H178.412C181.137 124.948 183.401 122.684 183.401 119.959C183.401 117.214 181.137 115.03 178.412 115.03Z"/><path fill="#FFF100" d="M139.641 120C139.641 127.654 145.872 133.885 153.526 133.885C161.18 133.885 167.411 127.654 167.411 120C167.411 112.346 161.18 106.115 153.526 106.115C145.872 106.115 139.641 112.346 139.641 120Z"/><path fill="#0D0D0D" d="M219 96.5C219 90.9772 223.477 86.5 229 86.5H273C278.523 86.5 283 90.9772 283 96.5V140.5C283 146.023 278.523 150.5 273 150.5H229C223.477 150.5 219 146.023 219 140.5V96.5Z"/><path fill="#867F07" d="M275.644 118.013L267.427 122.013V119.013H249V117.013H267.427V114.013L275.644 118.013Z"/><path fill="#867F07" d="M234.5 118.053C234.5 126.114 236.464 132.648 238.886 132.648L252.5 132.648L253.217 103.458L238.886 103.458C236.464 103.458 234.5 109.993 234.5 118.053Z"/><path stroke="#FFF100" stroke-width="2" d="M248.5 118.011L227 118.012"/><path fill="#FFF100" d="M243.695 118.053C243.695 126.114 241.731 132.648 239.309 132.648L258.114 132.648C260.536 132.648 262.5 126.114 262.5 118.053C262.5 109.993 260.536 103.458 258.114 103.458L239.309 103.458C241.731 103.458 243.695 109.993 243.695 118.053Z"/><path fill="#000" d="M314.992 114.73C313.336 114.73 312.017 114.301 311.036 113.442C310.055 112.568 309.564 111.372 309.564 109.854H311.841C311.841 110.743 312.125 111.441 312.692 111.947C313.259 112.453 314.026 112.706 314.992 112.706C315.912 112.706 316.64 112.453 317.177 111.947C317.729 111.426 318.005 110.736 318.005 109.877C318.005 109.233 317.829 108.673 317.476 108.198C317.123 107.707 316.625 107.378 315.981 107.209L313.497 106.542C312.408 106.235 311.542 105.683 310.898 104.886C310.269 104.073 309.955 103.115 309.955 102.011C309.955 101.106 310.154 100.317 310.553 99.642C310.967 98.952 311.542 98.423 312.278 98.055C313.014 97.6717 313.865 97.48 314.831 97.48C315.812 97.48 316.671 97.6717 317.407 98.055C318.158 98.423 318.741 98.9443 319.155 99.619C319.569 100.294 319.776 101.076 319.776 101.965H317.522C317.522 101.229 317.269 100.631 316.763 100.171C316.272 99.711 315.628 99.481 314.831 99.481C314.034 99.481 313.39 99.711 312.899 100.171C312.424 100.631 312.186 101.229 312.186 101.965C312.186 102.563 312.347 103.069 312.669 103.483C312.991 103.882 313.443 104.165 314.026 104.334L316.579 105.024C317.729 105.331 318.626 105.921 319.27 106.795C319.914 107.654 320.236 108.681 320.236 109.877C320.236 110.858 320.021 111.717 319.592 112.453C319.163 113.174 318.549 113.733 317.752 114.132C316.97 114.531 316.05 114.73 314.992 114.73ZM329.956 114.5C328.867 114.5 328.001 114.186 327.357 113.557C326.728 112.928 326.414 112.093 326.414 111.05V103.92H322.803V101.85H326.414V98.285H328.691V101.85H333.82V103.92H328.691V111.027C328.691 111.441 328.806 111.778 329.036 112.039C329.281 112.3 329.603 112.43 330.002 112.43H333.705V114.5H329.956ZM338.066 114.5V101.85H340.32V104.288H340.343C340.466 103.46 340.818 102.808 341.401 102.333C341.999 101.858 342.789 101.62 343.77 101.62C345.073 101.62 346.085 102.026 346.806 102.839C347.527 103.636 347.887 104.763 347.887 106.22V107.324H345.61V106.243C345.61 104.48 344.744 103.598 343.011 103.598C342.137 103.598 341.47 103.851 341.01 104.357C340.565 104.863 340.343 105.584 340.343 106.519V114.5H338.066ZM356.273 114.73C354.755 114.73 353.528 114.278 352.593 113.373C351.673 112.468 351.213 111.234 351.213 109.67V106.68C351.213 105.116 351.673 103.882 352.593 102.977C353.528 102.072 354.755 101.62 356.273 101.62C357.285 101.62 358.167 101.827 358.918 102.241C359.685 102.64 360.275 103.207 360.689 103.943C361.118 104.664 361.333 105.507 361.333 106.473V108.75H353.444V109.854C353.444 110.774 353.697 111.495 354.203 112.016C354.709 112.537 355.399 112.798 356.273 112.798C357.009 112.798 357.615 112.66 358.09 112.384C358.565 112.108 358.849 111.725 358.941 111.234H361.218C361.065 112.307 360.536 113.158 359.631 113.787C358.726 114.416 357.607 114.73 356.273 114.73ZM353.444 106.473V107.071H359.102V106.473C359.102 105.507 358.857 104.763 358.366 104.242C357.875 103.721 357.178 103.46 356.273 103.46C355.368 103.46 354.671 103.721 354.18 104.242C353.689 104.763 353.444 105.507 353.444 106.473ZM368.891 114.73C367.588 114.73 366.553 114.37 365.786 113.649C365.035 112.913 364.659 111.955 364.659 110.774C364.659 109.593 365.05 108.643 365.832 107.922C366.629 107.201 367.672 106.841 368.96 106.841H372.663V105.875C372.663 104.326 371.804 103.552 370.087 103.552C369.32 103.552 368.699 103.698 368.224 103.989C367.764 104.265 367.519 104.656 367.488 105.162H365.234C365.311 104.135 365.778 103.291 366.637 102.632C367.496 101.957 368.646 101.62 370.087 101.62C371.636 101.62 372.832 101.988 373.675 102.724C374.518 103.46 374.94 104.495 374.94 105.829V114.5H372.709V112.177H372.663C372.556 112.959 372.165 113.58 371.49 114.04C370.831 114.5 369.964 114.73 368.891 114.73ZM369.489 112.821C370.455 112.821 371.222 112.591 371.789 112.131C372.372 111.656 372.663 111.012 372.663 110.199V108.52H369.167C368.508 108.52 367.971 108.719 367.557 109.118C367.158 109.501 366.959 110.015 366.959 110.659C366.959 111.318 367.181 111.847 367.626 112.246C368.071 112.629 368.692 112.821 369.489 112.821ZM378.266 114.5V101.85H380.198V103.575H380.267C380.328 102.992 380.543 102.525 380.911 102.172C381.294 101.804 381.777 101.62 382.36 101.62C382.927 101.62 383.403 101.789 383.786 102.126C384.169 102.463 384.445 102.916 384.614 103.483C384.706 102.9 384.944 102.448 385.327 102.126C385.71 101.789 386.193 101.62 386.776 101.62C387.573 101.62 388.217 101.927 388.708 102.54C389.199 103.138 389.444 103.92 389.444 104.886V114.5H387.374V104.909C387.374 104.434 387.251 104.058 387.006 103.782C386.776 103.491 386.462 103.345 386.063 103.345C385.664 103.345 385.35 103.483 385.12 103.759C384.89 104.035 384.775 104.418 384.775 104.909V114.5H382.935V104.909C382.935 104.434 382.82 104.058 382.59 103.782C382.36 103.491 382.046 103.345 381.647 103.345C381.248 103.345 380.926 103.483 380.681 103.759C380.451 104.035 380.336 104.418 380.336 104.909V114.5H378.266ZM392.655 114.5V112.43H397.094V103.92H393.115V101.85H399.371V112.43H403.534V114.5H392.655ZM398.014 99.619C397.493 99.619 397.079 99.4887 396.772 99.228C396.465 98.952 396.312 98.584 396.312 98.124C396.312 97.6487 396.465 97.273 396.772 96.997C397.079 96.721 397.493 96.583 398.014 96.583C398.535 96.583 398.949 96.721 399.256 96.997C399.563 97.273 399.716 97.6487 399.716 98.124C399.716 98.584 399.563 98.952 399.256 99.228C398.949 99.4887 398.535 99.619 398.014 99.619ZM406.561 114.5V101.85H408.815V104.265H408.838C408.945 103.437 409.29 102.793 409.873 102.333C410.471 101.858 411.253 101.62 412.219 101.62C413.476 101.62 414.481 102.019 415.232 102.816C415.983 103.613 416.359 104.687 416.359 106.036V114.5H414.082V106.404C414.082 105.484 413.852 104.779 413.392 104.288C412.932 103.797 412.303 103.552 411.506 103.552C410.678 103.552 410.026 103.813 409.551 104.334C409.076 104.84 408.838 105.553 408.838 106.473V114.5H406.561ZM421.985 118.64V116.616H425.55C426.24 116.616 426.792 116.417 427.206 116.018C427.62 115.635 427.827 115.106 427.827 114.431V113.373L427.873 111.188H427.85C427.697 111.97 427.321 112.576 426.723 113.005C426.14 113.434 425.389 113.649 424.469 113.649C423.166 113.649 422.138 113.235 421.387 112.407C420.636 111.564 420.26 110.414 420.26 108.957V106.358C420.26 104.901 420.636 103.751 421.387 102.908C422.138 102.049 423.166 101.62 424.469 101.62C425.358 101.62 426.094 101.835 426.677 102.264C427.275 102.693 427.658 103.284 427.827 104.035H427.85V101.85H430.081V114.454C430.081 115.742 429.675 116.762 428.862 117.513C428.049 118.264 426.945 118.64 425.55 118.64H421.985ZM425.182 111.74C425.995 111.74 426.639 111.487 427.114 110.981C427.589 110.475 427.827 109.762 427.827 108.842V106.473C427.827 105.568 427.589 104.863 427.114 104.357C426.639 103.851 425.995 103.598 425.182 103.598C424.339 103.598 423.687 103.843 423.227 104.334C422.767 104.809 422.537 105.461 422.537 106.289V109.049C422.537 109.877 422.767 110.536 423.227 111.027C423.687 111.502 424.339 111.74 425.182 111.74ZM310.024 142.5V125.71H315.475C316.548 125.71 317.476 125.917 318.258 126.331C319.04 126.745 319.646 127.328 320.075 128.079C320.504 128.815 320.719 129.697 320.719 130.724C320.719 131.736 320.504 132.618 320.075 133.369C319.646 134.105 319.032 134.68 318.235 135.094C317.453 135.508 316.533 135.715 315.475 135.715H312.301V142.5H310.024ZM312.301 133.691H315.475C316.364 133.691 317.07 133.423 317.591 132.886C318.112 132.334 318.373 131.613 318.373 130.724C318.373 129.819 318.112 129.099 317.591 128.562C317.07 128.01 316.364 127.734 315.475 127.734H312.301V133.691ZM327.518 142.73C326.215 142.73 325.18 142.37 324.413 141.649C323.662 140.913 323.286 139.955 323.286 138.774C323.286 137.593 323.677 136.643 324.459 135.922C325.256 135.201 326.299 134.841 327.587 134.841H331.29V133.875C331.29 132.326 330.431 131.552 328.714 131.552C327.947 131.552 327.326 131.698 326.851 131.989C326.391 132.265 326.146 132.656 326.115 133.162H323.861C323.938 132.135 324.405 131.291 325.264 130.632C326.123 129.957 327.273 129.62 328.714 129.62C330.263 129.62 331.459 129.988 332.302 130.724C333.145 131.46 333.567 132.495 333.567 133.829V142.5H331.336V140.177H331.29C331.183 140.959 330.792 141.58 330.117 142.04C329.458 142.5 328.591 142.73 327.518 142.73ZM328.116 140.821C329.082 140.821 329.849 140.591 330.416 140.131C330.999 139.656 331.29 139.012 331.29 138.199V136.52H327.794C327.135 136.52 326.598 136.719 326.184 137.118C325.785 137.501 325.586 138.015 325.586 138.659C325.586 139.318 325.808 139.847 326.253 140.246C326.698 140.629 327.319 140.821 328.116 140.821ZM343.747 142.5C342.658 142.5 341.792 142.186 341.148 141.557C340.519 140.928 340.205 140.093 340.205 139.05V131.92H336.594V129.85H340.205V126.285H342.482V129.85H347.611V131.92H342.482V139.027C342.482 139.441 342.597 139.778 342.827 140.039C343.072 140.3 343.394 140.43 343.793 140.43H347.496V142.5H343.747ZM357.538 142.5C356.449 142.5 355.583 142.186 354.939 141.557C354.31 140.928 353.996 140.093 353.996 139.05V131.92H350.385V129.85H353.996V126.285H356.273V129.85H361.402V131.92H356.273V139.027C356.273 139.441 356.388 139.778 356.618 140.039C356.863 140.3 357.185 140.43 357.584 140.43H361.287V142.5H357.538ZM370.064 142.73C368.546 142.73 367.319 142.278 366.384 141.373C365.464 140.468 365.004 139.234 365.004 137.67V134.68C365.004 133.116 365.464 131.882 366.384 130.977C367.319 130.072 368.546 129.62 370.064 129.62C371.076 129.62 371.958 129.827 372.709 130.241C373.476 130.64 374.066 131.207 374.48 131.943C374.909 132.664 375.124 133.507 375.124 134.473V136.75H367.235V137.854C367.235 138.774 367.488 139.495 367.994 140.016C368.5 140.537 369.19 140.798 370.064 140.798C370.8 140.798 371.406 140.66 371.881 140.384C372.356 140.108 372.64 139.725 372.732 139.234H375.009C374.856 140.307 374.327 141.158 373.422 141.787C372.517 142.416 371.398 142.73 370.064 142.73ZM367.235 134.473V135.071H372.893V134.473C372.893 133.507 372.648 132.763 372.157 132.242C371.666 131.721 370.969 131.46 370.064 131.46C369.159 131.46 368.462 131.721 367.971 132.242C367.48 132.763 367.235 133.507 367.235 134.473ZM379.439 142.5V129.85H381.693V132.288H381.716C381.839 131.46 382.191 130.808 382.774 130.333C383.372 129.858 384.162 129.62 385.143 129.62C386.446 129.62 387.458 130.026 388.179 130.839C388.9 131.636 389.26 132.763 389.26 134.22V135.324H386.983V134.243C386.983 132.48 386.117 131.598 384.384 131.598C383.51 131.598 382.843 131.851 382.383 132.357C381.938 132.863 381.716 133.584 381.716 134.519V142.5H379.439ZM392.77 142.5V129.85H395.024V132.265H395.047C395.154 131.437 395.499 130.793 396.082 130.333C396.68 129.858 397.462 129.62 398.428 129.62C399.685 129.62 400.69 130.019 401.441 130.816C402.192 131.613 402.568 132.687 402.568 134.036V142.5H400.291V134.404C400.291 133.484 400.061 132.779 399.601 132.288C399.141 131.797 398.512 131.552 397.715 131.552C396.887 131.552 396.235 131.813 395.76 132.334C395.285 132.84 395.047 133.553 395.047 134.473V142.5H392.77ZM410.931 142.684C409.49 142.684 408.37 142.362 407.573 141.718C406.776 141.074 406.377 140.169 406.377 139.004H408.631C408.631 139.556 408.83 139.993 409.229 140.315C409.643 140.622 410.21 140.775 410.931 140.775H411.943C412.694 140.775 413.269 140.614 413.668 140.292C414.082 139.97 414.289 139.518 414.289 138.935C414.289 137.908 413.783 137.333 412.771 137.21L409.367 136.727C408.462 136.589 407.765 136.221 407.274 135.623C406.783 135.01 406.538 134.22 406.538 133.254C406.538 132.119 406.921 131.238 407.688 130.609C408.455 129.98 409.528 129.666 410.908 129.666H411.92C413.208 129.666 414.251 129.973 415.048 130.586C415.845 131.199 416.267 132.012 416.313 133.024H414.013C413.982 132.595 413.783 132.242 413.415 131.966C413.047 131.675 412.549 131.529 411.92 131.529H410.908C410.218 131.529 409.681 131.682 409.298 131.989C408.93 132.296 408.746 132.71 408.746 133.231C408.746 134.074 409.168 134.55 410.011 134.657L413.208 135.117C415.401 135.408 416.497 136.681 416.497 138.935C416.497 140.131 416.098 141.059 415.301 141.718C414.519 142.362 413.4 142.684 411.943 142.684H410.931Z"/></g><defs><clipPath id="clip0_8935_2385"><rect width="560" height="240" fill="#fff"/></clipPath><clipPath id="clip1_8935_2385"><rect width="560" height="240" fill="#fff"/></clipPath></defs></svg>