<svg xmlns="http://www.w3.org/2000/svg" width="367" height="206" fill="none" viewBox="0 0 367 206"><g clip-path="url(#clip0_3660_2381)"><rect width="367" height="206" fill="#00C770"/><g filter="url(#filter0_d_3660_2381)"><path fill="#000" fill-opacity=".05" d="M112.5 184V250H389V80H355C343.954 80 335 88.9543 335 100V144C335 155.046 326.046 164 315 164L132.5 164C121.454 164 112.5 172.954 112.5 184Z" shape-rendering="crispEdges"/></g><path fill="#000" fill-opacity=".05" fill-rule="evenodd" d="M-31 25H63C74.0457 25 83 16.0457 83 5V-11H209L209 2.49998C209 13.5457 200.046 22.5 189 22.5H151.591C141.373 22.5 133.091 30.7827 133.091 41C133.091 51.2173 124.808 59.5 114.591 59.5H58.8366C47.7909 59.5 38.8366 68.4543 38.8366 79.5L38.8366 216H-31V25Z" clip-rule="evenodd"/><rect width="64" height="64" x="110.5" y="71" fill="#000" rx="7"/><path stroke="#00C770" stroke-linecap="round" stroke-width="5" d="M128.184 108.363L136.541 117.225C136.987 117.699 137.76 117.626 138.111 117.078L156.816 87.8418"/><rect width="67" height="67" x="189.5" y="69.5" fill="#000" rx="33.5"/><rect width="31" height="31" x="207.524" y="87.524" fill="#00C770" rx="15.5"/></g><defs><filter id="filter0_d_3660_2381" width="278.5" height="172" x="112.5" y="80" color-interpolation-filters="sRGB" filterUnits="userSpaceOnUse"><feFlood flood-opacity="0" result="BackgroundImageFix"/><feColorMatrix in="SourceAlpha" result="hardAlpha" type="matrix" values="0 0 0 0 0 0 0 0 0 0 0 0 0 0 0 0 0 0 127 0"/><feOffset dx="1" dy="1"/><feGaussianBlur stdDeviation=".5"/><feComposite in2="hardAlpha" operator="out"/><feColorMatrix type="matrix" values="0 0 0 0 0 0 0 0 0 0 0 0 0 0 0 0 0 0 0.17 0"/><feBlend in2="BackgroundImageFix" mode="normal" result="effect1_dropShadow_3660_2381"/><feBlend in="SourceGraphic" in2="effect1_dropShadow_3660_2381" mode="normal" result="shape"/></filter><clipPath id="clip0_3660_2381"><rect width="367" height="206" fill="#fff"/></clipPath></defs></svg>