<svg width="367" height="206" viewBox="0 0 367 206" fill="none" xmlns="http://www.w3.org/2000/svg">
<g clip-path="url(#clip0_3660_2381)">
<rect width="367" height="206" fill="#FF6900"/>
<g filter="url(#filter0_d_3660_2381)">
<path d="M112.5 177V243H389V73H355C343.954 73 335 81.9543 335 93V137C335 148.046 326.046 157 315 157L132.5 157C121.454 157 112.5 165.954 112.5 177Z" fill="#E35400"/>
</g>
<path fill-rule="evenodd" clip-rule="evenodd" d="M-31 40H42C53.0457 40 62 31.0457 62 20V-11H209L209 2.49998C209 13.5457 200.046 22.5 189 22.5H153.091C142.045 22.5 133.091 31.4543 133.091 42.5V55.5C133.091 66.5457 124.136 75.5 113.091 75.5H58.8366C47.7909 75.5 38.8366 84.4543 38.8366 95.5L38.8366 216H-31V40Z" fill="#E35400"/>
<rect x="132" y="85.5" width="35" height="35" rx="5.5" stroke="#E35400" stroke-width="3"/>
<path d="M141 106.185L145.605 111.068C146.051 111.541 146.824 111.469 147.175 110.92L158 94" stroke="#E35400" stroke-width="3" stroke-linecap="round"/>
<rect x="200" y="85.5" width="35" height="35" rx="17.5" stroke="#E35400" stroke-width="3"/>
<rect x="209" y="94" width="18" height="18" rx="9" fill="#E35400"/>
</g>
<defs>
<filter id="filter0_d_3660_2381" x="112.5" y="73" width="278.5" height="172" filterUnits="userSpaceOnUse" color-interpolation-filters="sRGB">
<feFlood flood-opacity="0" result="BackgroundImageFix"/>
<feColorMatrix in="SourceAlpha" type="matrix" values="0 0 0 0 0 0 0 0 0 0 0 0 0 0 0 0 0 0 127 0" result="hardAlpha"/>
<feOffset dx="1" dy="1"/>
<feGaussianBlur stdDeviation="0.5"/>
<feComposite in2="hardAlpha" operator="out"/>
<feColorMatrix type="matrix" values="0 0 0 0 0 0 0 0 0 0 0 0 0 0 0 0 0 0 0.17 0"/>
<feBlend mode="normal" in2="BackgroundImageFix" result="effect1_dropShadow_3660_2381"/>
<feBlend mode="normal" in="SourceGraphic" in2="effect1_dropShadow_3660_2381" result="shape"/>
</filter>
<clipPath id="clip0_3660_2381">
<rect width="367" height="206" fill="white"/>
</clipPath>
</defs>
</svg>
