<svg width="560" height="240" viewBox="0 0 560 240" fill="none" xmlns="http://www.w3.org/2000/svg">
<g clip-path="url(#clip0_4723_13231)">
<rect width="560" height="240" fill="#FFF100"/>
<g clip-path="url(#clip1_4723_13231)">
<rect width="560" height="240" fill="#FFF100"/>
<path d="M387 170.5L451.783 170.5C462.828 170.5 471.782 161.546 471.782 150.5L471.782 67.5001C471.782 56.4544 480.737 47.5001 491.782 47.5001L692.082 47.5001C703.128 47.5001 712.082 56.4544 712.082 67.5001L712.082 241.913C712.082 252.958 703.128 261.913 692.082 261.913L387 261.913C375.954 261.913 367 252.958 367 241.913L367 190.5C367 179.454 375.954 170.5 387 170.5Z" fill="url(#paint0_linear_4723_13231)"/>
<path d="M141.127 314L141.127 77.9839C141.127 66.9382 150.081 57.9839 161.127 57.9839L199.812 57.9839C210.857 57.9839 219.812 49.0296 219.812 37.9839L219.812 -86.9999C219.812 -98.0456 210.857 -107 199.812 -107L-54.0001 -107C-65.0458 -107 -74.0001 -98.0457 -74.0001 -87L-74.0002 314C-74.0002 325.046 -65.0458 334 -54.0002 334L121.127 334C132.173 334 141.127 325.046 141.127 314Z" fill="url(#paint1_linear_4723_13231)"/>
<rect x="417" y="194" width="546" height="169" rx="20" fill="#FFF100"/>
<rect x="-513" y="-43" width="598" height="204" rx="20" fill="#FFF100"/>
</g>
<rect x="202" y="88" width="64" height="64" rx="7" fill="black"/>
<path d="M219.684 125.363L228.041 134.225C228.487 134.699 229.26 134.626 229.611 134.078L248.316 104.842" stroke="#FFF100" stroke-width="5" stroke-linecap="round"/>
<rect x="291" y="86.5" width="67" height="67" rx="33.5" fill="black"/>
<rect x="309.024" y="104.524" width="31" height="31" rx="15.5" fill="#FFF100"/>
</g>
<defs>
<linearGradient id="paint0_linear_4723_13231" x1="400.322" y1="65.9995" x2="400.322" y2="234.499" gradientUnits="userSpaceOnUse">
<stop stop-color="#EDDD0C"/>
<stop offset="1" stop-color="#F3E71B"/>
</linearGradient>
<linearGradient id="paint1_linear_4723_13231" x1="72.9057" y1="349.513" x2="72.9058" y2="-53.8141" gradientUnits="userSpaceOnUse">
<stop stop-color="#EDDD0C"/>
<stop offset="1" stop-color="#F3E71B"/>
</linearGradient>
<clipPath id="clip0_4723_13231">
<rect width="560" height="240" fill="white"/>
</clipPath>
<clipPath id="clip1_4723_13231">
<rect width="560" height="240" fill="white"/>
</clipPath>
</defs>
</svg>
