<svg xmlns="http://www.w3.org/2000/svg" width="560" height="240" fill="none" viewBox="0 0 560 240"><g clip-path="url(#clip0_4723_13729)"><rect width="560" height="240" fill="#FFF100"/><g clip-path="url(#clip1_4723_13729)"><rect width="560" height="240" fill="#FFF100"/><path fill="url(#paint0_linear_4723_13729)" d="M387 170.5L451.783 170.5C462.828 170.5 471.782 161.546 471.782 150.5L471.782 67.5001C471.782 56.4544 480.737 47.5001 491.782 47.5001L692.082 47.5001C703.128 47.5001 712.082 56.4544 712.082 67.5001L712.082 241.913C712.082 252.958 703.128 261.913 692.082 261.913L387 261.913C375.954 261.913 367 252.958 367 241.913L367 190.5C367 179.454 375.954 170.5 387 170.5Z"/><path fill="url(#paint1_linear_4723_13729)" d="M141.127 314L141.127 77.9839C141.127 66.9382 150.081 57.9839 161.127 57.9839L199.812 57.9839C210.857 57.9839 219.812 49.0296 219.812 37.9839L219.812 -86.9999C219.812 -98.0456 210.857 -107 199.812 -107L-54.0001 -107C-65.0458 -107 -74.0001 -98.0457 -74.0001 -87L-74.0002 314C-74.0002 325.046 -65.0458 334 -54.0002 334L121.127 334C132.173 334 141.127 325.046 141.127 314Z"/><rect width="546" height="169" x="417" y="194" fill="#FFF100" rx="20"/><rect width="598" height="204" x="-513" y="-43" fill="#FFF100" rx="20"/></g><g filter="url(#filter0_d_4723_13729)"><path fill="#000" d="M280 153.5C261.467 153.5 246.5 138.533 246.5 120C246.5 101.467 261.467 86.5 280 86.5C298.533 86.5 313.5 101.467 313.5 120C313.5 138.533 298.533 153.5 280 153.5Z"/><path fill="#FFEF00" d="M274.25 103C272.523 103 271.1 104.44 271.1 106.187V107.25H268.573C266.839 107.25 265.278 108.343 264.665 109.985L261.859 117.501V117.506L261.72 117.875H259.55C258.97 117.875 258.5 118.351 258.5 118.938V121.063C258.5 121.649 258.97 122.125 259.55 122.125H260.6V135.938C260.6 136.524 261.07 137 261.65 137H265.85C266.43 137 266.9 136.524 266.9 135.938V132.75H292.1V135.938C292.1 136.524 292.57 137 293.15 137H297.35C297.93 137 298.4 136.524 298.4 135.938V122.125H299.45C300.03 122.125 300.5 121.649 300.5 121.063V118.938C300.5 118.351 300.03 117.875 299.45 117.875H297.28L297.141 117.502L294.335 109.985C293.722 108.343 292.161 107.25 290.427 107.25H287.9V106.188C287.9 104.44 286.477 103 284.75 103L274.25 103ZM268.573 109.375H290.427C291.295 109.375 292.064 109.915 292.371 110.736L295.18 118.261C295.333 118.682 295.251 119.045 294.975 119.386C294.697 119.73 294.208 120 293.585 120H265.415C264.792 120 264.303 119.73 264.025 119.386C263.746 119.041 263.664 118.675 263.824 118.248C263.826 118.24 263.83 118.231 263.832 118.224L266.629 110.736C266.936 109.915 267.705 109.375 268.573 109.375ZM267.95 124.25C269.097 124.25 270.05 125.214 270.05 126.375C270.05 127.536 269.097 128.5 267.95 128.5C266.803 128.5 265.85 127.536 265.85 126.375C265.85 125.214 266.803 124.25 267.95 124.25ZM291.05 124.25C292.197 124.25 293.15 125.214 293.15 126.375C293.15 127.536 292.197 128.5 291.05 128.5C289.903 128.5 288.95 127.536 288.95 126.375C288.95 125.214 289.903 124.25 291.05 124.25Z"/></g></g><defs><filter id="filter0_d_4723_13729" width="69" height="69" x="245.5" y="85.5" color-interpolation-filters="sRGB" filterUnits="userSpaceOnUse"><feFlood flood-opacity="0" result="BackgroundImageFix"/><feColorMatrix in="SourceAlpha" result="hardAlpha" type="matrix" values="0 0 0 0 0 0 0 0 0 0 0 0 0 0 0 0 0 0 127 0"/><feOffset/><feGaussianBlur stdDeviation=".5"/><feComposite in2="hardAlpha" operator="out"/><feColorMatrix type="matrix" values="0 0 0 0 0 0 0 0 0 0 0 0 0 0 0 0 0 0 0.17 0"/><feBlend in2="BackgroundImageFix" mode="normal" result="effect1_dropShadow_4723_13729"/><feBlend in="SourceGraphic" in2="effect1_dropShadow_4723_13729" mode="normal" result="shape"/></filter><linearGradient id="paint0_linear_4723_13729" x1="400.322" x2="400.322" y1="65.999" y2="234.499" gradientUnits="userSpaceOnUse"><stop stop-color="#EDDD0C"/><stop offset="1" stop-color="#F3E71B"/></linearGradient><linearGradient id="paint1_linear_4723_13729" x1="72.906" x2="72.906" y1="349.513" y2="-53.814" gradientUnits="userSpaceOnUse"><stop stop-color="#EDDD0C"/><stop offset="1" stop-color="#F3E71B"/></linearGradient><clipPath id="clip0_4723_13729"><rect width="560" height="240" fill="#fff"/></clipPath><clipPath id="clip1_4723_13729"><rect width="560" height="240" fill="#fff"/></clipPath></defs></svg>