<svg width="367" height="206" viewBox="0 0 367 206" fill="none" xmlns="http://www.w3.org/2000/svg">
<g clip-path="url(#clip0_3975_2556)">
<rect width="367" height="206" fill="#FFEF00"/>
<g filter="url(#filter0_d_3975_2556)">
<path d="M183.5 136.5C164.967 136.5 150 121.533 150 103C150 84.4668 164.967 69.5 183.5 69.5C202.033 69.5 217 84.4668 217 103C217 121.533 202.033 136.5 183.5 136.5Z" fill="black"/>
<path d="M177.75 86C176.023 86 174.6 87.44 174.6 89.1875V90.25H172.073C170.339 90.25 168.778 91.3431 168.165 92.9851L165.359 100.501V100.506L165.22 100.875H163.05C162.47 100.875 162 101.351 162 101.938V104.063C162 104.649 162.47 105.125 163.05 105.125H164.1V118.938C164.1 119.524 164.57 120 165.15 120H169.35C169.93 120 170.4 119.524 170.4 118.938V115.75H195.6V118.938C195.6 119.524 196.07 120 196.65 120H200.85C201.43 120 201.9 119.524 201.9 118.938V105.125H202.95C203.53 105.125 204 104.649 204 104.063V101.938C204 101.351 203.53 100.875 202.95 100.875H200.78L200.641 100.502L197.835 92.9852C197.222 91.3432 195.661 90.2501 193.927 90.2501H191.4V89.1876C191.4 87.4401 189.977 86.0001 188.25 86.0001L177.75 86ZM172.073 92.375H193.927C194.795 92.375 195.564 92.9147 195.871 93.7363L198.68 101.261C198.833 101.682 198.751 102.045 198.475 102.386C198.197 102.73 197.708 103 197.085 103H168.915C168.292 103 167.803 102.73 167.525 102.386C167.246 102.041 167.164 101.675 167.324 101.248C167.326 101.24 167.33 101.231 167.332 101.224L170.129 93.7363C170.436 92.9147 171.205 92.375 172.073 92.375ZM171.45 107.25C172.597 107.25 173.55 108.214 173.55 109.375C173.55 110.536 172.597 111.5 171.45 111.5C170.303 111.5 169.35 110.536 169.35 109.375C169.35 108.214 170.303 107.25 171.45 107.25ZM194.55 107.25C195.697 107.25 196.65 108.214 196.65 109.375C196.65 110.536 195.697 111.5 194.55 111.5C193.403 111.5 192.45 110.536 192.45 109.375C192.45 108.214 193.403 107.25 194.55 107.25Z" fill="#FFEF00"/>
</g>
<path d="M83 163.5L289 163.5C300.046 163.5 309 154.546 309 143.5L309 55C309 43.9543 317.954 35 329 35L392 35L392 206L63 206L63 183.5C62.9999 172.454 71.9543 163.5 83 163.5Z" fill="#EDDE00"/>
<path d="M52.9982 99.5002L52.998 58.0001C52.998 46.9544 61.9523 38 72.998 38L230.5 38C241.546 38 250.5 29.0457 250.5 18L250.5 -1.00029L1.99848 -1.00031L1.99847 119.5L32.9982 119.5C44.0439 119.5 52.9982 110.546 52.9982 99.5002Z" fill="#EDDE00"/>
<path d="M337 174L444.693 174L484 174C495.046 174 504 182.954 504 194L504 256C504 267.046 495.046 276 484 276L337 276C325.954 276 317 267.046 317 256L317 194C317 182.954 325.954 174 337 174Z" fill="#FFEF00"/>
<path d="M-115 -38L-22.3301 -38L10 -38C21.0457 -38 30 -29.0457 30 -18L30 32C30 43.0457 21.0457 52 10 52L-115 52C-126.046 52 -135 43.0457 -135 32L-135 -18C-135 -29.0457 -126.046 -38 -115 -38Z" fill="#FFEF00"/>
</g>
<defs>
<filter id="filter0_d_3975_2556" x="149" y="68.5" width="69" height="69" filterUnits="userSpaceOnUse" color-interpolation-filters="sRGB">
<feFlood flood-opacity="0" result="BackgroundImageFix"/>
<feColorMatrix in="SourceAlpha" type="matrix" values="0 0 0 0 0 0 0 0 0 0 0 0 0 0 0 0 0 0 127 0" result="hardAlpha"/>
<feOffset/>
<feGaussianBlur stdDeviation="0.5"/>
<feComposite in2="hardAlpha" operator="out"/>
<feColorMatrix type="matrix" values="0 0 0 0 0 0 0 0 0 0 0 0 0 0 0 0 0 0 0.17 0"/>
<feBlend mode="normal" in2="BackgroundImageFix" result="effect1_dropShadow_3975_2556"/>
<feBlend mode="normal" in="SourceGraphic" in2="effect1_dropShadow_3975_2556" result="shape"/>
</filter>
<clipPath id="clip0_3975_2556">
<rect width="367" height="206" fill="white"/>
</clipPath>
</defs>
</svg>
