<svg xmlns="http://www.w3.org/2000/svg" width="560" height="240" fill="none" viewBox="0 0 560 240"><g clip-path="url(#clip0_6672_25275)"><rect width="560" height="240" fill="#FFF100"/><g clip-path="url(#clip1_6672_25275)"><rect width="560" height="240" fill="#FFF100"/><path fill="#EDDD0C" d="M515.501 253L515.501 97.5C515.501 86.4543 506.546 77.5 495.501 77.5L337 77.5001C325.954 77.5001 317 68.5458 317 57.5001L317 -29C317 -40.0457 325.954 -49 337 -49L579.913 -49C590.959 -49 599.913 -40.0457 599.913 -29L599.913 253C599.913 264.046 590.959 273 579.913 273L535.501 273C524.455 273 515.501 264.046 515.501 253Z"/><path fill="#EDDD0C" d="M261 188.299L261 224C261 235.046 252.046 244 241 244L0.999988 244C-10.0457 244 -19 235.046 -19 224L-19 55C-19 43.9543 -10.0457 35 0.999969 35L28.651 35C39.6967 35 48.651 43.9543 48.651 55L48.651 148.299C48.651 159.345 57.6053 168.299 68.651 168.299L241 168.299C252.046 168.299 261 177.253 261 188.299Z"/><rect width="199" height="153" fill="#FFF100" rx="20" transform="matrix(-1 0 0 1 121 196)"/></g><path fill="#0D0D0D" d="M138.5 98C138.5 92.4772 142.977 88 148.5 88H192.5C198.023 88 202.5 92.4772 202.5 98V142C202.5 147.523 198.023 152 192.5 152H148.5C142.977 152 138.5 147.523 138.5 142V98Z"/><path fill="#FFF100" d="M172.25 132.356C172.25 132.825 172.434 133.274 172.763 133.605C173.091 133.936 173.536 134.122 174 134.122H177.5V137.652H173.125C172.163 137.652 170.5 136.858 170.5 135.887C170.5 136.858 168.838 137.652 167.875 137.652H163.5V134.122H167C167.464 134.122 167.909 133.936 168.237 133.605C168.566 133.274 168.75 132.825 168.75 132.356V107.643C168.75 107.175 168.566 106.726 168.237 106.395C167.909 106.064 167.464 105.878 167 105.878H163.5V102.348H167.875C168.838 102.348 170.5 103.142 170.5 104.113C170.5 103.142 172.163 102.348 173.125 102.348H177.5V105.878H174C173.536 105.878 173.091 106.064 172.763 106.395C172.434 106.726 172.25 107.175 172.25 107.643V132.356Z"/><path fill="#000" d="M233.273 128.5V113.78H228.719V111.71H240.081V113.78H235.55V128.5H233.273ZM248.191 128.73C246.673 128.73 245.446 128.278 244.511 127.373C243.591 126.468 243.131 125.234 243.131 123.67V120.68C243.131 119.116 243.591 117.882 244.511 116.977C245.446 116.072 246.673 115.62 248.191 115.62C249.203 115.62 250.085 115.827 250.836 116.241C251.603 116.64 252.193 117.207 252.607 117.943C253.036 118.664 253.251 119.507 253.251 120.473V122.75H245.362V123.854C245.362 124.774 245.615 125.495 246.121 126.016C246.627 126.537 247.317 126.798 248.191 126.798C248.927 126.798 249.533 126.66 250.008 126.384C250.483 126.108 250.767 125.725 250.859 125.234H253.136C252.983 126.307 252.454 127.158 251.549 127.787C250.644 128.416 249.525 128.73 248.191 128.73ZM245.362 120.473V121.071H251.02V120.473C251.02 119.507 250.775 118.763 250.284 118.242C249.793 117.721 249.096 117.46 248.191 117.46C247.286 117.46 246.589 117.721 246.098 118.242C245.607 118.763 245.362 119.507 245.362 120.473ZM256.14 128.5L260.625 121.991L256.439 115.85H259.084L261.453 119.553C261.56 119.737 261.66 119.929 261.752 120.128C261.859 120.327 261.944 120.488 262.005 120.611C262.051 120.488 262.12 120.327 262.212 120.128C262.319 119.929 262.427 119.737 262.534 119.553L264.903 115.85H267.548L263.362 122.014L267.824 128.5H265.156L262.58 124.521C262.473 124.352 262.365 124.161 262.258 123.946C262.151 123.716 262.066 123.532 262.005 123.394C261.928 123.532 261.836 123.716 261.729 123.946C261.622 124.161 261.507 124.352 261.384 124.521L258.808 128.5H256.14ZM277.038 128.5C275.949 128.5 275.083 128.186 274.439 127.557C273.81 126.928 273.496 126.093 273.496 125.05V117.92H269.885V115.85H273.496V112.285H275.773V115.85H280.902V117.92H275.773V125.027C275.773 125.441 275.888 125.778 276.118 126.039C276.363 126.3 276.685 126.43 277.084 126.43H280.787V128.5H277.038ZM302.182 128.73C300.879 128.73 299.844 128.37 299.077 127.649C298.326 126.913 297.95 125.955 297.95 124.774C297.95 123.593 298.341 122.643 299.123 121.922C299.92 121.201 300.963 120.841 302.251 120.841H305.954V119.875C305.954 118.326 305.095 117.552 303.378 117.552C302.611 117.552 301.99 117.698 301.515 117.989C301.055 118.265 300.81 118.656 300.779 119.162H298.525C298.602 118.135 299.069 117.291 299.928 116.632C300.787 115.957 301.937 115.62 303.378 115.62C304.927 115.62 306.123 115.988 306.966 116.724C307.809 117.46 308.231 118.495 308.231 119.829V128.5H306V126.177H305.954C305.847 126.959 305.456 127.58 304.781 128.04C304.122 128.5 303.255 128.73 302.182 128.73ZM302.78 126.821C303.746 126.821 304.513 126.591 305.08 126.131C305.663 125.656 305.954 125.012 305.954 124.199V122.52H302.458C301.799 122.52 301.262 122.719 300.848 123.118C300.449 123.501 300.25 124.015 300.25 124.659C300.25 125.318 300.472 125.847 300.917 126.246C301.362 126.629 301.983 126.821 302.78 126.821ZM312.27 128.5V115.85H314.524V118.265H314.547C314.654 117.437 314.999 116.793 315.582 116.333C316.18 115.858 316.962 115.62 317.928 115.62C319.185 115.62 320.19 116.019 320.941 116.816C321.692 117.613 322.068 118.687 322.068 120.036V128.5H319.791V120.404C319.791 119.484 319.561 118.779 319.101 118.288C318.641 117.797 318.012 117.552 317.215 117.552C316.387 117.552 315.735 117.813 315.26 118.334C314.785 118.84 314.547 119.553 314.547 120.473V128.5H312.27ZM329.764 128.73C328.461 128.73 327.426 128.37 326.659 127.649C325.908 126.913 325.532 125.955 325.532 124.774C325.532 123.593 325.923 122.643 326.705 121.922C327.502 121.201 328.545 120.841 329.833 120.841H333.536V119.875C333.536 118.326 332.677 117.552 330.96 117.552C330.193 117.552 329.572 117.698 329.097 117.989C328.637 118.265 328.392 118.656 328.361 119.162H326.107C326.184 118.135 326.651 117.291 327.51 116.632C328.369 115.957 329.519 115.62 330.96 115.62C332.509 115.62 333.705 115.988 334.548 116.724C335.391 117.46 335.813 118.495 335.813 119.829V128.5H333.582V126.177H333.536C333.429 126.959 333.038 127.58 332.363 128.04C331.704 128.5 330.837 128.73 329.764 128.73ZM330.362 126.821C331.328 126.821 332.095 126.591 332.662 126.131C333.245 125.656 333.536 125.012 333.536 124.199V122.52H330.04C329.381 122.52 328.844 122.719 328.43 123.118C328.031 123.501 327.832 124.015 327.832 124.659C327.832 125.318 328.054 125.847 328.499 126.246C328.944 126.629 329.565 126.821 330.362 126.821ZM346.614 128.5C345.464 128.5 344.544 128.163 343.854 127.488C343.164 126.813 342.819 125.916 342.819 124.797V113.78H338.495V111.71H345.096V124.774C345.096 125.28 345.234 125.686 345.51 125.993C345.801 126.284 346.192 126.43 346.683 126.43H350.524V128.5H346.614ZM355.644 132.64L357.484 127.741L352.769 115.85H355.184L358.036 123.325C358.159 123.647 358.281 123.992 358.404 124.36C358.527 124.728 358.611 125.05 358.657 125.326C358.703 125.05 358.78 124.728 358.887 124.36C358.994 123.992 359.109 123.647 359.232 123.325L361.877 115.85H364.292L358.013 132.64H355.644ZM373.575 128.5C372.486 128.5 371.62 128.186 370.976 127.557C370.347 126.928 370.033 126.093 370.033 125.05V117.92H366.422V115.85H370.033V112.285H372.31V115.85H377.439V117.92H372.31V125.027C372.31 125.441 372.425 125.778 372.655 126.039C372.9 126.3 373.222 126.43 373.621 126.43H377.324V128.5H373.575ZM381.11 128.5V126.43H385.549V117.92H381.57V115.85H387.826V126.43H391.989V128.5H381.11ZM386.469 113.619C385.948 113.619 385.534 113.489 385.227 113.228C384.921 112.952 384.767 112.584 384.767 112.124C384.767 111.649 384.921 111.273 385.227 110.997C385.534 110.721 385.948 110.583 386.469 110.583C386.991 110.583 387.405 110.721 387.711 110.997C388.018 111.273 388.171 111.649 388.171 112.124C388.171 112.584 388.018 112.952 387.711 113.228C387.405 113.489 386.991 113.619 386.469 113.619ZM400.076 128.73C398.528 128.73 397.286 128.301 396.35 127.442C395.415 126.568 394.947 125.372 394.947 123.854V120.473C394.947 118.97 395.415 117.79 396.35 116.931C397.286 116.057 398.528 115.62 400.076 115.62C401.564 115.62 402.76 116.019 403.664 116.816C404.584 117.598 405.067 118.671 405.113 120.036H402.859C402.813 119.269 402.537 118.679 402.031 118.265C401.541 117.836 400.889 117.621 400.076 117.621C399.202 117.621 398.505 117.874 397.983 118.38C397.477 118.871 397.224 119.568 397.224 120.473V123.854C397.224 124.774 397.477 125.479 397.983 125.97C398.505 126.461 399.202 126.706 400.076 126.706C400.904 126.706 401.564 126.499 402.054 126.085C402.545 125.671 402.813 125.081 402.859 124.314H405.113C405.067 125.679 404.584 126.76 403.664 127.557C402.76 128.339 401.564 128.73 400.076 128.73ZM413.177 128.684C411.736 128.684 410.617 128.362 409.819 127.718C409.022 127.074 408.623 126.169 408.623 125.004H410.877C410.877 125.556 411.077 125.993 411.475 126.315C411.889 126.622 412.457 126.775 413.177 126.775H414.189C414.941 126.775 415.516 126.614 415.914 126.292C416.328 125.97 416.535 125.518 416.535 124.935C416.535 123.908 416.029 123.333 415.017 123.21L411.613 122.727C410.709 122.589 410.011 122.221 409.52 121.623C409.03 121.01 408.784 120.22 408.784 119.254C408.784 118.119 409.168 117.238 409.934 116.609C410.701 115.98 411.774 115.666 413.154 115.666H414.166C415.454 115.666 416.497 115.973 417.294 116.586C418.092 117.199 418.513 118.012 418.559 119.024H416.259C416.229 118.595 416.029 118.242 415.661 117.966C415.293 117.675 414.795 117.529 414.166 117.529H413.154C412.464 117.529 411.928 117.682 411.544 117.989C411.176 118.296 410.992 118.71 410.992 119.231C410.992 120.074 411.414 120.55 412.257 120.657L415.454 121.117C417.647 121.408 418.743 122.681 418.743 124.935C418.743 126.131 418.345 127.059 417.547 127.718C416.765 128.362 415.646 128.684 414.189 128.684H413.177Z"/></g><defs><clipPath id="clip0_6672_25275"><rect width="560" height="240" fill="#fff"/></clipPath><clipPath id="clip1_6672_25275"><rect width="560" height="240" fill="#fff"/></clipPath></defs></svg>