<svg xmlns="http://www.w3.org/2000/svg" width="560" height="240" fill="none" viewBox="0 0 560 240"><g clip-path="url(#clip0_5952_8382)"><rect width="560" height="240" fill="#FFF100"/><g clip-path="url(#clip1_5952_8382)"><rect width="560" height="240" fill="#FFF100"/><path fill="#EDDD0C" d="M134.5 190.5L361 190.5C372.046 190.5 381 181.546 381 170.5L381 54.9999C381.001 43.9543 389.955 35 401 35L598.5 35C609.546 35 618.5 43.9543 618.5 55.0001L618.5 309C618.5 320.046 609.545 329 598.5 329L134.5 329C123.454 329 114.5 320.046 114.5 309L114.5 210.5C114.5 199.454 123.454 190.5 134.5 190.5Z"/><path fill="#EDDD0C" d="M186.5 50.8302L186.5 -21.9996C186.5 -33.0452 177.546 -41.9995 166.5 -41.9996L-27.9999 -42C-39.0457 -42 -48 -33.0457 -48 -22L-48 185C-48 196.046 -39.0457 205 -28 205L33.7692 205C44.8149 205 53.7692 196.046 53.7692 185L53.7693 90.8299C53.7693 79.7841 62.7236 70.8298 73.7693 70.8299L166.5 70.8302C177.546 70.8302 186.5 61.8759 186.5 50.8302Z"/><path fill="#FFF100" d="M686.5 100L539.885 100L482.5 100C471.454 100 462.5 108.954 462.5 120L462.5 340C462.5 351.046 471.454 360 482.5 360L686.5 360C697.546 360 706.5 351.046 706.5 340L706.5 120C706.5 108.954 697.546 100 686.5 100Z"/></g><rect width="67" height="67" x="200.5" y="86.5" fill="#0D0D0D" rx="33.5"/><path fill="#FFF100" d="M234.5 98.4585C231.611 98.4585 228.75 99.0275 226.081 100.133C223.412 101.239 220.987 102.859 218.944 104.902C214.818 109.028 212.5 114.624 212.5 120.458C212.5 126.293 214.818 131.889 218.944 136.015C220.987 138.058 223.412 139.678 226.081 140.784C228.75 141.889 231.611 142.458 234.5 142.458C240.335 142.458 245.931 140.141 250.056 136.015C254.182 131.889 256.5 126.293 256.5 120.458C256.5 117.569 255.931 114.709 254.825 112.039C253.72 109.37 252.099 106.945 250.056 104.902C248.013 102.859 245.588 101.239 242.919 100.133C240.25 99.0275 237.389 98.4585 234.5 98.4585ZM243.74 129.698L232.3 122.658V109.458H235.6V120.898L245.5 126.838L243.74 129.698Z"/><path fill="#000" d="M326 153.5C307.467 153.5 292.5 138.533 292.5 120C292.5 101.467 307.467 86.5 326 86.5C344.533 86.5 359.5 101.467 359.5 120C359.5 138.533 344.533 153.5 326 153.5Z"/><path fill="#FFF100" d="M343.913 115.031H337.341V124.949H343.913C346.637 124.949 348.902 122.684 348.902 119.96C348.902 117.215 346.637 115.031 343.913 115.031Z"/><path fill="#FFF100" d="M305.142 120C305.142 127.654 311.373 133.885 319.026 133.885C326.68 133.885 332.911 127.654 332.911 120C332.911 112.346 326.68 106.115 319.026 106.115C311.373 106.115 305.142 112.346 305.142 120Z"/></g><defs><clipPath id="clip0_5952_8382"><rect width="560" height="240" fill="#fff"/></clipPath><clipPath id="clip1_5952_8382"><rect width="560" height="240" fill="#fff"/></clipPath></defs></svg>