<svg xmlns="http://www.w3.org/2000/svg" width="367" height="206" fill="none" viewBox="0 0 367 206"><g clip-path="url(#clip0_4333_5584)"><rect width="367" height="206" fill="#FFEF00"/><path fill="#000" d="M148.666 105.866C148.666 104.761 149.561 103.866 150.666 103.866H167.889C168.993 103.866 169.889 104.761 169.889 105.866V121.999C169.889 123.103 168.993 123.999 167.889 123.999H150.666C149.561 123.999 148.666 123.103 148.666 121.999V105.866Z"/><path fill="#000" d="M172.889 84.0015C172.889 82.8969 173.784 82.0015 174.889 82.0015H192.112C193.216 82.0015 194.112 82.8969 194.112 84.0015V121.999C194.112 123.103 193.216 123.999 192.112 123.999H174.889C173.784 123.999 172.889 123.103 172.889 121.999V84.0015Z"/><path fill="#000" d="M197.112 94.8572C197.112 93.7526 198.007 92.8572 199.112 92.8572H216.335C217.439 92.8572 218.335 93.7526 218.335 94.8572V121.999C218.335 123.103 217.439 123.999 216.335 123.999H199.112C198.007 123.999 197.112 123.103 197.112 121.999V94.8572Z"/><path fill="#EDDE00" d="M161.5 12.5086L161.5 -31.0004L-19 -31.0004L-19 176L44 176C55.0457 176 64 167.046 64 156L64 52.5086C64 41.4629 72.9543 32.5086 84 32.5086L141.5 32.5086C152.546 32.5086 161.5 23.5543 161.5 12.5086Z"/><path fill="#EDDE00" d="M269.584 113.352L302.5 113.352C313.546 113.352 322.5 104.397 322.5 93.3515L322.5 56.9999C322.5 45.9542 313.546 36.9999 302.5 36.9999L251.5 36.9999C240.454 36.9999 231.5 28.0456 231.5 16.9999L231.5 -44.0001C231.5 -55.0458 240.454 -64.0001 251.5 -64.0001L380 -64.0001C391.046 -64.0001 400 -55.0457 400 -44.0001L400 231.5C400 242.546 391.046 251.5 380 251.5L132 251.5C120.954 251.5 112 242.546 112 231.5L112 196.5C112 185.454 120.954 176.5 132 176.5L229.584 176.5C240.629 176.5 249.584 167.546 249.584 156.5L249.584 133.352C249.584 122.306 258.538 113.352 269.584 113.352Z"/></g><defs><clipPath id="clip0_4333_5584"><rect width="367" height="206" fill="#fff"/></clipPath></defs></svg>