<svg width="560" height="240" viewBox="0 0 560 240" fill="none" xmlns="http://www.w3.org/2000/svg">
<g clip-path="url(#clip0_5035_635)">
<rect width="560" height="240" fill="#FFF100"/>
<g clip-path="url(#clip1_5035_635)">
<rect width="560" height="240" transform="translate(0 1)" fill="#FFF100"/>
<path d="M515.501 254L515.501 98.5C515.501 87.4543 506.546 78.5 495.501 78.5L337 78.5001C325.954 78.5001 317 69.5458 317 58.5001L317 -28C317 -39.0457 325.954 -48 337 -48L579.913 -48C590.959 -48 599.913 -39.0457 599.913 -28L599.913 254C599.913 265.046 590.959 274 579.913 274L535.501 274C524.455 274 515.501 265.046 515.501 254Z" fill="url(#paint0_linear_5035_635)"/>
<path d="M261 189.299L261 245L-19 245L-19 36L28.651 36C39.6967 36 48.651 44.9543 48.651 56L48.651 149.299C48.651 160.345 57.6053 169.299 68.651 169.299L241 169.299C252.046 169.299 261 178.253 261 189.299Z" fill="#EDDD00"/>
<rect width="199" height="153" rx="20" transform="matrix(-1 0 0 1 121 197)" fill="#FFEF00"/>
</g>
<rect x="117.5" y="87.5" width="65" height="65" rx="10" fill="black"/>
<path d="M149.941 136.5C141.318 136.5 136.758 131.127 136.758 121.014V106.52H140.008V121.149C140.008 129.411 143.259 133.43 149.941 133.43C156.624 133.43 159.874 129.366 159.874 121.149V106.52H163.125V121.014C163.125 131.127 158.61 136.5 149.941 136.5Z" fill="#FFF100"/>
<path d="M214.4 128.73C212.821 128.73 211.602 128.293 210.743 127.419C209.9 126.545 209.478 125.357 209.478 123.854V111.71H211.755V123.854C211.755 124.743 211.97 125.441 212.399 125.947C212.844 126.453 213.511 126.706 214.4 126.706C215.274 126.706 215.933 126.453 216.378 125.947C216.838 125.441 217.068 124.743 217.068 123.854V111.71H219.345V123.854C219.345 125.372 218.916 126.568 218.057 127.442C217.214 128.301 215.995 128.73 214.4 128.73ZM223.269 128.5V111.71H226.213L231.227 125.878C231.181 125.479 231.135 124.989 231.089 124.406C231.058 123.808 231.028 123.195 230.997 122.566C230.982 121.922 230.974 121.316 230.974 120.749V111.71H233.136V128.5H230.169L225.201 114.332C225.232 114.731 225.262 115.221 225.293 115.804C225.324 116.371 225.347 116.969 225.362 117.598C225.393 118.227 225.408 118.817 225.408 119.369V128.5H223.269ZM237.405 128.5V126.43H240.832V113.78H237.405V111.71H246.559V113.78H243.132V126.43H246.559V128.5H237.405ZM255.773 128.73C254.24 128.73 253.028 128.285 252.139 127.396C251.25 126.507 250.805 125.249 250.805 123.624V116.563C250.805 114.953 251.25 113.703 252.139 112.814C253.028 111.925 254.24 111.48 255.773 111.48C257.306 111.48 258.518 111.925 259.407 112.814C260.296 113.688 260.741 114.938 260.741 116.563V123.624C260.741 125.249 260.296 126.507 259.407 127.396C258.518 128.285 257.306 128.73 255.773 128.73ZM255.773 126.706C256.632 126.706 257.291 126.461 257.751 125.97C258.226 125.479 258.464 124.774 258.464 123.854V116.333C258.464 115.428 258.234 114.731 257.774 114.24C257.314 113.749 256.647 113.504 255.773 113.504C254.899 113.504 254.232 113.749 253.772 114.24C253.312 114.731 253.082 115.428 253.082 116.333V123.854C253.082 124.774 253.312 125.479 253.772 125.97C254.247 126.461 254.914 126.706 255.773 126.706ZM264.642 128.5V111.71H267.586L272.6 125.878C272.554 125.479 272.508 124.989 272.462 124.406C272.431 123.808 272.401 123.195 272.37 122.566C272.355 121.922 272.347 121.316 272.347 120.749V111.71H274.509V128.5H271.542L266.574 114.332C266.605 114.731 266.635 115.221 266.666 115.804C266.697 116.371 266.72 116.969 266.735 117.598C266.766 118.227 266.781 118.817 266.781 119.369V128.5H264.642ZM291.304 128.5L295.651 111.71H298.664L302.988 128.5H300.665L299.607 124.13H294.685L293.627 128.5H291.304ZM295.145 122.244H299.147L297.951 117.23C297.721 116.31 297.537 115.528 297.399 114.884C297.261 114.24 297.177 113.803 297.146 113.573C297.115 113.803 297.031 114.24 296.893 114.884C296.755 115.528 296.579 116.302 296.364 117.207L295.145 122.244ZM306.981 128.5V111.71H309.258V126.43H316.733V128.5H306.981ZM320.772 128.5V111.71H323.049V126.43H330.524V128.5H320.772ZM347.457 128.5V111.71H352.31C353.859 111.71 355.078 112.101 355.967 112.883C356.872 113.65 357.324 114.708 357.324 116.057C357.324 116.931 357.048 117.713 356.496 118.403C355.959 119.078 355.262 119.492 354.403 119.645V119.714C355.047 119.791 355.614 120.021 356.105 120.404C356.611 120.787 357.002 121.278 357.278 121.876C357.569 122.459 357.715 123.103 357.715 123.808C357.715 125.249 357.255 126.392 356.335 127.235C355.43 128.078 354.196 128.5 352.632 128.5H347.457ZM349.688 118.794H352.287C353.146 118.794 353.82 118.572 354.311 118.127C354.802 117.667 355.047 117.046 355.047 116.264C355.047 115.467 354.802 114.846 354.311 114.401C353.82 113.941 353.153 113.711 352.31 113.711H349.688V118.794ZM349.688 126.499H352.425C353.36 126.499 354.096 126.254 354.633 125.763C355.17 125.257 355.438 124.575 355.438 123.716C355.438 122.827 355.17 122.106 354.633 121.554C354.096 121.002 353.36 120.726 352.425 120.726H349.688V126.499ZM364.974 128.5V122.267L359.937 111.71H362.352L365.457 118.334C365.641 118.733 365.787 119.093 365.894 119.415C366.017 119.737 366.094 119.967 366.124 120.105C366.17 119.967 366.247 119.737 366.354 119.415C366.477 119.093 366.638 118.733 366.837 118.334L369.919 111.71H372.265L367.251 122.267V128.5H364.974ZM388.761 128.5V111.71H391.705L396.719 125.878C396.673 125.479 396.627 124.989 396.581 124.406C396.551 123.808 396.52 123.195 396.489 122.566C396.474 121.922 396.466 121.316 396.466 120.749V111.71H398.628V128.5H395.661L390.693 114.332C390.724 114.731 390.755 115.221 390.785 115.804C390.816 116.371 390.839 116.969 390.854 117.598C390.885 118.227 390.9 118.817 390.9 119.369V128.5H388.761ZM401.632 128.5L405.979 111.71H408.992L413.316 128.5H410.993L409.935 124.13H405.013L403.955 128.5H401.632ZM405.473 122.244H409.475L408.279 117.23C408.049 116.31 407.865 115.528 407.727 114.884C407.589 114.24 407.505 113.803 407.474 113.573C407.444 113.803 407.359 114.24 407.221 114.884C407.083 115.528 406.907 116.302 406.692 117.207L405.473 122.244ZM415.929 128.5V111.71H419.149L421.219 118.955L423.381 111.71H426.624V128.5H424.439V120.795C424.439 119.982 424.455 119.085 424.485 118.104C424.516 117.107 424.554 116.118 424.6 115.137C424.662 114.14 424.723 113.243 424.784 112.446L422.162 121.048H420.23L417.7 112.653C417.838 113.772 417.938 115.022 417.999 116.402C418.061 117.767 418.091 119.231 418.091 120.795V128.5H415.929ZM430.387 128.5V111.71H440.162V113.757H432.641V118.748H439.357V120.726H432.641V126.453H440.162V128.5H430.387Z" fill="black"/>
</g>
<defs>
<linearGradient id="paint0_linear_5035_635" x1="404" y1="-195.405" x2="572.5" y2="-195.405" gradientUnits="userSpaceOnUse">
<stop stop-color="#EDDD0C"/>
<stop offset="1" stop-color="#F3E71B"/>
</linearGradient>
<clipPath id="clip0_5035_635">
<rect width="560" height="240" fill="white"/>
</clipPath>
<clipPath id="clip1_5035_635">
<rect width="560" height="240" fill="white" transform="translate(0 1)"/>
</clipPath>
</defs>
</svg>
