<svg width="560" height="240" viewBox="0 0 560 240" fill="none" xmlns="http://www.w3.org/2000/svg">
<g clip-path="url(#clip0_6851_9867)">
<rect width="560" height="240" fill="#FFF100"/>
<g clip-path="url(#clip1_6851_9867)">
<rect width="560" height="240" fill="#FFF100"/>
<path d="M387 170.5L451.783 170.5C462.828 170.5 471.782 161.546 471.782 150.5L471.782 67.5001C471.782 56.4544 480.737 47.5001 491.782 47.5001L692.082 47.5001C703.128 47.5001 712.082 56.4544 712.082 67.5001L712.082 241.913C712.082 252.958 703.128 261.913 692.082 261.913L387 261.913C375.954 261.913 367 252.958 367 241.913L367 190.5C367 179.454 375.954 170.5 387 170.5Z" fill="#EDDD0C"/>
<path d="M141.127 314L141.127 77.9839C141.127 66.9382 150.081 57.9839 161.127 57.9839L199.812 57.9839C210.857 57.9839 219.812 49.0296 219.812 37.9839L219.812 -86.9999C219.812 -98.0456 210.857 -107 199.812 -107L-54.0001 -107C-65.0458 -107 -74.0001 -98.0457 -74.0001 -87L-74.0002 314C-74.0002 325.046 -65.0458 334 -54.0002 334L121.127 334C132.173 334 141.127 325.046 141.127 314Z" fill="#EDDD0C"/>
<rect x="417" y="194" width="546" height="169" rx="20" fill="#FFF100"/>
<rect x="-513" y="-43" width="598" height="204" rx="20" fill="#FFF100"/>
</g>
<path d="M173 98C173 92.4772 177.477 88 183 88H227C232.523 88 237 92.4772 237 98V142C237 147.523 232.523 152 227 152H183C177.477 152 173 147.523 173 142V98Z" fill="#0D0D0D"/>
<path d="M204.522 111.504C207.422 111.504 209.772 109.197 209.772 106.35C209.772 103.504 207.422 101.196 204.522 101.196C201.623 101.196 199.272 103.504 199.272 106.35C199.272 109.197 201.623 111.504 204.522 111.504Z" stroke="#FFF100" stroke-width="2" stroke-linecap="round"/>
<path d="M204.979 111.504L205 132.481" stroke="#FFF100" stroke-width="2" stroke-linecap="round"/>
<path d="M198 119.444H212M199.273 138.804L204.979 132.319L210.409 138.804" stroke="#FFF100" stroke-width="2" stroke-linecap="round"/>
<path d="M268.9 128.73C267.321 128.73 266.102 128.293 265.243 127.419C264.4 126.545 263.978 125.357 263.978 123.854V111.71H266.255V123.854C266.255 124.743 266.47 125.441 266.899 125.947C267.344 126.453 268.011 126.706 268.9 126.706C269.774 126.706 270.433 126.453 270.878 125.947C271.338 125.441 271.568 124.743 271.568 123.854V111.71H273.845V123.854C273.845 125.372 273.416 126.568 272.557 127.442C271.714 128.301 270.495 128.73 268.9 128.73ZM282.185 128.684C280.744 128.684 279.624 128.362 278.827 127.718C278.03 127.074 277.631 126.169 277.631 125.004H279.885C279.885 125.556 280.084 125.993 280.483 126.315C280.897 126.622 281.464 126.775 282.185 126.775H283.197C283.948 126.775 284.523 126.614 284.922 126.292C285.336 125.97 285.543 125.518 285.543 124.935C285.543 123.908 285.037 123.333 284.025 123.21L280.621 122.727C279.716 122.589 279.019 122.221 278.528 121.623C278.037 121.01 277.792 120.22 277.792 119.254C277.792 118.119 278.175 117.238 278.942 116.609C279.709 115.98 280.782 115.666 282.162 115.666H283.174C284.462 115.666 285.505 115.973 286.302 116.586C287.099 117.199 287.521 118.012 287.567 119.024H285.267C285.236 118.595 285.037 118.242 284.669 117.966C284.301 117.675 283.803 117.529 283.174 117.529H282.162C281.472 117.529 280.935 117.682 280.552 117.989C280.184 118.296 280 118.71 280 119.231C280 120.074 280.422 120.55 281.265 120.657L284.462 121.117C286.655 121.408 287.751 122.681 287.751 124.935C287.751 126.131 287.352 127.059 286.555 127.718C285.773 128.362 284.654 128.684 283.197 128.684H282.185ZM296.482 128.73C294.964 128.73 293.737 128.278 292.802 127.373C291.882 126.468 291.422 125.234 291.422 123.67V120.68C291.422 119.116 291.882 117.882 292.802 116.977C293.737 116.072 294.964 115.62 296.482 115.62C297.494 115.62 298.376 115.827 299.127 116.241C299.894 116.64 300.484 117.207 300.898 117.943C301.327 118.664 301.542 119.507 301.542 120.473V122.75H293.653V123.854C293.653 124.774 293.906 125.495 294.412 126.016C294.918 126.537 295.608 126.798 296.482 126.798C297.218 126.798 297.824 126.66 298.299 126.384C298.774 126.108 299.058 125.725 299.15 125.234H301.427C301.274 126.307 300.745 127.158 299.84 127.787C298.935 128.416 297.816 128.73 296.482 128.73ZM293.653 120.473V121.071H299.311V120.473C299.311 119.507 299.066 118.763 298.575 118.242C298.084 117.721 297.387 117.46 296.482 117.46C295.577 117.46 294.88 117.721 294.389 118.242C293.898 118.763 293.653 119.507 293.653 120.473ZM324.248 128.73C322.699 128.73 321.457 128.301 320.522 127.442C319.587 126.568 319.119 125.372 319.119 123.854V120.473C319.119 118.97 319.587 117.79 320.522 116.931C321.457 116.057 322.699 115.62 324.248 115.62C325.735 115.62 326.931 116.019 327.836 116.816C328.756 117.598 329.239 118.671 329.285 120.036H327.031C326.985 119.269 326.709 118.679 326.203 118.265C325.712 117.836 325.061 117.621 324.248 117.621C323.374 117.621 322.676 117.874 322.155 118.38C321.649 118.871 321.396 119.568 321.396 120.473V123.854C321.396 124.774 321.649 125.479 322.155 125.97C322.676 126.461 323.374 126.706 324.248 126.706C325.076 126.706 325.735 126.499 326.226 126.085C326.717 125.671 326.985 125.081 327.031 124.314H329.285C329.239 125.679 328.756 126.76 327.836 127.557C326.931 128.339 325.735 128.73 324.248 128.73ZM336.682 128.73C335.379 128.73 334.344 128.37 333.577 127.649C332.826 126.913 332.45 125.955 332.45 124.774C332.45 123.593 332.841 122.643 333.623 121.922C334.42 121.201 335.463 120.841 336.751 120.841H340.454V119.875C340.454 118.326 339.595 117.552 337.878 117.552C337.111 117.552 336.49 117.698 336.015 117.989C335.555 118.265 335.31 118.656 335.279 119.162H333.025C333.102 118.135 333.569 117.291 334.428 116.632C335.287 115.957 336.437 115.62 337.878 115.62C339.427 115.62 340.623 115.988 341.466 116.724C342.309 117.46 342.731 118.495 342.731 119.829V128.5H340.5V126.177H340.454C340.347 126.959 339.956 127.58 339.281 128.04C338.622 128.5 337.755 128.73 336.682 128.73ZM337.28 126.821C338.246 126.821 339.013 126.591 339.58 126.131C340.163 125.656 340.454 125.012 340.454 124.199V122.52H336.958C336.299 122.52 335.762 122.719 335.348 123.118C334.949 123.501 334.75 124.015 334.75 124.659C334.75 125.318 334.972 125.847 335.417 126.246C335.862 126.629 336.483 126.821 337.28 126.821ZM351.14 128.684C349.699 128.684 348.579 128.362 347.782 127.718C346.985 127.074 346.586 126.169 346.586 125.004H348.84C348.84 125.556 349.039 125.993 349.438 126.315C349.852 126.622 350.419 126.775 351.14 126.775H352.152C352.903 126.775 353.478 126.614 353.877 126.292C354.291 125.97 354.498 125.518 354.498 124.935C354.498 123.908 353.992 123.333 352.98 123.21L349.576 122.727C348.671 122.589 347.974 122.221 347.483 121.623C346.992 121.01 346.747 120.22 346.747 119.254C346.747 118.119 347.13 117.238 347.897 116.609C348.664 115.98 349.737 115.666 351.117 115.666H352.129C353.417 115.666 354.46 115.973 355.257 116.586C356.054 117.199 356.476 118.012 356.522 119.024H354.222C354.191 118.595 353.992 118.242 353.624 117.966C353.256 117.675 352.758 117.529 352.129 117.529H351.117C350.427 117.529 349.89 117.682 349.507 117.989C349.139 118.296 348.955 118.71 348.955 119.231C348.955 120.074 349.377 120.55 350.22 120.657L353.417 121.117C355.61 121.408 356.706 122.681 356.706 124.935C356.706 126.131 356.307 127.059 355.51 127.718C354.728 128.362 353.609 128.684 352.152 128.684H351.14ZM365.437 128.73C363.919 128.73 362.692 128.278 361.757 127.373C360.837 126.468 360.377 125.234 360.377 123.67V120.68C360.377 119.116 360.837 117.882 361.757 116.977C362.692 116.072 363.919 115.62 365.437 115.62C366.449 115.62 367.331 115.827 368.082 116.241C368.849 116.64 369.439 117.207 369.853 117.943C370.282 118.664 370.497 119.507 370.497 120.473V122.75H362.608V123.854C362.608 124.774 362.861 125.495 363.367 126.016C363.873 126.537 364.563 126.798 365.437 126.798C366.173 126.798 366.779 126.66 367.254 126.384C367.729 126.108 368.013 125.725 368.105 125.234H370.382C370.229 126.307 369.7 127.158 368.795 127.787C367.89 128.416 366.771 128.73 365.437 128.73ZM362.608 120.473V121.071H368.266V120.473C368.266 119.507 368.021 118.763 367.53 118.242C367.039 117.721 366.342 117.46 365.437 117.46C364.532 117.46 363.835 117.721 363.344 118.242C362.853 118.763 362.608 119.507 362.608 120.473ZM378.722 128.684C377.281 128.684 376.161 128.362 375.364 127.718C374.567 127.074 374.168 126.169 374.168 125.004H376.422C376.422 125.556 376.621 125.993 377.02 126.315C377.434 126.622 378.001 126.775 378.722 126.775H379.734C380.485 126.775 381.06 126.614 381.459 126.292C381.873 125.97 382.08 125.518 382.08 124.935C382.08 123.908 381.574 123.333 380.562 123.21L377.158 122.727C376.253 122.589 375.556 122.221 375.065 121.623C374.574 121.01 374.329 120.22 374.329 119.254C374.329 118.119 374.712 117.238 375.479 116.609C376.246 115.98 377.319 115.666 378.699 115.666H379.711C380.999 115.666 382.042 115.973 382.839 116.586C383.636 117.199 384.058 118.012 384.104 119.024H381.804C381.773 118.595 381.574 118.242 381.206 117.966C380.838 117.675 380.34 117.529 379.711 117.529H378.699C378.009 117.529 377.472 117.682 377.089 117.989C376.721 118.296 376.537 118.71 376.537 119.231C376.537 120.074 376.959 120.55 377.802 120.657L380.999 121.117C383.192 121.408 384.288 122.681 384.288 124.935C384.288 126.131 383.889 127.059 383.092 127.718C382.31 128.362 381.191 128.684 379.734 128.684H378.722Z" fill="black"/>
</g>
<defs>
<clipPath id="clip0_6851_9867">
<rect width="560" height="240" fill="white"/>
</clipPath>
<clipPath id="clip1_6851_9867">
<rect width="560" height="240" fill="white"/>
</clipPath>
</defs>
</svg>
