<svg xmlns="http://www.w3.org/2000/svg" width="560" height="240" fill="none" viewBox="0 0 560 240"><g clip-path="url(#clip0_5952_8386)"><rect width="560" height="240" fill="#FFF100"/><g clip-path="url(#clip1_5952_8386)"><rect width="560" height="240" fill="#FFF100"/><path fill="#EDDD0C" d="M387 170.5L451.783 170.5C462.828 170.5 471.782 161.546 471.782 150.5L471.782 67.5001C471.782 56.4544 480.737 47.5001 491.782 47.5001L692.082 47.5001C703.128 47.5001 712.082 56.4544 712.082 67.5001L712.082 241.913C712.082 252.958 703.128 261.913 692.082 261.913L387 261.913C375.954 261.913 367 252.958 367 241.913L367 190.5C367 179.454 375.954 170.5 387 170.5Z"/><path fill="#EDDD0C" d="M141.127 314L141.127 77.9839C141.127 66.9382 150.081 57.9839 161.127 57.9839L199.812 57.9839C210.857 57.9839 219.812 49.0296 219.812 37.9839L219.812 -86.9999C219.812 -98.0456 210.857 -107 199.812 -107L-54.0001 -107C-65.0458 -107 -74.0001 -98.0457 -74.0001 -87L-74.0002 314C-74.0002 325.046 -65.0458 334 -54.0002 334L121.127 334C132.173 334 141.127 325.046 141.127 314Z"/><rect width="546" height="169" x="417" y="194" fill="#FFF100" rx="20"/><rect width="598" height="204" x="-513" y="-43" fill="#FFF100" rx="20"/></g><rect width="67" height="67" x="171.5" y="86.5" fill="#0D0D0D" rx="33.5"/><path fill="#FFF100" d="M195.5 126.5C197.167 126.5 198.583 125.917 199.75 124.75C200.917 123.583 201.5 122.167 201.5 120.5C201.5 118.833 200.917 117.417 199.75 116.25C198.583 115.083 197.167 114.5 195.5 114.5C193.833 114.5 192.417 115.083 191.25 116.25C190.083 117.417 189.5 118.833 189.5 120.5C189.5 122.167 190.083 123.583 191.25 124.75C192.417 125.917 193.833 126.5 195.5 126.5ZM195.5 132.5C192.167 132.5 189.333 131.333 187 129C184.667 126.667 183.5 123.833 183.5 120.5C183.5 117.167 184.667 114.333 187 112C189.333 109.667 192.167 108.5 195.5 108.5C198.2 108.5 200.559 109.267 202.576 110.8C204.593 112.333 206.001 114.233 206.8 116.5H223.55L227.5 120.45L220.5 128.45L215.5 124.5L211.5 128.5L207.5 124.5H206.8C205.967 126.9 204.517 128.833 202.45 130.3C200.383 131.767 198.067 132.5 195.5 132.5Z"/><path fill="#000" d="M270.4 128.73C268.821 128.73 267.602 128.293 266.743 127.419C265.9 126.545 265.478 125.357 265.478 123.854V111.71H267.755V123.854C267.755 124.743 267.97 125.441 268.399 125.947C268.844 126.453 269.511 126.706 270.4 126.706C271.274 126.706 271.933 126.453 272.378 125.947C272.838 125.441 273.068 124.743 273.068 123.854V111.71H275.345V123.854C275.345 125.372 274.916 126.568 274.057 127.442C273.214 128.301 271.995 128.73 270.4 128.73ZM284.283 128.73C282.627 128.73 281.308 128.301 280.327 127.442C279.346 126.568 278.855 125.372 278.855 123.854H281.132C281.132 124.743 281.416 125.441 281.983 125.947C282.55 126.453 283.317 126.706 284.283 126.706C285.203 126.706 285.931 126.453 286.468 125.947C287.02 125.426 287.296 124.736 287.296 123.877C287.296 123.233 287.12 122.673 286.767 122.198C286.414 121.707 285.916 121.378 285.272 121.209L282.788 120.542C281.699 120.235 280.833 119.683 280.189 118.886C279.56 118.073 279.246 117.115 279.246 116.011C279.246 115.106 279.445 114.317 279.844 113.642C280.258 112.952 280.833 112.423 281.569 112.055C282.305 111.672 283.156 111.48 284.122 111.48C285.103 111.48 285.962 111.672 286.698 112.055C287.449 112.423 288.032 112.944 288.446 113.619C288.86 114.294 289.067 115.076 289.067 115.965H286.813C286.813 115.229 286.56 114.631 286.054 114.171C285.563 113.711 284.919 113.481 284.122 113.481C283.325 113.481 282.681 113.711 282.19 114.171C281.715 114.631 281.477 115.229 281.477 115.965C281.477 116.563 281.638 117.069 281.96 117.483C282.282 117.882 282.734 118.165 283.317 118.334L285.87 119.024C287.02 119.331 287.917 119.921 288.561 120.795C289.205 121.654 289.527 122.681 289.527 123.877C289.527 124.858 289.312 125.717 288.883 126.453C288.454 127.174 287.84 127.733 287.043 128.132C286.261 128.531 285.341 128.73 284.283 128.73ZM293.405 128.5V126.43H296.832V113.78H293.405V111.71H302.559V113.78H299.132V126.43H302.559V128.5H293.405ZM306.851 128.5V111.71H309.795L314.809 125.878C314.763 125.479 314.717 124.989 314.671 124.406C314.64 123.808 314.61 123.195 314.579 122.566C314.564 121.922 314.556 121.316 314.556 120.749V111.71H316.718V128.5H313.751L308.783 114.332C308.814 114.731 308.844 115.221 308.875 115.804C308.906 116.371 308.929 116.969 308.944 117.598C308.975 118.227 308.99 118.817 308.99 119.369V128.5H306.851ZM325.656 128.73C324.107 128.73 322.873 128.301 321.953 127.442C321.048 126.568 320.596 125.372 320.596 123.854V116.333C320.596 114.83 321.048 113.65 321.953 112.791C322.873 111.917 324.107 111.48 325.656 111.48C327.189 111.48 328.408 111.917 329.313 112.791C330.233 113.665 330.693 114.846 330.693 116.333H328.416C328.416 115.428 328.171 114.731 327.68 114.24C327.189 113.749 326.515 113.504 325.656 113.504C324.782 113.504 324.1 113.749 323.609 114.24C323.118 114.731 322.873 115.428 322.873 116.333V123.854C322.873 124.774 323.118 125.479 323.609 125.97C324.1 126.461 324.782 126.706 325.656 126.706C326.515 126.706 327.189 126.461 327.68 125.97C328.171 125.479 328.416 124.774 328.416 123.854V121.669H325.15V119.645H330.693V123.854C330.693 125.357 330.233 126.545 329.313 127.419C328.408 128.293 327.189 128.73 325.656 128.73ZM348.27 128.5V111.71H350.547V118.84H352.893L356.481 111.71H358.965L354.894 119.783L359.172 128.5H356.596L352.847 120.841H350.547V128.5H348.27ZM362.268 128.5V111.71H372.043V113.757H364.522V118.748H371.238V120.726H364.522V126.453H372.043V128.5H362.268ZM379.601 128.5V122.267L374.564 111.71H376.979L380.084 118.334C380.268 118.733 380.414 119.093 380.521 119.415C380.644 119.737 380.72 119.967 380.751 120.105C380.797 119.967 380.874 119.737 380.981 119.415C381.104 119.093 381.265 118.733 381.464 118.334L384.546 111.71H386.892L381.878 122.267V128.5H379.601Z"/></g><defs><clipPath id="clip0_5952_8386"><rect width="560" height="240" fill="#fff"/></clipPath><clipPath id="clip1_5952_8386"><rect width="560" height="240" fill="#fff"/></clipPath></defs></svg>