<svg width="367" height="206" viewBox="0 0 367 206" fill="none" xmlns="http://www.w3.org/2000/svg">
<g clip-path="url(#clip0_3660_2415)">
<rect width="367" height="206" fill="#F6E900"/>
<path fill-rule="evenodd" clip-rule="evenodd" d="M-26 140H39C50.0457 140 59 131.046 59 120L59 51C59 39.9543 67.9543 31 79 31H124C135.046 31 144 22.0457 144 11V0H407.5V13.5C407.5 24.5457 398.546 33.5 387.5 33.5H342.5C331.454 33.5 322.5 42.4543 322.5 53.5V147C322.5 158.046 313.546 167 302.5 167H196.5C185.454 167 176.5 175.954 176.5 187L176.5 227H-26V140Z" fill="#EDDD00"/>
<path d="M113.915 114.661L113.365 111.439H113.161C111.732 113.88 109.463 115.1 106.348 115.1C101.03 115.1 98.3718 112.169 98.3718 106.31V90.5913H102.084V106.09C102.084 109.891 103.688 111.79 106.898 111.79C109.088 111.79 110.685 111.113 111.692 109.762C112.699 108.411 113.201 106.186 113.201 103.086V90.5913H116.913V114.661H113.913H113.915Z" fill="black"/>
<path d="M123.067 113.587V109.948C125.692 111.206 128.208 111.834 130.615 111.834C134.355 111.834 136.225 110.649 136.225 108.282C136.225 107.448 135.893 106.724 135.225 106.112C134.559 105.498 133.022 104.723 130.615 103.789C127.447 102.518 125.45 101.353 124.627 100.293C123.804 99.2345 123.393 97.981 123.393 96.5323C123.393 94.5444 124.152 92.9847 125.667 91.8532C127.183 90.7218 129.281 90.1538 131.961 90.1538C134.641 90.1538 137.164 90.6951 139.489 91.7756L138.264 95.0414C135.788 93.9897 133.621 93.4639 131.757 93.4639C128.547 93.4639 126.943 94.4357 126.943 96.3792C126.943 97.271 127.287 97.9832 127.972 98.5157C128.658 99.0504 130.24 99.7914 132.716 100.741C135.584 101.866 137.492 102.973 138.437 104.062C139.383 105.151 139.855 106.485 139.855 108.062C139.855 110.254 139.059 111.976 137.468 113.225C135.877 114.474 133.625 115.1 130.715 115.1C127.342 115.1 124.791 114.596 123.065 113.587H123.067Z" fill="black"/>
<path d="M160.878 93.8367H161.043L161.593 90.5931H164.592V125.447H160.881V115.166C160.881 114.567 160.963 113.325 161.125 111.439H160.881C159.343 113.879 157.153 115.1 154.311 115.1C151.469 115.1 149.433 114.008 147.875 111.823C146.318 109.637 145.539 106.587 145.539 102.671C145.539 98.7553 146.322 95.6537 147.884 93.4529C149.448 91.2542 151.589 90.1538 154.309 90.1538C157.029 90.1538 159.314 91.3807 160.878 93.8367ZM160.878 103.57V102.671C160.878 99.3543 160.406 96.9893 159.461 95.5805C158.516 94.1695 157.009 93.4662 154.941 93.4662C151.243 93.4662 149.393 96.55 149.393 102.718C149.393 108.885 151.256 111.794 154.981 111.794C157.049 111.794 158.533 111.146 159.439 109.855C160.344 108.561 160.823 106.467 160.876 103.574L160.878 103.57Z" fill="black"/>
<path d="M177.414 83.6871L171.947 83.2279V80.5522H181.148V111.526L188.329 111.965V114.661H170.398V111.965L177.416 111.526V83.6871H177.414Z" fill="black"/>
<path d="M206 102.811L193.749 110.82L192.633 105.48L201.598 100.091L192.633 94.702L193.749 89.3618L206 97.3221V102.811Z" fill="black"/>
<path d="M83.292 98.8955C83.19 99.3525 83.0369 99.9028 82.835 100.548C82.6331 101.194 82.4201 101.84 82.2005 102.485C81.9809 103.131 81.7457 103.739 81.4928 104.307C81.2398 104.875 80.9958 105.352 80.7606 105.729L79.8044 107.151L75.1188 103.302L76.075 101.88C76.3101 101.5 76.6363 101.083 77.0556 100.628C77.4749 100.173 77.9097 99.7186 78.3623 99.266C78.8149 98.8112 79.2742 98.3852 79.7445 97.9903C80.2126 97.5932 80.6142 97.2626 80.9492 96.9986C80.5144 96.9964 80.0063 96.9942 79.4228 96.9898C78.8393 96.9875 78.247 96.9543 77.6479 96.8944C77.0489 96.8345 76.4654 96.7457 75.8975 96.6281C75.3295 96.5105 74.8636 96.3752 74.4975 96.2221L73 95.6431L74.8769 89.431L76.3745 89.9524C76.7405 90.1077 77.1732 90.3473 77.6723 90.6734C78.1715 90.9996 78.6707 91.3545 79.1699 91.7383C79.6691 92.1222 80.1594 92.506 80.6408 92.8876C81.1223 93.2714 81.5305 93.6153 81.861 93.9214C81.7301 93.4644 81.5815 92.9209 81.4173 92.293C81.2532 91.6651 81.0979 91.0062 80.9492 90.3207C80.8028 89.6351 80.6808 88.9695 80.5831 88.3217C80.4855 87.6739 80.4389 87.1215 80.4389 86.6667L80.4456 84.8984L86.2494 84.9295L86.2428 86.6977C86.2428 87.1547 86.1895 87.705 86.0852 88.3528C85.9832 89.0006 85.8545 89.664 85.7014 90.3473C85.5483 91.0306 85.3775 91.6873 85.1934 92.313C85.007 92.9408 84.845 93.4822 84.7119 93.937C85.0469 93.673 85.464 93.3513 85.9677 92.9741C86.4691 92.5969 86.9793 92.2287 87.4985 91.8692C88.0176 91.5098 88.5279 91.1815 89.0293 90.8798C89.5307 90.578 89.9811 90.3517 90.3826 90.2031L91.8358 89.6396L93.6107 95.9847L92.1087 96.4906C91.7071 96.6414 91.2235 96.7524 90.6555 96.8256C90.0876 96.8988 89.5041 96.9609 88.9028 97.0164C88.3016 97.0696 87.7092 97.0962 87.1258 97.0918C86.5423 97.0896 86.032 97.0852 85.5994 97.0829C85.9654 97.3514 86.3803 97.6864 86.8462 98.088C87.3121 98.4895 87.7758 98.911 88.2417 99.3503C88.7076 99.7896 89.138 100.24 89.5374 100.699C89.9367 101.158 90.2495 101.578 90.4825 101.959L91.4276 103.39L86.7087 107.246L85.8146 105.815C85.5816 105.434 85.342 104.957 85.0957 104.384C84.8473 103.812 84.6077 103.193 84.3791 102.525C84.1484 101.86 83.9421 101.21 83.7624 100.582C83.5805 99.9538 83.4252 99.3903 83.2943 98.8955H83.292Z" fill="black"/>
<path d="M265 132C248.956 132 236 119.044 236 103C236 86.9563 248.956 74 265 74C281.044 74 294 86.9563 294 103C294 119.044 281.044 132 265 132Z" fill="black"/>
<path d="M280.506 98.6982H274.817V107.284H280.506C282.865 107.284 284.825 105.324 284.825 102.965C284.825 100.589 282.865 98.6982 280.506 98.6982Z" fill="#FFEF00"/>
<path d="M246.943 103C246.943 109.626 252.337 115.02 258.963 115.02C265.588 115.02 270.983 109.626 270.983 103C270.983 96.3746 265.588 90.9805 258.963 90.9805C252.337 90.9805 246.943 96.3746 246.943 103Z" fill="#FFEF00"/>
</g>
<defs>
<clipPath id="clip0_3660_2415">
<rect width="367" height="206" fill="white"/>
</clipPath>
</defs>
</svg>
