<svg xmlns="http://www.w3.org/2000/svg" width="367" height="206" fill="none" viewBox="0 0 367 206"><g clip-path="url(#clip0_3660_2415)"><rect width="367" height="206" fill="#EDDD00"/><path fill="#F6E900" fill-rule="evenodd" d="M-26 140H39C50.0457 140 59 131.046 59 120L59 51C59 39.9543 67.9543 31 79 31H124C135.046 31 144 22.0457 144 11V0H407.5V13.5C407.5 24.5457 398.546 33.5 387.5 33.5H342.5C331.454 33.5 322.5 42.4543 322.5 53.5V147C322.5 158.046 313.546 167 302.5 167H196.5C185.454 167 176.5 175.954 176.5 187L176.5 227H-26V140Z" clip-rule="evenodd"/><path fill="#000" d="M116.533 111.417L116.136 109.092H115.988C114.957 110.853 113.319 111.734 111.07 111.734C107.232 111.734 105.313 109.619 105.313 105.389V94.0435H107.993V105.231C107.993 107.974 109.15 109.345 111.468 109.345C113.048 109.345 114.201 108.856 114.928 107.881C115.655 106.906 116.017 105.3 116.017 103.062V94.0435H118.696V111.417H116.531H116.533Z"/><path fill="#000" d="M123.139 110.641V108.015C125.033 108.923 126.849 109.376 128.586 109.376C131.286 109.376 132.636 108.521 132.636 106.812C132.636 106.21 132.396 105.688 131.914 105.246C131.434 104.803 130.324 104.244 128.586 103.57C126.3 102.652 124.858 101.811 124.264 101.046C123.67 100.282 123.374 99.3772 123.374 98.3315C123.374 96.8967 123.922 95.7709 125.015 94.9542C126.109 94.1375 127.624 93.7275 129.559 93.7275C131.493 93.7275 133.314 94.1183 134.992 94.8982L134.108 97.2554C132.321 96.4963 130.756 96.1168 129.411 96.1168C127.094 96.1168 125.936 96.8182 125.936 98.221C125.936 98.8648 126.184 99.3788 126.679 99.7632C127.174 100.149 128.316 100.684 130.103 101.369C132.174 102.181 133.551 102.98 134.233 103.767C134.915 104.553 135.256 105.515 135.256 106.654C135.256 108.236 134.681 109.479 133.533 110.38C132.385 111.282 130.76 111.734 128.659 111.734C126.224 111.734 124.383 111.37 123.137 110.641H123.139Z"/><path fill="#000" d="M150.431 96.3858H150.55L150.947 94.0446H153.112V119.202H150.433V111.782C150.433 111.349 150.492 110.452 150.609 109.091H150.433C149.323 110.853 147.742 111.734 145.691 111.734C143.64 111.734 142.169 110.946 141.045 109.368C139.921 107.791 139.359 105.589 139.359 102.763C139.359 99.9361 139.924 97.6974 141.052 96.1088C142.181 94.5218 143.726 93.7275 145.689 93.7275C147.653 93.7275 149.302 94.6131 150.431 96.3858ZM150.431 103.411V102.763C150.431 100.368 150.09 98.6614 149.408 97.6445C148.726 96.6261 147.638 96.1184 146.146 96.1184C143.476 96.1184 142.141 98.3443 142.141 102.796C142.141 107.248 143.486 109.347 146.175 109.347C147.667 109.347 148.738 108.88 149.392 107.948C150.045 107.014 150.391 105.503 150.429 103.414L150.431 103.411Z"/><path fill="#000" d="M162.366 89.0596L158.42 88.7281V86.7969H165.061V109.154L170.245 109.471V111.417H157.303V109.471L162.368 109.154V89.0596H162.366Z"/><path fill="#000" d="M183 102.863L174.157 108.644L173.352 104.79L179.823 100.9L173.352 97.0103L174.157 93.1558L183 98.9015V102.863Z"/><path fill="#000" d="M94.4288 100.037C94.3552 100.367 94.2447 100.764 94.099 101.23C93.9532 101.696 93.7995 102.162 93.641 102.628C93.4824 103.094 93.3127 103.533 93.1301 103.943C92.9476 104.353 92.7714 104.697 92.6017 104.97L91.9115 105.996L88.5293 103.218L89.2195 102.191C89.3893 101.917 89.6247 101.616 89.9273 101.288C90.23 100.96 90.5439 100.631 90.8706 100.305C91.1972 99.9764 91.5287 99.6689 91.8682 99.3839C92.2061 99.0972 92.496 98.8586 92.7378 98.6681C92.4239 98.6664 92.0572 98.6648 91.636 98.6616C91.2149 98.66 90.7873 98.636 90.3549 98.5928C89.9225 98.5495 89.5014 98.4855 89.0914 98.4006C88.6815 98.3157 88.3452 98.2181 88.0809 98.1076L87 97.6896L88.3548 93.2057L89.4357 93.582C89.6999 93.6941 90.0122 93.8671 90.3725 94.1025C90.7328 94.3379 91.0931 94.5941 91.4535 94.8712C91.8138 95.1482 92.1677 95.4252 92.5152 95.7007C92.8627 95.9777 93.1573 96.2259 93.3959 96.4469C93.3015 96.117 93.1942 95.7247 93.0757 95.2715C92.9572 94.8183 92.8451 94.3427 92.7378 93.8479C92.6321 93.353 92.544 92.8726 92.4735 92.405C92.4031 91.9374 92.3695 91.5387 92.3695 91.2104L92.3743 89.9341L96.5635 89.9565L96.5587 91.2328C96.5587 91.5627 96.5202 91.9598 96.445 92.4274C96.3713 92.895 96.2784 93.3739 96.1679 93.8671C96.0574 94.3603 95.9341 94.8343 95.8012 95.2859C95.6667 95.7391 95.5498 96.1299 95.4537 96.4581C95.6955 96.2676 95.9966 96.0354 96.3601 95.7631C96.722 95.4909 97.0903 95.2251 97.4651 94.9656C97.8398 94.7062 98.2081 94.4692 98.57 94.2514C98.9319 94.0336 99.257 93.8703 99.5469 93.763L100.596 93.3562L101.877 97.9362L100.793 98.3013C100.503 98.4102 100.154 98.4903 99.7438 98.5431C99.3339 98.596 98.9127 98.6408 98.4787 98.6809C98.0448 98.7193 97.6172 98.7385 97.196 98.7353C96.7749 98.7337 96.4066 98.7305 96.0943 98.7289C96.3585 98.9227 96.658 99.1645 96.9943 99.4543C97.3306 99.7442 97.6652 100.048 98.0015 100.366C98.3378 100.683 98.6485 101.008 98.9367 101.339C99.225 101.671 99.4508 101.973 99.6189 102.249L100.301 103.282L96.895 106.065L96.2496 105.032C96.0815 104.757 95.9085 104.412 95.7308 103.999C95.5514 103.586 95.3785 103.139 95.2135 102.657C95.047 102.177 94.898 101.707 94.7683 101.254C94.637 100.801 94.5249 100.394 94.4304 100.037H94.4288Z"/><path fill="#000" d="M246.5 136.5C227.967 136.5 213 121.533 213 103C213 84.4668 227.967 69.5 246.5 69.5C265.033 69.5 280 84.4668 280 103C280 121.533 265.033 136.5 246.5 136.5Z"/><path fill="#FFEF00" d="M264.412 98.0308H257.841V107.949H264.412C267.137 107.949 269.401 105.684 269.401 102.96C269.401 100.215 267.137 98.0308 264.412 98.0308Z"/><path fill="#FFEF00" d="M225.641 103C225.641 110.654 231.872 116.885 239.526 116.885C247.18 116.885 253.411 110.654 253.411 103C253.411 95.3464 247.18 89.1152 239.526 89.1152C231.872 89.1152 225.641 95.3464 225.641 103Z"/></g><defs><clipPath id="clip0_3660_2415"><rect width="367" height="206" fill="#fff"/></clipPath></defs></svg>