<svg width="1200" height="515" viewBox="0 0 1200 515" fill="none" xmlns="http://www.w3.org/2000/svg">
<g clip-path="url(#clip0_11576_50185)">
<rect width="1200" height="515" fill="url(#paint0_linear_11576_50185)"/>
<g clip-path="url(#clip1_11576_50185)">
<rect width="1200" height="515" fill="url(#paint1_linear_11576_50185)"/>
<path d="M-200.003 -476.575L460.802 -476.574C515.894 -476.574 560.555 -431.913 560.555 -376.821L560.555 -374.502C560.555 -319.41 515.894 -274.749 460.801 -274.749L238.815 -274.749C183.723 -274.749 139.061 -230.088 139.061 -174.996L139.061 176.246C139.061 231.338 94.4002 275.999 39.3079 275.999L-127.502 275.999" stroke="#F0DF09" stroke-width="2.9926"/>
<path d="M1315 217.5L918.5 217.5C882.601 217.5 853.5 188.399 853.5 152.5L853.5 -135.829C853.5 -171.728 882.601 -200.829 918.5 -200.829L1037.93 -200.829C1073.83 -200.829 1102.93 -229.93 1102.93 -265.829L1102.93 -388" stroke="#F0DF09" stroke-width="2.9926" stroke-linejoin="round"/>
<path d="M636 556.5L636 481.07C636 445.171 606.898 416.07 571 416.07L307.5 416.071C271.601 416.071 242.5 386.97 242.5 351.071L242.5 228.309C242.5 192.411 271.601 163.309 307.5 163.309L508.576 163.309C544.474 163.309 573.576 134.208 573.576 98.3093L573.576 -461.437C573.576 -497.336 602.677 -526.437 638.576 -526.437L777.936 -526.437" stroke="#F0DF09" stroke-width="2.9926" stroke-linejoin="round"/>
<rect x="251.712" y="318.387" width="19.7508" height="41.4254" rx="9.87539" transform="rotate(-180 251.712 318.387)" fill="#D4C50B" stroke="#F0DF09" stroke-width="1.92382"/>
<path d="M-220 453.505C-220.826 453.505 -221.496 454.175 -221.496 455.002C-221.496 455.828 -220.826 456.498 -220 456.498L-220 455.002L-220 453.505ZM166.933 456.058C167.517 455.474 167.517 454.526 166.933 453.942L157.411 444.42C156.826 443.835 155.879 443.835 155.294 444.42C154.71 445.004 154.71 445.951 155.295 446.536L163.759 455L155.295 463.464C154.71 464.049 154.71 464.996 155.295 465.58C155.879 466.165 156.826 466.165 157.411 465.58L166.933 456.058ZM-220 455.002L-220 456.498L165.875 456.496L165.875 455L165.875 453.504L-220 453.505L-220 455.002Z" fill="#F0DF09"/>
<path d="M1005.5 614.375C1005.5 615.201 1006.17 615.871 1007 615.871C1007.83 615.871 1008.5 615.201 1008.5 614.375L1007 614.375L1005.5 614.375ZM1008.06 326.442C1007.47 325.858 1006.53 325.858 1005.94 326.442L996.42 335.964C995.835 336.549 995.835 337.496 996.42 338.08C997.004 338.665 997.951 338.665 998.536 338.08L1007 329.616L1015.46 338.08C1016.05 338.665 1017 338.665 1017.58 338.08C1018.16 337.496 1018.16 336.549 1017.58 335.964L1008.06 326.442ZM1007 614.375L1008.5 614.375L1008.5 327.5L1007 327.5L1005.5 327.5L1005.5 614.375L1007 614.375Z" fill="#F0DF09"/>
<rect x="1081.96" y="230.038" width="25.0762" height="51.0762" rx="12.5381" transform="rotate(-90 1081.96 230.038)" fill="#D4C50B" stroke="#F0DF09" stroke-width="1.92382"/>
<path d="M712.64 482V461.56H715.16V479.704H724.4V482H712.64ZM734.189 482.28C732.36 482.28 730.913 481.748 729.849 480.684C728.785 479.62 728.253 478.099 728.253 476.12V467.44C728.253 465.461 728.785 463.94 729.849 462.876C730.913 461.812 732.36 461.28 734.189 461.28C736.018 461.28 737.465 461.812 738.529 462.876C739.593 463.94 740.125 465.452 740.125 467.412V476.12C740.125 478.099 739.593 479.62 738.529 480.684C737.465 481.748 736.018 482.28 734.189 482.28ZM734.189 480.012C735.29 480.012 736.13 479.704 736.709 479.088C737.306 478.453 737.605 477.557 737.605 476.4V467.16C737.605 466.003 737.306 465.116 736.709 464.5C736.13 463.865 735.29 463.548 734.189 463.548C733.106 463.548 732.266 463.865 731.669 464.5C731.072 465.116 730.773 466.003 730.773 467.16V476.4C730.773 477.557 731.072 478.453 731.669 479.088C732.266 479.704 733.106 480.012 734.189 480.012ZM743.978 482L749.298 461.56H752.686L757.978 482H755.43L754.086 476.568H747.898L746.554 482H743.978ZM748.402 474.44H753.554L751.986 468.14C751.687 466.945 751.454 465.947 751.286 465.144C751.118 464.341 751.015 463.819 750.978 463.576C750.941 463.819 750.838 464.341 750.67 465.144C750.502 465.947 750.269 466.936 749.97 468.112L748.402 474.44ZM761.943 482V461.56H767.235C768.561 461.56 769.699 461.812 770.651 462.316C771.622 462.82 772.369 463.529 772.891 464.444C773.433 465.359 773.703 466.441 773.703 467.692V475.84C773.703 477.091 773.433 478.183 772.891 479.116C772.369 480.031 771.622 480.74 770.651 481.244C769.699 481.748 768.561 482 767.235 482H761.943ZM764.463 479.76H767.235C768.467 479.76 769.429 479.415 770.119 478.724C770.829 478.033 771.183 477.072 771.183 475.84V467.692C771.183 466.479 770.829 465.527 770.119 464.836C769.429 464.145 768.467 463.8 767.235 463.8H764.463V479.76ZM799.693 482L794.457 466.6H797.173L800.533 476.96C800.739 477.576 800.916 478.173 801.065 478.752C801.215 479.312 801.327 479.751 801.401 480.068C801.495 479.751 801.607 479.312 801.737 478.752C801.868 478.173 802.027 477.576 802.213 476.96L805.573 466.6H808.233L802.997 482H799.693ZM818.134 482.224C816.286 482.224 814.812 481.683 813.71 480.6C812.628 479.517 812.086 478.005 812.086 476.064V472.536C812.086 470.576 812.628 469.064 813.71 468C814.793 466.917 816.268 466.376 818.134 466.376C820.001 466.376 821.476 466.917 822.558 468C823.641 469.064 824.182 470.576 824.182 472.536V476.064C824.182 478.005 823.632 479.517 822.53 480.6C821.448 481.683 819.982 482.224 818.134 482.224ZM818.134 479.984C819.236 479.984 820.094 479.676 820.71 479.06C821.345 478.444 821.662 477.539 821.662 476.344V472.256C821.662 471.061 821.345 470.156 820.71 469.54C820.094 468.924 819.236 468.616 818.134 468.616C817.052 468.616 816.193 468.924 815.558 469.54C814.924 470.156 814.606 471.061 814.606 472.256V476.344C814.606 477.539 814.924 478.444 815.558 479.06C816.193 479.676 817.052 479.984 818.134 479.984ZM829.659 482V466.6H832.179V469.54H832.235C832.366 468.551 832.786 467.767 833.495 467.188C834.205 466.609 835.157 466.32 836.351 466.32C837.957 466.32 839.189 466.805 840.047 467.776C840.925 468.728 841.363 470.091 841.363 471.864V473.18H838.843V471.864C838.843 469.624 837.751 468.504 835.567 468.504C834.466 468.504 833.626 468.821 833.047 469.456C832.469 470.091 832.179 471.005 832.179 472.2V482H829.659ZM853.253 482C851.983 482 850.966 481.636 850.201 480.908C849.435 480.161 849.053 479.172 849.053 477.94V468.896H844.629V466.6H849.053V462.26H851.573V466.6H857.873V468.896H851.573V477.94C851.573 478.463 851.722 478.892 852.021 479.228C852.338 479.545 852.749 479.704 853.253 479.704H857.733V482H853.253ZM868.502 482.28C866.691 482.28 865.226 481.739 864.106 480.656C863.004 479.555 862.454 478.043 862.454 476.12V472.48C862.454 470.557 863.004 469.055 864.106 467.972C865.226 466.871 866.691 466.32 868.502 466.32C869.715 466.32 870.77 466.563 871.666 467.048C872.58 467.533 873.29 468.215 873.794 469.092C874.298 469.969 874.55 471.005 874.55 472.2V474.944H864.918V476.4C864.918 477.539 865.244 478.444 865.898 479.116C866.551 479.769 867.419 480.096 868.502 480.096C869.435 480.096 870.2 479.919 870.798 479.564C871.414 479.191 871.787 478.696 871.918 478.08H874.438C874.27 479.368 873.644 480.395 872.562 481.16C871.479 481.907 870.126 482.28 868.502 482.28ZM864.918 472.984H872.086V472.2C872.086 470.987 871.768 470.053 871.134 469.4C870.518 468.728 869.64 468.392 868.502 468.392C867.363 468.392 866.476 468.728 865.842 469.4C865.226 470.053 864.918 470.987 864.918 472.2V472.984ZM878.291 482L883.751 474.076L878.627 466.6H881.595L884.647 471.36C884.777 471.565 884.899 471.789 885.011 472.032C885.141 472.275 885.244 472.471 885.319 472.62C885.375 472.471 885.459 472.275 885.571 472.032C885.701 471.789 885.832 471.565 885.963 471.36L889.015 466.6H891.983L886.859 474.104L892.291 482H889.323L886.019 476.96C885.888 476.755 885.757 476.521 885.627 476.26C885.515 475.98 885.412 475.756 885.319 475.588C885.244 475.756 885.132 475.98 884.983 476.26C884.852 476.521 884.712 476.755 884.563 476.96L881.259 482H878.291ZM901.8 470.52C901.184 470.52 900.68 470.324 900.288 469.932C899.896 469.54 899.7 469.036 899.7 468.42C899.7 467.823 899.896 467.328 900.288 466.936C900.698 466.525 901.202 466.32 901.8 466.32H902.36C902.957 466.32 903.452 466.525 903.844 466.936C904.254 467.328 904.46 467.823 904.46 468.42C904.46 469.036 904.264 469.54 903.872 469.932C903.48 470.324 902.976 470.52 902.36 470.52H901.8ZM899.42 486.48L900.96 477.912H903.984L902.024 486.48H899.42Z" fill="#F3E223"/>
<path d="M237.508 100.04V97.744H241.848C242.725 97.744 243.416 97.492 243.92 96.988C244.424 96.5027 244.676 95.84 244.676 95V93.6L244.732 91.08H244.648C244.499 91.9947 244.06 92.704 243.332 93.208C242.604 93.6933 241.689 93.936 240.588 93.936C239.001 93.936 237.751 93.432 236.836 92.424C235.921 91.416 235.464 90.0347 235.464 88.28V85.032C235.464 83.2773 235.921 81.8867 236.836 80.86C237.751 79.8333 239.001 79.32 240.588 79.32C241.689 79.32 242.604 79.5813 243.332 80.104C244.06 80.6267 244.499 81.3453 244.648 82.26H244.704V79.6H247.196V95C247.196 96.5493 246.711 97.772 245.74 98.668C244.788 99.5827 243.481 100.04 241.82 100.04H237.508ZM241.344 91.836C242.389 91.836 243.211 91.5093 243.808 90.856C244.405 90.2027 244.704 89.2973 244.704 88.14V85.2C244.704 84.0427 244.405 83.1373 243.808 82.484C243.211 81.8307 242.389 81.504 241.344 81.504C240.28 81.504 239.449 81.812 238.852 82.428C238.273 83.044 237.984 83.8747 237.984 84.92V88.42C237.984 89.4653 238.273 90.296 238.852 90.912C239.449 91.528 240.28 91.836 241.344 91.836ZM258.189 95.28C256.378 95.28 254.913 94.7387 253.793 93.656C252.692 92.5547 252.141 91.0427 252.141 89.12V85.48C252.141 83.5573 252.692 82.0547 253.793 80.972C254.913 79.8707 256.378 79.32 258.189 79.32C259.402 79.32 260.457 79.5627 261.353 80.048C262.268 80.5333 262.977 81.2147 263.481 82.092C263.985 82.9693 264.237 84.0053 264.237 85.2V87.944H254.605V89.4C254.605 90.5387 254.932 91.444 255.585 92.116C256.238 92.7693 257.106 93.096 258.189 93.096C259.122 93.096 259.888 92.9187 260.485 92.564C261.101 92.1907 261.474 91.696 261.605 91.08H264.125C263.957 92.368 263.332 93.3947 262.249 94.16C261.166 94.9067 259.813 95.28 258.189 95.28ZM254.605 85.984H261.773V85.2C261.773 83.9867 261.456 83.0533 260.821 82.4C260.205 81.728 259.328 81.392 258.189 81.392C257.05 81.392 256.164 81.728 255.529 82.4C254.913 83.0533 254.605 83.9867 254.605 85.2V85.984ZM269.154 95V79.6H271.674V82.54H271.702C271.833 81.5133 272.253 80.72 272.962 80.16C273.671 79.6 274.614 79.32 275.79 79.32C277.339 79.32 278.571 79.796 279.486 80.748C280.401 81.7 280.858 82.9973 280.858 84.64V95H278.338V85.088C278.338 83.912 278.039 83.016 277.442 82.4C276.863 81.7653 276.07 81.448 275.062 81.448C274.017 81.448 273.186 81.7747 272.57 82.428C271.973 83.0813 271.674 84.0053 271.674 85.2V95H269.154ZM291.767 95.28C289.957 95.28 288.491 94.7387 287.371 93.656C286.27 92.5547 285.719 91.0427 285.719 89.12V85.48C285.719 83.5573 286.27 82.0547 287.371 80.972C288.491 79.8707 289.957 79.32 291.767 79.32C292.981 79.32 294.035 79.5627 294.931 80.048C295.846 80.5333 296.555 81.2147 297.059 82.092C297.563 82.9693 297.815 84.0053 297.815 85.2V87.944H288.183V89.4C288.183 90.5387 288.51 91.444 289.163 92.116C289.817 92.7693 290.685 93.096 291.767 93.096C292.701 93.096 293.466 92.9187 294.063 92.564C294.679 92.1907 295.053 91.696 295.183 91.08H297.703C297.535 92.368 296.91 93.3947 295.827 94.16C294.745 94.9067 293.391 95.28 291.767 95.28ZM288.183 85.984H295.351V85.2C295.351 83.9867 295.034 83.0533 294.399 82.4C293.783 81.728 292.906 81.392 291.767 81.392C290.629 81.392 289.742 81.728 289.107 82.4C288.491 83.0533 288.183 83.9867 288.183 85.2V85.984ZM303.292 95V79.6H305.812V82.54H305.868C305.999 81.5507 306.419 80.7667 307.128 80.188C307.838 79.6093 308.79 79.32 309.984 79.32C311.59 79.32 312.822 79.8053 313.68 80.776C314.558 81.728 314.996 83.0907 314.996 84.864V86.18H312.476V84.864C312.476 82.624 311.384 81.504 309.2 81.504C308.099 81.504 307.259 81.8213 306.68 82.456C306.102 83.0907 305.812 84.0053 305.812 85.2V95H303.292ZM324.001 95.28C322.415 95.28 321.155 94.8413 320.221 93.964C319.288 93.068 318.821 91.9013 318.821 90.464C318.821 89.512 319.036 88.6813 319.465 87.972C319.895 87.2627 320.492 86.712 321.257 86.32C322.023 85.9093 322.9 85.704 323.889 85.704H328.649V84.5C328.649 82.5027 327.557 81.504 325.373 81.504C324.403 81.504 323.619 81.6813 323.021 82.036C322.424 82.3907 322.107 82.8853 322.069 83.52H319.549C319.643 82.3067 320.203 81.308 321.229 80.524C322.275 79.7213 323.656 79.32 325.373 79.32C327.24 79.32 328.668 79.768 329.657 80.664C330.665 81.56 331.169 82.8107 331.169 84.416V95H328.677V92.2H328.621C328.472 93.152 327.996 93.908 327.193 94.468C326.391 95.0093 325.327 95.28 324.001 95.28ZM324.617 93.152C325.849 93.152 326.829 92.8533 327.557 92.256C328.285 91.6587 328.649 90.8467 328.649 89.82V87.664H324.169C323.348 87.664 322.676 87.916 322.153 88.42C321.649 88.9053 321.397 89.5587 321.397 90.38C321.397 91.2387 321.677 91.92 322.237 92.424C322.816 92.9093 323.609 93.152 324.617 93.152ZM343.674 95C342.405 95 341.388 94.636 340.622 93.908C339.857 93.1613 339.474 92.172 339.474 90.94V81.896H335.05V79.6H339.474V75.26H341.994V79.6H348.294V81.896H341.994V90.94C341.994 91.4627 342.144 91.892 342.442 92.228C342.76 92.5453 343.17 92.704 343.674 92.704H348.154V95H343.674ZM358.923 95.28C357.113 95.28 355.647 94.7387 354.527 93.656C353.426 92.5547 352.875 91.0427 352.875 89.12V85.48C352.875 83.5573 353.426 82.0547 354.527 80.972C355.647 79.8707 357.113 79.32 358.923 79.32C360.137 79.32 361.191 79.5627 362.087 80.048C363.002 80.5333 363.711 81.2147 364.215 82.092C364.719 82.9693 364.971 84.0053 364.971 85.2V87.944H355.339V89.4C355.339 90.5387 355.666 91.444 356.319 92.116C356.973 92.7693 357.841 93.096 358.923 93.096C359.857 93.096 360.622 92.9187 361.219 92.564C361.835 92.1907 362.209 91.696 362.339 91.08H364.859C364.691 92.368 364.066 93.3947 362.983 94.16C361.901 94.9067 360.547 95.28 358.923 95.28ZM355.339 85.984H362.507V85.2C362.507 83.9867 362.19 83.0533 361.555 82.4C360.939 81.728 360.062 81.392 358.923 81.392C357.785 81.392 356.898 81.728 356.263 82.4C355.647 83.0533 355.339 83.9867 355.339 85.2V85.984ZM368.993 97.8V95.7H382.433V97.8H368.993ZM391.886 95.224C390.168 95.224 388.834 94.8413 387.882 94.076C386.948 93.292 386.482 92.1907 386.482 90.772H389.002C389.002 91.4813 389.254 92.0413 389.758 92.452C390.262 92.844 390.971 93.04 391.886 93.04H393.118C394.051 93.04 394.77 92.8347 395.274 92.424C395.796 92.0133 396.058 91.4347 396.058 90.688C396.058 89.3627 395.451 88.616 394.238 88.448L389.982 87.832C388.936 87.6827 388.124 87.2533 387.546 86.544C386.967 85.816 386.678 84.864 386.678 83.688C386.678 82.344 387.135 81.2893 388.05 80.524C388.983 79.7587 390.262 79.376 391.886 79.376H393.118C394.611 79.376 395.824 79.7493 396.758 80.496C397.71 81.224 398.223 82.1853 398.298 83.38H395.75C395.712 82.8387 395.451 82.3907 394.966 82.036C394.499 81.6813 393.883 81.504 393.118 81.504H391.886C391.027 81.504 390.355 81.7 389.87 82.092C389.384 82.484 389.142 83.016 389.142 83.688C389.142 84.7707 389.636 85.3867 390.626 85.536L394.602 86.096C397.215 86.4693 398.522 88 398.522 90.688C398.522 92.1253 398.046 93.2453 397.094 94.048C396.16 94.832 394.835 95.224 393.118 95.224H391.886ZM409.291 95.28C407.48 95.28 406.015 94.7387 404.895 93.656C403.793 92.5547 403.243 91.0427 403.243 89.12V85.48C403.243 83.5573 403.793 82.0547 404.895 80.972C406.015 79.8707 407.48 79.32 409.291 79.32C410.504 79.32 411.559 79.5627 412.455 80.048C413.369 80.5333 414.079 81.2147 414.583 82.092C415.087 82.9693 415.339 84.0053 415.339 85.2V87.944H405.707V89.4C405.707 90.5387 406.033 91.444 406.687 92.116C407.34 92.7693 408.208 93.096 409.291 93.096C410.224 93.096 410.989 92.9187 411.587 92.564C412.203 92.1907 412.576 91.696 412.707 91.08H415.227C415.059 92.368 414.433 93.3947 413.351 94.16C412.268 94.9067 410.915 95.28 409.291 95.28ZM405.707 85.984H412.875V85.2C412.875 83.9867 412.557 83.0533 411.923 82.4C411.307 81.728 410.429 81.392 409.291 81.392C408.152 81.392 407.265 81.728 406.631 82.4C406.015 83.0533 405.707 83.9867 405.707 85.2V85.984ZM420.816 95V79.6H423.336V82.54H423.392C423.522 81.5507 423.942 80.7667 424.652 80.188C425.361 79.6093 426.313 79.32 427.508 79.32C429.113 79.32 430.345 79.8053 431.204 80.776C432.081 81.728 432.52 83.0907 432.52 84.864V86.18H430V84.864C430 82.624 428.908 81.504 426.724 81.504C425.622 81.504 424.782 81.8213 424.204 82.456C423.625 83.0907 423.336 84.0053 423.336 85.2V95H420.816ZM436.849 95V92.704H442.309V81.896H437.409V79.6H444.829V92.704H450.009V95H436.849ZM443.289 76.828C442.673 76.828 442.187 76.6693 441.833 76.352C441.478 76.0347 441.301 75.6053 441.301 75.064C441.301 74.504 441.478 74.0653 441.833 73.748C442.187 73.412 442.673 73.244 443.289 73.244C443.905 73.244 444.39 73.412 444.745 73.748C445.099 74.0653 445.277 74.504 445.277 75.064C445.277 75.6053 445.099 76.0347 444.745 76.352C444.39 76.6693 443.905 76.828 443.289 76.828ZM459.658 95.28C457.847 95.28 456.382 94.7387 455.262 93.656C454.16 92.5547 453.61 91.0427 453.61 89.12V85.48C453.61 83.5573 454.16 82.0547 455.262 80.972C456.382 79.8707 457.847 79.32 459.658 79.32C460.871 79.32 461.926 79.5627 462.822 80.048C463.736 80.5333 464.446 81.2147 464.95 82.092C465.454 82.9693 465.706 84.0053 465.706 85.2V87.944H456.074V89.4C456.074 90.5387 456.4 91.444 457.054 92.116C457.707 92.7693 458.575 93.096 459.658 93.096C460.591 93.096 461.356 92.9187 461.954 92.564C462.57 92.1907 462.943 91.696 463.074 91.08H465.594C465.426 92.368 464.8 93.3947 463.718 94.16C462.635 94.9067 461.282 95.28 459.658 95.28ZM456.074 85.984H463.242V85.2C463.242 83.9867 462.924 83.0533 462.29 82.4C461.674 81.728 460.796 81.392 459.658 81.392C458.519 81.392 457.632 81.728 456.998 82.4C456.382 83.0533 456.074 83.9867 456.074 85.2V85.984ZM475.831 95.224C474.114 95.224 472.779 94.8413 471.827 94.076C470.894 93.292 470.427 92.1907 470.427 90.772H472.947C472.947 91.4813 473.199 92.0413 473.703 92.452C474.207 92.844 474.916 93.04 475.831 93.04H477.063C477.996 93.04 478.715 92.8347 479.219 92.424C479.742 92.0133 480.003 91.4347 480.003 90.688C480.003 89.3627 479.396 88.616 478.183 88.448L473.927 87.832C472.882 87.6827 472.07 87.2533 471.491 86.544C470.912 85.816 470.623 84.864 470.623 83.688C470.623 82.344 471.08 81.2893 471.995 80.524C472.928 79.7587 474.207 79.376 475.831 79.376H477.063C478.556 79.376 479.77 79.7493 480.703 80.496C481.655 81.224 482.168 82.1853 482.243 83.38H479.695C479.658 82.8387 479.396 82.3907 478.911 82.036C478.444 81.6813 477.828 81.504 477.063 81.504H475.831C474.972 81.504 474.3 81.7 473.815 82.092C473.33 82.484 473.087 83.016 473.087 83.688C473.087 84.7707 473.582 85.3867 474.571 85.536L478.547 86.096C481.16 86.4693 482.467 88 482.467 90.688C482.467 92.1253 481.991 93.2453 481.039 94.048C480.106 94.832 478.78 95.224 477.063 95.224H475.831Z" fill="#F3E223"/>
<path d="M49.58 396.36C46.9107 395.763 44.8387 394.512 43.364 392.608C41.908 390.704 41.18 388.315 41.18 385.44V380.4C41.18 377.525 41.908 375.136 43.364 373.232C44.8387 371.328 46.9107 370.077 49.58 369.48V371.916C48.3853 372.196 47.34 372.728 46.444 373.512C45.5667 374.296 44.8853 375.276 44.4 376.452C43.9333 377.609 43.7 378.925 43.7 380.4V385.44C43.7 386.896 43.9333 388.212 44.4 389.388C44.8853 390.564 45.5667 391.544 46.444 392.328C47.34 393.112 48.3853 393.644 49.58 393.924V396.36ZM56.0091 396.36V393.924C57.2224 393.644 58.2677 393.112 59.1451 392.328C60.0224 391.544 60.6944 390.564 61.1611 389.388C61.6464 388.212 61.8891 386.896 61.8891 385.44V380.4C61.8891 378.925 61.6464 377.609 61.1611 376.452C60.6944 375.276 60.0224 374.296 59.1451 373.512C58.2677 372.728 57.2224 372.196 56.0091 371.916V369.48C58.6784 370.077 60.7411 371.328 62.1971 373.232C63.6717 375.136 64.4091 377.525 64.4091 380.4V385.44C64.4091 388.315 63.6717 390.704 62.1971 392.608C60.7411 394.512 58.6784 395.763 56.0091 396.36ZM77.6981 381.52C77.0821 381.52 76.5781 381.324 76.1861 380.932C75.7941 380.54 75.5981 380.036 75.5981 379.42C75.5981 378.823 75.7941 378.328 76.1861 377.936C76.5968 377.525 77.1008 377.32 77.6981 377.32H78.2581C78.8555 377.32 79.3501 377.525 79.7421 377.936C80.1528 378.328 80.3581 378.823 80.3581 379.42C80.3581 380.036 80.1621 380.54 79.7701 380.932C79.3781 381.324 78.8741 381.52 78.2581 381.52H77.6981ZM75.3181 397.48L76.8581 388.912H79.8821L77.9221 397.48H75.3181Z" fill="#F3E223"/>
<path d="M969.417 115V112.704H973.589V96.856H969.417V94.56H980.337V96.856H976.165V112.704H980.337V115H969.417ZM985.786 115V94.56H989.146L995.39 112.06C995.352 111.593 995.306 111.024 995.25 110.352C995.212 109.661 995.175 108.943 995.138 108.196C995.119 107.431 995.11 106.712 995.11 106.04V94.56H997.546V115H994.186L987.97 97.5C988.007 97.948 988.044 98.5173 988.082 99.208C988.119 99.88 988.147 100.599 988.166 101.364C988.203 102.111 988.222 102.829 988.222 103.52V115H985.786ZM1008.57 115.28C1006.59 115.28 1005.01 114.757 1003.83 113.712C1002.66 112.667 1002.07 111.229 1002.07 109.4H1004.59C1004.59 110.539 1004.95 111.435 1005.68 112.088C1006.41 112.723 1007.37 113.04 1008.57 113.04C1009.72 113.04 1010.65 112.704 1011.34 112.032C1012.03 111.36 1012.37 110.483 1012.37 109.4C1012.37 108.579 1012.15 107.869 1011.7 107.272C1011.27 106.656 1010.65 106.236 1009.83 106.012L1006.72 105.144C1005.43 104.771 1004.41 104.108 1003.67 103.156C1002.94 102.185 1002.57 101.047 1002.57 99.74C1002.57 98.6573 1002.82 97.7053 1003.3 96.884C1003.79 96.0627 1004.47 95.428 1005.35 94.98C1006.22 94.5133 1007.23 94.28 1008.37 94.28C1009.53 94.28 1010.55 94.5133 1011.42 94.98C1012.32 95.428 1013.02 96.0627 1013.52 96.884C1014.03 97.6867 1014.28 98.62 1014.28 99.684H1011.76C1011.76 98.7507 1011.44 97.9947 1010.81 97.416C1010.17 96.8187 1009.36 96.52 1008.37 96.52C1007.38 96.52 1006.58 96.8187 1005.96 97.416C1005.35 97.9947 1005.04 98.7507 1005.04 99.684C1005.04 100.431 1005.23 101.075 1005.63 101.616C1006.04 102.139 1006.61 102.503 1007.33 102.708L1010.53 103.604C1011.89 103.977 1012.94 104.687 1013.69 105.732C1014.46 106.759 1014.84 107.981 1014.84 109.4C1014.84 111.192 1014.27 112.62 1013.13 113.684C1011.99 114.748 1010.47 115.28 1008.57 115.28ZM1023.98 115V96.856H1018.38V94.56H1032.1V96.856H1026.5V115H1023.98ZM1035.03 115L1040.35 94.56H1043.74L1049.03 115H1046.48L1045.14 109.568H1038.95L1037.61 115H1035.03ZM1039.46 107.44H1044.61L1043.04 101.14C1042.74 99.9453 1042.51 98.9467 1042.34 98.144C1042.17 97.3413 1042.07 96.8187 1042.03 96.576C1042 96.8187 1041.89 97.3413 1041.72 98.144C1041.56 98.9467 1041.32 99.936 1041.02 101.112L1039.46 107.44ZM1054.06 115V94.56H1056.58V112.704H1065.82V115H1054.06ZM1070.85 115V94.56H1073.37V112.704H1082.61V115H1070.85Z" fill="#F3E223"/>
</g>
<g filter="url(#filter0_f_11576_50185)">
<path d="M739.638 120C742.949 120 745.626 122.678 745.626 125.989V300.052C745.626 303.363 742.949 306.04 739.638 306.04H735.451L735.461 309.36V309.365C735.461 312.67 732.79 315.367 729.473 315.367H704.609V394.301H594.969V372.011L472.703 372.296C471.439 372.296 470.417 371.273 470.416 370.009V228.054C470.416 227.591 470.575 227.164 470.839 226.823C470.943 226.556 471.118 226.304 471.372 226.095L495.399 206.15V203.513L455.543 154.712L455.542 154.713C454.267 153.156 455.386 150.827 457.385 150.827H559.036L559.124 150.839C561.017 150.946 562.048 153.149 560.858 154.674L560.859 154.675L537.685 184.787L588.98 184.546V135.316C588.98 132.005 591.658 129.327 594.969 129.327H599.156L599.145 126.008V126.002C599.145 122.697 601.817 120 605.134 120H739.638Z" fill="#FDFAD3"/>
</g>
<path d="M605.135 121.605H739.639C742.064 121.605 744.023 123.564 744.023 125.989V300.051C744.023 302.476 742.064 304.434 739.639 304.434H629.984L629.518 303.968L601.232 275.722V275.242L600.752 126.002C600.752 123.577 602.711 121.605 605.135 121.605Z" fill="#FFFCC2" stroke="#978C00" stroke-width="3.21" stroke-miterlimit="10"/>
<path d="M729.473 313.762H594.969C592.545 313.762 590.586 311.803 590.586 309.378V135.316C590.586 132.891 592.545 130.932 594.969 130.932H704.625L705.091 131.398L733.377 159.645V160.125L733.857 309.365C733.857 311.79 731.898 313.762 729.473 313.762Z" fill="#FFFCC2" stroke="#978C00" stroke-width="3.21" stroke-miterlimit="10"/>
<path d="M733.376 159.645V160.125H708.594C706.662 160.125 705.09 158.553 705.09 156.621V131.785C705.09 131.638 705.263 131.572 705.37 131.665L733.376 159.632V159.645Z" fill="#FFFCC2" stroke="#978C00" stroke-width="3.21" stroke-miterlimit="10"/>
<path d="M472.431 227.646H615.068V370.186C615.068 370.468 614.839 370.691 614.564 370.691H472.705C472.327 370.691 472.023 370.387 472.023 370.008V228.053C472.023 227.831 472.209 227.646 472.431 227.646Z" fill="#FFFCC2" stroke="#978C00" stroke-width="3.21" stroke-miterlimit="10"/>
<path d="M615.068 227.646H472.505C472.342 227.646 472.268 227.438 472.394 227.334L521.083 186.918C521.439 186.621 521.884 186.465 522.344 186.465H660.066C660.237 186.465 660.311 186.673 660.192 186.784L615.068 227.646Z" fill="#FFFCC2" stroke="#978C00" stroke-width="3.21" stroke-miterlimit="10"/>
<path d="M544.868 227.326L472.505 227.645C472.342 227.645 472.268 227.437 472.394 227.333L521.083 186.917C521.439 186.62 521.884 186.464 522.344 186.464L589.867 186.146C590.037 186.146 590.111 186.354 589.993 186.465L544.868 227.326Z" fill="#FFFCC2" stroke="#978C00" stroke-width="3.21" stroke-miterlimit="10"/>
<path d="M615.405 370.38C615.272 370.498 615.064 370.402 615.064 370.224V227.735C615.064 227.676 615.087 227.624 615.131 227.579L659.759 187.163C660.055 186.896 660.537 187.103 660.537 187.511L660.025 331.111C660.025 331.111 623.097 363.626 615.405 370.38Z" fill="#FFFCC2" stroke="#978C00" stroke-width="3.21" stroke-miterlimit="10"/>
<rect x="597.699" y="286.409" width="107.891" height="107.892" rx="17.7845" fill="#FFF100"/>
<rect x="597.699" y="286.409" width="107.891" height="107.892" rx="17.7845" stroke="#978C00" stroke-width="3.21" stroke-miterlimit="10"/>
<path d="M656.342 352.887L656.343 352.888L660.571 355.251L657.134 382.445L652.829 380.04L652.828 380.039L652.726 379.982L652.462 379.834L652.5 379.541L652.514 379.427L652.515 379.427L655.22 358.853L638.173 371.532L637.929 371.714L637.663 371.565L637.56 371.508L637.559 371.507L633.361 369.162L655.977 352.684L656.342 352.887Z" fill="#978C00"/>
<path d="M646.468 351.512L646.545 351.805L646.574 351.917L647.71 356.199L647.739 356.312L647.817 356.605L626.432 373.514L625.892 373.941L624.519 368.76L641.508 355.46L620.665 352.701L620.248 352.647L620.14 352.236L618.906 347.582L646.468 351.512Z" fill="#978C00"/>
<path d="M684.638 365.587L684.803 365.788L685.23 366.312L680.049 367.645L666.749 351.155L663.975 371.497L663.935 371.79L663.639 371.866L663.524 371.895L663.525 371.895L658.871 373.092L662.758 346.629L662.8 346.341L663.093 346.266L667.601 345.106L667.894 345.032L684.638 365.587Z" fill="#978C00"/>
<path d="M693.733 334.864L691.27 339.271L691.122 339.536L670.143 336.778L683.003 354.069L682.853 354.337L682.795 354.438L682.795 354.439L680.45 358.636L663.973 336.02L664.121 335.756L664.177 335.655L666.539 331.427L693.733 334.864Z" fill="#978C00"/>
<path d="M639.069 344.352L639.315 344.689L636.953 348.918L636.952 348.918L636.748 349.283L609.555 345.846L611.96 341.541L612.017 341.44L612.165 341.173L612.459 341.212L633.144 343.932L620.537 326.979L620.285 326.641L622.837 322.074L639.069 344.352Z" fill="#978C00"/>
<path d="M640.487 335.177L640.195 335.255L640.082 335.285L640.081 335.285L635.799 336.42L635.799 336.42L635.393 336.528L618.057 314.603L623.237 313.23L623.424 313.468L636.537 330.218L639.352 308.96L639.648 308.882L644.416 307.618L640.487 335.177Z" fill="#978C00"/>
<path d="M678.936 311.949L662.446 325.249L682.676 328.008H682.677L683.08 328.064L684.382 333.127L657.632 329.198L656.426 324.51L656.426 324.51L656.397 324.396L656.322 324.104L677.603 306.768L678.936 311.949Z" fill="#978C00"/>
<path d="M650.456 300.67L650.559 300.727L650.825 300.875L648.066 321.855L665.358 308.996L665.727 309.203L669.925 311.548L647.552 327.848L647.308 328.026L643.081 325.664L643.08 325.663L642.715 325.458L646.152 298.265L650.456 300.67Z" fill="#978C00"/>
<path d="M605.135 121.605H739.639C742.064 121.605 744.023 123.564 744.023 125.989V300.051C744.023 302.476 742.064 304.434 739.639 304.434H629.984L629.518 303.968L601.232 275.722V275.242L600.752 126.002C600.752 123.577 602.711 121.605 605.135 121.605Z" fill="#FFFCC2" stroke="#978C00" stroke-width="3.21" stroke-miterlimit="10"/>
<path d="M729.473 313.762H594.969C592.545 313.762 590.586 311.803 590.586 309.378V135.316C590.586 132.891 592.545 130.932 594.969 130.932H704.625L705.091 131.398L733.377 159.645V160.125L733.857 309.365C733.857 311.79 731.898 313.762 729.473 313.762Z" fill="#FFFCC2" stroke="#978C00" stroke-width="3.21" stroke-miterlimit="10"/>
<path d="M733.376 159.645V160.125H708.594C706.662 160.125 705.09 158.553 705.09 156.621V131.785C705.09 131.638 705.263 131.572 705.37 131.665L733.376 159.632V159.645Z" fill="#FFFCC2" stroke="#978C00" stroke-width="3.21" stroke-miterlimit="10"/>
<path d="M472.431 227.646H615.068V370.186C615.068 370.468 614.839 370.691 614.564 370.691H472.705C472.327 370.691 472.023 370.387 472.023 370.008V228.053C472.023 227.831 472.209 227.646 472.431 227.646Z" fill="#FFFCC2" stroke="#978C00" stroke-width="3.21" stroke-miterlimit="10"/>
<path d="M615.068 227.646H472.505C472.342 227.646 472.268 227.438 472.394 227.334L521.083 186.918C521.439 186.621 521.884 186.465 522.344 186.465H660.066C660.237 186.465 660.311 186.673 660.192 186.784L615.068 227.646Z" fill="#FFFCC2" stroke="#978C00" stroke-width="3.21" stroke-miterlimit="10"/>
<path d="M544.868 227.326L472.505 227.645C472.342 227.645 472.268 227.437 472.394 227.333L521.083 186.917C521.439 186.62 521.884 186.464 522.344 186.464L589.867 186.146C590.037 186.146 590.111 186.354 589.993 186.465L544.868 227.326Z" fill="#FFFCC2" stroke="#978C00" stroke-width="3.21" stroke-miterlimit="10"/>
<path d="M615.405 370.38C615.272 370.498 615.064 370.402 615.064 370.224V227.735C615.064 227.676 615.087 227.624 615.131 227.579L659.759 187.163C660.055 186.896 660.537 187.103 660.537 187.511L660.025 331.111C660.025 331.111 623.097 363.626 615.405 370.38Z" fill="#FFFCC2" stroke="#978C00" stroke-width="3.21" stroke-miterlimit="10"/>
<rect x="597.699" y="286.409" width="107.891" height="107.892" rx="17.7845" fill="#FFF100"/>
<rect x="597.699" y="286.409" width="107.891" height="107.892" rx="17.7845" stroke="#978C00" stroke-width="3.21" stroke-miterlimit="10"/>
<path d="M656.342 352.887L656.343 352.888L660.571 355.251L657.134 382.445L652.829 380.04L652.828 380.039L652.726 379.982L652.462 379.834L652.5 379.541L652.514 379.427L652.515 379.427L655.22 358.853L638.173 371.532L637.929 371.714L637.663 371.565L637.56 371.508L637.559 371.507L633.361 369.162L655.977 352.684L656.342 352.887Z" fill="#978C00"/>
<path d="M646.468 351.512L646.545 351.805L646.574 351.917L647.71 356.199L647.739 356.312L647.817 356.605L626.432 373.514L625.892 373.941L624.519 368.76L641.508 355.46L620.665 352.701L620.248 352.647L620.14 352.236L618.906 347.582L646.468 351.512Z" fill="#978C00"/>
<path d="M684.638 365.587L684.803 365.788L685.23 366.312L680.049 367.645L666.749 351.155L663.975 371.497L663.935 371.79L663.639 371.866L663.524 371.895L663.525 371.895L658.871 373.092L662.758 346.629L662.8 346.341L663.093 346.266L667.601 345.106L667.894 345.032L684.638 365.587Z" fill="#978C00"/>
<path d="M693.733 334.864L691.27 339.271L691.122 339.536L670.143 336.778L683.003 354.069L682.853 354.337L682.795 354.438L682.795 354.439L680.45 358.636L663.973 336.02L664.121 335.756L664.177 335.655L666.539 331.427L693.733 334.864Z" fill="#978C00"/>
<path d="M639.069 344.352L639.315 344.689L636.953 348.918L636.952 348.918L636.748 349.283L609.555 345.846L611.96 341.541L612.017 341.44L612.165 341.173L612.459 341.212L633.144 343.932L620.537 326.979L620.285 326.641L622.837 322.074L639.069 344.352Z" fill="#978C00"/>
<path d="M640.487 335.177L640.195 335.255L640.082 335.285L640.081 335.285L635.799 336.42L635.799 336.42L635.393 336.528L618.057 314.603L623.237 313.23L623.424 313.468L636.537 330.218L639.352 308.96L639.648 308.882L644.416 307.618L640.487 335.177Z" fill="#978C00"/>
<path d="M678.936 311.949L662.446 325.249L682.676 328.008H682.677L683.08 328.064L684.382 333.127L657.632 329.198L656.426 324.51L656.426 324.51L656.397 324.396L656.322 324.104L677.603 306.768L678.936 311.949Z" fill="#978C00"/>
<path d="M650.456 300.67L650.559 300.727L650.825 300.875L648.066 321.855L665.358 308.996L665.727 309.203L669.925 311.548L647.552 327.848L647.308 328.026L643.081 325.664L643.08 325.663L642.715 325.458L646.152 298.265L650.456 300.67Z" fill="#978C00"/>
<path d="M558.936 152.432H457.386C456.733 152.432 456.373 153.192 456.785 153.696L496.833 202.73C496.948 202.873 497.011 203.05 497.005 203.233V261.908C496.999 262.474 497.577 262.857 498.098 262.629L521.157 253.235C521.426 253.115 521.604 252.852 521.615 252.555L521.884 202.924C521.89 202.758 521.953 202.598 522.056 202.467L559.588 153.696C559.994 153.187 559.634 152.438 558.981 152.438L558.936 152.432Z" fill="#FFF100" stroke="#978C00" stroke-width="3.21" stroke-miterlimit="10"/>
</g>
<defs>
<filter id="filter0_f_11576_50185" x="415" y="80" width="370.627" height="354.301" filterUnits="userSpaceOnUse" color-interpolation-filters="sRGB">
<feFlood flood-opacity="0" result="BackgroundImageFix"/>
<feBlend mode="normal" in="SourceGraphic" in2="BackgroundImageFix" result="shape"/>
<feGaussianBlur stdDeviation="20" result="effect1_foregroundBlur_11576_50185"/>
</filter>
<linearGradient id="paint0_linear_11576_50185" x1="589" y1="-26.5" x2="587" y2="627" gradientUnits="userSpaceOnUse">
<stop stop-color="#FDEF00"/>
<stop offset="0.938633" stop-color="#FFFAA3"/>
</linearGradient>
<linearGradient id="paint1_linear_11576_50185" x1="587" y1="-85" x2="587" y2="627" gradientUnits="userSpaceOnUse">
<stop stop-color="#FDEF00"/>
<stop offset="0.938633" stop-color="#FFFAA3"/>
</linearGradient>
<clipPath id="clip0_11576_50185">
<rect width="1200" height="515" fill="white"/>
</clipPath>
<clipPath id="clip1_11576_50185">
<rect width="1200" height="515" fill="white"/>
</clipPath>
</defs>
</svg>
