<svg width="367" height="206" viewBox="0 0 367 206" fill="none" xmlns="http://www.w3.org/2000/svg">
<g clip-path="url(#clip0_3959_16977)">
<rect width="367" height="206" fill="#2EAFFF"/>
<g filter="url(#filter0_d_3959_16977)">
<path d="M75 164V254.5H380V103H346C334.954 103 326 111.954 326 123V158C326 169.046 317.046 178 306 178L150 178C140.611 178 133 170.389 133 161C133 151.611 125.389 144 116 144H95C83.9543 144 75 152.954 75 164Z" fill="#1095E7"/>
</g>
<path d="M29.798 84.9378V134.5C29.798 145.546 20.8437 154.5 9.798 154.5H-40V-56H104C115.046 -56 124 -47.0457 124 -36V44.9378C124 55.9835 115.046 64.9378 104 64.9378H49.798C38.7523 64.9378 29.798 73.8921 29.798 84.9378Z" fill="#1095E7"/>
<circle cx="183.5" cy="103" r="35.5" fill="black"/>
<path d="M200 116.109C200 116.877 199.358 117.5 198.565 117.5H168.435C167.642 117.5 167 116.877 167 116.109V86.8913C167 86.123 167.642 85.5 168.435 85.5C169.228 85.5 169.87 86.123 169.87 86.8913V108.576L180.333 98.4293C180.894 97.8858 181.802 97.8858 182.362 98.4293L185.582 101.551L193.788 92.4564H191.391C190.598 92.4564 189.956 91.8334 189.956 91.0651C189.956 90.2968 190.598 89.6738 191.391 89.6738H196.926C197.549 89.6738 198.103 90.065 198.292 90.6418L199.931 95.6167C200.173 96.3484 199.756 97.1317 199.002 97.3653C198.856 97.4101 198.709 97.432 198.565 97.432C197.957 97.432 197.394 97.0549 197.199 96.4632L196.339 93.8566L186.732 104.503C186.47 104.793 186.096 104.964 185.7 104.977C185.291 104.98 184.916 104.842 184.638 104.57L181.348 101.38L169.87 112.511V114.717H198.565C199.358 114.717 200 115.34 200 116.109Z" fill="#2EAFFF"/>
<g filter="url(#filter1_d_3959_16977)">
<path d="M266 20.5V-12H493V101.5H409C397.954 101.5 389 92.5457 389 81.5V60.5C389 49.4543 380.046 40.5 369 40.5H286C274.954 40.5 266 31.5457 266 20.5Z" fill="#1095E7"/>
</g>
<g filter="url(#filter2_i_3959_16977)">
<rect x="10" y="168" width="55" height="28" rx="14" fill="#0C6196"/>
<path d="M23.0053 178.935C23.0169 178.392 23.1209 177.9 23.3173 177.461C23.5253 177.022 23.8084 176.647 24.1667 176.335C24.5364 176.023 24.9756 175.78 25.484 175.607C25.9924 175.433 26.5529 175.347 27.1653 175.347C27.7547 175.347 28.2862 175.433 28.76 175.607C29.2453 175.768 29.6613 176.005 30.008 176.317C30.3547 176.629 30.6204 177.005 30.8053 177.444C30.9902 177.883 31.0827 178.374 31.0827 178.917C31.0827 179.819 30.84 180.68 30.3547 181.5C29.8693 182.309 29.0951 183.164 28.032 184.065L26.0907 185.695C25.9982 185.776 25.9 185.851 25.796 185.92C25.692 185.978 25.5938 186.036 25.5013 186.093C25.3973 186.151 25.2933 186.203 25.1893 186.249V186.319C25.3627 186.307 25.536 186.296 25.7093 186.284C25.8711 186.284 26.0444 186.284 26.2293 186.284C26.4142 186.272 26.5876 186.267 26.7493 186.267H31.2213V188H23.092V185.955L26.784 182.887C27.2 182.528 27.5582 182.188 27.8587 181.864C28.1591 181.54 28.4018 181.223 28.5867 180.911C28.7831 180.599 28.9218 180.287 29.0027 179.975C29.0951 179.663 29.1413 179.333 29.1413 178.987C29.1413 178.386 28.9622 177.912 28.604 177.565C28.2458 177.207 27.7604 177.028 27.148 177.028C26.4893 177.028 25.9578 177.201 25.5533 177.548C25.1489 177.895 24.9467 178.357 24.9467 178.935H23.0053ZM39.1359 173.613H41.1119L35.0279 189.907H33.0346L39.1359 173.613ZM42.7518 178.935C42.7633 178.392 42.8673 177.9 43.0638 177.461C43.2718 177.022 43.5549 176.647 43.9131 176.335C44.2829 176.023 44.722 175.78 45.2305 175.607C45.7389 175.433 46.2993 175.347 46.9118 175.347C47.5011 175.347 48.0327 175.433 48.5065 175.607C48.9918 175.768 49.4078 176.005 49.7545 176.317C50.1011 176.629 50.3669 177.005 50.5518 177.444C50.7367 177.883 50.8291 178.374 50.8291 178.917C50.8291 179.819 50.5865 180.68 50.1011 181.5C49.6158 182.309 48.8416 183.164 47.7785 184.065L45.8371 185.695C45.7447 185.776 45.6465 185.851 45.5425 185.92C45.4385 185.978 45.3402 186.036 45.2478 186.093C45.1438 186.151 45.0398 186.203 44.9358 186.249V186.319C45.1091 186.307 45.2825 186.296 45.4558 186.284C45.6176 186.284 45.7909 186.284 45.9758 186.284C46.1607 186.272 46.334 186.267 46.4958 186.267H50.9678V188H42.8385V185.955L46.5305 182.887C46.9465 182.528 47.3047 182.188 47.6051 181.864C47.9056 181.54 48.1482 181.223 48.3331 180.911C48.5296 180.599 48.6682 180.287 48.7491 179.975C48.8416 179.663 48.8878 179.333 48.8878 178.987C48.8878 178.386 48.7087 177.912 48.3505 177.565C47.9922 177.207 47.5069 177.028 46.8945 177.028C46.2358 177.028 45.7042 177.201 45.2998 177.548C44.8953 177.895 44.6931 178.357 44.6931 178.935H42.7518Z" fill="#2EAFFF"/>
</g>
</g>
<defs>
<filter id="filter0_d_3959_16977" x="75" y="103" width="307" height="153.5" filterUnits="userSpaceOnUse" color-interpolation-filters="sRGB">
<feFlood flood-opacity="0" result="BackgroundImageFix"/>
<feColorMatrix in="SourceAlpha" type="matrix" values="0 0 0 0 0 0 0 0 0 0 0 0 0 0 0 0 0 0 127 0" result="hardAlpha"/>
<feOffset dx="1" dy="1"/>
<feGaussianBlur stdDeviation="0.5"/>
<feComposite in2="hardAlpha" operator="out"/>
<feColorMatrix type="matrix" values="0 0 0 0 0 0 0 0 0 0 0 0 0 0 0 0 0 0 0.17 0"/>
<feBlend mode="normal" in2="BackgroundImageFix" result="effect1_dropShadow_3959_16977"/>
<feBlend mode="normal" in="SourceGraphic" in2="effect1_dropShadow_3959_16977" result="shape"/>
</filter>
<filter id="filter1_d_3959_16977" x="266" y="-12" width="229" height="115.5" filterUnits="userSpaceOnUse" color-interpolation-filters="sRGB">
<feFlood flood-opacity="0" result="BackgroundImageFix"/>
<feColorMatrix in="SourceAlpha" type="matrix" values="0 0 0 0 0 0 0 0 0 0 0 0 0 0 0 0 0 0 127 0" result="hardAlpha"/>
<feOffset dx="1" dy="1"/>
<feGaussianBlur stdDeviation="0.5"/>
<feComposite in2="hardAlpha" operator="out"/>
<feColorMatrix type="matrix" values="0 0 0 0 0 0 0 0 0 0 0 0 0 0 0 0 0 0 0.17 0"/>
<feBlend mode="normal" in2="BackgroundImageFix" result="effect1_dropShadow_3959_16977"/>
<feBlend mode="normal" in="SourceGraphic" in2="effect1_dropShadow_3959_16977" result="shape"/>
</filter>
<filter id="filter2_i_3959_16977" x="10" y="168" width="55" height="32" filterUnits="userSpaceOnUse" color-interpolation-filters="sRGB">
<feFlood flood-opacity="0" result="BackgroundImageFix"/>
<feBlend mode="normal" in="SourceGraphic" in2="BackgroundImageFix" result="shape"/>
<feColorMatrix in="SourceAlpha" type="matrix" values="0 0 0 0 0 0 0 0 0 0 0 0 0 0 0 0 0 0 127 0" result="hardAlpha"/>
<feOffset dy="4"/>
<feGaussianBlur stdDeviation="2"/>
<feComposite in2="hardAlpha" operator="arithmetic" k2="-1" k3="1"/>
<feColorMatrix type="matrix" values="0 0 0 0 0 0 0 0 0 0 0 0 0 0 0 0 0 0 0.25 0"/>
<feBlend mode="normal" in2="shape" result="effect1_innerShadow_3959_16977"/>
</filter>
<clipPath id="clip0_3959_16977">
<rect width="367" height="206" fill="white"/>
</clipPath>
</defs>
</svg>
