<svg xmlns="http://www.w3.org/2000/svg" width="560" height="240" fill="none" viewBox="0 0 560 240"><g clip-path="url(#clip0_4723_13605)"><rect width="560" height="240" fill="#FFF100"/><g clip-path="url(#clip1_4723_13605)"><rect width="560" height="240" fill="#FFF100"/><path fill="#FFF100" d="M-137 100L9.61491 100L67 100C78.0457 100 87 108.954 87 120L87 340C87 351.046 78.0457 360 67 360L-137 360C-148.046 360 -157 351.046 -157 340L-157 120C-157 108.954 -148.046 100 -137 100Z"/><path fill="#EDDE00" d="M231 21.9441L231 -24C231 -35.0457 222.046 -44 211 -44L-11 -44C-22.0457 -44 -31 -35.0457 -31 -24L-31 191C-31 202.046 -22.0457 211 -11 211L76.5 211C87.5457 211 96.5 202.046 96.5 191L96.5 61.9441C96.5 50.8984 105.454 41.9441 116.5 41.9441L211 41.9441C222.046 41.9441 231 32.9898 231 21.9441Z"/><path fill="#EDDE00" d="M423.479 197.576L289 197.576C277.954 197.576 269 206.53 269 217.576L269 256C269 267.046 277.954 276 289 276L611.5 276C622.546 276 631.5 267.046 631.5 256L631.5 -28C631.5 -39.0457 622.546 -48 611.5 -48L504.424 -48C493.378 -48 484.424 -39.0457 484.424 -28L484.424 58.5088C484.424 69.5545 475.47 78.5088 464.424 78.5088L463.479 78.5088C452.433 78.5088 443.479 87.4631 443.479 98.5088L443.479 177.576C443.479 188.622 434.525 197.576 423.479 197.576Z"/><path fill="#FFF100" d="M514 114C502.954 114 494 122.954 494 134L494 294C494 305.046 502.954 314 514 314H612C623.046 314 632 305.046 632 294L632 134C632 122.954 623.046 114 612 114L514 114Z"/></g><circle cx="280" cy="120" r="33.5" fill="#000"/><path fill="#FFF100" d="M295.57 132.37C295.57 133.095 294.965 133.683 294.216 133.683H265.784C265.035 133.683 264.43 133.095 264.43 132.37V104.799C264.43 104.074 265.035 103.486 265.784 103.486C266.532 103.486 267.138 104.074 267.138 104.799C267.138 147.194 267.138 79.2358 267.138 131.057H294.216C294.965 131.057 295.57 131.645 295.57 132.37Z"/><path fill="#FFF100" d="M264.67 132.066L267.018 133.343L279.76 111.468L281.08 113.697C281.38 114.203 281.975 114.436 282.536 114.313C282.669 114.284 282.8 114.234 282.925 114.163C283.573 113.795 283.799 112.989 283.427 112.364L280.909 108.11C280.618 107.617 280.029 107.368 279.454 107.494L274.353 108.615C273.622 108.775 273.157 109.48 273.312 110.188C273.468 110.896 274.185 111.34 274.916 111.18L277.126 110.694L264.67 132.066Z"/><path fill="#FFF100" d="M264.924 130.874L266.095 133.276L289.167 122.857L288.948 125.438C288.898 126.024 289.248 126.56 289.776 126.785C289.901 126.838 290.037 126.873 290.18 126.888C290.921 126.965 291.573 126.439 291.633 125.714L292.051 120.789C292.1 120.218 291.765 119.674 291.224 119.443L286.419 117.395C285.731 117.102 284.943 117.405 284.659 118.072C284.375 118.739 284.701 119.517 285.39 119.811L287.47 120.698L264.924 130.874Z"/></g><defs><clipPath id="clip0_4723_13605"><rect width="560" height="240" fill="#fff"/></clipPath><clipPath id="clip1_4723_13605"><rect width="560" height="240" fill="#fff"/></clipPath></defs></svg>