<svg xmlns="http://www.w3.org/2000/svg" width="560" height="240" fill="none" viewBox="0 0 560 240"><g clip-path="url(#clip0_5188_930)"><rect width="560" height="240" fill="#FFF100"/><g clip-path="url(#clip1_5188_930)"><rect width="560" height="240" fill="#FFF100" transform="translate(0 1)"/><path fill="#EDDE00" d="M224 50.847L224 1.52588e-05C224 -11.0457 215.046 -20 204 -20L-26 -20C-37.0457 -20 -46 -11.0457 -46 -8.34536e-06L-46 176C-46 187.046 -37.0457 196 -26 196L52.5714 196C63.6171 196 72.5714 187.046 72.5714 176L72.5714 90.8471C72.5714 79.8014 81.5257 70.8471 92.5714 70.8471L204 70.8471C215.046 70.8471 224 61.8927 224 50.847Z"/><path fill="#EDDE00" d="M472.584 124.352L505.5 124.352C516.546 124.352 525.5 115.397 525.5 104.352L525.5 67.9999C525.5 56.9542 516.546 47.9999 505.5 47.9999L454.5 47.9999C443.454 47.9999 434.5 39.0456 434.5 27.9999L434.5 -33.0001C434.5 -44.0458 443.454 -53.0001 454.5 -53.0001L583 -53.0001C594.046 -53.0001 603 -44.0457 603 -33.0001L603 242.5C603 253.546 594.046 262.5 583 262.5L335 262.5C323.954 262.5 315 253.546 315 242.5L315 207.5C315 196.454 323.954 187.5 335 187.5L432.584 187.5C443.629 187.5 452.584 178.546 452.584 167.5L452.584 144.352C452.584 133.306 461.538 124.352 472.584 124.352Z"/></g><rect width="65" height="65" x="124.5" y="87.5" fill="#000" rx="10"/><path stroke="#FFF100" stroke-linecap="round" stroke-linejoin="round" stroke-width="3" d="M157 103C149.82 103 144 109.18 144 116.222V135.111C144 135.612 144.196 136.093 144.544 136.447C144.892 136.801 145.365 137 145.857 137H168.143C168.635 137 169.108 136.801 169.456 136.447C169.804 136.093 170 135.612 170 135.111V116.222C170 109.18 164.18 103 157 103ZM157 103V137M144 121.889H170"/><path fill="#000" d="M216.869 128.5L214.937 111.71H216.961L218.203 123.946C218.249 124.437 218.287 124.966 218.318 125.533C218.364 126.085 218.395 126.537 218.41 126.89C218.441 126.537 218.479 126.085 218.525 125.533C218.571 124.966 218.632 124.437 218.709 123.946L220.319 111.71H222.596L224.091 123.946C224.137 124.437 224.191 124.966 224.252 125.533C224.313 126.085 224.367 126.537 224.413 126.89C224.428 126.537 224.459 126.085 224.505 125.533C224.551 124.966 224.597 124.437 224.643 123.946L225.908 111.71H227.886L225.885 128.5H223.125L221.676 116.08C221.615 115.574 221.561 115.06 221.515 114.539C221.484 114.002 221.461 113.573 221.446 113.251C221.4 113.573 221.362 114.002 221.331 114.539C221.3 115.06 221.254 115.574 221.193 116.08L219.606 128.5H216.869ZM230.2 128.5V126.43H234.639V117.92H230.66V115.85H236.916V126.43H241.079V128.5H230.2ZM235.559 113.619C235.038 113.619 234.624 113.489 234.317 113.228C234.01 112.952 233.857 112.584 233.857 112.124C233.857 111.649 234.01 111.273 234.317 110.997C234.624 110.721 235.038 110.583 235.559 110.583C236.08 110.583 236.494 110.721 236.801 110.997C237.108 111.273 237.261 111.649 237.261 112.124C237.261 112.584 237.108 112.952 236.801 113.228C236.494 113.489 236.08 113.619 235.559 113.619ZM244.106 128.5V115.85H246.36V118.265H246.383C246.49 117.437 246.835 116.793 247.418 116.333C248.016 115.858 248.798 115.62 249.764 115.62C251.021 115.62 252.026 116.019 252.777 116.816C253.528 117.613 253.904 118.687 253.904 120.036V128.5H251.627V120.404C251.627 119.484 251.397 118.779 250.937 118.288C250.477 117.797 249.848 117.552 249.051 117.552C248.223 117.552 247.571 117.813 247.096 118.334C246.621 118.84 246.383 119.553 246.383 120.473V128.5H244.106ZM261.945 128.73C260.672 128.73 259.66 128.308 258.909 127.465C258.158 126.606 257.782 125.449 257.782 123.992V120.358C257.782 118.901 258.158 117.751 258.909 116.908C259.66 116.049 260.672 115.62 261.945 115.62C262.88 115.62 263.655 115.858 264.268 116.333C264.897 116.808 265.28 117.46 265.418 118.288L265.372 115.344V111.71H267.649V128.5H265.395V126.039C265.257 126.882 264.881 127.542 264.268 128.017C263.655 128.492 262.88 128.73 261.945 128.73ZM262.727 126.752C263.54 126.752 264.184 126.499 264.659 125.993C265.134 125.487 265.372 124.774 265.372 123.854V120.496C265.372 119.576 265.134 118.863 264.659 118.357C264.184 117.851 263.54 117.598 262.727 117.598C261.884 117.598 261.224 117.82 260.749 118.265C260.289 118.694 260.059 119.4 260.059 120.381V123.969C260.059 124.95 260.289 125.663 260.749 126.108C261.224 126.537 261.884 126.752 262.727 126.752ZM276.564 128.684C275.015 128.684 273.781 128.239 272.861 127.35C271.956 126.461 271.504 125.219 271.504 123.624V120.726C271.504 119.131 271.956 117.889 272.861 117C273.781 116.111 275.015 115.666 276.564 115.666C278.113 115.666 279.339 116.111 280.244 117C281.164 117.889 281.624 119.131 281.624 120.726V123.624C281.624 125.219 281.164 126.461 280.244 127.35C279.339 128.239 278.113 128.684 276.564 128.684ZM276.564 126.683C277.423 126.683 278.097 126.445 278.588 125.97C279.094 125.479 279.347 124.766 279.347 123.831V120.519C279.347 119.584 279.094 118.878 278.588 118.403C278.097 117.912 277.423 117.667 276.564 117.667C275.705 117.667 275.023 117.912 274.517 118.403C274.026 118.878 273.781 119.584 273.781 120.519V123.831C273.781 124.766 274.026 125.479 274.517 125.97C275.023 126.445 275.705 126.683 276.564 126.683ZM286.123 128.5L284.076 115.85H286.008L287.25 124.475C287.296 124.858 287.342 125.272 287.388 125.717C287.434 126.162 287.465 126.522 287.48 126.798C287.511 126.522 287.549 126.162 287.595 125.717C287.641 125.272 287.695 124.858 287.756 124.475L289.274 115.85H291.436L292.954 124.475C293.015 124.858 293.069 125.272 293.115 125.717C293.176 126.146 293.222 126.507 293.253 126.798C293.284 126.507 293.322 126.146 293.368 125.717C293.414 125.272 293.46 124.858 293.506 124.475L294.794 115.85H296.634L294.495 128.5H292.057L290.654 119.99C290.593 119.576 290.531 119.116 290.47 118.61C290.424 118.104 290.386 117.705 290.355 117.414C290.34 117.705 290.294 118.104 290.217 118.61C290.156 119.116 290.094 119.576 290.033 119.99L288.584 128.5H286.123ZM313.13 128.5V111.71H323.158V113.803H315.361V119.093H322.56V121.163H315.407V128.5H313.13ZM331.705 128.73C330.218 128.73 329.029 128.293 328.14 127.419C327.251 126.545 326.806 125.357 326.806 123.854V115.85H329.083V123.854C329.083 124.743 329.313 125.449 329.773 125.97C330.248 126.476 330.892 126.729 331.705 126.729C332.533 126.729 333.185 126.476 333.66 125.97C334.135 125.449 334.373 124.743 334.373 123.854V115.85H336.65V123.854C336.65 125.357 336.198 126.545 335.293 127.419C334.404 128.293 333.208 128.73 331.705 128.73ZM340.643 128.5V115.85H342.897V118.265H342.92C343.027 117.437 343.372 116.793 343.955 116.333C344.553 115.858 345.335 115.62 346.301 115.62C347.558 115.62 348.563 116.019 349.314 116.816C350.065 117.613 350.441 118.687 350.441 120.036V128.5H348.164V120.404C348.164 119.484 347.934 118.779 347.474 118.288C347.014 117.797 346.385 117.552 345.588 117.552C344.76 117.552 344.108 117.813 343.633 118.334C343.158 118.84 342.92 119.553 342.92 120.473V128.5H340.643ZM359.494 128.73C357.945 128.73 356.703 128.301 355.768 127.442C354.833 126.568 354.365 125.372 354.365 123.854V120.473C354.365 118.97 354.833 117.79 355.768 116.931C356.703 116.057 357.945 115.62 359.494 115.62C360.981 115.62 362.177 116.019 363.082 116.816C364.002 117.598 364.485 118.671 364.531 120.036H362.277C362.231 119.269 361.955 118.679 361.449 118.265C360.958 117.836 360.307 117.621 359.494 117.621C358.62 117.621 357.922 117.874 357.401 118.38C356.895 118.871 356.642 119.568 356.642 120.473V123.854C356.642 124.774 356.895 125.479 357.401 125.97C357.922 126.461 358.62 126.706 359.494 126.706C360.322 126.706 360.981 126.499 361.472 126.085C361.963 125.671 362.231 125.081 362.277 124.314H364.531C364.485 125.679 364.002 126.76 363.082 127.557C362.177 128.339 360.981 128.73 359.494 128.73ZM374.366 128.5C373.278 128.5 372.411 128.186 371.767 127.557C371.139 126.928 370.824 126.093 370.824 125.05V117.92H367.213V115.85H370.824V112.285H373.101V115.85H378.23V117.92H373.101V125.027C373.101 125.441 373.216 125.778 373.446 126.039C373.692 126.3 374.014 126.43 374.412 126.43H378.115V128.5H374.366ZM381.901 128.5V126.43H386.34V117.92H382.361V115.85H388.617V126.43H392.78V128.5H381.901ZM387.26 113.619C386.739 113.619 386.325 113.489 386.018 113.228C385.712 112.952 385.558 112.584 385.558 112.124C385.558 111.649 385.712 111.273 386.018 110.997C386.325 110.721 386.739 110.583 387.26 110.583C387.782 110.583 388.196 110.721 388.502 110.997C388.809 111.273 388.962 111.649 388.962 112.124C388.962 112.584 388.809 112.952 388.502 113.228C388.196 113.489 387.782 113.619 387.26 113.619ZM400.683 128.684C399.135 128.684 397.9 128.239 396.98 127.35C396.076 126.461 395.623 125.219 395.623 123.624V120.726C395.623 119.131 396.076 117.889 396.98 117C397.9 116.111 399.135 115.666 400.683 115.666C402.232 115.666 403.459 116.111 404.363 117C405.283 117.889 405.743 119.131 405.743 120.726V123.624C405.743 125.219 405.283 126.461 404.363 127.35C403.459 128.239 402.232 128.684 400.683 128.684ZM400.683 126.683C401.542 126.683 402.217 126.445 402.707 125.97C403.213 125.479 403.466 124.766 403.466 123.831V120.519C403.466 119.584 403.213 118.878 402.707 118.403C402.217 117.912 401.542 117.667 400.683 117.667C399.825 117.667 399.142 117.912 398.636 118.403C398.146 118.878 397.9 119.584 397.9 120.519V123.831C397.9 124.766 398.146 125.479 398.636 125.97C399.142 126.445 399.825 126.683 400.683 126.683ZM409.598 128.5V115.85H411.852V118.265H411.875C411.983 117.437 412.328 116.793 412.91 116.333C413.508 115.858 414.29 115.62 415.256 115.62C416.514 115.62 417.518 116.019 418.269 116.816C419.021 117.613 419.396 118.687 419.396 120.036V128.5H417.119V120.404C417.119 119.484 416.889 118.779 416.429 118.288C415.969 117.797 415.341 117.552 414.543 117.552C413.715 117.552 413.064 117.813 412.588 118.334C412.113 118.84 411.875 119.553 411.875 120.473V128.5H409.598ZM427.759 128.684C426.318 128.684 425.199 128.362 424.401 127.718C423.604 127.074 423.205 126.169 423.205 125.004H425.459C425.459 125.556 425.659 125.993 426.057 126.315C426.471 126.622 427.039 126.775 427.759 126.775H428.771C429.523 126.775 430.098 126.614 430.496 126.292C430.91 125.97 431.117 125.518 431.117 124.935C431.117 123.908 430.611 123.333 429.599 123.21L426.195 122.727C425.291 122.589 424.593 122.221 424.102 121.623C423.612 121.01 423.366 120.22 423.366 119.254C423.366 118.119 423.75 117.238 424.516 116.609C425.283 115.98 426.356 115.666 427.736 115.666H428.748C430.036 115.666 431.079 115.973 431.876 116.586C432.674 117.199 433.095 118.012 433.141 119.024H430.841C430.811 118.595 430.611 118.242 430.243 117.966C429.875 117.675 429.377 117.529 428.748 117.529H427.736C427.046 117.529 426.51 117.682 426.126 117.989C425.758 118.296 425.574 118.71 425.574 119.231C425.574 120.074 425.996 120.55 426.839 120.657L430.036 121.117C432.229 121.408 433.325 122.681 433.325 124.935C433.325 126.131 432.927 127.059 432.129 127.718C431.347 128.362 430.228 128.684 428.771 128.684H427.759Z"/></g><defs><clipPath id="clip0_5188_930"><rect width="560" height="240" fill="#fff"/></clipPath><clipPath id="clip1_5188_930"><rect width="560" height="240" fill="#fff" transform="translate(0 1)"/></clipPath></defs></svg>