<svg xmlns="http://www.w3.org/2000/svg" xmlns:xlink="http://www.w3.org/1999/xlink" width="100%" height="100%" version="1.1" viewBox="0 0 800 550" xml:space="preserve" style="fill-rule:evenodd;clip-rule:evenodd;stroke-linecap:round;stroke-linejoin:round;stroke-miterlimit:1.5"><g id="Time"><path d="M48.041,219.327L65.178,309.25L45,217.125L65.178,125L48.041,214.923L778.959,214.923L761.822,125L782,217.125L761.822,309.25L778.959,219.327L48.041,219.327Z" transform="matrix(0.898236,0,0,0.196744,79.5794,223.407)"/></g><g><text x="39.961" y="301.788" style="font-family:'ArialMT','Arial',sans-serif;font-size:20px" transform="matrix(1,0,0,1,3,-28.5)">Instants</text></g><g id="Hour-11" transform="matrix(0.249245,0,0,0.958482,585.921,95.8433)"><rect width="662" height="31" x="120" y="325" style="fill:#ff9da6"/><g><text x="382.043" y="242.596" style="font-family:'ArialMT','Arial',sans-serif;font-size:24px" transform="matrix(4.01212,0,0,1.04332,-1104.81,96.5137)">1<tspan x="393.609" y="242.596">1</tspan></text></g><rect width="662" height="31" x="120" y="325" style="fill:none;stroke:#000;stroke-width:1.43px;stroke-dasharray:1.43,1.43"/></g><g id="Hour-10" transform="matrix(0.249245,0,0,0.958065,420.645,95.979)"><rect width="662" height="31" x="120" y="325" style="fill:#ff9da6"/><g><text x="381.152" y="242.596" style="font-family:'ArialMT','Arial',sans-serif;font-size:24px" transform="matrix(4.01212,0,0,1.04377,-1131.78,96.4141)">10</text></g><rect width="662" height="31" x="120" y="325" style="fill:none;stroke:#000;stroke-width:1.43px;stroke-dasharray:1.43,1.43"/></g><g id="Hour-09" transform="matrix(0.249245,0,0,0.958065,255.368,95.979)"><rect width="662" height="31" x="120" y="325" style="fill:#ff9da6"/><g><text x="381.152" y="242.596" style="font-family:'ArialMT','Arial',sans-serif;font-size:24px" transform="matrix(4.01212,0,0,1.04377,-1104.81,96.4141)">09</text></g><rect width="662" height="31" x="120" y="325" style="fill:none;stroke:#000;stroke-width:1.43px;stroke-dasharray:1.43,1.43"/></g><g id="Hour-08" transform="matrix(0.249245,0,0,0.958065,90.0906,95.979)"><rect width="662" height="31" x="120" y="325" style="fill:#ff9da6"/><g><text x="381.152" y="242.596" style="font-family:'ArialMT','Arial',sans-serif;font-size:24px" transform="matrix(4.01212,0,0,1.04377,-1131.78,96.4141)">08</text></g><rect width="662" height="31" x="120" y="325" style="fill:none;stroke:#000;stroke-width:1.43px;stroke-dasharray:1.43,1.43"/></g><g id="Hour-111" transform="matrix(0.249245,0,0,0.958482,585.921,-220.157)"><rect width="662" height="31" x="120" y="325" style="fill:#ff9da6"/><g><text x="381.152" y="242.596" style="font-family:'ArialMT','Arial',sans-serif;font-size:24px" transform="matrix(4.01212,0,0,1.04332,-1104.81,95.4704)">03</text></g><rect width="662" height="31" x="120" y="325" style="fill:none;stroke:#000;stroke-width:1.43px;stroke-dasharray:1.43,1.43"/></g><g id="Hour-02" transform="matrix(0.499326,0,0,0.958065,225.358,-220.021)"><rect width="662" height="31" x="120" y="325" style="fill:#ff9da6"/><g><text x="440.852" y="242.596" style="font-family:'ArialMT','Arial',sans-serif;font-size:24px" transform="matrix(2.0027,0,0,1.04377,-458.625,96.2576)">02</text></g><rect width="662" height="31" x="120" y="325" style="fill:none;stroke:#000;stroke-width:1.31px;stroke-dasharray:1.31,1.31"/></g><g id="Hour-01" transform="matrix(0.249245,0,0,0.958065,90.0906,-220.021)"><rect width="662" height="31" x="120" y="325" style="fill:#ff9da6"/><g><text x="381.152" y="242.596" style="font-family:'ArialMT','Arial',sans-serif;font-size:24px" transform="matrix(4.01212,0,0,1.04377,-1131.78,95.3704)">01</text></g><rect width="662" height="31" x="120" y="325" style="fill:none;stroke:#000;stroke-width:1.43px;stroke-dasharray:1.43,1.43"/></g><g id="Day" transform="matrix(0.996979,0,0,0.958482,0.362538,60.3795)"><rect width="662" height="31" x="120" y="325" style="fill:#54a24b"/><g><text x="381.152" y="242.596" style="font-family:'ArialMT','Arial',sans-serif;font-size:24px" transform="matrix(1.00303,0,0,1.04332,55.3045,96.6218)">15</text></g><rect width="662" height="31" x="120" y="325" style="fill:none;stroke:#000;stroke-width:1.02px;stroke-dasharray:1.02,1.02"/></g><g id="Day1" transform="matrix(0.996979,0,0,0.958482,0.362538,-182.621)"><rect width="662" height="31" x="120" y="325" style="fill:#54a24b"/><g><text x="381.152" y="242.596" style="font-family:'ArialMT','Arial',sans-serif;font-size:24px" transform="matrix(1.00303,0,0,1.04332,55.3045,96.6218)">15</text></g><rect width="662" height="31" x="120" y="325" style="fill:none;stroke:#000;stroke-width:1.02px;stroke-dasharray:1.02,1.02"/></g><g id="Day2" transform="matrix(0.996979,0,0,0.958482,0.362538,132.379)"><rect width="662" height="31" x="120" y="325" style="fill:#eeca3b"/><g><text x="364.471" y="242.596" style="font-family:'ArialMT','Arial',sans-serif;font-size:24px" transform="matrix(1.00303,0,0,1.04332,55.3045,96.6218)">00:00</text></g><rect width="662" height="31" x="120" y="325" style="fill:none;stroke:#000;stroke-width:1.02px;stroke-dasharray:1.02,1.02"/></g><g id="Day3" transform="matrix(0.499326,0,0,0.958482,60.0809,-256.621)"><rect width="662" height="31" x="120" y="325" style="fill:#eeca3b"/><g><text x="364.775" y="242.596" style="font-family:'ArialMT','Arial',sans-serif;font-size:24px" transform="matrix(2.0027,0,0,1.04332,-347.676,96.364)">-07:00</text></g><rect width="662" height="31" x="120" y="325" style="fill:none;stroke:#000;stroke-width:1.31px;stroke-dasharray:1.31,1.31"/></g><g id="Day4" transform="matrix(0.499326,0,0,0.958482,390.635,-256.621)"><rect width="662" height="31" x="120" y="325" style="fill:#eeca3b"/><g><text x="355.775" y="242.596" style="font-family:'ArialMT','Arial',sans-serif;font-size:24px" transform="matrix(2.0027,0,0,1.04332,-329.652,96.364)">-08:00</text></g><rect width="662" height="31" x="120" y="325" style="fill:none;stroke:#000;stroke-width:1.31px;stroke-dasharray:1.31,1.31"/></g><g><text x="327.65" y="182.163" style="font-family:'ArialMT','Arial',sans-serif;font-size:20px" transform="matrix(1,0,0,1,-268,245.422)">Hours</text></g><g><text x="328.012" y="182.163" style="font-family:'ArialMT','Arial',sans-serif;font-size:20px" transform="matrix(1,0,0,1,-268,283.743)">Of<tspan x="348.764 354.32" y="182.163 182.163">fs</tspan>et</text></g><g><text x="327.65" y="182.163" style="font-family:'ArialMT','Arial',sans-serif;font-size:20px" transform="matrix(1,0,0,1,-268,-67.023)">Hours</text></g><g><text x="328.012" y="182.163" style="font-family:'ArialMT','Arial',sans-serif;font-size:20px" transform="matrix(1,0,0,1,-268,-107.703)">Of<tspan x="348.764 354.32" y="182.163 182.163">fs</tspan>et</text></g><g><text x="335.434" y="182.163" style="font-family:'ArialMT','Arial',sans-serif;font-size:20px" transform="matrix(1,0,0,1,-268,210.422)">Days</text></g><g id="Month" transform="matrix(0.996979,0,0,0.958482,0.362538,24.9156)"><rect width="662" height="31" x="120" y="325" style="fill:#f58518"/><g><text x="339.146" y="242.596" style="font-family:'ArialMT','Arial',sans-serif;font-size:24px" transform="matrix(1.00303,0,0,1.04332,55.3045,96.0624)">November</text></g><rect width="662" height="31" x="120" y="325" style="fill:none;stroke:#000;stroke-width:1.02px;stroke-dasharray:1.02,1.02"/></g><g id="Month1" transform="matrix(0.996979,0,0,0.958482,0.362538,-144.084)"><rect width="662" height="31" x="120" y="325" style="fill:#f58518"/><g><text x="339.146" y="242.596" style="font-family:'ArialMT','Arial',sans-serif;font-size:24px" transform="matrix(1.00303,0,0,1.04332,55.3045,96.0624)">November</text></g><rect width="662" height="31" x="120" y="325" style="fill:none;stroke:#000;stroke-width:1.02px;stroke-dasharray:1.02,1.02"/></g><g><text x="315.414" y="182.163" style="font-family:'ArialMT','Arial',sans-serif;font-size:20px" transform="matrix(1,0,0,1,-268,177.422)">Months</text></g><g id="Years" transform="matrix(0.996979,0,0,0.958482,0.362538,-11.5067)"><rect width="662" height="31" x="120" y="325" style="fill:#4c78a8"/><g><text x="346.609" y="242.596" style="font-family:'ArialMT','Arial',sans-serif;font-size:24px" transform="matrix(1.00303,0,0,1.04332,82.3864,96.364)">2021</text></g><rect width="662" height="31" x="120" y="325" style="fill:none;stroke:#000;stroke-width:1.02px;stroke-dasharray:1.02,1.02"/></g><g id="Years1" transform="matrix(0.996979,0,0,0.958482,0.362538,-107.507)"><rect width="662" height="31" x="120" y="325" style="fill:#4c78a8"/><g><text x="346.609" y="242.596" style="font-family:'ArialMT','Arial',sans-serif;font-size:24px" transform="matrix(1.00303,0,0,1.04332,82.3864,96.364)">2021</text></g><rect width="662" height="31" x="120" y="325" style="fill:none;stroke:#000;stroke-width:1.02px;stroke-dasharray:1.02,1.02"/></g><g><text x="59.59" y="301.788" style="font-family:'ArialMT','Arial',sans-serif;font-size:20px" transform="matrix(1,0,0,1,3,19.5)">Y<tspan x="71.094 82.217" y="301.788 301.788">ea</tspan>rs</text></g><g><text x="335.434" y="182.163" style="font-family:'ArialMT','Arial',sans-serif;font-size:20px" transform="matrix(1,0,0,1,-268.5,-28.7027)">Days</text></g><g><text x="315.414" y="182.163" style="font-family:'ArialMT','Arial',sans-serif;font-size:20px" transform="matrix(1,0,0,1,-268.5,3.29732)">Months</text></g><g><text x="59.59" y="301.788" style="font-family:'ArialMT','Arial',sans-serif;font-size:20px" transform="matrix(1,0,0,1,2.5,-77.625)">Y<tspan x="71.094 82.217" y="301.788 301.788">ea</tspan>rs</text></g><g><text x="43.448" y="301.788" style="font-family:'ArialMT','Arial',sans-serif;font-size:20px" transform="matrix(1,0,0,1,388.66,206.375)">UTC</text></g><g><text x="46.513" y="301.788" style="font-family:'ArialMT','Arial',sans-serif;font-size:20px" transform="matrix(1,0,0,1,349.554,-268.625)">Los <tspan x="83.212 96.552" y="301.788 301.788">An</tspan>geles</text></g></svg>