<?xml version="1.0" encoding="utf-8"?>
<!-- Generator: Adobe Illustrator 26.0.2, SVG Export Plug-In . SVG Version: 6.00 Build 0)  -->
<svg version="1.1" xmlns="http://www.w3.org/2000/svg" xmlns:xlink="http://www.w3.org/1999/xlink" x="0px" y="0px"
	 viewBox="0 0 680 327.6" style="enable-background:new 0 0 680 327.6;" xml:space="preserve">
<style type="text/css">
	.st0{fill:#B0B0B0;}
	.st1{fill-rule:evenodd;clip-rule:evenodd;fill:#F5F5F5;}
	.st2{fill:#2EAFFF;}
	.st3{fill-rule:evenodd;clip-rule:evenodd;fill:#D1D1D1;}
	.st4{fill:#1AFF61;}
	.st5{fill-rule:evenodd;clip-rule:evenodd;}
	.st6{fill:#0080FF;}
	.st7{fill:#FF560D;}
	.st8{fill:#FFFFFF;}
	.st9{fill:#F5F5F5;}
	.st10{fill-rule:evenodd;clip-rule:evenodd;fill:#15A14F;}
	.st11{fill-rule:evenodd;clip-rule:evenodd;fill:none;stroke:#D1D1D1;stroke-miterlimit:10;}
	.st12{fill:#D1D1D1;}
	.st13{font-family:'SuisseIntl-Book';}
	.st14{font-size:14px;}
	.st15{fill:#A0A0A0;}
	.st16{font-family:'SuisseIntl-Regular';}
	.st17{font-size:11px;}
	.st18{fill:#FFEF00;}
	.st19{fill-rule:evenodd;clip-rule:evenodd;fill:none;}
	.st20{fill:#FFEE00;}
	.st21{fill:#FFCC00;}
	.st22{fill:#00C770;}
	.st23{fill:#816DFF;}
	.st24{fill:#FF5E00;}
</style>
<g id="Ebene_3">
</g>
<g id="boxes">
	<rect x="0" y="257.5" class="st9" width="74.9" height="25"/>
	<text transform="matrix(1 0 0 1 17.8364 274.3661)" class="st13 st14">Hours</text>
	<rect x="75.9" y="257.5" class="st0" width="150.3" height="25"/>
	<rect x="227.2" y="257.5" class="st0" width="150.3" height="25"/>
	<rect x="378.4" y="257.5" class="st0" width="150.3" height="25"/>
	<rect x="529.7" y="257.5" class="st0" width="150.3" height="25"/>
	<text transform="matrix(1 0 0 1 142.3269 274.3661)" class="st13 st14">08</text>
	<text transform="matrix(1 0 0 1 293.4343 274.3661)" class="st13 st14">09</text>
	<text transform="matrix(1 0 0 1 446.4382 274.3661)" class="st13 st14">10</text>
	<text transform="matrix(1 0 0 1 599.7849 274.3661)" class="st13 st14">11</text>
	<rect x="0" y="75.5" class="st9" width="74.9" height="25"/>
	<text transform="matrix(1 0 0 1 21.4214 92.3662)" class="st13 st14">Days</text>
	<rect x="75.9" y="75.5" class="st10" width="604.1" height="25"/>
	<text transform="matrix(1 0 0 1 370.6335 92.3662)" class="st13 st14">15</text>
	<rect x="0" y="231.5" class="st9" width="74.9" height="25"/>
	<text transform="matrix(1 0 0 1 21.4214 248.3661)" class="st13 st14">Days</text>
	<rect x="75.9" y="231.5" class="st10" width="604.1" height="25"/>
	<text transform="matrix(1 0 0 1 370.6335 248.3661)" class="st13 st14">15</text>
	<rect x="0" y="101.5" class="st9" width="74.9" height="25"/>
	<text transform="matrix(1 0 0 1 12.9712 118.366)" class="st13 st14">Months</text>
	<rect x="75.9" y="101.5" class="st7" width="604.1" height="25"/>
	<text transform="matrix(1 0 0 1 343.3064 118.366)" class="st13 st14">November</text>
	<rect x="0" y="205.5" class="st9" width="74.9" height="25"/>
	<text transform="matrix(1 0 0 1 12.9712 222.3635)" class="st13 st14">Months</text>
	<rect x="75.9" y="205.5" class="st7" width="604.1" height="25"/>
	<text transform="matrix(1 0 0 1 343.3064 222.3635)" class="st13 st14">November</text>
	<text transform="matrix(1 0 0 1 366.24 323.5181)" class="st15 st16 st17">UTC</text>
	<text transform="matrix(1 0 0 1 346.7116 16.8486)" class="st15 st16 st17">Los Angeles</text>
	<rect x="0" y="127.5" class="st9" width="74.9" height="25"/>
	<text transform="matrix(1 0 0 1 18.8305 144.3665)" class="st13 st14">Years</text>
	<rect x="75.9" y="127.5" class="st6" width="604.1" height="25"/>
	<text transform="matrix(1 0 0 1 362.1013 144.3665)" class="st13 st14">2021</text>
	<rect x="0" y="179.5" class="st9" width="74.9" height="25"/>
	<text transform="matrix(1 0 0 1 18.8305 196.3664)" class="st13 st14">Years</text>
	<rect x="75.9" y="179.5" class="st6" width="604.1" height="25"/>
	<text transform="matrix(1 0 0 1 362.1013 196.3664)" class="st13 st14">2021</text>
	<rect x="0" y="49.5" class="st9" width="74.9" height="25"/>
	<text transform="matrix(1 0 0 1 17.8364 66.3659)" class="st13 st14">Hours</text>
	<rect x="75.9" y="49.5" class="st0" width="150.9" height="25"/>
	<rect x="529.1" y="49.5" class="st0" width="150.9" height="25"/>
	<rect x="227.8" y="49.5" class="st0" width="300.4" height="25"/>
	<text transform="matrix(1 0 0 1 144.2019 66.3659)" class="st13 st14">01</text>
	<text transform="matrix(1 0 0 1 368.7156 66.3659)" class="st13 st14">02</text>
	<text transform="matrix(1 0 0 1 595.7917 66.3659)" class="st13 st14">03</text>
	<rect x="0" y="23.5" class="st9" width="74.9" height="25"/>
	<text transform="matrix(1 0 0 1 17.4878 40.3661)" class="st13 st14">Offset</text>
	<rect x="75.9" y="23.5" class="st18" width="301.5" height="25"/>
	<rect x="378.4" y="23.5" class="st18" width="301.6" height="25"/>
	<text transform="matrix(1 0 0 1 204.6882 40.3661)" class="st13 st14">-07:00</text>
	<text transform="matrix(1 0 0 1 503.2517 40.3661)" class="st13 st14">-08:00</text>
	<rect x="75.9" y="283.9" class="st18" width="604.1" height="25"/>
	<rect x="0" y="283.9" class="st9" width="74.9" height="25"/>
	<text transform="matrix(1 0 0 1 357.2566 300.7771)" class="st13 st14">00:00</text>
	<text transform="matrix(1 0 0 1 17.4878 300.7771)" class="st13 st14">Offset</text>
	<rect x="0" y="153.5" class="st19" width="74.9" height="25"/>
	<text transform="matrix(1 0 0 1 11.4536 170.366)" class="st13 st14">Instants</text>
	<circle class="st3" cx="378" cy="166" r="4.4"/>
	<g>
		<polyline class="st11" points="668.9,159.5 676.4,166 668.9,172.5 		"/>
		<line class="st11" x1="80.2" y1="166" x2="675.9" y2="166"/>
		<polyline class="st11" points="87,172.5 79.5,166 87,159.5 		"/>
	</g>
</g>
<g id="green">
</g>
<g id="blue">
</g>
<g id="orange">
</g>
<g id="text">
</g>
</svg>
