<svg xmlns="http://www.w3.org/2000/svg" xmlns:xlink="http://www.w3.org/1999/xlink" x="0" y="0" version="1.1" viewBox="0 0 680 327.6" style="enable-background:new 0 0 680 327.6" xml:space="preserve"><style type="text/css">.st0{fill:#b0b0b0}.st3{fill-rule:evenodd;clip-rule:evenodd;fill:#d1d1d1}.st6{fill:#0080ff}.st7{fill:#ff560d}.st9{fill:#f5f5f5}.st10,.st11{fill-rule:evenodd;clip-rule:evenodd;fill:#15a14f}.st11{fill:none;stroke:#d1d1d1;stroke-miterlimit:10}.st13{font-family:&apos;SuisseIntl-Book&apos;}.st14{font-size:14px}.st15{fill:#a0a0a0}.st16{font-family:&apos;SuisseIntl-Regular&apos;}.st17{font-size:11px}.st18{fill:#ffef00}.st19{fill-rule:evenodd;clip-rule:evenodd;fill:none}</style><g id="boxes"><rect width="74.9" height="25" x="0" y="257.5" class="st9"/><text class="st13 st14" transform="matrix(1 0 0 1 17.8364 274.3661)">Hours</text><rect width="150.3" height="25" x="75.9" y="257.5" class="st0"/><rect width="150.3" height="25" x="227.2" y="257.5" class="st0"/><rect width="150.3" height="25" x="378.4" y="257.5" class="st0"/><rect width="150.3" height="25" x="529.7" y="257.5" class="st0"/><text class="st13 st14" transform="matrix(1 0 0 1 142.3269 274.3661)">08</text><text class="st13 st14" transform="matrix(1 0 0 1 293.4343 274.3661)">09</text><text class="st13 st14" transform="matrix(1 0 0 1 446.4382 274.3661)">10</text><text class="st13 st14" transform="matrix(1 0 0 1 599.7849 274.3661)">11</text><rect width="74.9" height="25" x="0" y="75.5" class="st9"/><text class="st13 st14" transform="matrix(1 0 0 1 21.4214 92.3662)">Days</text><rect width="604.1" height="25" x="75.9" y="75.5" class="st10"/><text class="st13 st14" transform="matrix(1 0 0 1 370.6335 92.3662)">15</text><rect width="74.9" height="25" x="0" y="231.5" class="st9"/><text class="st13 st14" transform="matrix(1 0 0 1 21.4214 248.3661)">Days</text><rect width="604.1" height="25" x="75.9" y="231.5" class="st10"/><text class="st13 st14" transform="matrix(1 0 0 1 370.6335 248.3661)">15</text><rect width="74.9" height="25" x="0" y="101.5" class="st9"/><text class="st13 st14" transform="matrix(1 0 0 1 12.9712 118.366)">Months</text><rect width="604.1" height="25" x="75.9" y="101.5" class="st7"/><text class="st13 st14" transform="matrix(1 0 0 1 343.3064 118.366)">November</text><rect width="74.9" height="25" x="0" y="205.5" class="st9"/><text class="st13 st14" transform="matrix(1 0 0 1 12.9712 222.3635)">Months</text><rect width="604.1" height="25" x="75.9" y="205.5" class="st7"/><text class="st13 st14" transform="matrix(1 0 0 1 343.3064 222.3635)">November</text><text class="st15 st16 st17" transform="matrix(1 0 0 1 366.24 323.5181)">UTC</text><text class="st15 st16 st17" transform="matrix(1 0 0 1 346.7116 16.8486)">Los Angeles</text><rect width="74.9" height="25" x="0" y="127.5" class="st9"/><text class="st13 st14" transform="matrix(1 0 0 1 18.8305 144.3665)">Years</text><rect width="604.1" height="25" x="75.9" y="127.5" class="st6"/><text class="st13 st14" transform="matrix(1 0 0 1 362.1013 144.3665)">2021</text><rect width="74.9" height="25" x="0" y="179.5" class="st9"/><text class="st13 st14" transform="matrix(1 0 0 1 18.8305 196.3664)">Years</text><rect width="604.1" height="25" x="75.9" y="179.5" class="st6"/><text class="st13 st14" transform="matrix(1 0 0 1 362.1013 196.3664)">2021</text><rect width="74.9" height="25" x="0" y="49.5" class="st9"/><text class="st13 st14" transform="matrix(1 0 0 1 17.8364 66.3659)">Hours</text><rect width="150.9" height="25" x="75.9" y="49.5" class="st0"/><rect width="150.9" height="25" x="529.1" y="49.5" class="st0"/><rect width="300.4" height="25" x="227.8" y="49.5" class="st0"/><text class="st13 st14" transform="matrix(1 0 0 1 144.2019 66.3659)">01</text><text class="st13 st14" transform="matrix(1 0 0 1 368.7156 66.3659)">02</text><text class="st13 st14" transform="matrix(1 0 0 1 595.7917 66.3659)">03</text><rect width="74.9" height="25" x="0" y="23.5" class="st9"/><text class="st13 st14" transform="matrix(1 0 0 1 17.4878 40.3661)">Offset</text><rect width="301.5" height="25" x="75.9" y="23.5" class="st18"/><rect width="301.6" height="25" x="378.4" y="23.5" class="st18"/><text class="st13 st14" transform="matrix(1 0 0 1 204.6882 40.3661)">-07:00</text><text class="st13 st14" transform="matrix(1 0 0 1 503.2517 40.3661)">-08:00</text><rect width="604.1" height="25" x="75.9" y="283.9" class="st18"/><rect width="74.9" height="25" x="0" y="283.9" class="st9"/><text class="st13 st14" transform="matrix(1 0 0 1 357.2566 300.7771)">00:00</text><text class="st13 st14" transform="matrix(1 0 0 1 17.4878 300.7771)">Offset</text><rect width="74.9" height="25" x="0" y="153.5" class="st19"/><text class="st13 st14" transform="matrix(1 0 0 1 11.4536 170.366)">Instants</text><circle cx="378" cy="166" r="4.4" class="st3"/><g><polyline points="668.9 159.5 676.4 166 668.9 172.5" class="st11"/><line x1="80.2" x2="675.9" y1="166" y2="166" class="st11"/><polyline points="87 172.5 79.5 166 87 159.5" class="st11"/></g></g></svg>