<svg xmlns="http://www.w3.org/2000/svg" width="750" height="403" fill="none" viewBox="0 0 750 403"><path fill="#F2F2F2" d="M8.02148 0.5H741.979C746.132 0.5 749.5 3.86753 749.5 8.02148V394.761C749.5 398.915 746.132 402.282 741.979 402.282H8.02148C3.86754 402.282 0.5 398.915 0.5 394.761V8.02148C0.5 3.9972 3.66049 0.711 7.63477 0.509766L8.02148 0.5Z"/><path stroke="#E6E6E6" d="M8.02148 0.5H741.979C746.132 0.5 749.5 3.86753 749.5 8.02148V394.761C749.5 398.915 746.132 402.282 741.979 402.282H8.02148C3.86754 402.282 0.5 398.915 0.5 394.761V8.02148C0.5 3.9972 3.66049 0.711 7.63477 0.509766L8.02148 0.5Z"/><g clip-path="url(#clip0_8648_18676)"><path fill="#F5F5F5" d="M113.799 293.711H40V318.343H113.799V293.711Z"/><path fill="#000" d="M66.8434 300.531V310.531H65.2708V306.048H60.2498V310.531H58.6773V300.531H60.2498V304.724H65.2708V300.531H66.8434ZM75.6296 306.848C75.6296 309.524 73.7812 310.711 72.0155 310.711C70.2637 310.711 68.4153 309.524 68.4153 306.848C68.4153 304.158 70.2637 302.972 72.0155 302.972C73.7812 302.972 75.6296 304.158 75.6296 306.848ZM72.0155 309.497C73.1053 309.497 74.1122 308.655 74.1122 306.848C74.1122 305 73.1053 304.186 72.0155 304.186C70.9396 304.186 69.9326 304.972 69.9326 306.848C69.9326 308.683 70.9396 309.497 72.0155 309.497ZM81.6413 309.483C81.2137 310.228 80.4964 310.711 79.3791 310.711C77.6273 310.711 76.9513 309.621 76.9513 307.828V303.11H78.3859V307.441C78.3859 308.517 78.5653 309.497 79.8619 309.497C81.062 309.497 81.6551 308.6 81.6551 307.138V303.11H83.0897V310.531H81.6413V309.483ZM88.8718 304.586C88.6097 304.558 88.3614 304.545 88.1269 304.545C87.0234 304.545 86.4441 305.083 86.4441 306.641V310.531H85.0095V303.11H86.4165V304.42C86.8027 303.579 87.5476 303.096 88.4718 303.082C88.5959 303.082 88.7477 303.082 88.8718 303.096V304.586ZM94.1608 305.179C93.9539 304.42 93.3194 304.117 92.4779 304.117C91.7744 304.117 91.0157 304.407 91.0157 305.014C91.0157 305.565 91.3744 305.8 92.0503 305.938L93.1124 306.145C94.5194 306.421 95.7471 306.903 95.7471 308.352C95.7471 309.855 94.3401 310.711 92.6296 310.711C90.7536 310.711 89.6087 309.621 89.4294 308.228H90.8916C91.0847 309.069 91.6365 309.566 92.671 309.566C93.5952 309.566 94.3125 309.179 94.3125 308.517C94.3125 307.828 93.6642 307.552 92.8917 307.4L91.7744 307.179C90.6571 306.959 89.6087 306.462 89.6087 305.069C89.6087 303.758 90.9881 302.958 92.6159 302.958C94.1056 302.958 95.3057 303.745 95.5816 305.179H94.1608Z"/><path fill="#B0B0B0" d="M262.874 293.711H114.784V318.343H262.874V293.711Z"/><path fill="#B0B0B0" d="M411.949 293.711H263.859V318.343H411.949V293.711Z"/><path fill="#B0B0B0" d="M560.925 293.711H412.836V318.343H560.925V293.711Z"/><path fill="#B0B0B0" d="M710 293.711H561.91V318.343H710V293.711Z"/><path fill="#000" d="M180.841 305.524C180.841 302.407 182.11 300.351 184.772 300.351C187.448 300.351 188.704 302.407 188.704 305.524C188.704 308.655 187.448 310.711 184.772 310.711C182.11 310.711 180.841 308.655 180.841 305.524ZM187.186 305.524C187.186 302.876 186.29 301.496 184.772 301.496C183.269 301.496 182.358 302.876 182.358 305.524C182.358 308.186 183.269 309.552 184.772 309.552C186.29 309.552 187.186 308.186 187.186 305.524ZM197.038 302.903C197.038 303.745 196.665 304.669 195.714 305.207C196.955 305.758 197.341 306.779 197.341 307.703C197.341 309.635 195.741 310.711 193.658 310.711C191.575 310.711 189.975 309.635 189.975 307.703C189.975 306.779 190.375 305.758 191.617 305.207C190.679 304.683 190.293 303.745 190.293 302.903C190.293 301.427 191.589 300.351 193.658 300.351C195.727 300.351 197.038 301.427 197.038 302.903ZM193.658 301.496C192.5 301.496 191.713 302.117 191.713 303.082C191.713 304.062 192.5 304.765 193.658 304.765C194.831 304.765 195.603 304.062 195.603 303.082C195.603 302.117 194.831 301.496 193.658 301.496ZM191.493 307.676C191.493 308.835 192.334 309.552 193.658 309.552C194.983 309.552 195.838 308.835 195.838 307.676C195.838 306.531 194.983 305.772 193.658 305.772C192.334 305.772 191.493 306.531 191.493 307.676Z"/><path fill="#000" d="M329.726 305.524C329.726 302.407 330.995 300.351 333.658 300.351C336.334 300.351 337.589 302.407 337.589 305.524C337.589 308.655 336.334 310.711 333.658 310.711C330.995 310.711 329.726 308.655 329.726 305.524ZM336.072 305.524C336.072 302.876 335.175 301.496 333.658 301.496C332.154 301.496 331.244 302.876 331.244 305.524C331.244 308.186 332.154 309.552 333.658 309.552C335.175 309.552 336.072 308.186 336.072 305.524ZM344.53 305.91C344.075 306.628 343.233 307.193 342.006 307.193C340.157 307.193 338.736 305.827 338.736 303.772C338.736 301.855 340.171 300.351 342.309 300.351C344.847 300.351 346.006 302.2 346.006 305.207C346.006 308.062 344.958 310.711 342.061 310.711C340.047 310.711 339.081 309.428 338.916 308.117H340.419C340.557 309.055 341.233 309.552 342.199 309.552C343.647 309.552 344.475 308.103 344.53 305.91ZM342.323 301.496C341.095 301.496 340.24 302.379 340.24 303.731C340.24 305.083 341.095 305.993 342.309 305.993C343.523 305.993 344.378 305.083 344.378 303.731C344.378 302.379 343.551 301.496 342.323 301.496Z"/><path fill="#000" d="M482.232 310.531V302.807H479.956V301.827C481.404 301.772 482.122 301.62 482.646 300.531H483.68V310.531H482.232ZM485.478 305.524C485.478 302.407 486.747 300.351 489.409 300.351C492.085 300.351 493.341 302.407 493.341 305.524C493.341 308.655 492.085 310.711 489.409 310.711C486.747 310.711 485.478 308.655 485.478 305.524ZM491.823 305.524C491.823 302.876 490.927 301.496 489.409 301.496C487.906 301.496 486.995 302.876 486.995 305.524C486.995 308.186 487.906 309.552 489.409 309.552C490.927 309.552 491.823 308.186 491.823 305.524Z"/><path fill="#000" d="M633.324 310.531V302.807H631.048V301.827C632.496 301.772 633.213 301.62 633.737 300.531H634.772V310.531H633.324ZM638.591 310.531V302.807H636.315V301.827C637.763 301.772 638.48 301.62 639.005 300.531H640.039V310.531H638.591Z"/><path fill="#F5F5F5" d="M113.799 114.387H40V139.019H113.799V114.387Z"/><path fill="#000" d="M64.9417 121.214C68.1143 121.214 70.4593 122.359 70.4593 126.208C70.4593 130.07 68.1143 131.215 64.9417 131.215H62.2105V121.214H64.9417ZM64.8727 122.511H63.783V129.918H64.8727C66.8729 129.918 68.8316 129.504 68.8316 126.208C68.8316 122.925 66.8729 122.511 64.8727 122.511ZM71.5591 129.215C71.5591 127.408 73.6834 126.925 76.5664 126.621V126.47C76.5664 125.159 75.8767 124.718 74.9663 124.718C73.9731 124.718 73.4075 125.228 73.3523 126.139H71.904C72.0281 124.566 73.3247 123.614 75.0214 123.614C76.9388 123.614 78.0423 124.538 78.0148 126.759C78.0148 126.939 77.9872 128.222 77.9872 128.539C77.9872 129.642 78.0561 130.553 78.1941 131.215H76.8147C76.7595 130.925 76.7181 130.704 76.6905 130.235C76.2491 130.98 75.4077 131.394 74.2076 131.394C72.704 131.394 71.5591 130.567 71.5591 129.215ZM76.6353 127.684C74.3317 127.904 73.1178 128.222 73.1178 129.187C73.1178 129.863 73.6558 130.291 74.5248 130.291C75.7111 130.291 76.6353 129.697 76.6353 128.222V127.684ZM79.3469 133.629V132.484H79.9124C80.6849 132.484 81.0159 132.429 81.3746 131.367L81.4298 131.201L78.7537 123.794H80.34L82.1333 129.325L83.8851 123.794H85.3749L82.754 131.38C82.1471 133.132 81.7056 133.629 80.0366 133.629H79.3469ZM90.5275 125.863C90.3206 125.104 89.6861 124.801 88.8446 124.801C88.1411 124.801 87.3825 125.09 87.3825 125.697C87.3825 126.249 87.7411 126.483 88.417 126.621L89.4792 126.828C90.8862 127.104 92.1138 127.587 92.1138 129.035C92.1138 130.539 90.7068 131.394 88.9964 131.394C87.1204 131.394 85.9755 130.304 85.7961 128.911H87.2583C87.4514 129.753 88.0032 130.249 89.0378 130.249C89.962 130.249 90.6793 129.863 90.6793 129.201C90.6793 128.511 90.0309 128.235 89.2585 128.084L88.1411 127.863C87.0238 127.642 85.9755 127.146 85.9755 125.752C85.9755 124.442 87.3549 123.642 88.9826 123.642C90.4723 123.642 91.6724 124.428 91.9483 125.863H90.5275Z"/><path fill="#00C770" d="M710 114.387H114.784V139.019H710V114.387Z"/><path fill="#000" d="M407.542 131.215V123.49H405.266V122.511C406.714 122.456 407.432 122.304 407.956 121.214H408.991V131.215H407.542ZM416.43 127.959C416.43 126.387 415.34 125.683 414.292 125.683C413.312 125.683 412.636 126.221 412.416 126.759L411.022 126.677L411.685 121.214H417.533V122.525H412.857L412.526 125.201C413.036 124.745 413.781 124.511 414.637 124.511C416.375 124.511 417.933 125.711 417.933 127.946C417.933 130.208 416.223 131.394 414.305 131.394C411.988 131.394 410.871 129.904 410.705 128.235H412.14C412.305 129.449 412.967 130.235 414.319 130.235C415.478 130.235 416.43 129.408 416.43 127.959Z"/><path fill="#F5F5F5" d="M113.799 268.094H40V292.726H113.799V268.094Z"/><path fill="#000" d="M64.9417 274.913C68.1143 274.913 70.4593 276.058 70.4593 279.907C70.4593 283.769 68.1143 284.914 64.9417 284.914H62.2105V274.913H64.9417ZM64.8727 276.21H63.783V283.617H64.8727C66.8729 283.617 68.8316 283.204 68.8316 279.907C68.8316 276.624 66.8729 276.21 64.8727 276.21ZM71.5591 282.914C71.5591 281.107 73.6834 280.624 76.5664 280.321V280.169C76.5664 278.858 75.8767 278.417 74.9663 278.417C73.9731 278.417 73.4075 278.927 73.3523 279.838H71.904C72.0281 278.265 73.3247 277.314 75.0214 277.314C76.9388 277.314 78.0423 278.238 78.0148 280.459C78.0148 280.638 77.9872 281.921 77.9872 282.238C77.9872 283.342 78.0561 284.252 78.1941 284.914H76.8147C76.7595 284.624 76.7181 284.404 76.6905 283.935C76.2491 284.68 75.4077 285.093 74.2076 285.093C72.704 285.093 71.5591 284.266 71.5591 282.914ZM76.6353 281.383C74.3317 281.603 73.1178 281.921 73.1178 282.886C73.1178 283.562 73.6558 283.99 74.5248 283.99C75.7111 283.99 76.6353 283.397 76.6353 281.921V281.383ZM79.3469 287.328V286.183H79.9124C80.6849 286.183 81.0159 286.128 81.3746 285.066L81.4298 284.9L78.7537 277.493H80.34L82.1333 283.024L83.8851 277.493H85.3749L82.754 285.08C82.1471 286.831 81.7056 287.328 80.0366 287.328H79.3469ZM90.5275 279.562C90.3206 278.803 89.6861 278.5 88.8446 278.5C88.1411 278.5 87.3825 278.789 87.3825 279.396C87.3825 279.948 87.7411 280.183 88.417 280.321L89.4792 280.528C90.8862 280.803 92.1138 281.286 92.1138 282.735C92.1138 284.238 90.7068 285.093 88.9964 285.093C87.1204 285.093 85.9755 284.004 85.7961 282.61H87.2583C87.4514 283.452 88.0032 283.948 89.0378 283.948C89.962 283.948 90.6793 283.562 90.6793 282.9C90.6793 282.21 90.0309 281.935 89.2585 281.783L88.1411 281.562C87.0238 281.341 85.9755 280.845 85.9755 279.452C85.9755 278.141 87.3549 277.341 88.9826 277.341C90.4723 277.341 91.6724 278.127 91.9483 279.562H90.5275Z"/><path fill="#00C770" d="M710 268.094H114.784V292.726H710V268.094Z"/><path fill="#000" d="M407.542 284.914V277.189H405.266V276.21C406.714 276.155 407.432 276.003 407.956 274.913H408.991V284.914H407.542ZM416.43 281.659C416.43 280.086 415.34 279.383 414.292 279.383C413.312 279.383 412.636 279.921 412.416 280.459L411.022 280.376L411.685 274.913H417.533V276.224H412.857L412.526 278.9C413.036 278.445 413.781 278.21 414.637 278.21C416.375 278.21 417.933 279.41 417.933 281.645C417.933 283.907 416.223 285.093 414.305 285.093C411.988 285.093 410.871 283.604 410.705 281.935H412.14C412.305 283.148 412.967 283.935 414.319 283.935C415.478 283.935 416.43 283.107 416.43 281.659Z"/><path fill="#F5F5F5" d="M113.799 140.008H40V164.64H113.799V140.008Z"/><path fill="#000" d="M58.0917 156.828L55.4295 148.414V156.828H53.8845V146.827H56.4089L58.9056 154.994L61.4023 146.827H63.9267V156.828H62.3817V148.414L59.7194 156.828H58.0917ZM72.6958 153.145C72.6958 155.821 70.8474 157.007 69.0818 157.007C67.3299 157.007 65.4815 155.821 65.4815 153.145C65.4815 150.455 67.3299 149.269 69.0818 149.269C70.8474 149.269 72.6958 150.455 72.6958 153.145ZM69.0818 155.794C70.1715 155.794 71.1785 154.952 71.1785 153.145C71.1785 151.297 70.1715 150.483 69.0818 150.483C68.0058 150.483 66.9989 151.269 66.9989 153.145C66.9989 154.98 68.0058 155.794 69.0818 155.794ZM75.5625 150.483C75.9901 149.752 76.735 149.269 77.8937 149.269C79.687 149.269 80.3767 150.428 80.3767 152.152V156.828H78.9421V152.538C78.9421 151.462 78.7628 150.469 77.4109 150.469C76.1695 150.469 75.5625 151.366 75.5625 152.842V156.828H74.1279V149.407H75.5625V150.483ZM82.4597 147.503H83.8943V149.407H85.3565V150.497H83.8943V154.731C83.8943 155.49 84.0184 155.683 84.7357 155.683H85.3427V156.828H84.2943C82.7908 156.828 82.4597 156.456 82.4597 154.925V150.497H81.3286V149.407H82.4597V147.503ZM88.3194 150.483C88.747 149.752 89.4919 149.269 90.6506 149.269C92.4438 149.269 93.1335 150.428 93.1335 152.152V156.828H91.699V152.538C91.699 151.462 91.5196 150.469 90.1678 150.469C88.9263 150.469 88.3194 151.366 88.3194 152.842V156.828H86.8848V146.827H88.3194V150.483ZM99.1479 151.476C98.941 150.717 98.3064 150.414 97.465 150.414C96.7615 150.414 96.0028 150.704 96.0028 151.31C96.0028 151.862 96.3615 152.097 97.0374 152.235L98.0995 152.442C99.5065 152.717 100.734 153.2 100.734 154.649C100.734 156.152 99.3272 157.007 97.6167 157.007C95.7407 157.007 94.5958 155.918 94.4165 154.525H95.8787C96.0718 155.366 96.6236 155.863 97.6581 155.863C98.5823 155.863 99.2996 155.476 99.2996 154.814C99.2996 154.124 98.6513 153.849 97.8788 153.697L96.7615 153.476C95.6442 153.255 94.5958 152.759 94.5958 151.366C94.5958 150.055 95.9752 149.255 97.6029 149.255C99.0927 149.255 100.293 150.041 100.569 151.476H99.1479Z"/><path fill="#FF6900" d="M710 140.008H114.784V164.64H710V140.008Z"/><path fill="#000" d="M385.321 156.828L380.907 148.552V156.828H379.362V146.827H381.555L385.969 155.09V146.827H387.514V156.828H385.321ZM396.3 153.145C396.3 155.821 394.452 157.007 392.686 157.007C390.935 157.007 389.086 155.821 389.086 153.145C389.086 150.455 390.935 149.269 392.686 149.269C394.452 149.269 396.3 150.455 396.3 153.145ZM392.686 155.794C393.776 155.794 394.783 154.952 394.783 153.145C394.783 151.297 393.776 150.483 392.686 150.483C391.61 150.483 390.603 151.269 390.603 153.145C390.603 154.98 391.61 155.794 392.686 155.794ZM400.095 154.911L401.957 149.407H403.447L400.702 156.828H399.391L396.632 149.407H398.219L400.095 154.911ZM409.356 154.649H410.804C410.459 155.876 409.356 157.007 407.466 157.007C405.066 157.007 403.769 155.256 403.769 153.104C403.769 150.8 405.314 149.269 407.424 149.269C409.714 149.269 411.052 151.145 410.901 153.559H405.245C405.383 154.925 406.252 155.78 407.411 155.78C408.445 155.78 409.052 155.352 409.356 154.649ZM405.273 152.428H409.411C409.369 151.324 408.597 150.441 407.411 150.441C406.293 150.441 405.466 151.021 405.273 152.428ZM413.743 156.828H412.308V149.407H413.743V150.483C414.17 149.752 414.874 149.269 415.936 149.269C417.081 149.269 417.757 149.752 418.088 150.579C418.708 149.655 419.577 149.269 420.543 149.269C422.281 149.269 422.957 150.428 422.957 152.152V156.828H421.522V152.538C421.522 151.462 421.357 150.469 420.06 150.469C418.929 150.469 418.35 151.366 418.35 152.842V156.828H416.915V152.538C416.915 151.462 416.75 150.469 415.453 150.469C414.308 150.469 413.743 151.366 413.743 152.842V156.828ZM426.203 146.827V150.497C426.658 149.738 427.431 149.269 428.52 149.269C430.245 149.269 431.721 150.717 431.721 153.131C431.721 155.559 430.245 157.007 428.52 157.007C427.431 157.007 426.658 156.538 426.203 155.78V156.828H424.768V146.827H426.203ZM428.189 155.807C429.376 155.807 430.19 154.8 430.19 153.131C430.19 151.462 429.376 150.469 428.189 150.469C427.086 150.469 426.148 151.297 426.148 153.131C426.148 154.966 427.086 155.807 428.189 155.807ZM438.331 154.649H439.78C439.435 155.876 438.331 157.007 436.442 157.007C434.041 157.007 432.745 155.256 432.745 153.104C432.745 150.8 434.29 149.269 436.4 149.269C438.69 149.269 440.028 151.145 439.876 153.559H434.221C434.359 154.925 435.228 155.78 436.386 155.78C437.421 155.78 438.028 155.352 438.331 154.649ZM434.248 152.428H438.387C438.345 151.324 437.573 150.441 436.386 150.441C435.269 150.441 434.441 151.021 434.248 152.428ZM445.146 150.883C444.884 150.855 444.636 150.841 444.401 150.841C443.298 150.841 442.718 151.379 442.718 152.938V156.828H441.284V149.407H442.691V150.717C443.077 149.876 443.822 149.393 444.746 149.379C444.87 149.379 445.022 149.379 445.146 149.393V150.883Z"/><path fill="#F5F5F5" d="M113.799 242.477H40V267.109H113.799V242.477Z"/><path fill="#000" d="M58.0917 259.297L55.4295 250.882V259.297H53.8845V249.296H56.4089L58.9056 257.462L61.4023 249.296H63.9267V259.297H62.3817V250.882L59.7194 259.297H58.0917ZM72.6958 255.614C72.6958 258.29 70.8474 259.476 69.0818 259.476C67.3299 259.476 65.4815 258.29 65.4815 255.614C65.4815 252.924 67.3299 251.738 69.0818 251.738C70.8474 251.738 72.6958 252.924 72.6958 255.614ZM69.0818 258.262C70.1715 258.262 71.1785 257.421 71.1785 255.614C71.1785 253.765 70.1715 252.952 69.0818 252.952C68.0058 252.952 66.9989 253.738 66.9989 255.614C66.9989 257.448 68.0058 258.262 69.0818 258.262ZM75.5625 252.952C75.9901 252.22 76.735 251.738 77.8937 251.738C79.687 251.738 80.3767 252.896 80.3767 254.621V259.297H78.9421V255.007C78.9421 253.931 78.7628 252.938 77.4109 252.938C76.1695 252.938 75.5625 253.834 75.5625 255.31V259.297H74.1279V251.876H75.5625V252.952ZM82.4597 249.972H83.8943V251.876H85.3565V252.965H83.8943V257.2C83.8943 257.959 84.0184 258.152 84.7357 258.152H85.3427V259.297H84.2943C82.7908 259.297 82.4597 258.924 82.4597 257.393V252.965H81.3286V251.876H82.4597V249.972ZM88.3194 252.952C88.747 252.22 89.4919 251.738 90.6506 251.738C92.4438 251.738 93.1335 252.896 93.1335 254.621V259.297H91.699V255.007C91.699 253.931 91.5196 252.938 90.1678 252.938C88.9263 252.938 88.3194 253.834 88.3194 255.31V259.297H86.8848V249.296H88.3194V252.952ZM99.1479 253.945C98.941 253.186 98.3064 252.883 97.465 252.883C96.7615 252.883 96.0028 253.172 96.0028 253.779C96.0028 254.331 96.3615 254.565 97.0374 254.703L98.0995 254.91C99.5065 255.186 100.734 255.669 100.734 257.117C100.734 258.621 99.3272 259.476 97.6167 259.476C95.7407 259.476 94.5958 258.386 94.4165 256.993H95.8787C96.0718 257.835 96.6236 258.331 97.6581 258.331C98.5823 258.331 99.2996 257.945 99.2996 257.283C99.2996 256.593 98.6513 256.317 97.8788 256.166L96.7615 255.945C95.6442 255.724 94.5958 255.228 94.5958 253.834C94.5958 252.524 95.9752 251.724 97.6029 251.724C99.0927 251.724 100.293 252.51 100.569 253.945H99.1479Z"/><path fill="#FF6900" d="M710 242.477H114.784V267.109H710V242.477Z"/><path fill="#000" d="M385.321 259.297L380.907 251.02V259.297H379.362V249.296H381.555L385.969 257.559V249.296H387.514V259.297H385.321ZM396.3 255.614C396.3 258.29 394.452 259.476 392.686 259.476C390.935 259.476 389.086 258.29 389.086 255.614C389.086 252.924 390.935 251.738 392.686 251.738C394.452 251.738 396.3 252.924 396.3 255.614ZM392.686 258.262C393.776 258.262 394.783 257.421 394.783 255.614C394.783 253.765 393.776 252.952 392.686 252.952C391.61 252.952 390.603 253.738 390.603 255.614C390.603 257.448 391.61 258.262 392.686 258.262ZM400.095 257.379L401.957 251.876H403.447L400.702 259.297H399.391L396.632 251.876H398.219L400.095 257.379ZM409.356 257.117H410.804C410.459 258.345 409.356 259.476 407.466 259.476C405.066 259.476 403.769 257.724 403.769 255.572C403.769 253.269 405.314 251.738 407.424 251.738C409.714 251.738 411.052 253.614 410.901 256.028H405.245C405.383 257.393 406.252 258.249 407.411 258.249C408.445 258.249 409.052 257.821 409.356 257.117ZM405.273 254.897H409.411C409.369 253.793 408.597 252.91 407.411 252.91C406.293 252.91 405.466 253.49 405.273 254.897ZM413.743 259.297H412.308V251.876H413.743V252.952C414.17 252.22 414.874 251.738 415.936 251.738C417.081 251.738 417.757 252.22 418.088 253.048C418.708 252.124 419.577 251.738 420.543 251.738C422.281 251.738 422.957 252.896 422.957 254.621V259.297H421.522V255.007C421.522 253.931 421.357 252.938 420.06 252.938C418.929 252.938 418.35 253.834 418.35 255.31V259.297H416.915V255.007C416.915 253.931 416.75 252.938 415.453 252.938C414.308 252.938 413.743 253.834 413.743 255.31V259.297ZM426.203 249.296V252.965C426.658 252.207 427.431 251.738 428.52 251.738C430.245 251.738 431.721 253.186 431.721 255.6C431.721 258.028 430.245 259.476 428.52 259.476C427.431 259.476 426.658 259.007 426.203 258.249V259.297H424.768V249.296H426.203ZM428.189 258.276C429.376 258.276 430.19 257.269 430.19 255.6C430.19 253.931 429.376 252.938 428.189 252.938C427.086 252.938 426.148 253.765 426.148 255.6C426.148 257.435 427.086 258.276 428.189 258.276ZM438.331 257.117H439.78C439.435 258.345 438.331 259.476 436.442 259.476C434.041 259.476 432.745 257.724 432.745 255.572C432.745 253.269 434.29 251.738 436.4 251.738C438.69 251.738 440.028 253.614 439.876 256.028H434.221C434.359 257.393 435.228 258.249 436.386 258.249C437.421 258.249 438.028 257.821 438.331 257.117ZM434.248 254.897H438.387C438.345 253.793 437.573 252.91 436.386 252.91C435.269 252.91 434.441 253.49 434.248 254.897ZM445.146 253.352C444.884 253.324 444.636 253.31 444.401 253.31C443.298 253.31 442.718 253.848 442.718 255.407V259.297H441.284V251.876H442.691V253.186C443.077 252.345 443.822 251.862 444.746 251.848C444.87 251.848 445.022 251.848 445.146 251.862V253.352Z"/><path fill="#A0A0A0" d="M401.667 351.06H402.773V355.84C402.773 357.39 403.325 358.105 404.799 358.105C406.306 358.105 406.859 357.271 406.859 355.721V351.06H407.964V355.634C407.964 357.932 407.086 359.059 404.799 359.059C402.621 359.059 401.667 358.17 401.667 355.721V351.06ZM411.34 358.918V352.014H408.782V351.06H415.003V352.014H412.445V358.918H411.34ZM421.041 356.414H422.114C421.767 358.148 420.413 359.059 418.711 359.059C416.457 359.059 415.145 357.357 415.145 354.973C415.145 352.545 416.587 350.919 418.798 350.919C420.424 350.919 421.724 351.884 422.071 353.564H420.998C420.77 352.578 419.99 351.851 418.744 351.851C417.356 351.851 416.272 352.935 416.272 354.973C416.272 356.967 417.313 358.127 418.776 358.127C420.033 358.127 420.792 357.422 421.041 356.414Z"/><path fill="#A0A0A0" d="M383.651 48.904V55.808H387.802V56.7617H382.545V48.904H383.651ZM389.204 53.8679C389.204 55.4286 390.05 56.0356 390.949 56.0356C391.849 56.0356 392.694 55.3636 392.694 53.8679C392.694 52.3072 391.849 51.7003 390.949 51.7003C390.05 51.7003 389.204 52.2747 389.204 53.8679ZM390.949 50.8332C392.304 50.8332 393.746 51.7545 393.746 53.8679C393.746 55.9814 392.304 56.9026 390.949 56.9026C389.595 56.9026 388.153 55.9814 388.153 53.8679C388.153 51.7545 389.595 50.8332 390.949 50.8332ZM399.293 52.6324H398.264C398.101 51.9387 397.581 51.6677 396.887 51.6677C396.313 51.6677 395.662 51.8737 395.662 52.4047C395.662 52.8708 395.987 53.0767 396.551 53.1959L397.375 53.3585C398.437 53.5536 399.369 53.9763 399.369 55.0926C399.369 56.2523 398.329 56.9026 396.995 56.9026C395.467 56.9026 394.611 55.8947 394.492 54.8759H395.532C395.695 55.6237 396.15 56.0681 397.017 56.0681C397.765 56.0681 398.372 55.7538 398.372 55.201C398.372 54.6049 397.819 54.3773 397.191 54.2364L396.323 54.063C395.532 53.8896 394.665 53.5428 394.665 52.4481C394.665 51.4185 395.706 50.8224 396.995 50.8224C398.264 50.8224 399.109 51.516 399.293 52.6324ZM402.411 56.7617L405.327 48.904H406.606L409.564 56.7617H408.372L407.755 55.0601H404.145L403.538 56.7617H402.411ZM405.934 50.0203L404.481 54.1172H407.408L405.934 50.0203ZM411.333 50.9307V51.8086C411.669 51.2559 412.232 50.8332 413.219 50.8332C414.628 50.8332 415.137 51.7436 415.137 53.0767V56.7617H414.151V53.3694C414.151 52.4698 413.999 51.6894 412.872 51.6894C411.918 51.6894 411.333 52.3397 411.333 53.597V56.7617H410.347V50.9307H411.333ZM420.536 51.852V50.9307H421.522V55.9814C421.522 57.1627 421.305 57.6613 420.969 58.0298C420.547 58.5175 419.821 58.7993 418.953 58.7993C417.62 58.7993 416.742 58.1924 416.558 57.011H417.61C417.729 57.5312 418.065 57.9322 418.964 57.9322C419.495 57.9322 419.886 57.7914 420.156 57.4987C420.362 57.2603 420.536 57.011 420.536 56.209V55.6562C420.178 56.274 419.625 56.6642 418.682 56.6642C417.393 56.6642 416.211 55.6237 416.211 53.7487C416.211 51.8845 417.393 50.8332 418.682 50.8332C419.625 50.8332 420.178 51.2342 420.536 51.852ZM420.579 53.7487C420.579 52.2747 419.799 51.6786 418.932 51.6786C417.967 51.6786 417.284 52.4156 417.284 53.7487C417.284 55.0926 417.967 55.8296 418.932 55.8296C419.799 55.8296 420.579 55.2335 420.579 53.7487ZM428.228 54.1714H423.74C423.773 55.4286 424.683 56.0356 425.54 56.0356C426.407 56.0356 426.884 55.6454 427.133 55.071H428.152C427.892 56.0681 426.959 56.9026 425.54 56.9026C423.697 56.9026 422.678 55.5804 422.678 53.8571C422.678 52.0037 423.914 50.8332 425.507 50.8332C427.295 50.8332 428.347 52.318 428.228 54.1714ZM425.507 51.6786C424.64 51.6786 423.838 52.1555 423.751 53.326H427.187C427.155 52.5023 426.558 51.6786 425.507 51.6786ZM430.363 48.904V56.7617H429.377V48.904H430.363ZM437.076 54.1714H432.589C432.621 55.4286 433.532 56.0356 434.388 56.0356C435.255 56.0356 435.732 55.6454 435.981 55.071H437C436.74 56.0681 435.808 56.9026 434.388 56.9026C432.546 56.9026 431.527 55.5804 431.527 53.8571C431.527 52.0037 432.762 50.8332 434.356 50.8332C436.144 50.8332 437.195 52.318 437.076 54.1714ZM434.356 51.6786C433.488 51.6786 432.686 52.1555 432.6 53.326H436.035C436.003 52.5023 435.407 51.6786 434.356 51.6786ZM442.614 52.6324H441.585C441.422 51.9387 440.902 51.6677 440.208 51.6677C439.634 51.6677 438.984 51.8737 438.984 52.4047C438.984 52.8708 439.309 53.0767 439.872 53.1959L440.696 53.3585C441.758 53.5536 442.69 53.9763 442.69 55.0926C442.69 56.2523 441.65 56.9026 440.317 56.9026C438.788 56.9026 437.932 55.8947 437.813 54.8759H438.853C439.016 55.6237 439.471 56.0681 440.338 56.0681C441.086 56.0681 441.693 55.7538 441.693 55.201C441.693 54.6049 441.14 54.3773 440.512 54.2364L439.645 54.063C438.853 53.8896 437.986 53.5428 437.986 52.4481C437.986 51.4185 439.027 50.8224 440.317 50.8224C441.585 50.8224 442.43 51.516 442.614 52.6324Z"/><path fill="#F5F5F5" d="M113.799 165.625H40V190.257H113.799V165.625Z"/><path fill="#000" d="M60.2775 172.448L62.8984 177.138L65.5744 172.448H67.3125L63.6433 178.573V182.449H62.0707V178.545L58.5256 172.448H60.2775ZM72.0848 180.27H73.5332C73.1883 181.497 72.0848 182.629 70.195 182.629C67.7948 182.629 66.4982 180.877 66.4982 178.725C66.4982 176.421 68.0431 174.89 70.1536 174.89C72.4435 174.89 73.7815 176.766 73.6298 179.18H67.9742C68.1121 180.546 68.9811 181.401 70.1398 181.401C71.1744 181.401 71.7813 180.973 72.0848 180.27ZM68.0018 178.049H72.14C72.0986 176.945 71.3261 176.063 70.1398 176.063C69.0225 176.063 68.1949 176.642 68.0018 178.049ZM74.5284 180.449C74.5284 178.642 76.6527 178.159 79.5357 177.856V177.704C79.5357 176.394 78.846 175.952 77.9356 175.952C76.9424 175.952 76.3768 176.463 76.3217 177.373H74.8733C74.9974 175.8 76.2941 174.849 77.9907 174.849C79.9081 174.849 81.0117 175.773 80.9841 177.994C80.9841 178.173 80.9565 179.456 80.9565 179.773C80.9565 180.877 81.0255 181.787 81.1634 182.449H79.784C79.7288 182.16 79.6874 181.939 79.6598 181.47C79.2184 182.215 78.377 182.629 77.1769 182.629C75.6733 182.629 74.5284 181.801 74.5284 180.449ZM79.6047 178.918C77.301 179.139 76.0872 179.456 76.0872 180.421C76.0872 181.097 76.6251 181.525 77.4942 181.525C78.6805 181.525 79.6047 180.932 79.6047 179.456V178.918ZM86.6183 176.504C86.3562 176.476 86.1079 176.463 85.8734 176.463C84.7699 176.463 84.1906 177.001 84.1906 178.559V182.449H82.756V175.028H84.163V176.338C84.5492 175.497 85.2941 175.014 86.2183 175C86.3424 175 86.4942 175 86.6183 175.014V176.504ZM91.9073 177.097C91.7004 176.338 91.0658 176.035 90.2244 176.035C89.5209 176.035 88.7622 176.325 88.7622 176.932C88.7622 177.483 89.1209 177.718 89.7968 177.856L90.8589 178.063C92.2659 178.339 93.4936 178.821 93.4936 180.27C93.4936 181.773 92.0866 182.629 90.3761 182.629C88.5001 182.629 87.3552 181.539 87.1759 180.146H88.6381C88.8312 180.987 89.383 181.484 90.4175 181.484C91.3417 181.484 92.059 181.097 92.059 180.435C92.059 179.746 91.4107 179.47 90.6382 179.318L89.5209 179.097C88.4036 178.877 87.3552 178.38 87.3552 176.987C87.3552 175.676 88.7346 174.876 90.3623 174.876C91.8521 174.876 93.0522 175.663 93.3281 177.097H91.9073Z"/><path fill="#2EAFFF" d="M710 165.625H114.784V190.257H710V165.625Z"/><path fill="#000" d="M404.129 174.904C404.129 177.097 401.922 179.097 399.011 181.153H404.391V182.449H397.149V181.208C400.584 178.601 402.625 176.78 402.625 175.056C402.625 174.049 401.949 173.414 400.873 173.414C399.853 173.414 398.873 173.993 398.86 175.607H397.397C397.37 173.607 398.763 172.269 400.915 172.269C402.763 172.269 404.129 173.207 404.129 174.904ZM405.426 177.442C405.426 174.324 406.695 172.269 409.357 172.269C412.033 172.269 413.288 174.324 413.288 177.442C413.288 180.573 412.033 182.629 409.357 182.629C406.695 182.629 405.426 180.573 405.426 177.442ZM411.771 177.442C411.771 174.793 410.874 173.414 409.357 173.414C407.853 173.414 406.943 174.793 406.943 177.442C406.943 180.104 407.853 181.47 409.357 181.47C410.874 181.47 411.771 180.104 411.771 177.442ZM421.264 174.904C421.264 177.097 419.057 179.097 416.146 181.153H421.526V182.449H414.284V181.208C417.719 178.601 419.76 176.78 419.76 175.056C419.76 174.049 419.084 173.414 418.008 173.414C416.988 173.414 416.008 173.993 415.994 175.607H414.532C414.505 173.607 415.898 172.269 418.05 172.269C419.898 172.269 421.264 173.207 421.264 174.904ZM424.312 182.449V174.725H422.036V173.745C423.485 173.69 424.202 173.538 424.726 172.448H425.761V182.449H424.312Z"/><path fill="#F5F5F5" d="M113.799 216.859H40V241.492H113.799V216.859Z"/><path fill="#000" d="M60.2775 223.683L62.8984 228.373L65.5744 223.683H67.3125L63.6433 229.807V233.684H62.0707V229.78L58.5256 223.683H60.2775ZM72.0848 231.504H73.5332C73.1883 232.732 72.0848 233.863 70.195 233.863C67.7948 233.863 66.4982 232.111 66.4982 229.959C66.4982 227.656 68.0431 226.124 70.1536 226.124C72.4435 226.124 73.7815 228 73.6298 230.414H67.9742C68.1121 231.78 68.9811 232.635 70.1398 232.635C71.1744 232.635 71.7813 232.208 72.0848 231.504ZM68.0018 229.283H72.14C72.0986 228.18 71.3261 227.297 70.1398 227.297C69.0225 227.297 68.1949 227.876 68.0018 229.283ZM74.5284 231.683C74.5284 229.876 76.6527 229.394 79.5357 229.09V228.938C79.5357 227.628 78.846 227.187 77.9356 227.187C76.9424 227.187 76.3768 227.697 76.3217 228.607H74.8733C74.9974 227.035 76.2941 226.083 77.9907 226.083C79.9081 226.083 81.0117 227.007 80.9841 229.228C80.9841 229.407 80.9565 230.69 80.9565 231.008C80.9565 232.111 81.0255 233.021 81.1634 233.684H79.784C79.7288 233.394 79.6874 233.173 79.6598 232.704C79.2184 233.449 78.377 233.863 77.1769 233.863C75.6733 233.863 74.5284 233.035 74.5284 231.683ZM79.6047 230.152C77.301 230.373 76.0872 230.69 76.0872 231.656C76.0872 232.332 76.6251 232.759 77.4942 232.759C78.6805 232.759 79.6047 232.166 79.6047 230.69V230.152ZM86.6183 227.738C86.3562 227.711 86.1079 227.697 85.8734 227.697C84.7699 227.697 84.1906 228.235 84.1906 229.794V233.684H82.756V226.262H84.163V227.573C84.5492 226.731 85.2941 226.249 86.2183 226.235C86.3424 226.235 86.4942 226.235 86.6183 226.249V227.738ZM91.9073 228.331C91.7004 227.573 91.0658 227.269 90.2244 227.269C89.5209 227.269 88.7622 227.559 88.7622 228.166C88.7622 228.718 89.1209 228.952 89.7968 229.09L90.8589 229.297C92.2659 229.573 93.4936 230.056 93.4936 231.504C93.4936 233.008 92.0866 233.863 90.3761 233.863C88.5001 233.863 87.3552 232.773 87.1759 231.38H88.6381C88.8312 232.221 89.383 232.718 90.4175 232.718C91.3417 232.718 92.059 232.332 92.059 231.67C92.059 230.98 91.4107 230.704 90.6382 230.552L89.5209 230.332C88.4036 230.111 87.3552 229.614 87.3552 228.221C87.3552 226.911 88.7346 226.111 90.3623 226.111C91.8521 226.111 93.0522 226.897 93.3281 228.331H91.9073Z"/><path fill="#2EAFFF" d="M710 216.859H114.784V241.492H710V216.859Z"/><path fill="#000" d="M404.129 226.138C404.129 228.331 401.922 230.332 399.011 232.387H404.391V233.684H397.149V232.442C400.584 229.835 402.625 228.014 402.625 226.29C402.625 225.283 401.949 224.648 400.873 224.648C399.853 224.648 398.873 225.228 398.86 226.842H397.397C397.37 224.842 398.763 223.504 400.915 223.504C402.763 223.504 404.129 224.442 404.129 226.138ZM405.426 228.676C405.426 225.559 406.695 223.504 409.357 223.504C412.033 223.504 413.288 225.559 413.288 228.676C413.288 231.808 412.033 233.863 409.357 233.863C406.695 233.863 405.426 231.808 405.426 228.676ZM411.771 228.676C411.771 226.028 410.874 224.648 409.357 224.648C407.853 224.648 406.943 226.028 406.943 228.676C406.943 231.339 407.853 232.704 409.357 232.704C410.874 232.704 411.771 231.339 411.771 228.676ZM421.264 226.138C421.264 228.331 419.057 230.332 416.146 232.387H421.526V233.684H414.284V232.442C417.719 229.835 419.76 228.014 419.76 226.29C419.76 225.283 419.084 224.648 418.008 224.648C416.988 224.648 416.008 225.228 415.994 226.842H414.532C414.505 224.842 415.898 223.504 418.05 223.504C419.898 223.504 421.264 224.442 421.264 226.138ZM424.312 233.684V225.959H422.036V224.98C423.485 224.924 424.202 224.773 424.726 223.683H425.761V233.684H424.312Z"/><path fill="#F5F5F5" d="M113.799 88.7695H40V113.402H113.799V88.7695Z"/><path fill="#000" d="M66.8434 95.593V105.594H65.2708V101.111H60.2498V105.594H58.6773V95.593H60.2498V99.7864H65.2708V95.593H66.8434ZM75.6296 101.911C75.6296 104.587 73.7812 105.773 72.0155 105.773C70.2637 105.773 68.4153 104.587 68.4153 101.911C68.4153 99.2209 70.2637 98.0346 72.0155 98.0346C73.7812 98.0346 75.6296 99.2209 75.6296 101.911ZM72.0155 104.559C73.1053 104.559 74.1122 103.718 74.1122 101.911C74.1122 100.062 73.1053 99.2485 72.0155 99.2485C70.9396 99.2485 69.9326 100.035 69.9326 101.911C69.9326 103.745 70.9396 104.559 72.0155 104.559ZM81.6413 104.545C81.2137 105.29 80.4964 105.773 79.3791 105.773C77.6273 105.773 76.9513 104.683 76.9513 102.89V98.1725H78.3859V102.504C78.3859 103.58 78.5653 104.559 79.8619 104.559C81.062 104.559 81.6551 103.663 81.6551 102.2V98.1725H83.0897V105.594H81.6413V104.545ZM88.8718 99.6485C88.6097 99.6209 88.3614 99.6071 88.1269 99.6071C87.0234 99.6071 86.4441 100.145 86.4441 101.704V105.594H85.0095V98.1725H86.4165V99.483C86.8027 98.6415 87.5476 98.1587 88.4718 98.1449C88.5959 98.1449 88.7477 98.1449 88.8718 98.1587V99.6485ZM94.1608 100.242C93.9539 99.483 93.3194 99.1795 92.4779 99.1795C91.7744 99.1795 91.0157 99.4692 91.0157 100.076C91.0157 100.628 91.3744 100.862 92.0503 101L93.1124 101.207C94.5194 101.483 95.7471 101.966 95.7471 103.414C95.7471 104.918 94.3401 105.773 92.6296 105.773C90.7536 105.773 89.6087 104.683 89.4294 103.29H90.8916C91.0847 104.132 91.6365 104.628 92.671 104.628C93.5952 104.628 94.3125 104.242 94.3125 103.58C94.3125 102.89 93.6642 102.614 92.8917 102.462L91.7744 102.242C90.6571 102.021 89.6087 101.524 89.6087 100.131C89.6087 98.8208 90.9881 98.0208 92.6159 98.0208C94.1056 98.0208 95.3057 98.807 95.5816 100.242H94.1608Z"/><path fill="#B0B0B0" d="M263.465 88.7695H114.784V113.402H263.465V88.7695Z"/><path fill="#B0B0B0" d="M710 88.7695H561.319V113.402H710V88.7695Z"/><path fill="#B0B0B0" d="M560.432 88.7695H264.45V113.402H560.432V88.7695Z"/><path fill="#000" d="M182.688 100.586C182.688 97.469 183.958 95.4137 186.62 95.4137C189.296 95.4137 190.551 97.469 190.551 100.586C190.551 103.718 189.296 105.773 186.62 105.773C183.958 105.773 182.688 103.718 182.688 100.586ZM189.034 100.586C189.034 97.938 188.137 96.5586 186.62 96.5586C185.116 96.5586 184.206 97.938 184.206 100.586C184.206 103.249 185.116 104.614 186.62 104.614C188.137 104.614 189.034 103.249 189.034 100.586ZM193.533 105.594V97.869H191.257V96.8897C192.705 96.8345 193.423 96.6828 193.947 95.593H194.982V105.594H193.533Z"/><path fill="#000" d="M403.9 100.586C403.9 97.469 405.169 95.4137 407.832 95.4137C410.508 95.4137 411.763 97.469 411.763 100.586C411.763 103.718 410.508 105.773 407.832 105.773C405.169 105.773 403.9 103.718 403.9 100.586ZM410.246 100.586C410.246 97.938 409.349 96.5586 407.832 96.5586C406.328 96.5586 405.418 97.938 405.418 100.586C405.418 103.249 406.328 104.614 407.832 104.614C409.349 104.614 410.246 103.249 410.246 100.586ZM419.739 98.0484C419.739 100.242 417.531 102.242 414.621 104.297H420.001V105.594H412.759V104.352C416.193 101.745 418.235 99.9244 418.235 98.2001C418.235 97.1931 417.559 96.5586 416.483 96.5586C415.462 96.5586 414.483 97.138 414.469 98.7519H413.007C412.979 96.7517 414.373 95.4137 416.524 95.4137C418.373 95.4137 419.739 96.3517 419.739 98.0484Z"/><path fill="#000" d="M627.637 100.586C627.637 97.469 628.906 95.4137 631.569 95.4137C634.245 95.4137 635.5 97.469 635.5 100.586C635.5 103.718 634.245 105.773 631.569 105.773C628.906 105.773 627.637 103.718 627.637 100.586ZM633.983 100.586C633.983 97.938 633.086 96.5586 631.569 96.5586C630.065 96.5586 629.155 97.938 629.155 100.586C629.155 103.249 630.065 104.614 631.569 104.614C633.086 104.614 633.983 103.249 633.983 100.586ZM642.234 102.794C642.234 101.428 641.075 100.973 639.53 100.973H639.185V99.7175H639.475C641.13 99.7175 641.972 99.2209 641.972 98.1173C641.972 97.069 641.13 96.5586 640.123 96.5586C638.854 96.5586 638.151 97.3311 638.013 98.4898H636.578C636.73 96.6552 638.027 95.4137 640.192 95.4137C641.889 95.4137 643.475 96.131 643.475 97.9932C643.475 99.0002 642.896 99.8554 641.917 100.283C643.268 100.738 643.737 101.731 643.737 102.766C643.737 104.794 642.013 105.773 640.054 105.773C637.723 105.773 636.564 104.283 636.44 102.573H637.875C638.027 103.732 638.716 104.614 640.082 104.614C641.323 104.614 642.234 103.952 642.234 102.794Z"/><path fill="#F5F5F5" d="M113.799 63.1523H40V87.7847H113.799V63.1523Z"/><path fill="#000" d="M62.6247 80.152C59.7141 80.152 57.8933 78.0139 57.8933 74.9654C57.8933 71.9169 59.7141 69.7926 62.6247 69.7926C65.5215 69.7926 67.3423 71.9169 67.3423 74.9654C67.3423 78.0139 65.5215 80.152 62.6247 80.152ZM62.6247 78.8415C64.3628 78.8415 65.7284 77.4759 65.7284 74.9654C65.7284 72.4549 64.3628 71.103 62.6247 71.103C60.8728 71.103 59.5072 72.4549 59.5072 74.9654C59.5072 77.4759 60.8728 78.8415 62.6247 78.8415ZM69.2355 72.0548C69.2355 70.4133 69.7183 69.9719 71.4564 69.9719H72.1047V71.1168H71.5529C70.8219 71.1168 70.6701 71.2686 70.6701 72.041V72.5514H72.1047V73.6412H70.6701V79.9727H69.2355V73.6412H68.201V72.5514H69.2355V72.0548ZM73.627 72.0548C73.627 70.4133 74.1098 69.9719 75.8479 69.9719H76.4962V71.1168H75.9444C75.2133 71.1168 75.0616 71.2686 75.0616 72.041V72.5514H76.4962V73.6412H75.0616V79.9727H73.627V73.6412H72.5925V72.5514H73.627V72.0548ZM81.8427 74.6205C81.6358 73.8619 81.0013 73.5584 80.1598 73.5584C79.4563 73.5584 78.6976 73.8481 78.6976 74.455C78.6976 75.0068 79.0563 75.2413 79.7322 75.3792L80.7944 75.5861C82.2014 75.862 83.429 76.3448 83.429 77.7932C83.429 79.2967 82.022 80.152 80.3116 80.152C78.4356 80.152 77.2906 79.0622 77.1113 77.669H78.5735C78.7666 78.5105 79.3184 79.0071 80.3529 79.0071C81.2771 79.0071 81.9944 78.6208 81.9944 77.9587C81.9944 77.269 81.3461 76.9931 80.5736 76.8414L79.4563 76.6207C78.339 76.4 77.2906 75.9034 77.2906 74.5102C77.2906 73.1997 78.6701 72.3997 80.2978 72.3997C81.7875 72.3997 82.9876 73.186 83.2635 74.6205H81.8427ZM89.9452 77.7932H91.3936C91.0488 79.0209 89.9452 80.152 88.0554 80.152C85.6553 80.152 84.3586 78.4001 84.3586 76.2482C84.3586 73.9446 85.9036 72.4135 88.0141 72.4135C90.3039 72.4135 91.6419 74.2895 91.4902 76.7035H85.8346C85.9725 78.0691 86.8416 78.9243 88.0003 78.9243C89.0348 78.9243 89.6418 78.4967 89.9452 77.7932ZM85.8622 75.5723H90.0004C89.959 74.4688 89.1866 73.586 88.0003 73.586C86.8829 73.586 86.0553 74.1653 85.8622 75.5723ZM93.1873 70.6478H94.6219V72.5514H96.0841V73.6412H94.6219V77.876C94.6219 78.6346 94.746 78.8277 95.4633 78.8277H96.0703V79.9727H95.0219C93.5183 79.9727 93.1873 79.6002 93.1873 78.0691V73.6412H92.0562V72.5514H93.1873V70.6478Z"/><path fill="#FFF100" d="M411.85 63.1523H114.784V87.7847H411.85V63.1523Z"/><path fill="#FFF100" d="M710 63.1523H412.836V87.7847H710V63.1523Z"/><path fill="#000" d="M242.299 76.8828V75.5585H246.741V76.8828H242.299ZM247.983 74.9654C247.983 71.8479 249.252 69.7926 251.915 69.7926C254.591 69.7926 255.846 71.8479 255.846 74.9654C255.846 78.0967 254.591 80.152 251.915 80.152C249.252 80.152 247.983 78.0967 247.983 74.9654ZM254.329 74.9654C254.329 72.3169 253.432 70.9375 251.915 70.9375C250.411 70.9375 249.501 72.3169 249.501 74.9654C249.501 77.6277 250.411 78.9933 251.915 78.9933C253.432 78.9933 254.329 77.6277 254.329 74.9654ZM256.524 69.9719H263.573V71.2824C261.076 73.4756 259.614 76.262 259.394 79.9727H257.711C257.904 76.4138 259.573 73.4205 261.987 71.2824H256.524V69.9719ZM263.843 74.2757V72.5514H265.568V74.2757H263.843ZM263.843 79.9727V78.2484H265.568V79.9727H263.843ZM266.991 74.9654C266.991 71.8479 268.26 69.7926 270.922 69.7926C273.598 69.7926 274.853 71.8479 274.853 74.9654C274.853 78.0967 273.598 80.152 270.922 80.152C268.26 80.152 266.991 78.0967 266.991 74.9654ZM273.336 74.9654C273.336 72.3169 272.439 70.9375 270.922 70.9375C269.418 70.9375 268.508 72.3169 268.508 74.9654C268.508 77.6277 269.418 78.9933 270.922 78.9933C272.439 78.9933 273.336 77.6277 273.336 74.9654ZM276.083 74.9654C276.083 71.8479 277.353 69.7926 280.015 69.7926C282.691 69.7926 283.946 71.8479 283.946 74.9654C283.946 78.0967 282.691 80.152 280.015 80.152C277.353 80.152 276.083 78.0967 276.083 74.9654ZM282.429 74.9654C282.429 72.3169 281.532 70.9375 280.015 70.9375C278.511 70.9375 277.601 72.3169 277.601 74.9654C277.601 77.6277 278.511 78.9933 280.015 78.9933C281.532 78.9933 282.429 77.6277 282.429 74.9654Z"/><path fill="#000" d="M536.472 76.8828V75.5585H540.914V76.8828H536.472ZM542.156 74.9654C542.156 71.8479 543.425 69.7926 546.087 69.7926C548.764 69.7926 550.019 71.8479 550.019 74.9654C550.019 78.0967 548.764 80.152 546.087 80.152C543.425 80.152 542.156 78.0967 542.156 74.9654ZM548.501 74.9654C548.501 72.3169 547.605 70.9375 546.087 70.9375C544.584 70.9375 543.674 72.3169 543.674 74.9654C543.674 77.6277 544.584 78.9933 546.087 78.9933C547.605 78.9933 548.501 77.6277 548.501 74.9654ZM558.353 72.3445C558.353 73.186 557.981 74.1102 557.029 74.6481C558.27 75.1999 558.656 76.2207 558.656 77.1449C558.656 79.076 557.056 80.152 554.973 80.152C552.89 80.152 551.29 79.076 551.29 77.1449C551.29 76.2207 551.69 75.1999 552.932 74.6481C551.994 74.124 551.608 73.186 551.608 72.3445C551.608 70.8685 552.904 69.7926 554.973 69.7926C557.043 69.7926 558.353 70.8685 558.353 72.3445ZM554.973 70.9375C553.815 70.9375 553.028 71.5582 553.028 72.5238C553.028 73.5032 553.815 74.2067 554.973 74.2067C556.146 74.2067 556.918 73.5032 556.918 72.5238C556.918 71.5582 556.146 70.9375 554.973 70.9375ZM552.808 77.1173C552.808 78.276 553.649 78.9933 554.973 78.9933C556.298 78.9933 557.153 78.276 557.153 77.1173C557.153 75.9724 556.298 75.2137 554.973 75.2137C553.649 75.2137 552.808 75.9724 552.808 77.1173ZM560.145 74.2757V72.5514H561.869V74.2757H560.145ZM560.145 79.9727V78.2484H561.869V79.9727H560.145ZM563.292 74.9654C563.292 71.8479 564.561 69.7926 567.223 69.7926C569.899 69.7926 571.155 71.8479 571.155 74.9654C571.155 78.0967 569.899 80.152 567.223 80.152C564.561 80.152 563.292 78.0967 563.292 74.9654ZM569.637 74.9654C569.637 72.3169 568.741 70.9375 567.223 70.9375C565.72 70.9375 564.809 72.3169 564.809 74.9654C564.809 77.6277 565.72 78.9933 567.223 78.9933C568.741 78.9933 569.637 77.6277 569.637 74.9654ZM572.385 74.9654C572.385 71.8479 573.654 69.7926 576.316 69.7926C578.992 69.7926 580.247 71.8479 580.247 74.9654C580.247 78.0967 578.992 80.152 576.316 80.152C573.654 80.152 572.385 78.0967 572.385 74.9654ZM578.73 74.9654C578.73 72.3169 577.833 70.9375 576.316 70.9375C574.812 70.9375 573.902 72.3169 573.902 74.9654C573.902 77.6277 574.812 78.9933 576.316 78.9933C577.833 78.9933 578.73 77.6277 578.73 74.9654Z"/><path fill="#FFF100" d="M710 319.723H114.784V344.355H710V319.723Z"/><path fill="#F5F5F5" d="M113.799 319.723H40V344.355H113.799V319.723Z"/><path fill="#000" d="M392.61 331.551C392.61 328.434 393.879 326.379 396.541 326.379C399.217 326.379 400.473 328.434 400.473 331.551C400.473 334.683 399.217 336.738 396.541 336.738C393.879 336.738 392.61 334.683 392.61 331.551ZM398.955 331.551C398.955 328.903 398.059 327.523 396.541 327.523C395.038 327.523 394.127 328.903 394.127 331.551C394.127 334.214 395.038 335.579 396.541 335.579C398.059 335.579 398.955 334.214 398.955 331.551ZM401.703 331.551C401.703 328.434 402.972 326.379 405.634 326.379C408.31 326.379 409.565 328.434 409.565 331.551C409.565 334.683 408.31 336.738 405.634 336.738C402.972 336.738 401.703 334.683 401.703 331.551ZM408.048 331.551C408.048 328.903 407.151 327.523 405.634 327.523C404.13 327.523 403.22 328.903 403.22 331.551C403.22 334.214 404.13 335.579 405.634 335.579C407.151 335.579 408.048 334.214 408.048 331.551ZM411.002 330.862V329.137H412.727V330.862H411.002ZM411.002 336.559V334.834H412.727V336.559H411.002ZM414.15 331.551C414.15 328.434 415.419 326.379 418.081 326.379C420.757 326.379 422.012 328.434 422.012 331.551C422.012 334.683 420.757 336.738 418.081 336.738C415.419 336.738 414.15 334.683 414.15 331.551ZM420.495 331.551C420.495 328.903 419.598 327.523 418.081 327.523C416.577 327.523 415.667 328.903 415.667 331.551C415.667 334.214 416.577 335.579 418.081 335.579C419.598 335.579 420.495 334.214 420.495 331.551ZM423.243 331.551C423.243 328.434 424.512 326.379 427.174 326.379C429.85 326.379 431.105 328.434 431.105 331.551C431.105 334.683 429.85 336.738 427.174 336.738C424.512 336.738 423.243 334.683 423.243 331.551ZM429.588 331.551C429.588 328.903 428.691 327.523 427.174 327.523C425.67 327.523 424.76 328.903 424.76 331.551C424.76 334.214 425.67 335.579 427.174 335.579C428.691 335.579 429.588 334.214 429.588 331.551Z"/><path fill="#000" d="M62.6247 336.738C59.7141 336.738 57.8933 334.6 57.8933 331.551C57.8933 328.503 59.7141 326.379 62.6247 326.379C65.5215 326.379 67.3423 328.503 67.3423 331.551C67.3423 334.6 65.5215 336.738 62.6247 336.738ZM62.6247 335.427C64.3628 335.427 65.7284 334.062 65.7284 331.551C65.7284 329.041 64.3628 327.689 62.6247 327.689C60.8728 327.689 59.5072 329.041 59.5072 331.551C59.5072 334.062 60.8728 335.427 62.6247 335.427ZM69.2355 328.641C69.2355 326.999 69.7183 326.558 71.4564 326.558H72.1047V327.703H71.5529C70.8219 327.703 70.6701 327.855 70.6701 328.627V329.137H72.1047V330.227H70.6701V336.559H69.2355V330.227H68.201V329.137H69.2355V328.641ZM73.627 328.641C73.627 326.999 74.1098 326.558 75.8479 326.558H76.4962V327.703H75.9444C75.2133 327.703 75.0616 327.855 75.0616 328.627V329.137H76.4962V330.227H75.0616V336.559H73.627V330.227H72.5925V329.137H73.627V328.641ZM81.8427 331.206C81.6358 330.448 81.0013 330.144 80.1598 330.144C79.4563 330.144 78.6976 330.434 78.6976 331.041C78.6976 331.593 79.0563 331.827 79.7322 331.965L80.7944 332.172C82.2014 332.448 83.429 332.931 83.429 334.379C83.429 335.883 82.022 336.738 80.3116 336.738C78.4356 336.738 77.2906 335.648 77.1113 334.255H78.5735C78.7666 335.096 79.3184 335.593 80.3529 335.593C81.2771 335.593 81.9944 335.207 81.9944 334.545C81.9944 333.855 81.3461 333.579 80.5736 333.427L79.4563 333.207C78.339 332.986 77.2906 332.489 77.2906 331.096C77.2906 329.786 78.6701 328.986 80.2978 328.986C81.7875 328.986 82.9876 329.772 83.2635 331.206H81.8427ZM89.9452 334.379H91.3936C91.0488 335.607 89.9452 336.738 88.0554 336.738C85.6553 336.738 84.3586 334.986 84.3586 332.834C84.3586 330.531 85.9036 328.999 88.0141 328.999C90.3039 328.999 91.6419 330.875 91.4902 333.289H85.8346C85.9725 334.655 86.8416 335.51 88.0003 335.51C89.0348 335.51 89.6418 335.083 89.9452 334.379ZM85.8622 332.158H90.0004C89.959 331.055 89.1866 330.172 88.0003 330.172C86.8829 330.172 86.0553 330.751 85.8622 332.158ZM93.1873 327.234H94.6219V329.137H96.0841V330.227H94.6219V334.462C94.6219 335.221 94.746 335.414 95.4633 335.414H96.0703V336.559H95.0219C93.5183 336.559 93.1873 336.186 93.1873 334.655V330.227H92.0562V329.137H93.1873V327.234Z"/><path fill="#000" d="M53.9607 208.062H52.3882V198.062H53.9607V208.062ZM57.4701 201.717C57.8978 200.986 58.6426 200.503 59.8014 200.503C61.5946 200.503 62.2843 201.662 62.2843 203.386V208.062H60.8497V203.773C60.8497 202.697 60.6704 201.703 59.3186 201.703C58.0771 201.703 57.4701 202.6 57.4701 204.076V208.062H56.0356V200.641H57.4701V201.717ZM68.2986 202.71C68.0917 201.952 67.4572 201.648 66.6158 201.648C65.9123 201.648 65.1536 201.938 65.1536 202.545C65.1536 203.097 65.5122 203.331 66.1881 203.469L67.2503 203.676C68.6573 203.952 69.885 204.435 69.885 205.883C69.885 207.387 68.478 208.242 66.7675 208.242C64.8915 208.242 63.7466 207.152 63.5673 205.759H65.0294C65.2225 206.6 65.7743 207.097 66.8089 207.097C67.7331 207.097 68.4504 206.711 68.4504 206.049C68.4504 205.359 67.802 205.083 67.0296 204.931L65.9123 204.711C64.7949 204.49 63.7466 203.993 63.7466 202.6C63.7466 201.29 65.126 200.49 66.7537 200.49C68.2435 200.49 69.4435 201.276 69.7194 202.71H68.2986ZM71.6146 198.738H73.0492V200.641H74.5114V201.731H73.0492V205.966C73.0492 206.724 73.1733 206.918 73.8906 206.918H74.4976V208.062H73.4492C71.9457 208.062 71.6146 207.69 71.6146 206.159V201.731H70.4835V200.641H71.6146V198.738ZM75.4636 206.062C75.4636 204.255 77.5879 203.773 80.4709 203.469V203.317C80.4709 202.007 79.7812 201.565 78.8707 201.565C77.8776 201.565 77.312 202.076 77.2568 202.986H75.8085C75.9326 201.414 77.2292 200.462 78.9259 200.462C80.8433 200.462 81.9468 201.386 81.9192 203.607C81.9192 203.786 81.8917 205.069 81.8917 205.386C81.8917 206.49 81.9606 207.4 82.0986 208.062H80.7192C80.664 207.773 80.6226 207.552 80.595 207.083C80.1536 207.828 79.3122 208.242 78.1121 208.242C76.6085 208.242 75.4636 207.414 75.4636 206.062ZM80.5398 204.531C78.2362 204.752 77.0223 205.069 77.0223 206.035C77.0223 206.711 77.5603 207.138 78.4293 207.138C79.6156 207.138 80.5398 206.545 80.5398 205.069V204.531ZM85.1257 201.717C85.5533 200.986 86.2982 200.503 87.4569 200.503C89.2502 200.503 89.9399 201.662 89.9399 203.386V208.062H88.5053V203.773C88.5053 202.697 88.326 201.703 86.9741 201.703C85.7327 201.703 85.1257 202.6 85.1257 204.076V208.062H83.6911V200.641H85.1257V201.717ZM92.0229 198.738H93.4575V200.641H94.9197V201.731H93.4575V205.966C93.4575 206.724 93.5816 206.918 94.2989 206.918H94.9059V208.062H93.8575C92.354 208.062 92.0229 207.69 92.0229 206.159V201.731H90.8918V200.641H92.0229V198.738ZM100.534 202.71C100.327 201.952 99.6929 201.648 98.8514 201.648C98.1479 201.648 97.3892 201.938 97.3892 202.545C97.3892 203.097 97.7479 203.331 98.4238 203.469L99.4859 203.676C100.893 203.952 102.121 204.435 102.121 205.883C102.121 207.387 100.714 208.242 99.0032 208.242C97.1272 208.242 95.9822 207.152 95.8029 205.759H97.2651C97.4582 206.6 98.01 207.097 99.0445 207.097C99.9687 207.097 100.686 206.711 100.686 206.049C100.686 205.359 100.038 205.083 99.2652 204.931L98.1479 204.711C97.0306 204.49 95.9822 203.993 95.9822 202.6C95.9822 201.29 97.3617 200.49 98.9894 200.49C100.479 200.49 101.679 201.276 101.955 202.71H100.534Z"/><path fill="#D1D1D1" d="M412.441 207.889C414.835 207.889 416.776 205.948 416.776 203.554C416.776 201.16 414.835 199.219 412.441 199.219C410.046 199.219 408.105 201.16 408.105 203.554C408.105 205.948 410.046 207.889 412.441 207.889Z"/><path stroke="#D1D1D1" stroke-miterlimit="10" stroke-width=".985" d="M699.063 197.152L706.453 203.557L699.063 209.961"/><path stroke="#D1D1D1" stroke-miterlimit="10" stroke-width=".985" d="M119.021 203.559H705.96"/><path stroke="#D1D1D1" stroke-miterlimit="10" stroke-width=".985" d="M125.72 209.961L118.331 203.557L125.72 197.152"/></g><defs><clipPath id="clip0_8648_18676"><rect width="670" height="322.782" fill="#fff" transform="translate(40 40)"/></clipPath></defs></svg>