<svg xmlns="http://www.w3.org/2000/svg" xmlns:xlink="http://www.w3.org/1999/xlink" width="100%" height="100%" version="1.1" viewBox="0 0 800 160" xml:space="preserve" style="fill-rule:evenodd;clip-rule:evenodd;stroke-linecap:round;stroke-linejoin:round;stroke-miterlimit:1.5"><g id="Time"><path d="M48.041,217.125L65.178,309.25L45,217.125L65.178,125L48.041,217.125L778.959,217.125L761.822,125L782,217.125L761.822,309.25L778.959,217.125L48.041,217.125Z" style="stroke:#000;stroke-width:3.08px" transform="matrix(0.898236,0,0,0.196744,84.0794,-21.3925)"/></g><g><text x="39.961" y="301.788" style="font-family:'ArialMT','Arial',sans-serif;font-size:20px" transform="matrix(1,0,0,1,7.5,-273.3)">Instants</text></g><g id="Day" transform="matrix(0.5,0,0,0.958482,64.5,-184.42)"><rect width="662" height="31" x="120" y="325" style="fill:#54a24b"/><g><text x="351.492" y="242.596" style="font-family:'ArialMT','Arial',sans-serif;font-size:24px" transform="matrix(2,0,0,1.04332,-278.68,96.6218)">31</text></g><rect width="662" height="31" x="120" y="325" style="fill:none;stroke:#000;stroke-width:1.31px"/></g><g id="Day1" transform="matrix(0.5,0,0,0.958482,395.5,-184.42)"><rect width="662" height="31" x="120" y="325" style="fill:#54a24b"/><g><text x="351.492" y="242.596" style="font-family:'ArialMT','Arial',sans-serif;font-size:24px" transform="matrix(2,0,0,1.04332,-278.68,96.6218)">01</text></g><rect width="662" height="31" x="120" y="325" style="fill:none;stroke:#000;stroke-width:1.31px"/></g><g><text x="335.434" y="182.163" style="font-family:'ArialMT','Arial',sans-serif;font-size:20px" transform="matrix(1,0,0,1,-263.5,-34.3772)">Days</text></g><g id="Month" transform="matrix(0.5,0,0,0.958482,64.5,-219.884)"><rect width="662" height="31" x="120" y="325" style="fill:#f58518"/><g><text x="401.987" y="242.596" style="font-family:'ArialMT','Arial',sans-serif;font-size:24px" transform="matrix(2,0,0,1.04332,-463.68,96.364)">December</text></g><rect width="662" height="31" x="120" y="325" style="fill:none;stroke:#000;stroke-width:1.31px"/></g><g id="Month1" transform="matrix(0.5,0,0,0.958482,395.5,-219.884)"><rect width="662" height="31" x="120" y="325" style="fill:#f58518"/><g><text x="414.649" y="242.596" style="font-family:'ArialMT','Arial',sans-serif;font-size:24px" transform="matrix(2,0,0,1.04332,-463.68,96.364)">January</text></g><rect width="662" height="31" x="120" y="325" style="fill:none;stroke:#000;stroke-width:1.31px"/></g><g><text x="315.414" y="182.163" style="font-family:'ArialMT','Arial',sans-serif;font-size:20px" transform="matrix(1,0,0,1,-263.5,-67.3772)">Months</text></g><g id="Years" transform="matrix(0.5,0,0,0.958482,64.5,-256.306)"><rect width="662" height="31" x="120" y="325" style="fill:#4c78a8"/><g><text x="362.604" y="242.596" style="font-family:'ArialMT','Arial',sans-serif;font-size:24px" transform="matrix(2,0,0,1.04332,-327.598,93.3838)">1969</text></g><rect width="662" height="31" x="120" y="325" style="fill:none;stroke:#000;stroke-width:1.31px"/></g><g id="Years1" transform="matrix(0.5,0,0,0.958482,395.5,-256.306)"><rect width="662" height="31" x="120" y="325" style="fill:#4c78a8"/><g><text x="369.104" y="242.596" style="font-family:'ArialMT','Arial',sans-serif;font-size:24px" transform="matrix(2,0,0,1.04332,-340.598,96.364)">1970</text></g><rect width="662" height="31" x="120" y="325" style="fill:none;stroke:#000;stroke-width:1.31px"/></g><g><text x="59.59" y="301.788" style="font-family:'ArialMT','Arial',sans-serif;font-size:20px" transform="matrix(1,0,0,1,7.5,-225.3)">Y<tspan x="71.094 82.217" y="301.788 301.788">ea</tspan>rs</text></g><g transform="matrix(0.5,0,0,0.5,243,-92.6746)"><circle cx="425" cy="228" r="7" style="stroke:#000;stroke-width:4px"/></g></svg>