<svg width="750" height="179" viewBox="0 0 750 179" fill="none" xmlns="http://www.w3.org/2000/svg">
<path d="M8.02148 0.5H741.979C746.132 0.5 749.5 3.86753 749.5 8.02148V170.627C749.5 174.781 746.132 178.148 741.979 178.148H8.02148C3.86766 178.148 0.500198 174.781 0.5 170.627V8.02148C0.5 3.9972 3.66049 0.711 7.63477 0.509766L8.02148 0.5Z" fill="#1A1A1A"/>
<path d="M8.02148 0.5H741.979C746.132 0.5 749.5 3.86753 749.5 8.02148V170.627C749.5 174.781 746.132 178.148 741.979 178.148H8.02148C3.86766 178.148 0.500198 174.781 0.5 170.627V8.02148C0.5 3.9972 3.66049 0.711 7.63477 0.509766L8.02148 0.5Z" stroke="#333333"/>
<path d="M411.85 62.7812H114.784V87.4136H411.85V62.7812Z" fill="#2EAFFF"/>
<path d="M710 62.7812H412.836V87.4136H710V62.7812Z" fill="#2EAFFF"/>
<path d="M64.9407 120.851C68.1134 120.851 70.4584 121.996 70.4584 125.844C70.4584 129.707 68.1134 130.852 64.9407 130.852H62.2095V120.851H64.9407ZM64.8718 122.147H63.782V129.555H64.8718C66.8719 129.555 68.8307 129.141 68.8307 125.844C68.8307 122.561 66.8719 122.147 64.8718 122.147ZM71.5581 128.851C71.5581 127.044 73.6824 126.562 76.5654 126.258V126.106C76.5654 124.796 75.8757 124.355 74.9653 124.355C73.9721 124.355 73.4065 124.865 73.3514 125.775H71.903C72.0271 124.203 73.3238 123.251 75.0204 123.251C76.9378 123.251 78.0414 124.175 78.0138 126.396C78.0138 126.575 77.9862 127.858 77.9862 128.176C77.9862 129.279 78.0552 130.189 78.1931 130.852H76.8137C76.7585 130.562 76.7171 130.341 76.6895 129.872C76.2481 130.617 75.4067 131.031 74.2066 131.031C72.703 131.031 71.5581 130.203 71.5581 128.851ZM76.6344 127.32C74.3307 127.541 73.1169 127.858 73.1169 128.824C73.1169 129.5 73.6548 129.927 74.5239 129.927C75.7102 129.927 76.6344 129.334 76.6344 127.858V127.32ZM79.3459 133.266V132.121H79.9114C80.6839 132.121 81.015 132.065 81.3736 131.003L81.4288 130.838L78.7527 123.43H80.3391L82.1323 128.962L83.8841 123.43H85.3739L82.753 131.017C82.1461 132.769 81.7047 133.266 80.0356 133.266H79.3459ZM90.5265 125.499C90.3196 124.741 89.6851 124.437 88.8437 124.437C88.1402 124.437 87.3815 124.727 87.3815 125.334C87.3815 125.886 87.7401 126.12 88.416 126.258L89.4782 126.465C90.8852 126.741 92.1129 127.224 92.1129 128.672C92.1129 130.176 90.7059 131.031 88.9954 131.031C87.1194 131.031 85.9745 129.941 85.7952 128.548H87.2573C87.4505 129.389 88.0022 129.886 89.0368 129.886C89.961 129.886 90.6783 129.5 90.6783 128.838C90.6783 128.148 90.03 127.872 89.2575 127.72L88.1402 127.5C87.0228 127.279 85.9745 126.782 85.9745 125.389C85.9745 124.079 87.3539 123.279 88.9816 123.279C90.4714 123.279 91.6715 124.065 91.9473 125.499H90.5265Z" fill="#F2F2F2"/>
<path d="M58.0917 105.23L55.4295 96.8161V105.23H53.8845V95.2297H56.4089L58.9056 103.396L61.4023 95.2297H63.9267V105.23H62.3817V96.8161L59.7194 105.23H58.0917ZM72.6958 101.547C72.6958 104.223 70.8474 105.41 69.0818 105.41C67.3299 105.41 65.4815 104.223 65.4815 101.547C65.4815 98.8576 67.3299 97.6713 69.0818 97.6713C70.8474 97.6713 72.6958 98.8576 72.6958 101.547ZM69.0818 104.196C70.1715 104.196 71.1785 103.354 71.1785 101.547C71.1785 99.699 70.1715 98.8852 69.0818 98.8852C68.0058 98.8852 66.9989 99.6714 66.9989 101.547C66.9989 103.382 68.0058 104.196 69.0818 104.196ZM75.5625 98.8852C75.9901 98.1541 76.735 97.6713 77.8937 97.6713C79.687 97.6713 80.3767 98.83 80.3767 100.554V105.23H78.9421V100.94C78.9421 99.8646 78.7628 98.8714 77.4109 98.8714C76.1695 98.8714 75.5625 99.768 75.5625 101.244V105.23H74.1279V97.8092H75.5625V98.8852ZM82.4597 95.9056H83.8943V97.8092H85.3565V98.899H83.8943V103.134C83.8943 103.892 84.0184 104.086 84.7357 104.086H85.3427V105.23H84.2943C82.7908 105.23 82.4597 104.858 82.4597 103.327V98.899H81.3286V97.8092H82.4597V95.9056ZM88.3194 98.8852C88.747 98.1541 89.4919 97.6713 90.6506 97.6713C92.4438 97.6713 93.1335 98.83 93.1335 100.554V105.23H91.699V100.94C91.699 99.8646 91.5196 98.8714 90.1678 98.8714C88.9263 98.8714 88.3194 99.768 88.3194 101.244V105.23H86.8848V95.2297H88.3194V98.8852ZM99.1479 99.8784C98.941 99.1197 98.3064 98.8162 97.465 98.8162C96.7615 98.8162 96.0028 99.1059 96.0028 99.7128C96.0028 100.265 96.3615 100.499 97.0374 100.637L98.0995 100.844C99.5065 101.12 100.734 101.603 100.734 103.051C100.734 104.555 99.3272 105.41 97.6167 105.41C95.7407 105.41 94.5958 104.32 94.4165 102.927H95.8787C96.0718 103.768 96.6236 104.265 97.6581 104.265C98.5823 104.265 99.2996 103.879 99.2996 103.217C99.2996 102.527 98.6513 102.251 97.8788 102.099L96.7615 101.878C95.6442 101.658 94.5958 101.161 94.5958 99.768C94.5958 98.4576 95.9752 97.6575 97.6029 97.6575C99.0927 97.6575 100.293 98.4438 100.569 99.8784H99.1479Z" fill="#F2F2F2"/>
<path d="M60.2785 69.6165L62.8993 74.3065L65.5754 69.6165H67.3135L63.6442 75.741V79.6172H62.0717V75.7135L58.5266 69.6165H60.2785ZM72.0858 77.4377H73.5342C73.1893 78.6654 72.0858 79.7965 70.196 79.7965C67.7958 79.7965 66.4992 78.0447 66.4992 75.8928C66.4992 73.5892 68.0441 72.058 70.1546 72.058C72.4444 72.058 73.7825 73.934 73.6307 76.348H67.9751C68.1131 77.7136 68.9821 78.5688 70.1408 78.5688C71.1754 78.5688 71.7823 78.1412 72.0858 77.4377ZM68.0027 75.2169H72.141C72.0996 74.1133 71.3271 73.2305 70.1408 73.2305C69.0235 73.2305 68.1959 73.8099 68.0027 75.2169ZM74.5294 77.617C74.5294 75.81 76.6537 75.3272 79.5367 75.0237V74.872C79.5367 73.5616 78.847 73.1202 77.9365 73.1202C76.9434 73.1202 76.3778 73.6305 76.3226 74.541H74.8743C74.9984 72.9684 76.295 72.0166 77.9917 72.0166C79.9091 72.0166 81.0126 72.9408 80.985 75.1617C80.985 75.341 80.9575 76.6239 80.9575 76.9411C80.9575 78.0447 81.0264 78.9551 81.1644 79.6172H79.785C79.7298 79.3275 79.6884 79.1068 79.6608 78.6378C79.2194 79.3827 78.378 79.7965 77.1779 79.7965C75.6743 79.7965 74.5294 78.9689 74.5294 77.617ZM79.6056 76.0859C77.302 76.3066 76.0881 76.6239 76.0881 77.5895C76.0881 78.2654 76.6261 78.693 77.4951 78.693C78.6814 78.693 79.6056 78.0998 79.6056 76.6239V76.0859ZM86.6193 73.6719C86.3572 73.6443 86.1089 73.6305 85.8744 73.6305C84.7709 73.6305 84.1915 74.1685 84.1915 75.7272V79.6172H82.7569V72.196H84.1639V73.5064C84.5502 72.665 85.2951 72.1822 86.2193 72.1684C86.3434 72.1684 86.4952 72.1684 86.6193 72.1822V73.6719ZM91.9083 74.2651C91.7014 73.5064 91.0668 73.2029 90.2254 73.2029C89.5219 73.2029 88.7632 73.4926 88.7632 74.0995C88.7632 74.6513 89.1219 74.8858 89.7978 75.0237L90.8599 75.2307C92.2669 75.5065 93.4946 75.9893 93.4946 77.4377C93.4946 78.9413 92.0876 79.7965 90.3771 79.7965C88.5011 79.7965 87.3562 78.7068 87.1769 77.3136H88.6391C88.8322 78.155 89.3839 78.6516 90.4185 78.6516C91.3427 78.6516 92.06 78.2654 92.06 77.6032C92.06 76.9135 91.4117 76.6377 90.6392 76.4859L89.5219 76.2652C88.4046 76.0445 87.3562 75.5479 87.3562 74.1547C87.3562 72.8443 88.7356 72.0442 90.3633 72.0442C91.8531 72.0442 93.0532 72.8305 93.3291 74.2651H91.9083Z" fill="#F2F2F2"/>
<path d="M250.526 79.6172V71.8925H248.25V70.9131C249.699 70.8579 250.416 70.7062 250.94 69.6165H251.975V79.6172H250.526ZM259.483 74.9962C259.028 75.7135 258.186 76.279 256.959 76.279C255.11 76.279 253.689 74.9134 253.689 72.8581C253.689 70.9407 255.124 69.4371 257.262 69.4371C259.8 69.4371 260.959 71.2855 260.959 74.2927C260.959 77.148 259.91 79.7965 257.014 79.7965C255 79.7965 254.034 78.5137 253.869 77.2032H255.372C255.51 78.1412 256.186 78.6378 257.152 78.6378C258.6 78.6378 259.428 77.1894 259.483 74.9962ZM257.276 70.582C256.048 70.582 255.193 71.4649 255.193 72.8167C255.193 74.1685 256.048 75.0789 257.262 75.0789C258.476 75.0789 259.331 74.1685 259.331 72.8167C259.331 71.4649 258.503 70.582 257.276 70.582ZM263.667 74.2375C264.123 73.5202 264.95 72.9546 266.192 72.9546C268.04 72.9546 269.461 74.3202 269.461 76.3618C269.461 78.293 268.026 79.7965 265.888 79.7965C263.35 79.7965 262.191 77.9481 262.191 74.941C262.191 72.0856 263.226 69.4371 266.136 69.4371C268.15 69.4371 269.116 70.72 269.282 72.0304H267.778C267.64 71.0924 266.95 70.582 265.999 70.582C264.536 70.582 263.723 72.0442 263.667 74.2375ZM265.874 78.6378C267.088 78.6378 267.957 77.755 267.957 76.417C267.957 75.0651 267.102 74.1547 265.888 74.1547C264.661 74.1547 263.805 75.0651 263.805 76.417C263.805 77.7688 264.647 78.6378 265.874 78.6378ZM276.402 74.9962C275.947 75.7135 275.106 76.279 273.878 76.279C272.029 76.279 270.609 74.9134 270.609 72.8581C270.609 70.9407 272.043 69.4371 274.181 69.4371C276.719 69.4371 277.878 71.2855 277.878 74.2927C277.878 77.148 276.83 79.7965 273.933 79.7965C271.919 79.7965 270.954 78.5137 270.788 77.2032H272.292C272.429 78.1412 273.105 78.6378 274.071 78.6378C275.519 78.6378 276.347 77.1894 276.402 74.9962ZM274.195 70.582C272.967 70.582 272.112 71.4649 272.112 72.8167C272.112 74.1685 272.967 75.0789 274.181 75.0789C275.395 75.0789 276.25 74.1685 276.25 72.8167C276.25 71.4649 275.423 70.582 274.195 70.582Z" fill="black"/>
<path d="M549.035 79.6172V71.8925H546.759V70.9131C548.207 70.8579 548.924 70.7062 549.449 69.6165H550.483V79.6172H549.035ZM557.991 74.9962C557.536 75.7135 556.695 76.279 555.467 76.279C553.619 76.279 552.198 74.9134 552.198 72.8581C552.198 70.9407 553.632 69.4371 555.771 69.4371C558.309 69.4371 559.467 71.2855 559.467 74.2927C559.467 77.148 558.419 79.7965 555.522 79.7965C553.508 79.7965 552.543 78.5137 552.377 77.2032H553.881C554.019 78.1412 554.695 78.6378 555.66 78.6378C557.109 78.6378 557.936 77.1894 557.991 74.9962ZM555.784 70.582C554.557 70.582 553.701 71.4649 553.701 72.8167C553.701 74.1685 554.557 75.0789 555.771 75.0789C556.984 75.0789 557.84 74.1685 557.84 72.8167C557.84 71.4649 557.012 70.582 555.784 70.582ZM560.148 69.6165H567.197V70.9269C564.7 73.1202 563.238 75.9066 563.017 79.6172H561.334C561.528 76.0583 563.197 73.065 565.611 70.9269H560.148V69.6165ZM567.678 74.6099C567.678 71.4925 568.947 69.4371 571.609 69.4371C574.285 69.4371 575.54 71.4925 575.54 74.6099C575.54 77.7412 574.285 79.7965 571.609 79.7965C568.947 79.7965 567.678 77.7412 567.678 74.6099ZM574.023 74.6099C574.023 71.9615 573.126 70.582 571.609 70.582C570.106 70.582 569.195 71.9615 569.195 74.6099C569.195 77.2722 570.106 78.6378 571.609 78.6378C573.126 78.6378 574.023 77.2722 574.023 74.6099Z" fill="black"/>
<path d="M411.85 88.3984H114.784V113.031H411.85V88.3984Z" fill="#FF560D"/>
<path d="M710 88.3984H412.836V113.031H710V88.3984Z" fill="#FF560D"/>
<path d="M233.353 95.2336C236.525 95.2336 238.87 96.3786 238.87 100.227C238.87 104.089 236.525 105.234 233.353 105.234H230.622V95.2336H233.353ZM233.284 96.5303H232.194V103.938H233.284C235.284 103.938 237.243 103.524 237.243 100.227C237.243 96.9441 235.284 96.5303 233.284 96.5303ZM245.623 103.055H247.071C246.726 104.283 245.623 105.414 243.733 105.414C241.333 105.414 240.036 103.662 240.036 101.51C240.036 99.2063 241.581 97.6752 243.691 97.6752C245.981 97.6752 247.319 99.5512 247.168 101.965H241.512C241.65 103.331 242.519 104.186 243.678 104.186C244.712 104.186 245.319 103.758 245.623 103.055ZM241.54 100.834H245.678C245.636 99.7305 244.864 98.8477 243.678 98.8477C242.56 98.8477 241.733 99.4271 241.54 100.834ZM254.932 100.324H253.498C253.346 99.4822 252.587 98.9029 251.649 98.9029C250.615 98.9029 249.663 99.7167 249.663 101.524C249.663 103.358 250.629 104.186 251.649 104.186C252.56 104.186 253.36 103.648 253.553 102.765H255.001C254.712 104.324 253.263 105.414 251.622 105.414C249.484 105.414 248.132 103.772 248.132 101.538C248.132 99.3305 249.525 97.6752 251.718 97.6752C253.415 97.6752 254.712 98.8753 254.932 100.324ZM261.491 103.055H262.94C262.595 104.283 261.491 105.414 259.601 105.414C257.201 105.414 255.905 103.662 255.905 101.51C255.905 99.2063 257.45 97.6752 259.56 97.6752C261.85 97.6752 263.188 99.5512 263.036 101.965H257.381C257.519 103.331 258.388 104.186 259.546 104.186C260.581 104.186 261.188 103.758 261.491 103.055ZM257.408 100.834H261.546C261.505 99.7305 260.733 98.8477 259.546 98.8477C258.429 98.8477 257.601 99.4271 257.408 100.834ZM265.878 105.234H264.444V97.8131H265.878V98.8891C266.306 98.158 267.009 97.6752 268.071 97.6752C269.216 97.6752 269.892 98.158 270.223 98.9856C270.844 98.0614 271.713 97.6752 272.679 97.6752C274.417 97.6752 275.093 98.8339 275.093 100.558V105.234H273.658V100.944C273.658 99.8685 273.493 98.8753 272.196 98.8753C271.065 98.8753 270.485 99.7719 270.485 101.248V105.234H269.051V100.944C269.051 99.8685 268.885 98.8753 267.589 98.8753C266.444 98.8753 265.878 99.7719 265.878 101.248V105.234ZM278.339 95.2336V98.9029C278.794 98.1442 279.566 97.6752 280.656 97.6752C282.38 97.6752 283.856 99.1236 283.856 101.538C283.856 103.965 282.38 105.414 280.656 105.414C279.566 105.414 278.794 104.945 278.339 104.186V105.234H276.904V95.2336H278.339ZM280.325 104.214C281.511 104.214 282.325 103.207 282.325 101.538C282.325 99.8685 281.511 98.8753 280.325 98.8753C279.222 98.8753 278.284 99.7029 278.284 101.538C278.284 103.372 279.222 104.214 280.325 104.214ZM290.467 103.055H291.915C291.57 104.283 290.467 105.414 288.577 105.414C286.177 105.414 284.88 103.662 284.88 101.51C284.88 99.2063 286.425 97.6752 288.536 97.6752C290.826 97.6752 292.164 99.5512 292.012 101.965H286.356C286.494 103.331 287.363 104.186 288.522 104.186C289.557 104.186 290.163 103.758 290.467 103.055ZM286.384 100.834H290.522C290.481 99.7305 289.708 98.8477 288.522 98.8477C287.405 98.8477 286.577 99.4271 286.384 100.834ZM297.282 99.2891C297.02 99.2615 296.771 99.2477 296.537 99.2477C295.433 99.2477 294.854 99.7857 294.854 101.344V105.234H293.419V97.8131H294.826V99.1236C295.213 98.2821 295.957 97.7993 296.882 97.7856C297.006 97.7856 297.158 97.7856 297.282 97.7993V99.2891Z" fill="black"/>
<path d="M536.083 102.007H537.6C537.6 103.4 538.331 104.131 539.366 104.131C540.29 104.131 541.063 103.565 541.063 101.951V95.2336H542.635V101.965C542.635 104.131 541.435 105.414 539.366 105.414C537.283 105.414 536.083 104.172 536.083 102.007ZM544.201 103.234C544.201 101.427 546.325 100.944 549.208 100.641V100.489C549.208 99.1788 548.519 98.7373 547.608 98.7373C546.615 98.7373 546.049 99.2477 545.994 100.158H544.546C544.67 98.5856 545.967 97.6338 547.663 97.6338C549.581 97.6338 550.684 98.558 550.657 100.779C550.657 100.958 550.629 102.241 550.629 102.558C550.629 103.662 550.698 104.572 550.836 105.234H549.457C549.401 104.945 549.36 104.724 549.332 104.255C548.891 105 548.05 105.414 546.85 105.414C545.346 105.414 544.201 104.586 544.201 103.234ZM549.277 101.703C546.974 101.924 545.76 102.241 545.76 103.207C545.76 103.883 546.298 104.31 547.167 104.31C548.353 104.31 549.277 103.717 549.277 102.241V101.703ZM553.863 98.8891C554.291 98.158 555.036 97.6752 556.194 97.6752C557.988 97.6752 558.677 98.8339 558.677 100.558V105.234H557.243V100.944C557.243 99.8685 557.063 98.8753 555.712 98.8753C554.47 98.8753 553.863 99.7719 553.863 101.248V105.234H552.429V97.8131H553.863V98.8891ZM565.05 104.186C564.623 104.931 563.905 105.414 562.788 105.414C561.036 105.414 560.36 104.324 560.36 102.531V97.8131H561.795V102.144C561.795 103.22 561.974 104.2 563.271 104.2C564.471 104.2 565.064 103.303 565.064 101.841V97.8131H566.499V105.234H565.05V104.186ZM567.977 103.234C567.977 101.427 570.101 100.944 572.984 100.641V100.489C572.984 99.1788 572.295 98.7373 571.384 98.7373C570.391 98.7373 569.825 99.2477 569.77 100.158H568.322C568.446 98.5856 569.743 97.6338 571.439 97.6338C573.357 97.6338 574.46 98.558 574.433 100.779C574.433 100.958 574.405 102.241 574.405 102.558C574.405 103.662 574.474 104.572 574.612 105.234H573.233C573.177 104.945 573.136 104.724 573.108 104.255C572.667 105 571.826 105.414 570.626 105.414C569.122 105.414 567.977 104.586 567.977 103.234ZM573.053 101.703C570.75 101.924 569.536 102.241 569.536 103.207C569.536 103.883 570.074 104.31 570.943 104.31C572.129 104.31 573.053 103.717 573.053 102.241V101.703ZM580.067 99.2891C579.805 99.2615 579.557 99.2477 579.322 99.2477C578.219 99.2477 577.639 99.7857 577.639 101.344V105.234H576.205V97.8131H577.612V99.1236C577.998 98.2821 578.743 97.7993 579.667 97.7856C579.791 97.7856 579.943 97.7856 580.067 97.7993V99.2891ZM580.83 107.648V106.503H581.395C582.168 106.503 582.499 106.448 582.858 105.386L582.913 105.221L580.237 97.8131H581.823L583.616 103.345L585.368 97.8131H586.858L584.237 105.4C583.63 107.152 583.189 107.648 581.52 107.648H580.83Z" fill="black"/>
<path d="M411.85 114.016H114.784V138.648H411.85V114.016Z" fill="#15A14F"/>
<path d="M710 114.016H412.836V138.648H710V114.016Z" fill="#15A14F"/>
<path d="M262.844 128.051C262.844 126.686 261.685 126.231 260.14 126.231H259.795V124.975H260.085C261.74 124.975 262.582 124.479 262.582 123.375C262.582 122.327 261.74 121.816 260.733 121.816C259.464 121.816 258.761 122.589 258.623 123.748H257.188C257.34 121.913 258.636 120.672 260.802 120.672C262.499 120.672 264.085 121.389 264.085 123.251C264.085 124.258 263.506 125.113 262.526 125.541C263.878 125.996 264.347 126.989 264.347 128.024C264.347 130.052 262.623 131.031 260.664 131.031C258.333 131.031 257.174 129.541 257.05 127.831H258.485C258.636 128.989 259.326 129.872 260.692 129.872C261.933 129.872 262.844 129.21 262.844 128.051ZM267.282 130.852V123.127H265.006V122.147C266.454 122.092 267.172 121.941 267.696 120.851H268.73V130.852H267.282Z" fill="black"/>
<path d="M554.979 125.844C554.979 122.727 556.249 120.672 558.911 120.672C561.587 120.672 562.842 122.727 562.842 125.844C562.842 128.976 561.587 131.031 558.911 131.031C556.249 131.031 554.979 128.976 554.979 125.844ZM561.325 125.844C561.325 123.196 560.428 121.816 558.911 121.816C557.407 121.816 556.497 123.196 556.497 125.844C556.497 128.507 557.407 129.872 558.911 129.872C560.428 129.872 561.325 128.507 561.325 125.844ZM565.824 130.852V123.127H563.548V122.147C564.997 122.092 565.714 121.941 566.238 120.851H567.273V130.852H565.824Z" fill="black"/>
<path d="M53.9607 54H52.3882V43.9993H53.9607V54ZM57.4701 47.6547C57.8978 46.9236 58.6426 46.4408 59.8014 46.4408C61.5946 46.4408 62.2843 47.5995 62.2843 49.3238V54H60.8497V49.71C60.8497 48.6341 60.6704 47.6409 59.3186 47.6409C58.0771 47.6409 57.4701 48.5375 57.4701 50.0135V54H56.0356V46.5788H57.4701V47.6547ZM68.2986 48.6479C68.0917 47.8892 67.4572 47.5857 66.6158 47.5857C65.9123 47.5857 65.1536 47.8754 65.1536 48.4824C65.1536 49.0341 65.5122 49.2686 66.1881 49.4066L67.2503 49.6135C68.6573 49.8894 69.885 50.3721 69.885 51.8205C69.885 53.3241 68.478 54.1793 66.7675 54.1793C64.8915 54.1793 63.7466 53.0896 63.5673 51.6964H65.0294C65.2225 52.5378 65.7743 53.0344 66.8089 53.0344C67.7331 53.0344 68.4504 52.6482 68.4504 51.9861C68.4504 51.2964 67.802 51.0205 67.0296 50.8687L65.9123 50.648C64.7949 50.4273 63.7466 49.9307 63.7466 48.5375C63.7466 47.2271 65.126 46.427 66.7537 46.427C68.2435 46.427 69.4435 47.2133 69.7194 48.6479H68.2986ZM71.6146 44.6752H73.0492V46.5788H74.5114V47.6685H73.0492V51.9033C73.0492 52.662 73.1733 52.8551 73.8906 52.8551H74.4976V54H73.4492C71.9457 54 71.6146 53.6276 71.6146 52.0964V47.6685H70.4835V46.5788H71.6146V44.6752ZM75.4636 51.9999C75.4636 50.1928 77.5879 49.71 80.4709 49.4066V49.2548C80.4709 47.9444 79.7812 47.503 78.8707 47.503C77.8776 47.503 77.312 48.0134 77.2568 48.9238H75.8085C75.9326 47.3512 77.2292 46.3994 78.9259 46.3994C80.8433 46.3994 81.9468 47.3236 81.9192 49.5445C81.9192 49.7238 81.8917 51.0067 81.8917 51.3239C81.8917 52.4275 81.9606 53.3379 82.0986 54H80.7192C80.664 53.7103 80.6226 53.4896 80.595 53.0206C80.1536 53.7655 79.3122 54.1793 78.1121 54.1793C76.6085 54.1793 75.4636 53.3517 75.4636 51.9999ZM80.5398 50.4687C78.2362 50.6894 77.0223 51.0067 77.0223 51.9723C77.0223 52.6482 77.5603 53.0758 78.4293 53.0758C79.6156 53.0758 80.5398 52.4826 80.5398 51.0067V50.4687ZM85.1257 47.6547C85.5533 46.9236 86.2982 46.4408 87.4569 46.4408C89.2502 46.4408 89.9399 47.5995 89.9399 49.3238V54H88.5053V49.71C88.5053 48.6341 88.326 47.6409 86.9741 47.6409C85.7327 47.6409 85.1257 48.5375 85.1257 50.0135V54H83.6911V46.5788H85.1257V47.6547ZM92.0229 44.6752H93.4575V46.5788H94.9197V47.6685H93.4575V51.9033C93.4575 52.662 93.5816 52.8551 94.2989 52.8551H94.9059V54H93.8575C92.354 54 92.0229 53.6276 92.0229 52.0964V47.6685H90.8918V46.5788H92.0229V44.6752ZM100.534 48.6479C100.327 47.8892 99.6929 47.5857 98.8514 47.5857C98.1479 47.5857 97.3892 47.8754 97.3892 48.4824C97.3892 49.0341 97.7479 49.2686 98.4238 49.4066L99.4859 49.6135C100.893 49.8894 102.121 50.3721 102.121 51.8205C102.121 53.3241 100.714 54.1793 99.0032 54.1793C97.1272 54.1793 95.9822 53.0896 95.8029 51.6964H97.2651C97.4582 52.5378 98.01 53.0344 99.0445 53.0344C99.9687 53.0344 100.686 52.6482 100.686 51.9861C100.686 51.2964 100.038 51.0205 99.2652 50.8687L98.1479 50.648C97.0306 50.4273 95.9822 49.9307 95.9822 48.5375C95.9822 47.2271 97.3617 46.427 98.9894 46.427C100.479 46.427 101.679 47.2133 101.955 48.6479H100.534Z" fill="#F2F2F2"/>
<path d="M412.441 53.8151C414.835 53.8151 416.776 51.8741 416.776 49.4798C416.776 47.0855 414.835 45.1445 412.441 45.1445C410.046 45.1445 408.105 47.0855 408.105 49.4798C408.105 51.8741 410.046 53.8151 412.441 53.8151Z" fill="#D1D1D1"/>
<path d="M699.063 43.0742L706.453 49.4786L699.063 55.883" stroke="#D1D1D1" stroke-width="0.985294" stroke-miterlimit="10"/>
<path d="M119.021 49.4805H705.96" stroke="#D1D1D1" stroke-width="0.985294" stroke-miterlimit="10"/>
<path d="M125.72 55.883L118.331 49.4786L125.72 43.0742" stroke="#D1D1D1" stroke-width="0.985294" stroke-miterlimit="10"/>
</svg>
