<svg xmlns="http://www.w3.org/2000/svg" xmlns:xlink="http://www.w3.org/1999/xlink" x="0" y="0" version="1.1" viewBox="0 0 680 103" style="enable-background:new 0 0 680 103" xml:space="preserve"><style type="text/css">.st3{fill-rule:evenodd;clip-rule:evenodd;fill:#d1d1d1}.st6{fill:#0080ff}.st7{fill:#ff560d}.st9{fill:#f5f5f5}.st10,.st11{fill-rule:evenodd;clip-rule:evenodd;fill:#15a14f}.st11{fill:none;stroke:#d1d1d1;stroke-miterlimit:10}.st15{font-family:&apos;SuisseIntl-Book&apos;}.st16{font-size:14px}</style><g id="boxes"><rect width="301.5" height="25" x="75.9" y="26" class="st6"/><rect width="301.6" height="25" x="378.4" y="26" class="st6"/><rect width="74.9" height="25" x="0" y="78" class="st9"/><text class="st15 st16" transform="matrix(1 0 0 1 21.421 94.8783)">Days</text><rect width="74.9" height="25" x="0" y="52" class="st9"/><text class="st15 st16" transform="matrix(1 0 0 1 12.9713 68.8758)">Months</text><rect width="74.9" height="25" x="0" y="26" class="st9"/><text class="st15 st16" transform="matrix(1 0 0 1 18.8307 42.8786)">Years</text><text class="st15 st16" transform="matrix(1 0 0 1 211.2746 42.8786)">1969</text><text class="st15 st16" transform="matrix(1 0 0 1 514.2384 42.8786)">1970</text><rect width="301.5" height="25" x="75.9" y="52" class="st7"/><rect width="301.6" height="25" x="378.4" y="52" class="st7"/><text class="st15 st16" transform="matrix(1 0 0 1 192.3469 68.8786)">December</text><text class="st15 st16" transform="matrix(1 0 0 1 503.3331 68.8786)">January</text><rect width="301.5" height="25" x="75.9" y="78" class="st10"/><rect width="301.6" height="25" x="378.4" y="78" class="st10"/><text class="st15 st16" transform="matrix(1 0 0 1 219.968 94.8785)">31</text><text class="st15 st16" transform="matrix(1 0 0 1 522.0499 94.8785)">01</text><text class="st15 st16" transform="matrix(1 0 0 1 11.4532 16.8783)">Instants</text><circle cx="378" cy="12.5" r="4.4" class="st3"/><g><polyline points="668.9 6 676.4 12.5 668.9 19" class="st11"/><line x1="80.2" x2="675.9" y1="12.5" y2="12.5" class="st11"/><polyline points="87 19 79.5 12.5 87 6" class="st11"/></g></g></svg>