<?xml version="1.0" encoding="utf-8"?>
<!-- Generator: Adobe Illustrator 26.0.2, SVG Export Plug-In . SVG Version: 6.00 Build 0)  -->
<svg version="1.1" xmlns="http://www.w3.org/2000/svg" xmlns:xlink="http://www.w3.org/1999/xlink" x="0px" y="0px"
	 viewBox="0 0 680 103" style="enable-background:new 0 0 680 103;" xml:space="preserve">
<style type="text/css">
	.st0{fill:#B0B0B0;}
	.st1{fill-rule:evenodd;clip-rule:evenodd;fill:#F5F5F5;}
	.st2{fill:#2EAFFF;}
	.st3{fill-rule:evenodd;clip-rule:evenodd;fill:#D1D1D1;}
	.st4{fill:#1AFF61;}
	.st5{fill-rule:evenodd;clip-rule:evenodd;}
	.st6{fill:#0080FF;}
	.st7{fill:#FF560D;}
	.st8{fill:#FFFFFF;}
	.st9{fill:#F5F5F5;}
	.st10{fill-rule:evenodd;clip-rule:evenodd;fill:#15A14F;}
	.st11{fill-rule:evenodd;clip-rule:evenodd;fill:none;stroke:#D1D1D1;stroke-miterlimit:10;}
	.st12{fill:#D1D1D1;}
	.st13{fill:#FFEF00;}
	.st14{fill-rule:evenodd;clip-rule:evenodd;fill:none;}
	.st15{font-family:'SuisseIntl-Book';}
	.st16{font-size:14px;}
	.st17{fill:#FFEE00;}
	.st18{fill:#FFCC00;}
	.st19{fill:#00C770;}
	.st20{fill:#816DFF;}
	.st21{fill:#FF5E00;}
</style>
<g id="Ebene_3">
</g>
<g id="boxes">
	<rect x="75.9" y="26" class="st6" width="301.5" height="25"/>
	<rect x="378.4" y="26" class="st6" width="301.6" height="25"/>
	<rect x="0" y="78" class="st9" width="74.9" height="25"/>
	<text transform="matrix(1 0 0 1 21.421 94.8783)" class="st15 st16">Days</text>
	<rect x="0" y="52" class="st9" width="74.9" height="25"/>
	<text transform="matrix(1 0 0 1 12.9713 68.8758)" class="st15 st16">Months</text>
	<rect x="0" y="26" class="st9" width="74.9" height="25"/>
	<text transform="matrix(1 0 0 1 18.8307 42.8786)" class="st15 st16">Years</text>
	<text transform="matrix(1 0 0 1 211.2746 42.8786)" class="st15 st16">1969</text>
	<text transform="matrix(1 0 0 1 514.2384 42.8786)" class="st15 st16">1970</text>
	<rect x="75.9" y="52" class="st7" width="301.5" height="25"/>
	<rect x="378.4" y="52" class="st7" width="301.6" height="25"/>
	<text transform="matrix(1 0 0 1 192.3469 68.8786)" class="st15 st16">December</text>
	<text transform="matrix(1 0 0 1 503.3331 68.8786)" class="st15 st16">January</text>
	<rect x="75.9" y="78" class="st10" width="301.5" height="25"/>
	<rect x="378.4" y="78" class="st10" width="301.6" height="25"/>
	<text transform="matrix(1 0 0 1 219.968 94.8785)" class="st15 st16">31</text>
	<text transform="matrix(1 0 0 1 522.0499 94.8785)" class="st15 st16">01</text>
	<text transform="matrix(1 0 0 1 11.4532 16.8783)" class="st15 st16">Instants</text>
	<circle class="st3" cx="378" cy="12.5" r="4.4"/>
	<g>
		<polyline class="st11" points="668.9,6 676.4,12.5 668.9,19 		"/>
		<line class="st11" x1="80.2" y1="12.5" x2="675.9" y2="12.5"/>
		<polyline class="st11" points="87,19 79.5,12.5 87,6 		"/>
	</g>
</g>
<g id="green">
</g>
<g id="blue">
</g>
<g id="orange">
</g>
<g id="text">
</g>
</svg>
