<svg width="750" height="200" viewBox="0 0 750 200" fill="none" xmlns="http://www.w3.org/2000/svg">
<path d="M8.02148 0.5H741.979C746.132 0.5 749.5 3.86753 749.5 8.02148V191.229C749.5 195.382 746.132 198.75 741.979 198.75H8.02148C3.86759 198.75 0.500091 195.382 0.5 191.229V8.02148C0.5 3.9972 3.66049 0.711 7.63477 0.509766L8.02148 0.5Z" fill="#1A1A1A"/>
<path d="M8.02148 0.5H741.979C746.132 0.5 749.5 3.86753 749.5 8.02148V191.229C749.5 195.382 746.132 198.75 741.979 198.75H8.02148C3.86759 198.75 0.500091 195.382 0.5 191.229V8.02148C0.5 3.9972 3.66049 0.711 7.63477 0.509766L8.02148 0.5Z" stroke="#333333"/>
<path fill-rule="evenodd" clip-rule="evenodd" d="M112.319 46.4318L126.274 62.8637L109.843 46.4318L126.274 30L112.319 46.4318H707.524L693.569 30L710 46.4318L693.569 62.8637L707.524 46.4318H112.319Z" fill="#F2F2F2"/>
<path d="M112.319 46.4318L126.274 62.8637L109.843 46.4318L126.274 30L112.319 46.4318ZM112.319 46.4318H707.524M707.524 46.4318L693.569 30L710 46.4318L693.569 62.8637L707.524 46.4318Z" stroke="#F2F2F2" stroke-width="1.17383" stroke-miterlimit="1.5" stroke-linecap="round" stroke-linejoin="round"/>
<path d="M41.691 51.793V38.814H43.4085V51.793H41.691ZM46.2416 51.793V42.3907H47.6759V43.7276C48.3664 42.6947 49.3639 42.1782 50.6683 42.1782C51.2349 42.1782 51.7543 42.2815 52.2265 42.4881C52.7046 42.6888 53.0616 42.9544 53.2977 43.2849C53.5338 43.6154 53.6991 44.0079 53.7935 44.4624C53.8525 44.7575 53.882 45.274 53.882 46.0117V51.793H52.2884V46.0737C52.2884 45.4245 52.2265 44.9405 52.1025 44.6218C51.9786 44.2971 51.7572 44.0404 51.4385 43.8515C51.1257 43.6567 50.7568 43.5594 50.3319 43.5594C49.6531 43.5594 49.0658 43.7748 48.57 44.2057C48.0802 44.6365 47.8352 45.454 47.8352 46.658V51.793H46.2416ZM55.697 48.9865L57.2729 48.7386C57.3614 49.3701 57.6064 49.8541 58.0077 50.1905C58.415 50.5269 58.9816 50.6952 59.7075 50.6952C60.4394 50.6952 60.9824 50.5476 61.3366 50.2525C61.6907 49.9515 61.8678 49.6003 61.8678 49.1989C61.8678 48.8389 61.7114 48.5556 61.3985 48.349C61.1802 48.2074 60.6371 48.0273 59.7695 47.809C58.6009 47.5139 57.7893 47.2601 57.3349 47.0476C56.8863 46.8292 56.544 46.5311 56.3079 46.1534C56.0777 45.7697 55.9626 45.3477 55.9626 44.8874C55.9626 44.4683 56.057 44.0817 56.2459 43.7276C56.4407 43.3675 56.7033 43.0695 57.0338 42.8334C57.2817 42.6504 57.6182 42.497 58.0431 42.373C58.474 42.2432 58.9344 42.1782 59.4242 42.1782C60.162 42.1782 60.8083 42.2845 61.3631 42.497C61.9238 42.7094 62.337 42.9986 62.6026 43.3646C62.8682 43.7246 63.0512 44.2086 63.1515 44.8165L61.5933 45.029C61.5225 44.545 61.3159 44.1673 60.9736 43.8958C60.6371 43.6243 60.1591 43.4885 59.5393 43.4885C58.8075 43.4885 58.2851 43.6095 57.9723 43.8515C57.6595 44.0935 57.5031 44.3768 57.5031 44.7014C57.5031 44.908 57.568 45.0939 57.6978 45.2592C57.8277 45.4304 58.0313 45.572 58.3087 45.6842C58.4681 45.7432 58.9373 45.8789 59.7164 46.0914C60.8437 46.3924 61.6287 46.6403 62.0714 46.8351C62.52 47.024 62.8711 47.3014 63.1249 47.6673C63.3787 48.0332 63.5056 48.4877 63.5056 49.0307C63.5056 49.5619 63.3492 50.0636 63.0364 50.5358C62.7295 51.0021 62.2839 51.3651 61.6996 51.6248C61.1152 51.8786 60.4542 52.0054 59.7164 52.0054C58.4946 52.0054 57.5621 51.7517 56.9187 51.2441C56.2813 50.7365 55.874 49.9839 55.697 48.9865ZM68.8796 50.3676L69.1098 51.7753C68.6612 51.8697 68.2599 51.9169 67.9057 51.9169C67.3273 51.9169 66.8788 51.8254 66.56 51.6425C66.2413 51.4595 66.017 51.2205 65.8872 50.9253C65.7573 50.6243 65.6924 49.9957 65.6924 49.0396V43.6302H64.5238V42.3907H65.6924V40.0623L67.2772 39.1061V42.3907H68.8796V43.6302H67.2772V49.1281C67.2772 49.5826 67.3037 49.8747 67.3568 50.0046C67.4159 50.1344 67.5073 50.2377 67.6313 50.3145C67.7611 50.3912 67.9441 50.4296 68.1802 50.4296C68.3573 50.4296 68.5904 50.4089 68.8796 50.3676ZM76.582 50.6332C75.9918 51.1349 75.4222 51.489 74.8733 51.6956C74.3303 51.9022 73.746 52.0054 73.1204 52.0054C72.0875 52.0054 71.2936 51.7546 70.7388 51.2529C70.184 50.7453 69.9066 50.099 69.9066 49.314C69.9066 48.8537 70.0099 48.4346 70.2165 48.0569C70.429 47.6732 70.7034 47.3663 71.0398 47.1361C71.3822 46.9059 71.7658 46.7318 72.1908 46.6138C72.5036 46.5311 72.9758 46.4514 73.6073 46.3747C74.894 46.2213 75.8413 46.0383 76.4492 45.8258C76.4551 45.6074 76.4581 45.4687 76.4581 45.4097C76.4581 44.7605 76.3076 44.303 76.0066 44.0374C75.5993 43.6774 74.9943 43.4974 74.1916 43.4974C73.442 43.4974 72.8872 43.6302 72.5272 43.8958C72.1731 44.1555 71.9104 44.6188 71.7392 45.2858L70.1811 45.0733C70.3227 44.4063 70.5558 43.8692 70.8805 43.462C71.2051 43.0488 71.6743 42.733 72.2882 42.5147C72.902 42.2904 73.6132 42.1782 74.4218 42.1782C75.2245 42.1782 75.8767 42.2727 76.3784 42.4615C76.8801 42.6504 77.249 42.8895 77.4851 43.1787C77.7212 43.462 77.8864 43.822 77.9809 44.2588C78.034 44.5303 78.0605 45.0202 78.0605 45.7284V47.8532C78.0605 49.3347 78.093 50.2731 78.1579 50.6686C78.2287 51.0581 78.3645 51.4329 78.5652 51.793H76.9007C76.7355 51.4624 76.6292 51.0758 76.582 50.6332ZM76.4492 47.0741C75.8708 47.3102 75.0032 47.5109 73.8463 47.6762C73.1912 47.7706 72.7279 47.8768 72.4564 47.9949C72.1849 48.1129 71.9753 48.287 71.8278 48.5172C71.6802 48.7415 71.6064 48.9924 71.6064 49.2698C71.6064 49.6947 71.7658 50.0489 72.0845 50.3322C72.4091 50.6155 72.8813 50.7571 73.5011 50.7571C74.1149 50.7571 74.6608 50.6243 75.1389 50.3587C75.617 50.0872 75.9682 49.7183 76.1925 49.2521C76.3636 48.892 76.4492 48.3608 76.4492 47.6585V47.0741ZM80.5395 51.793V42.3907H81.9737V43.7276C82.6643 42.6947 83.6618 42.1782 84.9661 42.1782C85.5328 42.1782 86.0522 42.2815 86.5243 42.4881C87.0024 42.6888 87.3595 42.9544 87.5956 43.2849C87.8317 43.6154 87.9969 44.0079 88.0914 44.4624C88.1504 44.7575 88.1799 45.274 88.1799 46.0117V51.793H86.5863V46.0737C86.5863 45.4245 86.5243 44.9405 86.4004 44.6218C86.2764 44.2971 86.0551 44.0404 85.7364 43.8515C85.4236 43.6567 85.0547 43.5594 84.6297 43.5594C83.951 43.5594 83.3637 43.7748 82.8679 44.2057C82.378 44.6365 82.1331 45.454 82.1331 46.658V51.793H80.5395ZM94.1117 50.3676L94.3418 51.7753C93.8933 51.8697 93.4919 51.9169 93.1378 51.9169C92.5594 51.9169 92.1108 51.8254 91.7921 51.6425C91.4734 51.4595 91.2491 51.2205 91.1192 50.9253C90.9894 50.6243 90.9244 49.9957 90.9244 49.0396V43.6302H89.7558V42.3907H90.9244V40.0623L92.5092 39.1061V42.3907H94.1117V43.6302H92.5092V49.1281C92.5092 49.5826 92.5358 49.8747 92.5889 50.0046C92.6479 50.1344 92.7394 50.2377 92.8633 50.3145C92.9932 50.3912 93.1761 50.4296 93.4122 50.4296C93.5893 50.4296 93.8224 50.4089 94.1117 50.3676ZM95.0413 48.9865L96.6171 48.7386C96.7057 49.3701 96.9506 49.8541 97.352 50.1905C97.7592 50.5269 98.3258 50.6952 99.0518 50.6952C99.7837 50.6952 100.327 50.5476 100.681 50.2525C101.035 49.9515 101.212 49.6003 101.212 49.1989C101.212 48.8389 101.056 48.5556 100.743 48.349C100.524 48.2074 99.9814 48.0273 99.1138 47.809C97.9451 47.5139 97.1336 47.2601 96.6791 47.0476C96.2306 46.8292 95.8882 46.5311 95.6521 46.1534C95.4219 45.7697 95.3069 45.3477 95.3069 44.8874C95.3069 44.4683 95.4013 44.0817 95.5902 43.7276C95.7849 43.3675 96.0476 43.0695 96.3781 42.8334C96.626 42.6504 96.9624 42.497 97.3874 42.373C97.8183 42.2432 98.2786 42.1782 98.7685 42.1782C99.5063 42.1782 100.153 42.2845 100.707 42.497C101.268 42.7094 101.681 42.9986 101.947 43.3646C102.212 43.7246 102.395 44.2086 102.496 44.8165L100.938 45.029C100.867 44.545 100.66 44.1673 100.318 43.8958C99.9814 43.6243 99.5033 43.4885 98.8836 43.4885C98.1517 43.4885 97.6294 43.6095 97.3166 43.8515C97.0037 44.0935 96.8473 44.3768 96.8473 44.7014C96.8473 44.908 96.9123 45.0939 97.0421 45.2592C97.172 45.4304 97.3756 45.572 97.653 45.6842C97.8123 45.7432 98.2816 45.8789 99.0607 46.0914C100.188 46.3924 100.973 46.6403 101.416 46.8351C101.864 47.024 102.215 47.3014 102.469 47.6673C102.723 48.0332 102.85 48.4877 102.85 49.0307C102.85 49.5619 102.693 50.0636 102.381 50.5358C102.074 51.0021 101.628 51.3651 101.044 51.6248C100.459 51.8786 99.7984 52.0054 99.0607 52.0054C97.8389 52.0054 96.9064 51.7517 96.263 51.2441C95.6256 50.7365 95.2183 49.9839 95.0413 48.9865Z" fill="#F2F2F2"/>
<path d="M409.922 142.312H109.843V169.25H409.922V142.312Z" fill="#00C770"/>
<path d="M248.695 157.928L250.607 157.673C250.827 158.756 251.199 159.539 251.723 160.02C252.254 160.495 252.898 160.732 253.656 160.732C254.556 160.732 255.314 160.421 255.93 159.797C256.553 159.174 256.865 158.402 256.865 157.481C256.865 156.603 256.578 155.881 256.004 155.314C255.431 154.74 254.701 154.454 253.816 154.454C253.454 154.454 253.005 154.524 252.466 154.666L252.679 152.987C252.806 153.002 252.909 153.009 252.987 153.009C253.802 153.009 254.535 152.796 255.186 152.371C255.838 151.946 256.164 151.291 256.164 150.406C256.164 149.705 255.926 149.124 255.452 148.663C254.977 148.203 254.365 147.973 253.614 147.973C252.87 147.973 252.25 148.207 251.755 148.674C251.259 149.141 250.94 149.843 250.798 150.778L248.886 150.438C249.12 149.156 249.651 148.164 250.48 147.463C251.308 146.755 252.339 146.4 253.571 146.4C254.421 146.4 255.204 146.585 255.919 146.953C256.635 147.314 257.18 147.81 257.555 148.44C257.938 149.071 258.129 149.74 258.129 150.448C258.129 151.121 257.948 151.734 257.587 152.286C257.226 152.839 256.691 153.278 255.983 153.604C256.904 153.816 257.619 154.259 258.129 154.932C258.639 155.597 258.894 156.433 258.894 157.439C258.894 158.799 258.398 159.953 257.407 160.902C256.415 161.844 255.161 162.315 253.646 162.315C252.279 162.315 251.142 161.908 250.235 161.094C249.336 160.279 248.822 159.224 248.695 157.928ZM267.999 162.039H266.086V149.853C265.626 150.292 265.021 150.732 264.27 151.171C263.526 151.61 262.857 151.939 262.262 152.159V150.31C263.331 149.807 264.266 149.198 265.067 148.483C265.867 147.767 266.434 147.073 266.766 146.4H267.999V162.039Z" fill="#F2F2F2"/>
<path d="M409.922 142.312H109.843V169.25H409.922V142.312Z" stroke="#F2F2F2" stroke-width="0.822159" stroke-miterlimit="1.5" stroke-linecap="round" stroke-linejoin="round"/>
<path d="M710 142.312H409.921V169.25H710V142.312Z" fill="#00C770"/>
<path d="M548.764 154.358C548.764 152.516 548.951 151.036 549.327 149.917C549.709 148.791 550.272 147.923 551.016 147.314C551.767 146.705 552.709 146.4 553.842 146.4C554.678 146.4 555.411 146.57 556.041 146.91C556.671 147.243 557.192 147.728 557.603 148.366C558.014 148.996 558.336 149.768 558.57 150.682C558.803 151.589 558.92 152.814 558.92 154.358C558.92 156.185 558.733 157.662 558.357 158.788C557.982 159.907 557.419 160.775 556.668 161.391C555.924 162 554.982 162.305 553.842 162.305C552.34 162.305 551.161 161.766 550.304 160.69C549.277 159.394 548.764 157.283 548.764 154.358ZM550.729 154.358C550.729 156.915 551.027 158.618 551.622 159.468C552.224 160.311 552.964 160.732 553.842 160.732C554.72 160.732 555.457 160.307 556.052 159.457C556.654 158.607 556.955 156.908 556.955 154.358C556.955 151.794 556.654 150.091 556.052 149.248C555.457 148.405 554.713 147.983 553.821 147.983C552.942 147.983 552.241 148.355 551.717 149.099C551.058 150.048 550.729 151.801 550.729 154.358ZM568.078 162.039H566.166V149.853C565.705 150.292 565.1 150.732 564.349 151.171C563.605 151.61 562.936 151.939 562.341 152.159V150.31C563.411 149.807 564.346 149.198 565.146 148.483C565.946 147.767 566.513 147.073 566.846 146.4H568.078V162.039Z" fill="#F2F2F2"/>
<path d="M710 142.312H409.921V169.25H710V142.312Z" stroke="#F2F2F2" stroke-width="0.822159" stroke-miterlimit="1.5" stroke-linecap="round" stroke-linejoin="round"/>
<path d="M63.5854 159.945V146.966H68.0563C69.0656 146.966 69.8358 147.028 70.367 147.152C71.1107 147.323 71.7452 147.633 72.2705 148.082C72.9551 148.66 73.4657 149.401 73.8021 150.304C74.1444 151.201 74.3156 152.228 74.3156 153.385C74.3156 154.371 74.2005 155.244 73.9703 156.006C73.7401 156.767 73.445 157.398 73.085 157.9C72.725 158.396 72.3295 158.788 71.8986 159.078C71.4737 159.361 70.9572 159.576 70.3493 159.724C69.7473 159.872 69.0538 159.945 68.2688 159.945H63.5854ZM65.3029 158.414H68.074C68.9298 158.414 69.5997 158.334 70.0837 158.175C70.5736 158.015 70.9631 157.791 71.2523 157.502C71.6596 157.095 71.9754 156.549 72.1997 155.864C72.4298 155.173 72.5449 154.338 72.5449 153.358C72.5449 152.001 72.3207 150.959 71.8721 150.233C71.4294 149.501 70.8894 149.011 70.2519 148.764C69.7915 148.586 69.0508 148.498 68.0297 148.498H65.3029V158.414ZM82.62 158.786C82.0298 159.287 81.4603 159.641 80.9114 159.848C80.3683 160.055 79.784 160.158 79.1584 160.158C78.1255 160.158 77.3316 159.907 76.7768 159.405C76.222 158.898 75.9446 158.251 75.9446 157.466C75.9446 157.006 76.0479 156.587 76.2545 156.209C76.467 155.826 76.7414 155.519 77.0779 155.288C77.4202 155.058 77.8038 154.884 78.2288 154.766C78.5416 154.683 79.0138 154.604 79.6453 154.527C80.932 154.374 81.8793 154.191 82.4872 153.978C82.4931 153.76 82.4961 153.621 82.4961 153.562C82.4961 152.913 82.3456 152.455 82.0446 152.19C81.6373 151.83 81.0323 151.65 80.2296 151.65C79.4801 151.65 78.9252 151.783 78.5652 152.048C78.2111 152.308 77.9484 152.771 77.7773 153.438L76.2191 153.226C76.3607 152.559 76.5939 152.022 76.9185 151.614C77.2431 151.201 77.7123 150.885 78.3262 150.667C78.94 150.443 79.6512 150.331 80.4598 150.331C81.2625 150.331 81.9147 150.425 82.4164 150.614C82.9181 150.803 83.287 151.042 83.5231 151.331C83.7592 151.614 83.9244 151.974 84.0189 152.411C84.072 152.683 84.0986 153.173 84.0986 153.881V156.006C84.0986 157.487 84.131 158.425 84.1959 158.821C84.2668 159.21 84.4025 159.585 84.6032 159.945H82.9388C82.7735 159.615 82.6673 159.228 82.62 158.786ZM82.4872 155.226C81.9088 155.463 81.0412 155.663 79.8844 155.829C79.2292 155.923 78.7659 156.029 78.4944 156.147C78.2229 156.265 78.0134 156.439 77.8658 156.67C77.7182 156.894 77.6445 157.145 77.6445 157.422C77.6445 157.847 77.8038 158.201 78.1225 158.485C78.4472 158.768 78.9193 158.909 79.5391 158.909C80.1529 158.909 80.6989 158.777 81.177 158.511C81.655 158.24 82.0062 157.871 82.2305 157.404C82.4017 157.044 82.4872 156.513 82.4872 155.811V155.226ZM86.5067 163.566L86.3296 162.07C86.6778 162.165 86.9818 162.212 87.2415 162.212C87.5956 162.212 87.8789 162.153 88.0914 162.035C88.3039 161.917 88.478 161.751 88.6138 161.539C88.7141 161.38 88.8764 160.984 89.1007 160.353C89.1302 160.264 89.1774 160.134 89.2423 159.963L85.6745 150.543H87.392L89.3486 155.988C89.6024 156.678 89.8296 157.404 90.0303 158.166C90.2133 157.434 90.4316 156.72 90.6854 156.023L92.6952 150.543H94.2888L90.712 160.105C90.3284 161.138 90.0303 161.849 89.8178 162.238C89.5345 162.764 89.2099 163.147 88.8439 163.389C88.478 163.637 88.0412 163.761 87.5337 163.761C87.2267 163.761 86.8844 163.696 86.5067 163.566ZM95.0059 157.139L96.5818 156.891C96.6703 157.522 96.9152 158.006 97.3166 158.343C97.7239 158.679 98.2905 158.847 99.0164 158.847C99.7483 158.847 100.291 158.7 100.645 158.405C101 158.104 101.177 157.753 101.177 157.351C101.177 156.991 101.02 156.708 100.707 156.501C100.489 156.36 99.946 156.18 99.0784 155.961C97.9098 155.666 97.0982 155.412 96.6437 155.2C96.1952 154.982 95.8528 154.683 95.6168 154.306C95.3866 153.922 95.2715 153.5 95.2715 153.04C95.2715 152.621 95.3659 152.234 95.5548 151.88C95.7496 151.52 96.0122 151.222 96.3427 150.986C96.5906 150.803 96.9271 150.649 97.352 150.525C97.7829 150.396 98.2433 150.331 98.7331 150.331C99.4709 150.331 100.117 150.437 100.672 150.649C101.233 150.862 101.646 151.151 101.911 151.517C102.177 151.877 102.36 152.361 102.46 152.969L100.902 153.181C100.831 152.697 100.625 152.32 100.282 152.048C99.946 151.777 99.468 151.641 98.8482 151.641C98.1164 151.641 97.594 151.762 97.2812 152.004C96.9684 152.246 96.812 152.529 96.812 152.854C96.812 153.06 96.8769 153.246 97.0067 153.412C97.1366 153.583 97.3402 153.724 97.6176 153.837C97.777 153.896 98.2462 154.031 99.0253 154.244C100.153 154.545 100.938 154.793 101.38 154.987C101.829 155.176 102.18 155.454 102.434 155.82C102.688 156.186 102.815 156.64 102.815 157.183C102.815 157.714 102.658 158.216 102.345 158.688C102.038 159.154 101.593 159.517 101.008 159.777C100.424 160.031 99.7631 160.158 99.0253 160.158C97.8035 160.158 96.871 159.904 96.2276 159.396C95.5902 158.889 95.1829 158.136 95.0059 157.139Z" fill="#F2F2F2"/>
<path d="M409.922 110.16H109.843V137.097H409.922V110.16Z" fill="#FF6900"/>
<path d="M211.379 129.664V114.089H216.744C217.955 114.089 218.879 114.164 219.517 114.312C220.409 114.518 221.171 114.89 221.801 115.428C222.623 116.122 223.235 117.011 223.639 118.094C224.05 119.171 224.255 120.403 224.255 121.792C224.255 122.974 224.117 124.023 223.841 124.936C223.565 125.85 223.21 126.608 222.778 127.21C222.346 127.805 221.872 128.276 221.355 128.623C220.845 128.963 220.225 129.221 219.496 129.398C218.773 129.576 217.941 129.664 216.999 129.664H211.379ZM213.44 127.826H216.765C217.792 127.826 218.596 127.73 219.177 127.539C219.765 127.348 220.232 127.079 220.579 126.732C221.068 126.243 221.447 125.588 221.716 124.766C221.992 123.938 222.13 122.936 222.13 121.76C222.13 120.131 221.861 118.881 221.323 118.009C220.792 117.131 220.144 116.543 219.379 116.246C218.826 116.033 217.937 115.927 216.712 115.927H213.44V127.826ZM234.582 126.031L236.558 126.275C236.246 127.429 235.669 128.325 234.826 128.963C233.983 129.6 232.907 129.919 231.596 129.919C229.946 129.919 228.636 129.413 227.665 128.4C226.702 127.38 226.221 125.953 226.221 124.118C226.221 122.22 226.709 120.747 227.687 119.699C228.664 118.65 229.932 118.126 231.49 118.126C232.999 118.126 234.231 118.64 235.187 119.667C236.143 120.694 236.621 122.139 236.621 124.001C236.621 124.115 236.618 124.285 236.611 124.511H228.197C228.267 125.751 228.618 126.7 229.248 127.359C229.879 128.017 230.665 128.347 231.607 128.347C232.308 128.347 232.907 128.163 233.402 127.794C233.898 127.426 234.291 126.838 234.582 126.031ZM228.303 122.939H234.603C234.518 121.99 234.277 121.278 233.88 120.804C233.271 120.067 232.482 119.699 231.511 119.699C230.633 119.699 229.893 119.993 229.291 120.581C228.696 121.168 228.367 121.955 228.303 122.939ZM246.332 125.531L248.212 125.776C248.007 127.072 247.479 128.088 246.629 128.825C245.786 129.554 244.749 129.919 243.516 129.919C241.972 129.919 240.729 129.416 239.787 128.41C238.853 127.398 238.385 125.949 238.385 124.065C238.385 122.847 238.587 121.781 238.991 120.867C239.394 119.954 240.007 119.27 240.829 118.817C241.657 118.357 242.557 118.126 243.527 118.126C244.752 118.126 245.755 118.438 246.534 119.061C247.313 119.677 247.812 120.556 248.032 121.696L246.173 121.983C245.995 121.225 245.68 120.655 245.227 120.272C244.781 119.89 244.239 119.699 243.601 119.699C242.638 119.699 241.856 120.046 241.254 120.74C240.652 121.427 240.351 122.518 240.351 124.012C240.351 125.528 240.641 126.629 241.222 127.316C241.802 128.003 242.56 128.347 243.495 128.347C244.246 128.347 244.873 128.116 245.376 127.656C245.879 127.196 246.197 126.487 246.332 125.531ZM257.572 126.031L259.548 126.275C259.237 127.429 258.659 128.325 257.816 128.963C256.974 129.6 255.897 129.919 254.587 129.919C252.936 129.919 251.626 129.413 250.656 128.4C249.693 127.38 249.211 125.953 249.211 124.118C249.211 122.22 249.7 120.747 250.677 119.699C251.655 118.65 252.922 118.126 254.481 118.126C255.989 118.126 257.222 118.64 258.178 119.667C259.134 120.694 259.612 122.139 259.612 124.001C259.612 124.115 259.608 124.285 259.601 124.511H251.187C251.258 125.751 251.608 126.7 252.239 127.359C252.869 128.017 253.655 128.347 254.597 128.347C255.299 128.347 255.897 128.163 256.393 127.794C256.889 127.426 257.282 126.838 257.572 126.031ZM251.293 122.939H257.593C257.508 121.99 257.268 121.278 256.871 120.804C256.262 120.067 255.472 119.699 254.502 119.699C253.623 119.699 252.883 119.993 252.281 120.581C251.686 121.168 251.357 121.955 251.293 122.939ZM261.96 129.664V118.381H263.67V119.964C264.024 119.412 264.495 118.969 265.083 118.636C265.671 118.296 266.34 118.126 267.091 118.126C267.927 118.126 268.61 118.3 269.142 118.647C269.68 118.994 270.059 119.479 270.278 120.102C271.171 118.785 272.332 118.126 273.763 118.126C274.882 118.126 275.743 118.438 276.345 119.061C276.947 119.677 277.248 120.63 277.248 121.919V129.664H275.346V122.557C275.346 121.792 275.282 121.243 275.155 120.91C275.034 120.57 274.811 120.297 274.486 120.092C274.16 119.886 273.777 119.784 273.338 119.784C272.545 119.784 271.886 120.049 271.362 120.581C270.838 121.105 270.576 121.947 270.576 123.109V129.664H268.664V122.333C268.664 121.484 268.508 120.846 268.196 120.421C267.884 119.996 267.375 119.784 266.666 119.784C266.128 119.784 265.629 119.925 265.168 120.209C264.715 120.492 264.386 120.906 264.18 121.452C263.975 121.997 263.872 122.783 263.872 123.81V129.664H261.96ZM281.848 129.664H280.074V114.089H281.986V119.646C282.794 118.633 283.824 118.126 285.078 118.126C285.772 118.126 286.427 118.268 287.043 118.551C287.666 118.828 288.176 119.221 288.573 119.731C288.977 120.233 289.292 120.843 289.519 121.558C289.745 122.273 289.859 123.038 289.859 123.853C289.859 125.786 289.38 127.281 288.424 128.336C287.468 129.391 286.321 129.919 284.982 129.919C283.651 129.919 282.606 129.363 281.848 128.251V129.664ZM281.827 123.938C281.827 125.291 282.011 126.268 282.379 126.87C282.981 127.854 283.796 128.347 284.823 128.347C285.658 128.347 286.381 127.985 286.99 127.263C287.599 126.534 287.904 125.45 287.904 124.012C287.904 122.539 287.61 121.452 287.022 120.75C286.441 120.049 285.736 119.699 284.908 119.699C284.072 119.699 283.35 120.063 282.74 120.793C282.131 121.515 281.827 122.564 281.827 123.938ZM299.919 126.031L301.896 126.275C301.584 127.429 301.007 128.325 300.164 128.963C299.321 129.6 298.244 129.919 296.934 129.919C295.284 129.919 293.974 129.413 293.003 128.4C292.04 127.38 291.558 125.953 291.558 124.118C291.558 122.22 292.047 120.747 293.024 119.699C294.002 118.65 295.27 118.126 296.828 118.126C298.337 118.126 299.569 118.64 300.525 119.667C301.481 120.694 301.959 122.139 301.959 124.001C301.959 124.115 301.956 124.285 301.949 124.511H293.534C293.605 125.751 293.956 126.7 294.586 127.359C295.217 128.017 296.003 128.347 296.945 128.347C297.646 128.347 298.244 128.163 298.74 127.794C299.236 127.426 299.629 126.838 299.919 126.031ZM293.641 122.939H299.941C299.856 121.99 299.615 121.278 299.218 120.804C298.609 120.067 297.819 119.699 296.849 119.699C295.971 119.699 295.231 119.993 294.629 120.581C294.034 121.168 293.704 121.955 293.641 122.939ZM304.286 129.664V118.381H306.007V120.092C306.446 119.291 306.85 118.764 307.218 118.509C307.594 118.254 308.004 118.126 308.451 118.126C309.095 118.126 309.75 118.332 310.416 118.743L309.757 120.517C309.29 120.241 308.822 120.102 308.355 120.102C307.937 120.102 307.562 120.23 307.229 120.485C306.896 120.733 306.659 121.08 306.517 121.526C306.305 122.206 306.198 122.95 306.198 123.757V129.664H304.286Z" fill="#F2F2F2"/>
<path d="M409.922 110.16H109.843V137.097H409.922V110.16Z" stroke="#F2F2F2" stroke-width="0.822159" stroke-miterlimit="1.5" stroke-linecap="round" stroke-linejoin="round"/>
<path d="M710 110.16H409.921V137.097H710V110.16Z" fill="#FF6900"/>
<path d="M521.885 125.244L523.744 124.989C523.794 126.179 524.017 126.994 524.413 127.433C524.81 127.872 525.359 128.092 526.06 128.092C526.577 128.092 527.023 127.975 527.399 127.741C527.774 127.5 528.033 127.178 528.174 126.774C528.316 126.364 528.387 125.712 528.387 124.82V114.089H530.448V124.703C530.448 126.006 530.288 127.015 529.97 127.73C529.658 128.446 529.159 128.991 528.472 129.367C527.792 129.742 526.991 129.93 526.071 129.93C524.704 129.93 523.656 129.537 522.926 128.75C522.204 127.964 521.857 126.796 521.885 125.244ZM540.934 128.272C540.225 128.874 539.542 129.299 538.883 129.547C538.232 129.795 537.531 129.919 536.78 129.919C535.54 129.919 534.588 129.618 533.922 129.016C533.256 128.407 532.923 127.631 532.923 126.689C532.923 126.137 533.047 125.634 533.295 125.181C533.55 124.72 533.879 124.352 534.283 124.076C534.694 123.8 535.154 123.591 535.664 123.449C536.04 123.35 536.606 123.254 537.364 123.162C538.908 122.978 540.045 122.758 540.774 122.503C540.781 122.241 540.785 122.075 540.785 122.004C540.785 121.225 540.604 120.676 540.243 120.357C539.755 119.925 539.029 119.709 538.065 119.709C537.166 119.709 536.5 119.869 536.068 120.187C535.643 120.499 535.328 121.055 535.122 121.855L533.253 121.6C533.423 120.8 533.702 120.156 534.092 119.667C534.481 119.171 535.045 118.792 535.781 118.53C536.518 118.261 537.371 118.126 538.342 118.126C539.305 118.126 540.087 118.24 540.689 118.466C541.291 118.693 541.734 118.98 542.017 119.327C542.301 119.667 542.499 120.099 542.612 120.623C542.676 120.949 542.708 121.537 542.708 122.387V124.936C542.708 126.714 542.747 127.84 542.825 128.315C542.91 128.782 543.073 129.232 543.314 129.664H541.316C541.118 129.267 540.99 128.804 540.934 128.272ZM540.774 124.001C540.08 124.285 539.039 124.526 537.651 124.724C536.865 124.837 536.309 124.965 535.983 125.106C535.657 125.248 535.406 125.457 535.229 125.733C535.052 126.002 534.963 126.303 534.963 126.636C534.963 127.146 535.154 127.571 535.537 127.911C535.926 128.251 536.493 128.421 537.237 128.421C537.973 128.421 538.628 128.262 539.202 127.943C539.776 127.617 540.197 127.174 540.466 126.615C540.672 126.183 540.774 125.545 540.774 124.703V124.001ZM545.683 129.664V118.381H547.404V119.986C548.232 118.746 549.429 118.126 550.995 118.126C551.675 118.126 552.298 118.25 552.865 118.498C553.438 118.739 553.867 119.058 554.15 119.454C554.433 119.851 554.632 120.322 554.745 120.867C554.816 121.221 554.851 121.841 554.851 122.727V129.664H552.939V122.801C552.939 122.022 552.865 121.441 552.716 121.059C552.567 120.669 552.301 120.361 551.919 120.134C551.544 119.901 551.101 119.784 550.591 119.784C549.777 119.784 549.072 120.042 548.477 120.559C547.889 121.076 547.595 122.057 547.595 123.502V129.664H545.683ZM565.188 129.664V128.007C564.31 129.282 563.117 129.919 561.608 129.919C560.942 129.919 560.319 129.792 559.738 129.537C559.165 129.282 558.736 128.963 558.453 128.58C558.177 128.191 557.982 127.716 557.868 127.157C557.791 126.781 557.752 126.186 557.752 125.372V118.381H559.664V124.639C559.664 125.638 559.703 126.31 559.781 126.657C559.901 127.16 560.156 127.557 560.546 127.847C560.935 128.131 561.417 128.272 561.991 128.272C562.564 128.272 563.103 128.127 563.605 127.837C564.108 127.539 564.462 127.139 564.668 126.636C564.88 126.126 564.987 125.39 564.987 124.426V118.381H566.899V129.664H565.188ZM577.268 128.272C576.56 128.874 575.876 129.299 575.218 129.547C574.566 129.795 573.865 129.919 573.114 129.919C571.874 129.919 570.922 129.618 570.256 129.016C569.59 128.407 569.257 127.631 569.257 126.689C569.257 126.137 569.381 125.634 569.629 125.181C569.884 124.72 570.214 124.352 570.617 124.076C571.028 123.8 571.488 123.591 571.998 123.449C572.374 123.35 572.94 123.254 573.698 123.162C575.242 122.978 576.379 122.758 577.109 122.503C577.116 122.241 577.119 122.075 577.119 122.004C577.119 121.225 576.939 120.676 576.577 120.357C576.089 119.925 575.363 119.709 574.399 119.709C573.5 119.709 572.834 119.869 572.402 120.187C571.977 120.499 571.662 121.055 571.457 121.855L569.587 121.6C569.757 120.8 570.037 120.156 570.426 119.667C570.816 119.171 571.379 118.792 572.115 118.53C572.852 118.261 573.705 118.126 574.676 118.126C575.639 118.126 576.422 118.24 577.024 118.466C577.626 118.693 578.068 118.98 578.352 119.327C578.635 119.667 578.833 120.099 578.947 120.623C579.01 120.949 579.042 121.537 579.042 122.387V124.936C579.042 126.714 579.081 127.84 579.159 128.315C579.244 128.782 579.407 129.232 579.648 129.664H577.65C577.452 129.267 577.325 128.804 577.268 128.272ZM577.109 124.001C576.415 124.285 575.373 124.526 573.985 124.724C573.199 124.837 572.643 124.965 572.317 125.106C571.991 125.248 571.74 125.457 571.563 125.733C571.386 126.002 571.297 126.303 571.297 126.636C571.297 127.146 571.488 127.571 571.871 127.911C572.261 128.251 572.827 128.421 573.571 128.421C574.307 128.421 574.963 128.262 575.536 127.943C576.11 127.617 576.531 127.174 576.801 126.615C577.006 126.183 577.109 125.545 577.109 124.703V124.001ZM581.996 129.664V118.381H583.717V120.092C584.156 119.291 584.56 118.764 584.928 118.509C585.303 118.254 585.714 118.126 586.16 118.126C586.805 118.126 587.46 118.332 588.126 118.743L587.467 120.517C587 120.241 586.532 120.102 586.065 120.102C585.647 120.102 585.271 120.23 584.939 120.485C584.606 120.733 584.368 121.08 584.227 121.526C584.014 122.206 583.908 122.95 583.908 123.757V129.664H581.996ZM589.178 134.009L588.965 132.214C589.383 132.327 589.748 132.384 590.059 132.384C590.484 132.384 590.824 132.313 591.079 132.171C591.334 132.03 591.543 131.831 591.706 131.576C591.826 131.385 592.021 130.911 592.29 130.153C592.326 130.047 592.382 129.891 592.46 129.685L588.179 118.381H590.24L592.588 124.915C592.892 125.744 593.165 126.615 593.406 127.529C593.625 126.65 593.887 125.793 594.192 124.958L596.604 118.381H598.516L594.224 129.855C593.764 131.095 593.406 131.948 593.151 132.416C592.811 133.046 592.421 133.506 591.982 133.797C591.543 134.094 591.019 134.243 590.41 134.243C590.042 134.243 589.631 134.165 589.178 134.009Z" fill="#F2F2F2"/>
<path d="M710 110.16H409.921V137.097H710V110.16Z" stroke="#F2F2F2" stroke-width="0.822159" stroke-miterlimit="1.5" stroke-linecap="round" stroke-linejoin="round"/>
<path d="M45.3828 130.027V117.048H47.968L51.0401 126.238C51.3234 127.094 51.53 127.734 51.6598 128.159C51.8074 127.687 52.0376 126.994 52.3504 126.079L55.4579 117.048H57.7686V130.027H56.1131V119.164L52.3415 130.027H50.7922L47.0384 118.978V130.027H45.3828ZM59.7429 125.326C59.7429 123.585 60.2269 122.295 61.1949 121.457C62.0035 120.761 62.9892 120.413 64.1519 120.413C65.4445 120.413 66.501 120.838 67.3214 121.687C68.1418 122.532 68.552 123.7 68.552 125.193C68.552 126.403 68.3691 127.357 68.0031 128.053C67.6431 128.744 67.1148 129.281 66.4184 129.664C65.7278 130.048 64.9723 130.24 64.1519 130.24C62.8357 130.24 61.7704 129.818 60.9559 128.974C60.1472 128.13 59.7429 126.914 59.7429 125.326ZM61.3808 125.326C61.3808 126.53 61.6435 127.433 62.1688 128.035C62.6941 128.631 63.3551 128.93 64.1519 128.93C64.9428 128.93 65.6009 128.629 66.1262 128.026C66.6515 127.424 66.9142 126.507 66.9142 125.273C66.9142 124.11 66.6486 123.231 66.1174 122.635C65.5921 122.033 64.9369 121.732 64.1519 121.732C63.3551 121.732 62.6941 122.03 62.1688 122.626C61.6435 123.222 61.3808 124.122 61.3808 125.326ZM70.4289 130.027V120.625H71.8632V121.962C72.5537 120.929 73.5512 120.413 74.8556 120.413C75.4222 120.413 75.9416 120.516 76.4138 120.722C76.8919 120.923 77.249 121.189 77.4851 121.519C77.7211 121.85 77.8864 122.242 77.9808 122.697C78.0399 122.992 78.0694 123.508 78.0694 124.246V130.027H76.4758V124.308C76.4758 123.659 76.4138 123.175 76.2898 122.856C76.1659 122.532 75.9446 122.275 75.6258 122.086C75.313 121.891 74.9441 121.794 74.5192 121.794C73.8404 121.794 73.2532 122.009 72.7574 122.44C72.2675 122.871 72.0225 123.688 72.0225 124.892V130.027H70.4289ZM84.0011 128.602L84.2313 130.01C83.7827 130.104 83.3814 130.151 83.0272 130.151C82.4488 130.151 82.0003 130.06 81.6815 129.877C81.3628 129.694 81.1385 129.455 81.0087 129.16C80.8788 128.859 80.8139 128.23 80.8139 127.274V121.865H79.6453V120.625H80.8139V118.297L82.3987 117.34V120.625H84.0011V121.865H82.3987V127.362C82.3987 127.817 82.4252 128.109 82.4783 128.239C82.5374 128.369 82.6288 128.472 82.7528 128.549C82.8826 128.626 83.0656 128.664 83.3017 128.664C83.4788 128.664 83.7119 128.643 84.0011 128.602ZM85.5682 130.027V117.048H87.1618V121.705C87.9054 120.843 88.8439 120.413 89.9771 120.413C90.6736 120.413 91.2786 120.551 91.7921 120.829C92.3056 121.1 92.6715 121.478 92.8899 121.962C93.1142 122.446 93.2263 123.148 93.2263 124.069V130.027H91.6327V124.069C91.6327 123.272 91.4586 122.694 91.1104 122.334C90.768 121.968 90.2811 121.785 89.6495 121.785C89.1774 121.785 88.7318 121.909 88.3127 122.157C87.8995 122.399 87.6044 122.729 87.4274 123.148C87.2503 123.567 87.1618 124.146 87.1618 124.884V130.027H85.5682ZM95.0235 127.221L96.5994 126.973C96.688 127.604 96.9329 128.088 97.3343 128.425C97.7415 128.761 98.3081 128.93 99.0341 128.93C99.766 128.93 100.309 128.782 100.663 128.487C101.017 128.186 101.194 127.835 101.194 127.433C101.194 127.073 101.038 126.79 100.725 126.583C100.507 126.442 99.9637 126.262 99.0961 126.043C97.9274 125.748 97.1159 125.494 96.6614 125.282C96.2128 125.064 95.8705 124.766 95.6344 124.388C95.4042 124.004 95.2891 123.582 95.2891 123.122C95.2891 122.703 95.3836 122.316 95.5724 121.962C95.7672 121.602 96.0299 121.304 96.3604 121.068C96.6083 120.885 96.9447 120.731 97.3697 120.607C97.8005 120.478 98.2609 120.413 98.7508 120.413C99.4886 120.413 100.135 120.519 100.69 120.731C101.25 120.944 101.664 121.233 101.929 121.599C102.195 121.959 102.378 122.443 102.478 123.051L100.92 123.263C100.849 122.779 100.642 122.402 100.3 122.13C99.9637 121.859 99.4856 121.723 98.8659 121.723C98.134 121.723 97.6117 121.844 97.2988 122.086C96.986 122.328 96.8296 122.611 96.8296 122.936C96.8296 123.142 96.8945 123.328 97.0244 123.494C97.1542 123.665 97.3579 123.806 97.6353 123.919C97.7946 123.978 98.2639 124.113 99.0429 124.326C100.17 124.627 100.955 124.875 101.398 125.069C101.847 125.258 102.198 125.536 102.451 125.902C102.705 126.268 102.832 126.722 102.832 127.265C102.832 127.796 102.676 128.298 102.363 128.77C102.056 129.236 101.61 129.599 101.026 129.859C100.442 130.113 99.7807 130.24 99.0429 130.24C97.8212 130.24 96.8886 129.986 96.2453 129.478C95.6078 128.971 95.2006 128.218 95.0235 127.221Z" fill="#F2F2F2"/>
<path d="M409.922 77.1406H109.843V104.078H409.922V77.1406Z" fill="#2EAFFF"/>
<path d="M243.786 94.0547H241.874V81.8689C241.414 82.308 240.808 82.7472 240.057 83.1863C239.314 83.6254 238.644 83.9548 238.049 84.1743V82.3258C239.119 81.8229 240.054 81.2138 240.854 80.4984C241.654 79.7831 242.221 79.089 242.554 78.4161H243.786V94.0547ZM248.981 90.4531L250.819 90.2832C250.975 91.1472 251.273 91.7741 251.712 92.1636C252.151 92.5532 252.714 92.7479 253.401 92.7479C253.989 92.7479 254.502 92.6134 254.942 92.3442C255.388 92.0751 255.753 91.7174 256.036 91.2712C256.319 90.8179 256.556 90.2088 256.748 89.4439C256.939 88.6789 257.034 87.8998 257.034 87.1066C257.034 87.0216 257.031 86.8941 257.024 86.7241C256.641 87.3332 256.117 87.829 255.452 88.2115C254.793 88.5869 254.077 88.7745 253.305 88.7745C252.016 88.7745 250.926 88.3071 250.033 87.3722C249.141 86.4373 248.695 85.2049 248.695 83.675C248.695 82.0956 249.159 80.8242 250.086 79.861C251.021 78.8977 252.19 78.4161 253.592 78.4161C254.605 78.4161 255.529 78.6888 256.365 79.2342C257.208 79.7795 257.845 80.5586 258.277 81.5714C258.717 82.5772 258.936 84.0362 258.936 85.9485C258.936 87.9388 258.72 89.5253 258.288 90.7081C257.856 91.8838 257.212 92.7798 256.355 93.396C255.505 94.0122 254.506 94.3203 253.359 94.3203C252.14 94.3203 251.145 93.9839 250.373 93.311C249.601 92.6311 249.137 91.6784 248.981 90.4531ZM256.811 83.5794C256.811 82.4816 256.517 81.6104 255.93 80.9659C255.349 80.3214 254.648 79.9991 253.826 79.9991C252.976 79.9991 252.236 80.3461 251.606 81.0402C250.975 81.7343 250.66 82.6339 250.66 83.7388C250.66 84.7303 250.958 85.5378 251.552 86.161C252.155 86.7772 252.895 87.0853 253.773 87.0853C254.658 87.0853 255.384 86.7772 255.951 86.161C256.525 85.5378 256.811 84.6772 256.811 83.5794ZM270.729 82.2939L268.827 82.4426C268.657 81.6919 268.416 81.1465 268.105 80.8065C267.588 80.2611 266.95 79.9885 266.192 79.9885C265.583 79.9885 265.049 80.1585 264.588 80.4984C263.986 80.9375 263.512 81.5785 263.165 82.4214C262.817 83.2642 262.637 84.4647 262.623 86.0229C263.083 85.3217 263.646 84.8012 264.312 84.4612C264.978 84.1212 265.675 83.9512 266.405 83.9512C267.68 83.9512 268.763 84.4222 269.656 85.3642C270.555 86.2991 271.005 87.5103 271.005 88.9976C271.005 89.9751 270.793 90.8852 270.368 91.728C269.95 92.5638 269.373 93.2048 268.636 93.651C267.899 94.0972 267.064 94.3203 266.129 94.3203C264.535 94.3203 263.235 93.736 262.23 92.5673C261.224 91.3916 260.721 89.458 260.721 86.7666C260.721 83.7565 261.277 81.5679 262.389 80.2009C263.359 79.0111 264.666 78.4161 266.309 78.4161C267.535 78.4161 268.537 78.7596 269.316 79.4466C270.102 80.1337 270.573 81.0827 270.729 82.2939ZM262.92 89.0083C262.92 89.667 263.058 90.2973 263.335 90.8993C263.618 91.5014 264.011 91.9618 264.514 92.2805C265.017 92.5921 265.544 92.7479 266.097 92.7479C266.904 92.7479 267.598 92.4221 268.179 91.7705C268.76 91.1189 269.05 90.2336 269.05 89.1145C269.05 88.0379 268.763 87.1916 268.19 86.5754C267.616 85.9521 266.894 85.6405 266.022 85.6405C265.158 85.6405 264.425 85.9521 263.823 86.5754C263.221 87.1916 262.92 88.0025 262.92 89.0083ZM273.204 90.4531L275.042 90.2832C275.198 91.1472 275.496 91.7741 275.935 92.1636C276.374 92.5532 276.937 92.7479 277.624 92.7479C278.212 92.7479 278.725 92.6134 279.164 92.3442C279.611 92.0751 279.975 91.7174 280.259 91.2712C280.542 90.8179 280.779 90.2088 280.97 89.4439C281.162 88.6789 281.257 87.8998 281.257 87.1066C281.257 87.0216 281.254 86.8941 281.247 86.7241C280.864 87.3332 280.34 87.829 279.674 88.2115C279.016 88.5869 278.3 88.7745 277.528 88.7745C276.239 88.7745 275.148 88.3071 274.256 87.3722C273.364 86.4373 272.917 85.2049 272.917 83.675C272.917 82.0956 273.381 80.8242 274.309 79.861C275.244 78.8977 276.413 78.4161 277.815 78.4161C278.828 78.4161 279.752 78.6888 280.588 79.2342C281.431 79.7795 282.068 80.5586 282.5 81.5714C282.939 82.5772 283.159 84.0362 283.159 85.9485C283.159 87.9388 282.943 89.5253 282.511 90.7081C282.079 91.8838 281.434 92.7798 280.577 93.396C279.727 94.0122 278.729 94.3203 277.581 94.3203C276.363 94.3203 275.368 93.9839 274.596 93.311C273.824 92.6311 273.36 91.6784 273.204 90.4531ZM281.034 83.5794C281.034 82.4816 280.74 81.6104 280.152 80.9659C279.572 80.3214 278.87 79.9991 278.049 79.9991C277.199 79.9991 276.459 80.3461 275.828 81.0402C275.198 81.7343 274.883 82.6339 274.883 83.7388C274.883 84.7303 275.18 85.5378 275.775 86.161C276.377 86.7772 277.117 87.0853 277.996 87.0853C278.881 87.0853 279.607 86.7772 280.174 86.161C280.747 85.5378 281.034 84.6772 281.034 83.5794Z" fill="#F2F2F2"/>
<path d="M409.922 77.1406H109.843V104.078H409.922V77.1406Z" stroke="#F2F2F2" stroke-width="0.822159" stroke-miterlimit="1.5" stroke-linecap="round" stroke-linejoin="round"/>
<path d="M710 77.1406H409.921V104.078H710V77.1406Z" fill="#2EAFFF"/>
<path d="M543.866 96.6445H541.953V84.4588C541.493 84.8979 540.887 85.337 540.137 85.7761C539.393 86.2153 538.724 86.5446 538.129 86.7642V84.9156C539.198 84.4127 540.133 83.8036 540.933 83.0883C541.734 82.3729 542.3 81.6788 542.633 81.006H543.866V96.6445ZM549.061 93.043L550.899 92.873C551.055 93.7371 551.352 94.3639 551.791 94.7535C552.23 95.143 552.793 95.3378 553.48 95.3378C554.068 95.3378 554.582 95.2032 555.021 94.9341C555.467 94.6649 555.832 94.3072 556.115 93.861C556.398 93.4077 556.636 92.7986 556.827 92.0337C557.018 91.2688 557.114 90.4897 557.114 89.6964C557.114 89.6114 557.11 89.4839 557.103 89.3139C556.721 89.9231 556.197 90.4188 555.531 90.8013C554.872 91.1767 554.157 91.3644 553.385 91.3644C552.096 91.3644 551.005 90.8969 550.113 89.962C549.22 89.0271 548.774 87.7947 548.774 86.2648C548.774 84.6854 549.238 83.4141 550.166 82.4508C551.101 81.4876 552.269 81.006 553.672 81.006C554.684 81.006 555.609 81.2786 556.445 81.824C557.287 82.3694 557.925 83.1485 558.357 84.1613C558.796 85.167 559.016 86.6261 559.016 88.5384C559.016 90.5286 558.8 92.1152 558.367 93.298C557.935 94.4737 557.291 95.3696 556.434 95.9858C555.584 96.602 554.585 96.9101 553.438 96.9101C552.22 96.9101 551.225 96.5737 550.453 95.9008C549.681 95.2209 549.217 94.2683 549.061 93.043ZM556.891 86.1692C556.891 85.0714 556.597 84.2002 556.009 83.5557C555.428 82.9112 554.727 82.5889 553.905 82.5889C553.055 82.5889 552.315 82.936 551.685 83.6301C551.055 84.3242 550.739 85.2237 550.739 86.3286C550.739 87.3202 551.037 88.1276 551.632 88.7509C552.234 89.3671 552.974 89.6752 553.852 89.6752C554.738 89.6752 555.464 89.3671 556.03 88.7509C556.604 88.1276 556.891 87.2671 556.891 86.1692ZM561.013 83.1095V81.2716H571.095V82.7589C570.103 83.8142 569.119 85.2166 568.142 86.966C567.171 88.7155 566.42 90.5145 565.889 92.363C565.507 93.6663 565.262 95.0934 565.156 96.6445H563.191C563.212 95.4192 563.453 93.9389 563.913 92.2037C564.374 90.4684 565.032 88.7969 565.889 87.1891C566.753 85.5743 567.671 84.2144 568.641 83.1095H561.013ZM572.997 88.9634C572.997 87.1219 573.184 85.6416 573.56 84.5225C573.942 83.3964 574.505 82.5287 575.249 81.9196C576 81.3105 576.942 81.006 578.075 81.006C578.911 81.006 579.644 81.1759 580.274 81.5159C580.905 81.8488 581.425 82.334 581.836 82.9714C582.247 83.6018 582.569 84.3738 582.803 85.2874C583.036 86.194 583.153 87.4193 583.153 88.9634C583.153 90.7907 582.966 92.2674 582.59 93.3936C582.215 94.5126 581.652 95.3803 580.901 95.9965C580.157 96.6056 579.215 96.9101 578.075 96.9101C576.574 96.9101 575.394 96.3718 574.537 95.2953C573.51 93.9991 572.997 91.8885 572.997 88.9634ZM574.962 88.9634C574.962 91.5202 575.26 93.2236 575.855 94.0735C576.457 94.9164 577.197 95.3378 578.075 95.3378C578.953 95.3378 579.69 94.9128 580.285 94.0629C580.887 93.213 581.188 91.5131 581.188 88.9634C581.188 86.3994 580.887 84.696 580.285 83.8532C579.69 83.0104 578.946 82.5889 578.054 82.5889C577.176 82.5889 576.474 82.9608 575.95 83.7045C575.292 84.6535 574.962 86.4065 574.962 88.9634Z" fill="#F2F2F2"/>
<path d="M710 77.1406H409.921V104.078H710V77.1406Z" stroke="#F2F2F2" stroke-width="0.822159" stroke-miterlimit="1.5" stroke-linecap="round" stroke-linejoin="round"/>
<path d="M62.8507 95.3086V89.8107L57.8485 82.3296H59.9379L62.4965 86.2428C62.9687 86.9746 63.4084 87.7065 63.8157 88.4384C64.2052 87.7596 64.6774 86.9953 65.2322 86.1454L67.7466 82.3296H69.7474L64.5682 89.8107V95.3086H62.8507ZM75.8562 92.2807L77.503 92.4844C77.2433 93.4464 76.7622 94.1931 76.0599 94.7243C75.3575 95.2555 74.4604 95.5211 73.3684 95.5211C71.9932 95.5211 70.9013 95.0991 70.0927 94.255C69.29 93.4051 68.8887 92.2158 68.8887 90.6871C68.8887 89.1053 69.2959 87.8777 70.1104 87.0042C70.9249 86.1306 71.9814 85.6939 73.2799 85.6939C74.5371 85.6939 75.5641 86.1218 76.3609 86.9776C77.1577 87.8334 77.5561 89.0375 77.5561 90.5898C77.5561 90.6842 77.5531 90.8258 77.5472 91.0147H70.5354C70.5944 92.0476 70.8866 92.8385 71.4119 93.3874C71.9372 93.9363 72.5923 94.2108 73.3773 94.2108C73.9616 94.2108 74.4604 94.0573 74.8735 93.7504C75.2867 93.4435 75.6142 92.9536 75.8562 92.2807ZM70.6239 89.7044H75.8739C75.8031 88.9135 75.6024 88.3204 75.2719 87.9249C74.7643 87.3111 74.1062 87.0042 73.2976 87.0042C72.5657 87.0042 71.949 87.2491 71.4473 87.739C70.9515 88.2289 70.677 88.884 70.6239 89.7044ZM85.648 94.1488C85.0578 94.6505 84.4882 95.0046 83.9393 95.2112C83.3963 95.4178 82.812 95.5211 82.1864 95.5211C81.1535 95.5211 80.3596 95.2702 79.8048 94.7685C79.25 94.2609 78.9726 93.6147 78.9726 92.8297C78.9726 92.3693 79.0759 91.9502 79.2825 91.5725C79.495 91.1888 79.7694 90.8819 80.1058 90.6517C80.4482 90.4215 80.8318 90.2474 81.2568 90.1294C81.5696 90.0468 82.0418 89.9671 82.6733 89.8903C83.96 89.7369 84.9073 89.5539 85.5152 89.3414C85.5211 89.1231 85.5241 88.9844 85.5241 88.9253C85.5241 88.2761 85.3736 87.8187 85.0726 87.5531C84.6653 87.193 84.0603 87.013 83.2576 87.013C82.5081 87.013 81.9532 87.1458 81.5932 87.4114C81.2391 87.6711 80.9764 88.1344 80.8053 88.8014L79.2471 88.5889C79.3887 87.922 79.6219 87.3848 79.9465 86.9776C80.2711 86.5644 80.7403 86.2487 81.3542 86.0303C81.968 85.806 82.6792 85.6939 83.4878 85.6939C84.2905 85.6939 84.9427 85.7883 85.4444 85.9772C85.9461 86.166 86.315 86.4051 86.5511 86.6943C86.7872 86.9776 86.9524 87.3376 87.0469 87.7744C87.1 88.0459 87.1265 88.5358 87.1265 89.2441V91.3689C87.1265 92.8503 87.159 93.7888 87.2239 94.1842C87.2948 94.5738 87.4305 94.9486 87.6312 95.3086H85.9668C85.8015 94.9781 85.6953 94.5915 85.648 94.1488ZM85.5152 90.5898C84.9368 90.8258 84.0692 91.0265 82.9124 91.1918C82.2572 91.2862 81.7939 91.3925 81.5224 91.5105C81.2509 91.6286 81.0413 91.8027 80.8938 92.0329C80.7462 92.2571 80.6725 92.508 80.6725 92.7854C80.6725 93.2104 80.8318 93.5645 81.1505 93.8478C81.4752 94.1311 81.9473 94.2728 82.5671 94.2728C83.1809 94.2728 83.7269 94.14 84.2049 93.8744C84.683 93.6028 85.0342 93.234 85.2585 92.7677C85.4297 92.4076 85.5152 91.8764 85.5152 91.1741V90.5898ZM89.5878 95.3086V85.9063H91.022V87.3317C91.388 86.6648 91.7244 86.2251 92.0313 86.0126C92.3441 85.8001 92.6864 85.6939 93.0583 85.6939C93.5954 85.6939 94.1413 85.865 94.6962 86.2074L94.1473 87.6859C93.7577 87.4557 93.3682 87.3406 92.9786 87.3406C92.6304 87.3406 92.3176 87.4468 92.0402 87.6593C91.7627 87.8659 91.565 88.1551 91.447 88.5269C91.2699 89.0935 91.1814 89.7133 91.1814 90.3861V95.3086H89.5878ZM95.006 92.5021L96.5819 92.2542C96.6705 92.8857 96.9154 93.3697 97.3167 93.7061C97.724 94.0426 98.2906 94.2108 99.0166 94.2108C99.7485 94.2108 100.291 94.0632 100.646 93.7681C101 93.4671 101.177 93.1159 101.177 92.7146C101.177 92.3545 101.02 92.0712 100.708 91.8646C100.489 91.723 99.9462 91.543 99.0786 91.3246C97.9099 91.0295 97.0984 90.7757 96.6439 90.5632C96.1953 90.3448 95.853 90.0468 95.6169 89.669C95.3867 89.2854 95.2716 88.8634 95.2716 88.403C95.2716 87.9839 95.3661 87.5973 95.5549 87.2432C95.7497 86.8832 96.0124 86.5851 96.3429 86.349C96.5908 86.166 96.9272 86.0126 97.3522 85.8886C97.783 85.7588 98.2434 85.6939 98.7333 85.6939C99.4711 85.6939 100.117 85.8001 100.672 86.0126C101.233 86.2251 101.646 86.5143 101.912 86.8802C102.177 87.2402 102.36 87.7242 102.461 88.3322L100.902 88.5446C100.832 88.0607 100.625 87.6829 100.283 87.4114C99.9462 87.1399 99.4681 87.0042 98.8484 87.0042C98.1165 87.0042 97.5942 87.1252 97.2813 87.3671C96.9685 87.6091 96.8121 87.8924 96.8121 88.2171C96.8121 88.4236 96.877 88.6096 97.0069 88.7748C97.1367 88.946 97.3404 89.0876 97.6178 89.1998C97.7771 89.2588 98.2464 89.3946 99.0254 89.607C100.153 89.9081 100.938 90.1559 101.38 90.3507C101.829 90.5396 102.18 90.817 102.434 91.1829C102.688 91.5489 102.815 92.0033 102.815 92.5463C102.815 93.0776 102.658 93.5792 102.345 94.0514C102.039 94.5177 101.593 94.8807 101.009 95.1404C100.424 95.3942 99.7632 95.5211 99.0254 95.5211C97.8037 95.5211 96.8711 95.2673 96.2278 94.7597C95.5903 94.2521 95.1831 93.4996 95.006 92.5021Z" fill="#F2F2F2"/>
<path d="M409.921 49.6039C411.674 49.6039 413.094 48.1833 413.094 46.4309C413.094 44.6784 411.674 43.2578 409.921 43.2578C408.169 43.2578 406.748 44.6784 406.748 46.4309C406.748 48.1833 408.169 49.6039 409.921 49.6039Z" fill="#F2F2F2" stroke="#F2F2F2" stroke-width="1.81317" stroke-miterlimit="1.5" stroke-linecap="round" stroke-linejoin="round"/>
</svg>
