<svg xmlns="http://www.w3.org/2000/svg" xmlns:xlink="http://www.w3.org/1999/xlink" x="0" y="0" version="1.1" viewBox="0 0 680 223.9" style="enable-background:new 0 0 680 223.9" xml:space="preserve"><style type="text/css">.st6{fill:#0080ff}.st7{fill:#ff560d}.st9{fill:#f5f5f5}.st10{font-family:&apos;SuisseIntl-Book&apos;}.st11{font-size:14px}.st12{fill-rule:evenodd;clip-rule:evenodd;fill:#15a14f}.st13{fill:#a0a0a0}.st14{font-family:&apos;SuisseIntl-Regular&apos;}.st15{font-size:11px}.st16{fill-rule:evenodd;clip-rule:evenodd;fill:none;stroke:#d1d1d1;stroke-miterlimit:10}.st17{fill:#d1d1d1}</style><g id="boxes"><rect width="301.6" height="25" x="378.4" y="125.6" class="st6"/><rect width="301.6" height="25" x="378.4" y="151.6" class="st7"/><rect width="74.9" height="25" x="0" y="21.6" class="st9"/><text class="st10 st11" transform="matrix(1 0 0 1 21.421 38.4704)">Days</text><rect width="100.3" height="25" x="75.9" y="21.6" class="st12"/><rect width="302.2" height="25" x="177.3" y="21.6" class="st12"/><rect width="199.6" height="25" x="480.4" y="21.6" class="st12"/><rect width="199.6" height="25" x="480.4" y="47.6" class="st7"/><rect width="199.6" height="25" x="480.4" y="73.6" class="st6"/><text class="st10 st11" transform="matrix(1 0 0 1 321.6367 38.4704)">31</text><text class="st10 st11" transform="matrix(1 0 0 1 116.9606 38.4704)">30</text><text class="st10 st11" transform="matrix(1 0 0 1 573.0493 38.4704)">01</text><rect width="74.9" height="25" x="0" y="177.6" class="st9"/><text class="st10 st11" transform="matrix(1 0 0 1 21.421 194.4704)">Days</text><rect width="74.9" height="25" x="0" y="47.6" class="st9"/><text class="st10 st11" transform="matrix(1 0 0 1 12.9713 64.4701)">Months</text><rect width="403.5" height="25" x="75.9" y="47.6" class="st7"/><text class="st10 st11" transform="matrix(1 0 0 1 243.345 64.4701)">December</text><text class="st10 st11" transform="matrix(1 0 0 1 554.3334 64.4701)">January</text><rect width="74.9" height="25" x="0" y="151.6" class="st9"/><text class="st10 st11" transform="matrix(1 0 0 1 12.9713 168.4678)">Months</text><text class="st13 st14 st15" transform="matrix(1 0 0 1 346.7116 15.0919)">Los Angeles</text><rect width="74.9" height="25" x="0" y="73.6" class="st9"/><text class="st10 st11" transform="matrix(1 0 0 1 18.8307 90.4706)">Years</text><rect width="403.5" height="25" x="75.9" y="73.6" class="st6"/><text class="st10 st11" transform="matrix(1 0 0 1 262.272 90.4706)">1969</text><text class="st10 st11" transform="matrix(1 0 0 1 565.2377 90.4706)">1970</text><rect width="74.9" height="25" x="0" y="125.6" class="st9"/><text class="st10 st11" transform="matrix(1 0 0 1 18.8307 142.4706)">Years</text><text class="st10 st11" transform="matrix(1 0 0 1 11.4532 116.4703)">Instants</text><polyline points="668.8 105.6 676.3 112.1 668.8 118.6" class="st16"/><line x1="80.1" x2="675.7" y1="112.1" y2="112.1" class="st16"/><polyline points="86.9 118.6 79.4 112.1 86.9 105.6" class="st16"/><circle cx="378" cy="112.1" r="4.4" class="st17"/><text class="st13 st14 st15" transform="matrix(1 0 0 1 366.24 217.1364)">UTC</text><rect width="301.5" height="25" x="75.9" y="125.6" class="st6"/><text class="st10 st11" transform="matrix(1 0 0 1 211.2746 142.4704)">1969</text><rect width="301.5" height="25" x="75.9" y="151.6" class="st7"/><text class="st10 st11" transform="matrix(1 0 0 1 192.3469 168.4705)">December</text><rect width="301.5" height="25" x="75.9" y="177.6" class="st12"/><rect width="301.6" height="25" x="378.4" y="177.6" class="st12"/><text class="st10 st11" transform="matrix(1 0 0 1 219.968 194.4704)">31</text><text class="st10 st11" transform="matrix(1 0 0 1 514.2384 142.4706)">1970</text><text class="st10 st11" transform="matrix(1 0 0 1 503.3331 168.4705)">January</text><text class="st10 st11" transform="matrix(1 0 0 1 522.0499 194.4704)">01</text></g></svg>