<?xml version="1.0" encoding="utf-8"?>
<!-- Generator: Adobe Illustrator 26.0.2, SVG Export Plug-In . SVG Version: 6.00 Build 0)  -->
<svg version="1.1" xmlns="http://www.w3.org/2000/svg" xmlns:xlink="http://www.w3.org/1999/xlink" x="0px" y="0px"
	 viewBox="0 0 680 223.9" style="enable-background:new 0 0 680 223.9;" xml:space="preserve">
<style type="text/css">
	.st0{fill:#B0B0B0;}
	.st1{fill-rule:evenodd;clip-rule:evenodd;fill:#F5F5F5;}
	.st2{fill:#2EAFFF;}
	.st3{fill-rule:evenodd;clip-rule:evenodd;fill:#D1D1D1;}
	.st4{fill:#1AFF61;}
	.st5{fill-rule:evenodd;clip-rule:evenodd;}
	.st6{fill:#0080FF;}
	.st7{fill:#FF560D;}
	.st8{fill:#FFFFFF;}
	.st9{fill:#F5F5F5;}
	.st10{font-family:'SuisseIntl-Book';}
	.st11{font-size:14px;}
	.st12{fill-rule:evenodd;clip-rule:evenodd;fill:#15A14F;}
	.st13{fill:#A0A0A0;}
	.st14{font-family:'SuisseIntl-Regular';}
	.st15{font-size:11px;}
	.st16{fill-rule:evenodd;clip-rule:evenodd;fill:none;stroke:#D1D1D1;stroke-miterlimit:10;}
	.st17{fill:#D1D1D1;}
	.st18{fill:#FFEF00;}
	.st19{fill-rule:evenodd;clip-rule:evenodd;fill:none;}
	.st20{fill:#FFEE00;}
	.st21{fill:#FFCC00;}
	.st22{fill:#00C770;}
	.st23{fill:#816DFF;}
	.st24{fill:#FF5E00;}
</style>
<g id="Ebene_3">
</g>
<g id="boxes">
	<rect x="378.4" y="125.6" class="st6" width="301.6" height="25"/>
	<rect x="378.4" y="151.6" class="st7" width="301.6" height="25"/>
	<rect x="0" y="21.6" class="st9" width="74.9" height="25"/>
	<text transform="matrix(1 0 0 1 21.421 38.4704)" class="st10 st11">Days</text>
	<rect x="75.9" y="21.6" class="st12" width="100.3" height="25"/>
	<rect x="177.3" y="21.6" class="st12" width="302.2" height="25"/>
	<rect x="480.4" y="21.6" class="st12" width="199.6" height="25"/>
	<rect x="480.4" y="47.6" class="st7" width="199.6" height="25"/>
	<rect x="480.4" y="73.6" class="st6" width="199.6" height="25"/>
	<text transform="matrix(1 0 0 1 321.6367 38.4704)" class="st10 st11">31</text>
	<text transform="matrix(1 0 0 1 116.9606 38.4704)" class="st10 st11">30</text>
	<text transform="matrix(1 0 0 1 573.0493 38.4704)" class="st10 st11">01</text>
	<rect x="0" y="177.6" class="st9" width="74.9" height="25"/>
	<text transform="matrix(1 0 0 1 21.421 194.4704)" class="st10 st11">Days</text>
	<rect x="0" y="47.6" class="st9" width="74.9" height="25"/>
	<text transform="matrix(1 0 0 1 12.9713 64.4701)" class="st10 st11">Months</text>
	<rect x="75.9" y="47.6" class="st7" width="403.5" height="25"/>
	<text transform="matrix(1 0 0 1 243.345 64.4701)" class="st10 st11">December</text>
	<text transform="matrix(1 0 0 1 554.3334 64.4701)" class="st10 st11">January</text>
	<rect x="0" y="151.6" class="st9" width="74.9" height="25"/>
	<text transform="matrix(1 0 0 1 12.9713 168.4678)" class="st10 st11">Months</text>
	<text transform="matrix(1 0 0 1 346.7116 15.0919)" class="st13 st14 st15">Los Angeles</text>
	<rect x="0" y="73.6" class="st9" width="74.9" height="25"/>
	<text transform="matrix(1 0 0 1 18.8307 90.4706)" class="st10 st11">Years</text>
	<rect x="75.9" y="73.6" class="st6" width="403.5" height="25"/>
	<text transform="matrix(1 0 0 1 262.272 90.4706)" class="st10 st11">1969</text>
	<text transform="matrix(1 0 0 1 565.2377 90.4706)" class="st10 st11">1970</text>
	<rect x="0" y="125.6" class="st9" width="74.9" height="25"/>
	<text transform="matrix(1 0 0 1 18.8307 142.4706)" class="st10 st11">Years</text>
	<text transform="matrix(1 0 0 1 11.4532 116.4703)" class="st10 st11">Instants</text>
	<polyline class="st16" points="668.8,105.6 676.3,112.1 668.8,118.6 	"/>
	<line class="st16" x1="80.1" y1="112.1" x2="675.7" y2="112.1"/>
	<polyline class="st16" points="86.9,118.6 79.4,112.1 86.9,105.6 	"/>
	<circle class="st17" cx="378" cy="112.1" r="4.4"/>
	<text transform="matrix(1 0 0 1 366.24 217.1364)" class="st13 st14 st15">UTC</text>
	<rect x="75.9" y="125.6" class="st6" width="301.5" height="25"/>
	<text transform="matrix(1 0 0 1 211.2746 142.4704)" class="st10 st11">1969</text>
	<rect x="75.9" y="151.6" class="st7" width="301.5" height="25"/>
	<text transform="matrix(1 0 0 1 192.3469 168.4705)" class="st10 st11">December</text>
	<rect x="75.9" y="177.6" class="st12" width="301.5" height="25"/>
	<rect x="378.4" y="177.6" class="st12" width="301.6" height="25"/>
	<text transform="matrix(1 0 0 1 219.968 194.4704)" class="st10 st11">31</text>
	<text transform="matrix(1 0 0 1 514.2384 142.4706)" class="st10 st11">1970</text>
	<text transform="matrix(1 0 0 1 503.3331 168.4705)" class="st10 st11">January</text>
	<text transform="matrix(1 0 0 1 522.0499 194.4704)" class="st10 st11">01</text>
</g>
<g id="green">
</g>
<g id="blue">
</g>
<g id="orange">
</g>
<g id="text">
</g>
</svg>
