<svg xmlns="http://www.w3.org/2000/svg" xmlns:xlink="http://www.w3.org/1999/xlink" width="100%" height="100%" version="1.1" viewBox="0 0 800 400" xml:space="preserve" style="fill-rule:evenodd;clip-rule:evenodd;stroke-linecap:round;stroke-linejoin:round;stroke-miterlimit:1.5"><g id="Time"><path d="M48.041,217.125L65.178,309.25L45,217.125L65.178,125L48.041,217.125L778.959,217.125L761.822,125L782,217.125L761.822,309.25L778.959,217.125L48.041,217.125Z" style="stroke:#000;stroke-width:3.08px" transform="matrix(0.898236,0,0,0.196744,84.0794,156.282)"/></g><g><text x="39.961" y="301.788" style="font-family:'ArialMT','Arial',sans-serif;font-size:20px" transform="matrix(1,0,0,1,7.5,-95.625)">Instants</text></g><g><text x="43.448" y="301.788" style="font-family:'ArialMT','Arial',sans-serif;font-size:20px" transform="matrix(1,0,0,1,388.66,77.375)">UTC</text></g><g><text x="43.448" y="301.788" style="font-family:'ArialMT','Arial',sans-serif;font-size:20px" transform="matrix(1,0,0,1,388.66,77.375)">UTC</text></g><g><text x="46.513" y="301.788" style="font-family:'ArialMT','Arial',sans-serif;font-size:20px" transform="matrix(1,0,0,1,351.66,-266.625)">Los <tspan x="83.212 96.552" y="301.788 301.788">An</tspan>geles</text></g><g id="Day" transform="matrix(0.5,0,0,0.958482,64.5,-6.74552)"><rect width="662" height="31" x="120" y="325" style="fill:#54a24b"/><g><text x="351.492" y="242.596" style="font-family:'ArialMT','Arial',sans-serif;font-size:24px" transform="matrix(2,0,0,1.04332,-278.68,96.6218)">31</text></g><rect width="662" height="31" x="120" y="325" style="fill:none;stroke:#000;stroke-width:1.31px"/></g><g id="Day1" transform="matrix(0.5,0,0,0.958482,395.5,-6.74552)"><rect width="662" height="31" x="120" y="325" style="fill:#54a24b"/><g><text x="351.492" y="242.596" style="font-family:'ArialMT','Arial',sans-serif;font-size:24px" transform="matrix(2,0,0,1.04332,-278.68,96.6218)">01</text></g><rect width="662" height="31" x="120" y="325" style="fill:none;stroke:#000;stroke-width:1.31px"/></g><g id="Day2" transform="matrix(0.501511,0,0,0.958482,174.319,-251.746)"><rect width="662" height="31" x="120" y="325" style="fill:#54a24b"/><g><text x="351.583" y="242.596" style="font-family:'ArialMT','Arial',sans-serif;font-size:24px" transform="matrix(1.99398,0,0,1.04332,-276.662,96.6218)">31</text></g><rect width="662" height="31" x="120" y="325" style="fill:none;stroke:#000;stroke-width:1.31px"/></g><g id="Day3" transform="matrix(0.332326,0,0,0.958482,526.621,-251.746)"><rect width="662" height="31" x="120" y="325" style="fill:#54a24b"/><g><text x="341.486" y="242.596" style="font-family:'ArialMT','Arial',sans-serif;font-size:24px" transform="matrix(3.00909,0,0,1.04332,-616.726,96.6218)">01</text></g><rect width="662" height="31" x="120" y="325" style="fill:none;stroke:#000;stroke-width:1.39px"/></g><g id="Day4" transform="matrix(0.166163,0,0,0.958482,104.56,-251.746)"><rect width="662" height="31" x="120" y="325" style="fill:#54a24b"/><g><text x="346.069" y="242.596" style="font-family:'ArialMT','Arial',sans-serif;font-size:24px" transform="matrix(6.01818,0,0,1.04332,-1712.03,96.364)">30</text></g><rect width="662" height="31" x="120" y="325" style="fill:none;stroke:#000;stroke-width:1.45px"/></g><g><text x="335.434" y="182.163" style="font-family:'ArialMT','Arial',sans-serif;font-size:20px" transform="matrix(1,0,0,1,-263.5,143.297)">Days</text></g><g><text x="335.434" y="182.163" style="font-family:'ArialMT','Arial',sans-serif;font-size:20px" transform="matrix(1,0,0,1,-263.5,-97.7027)">Days</text></g><g id="Month" transform="matrix(0.5,0,0,0.958482,64.5,-42.2094)"><rect width="662" height="31" x="120" y="325" style="fill:#f58518"/><g><text x="401.987" y="242.596" style="font-family:'ArialMT','Arial',sans-serif;font-size:24px" transform="matrix(2,0,0,1.04332,-463.68,96.364)">December</text></g><rect width="662" height="31" x="120" y="325" style="fill:none;stroke:#000;stroke-width:1.31px"/></g><g id="Month1" transform="matrix(0.5,0,0,0.958482,395.5,-42.2094)"><rect width="662" height="31" x="120" y="325" style="fill:#f58518"/><g><text x="414.649" y="242.596" style="font-family:'ArialMT','Arial',sans-serif;font-size:24px" transform="matrix(2,0,0,1.04332,-463.68,96.364)">January</text></g><rect width="662" height="31" x="120" y="325" style="fill:none;stroke:#000;stroke-width:1.31px"/></g><g id="Month2" transform="matrix(0.667674,0,0,0.958482,44.3792,-215.209)"><rect width="662" height="31" x="120" y="325" style="fill:#f58518"/><g><text x="443.013" y="242.596" style="font-family:'ArialMT','Arial',sans-serif;font-size:24px" transform="matrix(1.49774,0,0,1.04332,-295.422,96.364)">December</text></g><rect width="662" height="31" x="120" y="325" style="fill:none;stroke:#000;stroke-width:1.21px"/></g><g id="Month3" transform="matrix(0.332326,0,0,0.958482,526.621,-215.209)"><rect width="662" height="31" x="120" y="325" style="fill:#f58518"/><g><text x="373.622" y="242.596" style="font-family:'ArialMT','Arial',sans-serif;font-size:24px" transform="matrix(3.00909,0,0,1.04332,-801.726,96.364)">January</text></g><rect width="662" height="31" x="120" y="325" style="fill:none;stroke:#000;stroke-width:1.39px"/></g><g><text x="315.414" y="182.163" style="font-family:'ArialMT','Arial',sans-serif;font-size:20px" transform="matrix(1,0,0,1,-263.5,110.297)">Months</text></g><g><text x="315.414" y="182.163" style="font-family:'ArialMT','Arial',sans-serif;font-size:20px" transform="matrix(1,0,0,1,-263.5,-65.7027)">Months</text></g><g id="Years" transform="matrix(0.5,0,0,0.958482,64.5,-78.6317)"><rect width="662" height="31" x="120" y="325" style="fill:#4c78a8"/><g><text x="362.604" y="242.596" style="font-family:'ArialMT','Arial',sans-serif;font-size:24px" transform="matrix(2,0,0,1.04332,-327.598,93.3838)">1969</text></g><rect width="662" height="31" x="120" y="325" style="fill:none;stroke:#000;stroke-width:1.31px"/></g><g id="Years1" transform="matrix(0.5,0,0,0.958482,395.5,-78.6317)"><rect width="662" height="31" x="120" y="325" style="fill:#4c78a8"/><g><text x="369.104" y="242.596" style="font-family:'ArialMT','Arial',sans-serif;font-size:24px" transform="matrix(2,0,0,1.04332,-340.598,96.364)">1970</text></g><rect width="662" height="31" x="120" y="325" style="fill:none;stroke:#000;stroke-width:1.31px"/></g><g id="Years2" transform="matrix(0.667674,0,0,0.958482,44.3792,-178.632)"><rect width="662" height="31" x="120" y="325" style="fill:#4c78a8"/><g><text x="380.813" y="242.596" style="font-family:'ArialMT','Arial',sans-serif;font-size:24px" transform="matrix(1.49774,0,0,1.04332,-159.341,93.3838)">1969</text></g><rect width="662" height="31" x="120" y="325" style="fill:none;stroke:#000;stroke-width:1.21px"/></g><g id="Years3" transform="matrix(0.332326,0,0,0.958482,526.621,-178.632)"><rect width="662" height="31" x="120" y="325" style="fill:#4c78a8"/><g><text x="348.715" y="242.596" style="font-family:'ArialMT','Arial',sans-serif;font-size:24px" transform="matrix(3.00909,0,0,1.04332,-678.644,96.364)">1970</text></g><rect width="662" height="31" x="120" y="325" style="fill:none;stroke:#000;stroke-width:1.39px"/></g><g><text x="59.59" y="301.788" style="font-family:'ArialMT','Arial',sans-serif;font-size:20px" transform="matrix(1,0,0,1,7.5,-47.625)">Y<tspan x="71.094 82.217" y="301.788 301.788">ea</tspan>rs</text></g><g><text x="59.59" y="301.788" style="font-family:'ArialMT','Arial',sans-serif;font-size:20px" transform="matrix(1,0,0,1,7.5,-146.625)">Y<tspan x="71.094 82.217" y="301.788 301.788">ea</tspan>rs</text></g><g transform="matrix(0.5,0,0,0.5,243,85)"><circle cx="425" cy="228" r="7" style="stroke:#000;stroke-width:4px"/></g></svg>