<svg width="750" height="293" viewBox="0 0 750 293" fill="none" xmlns="http://www.w3.org/2000/svg">
<path d="M8.02148 0.5H741.979C746.132 0.5 749.5 3.86753 749.5 8.02148V284.049C749.5 288.203 746.132 291.57 741.979 291.57H8.02148C3.86754 291.57 0.5 288.203 0.5 284.049V8.02148C0.5 3.9972 3.66049 0.711 7.63477 0.509766L8.02148 0.5Z" fill="#F2F2F2"/>
<path d="M8.02148 0.5H741.979C746.132 0.5 749.5 3.86753 749.5 8.02148V284.049C749.5 288.203 746.132 291.57 741.979 291.57H8.02148C3.86754 291.57 0.5 288.203 0.5 284.049V8.02148C0.5 3.9972 3.66049 0.711 7.63477 0.509766L8.02148 0.5Z" stroke="#E6E6E6"/>
<path d="M710 159.723H412.836V184.355H710V159.723Z" fill="#2EAFFF"/>
<path d="M710 185.34H412.836V209.972H710V185.34Z" fill="#FF6900"/>
<path d="M113.799 57.25H40V81.8824H113.799V57.25Z" fill="#F5F5F5"/>
<path d="M64.9407 64.0774C68.1134 64.0774 70.4584 65.2223 70.4584 69.0709C70.4584 72.9332 68.1134 74.0781 64.9407 74.0781H62.2095V64.0774H64.9407ZM64.8718 65.374H63.782V72.7815H64.8718C66.8719 72.7815 68.8307 72.3677 68.8307 69.0709C68.8307 65.7879 66.8719 65.374 64.8718 65.374ZM71.5581 72.078C71.5581 70.2709 73.6824 69.7882 76.5654 69.4847V69.3329C76.5654 68.0225 75.8757 67.5811 74.9653 67.5811C73.9721 67.5811 73.4065 68.0915 73.3514 69.0019H71.903C72.0271 67.4294 73.3238 66.4776 75.0204 66.4776C76.9378 66.4776 78.0414 67.4018 78.0138 69.6226C78.0138 69.8019 77.9862 71.0848 77.9862 71.4021C77.9862 72.5056 78.0552 73.416 78.1931 74.0781H76.8137C76.7585 73.7884 76.7171 73.5677 76.6895 73.0987C76.2481 73.8436 75.4067 74.2574 74.2066 74.2574C72.703 74.2574 71.5581 73.4298 71.5581 72.078ZM76.6344 70.5468C74.3307 70.7675 73.1169 71.0848 73.1169 72.0504C73.1169 72.7263 73.6548 73.1539 74.5239 73.1539C75.7102 73.1539 76.6344 72.5608 76.6344 71.0848V70.5468ZM79.3459 76.4921V75.3472H79.9114C80.6839 75.3472 81.015 75.292 81.3736 74.2299L81.4288 74.0643L78.7527 66.6569H80.3391L82.1323 72.1883L83.8841 66.6569H85.3739L82.753 74.2437C82.1461 75.9955 81.7047 76.4921 80.0356 76.4921H79.3459ZM90.5265 68.726C90.3196 67.9673 89.6851 67.6639 88.8437 67.6639C88.1402 67.6639 87.3815 67.9535 87.3815 68.5605C87.3815 69.1122 87.7401 69.3467 88.416 69.4847L89.4782 69.6916C90.8852 69.9675 92.1129 70.4503 92.1129 71.8987C92.1129 73.4022 90.7059 74.2574 88.9954 74.2574C87.1194 74.2574 85.9745 73.1677 85.7952 71.7745H87.2573C87.4505 72.6159 88.0022 73.1125 89.0368 73.1125C89.961 73.1125 90.6783 72.7263 90.6783 72.0642C90.6783 71.3745 90.03 71.0986 89.2575 70.9469L88.1402 70.7262C87.0228 70.5054 85.9745 70.0089 85.9745 68.6157C85.9745 67.3052 87.3539 66.5052 88.9816 66.5052C90.4714 66.5052 91.6715 67.2914 91.9473 68.726H90.5265Z" fill="black"/>
<path d="M213.609 57.25H114.784V81.8824H213.609V57.25Z" fill="#00C770"/>
<path d="M512.448 57.25H214.692V81.8824H512.448V57.25Z" fill="#00C770"/>
<path d="M710 57.25H513.336V81.8824H710V57.25Z" fill="#00C770"/>
<path d="M710 82.8672H513.336V107.5H710V82.8672Z" fill="#FF6900"/>
<path d="M710 108.484H513.336V133.117H710V108.484Z" fill="#2EAFFF"/>
<path d="M363.018 71.2779C363.018 69.9123 361.859 69.4571 360.314 69.4571H359.969V68.2018H360.259C361.914 68.2018 362.755 67.7052 362.755 66.6017C362.755 65.5534 361.914 65.043 360.907 65.043C359.638 65.043 358.934 65.8154 358.797 66.9742H357.362C357.514 65.1395 358.81 63.8981 360.976 63.8981C362.673 63.8981 364.259 64.6154 364.259 66.4776C364.259 67.4845 363.68 68.3398 362.7 68.7674C364.052 69.2226 364.521 70.2158 364.521 71.2503C364.521 73.2781 362.797 74.2574 360.838 74.2574C358.507 74.2574 357.348 72.7677 357.224 71.0572H358.659C358.81 72.2159 359.5 73.0987 360.866 73.0987C362.107 73.0987 363.018 72.4366 363.018 71.2779ZM367.456 74.0781V66.3534H365.18V65.374C366.628 65.3189 367.345 65.1671 367.87 64.0774H368.904V74.0781H367.456Z" fill="black"/>
<path d="M161.352 71.2779C161.352 69.9123 160.193 69.4571 158.648 69.4571H158.303V68.2018H158.593C160.248 68.2018 161.09 67.7052 161.09 66.6017C161.09 65.5534 160.248 65.043 159.241 65.043C157.972 65.043 157.269 65.8154 157.131 66.9742H155.696C155.848 65.1395 157.145 63.8981 159.31 63.8981C161.007 63.8981 162.593 64.6154 162.593 66.4776C162.593 67.4845 162.014 68.3398 161.034 68.7674C162.386 69.2226 162.855 70.2158 162.855 71.2503C162.855 73.2781 161.131 74.2574 159.172 74.2574C156.841 74.2574 155.682 72.7677 155.558 71.0572H156.993C157.145 72.2159 157.834 73.0987 159.2 73.0987C160.441 73.0987 161.352 72.4366 161.352 71.2779ZM164.038 69.0709C164.038 65.9534 165.307 63.8981 167.969 63.8981C170.646 63.8981 171.901 65.9534 171.901 69.0709C171.901 72.2021 170.646 74.2574 167.969 74.2574C165.307 74.2574 164.038 72.2021 164.038 69.0709ZM170.383 69.0709C170.383 66.4224 169.487 65.043 167.969 65.043C166.466 65.043 165.556 66.4224 165.556 69.0709C165.556 71.7331 166.466 73.0987 167.969 73.0987C169.487 73.0987 170.383 71.7331 170.383 69.0709Z" fill="black"/>
<path d="M605.229 69.0709C605.229 65.9534 606.498 63.8981 609.16 63.8981C611.836 63.8981 613.091 65.9534 613.091 69.0709C613.091 72.2021 611.836 74.2574 609.16 74.2574C606.498 74.2574 605.229 72.2021 605.229 69.0709ZM611.574 69.0709C611.574 66.4224 610.677 65.043 609.16 65.043C607.656 65.043 606.746 66.4224 606.746 69.0709C606.746 71.7331 607.656 73.0987 609.16 73.0987C610.677 73.0987 611.574 71.7331 611.574 69.0709ZM616.073 74.0781V66.3534H613.797V65.374C615.246 65.3189 615.963 65.1671 616.487 64.0774H617.522V74.0781H616.073Z" fill="black"/>
<path d="M113.799 210.957H40V235.589H113.799V210.957Z" fill="#F5F5F5"/>
<path d="M64.9407 217.784C68.1134 217.784 70.4584 218.929 70.4584 222.778C70.4584 226.64 68.1134 227.785 64.9407 227.785H62.2095V217.784H64.9407ZM64.8718 219.081H63.782V226.489H64.8718C66.8719 226.489 68.8307 226.075 68.8307 222.778C68.8307 219.495 66.8719 219.081 64.8718 219.081ZM71.5581 225.785C71.5581 223.978 73.6824 223.495 76.5654 223.192V223.04C76.5654 221.73 75.8757 221.288 74.9653 221.288C73.9721 221.288 73.4065 221.799 73.3514 222.709H71.903C72.0271 221.136 73.3238 220.185 75.0204 220.185C76.9378 220.185 78.0414 221.109 78.0138 223.33C78.0138 223.509 77.9862 224.792 77.9862 225.109C77.9862 226.213 78.0552 227.123 78.1931 227.785H76.8137C76.7585 227.495 76.7171 227.275 76.6895 226.806C76.2481 227.551 75.4067 227.964 74.2066 227.964C72.703 227.964 71.5581 227.137 71.5581 225.785ZM76.6344 224.254C74.3307 224.475 73.1169 224.792 73.1169 225.757C73.1169 226.433 73.6548 226.861 74.5239 226.861C75.7102 226.861 76.6344 226.268 76.6344 224.792V224.254ZM79.3459 230.199V229.054H79.9114C80.6839 229.054 81.015 228.999 81.3736 227.937L81.4288 227.771L78.7527 220.364H80.3391L82.1323 225.895L83.8841 220.364H85.3739L82.753 227.951C82.1461 229.703 81.7047 230.199 80.0356 230.199H79.3459ZM90.5265 222.433C90.3196 221.674 89.6851 221.371 88.8437 221.371C88.1402 221.371 87.3815 221.661 87.3815 222.268C87.3815 222.819 87.7401 223.054 88.416 223.192L89.4782 223.399C90.8852 223.675 92.1129 224.157 92.1129 225.606C92.1129 227.109 90.7059 227.964 88.9954 227.964C87.1194 227.964 85.9745 226.875 85.7952 225.482H87.2573C87.4505 226.323 88.0022 226.82 89.0368 226.82C89.961 226.82 90.6783 226.433 90.6783 225.771C90.6783 225.082 90.03 224.806 89.2575 224.654L88.1402 224.433C87.0228 224.212 85.9745 223.716 85.9745 222.323C85.9745 221.012 87.3539 220.212 88.9816 220.212C90.4714 220.212 91.6715 220.998 91.9473 222.433H90.5265Z" fill="black"/>
<path d="M113.799 82.8672H40V107.5H113.799V82.8672Z" fill="#F5F5F5"/>
<path d="M58.0917 99.6953L55.4295 91.2809V99.6953H53.8845V89.6946H56.4089L58.9056 97.8607L61.4023 89.6946H63.9267V99.6953H62.3817V91.2809L59.7194 99.6953H58.0917ZM72.6958 96.0123C72.6958 98.6883 70.8474 99.8746 69.0818 99.8746C67.3299 99.8746 65.4815 98.6883 65.4815 96.0123C65.4815 93.3224 67.3299 92.1361 69.0818 92.1361C70.8474 92.1361 72.6958 93.3224 72.6958 96.0123ZM69.0818 98.6608C70.1715 98.6608 71.1785 97.8193 71.1785 96.0123C71.1785 94.1639 70.1715 93.35 69.0818 93.35C68.0058 93.35 66.9989 94.1363 66.9989 96.0123C66.9989 97.8469 68.0058 98.6608 69.0818 98.6608ZM75.5625 93.35C75.9901 92.6189 76.735 92.1361 77.8937 92.1361C79.687 92.1361 80.3767 93.2948 80.3767 95.0191V99.6953H78.9421V95.4053C78.9421 94.3294 78.7628 93.3362 77.4109 93.3362C76.1695 93.3362 75.5625 94.2328 75.5625 95.7088V99.6953H74.1279V92.2741H75.5625V93.35ZM82.4597 90.3705H83.8943V92.2741H85.3565V93.3638H83.8943V97.5986C83.8943 98.3573 84.0184 98.5504 84.7357 98.5504H85.3427V99.6953H84.2943C82.7908 99.6953 82.4597 99.3229 82.4597 97.7917V93.3638H81.3286V92.2741H82.4597V90.3705ZM88.3194 93.35C88.747 92.6189 89.4919 92.1361 90.6506 92.1361C92.4438 92.1361 93.1335 93.2948 93.1335 95.0191V99.6953H91.699V95.4053C91.699 94.3294 91.5196 93.3362 90.1678 93.3362C88.9263 93.3362 88.3194 94.2328 88.3194 95.7088V99.6953H86.8848V89.6946H88.3194V93.35ZM99.1479 94.3432C98.941 93.5845 98.3064 93.281 97.465 93.281C96.7615 93.281 96.0028 93.5707 96.0028 94.1777C96.0028 94.7294 96.3615 94.9639 97.0374 95.1019L98.0995 95.3088C99.5065 95.5847 100.734 96.0675 100.734 97.5158C100.734 99.0194 99.3272 99.8746 97.6167 99.8746C95.7407 99.8746 94.5958 98.7849 94.4165 97.3917H95.8787C96.0718 98.2331 96.6236 98.7297 97.6581 98.7297C98.5823 98.7297 99.2996 98.3435 99.2996 97.6814C99.2996 96.9917 98.6513 96.7158 97.8788 96.564L96.7615 96.3433C95.6442 96.1226 94.5958 95.626 94.5958 94.2328C94.5958 92.9224 95.9752 92.1223 97.6029 92.1223C99.0927 92.1223 100.293 92.9086 100.569 94.3432H99.1479Z" fill="black"/>
<path d="M512.35 82.8672H114.784V107.5H512.35V82.8672Z" fill="#FF6900"/>
<path d="M283.601 89.6946C286.774 89.6946 289.119 90.8395 289.119 94.688C289.119 98.5504 286.774 99.6953 283.601 99.6953H280.87V89.6946H283.601ZM283.532 90.9912H282.442V98.3987H283.532C285.532 98.3987 287.491 97.9848 287.491 94.688C287.491 91.405 285.532 90.9912 283.532 90.9912ZM295.871 97.5158H297.319C296.974 98.7435 295.871 99.8746 293.981 99.8746C291.581 99.8746 290.284 98.1228 290.284 95.9709C290.284 93.6673 291.829 92.1361 293.939 92.1361C296.229 92.1361 297.567 94.0121 297.416 96.4261H291.76C291.898 97.7917 292.767 98.647 293.926 98.647C294.96 98.647 295.567 98.2193 295.871 97.5158ZM291.788 95.295H295.926C295.884 94.1915 295.112 93.3086 293.926 93.3086C292.808 93.3086 291.981 93.888 291.788 95.295ZM305.18 94.7846H303.746C303.594 93.9432 302.835 93.3638 301.897 93.3638C300.863 93.3638 299.911 94.1777 299.911 95.9847C299.911 97.8193 300.877 98.647 301.897 98.647C302.808 98.647 303.608 98.109 303.801 97.2262H305.249C304.96 98.7849 303.511 99.8746 301.87 99.8746C299.732 99.8746 298.38 98.2331 298.38 95.9985C298.38 93.7914 299.773 92.1361 301.966 92.1361C303.663 92.1361 304.96 93.3362 305.18 94.7846ZM311.739 97.5158H313.188C312.843 98.7435 311.739 99.8746 309.849 99.8746C307.449 99.8746 306.153 98.1228 306.153 95.9709C306.153 93.6673 307.698 92.1361 309.808 92.1361C312.098 92.1361 313.436 94.0121 313.284 96.4261H307.629C307.767 97.7917 308.636 98.647 309.794 98.647C310.829 98.647 311.436 98.2193 311.739 97.5158ZM307.656 95.295H311.794C311.753 94.1915 310.981 93.3086 309.794 93.3086C308.677 93.3086 307.849 93.888 307.656 95.295ZM316.126 99.6953H314.692V92.2741H316.126V93.35C316.554 92.6189 317.257 92.1361 318.319 92.1361C319.464 92.1361 320.14 92.6189 320.471 93.4466C321.092 92.5224 321.961 92.1361 322.927 92.1361C324.665 92.1361 325.341 93.2948 325.341 95.0191V99.6953H323.906V95.4053C323.906 94.3294 323.741 93.3362 322.444 93.3362C321.313 93.3362 320.733 94.2328 320.733 95.7088V99.6953H319.299V95.4053C319.299 94.3294 319.133 93.3362 317.837 93.3362C316.692 93.3362 316.126 94.2328 316.126 95.7088V99.6953ZM328.587 89.6946V93.3638C329.042 92.6051 329.814 92.1361 330.904 92.1361C332.628 92.1361 334.104 93.5845 334.104 95.9985C334.104 98.4263 332.628 99.8746 330.904 99.8746C329.814 99.8746 329.042 99.4056 328.587 98.647V99.6953H327.152V89.6946H328.587ZM330.573 98.6745C331.759 98.6745 332.573 97.6676 332.573 95.9985C332.573 94.3294 331.759 93.3362 330.573 93.3362C329.47 93.3362 328.532 94.1639 328.532 95.9985C328.532 97.8331 329.47 98.6745 330.573 98.6745ZM340.715 97.5158H342.163C341.819 98.7435 340.715 99.8746 338.825 99.8746C336.425 99.8746 335.128 98.1228 335.128 95.9709C335.128 93.6673 336.673 92.1361 338.784 92.1361C341.074 92.1361 342.412 94.0121 342.26 96.4261H336.604C336.742 97.7917 337.611 98.647 338.77 98.647C339.805 98.647 340.412 98.2193 340.715 97.5158ZM336.632 95.295H340.77C340.729 94.1915 339.956 93.3086 338.77 93.3086C337.653 93.3086 336.825 93.888 336.632 95.295ZM347.53 93.75C347.268 93.7225 347.019 93.7087 346.785 93.7087C345.681 93.7087 345.102 94.2466 345.102 95.8054V99.6953H343.667V92.2741H345.074V93.5845C345.461 92.7431 346.205 92.2603 347.13 92.2465C347.254 92.2465 347.406 92.2465 347.53 92.2603V93.75Z" fill="black"/>
<path d="M586.333 96.4675H587.85C587.85 97.8607 588.581 98.5918 589.616 98.5918C590.54 98.5918 591.313 98.0262 591.313 96.4123V89.6946H592.885V96.4261C592.885 98.5918 591.685 99.8746 589.616 99.8746C587.533 99.8746 586.333 98.6332 586.333 96.4675ZM594.451 97.6952C594.451 95.8881 596.575 95.4053 599.458 95.1019V94.9501C599.458 93.6397 598.769 93.1983 597.858 93.1983C596.865 93.1983 596.299 93.7087 596.244 94.6191H594.796C594.92 93.0465 596.217 92.0948 597.913 92.0948C599.831 92.0948 600.934 93.019 600.907 95.2398C600.907 95.4191 600.879 96.702 600.879 97.0193C600.879 98.1228 600.948 99.0332 601.086 99.6953H599.707C599.651 99.4056 599.61 99.1849 599.582 98.7159C599.141 99.4608 598.3 99.8746 597.1 99.8746C595.596 99.8746 594.451 99.047 594.451 97.6952ZM599.527 96.164C597.224 96.3847 596.01 96.702 596.01 97.6676C596.01 98.3435 596.548 98.7711 597.417 98.7711C598.603 98.7711 599.527 98.178 599.527 96.702V96.164ZM604.113 93.35C604.541 92.6189 605.286 92.1361 606.444 92.1361C608.238 92.1361 608.927 93.2948 608.927 95.0191V99.6953H607.493V95.4053C607.493 94.3294 607.313 93.3362 605.962 93.3362C604.72 93.3362 604.113 94.2328 604.113 95.7088V99.6953H602.679V92.2741H604.113V93.35ZM615.3 98.647C614.873 99.3918 614.155 99.8746 613.038 99.8746C611.286 99.8746 610.61 98.7849 610.61 96.9917V92.2741H612.045V96.6054C612.045 97.6814 612.224 98.6608 613.521 98.6608C614.721 98.6608 615.314 97.7641 615.314 96.302V92.2741H616.749V99.6953H615.3V98.647ZM618.227 97.6952C618.227 95.8881 620.351 95.4053 623.234 95.1019V94.9501C623.234 93.6397 622.545 93.1983 621.634 93.1983C620.641 93.1983 620.075 93.7087 620.02 94.6191H618.572C618.696 93.0465 619.993 92.0948 621.689 92.0948C623.607 92.0948 624.71 93.019 624.683 95.2398C624.683 95.4191 624.655 96.702 624.655 97.0193C624.655 98.1228 624.724 99.0332 624.862 99.6953H623.483C623.427 99.4056 623.386 99.1849 623.358 98.7159C622.917 99.4608 622.076 99.8746 620.876 99.8746C619.372 99.8746 618.227 99.047 618.227 97.6952ZM623.303 96.164C621 96.3847 619.786 96.702 619.786 97.6676C619.786 98.3435 620.324 98.7711 621.193 98.7711C622.379 98.7711 623.303 98.178 623.303 96.702V96.164ZM630.317 93.75C630.055 93.7225 629.807 93.7087 629.572 93.7087C628.469 93.7087 627.889 94.2466 627.889 95.8054V99.6953H626.455V92.2741H627.862V93.5845C628.248 92.7431 628.993 92.2603 629.917 92.2465C630.041 92.2465 630.193 92.2465 630.317 92.2603V93.75ZM631.08 102.109V100.964H631.645C632.418 100.964 632.749 100.909 633.108 99.847L633.163 99.6815L630.487 92.2741H632.073L633.866 97.8055L635.618 92.2741H637.108L634.487 99.8608C633.88 101.613 633.439 102.109 631.77 102.109H631.08Z" fill="black"/>
<path d="M113.799 185.34H40V209.972H113.799V185.34Z" fill="#F5F5F5"/>
<path d="M58.0917 202.164L55.4295 193.75V202.164H53.8845V192.163H56.4089L58.9056 200.329L61.4023 192.163H63.9267V202.164H62.3817V193.75L59.7194 202.164H58.0917ZM72.6958 198.481C72.6958 201.157 70.8474 202.343 69.0818 202.343C67.3299 202.343 65.4815 201.157 65.4815 198.481C65.4815 195.791 67.3299 194.605 69.0818 194.605C70.8474 194.605 72.6958 195.791 72.6958 198.481ZM69.0818 201.13C70.1715 201.13 71.1785 200.288 71.1785 198.481C71.1785 196.633 70.1715 195.819 69.0818 195.819C68.0058 195.819 66.9989 196.605 66.9989 198.481C66.9989 200.316 68.0058 201.13 69.0818 201.13ZM75.5625 195.819C75.9901 195.088 76.735 194.605 77.8937 194.605C79.687 194.605 80.3767 195.764 80.3767 197.488V202.164H78.9421V197.874C78.9421 196.798 78.7628 195.805 77.4109 195.805C76.1695 195.805 75.5625 196.702 75.5625 198.178V202.164H74.1279V194.743H75.5625V195.819ZM82.4597 192.839H83.8943V194.743H85.3565V195.833H83.8943V200.067C83.8943 200.826 84.0184 201.019 84.7357 201.019H85.3427V202.164H84.2943C82.7908 202.164 82.4597 201.792 82.4597 200.26V195.833H81.3286V194.743H82.4597V192.839ZM88.3194 195.819C88.747 195.088 89.4919 194.605 90.6506 194.605C92.4438 194.605 93.1335 195.764 93.1335 197.488V202.164H91.699V197.874C91.699 196.798 91.5196 195.805 90.1678 195.805C88.9263 195.805 88.3194 196.702 88.3194 198.178V202.164H86.8848V192.163H88.3194V195.819ZM99.1479 196.812C98.941 196.053 98.3064 195.75 97.465 195.75C96.7615 195.75 96.0028 196.039 96.0028 196.646C96.0028 197.198 96.3615 197.433 97.0374 197.571L98.0995 197.778C99.5065 198.053 100.734 198.536 100.734 199.985C100.734 201.488 99.3272 202.343 97.6167 202.343C95.7407 202.343 94.5958 201.254 94.4165 199.86H95.8787C96.0718 200.702 96.6236 201.198 97.6581 201.198C98.5823 201.198 99.2996 200.812 99.2996 200.15C99.2996 199.46 98.6513 199.185 97.8788 199.033L96.7615 198.812C95.6442 198.591 94.5958 198.095 94.5958 196.702C94.5958 195.391 95.9752 194.591 97.6029 194.591C99.0927 194.591 100.293 195.377 100.569 196.812H99.1479Z" fill="black"/>
<path d="M383.651 43.1423V50.0462H387.802V51H382.545V43.1423H383.651ZM389.204 48.1062C389.204 49.6669 390.05 50.2738 390.949 50.2738C391.849 50.2738 392.694 49.6019 392.694 48.1062C392.694 46.5455 391.849 45.9385 390.949 45.9385C390.05 45.9385 389.204 46.513 389.204 48.1062ZM390.949 45.0715C392.304 45.0715 393.746 45.9927 393.746 48.1062C393.746 50.2196 392.304 51.1409 390.949 51.1409C389.595 51.1409 388.153 50.2196 388.153 48.1062C388.153 45.9927 389.595 45.0715 390.949 45.0715ZM399.293 46.8706H398.264C398.101 46.177 397.581 45.906 396.887 45.906C396.313 45.906 395.662 46.112 395.662 46.643C395.662 47.1091 395.987 47.315 396.551 47.4342L397.375 47.5968C398.437 47.7919 399.369 48.2146 399.369 49.3309C399.369 50.4906 398.329 51.1409 396.995 51.1409C395.467 51.1409 394.611 50.1329 394.492 49.1141H395.532C395.695 49.862 396.15 50.3064 397.017 50.3064C397.765 50.3064 398.372 49.992 398.372 49.4393C398.372 48.8432 397.819 48.6156 397.191 48.4747L396.323 48.3013C395.532 48.1279 394.665 47.781 394.665 46.6864C394.665 45.6567 395.706 45.0606 396.995 45.0606C398.264 45.0606 399.109 45.7543 399.293 46.8706ZM402.411 51L405.327 43.1423H406.606L409.564 51H408.372L407.755 49.2984H404.145L403.538 51H402.411ZM405.934 44.2586L404.481 48.3555H407.408L405.934 44.2586ZM411.333 45.169V46.0469C411.669 45.4942 412.232 45.0715 413.219 45.0715C414.628 45.0715 415.137 45.9819 415.137 47.315V51H414.151V47.6076C414.151 46.7081 413.999 45.9277 412.872 45.9277C411.918 45.9277 411.333 46.578 411.333 47.8352V51H410.347V45.169H411.333ZM420.536 46.0903V45.169H421.522V50.2196C421.522 51.401 421.305 51.8996 420.969 52.2681C420.547 52.7558 419.821 53.0376 418.953 53.0376C417.62 53.0376 416.742 52.4306 416.558 51.2493H417.61C417.729 51.7695 418.065 52.1705 418.964 52.1705C419.495 52.1705 419.886 52.0296 420.156 51.737C420.362 51.4986 420.536 51.2493 420.536 50.4472V49.8945C420.178 50.5123 419.625 50.9025 418.682 50.9025C417.393 50.9025 416.211 49.862 416.211 47.987C416.211 46.1228 417.393 45.0715 418.682 45.0715C419.625 45.0715 420.178 45.4725 420.536 46.0903ZM420.579 47.987C420.579 46.513 419.799 45.9169 418.932 45.9169C417.967 45.9169 417.284 46.6539 417.284 47.987C417.284 49.3309 417.967 50.0679 418.932 50.0679C419.799 50.0679 420.579 49.4718 420.579 47.987ZM428.228 48.4097H423.74C423.773 49.6669 424.683 50.2738 425.54 50.2738C426.407 50.2738 426.884 49.8837 427.133 49.3092H428.152C427.892 50.3064 426.959 51.1409 425.54 51.1409C423.697 51.1409 422.678 49.8186 422.678 48.0954C422.678 46.242 423.914 45.0715 425.507 45.0715C427.295 45.0715 428.347 46.5563 428.228 48.4097ZM425.507 45.9169C424.64 45.9169 423.838 46.3938 423.751 47.5643H427.187C427.155 46.7406 426.558 45.9169 425.507 45.9169ZM430.363 43.1423V51H429.377V43.1423H430.363ZM437.076 48.4097H432.589C432.621 49.6669 433.532 50.2738 434.388 50.2738C435.255 50.2738 435.732 49.8837 435.981 49.3092H437C436.74 50.3064 435.808 51.1409 434.388 51.1409C432.546 51.1409 431.527 49.8186 431.527 48.0954C431.527 46.242 432.762 45.0715 434.356 45.0715C436.144 45.0715 437.195 46.5563 437.076 48.4097ZM434.356 45.9169C433.488 45.9169 432.686 46.3938 432.6 47.5643H436.035C436.003 46.7406 435.407 45.9169 434.356 45.9169ZM442.614 46.8706H441.585C441.422 46.177 440.902 45.906 440.208 45.906C439.634 45.906 438.984 46.112 438.984 46.643C438.984 47.1091 439.309 47.315 439.872 47.4342L440.696 47.5968C441.758 47.7919 442.69 48.2146 442.69 49.3309C442.69 50.4906 441.65 51.1409 440.317 51.1409C438.788 51.1409 437.932 50.1329 437.813 49.1141H438.853C439.016 49.862 439.471 50.3064 440.338 50.3064C441.086 50.3064 441.693 49.992 441.693 49.4393C441.693 48.8432 441.14 48.6156 440.512 48.4747L439.645 48.3013C438.853 48.1279 437.986 47.781 437.986 46.6864C437.986 45.6567 439.027 45.0606 440.317 45.0606C441.585 45.0606 442.43 45.7543 442.614 46.8706Z" fill="#A0A0A0"/>
<path d="M113.799 108.484H40V133.117H113.799V108.484Z" fill="#F5F5F5"/>
<path d="M60.2785 115.316L62.8993 120.006L65.5754 115.316H67.3135L63.6442 121.44V125.316H62.0717V121.413L58.5266 115.316H60.2785ZM72.0858 123.137H73.5342C73.1893 124.365 72.0858 125.496 70.196 125.496C67.7958 125.496 66.4992 123.744 66.4992 121.592C66.4992 119.288 68.0441 117.757 70.1546 117.757C72.4444 117.757 73.7825 119.633 73.6307 122.047H67.9751C68.1131 123.413 68.9821 124.268 70.1408 124.268C71.1754 124.268 71.7823 123.84 72.0858 123.137ZM68.0027 120.916H72.141C72.0996 119.813 71.3271 118.93 70.1408 118.93C69.0235 118.93 68.1959 119.509 68.0027 120.916ZM74.5294 123.316C74.5294 121.509 76.6537 121.026 79.5367 120.723V120.571C79.5367 119.261 78.847 118.819 77.9365 118.819C76.9434 118.819 76.3778 119.33 76.3226 120.24H74.8743C74.9984 118.668 76.295 117.716 77.9917 117.716C79.9091 117.716 81.0126 118.64 80.985 120.861C80.985 121.04 80.9575 122.323 80.9575 122.64C80.9575 123.744 81.0264 124.654 81.1644 125.316H79.785C79.7298 125.027 79.6884 124.806 79.6608 124.337C79.2194 125.082 78.378 125.496 77.1779 125.496C75.6743 125.496 74.5294 124.668 74.5294 123.316ZM79.6056 121.785C77.302 122.006 76.0881 122.323 76.0881 123.289C76.0881 123.965 76.6261 124.392 77.4951 124.392C78.6814 124.392 79.6056 123.799 79.6056 122.323V121.785ZM86.6193 119.371C86.3572 119.344 86.1089 119.33 85.8744 119.33C84.7709 119.33 84.1915 119.868 84.1915 121.426V125.316H82.7569V117.895H84.1639V119.206C84.5502 118.364 85.2951 117.881 86.2193 117.868C86.3434 117.868 86.4952 117.868 86.6193 117.881V119.371ZM91.9083 119.964C91.7014 119.206 91.0668 118.902 90.2254 118.902C89.5219 118.902 88.7632 119.192 88.7632 119.799C88.7632 120.351 89.1219 120.585 89.7978 120.723L90.8599 120.93C92.2669 121.206 93.4946 121.689 93.4946 123.137C93.4946 124.64 92.0876 125.496 90.3771 125.496C88.5011 125.496 87.3562 124.406 87.1769 123.013H88.6391C88.8322 123.854 89.3839 124.351 90.4185 124.351C91.3427 124.351 92.06 123.965 92.06 123.302C92.06 122.613 91.4117 122.337 90.6392 122.185L89.5219 121.964C88.4046 121.744 87.3562 121.247 87.3562 119.854C87.3562 118.543 88.7356 117.743 90.3633 117.743C91.8531 117.743 93.0532 118.53 93.3291 119.964H91.9083Z" fill="black"/>
<path d="M512.35 108.484H114.784V133.117H512.35V108.484Z" fill="#2EAFFF"/>
<path d="M300.774 125.316V117.592H298.498V116.612C299.947 116.557 300.664 116.405 301.188 115.316H302.223V125.316H300.774ZM309.731 120.695C309.276 121.413 308.434 121.978 307.207 121.978C305.358 121.978 303.937 120.613 303.937 118.557C303.937 116.64 305.372 115.136 307.51 115.136C310.048 115.136 311.207 116.985 311.207 119.992C311.207 122.847 310.159 125.496 307.262 125.496C305.248 125.496 304.282 124.213 304.117 122.902H305.62C305.758 123.84 306.434 124.337 307.4 124.337C308.848 124.337 309.676 122.889 309.731 120.695ZM307.524 116.281C306.296 116.281 305.441 117.164 305.441 118.516C305.441 119.868 306.296 120.778 307.51 120.778C308.724 120.778 309.579 119.868 309.579 118.516C309.579 117.164 308.752 116.281 307.524 116.281ZM313.915 119.937C314.371 119.219 315.198 118.654 316.44 118.654C318.288 118.654 319.709 120.019 319.709 122.061C319.709 123.992 318.274 125.496 316.136 125.496C313.598 125.496 312.439 123.647 312.439 120.64C312.439 117.785 313.474 115.136 316.385 115.136C318.398 115.136 319.364 116.419 319.53 117.73H318.026C317.888 116.792 317.198 116.281 316.247 116.281C314.784 116.281 313.971 117.743 313.915 119.937ZM316.122 124.337C317.336 124.337 318.205 123.454 318.205 122.116C318.205 120.764 317.35 119.854 316.136 119.854C314.909 119.854 314.053 120.764 314.053 122.116C314.053 123.468 314.895 124.337 316.122 124.337ZM326.65 120.695C326.195 121.413 325.354 121.978 324.126 121.978C322.278 121.978 320.857 120.613 320.857 118.557C320.857 116.64 322.291 115.136 324.429 115.136C326.968 115.136 328.126 116.985 328.126 119.992C328.126 122.847 327.078 125.496 324.181 125.496C322.167 125.496 321.202 124.213 321.036 122.902H322.54C322.678 123.84 323.353 124.337 324.319 124.337C325.767 124.337 326.595 122.889 326.65 120.695ZM324.443 116.281C323.216 116.281 322.36 117.164 322.36 118.516C322.36 119.868 323.216 120.778 324.429 120.778C325.643 120.778 326.499 119.868 326.499 118.516C326.499 117.164 325.671 116.281 324.443 116.281Z" fill="black"/>
<path d="M599.284 125.316V117.592H597.008V116.612C598.456 116.557 599.173 116.405 599.698 115.316H600.732V125.316H599.284ZM608.24 120.695C607.785 121.413 606.944 121.978 605.716 121.978C603.868 121.978 602.447 120.613 602.447 118.557C602.447 116.64 603.881 115.136 606.02 115.136C608.558 115.136 609.716 116.985 609.716 119.992C609.716 122.847 608.668 125.496 605.771 125.496C603.757 125.496 602.792 124.213 602.626 122.902H604.13C604.268 123.84 604.944 124.337 605.909 124.337C607.358 124.337 608.185 122.889 608.24 120.695ZM606.033 116.281C604.806 116.281 603.95 117.164 603.95 118.516C603.95 119.868 604.806 120.778 606.02 120.778C607.233 120.778 608.089 119.868 608.089 118.516C608.089 117.164 607.261 116.281 606.033 116.281ZM610.397 115.316H617.446V116.626C614.949 118.819 613.487 121.606 613.266 125.316H611.583C611.777 121.758 613.446 118.764 615.86 116.626H610.397V115.316ZM617.927 120.309C617.927 117.192 619.196 115.136 621.858 115.136C624.534 115.136 625.789 117.192 625.789 120.309C625.789 123.44 624.534 125.496 621.858 125.496C619.196 125.496 617.927 123.44 617.927 120.309ZM624.272 120.309C624.272 117.661 623.375 116.281 621.858 116.281C620.355 116.281 619.444 117.661 619.444 120.309C619.444 122.971 620.355 124.337 621.858 124.337C623.375 124.337 624.272 122.971 624.272 120.309Z" fill="black"/>
<path d="M113.799 159.723H40V184.355H113.799V159.723Z" fill="#F5F5F5"/>
<path d="M60.2785 166.55L62.8993 171.24L65.5754 166.55H67.3135L63.6442 172.675V176.551H62.0717V172.647L58.5266 166.55H60.2785ZM72.0858 174.371H73.5342C73.1893 175.599 72.0858 176.73 70.196 176.73C67.7958 176.73 66.4992 174.978 66.4992 172.826C66.4992 170.523 68.0441 168.992 70.1546 168.992C72.4444 168.992 73.7825 170.868 73.6307 173.282H67.9751C68.1131 174.647 68.9821 175.502 70.1408 175.502C71.1754 175.502 71.7823 175.075 72.0858 174.371ZM68.0027 172.15H72.141C72.0996 171.047 71.3271 170.164 70.1408 170.164C69.0235 170.164 68.1959 170.743 68.0027 172.15ZM74.5294 174.551C74.5294 172.744 76.6537 172.261 79.5367 171.957V171.806C79.5367 170.495 78.847 170.054 77.9365 170.054C76.9434 170.054 76.3778 170.564 76.3226 171.475H74.8743C74.9984 169.902 76.295 168.95 77.9917 168.95C79.9091 168.95 81.0126 169.874 80.985 172.095C80.985 172.275 80.9575 173.557 80.9575 173.875C80.9575 174.978 81.0264 175.889 81.1644 176.551H79.785C79.7298 176.261 79.6884 176.04 79.6608 175.571C79.2194 176.316 78.378 176.73 77.1779 176.73C75.6743 176.73 74.5294 175.902 74.5294 174.551ZM79.6056 173.019C77.302 173.24 76.0881 173.557 76.0881 174.523C76.0881 175.199 76.6261 175.627 77.4951 175.627C78.6814 175.627 79.6056 175.033 79.6056 173.557V173.019ZM86.6193 170.606C86.3572 170.578 86.1089 170.564 85.8744 170.564C84.7709 170.564 84.1915 171.102 84.1915 172.661V176.551H82.7569V169.13H84.1639V170.44C84.5502 169.599 85.2951 169.116 86.2193 169.102C86.3434 169.102 86.4952 169.102 86.6193 169.116V170.606ZM91.9083 171.199C91.7014 170.44 91.0668 170.137 90.2254 170.137C89.5219 170.137 88.7632 170.426 88.7632 171.033C88.7632 171.585 89.1219 171.819 89.7978 171.957L90.8599 172.164C92.2669 172.44 93.4946 172.923 93.4946 174.371C93.4946 175.875 92.0876 176.73 90.3771 176.73C88.5011 176.73 87.3562 175.64 87.1769 174.247H88.6391C88.8322 175.089 89.3839 175.585 90.4185 175.585C91.3427 175.585 92.06 175.199 92.06 174.537C92.06 173.847 91.4117 173.571 90.6392 173.42L89.5219 173.199C88.4046 172.978 87.3562 172.482 87.3562 171.088C87.3562 169.778 88.7356 168.978 90.3633 168.978C91.8531 168.978 93.0532 169.764 93.3291 171.199H91.9083Z" fill="black"/>
<path d="M53.9607 150.934H52.3882V140.933H53.9607V150.934ZM57.4701 144.588C57.8978 143.857 58.6426 143.374 59.8014 143.374C61.5946 143.374 62.2843 144.533 62.2843 146.257V150.934H60.8497V146.644C60.8497 145.568 60.6704 144.575 59.3186 144.575C58.0771 144.575 57.4701 145.471 57.4701 146.947V150.934H56.0356V143.512H57.4701V144.588ZM68.2986 145.581C68.0917 144.823 67.4572 144.519 66.6158 144.519C65.9123 144.519 65.1536 144.809 65.1536 145.416C65.1536 145.968 65.5122 146.202 66.1881 146.34L67.2503 146.547C68.6573 146.823 69.885 147.306 69.885 148.754C69.885 150.258 68.478 151.113 66.7675 151.113C64.8915 151.113 63.7466 150.023 63.5673 148.63H65.0294C65.2225 149.471 65.7743 149.968 66.8089 149.968C67.7331 149.968 68.4504 149.582 68.4504 148.92C68.4504 148.23 67.802 147.954 67.0296 147.802L65.9123 147.582C64.7949 147.361 63.7466 146.864 63.7466 145.471C63.7466 144.161 65.126 143.361 66.7537 143.361C68.2435 143.361 69.4435 144.147 69.7194 145.581H68.2986ZM71.6146 141.609H73.0492V143.512H74.5114V144.602H73.0492V148.837C73.0492 149.596 73.1733 149.789 73.8906 149.789H74.4976V150.934H73.4492C71.9457 150.934 71.6146 150.561 71.6146 149.03V144.602H70.4835V143.512H71.6146V141.609ZM75.4636 148.933C75.4636 147.126 77.5879 146.644 80.4709 146.34V146.188C80.4709 144.878 79.7812 144.437 78.8707 144.437C77.8776 144.437 77.312 144.947 77.2568 145.857H75.8085C75.9326 144.285 77.2292 143.333 78.9259 143.333C80.8433 143.333 81.9468 144.257 81.9192 146.478C81.9192 146.657 81.8917 147.94 81.8917 148.258C81.8917 149.361 81.9606 150.271 82.0986 150.934H80.7192C80.664 150.644 80.6226 150.423 80.595 149.954C80.1536 150.699 79.3122 151.113 78.1121 151.113C76.6085 151.113 75.4636 150.285 75.4636 148.933ZM80.5398 147.402C78.2362 147.623 77.0223 147.94 77.0223 148.906C77.0223 149.582 77.5603 150.009 78.4293 150.009C79.6156 150.009 80.5398 149.416 80.5398 147.94V147.402ZM85.1257 144.588C85.5533 143.857 86.2982 143.374 87.4569 143.374C89.2502 143.374 89.9399 144.533 89.9399 146.257V150.934H88.5053V146.644C88.5053 145.568 88.326 144.575 86.9741 144.575C85.7327 144.575 85.1257 145.471 85.1257 146.947V150.934H83.6911V143.512H85.1257V144.588ZM92.0229 141.609H93.4575V143.512H94.9197V144.602H93.4575V148.837C93.4575 149.596 93.5816 149.789 94.2989 149.789H94.9059V150.934H93.8575C92.354 150.934 92.0229 150.561 92.0229 149.03V144.602H90.8918V143.512H92.0229V141.609ZM100.534 145.581C100.327 144.823 99.6929 144.519 98.8514 144.519C98.1479 144.519 97.3892 144.809 97.3892 145.416C97.3892 145.968 97.7479 146.202 98.4238 146.34L99.4859 146.547C100.893 146.823 102.121 147.306 102.121 148.754C102.121 150.258 100.714 151.113 99.0032 151.113C97.1272 151.113 95.9822 150.023 95.8029 148.63H97.2651C97.4582 149.471 98.01 149.968 99.0445 149.968C99.9687 149.968 100.686 149.582 100.686 148.92C100.686 148.23 100.038 147.954 99.2652 147.802L98.1479 147.582C97.0306 147.361 95.9822 146.864 95.9822 145.471C95.9822 144.161 97.3617 143.361 98.9894 143.361C100.479 143.361 101.679 144.147 101.955 145.581H100.534Z" fill="black"/>
<path d="M698.965 140.016L706.354 146.42L698.965 152.824" stroke="#D1D1D1" stroke-width="0.985294" stroke-miterlimit="10"/>
<path d="M118.922 146.418H705.763" stroke="#D1D1D1" stroke-width="0.985294" stroke-miterlimit="10"/>
<path d="M125.622 152.824L118.233 146.42L125.622 140.016" stroke="#D1D1D1" stroke-width="0.985294" stroke-miterlimit="10"/>
<path d="M412.441 150.757C414.835 150.757 416.776 148.816 416.776 146.421C416.776 144.027 414.835 142.086 412.441 142.086C410.046 142.086 408.105 144.027 408.105 146.421C408.105 148.816 410.046 150.757 412.441 150.757Z" fill="#D1D1D1"/>
<path d="M401.667 242.213H402.773V246.992C402.773 248.542 403.325 249.257 404.799 249.257C406.306 249.257 406.859 248.423 406.859 246.873V242.213H407.964V246.786C407.964 249.084 407.086 250.211 404.799 250.211C402.621 250.211 401.667 249.322 401.667 246.873V242.213ZM411.34 250.07V243.166H408.782V242.213H415.003V243.166H412.445V250.07H411.34ZM421.041 247.567H422.114C421.767 249.301 420.413 250.211 418.711 250.211C416.457 250.211 415.145 248.51 415.145 246.125C415.145 243.697 416.587 242.072 418.798 242.072C420.424 242.072 421.724 243.036 422.071 244.716H420.998C420.77 243.73 419.99 243.004 418.744 243.004C417.356 243.004 416.272 244.088 416.272 246.125C416.272 248.119 417.313 249.279 418.776 249.279C420.033 249.279 420.792 248.575 421.041 247.567Z" fill="#A0A0A0"/>
<path d="M411.85 159.723H114.784V184.355H411.85V159.723Z" fill="#2EAFFF"/>
<path d="M250.526 176.551V168.826H248.25V167.847C249.699 167.792 250.416 167.64 250.94 166.55H251.975V176.551H250.526ZM259.483 171.93C259.028 172.647 258.186 173.213 256.959 173.213C255.11 173.213 253.689 171.847 253.689 169.792C253.689 167.874 255.124 166.371 257.262 166.371C259.8 166.371 260.959 168.219 260.959 171.226C260.959 174.082 259.91 176.73 257.014 176.73C255 176.73 254.034 175.447 253.869 174.137H255.372C255.51 175.075 256.186 175.571 257.152 175.571C258.6 175.571 259.428 174.123 259.483 171.93ZM257.276 167.516C256.048 167.516 255.193 168.398 255.193 169.75C255.193 171.102 256.048 172.013 257.262 172.013C258.476 172.013 259.331 171.102 259.331 169.75C259.331 168.398 258.503 167.516 257.276 167.516ZM263.667 171.171C264.123 170.454 264.95 169.888 266.192 169.888C268.04 169.888 269.461 171.254 269.461 173.295C269.461 175.227 268.026 176.73 265.888 176.73C263.35 176.73 262.191 174.882 262.191 171.875C262.191 169.019 263.226 166.371 266.136 166.371C268.15 166.371 269.116 167.654 269.282 168.964H267.778C267.64 168.026 266.95 167.516 265.999 167.516C264.536 167.516 263.723 168.978 263.667 171.171ZM265.874 175.571C267.088 175.571 267.957 174.689 267.957 173.351C267.957 171.999 267.102 171.088 265.888 171.088C264.661 171.088 263.805 171.999 263.805 173.351C263.805 174.702 264.647 175.571 265.874 175.571ZM276.402 171.93C275.947 172.647 275.106 173.213 273.878 173.213C272.029 173.213 270.609 171.847 270.609 169.792C270.609 167.874 272.043 166.371 274.181 166.371C276.719 166.371 277.878 168.219 277.878 171.226C277.878 174.082 276.83 176.73 273.933 176.73C271.919 176.73 270.954 175.447 270.788 174.137H272.292C272.429 175.075 273.105 175.571 274.071 175.571C275.519 175.571 276.347 174.123 276.402 171.93ZM274.195 167.516C272.967 167.516 272.112 168.398 272.112 169.75C272.112 171.102 272.967 172.013 274.181 172.013C275.395 172.013 276.25 171.102 276.25 169.75C276.25 168.398 275.423 167.516 274.195 167.516Z" fill="black"/>
<path d="M411.85 185.34H114.784V209.972H411.85V185.34Z" fill="#FF6900"/>
<path d="M233.353 192.167C236.525 192.167 238.87 193.312 238.87 197.161C238.87 201.023 236.525 202.168 233.353 202.168H230.622V192.167H233.353ZM233.284 193.464H232.194V200.871H233.284C235.284 200.871 237.243 200.457 237.243 197.161C237.243 193.878 235.284 193.464 233.284 193.464ZM245.623 199.988H247.071C246.726 201.216 245.623 202.347 243.733 202.347C241.333 202.347 240.036 200.595 240.036 198.444C240.036 196.14 241.581 194.609 243.691 194.609C245.981 194.609 247.319 196.485 247.168 198.899H241.512C241.65 200.264 242.519 201.12 243.678 201.12C244.712 201.12 245.319 200.692 245.623 199.988ZM241.54 197.768H245.678C245.636 196.664 244.864 195.781 243.678 195.781C242.56 195.781 241.733 196.361 241.54 197.768ZM254.932 197.257H253.498C253.346 196.416 252.587 195.836 251.649 195.836C250.615 195.836 249.663 196.65 249.663 198.457C249.663 200.292 250.629 201.12 251.649 201.12C252.56 201.12 253.36 200.582 253.553 199.699H255.001C254.712 201.258 253.263 202.347 251.622 202.347C249.484 202.347 248.132 200.706 248.132 198.471C248.132 196.264 249.525 194.609 251.718 194.609C253.415 194.609 254.712 195.809 254.932 197.257ZM261.491 199.988H262.94C262.595 201.216 261.491 202.347 259.601 202.347C257.201 202.347 255.905 200.595 255.905 198.444C255.905 196.14 257.45 194.609 259.56 194.609C261.85 194.609 263.188 196.485 263.036 198.899H257.381C257.519 200.264 258.388 201.12 259.546 201.12C260.581 201.12 261.188 200.692 261.491 199.988ZM257.408 197.768H261.546C261.505 196.664 260.733 195.781 259.546 195.781C258.429 195.781 257.601 196.361 257.408 197.768ZM265.878 202.168H264.444V194.747H265.878V195.823C266.306 195.092 267.009 194.609 268.071 194.609C269.216 194.609 269.892 195.092 270.223 195.919C270.844 194.995 271.713 194.609 272.679 194.609C274.417 194.609 275.093 195.767 275.093 197.492V202.168H273.658V197.878C273.658 196.802 273.493 195.809 272.196 195.809C271.065 195.809 270.485 196.705 270.485 198.181V202.168H269.051V197.878C269.051 196.802 268.885 195.809 267.589 195.809C266.444 195.809 265.878 196.705 265.878 198.181V202.168ZM278.339 192.167V195.836C278.794 195.078 279.566 194.609 280.656 194.609C282.38 194.609 283.856 196.057 283.856 198.471C283.856 200.899 282.38 202.347 280.656 202.347C279.566 202.347 278.794 201.878 278.339 201.12V202.168H276.904V192.167H278.339ZM280.325 201.147C281.511 201.147 282.325 200.14 282.325 198.471C282.325 196.802 281.511 195.809 280.325 195.809C279.222 195.809 278.284 196.637 278.284 198.471C278.284 200.306 279.222 201.147 280.325 201.147ZM290.467 199.988H291.915C291.57 201.216 290.467 202.347 288.577 202.347C286.177 202.347 284.88 200.595 284.88 198.444C284.88 196.14 286.425 194.609 288.536 194.609C290.826 194.609 292.164 196.485 292.012 198.899H286.356C286.494 200.264 287.363 201.12 288.522 201.12C289.557 201.12 290.163 200.692 290.467 199.988ZM286.384 197.768H290.522C290.481 196.664 289.708 195.781 288.522 195.781C287.405 195.781 286.577 196.361 286.384 197.768ZM297.282 196.223C297.02 196.195 296.771 196.181 296.537 196.181C295.433 196.181 294.854 196.719 294.854 198.278V202.168H293.419V194.747H294.826V196.057C295.213 195.216 295.957 194.733 296.882 194.719C297.006 194.719 297.158 194.719 297.282 194.733V196.223Z" fill="black"/>
<path d="M411.85 210.957H114.784V235.589H411.85V210.957Z" fill="#00C770"/>
<path d="M710 210.957H412.836V235.589H710V210.957Z" fill="#00C770"/>
<path d="M262.844 224.985C262.844 223.619 261.685 223.164 260.14 223.164H259.795V221.909H260.085C261.74 221.909 262.582 221.412 262.582 220.309C262.582 219.26 261.74 218.75 260.733 218.75C259.464 218.75 258.761 219.522 258.623 220.681H257.188C257.34 218.847 258.636 217.605 260.802 217.605C262.499 217.605 264.085 218.322 264.085 220.185C264.085 221.192 263.506 222.047 262.526 222.474C263.878 222.93 264.347 223.923 264.347 224.957C264.347 226.985 262.623 227.964 260.664 227.964C258.333 227.964 257.174 226.475 257.05 224.764H258.485C258.636 225.923 259.326 226.806 260.692 226.806C261.933 226.806 262.844 226.144 262.844 224.985ZM267.282 227.785V220.06H265.006V219.081C266.454 219.026 267.172 218.874 267.696 217.784H268.73V227.785H267.282Z" fill="black"/>
<path d="M549.035 176.551V168.826H546.759V167.847C548.207 167.792 548.924 167.64 549.449 166.55H550.483V176.551H549.035ZM557.991 171.93C557.536 172.647 556.695 173.213 555.467 173.213C553.619 173.213 552.198 171.847 552.198 169.792C552.198 167.874 553.632 166.371 555.771 166.371C558.309 166.371 559.467 168.219 559.467 171.226C559.467 174.082 558.419 176.73 555.522 176.73C553.508 176.73 552.543 175.447 552.377 174.137H553.881C554.019 175.075 554.695 175.571 555.66 175.571C557.109 175.571 557.936 174.123 557.991 171.93ZM555.784 167.516C554.557 167.516 553.701 168.398 553.701 169.75C553.701 171.102 554.557 172.013 555.771 172.013C556.984 172.013 557.84 171.102 557.84 169.75C557.84 168.398 557.012 167.516 555.784 167.516ZM560.148 166.55H567.197V167.86C564.7 170.054 563.238 172.84 563.017 176.551H561.334C561.528 172.992 563.197 169.999 565.611 167.86H560.148V166.55ZM567.678 171.544C567.678 168.426 568.947 166.371 571.609 166.371C574.285 166.371 575.54 168.426 575.54 171.544C575.54 174.675 574.285 176.73 571.609 176.73C568.947 176.73 567.678 174.675 567.678 171.544ZM574.023 171.544C574.023 168.895 573.126 167.516 571.609 167.516C570.106 167.516 569.195 168.895 569.195 171.544C569.195 174.206 570.106 175.571 571.609 175.571C573.126 175.571 574.023 174.206 574.023 171.544Z" fill="black"/>
<path d="M536.083 198.94H537.6C537.6 200.333 538.331 201.064 539.366 201.064C540.29 201.064 541.063 200.499 541.063 198.885V192.167H542.635V198.899C542.635 201.064 541.435 202.347 539.366 202.347C537.283 202.347 536.083 201.106 536.083 198.94ZM544.201 200.168C544.201 198.361 546.325 197.878 549.208 197.575V197.423C549.208 196.112 548.519 195.671 547.608 195.671C546.615 195.671 546.049 196.181 545.994 197.092H544.546C544.67 195.519 545.967 194.567 547.663 194.567C549.581 194.567 550.684 195.492 550.657 197.712C550.657 197.892 550.629 199.175 550.629 199.492C550.629 200.595 550.698 201.506 550.836 202.168H549.457C549.401 201.878 549.36 201.658 549.332 201.189C548.891 201.933 548.05 202.347 546.85 202.347C545.346 202.347 544.201 201.52 544.201 200.168ZM549.277 198.637C546.974 198.857 545.76 199.175 545.76 200.14C545.76 200.816 546.298 201.244 547.167 201.244C548.353 201.244 549.277 200.651 549.277 199.175V198.637ZM553.863 195.823C554.291 195.092 555.036 194.609 556.194 194.609C557.988 194.609 558.677 195.767 558.677 197.492V202.168H557.243V197.878C557.243 196.802 557.063 195.809 555.712 195.809C554.47 195.809 553.863 196.705 553.863 198.181V202.168H552.429V194.747H553.863V195.823ZM565.05 201.12C564.623 201.864 563.905 202.347 562.788 202.347C561.036 202.347 560.36 201.258 560.36 199.464V194.747H561.795V199.078C561.795 200.154 561.974 201.133 563.271 201.133C564.471 201.133 565.064 200.237 565.064 198.775V194.747H566.499V202.168H565.05V201.12ZM567.977 200.168C567.977 198.361 570.101 197.878 572.984 197.575V197.423C572.984 196.112 572.295 195.671 571.384 195.671C570.391 195.671 569.825 196.181 569.77 197.092H568.322C568.446 195.519 569.743 194.567 571.439 194.567C573.357 194.567 574.46 195.492 574.433 197.712C574.433 197.892 574.405 199.175 574.405 199.492C574.405 200.595 574.474 201.506 574.612 202.168H573.233C573.177 201.878 573.136 201.658 573.108 201.189C572.667 201.933 571.826 202.347 570.626 202.347C569.122 202.347 567.977 201.52 567.977 200.168ZM573.053 198.637C570.75 198.857 569.536 199.175 569.536 200.14C569.536 200.816 570.074 201.244 570.943 201.244C572.129 201.244 573.053 200.651 573.053 199.175V198.637ZM580.067 196.223C579.805 196.195 579.557 196.181 579.322 196.181C578.219 196.181 577.639 196.719 577.639 198.278V202.168H576.205V194.747H577.612V196.057C577.998 195.216 578.743 194.733 579.667 194.719C579.791 194.719 579.943 194.719 580.067 194.733V196.223ZM580.83 204.582V203.437H581.395C582.168 203.437 582.499 203.382 582.858 202.32L582.913 202.154L580.237 194.747H581.823L583.616 200.278L585.368 194.747H586.858L584.237 202.333C583.63 204.085 583.189 204.582 581.52 204.582H580.83Z" fill="black"/>
<path d="M554.979 222.778C554.979 219.66 556.249 217.605 558.911 217.605C561.587 217.605 562.842 219.66 562.842 222.778C562.842 225.909 561.587 227.964 558.911 227.964C556.249 227.964 554.979 225.909 554.979 222.778ZM561.325 222.778C561.325 220.129 560.428 218.75 558.911 218.75C557.407 218.75 556.497 220.129 556.497 222.778C556.497 225.44 557.407 226.806 558.911 226.806C560.428 226.806 561.325 225.44 561.325 222.778ZM565.824 227.785V220.06H563.548V219.081C564.997 219.026 565.714 218.874 566.238 217.784H567.273V227.785H565.824Z" fill="black"/>
</svg>
