<svg width="750" height="381" viewBox="0 0 750 381" fill="none" xmlns="http://www.w3.org/2000/svg">
<path d="M8.02148 0.5H741.979C746.132 0.5 749.5 3.86753 749.5 8.02148V372.834C749.5 376.988 746.132 380.355 741.979 380.355H8.02148C3.86754 380.355 0.5 376.988 0.5 372.834V8.02148C0.5 3.9972 3.66049 0.711 7.63477 0.509766L8.02148 0.5Z" fill="#1A1A1A"/>
<path d="M8.02148 0.5H741.979C746.132 0.5 749.5 3.86753 749.5 8.02148V372.834C749.5 376.988 746.132 380.355 741.979 380.355H8.02148C3.86754 380.355 0.5 376.988 0.5 372.834V8.02148C0.5 3.9972 3.66049 0.711 7.63477 0.509766L8.02148 0.5Z" stroke="#333333"/>
<path fill-rule="evenodd" clip-rule="evenodd" d="M112.918 189.629L126.58 204.167L110.494 189.629L126.58 175.09L112.918 189.629H695.595L681.933 175.09L698.019 189.629L681.933 204.167L695.595 189.629H112.918Z" fill="#F2F2F2"/>
<path d="M112.918 189.629L126.58 204.167L110.494 189.629L126.58 175.09L112.918 189.629ZM112.918 189.629H695.595M695.595 189.629L681.933 175.09L698.019 189.629L681.933 204.167L695.595 189.629Z" stroke="#F2F2F2" stroke-width="1.0386" stroke-miterlimit="1.5" stroke-linecap="round" stroke-linejoin="round"/>
<path d="M43.6168 194.332V182.848H45.1365V194.332H43.6168ZM47.6431 194.332V186.013H48.9122V187.196C49.5232 186.282 50.4057 185.825 51.5598 185.825C52.0612 185.825 52.5207 185.916 52.9385 186.099C53.3615 186.277 53.6775 186.512 53.8864 186.804C54.0952 187.097 54.2415 187.444 54.325 187.846C54.3772 188.107 54.4034 188.564 54.4034 189.217V194.332H52.9934V189.272C52.9934 188.697 52.9385 188.269 52.8288 187.987C52.7192 187.7 52.5233 187.473 52.2413 187.305C51.9646 187.133 51.6382 187.047 51.2622 187.047C50.6616 187.047 50.142 187.238 49.7033 187.619C49.2699 188 49.0532 188.723 49.0532 189.789V194.332H47.6431ZM56.0092 191.849L57.4035 191.63C57.4819 192.188 57.6986 192.617 58.0537 192.914C58.4141 193.212 58.9154 193.361 59.5577 193.361C60.2053 193.361 60.6857 193.23 60.9991 192.969C61.3124 192.703 61.4691 192.392 61.4691 192.037C61.4691 191.718 61.3307 191.468 61.0539 191.285C60.8607 191.16 60.3802 191 59.6126 190.807C58.5786 190.546 57.8605 190.321 57.4584 190.133C57.0615 189.94 56.7586 189.676 56.5497 189.342C56.346 189.003 56.2442 188.629 56.2442 188.222C56.2442 187.851 56.3278 187.509 56.4949 187.196C56.6672 186.877 56.8996 186.614 57.192 186.405C57.4114 186.243 57.7091 186.107 58.0851 185.997C58.4663 185.882 58.8736 185.825 59.3071 185.825C59.9598 185.825 60.5317 185.919 61.0226 186.107C61.5187 186.295 61.8842 186.551 62.1192 186.875C62.3543 187.193 62.5161 187.621 62.6049 188.159L61.2262 188.347C61.1636 187.919 60.9808 187.585 60.6779 187.345C60.3802 187.104 59.9572 186.984 59.4089 186.984C58.7613 186.984 58.2992 187.091 58.0224 187.305C57.7456 187.52 57.6072 187.77 57.6072 188.057C57.6072 188.24 57.6647 188.405 57.7796 188.551C57.8944 188.702 58.0746 188.828 58.3201 188.927C58.4611 188.979 58.8762 189.099 59.5656 189.287C60.563 189.554 61.2576 189.773 61.6492 189.945C62.0461 190.112 62.3569 190.358 62.5814 190.682C62.806 191.005 62.9183 191.408 62.9183 191.888C62.9183 192.358 62.7799 192.802 62.5031 193.22C62.2315 193.632 61.8372 193.953 61.3202 194.183C60.8032 194.408 60.2183 194.52 59.5656 194.52C58.4846 194.52 57.6594 194.295 57.0902 193.846C56.5262 193.397 56.1659 192.731 56.0092 191.849ZM67.6731 193.071L67.8768 194.316C67.4799 194.4 67.1248 194.442 66.8114 194.442C66.2997 194.442 65.9028 194.361 65.6208 194.199C65.3388 194.037 65.1403 193.825 65.0254 193.564C64.9105 193.298 64.8531 192.742 64.8531 191.896V187.11H63.8191V186.013H64.8531V183.953L66.2553 183.107V186.013H67.6731V187.11H66.2553V191.974C66.2553 192.376 66.2788 192.635 66.3258 192.75C66.378 192.865 66.4589 192.956 66.5686 193.024C66.6835 193.092 66.8454 193.126 67.0543 193.126C67.211 193.126 67.4172 193.107 67.6731 193.071ZM74.4882 193.306C73.9659 193.75 73.462 194.063 72.9763 194.246C72.4959 194.429 71.9789 194.52 71.4253 194.52C70.5114 194.52 69.809 194.298 69.3181 193.854C68.8272 193.405 68.5818 192.833 68.5818 192.139C68.5818 191.731 68.6732 191.361 68.856 191.026C69.044 190.687 69.2868 190.415 69.5845 190.212C69.8874 190.008 70.2268 189.854 70.6028 189.749C70.8796 189.676 71.2974 189.606 71.8562 189.538C72.9946 189.402 73.8328 189.24 74.3707 189.052C74.3759 188.859 74.3785 188.736 74.3785 188.684C74.3785 188.11 74.2453 187.705 73.979 187.47C73.6187 187.151 73.0834 186.992 72.3732 186.992C71.7099 186.992 71.219 187.11 70.9005 187.345C70.5871 187.574 70.3548 187.984 70.2033 188.574L68.8246 188.386C68.95 187.796 69.1562 187.321 69.4435 186.961C69.7307 186.595 70.1459 186.316 70.689 186.123C71.2321 185.924 71.8614 185.825 72.5768 185.825C73.2871 185.825 73.8641 185.909 74.308 186.076C74.7519 186.243 75.0783 186.454 75.2872 186.71C75.4961 186.961 75.6423 187.279 75.7258 187.666C75.7728 187.906 75.7963 188.339 75.7963 188.966V190.846C75.7963 192.157 75.8251 192.987 75.8825 193.337C75.9452 193.682 76.0653 194.013 76.2429 194.332H74.7702C74.624 194.04 74.5299 193.698 74.4882 193.306ZM74.3707 190.157C73.8589 190.366 73.0912 190.543 72.0677 190.69C71.488 190.773 71.078 190.867 70.8378 190.972C70.5976 191.076 70.4122 191.23 70.2816 191.434C70.1511 191.632 70.0858 191.854 70.0858 192.1C70.0858 192.476 70.2268 192.789 70.5088 193.04C70.796 193.29 71.2138 193.416 71.7622 193.416C72.3053 193.416 72.7883 193.298 73.2113 193.063C73.6343 192.823 73.9451 192.496 74.1435 192.084C74.2949 191.765 74.3707 191.295 74.3707 190.674V190.157ZM77.9897 194.332V186.013H79.2587V187.196C79.8697 186.282 80.7523 185.825 81.9064 185.825C82.4077 185.825 82.8673 185.916 83.2851 186.099C83.7081 186.277 84.024 186.512 84.2329 186.804C84.4418 187.097 84.588 187.444 84.6716 187.846C84.7238 188.107 84.7499 188.564 84.7499 189.217V194.332H83.3399V189.272C83.3399 188.697 83.2851 188.269 83.1754 187.987C83.0657 187.7 82.8699 187.473 82.5879 187.305C82.3111 187.133 81.9847 187.047 81.6087 187.047C81.0082 187.047 80.4885 187.238 80.0499 187.619C79.6164 188 79.3997 188.723 79.3997 189.789V194.332H77.9897ZM89.9983 193.071L90.2019 194.316C89.8051 194.4 89.4499 194.442 89.1366 194.442C88.6248 194.442 88.2279 194.361 87.9459 194.199C87.6639 194.037 87.4655 193.825 87.3506 193.564C87.2357 193.298 87.1783 192.742 87.1783 191.896V187.11H86.1443V186.013H87.1783V183.953L88.5804 183.107V186.013H89.9983V187.11H88.5804V191.974C88.5804 192.376 88.6039 192.635 88.6509 192.75C88.7032 192.865 88.7841 192.956 88.8938 193.024C89.0087 193.092 89.1706 193.126 89.3794 193.126C89.5361 193.126 89.7424 193.107 89.9983 193.071ZM90.8208 191.849L92.2151 191.63C92.2935 192.188 92.5102 192.617 92.8653 192.914C93.2256 193.212 93.727 193.361 94.3693 193.361C95.0169 193.361 95.4973 193.23 95.8107 192.969C96.124 192.703 96.2807 192.392 96.2807 192.037C96.2807 191.718 96.1423 191.468 95.8655 191.285C95.6723 191.16 95.1918 191 94.4241 190.807C93.3901 190.546 92.6721 190.321 92.27 190.133C91.8731 189.94 91.5702 189.676 91.3613 189.342C91.1576 189.003 91.0558 188.629 91.0558 188.222C91.0558 187.851 91.1393 187.509 91.3065 187.196C91.4788 186.877 91.7112 186.614 92.0036 186.405C92.223 186.243 92.5206 186.107 92.8966 185.997C93.2779 185.882 93.6852 185.825 94.1186 185.825C94.7714 185.825 95.3433 185.919 95.8342 186.107C96.3303 186.295 96.6958 186.551 96.9308 186.875C97.1658 187.193 97.3277 187.621 97.4165 188.159L96.0378 188.347C95.9752 187.919 95.7924 187.585 95.4895 187.345C95.1918 187.104 94.7688 186.984 94.2205 186.984C93.5729 186.984 93.1108 187.091 92.834 187.305C92.5572 187.52 92.4188 187.77 92.4188 188.057C92.4188 188.24 92.4762 188.405 92.5911 188.551C92.706 188.702 92.8862 188.828 93.1316 188.927C93.2726 188.979 93.6878 189.099 94.3771 189.287C95.3746 189.554 96.0692 189.773 96.4608 189.945C96.8577 190.112 97.1684 190.358 97.393 190.682C97.6176 191.005 97.7298 191.408 97.7298 191.888C97.7298 192.358 97.5914 192.802 97.3147 193.22C97.0431 193.632 96.6488 193.953 96.1318 194.183C95.6148 194.408 95.0299 194.52 94.3771 194.52C93.2961 194.52 92.471 194.295 91.9018 193.846C91.3378 193.397 90.9775 192.731 90.8208 191.849Z" fill="#F2F2F2"/>
<path d="M392.269 321.618H393.789V328.253C393.789 329.407 393.658 330.323 393.397 331.002C393.136 331.681 392.664 332.235 391.979 332.663C391.301 333.086 390.408 333.297 389.3 333.297C388.225 333.297 387.345 333.112 386.661 332.741C385.976 332.37 385.488 331.835 385.196 331.135C384.903 330.43 384.757 329.469 384.757 328.253V321.618H386.277V328.245C386.277 329.242 386.368 329.979 386.551 330.454C386.739 330.924 387.057 331.287 387.507 331.543C387.961 331.799 388.514 331.927 389.167 331.927C390.285 331.927 391.081 331.673 391.556 331.167C392.032 330.66 392.269 329.686 392.269 328.245V321.618ZM399.249 333.102V322.973H395.465V321.618H404.568V322.973H400.768V333.102H399.249ZM414.328 329.075L415.848 329.459C415.529 330.707 414.955 331.66 414.124 332.318C413.299 332.971 412.289 333.297 411.093 333.297C409.855 333.297 408.847 333.047 408.069 332.545C407.296 332.039 406.706 331.308 406.299 330.352C405.897 329.396 405.696 328.37 405.696 327.274C405.696 326.078 405.923 325.036 406.377 324.148C406.837 323.255 407.487 322.579 408.328 322.119C409.174 321.654 410.103 321.422 411.116 321.422C412.265 321.422 413.231 321.714 414.015 322.299C414.798 322.884 415.344 323.707 415.652 324.767L414.156 325.119C413.889 324.284 413.503 323.675 412.996 323.294C412.49 322.913 411.853 322.722 411.085 322.722C410.202 322.722 409.464 322.934 408.868 323.357C408.278 323.78 407.863 324.349 407.623 325.065C407.382 325.775 407.262 326.508 407.262 327.266C407.262 328.242 407.403 329.096 407.685 329.827C407.973 330.553 408.416 331.096 409.017 331.457C409.618 331.817 410.268 331.997 410.968 331.997C411.819 331.997 412.539 331.752 413.13 331.261C413.72 330.77 414.119 330.041 414.328 329.075Z" fill="#F2F2F2"/>
<path d="M392.269 321.618H393.789V328.253C393.789 329.407 393.658 330.323 393.397 331.002C393.136 331.681 392.664 332.235 391.979 332.663C391.301 333.086 390.408 333.297 389.3 333.297C388.225 333.297 387.345 333.112 386.661 332.741C385.976 332.37 385.488 331.835 385.196 331.135C384.903 330.43 384.757 329.469 384.757 328.253V321.618H386.277V328.245C386.277 329.242 386.368 329.979 386.551 330.454C386.739 330.924 387.057 331.287 387.507 331.543C387.961 331.799 388.514 331.927 389.167 331.927C390.285 331.927 391.081 331.673 391.556 331.167C392.032 330.66 392.269 329.686 392.269 328.245V321.618ZM399.249 333.102V322.973H395.465V321.618H404.568V322.973H400.768V333.102H399.249ZM414.328 329.075L415.848 329.459C415.529 330.707 414.955 331.66 414.124 332.318C413.299 332.971 412.289 333.297 411.093 333.297C409.855 333.297 408.847 333.047 408.069 332.545C407.296 332.039 406.706 331.308 406.299 330.352C405.897 329.396 405.696 328.37 405.696 327.274C405.696 326.078 405.923 325.036 406.377 324.148C406.837 323.255 407.487 322.579 408.328 322.119C409.174 321.654 410.103 321.422 411.116 321.422C412.265 321.422 413.231 321.714 414.015 322.299C414.798 322.884 415.344 323.707 415.652 324.767L414.156 325.119C413.889 324.284 413.503 323.675 412.996 323.294C412.49 322.913 411.853 322.722 411.085 322.722C410.202 322.722 409.464 322.934 408.868 323.357C408.278 323.78 407.863 324.349 407.623 325.065C407.382 325.775 407.262 326.508 407.262 327.266C407.262 328.242 407.403 329.096 407.685 329.827C407.973 330.553 408.416 331.096 409.017 331.457C409.618 331.817 410.268 331.997 410.968 331.997C411.819 331.997 412.539 331.752 413.13 331.261C413.72 330.77 414.119 330.041 414.328 329.075Z" fill="#F2F2F2"/>
<path d="M354.553 57.1641V45.6803H356.073V55.8089H361.728V57.1641H354.553ZM362.841 53.0045C362.841 51.464 363.269 50.3229 364.125 49.5813C364.841 48.9651 365.713 48.657 366.742 48.657C367.885 48.657 368.82 49.033 369.546 49.785C370.272 50.5318 370.635 51.5658 370.635 52.887C370.635 53.9576 370.473 54.801 370.149 55.4172C369.831 56.0282 369.363 56.5034 368.747 56.8429C368.136 57.1823 367.468 57.3521 366.742 57.3521C365.577 57.3521 364.635 56.9787 363.914 56.2319C363.198 55.4851 362.841 54.4093 362.841 53.0045ZM364.29 53.0045C364.29 54.0699 364.522 54.8689 364.987 55.4015C365.452 55.929 366.037 56.1927 366.742 56.1927C367.441 56.1927 368.024 55.9264 368.489 55.3937C368.953 54.861 369.186 54.049 369.186 52.9575C369.186 51.9287 368.951 51.1506 368.481 50.6232C368.016 50.0905 367.436 49.8242 366.742 49.8242C366.037 49.8242 365.452 50.0879 364.987 50.6153C364.522 51.1428 364.29 51.9392 364.29 53.0045ZM371.732 54.6809L373.126 54.4615C373.204 55.0203 373.421 55.4486 373.776 55.7462C374.136 56.0439 374.638 56.1927 375.28 56.1927C375.928 56.1927 376.408 56.0622 376.721 55.8011C377.035 55.5347 377.191 55.224 377.191 54.8689C377.191 54.5503 377.053 54.2997 376.776 54.1169C376.583 53.9915 376.103 53.8323 375.335 53.639C374.301 53.3779 373.583 53.1534 373.181 52.9654C372.784 52.7721 372.481 52.5084 372.272 52.1742C372.068 51.8347 371.967 51.4614 371.967 51.054C371.967 50.6832 372.05 50.3412 372.217 50.0278C372.39 49.7093 372.622 49.4456 372.914 49.2367C373.134 49.0748 373.431 48.939 373.807 48.8293C374.189 48.7144 374.596 48.657 375.029 48.657C375.682 48.657 376.254 48.751 376.745 48.939C377.241 49.127 377.607 49.3829 377.842 49.7067C378.077 50.0252 378.238 50.4535 378.327 50.9914L376.949 51.1794C376.886 50.7511 376.703 50.4169 376.4 50.1767C376.103 49.9365 375.68 49.8163 375.131 49.8163C374.484 49.8163 374.022 49.9234 373.745 50.1375C373.468 50.3516 373.33 50.6023 373.33 50.8895C373.33 51.0723 373.387 51.2368 373.502 51.383C373.617 51.5345 373.797 51.6598 374.042 51.759C374.183 51.8112 374.599 51.9314 375.288 52.1194C376.285 52.3857 376.98 52.605 377.372 52.7774C377.768 52.9445 378.079 53.1899 378.304 53.5137C378.528 53.8375 378.641 54.2396 378.641 54.72C378.641 55.19 378.502 55.6339 378.225 56.0517C377.954 56.4643 377.56 56.7854 377.043 57.0152C376.526 57.2398 375.941 57.3521 375.288 57.3521C374.207 57.3521 373.382 57.1275 372.813 56.6784C372.249 56.2293 371.888 55.5634 371.732 54.6809ZM382.808 57.1641L387.218 45.6803H388.855L393.555 57.1641H391.824L390.485 53.686H385.683L384.422 57.1641H382.808ZM386.121 52.4484H390.015L388.816 49.268C388.451 48.3019 388.179 47.5081 388.002 46.8867C387.855 47.623 387.649 48.3541 387.383 49.08L386.121 52.4484ZM394.589 57.1641V48.845H395.858V50.0278C396.469 49.1139 397.352 48.657 398.506 48.657C399.007 48.657 399.467 48.7484 399.885 48.9312C400.308 49.1087 400.624 49.3437 400.833 49.6362C401.041 49.9286 401.188 50.2759 401.271 50.678C401.323 50.9391 401.35 51.3961 401.35 52.0489V57.1641H399.94V52.1037C399.94 51.5292 399.885 51.101 399.775 50.819C399.665 50.5318 399.47 50.3046 399.188 50.1375C398.911 49.9652 398.584 49.879 398.208 49.879C397.608 49.879 397.088 50.0696 396.65 50.4508C396.216 50.8321 395.999 51.5554 395.999 52.6207V57.1641H394.589ZM403.261 57.8534L404.632 58.0571C404.689 58.4801 404.849 58.7882 405.11 58.9814C405.46 59.2425 405.937 59.3731 406.543 59.3731C407.196 59.3731 407.7 59.2425 408.055 58.9814C408.41 58.7203 408.65 58.3547 408.776 57.8847C408.849 57.5975 408.883 56.9943 408.877 56.0752C408.261 56.8011 407.494 57.1641 406.574 57.1641C405.431 57.1641 404.546 56.7515 403.919 55.9264C403.292 55.1013 402.979 54.1117 402.979 52.9575C402.979 52.1637 403.123 51.4326 403.41 50.7642C403.697 50.0905 404.112 49.5709 404.655 49.2053C405.204 48.8398 405.846 48.657 406.582 48.657C407.564 48.657 408.374 49.0539 409.011 49.8477V48.845H410.311V56.0361C410.311 57.3312 410.178 58.2477 409.912 58.7856C409.65 59.3287 409.233 59.7569 408.658 60.0703C408.089 60.3836 407.387 60.5403 406.551 60.5403C405.559 60.5403 404.757 60.3157 404.146 59.8666C403.535 59.4227 403.24 58.7516 403.261 57.8534ZM404.428 52.8557C404.428 53.9472 404.645 54.7435 405.078 55.2449C405.512 55.7462 406.055 55.9969 406.708 55.9969C407.355 55.9969 407.898 55.7488 408.337 55.2527C408.776 54.7514 408.995 53.968 408.995 52.9027C408.995 51.8844 408.768 51.1167 408.313 50.5997C407.864 50.0827 407.321 49.8242 406.684 49.8242C406.057 49.8242 405.525 50.0801 405.086 50.5918C404.647 51.0984 404.428 51.853 404.428 52.8557ZM418.144 54.485L419.601 54.6652C419.372 55.5164 418.946 56.1771 418.325 56.6471C417.703 57.1171 416.909 57.3521 415.943 57.3521C414.726 57.3521 413.76 56.9787 413.045 56.2319C412.335 55.4799 411.98 54.4276 411.98 53.075C411.98 51.6755 412.34 50.5892 413.061 49.8163C413.781 49.0434 414.716 48.657 415.865 48.657C416.977 48.657 417.886 49.0356 418.591 49.7928C419.296 50.5501 419.648 51.6154 419.648 52.9889C419.648 53.0724 419.646 53.1978 419.641 53.3649H413.437C413.489 54.2788 413.747 54.9785 414.212 55.4642C414.677 55.9499 415.256 56.1927 415.951 56.1927C416.468 56.1927 416.909 56.0569 417.275 55.7854C417.64 55.5138 417.93 55.0804 418.144 54.485ZM413.515 52.2055H418.16C418.097 51.5057 417.92 50.9809 417.627 50.631C417.178 50.0879 416.596 49.8163 415.881 49.8163C415.233 49.8163 414.687 50.0331 414.243 50.4665C413.805 50.9 413.562 51.4796 413.515 52.2055ZM421.348 57.1641V45.6803H422.758V57.1641H421.348ZM430.646 54.485L432.103 54.6652C431.874 55.5164 431.448 56.1771 430.827 56.6471C430.205 57.1171 429.411 57.3521 428.445 57.3521C427.229 57.3521 426.262 56.9787 425.547 56.2319C424.837 55.4799 424.482 54.4276 424.482 53.075C424.482 51.6755 424.842 50.5892 425.563 49.8163C426.283 49.0434 427.218 48.657 428.367 48.657C429.479 48.657 430.388 49.0356 431.093 49.7928C431.798 50.5501 432.15 51.6154 432.15 52.9889C432.15 53.0724 432.148 53.1978 432.143 53.3649H425.939C425.991 54.2788 426.249 54.9785 426.714 55.4642C427.179 55.9499 427.759 56.1927 428.453 56.1927C428.97 56.1927 429.411 56.0569 429.777 55.7854C430.143 55.5138 430.432 55.0804 430.646 54.485ZM426.017 52.2055H430.662C430.599 51.5057 430.422 50.9809 430.129 50.631C429.68 50.0879 429.098 49.8163 428.383 49.8163C427.735 49.8163 427.189 50.0331 426.745 50.4665C426.307 50.9 426.064 51.4796 426.017 52.2055ZM433.318 54.6809L434.712 54.4615C434.79 55.0203 435.007 55.4486 435.362 55.7462C435.723 56.0439 436.224 56.1927 436.866 56.1927C437.514 56.1927 437.994 56.0622 438.308 55.8011C438.621 55.5347 438.778 55.224 438.778 54.8689C438.778 54.5503 438.639 54.2997 438.362 54.1169C438.169 53.9915 437.689 53.8323 436.921 53.639C435.887 53.3779 435.169 53.1534 434.767 52.9654C434.37 52.7721 434.067 52.5084 433.858 52.1742C433.655 51.8347 433.553 51.4614 433.553 51.054C433.553 50.6832 433.636 50.3412 433.803 50.0278C433.976 49.7093 434.208 49.4456 434.501 49.2367C434.72 49.0748 435.018 48.939 435.394 48.8293C435.775 48.7144 436.182 48.657 436.616 48.657C437.268 48.657 437.84 48.751 438.331 48.939C438.827 49.127 439.193 49.3829 439.428 49.7067C439.663 50.0252 439.825 50.4535 439.913 50.9914L438.535 51.1794C438.472 50.7511 438.289 50.4169 437.986 50.1767C437.689 49.9365 437.266 49.8163 436.717 49.8163C436.07 49.8163 435.608 49.9234 435.331 50.1375C435.054 50.3516 434.916 50.6023 434.916 50.8895C434.916 51.0723 434.973 51.2368 435.088 51.383C435.203 51.5345 435.383 51.6598 435.629 51.759C435.77 51.8112 436.185 51.9314 436.874 52.1194C437.871 52.3857 438.566 52.605 438.958 52.7774C439.355 52.9445 439.665 53.1899 439.89 53.5137C440.114 53.8375 440.227 54.2396 440.227 54.72C440.227 55.19 440.088 55.6339 439.812 56.0517C439.54 56.4643 439.146 56.7854 438.629 57.0152C438.112 57.2398 437.527 57.3521 436.874 57.3521C435.793 57.3521 434.968 57.1275 434.399 56.6784C433.835 56.2293 433.474 55.5634 433.318 54.6809Z" fill="#F2F2F2"/>
<path d="M404.257 274.461H110.494V298.295H404.257V274.461Z" fill="#00C770"/>
<path d="M246.337 288.585L248.029 288.359C248.223 289.318 248.552 290.011 249.016 290.437C249.486 290.857 250.056 291.066 250.727 291.066C251.523 291.066 252.193 290.791 252.738 290.239C253.29 289.688 253.566 289.005 253.566 288.19C253.566 287.413 253.312 286.774 252.804 286.272C252.297 285.765 251.651 285.511 250.868 285.511C250.548 285.511 250.15 285.574 249.674 285.699L249.862 284.214C249.975 284.226 250.066 284.233 250.135 284.233C250.855 284.233 251.504 284.045 252.08 283.669C252.657 283.293 252.945 282.713 252.945 281.93C252.945 281.309 252.735 280.795 252.315 280.388C251.896 279.981 251.353 279.777 250.689 279.777C250.031 279.777 249.483 279.984 249.044 280.397C248.606 280.811 248.324 281.431 248.198 282.259L246.506 281.958C246.713 280.823 247.183 279.946 247.916 279.326C248.649 278.699 249.561 278.386 250.652 278.386C251.404 278.386 252.096 278.549 252.729 278.875C253.362 279.194 253.845 279.633 254.177 280.191C254.515 280.748 254.684 281.34 254.684 281.967C254.684 282.563 254.524 283.105 254.205 283.593C253.885 284.082 253.412 284.471 252.785 284.759C253.6 284.947 254.233 285.339 254.684 285.934C255.135 286.523 255.361 287.263 255.361 288.152C255.361 289.356 254.922 290.377 254.045 291.217C253.168 292.05 252.058 292.467 250.717 292.467C249.508 292.467 248.502 292.107 247.7 291.386C246.904 290.665 246.45 289.732 246.337 288.585ZM263.417 292.223H261.725V281.441C261.318 281.829 260.782 282.218 260.117 282.606C259.459 282.995 258.867 283.286 258.341 283.481V281.845C259.287 281.4 260.114 280.861 260.823 280.228C261.531 279.595 262.032 278.981 262.327 278.386H263.417V292.223Z" fill="#F2F2F2"/>
<path d="M404.257 274.461H110.494V298.295H404.257V274.461Z" stroke="#F2F2F2" stroke-width="0.727441" stroke-miterlimit="1.5" stroke-linecap="round" stroke-linejoin="round"/>
<path d="M698.018 274.461H404.256V298.295H698.018V274.461Z" fill="#00C770"/>
<path d="M540.09 285.426C540.09 283.797 540.256 282.487 540.588 281.497C540.926 280.501 541.425 279.733 542.083 279.194C542.747 278.655 543.58 278.386 544.583 278.386C545.322 278.386 545.971 278.536 546.529 278.837C547.087 279.131 547.547 279.561 547.911 280.125C548.274 280.682 548.559 281.366 548.766 282.174C548.973 282.976 549.076 284.06 549.076 285.426C549.076 287.043 548.91 288.35 548.578 289.346C548.246 290.336 547.748 291.104 547.083 291.649C546.425 292.188 545.592 292.458 544.583 292.458C543.254 292.458 542.211 291.981 541.453 291.029C540.544 289.882 540.09 288.015 540.09 285.426ZM541.829 285.426C541.829 287.689 542.092 289.196 542.618 289.948C543.151 290.694 543.806 291.066 544.583 291.066C545.36 291.066 546.012 290.69 546.538 289.938C547.071 289.186 547.337 287.682 547.337 285.426C547.337 283.158 547.071 281.651 546.538 280.905C546.012 280.159 545.354 279.786 544.564 279.786C543.787 279.786 543.167 280.115 542.703 280.773C542.12 281.613 541.829 283.164 541.829 285.426ZM557.179 292.223H555.487V281.441C555.08 281.829 554.544 282.218 553.88 282.606C553.222 282.995 552.629 283.286 552.103 283.481V281.845C553.049 281.4 553.877 280.861 554.585 280.228C555.293 279.595 555.794 278.981 556.089 278.386H557.179V292.223Z" fill="#F2F2F2"/>
<path d="M698.018 274.461H404.256V298.295H698.018V274.461Z" stroke="#F2F2F2" stroke-width="0.727441" stroke-miterlimit="1.5" stroke-linecap="round" stroke-linejoin="round"/>
<path d="M502.769 77.9375H208.119V101.771H502.769V77.9375Z" fill="#00C770"/>
<path d="M344.407 92.0614L346.099 91.8358C346.293 92.7946 346.622 93.4871 347.086 93.9132C347.556 94.3331 348.126 94.543 348.797 94.543C349.593 94.543 350.263 94.2673 350.809 93.7158C351.36 93.1643 351.636 92.4813 351.636 91.6666C351.636 90.8895 351.382 90.2503 350.874 89.749C350.367 89.2414 349.721 88.9875 348.938 88.9875C348.618 88.9875 348.22 89.0502 347.744 89.1756L347.932 87.6903C348.045 87.7029 348.136 87.7091 348.205 87.7091C348.925 87.7091 349.574 87.5211 350.151 87.1451C350.727 86.7691 351.015 86.1895 351.015 85.4061C351.015 84.7857 350.805 84.2718 350.386 83.8645C349.966 83.4572 349.424 83.2535 348.759 83.2535C348.101 83.2535 347.553 83.4603 347.114 83.8739C346.676 84.2875 346.394 84.9079 346.268 85.7351L344.576 85.4343C344.783 84.3 345.253 83.4227 345.986 82.8023C346.719 82.1756 347.631 81.8623 348.722 81.8623C349.474 81.8623 350.166 82.0252 350.799 82.3511C351.432 82.6707 351.915 83.1094 352.247 83.6671C352.585 84.2248 352.754 84.817 352.754 85.4437C352.754 86.0391 352.595 86.5811 352.275 87.0699C351.955 87.5587 351.482 87.9473 350.856 88.2355C351.67 88.4235 352.303 88.8152 352.754 89.4106C353.206 89.9996 353.431 90.7391 353.431 91.629C353.431 92.8322 352.992 93.8537 352.115 94.6934C351.238 95.5269 350.129 95.9436 348.787 95.9436C347.578 95.9436 346.572 95.5833 345.77 94.8626C344.974 94.1419 344.52 93.2082 344.407 92.0614ZM361.487 95.6992H359.795V84.9173C359.388 85.3058 358.852 85.6944 358.188 86.0829C357.53 86.4715 356.937 86.7629 356.411 86.9571V85.3215C357.357 84.8766 358.184 84.3376 358.893 83.7047C359.601 83.0718 360.102 82.4576 360.397 81.8623H361.487V95.6992Z" fill="#F2F2F2"/>
<path d="M502.769 77.9375H208.119V101.771H502.769V77.9375Z" stroke="#F2F2F2" stroke-width="0.72854" stroke-miterlimit="1.5" stroke-linecap="round" stroke-linejoin="round"/>
<path d="M698.019 77.9375H502.769V101.771H698.019V77.9375Z" fill="#00C770"/>
<path d="M589.347 88.903C589.347 87.2736 589.513 85.9639 589.845 84.9737C590.183 83.9773 590.681 83.2096 591.339 82.6707C592.004 82.1318 592.837 81.8623 593.84 81.8623C594.579 81.8623 595.228 82.0127 595.786 82.3135C596.343 82.608 596.804 83.0373 597.167 83.6013C597.531 84.1591 597.816 84.8421 598.023 85.6505C598.23 86.4527 598.333 87.5368 598.333 88.903C598.333 90.5198 598.167 91.8264 597.835 92.8228C597.503 93.8129 597.005 94.5806 596.34 95.1258C595.682 95.6648 594.849 95.9342 593.84 95.9342C592.511 95.9342 591.468 95.458 590.71 94.5054C589.801 93.3586 589.347 91.4911 589.347 88.903ZM591.086 88.903C591.086 91.1652 591.349 92.6724 591.875 93.4244C592.408 94.1701 593.063 94.543 593.84 94.543C594.617 94.543 595.269 94.167 595.795 93.415C596.328 92.663 596.594 91.159 596.594 88.903C596.594 86.6344 596.328 85.1273 595.795 84.3815C595.269 83.6358 594.611 83.2629 593.821 83.2629C593.044 83.2629 592.424 83.5919 591.96 84.2499C591.377 85.0897 591.086 86.6407 591.086 88.903ZM606.436 95.6992H604.744V84.9173C604.337 85.3059 603.801 85.6944 603.137 86.0829C602.479 86.4715 601.886 86.7629 601.36 86.9571V85.3215C602.306 84.8766 603.133 84.3377 603.842 83.7047C604.55 83.0718 605.051 82.4576 605.346 81.8623H606.436V95.6992Z" fill="#F2F2F2"/>
<path d="M698.019 77.9375H502.769V101.771H698.019V77.9375Z" stroke="#F2F2F2" stroke-width="0.629272" stroke-miterlimit="1.5" stroke-linecap="round" stroke-linejoin="round"/>
<path d="M208.117 77.9375H110.492V101.771H208.117V77.9375Z" fill="#00C770"/>
<path d="M148.268 91.8622L149.96 91.6366C150.154 92.5954 150.483 93.2878 150.947 93.714C151.417 94.1339 151.987 94.3438 152.658 94.3438C153.454 94.3438 154.124 94.0681 154.669 93.5166C155.221 92.9651 155.497 92.282 155.497 91.4674C155.497 90.6903 155.243 90.0511 154.735 89.5497C154.228 89.0421 153.582 88.7883 152.799 88.7883C152.479 88.7883 152.081 88.851 151.605 88.9763L151.793 87.4911C151.906 87.5037 151.997 87.5099 152.066 87.5099C152.786 87.5099 153.435 87.3219 154.011 86.9459C154.588 86.5699 154.876 85.9903 154.876 85.2069C154.876 84.5865 154.666 84.0726 154.246 83.6653C153.826 83.258 153.284 83.0543 152.62 83.0543C151.962 83.0543 151.414 83.2611 150.975 83.6747C150.536 84.0883 150.254 84.7087 150.129 85.5359L148.437 85.2351C148.644 84.1008 149.114 83.2235 149.847 82.6031C150.58 81.9764 151.492 81.6631 152.583 81.6631C153.335 81.6631 154.027 81.826 154.66 82.1519C155.293 82.4715 155.775 82.9102 156.108 83.4679C156.446 84.0256 156.615 84.6178 156.615 85.2445C156.615 85.8399 156.455 86.3819 156.136 86.8707C155.816 87.3595 155.343 87.7481 154.716 88.0363C155.531 88.2243 156.164 88.616 156.615 89.2113C157.066 89.8004 157.292 90.5399 157.292 91.4298C157.292 92.633 156.853 93.6545 155.976 94.4942C155.099 95.3277 153.989 95.7444 152.648 95.7444C151.439 95.7444 150.433 95.3841 149.631 94.6634C148.835 93.9427 148.381 93.009 148.268 91.8622ZM158.975 88.7037C158.975 87.0744 159.141 85.7647 159.473 84.7745C159.811 83.7781 160.309 83.0104 160.967 82.4715C161.632 81.9326 162.465 81.6631 163.468 81.6631C164.207 81.6631 164.856 81.8135 165.414 82.1143C165.971 82.4088 166.432 82.8381 166.795 83.4021C167.159 83.9598 167.444 84.6429 167.651 85.4513C167.858 86.2535 167.961 87.3376 167.961 88.7037C167.961 90.3206 167.795 91.6272 167.463 92.6236C167.131 93.6137 166.633 94.3814 165.968 94.9266C165.31 95.4655 164.477 95.735 163.468 95.735C162.139 95.735 161.096 95.2587 160.338 94.3062C159.429 93.1594 158.975 91.2919 158.975 88.7037ZM160.714 88.7037C160.714 90.966 160.977 92.4732 161.503 93.2252C162.036 93.9709 162.691 94.3438 163.468 94.3438C164.245 94.3438 164.897 93.9678 165.423 93.2158C165.956 92.4638 166.222 90.9598 166.222 88.7037C166.222 86.4352 165.956 84.928 165.423 84.1823C164.897 83.4366 164.239 83.0637 163.449 83.0637C162.672 83.0637 162.052 83.3927 161.588 84.0507C161.005 84.8904 160.714 86.4415 160.714 88.7037Z" fill="#F2F2F2"/>
<path d="M208.117 77.9375H110.492V101.771H208.117V77.9375Z" stroke="#F2F2F2" stroke-width="0.46417" stroke-miterlimit="1.5" stroke-linecap="round" stroke-linejoin="round"/>
<path d="M65.079 290.023V278.54H69.0348C69.9279 278.54 70.6094 278.595 71.0794 278.704C71.7374 278.856 72.2988 279.13 72.7635 279.527C73.3693 280.038 73.821 280.694 74.1187 281.493C74.4216 282.287 74.5731 283.195 74.5731 284.219C74.5731 285.091 74.4712 285.864 74.2676 286.538C74.0639 287.211 73.8028 287.77 73.4842 288.214C73.1657 288.653 72.8158 289 72.4345 289.256C72.0585 289.506 71.6016 289.697 71.0637 289.828C70.531 289.958 69.9174 290.023 69.2228 290.023H65.079ZM66.5987 288.668H69.0505C69.8077 288.668 70.4005 288.598 70.8287 288.457C71.2621 288.316 71.6068 288.117 71.8627 287.861C72.223 287.501 72.5024 287.018 72.7009 286.412C72.9045 285.801 73.0064 285.062 73.0064 284.195C73.0064 282.994 72.8079 282.073 72.411 281.43C72.0194 280.783 71.5415 280.349 70.9775 280.13C70.5702 279.973 69.9148 279.895 69.0113 279.895H66.5987V288.668ZM81.9208 288.997C81.3985 289.441 80.8946 289.754 80.4089 289.937C79.9285 290.12 79.4115 290.211 78.8579 290.211C77.944 290.211 77.2416 289.989 76.7507 289.546C76.2598 289.096 76.0144 288.525 76.0144 287.83C76.0144 287.423 76.1058 287.052 76.2886 286.718C76.4766 286.378 76.7194 286.107 77.0171 285.903C77.32 285.699 77.6594 285.545 78.0354 285.441C78.3122 285.368 78.73 285.297 79.2888 285.229C80.4272 285.094 81.2654 284.932 81.8033 284.744C81.8085 284.551 81.8111 284.428 81.8111 284.376C81.8111 283.801 81.6779 283.396 81.4116 283.161C81.0513 282.843 80.516 282.684 79.8058 282.684C79.1425 282.684 78.6516 282.801 78.3331 283.036C78.0197 283.266 77.7874 283.676 77.6359 284.266L76.2572 284.078C76.3826 283.488 76.5888 283.013 76.8761 282.652C77.1633 282.287 77.5785 282.007 78.1216 281.814C78.6647 281.616 79.294 281.516 80.0094 281.516C80.7197 281.516 81.2967 281.6 81.7406 281.767C82.1845 281.934 82.5109 282.146 82.7198 282.402C82.9287 282.652 83.0749 282.971 83.1584 283.357C83.2054 283.597 83.2289 284.031 83.2289 284.658V286.538C83.2289 287.848 83.2577 288.679 83.3151 289.029C83.3778 289.373 83.4979 289.705 83.6755 290.023H82.2028C82.0566 289.731 81.9625 289.389 81.9208 288.997ZM81.8033 285.848C81.2915 286.057 80.5238 286.235 79.5003 286.381C78.9206 286.464 78.5106 286.558 78.2704 286.663C78.0302 286.767 77.8448 286.921 77.7142 287.125C77.5837 287.324 77.5184 287.545 77.5184 287.791C77.5184 288.167 77.6594 288.48 77.9414 288.731C78.2286 288.982 78.6464 289.107 79.1948 289.107C79.7379 289.107 80.2209 288.989 80.6439 288.754C81.0669 288.514 81.3777 288.188 81.5761 287.775C81.7275 287.457 81.8033 286.987 81.8033 286.365V285.848ZM85.3596 293.227L85.203 291.903C85.5111 291.987 85.78 292.029 86.0098 292.029C86.3231 292.029 86.5738 291.977 86.7618 291.872C86.9498 291.768 87.1039 291.621 87.224 291.433C87.3128 291.292 87.4564 290.943 87.6548 290.384C87.6809 290.305 87.7227 290.191 87.7801 290.039L84.6233 281.704H86.143L87.8741 286.522C88.0987 287.133 88.2998 287.775 88.4773 288.449C88.6392 287.801 88.8324 287.169 89.057 286.553L90.8352 281.704H92.2452L89.0805 290.164C88.741 291.078 88.4773 291.708 88.2893 292.052C88.0386 292.517 87.7514 292.857 87.4276 293.071C87.1039 293.29 86.7174 293.4 86.2683 293.4C85.9967 293.4 85.6939 293.342 85.3596 293.227ZM92.8797 287.54L94.274 287.321C94.3524 287.88 94.5691 288.308 94.9242 288.606C95.2845 288.903 95.7859 289.052 96.4282 289.052C97.0758 289.052 97.5562 288.922 97.8696 288.66C98.1829 288.394 98.3396 288.083 98.3396 287.728C98.3396 287.41 98.2012 287.159 97.9244 286.976C97.7312 286.851 97.2507 286.692 96.483 286.498C95.449 286.237 94.731 286.013 94.3289 285.825C93.932 285.632 93.6291 285.368 93.4202 285.034C93.2165 284.694 93.1147 284.321 93.1147 283.913C93.1147 283.543 93.1982 283.201 93.3654 282.887C93.5377 282.569 93.7701 282.305 94.0625 282.096C94.2819 281.934 94.5795 281.798 94.9555 281.689C95.3368 281.574 95.7441 281.516 96.1775 281.516C96.8303 281.516 97.4022 281.61 97.8931 281.798C98.3892 281.986 98.7547 282.242 98.9897 282.566C99.2247 282.885 99.3866 283.313 99.4754 283.851L98.0967 284.039C98.0341 283.611 97.8513 283.276 97.5484 283.036C97.2507 282.796 96.8277 282.676 96.2794 282.676C95.6318 282.676 95.1696 282.783 94.8929 282.997C94.6161 283.211 94.4777 283.462 94.4777 283.749C94.4777 283.932 94.5351 284.096 94.65 284.242C94.7649 284.394 94.9451 284.519 95.1905 284.618C95.3315 284.671 95.7467 284.791 96.436 284.979C97.4335 285.245 98.1281 285.464 98.5197 285.637C98.9166 285.804 99.2273 286.049 99.4519 286.373C99.6765 286.697 99.7887 287.099 99.7887 287.579C99.7887 288.049 99.6503 288.493 99.3736 288.911C99.102 289.324 98.7077 289.645 98.1907 289.875C97.6737 290.099 97.0888 290.211 96.436 290.211C95.355 290.211 94.5299 289.987 93.9607 289.538C93.3967 289.089 93.0364 288.423 92.8797 287.54Z" fill="#F2F2F2"/>
<path d="M65.079 96.707V85.2233H69.0348C69.9279 85.2233 70.6094 85.2781 71.0794 85.3878C71.7374 85.5392 72.2988 85.8134 72.7635 86.2103C73.3693 86.7221 73.821 87.3775 74.1187 88.1765C74.4216 88.9703 74.5731 89.8789 74.5731 90.9025C74.5731 91.7746 74.4712 92.5475 74.2676 93.2212C74.0639 93.8948 73.8028 94.4536 73.4842 94.8975C73.1657 95.3362 72.8158 95.6835 72.4345 95.9394C72.0585 96.19 71.6016 96.3806 71.0637 96.5112C70.531 96.6418 69.9174 96.707 69.2228 96.707H65.079ZM66.5987 95.3519H69.0505C69.8077 95.3519 70.4005 95.2814 70.8287 95.1404C71.2621 94.9994 71.6068 94.8009 71.8627 94.545C72.223 94.1847 72.5024 93.7016 72.7009 93.0958C72.9045 92.4848 73.0064 91.7459 73.0064 90.879C73.0064 89.6779 72.8079 88.7561 72.411 88.1138C72.0194 87.4662 71.5415 87.0328 70.9775 86.8135C70.5702 86.6568 69.9148 86.5785 69.0113 86.5785H66.5987V95.3519ZM81.9208 95.6809C81.3985 96.1247 80.8946 96.4381 80.4089 96.6209C79.9285 96.8036 79.4115 96.895 78.8579 96.895C77.944 96.895 77.2416 96.6731 76.7507 96.2292C76.2598 95.7801 76.0144 95.2082 76.0144 94.5137C76.0144 94.1063 76.1058 93.7356 76.2886 93.4013C76.4766 93.0619 76.7194 92.7903 77.0171 92.5867C77.32 92.383 77.6594 92.2289 78.0354 92.1245C78.3122 92.0514 78.73 91.9809 79.2888 91.913C80.4272 91.7772 81.2654 91.6153 81.8033 91.4273C81.8085 91.2341 81.8111 91.1114 81.8111 91.0592C81.8111 90.4847 81.6779 90.08 81.4116 89.845C81.0513 89.5264 80.516 89.3671 79.8058 89.3671C79.1425 89.3671 78.6516 89.4846 78.3331 89.7196C78.0197 89.9494 77.7874 90.3594 77.6359 90.9495L76.2572 90.7615C76.3826 90.1714 76.5888 89.6961 76.8761 89.3358C77.1633 88.9703 77.5785 88.6909 78.1216 88.4976C78.6647 88.2992 79.294 88.2 80.0094 88.2C80.7197 88.2 81.2967 88.2835 81.7406 88.4506C82.1845 88.6178 82.5109 88.8293 82.7198 89.0851C82.9287 89.3358 83.0749 89.6544 83.1584 90.0408C83.2054 90.281 83.2289 90.7145 83.2289 91.3412V93.2212C83.2289 94.532 83.2577 95.3623 83.3151 95.7122C83.3778 96.0569 83.4979 96.3885 83.6755 96.707H82.2028C82.0566 96.4146 81.9625 96.0725 81.9208 95.6809ZM81.8033 92.5318C81.2915 92.7407 80.5238 92.9183 79.5003 93.0645C78.9206 93.1481 78.5106 93.2421 78.2704 93.3465C78.0302 93.451 77.8448 93.605 77.7142 93.8087C77.5837 94.0071 77.5184 94.2291 77.5184 94.4745C77.5184 94.8505 77.6594 95.1639 77.9414 95.4145C78.2286 95.6652 78.6464 95.7905 79.1948 95.7905C79.7379 95.7905 80.2209 95.673 80.6439 95.438C81.0669 95.1978 81.3777 94.8714 81.5761 94.4588C81.7275 94.1403 81.8033 93.6703 81.8033 93.0488V92.5318ZM85.3596 99.9109L85.203 98.587C85.5111 98.6706 85.78 98.7124 86.0098 98.7124C86.3231 98.7124 86.5738 98.6602 86.7618 98.5557C86.9498 98.4513 87.1039 98.305 87.224 98.117C87.3128 97.976 87.4564 97.6261 87.6548 97.0674C87.6809 96.989 87.7227 96.8741 87.7801 96.7227L84.6233 88.388H86.143L87.8741 93.2055C88.0987 93.8165 88.2998 94.4588 88.4773 95.1325C88.6392 94.485 88.8324 93.8531 89.057 93.2368L90.8352 88.388H92.2452L89.0805 96.848C88.741 97.7619 88.4773 98.3912 88.2893 98.7359C88.0386 99.2007 87.7514 99.5401 87.4276 99.7542C87.1039 99.9736 86.7174 100.083 86.2683 100.083C85.9967 100.083 85.6939 100.026 85.3596 99.9109ZM92.8797 94.2238L94.274 94.0045C94.3524 94.5633 94.5691 94.9915 94.9242 95.2892C95.2845 95.5869 95.7859 95.7357 96.4282 95.7357C97.0758 95.7357 97.5562 95.6051 97.8696 95.344C98.1829 95.0777 98.3396 94.767 98.3396 94.4118C98.3396 94.0933 98.2012 93.8426 97.9244 93.6598C97.7312 93.5345 97.2507 93.3752 96.483 93.182C95.449 92.9209 94.731 92.6963 94.3289 92.5083C93.932 92.3151 93.6291 92.0514 93.4202 91.7172C93.2165 91.3777 93.1147 91.0043 93.1147 90.597C93.1147 90.2262 93.1982 89.8841 93.3654 89.5708C93.5377 89.2523 93.7701 88.9885 94.0625 88.7796C94.2819 88.6178 94.5795 88.482 94.9555 88.3723C95.3368 88.2574 95.7441 88.2 96.1775 88.2C96.8303 88.2 97.4022 88.294 97.8931 88.482C98.3892 88.67 98.7547 88.9259 98.9897 89.2496C99.2247 89.5682 99.3866 89.9964 99.4754 90.5343L98.0967 90.7223C98.0341 90.2941 97.8513 89.9599 97.5484 89.7196C97.2507 89.4794 96.8277 89.3593 96.2794 89.3593C95.6318 89.3593 95.1696 89.4664 94.8929 89.6805C94.6161 89.8946 94.4777 90.1453 94.4777 90.4325C94.4777 90.6153 94.5351 90.7798 94.65 90.926C94.7649 91.0774 94.9451 91.2028 95.1905 91.302C95.3315 91.3542 95.7467 91.4743 96.436 91.6623C97.4335 91.9287 98.1281 92.148 98.5197 92.3203C98.9166 92.4874 99.2273 92.7329 99.4519 93.0567C99.6765 93.3805 99.7887 93.7826 99.7887 94.263C99.7887 94.733 99.6503 95.1769 99.3736 95.5947C99.102 96.0072 98.7077 96.3284 98.1907 96.5582C97.6737 96.7828 97.0888 96.895 96.436 96.895C95.355 96.895 94.5299 96.6705 93.9607 96.2214C93.3967 95.7722 93.0364 95.1064 92.8797 94.2238Z" fill="#F2F2F2"/>
<path d="M404.257 246.016H110.494V269.85H404.257V246.016Z" fill="#FF6900"/>
<path d="M209.735 263.578V249.798H214.482C215.554 249.798 216.372 249.863 216.936 249.995C217.726 250.177 218.399 250.506 218.957 250.982C219.684 251.596 220.226 252.383 220.583 253.341C220.947 254.294 221.128 255.384 221.128 256.613C221.128 257.659 221.006 258.587 220.762 259.395C220.517 260.203 220.204 260.874 219.822 261.407C219.439 261.933 219.02 262.35 218.562 262.657C218.111 262.958 217.563 263.186 216.917 263.343C216.278 263.5 215.542 263.578 214.708 263.578H209.735ZM211.559 261.952H214.501C215.41 261.952 216.121 261.867 216.635 261.698C217.155 261.529 217.569 261.291 217.876 260.984C218.308 260.551 218.644 259.972 218.882 259.245C219.126 258.511 219.248 257.625 219.248 256.584C219.248 255.143 219.01 254.037 218.534 253.266C218.064 252.489 217.491 251.969 216.814 251.706C216.325 251.518 215.538 251.424 214.454 251.424H211.559V261.952ZM230.265 260.363L232.014 260.579C231.738 261.601 231.227 262.394 230.481 262.958C229.736 263.522 228.783 263.804 227.624 263.804C226.164 263.804 225.004 263.356 224.146 262.46C223.294 261.557 222.867 260.294 222.867 258.671C222.867 256.992 223.3 255.688 224.165 254.761C225.029 253.833 226.151 253.37 227.53 253.37C228.865 253.37 229.955 253.824 230.801 254.733C231.647 255.641 232.07 256.92 232.07 258.568C232.07 258.668 232.067 258.819 232.061 259.019H224.616C224.678 260.116 224.989 260.956 225.546 261.538C226.104 262.121 226.8 262.413 227.633 262.413C228.254 262.413 228.783 262.25 229.222 261.924C229.661 261.598 230.008 261.078 230.265 260.363ZM224.71 257.628H230.284C230.209 256.788 229.996 256.158 229.645 255.738C229.106 255.087 228.407 254.761 227.549 254.761C226.772 254.761 226.117 255.021 225.584 255.541C225.058 256.061 224.766 256.757 224.71 257.628ZM240.662 259.921L242.326 260.138C242.144 261.285 241.677 262.184 240.925 262.836C240.179 263.481 239.261 263.804 238.171 263.804C236.805 263.804 235.705 263.359 234.871 262.469C234.044 261.573 233.63 260.291 233.63 258.624C233.63 257.546 233.809 256.603 234.166 255.795C234.523 254.986 235.066 254.382 235.792 253.981C236.526 253.573 237.322 253.37 238.18 253.37C239.264 253.37 240.151 253.645 240.84 254.197C241.53 254.742 241.971 255.519 242.166 256.528L240.521 256.782C240.364 256.111 240.085 255.607 239.684 255.268C239.289 254.93 238.81 254.761 238.246 254.761C237.394 254.761 236.701 255.068 236.168 255.682C235.636 256.29 235.369 257.255 235.369 258.577C235.369 259.918 235.626 260.893 236.14 261.501C236.654 262.109 237.325 262.413 238.152 262.413C238.816 262.413 239.371 262.209 239.816 261.802C240.261 261.394 240.543 260.767 240.662 259.921ZM250.607 260.363L252.355 260.579C252.08 261.601 251.569 262.394 250.823 262.958C250.077 263.522 249.125 263.804 247.966 263.804C246.505 263.804 245.346 263.356 244.488 262.46C243.635 261.557 243.209 260.294 243.209 258.671C243.209 256.992 243.642 255.688 244.506 254.761C245.371 253.833 246.493 253.37 247.872 253.37C249.206 253.37 250.297 253.824 251.143 254.733C251.989 255.641 252.412 256.92 252.412 258.568C252.412 258.668 252.409 258.819 252.402 259.019H244.958C245.02 260.116 245.33 260.956 245.888 261.538C246.446 262.121 247.142 262.413 247.975 262.413C248.595 262.413 249.125 262.25 249.564 261.924C250.002 261.598 250.35 261.078 250.607 260.363ZM245.052 257.628H250.626C250.551 256.788 250.338 256.158 249.987 255.738C249.448 255.087 248.749 254.761 247.89 254.761C247.113 254.761 246.458 255.021 245.926 255.541C245.399 256.061 245.108 256.757 245.052 257.628ZM254.489 263.578V253.595H256.003V254.996C256.316 254.507 256.733 254.115 257.253 253.821C257.773 253.52 258.365 253.37 259.029 253.37C259.769 253.37 260.374 253.523 260.844 253.83C261.32 254.137 261.655 254.567 261.85 255.118C262.639 253.952 263.667 253.37 264.933 253.37C265.923 253.37 266.684 253.645 267.217 254.197C267.75 254.742 268.016 255.585 268.016 256.725V263.578H266.333V257.289C266.333 256.613 266.277 256.127 266.164 255.832C266.058 255.532 265.86 255.29 265.572 255.109C265.284 254.927 264.945 254.836 264.557 254.836C263.855 254.836 263.272 255.071 262.808 255.541C262.345 256.005 262.113 256.751 262.113 257.778V263.578H260.421V257.092C260.421 256.34 260.283 255.776 260.007 255.4C259.731 255.024 259.28 254.836 258.653 254.836C258.177 254.836 257.735 254.961 257.328 255.212C256.927 255.463 256.636 255.829 256.454 256.312C256.272 256.794 256.181 257.49 256.181 258.399V263.578H254.489ZM272.086 263.578H270.516V249.798H272.208V254.714C272.923 253.818 273.835 253.37 274.944 253.37C275.558 253.37 276.138 253.495 276.683 253.746C277.234 253.99 277.686 254.338 278.036 254.789C278.394 255.234 278.673 255.773 278.873 256.406C279.074 257.039 279.174 257.716 279.174 258.436C279.174 260.147 278.751 261.469 277.905 262.403C277.059 263.337 276.044 263.804 274.859 263.804C273.681 263.804 272.757 263.312 272.086 262.328V263.578ZM272.067 258.511C272.067 259.708 272.23 260.573 272.556 261.106C273.089 261.977 273.81 262.413 274.718 262.413C275.458 262.413 276.097 262.093 276.636 261.454C277.175 260.808 277.444 259.849 277.444 258.577C277.444 257.274 277.184 256.312 276.664 255.691C276.15 255.071 275.527 254.761 274.793 254.761C274.054 254.761 273.415 255.084 272.876 255.729C272.337 256.368 272.067 257.296 272.067 258.511ZM288.076 260.363L289.824 260.579C289.548 261.601 289.038 262.394 288.292 262.958C287.546 263.522 286.594 263.804 285.434 263.804C283.974 263.804 282.815 263.356 281.956 262.46C281.104 261.557 280.678 260.294 280.678 258.671C280.678 256.992 281.11 255.688 281.975 254.761C282.84 253.833 283.962 253.37 285.34 253.37C286.675 253.37 287.766 253.824 288.612 254.733C289.458 255.641 289.881 256.92 289.881 258.568C289.881 258.668 289.877 258.819 289.871 259.019H282.426C282.489 260.116 282.799 260.956 283.357 261.538C283.915 262.121 284.61 262.413 285.444 262.413C286.064 262.413 286.594 262.25 287.032 261.924C287.471 261.598 287.819 261.078 288.076 260.363ZM282.52 257.628H288.095C288.019 256.788 287.806 256.158 287.455 255.738C286.916 255.087 286.218 254.761 285.359 254.761C284.582 254.761 283.927 255.021 283.395 255.541C282.868 256.061 282.577 256.757 282.52 257.628ZM291.939 263.578V253.595H293.462V255.109C293.851 254.401 294.208 253.934 294.534 253.708C294.866 253.482 295.229 253.37 295.624 253.37C296.194 253.37 296.774 253.551 297.363 253.915L296.78 255.485C296.367 255.24 295.953 255.118 295.539 255.118C295.17 255.118 294.838 255.231 294.543 255.456C294.248 255.676 294.039 255.983 293.913 256.378C293.725 256.979 293.631 257.637 293.631 258.352V263.578H291.939Z" fill="#F2F2F2"/>
<path d="M404.257 246.016H110.494V269.85H404.257V246.016Z" stroke="#F2F2F2" stroke-width="0.727441" stroke-miterlimit="1.5" stroke-linecap="round" stroke-linejoin="round"/>
<path d="M698.018 246.016H404.256V269.85H698.018V246.016Z" fill="#FF6900"/>
<path d="M513.803 259.668L515.448 259.442C515.492 260.495 515.69 261.216 516.041 261.604C516.392 261.993 516.877 262.187 517.498 262.187C517.955 262.187 518.35 262.084 518.682 261.877C519.014 261.664 519.243 261.379 519.368 261.021C519.494 260.658 519.556 260.081 519.556 259.292V249.798H521.38V259.188C521.38 260.341 521.239 261.234 520.957 261.867C520.681 262.5 520.239 262.983 519.631 263.315C519.03 263.647 518.322 263.813 517.507 263.813C516.298 263.813 515.37 263.465 514.725 262.77C514.085 262.074 513.778 261.04 513.803 259.668ZM530.658 262.347C530.031 262.879 529.426 263.255 528.844 263.475C528.267 263.694 527.647 263.804 526.982 263.804C525.886 263.804 525.043 263.537 524.454 263.005C523.865 262.466 523.57 261.78 523.57 260.946C523.57 260.457 523.68 260.012 523.899 259.611C524.125 259.204 524.416 258.878 524.773 258.634C525.137 258.389 525.544 258.204 525.995 258.079C526.327 257.991 526.829 257.907 527.499 257.825C528.865 257.662 529.871 257.468 530.517 257.242C530.523 257.011 530.526 256.863 530.526 256.801C530.526 256.111 530.366 255.626 530.047 255.344C529.614 254.961 528.972 254.77 528.12 254.77C527.324 254.77 526.735 254.911 526.352 255.193C525.976 255.469 525.698 255.961 525.516 256.669L523.861 256.443C524.012 255.735 524.259 255.165 524.604 254.733C524.949 254.294 525.447 253.959 526.099 253.727C526.75 253.489 527.506 253.37 528.364 253.37C529.216 253.37 529.909 253.47 530.442 253.67C530.974 253.871 531.366 254.125 531.617 254.432C531.867 254.733 532.043 255.115 532.143 255.579C532.199 255.867 532.228 256.387 532.228 257.139V259.395C532.228 260.968 532.262 261.964 532.331 262.384C532.406 262.798 532.55 263.196 532.763 263.578H530.996C530.821 263.227 530.708 262.817 530.658 262.347ZM530.517 258.568C529.903 258.819 528.981 259.032 527.753 259.207C527.058 259.307 526.566 259.42 526.277 259.545C525.989 259.671 525.767 259.856 525.61 260.1C525.453 260.338 525.375 260.605 525.375 260.899C525.375 261.35 525.544 261.726 525.882 262.027C526.227 262.328 526.728 262.478 527.387 262.478C528.038 262.478 528.618 262.337 529.126 262.055C529.633 261.767 530.006 261.375 530.244 260.88C530.426 260.498 530.517 259.934 530.517 259.188V258.568ZM534.86 263.578V253.595H536.382V255.015C537.116 253.918 538.175 253.37 539.56 253.37C540.161 253.37 540.713 253.479 541.214 253.699C541.722 253.912 542.101 254.194 542.351 254.545C542.602 254.896 542.778 255.312 542.878 255.795C542.941 256.108 542.972 256.657 542.972 257.44V263.578H541.28V257.506C541.28 256.816 541.214 256.302 541.082 255.964C540.951 255.619 540.716 255.347 540.377 255.146C540.045 254.939 539.654 254.836 539.202 254.836C538.482 254.836 537.858 255.065 537.332 255.522C536.812 255.98 536.552 256.848 536.552 258.126V263.578H534.86ZM552.118 263.578V262.112C551.341 263.24 550.285 263.804 548.95 263.804C548.361 263.804 547.81 263.691 547.296 263.465C546.788 263.24 546.409 262.958 546.158 262.619C545.914 262.275 545.742 261.855 545.641 261.36C545.573 261.028 545.538 260.501 545.538 259.78V253.595H547.23V259.132C547.23 260.015 547.265 260.611 547.333 260.918C547.44 261.363 547.666 261.714 548.01 261.971C548.355 262.221 548.781 262.347 549.289 262.347C549.796 262.347 550.273 262.218 550.718 261.961C551.162 261.698 551.476 261.344 551.658 260.899C551.846 260.448 551.94 259.796 551.94 258.944V253.595H553.632V263.578H552.118ZM562.806 262.347C562.179 262.879 561.575 263.255 560.992 263.475C560.415 263.694 559.795 263.804 559.131 263.804C558.034 263.804 557.191 263.537 556.602 263.005C556.013 262.466 555.718 261.78 555.718 260.946C555.718 260.457 555.828 260.012 556.047 259.611C556.273 259.204 556.564 258.878 556.922 258.634C557.285 258.389 557.692 258.204 558.144 258.079C558.476 257.991 558.977 257.907 559.648 257.825C561.014 257.662 562.02 257.468 562.665 257.242C562.671 257.011 562.674 256.863 562.674 256.801C562.674 256.111 562.515 255.626 562.195 255.344C561.763 254.961 561.12 254.77 560.268 254.77C559.472 254.77 558.883 254.911 558.501 255.193C558.125 255.469 557.846 255.961 557.664 256.669L556.01 256.443C556.16 255.735 556.408 255.165 556.752 254.733C557.097 254.294 557.595 253.959 558.247 253.727C558.899 253.489 559.654 253.37 560.512 253.37C561.365 253.37 562.057 253.47 562.59 253.67C563.122 253.871 563.514 254.125 563.765 254.432C564.015 254.733 564.191 255.115 564.291 255.579C564.348 255.867 564.376 256.387 564.376 257.139V259.395C564.376 260.968 564.41 261.964 564.479 262.384C564.554 262.798 564.699 263.196 564.912 263.578H563.144C562.969 263.227 562.856 262.817 562.806 262.347ZM562.665 258.568C562.051 258.819 561.13 259.032 559.901 259.207C559.206 259.307 558.714 259.42 558.426 259.545C558.137 259.671 557.915 259.856 557.758 260.1C557.602 260.338 557.523 260.605 557.523 260.899C557.523 261.35 557.692 261.726 558.031 262.027C558.375 262.328 558.877 262.478 559.535 262.478C560.187 262.478 560.766 262.337 561.274 262.055C561.781 261.767 562.154 261.375 562.392 260.88C562.574 260.498 562.665 259.934 562.665 259.188V258.568ZM566.989 263.578V253.595H568.512V255.109C568.9 254.401 569.258 253.934 569.583 253.708C569.916 253.482 570.279 253.37 570.674 253.37C571.244 253.37 571.824 253.551 572.413 253.915L571.83 255.485C571.416 255.24 571.003 255.118 570.589 255.118C570.22 255.118 569.887 255.231 569.593 255.456C569.298 255.676 569.088 255.983 568.963 256.378C568.775 256.979 568.681 257.637 568.681 258.352V263.578H566.989ZM573.344 267.423L573.156 265.834C573.525 265.934 573.848 265.985 574.124 265.985C574.5 265.985 574.801 265.922 575.026 265.797C575.252 265.671 575.437 265.496 575.581 265.27C575.687 265.101 575.86 264.681 576.098 264.011C576.129 263.917 576.179 263.779 576.248 263.597L572.46 253.595H574.284L576.361 259.376C576.63 260.109 576.872 260.88 577.085 261.689C577.279 260.912 577.511 260.153 577.78 259.414L579.914 253.595H581.606L577.809 263.747C577.401 264.844 577.085 265.599 576.859 266.013C576.558 266.57 576.214 266.978 575.825 267.235C575.437 267.498 574.973 267.63 574.434 267.63C574.108 267.63 573.745 267.561 573.344 267.423Z" fill="#F2F2F2"/>
<path d="M698.018 246.016H404.256V269.85H698.018V246.016Z" stroke="#F2F2F2" stroke-width="0.727441" stroke-miterlimit="1.5" stroke-linecap="round" stroke-linejoin="round"/>
<path d="M502.769 107.246H110.494V131.08H502.769V107.246Z" fill="#FF6900"/>
<path d="M258.992 124.805V111.024H263.739C264.811 111.024 265.629 111.09 266.193 111.222C266.982 111.403 267.656 111.732 268.214 112.209C268.94 112.823 269.483 113.609 269.84 114.568C270.203 115.521 270.385 116.611 270.385 117.839C270.385 118.886 270.263 119.813 270.018 120.622C269.774 121.43 269.461 122.101 269.078 122.633C268.696 123.16 268.276 123.576 267.819 123.883C267.368 124.184 266.819 124.413 266.174 124.57C265.535 124.726 264.798 124.805 263.965 124.805H258.992ZM260.816 123.178H263.758C264.667 123.178 265.378 123.094 265.892 122.925C266.412 122.755 266.825 122.517 267.133 122.21C267.565 121.778 267.9 121.198 268.138 120.471C268.383 119.738 268.505 118.851 268.505 117.811C268.505 116.37 268.267 115.264 267.791 114.493C267.321 113.716 266.747 113.196 266.07 112.932C265.582 112.744 264.795 112.65 263.711 112.65H260.816V123.178ZM279.522 121.59L281.27 121.806C280.995 122.828 280.484 123.62 279.738 124.184C278.992 124.748 278.04 125.03 276.88 125.03C275.42 125.03 274.261 124.582 273.402 123.686C272.55 122.784 272.124 121.521 272.124 119.898C272.124 118.218 272.556 116.915 273.421 115.987C274.286 115.06 275.408 114.596 276.786 114.596C278.121 114.596 279.212 115.051 280.058 115.959C280.904 116.868 281.327 118.146 281.327 119.794C281.327 119.895 281.324 120.045 281.317 120.246H273.872C273.935 121.342 274.245 122.182 274.803 122.765C275.361 123.348 276.056 123.639 276.89 123.639C277.51 123.639 278.04 123.476 278.478 123.15C278.917 122.824 279.265 122.304 279.522 121.59ZM273.966 118.854H279.541C279.465 118.015 279.252 117.385 278.901 116.965C278.363 116.313 277.664 115.987 276.805 115.987C276.028 115.987 275.373 116.247 274.841 116.768C274.314 117.288 274.023 117.983 273.966 118.854ZM289.918 121.148L291.582 121.364C291.4 122.511 290.934 123.41 290.182 124.062C289.436 124.708 288.518 125.03 287.427 125.03C286.061 125.03 284.961 124.585 284.128 123.695C283.301 122.799 282.887 121.518 282.887 119.851C282.887 118.773 283.066 117.83 283.423 117.021C283.78 116.213 284.322 115.608 285.049 115.207C285.782 114.8 286.578 114.596 287.437 114.596C288.521 114.596 289.408 114.872 290.097 115.423C290.786 115.969 291.228 116.746 291.422 117.755L289.777 118.008C289.621 117.338 289.342 116.833 288.941 116.495C288.546 116.157 288.067 115.987 287.503 115.987C286.65 115.987 285.958 116.294 285.425 116.909C284.892 117.516 284.626 118.482 284.626 119.804C284.626 121.145 284.883 122.119 285.397 122.727C285.911 123.335 286.581 123.639 287.409 123.639C288.073 123.639 288.627 123.435 289.072 123.028C289.517 122.621 289.799 121.994 289.918 121.148ZM299.864 121.59L301.612 121.806C301.336 122.828 300.826 123.62 300.08 124.184C299.334 124.748 298.382 125.03 297.222 125.03C295.762 125.03 294.603 124.582 293.744 123.686C292.892 122.784 292.466 121.521 292.466 119.898C292.466 118.218 292.898 116.915 293.763 115.987C294.628 115.06 295.75 114.596 297.128 114.596C298.463 114.596 299.553 115.051 300.399 115.959C301.245 116.868 301.668 118.146 301.668 119.794C301.668 119.895 301.665 120.045 301.659 120.246H294.214C294.277 121.342 294.587 122.182 295.145 122.765C295.703 123.348 296.398 123.639 297.232 123.639C297.852 123.639 298.382 123.476 298.82 123.15C299.259 122.824 299.607 122.304 299.864 121.59ZM294.308 118.854H299.882C299.807 118.015 299.594 117.385 299.243 116.965C298.704 116.313 298.006 115.987 297.147 115.987C296.37 115.987 295.715 116.247 295.182 116.768C294.656 117.288 294.365 117.983 294.308 118.854ZM303.746 124.805V114.822H305.259V116.222C305.573 115.734 305.989 115.342 306.51 115.047C307.03 114.747 307.622 114.596 308.286 114.596C309.026 114.596 309.63 114.75 310.1 115.057C310.577 115.364 310.912 115.793 311.106 116.345C311.896 115.179 312.924 114.596 314.189 114.596C315.18 114.596 315.941 114.872 316.474 115.423C317.006 115.969 317.273 116.811 317.273 117.952V124.805H315.59V118.516C315.59 117.839 315.534 117.354 315.421 117.059C315.314 116.758 315.117 116.517 314.829 116.335C314.54 116.153 314.202 116.063 313.813 116.063C313.112 116.063 312.529 116.298 312.065 116.768C311.601 117.231 311.369 117.977 311.369 119.005V124.805H309.677V118.319C309.677 117.567 309.539 117.003 309.264 116.627C308.988 116.251 308.537 116.063 307.91 116.063C307.434 116.063 306.992 116.188 306.585 116.439C306.184 116.689 305.892 117.056 305.711 117.538C305.529 118.021 305.438 118.717 305.438 119.625V124.805H303.746ZM321.343 124.805H319.773V111.024H321.465V115.94C322.179 115.044 323.091 114.596 324.2 114.596C324.815 114.596 325.394 114.722 325.94 114.972C326.491 115.217 326.942 115.564 327.293 116.016C327.65 116.461 327.929 116.999 328.13 117.632C328.33 118.265 328.431 118.942 328.431 119.663C328.431 121.374 328.008 122.696 327.162 123.63C326.316 124.563 325.3 125.03 324.116 125.03C322.938 125.03 322.013 124.538 321.343 123.554V124.805ZM321.324 119.738C321.324 120.935 321.487 121.8 321.813 122.332C322.346 123.204 323.066 123.639 323.975 123.639C324.714 123.639 325.354 123.319 325.893 122.68C326.431 122.035 326.701 121.076 326.701 119.804C326.701 118.5 326.441 117.538 325.921 116.918C325.407 116.298 324.783 115.987 324.05 115.987C323.311 115.987 322.671 116.31 322.132 116.956C321.594 117.595 321.324 118.522 321.324 119.738ZM337.332 121.59L339.081 121.806C338.805 122.828 338.294 123.62 337.549 124.184C336.803 124.748 335.85 125.03 334.691 125.03C333.231 125.03 332.072 124.582 331.213 123.686C330.361 122.784 329.935 121.521 329.935 119.898C329.935 118.218 330.367 116.915 331.232 115.987C332.097 115.06 333.218 114.596 334.597 114.596C335.932 114.596 337.022 115.051 337.868 115.959C338.714 116.868 339.137 118.146 339.137 119.794C339.137 119.895 339.134 120.045 339.128 120.246H331.683C331.746 121.342 332.056 122.182 332.614 122.765C333.171 123.348 333.867 123.639 334.7 123.639C335.321 123.639 335.85 123.476 336.289 123.15C336.728 122.824 337.075 122.304 337.332 121.59ZM331.777 118.854H337.351C337.276 118.015 337.063 117.385 336.712 116.965C336.173 116.313 335.474 115.987 334.616 115.987C333.839 115.987 333.184 116.247 332.651 116.768C332.125 117.288 331.833 117.983 331.777 118.854ZM341.196 124.805V114.822H342.719V116.335C343.107 115.627 343.464 115.16 343.79 114.935C344.122 114.709 344.486 114.596 344.881 114.596C345.451 114.596 346.031 114.778 346.62 115.141L346.037 116.711C345.623 116.467 345.21 116.345 344.796 116.345C344.426 116.345 344.094 116.457 343.8 116.683C343.505 116.902 343.295 117.209 343.17 117.604C342.982 118.206 342.888 118.864 342.888 119.578V124.805H341.196Z" fill="#F2F2F2"/>
<path d="M502.769 107.246H110.494V131.08H502.769V107.246Z" stroke="#F2F2F2" stroke-width="0.776442" stroke-miterlimit="1.5" stroke-linecap="round" stroke-linejoin="round"/>
<path d="M698.019 107.246H502.769V131.08H698.019V107.246Z" fill="#FF6900"/>
<path d="M563.059 120.894L564.705 120.669C564.748 121.721 564.946 122.442 565.297 122.831C565.648 123.219 566.133 123.413 566.754 123.413C567.211 123.413 567.606 123.31 567.938 123.103C568.27 122.89 568.499 122.605 568.624 122.248C568.75 121.884 568.812 121.308 568.812 120.518V111.024H570.636V120.415C570.636 121.568 570.495 122.461 570.213 123.094C569.937 123.727 569.495 124.209 568.888 124.541C568.286 124.874 567.578 125.04 566.763 125.04C565.554 125.04 564.626 124.692 563.981 123.996C563.341 123.301 563.034 122.267 563.059 120.894ZM579.914 123.573C579.287 124.106 578.682 124.482 578.1 124.701C577.523 124.921 576.903 125.03 576.238 125.03C575.142 125.03 574.299 124.764 573.71 124.231C573.121 123.692 572.826 123.006 572.826 122.173C572.826 121.684 572.936 121.239 573.155 120.838C573.381 120.431 573.672 120.105 574.029 119.86C574.393 119.616 574.8 119.431 575.251 119.306C575.584 119.218 576.085 119.133 576.755 119.052C578.122 118.889 579.127 118.695 579.773 118.469C579.779 118.237 579.782 118.09 579.782 118.027C579.782 117.338 579.622 116.852 579.303 116.57C578.87 116.188 578.228 115.997 577.376 115.997C576.58 115.997 575.991 116.138 575.609 116.42C575.233 116.696 574.954 117.187 574.772 117.896L573.118 117.67C573.268 116.962 573.516 116.392 573.86 115.959C574.205 115.521 574.703 115.185 575.355 114.953C576.007 114.715 576.762 114.596 577.62 114.596C578.472 114.596 579.165 114.696 579.698 114.897C580.23 115.098 580.622 115.351 580.873 115.658C581.123 115.959 581.299 116.341 581.399 116.805C581.455 117.093 581.484 117.614 581.484 118.366V120.622C581.484 122.195 581.518 123.191 581.587 123.611C581.662 124.024 581.806 124.422 582.019 124.805H580.252C580.077 124.454 579.964 124.043 579.914 123.573ZM579.773 119.794C579.159 120.045 578.237 120.258 577.009 120.434C576.314 120.534 575.822 120.647 575.533 120.772C575.245 120.897 575.023 121.082 574.866 121.327C574.709 121.565 574.631 121.831 574.631 122.126C574.631 122.577 574.8 122.953 575.139 123.254C575.483 123.554 575.985 123.705 576.643 123.705C577.294 123.705 577.874 123.564 578.382 123.282C578.889 122.994 579.262 122.602 579.5 122.107C579.682 121.725 579.773 121.161 579.773 120.415V119.794ZM584.116 124.805V114.822H585.638V116.241C586.372 115.145 587.431 114.596 588.816 114.596C589.417 114.596 589.969 114.706 590.47 114.925C590.978 115.138 591.357 115.42 591.608 115.771C591.858 116.122 592.034 116.539 592.134 117.021C592.197 117.335 592.228 117.883 592.228 118.666V124.805H590.536V118.732C590.536 118.043 590.47 117.529 590.339 117.191C590.207 116.846 589.972 116.573 589.634 116.373C589.301 116.166 588.91 116.063 588.458 116.063C587.738 116.063 587.114 116.291 586.588 116.749C586.068 117.206 585.808 118.074 585.808 119.353V124.805H584.116ZM601.374 124.805V123.338C600.597 124.466 599.541 125.03 598.206 125.03C597.617 125.03 597.066 124.917 596.552 124.692C596.044 124.466 595.665 124.184 595.415 123.846C595.17 123.501 594.998 123.081 594.898 122.586C594.829 122.254 594.794 121.728 594.794 121.007V114.822H596.486V120.358C596.486 121.242 596.521 121.837 596.59 122.144C596.696 122.589 596.922 122.94 597.266 123.197C597.611 123.448 598.037 123.573 598.545 123.573C599.052 123.573 599.529 123.445 599.974 123.188C600.419 122.925 600.732 122.571 600.914 122.126C601.102 121.674 601.196 121.023 601.196 120.17V114.822H602.888V124.805H601.374ZM612.062 123.573C611.435 124.106 610.831 124.482 610.248 124.701C609.671 124.921 609.051 125.03 608.387 125.03C607.29 125.03 606.447 124.764 605.858 124.231C605.269 123.692 604.974 123.006 604.974 122.173C604.974 121.684 605.084 121.239 605.303 120.838C605.529 120.431 605.82 120.105 606.178 119.86C606.541 119.616 606.948 119.431 607.4 119.306C607.732 119.218 608.233 119.133 608.904 119.052C610.27 118.889 611.276 118.695 611.921 118.469C611.927 118.237 611.93 118.09 611.93 118.027C611.93 117.338 611.771 116.852 611.451 116.57C611.019 116.188 610.376 115.997 609.524 115.997C608.728 115.997 608.139 116.138 607.757 116.42C607.381 116.696 607.102 117.187 606.92 117.896L605.266 117.67C605.416 116.962 605.664 116.392 606.008 115.959C606.353 115.521 606.851 115.185 607.503 114.953C608.155 114.715 608.91 114.596 609.768 114.596C610.621 114.596 611.313 114.696 611.846 114.897C612.379 115.098 612.77 115.351 613.021 115.658C613.272 115.959 613.447 116.341 613.547 116.805C613.604 117.093 613.632 117.614 613.632 118.366V120.622C613.632 122.195 613.666 123.191 613.735 123.611C613.811 124.024 613.955 124.422 614.168 124.805H612.4C612.225 124.454 612.112 124.043 612.062 123.573ZM611.921 119.794C611.307 120.045 610.386 120.258 609.157 120.434C608.462 120.534 607.97 120.647 607.682 120.772C607.393 120.897 607.171 121.082 607.014 121.327C606.858 121.565 606.779 121.831 606.779 122.126C606.779 122.577 606.948 122.953 607.287 123.254C607.632 123.554 608.133 123.705 608.791 123.705C609.443 123.705 610.022 123.564 610.53 123.282C611.037 122.994 611.41 122.602 611.648 122.107C611.83 121.725 611.921 121.161 611.921 120.415V119.794ZM616.245 124.805V114.822H617.768V116.335C618.156 115.627 618.514 115.16 618.84 114.935C619.172 114.709 619.535 114.596 619.93 114.596C620.5 114.596 621.08 114.778 621.669 115.141L621.086 116.711C620.673 116.467 620.259 116.345 619.845 116.345C619.476 116.345 619.143 116.457 618.849 116.683C618.554 116.902 618.344 117.209 618.219 117.604C618.031 118.206 617.937 118.864 617.937 119.578V124.805H616.245ZM622.6 128.649L622.412 127.061C622.781 127.161 623.104 127.211 623.38 127.211C623.756 127.211 624.057 127.148 624.282 127.023C624.508 126.898 624.693 126.722 624.837 126.497C624.943 126.328 625.116 125.908 625.354 125.237C625.385 125.143 625.435 125.005 625.504 124.823L621.716 114.822H623.54L625.617 120.603C625.886 121.336 626.128 122.107 626.341 122.915C626.535 122.138 626.767 121.38 627.036 120.64L629.17 114.822H630.862L627.065 124.974C626.657 126.071 626.341 126.826 626.115 127.239C625.814 127.797 625.47 128.204 625.081 128.461C624.693 128.725 624.229 128.856 623.69 128.856C623.364 128.856 623.001 128.787 622.6 128.649Z" fill="#F2F2F2"/>
<path d="M698.019 107.246H502.769V131.08H698.019V107.246Z" stroke="#F2F2F2" stroke-width="0.629272" stroke-miterlimit="1.5" stroke-linecap="round" stroke-linejoin="round"/>
<path d="M47.2644 263.555V252.071H49.5518L52.2699 260.202C52.5206 260.959 52.7034 261.526 52.8183 261.902C52.9488 261.484 53.1525 260.87 53.4293 260.061L56.1788 252.071H58.2233V263.555H56.7585V253.943L53.4214 263.555H52.0506L48.7292 253.779V263.555H47.2644ZM59.9702 259.395C59.9702 257.855 60.3984 256.714 61.2548 255.972C61.9703 255.356 62.8424 255.048 63.8712 255.048C65.0149 255.048 65.9497 255.424 66.6755 256.176C67.4014 256.922 67.7644 257.956 67.7644 259.278C67.7644 260.348 67.6025 261.192 67.2787 261.808C66.9602 262.419 66.4928 262.894 65.8765 263.234C65.2655 263.573 64.5971 263.743 63.8712 263.743C62.7066 263.743 61.764 263.369 61.0433 262.623C60.3279 261.876 59.9702 260.8 59.9702 259.395ZM61.4193 259.395C61.4193 260.46 61.6517 261.26 62.1165 261.792C62.5813 262.32 63.1662 262.583 63.8712 262.583C64.571 262.583 65.1533 262.317 65.618 261.784C66.0828 261.252 66.3152 260.44 66.3152 259.348C66.3152 258.319 66.0802 257.541 65.6102 257.014C65.1454 256.481 64.5658 256.215 63.8712 256.215C63.1662 256.215 62.5813 256.479 62.1165 257.006C61.6517 257.533 61.4193 258.33 61.4193 259.395ZM69.4251 263.555V255.236H70.6941V256.418C71.3051 255.505 72.1876 255.048 73.3418 255.048C73.8431 255.048 74.3027 255.139 74.7204 255.322C75.1434 255.499 75.4594 255.734 75.6683 256.027C75.8772 256.319 76.0234 256.667 76.1069 257.069C76.1592 257.33 76.1853 257.787 76.1853 258.439V263.555H74.7753V258.494C74.7753 257.92 74.7204 257.492 74.6108 257.21C74.5011 256.922 74.3053 256.695 74.0233 256.528C73.7465 256.356 73.4201 256.27 73.0441 256.27C72.4435 256.27 71.9239 256.46 71.4852 256.841C71.0518 257.223 70.8351 257.946 70.8351 259.011V263.555H69.4251ZM81.4337 262.294L81.6373 263.539C81.2404 263.623 80.8853 263.664 80.572 263.664C80.0602 263.664 79.6633 263.583 79.3813 263.422C79.0993 263.26 78.9009 263.048 78.786 262.787C78.6711 262.521 78.6136 261.965 78.6136 261.119V256.332H77.5796V255.236H78.6136V253.175L80.0158 252.329V255.236H81.4337V256.332H80.0158V261.197C80.0158 261.599 80.0393 261.857 80.0863 261.972C80.1385 262.087 80.2195 262.179 80.3291 262.247C80.444 262.314 80.6059 262.348 80.8148 262.348C80.9715 262.348 81.1778 262.33 81.4337 262.294ZM82.8202 263.555V252.071H84.2302V256.191C84.8882 255.429 85.7185 255.048 86.7212 255.048C87.3374 255.048 87.8727 255.17 88.327 255.416C88.7814 255.656 89.1052 255.99 89.2984 256.418C89.4968 256.847 89.596 257.468 89.596 258.283V263.555H88.186V258.283C88.186 257.578 88.032 257.066 87.7239 256.747C87.421 256.424 86.9901 256.262 86.4314 256.262C86.0136 256.262 85.6193 256.371 85.2485 256.591C84.883 256.805 84.6218 257.097 84.4652 257.468C84.3085 257.839 84.2302 258.351 84.2302 259.003V263.555H82.8202ZM91.1862 261.072L92.5806 260.852C92.6589 261.411 92.8756 261.839 93.2307 262.137C93.5911 262.435 94.0924 262.583 94.7347 262.583C95.3823 262.583 95.8628 262.453 96.1761 262.192C96.4894 261.925 96.6461 261.615 96.6461 261.26C96.6461 260.941 96.5077 260.69 96.2309 260.507C96.0377 260.382 95.5573 260.223 94.7896 260.03C93.7556 259.769 93.0375 259.544 92.6354 259.356C92.2385 259.163 91.9356 258.899 91.7267 258.565C91.5231 258.225 91.4212 257.852 91.4212 257.445C91.4212 257.074 91.5048 256.732 91.6719 256.418C91.8442 256.1 92.0766 255.836 92.3691 255.627C92.5884 255.465 92.8861 255.33 93.2621 255.22C93.6433 255.105 94.0506 255.048 94.4841 255.048C95.1369 255.048 95.7087 255.142 96.1996 255.33C96.6957 255.518 97.0613 255.774 97.2963 256.097C97.5313 256.416 97.6932 256.844 97.7819 257.382L96.4033 257.57C96.3406 257.142 96.1578 256.808 95.8549 256.567C95.5573 256.327 95.1343 256.207 94.5859 256.207C93.9384 256.207 93.4762 256.314 93.1994 256.528C92.9226 256.742 92.7842 256.993 92.7842 257.28C92.7842 257.463 92.8417 257.627 92.9566 257.774C93.0715 257.925 93.2516 258.05 93.4971 258.15C93.6381 258.202 94.0532 258.322 94.7426 258.51C95.74 258.776 96.4346 258.996 96.8263 259.168C97.2232 259.335 97.5339 259.581 97.7584 259.904C97.983 260.228 98.0953 260.63 98.0953 261.111C98.0953 261.581 97.9569 262.025 97.6801 262.442C97.4085 262.855 97.0143 263.176 96.4973 263.406C95.9803 263.63 95.3954 263.743 94.7426 263.743C93.6616 263.743 92.8365 263.518 92.2672 263.069C91.7032 262.62 91.3429 261.954 91.1862 261.072Z" fill="#F2F2F2"/>
<path d="M47.2644 122.375V110.891H49.5518L52.2699 119.022C52.5206 119.78 52.7034 120.346 52.8183 120.722C52.9488 120.304 53.1525 119.691 53.4293 118.881L56.1788 110.891H58.2233V122.375H56.7585V112.763L53.4214 122.375H52.0506L48.7292 112.599V122.375H47.2644ZM59.9702 118.215C59.9702 116.675 60.3984 115.534 61.2548 114.792C61.9703 114.176 62.8424 113.868 63.8712 113.868C65.0149 113.868 65.9497 114.244 66.6755 114.996C67.4014 115.743 67.7644 116.777 67.7644 118.098C67.7644 119.169 67.6025 120.012 67.2787 120.628C66.9602 121.239 66.4928 121.714 65.8765 122.054C65.2655 122.393 64.5971 122.563 63.8712 122.563C62.7066 122.563 61.764 122.19 61.0433 121.443C60.3279 120.696 59.9702 119.62 59.9702 118.215ZM61.4193 118.215C61.4193 119.281 61.6517 120.08 62.1165 120.612C62.5813 121.14 63.1662 121.404 63.8712 121.404C64.571 121.404 65.1533 121.137 65.618 120.605C66.0828 120.072 66.3152 119.26 66.3152 118.168C66.3152 117.14 66.0802 116.362 65.6102 115.834C65.1454 115.301 64.5658 115.035 63.8712 115.035C63.1662 115.035 62.5813 115.299 62.1165 115.826C61.6517 116.354 61.4193 117.15 61.4193 118.215ZM69.4251 122.375V114.056H70.6941V115.239C71.3051 114.325 72.1876 113.868 73.3418 113.868C73.8431 113.868 74.3027 113.959 74.7204 114.142C75.1434 114.32 75.4594 114.555 75.6683 114.847C75.8772 115.14 76.0234 115.487 76.1069 115.889C76.1592 116.15 76.1853 116.607 76.1853 117.26V122.375H74.7753V117.315C74.7753 116.74 74.7204 116.312 74.6108 116.03C74.5011 115.743 74.3053 115.516 74.0233 115.348C73.7465 115.176 73.4201 115.09 73.0441 115.09C72.4435 115.09 71.9239 115.281 71.4852 115.662C71.0518 116.043 70.8351 116.766 70.8351 117.832V122.375H69.4251ZM81.4337 121.114L81.6373 122.359C81.2404 122.443 80.8853 122.485 80.572 122.485C80.0602 122.485 79.6633 122.404 79.3813 122.242C79.0993 122.08 78.9009 121.868 78.786 121.607C78.6711 121.341 78.6136 120.785 78.6136 119.939V115.153H77.5796V114.056H78.6136V111.996L80.0158 111.15V114.056H81.4337V115.153H80.0158V120.017C80.0158 120.419 80.0393 120.678 80.0863 120.793C80.1385 120.908 80.2195 120.999 80.3291 121.067C80.444 121.135 80.6059 121.169 80.8148 121.169C80.9715 121.169 81.1778 121.15 81.4337 121.114ZM82.8202 122.375V110.891H84.2302V115.012C84.8882 114.249 85.7185 113.868 86.7212 113.868C87.3374 113.868 87.8727 113.991 88.327 114.236C88.7814 114.476 89.1052 114.811 89.2984 115.239C89.4968 115.667 89.596 116.288 89.596 117.103V122.375H88.186V117.103C88.186 116.398 88.032 115.886 87.7239 115.568C87.421 115.244 86.9901 115.082 86.4314 115.082C86.0136 115.082 85.6193 115.192 85.2485 115.411C84.883 115.625 84.6218 115.918 84.4652 116.288C84.3085 116.659 84.2302 117.171 84.2302 117.824V122.375H82.8202ZM91.1862 119.892L92.5806 119.672C92.6589 120.231 92.8756 120.659 93.2307 120.957C93.5911 121.255 94.0924 121.404 94.7347 121.404C95.3823 121.404 95.8628 121.273 96.1761 121.012C96.4894 120.746 96.6461 120.435 96.6461 120.08C96.6461 119.761 96.5077 119.511 96.2309 119.328C96.0377 119.202 95.5573 119.043 94.7896 118.85C93.7556 118.589 93.0375 118.364 92.6354 118.176C92.2385 117.983 91.9356 117.719 91.7267 117.385C91.5231 117.046 91.4212 116.672 91.4212 116.265C91.4212 115.894 91.5048 115.552 91.6719 115.239C91.8442 114.92 92.0766 114.657 92.3691 114.448C92.5884 114.286 92.8861 114.15 93.2621 114.04C93.6433 113.925 94.0506 113.868 94.4841 113.868C95.1369 113.868 95.7087 113.962 96.1996 114.15C96.6957 114.338 97.0613 114.594 97.2963 114.918C97.5313 115.236 97.6932 115.664 97.7819 116.202L96.4033 116.39C96.3406 115.962 96.1578 115.628 95.8549 115.388C95.5573 115.147 95.1343 115.027 94.5859 115.027C93.9384 115.027 93.4762 115.134 93.1994 115.348C92.9226 115.563 92.7842 115.813 92.7842 116.1C92.7842 116.283 92.8417 116.448 92.9566 116.594C93.0715 116.745 93.2516 116.871 93.4971 116.97C93.6381 117.022 94.0532 117.142 94.7426 117.33C95.74 117.597 96.4346 117.816 96.8263 117.988C97.2232 118.155 97.5339 118.401 97.7584 118.725C97.983 119.048 98.0953 119.451 98.0953 119.931C98.0953 120.401 97.9569 120.845 97.6801 121.263C97.4085 121.675 97.0143 121.996 96.4973 122.226C95.9803 122.451 95.3954 122.563 94.7426 122.563C93.6616 122.563 92.8365 122.338 92.2672 121.889C91.7032 121.44 91.3429 120.774 91.1862 119.892Z" fill="#F2F2F2"/>
<path d="M404.257 216.801H110.494V240.635H404.257V216.801Z" fill="#2EAFFF"/>
<path d="M240.855 232.07H239.163V221.288C238.756 221.677 238.22 222.065 237.556 222.454C236.898 222.843 236.306 223.134 235.779 223.328V221.693C236.726 221.248 237.553 220.709 238.261 220.076C238.969 219.443 239.47 218.829 239.765 218.233H240.855V232.07ZM245.452 228.884L247.078 228.733C247.216 229.498 247.479 230.052 247.868 230.397C248.256 230.742 248.755 230.914 249.362 230.914C249.883 230.914 250.337 230.795 250.725 230.557C251.12 230.319 251.443 230.002 251.694 229.607C251.944 229.206 252.154 228.667 252.323 227.991C252.493 227.314 252.577 226.625 252.577 225.923C252.577 225.847 252.574 225.735 252.568 225.584C252.229 226.123 251.766 226.562 251.177 226.9C250.594 227.232 249.961 227.398 249.278 227.398C248.137 227.398 247.172 226.985 246.383 226.158C245.593 225.33 245.198 224.24 245.198 222.886C245.198 221.489 245.609 220.364 246.43 219.512C247.257 218.66 248.291 218.233 249.532 218.233C250.428 218.233 251.246 218.475 251.985 218.957C252.731 219.44 253.295 220.129 253.677 221.025C254.066 221.915 254.26 223.206 254.26 224.898C254.26 226.659 254.069 228.063 253.686 229.109C253.304 230.15 252.734 230.942 251.976 231.488C251.224 232.033 250.34 232.305 249.325 232.305C248.247 232.305 247.366 232.008 246.683 231.412C246 230.811 245.59 229.968 245.452 228.884ZM252.38 222.802C252.38 221.83 252.12 221.06 251.6 220.489C251.086 219.919 250.465 219.634 249.738 219.634C248.986 219.634 248.332 219.941 247.774 220.555C247.216 221.169 246.937 221.965 246.937 222.943C246.937 223.82 247.2 224.535 247.727 225.086C248.26 225.631 248.914 225.904 249.691 225.904C250.475 225.904 251.117 225.631 251.618 225.086C252.126 224.535 252.38 223.773 252.38 222.802ZM264.694 221.664L263.011 221.796C262.861 221.132 262.648 220.649 262.372 220.348C261.915 219.866 261.351 219.625 260.68 219.625C260.141 219.625 259.668 219.775 259.261 220.076C258.728 220.464 258.308 221.031 258.001 221.777C257.694 222.523 257.534 223.585 257.522 224.964C257.929 224.343 258.427 223.883 259.016 223.582C259.605 223.281 260.223 223.131 260.868 223.131C261.996 223.131 262.955 223.548 263.745 224.381C264.54 225.208 264.938 226.28 264.938 227.596C264.938 228.461 264.75 229.266 264.374 230.012C264.005 230.751 263.494 231.318 262.842 231.713C262.19 232.108 261.451 232.305 260.624 232.305C259.214 232.305 258.064 231.788 257.174 230.754C256.284 229.714 255.839 228.003 255.839 225.622C255.839 222.958 256.331 221.022 257.315 219.813C258.173 218.76 259.33 218.233 260.784 218.233C261.868 218.233 262.754 218.537 263.444 219.145C264.139 219.753 264.556 220.593 264.694 221.664ZM257.785 227.605C257.785 228.188 257.907 228.746 258.152 229.278C258.402 229.811 258.75 230.218 259.195 230.5C259.64 230.776 260.107 230.914 260.596 230.914C261.31 230.914 261.924 230.626 262.438 230.049C262.952 229.473 263.209 228.689 263.209 227.699C263.209 226.747 262.955 225.998 262.447 225.453C261.94 224.901 261.301 224.625 260.53 224.625C259.765 224.625 259.117 224.901 258.584 225.453C258.051 225.998 257.785 226.715 257.785 227.605ZM266.884 228.884L268.51 228.733C268.648 229.498 268.911 230.052 269.3 230.397C269.689 230.742 270.187 230.914 270.795 230.914C271.315 230.914 271.769 230.795 272.158 230.557C272.552 230.319 272.875 230.002 273.126 229.607C273.377 229.206 273.586 228.667 273.756 227.991C273.925 227.314 274.009 226.625 274.009 225.923C274.009 225.847 274.006 225.735 274 225.584C273.662 226.123 273.198 226.562 272.609 226.9C272.026 227.232 271.393 227.398 270.71 227.398C269.569 227.398 268.604 226.985 267.815 226.158C267.025 225.33 266.63 224.24 266.63 222.886C266.63 221.489 267.041 220.364 267.862 219.512C268.689 218.66 269.723 218.233 270.964 218.233C271.86 218.233 272.678 218.475 273.417 218.957C274.163 219.44 274.727 220.129 275.109 221.025C275.498 221.915 275.692 223.206 275.692 224.898C275.692 226.659 275.501 228.063 275.119 229.109C274.736 230.15 274.166 230.942 273.408 231.488C272.656 232.033 271.772 232.305 270.757 232.305C269.679 232.305 268.799 232.008 268.116 231.412C267.433 230.811 267.022 229.968 266.884 228.884ZM273.812 222.802C273.812 221.83 273.552 221.06 273.032 220.489C272.518 219.919 271.898 219.634 271.171 219.634C270.419 219.634 269.764 219.941 269.206 220.555C268.648 221.169 268.369 221.965 268.369 222.943C268.369 223.82 268.633 224.535 269.159 225.086C269.692 225.631 270.347 225.904 271.124 225.904C271.907 225.904 272.549 225.631 273.051 225.086C273.558 224.535 273.812 223.773 273.812 222.802Z" fill="#F2F2F2"/>
<path d="M404.257 216.801H110.494V240.635H404.257V216.801Z" stroke="#F2F2F2" stroke-width="0.727441" stroke-miterlimit="1.5" stroke-linecap="round" stroke-linejoin="round"/>
<path d="M698.018 216.801H404.256V240.635H698.018V216.801Z" fill="#2EAFFF"/>
<path d="M534.618 234.359H532.926V223.577C532.518 223.966 531.983 224.355 531.318 224.743C530.66 225.132 530.068 225.423 529.542 225.617V223.982C530.488 223.537 531.315 222.998 532.023 222.365C532.732 221.732 533.233 221.118 533.527 220.522H534.618V234.359ZM539.214 231.173L540.841 231.022C540.979 231.787 541.242 232.341 541.63 232.686C542.019 233.031 542.517 233.203 543.125 233.203C543.645 233.203 544.099 233.084 544.488 232.846C544.883 232.608 545.205 232.291 545.456 231.897C545.707 231.495 545.917 230.957 546.086 230.28C546.255 229.603 546.34 228.914 546.34 228.212C546.34 228.137 546.337 228.024 546.33 227.873C545.992 228.412 545.528 228.851 544.939 229.189C544.356 229.521 543.723 229.688 543.04 229.688C541.9 229.688 540.935 229.274 540.145 228.447C539.355 227.62 538.961 226.529 538.961 225.175C538.961 223.778 539.371 222.653 540.192 221.801C541.019 220.949 542.053 220.522 543.294 220.522C544.19 220.522 545.008 220.764 545.748 221.246C546.493 221.729 547.057 222.418 547.44 223.314C547.828 224.204 548.022 225.495 548.022 227.187C548.022 228.948 547.831 230.352 547.449 231.398C547.067 232.439 546.496 233.231 545.738 233.777C544.986 234.322 544.103 234.594 543.087 234.594C542.009 234.594 541.129 234.297 540.446 233.701C539.763 233.1 539.352 232.257 539.214 231.173ZM546.142 225.091C546.142 224.12 545.882 223.349 545.362 222.778C544.848 222.208 544.228 221.923 543.501 221.923C542.749 221.923 542.094 222.23 541.536 222.844C540.979 223.458 540.7 224.254 540.7 225.232C540.7 226.109 540.963 226.824 541.489 227.375C542.022 227.92 542.677 228.193 543.454 228.193C544.237 228.193 544.88 227.92 545.381 227.375C545.889 226.824 546.142 226.062 546.142 225.091ZM549.79 222.384V220.757H558.71V222.073C557.833 223.007 556.962 224.248 556.097 225.796C555.238 227.344 554.574 228.936 554.104 230.571C553.766 231.724 553.55 232.987 553.456 234.359H551.717C551.735 233.275 551.948 231.965 552.356 230.43C552.763 228.895 553.346 227.416 554.104 225.993C554.869 224.564 555.68 223.361 556.539 222.384H549.79ZM560.393 227.563C560.393 225.934 560.559 224.624 560.891 223.634C561.229 222.637 561.728 221.87 562.386 221.331C563.05 220.792 563.883 220.522 564.886 220.522C565.626 220.522 566.274 220.673 566.832 220.974C567.39 221.268 567.85 221.697 568.214 222.261C568.577 222.819 568.862 223.502 569.069 224.311C569.276 225.113 569.379 226.197 569.379 227.563C569.379 229.18 569.213 230.487 568.881 231.483C568.549 232.473 568.051 233.241 567.387 233.786C566.729 234.325 565.895 234.594 564.886 234.594C563.558 234.594 562.514 234.118 561.756 233.166C560.847 232.019 560.393 230.151 560.393 227.563ZM562.132 227.563C562.132 229.825 562.395 231.333 562.921 232.085C563.454 232.83 564.109 233.203 564.886 233.203C565.663 233.203 566.315 232.827 566.841 232.075C567.374 231.323 567.64 229.819 567.64 227.563C567.64 225.295 567.374 223.787 566.841 223.042C566.315 222.296 565.657 221.923 564.867 221.923C564.09 221.923 563.47 222.252 563.006 222.91C562.423 223.75 562.132 225.301 562.132 227.563Z" fill="#F2F2F2"/>
<path d="M698.018 216.801H404.256V240.635H698.018V216.801Z" stroke="#F2F2F2" stroke-width="0.727441" stroke-miterlimit="1.5" stroke-linecap="round" stroke-linejoin="round"/>
<path d="M502.769 136.586H110.494V160.42H502.769V136.586Z" fill="#2EAFFF"/>
<path d="M290.112 151.855H288.42V141.074C288.012 141.462 287.477 141.851 286.812 142.239C286.154 142.628 285.562 142.919 285.036 143.113V141.478C285.982 141.033 286.809 140.494 287.517 139.861C288.225 139.228 288.727 138.614 289.021 138.019H290.112V151.855ZM294.708 148.669L296.335 148.518C296.472 149.283 296.736 149.838 297.124 150.182C297.513 150.527 298.011 150.699 298.619 150.699C299.139 150.699 299.593 150.58 299.982 150.342C300.377 150.104 300.699 149.787 300.95 149.393C301.201 148.992 301.411 148.453 301.58 147.776C301.749 147.099 301.834 146.41 301.834 145.708C301.834 145.633 301.831 145.52 301.824 145.369C301.486 145.908 301.022 146.347 300.433 146.685C299.85 147.018 299.217 147.184 298.534 147.184C297.394 147.184 296.429 146.77 295.639 145.943C294.849 145.116 294.455 144.025 294.455 142.672C294.455 141.274 294.865 140.149 295.686 139.297C296.513 138.445 297.547 138.019 298.788 138.019C299.684 138.019 300.502 138.26 301.241 138.742C301.987 139.225 302.551 139.914 302.933 140.81C303.322 141.7 303.516 142.991 303.516 144.683C303.516 146.444 303.325 147.848 302.943 148.894C302.561 149.935 301.99 150.727 301.232 151.273C300.48 151.818 299.596 152.09 298.581 152.09C297.503 152.09 296.623 151.793 295.94 151.197C295.257 150.596 294.846 149.753 294.708 148.669ZM301.636 142.587C301.636 141.616 301.376 140.845 300.856 140.275C300.342 139.704 299.722 139.419 298.995 139.419C298.243 139.419 297.588 139.726 297.03 140.34C296.472 140.954 296.194 141.75 296.194 142.728C296.194 143.605 296.457 144.32 296.983 144.871C297.516 145.416 298.171 145.689 298.948 145.689C299.731 145.689 300.373 145.416 300.875 144.871C301.382 144.32 301.636 143.558 301.636 142.587ZM313.95 141.45L312.268 141.581C312.117 140.917 311.904 140.434 311.629 140.134C311.171 139.651 310.607 139.41 309.937 139.41C309.398 139.41 308.924 139.56 308.517 139.861C307.984 140.249 307.565 140.817 307.257 141.562C306.95 142.308 306.791 143.37 306.778 144.749C307.185 144.129 307.684 143.668 308.273 143.367C308.862 143.066 309.479 142.916 310.125 142.916C311.253 142.916 312.211 143.333 313.001 144.166C313.797 144.993 314.195 146.065 314.195 147.381C314.195 148.246 314.007 149.051 313.631 149.797C313.261 150.536 312.75 151.103 312.099 151.498C311.447 151.893 310.707 152.09 309.88 152.09C308.47 152.09 307.32 151.573 306.43 150.539C305.54 149.499 305.095 147.788 305.095 145.407C305.095 142.744 305.587 140.807 306.571 139.598C307.43 138.545 308.586 138.019 310.04 138.019C311.124 138.019 312.011 138.322 312.7 138.93C313.396 139.538 313.812 140.378 313.95 141.45ZM307.041 147.39C307.041 147.973 307.163 148.531 307.408 149.064C307.659 149.596 308.006 150.004 308.451 150.286C308.896 150.561 309.363 150.699 309.852 150.699C310.566 150.699 311.18 150.411 311.694 149.834C312.208 149.258 312.465 148.475 312.465 147.484C312.465 146.532 312.211 145.783 311.704 145.238C311.196 144.686 310.557 144.411 309.786 144.411C309.022 144.411 308.373 144.686 307.84 145.238C307.308 145.783 307.041 146.501 307.041 147.39ZM316.141 148.669L317.767 148.518C317.905 149.283 318.168 149.838 318.556 150.182C318.945 150.527 319.443 150.699 320.051 150.699C320.571 150.699 321.025 150.58 321.414 150.342C321.809 150.104 322.132 149.787 322.382 149.393C322.633 148.992 322.843 148.453 323.012 147.776C323.181 147.099 323.266 146.41 323.266 145.708C323.266 145.633 323.263 145.52 323.256 145.369C322.918 145.908 322.454 146.347 321.865 146.685C321.282 147.018 320.649 147.184 319.966 147.184C318.826 147.184 317.861 146.77 317.071 145.943C316.282 145.116 315.887 144.025 315.887 142.672C315.887 141.274 316.297 140.149 317.118 139.297C317.945 138.445 318.979 138.019 320.22 138.019C321.116 138.019 321.934 138.26 322.674 138.742C323.419 139.225 323.983 139.914 324.366 140.81C324.754 141.7 324.948 142.991 324.948 144.683C324.948 146.444 324.757 147.848 324.375 148.894C323.993 149.935 323.423 150.727 322.664 151.273C321.912 151.818 321.029 152.09 320.013 152.09C318.936 152.09 318.055 151.793 317.372 151.197C316.689 150.596 316.278 149.753 316.141 148.669ZM323.068 142.587C323.068 141.616 322.808 140.845 322.288 140.275C321.774 139.704 321.154 139.419 320.427 139.419C319.675 139.419 319.02 139.726 318.462 140.34C317.905 140.954 317.626 141.75 317.626 142.728C317.626 143.605 317.889 144.32 318.415 144.871C318.948 145.416 319.603 145.689 320.38 145.689C321.163 145.689 321.806 145.416 322.307 144.871C322.815 144.32 323.068 143.558 323.068 142.587Z" fill="#F2F2F2"/>
<path d="M502.769 136.586H110.494V160.42H502.769V136.586Z" stroke="#F2F2F2" stroke-width="0.776442" stroke-miterlimit="1.5" stroke-linecap="round" stroke-linejoin="round"/>
<path d="M698.019 136.586H502.769V160.42H698.019V136.586Z" fill="#2EAFFF"/>
<path d="M583.873 154.148H582.181V143.367C581.774 143.755 581.238 144.144 580.574 144.532C579.916 144.921 579.323 145.212 578.797 145.406V143.771C579.743 143.326 580.57 142.787 581.279 142.154C581.987 141.521 582.488 140.907 582.783 140.312H583.873V154.148ZM588.47 150.962L590.096 150.811C590.234 151.576 590.497 152.131 590.885 152.475C591.274 152.82 591.772 152.992 592.38 152.992C592.9 152.992 593.354 152.873 593.743 152.635C594.138 152.397 594.461 152.08 594.711 151.686C594.962 151.285 595.172 150.746 595.341 150.069C595.51 149.392 595.595 148.703 595.595 148.001C595.595 147.926 595.592 147.813 595.585 147.662C595.247 148.201 594.783 148.64 594.194 148.978C593.611 149.311 592.978 149.477 592.295 149.477C591.155 149.477 590.19 149.063 589.4 148.236C588.611 147.409 588.216 146.318 588.216 144.965C588.216 143.567 588.626 142.442 589.447 141.59C590.274 140.738 591.308 140.312 592.549 140.312C593.445 140.312 594.263 140.553 595.003 141.035C595.748 141.518 596.312 142.207 596.695 143.103C597.083 143.993 597.277 145.284 597.277 146.976C597.277 148.737 597.086 150.141 596.704 151.187C596.322 152.228 595.752 153.02 594.993 153.566C594.241 154.111 593.358 154.383 592.342 154.383C591.265 154.383 590.384 154.086 589.701 153.49C589.018 152.889 588.607 152.046 588.47 150.962ZM595.397 144.88C595.397 143.909 595.137 143.138 594.617 142.568C594.103 141.997 593.483 141.712 592.756 141.712C592.004 141.712 591.349 142.019 590.791 142.633C590.234 143.247 589.955 144.043 589.955 145.021C589.955 145.898 590.218 146.613 590.744 147.164C591.277 147.709 591.932 147.982 592.709 147.982C593.492 147.982 594.135 147.709 594.636 147.164C595.144 146.613 595.397 145.851 595.397 144.88ZM599.045 142.173V140.547H607.965V141.863C607.088 142.796 606.217 144.037 605.352 145.585C604.494 147.133 603.829 148.725 603.359 150.36C603.021 151.513 602.805 152.776 602.711 154.148H600.972C600.99 153.064 601.204 151.755 601.611 150.219C602.018 148.684 602.601 147.205 603.359 145.782C604.124 144.354 604.935 143.15 605.794 142.173H599.045ZM609.648 147.352C609.648 145.723 609.814 144.413 610.146 143.423C610.485 142.427 610.983 141.659 611.641 141.12C612.305 140.581 613.139 140.312 614.141 140.312C614.881 140.312 615.529 140.462 616.087 140.763C616.645 141.057 617.105 141.487 617.469 142.051C617.832 142.608 618.117 143.291 618.324 144.1C618.531 144.902 618.634 145.986 618.634 147.352C618.634 148.969 618.468 150.276 618.136 151.272C617.804 152.262 617.306 153.03 616.642 153.575C615.984 154.114 615.15 154.383 614.141 154.383C612.813 154.383 611.769 153.907 611.011 152.955C610.102 151.808 609.648 149.94 609.648 147.352ZM611.387 147.352C611.387 149.614 611.65 151.122 612.177 151.874C612.709 152.619 613.364 152.992 614.141 152.992C614.918 152.992 615.57 152.616 616.096 151.864C616.629 151.112 616.895 149.608 616.895 147.352C616.895 145.084 616.629 143.576 616.096 142.831C615.57 142.085 614.912 141.712 614.122 141.712C613.345 141.712 612.725 142.041 612.261 142.699C611.678 143.539 611.387 145.09 611.387 147.352Z" fill="#F2F2F2"/>
<path d="M698.019 136.586H502.769V160.42H698.019V136.586Z" stroke="#F2F2F2" stroke-width="0.629272" stroke-miterlimit="1.5" stroke-linecap="round" stroke-linejoin="round"/>
<path d="M64.0146 232.832V227.967L59.5887 221.348H61.4374L63.7013 224.811C64.1191 225.458 64.5081 226.106 64.8685 226.753C65.2131 226.153 65.6309 225.476 66.1218 224.724L68.3465 221.348H70.1168L65.5343 227.967V232.832H64.0146ZM75.5219 230.153L76.9789 230.333C76.7491 231.184 76.3235 231.845 75.702 232.315C75.0806 232.785 74.2868 233.02 73.3207 233.02C72.1039 233.02 71.1378 232.647 70.4223 231.9C69.7121 231.148 69.357 230.096 69.357 228.743C69.357 227.343 69.7173 226.257 70.438 225.484C71.1587 224.711 72.0934 224.325 73.2423 224.325C74.3547 224.325 75.2634 224.704 75.9684 225.461C76.6734 226.218 77.0259 227.283 77.0259 228.657C77.0259 228.74 77.0233 228.866 77.018 229.033H70.814C70.8662 229.947 71.1247 230.647 71.5895 231.132C72.0543 231.618 72.634 231.861 73.3285 231.861C73.8455 231.861 74.2868 231.725 74.6524 231.453C75.0179 231.182 75.3077 230.748 75.5219 230.153ZM70.8923 227.873H75.5375C75.4749 227.174 75.2973 226.649 75.0049 226.299C74.5557 225.756 73.9735 225.484 73.258 225.484C72.6105 225.484 72.0647 225.701 71.6208 226.134C71.1822 226.568 70.9393 227.148 70.8923 227.873ZM84.1856 231.806C83.6634 232.25 83.1594 232.563 82.6737 232.746C82.1933 232.929 81.6763 233.02 81.1227 233.02C80.2088 233.02 79.5064 232.798 79.0156 232.354C78.5247 231.905 78.2792 231.333 78.2792 230.639C78.2792 230.231 78.3706 229.861 78.5534 229.526C78.7414 229.187 78.9842 228.915 79.2819 228.712C79.5848 228.508 79.9242 228.354 80.3002 228.249C80.577 228.176 80.9948 228.106 81.5536 228.038C82.692 227.902 83.5302 227.74 84.0681 227.552C84.0733 227.359 84.0759 227.236 84.0759 227.184C84.0759 226.61 83.9428 226.205 83.6764 225.97C83.3161 225.651 82.7808 225.492 82.0706 225.492C81.4073 225.492 80.9165 225.61 80.5979 225.845C80.2846 226.074 80.0522 226.484 79.9007 227.074L78.5221 226.886C78.6474 226.296 78.8537 225.821 79.1409 225.461C79.4281 225.095 79.8433 224.816 80.3864 224.623C80.9295 224.424 81.5588 224.325 82.2742 224.325C82.9845 224.325 83.5615 224.409 84.0054 224.576C84.4493 224.743 84.7757 224.954 84.9846 225.21C85.1935 225.461 85.3397 225.779 85.4233 226.166C85.4703 226.406 85.4938 226.839 85.4938 227.466V229.346C85.4938 230.657 85.5225 231.487 85.5799 231.837C85.6426 232.182 85.7627 232.513 85.9403 232.832H84.4676C84.3214 232.54 84.2274 232.198 84.1856 231.806ZM84.0681 228.657C83.5563 228.866 82.7886 229.043 81.7651 229.19C81.1854 229.273 80.7755 229.367 80.5352 229.472C80.295 229.576 80.1096 229.73 79.9791 229.934C79.8485 230.132 79.7832 230.354 79.7832 230.6C79.7832 230.976 79.9242 231.289 80.2062 231.54C80.4935 231.79 80.9112 231.916 81.4596 231.916C82.0027 231.916 82.4857 231.798 82.9087 231.563C83.3318 231.323 83.6425 230.996 83.8409 230.584C83.9924 230.265 84.0681 229.795 84.0681 229.174V228.657ZM87.6714 232.832V224.513H88.9405V225.774C89.2642 225.184 89.5619 224.795 89.8335 224.607C90.1102 224.419 90.4131 224.325 90.7421 224.325C91.2174 224.325 91.7004 224.476 92.1913 224.779L91.7056 226.087C91.361 225.884 91.0163 225.782 90.6716 225.782C90.3635 225.782 90.0867 225.876 89.8413 226.064C89.5959 226.247 89.4209 226.503 89.3165 226.832C89.1598 227.333 89.0815 227.881 89.0815 228.477V232.832H87.6714ZM92.4655 230.349L93.8598 230.13C93.9382 230.688 94.1549 231.117 94.51 231.414C94.8703 231.712 95.3717 231.861 96.014 231.861C96.6616 231.861 97.142 231.73 97.4554 231.469C97.7687 231.203 97.9254 230.892 97.9254 230.537C97.9254 230.218 97.787 229.968 97.5102 229.785C97.317 229.66 96.8365 229.5 96.0688 229.307C95.0348 229.046 94.3168 228.821 93.9147 228.633C93.5178 228.44 93.2149 228.176 93.006 227.842C92.8023 227.503 92.7005 227.129 92.7005 226.722C92.7005 226.351 92.784 226.009 92.9512 225.696C93.1235 225.377 93.3559 225.114 93.6483 224.905C93.8677 224.743 94.1653 224.607 94.5413 224.497C94.9226 224.382 95.3299 224.325 95.7633 224.325C96.4161 224.325 96.988 224.419 97.4789 224.607C97.975 224.795 98.3405 225.051 98.5755 225.375C98.8105 225.693 98.9724 226.121 99.0612 226.659L97.6825 226.847C97.6199 226.419 97.4371 226.085 97.1342 225.845C96.8365 225.604 96.4135 225.484 95.8652 225.484C95.2176 225.484 94.7554 225.591 94.4787 225.805C94.2019 226.02 94.0635 226.27 94.0635 226.557C94.0635 226.74 94.1209 226.905 94.2358 227.051C94.3507 227.202 94.5309 227.328 94.7763 227.427C94.9173 227.479 95.3325 227.599 96.0218 227.787C97.0193 228.054 97.7139 228.273 98.1055 228.445C98.5024 228.612 98.8131 228.858 99.0377 229.182C99.2623 229.505 99.3745 229.908 99.3745 230.388C99.3745 230.858 99.2361 231.302 98.9594 231.72C98.6878 232.132 98.2935 232.453 97.7765 232.683C97.2595 232.908 96.6746 233.02 96.0218 233.02C94.9408 233.02 94.1157 232.795 93.5465 232.346C92.9825 231.897 92.6222 231.231 92.4655 230.349Z" fill="#F2F2F2"/>
<path d="M64.0146 153.422V148.557L59.5887 141.938H61.4374L63.7013 145.4C64.1191 146.048 64.5081 146.696 64.8685 147.343C65.2131 146.743 65.6309 146.066 66.1218 145.314L68.3465 141.938H70.1168L65.5343 148.557V153.422H64.0146ZM75.5219 150.743L76.9789 150.923C76.7491 151.774 76.3235 152.435 75.702 152.905C75.0806 153.375 74.2868 153.61 73.3207 153.61C72.1039 153.61 71.1378 153.236 70.4223 152.49C69.7121 151.738 69.357 150.685 69.357 149.333C69.357 147.933 69.7173 146.847 70.438 146.074C71.1587 145.301 72.0934 144.915 73.2423 144.915C74.3547 144.915 75.2634 145.293 75.9684 146.051C76.6734 146.808 77.0259 147.873 77.0259 149.247C77.0259 149.33 77.0233 149.456 77.018 149.623H70.814C70.8662 150.537 71.1247 151.236 71.5895 151.722C72.0543 152.208 72.634 152.451 73.3285 152.451C73.8455 152.451 74.2868 152.315 74.6524 152.043C75.0179 151.772 75.3077 151.338 75.5219 150.743ZM70.8923 148.463H75.5375C75.4749 147.764 75.2973 147.239 75.0049 146.889C74.5557 146.346 73.9735 146.074 73.258 146.074C72.6105 146.074 72.0647 146.291 71.6208 146.724C71.1822 147.158 70.9393 147.737 70.8923 148.463ZM84.1856 152.396C83.6634 152.84 83.1594 153.153 82.6737 153.336C82.1933 153.518 81.6763 153.61 81.1227 153.61C80.2088 153.61 79.5064 153.388 79.0156 152.944C78.5247 152.495 78.2792 151.923 78.2792 151.229C78.2792 150.821 78.3706 150.45 78.5534 150.116C78.7414 149.777 78.9842 149.505 79.2819 149.302C79.5848 149.098 79.9242 148.944 80.3002 148.839C80.577 148.766 80.9948 148.696 81.5536 148.628C82.692 148.492 83.5302 148.33 84.0681 148.142C84.0733 147.949 84.0759 147.826 84.0759 147.774C84.0759 147.2 83.9428 146.795 83.6764 146.56C83.3161 146.241 82.7808 146.082 82.0706 146.082C81.4073 146.082 80.9165 146.199 80.5979 146.434C80.2846 146.664 80.0522 147.074 79.9007 147.664L78.5221 147.476C78.6474 146.886 78.8537 146.411 79.1409 146.051C79.4281 145.685 79.8433 145.406 80.3864 145.212C80.9295 145.014 81.5588 144.915 82.2742 144.915C82.9845 144.915 83.5615 144.998 84.0054 145.165C84.4493 145.333 84.7757 145.544 84.9846 145.8C85.1935 146.051 85.3397 146.369 85.4233 146.756C85.4703 146.996 85.4938 147.429 85.4938 148.056V149.936C85.4938 151.247 85.5225 152.077 85.5799 152.427C85.6426 152.772 85.7627 153.103 85.9403 153.422H84.4676C84.3214 153.129 84.2274 152.787 84.1856 152.396ZM84.0681 149.247C83.5563 149.456 82.7886 149.633 81.7651 149.779C81.1854 149.863 80.7755 149.957 80.5352 150.061C80.295 150.166 80.1096 150.32 79.9791 150.524C79.8485 150.722 79.7832 150.944 79.7832 151.189C79.7832 151.565 79.9242 151.879 80.2062 152.129C80.4935 152.38 80.9112 152.505 81.4596 152.505C82.0027 152.505 82.4857 152.388 82.9087 152.153C83.3318 151.913 83.6425 151.586 83.8409 151.174C83.9924 150.855 84.0681 150.385 84.0681 149.764V149.247ZM87.6714 153.422V145.103H88.9405V146.364C89.2642 145.774 89.5619 145.385 89.8335 145.197C90.1102 145.009 90.4131 144.915 90.7421 144.915C91.2174 144.915 91.7004 145.066 92.1913 145.369L91.7056 146.677C91.361 146.474 91.0163 146.372 90.6716 146.372C90.3635 146.372 90.0867 146.466 89.8413 146.654C89.5959 146.837 89.4209 147.092 89.3165 147.421C89.1598 147.923 89.0815 148.471 89.0815 149.067V153.422H87.6714ZM92.4655 150.939L93.8598 150.719C93.9382 151.278 94.1549 151.706 94.51 152.004C94.8703 152.302 95.3717 152.451 96.014 152.451C96.6616 152.451 97.142 152.32 97.4554 152.059C97.7687 151.793 97.9254 151.482 97.9254 151.127C97.9254 150.808 97.787 150.557 97.5102 150.375C97.317 150.249 96.8365 150.09 96.0688 149.897C95.0348 149.636 94.3168 149.411 93.9147 149.223C93.5178 149.03 93.2149 148.766 93.006 148.432C92.8023 148.093 92.7005 147.719 92.7005 147.312C92.7005 146.941 92.784 146.599 92.9512 146.286C93.1235 145.967 93.3559 145.703 93.6483 145.494C93.8677 145.333 94.1653 145.197 94.5413 145.087C94.9226 144.972 95.3299 144.915 95.7633 144.915C96.4161 144.915 96.988 145.009 97.4789 145.197C97.975 145.385 98.3405 145.641 98.5755 145.964C98.8105 146.283 98.9724 146.711 99.0612 147.249L97.6825 147.437C97.6199 147.009 97.4371 146.675 97.1342 146.434C96.8365 146.194 96.4135 146.074 95.8652 146.074C95.2176 146.074 94.7554 146.181 94.4787 146.395C94.2019 146.609 94.0635 146.86 94.0635 147.147C94.0635 147.33 94.1209 147.495 94.2358 147.641C94.3507 147.792 94.5309 147.918 94.7763 148.017C94.9173 148.069 95.3325 148.189 96.0218 148.377C97.0193 148.644 97.7139 148.863 98.1055 149.035C98.5024 149.202 98.8131 149.448 99.0377 149.772C99.2623 150.095 99.3745 150.497 99.3745 150.978C99.3745 151.448 99.2361 151.892 98.9594 152.31C98.6878 152.722 98.2935 153.043 97.7765 153.273C97.2595 153.498 96.6746 153.61 96.0218 153.61C94.9408 153.61 94.1157 153.385 93.5465 152.936C92.9825 152.487 92.6222 151.821 92.4655 150.939Z" fill="#F2F2F2"/>
<path d="M404.256 192.435C405.972 192.435 407.362 191.178 407.362 189.628C407.362 188.077 405.972 186.82 404.256 186.82C402.541 186.82 401.15 188.077 401.15 189.628C401.15 191.178 402.541 192.435 404.256 192.435Z" fill="#F2F2F2" stroke="#F2F2F2" stroke-width="1.60428" stroke-miterlimit="1.5" stroke-linecap="round" stroke-linejoin="round"/>
</svg>
