<?xml version="1.0" encoding="UTF-8" standalone="no"?>
<!DOCTYPE svg PUBLIC "-//W3C//DTD SVG 1.1//EN" "http://www.w3.org/Graphics/SVG/1.1/DTD/svg11.dtd">
<svg width="100%" height="100%" viewBox="0 0 800 400" version="1.1" xmlns="http://www.w3.org/2000/svg" xmlns:xlink="http://www.w3.org/1999/xlink" xml:space="preserve" xmlns:serif="http://www.serif.com/" style="fill-rule:evenodd;clip-rule:evenodd;stroke-linecap:round;stroke-linejoin:round;stroke-miterlimit:1.5;">
    <g id="Time" transform="matrix(0.898236,0,0,0.196744,84.0794,156.282)">
        <path d="M48.041,217.125L65.178,309.25L45,217.125L65.178,125L48.041,217.125L778.959,217.125L761.822,125L782,217.125L761.822,309.25L778.959,217.125L48.041,217.125Z" style="stroke:black;stroke-width:3.08px;"/>
    </g>
    <g transform="matrix(1,0,0,1,7.5,-95.625)">
        <text x="39.961px" y="301.788px" style="font-family:'ArialMT', 'Arial', sans-serif;font-size:20px;">Instants</text>
    </g>
    <g transform="matrix(1,0,0,1,388.66,77.375)">
        <text x="43.448px" y="301.788px" style="font-family:'ArialMT', 'Arial', sans-serif;font-size:20px;">UTC</text>
    </g>
    <g transform="matrix(1,0,0,1,388.66,77.375)">
        <text x="43.448px" y="301.788px" style="font-family:'ArialMT', 'Arial', sans-serif;font-size:20px;">UTC</text>
    </g>
    <g transform="matrix(1,0,0,1,351.66,-266.625)">
        <text x="46.513px" y="301.788px" style="font-family:'ArialMT', 'Arial', sans-serif;font-size:20px;">Los <tspan x="83.212px 96.552px " y="301.788px 301.788px ">An</tspan>geles</text>
    </g>
    <g id="Day" transform="matrix(0.5,0,0,0.958482,64.5,-6.74552)">
        <rect x="120" y="325" width="662" height="31" style="fill:rgb(84,162,75);"/>
        <g transform="matrix(2,0,0,1.04332,-278.68,96.6218)">
            <text x="351.492px" y="242.596px" style="font-family:'ArialMT', 'Arial', sans-serif;font-size:24px;">31</text>
        </g>
        <rect x="120" y="325" width="662" height="31" style="fill:none;stroke:black;stroke-width:1.31px;"/>
    </g>
    <g id="Day1" serif:id="Day" transform="matrix(0.5,0,0,0.958482,395.5,-6.74552)">
        <rect x="120" y="325" width="662" height="31" style="fill:rgb(84,162,75);"/>
        <g transform="matrix(2,0,0,1.04332,-278.68,96.6218)">
            <text x="351.492px" y="242.596px" style="font-family:'ArialMT', 'Arial', sans-serif;font-size:24px;">01</text>
        </g>
        <rect x="120" y="325" width="662" height="31" style="fill:none;stroke:black;stroke-width:1.31px;"/>
    </g>
    <g id="Day2" serif:id="Day" transform="matrix(0.501511,0,0,0.958482,174.319,-251.746)">
        <rect x="120" y="325" width="662" height="31" style="fill:rgb(84,162,75);"/>
        <g transform="matrix(1.99398,0,0,1.04332,-276.662,96.6218)">
            <text x="351.583px" y="242.596px" style="font-family:'ArialMT', 'Arial', sans-serif;font-size:24px;">31</text>
        </g>
        <rect x="120" y="325" width="662" height="31" style="fill:none;stroke:black;stroke-width:1.31px;"/>
    </g>
    <g id="Day3" serif:id="Day" transform="matrix(0.332326,0,0,0.958482,526.621,-251.746)">
        <rect x="120" y="325" width="662" height="31" style="fill:rgb(84,162,75);"/>
        <g transform="matrix(3.00909,0,0,1.04332,-616.726,96.6218)">
            <text x="341.486px" y="242.596px" style="font-family:'ArialMT', 'Arial', sans-serif;font-size:24px;">01</text>
        </g>
        <rect x="120" y="325" width="662" height="31" style="fill:none;stroke:black;stroke-width:1.39px;"/>
    </g>
    <g id="Day4" serif:id="Day" transform="matrix(0.166163,0,0,0.958482,104.56,-251.746)">
        <rect x="120" y="325" width="662" height="31" style="fill:rgb(84,162,75);"/>
        <g transform="matrix(6.01818,0,0,1.04332,-1712.03,96.364)">
            <text x="346.069px" y="242.596px" style="font-family:'ArialMT', 'Arial', sans-serif;font-size:24px;">30</text>
        </g>
        <rect x="120" y="325" width="662" height="31" style="fill:none;stroke:black;stroke-width:1.45px;"/>
    </g>
    <g transform="matrix(1,0,0,1,-263.5,143.297)">
        <text x="335.434px" y="182.163px" style="font-family:'ArialMT', 'Arial', sans-serif;font-size:20px;">Days</text>
    </g>
    <g transform="matrix(1,0,0,1,-263.5,-97.7027)">
        <text x="335.434px" y="182.163px" style="font-family:'ArialMT', 'Arial', sans-serif;font-size:20px;">Days</text>
    </g>
    <g id="Month" transform="matrix(0.5,0,0,0.958482,64.5,-42.2094)">
        <rect x="120" y="325" width="662" height="31" style="fill:rgb(245,133,24);"/>
        <g transform="matrix(2,0,0,1.04332,-463.68,96.364)">
            <text x="401.987px" y="242.596px" style="font-family:'ArialMT', 'Arial', sans-serif;font-size:24px;">December</text>
        </g>
        <rect x="120" y="325" width="662" height="31" style="fill:none;stroke:black;stroke-width:1.31px;"/>
    </g>
    <g id="Month1" serif:id="Month" transform="matrix(0.5,0,0,0.958482,395.5,-42.2094)">
        <rect x="120" y="325" width="662" height="31" style="fill:rgb(245,133,24);"/>
        <g transform="matrix(2,0,0,1.04332,-463.68,96.364)">
            <text x="414.649px" y="242.596px" style="font-family:'ArialMT', 'Arial', sans-serif;font-size:24px;">January</text>
        </g>
        <rect x="120" y="325" width="662" height="31" style="fill:none;stroke:black;stroke-width:1.31px;"/>
    </g>
    <g id="Month2" serif:id="Month" transform="matrix(0.667674,0,0,0.958482,44.3792,-215.209)">
        <rect x="120" y="325" width="662" height="31" style="fill:rgb(245,133,24);"/>
        <g transform="matrix(1.49774,0,0,1.04332,-295.422,96.364)">
            <text x="443.013px" y="242.596px" style="font-family:'ArialMT', 'Arial', sans-serif;font-size:24px;">December</text>
        </g>
        <rect x="120" y="325" width="662" height="31" style="fill:none;stroke:black;stroke-width:1.21px;"/>
    </g>
    <g id="Month3" serif:id="Month" transform="matrix(0.332326,0,0,0.958482,526.621,-215.209)">
        <rect x="120" y="325" width="662" height="31" style="fill:rgb(245,133,24);"/>
        <g transform="matrix(3.00909,0,0,1.04332,-801.726,96.364)">
            <text x="373.622px" y="242.596px" style="font-family:'ArialMT', 'Arial', sans-serif;font-size:24px;">January</text>
        </g>
        <rect x="120" y="325" width="662" height="31" style="fill:none;stroke:black;stroke-width:1.39px;"/>
    </g>
    <g transform="matrix(1,0,0,1,-263.5,110.297)">
        <text x="315.414px" y="182.163px" style="font-family:'ArialMT', 'Arial', sans-serif;font-size:20px;">Months</text>
    </g>
    <g transform="matrix(1,0,0,1,-263.5,-65.7027)">
        <text x="315.414px" y="182.163px" style="font-family:'ArialMT', 'Arial', sans-serif;font-size:20px;">Months</text>
    </g>
    <g id="Years" transform="matrix(0.5,0,0,0.958482,64.5,-78.6317)">
        <rect x="120" y="325" width="662" height="31" style="fill:rgb(76,120,168);"/>
        <g transform="matrix(2,0,0,1.04332,-327.598,93.3838)">
            <text x="362.604px" y="242.596px" style="font-family:'ArialMT', 'Arial', sans-serif;font-size:24px;">1969</text>
        </g>
        <rect x="120" y="325" width="662" height="31" style="fill:none;stroke:black;stroke-width:1.31px;"/>
    </g>
    <g id="Years1" serif:id="Years" transform="matrix(0.5,0,0,0.958482,395.5,-78.6317)">
        <rect x="120" y="325" width="662" height="31" style="fill:rgb(76,120,168);"/>
        <g transform="matrix(2,0,0,1.04332,-340.598,96.364)">
            <text x="369.104px" y="242.596px" style="font-family:'ArialMT', 'Arial', sans-serif;font-size:24px;">1970</text>
        </g>
        <rect x="120" y="325" width="662" height="31" style="fill:none;stroke:black;stroke-width:1.31px;"/>
    </g>
    <g id="Years2" serif:id="Years" transform="matrix(0.667674,0,0,0.958482,44.3792,-178.632)">
        <rect x="120" y="325" width="662" height="31" style="fill:rgb(76,120,168);"/>
        <g transform="matrix(1.49774,0,0,1.04332,-159.341,93.3838)">
            <text x="380.813px" y="242.596px" style="font-family:'ArialMT', 'Arial', sans-serif;font-size:24px;">1969</text>
        </g>
        <rect x="120" y="325" width="662" height="31" style="fill:none;stroke:black;stroke-width:1.21px;"/>
    </g>
    <g id="Years3" serif:id="Years" transform="matrix(0.332326,0,0,0.958482,526.621,-178.632)">
        <rect x="120" y="325" width="662" height="31" style="fill:rgb(76,120,168);"/>
        <g transform="matrix(3.00909,0,0,1.04332,-678.644,96.364)">
            <text x="348.715px" y="242.596px" style="font-family:'ArialMT', 'Arial', sans-serif;font-size:24px;">1970</text>
        </g>
        <rect x="120" y="325" width="662" height="31" style="fill:none;stroke:black;stroke-width:1.39px;"/>
    </g>
    <g transform="matrix(1,0,0,1,7.5,-47.625)">
        <text x="59.59px" y="301.788px" style="font-family:'ArialMT', 'Arial', sans-serif;font-size:20px;">Y<tspan x="71.094px 82.217px " y="301.788px 301.788px ">ea</tspan>rs</text>
    </g>
    <g transform="matrix(1,0,0,1,7.5,-146.625)">
        <text x="59.59px" y="301.788px" style="font-family:'ArialMT', 'Arial', sans-serif;font-size:20px;">Y<tspan x="71.094px 82.217px " y="301.788px 301.788px ">ea</tspan>rs</text>
    </g>
    <g transform="matrix(0.5,0,0,0.5,243,85)">
        <circle cx="425" cy="228" r="7" style="stroke:black;stroke-width:4px;"/>
    </g>
</svg>
