<?xml version="1.0" encoding="UTF-8"?><svg xmlns="http://www.w3.org/2000/svg" xmlns:xlink="http://www.w3.org/1999/xlink" fill-opacity="1" color-rendering="auto" color-interpolation="auto" text-rendering="auto" stroke="black" stroke-linecap="square" width="323" stroke-miterlimit="10" shape-rendering="auto" stroke-opacity="1" fill="black" stroke-dasharray="none" font-weight="normal" stroke-width="1" height="267" font-family="'Dialog'" font-style="normal" stroke-linejoin="miter" font-size="12px" stroke-dashoffset="0" image-rendering="auto">
  <!--Generated by ySVG 2.5-->
  <defs id="genericDefs"/>
  <g>
    <defs id="defs1">
      <clipPath clipPathUnits="userSpaceOnUse" id="clipPath1">
        <path d="M0 0 L323 0 L323 267 L0 267 L0 0 Z"/>
      </clipPath>
      <clipPath clipPathUnits="userSpaceOnUse" id="clipPath2">
        <path d="M-1 -1 L322 -1 L322 266 L-1 266 L-1 -1 Z"/>
      </clipPath>
    </defs>
    <g text-rendering="geometricPrecision" stroke-miterlimit="1.45" shape-rendering="geometricPrecision" transform="matrix(1,0,0,1,1,1)" stroke-linecap="butt">
      <path fill="none" d="M249.674 150.9316 L213.0107 118.7884" clip-path="url(#clipPath2)"/>
    </g>
    <g text-rendering="geometricPrecision" stroke-miterlimit="1.45" shape-rendering="geometricPrecision" transform="matrix(1,0,0,1,1,1)" stroke-linecap="butt">
      <path d="M206.9952 113.5145 L212.7223 125.185 L213.7626 119.4476 L219.3146 117.6656 Z" stroke="none" clip-path="url(#clipPath2)"/>
      <path fill="none" d="M125.8836 150.9316 L162.547 118.7884" clip-path="url(#clipPath2)"/>
      <path d="M168.5625 113.5145 L156.243 117.6656 L161.795 119.4476 L162.8354 125.185 Z" clip-path="url(#clipPath2)" stroke="none"/>
      <path fill="none" d="M203.1902 76.2813 L221.302 52.3233" clip-path="url(#clipPath2)"/>
      <path d="M226.1263 45.9417 L214.9012 52.4989 L220.6989 53.1211 L222.8783 58.5294 Z" clip-path="url(#clipPath2)" stroke="none"/>
      <path fill="none" d="M279.8852 76.2813 L261.7735 52.3233" clip-path="url(#clipPath2)"/>
      <path d="M256.9491 45.9417 L260.1971 58.5294 L262.3765 53.1211 L268.1742 52.4989 Z" clip-path="url(#clipPath2)" stroke="none"/>
      <path fill="none" d="M268.8904 213.3346 L268.8904 201.3346" clip-path="url(#clipPath2)"/>
      <path d="M268.8904 193.3346 L263.8904 205.3346 L268.8904 202.3346 L273.8904 205.3346 Z" clip-path="url(#clipPath2)" stroke="none"/>
      <path fill="none" d="M44.7721 222.0431 L81.4354 189.8999" clip-path="url(#clipPath2)"/>
      <path d="M87.4509 184.626 L75.1315 188.7772 L80.6835 190.5591 L81.7239 196.2965 Z" clip-path="url(#clipPath2)" stroke="none"/>
      <path fill="none" d="M106.6673 213.3346 L106.6673 201.3346" clip-path="url(#clipPath2)"/>
      <path d="M106.6673 193.3346 L101.6673 205.3346 L106.6673 202.3346 L111.6673 205.3346 Z" clip-path="url(#clipPath2)" stroke="none"/>
      <path fill="none" d="M168.5625 222.0431 L131.8992 189.8999" clip-path="url(#clipPath2)"/>
      <path d="M125.8837 184.626 L131.6107 196.2965 L132.6511 190.5591 L138.2031 188.7772 Z" clip-path="url(#clipPath2)" stroke="none"/>
    </g>
    <g fill="rgb(221,221,221)" text-rendering="geometricPrecision" shape-rendering="geometricPrecision" transform="matrix(1,0,0,1,1,1)" stroke="rgb(221,221,221)">
      <circle r="25.5558" clip-path="url(#clipPath2)" cx="187.7788" cy="96.6673" stroke="none"/>
    </g>
    <g text-rendering="geometricPrecision" stroke-miterlimit="1.45" shape-rendering="geometricPrecision" transform="matrix(1,0,0,1,1,1)" stroke-linecap="butt">
      <circle fill="none" r="25.5558" clip-path="url(#clipPath2)" cx="187.7788" cy="96.6673"/>
      <text x="184.7008" xml:space="preserve" y="94.3273" clip-path="url(#clipPath2)" font-family="'Suisse Intl'" stroke="none">7</text>
      <text x="171.1648" xml:space="preserve" y="107.8873" clip-path="url(#clipPath2)" font-family="'Suisse Intl'" stroke="none">Music</text>
    </g>
    <g fill="rgb(221,221,221)" text-rendering="geometricPrecision" shape-rendering="geometricPrecision" transform="matrix(1,0,0,1,1,1)" stroke="rgb(221,221,221)">
      <circle r="25.5558" clip-path="url(#clipPath2)" cx="241.5377" cy="25.5558" stroke="none"/>
    </g>
    <g text-rendering="geometricPrecision" stroke-miterlimit="1.45" shape-rendering="geometricPrecision" transform="matrix(1,0,0,1,1,1)" stroke-linecap="butt">
      <circle fill="none" r="25.5558" clip-path="url(#clipPath2)" cx="241.5377" cy="25.5558"/>
      <text x="237.8777" xml:space="preserve" y="23.2158" clip-path="url(#clipPath2)" font-family="'Suisse Intl'" stroke="none">9</text>
      <text x="233.4977" xml:space="preserve" y="36.7758" clip-path="url(#clipPath2)" font-family="'Suisse Intl'" stroke="none">Art</text>
    </g>
    <g fill="rgb(221,221,221)" text-rendering="geometricPrecision" shape-rendering="geometricPrecision" transform="matrix(1,0,0,1,1,1)" stroke="rgb(221,221,221)">
      <circle r="25.5558" clip-path="url(#clipPath2)" cx="295.2966" cy="96.6673" stroke="none"/>
    </g>
    <g text-rendering="geometricPrecision" stroke-miterlimit="1.45" shape-rendering="geometricPrecision" transform="matrix(1,0,0,1,1,1)" stroke-linecap="butt">
      <circle fill="none" r="25.5558" clip-path="url(#clipPath2)" cx="295.2966" cy="96.6673"/>
      <text x="291.5406" xml:space="preserve" y="94.3273" clip-path="url(#clipPath2)" font-family="'Suisse Intl'" stroke="none">8</text>
      <text x="275.4846" xml:space="preserve" y="107.8873" clip-path="url(#clipPath2)" font-family="'Suisse Intl'" stroke="none">Movies</text>
    </g>
    <g fill="rgb(221,221,221)" text-rendering="geometricPrecision" shape-rendering="geometricPrecision" transform="matrix(1,0,0,1,1,1)" stroke="rgb(221,221,221)">
      <circle r="25.5558" clip-path="url(#clipPath2)" cx="268.8903" cy="167.7788" stroke="none"/>
    </g>
    <g text-rendering="geometricPrecision" stroke-miterlimit="1.45" shape-rendering="geometricPrecision" transform="matrix(1,0,0,1,1,1)" stroke-linecap="butt">
      <circle fill="none" r="25.5558" clip-path="url(#clipPath2)" cx="268.8903" cy="167.7788"/>
      <text x="265.2003" xml:space="preserve" y="165.4388" clip-path="url(#clipPath2)" font-family="'Suisse Intl'" stroke="none">6</text>
      <text x="257.8383" xml:space="preserve" y="178.9988" clip-path="url(#clipPath2)" font-family="'Suisse Intl'" stroke="none">Rap</text>
    </g>
    <g fill="rgb(221,221,221)" text-rendering="geometricPrecision" shape-rendering="geometricPrecision" transform="matrix(1,0,0,1,1,1)" stroke="rgb(221,221,221)">
      <circle r="25.5558" clip-path="url(#clipPath2)" cx="106.6673" cy="167.7788" stroke="none"/>
    </g>
    <g text-rendering="geometricPrecision" stroke-miterlimit="1.45" shape-rendering="geometricPrecision" transform="matrix(1,0,0,1,1,1)" stroke-linecap="butt">
      <circle fill="none" r="25.5558" clip-path="url(#clipPath2)" cx="106.6673" cy="167.7788"/>
      <text x="103.0253" xml:space="preserve" y="165.4388" clip-path="url(#clipPath2)" font-family="'Suisse Intl'" stroke="none">5</text>
      <text x="92.6813" xml:space="preserve" y="178.9988" clip-path="url(#clipPath2)" font-family="'Suisse Intl'" stroke="none">Rock</text>
    </g>
    <g fill="rgb(221,221,221)" text-rendering="geometricPrecision" shape-rendering="geometricPrecision" transform="matrix(1,0,0,1,1,1)" stroke="rgb(221,221,221)">
      <circle r="25.5558" clip-path="url(#clipPath2)" cx="187.7788" cy="238.8903" stroke="none"/>
    </g>
    <g text-rendering="geometricPrecision" stroke-miterlimit="1.45" shape-rendering="geometricPrecision" transform="matrix(1,0,0,1,1,1)" stroke-linecap="butt">
      <circle fill="none" r="25.5558" clip-path="url(#clipPath2)" cx="187.7788" cy="238.8903"/>
      <text x="184.2568" xml:space="preserve" y="236.5504" clip-path="url(#clipPath2)" font-family="'Suisse Intl'" stroke="none">3</text>
      <text x="172.0228" xml:space="preserve" y="250.1104" clip-path="url(#clipPath2)" font-family="'Suisse Intl'" stroke="none">Oasis</text>
    </g>
    <g fill="rgb(221,221,221)" text-rendering="geometricPrecision" shape-rendering="geometricPrecision" transform="matrix(1,0,0,1,1,1)" stroke="rgb(221,221,221)">
      <circle r="25.5558" clip-path="url(#clipPath2)" cx="106.6673" cy="238.8903" stroke="none"/>
    </g>
    <g text-rendering="geometricPrecision" stroke-miterlimit="1.45" shape-rendering="geometricPrecision" transform="matrix(1,0,0,1,1,1)" stroke-linecap="butt">
      <circle fill="none" r="25.5558" clip-path="url(#clipPath2)" cx="106.6673" cy="238.8903"/>
      <text x="103.1273" xml:space="preserve" y="236.5504" clip-path="url(#clipPath2)" font-family="'Suisse Intl'" stroke="none">2</text>
      <text x="95.6873" xml:space="preserve" y="250.1104" clip-path="url(#clipPath2)" font-family="'Suisse Intl'" stroke="none">Blur</text>
    </g>
    <g fill="rgb(221,221,221)" text-rendering="geometricPrecision" shape-rendering="geometricPrecision" transform="matrix(1,0,0,1,1,1)" stroke="rgb(221,221,221)">
      <circle r="25.5558" clip-path="url(#clipPath2)" cx="25.5558" cy="238.8903" stroke="none"/>
    </g>
    <g text-rendering="geometricPrecision" stroke-miterlimit="1.45" shape-rendering="geometricPrecision" transform="matrix(1,0,0,1,1,1)" stroke-linecap="butt">
      <circle fill="none" r="25.5558" clip-path="url(#clipPath2)" cx="25.5558" cy="238.8903"/>
      <text x="23.3478" xml:space="preserve" y="236.5504" clip-path="url(#clipPath2)" font-family="'Suisse Intl'" stroke="none">1</text>
      <text x="17.6298" xml:space="preserve" y="250.1104" clip-path="url(#clipPath2)" font-family="'Suisse Intl'" stroke="none">U2</text>
    </g>
    <g fill="rgb(221,221,221)" text-rendering="geometricPrecision" shape-rendering="geometricPrecision" transform="matrix(1,0,0,1,1,1)" stroke="rgb(221,221,221)">
      <circle r="25.5558" clip-path="url(#clipPath2)" cx="268.8903" cy="238.8903" stroke="none"/>
    </g>
    <g text-rendering="geometricPrecision" stroke-miterlimit="1.45" shape-rendering="geometricPrecision" transform="matrix(1,0,0,1,1,1)" stroke-linecap="butt">
      <circle fill="none" r="25.5558" clip-path="url(#clipPath2)" cx="268.8903" cy="238.8903"/>
      <text x="265.1464" xml:space="preserve" y="236.5504" clip-path="url(#clipPath2)" font-family="'Suisse Intl'" stroke="none">4</text>
      <text x="254.8383" xml:space="preserve" y="250.1104" clip-path="url(#clipPath2)" font-family="'Suisse Intl'" stroke="none">2Pac</text>
    </g>
  </g>
</svg>
