<?xml version="1.0" encoding="UTF-8"?><svg xmlns="http://www.w3.org/2000/svg" xmlns:xlink="http://www.w3.org/1999/xlink" fill-opacity="1" color-rendering="auto" color-interpolation="auto" text-rendering="auto" stroke="black" stroke-linecap="square" width="289" stroke-miterlimit="10" shape-rendering="auto" stroke-opacity="1" fill="black" stroke-dasharray="none" font-weight="normal" stroke-width="1" height="213" font-family="'Dialog'" font-style="normal" stroke-linejoin="miter" font-size="12px" stroke-dashoffset="0" image-rendering="auto">
  <!--Generated by ySVG 2.5-->
  <defs id="genericDefs"/>
  <g>
    <defs id="defs1">
      <clipPath clipPathUnits="userSpaceOnUse" id="clipPath1">
        <path d="M0 0 L289 0 L289 213 L0 213 L0 0 Z"/>
      </clipPath>
      <clipPath clipPathUnits="userSpaceOnUse" id="clipPath2">
        <path d="M-1 -1 L288 -1 L288 212 L-1 212 L-1 -1 Z"/>
      </clipPath>
    </defs>
    <g text-rendering="geometricPrecision" stroke-miterlimit="1.45" shape-rendering="geometricPrecision" transform="matrix(1,0,0,1,1,1)" stroke-linecap="butt">
      <path fill="none" d="M68.9235 185.0455 L100.8767 191.4014" clip-path="url(#clipPath2)"/>
    </g>
    <g text-rendering="geometricPrecision" stroke-miterlimit="1.45" shape-rendering="geometricPrecision" transform="matrix(1,0,0,1,1,1)" stroke-linecap="butt">
      <path d="M108.723 192.9622 L97.929 185.7172 L99.8959 191.2064 L95.9781 195.525 Z" stroke="none" clip-path="url(#clipPath2)"/>
      <path fill="none" d="M169.6472 165.0104 L142.5585 183.1104" clip-path="url(#clipPath2)"/>
      <path d="M135.9068 187.555 L148.6623 185.0455 L143.39 182.5548 L143.1066 176.7308 Z" clip-path="url(#clipPath2)" stroke="none"/>
      <path fill="none" d="M94.6509 28.1162 L123.4884 173.0918" clip-path="url(#clipPath2)"/>
      <path d="M125.0491 180.9381 L127.6119 168.1932 L123.2933 172.111 L117.8041 170.1441 Z" clip-path="url(#clipPath2)" stroke="none"/>
      <path fill="none" d="M89.0797 29.8922 L62.9701 161.1537" clip-path="url(#clipPath2)"/>
      <path d="M61.4094 169 L68.6544 158.2061 L63.1652 160.173 L58.8466 156.2552 Z" clip-path="url(#clipPath2)" stroke="none"/>
      <path fill="none" d="M23.3336 135.9068 L41.4336 162.9954" clip-path="url(#clipPath2)"/>
      <path d="M45.8781 169.6472 L43.3687 156.8917 L40.878 162.1639 L35.054 162.4474 Z" clip-path="url(#clipPath2)" stroke="none"/>
      <path fill="none" d="M52.5858 167.227 L78.6953 35.9655" clip-path="url(#clipPath2)"/>
      <path d="M80.2561 28.1192 L73.011 38.9131 L78.5002 36.9462 L82.8189 40.864 Z" clip-path="url(#clipPath2)" stroke="none"/>
      <path fill="none" d="M116.2376 182.7723 L87.4002 37.7967" clip-path="url(#clipPath2)"/>
      <path d="M85.8394 29.9504 L83.2766 42.6953 L87.5953 38.7775 L93.0844 40.7444 Z" clip-path="url(#clipPath2)" stroke="none"/>
      <path fill="none" d="M141.965 25.843 L110.0118 19.4871" clip-path="url(#clipPath2)"/>
      <path d="M102.1656 17.9264 L112.9595 25.1714 L110.9926 19.6822 L114.9104 15.3635 Z" clip-path="url(#clipPath2)" stroke="none"/>
      <path fill="none" d="M79.1202 27.472 L27.7781 104.3109" clip-path="url(#clipPath2)"/>
      <path d="M23.3336 110.9627 L34.1577 103.7629 L28.3337 103.4795 L25.8431 98.2072 Z" clip-path="url(#clipPath2)" stroke="none"/>
      <path fill="none" d="M110.9627 187.555 L34.1238 136.2129" clip-path="url(#clipPath2)"/>
      <path d="M27.472 131.7683 L34.6718 142.5925 L34.9553 136.7684 L40.2275 134.2778 Z" clip-path="url(#clipPath2)" stroke="none"/>
      <path fill="none" d="M169.6472 148.3433 L47.8931 66.9898" clip-path="url(#clipPath2)"/>
      <path d="M41.2414 62.5453 L48.4411 73.3694 L48.7246 67.5454 L53.9968 65.0547 Z" clip-path="url(#clipPath2)" stroke="none"/>
      <path fill="none" d="M74.9817 23.3336 L47.8931 41.4336" clip-path="url(#clipPath2)"/>
      <path d="M41.2414 45.8781 L53.9968 43.3687 L48.7246 40.878 L48.4411 35.054 Z" clip-path="url(#clipPath2)" stroke="none"/>
      <path fill="none" d="M131.7683 183.4165 L183.1104 106.5776" clip-path="url(#clipPath2)"/>
      <path d="M187.555 99.9258 L176.7308 107.1256 L182.5548 107.409 L185.0455 112.6813 Z" clip-path="url(#clipPath2)" stroke="none"/>
      <path fill="none" d="M165.0104 41.2414 L183.1104 68.33" clip-path="url(#clipPath2)"/>
      <path d="M187.555 74.9817 L185.0455 62.2262 L182.5548 67.4985 L176.7308 67.7819 Z" clip-path="url(#clipPath2)" stroke="none"/>
      <path fill="none" d="M257.4522 60.2706 L216.9287 78.1635" clip-path="url(#clipPath2)"/>
      <path d="M209.6104 81.3949 L222.6075 81.1218 L217.8435 77.7596 L218.5683 71.9739 Z" clip-path="url(#clipPath2)" stroke="none"/>
      <path fill="none" d="M256.4071 98.2466 L218.5312 91.4919" clip-path="url(#clipPath2)"/>
      <path d="M210.6555 90.0873 L221.5913 97.1165 L219.5157 91.6674 L223.347 87.2718 Z" clip-path="url(#clipPath2)" stroke="none"/>
      <path fill="none" d="M185.0455 141.965 L191.4014 110.0118" clip-path="url(#clipPath2)"/>
      <path d="M192.9622 102.1656 L185.7172 112.9595 L191.2064 110.9926 L195.525 114.9104 Z" clip-path="url(#clipPath2)" stroke="none"/>
    </g>
    <g fill="rgb(221,221,221)" text-rendering="geometricPrecision" shape-rendering="geometricPrecision" transform="matrix(1,0,0,1,1,1)" stroke="rgb(221,221,221)">
      <circle r="15" clip-path="url(#clipPath2)" cx="156.6768" cy="28.7693" stroke="none"/>
    </g>
    <g text-rendering="geometricPrecision" stroke-miterlimit="1.45" shape-rendering="geometricPrecision" transform="matrix(1,0,0,1,1,1)" stroke-linecap="butt">
      <circle fill="none" r="15" clip-path="url(#clipPath2)" cx="156.6768" cy="28.7693"/>
      <text x="152.9868" xml:space="preserve" y="33.2093" clip-path="url(#clipPath2)" font-family="'Suisse Intl'" stroke="none">6</text>
    </g>
    <g fill="rgb(221,221,221)" text-rendering="geometricPrecision" shape-rendering="geometricPrecision" transform="matrix(1,0,0,1,1,1)" stroke="rgb(221,221,221)">
      <circle r="15" clip-path="url(#clipPath2)" cx="123.4347" cy="195.8885" stroke="none"/>
    </g>
    <g text-rendering="geometricPrecision" stroke-miterlimit="1.45" shape-rendering="geometricPrecision" transform="matrix(1,0,0,1,1,1)" stroke-linecap="butt">
      <circle fill="none" r="15" clip-path="url(#clipPath2)" cx="123.4347" cy="195.8885"/>
      <text x="119.7927" xml:space="preserve" y="200.3285" clip-path="url(#clipPath2)" font-family="'Suisse Intl'" stroke="none">5</text>
    </g>
    <g fill="rgb(221,221,221)" text-rendering="geometricPrecision" shape-rendering="geometricPrecision" transform="matrix(1,0,0,1,1,1)" stroke="rgb(221,221,221)">
      <circle r="15" clip-path="url(#clipPath2)" cx="182.1192" cy="156.6768" stroke="none"/>
    </g>
    <g text-rendering="geometricPrecision" stroke-miterlimit="1.45" shape-rendering="geometricPrecision" transform="matrix(1,0,0,1,1,1)" stroke-linecap="butt">
      <circle fill="none" r="15" clip-path="url(#clipPath2)" cx="182.1192" cy="156.6768"/>
      <text x="178.5792" xml:space="preserve" y="161.1168" clip-path="url(#clipPath2)" font-family="'Suisse Intl'" stroke="none">2</text>
    </g>
    <g fill="rgb(221,221,221)" text-rendering="geometricPrecision" shape-rendering="geometricPrecision" transform="matrix(1,0,0,1,1,1)" stroke="rgb(221,221,221)">
      <circle r="15" clip-path="url(#clipPath2)" cx="54.2117" cy="182.1192" stroke="none"/>
    </g>
    <g text-rendering="geometricPrecision" stroke-miterlimit="1.45" shape-rendering="geometricPrecision" transform="matrix(1,0,0,1,1,1)" stroke-linecap="butt">
      <circle fill="none" r="15" clip-path="url(#clipPath2)" cx="54.2117" cy="182.1192"/>
      <text x="52.0037" xml:space="preserve" y="186.5592" clip-path="url(#clipPath2)" font-family="'Suisse Intl'" stroke="none">1</text>
    </g>
    <g fill="rgb(221,221,221)" text-rendering="geometricPrecision" shape-rendering="geometricPrecision" transform="matrix(1,0,0,1,1,1)" stroke="rgb(221,221,221)">
      <circle r="15" clip-path="url(#clipPath2)" cx="271.1741" cy="54.2117" stroke="none"/>
    </g>
    <g text-rendering="geometricPrecision" stroke-miterlimit="1.45" shape-rendering="geometricPrecision" transform="matrix(1,0,0,1,1,1)" stroke-linecap="butt">
      <circle fill="none" r="15" clip-path="url(#clipPath2)" cx="271.1741" cy="54.2117"/>
      <text x="268.0961" xml:space="preserve" y="58.6517" clip-path="url(#clipPath2)" font-family="'Suisse Intl'" stroke="none">7</text>
    </g>
    <g fill="rgb(221,221,221)" text-rendering="geometricPrecision" shape-rendering="geometricPrecision" transform="matrix(1,0,0,1,1,1)" stroke="rgb(221,221,221)">
      <circle r="15" clip-path="url(#clipPath2)" cx="87.4538" cy="15" stroke="none"/>
    </g>
    <g text-rendering="geometricPrecision" stroke-miterlimit="1.45" shape-rendering="geometricPrecision" transform="matrix(1,0,0,1,1,1)" stroke-linecap="butt">
      <circle fill="none" r="15" clip-path="url(#clipPath2)" cx="87.4538" cy="15"/>
      <text x="83.9318" xml:space="preserve" y="19.44" clip-path="url(#clipPath2)" font-family="'Suisse Intl'" stroke="none">3</text>
    </g>
    <g fill="rgb(221,221,221)" text-rendering="geometricPrecision" shape-rendering="geometricPrecision" transform="matrix(1,0,0,1,1,1)" stroke="rgb(221,221,221)">
      <circle r="15" clip-path="url(#clipPath2)" cx="271.1741" cy="100.8802" stroke="none"/>
    </g>
    <g text-rendering="geometricPrecision" stroke-miterlimit="1.45" shape-rendering="geometricPrecision" transform="matrix(1,0,0,1,1,1)" stroke-linecap="butt">
      <circle fill="none" r="15" clip-path="url(#clipPath2)" cx="271.1741" cy="100.8802"/>
      <text x="267.5141" xml:space="preserve" y="105.3202" clip-path="url(#clipPath2)" font-family="'Suisse Intl'" stroke="none">9</text>
    </g>
    <g fill="rgb(221,221,221)" text-rendering="geometricPrecision" shape-rendering="geometricPrecision" transform="matrix(1,0,0,1,1,1)" stroke="rgb(221,221,221)">
      <circle r="15" clip-path="url(#clipPath2)" cx="15" cy="123.4347" stroke="none"/>
    </g>
    <g text-rendering="geometricPrecision" stroke-miterlimit="1.45" shape-rendering="geometricPrecision" transform="matrix(1,0,0,1,1,1)" stroke-linecap="butt">
      <circle fill="none" r="15" clip-path="url(#clipPath2)" cx="15" cy="123.4347"/>
      <text x="11.244" xml:space="preserve" y="127.8747" clip-path="url(#clipPath2)" font-family="'Suisse Intl'" stroke="none">8</text>
    </g>
    <g fill="rgb(221,221,221)" text-rendering="geometricPrecision" shape-rendering="geometricPrecision" transform="matrix(1,0,0,1,1,1)" stroke="rgb(221,221,221)">
      <circle r="15" clip-path="url(#clipPath2)" cx="28.7693" cy="54.2117" stroke="none"/>
    </g>
    <g text-rendering="geometricPrecision" stroke-miterlimit="1.45" shape-rendering="geometricPrecision" transform="matrix(1,0,0,1,1,1)" stroke-linecap="butt">
      <circle fill="none" r="15" clip-path="url(#clipPath2)" cx="28.7693" cy="54.2117"/>
      <text x="22.5953" xml:space="preserve" y="58.6517" clip-path="url(#clipPath2)" font-family="'Suisse Intl'" stroke="none">10</text>
    </g>
    <g fill="rgb(221,221,221)" text-rendering="geometricPrecision" shape-rendering="geometricPrecision" transform="matrix(1,0,0,1,1,1)" stroke="rgb(221,221,221)">
      <circle r="15" clip-path="url(#clipPath2)" cx="195.8885" cy="87.4538" stroke="none"/>
    </g>
    <g text-rendering="geometricPrecision" stroke-miterlimit="1.45" shape-rendering="geometricPrecision" transform="matrix(1,0,0,1,1,1)" stroke-linecap="butt">
      <circle fill="none" r="15" clip-path="url(#clipPath2)" cx="195.8885" cy="87.4538"/>
      <text x="192.1445" xml:space="preserve" y="91.8938" clip-path="url(#clipPath2)" font-family="'Suisse Intl'" stroke="none">4</text>
    </g>
  </g>
</svg>
