<svg xmlns="http://www.w3.org/2000/svg" xmlns:xlink="http://www.w3.org/1999/xlink" width="323" height="267" fill="#000" fill-opacity="1" stroke="#000" stroke-dasharray="none" stroke-dashoffset="0" stroke-linecap="square" stroke-linejoin="miter" stroke-miterlimit="10" stroke-opacity="1" stroke-width="1" color-interpolation="auto" color-rendering="auto" font-family="'Dialog'" font-size="12" font-style="normal" font-weight="normal" image-rendering="auto" shape-rendering="auto" text-rendering="auto"><g><defs id="defs1"><clipPath id="clipPath1" clipPathUnits="userSpaceOnUse"><path d="M0 0 L323 0 L323 267 L0 267 L0 0 Z"/></clipPath><clipPath id="clipPath2" clipPathUnits="userSpaceOnUse"><path d="M-1 -1 L322 -1 L322 266 L-1 266 L-1 -1 Z"/></clipPath></defs><g stroke-linecap="butt" stroke-miterlimit="1.45" shape-rendering="geometricPrecision" text-rendering="geometricPrecision"><path fill="none" d="M249.674 150.9316 L213.0107 118.7884" clip-path="url(#clipPath2)" transform="matrix(1,0,0,1,1,1)"/></g><g stroke-linecap="butt" stroke-miterlimit="1.45" shape-rendering="geometricPrecision" text-rendering="geometricPrecision"><path stroke="none" d="M206.9952 113.5145 L212.7223 125.185 L213.7626 119.4476 L219.3146 117.6656 Z" clip-path="url(#clipPath2)" transform="matrix(1,0,0,1,1,1)"/><path fill="none" d="M125.8836 150.9316 L162.547 118.7884" clip-path="url(#clipPath2)" transform="matrix(1,0,0,1,1,1)"/><path stroke="none" d="M168.5625 113.5145 L156.243 117.6656 L161.795 119.4476 L162.8354 125.185 Z" clip-path="url(#clipPath2)" transform="matrix(1,0,0,1,1,1)"/><path fill="none" d="M203.1902 76.2813 L221.302 52.3233" clip-path="url(#clipPath2)" transform="matrix(1,0,0,1,1,1)"/><path stroke="none" d="M226.1263 45.9417 L214.9012 52.4989 L220.6989 53.1211 L222.8783 58.5294 Z" clip-path="url(#clipPath2)" transform="matrix(1,0,0,1,1,1)"/><path fill="none" d="M279.8852 76.2813 L261.7735 52.3233" clip-path="url(#clipPath2)" transform="matrix(1,0,0,1,1,1)"/><path stroke="none" d="M256.9491 45.9417 L260.1971 58.5294 L262.3765 53.1211 L268.1742 52.4989 Z" clip-path="url(#clipPath2)" transform="matrix(1,0,0,1,1,1)"/><path fill="none" d="M268.8904 213.3346 L268.8904 201.3346" clip-path="url(#clipPath2)" transform="matrix(1,0,0,1,1,1)"/><path stroke="none" d="M268.8904 193.3346 L263.8904 205.3346 L268.8904 202.3346 L273.8904 205.3346 Z" clip-path="url(#clipPath2)" transform="matrix(1,0,0,1,1,1)"/><path fill="none" d="M44.7721 222.0431 L81.4354 189.8999" clip-path="url(#clipPath2)" transform="matrix(1,0,0,1,1,1)"/><path stroke="none" d="M87.4509 184.626 L75.1315 188.7772 L80.6835 190.5591 L81.7239 196.2965 Z" clip-path="url(#clipPath2)" transform="matrix(1,0,0,1,1,1)"/><path fill="none" d="M106.6673 213.3346 L106.6673 201.3346" clip-path="url(#clipPath2)" transform="matrix(1,0,0,1,1,1)"/><path stroke="none" d="M106.6673 193.3346 L101.6673 205.3346 L106.6673 202.3346 L111.6673 205.3346 Z" clip-path="url(#clipPath2)" transform="matrix(1,0,0,1,1,1)"/><path fill="none" d="M168.5625 222.0431 L131.8992 189.8999" clip-path="url(#clipPath2)" transform="matrix(1,0,0,1,1,1)"/><path stroke="none" d="M125.8837 184.626 L131.6107 196.2965 L132.6511 190.5591 L138.2031 188.7772 Z" clip-path="url(#clipPath2)" transform="matrix(1,0,0,1,1,1)"/></g><g fill="#DDD" stroke="#DDD" shape-rendering="geometricPrecision" text-rendering="geometricPrecision" transform="matrix(1,0,0,1,1,1)"><circle cx="187.779" cy="96.667" r="25.556" stroke="none" clip-path="url(#clipPath2)"/></g><g stroke-linecap="butt" stroke-miterlimit="1.45" shape-rendering="geometricPrecision" text-rendering="geometricPrecision" transform="matrix(1,0,0,1,1,1)"><circle cx="187.779" cy="96.667" r="25.556" fill="none" clip-path="url(#clipPath2)"/><text x="184.701" y="94.327" stroke="none" clip-path="url(#clipPath2)" font-family="'Suisse Intl'" xml:space="preserve">7</text><text x="171.165" y="107.887" stroke="none" clip-path="url(#clipPath2)" font-family="'Suisse Intl'" xml:space="preserve">Music</text></g><g fill="#DDD" stroke="#DDD" shape-rendering="geometricPrecision" text-rendering="geometricPrecision" transform="matrix(1,0,0,1,1,1)"><circle cx="241.538" cy="25.556" r="25.556" stroke="none" clip-path="url(#clipPath2)"/></g><g stroke-linecap="butt" stroke-miterlimit="1.45" shape-rendering="geometricPrecision" text-rendering="geometricPrecision" transform="matrix(1,0,0,1,1,1)"><circle cx="241.538" cy="25.556" r="25.556" fill="none" clip-path="url(#clipPath2)"/><text x="237.878" y="23.216" stroke="none" clip-path="url(#clipPath2)" font-family="'Suisse Intl'" xml:space="preserve">9</text><text x="233.498" y="36.776" stroke="none" clip-path="url(#clipPath2)" font-family="'Suisse Intl'" xml:space="preserve">Art</text></g><g fill="#DDD" stroke="#DDD" shape-rendering="geometricPrecision" text-rendering="geometricPrecision" transform="matrix(1,0,0,1,1,1)"><circle cx="295.297" cy="96.667" r="25.556" stroke="none" clip-path="url(#clipPath2)"/></g><g stroke-linecap="butt" stroke-miterlimit="1.45" shape-rendering="geometricPrecision" text-rendering="geometricPrecision" transform="matrix(1,0,0,1,1,1)"><circle cx="295.297" cy="96.667" r="25.556" fill="none" clip-path="url(#clipPath2)"/><text x="291.541" y="94.327" stroke="none" clip-path="url(#clipPath2)" font-family="'Suisse Intl'" xml:space="preserve">8</text><text x="275.485" y="107.887" stroke="none" clip-path="url(#clipPath2)" font-family="'Suisse Intl'" xml:space="preserve">Movies</text></g><g fill="#DDD" stroke="#DDD" shape-rendering="geometricPrecision" text-rendering="geometricPrecision" transform="matrix(1,0,0,1,1,1)"><circle cx="268.89" cy="167.779" r="25.556" stroke="none" clip-path="url(#clipPath2)"/></g><g stroke-linecap="butt" stroke-miterlimit="1.45" shape-rendering="geometricPrecision" text-rendering="geometricPrecision" transform="matrix(1,0,0,1,1,1)"><circle cx="268.89" cy="167.779" r="25.556" fill="none" clip-path="url(#clipPath2)"/><text x="265.2" y="165.439" stroke="none" clip-path="url(#clipPath2)" font-family="'Suisse Intl'" xml:space="preserve">6</text><text x="257.838" y="178.999" stroke="none" clip-path="url(#clipPath2)" font-family="'Suisse Intl'" xml:space="preserve">Rap</text></g><g fill="#DDD" stroke="#DDD" shape-rendering="geometricPrecision" text-rendering="geometricPrecision" transform="matrix(1,0,0,1,1,1)"><circle cx="106.667" cy="167.779" r="25.556" stroke="none" clip-path="url(#clipPath2)"/></g><g stroke-linecap="butt" stroke-miterlimit="1.45" shape-rendering="geometricPrecision" text-rendering="geometricPrecision" transform="matrix(1,0,0,1,1,1)"><circle cx="106.667" cy="167.779" r="25.556" fill="none" clip-path="url(#clipPath2)"/><text x="103.025" y="165.439" stroke="none" clip-path="url(#clipPath2)" font-family="'Suisse Intl'" xml:space="preserve">5</text><text x="92.681" y="178.999" stroke="none" clip-path="url(#clipPath2)" font-family="'Suisse Intl'" xml:space="preserve">Rock</text></g><g fill="#DDD" stroke="#DDD" shape-rendering="geometricPrecision" text-rendering="geometricPrecision" transform="matrix(1,0,0,1,1,1)"><circle cx="187.779" cy="238.89" r="25.556" stroke="none" clip-path="url(#clipPath2)"/></g><g stroke-linecap="butt" stroke-miterlimit="1.45" shape-rendering="geometricPrecision" text-rendering="geometricPrecision" transform="matrix(1,0,0,1,1,1)"><circle cx="187.779" cy="238.89" r="25.556" fill="none" clip-path="url(#clipPath2)"/><text x="184.257" y="236.55" stroke="none" clip-path="url(#clipPath2)" font-family="'Suisse Intl'" xml:space="preserve">3</text><text x="172.023" y="250.11" stroke="none" clip-path="url(#clipPath2)" font-family="'Suisse Intl'" xml:space="preserve">Oasis</text></g><g fill="#DDD" stroke="#DDD" shape-rendering="geometricPrecision" text-rendering="geometricPrecision" transform="matrix(1,0,0,1,1,1)"><circle cx="106.667" cy="238.89" r="25.556" stroke="none" clip-path="url(#clipPath2)"/></g><g stroke-linecap="butt" stroke-miterlimit="1.45" shape-rendering="geometricPrecision" text-rendering="geometricPrecision" transform="matrix(1,0,0,1,1,1)"><circle cx="106.667" cy="238.89" r="25.556" fill="none" clip-path="url(#clipPath2)"/><text x="103.127" y="236.55" stroke="none" clip-path="url(#clipPath2)" font-family="'Suisse Intl'" xml:space="preserve">2</text><text x="95.687" y="250.11" stroke="none" clip-path="url(#clipPath2)" font-family="'Suisse Intl'" xml:space="preserve">Blur</text></g><g fill="#DDD" stroke="#DDD" shape-rendering="geometricPrecision" text-rendering="geometricPrecision" transform="matrix(1,0,0,1,1,1)"><circle cx="25.556" cy="238.89" r="25.556" stroke="none" clip-path="url(#clipPath2)"/></g><g stroke-linecap="butt" stroke-miterlimit="1.45" shape-rendering="geometricPrecision" text-rendering="geometricPrecision" transform="matrix(1,0,0,1,1,1)"><circle cx="25.556" cy="238.89" r="25.556" fill="none" clip-path="url(#clipPath2)"/><text x="23.348" y="236.55" stroke="none" clip-path="url(#clipPath2)" font-family="'Suisse Intl'" xml:space="preserve">1</text><text x="17.63" y="250.11" stroke="none" clip-path="url(#clipPath2)" font-family="'Suisse Intl'" xml:space="preserve">U2</text></g><g fill="#DDD" stroke="#DDD" shape-rendering="geometricPrecision" text-rendering="geometricPrecision" transform="matrix(1,0,0,1,1,1)"><circle cx="268.89" cy="238.89" r="25.556" stroke="none" clip-path="url(#clipPath2)"/></g><g stroke-linecap="butt" stroke-miterlimit="1.45" shape-rendering="geometricPrecision" text-rendering="geometricPrecision" transform="matrix(1,0,0,1,1,1)"><circle cx="268.89" cy="238.89" r="25.556" fill="none" clip-path="url(#clipPath2)"/><text x="265.146" y="236.55" stroke="none" clip-path="url(#clipPath2)" font-family="'Suisse Intl'" xml:space="preserve">4</text><text x="254.838" y="250.11" stroke="none" clip-path="url(#clipPath2)" font-family="'Suisse Intl'" xml:space="preserve">2Pac</text></g></g></svg>