<svg xmlns="http://www.w3.org/2000/svg" xmlns:xlink="http://www.w3.org/1999/xlink" width="323" height="267" fill="#000" fill-opacity="1" stroke="#000" stroke-dasharray="none" stroke-dashoffset="0" stroke-linecap="square" stroke-linejoin="miter" stroke-miterlimit="10" stroke-opacity="1" stroke-width="1" color-interpolation="auto" color-rendering="auto" font-family="'Dialog'" font-size="12" font-style="normal" font-weight="normal" image-rendering="auto" shape-rendering="auto" text-rendering="auto"><g><defs id="defs1"><clipPath id="clipPath1" clipPathUnits="userSpaceOnUse"><path d="M0 0 L323 0 L323 267 L0 267 L0 0 Z"/></clipPath><clipPath id="clipPath2" clipPathUnits="userSpaceOnUse"><path d="M24 24 L347 24 L347 291 L24 291 L24 24 Z"/></clipPath></defs><g fill="#fff" stroke="#fff" stroke-linecap="butt" stroke-miterlimit="1.45" shape-rendering="geometricPrecision" text-rendering="geometricPrecision"><path fill="none" d="M274.674 175.9316 L238.0107 143.7884" clip-path="url(#clipPath2)" transform="matrix(1,0,0,1,-24,-24)"/></g><g fill="#fff" stroke="#fff" stroke-linecap="butt" stroke-miterlimit="1.45" shape-rendering="geometricPrecision" text-rendering="geometricPrecision"><path stroke="none" d="M231.9952 138.5145 L237.7223 150.185 L238.7626 144.4476 L244.3146 142.6656 Z" clip-path="url(#clipPath2)" transform="matrix(1,0,0,1,-24,-24)"/><path fill="none" d="M150.8836 175.9316 L187.547 143.7884" clip-path="url(#clipPath2)" transform="matrix(1,0,0,1,-24,-24)"/><path stroke="none" d="M193.5625 138.5145 L181.243 142.6656 L186.795 144.4476 L187.8354 150.185 Z" clip-path="url(#clipPath2)" transform="matrix(1,0,0,1,-24,-24)"/><path fill="none" d="M228.1902 101.2813 L246.302 77.3233" clip-path="url(#clipPath2)" transform="matrix(1,0,0,1,-24,-24)"/><path stroke="none" d="M251.1263 70.9417 L239.9012 77.4989 L245.6989 78.1211 L247.8783 83.5294 Z" clip-path="url(#clipPath2)" transform="matrix(1,0,0,1,-24,-24)"/><path fill="none" d="M304.8852 101.2813 L286.7735 77.3233" clip-path="url(#clipPath2)" transform="matrix(1,0,0,1,-24,-24)"/><path stroke="none" d="M281.9491 70.9417 L285.1971 83.5294 L287.3765 78.1211 L293.1742 77.4989 Z" clip-path="url(#clipPath2)" transform="matrix(1,0,0,1,-24,-24)"/><path fill="none" d="M293.8904 238.3346 L293.8904 226.3346" clip-path="url(#clipPath2)" transform="matrix(1,0,0,1,-24,-24)"/><path stroke="none" d="M293.8904 218.3346 L288.8904 230.3346 L293.8904 227.3346 L298.8904 230.3346 Z" clip-path="url(#clipPath2)" transform="matrix(1,0,0,1,-24,-24)"/><path fill="none" d="M69.7721 247.0431 L106.4354 214.8999" clip-path="url(#clipPath2)" transform="matrix(1,0,0,1,-24,-24)"/><path stroke="none" d="M112.4509 209.626 L100.1315 213.7772 L105.6835 215.5591 L106.7239 221.2965 Z" clip-path="url(#clipPath2)" transform="matrix(1,0,0,1,-24,-24)"/><path fill="none" d="M131.6673 238.3346 L131.6673 226.3346" clip-path="url(#clipPath2)" transform="matrix(1,0,0,1,-24,-24)"/><path stroke="none" d="M131.6673 218.3346 L126.6673 230.3346 L131.6673 227.3346 L136.6673 230.3346 Z" clip-path="url(#clipPath2)" transform="matrix(1,0,0,1,-24,-24)"/><path fill="none" d="M193.5625 247.0431 L156.8992 214.8999" clip-path="url(#clipPath2)" transform="matrix(1,0,0,1,-24,-24)"/><path stroke="none" d="M150.8837 209.6261 L156.6107 221.2966 L157.6511 215.5592 L163.2031 213.7772 Z" clip-path="url(#clipPath2)" transform="matrix(1,0,0,1,-24,-24)"/></g><g fill="gray" stroke="gray" shape-rendering="geometricPrecision" text-rendering="geometricPrecision" transform="matrix(1,0,0,1,-24,-24)"><circle cx="212.779" cy="121.667" r="25.556" stroke="none" clip-path="url(#clipPath2)"/></g><g fill="#fff" stroke="#fff" stroke-linecap="butt" stroke-miterlimit="1.45" shape-rendering="geometricPrecision" text-rendering="geometricPrecision" transform="matrix(1,0,0,1,-24,-24)"><circle cx="212.779" cy="121.667" r="25.556" fill="none" clip-path="url(#clipPath2)"/><text x="209.701" y="119.327" stroke="none" clip-path="url(#clipPath2)" font-family="'Suisse Intl'" xml:space="preserve">7</text><text x="196.165" y="132.887" stroke="none" clip-path="url(#clipPath2)" font-family="'Suisse Intl'" xml:space="preserve">Music</text></g><g fill="gray" stroke="gray" shape-rendering="geometricPrecision" text-rendering="geometricPrecision" transform="matrix(1,0,0,1,-24,-24)"><circle cx="266.538" cy="50.556" r="25.556" stroke="none" clip-path="url(#clipPath2)"/></g><g fill="#fff" stroke="#fff" stroke-linecap="butt" stroke-miterlimit="1.45" shape-rendering="geometricPrecision" text-rendering="geometricPrecision" transform="matrix(1,0,0,1,-24,-24)"><circle cx="266.538" cy="50.556" r="25.556" fill="none" clip-path="url(#clipPath2)"/><text x="262.878" y="48.216" stroke="none" clip-path="url(#clipPath2)" font-family="'Suisse Intl'" xml:space="preserve">9</text><text x="258.498" y="61.776" stroke="none" clip-path="url(#clipPath2)" font-family="'Suisse Intl'" xml:space="preserve">Art</text></g><g fill="gray" stroke="gray" shape-rendering="geometricPrecision" text-rendering="geometricPrecision" transform="matrix(1,0,0,1,-24,-24)"><circle cx="320.297" cy="121.667" r="25.556" stroke="none" clip-path="url(#clipPath2)"/></g><g fill="#fff" stroke="#fff" stroke-linecap="butt" stroke-miterlimit="1.45" shape-rendering="geometricPrecision" text-rendering="geometricPrecision" transform="matrix(1,0,0,1,-24,-24)"><circle cx="320.297" cy="121.667" r="25.556" fill="none" clip-path="url(#clipPath2)"/><text x="316.541" y="119.327" stroke="none" clip-path="url(#clipPath2)" font-family="'Suisse Intl'" xml:space="preserve">8</text><text x="300.485" y="132.887" stroke="none" clip-path="url(#clipPath2)" font-family="'Suisse Intl'" xml:space="preserve">Movies</text></g><g fill="gray" stroke="gray" shape-rendering="geometricPrecision" text-rendering="geometricPrecision" transform="matrix(1,0,0,1,-24,-24)"><circle cx="293.89" cy="192.779" r="25.556" stroke="none" clip-path="url(#clipPath2)"/></g><g fill="#fff" stroke="#fff" stroke-linecap="butt" stroke-miterlimit="1.45" shape-rendering="geometricPrecision" text-rendering="geometricPrecision" transform="matrix(1,0,0,1,-24,-24)"><circle cx="293.89" cy="192.779" r="25.556" fill="none" clip-path="url(#clipPath2)"/><text x="290.2" y="190.439" stroke="none" clip-path="url(#clipPath2)" font-family="'Suisse Intl'" xml:space="preserve">6</text><text x="282.838" y="203.999" stroke="none" clip-path="url(#clipPath2)" font-family="'Suisse Intl'" xml:space="preserve">Rap</text></g><g fill="gray" stroke="gray" shape-rendering="geometricPrecision" text-rendering="geometricPrecision" transform="matrix(1,0,0,1,-24,-24)"><circle cx="131.667" cy="192.779" r="25.556" stroke="none" clip-path="url(#clipPath2)"/></g><g fill="#fff" stroke="#fff" stroke-linecap="butt" stroke-miterlimit="1.45" shape-rendering="geometricPrecision" text-rendering="geometricPrecision" transform="matrix(1,0,0,1,-24,-24)"><circle cx="131.667" cy="192.779" r="25.556" fill="none" clip-path="url(#clipPath2)"/><text x="128.025" y="190.439" stroke="none" clip-path="url(#clipPath2)" font-family="'Suisse Intl'" xml:space="preserve">5</text><text x="117.681" y="203.999" stroke="none" clip-path="url(#clipPath2)" font-family="'Suisse Intl'" xml:space="preserve">Rock</text></g><g fill="gray" stroke="gray" shape-rendering="geometricPrecision" text-rendering="geometricPrecision" transform="matrix(1,0,0,1,-24,-24)"><circle cx="212.779" cy="263.89" r="25.556" stroke="none" clip-path="url(#clipPath2)"/></g><g fill="#fff" stroke="#fff" stroke-linecap="butt" stroke-miterlimit="1.45" shape-rendering="geometricPrecision" text-rendering="geometricPrecision" transform="matrix(1,0,0,1,-24,-24)"><circle cx="212.779" cy="263.89" r="25.556" fill="none" clip-path="url(#clipPath2)"/><text x="209.257" y="261.55" stroke="none" clip-path="url(#clipPath2)" font-family="'Suisse Intl'" xml:space="preserve">3</text><text x="197.023" y="275.11" stroke="none" clip-path="url(#clipPath2)" font-family="'Suisse Intl'" xml:space="preserve">Oasis</text></g><g fill="gray" stroke="gray" shape-rendering="geometricPrecision" text-rendering="geometricPrecision" transform="matrix(1,0,0,1,-24,-24)"><circle cx="131.667" cy="263.89" r="25.556" stroke="none" clip-path="url(#clipPath2)"/></g><g fill="#fff" stroke="#fff" stroke-linecap="butt" stroke-miterlimit="1.45" shape-rendering="geometricPrecision" text-rendering="geometricPrecision" transform="matrix(1,0,0,1,-24,-24)"><circle cx="131.667" cy="263.89" r="25.556" fill="none" clip-path="url(#clipPath2)"/><text x="128.127" y="261.55" stroke="none" clip-path="url(#clipPath2)" font-family="'Suisse Intl'" xml:space="preserve">2</text><text x="120.687" y="275.11" stroke="none" clip-path="url(#clipPath2)" font-family="'Suisse Intl'" xml:space="preserve">Blur</text></g><g fill="gray" stroke="gray" shape-rendering="geometricPrecision" text-rendering="geometricPrecision" transform="matrix(1,0,0,1,-24,-24)"><circle cx="50.556" cy="263.89" r="25.556" stroke="none" clip-path="url(#clipPath2)"/></g><g fill="#fff" stroke="#fff" stroke-linecap="butt" stroke-miterlimit="1.45" shape-rendering="geometricPrecision" text-rendering="geometricPrecision" transform="matrix(1,0,0,1,-24,-24)"><circle cx="50.556" cy="263.89" r="25.556" fill="none" clip-path="url(#clipPath2)"/><text x="48.348" y="261.55" stroke="none" clip-path="url(#clipPath2)" font-family="'Suisse Intl'" xml:space="preserve">1</text><text x="42.63" y="275.11" stroke="none" clip-path="url(#clipPath2)" font-family="'Suisse Intl'" xml:space="preserve">U2</text></g><g fill="gray" stroke="gray" shape-rendering="geometricPrecision" text-rendering="geometricPrecision" transform="matrix(1,0,0,1,-24,-24)"><circle cx="293.89" cy="263.89" r="25.556" stroke="none" clip-path="url(#clipPath2)"/></g><g fill="#fff" stroke="#fff" stroke-linecap="butt" stroke-miterlimit="1.45" shape-rendering="geometricPrecision" text-rendering="geometricPrecision" transform="matrix(1,0,0,1,-24,-24)"><circle cx="293.89" cy="263.89" r="25.556" fill="none" clip-path="url(#clipPath2)"/><text x="290.146" y="261.55" stroke="none" clip-path="url(#clipPath2)" font-family="'Suisse Intl'" xml:space="preserve">4</text><text x="279.838" y="275.11" stroke="none" clip-path="url(#clipPath2)" font-family="'Suisse Intl'" xml:space="preserve">2Pac</text></g></g></svg>