<?xml version="1.0" encoding="UTF-8"?><svg xmlns="http://www.w3.org/2000/svg" xmlns:xlink="http://www.w3.org/1999/xlink" fill-opacity="1" color-rendering="auto" color-interpolation="auto" text-rendering="auto" stroke="black" stroke-linecap="square" width="289" stroke-miterlimit="10" shape-rendering="auto" stroke-opacity="1" fill="black" stroke-dasharray="none" font-weight="normal" stroke-width="1" height="213" font-family="'Dialog'" font-style="normal" stroke-linejoin="miter" font-size="12px" stroke-dashoffset="0" image-rendering="auto">
  <!--Generated by ySVG 2.5-->
  <defs id="genericDefs"/>
  <g>
    <defs id="defs1">
      <clipPath clipPathUnits="userSpaceOnUse" id="clipPath1">
        <path d="M0 0 L289 0 L289 213 L0 213 L0 0 Z"/>
      </clipPath>
      <clipPath clipPathUnits="userSpaceOnUse" id="clipPath2">
        <path d="M24 24 L313 24 L313 237 L24 237 L24 24 Z"/>
      </clipPath>
    </defs>
    <g stroke-linecap="butt" transform="matrix(1,0,0,1,-24,-24)" fill="white" text-rendering="geometricPrecision" shape-rendering="geometricPrecision" stroke="white" stroke-miterlimit="1.45">
      <path fill="none" d="M93.9235 210.0455 L125.8767 216.4014" clip-path="url(#clipPath2)"/>
    </g>
    <g stroke-linecap="butt" transform="matrix(1,0,0,1,-24,-24)" fill="white" text-rendering="geometricPrecision" shape-rendering="geometricPrecision" stroke="white" stroke-miterlimit="1.45">
      <path d="M133.723 217.9622 L122.929 210.7172 L124.8959 216.2064 L120.9781 220.525 Z" stroke="none" clip-path="url(#clipPath2)"/>
      <path fill="none" d="M194.6472 190.0104 L167.5585 208.1104" clip-path="url(#clipPath2)"/>
      <path d="M160.9068 212.555 L173.6623 210.0455 L168.39 207.5548 L168.1066 201.7308 Z" clip-path="url(#clipPath2)" stroke="none"/>
      <path fill="none" d="M119.6509 53.1162 L148.4884 198.0918" clip-path="url(#clipPath2)"/>
      <path d="M150.0491 205.9381 L152.6119 193.1932 L148.2933 197.111 L142.8041 195.1441 Z" clip-path="url(#clipPath2)" stroke="none"/>
      <path fill="none" d="M114.0797 54.8922 L87.9701 186.1537" clip-path="url(#clipPath2)"/>
      <path d="M86.4094 194 L93.6544 183.2061 L88.1652 185.173 L83.8466 181.2552 Z" clip-path="url(#clipPath2)" stroke="none"/>
      <path fill="none" d="M48.3336 160.9068 L66.4336 187.9954" clip-path="url(#clipPath2)"/>
      <path d="M70.8781 194.6472 L68.3687 181.8917 L65.878 187.1639 L60.054 187.4474 Z" clip-path="url(#clipPath2)" stroke="none"/>
      <path fill="none" d="M77.5858 192.227 L103.6953 60.9655" clip-path="url(#clipPath2)"/>
      <path d="M105.2561 53.1192 L98.011 63.9131 L103.5002 61.9462 L107.8189 65.864 Z" clip-path="url(#clipPath2)" stroke="none"/>
      <path fill="none" d="M141.2376 207.7723 L112.4002 62.7967" clip-path="url(#clipPath2)"/>
      <path d="M110.8394 54.9504 L108.2766 67.6953 L112.5953 63.7775 L118.0844 65.7444 Z" clip-path="url(#clipPath2)" stroke="none"/>
      <path fill="none" d="M166.965 50.843 L135.0118 44.4871" clip-path="url(#clipPath2)"/>
      <path d="M127.1656 42.9264 L137.9595 50.1714 L135.9926 44.6822 L139.9104 40.3635 Z" clip-path="url(#clipPath2)" stroke="none"/>
      <path fill="none" d="M104.1202 52.472 L52.7781 129.3109" clip-path="url(#clipPath2)"/>
      <path d="M48.3335 135.9627 L59.1577 128.7629 L53.3337 128.4795 L50.8431 123.2072 Z" clip-path="url(#clipPath2)" stroke="none"/>
      <path fill="none" d="M135.9627 212.555 L59.1238 161.2129" clip-path="url(#clipPath2)"/>
      <path d="M52.472 156.7683 L59.6718 167.5925 L59.9553 161.7684 L65.2275 159.2778 Z" clip-path="url(#clipPath2)" stroke="none"/>
      <path fill="none" d="M194.6472 173.3433 L72.8931 91.9898" clip-path="url(#clipPath2)"/>
      <path d="M66.2414 87.5453 L73.4412 98.3694 L73.7246 92.5454 L78.9968 90.0547 Z" clip-path="url(#clipPath2)" stroke="none"/>
      <path fill="none" d="M99.9817 48.3336 L72.8931 66.4336" clip-path="url(#clipPath2)"/>
      <path d="M66.2414 70.8782 L78.9968 68.3687 L73.7246 65.878 L73.4411 60.054 Z" clip-path="url(#clipPath2)" stroke="none"/>
      <path fill="none" d="M156.7683 208.4165 L208.1104 131.5776" clip-path="url(#clipPath2)"/>
      <path d="M212.555 124.9258 L201.7308 132.1256 L207.5548 132.409 L210.0455 137.6813 Z" clip-path="url(#clipPath2)" stroke="none"/>
      <path fill="none" d="M190.0104 66.2414 L208.1104 93.33" clip-path="url(#clipPath2)"/>
      <path d="M212.555 99.9817 L210.0455 87.2262 L207.5548 92.4985 L201.7308 92.7819 Z" clip-path="url(#clipPath2)" stroke="none"/>
      <path fill="none" d="M282.4522 85.2706 L241.9287 103.1635" clip-path="url(#clipPath2)"/>
      <path d="M234.6104 106.3949 L247.6075 106.1218 L242.8435 102.7596 L243.5683 96.9739 Z" clip-path="url(#clipPath2)" stroke="none"/>
      <path fill="none" d="M281.4071 123.2466 L243.5312 116.4919" clip-path="url(#clipPath2)"/>
      <path d="M235.6555 115.0873 L246.5913 122.1165 L244.5157 116.6674 L248.347 112.2718 Z" clip-path="url(#clipPath2)" stroke="none"/>
      <path fill="none" d="M210.0455 166.965 L216.4014 135.0118" clip-path="url(#clipPath2)"/>
      <path d="M217.9622 127.1656 L210.7172 137.9595 L216.2064 135.9926 L220.525 139.9104 Z" clip-path="url(#clipPath2)" stroke="none"/>
    </g>
    <g fill="gray" text-rendering="geometricPrecision" shape-rendering="geometricPrecision" transform="matrix(1,0,0,1,-24,-24)" stroke="gray">
      <circle r="15" clip-path="url(#clipPath2)" cx="181.6768" cy="53.7693" stroke="none"/>
    </g>
    <g stroke-linecap="butt" transform="matrix(1,0,0,1,-24,-24)" fill="white" text-rendering="geometricPrecision" shape-rendering="geometricPrecision" stroke="white" stroke-miterlimit="1.45">
      <circle fill="none" r="15" clip-path="url(#clipPath2)" cx="181.6768" cy="53.7693"/>
      <text x="177.9868" xml:space="preserve" y="58.2093" clip-path="url(#clipPath2)" font-family="'Suisse Intl'" stroke="none">6</text>
    </g>
    <g fill="gray" text-rendering="geometricPrecision" shape-rendering="geometricPrecision" transform="matrix(1,0,0,1,-24,-24)" stroke="gray">
      <circle r="15" clip-path="url(#clipPath2)" cx="148.4347" cy="220.8885" stroke="none"/>
    </g>
    <g stroke-linecap="butt" transform="matrix(1,0,0,1,-24,-24)" fill="white" text-rendering="geometricPrecision" shape-rendering="geometricPrecision" stroke="white" stroke-miterlimit="1.45">
      <circle fill="none" r="15" clip-path="url(#clipPath2)" cx="148.4347" cy="220.8885"/>
      <text x="144.7927" xml:space="preserve" y="225.3285" clip-path="url(#clipPath2)" font-family="'Suisse Intl'" stroke="none">5</text>
    </g>
    <g fill="gray" text-rendering="geometricPrecision" shape-rendering="geometricPrecision" transform="matrix(1,0,0,1,-24,-24)" stroke="gray">
      <circle r="15" clip-path="url(#clipPath2)" cx="207.1192" cy="181.6768" stroke="none"/>
    </g>
    <g stroke-linecap="butt" transform="matrix(1,0,0,1,-24,-24)" fill="white" text-rendering="geometricPrecision" shape-rendering="geometricPrecision" stroke="white" stroke-miterlimit="1.45">
      <circle fill="none" r="15" clip-path="url(#clipPath2)" cx="207.1192" cy="181.6768"/>
      <text x="203.5792" xml:space="preserve" y="186.1168" clip-path="url(#clipPath2)" font-family="'Suisse Intl'" stroke="none">2</text>
    </g>
    <g fill="gray" text-rendering="geometricPrecision" shape-rendering="geometricPrecision" transform="matrix(1,0,0,1,-24,-24)" stroke="gray">
      <circle r="15" clip-path="url(#clipPath2)" cx="79.2117" cy="207.1192" stroke="none"/>
    </g>
    <g stroke-linecap="butt" transform="matrix(1,0,0,1,-24,-24)" fill="white" text-rendering="geometricPrecision" shape-rendering="geometricPrecision" stroke="white" stroke-miterlimit="1.45">
      <circle fill="none" r="15" clip-path="url(#clipPath2)" cx="79.2117" cy="207.1192"/>
      <text x="77.0037" xml:space="preserve" y="211.5592" clip-path="url(#clipPath2)" font-family="'Suisse Intl'" stroke="none">1</text>
    </g>
    <g fill="gray" text-rendering="geometricPrecision" shape-rendering="geometricPrecision" transform="matrix(1,0,0,1,-24,-24)" stroke="gray">
      <circle r="15" clip-path="url(#clipPath2)" cx="296.1741" cy="79.2117" stroke="none"/>
    </g>
    <g stroke-linecap="butt" transform="matrix(1,0,0,1,-24,-24)" fill="white" text-rendering="geometricPrecision" shape-rendering="geometricPrecision" stroke="white" stroke-miterlimit="1.45">
      <circle fill="none" r="15" clip-path="url(#clipPath2)" cx="296.1741" cy="79.2117"/>
      <text x="293.0961" xml:space="preserve" y="83.6517" clip-path="url(#clipPath2)" font-family="'Suisse Intl'" stroke="none">7</text>
    </g>
    <g fill="gray" text-rendering="geometricPrecision" shape-rendering="geometricPrecision" transform="matrix(1,0,0,1,-24,-24)" stroke="gray">
      <circle r="15" clip-path="url(#clipPath2)" cx="112.4538" cy="40" stroke="none"/>
    </g>
    <g stroke-linecap="butt" transform="matrix(1,0,0,1,-24,-24)" fill="white" text-rendering="geometricPrecision" shape-rendering="geometricPrecision" stroke="white" stroke-miterlimit="1.45">
      <circle fill="none" r="15" clip-path="url(#clipPath2)" cx="112.4538" cy="40"/>
      <text x="108.9318" xml:space="preserve" y="44.44" clip-path="url(#clipPath2)" font-family="'Suisse Intl'" stroke="none">3</text>
    </g>
    <g fill="gray" text-rendering="geometricPrecision" shape-rendering="geometricPrecision" transform="matrix(1,0,0,1,-24,-24)" stroke="gray">
      <circle r="15" clip-path="url(#clipPath2)" cx="296.1741" cy="125.8802" stroke="none"/>
    </g>
    <g stroke-linecap="butt" transform="matrix(1,0,0,1,-24,-24)" fill="white" text-rendering="geometricPrecision" shape-rendering="geometricPrecision" stroke="white" stroke-miterlimit="1.45">
      <circle fill="none" r="15" clip-path="url(#clipPath2)" cx="296.1741" cy="125.8802"/>
      <text x="292.5141" xml:space="preserve" y="130.3202" clip-path="url(#clipPath2)" font-family="'Suisse Intl'" stroke="none">9</text>
    </g>
    <g fill="gray" text-rendering="geometricPrecision" shape-rendering="geometricPrecision" transform="matrix(1,0,0,1,-24,-24)" stroke="gray">
      <circle r="15" clip-path="url(#clipPath2)" cx="40" cy="148.4347" stroke="none"/>
    </g>
    <g stroke-linecap="butt" transform="matrix(1,0,0,1,-24,-24)" fill="white" text-rendering="geometricPrecision" shape-rendering="geometricPrecision" stroke="white" stroke-miterlimit="1.45">
      <circle fill="none" r="15" clip-path="url(#clipPath2)" cx="40" cy="148.4347"/>
      <text x="36.244" xml:space="preserve" y="152.8747" clip-path="url(#clipPath2)" font-family="'Suisse Intl'" stroke="none">8</text>
    </g>
    <g fill="gray" text-rendering="geometricPrecision" shape-rendering="geometricPrecision" transform="matrix(1,0,0,1,-24,-24)" stroke="gray">
      <circle r="15" clip-path="url(#clipPath2)" cx="53.7693" cy="79.2117" stroke="none"/>
    </g>
    <g stroke-linecap="butt" transform="matrix(1,0,0,1,-24,-24)" fill="white" text-rendering="geometricPrecision" shape-rendering="geometricPrecision" stroke="white" stroke-miterlimit="1.45">
      <circle fill="none" r="15" clip-path="url(#clipPath2)" cx="53.7693" cy="79.2117"/>
      <text x="47.5953" xml:space="preserve" y="83.6517" clip-path="url(#clipPath2)" font-family="'Suisse Intl'" stroke="none">10</text>
    </g>
    <g fill="gray" text-rendering="geometricPrecision" shape-rendering="geometricPrecision" transform="matrix(1,0,0,1,-24,-24)" stroke="gray">
      <circle r="15" clip-path="url(#clipPath2)" cx="220.8885" cy="112.4538" stroke="none"/>
    </g>
    <g stroke-linecap="butt" transform="matrix(1,0,0,1,-24,-24)" fill="white" text-rendering="geometricPrecision" shape-rendering="geometricPrecision" stroke="white" stroke-miterlimit="1.45">
      <circle fill="none" r="15" clip-path="url(#clipPath2)" cx="220.8885" cy="112.4538"/>
      <text x="217.1445" xml:space="preserve" y="116.8938" clip-path="url(#clipPath2)" font-family="'Suisse Intl'" stroke="none">4</text>
    </g>
  </g>
</svg>
