<?xml version="1.0" encoding="UTF-8"?><svg xmlns="http://www.w3.org/2000/svg" xmlns:xlink="http://www.w3.org/1999/xlink" fill-opacity="1" color-rendering="auto" color-interpolation="auto" text-rendering="auto" stroke="black" stroke-linecap="square" width="323" stroke-miterlimit="10" shape-rendering="auto" stroke-opacity="1" fill="black" stroke-dasharray="none" font-weight="normal" stroke-width="1" height="267" font-family="'Dialog'" font-style="normal" stroke-linejoin="miter" font-size="12px" stroke-dashoffset="0" image-rendering="auto">
  <!--Generated by ySVG 2.5-->
  <defs id="genericDefs"/>
  <g>
    <defs id="defs1">
      <clipPath clipPathUnits="userSpaceOnUse" id="clipPath1">
        <path d="M0 0 L323 0 L323 267 L0 267 L0 0 Z"/>
      </clipPath>
      <clipPath clipPathUnits="userSpaceOnUse" id="clipPath2">
        <path d="M24 24 L347 24 L347 291 L24 291 L24 24 Z"/>
      </clipPath>
    </defs>
    <g stroke-linecap="butt" transform="matrix(1,0,0,1,-24,-24)" fill="white" text-rendering="geometricPrecision" shape-rendering="geometricPrecision" stroke="white" stroke-miterlimit="1.45">
      <path fill="none" d="M274.674 175.9316 L238.0107 143.7884" clip-path="url(#clipPath2)"/>
    </g>
    <g stroke-linecap="butt" transform="matrix(1,0,0,1,-24,-24)" fill="white" text-rendering="geometricPrecision" shape-rendering="geometricPrecision" stroke="white" stroke-miterlimit="1.45">
      <path d="M231.9952 138.5145 L237.7223 150.185 L238.7626 144.4476 L244.3146 142.6656 Z" stroke="none" clip-path="url(#clipPath2)"/>
      <path fill="none" d="M150.8836 175.9316 L187.547 143.7884" clip-path="url(#clipPath2)"/>
      <path d="M193.5625 138.5145 L181.243 142.6656 L186.795 144.4476 L187.8354 150.185 Z" clip-path="url(#clipPath2)" stroke="none"/>
      <path fill="none" d="M228.1902 101.2813 L246.302 77.3233" clip-path="url(#clipPath2)"/>
      <path d="M251.1263 70.9417 L239.9012 77.4989 L245.6989 78.1211 L247.8783 83.5294 Z" clip-path="url(#clipPath2)" stroke="none"/>
      <path fill="none" d="M304.8852 101.2813 L286.7735 77.3233" clip-path="url(#clipPath2)"/>
      <path d="M281.9491 70.9417 L285.1971 83.5294 L287.3765 78.1211 L293.1742 77.4989 Z" clip-path="url(#clipPath2)" stroke="none"/>
      <path fill="none" d="M293.8904 238.3346 L293.8904 226.3346" clip-path="url(#clipPath2)"/>
      <path d="M293.8904 218.3346 L288.8904 230.3346 L293.8904 227.3346 L298.8904 230.3346 Z" clip-path="url(#clipPath2)" stroke="none"/>
      <path fill="none" d="M69.7721 247.0431 L106.4354 214.8999" clip-path="url(#clipPath2)"/>
      <path d="M112.4509 209.626 L100.1315 213.7772 L105.6835 215.5591 L106.7239 221.2965 Z" clip-path="url(#clipPath2)" stroke="none"/>
      <path fill="none" d="M131.6673 238.3346 L131.6673 226.3346" clip-path="url(#clipPath2)"/>
      <path d="M131.6673 218.3346 L126.6673 230.3346 L131.6673 227.3346 L136.6673 230.3346 Z" clip-path="url(#clipPath2)" stroke="none"/>
      <path fill="none" d="M193.5625 247.0431 L156.8992 214.8999" clip-path="url(#clipPath2)"/>
      <path d="M150.8837 209.6261 L156.6107 221.2966 L157.6511 215.5592 L163.2031 213.7772 Z" clip-path="url(#clipPath2)" stroke="none"/>
    </g>
    <g fill="gray" text-rendering="geometricPrecision" shape-rendering="geometricPrecision" transform="matrix(1,0,0,1,-24,-24)" stroke="gray">
      <circle r="25.5558" clip-path="url(#clipPath2)" cx="212.7788" cy="121.6673" stroke="none"/>
    </g>
    <g stroke-linecap="butt" transform="matrix(1,0,0,1,-24,-24)" fill="white" text-rendering="geometricPrecision" shape-rendering="geometricPrecision" stroke="white" stroke-miterlimit="1.45">
      <circle fill="none" r="25.5558" clip-path="url(#clipPath2)" cx="212.7788" cy="121.6673"/>
      <text x="209.7008" xml:space="preserve" y="119.3273" clip-path="url(#clipPath2)" font-family="'Suisse Intl'" stroke="none">7</text>
      <text x="196.1648" xml:space="preserve" y="132.8873" clip-path="url(#clipPath2)" font-family="'Suisse Intl'" stroke="none">Music</text>
    </g>
    <g fill="gray" text-rendering="geometricPrecision" shape-rendering="geometricPrecision" transform="matrix(1,0,0,1,-24,-24)" stroke="gray">
      <circle r="25.5558" clip-path="url(#clipPath2)" cx="266.5377" cy="50.5558" stroke="none"/>
    </g>
    <g stroke-linecap="butt" transform="matrix(1,0,0,1,-24,-24)" fill="white" text-rendering="geometricPrecision" shape-rendering="geometricPrecision" stroke="white" stroke-miterlimit="1.45">
      <circle fill="none" r="25.5558" clip-path="url(#clipPath2)" cx="266.5377" cy="50.5558"/>
      <text x="262.8777" xml:space="preserve" y="48.2158" clip-path="url(#clipPath2)" font-family="'Suisse Intl'" stroke="none">9</text>
      <text x="258.4977" xml:space="preserve" y="61.7758" clip-path="url(#clipPath2)" font-family="'Suisse Intl'" stroke="none">Art</text>
    </g>
    <g fill="gray" text-rendering="geometricPrecision" shape-rendering="geometricPrecision" transform="matrix(1,0,0,1,-24,-24)" stroke="gray">
      <circle r="25.5558" clip-path="url(#clipPath2)" cx="320.2966" cy="121.6673" stroke="none"/>
    </g>
    <g stroke-linecap="butt" transform="matrix(1,0,0,1,-24,-24)" fill="white" text-rendering="geometricPrecision" shape-rendering="geometricPrecision" stroke="white" stroke-miterlimit="1.45">
      <circle fill="none" r="25.5558" clip-path="url(#clipPath2)" cx="320.2966" cy="121.6673"/>
      <text x="316.5406" xml:space="preserve" y="119.3273" clip-path="url(#clipPath2)" font-family="'Suisse Intl'" stroke="none">8</text>
      <text x="300.4846" xml:space="preserve" y="132.8873" clip-path="url(#clipPath2)" font-family="'Suisse Intl'" stroke="none">Movies</text>
    </g>
    <g fill="gray" text-rendering="geometricPrecision" shape-rendering="geometricPrecision" transform="matrix(1,0,0,1,-24,-24)" stroke="gray">
      <circle r="25.5558" clip-path="url(#clipPath2)" cx="293.8903" cy="192.7788" stroke="none"/>
    </g>
    <g stroke-linecap="butt" transform="matrix(1,0,0,1,-24,-24)" fill="white" text-rendering="geometricPrecision" shape-rendering="geometricPrecision" stroke="white" stroke-miterlimit="1.45">
      <circle fill="none" r="25.5558" clip-path="url(#clipPath2)" cx="293.8903" cy="192.7788"/>
      <text x="290.2003" xml:space="preserve" y="190.4388" clip-path="url(#clipPath2)" font-family="'Suisse Intl'" stroke="none">6</text>
      <text x="282.8383" xml:space="preserve" y="203.9988" clip-path="url(#clipPath2)" font-family="'Suisse Intl'" stroke="none">Rap</text>
    </g>
    <g fill="gray" text-rendering="geometricPrecision" shape-rendering="geometricPrecision" transform="matrix(1,0,0,1,-24,-24)" stroke="gray">
      <circle r="25.5558" clip-path="url(#clipPath2)" cx="131.6673" cy="192.7788" stroke="none"/>
    </g>
    <g stroke-linecap="butt" transform="matrix(1,0,0,1,-24,-24)" fill="white" text-rendering="geometricPrecision" shape-rendering="geometricPrecision" stroke="white" stroke-miterlimit="1.45">
      <circle fill="none" r="25.5558" clip-path="url(#clipPath2)" cx="131.6673" cy="192.7788"/>
      <text x="128.0253" xml:space="preserve" y="190.4388" clip-path="url(#clipPath2)" font-family="'Suisse Intl'" stroke="none">5</text>
      <text x="117.6813" xml:space="preserve" y="203.9988" clip-path="url(#clipPath2)" font-family="'Suisse Intl'" stroke="none">Rock</text>
    </g>
    <g fill="gray" text-rendering="geometricPrecision" shape-rendering="geometricPrecision" transform="matrix(1,0,0,1,-24,-24)" stroke="gray">
      <circle r="25.5558" clip-path="url(#clipPath2)" cx="212.7788" cy="263.8903" stroke="none"/>
    </g>
    <g stroke-linecap="butt" transform="matrix(1,0,0,1,-24,-24)" fill="white" text-rendering="geometricPrecision" shape-rendering="geometricPrecision" stroke="white" stroke-miterlimit="1.45">
      <circle fill="none" r="25.5558" clip-path="url(#clipPath2)" cx="212.7788" cy="263.8903"/>
      <text x="209.2568" xml:space="preserve" y="261.5504" clip-path="url(#clipPath2)" font-family="'Suisse Intl'" stroke="none">3</text>
      <text x="197.0228" xml:space="preserve" y="275.1104" clip-path="url(#clipPath2)" font-family="'Suisse Intl'" stroke="none">Oasis</text>
    </g>
    <g fill="gray" text-rendering="geometricPrecision" shape-rendering="geometricPrecision" transform="matrix(1,0,0,1,-24,-24)" stroke="gray">
      <circle r="25.5558" clip-path="url(#clipPath2)" cx="131.6673" cy="263.8903" stroke="none"/>
    </g>
    <g stroke-linecap="butt" transform="matrix(1,0,0,1,-24,-24)" fill="white" text-rendering="geometricPrecision" shape-rendering="geometricPrecision" stroke="white" stroke-miterlimit="1.45">
      <circle fill="none" r="25.5558" clip-path="url(#clipPath2)" cx="131.6673" cy="263.8903"/>
      <text x="128.1273" xml:space="preserve" y="261.5504" clip-path="url(#clipPath2)" font-family="'Suisse Intl'" stroke="none">2</text>
      <text x="120.6873" xml:space="preserve" y="275.1104" clip-path="url(#clipPath2)" font-family="'Suisse Intl'" stroke="none">Blur</text>
    </g>
    <g fill="gray" text-rendering="geometricPrecision" shape-rendering="geometricPrecision" transform="matrix(1,0,0,1,-24,-24)" stroke="gray">
      <circle r="25.5558" clip-path="url(#clipPath2)" cx="50.5558" cy="263.8903" stroke="none"/>
    </g>
    <g stroke-linecap="butt" transform="matrix(1,0,0,1,-24,-24)" fill="white" text-rendering="geometricPrecision" shape-rendering="geometricPrecision" stroke="white" stroke-miterlimit="1.45">
      <circle fill="none" r="25.5558" clip-path="url(#clipPath2)" cx="50.5558" cy="263.8903"/>
      <text x="48.3478" xml:space="preserve" y="261.5504" clip-path="url(#clipPath2)" font-family="'Suisse Intl'" stroke="none">1</text>
      <text x="42.6298" xml:space="preserve" y="275.1104" clip-path="url(#clipPath2)" font-family="'Suisse Intl'" stroke="none">U2</text>
    </g>
    <g fill="gray" text-rendering="geometricPrecision" shape-rendering="geometricPrecision" transform="matrix(1,0,0,1,-24,-24)" stroke="gray">
      <circle r="25.5558" clip-path="url(#clipPath2)" cx="293.8903" cy="263.8903" stroke="none"/>
    </g>
    <g stroke-linecap="butt" transform="matrix(1,0,0,1,-24,-24)" fill="white" text-rendering="geometricPrecision" shape-rendering="geometricPrecision" stroke="white" stroke-miterlimit="1.45">
      <circle fill="none" r="25.5558" clip-path="url(#clipPath2)" cx="293.8903" cy="263.8903"/>
      <text x="290.1464" xml:space="preserve" y="261.5504" clip-path="url(#clipPath2)" font-family="'Suisse Intl'" stroke="none">4</text>
      <text x="279.8383" xml:space="preserve" y="275.1104" clip-path="url(#clipPath2)" font-family="'Suisse Intl'" stroke="none">2Pac</text>
    </g>
  </g>
</svg>
