<svg xmlns="http://www.w3.org/2000/svg" xmlns:bx="https://boxy-svg.com" width="463.584" height="349.957" viewBox="22.833 68.116 463.584 349.957"><defs><linearGradient id="gradient-0" x1="250.188" x2="250.188" y1="71.116" y2="188.093" gradientTransform="matrix(1, 0, 0, 1.348839, 0, -27.80801)" gradientUnits="userSpaceOnUse"><stop offset="0" style="stop-color:#fff"/><stop offset="1" style="stop-color:#38608d"/></linearGradient><linearGradient id="gradient-1" x1="250.133" x2="250.133" y1="188.138" y2="272.485" gradientTransform="matrix(1, 0, 0, 1.015343, 0, 37.76218)" gradientUnits="userSpaceOnUse"><stop offset="0" style="stop-color:#fff"/><stop offset="1" style="stop-color:#7f9241"/></linearGradient><linearGradient id="gradient-2" x1="256.175" x2="256.175" y1="75.434" y2="188.093" gradientTransform="matrix(1, 0, 0, 0.893964, -6.363212, 249.923264)" gradientUnits="userSpaceOnUse"><stop offset="0" style="stop-color:#fff"/><stop offset="1" style="stop-color:#ea6"/></linearGradient></defs><g><rect width="233.413" height="157.783" x="133.482" y="68.116" style="paint-order:fill;stroke:#6892c3;fill:url(#gradient-0);stroke-width:3px"/><rect width="233.413" height="85.641" x="133.427" y="228.787" style="stroke:#b0c277;stroke-width:3px;fill:url(#gradient-1)"/><rect width="233.413" height="100.713" x="133.105" y="317.36" style="fill:url(#gradient-2);stroke-width:3px;stroke:#ea6"/><path d="M 60.025 -1.799 H 191.504 L 191.504 -13.799 L 217.808 1.201 L 191.504 16.201 L 191.504 4.201 H 60.025 V -1.799 Z" style="fill:#6794c5" transform="matrix(0, 1, -1, 0, 83.44838, 8.090857)" bx:shape="arrow 60.025 -13.799 157.783 30 6 26.304 0 1@38654dae"/><path d="M 82.418 184.057 H 148.185 L 148.185 172.057 L 168.059 187.057 L 148.185 202.057 L 148.185 190.057 H 82.418 V 184.057 Z" style="stroke:#b0c277;fill:#b0c277" transform="matrix(0, 1, -1, 0, 269.402069, 146.368561)" bx:shape="arrow 82.418 172.057 85.641 30 6 19.874 0 1@92d836ed"/><path d="M 101.608 270.463 H 177.763 L 177.763 258.463 L 202.321 273.463 L 177.763 288.463 L 177.763 276.463 H 101.608 V 270.463 Z" style="fill:#ea6;stroke:#ea6;paint-order:stroke" transform="matrix(0, 1, -1, 0, 355.613708, 215.752121)" bx:shape="arrow 101.608 258.463 100.713 30 6 24.558 0 1@317fc690"/><rect width="226.714" height="56.853" x="136.918" y="85.124" style="fill-opacity:0;paint-order:fill;stroke:#c06d63;stroke-width:4px"/><line style="stroke-width:3px;stroke:#8f7dae" x1="138.298" x2="486.417" y1="129.858" y2="129.858"/><text style="fill:#8f7dae;font-family:Arial,sans-serif;font-size:18px;paint-order:fill;stroke:#8f7dae;white-space:pre" x="375.759" y="123.076">Current Row</text><text style="fill:#fff;font-family:Arial,sans-serif;font-size:18px;white-space:pre" x="212.296" y="193.483">Partition 1</text><text style="fill:#fff;font-family:Arial,sans-serif;font-size:18px;white-space:pre" x="209.612" y="277.812">Partition 2</text><text style="fill:#fff;font-family:Arial,sans-serif;font-size:19px;white-space:pre" x="207.041" y="374.268">Partition 3</text><text style="fill:#c06d63;font-family:Arial,sans-serif;font-size:18px;white-space:pre" x="224.366" y="119.749">Frame</text><text style="fill:#29497a;font-family:Arial,sans-serif;font-size:31.7px;white-space:pre" x="68.639" y="369.533" transform="matrix(0, -1, 1, 0, -317.979218, 345.196381)">Ordering</text></g></svg>