<?xml version="1.0" encoding="utf-8"?>
<!-- Generator: Adobe Illustrator 24.1.3, SVG Export Plug-In . SVG Version: 6.00 Build 0)  -->
<svg version="1.1" id="Ebene_1" xmlns="http://www.w3.org/2000/svg" xmlns:xlink="http://www.w3.org/1999/xlink" x="0px" y="0px"
	 viewBox="0 0 76.7 56.7" style="enable-background:new 0 0 76.7 56.7;" xml:space="preserve">
<style type="text/css">
	.st0{fill:#010202;}
</style>
<g>
	<g>
		<path class="st0" d="M27.3,1.1l19.5,19.5l0.5,0.5l0.5-0.5L67.4,1.1l7.2,7.2L55.1,27.8l-0.5,0.5l0.5,0.5l19.5,19.5l-7.2,7.2
			L47.9,36.1l-0.5-0.5l-0.5,0.5L27.3,55.6l-7.2-7.2l19.5-19.5l0.5-0.5l-0.5-0.5L20.1,8.3L27.3,1.1 M67.4,0l-20,20L27.3,0L19,8.3
			l20,20l-20,20l8.3,8.3l20-20l20,20l8.3-8.3l-20-20l20-20L67.4,0L67.4,0z"/>
	</g>
</g>
</svg>
