<svg width="1101" height="618" viewBox="0 0 1101 618" fill="none" xmlns="http://www.w3.org/2000/svg">
<g clip-path="url(#clip0_3400_3705)">
<rect width="1101" height="618" fill="black"/>
<path d="M76.3561 64.3322C76.3561 49.5859 67.5899 47.3434 58.6198 47.3434H54.1347V81.389H58.6198C67.5899 81.389 76.3561 79.2144 76.3561 64.3322ZM44.4171 39.7324H59.0275C74.6572 39.7324 86.4135 44.7611 86.4135 64.3322C86.4135 83.9034 74.6572 89 59.0275 89H44.4171V39.7324ZM114.753 89V84.1752C112.646 87.9127 108.637 89.8834 104.084 89.8834C95.3177 89.8834 91.7841 84.5149 91.7841 75.5448V52.44H101.162V73.5062C101.162 78.399 101.909 82.3404 107.142 82.3404C113.394 82.3404 114.753 77.2437 114.753 71.4675V52.44H124.131V89H114.753ZM148.511 51.6246C156.19 51.6246 163.801 55.9058 165.092 64.9438H156.122C155.375 61.4101 152.113 58.8958 148.511 58.8958C143.619 58.8958 139.745 63.0411 139.745 70.6521C139.745 78.331 143.415 82.6122 148.579 82.6122C151.841 82.6122 155.171 80.9133 156.462 76.5642H165.432C163.258 86.5536 155.715 89.8834 148.104 89.8834C137.163 89.8834 130.163 81.8647 130.163 70.788C130.163 59.6433 137.571 51.6246 148.511 51.6246ZM171.032 39.7324H180.41V67.1184L193.729 52.44H204.262L191.147 66.4388L205.01 89H194.477L184.895 73.1664L180.41 77.9912V89H171.032V39.7324ZM242.364 72.8266H251.606C250.315 82.8161 242.024 89.8834 230.268 89.8834C215.59 89.8834 207.231 79.894 207.231 64.1284C207.231 48.5666 216.201 38.849 230.54 38.849C242.092 38.849 249.975 45.4406 251.606 55.7019H242.364C240.529 48.8384 235.908 46.5959 230.472 46.5959C223.065 46.5959 217.288 52.7119 217.288 64.1284C217.288 75.8846 223.065 82.1365 230.132 82.1365C235.976 82.1365 240.733 79.5542 242.364 72.8266ZM274.466 58.9638C269.301 58.9638 265.632 63.109 265.632 70.788C265.632 78.4669 269.301 82.5442 274.466 82.5442C279.631 82.5442 283.3 78.4669 283.3 70.788C283.3 63.109 279.631 58.9638 274.466 58.9638ZM274.466 89.8834C265.224 89.8834 256.118 83.5636 256.118 70.788C256.118 57.9444 265.224 51.6246 274.466 51.6246C283.708 51.6246 292.814 57.9444 292.814 70.788C292.814 83.5636 283.708 89.8834 274.466 89.8834ZM308.158 52.44V57.2649C310.265 53.5273 314.206 51.6246 318.759 51.6246C327.525 51.6246 331.399 56.9251 331.399 65.9631V89H322.021V68.0018C322.021 63.3129 321.002 59.1676 315.701 59.1676C309.517 59.1676 308.158 64.1963 308.158 69.9725V89H298.78V52.44H308.158ZM354.251 51.1489H363.765L365.328 39.7324H373.755L372.192 51.1489H381.23L382.793 39.7324H391.219L389.656 51.1489H399.034L398.15 58.4201H388.637L387.21 68.6814H396.52L395.772 75.8846H386.19L384.424 89H375.997L377.764 75.8846H368.726L366.959 89H358.533L360.299 75.8846H350.989L351.873 68.6814H361.319L362.746 58.4201H353.504L354.251 51.1489ZM371.172 58.4201L369.745 68.6814H378.783L380.21 58.4201H371.172ZM420.821 82.8161C425.986 82.8161 429.723 79.0785 429.723 72.8266C429.723 66.0311 425.17 62.7693 420.617 62.7693C416.268 62.7693 413.21 64.8759 412.191 67.2543L403.628 66.8466L406.89 39.7324H437.266V47.6152H414.569L413.21 58.1483C415.317 56.5853 418.375 55.4301 422.996 55.4301C431.422 55.4301 439.237 61.4101 439.237 72.7587C439.237 83.6315 430.81 89.8834 420.685 89.8834C409.133 89.8834 403.017 82.0006 402.473 73.5062H411.307C411.851 78.6028 414.773 82.8161 420.821 82.8161ZM63.7844 133.545L57.5325 132.39C49.5817 130.759 42.7862 126.682 42.7862 118.12C42.7862 108.198 53.3872 103.849 62.4253 103.849C72.6185 103.849 81.2489 109.829 81.7925 119.275H72.4147C71.6672 113.499 66.6385 111.596 62.0175 111.596C57.4645 111.596 52.5038 113.295 52.5038 117.712C52.5038 121.178 55.3579 123.08 59.3673 123.828L65.823 124.983C73.8417 126.478 82.6759 129.536 82.6759 139.797C82.6759 149.923 72.6185 154.883 62.6971 154.883C50.601 154.883 42.5823 148.36 41.6989 137.759H51.0767C52.164 145.03 57.1927 147.137 63.0369 147.137C67.386 147.137 72.8904 145.506 72.8904 140.273C72.8904 136.128 69.0169 134.429 63.7844 133.545ZM124.112 138.302H97.134C97.6776 144.554 101.891 147.612 106.376 147.612C109.298 147.612 112.152 146.593 114.055 143.399H123.704C121.734 148.835 116.433 154.883 106.444 154.883C94.6876 154.883 87.8241 146.117 87.8241 135.584C87.8241 124.711 95.3671 116.625 106.172 116.625C117.453 116.625 124.452 125.391 124.112 138.302ZM106.104 123.488C102.57 123.488 98.0174 125.663 97.2699 131.847H114.598C114.395 125.663 110.045 123.488 106.104 123.488ZM152.986 140.001V137.283C142.453 138.37 138.307 139.593 138.307 143.671C138.307 146.321 140.346 148.496 144.627 148.496C150.539 148.496 152.986 145.37 152.986 140.001ZM153.801 149.447C151.151 153.252 147.345 154.883 141.841 154.883C134.842 154.883 128.658 150.806 128.658 144.146C128.658 135.516 138.307 132.934 152.714 131.303V130.691C152.714 125.051 149.656 123.08 145.85 123.08C142.249 123.08 139.259 124.915 139.055 128.992H130.289C131.036 121.789 136.88 116.489 146.326 116.489C154.956 116.489 162.092 120.294 162.092 132.594C162.092 133.681 161.956 138.642 161.956 141.904C161.956 147.68 162.296 150.942 163.043 154H154.413C154.141 152.845 154.005 151.282 153.801 149.447ZM171.195 117.44V107.519H180.573V117.44H188.184V123.896H180.573V142.787C180.573 146.525 181.864 147.272 185.194 147.272H188.048V154H181.185C172.758 154 171.195 151.418 171.195 144.146V123.896H166.031V117.44H171.195ZM195.484 117.44V107.519H204.862V117.44H212.473V123.896H204.862V142.787C204.862 146.525 206.153 147.272 209.483 147.272H212.337V154H205.473C197.047 154 195.484 151.418 195.484 144.146V123.896H190.319V117.44H195.484ZM227.859 104.732V154H218.481V104.732H227.859ZM270.176 138.302H243.198C243.742 144.554 247.955 147.612 252.44 147.612C255.362 147.612 258.216 146.593 260.119 143.399H269.769C267.798 148.835 262.497 154.883 252.508 154.883C240.752 154.883 233.888 146.117 233.888 135.584C233.888 124.711 241.431 116.625 252.236 116.625C263.517 116.625 270.516 125.391 270.176 138.302ZM252.168 123.488C248.634 123.488 244.081 125.663 243.334 131.847H260.663C260.459 125.663 256.11 123.488 252.168 123.488ZM274.009 154V143.807H284.542V154.748L278.97 165.552H273.602L278.63 154H274.009ZM339.275 104.732L346.818 140.817L353.546 104.732H363.467L352.526 154H341.042L333.567 117.304L326.092 154H314.607L303.667 104.732H313.724L321.063 140.613L327.927 104.732H339.275ZM361.062 154L379.41 104.732H389.196L407.612 154H397.079L393.613 144.011H374.449L370.984 154H361.062ZM384.031 116.625L377.236 136.06H390.827L384.031 116.625ZM59.4184 170.584C68.3241 170.584 74.0826 175.271 74.0826 183.105C74.0826 192.948 65.6457 202.523 47.7674 215.982H75.5558V220H42.0088V215.848C59.8871 202.256 69.6633 192.613 69.6633 183.574C69.6633 177.346 64.9091 174.266 59.4184 174.266C53.325 174.266 47.7674 177.146 47.5665 186.453H43.1471C43.6158 176.074 49.7762 170.584 59.4184 170.584ZM100.42 220.87C87.5641 220.87 81.7386 211.161 81.7386 195.694C81.7386 180.36 87.5641 170.584 100.42 170.584C113.143 170.584 119.035 180.36 119.035 195.694C119.035 211.161 113.143 220.87 100.42 220.87ZM100.42 217.188C109.125 217.188 114.683 210.358 114.683 195.694C114.683 181.163 109.125 174.266 100.42 174.266C91.6487 174.266 86.1579 181.163 86.1579 195.694C86.1579 210.358 91.6487 217.188 100.42 217.188ZM142.072 170.584C150.978 170.584 156.736 175.271 156.736 183.105C156.736 192.948 148.299 202.523 130.421 215.982H158.21V220H124.663V215.848C142.541 202.256 152.317 192.613 152.317 183.574C152.317 177.346 147.563 174.266 142.072 174.266C135.979 174.266 130.421 177.146 130.22 186.453H125.801C126.27 176.074 132.43 170.584 142.072 170.584ZM184.293 177.213L163.133 203.193H184.293V177.213ZM197.885 203.193V207.278H188.444V220H184.293V207.278H158.178V203.528L184.359 171.454H188.444V203.193H197.885ZM220.2 203.997H201.452V199.309H220.2V203.997ZM245.391 220.87C232.535 220.87 226.71 211.161 226.71 195.694C226.71 180.36 232.535 170.584 245.391 170.584C258.114 170.584 264.006 180.36 264.006 195.694C264.006 211.161 258.114 220.87 245.391 220.87ZM245.391 217.188C254.096 217.188 259.654 210.358 259.654 195.694C259.654 181.163 254.096 174.266 245.391 174.266C236.62 174.266 231.129 181.163 231.129 195.694C231.129 210.358 236.62 217.188 245.391 217.188ZM287.847 170.584C297.69 170.584 303.783 175.672 303.783 182.703C303.783 188.529 300.77 192.212 296.485 194.02C301.841 196.229 305.256 200.046 305.256 206.541C305.256 215.648 297.824 220.87 287.847 220.87C277.937 220.87 270.504 215.648 270.504 206.541C270.504 200.046 273.852 196.229 279.209 194.02C274.99 192.212 271.977 188.529 271.977 182.703C271.977 175.672 278.004 170.584 287.847 170.584ZM287.847 195.694C280.012 195.694 274.923 200.046 274.923 206.541C274.923 213.036 280.012 217.188 287.847 217.188C295.815 217.188 300.837 213.036 300.837 206.541C300.837 200.046 295.748 195.694 287.847 195.694ZM299.498 183.373C299.498 177.547 295.011 174.266 287.847 174.266C280.816 174.266 276.263 177.547 276.263 183.373C276.263 189.064 280.816 192.479 287.847 192.479C295.011 192.479 299.498 189.064 299.498 183.373ZM329.141 203.997H310.392V199.309H329.141V203.997ZM345.274 220H341.123V180.694H330.007V177.882C338.511 177.882 340.654 177.012 342.462 171.052H345.274V220ZM371.67 217.188C378.433 217.188 384.191 212.567 384.191 204.13C384.191 195.024 377.696 191.274 371.536 191.274C366.045 191.274 361.492 194.22 360.086 197.501L356.001 197.1L359.148 171.454H386.602V175.472H362.764L360.621 192.078C362.965 189.399 367.786 187.524 372.54 187.524C381.513 187.524 388.611 193.35 388.611 204.064C388.611 215.112 380.508 220.87 371.67 220.87C362.027 220.87 355.532 214.576 354.662 206.34H359.081C360.487 213.84 365.911 217.188 371.67 217.188Z" fill="#29D087"/>
<g clip-path="url(#clip1_3400_3705)">
<rect width="551" height="619.875" transform="translate(551)" fill="#7AE2B5"/>
<path d="M1728.63 656.286H382.394L382.394 230.05H382.421C424.505 230.05 445.545 219.44 466.584 208.83C487.619 198.222 508.653 187.615 550.717 187.615C592.785 187.615 613.819 198.224 634.853 208.833C655.886 219.441 676.92 230.05 718.988 230.05C761.055 230.05 782.089 219.441 803.123 208.833C824.157 198.224 845.191 187.615 887.258 187.615C929.326 187.615 950.359 198.224 971.393 208.833C992.427 219.441 1013.46 230.05 1055.53 230.05C1097.6 230.05 1118.63 219.441 1139.66 208.833C1160.7 198.224 1181.73 187.615 1223.8 187.615C1265.87 187.615 1286.9 198.224 1307.93 208.833C1328.97 219.441 1350 230.05 1392.07 230.05C1434.13 230.05 1455.16 219.443 1476.19 208.835C1497.22 198.226 1518.26 187.615 1560.34 187.615C1602.42 187.615 1623.46 198.226 1644.5 208.835C1665.54 219.442 1686.57 230.049 1728.63 230.05L1728.63 656.286Z" fill="#29D087"/>
<path d="M1897.23 395.481C1855.43 395.55 1834.46 406.099 1813.48 416.648C1792.44 427.232 1771.4 437.816 1729.32 437.816C1687.24 437.816 1666.2 427.232 1645.16 416.648C1624.12 406.064 1603.08 395.48 1560.99 395.48C1518.91 395.48 1497.87 406.064 1476.83 416.648C1455.79 427.232 1434.75 437.816 1392.67 437.816C1350.58 437.816 1329.54 427.232 1308.5 416.648C1287.46 406.064 1266.42 395.48 1224.34 395.48C1182.26 395.48 1161.21 406.064 1140.17 416.648C1119.13 427.232 1098.09 437.816 1056.01 437.816C1013.93 437.816 992.897 427.234 971.861 416.651C950.821 406.066 929.78 395.48 887.682 395.48C845.584 395.48 824.536 406.066 803.49 416.651C782.447 427.234 761.406 437.816 719.328 437.816C677.246 437.816 656.205 427.232 635.164 416.648C614.123 406.064 593.082 395.48 551 395.48V884.817H1897.23V395.481Z" fill="#00C770"/>
<path fill-rule="evenodd" clip-rule="evenodd" d="M702.518 592.036C683.422 592.036 668 576.614 668 557.518C668 538.422 683.422 523 702.518 523C721.614 523 737.036 538.422 737.036 557.518C737.036 576.614 721.614 592.036 702.518 592.036ZM720.975 552.397H714.204V562.616H720.975C723.783 562.616 726.115 560.283 726.115 557.476C726.115 554.648 723.783 552.397 720.975 552.397ZM695.332 571.824C687.446 571.824 681.026 565.404 681.026 557.518C681.026 549.631 687.446 543.211 695.332 543.211C703.219 543.211 709.639 549.631 709.639 557.518C709.639 565.404 703.219 571.824 695.332 571.824Z" fill="black"/>
<path d="M770.181 557.344C770.181 551.188 766.521 550.251 762.777 550.251H760.904V564.465H762.777C766.521 564.465 770.181 563.557 770.181 557.344ZM756.847 547.074H762.947C769.472 547.074 774.38 549.173 774.38 557.344C774.38 565.515 769.472 567.643 762.947 567.643H756.847V547.074ZM786.212 567.643V565.628C785.332 567.189 783.658 568.011 781.757 568.011C778.098 568.011 776.622 565.77 776.622 562.025V552.379H780.538V561.174C780.538 563.217 780.85 564.862 783.034 564.862C785.644 564.862 786.212 562.734 786.212 560.323V552.379H790.127V567.643H786.212ZM800.306 552.039C803.511 552.039 806.689 553.826 807.228 557.599H803.483C803.171 556.124 801.809 555.074 800.306 555.074C798.263 555.074 796.646 556.805 796.646 559.982C796.646 563.188 798.178 564.976 800.334 564.976C801.696 564.976 803.086 564.266 803.625 562.451H807.37C806.462 566.621 803.313 568.011 800.135 568.011C795.568 568.011 792.645 564.664 792.645 560.039C792.645 555.386 795.738 552.039 800.306 552.039ZM809.708 547.074H813.623V558.507L819.184 552.379H823.581L818.106 558.223L823.893 567.643H819.496L815.495 561.032L813.623 563.047V567.643H809.708V547.074ZM838.864 557.344C838.864 551.188 835.204 550.251 831.459 550.251H829.587V564.465H831.459C835.204 564.465 838.864 563.557 838.864 557.344ZM825.53 547.074H831.63C838.155 547.074 843.063 549.173 843.063 557.344C843.063 565.515 838.155 567.643 831.63 567.643H825.53V547.074ZM845.921 567.643V547.074H853.922C857.525 547.074 861.412 548.209 861.412 552.436C861.412 554.365 860.135 556.096 859.085 556.777C860.674 557.543 862.149 558.734 862.149 561.571C862.149 565.997 858.49 567.643 854.262 567.643H845.921ZM849.978 558.621V564.465H854.461C856.844 564.465 858.007 563.472 858.007 561.571C858.007 559.642 856.816 558.621 854.291 558.621H849.978ZM849.978 550.251V555.557H854.177C856.107 555.557 857.241 554.649 857.241 552.833C857.241 551.216 856.078 550.251 854.177 550.251H849.978ZM871.757 567.643V547.074H884.325V548.833H873.658V556.096H883.673V557.883H873.658V567.643H871.757ZM887.143 560.068C887.143 564.465 889.214 566.394 892.164 566.394C895.086 566.394 897.214 564.465 897.214 560.068C897.214 555.67 895.086 553.741 892.164 553.741C889.214 553.741 887.143 555.67 887.143 560.068ZM885.27 560.068C885.27 554.507 888.533 552.124 892.164 552.124C895.824 552.124 899.087 554.507 899.087 560.068C899.087 565.628 895.824 568.011 892.164 568.011C888.533 568.011 885.27 565.628 885.27 560.068ZM911.562 567.643V565.174C910.796 566.621 909.293 568.011 906.654 568.011C903.165 568.011 901.689 565.855 901.689 562.11V552.379H903.448V561.628C903.448 564.493 904.129 566.423 907.108 566.423C909.52 566.423 911.562 564.21 911.562 560.975V552.379H913.321V567.643H911.562ZM919.334 552.379V554.961C920.1 553.514 921.547 552.124 924.413 552.124C928.016 552.124 929.548 554.28 929.548 558.025V567.643H927.789V558.507C927.789 555.642 927.023 553.713 923.959 553.713C921.32 553.713 919.334 555.925 919.334 559.16V567.643H917.575V552.379H919.334ZM943.781 560.068C943.781 555.528 941.17 553.713 938.872 553.713C936.035 553.713 934.021 556.011 934.021 560.068C934.021 564.125 936.035 566.423 938.872 566.423C941.17 566.423 943.781 564.607 943.781 560.068ZM932.12 560.068C932.12 554.989 934.986 552.124 938.504 552.124C940.773 552.124 942.561 553.173 943.667 555.018V547.074H945.426V567.643H943.667V565.146C942.561 566.962 940.773 568.011 938.504 568.011C934.986 568.011 932.12 565.146 932.12 560.068ZM950.453 563.813C950.453 565.43 951.899 566.451 953.942 566.451C956.779 566.451 959.333 564.976 959.333 560.663V559.926C953.148 560.607 950.453 561.458 950.453 563.813ZM959.361 567.643L959.276 565.316C958.283 566.933 956.382 568.011 953.545 568.011C950.679 568.011 948.495 566.366 948.495 563.841C948.495 560.351 951.899 559.131 959.247 558.365V557.826C959.247 554.337 957.176 553.599 954.992 553.599C952.382 553.599 950.85 555.018 950.708 557.032H948.864C949.289 553.996 951.672 552.039 955.105 552.039C958.652 552.039 961.006 553.514 961.006 558.053C961.006 560.181 960.978 561.543 960.978 562.763C960.978 564.493 961.063 565.969 961.148 567.643H959.361ZM965.412 552.379V548.946H967.2V552.379H970.207V553.911H967.2V563.671C967.2 565.628 967.256 566.054 969.299 566.054H970.207V567.643H968.76C966.037 567.643 965.412 567.047 965.412 564.011V553.911H962.887V552.379H965.412ZM973.236 552.379H974.995V567.643H973.236V552.379ZM973.236 547.074H974.995V549.882H973.236V547.074ZM979.93 560.068C979.93 564.465 982.001 566.394 984.951 566.394C987.873 566.394 990.001 564.465 990.001 560.068C990.001 555.67 987.873 553.741 984.951 553.741C982.001 553.741 979.93 555.67 979.93 560.068ZM978.057 560.068C978.057 554.507 981.32 552.124 984.951 552.124C988.611 552.124 991.874 554.507 991.874 560.068C991.874 565.628 988.611 568.011 984.951 568.011C981.32 568.011 978.057 565.628 978.057 560.068ZM996.689 552.379V554.961C997.455 553.514 998.902 552.124 1001.77 552.124C1005.37 552.124 1006.9 554.28 1006.9 558.025V567.643H1005.14V558.507C1005.14 555.642 1004.38 553.713 1001.31 553.713C998.675 553.713 996.689 555.925 996.689 559.16V567.643H994.93V552.379H996.689Z" fill="black"/>
</g>
</g>
<defs>
<clipPath id="clip0_3400_3705">
<rect width="1101" height="618" fill="white"/>
</clipPath>
<clipPath id="clip1_3400_3705">
<rect width="551" height="619.875" fill="white" transform="translate(551)"/>
</clipPath>
</defs>
</svg>
