<?xml version="1.0" encoding="utf-8"?>
<!-- Generator: Adobe Illustrator 26.0.2, SVG Export Plug-In . SVG Version: 6.00 Build 0)  -->
<svg version="1.1" id="Ebene_1" xmlns="http://www.w3.org/2000/svg" xmlns:xlink="http://www.w3.org/1999/xlink" x="0px" y="0px"
	 viewBox="0 0 114 31.3" style="enable-background:new 0 0 114 31.3;" xml:space="preserve">
<style type="text/css">
	.st0{fill:none;}
	.st1{fill:#FFEF00;}
</style>
<g>
	<path class="st0" d="M47.9,10.3h-2.8v9.6h2.8c2.2,0,3.9-2.1,3.9-4.9C51.7,12.5,50,10.3,47.9,10.3z"/>
	<path class="st0" d="M95.8,10.3h-2.7v9.6h2.7c2.2,0,3.9-2.1,3.9-4.9C99.7,12.5,98,10.3,95.8,10.3z"/>
	<path class="st0" d="M110.7,12c0-1-0.8-1.7-1.7-1.7h-2.9v3.4h2.9C109.9,13.7,110.7,12.9,110.7,12z"/>
	<path class="st0" d="M109.7,16h-3.6v3.9h3.6c1.1,0,2-0.9,2-2C111.7,16.9,110.8,16,109.7,16z"/>
	<path class="st1" d="M112.2,14.5c0.5-0.7,0.9-1.5,0.9-2.5c0-2.2-1.9-4-4.1-4h-5.2v14.2h5.9c2.4,0,4.3-1.9,4.3-4.3
		C114,16.5,113.3,15.2,112.2,14.5z M106.1,10.3h2.9c1,0,1.7,0.7,1.7,1.7c0,0.9-0.8,1.7-1.7,1.7h-2.9V10.3z M109.7,19.9h-3.6V16h3.6
		c1.1,0,2,0.9,2,2C111.7,19.1,110.8,19.9,109.7,19.9z"/>
	<path class="st1" d="M47.9,8h-5.1v14.2h5.1c3.4,0,6.2-3.2,6.2-7.1C54.1,11.2,51.3,8,47.9,8z M47.9,19.9h-2.8v-9.6h2.8
		c2.2,0,3.9,2.2,3.9,4.8C51.7,17.8,50,19.9,47.9,19.9z"/>
	<path class="st1" d="M62.9,17.7c0,1.4-0.9,2.4-2.1,2.4h-0.6c-1.2,0-2.1-1-2.1-2.4v-6.5h-2.3v6.9c0,2.5,1.8,4.3,4.4,4.3h0.7
		c2.6,0,4.4-1.8,4.4-4.3v-6.9h-2.3V17.7z"/>
	<polygon class="st1" points="88.4,10.7 85.2,10.7 81.4,14.7 81.4,8 79.1,8 79.1,22.2 81.4,22.2 81.4,18 82.5,16.9 86.3,22.2 
		89.1,22.2 84.1,15.1 	"/>
	<path class="st1" d="M72.3,20.1h-0.6c-1.3,0-2.5-1-2.5-2.3v-2c0-1.3,1.1-2.4,2.4-2.4h0.6c1.4,0,2.5,1,2.5,2.2h2.3
		c0-2.4-2.2-4.5-4.9-4.5h-0.6c-2.6,0-4.7,2.1-4.7,4.6v2c0,2.6,2.1,4.7,4.7,4.7h0.6c2.7,0,5-2,5-4.4H75C75,19.1,73.8,20.1,72.3,20.1z
		"/>
	<path class="st1" d="M95.8,8h-5.1v14.2h5.1c3.5,0,6.2-3.2,6.2-7.1C102,11.2,99.3,8,95.8,8z M95.8,19.9h-2.7v-9.6h2.7
		c2.2,0,3.9,2.2,3.9,4.8C99.7,17.8,98,19.9,95.8,19.9z"/>
	<path class="st1" d="M15.9,0C7.1,0,0,7,0,15.6c0,8.6,7.1,15.6,15.9,15.6c8.8,0,15.9-7,15.9-15.6C31.8,7,24.7,0,15.9,0z M12.6,22.1
		C9,22.1,6,19.2,6,15.6c0-3.6,3-6.5,6.6-6.5c3.6,0,6.6,2.9,6.6,6.5C19.2,19.2,16.2,22.1,12.6,22.1z M24.4,17.9h-3.1v-4.6h3.1
		c1.3,0,2.4,1,2.4,2.3C26.8,16.9,25.7,17.9,24.4,17.9z"/>
</g>
</svg>
