<svg xmlns="http://www.w3.org/2000/svg" xmlns:xlink="http://www.w3.org/1999/xlink" id="Ebene_1" x="0" y="0" version="1.1" viewBox="0 0 100 100" style="enable-background:new 0 0 100 100" xml:space="preserve"><style type="text/css">.st0{fill:#fff100}</style><g id="Ebene_1_1_"><path d="M50,99L50,99C22.9,99,1,77.1,1,50l0,0C1,22.9,22.9,1,50,1l0,0c27.1,0,49,21.9,49,49l0,0C99,77.1,77.1,99,50,99z"/><path d="M76.2,42.7h-9.6v14.5h9.6c4,0,7.3-3.3,7.3-7.3S80.2,42.7,76.2,42.7" class="st0"/><path d="M19.5,50c0,11.2,9.1,20.3,20.3,20.3S60.1,61.2,60.1,50S51,29.7,39.8,29.7S19.5,38.8,19.5,50L19.5,50" class="st0"/></g></svg>