<?xml version="1.0" encoding="UTF-8" standalone="no"?>
<svg
   width="18.000355"
   height="17.632999"
   version="1.1"
   id="svg1"
   sodipodi:docname="github-mark.svg"
   inkscape:version="1.3 (0e150ed, 2023-07-21)"
   xmlns:inkscape="http://www.inkscape.org/namespaces/inkscape"
   xmlns:sodipodi="http://sodipodi.sourceforge.net/DTD/sodipodi-0.dtd"
   xmlns="http://www.w3.org/2000/svg"
   xmlns:svg="http://www.w3.org/2000/svg">
  <defs
     id="defs1" />
  <sodipodi:namedview
     id="namedview1"
     pagecolor="#ffffff"
     bordercolor="#000000"
     borderopacity="0.25"
     inkscape:showpageshadow="2"
     inkscape:pageopacity="0.0"
     inkscape:pagecheckerboard="0"
     inkscape:deskcolor="#d1d1d1"
     showgrid="false"
     inkscape:zoom="51.905105"
     inkscape:cx="10.297638"
     inkscape:cy="8.0435248"
     inkscape:window-width="1840"
     inkscape:window-height="1258"
     inkscape:window-x="558"
     inkscape:window-y="108"
     inkscape:window-maximized="0"
     inkscape:current-layer="svg1" />
  <path
     fill-rule="evenodd"
     clip-rule="evenodd"
     d="m 9.0113783,0.13816168 c -4.9182256,0 -8.89413265,3.92114072 -8.89413265,8.77212642 0,3.8776509 2.54750065,7.1600029 6.08155945,8.3217299 0.4418483,0.08734 0.6036956,-0.188749 0.6036956,-0.420988 0,-0.203364 -0.014564,-0.900437 -0.014564,-1.626738 -2.4741324,0.522937 -2.989349,-1.045698 -2.989349,-1.045698 -0.3976089,-1.016644 -0.9867402,-1.277935 -0.9867402,-1.277935 -0.8097822,-0.537375 0.058986,-0.537375 0.058986,-0.537375 0.8982612,0.0581 1.3696026,0.900437 1.3696026,0.900437 0.7950357,1.33604 2.0761593,0.958541 2.5915581,0.726124 0.07355,-0.566426 0.3093115,-0.958541 0.5596377,-1.176343 C 5.4183338,12.570139 3.3421744,11.814962 3.3421744,8.4454548 3.3421744,7.486914 3.6953619,6.7026859 4.255,6.0927703 4.166703,5.8749688 3.8573911,4.974354 4.343479,3.7689598 c 0,0 0.7509784,-0.2324168 2.4442754,0.9004365 a 8.5511404,8.3716354 0 0 1 2.2236241,-0.290521 c 0.7509784,0 1.5165215,0.1017718 2.2234425,0.290521 1.693479,-1.1328533 2.444458,-0.9004365 2.444458,-0.9004365 0.486088,1.2053942 0.176593,2.106009 0.08829,2.3238105 0.574384,0.6099156 0.913007,1.3941437 0.913007,2.3526845 0,3.3695072 -2.076158,4.1100682 -4.064203,4.3280472 0.324058,0.275906 0.603695,0.798666 0.603695,1.626561 0,1.176342 -0.01456,2.120447 -0.01456,2.410789 0,0.232417 0.162029,0.508501 0.603696,0.421345 3.534058,-1.162084 6.08156,-4.444258 6.08156,-8.3219089 0.01456,-4.8509857 -3.975908,-8.77212642 -8.8793875,-8.77212642 z"
     fill="#24292f"
     id="path1"
     style="stroke-width:0.180135" />
</svg>
