<?xml version="1.0" encoding="UTF-8" standalone="no"?>
<!DOCTYPE svg PUBLIC "-//W3C//DTD SVG 1.1//EN" "http://www.w3.org/Graphics/SVG/1.1/DTD/svg11.dtd">
<svg width="100%" height="100%" viewBox="0 0 900 900" version="1.1" xmlns="http://www.w3.org/2000/svg" xmlns:xlink="http://www.w3.org/1999/xlink" xml:space="preserve" xmlns:serif="http://www.serif.com/" style="fill-rule:evenodd;clip-rule:evenodd;stroke-linejoin:round;stroke-miterlimit:2;">
    <circle cx="450" cy="450" r="450"/>
    <g transform="matrix(1,0,0,1,-51,32)">
        <path d="M485.14,315.05C488.05,313.1 491.52,313.05 494.75,312.22C495.358,312.116 495.973,312.063 496.59,312.06C497.554,312.073 498.372,311.322 498.44,310.36C498.676,309.429 498.175,308.458 497.28,308.11C496.73,307.88 496.69,307.42 496.59,306.73C497.59,304.83 497.91,304.61 499.51,303.89C501.11,303.17 502.21,302.5 502.51,300.76C502.638,300.317 502.856,299.905 503.15,299.55C503.976,298.187 505.751,297.708 507.15,298.47C508.925,299.088 510.275,300.559 510.74,302.38C510.854,303.453 511.326,304.457 512.08,305.23C513.45,305.23 513.68,303.9 514.45,303.23C515.7,302.16 516.76,301.83 517.68,302.95C519.49,305.16 522.82,305.01 524.36,307.59C524.86,308.41 526.04,308.36 526.93,308.1C528.121,307.791 529.272,307.345 530.36,306.77C536.953,303.09 543.513,299.363 550.04,295.59C551.644,294.671 553.152,293.592 554.54,292.37C558.692,288.878 563.204,285.837 568,283.3C570.394,281.905 572.577,280.174 574.48,278.16C585.266,266.849 598.929,258.682 614,254.54C617.81,253.54 621.63,253.69 625.47,253.95C626.868,254.067 628.186,254.652 629.21,255.61C630.46,256.72 631.74,256.47 633.03,255.7C634.08,255.06 635.14,254.42 636.18,253.77C642.994,249.548 650.272,246.125 657.87,243.57C661.65,242.29 665.28,240.57 668.98,239.04C671.68,237.92 674.32,236.6 677.1,235.72C685.17,233.17 692.99,229.88 701.16,227.59C713.16,224.22 725.33,221.47 737.5,218.72C738.7,218.45 739.9,218.18 741.07,217.81C746.8,216 752.54,214.34 758.61,214.08C760.141,213.92 761.641,213.536 763.06,212.94C766.257,211.763 769.656,211.232 773.06,211.38C775.526,211.5 777.996,211.298 780.41,210.78C781.767,210.512 783.157,210.458 784.53,210.62C786.256,210.829 787.726,211.99 788.33,213.62C788.463,213.867 788.532,214.144 788.532,214.424C788.532,215.088 788.144,215.694 787.54,215.97C783.71,217.957 779.599,219.35 775.35,220.1C772.153,220.581 769,221.316 765.92,222.3C763.82,222.99 763.77,223.82 765.33,225.59C766.637,227.129 768.561,228.013 770.58,228C775.349,228.216 780.083,228.916 784.71,230.09C786.36,230.49 788.05,230.63 789.71,230.97C791.107,231.157 792.34,231.986 793.04,233.21C793.539,234.034 793.278,235.122 792.46,235.63C791.657,236.08 790.795,236.416 789.9,236.63C786.73,237.26 783.56,237.94 780.36,238.32C776.24,238.81 772.08,239.04 767.94,239.39C766.241,239.391 764.563,239.76 763.02,240.47C762.496,240.735 762.164,241.275 762.164,241.862C762.164,242.371 762.413,242.848 762.83,243.14C764.685,244.535 766.795,245.554 769.04,246.14C771.556,246.862 774.146,247.298 776.76,247.44C779.28,247.426 781.629,248.738 782.94,250.89C783.82,252.15 784.77,253.38 785.56,254.69C786.85,256.82 786.44,258.6 784.26,259.69C780.96,261.38 777.59,262.95 773.71,262.57C770.06,262.22 766.76,263.68 763.39,264.7C762.655,264.98 762.166,265.689 762.166,266.476C762.166,266.788 762.243,267.095 762.39,267.37C762.953,268.652 764.05,269.625 765.39,270.03C768.11,271.1 770.82,272.23 773.61,273.12C777.45,274.34 780.82,276.59 784.54,278.06C785.096,278.326 785.603,278.685 786.04,279.12C786.662,279.602 786.957,280.399 786.8,281.17C786.638,281.951 785.984,282.541 785.19,282.62C782.19,283.07 779.09,283.26 776.05,283.86C770.626,285.032 765.089,285.599 759.54,285.55C758.616,285.52 757.692,285.54 756.77,285.61C754.71,285.79 753.9,287.39 754.84,289.23C755.493,290.276 756.439,291.107 757.56,291.62C760.88,293.57 764.22,295.5 767.49,297.53C769.44,298.75 771.34,300.08 773.16,301.53C774.11,302.304 774.948,303.206 775.65,304.21C775.878,304.528 776,304.909 776,305.299C776,306.013 775.591,306.667 774.95,306.98C773.311,307.864 771.482,308.338 769.62,308.36C765.312,308.49 761.02,308.942 756.78,309.71C755.08,310.08 753.43,309.47 751.78,309.09C750.43,308.79 749.06,308.58 747.7,308.3C746.91,308.14 746.13,308.07 745.64,308.83C745.292,309.534 745.33,310.37 745.74,311.04C746.21,312.189 746.998,313.181 748.01,313.9C749.47,315.02 750.95,316.13 752.46,317.19C754.734,318.784 756.789,320.67 758.57,322.8C759.061,323.391 759.49,324.031 759.85,324.71C759.99,324.959 760.063,325.241 760.063,325.527C760.063,326.354 759.449,327.063 758.63,327.18C756.35,327.56 754.06,327.82 751.77,328.18C749.19,328.57 746.6,328.97 744.02,329.41C743.325,329.463 742.781,330.049 742.781,330.746C742.781,331.019 742.864,331.286 743.02,331.51C743.58,332.59 744.31,333.6 744.87,334.69C745.053,334.987 745.149,335.33 745.149,335.679C745.149,336.447 744.681,337.141 743.97,337.43C742.304,338.222 740.591,338.91 738.84,339.49C735.333,340.637 731.807,341.733 728.26,342.78C726.82,343.2 725.74,343.83 725.51,345.48C725.263,346.71 724.462,347.759 723.34,348.32C722.452,348.93 721.523,349.477 720.56,349.96C715.24,352.37 710.09,355.21 704.27,356.35C702.764,356.671 701.377,357.409 700.27,358.48C696.9,361.48 692.75,363.25 688.55,364.79C686.33,365.6 683.99,365.34 681.68,365.25C679.993,365.059 678.287,365.151 676.63,365.52C675.83,365.76 675.12,366.33 675.25,367.14C675.56,369 674.76,370.75 674.71,372.64C676.52,373.41 678.19,373.02 679.84,372.83C685.65,372.17 691.46,371.58 697.31,371.27C701.76,371.03 706.19,370.49 710.63,370.07C715.963,369.55 721.32,369.017 726.7,368.47C731.59,367.97 736.48,367.47 741.37,366.91C741.975,366.804 742.586,366.737 743.2,366.71C748.92,366.94 754.56,366.02 760.2,365.71C765.84,365.4 771.54,364.71 777.2,364.19C783.2,363.59 789.13,362.92 795.09,362.26C796.42,362.12 797.53,362.35 798.19,363.68C798.67,364.68 799.61,364.76 800.56,364.8L806.68,365.06C806.32,366.26 805.48,365.96 804.9,366C800.45,366.3 796.08,367.42 791.59,367.29C791.131,367.3 790.677,367.391 790.25,367.56C789.494,367.798 788.965,368.488 788.93,369.28C788.848,370.082 789.376,370.83 790.16,371.02C792.85,371.7 795.55,372.31 798.24,372.94C799.44,373.22 800.65,373.45 801.83,373.78C802.38,373.94 803.1,374.17 803.04,374.91C802.98,375.65 802.24,375.74 801.63,375.71C799.79,375.62 797.94,375.49 796.1,375.41C795.175,375.211 794.215,375.571 793.65,376.33C792.65,377.89 791.15,378.03 789.6,378.05C782.52,378.13 775.437,378.187 768.35,378.22C767.578,378.219 766.808,378.122 766.06,377.93C764.19,377.43 762.37,376.78 762,379.77C761.91,380.46 760.88,380.77 760.09,380.83C756.4,381.03 752.81,382.18 749.09,381.98C747.242,381.997 745.407,382.298 743.65,382.87C738.74,384.14 734.02,386.13 728.97,386.87C726.39,387.25 723.71,387.14 721.19,387.73C718.67,388.32 717.19,390.51 714.84,391.35C711.65,392.48 708.54,393.82 705.4,395.09C703.819,395.745 702.107,396.023 700.4,395.9C699.33,395.82 698.25,395.8 697.17,395.81C696.058,395.685 694.976,396.248 694.44,397.23C692.76,400.86 689.27,402.4 686.21,404.39C684.28,405.64 682.05,406.39 680.21,407.85C679.08,408.727 677.526,408.842 676.28,408.14C675.987,408.041 675.705,407.91 675.44,407.75C672.38,405.54 669.09,405.75 665.73,406.86C664.11,407.37 662.51,407.93 660.89,408.42C658.97,409.02 657.05,409.56 655.1,408.42C654.123,407.88 652.911,407.983 652.04,408.68C650.089,409.931 647.844,410.648 645.53,410.76C644.304,410.88 643.119,411.269 642.06,411.9C640.008,413.26 637.701,414.192 635.28,414.64C633.544,414.912 632.122,416.184 631.66,417.88C630.99,420.02 629.47,421.1 627.59,421.97C626.599,422.383 625.701,422.992 624.95,423.76C623.91,424.921 622.493,425.679 620.95,425.9C619.392,426.098 618.06,427.131 617.48,428.59C616.26,431.4 613.65,431.97 611.01,432.27C609.58,432.43 608.39,431.61 607.27,430.71C606.15,429.81 605.78,428.35 603.91,428.02C603.02,433.09 599.43,437.02 598.12,441.9C597.836,442.953 597.104,443.83 596.12,444.3C595.45,444.66 594.46,444.9 594.19,445.47C592.59,448.77 589.69,451.47 588.75,454.92C587.81,458.37 586.03,459.92 582.81,460.38C582.659,460.411 582.505,460.428 582.35,460.43C580.14,460.43 579.12,461.79 578.35,463.65C577.35,466.07 576.23,468.43 575.13,470.81C574.13,473.01 573.56,473.22 571.13,472.57C568.84,472.086 566.849,470.678 565.63,468.68C564.14,466.323 562.043,464.409 559.56,463.14C558.78,462.58 557.714,462.613 556.97,463.22C555.071,464.783 553.001,466.125 550.8,467.22C548.92,468.12 548.42,469.97 548.18,471.83C547.736,474.413 547.015,476.941 546.03,479.37C545.785,480.087 545.43,480.761 544.98,481.37C544.722,481.755 544.288,481.986 543.825,481.986C543.52,481.986 543.223,481.886 542.98,481.7C541.39,480.5 539.83,479.25 538.34,477.94C537.906,477.504 537.616,476.946 537.51,476.34C537.107,474.853 536.859,473.328 536.77,471.79C536.65,469.326 536.034,466.911 534.96,464.69C534.21,462.88 533.41,461.46 531.08,461.36C529.62,461.3 528.71,460.03 528.14,458.69C527.058,456.122 525.337,453.874 523.14,452.16C522.679,451.749 522.266,451.285 521.91,450.78C519.082,447.132 515.848,443.817 512.27,440.9C509.81,439 508.38,436.19 506.68,433.82C505.54,433.98 505.63,434.69 505.58,435.26C505.536,437.262 505.876,439.255 506.58,441.13C508.45,447.48 510.51,453.77 512.08,460.21C513.9,467.67 513.79,475.21 513.25,482.71C512.465,492.381 512.465,502.099 513.25,511.77C513.87,518.72 513.84,525.59 511.83,532.38C510.909,535.638 510.197,538.951 509.7,542.3C509.264,546 507.484,549.414 504.7,551.89C503.19,553.19 501.7,554.57 500.28,555.89C500.135,556.068 500.056,556.291 500.056,556.521C500.056,556.911 500.285,557.268 500.64,557.43C503.598,558.794 506.931,559.125 510.1,558.37C510.9,558.16 511.66,558.19 512.1,558.99C512.499,560.038 512.072,561.232 511.1,561.79C509.785,562.445 508.362,562.855 506.9,563C504.31,563.32 501.71,563.64 499.12,564C497.29,564.25 496.66,564.77 496.49,566C496.164,567.405 496.896,568.857 498.22,569.43C499.187,569.886 500.191,570.26 501.22,570.55C501.968,570.723 502.726,570.85 503.49,570.93C504.24,571.05 505.03,571.09 505.4,571.93C505.68,572.54 504.85,573.49 503.75,573.82C501.75,574.42 499.75,574.13 497.75,574.22C495.21,574.33 494.75,574.64 494.45,577.07C493.64,582.87 492.92,588.67 492.57,594.52C492.47,596.04 493.18,598.52 490.93,598.65C489.3,598.74 489.33,596.32 488.88,594.92C487.817,592.17 487.601,589.164 488.26,586.29C488.482,585.234 488.592,584.159 488.59,583.08C488.719,582.299 488.373,581.513 487.71,581.08C486.5,580.368 485.603,579.224 485.2,577.88C483.63,573.6 480.89,570.06 478.08,566.6C475.214,563.171 472.71,559.455 470.61,555.51C468.956,552.549 467.013,549.759 464.81,547.18C464.018,546.239 463.107,545.406 462.1,544.7C460.31,543.39 459.46,543.57 458.66,545.58C457.458,548.44 455.449,550.89 452.88,552.63C448.39,555.89 444.15,559.45 439.88,563.03C436.391,565.858 433.744,569.591 432.23,573.82C431.704,575.574 430.461,577.028 428.81,577.82C425.541,579.284 423.01,582.025 421.81,585.4C420.672,588.434 419.128,591.301 417.22,593.92C412.88,600.28 408.46,606.56 403,612.05C401.48,613.57 400.28,615.4 398.88,617.05C397.983,618.106 397.025,619.108 396.01,620.05C395.65,620.321 395.19,620.423 394.75,620.33C394.28,620.2 394.2,619.59 394.37,619.18C395.021,617.445 395.277,615.586 395.12,613.74C395.05,611.58 393.73,610.69 391.74,611.53C390.62,612 389.63,612.8 388.52,613.32C387.41,613.84 385.99,614.69 384.66,613.74C383.8,613.13 384.33,611.45 385.91,609.74C387.27,608.27 388.65,606.81 390.11,605.45C395.22,600.69 399.3,595.09 403.39,589.45C404.944,587.152 406.715,585.009 408.68,583.05C412.358,579.539 415.487,575.493 417.96,571.05C419.124,569.065 420.707,567.358 422.6,566.05C425.73,563.81 428.87,561.59 431.95,559.27C436.05,556.19 439.63,552.65 441.95,547.96C443.198,545.644 444.948,543.635 447.07,542.08C449,540.55 449,539.96 447.6,537.81C446.6,536.26 445.53,534.75 444.47,533.23C443.677,531.896 442.517,530.816 441.13,530.12C438.871,529.045 437.16,527.076 436.41,524.69C435.41,522.14 434.18,519.6 434.03,516.78C433.85,513.23 431.62,510.89 429.21,508.69C428.939,508.448 428.588,508.315 428.225,508.315C427.803,508.315 427.401,508.495 427.12,508.81C424.86,510.911 422.913,513.325 421.34,515.98C420.865,516.79 420.752,517.763 421.03,518.66C421.39,520.31 421.76,521.97 422.08,523.66C422.397,524.859 422.334,526.128 421.9,527.29C421.649,527.882 420.988,528.197 420.37,528.02C419.28,527.812 418.371,527.055 417.97,526.02C417.69,525.32 417.67,524.52 417.45,523.79C417.23,523.06 417.82,521.6 416.39,521.86C415.53,522.02 415.25,523.35 415.39,524.24C415.866,526.973 416.043,529.749 415.92,532.52C415.886,534.055 415.715,535.585 415.41,537.09C414.14,542.8 412.67,548.47 411.49,554.19C411.115,556.16 410.144,557.968 408.71,559.37C407.84,560.23 407.43,560.2 406.48,559.18C404.71,557.28 404.73,557.31 402.71,558.36C397.93,560.833 393.143,563.287 388.35,565.72C388.167,565.802 387.97,565.844 387.77,565.844C387.001,565.844 386.364,565.219 386.35,564.45C386.408,563.378 386.562,562.314 386.81,561.27C387.21,559.63 387.75,558.02 388.16,556.37C388.66,554.37 387.71,553.49 385.62,554.03C384.87,554.23 384.18,554.63 383.44,554.79C383.253,554.837 383.06,554.861 382.867,554.861C381.577,554.861 380.517,553.8 380.517,552.511C380.517,552.266 380.555,552.023 380.63,551.79C380.895,551.072 381.23,550.382 381.63,549.73C384.038,545.895 386.811,542.302 389.91,539C392.984,535.554 395.824,531.906 398.41,528.08C399.906,525.929 401.151,523.614 402.12,521.18C404.53,514.49 409.33,509.82 414.82,505.7C416.54,504.4 418.39,503.28 420.11,501.99C422.04,500.54 422.18,499.73 420.97,497.71C419.38,495.07 417.77,492.44 416.1,489.85C413.194,485.306 410.879,480.409 409.21,475.28C407.71,470.75 405.79,466.35 404.51,461.77C401.305,450.349 398.83,438.736 397.1,427C395.89,418.81 395.04,410.48 391.9,402.66C391.392,401.214 390.615,399.877 389.61,398.72C384.356,392.874 377.93,388.199 370.75,385C365.11,382.56 359.65,379.66 354.27,376.67C346.6,372.41 339.1,367.85 331.48,363.5C326.91,360.89 322.08,359.71 316.85,361.5C313.79,362.5 310.64,363.31 307.63,364.5C300.44,367.29 293.04,369.4 285.71,371.75C280.41,373.46 274.88,374.09 269.49,375.38C262.314,377.153 254.961,378.116 247.57,378.25C245.876,378.325 244.206,378.683 242.63,379.31C235.22,381.91 227.75,384.31 220.54,387.49C215.616,389.72 210.326,391.032 204.93,391.36C201.87,391.52 198.82,392.02 195.76,392.36C194.357,392.687 192.905,391.977 192.3,390.67C191.608,389.235 191.88,387.512 192.98,386.36C193.586,385.664 194.286,385.054 195.06,384.55C198.56,382.31 201.94,379.9 205.66,378C211.42,375 217.05,371.88 221.94,367.53C226.167,363.928 229.772,359.654 232.61,354.88C234.67,351.27 236.91,347.75 238.84,344.08C242.059,338.039 246.984,333.076 253,329.81C260.446,325.672 268.576,322.905 277,321.64C280.981,321.075 285.024,321.091 289,321.69C290.517,321.955 292.051,322.112 293.59,322.16C301.132,322.038 308.675,322.402 316.17,323.25C318.62,323.53 321.06,323.86 323.51,324.1C329.51,324.68 335.45,325.29 341.43,325.75C344.502,326.038 347.597,325.961 350.65,325.52C353.692,325.005 356.798,325.005 359.84,325.52C361.059,325.684 362.29,325.747 363.52,325.71C367.32,325.71 371.17,325.31 374.72,327.3C375.414,327.642 376.19,327.784 376.96,327.71C383.31,327.25 389.52,328.82 395.84,328.86C399.532,328.887 403.223,328.683 406.89,328.25C414.702,327.307 422.616,327.645 430.32,329.25C436.215,330.384 442.03,331.897 447.73,333.78C452.109,335.282 456.692,336.102 461.32,336.21C465.182,336.345 469.029,335.664 472.61,334.21C473.85,333.591 475.145,333.092 476.48,332.72C480.64,331.91 482.35,328.63 484.19,325.43C484.79,324.38 484.49,323.35 484.32,322.29C483.775,319.861 484.086,317.316 485.2,315.09L485.14,315.05Z" style="fill:rgb(242,242,242);fill-rule:nonzero;"/>
    </g>
</svg>
