<svg width="204" height="28" viewBox="0 0 204 28" fill="none" xmlns="http://www.w3.org/2000/svg">
<path d="M14.6513 0H0L14.9968 28L22.2681 14.3373L14.6513 0ZM14.9943 25.9604L6.65287 10.3894L11.6365 1.02372H14.1078L21.1785 14.3373L14.9943 25.9604Z" fill="black"/>
<path d="M28.3411 0.984345L21.1374 0.994843L20.4175 0H29.9354L25.1909 8.91422L24.6425 7.96663L28.3411 0.984345Z" fill="black"/>
<path d="M44.7953 6.96127C44.7084 6.77227 44.7663 6.63315 44.9403 6.63315H46.182C46.2851 6.6177 46.39 6.64208 46.4782 6.70205C46.5666 6.762 46.6327 6.85375 46.665 6.96127L49.8997 14.1667H49.9287L53.1658 6.96127C53.1973 6.85315 53.2633 6.76078 53.3518 6.70067C53.4403 6.64055 53.5456 6.61662 53.6489 6.63315H54.8906C55.0645 6.63315 55.1322 6.77227 55.0356 6.96127L50.1703 17.5896C50.1123 17.7287 50.0543 17.7759 49.9529 17.7759H49.8659C49.7645 17.7759 49.7065 17.7287 49.651 17.5896L44.7953 6.96127Z" fill="black"/>
<path d="M65.2804 6.42053C66.6515 6.45251 67.9566 7.06682 68.9159 8.1318C69.8753 9.19679 70.4124 10.6277 70.4124 12.1179C70.4124 13.6081 69.8753 15.039 68.9159 16.1041C67.9566 17.169 66.6515 17.7834 65.2804 17.8153C62.3623 17.8153 60.1084 15.3216 60.1084 12.1192C60.1084 8.91683 62.3623 6.42053 65.2804 6.42053ZM65.2804 16.1668C67.3894 16.1668 68.805 14.269 68.805 12.1192C68.805 9.96943 67.3894 8.06898 65.2804 8.06898C63.1715 8.06898 61.7705 9.95105 61.7705 12.1192C61.7705 14.2874 63.186 16.1748 65.2804 16.1748V16.1668Z" fill="black"/>
<path d="M82.9491 16.0199C83.1907 16.0199 83.239 16.0829 83.239 16.3323V17.2904C83.239 17.5529 83.181 17.6211 82.9491 17.6211H77.0258C76.8084 17.6211 76.7383 17.5424 76.7383 17.2904V6.96129C76.7383 6.71193 76.8084 6.63318 77.0258 6.63318H78.096C78.3109 6.63318 78.3834 6.71193 78.3834 6.96129V16.0199H82.9491Z" fill="black"/>
<path d="M94.7668 6.63318C95.0083 6.63318 95.0688 6.71193 95.0688 6.96129V7.96664C95.0688 8.22913 94.9963 8.29738 94.7668 8.29738H91.8486V17.2904C91.8486 17.5529 91.7906 17.6211 91.5587 17.6211H90.491C90.2736 17.6211 90.2011 17.5424 90.2011 17.2904V8.29738H87.2685C87.0534 8.29738 86.981 8.21863 86.981 7.96664V6.96129C86.981 6.71193 87.0534 6.63318 87.2685 6.63318H94.7668Z" fill="black"/>
<path d="M102.568 17.2904C102.568 17.5529 102.495 17.6211 102.28 17.6211H101.215C100.997 17.6211 100.927 17.5424 100.927 17.2904V6.96129C100.927 6.71193 100.997 6.63318 101.215 6.63318H104.986C106.677 6.63318 108.539 7.54141 108.539 10.085C108.539 12.0957 107.37 13.0827 106.039 13.3975L108.454 17.2116C108.614 17.4741 108.512 17.6211 108.237 17.6211H107.082C106.979 17.6195 106.878 17.5881 106.789 17.53C106.7 17.4718 106.627 17.3892 106.578 17.2904L104.179 13.5235H102.56L102.568 17.2904ZM104.821 11.8752C106.382 11.8752 106.872 11.0877 106.872 10.0534C106.872 9.01923 106.389 8.26588 104.821 8.26588H102.568V11.8752H104.821Z" fill="black"/>
<path d="M119.456 6.42053C120.827 6.45251 122.132 7.06682 123.092 8.1318C124.05 9.19679 124.587 10.6277 124.587 12.1179C124.587 13.6081 124.05 15.039 123.092 16.1041C122.132 17.169 120.827 17.7834 119.456 17.8153C116.538 17.8153 114.283 15.3216 114.283 12.1192C114.283 8.91683 116.538 6.42053 119.456 6.42053ZM119.456 16.1668C121.565 16.1668 122.98 14.269 122.98 12.1192C122.98 9.96943 121.565 8.06898 119.456 8.06898C117.346 8.06898 115.951 9.95892 115.951 12.1271C115.951 14.2953 117.361 16.1748 119.456 16.1748V16.1668Z" fill="black"/>
<path d="M132.587 10.4629H132.558V17.2877C132.558 17.5502 132.486 17.6184 132.27 17.6184H131.215C130.973 17.6184 130.913 17.5397 130.913 17.2877V6.63052C130.913 6.52027 130.954 6.47303 131.07 6.47303H131.143C131.19 6.47265 131.237 6.48543 131.28 6.51021C131.322 6.53499 131.358 6.57095 131.384 6.61477L137.827 13.7887H137.856V6.96388C137.856 6.71452 137.914 6.63577 138.143 6.63577H139.199C139.44 6.63577 139.504 6.71452 139.504 6.96388V17.6079C139.504 17.7313 139.46 17.7786 139.344 17.7786H139.272C139.223 17.7789 139.176 17.7665 139.134 17.7422C139.092 17.7179 139.056 17.6826 139.03 17.6394L132.587 10.4629Z" fill="black"/>
<path d="M157.536 6.63318C160.455 6.63318 162.636 8.92472 162.636 12.1272C162.636 15.3295 160.462 17.6211 157.536 17.6211H153.914C153.696 17.6211 153.626 17.5424 153.626 17.2904V6.96129C153.626 6.71193 153.696 6.63318 153.914 6.63318H157.536ZM155.283 8.26588V15.9884H157.536C159.631 15.9884 160.974 14.277 160.974 12.1272C160.974 9.97732 159.631 8.258 157.536 8.258L155.283 8.26588Z" fill="black"/>
<path d="M177.949 17.2904C178.036 17.4794 177.978 17.6211 177.805 17.6211H176.563C176.46 17.6338 176.356 17.608 176.268 17.548C176.18 17.4878 176.115 17.397 176.08 17.2904L175.155 15.2193H170.502L169.579 17.2904C169.549 17.3996 169.483 17.4932 169.394 17.554C169.306 17.6148 169.2 17.6386 169.096 17.6211H167.855C167.681 17.6211 167.613 17.4794 167.71 17.2904L172.563 6.6647C172.621 6.52295 172.679 6.47571 172.78 6.47571H172.867C172.969 6.47571 173.027 6.52295 173.085 6.6647L177.949 17.2904ZM172.836 9.88022L171.162 13.5709H174.513L172.851 9.88022H172.836Z" fill="black"/>
<path d="M189.578 6.63318C189.82 6.63318 189.883 6.71193 189.883 6.96129V7.96664C189.883 8.22913 189.81 8.29738 189.578 8.29738H186.661V17.2904C186.661 17.5529 186.603 17.6211 186.373 17.6211H185.303C185.088 17.6211 185.015 17.5424 185.015 17.2904V8.29738H182.083C181.865 8.29738 181.793 8.21863 181.793 7.96664V6.96129C181.793 6.71193 181.865 6.63318 182.083 6.63318H189.578Z" fill="black"/>
<path d="M203.955 17.2904C204.042 17.4794 203.984 17.6211 203.81 17.6211H202.568C202.465 17.6334 202.362 17.6073 202.274 17.5474C202.186 17.4873 202.119 17.3966 202.085 17.2904L201.162 15.2193H196.514L195.589 17.2904C195.56 17.4001 195.494 17.4945 195.405 17.5554C195.316 17.6164 195.21 17.6398 195.106 17.6211H193.864C193.691 17.6211 193.623 17.4794 193.72 17.2904L198.573 6.6647C198.631 6.52295 198.689 6.47571 198.789 6.47571H198.876C198.978 6.47571 199.036 6.52295 199.092 6.6647L203.955 17.2904ZM198.841 9.88022L197.164 13.5709H200.515L198.855 9.88022H198.841Z" fill="black"/>
</svg>
