<svg width="750" height="311" viewBox="0 0 750 311" fill="none" xmlns="http://www.w3.org/2000/svg">
<path d="M10 0.5H458C463.247 0.5 467.5 4.7533 467.5 10V301C467.5 306.247 463.247 310.5 458 310.5H10C4.7533 310.5 0.5 306.247 0.5 301V10C0.5 4.7533 4.75329 0.5 10 0.5Z" fill="#0D0D0D"/>
<path d="M10 0.5H458C463.247 0.5 467.5 4.7533 467.5 10V301C467.5 306.247 463.247 310.5 458 310.5H10C4.7533 310.5 0.5 306.247 0.5 301V10C0.5 4.7533 4.75329 0.5 10 0.5Z" fill="#1A1A1A"/>
<path d="M10 0.5H458C463.247 0.5 467.5 4.7533 467.5 10V301C467.5 306.247 463.247 310.5 458 310.5H10C4.7533 310.5 0.5 306.247 0.5 301V10C0.5 4.7533 4.75329 0.5 10 0.5Z" stroke="#4C4C4C"/>
<rect x="20.5" y="79.5" width="122" height="58" rx="9.5" fill="#333333"/>
<rect x="20.5" y="79.5" width="122" height="58" rx="9.5" stroke="#4C4C4C"/>
<path d="M37.5624 108.56L41.3784 104.3H43.0344L39.7944 107.852L43.3704 113H41.7504L38.8824 108.848L37.5624 110.3V113H36.1944V104.3H37.5624V108.56ZM43.6708 111.26C43.6708 109.688 45.5188 109.268 48.0268 109.004V108.872C48.0268 107.732 47.4268 107.348 46.6348 107.348C45.7708 107.348 45.2788 107.792 45.2308 108.584H43.9708C44.0788 107.216 45.2068 106.388 46.6828 106.388C48.3508 106.388 49.3108 107.192 49.2868 109.124C49.2868 109.28 49.2628 110.396 49.2628 110.672C49.2628 111.632 49.3228 112.424 49.4428 113H48.2428C48.1948 112.748 48.1588 112.556 48.1348 112.148C47.7508 112.796 47.0188 113.156 45.9748 113.156C44.6668 113.156 43.6708 112.436 43.6708 111.26ZM48.0868 109.928C46.0828 110.12 45.0268 110.396 45.0268 111.236C45.0268 111.824 45.4948 112.196 46.2508 112.196C47.2828 112.196 48.0868 111.68 48.0868 110.396V109.928ZM51.0563 106.112C51.0563 104.684 51.4763 104.3 52.9883 104.3H53.5523V105.296H53.0723C52.4363 105.296 52.3043 105.428 52.3043 106.1V106.544H53.5523V107.492H52.3043V113H51.0563V107.492H50.1563V106.544H51.0563V106.112ZM55.8966 104.3V109.304L58.4646 106.544H59.9886L57.4806 109.208L60.1686 113H58.6806L56.6286 110.108L55.8966 110.888V113H54.6486V104.3H55.8966ZM60.3935 111.26C60.3935 109.688 62.2415 109.268 64.7495 109.004V108.872C64.7495 107.732 64.1495 107.348 63.3575 107.348C62.4935 107.348 62.0015 107.792 61.9535 108.584H60.6935C60.8015 107.216 61.9295 106.388 63.4055 106.388C65.0735 106.388 66.0335 107.192 66.0095 109.124C66.0095 109.28 65.9855 110.396 65.9855 110.672C65.9855 111.632 66.0455 112.424 66.1655 113H64.9655C64.9175 112.748 64.8815 112.556 64.8575 112.148C64.4735 112.796 63.7415 113.156 62.6975 113.156C61.3895 113.156 60.3935 112.436 60.3935 111.26ZM64.8095 109.928C62.8055 110.12 61.7495 110.396 61.7495 111.236C61.7495 111.824 62.2175 112.196 62.9735 112.196C64.0055 112.196 64.8095 111.68 64.8095 110.396V109.928ZM77.8394 110.168C77.4674 112.1 76.0154 113.156 74.0834 113.156C71.5634 113.156 70.0994 111.308 70.0994 108.632C70.0994 105.908 71.6714 104.144 74.1674 104.144C76.0274 104.144 77.4434 105.224 77.8034 107.132H76.4834C76.2194 106.004 75.3794 105.284 74.1074 105.284C72.6434 105.284 71.5034 106.448 71.5034 108.632C71.5034 110.78 72.6074 112.016 74.1194 112.016C75.4034 112.016 76.2554 111.32 76.5194 110.168H77.8394ZM84.9731 109.796C84.9731 112.124 83.3651 113.156 81.8291 113.156C80.3051 113.156 78.6971 112.124 78.6971 109.796C78.6971 107.456 80.3051 106.424 81.8291 106.424C83.3651 106.424 84.9731 107.456 84.9731 109.796ZM81.8291 112.1C82.7771 112.1 83.6531 111.368 83.6531 109.796C83.6531 108.188 82.7771 107.48 81.8291 107.48C80.8931 107.48 80.0171 108.164 80.0171 109.796C80.0171 111.392 80.8931 112.1 81.8291 112.1ZM87.4669 107.48C87.8389 106.844 88.4869 106.424 89.4949 106.424C91.0549 106.424 91.6549 107.432 91.6549 108.932V113H90.4069V109.268C90.4069 108.332 90.2509 107.468 89.0749 107.468C87.9949 107.468 87.4669 108.248 87.4669 109.532V113H86.2189V106.544H87.4669V107.48ZM96.887 108.344C96.707 107.684 96.155 107.42 95.423 107.42C94.811 107.42 94.151 107.672 94.151 108.2C94.151 108.68 94.463 108.884 95.051 109.004L95.975 109.184C97.199 109.424 98.267 109.844 98.267 111.104C98.267 112.412 97.043 113.156 95.555 113.156C93.923 113.156 92.927 112.208 92.771 110.996H94.043C94.211 111.728 94.691 112.16 95.591 112.16C96.395 112.16 97.019 111.824 97.019 111.248C97.019 110.648 96.455 110.408 95.783 110.276L94.811 110.084C93.839 109.892 92.927 109.46 92.927 108.248C92.927 107.108 94.127 106.412 95.543 106.412C96.839 106.412 97.883 107.096 98.123 108.344H96.887ZM103.504 112.088C103.132 112.736 102.508 113.156 101.536 113.156C100.012 113.156 99.4237 112.208 99.4237 110.648V106.544H100.672V110.312C100.672 111.248 100.828 112.1 101.956 112.1C103 112.1 103.516 111.32 103.516 110.048V106.544H104.764V113H103.504V112.088ZM107.682 113H106.434V106.544H107.682V107.48C108.054 106.844 108.666 106.424 109.59 106.424C110.586 106.424 111.174 106.844 111.462 107.564C112.002 106.76 112.758 106.424 113.598 106.424C115.11 106.424 115.698 107.432 115.698 108.932V113H114.45V109.268C114.45 108.332 114.306 107.468 113.178 107.468C112.194 107.468 111.69 108.248 111.69 109.532V113H110.442V109.268C110.442 108.332 110.298 107.468 109.17 107.468C108.174 107.468 107.682 108.248 107.682 109.532V113ZM121.69 111.104H122.95C122.65 112.172 121.69 113.156 120.046 113.156C117.958 113.156 116.83 111.632 116.83 109.76C116.83 107.756 118.174 106.424 120.01 106.424C122.002 106.424 123.166 108.056 123.034 110.156H118.114C118.234 111.344 118.99 112.088 119.998 112.088C120.898 112.088 121.426 111.716 121.69 111.104ZM118.138 109.172H121.738C121.702 108.212 121.03 107.444 119.998 107.444C119.026 107.444 118.306 107.948 118.138 109.172ZM127.618 107.828C127.39 107.804 127.174 107.792 126.97 107.792C126.01 107.792 125.506 108.26 125.506 109.616V113H124.258V106.544H125.482V107.684C125.818 106.952 126.466 106.532 127.27 106.52C127.378 106.52 127.51 106.52 127.618 106.532V107.828Z" fill="#B2B2B2"/>
<path d="M160.017 122H158.877V114.75H160.017V122ZM162.561 117.4C162.871 116.87 163.411 116.52 164.251 116.52C165.551 116.52 166.051 117.36 166.051 118.61V122H165.011V118.89C165.011 118.11 164.881 117.39 163.901 117.39C163.001 117.39 162.561 118.04 162.561 119.11V122H161.521V116.62H162.561V117.4ZM170.411 118.12C170.261 117.57 169.801 117.35 169.191 117.35C168.681 117.35 168.131 117.56 168.131 118C168.131 118.4 168.391 118.57 168.881 118.67L169.651 118.82C170.671 119.02 171.561 119.37 171.561 120.42C171.561 121.51 170.541 122.13 169.301 122.13C167.941 122.13 167.111 121.34 166.981 120.33H168.041C168.181 120.94 168.581 121.3 169.331 121.3C170.001 121.3 170.521 121.02 170.521 120.54C170.521 120.04 170.051 119.84 169.491 119.73L168.681 119.57C167.871 119.41 167.111 119.05 167.111 118.04C167.111 117.09 168.111 116.51 169.291 116.51C170.371 116.51 171.241 117.08 171.441 118.12H170.411ZM176.285 120.42H177.335C177.085 121.31 176.285 122.13 174.915 122.13C173.175 122.13 172.235 120.86 172.235 119.3C172.235 117.63 173.355 116.52 174.885 116.52C176.545 116.52 177.515 117.88 177.405 119.63H173.305C173.405 120.62 174.035 121.24 174.875 121.24C175.625 121.24 176.065 120.93 176.285 120.42ZM173.325 118.81H176.325C176.295 118.01 175.735 117.37 174.875 117.37C174.065 117.37 173.465 117.79 173.325 118.81ZM181.226 117.69C181.036 117.67 180.856 117.66 180.686 117.66C179.886 117.66 179.466 118.05 179.466 119.18V122H178.426V116.62H179.446V117.57C179.726 116.96 180.266 116.61 180.936 116.6C181.026 116.6 181.136 116.6 181.226 116.61V117.69ZM182.259 115.24H183.299V116.62H184.359V117.41H183.299V120.48C183.299 121.03 183.389 121.17 183.909 121.17H184.349V122H183.589C182.499 122 182.259 121.73 182.259 120.62V117.41H181.439V116.62H182.259V115.24ZM188.429 118.12C188.279 117.57 187.819 117.35 187.209 117.35C186.699 117.35 186.149 117.56 186.149 118C186.149 118.4 186.409 118.57 186.899 118.67L187.669 118.82C188.689 119.02 189.579 119.37 189.579 120.42C189.579 121.51 188.559 122.13 187.319 122.13C185.959 122.13 185.129 121.34 184.999 120.33H186.059C186.199 120.94 186.599 121.3 187.349 121.3C188.019 121.3 188.539 121.02 188.539 120.54C188.539 120.04 188.069 119.84 187.509 119.73L186.699 119.57C185.889 119.41 185.129 119.05 185.129 118.04C185.129 117.09 186.129 116.51 187.309 116.51C188.389 116.51 189.259 117.08 189.459 118.12H188.429Z" fill="#808080"/>
<path d="M215 20.5H438C443.247 20.5 447.5 24.7533 447.5 30V148C447.5 153.247 443.247 157.5 438 157.5H215C209.753 157.5 205.5 153.247 205.5 148V30C205.5 24.7533 209.753 20.5 215 20.5Z" fill="#262626"/>
<path d="M215 20.5H438C443.247 20.5 447.5 24.7533 447.5 30V148C447.5 153.247 443.247 157.5 438 157.5H215C209.753 157.5 205.5 153.247 205.5 148V30C205.5 24.7533 209.753 20.5 215 20.5Z" stroke="#4C4C4C"/>
<path d="M304.59 49.192C304.59 45.72 302.526 45.192 300.414 45.192H299.358V53.208H300.414C302.526 53.208 304.59 52.696 304.59 49.192ZM297.07 43.4H300.51C304.19 43.4 306.958 44.584 306.958 49.192C306.958 53.8 304.19 55 300.51 55H297.07V43.4ZM313.647 55V53.864C313.151 54.744 312.207 55.208 311.135 55.208C309.071 55.208 308.239 53.944 308.239 51.832V46.392H310.447V51.352C310.447 52.504 310.623 53.432 311.855 53.432C313.327 53.432 313.647 52.232 313.647 50.872V46.392H315.855V55H313.647ZM321.611 46.2C323.419 46.2 325.211 47.208 325.515 49.336H323.403C323.227 48.504 322.459 47.912 321.611 47.912C320.459 47.912 319.547 48.888 319.547 50.68C319.547 52.488 320.411 53.496 321.627 53.496C322.395 53.496 323.179 53.096 323.483 52.072H325.595C325.083 54.424 323.307 55.208 321.515 55.208C318.939 55.208 317.291 53.32 317.291 50.712C317.291 48.088 319.035 46.2 321.611 46.2ZM326.93 43.4H329.138V49.848L332.274 46.392H334.754L331.666 49.688L334.93 55H332.45L330.194 51.272L329.138 52.408V55H326.93V43.4ZM343.389 49.192C343.389 45.72 341.325 45.192 339.213 45.192H338.157V53.208H339.213C341.325 53.208 343.389 52.696 343.389 49.192ZM335.869 43.4H339.309C342.989 43.4 345.757 44.584 345.757 49.192C345.757 53.8 342.989 55 339.309 55H335.869V43.4ZM347.385 55V43.4H351.897C353.929 43.4 356.121 44.04 356.121 46.424C356.121 47.512 355.401 48.488 354.809 48.872C355.705 49.304 356.537 49.976 356.537 51.576C356.537 54.072 354.473 55 352.089 55H347.385ZM349.673 49.912V53.208H352.201C353.545 53.208 354.201 52.648 354.201 51.576C354.201 50.488 353.529 49.912 352.105 49.912H349.673ZM349.673 45.192V48.184H352.041C353.129 48.184 353.769 47.672 353.769 46.648C353.769 45.736 353.113 45.192 352.041 45.192H349.673Z" fill="#F2F2F2"/>
<rect x="225.5" y="79.5" width="91" height="58" rx="9.5" fill="#333333"/>
<rect x="225.5" y="79.5" width="91" height="58" rx="9.5" stroke="#4C4C4C"/>
<path d="M244.561 107.828C244.333 107.804 244.117 107.792 243.913 107.792C242.953 107.792 242.449 108.26 242.449 109.616V113H241.201V106.544H242.425V107.684C242.761 106.952 243.409 106.532 244.213 106.52C244.321 106.52 244.453 106.52 244.561 106.532V107.828ZM244.931 111.26C244.931 109.688 246.779 109.268 249.287 109.004V108.872C249.287 107.732 248.687 107.348 247.895 107.348C247.031 107.348 246.539 107.792 246.491 108.584H245.231C245.339 107.216 246.467 106.388 247.943 106.388C249.611 106.388 250.571 107.192 250.547 109.124C250.547 109.28 250.523 110.396 250.523 110.672C250.523 111.632 250.583 112.424 250.703 113H249.503C249.455 112.748 249.419 112.556 249.395 112.148C249.011 112.796 248.279 113.156 247.235 113.156C245.927 113.156 244.931 112.436 244.931 111.26ZM249.347 109.928C247.343 110.12 246.287 110.396 246.287 111.236C246.287 111.824 246.755 112.196 247.511 112.196C248.543 112.196 249.347 111.68 249.347 110.396V109.928ZM254.956 106.544H256.252L257.452 111.224L258.556 106.544H259.912L258.112 113H256.948L255.592 108.008L254.272 113H253.096L251.308 106.544H252.664L253.756 111.224L254.956 106.544ZM259.6 114.152V113H264.508V114.152H259.6ZM269.887 111.104H271.147C270.847 112.172 269.887 113.156 268.243 113.156C266.155 113.156 265.027 111.632 265.027 109.76C265.027 107.756 266.371 106.424 268.207 106.424C270.199 106.424 271.363 108.056 271.231 110.156H266.311C266.431 111.344 267.187 112.088 268.195 112.088C269.095 112.088 269.623 111.716 269.887 111.104ZM266.335 109.172H269.935C269.899 108.212 269.227 107.444 268.195 107.444C267.223 107.444 266.503 107.948 266.335 109.172ZM274.569 111.332L276.189 106.544H277.485L275.097 113H273.957L271.557 106.544H272.937L274.569 111.332ZM282.625 111.104H283.885C283.585 112.172 282.625 113.156 280.981 113.156C278.893 113.156 277.765 111.632 277.765 109.76C277.765 107.756 279.109 106.424 280.945 106.424C282.937 106.424 284.101 108.056 283.969 110.156H279.049C279.169 111.344 279.925 112.088 280.933 112.088C281.833 112.088 282.361 111.716 282.625 111.104ZM279.073 109.172H282.673C282.637 108.212 281.965 107.444 280.933 107.444C279.961 107.444 279.241 107.948 279.073 109.172ZM286.442 107.48C286.814 106.844 287.462 106.424 288.47 106.424C290.03 106.424 290.63 107.432 290.63 108.932V113H289.382V109.268C289.382 108.332 289.226 107.468 288.05 107.468C286.97 107.468 286.442 108.248 286.442 109.532V113H285.194V106.544H286.442V107.48ZM292.442 104.888H293.69V106.544H294.962V107.492H293.69V111.176C293.69 111.836 293.798 112.004 294.422 112.004H294.95V113H294.038C292.73 113 292.442 112.676 292.442 111.344V107.492H291.458V106.544H292.442V104.888ZM299.846 108.344C299.666 107.684 299.114 107.42 298.382 107.42C297.77 107.42 297.11 107.672 297.11 108.2C297.11 108.68 297.422 108.884 298.01 109.004L298.934 109.184C300.158 109.424 301.226 109.844 301.226 111.104C301.226 112.412 300.002 113.156 298.514 113.156C296.882 113.156 295.886 112.208 295.73 110.996H297.002C297.17 111.728 297.65 112.16 298.55 112.16C299.354 112.16 299.978 111.824 299.978 111.248C299.978 110.648 299.414 110.408 298.742 110.276L297.77 110.084C296.798 109.892 295.886 109.46 295.886 108.248C295.886 107.108 297.086 106.412 298.502 106.412C299.798 106.412 300.842 107.096 301.082 108.344H299.846Z" fill="#B2B2B2"/>
<rect x="337.5" y="79.5" width="90" height="58" rx="9.5" fill="#333333"/>
<rect x="337.5" y="79.5" width="90" height="58" rx="9.5" stroke="#4C4C4C"/>
<path d="M357.09 112.088C356.718 112.736 356.094 113.156 355.122 113.156C353.598 113.156 353.01 112.208 353.01 110.648V106.544H354.258V110.312C354.258 111.248 354.414 112.1 355.542 112.1C356.586 112.1 357.102 111.32 357.102 110.048V106.544H358.35V113H357.09V112.088ZM363.692 108.344C363.512 107.684 362.96 107.42 362.228 107.42C361.616 107.42 360.956 107.672 360.956 108.2C360.956 108.68 361.268 108.884 361.856 109.004L362.78 109.184C364.004 109.424 365.072 109.844 365.072 111.104C365.072 112.412 363.848 113.156 362.36 113.156C360.728 113.156 359.732 112.208 359.576 110.996H360.848C361.016 111.728 361.496 112.16 362.396 112.16C363.2 112.16 363.824 111.824 363.824 111.248C363.824 110.648 363.26 110.408 362.588 110.276L361.616 110.084C360.644 109.892 359.732 109.46 359.732 108.248C359.732 107.108 360.932 106.412 362.348 106.412C363.644 106.412 364.688 107.096 364.928 108.344H363.692ZM370.74 111.104H372C371.7 112.172 370.74 113.156 369.096 113.156C367.008 113.156 365.88 111.632 365.88 109.76C365.88 107.756 367.224 106.424 369.06 106.424C371.052 106.424 372.216 108.056 372.084 110.156H367.164C367.284 111.344 368.04 112.088 369.048 112.088C369.948 112.088 370.476 111.716 370.74 111.104ZM367.188 109.172H370.788C370.752 108.212 370.08 107.444 369.048 107.444C368.076 107.444 367.356 107.948 367.188 109.172ZM376.669 107.828C376.441 107.804 376.225 107.792 376.021 107.792C375.061 107.792 374.557 108.26 374.557 109.616V113H373.309V106.544H374.533V107.684C374.869 106.952 375.517 106.532 376.321 106.52C376.429 106.52 376.561 106.52 376.669 106.532V107.828ZM375.969 114.152V113H380.877V114.152H375.969ZM387.312 108.728H386.064C385.932 107.996 385.272 107.492 384.456 107.492C383.556 107.492 382.728 108.2 382.728 109.772C382.728 111.368 383.568 112.088 384.456 112.088C385.248 112.088 385.944 111.62 386.112 110.852H387.372C387.12 112.208 385.86 113.156 384.432 113.156C382.572 113.156 381.396 111.728 381.396 109.784C381.396 107.864 382.608 106.424 384.516 106.424C385.992 106.424 387.12 107.468 387.312 108.728ZM389.791 113H388.543V104.3H389.791V113ZM392.721 104.3V105.68H391.473V104.3H392.721ZM392.721 106.544V113H391.473V106.544H392.721ZM399.875 108.728H398.627C398.495 107.996 397.835 107.492 397.019 107.492C396.119 107.492 395.291 108.2 395.291 109.772C395.291 111.368 396.131 112.088 397.019 112.088C397.811 112.088 398.507 111.62 398.675 110.852H399.935C399.683 112.208 398.423 113.156 396.995 113.156C395.135 113.156 393.958 111.728 393.958 109.784C393.958 107.864 395.171 106.424 397.079 106.424C398.555 106.424 399.683 107.468 399.875 108.728ZM402.354 104.3V109.304L404.922 106.544H406.446L403.938 109.208L406.626 113H405.138L403.086 110.108L402.354 110.888V113H401.106V104.3H402.354ZM410.942 108.344C410.762 107.684 410.21 107.42 409.478 107.42C408.866 107.42 408.206 107.672 408.206 108.2C408.206 108.68 408.518 108.884 409.106 109.004L410.03 109.184C411.254 109.424 412.322 109.844 412.322 111.104C412.322 112.412 411.098 113.156 409.61 113.156C407.978 113.156 406.982 112.208 406.826 110.996H408.098C408.266 111.728 408.746 112.16 409.646 112.16C410.45 112.16 411.074 111.824 411.074 111.248C411.074 110.648 410.51 110.408 409.838 110.276L408.866 110.084C407.894 109.892 406.982 109.46 406.982 108.248C406.982 107.108 408.182 106.412 409.598 106.412C410.894 106.412 411.938 107.096 412.178 108.344H410.942Z" fill="#B2B2B2"/>
<rect x="297.5" y="233.5" width="118" height="58" rx="9.5" fill="#333333"/>
<rect x="297.5" y="233.5" width="118" height="58" rx="9.5" stroke="#4C4C4C"/>
<path d="M315.357 258.3C318.117 258.3 320.157 259.296 320.157 262.644C320.157 266.004 318.117 267 315.357 267H312.981V258.3H315.357ZM315.297 259.428H314.349V265.872H315.297C317.037 265.872 318.741 265.512 318.741 262.644C318.741 259.788 317.037 259.428 315.297 259.428ZM326.031 265.104H327.291C326.991 266.172 326.031 267.156 324.387 267.156C322.299 267.156 321.171 265.632 321.171 263.76C321.171 261.756 322.515 260.424 324.351 260.424C326.343 260.424 327.507 262.056 327.375 264.156H322.455C322.575 265.344 323.331 266.088 324.339 266.088C325.239 266.088 325.767 265.716 326.031 265.104ZM322.479 263.172H326.079C326.043 262.212 325.371 261.444 324.339 261.444C323.367 261.444 322.647 261.948 322.479 263.172ZM329.848 267H328.6V258.3H329.848V267ZM331.781 258.888H333.029V260.544H334.301V261.492H333.029V265.176C333.029 265.836 333.137 266.004 333.761 266.004H334.289V267H333.377C332.069 267 331.781 266.676 331.781 265.344V261.492H330.797V260.544H331.781V258.888ZM335.13 265.26C335.13 263.688 336.978 263.268 339.486 263.004V262.872C339.486 261.732 338.886 261.348 338.094 261.348C337.23 261.348 336.738 261.792 336.69 262.584H335.43C335.538 261.216 336.666 260.388 338.142 260.388C339.81 260.388 340.77 261.192 340.746 263.124C340.746 263.28 340.722 264.396 340.722 264.672C340.722 265.632 340.782 266.424 340.902 267H339.702C339.654 266.748 339.618 266.556 339.594 266.148C339.21 266.796 338.478 267.156 337.434 267.156C336.126 267.156 335.13 266.436 335.13 265.26ZM339.546 263.928C337.542 264.12 336.486 264.396 336.486 265.236C336.486 265.824 336.954 266.196 337.71 266.196C338.742 266.196 339.546 265.68 339.546 264.396V263.928ZM348.016 258.3C350.032 258.3 351.664 258.696 351.664 260.976C351.664 263.16 350.116 263.628 348.016 263.628H346.588V267H345.22V258.3H348.016ZM346.588 259.428V262.476H348.1C349.312 262.476 350.248 262.332 350.248 260.988C350.248 259.572 349.24 259.428 348.064 259.428H346.588ZM355.948 261.828C355.72 261.804 355.504 261.792 355.3 261.792C354.34 261.792 353.836 262.26 353.836 263.616V267H352.588V260.544H353.812V261.684C354.148 260.952 354.796 260.532 355.6 260.52C355.708 260.52 355.84 260.52 355.948 260.532V261.828ZM362.663 263.796C362.663 266.124 361.055 267.156 359.519 267.156C357.995 267.156 356.387 266.124 356.387 263.796C356.387 261.456 357.995 260.424 359.519 260.424C361.055 260.424 362.663 261.456 362.663 263.796ZM359.519 266.1C360.467 266.1 361.343 265.368 361.343 263.796C361.343 262.188 360.467 261.48 359.519 261.48C358.583 261.48 357.707 262.164 357.707 263.796C357.707 265.392 358.583 266.1 359.519 266.1ZM369.474 262.728H368.226C368.094 261.996 367.434 261.492 366.618 261.492C365.718 261.492 364.89 262.2 364.89 263.772C364.89 265.368 365.73 266.088 366.618 266.088C367.41 266.088 368.106 265.62 368.274 264.852H369.534C369.282 266.208 368.022 267.156 366.594 267.156C364.734 267.156 363.558 265.728 363.558 263.784C363.558 261.864 364.77 260.424 366.678 260.424C368.154 260.424 369.282 261.468 369.474 262.728ZM375.18 265.104H376.44C376.14 266.172 375.18 267.156 373.536 267.156C371.448 267.156 370.32 265.632 370.32 263.76C370.32 261.756 371.664 260.424 373.5 260.424C375.492 260.424 376.656 262.056 376.524 264.156H371.604C371.724 265.344 372.48 266.088 373.488 266.088C374.388 266.088 374.916 265.716 375.18 265.104ZM371.628 263.172H375.228C375.192 262.212 374.52 261.444 373.488 261.444C372.516 261.444 371.796 261.948 371.628 263.172ZM381.444 262.344C381.264 261.684 380.712 261.42 379.98 261.42C379.368 261.42 378.708 261.672 378.708 262.2C378.708 262.68 379.02 262.884 379.608 263.004L380.532 263.184C381.756 263.424 382.824 263.844 382.824 265.104C382.824 266.412 381.6 267.156 380.112 267.156C378.48 267.156 377.484 266.208 377.328 264.996H378.6C378.768 265.728 379.248 266.16 380.148 266.16C380.952 266.16 381.576 265.824 381.576 265.248C381.576 264.648 381.012 264.408 380.34 264.276L379.368 264.084C378.396 263.892 377.484 263.46 377.484 262.248C377.484 261.108 378.684 260.412 380.1 260.412C381.396 260.412 382.44 261.096 382.68 262.344H381.444ZM387.748 262.344C387.568 261.684 387.016 261.42 386.284 261.42C385.672 261.42 385.012 261.672 385.012 262.2C385.012 262.68 385.324 262.884 385.912 263.004L386.836 263.184C388.06 263.424 389.128 263.844 389.128 265.104C389.128 266.412 387.904 267.156 386.416 267.156C384.784 267.156 383.788 266.208 383.632 264.996H384.904C385.072 265.728 385.552 266.16 386.452 266.16C387.256 266.16 387.88 265.824 387.88 265.248C387.88 264.648 387.316 264.408 386.644 264.276L385.672 264.084C384.7 263.892 383.788 263.46 383.788 262.248C383.788 261.108 384.988 260.412 386.404 260.412C387.7 260.412 388.744 261.096 388.984 262.344H387.748ZM396.225 263.796C396.225 266.124 394.617 267.156 393.081 267.156C391.557 267.156 389.949 266.124 389.949 263.796C389.949 261.456 391.557 260.424 393.081 260.424C394.617 260.424 396.225 261.456 396.225 263.796ZM393.081 266.1C394.029 266.1 394.905 265.368 394.905 263.796C394.905 262.188 394.029 261.48 393.081 261.48C392.145 261.48 391.269 262.164 391.269 263.796C391.269 265.392 392.145 266.1 393.081 266.1ZM400.831 261.828C400.603 261.804 400.387 261.792 400.183 261.792C399.223 261.792 398.719 262.26 398.719 263.616V267H397.471V260.544H398.695V261.684C399.031 260.952 399.679 260.532 400.483 260.52C400.591 260.52 400.723 260.52 400.831 260.532V261.828Z" fill="#B2B2B2"/>
<path d="M297.854 261.854C298.049 261.658 298.049 261.342 297.854 261.146L294.672 257.964C294.476 257.769 294.16 257.769 293.964 257.964C293.769 258.16 293.769 258.476 293.964 258.672L296.793 261.5L293.964 264.328C293.769 264.524 293.769 264.84 293.964 265.036C294.16 265.231 294.476 265.231 294.672 265.036L297.854 261.854ZM262 138H261.5V251.5H262H262.5V138H262ZM272 261.5V262H297.5V261.5V261H272V261.5ZM262 251.5H261.5C261.5 257.299 266.201 262 272 262V261.5V261C266.753 261 262.5 256.747 262.5 251.5H262Z" fill="#666666"/>
<path d="M376.275 138.148C376.08 137.953 375.763 137.953 375.568 138.148L372.386 141.33C372.19 141.525 372.19 141.842 372.386 142.037C372.581 142.233 372.898 142.233 373.093 142.037L375.921 139.209L378.75 142.037C378.945 142.233 379.261 142.233 379.457 142.037C379.652 141.842 379.652 141.526 379.457 141.33L376.275 138.148ZM375.921 233L376.421 233L376.421 138.502L375.921 138.502L375.421 138.502L375.421 233L375.921 233Z" fill="#666666"/>
<rect x="229" y="179" width="66" height="14" fill="#1A1A1A"/>
<rect x="229" y="179" width="66" height="14" fill="#1A1A1A"/>
<path d="M236.318 184.94C236.168 184.95 236.008 184.95 235.848 184.95H234.598V188H233.458V180.75H235.758C237.708 180.75 238.878 181.16 238.878 182.84C238.878 183.88 238.378 184.47 237.478 184.75L239.148 188H237.868L236.318 184.94ZM234.598 181.69V184.02H235.908C236.978 184.02 237.708 183.86 237.708 182.86C237.708 181.82 236.918 181.69 235.888 181.69H234.598ZM243.737 186.42H244.787C244.537 187.31 243.737 188.13 242.367 188.13C240.627 188.13 239.687 186.86 239.687 185.3C239.687 183.63 240.807 182.52 242.337 182.52C243.997 182.52 244.967 183.88 244.857 185.63H240.757C240.857 186.62 241.487 187.24 242.327 187.24C243.077 187.24 243.517 186.93 243.737 186.42ZM240.777 184.81H243.777C243.747 184.01 243.187 183.37 242.327 183.37C241.517 183.37 240.917 183.79 240.777 184.81ZM245.509 186.55C245.509 185.24 247.049 184.89 249.139 184.67V184.56C249.139 183.61 248.639 183.29 247.979 183.29C247.259 183.29 246.849 183.66 246.809 184.32H245.759C245.849 183.18 246.789 182.49 248.019 182.49C249.409 182.49 250.209 183.16 250.189 184.77C250.189 184.9 250.169 185.83 250.169 186.06C250.169 186.86 250.219 187.52 250.319 188H249.319C249.279 187.79 249.249 187.63 249.229 187.29C248.909 187.83 248.299 188.13 247.429 188.13C246.339 188.13 245.509 187.53 245.509 186.55ZM249.189 185.44C247.519 185.6 246.639 185.83 246.639 186.53C246.639 187.02 247.029 187.33 247.659 187.33C248.519 187.33 249.189 186.9 249.189 185.83V185.44ZM255.103 180.75H256.143V188H255.103V187.24C254.773 187.79 254.213 188.13 253.423 188.13C252.173 188.13 251.103 187.08 251.103 185.32C251.103 183.57 252.173 182.52 253.423 182.52C254.213 182.52 254.773 182.86 255.103 183.41V180.75ZM253.663 183.39C252.803 183.39 252.213 184.11 252.213 185.32C252.213 186.53 252.803 187.26 253.663 187.26C254.463 187.26 255.143 186.65 255.143 185.32C255.143 183.99 254.463 183.39 253.663 183.39ZM260.608 184.12C260.458 183.57 259.998 183.35 259.388 183.35C258.878 183.35 258.328 183.56 258.328 184C258.328 184.4 258.588 184.57 259.078 184.67L259.848 184.82C260.868 185.02 261.758 185.37 261.758 186.42C261.758 187.51 260.738 188.13 259.498 188.13C258.138 188.13 257.308 187.34 257.178 186.33H258.238C258.378 186.94 258.778 187.3 259.528 187.3C260.198 187.3 260.718 187.02 260.718 186.54C260.718 186.04 260.248 185.84 259.688 185.73L258.878 185.57C258.068 185.41 257.308 185.05 257.308 184.04C257.308 183.09 258.308 182.51 259.488 182.51C260.568 182.51 261.438 183.08 261.638 184.12H260.608ZM268.775 180.75H269.815V188H268.775V187.24C268.445 187.79 267.885 188.13 267.095 188.13C265.845 188.13 264.775 187.08 264.775 185.32C264.775 183.57 265.845 182.52 267.095 182.52C267.885 182.52 268.445 182.86 268.775 183.41V180.75ZM267.335 183.39C266.475 183.39 265.885 184.11 265.885 185.32C265.885 186.53 266.475 187.26 267.335 187.26C268.135 187.26 268.815 186.65 268.815 185.32C268.815 183.99 268.135 183.39 267.335 183.39ZM274.9 186.42H275.95C275.7 187.31 274.9 188.13 273.53 188.13C271.79 188.13 270.85 186.86 270.85 185.3C270.85 183.63 271.97 182.52 273.5 182.52C275.16 182.52 276.13 183.88 276.02 185.63H271.92C272.02 186.62 272.65 187.24 273.49 187.24C274.24 187.24 274.68 186.93 274.9 186.42ZM271.94 184.81H274.94C274.91 184.01 274.35 183.37 273.49 183.37C272.68 183.37 272.08 183.79 271.94 184.81ZM278.08 188H277.04V180.75H278.08V188ZM279.691 181.24H280.731V182.62H281.791V183.41H280.731V186.48C280.731 187.03 280.821 187.17 281.341 187.17H281.781V188H281.021C279.931 188 279.691 187.73 279.691 186.62V183.41H278.871V182.62H279.691V181.24ZM282.482 186.55C282.482 185.24 284.022 184.89 286.112 184.67V184.56C286.112 183.61 285.612 183.29 284.952 183.29C284.232 183.29 283.822 183.66 283.782 184.32H282.732C282.822 183.18 283.762 182.49 284.992 182.49C286.382 182.49 287.182 183.16 287.162 184.77C287.162 184.9 287.142 185.83 287.142 186.06C287.142 186.86 287.192 187.52 287.292 188H286.292C286.252 187.79 286.222 187.63 286.202 187.29C285.882 187.83 285.272 188.13 284.402 188.13C283.312 188.13 282.482 187.53 282.482 186.55ZM286.162 185.44C284.492 185.6 283.612 185.83 283.612 186.53C283.612 187.02 284.002 187.33 284.632 187.33C285.492 187.33 286.162 186.9 286.162 185.83V185.44ZM291.506 184.12C291.356 183.57 290.896 183.35 290.286 183.35C289.776 183.35 289.226 183.56 289.226 184C289.226 184.4 289.486 184.57 289.976 184.67L290.746 184.82C291.766 185.02 292.656 185.37 292.656 186.42C292.656 187.51 291.636 188.13 290.396 188.13C289.036 188.13 288.206 187.34 288.076 186.33H289.136C289.276 186.94 289.676 187.3 290.426 187.3C291.096 187.3 291.616 187.02 291.616 186.54C291.616 186.04 291.146 185.84 290.586 185.73L289.776 185.57C288.966 185.41 288.206 185.05 288.206 184.04C288.206 183.09 289.206 182.51 290.386 182.51C291.466 182.51 292.336 183.08 292.536 184.12H291.506Z" fill="#808080"/>
<rect x="332" y="180" width="88" height="24" fill="#1A1A1A"/>
<rect x="332" y="180" width="88" height="24" fill="#1A1A1A"/>
<path d="M352.443 181.75H353.703L356.433 189H355.193L354.623 187.41H351.473L350.913 189H349.753L352.443 181.75ZM351.813 186.45H354.273L353.033 182.99L351.813 186.45ZM360.761 183.62H361.801V188.37C361.801 189.36 361.591 189.89 361.221 190.26C360.811 190.69 360.161 190.91 359.341 190.91C358.141 190.91 357.261 190.39 357.091 189.26H358.161C358.271 189.75 358.581 190.04 359.361 190.04C359.871 190.04 360.221 189.9 360.441 189.65C360.651 189.42 360.761 189.14 360.761 188.59V188.02C360.431 188.57 359.891 188.91 359.101 188.91C357.851 188.91 356.811 187.92 356.811 186.21C356.811 184.51 357.851 183.52 359.101 183.52C359.891 183.52 360.431 183.86 360.761 184.41V183.62ZM359.341 184.38C358.481 184.38 357.921 185.06 357.921 186.21C357.921 187.38 358.481 188.06 359.341 188.06C360.141 188.06 360.801 187.5 360.801 186.21C360.801 184.93 360.141 184.38 359.341 184.38ZM366.767 183.62H367.807V188.37C367.807 189.36 367.597 189.89 367.227 190.26C366.817 190.69 366.167 190.91 365.347 190.91C364.147 190.91 363.267 190.39 363.097 189.26H364.167C364.277 189.75 364.587 190.04 365.367 190.04C365.877 190.04 366.227 189.9 366.447 189.65C366.657 189.42 366.767 189.14 366.767 188.59V188.02C366.437 188.57 365.897 188.91 365.107 188.91C363.857 188.91 362.817 187.92 362.817 186.21C362.817 184.51 363.857 183.52 365.107 183.52C365.897 183.52 366.437 183.86 366.767 184.41V183.62ZM365.347 184.38C364.487 184.38 363.927 185.06 363.927 186.21C363.927 187.38 364.487 188.06 365.347 188.06C366.147 188.06 366.807 187.5 366.807 186.21C366.807 184.93 366.147 184.38 365.347 184.38ZM371.993 184.69C371.803 184.67 371.623 184.66 371.453 184.66C370.653 184.66 370.233 185.05 370.233 186.18V189H369.193V183.62H370.213V184.57C370.493 183.96 371.033 183.61 371.703 183.6C371.793 183.6 371.903 183.6 371.993 183.61V184.69ZM376.399 187.42H377.449C377.199 188.31 376.399 189.13 375.029 189.13C373.289 189.13 372.349 187.86 372.349 186.3C372.349 184.63 373.469 183.52 374.999 183.52C376.659 183.52 377.629 184.88 377.519 186.63H373.419C373.519 187.62 374.149 188.24 374.989 188.24C375.739 188.24 376.179 187.93 376.399 187.42ZM373.439 185.81H376.439C376.409 185.01 375.849 184.37 374.989 184.37C374.179 184.37 373.579 184.79 373.439 185.81ZM382.168 183.62H383.208V188.37C383.208 189.36 382.998 189.89 382.628 190.26C382.218 190.69 381.568 190.91 380.748 190.91C379.548 190.91 378.668 190.39 378.498 189.26H379.568C379.678 189.75 379.988 190.04 380.768 190.04C381.278 190.04 381.628 189.9 381.848 189.65C382.058 189.42 382.168 189.14 382.168 188.59V188.02C381.838 188.57 381.298 188.91 380.508 188.91C379.258 188.91 378.218 187.92 378.218 186.21C378.218 184.51 379.258 183.52 380.508 183.52C381.298 183.52 381.838 183.86 382.168 184.41V183.62ZM380.748 184.38C379.888 184.38 379.328 185.06 379.328 186.21C379.328 187.38 379.888 188.06 380.748 188.06C381.548 188.06 382.208 187.5 382.208 186.21C382.208 184.93 381.548 184.38 380.748 184.38ZM384.274 187.55C384.274 186.24 385.814 185.89 387.904 185.67V185.56C387.904 184.61 387.404 184.29 386.744 184.29C386.024 184.29 385.614 184.66 385.574 185.32H384.524C384.614 184.18 385.554 183.49 386.784 183.49C388.174 183.49 388.974 184.16 388.954 185.77C388.954 185.9 388.934 186.83 388.934 187.06C388.934 187.86 388.984 188.52 389.084 189H388.084C388.044 188.79 388.014 188.63 387.994 188.29C387.674 188.83 387.064 189.13 386.194 189.13C385.104 189.13 384.274 188.53 384.274 187.55ZM387.954 186.44C386.284 186.6 385.404 186.83 385.404 187.53C385.404 188.02 385.794 188.33 386.424 188.33C387.284 188.33 387.954 187.9 387.954 186.83V186.44ZM390.448 182.24H391.488V183.62H392.548V184.41H391.488V187.48C391.488 188.03 391.578 188.17 392.098 188.17H392.538V189H391.778C390.688 189 390.448 188.73 390.448 187.62V184.41H389.628V183.62H390.448V182.24ZM397.19 187.42H398.24C397.99 188.31 397.19 189.13 395.82 189.13C394.08 189.13 393.14 187.86 393.14 186.3C393.14 184.63 394.26 183.52 395.79 183.52C397.45 183.52 398.42 184.88 398.31 186.63H394.21C394.31 187.62 394.94 188.24 395.78 188.24C396.53 188.24 396.97 187.93 397.19 187.42ZM394.23 185.81H397.23C397.2 185.01 396.64 184.37 395.78 184.37C394.97 184.37 394.37 184.79 394.23 185.81ZM402.409 185.12C402.259 184.57 401.799 184.35 401.189 184.35C400.679 184.35 400.129 184.56 400.129 185C400.129 185.4 400.389 185.57 400.879 185.67L401.649 185.82C402.669 186.02 403.559 186.37 403.559 187.42C403.559 188.51 402.539 189.13 401.299 189.13C399.939 189.13 399.109 188.34 398.979 187.33H400.039C400.179 187.94 400.579 188.3 401.329 188.3C401.999 188.3 402.519 188.02 402.519 187.54C402.519 187.04 402.049 186.84 401.489 186.73L400.679 186.57C399.869 186.41 399.109 186.05 399.109 185.04C399.109 184.09 400.109 183.51 401.289 183.51C402.369 183.51 403.239 184.08 403.439 185.12H402.409ZM340.797 199.55C340.797 198.24 342.337 197.89 344.427 197.67V197.56C344.427 196.61 343.927 196.29 343.267 196.29C342.547 196.29 342.137 196.66 342.097 197.32H341.047C341.137 196.18 342.077 195.49 343.307 195.49C344.697 195.49 345.497 196.16 345.477 197.77C345.477 197.9 345.457 198.83 345.457 199.06C345.457 199.86 345.507 200.52 345.607 201H344.607C344.567 200.79 344.537 200.63 344.517 200.29C344.197 200.83 343.587 201.13 342.717 201.13C341.627 201.13 340.797 200.53 340.797 199.55ZM344.477 198.44C342.807 198.6 341.927 198.83 341.927 199.53C341.927 200.02 342.317 200.33 342.947 200.33C343.807 200.33 344.477 199.9 344.477 198.83V198.44ZM347.802 196.4C348.112 195.87 348.652 195.52 349.492 195.52C350.792 195.52 351.292 196.36 351.292 197.61V201H350.252V197.89C350.252 197.11 350.122 196.39 349.142 196.39C348.242 196.39 347.802 197.04 347.802 198.11V201H346.762V195.62H347.802V196.4ZM356.222 193.75H357.262V201H356.222V200.24C355.892 200.79 355.332 201.13 354.542 201.13C353.292 201.13 352.222 200.08 352.222 198.32C352.222 196.57 353.292 195.52 354.542 195.52C355.332 195.52 355.892 195.86 356.222 196.41V193.75ZM354.782 196.39C353.922 196.39 353.332 197.11 353.332 198.32C353.332 199.53 353.922 200.26 354.782 200.26C355.582 200.26 356.262 199.65 356.262 198.32C356.262 196.99 355.582 196.39 354.782 196.39ZM362.05 201H361.01V195.62H362.05V196.4C362.36 195.87 362.87 195.52 363.64 195.52C364.47 195.52 364.96 195.87 365.2 196.47C365.65 195.8 366.28 195.52 366.98 195.52C368.24 195.52 368.73 196.36 368.73 197.61V201H367.69V197.89C367.69 197.11 367.57 196.39 366.63 196.39C365.81 196.39 365.39 197.04 365.39 198.11V201H364.35V197.89C364.35 197.11 364.23 196.39 363.29 196.39C362.46 196.39 362.05 197.04 362.05 198.11V201ZM373.723 199.42H374.773C374.523 200.31 373.723 201.13 372.353 201.13C370.613 201.13 369.673 199.86 369.673 198.3C369.673 196.63 370.793 195.52 372.323 195.52C373.983 195.52 374.953 196.88 374.843 198.63H370.743C370.843 199.62 371.473 200.24 372.313 200.24C373.063 200.24 373.503 199.93 373.723 199.42ZM370.763 197.81H373.763C373.733 197.01 373.173 196.37 372.313 196.37C371.503 196.37 370.903 196.79 370.763 197.81ZM378.663 196.69C378.473 196.67 378.293 196.66 378.123 196.66C377.323 196.66 376.903 197.05 376.903 198.18V201H375.863V195.62H376.883V196.57C377.163 195.96 377.703 195.61 378.373 195.6C378.463 195.6 378.573 195.6 378.663 195.61V196.69ZM382.968 195.62H384.008V200.37C384.008 201.36 383.798 201.89 383.428 202.26C383.018 202.69 382.368 202.91 381.548 202.91C380.348 202.91 379.468 202.39 379.298 201.26H380.368C380.478 201.75 380.788 202.04 381.568 202.04C382.078 202.04 382.428 201.9 382.648 201.65C382.858 201.42 382.968 201.14 382.968 200.59V200.02C382.638 200.57 382.098 200.91 381.308 200.91C380.058 200.91 379.018 199.92 379.018 198.21C379.018 196.51 380.058 195.52 381.308 195.52C382.098 195.52 382.638 195.86 382.968 196.41V195.62ZM381.548 196.38C380.688 196.38 380.128 197.06 380.128 198.21C380.128 199.38 380.688 200.06 381.548 200.06C382.348 200.06 383.008 199.5 383.008 198.21C383.008 196.93 382.348 196.38 381.548 196.38ZM389.074 199.42H390.124C389.874 200.31 389.074 201.13 387.704 201.13C385.964 201.13 385.024 199.86 385.024 198.3C385.024 196.63 386.144 195.52 387.674 195.52C389.334 195.52 390.304 196.88 390.194 198.63H386.094C386.194 199.62 386.824 200.24 387.664 200.24C388.414 200.24 388.854 199.93 389.074 199.42ZM386.114 197.81H389.114C389.084 197.01 388.524 196.37 387.664 196.37C386.854 196.37 386.254 196.79 386.114 197.81ZM394.294 197.12C394.144 196.57 393.684 196.35 393.074 196.35C392.564 196.35 392.014 196.56 392.014 197C392.014 197.4 392.274 197.57 392.764 197.67L393.534 197.82C394.554 198.02 395.444 198.37 395.444 199.42C395.444 200.51 394.424 201.13 393.184 201.13C391.824 201.13 390.994 200.34 390.864 199.33H391.924C392.064 199.94 392.464 200.3 393.214 200.3C393.884 200.3 394.404 200.02 394.404 199.54C394.404 199.04 393.934 198.84 393.374 198.73L392.564 198.57C391.754 198.41 390.994 198.05 390.994 197.04C390.994 196.09 391.994 195.51 393.174 195.51C394.254 195.51 395.124 196.08 395.324 197.12H394.294ZM399.872 193.75V194.9H398.832V193.75H399.872ZM399.872 195.62V201H398.832V195.62H399.872ZM402.313 196.4C402.623 195.87 403.163 195.52 404.003 195.52C405.303 195.52 405.803 196.36 405.803 197.61V201H404.763V197.89C404.763 197.11 404.633 196.39 403.653 196.39C402.753 196.39 402.313 197.04 402.313 198.11V201H401.273V195.62H402.313V196.4ZM407.313 194.24H408.353V195.62H409.413V196.41H408.353V199.48C408.353 200.03 408.443 200.17 408.963 200.17H409.403V201H408.643C407.553 201 407.313 200.73 407.313 199.62V196.41H406.493V195.62H407.313V194.24ZM415.245 198.33C415.245 200.27 413.905 201.13 412.625 201.13C411.355 201.13 410.015 200.27 410.015 198.33C410.015 196.38 411.355 195.52 412.625 195.52C413.905 195.52 415.245 196.38 415.245 198.33ZM412.625 200.25C413.415 200.25 414.145 199.64 414.145 198.33C414.145 196.99 413.415 196.4 412.625 196.4C411.845 196.4 411.115 196.97 411.115 198.33C411.115 199.66 411.845 200.25 412.625 200.25Z" fill="#808080"/>
<path d="M142.5 109.5C142.224 109.5 142 109.276 142 109C142 108.724 142.224 108.5 142.5 108.5L142.5 109L142.5 109.5ZM225.354 108.646C225.549 108.842 225.549 109.158 225.354 109.354L222.172 112.536C221.976 112.731 221.66 112.731 221.464 112.536C221.269 112.34 221.269 112.024 221.464 111.828L224.293 109L221.464 106.172C221.269 105.976 221.269 105.66 221.464 105.464C221.66 105.269 221.976 105.269 222.172 105.464L225.354 108.646ZM142.5 109L142.5 108.5L225 108.5L225 109L225 109.5L142.5 109.5L142.5 109Z" fill="#666666"/>
</svg>
