<svg width="750" height="393" viewBox="0 0 750 393" fill="none" xmlns="http://www.w3.org/2000/svg">
<path d="M10 0.5H458C463.247 0.5 467.5 4.7533 467.5 10V383C467.5 388.247 463.247 392.5 458 392.5H10C4.7533 392.5 0.5 388.247 0.5 383V10C0.5 4.75329 4.75329 0.5 10 0.5Z" fill="#0D0D0D"/>
<path d="M10 0.5H458C463.247 0.5 467.5 4.7533 467.5 10V383C467.5 388.247 463.247 392.5 458 392.5H10C4.7533 392.5 0.5 388.247 0.5 383V10C0.5 4.75329 4.75329 0.5 10 0.5Z" fill="#1A1A1A"/>
<path d="M10 0.5H458C463.247 0.5 467.5 4.7533 467.5 10V383C467.5 388.247 463.247 392.5 458 392.5H10C4.7533 392.5 0.5 388.247 0.5 383V10C0.5 4.75329 4.75329 0.5 10 0.5Z" stroke="#4C4C4C"/>
<rect x="20.5" y="161.5" width="122" height="58" rx="9.5" fill="#333333"/>
<rect x="20.5" y="161.5" width="122" height="58" rx="9.5" stroke="#4C4C4C"/>
<path d="M37.5624 190.56L41.3784 186.3H43.0344L39.7944 189.852L43.3704 195H41.7504L38.8824 190.848L37.5624 192.3V195H36.1944V186.3H37.5624V190.56ZM43.6708 193.26C43.6708 191.688 45.5188 191.268 48.0268 191.004V190.872C48.0268 189.732 47.4268 189.348 46.6348 189.348C45.7708 189.348 45.2788 189.792 45.2308 190.584H43.9708C44.0788 189.216 45.2068 188.388 46.6828 188.388C48.3508 188.388 49.3108 189.192 49.2868 191.124C49.2868 191.28 49.2628 192.396 49.2628 192.672C49.2628 193.632 49.3228 194.424 49.4428 195H48.2428C48.1948 194.748 48.1588 194.556 48.1348 194.148C47.7508 194.796 47.0188 195.156 45.9748 195.156C44.6668 195.156 43.6708 194.436 43.6708 193.26ZM48.0868 191.928C46.0828 192.12 45.0268 192.396 45.0268 193.236C45.0268 193.824 45.4948 194.196 46.2508 194.196C47.2828 194.196 48.0868 193.68 48.0868 192.396V191.928ZM51.0563 188.112C51.0563 186.684 51.4763 186.3 52.9883 186.3H53.5523V187.296H53.0723C52.4363 187.296 52.3043 187.428 52.3043 188.1V188.544H53.5523V189.492H52.3043V195H51.0563V189.492H50.1563V188.544H51.0563V188.112ZM55.8966 186.3V191.304L58.4646 188.544H59.9886L57.4806 191.208L60.1686 195H58.6806L56.6286 192.108L55.8966 192.888V195H54.6486V186.3H55.8966ZM60.3935 193.26C60.3935 191.688 62.2415 191.268 64.7495 191.004V190.872C64.7495 189.732 64.1495 189.348 63.3575 189.348C62.4935 189.348 62.0015 189.792 61.9535 190.584H60.6935C60.8015 189.216 61.9295 188.388 63.4055 188.388C65.0735 188.388 66.0335 189.192 66.0095 191.124C66.0095 191.28 65.9855 192.396 65.9855 192.672C65.9855 193.632 66.0455 194.424 66.1655 195H64.9655C64.9175 194.748 64.8815 194.556 64.8575 194.148C64.4735 194.796 63.7415 195.156 62.6975 195.156C61.3895 195.156 60.3935 194.436 60.3935 193.26ZM64.8095 191.928C62.8055 192.12 61.7495 192.396 61.7495 193.236C61.7495 193.824 62.2175 194.196 62.9735 194.196C64.0055 194.196 64.8095 193.68 64.8095 192.396V191.928ZM77.8394 192.168C77.4674 194.1 76.0154 195.156 74.0834 195.156C71.5634 195.156 70.0994 193.308 70.0994 190.632C70.0994 187.908 71.6714 186.144 74.1674 186.144C76.0274 186.144 77.4434 187.224 77.8034 189.132H76.4834C76.2194 188.004 75.3794 187.284 74.1074 187.284C72.6434 187.284 71.5034 188.448 71.5034 190.632C71.5034 192.78 72.6074 194.016 74.1194 194.016C75.4034 194.016 76.2554 193.32 76.5194 192.168H77.8394ZM84.9731 191.796C84.9731 194.124 83.3651 195.156 81.8291 195.156C80.3051 195.156 78.6971 194.124 78.6971 191.796C78.6971 189.456 80.3051 188.424 81.8291 188.424C83.3651 188.424 84.9731 189.456 84.9731 191.796ZM81.8291 194.1C82.7771 194.1 83.6531 193.368 83.6531 191.796C83.6531 190.188 82.7771 189.48 81.8291 189.48C80.8931 189.48 80.0171 190.164 80.0171 191.796C80.0171 193.392 80.8931 194.1 81.8291 194.1ZM87.4669 189.48C87.8389 188.844 88.4869 188.424 89.4949 188.424C91.0549 188.424 91.6549 189.432 91.6549 190.932V195H90.4069V191.268C90.4069 190.332 90.2509 189.468 89.0749 189.468C87.9949 189.468 87.4669 190.248 87.4669 191.532V195H86.2189V188.544H87.4669V189.48ZM96.887 190.344C96.707 189.684 96.155 189.42 95.423 189.42C94.811 189.42 94.151 189.672 94.151 190.2C94.151 190.68 94.463 190.884 95.051 191.004L95.975 191.184C97.199 191.424 98.267 191.844 98.267 193.104C98.267 194.412 97.043 195.156 95.555 195.156C93.923 195.156 92.927 194.208 92.771 192.996H94.043C94.211 193.728 94.691 194.16 95.591 194.16C96.395 194.16 97.019 193.824 97.019 193.248C97.019 192.648 96.455 192.408 95.783 192.276L94.811 192.084C93.839 191.892 92.927 191.46 92.927 190.248C92.927 189.108 94.127 188.412 95.543 188.412C96.839 188.412 97.883 189.096 98.123 190.344H96.887ZM103.504 194.088C103.132 194.736 102.508 195.156 101.536 195.156C100.012 195.156 99.4237 194.208 99.4237 192.648V188.544H100.672V192.312C100.672 193.248 100.828 194.1 101.956 194.1C103 194.1 103.516 193.32 103.516 192.048V188.544H104.764V195H103.504V194.088ZM107.682 195H106.434V188.544H107.682V189.48C108.054 188.844 108.666 188.424 109.59 188.424C110.586 188.424 111.174 188.844 111.462 189.564C112.002 188.76 112.758 188.424 113.598 188.424C115.11 188.424 115.698 189.432 115.698 190.932V195H114.45V191.268C114.45 190.332 114.306 189.468 113.178 189.468C112.194 189.468 111.69 190.248 111.69 191.532V195H110.442V191.268C110.442 190.332 110.298 189.468 109.17 189.468C108.174 189.468 107.682 190.248 107.682 191.532V195ZM121.69 193.104H122.95C122.65 194.172 121.69 195.156 120.046 195.156C117.958 195.156 116.83 193.632 116.83 191.76C116.83 189.756 118.174 188.424 120.01 188.424C122.002 188.424 123.166 190.056 123.034 192.156H118.114C118.234 193.344 118.99 194.088 119.998 194.088C120.898 194.088 121.426 193.716 121.69 193.104ZM118.138 191.172H121.738C121.702 190.212 121.03 189.444 119.998 189.444C119.026 189.444 118.306 189.948 118.138 191.172ZM127.618 189.828C127.39 189.804 127.174 189.792 126.97 189.792C126.01 189.792 125.506 190.26 125.506 191.616V195H124.258V188.544H125.482V189.684C125.818 188.952 126.466 188.532 127.27 188.52C127.378 188.52 127.51 188.52 127.618 188.532V189.828Z" fill="#B2B2B2"/>
<rect x="205.5" y="20.5" width="104" height="58" rx="9.5" fill="#333333"/>
<rect x="205.5" y="20.5" width="104" height="58" rx="9.5" stroke="#4C4C4C"/>
<path d="M222.697 54H221.329V45.3H222.697V54ZM225.75 48.48C226.122 47.844 226.77 47.424 227.778 47.424C229.338 47.424 229.938 48.432 229.938 49.932V54H228.69V50.268C228.69 49.332 228.534 48.468 227.358 48.468C226.278 48.468 225.75 49.248 225.75 50.532V54H224.502V47.544H225.75V48.48ZM232.746 54H231.498V45.3H232.746V54ZM235.676 45.3V46.68H234.428V45.3H235.676ZM235.676 47.544V54H234.428V47.544H235.676ZM238.606 48.48C238.978 47.844 239.626 47.424 240.634 47.424C242.194 47.424 242.794 48.432 242.794 49.932V54H241.546V50.268C241.546 49.332 241.39 48.468 240.214 48.468C239.134 48.468 238.606 49.248 238.606 50.532V54H237.358V47.544H238.606V48.48ZM248.77 52.104H250.03C249.73 53.172 248.77 54.156 247.126 54.156C245.038 54.156 243.91 52.632 243.91 50.76C243.91 48.756 245.254 47.424 247.09 47.424C249.082 47.424 250.246 49.056 250.114 51.156H245.194C245.314 52.344 246.07 53.088 247.078 53.088C247.978 53.088 248.506 52.716 248.77 52.104ZM245.218 50.172H248.818C248.782 49.212 248.11 48.444 247.078 48.444C246.106 48.444 245.386 48.948 245.218 50.172ZM254.271 45.3H260.127V46.464H255.639V48.948H259.863V50.1H255.639V54H254.271V45.3ZM262.242 54H260.994V45.3H262.242V54ZM267.908 53.088C267.536 53.736 266.912 54.156 265.94 54.156C264.416 54.156 263.828 53.208 263.828 51.648V47.544H265.076V51.312C265.076 52.248 265.232 53.1 266.36 53.1C267.404 53.1 267.92 52.32 267.92 51.048V47.544H269.168V54H267.908V53.088ZM274.51 49.344C274.33 48.684 273.778 48.42 273.046 48.42C272.434 48.42 271.774 48.672 271.774 49.2C271.774 49.68 272.086 49.884 272.674 50.004L273.598 50.184C274.822 50.424 275.89 50.844 275.89 52.104C275.89 53.412 274.666 54.156 273.178 54.156C271.546 54.156 270.55 53.208 270.394 51.996H271.666C271.834 52.728 272.314 53.16 273.214 53.16C274.018 53.16 274.642 52.824 274.642 52.248C274.642 51.648 274.078 51.408 273.406 51.276L272.434 51.084C271.462 50.892 270.55 50.46 270.55 49.248C270.55 48.108 271.75 47.412 273.166 47.412C274.462 47.412 275.506 48.096 275.746 49.344H274.51ZM278.391 48.48C278.763 47.844 279.411 47.424 280.419 47.424C281.979 47.424 282.579 48.432 282.579 49.932V54H281.331V50.268C281.331 49.332 281.175 48.468 279.999 48.468C278.919 48.468 278.391 49.248 278.391 50.532V54H277.143V45.3H278.391V48.48ZM288.555 52.104H289.815C289.515 53.172 288.555 54.156 286.911 54.156C284.823 54.156 283.695 52.632 283.695 50.76C283.695 48.756 285.039 47.424 286.875 47.424C288.867 47.424 290.031 49.056 289.899 51.156H284.979C285.099 52.344 285.855 53.088 286.863 53.088C287.763 53.088 288.291 52.716 288.555 52.104ZM285.003 50.172H288.603C288.567 49.212 287.895 48.444 286.863 48.444C285.891 48.444 285.171 48.948 285.003 50.172ZM294.483 48.828C294.255 48.804 294.039 48.792 293.835 48.792C292.875 48.792 292.371 49.26 292.371 50.616V54H291.123V47.544H292.347V48.684C292.683 47.952 293.331 47.532 294.135 47.52C294.243 47.52 294.375 47.52 294.483 47.532V48.828Z" fill="#B2B2B2"/>
<path d="M160.017 204H158.877V196.75H160.017V204ZM162.561 199.4C162.871 198.87 163.411 198.52 164.251 198.52C165.551 198.52 166.051 199.36 166.051 200.61V204H165.011V200.89C165.011 200.11 164.881 199.39 163.901 199.39C163.001 199.39 162.561 200.04 162.561 201.11V204H161.521V198.62H162.561V199.4ZM170.411 200.12C170.261 199.57 169.801 199.35 169.191 199.35C168.681 199.35 168.131 199.56 168.131 200C168.131 200.4 168.391 200.57 168.881 200.67L169.651 200.82C170.671 201.02 171.561 201.37 171.561 202.42C171.561 203.51 170.541 204.13 169.301 204.13C167.941 204.13 167.111 203.34 166.981 202.33H168.041C168.181 202.94 168.581 203.3 169.331 203.3C170.001 203.3 170.521 203.02 170.521 202.54C170.521 202.04 170.051 201.84 169.491 201.73L168.681 201.57C167.871 201.41 167.111 201.05 167.111 200.04C167.111 199.09 168.111 198.51 169.291 198.51C170.371 198.51 171.241 199.08 171.441 200.12H170.411ZM176.285 202.42H177.335C177.085 203.31 176.285 204.13 174.915 204.13C173.175 204.13 172.235 202.86 172.235 201.3C172.235 199.63 173.355 198.52 174.885 198.52C176.545 198.52 177.515 199.88 177.405 201.63H173.305C173.405 202.62 174.035 203.24 174.875 203.24C175.625 203.24 176.065 202.93 176.285 202.42ZM173.325 200.81H176.325C176.295 200.01 175.735 199.37 174.875 199.37C174.065 199.37 173.465 199.79 173.325 200.81ZM181.226 199.69C181.036 199.67 180.856 199.66 180.686 199.66C179.886 199.66 179.466 200.05 179.466 201.18V204H178.426V198.62H179.446V199.57C179.726 198.96 180.266 198.61 180.936 198.6C181.026 198.6 181.136 198.6 181.226 198.61V199.69ZM182.259 197.24H183.299V198.62H184.359V199.41H183.299V202.48C183.299 203.03 183.389 203.17 183.909 203.17H184.349V204H183.589C182.499 204 182.259 203.73 182.259 202.62V199.41H181.439V198.62H182.259V197.24ZM188.429 200.12C188.279 199.57 187.819 199.35 187.209 199.35C186.699 199.35 186.149 199.56 186.149 200C186.149 200.4 186.409 200.57 186.899 200.67L187.669 200.82C188.689 201.02 189.579 201.37 189.579 202.42C189.579 203.51 188.559 204.13 187.319 204.13C185.959 204.13 185.129 203.34 184.999 202.33H186.059C186.199 202.94 186.599 203.3 187.349 203.3C188.019 203.3 188.539 203.02 188.539 202.54C188.539 202.04 188.069 201.84 187.509 201.73L186.699 201.57C185.889 201.41 185.129 201.05 185.129 200.04C185.129 199.09 186.129 198.51 187.309 198.51C188.389 198.51 189.259 199.08 189.459 200.12H188.429Z" fill="#808080"/>
<path d="M215 102.5H438C443.247 102.5 447.5 106.753 447.5 112V230C447.5 235.247 443.247 239.5 438 239.5H215C209.753 239.5 205.5 235.247 205.5 230V112C205.5 106.753 209.753 102.5 215 102.5Z" fill="#262626"/>
<path d="M215 102.5H438C443.247 102.5 447.5 106.753 447.5 112V230C447.5 235.247 443.247 239.5 438 239.5H215C209.753 239.5 205.5 235.247 205.5 230V112C205.5 106.753 209.753 102.5 215 102.5Z" stroke="#4C4C4C"/>
<path d="M304.59 131.192C304.59 127.72 302.526 127.192 300.414 127.192H299.358V135.208H300.414C302.526 135.208 304.59 134.696 304.59 131.192ZM297.07 125.4H300.51C304.19 125.4 306.958 126.584 306.958 131.192C306.958 135.8 304.19 137 300.51 137H297.07V125.4ZM313.647 137V135.864C313.151 136.744 312.207 137.208 311.135 137.208C309.071 137.208 308.239 135.944 308.239 133.832V128.392H310.447V133.352C310.447 134.504 310.623 135.432 311.855 135.432C313.327 135.432 313.647 134.232 313.647 132.872V128.392H315.855V137H313.647ZM321.611 128.2C323.419 128.2 325.211 129.208 325.515 131.336H323.403C323.227 130.504 322.459 129.912 321.611 129.912C320.459 129.912 319.547 130.888 319.547 132.68C319.547 134.488 320.411 135.496 321.627 135.496C322.395 135.496 323.179 135.096 323.483 134.072H325.595C325.083 136.424 323.307 137.208 321.515 137.208C318.939 137.208 317.291 135.32 317.291 132.712C317.291 130.088 319.035 128.2 321.611 128.2ZM326.93 125.4H329.138V131.848L332.274 128.392H334.754L331.666 131.688L334.93 137H332.45L330.194 133.272L329.138 134.408V137H326.93V125.4ZM343.389 131.192C343.389 127.72 341.325 127.192 339.213 127.192H338.157V135.208H339.213C341.325 135.208 343.389 134.696 343.389 131.192ZM335.869 125.4H339.309C342.989 125.4 345.757 126.584 345.757 131.192C345.757 135.8 342.989 137 339.309 137H335.869V125.4ZM347.385 137V125.4H351.897C353.929 125.4 356.121 126.04 356.121 128.424C356.121 129.512 355.401 130.488 354.809 130.872C355.705 131.304 356.537 131.976 356.537 133.576C356.537 136.072 354.473 137 352.089 137H347.385ZM349.673 131.912V135.208H352.201C353.545 135.208 354.201 134.648 354.201 133.576C354.201 132.488 353.529 131.912 352.105 131.912H349.673ZM349.673 127.192V130.184H352.041C353.129 130.184 353.769 129.672 353.769 128.648C353.769 127.736 353.113 127.192 352.041 127.192H349.673Z" fill="#F2F2F2"/>
<rect x="225.5" y="161.5" width="91" height="58" rx="9.5" fill="#333333"/>
<rect x="225.5" y="161.5" width="91" height="58" rx="9.5" stroke="#4C4C4C"/>
<path d="M244.561 189.828C244.333 189.804 244.117 189.792 243.913 189.792C242.953 189.792 242.449 190.26 242.449 191.616V195H241.201V188.544H242.425V189.684C242.761 188.952 243.409 188.532 244.213 188.52C244.321 188.52 244.453 188.52 244.561 188.532V189.828ZM244.931 193.26C244.931 191.688 246.779 191.268 249.287 191.004V190.872C249.287 189.732 248.687 189.348 247.895 189.348C247.031 189.348 246.539 189.792 246.491 190.584H245.231C245.339 189.216 246.467 188.388 247.943 188.388C249.611 188.388 250.571 189.192 250.547 191.124C250.547 191.28 250.523 192.396 250.523 192.672C250.523 193.632 250.583 194.424 250.703 195H249.503C249.455 194.748 249.419 194.556 249.395 194.148C249.011 194.796 248.279 195.156 247.235 195.156C245.927 195.156 244.931 194.436 244.931 193.26ZM249.347 191.928C247.343 192.12 246.287 192.396 246.287 193.236C246.287 193.824 246.755 194.196 247.511 194.196C248.543 194.196 249.347 193.68 249.347 192.396V191.928ZM254.956 188.544H256.252L257.452 193.224L258.556 188.544H259.912L258.112 195H256.948L255.592 190.008L254.272 195H253.096L251.308 188.544H252.664L253.756 193.224L254.956 188.544ZM259.6 196.152V195H264.508V196.152H259.6ZM269.887 193.104H271.147C270.847 194.172 269.887 195.156 268.243 195.156C266.155 195.156 265.027 193.632 265.027 191.76C265.027 189.756 266.371 188.424 268.207 188.424C270.199 188.424 271.363 190.056 271.231 192.156H266.311C266.431 193.344 267.187 194.088 268.195 194.088C269.095 194.088 269.623 193.716 269.887 193.104ZM266.335 191.172H269.935C269.899 190.212 269.227 189.444 268.195 189.444C267.223 189.444 266.503 189.948 266.335 191.172ZM274.569 193.332L276.189 188.544H277.485L275.097 195H273.957L271.557 188.544H272.937L274.569 193.332ZM282.625 193.104H283.885C283.585 194.172 282.625 195.156 280.981 195.156C278.893 195.156 277.765 193.632 277.765 191.76C277.765 189.756 279.109 188.424 280.945 188.424C282.937 188.424 284.101 190.056 283.969 192.156H279.049C279.169 193.344 279.925 194.088 280.933 194.088C281.833 194.088 282.361 193.716 282.625 193.104ZM279.073 191.172H282.673C282.637 190.212 281.965 189.444 280.933 189.444C279.961 189.444 279.241 189.948 279.073 191.172ZM286.442 189.48C286.814 188.844 287.462 188.424 288.47 188.424C290.03 188.424 290.63 189.432 290.63 190.932V195H289.382V191.268C289.382 190.332 289.226 189.468 288.05 189.468C286.97 189.468 286.442 190.248 286.442 191.532V195H285.194V188.544H286.442V189.48ZM292.442 186.888H293.69V188.544H294.962V189.492H293.69V193.176C293.69 193.836 293.798 194.004 294.422 194.004H294.95V195H294.038C292.73 195 292.442 194.676 292.442 193.344V189.492H291.458V188.544H292.442V186.888ZM299.846 190.344C299.666 189.684 299.114 189.42 298.382 189.42C297.77 189.42 297.11 189.672 297.11 190.2C297.11 190.68 297.422 190.884 298.01 191.004L298.934 191.184C300.158 191.424 301.226 191.844 301.226 193.104C301.226 194.412 300.002 195.156 298.514 195.156C296.882 195.156 295.886 194.208 295.73 192.996H297.002C297.17 193.728 297.65 194.16 298.55 194.16C299.354 194.16 299.978 193.824 299.978 193.248C299.978 192.648 299.414 192.408 298.742 192.276L297.77 192.084C296.798 191.892 295.886 191.46 295.886 190.248C295.886 189.108 297.086 188.412 298.502 188.412C299.798 188.412 300.842 189.096 301.082 190.344H299.846Z" fill="#B2B2B2"/>
<rect x="337.5" y="161.5" width="90" height="58" rx="9.5" fill="#333333"/>
<rect x="337.5" y="161.5" width="90" height="58" rx="9.5" stroke="#4C4C4C"/>
<path d="M357.09 194.088C356.718 194.736 356.094 195.156 355.122 195.156C353.598 195.156 353.01 194.208 353.01 192.648V188.544H354.258V192.312C354.258 193.248 354.414 194.1 355.542 194.1C356.586 194.1 357.102 193.32 357.102 192.048V188.544H358.35V195H357.09V194.088ZM363.692 190.344C363.512 189.684 362.96 189.42 362.228 189.42C361.616 189.42 360.956 189.672 360.956 190.2C360.956 190.68 361.268 190.884 361.856 191.004L362.78 191.184C364.004 191.424 365.072 191.844 365.072 193.104C365.072 194.412 363.848 195.156 362.36 195.156C360.728 195.156 359.732 194.208 359.576 192.996H360.848C361.016 193.728 361.496 194.16 362.396 194.16C363.2 194.16 363.824 193.824 363.824 193.248C363.824 192.648 363.26 192.408 362.588 192.276L361.616 192.084C360.644 191.892 359.732 191.46 359.732 190.248C359.732 189.108 360.932 188.412 362.348 188.412C363.644 188.412 364.688 189.096 364.928 190.344H363.692ZM370.74 193.104H372C371.7 194.172 370.74 195.156 369.096 195.156C367.008 195.156 365.88 193.632 365.88 191.76C365.88 189.756 367.224 188.424 369.06 188.424C371.052 188.424 372.216 190.056 372.084 192.156H367.164C367.284 193.344 368.04 194.088 369.048 194.088C369.948 194.088 370.476 193.716 370.74 193.104ZM367.188 191.172H370.788C370.752 190.212 370.08 189.444 369.048 189.444C368.076 189.444 367.356 189.948 367.188 191.172ZM376.669 189.828C376.441 189.804 376.225 189.792 376.021 189.792C375.061 189.792 374.557 190.26 374.557 191.616V195H373.309V188.544H374.533V189.684C374.869 188.952 375.517 188.532 376.321 188.52C376.429 188.52 376.561 188.52 376.669 188.532V189.828ZM375.969 196.152V195H380.877V196.152H375.969ZM387.312 190.728H386.064C385.932 189.996 385.272 189.492 384.456 189.492C383.556 189.492 382.728 190.2 382.728 191.772C382.728 193.368 383.568 194.088 384.456 194.088C385.248 194.088 385.944 193.62 386.112 192.852H387.372C387.12 194.208 385.86 195.156 384.432 195.156C382.572 195.156 381.396 193.728 381.396 191.784C381.396 189.864 382.608 188.424 384.516 188.424C385.992 188.424 387.12 189.468 387.312 190.728ZM389.791 195H388.543V186.3H389.791V195ZM392.721 186.3V187.68H391.473V186.3H392.721ZM392.721 188.544V195H391.473V188.544H392.721ZM399.875 190.728H398.627C398.495 189.996 397.835 189.492 397.019 189.492C396.119 189.492 395.291 190.2 395.291 191.772C395.291 193.368 396.131 194.088 397.019 194.088C397.811 194.088 398.507 193.62 398.675 192.852H399.935C399.683 194.208 398.423 195.156 396.995 195.156C395.135 195.156 393.958 193.728 393.958 191.784C393.958 189.864 395.171 188.424 397.079 188.424C398.555 188.424 399.683 189.468 399.875 190.728ZM402.354 186.3V191.304L404.922 188.544H406.446L403.938 191.208L406.626 195H405.138L403.086 192.108L402.354 192.888V195H401.106V186.3H402.354ZM410.942 190.344C410.762 189.684 410.21 189.42 409.478 189.42C408.866 189.42 408.206 189.672 408.206 190.2C408.206 190.68 408.518 190.884 409.106 191.004L410.03 191.184C411.254 191.424 412.322 191.844 412.322 193.104C412.322 194.412 411.098 195.156 409.61 195.156C407.978 195.156 406.982 194.208 406.826 192.996H408.098C408.266 193.728 408.746 194.16 409.646 194.16C410.45 194.16 411.074 193.824 411.074 193.248C411.074 192.648 410.51 192.408 409.838 192.276L408.866 192.084C407.894 191.892 406.982 191.46 406.982 190.248C406.982 189.108 408.182 188.412 409.598 188.412C410.894 188.412 411.938 189.096 412.178 190.344H410.942Z" fill="#B2B2B2"/>
<rect x="297.5" y="315.5" width="118" height="58" rx="9.5" fill="#333333"/>
<rect x="297.5" y="315.5" width="118" height="58" rx="9.5" stroke="#4C4C4C"/>
<path d="M315.357 340.3C318.117 340.3 320.157 341.296 320.157 344.644C320.157 348.004 318.117 349 315.357 349H312.981V340.3H315.357ZM315.297 341.428H314.349V347.872H315.297C317.037 347.872 318.741 347.512 318.741 344.644C318.741 341.788 317.037 341.428 315.297 341.428ZM326.031 347.104H327.291C326.991 348.172 326.031 349.156 324.387 349.156C322.299 349.156 321.171 347.632 321.171 345.76C321.171 343.756 322.515 342.424 324.351 342.424C326.343 342.424 327.507 344.056 327.375 346.156H322.455C322.575 347.344 323.331 348.088 324.339 348.088C325.239 348.088 325.767 347.716 326.031 347.104ZM322.479 345.172H326.079C326.043 344.212 325.371 343.444 324.339 343.444C323.367 343.444 322.647 343.948 322.479 345.172ZM329.848 349H328.6V340.3H329.848V349ZM331.781 340.888H333.029V342.544H334.301V343.492H333.029V347.176C333.029 347.836 333.137 348.004 333.761 348.004H334.289V349H333.377C332.069 349 331.781 348.676 331.781 347.344V343.492H330.797V342.544H331.781V340.888ZM335.13 347.26C335.13 345.688 336.978 345.268 339.486 345.004V344.872C339.486 343.732 338.886 343.348 338.094 343.348C337.23 343.348 336.738 343.792 336.69 344.584H335.43C335.538 343.216 336.666 342.388 338.142 342.388C339.81 342.388 340.77 343.192 340.746 345.124C340.746 345.28 340.722 346.396 340.722 346.672C340.722 347.632 340.782 348.424 340.902 349H339.702C339.654 348.748 339.618 348.556 339.594 348.148C339.21 348.796 338.478 349.156 337.434 349.156C336.126 349.156 335.13 348.436 335.13 347.26ZM339.546 345.928C337.542 346.12 336.486 346.396 336.486 347.236C336.486 347.824 336.954 348.196 337.71 348.196C338.742 348.196 339.546 347.68 339.546 346.396V345.928ZM348.016 340.3C350.032 340.3 351.664 340.696 351.664 342.976C351.664 345.16 350.116 345.628 348.016 345.628H346.588V349H345.22V340.3H348.016ZM346.588 341.428V344.476H348.1C349.312 344.476 350.248 344.332 350.248 342.988C350.248 341.572 349.24 341.428 348.064 341.428H346.588ZM355.948 343.828C355.72 343.804 355.504 343.792 355.3 343.792C354.34 343.792 353.836 344.26 353.836 345.616V349H352.588V342.544H353.812V343.684C354.148 342.952 354.796 342.532 355.6 342.52C355.708 342.52 355.84 342.52 355.948 342.532V343.828ZM362.663 345.796C362.663 348.124 361.055 349.156 359.519 349.156C357.995 349.156 356.387 348.124 356.387 345.796C356.387 343.456 357.995 342.424 359.519 342.424C361.055 342.424 362.663 343.456 362.663 345.796ZM359.519 348.1C360.467 348.1 361.343 347.368 361.343 345.796C361.343 344.188 360.467 343.48 359.519 343.48C358.583 343.48 357.707 344.164 357.707 345.796C357.707 347.392 358.583 348.1 359.519 348.1ZM369.474 344.728H368.226C368.094 343.996 367.434 343.492 366.618 343.492C365.718 343.492 364.89 344.2 364.89 345.772C364.89 347.368 365.73 348.088 366.618 348.088C367.41 348.088 368.106 347.62 368.274 346.852H369.534C369.282 348.208 368.022 349.156 366.594 349.156C364.734 349.156 363.558 347.728 363.558 345.784C363.558 343.864 364.77 342.424 366.678 342.424C368.154 342.424 369.282 343.468 369.474 344.728ZM375.18 347.104H376.44C376.14 348.172 375.18 349.156 373.536 349.156C371.448 349.156 370.32 347.632 370.32 345.76C370.32 343.756 371.664 342.424 373.5 342.424C375.492 342.424 376.656 344.056 376.524 346.156H371.604C371.724 347.344 372.48 348.088 373.488 348.088C374.388 348.088 374.916 347.716 375.18 347.104ZM371.628 345.172H375.228C375.192 344.212 374.52 343.444 373.488 343.444C372.516 343.444 371.796 343.948 371.628 345.172ZM381.444 344.344C381.264 343.684 380.712 343.42 379.98 343.42C379.368 343.42 378.708 343.672 378.708 344.2C378.708 344.68 379.02 344.884 379.608 345.004L380.532 345.184C381.756 345.424 382.824 345.844 382.824 347.104C382.824 348.412 381.6 349.156 380.112 349.156C378.48 349.156 377.484 348.208 377.328 346.996H378.6C378.768 347.728 379.248 348.16 380.148 348.16C380.952 348.16 381.576 347.824 381.576 347.248C381.576 346.648 381.012 346.408 380.34 346.276L379.368 346.084C378.396 345.892 377.484 345.46 377.484 344.248C377.484 343.108 378.684 342.412 380.1 342.412C381.396 342.412 382.44 343.096 382.68 344.344H381.444ZM387.748 344.344C387.568 343.684 387.016 343.42 386.284 343.42C385.672 343.42 385.012 343.672 385.012 344.2C385.012 344.68 385.324 344.884 385.912 345.004L386.836 345.184C388.06 345.424 389.128 345.844 389.128 347.104C389.128 348.412 387.904 349.156 386.416 349.156C384.784 349.156 383.788 348.208 383.632 346.996H384.904C385.072 347.728 385.552 348.16 386.452 348.16C387.256 348.16 387.88 347.824 387.88 347.248C387.88 346.648 387.316 346.408 386.644 346.276L385.672 346.084C384.7 345.892 383.788 345.46 383.788 344.248C383.788 343.108 384.988 342.412 386.404 342.412C387.7 342.412 388.744 343.096 388.984 344.344H387.748ZM396.225 345.796C396.225 348.124 394.617 349.156 393.081 349.156C391.557 349.156 389.949 348.124 389.949 345.796C389.949 343.456 391.557 342.424 393.081 342.424C394.617 342.424 396.225 343.456 396.225 345.796ZM393.081 348.1C394.029 348.1 394.905 347.368 394.905 345.796C394.905 344.188 394.029 343.48 393.081 343.48C392.145 343.48 391.269 344.164 391.269 345.796C391.269 347.392 392.145 348.1 393.081 348.1ZM400.831 343.828C400.603 343.804 400.387 343.792 400.183 343.792C399.223 343.792 398.719 344.26 398.719 345.616V349H397.471V342.544H398.695V343.684C399.031 342.952 399.679 342.532 400.483 342.52C400.591 342.52 400.723 342.52 400.831 342.532V343.828Z" fill="#B2B2B2"/>
<path d="M297.854 343.854C298.049 343.658 298.049 343.342 297.854 343.146L294.672 339.964C294.476 339.769 294.16 339.769 293.964 339.964C293.769 340.16 293.769 340.476 293.964 340.672L296.793 343.5L293.964 346.328C293.769 346.524 293.769 346.84 293.964 347.036C294.16 347.231 294.476 347.231 294.672 347.036L297.854 343.854ZM262 220H261.5V333.5H262H262.5V220H262ZM272 343.5V344H297.5V343.5V343H272V343.5ZM262 333.5H261.5C261.5 339.299 266.201 344 272 344V343.5V343C266.753 343 262.5 338.747 262.5 333.5H262Z" fill="#666666"/>
<path d="M376.275 220.148C376.08 219.953 375.763 219.953 375.568 220.148L372.386 223.33C372.19 223.525 372.19 223.842 372.386 224.037C372.581 224.233 372.898 224.233 373.093 224.037L375.921 221.209L378.75 224.037C378.945 224.233 379.261 224.233 379.457 224.037C379.652 223.842 379.652 223.526 379.457 223.33L376.275 220.148ZM375.921 315L376.421 315L376.421 220.502L375.921 220.502L375.421 220.502L375.421 315L375.921 315Z" fill="#666666"/>
<rect x="229" y="261" width="66" height="14" fill="#1A1A1A"/>
<rect x="229" y="261" width="66" height="14" fill="#1A1A1A"/>
<path d="M236.318 266.94C236.168 266.95 236.008 266.95 235.848 266.95H234.598V270H233.458V262.75H235.758C237.708 262.75 238.878 263.16 238.878 264.84C238.878 265.88 238.378 266.47 237.478 266.75L239.148 270H237.868L236.318 266.94ZM234.598 263.69V266.02H235.908C236.978 266.02 237.708 265.86 237.708 264.86C237.708 263.82 236.918 263.69 235.888 263.69H234.598ZM243.737 268.42H244.787C244.537 269.31 243.737 270.13 242.367 270.13C240.627 270.13 239.687 268.86 239.687 267.3C239.687 265.63 240.807 264.52 242.337 264.52C243.997 264.52 244.967 265.88 244.857 267.63H240.757C240.857 268.62 241.487 269.24 242.327 269.24C243.077 269.24 243.517 268.93 243.737 268.42ZM240.777 266.81H243.777C243.747 266.01 243.187 265.37 242.327 265.37C241.517 265.37 240.917 265.79 240.777 266.81ZM245.509 268.55C245.509 267.24 247.049 266.89 249.139 266.67V266.56C249.139 265.61 248.639 265.29 247.979 265.29C247.259 265.29 246.849 265.66 246.809 266.32H245.759C245.849 265.18 246.789 264.49 248.019 264.49C249.409 264.49 250.209 265.16 250.189 266.77C250.189 266.9 250.169 267.83 250.169 268.06C250.169 268.86 250.219 269.52 250.319 270H249.319C249.279 269.79 249.249 269.63 249.229 269.29C248.909 269.83 248.299 270.13 247.429 270.13C246.339 270.13 245.509 269.53 245.509 268.55ZM249.189 267.44C247.519 267.6 246.639 267.83 246.639 268.53C246.639 269.02 247.029 269.33 247.659 269.33C248.519 269.33 249.189 268.9 249.189 267.83V267.44ZM255.103 262.75H256.143V270H255.103V269.24C254.773 269.79 254.213 270.13 253.423 270.13C252.173 270.13 251.103 269.08 251.103 267.32C251.103 265.57 252.173 264.52 253.423 264.52C254.213 264.52 254.773 264.86 255.103 265.41V262.75ZM253.663 265.39C252.803 265.39 252.213 266.11 252.213 267.32C252.213 268.53 252.803 269.26 253.663 269.26C254.463 269.26 255.143 268.65 255.143 267.32C255.143 265.99 254.463 265.39 253.663 265.39ZM260.608 266.12C260.458 265.57 259.998 265.35 259.388 265.35C258.878 265.35 258.328 265.56 258.328 266C258.328 266.4 258.588 266.57 259.078 266.67L259.848 266.82C260.868 267.02 261.758 267.37 261.758 268.42C261.758 269.51 260.738 270.13 259.498 270.13C258.138 270.13 257.308 269.34 257.178 268.33H258.238C258.378 268.94 258.778 269.3 259.528 269.3C260.198 269.3 260.718 269.02 260.718 268.54C260.718 268.04 260.248 267.84 259.688 267.73L258.878 267.57C258.068 267.41 257.308 267.05 257.308 266.04C257.308 265.09 258.308 264.51 259.488 264.51C260.568 264.51 261.438 265.08 261.638 266.12H260.608ZM268.775 262.75H269.815V270H268.775V269.24C268.445 269.79 267.885 270.13 267.095 270.13C265.845 270.13 264.775 269.08 264.775 267.32C264.775 265.57 265.845 264.52 267.095 264.52C267.885 264.52 268.445 264.86 268.775 265.41V262.75ZM267.335 265.39C266.475 265.39 265.885 266.11 265.885 267.32C265.885 268.53 266.475 269.26 267.335 269.26C268.135 269.26 268.815 268.65 268.815 267.32C268.815 265.99 268.135 265.39 267.335 265.39ZM274.9 268.42H275.95C275.7 269.31 274.9 270.13 273.53 270.13C271.79 270.13 270.85 268.86 270.85 267.3C270.85 265.63 271.97 264.52 273.5 264.52C275.16 264.52 276.13 265.88 276.02 267.63H271.92C272.02 268.62 272.65 269.24 273.49 269.24C274.24 269.24 274.68 268.93 274.9 268.42ZM271.94 266.81H274.94C274.91 266.01 274.35 265.37 273.49 265.37C272.68 265.37 272.08 265.79 271.94 266.81ZM278.08 270H277.04V262.75H278.08V270ZM279.691 263.24H280.731V264.62H281.791V265.41H280.731V268.48C280.731 269.03 280.821 269.17 281.341 269.17H281.781V270H281.021C279.931 270 279.691 269.73 279.691 268.62V265.41H278.871V264.62H279.691V263.24ZM282.482 268.55C282.482 267.24 284.022 266.89 286.112 266.67V266.56C286.112 265.61 285.612 265.29 284.952 265.29C284.232 265.29 283.822 265.66 283.782 266.32H282.732C282.822 265.18 283.762 264.49 284.992 264.49C286.382 264.49 287.182 265.16 287.162 266.77C287.162 266.9 287.142 267.83 287.142 268.06C287.142 268.86 287.192 269.52 287.292 270H286.292C286.252 269.79 286.222 269.63 286.202 269.29C285.882 269.83 285.272 270.13 284.402 270.13C283.312 270.13 282.482 269.53 282.482 268.55ZM286.162 267.44C284.492 267.6 283.612 267.83 283.612 268.53C283.612 269.02 284.002 269.33 284.632 269.33C285.492 269.33 286.162 268.9 286.162 267.83V267.44ZM291.506 266.12C291.356 265.57 290.896 265.35 290.286 265.35C289.776 265.35 289.226 265.56 289.226 266C289.226 266.4 289.486 266.57 289.976 266.67L290.746 266.82C291.766 267.02 292.656 267.37 292.656 268.42C292.656 269.51 291.636 270.13 290.396 270.13C289.036 270.13 288.206 269.34 288.076 268.33H289.136C289.276 268.94 289.676 269.3 290.426 269.3C291.096 269.3 291.616 269.02 291.616 268.54C291.616 268.04 291.146 267.84 290.586 267.73L289.776 267.57C288.966 267.41 288.206 267.05 288.206 266.04C288.206 265.09 289.206 264.51 290.386 264.51C291.466 264.51 292.336 265.08 292.536 266.12H291.506Z" fill="#808080"/>
<rect x="332" y="262" width="88" height="24" fill="#1A1A1A"/>
<rect x="332" y="262" width="88" height="24" fill="#1A1A1A"/>
<path d="M352.443 263.75H353.703L356.433 271H355.193L354.623 269.41H351.473L350.913 271H349.753L352.443 263.75ZM351.813 268.45H354.273L353.033 264.99L351.813 268.45ZM360.761 265.62H361.801V270.37C361.801 271.36 361.591 271.89 361.221 272.26C360.811 272.69 360.161 272.91 359.341 272.91C358.141 272.91 357.261 272.39 357.091 271.26H358.161C358.271 271.75 358.581 272.04 359.361 272.04C359.871 272.04 360.221 271.9 360.441 271.65C360.651 271.42 360.761 271.14 360.761 270.59V270.02C360.431 270.57 359.891 270.91 359.101 270.91C357.851 270.91 356.811 269.92 356.811 268.21C356.811 266.51 357.851 265.52 359.101 265.52C359.891 265.52 360.431 265.86 360.761 266.41V265.62ZM359.341 266.38C358.481 266.38 357.921 267.06 357.921 268.21C357.921 269.38 358.481 270.06 359.341 270.06C360.141 270.06 360.801 269.5 360.801 268.21C360.801 266.93 360.141 266.38 359.341 266.38ZM366.767 265.62H367.807V270.37C367.807 271.36 367.597 271.89 367.227 272.26C366.817 272.69 366.167 272.91 365.347 272.91C364.147 272.91 363.267 272.39 363.097 271.26H364.167C364.277 271.75 364.587 272.04 365.367 272.04C365.877 272.04 366.227 271.9 366.447 271.65C366.657 271.42 366.767 271.14 366.767 270.59V270.02C366.437 270.57 365.897 270.91 365.107 270.91C363.857 270.91 362.817 269.92 362.817 268.21C362.817 266.51 363.857 265.52 365.107 265.52C365.897 265.52 366.437 265.86 366.767 266.41V265.62ZM365.347 266.38C364.487 266.38 363.927 267.06 363.927 268.21C363.927 269.38 364.487 270.06 365.347 270.06C366.147 270.06 366.807 269.5 366.807 268.21C366.807 266.93 366.147 266.38 365.347 266.38ZM371.993 266.69C371.803 266.67 371.623 266.66 371.453 266.66C370.653 266.66 370.233 267.05 370.233 268.18V271H369.193V265.62H370.213V266.57C370.493 265.96 371.033 265.61 371.703 265.6C371.793 265.6 371.903 265.6 371.993 265.61V266.69ZM376.399 269.42H377.449C377.199 270.31 376.399 271.13 375.029 271.13C373.289 271.13 372.349 269.86 372.349 268.3C372.349 266.63 373.469 265.52 374.999 265.52C376.659 265.52 377.629 266.88 377.519 268.63H373.419C373.519 269.62 374.149 270.24 374.989 270.24C375.739 270.24 376.179 269.93 376.399 269.42ZM373.439 267.81H376.439C376.409 267.01 375.849 266.37 374.989 266.37C374.179 266.37 373.579 266.79 373.439 267.81ZM382.168 265.62H383.208V270.37C383.208 271.36 382.998 271.89 382.628 272.26C382.218 272.69 381.568 272.91 380.748 272.91C379.548 272.91 378.668 272.39 378.498 271.26H379.568C379.678 271.75 379.988 272.04 380.768 272.04C381.278 272.04 381.628 271.9 381.848 271.65C382.058 271.42 382.168 271.14 382.168 270.59V270.02C381.838 270.57 381.298 270.91 380.508 270.91C379.258 270.91 378.218 269.92 378.218 268.21C378.218 266.51 379.258 265.52 380.508 265.52C381.298 265.52 381.838 265.86 382.168 266.41V265.62ZM380.748 266.38C379.888 266.38 379.328 267.06 379.328 268.21C379.328 269.38 379.888 270.06 380.748 270.06C381.548 270.06 382.208 269.5 382.208 268.21C382.208 266.93 381.548 266.38 380.748 266.38ZM384.274 269.55C384.274 268.24 385.814 267.89 387.904 267.67V267.56C387.904 266.61 387.404 266.29 386.744 266.29C386.024 266.29 385.614 266.66 385.574 267.32H384.524C384.614 266.18 385.554 265.49 386.784 265.49C388.174 265.49 388.974 266.16 388.954 267.77C388.954 267.9 388.934 268.83 388.934 269.06C388.934 269.86 388.984 270.52 389.084 271H388.084C388.044 270.79 388.014 270.63 387.994 270.29C387.674 270.83 387.064 271.13 386.194 271.13C385.104 271.13 384.274 270.53 384.274 269.55ZM387.954 268.44C386.284 268.6 385.404 268.83 385.404 269.53C385.404 270.02 385.794 270.33 386.424 270.33C387.284 270.33 387.954 269.9 387.954 268.83V268.44ZM390.448 264.24H391.488V265.62H392.548V266.41H391.488V269.48C391.488 270.03 391.578 270.17 392.098 270.17H392.538V271H391.778C390.688 271 390.448 270.73 390.448 269.62V266.41H389.628V265.62H390.448V264.24ZM397.19 269.42H398.24C397.99 270.31 397.19 271.13 395.82 271.13C394.08 271.13 393.14 269.86 393.14 268.3C393.14 266.63 394.26 265.52 395.79 265.52C397.45 265.52 398.42 266.88 398.31 268.63H394.21C394.31 269.62 394.94 270.24 395.78 270.24C396.53 270.24 396.97 269.93 397.19 269.42ZM394.23 267.81H397.23C397.2 267.01 396.64 266.37 395.78 266.37C394.97 266.37 394.37 266.79 394.23 267.81ZM402.409 267.12C402.259 266.57 401.799 266.35 401.189 266.35C400.679 266.35 400.129 266.56 400.129 267C400.129 267.4 400.389 267.57 400.879 267.67L401.649 267.82C402.669 268.02 403.559 268.37 403.559 269.42C403.559 270.51 402.539 271.13 401.299 271.13C399.939 271.13 399.109 270.34 398.979 269.33H400.039C400.179 269.94 400.579 270.3 401.329 270.3C401.999 270.3 402.519 270.02 402.519 269.54C402.519 269.04 402.049 268.84 401.489 268.73L400.679 268.57C399.869 268.41 399.109 268.05 399.109 267.04C399.109 266.09 400.109 265.51 401.289 265.51C402.369 265.51 403.239 266.08 403.439 267.12H402.409ZM340.797 281.55C340.797 280.24 342.337 279.89 344.427 279.67V279.56C344.427 278.61 343.927 278.29 343.267 278.29C342.547 278.29 342.137 278.66 342.097 279.32H341.047C341.137 278.18 342.077 277.49 343.307 277.49C344.697 277.49 345.497 278.16 345.477 279.77C345.477 279.9 345.457 280.83 345.457 281.06C345.457 281.86 345.507 282.52 345.607 283H344.607C344.567 282.79 344.537 282.63 344.517 282.29C344.197 282.83 343.587 283.13 342.717 283.13C341.627 283.13 340.797 282.53 340.797 281.55ZM344.477 280.44C342.807 280.6 341.927 280.83 341.927 281.53C341.927 282.02 342.317 282.33 342.947 282.33C343.807 282.33 344.477 281.9 344.477 280.83V280.44ZM347.802 278.4C348.112 277.87 348.652 277.52 349.492 277.52C350.792 277.52 351.292 278.36 351.292 279.61V283H350.252V279.89C350.252 279.11 350.122 278.39 349.142 278.39C348.242 278.39 347.802 279.04 347.802 280.11V283H346.762V277.62H347.802V278.4ZM356.222 275.75H357.262V283H356.222V282.24C355.892 282.79 355.332 283.13 354.542 283.13C353.292 283.13 352.222 282.08 352.222 280.32C352.222 278.57 353.292 277.52 354.542 277.52C355.332 277.52 355.892 277.86 356.222 278.41V275.75ZM354.782 278.39C353.922 278.39 353.332 279.11 353.332 280.32C353.332 281.53 353.922 282.26 354.782 282.26C355.582 282.26 356.262 281.65 356.262 280.32C356.262 278.99 355.582 278.39 354.782 278.39ZM362.05 283H361.01V277.62H362.05V278.4C362.36 277.87 362.87 277.52 363.64 277.52C364.47 277.52 364.96 277.87 365.2 278.47C365.65 277.8 366.28 277.52 366.98 277.52C368.24 277.52 368.73 278.36 368.73 279.61V283H367.69V279.89C367.69 279.11 367.57 278.39 366.63 278.39C365.81 278.39 365.39 279.04 365.39 280.11V283H364.35V279.89C364.35 279.11 364.23 278.39 363.29 278.39C362.46 278.39 362.05 279.04 362.05 280.11V283ZM373.723 281.42H374.773C374.523 282.31 373.723 283.13 372.353 283.13C370.613 283.13 369.673 281.86 369.673 280.3C369.673 278.63 370.793 277.52 372.323 277.52C373.983 277.52 374.953 278.88 374.843 280.63H370.743C370.843 281.62 371.473 282.24 372.313 282.24C373.063 282.24 373.503 281.93 373.723 281.42ZM370.763 279.81H373.763C373.733 279.01 373.173 278.37 372.313 278.37C371.503 278.37 370.903 278.79 370.763 279.81ZM378.663 278.69C378.473 278.67 378.293 278.66 378.123 278.66C377.323 278.66 376.903 279.05 376.903 280.18V283H375.863V277.62H376.883V278.57C377.163 277.96 377.703 277.61 378.373 277.6C378.463 277.6 378.573 277.6 378.663 277.61V278.69ZM382.968 277.62H384.008V282.37C384.008 283.36 383.798 283.89 383.428 284.26C383.018 284.69 382.368 284.91 381.548 284.91C380.348 284.91 379.468 284.39 379.298 283.26H380.368C380.478 283.75 380.788 284.04 381.568 284.04C382.078 284.04 382.428 283.9 382.648 283.65C382.858 283.42 382.968 283.14 382.968 282.59V282.02C382.638 282.57 382.098 282.91 381.308 282.91C380.058 282.91 379.018 281.92 379.018 280.21C379.018 278.51 380.058 277.52 381.308 277.52C382.098 277.52 382.638 277.86 382.968 278.41V277.62ZM381.548 278.38C380.688 278.38 380.128 279.06 380.128 280.21C380.128 281.38 380.688 282.06 381.548 282.06C382.348 282.06 383.008 281.5 383.008 280.21C383.008 278.93 382.348 278.38 381.548 278.38ZM389.074 281.42H390.124C389.874 282.31 389.074 283.13 387.704 283.13C385.964 283.13 385.024 281.86 385.024 280.3C385.024 278.63 386.144 277.52 387.674 277.52C389.334 277.52 390.304 278.88 390.194 280.63H386.094C386.194 281.62 386.824 282.24 387.664 282.24C388.414 282.24 388.854 281.93 389.074 281.42ZM386.114 279.81H389.114C389.084 279.01 388.524 278.37 387.664 278.37C386.854 278.37 386.254 278.79 386.114 279.81ZM394.294 279.12C394.144 278.57 393.684 278.35 393.074 278.35C392.564 278.35 392.014 278.56 392.014 279C392.014 279.4 392.274 279.57 392.764 279.67L393.534 279.82C394.554 280.02 395.444 280.37 395.444 281.42C395.444 282.51 394.424 283.13 393.184 283.13C391.824 283.13 390.994 282.34 390.864 281.33H391.924C392.064 281.94 392.464 282.3 393.214 282.3C393.884 282.3 394.404 282.02 394.404 281.54C394.404 281.04 393.934 280.84 393.374 280.73L392.564 280.57C391.754 280.41 390.994 280.05 390.994 279.04C390.994 278.09 391.994 277.51 393.174 277.51C394.254 277.51 395.124 278.08 395.324 279.12H394.294ZM399.872 275.75V276.9H398.832V275.75H399.872ZM399.872 277.62V283H398.832V277.62H399.872ZM402.313 278.4C402.623 277.87 403.163 277.52 404.003 277.52C405.303 277.52 405.803 278.36 405.803 279.61V283H404.763V279.89C404.763 279.11 404.633 278.39 403.653 278.39C402.753 278.39 402.313 279.04 402.313 280.11V283H401.273V277.62H402.313V278.4ZM407.313 276.24H408.353V277.62H409.413V278.41H408.353V281.48C408.353 282.03 408.443 282.17 408.963 282.17H409.403V283H408.643C407.553 283 407.313 282.73 407.313 281.62V278.41H406.493V277.62H407.313V276.24ZM415.245 280.33C415.245 282.27 413.905 283.13 412.625 283.13C411.355 283.13 410.015 282.27 410.015 280.33C410.015 278.38 411.355 277.52 412.625 277.52C413.905 277.52 415.245 278.38 415.245 280.33ZM412.625 282.25C413.415 282.25 414.145 281.64 414.145 280.33C414.145 278.99 413.415 278.4 412.625 278.4C411.845 278.4 411.115 278.97 411.115 280.33C411.115 281.66 411.845 282.25 412.625 282.25Z" fill="#808080"/>
<path d="M142.5 191.5C142.224 191.5 142 191.276 142 191C142 190.724 142.224 190.5 142.5 190.5L142.5 191L142.5 191.5ZM225.354 190.646C225.549 190.842 225.549 191.158 225.354 191.354L222.172 194.536C221.976 194.731 221.66 194.731 221.464 194.536C221.269 194.34 221.269 194.024 221.464 193.828L224.293 191L221.464 188.172C221.269 187.976 221.269 187.66 221.464 187.464C221.66 187.269 221.976 187.269 222.172 187.464L225.354 190.646ZM142.5 191L142.5 190.5L225 190.5L225 191L225 191.5L142.5 191.5L142.5 191Z" fill="#666666"/>
<path d="M255.255 78.7539C255.255 78.4778 255.479 78.2539 255.755 78.2539C256.031 78.2539 256.255 78.4778 256.255 78.7539L255.755 78.7539L255.255 78.7539ZM256.108 161.607C255.913 161.803 255.597 161.803 255.401 161.607L252.219 158.425C252.024 158.23 252.024 157.914 252.219 157.718C252.415 157.523 252.731 157.523 252.926 157.718L255.755 160.547L258.583 157.718C258.779 157.523 259.095 157.523 259.29 157.718C259.486 157.914 259.486 158.23 259.29 158.425L256.108 161.607ZM255.755 78.7539L256.255 78.7539L256.255 161.254L255.755 161.254L255.255 161.254L255.255 78.7539L255.755 78.7539Z" fill="#666666"/>
<rect width="37" height="11" transform="translate(237 85)" fill="#1A1A1A"/>
<path d="M238.258 86.25H243.138V87.22H239.398V89.29H242.918V90.25H239.398V93.5H238.258V86.25ZM244.901 93.5H243.861V86.25H244.901V93.5ZM249.623 92.74C249.313 93.28 248.793 93.63 247.983 93.63C246.713 93.63 246.223 92.84 246.223 91.54V88.12H247.263V91.26C247.263 92.04 247.393 92.75 248.333 92.75C249.203 92.75 249.633 92.1 249.633 91.04V88.12H250.673V93.5H249.623V92.74ZM255.124 89.62C254.974 89.07 254.514 88.85 253.904 88.85C253.394 88.85 252.844 89.06 252.844 89.5C252.844 89.9 253.104 90.07 253.594 90.17L254.364 90.32C255.384 90.52 256.274 90.87 256.274 91.92C256.274 93.01 255.254 93.63 254.014 93.63C252.654 93.63 251.824 92.84 251.694 91.83H252.754C252.894 92.44 253.294 92.8 254.044 92.8C254.714 92.8 255.234 92.52 255.234 92.04C255.234 91.54 254.764 91.34 254.204 91.23L253.394 91.07C252.584 90.91 251.824 90.55 251.824 89.54C251.824 88.59 252.824 88.01 254.004 88.01C255.084 88.01 255.954 88.58 256.154 89.62H255.124ZM258.358 88.9C258.668 88.37 259.208 88.02 260.048 88.02C261.348 88.02 261.848 88.86 261.848 90.11V93.5H260.808V90.39C260.808 89.61 260.678 88.89 259.698 88.89C258.798 88.89 258.358 89.54 258.358 90.61V93.5H257.318V86.25H258.358V88.9ZM266.828 91.92H267.878C267.628 92.81 266.828 93.63 265.458 93.63C263.718 93.63 262.778 92.36 262.778 90.8C262.778 89.13 263.898 88.02 265.428 88.02C267.088 88.02 268.058 89.38 267.948 91.13H263.848C263.948 92.12 264.578 92.74 265.418 92.74C266.168 92.74 266.608 92.43 266.828 91.92ZM263.868 90.31H266.868C266.838 89.51 266.278 88.87 265.418 88.87C264.608 88.87 264.008 89.29 263.868 90.31ZM272.048 89.62C271.898 89.07 271.438 88.85 270.828 88.85C270.318 88.85 269.768 89.06 269.768 89.5C269.768 89.9 270.028 90.07 270.518 90.17L271.288 90.32C272.308 90.52 273.198 90.87 273.198 91.92C273.198 93.01 272.178 93.63 270.938 93.63C269.578 93.63 268.748 92.84 268.618 91.83H269.678C269.818 92.44 270.218 92.8 270.968 92.8C271.638 92.8 272.158 92.52 272.158 92.04C272.158 91.54 271.688 91.34 271.128 91.23L270.318 91.07C269.508 90.91 268.748 90.55 268.748 89.54C268.748 88.59 269.748 88.01 270.928 88.01C272.008 88.01 272.878 88.58 273.078 89.62H272.048Z" fill="#808080"/>
</svg>
