<svg xmlns="http://www.w3.org/2000/svg" width="750" height="178" fill="none" viewBox="0 0 750 178"><path fill="#0D0D0D" d="M10 0.5H430C435.247 0.5 439.5 4.75329 439.5 10V168C439.5 173.247 435.247 177.5 430 177.5H10C4.7533 177.5 0.5 173.247 0.5 168V10C0.5 4.75329 4.7533 0.5 10 0.5Z"/><path fill="#1A1A1A" d="M10 0.5H430C435.247 0.5 439.5 4.75329 439.5 10V168C439.5 173.247 435.247 177.5 430 177.5H10C4.7533 177.5 0.5 173.247 0.5 168V10C0.5 4.75329 4.7533 0.5 10 0.5Z"/><path stroke="#4C4C4C" d="M10 0.5H430C435.247 0.5 439.5 4.75329 439.5 10V168C439.5 173.247 435.247 177.5 430 177.5H10C4.7533 177.5 0.5 173.247 0.5 168V10C0.5 4.75329 4.7533 0.5 10 0.5Z"/><path fill="gray" d="M23.9413 119.44C23.7913 119.45 23.6313 119.45 23.4713 119.45H22.2213V122.5H21.0813V115.25H23.3813C25.3312 115.25 26.5013 115.66 26.5013 117.34C26.5013 118.38 26.0013 118.97 25.1013 119.25L26.7713 122.5H25.4913L23.9413 119.44ZM22.2213 116.19V118.52H23.5313C24.6013 118.52 25.3312 118.36 25.3312 117.36C25.3312 116.32 24.5413 116.19 23.5113 116.19H22.2213ZM31.3605 120.92H32.4105C32.1605 121.81 31.3605 122.63 29.9905 122.63C28.2505 122.63 27.3105 121.36 27.3105 119.8C27.3105 118.13 28.4305 117.02 29.9605 117.02C31.6205 117.02 32.5905 118.38 32.4805 120.13H28.3805C28.4805 121.12 29.1105 121.74 29.9505 121.74C30.7005 121.74 31.1405 121.43 31.3605 120.92ZM28.4005 119.31H31.4005C31.3705 118.51 30.8105 117.87 29.9505 117.87C29.1405 117.87 28.5405 118.29 28.4005 119.31ZM33.132 121.05C33.132 119.74 34.672 119.39 36.762 119.17V119.06C36.762 118.11 36.262 117.79 35.602 117.79C34.882 117.79 34.472 118.16 34.432 118.82H33.382C33.472 117.68 34.412 116.99 35.642 116.99C37.032 116.99 37.832 117.66 37.812 119.27C37.812 119.4 37.792 120.33 37.792 120.56C37.792 121.36 37.842 122.02 37.942 122.5H36.942C36.902 122.29 36.872 122.13 36.852 121.79C36.532 122.33 35.922 122.63 35.052 122.63C33.962 122.63 33.132 122.03 33.132 121.05ZM36.812 119.94C35.142 120.1 34.262 120.33 34.262 121.03C34.262 121.52 34.652 121.83 35.282 121.83C36.142 121.83 36.812 121.4 36.812 120.33V119.94ZM42.7265 115.25H43.7665V122.5H42.7265V121.74C42.3965 122.29 41.8365 122.63 41.0465 122.63C39.7965 122.63 38.7265 121.58 38.7265 119.82C38.7265 118.07 39.7965 117.02 41.0465 117.02C41.8365 117.02 42.3965 117.36 42.7265 117.91V115.25ZM41.2865 117.89C40.4265 117.89 39.8365 118.61 39.8365 119.82C39.8365 121.03 40.4265 121.76 41.2865 121.76C42.0865 121.76 42.7665 121.15 42.7665 119.82C42.7665 118.49 42.0865 117.89 41.2865 117.89ZM48.2307 118.62C48.0807 118.07 47.6207 117.85 47.0107 117.85C46.5007 117.85 45.9507 118.06 45.9507 118.5C45.9507 118.9 46.2107 119.07 46.7007 119.17L47.4707 119.32C48.4907 119.52 49.3807 119.87 49.3807 120.92C49.3807 122.01 48.3607 122.63 47.1207 122.63C45.7607 122.63 44.9307 121.84 44.8007 120.83H45.8607C46.0007 121.44 46.4007 121.8 47.1507 121.8C47.8207 121.8 48.3407 121.52 48.3407 121.04C48.3407 120.54 47.8707 120.34 47.3107 120.23L46.5007 120.07C45.6907 119.91 44.9307 119.55 44.9307 118.54C44.9307 117.59 45.9307 117.01 47.1107 117.01C48.1907 117.01 49.0607 117.58 49.2607 118.62H48.2307ZM52.9584 116.76C52.9584 115.57 53.3084 115.25 54.5684 115.25H55.0384V116.08H54.6384C54.1084 116.08 53.9984 116.19 53.9984 116.75V117.12H55.0384V117.91H53.9984V122.5H52.9584V117.91H52.2084V117.12H52.9584V116.76ZM58.752 118.19C58.562 118.17 58.382 118.16 58.212 118.16C57.412 118.16 56.992 118.55 56.992 119.68V122.5H55.952V117.12H56.972V118.07C57.252 117.46 57.792 117.11 58.462 117.1C58.552 117.1 58.662 117.1 58.752 117.11V118.19ZM64.3473 119.83C64.3473 121.77 63.0073 122.63 61.7273 122.63C60.4573 122.63 59.1173 121.77 59.1173 119.83C59.1173 117.88 60.4573 117.02 61.7273 117.02C63.0073 117.02 64.3473 117.88 64.3473 119.83ZM61.7273 121.75C62.5173 121.75 63.2473 121.14 63.2473 119.83C63.2473 118.49 62.5173 117.9 61.7273 117.9C60.9473 117.9 60.2173 118.47 60.2173 119.83C60.2173 121.16 60.9473 121.75 61.7273 121.75ZM66.4255 122.5H65.3855V117.12H66.4255V117.9C66.7355 117.37 67.2455 117.02 68.0155 117.02C68.8455 117.02 69.3355 117.37 69.5755 117.97C70.0255 117.3 70.6555 117.02 71.3555 117.02C72.6155 117.02 73.1055 117.86 73.1055 119.11V122.5H72.0655V119.39C72.0655 118.61 71.9455 117.89 71.0055 117.89C70.1855 117.89 69.7655 118.54 69.7655 119.61V122.5H68.7255V119.39C68.7255 118.61 68.6055 117.89 67.6655 117.89C66.8355 117.89 66.4255 118.54 66.4255 119.61V122.5ZM35.8248 130.8L39.0048 127.25H40.3848L37.6848 130.21L40.6648 134.5H39.3148L36.9248 131.04L35.8248 132.25V134.5H34.6848V127.25H35.8248V130.8ZM40.9152 133.05C40.9152 131.74 42.4552 131.39 44.5452 131.17V131.06C44.5452 130.11 44.0452 129.79 43.3852 129.79C42.6652 129.79 42.2552 130.16 42.2152 130.82H41.1652C41.2552 129.68 42.1952 128.99 43.4252 128.99C44.8152 128.99 45.6152 129.66 45.5952 131.27C45.5952 131.4 45.5752 132.33 45.5752 132.56C45.5752 133.36 45.6252 134.02 45.7252 134.5H44.7252C44.6852 134.29 44.6552 134.13 44.6352 133.79C44.3152 134.33 43.7052 134.63 42.8352 134.63C41.7452 134.63 40.9152 134.03 40.9152 133.05ZM44.5952 131.94C42.9252 132.1 42.0452 132.33 42.0452 133.03C42.0452 133.52 42.4352 133.83 43.0652 133.83C43.9252 133.83 44.5952 133.4 44.5952 132.33V131.94ZM47.0697 128.76C47.0697 127.57 47.4197 127.25 48.6797 127.25H49.1497V128.08H48.7497C48.2197 128.08 48.1097 128.19 48.1097 128.75V129.12H49.1497V129.91H48.1097V134.5H47.0697V129.91H46.3197V129.12H47.0697V128.76ZM51.1033 127.25V131.42L53.2433 129.12H54.5133L52.4233 131.34L54.6633 134.5H53.4233L51.7133 132.09L51.1033 132.74V134.5H50.0633V127.25H51.1033ZM54.8507 133.05C54.8507 131.74 56.3907 131.39 58.4807 131.17V131.06C58.4807 130.11 57.9807 129.79 57.3207 129.79C56.6007 129.79 56.1907 130.16 56.1507 130.82H55.1007C55.1907 129.68 56.1307 128.99 57.3607 128.99C58.7507 128.99 59.5507 129.66 59.5307 131.27C59.5307 131.4 59.5107 132.33 59.5107 132.56C59.5107 133.36 59.5607 134.02 59.6607 134.5H58.6607C58.6207 134.29 58.5907 134.13 58.5707 133.79C58.2507 134.33 57.6407 134.63 56.7707 134.63C55.6807 134.63 54.8507 134.03 54.8507 133.05ZM58.5307 131.94C56.8607 132.1 55.9807 132.33 55.9807 133.03C55.9807 133.52 56.3707 133.83 57.0007 133.83C57.8607 133.83 58.5307 133.4 58.5307 132.33V131.94Z"/><path fill="#262626" d="M99 20.5H410C415.247 20.5 419.5 24.7533 419.5 30V148C419.5 153.247 415.247 157.5 410 157.5H99C93.7533 157.5 89.5 153.247 89.5 148V30C89.5 24.7533 93.7533 20.5 99 20.5Z"/><path stroke="#4C4C4C" d="M99 20.5H410C415.247 20.5 419.5 24.7533 419.5 30V148C419.5 153.247 415.247 157.5 410 157.5H99C93.7533 157.5 89.5 153.247 89.5 148V30C89.5 24.7533 93.7533 20.5 99 20.5Z"/><path fill="#F2F2F2" d="M189.401 49.192C189.401 45.72 187.337 45.192 185.225 45.192H184.169V53.208H185.225C187.337 53.208 189.401 52.696 189.401 49.192ZM181.881 43.4H185.321C189.001 43.4 191.769 44.584 191.769 49.192C191.769 53.8 189.001 55 185.321 55H181.881V43.4ZM198.457 55V53.864C197.961 54.744 197.017 55.208 195.945 55.208C193.881 55.208 193.049 53.944 193.049 51.832V46.392H195.257V51.352C195.257 52.504 195.433 53.432 196.665 53.432C198.137 53.432 198.457 52.232 198.457 50.872V46.392H200.665V55H198.457ZM206.421 46.2C208.229 46.2 210.021 47.208 210.325 49.336H208.213C208.037 48.504 207.269 47.912 206.421 47.912C205.269 47.912 204.357 48.888 204.357 50.68C204.357 52.488 205.221 53.496 206.437 53.496C207.205 53.496 207.989 53.096 208.293 52.072H210.405C209.893 54.424 208.117 55.208 206.325 55.208C203.749 55.208 202.101 53.32 202.101 50.712C202.101 48.088 203.845 46.2 206.421 46.2ZM211.74 43.4H213.948V49.848L217.084 46.392H219.564L216.476 49.688L219.74 55H217.26L215.004 51.272L213.948 52.408V55H211.74V43.4ZM228.199 49.192C228.199 45.72 226.135 45.192 224.023 45.192H222.967V53.208H224.023C226.135 53.208 228.199 52.696 228.199 49.192ZM220.679 43.4H224.119C227.799 43.4 230.567 44.584 230.567 49.192C230.567 53.8 227.799 55 224.119 55H220.679V43.4ZM232.195 55V43.4H236.707C238.739 43.4 240.931 44.04 240.931 46.424C240.931 47.512 240.211 48.488 239.619 48.872C240.515 49.304 241.347 49.976 241.347 51.576C241.347 54.072 239.283 55 236.899 55H232.195ZM234.483 49.912V53.208H237.011C238.355 53.208 239.011 52.648 239.011 51.576C239.011 50.488 238.339 49.912 236.915 49.912H234.483ZM234.483 45.192V48.184H236.851C237.939 48.184 238.579 47.672 238.579 46.648C238.579 45.736 237.923 45.192 236.851 45.192H234.483ZM249.469 55.208C247.165 55.208 245.581 53.72 245.581 51.752C245.581 49.992 246.925 48.92 248.317 48.408C247.613 47.528 247.133 46.68 247.133 45.768C247.133 44.168 248.557 43.192 250.461 43.192C251.949 43.192 253.645 43.864 253.645 45.784C253.645 47.08 252.701 48.216 251.485 48.776L253.021 50.472C253.261 49.784 253.357 49.112 253.405 48.488H255.581C255.453 49.64 255.069 50.888 254.429 52.024L257.149 55H254.205L253.085 53.752C252.125 54.648 250.941 55.208 249.469 55.208ZM249.789 53.544C250.637 53.544 251.357 53.112 251.917 52.456L249.453 49.688C248.413 50.12 247.837 50.76 247.837 51.64C247.837 52.744 248.637 53.544 249.789 53.544ZM249.389 45.72C249.389 46.36 249.901 47.032 250.413 47.592L250.429 47.608C251.309 47.16 251.549 46.44 251.549 45.88C251.549 45.176 251.085 44.776 250.461 44.776C249.885 44.776 249.389 45.16 249.389 45.72ZM263.789 55V45.256H260.221V43.4H269.661V45.256H266.077V55H263.789ZM274.467 46.44V48.52C274.147 48.472 273.875 48.472 273.555 48.472C272.467 48.472 271.747 48.872 271.747 50.488V55H269.539V46.392H271.715V47.896C272.211 46.824 272.979 46.408 273.987 46.408C274.131 46.408 274.323 46.424 274.467 46.44ZM275.618 46.392H277.826V55H275.618V46.392ZM275.618 43.4H277.826V45.448H275.618V43.4ZM283.965 53.512C285.117 53.512 285.933 52.392 285.933 50.712C285.933 49.032 285.117 47.896 283.965 47.896C282.749 47.896 281.949 48.968 281.949 50.696C281.949 52.472 282.749 53.512 283.965 53.512ZM282.029 55H279.821V43.4H282.029V47.496C282.493 46.68 283.421 46.2 284.509 46.2C286.589 46.2 288.253 47.992 288.253 50.696C288.253 53.448 286.557 55.208 284.509 55.208C283.613 55.208 282.589 54.872 282.029 53.912V55ZM294.993 55V53.864C294.497 54.744 293.553 55.208 292.481 55.208C290.417 55.208 289.585 53.944 289.585 51.832V46.392H291.793V51.352C291.793 52.504 291.969 53.432 293.201 53.432C294.673 53.432 294.993 52.232 294.993 50.872V46.392H297.201V55H294.993ZM299.501 46.392V44.056H301.709V46.392H303.501V47.912H301.709V52.36C301.709 53.24 302.013 53.416 302.797 53.416H303.469V55H301.853C299.869 55 299.501 54.392 299.501 52.68V47.912H298.285V46.392H299.501ZM310.308 51.704V51.064C307.828 51.32 306.852 51.608 306.852 52.568C306.852 53.192 307.332 53.704 308.34 53.704C309.732 53.704 310.308 52.968 310.308 51.704ZM310.5 53.928C309.876 54.824 308.98 55.208 307.684 55.208C306.036 55.208 304.58 54.248 304.58 52.68C304.58 50.648 306.852 50.04 310.244 49.656V49.512C310.244 48.184 309.524 47.72 308.628 47.72C307.78 47.72 307.076 48.152 307.028 49.112H304.964C305.14 47.416 306.516 46.168 308.74 46.168C310.772 46.168 312.452 47.064 312.452 49.96C312.452 50.216 312.42 51.384 312.42 52.152C312.42 53.512 312.5 54.28 312.676 55H310.644C310.58 54.728 310.548 54.36 310.5 53.928ZM319.235 46.44V48.52C318.915 48.472 318.643 48.472 318.323 48.472C317.235 48.472 316.515 48.872 316.515 50.488V55H314.307V46.392H316.483V47.896C316.979 46.824 317.747 46.408 318.755 46.408C318.899 46.408 319.091 46.424 319.235 46.44ZM321.406 57.8H320.478V56.104H321.31C322.046 56.104 322.366 56.12 322.75 55.208L322.846 54.968L319.55 46.392H321.966L323.918 52.6L325.918 46.392H328.158L325.006 54.744C323.982 57.416 323.55 57.8 321.406 57.8Z"/><rect width="120" height="58" x="109.5" y="79.5" fill="#333" rx="9.5"/><rect width="120" height="58" x="109.5" y="79.5" stroke="#4C4C4C" rx="9.5"/><path fill="#B2B2B2" d="M128.559 107.828C128.331 107.804 128.115 107.792 127.911 107.792C126.951 107.792 126.447 108.26 126.447 109.616V113H125.199V106.544H126.423V107.684C126.759 106.952 127.407 106.532 128.211 106.52C128.319 106.52 128.451 106.52 128.559 106.532V107.828ZM128.929 111.26C128.929 109.688 130.777 109.268 133.285 109.004V108.872C133.285 107.732 132.685 107.348 131.893 107.348C131.029 107.348 130.537 107.792 130.489 108.584H129.229C129.337 107.216 130.465 106.388 131.941 106.388C133.609 106.388 134.569 107.192 134.545 109.124C134.545 109.28 134.521 110.396 134.521 110.672C134.521 111.632 134.581 112.424 134.701 113H133.501C133.453 112.748 133.417 112.556 133.393 112.148C133.009 112.796 132.277 113.156 131.233 113.156C129.925 113.156 128.929 112.436 128.929 111.26ZM133.345 109.928C131.341 110.12 130.285 110.396 130.285 111.236C130.285 111.824 130.753 112.196 131.509 112.196C132.541 112.196 133.345 111.68 133.345 110.396V109.928ZM138.954 106.544H140.25L141.45 111.224L142.554 106.544H143.91L142.11 113H140.946L139.59 108.008L138.27 113H137.094L135.306 106.544H136.662L137.754 111.224L138.954 106.544ZM143.598 114.152V113H148.506V114.152H143.598ZM153.885 111.104H155.145C154.845 112.172 153.885 113.156 152.241 113.156C150.153 113.156 149.025 111.632 149.025 109.76C149.025 107.756 150.369 106.424 152.205 106.424C154.197 106.424 155.361 108.056 155.229 110.156H150.309C150.429 111.344 151.185 112.088 152.193 112.088C153.093 112.088 153.621 111.716 153.885 111.104ZM150.333 109.172H153.933C153.897 108.212 153.225 107.444 152.193 107.444C151.221 107.444 150.501 107.948 150.333 109.172ZM158.567 111.332L160.187 106.544H161.483L159.095 113H157.955L155.555 106.544H156.935L158.567 111.332ZM166.623 111.104H167.883C167.583 112.172 166.623 113.156 164.979 113.156C162.891 113.156 161.763 111.632 161.763 109.76C161.763 107.756 163.107 106.424 164.943 106.424C166.935 106.424 168.099 108.056 167.967 110.156H163.047C163.167 111.344 163.923 112.088 164.931 112.088C165.831 112.088 166.359 111.716 166.623 111.104ZM163.071 109.172H166.671C166.635 108.212 165.963 107.444 164.931 107.444C163.959 107.444 163.239 107.948 163.071 109.172ZM170.44 107.48C170.812 106.844 171.46 106.424 172.468 106.424C174.028 106.424 174.628 107.432 174.628 108.932V113H173.38V109.268C173.38 108.332 173.224 107.468 172.048 107.468C170.968 107.468 170.44 108.248 170.44 109.532V113H169.192V106.544H170.44V107.48ZM176.44 104.888H177.688V106.544H178.96V107.492H177.688V111.176C177.688 111.836 177.796 112.004 178.42 112.004H178.948V113H178.036C176.728 113 176.44 112.676 176.44 111.344V107.492H175.456V106.544H176.44V104.888ZM183.844 108.344C183.664 107.684 183.112 107.42 182.38 107.42C181.768 107.42 181.108 107.672 181.108 108.2C181.108 108.68 181.42 108.884 182.008 109.004L182.932 109.184C184.156 109.424 185.224 109.844 185.224 111.104C185.224 112.412 184 113.156 182.512 113.156C180.88 113.156 179.884 112.208 179.728 110.996H181C181.168 111.728 181.648 112.16 182.548 112.16C183.352 112.16 183.976 111.824 183.976 111.248C183.976 110.648 183.412 110.408 182.74 110.276L181.768 110.084C180.796 109.892 179.884 109.46 179.884 108.248C179.884 107.108 181.084 106.412 182.5 106.412C183.796 106.412 184.84 107.096 185.08 108.344H183.844ZM185.868 114.152V113H190.776V114.152H185.868ZM193.125 111.332L194.745 106.544H196.041L193.653 113H192.513L190.113 106.544H191.493L193.125 111.332ZM198.131 104.3V105.68H196.883V104.3H198.131ZM198.131 106.544V113H196.883V106.544H198.131ZM204.229 111.104H205.489C205.189 112.172 204.229 113.156 202.585 113.156C200.497 113.156 199.369 111.632 199.369 109.76C199.369 107.756 200.713 106.424 202.549 106.424C204.541 106.424 205.705 108.056 205.573 110.156H200.653C200.773 111.344 201.529 112.088 202.537 112.088C203.437 112.088 203.965 111.716 204.229 111.104ZM200.677 109.172H204.277C204.241 108.212 203.569 107.444 202.537 107.444C201.565 107.444 200.845 107.948 200.677 109.172ZM209.63 106.544H210.926L212.126 111.224L213.23 106.544H214.586L212.786 113H211.622L210.266 108.008L208.946 113H207.77L205.982 106.544H207.338L208.43 111.224L209.63 106.544Z"/><path fill="gray" d="M243.938 120.94C243.788 120.95 243.628 120.95 243.468 120.95H242.218V124H241.078V116.75H243.378C245.328 116.75 246.498 117.16 246.498 118.84C246.498 119.88 245.998 120.47 245.098 120.75L246.768 124H245.488L243.938 120.94ZM242.218 117.69V120.02H243.528C244.598 120.02 245.328 119.86 245.328 118.86C245.328 117.82 244.538 117.69 243.508 117.69H242.218ZM251.358 122.42H252.408C252.158 123.31 251.358 124.13 249.988 124.13C248.248 124.13 247.308 122.86 247.308 121.3C247.308 119.63 248.428 118.52 249.958 118.52C251.618 118.52 252.588 119.88 252.478 121.63H248.378C248.478 122.62 249.108 123.24 249.948 123.24C250.698 123.24 251.138 122.93 251.358 122.42ZM248.398 120.81H251.398C251.368 120.01 250.808 119.37 249.948 119.37C249.138 119.37 248.538 119.79 248.398 120.81ZM253.129 122.55C253.129 121.24 254.669 120.89 256.759 120.67V120.56C256.759 119.61 256.259 119.29 255.599 119.29C254.879 119.29 254.469 119.66 254.429 120.32H253.379C253.469 119.18 254.409 118.49 255.639 118.49C257.029 118.49 257.829 119.16 257.809 120.77C257.809 120.9 257.789 121.83 257.789 122.06C257.789 122.86 257.839 123.52 257.939 124H256.939C256.899 123.79 256.869 123.63 256.849 123.29C256.529 123.83 255.919 124.13 255.049 124.13C253.959 124.13 253.129 123.53 253.129 122.55ZM256.809 121.44C255.139 121.6 254.259 121.83 254.259 122.53C254.259 123.02 254.649 123.33 255.279 123.33C256.139 123.33 256.809 122.9 256.809 121.83V121.44ZM262.724 116.75H263.764V124H262.724V123.24C262.394 123.79 261.834 124.13 261.044 124.13C259.794 124.13 258.724 123.08 258.724 121.32C258.724 119.57 259.794 118.52 261.044 118.52C261.834 118.52 262.394 118.86 262.724 119.41V116.75ZM261.284 119.39C260.424 119.39 259.834 120.11 259.834 121.32C259.834 122.53 260.424 123.26 261.284 123.26C262.084 123.26 262.764 122.65 262.764 121.32C262.764 119.99 262.084 119.39 261.284 119.39ZM268.228 120.12C268.078 119.57 267.618 119.35 267.008 119.35C266.498 119.35 265.948 119.56 265.948 120C265.948 120.4 266.208 120.57 266.698 120.67L267.468 120.82C268.488 121.02 269.378 121.37 269.378 122.42C269.378 123.51 268.358 124.13 267.118 124.13C265.758 124.13 264.928 123.34 264.798 122.33H265.858C265.998 122.94 266.398 123.3 267.148 123.3C267.818 123.3 268.338 123.02 268.338 122.54C268.338 122.04 267.868 121.84 267.308 121.73L266.498 121.57C265.688 121.41 264.928 121.05 264.928 120.04C264.928 119.09 265.928 118.51 267.108 118.51C268.188 118.51 269.058 119.08 269.258 120.12H268.228Z"/><rect width="119" height="58" x="280.5" y="79.5" fill="#333" rx="9.5"/><rect width="119" height="58" x="280.5" y="79.5" stroke="#4C4C4C" rx="9.5"/><path fill="#B2B2B2" d="M300.088 112.088C299.716 112.736 299.092 113.156 298.12 113.156C296.596 113.156 296.008 112.208 296.008 110.648V106.544H297.256V110.312C297.256 111.248 297.412 112.1 298.54 112.1C299.584 112.1 300.1 111.32 300.1 110.048V106.544H301.348V113H300.088V112.088ZM306.69 108.344C306.51 107.684 305.958 107.42 305.226 107.42C304.614 107.42 303.954 107.672 303.954 108.2C303.954 108.68 304.266 108.884 304.854 109.004L305.778 109.184C307.002 109.424 308.07 109.844 308.07 111.104C308.07 112.412 306.846 113.156 305.358 113.156C303.726 113.156 302.73 112.208 302.574 110.996H303.846C304.014 111.728 304.494 112.16 305.394 112.16C306.198 112.16 306.822 111.824 306.822 111.248C306.822 110.648 306.258 110.408 305.586 110.276L304.614 110.084C303.642 109.892 302.73 109.46 302.73 108.248C302.73 107.108 303.93 106.412 305.346 106.412C306.642 106.412 307.686 107.096 307.926 108.344H306.69ZM313.738 111.104H314.998C314.698 112.172 313.738 113.156 312.094 113.156C310.006 113.156 308.878 111.632 308.878 109.76C308.878 107.756 310.222 106.424 312.058 106.424C314.05 106.424 315.214 108.056 315.082 110.156H310.162C310.282 111.344 311.038 112.088 312.046 112.088C312.946 112.088 313.474 111.716 313.738 111.104ZM310.186 109.172H313.786C313.75 108.212 313.078 107.444 312.046 107.444C311.074 107.444 310.354 107.948 310.186 109.172ZM319.667 107.828C319.439 107.804 319.223 107.792 319.019 107.792C318.059 107.792 317.555 108.26 317.555 109.616V113H316.307V106.544H317.531V107.684C317.867 106.952 318.515 106.532 319.319 106.52C319.427 106.52 319.559 106.52 319.667 106.532V107.828ZM318.967 114.152V113H323.875V114.152H318.967ZM330.31 108.728H329.062C328.93 107.996 328.27 107.492 327.454 107.492C326.554 107.492 325.726 108.2 325.726 109.772C325.726 111.368 326.566 112.088 327.454 112.088C328.246 112.088 328.942 111.62 329.11 110.852H330.37C330.118 112.208 328.858 113.156 327.43 113.156C325.57 113.156 324.394 111.728 324.394 109.784C324.394 107.864 325.606 106.424 327.514 106.424C328.99 106.424 330.118 107.468 330.31 108.728ZM332.789 113H331.541V104.3H332.789V113ZM335.719 104.3V105.68H334.471V104.3H335.719ZM335.719 106.544V113H334.471V106.544H335.719ZM342.873 108.728H341.625C341.493 107.996 340.833 107.492 340.017 107.492C339.117 107.492 338.289 108.2 338.289 109.772C338.289 111.368 339.129 112.088 340.017 112.088C340.809 112.088 341.505 111.62 341.673 110.852H342.933C342.681 112.208 341.421 113.156 339.993 113.156C338.133 113.156 336.957 111.728 336.957 109.784C336.957 107.864 338.169 106.424 340.077 106.424C341.553 106.424 342.681 107.468 342.873 108.728ZM345.352 104.3V109.304L347.92 106.544H349.444L346.936 109.208L349.624 113H348.136L346.084 110.108L345.352 110.888V113H344.104V104.3H345.352ZM353.94 108.344C353.76 107.684 353.208 107.42 352.476 107.42C351.864 107.42 351.204 107.672 351.204 108.2C351.204 108.68 351.516 108.884 352.104 109.004L353.028 109.184C354.252 109.424 355.32 109.844 355.32 111.104C355.32 112.412 354.096 113.156 352.608 113.156C350.976 113.156 349.98 112.208 349.824 110.996H351.096C351.264 111.728 351.744 112.16 352.644 112.16C353.448 112.16 354.072 111.824 354.072 111.248C354.072 110.648 353.508 110.408 352.836 110.276L351.864 110.084C350.892 109.892 349.98 109.46 349.98 108.248C349.98 107.108 351.18 106.412 352.596 106.412C353.892 106.412 354.936 107.096 355.176 108.344H353.94ZM355.963 114.152V113H360.871V114.152H355.963ZM363.221 111.332L364.841 106.544H366.137L363.749 113H362.609L360.209 106.544H361.589L363.221 111.332ZM368.227 104.3V105.68H366.979V104.3H368.227ZM368.227 106.544V113H366.979V106.544H368.227ZM374.324 111.104H375.584C375.284 112.172 374.324 113.156 372.68 113.156C370.592 113.156 369.464 111.632 369.464 109.76C369.464 107.756 370.808 106.424 372.644 106.424C374.636 106.424 375.8 108.056 375.668 110.156H370.748C370.868 111.344 371.624 112.088 372.632 112.088C373.532 112.088 374.06 111.716 374.324 111.104ZM370.772 109.172H374.372C374.336 108.212 373.664 107.444 372.632 107.444C371.66 107.444 370.94 107.948 370.772 109.172ZM379.726 106.544H381.022L382.222 111.224L383.326 106.544H384.682L382.882 113H381.718L380.362 108.008L379.042 113H377.866L376.078 106.544H377.434L378.526 111.224L379.726 106.544Z"/><path fill="#666" d="M21 109.5C20.7239 109.5 20.5 109.276 20.5 109C20.5 108.724 20.7239 108.5 21 108.5L21 109L21 109.5ZM109.854 108.646C110.049 108.842 110.049 109.158 109.854 109.354L106.672 112.536C106.476 112.731 106.16 112.731 105.964 112.536C105.769 112.34 105.769 112.024 105.964 111.828L108.793 109L105.964 106.172C105.769 105.976 105.769 105.66 105.964 105.464C106.16 105.269 106.476 105.269 106.672 105.464L109.854 108.646ZM21 109L21 108.5L109.5 108.5L109.5 109L109.5 109.5L21 109.5L21 109Z"/><path fill="#666" d="M230 109.5C229.724 109.5 229.5 109.276 229.5 109C229.5 108.724 229.724 108.5 230 108.5L230 109L230 109.5ZM279.854 108.646C280.049 108.842 280.049 109.158 279.854 109.354L276.672 112.536C276.476 112.731 276.16 112.731 275.964 112.536C275.769 112.34 275.769 112.024 275.964 111.828L278.793 109L275.964 106.172C275.769 105.976 275.769 105.66 275.964 105.464C276.16 105.269 276.476 105.269 276.672 105.464L279.854 108.646ZM230 109L230 108.5L279.5 108.5L279.5 109L279.5 109.5L230 109.5L230 109Z"/></svg>