<svg width="750" height="178" viewBox="0 0 750 178" fill="none" xmlns="http://www.w3.org/2000/svg">
<path d="M10 0.5H595C600.247 0.5 604.5 4.75329 604.5 10V168C604.5 173.247 600.247 177.5 595 177.5H10C4.7533 177.5 0.5 173.247 0.5 168V10C0.5 4.75329 4.75329 0.5 10 0.5Z" fill="#FAFAFA"/>
<path d="M10 0.5H595C600.247 0.5 604.5 4.75329 604.5 10V168C604.5 173.247 600.247 177.5 595 177.5H10C4.7533 177.5 0.5 173.247 0.5 168V10C0.5 4.75329 4.75329 0.5 10 0.5Z" fill="#E6E6E6"/>
<path d="M10 0.5H595C600.247 0.5 604.5 4.75329 604.5 10V168C604.5 173.247 600.247 177.5 595 177.5H10C4.7533 177.5 0.5 173.247 0.5 168V10C0.5 4.75329 4.75329 0.5 10 0.5Z" stroke="#D9D9D9"/>
<path d="M30 20.5H371C376.247 20.5 380.5 24.7533 380.5 30V148C380.5 153.247 376.247 157.5 371 157.5H30C24.7533 157.5 20.5 153.247 20.5 148V30C20.5 24.7533 24.7533 20.5 30 20.5Z" fill="#F2F2F2"/>
<path d="M30 20.5H371C376.247 20.5 380.5 24.7533 380.5 30V148C380.5 153.247 376.247 157.5 371 157.5H30C24.7533 157.5 20.5 153.247 20.5 148V30C20.5 24.7533 24.7533 20.5 30 20.5Z" stroke="#D9D9D9"/>
<path d="M142.261 50.184L140.789 49.912C138.917 49.528 137.317 48.568 137.317 46.552C137.317 44.216 139.813 43.192 141.941 43.192C144.341 43.192 146.373 44.6 146.501 46.824H144.293C144.117 45.464 142.933 45.016 141.845 45.016C140.773 45.016 139.605 45.416 139.605 46.456C139.605 47.272 140.277 47.72 141.221 47.896L142.741 48.168C144.629 48.52 146.709 49.24 146.709 51.656C146.709 54.04 144.341 55.208 142.005 55.208C139.157 55.208 137.269 53.672 137.061 51.176H139.269C139.525 52.888 140.709 53.384 142.085 53.384C143.109 53.384 144.405 53 144.405 51.768C144.405 50.792 143.493 50.392 142.261 50.184ZM152.235 53.512C153.387 53.512 154.203 52.392 154.203 50.712C154.203 49.032 153.387 47.896 152.235 47.896C151.019 47.896 150.219 48.968 150.219 50.696C150.219 52.472 151.019 53.512 152.235 53.512ZM150.299 57.8H148.091V46.392H150.299V47.496C150.763 46.68 151.691 46.2 152.779 46.2C154.859 46.2 156.523 47.992 156.523 50.696C156.523 53.448 154.811 55.208 152.763 55.208C151.867 55.208 150.859 54.872 150.299 53.912V57.8ZM163.265 51.704V51.064C160.785 51.32 159.809 51.608 159.809 52.568C159.809 53.192 160.289 53.704 161.297 53.704C162.689 53.704 163.265 52.968 163.265 51.704ZM163.457 53.928C162.833 54.824 161.937 55.208 160.641 55.208C158.993 55.208 157.537 54.248 157.537 52.68C157.537 50.648 159.809 50.04 163.201 49.656V49.512C163.201 48.184 162.481 47.72 161.585 47.72C160.737 47.72 160.033 48.152 159.985 49.112H157.921C158.097 47.416 159.473 46.168 161.697 46.168C163.729 46.168 165.409 47.064 165.409 49.96C165.409 50.216 165.377 51.384 165.377 52.152C165.377 53.512 165.457 54.28 165.633 55H163.601C163.537 54.728 163.505 54.36 163.457 53.928ZM172.192 46.44V48.52C171.872 48.472 171.6 48.472 171.28 48.472C170.192 48.472 169.472 48.872 169.472 50.488V55H167.264V46.392H169.44V47.896C169.936 46.824 170.704 46.408 171.712 46.408C171.856 46.408 172.048 46.424 172.192 46.44ZM173.342 43.4H175.55V49.848L178.686 46.392H181.166L178.078 49.688L181.342 55H178.862L176.606 51.272L175.55 52.408V55H173.342V43.4ZM190.467 50.184L188.995 49.912C187.123 49.528 185.523 48.568 185.523 46.552C185.523 44.216 188.019 43.192 190.147 43.192C192.547 43.192 194.579 44.6 194.707 46.824H192.499C192.323 45.464 191.139 45.016 190.051 45.016C188.979 45.016 187.811 45.416 187.811 46.456C187.811 47.272 188.483 47.72 189.427 47.896L190.947 48.168C192.835 48.52 194.915 49.24 194.915 51.656C194.915 54.04 192.547 55.208 190.211 55.208C187.363 55.208 185.475 53.672 185.267 51.176H187.475C187.731 52.888 188.915 53.384 190.291 53.384C191.315 53.384 192.611 53 192.611 51.768C192.611 50.792 191.699 50.392 190.467 50.184ZM196.757 46.392V44.056H198.965V46.392H200.757V47.912H198.965V52.36C198.965 53.24 199.269 53.416 200.053 53.416H200.725V55H199.109C197.125 55 196.757 54.392 196.757 52.68V47.912H195.541V46.392H196.757ZM207.116 46.44V48.52C206.796 48.472 206.524 48.472 206.204 48.472C205.116 48.472 204.396 48.872 204.396 50.488V55H202.188V46.392H204.364V47.896C204.86 46.824 205.628 46.408 206.636 46.408C206.78 46.408 206.972 46.424 207.116 46.44ZM216.25 51.304H209.898C210.026 52.776 211.018 53.496 212.074 53.496C212.762 53.496 213.434 53.256 213.882 52.504H216.154C215.69 53.784 214.442 55.208 212.09 55.208C209.322 55.208 207.706 53.144 207.706 50.664C207.706 48.104 209.482 46.2 212.026 46.2C214.682 46.2 216.33 48.264 216.25 51.304ZM212.01 47.816C211.178 47.816 210.106 48.328 209.93 49.784H214.01C213.962 48.328 212.938 47.816 212.01 47.816ZM223.064 51.704V51.064C220.584 51.32 219.608 51.608 219.608 52.568C219.608 53.192 220.088 53.704 221.096 53.704C222.488 53.704 223.064 52.968 223.064 51.704ZM223.256 53.928C222.632 54.824 221.736 55.208 220.44 55.208C218.792 55.208 217.336 54.248 217.336 52.68C217.336 50.648 219.608 50.04 223 49.656V49.512C223 48.184 222.28 47.72 221.384 47.72C220.536 47.72 219.832 48.152 219.784 49.112H217.72C217.896 47.416 219.272 46.168 221.496 46.168C223.528 46.168 225.208 47.064 225.208 49.96C225.208 50.216 225.176 51.384 225.176 52.152C225.176 53.512 225.256 54.28 225.432 55H223.4C223.336 54.728 223.304 54.36 223.256 53.928ZM237.656 55V49.992C237.656 49.048 237.576 47.976 236.28 47.976C234.808 47.976 234.568 49.208 234.568 50.52V55H232.36V49.992C232.36 49.048 232.28 47.976 230.984 47.976C229.512 47.976 229.272 49.208 229.272 50.52V55H227.064V46.392H229.272V47.528C229.768 46.68 230.632 46.2 231.672 46.2C233.128 46.2 233.784 46.984 234.12 47.608C234.808 46.648 235.656 46.2 236.952 46.2C239.112 46.2 239.864 47.544 239.864 49.576V55H237.656ZM241.736 46.392H243.944V55H241.736V46.392ZM241.736 43.4H243.944V45.448H241.736V43.4ZM248.148 46.392V47.528C248.644 46.648 249.572 46.2 250.644 46.2C252.708 46.2 253.62 47.448 253.62 49.576V55H251.412V50.056C251.412 48.952 251.172 47.976 249.924 47.976C248.468 47.976 248.148 49.16 248.148 50.52V55H245.94V46.392H248.148ZM259.231 53.016C260.463 53.016 261.215 51.976 261.215 50.44C261.215 48.92 260.463 47.88 259.231 47.88C258.095 47.88 257.247 49.016 257.247 50.456C257.247 51.88 258.095 53.016 259.231 53.016ZM261.135 46.392H263.327V54.136C263.327 56.952 261.743 58.008 259.103 58.008C257.263 58.008 255.647 57.336 255.343 55.336H257.439C257.631 56.04 258.223 56.392 259.215 56.392C260.367 56.392 261.135 55.848 261.135 54.552V53.4C260.575 54.344 259.567 54.696 258.671 54.696C256.559 54.696 254.927 52.952 254.927 50.44C254.927 47.992 256.511 46.2 258.671 46.2C259.759 46.2 260.751 46.76 261.135 47.512V46.392Z" fill="#0D0D0D"/>
<rect x="40.5" y="79.5" width="122" height="58" rx="9.5" fill="white"/>
<rect x="40.5" y="79.5" width="122" height="58" rx="9.5" stroke="#D9D9D9"/>
<path d="M57.5624 108.56L61.3784 104.3H63.0344L59.7944 107.852L63.3704 113H61.7504L58.8824 108.848L57.5624 110.3V113H56.1944V104.3H57.5624V108.56ZM63.6708 111.26C63.6708 109.688 65.5188 109.268 68.0268 109.004V108.872C68.0268 107.732 67.4268 107.348 66.6348 107.348C65.7708 107.348 65.2788 107.792 65.2308 108.584H63.9708C64.0788 107.216 65.2068 106.388 66.6828 106.388C68.3508 106.388 69.3108 107.192 69.2868 109.124C69.2868 109.28 69.2628 110.396 69.2628 110.672C69.2628 111.632 69.3228 112.424 69.4428 113H68.2428C68.1948 112.748 68.1588 112.556 68.1348 112.148C67.7508 112.796 67.0188 113.156 65.9748 113.156C64.6668 113.156 63.6708 112.436 63.6708 111.26ZM68.0868 109.928C66.0828 110.12 65.0268 110.396 65.0268 111.236C65.0268 111.824 65.4948 112.196 66.2508 112.196C67.2828 112.196 68.0868 111.68 68.0868 110.396V109.928ZM71.0563 106.112C71.0563 104.684 71.4763 104.3 72.9883 104.3H73.5523V105.296H73.0723C72.4363 105.296 72.3043 105.428 72.3043 106.1V106.544H73.5523V107.492H72.3043V113H71.0563V107.492H70.1563V106.544H71.0563V106.112ZM75.8966 104.3V109.304L78.4646 106.544H79.9886L77.4806 109.208L80.1686 113H78.6806L76.6286 110.108L75.8966 110.888V113H74.6486V104.3H75.8966ZM80.3935 111.26C80.3935 109.688 82.2415 109.268 84.7495 109.004V108.872C84.7495 107.732 84.1495 107.348 83.3575 107.348C82.4935 107.348 82.0015 107.792 81.9535 108.584H80.6935C80.8015 107.216 81.9295 106.388 83.4055 106.388C85.0735 106.388 86.0335 107.192 86.0095 109.124C86.0095 109.28 85.9855 110.396 85.9855 110.672C85.9855 111.632 86.0455 112.424 86.1655 113H84.9655C84.9175 112.748 84.8815 112.556 84.8575 112.148C84.4735 112.796 83.7415 113.156 82.6975 113.156C81.3895 113.156 80.3935 112.436 80.3935 111.26ZM84.8095 109.928C82.8055 110.12 81.7495 110.396 81.7495 111.236C81.7495 111.824 82.2175 112.196 82.9735 112.196C84.0055 112.196 84.8095 111.68 84.8095 110.396V109.928ZM97.8394 110.168C97.4674 112.1 96.0154 113.156 94.0834 113.156C91.5634 113.156 90.0994 111.308 90.0994 108.632C90.0994 105.908 91.6714 104.144 94.1674 104.144C96.0274 104.144 97.4434 105.224 97.8034 107.132H96.4834C96.2194 106.004 95.3794 105.284 94.1074 105.284C92.6434 105.284 91.5034 106.448 91.5034 108.632C91.5034 110.78 92.6074 112.016 94.1194 112.016C95.4034 112.016 96.2554 111.32 96.5194 110.168H97.8394ZM104.973 109.796C104.973 112.124 103.365 113.156 101.829 113.156C100.305 113.156 98.6971 112.124 98.6971 109.796C98.6971 107.456 100.305 106.424 101.829 106.424C103.365 106.424 104.973 107.456 104.973 109.796ZM101.829 112.1C102.777 112.1 103.653 111.368 103.653 109.796C103.653 108.188 102.777 107.48 101.829 107.48C100.893 107.48 100.017 108.164 100.017 109.796C100.017 111.392 100.893 112.1 101.829 112.1ZM107.467 107.48C107.839 106.844 108.487 106.424 109.495 106.424C111.055 106.424 111.655 107.432 111.655 108.932V113H110.407V109.268C110.407 108.332 110.251 107.468 109.075 107.468C107.995 107.468 107.467 108.248 107.467 109.532V113H106.219V106.544H107.467V107.48ZM116.887 108.344C116.707 107.684 116.155 107.42 115.423 107.42C114.811 107.42 114.151 107.672 114.151 108.2C114.151 108.68 114.463 108.884 115.051 109.004L115.975 109.184C117.199 109.424 118.267 109.844 118.267 111.104C118.267 112.412 117.043 113.156 115.555 113.156C113.923 113.156 112.927 112.208 112.771 110.996H114.043C114.211 111.728 114.691 112.16 115.591 112.16C116.395 112.16 117.019 111.824 117.019 111.248C117.019 110.648 116.455 110.408 115.783 110.276L114.811 110.084C113.839 109.892 112.927 109.46 112.927 108.248C112.927 107.108 114.127 106.412 115.543 106.412C116.839 106.412 117.883 107.096 118.123 108.344H116.887ZM123.504 112.088C123.132 112.736 122.508 113.156 121.536 113.156C120.012 113.156 119.424 112.208 119.424 110.648V106.544H120.672V110.312C120.672 111.248 120.828 112.1 121.956 112.1C123 112.1 123.516 111.32 123.516 110.048V106.544H124.764V113H123.504V112.088ZM127.682 113H126.434V106.544H127.682V107.48C128.054 106.844 128.666 106.424 129.59 106.424C130.586 106.424 131.174 106.844 131.462 107.564C132.002 106.76 132.758 106.424 133.598 106.424C135.11 106.424 135.698 107.432 135.698 108.932V113H134.45V109.268C134.45 108.332 134.306 107.468 133.178 107.468C132.194 107.468 131.69 108.248 131.69 109.532V113H130.442V109.268C130.442 108.332 130.298 107.468 129.17 107.468C128.174 107.468 127.682 108.248 127.682 109.532V113ZM141.69 111.104H142.95C142.65 112.172 141.69 113.156 140.046 113.156C137.958 113.156 136.83 111.632 136.83 109.76C136.83 107.756 138.174 106.424 140.01 106.424C142.002 106.424 143.166 108.056 143.034 110.156H138.114C138.234 111.344 138.99 112.088 139.998 112.088C140.898 112.088 141.426 111.716 141.69 111.104ZM138.138 109.172H141.738C141.702 108.212 141.03 107.444 139.998 107.444C139.026 107.444 138.306 107.948 138.138 109.172ZM147.618 107.828C147.39 107.804 147.174 107.792 146.97 107.792C146.01 107.792 145.506 108.26 145.506 109.616V113H144.258V106.544H145.482V107.684C145.818 106.952 146.466 106.532 147.27 106.52C147.378 106.52 147.51 106.52 147.618 106.532V107.828Z" fill="#666666"/>
<path d="M163 109.001C162.724 109.001 162.5 108.777 162.5 108.501C162.5 108.225 162.724 108.001 163 108.001L163 108.501L163 109.001ZM183.354 108.146C183.549 108.342 183.549 108.658 183.354 108.854L180.172 112.036C179.977 112.231 179.66 112.231 179.465 112.036C179.269 111.84 179.269 111.524 179.465 111.329L182.293 108.5L179.464 105.672C179.269 105.477 179.269 105.16 179.464 104.965C179.66 104.769 179.976 104.769 180.171 104.965L183.354 108.146ZM163 108.501L163 108.001L183 108L183 108.5L183 109L163 109.001L163 108.501Z" fill="#CCCCCC"/>
<rect x="183.5" y="79.5" width="93" height="58" rx="9.5" fill="white"/>
<rect x="183.5" y="79.5" width="93" height="58" rx="9.5" stroke="#D9D9D9"/>
<path d="M201.675 104.3H203.187L206.463 113H204.975L204.291 111.092H200.511L199.839 113H198.447L201.675 104.3ZM200.919 109.94H203.871L202.383 105.788L200.919 109.94ZM211.657 106.544H212.905V112.244C212.905 113.432 212.653 114.068 212.209 114.512C211.717 115.028 210.937 115.292 209.953 115.292C208.513 115.292 207.457 114.668 207.253 113.312H208.537C208.669 113.9 209.041 114.248 209.977 114.248C210.589 114.248 211.009 114.08 211.273 113.78C211.525 113.504 211.657 113.168 211.657 112.508V111.824C211.261 112.484 210.613 112.892 209.665 112.892C208.165 112.892 206.917 111.704 206.917 109.652C206.917 107.612 208.165 106.424 209.665 106.424C210.613 106.424 211.261 106.832 211.657 107.492V106.544ZM209.953 107.456C208.921 107.456 208.249 108.272 208.249 109.652C208.249 111.056 208.921 111.872 209.953 111.872C210.913 111.872 211.705 111.2 211.705 109.652C211.705 108.116 210.913 107.456 209.953 107.456ZM218.865 106.544H220.113V112.244C220.113 113.432 219.861 114.068 219.417 114.512C218.925 115.028 218.145 115.292 217.161 115.292C215.721 115.292 214.665 114.668 214.461 113.312H215.745C215.877 113.9 216.249 114.248 217.185 114.248C217.797 114.248 218.217 114.08 218.481 113.78C218.733 113.504 218.865 113.168 218.865 112.508V111.824C218.469 112.484 217.821 112.892 216.873 112.892C215.373 112.892 214.125 111.704 214.125 109.652C214.125 107.612 215.373 106.424 216.873 106.424C217.821 106.424 218.469 106.832 218.865 107.492V106.544ZM217.161 107.456C216.129 107.456 215.457 108.272 215.457 109.652C215.457 111.056 216.129 111.872 217.161 111.872C218.121 111.872 218.913 111.2 218.913 109.652C218.913 108.116 218.121 107.456 217.161 107.456ZM225.136 107.828C224.908 107.804 224.692 107.792 224.488 107.792C223.528 107.792 223.024 108.26 223.024 109.616V113H221.776V106.544H223V107.684C223.336 106.952 223.984 106.532 224.788 106.52C224.896 106.52 225.028 106.52 225.136 106.532V107.828ZM230.422 111.104H231.682C231.382 112.172 230.422 113.156 228.778 113.156C226.69 113.156 225.562 111.632 225.562 109.76C225.562 107.756 226.906 106.424 228.742 106.424C230.734 106.424 231.898 108.056 231.766 110.156H226.846C226.966 111.344 227.722 112.088 228.73 112.088C229.63 112.088 230.158 111.716 230.422 111.104ZM226.87 109.172H230.47C230.434 108.212 229.762 107.444 228.73 107.444C227.758 107.444 227.038 107.948 226.87 109.172ZM237.345 106.544H238.593V112.244C238.593 113.432 238.341 114.068 237.897 114.512C237.405 115.028 236.625 115.292 235.641 115.292C234.201 115.292 233.145 114.668 232.941 113.312H234.225C234.357 113.9 234.729 114.248 235.665 114.248C236.277 114.248 236.697 114.08 236.961 113.78C237.213 113.504 237.345 113.168 237.345 112.508V111.824C236.949 112.484 236.301 112.892 235.353 112.892C233.853 112.892 232.605 111.704 232.605 109.652C232.605 107.612 233.853 106.424 235.353 106.424C236.301 106.424 236.949 106.832 237.345 107.492V106.544ZM235.641 107.456C234.609 107.456 233.937 108.272 233.937 109.652C233.937 111.056 234.609 111.872 235.641 111.872C236.601 111.872 237.393 111.2 237.393 109.652C237.393 108.116 236.601 107.456 235.641 107.456ZM239.872 111.26C239.872 109.688 241.72 109.268 244.228 109.004V108.872C244.228 107.732 243.628 107.348 242.836 107.348C241.972 107.348 241.48 107.792 241.432 108.584H240.172C240.28 107.216 241.408 106.388 242.884 106.388C244.552 106.388 245.512 107.192 245.488 109.124C245.488 109.28 245.464 110.396 245.464 110.672C245.464 111.632 245.524 112.424 245.644 113H244.444C244.396 112.748 244.36 112.556 244.336 112.148C243.952 112.796 243.22 113.156 242.176 113.156C240.868 113.156 239.872 112.436 239.872 111.26ZM244.288 109.928C242.284 110.12 241.228 110.396 241.228 111.236C241.228 111.824 241.696 112.196 242.452 112.196C243.484 112.196 244.288 111.68 244.288 110.396V109.928ZM247.281 104.888H248.529V106.544H249.801V107.492H248.529V111.176C248.529 111.836 248.637 112.004 249.261 112.004H249.789V113H248.877C247.569 113 247.281 112.676 247.281 111.344V107.492H246.297V106.544H247.281V104.888ZM256.799 109.796C256.799 112.124 255.191 113.156 253.655 113.156C252.131 113.156 250.523 112.124 250.523 109.796C250.523 107.456 252.131 106.424 253.655 106.424C255.191 106.424 256.799 107.456 256.799 109.796ZM253.655 112.1C254.603 112.1 255.479 111.368 255.479 109.796C255.479 108.188 254.603 107.48 253.655 107.48C252.719 107.48 251.843 108.164 251.843 109.796C251.843 111.392 252.719 112.1 253.655 112.1ZM261.405 107.828C261.177 107.804 260.961 107.792 260.757 107.792C259.797 107.792 259.293 108.26 259.293 109.616V113H258.045V106.544H259.269V107.684C259.605 106.952 260.253 106.532 261.057 106.52C261.165 106.52 261.297 106.52 261.405 106.532V107.828Z" fill="#666666"/>
<path d="M277 109.001C276.724 109.001 276.5 108.777 276.5 108.501C276.5 108.225 276.724 108.001 277 108.001L277 108.501L277 109.001ZM297.354 108.146C297.549 108.342 297.549 108.658 297.354 108.854L294.172 112.036C293.977 112.231 293.66 112.231 293.465 112.036C293.269 111.84 293.269 111.524 293.465 111.329L296.293 108.5L293.464 105.672C293.269 105.477 293.269 105.16 293.464 104.965C293.66 104.769 293.976 104.769 294.171 104.965L297.354 108.146ZM277 108.501L277 108.001L297 108L297 108.5L297 109L277 109.001L277 108.501Z" fill="#CCCCCC"/>
<rect x="297.5" y="79.5" width="63" height="58" rx="9.5" fill="white"/>
<rect x="297.5" y="79.5" width="63" height="58" rx="9.5" stroke="#D9D9D9"/>
<path d="M320.231 111.332L321.695 104.3H323.135L321.035 113H319.391L317.819 106.076L316.271 113H314.627L312.491 104.3H313.991L315.527 111.332L317.027 104.3H318.623L320.231 111.332ZM327.305 107.828C327.077 107.804 326.861 107.792 326.657 107.792C325.697 107.792 325.193 108.26 325.193 109.616V113H323.945V106.544H325.169V107.684C325.505 106.952 326.153 106.532 326.957 106.52C327.065 106.52 327.197 106.52 327.305 106.532V107.828ZM329.541 104.3V105.68H328.293V104.3H329.541ZM329.541 106.544V113H328.293V106.544H329.541ZM331.475 104.888H332.723V106.544H333.995V107.492H332.723V111.176C332.723 111.836 332.831 112.004 333.455 112.004H333.983V113H333.071C331.763 113 331.475 112.676 331.475 111.344V107.492H330.491V106.544H331.475V104.888ZM339.565 111.104H340.825C340.525 112.172 339.565 113.156 337.921 113.156C335.833 113.156 334.705 111.632 334.705 109.76C334.705 107.756 336.049 106.424 337.885 106.424C339.877 106.424 341.041 108.056 340.909 110.156H335.989C336.109 111.344 336.865 112.088 337.873 112.088C338.773 112.088 339.301 111.716 339.565 111.104ZM336.013 109.172H339.613C339.577 108.212 338.905 107.444 337.873 107.444C336.901 107.444 336.181 107.948 336.013 109.172ZM345.493 107.828C345.265 107.804 345.049 107.792 344.845 107.792C343.885 107.792 343.381 108.26 343.381 109.616V113H342.133V106.544H343.357V107.684C343.693 106.952 344.341 106.532 345.145 106.52C345.253 106.52 345.385 106.52 345.493 106.532V107.828Z" fill="#666666"/>
<path d="M406.144 122.5H405.004V115.25H406.144V122.5ZM408.688 117.9C408.998 117.37 409.538 117.02 410.378 117.02C411.678 117.02 412.178 117.86 412.178 119.11V122.5H411.138V119.39C411.138 118.61 411.008 117.89 410.028 117.89C409.128 117.89 408.688 118.54 408.688 119.61V122.5H407.648V117.12H408.688V117.9ZM416.538 118.62C416.388 118.07 415.928 117.85 415.318 117.85C414.808 117.85 414.258 118.06 414.258 118.5C414.258 118.9 414.518 119.07 415.008 119.17L415.778 119.32C416.798 119.52 417.688 119.87 417.688 120.92C417.688 122.01 416.668 122.63 415.428 122.63C414.068 122.63 413.238 121.84 413.108 120.83H414.168C414.308 121.44 414.708 121.8 415.458 121.8C416.128 121.8 416.648 121.52 416.648 121.04C416.648 120.54 416.178 120.34 415.618 120.23L414.808 120.07C413.998 119.91 413.238 119.55 413.238 118.54C413.238 117.59 414.238 117.01 415.418 117.01C416.498 117.01 417.368 117.58 417.568 118.62H416.538ZM422.412 120.92H423.462C423.212 121.81 422.412 122.63 421.042 122.63C419.302 122.63 418.362 121.36 418.362 119.8C418.362 118.13 419.482 117.02 421.012 117.02C422.672 117.02 423.642 118.38 423.532 120.13H419.432C419.532 121.12 420.162 121.74 421.002 121.74C421.752 121.74 422.192 121.43 422.412 120.92ZM419.452 119.31H422.452C422.422 118.51 421.862 117.87 421.002 117.87C420.192 117.87 419.592 118.29 419.452 119.31ZM427.353 118.19C427.163 118.17 426.983 118.16 426.813 118.16C426.013 118.16 425.593 118.55 425.593 119.68V122.5H424.553V117.12H425.573V118.07C425.853 117.46 426.393 117.11 427.063 117.1C427.153 117.1 427.263 117.1 427.353 117.11V118.19ZM428.386 115.74H429.426V117.12H430.486V117.91H429.426V120.98C429.426 121.53 429.516 121.67 430.036 121.67H430.476V122.5H429.716C428.626 122.5 428.386 122.23 428.386 121.12V117.91H427.566V117.12H428.386V115.74ZM401.81 131.83C401.81 133.77 400.47 134.63 399.19 134.63C397.92 134.63 396.58 133.77 396.58 131.83C396.58 129.88 397.92 129.02 399.19 129.02C400.47 129.02 401.81 129.88 401.81 131.83ZM399.19 133.75C399.98 133.75 400.71 133.14 400.71 131.83C400.71 130.49 399.98 129.9 399.19 129.9C398.41 129.9 397.68 130.47 397.68 131.83C397.68 133.16 398.41 133.75 399.19 133.75ZM404.561 133.11L405.911 129.12H406.991L405.001 134.5H404.051L402.051 129.12H403.201L404.561 133.11ZM411.275 132.92H412.325C412.075 133.81 411.275 134.63 409.905 134.63C408.165 134.63 407.225 133.36 407.225 131.8C407.225 130.13 408.345 129.02 409.875 129.02C411.535 129.02 412.505 130.38 412.395 132.13H408.295C408.395 133.12 409.025 133.74 409.865 133.74C410.615 133.74 411.055 133.43 411.275 132.92ZM408.315 131.31H411.315C411.285 130.51 410.725 129.87 409.865 129.87C409.055 129.87 408.455 130.29 408.315 131.31ZM416.215 130.19C416.025 130.17 415.845 130.16 415.675 130.16C414.875 130.16 414.455 130.55 414.455 131.68V134.5H413.415V129.12H414.435V130.07C414.715 129.46 415.255 129.11 415.925 129.1C416.015 129.1 416.125 129.1 416.215 129.11V130.19ZM419.428 129.12H420.508L421.508 133.02L422.428 129.12H423.558L422.058 134.5H421.088L419.958 130.34L418.858 134.5H417.878L416.388 129.12H417.518L418.428 133.02L419.428 129.12ZM427.104 130.19C426.914 130.17 426.734 130.16 426.564 130.16C425.764 130.16 425.344 130.55 425.344 131.68V134.5H424.304V129.12H425.324V130.07C425.604 129.46 426.144 129.11 426.814 129.1C426.904 129.1 427.014 129.1 427.104 129.11V130.19ZM428.967 127.25V128.4H427.927V127.25H428.967ZM428.967 129.12V134.5H427.927V129.12H428.967ZM430.578 127.74H431.618V129.12H432.678V129.91H431.618V132.98C431.618 133.53 431.708 133.67 432.228 133.67H432.668V134.5H431.908C430.818 134.5 430.578 134.23 430.578 133.12V129.91H429.758V129.12H430.578V127.74ZM437.319 132.92H438.369C438.119 133.81 437.319 134.63 435.949 134.63C434.209 134.63 433.269 133.36 433.269 131.8C433.269 130.13 434.389 129.02 435.919 129.02C437.579 129.02 438.549 130.38 438.439 132.13H434.339C434.439 133.12 435.069 133.74 435.909 133.74C436.659 133.74 437.099 133.43 437.319 132.92ZM434.359 131.31H437.359C437.329 130.51 436.769 129.87 435.909 129.87C435.099 129.87 434.499 130.29 434.359 131.31Z" fill="#B2B2B2"/>
<path d="M464 20.5H575C580.247 20.5 584.5 24.7533 584.5 30V148C584.5 153.247 580.247 157.5 575 157.5H464C458.753 157.5 454.5 153.247 454.5 148V30C454.5 24.7533 458.753 20.5 464 20.5Z" fill="#F2F2F2"/>
<path d="M464 20.5H575C580.247 20.5 584.5 24.7533 584.5 30V148C584.5 153.247 580.247 157.5 575 157.5H464C458.753 157.5 454.5 153.247 454.5 148V30C454.5 24.7533 458.753 20.5 464 20.5Z" stroke="#D9D9D9"/>
<path d="M497.59 49.192C497.59 45.72 495.526 45.192 493.414 45.192H492.358V53.208H493.414C495.526 53.208 497.59 52.696 497.59 49.192ZM490.07 43.4H493.51C497.19 43.4 499.958 44.584 499.958 49.192C499.958 53.8 497.19 55 493.51 55H490.07V43.4ZM506.647 55V53.864C506.151 54.744 505.207 55.208 504.135 55.208C502.071 55.208 501.239 53.944 501.239 51.832V46.392H503.447V51.352C503.447 52.504 503.623 53.432 504.855 53.432C506.327 53.432 506.647 52.232 506.647 50.872V46.392H508.855V55H506.647ZM514.611 46.2C516.419 46.2 518.211 47.208 518.515 49.336H516.403C516.227 48.504 515.459 47.912 514.611 47.912C513.459 47.912 512.547 48.888 512.547 50.68C512.547 52.488 513.411 53.496 514.627 53.496C515.395 53.496 516.179 53.096 516.483 52.072H518.595C518.083 54.424 516.307 55.208 514.515 55.208C511.939 55.208 510.291 53.32 510.291 50.712C510.291 48.088 512.035 46.2 514.611 46.2ZM519.93 43.4H522.138V49.848L525.274 46.392H527.754L524.666 49.688L527.93 55H525.45L523.194 51.272L522.138 52.408V55H519.93V43.4ZM536.389 49.192C536.389 45.72 534.325 45.192 532.213 45.192H531.157V53.208H532.213C534.325 53.208 536.389 52.696 536.389 49.192ZM528.869 43.4H532.309C535.989 43.4 538.757 44.584 538.757 49.192C538.757 53.8 535.989 55 532.309 55H528.869V43.4ZM540.385 55V43.4H544.897C546.929 43.4 549.121 44.04 549.121 46.424C549.121 47.512 548.401 48.488 547.809 48.872C548.705 49.304 549.537 49.976 549.537 51.576C549.537 54.072 547.473 55 545.089 55H540.385ZM542.673 49.912V53.208H545.201C546.545 53.208 547.201 52.648 547.201 51.576C547.201 50.488 546.529 49.912 545.105 49.912H542.673ZM542.673 45.192V48.184H545.041C546.129 48.184 546.769 47.672 546.769 46.648C546.769 45.736 546.113 45.192 545.041 45.192H542.673Z" fill="#0D0D0D"/>
<rect x="474.5" y="79.5" width="90" height="58" rx="9.5" fill="white"/>
<rect x="474.5" y="79.5" width="90" height="58" rx="9.5" stroke="#D9D9D9"/>
<path d="M494.09 112.088C493.718 112.736 493.094 113.156 492.122 113.156C490.598 113.156 490.01 112.208 490.01 110.648V106.544H491.258V110.312C491.258 111.248 491.414 112.1 492.542 112.1C493.586 112.1 494.102 111.32 494.102 110.048V106.544H495.35V113H494.09V112.088ZM500.692 108.344C500.512 107.684 499.96 107.42 499.228 107.42C498.616 107.42 497.956 107.672 497.956 108.2C497.956 108.68 498.268 108.884 498.856 109.004L499.78 109.184C501.004 109.424 502.072 109.844 502.072 111.104C502.072 112.412 500.848 113.156 499.36 113.156C497.728 113.156 496.732 112.208 496.576 110.996H497.848C498.016 111.728 498.496 112.16 499.396 112.16C500.2 112.16 500.824 111.824 500.824 111.248C500.824 110.648 500.26 110.408 499.588 110.276L498.616 110.084C497.644 109.892 496.732 109.46 496.732 108.248C496.732 107.108 497.932 106.412 499.348 106.412C500.644 106.412 501.688 107.096 501.928 108.344H500.692ZM507.74 111.104H509C508.7 112.172 507.74 113.156 506.096 113.156C504.008 113.156 502.88 111.632 502.88 109.76C502.88 107.756 504.224 106.424 506.06 106.424C508.052 106.424 509.216 108.056 509.084 110.156H504.164C504.284 111.344 505.04 112.088 506.048 112.088C506.948 112.088 507.476 111.716 507.74 111.104ZM504.188 109.172H507.788C507.752 108.212 507.08 107.444 506.048 107.444C505.076 107.444 504.356 107.948 504.188 109.172ZM513.669 107.828C513.441 107.804 513.225 107.792 513.021 107.792C512.061 107.792 511.557 108.26 511.557 109.616V113H510.309V106.544H511.533V107.684C511.869 106.952 512.517 106.532 513.321 106.52C513.429 106.52 513.561 106.52 513.669 106.532V107.828ZM512.969 114.152V113H517.877V114.152H512.969ZM524.312 108.728H523.064C522.932 107.996 522.272 107.492 521.456 107.492C520.556 107.492 519.728 108.2 519.728 109.772C519.728 111.368 520.568 112.088 521.456 112.088C522.248 112.088 522.944 111.62 523.112 110.852H524.372C524.12 112.208 522.86 113.156 521.432 113.156C519.572 113.156 518.396 111.728 518.396 109.784C518.396 107.864 519.608 106.424 521.516 106.424C522.992 106.424 524.12 107.468 524.312 108.728ZM526.791 113H525.543V104.3H526.791V113ZM529.721 104.3V105.68H528.473V104.3H529.721ZM529.721 106.544V113H528.473V106.544H529.721ZM536.875 108.728H535.627C535.495 107.996 534.835 107.492 534.019 107.492C533.119 107.492 532.291 108.2 532.291 109.772C532.291 111.368 533.131 112.088 534.019 112.088C534.811 112.088 535.507 111.62 535.675 110.852H536.935C536.683 112.208 535.423 113.156 533.995 113.156C532.135 113.156 530.958 111.728 530.958 109.784C530.958 107.864 532.171 106.424 534.079 106.424C535.555 106.424 536.683 107.468 536.875 108.728ZM539.354 104.3V109.304L541.922 106.544H543.446L540.938 109.208L543.626 113H542.138L540.086 110.108L539.354 110.888V113H538.106V104.3H539.354ZM547.942 108.344C547.762 107.684 547.21 107.42 546.478 107.42C545.866 107.42 545.206 107.672 545.206 108.2C545.206 108.68 545.518 108.884 546.106 109.004L547.03 109.184C548.254 109.424 549.322 109.844 549.322 111.104C549.322 112.412 548.098 113.156 546.61 113.156C544.978 113.156 543.982 112.208 543.826 110.996H545.098C545.266 111.728 545.746 112.16 546.646 112.16C547.45 112.16 548.074 111.824 548.074 111.248C548.074 110.648 547.51 110.408 546.838 110.276L545.866 110.084C544.894 109.892 543.982 109.46 543.982 108.248C543.982 107.108 545.182 106.412 546.598 106.412C547.894 106.412 548.938 107.096 549.178 108.344H547.942Z" fill="#666666"/>
<path d="M360.512 107.898C360.236 107.898 360.012 107.675 360.012 107.398C360.012 107.122 360.236 106.898 360.512 106.898L360.512 107.398L360.512 107.898ZM473.854 107.045C474.049 107.24 474.049 107.557 473.854 107.752L470.672 110.934C470.476 111.129 470.16 111.129 469.964 110.934C469.769 110.739 469.769 110.422 469.964 110.227L472.793 107.398L469.964 104.57C469.769 104.375 469.769 104.058 469.964 103.863C470.16 103.668 470.476 103.668 470.672 103.863L473.854 107.045ZM360.512 107.398L360.512 106.898L473.5 106.898L473.5 107.398L473.5 107.898L360.512 107.898L360.512 107.398Z" fill="#CCCCCC"/>
</svg>
