<svg width="367" height="367" viewBox="0 0 367 367" fill="none" xmlns="http://www.w3.org/2000/svg">
<g clip-path="url(#clip0_7489_34013)">
<rect width="367" height="367" fill="#A899FF"/>
<g clip-path="url(#clip1_7489_34013)">
<rect width="367" height="367" fill="#A899FF"/>
<path d="M45.8749 218.949L45.875 126.425C45.875 110.17 59.0522 96.9931 75.307 96.9931L135.823 96.9931C151.658 96.9931 164.495 84.1562 164.495 68.3212C164.495 52.4862 177.331 39.6493 193.167 39.6493L258.27 39.6493C274.525 39.6493 287.702 26.4722 287.702 10.2173L287.702 -2.6802C287.702 -18.9351 274.525 -32.1123 258.27 -32.1123L-29.5499 -32.1123C-45.8047 -32.1123 -58.9819 -18.9351 -58.9819 -2.68021L-58.9819 218.949C-58.9819 235.204 -45.8048 248.381 -29.5499 248.381L16.4428 248.381C32.6977 248.381 45.8749 235.204 45.8749 218.949Z" fill="#9787F2"/>
<path d="M79.9536 306.976L79.9537 355.918C79.9537 372.173 93.1309 385.35 109.386 385.35L389.013 385.35C405.268 385.35 418.445 372.173 418.445 355.918L418.445 87.7593C418.445 71.5044 405.268 58.3272 389.013 58.3272L325.981 58.3272C309.726 58.3272 296.549 71.5044 296.549 87.7593L296.549 248.112C296.549 264.367 283.372 277.544 267.117 277.544L109.386 277.544C93.1308 277.544 79.9536 290.721 79.9536 306.976Z" fill="#9787F2"/>
<path d="M455.474 86.5068L455.474 262.798C455.474 270.037 449.605 275.905 442.367 275.905L349.961 275.905C342.722 275.905 336.854 281.774 336.854 289.013L336.854 320.142C336.854 327.381 330.986 333.249 323.747 333.249L226.754 333.249C219.515 333.249 213.647 339.117 213.647 346.356L213.647 391.904C213.647 399.142 219.515 405.011 226.754 405.011L547.223 405.011C554.462 405.011 560.331 399.142 560.331 391.904L560.331 86.5069C560.331 79.268 554.462 73.3997 547.223 73.3997L468.581 73.3997C461.342 73.3997 455.474 79.2679 455.474 86.5068Z" fill="#A899FF"/>
</g>
<rect x="99" y="155" width="168.287" height="56.8021" fill="black"/>
<path d="M142.969 186.157H145.736C145.35 189.148 142.867 191.265 139.347 191.265C134.952 191.265 132.45 188.274 132.45 183.553C132.45 178.894 135.135 175.984 139.429 175.984C142.888 175.984 145.248 177.958 145.736 181.03H142.969C142.42 178.975 141.036 178.303 139.408 178.303C137.19 178.303 135.461 180.135 135.461 183.553C135.461 187.073 137.19 188.945 139.307 188.945C141.056 188.945 142.481 188.172 142.969 186.157ZM150.492 176.248V191H147.583V176.248H150.492ZM162.709 183.614C162.709 179.199 160.085 178.527 157.399 178.527H156.056V188.721H157.399C160.085 188.721 162.709 188.07 162.709 183.614ZM153.146 176.248H157.521C162.201 176.248 165.721 177.754 165.721 183.614C165.721 189.474 162.201 191 157.521 191H153.146V176.248ZM176.703 191L173.773 185.221H173.081H170.68V191H167.771V176.248H172.613C177.476 176.248 179.328 177.632 179.328 180.725C179.328 182.434 178.514 183.818 176.662 184.611L179.938 191H176.703ZM172.939 178.527H170.68V182.963H173.081C175.36 182.963 176.337 182.21 176.337 180.745C176.337 179.036 174.913 178.527 172.939 178.527ZM190.933 175.984C193.883 175.984 195.775 177.368 195.775 179.952C195.775 182.698 193.089 185.608 188.552 188.64H196.121V191H185.276V188.721C190.017 184.916 192.947 182.434 192.947 180.094C192.947 178.792 192.153 178.059 190.77 178.059C189.529 178.059 188.267 178.812 188.267 181.01H185.541C185.48 177.978 187.677 175.984 190.933 175.984ZM203.346 191.265C199.399 191.265 197.405 188.07 197.405 183.594C197.405 179.117 199.399 175.984 203.346 175.984C207.253 175.984 209.267 179.117 209.267 183.594C209.267 188.07 207.253 191.265 203.346 191.265ZM203.346 189.148C205.361 189.148 206.398 187.154 206.398 183.594C206.398 180.033 205.361 178.1 203.346 178.1C201.332 178.1 200.274 180.033 200.274 183.594C200.274 187.154 201.332 189.148 203.346 189.148ZM216.207 175.984C219.158 175.984 221.05 177.368 221.05 179.952C221.05 182.698 218.364 185.608 213.827 188.64H221.396V191H210.551V188.721C215.292 184.916 218.222 182.434 218.222 180.094C218.222 178.792 217.428 178.059 216.045 178.059C214.803 178.059 213.542 178.812 213.542 181.01H210.815C210.754 177.978 212.952 175.984 216.207 175.984ZM228.916 179.809L224.704 185.079H228.916V179.809ZM234.226 185.079V187.46H231.703V191H228.916V187.46H221.631V185.262L228.956 176.248H231.703V185.079H234.226Z" fill="#A899FF"/>
</g>
<defs>
<clipPath id="clip0_7489_34013">
<rect width="367" height="367" fill="white"/>
</clipPath>
<clipPath id="clip1_7489_34013">
<rect width="367" height="367" fill="white"/>
</clipPath>
</defs>
</svg>
