<svg width="367" height="367" viewBox="0 0 367 367" fill="none" xmlns="http://www.w3.org/2000/svg">
<g clip-path="url(#clip0_7489_34031)">
<rect width="367" height="367" fill="#A899FF"/>
<g clip-path="url(#clip1_7489_34031)">
<rect width="367" height="367" fill="#A899FF"/>
<path d="M320.142 150.018L320.142 263.185C320.142 279.44 306.965 292.617 290.71 292.617L116.595 292.617C100.34 292.617 87.1624 305.794 87.1624 322.049L87.1624 371.647C87.1624 387.902 100.34 401.079 116.594 401.079L395.567 401.079C411.822 401.079 424.999 387.902 424.999 371.647L424.999 150.018C424.999 133.763 411.822 120.586 395.567 120.586L349.574 120.586C333.319 120.586 320.142 133.763 320.142 150.018Z" fill="#9787F2"/>
<path d="M87.7587 68.4847L214.875 68.4847C229.76 68.4847 241.827 56.4181 241.827 41.5331C241.827 26.6482 253.894 14.5816 268.778 14.5816L291.716 14.5816C301.986 14.5816 310.312 22.9072 310.312 33.1774C310.312 43.4475 318.637 51.7731 328.907 51.7731L372.957 51.7731C389.212 51.7731 402.389 38.596 402.389 22.3411L402.389 -9.88947C402.389 -26.1443 389.212 -39.3215 372.957 -39.3215L-23.6517 -39.3216C-39.9067 -39.3216 -53.0838 -26.1444 -53.0838 -9.88951L-53.0839 231.4C-53.0839 247.655 -39.9067 260.832 -23.6519 260.832L28.8944 260.832C45.1493 260.832 58.3265 247.655 58.3265 231.4L58.3266 97.9168C58.3267 81.6619 71.5038 68.4847 87.7587 68.4847Z" fill="#9787F2"/>
<path d="M121.896 -39.3213L-74.7107 -39.3213C-81.9496 -39.3213 -87.8179 -33.453 -87.8179 -26.2141L-87.8179 19.3332C-87.8179 26.5721 -81.9496 32.4403 -74.7107 32.4403L121.896 32.4404C129.135 32.4404 135.003 26.5721 135.003 19.3332L135.003 -26.2141C135.003 -33.453 129.135 -39.3213 121.896 -39.3213Z" fill="#A899FF"/>
</g>
<rect x="99" y="155" width="168.287" height="56.8021" fill="black"/>
<path d="M142.969 186.157H145.736C145.35 189.148 142.867 191.265 139.347 191.265C134.952 191.265 132.45 188.274 132.45 183.553C132.45 178.894 135.135 175.984 139.429 175.984C142.888 175.984 145.248 177.958 145.736 181.03H142.969C142.42 178.975 141.036 178.303 139.408 178.303C137.19 178.303 135.461 180.135 135.461 183.553C135.461 187.073 137.19 188.945 139.307 188.945C141.056 188.945 142.481 188.172 142.969 186.157ZM150.492 176.248V191H147.583V176.248H150.492ZM162.709 183.614C162.709 179.199 160.085 178.527 157.399 178.527H156.056V188.721H157.399C160.085 188.721 162.709 188.07 162.709 183.614ZM153.146 176.248H157.521C162.201 176.248 165.721 177.754 165.721 183.614C165.721 189.474 162.201 191 157.521 191H153.146V176.248ZM176.703 191L173.773 185.221H173.081H170.68V191H167.771V176.248H172.613C177.476 176.248 179.328 177.632 179.328 180.725C179.328 182.434 178.514 183.818 176.662 184.611L179.938 191H176.703ZM172.939 178.527H170.68V182.963H173.081C175.36 182.963 176.337 182.21 176.337 180.745C176.337 179.036 174.913 178.527 172.939 178.527ZM190.933 175.984C193.883 175.984 195.775 177.368 195.775 179.952C195.775 182.698 193.089 185.608 188.552 188.64H196.121V191H185.276V188.721C190.017 184.916 192.947 182.434 192.947 180.094C192.947 178.792 192.153 178.059 190.77 178.059C189.529 178.059 188.267 178.812 188.267 181.01H185.541C185.48 177.978 187.677 175.984 190.933 175.984ZM203.346 191.265C199.399 191.265 197.405 188.07 197.405 183.594C197.405 179.117 199.399 175.984 203.346 175.984C207.253 175.984 209.267 179.117 209.267 183.594C209.267 188.07 207.253 191.265 203.346 191.265ZM203.346 189.148C205.361 189.148 206.398 187.154 206.398 183.594C206.398 180.033 205.361 178.1 203.346 178.1C201.332 178.1 200.274 180.033 200.274 183.594C200.274 187.154 201.332 189.148 203.346 189.148ZM216.207 175.984C219.158 175.984 221.05 177.368 221.05 179.952C221.05 182.698 218.364 185.608 213.827 188.64H221.396V191H210.551V188.721C215.292 184.916 218.222 182.434 218.222 180.094C218.222 178.792 217.428 178.059 216.045 178.059C214.803 178.059 213.542 178.812 213.542 181.01H210.815C210.754 177.978 212.952 175.984 216.207 175.984ZM227.95 189.148C229.496 189.148 230.717 188.233 230.717 186.849C230.717 185.12 229.109 184.428 227.014 184.428H226.424V182.23H226.912C229.028 182.23 230.351 181.457 230.351 180.074C230.351 178.792 229.232 178.1 228.011 178.1C226.302 178.1 225.244 179.158 225.101 180.704H222.436C222.761 177.754 224.776 175.984 228.174 175.984C230.636 175.984 233.179 177.164 233.179 179.952C233.179 181.396 232.324 182.556 231.185 183.187C232.711 183.838 233.565 185.282 233.565 186.768C233.565 189.759 230.981 191.265 227.868 191.265C224.491 191.265 222.476 189.067 222.314 186.361H224.959C225.183 187.846 226.098 189.148 227.95 189.148Z" fill="#A899FF"/>
</g>
<defs>
<clipPath id="clip0_7489_34031">
<rect width="367" height="367" fill="white"/>
</clipPath>
<clipPath id="clip1_7489_34031">
<rect width="367" height="367" fill="white"/>
</clipPath>
</defs>
</svg>
