<svg width="367" height="367" viewBox="0 0 367 367" fill="none" xmlns="http://www.w3.org/2000/svg">
<g clip-path="url(#clip0_7501_33965)">
<rect width="367" height="367" fill="#A899FF"/>
<g clip-path="url(#clip1_7501_33965)">
<rect width="367" height="367" fill="#A899FF"/>
<path d="M73.4002 319.22L252.313 319.22C259.552 319.22 265.421 313.352 265.421 306.113L265.421 255.978C265.421 248.739 271.289 242.871 278.528 242.871L309.657 242.871C316.896 242.871 322.764 237.003 322.764 229.764L322.764 198.307C322.764 191.068 328.632 185.2 335.871 185.2L381.419 185.2C388.658 185.2 394.526 191.068 394.526 198.307L394.526 410.97C394.526 418.209 388.658 424.077 381.419 424.077L73.4002 424.077C66.1614 424.077 60.2931 418.209 60.2931 410.97L60.2931 332.327C60.2931 325.089 66.1613 319.22 73.4002 319.22Z" fill="#9787F2"/>
<path d="M32.4401 282.786L-49.152 282.786C-56.3908 282.786 -62.2591 276.918 -62.2591 269.679L-62.2591 -42.5984C-62.2591 -49.8373 -56.3909 -55.7056 -49.152 -55.7056L277.871 -55.7056C285.11 -55.7056 290.978 -49.8374 290.978 -42.5985L290.978 26.8695C290.978 34.1084 285.11 39.9766 277.871 39.9766L181.37 39.9767C174.131 39.9767 168.263 45.845 168.263 53.0838L168.263 109.772C168.263 117.011 162.395 122.879 155.156 122.879L58.6544 122.879C51.4155 122.879 45.5473 128.748 45.5473 135.986L45.5473 269.679C45.5473 276.918 39.679 282.786 32.4401 282.786Z" fill="#9787F2"/>
<path d="M-50.4624 -24.2488L-50.4624 64.552C-50.4624 71.7909 -44.5942 77.6592 -37.3553 77.6592L71.1065 77.6592C78.3453 77.6592 84.2136 71.7909 84.2136 64.552L84.2136 47.5128C84.2136 40.2739 90.0819 34.4057 97.3208 34.4057L131.072 34.4057C138.31 34.4057 144.179 28.5374 144.179 21.2985L144.179 -24.2487C144.179 -31.4876 138.31 -37.3559 131.072 -37.3559L-37.3553 -37.3559C-44.5942 -37.3559 -50.4624 -31.4876 -50.4624 -24.2488Z" fill="#A899FF"/>
<path d="M322.927 104.857L322.927 -118.619C322.927 -125.858 328.796 -131.727 336.034 -131.727L381.254 -131.727C388.493 -131.727 394.361 -125.858 394.361 -118.619L394.361 104.857C394.361 112.096 388.493 117.964 381.254 117.964L336.034 117.964C328.796 117.964 322.927 112.096 322.927 104.857Z" fill="#9787F2"/>
</g>
<rect x="99" y="155" width="168.287" height="56.8021" fill="black"/>
<path d="M142.472 186.157H145.239C144.853 189.148 142.371 191.265 138.85 191.265C134.456 191.265 131.953 188.274 131.953 183.553C131.953 178.894 134.639 175.984 138.932 175.984C142.391 175.984 144.751 177.958 145.239 181.03H142.472C141.923 178.975 140.539 178.303 138.912 178.303C136.694 178.303 134.964 180.135 134.964 183.553C134.964 187.073 136.694 188.945 138.81 188.945C140.56 188.945 141.984 188.172 142.472 186.157ZM149.996 176.248V191H147.086V176.248H149.996ZM162.213 183.614C162.213 179.199 159.588 178.527 156.902 178.527H155.559V188.721H156.902C159.588 188.721 162.213 188.07 162.213 183.614ZM152.65 176.248H157.024C161.704 176.248 165.224 177.754 165.224 183.614C165.224 189.474 161.704 191 157.024 191H152.65V176.248ZM176.206 191L173.276 185.221H172.585H170.184V191H167.274V176.248H172.117C176.98 176.248 178.831 177.632 178.831 180.725C178.831 182.434 178.017 183.818 176.166 184.611L179.441 191H176.206ZM172.442 178.527H170.184V182.963H172.585C174.863 182.963 175.84 182.21 175.84 180.745C175.84 179.036 174.416 178.527 172.442 178.527ZM190.436 175.984C193.386 175.984 195.278 177.368 195.278 179.952C195.278 182.698 192.593 185.608 188.055 188.64H195.624V191H184.779V188.721C189.52 184.916 192.45 182.434 192.45 180.094C192.45 178.792 191.657 178.059 190.273 178.059C189.032 178.059 187.77 178.812 187.77 181.01H185.044C184.983 177.978 187.18 175.984 190.436 175.984ZM202.85 191.265C198.902 191.265 196.908 188.07 196.908 183.594C196.908 179.117 198.902 175.984 202.85 175.984C206.756 175.984 208.771 179.117 208.771 183.594C208.771 188.07 206.756 191.265 202.85 191.265ZM202.85 189.148C204.864 189.148 205.902 187.154 205.902 183.594C205.902 180.033 204.864 178.1 202.85 178.1C200.835 178.1 199.777 180.033 199.777 183.594C199.777 187.154 200.835 189.148 202.85 189.148ZM215.711 175.984C218.661 175.984 220.553 177.368 220.553 179.952C220.553 182.698 217.867 185.608 213.33 188.64H220.899V191H210.054V188.721C214.795 184.916 217.725 182.434 217.725 180.094C217.725 178.792 216.931 178.059 215.548 178.059C214.307 178.059 213.045 178.812 213.045 181.01H210.319C210.258 177.978 212.455 175.984 215.711 175.984ZM228.124 191.265C224.177 191.265 222.183 188.07 222.183 183.594C222.183 179.117 224.177 175.984 228.124 175.984C232.031 175.984 234.045 179.117 234.045 183.594C234.045 188.07 232.031 191.265 228.124 191.265ZM228.124 189.148C230.139 189.148 231.176 187.154 231.176 183.594C231.176 180.033 230.139 178.1 228.124 178.1C226.11 178.1 225.052 180.033 225.052 183.594C225.052 187.154 226.11 189.148 228.124 189.148Z" fill="#A899FF"/>
</g>
<defs>
<clipPath id="clip0_7501_33965">
<rect width="367" height="367" fill="white"/>
</clipPath>
<clipPath id="clip1_7501_33965">
<rect width="367" height="367" fill="white"/>
</clipPath>
</defs>
</svg>
