<svg width="367" height="367" viewBox="0 0 367 367" fill="none" xmlns="http://www.w3.org/2000/svg">
<g clip-path="url(#clip0_7489_34022)">
<rect width="367" height="367" fill="#A899FF"/>
<g clip-path="url(#clip1_7489_34022)">
<rect width="367" height="367" fill="#A899FF"/>
<path d="M45.8749 218.949L45.875 126.425C45.875 110.17 59.0522 96.9931 75.307 96.9931L135.823 96.9931C151.658 96.9931 164.495 84.1562 164.495 68.3212C164.495 52.4862 177.331 39.6493 193.167 39.6493L258.27 39.6493C274.525 39.6493 287.702 26.4722 287.702 10.2173L287.702 -2.6802C287.702 -18.9351 274.525 -32.1123 258.27 -32.1123L-29.5499 -32.1123C-45.8047 -32.1123 -58.9819 -18.9351 -58.9819 -2.68021L-58.9819 218.949C-58.9819 235.204 -45.8048 248.381 -29.5499 248.381L16.4428 248.381C32.6977 248.381 45.8749 235.204 45.8749 218.949Z" fill="#9787F2"/>
<path d="M79.9536 306.976L79.9537 355.918C79.9537 372.173 93.1309 385.35 109.386 385.35L389.013 385.35C405.268 385.35 418.445 372.173 418.445 355.918L418.445 87.7593C418.445 71.5044 405.268 58.3272 389.013 58.3272L325.981 58.3272C309.726 58.3272 296.549 71.5044 296.549 87.7593L296.549 248.112C296.549 264.367 283.372 277.544 267.117 277.544L109.386 277.544C93.1308 277.544 79.9536 290.721 79.9536 306.976Z" fill="#9787F2"/>
<path d="M455.474 86.5068L455.474 262.798C455.474 270.037 449.605 275.905 442.367 275.905L349.961 275.905C342.722 275.905 336.854 281.774 336.854 289.013L336.854 320.142C336.854 327.381 330.986 333.249 323.747 333.249L226.754 333.249C219.515 333.249 213.647 339.117 213.647 346.356L213.647 391.904C213.647 399.142 219.515 405.011 226.754 405.011L547.223 405.011C554.462 405.011 560.331 399.142 560.331 391.904L560.331 86.5069C560.331 79.268 554.462 73.3997 547.223 73.3997L468.581 73.3997C461.342 73.3997 455.474 79.2679 455.474 86.5068Z" fill="#A899FF"/>
</g>
<rect x="99" y="155" width="168.287" height="56.8021" fill="black"/>
<path d="M142.88 186.157H145.647C145.26 189.148 142.778 191.265 139.258 191.265C134.863 191.265 132.36 188.274 132.36 183.553C132.36 178.894 135.046 175.984 139.339 175.984C142.798 175.984 145.158 177.958 145.647 181.03H142.88C142.33 178.975 140.947 178.303 139.319 178.303C137.101 178.303 135.372 180.135 135.372 183.553C135.372 187.073 137.101 188.945 139.217 188.945C140.967 188.945 142.391 188.172 142.88 186.157ZM150.403 176.248V191H147.493V176.248H150.403ZM162.62 183.614C162.62 179.199 159.995 178.527 157.309 178.527H155.967V188.721H157.309C159.995 188.721 162.62 188.07 162.62 183.614ZM153.057 176.248H157.432C162.111 176.248 165.631 177.754 165.631 183.614C165.631 189.474 162.111 191 157.432 191H153.057V176.248ZM176.614 191L173.684 185.221H172.992H170.591V191H167.681V176.248H172.524C177.387 176.248 179.238 177.632 179.238 180.725C179.238 182.434 178.425 183.818 176.573 184.611L179.849 191H176.614ZM172.849 178.527H170.591V182.963H172.992C175.271 182.963 176.247 182.21 176.247 180.745C176.247 179.036 174.823 178.527 172.849 178.527ZM190.843 175.984C193.794 175.984 195.686 177.368 195.686 179.952C195.686 182.698 193 185.608 188.463 188.64H196.032V191H185.187V188.721C189.928 184.916 192.858 182.434 192.858 180.094C192.858 178.792 192.064 178.059 190.68 178.059C189.439 178.059 188.178 178.812 188.178 181.01H185.451C185.39 177.978 187.588 175.984 190.843 175.984ZM203.257 191.265C199.31 191.265 197.316 188.07 197.316 183.594C197.316 179.117 199.31 175.984 203.257 175.984C207.164 175.984 209.178 179.117 209.178 183.594C209.178 188.07 207.164 191.265 203.257 191.265ZM203.257 189.148C205.271 189.148 206.309 187.154 206.309 183.594C206.309 180.033 205.271 178.1 203.257 178.1C201.243 178.1 200.185 180.033 200.185 183.594C200.185 187.154 201.243 189.148 203.257 189.148ZM216.118 175.984C219.068 175.984 220.961 177.368 220.961 179.952C220.961 182.698 218.275 185.608 213.737 188.64H221.306V191H210.462V188.721C215.202 184.916 218.132 182.434 218.132 180.094C218.132 178.792 217.339 178.059 215.955 178.059C214.714 178.059 213.453 178.812 213.453 181.01H210.726C210.665 177.978 212.862 175.984 216.118 175.984ZM228.125 189.148C229.671 189.148 230.79 188.029 230.79 186.157C230.79 184.123 229.427 183.146 228.064 183.146C226.762 183.146 225.846 183.777 225.541 184.489L222.977 184.367L223.954 176.248H233.049V178.609H226.253L225.846 181.762C226.477 181.294 227.392 180.949 228.776 180.949C231.299 180.949 233.639 182.739 233.639 186.137C233.639 189.393 231.116 191.265 228.084 191.265C224.625 191.265 222.794 188.904 222.631 186.361H225.276C225.439 187.887 226.314 189.148 228.125 189.148Z" fill="#A899FF"/>
</g>
<defs>
<clipPath id="clip0_7489_34022">
<rect width="367" height="367" fill="white"/>
</clipPath>
<clipPath id="clip1_7489_34022">
<rect width="367" height="367" fill="white"/>
</clipPath>
</defs>
</svg>
