<svg width="367" height="367" viewBox="0 0 367 367" fill="none" xmlns="http://www.w3.org/2000/svg">
<g clip-path="url(#clip0_7606_35631)">
<rect width="367" height="367" fill="#A899FF"/>
<g clip-path="url(#clip1_7606_35631)">
<rect width="367" height="367" fill="#A899FF"/>
<path d="M89.7252 319.22L235.988 319.22C252.243 319.22 265.421 306.043 265.421 289.788L265.421 271.543C265.421 255.708 278.257 242.871 294.092 242.871C309.927 242.871 322.764 229.952 322.764 214.117C322.764 198.192 335.674 185.2 351.6 185.2L365.094 185.2C381.349 185.2 394.526 198.377 394.526 214.632L394.526 394.645C394.526 410.9 381.349 424.077 365.094 424.077L89.7252 424.077C73.4703 424.077 60.2931 410.9 60.2931 394.645L60.2931 348.652C60.2931 332.398 73.4702 319.22 89.7252 319.22Z" fill="#9787F2"/>
<path d="M16.1151 282.786L-32.8271 282.786C-49.0819 282.786 -62.2591 269.609 -62.2591 253.354L-62.2591 -26.2735C-62.2591 -42.5284 -49.0819 -55.7056 -32.827 -55.7056L261.546 -55.7056C277.801 -55.7056 290.978 -42.5285 290.978 -26.2736L290.978 10.5446C290.978 26.7994 277.801 39.9766 261.546 39.9767L197.695 39.9767C181.44 39.9767 168.263 53.1539 168.263 69.4088L168.263 93.4473C168.263 109.702 155.086 122.879 138.831 122.879L74.9793 122.879C58.7244 122.879 45.5473 136.057 45.5473 152.311L45.5473 253.354C45.5473 269.609 32.3701 282.786 16.1151 282.786Z" fill="#9787F2"/>
<path d="M-50.4624 -24.2488L-50.4624 64.552C-50.4624 71.7909 -44.5942 77.6592 -37.3553 77.6592L71.1065 77.6592C78.3453 77.6592 84.2136 71.7909 84.2136 64.552L84.2136 47.5128C84.2136 40.2739 90.0819 34.4057 97.3208 34.4057L131.072 34.4057C138.31 34.4057 144.179 28.5374 144.179 21.2985L144.179 -24.2487C144.179 -31.4876 138.31 -37.3559 131.072 -37.3559L-37.3553 -37.3559C-44.5942 -37.3559 -50.4624 -31.4876 -50.4624 -24.2488Z" fill="#A899FF"/>
<path d="M322.927 104.857L322.927 -118.619C322.927 -125.858 328.796 -131.727 336.034 -131.727L381.254 -131.727C388.493 -131.727 394.361 -125.858 394.361 -118.619L394.361 104.857C394.361 112.096 388.493 117.964 381.254 117.964L336.034 117.964C328.796 117.964 322.927 112.096 322.927 104.857Z" fill="#9787F2"/>
</g>
<rect x="99" y="155" width="168.287" height="56.8021" fill="black"/>
<path d="M140.455 183.614C140.455 179.199 137.83 178.527 135.144 178.527H133.801V188.721H135.144C137.83 188.721 140.455 188.07 140.455 183.614ZM130.892 176.248H135.266C139.946 176.248 143.466 177.754 143.466 183.614C143.466 189.474 139.946 191 135.266 191H130.892V176.248ZM145.516 191V176.248H151.254C153.838 176.248 156.626 177.062 156.626 180.094C156.626 181.478 155.71 182.719 154.957 183.207C156.097 183.756 157.155 184.611 157.155 186.646C157.155 189.82 154.53 191 151.498 191H145.516ZM148.426 184.53V188.721H151.641C153.35 188.721 154.184 188.009 154.184 186.646C154.184 185.262 153.329 184.53 151.519 184.53H148.426ZM148.426 178.527V182.332H151.437C152.821 182.332 153.635 181.681 153.635 180.379C153.635 179.219 152.8 178.527 151.437 178.527H148.426ZM159.028 176.248H164.074C167.085 176.248 170.565 176.676 170.565 181.132C170.565 184.896 167.574 185.812 164.155 185.812H161.938V191H159.028V176.248ZM164.135 178.527H161.938V183.553H164.338C166.129 183.553 167.574 183.105 167.574 181.152C167.574 178.731 165.702 178.527 164.135 178.527ZM174.933 176.248V188.64H182.115V191H172.023V176.248H174.933ZM192.82 175.984C195.771 175.984 197.663 177.368 197.663 179.952C197.663 182.698 194.977 185.608 190.44 188.64H198.009V191H187.164V188.721C191.905 184.916 194.835 182.434 194.835 180.094C194.835 178.792 194.041 178.059 192.658 178.059C191.416 178.059 190.155 178.812 190.155 181.01H187.428C187.367 177.978 189.565 175.984 192.82 175.984ZM205.234 191.265C201.287 191.265 199.293 188.07 199.293 183.594C199.293 179.117 201.287 175.984 205.234 175.984C209.141 175.984 211.155 179.117 211.155 183.594C211.155 188.07 209.141 191.265 205.234 191.265ZM205.234 189.148C207.248 189.148 208.286 187.154 208.286 183.594C208.286 180.033 207.248 178.1 205.234 178.1C203.22 178.1 202.162 180.033 202.162 183.594C202.162 187.154 203.22 189.148 205.234 189.148ZM218.095 175.984C221.045 175.984 222.938 177.368 222.938 179.952C222.938 182.698 220.252 185.608 215.714 188.64H223.284V191H212.439V188.721C217.179 184.916 220.109 182.434 220.109 180.094C220.109 178.792 219.316 178.059 217.932 178.059C216.691 178.059 215.43 178.812 215.43 181.01H212.703C212.642 177.978 214.84 175.984 218.095 175.984ZM230.102 189.148C231.648 189.148 232.767 188.029 232.767 186.157C232.767 184.123 231.404 183.146 230.041 183.146C228.739 183.146 227.823 183.777 227.518 184.489L224.954 184.367L225.931 176.248H235.026V178.609H228.23L227.823 181.762C228.454 181.294 229.369 180.949 230.753 180.949C233.276 180.949 235.616 182.739 235.616 186.137C235.616 189.393 233.093 191.265 230.061 191.265C226.602 191.265 224.771 188.904 224.608 186.361H227.253C227.416 187.887 228.291 189.148 230.102 189.148Z" fill="#A899FF"/>
</g>
<defs>
<clipPath id="clip0_7606_35631">
<rect width="367" height="367" fill="white"/>
</clipPath>
<clipPath id="clip1_7606_35631">
<rect width="367" height="367" fill="white"/>
</clipPath>
</defs>
</svg>
