<svg width="367" height="367" viewBox="0 0 367 367" fill="none" xmlns="http://www.w3.org/2000/svg">
<g clip-path="url(#clip0_8931_40731)">
<rect width="367" height="367" fill="#A899FF"/>
<g clip-path="url(#clip1_8931_40731)">
<rect width="367" height="367" fill="#A899FF"/>
<path d="M320.143 150.018L320.143 263.185C320.143 279.44 306.966 292.617 290.711 292.617L116.596 292.617C100.341 292.617 87.1634 305.794 87.1634 322.049L87.1634 371.647C87.1634 387.902 100.341 401.079 116.595 401.079L395.568 401.079C411.823 401.079 425 387.902 425 371.647L425 150.018C425 133.763 411.823 120.586 395.568 120.586L349.575 120.586C333.32 120.586 320.143 133.763 320.143 150.018Z" fill="#9787F2"/>
<path d="M87.7582 68.4847L214.875 68.4847C229.76 68.4847 241.826 56.4181 241.826 41.5331C241.826 26.6482 253.893 14.5816 268.778 14.5816L291.715 14.5816C301.985 14.5816 310.311 22.9072 310.311 33.1774C310.311 43.4475 318.637 51.7731 328.907 51.7731L372.957 51.7731C389.212 51.7731 402.389 38.596 402.389 22.3411L402.389 -9.88947C402.389 -26.1443 389.212 -39.3215 372.957 -39.3215L-23.6522 -39.3216C-39.9071 -39.3216 -53.0843 -26.1444 -53.0843 -9.88951L-53.0844 231.4C-53.0844 247.655 -39.9072 260.832 -23.6523 260.832L28.894 260.832C45.1488 260.832 58.326 247.655 58.3261 231.4L58.3261 97.9168C58.3262 81.6619 71.5033 68.4847 87.7582 68.4847Z" fill="#9787F2"/>
<path d="M121.897 -39.3215L-74.7102 -39.3215C-81.9491 -39.3215 -87.8174 -33.4532 -87.8174 -26.2144L-87.8174 19.333C-87.8174 26.5718 -81.9491 32.4401 -74.7102 32.4401L121.897 32.4401C129.136 32.4401 135.004 26.5719 135.004 19.333L135.004 -26.2144C135.004 -33.4532 129.136 -39.3215 121.897 -39.3215Z" fill="#A899FF"/>
</g>
<rect x="99" y="155" width="168.287" height="56.8021" fill="black"/>
<path d="M129.477 176.248H132.631L136.151 187.358L139.57 176.248H142.662L137.576 191H134.605L129.477 176.248ZM146.787 176.248V188.64H153.969V191H143.877V176.248H146.787ZM164.845 183.614C164.845 179.199 162.221 178.527 159.535 178.527H158.192V188.721H159.535C162.221 188.721 164.845 188.07 164.845 183.614ZM155.282 176.248H159.657C164.337 176.248 167.857 177.754 167.857 183.614C167.857 189.474 164.337 191 159.657 191H155.282V176.248ZM169.907 191V176.248H175.645C178.229 176.248 181.016 177.062 181.016 180.094C181.016 181.478 180.101 182.719 179.348 183.207C180.487 183.756 181.545 184.611 181.545 186.646C181.545 189.82 178.921 191 175.889 191H169.907ZM172.816 184.53V188.721H176.031C177.74 188.721 178.575 188.009 178.575 186.646C178.575 185.262 177.72 184.53 175.909 184.53H172.816ZM172.816 178.527V182.332H175.828C177.211 182.332 178.025 181.681 178.025 180.379C178.025 179.219 177.191 178.527 175.828 178.527H172.816ZM192.81 175.984C195.761 175.984 197.653 177.368 197.653 179.952C197.653 182.698 194.967 185.608 190.43 188.64H197.999V191H187.154V188.721C191.895 184.916 194.825 182.434 194.825 180.094C194.825 178.792 194.031 178.059 192.648 178.059C191.406 178.059 190.145 178.812 190.145 181.01H187.418C187.357 177.978 189.555 175.984 192.81 175.984ZM205.224 191.265C201.277 191.265 199.283 188.07 199.283 183.594C199.283 179.117 201.277 175.984 205.224 175.984C209.131 175.984 211.145 179.117 211.145 183.594C211.145 188.07 209.131 191.265 205.224 191.265ZM205.224 189.148C207.238 189.148 208.276 187.154 208.276 183.594C208.276 180.033 207.238 178.1 205.224 178.1C203.21 178.1 202.152 180.033 202.152 183.594C202.152 187.154 203.21 189.148 205.224 189.148ZM218.085 175.984C221.035 175.984 222.928 177.368 222.928 179.952C222.928 182.698 220.242 185.608 215.705 188.64H223.274V191H212.429V188.721C217.17 184.916 220.1 182.434 220.1 180.094C220.1 178.792 219.306 178.059 217.922 178.059C216.681 178.059 215.42 178.812 215.42 181.01H212.693C212.632 177.978 214.83 175.984 218.085 175.984ZM230.092 189.148C231.638 189.148 232.757 188.029 232.757 186.157C232.757 184.123 231.394 183.146 230.031 183.146C228.729 183.146 227.813 183.777 227.508 184.489L224.944 184.367L225.921 176.248H235.016V178.609H228.22L227.813 181.762C228.444 181.294 229.359 180.949 230.743 180.949C233.266 180.949 235.606 182.739 235.606 186.137C235.606 189.393 233.083 191.265 230.051 191.265C226.592 191.265 224.761 188.904 224.598 186.361H227.243C227.406 187.887 228.281 189.148 230.092 189.148Z" fill="#A899FF"/>
<g clip-path="url(#clip2_8931_40731)">
<rect width="367" height="367" fill="#A899FF"/>
<g clip-path="url(#clip3_8931_40731)">
<rect width="367" height="367" fill="#A899FF"/>
<path d="M320.143 150.018L320.143 263.185C320.143 279.44 306.966 292.617 290.711 292.617L116.596 292.617C100.341 292.617 87.1634 305.794 87.1634 322.049L87.1634 371.647C87.1634 387.902 100.341 401.079 116.595 401.079L395.568 401.079C411.823 401.079 425 387.902 425 371.647L425 150.018C425 133.763 411.823 120.586 395.568 120.586L349.575 120.586C333.32 120.586 320.143 133.763 320.143 150.018Z" fill="#9787F2"/>
<path d="M87.7582 68.4847L214.875 68.4847C229.76 68.4847 241.826 56.4181 241.826 41.5331C241.826 26.6482 253.893 14.5816 268.778 14.5816L291.715 14.5816C301.985 14.5816 310.311 22.9072 310.311 33.1774C310.311 43.4475 318.637 51.7731 328.907 51.7731L372.957 51.7731C389.212 51.7731 402.389 38.596 402.389 22.3411L402.389 -9.88947C402.389 -26.1443 389.212 -39.3215 372.957 -39.3215L-23.6522 -39.3216C-39.9071 -39.3216 -53.0843 -26.1444 -53.0843 -9.88951L-53.0844 231.4C-53.0844 247.655 -39.9072 260.832 -23.6523 260.832L28.894 260.832C45.1488 260.832 58.326 247.655 58.3261 231.4L58.3261 97.9168C58.3262 81.6619 71.5033 68.4847 87.7582 68.4847Z" fill="#9787F2"/>
<path d="M121.897 -39.3215L-74.7102 -39.3215C-81.9491 -39.3215 -87.8174 -33.4532 -87.8174 -26.2144L-87.8174 19.333C-87.8174 26.5718 -81.9491 32.4401 -74.7102 32.4401L121.897 32.4401C129.136 32.4401 135.004 26.5719 135.004 19.333L135.004 -26.2144C135.004 -33.4532 129.136 -39.3215 121.897 -39.3215Z" fill="#A899FF"/>
</g>
<rect x="99" y="155" width="168.287" height="56.8021" fill="black"/>
<path d="M129.477 176.248H132.631L136.151 187.358L139.57 176.248H142.662L137.576 191H134.605L129.477 176.248ZM146.787 176.248V188.64H153.969V191H143.877V176.248H146.787ZM164.845 183.614C164.845 179.199 162.221 178.527 159.535 178.527H158.192V188.721H159.535C162.221 188.721 164.845 188.07 164.845 183.614ZM155.282 176.248H159.657C164.337 176.248 167.857 177.754 167.857 183.614C167.857 189.474 164.337 191 159.657 191H155.282V176.248ZM169.907 191V176.248H175.645C178.229 176.248 181.016 177.062 181.016 180.094C181.016 181.478 180.101 182.719 179.348 183.207C180.487 183.756 181.545 184.611 181.545 186.646C181.545 189.82 178.921 191 175.889 191H169.907ZM172.816 184.53V188.721H176.031C177.74 188.721 178.575 188.009 178.575 186.646C178.575 185.262 177.72 184.53 175.909 184.53H172.816ZM172.816 178.527V182.332H175.828C177.211 182.332 178.025 181.681 178.025 180.379C178.025 179.219 177.191 178.527 175.828 178.527H172.816ZM192.81 175.984C195.761 175.984 197.653 177.368 197.653 179.952C197.653 182.698 194.967 185.608 190.43 188.64H197.999V191H187.154V188.721C191.895 184.916 194.825 182.434 194.825 180.094C194.825 178.792 194.031 178.059 192.648 178.059C191.406 178.059 190.145 178.812 190.145 181.01H187.418C187.357 177.978 189.555 175.984 192.81 175.984ZM205.224 191.265C201.277 191.265 199.283 188.07 199.283 183.594C199.283 179.117 201.277 175.984 205.224 175.984C209.131 175.984 211.145 179.117 211.145 183.594C211.145 188.07 209.131 191.265 205.224 191.265ZM205.224 189.148C207.238 189.148 208.276 187.154 208.276 183.594C208.276 180.033 207.238 178.1 205.224 178.1C203.21 178.1 202.152 180.033 202.152 183.594C202.152 187.154 203.21 189.148 205.224 189.148ZM218.085 175.984C221.035 175.984 222.928 177.368 222.928 179.952C222.928 182.698 220.242 185.608 215.705 188.64H223.274V191H212.429V188.721C217.17 184.916 220.1 182.434 220.1 180.094C220.1 178.792 219.306 178.059 217.922 178.059C216.681 178.059 215.42 178.812 215.42 181.01H212.693C212.632 177.978 214.83 175.984 218.085 175.984ZM230.092 189.148C231.638 189.148 232.757 188.029 232.757 186.157C232.757 184.123 231.394 183.146 230.031 183.146C228.729 183.146 227.813 183.777 227.508 184.489L224.944 184.367L225.921 176.248H235.016V178.609H228.22L227.813 181.762C228.444 181.294 229.359 180.949 230.743 180.949C233.266 180.949 235.606 182.739 235.606 186.137C235.606 189.393 233.083 191.265 230.051 191.265C226.592 191.265 224.761 188.904 224.598 186.361H227.243C227.406 187.887 228.281 189.148 230.092 189.148Z" fill="#A899FF"/>
<g clip-path="url(#clip4_8931_40731)">
<rect width="367" height="367" fill="#A899FF"/>
<g clip-path="url(#clip5_8931_40731)">
<rect width="367" height="367" fill="#A899FF"/>
<path d="M143.464 295.894L235.988 295.894C252.243 295.894 265.42 282.716 265.42 266.462L265.42 248.216C265.42 232.381 278.257 219.544 294.092 219.544C309.927 219.544 322.764 206.707 322.764 190.872L322.764 83.4989C322.764 67.244 335.941 54.0668 352.196 54.0668L365.093 54.0668C381.348 54.0668 394.525 67.244 394.525 83.4989L394.525 371.318C394.525 387.573 381.348 400.75 365.093 400.75L143.464 400.751C127.209 400.751 114.032 387.573 114.032 371.318L114.032 325.326C114.032 309.071 127.209 295.894 143.464 295.894Z" fill="#9787F2"/>
<path d="M16.1146 301.136L-32.8274 301.136C-49.0823 301.136 -62.2595 287.959 -62.2595 271.704L-62.2595 -7.92342C-62.2595 -24.1783 -49.0824 -37.3555 -32.8275 -37.3555L222.002 -37.3555C238.256 -37.3555 251.434 -24.1783 251.434 -7.92343L251.434 79.1062C251.434 95.3611 238.256 108.538 222.002 108.538L74.9787 108.538C58.7239 108.538 45.5467 121.716 45.5467 137.97L45.5467 271.704C45.5467 287.959 32.3695 301.136 16.1146 301.136Z" fill="#9787F2"/>
<path d="M159.251 34.4062L-37.3557 34.4062C-44.5946 34.4062 -50.4629 28.538 -50.4629 21.2991L-50.4629 -24.2482C-50.4629 -31.4871 -44.5946 -37.3554 -37.3558 -37.3554L159.251 -37.3554C166.49 -37.3554 172.358 -31.4872 172.358 -24.2483L172.358 21.2991C172.358 28.538 166.49 34.4062 159.251 34.4062Z" fill="#A899FF"/>
</g>
<rect x="99" y="155" width="168.287" height="56.8021" fill="black"/>
<path d="M122.04 191V176.248H132.783V178.609H124.949V182.271H132.356V184.631H124.949V188.64H132.783V191H122.04ZM143.835 191H140.946L137.304 179.911V191H134.598V176.248H138.83L142.411 187.744L145.89 176.248H150.163V191H147.457V179.911L143.835 191ZM165.231 191H161.446L155.545 179.748V191H152.799V176.248H156.583L162.484 187.5V176.248H165.231V191ZM170.79 176.248V188.64H177.972V191H167.88V176.248H170.79ZM179.285 176.248H184.332C187.343 176.248 190.822 176.676 190.822 181.132C190.822 184.896 187.831 185.812 184.413 185.812H182.195V191H179.285V176.248ZM184.393 178.527H182.195V183.553H184.596C186.387 183.553 187.831 183.105 187.831 181.152C187.831 178.731 185.959 178.527 184.393 178.527ZM201.672 175.984C204.623 175.984 206.515 177.368 206.515 179.952C206.515 182.698 203.829 185.608 199.292 188.64H206.861V191H196.016V188.721C200.757 184.916 203.687 182.434 203.687 180.094C203.687 178.792 202.893 178.059 201.51 178.059C200.268 178.059 199.007 178.812 199.007 181.01H196.28C196.219 177.978 198.417 175.984 201.672 175.984ZM214.086 191.265C210.139 191.265 208.145 188.07 208.145 183.594C208.145 179.117 210.139 175.984 214.086 175.984C217.993 175.984 220.007 179.117 220.007 183.594C220.007 188.07 217.993 191.265 214.086 191.265ZM214.086 189.148C216.101 189.148 217.138 187.154 217.138 183.594C217.138 180.033 216.101 178.1 214.086 178.1C212.072 178.1 211.014 180.033 211.014 183.594C211.014 187.154 212.072 189.148 214.086 189.148ZM226.947 175.984C229.898 175.984 231.79 177.368 231.79 179.952C231.79 182.698 229.104 185.608 224.567 188.64H232.136V191H221.291V188.721C226.032 184.916 228.962 182.434 228.962 180.094C228.962 178.792 228.168 178.059 226.784 178.059C225.543 178.059 224.282 178.812 224.282 181.01H221.555C221.494 177.978 223.692 175.984 226.947 175.984ZM238.954 189.148C240.5 189.148 241.619 188.029 241.619 186.157C241.619 184.123 240.256 183.146 238.893 183.146C237.591 183.146 236.675 183.777 236.37 184.489L233.806 184.367L234.783 176.248H243.878V178.609H237.082L236.675 181.762C237.306 181.294 238.222 180.949 239.605 180.949C242.128 180.949 244.468 182.739 244.468 186.137C244.468 189.393 241.945 191.265 238.913 191.265C235.454 191.265 233.623 188.904 233.46 186.361H236.105C236.268 187.887 237.143 189.148 238.954 189.148Z" fill="#A899FF"/>
</g>
</g>
</g>
<defs>
<clipPath id="clip0_8931_40731">
<rect width="367" height="367" fill="white"/>
</clipPath>
<clipPath id="clip1_8931_40731">
<rect width="367" height="367" fill="white"/>
</clipPath>
<clipPath id="clip2_8931_40731">
<rect width="367" height="367" fill="white"/>
</clipPath>
<clipPath id="clip3_8931_40731">
<rect width="367" height="367" fill="white"/>
</clipPath>
<clipPath id="clip4_8931_40731">
<rect width="367" height="367" fill="white"/>
</clipPath>
<clipPath id="clip5_8931_40731">
<rect width="367" height="367" fill="white"/>
</clipPath>
</defs>
</svg>
