<svg width="367" height="367" viewBox="0 0 367 367" fill="none" xmlns="http://www.w3.org/2000/svg">
<g clip-path="url(#clip0_7497_10473)">
<rect width="367" height="367" fill="#A899FF"/>
<g clip-path="url(#clip1_7497_10473)">
<rect width="367" height="367" fill="#A899FF"/>
<path d="M293.659 225.442L235.542 225.442C219.287 225.442 206.11 238.62 206.11 254.875L206.11 274.326C206.11 290.58 192.933 303.758 176.678 303.758L71.7026 303.758C55.4477 303.758 42.2705 290.58 42.2705 274.326L42.2706 227.677C42.2706 211.422 29.0934 198.245 12.8385 198.245L-20.375 198.245C-36.6299 198.245 -49.8071 211.422 -49.8071 227.677L-49.8071 342.483C-49.8071 358.738 -36.6299 371.915 -20.375 371.915L376.234 371.915C392.489 371.915 405.666 358.738 405.666 342.483L405.666 181.802C405.666 165.547 392.489 152.37 376.234 152.37L352.523 152.37C336.268 152.37 323.091 165.547 323.091 181.802L323.091 196.01C323.091 212.265 309.914 225.442 293.659 225.442Z" fill="#9787F2"/>
<rect x="260.832" y="316.804" width="155.975" height="76.6768" rx="13.1071" fill="#A899FF"/>
<path d="M46.2029 76.3492L46.2029 43.909C46.2029 36.6701 52.0711 30.8019 59.31 30.8019L245.759 30.8019C252.998 30.8019 258.866 36.6701 258.866 43.909L258.866 68.1572C258.866 75.3961 264.735 81.2644 271.973 81.2644L428.604 81.2644C435.843 81.2644 441.711 75.3961 441.711 68.1572L441.711 -10.4856C441.711 -17.7245 435.843 -23.5928 428.604 -23.5928L-45.8748 -23.5927C-53.1137 -23.5927 -58.9819 -17.7245 -58.9819 -10.4856L-58.9819 76.3492C-58.9819 83.588 -53.1137 89.4563 -45.8748 89.4563L33.0957 89.4563C40.3346 89.4563 46.2029 83.5881 46.2029 76.3492Z" fill="#9787F2"/>
</g>
<rect x="99" y="155" width="168.287" height="56.8021" fill="black"/>
<path d="M136.474 176.248V191H133.564V176.248H136.474ZM149.139 186.157H151.906C151.519 189.148 149.037 191.265 145.517 191.265C141.122 191.265 138.619 188.274 138.619 183.553C138.619 178.894 141.305 175.984 145.598 175.984C149.057 175.984 151.418 177.958 151.906 181.03H149.139C148.589 178.975 147.206 178.303 145.578 178.303C143.36 178.303 141.631 180.135 141.631 183.553C141.631 187.073 143.36 188.945 145.476 188.945C147.226 188.945 148.65 188.172 149.139 186.157ZM163.315 183.614C163.315 179.199 160.691 178.527 158.005 178.527H156.662V188.721H158.005C160.691 188.721 163.315 188.07 163.315 183.614ZM153.752 176.248H158.127C162.807 176.248 166.327 177.754 166.327 183.614C166.327 189.474 162.807 191 158.127 191H153.752V176.248ZM168.377 191V176.248H179.12V178.609H171.286V182.271H178.693V184.631H171.286V188.64H179.12V191H168.377ZM190.327 175.984C193.277 175.984 195.169 177.368 195.169 179.952C195.169 182.698 192.483 185.608 187.946 188.64H195.515V191H184.67V188.721C189.411 184.916 192.341 182.434 192.341 180.094C192.341 178.792 191.547 178.059 190.164 178.059C188.923 178.059 187.661 178.812 187.661 181.01H184.935C184.874 177.978 187.071 175.984 190.327 175.984ZM202.74 191.265C198.793 191.265 196.799 188.07 196.799 183.594C196.799 179.117 198.793 175.984 202.74 175.984C206.647 175.984 208.661 179.117 208.661 183.594C208.661 188.07 206.647 191.265 202.74 191.265ZM202.74 189.148C204.755 189.148 205.792 187.154 205.792 183.594C205.792 180.033 204.755 178.1 202.74 178.1C200.726 178.1 199.668 180.033 199.668 183.594C199.668 187.154 200.726 189.148 202.74 189.148ZM215.601 175.984C218.552 175.984 220.444 177.368 220.444 179.952C220.444 182.698 217.758 185.608 213.221 188.64H220.79V191H209.945V188.721C214.686 184.916 217.616 182.434 217.616 180.094C217.616 178.792 216.822 178.059 215.439 178.059C214.197 178.059 212.936 178.812 212.936 181.01H210.209C210.148 177.978 212.346 175.984 215.601 175.984ZM227.344 189.148C228.89 189.148 230.111 188.233 230.111 186.849C230.111 185.12 228.503 184.428 226.408 184.428H225.818V182.23H226.306C228.422 182.23 229.745 181.457 229.745 180.074C229.745 178.792 228.626 178.1 227.405 178.1C225.696 178.1 224.638 179.158 224.495 180.704H221.83C222.155 177.754 224.17 175.984 227.567 175.984C230.029 175.984 232.573 177.164 232.573 179.952C232.573 181.396 231.718 182.556 230.579 183.187C232.105 183.838 232.959 185.282 232.959 186.768C232.959 189.759 230.375 191.265 227.262 191.265C223.885 191.265 221.87 189.067 221.708 186.361H224.353C224.576 187.846 225.492 189.148 227.344 189.148Z" fill="#A899FF"/>
</g>
<defs>
<clipPath id="clip0_7497_10473">
<rect width="367" height="367" fill="white"/>
</clipPath>
<clipPath id="clip1_7497_10473">
<rect width="367" height="367" fill="white"/>
</clipPath>
</defs>
</svg>
