<svg xmlns="http://www.w3.org/2000/svg" width="367" height="367" fill="none" viewBox="0 0 367 367"><g clip-path="url(#clip0_7511_12504)"><rect width="367" height="367" fill="#A899FF"/><g clip-path="url(#clip1_7511_12504)"><rect width="367" height="367" fill="#A899FF"/><path fill="#9787F2" d="M45.8749 218.949L45.875 126.425C45.875 110.17 59.0522 96.9931 75.307 96.9931L135.823 96.9931C151.658 96.9931 164.495 84.1562 164.495 68.3212C164.495 52.4862 177.331 39.6493 193.167 39.6493L258.27 39.6493C274.525 39.6493 287.702 26.4722 287.702 10.2173L287.702 -2.6802C287.702 -18.9351 274.525 -32.1123 258.27 -32.1123L-29.5499 -32.1123C-45.8047 -32.1123 -58.9819 -18.9351 -58.9819 -2.68021L-58.9819 218.949C-58.9819 235.204 -45.8048 248.381 -29.5499 248.381L16.4428 248.381C32.6977 248.381 45.8749 235.204 45.8749 218.949Z"/><path fill="#9787F2" d="M79.9536 306.976L79.9537 355.918C79.9537 372.173 93.1309 385.35 109.386 385.35L389.013 385.35C405.268 385.35 418.445 372.173 418.445 355.918L418.445 87.7593C418.445 71.5044 405.268 58.3272 389.013 58.3272L325.981 58.3272C309.726 58.3272 296.549 71.5044 296.549 87.7593L296.549 248.112C296.549 264.367 283.372 277.544 267.117 277.544L109.386 277.544C93.1308 277.544 79.9536 290.721 79.9536 306.976Z"/><path fill="#A899FF" d="M455.474 86.5068L455.474 262.798C455.474 270.037 449.605 275.905 442.367 275.905L349.961 275.905C342.722 275.905 336.854 281.774 336.854 289.013L336.854 320.142C336.854 327.381 330.986 333.249 323.747 333.249L226.754 333.249C219.515 333.249 213.647 339.117 213.647 346.356L213.647 391.904C213.647 399.142 219.515 405.011 226.754 405.011L547.223 405.011C554.462 405.011 560.331 399.142 560.331 391.904L560.331 86.5069C560.331 79.268 554.462 73.3997 547.223 73.3997L468.581 73.3997C461.342 73.3997 455.474 79.2679 455.474 86.5068Z"/></g><rect width="168.287" height="56.802" x="99" y="155" fill="#000"/><path fill="#A899FF" d="M136.474 176.248V191H133.564V176.248H136.474ZM149.139 186.157H151.906C151.519 189.148 149.037 191.265 145.517 191.265C141.122 191.265 138.619 188.274 138.619 183.553C138.619 178.894 141.305 175.984 145.598 175.984C149.057 175.984 151.418 177.958 151.906 181.03H149.139C148.589 178.975 147.206 178.303 145.578 178.303C143.36 178.303 141.631 180.135 141.631 183.553C141.631 187.073 143.36 188.945 145.476 188.945C147.226 188.945 148.65 188.172 149.139 186.157ZM163.315 183.614C163.315 179.199 160.691 178.527 158.005 178.527H156.662V188.721H158.005C160.691 188.721 163.315 188.07 163.315 183.614ZM153.752 176.248H158.127C162.807 176.248 166.327 177.754 166.327 183.614C166.327 189.474 162.807 191 158.127 191H153.752V176.248ZM168.377 191V176.248H179.12V178.609H171.286V182.271H178.693V184.631H171.286V188.64H179.12V191H168.377ZM190.327 175.984C193.277 175.984 195.169 177.368 195.169 179.952C195.169 182.698 192.483 185.608 187.946 188.64H195.515V191H184.67V188.721C189.411 184.916 192.341 182.434 192.341 180.094C192.341 178.792 191.547 178.059 190.164 178.059C188.923 178.059 187.661 178.812 187.661 181.01H184.935C184.874 177.978 187.071 175.984 190.327 175.984ZM202.74 191.265C198.793 191.265 196.799 188.07 196.799 183.594C196.799 179.117 198.793 175.984 202.74 175.984C206.647 175.984 208.661 179.117 208.661 183.594C208.661 188.07 206.647 191.265 202.74 191.265ZM202.74 189.148C204.755 189.148 205.792 187.154 205.792 183.594C205.792 180.033 204.755 178.1 202.74 178.1C200.726 178.1 199.668 180.033 199.668 183.594C199.668 187.154 200.726 189.148 202.74 189.148ZM215.601 175.984C218.552 175.984 220.444 177.368 220.444 179.952C220.444 182.698 217.758 185.608 213.221 188.64H220.79V191H209.945V188.721C214.686 184.916 217.616 182.434 217.616 180.094C217.616 178.792 216.822 178.059 215.439 178.059C214.197 178.059 212.936 178.812 212.936 181.01H210.209C210.148 177.978 212.346 175.984 215.601 175.984ZM228.31 179.809L224.098 185.079H228.31V179.809ZM233.62 185.079V187.46H231.097V191H228.31V187.46H221.025V185.262L228.35 176.248H231.097V185.079H233.62Z"/></g><defs><clipPath id="clip0_7511_12504"><rect width="367" height="367" fill="#fff"/></clipPath><clipPath id="clip1_7511_12504"><rect width="367" height="367" fill="#fff"/></clipPath></defs></svg>