<svg width="470" height="470" viewBox="0 0 470 470" fill="none" xmlns="http://www.w3.org/2000/svg">
<g clip-path="url(#clip0_7464_12027)">
<rect width="470" height="470" fill="#A899FF"/>
<g clip-path="url(#clip1_7464_12027)">
<rect width="470" height="470" fill="#A899FF"/>
<path d="M162.821 378.937L323.125 378.937C332.395 378.937 339.911 371.422 339.911 362.152L339.911 297.946C339.911 288.675 347.426 281.16 356.696 281.16L396.562 281.16C405.833 281.16 413.348 273.645 413.348 264.374L413.348 86.0266C413.348 76.756 420.863 69.2408 430.134 69.2408L488.464 69.2408C497.735 69.2408 505.25 76.756 505.25 86.0266L505.25 496.437C505.25 505.707 497.735 513.223 488.464 513.223L162.821 513.223C153.551 513.223 146.035 505.707 146.035 496.437L146.035 395.723C146.035 386.453 153.55 378.937 162.821 378.937Z" fill="#9787F2"/>
<path d="M41.5444 385.651L-62.9465 385.651C-72.217 385.651 -79.7322 378.136 -79.7322 368.866L-79.7323 -31.0537C-79.7323 -40.3242 -72.2171 -47.8394 -62.9466 -47.8394L305.214 -47.8394C314.485 -47.8394 322 -40.3242 322 -31.0537L322 122.214C322 131.485 314.485 139 305.214 139L75.1158 139C65.8454 139 58.3301 146.515 58.3301 155.786L58.3301 368.866C58.3301 378.136 50.8149 385.651 41.5444 385.651Z" fill="#9787F2"/>
<path d="M203.946 44.0625L-47.8393 44.0625C-57.1098 44.0625 -64.625 36.5473 -64.625 27.2768L-64.625 -31.0536C-64.625 -40.3241 -57.1098 -47.8393 -47.8393 -47.8393L203.946 -47.8393C213.217 -47.8393 220.732 -40.3241 220.732 -31.0536L220.732 27.2767C220.732 36.5472 213.217 44.0625 203.946 44.0625Z" fill="#A899FF"/>
</g>
</g>
<defs>
<clipPath id="clip0_7464_12027">
<rect width="470" height="470" fill="white"/>
</clipPath>
<clipPath id="clip1_7464_12027">
<rect width="470" height="470" fill="white"/>
</clipPath>
</defs>
</svg>
