<svg width="470" height="470" viewBox="0 0 470 470" fill="none" xmlns="http://www.w3.org/2000/svg">
<g clip-path="url(#clip0_7457_30587)">
<rect width="470" height="470" fill="#A899FF"/>
<g clip-path="url(#clip1_7457_30587)">
<rect width="470" height="470" fill="#A899FF"/>
<rect x="772.143" y="656.321" width="688.214" height="266.054" rx="16.7857" transform="rotate(180 772.143 656.321)" fill="#9787F2"/>
<path d="M74.6958 122.536L154.008 122.536C163.279 122.536 170.794 115.02 170.794 105.75L170.794 63.9955C170.794 54.725 178.309 47.2098 187.58 47.2098L395.723 47.2098C404.993 47.2098 412.508 54.725 412.508 63.9955L412.508 286.616C412.508 295.887 420.024 303.402 429.294 303.402L481.749 303.402C491.02 303.402 498.535 295.887 498.535 286.616L498.535 -5.03577C498.535 -14.3062 491.02 -21.8215 481.749 -21.8215L-67.9825 -21.8214C-77.253 -21.8214 -84.7682 -14.3062 -84.7682 -5.03569L-84.7682 204.366C-84.7682 213.637 -77.2529 221.152 -67.9825 221.152L41.1243 221.152C50.3948 221.152 57.91 213.637 57.91 204.366L57.9101 139.321C57.9101 130.051 65.4253 122.536 74.6958 122.536Z" fill="#9787F2"/>
<rect x="100.714" y="49.5178" width="199.75" height="98.1964" rx="16.7857" transform="rotate(-180 100.714 49.5178)" fill="#A899FF"/>
</g>
</g>
<defs>
<clipPath id="clip0_7457_30587">
<rect width="470" height="470" fill="white"/>
</clipPath>
<clipPath id="clip1_7457_30587">
<rect width="470" height="470" fill="white"/>
</clipPath>
</defs>
</svg>
