<svg xmlns="http://www.w3.org/2000/svg" width="367" height="367" fill="none" viewBox="0 0 367 367"><g clip-path="url(#clip0_7489_33979)"><rect width="367" height="367" fill="#A899FF"/><g clip-path="url(#clip1_7489_33979)"><rect width="367" height="367" fill="#A899FF"/><path fill="#9787F2" d="M143.465 295.893L235.988 295.893C252.243 295.893 265.421 282.716 265.421 266.461L265.421 248.216C265.42 232.381 278.257 219.544 294.092 219.544C309.927 219.544 322.764 206.707 322.764 190.872L322.764 83.4984C322.764 67.2435 335.941 54.0663 352.196 54.0663L365.094 54.0663C381.349 54.0663 394.526 67.2435 394.526 83.4984L394.526 371.318C394.526 387.573 381.349 400.75 365.094 400.75L143.465 400.75C127.21 400.75 114.033 387.573 114.033 371.318L114.033 325.325C114.033 309.07 127.21 295.893 143.465 295.893Z"/><path fill="#9787F2" d="M16.1151 301.137L-32.8269 301.137C-49.0818 301.137 -62.259 287.959 -62.259 271.705L-62.259 -7.92293C-62.259 -24.1778 -49.0819 -37.355 -32.827 -37.355L222.002 -37.355C238.257 -37.355 251.434 -24.1778 251.434 -7.92294L251.434 79.1067C251.434 95.3616 238.257 108.539 222.002 108.539L74.9792 108.539C58.7244 108.539 45.5472 121.716 45.5472 137.971L45.5472 271.705C45.5472 287.96 32.37 301.137 16.1151 301.137Z"/><path fill="#A899FF" d="M159.252 34.4062L-37.3553 34.4062C-44.5941 34.4062 -50.4624 28.538 -50.4624 21.2991L-50.4624 -24.2482C-50.4624 -31.4871 -44.5941 -37.3554 -37.3553 -37.3554L159.252 -37.3554C166.491 -37.3554 172.359 -31.4872 172.359 -24.2483L172.359 21.2991C172.359 28.538 166.491 34.4062 159.252 34.4062Z"/></g><rect width="168.287" height="56.802" x="99" y="155" fill="#000"/><path fill="#A899FF" d="M121.391 184.876L119.519 184.53C117.138 184.041 115.103 182.821 115.103 180.257C115.103 177.286 118.278 175.984 120.984 175.984C124.036 175.984 126.62 177.774 126.783 180.603H123.975C123.751 178.873 122.245 178.303 120.862 178.303C119.498 178.303 118.013 178.812 118.013 180.135C118.013 181.172 118.868 181.742 120.068 181.966L122.001 182.312C124.402 182.759 127.047 183.675 127.047 186.747C127.047 189.779 124.036 191.265 121.065 191.265C117.443 191.265 115.042 189.311 114.778 186.137H117.586C117.911 188.314 119.417 188.945 121.167 188.945C122.469 188.945 124.117 188.457 124.117 186.89C124.117 185.649 122.957 185.14 121.391 184.876ZM131.755 176.248V191H128.845V176.248H131.755ZM141.123 175.984C144.603 175.984 146.922 177.998 147.411 180.725H144.643C144.175 179.097 142.751 178.303 141.103 178.303C138.641 178.303 136.911 180.033 136.911 183.553C136.911 187.073 138.56 188.945 141.083 188.945C142.649 188.945 144.765 188.151 144.765 185.791V185.547H141.083V183.166H147.451V191H145.152L145.071 189.271C144.236 190.491 142.731 191.265 140.635 191.265C136.484 191.265 133.9 188.274 133.9 183.553C133.9 178.975 136.606 175.984 141.123 175.984ZM159.225 191H156.335L152.693 179.911V191H149.987V176.248H154.219L157.8 187.744L161.28 176.248H165.552V191H162.846V179.911L159.225 191ZM170.609 183.614C170.609 187.093 172.522 188.945 174.821 188.945C177.12 188.945 179.033 187.093 179.033 183.614C179.033 180.155 177.12 178.303 174.821 178.303C172.522 178.303 170.609 180.155 170.609 183.614ZM182.044 183.614C182.044 188.192 179.216 191.265 174.821 191.265C170.426 191.265 167.598 188.192 167.598 183.614C167.598 179.036 170.426 175.984 174.821 175.984C179.216 175.984 182.044 179.036 182.044 183.614ZM193.667 183.614C193.667 179.199 191.042 178.527 188.357 178.527H187.014V188.721H188.357C191.042 188.721 193.667 188.07 193.667 183.614ZM184.104 176.248H188.479C193.158 176.248 196.678 177.754 196.678 183.614C196.678 189.474 193.158 191 188.479 191H184.104V176.248ZM208.12 175.984C211.071 175.984 212.963 177.368 212.963 179.952C212.963 182.698 210.277 185.608 205.74 188.64H213.309V191H202.464V188.721C207.205 184.916 210.135 182.434 210.135 180.094C210.135 178.792 209.341 178.059 207.958 178.059C206.716 178.059 205.455 178.812 205.455 181.01H202.728C202.667 177.978 204.865 175.984 208.12 175.984ZM220.534 191.265C216.587 191.265 214.593 188.07 214.593 183.594C214.593 179.117 216.587 175.984 220.534 175.984C224.441 175.984 226.455 179.117 226.455 183.594C226.455 188.07 224.441 191.265 220.534 191.265ZM220.534 189.148C222.548 189.148 223.586 187.154 223.586 183.594C223.586 180.033 222.548 178.1 220.534 178.1C218.52 178.1 217.462 180.033 217.462 183.594C217.462 187.154 218.52 189.148 220.534 189.148ZM233.395 175.984C236.345 175.984 238.238 177.368 238.238 179.952C238.238 182.698 235.552 185.608 231.014 188.64H238.584V191H227.739V188.721C232.479 184.916 235.409 182.434 235.409 180.094C235.409 178.792 234.616 178.059 233.232 178.059C231.991 178.059 230.73 178.812 230.73 181.01H228.003C227.942 177.978 230.14 175.984 233.395 175.984ZM245.402 189.148C246.948 189.148 248.067 188.029 248.067 186.157C248.067 184.123 246.704 183.146 245.341 183.146C244.039 183.146 243.123 183.777 242.818 184.489L240.254 184.367L241.231 176.248H250.326V178.609H243.53L243.123 181.762C243.754 181.294 244.669 180.949 246.053 180.949C248.576 180.949 250.916 182.739 250.916 186.137C250.916 189.393 248.393 191.265 245.361 191.265C241.902 191.265 240.071 188.904 239.908 186.361H242.553C242.716 187.887 243.591 189.148 245.402 189.148Z"/></g><defs><clipPath id="clip0_7489_33979"><rect width="367" height="367" fill="#fff"/></clipPath><clipPath id="clip1_7489_33979"><rect width="367" height="367" fill="#fff"/></clipPath></defs></svg>