<svg xmlns="http://www.w3.org/2000/svg" width="367" height="367" fill="none" viewBox="0 0 367 367"><g clip-path="url(#clip0_7491_33950)"><rect width="367" height="367" fill="#A899FF"/><g clip-path="url(#clip1_7491_33950)"><rect width="367" height="367" fill="#A899FF"/><path fill="#9787F2" d="M89.7252 319.22L235.988 319.22C252.243 319.22 265.421 306.043 265.421 289.788L265.421 271.543C265.421 255.708 278.257 242.871 294.092 242.871C309.927 242.871 322.764 229.952 322.764 214.117C322.764 198.192 335.674 185.2 351.6 185.2L365.094 185.2C381.349 185.2 394.526 198.377 394.526 214.632L394.526 394.645C394.526 410.9 381.349 424.077 365.094 424.077L89.7252 424.077C73.4703 424.077 60.2931 410.9 60.2931 394.645L60.2931 348.652C60.2931 332.398 73.4702 319.22 89.7252 319.22Z"/><path fill="#9787F2" d="M16.1151 282.786L-32.8271 282.786C-49.0819 282.786 -62.2591 269.609 -62.2591 253.354L-62.2591 -26.2735C-62.2591 -42.5284 -49.0819 -55.7056 -32.827 -55.7056L261.546 -55.7056C277.801 -55.7056 290.978 -42.5285 290.978 -26.2736L290.978 10.5446C290.978 26.7994 277.801 39.9766 261.546 39.9767L197.695 39.9767C181.44 39.9767 168.263 53.1539 168.263 69.4088L168.263 93.4473C168.263 109.702 155.086 122.879 138.831 122.879L74.9793 122.879C58.7244 122.879 45.5473 136.057 45.5473 152.311L45.5473 253.354C45.5473 269.609 32.3701 282.786 16.1151 282.786Z"/><path fill="#A899FF" d="M-50.4624 -24.2488L-50.4624 64.552C-50.4624 71.7909 -44.5942 77.6592 -37.3553 77.6592L71.1065 77.6592C78.3453 77.6592 84.2136 71.7909 84.2136 64.552L84.2136 47.5128C84.2136 40.2739 90.0819 34.4057 97.3208 34.4057L131.072 34.4057C138.31 34.4057 144.179 28.5374 144.179 21.2985L144.179 -24.2487C144.179 -31.4876 138.31 -37.3559 131.072 -37.3559L-37.3553 -37.3559C-44.5942 -37.3559 -50.4624 -31.4876 -50.4624 -24.2488Z"/><path fill="#9787F2" d="M322.927 104.857L322.927 -118.619C322.927 -125.858 328.796 -131.727 336.034 -131.727L381.254 -131.727C388.493 -131.727 394.361 -125.858 394.361 -118.619L394.361 104.857C394.361 112.096 388.493 117.964 381.254 117.964L336.034 117.964C328.796 117.964 322.927 112.096 322.927 104.857Z"/></g><rect width="168.287" height="56.802" x="99" y="155" fill="#000"/><path fill="#A899FF" d="M129.925 176.248H133.078L136.598 187.358L140.017 176.248H143.109L138.023 191H135.052L129.925 176.248ZM147.234 176.248V188.64H154.416V191H144.324V176.248H147.234ZM165.293 183.614C165.293 179.199 162.668 178.527 159.982 178.527H158.639V188.721H159.982C162.668 188.721 165.293 188.07 165.293 183.614ZM155.729 176.248H160.104C164.784 176.248 168.304 177.754 168.304 183.614C168.304 189.474 164.784 191 160.104 191H155.729V176.248ZM170.354 191V176.248H176.092C178.676 176.248 181.463 177.062 181.463 180.094C181.463 181.478 180.548 182.719 179.795 183.207C180.934 183.756 181.992 184.611 181.992 186.646C181.992 189.82 179.368 191 176.336 191H170.354ZM173.263 184.53V188.721H176.478C178.187 188.721 179.022 188.009 179.022 186.646C179.022 185.262 178.167 184.53 176.356 184.53H173.263ZM173.263 178.527V182.332H176.275C177.658 182.332 178.472 181.681 178.472 180.379C178.472 179.219 177.638 178.527 176.275 178.527H173.263ZM193.257 175.984C196.208 175.984 198.1 177.368 198.1 179.952C198.1 182.698 195.414 185.608 190.877 188.64H198.446V191H187.601V188.721C192.342 184.916 195.272 182.434 195.272 180.094C195.272 178.792 194.478 178.059 193.095 178.059C191.853 178.059 190.592 178.812 190.592 181.01H187.865C187.804 177.978 190.002 175.984 193.257 175.984ZM205.671 191.265C201.724 191.265 199.73 188.07 199.73 183.594C199.73 179.117 201.724 175.984 205.671 175.984C209.578 175.984 211.592 179.117 211.592 183.594C211.592 188.07 209.578 191.265 205.671 191.265ZM205.671 189.148C207.686 189.148 208.723 187.154 208.723 183.594C208.723 180.033 207.686 178.1 205.671 178.1C203.657 178.1 202.599 180.033 202.599 183.594C202.599 187.154 203.657 189.148 205.671 189.148ZM218.532 175.984C221.483 175.984 223.375 177.368 223.375 179.952C223.375 182.698 220.689 185.608 216.152 188.64H223.721V191H212.876V188.721C217.617 184.916 220.547 182.434 220.547 180.094C220.547 178.792 219.753 178.059 218.369 178.059C217.128 178.059 215.867 178.812 215.867 181.01H213.14C213.079 177.978 215.277 175.984 218.532 175.984ZM230.315 175.984C233.266 175.984 235.158 177.368 235.158 179.952C235.158 182.698 232.472 185.608 227.935 188.64H235.504V191H224.659V188.721C229.4 184.916 232.33 182.434 232.33 180.094C232.33 178.792 231.536 178.059 230.152 178.059C228.911 178.059 227.65 178.812 227.65 181.01H224.923C224.862 177.978 227.06 175.984 230.315 175.984Z"/></g><defs><clipPath id="clip0_7491_33950"><rect width="367" height="367" fill="#fff"/></clipPath><clipPath id="clip1_7491_33950"><rect width="367" height="367" fill="#fff"/></clipPath></defs></svg>