<svg width="367" height="367" viewBox="0 0 367 367" fill="none" xmlns="http://www.w3.org/2000/svg">
<g clip-path="url(#clip0_7489_33945)">
<rect width="367" height="367" fill="#A899FF"/>
<g clip-path="url(#clip1_7489_33945)">
<rect width="367" height="367" fill="#A899FF"/>
<path d="M320.142 150.018L320.142 263.185C320.142 279.44 306.965 292.617 290.71 292.617L116.595 292.617C100.34 292.617 87.1624 305.794 87.1624 322.049L87.1624 371.647C87.1624 387.902 100.34 401.079 116.594 401.079L395.567 401.079C411.822 401.079 424.999 387.902 424.999 371.647L424.999 150.018C424.999 133.763 411.822 120.586 395.567 120.586L349.574 120.586C333.319 120.586 320.142 133.763 320.142 150.018Z" fill="#9787F2"/>
<path d="M87.7587 68.4847L214.875 68.4847C229.76 68.4847 241.827 56.4181 241.827 41.5331C241.827 26.6482 253.894 14.5816 268.778 14.5816L291.716 14.5816C301.986 14.5816 310.312 22.9072 310.312 33.1774C310.312 43.4475 318.637 51.7731 328.907 51.7731L372.957 51.7731C389.212 51.7731 402.389 38.596 402.389 22.3411L402.389 -9.88947C402.389 -26.1443 389.212 -39.3215 372.957 -39.3215L-23.6517 -39.3216C-39.9067 -39.3216 -53.0838 -26.1444 -53.0838 -9.88951L-53.0839 231.4C-53.0839 247.655 -39.9067 260.832 -23.6519 260.832L28.8944 260.832C45.1493 260.832 58.3265 247.655 58.3265 231.4L58.3266 97.9168C58.3267 81.6619 71.5038 68.4847 87.7587 68.4847Z" fill="#9787F2"/>
<path d="M121.896 -39.3213L-74.7107 -39.3213C-81.9496 -39.3213 -87.8179 -33.453 -87.8179 -26.2141L-87.8179 19.3332C-87.8179 26.5721 -81.9496 32.4403 -74.7107 32.4403L121.896 32.4404C129.135 32.4404 135.003 26.5721 135.003 19.3332L135.003 -26.2141C135.003 -33.453 129.135 -39.3213 121.896 -39.3213Z" fill="#A899FF"/>
</g>
<rect x="99" y="155" width="168.287" height="56.8021" fill="black"/>
<path d="M129.477 176.248H132.631L136.151 187.358L139.57 176.248H142.662L137.576 191H134.605L129.477 176.248ZM146.787 176.248V188.64H153.969V191H143.877V176.248H146.787ZM164.845 183.614C164.845 179.199 162.221 178.527 159.535 178.527H158.192V188.721H159.535C162.221 188.721 164.845 188.07 164.845 183.614ZM155.282 176.248H159.657C164.337 176.248 167.857 177.754 167.857 183.614C167.857 189.474 164.337 191 159.657 191H155.282V176.248ZM169.907 191V176.248H175.645C178.229 176.248 181.016 177.062 181.016 180.094C181.016 181.478 180.101 182.719 179.348 183.207C180.487 183.756 181.545 184.611 181.545 186.646C181.545 189.82 178.921 191 175.889 191H169.907ZM172.816 184.53V188.721H176.031C177.74 188.721 178.575 188.009 178.575 186.646C178.575 185.262 177.72 184.53 175.909 184.53H172.816ZM172.816 178.527V182.332H175.828C177.211 182.332 178.025 181.681 178.025 180.379C178.025 179.219 177.191 178.527 175.828 178.527H172.816ZM192.81 175.984C195.761 175.984 197.653 177.368 197.653 179.952C197.653 182.698 194.967 185.608 190.43 188.64H197.999V191H187.154V188.721C191.895 184.916 194.825 182.434 194.825 180.094C194.825 178.792 194.031 178.059 192.648 178.059C191.406 178.059 190.145 178.812 190.145 181.01H187.418C187.357 177.978 189.555 175.984 192.81 175.984ZM205.224 191.265C201.277 191.265 199.283 188.07 199.283 183.594C199.283 179.117 201.277 175.984 205.224 175.984C209.131 175.984 211.145 179.117 211.145 183.594C211.145 188.07 209.131 191.265 205.224 191.265ZM205.224 189.148C207.238 189.148 208.276 187.154 208.276 183.594C208.276 180.033 207.238 178.1 205.224 178.1C203.21 178.1 202.152 180.033 202.152 183.594C202.152 187.154 203.21 189.148 205.224 189.148ZM218.085 175.984C221.035 175.984 222.928 177.368 222.928 179.952C222.928 182.698 220.242 185.608 215.705 188.64H223.274V191H212.429V188.721C217.17 184.916 220.1 182.434 220.1 180.094C220.1 178.792 219.306 178.059 217.922 178.059C216.681 178.059 215.42 178.812 215.42 181.01H212.693C212.632 177.978 214.83 175.984 218.085 175.984ZM230.092 189.148C231.638 189.148 232.757 188.029 232.757 186.157C232.757 184.123 231.394 183.146 230.031 183.146C228.729 183.146 227.813 183.777 227.508 184.489L224.944 184.367L225.921 176.248H235.016V178.609H228.22L227.813 181.762C228.444 181.294 229.359 180.949 230.743 180.949C233.266 180.949 235.606 182.739 235.606 186.137C235.606 189.393 233.083 191.265 230.051 191.265C226.592 191.265 224.761 188.904 224.598 186.361H227.243C227.406 187.887 228.281 189.148 230.092 189.148Z" fill="#A899FF"/>
<g clip-path="url(#clip2_7489_33945)">
<rect width="367" height="367" fill="#A899FF"/>
<g clip-path="url(#clip3_7489_33945)">
<rect width="367" height="367" fill="#A899FF"/>
<path d="M320.142 150.018L320.142 263.185C320.142 279.44 306.965 292.617 290.71 292.617L116.595 292.617C100.34 292.617 87.1624 305.794 87.1624 322.049L87.1624 371.647C87.1624 387.902 100.34 401.079 116.594 401.079L395.567 401.079C411.822 401.079 424.999 387.902 424.999 371.647L424.999 150.018C424.999 133.763 411.822 120.586 395.567 120.586L349.574 120.586C333.319 120.586 320.142 133.763 320.142 150.018Z" fill="#9787F2"/>
<path d="M87.7587 68.4847L214.875 68.4847C229.76 68.4847 241.827 56.4181 241.827 41.5331C241.827 26.6482 253.894 14.5816 268.778 14.5816L291.716 14.5816C301.986 14.5816 310.312 22.9072 310.312 33.1774C310.312 43.4475 318.637 51.7731 328.907 51.7731L372.957 51.7731C389.212 51.7731 402.389 38.596 402.389 22.3411L402.389 -9.88947C402.389 -26.1443 389.212 -39.3215 372.957 -39.3215L-23.6517 -39.3216C-39.9067 -39.3216 -53.0838 -26.1444 -53.0838 -9.88951L-53.0839 231.4C-53.0839 247.655 -39.9067 260.832 -23.6519 260.832L28.8944 260.832C45.1493 260.832 58.3265 247.655 58.3265 231.4L58.3266 97.9168C58.3267 81.6619 71.5038 68.4847 87.7587 68.4847Z" fill="#9787F2"/>
<path d="M121.896 -39.3213L-74.7107 -39.3213C-81.9496 -39.3213 -87.8179 -33.453 -87.8179 -26.2141L-87.8179 19.3332C-87.8179 26.5721 -81.9496 32.4403 -74.7107 32.4403L121.896 32.4404C129.135 32.4404 135.003 26.5721 135.003 19.3332L135.003 -26.2141C135.003 -33.453 129.135 -39.3213 121.896 -39.3213Z" fill="#A899FF"/>
</g>
<rect x="99" y="155" width="168.287" height="56.8021" fill="black"/>
<path d="M129.477 176.248H132.631L136.151 187.358L139.57 176.248H142.662L137.576 191H134.605L129.477 176.248ZM146.787 176.248V188.64H153.969V191H143.877V176.248H146.787ZM164.845 183.614C164.845 179.199 162.221 178.527 159.535 178.527H158.192V188.721H159.535C162.221 188.721 164.845 188.07 164.845 183.614ZM155.282 176.248H159.657C164.337 176.248 167.857 177.754 167.857 183.614C167.857 189.474 164.337 191 159.657 191H155.282V176.248ZM169.907 191V176.248H175.645C178.229 176.248 181.016 177.062 181.016 180.094C181.016 181.478 180.101 182.719 179.348 183.207C180.487 183.756 181.545 184.611 181.545 186.646C181.545 189.82 178.921 191 175.889 191H169.907ZM172.816 184.53V188.721H176.031C177.74 188.721 178.575 188.009 178.575 186.646C178.575 185.262 177.72 184.53 175.909 184.53H172.816ZM172.816 178.527V182.332H175.828C177.211 182.332 178.025 181.681 178.025 180.379C178.025 179.219 177.191 178.527 175.828 178.527H172.816ZM192.81 175.984C195.761 175.984 197.653 177.368 197.653 179.952C197.653 182.698 194.967 185.608 190.43 188.64H197.999V191H187.154V188.721C191.895 184.916 194.825 182.434 194.825 180.094C194.825 178.792 194.031 178.059 192.648 178.059C191.406 178.059 190.145 178.812 190.145 181.01H187.418C187.357 177.978 189.555 175.984 192.81 175.984ZM205.224 191.265C201.277 191.265 199.283 188.07 199.283 183.594C199.283 179.117 201.277 175.984 205.224 175.984C209.131 175.984 211.145 179.117 211.145 183.594C211.145 188.07 209.131 191.265 205.224 191.265ZM205.224 189.148C207.238 189.148 208.276 187.154 208.276 183.594C208.276 180.033 207.238 178.1 205.224 178.1C203.21 178.1 202.152 180.033 202.152 183.594C202.152 187.154 203.21 189.148 205.224 189.148ZM218.085 175.984C221.035 175.984 222.928 177.368 222.928 179.952C222.928 182.698 220.242 185.608 215.705 188.64H223.274V191H212.429V188.721C217.17 184.916 220.1 182.434 220.1 180.094C220.1 178.792 219.306 178.059 217.922 178.059C216.681 178.059 215.42 178.812 215.42 181.01H212.693C212.632 177.978 214.83 175.984 218.085 175.984ZM230.092 189.148C231.638 189.148 232.757 188.029 232.757 186.157C232.757 184.123 231.394 183.146 230.031 183.146C228.729 183.146 227.813 183.777 227.508 184.489L224.944 184.367L225.921 176.248H235.016V178.609H228.22L227.813 181.762C228.444 181.294 229.359 180.949 230.743 180.949C233.266 180.949 235.606 182.739 235.606 186.137C235.606 189.393 233.083 191.265 230.051 191.265C226.592 191.265 224.761 188.904 224.598 186.361H227.243C227.406 187.887 228.281 189.148 230.092 189.148Z" fill="#A899FF"/>
<g clip-path="url(#clip4_7489_33945)">
<rect width="367" height="367" fill="#A899FF"/>
<g clip-path="url(#clip5_7489_33945)">
<rect width="367" height="367" fill="#A899FF"/>
<path d="M143.465 295.893L235.988 295.893C252.243 295.893 265.421 282.716 265.421 266.461L265.421 248.216C265.42 232.381 278.257 219.544 294.092 219.544C309.927 219.544 322.764 206.707 322.764 190.872L322.764 83.4984C322.764 67.2435 335.941 54.0663 352.196 54.0663L365.094 54.0663C381.349 54.0663 394.526 67.2435 394.526 83.4984L394.526 371.318C394.526 387.573 381.349 400.75 365.094 400.75L143.465 400.75C127.21 400.75 114.033 387.573 114.033 371.318L114.033 325.325C114.033 309.07 127.21 295.893 143.465 295.893Z" fill="#9787F2"/>
<path d="M16.1151 301.137L-32.8269 301.137C-49.0818 301.137 -62.259 287.959 -62.259 271.705L-62.259 -7.92293C-62.259 -24.1778 -49.0819 -37.355 -32.827 -37.355L222.002 -37.355C238.257 -37.355 251.434 -24.1778 251.434 -7.92294L251.434 79.1067C251.434 95.3616 238.257 108.539 222.002 108.539L74.9792 108.539C58.7244 108.539 45.5472 121.716 45.5472 137.971L45.5472 271.705C45.5472 287.96 32.37 301.137 16.1151 301.137Z" fill="#9787F2"/>
<path d="M159.252 34.4062L-37.3553 34.4062C-44.5941 34.4062 -50.4624 28.538 -50.4624 21.2991L-50.4624 -24.2482C-50.4624 -31.4871 -44.5941 -37.3554 -37.3553 -37.3554L159.252 -37.3554C166.491 -37.3554 172.359 -31.4872 172.359 -24.2483L172.359 21.2991C172.359 28.538 166.491 34.4062 159.252 34.4062Z" fill="#A899FF"/>
</g>
<rect x="99" y="155" width="168.287" height="56.8021" fill="black"/>
<path d="M129.567 176.248H132.721L136.241 187.358L139.659 176.248H142.752L137.665 191H134.694L129.567 176.248ZM146.876 176.248V188.64H154.058V191H143.966V176.248H146.876ZM164.935 183.614C164.935 179.199 162.31 178.527 159.624 178.527H158.281V188.721H159.624C162.31 188.721 164.935 188.07 164.935 183.614ZM155.372 176.248H159.746C164.426 176.248 167.946 177.754 167.946 183.614C167.946 189.474 164.426 191 159.746 191H155.372V176.248ZM169.996 191V176.248H175.734C178.318 176.248 181.106 177.062 181.106 180.094C181.106 181.478 180.19 182.719 179.437 183.207C180.577 183.756 181.635 184.611 181.635 186.646C181.635 189.82 179.01 191 175.978 191H169.996ZM172.906 184.53V188.721H176.121C177.83 188.721 178.664 188.009 178.664 186.646C178.664 185.262 177.809 184.53 175.999 184.53H172.906ZM172.906 178.527V182.332H175.917C177.301 182.332 178.115 181.681 178.115 180.379C178.115 179.219 177.28 178.527 175.917 178.527H172.906ZM192.9 175.984C195.85 175.984 197.742 177.368 197.742 179.952C197.742 182.698 195.057 185.608 190.519 188.64H198.088V191H187.243V188.721C191.984 184.916 194.914 182.434 194.914 180.094C194.914 178.792 194.121 178.059 192.737 178.059C191.496 178.059 190.234 178.812 190.234 181.01H187.508C187.447 177.978 189.644 175.984 192.9 175.984ZM205.314 191.265C201.366 191.265 199.372 188.07 199.372 183.594C199.372 179.117 201.366 175.984 205.314 175.984C209.22 175.984 211.234 179.117 211.234 183.594C211.234 188.07 209.22 191.265 205.314 191.265ZM205.314 189.148C207.328 189.148 208.366 187.154 208.366 183.594C208.366 180.033 207.328 178.1 205.314 178.1C203.299 178.1 202.241 180.033 202.241 183.594C202.241 187.154 203.299 189.148 205.314 189.148ZM218.175 175.984C221.125 175.984 223.017 177.368 223.017 179.952C223.017 182.698 220.331 185.608 215.794 188.64H223.363V191H212.518V188.721C217.259 184.916 220.189 182.434 220.189 180.094C220.189 178.792 219.395 178.059 218.012 178.059C216.771 178.059 215.509 178.812 215.509 181.01H212.783C212.722 177.978 214.919 175.984 218.175 175.984ZM230.883 179.809L226.671 185.079H230.883V179.809ZM236.193 185.079V187.46H233.67V191H230.883V187.46H223.598V185.262L230.923 176.248H233.67V185.079H236.193Z" fill="#A899FF"/>
</g>
</g>
</g>
<defs>
<clipPath id="clip0_7489_33945">
<rect width="367" height="367" fill="white"/>
</clipPath>
<clipPath id="clip1_7489_33945">
<rect width="367" height="367" fill="white"/>
</clipPath>
<clipPath id="clip2_7489_33945">
<rect width="367" height="367" fill="white"/>
</clipPath>
<clipPath id="clip3_7489_33945">
<rect width="367" height="367" fill="white"/>
</clipPath>
<clipPath id="clip4_7489_33945">
<rect width="367" height="367" fill="white"/>
</clipPath>
<clipPath id="clip5_7489_33945">
<rect width="367" height="367" fill="white"/>
</clipPath>
</defs>
</svg>
