<svg width="367" height="367" viewBox="0 0 367 367" fill="none" xmlns="http://www.w3.org/2000/svg">
<g clip-path="url(#clip0_7489_33970)">
<rect width="367" height="367" fill="#A899FF"/>
<g clip-path="url(#clip1_7489_33970)">
<rect width="367" height="367" fill="#A899FF"/>
<path d="M45.8749 235.274L45.875 110.1C45.875 102.861 51.7432 96.993 58.9821 96.9931L151.387 96.9931C158.626 96.9931 164.495 91.1248 164.495 83.8859L164.495 52.7565C164.495 45.5176 170.363 39.6493 177.602 39.6493L274.595 39.6493C281.833 39.6493 287.702 33.7811 287.702 26.5422L287.702 -19.0051C287.702 -26.244 281.834 -32.1123 274.595 -32.1123L-45.8748 -32.1123C-53.1137 -32.1123 -58.9819 -26.244 -58.9819 -19.0051L-58.9819 235.274C-58.9819 242.513 -53.1137 248.381 -45.8748 248.381L32.7678 248.381C40.0067 248.381 45.8749 242.513 45.8749 235.274Z" fill="#9787F2"/>
<path d="M79.9536 306.976L79.9537 355.918C79.9537 372.173 93.1309 385.35 109.386 385.35L389.013 385.35C405.268 385.35 418.445 372.173 418.445 355.918L418.445 87.7593C418.445 71.5044 405.268 58.3272 389.013 58.3272L325.981 58.3272C309.726 58.3272 296.549 71.5044 296.549 87.7593L296.549 248.112C296.549 264.367 283.372 277.544 267.117 277.544L109.386 277.544C93.1308 277.544 79.9536 290.721 79.9536 306.976Z" fill="#9787F2"/>
<path d="M455.474 86.5068L455.474 262.798C455.474 270.037 449.605 275.905 442.367 275.905L349.961 275.905C342.722 275.905 336.854 281.774 336.854 289.013L336.854 320.142C336.854 327.381 330.986 333.249 323.747 333.249L226.754 333.249C219.515 333.249 213.647 339.117 213.647 346.356L213.647 391.904C213.647 399.142 219.515 405.011 226.754 405.011L547.223 405.011C554.462 405.011 560.331 399.142 560.331 391.904L560.331 86.5069C560.331 79.268 554.462 73.3997 547.223 73.3997L468.581 73.3997C461.342 73.3997 455.474 79.2679 455.474 86.5068Z" fill="#A899FF"/>
</g>
<rect x="99" y="155" width="168.287" height="56.8021" fill="black"/>
<path d="M129.567 176.248H132.721L136.241 187.358L139.659 176.248H142.752L137.665 191H134.694L129.567 176.248ZM146.876 176.248V188.64H154.058V191H143.966V176.248H146.876ZM164.935 183.614C164.935 179.199 162.31 178.527 159.624 178.527H158.281V188.721H159.624C162.31 188.721 164.935 188.07 164.935 183.614ZM155.372 176.248H159.746C164.426 176.248 167.946 177.754 167.946 183.614C167.946 189.474 164.426 191 159.746 191H155.372V176.248ZM169.996 191V176.248H175.734C178.318 176.248 181.106 177.062 181.106 180.094C181.106 181.478 180.19 182.719 179.437 183.207C180.577 183.756 181.635 184.611 181.635 186.646C181.635 189.82 179.01 191 175.978 191H169.996ZM172.906 184.53V188.721H176.121C177.83 188.721 178.664 188.009 178.664 186.646C178.664 185.262 177.809 184.53 175.999 184.53H172.906ZM172.906 178.527V182.332H175.917C177.301 182.332 178.115 181.681 178.115 180.379C178.115 179.219 177.28 178.527 175.917 178.527H172.906ZM192.9 175.984C195.85 175.984 197.742 177.368 197.742 179.952C197.742 182.698 195.057 185.608 190.519 188.64H198.088V191H187.243V188.721C191.984 184.916 194.914 182.434 194.914 180.094C194.914 178.792 194.121 178.059 192.737 178.059C191.496 178.059 190.234 178.812 190.234 181.01H187.508C187.447 177.978 189.644 175.984 192.9 175.984ZM205.314 191.265C201.366 191.265 199.372 188.07 199.372 183.594C199.372 179.117 201.366 175.984 205.314 175.984C209.22 175.984 211.234 179.117 211.234 183.594C211.234 188.07 209.22 191.265 205.314 191.265ZM205.314 189.148C207.328 189.148 208.366 187.154 208.366 183.594C208.366 180.033 207.328 178.1 205.314 178.1C203.299 178.1 202.241 180.033 202.241 183.594C202.241 187.154 203.299 189.148 205.314 189.148ZM218.175 175.984C221.125 175.984 223.017 177.368 223.017 179.952C223.017 182.698 220.331 185.608 215.794 188.64H223.363V191H212.518V188.721C217.259 184.916 220.189 182.434 220.189 180.094C220.189 178.792 219.395 178.059 218.012 178.059C216.771 178.059 215.509 178.812 215.509 181.01H212.783C212.722 177.978 214.919 175.984 218.175 175.984ZM229.917 189.148C231.463 189.148 232.684 188.233 232.684 186.849C232.684 185.12 231.077 184.428 228.981 184.428H228.391V182.23H228.879C230.995 182.23 232.318 181.457 232.318 180.074C232.318 178.792 231.199 178.1 229.978 178.1C228.269 178.1 227.211 179.158 227.068 180.704H224.403C224.728 177.754 226.743 175.984 230.141 175.984C232.603 175.984 235.146 177.164 235.146 179.952C235.146 181.396 234.291 182.556 233.152 183.187C234.678 183.838 235.533 185.282 235.533 186.768C235.533 189.759 232.949 191.265 229.835 191.265C226.458 191.265 224.444 189.067 224.281 186.361H226.926C227.15 187.846 228.065 189.148 229.917 189.148Z" fill="#A899FF"/>
</g>
<defs>
<clipPath id="clip0_7489_33970">
<rect width="367" height="367" fill="white"/>
</clipPath>
<clipPath id="clip1_7489_33970">
<rect width="367" height="367" fill="white"/>
</clipPath>
</defs>
</svg>
