<svg xmlns="http://www.w3.org/2000/svg" width="367" height="367" fill="none" viewBox="0 0 367 367"><g clip-path="url(#clip0_7489_33909)"><rect width="367" height="367" fill="#A899FF"/><g clip-path="url(#clip1_7489_33909)"><rect width="367" height="367" fill="#A899FF"/><path fill="#9787F2" d="M45.8749 218.949L45.875 126.425C45.875 110.17 59.0522 96.9931 75.307 96.9931L135.823 96.9931C151.658 96.9931 164.495 84.1562 164.495 68.3212C164.495 52.4862 177.331 39.6493 193.167 39.6493L258.27 39.6493C274.525 39.6493 287.702 26.4722 287.702 10.2173L287.702 -2.6802C287.702 -18.9351 274.525 -32.1123 258.27 -32.1123L-29.5499 -32.1123C-45.8047 -32.1123 -58.9819 -18.9351 -58.9819 -2.68021L-58.9819 218.949C-58.9819 235.204 -45.8048 248.381 -29.5499 248.381L16.4428 248.381C32.6977 248.381 45.8749 235.204 45.8749 218.949Z"/><path fill="#9787F2" d="M79.9536 306.976L79.9537 355.918C79.9537 372.173 93.1309 385.35 109.386 385.35L389.013 385.35C405.268 385.35 418.445 372.173 418.445 355.918L418.445 87.7593C418.445 71.5044 405.268 58.3272 389.013 58.3272L325.981 58.3272C309.726 58.3272 296.549 71.5044 296.549 87.7593L296.549 248.112C296.549 264.367 283.372 277.544 267.117 277.544L109.386 277.544C93.1308 277.544 79.9536 290.721 79.9536 306.976Z"/><path fill="#A899FF" d="M455.474 86.5068L455.474 262.798C455.474 270.037 449.605 275.905 442.367 275.905L349.961 275.905C342.722 275.905 336.854 281.774 336.854 289.013L336.854 320.142C336.854 327.381 330.986 333.249 323.747 333.249L226.754 333.249C219.515 333.249 213.647 339.117 213.647 346.356L213.647 391.904C213.647 399.142 219.515 405.011 226.754 405.011L547.223 405.011C554.462 405.011 560.331 399.142 560.331 391.904L560.331 86.5069C560.331 79.268 554.462 73.3997 547.223 73.3997L468.581 73.3997C461.342 73.3997 455.474 79.2679 455.474 86.5068Z"/></g><rect width="168.287" height="56.802" x="99" y="155" fill="#000"/><path fill="#A899FF" d="M129.477 176.248H132.631L136.151 187.358L139.57 176.248H142.662L137.576 191H134.605L129.477 176.248ZM146.787 176.248V188.64H153.969V191H143.877V176.248H146.787ZM164.845 183.614C164.845 179.199 162.221 178.527 159.535 178.527H158.192V188.721H159.535C162.221 188.721 164.845 188.07 164.845 183.614ZM155.282 176.248H159.657C164.337 176.248 167.857 177.754 167.857 183.614C167.857 189.474 164.337 191 159.657 191H155.282V176.248ZM169.907 191V176.248H175.645C178.229 176.248 181.016 177.062 181.016 180.094C181.016 181.478 180.101 182.719 179.348 183.207C180.487 183.756 181.545 184.611 181.545 186.646C181.545 189.82 178.921 191 175.889 191H169.907ZM172.816 184.53V188.721H176.031C177.74 188.721 178.575 188.009 178.575 186.646C178.575 185.262 177.72 184.53 175.909 184.53H172.816ZM172.816 178.527V182.332H175.828C177.211 182.332 178.025 181.681 178.025 180.379C178.025 179.219 177.191 178.527 175.828 178.527H172.816ZM192.81 175.984C195.761 175.984 197.653 177.368 197.653 179.952C197.653 182.698 194.967 185.608 190.43 188.64H197.999V191H187.154V188.721C191.895 184.916 194.825 182.434 194.825 180.094C194.825 178.792 194.031 178.059 192.648 178.059C191.406 178.059 190.145 178.812 190.145 181.01H187.418C187.357 177.978 189.555 175.984 192.81 175.984ZM205.224 191.265C201.277 191.265 199.283 188.07 199.283 183.594C199.283 179.117 201.277 175.984 205.224 175.984C209.131 175.984 211.145 179.117 211.145 183.594C211.145 188.07 209.131 191.265 205.224 191.265ZM205.224 189.148C207.238 189.148 208.276 187.154 208.276 183.594C208.276 180.033 207.238 178.1 205.224 178.1C203.21 178.1 202.152 180.033 202.152 183.594C202.152 187.154 203.21 189.148 205.224 189.148ZM218.085 175.984C221.035 175.984 222.928 177.368 222.928 179.952C222.928 182.698 220.242 185.608 215.705 188.64H223.274V191H212.429V188.721C217.17 184.916 220.1 182.434 220.1 180.094C220.1 178.792 219.306 178.059 217.922 178.059C216.681 178.059 215.42 178.812 215.42 181.01H212.693C212.632 177.978 214.83 175.984 218.085 175.984ZM230.092 189.148C231.638 189.148 232.757 188.029 232.757 186.157C232.757 184.123 231.394 183.146 230.031 183.146C228.729 183.146 227.813 183.777 227.508 184.489L224.944 184.367L225.921 176.248H235.016V178.609H228.22L227.813 181.762C228.444 181.294 229.359 180.949 230.743 180.949C233.266 180.949 235.606 182.739 235.606 186.137C235.606 189.393 233.083 191.265 230.051 191.265C226.592 191.265 224.761 188.904 224.598 186.361H227.243C227.406 187.887 228.281 189.148 230.092 189.148Z"/></g><defs><clipPath id="clip0_7489_33909"><rect width="367" height="367" fill="#fff"/></clipPath><clipPath id="clip1_7489_33909"><rect width="367" height="367" fill="#fff"/></clipPath></defs></svg>