<svg width="480" height="287" viewBox="0 0 480 287" fill="none" xmlns="http://www.w3.org/2000/svg">
<path d="M10 0.5H470C475.247 0.5 479.5 4.75329 479.5 10V276.407C479.5 281.654 475.247 285.907 470 285.907H10C4.7533 285.907 0.5 281.654 0.5 276.407V10C0.500005 4.7533 4.7533 0.5 10 0.5Z" fill="#262626"/>
<path d="M10 0.5H470C475.247 0.5 479.5 4.75329 479.5 10V276.407C479.5 281.654 475.247 285.907 470 285.907H10C4.7533 285.907 0.5 281.654 0.5 276.407V10C0.500005 4.7533 4.7533 0.5 10 0.5Z" fill="#1A1A1A"/>
<path d="M10 0.5H470C475.247 0.5 479.5 4.75329 479.5 10V276.407C479.5 281.654 475.247 285.907 470 285.907H10C4.7533 285.907 0.5 281.654 0.5 276.407V10C0.500005 4.7533 4.7533 0.5 10 0.5Z" stroke="#4C4C4C"/>
<path d="M207.195 62.7832C207 62.588 207 62.2714 207.195 62.0761L210.377 58.8942C210.573 58.6989 210.889 58.6989 211.084 58.8942C211.28 59.0894 211.28 59.406 211.084 59.6013L208.256 62.4297L211.084 65.2581C211.28 65.4534 211.28 65.77 211.084 65.9652C210.889 66.1605 210.573 66.1605 210.377 65.9652L207.195 62.7832ZM267.027 62.0761C267.222 62.2714 267.222 62.588 267.027 62.7832L263.845 65.9652C263.65 66.1605 263.333 66.1605 263.138 65.9652C262.943 65.77 262.943 65.4534 263.138 65.2581L265.966 62.4297L263.138 59.6013C262.943 59.406 262.943 59.0894 263.138 58.8942C263.333 58.6989 263.65 58.6989 263.845 58.8942L267.027 62.0761ZM207.549 62.4297L207.549 61.9297L266.674 61.9297L266.674 62.4297L266.674 62.9297L207.549 62.9297L207.549 62.4297Z" fill="#666666"/>
<path d="M103.243 120.641C103.509 120.57 103.783 120.728 103.855 120.995L105.019 125.342C105.091 125.608 104.933 125.883 104.666 125.954C104.399 126.025 104.125 125.867 104.053 125.6L103.018 121.737L99.1546 122.772C98.8879 122.843 98.6137 122.685 98.5423 122.418C98.4708 122.151 98.6291 121.877 98.8958 121.806L103.243 120.641ZM88.3013 147.932C88.0345 148.004 87.7604 147.845 87.6889 147.579L86.5244 143.232C86.4529 142.965 86.6112 142.691 86.878 142.62C87.1447 142.548 87.4189 142.706 87.4903 142.973L88.5255 146.837L92.3892 145.802C92.6559 145.73 92.9301 145.889 93.0016 146.155C93.073 146.422 92.9147 146.696 92.648 146.768L88.3013 147.932ZM103.372 121.124L103.805 121.374L88.6049 147.699L88.1719 147.449L87.7389 147.199L102.939 120.874L103.372 121.124Z" fill="#666666"/>
<path d="M136.3 120.641C136.034 120.57 135.76 120.728 135.688 120.995L134.524 125.342C134.452 125.608 134.61 125.883 134.877 125.954C135.144 126.025 135.418 125.867 135.489 125.6L136.525 121.737L140.388 122.772C140.655 122.843 140.929 122.685 141.001 122.418C141.072 122.151 140.914 121.877 140.647 121.806L136.3 120.641ZM151.242 147.932C151.508 148.004 151.783 147.845 151.854 147.579L153.019 143.232C153.09 142.965 152.932 142.691 152.665 142.62C152.398 142.548 152.124 142.706 152.053 142.973L151.018 146.837L147.154 145.802C146.887 145.73 146.613 145.889 146.541 146.155C146.47 146.422 146.628 146.696 146.895 146.768L151.242 147.932ZM136.171 121.124L135.738 121.374L150.938 147.699L151.371 147.449L151.804 147.199L136.604 120.874L136.171 121.124Z" fill="#666666"/>
<path d="M376.63 120.641C376.363 120.57 376.089 120.728 376.017 120.995L374.853 125.342C374.781 125.608 374.939 125.883 375.206 125.954C375.473 126.025 375.747 125.867 375.819 125.6L376.854 121.737L380.717 122.772C380.984 122.843 381.258 122.685 381.33 122.418C381.401 122.151 381.243 121.877 380.976 121.806L376.63 120.641ZM391.571 147.932C391.838 148.004 392.112 147.845 392.183 147.579L393.348 143.232C393.419 142.965 393.261 142.691 392.994 142.62C392.727 142.548 392.453 142.706 392.382 142.973L391.347 146.837L387.483 145.802C387.216 145.73 386.942 145.889 386.871 146.155C386.799 146.422 386.957 146.696 387.224 146.768L391.571 147.932ZM376.5 121.124L376.067 121.374L391.267 147.699L391.7 147.449L392.133 147.199L376.933 120.874L376.5 121.124Z" fill="#666666"/>
<path d="M314.571 120.641C314.837 120.57 315.112 120.728 315.183 120.995L316.348 125.342C316.419 125.608 316.261 125.883 315.994 125.954C315.727 126.025 315.453 125.867 315.382 125.6L314.346 121.737L310.483 122.772C310.216 122.843 309.942 122.685 309.87 122.418C309.799 122.151 309.957 121.877 310.224 121.806L314.571 120.641ZM299.629 147.932C299.363 148.004 299.088 147.845 299.017 147.579L297.853 143.232C297.781 142.965 297.939 142.691 298.206 142.62C298.473 142.548 298.747 142.706 298.818 142.973L299.854 146.837L303.717 145.802C303.984 145.73 304.258 145.889 304.33 146.155C304.401 146.422 304.243 146.696 303.976 146.768L299.629 147.932ZM314.7 121.124L315.133 121.374L299.933 147.699L299.5 147.449L299.067 147.199L314.267 120.874L314.7 121.124Z" fill="#666666"/>
<path d="M114.11 166.008H43.2117C41.1618 166.008 39.5 167.67 39.5 169.719V242.696C39.5 244.746 41.1618 246.407 43.2117 246.407H114.11C116.16 246.407 117.822 244.746 117.822 242.696V169.719C117.822 167.67 116.16 166.008 114.11 166.008Z" fill="#262626" stroke="#808080" stroke-miterlimit="10"/>
<path d="M45.6787 191L53.6787 195.617L45.6787 200.236" stroke="#808080" stroke-miterlimit="10"/>
<path d="M56.1787 202H65.1787" stroke="#808080" stroke-miterlimit="10"/>
<path d="M336.11 166.008H265.212C263.162 166.008 261.5 167.67 261.5 169.719V242.696C261.5 244.746 263.162 246.407 265.212 246.407H336.11C338.16 246.407 339.822 244.746 339.822 242.696V169.719C339.822 167.67 338.16 166.008 336.11 166.008Z" fill="#262626" stroke="#808080" stroke-miterlimit="10"/>
<path d="M265.247 166.008H336.146C338.197 166.008 339.857 167.668 339.857 169.719V185.274H261.535V169.719C261.535 167.668 263.196 166.008 265.247 166.008Z" fill="#262626" stroke="#808080" stroke-miterlimit="10"/>
<path d="M268.098 178.873C269.677 178.873 270.957 177.593 270.957 176.014C270.957 174.436 269.677 173.156 268.098 173.156C266.52 173.156 265.24 174.436 265.24 176.014C265.24 177.593 266.52 178.873 268.098 178.873Z" fill="#262626" stroke="#808080" stroke-miterlimit="10"/>
<path d="M276.699 178.873C278.278 178.873 279.557 177.593 279.557 176.014C279.557 174.436 278.278 173.156 276.699 173.156C275.12 173.156 273.841 174.436 273.841 176.014C273.841 177.593 275.12 178.873 276.699 178.873Z" fill="#262626" stroke="#808080" stroke-miterlimit="10"/>
<path d="M285.287 178.873C286.865 178.873 288.145 177.593 288.145 176.014C288.145 174.436 286.865 173.156 285.287 173.156C283.708 173.156 282.429 174.436 282.429 176.014C282.429 177.593 283.708 178.873 285.287 178.873Z" fill="#262626" stroke="#808080" stroke-miterlimit="10"/>
<path d="M267.679 191L275.679 195.617L267.679 200.236" stroke="#808080" stroke-miterlimit="10"/>
<path d="M278.179 202H287.179" stroke="#808080" stroke-miterlimit="10"/>
<path d="M43.2117 166.008H114.11C116.162 166.008 117.822 167.668 117.822 169.719V185.274H39.5V169.719C39.5 167.668 41.1607 166.008 43.2117 166.008Z" fill="#262626" stroke="#808080" stroke-miterlimit="10"/>
<path d="M46.0633 178.873C47.6418 178.873 48.9214 177.593 48.9214 176.014C48.9214 174.436 47.6418 173.156 46.0633 173.156C44.4847 173.156 43.2051 174.436 43.2051 176.014C43.2051 177.593 44.4847 178.873 46.0633 178.873Z" fill="#262626" stroke="#808080" stroke-miterlimit="10"/>
<path d="M54.6638 178.873C56.2424 178.873 57.522 177.593 57.522 176.014C57.522 174.436 56.2424 173.156 54.6638 173.156C53.0853 173.156 51.8057 174.436 51.8057 176.014C51.8057 177.593 53.0853 178.873 54.6638 178.873Z" fill="#262626" stroke="#808080" stroke-miterlimit="10"/>
<path d="M63.2517 178.873C64.8303 178.873 66.1099 177.593 66.1099 176.014C66.1099 174.436 64.8303 173.156 63.2517 173.156C61.6732 173.156 60.3936 174.436 60.3936 176.014C60.3936 177.593 61.6732 178.873 63.2517 178.873Z" fill="#262626" stroke="#808080" stroke-miterlimit="10"/>
<path d="M328.38 31.4912L308.523 65.3234C308.509 65.3483 308.508 65.3789 308.52 65.4049L328.395 106.158C328.406 106.181 328.427 106.198 328.451 106.204L342.003 109.776C342.025 109.782 342.044 109.796 342.055 109.816L347.958 119.873C347.991 119.93 348.073 119.93 348.107 119.873L358.074 102.89C358.093 102.857 358.133 102.841 358.17 102.851L367.124 105.211C367.163 105.221 367.203 105.203 367.222 105.168L388.474 65.4122C388.49 65.3824 388.487 65.346 388.466 65.3192L365.454 35.1722C365.447 35.163 365.438 35.1552 365.428 35.1495L352.691 27.9156C352.678 27.9081 352.667 27.8973 352.659 27.8843L348.107 20.1268C348.073 20.07 347.991 20.07 347.958 20.1268L339.625 34.325C339.605 34.3584 339.566 34.3747 339.528 34.3648L328.476 31.4515C328.439 31.4416 328.399 31.4579 328.38 31.4912Z" fill="#102F41" stroke="#808080" stroke-miterlimit="10"/>
<path d="M365.5 100L369.5 92" stroke="#808080" stroke-miterlimit="10" stroke-linecap="round"/>
<path d="M322.5 48L327.5 39" stroke="#808080" stroke-miterlimit="10" stroke-linecap="round"/>
<path d="M367.5 78L371.5 71" stroke="#808080" stroke-miterlimit="10" stroke-linecap="round"/>
<path d="M364.5 41L375.5 57" stroke="#808080" stroke-miterlimit="10" stroke-linecap="round"/>
<path d="M326.5 89L331.5 102" stroke="#808080" stroke-miterlimit="10" stroke-linecap="round"/>
<path d="M352.5 28L341.5 47" stroke="#808080" stroke-miterlimit="10" stroke-linecap="round"/>
<path d="M379.5 66L369.271 83.5789C369.07 83.9244 368.74 84.1753 368.353 84.2761L351.032 88.7871C350.524 88.9193 349.985 88.7767 349.608 88.4111L344.357 83.3071" stroke="#808080" stroke-miterlimit="10" stroke-linecap="round"/>
<path d="M363.5 66L353.182 51.5231C352.988 51.2503 352.708 51.0504 352.386 50.9553L336.43 46.2336C335.938 46.0881 335.406 46.2038 335.02 46.5404L325.113 55.1614C324.73 55.4941 324.542 55.9972 324.612 56.4992L325.93 66" stroke="#808080" stroke-miterlimit="10" stroke-linecap="round"/>
<path d="M342.5 110L355.5 88" stroke="#808080" stroke-miterlimit="10" stroke-linecap="round"/>
<path d="M300.5 66L398.5 66" stroke="#808080" stroke-miterlimit="10" stroke-linecap="round"/>
<path d="M324.68 77H323.654V70.475H324.68V77ZM330.137 73.796H329.201C329.102 73.247 328.607 72.869 327.995 72.869C327.32 72.869 326.699 73.4 326.699 74.579C326.699 75.776 327.329 76.316 327.995 76.316C328.589 76.316 329.111 75.965 329.237 75.389H330.182C329.993 76.406 329.048 77.117 327.977 77.117C326.582 77.117 325.7 76.046 325.7 74.588C325.7 73.148 326.609 72.068 328.04 72.068C329.147 72.068 329.993 72.851 330.137 73.796ZM334.417 75.578H335.362C335.137 76.379 334.417 77.117 333.184 77.117C331.618 77.117 330.772 75.974 330.772 74.57C330.772 73.067 331.78 72.068 333.157 72.068C334.651 72.068 335.524 73.292 335.425 74.867H331.735C331.825 75.758 332.392 76.316 333.148 76.316C333.823 76.316 334.219 76.037 334.417 75.578ZM331.753 74.129H334.453C334.426 73.409 333.922 72.833 333.148 72.833C332.419 72.833 331.879 73.211 331.753 74.129ZM337.279 70.475V72.869C337.576 72.374 338.08 72.068 338.791 72.068C339.916 72.068 340.879 73.013 340.879 74.588C340.879 76.172 339.916 77.117 338.791 77.117C338.08 77.117 337.576 76.811 337.279 76.316V77H336.343V70.475H337.279ZM338.575 76.334C339.349 76.334 339.88 75.677 339.88 74.588C339.88 73.499 339.349 72.851 338.575 72.851C337.855 72.851 337.243 73.391 337.243 74.588C337.243 75.785 337.855 76.334 338.575 76.334ZM345.192 75.578H346.137C345.912 76.379 345.192 77.117 343.959 77.117C342.393 77.117 341.547 75.974 341.547 74.57C341.547 73.067 342.555 72.068 343.932 72.068C345.426 72.068 346.299 73.292 346.2 74.867H342.51C342.6 75.758 343.167 76.316 343.923 76.316C344.598 76.316 344.994 76.037 345.192 75.578ZM342.528 74.129H345.228C345.201 73.409 344.697 72.833 343.923 72.833C343.194 72.833 342.654 73.211 342.528 74.129ZM349.638 73.121C349.467 73.103 349.305 73.094 349.152 73.094C348.432 73.094 348.054 73.445 348.054 74.462V77H347.118V72.158H348.036V73.013C348.288 72.464 348.774 72.149 349.377 72.14C349.458 72.14 349.557 72.14 349.638 72.149V73.121ZM353.513 72.158H354.449V76.433C354.449 77.324 354.26 77.801 353.927 78.134C353.558 78.521 352.973 78.719 352.235 78.719C351.155 78.719 350.363 78.251 350.21 77.234H351.173C351.272 77.675 351.551 77.936 352.253 77.936C352.712 77.936 353.027 77.81 353.225 77.585C353.414 77.378 353.513 77.126 353.513 76.631V76.118C353.216 76.613 352.73 76.919 352.019 76.919C350.894 76.919 349.958 76.028 349.958 74.489C349.958 72.959 350.894 72.068 352.019 72.068C352.73 72.068 353.216 72.374 353.513 72.869V72.158ZM352.235 72.842C351.461 72.842 350.957 73.454 350.957 74.489C350.957 75.542 351.461 76.154 352.235 76.154C352.955 76.154 353.549 75.65 353.549 74.489C353.549 73.337 352.955 72.842 352.235 72.842Z" fill="#808080"/>
<path d="M209.935 166H138.423C136.355 166 134.679 167.654 134.679 169.693V242.307C134.679 244.346 136.355 246 138.423 246H209.935C212.003 246 213.679 244.346 213.679 242.307V169.693C213.679 167.654 212.003 166 209.935 166Z" fill="#262626" stroke="#808080" stroke-miterlimit="10"/>
<path d="M138.875 165H209.982C212.025 165 213.679 166.724 213.679 168.853V182H134.679V168.853C134.679 166.724 136.833 165 138.875 165Z" fill="#262626" stroke="#808080" stroke-miterlimit="10"/>
<path d="M142.537 176.716C144.115 176.716 145.395 175.437 145.395 173.858C145.395 172.28 144.115 171 142.537 171C140.958 171 139.679 172.28 139.679 173.858C139.679 175.437 140.958 176.716 142.537 176.716Z" fill="#262626" stroke="#808080" stroke-miterlimit="10"/>
<path d="M151.137 176.716C152.716 176.716 153.996 175.437 153.996 173.858C153.996 172.28 152.716 171 151.137 171C149.559 171 148.279 172.28 148.279 173.858C148.279 175.437 149.559 176.716 151.137 176.716Z" fill="#262626" stroke="#808080" stroke-miterlimit="10"/>
<path d="M159.725 176.716C161.304 176.716 162.584 175.437 162.584 173.858C162.584 172.28 161.304 171 159.725 171C158.147 171 156.867 172.28 156.867 173.858C156.867 175.437 158.147 176.716 159.725 176.716Z" fill="#262626" stroke="#808080" stroke-miterlimit="10"/>
<path d="M134.679 182H157.763V191H213.679" stroke="#808080" stroke-miterlimit="10"/>
<path d="M170.385 25.0001C172.726 25.0001 174.624 26.9143 174.624 29.2761V89.32C174.624 90.1063 174.315 90.8612 173.764 91.4222L163.823 101.544C163.199 102.18 162.348 102.507 161.461 102.433C152.201 101.669 98.9994 97.2572 85.9848 95.7402C84.0838 95.5184 82.5656 94.039 82.28 92.1298C80.9377 83.1524 76.4571 46.2853 75.5133 38.4964C75.4007 37.5667 75.7321 36.6639 76.4037 36.0112L86.8617 25.8485C87.4217 25.3044 88.1717 25 88.9525 25L170.385 25.0001Z" fill="#666666" stroke="#808080" stroke-miterlimit="10"/>
<rect x="74.5" y="35.3555" width="89.766" height="68.1876" rx="4.31567" fill="#262626" stroke="#808080" stroke-miterlimit="10"/>
<rect x="83.3896" y="46.3984" width="5.0796" height="5.0796" rx="2.5398" fill="#262626" stroke="#808080" stroke-miterlimit="10"/>
<rect x="91.6436" y="46.3984" width="5.0796" height="5.0796" rx="2.5398" fill="#262626" stroke="#808080" stroke-miterlimit="10"/>
<rect x="99.8984" y="46.3984" width="5.0796" height="5.0796" rx="2.5398" fill="#262626" stroke="#808080" stroke-miterlimit="10"/>
<rect x="132.915" y="46.3984" width="22.2232" height="5.0796" rx="2.5398" fill="#262626" stroke="#808080" stroke-miterlimit="10"/>
<rect x="83.3896" y="67.3555" width="5.0796" height="5.0796" rx="2.5398" fill="#262626" stroke="#808080" stroke-miterlimit="10"/>
<rect x="91.6436" y="67.3555" width="5.0796" height="5.0796" rx="2.5398" fill="#262626" stroke="#808080" stroke-miterlimit="10"/>
<rect x="99.8984" y="67.3555" width="5.0796" height="5.0796" rx="2.5398" fill="#262626" stroke="#808080" stroke-miterlimit="10"/>
<rect x="83.3896" y="88.3047" width="5.0796" height="5.0796" rx="2.5398" fill="#262626" stroke="#808080" stroke-miterlimit="10"/>
<rect x="91.6436" y="88.3047" width="5.0796" height="5.0796" rx="2.5398" fill="#262626" stroke="#808080" stroke-miterlimit="10"/>
<rect x="99.8984" y="88.3047" width="5.0796" height="5.0796" rx="2.5398" fill="#262626" stroke="#808080" stroke-miterlimit="10"/>
<path d="M74.8379 81.5469L164.338 81.5469" stroke="#808080" stroke-miterlimit="10"/>
<line x1="74.5" y1="59.8867" x2="164.266" y2="59.8867" stroke="#808080" stroke-miterlimit="10"/>
<path d="M163.44 37.0469L173.76 26.7266" stroke="#808080" stroke-miterlimit="10"/>
<path d="M436.756 166H365.244C363.176 166 361.5 167.654 361.5 169.693V242.307C361.5 244.346 363.176 246 365.244 246H436.756C438.824 246 440.5 244.346 440.5 242.307V169.693C440.5 167.654 438.824 166 436.756 166Z" fill="#262626" stroke="#808080" stroke-miterlimit="10"/>
<path d="M365.696 165H436.804C438.846 165 440.5 166.724 440.5 168.853V182H361.5V168.853C361.5 166.724 363.654 165 365.696 165Z" fill="#262626" stroke="#808080" stroke-miterlimit="10"/>
<path d="M369.358 176.716C370.937 176.716 372.216 175.437 372.216 173.858C372.216 172.28 370.937 171 369.358 171C367.78 171 366.5 172.28 366.5 173.858C366.5 175.437 367.78 176.716 369.358 176.716Z" fill="#262626" stroke="#808080" stroke-miterlimit="10"/>
<path d="M377.96 176.716C379.538 176.716 380.818 175.437 380.818 173.858C380.818 172.28 379.538 171 377.96 171C376.381 171 375.102 172.28 375.102 173.858C375.102 175.437 376.381 176.716 377.96 176.716Z" fill="#262626" stroke="#808080" stroke-miterlimit="10"/>
<path d="M386.547 176.716C388.125 176.716 389.405 175.437 389.405 173.858C389.405 172.28 388.125 171 386.547 171C384.968 171 383.688 172.28 383.688 173.858C383.688 175.437 384.968 176.716 386.547 176.716Z" fill="#262626" stroke="#808080" stroke-miterlimit="10"/>
<path d="M361.5 182H384.584V191H440.5" stroke="#808080" stroke-miterlimit="10"/>
<path d="M399.94 224.892C392.86 224.892 387.143 219.174 387.143 212.094C387.143 205.014 392.86 199.296 399.94 199.296C407.02 199.296 412.738 205.014 412.738 212.094C412.738 219.174 407.02 224.892 399.94 224.892Z" fill="#262626" stroke="#808080" stroke-miterlimit="10" stroke-linecap="round"/>
<path d="M406.783 210.197H404.272V213.986H406.783C407.824 213.986 408.689 213.121 408.689 212.08C408.689 211.031 407.824 210.197 406.783 210.197Z" fill="#CCBD00" fill-opacity="0.6" stroke="#808080" stroke-miterlimit="10" stroke-linecap="round"/>
<path d="M391.973 212.133C391.973 215.075 394.353 217.47 397.277 217.47C400.201 217.47 402.581 215.075 402.581 212.133C402.581 209.19 400.201 206.795 397.277 206.795C394.353 206.795 391.973 209.19 391.973 212.133Z" fill="#CCBD00" fill-opacity="0.6" stroke="#808080" stroke-miterlimit="10" stroke-linecap="round"/>
</svg>
