<svg xmlns="http://www.w3.org/2000/svg" width="750" height="310" fill="none" viewBox="0 0 750 310"><path fill="#F2F2F2" d="M8.02148 0.5H741.979C746.132 0.5 749.5 3.86753 749.5 8.02148V301.979C749.5 306.132 746.132 309.5 741.979 309.5H8.02148C3.86754 309.5 0.5 306.132 0.5 301.979V8.02148C0.5 3.9972 3.66049 0.710999 7.63477 0.509766L8.02148 0.5Z"/><path stroke="#E6E6E6" d="M8.02148 0.5H741.979C746.132 0.5 749.5 3.86753 749.5 8.02148V301.979C749.5 306.132 746.132 309.5 741.979 309.5H8.02148C3.86754 309.5 0.5 306.132 0.5 301.979V8.02148C0.5 3.9972 3.66049 0.710999 7.63477 0.509766L8.02148 0.5Z"/><g clip-path="url(#clip0_8642_39125)"><path fill="#000" d="M355.999 128.143H320.646V181.858H355.999C370.798 181.858 382.856 169.799 382.856 155C382.856 140.201 370.798 128.143 355.999 128.143Z"/><path fill="#000" d="M150 155C150 196.474 183.618 230 225 230C266.382 230 300 196.382 300 155C300 113.618 266.474 80 225 80C183.526 80 150 113.526 150 155Z"/><path fill="#654FF0" d="M410 128.143H414.999C429.798 128.143 441.856 140.201 441.856 155C441.856 169.799 429.798 181.857 414.999 181.857H410V230H600V80H410V128.143Z"/><path fill="#fff" d="M484.843 160.836H494.784L501.571 196.981H501.694L509.85 160.836H519.15L526.517 197.424H526.662L534.397 160.836H544.147L531.478 213.946H521.613L514.306 177.802H514.115L506.294 213.946H496.245L484.843 160.836ZM555.355 160.836H571.027L586.591 213.946H576.336L572.951 202.128H555.098L552.485 213.946H542.498L555.355 160.836ZM561.321 173.927L556.985 193.412H570.48L565.502 173.927H561.321Z"/></g><defs><clipPath id="clip0_8642_39125"><rect width="450" height="150" fill="#fff" transform="translate(150 80)"/></clipPath></defs></svg>