<svg xmlns="http://www.w3.org/2000/svg" width="1041" height="686" fill="none" viewBox="0 0 1041 686"><rect width="1040" height="685" x=".5" y=".5" fill="#FAFAFA" rx="14.5"/><rect width="1040" height="685" x=".5" y=".5" stroke="#E6E6E6" rx="14.5"/><path fill="#000" d="M37.488 38.9V60.824H50.196V65H32.34V38.9H37.488ZM60.8357 49.088C58.0997 49.088 56.1557 51.284 56.1557 55.352C56.1557 59.42 58.0997 61.58 60.8357 61.58C63.5717 61.58 65.5157 59.42 65.5157 55.352C65.5157 51.284 63.5717 49.088 60.8357 49.088ZM60.8357 65.468C55.9397 65.468 51.1157 62.12 51.1157 55.352C51.1157 48.548 55.9397 45.2 60.8357 45.2C65.7317 45.2 70.5557 48.548 70.5557 55.352C70.5557 62.12 65.7317 65.468 60.8357 65.468ZM78.6844 45.632V48.188C79.8004 46.208 81.8884 45.2 84.3004 45.2C88.9444 45.2 90.9964 48.008 90.9964 52.796V65H86.0284V53.876C86.0284 51.392 85.4884 49.196 82.6804 49.196C79.4044 49.196 78.6844 51.86 78.6844 54.92V65H73.7164V45.632H78.6844ZM103.586 60.536C106.358 60.536 108.05 58.196 108.05 54.74C108.05 51.32 106.358 48.98 103.586 48.98C101.03 48.98 99.1217 51.536 99.1217 54.776C99.1217 57.98 101.03 60.536 103.586 60.536ZM107.87 45.632H112.802V63.056C112.802 69.392 109.238 71.768 103.298 71.768C99.1577 71.768 95.5217 70.256 94.8377 65.756H99.5537C99.9857 67.34 101.318 68.132 103.55 68.132C106.142 68.132 107.87 66.908 107.87 63.992V61.4C106.61 63.524 104.342 64.316 102.326 64.316C97.5737 64.316 93.9017 60.392 93.9017 54.74C93.9017 49.232 97.4657 45.2 102.326 45.2C104.774 45.2 107.006 46.46 107.87 48.152V45.632ZM131.407 65V43.076H123.379V38.9H144.619V43.076H136.555V65H131.407ZM161.184 56.684H146.892C147.18 59.996 149.412 61.616 151.788 61.616C153.336 61.616 154.848 61.076 155.856 59.384H160.968C159.924 62.264 157.116 65.468 151.824 65.468C145.596 65.468 141.96 60.824 141.96 55.244C141.96 49.484 145.956 45.2 151.68 45.2C157.656 45.2 161.364 49.844 161.184 56.684ZM151.644 48.836C149.772 48.836 147.36 49.988 146.964 53.264H156.144C156.036 49.988 153.732 48.836 151.644 48.836ZM175.472 45.74V50.42C174.752 50.312 174.14 50.312 173.42 50.312C170.972 50.312 169.352 51.212 169.352 54.848V65H164.384V45.632H169.28V49.016C170.396 46.604 172.124 45.668 174.392 45.668C174.716 45.668 175.148 45.704 175.472 45.74ZM201.857 65V53.732C201.857 51.608 201.677 49.196 198.761 49.196C195.449 49.196 194.909 51.968 194.909 54.92V65H189.941V53.732C189.941 51.608 189.761 49.196 186.845 49.196C183.533 49.196 182.993 51.968 182.993 54.92V65H178.025V45.632H182.993V48.188C184.109 46.28 186.053 45.2 188.393 45.2C191.669 45.2 193.145 46.964 193.901 48.368C195.449 46.208 197.357 45.2 200.273 45.2C205.133 45.2 206.825 48.224 206.825 52.796V65H201.857ZM229.491 54.164L226.179 53.552C221.967 52.688 218.367 50.528 218.367 45.992C218.367 40.736 223.983 38.432 228.771 38.432C234.171 38.432 238.743 41.6 239.031 46.604H234.063C233.667 43.544 231.003 42.536 228.555 42.536C226.143 42.536 223.515 43.436 223.515 45.776C223.515 47.612 225.027 48.62 227.151 49.016L230.571 49.628C234.819 50.42 239.499 52.04 239.499 57.476C239.499 62.84 234.171 65.468 228.915 65.468C222.507 65.468 218.259 62.012 217.791 56.396H222.759C223.335 60.248 225.999 61.364 229.095 61.364C231.399 61.364 234.315 60.5 234.315 57.728C234.315 55.532 232.263 54.632 229.491 54.164ZM254.664 65V62.444C253.548 64.424 251.424 65.468 249.012 65.468C244.368 65.468 242.496 62.624 242.496 57.872V45.632H247.464V56.792C247.464 59.384 247.86 61.472 250.632 61.472C253.944 61.472 254.664 58.772 254.664 55.712V45.632H259.632V65H254.664ZM273.411 61.652C276.003 61.652 277.839 59.132 277.839 55.352C277.839 51.572 276.003 49.016 273.411 49.016C270.675 49.016 268.875 51.428 268.875 55.316C268.875 59.312 270.675 61.652 273.411 61.652ZM269.055 71.3H264.087V45.632H269.055V48.116C270.099 46.28 272.187 45.2 274.635 45.2C279.315 45.2 283.059 49.232 283.059 55.316C283.059 61.508 279.207 65.468 274.599 65.468C272.583 65.468 270.315 64.712 269.055 62.552V71.3ZM295.595 61.652C298.187 61.652 300.023 59.132 300.023 55.352C300.023 51.572 298.187 49.016 295.595 49.016C292.859 49.016 291.059 51.428 291.059 55.316C291.059 59.312 292.859 61.652 295.595 61.652ZM291.239 71.3H286.271V45.632H291.239V48.116C292.283 46.28 294.371 45.2 296.819 45.2C301.499 45.2 305.243 49.232 305.243 55.316C305.243 61.508 301.391 65.468 296.783 65.468C294.767 65.468 292.499 64.712 291.239 62.552V71.3ZM317.16 49.088C314.424 49.088 312.48 51.284 312.48 55.352C312.48 59.42 314.424 61.58 317.16 61.58C319.896 61.58 321.84 59.42 321.84 55.352C321.84 51.284 319.896 49.088 317.16 49.088ZM317.16 65.468C312.264 65.468 307.44 62.12 307.44 55.352C307.44 48.548 312.264 45.2 317.16 45.2C322.056 45.2 326.88 48.548 326.88 55.352C326.88 62.12 322.056 65.468 317.16 65.468ZM341.129 45.74V50.42C340.409 50.312 339.797 50.312 339.077 50.312C336.629 50.312 335.009 51.212 335.009 54.848V65H330.041V45.632H334.937V49.016C336.053 46.604 337.781 45.668 340.049 45.668C340.373 45.668 340.805 45.704 341.129 45.74ZM344.365 45.632V40.376H349.333V45.632H353.365V49.052H349.333V59.06C349.333 61.04 350.017 61.436 351.781 61.436H353.293V65H349.657C345.193 65 344.365 63.632 344.365 59.78V49.052H341.629V45.632H344.365ZM363.086 55.1C363.086 47.864 365.966 42.068 368.054 38.9H372.59C370.178 42.896 368.198 48.512 368.198 55.1C368.198 61.724 370.178 67.34 372.59 71.3H368.054C365.93 68.132 363.086 62.264 363.086 55.1ZM379.523 38.9V60.824H392.231V65H374.375V38.9H379.523ZM395.958 65V43.076H387.93V38.9H409.17V43.076H401.106V65H395.958ZM421.444 54.164L418.132 53.552C413.92 52.688 410.32 50.528 410.32 45.992C410.32 40.736 415.936 38.432 420.724 38.432C426.124 38.432 430.696 41.6 430.984 46.604H426.016C425.62 43.544 422.956 42.536 420.508 42.536C418.096 42.536 415.468 43.436 415.468 45.776C415.468 47.612 416.98 48.62 419.104 49.016L422.524 49.628C426.772 50.42 431.452 52.04 431.452 57.476C431.452 62.84 426.124 65.468 420.868 65.468C414.46 65.468 410.212 62.012 409.744 56.396H414.712C415.288 60.248 417.952 61.364 421.048 61.364C423.352 61.364 426.268 60.5 426.268 57.728C426.268 55.532 424.216 54.632 421.444 54.164ZM441.149 55.1C441.149 62.3 438.305 68.096 436.181 71.3H431.645C434.057 67.34 436.037 61.724 436.037 55.1C436.037 48.512 434.057 42.896 431.645 38.9H436.181C438.305 42.068 441.149 47.864 441.149 55.1Z"/><path fill="#000" d="M40.35 94.466C40.35 90.038 37.74 89.498 35.058 89.498H33.384V99.452H35.058C37.74 99.452 40.35 98.912 40.35 94.466ZM31.548 87.95H35.112C39.234 87.95 42.222 89.516 42.222 94.466C42.222 99.434 39.234 101 35.112 101H31.548V87.95ZM50.2627 101V99.614C49.7047 100.532 48.8227 101.234 47.2207 101.234C44.9887 101.234 44.1247 99.722 44.1247 97.508V91.316H45.7627V97.022C45.7627 98.516 45.9967 99.812 47.7967 99.812C49.3627 99.812 50.2627 98.732 50.2627 96.644V91.316H51.9007V101H50.2627ZM59.3231 91.28V93.026C58.9811 92.972 58.6751 92.954 58.4051 92.954C56.8931 92.954 56.1371 93.782 56.1371 95.924V101H54.4991V91.316H56.1011V93.008C56.5871 91.91 57.5591 91.316 58.8371 91.262C58.9991 91.262 59.1251 91.262 59.3231 91.28ZM66.648 96.95V96.338C63.678 96.626 61.788 97.076 61.788 98.408C61.788 99.326 62.49 99.938 63.66 99.938C65.19 99.938 66.648 99.236 66.648 96.95ZM63.3 101.234C61.482 101.234 59.97 100.226 59.97 98.444C59.97 96.158 62.562 95.474 66.522 95.042V94.808C66.522 93.026 65.55 92.45 64.326 92.45C62.958 92.45 62.184 93.17 62.112 94.376H60.42C60.564 92.288 62.436 91.118 64.308 91.118C66.99 91.118 68.178 92.378 68.16 95.114L68.142 97.346C68.124 98.984 68.196 100.082 68.394 101H66.738C66.684 100.64 66.63 100.244 66.612 99.668C66.018 100.676 65.028 101.234 63.3 101.234ZM71.0687 91.316V88.886H72.7067V91.316H74.5427V92.63H72.7067V98.372C72.7067 99.38 72.7787 99.632 73.7147 99.632H74.5427V101H73.3547C71.5007 101 71.0687 100.586 71.0687 98.57V92.63H69.5387V91.316H71.0687ZM76.63 91.316H78.268V101H76.63V91.316ZM76.63 87.95H78.268V89.93H76.63V87.95ZM81.9823 96.194C81.9823 98.786 83.3863 99.794 84.8803 99.794C86.3743 99.794 87.7783 98.678 87.7783 96.194C87.7783 93.602 86.3743 92.594 84.8803 92.594C83.3863 92.594 81.9823 93.548 81.9823 96.194ZM84.8803 91.154C87.1303 91.154 89.5243 92.684 89.5243 96.194C89.5243 99.704 87.1303 101.234 84.8803 101.234C82.6303 101.234 80.2363 99.704 80.2363 96.194C80.2363 92.684 82.6303 91.154 84.8803 91.154ZM93.1215 91.316V92.774C93.6795 91.856 94.6155 91.154 96.2535 91.154C98.5935 91.154 99.4395 92.666 99.4395 94.88V101H97.8015V95.366C97.8015 93.872 97.5495 92.576 95.6775 92.576C94.0935 92.576 93.1215 93.656 93.1215 95.744V101H91.4835V91.316H93.1215ZM107.277 96.194C107.277 98.786 108.681 99.794 110.175 99.794C111.669 99.794 113.073 98.678 113.073 96.194C113.073 93.602 111.669 92.594 110.175 92.594C108.681 92.594 107.277 93.548 107.277 96.194ZM110.175 91.154C112.425 91.154 114.819 92.684 114.819 96.194C114.819 99.704 112.425 101.234 110.175 101.234C107.925 101.234 105.531 99.704 105.531 96.194C105.531 92.684 107.925 91.154 110.175 91.154ZM117.28 91.316V90.614C117.28 88.598 117.676 87.95 119.89 87.95H120.736V89.318H119.926C119.062 89.318 118.918 89.516 118.918 90.524V91.316H120.736V92.63H118.918V101H117.28V92.63H115.93V91.316H117.28ZM136.194 96.842H137.976C137.4 99.722 135.15 101.234 132.324 101.234C128.58 101.234 126.402 98.408 126.402 94.448C126.402 90.416 128.796 87.716 132.468 87.716C135.168 87.716 137.328 89.318 137.904 92.108H136.122C135.744 90.47 134.448 89.264 132.378 89.264C130.074 89.264 128.274 91.064 128.274 94.448C128.274 97.76 130.002 99.686 132.432 99.686C134.52 99.686 135.78 98.516 136.194 96.842ZM141.133 96.194C141.133 98.786 142.537 99.794 144.031 99.794C145.525 99.794 146.929 98.678 146.929 96.194C146.929 93.602 145.525 92.594 144.031 92.594C142.537 92.594 141.133 93.548 141.133 96.194ZM144.031 91.154C146.281 91.154 148.675 92.684 148.675 96.194C148.675 99.704 146.281 101.234 144.031 101.234C141.781 101.234 139.387 99.704 139.387 96.194C139.387 92.684 141.781 91.154 144.031 91.154ZM152.272 95.744V101H150.634V91.316H152.272V92.774C152.83 91.856 153.73 91.154 155.188 91.154C156.682 91.154 157.546 91.784 157.978 92.864C158.752 91.658 159.868 91.154 161.236 91.154C163.486 91.154 164.368 92.666 164.368 94.88V101H162.73V95.366C162.73 93.872 162.442 92.576 160.66 92.576C159.238 92.576 158.32 93.656 158.32 95.744V101H156.682V95.366C156.682 93.872 156.394 92.576 154.612 92.576C153.19 92.576 152.272 93.656 152.272 95.744ZM168.461 95.744V101H166.823V91.316H168.461V92.774C169.019 91.856 169.919 91.154 171.377 91.154C172.871 91.154 173.735 91.784 174.167 92.864C174.941 91.658 176.057 91.154 177.425 91.154C179.675 91.154 180.557 92.666 180.557 94.88V101H178.919V95.366C178.919 93.872 178.631 92.576 176.849 92.576C175.427 92.576 174.509 93.656 174.509 95.744V101H172.871V95.366C172.871 93.872 172.583 92.576 170.801 92.576C169.379 92.576 168.461 93.656 168.461 95.744ZM189.007 101V99.614C188.449 100.532 187.567 101.234 185.965 101.234C183.733 101.234 182.869 99.722 182.869 97.508V91.316H184.507V97.022C184.507 98.516 184.741 99.812 186.541 99.812C188.107 99.812 189.007 98.732 189.007 96.644V91.316H190.645V101H189.007ZM194.881 91.316V92.774C195.439 91.856 196.375 91.154 198.013 91.154C200.353 91.154 201.199 92.666 201.199 94.88V101H199.561V95.366C199.561 93.872 199.309 92.576 197.437 92.576C195.853 92.576 194.881 93.656 194.881 95.744V101H193.243V91.316H194.881ZM203.65 91.316H205.288V101H203.65V91.316ZM203.65 87.95H205.288V89.93H203.65V87.95ZM208.354 91.316V88.886H209.992V91.316H211.828V92.63H209.992V98.372C209.992 99.38 210.064 99.632 211 99.632H211.828V101H210.64C208.786 101 208.354 100.586 208.354 98.57V92.63H206.824V91.316H208.354ZM219.121 91.316H220.831L217.375 101.414C216.655 103.502 216.187 104.15 214.009 104.15H213.163V102.782H213.829C214.909 102.782 215.431 102.71 215.863 101.198L215.935 101L212.443 91.316H214.261L216.727 98.786L219.121 91.316ZM226.108 91.28C226.108 88.778 228.718 87.716 230.824 87.716C233.182 87.716 235.252 88.778 235.774 91.28H233.992C233.56 89.786 232.048 89.264 230.752 89.264C229.744 89.264 227.98 89.714 227.98 91.172C227.98 92.324 228.88 92.9 230.104 93.17L231.616 93.512C233.614 93.944 236.008 94.7 236.008 97.328C236.008 99.866 233.632 101.234 231.04 101.234C227.962 101.234 226.018 99.542 225.676 96.95H227.476C227.818 98.75 229.06 99.686 231.076 99.686C233.02 99.686 234.118 98.786 234.118 97.49C234.118 96.104 232.93 95.564 231.31 95.186L229.69 94.844C227.89 94.448 226.108 93.44 226.108 91.28ZM244.009 101V99.614C243.451 100.532 242.569 101.234 240.967 101.234C238.735 101.234 237.871 99.722 237.871 97.508V91.316H239.509V97.022C239.509 98.516 239.743 99.812 241.543 99.812C243.109 99.812 244.009 98.732 244.009 96.644V91.316H245.647V101H244.009ZM248.245 91.316H249.883V92.846C250.477 91.82 251.485 91.154 253.051 91.154C255.283 91.154 257.191 93.026 257.191 96.194C257.191 99.416 255.283 101.234 253.051 101.234C251.485 101.234 250.477 100.568 249.883 99.542V104.15H248.245V91.316ZM249.811 96.194C249.811 98.75 251.179 99.83 252.637 99.83C254.311 99.83 255.409 98.516 255.409 96.194C255.409 93.872 254.311 92.558 252.637 92.558C251.179 92.558 249.811 93.638 249.811 96.194ZM259.109 91.316H260.747V92.846C261.341 91.82 262.349 91.154 263.915 91.154C266.147 91.154 268.055 93.026 268.055 96.194C268.055 99.416 266.147 101.234 263.915 101.234C262.349 101.234 261.341 100.568 260.747 99.542V104.15H259.109V91.316ZM260.675 96.194C260.675 98.75 262.043 99.83 263.501 99.83C265.175 99.83 266.273 98.516 266.273 96.194C266.273 93.872 265.175 92.558 263.501 92.558C262.043 92.558 260.675 93.638 260.675 96.194ZM271.228 96.194C271.228 98.786 272.632 99.794 274.126 99.794C275.62 99.794 277.024 98.678 277.024 96.194C277.024 93.602 275.62 92.594 274.126 92.594C272.632 92.594 271.228 93.548 271.228 96.194ZM274.126 91.154C276.376 91.154 278.77 92.684 278.77 96.194C278.77 99.704 276.376 101.234 274.126 101.234C271.876 101.234 269.482 99.704 269.482 96.194C269.482 92.684 271.876 91.154 274.126 91.154ZM285.554 91.28V93.026C285.212 92.972 284.906 92.954 284.636 92.954C283.124 92.954 282.368 93.782 282.368 95.924V101H280.73V91.316H282.332V93.008C282.818 91.91 283.79 91.316 285.068 91.262C285.23 91.262 285.356 91.262 285.554 91.28ZM287.596 91.316V88.886H289.234V91.316H291.07V92.63H289.234V98.372C289.234 99.38 289.306 99.632 290.242 99.632H291.07V101H289.882C288.028 101 287.596 100.586 287.596 98.57V92.63H286.066V91.316H287.596Z"/><path fill="#000" d="M50.63 181.466C50.63 177.56 48.308 176.966 45.932 176.966H44.744V185.984H45.932C48.308 185.984 50.63 185.408 50.63 181.466ZM42.17 174.95H46.04C50.18 174.95 53.294 176.282 53.294 181.466C53.294 186.65 50.18 188 46.04 188H42.17V174.95ZM60.8006 188V186.722C60.2426 187.712 59.1806 188.234 57.9746 188.234C55.6526 188.234 54.7166 186.812 54.7166 184.436V178.316H57.2006V183.896C57.2006 185.192 57.3986 186.236 58.7846 186.236C60.4406 186.236 60.8006 184.886 60.8006 183.356V178.316H63.2846V188H60.8006ZM69.7425 178.1C71.7765 178.1 73.7925 179.234 74.1345 181.628H71.7585C71.5605 180.692 70.6965 180.026 69.7425 180.026C68.4465 180.026 67.4205 181.124 67.4205 183.14C67.4205 185.174 68.3925 186.308 69.7605 186.308C70.6245 186.308 71.5065 185.858 71.8485 184.706H74.2245C73.6485 187.352 71.6505 188.234 69.6345 188.234C66.7365 188.234 64.8825 186.11 64.8825 183.176C64.8825 180.224 66.8445 178.1 69.7425 178.1ZM75.7078 174.95H78.1918V182.204L81.7198 178.316H84.5098L81.0358 182.024L84.7078 188H81.9178L79.3798 183.806L78.1918 185.084V188H75.7078V174.95ZM94.2062 181.466C94.2062 177.56 91.8842 176.966 89.5082 176.966H88.3202V185.984H89.5082C91.8842 185.984 94.2062 185.408 94.2062 181.466ZM85.7462 174.95H89.6162C93.7562 174.95 96.8702 176.282 96.8702 181.466C96.8702 186.65 93.7562 188 89.6162 188H85.7462V174.95ZM98.6837 188V174.95H103.76C106.046 174.95 108.512 175.67 108.512 178.352C108.512 179.576 107.702 180.674 107.036 181.106C108.044 181.592 108.98 182.348 108.98 184.148C108.98 186.956 106.658 188 103.976 188H98.6837ZM101.258 182.276V185.984H104.102C105.614 185.984 106.352 185.354 106.352 184.148C106.352 182.924 105.596 182.276 103.994 182.276H101.258ZM101.258 176.966V180.332H103.922C105.146 180.332 105.866 179.756 105.866 178.604C105.866 177.578 105.128 176.966 103.922 176.966H101.258ZM119.503 188.234C116.011 188.234 114.247 185.408 114.247 181.448C114.247 177.488 116.011 174.716 119.503 174.716C122.959 174.716 124.741 177.488 124.741 181.448C124.741 185.408 122.959 188.234 119.503 188.234ZM119.503 186.362C121.285 186.362 122.203 184.598 122.203 181.448C122.203 178.298 121.285 176.588 119.503 176.588C117.721 176.588 116.785 178.298 116.785 181.448C116.785 184.598 117.721 186.362 119.503 186.362ZM128.5 188H125.836V185.3H128.5V188ZM133.121 174.95V176.822L134.903 176.138L135.497 177.704L133.661 178.334L134.759 179.864L133.463 180.836L132.293 179.27L131.231 180.836L129.827 179.882L130.925 178.352L129.125 177.704L129.701 176.138L131.447 176.822V174.95H133.121Z"/><g style="mix-blend-mode:multiply"><line x1="30" x2="1011" y1="181" y2="181" stroke="#F3F3F3" stroke-width="50"/></g><path fill="#000" d="M50.63 231.466C50.63 227.56 48.308 226.966 45.932 226.966H44.744V235.984H45.932C48.308 235.984 50.63 235.408 50.63 231.466ZM42.17 224.95H46.04C50.18 224.95 53.294 226.282 53.294 231.466C53.294 236.65 50.18 238 46.04 238H42.17V224.95ZM60.8006 238V236.722C60.2426 237.712 59.1806 238.234 57.9746 238.234C55.6526 238.234 54.7166 236.812 54.7166 234.436V228.316H57.2006V233.896C57.2006 235.192 57.3986 236.236 58.7846 236.236C60.4406 236.236 60.8006 234.886 60.8006 233.356V228.316H63.2846V238H60.8006ZM69.7425 228.1C71.7765 228.1 73.7925 229.234 74.1345 231.628H71.7585C71.5605 230.692 70.6965 230.026 69.7425 230.026C68.4465 230.026 67.4205 231.124 67.4205 233.14C67.4205 235.174 68.3925 236.308 69.7605 236.308C70.6245 236.308 71.5065 235.858 71.8485 234.706H74.2245C73.6485 237.352 71.6505 238.234 69.6345 238.234C66.7365 238.234 64.8825 236.11 64.8825 233.176C64.8825 230.224 66.8445 228.1 69.7425 228.1ZM75.7078 224.95H78.1918V232.204L81.7198 228.316H84.5098L81.0358 232.024L84.7078 238H81.9178L79.3798 233.806L78.1918 235.084V238H75.7078V224.95ZM94.2062 231.466C94.2062 227.56 91.8842 226.966 89.5082 226.966H88.3202V235.984H89.5082C91.8842 235.984 94.2062 235.408 94.2062 231.466ZM85.7462 224.95H89.6162C93.7562 224.95 96.8702 226.282 96.8702 231.466C96.8702 236.65 93.7562 238 89.6162 238H85.7462V224.95ZM98.6837 238V224.95H103.76C106.046 224.95 108.512 225.67 108.512 228.352C108.512 229.576 107.702 230.674 107.036 231.106C108.044 231.592 108.98 232.348 108.98 234.148C108.98 236.956 106.658 238 103.976 238H98.6837ZM101.258 232.276V235.984H104.102C105.614 235.984 106.352 235.354 106.352 234.148C106.352 232.924 105.596 232.276 103.994 232.276H101.258ZM101.258 226.966V230.332H103.922C105.146 230.332 105.866 229.756 105.866 228.604C105.866 227.578 105.128 226.966 103.922 226.966H101.258ZM118.819 238H116.335V228.244H113.527V226.552C115.399 226.498 116.317 226.372 116.929 224.95H118.819V238ZM123.578 238H120.914V235.3H123.578V238ZM129.927 238.234C126.435 238.234 124.671 235.408 124.671 231.448C124.671 227.488 126.435 224.716 129.927 224.716C133.383 224.716 135.165 227.488 135.165 231.448C135.165 235.408 133.383 238.234 129.927 238.234ZM129.927 236.362C131.709 236.362 132.627 234.598 132.627 231.448C132.627 228.298 131.709 226.588 129.927 226.588C128.145 226.588 127.209 228.298 127.209 231.448C127.209 234.598 128.145 236.362 129.927 236.362ZM152.115 238H148.767L143.547 228.046V238H141.117V224.95H144.465L149.685 234.904V224.95H152.115V238ZM154.405 228.316H156.889V238H154.405V228.316ZM154.405 224.95H156.889V227.254H154.405V224.95ZM160.61 228.316L162.878 235.48L165.146 228.316H167.612L164.138 238H161.528L158 228.316H160.61ZM168.731 228.316H171.215V238H168.731V228.316ZM168.731 224.95H171.215V227.254H168.731V224.95ZM181.218 231.232H178.896C178.698 230.422 177.978 229.846 176.826 229.846C175.908 229.846 175.26 230.188 175.26 230.782C175.26 231.304 175.638 231.7 176.556 231.898L177.852 232.186C179.778 232.618 181.416 233.104 181.416 235.102C181.416 237.046 179.418 238.234 177.222 238.234C174.846 238.234 173.046 237.01 172.812 234.796H175.206C175.35 235.732 175.998 236.434 177.294 236.434C178.374 236.434 179.04 236.038 179.04 235.336C179.04 234.616 178.302 234.346 177.456 234.148L176.016 233.842C174.198 233.464 172.992 232.708 172.992 230.944C172.992 229.216 174.864 228.064 176.952 228.064C178.968 228.064 180.876 229 181.218 231.232Z"/><g style="mix-blend-mode:multiply"><line x1="30" x2="1011" y1="231" y2="231" stroke="#fff" stroke-width="50"/></g><path fill="#000" d="M50.63 281.466C50.63 277.56 48.308 276.966 45.932 276.966H44.744V285.984H45.932C48.308 285.984 50.63 285.408 50.63 281.466ZM42.17 274.95H46.04C50.18 274.95 53.294 276.282 53.294 281.466C53.294 286.65 50.18 288 46.04 288H42.17V274.95ZM60.8006 288V286.722C60.2426 287.712 59.1806 288.234 57.9746 288.234C55.6526 288.234 54.7166 286.812 54.7166 284.436V278.316H57.2006V283.896C57.2006 285.192 57.3986 286.236 58.7846 286.236C60.4406 286.236 60.8006 284.886 60.8006 283.356V278.316H63.2846V288H60.8006ZM69.7425 278.1C71.7765 278.1 73.7925 279.234 74.1345 281.628H71.7585C71.5605 280.692 70.6965 280.026 69.7425 280.026C68.4465 280.026 67.4205 281.124 67.4205 283.14C67.4205 285.174 68.3925 286.308 69.7605 286.308C70.6245 286.308 71.5065 285.858 71.8485 284.706H74.2245C73.6485 287.352 71.6505 288.234 69.6345 288.234C66.7365 288.234 64.8825 286.11 64.8825 283.176C64.8825 280.224 66.8445 278.1 69.7425 278.1ZM75.7078 274.95H78.1918V282.204L81.7198 278.316H84.5098L81.0358 282.024L84.7078 288H81.9178L79.3798 283.806L78.1918 285.084V288H75.7078V274.95ZM94.2062 281.466C94.2062 277.56 91.8842 276.966 89.5082 276.966H88.3202V285.984H89.5082C91.8842 285.984 94.2062 285.408 94.2062 281.466ZM85.7462 274.95H89.6162C93.7562 274.95 96.8702 276.282 96.8702 281.466C96.8702 286.65 93.7562 288 89.6162 288H85.7462V274.95ZM98.6837 288V274.95H103.76C106.046 274.95 108.512 275.67 108.512 278.352C108.512 279.576 107.702 280.674 107.036 281.106C108.044 281.592 108.98 282.348 108.98 284.148C108.98 286.956 106.658 288 103.976 288H98.6837ZM101.258 282.276V285.984H104.102C105.614 285.984 106.352 285.354 106.352 284.148C106.352 282.924 105.596 282.276 103.994 282.276H101.258ZM101.258 276.966V280.332H103.922C105.146 280.332 105.866 279.756 105.866 278.604C105.866 277.578 105.128 276.966 103.922 276.966H101.258ZM118.819 288H116.335V278.244H113.527V276.552C115.399 276.498 116.317 276.372 116.929 274.95H118.819V288ZM123.578 288H120.914V285.3H123.578V288ZM128.892 288H126.408V278.244H123.6V276.552C125.472 276.498 126.39 276.372 127.002 274.95H128.892V288ZM135.475 288V274.95H144.979V277.038H138.049V280.278H144.601V282.366H138.049V285.912H144.979V288H135.475ZM152.473 284.292V283.572C149.683 283.86 148.585 284.184 148.585 285.264C148.585 285.966 149.125 286.542 150.259 286.542C151.825 286.542 152.473 285.714 152.473 284.292ZM152.689 286.794C151.987 287.802 150.979 288.234 149.521 288.234C147.667 288.234 146.029 287.154 146.029 285.39C146.029 283.104 148.585 282.42 152.401 281.988V281.826C152.401 280.332 151.591 279.81 150.583 279.81C149.629 279.81 148.837 280.296 148.783 281.376H146.461C146.659 279.468 148.207 278.064 150.709 278.064C152.995 278.064 154.885 279.072 154.885 282.33C154.885 282.618 154.849 283.932 154.849 284.796C154.849 286.326 154.939 287.19 155.137 288H152.851C152.779 287.694 152.743 287.28 152.689 286.794ZM157.296 278.316V275.688H159.78V278.316H161.796V280.026H159.78V285.03C159.78 286.02 160.122 286.218 161.004 286.218H161.76V288H159.942C157.71 288 157.296 287.316 157.296 285.39V280.026H155.928V278.316H157.296ZM167.599 280.044C166.231 280.044 165.259 281.142 165.259 283.176C165.259 285.21 166.231 286.29 167.599 286.29C168.967 286.29 169.939 285.21 169.939 283.176C169.939 281.142 168.967 280.044 167.599 280.044ZM167.599 288.234C165.151 288.234 162.739 286.56 162.739 283.176C162.739 279.774 165.151 278.1 167.599 278.1C170.047 278.1 172.459 279.774 172.459 283.176C172.459 286.56 170.047 288.234 167.599 288.234ZM176.524 278.316V279.594C177.082 278.604 178.126 278.1 179.332 278.1C181.654 278.1 182.68 279.504 182.68 281.898V288H180.196V282.438C180.196 281.196 179.926 280.098 178.522 280.098C176.884 280.098 176.524 281.43 176.524 282.96V288H174.04V278.316H176.524ZM184.762 278.316H187.246V288H184.762V278.316ZM184.762 274.95H187.246V277.254H184.762V274.95Z"/><g style="mix-blend-mode:multiply"><line x1="30" x2="1011" y1="281" y2="281" stroke="#F3F3F3" stroke-width="50"/></g><path fill="#000" d="M50.63 331.466C50.63 327.56 48.308 326.966 45.932 326.966H44.744V335.984H45.932C48.308 335.984 50.63 335.408 50.63 331.466ZM42.17 324.95H46.04C50.18 324.95 53.294 326.282 53.294 331.466C53.294 336.65 50.18 338 46.04 338H42.17V324.95ZM60.8006 338V336.722C60.2426 337.712 59.1806 338.234 57.9746 338.234C55.6526 338.234 54.7166 336.812 54.7166 334.436V328.316H57.2006V333.896C57.2006 335.192 57.3986 336.236 58.7846 336.236C60.4406 336.236 60.8006 334.886 60.8006 333.356V328.316H63.2846V338H60.8006ZM69.7425 328.1C71.7765 328.1 73.7925 329.234 74.1345 331.628H71.7585C71.5605 330.692 70.6965 330.026 69.7425 330.026C68.4465 330.026 67.4205 331.124 67.4205 333.14C67.4205 335.174 68.3925 336.308 69.7605 336.308C70.6245 336.308 71.5065 335.858 71.8485 334.706H74.2245C73.6485 337.352 71.6505 338.234 69.6345 338.234C66.7365 338.234 64.8825 336.11 64.8825 333.176C64.8825 330.224 66.8445 328.1 69.7425 328.1ZM75.7078 324.95H78.1918V332.204L81.7198 328.316H84.5098L81.0358 332.024L84.7078 338H81.9178L79.3798 333.806L78.1918 335.084V338H75.7078V324.95ZM94.2062 331.466C94.2062 327.56 91.8842 326.966 89.5082 326.966H88.3202V335.984H89.5082C91.8842 335.984 94.2062 335.408 94.2062 331.466ZM85.7462 324.95H89.6162C93.7562 324.95 96.8702 326.282 96.8702 331.466C96.8702 336.65 93.7562 338 89.6162 338H85.7462V324.95ZM98.6837 338V324.95H103.76C106.046 324.95 108.512 325.67 108.512 328.352C108.512 329.576 107.702 330.674 107.036 331.106C108.044 331.592 108.98 332.348 108.98 334.148C108.98 336.956 106.658 338 103.976 338H98.6837ZM101.258 332.276V335.984H104.102C105.614 335.984 106.352 335.354 106.352 334.148C106.352 332.924 105.596 332.276 103.994 332.276H101.258ZM101.258 326.966V330.332H103.922C105.146 330.332 105.866 329.756 105.866 328.604C105.866 327.578 105.128 326.966 103.922 326.966H101.258ZM118.819 338H116.335V328.244H113.527V326.552C115.399 326.498 116.317 326.372 116.929 324.95H118.819V338ZM123.578 338H120.914V335.3H123.578V338ZM130.564 324.716C133.174 324.716 134.848 325.94 134.848 328.226C134.848 330.656 132.472 333.23 128.458 335.912H135.154V338H125.56V335.984C129.754 332.618 132.346 330.422 132.346 328.352C132.346 327.2 131.644 326.552 130.42 326.552C129.322 326.552 128.206 327.218 128.206 329.162H125.794C125.74 326.48 127.684 324.716 130.564 324.716ZM149.225 324.95H151.799V338H149.225V332.366H143.375V338H140.801V324.95H143.375V330.278H149.225V324.95ZM154.089 328.316H156.573V338H154.089V328.316ZM154.089 324.95H156.573V327.254H154.089V324.95ZM166.576 331.232H164.254C164.056 330.422 163.336 329.846 162.184 329.846C161.266 329.846 160.618 330.188 160.618 330.782C160.618 331.304 160.996 331.7 161.914 331.898L163.21 332.186C165.136 332.618 166.774 333.104 166.774 335.102C166.774 337.046 164.776 338.234 162.58 338.234C160.204 338.234 158.404 337.01 158.17 334.796H160.564C160.708 335.732 161.356 336.434 162.652 336.434C163.732 336.434 164.398 336.038 164.398 335.336C164.398 334.616 163.66 334.346 162.814 334.148L161.374 333.842C159.556 333.464 158.35 332.708 158.35 330.944C158.35 329.216 160.222 328.064 162.31 328.064C164.326 328.064 166.234 329 166.576 331.232ZM168.792 328.316V325.688H171.276V328.316H173.292V330.026H171.276V335.03C171.276 336.02 171.618 336.218 172.5 336.218H173.256V338H171.438C169.206 338 168.792 337.316 168.792 335.39V330.026H167.424V328.316H168.792ZM180.428 328.37V330.71C180.068 330.656 179.762 330.656 179.402 330.656C178.178 330.656 177.368 331.106 177.368 332.924V338H174.884V328.316H177.332V330.008C177.89 328.802 178.754 328.334 179.888 328.334C180.05 328.334 180.266 328.352 180.428 328.37ZM181.704 328.316H184.188V338H181.704V328.316ZM181.704 324.95H184.188V327.254H181.704V324.95ZM190.627 330.044C189.259 330.044 188.287 331.142 188.287 333.176C188.287 335.21 189.259 336.29 190.627 336.29C191.995 336.29 192.967 335.21 192.967 333.176C192.967 331.142 191.995 330.044 190.627 330.044ZM190.627 338.234C188.179 338.234 185.767 336.56 185.767 333.176C185.767 329.774 188.179 328.1 190.627 328.1C193.075 328.1 195.487 329.774 195.487 333.176C195.487 336.56 193.075 338.234 190.627 338.234ZM199.551 328.316V329.594C200.109 328.604 201.153 328.1 202.359 328.1C204.681 328.1 205.707 329.504 205.707 331.898V338H203.223V332.438C203.223 331.196 202.953 330.098 201.549 330.098C199.911 330.098 199.551 331.43 199.551 332.96V338H197.067V328.316H199.551ZM207.79 328.316H210.274V338H207.79V328.316ZM207.79 324.95H210.274V327.254H207.79V324.95ZM216.731 328.1C218.765 328.1 220.781 329.234 221.123 331.628H218.747C218.549 330.692 217.685 330.026 216.731 330.026C215.435 330.026 214.409 331.124 214.409 333.14C214.409 335.174 215.381 336.308 216.749 336.308C217.613 336.308 218.495 335.858 218.837 334.706H221.213C220.637 337.352 218.639 338.234 216.623 338.234C213.725 338.234 211.871 336.11 211.871 333.176C211.871 330.224 213.833 328.1 216.731 328.1ZM228.654 338V336.722C228.096 337.712 227.034 338.234 225.828 338.234C223.506 338.234 222.57 336.812 222.57 334.436V328.316H225.054V333.896C225.054 335.192 225.252 336.236 226.638 336.236C228.294 336.236 228.654 334.886 228.654 333.356V328.316H231.138V338H228.654ZM241.142 331.232H238.82C238.622 330.422 237.902 329.846 236.75 329.846C235.832 329.846 235.184 330.188 235.184 330.782C235.184 331.304 235.562 331.7 236.48 331.898L237.776 332.186C239.702 332.618 241.34 333.104 241.34 335.102C241.34 337.046 239.342 338.234 237.146 338.234C234.77 338.234 232.97 337.01 232.736 334.796H235.13C235.274 335.732 235.922 336.434 237.218 336.434C238.298 336.434 238.964 336.038 238.964 335.336C238.964 334.616 238.226 334.346 237.38 334.148L235.94 333.842C234.122 333.464 232.916 332.708 232.916 330.944C232.916 329.216 234.788 328.064 236.876 328.064C238.892 328.064 240.8 329 241.142 331.232Z"/><g style="mix-blend-mode:multiply"><line x1="30" x2="1011" y1="331" y2="331" stroke="#fff" stroke-width="50"/></g><path fill="#000" d="M50.63 381.466C50.63 377.56 48.308 376.966 45.932 376.966H44.744V385.984H45.932C48.308 385.984 50.63 385.408 50.63 381.466ZM42.17 374.95H46.04C50.18 374.95 53.294 376.282 53.294 381.466C53.294 386.65 50.18 388 46.04 388H42.17V374.95ZM60.8006 388V386.722C60.2426 387.712 59.1806 388.234 57.9746 388.234C55.6526 388.234 54.7166 386.812 54.7166 384.436V378.316H57.2006V383.896C57.2006 385.192 57.3986 386.236 58.7846 386.236C60.4406 386.236 60.8006 384.886 60.8006 383.356V378.316H63.2846V388H60.8006ZM69.7425 378.1C71.7765 378.1 73.7925 379.234 74.1345 381.628H71.7585C71.5605 380.692 70.6965 380.026 69.7425 380.026C68.4465 380.026 67.4205 381.124 67.4205 383.14C67.4205 385.174 68.3925 386.308 69.7605 386.308C70.6245 386.308 71.5065 385.858 71.8485 384.706H74.2245C73.6485 387.352 71.6505 388.234 69.6345 388.234C66.7365 388.234 64.8825 386.11 64.8825 383.176C64.8825 380.224 66.8445 378.1 69.7425 378.1ZM75.7078 374.95H78.1918V382.204L81.7198 378.316H84.5098L81.0358 382.024L84.7078 388H81.9178L79.3798 383.806L78.1918 385.084V388H75.7078V374.95ZM94.2062 381.466C94.2062 377.56 91.8842 376.966 89.5082 376.966H88.3202V385.984H89.5082C91.8842 385.984 94.2062 385.408 94.2062 381.466ZM85.7462 374.95H89.6162C93.7562 374.95 96.8702 376.282 96.8702 381.466C96.8702 386.65 93.7562 388 89.6162 388H85.7462V374.95ZM98.6837 388V374.95H103.76C106.046 374.95 108.512 375.67 108.512 378.352C108.512 379.576 107.702 380.674 107.036 381.106C108.044 381.592 108.98 382.348 108.98 384.148C108.98 386.956 106.658 388 103.976 388H98.6837ZM101.258 382.276V385.984H104.102C105.614 385.984 106.352 385.354 106.352 384.148C106.352 382.924 105.596 382.276 103.994 382.276H101.258ZM101.258 376.966V380.332H103.922C105.146 380.332 105.866 379.756 105.866 378.604C105.866 377.578 105.128 376.966 103.922 376.966H101.258ZM118.819 388H116.335V378.244H113.527V376.552C115.399 376.498 116.317 376.372 116.929 374.95H118.819V388ZM123.578 388H120.914V385.3H123.578V388ZM129.843 386.362C131.211 386.362 132.291 385.552 132.291 384.328C132.291 382.798 130.869 382.186 129.015 382.186H128.493V380.242H128.925C130.797 380.242 131.967 379.558 131.967 378.334C131.967 377.2 130.977 376.588 129.897 376.588C128.385 376.588 127.449 377.524 127.323 378.892H124.965C125.253 376.282 127.035 374.716 130.041 374.716C132.219 374.716 134.469 375.76 134.469 378.226C134.469 379.504 133.713 380.53 132.705 381.088C134.055 381.664 134.811 382.942 134.811 384.256C134.811 386.902 132.525 388.234 129.771 388.234C126.783 388.234 125.001 386.29 124.857 383.896H127.197C127.395 385.21 128.205 386.362 129.843 386.362ZM142.89 381.466C142.89 384.544 144.582 386.182 146.616 386.182C148.65 386.182 150.342 384.544 150.342 381.466C150.342 378.406 148.65 376.768 146.616 376.768C144.582 376.768 142.89 378.406 142.89 381.466ZM153.006 381.466C153.006 385.516 150.504 388.234 146.616 388.234C142.728 388.234 140.226 385.516 140.226 381.466C140.226 377.416 142.728 374.716 146.616 374.716C150.504 374.716 153.006 377.416 153.006 381.466ZM162.374 381.232H160.052C159.854 380.422 159.134 379.846 157.982 379.846C157.064 379.846 156.416 380.188 156.416 380.782C156.416 381.304 156.794 381.7 157.712 381.898L159.008 382.186C160.934 382.618 162.572 383.104 162.572 385.102C162.572 387.046 160.574 388.234 158.378 388.234C156.002 388.234 154.202 387.01 153.968 384.796H156.362C156.506 385.732 157.154 386.434 158.45 386.434C159.53 386.434 160.196 386.038 160.196 385.336C160.196 384.616 159.458 384.346 158.612 384.148L157.172 383.842C155.354 383.464 154.148 382.708 154.148 380.944C154.148 379.216 156.02 378.064 158.108 378.064C160.124 378.064 162.032 379 162.374 381.232ZM171.902 381.232H169.58C169.382 380.422 168.662 379.846 167.51 379.846C166.592 379.846 165.944 380.188 165.944 380.782C165.944 381.304 166.322 381.7 167.24 381.898L168.536 382.186C170.462 382.618 172.1 383.104 172.1 385.102C172.1 387.046 170.102 388.234 167.906 388.234C165.53 388.234 163.73 387.01 163.496 384.796H165.89C166.034 385.732 166.682 386.434 167.978 386.434C169.058 386.434 169.724 386.038 169.724 385.336C169.724 384.616 168.986 384.346 168.14 384.148L166.7 383.842C164.882 383.464 163.676 382.708 163.676 380.944C163.676 379.216 165.548 378.064 167.636 378.064C169.652 378.064 171.56 379 171.902 381.232ZM173.653 378.316H176.137V388H173.653V378.316ZM173.653 374.95H176.137V377.254H173.653V374.95ZM179.858 378.316L182.126 385.48L184.394 378.316H186.86L183.386 388H180.776L177.248 378.316H179.858ZM193.394 384.292V383.572C190.604 383.86 189.506 384.184 189.506 385.264C189.506 385.966 190.046 386.542 191.18 386.542C192.746 386.542 193.394 385.714 193.394 384.292ZM193.61 386.794C192.908 387.802 191.9 388.234 190.442 388.234C188.588 388.234 186.95 387.154 186.95 385.39C186.95 383.104 189.506 382.42 193.322 381.988V381.826C193.322 380.332 192.512 379.81 191.504 379.81C190.55 379.81 189.758 380.296 189.704 381.376H187.382C187.58 379.468 189.128 378.064 191.63 378.064C193.916 378.064 195.806 379.072 195.806 382.33C195.806 382.618 195.77 383.932 195.77 384.796C195.77 386.326 195.86 387.19 196.058 388H193.772C193.7 387.694 193.664 387.28 193.61 386.794ZM200.36 374.95V388H197.876V374.95H200.36ZM202.587 378.316H205.071V388H202.587V378.316ZM202.587 374.95H205.071V377.254H202.587V374.95ZM215.074 381.232H212.752C212.554 380.422 211.834 379.846 210.682 379.846C209.764 379.846 209.116 380.188 209.116 380.782C209.116 381.304 209.494 381.7 210.412 381.898L211.708 382.186C213.634 382.618 215.272 383.104 215.272 385.102C215.272 387.046 213.274 388.234 211.078 388.234C208.702 388.234 206.902 387.01 206.668 384.796H209.062C209.206 385.732 209.854 386.434 211.15 386.434C212.23 386.434 212.896 386.038 212.896 385.336C212.896 384.616 212.158 384.346 211.312 384.148L209.872 383.842C208.054 383.464 206.848 382.708 206.848 380.944C206.848 379.216 208.72 378.064 210.808 378.064C212.824 378.064 214.732 379 215.074 381.232Z"/><g style="mix-blend-mode:multiply"><line x1="30" x2="1011" y1="381" y2="381" stroke="#F3F3F3" stroke-width="50"/></g><path fill="#000" d="M50.63 431.466C50.63 427.56 48.308 426.966 45.932 426.966H44.744V435.984H45.932C48.308 435.984 50.63 435.408 50.63 431.466ZM42.17 424.95H46.04C50.18 424.95 53.294 426.282 53.294 431.466C53.294 436.65 50.18 438 46.04 438H42.17V424.95ZM60.8006 438V436.722C60.2426 437.712 59.1806 438.234 57.9746 438.234C55.6526 438.234 54.7166 436.812 54.7166 434.436V428.316H57.2006V433.896C57.2006 435.192 57.3986 436.236 58.7846 436.236C60.4406 436.236 60.8006 434.886 60.8006 433.356V428.316H63.2846V438H60.8006ZM69.7425 428.1C71.7765 428.1 73.7925 429.234 74.1345 431.628H71.7585C71.5605 430.692 70.6965 430.026 69.7425 430.026C68.4465 430.026 67.4205 431.124 67.4205 433.14C67.4205 435.174 68.3925 436.308 69.7605 436.308C70.6245 436.308 71.5065 435.858 71.8485 434.706H74.2245C73.6485 437.352 71.6505 438.234 69.6345 438.234C66.7365 438.234 64.8825 436.11 64.8825 433.176C64.8825 430.224 66.8445 428.1 69.7425 428.1ZM75.7078 424.95H78.1918V432.204L81.7198 428.316H84.5098L81.0358 432.024L84.7078 438H81.9178L79.3798 433.806L78.1918 435.084V438H75.7078V424.95ZM94.2062 431.466C94.2062 427.56 91.8842 426.966 89.5082 426.966H88.3202V435.984H89.5082C91.8842 435.984 94.2062 435.408 94.2062 431.466ZM85.7462 424.95H89.6162C93.7562 424.95 96.8702 426.282 96.8702 431.466C96.8702 436.65 93.7562 438 89.6162 438H85.7462V424.95ZM98.6837 438V424.95H103.76C106.046 424.95 108.512 425.67 108.512 428.352C108.512 429.576 107.702 430.674 107.036 431.106C108.044 431.592 108.98 432.348 108.98 434.148C108.98 436.956 106.658 438 103.976 438H98.6837ZM101.258 432.276V435.984H104.102C105.614 435.984 106.352 435.354 106.352 434.148C106.352 432.924 105.596 432.276 103.994 432.276H101.258ZM101.258 426.966V430.332H103.922C105.146 430.332 105.866 429.756 105.866 428.604C105.866 427.578 105.128 426.966 103.922 426.966H101.258ZM118.819 438H116.335V428.244H113.527V426.552C115.399 426.498 116.317 426.372 116.929 424.95H118.819V438ZM123.578 438H120.914V435.3H123.578V438ZM130.645 428.1L126.919 432.762H130.645V428.1ZM135.343 432.762V434.868H133.111V438H130.645V434.868H124.201V432.924L130.681 424.95H133.111V432.762H135.343ZM139.525 438L144.385 424.95H146.977L151.855 438H149.065L148.147 435.354H143.071L142.153 438H139.525ZM145.609 428.1L143.809 433.248H147.409L145.609 428.1ZM155.448 428.316V429.594C156.006 428.604 157.05 428.1 158.256 428.1C160.578 428.1 161.604 429.504 161.604 431.898V438H159.12V432.438C159.12 431.196 158.85 430.098 157.446 430.098C155.808 430.098 155.448 431.43 155.448 432.96V438H152.964V428.316H155.448ZM172.542 438H170.058V436.776C169.428 437.856 168.276 438.234 167.268 438.234C164.964 438.234 163.056 436.254 163.056 433.158C163.056 430.116 164.928 428.1 167.268 428.1C168.492 428.1 169.536 428.64 170.058 429.558V424.95H172.542V438ZM167.88 436.326C169.248 436.326 170.148 435.156 170.148 433.158C170.148 431.214 169.248 430.008 167.88 430.008C166.584 430.008 165.666 431.286 165.666 433.176C165.666 435.066 166.584 436.326 167.88 436.326ZM174.778 428.316H177.262V438H174.778V428.316ZM174.778 424.95H177.262V427.254H174.778V424.95ZM185.447 438V436.722C184.889 437.712 183.827 438.234 182.621 438.234C180.299 438.234 179.363 436.812 179.363 434.436V428.316H181.847V433.896C181.847 435.192 182.045 436.236 183.431 436.236C185.087 436.236 185.447 434.886 185.447 433.356V428.316H187.931V438H185.447ZM202.075 438V432.366C202.075 431.304 201.985 430.098 200.527 430.098C198.871 430.098 198.601 431.484 198.601 432.96V438H196.117V432.366C196.117 431.304 196.027 430.098 194.569 430.098C192.913 430.098 192.643 431.484 192.643 432.96V438H190.159V428.316H192.643V429.594C193.201 428.64 194.173 428.1 195.343 428.1C196.981 428.1 197.719 428.982 198.097 429.684C198.871 428.604 199.825 428.1 201.283 428.1C203.713 428.1 204.559 429.612 204.559 431.898V438H202.075Z"/><g style="mix-blend-mode:multiply"><line x1="30" x2="1011" y1="431" y2="431" stroke="#fff" stroke-width="50"/></g><path fill="#000" d="M50.63 481.466C50.63 477.56 48.308 476.966 45.932 476.966H44.744V485.984H45.932C48.308 485.984 50.63 485.408 50.63 481.466ZM42.17 474.95H46.04C50.18 474.95 53.294 476.282 53.294 481.466C53.294 486.65 50.18 488 46.04 488H42.17V474.95ZM60.8006 488V486.722C60.2426 487.712 59.1806 488.234 57.9746 488.234C55.6526 488.234 54.7166 486.812 54.7166 484.436V478.316H57.2006V483.896C57.2006 485.192 57.3986 486.236 58.7846 486.236C60.4406 486.236 60.8006 484.886 60.8006 483.356V478.316H63.2846V488H60.8006ZM69.7425 478.1C71.7765 478.1 73.7925 479.234 74.1345 481.628H71.7585C71.5605 480.692 70.6965 480.026 69.7425 480.026C68.4465 480.026 67.4205 481.124 67.4205 483.14C67.4205 485.174 68.3925 486.308 69.7605 486.308C70.6245 486.308 71.5065 485.858 71.8485 484.706H74.2245C73.6485 487.352 71.6505 488.234 69.6345 488.234C66.7365 488.234 64.8825 486.11 64.8825 483.176C64.8825 480.224 66.8445 478.1 69.7425 478.1ZM75.7078 474.95H78.1918V482.204L81.7198 478.316H84.5098L81.0358 482.024L84.7078 488H81.9178L79.3798 483.806L78.1918 485.084V488H75.7078V474.95ZM94.2062 481.466C94.2062 477.56 91.8842 476.966 89.5082 476.966H88.3202V485.984H89.5082C91.8842 485.984 94.2062 485.408 94.2062 481.466ZM85.7462 474.95H89.6162C93.7562 474.95 96.8702 476.282 96.8702 481.466C96.8702 486.65 93.7562 488 89.6162 488H85.7462V474.95ZM98.6837 488V474.95H103.76C106.046 474.95 108.512 475.67 108.512 478.352C108.512 479.576 107.702 480.674 107.036 481.106C108.044 481.592 108.98 482.348 108.98 484.148C108.98 486.956 106.658 488 103.976 488H98.6837ZM101.258 482.276V485.984H104.102C105.614 485.984 106.352 485.354 106.352 484.148C106.352 482.924 105.596 482.276 103.994 482.276H101.258ZM101.258 476.966V480.332H103.922C105.146 480.332 105.866 479.756 105.866 478.604C105.866 477.578 105.128 476.966 103.922 476.966H101.258ZM118.819 488H116.335V478.244H113.527V476.552C115.399 476.498 116.317 476.372 116.929 474.95H118.819V488ZM123.578 488H120.914V485.3H123.578V488ZM129.673 486.362C131.041 486.362 132.031 485.372 132.031 483.716C132.031 481.916 130.825 481.052 129.619 481.052C128.467 481.052 127.657 481.61 127.387 482.24L125.119 482.132L125.983 474.95H134.029V477.038H128.017L127.657 479.828C128.215 479.414 129.025 479.108 130.249 479.108C132.481 479.108 134.551 480.692 134.551 483.698C134.551 486.578 132.319 488.234 129.637 488.234C126.577 488.234 124.957 486.146 124.813 483.896H127.153C127.297 485.246 128.071 486.362 129.673 486.362Z"/><g style="mix-blend-mode:multiply"><line x1="30" x2="1011" y1="481" y2="481" stroke="#F3F3F3" stroke-width="50"/></g><path fill="#000" d="M50.63 531.466C50.63 527.56 48.308 526.966 45.932 526.966H44.744V535.984H45.932C48.308 535.984 50.63 535.408 50.63 531.466ZM42.17 524.95H46.04C50.18 524.95 53.294 526.282 53.294 531.466C53.294 536.65 50.18 538 46.04 538H42.17V524.95ZM60.8006 538V536.722C60.2426 537.712 59.1806 538.234 57.9746 538.234C55.6526 538.234 54.7166 536.812 54.7166 534.436V528.316H57.2006V533.896C57.2006 535.192 57.3986 536.236 58.7846 536.236C60.4406 536.236 60.8006 534.886 60.8006 533.356V528.316H63.2846V538H60.8006ZM69.7425 528.1C71.7765 528.1 73.7925 529.234 74.1345 531.628H71.7585C71.5605 530.692 70.6965 530.026 69.7425 530.026C68.4465 530.026 67.4205 531.124 67.4205 533.14C67.4205 535.174 68.3925 536.308 69.7605 536.308C70.6245 536.308 71.5065 535.858 71.8485 534.706H74.2245C73.6485 537.352 71.6505 538.234 69.6345 538.234C66.7365 538.234 64.8825 536.11 64.8825 533.176C64.8825 530.224 66.8445 528.1 69.7425 528.1ZM75.7078 524.95H78.1918V532.204L81.7198 528.316H84.5098L81.0358 532.024L84.7078 538H81.9178L79.3798 533.806L78.1918 535.084V538H75.7078V524.95ZM94.2062 531.466C94.2062 527.56 91.8842 526.966 89.5082 526.966H88.3202V535.984H89.5082C91.8842 535.984 94.2062 535.408 94.2062 531.466ZM85.7462 524.95H89.6162C93.7562 524.95 96.8702 526.282 96.8702 531.466C96.8702 536.65 93.7562 538 89.6162 538H85.7462V524.95ZM98.6837 538V524.95H103.76C106.046 524.95 108.512 525.67 108.512 528.352C108.512 529.576 107.702 530.674 107.036 531.106C108.044 531.592 108.98 532.348 108.98 534.148C108.98 536.956 106.658 538 103.976 538H98.6837ZM101.258 532.276V535.984H104.102C105.614 535.984 106.352 535.354 106.352 534.148C106.352 532.924 105.596 532.276 103.994 532.276H101.258ZM101.258 526.966V530.332H103.922C105.146 530.332 105.866 529.756 105.866 528.604C105.866 527.578 105.128 526.966 103.922 526.966H101.258ZM118.819 538H116.335V528.244H113.527V526.552C115.399 526.498 116.317 526.372 116.929 524.95H118.819V538ZM123.578 538H120.914V535.3H123.578V538ZM127.194 533.77C127.194 535.336 128.22 536.362 129.588 536.362C130.938 536.362 131.928 535.354 131.928 533.77C131.928 532.24 130.938 531.232 129.588 531.232C128.22 531.232 127.194 532.24 127.194 533.77ZM129.696 526.606C128.04 526.606 127.05 528.136 127.05 530.584C127.608 529.882 128.652 529.342 130.02 529.342C132.432 529.342 134.448 530.98 134.448 533.806C134.448 536.488 132.414 538.234 129.588 538.234C126.096 538.234 124.566 535.426 124.566 531.772C124.566 528.028 125.952 524.716 129.858 524.716C132.702 524.716 134.034 526.642 134.178 528.316H131.748C131.622 527.236 130.776 526.606 129.696 526.606Z"/><g style="mix-blend-mode:multiply"><line x1="30" x2="1011" y1="531" y2="531" stroke="#fff" stroke-width="50"/></g><path fill="#000" d="M50.63 581.466C50.63 577.56 48.308 576.966 45.932 576.966H44.744V585.984H45.932C48.308 585.984 50.63 585.408 50.63 581.466ZM42.17 574.95H46.04C50.18 574.95 53.294 576.282 53.294 581.466C53.294 586.65 50.18 588 46.04 588H42.17V574.95ZM60.8006 588V586.722C60.2426 587.712 59.1806 588.234 57.9746 588.234C55.6526 588.234 54.7166 586.812 54.7166 584.436V578.316H57.2006V583.896C57.2006 585.192 57.3986 586.236 58.7846 586.236C60.4406 586.236 60.8006 584.886 60.8006 583.356V578.316H63.2846V588H60.8006ZM69.7425 578.1C71.7765 578.1 73.7925 579.234 74.1345 581.628H71.7585C71.5605 580.692 70.6965 580.026 69.7425 580.026C68.4465 580.026 67.4205 581.124 67.4205 583.14C67.4205 585.174 68.3925 586.308 69.7605 586.308C70.6245 586.308 71.5065 585.858 71.8485 584.706H74.2245C73.6485 587.352 71.6505 588.234 69.6345 588.234C66.7365 588.234 64.8825 586.11 64.8825 583.176C64.8825 580.224 66.8445 578.1 69.7425 578.1ZM75.7078 574.95H78.1918V582.204L81.7198 578.316H84.5098L81.0358 582.024L84.7078 588H81.9178L79.3798 583.806L78.1918 585.084V588H75.7078V574.95ZM94.2062 581.466C94.2062 577.56 91.8842 576.966 89.5082 576.966H88.3202V585.984H89.5082C91.8842 585.984 94.2062 585.408 94.2062 581.466ZM85.7462 574.95H89.6162C93.7562 574.95 96.8702 576.282 96.8702 581.466C96.8702 586.65 93.7562 588 89.6162 588H85.7462V574.95ZM98.6837 588V574.95H103.76C106.046 574.95 108.512 575.67 108.512 578.352C108.512 579.576 107.702 580.674 107.036 581.106C108.044 581.592 108.98 582.348 108.98 584.148C108.98 586.956 106.658 588 103.976 588H98.6837ZM101.258 582.276V585.984H104.102C105.614 585.984 106.352 585.354 106.352 584.148C106.352 582.924 105.596 582.276 103.994 582.276H101.258ZM101.258 576.966V580.332H103.922C105.146 580.332 105.866 579.756 105.866 578.604C105.866 577.578 105.128 576.966 103.922 576.966H101.258ZM118.819 588H116.335V578.244H113.527V576.552C115.399 576.498 116.317 576.372 116.929 574.95H118.819V588ZM123.578 588H120.914V585.3H123.578V588ZM124.442 577.038V574.95H134.036V577.038C130.634 580.476 128.96 583.32 128.726 588H125.99C126.188 583.5 128.618 579.756 131.534 577.038H124.442Z"/><g style="mix-blend-mode:multiply"><line x1="30" x2="1011" y1="581" y2="581" stroke="#F3F3F3" stroke-width="50"/></g><path fill="#000" d="M320.012 637.716C322.298 637.716 324.008 639.012 324.008 641.226C324.008 644.25 321.092 646.914 317.762 649.578H324.242V651H315.44V649.578C319.814 646.176 322.244 643.728 322.244 641.442C322.244 640.092 321.47 639.12 319.994 639.12C318.644 639.12 317.402 639.948 317.366 642.09H315.674C315.638 639.606 317.366 637.716 320.012 637.716ZM331.433 651.234C328.139 651.234 326.879 648.462 326.879 644.412C326.879 640.362 328.139 637.716 331.433 637.716C334.727 637.716 336.005 640.362 336.005 644.412C336.005 648.462 334.727 651.234 331.433 651.234ZM328.553 644.412C328.553 644.646 328.553 644.862 328.571 645.078L334.205 642.504C333.917 640.236 332.999 639.12 331.433 639.12C329.471 639.12 328.553 640.848 328.553 644.412ZM331.433 649.812C333.395 649.812 334.331 647.976 334.331 644.412C334.331 644.214 334.331 644.034 334.313 643.836L328.679 646.446C328.985 648.678 329.885 649.812 331.433 649.812ZM343.285 637.716C345.571 637.716 347.281 639.012 347.281 641.226C347.281 644.25 344.365 646.914 341.035 649.578H347.515V651H338.713V649.578C343.087 646.176 345.517 643.728 345.517 641.442C345.517 640.092 344.743 639.12 343.267 639.12C341.917 639.12 340.675 639.948 340.639 642.09H338.947C338.911 639.606 340.639 637.716 343.285 637.716ZM355.84 640.182L351.412 646.23H355.84V640.182ZM359.674 646.23V647.778H357.496V651H355.84V647.778H349.684V646.23L355.822 637.95H357.496V646.23H359.674Z"/><path fill="#000" d="M478.012 637.716C480.298 637.716 482.008 639.012 482.008 641.226C482.008 644.25 479.092 646.914 475.762 649.578H482.242V651H473.44V649.578C477.814 646.176 480.244 643.728 480.244 641.442C480.244 640.092 479.47 639.12 477.994 639.12C476.644 639.12 475.402 639.948 475.366 642.09H473.674C473.638 639.606 475.366 637.716 478.012 637.716ZM489.433 651.234C486.139 651.234 484.879 648.462 484.879 644.412C484.879 640.362 486.139 637.716 489.433 637.716C492.727 637.716 494.005 640.362 494.005 644.412C494.005 648.462 492.727 651.234 489.433 651.234ZM486.553 644.412C486.553 644.646 486.553 644.862 486.571 645.078L492.205 642.504C491.917 640.236 490.999 639.12 489.433 639.12C487.471 639.12 486.553 640.848 486.553 644.412ZM489.433 649.812C491.395 649.812 492.331 647.976 492.331 644.412C492.331 644.214 492.331 644.034 492.313 643.836L486.679 646.446C486.985 648.678 487.885 649.812 489.433 649.812ZM501.285 637.716C503.571 637.716 505.281 639.012 505.281 641.226C505.281 644.25 502.365 646.914 499.035 649.578H505.515V651H496.713V649.578C501.087 646.176 503.517 643.728 503.517 641.442C503.517 640.092 502.743 639.12 501.267 639.12C499.917 639.12 498.675 639.948 498.639 642.09H496.947C496.911 639.606 498.639 637.716 501.285 637.716ZM512.706 649.812C514.2 649.812 515.46 648.696 515.46 646.716C515.46 644.592 514.02 643.728 512.67 643.728C511.428 643.728 510.564 644.466 510.294 645.096L508.566 645.024L509.412 637.95H516.648V639.354H510.816L510.348 643.26C511.032 642.594 512.004 642.288 513.048 642.288C515.208 642.288 517.224 643.872 517.224 646.698C517.224 649.65 515.01 651.234 512.688 651.234C509.79 651.234 508.368 649.236 508.206 647.112H509.88C510.06 648.696 510.96 649.812 512.706 649.812Z"/><path fill="#000" d="M636.012 637.716C638.298 637.716 640.008 639.012 640.008 641.226C640.008 644.25 637.092 646.914 633.762 649.578H640.242V651H631.44V649.578C635.814 646.176 638.244 643.728 638.244 641.442C638.244 640.092 637.47 639.12 635.994 639.12C634.644 639.12 633.402 639.948 633.366 642.09H631.674C631.638 639.606 633.366 637.716 636.012 637.716ZM647.433 651.234C644.139 651.234 642.879 648.462 642.879 644.412C642.879 640.362 644.139 637.716 647.433 637.716C650.727 637.716 652.005 640.362 652.005 644.412C652.005 648.462 650.727 651.234 647.433 651.234ZM644.553 644.412C644.553 644.646 644.553 644.862 644.571 645.078L650.205 642.504C649.917 640.236 648.999 639.12 647.433 639.12C645.471 639.12 644.553 640.848 644.553 644.412ZM647.433 649.812C649.395 649.812 650.331 647.976 650.331 644.412C650.331 644.214 650.331 644.034 650.313 643.836L644.679 646.446C644.985 648.678 645.885 649.812 647.433 649.812ZM659.285 637.716C661.571 637.716 663.281 639.012 663.281 641.226C663.281 644.25 660.365 646.914 657.035 649.578H663.515V651H654.713V649.578C659.087 646.176 661.517 643.728 661.517 641.442C661.517 640.092 660.743 639.12 659.267 639.12C657.917 639.12 656.675 639.948 656.639 642.09H654.947C654.911 639.606 656.639 637.716 659.285 637.716ZM668.078 646.824C668.078 648.606 669.14 649.812 670.778 649.812C672.362 649.812 673.496 648.588 673.496 646.824C673.496 645.078 672.38 643.8 670.796 643.8C669.176 643.8 668.078 645.078 668.078 646.824ZM671.03 639.12C669.032 639.12 667.97 641.136 667.898 644.106C668.456 643.098 669.518 642.324 671.174 642.324C673.478 642.324 675.26 644.16 675.26 646.752C675.26 649.146 673.46 651.234 670.796 651.234C667.7 651.234 666.188 648.948 666.188 644.988C666.188 641.316 667.538 637.716 671.12 637.716C673.55 637.716 674.792 639.318 675.044 640.938H673.262C673.064 639.786 672.218 639.12 671.03 639.12Z"/><path fill="#000" d="M794.012 637.716C796.298 637.716 798.008 639.012 798.008 641.226C798.008 644.25 795.092 646.914 791.762 649.578H798.242V651H789.44V649.578C793.814 646.176 796.244 643.728 796.244 641.442C796.244 640.092 795.47 639.12 793.994 639.12C792.644 639.12 791.402 639.948 791.366 642.09H789.674C789.638 639.606 791.366 637.716 794.012 637.716ZM805.433 651.234C802.139 651.234 800.879 648.462 800.879 644.412C800.879 640.362 802.139 637.716 805.433 637.716C808.727 637.716 810.005 640.362 810.005 644.412C810.005 648.462 808.727 651.234 805.433 651.234ZM802.553 644.412C802.553 644.646 802.553 644.862 802.571 645.078L808.205 642.504C807.917 640.236 806.999 639.12 805.433 639.12C803.471 639.12 802.553 640.848 802.553 644.412ZM805.433 649.812C807.395 649.812 808.331 647.976 808.331 644.412C808.331 644.214 808.331 644.034 808.313 643.836L802.679 646.446C802.985 648.678 803.885 649.812 805.433 649.812ZM817.285 637.716C819.571 637.716 821.281 639.012 821.281 641.226C821.281 644.25 818.365 646.914 815.035 649.578H821.515V651H812.713V649.578C817.087 646.176 819.517 643.728 819.517 641.442C819.517 640.092 818.743 639.12 817.267 639.12C815.917 639.12 814.675 639.948 814.639 642.09H812.947C812.911 639.606 814.639 637.716 817.285 637.716ZM824.386 639.354V637.95H833.548V639.354C830.218 641.91 828.04 646.212 827.914 651H826.024C826.312 646.32 828.436 641.892 831.532 639.354H824.386Z"/><path fill="#000" d="M952.012 637.716C954.298 637.716 956.008 639.012 956.008 641.226C956.008 644.25 953.092 646.914 949.762 649.578H956.242V651H947.44V649.578C951.814 646.176 954.244 643.728 954.244 641.442C954.244 640.092 953.47 639.12 951.994 639.12C950.644 639.12 949.402 639.948 949.366 642.09H947.674C947.638 639.606 949.366 637.716 952.012 637.716ZM963.433 651.234C960.139 651.234 958.879 648.462 958.879 644.412C958.879 640.362 960.139 637.716 963.433 637.716C966.727 637.716 968.005 640.362 968.005 644.412C968.005 648.462 966.727 651.234 963.433 651.234ZM960.553 644.412C960.553 644.646 960.553 644.862 960.571 645.078L966.205 642.504C965.917 640.236 964.999 639.12 963.433 639.12C961.471 639.12 960.553 640.848 960.553 644.412ZM963.433 649.812C965.395 649.812 966.331 647.976 966.331 644.412C966.331 644.214 966.331 644.034 966.313 643.836L960.679 646.446C960.985 648.678 961.885 649.812 963.433 649.812ZM975.285 637.716C977.571 637.716 979.281 639.012 979.281 641.226C979.281 644.25 976.365 646.914 973.035 649.578H979.515V651H970.713V649.578C975.087 646.176 977.517 643.728 977.517 641.442C977.517 640.092 976.743 639.12 975.267 639.12C973.917 639.12 972.675 639.948 972.639 642.09H970.947C970.911 639.606 972.639 637.716 975.285 637.716ZM986.724 637.716C989.262 637.716 990.954 639.138 990.954 641.046C990.954 642.09 990.468 643.35 989.244 644.034C990.864 644.736 991.35 646.158 991.35 647.328C991.35 649.776 989.28 651.234 986.724 651.234C984.168 651.234 982.098 649.776 982.098 647.328C982.098 646.158 982.566 644.736 984.204 644.034C982.962 643.35 982.476 642.09 982.476 641.046C982.476 639.138 984.186 637.716 986.724 637.716ZM986.724 644.772C984.978 644.772 983.844 645.816 983.844 647.328C983.844 648.84 984.978 649.812 986.724 649.812C988.47 649.812 989.586 648.84 989.586 647.328C989.586 645.816 988.47 644.772 986.724 644.772ZM989.298 641.208C989.298 639.876 988.272 639.138 986.724 639.138C985.176 639.138 984.15 639.93 984.15 641.208C984.15 642.504 985.176 643.494 986.724 643.494C988.272 643.494 989.298 642.504 989.298 641.208Z"/><line x1="312.5" x2="312.5" y1="636.5" y2="133.5" stroke="#FAFAFA" stroke-width="5"/><line x1="470.5" x2="470.5" y1="636.5" y2="133.5" stroke="#FAFAFA" stroke-width="5"/><line x1="628.5" x2="628.5" y1="636.5" y2="133.5" stroke="#FAFAFA" stroke-width="5"/><line x1="786.5" x2="786.5" y1="636.5" y2="133.5" stroke="#FAFAFA" stroke-width="5"/><line x1="944.5" x2="944.5" y1="636.5" y2="133.5" stroke="#FAFAFA" stroke-width="5"/><rect width="93" height="26" x="295" y="167.5" fill="#696969" rx="6"/><rect width="47" height="28" x="388" y="217.5" fill="#696969" rx="6"/><rect width="52" height="27" x="497" y="317.5" fill="#696969" rx="6"/><rect width="55" height="29" x="551" y="366.5" fill="#696969" rx="6"/><rect width="157" height="28" x="608" y="418.5" fill="#00C770" rx="6"/><rect width="57" height="28" x="664" y="468" fill="#696969" rx="6"/><rect width="176" height="29" x="721" y="516.5" fill="#00C770" rx="6"/><rect width="57" height="29" x="794" y="566.5" fill="#696969" rx="6"/><rect width="62" height="29" x="435" y="267.5" fill="#696969" rx="6"/><path fill="#FF6900" d="M589 636.5C584.582 636.5 581 640.082 581 644.5C581 648.918 584.582 652.5 589 652.5C593.418 652.5 597 648.918 597 644.5C597 640.082 593.418 636.5 589 636.5ZM589 125L587.5 125L587.5 644.5L589 644.5L590.5 644.5L590.5 125L589 125Z"/></svg>