<svg width="720" height="480" viewBox="0 0 720 480" fill="none" xmlns="http://www.w3.org/2000/svg">
<g clip-path="url(#clip0_3565_2301)">
<rect width="720" height="480" fill="black"/>
<path d="M404.789 227.352H387.65V252.864H404.789C411.895 252.864 417.8 247.04 417.8 240.031C417.8 232.97 411.895 227.352 404.789 227.352Z" fill="#C1E7FF"/>
<path d="M303 239.528C303 259.663 319.393 276.056 339.528 276.056C359.663 276.056 376.056 259.663 376.056 239.528C376.056 219.393 359.663 203 339.528 203C319.393 203 303 219.393 303 239.528Z" fill="#FFFDF1"/>
<circle cx="354.602" cy="227.351" r="8.11731" fill="#363636"/>
<path d="M182.289 210.835H174.663V222.186H182.289C185.451 222.186 188.078 219.595 188.078 216.476C188.078 213.335 185.451 210.835 182.289 210.835Z" fill="#FF6900"/>
<path d="M137 216.252C137 225.211 144.294 232.505 153.252 232.505C162.211 232.505 169.505 225.211 169.505 216.252C169.505 207.294 162.211 200 153.252 200C144.294 200 137 207.294 137 216.252Z" fill="#363636"/>
<circle cx="159.959" cy="210.835" r="3.61165" fill="white"/>
<path d="M360.368 10.9825H349.26V27.5162H360.368C364.973 27.5162 368.8 23.7418 368.8 19.1992C368.8 14.6232 364.973 10.9825 360.368 10.9825Z" fill="#FCF252"/>
<path d="M294.4 18.8732C294.4 31.9226 305.024 42.5465 318.073 42.5465C331.122 42.5465 341.746 31.9226 341.746 18.8732C341.746 5.82393 331.122 -4.79999 318.073 -4.79999C305.024 -4.79999 294.4 5.82393 294.4 18.8732Z" fill="#5B4628"/>
<circle cx="327.842" cy="10.9818" r="5.26072" fill="white"/>
<path d="M601.819 52.2668H592.622V65.956H601.819C605.632 65.956 608.8 62.831 608.8 59.0699C608.8 55.2812 605.632 52.2668 601.819 52.2668Z" fill="#FCF252"/>
<path d="M547.2 58.8C547.2 69.6043 555.996 78.4004 566.801 78.4004C577.605 78.4004 586.401 69.6043 586.401 58.8C586.401 47.9957 577.605 39.1996 566.801 39.1996C555.996 39.1996 547.2 47.9957 547.2 58.8Z" fill="#FFFDF1"/>
<circle cx="574.889" cy="52.2662" r="4.35565" fill="#363636"/>
<path d="M174.917 52.8978H161.898V72.276H174.917C180.315 72.276 184.8 67.8523 184.8 62.5281C184.8 57.1649 180.315 52.8978 174.917 52.8978Z" fill="#FCF252"/>
<path d="M97.6001 62.1461C97.6001 77.4404 110.052 89.8921 125.346 89.8921C140.641 89.8921 153.092 77.4404 153.092 62.1461C153.092 46.8517 140.641 34.4 125.346 34.4C110.052 34.4 97.6001 46.8517 97.6001 62.1461Z" fill="#DADADA"/>
<circle cx="136.796" cy="52.897" r="6.16579" fill="#363636"/>
<path d="M475.765 412.316H465.972V426.894H475.765C479.826 426.894 483.2 423.566 483.2 419.561C483.2 415.526 479.826 412.316 475.765 412.316Z" fill="#2EAFFF"/>
<path d="M417.6 419.273C417.6 430.779 426.967 440.146 438.473 440.146C449.979 440.146 459.346 430.779 459.346 419.273C459.346 407.767 449.979 398.4 438.473 398.4C426.967 398.4 417.6 407.767 417.6 419.273Z" fill="#DADADA"/>
<circle cx="447.087" cy="412.315" r="4.63848" fill="#363636"/>
<path d="M200.796 369.134H188.033V388.13H200.796C206.087 388.13 210.484 383.794 210.484 378.575C210.484 373.317 206.087 369.134 200.796 369.134Z" fill="#6D6D6D"/>
<path d="M125 378.2C125 393.193 137.207 405.4 152.2 405.4C167.193 405.4 179.4 393.193 179.4 378.2C179.4 363.207 167.193 351 152.2 351C137.207 351 125 363.207 125 378.2Z" fill="#5B4628"/>
<path d="M152.2 405.399C137.207 405.399 125 393.192 125 378.199H179.4C179.4 393.192 167.193 405.399 152.2 405.399Z" fill="white"/>
<circle cx="163.425" cy="369.133" r="6.04444" fill="black"/>
<path d="M290.324 139.255H285.218V146.855H290.324C292.441 146.855 294.2 145.12 294.2 143.032C294.2 140.928 292.441 139.255 290.324 139.255Z" fill="#2EAFFF"/>
<path d="M260 142.882C260 148.881 264.884 153.764 270.882 153.764C276.881 153.764 281.764 148.881 281.764 142.882C281.764 136.884 276.881 132 270.882 132C264.884 132 260 136.884 260 142.882Z" fill="#4A4A4A"/>
<circle cx="275.373" cy="139.255" r="2.41825" fill="#363636"/>
<path d="M426.127 129.385H419.707V138.941H426.127C428.789 138.941 431 136.76 431 134.134C431 131.489 428.789 129.385 426.127 129.385Z" fill="#00C770"/>
<path d="M388 133.946C388 141.488 394.14 147.628 401.682 147.628C409.224 147.628 415.364 141.488 415.364 133.946C415.364 126.404 409.224 120.264 401.682 120.264C394.14 120.264 388 126.404 388 133.946Z" fill="#998975"/>
<circle cx="407.329" cy="129.385" r="3.04047" fill="#363636"/>
<path d="M720.489 144.435H712.863V155.786H720.489C723.651 155.786 726.278 153.195 726.278 150.076C726.278 146.935 723.651 144.435 720.489 144.435Z" fill="#6D6D6D"/>
<path d="M675.2 149.852C675.2 158.811 682.494 166.105 691.453 166.105C700.411 166.105 707.705 158.811 707.705 149.852C707.705 140.894 700.411 133.6 691.453 133.6C682.494 133.6 675.2 140.894 675.2 149.852Z" fill="#AE8537"/>
<circle cx="698.159" cy="144.435" r="3.61165" fill="#363636"/>
<path d="M38.0886 433.835H30.4629V445.186H38.0886C41.2504 445.186 43.8776 442.595 43.8776 439.476C43.8776 436.335 41.2504 433.835 38.0886 433.835Z" fill="#E5B569"/>
<path d="M38.0886 433.835H36.3447V445.186H38.0886C41.2505 445.186 43.8776 442.595 43.8776 439.476C43.8776 436.335 41.2505 433.835 38.0886 433.835Z" fill="#D2000B"/>
<path d="M-7.2002 439.252C-7.2002 448.211 0.093458 455.505 9.05222 455.505C18.011 455.505 25.3046 448.211 25.3046 439.252C25.3046 430.294 18.011 423 9.05222 423C0.093458 423 -7.2002 430.294 -7.2002 439.252Z" fill="#2EAFFF"/>
<circle cx="15.7591" cy="433.835" r="3.61165" fill="#363636"/>
<path d="M336.713 365.152H332.383V371.596H336.713C338.508 371.596 340 370.125 340 368.355C340 366.571 338.508 365.152 336.713 365.152Z" fill="#363636"/>
<path d="M311 368.227C311 373.314 315.141 377.455 320.227 377.455C325.314 377.455 329.455 373.314 329.455 368.227C329.455 363.141 325.314 359 320.227 359C315.141 359 311 363.141 311 368.227Z" fill="#998975"/>
<circle cx="324.035" cy="365.152" r="2.05055" fill="#363636"/>
<path d="M562.629 333.806H557.135V341.984H562.629C564.907 341.984 566.8 340.117 566.8 337.87C566.8 335.607 564.907 333.806 562.629 333.806Z" fill="#FCF252"/>
<path d="M530 337.709C530 344.164 535.255 349.419 541.709 349.419C548.164 349.419 553.419 344.164 553.419 337.709C553.419 331.255 548.164 326 541.709 326C535.255 326 530 331.255 530 337.709Z" fill="#008666"/>
<circle cx="546.541" cy="333.806" r="2.60206" fill="#363636"/>
<path d="M656.847 232.897H646.898V247.706H656.847C660.972 247.706 664.4 244.326 664.4 240.257C664.4 236.158 660.972 232.897 656.847 232.897Z" fill="#564A44"/>
<path d="M656.847 232.897H654.572V247.706H656.847C660.973 247.706 664.4 244.326 664.4 240.257C664.4 236.158 660.973 232.897 656.847 232.897Z" fill="#FEFFFF"/>
<path d="M608.363 221.602C598.241 227.446 594.758 240.445 600.602 250.567C606.446 260.689 619.445 264.172 629.567 258.328C639.689 252.484 643.172 239.485 637.328 229.363C631.484 219.241 618.485 215.758 608.363 221.602Z" fill="#FEFFFF"/>
<path d="M600.602 250.566C594.758 240.444 598.241 227.445 608.363 221.601L629.567 258.327C619.445 264.171 606.446 260.688 600.602 250.566Z" fill="#494645"/>
<circle cx="627.715" cy="232.897" r="4.71195" fill="#363636"/>
<path d="M80.4895 151.636H72.8638V162.987H80.4895C83.6513 162.987 86.2785 160.396 86.2785 157.277C86.2785 154.135 83.6513 151.636 80.4895 151.636Z" fill="#FCF252"/>
<path d="M67.7051 157.054C67.7051 148.095 60.4114 140.801 51.4527 140.801C42.4939 140.801 35.2002 148.095 35.2002 157.054C35.2002 166.012 42.4939 173.306 51.4527 173.306C60.4114 173.306 67.7051 166.012 67.7051 157.054Z" fill="#FEFFFF"/>
<path d="M51.4531 140.8C60.4119 140.8 67.7056 148.094 67.7056 157.052L35.2007 157.052C35.2007 148.094 42.4944 140.8 51.4531 140.8Z" fill="#494645"/>
<circle cx="58.1595" cy="151.635" r="3.61165" fill="#363636"/>
<path d="M72.3413 300.132H65.4141V310.443H72.3413C75.2136 310.443 77.6001 308.089 77.6001 305.256C77.6001 302.403 75.2136 300.132 72.3413 300.132Z" fill="#2EAFFF"/>
<path d="M60.728 305.053C60.728 296.915 54.1024 290.289 45.9641 290.289C37.8259 290.289 31.2002 296.915 31.2002 305.053C31.2002 313.192 37.8259 319.817 45.9641 319.817C54.1024 319.817 60.728 313.192 60.728 305.053Z" fill="#FEFFFF"/>
<path d="M45.9646 290.289C54.1029 290.289 60.7285 296.914 60.7285 305.052L31.2007 305.052C31.2007 296.914 37.8264 290.289 45.9646 290.289Z" fill="#494645"/>
<circle cx="52.0567" cy="300.132" r="3.28087" fill="#363636"/>
<path d="M674.155 361.649H669.616V368.405H674.155C676.037 368.405 677.6 366.862 677.6 365.006C677.6 363.137 676.037 361.649 674.155 361.649Z" fill="#363636"/>
<path d="M666.546 364.873C666.546 359.541 662.205 355.2 656.873 355.2C651.541 355.2 647.201 359.541 647.201 364.873C647.201 370.205 651.541 374.546 656.873 374.546C662.205 374.546 666.546 370.205 666.546 364.873Z" fill="#008666"/>
<path d="M656.873 374.546C651.541 374.546 647.2 370.205 647.2 364.873L666.546 364.873C666.546 370.205 662.205 374.546 656.873 374.546Z" fill="#965547"/>
<circle cx="660.865" cy="361.649" r="2.14954" fill="#363636"/>
<path d="M325.29 433.174H316.452V446.33H325.29C328.955 446.33 332 443.326 332 439.712C332 436.071 328.955 433.174 325.29 433.174Z" fill="#363636"/>
<path d="M272.8 439.452C272.8 449.836 281.253 458.289 291.637 458.289C302.02 458.289 310.473 449.836 310.473 439.452C310.473 429.069 302.02 420.616 291.637 420.616C281.253 420.616 272.8 429.069 272.8 439.452Z" fill="#AE8537"/>
<circle cx="299.41" cy="433.173" r="4.18595" fill="#363636"/>
<path d="M535.402 152.231H529.61V160.853H535.402C537.804 160.853 539.8 158.885 539.8 156.516C539.8 154.129 537.804 152.231 535.402 152.231Z" fill="#FF6900"/>
<path d="M501 156.346C501 163.151 506.54 168.691 513.346 168.691C520.151 168.691 525.691 163.151 525.691 156.346C525.691 149.54 520.151 144 513.346 144C506.54 144 501 149.54 501 156.346Z" fill="#343434"/>
<circle cx="518.44" cy="152.23" r="2.74348" fill="#FF6900"/>
<path d="M634.889 463.635H627.263V474.986H634.889C638.051 474.986 640.678 472.395 640.678 469.276C640.678 466.135 638.051 463.635 634.889 463.635Z" fill="#363636"/>
<path d="M589.6 469.052C589.6 478.011 596.894 485.305 605.853 485.305C614.811 485.305 622.105 478.011 622.105 469.052C622.105 460.094 614.811 452.8 605.853 452.8C596.894 452.8 589.6 460.094 589.6 469.052Z" fill="#008666"/>
<circle cx="612.559" cy="463.635" r="3.61165" fill="#FCF252"/>
<rect x="267" y="294" width="110.184" height="25.8" rx="12.9" fill="#777777"/>
<path d="M286.342 306.74H284.057C283.862 305.943 283.153 305.376 282.02 305.376C281.116 305.376 280.479 305.713 280.479 306.298C280.479 306.811 280.851 307.201 281.754 307.396L283.029 307.679C284.925 308.104 286.536 308.582 286.536 310.548C286.536 312.461 284.57 313.63 282.409 313.63C280.071 313.63 278.3 312.426 278.07 310.247H280.426C280.567 311.168 281.205 311.859 282.48 311.859C283.543 311.859 284.198 311.469 284.198 310.779C284.198 310.07 283.472 309.804 282.64 309.61L281.223 309.309C279.434 308.937 278.247 308.193 278.247 306.457C278.247 304.757 280.089 303.623 282.144 303.623C284.128 303.623 286.005 304.544 286.342 306.74ZM290.509 303.871V305.129C291.058 304.154 292.085 303.658 293.272 303.658C295.557 303.658 296.567 305.04 296.567 307.396V313.4H294.122V307.927C294.122 306.705 293.857 305.624 292.475 305.624C290.863 305.624 290.509 306.935 290.509 308.441V313.4H288.065V303.871H290.509ZM302.761 305.571C301.414 305.571 300.458 306.652 300.458 308.653C300.458 310.655 301.414 311.717 302.761 311.717C304.107 311.717 305.063 310.655 305.063 308.653C305.063 306.652 304.107 305.571 302.761 305.571ZM302.761 313.63C300.352 313.63 297.978 311.983 297.978 308.653C297.978 305.306 300.352 303.658 302.761 303.658C305.169 303.658 307.543 305.306 307.543 308.653C307.543 311.983 305.169 313.63 302.761 313.63ZM311.788 310.46L313.276 303.871H315.879L317.385 310.442L318.66 303.871H321.087L318.837 313.4H316.322L314.586 306.174L312.833 313.4H310.318L308.086 303.871H310.513L311.788 310.46ZM334.901 313.4H332.457V312.196C331.837 313.258 330.704 313.63 329.712 313.63C327.445 313.63 325.567 311.682 325.567 308.635C325.567 305.642 327.409 303.658 329.712 303.658C330.916 303.658 331.944 304.19 332.457 305.093V300.559H334.901V313.4ZM330.314 311.753C331.66 311.753 332.546 310.602 332.546 308.635C332.546 306.723 331.66 305.536 330.314 305.536C329.039 305.536 328.135 306.793 328.135 308.653C328.135 310.513 329.039 311.753 330.314 311.753ZM342.964 313.4V312.142C342.415 313.117 341.37 313.63 340.183 313.63C337.899 313.63 336.978 312.231 336.978 309.893V303.871H339.422V309.362C339.422 310.637 339.617 311.664 340.98 311.664C342.61 311.664 342.964 310.336 342.964 308.83V303.871H345.408V313.4H342.964ZM351.763 303.658C353.764 303.658 355.748 304.774 356.085 307.13H353.747C353.552 306.209 352.702 305.554 351.763 305.554C350.488 305.554 349.478 306.634 349.478 308.618C349.478 310.619 350.435 311.735 351.781 311.735C352.631 311.735 353.499 311.292 353.835 310.159H356.173C355.607 312.762 353.64 313.63 351.657 313.63C348.805 313.63 346.981 311.54 346.981 308.653C346.981 305.748 348.911 303.658 351.763 303.658ZM357.633 300.559H360.077V307.697L363.549 303.871H366.294L362.876 307.52L366.489 313.4H363.744L361.246 309.273L360.077 310.531V313.4H357.633V300.559Z" fill="black"/>
<rect x="382.184" y="294" width="70.184" height="25.8" rx="12.9" fill="#777777"/>
<path d="M395.344 303.871L397.576 310.92L399.808 303.871H402.234L398.816 313.4H396.247L392.776 303.871H395.344ZM409.315 313.4H406.87V303.8H404.107V302.135C405.949 302.082 406.853 301.958 407.455 300.559H409.315V313.4ZM413.997 313.4H411.376V310.743H413.997V313.4ZM420.245 313.63C416.809 313.63 415.073 310.849 415.073 306.953C415.073 303.056 416.809 300.329 420.245 300.329C423.646 300.329 425.399 303.056 425.399 306.953C425.399 310.849 423.646 313.63 420.245 313.63ZM420.245 311.788C421.998 311.788 422.902 310.052 422.902 306.953C422.902 303.853 421.998 302.171 420.245 302.171C418.491 302.171 417.57 303.853 417.57 306.953C417.57 310.052 418.491 311.788 420.245 311.788ZM429.098 313.4H426.476V310.743H429.098V313.4ZM435.345 313.63C431.909 313.63 430.173 310.849 430.173 306.953C430.173 303.056 431.909 300.329 435.345 300.329C438.746 300.329 440.499 303.056 440.499 306.953C440.499 310.849 438.746 313.63 435.345 313.63ZM435.345 311.788C437.098 311.788 438.002 310.052 438.002 306.953C438.002 303.853 437.098 302.171 435.345 302.171C433.592 302.171 432.67 303.853 432.67 306.953C432.67 310.052 433.592 311.788 435.345 311.788Z" fill="black"/>
</g>
<defs>
<clipPath id="clip0_3565_2301">
<rect width="720" height="480" fill="white"/>
</clipPath>
</defs>
</svg>
