<?xml version="1.0" encoding="UTF-8"?>
<svg xmlns="http://www.w3.org/2000/svg" version="1.1" viewBox="0 0 171.9 198.5">
  <defs>
    <style>
      .cls-1 {
        fill: #ffeb00;
      }

      .cls-2 {
        fill: #ffeb0f;
      }
    </style>
  </defs>
  <!-- Generator: Adobe Illustrator 28.7.0, SVG Export Plug-In . SVG Version: 1.2.0 Build 136)  -->
  <g>
    <g id="Artwork">
      <path d="M171.9,49.6v99.2l-85.9,49.6L0,148.9V49.6L85.9,0l85.9,49.6Z"/>
      <g>
        <g>
          <path class="cls-1" d="M58.5,108.2c-12.5,0-22.7-10.1-22.7-22.7s10.1-22.7,22.7-22.7,22.7,10.1,22.7,22.7-10.1,22.7-22.7,22.7Z"/>
          <g>
            <path d="M58.9,82.8l-1-1.9c-.1-.3-.4-.3-.7-.2-1,.5-2.1.9-3.2,1.2-1.5.5-3.1,1-4.6,1.9-1.7,1.1-4.3,3.6-5.4,4.9-.3.4-.3,1,0,1.3l.9.8c.4.3.9.3,1.3,0,.7-.7,1.5-1.5,2.3-2.1,1-.9,2-1.7,2.9-2.2,2.2-1.1,4.9-1.7,7.2-2.9.3-.2.3-.5.2-.7Z"/>
            <path d="M63,86l-1.9-1c-.3-.1-.6,0-.7.2-.6,1.1-1.1,2.3-1.5,3.5-.5,1.3-.9,2.5-1.4,3.7-.9,1.8-2.8,3.6-4.3,5.2s-.3.9,0,1.3l.8.9c.3.4.9.4,1.3,0,.8-.7,1.6-1.5,2.4-2.3,1-1.1,2.1-2.3,2.8-3.6,1.2-2.4,1.7-4.9,2.8-7.2.1-.3,0-.5-.2-.7Z"/>
            <path d="M70.8,76l-.4-.4-5.2,3.6-.6-.6,3.6-5.2-.4-.4c-.2-.2-.5-.2-.7,0l-4,2.9c-.2.1-.3.3-.4.5l-1.1,2.4-2.8,1.6.9,1.8c0,0,0,.1,0,.2l1.1-.5.9.9-.5,1c0,0,0,0,.1,0l1.9.9,1.6-2.8,2.4-1.1c.2,0,.3-.2.5-.4l2.9-4c0-.2,0-.5-.1-.7ZM63.2,81.8c-.6,0-1.1-.5-1.1-1.1s.5-1.1,1.1-1.1,1.1.5,1.1,1.1-.5,1.1-1.1,1.1Z"/>
          </g>
        </g>
        <g>
          <path class="cls-1" d="M113.4,108.2c-12.5,0-22.7-10.1-22.7-22.7s10.1-22.7,22.7-22.7,22.7,10.1,22.7,22.7-10.1,22.7-22.7,22.7Z"/>
          <path d="M125.5,82.2h-4.4v6.7h4.4c1.8,0,3.4-1.5,3.4-3.4s-1.5-3.3-3.4-3.3Z"/>
          <path d="M99.2,85.5c0,5.2,4.2,9.4,9.4,9.4s9.4-4.2,9.4-9.4-4.2-9.4-9.4-9.4-9.4,4.2-9.4,9.4Z"/>
        </g>
        <g>
          <path class="cls-2" d="M53.8,119.2h2.5v15.4h-2.5v-1.5c-.7,1.1-1.9,1.8-3.4,1.8-2.7,0-5-2.3-5-6s2.2-6,5-6,2.7.7,3.4,1.8v-5.5ZM51,125c-1.7,0-2.9,1.5-2.9,3.9s1.2,3.9,2.9,3.9,2.9-1.3,2.9-3.9-1.3-3.9-2.9-3.9Z"/>
          <path class="cls-2" d="M65.8,133c-.7,1.2-1.8,1.8-3.4,1.8-2.7,0-3.8-1.8-3.8-4.5v-7.2h2.5v6.6c0,1.5.2,3,2.1,3s2.6-1.5,2.6-3.5v-6.1h2.5v11.4h-2.5v-1.6Z"/>
          <path class="cls-2" d="M80.7,127.1h-2.5c-.2-1.2-1.3-2.1-2.6-2.1s-3,1.2-3,3.9,1.4,3.9,2.9,3.9,2.5-.6,2.8-2.1h2.5c-.5,2.7-2.9,4.2-5.3,4.2s-5.5-2.6-5.5-6,2.2-6,5.6-6,4.7,1.6,5.1,4.2Z"/>
          <path class="cls-2" d="M84.8,119.2v8.5l4.2-4.6h3l-4.4,4.7,4.8,6.7h-2.9l-3.6-4.9-1.2,1.3v3.6h-2.5v-15.4h2.5Z"/>
          <path class="cls-2" d="M95.7,123.2v1.5c.7-1.1,1.9-1.8,3.4-1.8,2.8,0,4.9,2.3,4.9,6s-2.1,6-4.9,6-2.7-.7-3.4-1.8v5.2h-2.5v-15.1h2.5ZM98.5,132.8c1.8,0,2.8-1.5,2.8-3.9s-1-3.9-2.8-3.9-2.9,1.3-2.9,3.9,1.3,3.9,2.9,3.9Z"/>
          <path class="cls-2" d="M108.1,134.6h-2.5v-15.4h2.5v15.4Z"/>
          <path class="cls-2" d="M110.1,138.3v-1.9h1c1.1,0,1.6,0,2.1-1.6v-.3c.1,0-4-11.3-4-11.3h2.8l2.6,8.2,2.6-8.2h2.6l-4,11.4c-1.1,2.9-1.8,3.7-4.4,3.7h-1.1Z"/>
          <path class="cls-2" d="M126.9,125.7c-.4,0-.8,0-1.2,0-1.6,0-2.5.6-2.5,2.9v6h-2.5v-11.4h2.5v2c.6-1.3,1.7-2,3.1-2.1.2,0,.5,0,.7,0v2.5Z"/>
        </g>
      </g>
    </g>
  </g>
</svg>