<svg width="300" height="80" viewBox="0 0 300 80" fill="none" xmlns="http://www.w3.org/2000/svg">
<g clip-path="url(#clip0_10008_22924)">
<path d="M30.5662 54.2745C30.48 53.797 30.428 53.3136 30.4176 52.8278C30.4072 52.3421 30.425 51.8549 30.4919 51.3729C30.5847 50.7521 30.7861 50.1532 31.0863 49.6045C31.3874 49.0611 31.7374 48.5472 32.1318 48.0695L32.3896 47.7477C32.397 47.7401 32.3956 47.7227 32.4082 47.6721C31.4593 47.6087 30.6323 46.9953 30.2831 46.0956C30.1471 45.7466 29.8425 45.495 29.4792 45.4308C29.3603 45.4021 29.2399 45.3817 29.118 45.3689L28.4865 45.319C28.1298 45.2888 27.8252 45.0471 27.7092 44.7041C27.6704 44.5837 27.6518 44.4576 27.6543 44.3309C27.6543 44.1307 27.6424 43.997 27.4046 43.9577C27.0821 43.9124 26.7745 43.7885 26.5078 43.5989C26.2509 43.4123 26.0534 43.1534 25.9393 42.8541C25.7976 42.5089 25.7332 42.1361 25.7506 41.7625V41.7519C25.7566 41.6144 25.7729 41.4785 25.7974 41.344L26.3398 38.836L26.75 36.7254C26.9221 36.0037 27.369 35.381 27.9923 34.994C28.3021 34.7807 28.5159 34.4511 28.5868 34.0776C28.6131 33.7921 28.7311 33.5232 28.9226 33.3126C29.1141 33.1019 29.3684 32.9612 29.6463 32.912C29.8522 32.8818 30.0624 32.8833 30.2675 32.9181L30.7832 33.0065C30.9823 33.0306 31.1829 33.0397 31.3835 33.0352C31.9811 33.0319 32.5629 32.8394 33.0479 32.4845L35.2919 30.8588C35.3885 30.7561 35.4427 30.6171 35.4405 30.4751L35.4346 28.8471C35.4435 28.545 35.494 28.2609 35.5832 27.9807C35.8507 27.189 36.5179 26.6058 37.3293 26.4547C37.9438 26.2863 38.5048 25.9577 38.964 25.5014C39.0048 25.4576 39.0368 25.4062 39.0591 25.3503C39.0814 25.3035 39.0873 25.2498 39.0739 25.1992C38.912 24.9137 38.8324 24.5949 38.8436 24.258C38.8533 24.0578 38.8934 23.8599 38.961 23.6718C39.0765 23.3749 39.2262 23.0929 39.4068 22.8318L39.6059 22.5424L40.0102 22.9617C40.4634 23.3507 40.7851 23.8727 40.9337 24.4559L43.1985 23.9604C43.7494 23.8311 44.3089 23.7435 44.8726 23.6982C46.5435 23.5795 48.2211 23.7946 49.8108 24.3313C50.2596 24.4808 50.6875 24.6863 51.0873 24.9431C51.4262 25.1488 51.745 25.3871 52.0391 25.6547C52.2546 25.8542 52.4552 26.0672 52.6439 26.2923L53.7095 27.5765L55.7751 30.1948C56.108 30.638 56.4342 31.0872 56.7537 31.5425L58.5518 34.3466C59.1135 35.316 59.6191 36.3178 60.0661 37.3471L61.5336 40.9066C61.6135 41.0998 61.7357 41.2719 61.891 41.4097C63.4123 42.6942 64.8308 44.0997 66.133 45.6129C66.8013 42.6114 66.859 39.5028 66.3027 36.4778C65.7463 33.4528 64.5877 30.5754 62.8978 28.0222C60.0459 23.7426 55.8522 20.5713 51.0004 19.0252C46.7534 17.6835 42.2096 17.6582 37.9484 18.9525C33.6872 20.2467 29.9017 22.802 27.0747 26.2923C26.6289 26.8463 26.2046 27.4229 25.8019 28.0222C24.136 30.5416 22.9846 33.3755 22.416 36.3557C21.8474 39.336 21.8731 42.4019 22.4917 45.3719C23.1124 48.3407 24.3131 51.1527 26.0225 53.6411C27.7319 56.1295 29.9152 58.2438 32.4431 59.8585C32.0322 59.0155 31.6704 58.149 31.3583 57.2629C31.0158 56.2903 30.7512 55.2911 30.567 54.2752L30.5662 54.2745Z" fill="#797979"/>
<path d="M31.6413 36.4944L31.625 36.5911C31.625 36.5911 32.047 39.1316 36.1857 37.5581C35.9064 37.3292 35.7592 36.9726 35.7942 36.6093C35.4381 36.9338 35.0149 37.173 34.5558 37.3091C34.0967 37.4452 33.6134 37.4748 33.1415 37.3957C32.8404 37.3713 32.5488 37.2774 32.2888 37.1211C32.0288 36.9648 31.8074 36.751 31.6413 36.4944ZM33.9173 36.4627C34.2145 36.1281 34.2739 35.628 34.0413 35.2374C33.9506 35.0767 33.8049 34.9555 33.6321 34.8969C33.4592 34.8382 33.2711 34.8463 33.1036 34.9194C32.8176 35.0206 32.5783 35.1853 32.6207 35.563L33.195 35.4875C33.1523 35.5623 33.1255 35.6453 33.1162 35.7313C33.107 35.8173 33.1155 35.9042 33.1414 35.9867C33.1672 36.0691 33.2097 36.145 33.2662 36.2097C33.3226 36.2744 33.3918 36.3264 33.4692 36.3622L33.114 36.4378C33.1625 36.4974 33.2229 36.5458 33.2912 36.5798C33.3595 36.6138 33.4341 36.6326 33.5101 36.6349C33.5861 36.6373 33.6617 36.6232 33.7319 36.5935C33.8022 36.5638 33.8653 36.5192 33.9173 36.4627ZM37.0707 32.9984C36.4361 33.3512 35.6886 33.4342 34.9947 33.2295C34.5525 33.1555 34.1015 33.154 33.6572 33.2046C34.0334 33.2432 34.3961 33.3681 34.7179 33.5701C35.0397 33.772 35.3122 34.0456 35.5148 34.3702L37.3724 32.8594L37.0633 32.9984H37.0707Z" fill="#797979"/>
<path d="M61.869 41.4171C61.7137 41.2793 61.5915 41.1072 61.5116 40.914L60.0441 37.3545C59.5971 36.3252 59.0915 35.3233 58.5298 34.3539L56.7317 31.5498C56.4131 31.0966 56.087 30.6474 55.7531 30.2022L53.6875 27.5839L52.6219 26.2997C52.434 26.0742 52.2319 25.8613 52.0171 25.6621C51.723 25.3945 51.4042 25.1562 51.0653 24.9505C50.6661 24.6942 50.2374 24.4889 49.7888 24.3394C48.1992 23.8025 46.5215 23.5872 44.8506 23.7056C44.2859 23.7509 43.7271 23.8385 43.1765 23.9677L40.9117 24.4633C40.7631 23.8802 40.4404 23.3582 39.9882 22.9691L39.5839 22.5498L39.3848 22.8384C39.2043 23.0996 39.0546 23.3816 38.939 23.6784C38.8707 23.8666 38.8309 24.0643 38.8209 24.2646C38.809 24.594 38.8952 24.9203 39.0438 25.2058C39.0586 25.2565 39.0534 25.3101 39.0289 25.3569C39.0067 25.4129 38.9745 25.4641 38.9338 25.508C38.4831 25.9648 37.9226 26.2935 37.308 26.4614C36.4907 26.6109 35.822 27.1941 35.5619 27.9873C35.4727 28.2668 35.4222 28.5591 35.4133 28.8538L35.4192 30.4817C35.4212 30.6245 35.3678 30.7623 35.2706 30.8654L33.0267 32.4911C32.5417 32.846 31.9599 33.0385 31.3623 33.0418C31.1617 33.0463 30.9611 33.0365 30.7619 33.0131C30.5895 32.9927 30.4186 32.9511 30.2463 32.9247C30.04 32.8898 29.8297 32.8878 29.6228 32.9187C29.3453 32.9683 29.0915 33.1092 28.9004 33.3198C28.7094 33.5304 28.5917 33.799 28.5655 34.0843C28.4946 34.4577 28.2808 34.7873 27.9711 35.0006C27.3477 35.3876 26.9009 36.0103 26.7287 36.732L26.3186 38.8426L25.7762 41.3506C25.7512 41.4856 25.7355 41.6221 25.7294 41.7593V41.7699C25.7119 42.1435 25.7764 42.5163 25.9181 42.8614C25.983 43.0247 26.0711 43.1775 26.1796 43.3147C26.269 43.4247 26.3713 43.5232 26.4843 43.6078C26.7523 43.7972 27.0602 43.9201 27.3833 43.9666C27.6211 44.0059 27.633 44.1404 27.633 44.3406C27.6305 44.4672 27.6491 44.5934 27.688 44.7137C27.8046 45.0567 28.1093 45.2977 28.4652 45.3286C28.6733 45.3619 28.8872 45.3513 29.0968 45.3785C29.2183 45.3913 29.3389 45.412 29.4579 45.4404C29.8294 45.5047 30.1266 45.7562 30.2619 46.1052C30.6111 47.0072 31.4507 47.6221 32.3944 47.6825C32.3825 47.7339 32.384 47.7581 32.3758 47.7581L32.118 48.0799C31.7237 48.5577 31.3737 49.0716 31.0725 49.6149C30.7722 50.1636 30.5709 50.7625 30.4781 51.3833C30.4108 51.8651 30.386 52.352 30.4038 52.8382C30.4227 53.3232 30.4723 53.8064 30.5524 54.2849C30.7354 55.3007 30.9988 56.2998 31.34 57.2725C31.6521 58.1583 32.0144 59.0249 32.4248 59.8681C33.1945 60.3602 33.993 60.804 34.8159 61.1969C35.0781 60.1091 35.4006 59.0372 35.7818 57.9864C36.0138 57.3748 36.3169 56.7935 36.6846 56.255C37.0014 55.7356 37.4559 55.3176 37.9958 55.049C38.5357 54.7804 39.1393 54.6721 39.737 54.7366C42.5695 54.9202 45.3335 55.6982 47.8554 57.0233C48.8376 57.515 49.7054 58.214 50.4007 59.0738C51.0961 59.9335 51.6031 60.9342 51.8878 62.009C52.8657 61.6562 53.8175 61.2347 54.7374 60.7459C54.7299 60.7308 54.724 60.7157 54.7188 60.6983C54.3896 59.0213 54.857 56.1855 56.8587 54.9768C58.0565 54.2501 59.359 53.6926 60.6185 53.083C60.9491 52.9221 61.3021 52.8088 61.6922 52.6562L60.8845 52.1901C59.5856 51.4218 58.3587 50.5343 57.2191 49.5386C56.4979 48.9375 55.9752 48.1261 55.7215 47.2137C55.4677 46.3013 55.4951 45.3318 55.7999 44.4357C55.8995 44.058 56.0451 43.6743 56.1774 43.2701L55.869 43.4968C56.3699 42.2517 56.6064 40.9131 56.563 39.5686C56.5556 39.0035 56.4679 38.4355 56.459 37.8704C56.4515 37.4058 56.508 36.9412 56.5385 36.4759L56.5949 35.6676C56.4776 35.7077 56.3536 35.7237 56.2301 35.7148C56.1066 35.7058 55.9861 35.6721 55.8755 35.6154C55.765 35.5588 55.6665 35.4804 55.586 35.3849C55.5054 35.2893 55.4443 35.1785 55.4061 35.0588C55.5426 35.9523 55.6334 36.8525 55.678 37.7556C55.6149 38.9209 55.266 40.0516 54.6631 41.0447C53.5537 43.038 51.855 44.6254 49.8081 45.5817C49.0703 45.9617 48.1883 45.9118 47.5047 45.4518L46.7356 44.9985C46.678 44.978 46.6251 44.9459 46.5799 44.9041C46.5348 44.8623 46.4985 44.8117 46.4731 44.7552C46.4477 44.6988 46.4337 44.6377 46.4321 44.5757C46.4305 44.5136 46.4413 44.4519 46.4637 44.3942C46.512 44.1374 46.7431 43.9591 46.9987 43.9817C47.0108 43.9807 47.023 43.9807 47.0351 43.9817C47.8123 44.1117 48.212 43.6191 48.4862 43.0095C48.5777 42.7294 48.5985 42.4303 48.5465 42.1399C48.4946 41.8495 48.3716 41.5771 48.189 41.3476C47.9438 41.4043 47.7016 41.476 47.4646 41.5644C47.3535 41.6291 47.2643 41.7266 47.209 41.8439C46.752 42.696 46.3359 43.5708 45.8433 44.3987C44.6693 46.3084 42.4156 47.2255 40.2705 46.665C38.7319 46.4704 37.1777 46.438 35.6325 46.5683C34.6385 46.7047 33.6378 46.7846 32.6351 46.8077C32.2085 46.7843 31.8007 46.6219 31.4718 46.3447C31.1429 46.0675 30.9104 45.6901 30.8087 45.2682C31.6209 44.7273 36.461 45.4888 36.461 45.4888C38.6057 45.8565 40.8075 45.376 42.6148 44.1457C38.3498 46.1513 33.2228 43.36 28.7944 44.5067C28.708 44.5244 28.6183 44.5081 28.5432 44.4614C28.4681 44.4146 28.4132 44.3407 28.3894 44.2544C28.3663 44.1681 28.3762 44.0761 28.417 43.9968C28.4577 43.9176 28.5265 43.8569 28.6094 43.8269C32.2056 42.8939 36.3948 44.6276 40.0743 44.1608C41.422 43.8879 42.7056 43.3548 43.8556 42.5903C44.0923 42.4458 44.2868 42.2398 44.4191 41.9935C44.5514 41.7472 44.6167 41.4695 44.6083 41.189C44.6345 40.6468 44.6208 40.1034 44.5675 39.5633C44.3737 38.7273 43.9027 37.9846 43.2337 37.46C42.5647 36.9354 41.7385 36.661 40.8939 36.6829C40.8939 36.6829 43.3801 38.2058 43.5792 39.5965C44.2628 42.3062 39.7028 42.9204 39.7028 42.9204C37.7054 43.2601 35.6563 43.0927 33.7378 42.4331C31.8757 42.1264 29.9706 42.2571 28.165 42.8146C28.165 42.8146 27.0468 43.2376 26.9063 42.2103C26.8068 41.4821 27.0386 39.7386 27.8321 37.3054L27.8202 37.2789H27.8403C27.8671 37.2034 27.8871 37.1278 27.9146 37.0523C28.1802 37.1322 28.455 37.1759 28.732 37.1822C29.5275 36.8887 30.18 36.2929 30.5524 35.5203L29.5656 36.2259L29.6399 36.0937C29.4573 36.3417 29.1884 36.5095 28.8883 36.5629C28.5881 36.6162 28.2791 36.5511 28.0246 36.3807C27.7036 36.1496 27.7125 35.8467 28.0655 35.5845C28.1398 35.5226 28.2319 35.4689 28.3181 35.4108C28.3181 35.4372 28.3017 35.4621 28.3107 35.4863C28.5093 35.522 28.7132 35.5118 28.9074 35.4565C29.1017 35.4012 29.2812 35.3022 29.4326 35.1668C29.5649 34.9855 29.5946 34.3313 29.2692 34.2943C29.3791 33.671 29.6704 33.418 30.3793 33.4135C30.8503 33.4135 31.3229 33.4512 31.791 33.4286C32.5276 33.4026 33.2384 33.1468 33.8269 32.6958L38.7532 28.8991C38.7718 28.884 38.7755 28.856 38.7904 28.8235C38.4352 28.8069 38.0845 28.8115 37.7368 28.7676C37.524 28.7617 37.3163 28.7006 37.1333 28.5901C36.9503 28.4795 36.7982 28.3233 36.6913 28.1361C36.4357 27.6406 36.6341 27.2749 37.1483 27.1027C37.6268 26.9743 38.0771 26.7567 38.4798 26.4629C40.7408 24.5743 43.3987 24.2533 46.1717 24.4142C46.9519 24.4716 47.7276 24.5879 48.4914 24.7632C47.8235 24.8894 47.2092 25.2189 46.7297 25.7082C46.5685 25.925 46.4429 26.1667 46.3582 26.4243C46.3255 26.6102 46.5068 26.8353 46.5937 27.0415C46.7423 26.9206 46.9021 26.8149 47.0485 26.6804C47.0802 26.6411 47.1019 26.5944 47.1116 26.5444C47.3226 25.8759 47.8665 25.5624 48.4446 25.1741C48.4794 25.4 48.5256 25.6239 48.5828 25.8449C48.622 25.9527 48.6202 26.0715 48.5778 26.178C48.5353 26.2845 48.4552 26.371 48.3532 26.4206C48.2376 26.4732 48.1149 26.5078 47.9891 26.5233C47.954 26.3875 47.9317 26.2486 47.9223 26.1086C47.9406 25.9933 47.9733 25.8808 48.0196 25.7739C47.4831 26.1894 47.1057 26.7801 46.9496 27.4472L47.2335 27.5507L47.0254 28.2419L47.5552 27.976L48.4379 27.6602C48.624 27.599 48.7849 27.4769 48.8954 27.3129C49.0059 27.1488 49.0598 26.9522 49.0487 26.7537C49.0303 26.0649 48.8629 25.3886 48.5583 24.773C48.6534 24.7934 48.7515 24.8077 48.8466 24.8304C49.7709 25.0601 50.6061 25.5669 51.2436 26.2853C51.7913 26.8188 52.2918 27.4002 52.7393 28.0228C53.6904 29.4717 55.0026 30.6139 55.9344 32.0756C57.6607 34.6846 59.1091 37.4729 60.2551 40.3935C60.3019 40.5219 60.3421 40.6503 60.3911 40.7916L59.3509 41.1217C61.5324 42.0335 63.0437 43.7899 64.6264 45.4321C65.0356 45.8615 65.429 46.3063 65.8056 46.7654C65.9123 46.3881 66.0085 46.0077 66.0939 45.6248C64.7904 44.1104 63.3705 42.7039 61.8474 41.4186L61.869 41.4171ZM42.0256 50.7404C44.5645 51.0313 47.0529 50.918 49.2203 49.3052C50.112 48.6427 50.9293 47.8835 51.7816 47.1749C51.9074 47.0587 52.0561 46.9712 52.2177 46.918C53.2855 46.6869 54.2239 46.0599 54.8704 45.1602C54.9202 45.1164 54.9729 45.0846 55.0286 45.0423C54.9662 45.3233 54.8709 45.5957 54.7448 45.8537C54.5503 46.176 54.4474 46.5467 54.4476 46.9248C54.4466 49.0146 53.9612 51.0746 53.0306 52.938C53.0187 52.9606 53.0061 52.9833 52.9964 53.0135C52.3084 54.7056 50.9709 55.2979 49.2813 55.2797C48.028 55.2277 46.7859 55.0184 45.5832 54.6565L38.7919 52.8178C38.002 52.4817 37.9337 52.3102 38.2866 51.5336L39.4212 49.0883C39.9131 50.3182 40.9444 50.6196 42.0256 50.7404ZM32.7183 48.8821C33.7734 47.5783 33.7586 47.5035 35.3932 47.4567C36.562 47.4234 37.7375 47.57 38.9895 47.6425C38.884 47.8918 38.8313 48.0202 38.7666 48.1607L36.9833 52.0337C36.9705 52.0834 36.9475 52.1298 36.9157 52.1698C36.884 52.2098 36.8442 52.2425 36.7991 52.2656C36.7077 52.3125 36.6014 52.3185 36.5063 52.2807C35.7113 52.1206 34.8843 52.2452 34.168 52.6335C34.3302 52.6365 34.4915 52.6586 34.6487 52.6992C34.9858 52.7978 35.3041 52.9536 35.5901 53.16C35.8063 53.3422 35.954 53.5947 36.0081 53.8749C36.0623 54.155 36.0196 54.4455 35.8874 54.6973C35.1889 56.5526 34.6242 58.4631 34.0119 60.3531L33.9473 60.5616L33.8299 60.6009C33.4287 59.7118 33.0036 58.8302 32.6321 57.9267C31.9822 56.4131 31.5594 54.8088 31.3779 53.1676C31.2996 52.3997 31.3775 51.6237 31.6069 50.8877C31.8362 50.1518 32.212 49.4717 32.7109 48.8897L32.7183 48.8821ZM41.3375 30.7166C41.5953 30.4658 41.8859 30.2513 42.1994 30.079C42.2017 30.4945 42.5219 30.8345 42.9298 30.8549C43.9077 30.87 43.8958 29.7036 43.8958 29.7036C44.0752 29.6571 44.2577 29.6241 44.4419 29.6046C42.3963 28.6098 41.336 30.7166 41.336 30.7166H41.3375Z" fill="#797979"/>
<path d="M96.2474 39.8058H91.706C91.4856 39.1481 91.0555 38.5841 90.484 38.2031C89.9125 37.8222 89.2322 37.646 88.5511 37.7027C86.0768 37.7027 84.5855 39.6668 84.5855 42.5623C84.5855 45.2863 86.0775 47.4574 88.6871 47.4574C90.136 47.508 91.4467 46.5826 91.9059 45.1911H96.5513C95.6359 48.5678 93.1601 51.4286 88.6195 51.4286C87.4634 51.4681 86.3118 51.2645 85.2367 50.8306C84.1616 50.3967 83.1861 49.7419 82.3715 48.907C81.5568 48.0722 80.9204 47.0753 80.5022 45.9789C80.0839 44.8825 79.8928 43.7101 79.9408 42.5351C79.9408 37.711 83.2288 33.7821 88.5845 33.7821C90.3578 33.7012 92.1018 34.2632 93.5054 35.368C94.909 36.4727 95.881 38.0484 96.2482 39.8141L96.2474 39.8058Z" fill="#797979"/>
<path d="M110.449 38.3242C109.733 38.1867 109.007 38.1172 108.279 38.1157C105.567 38.1157 104.212 39.841 104.212 42.8038V50.8339H99.6367V34.3273H104.11V36.8753H104.212C104.665 35.9856 105.345 35.2354 106.179 34.7024C107.014 34.1694 107.974 33.8729 108.959 33.8438C109.458 33.8282 109.957 33.8739 110.445 33.9798L110.449 38.3242Z" fill="#797979"/>
<path d="M128.037 50.8345H123.495V48.7647H123.393C122.896 49.5847 122.197 50.2582 121.364 50.7179C120.532 51.1777 119.595 51.4077 118.648 51.3852C116.003 51.3852 112.75 49.7309 112.75 44.1136V34.3271H117.325V43.5281C117.325 45.9402 118.445 47.2508 120.208 47.2508C122.207 47.2508 123.462 45.8382 123.462 43.0809V34.3271H128.039L128.037 50.8345Z" fill="#797979"/>
<path d="M132.234 34.3158H136.742V36.3811H136.878C137.916 34.7116 139.749 33.7265 141.69 33.7975C145.352 33.7975 147.895 36.2776 147.895 41.3457V50.8231H143.319V41.666C143.319 39.1837 142.167 37.9115 140.269 37.9115C138.27 37.9115 136.81 39.3582 136.81 42.1147V50.8345H132.235L132.234 34.3158Z" fill="#797979"/>
<path d="M167.144 39.8048H162.602C162.147 38.4526 160.849 37.5876 159.448 37.7024C156.974 37.7024 155.482 39.6665 155.482 42.562C155.482 45.2861 156.975 47.4571 159.584 47.4571C160.29 47.4819 160.986 47.2739 161.566 46.8642C162.147 46.4544 162.581 45.8648 162.805 45.1833H167.449C166.534 48.56 164.058 51.4208 159.516 51.4208C158.36 51.46 157.208 51.2562 156.134 50.8221C155.059 50.3881 154.084 49.7332 153.269 48.8983C152.455 48.0635 151.819 47.0668 151.4 45.9705C150.982 44.8743 150.791 43.7021 150.839 42.5273C150.839 37.7032 154.127 33.7743 159.483 33.7743C163.144 33.6081 166.386 36.1614 167.144 39.8055L167.144 39.8048Z" fill="#797979"/>
<path d="M170.527 26.0186H175.106V36.3904H175.24C176.269 34.7285 178.088 33.7442 180.02 33.8069C183.646 33.8069 186.187 36.2544 186.187 41.355V50.8325H181.613V41.6308C181.613 39.1832 180.46 37.9103 178.562 37.9103C176.562 37.9103 175.106 39.3214 175.106 42.1135V50.8332H170.527V26.0186Z" fill="#797979"/>
<path d="M194.896 58.9318H190.557L193.54 50.6978L187.641 34.3279H192.389L194.729 41.4968C195.17 42.8286 195.532 44.1861 195.814 45.561H195.95C196.22 44.1857 196.571 42.8283 197.001 41.4961L199.272 34.3271H203.781L194.896 58.9318Z" fill="#797979"/>
<path d="M225.349 50.8337H222.674V48.6279H222.6C221.858 49.5253 220.928 50.2422 219.878 50.7259C218.827 51.2096 217.684 51.4478 216.531 51.4229C212.123 51.4229 208.328 47.9419 208.328 42.5649C208.328 37.5671 211.82 33.7771 216.531 33.7771C218.899 33.6736 221.166 34.7546 222.6 36.6719H222.674V26.0205H225.349V50.8337ZM217.009 49.0056C217.809 48.9948 218.6 48.8208 219.333 48.4938C220.066 48.1668 220.727 47.6935 221.277 47.1019C222.387 45.9061 222.977 44.3069 222.909 42.6639C222.909 38.7357 220.33 36.1522 217.077 36.1522C213.112 36.1522 211.112 39.3566 211.112 42.5611C211.113 45.7339 213.113 49.0056 217.009 49.0056ZM245.919 50.8337H243.244V48.6279H243.17C242.446 49.5115 241.539 50.2207 240.513 50.7041C239.487 51.1875 238.368 51.433 237.237 51.4229C232.831 51.4229 228.898 47.9419 228.898 42.5649C228.855 41.4111 229.046 40.2607 229.457 39.1843C229.868 38.108 230.49 37.1283 231.287 36.3054C232.084 35.4826 233.037 34.8338 234.089 34.3991C235.141 33.9643 236.27 33.7527 237.405 33.7771C238.528 33.777 239.636 34.0416 240.642 34.55C241.647 35.0584 242.523 35.7969 243.201 36.7074H243.236V34.3301H245.911L245.919 50.8337ZM237.616 49.0056C238.411 48.9822 239.193 48.7995 239.919 48.4679C240.644 48.1363 241.298 47.6623 241.843 47.0732C242.387 46.484 242.812 45.7913 243.093 45.0348C243.374 44.2782 243.505 43.4728 243.479 42.6646C243.479 38.7364 240.869 36.1529 237.683 36.1529C233.616 36.1529 231.684 39.3906 231.684 42.5619C231.684 45.7331 233.616 49.0056 237.616 49.0056ZM248.829 34.3263H250.966V29.0512H253.641V34.3256H257.981V36.5918H253.641V45.3093C253.641 47.9986 254.459 48.7223 256.184 48.7223C256.848 48.7201 257.509 48.6271 258.148 48.4458V50.6864C257.336 50.9357 256.49 51.0519 255.642 51.0308C251.709 51.0308 250.961 48.3416 250.961 45.2141V36.5979H248.829L248.829 34.3263ZM276.998 50.8337H274.319V48.6279H274.245C273.522 49.5119 272.614 50.2214 271.588 50.7048C270.562 51.1882 269.443 51.4335 268.312 51.4229C263.906 51.4229 259.973 47.9419 259.973 42.5649C259.887 40.2322 260.751 37.9667 262.362 36.2949C263.159 35.4718 264.113 34.8228 265.165 34.3876C266.217 33.9525 267.346 33.7404 268.482 33.7643C269.605 33.7642 270.713 34.0287 271.718 34.5371C272.724 35.0456 273.6 35.784 274.278 36.6945H274.31V34.324H276.989L276.998 50.8337ZM268.693 49.0056C269.488 48.9822 270.271 48.7995 270.996 48.4679C271.721 48.1363 272.375 47.6623 272.92 47.0732C273.465 46.484 273.89 45.7913 274.17 45.0348C274.451 44.2782 274.582 43.4728 274.556 42.6646C274.556 38.7364 271.946 36.1529 268.76 36.1529C264.693 36.1529 262.761 39.3906 262.761 42.5619C262.761 45.7331 264.693 49.0056 268.692 49.0056H268.693Z" fill="#797979"/>
</g>
<defs>
<clipPath id="clip0_10008_22924">
<rect width="255" height="44" fill="white" transform="translate(22 18)"/>
</clipPath>
</defs>
</svg>
