<svg width="300" height="80" viewBox="0 0 300 80" fill="none" xmlns="http://www.w3.org/2000/svg">
<path d="M37.811 52.2624C36.945 52.2643 36.0939 52.0362 35.3449 51.6016C34.5958 51.1669 33.9755 50.5412 33.5475 49.7883C33.1259 49.0408 32.9157 48.1927 32.9393 47.3348C32.9629 46.4769 33.2194 45.6416 33.6814 44.9184L42.4615 31.1307C42.9108 30.3897 43.5489 29.7812 44.3103 29.3675C45.0718 28.9537 45.9295 28.7495 46.7957 28.7757C47.6613 28.7964 48.5058 29.0468 49.2428 29.5011C49.9799 29.9554 50.583 30.5974 50.9904 31.3613C51.8089 32.909 51.7066 34.771 50.7263 36.2239L41.9518 50.0115C41.5068 50.7049 40.894 51.2748 40.1702 51.6682C39.4463 52.0617 38.6349 52.266 37.811 52.2624Z" fill="#797979"/>
<path d="M52.8724 52.2618C51.1015 52.2618 49.472 51.3149 48.6163 49.7933C48.1958 49.0478 47.986 48.2019 48.0096 47.3463C48.0332 46.4906 48.2892 45.6575 48.7503 44.9364L57.5136 31.1803C57.9564 30.4289 58.5921 29.8096 59.3549 29.3866C60.1176 28.9637 60.9797 28.7526 61.8516 28.7751C63.6373 28.8141 65.2557 29.813 66.0742 31.3756C66.8871 32.9382 66.768 34.8114 65.7579 36.2605L56.9965 50.0165C56.5529 50.707 55.9426 51.2745 55.2218 51.6669C54.5011 52.0593 53.6931 52.2639 52.8724 52.2618Z" fill="#797979"/>
<path d="M67.5945 52.3781C70.0909 52.3781 72.1147 50.3968 72.1147 47.9527C72.1147 45.5087 70.0909 43.5273 67.5945 43.5273C65.098 43.5273 63.0742 45.5087 63.0742 47.9527C63.0742 50.3968 65.098 52.3781 67.5945 52.3781Z" fill="#797979"/>
<path d="M263.964 43.7836C265.33 43.7836 266.146 44.7546 266.146 46.3451V51.7954H268.001V46.2205C268.001 43.5158 266.727 41.9476 264.331 41.9476C263.393 41.9476 261.905 42.2043 261.018 43.9287C260.812 43.4201 260.472 42.9768 260.034 42.646C259.596 42.3152 259.076 42.1092 258.531 42.0499C258.187 41.987 257.838 41.9664 257.489 41.9885C256.726 42.0499 255.369 42.5243 254.861 43.5995V42.1541H253.004V51.7954H254.861V46.5925C254.861 44.5686 256.185 43.7836 257.511 43.7836C258.754 43.7836 259.571 44.7342 259.571 46.3246V51.7954H261.416V46.5925C261.416 44.9816 262.383 43.765 263.964 43.7836ZM246.19 50.1845C247.039 50.2031 247.857 49.8646 248.45 49.2507C249.046 48.6369 249.362 47.8016 249.33 46.9441C249.33 45.002 247.902 43.7836 246.19 43.7836C244.477 43.7836 243.05 45.002 243.05 46.9441C243.017 47.7998 243.333 48.6331 243.925 49.2451C244.516 49.859 245.331 50.1994 246.175 50.1845H246.19ZM246.19 51.9926C243.478 51.9926 241.214 49.9892 241.214 46.9329C241.214 43.8766 243.478 41.9365 246.19 41.9365C248.903 41.9365 251.185 43.8766 251.185 46.9329C251.185 49.9892 248.889 52.0019 246.177 52.0019L246.19 51.9926ZM231.662 46.9329L231.644 46.9441C231.644 43.8878 233.967 41.9476 236.698 41.9365C237.384 41.9232 238.065 42.0541 238.697 42.3207C239.329 42.5873 239.899 42.9837 240.368 43.4841L238.962 44.6821C238.663 44.3888 238.309 44.1576 237.921 44.0017C237.532 43.8459 237.116 43.7686 236.698 43.7743C234.986 43.7743 233.498 44.9927 233.498 46.9329C233.498 48.2444 234.278 49.4256 235.474 49.9278C236.67 50.4301 238.046 50.151 238.962 49.2247L240.388 50.4226C239.918 50.9283 239.346 51.3293 238.71 51.5998C238.074 51.8702 237.389 52.0041 236.698 51.9926C233.988 51.9926 231.662 49.9892 231.662 46.9329ZM225.723 49.9446C225.721 49.776 225.752 49.6087 225.815 49.4522C225.877 49.2958 225.97 49.1532 226.088 49.0326C226.206 48.912 226.346 48.8158 226.501 48.7495C226.656 48.6832 226.823 48.6481 226.991 48.6462C227.16 48.6481 227.326 48.6832 227.481 48.7495C227.636 48.8158 227.777 48.912 227.895 49.0326C228.012 49.1532 228.105 49.2958 228.168 49.4522C228.231 49.6087 228.262 49.776 228.26 49.9446C228.243 50.271 228.103 50.5788 227.867 50.8053C227.631 51.0317 227.318 51.1596 226.991 51.163C226.665 51.1596 226.351 51.0317 226.116 50.8053C225.88 50.5788 225.739 50.271 225.723 49.9446Z" fill="#797979"/>
<path fill-rule="evenodd" clip-rule="evenodd" d="M230.798 29.8976H224.192L219.562 41.8344L214.956 29.8976H208.351L216.381 48.7599L211.387 61.2306H217.944L230.798 29.8976ZM190.625 40.389C190.625 43.4025 193.259 45.3855 195.847 45.3855C198.39 45.3855 200.888 43.5402 200.888 40.3872C200.888 37.2342 198.39 35.387 195.847 35.387C193.259 35.387 190.625 37.3737 190.625 40.389ZM200.888 50.9214V48.5348C199.549 50.5624 196.423 51.3288 194.82 51.3288C189.511 51.3288 184.2 47.1434 184.2 40.3872C184.2 33.6328 189.509 29.4474 194.82 29.4474C196.157 29.4474 199.283 29.8939 200.888 32.2377V29.905H207.045V50.9251L200.888 50.9214ZM182.448 50.9214H176.291V48.3097C175.262 50.2443 172.767 51.3716 170.178 51.3716C164.823 51.3716 160.092 47.095 160.092 40.4727C160.092 33.7259 164.823 29.4437 170.178 29.4437C172.764 29.4437 175.266 30.5226 176.291 32.4591V18.4463H182.448V50.9214ZM176.157 40.3407C176.157 37.1895 173.882 35.3424 171.339 35.3424C168.705 35.3424 166.517 37.3235 166.517 40.3407C166.517 43.4546 168.705 45.4264 171.337 45.4264C173.928 45.4301 176.157 43.3579 176.157 40.3407ZM144.868 39.7975C144.868 36.6017 146.52 35.5209 148.706 35.5209C150.802 35.5209 152.32 36.9161 152.32 39.7063V50.9177H158.522V38.3577C158.522 32.3716 155.576 29.4437 150.89 29.4437C148.436 29.4437 145.983 30.8388 144.866 32.9557V29.8976H138.668V50.9177H144.868V39.7975ZM126.075 51.2786C120.186 51.2786 115.273 46.9573 115.273 40.3388C115.273 33.7166 120.18 29.4381 126.075 29.4381C131.97 29.4381 136.92 33.7166 136.92 40.3388C136.92 46.9611 131.964 51.2786 126.075 51.2786ZM126.075 45.1586C128.661 45.1586 130.805 43.2649 130.805 40.3407C130.805 37.5039 128.662 35.5674 126.075 35.5674C125.452 35.5577 124.833 35.6749 124.257 35.9118C123.681 36.1488 123.159 36.5006 122.723 36.9458C122.284 37.3934 121.94 37.9246 121.711 38.5078C121.482 39.091 121.373 39.7143 121.389 40.3407C121.391 43.2686 123.532 45.1586 126.075 45.1586ZM104.154 35.5228C105.983 35.5228 107.59 36.9644 107.59 39.7082V50.9214H113.747V38.9827C113.747 32.6358 110.661 29.44 105.715 29.44C104.246 29.44 101.478 29.8864 99.4687 33.1752C98.3079 30.744 96.0775 29.4828 92.7813 29.4828C91.6369 29.4769 90.515 29.8008 89.5497 30.4157C88.5845 31.0306 87.8168 31.9105 87.3384 32.9502V29.8995H81.1328V50.9195H87.3328V39.7975C87.3328 36.6017 89.0739 35.5209 90.9472 35.5209C92.7329 35.5209 94.3364 36.9161 94.3829 39.5724V50.9195H100.585V39.7975C100.585 36.7412 102.192 35.5228 104.154 35.5228Z" fill="#797979"/>
</svg>
