<svg width="300" height="80" viewBox="0 0 300 80" fill="none" xmlns="http://www.w3.org/2000/svg">
<g clip-path="url(#clip0_10008_22917)">
<path d="M161.424 18.1816H152.469V26.52H161.424V18.1816Z" fill="#797979"/>
<path d="M176.977 18.1816L177.008 62.8153H185.999V18.1816H176.977Z" fill="#797979"/>
<path d="M164.721 62.8153H173.714V18.1816H164.691L164.721 62.8153Z" fill="#797979"/>
<path d="M146.19 42.2583C148.36 39.6309 149.445 36.5575 149.445 33.0381C149.445 28.6066 148.07 25.0247 145.322 22.2862C142.572 19.5498 138.878 18.1816 134.238 18.1816H114L118.65 27.4342H132.755C134.903 27.4342 136.545 27.9891 137.685 29.095C138.822 30.2028 139.393 31.6477 139.393 33.4276C139.393 35.2075 138.77 36.5878 137.525 37.6957C136.278 38.8035 134.581 39.3565 132.434 39.3565H117.087V47.6323V62.8135H125.409V47.6323L138.425 62.8135H151.441L137.393 47.3054C141.087 46.5668 144.019 44.8838 146.188 42.2563L146.19 42.2583Z" fill="#797979"/>
<path d="M161.424 29.8232H152.469V62.8156H161.424V29.8232Z" fill="#797979"/>
</g>
<defs>
<clipPath id="clip0_10008_22917">
<rect width="72" height="45" fill="white" transform="translate(114 18)"/>
</clipPath>
</defs>
</svg>
