<svg xmlns="http://www.w3.org/2000/svg" width="370" height="370" fill="none" viewBox="0 0 370 370"><g clip-path="url(#clip0_12801_26964)"><rect width="369.93" height="369.93" fill="#fff"/><rect width="369.93" height="369.93" fill="url(#paint0_linear_12801_26964)"/><path stroke="#CBCBCB" stroke-linecap="round" stroke-width="2.95" d="M155.161 251.341C155.161 242.613 155.161 47.1043 155.161 -8.25919"/><path stroke="#CBCBCB" stroke-linecap="round" stroke-width="2.95" d="M272.181 369.671C272.181 363.853 272.181 288.58 272.181 251.671"/><path stroke="#CBCBCB" stroke-linecap="round" stroke-width="2.95" d="M155.161 369.671C155.161 366.762 155.161 329.125 155.161 310.671"/><path stroke="#CBCBCB" stroke-linecap="round" stroke-width="2.95" d="M37.8809 369.67C37.8809 366.761 37.8809 329.124 37.8809 310.67"/><path stroke="#CBCBCB" stroke-linecap="round" stroke-width="2.95" d="M37.8809 59.001C37.8809 56.0918 37.8809 18.4555 37.8809 0.000973709"/><path stroke="#CBCBCB" stroke-linecap="round" stroke-width="2.95" d="M270.877 192.931C270.877 183.418 270.877 60.3469 270.877 0.000657752"/><path stroke="#B3B3B3" stroke-linecap="round" stroke-width="2.95" d="M270.877 192.671C288.258 192.671 513.113 192.671 623.368 192.671"/><path stroke="#B3B3B3" stroke-linecap="round" stroke-width="2.95" d="M38.0552 59C61.2187 59 360.062 59 507 59"/><path stroke="#B3B3B3" stroke-linecap="round" stroke-width="2.95" d="M155.17 251.08C160.985 251.08 235.553 251.08 272.441 251.08"/><path stroke="#B3B3B3" stroke-linecap="round" stroke-width="2.95" d="M37.7598 310.08C43.5747 310.08 117.621 310.08 154.509 310.08"/></g><defs><linearGradient id="paint0_linear_12801_26964" x1="184.965" x2="184.965" y1="0" y2="369.93" gradientUnits="userSpaceOnUse"><stop stop-color="#CFCFCF"/><stop offset="1" stop-color="#CFCFCF" stop-opacity=".2"/></linearGradient><clipPath id="clip0_12801_26964"><rect width="369.93" height="369.93" fill="#fff"/></clipPath></defs></svg>