<svg width="470" height="470" viewBox="0 0 470 470" fill="none" xmlns="http://www.w3.org/2000/svg">
<g clip-path="url(#clip0_7236_7672)">
<rect width="470" height="470" fill="#FFF100"/>
<path d="M152.75 134.358L67.3091 134.359C58.0386 134.359 50.5234 141.874 50.5234 151.144L50.5234 308.857C50.5235 318.127 43.0082 325.643 33.7377 325.643L-114.143 325.643C-123.413 325.643 -130.929 318.127 -130.929 308.857L-130.929 -68.8216C-130.929 -78.0921 -123.413 -85.6073 -114.143 -85.6073L152.75 -85.6073C162.02 -85.6073 169.536 -78.0921 169.536 -68.8216L169.536 117.573C169.536 126.843 162.021 134.358 152.75 134.358Z" fill="#EDDD0C"/>
<path d="M498.536 -105.75L286.946 -105.75C277.675 -105.75 270.16 -98.2347 270.16 -88.9643L270.16 64.241C270.16 73.5115 277.675 81.0267 286.946 81.0267L339.705 81.0267C348.975 81.0267 356.49 88.5419 356.49 97.8124L356.49 251.018C356.49 260.288 348.975 267.803 339.705 267.803L219.893 267.803C210.622 267.803 203.107 275.318 203.107 284.589L203.107 532.107C203.107 541.378 210.622 548.893 219.893 548.893L498.536 548.893C507.806 548.893 515.321 541.378 515.321 532.107L515.322 -88.9642C515.322 -98.2347 507.806 -105.75 498.536 -105.75Z" fill="#EDDD0C"/>
<rect x="95.6786" y="75.5361" width="244.232" height="230.804" rx="16.7857" transform="rotate(-180 95.6786 75.5361)" fill="#FFF100"/>
<path d="M522.036 554.768C522.036 564.038 514.52 571.554 505.25 571.554L316.411 571.554C307.14 571.554 299.625 564.038 299.625 554.768L299.625 319.768C299.625 310.497 307.14 302.982 316.411 302.982L505.25 302.982C514.52 302.982 522.036 310.497 522.036 319.768L522.036 554.768Z" fill="#FFF100"/>
<rect x="618.554" y="123.375" width="222.411" height="268.571" rx="16.7857" transform="rotate(-180 618.554 123.375)" fill="#FFF100"/>
</g>
<defs>
<clipPath id="clip0_7236_7672">
<rect width="470" height="470" fill="white"/>
</clipPath>
</defs>
</svg>
