<svg width="470" height="470" viewBox="0 0 470 470" fill="none" xmlns="http://www.w3.org/2000/svg">
<g clip-path="url(#clip0_7236_7640)">
<rect width="470" height="470" fill="#FFF100"/>
<path d="M58.7496 301.303L58.7497 141C58.7497 131.729 66.2649 124.214 75.5354 124.214L193.875 124.214C203.145 124.214 210.66 116.699 210.66 107.428L210.66 67.562C210.66 58.2915 218.176 50.7763 227.446 50.7763L351.66 50.7763C360.931 50.7763 368.446 43.2611 368.446 33.9906L368.446 -24.3398C368.446 -33.6103 360.931 -41.1255 351.66 -41.1255L-58.75 -41.1255C-68.0205 -41.1255 -75.5357 -33.6103 -75.5357 -24.3398L-75.5357 301.303C-75.5357 310.574 -68.0205 318.089 -58.75 318.089L41.9639 318.089C51.2344 318.089 58.7496 310.574 58.7496 301.303Z" fill="#EDDD0C"/>
<path d="M102.393 372.223L102.393 476.714C102.393 485.985 109.908 493.5 119.179 493.5L519.098 493.5C528.368 493.5 535.884 485.985 535.884 476.714L535.884 91.482C535.884 82.2115 528.368 74.6963 519.098 74.6963L396.563 74.6963C387.292 74.6963 379.777 82.2115 379.777 91.482L379.777 338.652C379.777 347.922 372.262 355.437 362.991 355.437L119.179 355.437C109.908 355.437 102.393 362.953 102.393 372.223Z" fill="#EDDD0C"/>
<path d="M583.304 110.785L583.304 336.554C583.304 345.824 575.789 353.339 566.518 353.339L448.179 353.339C438.908 353.339 431.393 360.855 431.393 370.125L431.393 409.991C431.393 419.262 423.878 426.777 414.608 426.777L290.393 426.777C281.123 426.777 273.608 434.292 273.608 443.563L273.608 501.893C273.607 511.163 281.123 518.679 290.393 518.679L700.804 518.679C710.074 518.679 717.589 511.163 717.589 501.893L717.589 110.785C717.589 101.515 710.074 93.9998 700.804 93.9998L600.09 93.9997C590.819 93.9997 583.304 101.515 583.304 110.785Z" fill="#FFF100"/>
</g>
<defs>
<clipPath id="clip0_7236_7640">
<rect width="470" height="470" fill="white"/>
</clipPath>
</defs>
</svg>
