<?xml version="1.0" encoding="UTF-8" standalone="no"?>
<!DOCTYPE svg PUBLIC "-//W3C//DTD SVG 1.1//EN" "http://www.w3.org/Graphics/SVG/1.1/DTD/svg11.dtd">
<svg width="100%" height="100%" viewBox="0 0 2357 1784" version="1.1" xmlns="http://www.w3.org/2000/svg" xmlns:xlink="http://www.w3.org/1999/xlink" xml:space="preserve" xmlns:serif="http://www.serif.com/" style="fill-rule:evenodd;clip-rule:evenodd;stroke-linejoin:round;stroke-miterlimit:1.5;">
    <g transform="matrix(1,0,0,1,-1127.05,-175.015)">
        <g transform="matrix(1,0,0,1,1067,-71.0883)">
            <path d="M435,572.22L738,800.943L742,328.502L435,336L435,572.22Z" style="fill:rgb(198,198,198);stroke:black;stroke-opacity:0.75;stroke-width:4.17px;"/>
        </g>
        <g transform="matrix(1,0,0,1,1067,285.912)">
            <path d="M435,572.22L718.827,668.919L735,574.431L435,336L435,572.22Z" style="fill:rgb(198,198,198);stroke:black;stroke-opacity:0.75;stroke-width:4.17px;"/>
        </g>
        <g transform="matrix(1,0,0,1,1067,642.912)">
            <path d="M435,572.22L736.827,689.872L718.827,311.919L435,336L435,572.22Z" style="fill:rgb(198,198,198);stroke:black;stroke-opacity:0.75;stroke-width:4.17px;"/>
        </g>
        <g transform="matrix(1,0,0,1,1067,1002.46)">
            <path d="M435,572.22L718.827,648.787L736.827,459.811L435,336L435,572.22Z" style="fill:rgb(198,198,198);stroke:black;stroke-opacity:0.75;stroke-width:4.17px;"/>
        </g>
        <g transform="matrix(1,0,0,1,1067,1356.33)">
            <path d="M435,572.22L736.827,578.38L718.827,294.916L435,336L435,572.22Z" style="fill:rgb(198,198,198);stroke:black;stroke-opacity:0.75;stroke-width:4.17px;"/>
        </g>
        <g id="RowPage" transform="matrix(1,0,0,1,604.724,-1514.24)">
            <g id="RowBlockBackground" transform="matrix(1.4146,0,0,10.1237,-2901.47,952.306)">
                <path d="M3397,75.8C3397,74.255 3388.02,73 3376.96,73L2896.04,73C2884.98,73 2876,74.255 2876,75.8L2876,126.2C2876,127.745 2884.98,129 2896.04,129L3376.96,129C3388.02,129 3397,127.745 3397,126.2L3397,75.8Z" style="fill:none;stroke:black;stroke-width:0.58px;stroke-linecap:round;"/>
            </g>
            <g id="Rows">
                <g transform="matrix(1.99623,0,0,0.275476,-56.5598,2027.02)">
                    <g id="Row-4" serif:id="Row 4">
                        <path id="Column2" d="M975,445L620,445L620,702.25C620,724.992 621.247,746.803 623.466,762.884C625.685,778.966 628.695,788 631.833,788C685.898,788 909.102,788 963.167,788C966.305,788 969.315,778.966 971.534,762.884C973.753,746.803 975,724.992 975,702.25L975,445Z" style="fill:rgb(221,132,82);stroke:black;stroke-width:2.92px;stroke-linecap:round;"/>
                    </g>
                </g>
                <g transform="matrix(1.99623,0,0,0.275476,-56.5598,1932.53)">
                    <g id="Row-3" serif:id="Row 3">
                        <rect id="Column21" serif:id="Column2" x="620" y="445" width="355" height="343" style="fill:rgb(221,132,82);stroke:black;stroke-width:2.92px;stroke-linecap:round;"/>
                    </g>
                </g>
                <g transform="matrix(1.99623,0,0,0.275476,-56.5598,1838.04)">
                    <g id="Row-2" serif:id="Row 2">
                        <rect id="Column22" serif:id="Column2" x="620" y="445" width="355" height="343" style="fill:rgb(221,132,82);stroke:black;stroke-width:2.92px;stroke-linecap:round;"/>
                    </g>
                </g>
                <g transform="matrix(1.99623,0,0,0.275476,-56.5598,1743.56)">
                    <g id="Row-1" serif:id="Row 1">
                        <rect id="Column23" serif:id="Column2" x="620" y="445" width="355" height="343" style="fill:rgb(221,132,82);stroke:black;stroke-width:2.92px;stroke-linecap:round;"/>
                    </g>
                </g>
                <g transform="matrix(1.99623,0,0,0.275476,-56.5598,1649.07)">
                    <g id="Row-0" serif:id="Row 0">
                        <path id="Column24" serif:id="Column2" d="M975,530.75C975,508.008 973.753,486.197 971.534,470.116C969.315,454.034 966.305,445 963.167,445C909.102,445 685.898,445 631.833,445C628.695,445 625.685,454.034 623.466,470.116C621.247,486.197 620,508.008 620,530.75L620,788L975,788L975,530.75Z" style="fill:rgb(221,132,82);stroke:black;stroke-width:2.92px;stroke-linecap:round;"/>
                    </g>
                </g>
            </g>
            <g id="RowBlockText" transform="matrix(1,0,0,1,987.974,1587.95)">
                <text x="348.627px" y="167.588px" style="font-family:'Menlo-Regular', 'Menlo', monospace;font-size:62.5px;">Row Page 1</text>
            </g>
        </g>
        <g id="RowPage1" serif:id="RowPage" transform="matrix(1,0,0,1,604.724,-911.311)">
            <g id="RowBlockBackground1" serif:id="RowBlockBackground" transform="matrix(1.4146,0,0,10.1237,-2901.47,952.306)">
                <path d="M3397,75.8C3397,74.255 3388.02,73 3376.96,73L2896.04,73C2884.98,73 2876,74.255 2876,75.8L2876,126.2C2876,127.745 2884.98,129 2896.04,129L3376.96,129C3388.02,129 3397,127.745 3397,126.2L3397,75.8Z" style="fill:none;stroke:black;stroke-width:0.58px;stroke-linecap:round;"/>
            </g>
            <g id="Rows1" serif:id="Rows">
                <g transform="matrix(1.99623,0,0,0.275476,-56.5598,2027.02)">
                    <g id="Row-41" serif:id="Row 4">
                        <path id="Column25" serif:id="Column2" d="M975,445L620,445L620,702.25C620,724.992 621.247,746.803 623.466,762.884C625.685,778.966 628.695,788 631.833,788C685.898,788 909.102,788 963.167,788C966.305,788 969.315,778.966 971.534,762.884C973.753,746.803 975,724.992 975,702.25L975,445Z" style="fill:rgb(76,114,176);stroke:black;stroke-width:2.92px;stroke-linecap:round;"/>
                    </g>
                </g>
                <g transform="matrix(1.99623,0,0,0.275476,-56.5598,1932.53)">
                    <g id="Row-31" serif:id="Row 3">
                        <rect id="Column26" serif:id="Column2" x="620" y="445" width="355" height="343" style="fill:rgb(76,114,176);stroke:black;stroke-width:2.92px;stroke-linecap:round;"/>
                    </g>
                </g>
                <g transform="matrix(1.99623,0,0,0.275476,-56.5598,1838.04)">
                    <g id="Row-21" serif:id="Row 2">
                        <rect id="Column27" serif:id="Column2" x="620" y="445" width="355" height="343" style="fill:rgb(76,114,176);stroke:black;stroke-width:2.92px;stroke-linecap:round;"/>
                    </g>
                </g>
                <g transform="matrix(1.99623,0,0,0.275476,-56.5598,1743.56)">
                    <g id="Row-11" serif:id="Row 1">
                        <rect id="Column28" serif:id="Column2" x="620" y="445" width="355" height="343" style="fill:rgb(76,114,176);stroke:black;stroke-width:2.92px;stroke-linecap:round;"/>
                    </g>
                </g>
                <g transform="matrix(1.99623,0,0,0.275476,-56.5598,1649.07)">
                    <g id="Row-01" serif:id="Row 0">
                        <path id="Column29" serif:id="Column2" d="M975,530.75C975,508.008 973.753,486.197 971.534,470.116C969.315,454.034 966.305,445 963.167,445C909.102,445 685.898,445 631.833,445C628.695,445 625.685,454.034 623.466,470.116C621.247,486.197 620,508.008 620,530.75L620,788L975,788L975,530.75Z" style="fill:rgb(76,114,176);stroke:black;stroke-width:2.92px;stroke-linecap:round;"/>
                    </g>
                </g>
            </g>
            <g id="RowBlockText1" serif:id="RowBlockText" transform="matrix(1,0,0,1,987.974,1587.95)">
                <text x="348.627px" y="167.588px" style="font-family:'Menlo-Regular', 'Menlo', monospace;font-size:62.5px;">Row Page 2</text>
            </g>
        </g>
        <g id="RowPage2" serif:id="RowPage" transform="matrix(1,0,0,1,604.724,-309.382)">
            <g id="RowBlockBackground2" serif:id="RowBlockBackground" transform="matrix(1.4146,0,0,10.1237,-2901.47,952.306)">
                <path d="M3397,75.8C3397,74.255 3388.02,73 3376.96,73L2896.04,73C2884.98,73 2876,74.255 2876,75.8L2876,126.2C2876,127.745 2884.98,129 2896.04,129L3376.96,129C3388.02,129 3397,127.745 3397,126.2L3397,75.8Z" style="fill:none;stroke:black;stroke-width:0.58px;stroke-linecap:round;"/>
            </g>
            <g id="Rows2" serif:id="Rows">
                <g transform="matrix(1.99623,0,0,0.275476,-56.5598,2027.02)">
                    <g id="Row-42" serif:id="Row 4">
                        <path id="Column210" serif:id="Column2" d="M975,445L620,445L620,702.25C620,724.992 621.247,746.803 623.466,762.884C625.685,778.966 628.695,788 631.833,788C685.898,788 909.102,788 963.167,788C966.305,788 969.315,778.966 971.534,762.884C973.753,746.803 975,724.992 975,702.25L975,445Z" style="fill:rgb(85,168,104);stroke:black;stroke-width:2.92px;stroke-linecap:round;"/>
                    </g>
                </g>
                <g transform="matrix(1.99623,0,0,0.275476,-56.5598,1932.53)">
                    <g id="Row-32" serif:id="Row 3">
                        <rect id="Column211" serif:id="Column2" x="620" y="445" width="355" height="343" style="fill:rgb(85,168,104);stroke:black;stroke-width:2.92px;stroke-linecap:round;"/>
                    </g>
                </g>
                <g transform="matrix(1.99623,0,0,0.275476,-56.5598,1838.04)">
                    <g id="Row-22" serif:id="Row 2">
                        <rect id="Column212" serif:id="Column2" x="620" y="445" width="355" height="343" style="fill:rgb(85,168,104);stroke:black;stroke-width:2.92px;stroke-linecap:round;"/>
                    </g>
                </g>
                <g transform="matrix(1.99623,0,0,0.275476,-56.5598,1743.56)">
                    <g id="Row-12" serif:id="Row 1">
                        <rect id="Column213" serif:id="Column2" x="620" y="445" width="355" height="343" style="fill:rgb(85,168,104);stroke:black;stroke-width:2.92px;stroke-linecap:round;"/>
                    </g>
                </g>
                <g transform="matrix(1.99623,0,0,0.275476,-56.5598,1649.07)">
                    <g id="Row-02" serif:id="Row 0">
                        <path id="Column214" serif:id="Column2" d="M975,530.75C975,508.008 973.753,486.197 971.534,470.116C969.315,454.034 966.305,445 963.167,445C909.102,445 685.898,445 631.833,445C628.695,445 625.685,454.034 623.466,470.116C621.247,486.197 620,508.008 620,530.75L620,788L975,788L975,530.75Z" style="fill:rgb(85,168,104);stroke:black;stroke-width:2.92px;stroke-linecap:round;"/>
                    </g>
                </g>
            </g>
            <g id="RowBlockText2" serif:id="RowBlockText" transform="matrix(1,0,0,1,987.974,1587.95)">
                <text x="348.627px" y="167.588px" style="font-family:'Menlo-Regular', 'Menlo', monospace;font-size:62.5px;">Row Page 3</text>
            </g>
        </g>
        <g id="VarPage" transform="matrix(1,0,0,1,1577.72,-1514.24)">
            <g id="RowBlockBackground3" serif:id="RowBlockBackground" transform="matrix(1.4146,0,0,10.1237,-2901.47,952.306)">
                <path d="M3397,75.8C3397,74.255 3388.02,73 3376.96,73L2896.04,73C2884.98,73 2876,74.255 2876,75.8L2876,126.2C2876,127.745 2884.98,129 2896.04,129L3376.96,129C3388.02,129 3397,127.745 3397,126.2L3397,75.8Z" style="fill:none;stroke:black;stroke-width:0.58px;stroke-linecap:round;"/>
            </g>
            <g id="Rows3" serif:id="Rows">
                <g transform="matrix(0.446934,0,0,0.275476,904.004,2027.02)">
                    <g id="Row-43" serif:id="Row 4">
                        <path id="Column215" serif:id="Column2" d="M975,445L620,445L620,702.25C620,724.992 625.568,746.803 635.48,762.884C645.392,778.966 658.836,788 672.854,788C771.779,788 975,788 975,788L975,445Z" style="fill:rgb(221,132,82);stroke:black;stroke-width:11.22px;stroke-linecap:round;"/>
                    </g>
                </g>
                <g transform="matrix(0.717356,0,0,0.275476,736.342,1932.53)">
                    <g id="Row-33" serif:id="Row 3">
                        <rect id="Column216" serif:id="Column2" x="620" y="445" width="355" height="343" style="fill:rgb(221,132,82);stroke:black;stroke-width:7.67px;stroke-linecap:round;"/>
                    </g>
                </g>
                <g transform="matrix(1.27887,0,0,0.275476,642.862,1932.53)">
                    <g id="Row-34" serif:id="Row 3">
                        <rect id="Column217" serif:id="Column2" x="620" y="445" width="355" height="343" style="fill:rgb(221,132,82);stroke:black;stroke-width:4.5px;stroke-linecap:round;"/>
                    </g>
                </g>
                <g transform="matrix(1.35493,0,0,0.275476,499.707,2027.02)">
                    <g id="Row-35" serif:id="Row 3">
                        <rect id="Column218" serif:id="Column2" x="620" y="445" width="355" height="343" style="fill:rgb(76,114,176);stroke:black;stroke-width:4.26px;stroke-linecap:round;"/>
                    </g>
                </g>
                <g id="Column219" serif:id="Column2" transform="matrix(0.194366,0,0,0.275476,1700.26,2027.02)">
                    <path d="M975,445L620,445L620,788L853.466,788C885.699,788 916.612,778.966 939.404,762.884C962.196,746.803 975,724.992 975,702.25L975,445Z" style="fill:rgb(235,235,235);stroke:black;stroke-width:17.48px;stroke-linecap:round;"/>
                </g>
                <g id="Row-23" serif:id="Row 2" transform="matrix(6,0,0,1,-9448.82,188.976)">
                    <g id="Column220" serif:id="Column2" transform="matrix(0.156649,0,0,0.275476,1674.53,1649.07)">
                        <rect x="620" y="445" width="355" height="343" style="fill:rgb(221,132,82);stroke:black;stroke-width:6.02px;stroke-linecap:round;"/>
                    </g>
                    <g id="Column221" serif:id="Column2" transform="matrix(0.176056,0,0,0.275476,1718.11,1649.07)">
                        <rect x="620" y="445" width="355" height="343" style="fill:rgb(221,132,82);stroke:black;stroke-width:5.4px;stroke-linecap:round;"/>
                    </g>
                </g>
                <g id="Row-13" serif:id="Row 1" transform="matrix(6,0,0,1,-9448.82,94.4882)">
                    <g id="Column222" serif:id="Column2" transform="matrix(0.0524232,0,0,0.275476,1739.15,1649.07)">
                        <rect x="620" y="445" width="355" height="343" style="fill:rgb(221,132,82);stroke:black;stroke-width:14.09px;stroke-linecap:round;"/>
                    </g>
                    <g id="Column223" serif:id="Column2" transform="matrix(0.241315,0,0,0.275476,1640.65,1649.07)">
                        <rect x="620" y="445" width="355" height="343" style="fill:rgb(221,132,82);stroke:black;stroke-width:4px;stroke-linecap:round;"/>
                    </g>
                    <g id="Column224" serif:id="Column2" transform="matrix(0.0389671,0,0,0.275476,1851.77,1649.07)">
                        <rect x="620" y="445" width="355" height="343" style="fill:rgb(221,132,82);stroke:black;stroke-width:16.31px;stroke-linecap:round;"/>
                    </g>
                </g>
                <g transform="matrix(1.99623,0,0,0.275476,-56.5598,1649.07)">
                    <g id="Row-03" serif:id="Row 0">
                        <path id="Column225" serif:id="Column2" d="M975,530.75C975,508.008 973.753,486.197 971.534,470.116C969.315,454.034 966.305,445 963.167,445C909.102,445 685.898,445 631.833,445C628.695,445 625.685,454.034 623.466,470.116C621.247,486.197 620,508.008 620,530.75L620,788L975,788L975,530.75Z" style="fill:rgb(221,132,82);stroke:black;stroke-width:2.92px;stroke-linecap:round;"/>
                    </g>
                </g>
            </g>
            <g id="RowBlockText3" serif:id="RowBlockText" transform="matrix(1,0,0,1,987.974,1587.95)">
                <text x="348.627px" y="167.588px" style="font-family:'Menlo-Regular', 'Menlo', monospace;font-size:62.5px;">Var Page 1</text>
            </g>
        </g>
        <g id="Metadata" transform="matrix(1,0,0,1,-1642.82,-1778.23)">
            <g id="RowBlockBackground4" serif:id="RowBlockBackground" transform="matrix(0.779845,0,0,5.94769,529.119,1526.8)">
                <path d="M3397,75.8C3397,74.255 3387.43,73 3375.64,73L2897.36,73C2885.57,73 2876,74.255 2876,75.8L2876,126.2C2876,127.745 2885.57,129 2897.36,129L3375.64,129C3387.43,129 3397,127.745 3397,126.2L3397,75.8Z" style="fill:none;stroke:black;stroke-width:0.98px;stroke-linecap:round;"/>
            </g>
            <g transform="matrix(1,0,0,1,46.4016,-68)">
                <g id="RowBlockBackground5" serif:id="RowBlockBackground" transform="matrix(0.725437,0,0,4.21822,653.367,1803.22)">
                    <path d="M3397,78.6C3397,75.509 3382.41,73 3364.44,73L2908.56,73C2890.59,73 2876,75.509 2876,78.6L2876,123.4C2876,126.491 2890.59,129 2908.56,129L3364.44,129C3382.41,129 3397,126.491 3397,123.4L3397,78.6Z" style="fill:white;stroke:black;stroke-width:1.38px;stroke-linecap:round;"/>
                </g>
                <g id="RowBlockText4" serif:id="RowBlockText" transform="matrix(1,0,0,1,2426.61,1981.66)">
                    <text x="329.813px" y="167.588px" style="font-family:'Menlo-Regular', 'Menlo', monospace;font-size:37.5px;">Row Page: 1</text>
                    <text x="329.813px" y="205.088px" style="font-family:'Menlo-Regular', 'Menlo', monospace;font-size:37.5px;">Row Offset: 0</text>
                    <text x="329.813px" y="242.588px" style="font-family:'Menlo-Regular', 'Menlo', monospace;font-size:37.5px;">Var Page: 1</text>
                    <text x="329.813px" y="280.088px" style="font-family:'Menlo-Regular', 'Menlo', monospace;font-size:37.5px;">Var Offset: 0</text>
                    <text x="329.813px" y="317.588px" style="font-family:'Menlo-Regular', 'Menlo', monospace;font-size:37.5px;">Var Ptr: 0x04</text>
                    <text x="623.313px" y="317.588px" style="font-family:'Menlo-Regular', 'Menlo', monospace;font-size:37.5px;">2</text>
                    <text x="329.813px" y="355.088px" style="font-family:'Menlo-Regular', 'Menlo', monospace;font-size:37.5px;">Count: 5</text>
                </g>
            </g>
            <g id="RowBlockText5" serif:id="RowBlockText" transform="matrix(1,0,0,1,2439.91,1857.2)">
                <text x="348.627px" y="167.588px" style="font-family:'Menlo-Regular', 'Menlo', monospace;font-size:62.5px;">MetaData 1</text>
            </g>
        </g>
        <g id="Metadata1" serif:id="Metadata" transform="matrix(1,0,0,1,-1642.82,-1421.23)">
            <g id="RowBlockBackground6" serif:id="RowBlockBackground" transform="matrix(0.779845,0,0,5.94769,529.119,1526.8)">
                <path d="M3397,75.8C3397,74.255 3387.43,73 3375.64,73L2897.36,73C2885.57,73 2876,74.255 2876,75.8L2876,126.2C2876,127.745 2885.57,129 2897.36,129L3375.64,129C3387.43,129 3397,127.745 3397,126.2L3397,75.8Z" style="fill:none;stroke:black;stroke-width:0.98px;stroke-linecap:round;"/>
            </g>
            <g transform="matrix(1,0,0,1,46.4016,-68)">
                <g id="RowBlockBackground7" serif:id="RowBlockBackground" transform="matrix(0.725437,0,0,4.21822,653.367,1803.22)">
                    <path d="M3397,78.6C3397,75.509 3382.41,73 3364.44,73L2908.56,73C2890.59,73 2876,75.509 2876,78.6L2876,123.4C2876,126.491 2890.59,129 2908.56,129L3364.44,129C3382.41,129 3397,126.491 3397,123.4L3397,78.6Z" style="fill:white;stroke:black;stroke-width:1.38px;stroke-linecap:round;"/>
                </g>
                <g id="RowBlockText6" serif:id="RowBlockText" transform="matrix(1,0,0,1,2426.61,1981.66)">
                    <text x="329.813px" y="167.588px" style="font-family:'Menlo-Regular', 'Menlo', monospace;font-size:37.5px;">Row Page: 2</text>
                    <text x="329.813px" y="205.088px" style="font-family:'Menlo-Regular', 'Menlo', monospace;font-size:37.5px;">Row Offset: 0</text>
                    <text x="329.813px" y="242.588px" style="font-family:'Menlo-Regular', 'Menlo', monospace;font-size:37.5px;">Var Page: 1</text>
                    <text x="329.813px" y="280.088px" style="font-family:'Menlo-Regular', 'Menlo', monospace;font-size:37.5px;">Var Offset: 42</text>
                    <text x="329.813px" y="317.588px" style="font-family:'Menlo-Regular', 'Menlo', monospace;font-size:37.5px;">Var Ptr: 0x042</text>
                    <text x="329.813px" y="355.088px" style="font-family:'Menlo-Regular', 'Menlo', monospace;font-size:37.5px;">Count: 1</text>
                </g>
            </g>
            <g id="RowBlockText7" serif:id="RowBlockText" transform="matrix(1,0,0,1,2439.91,1857.2)">
                <text x="348.627px" y="167.588px" style="font-family:'Menlo-Regular', 'Menlo', monospace;font-size:62.5px;">MetaData 2</text>
            </g>
        </g>
        <g id="Metadata2" serif:id="Metadata" transform="matrix(1,0,0,1,-1642.82,-1064.23)">
            <g id="RowBlockBackground8" serif:id="RowBlockBackground" transform="matrix(0.779845,0,0,5.94769,529.119,1526.8)">
                <path d="M3397,75.8C3397,74.255 3387.43,73 3375.64,73L2897.36,73C2885.57,73 2876,74.255 2876,75.8L2876,126.2C2876,127.745 2885.57,129 2897.36,129L3375.64,129C3387.43,129 3397,127.745 3397,126.2L3397,75.8Z" style="fill:none;stroke:black;stroke-width:0.98px;stroke-linecap:round;"/>
            </g>
            <g transform="matrix(1,0,0,1,46.4016,-68)">
                <g id="RowBlockBackground9" serif:id="RowBlockBackground" transform="matrix(0.725437,0,0,4.21822,653.367,1803.22)">
                    <path d="M3397,78.6C3397,75.509 3382.41,73 3364.44,73L2908.56,73C2890.59,73 2876,75.509 2876,78.6L2876,123.4C2876,126.491 2890.59,129 2908.56,129L3364.44,129C3382.41,129 3397,126.491 3397,123.4L3397,78.6Z" style="fill:white;stroke:black;stroke-width:1.38px;stroke-linecap:round;"/>
                </g>
                <g id="RowBlockText8" serif:id="RowBlockText" transform="matrix(1,0,0,1,2426.61,1981.66)">
                    <text x="329.813px" y="167.588px" style="font-family:'Menlo-Regular', 'Menlo', monospace;font-size:37.5px;">Row Page: 2</text>
                    <text x="329.813px" y="205.088px" style="font-family:'Menlo-Regular', 'Menlo', monospace;font-size:37.5px;">Row Offset: 1</text>
                    <text x="329.813px" y="242.588px" style="font-family:'Menlo-Regular', 'Menlo', monospace;font-size:37.5px;">Var Page: 2</text>
                    <text x="329.813px" y="280.088px" style="font-family:'Menlo-Regular', 'Menlo', monospace;font-size:37.5px;">Var Offset: 0</text>
                    <text x="329.813px" y="317.588px" style="font-family:'Menlo-Regular', 'Menlo', monospace;font-size:37.5px;">Var Ptr: 0x210</text>
                    <text x="329.813px" y="355.088px" style="font-family:'Menlo-Regular', 'Menlo', monospace;font-size:37.5px;">Count: 4</text>
                </g>
            </g>
            <g id="RowBlockText9" serif:id="RowBlockText" transform="matrix(1,0,0,1,2439.91,1857.2)">
                <text x="348.627px" y="167.588px" style="font-family:'Menlo-Regular', 'Menlo', monospace;font-size:62.5px;">MetaData 3</text>
            </g>
        </g>
        <g id="Metadata3" serif:id="Metadata" transform="matrix(1,0,0,1,-1642.82,-707.235)">
            <g id="RowBlockBackground10" serif:id="RowBlockBackground" transform="matrix(0.779845,0,0,5.94769,529.119,1526.8)">
                <path d="M3397,75.8C3397,74.255 3387.43,73 3375.64,73L2897.36,73C2885.57,73 2876,74.255 2876,75.8L2876,126.2C2876,127.745 2885.57,129 2897.36,129L3375.64,129C3387.43,129 3397,127.745 3397,126.2L3397,75.8Z" style="fill:none;stroke:black;stroke-width:0.98px;stroke-linecap:round;"/>
            </g>
            <g transform="matrix(1,0,0,1,46.4016,-68)">
                <g id="RowBlockBackground11" serif:id="RowBlockBackground" transform="matrix(0.725437,0,0,4.21822,653.367,1803.22)">
                    <path d="M3397,78.6C3397,75.509 3382.41,73 3364.44,73L2908.56,73C2890.59,73 2876,75.509 2876,78.6L2876,123.4C2876,126.491 2890.59,129 2908.56,129L3364.44,129C3382.41,129 3397,126.491 3397,123.4L3397,78.6Z" style="fill:white;stroke:black;stroke-width:1.38px;stroke-linecap:round;"/>
                </g>
                <g id="RowBlockText10" serif:id="RowBlockText" transform="matrix(1,0,0,1,2426.61,1981.66)">
                    <text x="329.813px" y="167.588px" style="font-family:'Menlo-Regular', 'Menlo', monospace;font-size:37.5px;">Row Page: 3</text>
                    <text x="329.813px" y="205.088px" style="font-family:'Menlo-Regular', 'Menlo', monospace;font-size:37.5px;">Row Offset: 0</text>
                    <text x="329.813px" y="242.588px" style="font-family:'Menlo-Regular', 'Menlo', monospace;font-size:37.5px;">Var Page: 2</text>
                    <text x="329.813px" y="280.088px" style="font-family:'Menlo-Regular', 'Menlo', monospace;font-size:37.5px;">Var Offset: 31</text>
                    <text x="329.813px" y="317.588px" style="font-family:'Menlo-Regular', 'Menlo', monospace;font-size:37.5px;">Var Ptr: 0x210</text>
                    <text x="329.813px" y="355.088px" style="font-family:'Menlo-Regular', 'Menlo', monospace;font-size:37.5px;">Count: 2</text>
                </g>
            </g>
            <g id="RowBlockText11" serif:id="RowBlockText" transform="matrix(1,0,0,1,2439.91,1857.2)">
                <text x="348.627px" y="167.588px" style="font-family:'Menlo-Regular', 'Menlo', monospace;font-size:62.5px;">MetaData 4</text>
            </g>
        </g>
        <g id="Metadata4" serif:id="Metadata" transform="matrix(1,0,0,1,-1642.82,-350.814)">
            <g id="RowBlockBackground12" serif:id="RowBlockBackground" transform="matrix(0.779845,0,0,5.94769,529.119,1526.8)">
                <path d="M3397,75.8C3397,74.255 3387.43,73 3375.64,73L2897.36,73C2885.57,73 2876,74.255 2876,75.8L2876,126.2C2876,127.745 2885.57,129 2897.36,129L3375.64,129C3387.43,129 3397,127.745 3397,126.2L3397,75.8Z" style="fill:none;stroke:black;stroke-width:0.98px;stroke-linecap:round;"/>
            </g>
            <g transform="matrix(1,0,0,1,46.4016,-68)">
                <g id="RowBlockBackground13" serif:id="RowBlockBackground" transform="matrix(0.725437,0,0,4.21822,653.367,1803.22)">
                    <path d="M3397,78.6C3397,75.509 3382.41,73 3364.44,73L2908.56,73C2890.59,73 2876,75.509 2876,78.6L2876,123.4C2876,126.491 2890.59,129 2908.56,129L3364.44,129C3382.41,129 3397,126.491 3397,123.4L3397,78.6Z" style="fill:white;stroke:black;stroke-width:1.38px;stroke-linecap:round;"/>
                </g>
                <g id="RowBlockText12" serif:id="RowBlockText" transform="matrix(1,0,0,1,2426.61,1981.66)">
                    <text x="329.813px" y="167.588px" style="font-family:'Menlo-Regular', 'Menlo', monospace;font-size:37.5px;">Row Page: 3</text>
                    <text x="329.813px" y="205.088px" style="font-family:'Menlo-Regular', 'Menlo', monospace;font-size:37.5px;">Row Offset: 2</text>
                    <text x="329.813px" y="242.588px" style="font-family:'Menlo-Regular', 'Menlo', monospace;font-size:37.5px;">Var Page: 3</text>
                    <text x="329.813px" y="280.088px" style="font-family:'Menlo-Regular', 'Menlo', monospace;font-size:37.5px;">Var Offset: 0</text>
                    <text x="329.813px" y="317.588px" style="font-family:'Menlo-Regular', 'Menlo', monospace;font-size:37.5px;">Var Ptr: 0x840</text>
                    <text x="329.813px" y="355.088px" style="font-family:'Menlo-Regular', 'Menlo', monospace;font-size:37.5px;">Count: 3</text>
                </g>
            </g>
            <g id="RowBlockText13" serif:id="RowBlockText" transform="matrix(1,0,0,1,2439.91,1857.2)">
                <text x="348.627px" y="167.588px" style="font-family:'Menlo-Regular', 'Menlo', monospace;font-size:62.5px;">MetaData 5</text>
            </g>
        </g>
        <g id="VarPage1" serif:id="VarPage" transform="matrix(1,0,0,1,1577.72,-911.311)">
            <g id="RowBlockBackground14" serif:id="RowBlockBackground" transform="matrix(1.4146,0,0,10.1237,-2901.47,952.306)">
                <path d="M3397,75.8C3397,74.255 3388.02,73 3376.96,73L2896.04,73C2884.98,73 2876,74.255 2876,75.8L2876,126.2C2876,127.745 2884.98,129 2896.04,129L3376.96,129C3388.02,129 3397,127.745 3397,126.2L3397,75.8Z" style="fill:none;stroke:black;stroke-width:0.58px;stroke-linecap:round;"/>
            </g>
            <g id="Rows4" serif:id="Rows">
                <g transform="matrix(1.63848,0,0,0.275476,165.243,2027.02)">
                    <g id="Row-44" serif:id="Row 4">
                        <path id="Column226" serif:id="Column2" d="M975,445L620,445L620,702.25C620,749.608 626.455,788 634.417,788C700.938,788 975,788 975,788L975,445Z" style="fill:rgb(85,168,104);stroke:black;stroke-width:3.55px;stroke-linecap:round;"/>
                    </g>
                </g>
                <g id="Row-36" serif:id="Row 3" transform="matrix(6,0,0,1,-9448.82,283.465)">
                    <g id="Column227" serif:id="Column2" transform="matrix(0.0242542,0,0,0.275476,1756.62,1649.07)">
                        <rect x="620" y="445" width="355" height="343" style="fill:rgb(76,114,176);stroke:black;stroke-width:18.91px;stroke-linecap:round;"/>
                    </g>
                    <g id="Column228" serif:id="Column2" transform="matrix(0.203286,0,0,0.275476,1654.23,1649.07)">
                        <rect x="620" y="445" width="355" height="343" style="fill:rgb(85,168,104);stroke:black;stroke-width:4.71px;stroke-linecap:round;"/>
                    </g>
                    <g id="Column229" serif:id="Column2" transform="matrix(0.105164,0,0,0.275476,1787.23,1649.07)">
                        <rect x="620" y="445" width="355" height="343" style="fill:rgb(85,168,104);stroke:black;stroke-width:8.56px;stroke-linecap:round;"/>
                    </g>
                    <g id="Column230" serif:id="Column2" transform="matrix(0.0596244,0,0,0.275476,1831.63,1743.56)">
                        <path d="M975,445L620,445L620,788L908.97,788C926.482,788 943.277,778.966 955.66,762.884C968.043,746.803 975,724.992 975,702.25C975,600.654 975,445 975,445Z" style="fill:rgb(235,235,235);stroke:black;stroke-width:13.05px;stroke-linecap:round;"/>
                    </g>
                </g>
                <g transform="matrix(0.323001,0,0,0.275476,980.842,1838.04)">
                    <g id="Row-24" serif:id="Row 2">
                        <rect id="Column231" serif:id="Column2" x="620" y="445" width="355" height="343" style="fill:rgb(76,114,176);stroke:black;stroke-width:13.88px;stroke-linecap:round;"/>
                    </g>
                </g>
                <g transform="matrix(1.67323,0,0,0.275476,258.366,1838.04)">
                    <g id="Row-25" serif:id="Row 2">
                        <rect id="Column232" serif:id="Column2" x="620" y="445" width="355" height="343" style="fill:rgb(76,114,176);stroke:black;stroke-width:3.47px;stroke-linecap:round;"/>
                    </g>
                </g>
                <g id="Row-14" serif:id="Row 1" transform="matrix(6,0,0,1,-9448.82,94.4882)">
                    <g id="Column233" serif:id="Column2" transform="matrix(0.107667,0,0,0.275476,1704.9,1649.07)">
                        <rect x="620" y="445" width="355" height="343" style="fill:rgb(76,114,176);stroke:black;stroke-width:8.39px;stroke-linecap:round;"/>
                    </g>
                    <g id="Column234" serif:id="Column2" transform="matrix(0.225038,0,0,0.275476,1670.35,1649.07)">
                        <rect x="620" y="445" width="355" height="343" style="fill:rgb(76,114,176);stroke:black;stroke-width:4.28px;stroke-linecap:round;"/>
                    </g>
                </g>
                <g transform="matrix(0.704225,0,0,0.275476,1203.14,1649.07)">
                    <g id="Row-15" serif:id="Row 1">
                        <path id="Column235" serif:id="Column2" d="M975,530.75C975,508.008 971.466,486.197 965.175,470.116C958.885,454.034 950.353,445 941.457,445C852.974,445 620,445 620,445L620,788L975,788L975,530.75Z" style="fill:rgb(76,114,176);stroke:black;stroke-width:7.79px;stroke-linecap:round;"/>
                    </g>
                </g>
                <g transform="matrix(1.292,0,0,0.275476,380.06,1649.07)">
                    <g id="Row-04" serif:id="Row 0">
                        <path id="Column236" serif:id="Column2" d="M975,445L638.283,445C633.434,445 628.784,454.034 625.355,470.116C621.926,486.197 620,508.008 620,530.75C620,632.346 620,788 620,788L975,788L975,445Z" style="fill:rgb(76,114,176);stroke:black;stroke-width:4.46px;stroke-linecap:round;"/>
                    </g>
                </g>
            </g>
            <g id="RowBlockText14" serif:id="RowBlockText" transform="matrix(1,0,0,1,987.974,1587.95)">
                <text x="348.627px" y="167.588px" style="font-family:'Menlo-Regular', 'Menlo', monospace;font-size:62.5px;">Var Page 2</text>
            </g>
        </g>
        <g id="VarPage2" serif:id="VarPage" transform="matrix(1,0,0,1,1577.72,-309.382)">
            <g id="RowBlockBackground15" serif:id="RowBlockBackground" transform="matrix(1.4146,0,0,10.1237,-2901.47,952.306)">
                <path d="M3397,75.8C3397,74.255 3388.02,73 3376.96,73L2896.04,73C2884.98,73 2876,74.255 2876,75.8L2876,126.2C2876,127.745 2884.98,129 2896.04,129L3376.96,129C3388.02,129 3397,127.745 3397,126.2L3397,75.8Z" style="fill:none;stroke:black;stroke-width:0.58px;stroke-linecap:round;"/>
            </g>
            <g id="Rows5" serif:id="Rows">
                <g transform="matrix(1.99623,0,0,0.275476,-56.5598,2027.02)">
                    <g id="Row-45" serif:id="Row 4">
                        <path id="Column237" serif:id="Column2" d="M975,445L620,445L620,702.25C620,724.992 621.247,746.803 623.466,762.884C625.685,778.966 628.695,788 631.833,788C685.898,788 909.102,788 963.167,788C966.305,788 969.315,778.966 971.534,762.884C973.753,746.803 975,724.992 975,702.25L975,445Z" style="fill:rgb(235,235,235);stroke:black;stroke-width:2.92px;stroke-linecap:round;"/>
                    </g>
                </g>
                <g transform="matrix(1.54834,0,0,0.275476,380.13,1932.53)">
                    <g id="Row-37" serif:id="Row 3">
                        <rect id="Column238" serif:id="Column2" x="620" y="445" width="355" height="343" style="fill:rgb(235,235,235);stroke:black;stroke-width:3.75px;stroke-linecap:round;"/>
                    </g>
                </g>
                <g id="Row-26" serif:id="Row 2" transform="matrix(6,0,0,1,-9448.82,188.976)">
                    <g id="Column239" serif:id="Column2" transform="matrix(0.108761,0,0,0.275476,1704.22,1649.07)">
                        <rect x="620" y="445" width="355" height="343" style="fill:rgb(85,168,104);stroke:black;stroke-width:8.32px;stroke-linecap:round;"/>
                    </g>
                    <g id="Column240" serif:id="Column2" transform="matrix(0.0746479,0,0,0.275476,1725.37,1743.56)">
                        <rect x="620" y="445" width="355" height="343" style="fill:rgb(85,168,104);stroke:black;stroke-width:11.21px;stroke-linecap:round;"/>
                    </g>
                    <g id="Column241" serif:id="Column2" transform="matrix(0.223944,0,0,0.275476,1671.42,1649.07)">
                        <rect x="620" y="445" width="355" height="343" style="fill:rgb(85,168,104);stroke:black;stroke-width:4.3px;stroke-linecap:round;"/>
                    </g>
                </g>
                <g id="Row-16" serif:id="Row 1" transform="matrix(6,0,0,1,-9448.82,94.4882)">
                    <g id="Column242" serif:id="Column2" transform="matrix(0.144911,0,0,0.275476,1681.81,1649.07)">
                        <rect x="620" y="445" width="355" height="343" style="fill:rgb(85,168,104);stroke:black;stroke-width:6.46px;stroke-linecap:round;"/>
                    </g>
                    <g id="Column243" serif:id="Column2" transform="matrix(0.187793,0,0,0.275476,1706.67,1649.07)">
                        <rect x="620" y="445" width="355" height="343" style="fill:rgb(85,168,104);stroke:black;stroke-width:5.08px;stroke-linecap:round;"/>
                    </g>
                </g>
                <g transform="matrix(1.99623,0,0,0.275476,-56.5598,1649.07)">
                    <g id="Row-05" serif:id="Row 0">
                        <path id="Column244" serif:id="Column2" d="M975,530.75C975,508.008 973.753,486.197 971.534,470.116C969.315,454.034 966.305,445 963.167,445C909.102,445 685.898,445 631.833,445C628.695,445 625.685,454.034 623.466,470.116C621.247,486.197 620,508.008 620,530.75L620,788L975,788L975,530.75Z" style="fill:rgb(85,168,104);stroke:black;stroke-width:2.92px;stroke-linecap:round;"/>
                    </g>
                </g>
            </g>
            <g id="RowBlockText15" serif:id="RowBlockText" transform="matrix(1,0,0,1,987.974,1587.95)">
                <text x="348.627px" y="167.588px" style="font-family:'Menlo-Regular', 'Menlo', monospace;font-size:62.5px;">Var Page 3</text>
            </g>
        </g>
        <g transform="matrix(1,0,0,1,1391.46,-308.882)">
            <g transform="matrix(1,-0,-0,1,-264.406,483.898)">
                <path d="M1807.81,1517.92L1863.44,1523.48L1825.62,1564.64L1807.81,1517.92Z" style="fill-opacity:0.75;"/>
                <path d="M1367.44,1712.45C1367.44,1712.45 1710.61,1581.7 1826.06,1537.72" style="fill:none;stroke:black;stroke-opacity:0.75;stroke-width:8.33px;stroke-dasharray:25,25,0,0;"/>
            </g>
        </g>
        <g transform="matrix(1,0,0,1,1391.46,-308.882)">
            <g transform="matrix(1,-0,-0,1,-264.406,483.898)">
                <path d="M1885.12,1420.91L1940.44,1428.99L1900.78,1468.39L1885.12,1420.91Z" style="fill-opacity:0.75;"/>
                <path d="M1367.44,1617.97C1367.44,1617.97 1774.53,1483.7 1902.45,1441.52" style="fill:none;stroke:black;stroke-opacity:0.75;stroke-width:8.33px;stroke-dasharray:25,25,0,0;"/>
            </g>
        </g>
        <g transform="matrix(1,0,0,1,1391.46,-308.882)">
            <g transform="matrix(1,-0,-0,1,-264.406,483.898)">
                <path d="M1832.77,397.467L1886.44,413.107L1841.72,446.658L1832.77,397.467Z" style="fill-opacity:0.75;"/>
                <path d="M1367.44,507.595C1367.44,507.595 1726.05,442.307 1847.09,420.272" style="fill:none;stroke:black;stroke-opacity:0.75;stroke-width:8.33px;stroke-dasharray:25,25,0,0;"/>
            </g>
        </g>
        <g transform="matrix(1,0,0,1,1391.46,-308.882)">
            <g transform="matrix(1,-0,-0,1,-264.406,483.898)">
                <path d="M1581.78,104.642L1631.78,129.642L1581.78,154.642L1581.78,104.642Z" style="fill-opacity:0.75;"/>
                <path d="M1367.44,129.642L1591.78,129.642" style="fill:none;stroke:black;stroke-opacity:0.75;stroke-width:8.33px;stroke-dasharray:25,25,0,0;"/>
            </g>
        </g>
        <g transform="matrix(1,0,0,1,1391.46,-308.882)">
            <g transform="matrix(1,-0,-0,1,-264.406,483.898)">
                <path d="M1693.44,199.131L1743.44,224.131L1693.44,249.131L1693.44,199.131Z" style="fill-opacity:0.75;"/>
                <path d="M1367.44,224.131L1703.44,224.131" style="fill:none;stroke:black;stroke-opacity:0.75;stroke-width:8.33px;stroke-dasharray:25,25,0,0;"/>
            </g>
        </g>
        <g transform="matrix(1,0,0,1,1391.46,-308.882)">
            <g transform="matrix(1,-0,-0,1,-264.406,483.898)">
                <path d="M2205.08,204.549L2257.44,224.131L2210.36,254.27L2205.08,204.549Z" style="fill-opacity:0.75;"/>
                <path d="M1367.44,318.619C1367.44,318.619 2044.8,246.706 2217.66,228.354" style="fill:none;stroke:black;stroke-opacity:0.75;stroke-width:8.33px;stroke-dasharray:25,25,0,0;"/>
            </g>
        </g>
        <g transform="matrix(1,0,0,1,1391.46,-308.882)">
            <g transform="matrix(1,-0,-0,1,-264.406,483.898)">
                <path d="M1912.15,301.729L1965.44,318.619L1919.95,351.116L1912.15,301.729Z" style="fill-opacity:0.75;"/>
                <path d="M1367.44,413.107C1367.44,413.107 1792.58,345.931 1925.93,324.862" style="fill:none;stroke:black;stroke-opacity:0.75;stroke-width:8.33px;stroke-dasharray:25,25,0,0;"/>
            </g>
        </g>
        <g transform="matrix(1,0,0,1,1391.46,-308.882)">
            <g transform="matrix(1,-0,-0,1,-264.406,483.898)">
                <path d="M1734.55,509.002L1790.44,507.595L1758.03,553.146L1734.55,509.002Z" style="fill-opacity:0.75;"/>
                <path d="M1367.44,732.572C1367.44,732.572 1653.48,580.439 1755.12,526.378" style="fill:none;stroke:black;stroke-opacity:0.75;stroke-width:8.33px;stroke-dasharray:25,25,0,0;"/>
            </g>
        </g>
        <g transform="matrix(1,0,0,1,1391.46,-308.882)">
            <g transform="matrix(1,-0,-0,1,-264.406,483.898)">
                <path d="M1576.28,725.86L1631.78,732.572L1593.11,772.942L1576.28,725.86Z" style="fill-opacity:0.75;"/>
                <path d="M1367.44,827.06C1367.44,827.06 1521.1,772.132 1594.11,746.035" style="fill:none;stroke:black;stroke-opacity:0.75;stroke-width:8.33px;stroke-dasharray:25,25,0,0;"/>
            </g>
        </g>
        <g transform="matrix(1,0,0,1,1391.46,-308.882)">
            <g transform="matrix(1,-0,-0,1,-264.406,483.898)">
                <path d="M2035.74,721.028L2090.44,732.572L2048.39,769.403L2035.74,721.028Z" style="fill-opacity:0.75;"/>
                <path d="M1367.44,921.548C1367.44,921.548 1901.8,781.878 2051.74,742.687" style="fill:none;stroke:black;stroke-opacity:0.75;stroke-width:8.33px;stroke-dasharray:25,25,0,0;"/>
            </g>
        </g>
        <g transform="matrix(1,0,0,1,1391.46,-308.882)">
            <g transform="matrix(1,-0,-0,1,-264.406,483.898)">
                <path d="M1805.47,821.587L1861.11,827.06L1823.35,868.283L1805.47,821.587Z" style="fill-opacity:0.75;"/>
                <path d="M1367.44,1016.04C1367.44,1016.04 1708.7,885.403 1823.75,841.36" style="fill:none;stroke:black;stroke-opacity:0.75;stroke-width:8.33px;stroke-dasharray:25,25,0,0;"/>
            </g>
        </g>
        <g transform="matrix(1,0,0,1,1391.46,-308.882)">
            <g transform="matrix(1,-0,-0,1,-264.406,483.898)">
                <path d="M1690.54,921.486L1746.44,921.548L1712.85,966.232L1690.54,921.486Z" style="fill-opacity:0.75;"/>
                <path d="M1367.44,1110.52C1367.44,1110.52 1616.19,986.493 1710.64,939.397" style="fill:none;stroke:black;stroke-opacity:0.75;stroke-width:8.33px;stroke-dasharray:25,25,0,0;"/>
            </g>
        </g>
        <g transform="matrix(1,0,0,1,1391.46,-308.882)">
            <g transform="matrix(1,-0,-0,1,-264.406,483.898)">
                <path d="M1630.47,1033.92L1683.44,1016.04L1665.97,1069.14L1630.47,1033.92Z" style="fill-opacity:0.75;"/>
                <path d="M1367.44,1334.5C1367.44,1334.5 1577.82,1122.48 1655.26,1044.43" style="fill:none;stroke:black;stroke-opacity:0.75;stroke-width:8.33px;stroke-dasharray:25,25,0,0;"/>
            </g>
        </g>
        <g transform="matrix(0.967919,0.0153686,0.0153686,0.992637,1397.44,-311.751)">
            <g transform="matrix(1.0334,-0.0159997,-0.0159997,1.00766,-287.212,494.823)">
                <path d="M2058.73,1019.18L2114.59,1016.92L2082.88,1062.96L2058.73,1019.18Z" style="fill-opacity:0.75;"/>
                <path d="M1367.44,1428.99C1367.44,1428.99 1931.86,1117.7 2079.56,1036.24" style="fill:none;stroke:black;stroke-opacity:0.75;stroke-width:8.33px;stroke-dasharray:25,25,0,0;"/>
            </g>
        </g>
        <g transform="matrix(1,0,0,1,1391.46,-308.882)">
            <g transform="matrix(1,-0,-0,1,-264.406,483.898)">
                <path d="M1578.17,1343.08L1633.41,1334.5L1607.13,1383.84L1578.17,1343.08Z" style="fill-opacity:0.75;"/>
                <path d="M1367.44,1523.48C1367.44,1523.48 1529.78,1408.13 1600.8,1357.67" style="fill:none;stroke:black;stroke-opacity:0.75;stroke-width:8.33px;stroke-dasharray:25,25,0,0;"/>
            </g>
        </g>
    </g>
</svg>
