<svg width="627" height="627" viewBox="0 0 627 627" fill="none" xmlns="http://www.w3.org/2000/svg">
<rect width="627" height="627" fill="url(#paint0_linear_10930_6527)"/>
<g clip-path="url(#clip0_10930_6527)">
<rect width="625" height="625" fill="url(#paint1_linear_10930_6527)"/>
<path d="M1488.24 207.83C1489.06 207.83 1489.73 207.162 1489.73 206.339C1489.73 205.515 1489.06 204.847 1488.24 204.847L1488.24 206.339L1488.24 207.83ZM388.943 -54.3849C388.36 -53.8024 388.36 -52.8581 388.943 -52.2756L398.435 -42.7836C399.017 -42.2011 399.961 -42.2011 400.544 -42.7836C401.126 -43.366 401.126 -44.3104 400.544 -44.8929L392.107 -53.3303L400.544 -61.7676C401.126 -62.3501 401.126 -63.2945 400.544 -63.8769C399.961 -64.4594 399.017 -64.4594 398.435 -63.877L388.943 -54.3849ZM540.271 11.4622L541.762 11.4622L541.762 11.4622L540.271 11.4622ZM605.064 206.339L605.064 204.847L605.064 206.339ZM540.271 141.546L541.763 141.546V141.546L540.271 141.546ZM1488.24 206.339L1488.24 204.847L605.064 204.847L605.064 206.339L605.064 207.83L1488.24 207.83L1488.24 206.339ZM540.271 141.546L541.763 141.546L541.762 11.4622L540.271 11.4622L538.779 11.4623L538.78 141.546L540.271 141.546ZM475.478 -53.3302L475.478 -54.8218L389.997 -54.8218L389.997 -53.3303L389.997 -51.8387L475.478 -51.8387L475.478 -53.3302ZM540.271 11.4622L541.762 11.4622C541.762 -25.1454 512.086 -54.8218 475.478 -54.8218L475.478 -53.3302L475.478 -51.8387C510.438 -51.8387 538.779 -23.4979 538.779 11.4623L540.271 11.4622ZM605.064 206.339L605.064 204.847C570.104 204.847 541.763 176.506 541.763 141.546L540.271 141.546L538.78 141.546C538.78 178.154 568.456 207.83 605.064 207.83L605.064 206.339Z" fill="#9787F2"/>
<path d="M-103.668 97.6876L103.17 97.6877C138.954 97.6877 167.962 126.696 167.962 162.48L167.962 404.705C167.962 440.489 196.97 469.498 232.754 469.498L304.526 469.498C340.31 469.498 369.318 440.489 369.318 404.705L369.318 -13.2014C369.318 -48.9854 398.327 -77.994 434.111 -77.994L714.712 -77.9939C750.496 -77.9939 779.504 -107.003 779.504 -142.787L779.504 -321.969" stroke="#9787F2" stroke-width="2.98306"/>
<path d="M1217.11 -497.408L1217.11 -282.595C1217.11 -246.811 1188.1 -217.802 1152.31 -217.802L1141.01 -217.802C1105.23 -217.802 1076.22 -188.793 1076.22 -153.01L1076.22 113.637C1076.22 149.421 1047.21 178.43 1011.43 178.43L776.807 178.429C741.023 178.429 712.015 149.421 712.015 113.637L712.015 -128.964C712.015 -164.748 683.006 -193.757 647.222 -193.757L510.367 -193.757" stroke="#9787F2" stroke-width="2.98306"/>
<path d="M547.747 727.172L547.747 328.947C547.747 293.163 518.738 264.154 482.954 264.155L352.212 264.156C316.428 264.156 287.42 293.164 287.42 328.948L287.42 726.674" stroke="#9787F2" stroke-width="2.98306" stroke-linejoin="round"/>
<path d="M-8.97118 525.821C-9.79493 525.821 -10.4627 526.489 -10.4627 527.312C-10.4627 528.136 -9.79495 528.804 -8.9712 528.804L-8.97119 527.312L-8.97118 525.821ZM167.024 528.368C167.606 527.786 167.606 526.841 167.024 526.259L157.532 516.767C156.949 516.184 156.005 516.184 155.422 516.767C154.84 517.349 154.84 518.294 155.422 518.876L163.86 527.314L155.422 535.751C154.84 536.333 154.84 537.278 155.422 537.86C156.005 538.443 156.949 538.443 157.532 537.86L167.024 528.368ZM-8.97119 527.312L-8.9712 528.804L165.969 528.805L165.969 527.314L165.969 525.822L-8.97118 525.821L-8.97119 527.312Z" fill="#9787F2"/>
<path d="M-37.8789 47.3522C-38.7027 47.3522 -39.3704 48.02 -39.3704 48.8438C-39.3704 49.6675 -38.7027 50.3353 -37.8789 50.3353L-37.8789 48.8437L-37.8789 47.3522ZM297.107 49.8984C297.69 49.3159 297.69 48.3715 297.107 47.789L287.615 38.297C287.033 37.7145 286.088 37.7145 285.506 38.297C284.923 38.8795 284.923 39.8239 285.506 40.4064L293.943 48.8437L285.506 57.2811C284.923 57.8636 284.923 58.8079 285.506 59.3904C286.088 59.9729 287.033 59.9729 287.615 59.3904L297.107 49.8984ZM-37.8789 48.8437L-37.8789 50.3353L296.053 50.3352L296.053 48.8437L296.053 47.3522L-37.8789 47.3522L-37.8789 48.8437Z" fill="#9787F2"/>
<path d="M221.191 174.033L222.731 165.465H225.755L223.795 174.033H221.191Z" fill="#9787F2"/>
<path d="M328.846 583.722L330.386 575.154H333.41L331.45 583.722H328.846Z" fill="#9787F2"/>
<path d="M66.4111 391.215C63.7417 390.618 61.6697 389.367 60.1951 387.463C58.7391 385.559 58.0111 383.17 58.0111 380.295V375.255C58.0111 372.381 58.7391 369.991 60.1951 368.087C61.6697 366.183 63.7417 364.933 66.4111 364.335V366.771C65.2164 367.051 64.1711 367.583 63.2751 368.367C62.3977 369.151 61.7164 370.131 61.2311 371.307C60.7644 372.465 60.5311 373.781 60.5311 375.255V380.295C60.5311 381.751 60.7644 383.067 61.2311 384.243C61.7164 385.419 62.3977 386.399 63.2751 387.183C64.1711 387.967 65.2164 388.499 66.4111 388.779V391.215ZM72.8401 391.215V388.779C74.0535 388.499 75.0988 387.967 75.9761 387.183C76.8535 386.399 77.5255 385.419 77.9921 384.243C78.4775 383.067 78.7201 381.751 78.7201 380.295V375.255C78.7201 373.781 78.4775 372.465 77.9921 371.307C77.5255 370.131 76.8535 369.151 75.9761 368.367C75.0988 367.583 74.0535 367.051 72.8401 366.771V364.335C75.5095 364.933 77.5721 366.183 79.0281 368.087C80.5028 369.991 81.2401 372.381 81.2401 375.255V380.295C81.2401 383.17 80.5028 385.559 79.0281 387.463C77.5721 389.367 75.5095 390.618 72.8401 391.215ZM94.5292 376.375C93.9132 376.375 93.4092 376.179 93.0172 375.787C92.6252 375.395 92.4292 374.891 92.4292 374.275C92.4292 373.678 92.6252 373.183 93.0172 372.791C93.4278 372.381 93.9318 372.175 94.5292 372.175H95.0892C95.6865 372.175 96.1812 372.381 96.5732 372.791C96.9838 373.183 97.1892 373.678 97.1892 374.275C97.1892 374.891 96.9932 375.395 96.6012 375.787C96.2092 376.179 95.7052 376.375 95.0892 376.375H94.5292ZM92.1492 392.335L93.6892 383.767H96.7132L94.7532 392.335H92.1492Z" fill="#9787F2"/>
<path d="M438.025 65.1687C437.334 65.1687 436.774 64.9633 436.345 64.5527C435.934 64.142 435.729 63.61 435.729 62.9567C435.729 62.266 435.934 61.706 436.345 61.2767C436.774 60.8473 437.334 60.6327 438.025 60.6327C438.716 60.6327 439.266 60.8473 439.677 61.2767C440.106 61.706 440.321 62.266 440.321 62.9567C440.321 63.61 440.106 64.142 439.677 64.5527C439.266 64.9633 438.716 65.1687 438.025 65.1687ZM451.37 62.0047L449.438 60.6327L451.258 58.0287C451.501 57.6927 451.827 57.282 452.238 56.7967C452.667 56.3113 453.069 55.882 453.442 55.5087C452.919 55.434 452.369 55.322 451.79 55.1727C451.211 55.0233 450.754 54.8833 450.418 54.7527L447.422 53.6327L448.206 51.4207L451.23 52.5407C451.547 52.6527 451.967 52.83 452.49 53.0727C453.013 53.3153 453.489 53.5673 453.918 53.8287C453.825 53.3433 453.75 52.8487 453.694 52.3447C453.657 51.822 453.638 51.3833 453.638 51.0287V47.5287H455.99V51.0287C455.99 51.3833 455.962 51.822 455.906 52.3447C455.85 52.8487 455.775 53.3433 455.682 53.8287C456.13 53.5673 456.606 53.3153 457.11 53.0727C457.633 52.83 458.062 52.6527 458.398 52.5407L461.422 51.4207L462.206 53.6327L459.21 54.7527C458.874 54.8833 458.417 55.0233 457.838 55.1727C457.259 55.322 456.709 55.434 456.186 55.5087C456.559 55.882 456.961 56.3207 457.39 56.8247C457.819 57.31 458.146 57.7113 458.37 58.0287L460.19 60.6327L458.258 62.0047L456.438 59.3727C456.214 59.0553 455.943 58.6167 455.626 58.0567C455.309 57.4967 455.038 56.974 454.814 56.4887C454.59 56.974 454.319 57.4967 454.002 58.0567C453.685 58.598 453.414 59.0367 453.19 59.3727L451.37 62.0047Z" fill="#9787F2"/>
<rect x="40.9125" y="538.451" width="22.0823" height="45.0823" rx="11.0412" transform="rotate(-90 40.9125 538.451)" fill="#9787F2" stroke="#9787F2" stroke-width="1.91768"/>
</g>
<g opacity="0.7" filter="url(#filter0_f_10930_6527)">
<path d="M182.799 218.462C253.906 200.865 304.576 234.427 314.076 241.376C314.293 241.534 314.608 241.548 314.852 241.386C374.019 201.713 434.795 215.386 446.169 218.453C448.265 219.019 449.589 220.915 449.589 222.974V241.269C458.542 244.084 465.296 247.154 468.557 248.753C470.627 249.768 471.84 251.866 471.84 254.087V435.04C471.84 438.411 469.107 441.145 465.736 441.146H162.522C159.151 441.145 156.418 438.411 156.418 435.04V254.235C156.418 251.893 157.771 249.702 160.015 248.765C162.796 247.603 168.005 245.583 175.626 243.244C176.851 242.869 178.071 242.899 179.171 243.243V223.088C179.171 220.895 180.684 218.985 182.799 218.462Z" fill="#AEA0FF"/>
<path d="M182.799 218.462L180.888 210.741L180.888 210.741L182.799 218.462ZM314.076 241.376L318.772 234.956L318.772 234.956L314.076 241.376ZM314.852 241.386L319.271 247.998L319.281 247.992L314.852 241.386ZM446.169 218.453L448.24 210.774L448.24 210.774L446.169 218.453ZM449.589 222.974L457.542 222.974L457.542 222.974L449.589 222.974ZM449.589 241.269H441.635V247.105L447.203 248.856L449.589 241.269ZM468.557 248.753L472.059 241.612L472.059 241.612L468.557 248.753ZM471.84 254.087L479.793 254.087L479.793 254.086L471.84 254.087ZM465.736 441.146L465.736 449.099L465.737 449.099L465.736 441.146ZM162.522 441.146L162.522 449.099H162.522V441.146ZM156.418 254.235L148.464 254.235V254.235H156.418ZM160.015 248.765L156.949 241.426L156.949 241.426L160.015 248.765ZM175.626 243.244L173.294 235.64L173.293 235.641L175.626 243.244ZM179.171 243.243L176.796 250.834L187.124 254.066V243.243H179.171ZM182.799 218.462L184.709 226.183C252.46 209.416 300.663 241.419 309.381 247.796L314.076 241.376L318.772 234.956C308.49 227.436 255.352 192.314 180.888 210.741L182.799 218.462ZM314.076 241.376L309.381 247.795C312.288 249.922 316.245 250.021 319.271 247.998L314.852 241.386L310.432 234.773C312.972 233.076 316.297 233.147 318.772 234.956L314.076 241.376ZM314.852 241.386L319.281 247.992C375.565 210.252 433.483 223.27 444.098 226.132L446.169 218.453L448.24 210.774C436.106 207.502 372.472 193.174 310.422 234.78L314.852 241.386ZM446.169 218.453L444.098 226.132C442.505 225.702 441.635 224.279 441.635 222.974L449.589 222.974L457.542 222.974C457.542 217.552 454.026 212.335 448.24 210.774L446.169 218.453ZM449.589 222.974H441.635V241.269H449.589H457.542V222.974H449.589ZM449.589 241.269L447.203 248.856C455.687 251.523 462.062 254.427 465.055 255.894L468.557 248.753L472.059 241.612C468.53 239.881 461.398 236.644 451.975 233.681L449.589 241.269ZM468.557 248.753L465.055 255.894C464.252 255.5 463.886 254.732 463.886 254.087L471.84 254.087L479.793 254.086C479.793 249.001 477.003 244.036 472.059 241.612L468.557 248.753ZM471.84 254.087H463.886V435.04H471.84H479.793V254.087H471.84ZM471.84 435.04H463.886C463.886 434.022 464.712 433.192 465.736 433.192L465.736 441.146L465.737 449.099C473.503 449.099 479.793 442.801 479.793 435.04H471.84ZM465.736 441.146V433.192H162.522V441.146V449.099H465.736V441.146ZM162.522 441.146L162.523 433.192C163.545 433.192 164.371 434.02 164.371 435.04H156.418H148.464C148.464 442.802 154.757 449.099 162.522 449.099L162.522 441.146ZM156.418 435.04H164.371V254.235H156.418H148.464V435.04H156.418ZM156.418 254.235L164.371 254.236C164.371 254.921 163.959 255.736 163.081 256.103L160.015 248.765L156.949 241.426C151.582 243.668 148.465 248.865 148.464 254.235L156.418 254.235ZM160.015 248.765L163.08 256.104C165.63 255.039 170.594 253.108 177.959 250.848L175.626 243.244L173.293 235.641C165.415 238.058 159.963 240.167 156.949 241.426L160.015 248.765ZM175.626 243.244L177.958 250.848C177.613 250.954 177.192 250.958 176.796 250.834L179.171 243.243L181.546 235.653C178.95 234.84 176.088 234.783 173.294 235.64L175.626 243.244ZM179.171 243.243H187.124V223.088H179.171H171.217V243.243H179.171ZM179.171 223.088H187.124C187.124 224.585 186.113 225.835 184.709 226.183L182.799 218.462L180.888 210.741C175.256 212.135 171.217 217.205 171.217 223.088H179.171Z" fill="#AEA0FF"/>
</g>
<path d="M469.815 250.359C471.119 250.998 471.907 252.33 471.907 253.782V435.741C471.907 437.937 470.127 439.717 467.93 439.717H163.047C160.85 439.717 159.07 437.937 159.07 435.741V253.93C159.07 252.4 159.948 251.013 161.36 250.423C164.095 249.28 169.277 247.267 176.895 244.93C179.418 244.156 181.946 246.063 181.946 248.702V405.01C181.946 407.471 184.158 409.375 186.604 409.103C202.862 407.296 259.112 403.807 314.515 432.931C315.83 433.623 317.419 433.567 318.696 432.807C328.404 427.021 372.578 403.646 445.198 408.63C447.519 408.789 449.536 406.965 449.536 404.638V243.515C449.536 243.008 450.005 242.612 450.486 242.773C459.645 245.612 466.547 248.756 469.815 250.359Z" fill="#7C6BE4" stroke="#7C6BE4" stroke-width="4.25512" stroke-miterlimit="10"/>
<path d="M183.955 220.057C182.783 220.347 181.945 221.41 181.945 222.617V406.58C181.945 408.221 183.42 409.487 185.049 409.287C198.99 407.574 257.662 402.752 315.23 433.311C316.105 433.775 317.163 433.74 318.008 433.223C326.178 428.225 371.252 403.2 446.637 408.734C448.183 408.847 449.536 407.631 449.536 406.08V222.504C449.536 221.35 448.803 220.337 447.689 220.037C436.482 217.014 376.126 203.422 317.397 242.807C316.421 243.461 315.129 243.443 314.18 242.748C304.861 235.93 254.569 202.577 183.955 220.057Z" fill="#E4DFFF" stroke="#7C6BE4" stroke-width="4.25512" stroke-miterlimit="10"/>
<path d="M315.741 243.934V434.079" stroke="#7C6BE4" stroke-width="4.25512" stroke-miterlimit="10"/>
<path d="M206.87 265.456C206.87 265.456 254.714 259.206 297.942 280.404Z" fill="#E4DFFF"/>
<path d="M206.87 265.456C206.87 265.456 254.714 259.206 297.942 280.404" stroke="#7C6BE4" stroke-width="4.25512" stroke-miterlimit="10" stroke-linecap="round"/>
<path d="M206.87 294.387C206.87 294.387 254.714 288.138 297.942 309.336Z" fill="#E4DFFF"/>
<path d="M206.87 294.387C206.87 294.387 254.714 288.138 297.942 309.336" stroke="#7C6BE4" stroke-width="4.25512" stroke-miterlimit="10" stroke-linecap="round"/>
<path d="M206.87 323.336C206.87 323.336 254.714 317.087 297.942 338.285Z" fill="#E4DFFF"/>
<path d="M206.87 323.336C206.87 323.336 254.714 317.087 297.942 338.285" stroke="#7C6BE4" stroke-width="4.25512" stroke-miterlimit="10" stroke-linecap="round"/>
<path d="M206.87 352.268C206.87 352.268 254.714 346.018 297.942 367.217Z" fill="#E4DFFF"/>
<path d="M206.87 352.268C206.87 352.268 254.714 346.018 297.942 367.217" stroke="#7C6BE4" stroke-width="4.25512" stroke-miterlimit="10" stroke-linecap="round"/>
<path d="M422.904 265.456C422.904 265.456 375.059 259.206 331.832 280.404Z" fill="#E4DFFF"/>
<path d="M422.904 265.456C422.904 265.456 375.059 259.206 331.832 280.404" stroke="#7C6BE4" stroke-width="4.25512" stroke-miterlimit="10" stroke-linecap="round"/>
<path d="M422.904 294.387C422.904 294.387 375.059 288.138 331.832 309.336Z" fill="#E4DFFF"/>
<path d="M422.904 294.387C422.904 294.387 375.059 288.138 331.832 309.336" stroke="#7C6BE4" stroke-width="4.25512" stroke-miterlimit="10" stroke-linecap="round"/>
<path d="M422.904 323.336C422.904 323.336 375.059 317.087 331.832 338.285Z" fill="#E4DFFF"/>
<path d="M422.904 323.336C422.904 323.336 375.059 317.087 331.832 338.285" stroke="#7C6BE4" stroke-width="4.25512" stroke-miterlimit="10" stroke-linecap="round"/>
<path d="M422.904 352.268C422.904 352.268 375.059 346.018 331.832 367.217Z" fill="#E4DFFF"/>
<path d="M422.904 352.268C422.904 352.268 375.059 346.018 331.832 367.217" stroke="#7C6BE4" stroke-width="4.25512" stroke-miterlimit="10" stroke-linecap="round"/>
<defs>
<filter id="filter0_f_10930_6527" x="127.255" y="184.252" width="373.748" height="286.057" filterUnits="userSpaceOnUse" color-interpolation-filters="sRGB">
<feFlood flood-opacity="0" result="BackgroundImageFix"/>
<feBlend mode="normal" in="SourceGraphic" in2="BackgroundImageFix" result="shape"/>
<feGaussianBlur stdDeviation="10.6047" result="effect1_foregroundBlur_10930_6527"/>
</filter>
<linearGradient id="paint0_linear_10930_6527" x1="307.753" y1="-32.2631" x2="302.079" y2="763.324" gradientUnits="userSpaceOnUse">
<stop stop-color="#9683FF"/>
<stop offset="0.938633" stop-color="#D4CDFF"/>
</linearGradient>
<linearGradient id="paint1_linear_10930_6527" x1="306.771" y1="-32.1602" x2="301.115" y2="760.889" gradientUnits="userSpaceOnUse">
<stop stop-color="#9683FF"/>
<stop offset="0.938633" stop-color="#D4CDFF"/>
</linearGradient>
<clipPath id="clip0_10930_6527">
<rect width="625" height="625" fill="white"/>
</clipPath>
</defs>
</svg>
