<svg width="470" height="470" viewBox="0 0 470 470" fill="none" xmlns="http://www.w3.org/2000/svg">
<g clip-path="url(#clip0_10638_5861)">
<rect width="470" height="470" fill="#A899FF"/>
<g clip-path="url(#clip1_10638_5861)">
<rect width="470.175" height="470.175" transform="translate(0 -0.000976562)" fill="#A899FF"/>
<path d="M396.955 288.646L280.671 288.646C271.397 288.646 263.879 296.164 263.879 305.438L263.879 372.186C263.879 381.46 256.361 388.978 247.087 388.978L70.7715 388.978C61.4976 388.978 53.9795 381.46 53.9795 372.186L53.9796 270.595C53.9796 261.321 46.4615 253.803 37.1876 253.803L-47.1919 253.803C-56.4659 253.803 -63.9839 261.321 -63.9839 270.595L-63.9839 459.505C-63.9839 468.779 -56.4659 476.297 -47.1919 476.297L502.744 476.296C512.018 476.296 519.536 468.778 519.536 459.505L519.536 211.823C519.536 202.549 512.018 195.031 502.744 195.031L430.539 195.031C421.265 195.031 413.747 202.549 413.747 211.823L413.747 271.854C413.747 281.128 406.229 288.646 396.955 288.646Z" fill="#9787F2"/>
<rect x="333.985" y="404.988" width="199.824" height="98.2329" rx="16.792" fill="#A899FF"/>
<path d="M59.1914 97.812L59.1914 56.252C59.1914 46.978 66.7094 39.46 75.9834 39.46L314.849 39.46C324.123 39.46 331.641 46.9781 331.641 56.252L331.641 87.3171C331.641 96.591 339.159 104.109 348.433 104.109L549.096 104.109C558.37 104.109 565.888 96.591 565.888 87.3171L565.888 -13.4346C565.888 -22.7085 558.371 -30.2266 549.097 -30.2266L-58.772 -30.2265C-68.0459 -30.2265 -75.564 -22.7085 -75.564 -13.4346L-75.564 97.812C-75.564 107.086 -68.046 114.604 -58.772 114.604L42.3994 114.604C51.6734 114.604 59.1914 107.086 59.1914 97.812Z" fill="#9787F2"/>
</g>
<rect x="126.832" y="198.572" width="215.597" height="72.7708" fill="black"/>
<path d="M182.984 238.149H186.529C186.034 241.98 182.854 244.691 178.344 244.691C172.713 244.691 169.507 240.86 169.507 234.812C169.507 228.843 172.948 225.115 178.448 225.115C182.88 225.115 185.903 227.643 186.529 231.58H182.984C182.28 228.947 180.507 228.087 178.422 228.087C175.581 228.087 173.365 230.433 173.365 234.812C173.365 239.322 175.581 241.72 178.292 241.72C180.534 241.72 182.358 240.729 182.984 238.149ZM192.622 225.454V244.353H188.895V225.454H192.622ZM208.274 234.89C208.274 229.234 204.911 228.373 201.47 228.373H199.75V241.433H201.47C204.911 241.433 208.274 240.599 208.274 234.89ZM196.022 225.454H201.627C207.622 225.454 212.132 227.383 212.132 234.89C212.132 242.398 207.622 244.353 201.627 244.353H196.022V225.454ZM226.202 244.353L222.448 236.949H221.562H218.486V244.353H214.758V225.454H220.962C227.192 225.454 229.564 227.226 229.564 231.189C229.564 233.378 228.522 235.151 226.149 236.167L230.346 244.353H226.202ZM221.379 228.373H218.486V234.056H221.562C224.481 234.056 225.732 233.092 225.732 231.215C225.732 229.025 223.908 228.373 221.379 228.373ZM244.431 225.115C248.211 225.115 250.635 226.888 250.635 230.198C250.635 233.717 247.195 237.445 241.382 241.329H251.079V244.353H237.185V241.433C243.258 236.558 247.012 233.378 247.012 230.381C247.012 228.712 245.995 227.774 244.223 227.774C242.633 227.774 241.017 228.738 241.017 231.554H237.524C237.445 227.67 240.261 225.115 244.431 225.115ZM260.335 244.691C255.278 244.691 252.723 240.599 252.723 234.864C252.723 229.129 255.278 225.115 260.335 225.115C265.34 225.115 267.921 229.129 267.921 234.864C267.921 240.599 265.34 244.691 260.335 244.691ZM260.335 241.98C262.916 241.98 264.245 239.426 264.245 234.864C264.245 230.302 262.916 227.826 260.335 227.826C257.754 227.826 256.399 230.302 256.399 234.864C256.399 239.426 257.754 241.98 260.335 241.98ZM276.812 225.115C280.591 225.115 283.016 226.888 283.016 230.198C283.016 233.717 279.575 237.445 273.762 241.329H283.459V244.353H269.565V241.433C275.639 236.558 279.392 233.378 279.392 230.381C279.392 228.712 278.376 227.774 276.603 227.774C275.013 227.774 273.397 228.738 273.397 231.554H269.904C269.826 227.67 272.641 225.115 276.812 225.115ZM288.91 238.227C288.91 240.495 290.395 241.98 292.376 241.98C294.332 241.98 295.765 240.521 295.765 238.227C295.765 236.011 294.332 234.551 292.376 234.551C290.395 234.551 288.91 236.011 288.91 238.227ZM292.533 227.852C290.135 227.852 288.701 230.068 288.701 233.613C289.509 232.596 291.021 231.814 293.002 231.814C296.495 231.814 299.415 234.186 299.415 238.279C299.415 242.163 296.469 244.691 292.376 244.691C287.319 244.691 285.104 240.625 285.104 235.333C285.104 229.911 287.111 225.115 292.767 225.115C296.886 225.115 298.815 227.904 299.024 230.328H295.505C295.322 228.764 294.097 227.852 292.533 227.852Z" fill="#A899FF"/>
</g>
<defs>
<clipPath id="clip0_10638_5861">
<rect width="470" height="470" fill="white"/>
</clipPath>
<clipPath id="clip1_10638_5861">
<rect width="470.175" height="470.175" fill="white" transform="translate(0 -0.000976562)"/>
</clipPath>
</defs>
</svg>
