<svg width="627" height="627" viewBox="0 0 627 627" fill="none" xmlns="http://www.w3.org/2000/svg">
<rect width="627" height="627" fill="url(#paint0_linear_10904_38175)"/>
<g clip-path="url(#clip0_10904_38175)">
<rect width="625" height="625" fill="url(#paint1_linear_10904_38175)"/>
<path d="M1488.24 207.83C1489.06 207.83 1489.73 207.162 1489.73 206.339C1489.73 205.515 1489.06 204.847 1488.24 204.847L1488.24 206.339L1488.24 207.83ZM388.943 -54.3849C388.36 -53.8024 388.36 -52.8581 388.943 -52.2756L398.435 -42.7836C399.017 -42.2011 399.961 -42.2011 400.544 -42.7836C401.126 -43.366 401.126 -44.3104 400.544 -44.8929L392.107 -53.3303L400.544 -61.7676C401.126 -62.3501 401.126 -63.2945 400.544 -63.877C399.961 -64.4594 399.017 -64.4594 398.435 -63.877L388.943 -54.3849ZM540.271 11.4622L541.762 11.4622L540.271 11.4622ZM605.064 206.339L605.064 204.847L605.064 206.339ZM540.271 141.546L541.763 141.546L540.271 141.546ZM1488.24 206.339L1488.24 204.847L605.064 204.847L605.064 206.339L605.064 207.83L1488.24 207.83L1488.24 206.339ZM540.271 141.546L541.763 141.546L541.762 11.4622L540.271 11.4622L538.779 11.4623L538.78 141.546L540.271 141.546ZM475.478 -53.3302L475.478 -54.8218L389.997 -54.8218L389.997 -53.3303L389.997 -51.8387L475.478 -51.8387L475.478 -53.3302ZM540.271 11.4622L541.762 11.4622C541.762 -25.1454 512.086 -54.8218 475.478 -54.8218L475.478 -53.3302L475.478 -51.8387C510.438 -51.8387 538.779 -23.4979 538.779 11.4623L540.271 11.4622ZM605.064 206.339L605.064 204.847C570.104 204.847 541.763 176.506 541.763 141.546L540.271 141.546L538.78 141.546C538.78 178.154 568.456 207.83 605.064 207.83L605.064 206.339Z" fill="#9787F2"/>
<path d="M-103.668 97.6876L103.17 97.6877C138.954 97.6877 167.962 126.696 167.962 162.48L167.962 404.705C167.962 440.489 196.97 469.498 232.754 469.498L304.526 469.498C340.31 469.498 369.318 440.489 369.318 404.705L369.318 -13.2014C369.318 -48.9854 398.327 -77.994 434.111 -77.994L714.712 -77.9939C750.496 -77.9939 779.504 -107.003 779.504 -142.787L779.504 -321.969" stroke="#9787F2" stroke-width="2.98306"/>
<path d="M1217.11 -497.408L1217.11 -282.595C1217.11 -246.811 1188.1 -217.802 1152.31 -217.802L1141.01 -217.802C1105.23 -217.802 1076.22 -188.793 1076.22 -153.01L1076.22 113.637C1076.22 149.421 1047.21 178.43 1011.43 178.43L776.807 178.429C741.023 178.429 712.015 149.421 712.015 113.637L712.015 -128.964C712.015 -164.748 683.006 -193.757 647.222 -193.757L510.367 -193.757" stroke="#9787F2" stroke-width="2.98306"/>
<path d="M547.747 727.172L547.747 328.947C547.747 293.163 518.738 264.154 482.954 264.155L352.212 264.156C316.428 264.156 287.42 293.164 287.42 328.948L287.42 726.674" stroke="#9787F2" stroke-width="2.98306" stroke-linejoin="round"/>
<path d="M-8.97118 525.821C-9.79493 525.821 -10.4627 526.489 -10.4627 527.312C-10.4627 528.136 -9.79495 528.804 -8.9712 528.804L-8.97119 527.312L-8.97118 525.821ZM167.024 528.368C167.606 527.786 167.606 526.841 167.024 526.259L157.532 516.767C156.949 516.184 156.005 516.184 155.422 516.767C154.84 517.349 154.84 518.294 155.422 518.876L163.86 527.314L155.422 535.751C154.84 536.333 154.84 537.278 155.422 537.86C156.005 538.443 156.949 538.443 157.532 537.86L167.024 528.368ZM-8.97119 527.312L-8.9712 528.804L165.969 528.805L165.969 527.314L165.969 525.822L-8.97118 525.821L-8.97119 527.312Z" fill="#9787F2"/>
<path d="M-37.8789 47.3522C-38.7027 47.3522 -39.3704 48.02 -39.3704 48.8438C-39.3704 49.6675 -38.7027 50.3353 -37.8789 50.3353L-37.8789 48.8437L-37.8789 47.3522ZM297.107 49.8984C297.69 49.3159 297.69 48.3715 297.107 47.789L287.615 38.297C287.033 37.7145 286.088 37.7145 285.506 38.297C284.923 38.8795 284.923 39.8239 285.506 40.4064L293.943 48.8437L285.506 57.2811C284.923 57.8636 284.923 58.8079 285.506 59.3904C286.088 59.9729 287.033 59.9729 287.615 59.3904L297.107 49.8984ZM-37.8789 48.8437L-37.8789 50.3353L296.053 50.3352L296.053 48.8437L296.053 47.3522L-37.8789 47.3522L-37.8789 48.8437Z" fill="#9787F2"/>
<path d="M219.931 174.033L222.171 165.325H225.811L222.171 174.033H219.931Z" fill="#9787F2"/>
<path d="M327.586 583.722L329.826 575.014H333.466L329.826 583.722H327.586Z" fill="#9787F2"/>
<path d="M66.4111 391.215C63.7604 390.562 61.6977 389.274 60.2231 387.351C58.7484 385.429 58.0111 383.077 58.0111 380.295V375.255C58.0111 373.426 58.3471 371.774 59.0191 370.299C59.7097 368.806 60.6804 367.546 61.9311 366.519C63.2004 365.493 64.6937 364.765 66.4111 364.335V366.715C65.2164 366.995 64.1804 367.537 63.3031 368.339C62.4257 369.123 61.7444 370.103 61.2591 371.279C60.7737 372.455 60.5311 373.781 60.5311 375.255V380.295C60.5311 381.733 60.7644 383.039 61.2311 384.215C61.7164 385.391 62.3977 386.371 63.2751 387.155C64.1711 387.921 65.2164 388.443 66.4111 388.723V391.215ZM72.8401 391.215V388.723C74.0535 388.443 75.0988 387.921 75.9761 387.155C76.8535 386.371 77.5255 385.391 77.9921 384.215C78.4775 383.039 78.7201 381.733 78.7201 380.295V375.255C78.7201 373.781 78.4775 372.455 77.9921 371.279C77.5068 370.103 76.8255 369.123 75.9481 368.339C75.0708 367.537 74.0348 366.995 72.8401 366.715V364.335C74.5761 364.765 76.0695 365.493 77.3201 366.519C78.5708 367.546 79.5321 368.806 80.2041 370.299C80.8948 371.774 81.2401 373.426 81.2401 375.255V380.295C81.2401 383.077 80.5028 385.429 79.0281 387.351C77.5535 389.274 75.4908 390.562 72.8401 391.215ZM91.1692 392.335L93.4092 383.627H97.0492L93.4092 392.335H91.1692ZM94.5292 376.375C93.9132 376.375 93.4092 376.179 93.0172 375.787C92.6252 375.395 92.4292 374.891 92.4292 374.275C92.4292 373.678 92.6252 373.183 93.0172 372.791C93.4278 372.381 93.9318 372.175 94.5292 372.175H95.0892C95.6865 372.175 96.1812 372.381 96.5732 372.791C96.9838 373.183 97.1892 373.678 97.1892 374.275C97.1892 374.891 96.9932 375.395 96.6012 375.787C96.2092 376.179 95.7052 376.375 95.0892 376.375H94.5292Z" fill="#9787F2"/>
<path d="M438.025 65.1687C437.316 65.1687 436.746 64.9633 436.317 64.5527C435.906 64.142 435.701 63.5913 435.701 62.9007C435.701 62.1727 435.906 61.594 436.317 61.1647C436.746 60.7353 437.316 60.5207 438.025 60.5207C438.734 60.5207 439.294 60.7353 439.705 61.1647C440.134 61.594 440.349 62.1727 440.349 62.9007C440.349 63.5913 440.134 64.142 439.705 64.5527C439.294 64.9633 438.734 65.1687 438.025 65.1687ZM451.482 62.2567L449.466 60.8567L450.978 58.6727C451.221 58.318 451.51 57.9727 451.846 57.6367C452.182 57.282 452.518 56.9553 452.854 56.6567C453.209 56.3393 453.517 56.0687 453.778 55.8447L453.694 55.6487C453.339 55.6113 452.938 55.574 452.49 55.5367C452.042 55.4807 451.585 55.406 451.118 55.3127C450.67 55.2007 450.25 55.0793 449.858 54.9487L447.394 54.0527L448.234 51.7287L450.698 52.6247C451.09 52.7553 451.491 52.942 451.902 53.1847C452.331 53.4087 452.742 53.6513 453.134 53.9127C453.526 54.1553 453.862 54.3887 454.142 54.6127L454.282 54.5007C454.189 54.146 454.086 53.7447 453.974 53.2967C453.862 52.83 453.769 52.354 453.694 51.8687C453.619 51.3647 453.582 50.898 453.582 50.4687V47.8087H456.046V50.4687C456.046 50.898 456.009 51.3647 455.934 51.8687C455.859 52.354 455.766 52.83 455.654 53.2967C455.542 53.7447 455.43 54.146 455.318 54.5007L455.458 54.6127C455.757 54.3887 456.093 54.1553 456.466 53.9127C456.858 53.6513 457.259 53.4087 457.67 53.1847C458.099 52.942 458.51 52.7553 458.902 52.6247L461.394 51.7287L462.234 54.0527L459.742 54.9487C459.369 55.0793 458.949 55.2007 458.482 55.3127C458.034 55.406 457.586 55.4807 457.138 55.5367C456.69 55.574 456.289 55.6113 455.934 55.6487L455.822 55.8727C456.102 56.0967 456.41 56.3673 456.746 56.6847C457.101 56.9833 457.437 57.31 457.754 57.6647C458.09 58.0007 458.37 58.3367 458.594 58.6727L460.134 60.8567L458.118 62.2567L456.578 60.0727C456.354 59.7367 456.13 59.354 455.906 58.9247C455.701 58.4953 455.505 58.066 455.318 57.6367C455.15 57.2073 455.01 56.8247 454.898 56.4887H454.702C454.59 56.8247 454.441 57.2073 454.254 57.6367C454.086 58.066 453.89 58.4953 453.666 58.9247C453.461 59.354 453.237 59.7367 452.994 60.0727L451.482 62.2567Z" fill="#9787F2"/>
<rect x="40.9125" y="538.451" width="22.0823" height="45.0823" rx="11.0412" transform="rotate(-90 40.9125 538.451)" fill="#9787F2" stroke="#9787F2" stroke-width="1.91768"/>
</g>
<defs>
<linearGradient id="paint0_linear_10904_38175" x1="307.753" y1="-32.2631" x2="302.079" y2="763.324" gradientUnits="userSpaceOnUse">
<stop stop-color="#9683FF"/>
<stop offset="0.938633" stop-color="#D4CDFF"/>
</linearGradient>
<linearGradient id="paint1_linear_10904_38175" x1="306.771" y1="-32.1602" x2="301.115" y2="760.889" gradientUnits="userSpaceOnUse">
<stop stop-color="#9683FF"/>
<stop offset="0.938633" stop-color="#D4CDFF"/>
</linearGradient>
<clipPath id="clip0_10904_38175">
<rect width="625" height="625" fill="white"/>
</clipPath>
</defs>
</svg>
