<svg width="627" height="627" viewBox="0 0 627 627" fill="none" xmlns="http://www.w3.org/2000/svg">
<rect width="627" height="627" fill="url(#paint0_linear_10904_37594)"/>
<g clip-path="url(#clip0_10904_37594)">
<rect width="625" height="625" fill="url(#paint1_linear_10904_37594)"/>
<path d="M360.405 569.236C360.987 568.654 360.987 567.709 360.405 567.127L350.913 557.635C350.33 557.052 349.386 557.052 348.803 557.635C348.221 558.217 348.221 559.162 348.803 559.744L357.241 568.182L348.803 576.619C348.221 577.201 348.221 578.146 348.803 578.728C349.386 579.311 350.33 579.311 350.913 578.728L360.405 569.236ZM359.35 568.182L359.35 566.69L-115.63 566.69L-115.63 568.182L-115.63 569.673L359.35 569.673L359.35 568.182Z" fill="#9787F2"/>
<path d="M444.137 256.124C443.554 255.542 442.61 255.542 442.027 256.124L432.535 265.616C431.953 266.199 431.953 267.143 432.535 267.725C433.118 268.308 434.062 268.308 434.645 267.725L443.082 259.288L451.519 267.725C452.102 268.308 453.046 268.308 453.629 267.725C454.211 267.143 454.211 266.199 453.629 265.616L444.137 256.124ZM153.801 435.608L155.292 435.608L153.801 435.608ZM153.801 363.339L152.309 363.339L152.309 435.608L153.801 435.608L155.292 435.608L155.292 363.339L153.801 363.339ZM218.594 500.4L218.594 501.892L378.289 501.892L378.289 500.4L378.289 498.909L218.594 498.909L218.594 500.4ZM443.082 435.608L444.573 435.608L444.573 257.179L443.082 257.179L441.59 257.179L441.59 435.608L443.082 435.608ZM89.008 298.546L89.008 297.055L-47.8477 297.055L-47.8477 298.546L-47.8477 300.038L89.008 300.038L89.008 298.546ZM378.289 500.4L378.289 501.892C414.897 501.892 444.573 472.215 444.573 435.608L443.082 435.608L441.59 435.608C441.59 470.568 413.249 498.909 378.289 498.909L378.289 500.4ZM153.801 435.608L152.309 435.608C152.31 472.215 181.986 501.892 218.594 501.892L218.594 500.4L218.594 498.909C183.633 498.909 155.293 470.568 155.292 435.608L153.801 435.608ZM153.801 363.339L155.292 363.339C155.292 326.731 125.616 297.055 89.008 297.055L89.008 298.546L89.008 300.038C123.968 300.038 152.309 328.379 152.309 363.339L153.801 363.339Z" fill="#9787F2"/>
<path d="M613.756 -184.901C613.174 -185.484 612.23 -185.484 611.647 -184.901L602.155 -175.409C601.573 -174.827 601.573 -173.882 602.155 -173.3C602.738 -172.717 603.682 -172.717 604.264 -173.3L612.702 -181.737L621.139 -173.3C621.722 -172.717 622.666 -172.717 623.248 -173.3C623.831 -173.882 623.831 -174.827 623.248 -175.409L613.756 -184.901ZM200.163 -155.502L198.671 -155.502L200.163 -155.502ZM135.37 -220.295L135.37 -218.804L135.37 -220.295ZM200.163 -155.502L198.671 -155.502L198.671 -4.98442L200.163 -4.98442L201.654 -4.98442L201.654 -155.502L200.163 -155.502ZM264.955 59.8082L264.955 61.2997L547.909 61.3L547.909 59.8085L547.909 58.317L264.955 58.3167L264.955 59.8082ZM612.702 -4.98419L614.193 -4.98419L614.193 -183.846L612.702 -183.846L611.21 -183.846L611.21 -4.98419L612.702 -4.98419ZM135.37 -220.295L135.37 -221.787L-28.2473 -221.787L-28.2473 -220.295L-28.2473 -218.804L135.37 -218.804L135.37 -220.295ZM547.909 59.8085L547.909 61.3C584.517 61.3001 614.193 31.6236 614.193 -4.98419L612.702 -4.98419L611.21 -4.98419C611.21 29.9761 582.869 58.317 547.909 58.317L547.909 59.8085ZM200.163 -4.98442L198.671 -4.98442C198.671 31.6233 228.348 61.2997 264.955 61.2997L264.955 59.8082L264.955 58.3167C229.995 58.3166 201.654 29.9758 201.654 -4.98442L200.163 -4.98442ZM200.163 -155.502L201.654 -155.502C201.654 -192.11 171.978 -221.787 135.37 -221.787L135.37 -220.295L135.37 -218.804C170.33 -218.804 198.671 -190.463 198.671 -155.502L200.163 -155.502Z" fill="#9787F2"/>
<path d="M383.772 1103.47L383.772 888.655C383.772 852.871 412.78 823.862 448.564 823.862L459.867 823.862C495.651 823.862 524.659 794.854 524.659 759.07L524.659 529.802C524.659 494.018 553.668 465.01 589.452 465.01L850.28 465.01C886.064 465.01 915.073 436.001 915.073 400.217L915.072 -60.8087C915.072 -96.5928 944.081 -125.601 979.865 -125.601L1090.51 -125.601" stroke="#9787F2" stroke-width="2.98306"/>
<rect x="32.8565" y="581.178" width="26.9898" height="55.8973" rx="13.4949" transform="rotate(-90 32.8565 581.178)" fill="#9787F2" stroke="#9787F2" stroke-width="1.91768"/>
<path d="M74.3852 181.885C71.7345 181.232 69.6718 179.944 68.1972 178.021C66.7225 176.099 65.9852 173.747 65.9852 170.965V165.925C65.9852 164.096 66.3212 162.444 66.9932 160.969C67.6838 159.476 68.6545 158.216 69.9052 157.189C71.1745 156.163 72.6678 155.435 74.3852 155.005V157.385C73.1905 157.665 72.1545 158.207 71.2772 159.009C70.3998 159.793 69.7185 160.773 69.2332 161.949C68.7478 163.125 68.5052 164.451 68.5052 165.925V170.965C68.5052 172.403 68.7385 173.709 69.2052 174.885C69.6905 176.061 70.3718 177.041 71.2492 177.825C72.1452 178.591 73.1905 179.113 74.3852 179.393V181.885ZM80.8142 181.885V179.393C82.0276 179.113 83.0729 178.591 83.9502 177.825C84.8276 177.041 85.4996 176.061 85.9662 174.885C86.4516 173.709 86.6942 172.403 86.6942 170.965V165.925C86.6942 164.451 86.4516 163.125 85.9662 161.949C85.4809 160.773 84.7996 159.793 83.9222 159.009C83.0449 158.207 82.0089 157.665 80.8142 157.385V155.005C82.5502 155.435 84.0436 156.163 85.2942 157.189C86.5449 158.216 87.5062 159.476 88.1782 160.969C88.8689 162.444 89.2142 164.096 89.2142 165.925V170.965C89.2142 173.747 88.4769 176.099 87.0022 178.021C85.5276 179.944 83.4649 181.232 80.8142 181.885ZM99.1433 183.005L101.383 174.297H105.023L101.383 183.005H99.1433ZM102.503 167.045C101.887 167.045 101.383 166.849 100.991 166.457C100.599 166.065 100.403 165.561 100.403 164.945C100.403 164.348 100.599 163.853 100.991 163.461C101.402 163.051 101.906 162.845 102.503 162.845H103.063C103.661 162.845 104.155 163.051 104.547 163.461C104.958 163.853 105.163 164.348 105.163 164.945C105.163 165.561 104.967 166.065 104.575 166.457C104.183 166.849 103.679 167.045 103.063 167.045H102.503Z" fill="#9787F2"/>
<path d="M210.528 337.105C209.427 337.105 208.475 336.919 207.672 336.545C206.888 336.191 206.291 335.659 205.88 334.949C205.47 334.259 205.292 333.428 205.348 332.457L205.628 327.865C205.684 326.876 205.535 326.167 205.18 325.737C204.826 325.289 204.042 325.065 202.828 325.065H199.748V322.825H202.828C204.042 322.825 204.826 322.611 205.18 322.181C205.535 321.733 205.684 321.015 205.628 320.025L205.348 315.433C205.292 314.444 205.47 313.604 205.88 312.913C206.291 312.223 206.888 311.7 207.672 311.345C208.475 310.972 209.427 310.785 210.528 310.785H211.788V313.025H210.528C209.651 313.025 208.979 313.231 208.512 313.641C208.046 314.033 207.831 314.631 207.868 315.433L208.148 320.025C208.223 321.239 207.934 322.209 207.28 322.937C206.627 323.647 205.703 324.001 204.508 324.001V323.861C205.684 323.861 206.599 324.225 207.252 324.953C207.924 325.681 208.223 326.652 208.148 327.865L207.868 332.457C207.831 333.26 208.046 333.857 208.512 334.249C208.979 334.66 209.651 334.865 210.528 334.865H211.788V337.105H210.528ZM216.537 337.105V334.865H217.797C218.675 334.865 219.347 334.66 219.813 334.249C220.28 333.857 220.495 333.26 220.457 332.457L220.177 327.865C220.103 326.652 220.392 325.681 221.045 324.953C221.717 324.225 222.641 323.861 223.817 323.861V324.001C222.623 324.001 221.699 323.647 221.045 322.937C220.392 322.209 220.103 321.239 220.177 320.025L220.457 315.433C220.495 314.631 220.28 314.033 219.813 313.641C219.347 313.231 218.675 313.025 217.797 313.025H216.537V310.785H217.797C218.899 310.785 219.841 310.972 220.625 311.345C221.428 311.7 222.035 312.223 222.445 312.913C222.856 313.604 223.033 314.444 222.977 315.433L222.697 320.025C222.641 321.015 222.791 321.733 223.145 322.181C223.5 322.611 224.284 322.825 225.497 322.825H228.577V325.065H225.497C224.303 325.065 223.519 325.289 223.145 325.737C222.791 326.167 222.641 326.876 222.697 327.865L222.977 332.457C223.033 333.428 222.856 334.259 222.445 334.949C222.035 335.659 221.428 336.191 220.625 336.545C219.841 336.919 218.899 337.105 217.797 337.105H216.537Z" fill="#9787F2"/>
</g>
<g opacity="0.7" filter="url(#filter0_f_10904_37594)">
<path d="M182.799 218.462C253.906 200.865 304.576 234.427 314.076 241.376C314.293 241.534 314.608 241.548 314.851 241.386C374.019 201.713 434.795 215.386 446.169 218.453C448.265 219.019 449.589 220.915 449.589 222.974V241.269C458.542 244.084 465.296 247.154 468.556 248.753C470.627 249.768 471.839 251.866 471.84 254.087V435.04C471.84 438.411 469.107 441.145 465.736 441.146H162.522C159.151 441.145 156.418 438.411 156.418 435.04V254.235C156.418 251.893 157.77 249.702 160.014 248.765C162.796 247.603 168.005 245.583 175.626 243.244C176.85 242.869 178.071 242.899 179.171 243.243V223.088C179.171 220.895 180.684 218.985 182.799 218.462Z" fill="#AEA0FF"/>
<path d="M182.799 218.462L180.888 210.741L180.888 210.741L182.799 218.462ZM314.076 241.376L318.771 234.956L318.771 234.956L314.076 241.376ZM314.851 241.386L319.271 247.999L319.281 247.992L314.851 241.386ZM446.169 218.453L448.24 210.774L448.239 210.774L446.169 218.453ZM449.589 222.974H457.542V222.974L449.589 222.974ZM449.589 241.269H441.635V247.105L447.203 248.856L449.589 241.269ZM468.556 248.753L472.058 241.612L472.058 241.612L468.556 248.753ZM471.84 254.087H479.793V254.086L471.84 254.087ZM465.736 441.146V449.099H465.736L465.736 441.146ZM162.522 441.146L162.522 449.099H162.522V441.146ZM156.418 254.235L148.464 254.235V254.235H156.418ZM160.014 248.765L156.949 241.426L156.948 241.426L160.014 248.765ZM175.626 243.244L173.294 235.64L173.293 235.641L175.626 243.244ZM179.171 243.243L176.796 250.834L187.124 254.066V243.243H179.171ZM182.799 218.462L184.709 226.183C252.46 209.416 300.662 241.419 309.38 247.796L314.076 241.376L318.771 234.956C308.49 227.436 255.351 192.314 180.888 210.741L182.799 218.462ZM314.076 241.376L309.38 247.795C312.288 249.922 316.244 250.021 319.271 247.999L314.851 241.386L310.432 234.773C312.972 233.076 316.297 233.147 318.771 234.956L314.076 241.376ZM314.851 241.386L319.281 247.992C375.565 210.252 433.483 223.27 444.098 226.132L446.169 218.453L448.239 210.774C436.106 207.502 372.472 193.174 310.422 234.78L314.851 241.386ZM446.169 218.453L444.097 226.132C442.504 225.702 441.635 224.279 441.635 222.974L449.589 222.974L457.542 222.974C457.542 217.552 454.025 212.335 448.24 210.774L446.169 218.453ZM449.589 222.974H441.635V241.269H449.589H457.542V222.974H449.589ZM449.589 241.269L447.203 248.856C455.687 251.523 462.062 254.427 465.055 255.894L468.556 248.753L472.058 241.612C468.53 239.881 461.397 236.644 451.974 233.681L449.589 241.269ZM468.556 248.753L465.054 255.894C464.251 255.5 463.886 254.732 463.886 254.087L471.84 254.087L479.793 254.086C479.793 249.001 477.002 244.036 472.058 241.612L468.556 248.753ZM471.84 254.087H463.886V435.04H471.84H479.793V254.087H471.84ZM471.84 435.04H463.886C463.886 434.022 464.712 433.192 465.736 433.192L465.736 441.146L465.736 449.099C473.503 449.099 479.793 442.801 479.793 435.04H471.84ZM465.736 441.146V433.192H162.522V441.146V449.099H465.736V441.146ZM162.522 441.146L162.522 433.192C163.545 433.192 164.371 434.02 164.371 435.04H156.418H148.464C148.464 442.802 154.757 449.099 162.522 449.099L162.522 441.146ZM156.418 435.04H164.371V254.235H156.418H148.464V435.04H156.418ZM156.418 254.235L164.371 254.236C164.371 254.921 163.959 255.736 163.08 256.103L160.014 248.765L156.948 241.426C151.582 243.668 148.464 248.864 148.464 254.235L156.418 254.235ZM160.014 248.765L163.08 256.104C165.63 255.039 170.594 253.108 177.959 250.848L175.626 243.244L173.293 235.641C165.415 238.058 159.962 240.167 156.949 241.426L160.014 248.765ZM175.626 243.244L177.958 250.848C177.612 250.954 177.192 250.958 176.796 250.834L179.171 243.243L181.546 235.653C178.95 234.84 176.088 234.783 173.294 235.64L175.626 243.244ZM179.171 243.243H187.124V223.088H179.171H171.217V243.243H179.171ZM179.171 223.088H187.124C187.124 224.585 186.112 225.835 184.709 226.183L182.799 218.462L180.888 210.741C175.256 212.135 171.217 217.205 171.217 223.088H179.171Z" fill="#AEA0FF"/>
</g>
<path d="M469.815 250.359C471.119 250.998 471.907 252.33 471.907 253.782V435.741C471.907 437.937 470.127 439.717 467.93 439.717H163.047C160.85 439.717 159.07 437.937 159.07 435.741V253.93C159.07 252.4 159.948 251.013 161.36 250.423C164.095 249.28 169.277 247.267 176.895 244.93C179.418 244.156 181.946 246.063 181.946 248.702V405.01C181.946 407.471 184.158 409.375 186.604 409.103C202.862 407.296 259.112 403.807 314.515 432.931C315.83 433.623 317.419 433.567 318.696 432.807C328.404 427.021 372.578 403.646 445.198 408.63C447.519 408.789 449.536 406.965 449.536 404.638V243.515C449.536 243.008 450.005 242.612 450.486 242.773C459.645 245.612 466.547 248.756 469.815 250.359Z" fill="#7C6BE4" stroke="#7C6BE4" stroke-width="4.25512" stroke-miterlimit="10"/>
<path d="M183.955 220.057C182.783 220.347 181.945 221.41 181.945 222.617V406.58C181.945 408.221 183.42 409.487 185.048 409.287C198.99 407.574 257.662 402.752 315.23 433.311C316.105 433.775 317.163 433.74 318.008 433.223C326.177 428.225 371.251 403.2 446.636 408.734C448.183 408.847 449.536 407.631 449.536 406.08V222.504C449.536 221.35 448.802 220.337 447.688 220.037C436.482 217.014 376.126 203.422 317.397 242.807C316.421 243.461 315.129 243.443 314.18 242.748C304.861 235.93 254.569 202.577 183.955 220.057Z" fill="#E4DFFF" stroke="#7C6BE4" stroke-width="4.25512" stroke-miterlimit="10"/>
<path d="M315.741 243.934V434.079" stroke="#7C6BE4" stroke-width="4.25512" stroke-miterlimit="10"/>
<path d="M206.87 265.456C206.87 265.456 254.714 259.206 297.942 280.404L206.87 265.456Z" fill="#E4DFFF"/>
<path d="M206.87 265.456C206.87 265.456 254.714 259.206 297.942 280.404" stroke="#7C6BE4" stroke-width="4.25512" stroke-miterlimit="10" stroke-linecap="round"/>
<path d="M206.87 294.387C206.87 294.387 254.714 288.138 297.942 309.336L206.87 294.387Z" fill="#E4DFFF"/>
<path d="M206.87 294.387C206.87 294.387 254.714 288.138 297.942 309.336" stroke="#7C6BE4" stroke-width="4.25512" stroke-miterlimit="10" stroke-linecap="round"/>
<path d="M206.87 323.336C206.87 323.336 254.714 317.087 297.942 338.285L206.87 323.336Z" fill="#E4DFFF"/>
<path d="M206.87 323.336C206.87 323.336 254.714 317.087 297.942 338.285" stroke="#7C6BE4" stroke-width="4.25512" stroke-miterlimit="10" stroke-linecap="round"/>
<path d="M206.87 352.268C206.87 352.268 254.714 346.018 297.942 367.217L206.87 352.268Z" fill="#E4DFFF"/>
<path d="M206.87 352.268C206.87 352.268 254.714 346.018 297.942 367.217" stroke="#7C6BE4" stroke-width="4.25512" stroke-miterlimit="10" stroke-linecap="round"/>
<path d="M422.904 265.456C422.904 265.456 375.059 259.206 331.832 280.404L422.904 265.456Z" fill="#E4DFFF"/>
<path d="M422.904 265.456C422.904 265.456 375.059 259.206 331.832 280.404" stroke="#7C6BE4" stroke-width="4.25512" stroke-miterlimit="10" stroke-linecap="round"/>
<path d="M422.904 294.387C422.904 294.387 375.059 288.138 331.832 309.336L422.904 294.387Z" fill="#E4DFFF"/>
<path d="M422.904 294.387C422.904 294.387 375.059 288.138 331.832 309.336" stroke="#7C6BE4" stroke-width="4.25512" stroke-miterlimit="10" stroke-linecap="round"/>
<path d="M422.904 323.336C422.904 323.336 375.059 317.087 331.832 338.285L422.904 323.336Z" fill="#E4DFFF"/>
<path d="M422.904 323.336C422.904 323.336 375.059 317.087 331.832 338.285" stroke="#7C6BE4" stroke-width="4.25512" stroke-miterlimit="10" stroke-linecap="round"/>
<path d="M422.904 352.268C422.904 352.268 375.059 346.018 331.832 367.217L422.904 352.268Z" fill="#E4DFFF"/>
<path d="M422.904 352.268C422.904 352.268 375.059 346.018 331.832 367.217" stroke="#7C6BE4" stroke-width="4.25512" stroke-miterlimit="10" stroke-linecap="round"/>
<rect x="30.6514" y="26.6172" width="272.023" height="58.1163" rx="29.0581" fill="#7C6BE4"/>
<path d="M67.0917 55.4392C67.0917 51.4121 64.6977 50.7996 62.248 50.7996H61.0232V60.0973H62.248C64.6977 60.0973 67.0917 59.5034 67.0917 55.4392ZM58.3694 48.7211H62.3594C66.6277 48.7211 69.8383 50.0944 69.8383 55.4392C69.8383 60.7839 66.6277 62.1758 62.3594 62.1758H58.3694V48.7211ZM77.5776 62.1758V60.8582C77.0023 61.8789 75.9074 62.417 74.664 62.417C72.27 62.417 71.305 60.9509 71.305 58.5013V52.1915H73.866V57.9445C73.866 59.2807 74.0701 60.3571 75.4991 60.3571C77.2065 60.3571 77.5776 58.9652 77.5776 57.3878V52.1915H80.1386V62.1758H77.5776ZM86.7968 51.9688C88.8939 51.9688 90.9724 53.138 91.325 55.6062H88.8753C88.6712 54.6412 87.7804 53.9545 86.7968 53.9545C85.4606 53.9545 84.4028 55.0866 84.4028 57.1651C84.4028 59.2622 85.4049 60.4313 86.8154 60.4313C87.7062 60.4313 88.6155 59.9674 88.9681 58.7796H91.4178C90.8239 61.5077 88.764 62.417 86.6855 62.417C83.6976 62.417 81.7861 60.2272 81.7861 57.2022C81.7861 54.1587 83.8089 51.9688 86.7968 51.9688ZM92.9471 48.7211H95.5081V56.2001L99.1455 52.1915H102.022L98.4403 56.0145L102.226 62.1758H99.3497L96.733 57.8517L95.5081 59.1694V62.1758H92.9471V48.7211ZM112.019 55.4392C112.019 51.4121 109.625 50.7996 107.175 50.7996H105.951V60.0973H107.175C109.625 60.0973 112.019 59.5034 112.019 55.4392ZM103.297 48.7211H107.287C111.555 48.7211 114.766 50.0944 114.766 55.4392C114.766 60.7839 111.555 62.1758 107.287 62.1758H103.297V48.7211ZM116.635 62.1758V48.7211H121.869C124.226 48.7211 126.768 49.4635 126.768 52.2286C126.768 53.4906 125.933 54.6226 125.246 55.068C126.286 55.5691 127.251 56.3485 127.251 58.2043C127.251 61.0994 124.857 62.1758 122.091 62.1758H116.635ZM119.289 56.2743V60.0973H122.221C123.78 60.0973 124.541 59.4477 124.541 58.2043C124.541 56.9424 123.762 56.2743 122.11 56.2743H119.289ZM119.289 50.7996V54.27H122.036C123.298 54.27 124.04 53.6762 124.04 52.4884C124.04 51.4306 123.279 50.7996 122.036 50.7996H119.289ZM131.663 54.9752H128.917V52.1915H131.663V54.9752ZM131.663 62.1758H128.917V59.3921H131.663V62.1758ZM137.798 48.7211H140.452V56.497C140.452 58.8724 140.935 60.3014 143.384 60.3014C145.834 60.3014 146.28 58.8724 146.28 56.497V48.7211H148.933V56.4784C148.933 60.9138 147.319 62.417 143.384 62.417C139.45 62.417 137.798 60.9138 137.798 56.4784V48.7211ZM155.82 60.4499C157.157 60.4499 158.103 59.1508 158.103 57.2022C158.103 55.2536 157.157 53.936 155.82 53.936C154.41 53.936 153.482 55.1794 153.482 57.1836C153.482 59.2436 154.41 60.4499 155.82 60.4499ZM153.575 65.4235H151.014V52.1915H153.575V53.472C154.113 52.5255 155.189 51.9688 156.451 51.9688C158.864 51.9688 160.794 54.0473 160.794 57.1836C160.794 60.3756 158.808 62.417 156.433 62.417C155.393 62.417 154.224 62.0273 153.575 60.9138V65.4235ZM172.871 58.3528V57.6105C169.995 57.9074 168.863 58.2415 168.863 59.3549C168.863 60.0787 169.42 60.6726 170.589 60.6726C172.203 60.6726 172.871 59.8189 172.871 58.3528ZM173.094 60.9324C172.37 61.9716 171.331 62.417 169.828 62.417C167.916 62.417 166.228 61.3035 166.228 59.4849C166.228 57.128 168.863 56.4228 172.797 55.9774V55.8103C172.797 54.27 171.962 53.7318 170.923 53.7318C169.939 53.7318 169.123 54.2329 169.067 55.3464H166.673C166.877 53.3792 168.473 51.9317 171.053 51.9317C173.41 51.9317 175.358 52.9709 175.358 56.33C175.358 56.6269 175.321 57.9816 175.321 58.8724C175.321 60.4499 175.414 61.3407 175.618 62.1758H173.261C173.187 61.8603 173.15 61.4335 173.094 60.9324ZM180.053 52.1915V53.5091C180.628 52.4884 181.704 51.9688 182.948 51.9688C185.342 51.9688 186.4 53.4163 186.4 55.8846V62.1758H183.839V56.4413C183.839 55.1608 183.56 54.0288 182.113 54.0288C180.424 54.0288 180.053 55.4021 180.053 56.9795V62.1758H177.492V52.1915H180.053ZM197.677 62.1758H195.116V60.9138C194.467 62.0273 193.279 62.417 192.24 62.417C189.865 62.417 187.897 60.3756 187.897 57.1836C187.897 54.0473 189.827 51.9688 192.24 51.9688C193.502 51.9688 194.578 52.5255 195.116 53.472V48.7211H197.677V62.1758ZM192.871 60.4499C194.281 60.4499 195.209 59.2436 195.209 57.1836C195.209 55.1794 194.281 53.936 192.871 53.936C191.535 53.936 190.588 55.2536 190.588 57.2022C190.588 59.1508 191.535 60.4499 192.871 60.4499ZM212.372 62.1758L209.699 56.9053H209.068H206.879V62.1758H204.225V48.7211H208.642C213.077 48.7211 214.766 49.9831 214.766 52.8039C214.766 54.3628 214.023 55.6248 212.335 56.3485L215.323 62.1758H212.372ZM208.939 50.7996H206.879V54.8453H209.068C211.147 54.8453 212.038 54.1587 212.038 52.8225C212.038 51.2636 210.739 50.7996 208.939 50.7996ZM222.69 62.1758V60.8582C222.115 61.8789 221.02 62.417 219.776 62.417C217.382 62.417 216.417 60.9509 216.417 58.5013V52.1915H218.978V57.9445C218.978 59.2807 219.182 60.3571 220.611 60.3571C222.319 60.3571 222.69 58.9652 222.69 57.3878V52.1915H225.251V62.1758H222.69ZM230.109 52.1915V53.5091C230.684 52.4884 231.761 51.9688 233.004 51.9688C235.398 51.9688 236.456 53.4163 236.456 55.8846V62.1758H233.895V56.4413C233.895 55.1608 233.616 54.0288 232.169 54.0288C230.48 54.0288 230.109 55.4021 230.109 56.9795V62.1758H227.548V52.1915H230.109ZM241.164 52.1915V53.5091C241.739 52.4884 242.816 51.9688 244.059 51.9688C246.453 51.9688 247.511 53.4163 247.511 55.8846V62.1758H244.95V56.4413C244.95 55.1608 244.672 54.0288 243.224 54.0288C241.535 54.0288 241.164 55.4021 241.164 56.9795V62.1758H238.603V52.1915H241.164ZM249.658 52.1915H252.219V62.1758H249.658V52.1915ZM249.658 48.7211H252.219V51.0966H249.658V48.7211ZM257.076 52.1915V53.5091C257.652 52.4884 258.728 51.9688 259.971 51.9688C262.365 51.9688 263.423 53.4163 263.423 55.8846V62.1758H260.862V56.4413C260.862 55.1608 260.584 54.0288 259.136 54.0288C257.447 54.0288 257.076 55.4021 257.076 56.9795V62.1758H254.515V52.1915H257.076ZM269.913 59.8746C271.342 59.8746 272.214 58.6683 272.214 56.8867C272.214 55.1237 271.342 53.9174 269.913 53.9174C268.595 53.9174 267.612 55.235 267.612 56.9053C267.612 58.5569 268.595 59.8746 269.913 59.8746ZM272.121 52.1915H274.664V61.1736C274.664 64.4399 272.827 65.6647 269.765 65.6647C267.63 65.6647 265.756 64.8853 265.403 62.5655H267.835C268.057 63.3821 268.744 63.7903 269.894 63.7903C271.231 63.7903 272.121 63.1594 272.121 61.6562V60.32C271.472 61.4149 270.303 61.8232 269.263 61.8232C266.814 61.8232 264.921 59.8003 264.921 56.8867C264.921 54.0473 266.758 51.9688 269.263 51.9688C270.525 51.9688 271.676 52.6183 272.121 53.4906V52.1915Z" fill="#E4DFFF"/>
<defs>
<filter id="filter0_f_10904_37594" x="127.255" y="184.252" width="373.747" height="286.057" filterUnits="userSpaceOnUse" color-interpolation-filters="sRGB">
<feFlood flood-opacity="0" result="BackgroundImageFix"/>
<feBlend mode="normal" in="SourceGraphic" in2="BackgroundImageFix" result="shape"/>
<feGaussianBlur stdDeviation="10.6047" result="effect1_foregroundBlur_10904_37594"/>
</filter>
<linearGradient id="paint0_linear_10904_37594" x1="307.753" y1="-32.2631" x2="302.079" y2="763.324" gradientUnits="userSpaceOnUse">
<stop stop-color="#9683FF"/>
<stop offset="0.938633" stop-color="#D4CDFF"/>
</linearGradient>
<linearGradient id="paint1_linear_10904_37594" x1="306.771" y1="-32.1602" x2="301.116" y2="760.889" gradientUnits="userSpaceOnUse">
<stop stop-color="#9683FF"/>
<stop offset="0.938633" stop-color="#D4CDFF"/>
</linearGradient>
<clipPath id="clip0_10904_37594">
<rect width="625" height="625" fill="white"/>
</clipPath>
</defs>
</svg>
