<svg width="627" height="627" viewBox="0 0 627 627" fill="none" xmlns="http://www.w3.org/2000/svg">
<g clip-path="url(#clip0_10904_37633)">
<rect width="627" height="627" fill="url(#paint0_linear_10904_37633)"/>
<g clip-path="url(#clip1_10904_37633)">
<rect width="627" height="627" fill="url(#paint1_linear_10904_37633)"/>
<path d="M-62.9995 57.0028L948.471 56.9991C984.37 56.9989 1013.47 86.1005 1013.47 121.999L1013.47 393.5C1013.47 429.399 984.37 458.5 948.471 458.5L656.978 458.5C621.079 458.5 591.978 487.601 591.978 523.5L591.978 934.508C591.978 970.406 562.876 999.508 526.978 999.508L387.617 999.508" stroke="#9787F2" stroke-width="2.9926"/>
<path d="M786 799.5L786 618C786 582.101 756.898 553 721 553L384.367 553C348.468 553 319.367 523.898 319.367 488L319.367 258C319.367 222.102 290.266 193 254.367 193L-112 193" stroke="#9787F2" stroke-width="2.9926"/>
<rect x="579.038" y="46.9619" width="21.0762" height="43.0762" rx="10.5381" transform="rotate(90 579.038 46.9619)" fill="#9787F2" stroke="#9787F2" stroke-width="1.92382"/>
<path d="M233.004 820.5C233.004 821.326 233.674 821.996 234.5 821.996C235.326 821.996 235.996 821.326 235.996 820.5L234.5 820.5L233.004 820.5ZM93.0579 136.942C92.4736 136.358 91.5261 136.358 90.9418 136.942L81.4194 146.465C80.8351 147.049 80.8351 147.996 81.4194 148.581C82.0037 149.165 82.9512 149.165 83.5355 148.581L91.9999 140.116L100.464 148.581C101.049 149.165 101.996 149.165 102.58 148.581C103.165 147.996 103.165 147.049 102.58 146.465L93.0579 136.942ZM234.5 820.5L235.996 820.5L235.996 412.67L234.5 412.67L233.004 412.67L233.004 820.5L234.5 820.5ZM169.5 347.67L169.5 346.173L156.999 346.173L156.999 347.67L156.999 349.166L169.5 349.166L169.5 347.67ZM91.9998 282.67L93.4961 282.67L93.4962 138L91.9999 138L90.5035 138L90.5035 282.67L91.9998 282.67ZM156.999 347.67L156.999 346.173C121.927 346.173 93.4961 317.742 93.4961 282.67L91.9998 282.67L90.5035 282.67C90.5035 319.394 120.275 349.166 156.999 349.166L156.999 347.67ZM234.5 412.67L235.996 412.67C235.996 375.945 206.225 346.174 169.5 346.173L169.5 347.67L169.5 349.166C204.572 349.166 233.004 377.598 233.004 412.67L234.5 412.67Z" fill="#9787F2"/>
<path d="M90.5037 651C90.5037 651.826 91.1736 652.496 92 652.496C92.8264 652.496 93.4963 651.826 93.4963 651L92 651L90.5037 651ZM93.0598 524.942C92.4754 524.358 91.528 524.358 90.9437 524.942L81.4211 534.464C80.8368 535.049 80.8368 535.996 81.4211 536.58C82.0054 537.165 82.9528 537.165 83.5372 536.58L92.0017 528.116L100.466 536.581C101.05 537.165 101.998 537.165 102.582 536.581C103.166 535.996 103.166 535.049 102.582 534.465L93.0598 524.942ZM92 651L93.4963 651L93.498 526L92.0017 526L90.5054 526L90.5037 651L92 651Z" fill="#9787F2"/>
<path d="M458.5 -63L458.499 143C458.499 178.898 487.601 208 523.499 208L742.5 208" stroke="#9787F2" stroke-width="2.9926"/>
<path d="M395.76 407.48L398 398.772H401.64L398 407.48H395.76ZM399.12 391.52C398.504 391.52 398 391.324 397.608 390.932C397.216 390.54 397.02 390.036 397.02 389.42C397.02 388.823 397.216 388.328 397.608 387.936C398.019 387.525 398.523 387.32 399.12 387.32H399.68C400.277 387.32 400.772 387.525 401.164 387.936C401.575 388.328 401.78 388.823 401.78 389.42C401.78 390.036 401.584 390.54 401.192 390.932C400.8 391.324 400.296 391.52 399.68 391.52H399.12Z" fill="#9787F2"/>
<path d="M533.58 151.36C530.929 150.707 528.867 149.419 527.392 147.496C525.917 145.573 525.18 143.221 525.18 140.44V135.4C525.18 133.571 525.516 131.919 526.188 130.444C526.879 128.951 527.849 127.691 529.1 126.664C530.369 125.637 531.863 124.909 533.58 124.48V126.86C532.385 127.14 531.349 127.681 530.472 128.484C529.595 129.268 528.913 130.248 528.428 131.424C527.943 132.6 527.7 133.925 527.7 135.4V140.44C527.7 141.877 527.933 143.184 528.4 144.36C528.885 145.536 529.567 146.516 530.444 147.3C531.34 148.065 532.385 148.588 533.58 148.868V151.36ZM540.009 151.36V148.868C541.222 148.588 542.268 148.065 543.145 147.3C544.022 146.516 544.694 145.536 545.161 144.36C545.646 143.184 545.889 141.877 545.889 140.44V135.4C545.889 133.925 545.646 132.6 545.161 131.424C544.676 130.248 543.994 129.268 543.117 128.484C542.24 127.681 541.204 127.14 540.009 126.86V124.48C541.745 124.909 543.238 125.637 544.489 126.664C545.74 127.691 546.701 128.951 547.373 130.444C548.064 131.919 548.409 133.571 548.409 135.4V140.44C548.409 143.221 547.672 145.573 546.197 147.496C544.722 149.419 542.66 150.707 540.009 151.36ZM558.338 152.48L560.578 143.772H564.218L560.578 152.48H558.338ZM561.698 136.52C561.082 136.52 560.578 136.324 560.186 135.932C559.794 135.54 559.598 135.036 559.598 134.42C559.598 133.823 559.794 133.328 560.186 132.936C560.597 132.525 561.101 132.32 561.698 132.32H562.258C562.855 132.32 563.35 132.525 563.742 132.936C564.153 133.328 564.358 133.823 564.358 134.42C564.358 135.036 564.162 135.54 563.77 135.932C563.378 136.324 562.874 136.52 562.258 136.52H561.698Z" fill="#9787F2"/>
<path d="M35.58 494.36C32.9293 493.707 30.8667 492.419 29.392 490.496C27.9173 488.573 27.18 486.221 27.18 483.44V478.4C27.18 476.571 27.516 474.919 28.188 473.444C28.8787 471.951 29.8493 470.691 31.1 469.664C32.3693 468.637 33.8627 467.909 35.58 467.48V469.86C34.3853 470.14 33.3493 470.681 32.472 471.484C31.5947 472.268 30.9133 473.248 30.428 474.424C29.9427 475.6 29.7 476.925 29.7 478.4V483.44C29.7 484.877 29.9333 486.184 30.4 487.36C30.8853 488.536 31.5667 489.516 32.444 490.3C33.34 491.065 34.3853 491.588 35.58 491.868V494.36ZM42.0091 494.36V491.868C43.2224 491.588 44.2677 491.065 45.1451 490.3C46.0224 489.516 46.6944 488.536 47.1611 487.36C47.6464 486.184 47.8891 484.877 47.8891 483.44V478.4C47.8891 476.925 47.6464 475.6 47.1611 474.424C46.6757 473.248 45.9944 472.268 45.1171 471.484C44.2397 470.681 43.2037 470.14 42.0091 469.86V467.48C43.7451 467.909 45.2384 468.637 46.4891 469.664C47.7397 470.691 48.7011 471.951 49.3731 473.444C50.0637 474.919 50.4091 476.571 50.4091 478.4V483.44C50.4091 486.221 49.6717 488.573 48.1971 490.496C46.7224 492.419 44.6597 493.707 42.0091 494.36ZM60.3381 495.48L62.5781 486.772H66.2181L62.5781 495.48H60.3381ZM63.6981 479.52C63.0821 479.52 62.5781 479.324 62.1861 478.932C61.7941 478.54 61.5981 478.036 61.5981 477.42C61.5981 476.823 61.7941 476.328 62.1861 475.936C62.5968 475.525 63.1008 475.32 63.6981 475.32H64.2581C64.8555 475.32 65.3501 475.525 65.7421 475.936C66.1528 476.328 66.3581 476.823 66.3581 477.42C66.3581 478.036 66.1621 478.54 65.7701 478.932C65.3781 479.324 64.8741 479.52 64.2581 479.52H63.6981Z" fill="#9787F2"/>
<path d="M137.4 178.28C136.691 178.28 136.121 178.075 135.692 177.664C135.281 177.253 135.076 176.703 135.076 176.012C135.076 175.284 135.281 174.705 135.692 174.276C136.121 173.847 136.691 173.632 137.4 173.632C138.109 173.632 138.669 173.847 139.08 174.276C139.509 174.705 139.724 175.284 139.724 176.012C139.724 176.703 139.509 177.253 139.08 177.664C138.669 178.075 138.109 178.28 137.4 178.28ZM150.857 175.368L148.841 173.968L150.353 171.784C150.596 171.429 150.885 171.084 151.221 170.748C151.557 170.393 151.893 170.067 152.229 169.768C152.584 169.451 152.892 169.18 153.153 168.956L153.069 168.76C152.714 168.723 152.313 168.685 151.865 168.648C151.417 168.592 150.96 168.517 150.493 168.424C150.045 168.312 149.625 168.191 149.233 168.06L146.769 167.164L147.609 164.84L150.073 165.736C150.465 165.867 150.866 166.053 151.277 166.296C151.706 166.52 152.117 166.763 152.509 167.024C152.901 167.267 153.237 167.5 153.517 167.724L153.657 167.612C153.564 167.257 153.461 166.856 153.349 166.408C153.237 165.941 153.144 165.465 153.069 164.98C152.994 164.476 152.957 164.009 152.957 163.58V160.92H155.421V163.58C155.421 164.009 155.384 164.476 155.309 164.98C155.234 165.465 155.141 165.941 155.029 166.408C154.917 166.856 154.805 167.257 154.693 167.612L154.833 167.724C155.132 167.5 155.468 167.267 155.841 167.024C156.233 166.763 156.634 166.52 157.045 166.296C157.474 166.053 157.885 165.867 158.277 165.736L160.769 164.84L161.609 167.164L159.117 168.06C158.744 168.191 158.324 168.312 157.857 168.424C157.409 168.517 156.961 168.592 156.513 168.648C156.065 168.685 155.664 168.723 155.309 168.76L155.197 168.984C155.477 169.208 155.785 169.479 156.121 169.796C156.476 170.095 156.812 170.421 157.129 170.776C157.465 171.112 157.745 171.448 157.969 171.784L159.509 173.968L157.493 175.368L155.953 173.184C155.729 172.848 155.505 172.465 155.281 172.036C155.076 171.607 154.88 171.177 154.693 170.748C154.525 170.319 154.385 169.936 154.273 169.6H154.077C153.965 169.936 153.816 170.319 153.629 170.748C153.461 171.177 153.265 171.607 153.041 172.036C152.836 172.465 152.612 172.848 152.369 173.184L150.857 175.368Z" fill="#9787F2"/>
<path d="M620.4 491.28C619.691 491.28 619.121 491.075 618.692 490.664C618.281 490.253 618.076 489.703 618.076 489.012C618.076 488.284 618.281 487.705 618.692 487.276C619.121 486.847 619.691 486.632 620.4 486.632C621.109 486.632 621.669 486.847 622.08 487.276C622.509 487.705 622.724 488.284 622.724 489.012C622.724 489.703 622.509 490.253 622.08 490.664C621.669 491.075 621.109 491.28 620.4 491.28ZM633.857 488.368L631.841 486.968L633.353 484.784C633.596 484.429 633.885 484.084 634.221 483.748C634.557 483.393 634.893 483.067 635.229 482.768C635.584 482.451 635.892 482.18 636.153 481.956L636.069 481.76C635.714 481.723 635.313 481.685 634.865 481.648C634.417 481.592 633.96 481.517 633.493 481.424C633.045 481.312 632.625 481.191 632.233 481.06L629.769 480.164L630.609 477.84L633.073 478.736C633.465 478.867 633.866 479.053 634.277 479.296C634.706 479.52 635.117 479.763 635.509 480.024C635.901 480.267 636.237 480.5 636.517 480.724L636.657 480.612C636.564 480.257 636.461 479.856 636.349 479.408C636.237 478.941 636.144 478.465 636.069 477.98C635.994 477.476 635.957 477.009 635.957 476.58V473.92H638.421V476.58C638.421 477.009 638.384 477.476 638.309 477.98C638.234 478.465 638.141 478.941 638.029 479.408C637.917 479.856 637.805 480.257 637.693 480.612L637.833 480.724C638.132 480.5 638.468 480.267 638.841 480.024C639.233 479.763 639.634 479.52 640.045 479.296C640.474 479.053 640.885 478.867 641.277 478.736L643.769 477.84L644.609 480.164L642.117 481.06C641.744 481.191 641.324 481.312 640.857 481.424C640.409 481.517 639.961 481.592 639.513 481.648C639.065 481.685 638.664 481.723 638.309 481.76L638.197 481.984C638.477 482.208 638.785 482.479 639.121 482.796C639.476 483.095 639.812 483.421 640.129 483.776C640.465 484.112 640.745 484.448 640.969 484.784L642.509 486.968L640.493 488.368L638.953 486.184C638.729 485.848 638.505 485.465 638.281 485.036C638.076 484.607 637.88 484.177 637.693 483.748C637.525 483.319 637.385 482.936 637.273 482.6H637.077C636.965 482.936 636.816 483.319 636.629 483.748C636.461 484.177 636.265 484.607 636.041 485.036C635.836 485.465 635.612 485.848 635.369 486.184L633.857 488.368Z" fill="#9787F2"/>
</g>
<g opacity="0.7" filter="url(#filter0_f_10904_37633)">
<path d="M182.799 218.463C253.907 200.866 304.577 234.429 314.076 241.377C314.293 241.535 314.608 241.548 314.851 241.386C374.019 201.713 434.795 215.386 446.169 218.453C448.265 219.019 449.588 220.915 449.589 222.974V241.27C458.542 244.085 465.296 247.155 468.556 248.754C470.627 249.769 471.839 251.866 471.84 254.087V435.041C471.839 438.412 469.107 441.145 465.736 441.146H162.522C159.151 441.145 156.418 438.412 156.418 435.041V254.236C156.418 251.894 157.77 249.703 160.014 248.766C162.796 247.604 168.005 245.583 175.626 243.244C176.85 242.869 178.071 242.9 179.171 243.244V223.088C179.171 220.895 180.684 218.986 182.799 218.463Z" fill="#AEA0FF"/>
<path d="M182.799 218.463L180.888 210.742L180.888 210.742L182.799 218.463ZM314.076 241.377L318.771 234.957L318.771 234.957L314.076 241.377ZM314.851 241.386L319.272 247.997L319.281 247.992L314.851 241.386ZM446.169 218.453L448.24 210.774L448.239 210.774L446.169 218.453ZM449.589 222.974H457.542V222.973L449.589 222.974ZM449.589 241.27H441.635V247.106L447.203 248.857L449.589 241.27ZM468.556 248.754L472.058 241.613L472.058 241.613L468.556 248.754ZM471.84 254.087H479.793V254.086L471.84 254.087ZM471.84 435.041L479.793 435.042V435.041H471.84ZM465.736 441.146V449.099H465.736L465.736 441.146ZM162.522 441.146L162.522 449.099H162.522V441.146ZM156.418 435.041H148.464V435.042L156.418 435.041ZM160.014 248.766L156.949 241.427L156.948 241.427L160.014 248.766ZM175.626 243.244L173.294 235.64L173.293 235.641L175.626 243.244ZM179.171 243.244L176.795 250.835L187.124 254.067V243.244H179.171ZM179.171 223.088L171.217 223.088V223.088H179.171ZM182.799 218.463L184.709 226.183C252.461 209.417 300.663 241.42 309.38 247.796L314.076 241.377L318.771 234.957C308.49 227.437 255.352 192.315 180.888 210.742L182.799 218.463ZM314.076 241.377L309.38 247.796C312.305 249.936 316.263 250.01 319.272 247.997L314.851 241.386L310.43 234.774C312.953 233.087 316.28 233.135 318.771 234.957L314.076 241.377ZM314.851 241.386L319.281 247.992C375.565 210.252 433.483 223.27 444.098 226.132L446.169 218.453L448.239 210.774C436.106 207.502 372.472 193.174 310.422 234.78L314.851 241.386ZM446.169 218.453L444.097 226.132C442.504 225.702 441.635 224.279 441.635 222.974L449.589 222.974L457.542 222.973C457.542 217.552 454.026 212.335 448.24 210.774L446.169 218.453ZM449.589 222.974H441.635V241.27H449.589H457.542V222.974H449.589ZM449.589 241.27L447.203 248.857C455.687 251.524 462.062 254.428 465.055 255.895L468.556 248.754L472.058 241.613C468.53 239.882 461.397 236.645 451.974 233.682L449.589 241.27ZM468.556 248.754L465.054 255.895C464.252 255.502 463.886 254.733 463.886 254.088L471.84 254.087L479.793 254.086C479.793 249 477.001 244.037 472.058 241.613L468.556 248.754ZM471.84 254.087H463.886V435.041H471.84H479.793V254.087H471.84ZM471.84 435.041L463.886 435.04C463.886 434.021 464.713 433.192 465.736 433.192L465.736 441.146L465.736 449.099C473.502 449.099 479.793 442.803 479.793 435.042L471.84 435.041ZM465.736 441.146V433.192H162.522V441.146V449.099H465.736V441.146ZM162.522 441.146L162.522 433.192C163.544 433.192 164.371 434.02 164.371 435.04L156.418 435.041L148.464 435.042C148.465 442.804 154.758 449.099 162.522 449.099L162.522 441.146ZM156.418 435.041H164.371V254.236H156.418H148.464V435.041H156.418ZM156.418 254.236H164.371C164.371 254.922 163.959 255.737 163.081 256.104L160.014 248.766L156.948 241.427C151.582 243.669 148.464 248.865 148.464 254.236H156.418ZM160.014 248.766L163.08 256.105C165.631 255.039 170.595 253.107 177.959 250.848L175.626 243.244L173.293 235.641C165.414 238.058 159.962 240.168 156.949 241.427L160.014 248.766ZM175.626 243.244L177.958 250.848C177.608 250.955 177.188 250.957 176.795 250.835L179.171 243.244L181.546 235.654C178.954 234.843 176.092 234.782 173.294 235.64L175.626 243.244ZM179.171 243.244H187.124V223.088H179.171H171.217V243.244H179.171ZM179.171 223.088L187.124 223.088C187.124 224.587 186.11 225.837 184.709 226.183L182.799 218.463L180.888 210.742C175.258 212.136 171.217 217.204 171.217 223.088L179.171 223.088Z" fill="#AEA0FF"/>
</g>
<path d="M469.815 250.359C471.119 250.998 471.907 252.33 471.907 253.782V435.741C471.907 437.937 470.127 439.717 467.93 439.717H163.047C160.85 439.717 159.07 437.937 159.07 435.741V253.93C159.07 252.4 159.948 251.013 161.36 250.423C164.095 249.28 169.277 247.267 176.895 244.93C179.418 244.156 181.946 246.063 181.946 248.702V405.01C181.946 407.471 184.158 409.375 186.604 409.103C202.862 407.296 259.112 403.807 314.515 432.931C315.83 433.623 317.419 433.567 318.696 432.807C328.404 427.021 372.578 403.646 445.198 408.63C447.519 408.789 449.536 406.965 449.536 404.638V243.515C449.536 243.008 450.005 242.612 450.486 242.773C459.645 245.612 466.547 248.756 469.815 250.359Z" fill="#7C6BE4" stroke="#7C6BE4" stroke-width="4.25512" stroke-miterlimit="10"/>
<path d="M183.955 220.057C182.783 220.347 181.945 221.41 181.945 222.617V406.58C181.945 408.221 183.42 409.487 185.048 409.287C198.99 407.574 257.662 402.752 315.23 433.311C316.105 433.775 317.163 433.74 318.008 433.223C326.177 428.225 371.251 403.2 446.636 408.734C448.183 408.847 449.536 407.631 449.536 406.08V222.504C449.536 221.35 448.802 220.337 447.688 220.037C436.482 217.014 376.126 203.422 317.397 242.807C316.421 243.461 315.129 243.443 314.18 242.748C304.861 235.93 254.569 202.577 183.955 220.057Z" fill="#E4DFFF" stroke="#7C6BE4" stroke-width="4.25512" stroke-miterlimit="10"/>
<path d="M315.741 243.934V434.079" stroke="#7C6BE4" stroke-width="4.25512" stroke-miterlimit="10"/>
<path d="M206.87 265.456C206.87 265.456 254.714 259.206 297.942 280.404L206.87 265.456Z" fill="#E4DFFF"/>
<path d="M206.87 265.456C206.87 265.456 254.714 259.206 297.942 280.404" stroke="#7C6BE4" stroke-width="4.25512" stroke-miterlimit="10" stroke-linecap="round"/>
<path d="M206.87 294.387C206.87 294.387 254.714 288.138 297.942 309.336L206.87 294.387Z" fill="#E4DFFF"/>
<path d="M206.87 294.387C206.87 294.387 254.714 288.138 297.942 309.336" stroke="#7C6BE4" stroke-width="4.25512" stroke-miterlimit="10" stroke-linecap="round"/>
<path d="M206.87 323.336C206.87 323.336 254.714 317.087 297.942 338.285L206.87 323.336Z" fill="#E4DFFF"/>
<path d="M206.87 323.336C206.87 323.336 254.714 317.087 297.942 338.285" stroke="#7C6BE4" stroke-width="4.25512" stroke-miterlimit="10" stroke-linecap="round"/>
<path d="M206.87 352.268C206.87 352.268 254.714 346.018 297.942 367.217L206.87 352.268Z" fill="#E4DFFF"/>
<path d="M206.87 352.268C206.87 352.268 254.714 346.018 297.942 367.217" stroke="#7C6BE4" stroke-width="4.25512" stroke-miterlimit="10" stroke-linecap="round"/>
<path d="M422.904 265.456C422.904 265.456 375.059 259.206 331.832 280.404L422.904 265.456Z" fill="#E4DFFF"/>
<path d="M422.904 265.456C422.904 265.456 375.059 259.206 331.832 280.404" stroke="#7C6BE4" stroke-width="4.25512" stroke-miterlimit="10" stroke-linecap="round"/>
<path d="M422.904 294.387C422.904 294.387 375.059 288.138 331.832 309.336L422.904 294.387Z" fill="#E4DFFF"/>
<path d="M422.904 294.387C422.904 294.387 375.059 288.138 331.832 309.336" stroke="#7C6BE4" stroke-width="4.25512" stroke-miterlimit="10" stroke-linecap="round"/>
<path d="M422.904 323.336C422.904 323.336 375.059 317.087 331.832 338.285L422.904 323.336Z" fill="#E4DFFF"/>
<path d="M422.904 323.336C422.904 323.336 375.059 317.087 331.832 338.285" stroke="#7C6BE4" stroke-width="4.25512" stroke-miterlimit="10" stroke-linecap="round"/>
<path d="M422.904 352.268C422.904 352.268 375.059 346.018 331.832 367.217L422.904 352.268Z" fill="#E4DFFF"/>
<path d="M422.904 352.268C422.904 352.268 375.059 346.018 331.832 367.217" stroke="#7C6BE4" stroke-width="4.25512" stroke-miterlimit="10" stroke-linecap="round"/>
<rect x="30.6514" y="26.6172" width="205.023" height="58.1163" rx="29.0581" fill="#7C6BE4"/>
<path d="M67.2824 55.4392C67.2824 51.4121 64.8884 50.7996 62.4387 50.7996H61.2139V60.0973H62.4387C64.8884 60.0973 67.2824 59.5034 67.2824 55.4392ZM58.5601 48.7211H62.5501C66.8185 48.7211 70.029 50.0944 70.029 55.4392C70.029 60.7839 66.8185 62.1758 62.5501 62.1758H58.5601V48.7211ZM77.7683 62.1758V60.8582C77.193 61.8789 76.0981 62.417 74.8547 62.417C72.4607 62.417 71.4957 60.9509 71.4957 58.5013V52.1915H74.0567V57.9445C74.0567 59.2807 74.2609 60.3571 75.6898 60.3571C77.3972 60.3571 77.7683 58.9652 77.7683 57.3878V52.1915H80.3294V62.1758H77.7683ZM86.9875 51.9688C89.0846 51.9688 91.1631 53.138 91.5157 55.6062H89.066C88.8619 54.6412 87.9711 53.9545 86.9875 53.9545C85.6514 53.9545 84.5935 55.0866 84.5935 57.1651C84.5935 59.2622 85.5957 60.4313 87.0061 60.4313C87.8969 60.4313 88.8062 59.9674 89.1588 58.7796H91.6085C91.0147 61.5077 88.9547 62.417 86.8762 62.417C83.8883 62.417 81.9768 60.2272 81.9768 57.2022C81.9768 54.1587 83.9997 51.9688 86.9875 51.9688ZM93.1378 48.7211H95.6988V56.2001L99.3362 52.1915H102.213L98.631 56.0145L102.417 62.1758H99.5404L96.9237 57.8517L95.6988 59.1694V62.1758H93.1378V48.7211ZM112.21 55.4392C112.21 51.4121 109.816 50.7996 107.366 50.7996H106.141V60.0973H107.366C109.816 60.0973 112.21 59.5034 112.21 55.4392ZM103.487 48.7211H107.477C111.746 48.7211 114.956 50.0944 114.956 55.4392C114.956 60.7839 111.746 62.1758 107.477 62.1758H103.487V48.7211ZM116.826 62.1758V48.7211H122.06C124.416 48.7211 126.959 49.4635 126.959 52.2286C126.959 53.4906 126.124 54.6226 125.437 55.068C126.476 55.5691 127.441 56.3485 127.441 58.2043C127.441 61.0994 125.047 62.1758 122.282 62.1758H116.826ZM119.48 56.2743V60.0973H122.412C123.971 60.0973 124.732 59.4477 124.732 58.2043C124.732 56.9424 123.952 56.2743 122.301 56.2743H119.48ZM119.48 50.7996V54.27H122.227C123.488 54.27 124.231 53.6762 124.231 52.4884C124.231 51.4306 123.47 50.7996 122.227 50.7996H119.48ZM133.281 52.1915H135.842V62.1758H133.281V52.1915ZM133.281 48.7211H135.842V51.0966H133.281V48.7211ZM140.699 52.1915V53.5091C141.274 52.4884 142.35 51.9688 143.594 51.9688C145.988 51.9688 147.046 53.4163 147.046 55.8846V62.1758H144.485V56.4413C144.485 55.1608 144.206 54.0288 142.759 54.0288C141.07 54.0288 140.699 55.4021 140.699 56.9795V62.1758H138.138V52.1915H140.699ZM152.229 62.1758L157.239 48.7211H159.912L164.941 62.1758H162.064L161.118 59.4477H155.885L154.938 62.1758H152.229ZM158.501 51.9688L156.646 57.2764H160.357L158.501 51.9688ZM170.445 51.9688C172.542 51.9688 174.62 53.138 174.973 55.6062H172.523C172.319 54.6412 171.428 53.9545 170.445 53.9545C169.109 53.9545 168.051 55.0866 168.051 57.1651C168.051 59.2622 169.053 60.4313 170.463 60.4313C171.354 60.4313 172.263 59.9674 172.616 58.7796H175.066C174.472 61.5077 172.412 62.417 170.333 62.417C167.346 62.417 165.434 60.2272 165.434 57.2022C165.434 54.1587 167.457 51.9688 170.445 51.9688ZM176.948 52.1915V49.482H179.509V52.1915H181.587V53.9545H179.509V59.1137C179.509 60.1344 179.861 60.3385 180.771 60.3385H181.55V62.1758H179.676C177.375 62.1758 176.948 61.4706 176.948 59.4849V53.9545H175.537V52.1915H176.948ZM183.228 52.1915H185.789V62.1758H183.228V52.1915ZM183.228 48.7211H185.789V51.0966H183.228V48.7211ZM192.428 53.9731C191.017 53.9731 190.015 55.1051 190.015 57.2022C190.015 59.2993 191.017 60.4128 192.428 60.4128C193.838 60.4128 194.84 59.2993 194.84 57.2022C194.84 55.1051 193.838 53.9731 192.428 53.9731ZM192.428 62.417C189.904 62.417 187.417 60.6911 187.417 57.2022C187.417 53.6947 189.904 51.9688 192.428 51.9688C194.952 51.9688 197.438 53.6947 197.438 57.2022C197.438 60.6911 194.952 62.417 192.428 62.417ZM201.629 52.1915V53.5091C202.204 52.4884 203.281 51.9688 204.524 51.9688C206.918 51.9688 207.976 53.4163 207.976 55.8846V62.1758H205.415V56.4413C205.415 55.1608 205.136 54.0288 203.689 54.0288C202 54.0288 201.629 55.4021 201.629 56.9795V62.1758H199.068V52.1915H201.629Z" fill="#E4DFFF"/>
</g>
<defs>
<filter id="filter0_f_10904_37633" x="127.255" y="184.252" width="373.747" height="286.057" filterUnits="userSpaceOnUse" color-interpolation-filters="sRGB">
<feFlood flood-opacity="0" result="BackgroundImageFix"/>
<feBlend mode="normal" in="SourceGraphic" in2="BackgroundImageFix" result="shape"/>
<feGaussianBlur stdDeviation="10.6047" result="effect1_foregroundBlur_10904_37633"/>
</filter>
<linearGradient id="paint0_linear_10904_37633" x1="307.753" y1="-32.2631" x2="302.079" y2="763.324" gradientUnits="userSpaceOnUse">
<stop stop-color="#9683FF"/>
<stop offset="0.938633" stop-color="#D4CDFF"/>
</linearGradient>
<linearGradient id="paint1_linear_10904_37633" x1="307.753" y1="-32.2631" x2="302.079" y2="763.324" gradientUnits="userSpaceOnUse">
<stop stop-color="#9683FF"/>
<stop offset="0.938633" stop-color="#D4CDFF"/>
</linearGradient>
<clipPath id="clip0_10904_37633">
<rect width="627" height="627" fill="white"/>
</clipPath>
<clipPath id="clip1_10904_37633">
<rect width="627" height="627" fill="white"/>
</clipPath>
</defs>
</svg>
