<svg width="627" height="627" viewBox="0 0 627 627" fill="none" xmlns="http://www.w3.org/2000/svg">
<g clip-path="url(#clip0_10904_38263)">
<rect width="627" height="627" fill="url(#paint0_linear_10904_38263)"/>
<g clip-path="url(#clip1_10904_38263)">
<rect width="627" height="627" fill="url(#paint1_linear_10904_38263)"/>
<path d="M-62.9995 57.0028L948.471 56.9991C984.37 56.9989 1013.47 86.1005 1013.47 121.999L1013.47 393.5C1013.47 429.399 984.37 458.5 948.471 458.5L656.978 458.5C621.079 458.5 591.978 487.601 591.978 523.5L591.978 934.508C591.978 970.406 562.876 999.508 526.978 999.508L387.617 999.508" stroke="#9787F2" stroke-width="2.9926"/>
<path d="M786 799.5L786 618C786 582.101 756.898 553 721 553L384.367 553C348.468 553 319.367 523.898 319.367 488L319.367 258C319.367 222.102 290.266 193 254.367 193L-112 193" stroke="#9787F2" stroke-width="2.9926"/>
<rect x="579.038" y="46.9619" width="21.0762" height="43.0762" rx="10.5381" transform="rotate(90 579.038 46.9619)" fill="#9787F2" stroke="#9787F2" stroke-width="1.92382"/>
<path d="M233.004 820.5C233.004 821.326 233.674 821.996 234.5 821.996C235.326 821.996 235.996 821.326 235.996 820.5L234.5 820.5L233.004 820.5ZM93.0579 136.942C92.4736 136.358 91.5261 136.358 90.9418 136.942L81.4194 146.465C80.8351 147.049 80.8351 147.996 81.4194 148.581C82.0037 149.165 82.9512 149.165 83.5355 148.581L91.9999 140.116L100.464 148.581C101.049 149.165 101.996 149.165 102.58 148.581C103.165 147.996 103.165 147.049 102.58 146.465L93.0579 136.942ZM234.5 820.5L235.996 820.5L235.996 412.67L234.5 412.67L233.004 412.67L233.004 820.5L234.5 820.5ZM169.5 347.67L169.5 346.173L156.999 346.173L156.999 347.67L156.999 349.166L169.5 349.166L169.5 347.67ZM91.9998 282.67L93.4961 282.67L93.4962 138L91.9999 138L90.5035 138L90.5035 282.67L91.9998 282.67ZM156.999 347.67L156.999 346.173C121.927 346.173 93.4961 317.742 93.4961 282.67L91.9998 282.67L90.5035 282.67C90.5035 319.394 120.275 349.166 156.999 349.166L156.999 347.67ZM234.5 412.67L235.996 412.67C235.996 375.945 206.225 346.174 169.5 346.173L169.5 347.67L169.5 349.166C204.572 349.166 233.004 377.598 233.004 412.67L234.5 412.67Z" fill="#9787F2"/>
<path d="M90.5037 651C90.5037 651.826 91.1736 652.496 92 652.496C92.8264 652.496 93.4963 651.826 93.4963 651L92 651L90.5037 651ZM93.0598 524.942C92.4754 524.358 91.528 524.358 90.9437 524.942L81.4211 534.464C80.8368 535.049 80.8368 535.996 81.4211 536.58C82.0054 537.165 82.9528 537.165 83.5372 536.58L92.0017 528.116L100.466 536.581C101.05 537.165 101.998 537.165 102.582 536.581C103.166 535.996 103.166 535.049 102.582 534.465L93.0598 524.942ZM92 651L93.4963 651L93.498 526L92.0017 526L90.5054 526L90.5037 651L92 651Z" fill="#9787F2"/>
<path d="M458.5 -63L458.499 143C458.499 178.898 487.601 208 523.499 208L742.5 208" stroke="#9787F2" stroke-width="2.9926"/>
<path d="M395.76 407.48L398 398.772H401.64L398 407.48H395.76ZM399.12 391.52C398.504 391.52 398 391.324 397.608 390.932C397.216 390.54 397.02 390.036 397.02 389.42C397.02 388.823 397.216 388.328 397.608 387.936C398.019 387.525 398.523 387.32 399.12 387.32H399.68C400.277 387.32 400.772 387.525 401.164 387.936C401.575 388.328 401.78 388.823 401.78 389.42C401.78 390.036 401.584 390.54 401.192 390.932C400.8 391.324 400.296 391.52 399.68 391.52H399.12Z" fill="#9787F2"/>
<path d="M533.58 151.36C530.929 150.707 528.867 149.419 527.392 147.496C525.917 145.573 525.18 143.221 525.18 140.44V135.4C525.18 133.571 525.516 131.919 526.188 130.444C526.879 128.951 527.849 127.691 529.1 126.664C530.369 125.637 531.863 124.909 533.58 124.48V126.86C532.385 127.14 531.349 127.681 530.472 128.484C529.595 129.268 528.913 130.248 528.428 131.424C527.943 132.6 527.7 133.925 527.7 135.4V140.44C527.7 141.877 527.933 143.184 528.4 144.36C528.885 145.536 529.567 146.516 530.444 147.3C531.34 148.065 532.385 148.588 533.58 148.868V151.36ZM540.009 151.36V148.868C541.222 148.588 542.268 148.065 543.145 147.3C544.022 146.516 544.694 145.536 545.161 144.36C545.646 143.184 545.889 141.877 545.889 140.44V135.4C545.889 133.925 545.646 132.6 545.161 131.424C544.676 130.248 543.994 129.268 543.117 128.484C542.24 127.681 541.204 127.14 540.009 126.86V124.48C541.745 124.909 543.238 125.637 544.489 126.664C545.74 127.691 546.701 128.951 547.373 130.444C548.064 131.919 548.409 133.571 548.409 135.4V140.44C548.409 143.221 547.672 145.573 546.197 147.496C544.722 149.419 542.66 150.707 540.009 151.36ZM558.338 152.48L560.578 143.772H564.218L560.578 152.48H558.338ZM561.698 136.52C561.082 136.52 560.578 136.324 560.186 135.932C559.794 135.54 559.598 135.036 559.598 134.42C559.598 133.823 559.794 133.328 560.186 132.936C560.597 132.525 561.101 132.32 561.698 132.32H562.258C562.855 132.32 563.35 132.525 563.742 132.936C564.153 133.328 564.358 133.823 564.358 134.42C564.358 135.036 564.162 135.54 563.77 135.932C563.378 136.324 562.874 136.52 562.258 136.52H561.698Z" fill="#9787F2"/>
<path d="M35.58 494.36C32.9293 493.707 30.8667 492.419 29.392 490.496C27.9173 488.573 27.18 486.221 27.18 483.44V478.4C27.18 476.571 27.516 474.919 28.188 473.444C28.8787 471.951 29.8493 470.691 31.1 469.664C32.3693 468.637 33.8627 467.909 35.58 467.48V469.86C34.3853 470.14 33.3493 470.681 32.472 471.484C31.5947 472.268 30.9133 473.248 30.428 474.424C29.9427 475.6 29.7 476.925 29.7 478.4V483.44C29.7 484.877 29.9333 486.184 30.4 487.36C30.8853 488.536 31.5667 489.516 32.444 490.3C33.34 491.065 34.3853 491.588 35.58 491.868V494.36ZM42.0091 494.36V491.868C43.2224 491.588 44.2677 491.065 45.1451 490.3C46.0224 489.516 46.6944 488.536 47.1611 487.36C47.6464 486.184 47.8891 484.877 47.8891 483.44V478.4C47.8891 476.925 47.6464 475.6 47.1611 474.424C46.6757 473.248 45.9944 472.268 45.1171 471.484C44.2397 470.681 43.2037 470.14 42.0091 469.86V467.48C43.7451 467.909 45.2384 468.637 46.4891 469.664C47.7397 470.691 48.7011 471.951 49.3731 473.444C50.0637 474.919 50.4091 476.571 50.4091 478.4V483.44C50.4091 486.221 49.6717 488.573 48.1971 490.496C46.7224 492.419 44.6597 493.707 42.0091 494.36ZM60.3381 495.48L62.5781 486.772H66.2181L62.5781 495.48H60.3381ZM63.6981 479.52C63.0821 479.52 62.5781 479.324 62.1861 478.932C61.7941 478.54 61.5981 478.036 61.5981 477.42C61.5981 476.823 61.7941 476.328 62.1861 475.936C62.5968 475.525 63.1008 475.32 63.6981 475.32H64.2581C64.8555 475.32 65.3501 475.525 65.7421 475.936C66.1528 476.328 66.3581 476.823 66.3581 477.42C66.3581 478.036 66.1621 478.54 65.7701 478.932C65.3781 479.324 64.8741 479.52 64.2581 479.52H63.6981Z" fill="#9787F2"/>
<path d="M137.4 178.28C136.691 178.28 136.121 178.075 135.692 177.664C135.281 177.253 135.076 176.703 135.076 176.012C135.076 175.284 135.281 174.705 135.692 174.276C136.121 173.847 136.691 173.632 137.4 173.632C138.109 173.632 138.669 173.847 139.08 174.276C139.509 174.705 139.724 175.284 139.724 176.012C139.724 176.703 139.509 177.253 139.08 177.664C138.669 178.075 138.109 178.28 137.4 178.28ZM150.857 175.368L148.841 173.968L150.353 171.784C150.596 171.429 150.885 171.084 151.221 170.748C151.557 170.393 151.893 170.067 152.229 169.768C152.584 169.451 152.892 169.18 153.153 168.956L153.069 168.76C152.714 168.723 152.313 168.685 151.865 168.648C151.417 168.592 150.96 168.517 150.493 168.424C150.045 168.312 149.625 168.191 149.233 168.06L146.769 167.164L147.609 164.84L150.073 165.736C150.465 165.867 150.866 166.053 151.277 166.296C151.706 166.52 152.117 166.763 152.509 167.024C152.901 167.267 153.237 167.5 153.517 167.724L153.657 167.612C153.564 167.257 153.461 166.856 153.349 166.408C153.237 165.941 153.144 165.465 153.069 164.98C152.994 164.476 152.957 164.009 152.957 163.58V160.92H155.421V163.58C155.421 164.009 155.384 164.476 155.309 164.98C155.234 165.465 155.141 165.941 155.029 166.408C154.917 166.856 154.805 167.257 154.693 167.612L154.833 167.724C155.132 167.5 155.468 167.267 155.841 167.024C156.233 166.763 156.634 166.52 157.045 166.296C157.474 166.053 157.885 165.867 158.277 165.736L160.769 164.84L161.609 167.164L159.117 168.06C158.744 168.191 158.324 168.312 157.857 168.424C157.409 168.517 156.961 168.592 156.513 168.648C156.065 168.685 155.664 168.723 155.309 168.76L155.197 168.984C155.477 169.208 155.785 169.479 156.121 169.796C156.476 170.095 156.812 170.421 157.129 170.776C157.465 171.112 157.745 171.448 157.969 171.784L159.509 173.968L157.493 175.368L155.953 173.184C155.729 172.848 155.505 172.465 155.281 172.036C155.076 171.607 154.88 171.177 154.693 170.748C154.525 170.319 154.385 169.936 154.273 169.6H154.077C153.965 169.936 153.816 170.319 153.629 170.748C153.461 171.177 153.265 171.607 153.041 172.036C152.836 172.465 152.612 172.848 152.369 173.184L150.857 175.368Z" fill="#9787F2"/>
<path d="M620.4 491.28C619.691 491.28 619.121 491.075 618.692 490.664C618.281 490.253 618.076 489.703 618.076 489.012C618.076 488.284 618.281 487.705 618.692 487.276C619.121 486.847 619.691 486.632 620.4 486.632C621.109 486.632 621.669 486.847 622.08 487.276C622.509 487.705 622.724 488.284 622.724 489.012C622.724 489.703 622.509 490.253 622.08 490.664C621.669 491.075 621.109 491.28 620.4 491.28ZM633.857 488.368L631.841 486.968L633.353 484.784C633.596 484.429 633.885 484.084 634.221 483.748C634.557 483.393 634.893 483.067 635.229 482.768C635.584 482.451 635.892 482.18 636.153 481.956L636.069 481.76C635.714 481.723 635.313 481.685 634.865 481.648C634.417 481.592 633.96 481.517 633.493 481.424C633.045 481.312 632.625 481.191 632.233 481.06L629.769 480.164L630.609 477.84L633.073 478.736C633.465 478.867 633.866 479.053 634.277 479.296C634.706 479.52 635.117 479.763 635.509 480.024C635.901 480.267 636.237 480.5 636.517 480.724L636.657 480.612C636.564 480.257 636.461 479.856 636.349 479.408C636.237 478.941 636.144 478.465 636.069 477.98C635.994 477.476 635.957 477.009 635.957 476.58V473.92H638.421V476.58C638.421 477.009 638.384 477.476 638.309 477.98C638.234 478.465 638.141 478.941 638.029 479.408C637.917 479.856 637.805 480.257 637.693 480.612L637.833 480.724C638.132 480.5 638.468 480.267 638.841 480.024C639.233 479.763 639.634 479.52 640.045 479.296C640.474 479.053 640.885 478.867 641.277 478.736L643.769 477.84L644.609 480.164L642.117 481.06C641.744 481.191 641.324 481.312 640.857 481.424C640.409 481.517 639.961 481.592 639.513 481.648C639.065 481.685 638.664 481.723 638.309 481.76L638.197 481.984C638.477 482.208 638.785 482.479 639.121 482.796C639.476 483.095 639.812 483.421 640.129 483.776C640.465 484.112 640.745 484.448 640.969 484.784L642.509 486.968L640.493 488.368L638.953 486.184C638.729 485.848 638.505 485.465 638.281 485.036C638.076 484.607 637.88 484.177 637.693 483.748C637.525 483.319 637.385 482.936 637.273 482.6H637.077C636.965 482.936 636.816 483.319 636.629 483.748C636.461 484.177 636.265 484.607 636.041 485.036C635.836 485.465 635.612 485.848 635.369 486.184L633.857 488.368Z" fill="#9787F2"/>
</g>
<g filter="url(#filter0_f_10904_38263)">
<mask id="path-12-outside-1_10904_38263" maskUnits="userSpaceOnUse" x="190.431" y="189.094" width="232" height="284" fill="black">
<rect fill="white" x="190.431" y="189.094" width="232" height="284"/>
<path d="M403.29 200.094C407.721 200.094 411.304 203.677 411.305 208.108V441.336C411.304 445.767 407.721 449.35 403.29 449.351H397.668L397.683 453.807V453.813C397.683 458.237 394.108 461.847 389.668 461.847H209.445C205.014 461.846 201.431 458.263 201.431 453.832V220.604C201.431 216.174 205.014 212.59 209.445 212.59H215.067L215.053 208.134V208.127C215.053 203.704 218.628 200.094 223.067 200.094H403.29Z"/>
</mask>
<path d="M403.29 200.094C407.721 200.094 411.304 203.677 411.305 208.108V441.336C411.304 445.767 407.721 449.35 403.29 449.351H397.668L397.683 453.807V453.813C397.683 458.237 394.108 461.847 389.668 461.847H209.445C205.014 461.846 201.431 458.263 201.431 453.832V220.604C201.431 216.174 205.014 212.59 209.445 212.59H215.067L215.053 208.134V208.127C215.053 203.704 218.628 200.094 223.067 200.094H403.29Z" fill="#AEA0FF"/>
<path d="M403.29 200.094L403.291 189.421H403.29V200.094ZM411.305 208.108H421.977L421.977 208.107L411.305 208.108ZM411.305 441.336L421.977 441.337V441.336H411.305ZM403.29 449.351V460.023H403.291L403.29 449.351ZM397.668 449.351V438.678H386.96L386.996 449.386L397.668 449.351ZM397.683 453.807H408.355V453.789L408.355 453.772L397.683 453.807ZM397.683 453.813L408.355 453.813V453.813H397.683ZM389.668 461.847V472.519H389.668L389.668 461.847ZM209.445 461.847L209.444 472.519H209.445V461.847ZM201.431 453.832H190.758V453.833L201.431 453.832ZM201.431 220.604L190.758 220.603V220.604H201.431ZM209.445 212.59V201.918L209.444 201.918L209.445 212.59ZM215.067 212.59V223.262H225.775L225.74 212.555L215.067 212.59ZM215.053 208.134H204.38V208.151L204.38 208.169L215.053 208.134ZM215.053 208.127L204.38 208.127V208.127H215.053ZM223.067 200.094V189.421H223.067L223.067 200.094ZM403.29 200.094L403.289 210.766C401.826 210.766 400.632 209.571 400.632 208.109L411.305 208.108L421.977 208.107C421.976 197.783 413.616 189.422 403.291 189.421L403.29 200.094ZM411.305 208.108H400.632V441.336H411.305H421.977V208.108H411.305ZM411.305 441.336L400.632 441.335C400.632 439.873 401.826 438.678 403.289 438.678L403.29 449.351L403.291 460.023C413.616 460.022 421.976 451.661 421.977 441.337L411.305 441.336ZM403.29 449.351V438.678H397.668V449.351V460.023H403.29V449.351ZM397.668 449.351L386.996 449.386L387.01 453.842L397.683 453.807L408.355 453.772L408.34 449.316L397.668 449.351ZM397.683 453.807H387.01V453.813H397.683H408.355V453.807H397.683ZM397.683 453.813L387.01 453.813C387.01 452.389 388.167 451.174 389.668 451.174L389.668 461.847L389.668 472.519C400.049 472.519 408.355 464.084 408.355 453.813L397.683 453.813ZM389.668 461.847V451.174H209.445V461.847V472.519H389.668V461.847ZM209.445 461.847L209.446 451.174C210.908 451.174 212.103 452.368 212.103 453.831L201.431 453.832L190.758 453.833C190.759 464.158 199.12 472.518 209.444 472.519L209.445 461.847ZM201.431 453.832H212.103V220.604H201.431H190.758V453.832H201.431ZM201.431 220.604L212.103 220.606C212.103 222.068 210.909 223.262 209.446 223.262L209.445 212.59L209.444 201.918C199.12 201.919 190.76 210.279 190.758 220.603L201.431 220.604ZM209.445 212.59V223.262H215.067V212.59V201.918H209.445V212.59ZM215.067 212.59L225.74 212.555L225.725 208.099L215.053 208.134L204.38 208.169L204.395 212.625L215.067 212.59ZM215.053 208.134H225.725V208.127H215.053H204.38V208.134H215.053ZM215.053 208.127L225.725 208.127C225.725 209.552 224.568 210.766 223.068 210.766L223.067 200.094L223.067 189.421C212.687 189.422 204.381 197.856 204.38 208.127L215.053 208.127ZM223.067 200.094V210.766H403.29V200.094V189.421H223.067V200.094Z" fill="#AEA0FF" mask="url(#path-12-outside-1_10904_38263)"/>
</g>
<path d="M223.067 202.236H403.289C406.538 202.236 409.162 204.861 409.162 208.11V441.336C409.162 444.585 406.538 447.209 403.289 447.209H256.362L255.738 446.584L217.837 408.737V408.094L217.194 208.128C217.194 204.879 219.818 202.236 223.067 202.236Z" fill="#7C6BE4" stroke="#7C6BE4" stroke-width="4.28228" stroke-miterlimit="10"/>
<path d="M389.667 459.705H209.446C206.197 459.705 203.572 457.081 203.572 453.832V220.606C203.572 217.357 206.197 214.732 209.446 214.732H356.372L356.997 215.357L394.898 253.205V253.847L395.541 453.814C395.541 457.063 392.917 459.705 389.667 459.705Z" fill="#E4DFFF" stroke="#7C6BE4" stroke-width="4.28228" stroke-miterlimit="10"/>
<path d="M231.695 246.604H368.263" stroke="#7C6BE4" stroke-width="4.28228" stroke-miterlimit="10"/>
<path d="M231.695 276.021H368.263" stroke="#7C6BE4" stroke-width="4.28228" stroke-miterlimit="10"/>
<path d="M231.695 306.271H368.263" stroke="#7C6BE4" stroke-width="4.28228" stroke-miterlimit="10"/>
<path d="M231.695 335.018H368.263" stroke="#7C6BE4" stroke-width="4.28228" stroke-miterlimit="10"/>
<path d="M394.9 253.206V253.849H361.694C359.106 253.849 356.999 251.742 356.999 249.154V215.877C356.999 215.68 357.231 215.591 357.374 215.716L394.9 253.188V253.206Z" fill="#E4DFFF" stroke="#7C6BE4" stroke-width="4.28228" stroke-miterlimit="10"/>
<rect x="31" y="26.1172" width="102.023" height="59.1163" rx="29.5581" fill="#7C6BE4"/>
<path d="M59.1869 62.6758V49.1352H69.0481V51.3017H61.8576V54.6635H68.6559V56.83H61.8576V60.5093H69.0481V62.6758H59.1869ZM79.4918 55.8962C79.4918 51.8434 77.0826 51.227 74.6172 51.227H73.3846V60.584H74.6172C77.0826 60.584 79.4918 59.9864 79.4918 55.8962ZM70.7138 49.1352H74.7293C79.0249 49.1352 82.256 50.5173 82.256 55.8962C82.256 61.275 79.0249 62.6758 74.7293 62.6758H70.7138V49.1352ZM84.1376 62.6758V49.1352H89.4044C91.7764 49.1352 94.3351 49.8823 94.3351 52.6651C94.3351 53.9351 93.4946 55.0744 92.8036 55.5226C93.8495 56.0269 94.8207 56.8113 94.8207 58.679C94.8207 61.5925 92.4114 62.6758 89.6286 62.6758H84.1376ZM86.8084 56.7366V60.584H89.7593C91.3281 60.584 92.0939 59.9303 92.0939 58.679C92.0939 57.409 91.3095 56.7366 89.6472 56.7366H86.8084ZM86.8084 51.227V54.7196H89.5725C90.8425 54.7196 91.5896 54.1219 91.5896 52.9266C91.5896 51.862 90.8239 51.227 89.5725 51.227H86.8084ZM99.1101 62.6758V51.3017H94.9453V49.1352H105.964V51.3017H101.781V62.6758H99.1101Z" fill="#E4DFFF"/>
</g>
<defs>
<filter id="filter0_f_10904_38263" x="169.414" y="168.077" width="273.908" height="325.787" filterUnits="userSpaceOnUse" color-interpolation-filters="sRGB">
<feFlood flood-opacity="0" result="BackgroundImageFix"/>
<feBlend mode="normal" in="SourceGraphic" in2="BackgroundImageFix" result="shape"/>
<feGaussianBlur stdDeviation="10.6723" result="effect1_foregroundBlur_10904_38263"/>
</filter>
<linearGradient id="paint0_linear_10904_38263" x1="307.753" y1="-32.2631" x2="302.079" y2="763.324" gradientUnits="userSpaceOnUse">
<stop stop-color="#9683FF"/>
<stop offset="0.938633" stop-color="#D4CDFF"/>
</linearGradient>
<linearGradient id="paint1_linear_10904_38263" x1="307.753" y1="-32.2631" x2="302.079" y2="763.324" gradientUnits="userSpaceOnUse">
<stop stop-color="#9683FF"/>
<stop offset="0.938633" stop-color="#D4CDFF"/>
</linearGradient>
<clipPath id="clip0_10904_38263">
<rect width="627" height="627" fill="white"/>
</clipPath>
<clipPath id="clip1_10904_38263">
<rect width="627" height="627" fill="white"/>
</clipPath>
</defs>
</svg>
