<svg xmlns="http://www.w3.org/2000/svg" width="367" height="367" fill="none" viewBox="0 0 367 367"><g clip-path="url(#clip0_7497_10453)"><rect width="367" height="367" fill="#A899FF"/><g clip-path="url(#clip1_7497_10453)"><rect width="367" height="367" fill="#A899FF"/><path fill="#9787F2" d="M143.465 295.893L235.988 295.893C252.243 295.893 265.421 282.716 265.421 266.461L265.421 248.216C265.42 232.381 278.257 219.544 294.092 219.544C309.927 219.544 322.764 206.707 322.764 190.872L322.764 83.4984C322.764 67.2435 335.941 54.0663 352.196 54.0663L365.094 54.0663C381.349 54.0663 394.526 67.2435 394.526 83.4984L394.526 371.318C394.526 387.573 381.349 400.75 365.094 400.75L143.465 400.75C127.21 400.75 114.033 387.573 114.033 371.318L114.033 325.325C114.033 309.07 127.21 295.893 143.465 295.893Z"/><path fill="#9787F2" d="M16.1151 301.137L-32.8269 301.137C-49.0818 301.137 -62.259 287.959 -62.259 271.705L-62.259 -7.92293C-62.259 -24.1778 -49.0819 -37.355 -32.827 -37.355L222.002 -37.355C238.257 -37.355 251.434 -24.1778 251.434 -7.92294L251.434 79.1067C251.434 95.3616 238.257 108.539 222.002 108.539L74.9792 108.539C58.7244 108.539 45.5472 121.716 45.5472 137.971L45.5472 271.705C45.5472 287.96 32.37 301.137 16.1151 301.137Z"/><path fill="#A899FF" d="M159.252 34.4062L-37.3553 34.4062C-44.5941 34.4062 -50.4624 28.538 -50.4624 21.2991L-50.4624 -24.2482C-50.4624 -31.4871 -44.5941 -37.3554 -37.3553 -37.3554L159.252 -37.3554C166.491 -37.3554 172.359 -31.4872 172.359 -24.2483L172.359 21.2991C172.359 28.538 166.491 34.4062 159.252 34.4062Z"/></g><rect width="168.287" height="56.802" x="99" y="155" fill="#000"/><path fill="#A899FF" d="M131.061 191V176.248H141.804V178.609H133.97V182.271H141.377V184.631H133.97V188.64H141.804V191H131.061ZM153.182 183.614C153.182 179.199 150.557 178.527 147.871 178.527H146.528V188.721H147.871C150.557 188.721 153.182 188.07 153.182 183.614ZM143.619 176.248H147.993C152.673 176.248 156.193 177.754 156.193 183.614C156.193 189.474 152.673 191 147.993 191H143.619V176.248ZM158.243 191V176.248H163.981C166.565 176.248 169.352 177.062 169.352 180.094C169.352 181.478 168.437 182.719 167.684 183.207C168.823 183.756 169.882 184.611 169.882 186.646C169.882 189.82 167.257 191 164.225 191H158.243ZM161.153 184.53V188.721H164.367C166.077 188.721 166.911 188.009 166.911 186.646C166.911 185.262 166.056 184.53 164.245 184.53H161.153ZM161.153 178.527V182.332H164.164C165.548 182.332 166.361 181.681 166.361 180.379C166.361 179.219 165.527 178.527 164.164 178.527H161.153ZM174.555 191V178.609H170.017V176.248H182.022V178.609H177.464V191H174.555ZM192.83 175.984C195.781 175.984 197.673 177.368 197.673 179.952C197.673 182.698 194.987 185.608 190.45 188.64H198.019V191H187.174V188.721C191.915 184.916 194.845 182.434 194.845 180.094C194.845 178.792 194.051 178.059 192.667 178.059C191.426 178.059 190.165 178.812 190.165 181.01H187.438C187.377 177.978 189.575 175.984 192.83 175.984ZM205.244 191.265C201.297 191.265 199.303 188.07 199.303 183.594C199.303 179.117 201.297 175.984 205.244 175.984C209.151 175.984 211.165 179.117 211.165 183.594C211.165 188.07 209.151 191.265 205.244 191.265ZM205.244 189.148C207.258 189.148 208.296 187.154 208.296 183.594C208.296 180.033 207.258 178.1 205.244 178.1C203.23 178.1 202.172 180.033 202.172 183.594C202.172 187.154 203.23 189.148 205.244 189.148ZM218.105 175.984C221.055 175.984 222.948 177.368 222.948 179.952C222.948 182.698 220.262 185.608 215.724 188.64H223.294V191H212.449V188.721C217.189 184.916 220.119 182.434 220.119 180.094C220.119 178.792 219.326 178.059 217.942 178.059C216.701 178.059 215.44 178.812 215.44 181.01H212.713C212.652 177.978 214.85 175.984 218.105 175.984ZM230.813 179.809L226.601 185.079H230.813V179.809ZM236.124 185.079V187.46H233.601V191H230.813V187.46H223.529V185.262L230.854 176.248H233.601V185.079H236.124Z"/></g><defs><clipPath id="clip0_7497_10453"><rect width="367" height="367" fill="#fff"/></clipPath><clipPath id="clip1_7497_10453"><rect width="367" height="367" fill="#fff"/></clipPath></defs></svg>