<svg width="627" height="627" viewBox="0 0 627 627" fill="none" xmlns="http://www.w3.org/2000/svg">
<rect width="627" height="627" fill="url(#paint0_linear_10904_37672)"/>
<g clip-path="url(#clip0_10904_37672)">
<rect width="625" height="625" fill="url(#paint1_linear_10904_37672)"/>
<path d="M1488.24 207.83C1489.06 207.83 1489.73 207.162 1489.73 206.339C1489.73 205.515 1489.06 204.847 1488.24 204.847L1488.24 206.339L1488.24 207.83ZM388.943 -54.3849C388.36 -53.8024 388.36 -52.8581 388.943 -52.2756L398.435 -42.7836C399.017 -42.2011 399.961 -42.2011 400.544 -42.7836C401.126 -43.366 401.126 -44.3104 400.544 -44.8929L392.107 -53.3303L400.544 -61.7676C401.126 -62.3501 401.126 -63.2945 400.544 -63.877C399.961 -64.4594 399.017 -64.4594 398.435 -63.877L388.943 -54.3849ZM540.271 11.4622L541.762 11.4622L540.271 11.4622ZM605.064 206.339L605.064 204.847L605.064 206.339ZM540.271 141.546L541.763 141.546L540.271 141.546ZM1488.24 206.339L1488.24 204.847L605.064 204.847L605.064 206.339L605.064 207.83L1488.24 207.83L1488.24 206.339ZM540.271 141.546L541.763 141.546L541.762 11.4622L540.271 11.4622L538.779 11.4623L538.78 141.546L540.271 141.546ZM475.478 -53.3302L475.478 -54.8218L389.997 -54.8218L389.997 -53.3303L389.997 -51.8387L475.478 -51.8387L475.478 -53.3302ZM540.271 11.4622L541.762 11.4622C541.762 -25.1454 512.086 -54.8218 475.478 -54.8218L475.478 -53.3302L475.478 -51.8387C510.438 -51.8387 538.779 -23.4979 538.779 11.4623L540.271 11.4622ZM605.064 206.339L605.064 204.847C570.104 204.847 541.763 176.506 541.763 141.546L540.271 141.546L538.78 141.546C538.78 178.154 568.456 207.83 605.064 207.83L605.064 206.339Z" fill="#9787F2"/>
<path d="M-103.668 97.6876L103.17 97.6877C138.954 97.6877 167.962 126.696 167.962 162.48L167.962 404.705C167.962 440.489 196.97 469.498 232.754 469.498L304.526 469.498C340.31 469.498 369.318 440.489 369.318 404.705L369.318 -13.2014C369.318 -48.9854 398.327 -77.994 434.111 -77.994L714.712 -77.9939C750.496 -77.9939 779.504 -107.003 779.504 -142.787L779.504 -321.969" stroke="#9787F2" stroke-width="2.98306"/>
<path d="M1217.11 -497.408L1217.11 -282.595C1217.11 -246.811 1188.1 -217.802 1152.31 -217.802L1141.01 -217.802C1105.23 -217.802 1076.22 -188.793 1076.22 -153.01L1076.22 113.637C1076.22 149.421 1047.21 178.43 1011.43 178.43L776.807 178.429C741.023 178.429 712.015 149.421 712.015 113.637L712.015 -128.964C712.015 -164.748 683.006 -193.757 647.222 -193.757L510.367 -193.757" stroke="#9787F2" stroke-width="2.98306"/>
<path d="M547.747 727.172L547.747 328.947C547.747 293.163 518.738 264.154 482.954 264.155L352.212 264.156C316.428 264.156 287.42 293.164 287.42 328.948L287.42 726.674" stroke="#9787F2" stroke-width="2.98306" stroke-linejoin="round"/>
<path d="M-8.97118 525.821C-9.79493 525.821 -10.4627 526.489 -10.4627 527.312C-10.4627 528.136 -9.79495 528.804 -8.9712 528.804L-8.97119 527.312L-8.97118 525.821ZM167.024 528.368C167.606 527.786 167.606 526.841 167.024 526.259L157.532 516.767C156.949 516.184 156.005 516.184 155.422 516.767C154.84 517.349 154.84 518.294 155.422 518.876L163.86 527.314L155.422 535.751C154.84 536.333 154.84 537.278 155.422 537.86C156.005 538.443 156.949 538.443 157.532 537.86L167.024 528.368ZM-8.97119 527.312L-8.9712 528.804L165.969 528.805L165.969 527.314L165.969 525.822L-8.97118 525.821L-8.97119 527.312Z" fill="#9787F2"/>
<path d="M-37.8789 47.3522C-38.7027 47.3522 -39.3704 48.02 -39.3704 48.8438C-39.3704 49.6675 -38.7027 50.3353 -37.8789 50.3353L-37.8789 48.8437L-37.8789 47.3522ZM297.107 49.8984C297.69 49.3159 297.69 48.3715 297.107 47.789L287.615 38.297C287.033 37.7145 286.088 37.7145 285.506 38.297C284.923 38.8795 284.923 39.8239 285.506 40.4064L293.943 48.8437L285.506 57.2811C284.923 57.8636 284.923 58.8079 285.506 59.3904C286.088 59.9729 287.033 59.9729 287.615 59.3904L297.107 49.8984ZM-37.8789 48.8437L-37.8789 50.3353L296.053 50.3352L296.053 48.8437L296.053 47.3522L-37.8789 47.3522L-37.8789 48.8437Z" fill="#9787F2"/>
<path d="M219.931 174.033L222.171 165.325H225.811L222.171 174.033H219.931Z" fill="#9787F2"/>
<path d="M327.586 583.722L329.826 575.014H333.466L329.826 583.722H327.586Z" fill="#9787F2"/>
<path d="M66.4111 391.215C63.7604 390.562 61.6977 389.274 60.2231 387.351C58.7484 385.429 58.0111 383.077 58.0111 380.295V375.255C58.0111 373.426 58.3471 371.774 59.0191 370.299C59.7097 368.806 60.6804 367.546 61.9311 366.519C63.2004 365.493 64.6937 364.765 66.4111 364.335V366.715C65.2164 366.995 64.1804 367.537 63.3031 368.339C62.4257 369.123 61.7444 370.103 61.2591 371.279C60.7737 372.455 60.5311 373.781 60.5311 375.255V380.295C60.5311 381.733 60.7644 383.039 61.2311 384.215C61.7164 385.391 62.3977 386.371 63.2751 387.155C64.1711 387.921 65.2164 388.443 66.4111 388.723V391.215ZM72.8401 391.215V388.723C74.0535 388.443 75.0988 387.921 75.9761 387.155C76.8535 386.371 77.5255 385.391 77.9921 384.215C78.4775 383.039 78.7201 381.733 78.7201 380.295V375.255C78.7201 373.781 78.4775 372.455 77.9921 371.279C77.5068 370.103 76.8255 369.123 75.9481 368.339C75.0708 367.537 74.0348 366.995 72.8401 366.715V364.335C74.5761 364.765 76.0695 365.493 77.3201 366.519C78.5708 367.546 79.5321 368.806 80.2041 370.299C80.8948 371.774 81.2401 373.426 81.2401 375.255V380.295C81.2401 383.077 80.5028 385.429 79.0281 387.351C77.5535 389.274 75.4908 390.562 72.8401 391.215ZM91.1692 392.335L93.4092 383.627H97.0492L93.4092 392.335H91.1692ZM94.5292 376.375C93.9132 376.375 93.4092 376.179 93.0172 375.787C92.6252 375.395 92.4292 374.891 92.4292 374.275C92.4292 373.678 92.6252 373.183 93.0172 372.791C93.4278 372.381 93.9318 372.175 94.5292 372.175H95.0892C95.6865 372.175 96.1812 372.381 96.5732 372.791C96.9838 373.183 97.1892 373.678 97.1892 374.275C97.1892 374.891 96.9932 375.395 96.6012 375.787C96.2092 376.179 95.7052 376.375 95.0892 376.375H94.5292Z" fill="#9787F2"/>
<path d="M438.025 65.1687C437.316 65.1687 436.746 64.9633 436.317 64.5527C435.906 64.142 435.701 63.5913 435.701 62.9007C435.701 62.1727 435.906 61.594 436.317 61.1647C436.746 60.7353 437.316 60.5207 438.025 60.5207C438.734 60.5207 439.294 60.7353 439.705 61.1647C440.134 61.594 440.349 62.1727 440.349 62.9007C440.349 63.5913 440.134 64.142 439.705 64.5527C439.294 64.9633 438.734 65.1687 438.025 65.1687ZM451.482 62.2567L449.466 60.8567L450.978 58.6727C451.221 58.318 451.51 57.9727 451.846 57.6367C452.182 57.282 452.518 56.9553 452.854 56.6567C453.209 56.3393 453.517 56.0687 453.778 55.8447L453.694 55.6487C453.339 55.6113 452.938 55.574 452.49 55.5367C452.042 55.4807 451.585 55.406 451.118 55.3127C450.67 55.2007 450.25 55.0793 449.858 54.9487L447.394 54.0527L448.234 51.7287L450.698 52.6247C451.09 52.7553 451.491 52.942 451.902 53.1847C452.331 53.4087 452.742 53.6513 453.134 53.9127C453.526 54.1553 453.862 54.3887 454.142 54.6127L454.282 54.5007C454.189 54.146 454.086 53.7447 453.974 53.2967C453.862 52.83 453.769 52.354 453.694 51.8687C453.619 51.3647 453.582 50.898 453.582 50.4687V47.8087H456.046V50.4687C456.046 50.898 456.009 51.3647 455.934 51.8687C455.859 52.354 455.766 52.83 455.654 53.2967C455.542 53.7447 455.43 54.146 455.318 54.5007L455.458 54.6127C455.757 54.3887 456.093 54.1553 456.466 53.9127C456.858 53.6513 457.259 53.4087 457.67 53.1847C458.099 52.942 458.51 52.7553 458.902 52.6247L461.394 51.7287L462.234 54.0527L459.742 54.9487C459.369 55.0793 458.949 55.2007 458.482 55.3127C458.034 55.406 457.586 55.4807 457.138 55.5367C456.69 55.574 456.289 55.6113 455.934 55.6487L455.822 55.8727C456.102 56.0967 456.41 56.3673 456.746 56.6847C457.101 56.9833 457.437 57.31 457.754 57.6647C458.09 58.0007 458.37 58.3367 458.594 58.6727L460.134 60.8567L458.118 62.2567L456.578 60.0727C456.354 59.7367 456.13 59.354 455.906 58.9247C455.701 58.4953 455.505 58.066 455.318 57.6367C455.15 57.2073 455.01 56.8247 454.898 56.4887H454.702C454.59 56.8247 454.441 57.2073 454.254 57.6367C454.086 58.066 453.89 58.4953 453.666 58.9247C453.461 59.354 453.237 59.7367 452.994 60.0727L451.482 62.2567Z" fill="#9787F2"/>
<rect x="40.9125" y="538.451" width="22.0823" height="45.0823" rx="11.0412" transform="rotate(-90 40.9125 538.451)" fill="#9787F2" stroke="#9787F2" stroke-width="1.91768"/>
</g>
<g opacity="0.7" filter="url(#filter0_f_10904_37672)">
<path d="M182.799 218.463C253.907 200.866 304.577 234.429 314.076 241.377C314.293 241.535 314.608 241.548 314.852 241.386C374.019 201.713 434.795 215.386 446.169 218.453C448.265 219.019 449.589 220.915 449.589 222.974V241.269C458.543 244.084 465.296 247.155 468.557 248.754C470.627 249.769 471.84 251.866 471.84 254.087V435.04C471.84 438.411 469.108 441.145 465.736 441.146H162.522C159.151 441.145 156.418 438.411 156.418 435.04V254.235C156.418 251.893 157.771 249.703 160.015 248.766C162.796 247.604 168.005 245.583 175.626 243.244C176.85 242.869 178.071 242.899 179.171 243.243V223.088C179.171 220.895 180.684 218.986 182.799 218.463Z" fill="#AEA0FF"/>
<path d="M182.799 218.463L180.888 210.742L180.888 210.742L182.799 218.463ZM314.076 241.377L309.381 247.796L309.381 247.797L314.076 241.377ZM314.852 241.386L319.272 247.998L319.281 247.992L314.852 241.386ZM446.169 218.453L448.24 210.774L448.24 210.774L446.169 218.453ZM449.589 222.974H457.542V222.973L449.589 222.974ZM449.589 241.269H441.635V247.105L447.203 248.856L449.589 241.269ZM468.557 248.754L472.059 241.613L472.059 241.613L468.557 248.754ZM471.84 254.087H479.793V254.086L471.84 254.087ZM465.736 441.146V449.099H465.737L465.736 441.146ZM162.522 441.146L162.522 449.099H162.522V441.146ZM156.418 254.235L148.464 254.235V254.235H156.418ZM160.015 248.766L156.949 241.427L156.948 241.427L160.015 248.766ZM175.626 243.244L173.294 235.64L173.293 235.641L175.626 243.244ZM179.171 243.243L176.796 250.834L187.124 254.066V243.243H179.171ZM182.799 218.463L184.709 226.183C252.461 209.417 300.663 241.42 309.381 247.796L314.076 241.377L318.772 234.957C308.491 227.437 255.353 192.315 180.888 210.742L182.799 218.463ZM314.076 241.377L309.381 247.797C312.306 249.936 316.263 250.009 319.272 247.998L314.852 241.386L310.431 234.774C312.953 233.088 316.28 233.135 318.771 234.957L314.076 241.377ZM314.852 241.386L319.281 247.992C375.565 210.252 433.483 223.27 444.098 226.132L446.169 218.453L448.24 210.774C436.106 207.502 372.472 193.174 310.422 234.78L314.852 241.386ZM446.169 218.453L444.098 226.132C442.504 225.702 441.635 224.279 441.635 222.974L449.589 222.974L457.542 222.973C457.542 217.552 454.026 212.335 448.24 210.774L446.169 218.453ZM449.589 222.974H441.635V241.269H449.589H457.542V222.974H449.589ZM449.589 241.269L447.203 248.856C455.687 251.523 462.062 254.427 465.055 255.895L468.557 248.754L472.059 241.613C468.531 239.883 461.398 236.644 451.975 233.681L449.589 241.269ZM468.557 248.754L465.055 255.895C464.253 255.502 463.886 254.733 463.886 254.087L471.84 254.087L479.793 254.086C479.793 248.999 477.001 244.037 472.059 241.613L468.557 248.754ZM471.84 254.087H463.886V435.04H471.84H479.793V254.087H471.84ZM471.84 435.04H463.886C463.886 434.022 464.712 433.192 465.736 433.192L465.736 441.146L465.737 449.099C473.503 449.099 479.793 442.801 479.793 435.04H471.84ZM465.736 441.146V433.192H162.522V441.146V449.099H465.736V441.146ZM162.522 441.146L162.523 433.192C163.545 433.192 164.371 434.02 164.371 435.04H156.418H148.464C148.464 442.802 154.757 449.099 162.522 449.099L162.522 441.146ZM156.418 435.04H164.371V254.235H156.418H148.464V435.04H156.418ZM156.418 254.235L164.371 254.236C164.371 254.923 163.958 255.738 163.081 256.104L160.015 248.766L156.948 241.427C151.584 243.669 148.465 248.863 148.464 254.235L156.418 254.235ZM160.015 248.766L163.08 256.105C165.631 255.039 170.595 253.107 177.959 250.848L175.626 243.244L173.293 235.641C165.415 238.058 159.962 240.168 156.949 241.427L160.015 248.766ZM175.626 243.244L177.958 250.848C177.613 250.954 177.192 250.958 176.796 250.834L179.171 243.243L181.546 235.653C178.95 234.84 176.088 234.783 173.294 235.64L175.626 243.244ZM179.171 243.243H187.124V223.088H179.171H171.217V243.243H179.171ZM179.171 223.088H187.124C187.124 224.587 186.111 225.837 184.709 226.183L182.799 218.463L180.888 210.742C175.258 212.136 171.217 217.203 171.217 223.088H179.171Z" fill="#AEA0FF"/>
</g>
<path d="M469.815 250.359C471.119 250.998 471.907 252.33 471.907 253.782V435.741C471.907 437.937 470.127 439.717 467.93 439.717H163.047C160.85 439.717 159.07 437.937 159.07 435.741V253.93C159.07 252.4 159.948 251.013 161.36 250.423C164.095 249.28 169.277 247.267 176.895 244.93C179.418 244.156 181.946 246.063 181.946 248.702V405.01C181.946 407.471 184.158 409.375 186.604 409.103C202.862 407.296 259.112 403.807 314.515 432.931C315.83 433.623 317.419 433.567 318.696 432.807C328.404 427.021 372.578 403.646 445.198 408.63C447.519 408.789 449.536 406.965 449.536 404.638V243.515C449.536 243.008 450.005 242.612 450.486 242.773C459.645 245.612 466.547 248.756 469.815 250.359Z" fill="#7C6BE4" stroke="#7C6BE4" stroke-width="4.25512" stroke-miterlimit="10"/>
<path d="M183.955 220.057C182.783 220.347 181.945 221.41 181.945 222.617V406.58C181.945 408.221 183.42 409.487 185.049 409.287C198.99 407.574 257.662 402.752 315.23 433.311C316.105 433.775 317.163 433.74 318.008 433.223C326.178 428.225 371.252 403.2 446.637 408.734C448.183 408.847 449.536 407.631 449.536 406.08V222.504C449.536 221.35 448.803 220.337 447.689 220.037C436.482 217.014 376.126 203.422 317.397 242.807C316.421 243.461 315.129 243.443 314.18 242.748C304.861 235.93 254.569 202.577 183.955 220.057Z" fill="#E4DFFF" stroke="#7C6BE4" stroke-width="4.25512" stroke-miterlimit="10"/>
<path d="M315.741 243.934V434.079" stroke="#7C6BE4" stroke-width="4.25512" stroke-miterlimit="10"/>
<path d="M206.87 265.456C206.87 265.456 254.714 259.206 297.942 280.404L206.87 265.456Z" fill="#E4DFFF"/>
<path d="M206.87 265.456C206.87 265.456 254.714 259.206 297.942 280.404" stroke="#7C6BE4" stroke-width="4.25512" stroke-miterlimit="10" stroke-linecap="round"/>
<path d="M206.87 294.387C206.87 294.387 254.714 288.138 297.942 309.336L206.87 294.387Z" fill="#E4DFFF"/>
<path d="M206.87 294.387C206.87 294.387 254.714 288.138 297.942 309.336" stroke="#7C6BE4" stroke-width="4.25512" stroke-miterlimit="10" stroke-linecap="round"/>
<path d="M206.87 323.336C206.87 323.336 254.714 317.087 297.942 338.285L206.87 323.336Z" fill="#E4DFFF"/>
<path d="M206.87 323.336C206.87 323.336 254.714 317.087 297.942 338.285" stroke="#7C6BE4" stroke-width="4.25512" stroke-miterlimit="10" stroke-linecap="round"/>
<path d="M206.87 352.268C206.87 352.268 254.714 346.018 297.942 367.217L206.87 352.268Z" fill="#E4DFFF"/>
<path d="M206.87 352.268C206.87 352.268 254.714 346.018 297.942 367.217" stroke="#7C6BE4" stroke-width="4.25512" stroke-miterlimit="10" stroke-linecap="round"/>
<path d="M422.904 265.456C422.904 265.456 375.059 259.206 331.832 280.404L422.904 265.456Z" fill="#E4DFFF"/>
<path d="M422.904 265.456C422.904 265.456 375.059 259.206 331.832 280.404" stroke="#7C6BE4" stroke-width="4.25512" stroke-miterlimit="10" stroke-linecap="round"/>
<path d="M422.904 294.387C422.904 294.387 375.059 288.138 331.832 309.336L422.904 294.387Z" fill="#E4DFFF"/>
<path d="M422.904 294.387C422.904 294.387 375.059 288.138 331.832 309.336" stroke="#7C6BE4" stroke-width="4.25512" stroke-miterlimit="10" stroke-linecap="round"/>
<path d="M422.904 323.336C422.904 323.336 375.059 317.087 331.832 338.285L422.904 323.336Z" fill="#E4DFFF"/>
<path d="M422.904 323.336C422.904 323.336 375.059 317.087 331.832 338.285" stroke="#7C6BE4" stroke-width="4.25512" stroke-miterlimit="10" stroke-linecap="round"/>
<path d="M422.904 352.268C422.904 352.268 375.059 346.018 331.832 367.217L422.904 352.268Z" fill="#E4DFFF"/>
<path d="M422.904 352.268C422.904 352.268 375.059 346.018 331.832 367.217" stroke="#7C6BE4" stroke-width="4.25512" stroke-miterlimit="10" stroke-linecap="round"/>
<rect x="30.6514" y="26.6172" width="305.023" height="58.1163" rx="29.0581" fill="#7C6BE4"/>
<path d="M64.909 48.4799C68.0824 48.4799 70.198 50.3171 70.6434 52.8039H68.1195C67.6927 51.3193 66.3936 50.5955 64.8904 50.5955C62.6449 50.5955 61.0674 52.1729 61.0674 55.3835C61.0674 58.5941 62.5706 60.3014 64.8718 60.3014C66.3008 60.3014 68.2309 59.5776 68.2309 57.4249V57.2022H64.8718V55.0309H70.6805V62.1758H68.5835L68.5092 60.5983C67.7484 61.7118 66.3751 62.417 64.4636 62.417C60.6777 62.417 58.3208 59.689 58.3208 55.3835C58.3208 51.2079 60.789 48.4799 64.909 48.4799ZM82.2888 57.8889H74.9212C75.0697 59.5962 76.2203 60.4313 77.4451 60.4313C78.2431 60.4313 79.0226 60.1529 79.5422 59.2807H82.1775C81.6393 60.7654 80.1917 62.417 77.4637 62.417C74.2531 62.417 72.3788 60.023 72.3788 57.1465C72.3788 54.1772 74.4387 51.9688 77.3895 51.9688C80.4701 51.9688 82.3816 54.3628 82.2888 57.8889ZM77.3709 53.8432C76.4059 53.8432 75.1625 54.437 74.9583 56.1258H79.6907C79.635 54.437 78.4473 53.8432 77.3709 53.8432ZM84.291 52.1915V49.482H86.8521V52.1915H88.9306V53.9545H86.8521V59.1137C86.8521 60.1344 87.2047 60.3385 88.114 60.3385H88.8935V62.1758H87.0191C84.7179 62.1758 84.291 61.4706 84.291 59.4849V53.9545H82.8806V52.1915H84.291ZM90.9241 52.1915V49.482H93.4852V52.1915H95.5637V53.9545H93.4852V59.1137C93.4852 60.1344 93.8378 60.3385 94.7471 60.3385H95.5266V62.1758H93.6522C91.351 62.1758 90.9241 61.4706 90.9241 59.4849V53.9545H89.5137V52.1915H90.9241ZM97.2046 52.1915H99.7656V62.1758H97.2046V52.1915ZM97.2046 48.7211H99.7656V51.0966H97.2046V48.7211ZM104.623 52.1915V53.5091C105.198 52.4884 106.274 51.9688 107.518 51.9688C109.912 51.9688 110.97 53.4163 110.97 55.8846V62.1758H108.409V56.4413C108.409 55.1608 108.13 54.0288 106.683 54.0288C104.994 54.0288 104.623 55.4021 104.623 56.9795V62.1758H102.062V52.1915H104.623ZM117.459 59.8746C118.888 59.8746 119.761 58.6683 119.761 56.8867C119.761 55.1237 118.888 53.9174 117.459 53.9174C116.142 53.9174 115.158 55.235 115.158 56.9053C115.158 58.5569 116.142 59.8746 117.459 59.8746ZM119.668 52.1915H122.21V61.1736C122.21 64.4399 120.373 65.6647 117.311 65.6647C115.177 65.6647 113.302 64.8853 112.95 62.5655H115.381C115.604 63.3821 116.29 63.7903 117.441 63.7903C118.777 63.7903 119.668 63.1594 119.668 61.6562V60.32C119.018 61.4149 117.849 61.8232 116.81 61.8232C114.36 61.8232 112.467 59.8003 112.467 56.8867C112.467 54.0473 114.304 51.9688 116.81 51.9688C118.072 51.9688 119.222 52.6183 119.668 53.4906V52.1915ZM134.066 56.5898L132.358 56.2743C130.187 55.8289 128.331 54.7154 128.331 52.3771C128.331 49.6676 131.226 48.4799 133.694 48.4799C136.478 48.4799 138.835 50.113 138.983 52.6926H136.422C136.218 51.1151 134.845 50.5955 133.583 50.5955C132.34 50.5955 130.985 51.0595 130.985 52.2657C130.985 53.2122 131.764 53.7318 132.859 53.936L134.622 54.2515C136.812 54.6597 139.225 55.4949 139.225 58.2971C139.225 61.0623 136.478 62.417 133.769 62.417C130.465 62.417 128.275 60.6355 128.034 57.7404H130.595C130.892 59.7261 132.265 60.3014 133.861 60.3014C135.049 60.3014 136.552 59.856 136.552 58.427C136.552 57.295 135.495 56.831 134.066 56.5898ZM141.343 52.1915V49.482H143.904V52.1915H145.982V53.9545H143.904V59.1137C143.904 60.1344 144.256 60.3385 145.166 60.3385H145.945V62.1758H144.071C141.77 62.1758 141.343 61.4706 141.343 59.4849V53.9545H139.932V52.1915H141.343ZM153.859 58.3528V57.6105C150.982 57.9074 149.85 58.2415 149.85 59.3549C149.85 60.0787 150.407 60.6726 151.576 60.6726C153.191 60.6726 153.859 59.8189 153.859 58.3528ZM154.082 60.9324C153.358 61.9716 152.319 62.417 150.815 62.417C148.904 62.417 147.215 61.3035 147.215 59.4849C147.215 57.128 149.85 56.4228 153.785 55.9774V55.8103C153.785 54.27 152.949 53.7318 151.91 53.7318C150.927 53.7318 150.11 54.2329 150.054 55.3464H147.66C147.865 53.3792 149.461 51.9317 152.04 51.9317C154.397 51.9317 156.346 52.9709 156.346 56.33C156.346 56.6269 156.309 57.9816 156.309 58.8724C156.309 60.4499 156.401 61.3407 156.605 62.1758H154.249C154.174 61.8603 154.137 61.4335 154.082 60.9324ZM164.195 52.2472V54.6597C163.824 54.6041 163.508 54.6041 163.137 54.6041C161.875 54.6041 161.04 55.068 161.04 56.9424V62.1758H158.479V52.1915H161.003V53.936C161.578 52.6926 162.469 52.2101 163.638 52.2101C163.805 52.2101 164.028 52.2286 164.195 52.2472ZM165.863 52.1915V49.482H168.425V52.1915H170.503V53.9545H168.425V59.1137C168.425 60.1344 168.777 60.3385 169.686 60.3385H170.466V62.1758H168.592C166.29 62.1758 165.863 61.4706 165.863 59.4849V53.9545H164.453V52.1915H165.863ZM181.404 57.8889H174.037C174.185 59.5962 175.336 60.4313 176.561 60.4313C177.359 60.4313 178.138 60.1529 178.658 59.2807H181.293C180.755 60.7654 179.307 62.417 176.579 62.417C173.369 62.417 171.494 60.023 171.494 57.1465C171.494 54.1772 173.554 51.9688 176.505 51.9688C179.586 51.9688 181.497 54.3628 181.404 57.8889ZM176.487 53.8432C175.522 53.8432 174.278 54.437 174.074 56.1258H178.806C178.751 54.437 177.563 53.8432 176.487 53.8432ZM192.457 62.1758H189.896V60.9138C189.246 62.0273 188.058 62.417 187.019 62.417C184.644 62.417 182.676 60.3756 182.676 57.1836C182.676 54.0473 184.606 51.9688 187.019 51.9688C188.281 51.9688 189.357 52.5255 189.896 53.472V48.7211H192.457V62.1758ZM187.65 60.4499C189.06 60.4499 189.988 59.2436 189.988 57.1836C189.988 55.1794 189.06 53.936 187.65 53.936C186.314 53.936 185.367 55.2536 185.367 57.2022C185.367 59.1508 186.314 60.4499 187.65 60.4499ZM201.676 59.0951L203.235 52.1915H205.963L207.541 59.0766L208.877 52.1915H211.419L209.062 62.1758H206.427L204.608 54.6041L202.771 62.1758H200.136L197.798 52.1915H200.34L201.676 59.0951ZM212.577 52.1915H215.138V62.1758H212.577V52.1915ZM212.577 48.7211H215.138V51.0966H212.577V48.7211ZM217.786 52.1915V49.482H220.347V52.1915H222.426V53.9545H220.347V59.1137C220.347 60.1344 220.7 60.3385 221.609 60.3385H222.389V62.1758H220.514C218.213 62.1758 217.786 61.4706 217.786 59.4849V53.9545H216.376V52.1915H217.786ZM226.628 48.7211V53.5091C227.203 52.4884 228.28 51.9688 229.523 51.9688C231.917 51.9688 232.975 53.4163 232.975 55.8846V62.1758H230.414V56.4413C230.414 55.1608 230.135 54.0288 228.688 54.0288C226.999 54.0288 226.628 55.4021 226.628 56.9795V62.1758H224.067V48.7211H226.628ZM248.086 55.4392C248.086 51.4121 245.692 50.7996 243.243 50.7996H242.018V60.0973H243.243C245.692 60.0973 248.086 59.5034 248.086 55.4392ZM239.364 48.7211H243.354C247.623 48.7211 250.833 50.0944 250.833 55.4392C250.833 60.7839 247.623 62.1758 243.354 62.1758H239.364V48.7211ZM258.572 62.1758V60.8582C257.997 61.8789 256.902 62.417 255.659 62.417C253.265 62.417 252.3 60.9509 252.3 58.5013V52.1915H254.861V57.9445C254.861 59.2807 255.065 60.3571 256.494 60.3571C258.201 60.3571 258.572 58.9652 258.572 57.3878V52.1915H261.133V62.1758H258.572ZM267.792 51.9688C269.889 51.9688 271.967 53.138 272.32 55.6062H269.87C269.666 54.6412 268.775 53.9545 267.792 53.9545C266.455 53.9545 265.398 55.0866 265.398 57.1651C265.398 59.2622 266.4 60.4313 267.81 60.4313C268.701 60.4313 269.61 59.9674 269.963 58.7796H272.413C271.819 61.5077 269.759 62.417 267.68 62.417C264.692 62.417 262.781 60.2272 262.781 57.2022C262.781 54.1587 264.804 51.9688 267.792 51.9688ZM273.942 48.7211H276.503V56.2001L280.14 52.1915H283.017L279.435 56.0145L283.221 62.1758H280.344L277.728 57.8517L276.503 59.1694V62.1758H273.942V48.7211ZM293.014 55.4392C293.014 51.4121 290.62 50.7996 288.17 50.7996H286.945V60.0973H288.17C290.62 60.0973 293.014 59.5034 293.014 55.4392ZM284.292 48.7211H288.282C292.55 48.7211 295.76 50.0944 295.76 55.4392C295.76 60.7839 292.55 62.1758 288.282 62.1758H284.292V48.7211ZM297.63 62.1758V48.7211H302.864C305.22 48.7211 307.763 49.4635 307.763 52.2286C307.763 53.4906 306.928 54.6226 306.241 55.068C307.28 55.5691 308.245 56.3485 308.245 58.2043C308.245 61.0994 305.851 62.1758 303.086 62.1758H297.63ZM300.284 56.2743V60.0973H303.216C304.775 60.0973 305.536 59.4477 305.536 58.2043C305.536 56.9424 304.757 56.2743 303.105 56.2743H300.284ZM300.284 50.7996V54.27H303.031C304.293 54.27 305.035 53.6762 305.035 52.4884C305.035 51.4306 304.274 50.7996 303.031 50.7996H300.284Z" fill="#E4DFFF"/>
<defs>
<filter id="filter0_f_10904_37672" x="127.255" y="184.252" width="373.748" height="286.057" filterUnits="userSpaceOnUse" color-interpolation-filters="sRGB">
<feFlood flood-opacity="0" result="BackgroundImageFix"/>
<feBlend mode="normal" in="SourceGraphic" in2="BackgroundImageFix" result="shape"/>
<feGaussianBlur stdDeviation="10.6047" result="effect1_foregroundBlur_10904_37672"/>
</filter>
<linearGradient id="paint0_linear_10904_37672" x1="307.753" y1="-32.2631" x2="302.079" y2="763.324" gradientUnits="userSpaceOnUse">
<stop stop-color="#9683FF"/>
<stop offset="0.938633" stop-color="#D4CDFF"/>
</linearGradient>
<linearGradient id="paint1_linear_10904_37672" x1="306.771" y1="-32.1602" x2="301.115" y2="760.889" gradientUnits="userSpaceOnUse">
<stop stop-color="#9683FF"/>
<stop offset="0.938633" stop-color="#D4CDFF"/>
</linearGradient>
<clipPath id="clip0_10904_37672">
<rect width="625" height="625" fill="white"/>
</clipPath>
</defs>
</svg>
