<svg width="627" height="627" viewBox="0 0 627 627" fill="none" xmlns="http://www.w3.org/2000/svg">
<rect width="627" height="627" fill="url(#paint0_linear_10904_38219)"/>
<g clip-path="url(#clip0_10904_38219)">
<rect width="625" height="625" fill="url(#paint1_linear_10904_38219)"/>
<path d="M291.625 236.801C292.207 236.218 292.207 235.274 291.625 234.691L282.133 225.199C281.55 224.617 280.606 224.617 280.023 225.199C279.441 225.782 279.441 226.726 280.023 227.309L288.461 235.746L280.023 244.183C279.441 244.766 279.441 245.71 280.023 246.293C280.606 246.875 281.55 246.875 282.133 246.293L291.625 236.801ZM290.57 235.746V234.255H120.614V235.746V237.238H290.57V235.746ZM55.8213 300.539H54.3298L54.3298 344.396H55.8214H57.3129L57.3129 300.539H55.8213ZM120.614 409.188V410.68H678.074V409.188V407.697H120.614V409.188ZM742.867 473.981H741.375V716.704H742.867H744.358V473.981H742.867ZM807.659 781.497V782.989H986.842V781.497V780.005H807.659V781.497ZM742.867 716.704H741.375C741.375 753.312 771.052 782.989 807.659 782.989V781.497V780.005C772.699 780.005 744.358 751.665 744.358 716.704H742.867ZM678.074 409.188V410.68C713.034 410.68 741.375 439.021 741.375 473.981H742.867H744.358C744.358 437.373 714.682 407.697 678.074 407.697V409.188ZM55.8214 344.396H54.3298C54.3299 381.004 84.0063 410.68 120.614 410.68V409.188V407.697C85.6538 407.697 57.3129 379.356 57.3129 344.396H55.8214ZM120.614 235.746V234.255C84.0063 234.255 54.3298 263.931 54.3298 300.539H55.8213H57.3129C57.3128 265.579 85.6538 237.238 120.614 237.238V235.746Z" fill="#9787F2"/>
<path d="M568.518 663.876L568.518 -5.86758C568.518 -41.6516 597.526 -70.6602 633.31 -70.6602L747.839 -70.6602C783.623 -70.6602 812.632 -41.6516 812.632 -5.86757L812.632 271.619C812.632 307.403 841.64 336.412 877.424 336.412L1413.99 336.412C1449.77 336.412 1478.78 365.421 1478.78 401.205L1478.78 533.781" stroke="#9787F2" stroke-width="2.98306"/>
<rect x="546.214" y="103.631" width="44.9324" height="89.7888" rx="22.4662" fill="#9787F2" stroke="#9787F2" stroke-width="1.91768"/>
<path d="M68.5007 -184.901C67.9182 -185.483 66.9738 -185.483 66.3913 -184.901L56.8993 -175.409C56.3168 -174.826 56.3168 -173.882 56.8993 -173.299C57.4818 -172.717 58.4262 -172.717 59.0087 -173.299L67.446 -181.737L75.8833 -173.299C76.4659 -172.717 77.4102 -172.717 77.9927 -173.299C78.5752 -173.882 78.5752 -174.826 77.9927 -175.409L68.5007 -184.901ZM-409.886 -220.295L-409.886 -218.803L-409.886 -220.295ZM-345.093 -155.502L-346.585 -155.502L-346.585 141.049L-345.093 141.049L-343.601 141.049L-343.602 -155.502L-345.093 -155.502ZM-280.3 205.841L-280.3 207.333L2.65332 207.333L2.65332 205.842L2.65332 204.35L-280.3 204.35L-280.3 205.841ZM67.446 141.049L68.9376 141.049L68.9375 -183.846L67.446 -183.846L65.9545 -183.846L65.9545 141.049L67.446 141.049ZM-409.886 -220.295L-409.886 -221.786L-573.503 -221.786L-573.503 -220.295L-573.503 -218.803L-409.886 -218.803L-409.886 -220.295ZM2.65332 205.842L2.65332 207.333C39.261 207.333 68.9376 177.657 68.9376 141.049L67.446 141.049L65.9545 141.049C65.9545 176.009 37.6136 204.35 2.65332 204.35L2.65332 205.842ZM-345.093 141.049L-346.585 141.049C-346.585 177.656 -316.908 207.333 -280.3 207.333L-280.3 205.841L-280.3 204.35C-315.261 204.35 -343.601 176.009 -343.601 141.049L-345.093 141.049ZM-345.093 -155.502L-343.602 -155.502C-343.602 -192.11 -373.278 -221.786 -409.886 -221.786L-409.886 -220.295L-409.886 -218.803C-374.926 -218.803 -346.585 -190.462 -346.585 -155.502L-345.093 -155.502Z" fill="#9787F2"/>
<path d="M-115.631 1103.47L-115.631 888.657C-115.631 852.873 -86.6221 823.864 -50.8382 823.864L9.46977 823.864C45.2537 823.864 74.2623 794.855 74.2623 759.072L74.2623 570.674C74.2623 534.89 103.271 505.882 139.055 505.882L350.878 505.882C386.662 505.882 415.67 476.873 415.67 441.089L415.67 -60.8067C415.67 -96.5908 444.679 -125.6 480.463 -125.599L591.108 -125.599" stroke="#9787F2" stroke-width="2.98306"/>
<path d="M241.43 586.31C240.328 586.31 239.376 586.124 238.574 585.75C237.79 585.396 237.192 584.864 236.782 584.154C236.371 583.464 236.194 582.633 236.25 581.662L236.53 577.07C236.586 576.081 236.436 575.372 236.082 574.942C235.727 574.494 234.943 574.27 233.73 574.27H230.65V572.03H233.73C234.943 572.03 235.727 571.816 236.082 571.386C236.436 570.938 236.586 570.22 236.53 569.23L236.25 564.638C236.194 563.649 236.371 562.809 236.782 562.118C237.192 561.428 237.79 560.905 238.574 560.55C239.376 560.177 240.328 559.99 241.43 559.99H242.69V562.23H241.43C240.552 562.23 239.88 562.436 239.414 562.846C238.947 563.238 238.732 563.836 238.77 564.638L239.05 569.23C239.124 570.444 238.835 571.414 238.182 572.142C237.528 572.852 236.604 573.206 235.41 573.206V573.066C236.586 573.066 237.5 573.43 238.154 574.158C238.826 574.886 239.124 575.857 239.05 577.07L238.77 581.662C238.732 582.465 238.947 583.062 239.414 583.454C239.88 583.865 240.552 584.07 241.43 584.07H242.69V586.31H241.43ZM247.439 586.31V584.07H248.699C249.576 584.07 250.248 583.865 250.715 583.454C251.181 583.062 251.396 582.465 251.359 581.662L251.079 577.07C251.004 575.857 251.293 574.886 251.947 574.158C252.619 573.43 253.543 573.066 254.719 573.066V573.206C253.524 573.206 252.6 572.852 251.947 572.142C251.293 571.414 251.004 570.444 251.079 569.23L251.359 564.638C251.396 563.836 251.181 563.238 250.715 562.846C250.248 562.436 249.576 562.23 248.699 562.23H247.439V559.99H248.699C249.8 559.99 250.743 560.177 251.527 560.55C252.329 560.905 252.936 561.428 253.347 562.118C253.757 562.809 253.935 563.649 253.879 564.638L253.599 569.23C253.543 570.22 253.692 570.938 254.047 571.386C254.401 571.816 255.185 572.03 256.399 572.03H259.479V574.27H256.399C255.204 574.27 254.42 574.494 254.047 574.942C253.692 575.372 253.543 576.081 253.599 577.07L253.879 581.662C253.935 582.633 253.757 583.464 253.347 584.154C252.936 584.864 252.329 585.396 251.527 585.75C250.743 586.124 249.8 586.31 248.699 586.31H247.439Z" fill="#9787F2"/>
<path d="M125.58 116.36C122.929 115.707 120.867 114.419 119.392 112.496C117.917 110.573 117.18 108.221 117.18 105.44V100.4C117.18 98.5707 117.516 96.9187 118.188 95.444C118.879 93.9507 119.849 92.6907 121.1 91.664C122.369 90.6373 123.863 89.9093 125.58 89.48V91.86C124.385 92.14 123.349 92.6813 122.472 93.484C121.595 94.268 120.913 95.248 120.428 96.424C119.943 97.6 119.7 98.9253 119.7 100.4V105.44C119.7 106.877 119.933 108.184 120.4 109.36C120.885 110.536 121.567 111.516 122.444 112.3C123.34 113.065 124.385 113.588 125.58 113.868V116.36ZM132.009 116.36V113.868C133.222 113.588 134.268 113.065 135.145 112.3C136.022 111.516 136.694 110.536 137.161 109.36C137.646 108.184 137.889 106.877 137.889 105.44V100.4C137.889 98.9253 137.646 97.6 137.161 96.424C136.676 95.248 135.994 94.268 135.117 93.484C134.24 92.6813 133.204 92.14 132.009 91.86V89.48C133.745 89.9093 135.238 90.6373 136.489 91.664C137.74 92.6907 138.701 93.9507 139.373 95.444C140.064 96.9187 140.409 98.5707 140.409 100.4V105.44C140.409 108.221 139.672 110.573 138.197 112.496C136.722 114.419 134.66 115.707 132.009 116.36ZM150.338 117.48L152.578 108.772H156.218L152.578 117.48H150.338ZM153.698 101.52C153.082 101.52 152.578 101.324 152.186 100.932C151.794 100.54 151.598 100.036 151.598 99.42C151.598 98.8227 151.794 98.328 152.186 97.936C152.597 97.5253 153.101 97.32 153.698 97.32H154.258C154.855 97.32 155.35 97.5253 155.742 97.936C156.153 98.328 156.358 98.8227 156.358 99.42C156.358 100.036 156.162 100.54 155.77 100.932C155.378 101.324 154.874 101.52 154.258 101.52H153.698Z" fill="#9787F2"/>
</g>
<defs>
<linearGradient id="paint0_linear_10904_38219" x1="307.753" y1="-32.2631" x2="302.079" y2="763.324" gradientUnits="userSpaceOnUse">
<stop stop-color="#9683FF"/>
<stop offset="0.938633" stop-color="#D4CDFF"/>
</linearGradient>
<linearGradient id="paint1_linear_10904_38219" x1="306.771" y1="-32.1602" x2="301.115" y2="760.889" gradientUnits="userSpaceOnUse">
<stop stop-color="#9683FF"/>
<stop offset="0.938633" stop-color="#D4CDFF"/>
</linearGradient>
<clipPath id="clip0_10904_38219">
<rect width="625" height="625" fill="white"/>
</clipPath>
</defs>
</svg>
