<svg width="627" height="627" viewBox="0 0 627 627" fill="none" xmlns="http://www.w3.org/2000/svg">
<rect width="627" height="627" fill="url(#paint0_linear_10930_6210)"/>
<g clip-path="url(#clip0_10930_6210)">
<rect width="625" height="625" fill="url(#paint1_linear_10930_6210)"/>
<path d="M1488.24 207.83C1489.06 207.83 1489.73 207.162 1489.73 206.339C1489.73 205.515 1489.06 204.847 1488.24 204.847L1488.24 206.339L1488.24 207.83ZM388.943 -54.3849C388.36 -53.8024 388.36 -52.8581 388.943 -52.2756L398.435 -42.7836C399.017 -42.2011 399.961 -42.2011 400.544 -42.7836C401.126 -43.366 401.126 -44.3104 400.544 -44.8929L392.107 -53.3303L400.544 -61.7676C401.126 -62.3501 401.126 -63.2945 400.544 -63.877C399.961 -64.4594 399.017 -64.4594 398.435 -63.877L388.943 -54.3849ZM540.271 11.4622L541.762 11.4622L540.271 11.4622ZM605.064 206.339L605.064 204.847L605.064 206.339ZM540.271 141.546L541.763 141.546L540.271 141.546ZM1488.24 206.339L1488.24 204.847L605.064 204.847L605.064 206.339L605.064 207.83L1488.24 207.83L1488.24 206.339ZM540.271 141.546L541.763 141.546L541.762 11.4622L540.271 11.4622L538.779 11.4623L538.78 141.546L540.271 141.546ZM475.478 -53.3302L475.478 -54.8218L389.997 -54.8218L389.997 -53.3303L389.997 -51.8387L475.478 -51.8387L475.478 -53.3302ZM540.271 11.4622L541.762 11.4622C541.762 -25.1454 512.086 -54.8218 475.478 -54.8218L475.478 -53.3302L475.478 -51.8387C510.438 -51.8387 538.779 -23.4979 538.779 11.4623L540.271 11.4622ZM605.064 206.339L605.064 204.847C570.104 204.847 541.763 176.506 541.763 141.546L540.271 141.546L538.78 141.546C538.78 178.154 568.456 207.83 605.064 207.83L605.064 206.339Z" fill="#9787F2"/>
<path d="M-103.668 97.6876L103.17 97.6877C138.954 97.6877 167.962 126.696 167.962 162.48L167.962 404.705C167.962 440.489 196.97 469.498 232.754 469.498L304.526 469.498C340.31 469.498 369.318 440.489 369.318 404.705L369.318 -13.2014C369.318 -48.9854 398.327 -77.994 434.111 -77.994L714.712 -77.9939C750.496 -77.9939 779.504 -107.003 779.504 -142.787L779.504 -321.969" stroke="#9787F2" stroke-width="2.98306"/>
<path d="M1217.11 -497.408L1217.11 -282.595C1217.11 -246.811 1188.1 -217.802 1152.31 -217.802L1141.01 -217.802C1105.23 -217.802 1076.22 -188.793 1076.22 -153.01L1076.22 113.637C1076.22 149.421 1047.21 178.43 1011.43 178.43L776.807 178.429C741.023 178.429 712.015 149.421 712.015 113.637L712.015 -128.964C712.015 -164.748 683.006 -193.757 647.222 -193.757L510.367 -193.757" stroke="#9787F2" stroke-width="2.98306"/>
<path d="M547.747 727.172L547.747 328.947C547.747 293.163 518.738 264.154 482.954 264.155L352.212 264.156C316.428 264.156 287.42 293.164 287.42 328.948L287.42 726.674" stroke="#9787F2" stroke-width="2.98306" stroke-linejoin="round"/>
<path d="M-8.97118 525.821C-9.79493 525.821 -10.4627 526.489 -10.4627 527.312C-10.4627 528.136 -9.79495 528.804 -8.9712 528.804L-8.97119 527.312L-8.97118 525.821ZM167.024 528.368C167.606 527.786 167.606 526.841 167.024 526.259L157.532 516.767C156.949 516.184 156.005 516.184 155.422 516.767C154.84 517.349 154.84 518.294 155.422 518.876L163.86 527.314L155.422 535.751C154.84 536.333 154.84 537.278 155.422 537.86C156.005 538.443 156.949 538.443 157.532 537.86L167.024 528.368ZM-8.97119 527.312L-8.9712 528.804L165.969 528.805L165.969 527.314L165.969 525.822L-8.97118 525.821L-8.97119 527.312Z" fill="#9787F2"/>
<path d="M-37.8789 47.3522C-38.7027 47.3522 -39.3704 48.02 -39.3704 48.8438C-39.3704 49.6675 -38.7027 50.3353 -37.8789 50.3353L-37.8789 48.8437L-37.8789 47.3522ZM297.107 49.8984C297.69 49.3159 297.69 48.3715 297.107 47.789L287.615 38.297C287.033 37.7145 286.088 37.7145 285.506 38.297C284.923 38.8795 284.923 39.8239 285.506 40.4064L293.943 48.8437L285.506 57.2811C284.923 57.8636 284.923 58.8079 285.506 59.3904C286.088 59.9729 287.033 59.9729 287.615 59.3904L297.107 49.8984ZM-37.8789 48.8437L-37.8789 50.3353L296.053 50.3352L296.053 48.8437L296.053 47.3522L-37.8789 47.3522L-37.8789 48.8437Z" fill="#9787F2"/>
<path d="M221.191 174.033L222.731 165.465H225.755L223.795 174.033H221.191Z" fill="#9787F2"/>
<path d="M328.846 583.722L330.386 575.154H333.41L331.45 583.722H328.846Z" fill="#9787F2"/>
<path d="M66.4111 391.215C63.7417 390.618 61.6697 389.367 60.1951 387.463C58.7391 385.559 58.0111 383.17 58.0111 380.295V375.255C58.0111 372.381 58.7391 369.991 60.1951 368.087C61.6697 366.183 63.7417 364.933 66.4111 364.335V366.771C65.2164 367.051 64.1711 367.583 63.2751 368.367C62.3977 369.151 61.7164 370.131 61.2311 371.307C60.7644 372.465 60.5311 373.781 60.5311 375.255V380.295C60.5311 381.751 60.7644 383.067 61.2311 384.243C61.7164 385.419 62.3977 386.399 63.2751 387.183C64.1711 387.967 65.2164 388.499 66.4111 388.779V391.215ZM72.8401 391.215V388.779C74.0535 388.499 75.0988 387.967 75.9761 387.183C76.8535 386.399 77.5255 385.419 77.9921 384.243C78.4775 383.067 78.7201 381.751 78.7201 380.295V375.255C78.7201 373.781 78.4775 372.465 77.9921 371.307C77.5255 370.131 76.8535 369.151 75.9761 368.367C75.0988 367.583 74.0535 367.051 72.8401 366.771V364.335C75.5095 364.933 77.5721 366.183 79.0281 368.087C80.5028 369.991 81.2401 372.381 81.2401 375.255V380.295C81.2401 383.17 80.5028 385.559 79.0281 387.463C77.5721 389.367 75.5095 390.618 72.8401 391.215ZM94.5292 376.375C93.9132 376.375 93.4092 376.179 93.0172 375.787C92.6252 375.395 92.4292 374.891 92.4292 374.275C92.4292 373.678 92.6252 373.183 93.0172 372.791C93.4278 372.381 93.9318 372.175 94.5292 372.175H95.0892C95.6865 372.175 96.1812 372.381 96.5732 372.791C96.9838 373.183 97.1892 373.678 97.1892 374.275C97.1892 374.891 96.9932 375.395 96.6012 375.787C96.2092 376.179 95.7052 376.375 95.0892 376.375H94.5292ZM92.1492 392.335L93.6892 383.767H96.7132L94.7532 392.335H92.1492Z" fill="#9787F2"/>
<path d="M438.025 65.1687C437.334 65.1687 436.774 64.9633 436.345 64.5527C435.934 64.142 435.729 63.61 435.729 62.9567C435.729 62.266 435.934 61.706 436.345 61.2767C436.774 60.8473 437.334 60.6327 438.025 60.6327C438.716 60.6327 439.266 60.8473 439.677 61.2767C440.106 61.706 440.321 62.266 440.321 62.9567C440.321 63.61 440.106 64.142 439.677 64.5527C439.266 64.9633 438.716 65.1687 438.025 65.1687ZM451.37 62.0047L449.438 60.6327L451.258 58.0287C451.501 57.6927 451.827 57.282 452.238 56.7967C452.667 56.3113 453.069 55.882 453.442 55.5087C452.919 55.434 452.369 55.322 451.79 55.1727C451.211 55.0233 450.754 54.8833 450.418 54.7527L447.422 53.6327L448.206 51.4207L451.23 52.5407C451.547 52.6527 451.967 52.83 452.49 53.0727C453.013 53.3153 453.489 53.5673 453.918 53.8287C453.825 53.3433 453.75 52.8487 453.694 52.3447C453.657 51.822 453.638 51.3833 453.638 51.0287V47.5287H455.99V51.0287C455.99 51.3833 455.962 51.822 455.906 52.3447C455.85 52.8487 455.775 53.3433 455.682 53.8287C456.13 53.5673 456.606 53.3153 457.11 53.0727C457.633 52.83 458.062 52.6527 458.398 52.5407L461.422 51.4207L462.206 53.6327L459.21 54.7527C458.874 54.8833 458.417 55.0233 457.838 55.1727C457.259 55.322 456.709 55.434 456.186 55.5087C456.559 55.882 456.961 56.3207 457.39 56.8247C457.819 57.31 458.146 57.7113 458.37 58.0287L460.19 60.6327L458.258 62.0047L456.438 59.3727C456.214 59.0553 455.943 58.6167 455.626 58.0567C455.309 57.4967 455.038 56.974 454.814 56.4887C454.59 56.974 454.319 57.4967 454.002 58.0567C453.685 58.598 453.414 59.0367 453.19 59.3727L451.37 62.0047Z" fill="#9787F2"/>
<rect x="40.9125" y="538.451" width="22.0823" height="45.0823" rx="11.0412" transform="rotate(-90 40.9125 538.451)" fill="#9787F2" stroke="#9787F2" stroke-width="1.91768"/>
</g>
<defs>
<linearGradient id="paint0_linear_10930_6210" x1="307.753" y1="-32.2631" x2="302.079" y2="763.324" gradientUnits="userSpaceOnUse">
<stop stop-color="#9683FF"/>
<stop offset="0.938633" stop-color="#D4CDFF"/>
</linearGradient>
<linearGradient id="paint1_linear_10930_6210" x1="306.771" y1="-32.1602" x2="301.115" y2="760.889" gradientUnits="userSpaceOnUse">
<stop stop-color="#9683FF"/>
<stop offset="0.938633" stop-color="#D4CDFF"/>
</linearGradient>
<clipPath id="clip0_10930_6210">
<rect width="625" height="625" fill="white"/>
</clipPath>
</defs>
</svg>
