<svg width="627" height="627" viewBox="0 0 627 627" fill="none" xmlns="http://www.w3.org/2000/svg">
<rect width="627" height="627" fill="url(#paint0_linear_10930_6210)"/>
<g clip-path="url(#clip0_10930_6210)">
<rect width="625" height="625" fill="url(#paint1_linear_10930_6210)"/>
<path d="M1488.24 207.83C1489.06 207.83 1489.73 207.162 1489.73 206.339C1489.73 205.515 1489.06 204.847 1488.24 204.847L1488.24 206.339L1488.24 207.83ZM388.943 -54.3849C388.36 -53.8024 388.36 -52.8581 388.943 -52.2756L398.435 -42.7836C399.017 -42.2011 399.961 -42.2011 400.544 -42.7836C401.126 -43.366 401.126 -44.3104 400.544 -44.8929L392.107 -53.3303L400.544 -61.7676C401.126 -62.3501 401.126 -63.2945 400.544 -63.8769C399.961 -64.4594 399.017 -64.4594 398.435 -63.877L388.943 -54.3849ZM540.271 11.4622L541.762 11.4622L541.762 11.4622L540.271 11.4622ZM605.064 206.339L605.064 204.847L605.064 206.339ZM540.271 141.546L541.763 141.546V141.546L540.271 141.546ZM1488.24 206.339L1488.24 204.847L605.064 204.847L605.064 206.339L605.064 207.83L1488.24 207.83L1488.24 206.339ZM540.271 141.546L541.763 141.546L541.762 11.4622L540.271 11.4622L538.779 11.4623L538.78 141.546L540.271 141.546ZM475.478 -53.3302L475.478 -54.8218L389.997 -54.8218L389.997 -53.3303L389.997 -51.8387L475.478 -51.8387L475.478 -53.3302ZM540.271 11.4622L541.762 11.4622C541.762 -25.1454 512.086 -54.8218 475.478 -54.8218L475.478 -53.3302L475.478 -51.8387C510.438 -51.8387 538.779 -23.4979 538.779 11.4623L540.271 11.4622ZM605.064 206.339L605.064 204.847C570.104 204.847 541.763 176.506 541.763 141.546L540.271 141.546L538.78 141.546C538.78 178.154 568.456 207.83 605.064 207.83L605.064 206.339Z" fill="#9787F2"/>
<path d="M-103.668 97.6876L103.17 97.6877C138.954 97.6877 167.962 126.696 167.962 162.48L167.962 404.705C167.962 440.489 196.97 469.498 232.754 469.498L304.526 469.498C340.31 469.498 369.318 440.489 369.318 404.705L369.318 -13.2014C369.318 -48.9854 398.327 -77.994 434.111 -77.994L714.712 -77.9939C750.496 -77.9939 779.504 -107.003 779.504 -142.787L779.504 -321.969" stroke="#9787F2" stroke-width="2.98306"/>
<path d="M1217.11 -497.408L1217.11 -282.595C1217.11 -246.811 1188.1 -217.802 1152.31 -217.802L1141.01 -217.802C1105.23 -217.802 1076.22 -188.793 1076.22 -153.01L1076.22 113.637C1076.22 149.421 1047.21 178.43 1011.43 178.43L776.807 178.429C741.023 178.429 712.015 149.421 712.015 113.637L712.015 -128.964C712.015 -164.748 683.006 -193.757 647.222 -193.757L510.367 -193.757" stroke="#9787F2" stroke-width="2.98306"/>
<path d="M547.747 727.172L547.747 328.947C547.747 293.163 518.738 264.154 482.954 264.155L352.212 264.156C316.428 264.156 287.42 293.164 287.42 328.948L287.42 726.674" stroke="#9787F2" stroke-width="2.98306" stroke-linejoin="round"/>
<path d="M-8.97118 525.821C-9.79493 525.821 -10.4627 526.489 -10.4627 527.312C-10.4627 528.136 -9.79495 528.804 -8.9712 528.804L-8.97119 527.312L-8.97118 525.821ZM167.024 528.368C167.606 527.786 167.606 526.841 167.024 526.259L157.532 516.767C156.949 516.184 156.005 516.184 155.422 516.767C154.84 517.349 154.84 518.294 155.422 518.876L163.86 527.314L155.422 535.751C154.84 536.333 154.84 537.278 155.422 537.86C156.005 538.443 156.949 538.443 157.532 537.86L167.024 528.368ZM-8.97119 527.312L-8.9712 528.804L165.969 528.805L165.969 527.314L165.969 525.822L-8.97118 525.821L-8.97119 527.312Z" fill="#9787F2"/>
<path d="M-37.8789 47.3522C-38.7027 47.3522 -39.3704 48.02 -39.3704 48.8438C-39.3704 49.6675 -38.7027 50.3353 -37.8789 50.3353L-37.8789 48.8437L-37.8789 47.3522ZM297.107 49.8984C297.69 49.3159 297.69 48.3715 297.107 47.789L287.615 38.297C287.033 37.7145 286.088 37.7145 285.506 38.297C284.923 38.8795 284.923 39.8239 285.506 40.4064L293.943 48.8437L285.506 57.2811C284.923 57.8636 284.923 58.8079 285.506 59.3904C286.088 59.9729 287.033 59.9729 287.615 59.3904L297.107 49.8984ZM-37.8789 48.8437L-37.8789 50.3353L296.053 50.3352L296.053 48.8437L296.053 47.3522L-37.8789 47.3522L-37.8789 48.8437Z" fill="#9787F2"/>
<path d="M221.191 174.033L222.731 165.465H225.755L223.795 174.033H221.191Z" fill="#9787F2"/>
<path d="M328.846 583.722L330.386 575.154H333.41L331.45 583.722H328.846Z" fill="#9787F2"/>
<path d="M66.4111 391.215C63.7417 390.618 61.6697 389.367 60.1951 387.463C58.7391 385.559 58.0111 383.17 58.0111 380.295V375.255C58.0111 372.381 58.7391 369.991 60.1951 368.087C61.6697 366.183 63.7417 364.933 66.4111 364.335V366.771C65.2164 367.051 64.1711 367.583 63.2751 368.367C62.3977 369.151 61.7164 370.131 61.2311 371.307C60.7644 372.465 60.5311 373.781 60.5311 375.255V380.295C60.5311 381.751 60.7644 383.067 61.2311 384.243C61.7164 385.419 62.3977 386.399 63.2751 387.183C64.1711 387.967 65.2164 388.499 66.4111 388.779V391.215ZM72.8401 391.215V388.779C74.0535 388.499 75.0988 387.967 75.9761 387.183C76.8535 386.399 77.5255 385.419 77.9921 384.243C78.4775 383.067 78.7201 381.751 78.7201 380.295V375.255C78.7201 373.781 78.4775 372.465 77.9921 371.307C77.5255 370.131 76.8535 369.151 75.9761 368.367C75.0988 367.583 74.0535 367.051 72.8401 366.771V364.335C75.5095 364.933 77.5721 366.183 79.0281 368.087C80.5028 369.991 81.2401 372.381 81.2401 375.255V380.295C81.2401 383.17 80.5028 385.559 79.0281 387.463C77.5721 389.367 75.5095 390.618 72.8401 391.215ZM94.5292 376.375C93.9132 376.375 93.4092 376.179 93.0172 375.787C92.6252 375.395 92.4292 374.891 92.4292 374.275C92.4292 373.678 92.6252 373.183 93.0172 372.791C93.4278 372.381 93.9318 372.175 94.5292 372.175H95.0892C95.6865 372.175 96.1812 372.381 96.5732 372.791C96.9838 373.183 97.1892 373.678 97.1892 374.275C97.1892 374.891 96.9932 375.395 96.6012 375.787C96.2092 376.179 95.7052 376.375 95.0892 376.375H94.5292ZM92.1492 392.335L93.6892 383.767H96.7132L94.7532 392.335H92.1492Z" fill="#9787F2"/>
<path d="M438.025 65.1687C437.334 65.1687 436.774 64.9633 436.345 64.5527C435.934 64.142 435.729 63.61 435.729 62.9567C435.729 62.266 435.934 61.706 436.345 61.2767C436.774 60.8473 437.334 60.6327 438.025 60.6327C438.716 60.6327 439.266 60.8473 439.677 61.2767C440.106 61.706 440.321 62.266 440.321 62.9567C440.321 63.61 440.106 64.142 439.677 64.5527C439.266 64.9633 438.716 65.1687 438.025 65.1687ZM451.37 62.0047L449.438 60.6327L451.258 58.0287C451.501 57.6927 451.827 57.282 452.238 56.7967C452.667 56.3113 453.069 55.882 453.442 55.5087C452.919 55.434 452.369 55.322 451.79 55.1727C451.211 55.0233 450.754 54.8833 450.418 54.7527L447.422 53.6327L448.206 51.4207L451.23 52.5407C451.547 52.6527 451.967 52.83 452.49 53.0727C453.013 53.3153 453.489 53.5673 453.918 53.8287C453.825 53.3433 453.75 52.8487 453.694 52.3447C453.657 51.822 453.638 51.3833 453.638 51.0287V47.5287H455.99V51.0287C455.99 51.3833 455.962 51.822 455.906 52.3447C455.85 52.8487 455.775 53.3433 455.682 53.8287C456.13 53.5673 456.606 53.3153 457.11 53.0727C457.633 52.83 458.062 52.6527 458.398 52.5407L461.422 51.4207L462.206 53.6327L459.21 54.7527C458.874 54.8833 458.417 55.0233 457.838 55.1727C457.259 55.322 456.709 55.434 456.186 55.5087C456.559 55.882 456.961 56.3207 457.39 56.8247C457.819 57.31 458.146 57.7113 458.37 58.0287L460.19 60.6327L458.258 62.0047L456.438 59.3727C456.214 59.0553 455.943 58.6167 455.626 58.0567C455.309 57.4967 455.038 56.974 454.814 56.4887C454.59 56.974 454.319 57.4967 454.002 58.0567C453.685 58.598 453.414 59.0367 453.19 59.3727L451.37 62.0047Z" fill="#9787F2"/>
<rect x="40.9125" y="538.451" width="22.0823" height="45.0823" rx="11.0412" transform="rotate(-90 40.9125 538.451)" fill="#9787F2" stroke="#9787F2" stroke-width="1.91768"/>
</g>
<g opacity="0.7" filter="url(#filter0_f_10930_6210)">
<path d="M182.799 218.462C253.907 200.865 304.577 234.428 314.076 241.376C314.293 241.534 314.608 241.548 314.852 241.385C374.019 201.712 434.795 215.386 446.169 218.453C448.265 219.019 449.589 220.915 449.589 222.974V241.269C458.542 244.084 465.296 247.154 468.557 248.753C470.627 249.768 471.84 251.865 471.84 254.086V435.04C471.84 438.411 469.107 441.144 465.736 441.145H162.522C159.151 441.144 156.418 438.411 156.418 435.04V254.235C156.418 251.893 157.771 249.702 160.015 248.765C162.796 247.603 168.005 245.582 175.626 243.243C176.85 242.868 178.071 242.899 179.171 243.243V223.087C179.171 220.894 180.684 218.985 182.799 218.462Z" fill="#AEA0FF"/>
<path d="M182.799 218.462L180.888 210.741L180.888 210.741L182.799 218.462ZM314.076 241.376L318.772 234.956L318.772 234.956L314.076 241.376ZM314.852 241.385L319.274 247.996L319.281 247.991L314.852 241.385ZM446.169 218.453L448.241 210.774L448.24 210.774L446.169 218.453ZM449.589 222.974L457.542 222.974L457.542 222.974L449.589 222.974ZM449.589 241.269H441.635V247.105L447.203 248.856L449.589 241.269ZM468.557 248.753L472.059 241.612L472.059 241.612L468.557 248.753ZM471.84 254.086L479.793 254.086L479.793 254.085L471.84 254.086ZM471.84 435.04L479.793 435.04V435.04H471.84ZM465.736 441.145L465.736 449.098L465.737 449.098L465.736 441.145ZM162.522 441.145L162.522 449.098H162.522V441.145ZM156.418 435.04L148.464 435.04L148.464 435.04L156.418 435.04ZM160.015 248.765L156.949 241.426L156.948 241.426L160.015 248.765ZM175.626 243.243L173.294 235.639L173.293 235.64L175.626 243.243ZM179.171 243.243L176.796 250.834L187.124 254.066V243.243H179.171ZM179.171 223.087L171.217 223.086V223.087H179.171ZM182.799 218.462L184.709 226.183C252.461 209.416 300.663 241.419 309.381 247.796L314.076 241.376L318.772 234.956C308.49 227.436 255.352 192.314 180.888 210.741L182.799 218.462ZM314.076 241.376L309.381 247.795C312.304 249.934 316.263 250.01 319.274 247.995L314.852 241.385L310.429 234.774C312.954 233.085 316.281 233.135 318.772 234.956L314.076 241.376ZM314.852 241.385L319.281 247.991C375.565 210.251 433.483 223.27 444.098 226.132L446.169 218.453L448.24 210.774C436.107 207.502 372.472 193.173 310.422 234.779L314.852 241.385ZM446.169 218.453L444.097 226.132C442.505 225.702 441.635 224.279 441.635 222.974L449.589 222.974L457.542 222.974C457.542 217.552 454.025 212.335 448.241 210.774L446.169 218.453ZM449.589 222.974H441.635V241.269H449.589H457.542V222.974H449.589ZM449.589 241.269L447.203 248.856C455.687 251.523 462.062 254.427 465.055 255.894L468.557 248.753L472.059 241.612C468.53 239.881 461.398 236.644 451.975 233.681L449.589 241.269ZM468.557 248.753L465.055 255.894C464.252 255.5 463.886 254.732 463.886 254.087L471.84 254.086L479.793 254.085C479.793 248.999 477.001 244.036 472.059 241.612L468.557 248.753ZM471.84 254.086H463.886V435.04H471.84H479.793V254.086H471.84ZM471.84 435.04L463.886 435.04C463.886 434.02 464.713 433.191 465.736 433.191L465.736 441.145L465.737 449.098C473.502 449.098 479.793 442.802 479.793 435.04L471.84 435.04ZM465.736 441.145V433.191H162.522V441.145V449.098H465.736V441.145ZM162.522 441.145L162.523 433.191C163.544 433.191 164.371 434.019 164.371 435.04L156.418 435.04L148.464 435.04C148.465 442.804 154.759 449.098 162.522 449.098L162.522 441.145ZM156.418 435.04H164.371V254.235H156.418H148.464V435.04H156.418ZM156.418 254.235H164.371C164.371 254.921 163.959 255.736 163.081 256.103L160.015 248.765L156.948 241.426C151.582 243.668 148.464 248.864 148.464 254.235H156.418ZM160.015 248.765L163.08 256.104C165.631 255.038 170.595 253.106 177.959 250.847L175.626 243.243L173.293 235.64C165.415 238.057 159.962 240.167 156.949 241.426L160.015 248.765ZM175.626 243.243L177.958 250.847C177.608 250.954 177.188 250.956 176.796 250.834L179.171 243.243L181.546 235.653C178.955 234.842 176.092 234.781 173.294 235.639L175.626 243.243ZM179.171 243.243H187.124V223.087H179.171H171.217V243.243H179.171ZM179.171 223.087L187.124 223.087C187.124 224.585 186.111 225.836 184.709 226.183L182.799 218.462L180.888 210.741C175.258 212.135 171.218 217.203 171.217 223.086L179.171 223.087Z" fill="#AEA0FF"/>
</g>
<path d="M469.815 250.359C471.119 250.998 471.907 252.33 471.907 253.782V435.741C471.907 437.937 470.127 439.717 467.93 439.717H163.047C160.85 439.717 159.07 437.937 159.07 435.741V253.93C159.07 252.4 159.948 251.013 161.36 250.423C164.095 249.28 169.277 247.267 176.895 244.93C179.418 244.156 181.946 246.063 181.946 248.702V405.01C181.946 407.471 184.158 409.375 186.604 409.103C202.862 407.296 259.112 403.807 314.515 432.931C315.83 433.623 317.419 433.567 318.696 432.807C328.404 427.021 372.578 403.646 445.198 408.63C447.519 408.789 449.536 406.965 449.536 404.638V243.515C449.536 243.008 450.005 242.612 450.486 242.773C459.645 245.612 466.547 248.756 469.815 250.359Z" fill="#7C6BE4" stroke="#7C6BE4" stroke-width="4.25512" stroke-miterlimit="10"/>
<path d="M183.955 220.057C182.783 220.347 181.945 221.41 181.945 222.617V406.58C181.945 408.221 183.42 409.487 185.049 409.287C198.99 407.574 257.662 402.752 315.23 433.311C316.105 433.775 317.163 433.74 318.008 433.223C326.178 428.225 371.252 403.2 446.637 408.734C448.183 408.847 449.536 407.631 449.536 406.08V222.504C449.536 221.35 448.803 220.337 447.689 220.037C436.482 217.014 376.126 203.422 317.397 242.807C316.421 243.461 315.129 243.443 314.18 242.748C304.861 235.93 254.569 202.577 183.955 220.057Z" fill="#E4DFFF" stroke="#7C6BE4" stroke-width="4.25512" stroke-miterlimit="10"/>
<path d="M315.741 243.934V434.079" stroke="#7C6BE4" stroke-width="4.25512" stroke-miterlimit="10"/>
<path d="M206.87 265.456C206.87 265.456 254.714 259.206 297.942 280.404Z" fill="#E4DFFF"/>
<path d="M206.87 265.456C206.87 265.456 254.714 259.206 297.942 280.404" stroke="#7C6BE4" stroke-width="4.25512" stroke-miterlimit="10" stroke-linecap="round"/>
<path d="M206.87 294.387C206.87 294.387 254.714 288.138 297.942 309.336Z" fill="#E4DFFF"/>
<path d="M206.87 294.387C206.87 294.387 254.714 288.138 297.942 309.336" stroke="#7C6BE4" stroke-width="4.25512" stroke-miterlimit="10" stroke-linecap="round"/>
<path d="M206.87 323.336C206.87 323.336 254.714 317.087 297.942 338.285Z" fill="#E4DFFF"/>
<path d="M206.87 323.336C206.87 323.336 254.714 317.087 297.942 338.285" stroke="#7C6BE4" stroke-width="4.25512" stroke-miterlimit="10" stroke-linecap="round"/>
<path d="M206.87 352.268C206.87 352.268 254.714 346.018 297.942 367.217Z" fill="#E4DFFF"/>
<path d="M206.87 352.268C206.87 352.268 254.714 346.018 297.942 367.217" stroke="#7C6BE4" stroke-width="4.25512" stroke-miterlimit="10" stroke-linecap="round"/>
<path d="M422.904 265.456C422.904 265.456 375.059 259.206 331.832 280.404Z" fill="#E4DFFF"/>
<path d="M422.904 265.456C422.904 265.456 375.059 259.206 331.832 280.404" stroke="#7C6BE4" stroke-width="4.25512" stroke-miterlimit="10" stroke-linecap="round"/>
<path d="M422.904 294.387C422.904 294.387 375.059 288.138 331.832 309.336Z" fill="#E4DFFF"/>
<path d="M422.904 294.387C422.904 294.387 375.059 288.138 331.832 309.336" stroke="#7C6BE4" stroke-width="4.25512" stroke-miterlimit="10" stroke-linecap="round"/>
<path d="M422.904 323.336C422.904 323.336 375.059 317.087 331.832 338.285Z" fill="#E4DFFF"/>
<path d="M422.904 323.336C422.904 323.336 375.059 317.087 331.832 338.285" stroke="#7C6BE4" stroke-width="4.25512" stroke-miterlimit="10" stroke-linecap="round"/>
<path d="M422.904 352.268C422.904 352.268 375.059 346.018 331.832 367.217Z" fill="#E4DFFF"/>
<path d="M422.904 352.268C422.904 352.268 375.059 346.018 331.832 367.217" stroke="#7C6BE4" stroke-width="4.25512" stroke-miterlimit="10" stroke-linecap="round"/>
<rect x="30.6514" y="26.6172" width="474.023" height="58.1163" rx="29.0581" fill="#7C6BE4"/>
<path d="M61.0202 48.7211H63.7111L63.3399 53.5277H61.3728L61.0202 48.7211ZM57.9024 48.7211H60.5933L60.2222 53.5277H58.255L57.9024 48.7211ZM67.8277 48.7211V62.1758H65.1738V48.7211H67.8277ZM72.7537 52.1915V53.5091C73.329 52.4884 74.4054 51.9688 75.6488 51.9688C78.0428 51.9688 79.1006 53.4163 79.1006 55.8846V62.1758H76.5395V56.4413C76.5395 55.1608 76.2612 54.0288 74.8136 54.0288C73.1249 54.0288 72.7537 55.4021 72.7537 56.9795V62.1758H70.1927V52.1915H72.7537ZM81.6004 52.1915V49.482H84.1614V52.1915H86.2399V53.9545H84.1614V59.1137C84.1614 60.1344 84.514 60.3385 85.4234 60.3385H86.2028V62.1758H84.3285C82.0272 62.1758 81.6004 61.4706 81.6004 59.4849V53.9545H80.19V52.1915H81.6004ZM97.1414 57.8889H89.7738C89.9223 59.5962 91.0729 60.4313 92.2977 60.4313C93.0957 60.4313 93.8752 60.1529 94.3948 59.2807H97.0301C96.4919 60.7654 95.0443 62.417 92.3163 62.417C89.1057 62.417 87.2314 60.023 87.2314 57.1465C87.2314 54.1772 89.2913 51.9688 92.2421 51.9688C95.3227 51.9688 97.2342 54.3628 97.1414 57.8889ZM92.2235 53.8432C91.2585 53.8432 90.0151 54.437 89.8109 56.1258H94.5433C94.4876 54.437 93.2999 53.8432 92.2235 53.8432ZM103.406 59.8746C104.834 59.8746 105.707 58.6683 105.707 56.8867C105.707 55.1237 104.834 53.9174 103.406 53.9174C102.088 53.9174 101.104 55.235 101.104 56.9053C101.104 58.5569 102.088 59.8746 103.406 59.8746ZM105.614 52.1915H108.156V61.1736C108.156 64.4399 106.319 65.6647 103.257 65.6647C101.123 65.6647 99.2485 64.8853 98.8959 62.5655H101.327C101.55 63.3821 102.236 63.7903 103.387 63.7903C104.723 63.7903 105.614 63.1594 105.614 61.6562V60.32C104.964 61.4149 103.795 61.8232 102.756 61.8232C100.306 61.8232 98.4134 59.8003 98.4134 56.8867C98.4134 54.0473 100.251 51.9688 102.756 51.9688C104.018 51.9688 105.169 52.6183 105.614 53.4906V52.1915ZM116.196 52.2472V54.6597C115.825 54.6041 115.51 54.6041 115.139 54.6041C113.877 54.6041 113.042 55.068 113.042 56.9424V62.1758H110.48V52.1915H113.004V53.936C113.58 52.6926 114.47 52.2101 115.64 52.2101C115.807 52.2101 116.029 52.2286 116.196 52.2472ZM123.385 58.3528V57.6105C120.509 57.9074 119.377 58.2415 119.377 59.3549C119.377 60.0787 119.934 60.6726 121.103 60.6726C122.717 60.6726 123.385 59.8189 123.385 58.3528ZM123.608 60.9324C122.884 61.9716 121.845 62.417 120.342 62.417C118.43 62.417 116.742 61.3035 116.742 59.4849C116.742 57.128 119.377 56.4228 123.311 55.9774V55.8103C123.311 54.27 122.476 53.7318 121.437 53.7318C120.453 53.7318 119.637 54.2329 119.581 55.3464H117.187C117.391 53.3792 118.987 51.9317 121.567 51.9317C123.924 51.9317 125.872 52.9709 125.872 56.33C125.872 56.6269 125.835 57.9816 125.835 58.8724C125.835 60.4499 125.928 61.3407 126.132 62.1758H123.775C123.701 61.8603 123.664 61.4335 123.608 60.9324ZM128.358 52.1915V49.482H130.919V52.1915H132.998V53.9545H130.919V59.1137C130.919 60.1344 131.272 60.3385 132.181 60.3385H132.961V62.1758H131.086C128.785 62.1758 128.358 61.4706 128.358 59.4849V53.9545H126.948V52.1915H128.358ZM134.639 52.1915H137.2V62.1758H134.639V52.1915ZM134.639 48.7211H137.2V51.0966H134.639V48.7211ZM142.057 52.1915V53.5091C142.632 52.4884 143.708 51.9688 144.952 51.9688C147.346 51.9688 148.404 53.4163 148.404 55.8846V62.1758H145.843V56.4413C145.843 55.1608 145.564 54.0288 144.117 54.0288C142.428 54.0288 142.057 55.4021 142.057 56.9795V62.1758H139.496V52.1915H142.057ZM154.893 59.8746C156.322 59.8746 157.195 58.6683 157.195 56.8867C157.195 55.1237 156.322 53.9174 154.893 53.9174C153.576 53.9174 152.592 55.235 152.592 56.9053C152.592 58.5569 153.576 59.8746 154.893 59.8746ZM157.102 52.1915H159.644V61.1736C159.644 64.4399 157.807 65.6647 154.745 65.6647C152.611 65.6647 150.736 64.8853 150.384 62.5655H152.815C153.038 63.3821 153.724 63.7903 154.875 63.7903C156.211 63.7903 157.102 63.1594 157.102 61.6562V60.32C156.452 61.4149 155.283 61.8232 154.244 61.8232C151.794 61.8232 149.901 59.8003 149.901 56.8867C149.901 54.0473 151.739 51.9688 154.244 51.9688C155.506 51.9688 156.656 52.6183 157.102 53.4906V52.1915ZM165.004 62.1758L170.015 48.7211H172.687L177.717 62.1758H174.84L173.894 59.4477H168.66L167.714 62.1758H165.004ZM171.277 51.9688L169.421 57.2764H173.133L171.277 51.9688ZM181.42 52.1915V53.5091C181.996 52.4884 183.072 51.9688 184.315 51.9688C186.709 51.9688 187.767 53.4163 187.767 55.8846V62.1758H185.206V56.4413C185.206 55.1608 184.928 54.0288 183.48 54.0288C181.791 54.0288 181.42 55.4021 181.42 56.9795V62.1758H178.859V52.1915H181.42ZM196.15 58.3528V57.6105C193.273 57.9074 192.141 58.2415 192.141 59.3549C192.141 60.0787 192.698 60.6726 193.867 60.6726C195.482 60.6726 196.15 59.8189 196.15 58.3528ZM196.373 60.9324C195.649 61.9716 194.61 62.417 193.106 62.417C191.195 62.417 189.506 61.3035 189.506 59.4849C189.506 57.128 192.141 56.4228 196.076 55.9774V55.8103C196.076 54.27 195.241 53.7318 194.201 53.7318C193.218 53.7318 192.401 54.2329 192.346 55.3464H189.952C190.156 53.3792 191.752 51.9317 194.331 51.9317C196.688 51.9317 198.637 52.9709 198.637 56.33C198.637 56.6269 198.6 57.9816 198.6 58.8724C198.6 60.4499 198.692 61.3407 198.897 62.1758H196.54C196.465 61.8603 196.428 61.4335 196.373 60.9324ZM203.331 48.7211V62.1758H200.77V48.7211H203.331ZM206.629 65.4235H205.553V63.4563H206.518C207.372 63.4563 207.743 63.4749 208.188 62.417L208.3 62.1387L204.477 52.1915H207.279L209.543 59.3921L211.863 52.1915H214.461L210.805 61.8789C209.617 64.9781 209.116 65.4235 206.629 65.4235ZM215.966 52.1915V49.482H218.527V52.1915H220.605V53.9545H218.527V59.1137C218.527 60.1344 218.879 60.3385 219.789 60.3385H220.568V62.1758H218.694C216.393 62.1758 215.966 61.4706 215.966 59.4849V53.9545H214.555V52.1915H215.966ZM222.246 52.1915H224.807V62.1758H222.246V52.1915ZM222.246 48.7211H224.807V51.0966H222.246V48.7211ZM231.464 51.9688C233.561 51.9688 235.64 53.138 235.993 55.6062H233.543C233.339 54.6412 232.448 53.9545 231.464 53.9545C230.128 53.9545 229.07 55.0866 229.07 57.1651C229.07 59.2622 230.072 60.4313 231.483 60.4313C232.374 60.4313 233.283 59.9674 233.636 58.7796H236.085C235.491 61.5077 233.432 62.417 231.353 62.417C228.365 62.417 226.454 60.2272 226.454 57.2022C226.454 54.1587 228.476 51.9688 231.464 51.9688ZM245.74 55.1979H243.346C243.142 54.3628 242.4 53.7689 241.212 53.7689C240.266 53.7689 239.598 54.1215 239.598 54.734C239.598 55.2722 239.987 55.6804 240.934 55.8846L242.27 56.1815C244.256 56.6269 245.945 57.128 245.945 59.1879C245.945 61.1922 243.885 62.417 241.621 62.417C239.171 62.417 237.315 61.1551 237.074 58.8724H239.542C239.691 59.8375 240.359 60.5612 241.695 60.5612C242.808 60.5612 243.495 60.1529 243.495 59.4292C243.495 58.6869 242.734 58.4085 241.862 58.2043L240.377 57.8889C238.503 57.4991 237.259 56.7197 237.259 54.901C237.259 53.1194 239.189 51.9317 241.342 51.9317C243.421 51.9317 245.388 52.8967 245.74 55.1979ZM254.461 59.0951L256.02 52.1915H258.748L260.325 59.0766L261.661 52.1915H264.204L261.847 62.1758H259.212L257.393 54.6041L255.556 62.1758H252.92L250.582 52.1915H253.124L254.461 59.0951ZM265.361 52.1915H267.922V62.1758H265.361V52.1915ZM265.361 48.7211H267.922V51.0966H265.361V48.7211ZM270.571 52.1915V49.482H273.132V52.1915H275.21V53.9545H273.132V59.1137C273.132 60.1344 273.484 60.3385 274.394 60.3385H275.173V62.1758H273.299C270.998 62.1758 270.571 61.4706 270.571 59.4849V53.9545H269.16V52.1915H270.571ZM279.412 48.7211V53.5091C279.988 52.4884 281.064 51.9688 282.307 51.9688C284.701 51.9688 285.759 53.4163 285.759 55.8846V62.1758H283.198V56.4413C283.198 55.1608 282.92 54.0288 281.472 54.0288C279.784 54.0288 279.412 55.4021 279.412 56.9795V62.1758H276.851V48.7211H279.412ZM300.296 62.1758L297.623 56.9053H296.992H294.802V62.1758H292.149V48.7211H296.565C301.001 48.7211 302.69 49.9831 302.69 52.8039C302.69 54.3628 301.947 55.6248 300.259 56.3485L303.246 62.1758H300.296ZM296.862 50.7996H294.802V54.8453H296.992C299.071 54.8453 299.962 54.1587 299.962 52.8225C299.962 51.2636 298.663 50.7996 296.862 50.7996ZM313.713 57.8889H306.346C306.494 59.5962 307.645 60.4313 308.87 60.4313C309.668 60.4313 310.447 60.1529 310.967 59.2807H313.602C313.064 60.7654 311.616 62.417 308.888 62.417C305.678 62.417 303.803 60.023 303.803 57.1465C303.803 54.1772 305.863 51.9688 308.814 51.9688C311.895 51.9688 313.806 54.3628 313.713 57.8889ZM308.796 53.8432C307.831 53.8432 306.587 54.437 306.383 56.1258H311.115C311.06 54.437 309.872 53.8432 308.796 53.8432ZM317.924 48.7211V62.1758H315.363V48.7211H317.924ZM326.456 58.3528V57.6105C323.579 57.9074 322.447 58.2415 322.447 59.3549C322.447 60.0787 323.004 60.6726 324.173 60.6726C325.788 60.6726 326.456 59.8189 326.456 58.3528ZM326.678 60.9324C325.955 61.9716 324.915 62.417 323.412 62.417C321.501 62.417 319.812 61.3035 319.812 59.4849C319.812 57.128 322.447 56.4228 326.381 55.9774V55.8103C326.381 54.27 325.546 53.7318 324.507 53.7318C323.523 53.7318 322.707 54.2329 322.651 55.3464H320.257C320.461 53.3792 322.057 51.9317 324.637 51.9317C326.994 51.9317 328.942 52.9709 328.942 56.33C328.942 56.6269 328.905 57.9816 328.905 58.8724C328.905 60.4499 328.998 61.3407 329.202 62.1758H326.845C326.771 61.8603 326.734 61.4335 326.678 60.9324ZM331.429 52.1915V49.482H333.99V52.1915H336.068V53.9545H333.99V59.1137C333.99 60.1344 334.342 60.3385 335.251 60.3385H336.031V62.1758H334.157C331.855 62.1758 331.429 61.4706 331.429 59.4849V53.9545H330.018V52.1915H331.429ZM337.709 52.1915H340.27V62.1758H337.709V52.1915ZM337.709 48.7211H340.27V51.0966H337.709V48.7211ZM346.909 53.9731C345.498 53.9731 344.496 55.1051 344.496 57.2022C344.496 59.2993 345.498 60.4128 346.909 60.4128C348.319 60.4128 349.321 59.2993 349.321 57.2022C349.321 55.1051 348.319 53.9731 346.909 53.9731ZM346.909 62.417C344.385 62.417 341.898 60.6911 341.898 57.2022C341.898 53.6947 344.385 51.9688 346.909 51.9688C349.432 51.9688 351.919 53.6947 351.919 57.2022C351.919 60.6911 349.432 62.417 346.909 62.417ZM356.11 52.1915V53.5091C356.685 52.4884 357.761 51.9688 359.005 51.9688C361.399 51.9688 362.457 53.4163 362.457 55.8846V62.1758H359.896V56.4413C359.896 55.1608 359.617 54.0288 358.17 54.0288C356.481 54.0288 356.11 55.4021 356.11 56.9795V62.1758H353.549V52.1915H356.11ZM370.839 58.3528V57.6105C367.963 57.9074 366.831 58.2415 366.831 59.3549C366.831 60.0787 367.388 60.6726 368.557 60.6726C370.171 60.6726 370.839 59.8189 370.839 58.3528ZM371.062 60.9324C370.338 61.9716 369.299 62.417 367.796 62.417C365.884 62.417 364.196 61.3035 364.196 59.4849C364.196 57.128 366.831 56.4228 370.765 55.9774V55.8103C370.765 54.27 369.93 53.7318 368.891 53.7318C367.907 53.7318 367.091 54.2329 367.035 55.3464H364.641C364.845 53.3792 366.441 51.9317 369.021 51.9317C371.378 51.9317 373.326 52.9709 373.326 56.33C373.326 56.6269 373.289 57.9816 373.289 58.8724C373.289 60.4499 373.382 61.3407 373.586 62.1758H371.229C371.155 61.8603 371.118 61.4335 371.062 60.9324ZM378.021 48.7211V62.1758H375.46V48.7211H378.021ZM393.281 55.4392C393.281 51.4121 390.887 50.7996 388.437 50.7996H387.213V60.0973H388.437C390.887 60.0973 393.281 59.5034 393.281 55.4392ZM384.559 48.7211H388.549C392.817 48.7211 396.028 50.0944 396.028 55.4392C396.028 60.7839 392.817 62.1758 388.549 62.1758H384.559V48.7211ZM403.787 58.3528V57.6105C400.911 57.9074 399.779 58.2415 399.779 59.3549C399.779 60.0787 400.335 60.6726 401.505 60.6726C403.119 60.6726 403.787 59.8189 403.787 58.3528ZM404.01 60.9324C403.286 61.9716 402.247 62.417 400.744 62.417C398.832 62.417 397.143 61.3035 397.143 59.4849C397.143 57.128 399.779 56.4228 403.713 55.9774V55.8103C403.713 54.27 402.878 53.7318 401.839 53.7318C400.855 53.7318 400.039 54.2329 399.983 55.3464H397.589C397.793 53.3792 399.389 51.9317 401.969 51.9317C404.325 51.9317 406.274 52.9709 406.274 56.33C406.274 56.6269 406.237 57.9816 406.237 58.8724C406.237 60.4499 406.33 61.3407 406.534 62.1758H404.177C404.103 61.8603 404.066 61.4335 404.01 60.9324ZM408.76 52.1915V49.482H411.321V52.1915H413.4V53.9545H411.321V59.1137C411.321 60.1344 411.674 60.3385 412.583 60.3385H413.363V62.1758H411.488C409.187 62.1758 408.76 61.4706 408.76 59.4849V53.9545H407.35V52.1915H408.76ZM421.276 58.3528V57.6105C418.4 57.9074 417.268 58.2415 417.268 59.3549C417.268 60.0787 417.824 60.6726 418.993 60.6726C420.608 60.6726 421.276 59.8189 421.276 58.3528ZM421.499 60.9324C420.775 61.9716 419.736 62.417 418.233 62.417C416.321 62.417 414.632 61.3035 414.632 59.4849C414.632 57.128 417.268 56.4228 421.202 55.9774V55.8103C421.202 54.27 420.367 53.7318 419.328 53.7318C418.344 53.7318 417.527 54.2329 417.472 55.3464H415.078C415.282 53.3792 416.878 51.9317 419.457 51.9317C421.814 51.9317 423.763 52.9709 423.763 56.33C423.763 56.6269 423.726 57.9816 423.726 58.8724C423.726 60.4499 423.819 61.3407 424.023 62.1758H421.666C421.592 61.8603 421.554 61.4335 421.499 60.9324ZM430.703 60.4499C432.039 60.4499 432.986 59.1508 432.986 57.2022C432.986 55.2536 432.039 53.936 430.703 53.936C429.293 53.936 428.365 55.1794 428.365 57.1836C428.365 59.2436 429.293 60.4499 430.703 60.4499ZM428.457 62.1758H425.896V48.7211H428.457V53.472C428.996 52.5255 430.072 51.9688 431.334 51.9688C433.746 51.9688 435.677 54.0473 435.677 57.1836C435.677 60.3756 433.709 62.417 431.334 62.417C430.295 62.417 429.107 62.0273 428.457 60.9138V62.1758ZM443.477 58.3528V57.6105C440.601 57.9074 439.468 58.2415 439.468 59.3549C439.468 60.0787 440.025 60.6726 441.194 60.6726C442.809 60.6726 443.477 59.8189 443.477 58.3528ZM443.7 60.9324C442.976 61.9716 441.937 62.417 440.433 62.417C438.522 62.417 436.833 61.3035 436.833 59.4849C436.833 57.128 439.468 56.4228 443.403 55.9774V55.8103C443.403 54.27 442.568 53.7318 441.528 53.7318C440.545 53.7318 439.728 54.2329 439.673 55.3464H437.279C437.483 53.3792 439.079 51.9317 441.658 51.9317C444.015 51.9317 445.964 52.9709 445.964 56.33C445.964 56.6269 445.927 57.9816 445.927 58.8724C445.927 60.4499 446.019 61.3407 446.224 62.1758H443.867C443.793 61.8603 443.755 61.4335 443.7 60.9324ZM456.114 55.1979H453.72C453.516 54.3628 452.774 53.7689 451.586 53.7689C450.64 53.7689 449.972 54.1215 449.972 54.734C449.972 55.2722 450.361 55.6804 451.308 55.8846L452.644 56.1815C454.63 56.6269 456.319 57.128 456.319 59.1879C456.319 61.1922 454.259 62.417 451.995 62.417C449.545 62.417 447.689 61.1551 447.448 58.8724H449.916C450.064 59.8375 450.733 60.5612 452.069 60.5612C453.182 60.5612 453.869 60.1529 453.869 59.4292C453.869 58.6869 453.108 58.4085 452.236 58.2043L450.751 57.8889C448.877 57.4991 447.633 56.7197 447.633 54.901C447.633 53.1194 449.563 51.9317 451.716 51.9317C453.795 51.9317 455.762 52.8967 456.114 55.1979ZM467.271 57.8889H459.904C460.052 59.5962 461.203 60.4313 462.428 60.4313C463.226 60.4313 464.005 60.1529 464.525 59.2807H467.16C466.622 60.7654 465.174 62.417 462.446 62.417C459.236 62.417 457.361 60.023 457.361 57.1465C457.361 54.1772 459.421 51.9688 462.372 51.9688C465.452 51.9688 467.364 54.3628 467.271 57.8889ZM462.353 53.8432C461.388 53.8432 460.145 54.437 459.941 56.1258H464.673C464.617 54.437 463.43 53.8432 462.353 53.8432ZM477.029 55.1979H474.635C474.43 54.3628 473.688 53.7689 472.5 53.7689C471.554 53.7689 470.886 54.1215 470.886 54.734C470.886 55.2722 471.276 55.6804 472.222 55.8846L473.558 56.1815C475.544 56.6269 477.233 57.128 477.233 59.1879C477.233 61.1922 475.173 62.417 472.909 62.417C470.459 62.417 468.603 61.1551 468.362 58.8724H470.83C470.979 59.8375 471.647 60.5612 472.983 60.5612C474.096 60.5612 474.783 60.1529 474.783 59.4292C474.783 58.6869 474.022 58.4085 473.15 58.2043L471.665 57.8889C469.791 57.4991 468.547 56.7197 468.547 54.901C468.547 53.1194 470.478 51.9317 472.63 51.9317C474.709 51.9317 476.676 52.8967 477.029 55.1979Z" fill="#E4DFFF"/>
<defs>
<filter id="filter0_f_10930_6210" x="127.255" y="184.252" width="373.748" height="286.055" filterUnits="userSpaceOnUse" color-interpolation-filters="sRGB">
<feFlood flood-opacity="0" result="BackgroundImageFix"/>
<feBlend mode="normal" in="SourceGraphic" in2="BackgroundImageFix" result="shape"/>
<feGaussianBlur stdDeviation="10.6047" result="effect1_foregroundBlur_10930_6210"/>
</filter>
<linearGradient id="paint0_linear_10930_6210" x1="307.753" y1="-32.2631" x2="302.079" y2="763.324" gradientUnits="userSpaceOnUse">
<stop stop-color="#9683FF"/>
<stop offset="0.938633" stop-color="#D4CDFF"/>
</linearGradient>
<linearGradient id="paint1_linear_10930_6210" x1="306.771" y1="-32.1602" x2="301.115" y2="760.889" gradientUnits="userSpaceOnUse">
<stop stop-color="#9683FF"/>
<stop offset="0.938633" stop-color="#D4CDFF"/>
</linearGradient>
<clipPath id="clip0_10930_6210">
<rect width="625" height="625" fill="white"/>
</clipPath>
</defs>
</svg>
