<svg width="627" height="627" viewBox="0 0 627 627" fill="none" xmlns="http://www.w3.org/2000/svg">
<rect width="627" height="627" fill="url(#paint0_linear_10930_6487)"/>
<g clip-path="url(#clip0_10930_6487)">
<rect width="625" height="625" fill="url(#paint1_linear_10930_6487)"/>
<path d="M360.404 569.236C360.987 568.654 360.987 567.709 360.404 567.127L350.912 557.635C350.33 557.052 349.385 557.052 348.803 557.635C348.22 558.217 348.22 559.162 348.803 559.744L357.24 568.182L348.803 576.619C348.22 577.201 348.22 578.146 348.803 578.728C349.385 579.311 350.33 579.311 350.912 578.728L360.404 569.236ZM359.35 568.182L359.35 566.69L-115.631 566.69L-115.631 568.182L-115.631 569.673L359.35 569.673L359.35 568.182Z" fill="#9787F2"/>
<path d="M444.137 256.124C443.554 255.542 442.61 255.542 442.027 256.124L432.535 265.616C431.953 266.199 431.953 267.143 432.535 267.725C433.118 268.308 434.062 268.308 434.645 267.725L443.082 259.288L451.519 267.725C452.102 268.308 453.046 268.308 453.629 267.725C454.211 267.143 454.211 266.199 453.629 265.616L444.137 256.124ZM153.801 435.608L155.292 435.608L153.801 435.608ZM153.801 363.339L152.309 363.339L152.309 435.608L153.801 435.608L155.292 435.608L155.292 363.339L153.801 363.339ZM218.594 500.4L218.594 501.892L378.289 501.892L378.289 500.4L378.289 498.909L218.594 498.909L218.594 500.4ZM443.082 435.608L444.573 435.608L444.573 257.179L443.082 257.179L441.59 257.179L441.59 435.608L443.082 435.608ZM89.008 298.546L89.008 297.055L-47.8477 297.055L-47.8477 298.546L-47.8477 300.038L89.008 300.038L89.008 298.546ZM378.289 500.4L378.289 501.892C414.897 501.892 444.573 472.215 444.573 435.608L443.082 435.608L441.59 435.608C441.59 470.568 413.249 498.909 378.289 498.909L378.289 500.4ZM153.801 435.608L152.309 435.608C152.31 472.215 181.986 501.892 218.594 501.892L218.594 500.4L218.594 498.909C183.633 498.909 155.293 470.568 155.292 435.608L153.801 435.608ZM153.801 363.339L155.292 363.339C155.292 326.731 125.616 297.055 89.008 297.055L89.008 298.546L89.008 300.038C123.968 300.038 152.309 328.379 152.309 363.339L153.801 363.339Z" fill="#9787F2"/>
<path d="M613.756 -184.901C613.174 -185.484 612.229 -185.484 611.647 -184.901L602.155 -175.409C601.572 -174.827 601.572 -173.882 602.155 -173.3C602.737 -172.717 603.682 -172.717 604.264 -173.3L612.702 -181.737L621.139 -173.3C621.721 -172.717 622.666 -172.717 623.248 -173.3C623.831 -173.882 623.831 -174.827 623.248 -175.409L613.756 -184.901ZM200.162 -155.502L198.671 -155.502L200.162 -155.502ZM135.37 -220.295L135.37 -218.804L135.37 -220.295ZM200.162 -155.502L198.671 -155.502L198.671 -4.98441L200.162 -4.98441L201.654 -4.98442L201.654 -155.502L200.162 -155.502ZM264.955 59.8082L264.955 61.2997L547.909 61.3L547.909 59.8085L547.909 58.317L264.955 58.3167L264.955 59.8082ZM612.702 -4.98419L614.193 -4.98419L614.193 -183.846L612.702 -183.846L611.21 -183.846L611.21 -4.98419L612.702 -4.98419ZM135.37 -220.295L135.37 -221.787L-28.2476 -221.787L-28.2476 -220.295L-28.2476 -218.804L135.37 -218.804L135.37 -220.295ZM547.909 59.8085L547.909 61.3C584.517 61.3001 614.193 31.6236 614.193 -4.98419L612.702 -4.98419L611.21 -4.98419C611.21 29.9761 582.869 58.317 547.909 58.317L547.909 59.8085ZM200.162 -4.98441L198.671 -4.98441C198.671 31.6233 228.347 61.2997 264.955 61.2997L264.955 59.8082L264.955 58.3167C229.995 58.3166 201.654 29.9758 201.654 -4.98442L200.162 -4.98441ZM200.162 -155.502L201.654 -155.502C201.654 -192.11 171.977 -221.787 135.37 -221.787L135.37 -220.295L135.37 -218.804C170.33 -218.804 198.671 -190.463 198.671 -155.502L200.162 -155.502Z" fill="#9787F2"/>
<path d="M383.772 1103.47L383.772 888.655C383.772 852.871 412.78 823.862 448.564 823.862L459.867 823.862C495.651 823.862 524.659 794.854 524.659 759.07L524.659 529.802C524.659 494.018 553.668 465.01 589.452 465.01L850.28 465.01C886.064 465.01 915.073 436.001 915.073 400.217L915.072 -60.8087C915.072 -96.5928 944.081 -125.601 979.865 -125.601L1090.51 -125.601" stroke="#9787F2" stroke-width="2.98306"/>
<rect x="32.8568" y="581.178" width="26.9898" height="55.8973" rx="13.4949" transform="rotate(-90 32.8568 581.178)" fill="#9787F2" stroke="#9787F2" stroke-width="1.91768"/>
<path d="M74.3852 181.885C71.7158 181.288 69.6438 180.037 68.1692 178.133C66.7132 176.229 65.9852 173.84 65.9852 170.965V165.925C65.9852 163.051 66.7132 160.661 68.1692 158.757C69.6438 156.853 71.7158 155.603 74.3852 155.005V157.441C73.1905 157.721 72.1452 158.253 71.2492 159.037C70.3718 159.821 69.6905 160.801 69.2052 161.977C68.7385 163.135 68.5052 164.451 68.5052 165.925V170.965C68.5052 172.421 68.7385 173.737 69.2052 174.913C69.6905 176.089 70.3718 177.069 71.2492 177.853C72.1452 178.637 73.1905 179.169 74.3852 179.449V181.885ZM80.8142 181.885V179.449C82.0276 179.169 83.0729 178.637 83.9502 177.853C84.8276 177.069 85.4996 176.089 85.9662 174.913C86.4516 173.737 86.6942 172.421 86.6942 170.965V165.925C86.6942 164.451 86.4516 163.135 85.9662 161.977C85.4996 160.801 84.8276 159.821 83.9502 159.037C83.0729 158.253 82.0276 157.721 80.8142 157.441V155.005C83.4836 155.603 85.5462 156.853 87.0022 158.757C88.4769 160.661 89.2142 163.051 89.2142 165.925V170.965C89.2142 173.84 88.4769 176.229 87.0022 178.133C85.5462 180.037 83.4836 181.288 80.8142 181.885ZM102.503 167.045C101.887 167.045 101.383 166.849 100.991 166.457C100.599 166.065 100.403 165.561 100.403 164.945C100.403 164.348 100.599 163.853 100.991 163.461C101.402 163.051 101.906 162.845 102.503 162.845H103.063C103.661 162.845 104.155 163.051 104.547 163.461C104.958 163.853 105.163 164.348 105.163 164.945C105.163 165.561 104.967 166.065 104.575 166.457C104.183 166.849 103.679 167.045 103.063 167.045H102.503ZM100.123 183.005L101.663 174.437H104.687L102.727 183.005H100.123Z" fill="#9787F2"/>
<path d="M210.248 337.105C208.605 337.105 207.299 336.695 206.328 335.873C205.357 335.071 204.937 333.932 205.068 332.457L205.488 327.865C205.581 326.876 205.441 326.167 205.068 325.737C204.695 325.289 203.901 325.065 202.688 325.065H199.468V322.825H202.688C203.901 322.825 204.695 322.611 205.068 322.181C205.441 321.733 205.581 321.015 205.488 320.025L205.068 315.433C204.937 313.959 205.357 312.82 206.328 312.017C207.299 311.196 208.605 310.785 210.248 310.785H211.508V313.025H210.248C209.371 313.025 208.689 313.231 208.204 313.641C207.719 314.033 207.513 314.631 207.588 315.433L208.008 320.025C208.101 321.127 207.84 322.013 207.224 322.685C206.608 323.339 205.6 323.731 204.2 323.861C205.6 323.992 206.608 324.421 207.224 325.149C207.84 325.877 208.101 326.783 208.008 327.865L207.588 332.457C207.513 333.26 207.719 333.857 208.204 334.249C208.689 334.66 209.371 334.865 210.248 334.865H211.508V337.105H210.248ZM216.817 337.105V334.865H218.077C218.955 334.865 219.645 334.66 220.149 334.249C220.672 333.857 220.868 333.26 220.737 332.457L220.037 327.865C219.869 326.801 220.056 325.905 220.597 325.177C221.139 324.431 221.885 323.973 222.837 323.805C221.885 323.656 221.139 323.255 220.597 322.601C220.056 321.948 219.869 321.089 220.037 320.025L220.737 315.433C220.868 314.631 220.672 314.033 220.149 313.641C219.645 313.231 218.955 313.025 218.077 313.025H216.817V310.785H218.077C219.179 310.785 220.14 310.972 220.961 311.345C221.801 311.7 222.427 312.223 222.837 312.913C223.267 313.604 223.407 314.444 223.257 315.433L222.557 320.025C222.408 321.015 222.529 321.733 222.921 322.181C223.332 322.611 224.144 322.825 225.357 322.825H228.857V325.065H225.357C224.163 325.065 223.36 325.289 222.949 325.737C222.539 326.167 222.408 326.876 222.557 327.865L223.257 332.457C223.407 333.428 223.267 334.259 222.837 334.949C222.427 335.659 221.801 336.191 220.961 336.545C220.14 336.919 219.179 337.105 218.077 337.105H216.817Z" fill="#9787F2"/>
</g>
<g filter="url(#filter0_f_10930_6487)">
<mask id="path-8-outside-1_10930_6487" maskUnits="userSpaceOnUse" x="190.431" y="189.094" width="232" height="284" fill="black">
<rect fill="white" x="190.431" y="189.094" width="232" height="284"/>
<path d="M403.29 200.094C407.721 200.094 411.304 203.677 411.305 208.108V441.336C411.304 445.767 407.721 449.35 403.29 449.351H397.668L397.683 453.807V453.813C397.683 458.237 394.108 461.847 389.668 461.847H209.445C205.014 461.846 201.431 458.263 201.431 453.832V220.604C201.431 216.174 205.014 212.59 209.445 212.59H215.067L215.053 208.134V208.127C215.053 203.704 218.628 200.094 223.067 200.094H403.29Z"/>
</mask>
<path d="M403.29 200.094C407.721 200.094 411.304 203.677 411.305 208.108V441.336C411.304 445.767 407.721 449.35 403.29 449.351H397.668L397.683 453.807V453.813C397.683 458.237 394.108 461.847 389.668 461.847H209.445C205.014 461.846 201.431 458.263 201.431 453.832V220.604C201.431 216.174 205.014 212.59 209.445 212.59H215.067L215.053 208.134V208.127C215.053 203.704 218.628 200.094 223.067 200.094H403.29Z" fill="#AEA0FF"/>
<path d="M403.29 200.094L403.291 189.421H403.29V200.094ZM411.305 208.108L421.977 208.108L421.977 208.107L411.305 208.108ZM411.305 441.336L421.977 441.337V441.336H411.305ZM403.29 449.351L403.29 460.023L403.291 460.023L403.29 449.351ZM397.668 449.351V438.678H386.96L386.996 449.386L397.668 449.351ZM397.683 453.807H408.355V453.789L408.355 453.772L397.683 453.807ZM397.683 453.813L408.355 453.813V453.813H397.683ZM389.668 461.847L389.668 472.519L389.668 472.519L389.668 461.847ZM209.445 461.847L209.444 472.519H209.445V461.847ZM201.431 453.832L190.758 453.832L190.758 453.833L201.431 453.832ZM201.431 220.604L190.758 220.603V220.604H201.431ZM209.445 212.59L209.445 201.918L209.444 201.918L209.445 212.59ZM215.067 212.59V223.262H225.775L225.74 212.555L215.067 212.59ZM215.053 208.134H204.38V208.151L204.38 208.169L215.053 208.134ZM215.053 208.127L204.38 208.127V208.127H215.053ZM223.067 200.094L223.067 189.421L223.067 189.421L223.067 200.094ZM403.29 200.094L403.289 210.766C401.826 210.766 400.632 209.571 400.632 208.109L411.305 208.108L421.977 208.107C421.976 197.783 413.616 189.422 403.291 189.421L403.29 200.094ZM411.305 208.108H400.632V441.336H411.305H421.977V208.108H411.305ZM411.305 441.336L400.632 441.335C400.632 439.873 401.826 438.678 403.289 438.678L403.29 449.351L403.291 460.023C413.616 460.022 421.976 451.661 421.977 441.337L411.305 441.336ZM403.29 449.351V438.678H397.668V449.351V460.023H403.29V449.351ZM397.668 449.351L386.996 449.386L387.01 453.842L397.683 453.807L408.355 453.772L408.34 449.316L397.668 449.351ZM397.683 453.807H387.01V453.813H397.683H408.355V453.807H397.683ZM397.683 453.813L387.01 453.813C387.01 452.389 388.167 451.174 389.668 451.174L389.668 461.847L389.668 472.519C400.049 472.519 408.355 464.084 408.355 453.813L397.683 453.813ZM389.668 461.847V451.174H209.445V461.847V472.519H389.668V461.847ZM209.445 461.847L209.446 451.174C210.908 451.174 212.103 452.368 212.103 453.831L201.431 453.832L190.758 453.833C190.759 464.158 199.12 472.518 209.444 472.519L209.445 461.847ZM201.431 453.832H212.103V220.604H201.431H190.758V453.832H201.431ZM201.431 220.604L212.103 220.606C212.103 222.068 210.909 223.262 209.446 223.262L209.445 212.59L209.444 201.918C199.12 201.919 190.76 210.279 190.758 220.603L201.431 220.604ZM209.445 212.59V223.262H215.067V212.59V201.918H209.445V212.59ZM215.067 212.59L225.74 212.555L225.725 208.099L215.053 208.134L204.38 208.169L204.395 212.625L215.067 212.59ZM215.053 208.134H225.725V208.127H215.053H204.38V208.134H215.053ZM215.053 208.127L225.725 208.127C225.725 209.552 224.568 210.766 223.068 210.766L223.067 200.094L223.067 189.421C212.687 189.422 204.381 197.856 204.38 208.127L215.053 208.127ZM223.067 200.094V210.766H403.29V200.094V189.421H223.067V200.094Z" fill="#AEA0FF" mask="url(#path-8-outside-1_10930_6487)"/>
</g>
<path d="M223.068 202.236H403.289C406.539 202.236 409.163 204.861 409.163 208.11V441.336C409.163 444.585 406.539 447.209 403.289 447.209H256.363L255.738 446.584L217.837 408.737V408.094L217.194 208.128C217.194 204.879 219.819 202.236 223.068 202.236Z" fill="#7C6BE4" stroke="#7C6BE4" stroke-width="4.28228" stroke-miterlimit="10"/>
<path d="M389.667 459.705H209.446C206.197 459.705 203.572 457.081 203.572 453.832V220.606C203.572 217.357 206.197 214.732 209.446 214.732H356.372L356.997 215.357L394.898 253.205V253.847L395.541 453.814C395.541 457.063 392.917 459.705 389.667 459.705Z" fill="#E4DFFF" stroke="#7C6BE4" stroke-width="4.28228" stroke-miterlimit="10"/>
<path d="M231.695 246.604H368.263" stroke="#7C6BE4" stroke-width="4.28228" stroke-miterlimit="10"/>
<path d="M231.695 276.021H368.263" stroke="#7C6BE4" stroke-width="4.28228" stroke-miterlimit="10"/>
<path d="M231.695 306.271H368.263" stroke="#7C6BE4" stroke-width="4.28228" stroke-miterlimit="10"/>
<path d="M231.695 335.018H368.263" stroke="#7C6BE4" stroke-width="4.28228" stroke-miterlimit="10"/>
<path d="M394.9 253.206V253.849H361.694C359.106 253.849 356.999 251.742 356.999 249.154V215.877C356.999 215.68 357.231 215.591 357.374 215.716L394.9 253.188V253.206Z" fill="#E4DFFF" stroke="#7C6BE4" stroke-width="4.28228" stroke-miterlimit="10"/>
<defs>
<filter id="filter0_f_10930_6487" x="169.414" y="168.077" width="273.907" height="325.787" filterUnits="userSpaceOnUse" color-interpolation-filters="sRGB">
<feFlood flood-opacity="0" result="BackgroundImageFix"/>
<feBlend mode="normal" in="SourceGraphic" in2="BackgroundImageFix" result="shape"/>
<feGaussianBlur stdDeviation="10.6723" result="effect1_foregroundBlur_10930_6487"/>
</filter>
<linearGradient id="paint0_linear_10930_6487" x1="307.753" y1="-32.2631" x2="302.079" y2="763.324" gradientUnits="userSpaceOnUse">
<stop stop-color="#9683FF"/>
<stop offset="0.938633" stop-color="#D4CDFF"/>
</linearGradient>
<linearGradient id="paint1_linear_10930_6487" x1="306.771" y1="-32.1602" x2="301.116" y2="760.889" gradientUnits="userSpaceOnUse">
<stop stop-color="#9683FF"/>
<stop offset="0.938633" stop-color="#D4CDFF"/>
</linearGradient>
<clipPath id="clip0_10930_6487">
<rect width="625" height="625" fill="white"/>
</clipPath>
</defs>
</svg>
