<svg width="627" height="627" viewBox="0 0 627 627" fill="none" xmlns="http://www.w3.org/2000/svg">
<g clip-path="url(#clip0_10931_37850)">
<rect width="627" height="627" fill="url(#paint0_linear_10931_37850)"/>
<g clip-path="url(#clip1_10931_37850)">
<rect width="627" height="627" fill="url(#paint1_linear_10931_37850)"/>
<path d="M98.3119 382.749C97.7276 382.164 96.7802 382.164 96.1958 382.749L86.6734 392.271C86.0891 392.855 86.0891 393.803 86.6734 394.387C87.2578 394.971 88.2052 394.971 88.7895 394.387L97.2539 385.923L105.718 394.387C106.303 394.971 107.25 394.971 107.834 394.387C108.419 393.803 108.419 392.855 107.834 392.271L98.3119 382.749ZM97.2539 383.807L95.7576 383.807L95.7576 660.005L97.2539 660.005L98.7502 660.005L98.7502 383.807L97.2539 383.807ZM162.254 725.005L162.254 726.501L353.5 726.501L353.5 725.005L353.5 723.508L162.254 723.509L162.254 725.005ZM418.5 660.005L419.996 660.005L419.996 172.903L418.5 172.903L417.004 172.903L417.004 660.005L418.5 660.005ZM483.5 107.903L483.5 109.4L713.254 109.4L713.254 107.903L713.254 106.407L483.5 106.407L483.5 107.903ZM778.254 42.9033L779.75 42.9033L779.75 -136.995L778.254 -136.995L776.758 -136.995L776.758 42.9033L778.254 42.9033ZM713.254 107.903L713.254 109.4C749.979 109.4 779.75 79.6282 779.75 42.9033L778.254 42.9033L776.758 42.9033C776.758 77.9754 748.326 106.407 713.254 106.407L713.254 107.903ZM418.5 172.903L419.996 172.903C419.996 137.831 448.428 109.4 483.5 109.4L483.5 107.903L483.5 106.407C446.775 106.407 417.004 136.178 417.004 172.903L418.5 172.903ZM353.5 725.005L353.5 726.501C390.225 726.501 419.996 696.73 419.996 660.005L418.5 660.005L417.004 660.005C417.004 695.077 388.572 723.508 353.5 723.508L353.5 725.005ZM97.2539 660.005L95.7576 660.005C95.7576 696.73 125.529 726.501 162.254 726.501L162.254 725.005L162.254 723.509C127.182 723.509 98.7502 695.077 98.7502 660.005L97.2539 660.005Z" fill="#F0DF09"/>
<path d="M-76.6314 175.279L266.744 175.279C302.642 175.279 331.744 146.178 331.744 110.279L331.744 -428C331.744 -463.898 360.845 -493 396.744 -493L529.744 -493" stroke="#F0DF09" stroke-width="2.9926"/>
<path d="M1101.26 1015.26L885.756 1015.26C849.858 1015.26 820.756 986.154 820.756 950.256L820.756 938.917C820.756 903.019 791.654 873.917 755.756 873.917L615.5 873.917C579.601 873.917 550.5 844.816 550.5 808.917L550.5 547.254C550.5 511.356 521.398 482.254 485.5 482.254L-66.7459 482.255C-102.644 482.255 -131.746 453.153 -131.746 417.255L-131.746 306.255" stroke="#F0DF09" stroke-width="2.9926"/>
<rect x="206.962" y="492.038" width="19.0762" height="40.0762" rx="9.53809" transform="rotate(-90 206.962 492.038)" fill="#D4C50B" stroke="#F0DF09" stroke-width="1.92382"/>
<path d="M302.068 545.368L300.052 543.968L301.564 541.784C301.807 541.429 302.096 541.084 302.432 540.748C302.768 540.393 303.104 540.067 303.44 539.768C303.795 539.451 304.103 539.18 304.364 538.956L304.28 538.76C303.925 538.723 303.524 538.685 303.076 538.648C302.628 538.592 302.171 538.517 301.704 538.424C301.256 538.312 300.836 538.191 300.444 538.06L297.98 537.164L298.82 534.84L301.284 535.736C301.676 535.867 302.077 536.053 302.488 536.296C302.917 536.52 303.328 536.763 303.72 537.024C304.112 537.267 304.448 537.5 304.728 537.724L304.868 537.612C304.775 537.257 304.672 536.856 304.56 536.408C304.448 535.941 304.355 535.465 304.28 534.98C304.205 534.476 304.168 534.009 304.168 533.58V530.92H306.632V533.58C306.632 534.009 306.595 534.476 306.52 534.98C306.445 535.465 306.352 535.941 306.24 536.408C306.128 536.856 306.016 537.257 305.904 537.612L306.044 537.724C306.343 537.5 306.679 537.267 307.052 537.024C307.444 536.763 307.845 536.52 308.256 536.296C308.685 536.053 309.096 535.867 309.488 535.736L311.98 534.84L312.82 537.164L310.328 538.06C309.955 538.191 309.535 538.312 309.068 538.424C308.62 538.517 308.172 538.592 307.724 538.648C307.276 538.685 306.875 538.723 306.52 538.76L306.408 538.984C306.688 539.208 306.996 539.479 307.332 539.796C307.687 540.095 308.023 540.421 308.34 540.776C308.676 541.112 308.956 541.448 309.18 541.784L310.72 543.968L308.704 545.368L307.164 543.184C306.94 542.848 306.716 542.465 306.492 542.036C306.287 541.607 306.091 541.177 305.904 540.748C305.736 540.319 305.596 539.936 305.484 539.6H305.288C305.176 539.936 305.027 540.319 304.84 540.748C304.672 541.177 304.476 541.607 304.252 542.036C304.047 542.465 303.823 542.848 303.58 543.184L302.068 545.368Z" fill="#F3E223"/>
<path d="M122.76 347.48L125 338.772H128.64L125 347.48H122.76ZM126.12 331.52C125.504 331.52 125 331.324 124.608 330.932C124.216 330.54 124.02 330.036 124.02 329.42C124.02 328.823 124.216 328.328 124.608 327.936C125.019 327.525 125.523 327.32 126.12 327.32H126.68C127.277 327.32 127.772 327.525 128.164 327.936C128.575 328.328 128.78 328.823 128.78 329.42C128.78 330.036 128.584 330.54 128.192 330.932C127.8 331.324 127.296 331.52 126.68 331.52H126.12Z" fill="#F3E223"/>
<path d="M526.16 275.08C525.059 275.08 524.107 274.893 523.304 274.52C522.52 274.165 521.923 273.633 521.512 272.924C521.101 272.233 520.924 271.403 520.98 270.432L521.26 265.84C521.316 264.851 521.167 264.141 520.812 263.712C520.457 263.264 519.673 263.04 518.46 263.04H515.38V260.8H518.46C519.673 260.8 520.457 260.585 520.812 260.156C521.167 259.708 521.316 258.989 521.26 258L520.98 253.408C520.924 252.419 521.101 251.579 521.512 250.888C521.923 250.197 522.52 249.675 523.304 249.32C524.107 248.947 525.059 248.76 526.16 248.76H527.42V251H526.16C525.283 251 524.611 251.205 524.144 251.616C523.677 252.008 523.463 252.605 523.5 253.408L523.78 258C523.855 259.213 523.565 260.184 522.912 260.912C522.259 261.621 521.335 261.976 520.14 261.976V261.836C521.316 261.836 522.231 262.2 522.884 262.928C523.556 263.656 523.855 264.627 523.78 265.84L523.5 270.432C523.463 271.235 523.677 271.832 524.144 272.224C524.611 272.635 525.283 272.84 526.16 272.84H527.42V275.08H526.16ZM532.169 275.08V272.84H533.429C534.306 272.84 534.978 272.635 535.445 272.224C535.912 271.832 536.126 271.235 536.089 270.432L535.809 265.84C535.734 264.627 536.024 263.656 536.677 262.928C537.349 262.2 538.273 261.836 539.449 261.836V261.976C538.254 261.976 537.33 261.621 536.677 260.912C536.024 260.184 535.734 259.213 535.809 258L536.089 253.408C536.126 252.605 535.912 252.008 535.445 251.616C534.978 251.205 534.306 251 533.429 251H532.169V248.76H533.429C534.53 248.76 535.473 248.947 536.257 249.32C537.06 249.675 537.666 250.197 538.077 250.888C538.488 251.579 538.665 252.419 538.609 253.408L538.329 258C538.273 258.989 538.422 259.708 538.777 260.156C539.132 260.585 539.916 260.8 541.129 260.8H544.209V263.04H541.129C539.934 263.04 539.15 263.264 538.777 263.712C538.422 264.141 538.273 264.851 538.329 265.84L538.609 270.432C538.665 271.403 538.488 272.233 538.077 272.924C537.666 273.633 537.06 274.165 536.257 274.52C535.473 274.893 534.53 275.08 533.429 275.08H532.169Z" fill="#F3E223"/>
</g>
</g>
<defs>
<linearGradient id="paint0_linear_10931_37850" x1="306.707" y1="-103.485" x2="306.707" y2="763.357" gradientUnits="userSpaceOnUse">
<stop stop-color="#FDEF00"/>
<stop offset="0.938633" stop-color="#FFFAA3"/>
</linearGradient>
<linearGradient id="paint1_linear_10931_37850" x1="307.753" y1="-32.2631" x2="302.079" y2="763.324" gradientUnits="userSpaceOnUse">
<stop stop-color="#FDEF00"/>
<stop offset="0.938633" stop-color="#FFFAA3"/>
</linearGradient>
<clipPath id="clip0_10931_37850">
<rect width="627" height="627" fill="white"/>
</clipPath>
<clipPath id="clip1_10931_37850">
<rect width="627" height="627" fill="white"/>
</clipPath>
</defs>
</svg>
