<svg width="627" height="627" viewBox="0 0 627 627" fill="none" xmlns="http://www.w3.org/2000/svg">
<g clip-path="url(#clip0_10931_38075)">
<rect width="627" height="627" fill="#FFF100"/>
<g clip-path="url(#clip1_10931_38075)">
<rect width="627" height="627" fill="url(#paint0_linear_10931_38075)"/>
<path d="M361.558 571.058C362.142 570.474 362.142 569.526 361.558 568.942L352.036 559.42C351.451 558.835 350.504 558.835 349.92 559.42C349.335 560.004 349.335 560.951 349.92 561.536L358.384 570L349.92 578.464C349.335 579.049 349.335 579.996 349.92 580.58C350.504 581.165 351.451 581.165 352.036 580.58L361.558 571.058ZM360.5 570L360.5 568.504L-116 568.504L-116 570L-116 571.496L360.5 571.496L360.5 570Z" fill="#2EAFFF"/>
<path d="M445.558 256.941C444.973 256.357 444.026 256.357 443.441 256.941L433.919 266.463C433.335 267.048 433.335 267.995 433.919 268.579C434.503 269.164 435.451 269.164 436.035 268.579L444.5 260.115L452.964 268.579C453.548 269.164 454.496 269.164 455.08 268.579C455.664 267.995 455.664 267.048 455.08 266.463L445.558 256.941ZM154.293 436.999L152.797 436.999L154.293 436.999ZM154.293 364.499L152.796 364.499L152.797 436.999L154.293 436.999L155.789 436.999L155.789 364.499L154.293 364.499ZM219.293 501.999L219.293 503.495L379.499 503.495L379.499 501.999L379.499 500.503L219.293 500.502L219.293 501.999ZM444.5 436.999L445.996 436.999L445.996 257.999L444.5 257.999L443.003 257.999L443.003 436.999L444.5 436.999ZM89.2926 299.499L89.2926 298.003L-48.001 298.003L-48.001 299.499L-48.001 300.995L89.2926 300.995L89.2926 299.499ZM379.499 501.999L379.499 503.495C416.224 503.495 445.996 473.724 445.996 436.999L444.5 436.999L443.003 436.999C443.003 472.071 414.572 500.503 379.499 500.503L379.499 501.999ZM154.293 436.999L152.797 436.999C152.797 473.724 182.568 503.495 219.293 503.495L219.293 501.999L219.293 500.502C184.221 500.502 155.789 472.071 155.789 436.999L154.293 436.999ZM154.293 364.499L155.789 364.499C155.789 327.774 126.017 298.003 89.2926 298.003L89.2926 299.499L89.2926 300.995C124.365 300.995 152.796 329.427 152.796 364.499L154.293 364.499Z" fill="#2EAFFF"/>
<path d="M575.721 -105.494C575.136 -106.078 574.189 -106.078 573.605 -105.494L564.082 -95.9713C563.498 -95.387 563.498 -94.4395 564.082 -93.8552C564.666 -93.2709 565.614 -93.2709 566.198 -93.8552L574.663 -102.32L583.127 -93.8552C583.711 -93.2709 584.659 -93.2709 585.243 -93.8552C585.827 -94.4395 585.827 -95.387 585.243 -95.9713L575.721 -105.494ZM160.803 74.9987L159.307 74.9987L160.803 74.9987ZM160.803 -76.001L159.307 -76.001L159.307 74.9987L160.803 74.9987L162.3 74.9987L162.3 -76.001L160.803 -76.001ZM225.803 139.999L225.803 141.495L509.663 141.495L509.663 139.999L509.663 138.503L225.803 138.502L225.803 139.999ZM574.663 74.9989L576.159 74.9989L576.159 -104.436L574.663 -104.436L573.166 -104.436L573.166 74.9989L574.663 74.9989ZM95.8033 -141.001L95.8033 -142.497L-68.3374 -142.497L-68.3374 -141.001L-68.3374 -139.505L95.8033 -139.505L95.8033 -141.001ZM509.663 139.999L509.663 141.495C546.388 141.495 576.159 111.724 576.159 74.9989L574.663 74.9989L573.166 74.9989C573.166 110.071 544.735 138.503 509.663 138.503L509.663 139.999ZM160.803 74.9987L159.307 74.9987C159.307 111.724 189.078 141.495 225.803 141.495L225.803 139.999L225.803 138.502C190.731 138.502 162.3 110.071 162.3 74.9987L160.803 74.9987ZM160.803 -76.001L162.3 -76.001C162.3 -112.726 132.528 -142.497 95.8033 -142.497L95.8033 -141.001L95.8033 -139.505C130.875 -139.505 159.307 -111.073 159.307 -76.001L160.803 -76.001Z" fill="#2EAFFF"/>
<path d="M384.999 1107L384.999 891.499C384.999 855.601 414.101 826.499 449.999 826.499L461.338 826.499C497.236 826.499 526.338 797.398 526.338 761.499L526.338 531.498C526.338 495.6 555.439 466.498 591.338 466.498L853 466.498C888.899 466.498 918 437.397 918 401.498L918 -61.0027C918 -96.9013 947.102 -126.003 983 -126.003L1094 -126.002" stroke="#2EAFFF" stroke-width="2.9926"/>
<rect x="32" y="583.999" width="29" height="58" rx="14.5" transform="rotate(-90 32 583.999)" fill="#99D8FF" stroke="#2EAFFF" stroke-width="2.9926" stroke-linejoin="round"/>
<path d="M65.76 183.481L68 174.773H71.64L68 183.481H65.76ZM69.12 167.521C68.504 167.521 68 167.325 67.608 166.933C67.216 166.541 67.02 166.037 67.02 165.421C67.02 164.824 67.216 164.329 67.608 163.937C68.0187 163.526 68.5227 163.321 69.12 163.321H69.68C70.2773 163.321 70.772 163.526 71.164 163.937C71.5747 164.329 71.78 164.824 71.78 165.421C71.78 166.037 71.584 166.541 71.192 166.933C70.8 167.325 70.296 167.521 69.68 167.521H69.12Z" fill="#2EAFFF"/>
<path d="M211.16 338.08C210.058 338.08 209.106 337.893 208.304 337.52C207.52 337.165 206.922 336.633 206.512 335.924C206.101 335.233 205.924 334.403 205.98 333.432L206.26 328.84C206.316 327.851 206.166 327.141 205.812 326.712C205.457 326.264 204.673 326.04 203.46 326.04H200.38V323.8H203.46C204.673 323.8 205.457 323.585 205.812 323.156C206.166 322.708 206.316 321.989 206.26 321L205.98 316.408C205.924 315.419 206.101 314.579 206.512 313.888C206.922 313.197 207.52 312.675 208.304 312.32C209.106 311.947 210.058 311.76 211.16 311.76H212.42V314H211.16C210.282 314 209.61 314.205 209.144 314.616C208.677 315.008 208.462 315.605 208.5 316.408L208.78 321C208.854 322.213 208.565 323.184 207.912 323.912C207.258 324.621 206.334 324.976 205.14 324.976V324.836C206.316 324.836 207.23 325.2 207.884 325.928C208.556 326.656 208.854 327.627 208.78 328.84L208.5 333.432C208.462 334.235 208.677 334.832 209.144 335.224C209.61 335.635 210.282 335.84 211.16 335.84H212.42V338.08H211.16ZM217.169 338.08V335.84H218.429C219.306 335.84 219.978 335.635 220.445 335.224C220.911 334.832 221.126 334.235 221.089 333.432L220.809 328.84C220.734 327.627 221.023 326.656 221.677 325.928C222.349 325.2 223.273 324.836 224.449 324.836V324.976C223.254 324.976 222.33 324.621 221.677 323.912C221.023 323.184 220.734 322.213 220.809 321L221.089 316.408C221.126 315.605 220.911 315.008 220.445 314.616C219.978 314.205 219.306 314 218.429 314H217.169V311.76H218.429C219.53 311.76 220.473 311.947 221.257 312.32C222.059 312.675 222.666 313.197 223.077 313.888C223.487 314.579 223.665 315.419 223.609 316.408L223.329 321C223.273 321.989 223.422 322.708 223.777 323.156C224.131 323.585 224.915 323.8 226.129 323.8H229.209V326.04H226.129C224.934 326.04 224.15 326.264 223.777 326.712C223.422 327.141 223.273 327.851 223.329 328.84L223.609 333.432C223.665 334.403 223.487 335.233 223.077 335.924C222.666 336.633 222.059 337.165 221.257 337.52C220.473 337.893 219.53 338.08 218.429 338.08H217.169Z" fill="#2EAFFF"/>
</g>
</g>
<defs>
<linearGradient id="paint0_linear_10931_38075" x1="307.753" y1="-32.2631" x2="302.079" y2="763.324" gradientUnits="userSpaceOnUse">
<stop stop-color="#2EAFFF"/>
<stop offset="0.938633" stop-color="#99D8FF"/>
</linearGradient>
<clipPath id="clip0_10931_38075">
<rect width="627" height="627" fill="white"/>
</clipPath>
<clipPath id="clip1_10931_38075">
<rect width="627" height="627" fill="white"/>
</clipPath>
</defs>
</svg>
