<svg width="627" height="627" viewBox="0 0 627 627" fill="none" xmlns="http://www.w3.org/2000/svg">
<g clip-path="url(#clip0_11012_6698)">
<rect width="627" height="627" fill="#FFF100"/>
<rect width="627" height="627" fill="url(#paint0_linear_11012_6698)"/>
<path d="M436.559 237.558C437.143 236.974 437.143 236.026 436.559 235.442L427.037 225.92C426.452 225.335 425.505 225.335 424.921 225.92C424.336 226.504 424.336 227.451 424.921 228.036L433.385 236.5L424.921 244.964C424.336 245.549 424.336 246.496 424.921 247.08C425.505 247.665 426.452 247.665 427.037 247.08L436.559 237.558ZM435.501 236.5V235.004H159.501V236.5V237.996H435.501V236.5ZM94.501 301.5L93.0047 301.5L93.0048 345.497L94.5011 345.497L95.9974 345.497L95.9973 301.5L94.501 301.5ZM159.501 410.497V411.994H646.244V410.497V409.001H159.501V410.497ZM711.244 475.497H709.748V718.997H711.244H712.74V475.497H711.244ZM776.244 783.997V785.494H956V783.997V782.501H776.244V783.997ZM711.244 718.997H709.748C709.748 755.722 739.519 785.494 776.244 785.494V783.997V782.501C741.172 782.501 712.74 754.069 712.74 718.997H711.244ZM646.244 410.497V411.994C681.316 411.994 709.748 440.425 709.748 475.497H711.244H712.74C712.74 438.772 682.969 409.001 646.244 409.001V410.497ZM94.5011 345.497L93.0048 345.497C93.0048 382.222 122.776 411.994 159.501 411.994V410.497V409.001C124.429 409.001 95.9974 380.57 95.9974 345.497L94.5011 345.497ZM159.501 236.5V235.004C122.776 235.004 93.0047 264.775 93.0047 301.5L94.501 301.5L95.9973 301.5C95.9973 266.428 124.429 237.996 159.501 237.996V236.5Z" fill="#2EAFFF"/>
<path d="M536.339 666L536.339 -5.88681C536.339 -41.7853 565.441 -70.8868 601.339 -70.8868L716.234 -70.8868C752.133 -70.8868 781.234 -41.7853 781.234 -5.88679L781.234 272.488C781.234 308.387 810.336 337.488 846.234 337.488L1384.51 337.488C1420.41 337.488 1449.51 366.59 1449.51 402.488L1449.51 535.488" stroke="#2EAFFF" stroke-width="2.9926"/>
<path d="M521 283.5C521 274.94 527.94 268 536.5 268V268C545.06 268 552 274.94 552 283.5L552 312.5C552 321.06 545.06 328 536.5 328V328C527.94 328 521 321.06 521 312.5L521 283.5Z" fill="#99D8FF" stroke="#2EAFFF" stroke-width="2.9926" stroke-linejoin="round"/>
<path d="M-5.27986 -105.494C-5.8642 -106.078 -6.8116 -106.078 -7.39594 -105.494L-16.9183 -95.9713C-17.5027 -95.387 -17.5027 -94.4395 -16.9183 -93.8552C-16.334 -93.2709 -15.3866 -93.2709 -14.8023 -93.8552L-6.3379 -102.32L2.12646 -93.8552C2.7108 -93.2709 3.6582 -93.2709 4.24255 -93.8552C4.82689 -94.4395 4.82689 -95.387 4.24255 -95.9713L-5.27986 -105.494ZM-420.197 74.9987L-421.693 74.9987L-420.197 74.9987ZM-420.197 -76.001L-421.694 -76.001L-421.693 74.9987L-420.197 74.9987L-418.701 74.9987L-418.701 -76.001L-420.197 -76.001ZM-355.197 139.999L-355.197 141.495L-71.3379 141.495L-71.3379 139.999L-71.3379 138.503L-355.197 138.502L-355.197 139.999ZM-6.33789 74.9989L-4.84159 74.9989L-4.8416 -104.436L-6.3379 -104.436L-7.8342 -104.436L-7.83419 74.9989L-6.33789 74.9989ZM-485.197 -141.001L-485.197 -142.497L-649.338 -142.497L-649.338 -141.001L-649.338 -139.505L-485.197 -139.505L-485.197 -141.001ZM-71.3379 139.999L-71.3379 141.495C-34.613 141.495 -4.84159 111.724 -4.84159 74.9989L-6.33789 74.9989L-7.83419 74.9989C-7.83419 110.071 -36.2658 138.503 -71.3379 138.503L-71.3379 139.999ZM-420.197 74.9987L-421.693 74.9987C-421.693 111.724 -391.922 141.495 -355.197 141.495L-355.197 139.999L-355.197 138.502C-390.269 138.502 -418.701 110.071 -418.701 74.9987L-420.197 74.9987ZM-420.197 -76.001L-418.701 -76.001C-418.701 -112.726 -448.472 -142.497 -485.197 -142.497L-485.197 -141.001L-485.197 -139.505C-450.125 -139.505 -421.694 -111.073 -421.694 -76.001L-420.197 -76.001Z" fill="#2EAFFF"/>
<path d="M-196.001 1107L-196.001 891.499C-196.001 855.601 -166.899 826.499 -131.001 826.499L-119.662 826.499C-83.7637 826.499 -54.6623 797.398 -54.6623 761.499L-54.6623 531.498C-54.6623 495.6 -25.5609 466.498 10.3376 466.498L272 466.498C307.899 466.498 337 437.397 337 401.498L337 -61.0027C337 -96.9013 366.102 -126.003 402 -126.003L513 -126.002" stroke="#2EAFFF" stroke-width="2.9926"/>
<path d="M112.76 164.48L115 155.772H118.64L115 164.48H112.76ZM116.12 148.52C115.504 148.52 115 148.324 114.608 147.932C114.216 147.54 114.02 147.036 114.02 146.42C114.02 145.823 114.216 145.328 114.608 144.936C115.019 144.525 115.523 144.32 116.12 144.32H116.68C117.277 144.32 117.772 144.525 118.164 144.936C118.575 145.328 118.78 145.823 118.78 146.42C118.78 147.036 118.584 147.54 118.192 147.932C117.8 148.324 117.296 148.52 116.68 148.52H116.12Z" fill="#2EAFFF"/>
<path d="M198.16 558.08C197.059 558.08 196.107 557.893 195.304 557.52C194.52 557.165 193.923 556.633 193.512 555.924C193.101 555.233 192.924 554.403 192.98 553.432L193.26 548.84C193.316 547.851 193.167 547.141 192.812 546.712C192.457 546.264 191.673 546.04 190.46 546.04H187.38V543.8H190.46C191.673 543.8 192.457 543.585 192.812 543.156C193.167 542.708 193.316 541.989 193.26 541L192.98 536.408C192.924 535.419 193.101 534.579 193.512 533.888C193.923 533.197 194.52 532.675 195.304 532.32C196.107 531.947 197.059 531.76 198.16 531.76H199.42V534H198.16C197.283 534 196.611 534.205 196.144 534.616C195.677 535.008 195.463 535.605 195.5 536.408L195.78 541C195.855 542.213 195.565 543.184 194.912 543.912C194.259 544.621 193.335 544.976 192.14 544.976V544.836C193.316 544.836 194.231 545.2 194.884 545.928C195.556 546.656 195.855 547.627 195.78 548.84L195.5 553.432C195.463 554.235 195.677 554.832 196.144 555.224C196.611 555.635 197.283 555.84 198.16 555.84H199.42V558.08H198.16ZM204.169 558.08V555.84H205.429C206.306 555.84 206.978 555.635 207.445 555.224C207.912 554.832 208.126 554.235 208.089 553.432L207.809 548.84C207.734 547.627 208.024 546.656 208.677 545.928C209.349 545.2 210.273 544.836 211.449 544.836V544.976C210.254 544.976 209.33 544.621 208.677 543.912C208.024 543.184 207.734 542.213 207.809 541L208.089 536.408C208.126 535.605 207.912 535.008 207.445 534.616C206.978 534.205 206.306 534 205.429 534H204.169V531.76H205.429C206.53 531.76 207.473 531.947 208.257 532.32C209.06 532.675 209.666 533.197 210.077 533.888C210.488 534.579 210.665 535.419 210.609 536.408L210.329 541C210.273 541.989 210.422 542.708 210.777 543.156C211.132 543.585 211.916 543.8 213.129 543.8H216.209V546.04H213.129C211.934 546.04 211.15 546.264 210.777 546.712C210.422 547.141 210.273 547.851 210.329 548.84L210.609 553.432C210.665 554.403 210.488 555.233 210.077 555.924C209.666 556.633 209.06 557.165 208.257 557.52C207.473 557.893 206.53 558.08 205.429 558.08H204.169Z" fill="#2EAFFF"/>
<path d="M440.168 352.34V346.88H434.82V344.64H440.168V339.18H442.632V344.64H447.98V346.88H442.632V352.34H440.168Z" fill="#2EAFFF"/>
</g>
<defs>
<linearGradient id="paint0_linear_11012_6698" x1="307.753" y1="-32.2631" x2="302.079" y2="763.324" gradientUnits="userSpaceOnUse">
<stop stop-color="#2EAFFF"/>
<stop offset="0.938633" stop-color="#99D8FF"/>
</linearGradient>
<clipPath id="clip0_11012_6698">
<rect width="627" height="627" fill="white"/>
</clipPath>
</defs>
</svg>
