<svg width="627" height="627" viewBox="0 0 627 627" fill="none" xmlns="http://www.w3.org/2000/svg">
<g clip-path="url(#clip0_10931_37850)">
<rect width="627" height="627" fill="url(#paint0_linear_10931_37850)"/>
<g clip-path="url(#clip1_10931_37850)">
<rect width="627" height="627" fill="url(#paint1_linear_10931_37850)"/>
<path d="M361.558 571.058C362.142 570.474 362.142 569.526 361.558 568.942L352.036 559.42C351.451 558.835 350.504 558.835 349.92 559.42C349.335 560.004 349.335 560.951 349.92 561.536L358.384 570L349.92 578.464C349.335 579.049 349.335 579.996 349.92 580.58C350.504 581.165 351.451 581.165 352.036 580.58L361.558 571.058ZM360.5 570L360.5 568.504L-116 568.504L-116 570L-116 571.496L360.5 571.496L360.5 570Z" fill="#F0DF09"/>
<path d="M445.558 256.942C444.974 256.358 444.026 256.358 443.442 256.942L433.92 266.464C433.335 267.049 433.335 267.996 433.92 268.58C434.504 269.165 435.451 269.165 436.036 268.58L444.5 260.116L452.964 268.58C453.549 269.165 454.496 269.165 455.08 268.58C455.665 267.996 455.665 267.049 455.08 266.464L445.558 256.942ZM154.293 364.5L152.797 364.5L152.797 437L154.293 437L155.79 437L155.789 364.5L154.293 364.5ZM219.293 502L219.293 503.496L379.5 503.496L379.5 502L379.5 500.504L219.293 500.503L219.293 502ZM444.5 437L445.996 437L445.996 258L444.5 258L443.004 258L443.004 437L444.5 437ZM89.2931 299.5L89.2931 298.004L-48.0005 298.004L-48.0005 299.5L-48.0005 300.996L89.2931 300.996L89.2931 299.5ZM379.5 502L379.5 503.496C416.225 503.496 445.996 473.725 445.996 437L444.5 437L443.004 437C443.004 472.072 414.572 500.504 379.5 500.504L379.5 502ZM154.293 437L152.797 437C152.797 473.725 182.569 503.496 219.293 503.496L219.293 502L219.293 500.503C184.221 500.503 155.79 472.072 155.79 437L154.293 437ZM154.293 364.5L155.789 364.5C155.789 327.775 126.018 298.004 89.2931 298.004L89.2931 299.5L89.2931 300.996C124.365 300.996 152.797 329.428 152.797 364.5L154.293 364.5Z" fill="#F0DF09"/>
<path d="M615.72 -185.493C615.136 -186.077 614.188 -186.077 613.604 -185.493L604.082 -175.97C603.497 -175.386 603.497 -174.439 604.082 -173.854C604.666 -173.27 605.613 -173.27 606.198 -173.854L614.662 -182.319L623.126 -173.854C623.711 -173.27 624.658 -173.27 625.243 -173.854C625.827 -174.439 625.827 -175.386 625.243 -175.97L615.72 -185.493ZM200.803 -5.00036L199.307 -5.00036L200.803 -5.00036ZM200.803 -156L199.306 -156L199.307 -5.00036L200.803 -5.00036L202.299 -5.00036L202.299 -156L200.803 -156ZM265.803 59.9996L265.803 61.4959L549.662 61.4962L549.662 59.9999L549.662 58.5036L265.803 58.5033L265.803 59.9996ZM614.662 -5.00009L616.158 -5.00009L616.158 -184.435L614.662 -184.435L613.166 -184.435L613.166 -5.00009L614.662 -5.00009ZM135.803 -221L135.803 -222.496L-28.3379 -222.496L-28.3379 -221L-28.3379 -219.504L135.803 -219.504L135.803 -221ZM549.662 59.9999L549.662 61.4962C586.387 61.4962 616.158 31.7248 616.158 -5.00009L614.662 -5.00009L613.166 -5.00009C613.166 30.0721 584.734 58.5036 549.662 58.5036L549.662 59.9999ZM200.803 -5.00036L199.307 -5.00036C199.307 31.7245 229.078 61.4959 265.803 61.4959L265.803 59.9996L265.803 58.5033C230.731 58.5033 202.299 30.0717 202.299 -5.00036L200.803 -5.00036ZM200.803 -156L202.299 -156C202.299 -192.725 172.528 -222.496 135.803 -222.496L135.803 -221L135.803 -219.504C170.875 -219.504 199.306 -191.072 199.306 -156L200.803 -156Z" fill="#F0DF09"/>
<path d="M385 1107L385 891.5C385 855.602 414.102 826.5 450 826.5L461.339 826.5C497.237 826.5 526.339 797.399 526.339 761.5L526.339 531.499C526.339 495.601 555.44 466.499 591.339 466.499L853.001 466.499C888.9 466.499 918.001 437.398 918.001 401.499L918.001 -61.0017C918.001 -96.9003 947.103 -126.002 983.001 -126.002L1094 -126.001" stroke="#F0DF09" stroke-width="2.9926"/>
<rect x="32.9619" y="583.038" width="27.0762" height="56.0762" rx="13.5381" transform="rotate(-90 32.9619 583.038)" fill="#D4C50B" stroke="#F0DF09" stroke-width="1.92382"/>
<path d="M514.16 182.08C513.059 182.08 512.107 181.893 511.304 181.52C510.52 181.165 509.923 180.633 509.512 179.924C509.101 179.233 508.924 178.403 508.98 177.432L509.26 172.84C509.316 171.851 509.167 171.141 508.812 170.712C508.457 170.264 507.673 170.04 506.46 170.04H503.38V167.8H506.46C507.673 167.8 508.457 167.585 508.812 167.156C509.167 166.708 509.316 165.989 509.26 165L508.98 160.408C508.924 159.419 509.101 158.579 509.512 157.888C509.923 157.197 510.52 156.675 511.304 156.32C512.107 155.947 513.059 155.76 514.16 155.76H515.42V158H514.16C513.283 158 512.611 158.205 512.144 158.616C511.677 159.008 511.463 159.605 511.5 160.408L511.78 165C511.855 166.213 511.565 167.184 510.912 167.912C510.259 168.621 509.335 168.976 508.14 168.976V168.836C509.316 168.836 510.231 169.2 510.884 169.928C511.556 170.656 511.855 171.627 511.78 172.84L511.5 177.432C511.463 178.235 511.677 178.832 512.144 179.224C512.611 179.635 513.283 179.84 514.16 179.84H515.42V182.08H514.16ZM520.169 182.08V179.84H521.429C522.306 179.84 522.978 179.635 523.445 179.224C523.912 178.832 524.126 178.235 524.089 177.432L523.809 172.84C523.734 171.627 524.024 170.656 524.677 169.928C525.349 169.2 526.273 168.836 527.449 168.836V168.976C526.254 168.976 525.33 168.621 524.677 167.912C524.024 167.184 523.734 166.213 523.809 165L524.089 160.408C524.126 159.605 523.912 159.008 523.445 158.616C522.978 158.205 522.306 158 521.429 158H520.169V155.76H521.429C522.53 155.76 523.473 155.947 524.257 156.32C525.06 156.675 525.666 157.197 526.077 157.888C526.488 158.579 526.665 159.419 526.609 160.408L526.329 165C526.273 165.989 526.422 166.708 526.777 167.156C527.132 167.585 527.916 167.8 529.129 167.8H532.209V170.04H529.129C527.934 170.04 527.15 170.264 526.777 170.712C526.422 171.141 526.273 171.851 526.329 172.84L526.609 177.432C526.665 178.403 526.488 179.233 526.077 179.924C525.666 180.633 525.06 181.165 524.257 181.52C523.473 181.893 522.53 182.08 521.429 182.08H520.169Z" fill="#F3E223"/>
<path d="M446.68 586.8V584.7H460.12V586.8H446.68Z" fill="#F3E223"/>
<path d="M205.168 332.34V326.88H199.82V324.64H205.168V319.18H207.632V324.64H212.98V326.88H207.632V332.34H205.168Z" fill="#F3E223"/>
</g>
</g>
<defs>
<linearGradient id="paint0_linear_10931_37850" x1="306.707" y1="-103.485" x2="306.707" y2="763.357" gradientUnits="userSpaceOnUse">
<stop stop-color="#FDEF00"/>
<stop offset="0.938633" stop-color="#FFFAA3"/>
</linearGradient>
<linearGradient id="paint1_linear_10931_37850" x1="307.753" y1="-32.2631" x2="302.079" y2="763.324" gradientUnits="userSpaceOnUse">
<stop stop-color="#FDEF00"/>
<stop offset="0.938633" stop-color="#FFFAA3"/>
</linearGradient>
<clipPath id="clip0_10931_37850">
<rect width="627" height="627" fill="white"/>
</clipPath>
<clipPath id="clip1_10931_37850">
<rect width="627" height="627" fill="white"/>
</clipPath>
</defs>
</svg>
