<svg width="627" height="627" viewBox="0 0 627 627" fill="none" xmlns="http://www.w3.org/2000/svg">
<g clip-path="url(#clip0_10931_37850)">
<rect width="627" height="627" fill="url(#paint0_linear_10931_37850)"/>
<g clip-path="url(#clip1_10931_37850)">
<rect width="627" height="627" fill="url(#paint1_linear_10931_37850)"/>
<path d="M375.058 204.291C375.642 203.707 375.642 202.76 375.058 202.175L365.536 192.653C364.951 192.069 364.004 192.069 363.42 192.653C362.835 193.237 362.835 194.185 363.42 194.769L371.884 203.233L363.42 211.698C362.835 212.282 362.835 213.229 363.42 213.814C364.004 214.398 364.951 214.398 365.536 213.814L375.058 204.291ZM374 203.233L374 201.737L183 201.737L183 203.233L183 204.73L374 204.73L374 203.233ZM118 138.233L119.496 138.233L119.496 -54.0004L118 -54.0004L116.504 -54.0004L116.504 138.233L118 138.233ZM183 203.233L183 201.737C147.928 201.737 119.496 173.305 119.496 138.233L118 138.233L116.504 138.233C116.504 174.958 146.275 204.729 183 204.73L183 203.233Z" fill="#F0DF09"/>
<path d="M-11.6234 850.571C-12.2078 851.155 -12.2078 852.103 -11.6234 852.687L-2.10104 862.209C-1.5167 862.794 -0.569295 862.794 0.0150471 862.209C0.599389 861.625 0.599389 860.678 0.015047 860.093L-8.44931 851.629L0.0150455 843.165C0.599387 842.58 0.599387 841.633 0.0150453 841.048C-0.569297 840.464 -1.5167 840.464 -2.10104 841.048L-11.6234 850.571ZM-10.5654 851.629L-10.5654 853.125L265.633 853.125L265.633 851.629L265.633 850.133L-10.5654 850.133L-10.5654 851.629ZM330.633 786.629L332.129 786.629L332.129 595.383L330.633 595.383L329.136 595.383L329.136 786.629L330.633 786.629ZM265.633 530.383L265.633 528.886L-221.469 528.887L-221.469 530.383L-221.469 531.879L265.633 531.879L265.633 530.383ZM-286.469 465.383L-284.972 465.383L-284.973 235.629L-286.469 235.629L-287.965 235.629L-287.965 465.383L-286.469 465.383ZM-351.469 170.629L-351.469 169.133L-531.367 169.133L-531.367 170.629L-531.367 172.125L-351.469 172.125L-351.469 170.629ZM-286.469 235.629L-284.973 235.629C-284.973 198.904 -314.744 169.133 -351.469 169.133L-351.469 170.629L-351.469 172.125C-316.397 172.125 -287.965 200.557 -287.965 235.629L-286.469 235.629ZM-221.469 530.383L-221.469 528.887C-256.541 528.887 -284.972 500.455 -284.972 465.383L-286.469 465.383L-287.965 465.383C-287.965 502.108 -258.194 531.879 -221.469 531.879L-221.469 530.383ZM330.633 595.383L332.129 595.383C332.129 558.658 302.358 528.886 265.633 528.886L265.633 530.383L265.633 531.879C300.705 531.879 329.136 560.311 329.136 595.383L330.633 595.383ZM265.633 851.629L265.633 853.125C302.358 853.125 332.129 823.354 332.129 786.629L330.633 786.629L329.136 786.629C329.136 821.701 300.705 850.133 265.633 850.133L265.633 851.629Z" fill="#F0DF09"/>
<path d="M560.325 697.686C560.91 698.27 561.857 698.27 562.441 697.686L571.964 688.164C572.548 687.579 572.548 686.632 571.964 686.048C571.379 685.463 570.432 685.463 569.848 686.048L561.383 694.512L552.919 686.048C552.335 685.463 551.387 685.463 550.803 686.048C550.219 686.632 550.219 687.579 550.803 688.164L560.325 697.686ZM851.59 590.128L853.087 590.128L853.086 517.628L851.59 517.628L850.094 517.628L850.094 590.128L851.59 590.128ZM786.59 452.628L786.59 451.132L626.383 451.132L626.383 452.628L626.383 454.124L786.59 454.125L786.59 452.628ZM561.383 517.628L559.887 517.628L559.887 696.628L561.383 696.628L562.88 696.628L562.88 517.628L561.383 517.628ZM916.59 655.128L916.59 656.624L1053.88 656.624L1053.88 655.128L1053.88 653.632L916.59 653.632L916.59 655.128ZM626.383 452.628L626.383 451.132C589.658 451.132 559.887 480.903 559.887 517.628L561.383 517.628L562.88 517.628C562.88 482.556 591.311 454.124 626.383 454.124L626.383 452.628ZM851.59 517.628L853.086 517.628C853.086 480.903 823.315 451.132 786.59 451.132L786.59 452.628L786.59 454.125C821.662 454.125 850.093 482.556 850.094 517.628L851.59 517.628ZM851.59 590.128L850.094 590.128C850.094 626.853 879.865 656.624 916.59 656.624L916.59 655.128L916.59 653.632C881.518 653.632 853.087 625.2 853.087 590.128L851.59 590.128Z" fill="#F0DF09"/>
<path d="M752 -152.371L752 63.1286C752 99.0271 722.899 128.129 687 128.129L515 128.129C479.101 128.129 450 157.23 450 193.129L450 333.385C450 369.283 420.899 398.385 385 398.385L152.882 398.385C116.984 398.385 87.8824 427.486 87.8824 463.385L87.8828 1015.63C87.8828 1051.53 58.7812 1080.63 22.8826 1080.63L-88.1172 1080.63" stroke="#F0DF09" stroke-width="2.9926"/>
<rect x="540.962" y="138.038" width="19.0762" height="40.0762" rx="9.53809" transform="rotate(-90 540.962 138.038)" fill="#D4C50B" stroke="#F0DF09" stroke-width="1.92382"/>
<path d="M241.068 140.368L239.052 138.968L240.564 136.784C240.807 136.429 241.096 136.084 241.432 135.748C241.768 135.393 242.104 135.067 242.44 134.768C242.795 134.451 243.103 134.18 243.364 133.956L243.28 133.76C242.925 133.723 242.524 133.685 242.076 133.648C241.628 133.592 241.171 133.517 240.704 133.424C240.256 133.312 239.836 133.191 239.444 133.06L236.98 132.164L237.82 129.84L240.284 130.736C240.676 130.867 241.077 131.053 241.488 131.296C241.917 131.52 242.328 131.763 242.72 132.024C243.112 132.267 243.448 132.5 243.728 132.724L243.868 132.612C243.775 132.257 243.672 131.856 243.56 131.408C243.448 130.941 243.355 130.465 243.28 129.98C243.205 129.476 243.168 129.009 243.168 128.58V125.92H245.632V128.58C245.632 129.009 245.595 129.476 245.52 129.98C245.445 130.465 245.352 130.941 245.24 131.408C245.128 131.856 245.016 132.257 244.904 132.612L245.044 132.724C245.343 132.5 245.679 132.267 246.052 132.024C246.444 131.763 246.845 131.52 247.256 131.296C247.685 131.053 248.096 130.867 248.488 130.736L250.98 129.84L251.82 132.164L249.328 133.06C248.955 133.191 248.535 133.312 248.068 133.424C247.62 133.517 247.172 133.592 246.724 133.648C246.276 133.685 245.875 133.723 245.52 133.76L245.408 133.984C245.688 134.208 245.996 134.479 246.332 134.796C246.687 135.095 247.023 135.421 247.34 135.776C247.676 136.112 247.956 136.448 248.18 136.784L249.72 138.968L247.704 140.368L246.164 138.184C245.94 137.848 245.716 137.465 245.492 137.036C245.287 136.607 245.091 136.177 244.904 135.748C244.736 135.319 244.596 134.936 244.484 134.6H244.288C244.176 134.936 244.027 135.319 243.84 135.748C243.672 136.177 243.476 136.607 243.252 137.036C243.047 137.465 242.823 137.848 242.58 138.184L241.068 140.368Z" fill="#F3E223"/>
<path d="M125.168 340.34V334.88H119.82V332.64H125.168V327.18H127.632V332.64H132.98V334.88H127.632V340.34H125.168Z" fill="#F3E223"/>
<path d="M431.24 502.88V500.64H443.56V502.88H431.24ZM448.029 502.88V500.64H460.349V502.88H448.029Z" fill="#F3E223"/>
</g>
</g>
<defs>
<linearGradient id="paint0_linear_10931_37850" x1="306.707" y1="-103.485" x2="306.707" y2="763.357" gradientUnits="userSpaceOnUse">
<stop stop-color="#FDEF00"/>
<stop offset="0.938633" stop-color="#FFFAA3"/>
</linearGradient>
<linearGradient id="paint1_linear_10931_37850" x1="307.753" y1="-32.2631" x2="302.079" y2="763.324" gradientUnits="userSpaceOnUse">
<stop stop-color="#FDEF00"/>
<stop offset="0.938633" stop-color="#FFFAA3"/>
</linearGradient>
<clipPath id="clip0_10931_37850">
<rect width="627" height="627" fill="white"/>
</clipPath>
<clipPath id="clip1_10931_37850">
<rect width="627" height="627" fill="white"/>
</clipPath>
</defs>
</svg>
