<svg width="627" height="627" viewBox="0 0 627 627" fill="none" xmlns="http://www.w3.org/2000/svg">
<rect width="627" height="627" fill="url(#paint0_linear_10904_38131)"/>
<g clip-path="url(#clip0_10904_38131)">
<rect width="625" height="625" fill="url(#paint1_linear_10904_38131)"/>
<path d="M169.803 221.096C170.386 220.513 170.386 219.569 169.803 218.986L160.311 209.494C159.729 208.912 158.784 208.912 158.202 209.494C157.62 210.077 157.62 211.021 158.202 211.604L166.639 220.041L158.202 228.478C157.62 229.061 157.62 230.005 158.202 230.588C158.784 231.17 159.729 231.17 160.311 230.588L169.803 221.096ZM168.749 220.041V218.549H-1.20724V220.041V221.533H168.749V220.041ZM-66 284.834H-67.4915L-67.4914 328.691H-65.9999L-64.5084 328.691L-64.5084 284.834H-66ZM-1.20727 393.483V394.975H382.707V393.483V391.992H-1.20727V393.483ZM447.5 458.276H446.008V765.792H447.5H448.992V458.276H447.5ZM382.707 393.483V394.975C417.668 394.975 446.008 423.316 446.008 458.276H447.5H448.992C448.992 421.668 419.315 391.992 382.707 391.992V393.483ZM-65.9999 328.691H-67.4914C-67.4914 365.298 -37.815 394.975 -1.20727 394.975V393.483V391.992C-36.1675 391.992 -64.5084 363.651 -64.5084 328.691L-65.9999 328.691ZM-1.20724 220.041V218.549C-37.815 218.549 -67.4915 248.226 -67.4915 284.834H-66H-64.5084C-64.5085 249.873 -36.1675 221.533 -1.20724 221.533V220.041Z" fill="#9787F2"/>
<path d="M690.81 320.707L690.81 -21.5726C690.81 -57.3566 661.801 -86.3652 626.017 -86.3652L511.488 -86.3653C475.704 -86.3653 446.695 -57.3566 446.695 -21.5726L446.695 225.207C446.695 260.991 475.704 290 511.488 290L655.5 290" stroke="#9787F2" stroke-width="2.98306"/>
<rect x="160.22" y="374.254" width="37.0823" height="74.0823" rx="18.5412" transform="rotate(90 160.22 374.254)" fill="#9787F2" stroke="#9787F2" stroke-width="1.91768"/>
<path d="M-47.559 539L229.056 539C264.84 539 293.849 509.991 293.849 474.207L293.849 -76.5118C293.849 -112.296 322.857 -141.305 358.641 -141.305L469.287 -141.304" stroke="#9787F2" stroke-width="2.98306"/>
<path d="M324.76 572.005L327 563.297H330.64L327 572.005H324.76ZM328.12 556.045C327.504 556.045 327 555.849 326.608 555.457C326.216 555.065 326.02 554.561 326.02 553.945C326.02 553.348 326.216 552.853 326.608 552.461C327.019 552.051 327.523 551.845 328.12 551.845H328.68C329.277 551.845 329.772 552.051 330.164 552.461C330.575 552.853 330.78 553.348 330.78 553.945C330.78 554.561 330.584 555.065 330.192 555.457C329.8 555.849 329.296 556.045 328.68 556.045H328.12Z" fill="#9787F2"/>
<path d="M69.168 288.34V282.88H63.82V280.64H69.168V275.18H71.632V280.64H76.98V282.88H71.632V288.34H69.168Z" fill="#9787F2"/>
<path d="M492.58 155.36C489.929 154.707 487.867 153.419 486.392 151.496C484.917 149.573 484.18 147.221 484.18 144.44V139.4C484.18 137.571 484.516 135.919 485.188 134.444C485.879 132.951 486.849 131.691 488.1 130.664C489.369 129.637 490.863 128.909 492.58 128.48V130.86C491.385 131.14 490.349 131.681 489.472 132.484C488.595 133.268 487.913 134.248 487.428 135.424C486.943 136.6 486.7 137.925 486.7 139.4V144.44C486.7 145.877 486.933 147.184 487.4 148.36C487.885 149.536 488.567 150.516 489.444 151.3C490.34 152.065 491.385 152.588 492.58 152.868V155.36ZM499.009 155.36V152.868C500.222 152.588 501.268 152.065 502.145 151.3C503.022 150.516 503.694 149.536 504.161 148.36C504.646 147.184 504.889 145.877 504.889 144.44V139.4C504.889 137.925 504.646 136.6 504.161 135.424C503.676 134.248 502.994 133.268 502.117 132.484C501.24 131.681 500.204 131.14 499.009 130.86V128.48C500.745 128.909 502.238 129.637 503.489 130.664C504.74 131.691 505.701 132.951 506.373 134.444C507.064 135.919 507.409 137.571 507.409 139.4V144.44C507.409 147.221 506.672 149.573 505.197 151.496C503.722 153.419 501.66 154.707 499.009 155.36ZM517.338 156.48L519.578 147.772H523.218L519.578 156.48H517.338ZM520.698 140.52C520.082 140.52 519.578 140.324 519.186 139.932C518.794 139.54 518.598 139.036 518.598 138.42C518.598 137.823 518.794 137.328 519.186 136.936C519.597 136.525 520.101 136.32 520.698 136.32H521.258C521.855 136.32 522.35 136.525 522.742 136.936C523.153 137.328 523.358 137.823 523.358 138.42C523.358 139.036 523.162 139.54 522.77 139.932C522.378 140.324 521.874 140.52 521.258 140.52H520.698Z" fill="#9787F2"/>
</g>
<defs>
<linearGradient id="paint0_linear_10904_38131" x1="307.753" y1="-32.2631" x2="302.079" y2="763.324" gradientUnits="userSpaceOnUse">
<stop stop-color="#9683FF"/>
<stop offset="0.938633" stop-color="#D4CDFF"/>
</linearGradient>
<linearGradient id="paint1_linear_10904_38131" x1="306.771" y1="-32.1602" x2="301.115" y2="760.889" gradientUnits="userSpaceOnUse">
<stop stop-color="#9683FF"/>
<stop offset="0.938633" stop-color="#D4CDFF"/>
</linearGradient>
<clipPath id="clip0_10904_38131">
<rect width="625" height="625" fill="white"/>
</clipPath>
</defs>
</svg>
