<svg xmlns="http://www.w3.org/2000/svg" width="367" height="367" fill="none" viewBox="0 0 367 367"><g clip-path="url(#clip0_7508_33969)"><rect width="367" height="367" fill="#A899FF"/><g clip-path="url(#clip1_7508_33969)"><rect width="367" height="367" fill="#A899FF"/><path fill="#9787F2" d="M73.4002 319.22L252.313 319.22C259.552 319.22 265.421 313.352 265.421 306.113L265.421 255.978C265.421 248.739 271.289 242.871 278.528 242.871L309.657 242.871C316.896 242.871 322.764 237.003 322.764 229.764L322.764 198.307C322.764 191.068 328.632 185.2 335.871 185.2L381.419 185.2C388.658 185.2 394.526 191.068 394.526 198.307L394.526 410.97C394.526 418.209 388.658 424.077 381.419 424.077L73.4002 424.077C66.1614 424.077 60.2931 418.209 60.2931 410.97L60.2931 332.327C60.2931 325.089 66.1613 319.22 73.4002 319.22Z"/><path fill="#9787F2" d="M32.4401 282.786L-49.152 282.786C-56.3908 282.786 -62.2591 276.918 -62.2591 269.679L-62.2591 -42.5984C-62.2591 -49.8373 -56.3909 -55.7056 -49.152 -55.7056L277.871 -55.7056C285.11 -55.7056 290.978 -49.8374 290.978 -42.5985L290.978 26.8695C290.978 34.1084 285.11 39.9766 277.871 39.9766L181.37 39.9767C174.131 39.9767 168.263 45.845 168.263 53.0838L168.263 109.772C168.263 117.011 162.395 122.879 155.156 122.879L58.6544 122.879C51.4155 122.879 45.5473 128.748 45.5473 135.986L45.5473 269.679C45.5473 276.918 39.679 282.786 32.4401 282.786Z"/><path fill="#A899FF" d="M-50.4624 -24.2488L-50.4624 64.552C-50.4624 71.7909 -44.5942 77.6592 -37.3553 77.6592L71.1065 77.6592C78.3453 77.6592 84.2136 71.7909 84.2136 64.552L84.2136 47.5128C84.2136 40.2739 90.0819 34.4057 97.3208 34.4057L131.072 34.4057C138.31 34.4057 144.179 28.5374 144.179 21.2985L144.179 -24.2487C144.179 -31.4876 138.31 -37.3559 131.072 -37.3559L-37.3553 -37.3559C-44.5942 -37.3559 -50.4624 -31.4876 -50.4624 -24.2488Z"/><path fill="#9787F2" d="M322.927 104.857L322.927 -118.619C322.927 -125.858 328.796 -131.727 336.034 -131.727L381.254 -131.727C388.493 -131.727 394.361 -125.858 394.361 -118.619L394.361 104.857C394.361 112.096 388.493 117.964 381.254 117.964L336.034 117.964C328.796 117.964 322.927 112.096 322.927 104.857Z"/></g><rect width="168.287" height="56.802" x="99" y="155" fill="#000"/><path fill="#A899FF" d="M121.48 184.876L119.608 184.53C117.228 184.041 115.193 182.821 115.193 180.257C115.193 177.286 118.367 175.984 121.073 175.984C124.125 175.984 126.709 177.774 126.872 180.603H124.064C123.84 178.873 122.335 178.303 120.951 178.303C119.588 178.303 118.103 178.812 118.103 180.135C118.103 181.172 118.957 181.742 120.158 181.966L122.091 182.312C124.491 182.759 127.137 183.675 127.137 186.747C127.137 189.779 124.125 191.265 121.155 191.265C117.533 191.265 115.132 189.311 114.867 186.137H117.675C118.001 188.314 119.506 188.945 121.256 188.945C122.559 188.945 124.207 188.457 124.207 186.89C124.207 185.649 123.047 185.14 121.48 184.876ZM131.844 176.248V191H128.935V176.248H131.844ZM141.213 175.984C144.692 175.984 147.012 177.998 147.5 180.725H144.733C144.265 179.097 142.84 178.303 141.192 178.303C138.73 178.303 137.001 180.033 137.001 183.553C137.001 187.073 138.649 188.945 141.172 188.945C142.739 188.945 144.855 188.151 144.855 185.791V185.547H141.172V183.166H147.541V191H145.241L145.16 189.271C144.326 190.491 142.82 191.265 140.724 191.265C136.574 191.265 133.99 188.274 133.99 183.553C133.99 178.975 136.696 175.984 141.213 175.984ZM159.314 191H156.425L152.783 179.911V191H150.076V176.248H154.309L157.89 187.744L161.369 176.248H165.642V191H162.936V179.911L159.314 191ZM170.699 183.614C170.699 187.093 172.611 188.945 174.911 188.945C177.21 188.945 179.122 187.093 179.122 183.614C179.122 180.155 177.21 178.303 174.911 178.303C172.611 178.303 170.699 180.155 170.699 183.614ZM182.134 183.614C182.134 188.192 179.306 191.265 174.911 191.265C170.516 191.265 167.687 188.192 167.687 183.614C167.687 179.036 170.516 175.984 174.911 175.984C179.306 175.984 182.134 179.036 182.134 183.614ZM193.756 183.614C193.756 179.199 191.132 178.527 188.446 178.527H187.103V188.721H188.446C191.132 188.721 193.756 188.07 193.756 183.614ZM184.193 176.248H188.568C193.248 176.248 196.768 177.754 196.768 183.614C196.768 189.474 193.248 191 188.568 191H184.193V176.248ZM208.21 175.984C211.16 175.984 213.052 177.368 213.052 179.952C213.052 182.698 210.366 185.608 205.829 188.64H213.398V191H202.553V188.721C207.294 184.916 210.224 182.434 210.224 180.094C210.224 178.792 209.431 178.059 208.047 178.059C206.806 178.059 205.544 178.812 205.544 181.01H202.818C202.757 177.978 204.954 175.984 208.21 175.984ZM220.623 191.265C216.676 191.265 214.682 188.07 214.682 183.594C214.682 179.117 216.676 175.984 220.623 175.984C224.53 175.984 226.544 179.117 226.544 183.594C226.544 188.07 224.53 191.265 220.623 191.265ZM220.623 189.148C222.638 189.148 223.675 187.154 223.675 183.594C223.675 180.033 222.638 178.1 220.623 178.1C218.609 178.1 217.551 180.033 217.551 183.594C217.551 187.154 218.609 189.148 220.623 189.148ZM233.484 175.984C236.435 175.984 238.327 177.368 238.327 179.952C238.327 182.698 235.641 185.608 231.104 188.64H238.673V191H227.828V188.721C232.569 184.916 235.499 182.434 235.499 180.094C235.499 178.792 234.705 178.059 233.322 178.059C232.081 178.059 230.819 178.812 230.819 181.01H228.093C228.031 177.978 230.229 175.984 233.484 175.984ZM246.193 179.809L241.981 185.079H246.193V179.809ZM251.503 185.079V187.46H248.98V191H246.193V187.46H238.908V185.262L246.233 176.248H248.98V185.079H251.503Z"/></g><defs><clipPath id="clip0_7508_33969"><rect width="367" height="367" fill="#fff"/></clipPath><clipPath id="clip1_7508_33969"><rect width="367" height="367" fill="#fff"/></clipPath></defs></svg>