<svg xmlns="http://www.w3.org/2000/svg" width="367" height="367" fill="none" viewBox="0 0 367 367"><g clip-path="url(#clip0_7497_10441)"><rect width="367" height="367" fill="#A899FF"/><g clip-path="url(#clip1_7497_10441)"><rect width="367" height="367" fill="#A899FF"/><path fill="#9787F2" d="M45.8749 218.949L45.875 126.425C45.875 110.17 59.0522 96.9931 75.307 96.9931L135.823 96.9931C151.658 96.9931 164.495 84.1562 164.495 68.3212C164.495 52.4862 177.331 39.6493 193.167 39.6493L258.27 39.6493C274.525 39.6493 287.702 26.4722 287.702 10.2173L287.702 -2.6802C287.702 -18.9351 274.525 -32.1123 258.27 -32.1123L-29.5499 -32.1123C-45.8047 -32.1123 -58.9819 -18.9351 -58.9819 -2.68021L-58.9819 218.949C-58.9819 235.204 -45.8048 248.381 -29.5499 248.381L16.4428 248.381C32.6977 248.381 45.8749 235.204 45.8749 218.949Z"/><path fill="#9787F2" d="M79.9536 306.976L79.9537 355.918C79.9537 372.173 93.1309 385.35 109.386 385.35L389.013 385.35C405.268 385.35 418.445 372.173 418.445 355.918L418.445 87.7593C418.445 71.5044 405.268 58.3272 389.013 58.3272L325.981 58.3272C309.726 58.3272 296.549 71.5044 296.549 87.7593L296.549 248.112C296.549 264.367 283.372 277.544 267.117 277.544L109.386 277.544C93.1308 277.544 79.9536 290.721 79.9536 306.976Z"/><path fill="#A899FF" d="M455.474 86.5068L455.474 262.798C455.474 270.037 449.605 275.905 442.367 275.905L349.961 275.905C342.722 275.905 336.854 281.774 336.854 289.013L336.854 320.142C336.854 327.381 330.986 333.249 323.747 333.249L226.754 333.249C219.515 333.249 213.647 339.117 213.647 346.356L213.647 391.904C213.647 399.142 219.515 405.011 226.754 405.011L547.223 405.011C554.462 405.011 560.331 399.142 560.331 391.904L560.331 86.5069C560.331 79.268 554.462 73.3997 547.223 73.3997L468.581 73.3997C461.342 73.3997 455.474 79.2679 455.474 86.5068Z"/></g><rect width="168.287" height="56.802" x="99" y="155" fill="#000"/><path fill="#A899FF" d="M121.48 184.876L119.608 184.53C117.228 184.041 115.193 182.821 115.193 180.257C115.193 177.286 118.367 175.984 121.073 175.984C124.125 175.984 126.709 177.774 126.872 180.603H124.064C123.84 178.873 122.335 178.303 120.951 178.303C119.588 178.303 118.103 178.812 118.103 180.135C118.103 181.172 118.957 181.742 120.158 181.966L122.091 182.312C124.491 182.759 127.137 183.675 127.137 186.747C127.137 189.779 124.125 191.265 121.155 191.265C117.533 191.265 115.132 189.311 114.867 186.137H117.675C118.001 188.314 119.506 188.945 121.256 188.945C122.559 188.945 124.207 188.457 124.207 186.89C124.207 185.649 123.047 185.14 121.48 184.876ZM131.844 176.248V191H128.935V176.248H131.844ZM141.213 175.984C144.692 175.984 147.012 177.998 147.5 180.725H144.733C144.265 179.097 142.84 178.303 141.192 178.303C138.73 178.303 137.001 180.033 137.001 183.553C137.001 187.073 138.649 188.945 141.172 188.945C142.739 188.945 144.855 188.151 144.855 185.791V185.547H141.172V183.166H147.541V191H145.241L145.16 189.271C144.326 190.491 142.82 191.265 140.724 191.265C136.574 191.265 133.99 188.274 133.99 183.553C133.99 178.975 136.696 175.984 141.213 175.984ZM159.314 191H156.425L152.783 179.911V191H150.076V176.248H154.309L157.89 187.744L161.369 176.248H165.642V191H162.936V179.911L159.314 191ZM170.699 183.614C170.699 187.093 172.611 188.945 174.911 188.945C177.21 188.945 179.122 187.093 179.122 183.614C179.122 180.155 177.21 178.303 174.911 178.303C172.611 178.303 170.699 180.155 170.699 183.614ZM182.134 183.614C182.134 188.192 179.306 191.265 174.911 191.265C170.516 191.265 167.687 188.192 167.687 183.614C167.687 179.036 170.516 175.984 174.911 175.984C179.306 175.984 182.134 179.036 182.134 183.614ZM193.756 183.614C193.756 179.199 191.132 178.527 188.446 178.527H187.103V188.721H188.446C191.132 188.721 193.756 188.07 193.756 183.614ZM184.193 176.248H188.568C193.248 176.248 196.768 177.754 196.768 183.614C196.768 189.474 193.248 191 188.568 191H184.193V176.248ZM208.21 175.984C211.16 175.984 213.052 177.368 213.052 179.952C213.052 182.698 210.366 185.608 205.829 188.64H213.398V191H202.553V188.721C207.294 184.916 210.224 182.434 210.224 180.094C210.224 178.792 209.431 178.059 208.047 178.059C206.806 178.059 205.544 178.812 205.544 181.01H202.818C202.757 177.978 204.954 175.984 208.21 175.984ZM220.623 191.265C216.676 191.265 214.682 188.07 214.682 183.594C214.682 179.117 216.676 175.984 220.623 175.984C224.53 175.984 226.544 179.117 226.544 183.594C226.544 188.07 224.53 191.265 220.623 191.265ZM220.623 189.148C222.638 189.148 223.675 187.154 223.675 183.594C223.675 180.033 222.638 178.1 220.623 178.1C218.609 178.1 217.551 180.033 217.551 183.594C217.551 187.154 218.609 189.148 220.623 189.148ZM233.484 175.984C236.435 175.984 238.327 177.368 238.327 179.952C238.327 182.698 235.641 185.608 231.104 188.64H238.673V191H227.828V188.721C232.569 184.916 235.499 182.434 235.499 180.094C235.499 178.792 234.705 178.059 233.322 178.059C232.081 178.059 230.819 178.812 230.819 181.01H228.093C228.031 177.978 230.229 175.984 233.484 175.984ZM245.227 189.148C246.773 189.148 247.994 188.233 247.994 186.849C247.994 185.12 246.387 184.428 244.291 184.428H243.701V182.23H244.189C246.305 182.23 247.628 181.457 247.628 180.074C247.628 178.792 246.509 178.1 245.288 178.1C243.579 178.1 242.521 179.158 242.378 180.704H239.713C240.038 177.754 242.053 175.984 245.451 175.984C247.913 175.984 250.456 177.164 250.456 179.952C250.456 181.396 249.601 182.556 248.462 183.187C249.988 183.838 250.843 185.282 250.843 186.768C250.843 189.759 248.258 191.265 245.145 191.265C241.768 191.265 239.753 189.067 239.591 186.361H242.236C242.46 187.846 243.375 189.148 245.227 189.148Z"/></g><defs><clipPath id="clip0_7497_10441"><rect width="367" height="367" fill="#fff"/></clipPath><clipPath id="clip1_7497_10441"><rect width="367" height="367" fill="#fff"/></clipPath></defs></svg>