<svg width="627" height="627" viewBox="0 0 627 627" fill="none" xmlns="http://www.w3.org/2000/svg">
<rect width="627" height="627" fill="url(#paint0_linear_10904_38131)"/>
<g clip-path="url(#clip0_10904_38131)">
<rect width="625" height="625" fill="url(#paint1_linear_10904_38131)"/>
<path d="M169.803 221.096C170.386 220.513 170.386 219.569 169.803 218.986L160.311 209.494C159.729 208.912 158.784 208.912 158.202 209.494C157.62 210.077 157.62 211.021 158.202 211.604L166.639 220.041L158.202 228.478C157.62 229.061 157.62 230.005 158.202 230.588C158.784 231.17 159.729 231.17 160.311 230.588L169.803 221.096ZM168.749 220.041V218.549H-1.20724V220.041V221.533H168.749V220.041ZM-66 284.834H-67.4915L-67.4914 328.691H-65.9999L-64.5084 328.691L-64.5084 284.834H-66ZM-1.20727 393.483V394.975H382.707V393.483V391.992H-1.20727V393.483ZM447.5 458.276H446.008V765.792H447.5H448.992V458.276H447.5ZM382.707 393.483V394.975C417.668 394.975 446.008 423.316 446.008 458.276H447.5H448.992C448.992 421.668 419.315 391.992 382.707 391.992V393.483ZM-65.9999 328.691H-67.4914C-67.4914 365.298 -37.815 394.975 -1.20727 394.975V393.483V391.992C-36.1675 391.992 -64.5084 363.651 -64.5084 328.691L-65.9999 328.691ZM-1.20724 220.041V218.549C-37.815 218.549 -67.4915 248.226 -67.4915 284.834H-66H-64.5084C-64.5085 249.873 -36.1675 221.533 -1.20724 221.533V220.041Z" fill="#9787F2"/>
<path d="M690.81 320.707L690.81 -21.5726C690.81 -57.3566 661.801 -86.3652 626.017 -86.3652L511.488 -86.3653C475.704 -86.3653 446.695 -57.3566 446.695 -21.5726L446.695 225.207C446.695 260.991 475.704 290 511.488 290L655.5 290" stroke="#9787F2" stroke-width="2.98306"/>
<rect x="160.22" y="374.254" width="37.0823" height="74.0823" rx="18.5412" transform="rotate(90 160.22 374.254)" fill="#9787F2" stroke="#9787F2" stroke-width="1.91768"/>
<path d="M-47.559 539L229.056 539C264.84 539 293.849 509.991 293.849 474.207L293.849 -76.5118C293.849 -112.296 322.857 -141.305 358.641 -141.305L469.287 -141.304" stroke="#9787F2" stroke-width="2.98306"/>
<path d="M324.76 572.005L327 563.297H330.64L327 572.005H324.76ZM328.12 556.045C327.504 556.045 327 555.849 326.608 555.457C326.216 555.065 326.02 554.561 326.02 553.945C326.02 553.348 326.216 552.853 326.608 552.461C327.019 552.051 327.523 551.845 328.12 551.845H328.68C329.277 551.845 329.772 552.051 330.164 552.461C330.575 552.853 330.78 553.348 330.78 553.945C330.78 554.561 330.584 555.065 330.192 555.457C329.8 555.849 329.296 556.045 328.68 556.045H328.12Z" fill="#9787F2"/>
<path d="M69.168 288.34V282.88H63.82V280.64H69.168V275.18H71.632V280.64H76.98V282.88H71.632V288.34H69.168Z" fill="#9787F2"/>
<path d="M492.58 155.36C489.929 154.707 487.867 153.419 486.392 151.496C484.917 149.573 484.18 147.221 484.18 144.44V139.4C484.18 137.571 484.516 135.919 485.188 134.444C485.879 132.951 486.849 131.691 488.1 130.664C489.369 129.637 490.863 128.909 492.58 128.48V130.86C491.385 131.14 490.349 131.681 489.472 132.484C488.595 133.268 487.913 134.248 487.428 135.424C486.943 136.6 486.7 137.925 486.7 139.4V144.44C486.7 145.877 486.933 147.184 487.4 148.36C487.885 149.536 488.567 150.516 489.444 151.3C490.34 152.065 491.385 152.588 492.58 152.868V155.36ZM499.009 155.36V152.868C500.222 152.588 501.268 152.065 502.145 151.3C503.022 150.516 503.694 149.536 504.161 148.36C504.646 147.184 504.889 145.877 504.889 144.44V139.4C504.889 137.925 504.646 136.6 504.161 135.424C503.676 134.248 502.994 133.268 502.117 132.484C501.24 131.681 500.204 131.14 499.009 130.86V128.48C500.745 128.909 502.238 129.637 503.489 130.664C504.74 131.691 505.701 132.951 506.373 134.444C507.064 135.919 507.409 137.571 507.409 139.4V144.44C507.409 147.221 506.672 149.573 505.197 151.496C503.722 153.419 501.66 154.707 499.009 155.36ZM517.338 156.48L519.578 147.772H523.218L519.578 156.48H517.338ZM520.698 140.52C520.082 140.52 519.578 140.324 519.186 139.932C518.794 139.54 518.598 139.036 518.598 138.42C518.598 137.823 518.794 137.328 519.186 136.936C519.597 136.525 520.101 136.32 520.698 136.32H521.258C521.855 136.32 522.35 136.525 522.742 136.936C523.153 137.328 523.358 137.823 523.358 138.42C523.358 139.036 523.162 139.54 522.77 139.932C522.378 140.324 521.874 140.52 521.258 140.52H520.698Z" fill="#9787F2"/>
</g>
<g filter="url(#filter0_f_10904_38131)">
<mask id="path-8-outside-1_10904_38131" maskUnits="userSpaceOnUse" x="190.431" y="189.094" width="232" height="284" fill="black">
<rect fill="white" x="190.431" y="189.094" width="232" height="284"/>
<path d="M403.29 200.094C407.721 200.094 411.304 203.677 411.305 208.108V441.336C411.304 445.767 407.721 449.35 403.29 449.351H397.668L397.683 453.807V453.813C397.683 458.237 394.108 461.847 389.668 461.847H209.445C205.014 461.846 201.431 458.263 201.431 453.832V220.604C201.431 216.174 205.014 212.59 209.445 212.59H215.067L215.053 208.134V208.127C215.053 203.704 218.628 200.094 223.067 200.094H403.29Z"/>
</mask>
<path d="M403.29 200.094C407.721 200.094 411.304 203.677 411.305 208.108V441.336C411.304 445.767 407.721 449.35 403.29 449.351H397.668L397.683 453.807V453.813C397.683 458.237 394.108 461.847 389.668 461.847H209.445C205.014 461.846 201.431 458.263 201.431 453.832V220.604C201.431 216.174 205.014 212.59 209.445 212.59H215.067L215.053 208.134V208.127C215.053 203.704 218.628 200.094 223.067 200.094H403.29Z" fill="#AEA0FF"/>
<path d="M403.29 200.094L403.291 189.421H403.29V200.094ZM411.305 208.108H421.977L421.977 208.107L411.305 208.108ZM411.305 441.336L421.977 441.337V441.336H411.305ZM403.29 449.351V460.023H403.291L403.29 449.351ZM397.668 449.351V438.678H386.96L386.996 449.386L397.668 449.351ZM397.683 453.807H408.355V453.789L408.355 453.772L397.683 453.807ZM397.683 453.813L408.355 453.813V453.813H397.683ZM389.668 461.847V472.519H389.668L389.668 461.847ZM209.445 461.847L209.444 472.519H209.445V461.847ZM201.431 453.832H190.758V453.833L201.431 453.832ZM201.431 220.604L190.758 220.603V220.604H201.431ZM209.445 212.59V201.918L209.444 201.918L209.445 212.59ZM215.067 212.59V223.262H225.775L225.74 212.555L215.067 212.59ZM215.053 208.134H204.38V208.151L204.38 208.169L215.053 208.134ZM215.053 208.127L204.38 208.127V208.127H215.053ZM223.067 200.094V189.421H223.067L223.067 200.094ZM403.29 200.094L403.289 210.766C401.826 210.766 400.632 209.571 400.632 208.109L411.305 208.108L421.977 208.107C421.976 197.783 413.616 189.422 403.291 189.421L403.29 200.094ZM411.305 208.108H400.632V441.336H411.305H421.977V208.108H411.305ZM411.305 441.336L400.632 441.335C400.632 439.873 401.826 438.678 403.289 438.678L403.29 449.351L403.291 460.023C413.616 460.022 421.976 451.661 421.977 441.337L411.305 441.336ZM403.29 449.351V438.678H397.668V449.351V460.023H403.29V449.351ZM397.668 449.351L386.996 449.386L387.01 453.842L397.683 453.807L408.355 453.772L408.34 449.316L397.668 449.351ZM397.683 453.807H387.01V453.813H397.683H408.355V453.807H397.683ZM397.683 453.813L387.01 453.813C387.01 452.389 388.167 451.174 389.668 451.174L389.668 461.847L389.668 472.519C400.049 472.519 408.355 464.084 408.355 453.813L397.683 453.813ZM389.668 461.847V451.174H209.445V461.847V472.519H389.668V461.847ZM209.445 461.847L209.446 451.174C210.908 451.174 212.103 452.368 212.103 453.831L201.431 453.832L190.758 453.833C190.759 464.158 199.12 472.518 209.444 472.519L209.445 461.847ZM201.431 453.832H212.103V220.604H201.431H190.758V453.832H201.431ZM201.431 220.604L212.103 220.606C212.103 222.068 210.909 223.262 209.446 223.262L209.445 212.59L209.444 201.918C199.12 201.919 190.76 210.279 190.758 220.603L201.431 220.604ZM209.445 212.59V223.262H215.067V212.59V201.918H209.445V212.59ZM215.067 212.59L225.74 212.555L225.725 208.099L215.053 208.134L204.38 208.169L204.395 212.625L215.067 212.59ZM215.053 208.134H225.725V208.127H215.053H204.38V208.134H215.053ZM215.053 208.127L225.725 208.127C225.725 209.552 224.568 210.766 223.068 210.766L223.067 200.094L223.067 189.421C212.687 189.422 204.381 197.856 204.38 208.127L215.053 208.127ZM223.067 200.094V210.766H403.29V200.094V189.421H223.067V200.094Z" fill="#AEA0FF" mask="url(#path-8-outside-1_10904_38131)"/>
</g>
<path d="M223.067 202.236H403.289C406.538 202.236 409.162 204.861 409.162 208.11V441.336C409.162 444.585 406.538 447.209 403.289 447.209H256.362L255.738 446.584L217.837 408.737V408.094L217.194 208.128C217.194 204.879 219.818 202.236 223.067 202.236Z" fill="#7C6BE4" stroke="#7C6BE4" stroke-width="4.28228" stroke-miterlimit="10"/>
<path d="M389.667 459.705H209.446C206.197 459.705 203.572 457.081 203.572 453.832V220.606C203.572 217.357 206.197 214.732 209.446 214.732H356.372L356.997 215.357L394.898 253.205V253.847L395.541 453.814C395.541 457.063 392.917 459.705 389.667 459.705Z" fill="#E4DFFF" stroke="#7C6BE4" stroke-width="4.28228" stroke-miterlimit="10"/>
<path d="M231.695 246.604H368.263" stroke="#7C6BE4" stroke-width="4.28228" stroke-miterlimit="10"/>
<path d="M231.695 276.021H368.263" stroke="#7C6BE4" stroke-width="4.28228" stroke-miterlimit="10"/>
<path d="M231.695 306.271H368.263" stroke="#7C6BE4" stroke-width="4.28228" stroke-miterlimit="10"/>
<path d="M231.695 335.018H368.263" stroke="#7C6BE4" stroke-width="4.28228" stroke-miterlimit="10"/>
<path d="M394.9 253.206V253.849H361.694C359.106 253.849 356.999 251.742 356.999 249.154V215.877C356.999 215.68 357.231 215.591 357.374 215.716L394.9 253.188V253.206Z" fill="#E4DFFF" stroke="#7C6BE4" stroke-width="4.28228" stroke-miterlimit="10"/>
<rect x="31" y="26.1172" width="130.023" height="59.1163" rx="29.5581" fill="#7C6BE4"/>
<path d="M64.3928 57.0541L62.6746 56.7366C60.4894 56.2884 58.6218 55.1678 58.6218 52.8145C58.6218 50.0878 61.5353 48.8925 64.0193 48.8925C66.8208 48.8925 69.1927 50.536 69.3421 53.132H66.7648C66.5593 51.5445 65.1772 51.0216 63.9072 51.0216C62.6559 51.0216 61.2925 51.4885 61.2925 52.7025C61.2925 53.655 62.0769 54.1779 63.1788 54.3834L64.9531 54.7009C67.157 55.1118 69.5849 55.9522 69.5849 58.7724C69.5849 61.5552 66.8208 62.9186 64.094 62.9186C60.7696 62.9186 58.5657 61.1256 58.3229 58.2121H60.9003C61.1991 60.2105 62.5812 60.7894 64.1874 60.7894C65.3827 60.7894 66.8955 60.3412 66.8955 58.9031C66.8955 57.7638 65.8309 57.2969 64.3928 57.0541ZM73.9061 49.1352V62.6758H71.2353V49.1352H73.9061ZM82.5055 48.8925C85.6992 48.8925 87.8283 50.7414 88.2765 53.2441H85.7365C85.307 51.75 83.9996 51.0216 82.4868 51.0216C80.2269 51.0216 78.6394 52.6091 78.6394 55.8401C78.6394 59.0712 80.1522 60.7894 82.4681 60.7894C83.9062 60.7894 85.8486 60.0611 85.8486 57.8946V57.6705H82.4681V55.4853H88.3139V62.6758H86.2034L86.1287 61.0883C85.363 62.2089 83.9809 62.9186 82.0572 62.9186C78.2472 62.9186 75.8753 60.1731 75.8753 55.8401C75.8753 51.6379 78.3593 48.8925 82.5055 48.8925ZM99.1206 62.6758H96.4686L93.1255 52.497V62.6758H90.6415V49.1352H94.5262L97.8133 59.6875L101.007 49.1352H104.929V62.6758H102.445V52.497L99.1206 62.6758ZM109.571 55.8962C109.571 59.0899 111.326 60.7894 113.437 60.7894C115.547 60.7894 117.303 59.0899 117.303 55.8962C117.303 52.7212 115.547 51.0216 113.437 51.0216C111.326 51.0216 109.571 52.7212 109.571 55.8962ZM120.067 55.8962C120.067 60.0984 117.471 62.9186 113.437 62.9186C109.403 62.9186 106.807 60.0984 106.807 55.8962C106.807 51.6939 109.403 48.8925 113.437 48.8925C117.471 48.8925 120.067 51.6939 120.067 55.8962ZM130.736 55.8962C130.736 51.8434 128.326 51.227 125.861 51.227H124.628V60.584H125.861C128.326 60.584 130.736 59.9864 130.736 55.8962ZM121.958 49.1352H125.973C130.269 49.1352 133.5 50.5173 133.5 55.8962C133.5 61.275 130.269 62.6758 125.973 62.6758H121.958V49.1352Z" fill="#E4DFFF"/>
<defs>
<filter id="filter0_f_10904_38131" x="169.414" y="168.077" width="273.908" height="325.787" filterUnits="userSpaceOnUse" color-interpolation-filters="sRGB">
<feFlood flood-opacity="0" result="BackgroundImageFix"/>
<feBlend mode="normal" in="SourceGraphic" in2="BackgroundImageFix" result="shape"/>
<feGaussianBlur stdDeviation="10.6723" result="effect1_foregroundBlur_10904_38131"/>
</filter>
<linearGradient id="paint0_linear_10904_38131" x1="307.753" y1="-32.2631" x2="302.079" y2="763.324" gradientUnits="userSpaceOnUse">
<stop stop-color="#9683FF"/>
<stop offset="0.938633" stop-color="#D4CDFF"/>
</linearGradient>
<linearGradient id="paint1_linear_10904_38131" x1="306.771" y1="-32.1602" x2="301.115" y2="760.889" gradientUnits="userSpaceOnUse">
<stop stop-color="#9683FF"/>
<stop offset="0.938633" stop-color="#D4CDFF"/>
</linearGradient>
<clipPath id="clip0_10904_38131">
<rect width="625" height="625" fill="white"/>
</clipPath>
</defs>
</svg>
