<svg width="627" height="627" viewBox="0 0 627 627" fill="none" xmlns="http://www.w3.org/2000/svg">
<rect width="627" height="627" fill="url(#paint0_linear_10531_21931)"/>
<g clip-path="url(#clip0_10531_21931)">
<rect width="625" height="625" fill="url(#paint1_linear_10531_21931)"/>
<path d="M291.625 236.801C292.207 236.218 292.207 235.274 291.625 234.691L282.133 225.199C281.55 224.617 280.606 224.617 280.023 225.199C279.441 225.782 279.441 226.726 280.023 227.309L288.461 235.746L280.023 244.183C279.441 244.766 279.441 245.71 280.023 246.293C280.606 246.875 281.55 246.875 282.133 246.293L291.625 236.801ZM290.57 235.746V234.255H120.614V235.746V237.238H290.57V235.746ZM55.8213 300.539H54.3298L54.3298 344.396H55.8214H57.3129L57.3129 300.539H55.8213ZM120.614 409.188V410.68H678.074V409.188V407.697H120.614V409.188ZM742.867 473.981H741.375V716.704H742.867H744.358V473.981H742.867ZM807.659 781.497V782.989H986.842V781.497V780.005H807.659V781.497ZM742.867 716.704H741.375C741.375 753.312 771.052 782.989 807.659 782.989V781.497V780.005C772.699 780.005 744.358 751.665 744.358 716.704H742.867ZM678.074 409.188V410.68C713.034 410.68 741.375 439.021 741.375 473.981H742.867H744.358C744.358 437.373 714.682 407.697 678.074 407.697V409.188ZM55.8214 344.396H54.3298C54.3299 381.004 84.0063 410.68 120.614 410.68V409.188V407.697C85.6538 407.697 57.3129 379.356 57.3129 344.396H55.8214ZM120.614 235.746V234.255C84.0063 234.255 54.3298 263.931 54.3298 300.539H55.8213H57.3129C57.3128 265.579 85.6538 237.238 120.614 237.238V235.746Z" fill="#9787F2"/>
<path d="M568.518 663.876L568.518 -5.86758C568.518 -41.6516 597.526 -70.6602 633.31 -70.6602L747.839 -70.6602C783.623 -70.6602 812.632 -41.6516 812.632 -5.86757L812.632 271.619C812.632 307.403 841.64 336.412 877.424 336.412L1413.99 336.412C1449.77 336.412 1478.78 365.421 1478.78 401.205L1478.78 533.781" stroke="#9787F2" stroke-width="2.98306"/>
<rect x="546.214" y="103.631" width="44.9324" height="89.7888" rx="22.4662" fill="#9787F2" stroke="#9787F2" stroke-width="1.91768"/>
<path d="M68.5008 -184.901C67.9183 -185.483 66.9739 -185.483 66.3915 -184.901L56.8995 -175.409C56.3169 -174.826 56.3169 -173.882 56.8995 -173.299C57.4819 -172.717 58.4263 -172.717 59.0088 -173.299L67.4462 -181.737L75.8835 -173.299C76.466 -172.717 77.4103 -172.717 77.9928 -173.299C78.5753 -173.882 78.5753 -174.826 77.9928 -175.409L68.5008 -184.901ZM-409.886 -220.295L-409.886 -218.803L-409.886 -220.295ZM-345.093 -155.502L-346.585 -155.502L-346.584 141.049L-345.093 141.049L-343.601 141.049L-343.602 -155.502L-345.093 -155.502ZM-280.3 205.841L-280.3 207.333L2.65344 207.333L2.65344 205.842L2.65344 204.35L-280.3 204.35L-280.3 205.841ZM67.4462 141.049L68.9377 141.049L68.9377 -183.846L67.4461 -183.846L65.9546 -183.846L65.9546 141.049L67.4462 141.049ZM-409.886 -220.295L-409.886 -221.786L-573.503 -221.786L-573.503 -220.295L-573.503 -218.803L-409.886 -218.803L-409.886 -220.295ZM2.65344 205.842L2.65344 207.333C39.2612 207.333 68.9377 177.657 68.9377 141.049L67.4462 141.049L65.9546 141.049C65.9546 176.009 37.6137 204.35 2.65344 204.35L2.65344 205.842ZM-345.093 141.049L-346.584 141.049C-346.584 177.656 -316.908 207.333 -280.3 207.333L-280.3 205.841L-280.3 204.35C-315.261 204.35 -343.601 176.009 -343.601 141.049L-345.093 141.049ZM-345.093 -155.502L-343.602 -155.502C-343.602 -192.11 -373.278 -221.786 -409.886 -221.786L-409.886 -220.295L-409.886 -218.803C-374.925 -218.803 -346.585 -190.462 -346.585 -155.502L-345.093 -155.502Z" fill="#9787F2"/>
<path d="M-115.631 1103.47L-115.631 888.657C-115.631 852.873 -86.6221 823.864 -50.8382 823.864L9.46977 823.864C45.2537 823.864 74.2623 794.855 74.2623 759.072L74.2623 570.674C74.2623 534.89 103.271 505.882 139.055 505.882L350.878 505.882C386.662 505.882 415.67 476.873 415.67 441.089L415.67 -60.8067C415.67 -96.5908 444.679 -125.6 480.463 -125.599L591.108 -125.599" stroke="#9787F2" stroke-width="2.98306"/>
<path d="M241.43 586.31C240.328 586.31 239.376 586.124 238.574 585.75C237.79 585.396 237.192 584.864 236.782 584.154C236.371 583.464 236.194 582.633 236.25 581.662L236.53 577.07C236.586 576.081 236.436 575.372 236.082 574.942C235.727 574.494 234.943 574.27 233.73 574.27H230.65V572.03H233.73C234.943 572.03 235.727 571.816 236.082 571.386C236.436 570.938 236.586 570.22 236.53 569.23L236.25 564.638C236.194 563.649 236.371 562.809 236.782 562.118C237.192 561.428 237.79 560.905 238.574 560.55C239.376 560.177 240.328 559.99 241.43 559.99H242.69V562.23H241.43C240.552 562.23 239.88 562.436 239.414 562.846C238.947 563.238 238.732 563.836 238.77 564.638L239.05 569.23C239.124 570.444 238.835 571.414 238.182 572.142C237.528 572.852 236.604 573.206 235.41 573.206V573.066C236.586 573.066 237.5 573.43 238.154 574.158C238.826 574.886 239.124 575.857 239.05 577.07L238.77 581.662C238.732 582.465 238.947 583.062 239.414 583.454C239.88 583.865 240.552 584.07 241.43 584.07H242.69V586.31H241.43ZM247.439 586.31V584.07H248.699C249.576 584.07 250.248 583.865 250.715 583.454C251.181 583.062 251.396 582.465 251.359 581.662L251.079 577.07C251.004 575.857 251.293 574.886 251.947 574.158C252.619 573.43 253.543 573.066 254.719 573.066V573.206C253.524 573.206 252.6 572.852 251.947 572.142C251.293 571.414 251.004 570.444 251.079 569.23L251.359 564.638C251.396 563.836 251.181 563.238 250.715 562.846C250.248 562.436 249.576 562.23 248.699 562.23H247.439V559.99H248.699C249.8 559.99 250.743 560.177 251.527 560.55C252.329 560.905 252.936 561.428 253.347 562.118C253.757 562.809 253.935 563.649 253.879 564.638L253.599 569.23C253.543 570.22 253.692 570.938 254.047 571.386C254.401 571.816 255.185 572.03 256.399 572.03H259.479V574.27H256.399C255.204 574.27 254.42 574.494 254.047 574.942C253.692 575.372 253.543 576.081 253.599 577.07L253.879 581.662C253.935 582.633 253.757 583.464 253.347 584.154C252.936 584.864 252.329 585.396 251.527 585.75C250.743 586.124 249.8 586.31 248.699 586.31H247.439Z" fill="#9787F2"/>
<path d="M125.58 116.36C122.929 115.707 120.867 114.419 119.392 112.496C117.917 110.573 117.18 108.221 117.18 105.44V100.4C117.18 98.5707 117.516 96.9187 118.188 95.444C118.879 93.9507 119.849 92.6907 121.1 91.664C122.369 90.6373 123.863 89.9093 125.58 89.48V91.86C124.385 92.14 123.349 92.6813 122.472 93.484C121.595 94.268 120.913 95.248 120.428 96.424C119.943 97.6 119.7 98.9253 119.7 100.4V105.44C119.7 106.877 119.933 108.184 120.4 109.36C120.885 110.536 121.567 111.516 122.444 112.3C123.34 113.065 124.385 113.588 125.58 113.868V116.36ZM132.009 116.36V113.868C133.222 113.588 134.268 113.065 135.145 112.3C136.022 111.516 136.694 110.536 137.161 109.36C137.646 108.184 137.889 106.877 137.889 105.44V100.4C137.889 98.9253 137.646 97.6 137.161 96.424C136.676 95.248 135.994 94.268 135.117 93.484C134.24 92.6813 133.204 92.14 132.009 91.86V89.48C133.745 89.9093 135.238 90.6373 136.489 91.664C137.74 92.6907 138.701 93.9507 139.373 95.444C140.064 96.9187 140.409 98.5707 140.409 100.4V105.44C140.409 108.221 139.672 110.573 138.197 112.496C136.722 114.419 134.66 115.707 132.009 116.36ZM150.338 117.48L152.578 108.772H156.218L152.578 117.48H150.338ZM153.698 101.52C153.082 101.52 152.578 101.324 152.186 100.932C151.794 100.54 151.598 100.036 151.598 99.42C151.598 98.8227 151.794 98.328 152.186 97.936C152.597 97.5253 153.101 97.32 153.698 97.32H154.258C154.855 97.32 155.35 97.5253 155.742 97.936C156.153 98.328 156.358 98.8227 156.358 99.42C156.358 100.036 156.162 100.54 155.77 100.932C155.378 101.324 154.874 101.52 154.258 101.52H153.698Z" fill="#9787F2"/>
</g>
<g opacity="0.7" filter="url(#filter0_f_10531_21931)">
<path d="M182.799 218.462C253.906 200.865 304.576 234.428 314.076 241.376C314.293 241.534 314.608 241.548 314.851 241.385C374.019 201.712 434.795 215.386 446.169 218.453C448.265 219.019 449.589 220.915 449.589 222.974V241.269C458.542 244.084 465.296 247.154 468.556 248.753C470.627 249.768 471.839 251.865 471.84 254.086V435.04C471.839 438.411 469.107 441.144 465.736 441.145H162.522C159.151 441.144 156.418 438.411 156.418 435.04V254.235C156.418 251.893 157.77 249.702 160.014 248.765C162.796 247.603 168.005 245.582 175.626 243.243C176.85 242.868 178.071 242.899 179.171 243.243V223.087C179.171 220.894 180.684 218.985 182.799 218.462Z" fill="#AEA0FF"/>
<path d="M182.799 218.462L180.888 210.741L180.888 210.741L182.799 218.462ZM314.076 241.376L318.771 234.956L318.771 234.956L314.076 241.376ZM314.851 241.385L319.274 247.996L319.281 247.991L314.851 241.385ZM446.169 218.453L448.24 210.774L448.239 210.774L446.169 218.453ZM449.589 222.974H457.542V222.974L449.589 222.974ZM449.589 241.269H441.635V247.105L447.203 248.856L449.589 241.269ZM468.556 248.753L472.058 241.612L472.058 241.612L468.556 248.753ZM471.84 254.086H479.793V254.085L471.84 254.086ZM471.84 435.04L479.793 435.04V435.04H471.84ZM465.736 441.145V449.098H465.736L465.736 441.145ZM162.522 441.145L162.522 449.098H162.522V441.145ZM156.418 435.04H148.464V435.04L156.418 435.04ZM160.014 248.765L156.949 241.426L156.948 241.426L160.014 248.765ZM175.626 243.243L173.294 235.639L173.293 235.64L175.626 243.243ZM179.171 243.243L176.795 250.834L187.124 254.066V243.243H179.171ZM179.171 223.087L171.217 223.087V223.087H179.171ZM182.799 218.462L184.709 226.183C252.461 209.416 300.663 241.419 309.38 247.796L314.076 241.376L318.771 234.956C308.49 227.436 255.352 192.314 180.888 210.741L182.799 218.462ZM314.076 241.376L309.38 247.795C312.304 249.934 316.263 250.01 319.274 247.995L314.851 241.385L310.429 234.774C312.953 233.085 316.281 233.135 318.771 234.956L314.076 241.376ZM314.851 241.385L319.281 247.991C375.565 210.251 433.483 223.27 444.098 226.132L446.169 218.453L448.239 210.774C436.106 207.502 372.472 193.173 310.422 234.779L314.851 241.385ZM446.169 218.453L444.097 226.132C442.505 225.702 441.635 224.279 441.635 222.974L449.589 222.974L457.542 222.974C457.542 217.552 454.025 212.335 448.24 210.774L446.169 218.453ZM449.589 222.974H441.635V241.269H449.589H457.542V222.974H449.589ZM449.589 241.269L447.203 248.856C455.687 251.523 462.062 254.427 465.055 255.894L468.556 248.753L472.058 241.612C468.53 239.881 461.397 236.644 451.974 233.681L449.589 241.269ZM468.556 248.753L465.054 255.894C464.252 255.5 463.886 254.732 463.886 254.087L471.84 254.086L479.793 254.085C479.792 248.999 477.001 244.036 472.058 241.612L468.556 248.753ZM471.84 254.086H463.886V435.04H471.84H479.793V254.086H471.84ZM471.84 435.04L463.886 435.04C463.886 434.02 464.713 433.191 465.736 433.191L465.736 441.145L465.736 449.098C473.501 449.098 479.793 442.802 479.793 435.04L471.84 435.04ZM465.736 441.145V433.191H162.522V441.145V449.098H465.736V441.145ZM162.522 441.145L162.522 433.191C163.544 433.191 164.371 434.019 164.371 435.04L156.418 435.04L148.464 435.04C148.464 442.804 154.758 449.098 162.522 449.098L162.522 441.145ZM156.418 435.04H164.371V254.235H156.418H148.464V435.04H156.418ZM156.418 254.235H164.371C164.371 254.921 163.959 255.736 163.081 256.103L160.014 248.765L156.948 241.426C151.582 243.668 148.464 248.864 148.464 254.235H156.418ZM160.014 248.765L163.08 256.104C165.631 255.038 170.595 253.106 177.959 250.847L175.626 243.243L173.293 235.64C165.414 238.057 159.962 240.167 156.949 241.426L160.014 248.765ZM175.626 243.243L177.958 250.847C177.608 250.954 177.188 250.956 176.795 250.834L179.171 243.243L181.546 235.653C178.954 234.842 176.092 234.781 173.294 235.639L175.626 243.243ZM179.171 243.243H187.124V223.087H179.171H171.217V243.243H179.171ZM179.171 223.087L187.124 223.087C187.124 224.585 186.111 225.836 184.709 226.183L182.799 218.462L180.888 210.741C175.258 212.135 171.217 217.203 171.217 223.087L179.171 223.087Z" fill="#AEA0FF"/>
</g>
<path d="M469.815 250.359C471.119 250.998 471.907 252.33 471.907 253.782V435.741C471.907 437.937 470.127 439.717 467.93 439.717H163.047C160.85 439.717 159.07 437.937 159.07 435.741V253.93C159.07 252.4 159.948 251.013 161.36 250.423C164.095 249.28 169.277 247.267 176.895 244.93C179.418 244.156 181.946 246.063 181.946 248.702V405.01C181.946 407.471 184.158 409.375 186.604 409.103C202.862 407.296 259.112 403.807 314.515 432.931C315.83 433.623 317.419 433.567 318.696 432.807C328.404 427.021 372.578 403.646 445.198 408.63C447.519 408.789 449.536 406.965 449.536 404.638V243.515C449.536 243.008 450.005 242.612 450.486 242.773C459.645 245.612 466.547 248.756 469.815 250.359Z" fill="#7C6BE4" stroke="#7C6BE4" stroke-width="4.25512" stroke-miterlimit="10"/>
<path d="M183.955 220.057C182.783 220.347 181.945 221.41 181.945 222.617V406.58C181.945 408.221 183.42 409.487 185.048 409.287C198.99 407.574 257.662 402.752 315.23 433.311C316.105 433.775 317.163 433.74 318.008 433.223C326.177 428.225 371.251 403.2 446.636 408.734C448.183 408.847 449.536 407.631 449.536 406.08V222.504C449.536 221.35 448.802 220.337 447.688 220.037C436.482 217.014 376.126 203.422 317.397 242.807C316.421 243.461 315.129 243.443 314.18 242.748C304.861 235.93 254.569 202.577 183.955 220.057Z" fill="#E4DFFF" stroke="#7C6BE4" stroke-width="4.25512" stroke-miterlimit="10"/>
<path d="M315.741 243.934V434.079" stroke="#7C6BE4" stroke-width="4.25512" stroke-miterlimit="10"/>
<path d="M206.87 265.456C206.87 265.456 254.714 259.206 297.942 280.404L206.87 265.456Z" fill="#E4DFFF"/>
<path d="M206.87 265.456C206.87 265.456 254.714 259.206 297.942 280.404" stroke="#7C6BE4" stroke-width="4.25512" stroke-miterlimit="10" stroke-linecap="round"/>
<path d="M206.87 294.387C206.87 294.387 254.714 288.138 297.942 309.336L206.87 294.387Z" fill="#E4DFFF"/>
<path d="M206.87 294.387C206.87 294.387 254.714 288.138 297.942 309.336" stroke="#7C6BE4" stroke-width="4.25512" stroke-miterlimit="10" stroke-linecap="round"/>
<path d="M206.87 323.336C206.87 323.336 254.714 317.087 297.942 338.285L206.87 323.336Z" fill="#E4DFFF"/>
<path d="M206.87 323.336C206.87 323.336 254.714 317.087 297.942 338.285" stroke="#7C6BE4" stroke-width="4.25512" stroke-miterlimit="10" stroke-linecap="round"/>
<path d="M206.87 352.268C206.87 352.268 254.714 346.018 297.942 367.217L206.87 352.268Z" fill="#E4DFFF"/>
<path d="M206.87 352.268C206.87 352.268 254.714 346.018 297.942 367.217" stroke="#7C6BE4" stroke-width="4.25512" stroke-miterlimit="10" stroke-linecap="round"/>
<path d="M422.904 265.456C422.904 265.456 375.059 259.206 331.832 280.404L422.904 265.456Z" fill="#E4DFFF"/>
<path d="M422.904 265.456C422.904 265.456 375.059 259.206 331.832 280.404" stroke="#7C6BE4" stroke-width="4.25512" stroke-miterlimit="10" stroke-linecap="round"/>
<path d="M422.904 294.387C422.904 294.387 375.059 288.138 331.832 309.336L422.904 294.387Z" fill="#E4DFFF"/>
<path d="M422.904 294.387C422.904 294.387 375.059 288.138 331.832 309.336" stroke="#7C6BE4" stroke-width="4.25512" stroke-miterlimit="10" stroke-linecap="round"/>
<path d="M422.904 323.336C422.904 323.336 375.059 317.087 331.832 338.285L422.904 323.336Z" fill="#E4DFFF"/>
<path d="M422.904 323.336C422.904 323.336 375.059 317.087 331.832 338.285" stroke="#7C6BE4" stroke-width="4.25512" stroke-miterlimit="10" stroke-linecap="round"/>
<path d="M422.904 352.268C422.904 352.268 375.059 346.018 331.832 367.217L422.904 352.268Z" fill="#E4DFFF"/>
<path d="M422.904 352.268C422.904 352.268 375.059 346.018 331.832 367.217" stroke="#7C6BE4" stroke-width="4.25512" stroke-miterlimit="10" stroke-linecap="round"/>
<rect x="30.6514" y="26.6172" width="396.023" height="58.1163" rx="29.0581" fill="#7C6BE4"/>
<path d="M63.9215 56.5898L62.2142 56.2743C60.0429 55.8289 58.1871 54.7154 58.1871 52.3771C58.1871 49.6676 61.0821 48.4799 63.5504 48.4799C66.3341 48.4799 68.691 50.113 68.8394 52.6926H66.2784C66.0743 51.1151 64.701 50.5955 63.439 50.5955C62.1956 50.5955 60.8409 51.0595 60.8409 52.2657C60.8409 53.2122 61.6203 53.7318 62.7153 53.936L64.4783 54.2515C66.6681 54.6597 69.0807 55.4949 69.0807 58.2971C69.0807 61.0623 66.3341 62.417 63.6246 62.417C60.3213 62.417 58.1314 60.6355 57.8901 57.7404H60.4512C60.7481 59.7261 62.1214 60.3014 63.7174 60.3014C64.9051 60.3014 66.4083 59.856 66.4083 58.427C66.4083 57.295 65.3505 56.831 63.9215 56.5898ZM75.4715 60.4499C76.8077 60.4499 77.7542 59.1508 77.7542 57.2022C77.7542 55.2536 76.8077 53.936 75.4715 53.936C74.0611 53.936 73.1332 55.1794 73.1332 57.1836C73.1332 59.2436 74.0611 60.4499 75.4715 60.4499ZM73.226 65.4235H70.665V52.1915H73.226V53.472C73.7642 52.5255 74.8405 51.9688 76.1025 51.9688C78.5151 51.9688 80.4451 54.0473 80.4451 57.1836C80.4451 60.3756 78.4594 62.417 76.0839 62.417C75.0447 62.417 73.8755 62.0273 73.226 60.9138V65.4235ZM88.2456 58.3528V57.6105C85.3691 57.9074 84.2371 58.2415 84.2371 59.3549C84.2371 60.0787 84.7938 60.6726 85.963 60.6726C87.5775 60.6726 88.2456 59.8189 88.2456 58.3528ZM88.4683 60.9324C87.7445 61.9716 86.7053 62.417 85.2021 62.417C83.2906 62.417 81.6018 61.3035 81.6018 59.4849C81.6018 57.128 84.2371 56.4228 88.1714 55.9774V55.8103C88.1714 54.27 87.3363 53.7318 86.297 53.7318C85.3134 53.7318 84.4969 54.2329 84.4412 55.3464H82.0472C82.2513 53.3792 83.8473 51.9317 86.4269 51.9317C88.7838 51.9317 90.7324 52.9709 90.7324 56.33C90.7324 56.6269 90.6953 57.9816 90.6953 58.8724C90.6953 60.4499 90.7881 61.3407 90.9922 62.1758H88.6353C88.5611 61.8603 88.524 61.4335 88.4683 60.9324ZM93.2185 52.1915V49.482H95.7795V52.1915H97.858V53.9545H95.7795V59.1137C95.7795 60.1344 96.1321 60.3385 97.0414 60.3385H97.8209V62.1758H95.9465C93.6453 62.1758 93.2185 61.4706 93.2185 59.4849V53.9545H91.808V52.1915H93.2185ZM99.4989 52.1915H102.06V62.1758H99.4989V52.1915ZM99.4989 48.7211H102.06V51.0966H99.4989V48.7211ZM110.591 58.3528V57.6105C107.715 57.9074 106.583 58.2415 106.583 59.3549C106.583 60.0787 107.14 60.6726 108.309 60.6726C109.923 60.6726 110.591 59.8189 110.591 58.3528ZM110.814 60.9324C110.09 61.9716 109.051 62.417 107.548 62.417C105.636 62.417 103.948 61.3035 103.948 59.4849C103.948 57.128 106.583 56.4228 110.517 55.9774V55.8103C110.517 54.27 109.682 53.7318 108.643 53.7318C107.659 53.7318 106.843 54.2329 106.787 55.3464H104.393C104.597 53.3792 106.193 51.9317 108.773 51.9317C111.13 51.9317 113.078 52.9709 113.078 56.33C113.078 56.6269 113.041 57.9816 113.041 58.8724C113.041 60.4499 113.134 61.3407 113.338 62.1758H110.981C110.907 61.8603 110.87 61.4335 110.814 60.9324ZM117.773 48.7211V62.1758H115.212V48.7211H117.773ZM133.386 62.1758H130.825V60.9138C130.175 62.0273 128.988 62.417 127.948 62.417C125.573 62.417 123.606 60.3756 123.606 57.1836C123.606 54.0473 125.536 51.9688 127.948 51.9688C129.21 51.9688 130.287 52.5255 130.825 53.472V48.7211H133.386V62.1758ZM128.579 60.4499C129.99 60.4499 130.918 59.2436 130.918 57.1836C130.918 55.1794 129.99 53.936 128.579 53.936C127.243 53.936 126.297 55.2536 126.297 57.2022C126.297 59.1508 127.243 60.4499 128.579 60.4499ZM141.926 58.3528V57.6105C139.05 57.9074 137.918 58.2415 137.918 59.3549C137.918 60.0787 138.475 60.6726 139.644 60.6726C141.258 60.6726 141.926 59.8189 141.926 58.3528ZM142.149 60.9324C141.425 61.9716 140.386 62.417 138.883 62.417C136.971 62.417 135.283 61.3035 135.283 59.4849C135.283 57.128 137.918 56.4228 141.852 55.9774V55.8103C141.852 54.27 141.017 53.7318 139.978 53.7318C138.994 53.7318 138.178 54.2329 138.122 55.3464H135.728C135.932 53.3792 137.528 51.9317 140.108 51.9317C142.465 51.9317 144.413 52.9709 144.413 56.33C144.413 56.6269 144.376 57.9816 144.376 58.8724C144.376 60.4499 144.469 61.3407 144.673 62.1758H142.316C142.242 61.8603 142.205 61.4335 142.149 60.9324ZM146.899 52.1915V49.482H149.46V52.1915H151.539V53.9545H149.46V59.1137C149.46 60.1344 149.813 60.3385 150.722 60.3385H151.502V62.1758H149.627C147.326 62.1758 146.899 61.4706 146.899 59.4849V53.9545H145.489V52.1915H146.899ZM159.415 58.3528V57.6105C156.539 57.9074 155.407 58.2415 155.407 59.3549C155.407 60.0787 155.964 60.6726 157.133 60.6726C158.747 60.6726 159.415 59.8189 159.415 58.3528ZM159.638 60.9324C158.914 61.9716 157.875 62.417 156.372 62.417C154.46 62.417 152.772 61.3035 152.772 59.4849C152.772 57.128 155.407 56.4228 159.341 55.9774V55.8103C159.341 54.27 158.506 53.7318 157.467 53.7318C156.483 53.7318 155.667 54.2329 155.611 55.3464H153.217C153.421 53.3792 155.017 51.9317 157.597 51.9317C159.954 51.9317 161.902 52.9709 161.902 56.33C161.902 56.6269 161.865 57.9816 161.865 58.8724C161.865 60.4499 161.958 61.3407 162.162 62.1758H159.805C159.731 61.8603 159.694 61.4335 159.638 60.9324ZM180.508 62.1758V56.3671C180.508 55.2722 180.415 54.0288 178.912 54.0288C177.204 54.0288 176.926 55.4577 176.926 56.9795V62.1758H174.365V56.3671C174.365 55.2722 174.272 54.0288 172.769 54.0288C171.061 54.0288 170.783 55.4577 170.783 56.9795V62.1758H168.222V52.1915H170.783V53.5091C171.358 52.5255 172.361 51.9688 173.567 51.9688C175.256 51.9688 176.016 52.8782 176.406 53.6019C177.204 52.4884 178.188 51.9688 179.691 51.9688C182.196 51.9688 183.069 53.5277 183.069 55.8846V62.1758H180.508ZM191.457 58.3528V57.6105C188.581 57.9074 187.449 58.2415 187.449 59.3549C187.449 60.0787 188.005 60.6726 189.174 60.6726C190.789 60.6726 191.457 59.8189 191.457 58.3528ZM191.68 60.9324C190.956 61.9716 189.917 62.417 188.414 62.417C186.502 62.417 184.813 61.3035 184.813 59.4849C184.813 57.128 187.449 56.4228 191.383 55.9774V55.8103C191.383 54.27 190.548 53.7318 189.509 53.7318C188.525 53.7318 187.708 54.2329 187.653 55.3464H185.259C185.463 53.3792 187.059 51.9317 189.638 51.9317C191.995 51.9317 193.944 52.9709 193.944 56.33C193.944 56.6269 193.907 57.9816 193.907 58.8724C193.907 60.4499 194 61.3407 194.204 62.1758H191.847C191.773 61.8603 191.736 61.4335 191.68 60.9324ZM198.638 52.1915V53.5091C199.214 52.4884 200.29 51.9688 201.533 51.9688C203.927 51.9688 204.985 53.4163 204.985 55.8846V62.1758H202.424V56.4413C202.424 55.1608 202.146 54.0288 200.698 54.0288C199.01 54.0288 198.638 55.4021 198.638 56.9795V62.1758H196.077V52.1915H198.638ZM213.368 58.3528V57.6105C210.492 57.9074 209.36 58.2415 209.36 59.3549C209.36 60.0787 209.916 60.6726 211.085 60.6726C212.7 60.6726 213.368 59.8189 213.368 58.3528ZM213.591 60.9324C212.867 61.9716 211.828 62.417 210.325 62.417C208.413 62.417 206.724 61.3035 206.724 59.4849C206.724 57.128 209.36 56.4228 213.294 55.9774V55.8103C213.294 54.27 212.459 53.7318 211.419 53.7318C210.436 53.7318 209.619 54.2329 209.564 55.3464H207.17C207.374 53.3792 208.97 51.9317 211.549 51.9317C213.906 51.9317 215.855 52.9709 215.855 56.33C215.855 56.6269 215.818 57.9816 215.818 58.8724C215.818 60.4499 215.911 61.3407 216.115 62.1758H213.758C213.684 61.8603 213.646 61.4335 213.591 60.9324ZM222.331 59.8746C223.76 59.8746 224.632 58.6683 224.632 56.8867C224.632 55.1237 223.76 53.9174 222.331 53.9174C221.013 53.9174 220.03 55.235 220.03 56.9053C220.03 58.5569 221.013 59.8746 222.331 59.8746ZM224.539 52.1915H227.082V61.1736C227.082 64.4399 225.245 65.6647 222.182 65.6647C220.048 65.6647 218.174 64.8853 217.821 62.5655H220.252C220.475 63.3821 221.162 63.7903 222.312 63.7903C223.649 63.7903 224.539 63.1594 224.539 61.6562V60.32C223.89 61.4149 222.721 61.8232 221.681 61.8232C219.232 61.8232 217.339 59.8003 217.339 56.8867C217.339 54.0473 219.176 51.9688 221.681 51.9688C222.943 51.9688 224.094 52.6183 224.539 53.4906V52.1915ZM238.666 57.8889H231.299C231.447 59.5962 232.598 60.4313 233.823 60.4313C234.621 60.4313 235.4 60.1529 235.92 59.2807H238.555C238.017 60.7654 236.569 62.417 233.841 62.417C230.631 62.417 228.756 60.023 228.756 57.1465C228.756 54.1772 230.816 51.9688 233.767 51.9688C236.848 51.9688 238.759 54.3628 238.666 57.8889ZM233.749 53.8432C232.784 53.8432 231.54 54.437 231.336 56.1258H236.068C236.013 54.437 234.825 53.8432 233.749 53.8432ZM252.602 62.1758V56.3671C252.602 55.2722 252.509 54.0288 251.006 54.0288C249.298 54.0288 249.02 55.4577 249.02 56.9795V62.1758H246.459V56.3671C246.459 55.2722 246.366 54.0288 244.863 54.0288C243.155 54.0288 242.877 55.4577 242.877 56.9795V62.1758H240.316V52.1915H242.877V53.5091C243.452 52.5255 244.455 51.9688 245.661 51.9688C247.35 51.9688 248.111 52.8782 248.5 53.6019C249.298 52.4884 250.282 51.9688 251.785 51.9688C254.29 51.9688 255.163 53.5277 255.163 55.8846V62.1758H252.602ZM266.576 57.8889H259.209C259.357 59.5962 260.508 60.4313 261.732 60.4313C262.53 60.4313 263.31 60.1529 263.83 59.2807H266.465C265.927 60.7654 264.479 62.417 261.751 62.417C258.54 62.417 256.666 60.023 256.666 57.1465C256.666 54.1772 258.726 51.9688 261.677 51.9688C264.757 51.9688 266.669 54.3628 266.576 57.8889ZM261.658 53.8432C260.693 53.8432 259.45 54.437 259.246 56.1258H263.978C263.922 54.437 262.735 53.8432 261.658 53.8432ZM270.787 52.1915V53.5091C271.362 52.4884 272.438 51.9688 273.682 51.9688C276.076 51.9688 277.134 53.4163 277.134 55.8846V62.1758H274.573V56.4413C274.573 55.1608 274.294 54.0288 272.847 54.0288C271.158 54.0288 270.787 55.4021 270.787 56.9795V62.1758H268.226V52.1915H270.787ZM279.634 52.1915V49.482H282.195V52.1915H284.273V53.9545H282.195V59.1137C282.195 60.1344 282.547 60.3385 283.457 60.3385H284.236V62.1758H282.362C280.06 62.1758 279.634 61.4706 279.634 59.4849V53.9545H278.223V52.1915H279.634ZM292.829 59.0951L294.387 52.1915H297.115L298.693 59.0766L300.029 52.1915H302.572L300.215 62.1758H297.579L295.761 54.6041L293.923 62.1758H291.288L288.95 52.1915H291.492L292.829 59.0951ZM303.729 52.1915H306.29V62.1758H303.729V52.1915ZM303.729 48.7211H306.29V51.0966H303.729V48.7211ZM308.939 52.1915V49.482H311.5V52.1915H313.578V53.9545H311.5V59.1137C311.5 60.1344 311.852 60.3385 312.762 60.3385H313.541V62.1758H311.667C309.366 62.1758 308.939 61.4706 308.939 59.4849V53.9545H307.528V52.1915H308.939ZM317.78 48.7211V53.5091C318.356 52.4884 319.432 51.9688 320.675 51.9688C323.069 51.9688 324.127 53.4163 324.127 55.8846V62.1758H321.566V56.4413C321.566 55.1608 321.288 54.0288 319.84 54.0288C318.151 54.0288 317.78 55.4021 317.78 56.9795V62.1758H315.219V48.7211H317.78ZM339.239 55.4392C339.239 51.4121 336.845 50.7996 334.395 50.7996H333.17V60.0973H334.395C336.845 60.0973 339.239 59.5034 339.239 55.4392ZM330.516 48.7211H334.506C338.775 48.7211 341.985 50.0944 341.985 55.4392C341.985 60.7839 338.775 62.1758 334.506 62.1758H330.516V48.7211ZM349.725 62.1758V60.8582C349.149 61.8789 348.055 62.417 346.811 62.417C344.417 62.417 343.452 60.9509 343.452 58.5013V52.1915H346.013V57.9445C346.013 59.2807 346.217 60.3571 347.646 60.3571C349.354 60.3571 349.725 58.9652 349.725 57.3878V52.1915H352.286V62.1758H349.725ZM358.944 51.9688C361.041 51.9688 363.119 53.138 363.472 55.6062H361.022C360.818 54.6412 359.927 53.9545 358.944 53.9545C357.608 53.9545 356.55 55.0866 356.55 57.1651C356.55 59.2622 357.552 60.4313 358.962 60.4313C359.853 60.4313 360.763 59.9674 361.115 58.7796H363.565C362.971 61.5077 360.911 62.417 358.833 62.417C355.845 62.417 353.933 60.2272 353.933 57.2022C353.933 54.1587 355.956 51.9688 358.944 51.9688ZM365.094 48.7211H367.655V56.2001L371.293 52.1915H374.169L370.587 56.0145L374.373 62.1758H371.497L368.88 57.8517L367.655 59.1694V62.1758H365.094V48.7211ZM384.166 55.4392C384.166 51.4121 381.772 50.7996 379.322 50.7996H378.098V60.0973H379.322C381.772 60.0973 384.166 59.5034 384.166 55.4392ZM375.444 48.7211H379.434C383.702 48.7211 386.913 50.0944 386.913 55.4392C386.913 60.7839 383.702 62.1758 379.434 62.1758H375.444V48.7211ZM388.783 62.1758V48.7211H394.016C396.373 48.7211 398.915 49.4635 398.915 52.2286C398.915 53.4906 398.08 54.6226 397.393 55.068C398.433 55.5691 399.398 56.3485 399.398 58.2043C399.398 61.0994 397.004 62.1758 394.239 62.1758H388.783ZM391.436 56.2743V60.0973H394.369C395.927 60.0973 396.688 59.4477 396.688 58.2043C396.688 56.9424 395.909 56.2743 394.257 56.2743H391.436ZM391.436 50.7996V54.27H394.183C395.445 54.27 396.187 53.6762 396.187 52.4884C396.187 51.4306 395.426 50.7996 394.183 50.7996H391.436Z" fill="#E4DFFF"/>
<defs>
<filter id="filter0_f_10531_21931" x="127.255" y="184.252" width="373.747" height="286.055" filterUnits="userSpaceOnUse" color-interpolation-filters="sRGB">
<feFlood flood-opacity="0" result="BackgroundImageFix"/>
<feBlend mode="normal" in="SourceGraphic" in2="BackgroundImageFix" result="shape"/>
<feGaussianBlur stdDeviation="10.6047" result="effect1_foregroundBlur_10531_21931"/>
</filter>
<linearGradient id="paint0_linear_10531_21931" x1="307.753" y1="-32.2631" x2="302.079" y2="763.324" gradientUnits="userSpaceOnUse">
<stop stop-color="#9683FF"/>
<stop offset="0.938633" stop-color="#D4CDFF"/>
</linearGradient>
<linearGradient id="paint1_linear_10531_21931" x1="306.771" y1="-32.1602" x2="301.115" y2="760.889" gradientUnits="userSpaceOnUse">
<stop stop-color="#9683FF"/>
<stop offset="0.938633" stop-color="#D4CDFF"/>
</linearGradient>
<clipPath id="clip0_10531_21931">
<rect width="625" height="625" fill="white"/>
</clipPath>
</defs>
</svg>
