<svg width="627" height="627" viewBox="0 0 627 627" fill="none" xmlns="http://www.w3.org/2000/svg">
<rect width="627" height="627" fill="url(#paint0_linear_10531_22051)"/>
<g clip-path="url(#clip0_10531_22051)">
<rect width="625" height="625" fill="url(#paint1_linear_10531_22051)"/>
<path d="M360.405 569.236C360.987 568.654 360.987 567.709 360.405 567.127L350.913 557.635C350.33 557.052 349.386 557.052 348.803 557.635C348.221 558.217 348.221 559.162 348.803 559.744L357.241 568.182L348.803 576.619C348.221 577.201 348.221 578.146 348.803 578.728C349.386 579.311 350.33 579.311 350.913 578.728L360.405 569.236ZM359.35 568.182L359.35 566.69L-115.63 566.69L-115.63 568.182L-115.63 569.673L359.35 569.673L359.35 568.182Z" fill="#9787F2"/>
<path d="M444.137 256.124C443.554 255.542 442.61 255.542 442.027 256.124L432.535 265.616C431.953 266.199 431.953 267.143 432.535 267.725C433.118 268.308 434.062 268.308 434.645 267.725L443.082 259.288L451.519 267.725C452.102 268.308 453.046 268.308 453.629 267.725C454.211 267.143 454.211 266.199 453.629 265.616L444.137 256.124ZM153.801 435.608L155.292 435.608L153.801 435.608ZM153.801 363.339L152.309 363.339L152.309 435.608L153.801 435.608L155.292 435.608L155.292 363.339L153.801 363.339ZM218.594 500.4L218.594 501.892L378.289 501.892L378.289 500.4L378.289 498.909L218.594 498.909L218.594 500.4ZM443.082 435.608L444.573 435.608L444.573 257.179L443.082 257.179L441.59 257.179L441.59 435.608L443.082 435.608ZM89.008 298.546L89.008 297.055L-47.8477 297.055L-47.8477 298.546L-47.8477 300.038L89.008 300.038L89.008 298.546ZM378.289 500.4L378.289 501.892C414.897 501.892 444.573 472.215 444.573 435.608L443.082 435.608L441.59 435.608C441.59 470.568 413.249 498.909 378.289 498.909L378.289 500.4ZM153.801 435.608L152.309 435.608C152.31 472.215 181.986 501.892 218.594 501.892L218.594 500.4L218.594 498.909C183.633 498.909 155.293 470.568 155.292 435.608L153.801 435.608ZM153.801 363.339L155.292 363.339C155.292 326.731 125.616 297.055 89.008 297.055L89.008 298.546L89.008 300.038C123.968 300.038 152.309 328.379 152.309 363.339L153.801 363.339Z" fill="#9787F2"/>
<path d="M613.756 -184.901C613.174 -185.484 612.23 -185.484 611.647 -184.901L602.155 -175.409C601.573 -174.827 601.573 -173.882 602.155 -173.3C602.738 -172.717 603.682 -172.717 604.264 -173.3L612.702 -181.737L621.139 -173.3C621.722 -172.717 622.666 -172.717 623.248 -173.3C623.831 -173.882 623.831 -174.827 623.248 -175.409L613.756 -184.901ZM200.163 -155.502L198.671 -155.502L200.163 -155.502ZM135.37 -220.295L135.37 -218.804L135.37 -220.295ZM200.163 -155.502L198.671 -155.502L198.671 -4.98442L200.163 -4.98442L201.654 -4.98442L201.654 -155.502L200.163 -155.502ZM264.955 59.8082L264.955 61.2997L547.909 61.3L547.909 59.8085L547.909 58.317L264.955 58.3167L264.955 59.8082ZM612.702 -4.98419L614.193 -4.98419L614.193 -183.846L612.702 -183.846L611.21 -183.846L611.21 -4.98419L612.702 -4.98419ZM135.37 -220.295L135.37 -221.787L-28.2473 -221.787L-28.2473 -220.295L-28.2473 -218.804L135.37 -218.804L135.37 -220.295ZM547.909 59.8085L547.909 61.3C584.517 61.3001 614.193 31.6236 614.193 -4.98419L612.702 -4.98419L611.21 -4.98419C611.21 29.9761 582.869 58.317 547.909 58.317L547.909 59.8085ZM200.163 -4.98442L198.671 -4.98442C198.671 31.6233 228.348 61.2997 264.955 61.2997L264.955 59.8082L264.955 58.3167C229.995 58.3166 201.654 29.9758 201.654 -4.98442L200.163 -4.98442ZM200.163 -155.502L201.654 -155.502C201.654 -192.11 171.978 -221.787 135.37 -221.787L135.37 -220.295L135.37 -218.804C170.33 -218.804 198.671 -190.463 198.671 -155.502L200.163 -155.502Z" fill="#9787F2"/>
<path d="M383.772 1103.47L383.772 888.655C383.772 852.871 412.78 823.862 448.564 823.862L459.867 823.862C495.651 823.862 524.659 794.854 524.659 759.07L524.659 529.802C524.659 494.018 553.668 465.01 589.452 465.01L850.28 465.01C886.064 465.01 915.073 436.001 915.073 400.217L915.072 -60.8087C915.072 -96.5928 944.081 -125.601 979.865 -125.601L1090.51 -125.601" stroke="#9787F2" stroke-width="2.98306"/>
<rect x="32.8565" y="581.178" width="26.9898" height="55.8973" rx="13.4949" transform="rotate(-90 32.8565 581.178)" fill="#9787F2" stroke="#9787F2" stroke-width="1.91768"/>
<path d="M74.3852 181.885C71.7345 181.232 69.6718 179.944 68.1972 178.021C66.7225 176.099 65.9852 173.747 65.9852 170.965V165.925C65.9852 164.096 66.3212 162.444 66.9932 160.969C67.6838 159.476 68.6545 158.216 69.9052 157.189C71.1745 156.163 72.6678 155.435 74.3852 155.005V157.385C73.1905 157.665 72.1545 158.207 71.2772 159.009C70.3998 159.793 69.7185 160.773 69.2332 161.949C68.7478 163.125 68.5052 164.451 68.5052 165.925V170.965C68.5052 172.403 68.7385 173.709 69.2052 174.885C69.6905 176.061 70.3718 177.041 71.2492 177.825C72.1452 178.591 73.1905 179.113 74.3852 179.393V181.885ZM80.8142 181.885V179.393C82.0276 179.113 83.0729 178.591 83.9502 177.825C84.8276 177.041 85.4996 176.061 85.9662 174.885C86.4516 173.709 86.6942 172.403 86.6942 170.965V165.925C86.6942 164.451 86.4516 163.125 85.9662 161.949C85.4809 160.773 84.7996 159.793 83.9222 159.009C83.0449 158.207 82.0089 157.665 80.8142 157.385V155.005C82.5502 155.435 84.0436 156.163 85.2942 157.189C86.5449 158.216 87.5062 159.476 88.1782 160.969C88.8689 162.444 89.2142 164.096 89.2142 165.925V170.965C89.2142 173.747 88.4769 176.099 87.0022 178.021C85.5276 179.944 83.4649 181.232 80.8142 181.885ZM99.1433 183.005L101.383 174.297H105.023L101.383 183.005H99.1433ZM102.503 167.045C101.887 167.045 101.383 166.849 100.991 166.457C100.599 166.065 100.403 165.561 100.403 164.945C100.403 164.348 100.599 163.853 100.991 163.461C101.402 163.051 101.906 162.845 102.503 162.845H103.063C103.661 162.845 104.155 163.051 104.547 163.461C104.958 163.853 105.163 164.348 105.163 164.945C105.163 165.561 104.967 166.065 104.575 166.457C104.183 166.849 103.679 167.045 103.063 167.045H102.503Z" fill="#9787F2"/>
<path d="M210.528 337.105C209.427 337.105 208.475 336.919 207.672 336.545C206.888 336.191 206.291 335.659 205.88 334.949C205.47 334.259 205.292 333.428 205.348 332.457L205.628 327.865C205.684 326.876 205.535 326.167 205.18 325.737C204.826 325.289 204.042 325.065 202.828 325.065H199.748V322.825H202.828C204.042 322.825 204.826 322.611 205.18 322.181C205.535 321.733 205.684 321.015 205.628 320.025L205.348 315.433C205.292 314.444 205.47 313.604 205.88 312.913C206.291 312.223 206.888 311.7 207.672 311.345C208.475 310.972 209.427 310.785 210.528 310.785H211.788V313.025H210.528C209.651 313.025 208.979 313.231 208.512 313.641C208.046 314.033 207.831 314.631 207.868 315.433L208.148 320.025C208.223 321.239 207.934 322.209 207.28 322.937C206.627 323.647 205.703 324.001 204.508 324.001V323.861C205.684 323.861 206.599 324.225 207.252 324.953C207.924 325.681 208.223 326.652 208.148 327.865L207.868 332.457C207.831 333.26 208.046 333.857 208.512 334.249C208.979 334.66 209.651 334.865 210.528 334.865H211.788V337.105H210.528ZM216.537 337.105V334.865H217.797C218.675 334.865 219.347 334.66 219.813 334.249C220.28 333.857 220.495 333.26 220.457 332.457L220.177 327.865C220.103 326.652 220.392 325.681 221.045 324.953C221.717 324.225 222.641 323.861 223.817 323.861V324.001C222.623 324.001 221.699 323.647 221.045 322.937C220.392 322.209 220.103 321.239 220.177 320.025L220.457 315.433C220.495 314.631 220.28 314.033 219.813 313.641C219.347 313.231 218.675 313.025 217.797 313.025H216.537V310.785H217.797C218.899 310.785 219.841 310.972 220.625 311.345C221.428 311.7 222.035 312.223 222.445 312.913C222.856 313.604 223.033 314.444 222.977 315.433L222.697 320.025C222.641 321.015 222.791 321.733 223.145 322.181C223.5 322.611 224.284 322.825 225.497 322.825H228.577V325.065H225.497C224.303 325.065 223.519 325.289 223.145 325.737C222.791 326.167 222.641 326.876 222.697 327.865L222.977 332.457C223.033 333.428 222.856 334.259 222.445 334.949C222.035 335.659 221.428 336.191 220.625 336.545C219.841 336.919 218.899 337.105 217.797 337.105H216.537Z" fill="#9787F2"/>
</g>
<g filter="url(#filter0_f_10531_22051)">
<mask id="path-8-outside-1_10531_22051" maskUnits="userSpaceOnUse" x="190.43" y="189.094" width="232" height="284" fill="black">
<rect fill="white" x="190.43" y="189.094" width="232" height="284"/>
<path d="M403.29 200.094C407.721 200.094 411.304 203.677 411.304 208.108V441.336C411.304 445.767 407.721 449.35 403.29 449.351H397.668L397.682 453.807V453.813C397.682 458.237 394.108 461.847 389.668 461.847H209.445C205.014 461.846 201.431 458.263 201.43 453.832V220.604C201.431 216.174 205.014 212.59 209.445 212.59H215.067L215.052 208.134V208.127C215.053 203.704 218.627 200.094 223.067 200.094H403.29Z"/>
</mask>
<path d="M403.29 200.094C407.721 200.094 411.304 203.677 411.304 208.108V441.336C411.304 445.767 407.721 449.35 403.29 449.351H397.668L397.682 453.807V453.813C397.682 458.237 394.108 461.847 389.668 461.847H209.445C205.014 461.846 201.431 458.263 201.43 453.832V220.604C201.431 216.174 205.014 212.59 209.445 212.59H215.067L215.052 208.134V208.127C215.053 203.704 218.627 200.094 223.067 200.094H403.29Z" fill="#AEA0FF"/>
<path d="M403.29 200.094L403.29 189.421H403.29V200.094ZM411.304 208.108H421.977L421.977 208.107L411.304 208.108ZM411.304 441.336L421.977 441.337V441.336H411.304ZM403.29 449.351V460.023H403.29L403.29 449.351ZM397.668 449.351V438.678H386.96L386.995 449.386L397.668 449.351ZM397.682 453.807H408.355V453.789L408.355 453.772L397.682 453.807ZM397.682 453.813L408.355 453.813V453.813H397.682ZM389.668 461.847V472.519H389.668L389.668 461.847ZM209.445 461.847L209.444 472.519H209.445V461.847ZM201.43 453.832H190.758V453.833L201.43 453.832ZM201.43 220.604L190.758 220.603V220.604H201.43ZM209.445 212.59V201.918L209.444 201.918L209.445 212.59ZM215.067 212.59V223.262H225.775L225.739 212.555L215.067 212.59ZM215.052 208.134H204.38V208.151L204.38 208.169L215.052 208.134ZM215.052 208.127L204.38 208.127V208.127H215.052ZM223.067 200.094V189.421H223.066L223.067 200.094ZM403.29 200.094L403.289 210.766C401.826 210.766 400.632 209.571 400.632 208.109L411.304 208.108L421.977 208.107C421.976 197.783 413.616 189.422 403.29 189.421L403.29 200.094ZM411.304 208.108H400.632V441.336H411.304H421.977V208.108H411.304ZM411.304 441.336L400.632 441.335C400.632 439.873 401.826 438.678 403.289 438.678L403.29 449.351L403.29 460.023C413.616 460.022 421.976 451.661 421.977 441.337L411.304 441.336ZM403.29 449.351V438.678H397.668V449.351V460.023H403.29V449.351ZM397.668 449.351L386.995 449.386L387.01 453.842L397.682 453.807L408.355 453.772L408.34 449.316L397.668 449.351ZM397.682 453.807H387.01V453.813H397.682H408.355V453.807H397.682ZM397.682 453.813L387.01 453.813C387.01 452.389 388.167 451.174 389.667 451.174L389.668 461.847L389.668 472.519C400.048 472.519 408.355 464.084 408.355 453.813L397.682 453.813ZM389.668 461.847V451.174H209.445V461.847V472.519H389.668V461.847ZM209.445 461.847L209.446 451.174C210.908 451.174 212.103 452.368 212.103 453.831L201.43 453.832L190.758 453.833C190.759 464.158 199.12 472.518 209.444 472.519L209.445 461.847ZM201.43 453.832H212.103V220.604H201.43H190.758V453.832H201.43ZM201.43 220.604L212.103 220.606C212.103 222.068 210.909 223.262 209.446 223.262L209.445 212.59L209.444 201.918C199.12 201.919 190.759 210.279 190.758 220.603L201.43 220.604ZM209.445 212.59V223.262H215.067V212.59V201.918H209.445V212.59ZM215.067 212.59L225.739 212.555L225.725 208.099L215.052 208.134L204.38 208.169L204.395 212.625L215.067 212.59ZM215.052 208.134H225.725V208.127H215.052H204.38V208.134H215.052ZM215.052 208.127L225.725 208.127C225.725 209.552 224.568 210.766 223.068 210.766L223.067 200.094L223.066 189.421C212.687 189.422 204.38 197.856 204.38 208.127L215.052 208.127ZM223.067 200.094V210.766H403.29V200.094V189.421H223.067V200.094Z" fill="#AEA0FF" mask="url(#path-8-outside-1_10531_22051)"/>
</g>
<path d="M223.068 202.236H403.289C406.538 202.236 409.163 204.861 409.163 208.11V441.336C409.163 444.585 406.538 447.209 403.289 447.209H256.363L255.738 446.584L217.837 408.737V408.094L217.194 208.128C217.194 204.879 219.818 202.236 223.068 202.236Z" fill="#7C6BE4" stroke="#7C6BE4" stroke-width="4.28228" stroke-miterlimit="10"/>
<path d="M389.667 459.705H209.446C206.197 459.705 203.572 457.081 203.572 453.832V220.606C203.572 217.357 206.197 214.732 209.446 214.732H356.372L356.997 215.357L394.898 253.205V253.847L395.541 453.814C395.541 457.063 392.917 459.705 389.667 459.705Z" fill="#E4DFFF" stroke="#7C6BE4" stroke-width="4.28228" stroke-miterlimit="10"/>
<path d="M231.695 246.604H368.263" stroke="#7C6BE4" stroke-width="4.28228" stroke-miterlimit="10"/>
<path d="M231.695 276.021H368.263" stroke="#7C6BE4" stroke-width="4.28228" stroke-miterlimit="10"/>
<path d="M231.695 306.271H368.263" stroke="#7C6BE4" stroke-width="4.28228" stroke-miterlimit="10"/>
<path d="M231.695 335.018H368.263" stroke="#7C6BE4" stroke-width="4.28228" stroke-miterlimit="10"/>
<path d="M394.9 253.206V253.849H361.694C359.105 253.849 356.999 251.742 356.999 249.154V215.877C356.999 215.68 357.231 215.591 357.374 215.716L394.9 253.188V253.206Z" fill="#E4DFFF" stroke="#7C6BE4" stroke-width="4.28228" stroke-miterlimit="10"/>
<rect x="31" y="26.6172" width="101.023" height="58.1163" rx="29.0581" fill="#7C6BE4"/>
<path d="M57.4691 48.7211H60.3457L63.5562 58.8539L66.674 48.7211H69.4948L64.8553 62.1758H62.1458L57.4691 48.7211ZM73.2565 48.7211V60.023H79.8075V62.1758H70.6026V48.7211H73.2565ZM89.7277 55.4392C89.7277 51.4121 87.3337 50.7996 84.884 50.7996H83.6592V60.0973H84.884C87.3337 60.0973 89.7277 59.5034 89.7277 55.4392ZM81.0054 48.7211H84.9954C89.2637 48.7211 92.4743 50.0944 92.4743 55.4392C92.4743 60.7839 89.2637 62.1758 84.9954 62.1758H81.0054V48.7211ZM94.344 62.1758V48.7211H99.5774C101.934 48.7211 104.477 49.4635 104.477 52.2286C104.477 53.4906 103.642 54.6226 102.955 55.068C103.994 55.5691 104.959 56.3485 104.959 58.2043C104.959 61.0994 102.565 62.1758 99.8001 62.1758H94.344ZM96.9978 56.2743V60.0973H99.93C101.489 60.0973 102.25 59.4477 102.25 58.2043C102.25 56.9424 101.47 56.2743 99.8187 56.2743H96.9978ZM96.9978 50.7996V54.27H99.7444C101.006 54.27 101.749 53.6762 101.749 52.4884C101.749 51.4306 100.988 50.7996 99.7444 50.7996H96.9978Z" fill="#E4DFFF"/>
<defs>
<filter id="filter0_f_10531_22051" x="169.413" y="168.077" width="273.908" height="325.787" filterUnits="userSpaceOnUse" color-interpolation-filters="sRGB">
<feFlood flood-opacity="0" result="BackgroundImageFix"/>
<feBlend mode="normal" in="SourceGraphic" in2="BackgroundImageFix" result="shape"/>
<feGaussianBlur stdDeviation="10.6723" result="effect1_foregroundBlur_10531_22051"/>
</filter>
<linearGradient id="paint0_linear_10531_22051" x1="307.753" y1="-32.2631" x2="302.079" y2="763.324" gradientUnits="userSpaceOnUse">
<stop stop-color="#9683FF"/>
<stop offset="0.938633" stop-color="#D4CDFF"/>
</linearGradient>
<linearGradient id="paint1_linear_10531_22051" x1="306.771" y1="-32.1602" x2="301.116" y2="760.889" gradientUnits="userSpaceOnUse">
<stop stop-color="#9683FF"/>
<stop offset="0.938633" stop-color="#D4CDFF"/>
</linearGradient>
<clipPath id="clip0_10531_22051">
<rect width="625" height="625" fill="white"/>
</clipPath>
</defs>
</svg>
