<svg width="750" height="359" viewBox="0 0 750 359" fill="none" xmlns="http://www.w3.org/2000/svg">
<path d="M8.02148 0.5H741.979C746.132 0.5 749.5 3.86753 749.5 8.02148V350.479C749.5 354.632 746.132 358 741.979 358H8.02148C3.86754 358 0.5 354.632 0.5 350.479V8.02148C0.5 3.9972 3.66049 0.711 7.63477 0.509766L8.02148 0.5Z" fill="#1A1A1A"/>
<path d="M8.02148 0.5H741.979C746.132 0.5 749.5 3.86753 749.5 8.02148V350.479C749.5 354.632 746.132 358 741.979 358H8.02148C3.86754 358 0.5 354.632 0.5 350.479V8.02148C0.5 3.9972 3.66049 0.711 7.63477 0.509766L8.02148 0.5Z" stroke="#333333"/>
<g clip-path="url(#clip0_8642_39483)">
<path d="M460.95 129.6V228.8L375.05 278.4L289.05 228.9V129.6L374.95 80L460.85 129.6H460.95Z" fill="#FFEB00"/>
<path d="M347.55 188.201C335.05 188.201 324.85 178.101 324.85 165.501C324.85 152.901 334.95 142.801 347.55 142.801C360.15 142.801 370.25 152.901 370.25 165.501C370.25 178.101 360.15 188.201 347.55 188.201Z" fill="black"/>
<path d="M347.95 162.802L346.95 160.902C346.85 160.602 346.55 160.602 346.25 160.702C345.25 161.202 344.15 161.602 343.05 161.902C341.55 162.402 339.95 162.902 338.45 163.802C336.75 164.902 334.15 167.402 333.05 168.702C332.75 169.102 332.75 169.702 333.05 170.002L333.95 170.802C334.35 171.102 334.85 171.102 335.25 170.802C335.95 170.102 336.75 169.302 337.55 168.702C338.55 167.802 339.55 167.002 340.45 166.502C342.65 165.402 345.35 164.802 347.65 163.602C347.95 163.402 347.95 163.102 347.85 162.902L347.95 162.802Z" fill="#FFEB00"/>
<path d="M352.05 166.002L350.15 165.002C349.85 164.902 349.55 165.002 349.45 165.202C348.85 166.302 348.35 167.502 347.95 168.702C347.45 170.002 347.05 171.202 346.55 172.402C345.65 174.202 343.75 176.002 342.25 177.602C340.75 179.202 341.95 178.502 342.25 178.902L343.05 179.802C343.35 180.202 343.95 180.202 344.35 179.802C345.15 179.102 345.95 178.302 346.75 177.502C347.75 176.402 348.85 175.202 349.55 173.902C350.75 171.502 351.25 169.002 352.35 166.702C352.45 166.402 352.35 166.202 352.15 166.002H352.05Z" fill="#FFEB00"/>
<path d="M359.85 156.002L359.45 155.602L354.25 159.202L353.65 158.602L357.25 153.402L356.85 153.002C356.65 152.802 356.35 152.802 356.15 153.002L352.15 155.902C351.95 156.002 351.85 156.202 351.75 156.402L350.65 158.802L347.85 160.402L348.75 162.202C348.75 162.202 348.75 162.302 348.75 162.402L349.85 161.902L350.75 162.802L350.25 163.802C350.25 163.802 350.25 163.802 350.35 163.802L352.25 164.702L353.85 161.902L356.25 160.802C356.45 160.802 356.55 160.602 356.75 160.402L359.65 156.402C359.65 156.202 359.65 155.902 359.55 155.702L359.85 156.002ZM352.25 161.802C351.65 161.802 351.15 161.302 351.15 160.702C351.15 160.102 351.65 159.602 352.25 159.602C352.85 159.602 353.35 160.102 353.35 160.702C353.35 161.302 352.85 161.802 352.25 161.802Z" fill="#FFEB00"/>
<path d="M402.45 188.201C389.95 188.201 379.75 178.101 379.75 165.501C379.75 152.901 389.85 142.801 402.45 142.801C415.05 142.801 425.15 152.901 425.15 165.501C425.15 178.101 415.05 188.201 402.45 188.201Z" fill="black"/>
<path d="M414.55 162.201H410.15V168.901H414.55C416.35 168.901 417.95 167.401 417.95 165.501C417.95 163.601 416.45 162.201 414.55 162.201Z" fill="#FFEB00"/>
<path d="M388.25 165.502C388.25 170.702 392.45 174.902 397.65 174.902C402.85 174.902 407.05 170.702 407.05 165.502C407.05 160.302 402.85 156.102 397.65 156.102C392.45 156.102 388.25 160.302 388.25 165.502Z" fill="#FFEB00"/>
<path d="M342.85 199.201H345.35V214.601H342.85V213.101C342.15 214.201 340.95 214.901 339.45 214.901C336.75 214.901 334.45 212.601 334.45 208.901C334.45 205.201 336.65 202.901 339.45 202.901C342.25 202.901 342.15 203.601 342.85 204.701V199.201ZM340.05 205.001C338.35 205.001 337.15 206.501 337.15 208.901C337.15 211.301 338.35 212.801 340.05 212.801C341.75 212.801 342.95 211.501 342.95 208.901C342.95 206.301 341.65 205.001 340.05 205.001Z" fill="black"/>
<path d="M354.85 213.002C354.15 214.202 353.05 214.802 351.45 214.802C348.75 214.802 347.65 213.002 347.65 210.302V203.102H350.15V209.702C350.15 211.202 350.35 212.702 352.25 212.702C354.15 212.702 354.85 211.202 354.85 209.202V203.102H357.35V214.502H354.85V212.902V213.002Z" fill="black"/>
<path d="M369.75 207.102H367.25C367.05 205.902 365.95 205.002 364.65 205.002C363.35 205.002 361.65 206.202 361.65 208.902C361.65 211.602 363.05 212.802 364.55 212.802C366.05 212.802 367.05 212.202 367.35 210.702H369.85C369.35 213.402 366.95 214.902 364.55 214.902C362.15 214.902 359.05 212.302 359.05 208.902C359.05 205.502 361.25 202.902 364.65 202.902C368.05 202.902 369.35 204.502 369.75 207.102Z" fill="black"/>
<path d="M373.85 199.202V207.702L378.05 203.102H381.05L376.65 207.802L381.45 214.502H378.55L374.95 209.602L373.75 210.902V214.502H371.25V199.102H373.75L373.85 199.202Z" fill="black"/>
<path d="M384.75 203.202V204.702C385.45 203.602 386.65 202.902 388.15 202.902C390.95 202.902 393.05 205.202 393.05 208.902C393.05 212.602 390.95 214.902 388.15 214.902C385.35 214.902 385.45 214.202 384.75 213.102V218.302H382.25V203.202H384.75ZM387.55 212.802C389.35 212.802 390.35 211.302 390.35 208.902C390.35 206.502 389.35 205.002 387.55 205.002C385.75 205.002 384.65 206.302 384.65 208.902C384.65 211.502 385.95 212.802 387.55 212.802Z" fill="black"/>
<path d="M397.15 214.601H394.65V199.201H397.15V214.601Z" fill="black"/>
<path d="M399.15 218.301V216.401H400.15C401.25 216.401 401.75 216.401 402.25 214.801V214.501C402.35 214.501 398.25 203.201 398.25 203.201H401.05L403.65 211.401L406.25 203.201H408.85L404.85 214.601C403.75 217.501 403.05 218.301 400.45 218.301H399.35H399.15Z" fill="black"/>
<path d="M415.95 205.702C415.55 205.702 415.15 205.702 414.75 205.702C413.15 205.702 412.25 206.302 412.25 208.602V214.602H409.75V203.202H412.25V205.202C412.85 203.902 413.95 203.202 415.35 203.102C415.55 203.102 415.85 203.102 416.05 203.102V205.602L415.95 205.702Z" fill="black"/>
</g>
<defs>
<clipPath id="clip0_8642_39483">
<rect width="171.9" height="198.5" fill="white" transform="translate(289.05 80)"/>
</clipPath>
</defs>
</svg>
