<svg width="750" height="404" viewBox="0 0 750 404" fill="none" xmlns="http://www.w3.org/2000/svg">
<path d="M8.02148 0.5H741.979C746.132 0.5 749.5 3.86753 749.5 8.02148V395.01C749.5 399.164 746.132 402.53 741.979 402.53H8.02148C3.86768 402.53 0.500231 399.164 0.5 395.01V8.02148C0.5 3.9972 3.66049 0.711 7.63477 0.509766L8.02148 0.5Z" fill="#1A1A1A"/>
<path d="M8.02148 0.5H741.979C746.132 0.5 749.5 3.86753 749.5 8.02148V395.01C749.5 399.164 746.132 402.53 741.979 402.53H8.02148C3.86768 402.53 0.500231 399.164 0.5 395.01V8.02148C0.5 3.9972 3.66049 0.711 7.63477 0.509766L8.02148 0.5Z" stroke="#333333"/>
<path d="M87.5925 261.37V299.691H125.914V261.37H87.5925Z" stroke="#F2F2F2" stroke-width="4.79012" stroke-miterlimit="10" stroke-linejoin="round"/>
<path d="M164.235 261.37V299.691H202.556V261.37H164.235Z" stroke="#F2F2F2" stroke-width="4.79012" stroke-miterlimit="10" stroke-linejoin="round"/>
<path d="M240.876 261.37V299.691H279.197V261.37H240.876Z" stroke="#F2F2F2" stroke-width="4.79012" stroke-miterlimit="10" stroke-linejoin="round"/>
<path d="M317.518 261.37V299.691H355.839V261.37H317.518Z" stroke="#F2F2F2" stroke-width="4.79012" stroke-miterlimit="10" stroke-linejoin="round"/>
<path d="M394.161 261.37V299.691H432.482V261.37H394.161Z" stroke="#F2F2F2" stroke-width="4.79012" stroke-miterlimit="10" stroke-linejoin="round"/>
<path d="M470.802 261.37V299.691H509.123V261.37H470.802Z" stroke="#F2F2F2" stroke-width="4.79012" stroke-miterlimit="10" stroke-linejoin="round"/>
<path d="M547.444 261.37V299.691H585.765V261.37H547.444Z" stroke="#F2F2F2" stroke-width="4.79012" stroke-miterlimit="10" stroke-linejoin="round"/>
<path d="M624.087 261.37V299.691H662.408V261.37H624.087Z" stroke="#F2F2F2" stroke-width="4.79012" stroke-miterlimit="10" stroke-linejoin="round"/>
<path d="M327.098 108.088V184.73H365.419V108.088H327.098Z" stroke="#F2F2F2" stroke-width="4.79012" stroke-miterlimit="10" stroke-linejoin="round"/>
<path d="M384.58 108.088V184.73H422.901V108.088H384.58Z" stroke="#F2F2F2" stroke-width="4.79012" stroke-miterlimit="10" stroke-linejoin="round"/>
<path d="M442.061 108.088V184.73H480.382V108.088H442.061Z" stroke="#F2F2F2" stroke-width="4.79012" stroke-miterlimit="10" stroke-linejoin="round"/>
<path d="M269.617 108.088V184.73H307.938V108.088H269.617Z" stroke="#F2F2F2" stroke-width="4.79012" stroke-miterlimit="10" stroke-linejoin="round"/>
<path d="M106.754 318.848H643.247" stroke="#F2F2F2" stroke-width="1.91605" stroke-miterlimit="10" stroke-linejoin="round" stroke-dasharray="9.58 9.58"/>
<path fill-rule="evenodd" clip-rule="evenodd" d="M643.247 318.846L631.272 314.861V322.832L643.247 318.846Z" fill="#F2F2F2" stroke="#F2F2F2" stroke-width="1.91605" stroke-miterlimit="10" stroke-linejoin="round"/>
<path d="M461.222 88.9219H288.778" stroke="#F2F2F2" stroke-width="1.91605" stroke-miterlimit="10" stroke-linejoin="round" stroke-dasharray="9.58 9.58"/>
<path fill-rule="evenodd" clip-rule="evenodd" d="M288.778 88.9207L300.753 92.9062V84.9352L288.778 88.9207Z" fill="#F2F2F2" stroke="#F2F2F2" stroke-width="1.91605" stroke-miterlimit="10" stroke-linejoin="round"/>
<path d="M106.754 261.367L269.618 184.725" stroke="#F2F2F2" stroke-width="1.91605" stroke-miterlimit="10" stroke-linejoin="round"/>
<path fill-rule="evenodd" clip-rule="evenodd" d="M269.618 184.727L257.081 186.215L260.477 193.438L269.618 184.727Z" fill="#F2F2F2" stroke="#F2F2F2" stroke-width="1.91605" stroke-miterlimit="10" stroke-linejoin="round"/>
<path d="M183.394 261.367L279.197 184.725" stroke="#F2F2F2" stroke-width="1.91605" stroke-miterlimit="10" stroke-linejoin="round"/>
<path fill-rule="evenodd" clip-rule="evenodd" d="M279.198 184.726L267.354 189.095L272.34 195.316L279.198 184.726Z" fill="#F2F2F2" stroke="#F2F2F2" stroke-width="1.91605" stroke-miterlimit="10" stroke-linejoin="round"/>
<path d="M260.037 261.367L336.679 184.725" stroke="#F2F2F2" stroke-width="1.91605" stroke-miterlimit="10" stroke-linejoin="round"/>
<path fill-rule="evenodd" clip-rule="evenodd" d="M336.679 184.729L325.396 190.38L331.029 196.012L336.679 184.729Z" fill="#F2F2F2" stroke="#F2F2F2" stroke-width="1.91605" stroke-miterlimit="10" stroke-linejoin="round"/>
<path d="M336.679 261.367L346.26 184.725" stroke="#F2F2F2" stroke-width="1.91605" stroke-miterlimit="10" stroke-linejoin="round"/>
<path fill-rule="evenodd" clip-rule="evenodd" d="M346.259 184.728L340.814 196.114L348.729 197.105L346.259 184.728Z" fill="#F2F2F2" stroke="#F2F2F2" stroke-width="1.91605" stroke-miterlimit="10" stroke-linejoin="round"/>
<path d="M413.321 261.367L403.741 184.725" stroke="#F2F2F2" stroke-width="1.91605" stroke-miterlimit="10" stroke-linejoin="round"/>
<path fill-rule="evenodd" clip-rule="evenodd" d="M403.741 184.728L401.271 197.105L409.186 196.114L403.741 184.728Z" fill="#F2F2F2" stroke="#F2F2F2" stroke-width="1.91605" stroke-miterlimit="10" stroke-linejoin="round"/>
<path d="M489.962 261.367L413.32 184.725" stroke="#F2F2F2" stroke-width="1.91605" stroke-miterlimit="10" stroke-linejoin="round"/>
<path fill-rule="evenodd" clip-rule="evenodd" d="M413.32 184.729L418.971 196.012L424.603 190.38L413.32 184.729Z" fill="#F2F2F2" stroke="#F2F2F2" stroke-width="1.91605" stroke-miterlimit="10" stroke-linejoin="round"/>
<path d="M566.604 261.367L470.802 184.725" stroke="#F2F2F2" stroke-width="1.91605" stroke-miterlimit="10" stroke-linejoin="round"/>
<path fill-rule="evenodd" clip-rule="evenodd" d="M470.802 184.726L477.659 195.316L482.646 189.095L470.802 184.726Z" fill="#F2F2F2" stroke="#F2F2F2" stroke-width="1.91605" stroke-miterlimit="10" stroke-linejoin="round"/>
<path d="M643.248 261.367L480.383 184.725" stroke="#F2F2F2" stroke-width="1.91605" stroke-miterlimit="10" stroke-linejoin="round"/>
<path fill-rule="evenodd" clip-rule="evenodd" d="M480.383 184.727L489.524 193.438L492.92 186.215L480.383 184.727Z" fill="#F2F2F2" stroke="#F2F2F2" stroke-width="1.91605" stroke-miterlimit="10" stroke-linejoin="round"/>
<path d="M192.49 337.658C192.49 337.134 192.49 336.984 192.19 336.984C192.041 336.984 192.003 337.059 191.816 337.359L190.432 339.604C189.122 337.995 187.176 336.984 185.117 336.984C179.878 336.984 175.35 341.513 175.35 347.351C175.35 353.301 179.953 357.754 185.117 357.754C189.833 357.754 192.49 353.675 192.49 350.531C192.49 350.195 192.49 350.045 192.153 350.045C191.891 350.045 191.854 350.157 191.854 350.382C191.592 354.91 188.261 356.931 185.492 356.931C183.508 356.931 178.007 355.733 178.007 347.351C178.007 339.08 183.396 337.845 185.454 337.845C188.486 337.845 191.105 340.39 191.666 344.656C191.741 345.03 191.741 345.105 192.078 345.105C192.49 345.105 192.49 345.03 192.49 344.432V337.658Z" fill="#F2F2F2"/>
<path d="M205.097 349.521C205.097 347.95 205.097 346.827 203.862 345.704C202.852 344.806 201.542 344.395 200.307 344.395C197.95 344.395 196.153 345.929 196.153 347.8C196.153 348.623 196.677 349.035 197.351 349.035C198.025 349.035 198.511 348.548 198.511 347.837C198.511 346.677 197.501 346.677 197.052 346.677C197.725 345.48 199.11 344.956 200.232 344.956C201.542 344.956 203.264 346.041 203.264 348.623V349.783C197.501 349.858 195.33 352.253 195.33 354.461C195.33 356.744 197.95 357.455 199.709 357.455C201.58 357.455 202.889 356.295 203.413 354.91C203.526 356.258 204.424 357.305 205.659 357.305C206.258 357.305 207.904 356.894 207.904 354.611V353.002H207.268V354.611C207.268 356.258 206.594 356.482 206.183 356.482C205.097 356.482 205.097 354.948 205.097 354.536V349.521ZM203.264 353.114C203.264 355.921 201.168 356.856 199.933 356.856C198.511 356.856 197.351 355.846 197.351 354.461C197.351 350.682 202.216 350.345 203.264 350.27V353.114Z" fill="#F2F2F2"/>
<path d="M217.453 345.031C217.453 344.544 217.453 344.395 217.154 344.395C216.929 344.395 216.405 345.031 216.181 345.293C215.32 344.544 214.422 344.395 213.486 344.395C210.043 344.395 208.996 346.266 208.996 347.837C208.996 348.174 208.996 349.185 210.081 350.158C211.016 350.981 211.989 351.168 213.299 351.43C214.871 351.729 215.245 351.842 215.956 352.403C216.48 352.815 216.854 353.451 216.854 354.274C216.854 355.509 216.143 356.856 213.599 356.856C211.727 356.856 210.343 355.771 209.707 352.927C209.594 352.403 209.594 352.366 209.594 352.328C209.52 352.216 209.407 352.216 209.332 352.216C208.996 352.216 208.996 352.366 208.996 352.89V356.781C208.996 357.305 208.996 357.455 209.295 357.455C209.445 357.455 209.445 357.418 209.931 356.819C210.081 356.594 210.081 356.557 210.53 356.108C211.615 357.455 213.15 357.455 213.636 357.455C216.63 357.455 218.127 355.771 218.127 353.526C218.127 351.991 217.191 351.056 216.929 350.794C215.919 349.896 215.133 349.746 213.224 349.409C212.401 349.222 210.305 348.81 210.305 347.089C210.305 346.228 210.904 344.918 213.486 344.918C216.592 344.918 216.78 347.575 216.817 348.436C216.854 348.698 217.042 348.698 217.154 348.698C217.453 348.698 217.453 348.548 217.453 348.025V345.031Z" fill="#F2F2F2"/>
<path d="M229.48 346.565C229.143 346.565 228.058 346.565 228.058 347.725C228.058 348.436 228.544 348.923 229.255 348.923C229.891 348.923 230.453 348.511 230.453 347.688C230.453 345.779 228.432 344.395 226.112 344.395C222.781 344.395 220.124 347.351 220.124 350.981C220.124 354.648 222.856 357.455 226.112 357.455C229.891 357.455 230.752 354.012 230.752 353.75C230.752 353.488 230.528 353.488 230.453 353.488C230.191 353.488 230.153 353.563 230.078 353.937C229.442 355.958 227.908 356.819 226.374 356.819C224.615 356.819 222.295 355.285 222.295 350.944C222.295 346.191 224.727 345.031 226.149 345.031C227.234 345.031 228.806 345.442 229.48 346.565Z" fill="#F2F2F2"/>
<path d="M242.609 349.521C242.609 347.95 242.609 346.827 241.374 345.704C240.364 344.806 239.054 344.395 237.819 344.395C235.461 344.395 233.665 345.929 233.665 347.8C233.665 348.623 234.189 349.035 234.863 349.035C235.536 349.035 236.023 348.548 236.023 347.837C236.023 346.677 235.012 346.677 234.563 346.677C235.237 345.48 236.622 344.956 237.744 344.956C239.054 344.956 240.775 346.041 240.775 348.623V349.783C235.012 349.858 232.842 352.253 232.842 354.461C232.842 356.744 235.461 357.455 237.22 357.455C239.091 357.455 240.401 356.295 240.925 354.91C241.037 356.258 241.936 357.305 243.171 357.305C243.769 357.305 245.416 356.894 245.416 354.611V353.002H244.78V354.611C244.78 356.258 244.106 356.482 243.694 356.482C242.609 356.482 242.609 354.948 242.609 354.536V349.521ZM240.775 353.114C240.775 355.921 238.68 356.856 237.445 356.856C236.023 356.856 234.863 355.846 234.863 354.461C234.863 350.682 239.728 350.345 240.775 350.27V353.114Z" fill="#F2F2F2"/>
<path d="M254.142 337.626V338.449C256.126 338.449 256.35 338.636 256.35 340.058V346.383C255.752 345.522 254.517 344.549 252.758 344.549C249.427 344.549 246.583 347.356 246.583 351.023C246.583 354.653 249.277 357.46 252.458 357.46C254.629 357.46 255.864 356 256.276 355.477V357.46L260.317 357.161V356.337C258.371 356.337 258.147 356.113 258.147 354.728V337.289L254.142 337.626ZM256.276 353.793C256.276 354.316 256.276 354.429 255.864 355.027C255.19 356.038 254.03 356.861 252.571 356.861C251.86 356.861 248.754 356.599 248.754 351.023C248.754 348.965 249.09 347.842 249.727 346.869C250.288 346.009 251.448 345.11 252.87 345.11C254.666 345.11 255.639 346.383 255.939 346.869C256.276 347.356 256.276 347.393 256.276 347.917V353.793Z" fill="#F2F2F2"/>
<path d="M272.111 350.532C272.748 350.532 272.785 350.532 272.785 349.971C272.785 347.089 271.251 344.395 267.77 344.395C264.515 344.395 262.007 347.351 262.007 350.869C262.007 354.648 264.926 357.455 268.107 357.455C271.513 357.455 272.785 354.349 272.785 353.75C272.785 353.563 272.673 353.451 272.486 353.451C272.261 353.451 272.186 353.601 272.149 353.75C271.4 356.145 269.492 356.819 268.257 356.819C267.059 356.819 264.178 355.996 264.178 351.056V350.532H272.111ZM264.215 349.971C264.44 345.48 266.947 344.956 267.77 344.956C270.839 344.956 270.989 348.998 271.026 349.971H264.215Z" fill="#F2F2F2"/>
<path d="M282.174 337.626V338.449C284.158 338.449 284.382 338.636 284.382 340.058V346.383C283.783 345.522 282.548 344.549 280.79 344.549C277.459 344.549 274.615 347.356 274.615 351.023C274.615 354.653 277.309 357.46 280.49 357.46C282.661 357.46 283.896 356 284.307 355.477V357.46L288.349 357.161V356.337C286.403 356.337 286.178 356.113 286.178 354.728V337.289L282.174 337.626ZM284.307 353.793C284.307 354.316 284.307 354.429 283.896 355.027C283.222 356.038 282.062 356.861 280.602 356.861C279.891 356.861 276.785 356.599 276.785 351.023C276.785 348.965 277.122 347.842 277.758 346.869C278.32 346.009 279.48 345.11 280.902 345.11C282.698 345.11 283.671 346.383 283.97 346.869C284.307 347.356 284.307 347.393 284.307 347.917V353.793Z" fill="#F2F2F2"/>
<path d="M319.059 350.194C319.059 347.537 319.059 346.751 318.385 345.815C317.562 344.693 316.214 344.543 315.241 344.543C312.846 344.543 311.649 346.264 311.2 347.35C310.788 345.142 309.254 344.543 307.458 344.543C304.651 344.543 303.566 346.901 303.341 347.462V344.543L299.412 344.842V345.666C301.358 345.666 301.62 345.89 301.62 347.275V355.021C301.62 356.331 301.283 356.331 299.412 356.331V357.154C300.16 357.08 301.732 357.08 302.518 357.08C303.341 357.08 304.913 357.08 305.624 357.154V356.331C303.828 356.331 303.453 356.331 303.453 355.021V349.707C303.453 346.713 305.437 345.104 307.233 345.104C308.992 345.104 309.404 346.564 309.404 348.323V355.021C309.404 356.331 309.067 356.331 307.233 356.331V357.154C307.944 357.08 309.516 357.08 310.302 357.08C311.125 357.08 312.697 357.08 313.445 357.154V356.331C311.611 356.331 311.237 356.331 311.237 355.021V349.707C311.237 346.713 313.221 345.104 315.017 345.104C316.776 345.104 317.187 346.564 317.187 348.323V355.021C317.187 356.331 316.851 356.331 315.017 356.331V357.154C315.765 357.08 317.3 357.08 318.086 357.08C318.909 357.08 320.481 357.08 321.229 357.154V356.331C319.77 356.331 319.059 356.331 319.059 355.47V350.194Z" fill="#F2F2F2"/>
<path d="M332.843 350.532C333.479 350.532 333.517 350.532 333.517 349.971C333.517 347.089 331.982 344.395 328.502 344.395C325.246 344.395 322.739 347.351 322.739 350.869C322.739 354.648 325.658 357.455 328.839 357.455C332.244 357.455 333.517 354.349 333.517 353.75C333.517 353.563 333.405 353.451 333.217 353.451C332.993 353.451 332.918 353.601 332.881 353.75C332.132 356.145 330.224 356.819 328.989 356.819C327.791 356.819 324.91 355.996 324.91 351.056V350.532H332.843ZM324.947 349.971C325.171 345.48 327.679 344.956 328.502 344.956C331.571 344.956 331.72 348.998 331.758 349.971H324.947Z" fill="#F2F2F2"/>
<path d="M339.125 350.493C339.125 347.724 340.247 345.104 342.455 345.104C342.68 345.104 342.755 345.104 342.867 345.142C342.642 345.254 342.193 345.404 342.193 346.19C342.193 347.013 342.829 347.35 343.279 347.35C343.877 347.35 344.439 346.975 344.439 346.19C344.439 345.329 343.653 344.543 342.418 344.543C339.985 344.543 339.162 347.163 339.012 347.724H338.975V344.543L335.12 344.842V345.666C337.066 345.666 337.328 345.89 337.328 347.275V355.021C337.328 356.331 336.992 356.331 335.12 356.331V357.154C335.944 357.08 337.515 357.08 338.376 357.08C339.162 357.08 341.183 357.08 341.819 357.154V356.331H341.258C339.162 356.331 339.125 355.994 339.125 354.984V350.493Z" fill="#F2F2F2"/>
<path d="M348.621 351.991C349.968 352.852 351.128 352.852 351.427 352.852C354.009 352.852 355.918 350.906 355.918 348.698C355.918 347.949 355.693 346.864 354.795 345.928C355.881 344.806 357.228 344.806 357.378 344.806C357.49 344.806 357.639 344.806 357.752 344.843C357.452 344.955 357.34 345.255 357.34 345.554C357.34 345.966 357.602 346.303 358.051 346.303C358.313 346.303 358.8 346.153 358.8 345.517C358.8 345.03 358.425 344.207 357.415 344.207C355.918 344.207 354.795 345.143 354.421 345.554C353.56 344.918 352.55 344.544 351.465 344.544C348.883 344.544 346.974 346.49 346.974 348.698C346.974 350.307 347.947 351.355 348.246 351.617C347.91 352.066 347.386 352.889 347.386 354.012C347.386 355.658 348.396 356.369 348.621 356.519C347.311 356.893 346.001 357.941 346.001 359.401C346.001 361.384 348.695 363.031 352.213 363.031C355.619 363.031 358.425 361.496 358.425 359.363C358.425 358.652 358.238 356.968 356.517 356.07C355.057 355.322 353.635 355.322 351.165 355.322C349.406 355.322 349.219 355.322 348.695 354.798C348.433 354.498 348.172 353.937 348.172 353.338C348.172 352.852 348.321 352.365 348.621 351.991ZM351.465 352.253C348.92 352.253 348.92 349.371 348.92 348.698C348.92 348.211 348.92 347.014 349.406 346.265C349.968 345.405 350.829 345.143 351.427 345.143C353.935 345.143 353.935 348.024 353.935 348.698C353.935 349.184 353.935 350.382 353.448 351.13C352.924 351.991 352.063 352.253 351.465 352.253ZM352.213 362.432C349.481 362.432 347.386 361.01 347.386 359.401C347.386 359.176 347.46 358.053 348.546 357.305C349.182 356.893 349.406 356.893 351.427 356.893C353.785 356.893 357.041 356.893 357.041 359.401C357.041 361.085 354.87 362.432 352.213 362.432Z" fill="#F2F2F2"/>
<path d="M370.181 350.532C370.818 350.532 370.855 350.532 370.855 349.971C370.855 347.089 369.321 344.395 365.84 344.395C362.584 344.395 360.077 347.351 360.077 350.869C360.077 354.648 362.996 357.455 366.177 357.455C369.583 357.455 370.855 354.349 370.855 353.75C370.855 353.563 370.743 353.451 370.556 353.451C370.331 353.451 370.256 353.601 370.219 353.75C369.47 356.145 367.562 356.819 366.327 356.819C365.129 356.819 362.248 355.996 362.248 351.056V350.532H370.181ZM362.285 349.971C362.51 345.48 365.017 344.956 365.84 344.956C368.909 344.956 369.059 348.998 369.096 349.971H362.285Z" fill="#F2F2F2"/>
<path d="M390.428 345.031C390.428 344.544 390.428 344.395 390.129 344.395C389.904 344.395 389.38 345.031 389.156 345.293C388.295 344.544 387.397 344.395 386.461 344.395C383.019 344.395 381.971 346.266 381.971 347.837C381.971 348.174 381.971 349.185 383.056 350.158C383.992 350.981 384.965 351.168 386.274 351.43C387.846 351.729 388.22 351.842 388.931 352.403C389.455 352.815 389.829 353.451 389.829 354.274C389.829 355.509 389.118 356.856 386.574 356.856C384.703 356.856 383.318 355.771 382.682 352.927C382.569 352.403 382.569 352.366 382.569 352.328C382.495 352.216 382.382 352.216 382.308 352.216C381.971 352.216 381.971 352.366 381.971 352.89V356.781C381.971 357.305 381.971 357.455 382.27 357.455C382.42 357.455 382.42 357.418 382.906 356.819C383.056 356.594 383.056 356.557 383.505 356.108C384.59 357.455 386.125 357.455 386.611 357.455C389.605 357.455 391.102 355.771 391.102 353.526C391.102 351.991 390.166 351.056 389.904 350.794C388.894 349.896 388.108 349.746 386.199 349.409C385.376 349.222 383.281 348.81 383.281 347.089C383.281 346.228 383.879 344.918 386.461 344.918C389.568 344.918 389.755 347.575 389.792 348.436C389.829 348.698 390.017 348.698 390.129 348.698C390.428 348.698 390.428 348.548 390.428 348.025V345.031Z" fill="#F2F2F2"/>
<path d="M405.222 351.018C405.222 347.351 402.415 344.395 399.085 344.395C395.679 344.395 392.947 347.426 392.947 351.018C392.947 354.686 395.791 357.455 399.085 357.455C402.453 357.455 405.222 354.648 405.222 351.018ZM399.085 356.819C398.037 356.819 396.764 356.37 395.941 354.948C395.155 353.675 395.118 351.991 395.118 350.756C395.118 349.671 395.118 347.95 396.016 346.64C396.802 345.405 398.074 344.956 399.085 344.956C400.17 344.956 401.405 345.48 402.153 346.602C403.051 347.912 403.051 349.709 403.051 350.756C403.051 351.767 403.051 353.563 402.303 354.91C401.517 356.258 400.17 356.819 399.085 356.819Z" fill="#F2F2F2"/>
<path d="M410.882 350.493C410.882 347.724 412.005 345.104 414.213 345.104C414.437 345.104 414.512 345.104 414.624 345.142C414.4 345.254 413.951 345.404 413.951 346.19C413.951 347.013 414.587 347.35 415.036 347.35C415.635 347.35 416.196 346.975 416.196 346.19C416.196 345.329 415.41 344.543 414.175 344.543C411.743 344.543 410.92 347.163 410.77 347.724H410.732V344.543L406.878 344.842V345.666C408.824 345.666 409.086 345.89 409.086 347.275V355.021C409.086 356.331 408.749 356.331 406.878 356.331V357.154C407.701 357.08 409.273 357.08 410.134 357.08C410.92 357.08 412.94 357.08 413.577 357.154V356.331H413.015C410.92 356.331 410.882 355.994 410.882 354.984V350.493Z" fill="#F2F2F2"/>
<path d="M421.771 345.629H425.775V344.806H421.771V339.566H421.135C421.097 342.223 420.049 344.993 417.467 345.068V345.629H419.9V353.6C419.9 356.781 421.995 357.455 423.53 357.455C425.326 357.455 426.262 355.658 426.262 353.6V351.991H425.663V353.563C425.663 355.621 424.802 356.818 423.717 356.818C421.771 356.818 421.771 354.161 421.771 353.675V345.629Z" fill="#F2F2F2"/>
<path d="M442.163 339.531C442.163 338.783 441.564 338.109 440.779 338.109C440.03 338.109 439.394 338.708 439.394 339.494C439.394 340.355 440.068 340.879 440.779 340.879C441.639 340.879 442.163 340.168 442.163 339.531ZM438.234 344.845V345.669C440.03 345.669 440.292 345.856 440.292 347.241V355.024C440.292 356.334 439.993 356.334 438.122 356.334V357.158C438.945 357.083 440.292 357.083 441.153 357.083C441.452 357.083 443.099 357.083 444.072 357.158V356.334C442.238 356.334 442.126 356.185 442.126 355.062V344.546L438.234 344.845Z" fill="#F2F2F2"/>
<path d="M449.804 345.629H453.808V344.806H449.804V339.566H449.167C449.13 342.223 448.082 344.993 445.5 345.068V345.629H447.932V353.6C447.932 356.781 450.028 357.455 451.563 357.455C453.359 357.455 454.294 355.658 454.294 353.6V351.991H453.696V353.563C453.696 355.621 452.835 356.818 451.75 356.818C449.804 356.818 449.804 354.161 449.804 353.675V345.629Z" fill="#F2F2F2"/>
<path d="M466.82 350.532C467.456 350.532 467.494 350.532 467.494 349.971C467.494 347.089 465.959 344.395 462.479 344.395C459.223 344.395 456.716 347.351 456.716 350.869C456.716 354.648 459.635 357.455 462.816 357.455C466.221 357.455 467.494 354.349 467.494 353.75C467.494 353.563 467.381 353.451 467.194 353.451C466.97 353.451 466.895 353.601 466.857 353.75C466.109 356.145 464.2 356.819 462.965 356.819C461.768 356.819 458.886 355.996 458.886 351.056V350.532H466.82ZM458.924 349.971C459.148 345.48 461.656 344.956 462.479 344.956C465.548 344.956 465.697 348.998 465.735 349.971H458.924Z" fill="#F2F2F2"/>
<path d="M473.1 350.493C473.1 347.724 474.223 345.104 476.431 345.104C476.655 345.104 476.73 345.104 476.842 345.142C476.618 345.254 476.169 345.404 476.169 346.19C476.169 347.013 476.805 347.35 477.254 347.35C477.853 347.35 478.414 346.975 478.414 346.19C478.414 345.329 477.628 344.543 476.393 344.543C473.961 344.543 473.137 347.163 472.988 347.724H472.95V344.543L469.096 344.842V345.666C471.042 345.666 471.304 345.89 471.304 347.275V355.021C471.304 356.331 470.967 356.331 469.096 356.331V357.154C469.919 357.08 471.491 357.08 472.351 357.08C473.137 357.08 475.158 357.08 475.794 357.154V356.331H475.233C473.137 356.331 473.1 355.994 473.1 354.984V350.493Z" fill="#F2F2F2"/>
<path d="M490.23 349.521C490.23 347.95 490.23 346.827 488.995 345.704C487.985 344.806 486.675 344.395 485.44 344.395C483.082 344.395 481.286 345.929 481.286 347.8C481.286 348.623 481.81 349.035 482.484 349.035C483.157 349.035 483.644 348.548 483.644 347.837C483.644 346.677 482.633 346.677 482.184 346.677C482.858 345.48 484.243 344.956 485.365 344.956C486.675 344.956 488.397 346.041 488.397 348.623V349.783C482.633 349.858 480.463 352.253 480.463 354.461C480.463 356.744 483.082 357.455 484.841 357.455C486.713 357.455 488.022 356.295 488.546 354.91C488.658 356.258 489.557 357.305 490.792 357.305C491.39 357.305 493.037 356.894 493.037 354.611V353.002H492.401V354.611C492.401 356.258 491.727 356.482 491.316 356.482C490.23 356.482 490.23 354.948 490.23 354.536V349.521ZM488.397 353.114C488.397 355.921 486.301 356.856 485.066 356.856C483.644 356.856 482.484 355.846 482.484 354.461C482.484 350.682 487.349 350.345 488.397 350.27V353.114Z" fill="#F2F2F2"/>
<path d="M498.019 345.629H502.024V344.806H498.019V339.566H497.383C497.346 342.223 496.298 344.993 493.716 345.068V345.629H496.148V353.6C496.148 356.781 498.244 357.455 499.778 357.455C501.575 357.455 502.51 355.658 502.51 353.6V351.991H501.911V353.563C501.911 355.621 501.051 356.818 499.965 356.818C498.019 356.818 498.019 354.161 498.019 353.675V345.629Z" fill="#F2F2F2"/>
<path d="M509.05 339.531C509.05 338.783 508.452 338.109 507.666 338.109C506.917 338.109 506.281 338.708 506.281 339.494C506.281 340.355 506.955 340.879 507.666 340.879C508.527 340.879 509.05 340.168 509.05 339.531ZM505.121 344.845V345.669C506.917 345.669 507.179 345.856 507.179 347.241V355.024C507.179 356.334 506.88 356.334 505.009 356.334V357.158C505.832 357.083 507.179 357.083 508.04 357.083C508.339 357.083 509.986 357.083 510.959 357.158V356.334C509.125 356.334 509.013 356.185 509.013 355.062V344.546L505.121 344.845Z" fill="#F2F2F2"/>
<path d="M524.997 351.018C524.997 347.351 522.19 344.395 518.86 344.395C515.454 344.395 512.722 347.426 512.722 351.018C512.722 354.686 515.566 357.455 518.86 357.455C522.228 357.455 524.997 354.648 524.997 351.018ZM518.86 356.819C517.812 356.819 516.539 356.37 515.716 354.948C514.93 353.675 514.893 351.991 514.893 350.756C514.893 349.671 514.893 347.95 515.791 346.64C516.577 345.405 517.849 344.956 518.86 344.956C519.945 344.956 521.18 345.48 521.928 346.602C522.826 347.912 522.826 349.709 522.826 350.756C522.826 351.767 522.826 353.563 522.078 354.91C521.292 356.258 519.945 356.819 518.86 356.819Z" fill="#F2F2F2"/>
<path d="M538.586 350.194C538.586 347.537 538.586 346.751 537.95 345.815C537.127 344.693 535.78 344.543 534.807 344.543C532 344.543 530.915 346.901 530.69 347.462V344.543L526.761 344.842V345.666C528.707 345.666 528.969 345.89 528.969 347.275V355.021C528.969 356.331 528.632 356.331 526.761 356.331V357.154C527.509 357.08 529.081 357.08 529.867 357.08C530.69 357.08 532.262 357.08 532.973 357.154V356.331C531.177 356.331 530.802 356.331 530.802 355.021V349.707C530.802 346.713 532.786 345.104 534.582 345.104C536.341 345.104 536.753 346.564 536.753 348.323V355.021C536.753 356.331 536.416 356.331 534.582 356.331V357.154C535.293 357.08 536.865 357.08 537.651 357.08C538.474 357.08 540.046 357.08 540.794 357.154V356.331C539.335 356.331 538.624 356.331 538.586 355.47V350.194Z" fill="#F2F2F2"/>
<path d="M572.242 340.619C572.579 339.384 573.028 338.523 575.199 338.448C575.273 338.448 575.61 338.411 575.61 337.924C575.61 337.625 575.348 337.625 575.236 337.625C574.675 337.625 573.215 337.662 572.654 337.662H571.269C570.857 337.662 570.371 337.625 569.959 337.625C569.772 337.625 569.435 337.625 569.435 338.149C569.435 338.448 569.66 338.448 569.884 338.448C571.606 338.486 571.718 339.159 571.718 339.683C571.718 339.908 571.681 340.02 571.606 340.394L568.35 353.305L562.213 338.111C562.026 337.625 561.988 337.625 561.352 337.625H557.872C557.31 337.625 557.048 337.625 557.048 338.149C557.048 338.448 557.236 338.448 557.797 338.448C557.947 338.448 559.631 338.448 559.631 338.71C559.631 338.748 559.556 338.972 559.518 339.084L555.739 354.241C555.402 355.625 554.691 356.262 552.82 356.336C552.67 356.336 552.371 356.374 552.371 356.86C552.371 357.16 552.67 357.16 552.745 357.16C553.306 357.16 554.766 357.085 555.364 357.085H556.712C557.123 357.085 557.61 357.16 558.021 357.16C558.209 357.16 558.545 357.16 558.545 356.598C558.545 356.374 558.246 356.336 558.134 356.336C557.198 356.299 556.263 356.112 556.263 355.101C556.263 354.877 556.337 354.615 556.375 354.39L560.267 339.084C560.417 339.346 560.417 339.421 560.529 339.683L567.34 356.636C567.489 356.973 567.564 357.16 567.826 357.16C568.088 357.16 568.126 357.085 568.238 356.598L572.242 340.619Z" fill="#F2F2F2"/>
<path d="M173.329 40.6736C173.329 40.1497 173.329 40 173.029 40C172.88 40 172.842 40.0748 172.655 40.3742L171.27 42.6196C169.961 41.0104 168.015 40 165.956 40C160.717 40 156.189 44.5282 156.189 50.3661C156.189 56.3164 160.792 60.7697 165.956 60.7697C170.672 60.7697 173.329 56.6906 173.329 53.5471C173.329 53.2103 173.329 53.0606 172.992 53.0606C172.73 53.0606 172.692 53.1728 172.692 53.3974C172.43 57.9255 169.1 59.9464 166.331 59.9464C164.347 59.9464 158.846 58.7488 158.846 50.3661C158.846 42.0957 164.235 40.8607 166.293 40.8607C169.324 40.8607 171.944 43.4055 172.505 47.6717C172.58 48.0459 172.58 48.1208 172.917 48.1208C173.329 48.1208 173.329 48.0459 173.329 47.4471V40.6736Z" fill="#F2F2F2"/>
<path d="M185.937 52.5371C185.937 50.9653 185.937 49.8426 184.702 48.72C183.691 47.8218 182.381 47.4102 181.146 47.4102C178.789 47.4102 176.992 48.9445 176.992 50.8156C176.992 51.6389 177.516 52.0506 178.19 52.0506C178.864 52.0506 179.35 51.5641 179.35 50.8531C179.35 49.6929 178.34 49.6929 177.891 49.6929C178.564 48.4954 179.949 47.9715 181.072 47.9715C182.381 47.9715 184.103 49.0568 184.103 51.6389V52.799C178.34 52.8739 176.169 55.269 176.169 57.4769C176.169 59.7597 178.789 60.4707 180.548 60.4707C182.419 60.4707 183.729 59.3106 184.253 57.926C184.365 59.2732 185.263 60.321 186.498 60.321C187.097 60.321 188.743 59.9094 188.743 57.6266V56.0174H188.107V57.6266C188.107 59.2732 187.433 59.4977 187.022 59.4977C185.937 59.4977 185.937 57.9634 185.937 57.5517V52.5371ZM184.103 56.1297C184.103 58.9364 182.007 59.872 180.772 59.872C179.35 59.872 178.19 58.8615 178.19 57.4769C178.19 53.6972 183.055 53.3604 184.103 53.2855V56.1297Z" fill="#F2F2F2"/>
<path d="M198.292 48.0463C198.292 47.5598 198.292 47.4102 197.993 47.4102C197.768 47.4102 197.244 48.0463 197.02 48.3083C196.159 47.5598 195.261 47.4102 194.325 47.4102C190.882 47.4102 189.834 49.2813 189.834 50.8531C189.834 51.1899 189.834 52.2003 190.92 53.1733C191.855 53.9966 192.828 54.1837 194.138 54.4457C195.71 54.745 196.084 54.8573 196.795 55.4186C197.319 55.8303 197.693 56.4665 197.693 57.2898C197.693 58.5247 196.982 59.872 194.437 59.872C192.566 59.872 191.182 58.7867 190.546 55.9426C190.433 55.4186 190.433 55.3812 190.433 55.3438C190.358 55.2315 190.246 55.2315 190.171 55.2315C189.834 55.2315 189.834 55.3812 189.834 55.9051V59.7971C189.834 60.321 189.834 60.4707 190.134 60.4707C190.284 60.4707 190.284 60.4333 190.77 59.8345C190.92 59.61 190.92 59.5726 191.369 59.1235C192.454 60.4707 193.988 60.4707 194.475 60.4707C197.469 60.4707 198.966 58.7867 198.966 56.5413C198.966 55.007 198.03 54.0714 197.768 53.8095C196.758 52.9113 195.972 52.7616 194.063 52.4248C193.24 52.2377 191.144 51.8261 191.144 50.1046C191.144 49.2439 191.743 47.9341 194.325 47.9341C197.431 47.9341 197.618 50.5911 197.656 51.4518C197.693 51.7138 197.88 51.7138 197.993 51.7138C198.292 51.7138 198.292 51.5641 198.292 51.0402V48.0463Z" fill="#F2F2F2"/>
<path d="M210.319 49.5807C209.982 49.5807 208.897 49.5807 208.897 50.7408C208.897 51.4518 209.383 51.9383 210.094 51.9383C210.73 51.9383 211.292 51.5267 211.292 50.7034C211.292 48.7948 209.271 47.4102 206.951 47.4102C203.62 47.4102 200.963 50.3666 200.963 53.9966C200.963 57.664 203.695 60.4707 206.951 60.4707C210.73 60.4707 211.591 57.0278 211.591 56.7659C211.591 56.5039 211.366 56.5039 211.292 56.5039C211.03 56.5039 210.992 56.5788 210.917 56.953C210.281 58.9738 208.747 59.8345 207.213 59.8345C205.454 59.8345 203.133 58.3002 203.133 53.9592C203.133 49.2065 205.566 48.0463 206.988 48.0463C208.073 48.0463 209.645 48.458 210.319 49.5807Z" fill="#F2F2F2"/>
<path d="M223.448 52.5371C223.448 50.9653 223.448 49.8426 222.213 48.72C221.203 47.8218 219.893 47.4102 218.658 47.4102C216.301 47.4102 214.504 48.9445 214.504 50.8156C214.504 51.6389 215.028 52.0506 215.702 52.0506C216.375 52.0506 216.862 51.5641 216.862 50.8531C216.862 49.6929 215.851 49.6929 215.402 49.6929C216.076 48.4954 217.461 47.9715 218.583 47.9715C219.893 47.9715 221.615 49.0568 221.615 51.6389V52.799C215.851 52.8739 213.681 55.269 213.681 57.4769C213.681 59.7597 216.301 60.4707 218.059 60.4707C219.931 60.4707 221.24 59.3106 221.764 57.926C221.877 59.2732 222.775 60.321 224.01 60.321C224.608 60.321 226.255 59.9094 226.255 57.6266V56.0174H225.619V57.6266C225.619 59.2732 224.945 59.4977 224.534 59.4977C223.448 59.4977 223.448 57.9634 223.448 57.5517V52.5371ZM221.615 56.1297C221.615 58.9364 219.519 59.872 218.284 59.872C216.862 59.872 215.702 58.8615 215.702 57.4769C215.702 53.6972 220.567 53.3604 221.615 53.2855V56.1297Z" fill="#F2F2F2"/>
<path d="M234.98 40.6376V41.4609C236.964 41.4609 237.188 41.648 237.188 43.0701V49.3945C236.589 48.5338 235.355 47.5608 233.596 47.5608C230.265 47.5608 227.421 50.3675 227.421 54.035C227.421 57.665 230.115 60.4717 233.296 60.4717C235.467 60.4717 236.702 59.0122 237.113 58.4883V60.4717L241.155 60.1723V59.349C239.209 59.349 238.985 59.1245 238.985 57.7398V40.3008L234.98 40.6376ZM237.113 56.8043C237.113 57.3282 237.113 57.4404 236.702 58.0392C236.028 59.0496 234.868 59.8729 233.409 59.8729C232.698 59.8729 229.591 59.611 229.591 54.035C229.591 51.9767 229.928 50.854 230.564 49.881C231.126 49.0203 232.286 48.1222 233.708 48.1222C235.504 48.1222 236.477 49.3945 236.777 49.881C237.113 50.3675 237.113 50.4049 237.113 50.9289V56.8043Z" fill="#F2F2F2"/>
<path d="M252.95 53.5475C253.587 53.5475 253.624 53.5475 253.624 52.9862C253.624 50.1046 252.09 47.4102 248.609 47.4102C245.354 47.4102 242.846 50.3666 242.846 53.8843C242.846 57.664 245.765 60.4707 248.946 60.4707C252.352 60.4707 253.624 57.3646 253.624 56.7659C253.624 56.5788 253.512 56.4665 253.325 56.4665C253.1 56.4665 253.025 56.6162 252.988 56.7659C252.239 59.1609 250.331 59.8345 249.096 59.8345C247.898 59.8345 245.017 59.0112 245.017 54.0714V53.5475H252.95ZM245.054 52.9862C245.279 48.4954 247.786 47.9715 248.609 47.9715C251.678 47.9715 251.828 52.0132 251.865 52.9862H245.054Z" fill="#F2F2F2"/>
<path d="M263.013 40.6376V41.4609C264.996 41.4609 265.221 41.648 265.221 43.0701V49.3945C264.622 48.5338 263.387 47.5608 261.628 47.5608C258.298 47.5608 255.454 50.3675 255.454 54.035C255.454 57.665 258.148 60.4717 261.329 60.4717C263.5 60.4717 264.734 59.0122 265.146 58.4883V60.4717L269.188 60.1723V59.349C267.242 59.349 267.017 59.1245 267.017 57.7398V40.3008L263.013 40.6376ZM265.146 56.8043C265.146 57.3282 265.146 57.4404 264.734 58.0392C264.061 59.0496 262.901 59.8729 261.441 59.8729C260.73 59.8729 257.624 59.611 257.624 54.035C257.624 51.9767 257.961 50.854 258.597 49.881C259.158 49.0203 260.319 48.1222 261.741 48.1222C263.537 48.1222 264.51 49.3945 264.809 49.881C265.146 50.3675 265.146 50.4049 265.146 50.9289V56.8043Z" fill="#F2F2F2"/>
<path d="M299.897 53.2094C299.897 50.5524 299.897 49.7665 299.224 48.831C298.401 47.7083 297.053 47.5586 296.08 47.5586C293.685 47.5586 292.488 49.28 292.039 50.3653C291.627 48.1574 290.093 47.5586 288.296 47.5586C285.49 47.5586 284.404 49.9162 284.18 50.4776V47.5586L280.25 47.858V48.6813C282.196 48.6813 282.458 48.9058 282.458 50.2905V58.037C282.458 59.3468 282.122 59.3468 280.25 59.3468V60.1701C280.999 60.0952 282.571 60.0952 283.357 60.0952C284.18 60.0952 285.752 60.0952 286.463 60.1701V59.3468C284.666 59.3468 284.292 59.3468 284.292 58.037V52.7229C284.292 49.7291 286.276 48.1199 288.072 48.1199C289.831 48.1199 290.242 49.5794 290.242 51.3383V58.037C290.242 59.3468 289.906 59.3468 288.072 59.3468V60.1701C288.783 60.0952 290.355 60.0952 291.141 60.0952C291.964 60.0952 293.536 60.0952 294.284 60.1701V59.3468C292.45 59.3468 292.076 59.3468 292.076 58.037V52.7229C292.076 49.7291 294.06 48.1199 295.856 48.1199C297.615 48.1199 298.026 49.5794 298.026 51.3383V58.037C298.026 59.3468 297.69 59.3468 295.856 59.3468V60.1701C296.604 60.0952 298.139 60.0952 298.924 60.0952C299.748 60.0952 301.32 60.0952 302.068 60.1701V59.3468C300.609 59.3468 299.897 59.3468 299.897 58.4861V53.2094Z" fill="#F2F2F2"/>
<path d="M313.682 53.5475C314.318 53.5475 314.356 53.5475 314.356 52.9862C314.356 50.1046 312.822 47.4102 309.341 47.4102C306.085 47.4102 303.578 50.3666 303.578 53.8843C303.578 57.664 306.497 60.4707 309.678 60.4707C313.084 60.4707 314.356 57.3646 314.356 56.7659C314.356 56.5788 314.244 56.4665 314.057 56.4665C313.832 56.4665 313.757 56.6162 313.72 56.7659C312.971 59.1609 311.063 59.8345 309.828 59.8345C308.63 59.8345 305.749 59.0112 305.749 54.0714V53.5475H313.682ZM305.786 52.9862C306.011 48.4954 308.518 47.9715 309.341 47.9715C312.41 47.9715 312.56 52.0132 312.597 52.9862H305.786Z" fill="#F2F2F2"/>
<path d="M319.964 53.5088C319.964 50.7395 321.086 48.1199 323.294 48.1199C323.519 48.1199 323.594 48.1199 323.706 48.1574C323.481 48.2696 323.032 48.4193 323.032 49.2052C323.032 50.0285 323.669 50.3653 324.118 50.3653C324.716 50.3653 325.278 49.9911 325.278 49.2052C325.278 48.3445 324.492 47.5586 323.257 47.5586C320.824 47.5586 320.001 50.1782 319.851 50.7395H319.814V47.5586L315.959 47.858V48.6813C317.905 48.6813 318.167 48.9058 318.167 50.2905V58.037C318.167 59.3468 317.831 59.3468 315.959 59.3468V60.1701C316.783 60.0952 318.355 60.0952 319.215 60.0952C320.001 60.0952 322.022 60.0952 322.658 60.1701V59.3468H322.097C320.001 59.3468 319.964 59.01 319.964 57.9996V53.5088Z" fill="#F2F2F2"/>
<path d="M329.459 55.0066C330.807 55.8673 331.967 55.8673 332.266 55.8673C334.848 55.8673 336.757 53.9213 336.757 51.7134C336.757 50.9649 336.532 49.8797 335.634 48.9441C336.719 47.8214 338.067 47.8214 338.216 47.8214C338.329 47.8214 338.478 47.8214 338.591 47.8588C338.291 47.9711 338.179 48.2705 338.179 48.5699C338.179 48.9815 338.441 49.3183 338.89 49.3183C339.152 49.3183 339.638 49.1686 339.638 48.5325C339.638 48.046 339.264 47.2227 338.254 47.2227C336.757 47.2227 335.634 48.1582 335.26 48.5699C334.399 47.9337 333.389 47.5595 332.304 47.5595C329.721 47.5595 327.813 49.5054 327.813 51.7134C327.813 53.3226 328.786 54.3704 329.085 54.6324C328.748 55.0815 328.224 55.9048 328.224 57.0274C328.224 58.674 329.235 59.3851 329.459 59.5348C328.15 59.909 326.84 60.9568 326.84 62.4163C326.84 64.3997 329.534 66.0463 333.052 66.0463C336.458 66.0463 339.264 64.512 339.264 62.3789C339.264 61.6679 339.077 59.9838 337.356 59.0857C335.896 58.3372 334.474 58.3372 332.004 58.3372C330.245 58.3372 330.058 58.3372 329.534 57.8133C329.272 57.5139 329.01 56.9526 329.01 56.3538C329.01 55.8673 329.16 55.3808 329.459 55.0066ZM332.304 55.2686C329.759 55.2686 329.759 52.387 329.759 51.7134C329.759 51.2269 329.759 50.0294 330.245 49.2809C330.807 48.4202 331.667 48.1582 332.266 48.1582C334.773 48.1582 334.773 51.0398 334.773 51.7134C334.773 52.1999 334.773 53.3974 334.287 54.1459C333.763 55.0066 332.902 55.2686 332.304 55.2686ZM333.052 65.4476C330.32 65.4476 328.224 64.0255 328.224 62.4163C328.224 62.1918 328.299 61.0691 329.385 60.3207C330.021 59.909 330.245 59.909 332.266 59.909C334.624 59.909 337.88 59.909 337.88 62.4163C337.88 64.1004 335.709 65.4476 333.052 65.4476Z" fill="#F2F2F2"/>
<path d="M351.02 53.5475C351.656 53.5475 351.694 53.5475 351.694 52.9862C351.694 50.1046 350.159 47.4102 346.679 47.4102C343.423 47.4102 340.916 50.3666 340.916 53.8843C340.916 57.664 343.835 60.4707 347.016 60.4707C350.421 60.4707 351.694 57.3646 351.694 56.7659C351.694 56.5788 351.582 56.4665 351.394 56.4665C351.17 56.4665 351.095 56.6162 351.058 56.7659C350.309 59.1609 348.401 59.8345 347.166 59.8345C345.968 59.8345 343.087 59.0112 343.087 54.0714V53.5475H351.02ZM343.124 52.9862C343.349 48.4954 345.856 47.9715 346.679 47.9715C349.748 47.9715 349.897 52.0132 349.935 52.9862H343.124Z" fill="#F2F2F2"/>
<path d="M371.268 48.0463C371.268 47.5598 371.268 47.4102 370.968 47.4102C370.744 47.4102 370.22 48.0463 369.995 48.3083C369.135 47.5598 368.237 47.4102 367.301 47.4102C363.858 47.4102 362.81 49.2813 362.81 50.8531C362.81 51.1899 362.81 52.2003 363.896 53.1733C364.831 53.9966 365.804 54.1837 367.114 54.4457C368.686 54.745 369.06 54.8573 369.771 55.4186C370.295 55.8303 370.669 56.4665 370.669 57.2898C370.669 58.5247 369.958 59.872 367.413 59.872C365.542 59.872 364.158 58.7867 363.521 55.9426C363.409 55.4186 363.409 55.3812 363.409 55.3438C363.334 55.2315 363.222 55.2315 363.147 55.2315C362.81 55.2315 362.81 55.3812 362.81 55.9051V59.7971C362.81 60.321 362.81 60.4707 363.11 60.4707C363.259 60.4707 363.259 60.4333 363.746 59.8345C363.896 59.61 363.896 59.5726 364.345 59.1235C365.43 60.4707 366.964 60.4707 367.451 60.4707C370.445 60.4707 371.941 58.7867 371.941 56.5413C371.941 55.007 371.006 54.0714 370.744 53.8095C369.734 52.9113 368.948 52.7616 367.039 52.4248C366.216 52.2377 364.12 51.8261 364.12 50.1046C364.12 49.2439 364.719 47.9341 367.301 47.9341C370.407 47.9341 370.594 50.5911 370.632 51.4518C370.669 51.7138 370.856 51.7138 370.968 51.7138C371.268 51.7138 371.268 51.5641 371.268 51.0402V48.0463Z" fill="#F2F2F2"/>
<path d="M386.061 54.034C386.061 50.3666 383.254 47.4102 379.923 47.4102C376.518 47.4102 373.786 50.4414 373.786 54.034C373.786 57.7014 376.63 60.4707 379.923 60.4707C383.292 60.4707 386.061 57.664 386.061 54.034ZM379.923 59.8345C378.876 59.8345 377.603 59.3855 376.78 57.9634C375.994 56.691 375.957 55.007 375.957 53.772C375.957 52.6868 375.957 50.9653 376.855 49.6555C377.641 48.4206 378.913 47.9715 379.923 47.9715C381.009 47.9715 382.244 48.4954 382.992 49.6181C383.89 50.9279 383.89 52.7242 383.89 53.772C383.89 54.7825 383.89 56.5788 383.142 57.926C382.356 59.2732 381.009 59.8345 379.923 59.8345Z" fill="#F2F2F2"/>
<path d="M391.721 53.5088C391.721 50.7395 392.844 48.1199 395.052 48.1199C395.276 48.1199 395.351 48.1199 395.463 48.1574C395.239 48.2696 394.79 48.4193 394.79 49.2052C394.79 50.0285 395.426 50.3653 395.875 50.3653C396.474 50.3653 397.035 49.9911 397.035 49.2052C397.035 48.3445 396.249 47.5586 395.014 47.5586C392.582 47.5586 391.758 50.1782 391.609 50.7395H391.571V47.5586L387.717 47.858V48.6813C389.663 48.6813 389.925 48.9058 389.925 50.2905V58.037C389.925 59.3468 389.588 59.3468 387.717 59.3468V60.1701C388.54 60.0952 390.112 60.0952 390.973 60.0952C391.758 60.0952 393.779 60.0952 394.415 60.1701V59.3468H393.854C391.758 59.3468 391.721 59.01 391.721 57.9996V53.5088Z" fill="#F2F2F2"/>
<path d="M402.61 48.6445H406.614V47.8212H402.61V42.582H401.974C401.936 45.2391 400.888 48.0083 398.306 48.0832V48.6445H400.739V56.6156C400.739 59.7965 402.834 60.4701 404.369 60.4701C406.165 60.4701 407.101 58.6739 407.101 56.6156V55.0064H406.502V56.5782C406.502 58.6364 405.641 59.834 404.556 59.834C402.61 59.834 402.61 57.1769 402.61 56.6904V48.6445Z" fill="#F2F2F2"/>
<path d="M423.002 42.5471C423.002 41.7986 422.403 41.125 421.617 41.125C420.869 41.125 420.233 41.7238 420.233 42.5096C420.233 43.3704 420.906 43.8943 421.617 43.8943C422.478 43.8943 423.002 43.1833 423.002 42.5471ZM419.073 47.8611V48.6844C420.869 48.6844 421.131 48.8715 421.131 50.2562V58.0401C421.131 59.3499 420.832 59.3499 418.96 59.3499V60.1732C419.784 60.0984 421.131 60.0984 421.992 60.0984C422.291 60.0984 423.938 60.0984 424.911 60.1732V59.3499C423.077 59.3499 422.965 59.2002 422.965 58.0775V47.5617L419.073 47.8611Z" fill="#F2F2F2"/>
<path d="M430.642 48.6445H434.646V47.8212H430.642V42.582H430.005C429.968 45.2391 428.92 48.0083 426.338 48.0832V48.6445H428.77V56.6156C428.77 59.7965 430.866 60.4701 432.4 60.4701C434.197 60.4701 435.132 58.6739 435.132 56.6156V55.0064H434.533V56.5782C434.533 58.6364 433.673 59.834 432.588 59.834C430.642 59.834 430.642 57.1769 430.642 56.6904V48.6445Z" fill="#F2F2F2"/>
<path d="M447.659 53.5475C448.295 53.5475 448.333 53.5475 448.333 52.9862C448.333 50.1046 446.798 47.4102 443.318 47.4102C440.062 47.4102 437.555 50.3666 437.555 53.8843C437.555 57.664 440.474 60.4707 443.655 60.4707C447.06 60.4707 448.333 57.3646 448.333 56.7659C448.333 56.5788 448.22 56.4665 448.033 56.4665C447.809 56.4665 447.734 56.6162 447.697 56.7659C446.948 59.1609 445.039 59.8345 443.805 59.8345C442.607 59.8345 439.725 59.0112 439.725 54.0714V53.5475H447.659ZM439.763 52.9862C439.987 48.4954 442.495 47.9715 443.318 47.9715C446.387 47.9715 446.536 52.0132 446.574 52.9862H439.763Z" fill="#F2F2F2"/>
<path d="M453.938 53.5088C453.938 50.7395 455.061 48.1199 457.268 48.1199C457.493 48.1199 457.568 48.1199 457.68 48.1574C457.456 48.2696 457.007 48.4193 457.007 49.2052C457.007 50.0285 457.643 50.3653 458.092 50.3653C458.691 50.3653 459.252 49.9911 459.252 49.2052C459.252 48.3445 458.466 47.5586 457.231 47.5586C454.799 47.5586 453.975 50.1782 453.826 50.7395H453.788V47.5586L449.934 47.858V48.6813C451.88 48.6813 452.142 48.9058 452.142 50.2905V58.037C452.142 59.3468 451.805 59.3468 449.934 59.3468V60.1701C450.757 60.0952 452.329 60.0952 453.189 60.0952C453.975 60.0952 455.996 60.0952 456.632 60.1701V59.3468H456.071C453.975 59.3468 453.938 59.01 453.938 57.9996V53.5088Z" fill="#F2F2F2"/>
<path d="M471.068 52.5371C471.068 50.9653 471.068 49.8426 469.833 48.72C468.823 47.8218 467.513 47.4102 466.278 47.4102C463.92 47.4102 462.124 48.9445 462.124 50.8156C462.124 51.6389 462.648 52.0506 463.322 52.0506C463.995 52.0506 464.482 51.5641 464.482 50.8531C464.482 49.6929 463.471 49.6929 463.022 49.6929C463.696 48.4954 465.08 47.9715 466.203 47.9715C467.513 47.9715 469.234 49.0568 469.234 51.6389V52.799C463.471 52.8739 461.301 55.269 461.301 57.4769C461.301 59.7597 463.92 60.4707 465.679 60.4707C467.55 60.4707 468.86 59.3106 469.384 57.926C469.496 59.2732 470.395 60.321 471.629 60.321C472.228 60.321 473.875 59.9094 473.875 57.6266V56.0174H473.239V57.6266C473.239 59.2732 472.565 59.4977 472.153 59.4977C471.068 59.4977 471.068 57.9634 471.068 57.5517V52.5371ZM469.234 56.1297C469.234 58.9364 467.139 59.872 465.904 59.872C464.482 59.872 463.322 58.8615 463.322 57.4769C463.322 53.6972 468.187 53.3604 469.234 53.2855V56.1297Z" fill="#F2F2F2"/>
<path d="M478.857 48.6445H482.862V47.8212H478.857V42.582H478.221C478.184 45.2391 477.136 48.0083 474.554 48.0832V48.6445H476.986V56.6156C476.986 59.7965 479.082 60.4701 480.616 60.4701C482.413 60.4701 483.348 58.6739 483.348 56.6156V55.0064H482.749V56.5782C482.749 58.6364 481.889 59.834 480.803 59.834C478.857 59.834 478.857 57.1769 478.857 56.6904V48.6445Z" fill="#F2F2F2"/>
<path d="M489.889 42.5471C489.889 41.7986 489.291 41.125 488.505 41.125C487.756 41.125 487.12 41.7238 487.12 42.5096C487.12 43.3704 487.794 43.8943 488.505 43.8943C489.365 43.8943 489.889 43.1833 489.889 42.5471ZM485.96 47.8611V48.6844C487.756 48.6844 488.018 48.8715 488.018 50.2562V58.0401C488.018 59.3499 487.719 59.3499 485.848 59.3499V60.1732C486.671 60.0984 488.018 60.0984 488.879 60.0984C489.178 60.0984 490.825 60.0984 491.798 60.1732V59.3499C489.964 59.3499 489.852 59.2002 489.852 58.0775V47.5617L485.96 47.8611Z" fill="#F2F2F2"/>
<path d="M505.836 54.034C505.836 50.3666 503.03 47.4102 499.699 47.4102C496.293 47.4102 493.562 50.4414 493.562 54.034C493.562 57.7014 496.406 60.4707 499.699 60.4707C503.067 60.4707 505.836 57.664 505.836 54.034ZM499.699 59.8345C498.651 59.8345 497.379 59.3855 496.555 57.9634C495.769 56.691 495.732 55.007 495.732 53.772C495.732 52.6868 495.732 50.9653 496.63 49.6555C497.416 48.4206 498.688 47.9715 499.699 47.9715C500.784 47.9715 502.019 48.4954 502.768 49.6181C503.666 50.9279 503.666 52.7242 503.666 53.772C503.666 54.7825 503.666 56.5788 502.917 57.926C502.131 59.2732 500.784 59.8345 499.699 59.8345Z" fill="#F2F2F2"/>
<path d="M519.426 53.2094C519.426 50.5524 519.426 49.7665 518.79 48.831C517.966 47.7083 516.619 47.5586 515.646 47.5586C512.839 47.5586 511.754 49.9162 511.529 50.4776V47.5586L507.6 47.858V48.6813C509.546 48.6813 509.808 48.9058 509.808 50.2905V58.037C509.808 59.3468 509.471 59.3468 507.6 59.3468V60.1701C508.349 60.0952 509.92 60.0952 510.706 60.0952C511.529 60.0952 513.101 60.0952 513.812 60.1701V59.3468C512.016 59.3468 511.642 59.3468 511.642 58.037V52.7229C511.642 49.7291 513.625 48.1199 515.421 48.1199C517.18 48.1199 517.592 49.5794 517.592 51.3383V58.037C517.592 59.3468 517.255 59.3468 515.421 59.3468V60.1701C516.133 60.0952 517.704 60.0952 518.49 60.0952C519.313 60.0952 520.885 60.0952 521.634 60.1701V59.3468C520.174 59.3468 519.463 59.3468 519.426 58.4861V53.2094Z" fill="#F2F2F2"/>
<path d="M553.082 43.6345C553.419 42.3995 553.868 41.5388 556.039 41.4639C556.113 41.4639 556.45 41.4265 556.45 40.94C556.45 40.6406 556.188 40.6406 556.076 40.6406C555.515 40.6406 554.055 40.678 553.494 40.678H552.109C551.698 40.678 551.211 40.6406 550.799 40.6406C550.612 40.6406 550.276 40.6406 550.276 41.1645C550.276 41.4639 550.5 41.4639 550.725 41.4639C552.446 41.5014 552.558 42.175 552.558 42.6989C552.558 42.9234 552.521 43.0357 552.446 43.4099L549.19 56.3208L543.053 41.1271C542.866 40.6406 542.828 40.6406 542.192 40.6406H538.712C538.151 40.6406 537.889 40.6406 537.889 41.1645C537.889 41.4639 538.076 41.4639 538.637 41.4639C538.787 41.4639 540.471 41.4639 540.471 41.7259C540.471 41.7633 540.396 41.9878 540.358 42.1001L536.579 57.2564C536.242 58.641 535.531 59.2772 533.66 59.352C533.51 59.352 533.211 59.3895 533.211 59.876C533.211 60.1753 533.51 60.1753 533.585 60.1753C534.146 60.1753 535.606 60.1005 536.205 60.1005H537.552C537.963 60.1005 538.45 60.1753 538.862 60.1753C539.049 60.1753 539.385 60.1753 539.385 59.614C539.385 59.3895 539.086 59.352 538.974 59.352C538.038 59.3146 537.103 59.1275 537.103 58.1171C537.103 57.8926 537.178 57.6306 537.215 57.4061L541.107 42.1001C541.257 42.3621 541.257 42.4369 541.369 42.6989L548.18 59.6514C548.33 59.9882 548.404 60.1753 548.666 60.1753C548.928 60.1753 548.966 60.1005 549.078 59.614L553.082 43.6345Z" fill="#F2F2F2"/>
<path d="M575.12 53.5515H583.016C583.428 53.5515 583.952 53.5515 583.952 53.065C583.952 52.5037 583.465 52.5037 583.016 52.5037H575.12V44.6074C575.12 44.1958 575.12 43.6719 574.596 43.6719C574.072 43.6719 574.072 44.1584 574.072 44.6074V52.5037H566.176C565.764 52.5037 565.24 52.5037 565.24 53.0276C565.24 53.5515 565.727 53.5515 566.176 53.5515H574.072V61.4477C574.072 61.8594 574.072 62.3833 574.596 62.3833C575.12 62.3833 575.12 61.8968 575.12 61.4477V53.5515Z" fill="#F2F2F2"/>
<path d="M600.086 41.836C600.086 41.1624 600.086 41.125 599.525 41.125C598.851 41.9109 597.392 42.9587 594.473 42.9587V43.782C595.109 43.782 596.531 43.782 598.14 43.071V57.9653C598.14 59.0131 598.028 59.3499 595.52 59.3499H594.622V60.1732C595.408 60.0984 598.178 60.0984 599.113 60.0984C600.086 60.0984 602.818 60.0984 603.604 60.1732V59.3499H602.706C600.198 59.3499 600.086 59.0131 600.086 57.9653V41.836Z" fill="#F2F2F2"/>
</svg>
